<?xml version="1.0" encoding="UTF-8" standalone="no"?>
<!DOCTYPE svg PUBLIC "-//W3C//DTD SVG 1.1//EN"
 "http://www.w3.org/Graphics/SVG/1.1/DTD/svg11.dtd">
<!-- Generated by graphviz version 2.43.0 (0)
 -->
<!-- Title: abstract_value_cloner.h Pages: 1 -->
<svg width="723pt" height="610pt"
 viewBox="0.00 0.00 723.00 610.00" xmlns="http://www.w3.org/2000/svg" xmlns:xlink="http://www.w3.org/1999/xlink">
<g id="graph0" class="graph" transform="scale(1 1) rotate(0) translate(4 606)">
<title>abstract_value_cloner.h</title>
<polygon fill="white" stroke="transparent" points="-4,4 -4,-606 719,-606 719,4 -4,4"/>
<!-- Node1 -->
<g id="node1" class="node">
<title>Node1</title>
<g id="a_node1"><a xlink:title=" ">
<polygon fill="#bfbfbf" stroke="black" points="327.5,-582.5 327.5,-601.5 460.5,-601.5 460.5,-582.5 327.5,-582.5"/>
<text text-anchor="middle" x="394" y="-589.5" font-family="Helvetica,sans-Serif" font-size="10.00">abstract_value_cloner.h</text>
</a>
</g>
</g>
<!-- Node2 -->
<g id="node2" class="node">
<title>Node2</title>
<g id="a_node2"><a xlink:href="abstract__value__cloner_8cc.html" target="_top" xlink:title=" ">
<polygon fill="white" stroke="black" points="172.5,-526.5 172.5,-545.5 309.5,-545.5 309.5,-526.5 172.5,-526.5"/>
<text text-anchor="middle" x="241" y="-533.5" font-family="Helvetica,sans-Serif" font-size="10.00">abstract_value_cloner.cc</text>
</a>
</g>
</g>
<!-- Node1&#45;&gt;Node2 -->
<g id="edge1" class="edge">
<title>Node1&#45;&gt;Node2</title>
<path fill="none" stroke="midnightblue" d="M360.11,-579.04C331.32,-568.88 290.71,-554.55 265.13,-545.52"/>
<polygon fill="midnightblue" stroke="midnightblue" points="359.16,-582.42 369.76,-582.44 361.49,-575.81 359.16,-582.42"/>
</g>
<!-- Node3 -->
<g id="node3" class="node">
<title>Node3</title>
<g id="a_node3"><a xlink:href="leaf__system_8h.html" target="_top" xlink:title=" ">
<polygon fill="white" stroke="black" points="513,-246.5 513,-265.5 599,-265.5 599,-246.5 513,-246.5"/>
<text text-anchor="middle" x="556" y="-253.5" font-family="Helvetica,sans-Serif" font-size="10.00">leaf_system.h</text>
</a>
</g>
</g>
<!-- Node1&#45;&gt;Node3 -->
<g id="edge2" class="edge">
<title>Node1&#45;&gt;Node3</title>
<path fill="none" stroke="midnightblue" d="M467.15,-580.88C561.88,-565.69 715,-533.08 715,-481 715,-481 715,-481 715,-367 715,-308.43 641.12,-278.6 594.08,-265.54"/>
<polygon fill="midnightblue" stroke="midnightblue" points="466.37,-577.46 457.04,-582.48 467.46,-584.38 466.37,-577.46"/>
</g>
<!-- Node6 -->
<g id="node6" class="node">
<title>Node6</title>
<g id="a_node6"><a xlink:href="system__base_8h.html" target="_top" xlink:title=" ">
<polygon fill="white" stroke="black" points="293,-414.5 293,-433.5 383,-433.5 383,-414.5 293,-414.5"/>
<text text-anchor="middle" x="338" y="-421.5" font-family="Helvetica,sans-Serif" font-size="10.00">system_base.h</text>
</a>
</g>
</g>
<!-- Node1&#45;&gt;Node6 -->
<g id="edge5" class="edge">
<title>Node1&#45;&gt;Node6</title>
<path fill="none" stroke="midnightblue" d="M387.72,-572.39C375.64,-536.59 349.59,-459.34 340.89,-433.57"/>
<polygon fill="midnightblue" stroke="midnightblue" points="384.48,-573.72 390.99,-582.08 391.11,-571.48 384.48,-573.72"/>
</g>
<!-- Node23 -->
<g id="node23" class="node">
<title>Node23</title>
<g id="a_node23"><a xlink:href="value__producer_8h.html" target="_top" xlink:title=" ">
<polygon fill="white" stroke="black" points="400.5,-526.5 400.5,-545.5 501.5,-545.5 501.5,-526.5 400.5,-526.5"/>
<text text-anchor="middle" x="451" y="-533.5" font-family="Helvetica,sans-Serif" font-size="10.00">value_producer.h</text>
</a>
</g>
</g>
<!-- Node1&#45;&gt;Node23 -->
<g id="edge28" class="edge">
<title>Node1&#45;&gt;Node23</title>
<path fill="none" stroke="midnightblue" d="M410.62,-575.25C420.73,-565.67 433.28,-553.79 441.68,-545.83"/>
<polygon fill="midnightblue" stroke="midnightblue" points="408.01,-572.91 403.16,-582.32 412.82,-577.99 408.01,-572.91"/>
</g>
<!-- Node4 -->
<g id="node4" class="node">
<title>Node4</title>
<g id="a_node4"><a xlink:href="initial__value__problem_8cc.html" target="_top" xlink:title=" ">
<polygon fill="white" stroke="black" points="395,-129 395,-148 531,-148 531,-129 395,-129"/>
<text text-anchor="middle" x="463" y="-136" font-family="Helvetica,sans-Serif" font-size="10.00">initial_value_problem.cc</text>
</a>
</g>
</g>
<!-- Node3&#45;&gt;Node4 -->
<g id="edge3" class="edge">
<title>Node3&#45;&gt;Node4</title>
<path fill="none" stroke="midnightblue" d="M549.74,-236.58C544.5,-222.85 536.1,-204.12 525,-190 511.27,-172.54 490.49,-157.18 476.83,-148.11"/>
<polygon fill="midnightblue" stroke="midnightblue" points="546.57,-238.11 553.25,-246.33 553.15,-235.74 546.57,-238.11"/>
</g>
<!-- Node5 -->
<g id="node5" class="node">
<title>Node5</title>
<g id="a_node5"><a xlink:href="leaf__system_8cc.html" target="_top" xlink:title=" ">
<polygon fill="white" stroke="black" points="573,-190.5 573,-209.5 663,-209.5 663,-190.5 573,-190.5"/>
<text text-anchor="middle" x="618" y="-197.5" font-family="Helvetica,sans-Serif" font-size="10.00">leaf_system.cc</text>
</a>
</g>
</g>
<!-- Node3&#45;&gt;Node5 -->
<g id="edge4" class="edge">
<title>Node3&#45;&gt;Node5</title>
<path fill="none" stroke="midnightblue" d="M573.75,-239.54C584.81,-229.91 598.63,-217.87 607.86,-209.83"/>
<polygon fill="midnightblue" stroke="midnightblue" points="571.2,-237.12 565.96,-246.32 575.8,-242.4 571.2,-237.12"/>
</g>
<!-- Node7 -->
<g id="node7" class="node">
<title>Node7</title>
<g id="a_node7"><a xlink:href="system_8h.html" target="_top" xlink:title=" ">
<polygon fill="white" stroke="black" points="128,-302.5 128,-321.5 190,-321.5 190,-302.5 128,-302.5"/>
<text text-anchor="middle" x="159" y="-309.5" font-family="Helvetica,sans-Serif" font-size="10.00">system.h</text>
</a>
</g>
</g>
<!-- Node6&#45;&gt;Node7 -->
<g id="edge6" class="edge">
<title>Node6&#45;&gt;Node7</title>
<path fill="none" stroke="midnightblue" d="M282.74,-416.89C234.79,-410.31 170.69,-398.01 155,-378 142.17,-361.63 149.85,-335.21 155.18,-321.65"/>
<polygon fill="midnightblue" stroke="midnightblue" points="282.33,-420.36 292.7,-418.21 283.24,-413.42 282.33,-420.36"/>
</g>
<!-- Node20 -->
<g id="node20" class="node">
<title>Node20</title>
<g id="a_node20"><a xlink:href="system__base_8cc.html" target="_top" xlink:title=" ">
<polygon fill="white" stroke="black" points="290.5,-358.5 290.5,-377.5 385.5,-377.5 385.5,-358.5 290.5,-358.5"/>
<text text-anchor="middle" x="338" y="-365.5" font-family="Helvetica,sans-Serif" font-size="10.00">system_base.cc</text>
</a>
</g>
</g>
<!-- Node6&#45;&gt;Node20 -->
<g id="edge24" class="edge">
<title>Node6&#45;&gt;Node20</title>
<path fill="none" stroke="midnightblue" d="M338,-403.8C338,-394.91 338,-384.78 338,-377.75"/>
<polygon fill="midnightblue" stroke="midnightblue" points="334.5,-404.08 338,-414.08 341.5,-404.08 334.5,-404.08"/>
</g>
<!-- Node21 -->
<g id="node21" class="node">
<title>Node21</title>
<g id="a_node21"><a xlink:href="witness__function_8h.html" target="_top" xlink:title=" ">
<polygon fill="white" stroke="black" points="164,-358.5 164,-377.5 272,-377.5 272,-358.5 164,-358.5"/>
<text text-anchor="middle" x="218" y="-365.5" font-family="Helvetica,sans-Serif" font-size="10.00">witness_function.h</text>
</a>
</g>
</g>
<!-- Node6&#45;&gt;Node21 -->
<g id="edge25" class="edge">
<title>Node6&#45;&gt;Node21</title>
<path fill="none" stroke="midnightblue" d="M309.63,-410.23C287.18,-400.13 256.46,-386.31 236.93,-377.52"/>
<polygon fill="midnightblue" stroke="midnightblue" points="308.43,-413.53 318.99,-414.44 311.3,-407.15 308.43,-413.53"/>
</g>
<!-- Node7&#45;&gt;Node3 -->
<g id="edge22" class="edge">
<title>Node7&#45;&gt;Node3</title>
<path fill="none" stroke="midnightblue" d="M200.36,-301.9C318.89,-281.49 447.49,-267.58 512.94,-261.08"/>
<polygon fill="midnightblue" stroke="midnightblue" points="199.64,-298.48 190.39,-303.64 200.84,-305.37 199.64,-298.48"/>
</g>
<!-- Node8 -->
<g id="node8" class="node">
<title>Node8</title>
<g id="a_node8"><a xlink:href="integrator__base_8h.html" target="_top" xlink:title=" ">
<polygon fill="white" stroke="black" points="120,-246.5 120,-265.5 222,-265.5 222,-246.5 120,-246.5"/>
<text text-anchor="middle" x="171" y="-253.5" font-family="Helvetica,sans-Serif" font-size="10.00">integrator_base.h</text>
</a>
</g>
</g>
<!-- Node7&#45;&gt;Node8 -->
<g id="edge7" class="edge">
<title>Node7&#45;&gt;Node8</title>
<path fill="none" stroke="midnightblue" d="M163.2,-292.1C165.19,-283.14 167.48,-272.86 169.06,-265.75"/>
<polygon fill="midnightblue" stroke="midnightblue" points="159.73,-291.56 160.98,-302.08 166.57,-293.08 159.73,-291.56"/>
</g>
<!-- Node19 -->
<g id="node19" class="node">
<title>Node19</title>
<g id="a_node19"><a xlink:href="system_8cc.html" target="_top" xlink:title=" ">
<polygon fill="white" stroke="black" points="36,-246.5 36,-265.5 102,-265.5 102,-246.5 36,-246.5"/>
<text text-anchor="middle" x="69" y="-253.5" font-family="Helvetica,sans-Serif" font-size="10.00">system.cc</text>
</a>
</g>
</g>
<!-- Node7&#45;&gt;Node19 -->
<g id="edge23" class="edge">
<title>Node7&#45;&gt;Node19</title>
<path fill="none" stroke="midnightblue" d="M135.96,-297.18C119.4,-287.24 97.58,-274.15 83.42,-265.65"/>
<polygon fill="midnightblue" stroke="midnightblue" points="134.16,-300.18 144.54,-302.32 137.77,-294.18 134.16,-300.18"/>
</g>
<!-- Node9 -->
<g id="node9" class="node">
<title>Node9</title>
<g id="a_node9"><a xlink:href="arc__length__integrator_8cc.html" target="_top" xlink:title=" ">
<polygon fill="white" stroke="black" points="0,-0.5 0,-19.5 134,-19.5 134,-0.5 0,-0.5"/>
<text text-anchor="middle" x="67" y="-7.5" font-family="Helvetica,sans-Serif" font-size="10.00">arc_length_integrator.cc</text>
</a>
</g>
</g>
<!-- Node8&#45;&gt;Node9 -->
<g id="edge8" class="edge">
<title>Node8&#45;&gt;Node9</title>
<path fill="none" stroke="midnightblue" d="M126.47,-242.89C108.94,-235.97 90.13,-225.49 78,-210 35.21,-155.34 40.88,-124.52 52,-56 54.11,-42.99 59.44,-28.67 63.14,-19.75"/>
<polygon fill="midnightblue" stroke="midnightblue" points="125.44,-246.23 136.04,-246.37 127.84,-239.66 125.44,-246.23"/>
</g>
<!-- Node10 -->
<g id="node10" class="node">
<title>Node10</title>
<g id="a_node10"><a xlink:href="inverse__arc__length__integrator_8cc.html" target="_top" xlink:title=" ">
<polygon fill="white" stroke="black" points="61.5,-56.5 61.5,-86.5 170.5,-86.5 170.5,-56.5 61.5,-56.5"/>
<text text-anchor="start" x="69.5" y="-74.5" font-family="Helvetica,sans-Serif" font-size="10.00">inverse_arc_length</text>
<text text-anchor="middle" x="116" y="-63.5" font-family="Helvetica,sans-Serif" font-size="10.00">_integrator.cc</text>
</a>
</g>
</g>
<!-- Node8&#45;&gt;Node10 -->
<g id="edge9" class="edge">
<title>Node8&#45;&gt;Node10</title>
<path fill="none" stroke="midnightblue" d="M130.48,-242.54C114.99,-235.57 98.92,-225.16 90,-210 70.39,-176.67 80.89,-160.58 90,-123 93.16,-109.97 100.3,-96.53 106.3,-86.79"/>
<polygon fill="midnightblue" stroke="midnightblue" points="129.4,-245.88 139.98,-246.44 132.06,-239.4 129.4,-245.88"/>
</g>
<!-- Node11 -->
<g id="node11" class="node">
<title>Node11</title>
<g id="a_node11"><a xlink:href="initial__value__problem_8h.html" target="_top" xlink:title=" ">
<polygon fill="white" stroke="black" points="385.5,-190.5 385.5,-209.5 516.5,-209.5 516.5,-190.5 385.5,-190.5"/>
<text text-anchor="middle" x="451" y="-197.5" font-family="Helvetica,sans-Serif" font-size="10.00">initial_value_problem.h</text>
</a>
</g>
</g>
<!-- Node8&#45;&gt;Node11 -->
<g id="edge10" class="edge">
<title>Node8&#45;&gt;Node11</title>
<path fill="none" stroke="midnightblue" d="M225.25,-244.54C278.17,-234.33 357.67,-219 406.84,-209.52"/>
<polygon fill="midnightblue" stroke="midnightblue" points="224.52,-241.11 215.37,-246.44 225.85,-247.99 224.52,-241.11"/>
</g>
<!-- Node16 -->
<g id="node16" class="node">
<title>Node16</title>
<g id="a_node16"><a xlink:href="integrator__base_8cc.html" target="_top" xlink:title=" ">
<polygon fill="white" stroke="black" points="260.5,-190.5 260.5,-209.5 367.5,-209.5 367.5,-190.5 260.5,-190.5"/>
<text text-anchor="middle" x="314" y="-197.5" font-family="Helvetica,sans-Serif" font-size="10.00">integrator_base.cc</text>
</a>
</g>
</g>
<!-- Node8&#45;&gt;Node16 -->
<g id="edge18" class="edge">
<title>Node8&#45;&gt;Node16</title>
<path fill="none" stroke="midnightblue" d="M203.03,-242.91C229.91,-232.75 267.64,-218.51 291.45,-209.52"/>
<polygon fill="midnightblue" stroke="midnightblue" points="201.78,-239.64 193.66,-246.44 204.25,-246.19 201.78,-239.64"/>
</g>
<!-- Node17 -->
<g id="node17" class="node">
<title>Node17</title>
<g id="a_node17"><a xlink:href="runge__kutta3__integrator_8h.html" target="_top" xlink:title=" ">
<polygon fill="white" stroke="black" points="99.5,-190.5 99.5,-209.5 242.5,-209.5 242.5,-190.5 99.5,-190.5"/>
<text text-anchor="middle" x="171" y="-197.5" font-family="Helvetica,sans-Serif" font-size="10.00">runge_kutta3_integrator.h</text>
</a>
</g>
</g>
<!-- Node8&#45;&gt;Node17 -->
<g id="edge19" class="edge">
<title>Node8&#45;&gt;Node17</title>
<path fill="none" stroke="midnightblue" d="M171,-235.8C171,-226.91 171,-216.78 171,-209.75"/>
<polygon fill="midnightblue" stroke="midnightblue" points="167.5,-236.08 171,-246.08 174.5,-236.08 167.5,-236.08"/>
</g>
<!-- Node11&#45;&gt;Node4 -->
<g id="edge11" class="edge">
<title>Node11&#45;&gt;Node4</title>
<path fill="none" stroke="midnightblue" d="M454.7,-180.66C456.89,-169.77 459.57,-156.49 461.28,-148.01"/>
<polygon fill="midnightblue" stroke="midnightblue" points="451.27,-179.98 452.72,-190.48 458.13,-181.36 451.27,-179.98"/>
</g>
<!-- Node12 -->
<g id="node12" class="node">
<title>Node12</title>
<g id="a_node12"><a xlink:href="scalar__initial__value__problem_8h.html" target="_top" xlink:title=" ">
<polygon fill="white" stroke="black" points="265.5,-123.5 265.5,-153.5 376.5,-153.5 376.5,-123.5 265.5,-123.5"/>
<text text-anchor="start" x="273.5" y="-141.5" font-family="Helvetica,sans-Serif" font-size="10.00">scalar_initial_value</text>
<text text-anchor="middle" x="321" y="-130.5" font-family="Helvetica,sans-Serif" font-size="10.00">_problem.h</text>
</a>
</g>
</g>
<!-- Node11&#45;&gt;Node12 -->
<g id="edge12" class="edge">
<title>Node11&#45;&gt;Node12</title>
<path fill="none" stroke="midnightblue" d="M423.03,-186.2C402.03,-176.58 373.27,-163.42 351.64,-153.52"/>
<polygon fill="midnightblue" stroke="midnightblue" points="421.82,-189.5 432.37,-190.48 424.74,-183.13 421.82,-189.5"/>
</g>
<!-- Node12&#45;&gt;Node10 -->
<g id="edge13" class="edge">
<title>Node12&#45;&gt;Node10</title>
<path fill="none" stroke="midnightblue" d="M267.21,-120.44C233.98,-109.91 191.85,-96.55 160.5,-86.61"/>
<polygon fill="midnightblue" stroke="midnightblue" points="266.18,-123.79 276.77,-123.48 268.3,-117.12 266.18,-123.79"/>
</g>
<!-- Node13 -->
<g id="node13" class="node">
<title>Node13</title>
<g id="a_node13"><a xlink:href="antiderivative__function_8h.html" target="_top" xlink:title=" ">
<polygon fill="white" stroke="black" points="188.5,-62 188.5,-81 327.5,-81 327.5,-62 188.5,-62"/>
<text text-anchor="middle" x="258" y="-69" font-family="Helvetica,sans-Serif" font-size="10.00">antiderivative_function.h</text>
</a>
</g>
</g>
<!-- Node12&#45;&gt;Node13 -->
<g id="edge14" class="edge">
<title>Node12&#45;&gt;Node13</title>
<path fill="none" stroke="midnightblue" d="M300.16,-116C288.66,-104.13 275.01,-90.05 266.43,-81.19"/>
<polygon fill="midnightblue" stroke="midnightblue" points="297.86,-118.65 307.33,-123.4 302.88,-113.78 297.86,-118.65"/>
</g>
<!-- Node15 -->
<g id="node15" class="node">
<title>Node15</title>
<g id="a_node15"><a xlink:href="scalar__initial__value__problem_8cc.html" target="_top" xlink:title=" ">
<polygon fill="white" stroke="black" points="345.5,-56.5 345.5,-86.5 456.5,-86.5 456.5,-56.5 345.5,-56.5"/>
<text text-anchor="start" x="353.5" y="-74.5" font-family="Helvetica,sans-Serif" font-size="10.00">scalar_initial_value</text>
<text text-anchor="middle" x="401" y="-63.5" font-family="Helvetica,sans-Serif" font-size="10.00">_problem.cc</text>
</a>
</g>
</g>
<!-- Node12&#45;&gt;Node15 -->
<g id="edge17" class="edge">
<title>Node12&#45;&gt;Node15</title>
<path fill="none" stroke="midnightblue" d="M346.37,-116.88C358.53,-107.01 372.78,-95.43 383.68,-86.58"/>
<polygon fill="midnightblue" stroke="midnightblue" points="343.91,-114.37 338.36,-123.4 348.33,-119.81 343.91,-114.37"/>
</g>
<!-- Node13&#45;&gt;Node9 -->
<g id="edge15" class="edge">
<title>Node13&#45;&gt;Node9</title>
<path fill="none" stroke="midnightblue" d="M220.7,-58.88C183.57,-47.32 127.48,-29.84 94.31,-19.51"/>
<polygon fill="midnightblue" stroke="midnightblue" points="220.05,-62.34 230.63,-61.98 222.13,-55.66 220.05,-62.34"/>
</g>
<!-- Node14 -->
<g id="node14" class="node">
<title>Node14</title>
<g id="a_node14"><a xlink:href="antiderivative__function_8cc.html" target="_top" xlink:title=" ">
<polygon fill="white" stroke="black" points="186.5,-0.5 186.5,-19.5 329.5,-19.5 329.5,-0.5 186.5,-0.5"/>
<text text-anchor="middle" x="258" y="-7.5" font-family="Helvetica,sans-Serif" font-size="10.00">antiderivative_function.cc</text>
</a>
</g>
</g>
<!-- Node13&#45;&gt;Node14 -->
<g id="edge16" class="edge">
<title>Node13&#45;&gt;Node14</title>
<path fill="none" stroke="midnightblue" d="M258,-51.82C258,-41 258,-27.9 258,-19.51"/>
<polygon fill="midnightblue" stroke="midnightblue" points="254.5,-51.98 258,-61.98 261.5,-51.98 254.5,-51.98"/>
</g>
<!-- Node17&#45;&gt;Node4 -->
<g id="edge20" class="edge">
<title>Node17&#45;&gt;Node4</title>
<path fill="none" stroke="midnightblue" d="M222.66,-188.47C279.25,-176.94 368.91,-158.67 421.24,-148.01"/>
<polygon fill="midnightblue" stroke="midnightblue" points="221.94,-185.05 212.84,-190.48 223.33,-191.91 221.94,-185.05"/>
</g>
<!-- Node18 -->
<g id="node18" class="node">
<title>Node18</title>
<g id="a_node18"><a xlink:href="runge__kutta3__integrator_8cc.html" target="_top" xlink:title=" ">
<polygon fill="white" stroke="black" points="99,-129 99,-148 247,-148 247,-129 99,-129"/>
<text text-anchor="middle" x="173" y="-136" font-family="Helvetica,sans-Serif" font-size="10.00">runge_kutta3_integrator.cc</text>
</a>
</g>
</g>
<!-- Node17&#45;&gt;Node18 -->
<g id="edge21" class="edge">
<title>Node17&#45;&gt;Node18</title>
<path fill="none" stroke="midnightblue" d="M171.63,-180.32C171.99,-169.5 172.43,-156.4 172.71,-148.01"/>
<polygon fill="midnightblue" stroke="midnightblue" points="168.12,-180.36 171.29,-190.48 175.12,-180.6 168.12,-180.36"/>
</g>
<!-- Node21&#45;&gt;Node7 -->
<g id="edge26" class="edge">
<title>Node21&#45;&gt;Node7</title>
<path fill="none" stroke="midnightblue" d="M201.11,-351.54C190.59,-341.91 177.43,-329.87 168.65,-321.83"/>
<polygon fill="midnightblue" stroke="midnightblue" points="198.78,-354.15 208.52,-358.32 203.51,-348.99 198.78,-354.15"/>
</g>
<!-- Node22 -->
<g id="node22" class="node">
<title>Node22</title>
<g id="a_node22"><a xlink:href="witness__function_8cc.html" target="_top" xlink:title=" ">
<polygon fill="white" stroke="black" points="208.5,-302.5 208.5,-321.5 321.5,-321.5 321.5,-302.5 208.5,-302.5"/>
<text text-anchor="middle" x="265" y="-309.5" font-family="Helvetica,sans-Serif" font-size="10.00">witness_function.cc</text>
</a>
</g>
</g>
<!-- Node21&#45;&gt;Node22 -->
<g id="edge27" class="edge">
<title>Node21&#45;&gt;Node22</title>
<path fill="none" stroke="midnightblue" d="M232.42,-350.43C240.66,-340.97 250.65,-329.48 257.38,-321.75"/>
<polygon fill="midnightblue" stroke="midnightblue" points="229.69,-348.24 225.76,-358.08 234.97,-352.84 229.69,-348.24"/>
</g>
<!-- Node23&#45;&gt;Node3 -->
<g id="edge36" class="edge">
<title>Node23&#45;&gt;Node3</title>
<path fill="none" stroke="midnightblue" d="M441.14,-517.43C430.18,-496.21 414,-459.11 414,-425 414,-425 414,-425 414,-367 414,-311.02 483.81,-279.47 525.54,-265.6"/>
<polygon fill="midnightblue" stroke="midnightblue" points="438.19,-519.34 446.01,-526.49 444.36,-516.02 438.19,-519.34"/>
</g>
<!-- Node23&#45;&gt;Node6 -->
<g id="edge37" class="edge">
<title>Node23&#45;&gt;Node6</title>
<path fill="none" stroke="midnightblue" d="M432.96,-519.75C423.05,-511.2 410.64,-500.23 400,-490 379.77,-470.54 357.34,-446.31 345.8,-433.64"/>
<polygon fill="midnightblue" stroke="midnightblue" points="430.73,-522.45 440.61,-526.29 435.28,-517.13 430.73,-522.45"/>
</g>
<!-- Node24 -->
<g id="node24" class="node">
<title>Node24</title>
<g id="a_node24"><a xlink:href="cache__entry_8h.html" target="_top" xlink:title=" ">
<polygon fill="white" stroke="black" points="442.5,-470.5 442.5,-489.5 525.5,-489.5 525.5,-470.5 442.5,-470.5"/>
<text text-anchor="middle" x="484" y="-477.5" font-family="Helvetica,sans-Serif" font-size="10.00">cache_entry.h</text>
</a>
</g>
</g>
<!-- Node23&#45;&gt;Node24 -->
<g id="edge29" class="edge">
<title>Node23&#45;&gt;Node24</title>
<path fill="none" stroke="midnightblue" d="M461.83,-517.27C467.47,-508.05 474.12,-497.17 478.65,-489.75"/>
<polygon fill="midnightblue" stroke="midnightblue" points="458.68,-515.73 456.45,-526.08 464.65,-519.38 458.68,-515.73"/>
</g>
<!-- Node26 -->
<g id="node26" class="node">
<title>Node26</title>
<g id="a_node26"><a xlink:href="leaf__output__port_8h.html" target="_top" xlink:title=" ">
<polygon fill="white" stroke="black" points="548,-414.5 548,-433.5 654,-433.5 654,-414.5 548,-414.5"/>
<text text-anchor="middle" x="601" y="-421.5" font-family="Helvetica,sans-Serif" font-size="10.00">leaf_output_port.h</text>
</a>
</g>
</g>
<!-- Node23&#45;&gt;Node26 -->
<g id="edge35" class="edge">
<title>Node23&#45;&gt;Node26</title>
<path fill="none" stroke="midnightblue" d="M511.92,-530.09C566.24,-524.29 639.9,-512.46 658,-490 674.77,-469.2 640.66,-445.9 618.32,-433.63"/>
<polygon fill="midnightblue" stroke="midnightblue" points="511.27,-526.64 501.67,-531.13 511.98,-533.6 511.27,-526.64"/>
</g>
<!-- Node28 -->
<g id="node28" class="node">
<title>Node28</title>
<g id="a_node28"><a xlink:href="value__producer_8cc.html" target="_top" xlink:title=" ">
<polygon fill="white" stroke="black" points="543.5,-470.5 543.5,-489.5 648.5,-489.5 648.5,-470.5 543.5,-470.5"/>
<text text-anchor="middle" x="596" y="-477.5" font-family="Helvetica,sans-Serif" font-size="10.00">value_producer.cc</text>
</a>
</g>
</g>
<!-- Node23&#45;&gt;Node28 -->
<g id="edge38" class="edge">
<title>Node23&#45;&gt;Node28</title>
<path fill="none" stroke="midnightblue" d="M483.48,-522.91C510.74,-512.75 548.99,-498.51 573.13,-489.52"/>
<polygon fill="midnightblue" stroke="midnightblue" points="482.13,-519.67 473.98,-526.44 484.57,-526.23 482.13,-519.67"/>
</g>
<!-- Node24&#45;&gt;Node6 -->
<g id="edge34" class="edge">
<title>Node24&#45;&gt;Node6</title>
<path fill="none" stroke="midnightblue" d="M451.3,-466.91C423.85,-456.75 385.33,-442.51 361.03,-433.52"/>
<polygon fill="midnightblue" stroke="midnightblue" points="450.27,-470.26 460.87,-470.44 452.7,-463.69 450.27,-470.26"/>
</g>
<!-- Node25 -->
<g id="node25" class="node">
<title>Node25</title>
<g id="a_node25"><a xlink:href="cache__entry_8cc.html" target="_top" xlink:title=" ">
<polygon fill="white" stroke="black" points="442,-414.5 442,-433.5 530,-433.5 530,-414.5 442,-414.5"/>
<text text-anchor="middle" x="486" y="-421.5" font-family="Helvetica,sans-Serif" font-size="10.00">cache_entry.cc</text>
</a>
</g>
</g>
<!-- Node24&#45;&gt;Node25 -->
<g id="edge30" class="edge">
<title>Node24&#45;&gt;Node25</title>
<path fill="none" stroke="midnightblue" d="M484.71,-459.8C485.04,-450.91 485.42,-440.78 485.68,-433.75"/>
<polygon fill="midnightblue" stroke="midnightblue" points="481.2,-459.96 484.33,-470.08 488.2,-460.22 481.2,-459.96"/>
</g>
<!-- Node24&#45;&gt;Node26 -->
<g id="edge31" class="edge">
<title>Node24&#45;&gt;Node26</title>
<path fill="none" stroke="midnightblue" d="M511.66,-466.23C533.55,-456.13 563.5,-442.31 582.55,-433.52"/>
<polygon fill="midnightblue" stroke="midnightblue" points="510.15,-463.08 502.54,-470.44 513.09,-469.43 510.15,-463.08"/>
</g>
<!-- Node26&#45;&gt;Node3 -->
<g id="edge33" class="edge">
<title>Node26&#45;&gt;Node3</title>
<path fill="none" stroke="midnightblue" d="M595.96,-404.39C586.25,-368.59 565.31,-291.34 558.32,-265.57"/>
<polygon fill="midnightblue" stroke="midnightblue" points="592.59,-405.34 598.58,-414.08 599.34,-403.51 592.59,-405.34"/>
</g>
<!-- Node27 -->
<g id="node27" class="node">
<title>Node27</title>
<g id="a_node27"><a xlink:href="leaf__output__port_8cc.html" target="_top" xlink:title=" ">
<polygon fill="white" stroke="black" points="463,-358.5 463,-377.5 573,-377.5 573,-358.5 463,-358.5"/>
<text text-anchor="middle" x="518" y="-365.5" font-family="Helvetica,sans-Serif" font-size="10.00">leaf_output_port.cc</text>
</a>
</g>
</g>
<!-- Node26&#45;&gt;Node27 -->
<g id="edge32" class="edge">
<title>Node26&#45;&gt;Node27</title>
<path fill="none" stroke="midnightblue" d="M578.9,-408.62C563.74,-398.76 544.12,-385.99 531.3,-377.65"/>
<polygon fill="midnightblue" stroke="midnightblue" points="577.37,-411.8 587.66,-414.32 581.19,-405.94 577.37,-411.8"/>
</g>
</g>
</svg>
