<?xml version="1.0" encoding="UTF-8" standalone="no"?>
<!DOCTYPE svg PUBLIC "-//W3C//DTD SVG 1.1//EN"
 "http://www.w3.org/Graphics/SVG/1.1/DTD/svg11.dtd">
<!-- Generated by graphviz version 2.43.0 (0)
 -->
<!-- Title: road_object_book.h Pages: 1 -->
<svg width="1950pt" height="654pt"
 viewBox="0.00 0.00 1950.00 654.00" xmlns="http://www.w3.org/2000/svg" xmlns:xlink="http://www.w3.org/1999/xlink">
<g id="graph0" class="graph" transform="scale(1 1) rotate(0) translate(4 650)">
<title>road_object_book.h</title>
<polygon fill="white" stroke="transparent" points="-4,4 -4,-650 1946,-650 1946,4 -4,4"/>
<!-- Node1 -->
<g id="node1" class="node">
<title>Node1</title>
<g id="a_node1"><a xlink:title=" ">
<polygon fill="#bfbfbf" stroke="black" points="669,-626.5 669,-645.5 781,-645.5 781,-626.5 669,-626.5"/>
<text text-anchor="middle" x="725" y="-633.5" font-family="Helvetica,sans-Serif" font-size="10.00">road_object_book.h</text>
</a>
</g>
</g>
<!-- Node2 -->
<g id="node2" class="node">
<title>Node2</title>
<g id="a_node2"><a xlink:title=" ">
<polygon fill="white" stroke="#bfbfbf" points="1197,-0.5 1197,-19.5 1241,-19.5 1241,-0.5 1197,-0.5"/>
<text text-anchor="middle" x="1219" y="-7.5" font-family="Helvetica,sans-Serif" font-size="10.00">string</text>
</a>
</g>
</g>
<!-- Node1&#45;&gt;Node2 -->
<g id="edge1" class="edge">
<title>Node1&#45;&gt;Node2</title>
<path fill="none" stroke="midnightblue" d="M668.71,-631.54C498.37,-620.32 0,-581.71 0,-514 0,-514 0,-514 0,-126.5 0,-82.34 29.58,-73.76 70,-56 174.61,-10.03 1011.17,-10.29 1186.74,-10.86"/>
<polygon fill="midnightblue" stroke="midnightblue" points="1186.88,-14.36 1196.89,-10.9 1186.9,-7.36 1186.88,-14.36"/>
</g>
<!-- Node3 -->
<g id="node3" class="node">
<title>Node3</title>
<g id="a_node3"><a xlink:title=" ">
<polygon fill="white" stroke="#bfbfbf" points="926.5,-308 926.5,-327 973.5,-327 973.5,-308 926.5,-308"/>
<text text-anchor="middle" x="950" y="-315" font-family="Helvetica,sans-Serif" font-size="10.00">vector</text>
</a>
</g>
</g>
<!-- Node1&#45;&gt;Node3 -->
<g id="edge2" class="edge">
<title>Node1&#45;&gt;Node3</title>
<path fill="none" stroke="midnightblue" d="M781.04,-632.18C848.59,-625.26 957.78,-601.78 996,-523 1027.21,-458.65 983.39,-372.59 961.35,-336.07"/>
<polygon fill="midnightblue" stroke="midnightblue" points="964.05,-333.78 955.79,-327.14 958.11,-337.48 964.05,-333.78"/>
</g>
<!-- Node4 -->
<g id="node4" class="node">
<title>Node4</title>
<g id="a_node4"><a xlink:href="api_2lane_8h.html" target="_top" xlink:title=" ">
<polygon fill="white" stroke="black" points="1302.5,-503.5 1302.5,-522.5 1407.5,-522.5 1407.5,-503.5 1302.5,-503.5"/>
<text text-anchor="middle" x="1355" y="-510.5" font-family="Helvetica,sans-Serif" font-size="10.00">maliput/api/lane.h</text>
</a>
</g>
</g>
<!-- Node1&#45;&gt;Node4 -->
<g id="edge3" class="edge">
<title>Node1&#45;&gt;Node4</title>
<path fill="none" stroke="midnightblue" d="M781.2,-629.86C849.44,-623.11 967.83,-609.75 1068,-590 1158.74,-572.11 1263.28,-541.96 1317.69,-525.53"/>
<polygon fill="midnightblue" stroke="midnightblue" points="1319.02,-528.78 1327.57,-522.53 1316.98,-522.08 1319.02,-528.78"/>
</g>
<!-- Node7 -->
<g id="node7" class="node">
<title>Node7</title>
<g id="a_node7"><a xlink:href="lane__data_8h.html" target="_top" xlink:title=" ">
<polygon fill="white" stroke="black" points="339,-442 339,-461 471,-461 471,-442 339,-442"/>
<text text-anchor="middle" x="405" y="-449" font-family="Helvetica,sans-Serif" font-size="10.00">maliput/api/lane_data.h</text>
</a>
</g>
</g>
<!-- Node1&#45;&gt;Node7 -->
<g id="edge65" class="edge">
<title>Node1&#45;&gt;Node7</title>
<path fill="none" stroke="midnightblue" d="M677.29,-626.48C645.6,-619.56 603.77,-607.96 570,-590 507.37,-556.7 446.71,-496.97 419.68,-468.47"/>
<polygon fill="midnightblue" stroke="midnightblue" points="422.07,-465.91 412.68,-461 416.96,-470.7 422.07,-465.91"/>
</g>
<!-- Node10 -->
<g id="node10" class="node">
<title>Node10</title>
<g id="a_node10"><a xlink:href="maliput__copyable_8h.html" target="_top" xlink:title=" ">
<polygon fill="white" stroke="black" points="639,-235.5 639,-265.5 779,-265.5 779,-235.5 639,-235.5"/>
<text text-anchor="start" x="647" y="-253.5" font-family="Helvetica,sans-Serif" font-size="10.00">maliput/common/maliput</text>
<text text-anchor="middle" x="709" y="-242.5" font-family="Helvetica,sans-Serif" font-size="10.00">_copyable.h</text>
</a>
</g>
</g>
<!-- Node1&#45;&gt;Node10 -->
<g id="edge88" class="edge">
<title>Node1&#45;&gt;Node10</title>
<path fill="none" stroke="midnightblue" d="M699.47,-626.39C658.83,-610.88 584,-574.16 584,-514 584,-514 584,-514 584,-383.5 584,-332.15 634.5,-292.75 671.3,-270.85"/>
<polygon fill="midnightblue" stroke="midnightblue" points="673.4,-273.68 680.32,-265.67 669.91,-267.62 673.4,-273.68"/>
</g>
<!-- Node32 -->
<g id="node32" class="node">
<title>Node32</title>
<g id="a_node32"><a xlink:href="road__object_8h.html" target="_top" xlink:title=" ">
<polygon fill="white" stroke="black" points="792,-559.5 792,-589.5 902,-589.5 902,-559.5 792,-559.5"/>
<text text-anchor="start" x="800" y="-577.5" font-family="Helvetica,sans-Serif" font-size="10.00">maliput/api/objects</text>
<text text-anchor="middle" x="847" y="-566.5" font-family="Helvetica,sans-Serif" font-size="10.00">/road_object.h</text>
</a>
</g>
</g>
<!-- Node1&#45;&gt;Node32 -->
<g id="edge66" class="edge">
<title>Node1&#45;&gt;Node32</title>
<path fill="none" stroke="midnightblue" d="M742.48,-626.48C759.77,-618.04 786.81,-604.86 809.05,-594.01"/>
<polygon fill="midnightblue" stroke="midnightblue" points="810.79,-597.05 818.25,-589.52 807.72,-590.76 810.79,-597.05"/>
</g>
<!-- Node4&#45;&gt;Node2 -->
<g id="edge6" class="edge">
<title>Node4&#45;&gt;Node2</title>
<path fill="none" stroke="midnightblue" d="M1407.51,-509.17C1502.6,-503.57 1699.44,-489.59 1764,-467 1849.62,-437.04 1904,-409.21 1904,-318.5 1904,-318.5 1904,-318.5 1904,-126.5 1904,-59.42 1386.66,-21.7 1251.17,-12.97"/>
<polygon fill="midnightblue" stroke="midnightblue" points="1251.22,-9.47 1241.02,-12.33 1250.77,-16.45 1251.22,-9.47"/>
</g>
<!-- Node5 -->
<g id="node5" class="node">
<title>Node5</title>
<g id="a_node5"><a xlink:title=" ">
<polygon fill="white" stroke="#bfbfbf" points="1082,-442 1082,-461 1140,-461 1140,-442 1082,-442"/>
<text text-anchor="middle" x="1111" y="-449" font-family="Helvetica,sans-Serif" font-size="10.00">memory</text>
</a>
</g>
</g>
<!-- Node4&#45;&gt;Node5 -->
<g id="edge4" class="edge">
<title>Node4&#45;&gt;Node5</title>
<path fill="none" stroke="midnightblue" d="M1310.75,-503.49C1269.8,-495.28 1207.38,-481.93 1154,-467 1150.99,-466.16 1147.87,-465.23 1144.76,-464.26"/>
<polygon fill="midnightblue" stroke="midnightblue" points="1145.56,-460.84 1134.97,-461.08 1143.4,-467.49 1145.56,-460.84"/>
</g>
<!-- Node6 -->
<g id="node6" class="node">
<title>Node6</title>
<g id="a_node6"><a xlink:title=" ">
<polygon fill="white" stroke="#bfbfbf" points="1782,-308 1782,-327 1838,-327 1838,-308 1782,-308"/>
<text text-anchor="middle" x="1810" y="-315" font-family="Helvetica,sans-Serif" font-size="10.00">optional</text>
</a>
</g>
</g>
<!-- Node4&#45;&gt;Node6 -->
<g id="edge5" class="edge">
<title>Node4&#45;&gt;Node6</title>
<path fill="none" stroke="midnightblue" d="M1375.14,-503.44C1447.52,-472.66 1694.7,-367.53 1780.43,-331.07"/>
<polygon fill="midnightblue" stroke="midnightblue" points="1782,-334.21 1789.84,-327.07 1779.27,-327.77 1782,-334.21"/>
</g>
<!-- Node4&#45;&gt;Node7 -->
<g id="edge7" class="edge">
<title>Node4&#45;&gt;Node7</title>
<path fill="none" stroke="midnightblue" d="M1302.23,-508.69C1143.07,-498.73 667.3,-468.93 481,-457.26"/>
<polygon fill="midnightblue" stroke="midnightblue" points="481.22,-453.77 471.02,-456.63 480.78,-460.75 481.22,-453.77"/>
</g>
<!-- Node4&#45;&gt;Node10 -->
<g id="edge63" class="edge">
<title>Node4&#45;&gt;Node10</title>
<path fill="none" stroke="midnightblue" d="M1302.27,-505.2C1267.71,-499.03 1222.51,-487.62 1187,-467 1134,-436.22 1139.82,-404.69 1090,-369 1060.27,-347.7 1046.27,-353.53 1016,-333 999.08,-321.52 1000.31,-311.1 982,-302 921.65,-272.02 845.8,-259.72 789.38,-254.74"/>
<polygon fill="midnightblue" stroke="midnightblue" points="789.33,-251.22 779.08,-253.89 788.76,-258.2 789.33,-251.22"/>
</g>
<!-- Node11 -->
<g id="node11" class="node">
<title>Node11</title>
<g id="a_node11"><a xlink:href="maliput__throw_8h.html" target="_top" xlink:title=" ">
<polygon fill="white" stroke="black" points="1272,-112.5 1272,-142.5 1412,-142.5 1412,-112.5 1272,-112.5"/>
<text text-anchor="start" x="1280" y="-130.5" font-family="Helvetica,sans-Serif" font-size="10.00">maliput/common/maliput</text>
<text text-anchor="middle" x="1342" y="-119.5" font-family="Helvetica,sans-Serif" font-size="10.00">_throw.h</text>
</a>
</g>
</g>
<!-- Node4&#45;&gt;Node11 -->
<g id="edge64" class="edge">
<title>Node4&#45;&gt;Node11</title>
<path fill="none" stroke="midnightblue" d="M1407.66,-509.49C1556.17,-500.41 1960.38,-460.83 1847,-302 1749.76,-165.77 1538.49,-135.4 1422.4,-129.33"/>
<polygon fill="midnightblue" stroke="midnightblue" points="1422.31,-125.82 1412.15,-128.84 1421.98,-132.81 1422.31,-125.82"/>
</g>
<!-- Node25 -->
<g id="node25" class="node">
<title>Node25</title>
<g id="a_node25"><a xlink:href="type__specific__identifier_8h.html" target="_top" xlink:title=" ">
<polygon fill="white" stroke="black" points="1196,-436.5 1196,-466.5 1336,-466.5 1336,-436.5 1196,-436.5"/>
<text text-anchor="start" x="1204" y="-454.5" font-family="Helvetica,sans-Serif" font-size="10.00">maliput/api/type_specific</text>
<text text-anchor="middle" x="1266" y="-443.5" font-family="Helvetica,sans-Serif" font-size="10.00">_identifier.h</text>
</a>
</g>
</g>
<!-- Node4&#45;&gt;Node25 -->
<g id="edge43" class="edge">
<title>Node4&#45;&gt;Node25</title>
<path fill="none" stroke="midnightblue" d="M1342.25,-503.48C1330.08,-495.34 1311.31,-482.79 1295.44,-472.18"/>
<polygon fill="midnightblue" stroke="midnightblue" points="1297.23,-469.17 1286.98,-466.52 1293.34,-474.99 1297.23,-469.17"/>
</g>
<!-- Node7&#45;&gt;Node2 -->
<g id="edge10" class="edge">
<title>Node7&#45;&gt;Node2</title>
<path fill="none" stroke="midnightblue" d="M360.74,-441.99C290.95,-428.48 162.82,-403.33 159,-400 85.32,-335.64 93,-287.83 93,-190 93,-190 93,-190 93,-126.5 93,-13.48 1002.23,-10.32 1186.62,-10.84"/>
<polygon fill="midnightblue" stroke="midnightblue" points="1186.75,-14.34 1196.76,-10.87 1186.77,-7.34 1186.75,-14.34"/>
</g>
<!-- Node8 -->
<g id="node8" class="node">
<title>Node8</title>
<g id="a_node8"><a xlink:title=" ">
<polygon fill="white" stroke="#bfbfbf" points="1106.5,-308 1106.5,-327 1171.5,-327 1171.5,-308 1106.5,-308"/>
<text text-anchor="middle" x="1139" y="-315" font-family="Helvetica,sans-Serif" font-size="10.00">functional</text>
</a>
</g>
</g>
<!-- Node7&#45;&gt;Node8 -->
<g id="edge8" class="edge">
<title>Node7&#45;&gt;Node8</title>
<path fill="none" stroke="midnightblue" d="M471.41,-447.74C600.93,-441.86 882.76,-426.4 976,-400 1030.07,-384.69 1087.58,-351.39 1117.73,-332.43"/>
<polygon fill="midnightblue" stroke="midnightblue" points="1119.62,-335.38 1126.17,-327.05 1115.86,-329.48 1119.62,-335.38"/>
</g>
<!-- Node9 -->
<g id="node9" class="node">
<title>Node9</title>
<g id="a_node9"><a xlink:title=" ">
<polygon fill="white" stroke="#bfbfbf" points="343.5,-241 343.5,-260 400.5,-260 400.5,-241 343.5,-241"/>
<text text-anchor="middle" x="372" y="-248" font-family="Helvetica,sans-Serif" font-size="10.00">ostream</text>
</a>
</g>
</g>
<!-- Node7&#45;&gt;Node9 -->
<g id="edge9" class="edge">
<title>Node7&#45;&gt;Node9</title>
<path fill="none" stroke="midnightblue" d="M390.32,-441.82C363.35,-424.9 306.7,-384.61 285,-333 279.66,-320.3 278.13,-313.94 285,-302 291.56,-290.61 320.47,-275.16 343.19,-264.36"/>
<polygon fill="midnightblue" stroke="midnightblue" points="344.88,-267.43 352.47,-260.04 341.92,-261.09 344.88,-267.43"/>
</g>
<!-- Node7&#45;&gt;Node10 -->
<g id="edge11" class="edge">
<title>Node7&#45;&gt;Node10</title>
<path fill="none" stroke="midnightblue" d="M444.93,-441.93C470.82,-434.59 503.74,-421.68 526,-400 560.21,-366.69 535.02,-334.5 570,-302 586.48,-286.69 607.95,-275.95 629.07,-268.44"/>
<polygon fill="midnightblue" stroke="midnightblue" points="630.35,-271.7 638.73,-265.21 628.14,-265.06 630.35,-271.7"/>
</g>
<!-- Node7&#45;&gt;Node11 -->
<g id="edge12" class="edge">
<title>Node7&#45;&gt;Node11</title>
<path fill="none" stroke="midnightblue" d="M471.32,-447.5C588.13,-441.59 825.58,-426.67 904,-400 993.08,-369.7 1231.46,-205.91 1313.67,-148.44"/>
<polygon fill="midnightblue" stroke="midnightblue" points="1315.83,-151.2 1322.02,-142.59 1311.82,-145.46 1315.83,-151.2"/>
</g>
<!-- Node15 -->
<g id="node15" class="node">
<title>Node15</title>
<g id="a_node15"><a xlink:href="matrix_8h.html" target="_top" xlink:title=" ">
<polygon fill="white" stroke="black" points="121.5,-241 121.5,-260 248.5,-260 248.5,-241 121.5,-241"/>
<text text-anchor="middle" x="185" y="-248" font-family="Helvetica,sans-Serif" font-size="10.00">maliput/math/matrix.h</text>
</a>
</g>
</g>
<!-- Node7&#45;&gt;Node15 -->
<g id="edge18" class="edge">
<title>Node7&#45;&gt;Node15</title>
<path fill="none" stroke="midnightblue" d="M338.87,-444.99C278.65,-438.43 196.15,-425.07 176,-400 145.61,-362.18 164.67,-299.9 176.97,-269.43"/>
<polygon fill="midnightblue" stroke="midnightblue" points="180.25,-270.64 180.94,-260.07 173.81,-267.9 180.25,-270.64"/>
</g>
<!-- Node21 -->
<g id="node21" class="node">
<title>Node21</title>
<g id="a_node21"><a xlink:href="vector_8h.html" target="_top" xlink:title=" ">
<polygon fill="white" stroke="black" points="346.5,-179.5 346.5,-198.5 471.5,-198.5 471.5,-179.5 346.5,-179.5"/>
<text text-anchor="middle" x="409" y="-186.5" font-family="Helvetica,sans-Serif" font-size="10.00">maliput/math/vector.h</text>
</a>
</g>
</g>
<!-- Node7&#45;&gt;Node21 -->
<g id="edge42" class="edge">
<title>Node7&#45;&gt;Node21</title>
<path fill="none" stroke="midnightblue" d="M374.07,-441.86C351.66,-434.17 322.07,-420.85 303,-400 272.59,-366.74 261.44,-344.29 277,-302 294.66,-253.99 347.18,-220.31 380.41,-203.13"/>
<polygon fill="midnightblue" stroke="midnightblue" points="382.25,-206.13 389.63,-198.53 379.12,-199.86 382.25,-206.13"/>
</g>
<!-- Node22 -->
<g id="node22" class="node">
<title>Node22</title>
<g id="a_node22"><a xlink:href="quaternion_8h.html" target="_top" xlink:title=" ">
<polygon fill="white" stroke="black" points="294.5,-308 294.5,-327 441.5,-327 441.5,-308 294.5,-308"/>
<text text-anchor="middle" x="368" y="-315" font-family="Helvetica,sans-Serif" font-size="10.00">maliput/math/quaternion.h</text>
</a>
</g>
</g>
<!-- Node7&#45;&gt;Node22 -->
<g id="edge31" class="edge">
<title>Node7&#45;&gt;Node22</title>
<path fill="none" stroke="midnightblue" d="M398.68,-441.69C392.07,-431.99 381.99,-415.67 377,-400 370.41,-379.28 368.48,-354.27 367.99,-337.47"/>
<polygon fill="midnightblue" stroke="midnightblue" points="371.49,-337.25 367.85,-327.3 364.49,-337.35 371.49,-337.25"/>
</g>
<!-- Node24 -->
<g id="node24" class="node">
<title>Node24</title>
<g id="a_node24"><a xlink:href="roll__pitch__yaw_8h.html" target="_top" xlink:title=" ">
<polygon fill="white" stroke="black" points="386.5,-369.5 386.5,-399.5 517.5,-399.5 517.5,-369.5 386.5,-369.5"/>
<text text-anchor="start" x="394.5" y="-387.5" font-family="Helvetica,sans-Serif" font-size="10.00">maliput/math/roll_pitch</text>
<text text-anchor="middle" x="452" y="-376.5" font-family="Helvetica,sans-Serif" font-size="10.00">_yaw.h</text>
</a>
</g>
</g>
<!-- Node7&#45;&gt;Node24 -->
<g id="edge37" class="edge">
<title>Node7&#45;&gt;Node24</title>
<path fill="none" stroke="midnightblue" d="M411.34,-441.73C417.57,-433.12 427.34,-419.61 435.74,-407.99"/>
<polygon fill="midnightblue" stroke="midnightblue" points="438.79,-409.74 441.81,-399.59 433.12,-405.64 438.79,-409.74"/>
</g>
<!-- Node11&#45;&gt;Node2 -->
<g id="edge14" class="edge">
<title>Node11&#45;&gt;Node2</title>
<path fill="none" stroke="midnightblue" d="M1309.88,-112.32C1292.74,-103.62 1272.12,-91.23 1257,-76 1243.64,-62.55 1233.22,-43.48 1226.7,-29.47"/>
<polygon fill="midnightblue" stroke="midnightblue" points="1229.73,-27.66 1222.49,-19.92 1223.32,-30.48 1229.73,-27.66"/>
</g>
<!-- Node12 -->
<g id="node12" class="node">
<title>Node12</title>
<g id="a_node12"><a xlink:title=" ">
<polygon fill="white" stroke="#bfbfbf" points="1266,-56.5 1266,-75.5 1322,-75.5 1322,-56.5 1266,-56.5"/>
<text text-anchor="middle" x="1294" y="-63.5" font-family="Helvetica,sans-Serif" font-size="10.00">sstream</text>
</a>
</g>
</g>
<!-- Node11&#45;&gt;Node12 -->
<g id="edge13" class="edge">
<title>Node11&#45;&gt;Node12</title>
<path fill="none" stroke="midnightblue" d="M1330.62,-112.4C1323.65,-103.75 1314.69,-92.64 1307.37,-83.58"/>
<polygon fill="midnightblue" stroke="midnightblue" points="1309.99,-81.24 1300.98,-75.66 1304.54,-85.64 1309.99,-81.24"/>
</g>
<!-- Node13 -->
<g id="node13" class="node">
<title>Node13</title>
<g id="a_node13"><a xlink:href="error_8h.html" target="_top" xlink:title=" ">
<polygon fill="white" stroke="black" points="1340.5,-56.5 1340.5,-75.5 1475.5,-75.5 1475.5,-56.5 1340.5,-56.5"/>
<text text-anchor="middle" x="1408" y="-63.5" font-family="Helvetica,sans-Serif" font-size="10.00">maliput/common/error.h</text>
</a>
</g>
</g>
<!-- Node11&#45;&gt;Node13 -->
<g id="edge15" class="edge">
<title>Node11&#45;&gt;Node13</title>
<path fill="none" stroke="midnightblue" d="M1357.64,-112.4C1367.63,-103.4 1380.58,-91.72 1390.85,-82.47"/>
<polygon fill="midnightblue" stroke="midnightblue" points="1393.31,-84.95 1398.4,-75.66 1388.63,-79.75 1393.31,-84.95"/>
</g>
<!-- Node13&#45;&gt;Node2 -->
<g id="edge17" class="edge">
<title>Node13&#45;&gt;Node2</title>
<path fill="none" stroke="midnightblue" d="M1378.05,-56.44C1343.38,-46.54 1286.5,-30.28 1250.98,-20.14"/>
<polygon fill="midnightblue" stroke="midnightblue" points="1251.71,-16.7 1241.13,-17.32 1249.78,-23.44 1251.71,-16.7"/>
</g>
<!-- Node14 -->
<g id="node14" class="node">
<title>Node14</title>
<g id="a_node14"><a xlink:title=" ">
<polygon fill="white" stroke="#bfbfbf" points="1375.5,-0.5 1375.5,-19.5 1440.5,-19.5 1440.5,-0.5 1375.5,-0.5"/>
<text text-anchor="middle" x="1408" y="-7.5" font-family="Helvetica,sans-Serif" font-size="10.00">stdexcept</text>
</a>
</g>
</g>
<!-- Node13&#45;&gt;Node14 -->
<g id="edge16" class="edge">
<title>Node13&#45;&gt;Node14</title>
<path fill="none" stroke="midnightblue" d="M1408,-56.08C1408,-49.01 1408,-38.86 1408,-29.99"/>
<polygon fill="midnightblue" stroke="midnightblue" points="1411.5,-29.75 1408,-19.75 1404.5,-29.75 1411.5,-29.75"/>
</g>
<!-- Node16 -->
<g id="node16" class="node">
<title>Node16</title>
<g id="a_node16"><a xlink:title=" ">
<polygon fill="white" stroke="#bfbfbf" points="200,-118 200,-137 264,-137 264,-118 200,-118"/>
<text text-anchor="middle" x="232" y="-125" font-family="Helvetica,sans-Serif" font-size="10.00">algorithm</text>
</a>
</g>
</g>
<!-- Node15&#45;&gt;Node16 -->
<g id="edge19" class="edge">
<title>Node15&#45;&gt;Node16</title>
<path fill="none" stroke="midnightblue" d="M188.38,-240.8C196,-221.18 214.66,-173.14 224.93,-146.69"/>
<polygon fill="midnightblue" stroke="midnightblue" points="228.29,-147.71 228.65,-137.12 221.77,-145.18 228.29,-147.71"/>
</g>
<!-- Node17 -->
<g id="node17" class="node">
<title>Node17</title>
<g id="a_node17"><a xlink:title=" ">
<polygon fill="white" stroke="#bfbfbf" points="140,-118 140,-137 182,-137 182,-118 140,-118"/>
<text text-anchor="middle" x="161" y="-125" font-family="Helvetica,sans-Serif" font-size="10.00">array</text>
</a>
</g>
</g>
<!-- Node15&#45;&gt;Node17 -->
<g id="edge20" class="edge">
<title>Node15&#45;&gt;Node17</title>
<path fill="none" stroke="midnightblue" d="M183.27,-240.8C179.4,-221.26 169.94,-173.56 164.68,-147.05"/>
<polygon fill="midnightblue" stroke="midnightblue" points="168.09,-146.25 162.71,-137.12 161.22,-147.61 168.09,-146.25"/>
</g>
<!-- Node18 -->
<g id="node18" class="node">
<title>Node18</title>
<g id="a_node18"><a xlink:title=" ">
<polygon fill="white" stroke="#bfbfbf" points="383.5,-118 383.5,-137 436.5,-137 436.5,-118 383.5,-118"/>
<text text-anchor="middle" x="410" y="-125" font-family="Helvetica,sans-Serif" font-size="10.00">cstddef</text>
</a>
</g>
</g>
<!-- Node15&#45;&gt;Node18 -->
<g id="edge21" class="edge">
<title>Node15&#45;&gt;Node18</title>
<path fill="none" stroke="midnightblue" d="M198.69,-240.84C220.59,-227.11 265.01,-199.78 304,-179 329.74,-165.28 359.82,-151.12 381.35,-141.3"/>
<polygon fill="midnightblue" stroke="midnightblue" points="382.93,-144.43 390.59,-137.11 380.04,-138.05 382.93,-144.43"/>
</g>
<!-- Node19 -->
<g id="node19" class="node">
<title>Node19</title>
<g id="a_node19"><a xlink:title=" ">
<polygon fill="white" stroke="#bfbfbf" points="282.5,-118 282.5,-137 365.5,-137 365.5,-118 282.5,-118"/>
<text text-anchor="middle" x="324" y="-125" font-family="Helvetica,sans-Serif" font-size="10.00">initializer_list</text>
</a>
</g>
</g>
<!-- Node15&#45;&gt;Node19 -->
<g id="edge22" class="edge">
<title>Node15&#45;&gt;Node19</title>
<path fill="none" stroke="midnightblue" d="M195,-240.8C218.34,-220.48 276.69,-169.69 306.24,-143.96"/>
<polygon fill="midnightblue" stroke="midnightblue" points="308.85,-146.33 314.09,-137.12 304.25,-141.05 308.85,-146.33"/>
</g>
<!-- Node20 -->
<g id="node20" class="node">
<title>Node20</title>
<g id="a_node20"><a xlink:title=" ">
<polygon fill="white" stroke="#bfbfbf" points="455,-118 455,-137 515,-137 515,-118 455,-118"/>
<text text-anchor="middle" x="485" y="-125" font-family="Helvetica,sans-Serif" font-size="10.00">iostream</text>
</a>
</g>
</g>
<!-- Node15&#45;&gt;Node20 -->
<g id="edge23" class="edge">
<title>Node15&#45;&gt;Node20</title>
<path fill="none" stroke="midnightblue" d="M206.9,-240.9C230.65,-231.38 269.54,-215.22 302,-199 318.03,-190.99 320.64,-186.31 337,-179 383.19,-158.35 397.21,-159.62 445,-143 447.38,-142.17 449.84,-141.31 452.31,-140.43"/>
<polygon fill="midnightblue" stroke="midnightblue" points="453.54,-143.71 461.77,-137.04 451.18,-137.12 453.54,-143.71"/>
</g>
<!-- Node15&#45;&gt;Node21 -->
<g id="edge24" class="edge">
<title>Node15&#45;&gt;Node21</title>
<path fill="none" stroke="midnightblue" d="M217.09,-240.98C256.6,-230.48 323.78,-212.64 367.26,-201.09"/>
<polygon fill="midnightblue" stroke="midnightblue" points="368.2,-204.46 376.97,-198.51 366.4,-197.69 368.2,-204.46"/>
</g>
<!-- Node21&#45;&gt;Node11 -->
<g id="edge30" class="edge">
<title>Node21&#45;&gt;Node11</title>
<path fill="none" stroke="midnightblue" d="M471.67,-184C635.97,-173.53 1079.1,-145.27 1261.69,-133.62"/>
<polygon fill="midnightblue" stroke="midnightblue" points="1262,-137.11 1271.76,-132.98 1261.56,-130.12 1262,-137.11"/>
</g>
<!-- Node21&#45;&gt;Node16 -->
<g id="edge25" class="edge">
<title>Node21&#45;&gt;Node16</title>
<path fill="none" stroke="midnightblue" d="M382.62,-179.45C355.18,-170.51 311,-156.01 273,-143 270.56,-142.17 268.05,-141.3 265.52,-140.42"/>
<polygon fill="midnightblue" stroke="midnightblue" points="266.41,-137.02 255.82,-137.02 264.1,-143.63 266.41,-137.02"/>
</g>
<!-- Node21&#45;&gt;Node17 -->
<g id="edge26" class="edge">
<title>Node21&#45;&gt;Node17</title>
<path fill="none" stroke="midnightblue" d="M347.32,-179.43C303.06,-172.29 242.42,-160.43 191,-143 189.38,-142.45 187.73,-141.84 186.09,-141.18"/>
<polygon fill="midnightblue" stroke="midnightblue" points="187.44,-137.95 176.88,-137.08 184.6,-144.34 187.44,-137.95"/>
</g>
<!-- Node21&#45;&gt;Node18 -->
<g id="edge27" class="edge">
<title>Node21&#45;&gt;Node18</title>
<path fill="none" stroke="midnightblue" d="M409.14,-179.48C409.28,-171.08 409.5,-157.98 409.69,-147.16"/>
<polygon fill="midnightblue" stroke="midnightblue" points="413.19,-147.07 409.86,-137.01 406.19,-146.95 413.19,-147.07"/>
</g>
<!-- Node21&#45;&gt;Node19 -->
<g id="edge28" class="edge">
<title>Node21&#45;&gt;Node19</title>
<path fill="none" stroke="midnightblue" d="M396.82,-179.48C383.19,-169.93 360.87,-154.31 344.53,-142.87"/>
<polygon fill="midnightblue" stroke="midnightblue" points="346.36,-139.88 336.16,-137.01 342.34,-145.61 346.36,-139.88"/>
</g>
<!-- Node21&#45;&gt;Node20 -->
<g id="edge29" class="edge">
<title>Node21&#45;&gt;Node20</title>
<path fill="none" stroke="midnightblue" d="M419.89,-179.48C431.97,-170.02 451.67,-154.6 466.24,-143.19"/>
<polygon fill="midnightblue" stroke="midnightblue" points="468.41,-145.93 474.13,-137.01 464.1,-140.42 468.41,-145.93"/>
</g>
<!-- Node22&#45;&gt;Node9 -->
<g id="edge33" class="edge">
<title>Node22&#45;&gt;Node9</title>
<path fill="none" stroke="midnightblue" d="M368.54,-307.73C369.13,-298.18 370.09,-282.62 370.84,-270.28"/>
<polygon fill="midnightblue" stroke="midnightblue" points="374.35,-270.32 371.47,-260.13 367.36,-269.89 374.35,-270.32"/>
</g>
<!-- Node22&#45;&gt;Node10 -->
<g id="edge34" class="edge">
<title>Node22&#45;&gt;Node10</title>
<path fill="none" stroke="midnightblue" d="M412.93,-307.94C467.72,-297.49 561.33,-279.65 628.63,-266.82"/>
<polygon fill="midnightblue" stroke="midnightblue" points="629.61,-270.2 638.78,-264.88 628.3,-263.32 629.61,-270.2"/>
</g>
<!-- Node22&#45;&gt;Node15 -->
<g id="edge35" class="edge">
<title>Node22&#45;&gt;Node15</title>
<path fill="none" stroke="midnightblue" d="M343.7,-307.87C311.62,-296.47 254.97,-276.35 218.75,-263.49"/>
<polygon fill="midnightblue" stroke="midnightblue" points="219.7,-260.11 209.11,-260.06 217.36,-266.71 219.7,-260.11"/>
</g>
<!-- Node22&#45;&gt;Node21 -->
<g id="edge36" class="edge">
<title>Node22&#45;&gt;Node21</title>
<path fill="none" stroke="midnightblue" d="M378.42,-307.71C388.45,-298.5 402.96,-283.03 409,-266 415.6,-247.39 414.49,-224.56 412.42,-208.81"/>
<polygon fill="midnightblue" stroke="midnightblue" points="415.85,-208.09 410.84,-198.75 408.93,-209.17 415.85,-208.09"/>
</g>
<!-- Node23 -->
<g id="node23" class="node">
<title>Node23</title>
<g id="a_node23"><a xlink:title=" ">
<polygon fill="white" stroke="#bfbfbf" points="1228.5,-241 1228.5,-260 1275.5,-260 1275.5,-241 1228.5,-241"/>
<text text-anchor="middle" x="1252" y="-248" font-family="Helvetica,sans-Serif" font-size="10.00">cmath</text>
</a>
</g>
</g>
<!-- Node22&#45;&gt;Node23 -->
<g id="edge32" class="edge">
<title>Node22&#45;&gt;Node23</title>
<path fill="none" stroke="midnightblue" d="M441.85,-311.07C623.88,-297.69 1088.69,-263.51 1218.11,-253.99"/>
<polygon fill="midnightblue" stroke="midnightblue" points="1218.49,-257.47 1228.21,-253.25 1217.98,-250.49 1218.49,-257.47"/>
</g>
<!-- Node24&#45;&gt;Node10 -->
<g id="edge38" class="edge">
<title>Node24&#45;&gt;Node10</title>
<path fill="none" stroke="midnightblue" d="M462.24,-369.2C476.04,-350.94 502.34,-319.63 532,-302 561.37,-284.54 597.09,-272.86 628.72,-265.17"/>
<polygon fill="midnightblue" stroke="midnightblue" points="629.89,-268.49 638.84,-262.81 628.3,-261.67 629.89,-268.49"/>
</g>
<!-- Node24&#45;&gt;Node15 -->
<g id="edge39" class="edge">
<title>Node24&#45;&gt;Node15</title>
<path fill="none" stroke="midnightblue" d="M386.25,-369.93C354.5,-361.82 316.56,-349.78 285,-333 251.75,-315.32 219.05,-285.71 200.51,-267.47"/>
<polygon fill="midnightblue" stroke="midnightblue" points="202.79,-264.8 193.25,-260.19 197.84,-269.74 202.79,-264.8"/>
</g>
<!-- Node24&#45;&gt;Node21 -->
<g id="edge41" class="edge">
<title>Node24&#45;&gt;Node21</title>
<path fill="none" stroke="midnightblue" d="M453.01,-369.22C453.86,-352.84 454.33,-325.24 450,-302 444.2,-270.9 436.92,-264.68 426,-235 422.75,-226.17 419.07,-216.4 415.97,-208.22"/>
<polygon fill="midnightblue" stroke="midnightblue" points="419.13,-206.71 412.3,-198.61 412.59,-209.2 419.13,-206.71"/>
</g>
<!-- Node24&#45;&gt;Node22 -->
<g id="edge40" class="edge">
<title>Node24&#45;&gt;Node22</title>
<path fill="none" stroke="midnightblue" d="M433.77,-369.4C420.03,-358.76 401.22,-344.2 387.23,-333.38"/>
<polygon fill="midnightblue" stroke="midnightblue" points="389.29,-330.55 379.24,-327.19 385,-336.08 389.29,-330.55"/>
</g>
<!-- Node25&#45;&gt;Node2 -->
<g id="edge45" class="edge">
<title>Node25&#45;&gt;Node2</title>
<path fill="none" stroke="midnightblue" d="M1257.64,-436.07C1239.88,-404 1200,-323.93 1200,-251.5 1200,-251.5 1200,-251.5 1200,-126.5 1200,-91.9 1208.4,-52.24 1214.03,-29.55"/>
<polygon fill="midnightblue" stroke="midnightblue" points="1217.49,-30.17 1216.59,-19.61 1210.71,-28.42 1217.49,-30.17"/>
</g>
<!-- Node25&#45;&gt;Node8 -->
<g id="edge44" class="edge">
<title>Node25&#45;&gt;Node8</title>
<path fill="none" stroke="midnightblue" d="M1250.76,-436.13C1240.28,-426.15 1226.11,-412.44 1214,-400 1192.53,-377.94 1168.58,-351.6 1153.65,-334.96"/>
<polygon fill="midnightblue" stroke="midnightblue" points="1156,-332.34 1146.73,-327.21 1150.78,-337 1156,-332.34"/>
</g>
<!-- Node25&#45;&gt;Node10 -->
<g id="edge47" class="edge">
<title>Node25&#45;&gt;Node10</title>
<path fill="none" stroke="midnightblue" d="M1242.05,-436.27C1179.53,-399.12 1016.19,-302.07 1016,-302 941.97,-275.02 852.62,-262.39 789.45,-256.52"/>
<polygon fill="midnightblue" stroke="midnightblue" points="789.42,-253 779.15,-255.6 788.8,-259.97 789.42,-253"/>
</g>
<!-- Node25&#45;&gt;Node11 -->
<g id="edge62" class="edge">
<title>Node25&#45;&gt;Node11</title>
<path fill="none" stroke="midnightblue" d="M1261.65,-436.12C1254.22,-409.05 1241.32,-349.05 1257,-302 1263.32,-283.03 1274.04,-283.34 1284,-266 1305.74,-228.15 1323.99,-180.57 1333.92,-152.45"/>
<polygon fill="midnightblue" stroke="midnightblue" points="1337.34,-153.29 1337.31,-142.69 1330.72,-150.99 1337.34,-153.29"/>
</g>
<!-- Node26 -->
<g id="node26" class="node">
<title>Node26</title>
<g id="a_node26"><a xlink:title=" ">
<polygon fill="white" stroke="#bfbfbf" points="1266.5,-308 1266.5,-327 1311.5,-327 1311.5,-308 1266.5,-308"/>
<text text-anchor="middle" x="1289" y="-315" font-family="Helvetica,sans-Serif" font-size="10.00">utility</text>
</a>
</g>
</g>
<!-- Node25&#45;&gt;Node26 -->
<g id="edge46" class="edge">
<title>Node25&#45;&gt;Node26</title>
<path fill="none" stroke="midnightblue" d="M1270.54,-436.49C1273.63,-426.44 1277.59,-412.51 1280,-400 1284.11,-378.65 1286.52,-353.76 1287.8,-337.16"/>
<polygon fill="midnightblue" stroke="midnightblue" points="1291.29,-337.36 1288.5,-327.13 1284.31,-336.86 1291.29,-337.36"/>
</g>
<!-- Node27 -->
<g id="node27" class="node">
<title>Node27</title>
<g id="a_node27"><a xlink:href="maliput__hash_8h.html" target="_top" xlink:title=" ">
<polygon fill="white" stroke="black" points="1346,-369.5 1346,-399.5 1486,-399.5 1486,-369.5 1346,-369.5"/>
<text text-anchor="start" x="1354" y="-387.5" font-family="Helvetica,sans-Serif" font-size="10.00">maliput/common/maliput</text>
<text text-anchor="middle" x="1416" y="-376.5" font-family="Helvetica,sans-Serif" font-size="10.00">_hash.h</text>
</a>
</g>
</g>
<!-- Node25&#45;&gt;Node27 -->
<g id="edge48" class="edge">
<title>Node25&#45;&gt;Node27</title>
<path fill="none" stroke="midnightblue" d="M1298.55,-436.4C1320.76,-426.77 1350.38,-413.94 1374.31,-403.56"/>
<polygon fill="midnightblue" stroke="midnightblue" points="1375.73,-406.76 1383.52,-399.58 1372.95,-400.34 1375.73,-406.76"/>
</g>
<!-- Node27&#45;&gt;Node2 -->
<g id="edge57" class="edge">
<title>Node27&#45;&gt;Node2</title>
<path fill="none" stroke="midnightblue" d="M1486.05,-377.21C1575.03,-368.5 1719.02,-351.71 1735,-333 1743.95,-322.52 1740.32,-314.71 1735,-302 1674.77,-158.22 1623.81,-126.94 1485,-56 1444.59,-35.35 1312.93,-20.18 1251.33,-14.02"/>
<polygon fill="midnightblue" stroke="midnightblue" points="1251.67,-10.54 1241.37,-13.05 1250.99,-17.5 1251.67,-10.54"/>
</g>
<!-- Node27&#45;&gt;Node3 -->
<g id="edge60" class="edge">
<title>Node27&#45;&gt;Node3</title>
<path fill="none" stroke="midnightblue" d="M1345.98,-373.73C1244.3,-359.55 1059.67,-333.8 983.86,-323.22"/>
<polygon fill="midnightblue" stroke="midnightblue" points="984.3,-319.75 973.91,-321.84 983.33,-326.68 984.3,-319.75"/>
</g>
<!-- Node27&#45;&gt;Node6 -->
<g id="edge55" class="edge">
<title>Node27&#45;&gt;Node6</title>
<path fill="none" stroke="midnightblue" d="M1486.2,-377.39C1557.79,-370.24 1671.69,-356.31 1768,-333 1771.22,-332.22 1774.55,-331.29 1777.85,-330.29"/>
<polygon fill="midnightblue" stroke="midnightblue" points="1779.14,-333.55 1787.57,-327.13 1776.97,-326.9 1779.14,-333.55"/>
</g>
<!-- Node27&#45;&gt;Node8 -->
<g id="edge52" class="edge">
<title>Node27&#45;&gt;Node8</title>
<path fill="none" stroke="midnightblue" d="M1356.24,-369.48C1303.64,-357.13 1228.35,-339.47 1181.63,-328.5"/>
<polygon fill="midnightblue" stroke="midnightblue" points="1182.36,-325.08 1171.83,-326.2 1180.76,-331.89 1182.36,-325.08"/>
</g>
<!-- Node27&#45;&gt;Node11 -->
<g id="edge61" class="edge">
<title>Node27&#45;&gt;Node11</title>
<path fill="none" stroke="midnightblue" d="M1474.52,-369.43C1493.27,-361.85 1512,-350.35 1523,-333 1530.38,-321.36 1527.38,-315.06 1523,-302 1501.2,-237.03 1481.42,-224.3 1430,-179 1415.86,-166.54 1398.16,-155.67 1382.36,-147.25"/>
<polygon fill="midnightblue" stroke="midnightblue" points="1383.8,-144.05 1373.31,-142.57 1380.59,-150.27 1383.8,-144.05"/>
</g>
<!-- Node27&#45;&gt;Node18 -->
<g id="edge50" class="edge">
<title>Node27&#45;&gt;Node18</title>
<path fill="none" stroke="midnightblue" d="M1408.52,-369.04C1391.42,-337.75 1346.1,-264.24 1284,-235 945.01,-75.4 809.39,-234.29 446,-143 443.33,-142.33 440.61,-141.51 437.9,-140.59"/>
<polygon fill="midnightblue" stroke="midnightblue" points="438.95,-137.25 428.36,-137.02 436.5,-143.81 438.95,-137.25"/>
</g>
<!-- Node27&#45;&gt;Node20 -->
<g id="edge53" class="edge">
<title>Node27&#45;&gt;Node20</title>
<path fill="none" stroke="midnightblue" d="M1414.38,-369.39C1409.06,-330.44 1388.2,-221.55 1318,-179 1249.79,-137.66 682.66,-130.08 525.33,-128.76"/>
<polygon fill="midnightblue" stroke="midnightblue" points="525.18,-125.26 515.15,-128.68 525.12,-132.26 525.18,-125.26"/>
</g>
<!-- Node27&#45;&gt;Node23 -->
<g id="edge49" class="edge">
<title>Node27&#45;&gt;Node23</title>
<path fill="none" stroke="midnightblue" d="M1399.96,-369.33C1381.12,-352.81 1348.76,-324.85 1320,-302 1304.23,-289.47 1285.86,-275.89 1272.2,-265.97"/>
<polygon fill="midnightblue" stroke="midnightblue" points="1274.13,-263.05 1263.97,-260.03 1270.03,-268.72 1274.13,-263.05"/>
</g>
<!-- Node27&#45;&gt;Node26 -->
<g id="edge59" class="edge">
<title>Node27&#45;&gt;Node26</title>
<path fill="none" stroke="midnightblue" d="M1388.44,-369.4C1366.55,-358.19 1336.17,-342.64 1314.76,-331.69"/>
<polygon fill="midnightblue" stroke="midnightblue" points="1316.12,-328.45 1305.62,-327.01 1312.93,-334.68 1316.12,-328.45"/>
</g>
<!-- Node28 -->
<g id="node28" class="node">
<title>Node28</title>
<g id="a_node28"><a xlink:title=" ">
<polygon fill="white" stroke="#bfbfbf" points="1570,-308 1570,-327 1620,-327 1620,-308 1570,-308"/>
<text text-anchor="middle" x="1595" y="-315" font-family="Helvetica,sans-Serif" font-size="10.00">cstdint</text>
</a>
</g>
</g>
<!-- Node27&#45;&gt;Node28 -->
<g id="edge51" class="edge">
<title>Node27&#45;&gt;Node28</title>
<path fill="none" stroke="midnightblue" d="M1455.26,-369.45C1483.35,-359.38 1522.03,-345.44 1556,-333 1558.09,-332.23 1560.25,-331.44 1562.42,-330.64"/>
<polygon fill="midnightblue" stroke="midnightblue" points="1563.75,-333.88 1571.92,-327.12 1561.32,-327.31 1563.75,-333.88"/>
</g>
<!-- Node29 -->
<g id="node29" class="node">
<title>Node29</title>
<g id="a_node29"><a xlink:title=" ">
<polygon fill="white" stroke="#bfbfbf" points="1638,-308 1638,-327 1676,-327 1676,-308 1638,-308"/>
<text text-anchor="middle" x="1657" y="-315" font-family="Helvetica,sans-Serif" font-size="10.00">map</text>
</a>
</g>
</g>
<!-- Node27&#45;&gt;Node29 -->
<g id="edge54" class="edge">
<title>Node27&#45;&gt;Node29</title>
<path fill="none" stroke="midnightblue" d="M1486.34,-371.33C1528.48,-362.94 1582.68,-350.19 1629,-333 1630.24,-332.54 1631.5,-332.04 1632.76,-331.5"/>
<polygon fill="midnightblue" stroke="midnightblue" points="1634.66,-334.47 1642.2,-327.02 1631.66,-328.15 1634.66,-334.47"/>
</g>
<!-- Node30 -->
<g id="node30" class="node">
<title>Node30</title>
<g id="a_node30"><a xlink:title=" ">
<polygon fill="white" stroke="#bfbfbf" points="1694,-308 1694,-327 1726,-327 1726,-308 1694,-308"/>
<text text-anchor="middle" x="1710" y="-315" font-family="Helvetica,sans-Serif" font-size="10.00">set</text>
</a>
</g>
</g>
<!-- Node27&#45;&gt;Node30 -->
<g id="edge56" class="edge">
<title>Node27&#45;&gt;Node30</title>
<path fill="none" stroke="midnightblue" d="M1486.01,-376.95C1541.35,-370.23 1619.85,-357.19 1685,-333 1686.03,-332.62 1687.08,-332.19 1688.12,-331.73"/>
<polygon fill="midnightblue" stroke="midnightblue" points="1689.9,-334.75 1697.18,-327.05 1686.69,-328.53 1689.9,-334.75"/>
</g>
<!-- Node31 -->
<g id="node31" class="node">
<title>Node31</title>
<g id="a_node31"><a xlink:title=" ">
<polygon fill="white" stroke="#bfbfbf" points="1444.5,-308 1444.5,-327 1513.5,-327 1513.5,-308 1444.5,-308"/>
<text text-anchor="middle" x="1479" y="-315" font-family="Helvetica,sans-Serif" font-size="10.00">type_traits</text>
</a>
</g>
</g>
<!-- Node27&#45;&gt;Node31 -->
<g id="edge58" class="edge">
<title>Node27&#45;&gt;Node31</title>
<path fill="none" stroke="midnightblue" d="M1429.67,-369.4C1439.59,-359.16 1453.03,-345.3 1463.37,-334.62"/>
<polygon fill="midnightblue" stroke="midnightblue" points="1466.13,-336.81 1470.57,-327.19 1461.1,-331.94 1466.13,-336.81"/>
</g>
<!-- Node32&#45;&gt;Node2 -->
<g id="edge69" class="edge">
<title>Node32&#45;&gt;Node2</title>
<path fill="none" stroke="midnightblue" d="M791.71,-571.07C609.28,-562.33 38,-528.88 38,-452.5 38,-452.5 38,-452.5 38,-126.5 38,-61.16 104.06,-73.52 167,-56 267.17,-28.12 1020.14,-14.25 1186.52,-11.51"/>
<polygon fill="midnightblue" stroke="midnightblue" points="1186.68,-15.01 1196.62,-11.35 1186.57,-8.01 1186.68,-15.01"/>
</g>
<!-- Node32&#45;&gt;Node3 -->
<g id="edge71" class="edge">
<title>Node32&#45;&gt;Node3</title>
<path fill="none" stroke="midnightblue" d="M848.97,-559.27C851.33,-544.7 855.98,-521.62 864,-503 885.6,-452.84 909.59,-450.24 931,-400 939.7,-379.58 944.78,-354.52 947.47,-337.62"/>
<polygon fill="midnightblue" stroke="midnightblue" points="950.98,-337.78 948.96,-327.38 944.05,-336.77 950.98,-337.78"/>
</g>
<!-- Node32&#45;&gt;Node4 -->
<g id="edge72" class="edge">
<title>Node32&#45;&gt;Node4</title>
<path fill="none" stroke="midnightblue" d="M902.04,-567.55C985.54,-558.43 1149.2,-540.27 1288,-523 1289.46,-522.82 1290.93,-522.63 1292.42,-522.45"/>
<polygon fill="midnightblue" stroke="midnightblue" points="1292.87,-525.92 1302.35,-521.17 1291.98,-518.97 1292.87,-525.92"/>
</g>
<!-- Node32&#45;&gt;Node5 -->
<g id="edge67" class="edge">
<title>Node32&#45;&gt;Node5</title>
<path fill="none" stroke="midnightblue" d="M850.78,-559.23C855.83,-543.06 866.38,-517.1 885,-503 940.09,-461.28 1023.09,-452.82 1071.68,-451.76"/>
<polygon fill="midnightblue" stroke="midnightblue" points="1071.84,-455.26 1081.8,-451.64 1071.76,-448.26 1071.84,-455.26"/>
</g>
<!-- Node32&#45;&gt;Node6 -->
<g id="edge68" class="edge">
<title>Node32&#45;&gt;Node6</title>
<path fill="none" stroke="midnightblue" d="M902.13,-571.18C1025.45,-565.56 1320.24,-549.72 1416,-523 1570.35,-479.94 1733.88,-371.92 1789.86,-332.87"/>
<polygon fill="midnightblue" stroke="midnightblue" points="1792.03,-335.63 1798.19,-327.01 1788,-329.9 1792.03,-335.63"/>
</g>
<!-- Node32&#45;&gt;Node7 -->
<g id="edge73" class="edge">
<title>Node32&#45;&gt;Node7</title>
<path fill="none" stroke="midnightblue" d="M791.83,-560.24C751.36,-550.37 695.13,-536.35 646,-523 573.89,-503.4 490.29,-478.44 442.92,-464.08"/>
<polygon fill="midnightblue" stroke="midnightblue" points="443.68,-460.66 433.1,-461.1 441.65,-467.36 443.68,-460.66"/>
</g>
<!-- Node32&#45;&gt;Node10 -->
<g id="edge75" class="edge">
<title>Node32&#45;&gt;Node10</title>
<path fill="none" stroke="midnightblue" d="M791.91,-562.42C736.74,-547.74 660,-515.92 660,-452.5 660,-452.5 660,-452.5 660,-383.5 660,-343.18 680.34,-300.03 694.81,-274.42"/>
<polygon fill="midnightblue" stroke="midnightblue" points="697.99,-275.91 700.01,-265.51 691.95,-272.38 697.99,-275.91"/>
</g>
<!-- Node32&#45;&gt;Node11 -->
<g id="edge77" class="edge">
<title>Node32&#45;&gt;Node11</title>
<path fill="none" stroke="midnightblue" d="M902.05,-573.26C1124.1,-571.6 1942,-558.29 1942,-452.5 1942,-452.5 1942,-452.5 1942,-383.5 1942,-246.38 1841.11,-222.28 1711,-179 1614.85,-147.02 1498.14,-135.27 1422.07,-130.96"/>
<polygon fill="midnightblue" stroke="midnightblue" points="1422.25,-127.47 1412.08,-130.43 1421.87,-134.46 1422.25,-127.47"/>
</g>
<!-- Node32&#45;&gt;Node21 -->
<g id="edge87" class="edge">
<title>Node32&#45;&gt;Node21</title>
<path fill="none" stroke="midnightblue" d="M791.87,-574.31C692.06,-573.29 478.08,-559.46 330,-467 263.42,-425.43 251.08,-378.87 267,-302 273.58,-270.23 272.72,-257.6 296,-235 312.61,-218.87 335.72,-208.31 356.71,-201.49"/>
<polygon fill="midnightblue" stroke="midnightblue" points="357.94,-204.78 366.49,-198.53 355.91,-198.08 357.94,-204.78"/>
</g>
<!-- Node32&#45;&gt;Node25 -->
<g id="edge74" class="edge">
<title>Node32&#45;&gt;Node25</title>
<path fill="none" stroke="midnightblue" d="M895.88,-559.38C973.47,-536.98 1124.49,-493.36 1207.63,-469.36"/>
<polygon fill="midnightblue" stroke="midnightblue" points="1208.79,-472.66 1217.43,-466.53 1206.85,-465.94 1208.79,-472.66"/>
</g>
<!-- Node32&#45;&gt;Node27 -->
<g id="edge76" class="edge">
<title>Node32&#45;&gt;Node27</title>
<path fill="none" stroke="midnightblue" d="M902.28,-572.85C998.74,-569.4 1201.22,-551.71 1345,-467 1369.32,-452.67 1389.56,-427.05 1402.13,-408.35"/>
<polygon fill="midnightblue" stroke="midnightblue" points="1405.17,-410.1 1407.67,-399.81 1399.3,-406.3 1405.17,-410.1"/>
</g>
<!-- Node33 -->
<g id="node33" class="node">
<title>Node33</title>
<g id="a_node33"><a xlink:title=" ">
<polygon fill="white" stroke="#bfbfbf" points="894.5,-503.5 894.5,-522.5 987.5,-522.5 987.5,-503.5 894.5,-503.5"/>
<text text-anchor="middle" x="941" y="-510.5" font-family="Helvetica,sans-Serif" font-size="10.00">unordered_map</text>
</a>
</g>
</g>
<!-- Node32&#45;&gt;Node33 -->
<g id="edge70" class="edge">
<title>Node32&#45;&gt;Node33</title>
<path fill="none" stroke="midnightblue" d="M869.28,-559.4C884.2,-549.95 903.78,-537.56 918.71,-528.11"/>
<polygon fill="midnightblue" stroke="midnightblue" points="920.74,-530.96 927.32,-522.66 917,-525.05 920.74,-530.96"/>
</g>
<!-- Node34 -->
<g id="node34" class="node">
<title>Node34</title>
<g id="a_node34"><a xlink:href="bounding__box_8h.html" target="_top" xlink:title=" ">
<polygon fill="white" stroke="black" points="688.5,-436.5 688.5,-466.5 819.5,-466.5 819.5,-436.5 688.5,-436.5"/>
<text text-anchor="start" x="696.5" y="-454.5" font-family="Helvetica,sans-Serif" font-size="10.00">maliput/math/bounding</text>
<text text-anchor="middle" x="754" y="-443.5" font-family="Helvetica,sans-Serif" font-size="10.00">_box.h</text>
</a>
</g>
</g>
<!-- Node32&#45;&gt;Node34 -->
<g id="edge78" class="edge">
<title>Node32&#45;&gt;Node34</title>
<path fill="none" stroke="midnightblue" d="M835.97,-559.14C819.96,-538.31 790.13,-499.51 771.22,-474.9"/>
<polygon fill="midnightblue" stroke="midnightblue" points="773.89,-472.63 765.02,-466.84 768.34,-476.9 773.89,-472.63"/>
</g>
<!-- Node34&#45;&gt;Node3 -->
<g id="edge79" class="edge">
<title>Node34&#45;&gt;Node3</title>
<path fill="none" stroke="midnightblue" d="M819.72,-439.35C848.04,-431.94 880.07,-419.78 904,-400 924.2,-383.3 937.21,-355.28 944.07,-336.84"/>
<polygon fill="midnightblue" stroke="midnightblue" points="947.43,-337.84 947.4,-327.25 940.81,-335.54 947.43,-337.84"/>
</g>
<!-- Node34&#45;&gt;Node10 -->
<g id="edge80" class="edge">
<title>Node34&#45;&gt;Node10</title>
<path fill="none" stroke="midnightblue" d="M748.46,-436.28C740.2,-414.44 724.79,-371.14 717,-333 713.14,-314.1 711.12,-292.34 710.08,-276.06"/>
<polygon fill="midnightblue" stroke="midnightblue" points="713.56,-275.56 709.51,-265.77 706.57,-275.95 713.56,-275.56"/>
</g>
<!-- Node34&#45;&gt;Node21 -->
<g id="edge86" class="edge">
<title>Node34&#45;&gt;Node21</title>
<path fill="none" stroke="midnightblue" d="M735.45,-436.49C675.82,-391.47 489.39,-250.7 428.47,-204.7"/>
<polygon fill="midnightblue" stroke="midnightblue" points="430.51,-201.86 420.42,-198.63 426.29,-207.44 430.51,-201.86"/>
</g>
<!-- Node34&#45;&gt;Node24 -->
<g id="edge85" class="edge">
<title>Node34&#45;&gt;Node24</title>
<path fill="none" stroke="midnightblue" d="M688.84,-436.48C641.39,-426.26 577.01,-412.41 527.35,-401.72"/>
<polygon fill="midnightblue" stroke="midnightblue" points="527.81,-398.24 517.3,-399.55 526.34,-405.08 527.81,-398.24"/>
</g>
<!-- Node35 -->
<g id="node35" class="node">
<title>Node35</title>
<g id="a_node35"><a xlink:href="bounding__region_8h.html" target="_top" xlink:title=" ">
<polygon fill="white" stroke="black" points="764.5,-369.5 764.5,-399.5 895.5,-399.5 895.5,-369.5 764.5,-369.5"/>
<text text-anchor="start" x="772.5" y="-387.5" font-family="Helvetica,sans-Serif" font-size="10.00">maliput/math/bounding</text>
<text text-anchor="middle" x="830" y="-376.5" font-family="Helvetica,sans-Serif" font-size="10.00">_region.h</text>
</a>
</g>
</g>
<!-- Node34&#45;&gt;Node35 -->
<g id="edge81" class="edge">
<title>Node34&#45;&gt;Node35</title>
<path fill="none" stroke="midnightblue" d="M770.49,-436.4C780.85,-427.54 794.38,-415.96 805.93,-406.09"/>
<polygon fill="midnightblue" stroke="midnightblue" points="808.22,-408.74 813.54,-399.58 803.67,-403.42 808.22,-408.74"/>
</g>
<!-- Node36 -->
<g id="node36" class="node">
<title>Node36</title>
<g id="a_node36"><a xlink:href="overlapping__type_8h.html" target="_top" xlink:title=" ">
<polygon fill="white" stroke="black" points="726.5,-302.5 726.5,-332.5 869.5,-332.5 869.5,-302.5 726.5,-302.5"/>
<text text-anchor="start" x="734.5" y="-320.5" font-family="Helvetica,sans-Serif" font-size="10.00">maliput/math/overlapping</text>
<text text-anchor="middle" x="798" y="-309.5" font-family="Helvetica,sans-Serif" font-size="10.00">_type.h</text>
</a>
</g>
</g>
<!-- Node34&#45;&gt;Node36 -->
<g id="edge84" class="edge">
<title>Node34&#45;&gt;Node36</title>
<path fill="none" stroke="midnightblue" d="M751.36,-436.42C748.86,-419.74 746.6,-391.39 755,-369 759.04,-358.21 766.49,-348.15 774.07,-339.88"/>
<polygon fill="midnightblue" stroke="midnightblue" points="776.76,-342.14 781.26,-332.55 771.76,-337.24 776.76,-342.14"/>
</g>
<!-- Node35&#45;&gt;Node10 -->
<g id="edge82" class="edge">
<title>Node35&#45;&gt;Node10</title>
<path fill="none" stroke="midnightblue" d="M848.61,-369.37C868.35,-352.65 894.58,-324.26 878,-302 857.44,-274.4 822.37,-261.3 789.48,-255.29"/>
<polygon fill="midnightblue" stroke="midnightblue" points="789.8,-251.8 779.37,-253.64 788.68,-258.71 789.8,-251.8"/>
</g>
<!-- Node35&#45;&gt;Node36 -->
<g id="edge83" class="edge">
<title>Node35&#45;&gt;Node36</title>
<path fill="none" stroke="midnightblue" d="M823.06,-369.4C819.07,-361.3 813.97,-350.94 809.41,-341.69"/>
<polygon fill="midnightblue" stroke="midnightblue" points="812.49,-340 804.93,-332.58 806.21,-343.09 812.49,-340"/>
</g>
</g>
</svg>
