<?xml version="1.0" encoding="UTF-8" standalone="no"?>
<!DOCTYPE svg PUBLIC "-//W3C//DTD SVG 1.1//EN"
 "http://www.w3.org/Graphics/SVG/1.1/DTD/svg11.dtd">
<!-- Generated by graphviz version 2.43.0 (0)
 -->
<!-- Title: traffic_sign_book.h Pages: 1 -->
<svg width="2142pt" height="721pt"
 viewBox="0.00 0.00 2142.14 721.00" xmlns="http://www.w3.org/2000/svg" xmlns:xlink="http://www.w3.org/1999/xlink">
<g id="graph0" class="graph" transform="scale(1 1) rotate(0) translate(4 717)">
<title>traffic_sign_book.h</title>
<polygon fill="white" stroke="transparent" points="-4,4 -4,-717 2138.14,-717 2138.14,4 -4,4"/>
<!-- Node1 -->
<g id="node1" class="node">
<title>Node1</title>
<g id="a_node1"><a xlink:title=" ">
<polygon fill="#bfbfbf" stroke="black" points="805,-693.5 805,-712.5 915,-712.5 915,-693.5 805,-693.5"/>
<text text-anchor="middle" x="860" y="-700.5" font-family="Helvetica,sans-Serif" font-size="10.00">traffic_sign_book.h</text>
</a>
</g>
</g>
<!-- Node2 -->
<g id="node2" class="node">
<title>Node2</title>
<g id="a_node2"><a xlink:title=" ">
<polygon fill="white" stroke="#bfbfbf" points="442,-442 442,-461 500,-461 500,-442 442,-442"/>
<text text-anchor="middle" x="471" y="-449" font-family="Helvetica,sans-Serif" font-size="10.00">memory</text>
</a>
</g>
</g>
<!-- Node1&#45;&gt;Node2 -->
<g id="edge1" class="edge">
<title>Node1&#45;&gt;Node2</title>
<path fill="none" stroke="midnightblue" d="M846.61,-693.41C789.33,-656.67 564.59,-512.53 493.02,-466.62"/>
<polygon fill="midnightblue" stroke="midnightblue" points="494.64,-463.51 484.33,-461.05 490.86,-469.4 494.64,-463.51"/>
</g>
<!-- Node3 -->
<g id="node3" class="node">
<title>Node3</title>
<g id="a_node3"><a xlink:title=" ">
<polygon fill="white" stroke="#bfbfbf" points="967.5,-308 967.5,-327 1014.5,-327 1014.5,-308 967.5,-308"/>
<text text-anchor="middle" x="991" y="-315" font-family="Helvetica,sans-Serif" font-size="10.00">vector</text>
</a>
</g>
</g>
<!-- Node1&#45;&gt;Node3 -->
<g id="edge2" class="edge">
<title>Node1&#45;&gt;Node3</title>
<path fill="none" stroke="midnightblue" d="M804.95,-699.23C678.09,-691.34 376,-663.33 376,-575.5 376,-575.5 376,-575.5 376,-512 376,-469.78 396.95,-457.99 433,-436 514.59,-386.23 551.33,-418.97 645,-400 760.21,-376.67 895.53,-342.94 957.25,-327.2"/>
<polygon fill="midnightblue" stroke="midnightblue" points="958.38,-330.52 967.2,-324.65 956.65,-323.74 958.38,-330.52"/>
</g>
<!-- Node4 -->
<g id="node4" class="node">
<title>Node4</title>
<g id="a_node4"><a xlink:href="traffic__sign_8h.html" target="_top" xlink:title=" ">
<polygon fill="white" stroke="black" points="841.5,-559.5 841.5,-589.5 972.5,-589.5 972.5,-559.5 841.5,-559.5"/>
<text text-anchor="start" x="849.5" y="-577.5" font-family="Helvetica,sans-Serif" font-size="10.00">maliput/api/rules/traffic</text>
<text text-anchor="middle" x="907" y="-566.5" font-family="Helvetica,sans-Serif" font-size="10.00">_sign.h</text>
</a>
</g>
</g>
<!-- Node1&#45;&gt;Node4 -->
<g id="edge3" class="edge">
<title>Node1&#45;&gt;Node4</title>
<path fill="none" stroke="midnightblue" d="M861.4,-693.34C863.89,-678.99 869.72,-649.53 879,-626 882.69,-616.65 887.78,-606.88 892.61,-598.45"/>
<polygon fill="midnightblue" stroke="midnightblue" points="895.78,-599.98 897.87,-589.59 889.76,-596.41 895.78,-599.98"/>
</g>
<!-- Node12 -->
<g id="node12" class="node">
<title>Node12</title>
<g id="a_node12"><a xlink:href="maliput__copyable_8h.html" target="_top" xlink:title=" ">
<polygon fill="white" stroke="black" points="1068,-235.5 1068,-265.5 1208,-265.5 1208,-235.5 1068,-235.5"/>
<text text-anchor="start" x="1076" y="-253.5" font-family="Helvetica,sans-Serif" font-size="10.00">maliput/common/maliput</text>
<text text-anchor="middle" x="1138" y="-242.5" font-family="Helvetica,sans-Serif" font-size="10.00">_copyable.h</text>
</a>
</g>
</g>
<!-- Node1&#45;&gt;Node12 -->
<g id="edge90" class="edge">
<title>Node1&#45;&gt;Node12</title>
<path fill="none" stroke="midnightblue" d="M915.31,-701.03C952.21,-697.44 999.23,-686.7 1029,-657 1137.26,-548.99 1141.29,-345.71 1139.21,-275.82"/>
<polygon fill="midnightblue" stroke="midnightblue" points="1142.71,-275.65 1138.84,-265.79 1135.71,-275.91 1142.71,-275.65"/>
</g>
<!-- Node37 -->
<g id="node37" class="node">
<title>Node37</title>
<g id="a_node37"><a xlink:href="api_2rules_2traffic__sign__book_8h.html" target="_top" xlink:title=" ">
<polygon fill="white" stroke="black" points="888.5,-626.5 888.5,-656.5 1019.5,-656.5 1019.5,-626.5 888.5,-626.5"/>
<text text-anchor="start" x="896.5" y="-644.5" font-family="Helvetica,sans-Serif" font-size="10.00">maliput/api/rules/traffic</text>
<text text-anchor="middle" x="954" y="-633.5" font-family="Helvetica,sans-Serif" font-size="10.00">_sign_book.h</text>
</a>
</g>
</g>
<!-- Node1&#45;&gt;Node37 -->
<g id="edge85" class="edge">
<title>Node1&#45;&gt;Node37</title>
<path fill="none" stroke="midnightblue" d="M873.47,-693.48C886.44,-685.27 906.51,-672.56 923.38,-661.88"/>
<polygon fill="midnightblue" stroke="midnightblue" points="925.27,-664.83 931.85,-656.52 921.52,-658.91 925.27,-664.83"/>
</g>
<!-- Node4&#45;&gt;Node3 -->
<g id="edge7" class="edge">
<title>Node4&#45;&gt;Node3</title>
<path fill="none" stroke="midnightblue" d="M910.97,-559.22C923.46,-514.28 961.38,-378.16 965,-369 969.46,-357.7 975.65,-345.58 980.87,-336.05"/>
<polygon fill="midnightblue" stroke="midnightblue" points="984,-337.62 985.85,-327.19 977.9,-334.19 984,-337.62"/>
</g>
<!-- Node5 -->
<g id="node5" class="node">
<title>Node5</title>
<g id="a_node5"><a xlink:title=" ">
<polygon fill="white" stroke="#bfbfbf" points="855,-308 855,-327 911,-327 911,-308 855,-308"/>
<text text-anchor="middle" x="883" y="-315" font-family="Helvetica,sans-Serif" font-size="10.00">optional</text>
</a>
</g>
</g>
<!-- Node4&#45;&gt;Node5 -->
<g id="edge4" class="edge">
<title>Node4&#45;&gt;Node5</title>
<path fill="none" stroke="midnightblue" d="M856.62,-559.42C838.69,-551.71 820.39,-540.12 810,-523 790.04,-490.11 848.31,-379.68 872.76,-336.25"/>
<polygon fill="midnightblue" stroke="midnightblue" points="875.89,-337.81 877.8,-327.39 869.81,-334.35 875.89,-337.81"/>
</g>
<!-- Node6 -->
<g id="node6" class="node">
<title>Node6</title>
<g id="a_node6"><a xlink:title=" ">
<polygon fill="white" stroke="#bfbfbf" points="1881,-0.5 1881,-19.5 1925,-19.5 1925,-0.5 1881,-0.5"/>
<text text-anchor="middle" x="1903" y="-7.5" font-family="Helvetica,sans-Serif" font-size="10.00">string</text>
</a>
</g>
</g>
<!-- Node4&#45;&gt;Node6 -->
<g id="edge5" class="edge">
<title>Node4&#45;&gt;Node6</title>
<path fill="none" stroke="midnightblue" d="M972.92,-573.97C1227.57,-574.95 2133,-570.13 2133,-452.5 2133,-452.5 2133,-452.5 2133,-126.5 2133,-94.05 2137.55,-78.33 2114,-56 2088.64,-31.95 1988.1,-19.05 1935.49,-13.82"/>
<polygon fill="midnightblue" stroke="midnightblue" points="1935.62,-10.32 1925.33,-12.85 1934.96,-17.29 1935.62,-10.32"/>
</g>
<!-- Node7 -->
<g id="node7" class="node">
<title>Node7</title>
<g id="a_node7"><a xlink:title=" ">
<polygon fill="white" stroke="#bfbfbf" points="819.5,-503.5 819.5,-522.5 912.5,-522.5 912.5,-503.5 819.5,-503.5"/>
<text text-anchor="middle" x="866" y="-510.5" font-family="Helvetica,sans-Serif" font-size="10.00">unordered_map</text>
</a>
</g>
</g>
<!-- Node4&#45;&gt;Node7 -->
<g id="edge6" class="edge">
<title>Node4&#45;&gt;Node7</title>
<path fill="none" stroke="midnightblue" d="M897.28,-559.4C891.45,-550.93 883.98,-540.1 877.81,-531.14"/>
<polygon fill="midnightblue" stroke="midnightblue" points="880.52,-528.91 871.97,-522.66 874.76,-532.88 880.52,-528.91"/>
</g>
<!-- Node8 -->
<g id="node8" class="node">
<title>Node8</title>
<g id="a_node8"><a xlink:href="api_2lane_8h.html" target="_top" xlink:title=" ">
<polygon fill="white" stroke="black" points="657.5,-503.5 657.5,-522.5 762.5,-522.5 762.5,-503.5 657.5,-503.5"/>
<text text-anchor="middle" x="710" y="-510.5" font-family="Helvetica,sans-Serif" font-size="10.00">maliput/api/lane.h</text>
</a>
</g>
</g>
<!-- Node4&#45;&gt;Node8 -->
<g id="edge8" class="edge">
<title>Node4&#45;&gt;Node8</title>
<path fill="none" stroke="midnightblue" d="M860.31,-559.4C826.12,-549.07 780.29,-535.23 748.26,-525.56"/>
<polygon fill="midnightblue" stroke="midnightblue" points="748.96,-522.11 738.38,-522.57 746.94,-528.81 748.96,-522.11"/>
</g>
<!-- Node9 -->
<g id="node9" class="node">
<title>Node9</title>
<g id="a_node9"><a xlink:href="lane__data_8h.html" target="_top" xlink:title=" ">
<polygon fill="white" stroke="black" points="1499,-442 1499,-461 1631,-461 1631,-442 1499,-442"/>
<text text-anchor="middle" x="1565" y="-449" font-family="Helvetica,sans-Serif" font-size="10.00">maliput/api/lane_data.h</text>
</a>
</g>
</g>
<!-- Node4&#45;&gt;Node9 -->
<g id="edge70" class="edge">
<title>Node4&#45;&gt;Node9</title>
<path fill="none" stroke="midnightblue" d="M942.36,-559.41C967.43,-549.38 1001.84,-535.51 1032,-523 1052.97,-514.3 1057.02,-508.68 1079,-503 1154.44,-483.5 1371.87,-465.98 1488.66,-457.64"/>
<polygon fill="midnightblue" stroke="midnightblue" points="1489.23,-461.11 1498.96,-456.91 1488.73,-454.13 1489.23,-461.11"/>
</g>
<!-- Node4&#45;&gt;Node12 -->
<g id="edge72" class="edge">
<title>Node4&#45;&gt;Node12</title>
<path fill="none" stroke="midnightblue" d="M915.42,-559.36C921.44,-549.24 929.73,-535.29 937,-523 994.99,-424.9 989.98,-385.99 1067,-302 1077.8,-290.22 1091.77,-279.57 1104.46,-271.11"/>
<polygon fill="midnightblue" stroke="midnightblue" points="1106.48,-273.98 1112.99,-265.63 1102.69,-268.1 1106.48,-273.98"/>
</g>
<!-- Node13 -->
<g id="node13" class="node">
<title>Node13</title>
<g id="a_node13"><a xlink:href="maliput__throw_8h.html" target="_top" xlink:title=" ">
<polygon fill="white" stroke="black" points="177,-112.5 177,-142.5 317,-142.5 317,-112.5 177,-112.5"/>
<text text-anchor="start" x="185" y="-130.5" font-family="Helvetica,sans-Serif" font-size="10.00">maliput/common/maliput</text>
<text text-anchor="middle" x="247" y="-119.5" font-family="Helvetica,sans-Serif" font-size="10.00">_throw.h</text>
</a>
</g>
</g>
<!-- Node4&#45;&gt;Node13 -->
<g id="edge74" class="edge">
<title>Node4&#45;&gt;Node13</title>
<path fill="none" stroke="midnightblue" d="M841.24,-564.04C780.07,-554.87 686.51,-539.89 606,-523 358.9,-471.16 76,-570.98 76,-318.5 76,-318.5 76,-318.5 76,-249.5 76,-195.29 133.98,-163.18 182.41,-145.82"/>
<polygon fill="midnightblue" stroke="midnightblue" points="183.63,-149.1 191.95,-142.55 181.36,-142.48 183.63,-149.1"/>
</g>
<!-- Node23 -->
<g id="node23" class="node">
<title>Node23</title>
<g id="a_node23"><a xlink:href="vector_8h.html" target="_top" xlink:title=" ">
<polygon fill="white" stroke="black" points="1504.5,-179.5 1504.5,-198.5 1629.5,-198.5 1629.5,-179.5 1504.5,-179.5"/>
<text text-anchor="middle" x="1567" y="-186.5" font-family="Helvetica,sans-Serif" font-size="10.00">maliput/math/vector.h</text>
</a>
</g>
</g>
<!-- Node4&#45;&gt;Node23 -->
<g id="edge84" class="edge">
<title>Node4&#45;&gt;Node23</title>
<path fill="none" stroke="midnightblue" d="M972.7,-568.72C1129.49,-556.55 1521.3,-521.47 1640,-467 1719.66,-430.45 1780.61,-383.35 1748,-302 1740.34,-282.89 1701.14,-246.42 1684,-235 1661.42,-219.95 1633.08,-208.89 1609.95,-201.5"/>
<polygon fill="midnightblue" stroke="midnightblue" points="1610.97,-198.15 1600.38,-198.55 1608.91,-204.84 1610.97,-198.15"/>
</g>
<!-- Node27 -->
<g id="node27" class="node">
<title>Node27</title>
<g id="a_node27"><a xlink:href="type__specific__identifier_8h.html" target="_top" xlink:title=" ">
<polygon fill="white" stroke="black" points="594,-436.5 594,-466.5 734,-466.5 734,-436.5 594,-436.5"/>
<text text-anchor="start" x="602" y="-454.5" font-family="Helvetica,sans-Serif" font-size="10.00">maliput/api/type_specific</text>
<text text-anchor="middle" x="664" y="-443.5" font-family="Helvetica,sans-Serif" font-size="10.00">_identifier.h</text>
</a>
</g>
</g>
<!-- Node4&#45;&gt;Node27 -->
<g id="edge71" class="edge">
<title>Node4&#45;&gt;Node27</title>
<path fill="none" stroke="midnightblue" d="M841.2,-569.95C772.68,-564.72 672.03,-552.17 648,-523 637.13,-509.81 642.35,-490.7 649.62,-475.71"/>
<polygon fill="midnightblue" stroke="midnightblue" points="652.89,-477.02 654.55,-466.55 646.73,-473.7 652.89,-477.02"/>
</g>
<!-- Node29 -->
<g id="node29" class="node">
<title>Node29</title>
<g id="a_node29"><a xlink:href="maliput__hash_8h.html" target="_top" xlink:title=" ">
<polygon fill="white" stroke="black" points="496,-369.5 496,-399.5 636,-399.5 636,-369.5 496,-369.5"/>
<text text-anchor="start" x="504" y="-387.5" font-family="Helvetica,sans-Serif" font-size="10.00">maliput/common/maliput</text>
<text text-anchor="middle" x="566" y="-376.5" font-family="Helvetica,sans-Serif" font-size="10.00">_hash.h</text>
</a>
</g>
</g>
<!-- Node4&#45;&gt;Node29 -->
<g id="edge73" class="edge">
<title>Node4&#45;&gt;Node29</title>
<path fill="none" stroke="midnightblue" d="M841.28,-572.39C784.35,-568.9 701.41,-557.58 638,-523 607.91,-506.59 601.23,-497.18 585,-467 575.4,-449.16 570.62,-426.57 568.26,-409.7"/>
<polygon fill="midnightblue" stroke="midnightblue" points="571.71,-409.06 567.03,-399.55 564.76,-409.9 571.71,-409.06"/>
</g>
<!-- Node34 -->
<g id="node34" class="node">
<title>Node34</title>
<g id="a_node34"><a xlink:href="bounding__box_8h.html" target="_top" xlink:title=" ">
<polygon fill="white" stroke="black" points="1197.5,-436.5 1197.5,-466.5 1328.5,-466.5 1328.5,-436.5 1197.5,-436.5"/>
<text text-anchor="start" x="1205.5" y="-454.5" font-family="Helvetica,sans-Serif" font-size="10.00">maliput/math/bounding</text>
<text text-anchor="middle" x="1263" y="-443.5" font-family="Helvetica,sans-Serif" font-size="10.00">_box.h</text>
</a>
</g>
</g>
<!-- Node4&#45;&gt;Node34 -->
<g id="edge75" class="edge">
<title>Node4&#45;&gt;Node34</title>
<path fill="none" stroke="midnightblue" d="M929.4,-559.38C955.34,-543.58 999.82,-518.22 1041,-503 1088.29,-485.52 1143.58,-472.92 1187.15,-464.68"/>
<polygon fill="midnightblue" stroke="midnightblue" points="1187.91,-468.1 1197.1,-462.83 1186.63,-461.22 1187.91,-468.1"/>
</g>
<!-- Node8&#45;&gt;Node2 -->
<g id="edge9" class="edge">
<title>Node8&#45;&gt;Node2</title>
<path fill="none" stroke="midnightblue" d="M667.25,-503.47C627.34,-495.2 566.24,-481.77 514,-467 510.99,-466.15 507.88,-465.21 504.77,-464.24"/>
<polygon fill="midnightblue" stroke="midnightblue" points="505.57,-460.82 494.98,-461.05 503.4,-467.48 505.57,-460.82"/>
</g>
<!-- Node8&#45;&gt;Node5 -->
<g id="edge10" class="edge">
<title>Node8&#45;&gt;Node5</title>
<path fill="none" stroke="midnightblue" d="M717.66,-503.44C744.27,-473.66 833.07,-374.34 868.36,-334.87"/>
<polygon fill="midnightblue" stroke="midnightblue" points="870.98,-337.19 875.04,-327.41 865.76,-332.53 870.98,-337.19"/>
</g>
<!-- Node8&#45;&gt;Node6 -->
<g id="edge11" class="edge">
<title>Node8&#45;&gt;Node6</title>
<path fill="none" stroke="midnightblue" d="M762.64,-506.8C777.91,-505.42 794.61,-504.03 810,-503 1178.42,-478.44 1277.38,-536.57 1640,-467 1786.5,-438.89 1941,-467.67 1941,-318.5 1941,-318.5 1941,-318.5 1941,-126.5 1941,-90.25 1923.91,-50.67 1912.65,-28.53"/>
<polygon fill="midnightblue" stroke="midnightblue" points="1915.73,-26.87 1907.97,-19.66 1909.54,-30.14 1915.73,-26.87"/>
</g>
<!-- Node8&#45;&gt;Node9 -->
<g id="edge12" class="edge">
<title>Node8&#45;&gt;Node9</title>
<path fill="none" stroke="midnightblue" d="M762.66,-507.03C777.92,-505.65 794.62,-504.21 810,-503 940.37,-492.77 1324.56,-467.91 1488.96,-457.36"/>
<polygon fill="midnightblue" stroke="midnightblue" points="1489.24,-460.85 1499,-456.72 1488.79,-453.87 1489.24,-460.85"/>
</g>
<!-- Node8&#45;&gt;Node12 -->
<g id="edge68" class="edge">
<title>Node8&#45;&gt;Node12</title>
<path fill="none" stroke="midnightblue" d="M724.01,-503.43C737.86,-494.76 759.45,-480.73 777,-467 798.5,-450.18 935.12,-315.22 959,-302 989.46,-285.13 1026.03,-273.51 1058.14,-265.71"/>
<polygon fill="midnightblue" stroke="midnightblue" points="1059.02,-269.1 1067.96,-263.42 1057.42,-262.29 1059.02,-269.1"/>
</g>
<!-- Node8&#45;&gt;Node13 -->
<g id="edge69" class="edge">
<title>Node8&#45;&gt;Node13</title>
<path fill="none" stroke="midnightblue" d="M684.98,-503.34C659.67,-494.49 619.45,-480.22 585,-467 550.94,-453.93 544.4,-444.8 509,-436 431.41,-416.7 215.96,-446.62 151,-400 118.68,-376.81 114,-358.28 114,-318.5 114,-318.5 114,-318.5 114,-249.5 114,-200.66 163.68,-166.32 202.31,-147"/>
<polygon fill="midnightblue" stroke="midnightblue" points="203.87,-150.14 211.36,-142.65 200.83,-143.83 203.87,-150.14"/>
</g>
<!-- Node8&#45;&gt;Node27 -->
<g id="edge48" class="edge">
<title>Node8&#45;&gt;Node27</title>
<path fill="none" stroke="midnightblue" d="M703.41,-503.48C697.59,-495.94 688.84,-484.63 681.06,-474.57"/>
<polygon fill="midnightblue" stroke="midnightblue" points="683.73,-472.29 674.84,-466.52 678.19,-476.58 683.73,-472.29"/>
</g>
<!-- Node9&#45;&gt;Node6 -->
<g id="edge15" class="edge">
<title>Node9&#45;&gt;Node6</title>
<path fill="none" stroke="midnightblue" d="M1613.79,-441.98C1707.39,-424.25 1903,-379.84 1903,-318.5 1903,-318.5 1903,-318.5 1903,-126.5 1903,-92.36 1903,-52.55 1903,-29.71"/>
<polygon fill="midnightblue" stroke="midnightblue" points="1906.5,-29.69 1903,-19.69 1899.5,-29.69 1906.5,-29.69"/>
</g>
<!-- Node10 -->
<g id="node10" class="node">
<title>Node10</title>
<g id="a_node10"><a xlink:title=" ">
<polygon fill="white" stroke="#bfbfbf" points="733.5,-308 733.5,-327 798.5,-327 798.5,-308 733.5,-308"/>
<text text-anchor="middle" x="766" y="-315" font-family="Helvetica,sans-Serif" font-size="10.00">functional</text>
</a>
</g>
</g>
<!-- Node9&#45;&gt;Node10 -->
<g id="edge13" class="edge">
<title>Node9&#45;&gt;Node10</title>
<path fill="none" stroke="midnightblue" d="M1498.95,-442.78C1423.73,-433.72 1297.23,-417.68 1189,-400 1049.25,-377.17 884.82,-343.53 808.67,-327.56"/>
<polygon fill="midnightblue" stroke="midnightblue" points="809.03,-324.05 798.53,-325.42 807.59,-330.9 809.03,-324.05"/>
</g>
<!-- Node11 -->
<g id="node11" class="node">
<title>Node11</title>
<g id="a_node11"><a xlink:title=" ">
<polygon fill="white" stroke="#bfbfbf" points="1617.5,-241 1617.5,-260 1674.5,-260 1674.5,-241 1617.5,-241"/>
<text text-anchor="middle" x="1646" y="-248" font-family="Helvetica,sans-Serif" font-size="10.00">ostream</text>
</a>
</g>
</g>
<!-- Node9&#45;&gt;Node11 -->
<g id="edge14" class="edge">
<title>Node9&#45;&gt;Node11</title>
<path fill="none" stroke="midnightblue" d="M1601.77,-441.93C1628.24,-434.33 1663.62,-421.1 1689,-400 1716.21,-377.38 1722.04,-366.95 1732,-333 1735.88,-319.78 1738.84,-313.96 1732,-302 1721.69,-284 1702.2,-271.78 1684.37,-263.88"/>
<polygon fill="midnightblue" stroke="midnightblue" points="1685.29,-260.48 1674.71,-259.93 1682.64,-266.96 1685.29,-260.48"/>
</g>
<!-- Node9&#45;&gt;Node12 -->
<g id="edge16" class="edge">
<title>Node9&#45;&gt;Node12</title>
<path fill="none" stroke="midnightblue" d="M1551.66,-441.9C1536.66,-432.1 1511.68,-415.46 1491,-400 1490.78,-399.84 1371.24,-302.12 1371,-302 1323.06,-278.9 1264.51,-266.26 1218.09,-259.41"/>
<polygon fill="midnightblue" stroke="midnightblue" points="1218.47,-255.93 1208.08,-257.99 1217.49,-262.86 1218.47,-255.93"/>
</g>
<!-- Node9&#45;&gt;Node13 -->
<g id="edge17" class="edge">
<title>Node9&#45;&gt;Node13</title>
<path fill="none" stroke="midnightblue" d="M1498.97,-445.91C1453.68,-442.85 1392.22,-438.88 1338,-436 959.97,-415.93 860.17,-463.65 487,-400 386.24,-382.81 335.96,-408.44 267,-333 221.39,-283.11 232.35,-195.02 241.11,-152.63"/>
<polygon fill="midnightblue" stroke="midnightblue" points="244.58,-153.17 243.32,-142.65 237.74,-151.66 244.58,-153.17"/>
</g>
<!-- Node17 -->
<g id="node17" class="node">
<title>Node17</title>
<g id="a_node17"><a xlink:href="matrix_8h.html" target="_top" xlink:title=" ">
<polygon fill="white" stroke="black" points="1731.5,-241 1731.5,-260 1858.5,-260 1858.5,-241 1731.5,-241"/>
<text text-anchor="middle" x="1795" y="-248" font-family="Helvetica,sans-Serif" font-size="10.00">maliput/math/matrix.h</text>
</a>
</g>
</g>
<!-- Node9&#45;&gt;Node17 -->
<g id="edge23" class="edge">
<title>Node9&#45;&gt;Node17</title>
<path fill="none" stroke="midnightblue" d="M1623.23,-441.95C1653.94,-434.96 1690.61,-422.41 1717,-400 1758.52,-364.75 1781,-301.74 1790.11,-270.35"/>
<polygon fill="midnightblue" stroke="midnightblue" points="1793.59,-270.9 1792.87,-260.33 1786.84,-269.04 1793.59,-270.9"/>
</g>
<!-- Node9&#45;&gt;Node23 -->
<g id="edge47" class="edge">
<title>Node9&#45;&gt;Node23</title>
<path fill="none" stroke="midnightblue" d="M1588.32,-441.91C1606.04,-434 1629.16,-420.37 1640,-400 1646.47,-387.84 1647.28,-380.7 1640,-369 1620.9,-338.28 1586.1,-363.72 1567,-333 1542.93,-294.29 1553.39,-237.54 1561.23,-208.54"/>
<polygon fill="midnightblue" stroke="midnightblue" points="1564.7,-209.15 1564.12,-198.57 1557.97,-207.2 1564.7,-209.15"/>
</g>
<!-- Node24 -->
<g id="node24" class="node">
<title>Node24</title>
<g id="a_node24"><a xlink:href="quaternion_8h.html" target="_top" xlink:title=" ">
<polygon fill="white" stroke="black" points="1575.5,-308 1575.5,-327 1722.5,-327 1722.5,-308 1575.5,-308"/>
<text text-anchor="middle" x="1649" y="-315" font-family="Helvetica,sans-Serif" font-size="10.00">maliput/math/quaternion.h</text>
</a>
</g>
</g>
<!-- Node9&#45;&gt;Node24 -->
<g id="edge36" class="edge">
<title>Node9&#45;&gt;Node24</title>
<path fill="none" stroke="midnightblue" d="M1608.61,-441.93C1631.99,-434.88 1658.83,-422.27 1673,-400 1685.69,-380.05 1673.08,-353.13 1661.87,-335.79"/>
<polygon fill="midnightblue" stroke="midnightblue" points="1664.53,-333.48 1655.96,-327.24 1658.77,-337.46 1664.53,-333.48"/>
</g>
<!-- Node26 -->
<g id="node26" class="node">
<title>Node26</title>
<g id="a_node26"><a xlink:href="roll__pitch__yaw_8h.html" target="_top" xlink:title=" ">
<polygon fill="white" stroke="black" points="1499.5,-369.5 1499.5,-399.5 1630.5,-399.5 1630.5,-369.5 1499.5,-369.5"/>
<text text-anchor="start" x="1507.5" y="-387.5" font-family="Helvetica,sans-Serif" font-size="10.00">maliput/math/roll_pitch</text>
<text text-anchor="middle" x="1565" y="-376.5" font-family="Helvetica,sans-Serif" font-size="10.00">_yaw.h</text>
</a>
</g>
</g>
<!-- Node9&#45;&gt;Node26 -->
<g id="edge42" class="edge">
<title>Node9&#45;&gt;Node26</title>
<path fill="none" stroke="midnightblue" d="M1565,-441.73C1565,-433.54 1565,-420.92 1565,-409.71"/>
<polygon fill="midnightblue" stroke="midnightblue" points="1568.5,-409.59 1565,-399.59 1561.5,-409.59 1568.5,-409.59"/>
</g>
<!-- Node13&#45;&gt;Node6 -->
<g id="edge19" class="edge">
<title>Node13&#45;&gt;Node6</title>
<path fill="none" stroke="midnightblue" d="M246.26,-112.49C246.25,-96.05 249.08,-69.34 266,-56 331.36,-4.48 1646.81,-9.56 1870.73,-10.8"/>
<polygon fill="midnightblue" stroke="midnightblue" points="1870.82,-14.3 1880.84,-10.86 1870.86,-7.3 1870.82,-14.3"/>
</g>
<!-- Node14 -->
<g id="node14" class="node">
<title>Node14</title>
<g id="a_node14"><a xlink:title=" ">
<polygon fill="white" stroke="#bfbfbf" points="275,-56.5 275,-75.5 331,-75.5 331,-56.5 275,-56.5"/>
<text text-anchor="middle" x="303" y="-63.5" font-family="Helvetica,sans-Serif" font-size="10.00">sstream</text>
</a>
</g>
</g>
<!-- Node13&#45;&gt;Node14 -->
<g id="edge18" class="edge">
<title>Node13&#45;&gt;Node14</title>
<path fill="none" stroke="midnightblue" d="M260.27,-112.4C268.58,-103.58 279.3,-92.18 287.92,-83.02"/>
<polygon fill="midnightblue" stroke="midnightblue" points="290.55,-85.34 294.85,-75.66 285.45,-80.54 290.55,-85.34"/>
</g>
<!-- Node15 -->
<g id="node15" class="node">
<title>Node15</title>
<g id="a_node15"><a xlink:href="error_8h.html" target="_top" xlink:title=" ">
<polygon fill="white" stroke="black" points="1969.5,-56.5 1969.5,-75.5 2104.5,-75.5 2104.5,-56.5 1969.5,-56.5"/>
<text text-anchor="middle" x="2037" y="-63.5" font-family="Helvetica,sans-Serif" font-size="10.00">maliput/common/error.h</text>
</a>
</g>
</g>
<!-- Node13&#45;&gt;Node15 -->
<g id="edge20" class="edge">
<title>Node13&#45;&gt;Node15</title>
<path fill="none" stroke="midnightblue" d="M317.17,-124.17C600.8,-114.74 1661.48,-79.48 1958.98,-69.59"/>
<polygon fill="midnightblue" stroke="midnightblue" points="1959.36,-73.08 1969.24,-69.25 1959.13,-66.09 1959.36,-73.08"/>
</g>
<!-- Node15&#45;&gt;Node6 -->
<g id="edge22" class="edge">
<title>Node15&#45;&gt;Node6</title>
<path fill="none" stroke="midnightblue" d="M2015.77,-56.44C1993.62,-47.52 1958.68,-33.44 1933.56,-23.32"/>
<polygon fill="midnightblue" stroke="midnightblue" points="1934.72,-20.01 1924.13,-19.52 1932.1,-26.5 1934.72,-20.01"/>
</g>
<!-- Node16 -->
<g id="node16" class="node">
<title>Node16</title>
<g id="a_node16"><a xlink:title=" ">
<polygon fill="white" stroke="#bfbfbf" points="2004.5,-0.5 2004.5,-19.5 2069.5,-19.5 2069.5,-0.5 2004.5,-0.5"/>
<text text-anchor="middle" x="2037" y="-7.5" font-family="Helvetica,sans-Serif" font-size="10.00">stdexcept</text>
</a>
</g>
</g>
<!-- Node15&#45;&gt;Node16 -->
<g id="edge21" class="edge">
<title>Node15&#45;&gt;Node16</title>
<path fill="none" stroke="midnightblue" d="M2037,-56.08C2037,-49.01 2037,-38.86 2037,-29.99"/>
<polygon fill="midnightblue" stroke="midnightblue" points="2040.5,-29.75 2037,-19.75 2033.5,-29.75 2040.5,-29.75"/>
</g>
<!-- Node18 -->
<g id="node18" class="node">
<title>Node18</title>
<g id="a_node18"><a xlink:title=" ">
<polygon fill="white" stroke="#bfbfbf" points="1714,-118 1714,-137 1778,-137 1778,-118 1714,-118"/>
<text text-anchor="middle" x="1746" y="-125" font-family="Helvetica,sans-Serif" font-size="10.00">algorithm</text>
</a>
</g>
</g>
<!-- Node17&#45;&gt;Node18 -->
<g id="edge24" class="edge">
<title>Node17&#45;&gt;Node18</title>
<path fill="none" stroke="midnightblue" d="M1791.48,-240.8C1783.53,-221.18 1764.08,-173.14 1753.37,-146.69"/>
<polygon fill="midnightblue" stroke="midnightblue" points="1756.49,-145.08 1749.49,-137.12 1750,-147.71 1756.49,-145.08"/>
</g>
<!-- Node19 -->
<g id="node19" class="node">
<title>Node19</title>
<g id="a_node19"><a xlink:title=" ">
<polygon fill="white" stroke="#bfbfbf" points="1796,-118 1796,-137 1838,-137 1838,-118 1796,-118"/>
<text text-anchor="middle" x="1817" y="-125" font-family="Helvetica,sans-Serif" font-size="10.00">array</text>
</a>
</g>
</g>
<!-- Node17&#45;&gt;Node19 -->
<g id="edge25" class="edge">
<title>Node17&#45;&gt;Node19</title>
<path fill="none" stroke="midnightblue" d="M1796.58,-240.8C1800.13,-221.26 1808.81,-173.56 1813.63,-147.05"/>
<polygon fill="midnightblue" stroke="midnightblue" points="1817.09,-147.59 1815.43,-137.12 1810.2,-146.34 1817.09,-147.59"/>
</g>
<!-- Node20 -->
<g id="node20" class="node">
<title>Node20</title>
<g id="a_node20"><a xlink:title=" ">
<polygon fill="white" stroke="#bfbfbf" points="1462.5,-118 1462.5,-137 1515.5,-137 1515.5,-118 1462.5,-118"/>
<text text-anchor="middle" x="1489" y="-125" font-family="Helvetica,sans-Serif" font-size="10.00">cstddef</text>
</a>
</g>
</g>
<!-- Node17&#45;&gt;Node20 -->
<g id="edge26" class="edge">
<title>Node17&#45;&gt;Node20</title>
<path fill="none" stroke="midnightblue" d="M1771.88,-240.83C1747.24,-231.38 1707.29,-215.38 1674,-199 1657.92,-191.09 1655.41,-186.18 1639,-179 1590.32,-157.7 1575.01,-160.94 1525,-143 1523.1,-142.32 1521.15,-141.6 1519.18,-140.85"/>
<polygon fill="midnightblue" stroke="midnightblue" points="1520.04,-137.43 1509.46,-137.06 1517.5,-143.95 1520.04,-137.43"/>
</g>
<!-- Node21 -->
<g id="node21" class="node">
<title>Node21</title>
<g id="a_node21"><a xlink:title=" ">
<polygon fill="white" stroke="#bfbfbf" points="1612.5,-118 1612.5,-137 1695.5,-137 1695.5,-118 1612.5,-118"/>
<text text-anchor="middle" x="1654" y="-125" font-family="Helvetica,sans-Serif" font-size="10.00">initializer_list</text>
</a>
</g>
</g>
<!-- Node17&#45;&gt;Node21 -->
<g id="edge27" class="edge">
<title>Node17&#45;&gt;Node21</title>
<path fill="none" stroke="midnightblue" d="M1784.91,-240.81C1769.44,-227.49 1738.93,-201.25 1713,-179 1699.17,-167.13 1683.49,-153.72 1671.77,-143.7"/>
<polygon fill="midnightblue" stroke="midnightblue" points="1673.9,-140.91 1664.03,-137.07 1669.35,-146.23 1673.9,-140.91"/>
</g>
<!-- Node22 -->
<g id="node22" class="node">
<title>Node22</title>
<g id="a_node22"><a xlink:title=" ">
<polygon fill="white" stroke="#bfbfbf" points="1534,-118 1534,-137 1594,-137 1594,-118 1534,-118"/>
<text text-anchor="middle" x="1564" y="-125" font-family="Helvetica,sans-Serif" font-size="10.00">iostream</text>
</a>
</g>
</g>
<!-- Node17&#45;&gt;Node22 -->
<g id="edge28" class="edge">
<title>Node17&#45;&gt;Node22</title>
<path fill="none" stroke="midnightblue" d="M1781.09,-240.8C1758.84,-227.02 1713.7,-199.62 1674,-179 1647.2,-165.08 1615.82,-150.87 1593.45,-141.09"/>
<polygon fill="midnightblue" stroke="midnightblue" points="1594.72,-137.82 1584.15,-137.05 1591.93,-144.24 1594.72,-137.82"/>
</g>
<!-- Node17&#45;&gt;Node23 -->
<g id="edge29" class="edge">
<title>Node17&#45;&gt;Node23</title>
<path fill="none" stroke="midnightblue" d="M1762.33,-240.98C1722.12,-230.48 1653.74,-212.64 1609.48,-201.09"/>
<polygon fill="midnightblue" stroke="midnightblue" points="1610.17,-197.65 1599.61,-198.51 1608.4,-204.42 1610.17,-197.65"/>
</g>
<!-- Node23&#45;&gt;Node13 -->
<g id="edge35" class="edge">
<title>Node23&#45;&gt;Node13</title>
<path fill="none" stroke="midnightblue" d="M1504.22,-185.17C1287.28,-175.39 569.33,-143.03 327.39,-132.12"/>
<polygon fill="midnightblue" stroke="midnightblue" points="327.41,-128.62 317.27,-131.67 327.1,-135.61 327.41,-128.62"/>
</g>
<!-- Node23&#45;&gt;Node18 -->
<g id="edge30" class="edge">
<title>Node23&#45;&gt;Node18</title>
<path fill="none" stroke="midnightblue" d="M1593.78,-179.48C1621.63,-170.58 1666.47,-156.09 1705,-143 1707.44,-142.17 1709.96,-141.31 1712.49,-140.43"/>
<polygon fill="midnightblue" stroke="midnightblue" points="1713.9,-143.64 1722.19,-137.03 1711.59,-137.03 1713.9,-143.64"/>
</g>
<!-- Node23&#45;&gt;Node19 -->
<g id="edge31" class="edge">
<title>Node23&#45;&gt;Node19</title>
<path fill="none" stroke="midnightblue" d="M1629.25,-179.5C1673.91,-172.38 1735.11,-160.54 1787,-143 1788.62,-142.45 1790.27,-141.84 1791.91,-141.18"/>
<polygon fill="midnightblue" stroke="midnightblue" points="1793.4,-144.35 1801.12,-137.08 1790.56,-137.95 1793.4,-144.35"/>
</g>
<!-- Node23&#45;&gt;Node20 -->
<g id="edge32" class="edge">
<title>Node23&#45;&gt;Node20</title>
<path fill="none" stroke="midnightblue" d="M1555.82,-179.48C1543.43,-170.02 1523.21,-154.6 1508.25,-143.19"/>
<polygon fill="midnightblue" stroke="midnightblue" points="1510.23,-140.29 1500.15,-137.01 1505.98,-145.86 1510.23,-140.29"/>
</g>
<!-- Node23&#45;&gt;Node21 -->
<g id="edge33" class="edge">
<title>Node23&#45;&gt;Node21</title>
<path fill="none" stroke="midnightblue" d="M1579.46,-179.48C1593.42,-169.93 1616.26,-154.31 1632.99,-142.87"/>
<polygon fill="midnightblue" stroke="midnightblue" points="1635.28,-145.54 1641.56,-137.01 1631.33,-139.77 1635.28,-145.54"/>
</g>
<!-- Node23&#45;&gt;Node22 -->
<g id="edge34" class="edge">
<title>Node23&#45;&gt;Node22</title>
<path fill="none" stroke="midnightblue" d="M1566.57,-179.48C1566.15,-171.08 1565.49,-157.98 1564.94,-147.16"/>
<polygon fill="midnightblue" stroke="midnightblue" points="1568.43,-146.82 1564.43,-137.01 1561.44,-147.17 1568.43,-146.82"/>
</g>
<!-- Node24&#45;&gt;Node11 -->
<g id="edge38" class="edge">
<title>Node24&#45;&gt;Node11</title>
<path fill="none" stroke="midnightblue" d="M1648.6,-307.73C1648.15,-298.18 1647.44,-282.62 1646.87,-270.28"/>
<polygon fill="midnightblue" stroke="midnightblue" points="1650.36,-269.96 1646.4,-260.13 1643.36,-270.28 1650.36,-269.96"/>
</g>
<!-- Node24&#45;&gt;Node12 -->
<g id="edge39" class="edge">
<title>Node24&#45;&gt;Node12</title>
<path fill="none" stroke="midnightblue" d="M1581.93,-307.97C1488.21,-296.05 1318.34,-274.44 1218.09,-261.69"/>
<polygon fill="midnightblue" stroke="midnightblue" points="1218.38,-258.2 1208.02,-260.41 1217.5,-265.14 1218.38,-258.2"/>
</g>
<!-- Node24&#45;&gt;Node17 -->
<g id="edge40" class="edge">
<title>Node24&#45;&gt;Node17</title>
<path fill="none" stroke="midnightblue" d="M1668.39,-307.87C1693.48,-296.7 1737.39,-277.15 1766.34,-264.26"/>
<polygon fill="midnightblue" stroke="midnightblue" points="1767.82,-267.43 1775.53,-260.17 1764.97,-261.04 1767.82,-267.43"/>
</g>
<!-- Node24&#45;&gt;Node23 -->
<g id="edge41" class="edge">
<title>Node24&#45;&gt;Node23</title>
<path fill="none" stroke="midnightblue" d="M1641.46,-307.89C1633.05,-298.1 1619.29,-281.45 1609,-266 1596.25,-246.85 1583.78,-223.53 1575.78,-207.81"/>
<polygon fill="midnightblue" stroke="midnightblue" points="1578.83,-206.08 1571.22,-198.7 1572.57,-209.21 1578.83,-206.08"/>
</g>
<!-- Node25 -->
<g id="node25" class="node">
<title>Node25</title>
<g id="a_node25"><a xlink:title=" ">
<polygon fill="white" stroke="#bfbfbf" points="807.5,-241 807.5,-260 854.5,-260 854.5,-241 807.5,-241"/>
<text text-anchor="middle" x="831" y="-248" font-family="Helvetica,sans-Serif" font-size="10.00">cmath</text>
</a>
</g>
</g>
<!-- Node24&#45;&gt;Node25 -->
<g id="edge37" class="edge">
<title>Node24&#45;&gt;Node25</title>
<path fill="none" stroke="midnightblue" d="M1575.33,-310.65C1404.55,-297.08 986.9,-263.89 864.95,-254.2"/>
<polygon fill="midnightblue" stroke="midnightblue" points="864.98,-250.69 854.74,-253.39 864.43,-257.67 864.98,-250.69"/>
</g>
<!-- Node26&#45;&gt;Node12 -->
<g id="edge43" class="edge">
<title>Node26&#45;&gt;Node12</title>
<path fill="none" stroke="midnightblue" d="M1543.21,-369.43C1513.88,-351.14 1459.54,-319.47 1409,-302 1346.72,-280.47 1273.05,-267.49 1218.25,-260.09"/>
<polygon fill="midnightblue" stroke="midnightblue" points="1218.61,-256.61 1208.24,-258.78 1217.7,-263.55 1218.61,-256.61"/>
</g>
<!-- Node26&#45;&gt;Node17 -->
<g id="edge44" class="edge">
<title>Node26&#45;&gt;Node17</title>
<path fill="none" stroke="midnightblue" d="M1630.57,-373.44C1663.18,-366.11 1701.94,-353.7 1732,-333 1756.22,-316.32 1775.32,-287.44 1785.88,-268.91"/>
<polygon fill="midnightblue" stroke="midnightblue" points="1789,-270.51 1790.73,-260.06 1782.86,-267.15 1789,-270.51"/>
</g>
<!-- Node26&#45;&gt;Node23 -->
<g id="edge46" class="edge">
<title>Node26&#45;&gt;Node23</title>
<path fill="none" stroke="midnightblue" d="M1552.76,-369.12C1545.46,-359.57 1536.88,-346.36 1533,-333 1520.86,-291.17 1519.15,-276.3 1533,-235 1536.6,-224.25 1543.9,-214.02 1550.82,-206.04"/>
<polygon fill="midnightblue" stroke="midnightblue" points="1553.48,-208.32 1557.71,-198.61 1548.35,-203.56 1553.48,-208.32"/>
</g>
<!-- Node26&#45;&gt;Node24 -->
<g id="edge45" class="edge">
<title>Node26&#45;&gt;Node24</title>
<path fill="none" stroke="midnightblue" d="M1583.23,-369.4C1596.97,-358.76 1615.78,-344.2 1629.77,-333.38"/>
<polygon fill="midnightblue" stroke="midnightblue" points="1632,-336.08 1637.76,-327.19 1627.71,-330.55 1632,-336.08"/>
</g>
<!-- Node27&#45;&gt;Node6 -->
<g id="edge50" class="edge">
<title>Node27&#45;&gt;Node6</title>
<path fill="none" stroke="midnightblue" d="M593.87,-443.96C455.87,-431.03 161.47,-403.2 151,-400 78.07,-377.72 0,-394.76 0,-318.5 0,-318.5 0,-318.5 0,-126.5 0,-34.34 104.44,-73.1 195,-56 365.37,-23.83 1649.19,-12.89 1870.55,-11.23"/>
<polygon fill="midnightblue" stroke="midnightblue" points="1870.86,-14.73 1880.84,-11.15 1870.81,-7.73 1870.86,-14.73"/>
</g>
<!-- Node27&#45;&gt;Node10 -->
<g id="edge49" class="edge">
<title>Node27&#45;&gt;Node10</title>
<path fill="none" stroke="midnightblue" d="M674.67,-436.3C686.96,-419.99 707.79,-392.45 726,-369 734.82,-357.64 744.88,-344.94 752.7,-335.13"/>
<polygon fill="midnightblue" stroke="midnightblue" points="755.65,-337.04 759.15,-327.04 750.18,-332.67 755.65,-337.04"/>
</g>
<!-- Node27&#45;&gt;Node12 -->
<g id="edge52" class="edge">
<title>Node27&#45;&gt;Node12</title>
<path fill="none" stroke="midnightblue" d="M681.38,-436.36C693.81,-426.24 710.94,-412.28 726,-400 729.34,-397.28 842.08,-303.79 846,-302 913.25,-271.32 997,-259.17 1057.54,-254.41"/>
<polygon fill="midnightblue" stroke="midnightblue" points="1058.09,-257.88 1067.81,-253.66 1057.58,-250.9 1058.09,-257.88"/>
</g>
<!-- Node27&#45;&gt;Node13 -->
<g id="edge67" class="edge">
<title>Node27&#45;&gt;Node13</title>
<path fill="none" stroke="midnightblue" d="M593.71,-441.9C576.78,-439.9 558.75,-437.82 542,-436 460.75,-427.18 238.97,-452.1 176,-400 146.91,-375.93 152,-356.26 152,-318.5 152,-318.5 152,-318.5 152,-249.5 152,-206.9 188.88,-170.41 216.68,-148.96"/>
<polygon fill="midnightblue" stroke="midnightblue" points="219.03,-151.57 224.97,-142.79 214.85,-145.95 219.03,-151.57"/>
</g>
<!-- Node28 -->
<g id="node28" class="node">
<title>Node28</title>
<g id="a_node28"><a xlink:title=" ">
<polygon fill="white" stroke="#bfbfbf" points="670.5,-308 670.5,-327 715.5,-327 715.5,-308 670.5,-308"/>
<text text-anchor="middle" x="693" y="-315" font-family="Helvetica,sans-Serif" font-size="10.00">utility</text>
</a>
</g>
</g>
<!-- Node27&#45;&gt;Node28 -->
<g id="edge51" class="edge">
<title>Node27&#45;&gt;Node28</title>
<path fill="none" stroke="midnightblue" d="M667.1,-436.37C672.37,-412.4 683.06,-363.75 688.92,-337.06"/>
<polygon fill="midnightblue" stroke="midnightblue" points="692.38,-337.62 691.11,-327.1 685.55,-336.11 692.38,-337.62"/>
</g>
<!-- Node27&#45;&gt;Node29 -->
<g id="edge53" class="edge">
<title>Node27&#45;&gt;Node29</title>
<path fill="none" stroke="midnightblue" d="M642.74,-436.4C628.99,-427.28 610.91,-415.29 595.76,-405.24"/>
<polygon fill="midnightblue" stroke="midnightblue" points="597.49,-402.19 587.22,-399.58 593.62,-408.02 597.49,-402.19"/>
</g>
<!-- Node29&#45;&gt;Node3 -->
<g id="edge65" class="edge">
<title>Node29&#45;&gt;Node3</title>
<path fill="none" stroke="midnightblue" d="M636.05,-374.76C707.6,-365.54 821.82,-350.01 920,-333 932.27,-330.87 945.67,-328.22 957.49,-325.77"/>
<polygon fill="midnightblue" stroke="midnightblue" points="958.33,-329.17 967.4,-323.69 956.89,-322.32 958.33,-329.17"/>
</g>
<!-- Node29&#45;&gt;Node5 -->
<g id="edge60" class="edge">
<title>Node29&#45;&gt;Node5</title>
<path fill="none" stroke="midnightblue" d="M634.39,-369.48C698.89,-356.25 793.2,-336.91 845.16,-326.26"/>
<polygon fill="midnightblue" stroke="midnightblue" points="845.87,-329.69 854.97,-324.25 844.47,-322.83 845.87,-329.69"/>
</g>
<!-- Node29&#45;&gt;Node6 -->
<g id="edge62" class="edge">
<title>Node29&#45;&gt;Node6</title>
<path fill="none" stroke="midnightblue" d="M495.95,-378.84C419.31,-372.51 302.6,-358.9 267,-333 179.96,-269.69 118.02,-207.32 168,-112 188.32,-73.24 207.4,-69.6 249,-56 328.92,-29.87 1646.52,-13.89 1870.7,-11.36"/>
<polygon fill="midnightblue" stroke="midnightblue" points="1870.86,-14.85 1880.82,-11.24 1870.78,-7.85 1870.86,-14.85"/>
</g>
<!-- Node29&#45;&gt;Node10 -->
<g id="edge57" class="edge">
<title>Node29&#45;&gt;Node10</title>
<path fill="none" stroke="midnightblue" d="M611.04,-369.41C642.7,-359.43 686.01,-345.63 724,-333 726.59,-332.14 729.26,-331.24 731.95,-330.33"/>
<polygon fill="midnightblue" stroke="midnightblue" points="733.27,-333.58 741.6,-327.03 731.01,-326.95 733.27,-333.58"/>
</g>
<!-- Node29&#45;&gt;Node13 -->
<g id="edge66" class="edge">
<title>Node29&#45;&gt;Node13</title>
<path fill="none" stroke="midnightblue" d="M495.72,-379.82C422.35,-374.47 314,-361.83 285,-333 259.93,-308.08 250.98,-201.7 248.16,-153.01"/>
<polygon fill="midnightblue" stroke="midnightblue" points="251.64,-152.54 247.61,-142.75 244.65,-152.92 251.64,-152.54"/>
</g>
<!-- Node29&#45;&gt;Node20 -->
<g id="edge55" class="edge">
<title>Node29&#45;&gt;Node20</title>
<path fill="none" stroke="midnightblue" d="M562.38,-369.47C553.68,-332.12 536.11,-229.71 590,-179 621.89,-148.99 1286.74,-132.83 1452.04,-129.26"/>
<polygon fill="midnightblue" stroke="midnightblue" points="1452.27,-132.76 1462.2,-129.04 1452.12,-125.76 1452.27,-132.76"/>
</g>
<!-- Node29&#45;&gt;Node22 -->
<g id="edge58" class="edge">
<title>Node29&#45;&gt;Node22</title>
<path fill="none" stroke="midnightblue" d="M571.78,-369.43C579.84,-351.42 596.09,-320.38 619,-302 685.26,-248.84 715.53,-255.36 798,-235 1114.2,-156.94 1208.72,-220.71 1525,-143 1527.99,-142.27 1531.07,-141.37 1534.12,-140.4"/>
<polygon fill="midnightblue" stroke="midnightblue" points="1535.34,-143.68 1543.63,-137.08 1533.04,-137.07 1535.34,-143.68"/>
</g>
<!-- Node29&#45;&gt;Node25 -->
<g id="edge54" class="edge">
<title>Node29&#45;&gt;Node25</title>
<path fill="none" stroke="midnightblue" d="M580.87,-369.38C602.95,-348.66 643.64,-311.46 661,-302 705.05,-278 761.88,-264.09 797.39,-257.16"/>
<polygon fill="midnightblue" stroke="midnightblue" points="798.07,-260.59 807.25,-255.3 796.77,-253.71 798.07,-260.59"/>
</g>
<!-- Node29&#45;&gt;Node28 -->
<g id="edge64" class="edge">
<title>Node29&#45;&gt;Node28</title>
<path fill="none" stroke="midnightblue" d="M593.56,-369.4C615.45,-358.19 645.83,-342.64 667.24,-331.69"/>
<polygon fill="midnightblue" stroke="midnightblue" points="669.07,-334.68 676.38,-327.01 665.88,-328.45 669.07,-334.68"/>
</g>
<!-- Node30 -->
<g id="node30" class="node">
<title>Node30</title>
<g id="a_node30"><a xlink:title=" ">
<polygon fill="white" stroke="#bfbfbf" points="382,-308 382,-327 432,-327 432,-308 382,-308"/>
<text text-anchor="middle" x="407" y="-315" font-family="Helvetica,sans-Serif" font-size="10.00">cstdint</text>
</a>
</g>
</g>
<!-- Node29&#45;&gt;Node30 -->
<g id="edge56" class="edge">
<title>Node29&#45;&gt;Node30</title>
<path fill="none" stroke="midnightblue" d="M530.64,-369.42C505.56,-359.39 471.15,-345.52 441,-333 439.59,-332.42 438.15,-331.81 436.7,-331.21"/>
<polygon fill="midnightblue" stroke="midnightblue" points="437.68,-327.82 427.11,-327.15 434.96,-334.27 437.68,-327.82"/>
</g>
<!-- Node31 -->
<g id="node31" class="node">
<title>Node31</title>
<g id="a_node31"><a xlink:title=" ">
<polygon fill="white" stroke="#bfbfbf" points="450,-308 450,-327 488,-327 488,-308 450,-308"/>
<text text-anchor="middle" x="469" y="-315" font-family="Helvetica,sans-Serif" font-size="10.00">map</text>
</a>
</g>
</g>
<!-- Node29&#45;&gt;Node31 -->
<g id="edge59" class="edge">
<title>Node29&#45;&gt;Node31</title>
<path fill="none" stroke="midnightblue" d="M544.95,-369.4C528.69,-358.5 506.28,-343.48 490.02,-332.58"/>
<polygon fill="midnightblue" stroke="midnightblue" points="491.95,-329.67 481.7,-327.01 488.05,-335.48 491.95,-329.67"/>
</g>
<!-- Node32 -->
<g id="node32" class="node">
<title>Node32</title>
<g id="a_node32"><a xlink:title=" ">
<polygon fill="white" stroke="#bfbfbf" points="506,-308 506,-327 538,-327 538,-308 506,-308"/>
<text text-anchor="middle" x="522" y="-315" font-family="Helvetica,sans-Serif" font-size="10.00">set</text>
</a>
</g>
</g>
<!-- Node29&#45;&gt;Node32 -->
<g id="edge61" class="edge">
<title>Node29&#45;&gt;Node32</title>
<path fill="none" stroke="midnightblue" d="M556.45,-369.4C549.73,-359.46 540.69,-346.11 533.56,-335.57"/>
<polygon fill="midnightblue" stroke="midnightblue" points="536.39,-333.51 527.89,-327.19 530.59,-337.44 536.39,-333.51"/>
</g>
<!-- Node33 -->
<g id="node33" class="node">
<title>Node33</title>
<g id="a_node33"><a xlink:title=" ">
<polygon fill="white" stroke="#bfbfbf" points="294.5,-308 294.5,-327 363.5,-327 363.5,-308 294.5,-308"/>
<text text-anchor="middle" x="329" y="-315" font-family="Helvetica,sans-Serif" font-size="10.00">type_traits</text>
</a>
</g>
</g>
<!-- Node29&#45;&gt;Node33 -->
<g id="edge63" class="edge">
<title>Node29&#45;&gt;Node33</title>
<path fill="none" stroke="midnightblue" d="M508.31,-369.41C469.82,-359.76 418.18,-346.34 373,-333 370.01,-332.12 366.92,-331.17 363.82,-330.2"/>
<polygon fill="midnightblue" stroke="midnightblue" points="364.64,-326.78 354.04,-327.05 362.49,-333.45 364.64,-326.78"/>
</g>
<!-- Node34&#45;&gt;Node3 -->
<g id="edge76" class="edge">
<title>Node34&#45;&gt;Node3</title>
<path fill="none" stroke="midnightblue" d="M1232.18,-436.33C1210.53,-426.31 1180.92,-412.5 1155,-400 1106.21,-376.47 1049.72,-348.16 1017.39,-331.86"/>
<polygon fill="midnightblue" stroke="midnightblue" points="1018.67,-328.58 1008.17,-327.2 1015.52,-334.83 1018.67,-328.58"/>
</g>
<!-- Node34&#45;&gt;Node12 -->
<g id="edge77" class="edge">
<title>Node34&#45;&gt;Node12</title>
<path fill="none" stroke="midnightblue" d="M1236.05,-436.29C1220.9,-427.35 1202.4,-414.73 1189,-400 1166.11,-374.84 1163.26,-365.1 1152,-333 1145.51,-314.51 1141.96,-292.56 1140.06,-276.11"/>
<polygon fill="midnightblue" stroke="midnightblue" points="1143.5,-275.29 1139,-265.7 1136.54,-276.01 1143.5,-275.29"/>
</g>
<!-- Node34&#45;&gt;Node23 -->
<g id="edge83" class="edge">
<title>Node34&#45;&gt;Node23</title>
<path fill="none" stroke="midnightblue" d="M1293.37,-436.31C1311.69,-427.11 1335.08,-414.22 1354,-400 1437.16,-337.5 1445.54,-307.64 1520,-235 1530.13,-225.12 1541.6,-214.13 1550.68,-205.48"/>
<polygon fill="midnightblue" stroke="midnightblue" points="1553.11,-208 1557.94,-198.58 1548.28,-202.93 1553.11,-208"/>
</g>
<!-- Node34&#45;&gt;Node26 -->
<g id="edge82" class="edge">
<title>Node34&#45;&gt;Node26</title>
<path fill="none" stroke="midnightblue" d="M1328.16,-436.48C1375.61,-426.26 1439.99,-412.41 1489.65,-401.72"/>
<polygon fill="midnightblue" stroke="midnightblue" points="1490.66,-405.08 1499.7,-399.55 1489.19,-398.24 1490.66,-405.08"/>
</g>
<!-- Node35 -->
<g id="node35" class="node">
<title>Node35</title>
<g id="a_node35"><a xlink:href="bounding__region_8h.html" target="_top" xlink:title=" ">
<polygon fill="white" stroke="black" points="1197.5,-369.5 1197.5,-399.5 1328.5,-399.5 1328.5,-369.5 1197.5,-369.5"/>
<text text-anchor="start" x="1205.5" y="-387.5" font-family="Helvetica,sans-Serif" font-size="10.00">maliput/math/bounding</text>
<text text-anchor="middle" x="1263" y="-376.5" font-family="Helvetica,sans-Serif" font-size="10.00">_region.h</text>
</a>
</g>
</g>
<!-- Node34&#45;&gt;Node35 -->
<g id="edge78" class="edge">
<title>Node34&#45;&gt;Node35</title>
<path fill="none" stroke="midnightblue" d="M1263,-436.4C1263,-428.64 1263,-418.81 1263,-409.86"/>
<polygon fill="midnightblue" stroke="midnightblue" points="1266.5,-409.58 1263,-399.58 1259.5,-409.58 1266.5,-409.58"/>
</g>
<!-- Node36 -->
<g id="node36" class="node">
<title>Node36</title>
<g id="a_node36"><a xlink:href="overlapping__type_8h.html" target="_top" xlink:title=" ">
<polygon fill="white" stroke="black" points="1185.5,-302.5 1185.5,-332.5 1328.5,-332.5 1328.5,-302.5 1185.5,-302.5"/>
<text text-anchor="start" x="1193.5" y="-320.5" font-family="Helvetica,sans-Serif" font-size="10.00">maliput/math/overlapping</text>
<text text-anchor="middle" x="1257" y="-309.5" font-family="Helvetica,sans-Serif" font-size="10.00">_type.h</text>
</a>
</g>
</g>
<!-- Node34&#45;&gt;Node36 -->
<g id="edge81" class="edge">
<title>Node34&#45;&gt;Node36</title>
<path fill="none" stroke="midnightblue" d="M1297.69,-436.34C1312.96,-428.15 1329.37,-416.21 1338,-400 1344.47,-387.84 1344.69,-381.05 1338,-369 1330.55,-355.58 1317.89,-345.26 1304.76,-337.55"/>
<polygon fill="midnightblue" stroke="midnightblue" points="1306.12,-334.31 1295.66,-332.63 1302.79,-340.46 1306.12,-334.31"/>
</g>
<!-- Node35&#45;&gt;Node12 -->
<g id="edge79" class="edge">
<title>Node35&#45;&gt;Node12</title>
<path fill="none" stroke="midnightblue" d="M1229.15,-369.47C1211.82,-360.95 1191.41,-348.68 1177,-333 1161.74,-316.39 1151.32,-292.73 1145.12,-275.18"/>
<polygon fill="midnightblue" stroke="midnightblue" points="1148.42,-274.03 1141.95,-265.65 1141.78,-276.24 1148.42,-274.03"/>
</g>
<!-- Node35&#45;&gt;Node36 -->
<g id="edge80" class="edge">
<title>Node35&#45;&gt;Node36</title>
<path fill="none" stroke="midnightblue" d="M1261.7,-369.4C1260.97,-361.56 1260.05,-351.6 1259.22,-342.57"/>
<polygon fill="midnightblue" stroke="midnightblue" points="1262.7,-342.21 1258.3,-332.58 1255.73,-342.86 1262.7,-342.21"/>
</g>
<!-- Node37&#45;&gt;Node3 -->
<g id="edge86" class="edge">
<title>Node37&#45;&gt;Node3</title>
<path fill="none" stroke="midnightblue" d="M963.74,-626.1C969.9,-616.33 977.52,-602.88 982,-590 1013.33,-499.84 1000.75,-382.55 994.1,-337.38"/>
<polygon fill="midnightblue" stroke="midnightblue" points="997.53,-336.63 992.54,-327.28 990.61,-337.7 997.53,-336.63"/>
</g>
<!-- Node37&#45;&gt;Node4 -->
<g id="edge88" class="edge">
<title>Node37&#45;&gt;Node4</title>
<path fill="none" stroke="midnightblue" d="M943.8,-626.4C937.77,-618.05 929.98,-607.29 923.13,-597.81"/>
<polygon fill="midnightblue" stroke="midnightblue" points="925.87,-595.63 917.18,-589.58 920.2,-599.73 925.87,-595.63"/>
</g>
<!-- Node37&#45;&gt;Node8 -->
<g id="edge87" class="edge">
<title>Node37&#45;&gt;Node8</title>
<path fill="none" stroke="midnightblue" d="M915.63,-626.49C891.23,-617.12 859.22,-603.99 832,-590 795,-570.98 754.46,-544.51 730.67,-528.35"/>
<polygon fill="midnightblue" stroke="midnightblue" points="732.65,-525.46 722.42,-522.7 728.69,-531.24 732.65,-525.46"/>
</g>
<!-- Node37&#45;&gt;Node12 -->
<g id="edge89" class="edge">
<title>Node37&#45;&gt;Node12</title>
<path fill="none" stroke="midnightblue" d="M1019.78,-629.18C1106.11,-610.79 1256.23,-565.98 1338,-467 1384.7,-410.46 1389.52,-354.19 1338,-302 1321,-284.78 1266.22,-271.67 1218.28,-263.13"/>
<polygon fill="midnightblue" stroke="midnightblue" points="1218.62,-259.63 1208.17,-261.37 1217.42,-266.53 1218.62,-259.63"/>
</g>
</g>
</svg>
