<?xml version="1.0" encoding="UTF-8" standalone="no"?>
<!DOCTYPE svg PUBLIC "-//W3C//DTD SVG 1.1//EN"
 "http://www.w3.org/Graphics/SVG/1.1/DTD/svg11.dtd">
<!-- Generated by graphviz version 2.43.0 (0)
 -->
<!-- Title: LaneBoundary Pages: 1 -->
<svg width="144pt" height="85pt"
 viewBox="0.00 0.00 143.50 84.80" xmlns="http://www.w3.org/2000/svg" xmlns:xlink="http://www.w3.org/1999/xlink">
<g id="graph0" class="graph" transform="scale(1 1) rotate(0) translate(4 80.8)">
<title>LaneBoundary</title>
<polygon fill="white" stroke="transparent" points="-4,4 -4,-80.8 139.5,-80.8 139.5,4 -4,4"/>
<!-- Node1 -->
<g id="node1" class="node">
<title>Node1</title>
<g id="a_node1"><a xlink:title="Represents a boundary between adjacent lanes or at the edge of a Segment.">
<polygon fill="#bfbfbf" stroke="black" points="13.5,-56.5 13.5,-75.5 99.5,-75.5 99.5,-56.5 13.5,-56.5"/>
<text text-anchor="middle" x="56.5" y="-63.5" font-family="Helvetica,sans-Serif" font-size="10.00">LaneBoundary</text>
</a>
</g>
</g>
<!-- Node1&#45;&gt;Node1 -->
<g id="edge1" class="edge">
<title>Node1&#45;&gt;Node1</title>
<path fill="none" stroke="midnightblue" d="M109.75,-70.15C114.51,-69.28 117.5,-67.9 117.5,-66 117.5,-62.96 109.85,-61.25 99.54,-60.84"/>
<polygon fill="midnightblue" stroke="midnightblue" points="109.14,-66.69 99.54,-71.16 109.83,-73.66 109.14,-66.69"/>
</g>
<!-- Node1&#45;&gt;Node1 -->
<g id="edge3" class="edge">
<title>Node1&#45;&gt;Node1</title>
<path fill="none" stroke="midnightblue" d="M100.29,-76.37C119.25,-77.23 135.5,-73.78 135.5,-66 135.5,-56.87 113.09,-53.69 90.19,-56.47"/>
<polygon fill="midnightblue" stroke="midnightblue" points="100.45,-72.87 90.19,-75.53 99.87,-79.85 100.45,-72.87"/>
</g>
<!-- Node2 -->
<g id="node2" class="node">
<title>Node2</title>
<g id="a_node2"><a xlink:href="classmaliput_1_1api_1_1test_1_1_mock_lane_boundary.html" target="_top" xlink:title=" ">
<polygon fill="white" stroke="black" points="0,-0.5 0,-19.5 113,-19.5 113,-0.5 0,-0.5"/>
<text text-anchor="middle" x="56.5" y="-7.5" font-family="Helvetica,sans-Serif" font-size="10.00">MockLaneBoundary</text>
</a>
</g>
</g>
<!-- Node1&#45;&gt;Node2 -->
<g id="edge2" class="edge">
<title>Node1&#45;&gt;Node2</title>
<path fill="none" stroke="midnightblue" d="M56.5,-45.8C56.5,-36.91 56.5,-26.78 56.5,-19.75"/>
<polygon fill="midnightblue" stroke="midnightblue" points="53,-46.08 56.5,-56.08 60,-46.08 53,-46.08"/>
</g>
</g>
</svg>
