<?xml version="1.0" encoding="UTF-8" standalone="no"?>
<!DOCTYPE svg PUBLIC "-//W3C//DTD SVG 1.1//EN"
 "http://www.w3.org/Graphics/SVG/1.1/DTD/svg11.dtd">
<!-- Generated by graphviz version 2.43.0 (0)
 -->
<!-- Title: traffic_light_book_error Pages: 1 -->
<svg width="110pt" height="207pt"
 viewBox="0.00 0.00 110.00 207.00" xmlns="http://www.w3.org/2000/svg" xmlns:xlink="http://www.w3.org/1999/xlink">
<g id="graph0" class="graph" transform="scale(1 1) rotate(0) translate(4 203)">
<title>traffic_light_book_error</title>
<polygon fill="white" stroke="transparent" points="-4,4 -4,-203 106,-203 106,4 -4,4"/>
<!-- Node1 -->
<g id="node1" class="node">
<title>Node1</title>
<g id="a_node1"><a xlink:title="Errors involing the TrafficLightBook.">
<polygon fill="#bfbfbf" stroke="black" points="0,-0.5 0,-30.5 102,-30.5 102,-0.5 0,-0.5"/>
<text text-anchor="start" x="8" y="-18.5" font-family="Helvetica,sans-Serif" font-size="10.00">traffic_light_book</text>
<text text-anchor="middle" x="51" y="-7.5" font-family="Helvetica,sans-Serif" font-size="10.00">_error</text>
</a>
</g>
</g>
<!-- Node2 -->
<g id="node2" class="node">
<title>Node2</title>
<g id="a_node2"><a xlink:href="classmaliput_1_1common_1_1maliput__error.html" target="_top" xlink:title=" ">
<polygon fill="white" stroke="black" points="9.5,-67.5 9.5,-86.5 92.5,-86.5 92.5,-67.5 9.5,-67.5"/>
<text text-anchor="middle" x="51" y="-74.5" font-family="Helvetica,sans-Serif" font-size="10.00">maliput_error</text>
</a>
</g>
</g>
<!-- Node2&#45;&gt;Node1 -->
<g id="edge1" class="edge">
<title>Node2&#45;&gt;Node1</title>
<path fill="none" stroke="midnightblue" d="M51,-57.23C51,-48.59 51,-38.5 51,-30.52"/>
<polygon fill="midnightblue" stroke="midnightblue" points="47.5,-57.48 51,-67.48 54.5,-57.48 47.5,-57.48"/>
</g>
<!-- Node3 -->
<g id="node3" class="node">
<title>Node3</title>
<g id="a_node3"><a xlink:title="STL class.">
<polygon fill="white" stroke="#bfbfbf" points="9.5,-123.5 9.5,-142.5 92.5,-142.5 92.5,-123.5 9.5,-123.5"/>
<text text-anchor="middle" x="51" y="-130.5" font-family="Helvetica,sans-Serif" font-size="10.00">runtime_error</text>
</a>
</g>
</g>
<!-- Node3&#45;&gt;Node2 -->
<g id="edge2" class="edge">
<title>Node3&#45;&gt;Node2</title>
<path fill="none" stroke="midnightblue" d="M51,-112.8C51,-103.91 51,-93.78 51,-86.75"/>
<polygon fill="midnightblue" stroke="midnightblue" points="47.5,-113.08 51,-123.08 54.5,-113.08 47.5,-113.08"/>
</g>
<!-- Node4 -->
<g id="node4" class="node">
<title>Node4</title>
<g id="a_node4"><a xlink:title="STL class.">
<polygon fill="white" stroke="#bfbfbf" points="18.5,-179.5 18.5,-198.5 83.5,-198.5 83.5,-179.5 18.5,-179.5"/>
<text text-anchor="middle" x="51" y="-186.5" font-family="Helvetica,sans-Serif" font-size="10.00">exception</text>
</a>
</g>
</g>
<!-- Node4&#45;&gt;Node3 -->
<g id="edge3" class="edge">
<title>Node4&#45;&gt;Node3</title>
<path fill="none" stroke="midnightblue" d="M51,-168.8C51,-159.91 51,-149.78 51,-142.75"/>
<polygon fill="midnightblue" stroke="midnightblue" points="47.5,-169.08 51,-179.08 54.5,-169.08 47.5,-169.08"/>
</g>
</g>
</svg>
