<?xml version="1.0" encoding="UTF-8" standalone="no"?>
<!DOCTYPE svg PUBLIC "-//W3C//DTD SVG 1.1//EN"
 "http://www.w3.org/Graphics/SVG/1.1/DTD/svg11.dtd">
<!-- Generated by graphviz version 2.43.0 (0)
 -->
<!-- Title: api Pages: 1 -->
<svg width="132pt" height="303pt"
 viewBox="0.00 0.00 132.00 303.00" xmlns="http://www.w3.org/2000/svg" xmlns:xlink="http://www.w3.org/1999/xlink">
<g id="graph0" class="graph" transform="scale(1 1) rotate(0) translate(4 299)">
<title>api</title>
<polygon fill="white" stroke="transparent" points="-4,4 -4,-299 128,-299 128,4 -4,4"/>
<g id="clust1" class="cluster">
<title>clusterdir_3a9e9a7cbac7463b19223206dfc8a5c3</title>
<g id="a_clust1"><a xlink:href="dir_3a9e9a7cbac7463b19223206dfc8a5c3.html" target="_top" xlink:title="maliput">
<polygon fill="#ddddee" stroke="black" points="30,-128 30,-287 116,-287 116,-128 30,-128"/>
<text text-anchor="middle" x="73" y="-275" font-family="Helvetica,sans-Serif" font-size="10.00">maliput</text>
</a>
</g>
</g>
<g id="clust2" class="cluster">
<title>clusterdir_136b70ad760cd231f6f635bc47cd70fb</title>
<g id="a_clust2"><a xlink:href="dir_136b70ad760cd231f6f635bc47cd70fb.html" target="_top">
<polygon fill="#eeeeff" stroke="black" points="38,-136 38,-260 108,-260 108,-136 38,-136"/>
</a>
</g>
</g>
<!-- dir_136b70ad760cd231f6f635bc47cd70fb -->
<g id="node1" class="node">
<title>dir_136b70ad760cd231f6f635bc47cd70fb</title>
<text text-anchor="middle" x="73" y="-231.5" font-family="Helvetica,sans-Serif" font-size="10.00">api</text>
</g>
<!-- dir_e3b177e49ccecf0fe1238be976e9dba0 -->
<g id="node2" class="node">
<title>dir_e3b177e49ccecf0fe1238be976e9dba0</title>
<g id="a_node2"><a xlink:href="dir_e3b177e49ccecf0fe1238be976e9dba0.html" target="_top" xlink:title="rules">
<polygon fill="white" stroke="black" points="100,-180 46,-180 46,-144 100,-144 100,-180"/>
<text text-anchor="middle" x="73" y="-159.5" font-family="Helvetica,sans-Serif" font-size="10.00">rules</text>
</a>
</g>
</g>
<!-- dir_136b70ad760cd231f6f635bc47cd70fb&#45;&gt;dir_e3b177e49ccecf0fe1238be976e9dba0 -->
<g id="edge4" class="edge">
<title>dir_136b70ad760cd231f6f635bc47cd70fb&#45;&gt;dir_e3b177e49ccecf0fe1238be976e9dba0</title>
<path fill="none" stroke="black" d="M73,-215.7C73,-207.98 73,-198.71 73,-190.11"/>
<polygon fill="black" stroke="black" points="76.5,-190.1 73,-180.1 69.5,-190.1 76.5,-190.1"/>
<g id="a_edge4&#45;headlabel"><a xlink:href="dir_000016_000022.html" target="_top" xlink:title="14">
<text text-anchor="middle" x="79.34" y="-191.2" font-family="Helvetica,sans-Serif" font-size="10.00">14</text>
</a>
</g>
</g>
<!-- dir_e37e446e438ba0eaa2502dac691157d1 -->
<g id="node3" class="node">
<title>dir_e37e446e438ba0eaa2502dac691157d1</title>
<g id="a_node3"><a xlink:href="dir_e37e446e438ba0eaa2502dac691157d1.html" target="_top" xlink:title="math">
<polygon fill="none" stroke="black" points="54,-108 0,-108 0,-72 54,-72 54,-108"/>
<text text-anchor="middle" x="27" y="-87.5" font-family="Helvetica,sans-Serif" font-size="10.00">math</text>
</a>
</g>
</g>
<!-- dir_136b70ad760cd231f6f635bc47cd70fb&#45;&gt;dir_e37e446e438ba0eaa2502dac691157d1 -->
<g id="edge5" class="edge">
<title>dir_136b70ad760cd231f6f635bc47cd70fb&#45;&gt;dir_e37e446e438ba0eaa2502dac691157d1</title>
<path fill="none" stroke="black" d="M57.97,-215.58C50.38,-205.78 41.78,-192.94 37,-180 29.68,-160.22 27.31,-136.42 26.7,-118.41"/>
<polygon fill="black" stroke="black" points="30.2,-118.23 26.52,-108.29 23.2,-118.35 30.2,-118.23"/>
<g id="a_edge5&#45;headlabel"><a xlink:href="dir_000016_000014.html" target="_top" xlink:title="6">
<text text-anchor="middle" x="33.1" y="-119.27" font-family="Helvetica,sans-Serif" font-size="10.00">6</text>
</a>
</g>
</g>
<!-- dir_65831712c373917dbbb63459633e48fd -->
<g id="node4" class="node">
<title>dir_65831712c373917dbbb63459633e48fd</title>
<g id="a_node4"><a xlink:href="dir_65831712c373917dbbb63459633e48fd.html" target="_top" xlink:title="common">
<polygon fill="none" stroke="black" points="111.5,-36 52.5,-36 52.5,0 111.5,0 111.5,-36"/>
<text text-anchor="middle" x="82" y="-15.5" font-family="Helvetica,sans-Serif" font-size="10.00">common</text>
</a>
</g>
</g>
<!-- dir_136b70ad760cd231f6f635bc47cd70fb&#45;&gt;dir_65831712c373917dbbb63459633e48fd -->
<g id="edge6" class="edge">
<title>dir_136b70ad760cd231f6f635bc47cd70fb&#45;&gt;dir_65831712c373917dbbb63459633e48fd</title>
<path fill="none" stroke="black" d="M88.61,-215.77C96.37,-206.03 104.95,-193.18 109,-180 123.13,-134.04 106.68,-78.3 93.97,-45.91"/>
<polygon fill="black" stroke="black" points="97.05,-44.19 90.02,-36.26 90.57,-46.84 97.05,-44.19"/>
<g id="a_edge6&#45;headlabel"><a xlink:href="dir_000016_000012.html" target="_top" xlink:title="53">
<text text-anchor="middle" x="101.04" y="-43.94" font-family="Helvetica,sans-Serif" font-size="10.00">53</text>
</a>
</g>
</g>
<!-- dir_e3b177e49ccecf0fe1238be976e9dba0&#45;&gt;dir_e37e446e438ba0eaa2502dac691157d1 -->
<g id="edge1" class="edge">
<title>dir_e3b177e49ccecf0fe1238be976e9dba0&#45;&gt;dir_e37e446e438ba0eaa2502dac691157d1</title>
<path fill="none" stroke="black" d="M61.63,-143.7C56.28,-135.56 49.8,-125.69 43.89,-116.7"/>
<polygon fill="black" stroke="black" points="46.66,-114.54 38.24,-108.1 40.81,-118.38 46.66,-114.54"/>
<g id="a_edge1&#45;headlabel"><a xlink:href="dir_000022_000014.html" target="_top" xlink:title="1">
<text text-anchor="middle" x="51" y="-113.48" font-family="Helvetica,sans-Serif" font-size="10.00">1</text>
</a>
</g>
</g>
<!-- dir_e3b177e49ccecf0fe1238be976e9dba0&#45;&gt;dir_65831712c373917dbbb63459633e48fd -->
<g id="edge2" class="edge">
<title>dir_e3b177e49ccecf0fe1238be976e9dba0&#45;&gt;dir_65831712c373917dbbb63459633e48fd</title>
<path fill="none" stroke="black" d="M74.09,-143.87C75.62,-119.67 78.44,-75.21 80.26,-46.39"/>
<polygon fill="black" stroke="black" points="83.77,-46.39 80.91,-36.19 76.78,-45.95 83.77,-46.39"/>
<g id="a_edge2&#45;headlabel"><a xlink:href="dir_000022_000012.html" target="_top" xlink:title="30">
<text text-anchor="middle" x="86.38" y="-47.66" font-family="Helvetica,sans-Serif" font-size="10.00">30</text>
</a>
</g>
</g>
<!-- dir_e37e446e438ba0eaa2502dac691157d1&#45;&gt;dir_65831712c373917dbbb63459633e48fd -->
<g id="edge3" class="edge">
<title>dir_e37e446e438ba0eaa2502dac691157d1&#45;&gt;dir_65831712c373917dbbb63459633e48fd</title>
<path fill="none" stroke="black" d="M40.6,-71.7C47.12,-63.39 55.07,-53.28 62.25,-44.14"/>
<polygon fill="black" stroke="black" points="65.13,-46.13 68.56,-36.1 59.63,-41.81 65.13,-46.13"/>
<g id="a_edge3&#45;headlabel"><a xlink:href="dir_000014_000012.html" target="_top" xlink:title="10">
<text text-anchor="middle" x="65.15" y="-48.21" font-family="Helvetica,sans-Serif" font-size="10.00">10</text>
</a>
</g>
</g>
</g>
</svg>
