<?xml version="1.0" encoding="UTF-8" standalone="no"?>
<!DOCTYPE svg PUBLIC "-//W3C//DTD SVG 1.1//EN"
 "http://www.w3.org/Graphics/SVG/1.1/DTD/svg11.dtd">
<!-- Generated by graphviz version 2.43.0 (0)
 -->
<!-- Title: direction_usage_rule.cc Pages: 1 -->
<!--zoomable 710 -->
<svg id="main" version="1.1" xmlns="http://www.w3.org/2000/svg" xmlns:xlink="http://www.w3.org/1999/xlink" xml:space="preserve" onload="init(evt)">
<style type="text/css"><![CDATA[
.edge:hover path { stroke: red; }
.edge:hover polygon { stroke: red; fill: red; }
]]></style>
<script type="text/javascript"><![CDATA[
var edges = document.getElementsByTagName('g');
if (edges && edges.length) {
  for (var i=0;i<edges.length;i++) {
    if (edges[i].id.substr(0,4)=='edge') {
      edges[i].setAttribute('class','edge');
    }
  }
}
]]></script>
        <defs>
                <circle id="rim" cx="0" cy="0" r="7"/>
                <circle id="rim2" cx="0" cy="0" r="3.5"/>
                <g id="zoomPlus">
                        <use xlink:href="#rim" fill="#404040">
                                <set attributeName="fill" to="#808080" begin="zoomplus.mouseover" end="zoomplus.mouseout"/>
                        </use>
                        <path d="M-4,0h8M0,-4v8" fill="none" stroke="white" stroke-width="1.5" pointer-events="none"/>
                </g>
                <g id="zoomMin">
                        <use xlink:href="#rim" fill="#404040">
                                <set attributeName="fill" to="#808080" begin="zoomminus.mouseover" end="zoomminus.mouseout"/>
                        </use>
                        <path d="M-4,0h8" fill="none" stroke="white" stroke-width="1.5" pointer-events="none"/>
                </g>
                <g id="dirArrow">
                        <path fill="none" stroke="white" stroke-width="1.5" d="M0,-3.0v7 M-2.5,-0.5L0,-3.0L2.5,-0.5"/>
                </g>
               <g id="resetDef">
                       <use xlink:href="#rim2" fill="#404040">
                               <set attributeName="fill" to="#808080" begin="reset.mouseover" end="reset.mouseout"/>
                       </use>
               </g>
        </defs>

<script type="text/javascript">
var viewWidth = 1897;
var viewHeight = 710;
var sectionId = 'dynsection-0';
</script>
<script xlink:href="svgpan.js"/>
<svg id="graph" class="graph">
<g id="viewport">
<title>direction_usage_rule.cc</title>
<polygon fill="white" stroke="transparent" points="-4,4 -4,-706 1892.5,-706 1892.5,4 -4,4"/>
<!-- Node1 -->
<g id="node1" class="node">
<title>Node1</title>
<g id="a_node1"><a xlink:title=" ">
<polygon fill="#bfbfbf" stroke="black" points="476,-682.5 476,-701.5 607,-701.5 607,-682.5 476,-682.5"/>
<text text-anchor="middle" x="541.5" y="-689.5" font-family="Helvetica,sans-Serif" font-size="10.00">direction_usage_rule.cc</text>
</a>
</g>
</g>
<!-- Node2 -->
<g id="node2" class="node">
<title>Node2</title>
<g id="a_node2"><a xlink:href="direction__usage__rule_8h.html" target="_top" xlink:title=" ">
<polygon fill="white" stroke="black" points="469,-615.5 469,-645.5 614,-645.5 614,-615.5 469,-615.5"/>
<text text-anchor="start" x="477" y="-633.5" font-family="Helvetica,sans-Serif" font-size="10.00">maliput/api/rules/direction</text>
<text text-anchor="middle" x="541.5" y="-622.5" font-family="Helvetica,sans-Serif" font-size="10.00">_usage_rule.h</text>
</a>
</g>
</g>
<!-- Node1&#45;&gt;Node2 -->
<g id="edge1" class="edge">
<title>Node1&#45;&gt;Node2</title>
<path fill="none" stroke="midnightblue" d="M541.5,-682.48C541.5,-675.47 541.5,-665.19 541.5,-655.7"/>
<polygon fill="midnightblue" stroke="midnightblue" points="545,-655.52 541.5,-645.52 538,-655.52 545,-655.52"/>
</g>
<!-- Node3 -->
<g id="node3" class="node">
<title>Node3</title>
<g id="a_node3"><a xlink:title=" ">
<polygon fill="white" stroke="#bfbfbf" points="0,-554 0,-573 93,-573 93,-554 0,-554"/>
<text text-anchor="middle" x="46.5" y="-561" font-family="Helvetica,sans-Serif" font-size="10.00">unordered_map</text>
</a>
</g>
</g>
<!-- Node2&#45;&gt;Node3 -->
<g id="edge2" class="edge">
<title>Node2&#45;&gt;Node3</title>
<path fill="none" stroke="midnightblue" d="M468.94,-623.68C382.45,-616.15 233.75,-601.27 107.5,-579 101.59,-577.96 95.4,-576.69 89.33,-575.35"/>
<polygon fill="midnightblue" stroke="midnightblue" points="89.81,-571.87 79.28,-573.04 88.24,-578.69 89.81,-571.87"/>
</g>
<!-- Node4 -->
<g id="node4" class="node">
<title>Node4</title>
<g id="a_node4"><a xlink:title=" ">
<polygon fill="white" stroke="#bfbfbf" points="160,-302.5 160,-321.5 207,-321.5 207,-302.5 160,-302.5"/>
<text text-anchor="middle" x="183.5" y="-309.5" font-family="Helvetica,sans-Serif" font-size="10.00">vector</text>
</a>
</g>
</g>
<!-- Node2&#45;&gt;Node4 -->
<g id="edge3" class="edge">
<title>Node2&#45;&gt;Node4</title>
<path fill="none" stroke="midnightblue" d="M468.75,-620.49C357.92,-604.71 159.5,-567.45 159.5,-503 159.5,-503 159.5,-503 159.5,-439.5 159.5,-400.54 170.63,-355.99 177.73,-331.52"/>
<polygon fill="midnightblue" stroke="midnightblue" points="181.13,-332.37 180.65,-321.79 174.42,-330.36 181.13,-332.37"/>
</g>
<!-- Node5 -->
<g id="node5" class="node">
<title>Node5</title>
<g id="a_node5"><a xlink:href="regions_8h.html" target="_top" xlink:title=" ">
<polygon fill="white" stroke="black" points="481.5,-554 481.5,-573 601.5,-573 601.5,-554 481.5,-554"/>
<text text-anchor="middle" x="541.5" y="-561" font-family="Helvetica,sans-Serif" font-size="10.00">maliput/api/regions.h</text>
</a>
</g>
</g>
<!-- Node2&#45;&gt;Node5 -->
<g id="edge4" class="edge">
<title>Node2&#45;&gt;Node5</title>
<path fill="none" stroke="midnightblue" d="M541.5,-615.4C541.5,-606.06 541.5,-593.71 541.5,-583.52"/>
<polygon fill="midnightblue" stroke="midnightblue" points="545,-583.19 541.5,-573.19 538,-583.19 545,-583.19"/>
</g>
<!-- Node15 -->
<g id="node15" class="node">
<title>Node15</title>
<g id="a_node15"><a xlink:href="maliput__copyable_8h.html" target="_top" xlink:title=" ">
<polygon fill="white" stroke="black" points="1563.5,-235.5 1563.5,-265.5 1703.5,-265.5 1703.5,-235.5 1563.5,-235.5"/>
<text text-anchor="start" x="1571.5" y="-253.5" font-family="Helvetica,sans-Serif" font-size="10.00">maliput/common/maliput</text>
<text text-anchor="middle" x="1633.5" y="-242.5" font-family="Helvetica,sans-Serif" font-size="10.00">_copyable.h</text>
</a>
</g>
</g>
<!-- Node2&#45;&gt;Node15 -->
<g id="edge74" class="edge">
<title>Node2&#45;&gt;Node15</title>
<path fill="none" stroke="midnightblue" d="M614.36,-629.37C871.41,-627.95 1720.5,-614.81 1720.5,-503 1720.5,-503 1720.5,-503 1720.5,-372.5 1720.5,-330.94 1686.25,-293.9 1660.73,-272.07"/>
<polygon fill="midnightblue" stroke="midnightblue" points="1662.75,-269.19 1652.81,-265.53 1658.29,-274.59 1662.75,-269.19"/>
</g>
<!-- Node16 -->
<g id="node16" class="node">
<title>Node16</title>
<g id="a_node16"><a xlink:href="maliput__throw_8h.html" target="_top" xlink:title=" ">
<polygon fill="white" stroke="black" points="372.5,-112.5 372.5,-142.5 512.5,-142.5 512.5,-112.5 372.5,-112.5"/>
<text text-anchor="start" x="380.5" y="-130.5" font-family="Helvetica,sans-Serif" font-size="10.00">maliput/common/maliput</text>
<text text-anchor="middle" x="442.5" y="-119.5" font-family="Helvetica,sans-Serif" font-size="10.00">_throw.h</text>
</a>
</g>
</g>
<!-- Node2&#45;&gt;Node16 -->
<g id="edge76" class="edge">
<title>Node2&#45;&gt;Node16</title>
<path fill="none" stroke="midnightblue" d="M468.83,-624.39C381.8,-617.33 241.94,-602.69 195.5,-579 153.51,-557.57 121.5,-550.14 121.5,-503 121.5,-503 121.5,-503 121.5,-439.5 121.5,-377.04 114.15,-352.79 150.5,-302 209.3,-219.85 320.18,-169.95 387.09,-145.93"/>
<polygon fill="midnightblue" stroke="midnightblue" points="388.37,-149.19 396.64,-142.57 386.04,-142.59 388.37,-149.19"/>
</g>
<!-- Node29 -->
<g id="node29" class="node">
<title>Node29</title>
<g id="a_node29"><a xlink:href="type__specific__identifier_8h.html" target="_top" xlink:title=" ">
<polygon fill="white" stroke="black" points="856.5,-425.5 856.5,-455.5 996.5,-455.5 996.5,-425.5 856.5,-425.5"/>
<text text-anchor="start" x="864.5" y="-443.5" font-family="Helvetica,sans-Serif" font-size="10.00">maliput/api/type_specific</text>
<text text-anchor="middle" x="926.5" y="-432.5" font-family="Helvetica,sans-Serif" font-size="10.00">_identifier.h</text>
</a>
</g>
</g>
<!-- Node2&#45;&gt;Node29 -->
<g id="edge73" class="edge">
<title>Node2&#45;&gt;Node29</title>
<path fill="none" stroke="midnightblue" d="M614.28,-616.52C685.69,-601.02 795,-569.61 873.5,-512 890.57,-499.47 904.67,-479.9 914.02,-464.56"/>
<polygon fill="midnightblue" stroke="midnightblue" points="917.2,-466.05 919.21,-455.65 911.15,-462.53 917.2,-466.05"/>
</g>
<!-- Node36 -->
<g id="node36" class="node">
<title>Node36</title>
<g id="a_node36"><a xlink:href="maliput__deprecated_8h.html" target="_top" xlink:title=" ">
<polygon fill="white" stroke="black" points="1748.5,-548.5 1748.5,-578.5 1888.5,-578.5 1888.5,-548.5 1748.5,-548.5"/>
<text text-anchor="start" x="1756.5" y="-566.5" font-family="Helvetica,sans-Serif" font-size="10.00">maliput/common/maliput</text>
<text text-anchor="middle" x="1818.5" y="-555.5" font-family="Helvetica,sans-Serif" font-size="10.00">_deprecated.h</text>
</a>
</g>
</g>
<!-- Node2&#45;&gt;Node36 -->
<g id="edge75" class="edge">
<title>Node2&#45;&gt;Node36</title>
<path fill="none" stroke="midnightblue" d="M614.03,-629.67C800.5,-629.41 1311.68,-624.25 1734.5,-579 1735.78,-578.86 1737.08,-578.72 1738.38,-578.57"/>
<polygon fill="midnightblue" stroke="midnightblue" points="1738.99,-582.02 1748.47,-577.28 1738.11,-575.07 1738.99,-582.02"/>
</g>
<!-- Node5&#45;&gt;Node4 -->
<g id="edge8" class="edge">
<title>Node5&#45;&gt;Node4</title>
<path fill="none" stroke="midnightblue" d="M481.19,-561.02C398.91,-557.69 257.56,-546.92 221.5,-512 171.6,-463.68 176.08,-371.47 180.73,-331.85"/>
<polygon fill="midnightblue" stroke="midnightblue" points="184.22,-332.12 182.06,-321.75 177.28,-331.21 184.22,-332.12"/>
</g>
<!-- Node6 -->
<g id="node6" class="node">
<title>Node6</title>
<g id="a_node6"><a xlink:title=" ">
<polygon fill="white" stroke="#bfbfbf" points="762,-241 762,-260 809,-260 809,-241 762,-241"/>
<text text-anchor="middle" x="785.5" y="-248" font-family="Helvetica,sans-Serif" font-size="10.00">cmath</text>
</a>
</g>
</g>
<!-- Node5&#45;&gt;Node6 -->
<g id="edge5" class="edge">
<title>Node5&#45;&gt;Node6</title>
<path fill="none" stroke="midnightblue" d="M494.02,-553.94C408.07,-537.09 235.5,-496.41 235.5,-441.5 235.5,-441.5 235.5,-441.5 235.5,-372.5 235.5,-340.05 229.7,-322.94 254.5,-302 292.5,-269.91 640.72,-256.11 751.69,-252.51"/>
<polygon fill="midnightblue" stroke="midnightblue" points="752.08,-256 761.97,-252.18 751.86,-249 752.08,-256"/>
</g>
<!-- Node7 -->
<g id="node7" class="node">
<title>Node7</title>
<g id="a_node7"><a xlink:title=" ">
<polygon fill="white" stroke="#bfbfbf" points="569.5,-492.5 569.5,-511.5 625.5,-511.5 625.5,-492.5 569.5,-492.5"/>
<text text-anchor="middle" x="597.5" y="-499.5" font-family="Helvetica,sans-Serif" font-size="10.00">numeric</text>
</a>
</g>
</g>
<!-- Node5&#45;&gt;Node7 -->
<g id="edge6" class="edge">
<title>Node5&#45;&gt;Node7</title>
<path fill="none" stroke="midnightblue" d="M549.52,-553.98C558.09,-544.87 571.86,-530.24 582.46,-518.98"/>
<polygon fill="midnightblue" stroke="midnightblue" points="585.19,-521.19 589.49,-511.51 580.09,-516.39 585.19,-521.19"/>
</g>
<!-- Node8 -->
<g id="node8" class="node">
<title>Node8</title>
<g id="a_node8"><a xlink:title=" ">
<polygon fill="white" stroke="#bfbfbf" points="263.5,-302.5 263.5,-321.5 319.5,-321.5 319.5,-302.5 263.5,-302.5"/>
<text text-anchor="middle" x="291.5" y="-309.5" font-family="Helvetica,sans-Serif" font-size="10.00">optional</text>
</a>
</g>
</g>
<!-- Node5&#45;&gt;Node8 -->
<g id="edge7" class="edge">
<title>Node5&#45;&gt;Node8</title>
<path fill="none" stroke="midnightblue" d="M495.69,-553.9C442.63,-541.53 356.27,-513.54 307.5,-456 277.57,-420.68 282.59,-361.56 287.64,-331.6"/>
<polygon fill="midnightblue" stroke="midnightblue" points="291.1,-332.14 289.51,-321.66 284.22,-330.85 291.1,-332.14"/>
</g>
<!-- Node9 -->
<g id="node9" class="node">
<title>Node9</title>
<g id="a_node9"><a xlink:href="api_2lane_8h.html" target="_top" xlink:title=" ">
<polygon fill="white" stroke="black" points="759,-492.5 759,-511.5 864,-511.5 864,-492.5 759,-492.5"/>
<text text-anchor="middle" x="811.5" y="-499.5" font-family="Helvetica,sans-Serif" font-size="10.00">maliput/api/lane.h</text>
</a>
</g>
</g>
<!-- Node5&#45;&gt;Node9 -->
<g id="edge9" class="edge">
<title>Node5&#45;&gt;Node9</title>
<path fill="none" stroke="midnightblue" d="M580.18,-553.98C628.3,-543.37 710.49,-525.26 762.83,-513.72"/>
<polygon fill="midnightblue" stroke="midnightblue" points="763.87,-517.08 772.89,-511.51 762.37,-510.24 763.87,-517.08"/>
</g>
<!-- Node5&#45;&gt;Node15 -->
<g id="edge72" class="edge">
<title>Node5&#45;&gt;Node15</title>
<path fill="none" stroke="midnightblue" d="M601.66,-561.41C824.19,-556.77 1591.54,-535.11 1663.5,-456 1709.64,-405.27 1670.17,-316.31 1647.2,-274.48"/>
<polygon fill="midnightblue" stroke="midnightblue" points="1650.15,-272.58 1642.18,-265.6 1644.05,-276.03 1650.15,-272.58"/>
</g>
<!-- Node5&#45;&gt;Node29 -->
<g id="edge71" class="edge">
<title>Node5&#45;&gt;Node29</title>
<path fill="none" stroke="midnightblue" d="M541.02,-553.55C540.75,-538.39 542.62,-507.76 560.5,-492 601.71,-455.69 751.58,-445.36 846.29,-442.5"/>
<polygon fill="midnightblue" stroke="midnightblue" points="846.51,-446 856.41,-442.22 846.32,-439 846.51,-446"/>
</g>
<!-- Node9&#45;&gt;Node8 -->
<g id="edge11" class="edge">
<title>Node9&#45;&gt;Node8</title>
<path fill="none" stroke="midnightblue" d="M758.62,-497.57C638.01,-489.55 351.73,-469.22 335.5,-456 297.82,-425.33 291.71,-363.15 291.16,-331.87"/>
<polygon fill="midnightblue" stroke="midnightblue" points="294.66,-331.86 291.15,-321.86 287.66,-331.86 294.66,-331.86"/>
</g>
<!-- Node10 -->
<g id="node10" class="node">
<title>Node10</title>
<g id="a_node10"><a xlink:title=" ">
<polygon fill="white" stroke="#bfbfbf" points="1596.5,-431 1596.5,-450 1654.5,-450 1654.5,-431 1596.5,-431"/>
<text text-anchor="middle" x="1625.5" y="-438" font-family="Helvetica,sans-Serif" font-size="10.00">memory</text>
</a>
</g>
</g>
<!-- Node9&#45;&gt;Node10 -->
<g id="edge10" class="edge">
<title>Node9&#45;&gt;Node10</title>
<path fill="none" stroke="midnightblue" d="M864.12,-499.76C1014.53,-495.91 1444.38,-482.82 1582.5,-456 1586.39,-455.24 1590.41,-454.23 1594.37,-453.08"/>
<polygon fill="midnightblue" stroke="midnightblue" points="1595.47,-456.4 1603.93,-450.03 1593.34,-449.73 1595.47,-456.4"/>
</g>
<!-- Node11 -->
<g id="node11" class="node">
<title>Node11</title>
<g id="a_node11"><a xlink:title=" ">
<polygon fill="white" stroke="#bfbfbf" points="618.5,-0.5 618.5,-19.5 662.5,-19.5 662.5,-0.5 618.5,-0.5"/>
<text text-anchor="middle" x="640.5" y="-7.5" font-family="Helvetica,sans-Serif" font-size="10.00">string</text>
</a>
</g>
</g>
<!-- Node9&#45;&gt;Node11 -->
<g id="edge12" class="edge">
<title>Node9&#45;&gt;Node11</title>
<path fill="none" stroke="midnightblue" d="M758.82,-496.89C709.48,-491.7 634.43,-480.31 573.5,-456 418.79,-394.28 309.5,-356.56 309.5,-190 309.5,-190 309.5,-190 309.5,-126.5 309.5,-8.96 574.38,-24.49 597.5,-20 600.97,-19.33 604.6,-18.6 608.21,-17.86"/>
<polygon fill="midnightblue" stroke="midnightblue" points="609.12,-21.25 618.21,-15.79 607.71,-14.39 609.12,-21.25"/>
</g>
<!-- Node12 -->
<g id="node12" class="node">
<title>Node12</title>
<g id="a_node12"><a xlink:href="lane__data_8h.html" target="_top" xlink:title=" ">
<polygon fill="white" stroke="black" points="1155.5,-431 1155.5,-450 1287.5,-450 1287.5,-431 1155.5,-431"/>
<text text-anchor="middle" x="1221.5" y="-438" font-family="Helvetica,sans-Serif" font-size="10.00">maliput/api/lane_data.h</text>
</a>
</g>
</g>
<!-- Node9&#45;&gt;Node12 -->
<g id="edge13" class="edge">
<title>Node9&#45;&gt;Node12</title>
<path fill="none" stroke="midnightblue" d="M864.26,-493.34C937.79,-482.67 1071.17,-463.32 1152.51,-451.51"/>
<polygon fill="midnightblue" stroke="midnightblue" points="1153.26,-454.94 1162.65,-450.04 1152.25,-448.01 1153.26,-454.94"/>
</g>
<!-- Node9&#45;&gt;Node15 -->
<g id="edge69" class="edge">
<title>Node9&#45;&gt;Node15</title>
<path fill="none" stroke="midnightblue" d="M864.17,-499.24C1017.61,-493.21 1460.81,-469.11 1577.5,-389 1607.28,-368.56 1610.4,-355.66 1623.5,-322 1629.2,-307.37 1631.7,-289.89 1632.78,-276.01"/>
<polygon fill="midnightblue" stroke="midnightblue" points="1636.29,-275.94 1633.37,-265.76 1629.3,-275.54 1636.29,-275.94"/>
</g>
<!-- Node9&#45;&gt;Node16 -->
<g id="edge70" class="edge">
<title>Node9&#45;&gt;Node16</title>
<path fill="none" stroke="midnightblue" d="M772.54,-492.47C712.81,-478.11 596.71,-445.05 512.5,-389 457.6,-352.46 441.24,-330.9 429.5,-266 422.62,-227.95 423.29,-217.32 428.5,-179 429.69,-170.25 431.99,-160.88 434.39,-152.62"/>
<polygon fill="midnightblue" stroke="midnightblue" points="437.79,-153.46 437.4,-142.87 431.1,-151.39 437.79,-153.46"/>
</g>
<!-- Node9&#45;&gt;Node29 -->
<g id="edge49" class="edge">
<title>Node9&#45;&gt;Node29</title>
<path fill="none" stroke="midnightblue" d="M827.98,-492.48C844.21,-484.08 869.54,-470.97 890.45,-460.15"/>
<polygon fill="midnightblue" stroke="midnightblue" points="892.12,-463.23 899.4,-455.52 888.91,-457.01 892.12,-463.23"/>
</g>
<!-- Node12&#45;&gt;Node11 -->
<g id="edge16" class="edge">
<title>Node12&#45;&gt;Node11</title>
<path fill="none" stroke="midnightblue" d="M1214.25,-430.76C1193.7,-405.04 1136.5,-326.72 1136.5,-251.5 1136.5,-251.5 1136.5,-251.5 1136.5,-126.5 1136.5,-30.99 783.21,-14.43 672.96,-11.58"/>
<polygon fill="midnightblue" stroke="midnightblue" points="672.86,-8.08 662.78,-11.34 672.69,-15.08 672.86,-8.08"/>
</g>
<!-- Node13 -->
<g id="node13" class="node">
<title>Node13</title>
<g id="a_node13"><a xlink:title=" ">
<polygon fill="white" stroke="#bfbfbf" points="967,-302.5 967,-321.5 1032,-321.5 1032,-302.5 967,-302.5"/>
<text text-anchor="middle" x="999.5" y="-309.5" font-family="Helvetica,sans-Serif" font-size="10.00">functional</text>
</a>
</g>
</g>
<!-- Node12&#45;&gt;Node13 -->
<g id="edge14" class="edge">
<title>Node12&#45;&gt;Node13</title>
<path fill="none" stroke="midnightblue" d="M1155.38,-434.91C1117.01,-429.21 1069.82,-416.62 1036.5,-389 1018.71,-374.25 1008.8,-348.88 1003.81,-331.54"/>
<polygon fill="midnightblue" stroke="midnightblue" points="1007.11,-330.31 1001.21,-321.5 1000.33,-332.06 1007.11,-330.31"/>
</g>
<!-- Node14 -->
<g id="node14" class="node">
<title>Node14</title>
<g id="a_node14"><a xlink:title=" ">
<polygon fill="white" stroke="#bfbfbf" points="1216,-241 1216,-260 1273,-260 1273,-241 1216,-241"/>
<text text-anchor="middle" x="1244.5" y="-248" font-family="Helvetica,sans-Serif" font-size="10.00">ostream</text>
</a>
</g>
</g>
<!-- Node12&#45;&gt;Node14 -->
<g id="edge15" class="edge">
<title>Node12&#45;&gt;Node14</title>
<path fill="none" stroke="midnightblue" d="M1221.73,-430.76C1222.42,-408.92 1224.88,-350.26 1232.5,-302 1234.18,-291.38 1236.9,-279.69 1239.32,-270.23"/>
<polygon fill="midnightblue" stroke="midnightblue" points="1242.76,-270.92 1241.96,-260.36 1236,-269.12 1242.76,-270.92"/>
</g>
<!-- Node12&#45;&gt;Node15 -->
<g id="edge17" class="edge">
<title>Node12&#45;&gt;Node15</title>
<path fill="none" stroke="midnightblue" d="M1287.83,-435.77C1370.75,-430.01 1506.84,-416.6 1548.5,-389 1589.7,-361.7 1614.44,-306.9 1625.87,-275.35"/>
<polygon fill="midnightblue" stroke="midnightblue" points="1629.27,-276.21 1629.24,-265.61 1622.66,-273.92 1629.27,-276.21"/>
</g>
<!-- Node12&#45;&gt;Node16 -->
<g id="edge18" class="edge">
<title>Node12&#45;&gt;Node16</title>
<path fill="none" stroke="midnightblue" d="M1209.04,-430.95C1194.74,-421.06 1170.67,-404.21 1150.5,-389 1101,-351.69 1096.4,-330.77 1041.5,-302 868.42,-211.29 641.65,-162.24 522.92,-141.2"/>
<polygon fill="midnightblue" stroke="midnightblue" points="523.28,-137.71 512.82,-139.43 522.07,-144.61 523.28,-137.71"/>
</g>
<!-- Node20 -->
<g id="node20" class="node">
<title>Node20</title>
<g id="a_node20"><a xlink:href="matrix_8h.html" target="_top" xlink:title=" ">
<polygon fill="white" stroke="black" points="1418,-241 1418,-260 1545,-260 1545,-241 1418,-241"/>
<text text-anchor="middle" x="1481.5" y="-248" font-family="Helvetica,sans-Serif" font-size="10.00">maliput/math/matrix.h</text>
</a>
</g>
</g>
<!-- Node12&#45;&gt;Node20 -->
<g id="edge24" class="edge">
<title>Node12&#45;&gt;Node20</title>
<path fill="none" stroke="midnightblue" d="M1287.71,-438.3C1368.79,-435.26 1499.11,-424.78 1529.5,-389 1560.21,-352.85 1520.14,-295.85 1496.53,-267.96"/>
<polygon fill="midnightblue" stroke="midnightblue" points="1499.04,-265.52 1489.83,-260.3 1493.77,-270.13 1499.04,-265.52"/>
</g>
<!-- Node26 -->
<g id="node26" class="node">
<title>Node26</title>
<g id="a_node26"><a xlink:href="vector_8h.html" target="_top" xlink:title=" ">
<polygon fill="white" stroke="black" points="1252,-179.5 1252,-198.5 1377,-198.5 1377,-179.5 1252,-179.5"/>
<text text-anchor="middle" x="1314.5" y="-186.5" font-family="Helvetica,sans-Serif" font-size="10.00">maliput/math/vector.h</text>
</a>
</g>
</g>
<!-- Node12&#45;&gt;Node26 -->
<g id="edge48" class="edge">
<title>Node12&#45;&gt;Node26</title>
<path fill="none" stroke="midnightblue" d="M1217.47,-430.77C1204.18,-400.6 1164.97,-299.03 1207.5,-235 1218.28,-218.78 1236.16,-208.39 1254.26,-201.75"/>
<polygon fill="midnightblue" stroke="midnightblue" points="1255.6,-204.99 1263.99,-198.51 1253.4,-198.34 1255.6,-204.99"/>
</g>
<!-- Node27 -->
<g id="node27" class="node">
<title>Node27</title>
<g id="a_node27"><a xlink:href="quaternion_8h.html" target="_top" xlink:title=" ">
<polygon fill="white" stroke="black" points="1241,-302.5 1241,-321.5 1388,-321.5 1388,-302.5 1241,-302.5"/>
<text text-anchor="middle" x="1314.5" y="-309.5" font-family="Helvetica,sans-Serif" font-size="10.00">maliput/math/quaternion.h</text>
</a>
</g>
</g>
<!-- Node12&#45;&gt;Node27 -->
<g id="edge37" class="edge">
<title>Node12&#45;&gt;Node27</title>
<path fill="none" stroke="midnightblue" d="M1227.89,-430.81C1243.16,-410.04 1281.95,-357.27 1302.03,-329.96"/>
<polygon fill="midnightblue" stroke="midnightblue" points="1304.96,-331.89 1308.06,-321.76 1299.32,-327.74 1304.96,-331.89"/>
</g>
<!-- Node28 -->
<g id="node28" class="node">
<title>Node28</title>
<g id="a_node28"><a xlink:href="roll__pitch__yaw_8h.html" target="_top" xlink:title=" ">
<polygon fill="white" stroke="black" points="1389,-358.5 1389,-388.5 1520,-388.5 1520,-358.5 1389,-358.5"/>
<text text-anchor="start" x="1397" y="-376.5" font-family="Helvetica,sans-Serif" font-size="10.00">maliput/math/roll_pitch</text>
<text text-anchor="middle" x="1454.5" y="-365.5" font-family="Helvetica,sans-Serif" font-size="10.00">_yaw.h</text>
</a>
</g>
</g>
<!-- Node12&#45;&gt;Node28 -->
<g id="edge43" class="edge">
<title>Node12&#45;&gt;Node28</title>
<path fill="none" stroke="midnightblue" d="M1252.44,-430.87C1288.54,-420.8 1349.06,-403.91 1394.48,-391.24"/>
<polygon fill="midnightblue" stroke="midnightblue" points="1395.52,-394.59 1404.21,-388.53 1393.64,-387.84 1395.52,-394.59"/>
</g>
<!-- Node16&#45;&gt;Node11 -->
<g id="edge20" class="edge">
<title>Node16&#45;&gt;Node11</title>
<path fill="none" stroke="midnightblue" d="M425.99,-112.49C410.28,-97.47 391.02,-73.44 405.5,-56 433.22,-22.6 554.92,-28.45 597.5,-20 600.97,-19.31 604.6,-18.58 608.21,-17.84"/>
<polygon fill="midnightblue" stroke="midnightblue" points="609.12,-21.22 618.2,-15.76 607.7,-14.37 609.12,-21.22"/>
</g>
<!-- Node17 -->
<g id="node17" class="node">
<title>Node17</title>
<g id="a_node17"><a xlink:title=" ">
<polygon fill="white" stroke="#bfbfbf" points="414.5,-56.5 414.5,-75.5 470.5,-75.5 470.5,-56.5 414.5,-56.5"/>
<text text-anchor="middle" x="442.5" y="-63.5" font-family="Helvetica,sans-Serif" font-size="10.00">sstream</text>
</a>
</g>
</g>
<!-- Node16&#45;&gt;Node17 -->
<g id="edge19" class="edge">
<title>Node16&#45;&gt;Node17</title>
<path fill="none" stroke="midnightblue" d="M442.5,-112.4C442.5,-104.47 442.5,-94.46 442.5,-85.86"/>
<polygon fill="midnightblue" stroke="midnightblue" points="446,-85.66 442.5,-75.66 439,-85.66 446,-85.66"/>
</g>
<!-- Node18 -->
<g id="node18" class="node">
<title>Node18</title>
<g id="a_node18"><a xlink:href="error_8h.html" target="_top" xlink:title=" ">
<polygon fill="white" stroke="black" points="489,-56.5 489,-75.5 624,-75.5 624,-56.5 489,-56.5"/>
<text text-anchor="middle" x="556.5" y="-63.5" font-family="Helvetica,sans-Serif" font-size="10.00">maliput/common/error.h</text>
</a>
</g>
</g>
<!-- Node16&#45;&gt;Node18 -->
<g id="edge21" class="edge">
<title>Node16&#45;&gt;Node18</title>
<path fill="none" stroke="midnightblue" d="M469.52,-112.4C488.13,-102.68 512.71,-89.86 530.99,-80.31"/>
<polygon fill="midnightblue" stroke="midnightblue" points="532.67,-83.39 539.91,-75.66 529.43,-77.18 532.67,-83.39"/>
</g>
<!-- Node18&#45;&gt;Node11 -->
<g id="edge23" class="edge">
<title>Node18&#45;&gt;Node11</title>
<path fill="none" stroke="midnightblue" d="M570,-56.32C583.1,-47.9 603.21,-34.97 618.61,-25.07"/>
<polygon fill="midnightblue" stroke="midnightblue" points="620.52,-28.01 627.04,-19.65 616.73,-22.12 620.52,-28.01"/>
</g>
<!-- Node19 -->
<g id="node19" class="node">
<title>Node19</title>
<g id="a_node19"><a xlink:title=" ">
<polygon fill="white" stroke="#bfbfbf" points="524,-0.5 524,-19.5 589,-19.5 589,-0.5 524,-0.5"/>
<text text-anchor="middle" x="556.5" y="-7.5" font-family="Helvetica,sans-Serif" font-size="10.00">stdexcept</text>
</a>
</g>
</g>
<!-- Node18&#45;&gt;Node19 -->
<g id="edge22" class="edge">
<title>Node18&#45;&gt;Node19</title>
<path fill="none" stroke="midnightblue" d="M556.5,-56.08C556.5,-49.01 556.5,-38.86 556.5,-29.99"/>
<polygon fill="midnightblue" stroke="midnightblue" points="560,-29.75 556.5,-19.75 553,-29.75 560,-29.75"/>
</g>
<!-- Node21 -->
<g id="node21" class="node">
<title>Node21</title>
<g id="a_node21"><a xlink:title=" ">
<polygon fill="white" stroke="#bfbfbf" points="1339.5,-118 1339.5,-137 1403.5,-137 1403.5,-118 1339.5,-118"/>
<text text-anchor="middle" x="1371.5" y="-125" font-family="Helvetica,sans-Serif" font-size="10.00">algorithm</text>
</a>
</g>
</g>
<!-- Node20&#45;&gt;Node21 -->
<g id="edge25" class="edge">
<title>Node20&#45;&gt;Node21</title>
<path fill="none" stroke="midnightblue" d="M1473.97,-240.72C1462.41,-227.29 1439.52,-200.89 1419.5,-179 1408.91,-167.42 1396.74,-154.62 1387.29,-144.8"/>
<polygon fill="midnightblue" stroke="midnightblue" points="1389.56,-142.11 1380.1,-137.34 1384.53,-146.97 1389.56,-142.11"/>
</g>
<!-- Node22 -->
<g id="node22" class="node">
<title>Node22</title>
<g id="a_node22"><a xlink:title=" ">
<polygon fill="white" stroke="#bfbfbf" points="1421.5,-118 1421.5,-137 1463.5,-137 1463.5,-118 1421.5,-118"/>
<text text-anchor="middle" x="1442.5" y="-125" font-family="Helvetica,sans-Serif" font-size="10.00">array</text>
</a>
</g>
</g>
<!-- Node20&#45;&gt;Node22 -->
<g id="edge26" class="edge">
<title>Node20&#45;&gt;Node22</title>
<path fill="none" stroke="midnightblue" d="M1478.7,-240.8C1472.37,-221.18 1456.89,-173.14 1448.36,-146.69"/>
<polygon fill="midnightblue" stroke="midnightblue" points="1451.68,-145.57 1445.28,-137.12 1445.02,-147.71 1451.68,-145.57"/>
</g>
<!-- Node23 -->
<g id="node23" class="node">
<title>Node23</title>
<g id="a_node23"><a xlink:title=" ">
<polygon fill="white" stroke="#bfbfbf" points="1190,-118 1190,-137 1243,-137 1243,-118 1190,-118"/>
<text text-anchor="middle" x="1216.5" y="-125" font-family="Helvetica,sans-Serif" font-size="10.00">cstddef</text>
</a>
</g>
</g>
<!-- Node20&#45;&gt;Node23 -->
<g id="edge27" class="edge">
<title>Node20&#45;&gt;Node23</title>
<path fill="none" stroke="midnightblue" d="M1417.89,-242.89C1356.55,-235.32 1269.31,-221.05 1243.5,-199 1228.28,-185.99 1221.61,-163.41 1218.71,-147.31"/>
<polygon fill="midnightblue" stroke="midnightblue" points="1222.16,-146.77 1217.24,-137.39 1215.24,-147.8 1222.16,-146.77"/>
</g>
<!-- Node24 -->
<g id="node24" class="node">
<title>Node24</title>
<g id="a_node24"><a xlink:title=" ">
<polygon fill="white" stroke="#bfbfbf" points="1482,-118 1482,-137 1565,-137 1565,-118 1482,-118"/>
<text text-anchor="middle" x="1523.5" y="-125" font-family="Helvetica,sans-Serif" font-size="10.00">initializer_list</text>
</a>
</g>
</g>
<!-- Node20&#45;&gt;Node24 -->
<g id="edge28" class="edge">
<title>Node20&#45;&gt;Node24</title>
<path fill="none" stroke="midnightblue" d="M1484.52,-240.8C1491.33,-221.18 1508.01,-173.14 1517.18,-146.69"/>
<polygon fill="midnightblue" stroke="midnightblue" points="1520.53,-147.72 1520.51,-137.12 1513.92,-145.42 1520.53,-147.72"/>
</g>
<!-- Node25 -->
<g id="node25" class="node">
<title>Node25</title>
<g id="a_node25"><a xlink:title=" ">
<polygon fill="white" stroke="#bfbfbf" points="1261.5,-118 1261.5,-137 1321.5,-137 1321.5,-118 1261.5,-118"/>
<text text-anchor="middle" x="1291.5" y="-125" font-family="Helvetica,sans-Serif" font-size="10.00">iostream</text>
</a>
</g>
</g>
<!-- Node20&#45;&gt;Node25 -->
<g id="edge29" class="edge">
<title>Node20&#45;&gt;Node25</title>
<path fill="none" stroke="midnightblue" d="M1471.04,-240.92C1453.93,-227.08 1418.62,-199.3 1386.5,-179 1364.35,-165 1337.94,-151.18 1318.6,-141.54"/>
<polygon fill="midnightblue" stroke="midnightblue" points="1319.97,-138.32 1309.46,-137.04 1316.88,-144.6 1319.97,-138.32"/>
</g>
<!-- Node20&#45;&gt;Node26 -->
<g id="edge30" class="edge">
<title>Node20&#45;&gt;Node26</title>
<path fill="none" stroke="midnightblue" d="M1457.57,-240.98C1428.8,-230.72 1380.34,-213.46 1347.9,-201.9"/>
<polygon fill="midnightblue" stroke="midnightblue" points="1348.98,-198.57 1338.38,-198.51 1346.63,-205.16 1348.98,-198.57"/>
</g>
<!-- Node26&#45;&gt;Node16 -->
<g id="edge36" class="edge">
<title>Node26&#45;&gt;Node16</title>
<path fill="none" stroke="midnightblue" d="M1251.79,-183.72C1096.62,-173.13 694.9,-145.72 522.74,-133.98"/>
<polygon fill="midnightblue" stroke="midnightblue" points="522.95,-130.48 512.73,-133.29 522.47,-137.46 522.95,-130.48"/>
</g>
<!-- Node26&#45;&gt;Node21 -->
<g id="edge31" class="edge">
<title>Node26&#45;&gt;Node21</title>
<path fill="none" stroke="midnightblue" d="M1322.67,-179.48C1331.39,-170.37 1345.4,-155.74 1356.19,-144.48"/>
<polygon fill="midnightblue" stroke="midnightblue" points="1358.96,-146.65 1363.35,-137.01 1353.9,-141.81 1358.96,-146.65"/>
</g>
<!-- Node26&#45;&gt;Node22 -->
<g id="edge32" class="edge">
<title>Node26&#45;&gt;Node22</title>
<path fill="none" stroke="midnightblue" d="M1333.34,-179.48C1353.11,-170.51 1385.06,-155.93 1412.5,-143 1413.49,-142.53 1414.51,-142.05 1415.53,-141.57"/>
<polygon fill="midnightblue" stroke="midnightblue" points="1417.25,-144.62 1424.76,-137.15 1414.23,-138.31 1417.25,-144.62"/>
</g>
<!-- Node26&#45;&gt;Node23 -->
<g id="edge33" class="edge">
<title>Node26&#45;&gt;Node23</title>
<path fill="none" stroke="midnightblue" d="M1300.46,-179.48C1284.45,-169.75 1258.05,-153.73 1239.13,-142.24"/>
<polygon fill="midnightblue" stroke="midnightblue" points="1240.88,-139.21 1230.51,-137.01 1237.25,-145.19 1240.88,-139.21"/>
</g>
<!-- Node26&#45;&gt;Node24 -->
<g id="edge34" class="edge">
<title>Node26&#45;&gt;Node24</title>
<path fill="none" stroke="midnightblue" d="M1344.44,-179.48C1381.07,-169.05 1443.2,-151.36 1483.78,-139.81"/>
<polygon fill="midnightblue" stroke="midnightblue" points="1484.95,-143.11 1493.61,-137.01 1483.03,-136.38 1484.95,-143.11"/>
</g>
<!-- Node26&#45;&gt;Node25 -->
<g id="edge35" class="edge">
<title>Node26&#45;&gt;Node25</title>
<path fill="none" stroke="midnightblue" d="M1311.2,-179.48C1307.89,-170.9 1302.68,-157.43 1298.45,-146.48"/>
<polygon fill="midnightblue" stroke="midnightblue" points="1301.66,-145.07 1294.79,-137.01 1295.13,-147.6 1301.66,-145.07"/>
</g>
<!-- Node27&#45;&gt;Node6 -->
<g id="edge38" class="edge">
<title>Node27&#45;&gt;Node6</title>
<path fill="none" stroke="midnightblue" d="M1240.94,-302.73C1124.83,-289.67 903.59,-264.78 819.28,-255.3"/>
<polygon fill="midnightblue" stroke="midnightblue" points="819.56,-251.81 809.23,-254.17 818.78,-258.77 819.56,-251.81"/>
</g>
<!-- Node27&#45;&gt;Node14 -->
<g id="edge39" class="edge">
<title>Node27&#45;&gt;Node14</title>
<path fill="none" stroke="midnightblue" d="M1304.47,-302.48C1293.45,-293.11 1275.54,-277.88 1262.16,-266.51"/>
<polygon fill="midnightblue" stroke="midnightblue" points="1264.4,-263.82 1254.51,-260.01 1259.86,-269.15 1264.4,-263.82"/>
</g>
<!-- Node27&#45;&gt;Node15 -->
<g id="edge40" class="edge">
<title>Node27&#45;&gt;Node15</title>
<path fill="none" stroke="midnightblue" d="M1360.2,-302.48C1410.55,-293.08 1492.46,-277.81 1553.5,-266.42"/>
<polygon fill="midnightblue" stroke="midnightblue" points="1554.3,-269.83 1563.49,-264.56 1553.01,-262.95 1554.3,-269.83"/>
</g>
<!-- Node27&#45;&gt;Node20 -->
<g id="edge41" class="edge">
<title>Node27&#45;&gt;Node20</title>
<path fill="none" stroke="midnightblue" d="M1338.43,-302.48C1367.2,-292.22 1415.66,-274.96 1448.1,-263.4"/>
<polygon fill="midnightblue" stroke="midnightblue" points="1449.37,-266.66 1457.62,-260.01 1447.02,-260.07 1449.37,-266.66"/>
</g>
<!-- Node27&#45;&gt;Node26 -->
<g id="edge42" class="edge">
<title>Node27&#45;&gt;Node26</title>
<path fill="none" stroke="midnightblue" d="M1314.5,-302.3C1314.5,-282.85 1314.5,-235.49 1314.5,-208.9"/>
<polygon fill="midnightblue" stroke="midnightblue" points="1318,-208.62 1314.5,-198.62 1311,-208.62 1318,-208.62"/>
</g>
<!-- Node28&#45;&gt;Node15 -->
<g id="edge44" class="edge">
<title>Node28&#45;&gt;Node15</title>
<path fill="none" stroke="midnightblue" d="M1475.38,-358.38C1507.18,-336.89 1567.85,-295.88 1604.09,-271.38"/>
<polygon fill="midnightblue" stroke="midnightblue" points="1606.42,-274.03 1612.75,-265.53 1602.5,-268.23 1606.42,-274.03"/>
</g>
<!-- Node28&#45;&gt;Node20 -->
<g id="edge45" class="edge">
<title>Node28&#45;&gt;Node20</title>
<path fill="none" stroke="midnightblue" d="M1458.76,-358.44C1461.72,-348.35 1465.64,-334.41 1468.5,-322 1472.51,-304.58 1476.11,-284.52 1478.5,-270.26"/>
<polygon fill="midnightblue" stroke="midnightblue" points="1481.98,-270.67 1480.14,-260.23 1475.08,-269.54 1481.98,-270.67"/>
</g>
<!-- Node28&#45;&gt;Node26 -->
<g id="edge47" class="edge">
<title>Node28&#45;&gt;Node26</title>
<path fill="none" stroke="midnightblue" d="M1443.75,-358.48C1418.37,-325.4 1354.81,-242.55 1327.41,-206.83"/>
<polygon fill="midnightblue" stroke="midnightblue" points="1330.13,-204.62 1321.27,-198.82 1324.57,-208.88 1330.13,-204.62"/>
</g>
<!-- Node28&#45;&gt;Node27 -->
<g id="edge46" class="edge">
<title>Node28&#45;&gt;Node27</title>
<path fill="none" stroke="midnightblue" d="M1421.32,-358.4C1397.94,-348.46 1366.89,-335.26 1344.29,-325.66"/>
<polygon fill="midnightblue" stroke="midnightblue" points="1345.44,-322.35 1334.87,-321.66 1342.71,-328.79 1345.44,-322.35"/>
</g>
<!-- Node29&#45;&gt;Node11 -->
<g id="edge51" class="edge">
<title>Node29&#45;&gt;Node11</title>
<path fill="none" stroke="midnightblue" d="M954.52,-425.43C1003.26,-398.73 1098.5,-335.77 1098.5,-251.5 1098.5,-251.5 1098.5,-251.5 1098.5,-126.5 1098.5,-38.59 777.22,-16.92 672.83,-12.19"/>
<polygon fill="midnightblue" stroke="midnightblue" points="672.73,-8.69 662.59,-11.75 672.43,-15.68 672.73,-8.69"/>
</g>
<!-- Node29&#45;&gt;Node13 -->
<g id="edge50" class="edge">
<title>Node29&#45;&gt;Node13</title>
<path fill="none" stroke="midnightblue" d="M934.59,-425.48C947.96,-402.31 974.64,-356.07 989.29,-330.69"/>
<polygon fill="midnightblue" stroke="midnightblue" points="992.46,-332.2 994.43,-321.79 986.4,-328.7 992.46,-332.2"/>
</g>
<!-- Node29&#45;&gt;Node15 -->
<g id="edge53" class="edge">
<title>Node29&#45;&gt;Node15</title>
<path fill="none" stroke="midnightblue" d="M986.58,-425.44C1076.33,-404.24 1250.58,-362.25 1397.5,-322 1459.88,-304.91 1530.92,-283.41 1578.62,-268.67"/>
<polygon fill="midnightblue" stroke="midnightblue" points="1579.92,-271.93 1588.43,-265.63 1577.85,-265.25 1579.92,-271.93"/>
</g>
<!-- Node29&#45;&gt;Node16 -->
<g id="edge68" class="edge">
<title>Node29&#45;&gt;Node16</title>
<path fill="none" stroke="midnightblue" d="M856.23,-432.64C794.12,-425.44 701.54,-411.9 623.5,-389 551.1,-367.76 521.62,-374.58 467.5,-322 421.78,-277.59 429.77,-193.91 437.21,-152.69"/>
<polygon fill="midnightblue" stroke="midnightblue" points="440.67,-153.2 439.15,-142.72 433.8,-151.86 440.67,-153.2"/>
</g>
<!-- Node30 -->
<g id="node30" class="node">
<title>Node30</title>
<g id="a_node30"><a xlink:title=" ">
<polygon fill="white" stroke="#bfbfbf" points="904,-302.5 904,-321.5 949,-321.5 949,-302.5 904,-302.5"/>
<text text-anchor="middle" x="926.5" y="-309.5" font-family="Helvetica,sans-Serif" font-size="10.00">utility</text>
</a>
</g>
</g>
<!-- Node29&#45;&gt;Node30 -->
<g id="edge52" class="edge">
<title>Node29&#45;&gt;Node30</title>
<path fill="none" stroke="midnightblue" d="M926.5,-425.48C926.5,-402.72 926.5,-357.7 926.5,-332.06"/>
<polygon fill="midnightblue" stroke="midnightblue" points="930,-331.79 926.5,-321.79 923,-331.79 930,-331.79"/>
</g>
<!-- Node31 -->
<g id="node31" class="node">
<title>Node31</title>
<g id="a_node31"><a xlink:href="maliput__hash_8h.html" target="_top" xlink:title=" ">
<polygon fill="white" stroke="black" points="632.5,-358.5 632.5,-388.5 772.5,-388.5 772.5,-358.5 632.5,-358.5"/>
<text text-anchor="start" x="640.5" y="-376.5" font-family="Helvetica,sans-Serif" font-size="10.00">maliput/common/maliput</text>
<text text-anchor="middle" x="702.5" y="-365.5" font-family="Helvetica,sans-Serif" font-size="10.00">_hash.h</text>
</a>
</g>
</g>
<!-- Node29&#45;&gt;Node31 -->
<g id="edge54" class="edge">
<title>Node29&#45;&gt;Node31</title>
<path fill="none" stroke="midnightblue" d="M878.17,-425.48C843.84,-415.51 797.57,-402.09 761.13,-391.51"/>
<polygon fill="midnightblue" stroke="midnightblue" points="761.71,-388.04 751.13,-388.61 759.76,-394.76 761.71,-388.04"/>
</g>
<!-- Node31&#45;&gt;Node4 -->
<g id="edge66" class="edge">
<title>Node31&#45;&gt;Node4</title>
<path fill="none" stroke="midnightblue" d="M632.24,-364.88C544,-355.25 387.98,-337.98 254.5,-322 242.29,-320.54 228.9,-318.86 217.08,-317.35"/>
<polygon fill="midnightblue" stroke="midnightblue" points="217.52,-313.88 207.16,-316.08 216.63,-320.82 217.52,-313.88"/>
</g>
<!-- Node31&#45;&gt;Node6 -->
<g id="edge55" class="edge">
<title>Node31&#45;&gt;Node6</title>
<path fill="none" stroke="midnightblue" d="M738.03,-358.38C753.78,-350.2 770.9,-338.25 780.5,-322 789.75,-306.34 789.96,-285.18 788.51,-270.14"/>
<polygon fill="midnightblue" stroke="midnightblue" points="791.95,-269.49 787.19,-260.02 785.01,-270.39 791.95,-269.49"/>
</g>
<!-- Node31&#45;&gt;Node8 -->
<g id="edge61" class="edge">
<title>Node31&#45;&gt;Node8</title>
<path fill="none" stroke="midnightblue" d="M632.31,-362.34C544.87,-349.68 398.57,-328.5 329.63,-318.52"/>
<polygon fill="midnightblue" stroke="midnightblue" points="330.04,-315.04 319.65,-317.07 329.04,-321.97 330.04,-315.04"/>
</g>
<!-- Node31&#45;&gt;Node11 -->
<g id="edge63" class="edge">
<title>Node31&#45;&gt;Node11</title>
<path fill="none" stroke="midnightblue" d="M632.06,-362.15C586.27,-353.81 532.56,-340.44 518.5,-322 513.11,-314.93 516.44,-310.65 518.5,-302 544.54,-192.56 599.81,-183.65 632.5,-76 637.1,-60.85 639.06,-42.96 639.9,-29.78"/>
<polygon fill="midnightblue" stroke="midnightblue" points="643.4,-29.76 640.38,-19.61 636.41,-29.43 643.4,-29.76"/>
</g>
<!-- Node31&#45;&gt;Node13 -->
<g id="edge58" class="edge">
<title>Node31&#45;&gt;Node13</title>
<path fill="none" stroke="midnightblue" d="M772.66,-359.08C821.74,-349.59 889.08,-336.38 956.84,-322.32"/>
<polygon fill="midnightblue" stroke="midnightblue" points="957.76,-325.7 966.84,-320.24 956.34,-318.85 957.76,-325.7"/>
</g>
<!-- Node31&#45;&gt;Node16 -->
<g id="edge67" class="edge">
<title>Node31&#45;&gt;Node16</title>
<path fill="none" stroke="midnightblue" d="M632.47,-364.34C577.14,-356.46 505.94,-342.65 485.5,-322 440.03,-276.08 438.13,-193.41 440.35,-152.61"/>
<polygon fill="midnightblue" stroke="midnightblue" points="443.85,-152.72 441.03,-142.51 436.86,-152.25 443.85,-152.72"/>
</g>
<!-- Node31&#45;&gt;Node23 -->
<g id="edge56" class="edge">
<title>Node31&#45;&gt;Node23</title>
<path fill="none" stroke="midnightblue" d="M733.02,-358.44C752.15,-349.11 776.99,-336.02 797.5,-322 846.4,-288.56 847,-264.29 898.5,-235 992.99,-181.26 1118.79,-149.26 1179.98,-135.87"/>
<polygon fill="midnightblue" stroke="midnightblue" points="1180.89,-139.26 1189.93,-133.74 1179.42,-132.41 1180.89,-139.26"/>
</g>
<!-- Node31&#45;&gt;Node25 -->
<g id="edge59" class="edge">
<title>Node31&#45;&gt;Node25</title>
<path fill="none" stroke="midnightblue" d="M736.71,-358.33C842.22,-314.62 1161.46,-182.37 1261.31,-141.01"/>
<polygon fill="midnightblue" stroke="midnightblue" points="1262.91,-144.13 1270.81,-137.07 1260.23,-137.67 1262.91,-144.13"/>
</g>
<!-- Node31&#45;&gt;Node30 -->
<g id="edge65" class="edge">
<title>Node31&#45;&gt;Node30</title>
<path fill="none" stroke="midnightblue" d="M755.3,-358.47C798.27,-347.06 857.55,-331.31 893.89,-321.66"/>
<polygon fill="midnightblue" stroke="midnightblue" points="895.18,-324.94 903.94,-318.99 893.38,-318.18 895.18,-324.94"/>
</g>
<!-- Node32 -->
<g id="node32" class="node">
<title>Node32</title>
<g id="a_node32"><a xlink:title=" ">
<polygon fill="white" stroke="#bfbfbf" points="527.5,-302.5 527.5,-321.5 577.5,-321.5 577.5,-302.5 527.5,-302.5"/>
<text text-anchor="middle" x="552.5" y="-309.5" font-family="Helvetica,sans-Serif" font-size="10.00">cstdint</text>
</a>
</g>
</g>
<!-- Node31&#45;&gt;Node32 -->
<g id="edge57" class="edge">
<title>Node31&#45;&gt;Node32</title>
<path fill="none" stroke="midnightblue" d="M666.95,-358.4C641.67,-348.37 608.03,-335.03 583.77,-325.4"/>
<polygon fill="midnightblue" stroke="midnightblue" points="584.91,-322.09 574.33,-321.66 582.33,-328.6 584.91,-322.09"/>
</g>
<!-- Node33 -->
<g id="node33" class="node">
<title>Node33</title>
<g id="a_node33"><a xlink:title=" ">
<polygon fill="white" stroke="#bfbfbf" points="595.5,-302.5 595.5,-321.5 633.5,-321.5 633.5,-302.5 595.5,-302.5"/>
<text text-anchor="middle" x="614.5" y="-309.5" font-family="Helvetica,sans-Serif" font-size="10.00">map</text>
</a>
</g>
</g>
<!-- Node31&#45;&gt;Node33 -->
<g id="edge60" class="edge">
<title>Node31&#45;&gt;Node33</title>
<path fill="none" stroke="midnightblue" d="M681.65,-358.4C667.8,-349.04 649.69,-336.79 635.76,-327.38"/>
<polygon fill="midnightblue" stroke="midnightblue" points="637.55,-324.36 627.3,-321.66 633.63,-330.16 637.55,-324.36"/>
</g>
<!-- Node34 -->
<g id="node34" class="node">
<title>Node34</title>
<g id="a_node34"><a xlink:title=" ">
<polygon fill="white" stroke="#bfbfbf" points="651.5,-302.5 651.5,-321.5 683.5,-321.5 683.5,-302.5 651.5,-302.5"/>
<text text-anchor="middle" x="667.5" y="-309.5" font-family="Helvetica,sans-Serif" font-size="10.00">set</text>
</a>
</g>
</g>
<!-- Node31&#45;&gt;Node34 -->
<g id="edge62" class="edge">
<title>Node31&#45;&gt;Node34</title>
<path fill="none" stroke="midnightblue" d="M694.21,-358.4C689.28,-350.02 682.99,-339.33 677.75,-330.42"/>
<polygon fill="midnightblue" stroke="midnightblue" points="680.68,-328.5 672.59,-321.66 674.65,-332.05 680.68,-328.5"/>
</g>
<!-- Node35 -->
<g id="node35" class="node">
<title>Node35</title>
<g id="a_node35"><a xlink:title=" ">
<polygon fill="white" stroke="#bfbfbf" points="702,-302.5 702,-321.5 771,-321.5 771,-302.5 702,-302.5"/>
<text text-anchor="middle" x="736.5" y="-309.5" font-family="Helvetica,sans-Serif" font-size="10.00">type_traits</text>
</a>
</g>
</g>
<!-- Node31&#45;&gt;Node35 -->
<g id="edge64" class="edge">
<title>Node31&#45;&gt;Node35</title>
<path fill="none" stroke="midnightblue" d="M710.56,-358.4C715.35,-350.02 721.46,-339.33 726.54,-330.42"/>
<polygon fill="midnightblue" stroke="midnightblue" points="729.63,-332.08 731.55,-321.66 723.55,-328.6 729.63,-332.08"/>
</g>
</g>
</svg>
        <g id="navigator" transform="translate(0 0)" fill="#404254">
                <rect fill="#f2f5e9" fill-opacity="0.5" stroke="#606060" stroke-width=".5" x="0" y="0" width="60" height="60"/>
                <use id="zoomplus" xlink:href="#zoomPlus" x="17" y="9" onmousedown="handleZoom(evt,'in')"/>
                <use id="zoomminus" xlink:href="#zoomMin" x="42" y="9" onmousedown="handleZoom(evt,'out')"/>
                <use id="reset" xlink:href="#resetDef" x="30" y="36" onmousedown="handleReset()"/>
                <g id="arrowUp" xlink:href="#dirArrow" transform="translate(30 24)" onmousedown="handlePan(0,-1)">
                  <use xlink:href="#rim" fill="#404040">
                        <set attributeName="fill" to="#808080" begin="arrowUp.mouseover" end="arrowUp.mouseout"/>
                  </use>
                  <path fill="none" stroke="white" stroke-width="1.5" d="M0,-3.0v7 M-2.5,-0.5L0,-3.0L2.5,-0.5"/>
                </g>
                <g id="arrowRight" xlink:href="#dirArrow" transform="rotate(90) translate(36 -43)" onmousedown="handlePan(1,0)">
                  <use xlink:href="#rim" fill="#404040">
                        <set attributeName="fill" to="#808080" begin="arrowRight.mouseover" end="arrowRight.mouseout"/>
                  </use>
                  <path fill="none" stroke="white" stroke-width="1.5" d="M0,-3.0v7 M-2.5,-0.5L0,-3.0L2.5,-0.5"/>
                </g>
                <g id="arrowDown" xlink:href="#dirArrow" transform="rotate(180) translate(-30 -48)" onmousedown="handlePan(0,1)">
                  <use xlink:href="#rim" fill="#404040">
                        <set attributeName="fill" to="#808080" begin="arrowDown.mouseover" end="arrowDown.mouseout"/>
                  </use>
                  <path fill="none" stroke="white" stroke-width="1.5" d="M0,-3.0v7 M-2.5,-0.5L0,-3.0L2.5,-0.5"/>
                </g>
                <g id="arrowLeft" xlink:href="#dirArrow" transform="rotate(270) translate(-36 17)" onmousedown="handlePan(-1,0)">
                  <use xlink:href="#rim" fill="#404040">
                        <set attributeName="fill" to="#808080" begin="arrowLeft.mouseover" end="arrowLeft.mouseout"/>
                  </use>
                  <path fill="none" stroke="white" stroke-width="1.5" d="M0,-3.0v7 M-2.5,-0.5L0,-3.0L2.5,-0.5"/>
                </g>
        </g>
        <svg viewBox="0 0 15 15" width="100%" height="30px" preserveAspectRatio="xMaxYMin meet">
         <g id="arrow_out" transform="scale(0.3 0.3)">
          <a xlink:href="direction__usage__rule_8cc__incl_org.svg" target="_base">
           <rect id="button" ry="5" rx="5" y="6" x="6" height="38" width="38"
                fill="#f2f5e9" fill-opacity="0.5" stroke="#606060" stroke-width="1.0"/>
           <path id="arrow"
             d="M 11.500037,31.436501 C 11.940474,20.09759 22.043105,11.32322 32.158766,21.979434 L 37.068811,17.246167 C 37.068811,17.246167 37.088388,32 37.088388,32 L 22.160133,31.978069 C 22.160133,31.978069 26.997745,27.140456 26.997745,27.140456 C 18.528582,18.264221 13.291696,25.230495 11.500037,31.436501 z"
             style="fill:#404040;"/>
          </a>
         </g>
        </svg>
</svg>
