<?xml version="1.0" encoding="UTF-8" standalone="no"?>
<!DOCTYPE svg PUBLIC "-//W3C//DTD SVG 1.1//EN"
 "http://www.w3.org/Graphics/SVG/1.1/DTD/svg11.dtd">
<!-- Generated by graphviz version 2.43.0 (0)
 -->
<!-- Title: discrete_value_rule_state_provider.h Pages: 1 -->
<!--zoomable 408 -->
<svg id="main" version="1.1" xmlns="http://www.w3.org/2000/svg" xmlns:xlink="http://www.w3.org/1999/xlink" xml:space="preserve" onload="init(evt)">
<style type="text/css"><![CDATA[
.edge:hover path { stroke: red; }
.edge:hover polygon { stroke: red; fill: red; }
]]></style>
<script type="text/javascript"><![CDATA[
var edges = document.getElementsByTagName('g');
if (edges && edges.length) {
  for (var i=0;i<edges.length;i++) {
    if (edges[i].id.substr(0,4)=='edge') {
      edges[i].setAttribute('class','edge');
    }
  }
}
]]></script>
        <defs>
                <circle id="rim" cx="0" cy="0" r="7"/>
                <circle id="rim2" cx="0" cy="0" r="3.5"/>
                <g id="zoomPlus">
                        <use xlink:href="#rim" fill="#404040">
                                <set attributeName="fill" to="#808080" begin="zoomplus.mouseover" end="zoomplus.mouseout"/>
                        </use>
                        <path d="M-4,0h8M0,-4v8" fill="none" stroke="white" stroke-width="1.5" pointer-events="none"/>
                </g>
                <g id="zoomMin">
                        <use xlink:href="#rim" fill="#404040">
                                <set attributeName="fill" to="#808080" begin="zoomminus.mouseover" end="zoomminus.mouseout"/>
                        </use>
                        <path d="M-4,0h8" fill="none" stroke="white" stroke-width="1.5" pointer-events="none"/>
                </g>
                <g id="dirArrow">
                        <path fill="none" stroke="white" stroke-width="1.5" d="M0,-3.0v7 M-2.5,-0.5L0,-3.0L2.5,-0.5"/>
                </g>
               <g id="resetDef">
                       <use xlink:href="#rim2" fill="#404040">
                               <set attributeName="fill" to="#808080" begin="reset.mouseover" end="reset.mouseout"/>
                       </use>
               </g>
        </defs>

<script type="text/javascript">
var viewWidth = 1348;
var viewHeight = 408;
var sectionId = 'dynsection-1';
</script>
<script xlink:href="svgpan.js"/>
<svg id="graph" class="graph">
<g id="viewport">
<title>discrete_value_rule_state_provider.h</title>
<polygon fill="white" stroke="transparent" points="-4,4 -4,-404 1344,-404 1344,4 -4,4"/>
<!-- Node1 -->
<g id="node1" class="node">
<title>Node1</title>
<g id="a_node1"><a xlink:title=" ">
<polygon fill="#bfbfbf" stroke="black" points="963,-369.5 963,-399.5 1075,-399.5 1075,-369.5 963,-369.5"/>
<text text-anchor="start" x="971" y="-387.5" font-family="Helvetica,sans-Serif" font-size="10.00">discrete_value_rule</text>
<text text-anchor="middle" x="1019" y="-376.5" font-family="Helvetica,sans-Serif" font-size="10.00">_state_provider.h</text>
</a>
</g>
</g>
<!-- Node2 -->
<g id="node2" class="node">
<title>Node2</title>
<g id="a_node2"><a xlink:href="road__network_8h.html" target="_top" xlink:title=" ">
<polygon fill="white" stroke="black" points="620,-308 620,-327 712,-327 712,-308 620,-308"/>
<text text-anchor="middle" x="666" y="-315" font-family="Helvetica,sans-Serif" font-size="10.00">road_network.h</text>
</a>
</g>
</g>
<!-- Node1&#45;&gt;Node2 -->
<g id="edge1" class="edge">
<title>Node1&#45;&gt;Node2</title>
<path fill="none" stroke="midnightblue" d="M952.6,-371.27C882.35,-358.34 773.35,-338.27 712,-326.97"/>
<polygon fill="midnightblue" stroke="midnightblue" points="952.21,-374.76 962.68,-373.13 953.47,-367.88 952.21,-374.76"/>
</g>
<!-- Node15 -->
<g id="node15" class="node">
<title>Node15</title>
<g id="a_node15"><a xlink:href="mock_8h.html" target="_top" xlink:title=" ">
<polygon fill="white" stroke="black" points="904.5,-241 904.5,-260 957.5,-260 957.5,-241 904.5,-241"/>
<text text-anchor="middle" x="931" y="-248" font-family="Helvetica,sans-Serif" font-size="10.00">mock.h</text>
</a>
</g>
</g>
<!-- Node1&#45;&gt;Node15 -->
<g id="edge36" class="edge">
<title>Node1&#45;&gt;Node15</title>
<path fill="none" stroke="midnightblue" d="M1003.92,-360.87C984.08,-331.12 950.17,-280.26 936.73,-260.1"/>
<polygon fill="midnightblue" stroke="midnightblue" points="1001.12,-362.99 1009.58,-369.37 1006.95,-359.11 1001.12,-362.99"/>
</g>
<!-- Node22 -->
<g id="node22" class="node">
<title>Node22</title>
<g id="a_node22"><a xlink:href="manual__discrete__value__rule__state__provider_8h.html" target="_top" xlink:title=" ">
<polygon fill="white" stroke="black" points="1047,-302.5 1047,-332.5 1177,-332.5 1177,-302.5 1047,-302.5"/>
<text text-anchor="start" x="1055" y="-320.5" font-family="Helvetica,sans-Serif" font-size="10.00">manual_discrete_value</text>
<text text-anchor="middle" x="1112" y="-309.5" font-family="Helvetica,sans-Serif" font-size="10.00">_rule_state_provider.h</text>
</a>
</g>
</g>
<!-- Node1&#45;&gt;Node22 -->
<g id="edge29" class="edge">
<title>Node1&#45;&gt;Node22</title>
<path fill="none" stroke="midnightblue" d="M1047.69,-363.45C1061.99,-353.45 1078.95,-341.6 1091.86,-332.58"/>
<polygon fill="midnightblue" stroke="midnightblue" points="1045.37,-360.8 1039.18,-369.4 1049.38,-366.54 1045.37,-360.8"/>
</g>
<!-- Node23 -->
<g id="node23" class="node">
<title>Node23</title>
<g id="a_node23"><a xlink:href="phased__discrete__rule__state__provider_8h.html" target="_top" xlink:title=" ">
<polygon fill="white" stroke="black" points="976,-235.5 976,-265.5 1096,-265.5 1096,-235.5 976,-235.5"/>
<text text-anchor="start" x="984" y="-253.5" font-family="Helvetica,sans-Serif" font-size="10.00">phased_discrete_rule</text>
<text text-anchor="middle" x="1036" y="-242.5" font-family="Helvetica,sans-Serif" font-size="10.00">_state_provider.h</text>
</a>
</g>
</g>
<!-- Node1&#45;&gt;Node23 -->
<g id="edge33" class="edge">
<title>Node1&#45;&gt;Node23</title>
<path fill="none" stroke="midnightblue" d="M1022.11,-359.39C1025.65,-331.9 1031.31,-287.89 1034.19,-265.52"/>
<polygon fill="midnightblue" stroke="midnightblue" points="1018.63,-359.01 1020.82,-369.37 1025.57,-359.9 1018.63,-359.01"/>
</g>
<!-- Node26 -->
<g id="node26" class="node">
<title>Node26</title>
<g id="a_node26"><a xlink:href="rule__tools_8h.html" target="_top" xlink:title=" ">
<polygon fill="white" stroke="black" points="1238,-308 1238,-327 1312,-327 1312,-308 1238,-308"/>
<text text-anchor="middle" x="1275" y="-315" font-family="Helvetica,sans-Serif" font-size="10.00">rule_tools.h</text>
</a>
</g>
</g>
<!-- Node1&#45;&gt;Node26 -->
<g id="edge34" class="edge">
<title>Node1&#45;&gt;Node26</title>
<path fill="none" stroke="midnightblue" d="M1084.02,-366.99C1134.19,-354.25 1201.55,-337.15 1241.41,-327.03"/>
<polygon fill="midnightblue" stroke="midnightblue" points="1083.06,-363.62 1074.23,-369.48 1084.79,-370.41 1083.06,-363.62"/>
</g>
<!-- Node3 -->
<g id="node3" class="node">
<title>Node3</title>
<g id="a_node3"><a xlink:href="road__network__validator_8h.html" target="_top" xlink:title=" ">
<polygon fill="white" stroke="black" points="256.5,-241 256.5,-260 397.5,-260 397.5,-241 256.5,-241"/>
<text text-anchor="middle" x="327" y="-248" font-family="Helvetica,sans-Serif" font-size="10.00">road_network_validator.h</text>
</a>
</g>
</g>
<!-- Node2&#45;&gt;Node3 -->
<g id="edge2" class="edge">
<title>Node2&#45;&gt;Node3</title>
<path fill="none" stroke="midnightblue" d="M611.43,-306.04C544.76,-293.25 433.23,-271.87 371.5,-260.03"/>
<polygon fill="midnightblue" stroke="midnightblue" points="610.85,-309.49 621.33,-307.94 612.17,-302.61 610.85,-309.49"/>
</g>
<!-- Node5 -->
<g id="node5" class="node">
<title>Node5</title>
<g id="a_node5"><a xlink:href="distance__router_8h.html" target="_top" xlink:title=" ">
<polygon fill="white" stroke="black" points="731.5,-56.5 731.5,-75.5 832.5,-75.5 832.5,-56.5 731.5,-56.5"/>
<text text-anchor="middle" x="782" y="-63.5" font-family="Helvetica,sans-Serif" font-size="10.00">distance_router.h</text>
</a>
</g>
</g>
<!-- Node2&#45;&gt;Node5 -->
<g id="edge4" class="edge">
<title>Node2&#45;&gt;Node5</title>
<path fill="none" stroke="midnightblue" d="M722.42,-313.87C759.65,-309.12 806.78,-296.85 836,-266 883.07,-216.3 871.75,-169.1 834,-112 823.99,-96.86 807.54,-83.84 795.82,-75.75"/>
<polygon fill="midnightblue" stroke="midnightblue" points="721.75,-310.42 712.2,-315.02 722.53,-317.38 721.75,-310.42"/>
</g>
<!-- Node7 -->
<g id="node7" class="node">
<title>Node7</title>
<g id="a_node7"><a xlink:href="create__road__network_8h.html" target="_top" xlink:title=" ">
<polygon fill="white" stroke="black" points="445,-174 445,-193 573,-193 573,-174 445,-174"/>
<text text-anchor="middle" x="509" y="-181" font-family="Helvetica,sans-Serif" font-size="10.00">create_road_network.h</text>
</a>
</g>
</g>
<!-- Node2&#45;&gt;Node7 -->
<g id="edge6" class="edge">
<title>Node2&#45;&gt;Node7</title>
<path fill="none" stroke="midnightblue" d="M644.44,-302.01C630.33,-292.27 611.66,-278.89 596,-266 565.96,-241.27 533.12,-208.91 517.8,-193.46"/>
<polygon fill="midnightblue" stroke="midnightblue" points="642.76,-305.1 652.99,-307.85 646.71,-299.32 642.76,-305.1"/>
</g>
<!-- Node9 -->
<g id="node9" class="node">
<title>Node9</title>
<g id="a_node9"><a xlink:href="road__network__loader_8h.html" target="_top" xlink:title=" ">
<polygon fill="white" stroke="black" points="416,-241 416,-260 544,-260 544,-241 416,-241"/>
<text text-anchor="middle" x="480" y="-248" font-family="Helvetica,sans-Serif" font-size="10.00">road_network_loader.h</text>
</a>
</g>
</g>
<!-- Node2&#45;&gt;Node9 -->
<g id="edge8" class="edge">
<title>Node2&#45;&gt;Node9</title>
<path fill="none" stroke="midnightblue" d="M631.48,-304.44C594.58,-291.54 537.01,-271.42 504.51,-260.06"/>
<polygon fill="midnightblue" stroke="midnightblue" points="630.71,-307.87 641.3,-307.87 633.02,-301.27 630.71,-307.87"/>
</g>
<!-- Node10 -->
<g id="node10" class="node">
<title>Node10</title>
<g id="a_node10"><a xlink:href="routing_2phase_8h.html" target="_top" xlink:title=" ">
<polygon fill="white" stroke="black" points="638.5,-241 638.5,-260 693.5,-260 693.5,-241 638.5,-241"/>
<text text-anchor="middle" x="666" y="-248" font-family="Helvetica,sans-Serif" font-size="10.00">phase.h</text>
</a>
</g>
</g>
<!-- Node2&#45;&gt;Node10 -->
<g id="edge10" class="edge">
<title>Node2&#45;&gt;Node10</title>
<path fill="none" stroke="midnightblue" d="M666,-297.54C666,-285.17 666,-269.62 666,-260.13"/>
<polygon fill="midnightblue" stroke="midnightblue" points="662.5,-297.73 666,-307.73 669.5,-297.73 662.5,-297.73"/>
</g>
<!-- Node11 -->
<g id="node11" class="node">
<title>Node11</title>
<g id="a_node11"><a xlink:href="route_8h.html" target="_top" xlink:title=" ">
<polygon fill="white" stroke="black" points="792.5,-174 792.5,-193 843.5,-193 843.5,-174 792.5,-174"/>
<text text-anchor="middle" x="818" y="-181" font-family="Helvetica,sans-Serif" font-size="10.00">route.h</text>
</a>
</g>
</g>
<!-- Node2&#45;&gt;Node11 -->
<g id="edge19" class="edge">
<title>Node2&#45;&gt;Node11</title>
<path fill="none" stroke="midnightblue" d="M722.25,-313.27C755.57,-308.13 795.37,-295.65 817,-266 833.01,-244.05 825.57,-209.18 820.85,-193.12"/>
<polygon fill="midnightblue" stroke="midnightblue" points="721.59,-309.83 712.15,-314.64 722.53,-316.77 721.59,-309.83"/>
</g>
<!-- Node12 -->
<g id="node12" class="node">
<title>Node12</title>
<g id="a_node12"><a xlink:href="router_8h.html" target="_top" xlink:title=" ">
<polygon fill="white" stroke="black" points="679.5,-112.5 679.5,-131.5 734.5,-131.5 734.5,-112.5 679.5,-112.5"/>
<text text-anchor="middle" x="707" y="-119.5" font-family="Helvetica,sans-Serif" font-size="10.00">router.h</text>
</a>
</g>
</g>
<!-- Node2&#45;&gt;Node12 -->
<g id="edge20" class="edge">
<title>Node2&#45;&gt;Node12</title>
<path fill="none" stroke="midnightblue" d="M649.98,-300.29C642.01,-291.06 633.19,-278.81 629,-266 624.72,-252.91 625.49,-248.32 629,-235 640.73,-190.55 679.47,-149.15 697.55,-131.7"/>
<polygon fill="midnightblue" stroke="midnightblue" points="647.57,-302.84 656.91,-307.84 652.73,-298.11 647.57,-302.84"/>
</g>
<!-- Node2&#45;&gt;Node15 -->
<g id="edge21" class="edge">
<title>Node2&#45;&gt;Node15</title>
<path fill="none" stroke="midnightblue" d="M720.3,-305.94C765.72,-296.7 832.04,-282.23 889,-266 895.08,-264.27 901.58,-262.16 907.6,-260.09"/>
<polygon fill="midnightblue" stroke="midnightblue" points="719.47,-302.54 710.37,-307.95 720.86,-309.4 719.47,-302.54"/>
</g>
<!-- Node17 -->
<g id="node17" class="node">
<title>Node17</title>
<g id="a_node17"><a xlink:href="generate__obj_8h.html" target="_top" xlink:title=" ">
<polygon fill="white" stroke="black" points="109.5,-241 109.5,-260 198.5,-260 198.5,-241 109.5,-241"/>
<text text-anchor="middle" x="154" y="-248" font-family="Helvetica,sans-Serif" font-size="10.00">generate_obj.h</text>
</a>
</g>
</g>
<!-- Node2&#45;&gt;Node17 -->
<g id="edge23" class="edge">
<title>Node2&#45;&gt;Node17</title>
<path fill="none" stroke="midnightblue" d="M609.33,-310.3C528.72,-301.34 376.37,-283.88 247,-266 231.3,-263.83 214.14,-261.22 198.89,-258.82"/>
<polygon fill="midnightblue" stroke="midnightblue" points="609.42,-313.83 619.74,-311.46 610.19,-306.88 609.42,-313.83"/>
</g>
<!-- Node21 -->
<g id="node21" class="node">
<title>Node21</title>
<g id="a_node21"><a xlink:href="road__network_8cc.html" target="_top" xlink:title=" ">
<polygon fill="white" stroke="black" points="711.5,-241 711.5,-260 808.5,-260 808.5,-241 711.5,-241"/>
<text text-anchor="middle" x="760" y="-248" font-family="Helvetica,sans-Serif" font-size="10.00">road_network.cc</text>
</a>
</g>
</g>
<!-- Node2&#45;&gt;Node21 -->
<g id="edge28" class="edge">
<title>Node2&#45;&gt;Node21</title>
<path fill="none" stroke="midnightblue" d="M687.09,-301.92C705.67,-289.07 732.12,-270.78 747.52,-260.13"/>
<polygon fill="midnightblue" stroke="midnightblue" points="684.91,-299.17 678.68,-307.73 688.89,-304.93 684.91,-299.17"/>
</g>
<!-- Node4 -->
<g id="node4" class="node">
<title>Node4</title>
<g id="a_node4"><a xlink:href="road__network__validator_8cc.html" target="_top" xlink:title=" ">
<polygon fill="white" stroke="black" points="263,-174 263,-193 409,-193 409,-174 263,-174"/>
<text text-anchor="middle" x="336" y="-181" font-family="Helvetica,sans-Serif" font-size="10.00">road_network_validator.cc</text>
</a>
</g>
</g>
<!-- Node3&#45;&gt;Node4 -->
<g id="edge3" class="edge">
<title>Node3&#45;&gt;Node4</title>
<path fill="none" stroke="midnightblue" d="M329.63,-230.54C331.34,-218.17 333.49,-202.62 334.81,-193.13"/>
<polygon fill="midnightblue" stroke="midnightblue" points="326.12,-230.35 328.21,-240.73 333.05,-231.31 326.12,-230.35"/>
</g>
<!-- Node6 -->
<g id="node6" class="node">
<title>Node6</title>
<g id="a_node6"><a xlink:href="distance__router_8cc.html" target="_top" xlink:title=" ">
<polygon fill="white" stroke="black" points="634,-0.5 634,-19.5 740,-19.5 740,-0.5 634,-0.5"/>
<text text-anchor="middle" x="687" y="-7.5" font-family="Helvetica,sans-Serif" font-size="10.00">distance_router.cc</text>
</a>
</g>
</g>
<!-- Node5&#45;&gt;Node6 -->
<g id="edge5" class="edge">
<title>Node5&#45;&gt;Node6</title>
<path fill="none" stroke="midnightblue" d="M757.68,-51.18C740.2,-41.24 717.17,-28.15 702.23,-19.65"/>
<polygon fill="midnightblue" stroke="midnightblue" points="756.31,-54.43 766.74,-56.32 759.77,-48.34 756.31,-54.43"/>
</g>
<!-- Node8 -->
<g id="node8" class="node">
<title>Node8</title>
<g id="a_node8"><a xlink:href="create__road__network_8cc.html" target="_top" xlink:title=" ">
<polygon fill="white" stroke="black" points="442.5,-112.5 442.5,-131.5 575.5,-131.5 575.5,-112.5 442.5,-112.5"/>
<text text-anchor="middle" x="509" y="-119.5" font-family="Helvetica,sans-Serif" font-size="10.00">create_road_network.cc</text>
</a>
</g>
</g>
<!-- Node7&#45;&gt;Node8 -->
<g id="edge7" class="edge">
<title>Node7&#45;&gt;Node8</title>
<path fill="none" stroke="midnightblue" d="M509,-163.82C509,-153 509,-139.9 509,-131.51"/>
<polygon fill="midnightblue" stroke="midnightblue" points="505.5,-163.98 509,-173.98 512.5,-163.98 505.5,-163.98"/>
</g>
<!-- Node9&#45;&gt;Node7 -->
<g id="edge9" class="edge">
<title>Node9&#45;&gt;Node7</title>
<path fill="none" stroke="midnightblue" d="M488.12,-231.29C493.69,-218.81 500.83,-202.81 505.15,-193.13"/>
<polygon fill="midnightblue" stroke="midnightblue" points="484.79,-230.18 483.91,-240.73 491.18,-233.03 484.79,-230.18"/>
</g>
<!-- Node10&#45;&gt;Node6 -->
<g id="edge17" class="edge">
<title>Node10&#45;&gt;Node6</title>
<path fill="none" stroke="midnightblue" d="M666.01,-230.49C666.07,-213.96 666.3,-189.4 667,-168 667.82,-143.09 667.26,-136.77 670,-112 673.81,-77.54 681.68,-36.97 685.21,-19.6"/>
<polygon fill="midnightblue" stroke="midnightblue" points="662.51,-230.92 665.99,-240.93 669.51,-230.94 662.51,-230.92"/>
</g>
<!-- Node10&#45;&gt;Node11 -->
<g id="edge11" class="edge">
<title>Node10&#45;&gt;Node11</title>
<path fill="none" stroke="midnightblue" d="M695.74,-236.78C725.84,-223.91 771.57,-204.35 797.73,-193.17"/>
<polygon fill="midnightblue" stroke="midnightblue" points="694,-233.72 686.18,-240.87 696.76,-240.15 694,-233.72"/>
</g>
<!-- Node10&#45;&gt;Node12 -->
<g id="edge16" class="edge">
<title>Node10&#45;&gt;Node12</title>
<path fill="none" stroke="midnightblue" d="M692.06,-236.17C712.43,-225.14 738.22,-209.63 744,-199 750.58,-186.9 748.65,-180.97 744,-168 738.75,-153.34 726.42,-140.03 717.44,-131.76"/>
<polygon fill="midnightblue" stroke="midnightblue" points="690.37,-233.1 683.18,-240.88 693.65,-239.29 690.37,-233.1"/>
</g>
<!-- Node14 -->
<g id="node14" class="node">
<title>Node14</title>
<g id="a_node14"><a xlink:href="routing_2phase_8cc.html" target="_top" xlink:title=" ">
<polygon fill="white" stroke="black" points="676.5,-174 676.5,-193 735.5,-193 735.5,-174 676.5,-174"/>
<text text-anchor="middle" x="706" y="-181" font-family="Helvetica,sans-Serif" font-size="10.00">phase.cc</text>
</a>
</g>
</g>
<!-- Node10&#45;&gt;Node14 -->
<g id="edge18" class="edge">
<title>Node10&#45;&gt;Node14</title>
<path fill="none" stroke="midnightblue" d="M676.75,-232.03C684.49,-219.45 694.61,-203.01 700.69,-193.13"/>
<polygon fill="midnightblue" stroke="midnightblue" points="673.65,-230.38 671.39,-240.73 679.62,-234.05 673.65,-230.38"/>
</g>
<!-- Node11&#45;&gt;Node5 -->
<g id="edge12" class="edge">
<title>Node11&#45;&gt;Node5</title>
<path fill="none" stroke="midnightblue" d="M821.31,-163.73C823.09,-149.19 823.88,-128.77 818,-112 812.9,-97.46 800.91,-84.13 792.16,-75.81"/>
<polygon fill="midnightblue" stroke="midnightblue" points="817.8,-163.54 819.77,-173.95 824.72,-164.58 817.8,-163.54"/>
</g>
<!-- Node11&#45;&gt;Node12 -->
<g id="edge13" class="edge">
<title>Node11&#45;&gt;Node12</title>
<path fill="none" stroke="midnightblue" d="M793.21,-169.21C771.71,-157.69 741.24,-141.36 722.87,-131.51"/>
<polygon fill="midnightblue" stroke="midnightblue" points="791.63,-172.34 802.1,-173.98 794.94,-166.17 791.63,-172.34"/>
</g>
<!-- Node13 -->
<g id="node13" class="node">
<title>Node13</title>
<g id="a_node13"><a xlink:href="route_8cc.html" target="_top" xlink:title=" ">
<polygon fill="white" stroke="black" points="753,-112.5 753,-131.5 809,-131.5 809,-112.5 753,-112.5"/>
<text text-anchor="middle" x="781" y="-119.5" font-family="Helvetica,sans-Serif" font-size="10.00">route.cc</text>
</a>
</g>
</g>
<!-- Node11&#45;&gt;Node13 -->
<g id="edge15" class="edge">
<title>Node11&#45;&gt;Node13</title>
<path fill="none" stroke="midnightblue" d="M807.22,-165.17C800.34,-154.11 791.73,-140.25 786.29,-131.51"/>
<polygon fill="midnightblue" stroke="midnightblue" points="804.45,-167.33 812.7,-173.98 810.39,-163.63 804.45,-167.33"/>
</g>
<!-- Node12&#45;&gt;Node5 -->
<g id="edge14" class="edge">
<title>Node12&#45;&gt;Node5</title>
<path fill="none" stroke="midnightblue" d="M727.31,-106.38C740.86,-96.62 758.24,-84.11 769.73,-75.83"/>
<polygon fill="midnightblue" stroke="midnightblue" points="725.12,-103.64 719.05,-112.32 729.21,-109.32 725.12,-103.64"/>
</g>
<!-- Node16 -->
<g id="node16" class="node">
<title>Node16</title>
<g id="a_node16"><a xlink:href="mock_8cc.html" target="_top" xlink:title=" ">
<polygon fill="white" stroke="black" points="903.5,-174 903.5,-193 960.5,-193 960.5,-174 903.5,-174"/>
<text text-anchor="middle" x="932" y="-181" font-family="Helvetica,sans-Serif" font-size="10.00">mock.cc</text>
</a>
</g>
</g>
<!-- Node15&#45;&gt;Node16 -->
<g id="edge22" class="edge">
<title>Node15&#45;&gt;Node16</title>
<path fill="none" stroke="midnightblue" d="M931.29,-230.54C931.48,-218.17 931.72,-202.62 931.87,-193.13"/>
<polygon fill="midnightblue" stroke="midnightblue" points="927.79,-230.68 931.13,-240.73 934.79,-230.79 927.79,-230.68"/>
</g>
<!-- Node18 -->
<g id="node18" class="node">
<title>Node18</title>
<g id="a_node18"><a xlink:href="generate__urdf_8h.html" target="_top" xlink:title=" ">
<polygon fill="white" stroke="black" points="39.5,-174 39.5,-193 132.5,-193 132.5,-174 39.5,-174"/>
<text text-anchor="middle" x="86" y="-181" font-family="Helvetica,sans-Serif" font-size="10.00">generate_urdf.h</text>
</a>
</g>
</g>
<!-- Node17&#45;&gt;Node18 -->
<g id="edge24" class="edge">
<title>Node17&#45;&gt;Node18</title>
<path fill="none" stroke="midnightblue" d="M137.26,-233.5C123.92,-220.75 105.77,-203.39 95.03,-193.13"/>
<polygon fill="midnightblue" stroke="midnightblue" points="135.18,-236.35 144.83,-240.73 140.02,-231.29 135.18,-236.35"/>
</g>
<!-- Node19 -->
<g id="node19" class="node">
<title>Node19</title>
<g id="a_node19"><a xlink:href="generate__urdf_8cc.html" target="_top" xlink:title=" ">
<polygon fill="white" stroke="black" points="0,-112.5 0,-131.5 98,-131.5 98,-112.5 0,-112.5"/>
<text text-anchor="middle" x="49" y="-119.5" font-family="Helvetica,sans-Serif" font-size="10.00">generate_urdf.cc</text>
</a>
</g>
</g>
<!-- Node17&#45;&gt;Node19 -->
<g id="edge27" class="edge">
<title>Node17&#45;&gt;Node19</title>
<path fill="none" stroke="midnightblue" d="M99.41,-241.49C73.81,-234.7 45.57,-222.16 30,-199 15.73,-177.78 32.67,-146.74 42.67,-131.75"/>
<polygon fill="midnightblue" stroke="midnightblue" points="98.89,-244.97 109.43,-243.91 100.53,-238.16 98.89,-244.97"/>
</g>
<!-- Node20 -->
<g id="node20" class="node">
<title>Node20</title>
<g id="a_node20"><a xlink:href="generate__obj_8cc.html" target="_top" xlink:title=" ">
<polygon fill="white" stroke="black" points="151,-174 151,-193 245,-193 245,-174 151,-174"/>
<text text-anchor="middle" x="198" y="-181" font-family="Helvetica,sans-Serif" font-size="10.00">generate_obj.cc</text>
</a>
</g>
</g>
<!-- Node17&#45;&gt;Node20 -->
<g id="edge26" class="edge">
<title>Node17&#45;&gt;Node20</title>
<path fill="none" stroke="midnightblue" d="M165.57,-232.4C174.12,-219.77 185.41,-203.1 192.16,-193.13"/>
<polygon fill="midnightblue" stroke="midnightblue" points="162.64,-230.49 159.93,-240.73 168.44,-234.41 162.64,-230.49"/>
</g>
<!-- Node18&#45;&gt;Node19 -->
<g id="edge25" class="edge">
<title>Node18&#45;&gt;Node19</title>
<path fill="none" stroke="midnightblue" d="M75.22,-165.17C68.34,-154.11 59.73,-140.25 54.29,-131.51"/>
<polygon fill="midnightblue" stroke="midnightblue" points="72.45,-167.33 80.7,-173.98 78.39,-163.63 72.45,-167.33"/>
</g>
<!-- Node22&#45;&gt;Node23 -->
<g id="edge30" class="edge">
<title>Node22&#45;&gt;Node23</title>
<path fill="none" stroke="midnightblue" d="M1087.89,-295.88C1076.34,-286.01 1062.81,-274.43 1052.46,-265.58"/>
<polygon fill="midnightblue" stroke="midnightblue" points="1085.63,-298.56 1095.51,-302.4 1090.18,-293.24 1085.63,-298.56"/>
</g>
<!-- Node25 -->
<g id="node25" class="node">
<title>Node25</title>
<g id="a_node25"><a xlink:href="manual__discrete__value__rule__state__provider_8cc.html" target="_top" xlink:title=" ">
<polygon fill="white" stroke="black" points="1114,-235.5 1114,-265.5 1244,-265.5 1244,-235.5 1114,-235.5"/>
<text text-anchor="start" x="1122" y="-253.5" font-family="Helvetica,sans-Serif" font-size="10.00">manual_discrete_value</text>
<text text-anchor="middle" x="1179" y="-242.5" font-family="Helvetica,sans-Serif" font-size="10.00">_rule_state_provider.cc</text>
</a>
</g>
</g>
<!-- Node22&#45;&gt;Node25 -->
<g id="edge32" class="edge">
<title>Node22&#45;&gt;Node25</title>
<path fill="none" stroke="midnightblue" d="M1133.84,-295.31C1143.89,-285.56 1155.54,-274.26 1164.49,-265.58"/>
<polygon fill="midnightblue" stroke="midnightblue" points="1131.28,-292.92 1126.54,-302.4 1136.15,-297.94 1131.28,-292.92"/>
</g>
<!-- Node24 -->
<g id="node24" class="node">
<title>Node24</title>
<g id="a_node24"><a xlink:href="phased__discrete__rule__state__provider_8cc.html" target="_top" xlink:title=" ">
<polygon fill="white" stroke="black" points="979,-168.5 979,-198.5 1099,-198.5 1099,-168.5 979,-168.5"/>
<text text-anchor="start" x="987" y="-186.5" font-family="Helvetica,sans-Serif" font-size="10.00">phased_discrete_rule</text>
<text text-anchor="middle" x="1039" y="-175.5" font-family="Helvetica,sans-Serif" font-size="10.00">_state_provider.cc</text>
</a>
</g>
</g>
<!-- Node23&#45;&gt;Node24 -->
<g id="edge31" class="edge">
<title>Node23&#45;&gt;Node24</title>
<path fill="none" stroke="midnightblue" d="M1037.11,-225.4C1037.53,-216.37 1037.99,-206.41 1038.35,-198.58"/>
<polygon fill="midnightblue" stroke="midnightblue" points="1033.62,-225.25 1036.65,-235.4 1040.61,-225.57 1033.62,-225.25"/>
</g>
<!-- Node27 -->
<g id="node27" class="node">
<title>Node27</title>
<g id="a_node27"><a xlink:href="rule__tools_8cc.html" target="_top" xlink:title=" ">
<polygon fill="white" stroke="black" points="1262,-241 1262,-260 1340,-260 1340,-241 1262,-241"/>
<text text-anchor="middle" x="1301" y="-248" font-family="Helvetica,sans-Serif" font-size="10.00">rule_tools.cc</text>
</a>
</g>
</g>
<!-- Node26&#45;&gt;Node27 -->
<g id="edge35" class="edge">
<title>Node26&#45;&gt;Node27</title>
<path fill="none" stroke="midnightblue" d="M1282.28,-298.29C1287.28,-285.81 1293.67,-269.81 1297.55,-260.13"/>
<polygon fill="midnightblue" stroke="midnightblue" points="1278.97,-297.15 1278.51,-307.73 1285.47,-299.75 1278.97,-297.15"/>
</g>
</g>
</svg>
        <g id="navigator" transform="translate(0 0)" fill="#404254">
                <rect fill="#f2f5e9" fill-opacity="0.5" stroke="#606060" stroke-width=".5" x="0" y="0" width="60" height="60"/>
                <use id="zoomplus" xlink:href="#zoomPlus" x="17" y="9" onmousedown="handleZoom(evt,'in')"/>
                <use id="zoomminus" xlink:href="#zoomMin" x="42" y="9" onmousedown="handleZoom(evt,'out')"/>
                <use id="reset" xlink:href="#resetDef" x="30" y="36" onmousedown="handleReset()"/>
                <g id="arrowUp" xlink:href="#dirArrow" transform="translate(30 24)" onmousedown="handlePan(0,-1)">
                  <use xlink:href="#rim" fill="#404040">
                        <set attributeName="fill" to="#808080" begin="arrowUp.mouseover" end="arrowUp.mouseout"/>
                  </use>
                  <path fill="none" stroke="white" stroke-width="1.5" d="M0,-3.0v7 M-2.5,-0.5L0,-3.0L2.5,-0.5"/>
                </g>
                <g id="arrowRight" xlink:href="#dirArrow" transform="rotate(90) translate(36 -43)" onmousedown="handlePan(1,0)">
                  <use xlink:href="#rim" fill="#404040">
                        <set attributeName="fill" to="#808080" begin="arrowRight.mouseover" end="arrowRight.mouseout"/>
                  </use>
                  <path fill="none" stroke="white" stroke-width="1.5" d="M0,-3.0v7 M-2.5,-0.5L0,-3.0L2.5,-0.5"/>
                </g>
                <g id="arrowDown" xlink:href="#dirArrow" transform="rotate(180) translate(-30 -48)" onmousedown="handlePan(0,1)">
                  <use xlink:href="#rim" fill="#404040">
                        <set attributeName="fill" to="#808080" begin="arrowDown.mouseover" end="arrowDown.mouseout"/>
                  </use>
                  <path fill="none" stroke="white" stroke-width="1.5" d="M0,-3.0v7 M-2.5,-0.5L0,-3.0L2.5,-0.5"/>
                </g>
                <g id="arrowLeft" xlink:href="#dirArrow" transform="rotate(270) translate(-36 17)" onmousedown="handlePan(-1,0)">
                  <use xlink:href="#rim" fill="#404040">
                        <set attributeName="fill" to="#808080" begin="arrowLeft.mouseover" end="arrowLeft.mouseout"/>
                  </use>
                  <path fill="none" stroke="white" stroke-width="1.5" d="M0,-3.0v7 M-2.5,-0.5L0,-3.0L2.5,-0.5"/>
                </g>
        </g>
        <svg viewBox="0 0 15 15" width="100%" height="30px" preserveAspectRatio="xMaxYMin meet">
         <g id="arrow_out" transform="scale(0.3 0.3)">
          <a xlink:href="discrete__value__rule__state__provider_8h__dep__incl_org.svg" target="_base">
           <rect id="button" ry="5" rx="5" y="6" x="6" height="38" width="38"
                fill="#f2f5e9" fill-opacity="0.5" stroke="#606060" stroke-width="1.0"/>
           <path id="arrow"
             d="M 11.500037,31.436501 C 11.940474,20.09759 22.043105,11.32322 32.158766,21.979434 L 37.068811,17.246167 C 37.068811,17.246167 37.088388,32 37.088388,32 L 22.160133,31.978069 C 22.160133,31.978069 26.997745,27.140456 26.997745,27.140456 C 18.528582,18.264221 13.291696,25.230495 11.500037,31.436501 z"
             style="fill:#404040;"/>
          </a>
         </g>
        </svg>
</svg>
