<?xml version="1.0" encoding="UTF-8" standalone="no"?>
<!DOCTYPE svg PUBLIC "-//W3C//DTD SVG 1.1//EN"
 "http://www.w3.org/Graphics/SVG/1.1/DTD/svg11.dtd">
<!-- Generated by graphviz version 2.43.0 (0)
 -->
<!-- Title: framework_common.h Pages: 1 -->
<svg width="1727pt" height="352pt"
 viewBox="0.00 0.00 1726.83 352.00" xmlns="http://www.w3.org/2000/svg" xmlns:xlink="http://www.w3.org/1999/xlink">
<g id="graph0" class="graph" transform="scale(1 1) rotate(0) translate(4 348)">
<title>framework_common.h</title>
<polygon fill="white" stroke="transparent" points="-4,4 -4,-348 1722.83,-348 1722.83,4 -4,4"/>
<!-- Node1 -->
<g id="node1" class="node">
<title>Node1</title>
<g id="a_node1"><a xlink:title=" ">
<polygon fill="#bfbfbf" stroke="black" points="533.5,-324.5 533.5,-343.5 660.5,-343.5 660.5,-324.5 533.5,-324.5"/>
<text text-anchor="middle" x="597" y="-331.5" font-family="Helvetica,sans-Serif" font-size="10.00">framework_common.h</text>
</a>
</g>
</g>
<!-- Node2 -->
<g id="node2" class="node">
<title>Node2</title>
<g id="a_node2"><a xlink:title=" ">
<polygon fill="white" stroke="#bfbfbf" points="0,-263 0,-282 64,-282 64,-263 0,-263"/>
<text text-anchor="middle" x="32" y="-270" font-family="Helvetica,sans-Serif" font-size="10.00">algorithm</text>
</a>
</g>
</g>
<!-- Node1&#45;&gt;Node2 -->
<g id="edge1" class="edge">
<title>Node1&#45;&gt;Node2</title>
<path fill="none" stroke="midnightblue" d="M533.26,-331.95C434.73,-329.32 239.9,-320.13 78,-288 73.84,-287.17 69.53,-286.11 65.29,-284.93"/>
<polygon fill="midnightblue" stroke="midnightblue" points="66.2,-281.55 55.62,-282.03 64.19,-288.26 66.2,-281.55"/>
</g>
<!-- Node3 -->
<g id="node3" class="node">
<title>Node3</title>
<g id="a_node3"><a xlink:title=" ">
<polygon fill="white" stroke="#bfbfbf" points="1548,-129 1548,-148 1606,-148 1606,-129 1548,-129"/>
<text text-anchor="middle" x="1577" y="-136" font-family="Helvetica,sans-Serif" font-size="10.00">memory</text>
</a>
</g>
</g>
<!-- Node1&#45;&gt;Node3 -->
<g id="edge2" class="edge">
<title>Node1&#45;&gt;Node3</title>
<path fill="none" stroke="midnightblue" d="M660.83,-331.66C885.66,-326.24 1630.9,-302.24 1696,-221 1722.93,-187.39 1659.96,-162.16 1615.73,-149.21"/>
<polygon fill="midnightblue" stroke="midnightblue" points="1616.64,-145.83 1606.07,-146.49 1614.74,-152.57 1616.64,-145.83"/>
</g>
<!-- Node4 -->
<g id="node4" class="node">
<title>Node4</title>
<g id="a_node4"><a xlink:title=" ">
<polygon fill="white" stroke="#bfbfbf" points="120,-129 120,-148 176,-148 176,-129 120,-129"/>
<text text-anchor="middle" x="148" y="-136" font-family="Helvetica,sans-Serif" font-size="10.00">optional</text>
</a>
</g>
</g>
<!-- Node1&#45;&gt;Node4 -->
<g id="edge3" class="edge">
<title>Node1&#45;&gt;Node4</title>
<path fill="none" stroke="midnightblue" d="M533.49,-333.53C472.95,-331.68 380.66,-322.62 309,-288 242.93,-256.08 184.99,-187.92 160.46,-156.28"/>
<polygon fill="midnightblue" stroke="midnightblue" points="163.04,-153.88 154.2,-148.04 157.47,-158.12 163.04,-153.88"/>
</g>
<!-- Node5 -->
<g id="node5" class="node">
<title>Node5</title>
<g id="a_node5"><a xlink:title=" ">
<polygon fill="white" stroke="#bfbfbf" points="884,-129 884,-148 928,-148 928,-129 884,-129"/>
<text text-anchor="middle" x="906" y="-136" font-family="Helvetica,sans-Serif" font-size="10.00">string</text>
</a>
</g>
</g>
<!-- Node1&#45;&gt;Node5 -->
<g id="edge4" class="edge">
<title>Node1&#45;&gt;Node5</title>
<path fill="none" stroke="midnightblue" d="M660.57,-331.6C736.86,-326.08 861.86,-304.01 921,-221 934.4,-202.19 925.1,-174.93 916.3,-157.21"/>
<polygon fill="midnightblue" stroke="midnightblue" points="919.17,-155.16 911.35,-148.02 913.01,-158.48 919.17,-155.16"/>
</g>
<!-- Node6 -->
<g id="node6" class="node">
<title>Node6</title>
<g id="a_node6"><a xlink:title=" ">
<polygon fill="white" stroke="#bfbfbf" points="1396.5,-62 1396.5,-81 1441.5,-81 1441.5,-62 1396.5,-62"/>
<text text-anchor="middle" x="1419" y="-69" font-family="Helvetica,sans-Serif" font-size="10.00">utility</text>
</a>
</g>
</g>
<!-- Node1&#45;&gt;Node6 -->
<g id="edge5" class="edge">
<title>Node1&#45;&gt;Node6</title>
<path fill="none" stroke="midnightblue" d="M660.78,-332.45C843.09,-330.47 1364.05,-321.92 1531,-288 1615.47,-270.84 1663.69,-291.7 1713,-221 1736.11,-187.87 1679.17,-124.6 1677,-123 1641.57,-96.87 1513.02,-81.44 1451.82,-75.43"/>
<polygon fill="midnightblue" stroke="midnightblue" points="1451.85,-71.91 1441.56,-74.45 1451.18,-78.88 1451.85,-71.91"/>
</g>
<!-- Node7 -->
<g id="node7" class="node">
<title>Node7</title>
<g id="a_node7"><a xlink:title=" ">
<polygon fill="white" stroke="#bfbfbf" points="517.5,-263 517.5,-282 568.5,-282 568.5,-263 517.5,-263"/>
<text text-anchor="middle" x="543" y="-270" font-family="Helvetica,sans-Serif" font-size="10.00">variant</text>
</a>
</g>
</g>
<!-- Node1&#45;&gt;Node7 -->
<g id="edge6" class="edge">
<title>Node1&#45;&gt;Node7</title>
<path fill="none" stroke="midnightblue" d="M589.26,-324.48C581,-315.37 567.72,-300.74 557.51,-289.48"/>
<polygon fill="midnightblue" stroke="midnightblue" points="560.03,-287.06 550.72,-282.01 554.85,-291.77 560.03,-287.06"/>
</g>
<!-- Node8 -->
<g id="node8" class="node">
<title>Node8</title>
<g id="a_node8"><a xlink:title=" ">
<polygon fill="white" stroke="#bfbfbf" points="692.5,-129 692.5,-148 739.5,-148 739.5,-129 692.5,-129"/>
<text text-anchor="middle" x="716" y="-136" font-family="Helvetica,sans-Serif" font-size="10.00">vector</text>
</a>
</g>
</g>
<!-- Node1&#45;&gt;Node8 -->
<g id="edge7" class="edge">
<title>Node1&#45;&gt;Node8</title>
<path fill="none" stroke="midnightblue" d="M561.15,-324.4C542.12,-317.81 520.37,-306.59 509,-288 501.81,-276.25 503.63,-269.69 509,-257 544,-174.23 599.28,-186.68 683,-154 684.6,-153.37 686.24,-152.72 687.89,-152.04"/>
<polygon fill="midnightblue" stroke="midnightblue" points="689.43,-155.19 697.27,-148.06 686.69,-148.74 689.43,-155.19"/>
</g>
<!-- Node9 -->
<g id="node9" class="node">
<title>Node9</title>
<g id="a_node9"><a xlink:href="drake__assert_8h.html" target="_top" xlink:title=" ">
<polygon fill="white" stroke="black" points="458,-56.5 458,-86.5 588,-86.5 588,-56.5 458,-56.5"/>
<text text-anchor="start" x="466" y="-74.5" font-family="Helvetica,sans-Serif" font-size="10.00">maliput/drake/common</text>
<text text-anchor="middle" x="523" y="-63.5" font-family="Helvetica,sans-Serif" font-size="10.00">/drake_assert.h</text>
</a>
</g>
</g>
<!-- Node1&#45;&gt;Node9 -->
<g id="edge8" class="edge">
<title>Node1&#45;&gt;Node9</title>
<path fill="none" stroke="midnightblue" d="M533.17,-329.03C449.11,-323.04 306.4,-309.97 259,-288 178.5,-250.68 146.98,-235.11 111,-154 105.41,-141.41 101.87,-133.32 111,-123 132.88,-98.27 334.61,-83.07 447.45,-76.42"/>
<polygon fill="midnightblue" stroke="midnightblue" points="447.97,-79.9 457.75,-75.83 447.56,-72.91 447.97,-79.9"/>
</g>
<!-- Node11 -->
<g id="node11" class="node">
<title>Node11</title>
<g id="a_node11"><a xlink:href="drake__deprecated_8h.html" target="_top" xlink:title=" ">
<polygon fill="white" stroke="black" points="987,-257.5 987,-287.5 1117,-287.5 1117,-257.5 987,-257.5"/>
<text text-anchor="start" x="995" y="-275.5" font-family="Helvetica,sans-Serif" font-size="10.00">maliput/drake/common</text>
<text text-anchor="middle" x="1052" y="-264.5" font-family="Helvetica,sans-Serif" font-size="10.00">/drake_deprecated.h</text>
</a>
</g>
</g>
<!-- Node1&#45;&gt;Node11 -->
<g id="edge10" class="edge">
<title>Node1&#45;&gt;Node11</title>
<path fill="none" stroke="midnightblue" d="M660.7,-326.6C735.61,-318.79 863.63,-304.56 973,-288 974.28,-287.81 975.57,-287.61 976.87,-287.4"/>
<polygon fill="midnightblue" stroke="midnightblue" points="977.65,-290.82 986.96,-285.77 976.53,-283.91 977.65,-290.82"/>
</g>
<!-- Node12 -->
<g id="node12" class="node">
<title>Node12</title>
<g id="a_node12"><a xlink:href="identifier_8h.html" target="_top" xlink:title=" ">
<polygon fill="white" stroke="black" points="318,-257.5 318,-287.5 448,-287.5 448,-257.5 318,-257.5"/>
<text text-anchor="start" x="326" y="-275.5" font-family="Helvetica,sans-Serif" font-size="10.00">maliput/drake/common</text>
<text text-anchor="middle" x="383" y="-264.5" font-family="Helvetica,sans-Serif" font-size="10.00">/identifier.h</text>
</a>
</g>
</g>
<!-- Node1&#45;&gt;Node12 -->
<g id="edge11" class="edge">
<title>Node1&#45;&gt;Node12</title>
<path fill="none" stroke="midnightblue" d="M566.34,-324.48C534.31,-315.57 483.23,-301.37 443.12,-290.22"/>
<polygon fill="midnightblue" stroke="midnightblue" points="444.01,-286.83 433.44,-287.52 442.13,-293.57 444.01,-286.83"/>
</g>
<!-- Node26 -->
<g id="node26" class="node">
<title>Node26</title>
<g id="a_node26"><a xlink:href="type__safe__index_8h.html" target="_top" xlink:title=" ">
<polygon fill="white" stroke="black" points="587,-257.5 587,-287.5 717,-287.5 717,-257.5 587,-257.5"/>
<text text-anchor="start" x="595" y="-275.5" font-family="Helvetica,sans-Serif" font-size="10.00">maliput/drake/common</text>
<text text-anchor="middle" x="652" y="-264.5" font-family="Helvetica,sans-Serif" font-size="10.00">/type_safe_index.h</text>
</a>
</g>
</g>
<!-- Node1&#45;&gt;Node26 -->
<g id="edge40" class="edge">
<title>Node1&#45;&gt;Node26</title>
<path fill="none" stroke="midnightblue" d="M604.88,-324.48C611.98,-316.79 622.72,-305.17 632.16,-294.96"/>
<polygon fill="midnightblue" stroke="midnightblue" points="634.82,-297.24 639.04,-287.52 629.68,-292.49 634.82,-297.24"/>
</g>
<!-- Node30 -->
<g id="node30" class="node">
<title>Node30</title>
<g id="a_node30"><a xlink:href="value_8h.html" target="_top" xlink:title=" ">
<polygon fill="white" stroke="black" points="1257,-257.5 1257,-287.5 1387,-287.5 1387,-257.5 1257,-257.5"/>
<text text-anchor="start" x="1265" y="-275.5" font-family="Helvetica,sans-Serif" font-size="10.00">maliput/drake/common</text>
<text text-anchor="middle" x="1322" y="-264.5" font-family="Helvetica,sans-Serif" font-size="10.00">/value.h</text>
</a>
</g>
</g>
<!-- Node1&#45;&gt;Node30 -->
<g id="edge54" class="edge">
<title>Node1&#45;&gt;Node30</title>
<path fill="none" stroke="midnightblue" d="M660.7,-327.77C794.41,-316.8 1103.75,-291.41 1246.87,-279.67"/>
<polygon fill="midnightblue" stroke="midnightblue" points="1247.2,-283.15 1256.88,-278.84 1246.63,-276.17 1247.2,-283.15"/>
</g>
<!-- Node10 -->
<g id="node10" class="node">
<title>Node10</title>
<g id="a_node10"><a xlink:title=" ">
<polygon fill="white" stroke="#bfbfbf" points="1016.5,-0.5 1016.5,-19.5 1085.5,-19.5 1085.5,-0.5 1016.5,-0.5"/>
<text text-anchor="middle" x="1051" y="-7.5" font-family="Helvetica,sans-Serif" font-size="10.00">type_traits</text>
</a>
</g>
</g>
<!-- Node9&#45;&gt;Node10 -->
<g id="edge9" class="edge">
<title>Node9&#45;&gt;Node10</title>
<path fill="none" stroke="midnightblue" d="M588.01,-63.17C696.81,-50.91 913.01,-26.55 1006.36,-16.03"/>
<polygon fill="midnightblue" stroke="midnightblue" points="1006.79,-19.5 1016.33,-14.91 1006,-12.55 1006.79,-19.5"/>
</g>
<!-- Node12&#45;&gt;Node5 -->
<g id="edge15" class="edge">
<title>Node12&#45;&gt;Node5</title>
<path fill="none" stroke="midnightblue" d="M448.32,-263.48C552.14,-250.62 744.61,-226.31 759,-221 782.83,-212.21 784.99,-202.68 807,-190 830.71,-176.34 858.53,-162.32 878.63,-152.53"/>
<polygon fill="midnightblue" stroke="midnightblue" points="880.34,-155.59 887.82,-148.08 877.3,-149.29 880.34,-155.59"/>
</g>
<!-- Node13 -->
<g id="node13" class="node">
<title>Node13</title>
<g id="a_node13"><a xlink:title=" ">
<polygon fill="white" stroke="#bfbfbf" points="291,-196 291,-215 341,-215 341,-196 291,-196"/>
<text text-anchor="middle" x="316" y="-203" font-family="Helvetica,sans-Serif" font-size="10.00">atomic</text>
</a>
</g>
</g>
<!-- Node12&#45;&gt;Node13 -->
<g id="edge12" class="edge">
<title>Node12&#45;&gt;Node13</title>
<path fill="none" stroke="midnightblue" d="M368.46,-257.4C357.81,-247.06 343.34,-233.02 332.3,-222.31"/>
<polygon fill="midnightblue" stroke="midnightblue" points="334.58,-219.65 324.96,-215.19 329.7,-224.67 334.58,-219.65"/>
</g>
<!-- Node14 -->
<g id="node14" class="node">
<title>Node14</title>
<g id="a_node14"><a xlink:title=" ">
<polygon fill="white" stroke="#bfbfbf" points="342,-129 342,-148 392,-148 392,-129 342,-129"/>
<text text-anchor="middle" x="367" y="-136" font-family="Helvetica,sans-Serif" font-size="10.00">cstdint</text>
</a>
</g>
</g>
<!-- Node12&#45;&gt;Node14 -->
<g id="edge13" class="edge">
<title>Node12&#45;&gt;Node14</title>
<path fill="none" stroke="midnightblue" d="M381.29,-257.37C378.38,-233.4 372.48,-184.75 369.25,-158.06"/>
<polygon fill="midnightblue" stroke="midnightblue" points="372.72,-157.6 368.04,-148.1 365.77,-158.45 372.72,-157.6"/>
</g>
<!-- Node15 -->
<g id="node15" class="node">
<title>Node15</title>
<g id="a_node15"><a xlink:title=" ">
<polygon fill="white" stroke="#bfbfbf" points="410.5,-129 410.5,-148 475.5,-148 475.5,-129 410.5,-129"/>
<text text-anchor="middle" x="443" y="-136" font-family="Helvetica,sans-Serif" font-size="10.00">functional</text>
</a>
</g>
</g>
<!-- Node12&#45;&gt;Node15 -->
<g id="edge14" class="edge">
<title>Node12&#45;&gt;Node15</title>
<path fill="none" stroke="midnightblue" d="M389.42,-257.37C400.42,-233.18 422.83,-183.88 434.89,-157.35"/>
<polygon fill="midnightblue" stroke="midnightblue" points="438.14,-158.65 439.09,-148.1 431.77,-155.75 438.14,-158.65"/>
</g>
<!-- Node16 -->
<g id="node16" class="node">
<title>Node16</title>
<g id="a_node16"><a xlink:href="drake__copyable_8h.html" target="_top" xlink:title=" ">
<polygon fill="white" stroke="black" points="1047,-56.5 1047,-86.5 1177,-86.5 1177,-56.5 1047,-56.5"/>
<text text-anchor="start" x="1055" y="-74.5" font-family="Helvetica,sans-Serif" font-size="10.00">maliput/drake/common</text>
<text text-anchor="middle" x="1112" y="-63.5" font-family="Helvetica,sans-Serif" font-size="10.00">/drake_copyable.h</text>
</a>
</g>
</g>
<!-- Node12&#45;&gt;Node16 -->
<g id="edge16" class="edge">
<title>Node12&#45;&gt;Node16</title>
<path fill="none" stroke="midnightblue" d="M448.14,-264.04C540.61,-253.13 701.51,-232.83 726,-221 744.12,-212.24 742.4,-201.38 759,-190 789.5,-169.1 802.43,-173.25 834,-154 853.51,-142.11 854.22,-132.5 875,-123 926.35,-99.53 988.99,-86.79 1036.98,-79.98"/>
<polygon fill="midnightblue" stroke="midnightblue" points="1037.55,-83.43 1046.99,-78.61 1036.6,-76.5 1037.55,-83.43"/>
</g>
<!-- Node17 -->
<g id="node17" class="node">
<title>Node17</title>
<g id="a_node17"><a xlink:href="drake__throw_8h.html" target="_top" xlink:title=" ">
<polygon fill="white" stroke="black" points="194,-123.5 194,-153.5 324,-153.5 324,-123.5 194,-123.5"/>
<text text-anchor="start" x="202" y="-141.5" font-family="Helvetica,sans-Serif" font-size="10.00">maliput/drake/common</text>
<text text-anchor="middle" x="259" y="-130.5" font-family="Helvetica,sans-Serif" font-size="10.00">/drake_throw.h</text>
</a>
</g>
</g>
<!-- Node12&#45;&gt;Node17 -->
<g id="edge17" class="edge">
<title>Node12&#45;&gt;Node17</title>
<path fill="none" stroke="midnightblue" d="M336.11,-257.49C316.89,-249.59 295.93,-237.84 282,-221 268.65,-204.86 263.04,-181.45 260.68,-163.86"/>
<polygon fill="midnightblue" stroke="midnightblue" points="264.15,-163.34 259.6,-153.77 257.19,-164.09 264.15,-163.34"/>
</g>
<!-- Node18 -->
<g id="node18" class="node">
<title>Node18</title>
<g id="a_node18"><a xlink:href="hash_8h.html" target="_top" xlink:title=" ">
<polygon fill="white" stroke="black" points="587,-190.5 587,-220.5 717,-220.5 717,-190.5 587,-190.5"/>
<text text-anchor="start" x="595" y="-208.5" font-family="Helvetica,sans-Serif" font-size="10.00">maliput/drake/common</text>
<text text-anchor="middle" x="652" y="-197.5" font-family="Helvetica,sans-Serif" font-size="10.00">/hash.h</text>
</a>
</g>
</g>
<!-- Node12&#45;&gt;Node18 -->
<g id="edge20" class="edge">
<title>Node12&#45;&gt;Node18</title>
<path fill="none" stroke="midnightblue" d="M441.04,-257.48C482.97,-247.34 539.74,-233.63 583.83,-222.97"/>
<polygon fill="midnightblue" stroke="midnightblue" points="584.7,-226.36 593.6,-220.61 583.06,-219.56 584.7,-226.36"/>
</g>
<!-- Node24 -->
<g id="node24" class="node">
<title>Node24</title>
<g id="a_node24"><a xlink:href="never__destroyed_8h.html" target="_top" xlink:title=" ">
<polygon fill="white" stroke="black" points="1172,-123.5 1172,-153.5 1302,-153.5 1302,-123.5 1172,-123.5"/>
<text text-anchor="start" x="1180" y="-141.5" font-family="Helvetica,sans-Serif" font-size="10.00">maliput/drake/common</text>
<text text-anchor="middle" x="1237" y="-130.5" font-family="Helvetica,sans-Serif" font-size="10.00">/never_destroyed.h</text>
</a>
</g>
</g>
<!-- Node12&#45;&gt;Node24 -->
<g id="edge35" class="edge">
<title>Node12&#45;&gt;Node24</title>
<path fill="none" stroke="midnightblue" d="M448.41,-263.94C563.05,-250.64 788.96,-224.15 797,-221 818.94,-212.41 818.08,-198.64 840,-190 869.19,-178.49 1054.92,-158.07 1161.69,-147.05"/>
<polygon fill="midnightblue" stroke="midnightblue" points="1162.18,-150.52 1171.77,-146.02 1161.46,-143.56 1162.18,-150.52"/>
</g>
<!-- Node17&#45;&gt;Node9 -->
<g id="edge19" class="edge">
<title>Node17&#45;&gt;Node9</title>
<path fill="none" stroke="midnightblue" d="M315.96,-123.48C357.02,-113.37 412.59,-99.68 455.82,-89.04"/>
<polygon fill="midnightblue" stroke="midnightblue" points="456.81,-92.4 465.69,-86.61 455.14,-85.6 456.81,-92.4"/>
</g>
<!-- Node17&#45;&gt;Node10 -->
<g id="edge18" class="edge">
<title>Node17&#45;&gt;Node10</title>
<path fill="none" stroke="midnightblue" d="M284.18,-123.48C319.71,-104.46 387.12,-71.14 449,-56 554.72,-30.14 885.15,-16.62 1006.08,-12.44"/>
<polygon fill="midnightblue" stroke="midnightblue" points="1006.24,-15.94 1016.11,-12.1 1006,-8.94 1006.24,-15.94"/>
</g>
<!-- Node18&#45;&gt;Node4 -->
<g id="edge27" class="edge">
<title>Node18&#45;&gt;Node4</title>
<path fill="none" stroke="midnightblue" d="M586.85,-202.9C495.72,-199.43 325.58,-188.49 185,-154 182.17,-153.31 179.27,-152.45 176.4,-151.5"/>
<polygon fill="midnightblue" stroke="midnightblue" points="177.48,-148.17 166.89,-148.02 175.08,-154.74 177.48,-148.17"/>
</g>
<!-- Node18&#45;&gt;Node5 -->
<g id="edge29" class="edge">
<title>Node18&#45;&gt;Node5</title>
<path fill="none" stroke="midnightblue" d="M706.8,-190.48C757.76,-177.44 831.93,-158.46 873.9,-147.71"/>
<polygon fill="midnightblue" stroke="midnightblue" points="875.03,-151.04 883.85,-145.17 873.29,-144.26 875.03,-151.04"/>
</g>
<!-- Node18&#45;&gt;Node6 -->
<g id="edge31" class="edge">
<title>Node18&#45;&gt;Node6</title>
<path fill="none" stroke="midnightblue" d="M717.25,-199.46C753.42,-196.66 799.2,-193.13 840,-190 944.66,-181.96 1214.95,-196.34 1311,-154 1329.41,-145.88 1328.27,-135.55 1344,-123 1360.67,-109.7 1380.76,-96.3 1395.95,-86.65"/>
<polygon fill="midnightblue" stroke="midnightblue" points="1398.09,-89.44 1404.7,-81.16 1394.37,-83.51 1398.09,-89.44"/>
</g>
<!-- Node18&#45;&gt;Node8 -->
<g id="edge32" class="edge">
<title>Node18&#45;&gt;Node8</title>
<path fill="none" stroke="midnightblue" d="M665.89,-190.4C675.96,-180.16 689.62,-166.3 700.13,-155.62"/>
<polygon fill="midnightblue" stroke="midnightblue" points="702.92,-157.78 707.44,-148.19 697.93,-152.86 702.92,-157.78"/>
</g>
<!-- Node18&#45;&gt;Node9 -->
<g id="edge33" class="edge">
<title>Node18&#45;&gt;Node9</title>
<path fill="none" stroke="midnightblue" d="M615.68,-190.38C597.74,-181.97 576.82,-169.82 562,-154 546.58,-137.54 536.18,-113.86 530.02,-96.26"/>
<polygon fill="midnightblue" stroke="midnightblue" points="533.33,-95.12 526.88,-86.71 526.68,-97.3 533.33,-95.12"/>
</g>
<!-- Node18&#45;&gt;Node10 -->
<g id="edge30" class="edge">
<title>Node18&#45;&gt;Node10</title>
<path fill="none" stroke="midnightblue" d="M704.9,-190.44C733.58,-181.81 769.17,-169.45 799,-154 819.92,-143.17 822.02,-135.48 842,-123 905.22,-83.51 983.57,-43.85 1024.02,-24.02"/>
<polygon fill="midnightblue" stroke="midnightblue" points="1025.77,-27.06 1033.22,-19.53 1022.7,-20.77 1025.77,-27.06"/>
</g>
<!-- Node18&#45;&gt;Node14 -->
<g id="edge23" class="edge">
<title>Node18&#45;&gt;Node14</title>
<path fill="none" stroke="midnightblue" d="M586.87,-195.15C535.66,-186.9 462.88,-173.2 401,-154 398.86,-153.34 396.67,-152.58 394.48,-151.78"/>
<polygon fill="midnightblue" stroke="midnightblue" points="395.68,-148.49 385.09,-148.03 393.08,-154.99 395.68,-148.49"/>
</g>
<!-- Node18&#45;&gt;Node15 -->
<g id="edge24" class="edge">
<title>Node18&#45;&gt;Node15</title>
<path fill="none" stroke="midnightblue" d="M606.91,-190.48C569.12,-178.72 515.81,-162.14 480.36,-151.12"/>
<polygon fill="midnightblue" stroke="midnightblue" points="481.01,-147.66 470.42,-148.03 478.93,-154.34 481.01,-147.66"/>
</g>
<!-- Node18&#45;&gt;Node17 -->
<g id="edge34" class="edge">
<title>Node18&#45;&gt;Node17</title>
<path fill="none" stroke="midnightblue" d="M586.82,-194.89C524.47,-185.54 427.55,-170.59 334.24,-154.18"/>
<polygon fill="midnightblue" stroke="midnightblue" points="334.8,-150.73 324.35,-152.44 333.58,-157.62 334.8,-150.73"/>
</g>
<!-- Node19 -->
<g id="node19" class="node">
<title>Node19</title>
<g id="a_node19"><a xlink:title=" ">
<polygon fill="white" stroke="#bfbfbf" points="570.5,-129 570.5,-148 617.5,-148 617.5,-129 570.5,-129"/>
<text text-anchor="middle" x="594" y="-136" font-family="Helvetica,sans-Serif" font-size="10.00">cmath</text>
</a>
</g>
</g>
<!-- Node18&#45;&gt;Node19 -->
<g id="edge21" class="edge">
<title>Node18&#45;&gt;Node19</title>
<path fill="none" stroke="midnightblue" d="M639.41,-190.4C630.37,-180.26 618.15,-166.57 608.67,-155.94"/>
<polygon fill="midnightblue" stroke="midnightblue" points="611.03,-153.33 601.76,-148.19 605.8,-157.99 611.03,-153.33"/>
</g>
<!-- Node20 -->
<g id="node20" class="node">
<title>Node20</title>
<g id="a_node20"><a xlink:title=" ">
<polygon fill="white" stroke="#bfbfbf" points="946.5,-129 946.5,-148 999.5,-148 999.5,-129 946.5,-129"/>
<text text-anchor="middle" x="973" y="-136" font-family="Helvetica,sans-Serif" font-size="10.00">cstddef</text>
</a>
</g>
</g>
<!-- Node18&#45;&gt;Node20 -->
<g id="edge22" class="edge">
<title>Node18&#45;&gt;Node20</title>
<path fill="none" stroke="midnightblue" d="M717.1,-196.88C775.44,-189.13 862.97,-175.22 937,-154 939.44,-153.3 941.94,-152.5 944.42,-151.63"/>
<polygon fill="midnightblue" stroke="midnightblue" points="945.71,-154.88 953.83,-148.08 943.24,-148.34 945.71,-154.88"/>
</g>
<!-- Node21 -->
<g id="node21" class="node">
<title>Node21</title>
<g id="a_node21"><a xlink:title=" ">
<polygon fill="white" stroke="#bfbfbf" points="1018,-129 1018,-148 1078,-148 1078,-129 1018,-129"/>
<text text-anchor="middle" x="1048" y="-136" font-family="Helvetica,sans-Serif" font-size="10.00">iostream</text>
</a>
</g>
</g>
<!-- Node18&#45;&gt;Node21 -->
<g id="edge25" class="edge">
<title>Node18&#45;&gt;Node21</title>
<path fill="none" stroke="midnightblue" d="M717.31,-199.51C789.52,-193.02 908.88,-179.38 1009,-154 1011.98,-153.24 1015.06,-152.34 1018.1,-151.35"/>
<polygon fill="midnightblue" stroke="midnightblue" points="1019.34,-154.63 1027.62,-148.02 1017.02,-148.02 1019.34,-154.63"/>
</g>
<!-- Node22 -->
<g id="node22" class="node">
<title>Node22</title>
<g id="a_node22"><a xlink:title=" ">
<polygon fill="white" stroke="#bfbfbf" points="636,-129 636,-148 674,-148 674,-129 636,-129"/>
<text text-anchor="middle" x="655" y="-136" font-family="Helvetica,sans-Serif" font-size="10.00">map</text>
</a>
</g>
</g>
<!-- Node18&#45;&gt;Node22 -->
<g id="edge26" class="edge">
<title>Node18&#45;&gt;Node22</title>
<path fill="none" stroke="midnightblue" d="M652.65,-190.4C653.09,-180.96 653.66,-168.45 654.14,-158.19"/>
<polygon fill="midnightblue" stroke="midnightblue" points="657.63,-158.35 654.6,-148.19 650.64,-158.02 657.63,-158.35"/>
</g>
<!-- Node23 -->
<g id="node23" class="node">
<title>Node23</title>
<g id="a_node23"><a xlink:title=" ">
<polygon fill="white" stroke="#bfbfbf" points="758,-129 758,-148 790,-148 790,-129 758,-129"/>
<text text-anchor="middle" x="774" y="-136" font-family="Helvetica,sans-Serif" font-size="10.00">set</text>
</a>
</g>
</g>
<!-- Node18&#45;&gt;Node23 -->
<g id="edge28" class="edge">
<title>Node18&#45;&gt;Node23</title>
<path fill="none" stroke="midnightblue" d="M679.77,-190.47C699.27,-180.51 725.88,-166.72 749,-154 749.54,-153.71 750.08,-153.41 750.62,-153.1"/>
<polygon fill="midnightblue" stroke="midnightblue" points="752.56,-156.03 759.52,-148.05 749.1,-149.94 752.56,-156.03"/>
</g>
<!-- Node24&#45;&gt;Node6 -->
<g id="edge38" class="edge">
<title>Node24&#45;&gt;Node6</title>
<path fill="none" stroke="midnightblue" d="M1276.49,-123.4C1309.46,-111.62 1355.88,-95.04 1386.67,-84.05"/>
<polygon fill="midnightblue" stroke="midnightblue" points="1388.23,-87.2 1396.47,-80.55 1385.88,-80.61 1388.23,-87.2"/>
</g>
<!-- Node24&#45;&gt;Node10 -->
<g id="edge37" class="edge">
<title>Node24&#45;&gt;Node10</title>
<path fill="none" stroke="midnightblue" d="M1243.04,-123.42C1249.59,-105.69 1257.22,-75.23 1242,-56 1224.09,-33.39 1146.31,-21 1095.69,-15.2"/>
<polygon fill="midnightblue" stroke="midnightblue" points="1095.97,-11.71 1085.65,-14.1 1095.2,-18.67 1095.97,-11.71"/>
</g>
<!-- Node24&#45;&gt;Node16 -->
<g id="edge39" class="edge">
<title>Node24&#45;&gt;Node16</title>
<path fill="none" stroke="midnightblue" d="M1209.88,-123.4C1191.78,-113.98 1167.77,-101.5 1148.07,-91.26"/>
<polygon fill="midnightblue" stroke="midnightblue" points="1149.56,-88.08 1139.07,-86.58 1146.33,-94.3 1149.56,-88.08"/>
</g>
<!-- Node25 -->
<g id="node25" class="node">
<title>Node25</title>
<g id="a_node25"><a xlink:title=" ">
<polygon fill="white" stroke="#bfbfbf" points="1195.5,-62 1195.5,-81 1232.5,-81 1232.5,-62 1195.5,-62"/>
<text text-anchor="middle" x="1214" y="-69" font-family="Helvetica,sans-Serif" font-size="10.00">new</text>
</a>
</g>
</g>
<!-- Node24&#45;&gt;Node25 -->
<g id="edge36" class="edge">
<title>Node24&#45;&gt;Node25</title>
<path fill="none" stroke="midnightblue" d="M1232.01,-123.4C1228.64,-113.86 1224.15,-101.18 1220.5,-90.86"/>
<polygon fill="midnightblue" stroke="midnightblue" points="1223.71,-89.45 1217.08,-81.19 1217.11,-91.79 1223.71,-89.45"/>
</g>
<!-- Node26&#45;&gt;Node5 -->
<g id="edge43" class="edge">
<title>Node26&#45;&gt;Node5</title>
<path fill="none" stroke="midnightblue" d="M717.09,-267.23C782.97,-261.43 878.4,-248.45 902,-221 916.76,-203.84 914.65,-176.36 910.99,-158.12"/>
<polygon fill="midnightblue" stroke="midnightblue" points="914.39,-157.31 908.7,-148.37 907.57,-158.9 914.39,-157.31"/>
</g>
<!-- Node26&#45;&gt;Node9 -->
<g id="edge44" class="edge">
<title>Node26&#45;&gt;Node9</title>
<path fill="none" stroke="midnightblue" d="M626,-257.49C610.8,-248.44 591.94,-235.65 578,-221 553.94,-195.71 549.29,-186.68 537,-154 530.04,-135.48 526.51,-113.28 524.74,-96.73"/>
<polygon fill="midnightblue" stroke="midnightblue" points="528.23,-96.4 523.82,-86.77 521.26,-97.05 528.23,-96.4"/>
</g>
<!-- Node26&#45;&gt;Node15 -->
<g id="edge41" class="edge">
<title>Node26&#45;&gt;Node15</title>
<path fill="none" stroke="midnightblue" d="M616.71,-257.32C595.32,-248.13 567.83,-235.24 545,-221 512.86,-200.96 479.21,-172.35 459.72,-154.9"/>
<polygon fill="midnightblue" stroke="midnightblue" points="462.04,-152.28 452.28,-148.16 457.35,-157.47 462.04,-152.28"/>
</g>
<!-- Node26&#45;&gt;Node17 -->
<g id="edge45" class="edge">
<title>Node26&#45;&gt;Node17</title>
<path fill="none" stroke="midnightblue" d="M609.39,-257.41C578.91,-247.32 536.91,-233.37 500,-221 434.38,-199 358.79,-173.4 310.03,-156.84"/>
<polygon fill="midnightblue" stroke="midnightblue" points="310.94,-153.46 300.34,-153.56 308.69,-160.09 310.94,-153.46"/>
</g>
<!-- Node26&#45;&gt;Node18 -->
<g id="edge46" class="edge">
<title>Node26&#45;&gt;Node18</title>
<path fill="none" stroke="midnightblue" d="M652,-257.4C652,-249.64 652,-239.81 652,-230.86"/>
<polygon fill="midnightblue" stroke="midnightblue" points="655.5,-230.58 652,-220.58 648.5,-230.58 655.5,-230.58"/>
</g>
<!-- Node27 -->
<g id="node27" class="node">
<title>Node27</title>
<g id="a_node27"><a xlink:title=" ">
<polygon fill="white" stroke="#bfbfbf" points="849,-196 849,-215 893,-215 893,-196 849,-196"/>
<text text-anchor="middle" x="871" y="-203" font-family="Helvetica,sans-Serif" font-size="10.00">limits</text>
</a>
</g>
</g>
<!-- Node26&#45;&gt;Node27 -->
<g id="edge42" class="edge">
<title>Node26&#45;&gt;Node27</title>
<path fill="none" stroke="midnightblue" d="M709.38,-257.45C745.7,-248.12 793.48,-235.04 835,-221 837.13,-220.28 839.31,-219.5 841.5,-218.7"/>
<polygon fill="midnightblue" stroke="midnightblue" points="842.9,-221.9 850.97,-215.04 840.38,-215.37 842.9,-221.9"/>
</g>
<!-- Node28 -->
<g id="node28" class="node">
<title>Node28</title>
<g id="a_node28"><a xlink:href="nice__type__name_8h.html" target="_top" xlink:title=" ">
<polygon fill="white" stroke="black" points="1063,-190.5 1063,-220.5 1193,-220.5 1193,-190.5 1063,-190.5"/>
<text text-anchor="start" x="1071" y="-208.5" font-family="Helvetica,sans-Serif" font-size="10.00">maliput/drake/common</text>
<text text-anchor="middle" x="1128" y="-197.5" font-family="Helvetica,sans-Serif" font-size="10.00">/nice_type_name.h</text>
</a>
</g>
</g>
<!-- Node26&#45;&gt;Node28 -->
<g id="edge47" class="edge">
<title>Node26&#45;&gt;Node28</title>
<path fill="none" stroke="midnightblue" d="M717.19,-262.6C804.8,-250.63 960.21,-229.41 1052.71,-216.78"/>
<polygon fill="midnightblue" stroke="midnightblue" points="1053.4,-220.22 1062.84,-215.4 1052.46,-213.28 1053.4,-220.22"/>
</g>
<!-- Node28&#45;&gt;Node3 -->
<g id="edge48" class="edge">
<title>Node28&#45;&gt;Node3</title>
<path fill="none" stroke="midnightblue" d="M1193.33,-191.48C1196.26,-190.97 1199.16,-190.47 1202,-190 1266.18,-179.4 1455.46,-154.98 1537.89,-144.47"/>
<polygon fill="midnightblue" stroke="midnightblue" points="1538.39,-147.93 1547.87,-143.19 1537.5,-140.99 1538.39,-147.93"/>
</g>
<!-- Node28&#45;&gt;Node5 -->
<g id="edge49" class="edge">
<title>Node28&#45;&gt;Node5</title>
<path fill="none" stroke="midnightblue" d="M1064.73,-190.47C1027.39,-181.5 979.47,-168.79 938,-154 936.34,-153.41 934.65,-152.77 932.95,-152.09"/>
<polygon fill="midnightblue" stroke="midnightblue" points="933.96,-148.72 923.39,-148.01 931.21,-155.15 933.96,-148.72"/>
</g>
<!-- Node28&#45;&gt;Node6 -->
<g id="edge51" class="edge">
<title>Node28&#45;&gt;Node6</title>
<path fill="none" stroke="midnightblue" d="M1193.23,-191.28C1251.91,-179.05 1330.88,-161.66 1344,-154 1371.56,-137.91 1394.91,-108.43 1407.92,-89.68"/>
<polygon fill="midnightblue" stroke="midnightblue" points="1410.94,-91.47 1413.6,-81.22 1405.12,-87.57 1410.94,-91.47"/>
</g>
<!-- Node28&#45;&gt;Node8 -->
<g id="edge52" class="edge">
<title>Node28&#45;&gt;Node8</title>
<path fill="none" stroke="midnightblue" d="M1062.84,-201.39C986.43,-196.47 856.54,-184.14 749,-154 746.85,-153.4 744.65,-152.68 742.47,-151.89"/>
<polygon fill="midnightblue" stroke="midnightblue" points="743.71,-148.62 733.13,-148.12 741.09,-155.11 743.71,-148.62"/>
</g>
<!-- Node28&#45;&gt;Node24 -->
<g id="edge53" class="edge">
<title>Node28&#45;&gt;Node24</title>
<path fill="none" stroke="midnightblue" d="M1151.65,-190.4C1167.08,-181.2 1187.42,-169.07 1204.38,-158.95"/>
<polygon fill="midnightblue" stroke="midnightblue" points="1206.6,-161.7 1213.39,-153.58 1203.01,-155.69 1206.6,-161.7"/>
</g>
<!-- Node29 -->
<g id="node29" class="node">
<title>Node29</title>
<g id="a_node29"><a xlink:title=" ">
<polygon fill="white" stroke="#bfbfbf" points="1396.5,-129 1396.5,-148 1453.5,-148 1453.5,-129 1396.5,-129"/>
<text text-anchor="middle" x="1425" y="-136" font-family="Helvetica,sans-Serif" font-size="10.00">typeinfo</text>
</a>
</g>
</g>
<!-- Node28&#45;&gt;Node29 -->
<g id="edge50" class="edge">
<title>Node28&#45;&gt;Node29</title>
<path fill="none" stroke="midnightblue" d="M1193.17,-191.65C1266.89,-177.1 1377.38,-155.23 1382,-154 1385.2,-153.15 1388.5,-152.18 1391.79,-151.17"/>
<polygon fill="midnightblue" stroke="midnightblue" points="1393.07,-154.44 1401.51,-148.03 1390.92,-147.77 1393.07,-154.44"/>
</g>
<!-- Node30&#45;&gt;Node3 -->
<g id="edge55" class="edge">
<title>Node30&#45;&gt;Node3</title>
<path fill="none" stroke="midnightblue" d="M1387.39,-258.75C1419.12,-250.82 1456.99,-238.69 1488,-221 1518.18,-203.78 1546.61,-174.66 1562.89,-156.29"/>
<polygon fill="midnightblue" stroke="midnightblue" points="1565.97,-158.09 1569.86,-148.24 1560.67,-153.51 1565.97,-158.09"/>
</g>
<!-- Node30&#45;&gt;Node5 -->
<g id="edge57" class="edge">
<title>Node30&#45;&gt;Node5</title>
<path fill="none" stroke="midnightblue" d="M1256.87,-268.96C1194.3,-264.61 1098.14,-252.84 1021,-221 1010.6,-216.71 955.83,-176.55 925.78,-154.25"/>
<polygon fill="midnightblue" stroke="midnightblue" points="927.78,-151.38 917.67,-148.22 923.6,-157 927.78,-151.38"/>
</g>
<!-- Node30&#45;&gt;Node6 -->
<g id="edge60" class="edge">
<title>Node30&#45;&gt;Node6</title>
<path fill="none" stroke="midnightblue" d="M1387.33,-267.3C1489.12,-260.07 1676.03,-243.85 1696,-221 1770.88,-135.33 1539.99,-90.7 1451.77,-77.09"/>
<polygon fill="midnightblue" stroke="midnightblue" points="1452.16,-73.61 1441.75,-75.58 1451.12,-80.53 1452.16,-73.61"/>
</g>
<!-- Node30&#45;&gt;Node10 -->
<g id="edge58" class="edge">
<title>Node30&#45;&gt;Node10</title>
<path fill="none" stroke="midnightblue" d="M1330.5,-257.25C1341.82,-239.35 1363.43,-208.71 1389,-190 1423.77,-164.56 1454.85,-189.67 1479,-154 1498.62,-125.02 1454.32,-58.49 1451,-56 1395.89,-14.67 1188.43,-10.31 1095.96,-10.49"/>
<polygon fill="midnightblue" stroke="midnightblue" points="1095.78,-6.99 1085.79,-10.53 1095.81,-13.99 1095.78,-6.99"/>
</g>
<!-- Node30&#45;&gt;Node16 -->
<g id="edge67" class="edge">
<title>Node30&#45;&gt;Node16</title>
<path fill="none" stroke="midnightblue" d="M1256.82,-268.49C1185.91,-263.69 1079.27,-251.48 1054,-221 1045.21,-210.39 1049.01,-202.84 1054,-190 1061.87,-169.77 1076.22,-172.84 1087,-154 1097.25,-136.09 1103.75,-113.51 1107.55,-96.66"/>
<polygon fill="midnightblue" stroke="midnightblue" points="1111.05,-97.02 1109.66,-86.52 1104.19,-95.59 1111.05,-97.02"/>
</g>
<!-- Node30&#45;&gt;Node18 -->
<g id="edge68" class="edge">
<title>Node30&#45;&gt;Node18</title>
<path fill="none" stroke="midnightblue" d="M1256.84,-265.18C1132.01,-253.07 859.8,-226.66 727.37,-213.81"/>
<polygon fill="midnightblue" stroke="midnightblue" points="727.6,-210.32 717.31,-212.84 726.92,-217.29 727.6,-210.32"/>
</g>
<!-- Node30&#45;&gt;Node28 -->
<g id="edge72" class="edge">
<title>Node30&#45;&gt;Node28</title>
<path fill="none" stroke="midnightblue" d="M1279.9,-257.4C1250.54,-247.56 1211.17,-234.37 1179.87,-223.88"/>
<polygon fill="midnightblue" stroke="midnightblue" points="1180.61,-220.43 1170.01,-220.58 1178.38,-227.07 1180.61,-220.43"/>
</g>
<!-- Node30&#45;&gt;Node29 -->
<g id="edge59" class="edge">
<title>Node30&#45;&gt;Node29</title>
<path fill="none" stroke="midnightblue" d="M1387.35,-266.63C1418.31,-260.65 1452.68,-247.89 1472,-221 1487.76,-199.06 1463.55,-171.46 1444.43,-154.66"/>
<polygon fill="midnightblue" stroke="midnightblue" points="1446.59,-151.91 1436.67,-148.17 1442.1,-157.28 1446.59,-151.91"/>
</g>
<!-- Node31 -->
<g id="node31" class="node">
<title>Node31</title>
<g id="a_node31"><a xlink:title=" ">
<polygon fill="white" stroke="#bfbfbf" points="1397.5,-196 1397.5,-215 1462.5,-215 1462.5,-196 1397.5,-196"/>
<text text-anchor="middle" x="1430" y="-203" font-family="Helvetica,sans-Serif" font-size="10.00">stdexcept</text>
</a>
</g>
</g>
<!-- Node30&#45;&gt;Node31 -->
<g id="edge56" class="edge">
<title>Node30&#45;&gt;Node31</title>
<path fill="none" stroke="midnightblue" d="M1345.43,-257.4C1363.71,-246.39 1388.96,-231.2 1407.1,-220.28"/>
<polygon fill="midnightblue" stroke="midnightblue" points="1409.1,-223.16 1415.87,-215.01 1405.49,-217.16 1409.1,-223.16"/>
</g>
<!-- Node32 -->
<g id="node32" class="node">
<title>Node32</title>
<g id="a_node32"><a xlink:href="copyable__unique__ptr_8h.html" target="_top" xlink:title=" ">
<polygon fill="white" stroke="black" points="1211,-190.5 1211,-220.5 1341,-220.5 1341,-190.5 1211,-190.5"/>
<text text-anchor="start" x="1219" y="-208.5" font-family="Helvetica,sans-Serif" font-size="10.00">maliput/drake/common</text>
<text text-anchor="middle" x="1276" y="-197.5" font-family="Helvetica,sans-Serif" font-size="10.00">/copyable_unique_ptr.h</text>
</a>
</g>
</g>
<!-- Node30&#45;&gt;Node32 -->
<g id="edge61" class="edge">
<title>Node30&#45;&gt;Node32</title>
<path fill="none" stroke="midnightblue" d="M1312.02,-257.4C1306.11,-249.05 1298.5,-238.29 1291.79,-228.81"/>
<polygon fill="midnightblue" stroke="midnightblue" points="1294.6,-226.72 1285.96,-220.58 1288.88,-230.76 1294.6,-226.72"/>
</g>
<!-- Node33 -->
<g id="node33" class="node">
<title>Node33</title>
<g id="a_node33"><a xlink:href="is__cloneable_8h.html" target="_top" xlink:title=" ">
<polygon fill="white" stroke="black" points="1557,-190.5 1557,-220.5 1687,-220.5 1687,-190.5 1557,-190.5"/>
<text text-anchor="start" x="1565" y="-208.5" font-family="Helvetica,sans-Serif" font-size="10.00">maliput/drake/common</text>
<text text-anchor="middle" x="1622" y="-197.5" font-family="Helvetica,sans-Serif" font-size="10.00">/is_cloneable.h</text>
</a>
</g>
</g>
<!-- Node30&#45;&gt;Node33 -->
<g id="edge69" class="edge">
<title>Node30&#45;&gt;Node33</title>
<path fill="none" stroke="midnightblue" d="M1386.73,-257.48C1433.86,-247.26 1497.82,-233.41 1547.15,-222.72"/>
<polygon fill="midnightblue" stroke="midnightblue" points="1548.1,-226.09 1557.13,-220.55 1546.62,-219.25 1548.1,-226.09"/>
</g>
<!-- Node32&#45;&gt;Node3 -->
<g id="edge64" class="edge">
<title>Node32&#45;&gt;Node3</title>
<path fill="none" stroke="midnightblue" d="M1340.94,-190.48C1400.8,-177.55 1487.7,-158.78 1537.66,-147.99"/>
<polygon fill="midnightblue" stroke="midnightblue" points="1538.7,-151.35 1547.74,-145.82 1537.23,-144.51 1538.7,-151.35"/>
</g>
<!-- Node32&#45;&gt;Node6 -->
<g id="edge65" class="edge">
<title>Node32&#45;&gt;Node6</title>
<path fill="none" stroke="midnightblue" d="M1341.18,-190.96C1392.03,-179.73 1455.31,-164.05 1463,-154 1479.11,-132.97 1456.25,-105.25 1437.92,-88.16"/>
<polygon fill="midnightblue" stroke="midnightblue" points="1439.78,-85.13 1429.97,-81.12 1435.14,-90.37 1439.78,-85.13"/>
</g>
<!-- Node32&#45;&gt;Node9 -->
<g id="edge66" class="edge">
<title>Node32&#45;&gt;Node9</title>
<path fill="none" stroke="midnightblue" d="M1244.95,-190.47C1195.58,-168.26 1103.11,-127.08 1087,-123 916.21,-79.72 708.13,-72.29 598.68,-71.72"/>
<polygon fill="midnightblue" stroke="midnightblue" points="598.41,-68.22 588.4,-71.69 598.39,-75.22 598.41,-68.22"/>
</g>
<!-- Node32&#45;&gt;Node20 -->
<g id="edge62" class="edge">
<title>Node32&#45;&gt;Node20</title>
<path fill="none" stroke="midnightblue" d="M1210.64,-191.66C1207.72,-191.1 1204.83,-190.54 1202,-190 1116.3,-173.61 1092.77,-178.42 1009,-154 1006.57,-153.29 1004.07,-152.48 1001.58,-151.6"/>
<polygon fill="midnightblue" stroke="midnightblue" points="1002.77,-148.31 992.18,-148.04 1000.3,-154.86 1002.77,-148.31"/>
</g>
<!-- Node32&#45;&gt;Node21 -->
<g id="edge63" class="edge">
<title>Node32&#45;&gt;Node21</title>
<path fill="none" stroke="midnightblue" d="M1221.85,-190.41C1185.09,-180.65 1135.45,-167.11 1092,-154 1089.02,-153.1 1085.93,-152.14 1082.83,-151.16"/>
<polygon fill="midnightblue" stroke="midnightblue" points="1083.65,-147.74 1073.06,-148 1081.5,-154.41 1083.65,-147.74"/>
</g>
<!-- Node33&#45;&gt;Node3 -->
<g id="edge70" class="edge">
<title>Node33&#45;&gt;Node3</title>
<path fill="none" stroke="midnightblue" d="M1612.24,-190.4C1605.36,-180.46 1596.11,-167.11 1588.82,-156.57"/>
<polygon fill="midnightblue" stroke="midnightblue" points="1591.59,-154.42 1583.02,-148.19 1585.83,-158.41 1591.59,-154.42"/>
</g>
<!-- Node33&#45;&gt;Node10 -->
<g id="edge71" class="edge">
<title>Node33&#45;&gt;Node10</title>
<path fill="none" stroke="midnightblue" d="M1623.95,-190.33C1625.62,-173.31 1626.21,-144.38 1615,-123 1593.31,-81.62 1577.18,-73.85 1534,-56 1455.37,-23.49 1199.96,-14.27 1095.82,-11.82"/>
<polygon fill="midnightblue" stroke="midnightblue" points="1095.71,-8.32 1085.64,-11.59 1095.56,-15.32 1095.71,-8.32"/>
</g>
</g>
</svg>
