<?xml version="1.0" encoding="UTF-8" standalone="no"?>
<!DOCTYPE svg PUBLIC "-//W3C//DTD SVG 1.1//EN"
 "http://www.w3.org/Graphics/SVG/1.1/DTD/svg11.dtd">
<!-- Generated by graphviz version 2.43.0 (0)
 -->
<!-- Title: Graphical Class Hierarchy Pages: 1 -->
<svg width="347pt" height="296pt"
 viewBox="0.00 0.00 347.00 296.00" xmlns="http://www.w3.org/2000/svg" xmlns:xlink="http://www.w3.org/1999/xlink">
<g id="graph0" class="graph" transform="scale(1 1) rotate(0) translate(4 292)">
<title>Graphical Class Hierarchy</title>
<polygon fill="white" stroke="transparent" points="-4,4 -4,-292 343,-292 343,4 -4,4"/>
<!-- Node0 -->
<g id="node1" class="node">
<title>Node0</title>
<g id="a_node1"><a xlink:href="structmaliput_1_1common_1_1uhash.html" target="_top" xlink:title="A hashing functor, somewhat like std::hash.">
<polygon fill="white" stroke="black" points="0,-140 0,-159 141,-159 141,-140 0,-140"/>
<text text-anchor="middle" x="70.5" y="-147" font-family="Helvetica,sans-Serif" font-size="10.00">uhash&lt; HashAlgorithm &gt;</text>
</a>
</g>
</g>
<!-- Node1 -->
<g id="node2" class="node">
<title>Node1</title>
<g id="a_node2"><a xlink:href="structstd_1_1hash_3_01maliput_1_1api_1_1objects_1_1_road_marking_type_01_4.html" target="_top" xlink:title="Specialization of std::hash for maliput::api::objects::RoadMarkingType.">
<polygon fill="white" stroke="black" points="177,-257.5 177,-287.5 339,-287.5 339,-257.5 177,-257.5"/>
<text text-anchor="start" x="185" y="-275.5" font-family="Helvetica,sans-Serif" font-size="10.00">hash&lt; maliput::api</text>
<text text-anchor="middle" x="258" y="-264.5" font-family="Helvetica,sans-Serif" font-size="10.00">::objects::RoadMarkingType &gt;</text>
</a>
</g>
</g>
<!-- Node0&#45;&gt;Node1 -->
<g id="edge1" class="edge">
<title>Node0&#45;&gt;Node1</title>
<path fill="none" stroke="midnightblue" d="M85.69,-167.12C104.39,-189.21 139.34,-226.81 177,-248.5 182.91,-251.9 189.34,-254.86 195.91,-257.43"/>
<polygon fill="midnightblue" stroke="midnightblue" points="88.22,-164.68 79.14,-159.22 82.83,-169.15 88.22,-164.68"/>
</g>
<!-- Node2 -->
<g id="node3" class="node">
<title>Node2</title>
<g id="a_node3"><a xlink:href="structstd_1_1hash_3_01maliput_1_1api_1_1objects_1_1_road_object_type_01_4.html" target="_top" xlink:title="Specialization of std::hash for maliput::api::objects::RoadObjectType.">
<polygon fill="white" stroke="black" points="181,-208.5 181,-238.5 335,-238.5 335,-208.5 181,-208.5"/>
<text text-anchor="start" x="189" y="-226.5" font-family="Helvetica,sans-Serif" font-size="10.00">hash&lt; maliput::api</text>
<text text-anchor="middle" x="258" y="-215.5" font-family="Helvetica,sans-Serif" font-size="10.00">::objects::RoadObjectType &gt;</text>
</a>
</g>
</g>
<!-- Node0&#45;&gt;Node2 -->
<g id="edge2" class="edge">
<title>Node0&#45;&gt;Node2</title>
<path fill="none" stroke="midnightblue" d="M98.41,-163.64C119.44,-174.35 149.6,-188.97 177,-199.5 185.26,-202.67 194.12,-205.7 202.83,-208.46"/>
<polygon fill="midnightblue" stroke="midnightblue" points="99.93,-160.48 89.43,-159.02 96.72,-166.71 99.93,-160.48"/>
</g>
<!-- Node3 -->
<g id="node4" class="node">
<title>Node3</title>
<g id="a_node4"><a xlink:href="structstd_1_1hash_3_01maliput_1_1api_1_1rules_1_1_unique_bulb_group_id_01_4.html" target="_top" xlink:title="Specialization of std::hash for maliput::api::rules::UniqueBulbGroupId.">
<polygon fill="white" stroke="black" points="179,-159.5 179,-189.5 337,-189.5 337,-159.5 179,-159.5"/>
<text text-anchor="start" x="187" y="-177.5" font-family="Helvetica,sans-Serif" font-size="10.00">hash&lt; maliput::api</text>
<text text-anchor="middle" x="258" y="-166.5" font-family="Helvetica,sans-Serif" font-size="10.00">::rules::UniqueBulbGroupId &gt;</text>
</a>
</g>
</g>
<!-- Node0&#45;&gt;Node3 -->
<g id="edge3" class="edge">
<title>Node0&#45;&gt;Node3</title>
<path fill="none" stroke="midnightblue" d="M151.04,-160.22C160.28,-161.46 169.69,-162.73 178.91,-163.98"/>
<polygon fill="midnightblue" stroke="midnightblue" points="151.48,-156.75 141.1,-158.88 150.54,-163.68 151.48,-156.75"/>
</g>
<!-- Node4 -->
<g id="node5" class="node">
<title>Node4</title>
<g id="a_node5"><a xlink:href="structstd_1_1hash_3_01maliput_1_1api_1_1rules_1_1_unique_bulb_id_01_4.html" target="_top" xlink:title="Specialization of std::hash for maliput::api::rules::UniqueBulbId.">
<polygon fill="white" stroke="black" points="193.5,-110.5 193.5,-140.5 322.5,-140.5 322.5,-110.5 193.5,-110.5"/>
<text text-anchor="start" x="201.5" y="-128.5" font-family="Helvetica,sans-Serif" font-size="10.00">hash&lt; maliput::api</text>
<text text-anchor="middle" x="258" y="-117.5" font-family="Helvetica,sans-Serif" font-size="10.00">::rules::UniqueBulbId &gt;</text>
</a>
</g>
</g>
<!-- Node0&#45;&gt;Node4 -->
<g id="edge4" class="edge">
<title>Node0&#45;&gt;Node4</title>
<path fill="none" stroke="midnightblue" d="M151.27,-139.18C165.36,-137.36 179.86,-135.48 193.43,-133.72"/>
<polygon fill="midnightblue" stroke="midnightblue" points="150.57,-135.74 141.1,-140.5 151.47,-142.68 150.57,-135.74"/>
</g>
<!-- Node5 -->
<g id="node6" class="node">
<title>Node5</title>
<g id="a_node6"><a xlink:href="structstd_1_1hash_3_01maliput_1_1api_1_1_type_specific_identifier_3_01_t_01_4_01_4.html" target="_top" xlink:title="Specialization of std::hash for maliput::api::TypeSpecificIdentifier&lt;T&gt;.">
<polygon fill="white" stroke="black" points="194,-50 194,-91 322,-91 322,-50 194,-50"/>
<text text-anchor="start" x="202" y="-79" font-family="Helvetica,sans-Serif" font-size="10.00">hash&lt; maliput::api</text>
<text text-anchor="start" x="202" y="-68" font-family="Helvetica,sans-Serif" font-size="10.00">::TypeSpecificIdentifier</text>
<text text-anchor="middle" x="258" y="-57" font-family="Helvetica,sans-Serif" font-size="10.00">&lt; T &gt; &gt;</text>
</a>
</g>
</g>
<!-- Node0&#45;&gt;Node5 -->
<g id="edge5" class="edge">
<title>Node0&#45;&gt;Node5</title>
<path fill="none" stroke="midnightblue" d="M100.64,-135.7C121.71,-125.85 150.94,-112.47 177,-101.5 185.24,-98.03 194.01,-94.49 202.61,-91.09"/>
<polygon fill="midnightblue" stroke="midnightblue" points="99.14,-132.54 91.57,-139.95 102.11,-138.87 99.14,-132.54"/>
</g>
<!-- Node6 -->
<g id="node7" class="node">
<title>Node6</title>
<g id="a_node7"><a xlink:href="structstd_1_1hash_3_01maliput_1_1api_1_1_unique_id_01_4.html" target="_top" xlink:title="Specialization of std::hash for maliput::api::UniqueId.">
<polygon fill="white" stroke="black" points="203,-0.5 203,-30.5 313,-30.5 313,-0.5 203,-0.5"/>
<text text-anchor="start" x="211" y="-18.5" font-family="Helvetica,sans-Serif" font-size="10.00">hash&lt; maliput::api</text>
<text text-anchor="middle" x="258" y="-7.5" font-family="Helvetica,sans-Serif" font-size="10.00">::UniqueId &gt;</text>
</a>
</g>
</g>
<!-- Node0&#45;&gt;Node6 -->
<g id="edge6" class="edge">
<title>Node0&#45;&gt;Node6</title>
<path fill="none" stroke="midnightblue" d="M84.27,-131.53C102.29,-107.44 137.44,-64.88 177,-40.5 184.93,-35.61 193.89,-31.61 202.88,-28.35"/>
<polygon fill="midnightblue" stroke="midnightblue" points="81.31,-129.65 78.23,-139.78 86.96,-133.78 81.31,-129.65"/>
</g>
</g>
</svg>
