<?xml version="1.0" encoding="UTF-8" standalone="no"?>
<!DOCTYPE svg PUBLIC "-//W3C//DTD SVG 1.1//EN"
 "http://www.w3.org/Graphics/SVG/1.1/DTD/svg11.dtd">
<!-- Generated by graphviz version 2.43.0 (0)
 -->
<!-- Title: Graphical Class Hierarchy Pages: 1 -->
<svg width="510pt" height="127pt"
 viewBox="0.00 0.00 510.00 126.50" xmlns="http://www.w3.org/2000/svg" xmlns:xlink="http://www.w3.org/1999/xlink">
<g id="graph0" class="graph" transform="scale(1 1) rotate(0) translate(4 122.5)">
<title>Graphical Class Hierarchy</title>
<polygon fill="white" stroke="transparent" points="-4,4 -4,-122.5 506,-122.5 506,4 -4,4"/>
<!-- Node296 -->
<g id="node1" class="node">
<title>Node296</title>
<g id="a_node1"><a xlink:title="STL class.">
<polygon fill="white" stroke="#bfbfbf" points="0,-36 0,-55 65,-55 65,-36 0,-36"/>
<text text-anchor="middle" x="32.5" y="-43" font-family="Helvetica,sans-Serif" font-size="10.00">exception</text>
</a>
</g>
</g>
<!-- Node297 -->
<g id="node2" class="node">
<title>Node297</title>
<g id="a_node2"><a xlink:title="STL class.">
<polygon fill="white" stroke="#bfbfbf" points="101,-36 101,-55 184,-55 184,-36 101,-36"/>
<text text-anchor="middle" x="142.5" y="-43" font-family="Helvetica,sans-Serif" font-size="10.00">runtime_error</text>
</a>
</g>
</g>
<!-- Node296&#45;&gt;Node297 -->
<g id="edge1" class="edge">
<title>Node296&#45;&gt;Node297</title>
<path fill="none" stroke="midnightblue" d="M75.08,-45.5C83.55,-45.5 92.44,-45.5 100.87,-45.5"/>
<polygon fill="midnightblue" stroke="midnightblue" points="75.03,-42 65.03,-45.5 75.03,-49 75.03,-42"/>
</g>
<!-- Node0 -->
<g id="node3" class="node">
<title>Node0</title>
<g id="a_node3"><a xlink:href="classmaliput_1_1common_1_1maliput__error.html" target="_top" xlink:title=" ">
<polygon fill="white" stroke="black" points="223.5,-55 223.5,-74 306.5,-74 306.5,-55 223.5,-55"/>
<text text-anchor="middle" x="265" y="-62" font-family="Helvetica,sans-Serif" font-size="10.00">maliput_error</text>
</a>
</g>
</g>
<!-- Node297&#45;&gt;Node0 -->
<g id="edge2" class="edge">
<title>Node297&#45;&gt;Node0</title>
<path fill="none" stroke="midnightblue" d="M194.22,-53.5C203.9,-55.02 213.92,-56.6 223.25,-58.07"/>
<polygon fill="midnightblue" stroke="midnightblue" points="194.72,-50.03 184.3,-51.93 193.63,-56.95 194.72,-50.03"/>
</g>
<!-- Node302 -->
<g id="node7" class="node">
<title>Node302</title>
<g id="a_node7"><a xlink:href="classmaliput_1_1drake_1_1internal_1_1assertion__error.html" target="_top" xlink:title=" ">
<polygon fill="white" stroke="black" points="220,-17 220,-36 310,-36 310,-17 220,-17"/>
<text text-anchor="middle" x="265" y="-24" font-family="Helvetica,sans-Serif" font-size="10.00">assertion_error</text>
</a>
</g>
</g>
<!-- Node297&#45;&gt;Node302 -->
<g id="edge6" class="edge">
<title>Node297&#45;&gt;Node302</title>
<path fill="none" stroke="midnightblue" d="M194.18,-37.51C202.74,-36.16 211.57,-34.77 219.94,-33.45"/>
<polygon fill="midnightblue" stroke="midnightblue" points="193.63,-34.05 184.3,-39.07 194.72,-40.97 193.63,-34.05"/>
</g>
<!-- Node1 -->
<g id="node4" class="node">
<title>Node1</title>
<g id="a_node4"><a xlink:href="classmaliput_1_1common_1_1assertion__error.html" target="_top" xlink:title=" ">
<polygon fill="white" stroke="black" points="379,-99 379,-118 469,-118 469,-99 379,-99"/>
<text text-anchor="middle" x="424" y="-106" font-family="Helvetica,sans-Serif" font-size="10.00">assertion_error</text>
</a>
</g>
</g>
<!-- Node0&#45;&gt;Node1 -->
<g id="edge3" class="edge">
<title>Node0&#45;&gt;Node1</title>
<path fill="none" stroke="midnightblue" d="M304.75,-77.13C317.8,-81.25 332.49,-85.73 346,-89.5 357.67,-92.76 370.42,-96.02 382.12,-98.9"/>
<polygon fill="midnightblue" stroke="midnightblue" points="305.72,-73.77 295.13,-74.07 303.6,-80.44 305.72,-73.77"/>
</g>
<!-- Node2 -->
<g id="node5" class="node">
<title>Node2</title>
<g id="a_node5"><a xlink:href="classmaliput_1_1common_1_1road__geometry__construction__error.html" target="_top" xlink:title="Errors while building the Road Geometry.">
<polygon fill="white" stroke="black" points="346,-49.5 346,-79.5 502,-79.5 502,-49.5 346,-49.5"/>
<text text-anchor="start" x="354" y="-67.5" font-family="Helvetica,sans-Serif" font-size="10.00">road_geometry_construction</text>
<text text-anchor="middle" x="424" y="-56.5" font-family="Helvetica,sans-Serif" font-size="10.00">_error</text>
</a>
</g>
</g>
<!-- Node0&#45;&gt;Node2 -->
<g id="edge4" class="edge">
<title>Node0&#45;&gt;Node2</title>
<path fill="none" stroke="midnightblue" d="M316.99,-64.5C326.23,-64.5 336.05,-64.5 345.84,-64.5"/>
<polygon fill="midnightblue" stroke="midnightblue" points="316.84,-61 306.84,-64.5 316.84,-68 316.84,-61"/>
</g>
<!-- Node3 -->
<g id="node6" class="node">
<title>Node3</title>
<g id="a_node6"><a xlink:href="classmaliput_1_1common_1_1road__network__description__parser__error.html" target="_top" xlink:title="Errors while parsing the road network description.">
<polygon fill="white" stroke="black" points="352.5,-0.5 352.5,-30.5 495.5,-30.5 495.5,-0.5 352.5,-0.5"/>
<text text-anchor="start" x="360.5" y="-18.5" font-family="Helvetica,sans-Serif" font-size="10.00">road_network_description</text>
<text text-anchor="middle" x="424" y="-7.5" font-family="Helvetica,sans-Serif" font-size="10.00">_parser_error</text>
</a>
</g>
</g>
<!-- Node0&#45;&gt;Node3 -->
<g id="edge5" class="edge">
<title>Node0&#45;&gt;Node3</title>
<path fill="none" stroke="midnightblue" d="M306.47,-51.87C327.34,-45.36 352.94,-37.37 374.82,-30.54"/>
<polygon fill="midnightblue" stroke="midnightblue" points="305.15,-48.62 296.64,-54.94 307.23,-55.3 305.15,-48.62"/>
</g>
</g>
</svg>
