<?xml version="1.0" encoding="UTF-8" standalone="no"?>
<!DOCTYPE svg PUBLIC "-//W3C//DTD SVG 1.1//EN"
 "http://www.w3.org/Graphics/SVG/1.1/DTD/svg11.dtd">
<!-- Generated by graphviz version 2.43.0 (0)
 -->
<!-- Title: input_port.h Pages: 1 -->
<svg width="652pt" height="386pt"
 viewBox="0.00 0.00 652.00 386.00" xmlns="http://www.w3.org/2000/svg" xmlns:xlink="http://www.w3.org/1999/xlink">
<g id="graph0" class="graph" transform="scale(1 1) rotate(0) translate(4 382)">
<title>input_port.h</title>
<polygon fill="white" stroke="transparent" points="-4,4 -4,-382 648,-382 648,4 -4,4"/>
<!-- Node1 -->
<g id="node1" class="node">
<title>Node1</title>
<g id="a_node1"><a xlink:title=" ">
<polygon fill="#bfbfbf" stroke="black" points="434.5,-358.5 434.5,-377.5 509.5,-377.5 509.5,-358.5 434.5,-358.5"/>
<text text-anchor="middle" x="472" y="-365.5" font-family="Helvetica,sans-Serif" font-size="10.00">input_port.h</text>
</a>
</g>
</g>
<!-- Node2 -->
<g id="node2" class="node">
<title>Node2</title>
<g id="a_node2"><a xlink:href="input__port_8cc.html" target="_top" xlink:title=" ">
<polygon fill="white" stroke="black" points="388,-302.5 388,-321.5 468,-321.5 468,-302.5 388,-302.5"/>
<text text-anchor="middle" x="428" y="-309.5" font-family="Helvetica,sans-Serif" font-size="10.00">input_port.cc</text>
</a>
</g>
</g>
<!-- Node1&#45;&gt;Node2 -->
<g id="edge1" class="edge">
<title>Node1&#45;&gt;Node2</title>
<path fill="none" stroke="midnightblue" d="M458.27,-350.14C450.6,-340.74 441.37,-329.4 435.13,-321.75"/>
<polygon fill="midnightblue" stroke="midnightblue" points="455.7,-352.54 464.73,-358.08 461.13,-348.12 455.7,-352.54"/>
</g>
<!-- Node3 -->
<g id="node3" class="node">
<title>Node3</title>
<g id="a_node3"><a xlink:href="system_8h.html" target="_top" xlink:title=" ">
<polygon fill="white" stroke="black" points="486,-302.5 486,-321.5 548,-321.5 548,-302.5 486,-302.5"/>
<text text-anchor="middle" x="517" y="-309.5" font-family="Helvetica,sans-Serif" font-size="10.00">system.h</text>
</a>
</g>
</g>
<!-- Node1&#45;&gt;Node3 -->
<g id="edge2" class="edge">
<title>Node1&#45;&gt;Node3</title>
<path fill="none" stroke="midnightblue" d="M486.05,-350.14C493.89,-340.74 503.33,-329.4 509.71,-321.75"/>
<polygon fill="midnightblue" stroke="midnightblue" points="483.14,-348.16 479.43,-358.08 488.52,-352.64 483.14,-348.16"/>
</g>
<!-- Node4 -->
<g id="node4" class="node">
<title>Node4</title>
<g id="a_node4"><a xlink:href="integrator__base_8h.html" target="_top" xlink:title=" ">
<polygon fill="white" stroke="black" points="164,-246.5 164,-265.5 266,-265.5 266,-246.5 164,-246.5"/>
<text text-anchor="middle" x="215" y="-253.5" font-family="Helvetica,sans-Serif" font-size="10.00">integrator_base.h</text>
</a>
</g>
</g>
<!-- Node3&#45;&gt;Node4 -->
<g id="edge3" class="edge">
<title>Node3&#45;&gt;Node4</title>
<path fill="none" stroke="midnightblue" d="M475.55,-301.79C397.21,-286.41 317.11,-273.13 266.35,-265.02"/>
<polygon fill="midnightblue" stroke="midnightblue" points="475.1,-305.27 485.59,-303.77 476.46,-298.4 475.1,-305.27"/>
</g>
<!-- Node16 -->
<g id="node16" class="node">
<title>Node16</title>
<g id="a_node16"><a xlink:href="leaf__system_8h.html" target="_top" xlink:title=" ">
<polygon fill="white" stroke="black" points="474,-246.5 474,-265.5 560,-265.5 560,-246.5 474,-246.5"/>
<text text-anchor="middle" x="517" y="-253.5" font-family="Helvetica,sans-Serif" font-size="10.00">leaf_system.h</text>
</a>
</g>
</g>
<!-- Node3&#45;&gt;Node16 -->
<g id="edge18" class="edge">
<title>Node3&#45;&gt;Node16</title>
<path fill="none" stroke="midnightblue" d="M517,-291.8C517,-282.91 517,-272.78 517,-265.75"/>
<polygon fill="midnightblue" stroke="midnightblue" points="513.5,-292.08 517,-302.08 520.5,-292.08 513.5,-292.08"/>
</g>
<!-- Node18 -->
<g id="node18" class="node">
<title>Node18</title>
<g id="a_node18"><a xlink:href="system_8cc.html" target="_top" xlink:title=" ">
<polygon fill="white" stroke="black" points="578,-246.5 578,-265.5 644,-265.5 644,-246.5 578,-246.5"/>
<text text-anchor="middle" x="611" y="-253.5" font-family="Helvetica,sans-Serif" font-size="10.00">system.cc</text>
</a>
</g>
</g>
<!-- Node3&#45;&gt;Node18 -->
<g id="edge21" class="edge">
<title>Node3&#45;&gt;Node18</title>
<path fill="none" stroke="midnightblue" d="M541.06,-297.18C558.36,-287.24 581.15,-274.15 595.93,-265.65"/>
<polygon fill="midnightblue" stroke="midnightblue" points="539.03,-294.31 532.1,-302.32 542.52,-300.38 539.03,-294.31"/>
</g>
<!-- Node5 -->
<g id="node5" class="node">
<title>Node5</title>
<g id="a_node5"><a xlink:href="arc__length__integrator_8cc.html" target="_top" xlink:title=" ">
<polygon fill="white" stroke="black" points="0,-0.5 0,-19.5 134,-19.5 134,-0.5 0,-0.5"/>
<text text-anchor="middle" x="67" y="-7.5" font-family="Helvetica,sans-Serif" font-size="10.00">arc_length_integrator.cc</text>
</a>
</g>
</g>
<!-- Node4&#45;&gt;Node5 -->
<g id="edge4" class="edge">
<title>Node4&#45;&gt;Node5</title>
<path fill="none" stroke="midnightblue" d="M153.98,-246.4C111.62,-239.05 60.47,-226.97 47,-210 4.44,-156.37 26.39,-122.42 43,-56 46.39,-42.43 54.74,-28.47 60.63,-19.77"/>
<polygon fill="midnightblue" stroke="midnightblue" points="153.54,-249.87 163.98,-248.07 154.69,-242.97 153.54,-249.87"/>
</g>
<!-- Node6 -->
<g id="node6" class="node">
<title>Node6</title>
<g id="a_node6"><a xlink:href="inverse__arc__length__integrator_8cc.html" target="_top" xlink:title=" ">
<polygon fill="white" stroke="black" points="52.5,-56.5 52.5,-86.5 161.5,-86.5 161.5,-56.5 52.5,-56.5"/>
<text text-anchor="start" x="60.5" y="-74.5" font-family="Helvetica,sans-Serif" font-size="10.00">inverse_arc_length</text>
<text text-anchor="middle" x="107" y="-63.5" font-family="Helvetica,sans-Serif" font-size="10.00">_integrator.cc</text>
</a>
</g>
</g>
<!-- Node4&#45;&gt;Node6 -->
<g id="edge5" class="edge">
<title>Node4&#45;&gt;Node6</title>
<path fill="none" stroke="midnightblue" d="M153.74,-244.68C116.24,-236.97 73.34,-225.16 62,-210 38.83,-179.04 48.24,-159.13 62,-123 67.43,-108.73 78.95,-95.93 88.98,-86.79"/>
<polygon fill="midnightblue" stroke="midnightblue" points="153.14,-248.13 163.63,-246.64 154.51,-241.26 153.14,-248.13"/>
</g>
<!-- Node7 -->
<g id="node7" class="node">
<title>Node7</title>
<g id="a_node7"><a xlink:href="initial__value__problem_8h.html" target="_top" xlink:title=" ">
<polygon fill="white" stroke="black" points="357.5,-190.5 357.5,-209.5 488.5,-209.5 488.5,-190.5 357.5,-190.5"/>
<text text-anchor="middle" x="423" y="-197.5" font-family="Helvetica,sans-Serif" font-size="10.00">initial_value_problem.h</text>
</a>
</g>
</g>
<!-- Node4&#45;&gt;Node7 -->
<g id="edge6" class="edge">
<title>Node4&#45;&gt;Node7</title>
<path fill="none" stroke="midnightblue" d="M257.78,-243.89C297.06,-233.7 354.43,-218.8 390.2,-209.52"/>
<polygon fill="midnightblue" stroke="midnightblue" points="256.76,-240.54 247.96,-246.44 258.52,-247.32 256.76,-240.54"/>
</g>
<!-- Node13 -->
<g id="node13" class="node">
<title>Node13</title>
<g id="a_node13"><a xlink:href="integrator__base_8cc.html" target="_top" xlink:title=" ">
<polygon fill="white" stroke="black" points="232.5,-190.5 232.5,-209.5 339.5,-209.5 339.5,-190.5 232.5,-190.5"/>
<text text-anchor="middle" x="286" y="-197.5" font-family="Helvetica,sans-Serif" font-size="10.00">integrator_base.cc</text>
</a>
</g>
</g>
<!-- Node4&#45;&gt;Node13 -->
<g id="edge14" class="edge">
<title>Node4&#45;&gt;Node13</title>
<path fill="none" stroke="midnightblue" d="M234.59,-240.1C247.37,-230.38 263.61,-218.03 274.39,-209.83"/>
<polygon fill="midnightblue" stroke="midnightblue" points="232.25,-237.48 226.41,-246.32 236.49,-243.06 232.25,-237.48"/>
</g>
<!-- Node14 -->
<g id="node14" class="node">
<title>Node14</title>
<g id="a_node14"><a xlink:href="runge__kutta3__integrator_8h.html" target="_top" xlink:title=" ">
<polygon fill="white" stroke="black" points="71.5,-190.5 71.5,-209.5 214.5,-209.5 214.5,-190.5 71.5,-190.5"/>
<text text-anchor="middle" x="143" y="-197.5" font-family="Helvetica,sans-Serif" font-size="10.00">runge_kutta3_integrator.h</text>
</a>
</g>
</g>
<!-- Node4&#45;&gt;Node14 -->
<g id="edge15" class="edge">
<title>Node4&#45;&gt;Node14</title>
<path fill="none" stroke="midnightblue" d="M195.13,-240.1C182.18,-230.38 165.7,-218.03 154.78,-209.83"/>
<polygon fill="midnightblue" stroke="midnightblue" points="193.33,-243.12 203.43,-246.32 197.53,-237.52 193.33,-243.12"/>
</g>
<!-- Node8 -->
<g id="node8" class="node">
<title>Node8</title>
<g id="a_node8"><a xlink:href="initial__value__problem_8cc.html" target="_top" xlink:title=" ">
<polygon fill="white" stroke="black" points="237,-129 237,-148 373,-148 373,-129 237,-129"/>
<text text-anchor="middle" x="305" y="-136" font-family="Helvetica,sans-Serif" font-size="10.00">initial_value_problem.cc</text>
</a>
</g>
</g>
<!-- Node7&#45;&gt;Node8 -->
<g id="edge7" class="edge">
<title>Node7&#45;&gt;Node8</title>
<path fill="none" stroke="midnightblue" d="M396.95,-185.87C374.08,-174.33 341.49,-157.9 321.88,-148.01"/>
<polygon fill="midnightblue" stroke="midnightblue" points="395.59,-189.1 406.09,-190.48 398.74,-182.85 395.59,-189.1"/>
</g>
<!-- Node9 -->
<g id="node9" class="node">
<title>Node9</title>
<g id="a_node9"><a xlink:href="scalar__initial__value__problem_8h.html" target="_top" xlink:title=" ">
<polygon fill="white" stroke="black" points="391.5,-123.5 391.5,-153.5 502.5,-153.5 502.5,-123.5 391.5,-123.5"/>
<text text-anchor="start" x="399.5" y="-141.5" font-family="Helvetica,sans-Serif" font-size="10.00">scalar_initial_value</text>
<text text-anchor="middle" x="447" y="-130.5" font-family="Helvetica,sans-Serif" font-size="10.00">_problem.h</text>
</a>
</g>
</g>
<!-- Node7&#45;&gt;Node9 -->
<g id="edge8" class="edge">
<title>Node7&#45;&gt;Node9</title>
<path fill="none" stroke="midnightblue" d="M430.22,-181.1C433.78,-172.27 438.02,-161.77 441.34,-153.52"/>
<polygon fill="midnightblue" stroke="midnightblue" points="426.93,-179.89 426.44,-190.48 433.43,-182.51 426.93,-179.89"/>
</g>
<!-- Node9&#45;&gt;Node6 -->
<g id="edge9" class="edge">
<title>Node9&#45;&gt;Node6</title>
<path fill="none" stroke="midnightblue" d="M381.32,-122.91C298.9,-106.27 215.05,-91.24 161.64,-81.91"/>
<polygon fill="midnightblue" stroke="midnightblue" points="380.86,-126.39 391.36,-124.94 382.26,-119.53 380.86,-126.39"/>
</g>
<!-- Node10 -->
<g id="node10" class="node">
<title>Node10</title>
<g id="a_node10"><a xlink:href="antiderivative__function_8h.html" target="_top" xlink:title=" ">
<polygon fill="white" stroke="black" points="216.5,-62 216.5,-81 355.5,-81 355.5,-62 216.5,-62"/>
<text text-anchor="middle" x="286" y="-69" font-family="Helvetica,sans-Serif" font-size="10.00">antiderivative_function.h</text>
</a>
</g>
</g>
<!-- Node9&#45;&gt;Node10 -->
<g id="edge10" class="edge">
<title>Node9&#45;&gt;Node10</title>
<path fill="none" stroke="midnightblue" d="M402.72,-119.62C371.55,-107.04 331.24,-90.77 307.07,-81.01"/>
<polygon fill="midnightblue" stroke="midnightblue" points="401.48,-122.9 412.07,-123.4 404.1,-116.41 401.48,-122.9"/>
</g>
<!-- Node12 -->
<g id="node12" class="node">
<title>Node12</title>
<g id="a_node12"><a xlink:href="scalar__initial__value__problem_8cc.html" target="_top" xlink:title=" ">
<polygon fill="white" stroke="black" points="391.5,-56.5 391.5,-86.5 502.5,-86.5 502.5,-56.5 391.5,-56.5"/>
<text text-anchor="start" x="399.5" y="-74.5" font-family="Helvetica,sans-Serif" font-size="10.00">scalar_initial_value</text>
<text text-anchor="middle" x="447" y="-63.5" font-family="Helvetica,sans-Serif" font-size="10.00">_problem.cc</text>
</a>
</g>
</g>
<!-- Node9&#45;&gt;Node12 -->
<g id="edge13" class="edge">
<title>Node9&#45;&gt;Node12</title>
<path fill="none" stroke="midnightblue" d="M447,-113.11C447,-104.15 447,-94.32 447,-86.58"/>
<polygon fill="midnightblue" stroke="midnightblue" points="443.5,-113.4 447,-123.4 450.5,-113.4 443.5,-113.4"/>
</g>
<!-- Node10&#45;&gt;Node5 -->
<g id="edge11" class="edge">
<title>Node10&#45;&gt;Node5</title>
<path fill="none" stroke="midnightblue" d="M244.86,-59.32C202.32,-47.76 136.83,-29.97 98.32,-19.51"/>
<polygon fill="midnightblue" stroke="midnightblue" points="244.05,-62.73 254.62,-61.98 245.89,-55.98 244.05,-62.73"/>
</g>
<!-- Node11 -->
<g id="node11" class="node">
<title>Node11</title>
<g id="a_node11"><a xlink:href="antiderivative__function_8cc.html" target="_top" xlink:title=" ">
<polygon fill="white" stroke="black" points="214.5,-0.5 214.5,-19.5 357.5,-19.5 357.5,-0.5 214.5,-0.5"/>
<text text-anchor="middle" x="286" y="-7.5" font-family="Helvetica,sans-Serif" font-size="10.00">antiderivative_function.cc</text>
</a>
</g>
</g>
<!-- Node10&#45;&gt;Node11 -->
<g id="edge12" class="edge">
<title>Node10&#45;&gt;Node11</title>
<path fill="none" stroke="midnightblue" d="M286,-51.82C286,-41 286,-27.9 286,-19.51"/>
<polygon fill="midnightblue" stroke="midnightblue" points="282.5,-51.98 286,-61.98 289.5,-51.98 282.5,-51.98"/>
</g>
<!-- Node14&#45;&gt;Node8 -->
<g id="edge16" class="edge">
<title>Node14&#45;&gt;Node8</title>
<path fill="none" stroke="midnightblue" d="M175.85,-186.93C207.34,-175.37 254.06,-158.21 281.83,-148.01"/>
<polygon fill="midnightblue" stroke="midnightblue" points="174.39,-183.74 166.21,-190.48 176.8,-190.31 174.39,-183.74"/>
</g>
<!-- Node15 -->
<g id="node15" class="node">
<title>Node15</title>
<g id="a_node15"><a xlink:href="runge__kutta3__integrator_8cc.html" target="_top" xlink:title=" ">
<polygon fill="white" stroke="black" points="71,-129 71,-148 219,-148 219,-129 71,-129"/>
<text text-anchor="middle" x="145" y="-136" font-family="Helvetica,sans-Serif" font-size="10.00">runge_kutta3_integrator.cc</text>
</a>
</g>
</g>
<!-- Node14&#45;&gt;Node15 -->
<g id="edge17" class="edge">
<title>Node14&#45;&gt;Node15</title>
<path fill="none" stroke="midnightblue" d="M143.63,-180.32C143.99,-169.5 144.43,-156.4 144.71,-148.01"/>
<polygon fill="midnightblue" stroke="midnightblue" points="140.12,-180.36 143.29,-190.48 147.12,-180.6 140.12,-180.36"/>
</g>
<!-- Node16&#45;&gt;Node8 -->
<g id="edge19" class="edge">
<title>Node16&#45;&gt;Node8</title>
<path fill="none" stroke="midnightblue" d="M516.01,-236.15C514.24,-221.6 509.5,-202 497,-190 486.03,-179.47 398.92,-159.46 345.87,-148.04"/>
<polygon fill="midnightblue" stroke="midnightblue" points="512.56,-236.82 516.89,-246.49 519.53,-236.23 512.56,-236.82"/>
</g>
<!-- Node17 -->
<g id="node17" class="node">
<title>Node17</title>
<g id="a_node17"><a xlink:href="leaf__system_8cc.html" target="_top" xlink:title=" ">
<polygon fill="white" stroke="black" points="545,-190.5 545,-209.5 635,-209.5 635,-190.5 545,-190.5"/>
<text text-anchor="middle" x="590" y="-197.5" font-family="Helvetica,sans-Serif" font-size="10.00">leaf_system.cc</text>
</a>
</g>
</g>
<!-- Node16&#45;&gt;Node17 -->
<g id="edge20" class="edge">
<title>Node16&#45;&gt;Node17</title>
<path fill="none" stroke="midnightblue" d="M537.14,-240.1C550.28,-230.38 566.98,-218.03 578.06,-209.83"/>
<polygon fill="midnightblue" stroke="midnightblue" points="534.69,-237.56 528.73,-246.32 538.85,-243.19 534.69,-237.56"/>
</g>
</g>
</svg>
