<?xml version="1.0" encoding="UTF-8" standalone="no"?>
<!DOCTYPE svg PUBLIC "-//W3C//DTD SVG 1.1//EN"
 "http://www.w3.org/Graphics/SVG/1.1/DTD/svg11.dtd">
<!-- Generated by graphviz version 2.43.0 (0)
 -->
<!-- Title: integrator_base.h Pages: 1 -->
<svg width="594pt" height="274pt"
 viewBox="0.00 0.00 594.00 274.00" xmlns="http://www.w3.org/2000/svg" xmlns:xlink="http://www.w3.org/1999/xlink">
<g id="graph0" class="graph" transform="scale(1 1) rotate(0) translate(4 270)">
<title>integrator_base.h</title>
<polygon fill="white" stroke="transparent" points="-4,4 -4,-270 590,-270 590,4 -4,4"/>
<!-- Node1 -->
<g id="node1" class="node">
<title>Node1</title>
<g id="a_node1"><a xlink:title=" ">
<polygon fill="#bfbfbf" stroke="black" points="159,-246.5 159,-265.5 261,-265.5 261,-246.5 159,-246.5"/>
<text text-anchor="middle" x="210" y="-253.5" font-family="Helvetica,sans-Serif" font-size="10.00">integrator_base.h</text>
</a>
</g>
</g>
<!-- Node2 -->
<g id="node2" class="node">
<title>Node2</title>
<g id="a_node2"><a xlink:href="arc__length__integrator_8cc.html" target="_top" xlink:title=" ">
<polygon fill="white" stroke="black" points="0,-0.5 0,-19.5 134,-19.5 134,-0.5 0,-0.5"/>
<text text-anchor="middle" x="67" y="-7.5" font-family="Helvetica,sans-Serif" font-size="10.00">arc_length_integrator.cc</text>
</a>
</g>
</g>
<!-- Node1&#45;&gt;Node2 -->
<g id="edge1" class="edge">
<title>Node1&#45;&gt;Node2</title>
<path fill="none" stroke="midnightblue" d="M174.76,-242.56C157.37,-235.13 136.96,-224.31 122,-210 76.54,-166.53 68.09,-147.81 52,-87 45.6,-62.82 56.42,-33.66 62.81,-19.52"/>
<polygon fill="midnightblue" stroke="midnightblue" points="173.48,-245.82 184.07,-246.35 176.12,-239.34 173.48,-245.82"/>
</g>
<!-- Node3 -->
<g id="node3" class="node">
<title>Node3</title>
<g id="a_node3"><a xlink:href="inverse__arc__length__integrator_8cc.html" target="_top" xlink:title=" ">
<polygon fill="white" stroke="black" points="61.5,-56.5 61.5,-86.5 170.5,-86.5 170.5,-56.5 61.5,-56.5"/>
<text text-anchor="start" x="69.5" y="-74.5" font-family="Helvetica,sans-Serif" font-size="10.00">inverse_arc_length</text>
<text text-anchor="middle" x="116" y="-63.5" font-family="Helvetica,sans-Serif" font-size="10.00">_integrator.cc</text>
</a>
</g>
</g>
<!-- Node1&#45;&gt;Node3 -->
<g id="edge2" class="edge">
<title>Node1&#45;&gt;Node3</title>
<path fill="none" stroke="midnightblue" d="M175.19,-242.16C160.47,-234.95 144.54,-224.45 135,-210 109.49,-171.4 111.56,-113.35 114.19,-86.75"/>
<polygon fill="midnightblue" stroke="midnightblue" points="174.06,-245.49 184.61,-246.43 176.95,-239.11 174.06,-245.49"/>
</g>
<!-- Node4 -->
<g id="node4" class="node">
<title>Node4</title>
<g id="a_node4"><a xlink:href="initial__value__problem_8h.html" target="_top" xlink:title=" ">
<polygon fill="white" stroke="black" points="144.5,-190.5 144.5,-209.5 275.5,-209.5 275.5,-190.5 144.5,-190.5"/>
<text text-anchor="middle" x="210" y="-197.5" font-family="Helvetica,sans-Serif" font-size="10.00">initial_value_problem.h</text>
</a>
</g>
</g>
<!-- Node1&#45;&gt;Node4 -->
<g id="edge3" class="edge">
<title>Node1&#45;&gt;Node4</title>
<path fill="none" stroke="midnightblue" d="M210,-235.8C210,-226.91 210,-216.78 210,-209.75"/>
<polygon fill="midnightblue" stroke="midnightblue" points="206.5,-236.08 210,-246.08 213.5,-236.08 206.5,-236.08"/>
</g>
<!-- Node10 -->
<g id="node10" class="node">
<title>Node10</title>
<g id="a_node10"><a xlink:href="integrator__base_8cc.html" target="_top" xlink:title=" ">
<polygon fill="white" stroke="black" points="293.5,-190.5 293.5,-209.5 400.5,-209.5 400.5,-190.5 293.5,-190.5"/>
<text text-anchor="middle" x="347" y="-197.5" font-family="Helvetica,sans-Serif" font-size="10.00">integrator_base.cc</text>
</a>
</g>
</g>
<!-- Node1&#45;&gt;Node10 -->
<g id="edge11" class="edge">
<title>Node1&#45;&gt;Node10</title>
<path fill="none" stroke="midnightblue" d="M241.02,-242.77C266.76,-232.63 302.69,-218.47 325.39,-209.52"/>
<polygon fill="midnightblue" stroke="midnightblue" points="239.73,-239.52 231.71,-246.44 242.29,-246.03 239.73,-239.52"/>
</g>
<!-- Node11 -->
<g id="node11" class="node">
<title>Node11</title>
<g id="a_node11"><a xlink:href="runge__kutta3__integrator_8h.html" target="_top" xlink:title=" ">
<polygon fill="white" stroke="black" points="418.5,-190.5 418.5,-209.5 561.5,-209.5 561.5,-190.5 418.5,-190.5"/>
<text text-anchor="middle" x="490" y="-197.5" font-family="Helvetica,sans-Serif" font-size="10.00">runge_kutta3_integrator.h</text>
</a>
</g>
</g>
<!-- Node1&#45;&gt;Node11 -->
<g id="edge12" class="edge">
<title>Node1&#45;&gt;Node11</title>
<path fill="none" stroke="midnightblue" d="M264.25,-244.54C317.17,-234.33 396.67,-219 445.84,-209.52"/>
<polygon fill="midnightblue" stroke="midnightblue" points="263.52,-241.11 254.37,-246.44 264.85,-247.99 263.52,-241.11"/>
</g>
<!-- Node5 -->
<g id="node5" class="node">
<title>Node5</title>
<g id="a_node5"><a xlink:href="initial__value__problem_8cc.html" target="_top" xlink:title=" ">
<polygon fill="white" stroke="black" points="284,-129 284,-148 420,-148 420,-129 284,-129"/>
<text text-anchor="middle" x="352" y="-136" font-family="Helvetica,sans-Serif" font-size="10.00">initial_value_problem.cc</text>
</a>
</g>
</g>
<!-- Node4&#45;&gt;Node5 -->
<g id="edge4" class="edge">
<title>Node4&#45;&gt;Node5</title>
<path fill="none" stroke="midnightblue" d="M239.88,-186.48C267.46,-174.92 307.67,-158.08 331.69,-148.01"/>
<polygon fill="midnightblue" stroke="midnightblue" points="238.22,-183.38 230.35,-190.48 240.92,-189.84 238.22,-183.38"/>
</g>
<!-- Node6 -->
<g id="node6" class="node">
<title>Node6</title>
<g id="a_node6"><a xlink:href="scalar__initial__value__problem_8h.html" target="_top" xlink:title=" ">
<polygon fill="white" stroke="black" points="154.5,-123.5 154.5,-153.5 265.5,-153.5 265.5,-123.5 154.5,-123.5"/>
<text text-anchor="start" x="162.5" y="-141.5" font-family="Helvetica,sans-Serif" font-size="10.00">scalar_initial_value</text>
<text text-anchor="middle" x="210" y="-130.5" font-family="Helvetica,sans-Serif" font-size="10.00">_problem.h</text>
</a>
</g>
</g>
<!-- Node4&#45;&gt;Node6 -->
<g id="edge5" class="edge">
<title>Node4&#45;&gt;Node6</title>
<path fill="none" stroke="midnightblue" d="M210,-180.23C210,-171.59 210,-161.5 210,-153.52"/>
<polygon fill="midnightblue" stroke="midnightblue" points="206.5,-180.48 210,-190.48 213.5,-180.48 206.5,-180.48"/>
</g>
<!-- Node6&#45;&gt;Node3 -->
<g id="edge6" class="edge">
<title>Node6&#45;&gt;Node3</title>
<path fill="none" stroke="midnightblue" d="M181.01,-117.45C166.55,-107.45 149.41,-95.6 136.36,-86.58"/>
<polygon fill="midnightblue" stroke="midnightblue" points="179.39,-120.59 189.6,-123.4 183.37,-114.83 179.39,-120.59"/>
</g>
<!-- Node7 -->
<g id="node7" class="node">
<title>Node7</title>
<g id="a_node7"><a xlink:href="antiderivative__function_8h.html" target="_top" xlink:title=" ">
<polygon fill="white" stroke="black" points="188.5,-62 188.5,-81 327.5,-81 327.5,-62 188.5,-62"/>
<text text-anchor="middle" x="258" y="-69" font-family="Helvetica,sans-Serif" font-size="10.00">antiderivative_function.h</text>
</a>
</g>
</g>
<!-- Node6&#45;&gt;Node7 -->
<g id="edge7" class="edge">
<title>Node6&#45;&gt;Node7</title>
<path fill="none" stroke="midnightblue" d="M226.38,-115.32C235.04,-103.6 245.16,-89.88 251.58,-81.19"/>
<polygon fill="midnightblue" stroke="midnightblue" points="223.54,-113.27 220.42,-123.4 229.17,-117.43 223.54,-113.27"/>
</g>
<!-- Node9 -->
<g id="node9" class="node">
<title>Node9</title>
<g id="a_node9"><a xlink:href="scalar__initial__value__problem_8cc.html" target="_top" xlink:title=" ">
<polygon fill="white" stroke="black" points="345.5,-56.5 345.5,-86.5 456.5,-86.5 456.5,-56.5 345.5,-56.5"/>
<text text-anchor="start" x="353.5" y="-74.5" font-family="Helvetica,sans-Serif" font-size="10.00">scalar_initial_value</text>
<text text-anchor="middle" x="401" y="-63.5" font-family="Helvetica,sans-Serif" font-size="10.00">_problem.cc</text>
</a>
</g>
</g>
<!-- Node6&#45;&gt;Node9 -->
<g id="edge10" class="edge">
<title>Node6&#45;&gt;Node9</title>
<path fill="none" stroke="midnightblue" d="M261.15,-120.09C291.99,-109.6 330.75,-96.41 359.64,-86.58"/>
<polygon fill="midnightblue" stroke="midnightblue" points="259.78,-116.86 251.44,-123.4 262.04,-123.49 259.78,-116.86"/>
</g>
<!-- Node7&#45;&gt;Node2 -->
<g id="edge8" class="edge">
<title>Node7&#45;&gt;Node2</title>
<path fill="none" stroke="midnightblue" d="M220.7,-58.88C183.57,-47.32 127.48,-29.84 94.31,-19.51"/>
<polygon fill="midnightblue" stroke="midnightblue" points="220.05,-62.34 230.63,-61.98 222.13,-55.66 220.05,-62.34"/>
</g>
<!-- Node8 -->
<g id="node8" class="node">
<title>Node8</title>
<g id="a_node8"><a xlink:href="antiderivative__function_8cc.html" target="_top" xlink:title=" ">
<polygon fill="white" stroke="black" points="186.5,-0.5 186.5,-19.5 329.5,-19.5 329.5,-0.5 186.5,-0.5"/>
<text text-anchor="middle" x="258" y="-7.5" font-family="Helvetica,sans-Serif" font-size="10.00">antiderivative_function.cc</text>
</a>
</g>
</g>
<!-- Node7&#45;&gt;Node8 -->
<g id="edge9" class="edge">
<title>Node7&#45;&gt;Node8</title>
<path fill="none" stroke="midnightblue" d="M258,-51.82C258,-41 258,-27.9 258,-19.51"/>
<polygon fill="midnightblue" stroke="midnightblue" points="254.5,-51.98 258,-61.98 261.5,-51.98 254.5,-51.98"/>
</g>
<!-- Node11&#45;&gt;Node5 -->
<g id="edge13" class="edge">
<title>Node11&#45;&gt;Node5</title>
<path fill="none" stroke="midnightblue" d="M460.96,-186.48C434.16,-174.92 395.08,-158.08 371.74,-148.01"/>
<polygon fill="midnightblue" stroke="midnightblue" points="459.66,-189.73 470.23,-190.48 462.43,-183.3 459.66,-189.73"/>
</g>
<!-- Node12 -->
<g id="node12" class="node">
<title>Node12</title>
<g id="a_node12"><a xlink:href="runge__kutta3__integrator_8cc.html" target="_top" xlink:title=" ">
<polygon fill="white" stroke="black" points="438,-129 438,-148 586,-148 586,-129 438,-129"/>
<text text-anchor="middle" x="512" y="-136" font-family="Helvetica,sans-Serif" font-size="10.00">runge_kutta3_integrator.cc</text>
</a>
</g>
</g>
<!-- Node11&#45;&gt;Node12 -->
<g id="edge14" class="edge">
<title>Node11&#45;&gt;Node12</title>
<path fill="none" stroke="midnightblue" d="M496.66,-181C500.7,-170.05 505.69,-156.57 508.85,-148.01"/>
<polygon fill="midnightblue" stroke="midnightblue" points="493.34,-179.88 493.15,-190.48 499.9,-182.31 493.34,-179.88"/>
</g>
</g>
</svg>
