<?xml version="1.0" encoding="UTF-8" standalone="no"?>
<!DOCTYPE svg PUBLIC "-//W3C//DTD SVG 1.1//EN"
 "http://www.w3.org/Graphics/SVG/1.1/DTD/svg11.dtd">
<!-- Generated by graphviz version 2.43.0 (0)
 -->
<!-- Title: logger.h Pages: 1 -->
<svg width="664pt" height="207pt"
 viewBox="0.00 0.00 663.50 207.00" xmlns="http://www.w3.org/2000/svg" xmlns:xlink="http://www.w3.org/1999/xlink">
<g id="graph0" class="graph" transform="scale(1 1) rotate(0) translate(4 203)">
<title>logger.h</title>
<polygon fill="white" stroke="transparent" points="-4,4 -4,-203 659.5,-203 659.5,4 -4,4"/>
<!-- Node1 -->
<g id="node1" class="node">
<title>Node1</title>
<g id="a_node1"><a xlink:title=" ">
<polygon fill="#bfbfbf" stroke="black" points="216.5,-179.5 216.5,-198.5 272.5,-198.5 272.5,-179.5 216.5,-179.5"/>
<text text-anchor="middle" x="244.5" y="-186.5" font-family="Helvetica,sans-Serif" font-size="10.00">logger.h</text>
</a>
</g>
</g>
<!-- Node2 -->
<g id="node2" class="node">
<title>Node2</title>
<g id="a_node2"><a xlink:title=" ">
<polygon fill="white" stroke="#bfbfbf" points="0,-118 0,-137 65,-137 65,-118 0,-118"/>
<text text-anchor="middle" x="32.5" y="-125" font-family="Helvetica,sans-Serif" font-size="10.00">functional</text>
</a>
</g>
</g>
<!-- Node1&#45;&gt;Node2 -->
<g id="edge1" class="edge">
<title>Node1&#45;&gt;Node2</title>
<path fill="none" stroke="midnightblue" d="M216.35,-181.22C182.48,-172.91 124,-158.08 74.5,-143 71.73,-142.16 68.87,-141.25 66.01,-140.32"/>
<polygon fill="midnightblue" stroke="midnightblue" points="66.98,-136.95 56.39,-137.09 64.76,-143.59 66.98,-136.95"/>
</g>
<!-- Node3 -->
<g id="node3" class="node">
<title>Node3</title>
<g id="a_node3"><a xlink:title=" ">
<polygon fill="white" stroke="#bfbfbf" points="83.5,-118 83.5,-137 121.5,-137 121.5,-118 83.5,-118"/>
<text text-anchor="middle" x="102.5" y="-125" font-family="Helvetica,sans-Serif" font-size="10.00">map</text>
</a>
</g>
</g>
<!-- Node1&#45;&gt;Node3 -->
<g id="edge2" class="edge">
<title>Node1&#45;&gt;Node3</title>
<path fill="none" stroke="midnightblue" d="M220.63,-179.38C197.35,-170.8 161.1,-156.92 130.5,-143 129.5,-142.55 128.49,-142.08 127.47,-141.59"/>
<polygon fill="midnightblue" stroke="midnightblue" points="128.87,-138.38 118.35,-137.07 125.75,-144.65 128.87,-138.38"/>
</g>
<!-- Node4 -->
<g id="node4" class="node">
<title>Node4</title>
<g id="a_node4"><a xlink:title=" ">
<polygon fill="white" stroke="#bfbfbf" points="139.5,-118 139.5,-137 197.5,-137 197.5,-118 139.5,-118"/>
<text text-anchor="middle" x="168.5" y="-125" font-family="Helvetica,sans-Serif" font-size="10.00">memory</text>
</a>
</g>
</g>
<!-- Node1&#45;&gt;Node4 -->
<g id="edge3" class="edge">
<title>Node1&#45;&gt;Node4</title>
<path fill="none" stroke="midnightblue" d="M233.61,-179.48C221.53,-170.02 201.83,-154.6 187.26,-143.19"/>
<polygon fill="midnightblue" stroke="midnightblue" points="189.4,-140.42 179.37,-137.01 185.09,-145.93 189.4,-140.42"/>
</g>
<!-- Node5 -->
<g id="node5" class="node">
<title>Node5</title>
<g id="a_node5"><a xlink:title=" ">
<polygon fill="white" stroke="#bfbfbf" points="329.5,-56.5 329.5,-75.5 385.5,-75.5 385.5,-56.5 329.5,-56.5"/>
<text text-anchor="middle" x="357.5" y="-63.5" font-family="Helvetica,sans-Serif" font-size="10.00">sstream</text>
</a>
</g>
</g>
<!-- Node1&#45;&gt;Node5 -->
<g id="edge4" class="edge">
<title>Node1&#45;&gt;Node5</title>
<path fill="none" stroke="midnightblue" d="M247.13,-179.07C252,-163.8 263.66,-132.35 282.5,-112 294.94,-98.57 312.3,-87.8 327.19,-80.18"/>
<polygon fill="midnightblue" stroke="midnightblue" points="329.08,-83.15 336.54,-75.62 326.01,-76.85 329.08,-83.15"/>
</g>
<!-- Node6 -->
<g id="node6" class="node">
<title>Node6</title>
<g id="a_node6"><a xlink:title=" ">
<polygon fill="white" stroke="#bfbfbf" points="467.5,-0.5 467.5,-19.5 511.5,-19.5 511.5,-0.5 467.5,-0.5"/>
<text text-anchor="middle" x="489.5" y="-7.5" font-family="Helvetica,sans-Serif" font-size="10.00">string</text>
</a>
</g>
</g>
<!-- Node1&#45;&gt;Node6 -->
<g id="edge5" class="edge">
<title>Node1&#45;&gt;Node6</title>
<path fill="none" stroke="midnightblue" d="M244.34,-179.42C244.42,-164.69 246.2,-134.02 258.5,-112 276.6,-79.58 287.87,-73.72 320.5,-56 364.51,-32.1 421.96,-20.32 457.27,-14.96"/>
<polygon fill="midnightblue" stroke="midnightblue" points="458.07,-18.38 467.47,-13.5 457.08,-11.45 458.07,-18.38"/>
</g>
<!-- Node7 -->
<g id="node7" class="node">
<title>Node7</title>
<g id="a_node7"><a xlink:title=" ">
<polygon fill="white" stroke="#bfbfbf" points="292,-118 292,-137 339,-137 339,-118 292,-118"/>
<text text-anchor="middle" x="315.5" y="-125" font-family="Helvetica,sans-Serif" font-size="10.00">vector</text>
</a>
</g>
</g>
<!-- Node1&#45;&gt;Node7 -->
<g id="edge6" class="edge">
<title>Node1&#45;&gt;Node7</title>
<path fill="none" stroke="midnightblue" d="M254.67,-179.48C265.85,-170.11 284.02,-154.88 297.59,-143.51"/>
<polygon fill="midnightblue" stroke="midnightblue" points="299.93,-146.11 305.35,-137.01 295.43,-140.75 299.93,-146.11"/>
</g>
<!-- Node8 -->
<g id="node8" class="node">
<title>Node8</title>
<g id="a_node8"><a xlink:href="maliput__copyable_8h.html" target="_top" xlink:title=" ">
<polygon fill="white" stroke="black" points="357.5,-112.5 357.5,-142.5 497.5,-142.5 497.5,-112.5 357.5,-112.5"/>
<text text-anchor="start" x="365.5" y="-130.5" font-family="Helvetica,sans-Serif" font-size="10.00">maliput/common/maliput</text>
<text text-anchor="middle" x="427.5" y="-119.5" font-family="Helvetica,sans-Serif" font-size="10.00">_copyable.h</text>
</a>
</g>
</g>
<!-- Node1&#45;&gt;Node8 -->
<g id="edge7" class="edge">
<title>Node1&#45;&gt;Node8</title>
<path fill="none" stroke="midnightblue" d="M270.72,-179.48C297.7,-170.7 340.5,-156.79 374.56,-145.71"/>
<polygon fill="midnightblue" stroke="midnightblue" points="375.94,-148.94 384.37,-142.52 373.78,-142.29 375.94,-148.94"/>
</g>
<!-- Node9 -->
<g id="node9" class="node">
<title>Node9</title>
<g id="a_node9"><a xlink:href="maliput__throw_8h.html" target="_top" xlink:title=" ">
<polygon fill="white" stroke="black" points="515.5,-112.5 515.5,-142.5 655.5,-142.5 655.5,-112.5 515.5,-112.5"/>
<text text-anchor="start" x="523.5" y="-130.5" font-family="Helvetica,sans-Serif" font-size="10.00">maliput/common/maliput</text>
<text text-anchor="middle" x="585.5" y="-119.5" font-family="Helvetica,sans-Serif" font-size="10.00">_throw.h</text>
</a>
</g>
</g>
<!-- Node1&#45;&gt;Node9 -->
<g id="edge8" class="edge">
<title>Node1&#45;&gt;Node9</title>
<path fill="none" stroke="midnightblue" d="M272.82,-183.24C319.2,-175.43 414.52,-159.28 505.38,-143.19"/>
<polygon fill="midnightblue" stroke="midnightblue" points="506.06,-146.62 515.3,-141.43 504.84,-139.73 506.06,-146.62"/>
</g>
<!-- Node9&#45;&gt;Node5 -->
<g id="edge9" class="edge">
<title>Node9&#45;&gt;Node5</title>
<path fill="none" stroke="midnightblue" d="M531.76,-112.47C489.88,-101.55 432.78,-86.64 395.53,-76.92"/>
<polygon fill="midnightblue" stroke="midnightblue" points="396.14,-73.47 385.58,-74.33 394.37,-80.24 396.14,-73.47"/>
</g>
<!-- Node9&#45;&gt;Node6 -->
<g id="edge10" class="edge">
<title>Node9&#45;&gt;Node6</title>
<path fill="none" stroke="midnightblue" d="M553.83,-112.36C538.14,-103.88 520.11,-91.67 508.5,-76 498.55,-62.57 493.79,-44 491.53,-30.15"/>
<polygon fill="midnightblue" stroke="midnightblue" points="494.94,-29.29 490.15,-19.84 488.01,-30.22 494.94,-29.29"/>
</g>
<!-- Node10 -->
<g id="node10" class="node">
<title>Node10</title>
<g id="a_node10"><a xlink:href="error_8h.html" target="_top" xlink:title=" ">
<polygon fill="white" stroke="black" points="518,-56.5 518,-75.5 653,-75.5 653,-56.5 518,-56.5"/>
<text text-anchor="middle" x="585.5" y="-63.5" font-family="Helvetica,sans-Serif" font-size="10.00">maliput/common/error.h</text>
</a>
</g>
</g>
<!-- Node9&#45;&gt;Node10 -->
<g id="edge11" class="edge">
<title>Node9&#45;&gt;Node10</title>
<path fill="none" stroke="midnightblue" d="M585.5,-112.4C585.5,-104.47 585.5,-94.46 585.5,-85.86"/>
<polygon fill="midnightblue" stroke="midnightblue" points="589,-85.66 585.5,-75.66 582,-85.66 589,-85.66"/>
</g>
<!-- Node10&#45;&gt;Node6 -->
<g id="edge13" class="edge">
<title>Node10&#45;&gt;Node6</title>
<path fill="none" stroke="midnightblue" d="M570.08,-56.32C554.96,-47.82 531.68,-34.73 514.03,-24.8"/>
<polygon fill="midnightblue" stroke="midnightblue" points="515.32,-21.51 504.89,-19.65 511.89,-27.61 515.32,-21.51"/>
</g>
<!-- Node11 -->
<g id="node11" class="node">
<title>Node11</title>
<g id="a_node11"><a xlink:title=" ">
<polygon fill="white" stroke="#bfbfbf" points="553,-0.5 553,-19.5 618,-19.5 618,-0.5 553,-0.5"/>
<text text-anchor="middle" x="585.5" y="-7.5" font-family="Helvetica,sans-Serif" font-size="10.00">stdexcept</text>
</a>
</g>
</g>
<!-- Node10&#45;&gt;Node11 -->
<g id="edge12" class="edge">
<title>Node10&#45;&gt;Node11</title>
<path fill="none" stroke="midnightblue" d="M585.5,-56.08C585.5,-49.01 585.5,-38.86 585.5,-29.99"/>
<polygon fill="midnightblue" stroke="midnightblue" points="589,-29.75 585.5,-19.75 582,-29.75 589,-29.75"/>
</g>
</g>
</svg>
