<?xml version="1.0" encoding="UTF-8" standalone="no"?>
<!DOCTYPE svg PUBLIC "-//W3C//DTD SVG 1.1//EN"
 "http://www.w3.org/Graphics/SVG/1.1/DTD/svg11.dtd">
<!-- Generated by graphviz version 2.43.0 (0)
 -->
<!-- Title: maliput_plugin.cc Pages: 1 -->
<!--zoomable 408 -->
<svg id="main" version="1.1" xmlns="http://www.w3.org/2000/svg" xmlns:xlink="http://www.w3.org/1999/xlink" xml:space="preserve" onload="init(evt)">
<style type="text/css"><![CDATA[
.edge:hover path { stroke: red; }
.edge:hover polygon { stroke: red; fill: red; }
]]></style>
<script type="text/javascript"><![CDATA[
var edges = document.getElementsByTagName('g');
if (edges && edges.length) {
  for (var i=0;i<edges.length;i++) {
    if (edges[i].id.substr(0,4)=='edge') {
      edges[i].setAttribute('class','edge');
    }
  }
}
]]></script>
        <defs>
                <circle id="rim" cx="0" cy="0" r="7"/>
                <circle id="rim2" cx="0" cy="0" r="3.5"/>
                <g id="zoomPlus">
                        <use xlink:href="#rim" fill="#404040">
                                <set attributeName="fill" to="#808080" begin="zoomplus.mouseover" end="zoomplus.mouseout"/>
                        </use>
                        <path d="M-4,0h8M0,-4v8" fill="none" stroke="white" stroke-width="1.5" pointer-events="none"/>
                </g>
                <g id="zoomMin">
                        <use xlink:href="#rim" fill="#404040">
                                <set attributeName="fill" to="#808080" begin="zoomminus.mouseover" end="zoomminus.mouseout"/>
                        </use>
                        <path d="M-4,0h8" fill="none" stroke="white" stroke-width="1.5" pointer-events="none"/>
                </g>
                <g id="dirArrow">
                        <path fill="none" stroke="white" stroke-width="1.5" d="M0,-3.0v7 M-2.5,-0.5L0,-3.0L2.5,-0.5"/>
                </g>
               <g id="resetDef">
                       <use xlink:href="#rim2" fill="#404040">
                               <set attributeName="fill" to="#808080" begin="reset.mouseover" end="reset.mouseout"/>
                       </use>
               </g>
        </defs>

<script type="text/javascript">
var viewWidth = 1177;
var viewHeight = 408;
var sectionId = 'dynsection-0';
</script>
<script xlink:href="svgpan.js"/>
<svg id="graph" class="graph">
<g id="viewport">
<title>maliput_plugin.cc</title>
<polygon fill="white" stroke="transparent" points="-4,4 -4,-404 1173,-404 1173,4 -4,4"/>
<!-- Node1 -->
<g id="node1" class="node">
<title>Node1</title>
<g id="a_node1"><a xlink:title=" ">
<polygon fill="#bfbfbf" stroke="black" points="727.5,-380.5 727.5,-399.5 830.5,-399.5 830.5,-380.5 727.5,-380.5"/>
<text text-anchor="middle" x="779" y="-387.5" font-family="Helvetica,sans-Serif" font-size="10.00">maliput_plugin.cc</text>
</a>
</g>
</g>
<!-- Node2 -->
<g id="node2" class="node">
<title>Node2</title>
<g id="a_node2"><a xlink:href="maliput__plugin_8h.html" target="_top" xlink:title=" ">
<polygon fill="white" stroke="black" points="715,-313.5 715,-343.5 843,-343.5 843,-313.5 715,-313.5"/>
<text text-anchor="start" x="723" y="-331.5" font-family="Helvetica,sans-Serif" font-size="10.00">maliput/plugin/maliput</text>
<text text-anchor="middle" x="779" y="-320.5" font-family="Helvetica,sans-Serif" font-size="10.00">_plugin.h</text>
</a>
</g>
</g>
<!-- Node1&#45;&gt;Node2 -->
<g id="edge1" class="edge">
<title>Node1&#45;&gt;Node2</title>
<path fill="none" stroke="midnightblue" d="M779,-380.48C779,-373.47 779,-363.19 779,-353.7"/>
<polygon fill="midnightblue" stroke="midnightblue" points="782.5,-353.52 779,-343.52 775.5,-353.52 782.5,-353.52"/>
</g>
<!-- Node3 -->
<g id="node3" class="node">
<title>Node3</title>
<g id="a_node3"><a xlink:title=" ">
<polygon fill="white" stroke="#bfbfbf" points="0,-252 0,-271 50,-271 50,-252 0,-252"/>
<text text-anchor="middle" x="25" y="-259" font-family="Helvetica,sans-Serif" font-size="10.00">dlfcn.h</text>
</a>
</g>
</g>
<!-- Node2&#45;&gt;Node3 -->
<g id="edge2" class="edge">
<title>Node2&#45;&gt;Node3</title>
<path fill="none" stroke="midnightblue" d="M714.79,-325.31C563.31,-319.76 187.22,-303.68 64,-277 60.92,-276.33 57.76,-275.47 54.64,-274.51"/>
<polygon fill="midnightblue" stroke="midnightblue" points="55.51,-271.1 44.91,-271.15 53.22,-277.72 55.51,-271.1"/>
</g>
<!-- Node4 -->
<g id="node4" class="node">
<title>Node4</title>
<g id="a_node4"><a xlink:title=" ">
<polygon fill="white" stroke="#bfbfbf" points="1018.5,-118 1018.5,-137 1083.5,-137 1083.5,-118 1018.5,-118"/>
<text text-anchor="middle" x="1051" y="-125" font-family="Helvetica,sans-Serif" font-size="10.00">functional</text>
</a>
</g>
</g>
<!-- Node2&#45;&gt;Node4 -->
<g id="edge3" class="edge">
<title>Node2&#45;&gt;Node4</title>
<path fill="none" stroke="midnightblue" d="M817.64,-313.38C863.77,-295.07 941.28,-259.49 994,-210 1014.1,-191.13 1031.3,-164.1 1041.4,-146.42"/>
<polygon fill="midnightblue" stroke="midnightblue" points="1044.71,-147.67 1046.49,-137.23 1038.58,-144.28 1044.71,-147.67"/>
</g>
<!-- Node5 -->
<g id="node5" class="node">
<title>Node5</title>
<g id="a_node5"><a xlink:title=" ">
<polygon fill="white" stroke="#bfbfbf" points="633,-252 633,-271 691,-271 691,-252 633,-252"/>
<text text-anchor="middle" x="662" y="-259" font-family="Helvetica,sans-Serif" font-size="10.00">memory</text>
</a>
</g>
</g>
<!-- Node2&#45;&gt;Node5 -->
<g id="edge4" class="edge">
<title>Node2&#45;&gt;Node5</title>
<path fill="none" stroke="midnightblue" d="M753.61,-313.4C733.63,-302.29 705.96,-286.92 686.27,-275.98"/>
<polygon fill="midnightblue" stroke="midnightblue" points="687.75,-272.8 677.31,-271.01 684.35,-278.92 687.75,-272.8"/>
</g>
<!-- Node6 -->
<g id="node6" class="node">
<title>Node6</title>
<g id="a_node6"><a xlink:title=" ">
<polygon fill="white" stroke="#bfbfbf" points="132,-0.5 132,-19.5 176,-19.5 176,-0.5 132,-0.5"/>
<text text-anchor="middle" x="154" y="-7.5" font-family="Helvetica,sans-Serif" font-size="10.00">string</text>
</a>
</g>
</g>
<!-- Node2&#45;&gt;Node6 -->
<g id="edge5" class="edge">
<title>Node2&#45;&gt;Node6</title>
<path fill="none" stroke="midnightblue" d="M714.93,-322.17C541.88,-306.9 78,-259.97 78,-195.5 78,-195.5 78,-195.5 78,-126.5 78,-84.81 112.98,-46.53 135.48,-26.22"/>
<polygon fill="midnightblue" stroke="midnightblue" points="137.86,-28.78 143.11,-19.58 133.27,-23.5 137.86,-28.78"/>
</g>
<!-- Node7 -->
<g id="node7" class="node">
<title>Node7</title>
<g id="a_node7"><a xlink:href="type__specific__identifier_8h.html" target="_top" xlink:title=" ">
<polygon fill="white" stroke="black" points="709,-246.5 709,-276.5 849,-276.5 849,-246.5 709,-246.5"/>
<text text-anchor="start" x="717" y="-264.5" font-family="Helvetica,sans-Serif" font-size="10.00">maliput/api/type_specific</text>
<text text-anchor="middle" x="779" y="-253.5" font-family="Helvetica,sans-Serif" font-size="10.00">_identifier.h</text>
</a>
</g>
</g>
<!-- Node2&#45;&gt;Node7 -->
<g id="edge6" class="edge">
<title>Node2&#45;&gt;Node7</title>
<path fill="none" stroke="midnightblue" d="M779,-313.4C779,-305.64 779,-295.81 779,-286.86"/>
<polygon fill="midnightblue" stroke="midnightblue" points="782.5,-286.58 779,-276.58 775.5,-286.58 782.5,-286.58"/>
</g>
<!-- Node9 -->
<g id="node9" class="node">
<title>Node9</title>
<g id="a_node9"><a xlink:href="maliput__copyable_8h.html" target="_top" xlink:title=" ">
<polygon fill="white" stroke="black" points="845,-179.5 845,-209.5 985,-209.5 985,-179.5 845,-179.5"/>
<text text-anchor="start" x="853" y="-197.5" font-family="Helvetica,sans-Serif" font-size="10.00">maliput/common/maliput</text>
<text text-anchor="middle" x="915" y="-186.5" font-family="Helvetica,sans-Serif" font-size="10.00">_copyable.h</text>
</a>
</g>
</g>
<!-- Node2&#45;&gt;Node9 -->
<g id="edge31" class="edge">
<title>Node2&#45;&gt;Node9</title>
<path fill="none" stroke="midnightblue" d="M806.48,-313.49C822.6,-304.44 842.73,-291.65 858,-277 875.98,-259.75 891.8,-236.06 902.18,-218.66"/>
<polygon fill="midnightblue" stroke="midnightblue" points="905.37,-220.13 907.37,-209.73 899.32,-216.62 905.37,-220.13"/>
</g>
<!-- Node24 -->
<g id="node24" class="node">
<title>Node24</title>
<g id="a_node24"><a xlink:href="maliput__plugin__type_8h.html" target="_top" xlink:title=" ">
<polygon fill="white" stroke="black" points="1041,-246.5 1041,-276.5 1169,-276.5 1169,-246.5 1041,-246.5"/>
<text text-anchor="start" x="1049" y="-264.5" font-family="Helvetica,sans-Serif" font-size="10.00">maliput/plugin/maliput</text>
<text text-anchor="middle" x="1105" y="-253.5" font-family="Helvetica,sans-Serif" font-size="10.00">_plugin_type.h</text>
</a>
</g>
</g>
<!-- Node2&#45;&gt;Node24 -->
<g id="edge32" class="edge">
<title>Node2&#45;&gt;Node24</title>
<path fill="none" stroke="midnightblue" d="M843.02,-314.74C896.98,-303.98 974.24,-288.57 1030.88,-277.28"/>
<polygon fill="midnightblue" stroke="midnightblue" points="1031.73,-280.68 1040.85,-275.29 1030.36,-273.81 1031.73,-280.68"/>
</g>
<!-- Node7&#45;&gt;Node4 -->
<g id="edge7" class="edge">
<title>Node7&#45;&gt;Node4</title>
<path fill="none" stroke="midnightblue" d="M784.78,-246.49C793.2,-227.97 810.62,-195.71 836,-179 901.96,-135.57 933.93,-164.21 1010,-143 1012.96,-142.17 1016.01,-141.25 1019.06,-140.27"/>
<polygon fill="midnightblue" stroke="midnightblue" points="1020.27,-143.55 1028.62,-137.03 1018.02,-136.92 1020.27,-143.55"/>
</g>
<!-- Node7&#45;&gt;Node6 -->
<g id="edge8" class="edge">
<title>Node7&#45;&gt;Node6</title>
<path fill="none" stroke="midnightblue" d="M708.79,-247.58C705.82,-247.04 702.88,-246.52 700,-246 577.81,-224.16 234.76,-234.6 151,-143 122.61,-111.95 136.47,-57.57 146.59,-29.27"/>
<polygon fill="midnightblue" stroke="midnightblue" points="149.91,-30.4 150.19,-19.81 143.37,-27.91 149.91,-30.4"/>
</g>
<!-- Node8 -->
<g id="node8" class="node">
<title>Node8</title>
<g id="a_node8"><a xlink:title=" ">
<polygon fill="white" stroke="#bfbfbf" points="955.5,-118 955.5,-137 1000.5,-137 1000.5,-118 955.5,-118"/>
<text text-anchor="middle" x="978" y="-125" font-family="Helvetica,sans-Serif" font-size="10.00">utility</text>
</a>
</g>
</g>
<!-- Node7&#45;&gt;Node8 -->
<g id="edge9" class="edge">
<title>Node7&#45;&gt;Node8</title>
<path fill="none" stroke="midnightblue" d="M779.11,-246.24C780.06,-228.04 784.49,-196.78 803,-179 850.25,-133.59 884.13,-164.61 946,-143 947.66,-142.42 949.36,-141.79 951.06,-141.12"/>
<polygon fill="midnightblue" stroke="midnightblue" points="952.79,-144.18 960.63,-137.05 950.05,-137.74 952.79,-144.18"/>
</g>
<!-- Node7&#45;&gt;Node9 -->
<g id="edge10" class="edge">
<title>Node7&#45;&gt;Node9</title>
<path fill="none" stroke="midnightblue" d="M808.51,-246.4C828.38,-236.9 854.79,-224.28 876.34,-213.98"/>
<polygon fill="midnightblue" stroke="midnightblue" points="878.03,-217.05 885.55,-209.58 875.02,-210.73 878.03,-217.05"/>
</g>
<!-- Node10 -->
<g id="node10" class="node">
<title>Node10</title>
<g id="a_node10"><a xlink:href="maliput__hash_8h.html" target="_top" xlink:title=" ">
<polygon fill="white" stroke="black" points="502,-179.5 502,-209.5 642,-209.5 642,-179.5 502,-179.5"/>
<text text-anchor="start" x="510" y="-197.5" font-family="Helvetica,sans-Serif" font-size="10.00">maliput/common/maliput</text>
<text text-anchor="middle" x="572" y="-186.5" font-family="Helvetica,sans-Serif" font-size="10.00">_hash.h</text>
</a>
</g>
</g>
<!-- Node7&#45;&gt;Node10 -->
<g id="edge11" class="edge">
<title>Node7&#45;&gt;Node10</title>
<path fill="none" stroke="midnightblue" d="M734.34,-246.48C702.75,-236.56 660.22,-223.2 626.61,-212.65"/>
<polygon fill="midnightblue" stroke="midnightblue" points="627.53,-209.27 616.94,-209.61 625.43,-215.95 627.53,-209.27"/>
</g>
<!-- Node20 -->
<g id="node20" class="node">
<title>Node20</title>
<g id="a_node20"><a xlink:href="maliput__throw_8h.html" target="_top" xlink:title=" ">
<polygon fill="white" stroke="black" points="797,-112.5 797,-142.5 937,-142.5 937,-112.5 797,-112.5"/>
<text text-anchor="start" x="805" y="-130.5" font-family="Helvetica,sans-Serif" font-size="10.00">maliput/common/maliput</text>
<text text-anchor="middle" x="867" y="-119.5" font-family="Helvetica,sans-Serif" font-size="10.00">_throw.h</text>
</a>
</g>
</g>
<!-- Node7&#45;&gt;Node20 -->
<g id="edge30" class="edge">
<title>Node7&#45;&gt;Node20</title>
<path fill="none" stroke="midnightblue" d="M771.11,-246.41C762.65,-229.21 752.05,-199.86 765,-179 773.89,-164.68 788.18,-154.3 803.28,-146.82"/>
<polygon fill="midnightblue" stroke="midnightblue" points="805.09,-149.84 812.75,-142.52 802.2,-143.46 805.09,-149.84"/>
</g>
<!-- Node10&#45;&gt;Node4 -->
<g id="edge15" class="edge">
<title>Node10&#45;&gt;Node4</title>
<path fill="none" stroke="midnightblue" d="M642.24,-190.28C729.44,-185.16 882.29,-172.55 1010,-143 1013.24,-142.25 1016.57,-141.33 1019.88,-140.32"/>
<polygon fill="midnightblue" stroke="midnightblue" points="1021.18,-143.58 1029.57,-137.1 1018.97,-136.93 1021.18,-143.58"/>
</g>
<!-- Node10&#45;&gt;Node6 -->
<g id="edge20" class="edge">
<title>Node10&#45;&gt;Node6</title>
<path fill="none" stroke="midnightblue" d="M501.77,-194.44C399.86,-194.24 218.19,-187.42 173,-143 142.68,-113.2 146.08,-58.23 150.43,-29.54"/>
<polygon fill="midnightblue" stroke="midnightblue" points="153.89,-30.07 152.13,-19.62 146.99,-28.88 153.89,-30.07"/>
</g>
<!-- Node10&#45;&gt;Node8 -->
<g id="edge22" class="edge">
<title>Node10&#45;&gt;Node8</title>
<path fill="none" stroke="midnightblue" d="M642.18,-190.12C718.28,-185.06 842.73,-172.68 946,-143 947.93,-142.44 949.9,-141.79 951.86,-141.07"/>
<polygon fill="midnightblue" stroke="midnightblue" points="953.51,-144.18 961.41,-137.12 950.83,-137.71 953.51,-144.18"/>
</g>
<!-- Node11 -->
<g id="node11" class="node">
<title>Node11</title>
<g id="a_node11"><a xlink:title=" ">
<polygon fill="white" stroke="#bfbfbf" points="514.5,-118 514.5,-137 561.5,-137 561.5,-118 514.5,-118"/>
<text text-anchor="middle" x="538" y="-125" font-family="Helvetica,sans-Serif" font-size="10.00">cmath</text>
</a>
</g>
</g>
<!-- Node10&#45;&gt;Node11 -->
<g id="edge12" class="edge">
<title>Node10&#45;&gt;Node11</title>
<path fill="none" stroke="midnightblue" d="M564.62,-179.4C559.53,-169.66 552.72,-156.65 547.27,-146.21"/>
<polygon fill="midnightblue" stroke="midnightblue" points="550.28,-144.43 542.55,-137.19 544.08,-147.68 550.28,-144.43"/>
</g>
<!-- Node12 -->
<g id="node12" class="node">
<title>Node12</title>
<g id="a_node12"><a xlink:title=" ">
<polygon fill="white" stroke="#bfbfbf" points="579.5,-118 579.5,-137 632.5,-137 632.5,-118 579.5,-118"/>
<text text-anchor="middle" x="606" y="-125" font-family="Helvetica,sans-Serif" font-size="10.00">cstddef</text>
</a>
</g>
</g>
<!-- Node10&#45;&gt;Node12 -->
<g id="edge13" class="edge">
<title>Node10&#45;&gt;Node12</title>
<path fill="none" stroke="midnightblue" d="M579.38,-179.4C584.47,-169.66 591.28,-156.65 596.73,-146.21"/>
<polygon fill="midnightblue" stroke="midnightblue" points="599.92,-147.68 601.45,-137.19 593.72,-144.43 599.92,-147.68"/>
</g>
<!-- Node13 -->
<g id="node13" class="node">
<title>Node13</title>
<g id="a_node13"><a xlink:title=" ">
<polygon fill="white" stroke="#bfbfbf" points="651,-118 651,-137 701,-137 701,-118 651,-118"/>
<text text-anchor="middle" x="676" y="-125" font-family="Helvetica,sans-Serif" font-size="10.00">cstdint</text>
</a>
</g>
</g>
<!-- Node10&#45;&gt;Node13 -->
<g id="edge14" class="edge">
<title>Node10&#45;&gt;Node13</title>
<path fill="none" stroke="midnightblue" d="M594.57,-179.4C612.01,-168.5 636.03,-153.48 653.47,-142.58"/>
<polygon fill="midnightblue" stroke="midnightblue" points="655.76,-145.28 662.39,-137.01 652.05,-139.34 655.76,-145.28"/>
</g>
<!-- Node14 -->
<g id="node14" class="node">
<title>Node14</title>
<g id="a_node14"><a xlink:title=" ">
<polygon fill="white" stroke="#bfbfbf" points="719,-118 719,-137 779,-137 779,-118 719,-118"/>
<text text-anchor="middle" x="749" y="-125" font-family="Helvetica,sans-Serif" font-size="10.00">iostream</text>
</a>
</g>
</g>
<!-- Node10&#45;&gt;Node14 -->
<g id="edge16" class="edge">
<title>Node10&#45;&gt;Node14</title>
<path fill="none" stroke="midnightblue" d="M610.68,-179.4C638.36,-169.31 676.49,-155.36 710,-143 712.09,-142.23 714.25,-141.43 716.42,-140.63"/>
<polygon fill="midnightblue" stroke="midnightblue" points="717.75,-143.87 725.91,-137.11 715.32,-137.3 717.75,-143.87"/>
</g>
<!-- Node15 -->
<g id="node15" class="node">
<title>Node15</title>
<g id="a_node15"><a xlink:title=" ">
<polygon fill="white" stroke="#bfbfbf" points="182,-118 182,-137 220,-137 220,-118 182,-118"/>
<text text-anchor="middle" x="201" y="-125" font-family="Helvetica,sans-Serif" font-size="10.00">map</text>
</a>
</g>
</g>
<!-- Node10&#45;&gt;Node15 -->
<g id="edge17" class="edge">
<title>Node10&#45;&gt;Node15</title>
<path fill="none" stroke="midnightblue" d="M501.81,-189.97C431.38,-184.86 320.51,-172.52 229,-143 227.57,-142.54 226.12,-142.01 224.68,-141.43"/>
<polygon fill="midnightblue" stroke="midnightblue" points="225.97,-138.17 215.43,-137.13 223.02,-144.52 225.97,-138.17"/>
</g>
<!-- Node16 -->
<g id="node16" class="node">
<title>Node16</title>
<g id="a_node16"><a xlink:title=" ">
<polygon fill="white" stroke="#bfbfbf" points="238,-118 238,-137 294,-137 294,-118 238,-118"/>
<text text-anchor="middle" x="266" y="-125" font-family="Helvetica,sans-Serif" font-size="10.00">optional</text>
</a>
</g>
</g>
<!-- Node10&#45;&gt;Node16 -->
<g id="edge18" class="edge">
<title>Node10&#45;&gt;Node16</title>
<path fill="none" stroke="midnightblue" d="M501.77,-184.02C447,-175.73 369.34,-162.04 303,-143 300.42,-142.26 297.76,-141.41 295.12,-140.49"/>
<polygon fill="midnightblue" stroke="midnightblue" points="296.33,-137.21 285.73,-137.02 293.9,-143.78 296.33,-137.21"/>
</g>
<!-- Node17 -->
<g id="node17" class="node">
<title>Node17</title>
<g id="a_node17"><a xlink:title=" ">
<polygon fill="white" stroke="#bfbfbf" points="312,-118 312,-137 344,-137 344,-118 312,-118"/>
<text text-anchor="middle" x="328" y="-125" font-family="Helvetica,sans-Serif" font-size="10.00">set</text>
</a>
</g>
</g>
<!-- Node10&#45;&gt;Node17 -->
<g id="edge19" class="edge">
<title>Node10&#45;&gt;Node17</title>
<path fill="none" stroke="midnightblue" d="M501.85,-182.84C458.06,-174.85 401.09,-161.99 353,-143 352.12,-142.65 351.24,-142.28 350.35,-141.88"/>
<polygon fill="midnightblue" stroke="midnightblue" points="351.61,-138.59 341.12,-137.09 348.39,-144.81 351.61,-138.59"/>
</g>
<!-- Node18 -->
<g id="node18" class="node">
<title>Node18</title>
<g id="a_node18"><a xlink:title=" ">
<polygon fill="white" stroke="#bfbfbf" points="362.5,-118 362.5,-137 431.5,-137 431.5,-118 362.5,-118"/>
<text text-anchor="middle" x="397" y="-125" font-family="Helvetica,sans-Serif" font-size="10.00">type_traits</text>
</a>
</g>
</g>
<!-- Node10&#45;&gt;Node18 -->
<g id="edge21" class="edge">
<title>Node10&#45;&gt;Node18</title>
<path fill="none" stroke="midnightblue" d="M534.03,-179.4C502.78,-167.79 458.96,-151.51 429.36,-140.52"/>
<polygon fill="midnightblue" stroke="midnightblue" points="430.5,-137.21 419.9,-137.01 428.06,-143.77 430.5,-137.21"/>
</g>
<!-- Node19 -->
<g id="node19" class="node">
<title>Node19</title>
<g id="a_node19"><a xlink:title=" ">
<polygon fill="white" stroke="#bfbfbf" points="449.5,-118 449.5,-137 496.5,-137 496.5,-118 449.5,-118"/>
<text text-anchor="middle" x="473" y="-125" font-family="Helvetica,sans-Serif" font-size="10.00">vector</text>
</a>
</g>
</g>
<!-- Node10&#45;&gt;Node19 -->
<g id="edge23" class="edge">
<title>Node10&#45;&gt;Node19</title>
<path fill="none" stroke="midnightblue" d="M550.52,-179.4C533.92,-168.5 511.04,-153.48 494.45,-142.58"/>
<polygon fill="midnightblue" stroke="midnightblue" points="496.24,-139.57 485.96,-137.01 492.4,-145.42 496.24,-139.57"/>
</g>
<!-- Node10&#45;&gt;Node20 -->
<g id="edge24" class="edge">
<title>Node10&#45;&gt;Node20</title>
<path fill="none" stroke="midnightblue" d="M635.65,-179.48C682,-169.26 744.89,-155.41 793.4,-144.72"/>
<polygon fill="midnightblue" stroke="midnightblue" points="794.2,-148.12 803.21,-142.55 792.69,-141.29 794.2,-148.12"/>
</g>
<!-- Node20&#45;&gt;Node6 -->
<g id="edge26" class="edge">
<title>Node20&#45;&gt;Node6</title>
<path fill="none" stroke="midnightblue" d="M796.8,-113.53C793.83,-113.01 790.89,-112.49 788,-112 557.67,-72.52 279.34,-29.96 186.15,-15.85"/>
<polygon fill="midnightblue" stroke="midnightblue" points="186.62,-12.38 176.21,-14.34 185.58,-19.3 186.62,-12.38"/>
</g>
<!-- Node21 -->
<g id="node21" class="node">
<title>Node21</title>
<g id="a_node21"><a xlink:title=" ">
<polygon fill="white" stroke="#bfbfbf" points="725,-56.5 725,-75.5 781,-75.5 781,-56.5 725,-56.5"/>
<text text-anchor="middle" x="753" y="-63.5" font-family="Helvetica,sans-Serif" font-size="10.00">sstream</text>
</a>
</g>
</g>
<!-- Node20&#45;&gt;Node21 -->
<g id="edge25" class="edge">
<title>Node20&#45;&gt;Node21</title>
<path fill="none" stroke="midnightblue" d="M839.98,-112.4C821.37,-102.68 796.79,-89.86 778.51,-80.31"/>
<polygon fill="midnightblue" stroke="midnightblue" points="780.07,-77.18 769.59,-75.66 776.83,-83.39 780.07,-77.18"/>
</g>
<!-- Node22 -->
<g id="node22" class="node">
<title>Node22</title>
<g id="a_node22"><a xlink:href="error_8h.html" target="_top" xlink:title=" ">
<polygon fill="white" stroke="black" points="799.5,-56.5 799.5,-75.5 934.5,-75.5 934.5,-56.5 799.5,-56.5"/>
<text text-anchor="middle" x="867" y="-63.5" font-family="Helvetica,sans-Serif" font-size="10.00">maliput/common/error.h</text>
</a>
</g>
</g>
<!-- Node20&#45;&gt;Node22 -->
<g id="edge27" class="edge">
<title>Node20&#45;&gt;Node22</title>
<path fill="none" stroke="midnightblue" d="M867,-112.4C867,-104.47 867,-94.46 867,-85.86"/>
<polygon fill="midnightblue" stroke="midnightblue" points="870.5,-85.66 867,-75.66 863.5,-85.66 870.5,-85.66"/>
</g>
<!-- Node22&#45;&gt;Node6 -->
<g id="edge29" class="edge">
<title>Node22&#45;&gt;Node6</title>
<path fill="none" stroke="midnightblue" d="M799.41,-56.92C796.23,-56.6 793.08,-56.29 790,-56 559.16,-34.35 280.3,-18 186.53,-12.78"/>
<polygon fill="midnightblue" stroke="midnightblue" points="186.46,-9.27 176.28,-12.21 186.07,-16.25 186.46,-9.27"/>
</g>
<!-- Node23 -->
<g id="node23" class="node">
<title>Node23</title>
<g id="a_node23"><a xlink:title=" ">
<polygon fill="white" stroke="#bfbfbf" points="834.5,-0.5 834.5,-19.5 899.5,-19.5 899.5,-0.5 834.5,-0.5"/>
<text text-anchor="middle" x="867" y="-7.5" font-family="Helvetica,sans-Serif" font-size="10.00">stdexcept</text>
</a>
</g>
</g>
<!-- Node22&#45;&gt;Node23 -->
<g id="edge28" class="edge">
<title>Node22&#45;&gt;Node23</title>
<path fill="none" stroke="midnightblue" d="M867,-56.08C867,-49.01 867,-38.86 867,-29.99"/>
<polygon fill="midnightblue" stroke="midnightblue" points="870.5,-29.75 867,-19.75 863.5,-29.75 870.5,-29.75"/>
</g>
</g>
</svg>
        <g id="navigator" transform="translate(0 0)" fill="#404254">
                <rect fill="#f2f5e9" fill-opacity="0.5" stroke="#606060" stroke-width=".5" x="0" y="0" width="60" height="60"/>
                <use id="zoomplus" xlink:href="#zoomPlus" x="17" y="9" onmousedown="handleZoom(evt,'in')"/>
                <use id="zoomminus" xlink:href="#zoomMin" x="42" y="9" onmousedown="handleZoom(evt,'out')"/>
                <use id="reset" xlink:href="#resetDef" x="30" y="36" onmousedown="handleReset()"/>
                <g id="arrowUp" xlink:href="#dirArrow" transform="translate(30 24)" onmousedown="handlePan(0,-1)">
                  <use xlink:href="#rim" fill="#404040">
                        <set attributeName="fill" to="#808080" begin="arrowUp.mouseover" end="arrowUp.mouseout"/>
                  </use>
                  <path fill="none" stroke="white" stroke-width="1.5" d="M0,-3.0v7 M-2.5,-0.5L0,-3.0L2.5,-0.5"/>
                </g>
                <g id="arrowRight" xlink:href="#dirArrow" transform="rotate(90) translate(36 -43)" onmousedown="handlePan(1,0)">
                  <use xlink:href="#rim" fill="#404040">
                        <set attributeName="fill" to="#808080" begin="arrowRight.mouseover" end="arrowRight.mouseout"/>
                  </use>
                  <path fill="none" stroke="white" stroke-width="1.5" d="M0,-3.0v7 M-2.5,-0.5L0,-3.0L2.5,-0.5"/>
                </g>
                <g id="arrowDown" xlink:href="#dirArrow" transform="rotate(180) translate(-30 -48)" onmousedown="handlePan(0,1)">
                  <use xlink:href="#rim" fill="#404040">
                        <set attributeName="fill" to="#808080" begin="arrowDown.mouseover" end="arrowDown.mouseout"/>
                  </use>
                  <path fill="none" stroke="white" stroke-width="1.5" d="M0,-3.0v7 M-2.5,-0.5L0,-3.0L2.5,-0.5"/>
                </g>
                <g id="arrowLeft" xlink:href="#dirArrow" transform="rotate(270) translate(-36 17)" onmousedown="handlePan(-1,0)">
                  <use xlink:href="#rim" fill="#404040">
                        <set attributeName="fill" to="#808080" begin="arrowLeft.mouseover" end="arrowLeft.mouseout"/>
                  </use>
                  <path fill="none" stroke="white" stroke-width="1.5" d="M0,-3.0v7 M-2.5,-0.5L0,-3.0L2.5,-0.5"/>
                </g>
        </g>
        <svg viewBox="0 0 15 15" width="100%" height="30px" preserveAspectRatio="xMaxYMin meet">
         <g id="arrow_out" transform="scale(0.3 0.3)">
          <a xlink:href="maliput__plugin_8cc__incl_org.svg" target="_base">
           <rect id="button" ry="5" rx="5" y="6" x="6" height="38" width="38"
                fill="#f2f5e9" fill-opacity="0.5" stroke="#606060" stroke-width="1.0"/>
           <path id="arrow"
             d="M 11.500037,31.436501 C 11.940474,20.09759 22.043105,11.32322 32.158766,21.979434 L 37.068811,17.246167 C 37.068811,17.246167 37.088388,32 37.088388,32 L 22.160133,31.978069 C 22.160133,31.978069 26.997745,27.140456 26.997745,27.140456 C 18.528582,18.264221 13.291696,25.230495 11.500037,31.436501 z"
             style="fill:#404040;"/>
          </a>
         </g>
        </svg>
</svg>
