<?xml version="1.0" encoding="UTF-8" standalone="no"?>
<!DOCTYPE svg PUBLIC "-//W3C//DTD SVG 1.1//EN"
 "http://www.w3.org/Graphics/SVG/1.1/DTD/svg11.dtd">
<!-- Generated by graphviz version 2.43.0 (0)
 -->
<!-- Title: maliput_plugin_manager.h Pages: 1 -->
<svg width="1149pt" height="408pt"
 viewBox="0.00 0.00 1148.50 408.00" xmlns="http://www.w3.org/2000/svg" xmlns:xlink="http://www.w3.org/1999/xlink">
<g id="graph0" class="graph" transform="scale(1 1) rotate(0) translate(4 404)">
<title>maliput_plugin_manager.h</title>
<polygon fill="white" stroke="transparent" points="-4,4 -4,-404 1144.5,-404 1144.5,4 -4,4"/>
<!-- Node1 -->
<g id="node1" class="node">
<title>Node1</title>
<g id="a_node1"><a xlink:title=" ">
<polygon fill="#bfbfbf" stroke="black" points="284.5,-380.5 284.5,-399.5 431.5,-399.5 431.5,-380.5 284.5,-380.5"/>
<text text-anchor="middle" x="358" y="-387.5" font-family="Helvetica,sans-Serif" font-size="10.00">maliput_plugin_manager.h</text>
</a>
</g>
</g>
<!-- Node2 -->
<g id="node2" class="node">
<title>Node2</title>
<g id="a_node2"><a xlink:title=" ">
<polygon fill="white" stroke="#bfbfbf" points="28,-252 28,-271 86,-271 86,-252 28,-252"/>
<text text-anchor="middle" x="57" y="-259" font-family="Helvetica,sans-Serif" font-size="10.00">memory</text>
</a>
</g>
</g>
<!-- Node1&#45;&gt;Node2 -->
<g id="edge1" class="edge">
<title>Node1&#45;&gt;Node2</title>
<path fill="none" stroke="midnightblue" d="M327.38,-380.44C299.1,-372.2 256.14,-358.83 220,-344 169.34,-323.21 112.66,-293.27 81.27,-276.06"/>
<polygon fill="midnightblue" stroke="midnightblue" points="82.82,-272.92 72.38,-271.16 79.44,-279.05 82.82,-272.92"/>
</g>
<!-- Node3 -->
<g id="node3" class="node">
<title>Node3</title>
<g id="a_node3"><a xlink:title=" ">
<polygon fill="white" stroke="#bfbfbf" points="149,-0.5 149,-19.5 193,-19.5 193,-0.5 149,-0.5"/>
<text text-anchor="middle" x="171" y="-7.5" font-family="Helvetica,sans-Serif" font-size="10.00">string</text>
</a>
</g>
</g>
<!-- Node1&#45;&gt;Node3 -->
<g id="edge2" class="edge">
<title>Node1&#45;&gt;Node3</title>
<path fill="none" stroke="midnightblue" d="M298.08,-380.47C196.17,-364.26 0,-324.96 0,-262.5 0,-262.5 0,-262.5 0,-126.5 0,-60.11 89.61,-29.31 139.09,-17.37"/>
<polygon fill="midnightblue" stroke="midnightblue" points="140.03,-20.75 148.99,-15.1 138.47,-13.92 140.03,-20.75"/>
</g>
<!-- Node4 -->
<g id="node4" class="node">
<title>Node4</title>
<g id="a_node4"><a xlink:title=" ">
<polygon fill="white" stroke="#bfbfbf" points="808.5,-319 808.5,-338 901.5,-338 901.5,-319 808.5,-319"/>
<text text-anchor="middle" x="855" y="-326" font-family="Helvetica,sans-Serif" font-size="10.00">unordered_map</text>
</a>
</g>
</g>
<!-- Node1&#45;&gt;Node4 -->
<g id="edge3" class="edge">
<title>Node1&#45;&gt;Node4</title>
<path fill="none" stroke="midnightblue" d="M431.68,-384.34C518.69,-378.16 667.58,-365.45 794,-344 799.98,-342.98 806.25,-341.72 812.4,-340.37"/>
<polygon fill="midnightblue" stroke="midnightblue" points="813.59,-343.69 822.55,-338.04 812.02,-336.87 813.59,-343.69"/>
</g>
<!-- Node5 -->
<g id="node5" class="node">
<title>Node5</title>
<g id="a_node5"><a xlink:title=" ">
<polygon fill="white" stroke="#bfbfbf" points="1093.5,-118 1093.5,-137 1140.5,-137 1140.5,-118 1093.5,-118"/>
<text text-anchor="middle" x="1117" y="-125" font-family="Helvetica,sans-Serif" font-size="10.00">vector</text>
</a>
</g>
</g>
<!-- Node1&#45;&gt;Node5 -->
<g id="edge4" class="edge">
<title>Node1&#45;&gt;Node5</title>
<path fill="none" stroke="midnightblue" d="M386.43,-380.49C484.55,-350.91 817.59,-248.53 1085,-143 1086.42,-142.44 1087.86,-141.85 1089.32,-141.24"/>
<polygon fill="midnightblue" stroke="midnightblue" points="1091.08,-144.3 1098.86,-137.1 1088.29,-137.88 1091.08,-144.3"/>
</g>
<!-- Node6 -->
<g id="node6" class="node">
<title>Node6</title>
<g id="a_node6"><a xlink:href="maliput__copyable_8h.html" target="_top" xlink:title=" ">
<polygon fill="white" stroke="black" points="175,-179.5 175,-209.5 315,-209.5 315,-179.5 175,-179.5"/>
<text text-anchor="start" x="183" y="-197.5" font-family="Helvetica,sans-Serif" font-size="10.00">maliput/common/maliput</text>
<text text-anchor="middle" x="245" y="-186.5" font-family="Helvetica,sans-Serif" font-size="10.00">_copyable.h</text>
</a>
</g>
</g>
<!-- Node1&#45;&gt;Node6 -->
<g id="edge5" class="edge">
<title>Node1&#45;&gt;Node6</title>
<path fill="none" stroke="midnightblue" d="M361.56,-380.28C370.73,-356.33 392.41,-288.48 363,-246 352.87,-231.37 337.59,-220.96 321.35,-213.55"/>
<polygon fill="midnightblue" stroke="midnightblue" points="322.28,-210.15 311.7,-209.53 319.58,-216.61 322.28,-210.15"/>
</g>
<!-- Node7 -->
<g id="node7" class="node">
<title>Node7</title>
<g id="a_node7"><a xlink:href="maliput__plugin_8h.html" target="_top" xlink:title=" ">
<polygon fill="white" stroke="black" points="229,-313.5 229,-343.5 357,-343.5 357,-313.5 229,-313.5"/>
<text text-anchor="start" x="237" y="-331.5" font-family="Helvetica,sans-Serif" font-size="10.00">maliput/plugin/maliput</text>
<text text-anchor="middle" x="293" y="-320.5" font-family="Helvetica,sans-Serif" font-size="10.00">_plugin.h</text>
</a>
</g>
</g>
<!-- Node1&#45;&gt;Node7 -->
<g id="edge6" class="edge">
<title>Node1&#45;&gt;Node7</title>
<path fill="none" stroke="midnightblue" d="M348.69,-380.48C340.13,-372.64 327.1,-360.71 315.79,-350.37"/>
<polygon fill="midnightblue" stroke="midnightblue" points="318.06,-347.69 308.32,-343.52 313.33,-352.86 318.06,-347.69"/>
</g>
<!-- Node7&#45;&gt;Node2 -->
<g id="edge9" class="edge">
<title>Node7&#45;&gt;Node2</title>
<path fill="none" stroke="midnightblue" d="M234.86,-313.4C196.4,-303.81 144.96,-290.45 100,-277 97.08,-276.13 94.05,-275.18 91.02,-274.21"/>
<polygon fill="midnightblue" stroke="midnightblue" points="92.06,-270.87 81.46,-271.08 89.87,-277.52 92.06,-270.87"/>
</g>
<!-- Node7&#45;&gt;Node3 -->
<g id="edge10" class="edge">
<title>Node7&#45;&gt;Node3</title>
<path fill="none" stroke="midnightblue" d="M228.94,-314.09C190.45,-304.78 146.41,-291.48 133,-277 107.73,-249.71 114,-232.69 114,-195.5 114,-195.5 114,-195.5 114,-126.5 114,-87.78 140.07,-48.6 156.95,-27.3"/>
<polygon fill="midnightblue" stroke="midnightblue" points="159.67,-29.51 163.31,-19.56 154.26,-25.06 159.67,-29.51"/>
</g>
<!-- Node7&#45;&gt;Node6 -->
<g id="edge36" class="edge">
<title>Node7&#45;&gt;Node6</title>
<path fill="none" stroke="midnightblue" d="M313.84,-313.24C334.74,-297.1 361.86,-269.94 347,-246 338.11,-231.68 323.82,-221.3 308.72,-213.82"/>
<polygon fill="midnightblue" stroke="midnightblue" points="309.8,-210.46 299.25,-209.52 306.91,-216.84 309.8,-210.46"/>
</g>
<!-- Node8 -->
<g id="node8" class="node">
<title>Node8</title>
<g id="a_node8"><a xlink:title=" ">
<polygon fill="white" stroke="#bfbfbf" points="142,-252 142,-271 192,-271 192,-252 142,-252"/>
<text text-anchor="middle" x="167" y="-259" font-family="Helvetica,sans-Serif" font-size="10.00">dlfcn.h</text>
</a>
</g>
</g>
<!-- Node7&#45;&gt;Node8 -->
<g id="edge7" class="edge">
<title>Node7&#45;&gt;Node8</title>
<path fill="none" stroke="midnightblue" d="M265.66,-313.4C243.94,-302.19 213.8,-286.64 192.56,-275.69"/>
<polygon fill="midnightblue" stroke="midnightblue" points="193.98,-272.48 183.49,-271.01 190.77,-278.7 193.98,-272.48"/>
</g>
<!-- Node9 -->
<g id="node9" class="node">
<title>Node9</title>
<g id="a_node9"><a xlink:title=" ">
<polygon fill="white" stroke="#bfbfbf" points="1010.5,-118 1010.5,-137 1075.5,-137 1075.5,-118 1010.5,-118"/>
<text text-anchor="middle" x="1043" y="-125" font-family="Helvetica,sans-Serif" font-size="10.00">functional</text>
</a>
</g>
</g>
<!-- Node7&#45;&gt;Node9 -->
<g id="edge8" class="edge">
<title>Node7&#45;&gt;Node9</title>
<path fill="none" stroke="midnightblue" d="M357.14,-321.38C416.32,-314.53 506.1,-301.11 581,-277 646.28,-255.99 660.52,-244.14 720,-210 741.38,-197.73 743.04,-187.97 766,-179 864.42,-140.54 898.42,-168.34 1001,-143 1004.22,-142.2 1007.54,-141.27 1010.84,-140.26"/>
<polygon fill="midnightblue" stroke="midnightblue" points="1012.14,-143.52 1020.56,-137.09 1009.96,-136.86 1012.14,-143.52"/>
</g>
<!-- Node10 -->
<g id="node10" class="node">
<title>Node10</title>
<g id="a_node10"><a xlink:href="type__specific__identifier_8h.html" target="_top" xlink:title=" ">
<polygon fill="white" stroke="black" points="432,-246.5 432,-276.5 572,-276.5 572,-246.5 432,-246.5"/>
<text text-anchor="start" x="440" y="-264.5" font-family="Helvetica,sans-Serif" font-size="10.00">maliput/api/type_specific</text>
<text text-anchor="middle" x="502" y="-253.5" font-family="Helvetica,sans-Serif" font-size="10.00">_identifier.h</text>
</a>
</g>
</g>
<!-- Node7&#45;&gt;Node10 -->
<g id="edge11" class="edge">
<title>Node7&#45;&gt;Node10</title>
<path fill="none" stroke="midnightblue" d="M338.09,-313.48C369.98,-303.56 412.93,-290.2 446.86,-279.65"/>
<polygon fill="midnightblue" stroke="midnightblue" points="448.12,-282.92 456.63,-276.61 446.04,-276.24 448.12,-282.92"/>
</g>
<!-- Node25 -->
<g id="node25" class="node">
<title>Node25</title>
<g id="a_node25"><a xlink:href="maliput__plugin__type_8h.html" target="_top" xlink:title=" ">
<polygon fill="white" stroke="black" points="210,-246.5 210,-276.5 338,-276.5 338,-246.5 210,-246.5"/>
<text text-anchor="start" x="218" y="-264.5" font-family="Helvetica,sans-Serif" font-size="10.00">maliput/plugin/maliput</text>
<text text-anchor="middle" x="274" y="-253.5" font-family="Helvetica,sans-Serif" font-size="10.00">_plugin_type.h</text>
</a>
</g>
</g>
<!-- Node7&#45;&gt;Node25 -->
<g id="edge37" class="edge">
<title>Node7&#45;&gt;Node25</title>
<path fill="none" stroke="midnightblue" d="M288.88,-313.4C286.56,-305.47 283.61,-295.38 280.95,-286.27"/>
<polygon fill="midnightblue" stroke="midnightblue" points="284.28,-285.19 278.11,-276.58 277.56,-287.16 284.28,-285.19"/>
</g>
<!-- Node10&#45;&gt;Node3 -->
<g id="edge13" class="edge">
<title>Node10&#45;&gt;Node3</title>
<path fill="none" stroke="midnightblue" d="M444.12,-246.4C416.53,-238.2 383.79,-226.23 357,-210 339.79,-199.57 341.56,-188.83 324,-179 270.94,-149.3 232.6,-188.27 192,-143 163.81,-111.57 165.08,-58.15 168.18,-29.86"/>
<polygon fill="midnightblue" stroke="midnightblue" points="171.68,-30.09 169.49,-19.73 164.73,-29.2 171.68,-30.09"/>
</g>
<!-- Node10&#45;&gt;Node6 -->
<g id="edge15" class="edge">
<title>Node10&#45;&gt;Node6</title>
<path fill="none" stroke="midnightblue" d="M446.55,-246.48C406.66,-236.39 352.71,-222.74 310.66,-212.11"/>
<polygon fill="midnightblue" stroke="midnightblue" points="311.35,-208.67 300.79,-209.61 309.63,-215.46 311.35,-208.67"/>
</g>
<!-- Node10&#45;&gt;Node9 -->
<g id="edge12" class="edge">
<title>Node10&#45;&gt;Node9</title>
<path fill="none" stroke="midnightblue" d="M572.31,-247.26C607.25,-239.16 649.48,-227.02 685,-210 706.25,-199.82 706.1,-187.69 728,-179 841.75,-133.85 881.89,-171.11 1001,-143 1004.41,-142.2 1007.93,-141.22 1011.41,-140.16"/>
<polygon fill="midnightblue" stroke="midnightblue" points="1012.59,-143.46 1021.01,-137.02 1010.42,-136.8 1012.59,-143.46"/>
</g>
<!-- Node11 -->
<g id="node11" class="node">
<title>Node11</title>
<g id="a_node11"><a xlink:title=" ">
<polygon fill="white" stroke="#bfbfbf" points="200.5,-118 200.5,-137 245.5,-137 245.5,-118 200.5,-118"/>
<text text-anchor="middle" x="223" y="-125" font-family="Helvetica,sans-Serif" font-size="10.00">utility</text>
</a>
</g>
</g>
<!-- Node10&#45;&gt;Node11 -->
<g id="edge14" class="edge">
<title>Node10&#45;&gt;Node11</title>
<path fill="none" stroke="midnightblue" d="M479.53,-246.26C451.56,-228.9 401.97,-199.39 357,-179 313.22,-159.15 299.6,-160.94 255,-143 253.59,-142.43 252.14,-141.83 250.69,-141.22"/>
<polygon fill="midnightblue" stroke="midnightblue" points="251.72,-137.86 241.16,-137.06 248.92,-144.27 251.72,-137.86"/>
</g>
<!-- Node12 -->
<g id="node12" class="node">
<title>Node12</title>
<g id="a_node12"><a xlink:href="maliput__hash_8h.html" target="_top" xlink:title=" ">
<polygon fill="white" stroke="black" points="536,-179.5 536,-209.5 676,-209.5 676,-179.5 536,-179.5"/>
<text text-anchor="start" x="544" y="-197.5" font-family="Helvetica,sans-Serif" font-size="10.00">maliput/common/maliput</text>
<text text-anchor="middle" x="606" y="-186.5" font-family="Helvetica,sans-Serif" font-size="10.00">_hash.h</text>
</a>
</g>
</g>
<!-- Node10&#45;&gt;Node12 -->
<g id="edge16" class="edge">
<title>Node10&#45;&gt;Node12</title>
<path fill="none" stroke="midnightblue" d="M524.57,-246.4C539.29,-237.2 558.69,-225.07 574.87,-214.95"/>
<polygon fill="midnightblue" stroke="midnightblue" points="576.85,-217.84 583.48,-209.58 573.14,-211.91 576.85,-217.84"/>
</g>
<!-- Node21 -->
<g id="node21" class="node">
<title>Node21</title>
<g id="a_node21"><a xlink:href="maliput__throw_8h.html" target="_top" xlink:title=" ">
<polygon fill="white" stroke="black" points="264,-112.5 264,-142.5 404,-142.5 404,-112.5 264,-112.5"/>
<text text-anchor="start" x="272" y="-130.5" font-family="Helvetica,sans-Serif" font-size="10.00">maliput/common/maliput</text>
<text text-anchor="middle" x="334" y="-119.5" font-family="Helvetica,sans-Serif" font-size="10.00">_throw.h</text>
</a>
</g>
</g>
<!-- Node10&#45;&gt;Node21 -->
<g id="edge35" class="edge">
<title>Node10&#45;&gt;Node21</title>
<path fill="none" stroke="midnightblue" d="M495.34,-246.36C486.35,-228.57 468.79,-198.05 446,-179 429.33,-165.07 408.2,-154.23 388.8,-146.23"/>
<polygon fill="midnightblue" stroke="midnightblue" points="390.02,-142.95 379.44,-142.53 387.45,-149.46 390.02,-142.95"/>
</g>
<!-- Node12&#45;&gt;Node3 -->
<g id="edge25" class="edge">
<title>Node12&#45;&gt;Node3</title>
<path fill="none" stroke="midnightblue" d="M535.99,-186.92C505.59,-180.43 472.16,-167.73 451,-143 425.54,-113.24 464.58,-83.8 437,-56 404.81,-23.55 267.04,-14.42 203.43,-11.92"/>
<polygon fill="midnightblue" stroke="midnightblue" points="203.29,-8.41 193.17,-11.55 203.04,-15.41 203.29,-8.41"/>
</g>
<!-- Node12&#45;&gt;Node5 -->
<g id="edge28" class="edge">
<title>Node12&#45;&gt;Node5</title>
<path fill="none" stroke="midnightblue" d="M676.21,-186.69C804.52,-174.17 1065.58,-148.27 1085,-143 1087.15,-142.42 1089.34,-141.7 1091.52,-140.91"/>
<polygon fill="midnightblue" stroke="midnightblue" points="1092.87,-144.13 1100.77,-137.07 1090.19,-137.67 1092.87,-144.13"/>
</g>
<!-- Node12&#45;&gt;Node9 -->
<g id="edge20" class="edge">
<title>Node12&#45;&gt;Node9</title>
<path fill="none" stroke="midnightblue" d="M676.08,-181.1C680.79,-180.36 685.46,-179.65 690,-179 827.72,-159.16 865.33,-173.89 1001,-143 1004.41,-142.22 1007.94,-141.27 1011.42,-140.22"/>
<polygon fill="midnightblue" stroke="midnightblue" points="1012.6,-143.51 1021.03,-137.09 1010.44,-136.86 1012.6,-143.51"/>
</g>
<!-- Node12&#45;&gt;Node11 -->
<g id="edge27" class="edge">
<title>Node12&#45;&gt;Node11</title>
<path fill="none" stroke="midnightblue" d="M535.73,-185.77C448.85,-175.8 306.19,-157.95 255,-143 253.07,-142.44 251.1,-141.78 249.14,-141.05"/>
<polygon fill="midnightblue" stroke="midnightblue" points="250.18,-137.69 239.6,-137.09 247.49,-144.16 250.18,-137.69"/>
</g>
<!-- Node13 -->
<g id="node13" class="node">
<title>Node13</title>
<g id="a_node13"><a xlink:title=" ">
<polygon fill="white" stroke="#bfbfbf" points="727.5,-118 727.5,-137 774.5,-137 774.5,-118 727.5,-118"/>
<text text-anchor="middle" x="751" y="-125" font-family="Helvetica,sans-Serif" font-size="10.00">cmath</text>
</a>
</g>
</g>
<!-- Node12&#45;&gt;Node13 -->
<g id="edge17" class="edge">
<title>Node12&#45;&gt;Node13</title>
<path fill="none" stroke="midnightblue" d="M637.68,-179.39C660.34,-169.29 691.57,-155.35 719,-143 720.19,-142.46 721.4,-141.92 722.63,-141.37"/>
<polygon fill="midnightblue" stroke="midnightblue" points="724.39,-144.41 732.06,-137.1 721.5,-138.03 724.39,-144.41"/>
</g>
<!-- Node14 -->
<g id="node14" class="node">
<title>Node14</title>
<g id="a_node14"><a xlink:title=" ">
<polygon fill="white" stroke="#bfbfbf" points="792.5,-118 792.5,-137 845.5,-137 845.5,-118 792.5,-118"/>
<text text-anchor="middle" x="819" y="-125" font-family="Helvetica,sans-Serif" font-size="10.00">cstddef</text>
</a>
</g>
</g>
<!-- Node12&#45;&gt;Node14 -->
<g id="edge18" class="edge">
<title>Node12&#45;&gt;Node14</title>
<path fill="none" stroke="midnightblue" d="M661.84,-179.45C697.18,-170.11 743.65,-157.03 784,-143 785.91,-142.34 787.87,-141.62 789.83,-140.88"/>
<polygon fill="midnightblue" stroke="midnightblue" points="791.53,-143.97 799.53,-137.04 788.95,-137.47 791.53,-143.97"/>
</g>
<!-- Node15 -->
<g id="node15" class="node">
<title>Node15</title>
<g id="a_node15"><a xlink:title=" ">
<polygon fill="white" stroke="#bfbfbf" points="864,-118 864,-137 914,-137 914,-118 864,-118"/>
<text text-anchor="middle" x="889" y="-125" font-family="Helvetica,sans-Serif" font-size="10.00">cstdint</text>
</a>
</g>
</g>
<!-- Node12&#45;&gt;Node15 -->
<g id="edge19" class="edge">
<title>Node12&#45;&gt;Node15</title>
<path fill="none" stroke="midnightblue" d="M676.15,-180.92C737.69,-169.58 822.31,-153.17 855,-143 857.14,-142.33 859.33,-141.58 861.52,-140.77"/>
<polygon fill="midnightblue" stroke="midnightblue" points="862.92,-143.98 870.9,-137.02 860.32,-137.48 862.92,-143.98"/>
</g>
<!-- Node16 -->
<g id="node16" class="node">
<title>Node16</title>
<g id="a_node16"><a xlink:title=" ">
<polygon fill="white" stroke="#bfbfbf" points="932,-118 932,-137 992,-137 992,-118 932,-118"/>
<text text-anchor="middle" x="962" y="-125" font-family="Helvetica,sans-Serif" font-size="10.00">iostream</text>
</a>
</g>
</g>
<!-- Node12&#45;&gt;Node16 -->
<g id="edge21" class="edge">
<title>Node12&#45;&gt;Node16</title>
<path fill="none" stroke="midnightblue" d="M676.11,-181.3C680.81,-180.51 685.47,-179.74 690,-179 793.41,-162.09 821.59,-169.39 923,-143 925.82,-142.27 928.72,-141.4 931.6,-140.47"/>
<polygon fill="midnightblue" stroke="midnightblue" points="932.91,-143.72 941.2,-137.12 930.61,-137.11 932.91,-143.72"/>
</g>
<!-- Node17 -->
<g id="node17" class="node">
<title>Node17</title>
<g id="a_node17"><a xlink:title=" ">
<polygon fill="white" stroke="#bfbfbf" points="460,-118 460,-137 498,-137 498,-118 460,-118"/>
<text text-anchor="middle" x="479" y="-125" font-family="Helvetica,sans-Serif" font-size="10.00">map</text>
</a>
</g>
</g>
<!-- Node12&#45;&gt;Node17 -->
<g id="edge22" class="edge">
<title>Node12&#45;&gt;Node17</title>
<path fill="none" stroke="midnightblue" d="M578.24,-179.4C558.38,-169.29 531.02,-155.35 507,-143 506.19,-142.58 505.37,-142.16 504.54,-141.73"/>
<polygon fill="midnightblue" stroke="midnightblue" points="506.06,-138.58 495.57,-137.1 502.85,-144.8 506.06,-138.58"/>
</g>
<!-- Node18 -->
<g id="node18" class="node">
<title>Node18</title>
<g id="a_node18"><a xlink:title=" ">
<polygon fill="white" stroke="#bfbfbf" points="516,-118 516,-137 572,-137 572,-118 516,-118"/>
<text text-anchor="middle" x="544" y="-125" font-family="Helvetica,sans-Serif" font-size="10.00">optional</text>
</a>
</g>
</g>
<!-- Node12&#45;&gt;Node18 -->
<g id="edge23" class="edge">
<title>Node12&#45;&gt;Node18</title>
<path fill="none" stroke="midnightblue" d="M592.55,-179.4C582.78,-169.16 569.56,-155.3 559.38,-144.62"/>
<polygon fill="midnightblue" stroke="midnightblue" points="561.73,-142.01 552.29,-137.19 556.66,-146.85 561.73,-142.01"/>
</g>
<!-- Node19 -->
<g id="node19" class="node">
<title>Node19</title>
<g id="a_node19"><a xlink:title=" ">
<polygon fill="white" stroke="#bfbfbf" points="590,-118 590,-137 622,-137 622,-118 590,-118"/>
<text text-anchor="middle" x="606" y="-125" font-family="Helvetica,sans-Serif" font-size="10.00">set</text>
</a>
</g>
</g>
<!-- Node12&#45;&gt;Node19 -->
<g id="edge24" class="edge">
<title>Node12&#45;&gt;Node19</title>
<path fill="none" stroke="midnightblue" d="M606,-179.4C606,-170.06 606,-157.71 606,-147.52"/>
<polygon fill="midnightblue" stroke="midnightblue" points="609.5,-147.19 606,-137.19 602.5,-147.19 609.5,-147.19"/>
</g>
<!-- Node20 -->
<g id="node20" class="node">
<title>Node20</title>
<g id="a_node20"><a xlink:title=" ">
<polygon fill="white" stroke="#bfbfbf" points="640.5,-118 640.5,-137 709.5,-137 709.5,-118 640.5,-118"/>
<text text-anchor="middle" x="675" y="-125" font-family="Helvetica,sans-Serif" font-size="10.00">type_traits</text>
</a>
</g>
</g>
<!-- Node12&#45;&gt;Node20 -->
<g id="edge26" class="edge">
<title>Node12&#45;&gt;Node20</title>
<path fill="none" stroke="midnightblue" d="M620.97,-179.4C631.94,-169.06 646.84,-155.02 658.22,-144.31"/>
<polygon fill="midnightblue" stroke="midnightblue" points="660.89,-146.6 665.77,-137.19 656.09,-141.5 660.89,-146.6"/>
</g>
<!-- Node12&#45;&gt;Node21 -->
<g id="edge29" class="edge">
<title>Node12&#45;&gt;Node21</title>
<path fill="none" stroke="midnightblue" d="M547.31,-179.48C504.92,-169.34 447.51,-155.63 402.93,-144.97"/>
<polygon fill="midnightblue" stroke="midnightblue" points="403.59,-141.53 393.05,-142.61 401.96,-148.34 403.59,-141.53"/>
</g>
<!-- Node21&#45;&gt;Node3 -->
<g id="edge31" class="edge">
<title>Node21&#45;&gt;Node3</title>
<path fill="none" stroke="midnightblue" d="M277.72,-112.5C254.53,-104.64 228.57,-92.91 209,-76 194.36,-63.34 183.94,-43.58 177.76,-29.17"/>
<polygon fill="midnightblue" stroke="midnightblue" points="180.98,-27.78 174.01,-19.8 174.48,-30.38 180.98,-27.78"/>
</g>
<!-- Node22 -->
<g id="node22" class="node">
<title>Node22</title>
<g id="a_node22"><a xlink:title=" ">
<polygon fill="white" stroke="#bfbfbf" points="218,-56.5 218,-75.5 274,-75.5 274,-56.5 218,-56.5"/>
<text text-anchor="middle" x="246" y="-63.5" font-family="Helvetica,sans-Serif" font-size="10.00">sstream</text>
</a>
</g>
</g>
<!-- Node21&#45;&gt;Node22 -->
<g id="edge30" class="edge">
<title>Node21&#45;&gt;Node22</title>
<path fill="none" stroke="midnightblue" d="M313.15,-112.4C299.3,-103.04 281.19,-90.79 267.26,-81.38"/>
<polygon fill="midnightblue" stroke="midnightblue" points="269.05,-78.36 258.8,-75.66 265.13,-84.16 269.05,-78.36"/>
</g>
<!-- Node23 -->
<g id="node23" class="node">
<title>Node23</title>
<g id="a_node23"><a xlink:href="error_8h.html" target="_top" xlink:title=" ">
<polygon fill="white" stroke="black" points="292.5,-56.5 292.5,-75.5 427.5,-75.5 427.5,-56.5 292.5,-56.5"/>
<text text-anchor="middle" x="360" y="-63.5" font-family="Helvetica,sans-Serif" font-size="10.00">maliput/common/error.h</text>
</a>
</g>
</g>
<!-- Node21&#45;&gt;Node23 -->
<g id="edge32" class="edge">
<title>Node21&#45;&gt;Node23</title>
<path fill="none" stroke="midnightblue" d="M340.16,-112.4C343.74,-104.2 348.3,-93.78 352.14,-84.99"/>
<polygon fill="midnightblue" stroke="midnightblue" points="355.42,-86.22 356.22,-75.66 349.01,-83.42 355.42,-86.22"/>
</g>
<!-- Node23&#45;&gt;Node3 -->
<g id="edge34" class="edge">
<title>Node23&#45;&gt;Node3</title>
<path fill="none" stroke="midnightblue" d="M330.05,-56.44C295.38,-46.54 238.5,-30.28 202.98,-20.14"/>
<polygon fill="midnightblue" stroke="midnightblue" points="203.71,-16.7 193.13,-17.32 201.78,-23.44 203.71,-16.7"/>
</g>
<!-- Node24 -->
<g id="node24" class="node">
<title>Node24</title>
<g id="a_node24"><a xlink:title=" ">
<polygon fill="white" stroke="#bfbfbf" points="327.5,-0.5 327.5,-19.5 392.5,-19.5 392.5,-0.5 327.5,-0.5"/>
<text text-anchor="middle" x="360" y="-7.5" font-family="Helvetica,sans-Serif" font-size="10.00">stdexcept</text>
</a>
</g>
</g>
<!-- Node23&#45;&gt;Node24 -->
<g id="edge33" class="edge">
<title>Node23&#45;&gt;Node24</title>
<path fill="none" stroke="midnightblue" d="M360,-56.08C360,-49.01 360,-38.86 360,-29.99"/>
<polygon fill="midnightblue" stroke="midnightblue" points="363.5,-29.75 360,-19.75 356.5,-29.75 363.5,-29.75"/>
</g>
</g>
</svg>
