<?xml version="1.0" encoding="UTF-8" standalone="no"?>
<!DOCTYPE svg PUBLIC "-//W3C//DTD SVG 1.1//EN"
 "http://www.w3.org/Graphics/SVG/1.1/DTD/svg11.dtd">
<!-- Generated by graphviz version 2.43.0 (0)
 -->
<!-- Title: maliput_plugin_manager.cc Pages: 1 -->
<svg width="1416pt" height="475pt"
 viewBox="0.00 0.00 1415.56 475.00" xmlns="http://www.w3.org/2000/svg" xmlns:xlink="http://www.w3.org/1999/xlink">
<g id="graph0" class="graph" transform="scale(1 1) rotate(0) translate(4 471)">
<title>maliput_plugin_manager.cc</title>
<polygon fill="white" stroke="transparent" points="-4,4 -4,-471 1411.56,-471 1411.56,4 -4,4"/>
<!-- Node1 -->
<g id="node1" class="node">
<title>Node1</title>
<g id="a_node1"><a xlink:title=" ">
<polygon fill="#bfbfbf" stroke="black" points="1120.56,-447.5 1120.56,-466.5 1272.56,-466.5 1272.56,-447.5 1120.56,-447.5"/>
<text text-anchor="middle" x="1196.56" y="-454.5" font-family="Helvetica,sans-Serif" font-size="10.00">maliput_plugin_manager.cc</text>
</a>
</g>
</g>
<!-- Node2 -->
<g id="node2" class="node">
<title>Node2</title>
<g id="a_node2"><a xlink:href="maliput__plugin__manager_8h.html" target="_top" xlink:title=" ">
<polygon fill="white" stroke="black" points="855.56,-380.5 855.56,-410.5 983.56,-410.5 983.56,-380.5 855.56,-380.5"/>
<text text-anchor="start" x="863.56" y="-398.5" font-family="Helvetica,sans-Serif" font-size="10.00">maliput/plugin/maliput</text>
<text text-anchor="middle" x="919.56" y="-387.5" font-family="Helvetica,sans-Serif" font-size="10.00">_plugin_manager.h</text>
</a>
</g>
</g>
<!-- Node1&#45;&gt;Node2 -->
<g id="edge1" class="edge">
<title>Node1&#45;&gt;Node2</title>
<path fill="none" stroke="midnightblue" d="M1156.87,-447.48C1114.43,-438.36 1046.16,-423.69 993.71,-412.43"/>
<polygon fill="midnightblue" stroke="midnightblue" points="994.29,-408.97 983.78,-410.29 992.82,-415.82 994.29,-408.97"/>
</g>
<!-- Node27 -->
<g id="node27" class="node">
<title>Node27</title>
<g id="a_node27"><a xlink:href="filesystem_8h.html" target="_top" xlink:title=" ">
<polygon fill="white" stroke="black" points="1243.56,-386 1243.56,-405 1407.56,-405 1407.56,-386 1243.56,-386"/>
<text text-anchor="middle" x="1325.56" y="-393" font-family="Helvetica,sans-Serif" font-size="10.00">maliput/common/filesystem.h</text>
</a>
</g>
</g>
<!-- Node1&#45;&gt;Node27 -->
<g id="edge39" class="edge">
<title>Node1&#45;&gt;Node27</title>
<path fill="none" stroke="midnightblue" d="M1215.04,-447.48C1236.69,-437.49 1272.77,-420.85 1297.79,-409.31"/>
<polygon fill="midnightblue" stroke="midnightblue" points="1299.5,-412.38 1307.11,-405.01 1296.57,-406.02 1299.5,-412.38"/>
</g>
<!-- Node28 -->
<g id="node28" class="node">
<title>Node28</title>
<g id="a_node28"><a xlink:href="logger_8h.html" target="_top" xlink:title=" ">
<polygon fill="white" stroke="black" points="948.06,-252 948.06,-271 1091.06,-271 1091.06,-252 948.06,-252"/>
<text text-anchor="middle" x="1019.56" y="-259" font-family="Helvetica,sans-Serif" font-size="10.00">maliput/common/logger.h</text>
</a>
</g>
</g>
<!-- Node1&#45;&gt;Node28 -->
<g id="edge41" class="edge">
<title>Node1&#45;&gt;Node28</title>
<path fill="none" stroke="midnightblue" d="M1188.73,-447.44C1161.49,-417.66 1070.64,-318.34 1034.54,-278.87"/>
<polygon fill="midnightblue" stroke="midnightblue" points="1037.04,-276.42 1027.71,-271.41 1031.87,-281.15 1037.04,-276.42"/>
</g>
<!-- Node29 -->
<g id="node29" class="node">
<title>Node29</title>
<g id="a_node29"><a xlink:href="file__utils_8h.html" target="_top" xlink:title=" ">
<polygon fill="white" stroke="black" points="1167.56,-179.5 1167.56,-209.5 1271.56,-209.5 1271.56,-179.5 1167.56,-179.5"/>
<text text-anchor="start" x="1175.56" y="-197.5" font-family="Helvetica,sans-Serif" font-size="10.00">maliput/utility/file</text>
<text text-anchor="middle" x="1219.56" y="-186.5" font-family="Helvetica,sans-Serif" font-size="10.00">_utils.h</text>
</a>
</g>
</g>
<!-- Node1&#45;&gt;Node29 -->
<g id="edge50" class="edge">
<title>Node1&#45;&gt;Node29</title>
<path fill="none" stroke="midnightblue" d="M1197.33,-447.33C1200.47,-411.66 1212.5,-275.45 1217.43,-219.6"/>
<polygon fill="midnightblue" stroke="midnightblue" points="1220.93,-219.83 1218.32,-209.56 1213.95,-219.21 1220.93,-219.83"/>
</g>
<!-- Node3 -->
<g id="node3" class="node">
<title>Node3</title>
<g id="a_node3"><a xlink:title=" ">
<polygon fill="white" stroke="#bfbfbf" points="825.56,-185 825.56,-204 883.56,-204 883.56,-185 825.56,-185"/>
<text text-anchor="middle" x="854.56" y="-192" font-family="Helvetica,sans-Serif" font-size="10.00">memory</text>
</a>
</g>
</g>
<!-- Node2&#45;&gt;Node3 -->
<g id="edge2" class="edge">
<title>Node2&#45;&gt;Node3</title>
<path fill="none" stroke="midnightblue" d="M919.66,-380.3C919.34,-353.04 916.16,-292 895.56,-246 889.78,-233.09 879.83,-220.72 871.19,-211.45"/>
<polygon fill="midnightblue" stroke="midnightblue" points="873.56,-208.87 864.06,-204.17 868.56,-213.77 873.56,-208.87"/>
</g>
<!-- Node4 -->
<g id="node4" class="node">
<title>Node4</title>
<g id="a_node4"><a xlink:title=" ">
<polygon fill="white" stroke="#bfbfbf" points="867.56,-0.5 867.56,-19.5 911.56,-19.5 911.56,-0.5 867.56,-0.5"/>
<text text-anchor="middle" x="889.56" y="-7.5" font-family="Helvetica,sans-Serif" font-size="10.00">string</text>
</a>
</g>
</g>
<!-- Node2&#45;&gt;Node4 -->
<g id="edge3" class="edge">
<title>Node2&#45;&gt;Node4</title>
<path fill="none" stroke="midnightblue" d="M855.37,-392.04C646.8,-383.21 1.56,-348.89 1.56,-262.5 1.56,-262.5 1.56,-262.5 1.56,-126.5 1.56,-94.05 -4.68,-76.4 20.56,-56 53.69,-29.23 703.22,-14.7 857.08,-11.62"/>
<polygon fill="midnightblue" stroke="midnightblue" points="857.36,-15.12 867.29,-11.42 857.22,-8.12 857.36,-15.12"/>
</g>
<!-- Node5 -->
<g id="node5" class="node">
<title>Node5</title>
<g id="a_node5"><a xlink:title=" ">
<polygon fill="white" stroke="#bfbfbf" points="948.06,-319 948.06,-338 1041.06,-338 1041.06,-319 948.06,-319"/>
<text text-anchor="middle" x="994.56" y="-326" font-family="Helvetica,sans-Serif" font-size="10.00">unordered_map</text>
</a>
</g>
</g>
<!-- Node2&#45;&gt;Node5 -->
<g id="edge4" class="edge">
<title>Node2&#45;&gt;Node5</title>
<path fill="none" stroke="midnightblue" d="M935.83,-380.4C947.88,-369.96 964.27,-355.75 976.68,-345"/>
<polygon fill="midnightblue" stroke="midnightblue" points="979.26,-347.39 984.53,-338.19 974.68,-342.1 979.26,-347.39"/>
</g>
<!-- Node6 -->
<g id="node6" class="node">
<title>Node6</title>
<g id="a_node6"><a xlink:title=" ">
<polygon fill="white" stroke="#bfbfbf" points="1166.06,-118 1166.06,-137 1213.06,-137 1213.06,-118 1166.06,-118"/>
<text text-anchor="middle" x="1189.56" y="-125" font-family="Helvetica,sans-Serif" font-size="10.00">vector</text>
</a>
</g>
</g>
<!-- Node2&#45;&gt;Node6 -->
<g id="edge5" class="edge">
<title>Node2&#45;&gt;Node6</title>
<path fill="none" stroke="midnightblue" d="M975.22,-380.44C999.65,-372.44 1027.68,-360.63 1049.56,-344 1119.52,-290.8 1112.9,-254.1 1158.56,-179 1165.29,-167.92 1172.91,-155.52 1178.91,-145.77"/>
<polygon fill="midnightblue" stroke="midnightblue" points="1182.01,-147.41 1184.27,-137.06 1176.05,-143.74 1182.01,-147.41"/>
</g>
<!-- Node7 -->
<g id="node7" class="node">
<title>Node7</title>
<g id="a_node7"><a xlink:href="maliput__copyable_8h.html" target="_top" xlink:title=" ">
<polygon fill="white" stroke="black" points="667.56,-179.5 667.56,-209.5 807.56,-209.5 807.56,-179.5 667.56,-179.5"/>
<text text-anchor="start" x="675.56" y="-197.5" font-family="Helvetica,sans-Serif" font-size="10.00">maliput/common/maliput</text>
<text text-anchor="middle" x="737.56" y="-186.5" font-family="Helvetica,sans-Serif" font-size="10.00">_copyable.h</text>
</a>
</g>
</g>
<!-- Node2&#45;&gt;Node7 -->
<g id="edge6" class="edge">
<title>Node2&#45;&gt;Node7</title>
<path fill="none" stroke="midnightblue" d="M913.29,-380.25C900.22,-351.83 867.66,-287.28 824.56,-246 811.28,-233.28 794.19,-222.47 778.69,-214.17"/>
<polygon fill="midnightblue" stroke="midnightblue" points="780.28,-211.05 769.78,-209.57 777.06,-217.27 780.28,-211.05"/>
</g>
<!-- Node8 -->
<g id="node8" class="node">
<title>Node8</title>
<g id="a_node8"><a xlink:href="maliput__plugin_8h.html" target="_top" xlink:title=" ">
<polygon fill="white" stroke="black" points="624.56,-313.5 624.56,-343.5 752.56,-343.5 752.56,-313.5 624.56,-313.5"/>
<text text-anchor="start" x="632.56" y="-331.5" font-family="Helvetica,sans-Serif" font-size="10.00">maliput/plugin/maliput</text>
<text text-anchor="middle" x="688.56" y="-320.5" font-family="Helvetica,sans-Serif" font-size="10.00">_plugin.h</text>
</a>
</g>
</g>
<!-- Node2&#45;&gt;Node8 -->
<g id="edge7" class="edge">
<title>Node2&#45;&gt;Node8</title>
<path fill="none" stroke="midnightblue" d="M869.72,-380.48C834.17,-370.47 786.19,-356.97 748.54,-346.38"/>
<polygon fill="midnightblue" stroke="midnightblue" points="749.28,-342.95 738.71,-343.61 747.39,-349.69 749.28,-342.95"/>
</g>
<!-- Node8&#45;&gt;Node3 -->
<g id="edge10" class="edge">
<title>Node8&#45;&gt;Node3</title>
<path fill="none" stroke="midnightblue" d="M752.76,-315.8C777.9,-308.37 805.26,-296.35 824.56,-277 841.49,-260.02 848.96,-232.7 852.19,-214.42"/>
<polygon fill="midnightblue" stroke="midnightblue" points="855.68,-214.8 853.71,-204.39 848.75,-213.76 855.68,-214.8"/>
</g>
<!-- Node8&#45;&gt;Node4 -->
<g id="edge11" class="edge">
<title>Node8&#45;&gt;Node4</title>
<path fill="none" stroke="midnightblue" d="M624.5,-325.67C457.22,-318.49 28.29,-283.33 148.56,-112 190.64,-52.05 231.95,-71.39 303.56,-56 511.1,-11.4 768.33,-9.57 857.42,-10.45"/>
<polygon fill="midnightblue" stroke="midnightblue" points="857.4,-13.95 867.44,-10.57 857.48,-6.95 857.4,-13.95"/>
</g>
<!-- Node8&#45;&gt;Node7 -->
<g id="edge37" class="edge">
<title>Node8&#45;&gt;Node7</title>
<path fill="none" stroke="midnightblue" d="M698.74,-313.1C705.24,-303.31 713.38,-289.87 718.56,-277 726.03,-258.42 730.97,-236.23 733.93,-219.7"/>
<polygon fill="midnightblue" stroke="midnightblue" points="737.4,-220.18 735.6,-209.74 730.49,-219.03 737.4,-220.18"/>
</g>
<!-- Node9 -->
<g id="node9" class="node">
<title>Node9</title>
<g id="a_node9"><a xlink:title=" ">
<polygon fill="white" stroke="#bfbfbf" points="765.56,-252 765.56,-271 815.56,-271 815.56,-252 765.56,-252"/>
<text text-anchor="middle" x="790.56" y="-259" font-family="Helvetica,sans-Serif" font-size="10.00">dlfcn.h</text>
</a>
</g>
</g>
<!-- Node8&#45;&gt;Node9 -->
<g id="edge8" class="edge">
<title>Node8&#45;&gt;Node9</title>
<path fill="none" stroke="midnightblue" d="M710.69,-313.4C727.8,-302.5 751.36,-287.48 768.46,-276.58"/>
<polygon fill="midnightblue" stroke="midnightblue" points="770.66,-279.33 777.21,-271.01 766.9,-273.43 770.66,-279.33"/>
</g>
<!-- Node10 -->
<g id="node10" class="node">
<title>Node10</title>
<g id="a_node10"><a xlink:title=" ">
<polygon fill="white" stroke="#bfbfbf" points="680.06,-118 680.06,-137 745.06,-137 745.06,-118 680.06,-118"/>
<text text-anchor="middle" x="712.56" y="-125" font-family="Helvetica,sans-Serif" font-size="10.00">functional</text>
</a>
</g>
</g>
<!-- Node8&#45;&gt;Node10 -->
<g id="edge9" class="edge">
<title>Node8&#45;&gt;Node10</title>
<path fill="none" stroke="midnightblue" d="M624.52,-324.87C552.07,-320.39 440.75,-308.46 414.56,-277 405.74,-266.41 406.79,-257.38 414.56,-246 439.31,-209.73 465.9,-226.58 506.56,-210 539.2,-196.69 546.86,-192.15 579.56,-179 613.29,-165.44 652.2,-150.78 679.19,-140.76"/>
<polygon fill="midnightblue" stroke="midnightblue" points="680.75,-143.92 688.91,-137.17 678.32,-137.35 680.75,-143.92"/>
</g>
<!-- Node11 -->
<g id="node11" class="node">
<title>Node11</title>
<g id="a_node11"><a xlink:href="type__specific__identifier_8h.html" target="_top" xlink:title=" ">
<polygon fill="white" stroke="black" points="569.56,-246.5 569.56,-276.5 709.56,-276.5 709.56,-246.5 569.56,-246.5"/>
<text text-anchor="start" x="577.56" y="-264.5" font-family="Helvetica,sans-Serif" font-size="10.00">maliput/api/type_specific</text>
<text text-anchor="middle" x="639.56" y="-253.5" font-family="Helvetica,sans-Serif" font-size="10.00">_identifier.h</text>
</a>
</g>
</g>
<!-- Node8&#45;&gt;Node11 -->
<g id="edge12" class="edge">
<title>Node8&#45;&gt;Node11</title>
<path fill="none" stroke="midnightblue" d="M677.93,-313.4C671.64,-305.05 663.52,-294.29 656.38,-284.81"/>
<polygon fill="midnightblue" stroke="midnightblue" points="658.99,-282.45 650.17,-276.58 653.4,-286.67 658.99,-282.45"/>
</g>
<!-- Node26 -->
<g id="node26" class="node">
<title>Node26</title>
<g id="a_node26"><a xlink:href="maliput__plugin__type_8h.html" target="_top" xlink:title=" ">
<polygon fill="white" stroke="black" points="423.56,-246.5 423.56,-276.5 551.56,-276.5 551.56,-246.5 423.56,-246.5"/>
<text text-anchor="start" x="431.56" y="-264.5" font-family="Helvetica,sans-Serif" font-size="10.00">maliput/plugin/maliput</text>
<text text-anchor="middle" x="487.56" y="-253.5" font-family="Helvetica,sans-Serif" font-size="10.00">_plugin_type.h</text>
</a>
</g>
</g>
<!-- Node8&#45;&gt;Node26 -->
<g id="edge38" class="edge">
<title>Node8&#45;&gt;Node26</title>
<path fill="none" stroke="midnightblue" d="M644.95,-313.4C614.39,-303.52 573.38,-290.25 540.88,-279.74"/>
<polygon fill="midnightblue" stroke="midnightblue" points="541.68,-276.32 531.09,-276.58 539.53,-282.98 541.68,-276.32"/>
</g>
<!-- Node11&#45;&gt;Node4 -->
<g id="edge14" class="edge">
<title>Node11&#45;&gt;Node4</title>
<path fill="none" stroke="midnightblue" d="M638.37,-246.27C637.68,-227.8 639.59,-195.93 658.56,-179 762.04,-86.64 858.83,-227.84 968.56,-143 1000.49,-118.32 1016.78,-89.69 994.56,-56 978.51,-31.66 946.27,-20.44 921.73,-15.29"/>
<polygon fill="midnightblue" stroke="midnightblue" points="922.22,-11.82 911.75,-13.44 920.94,-18.7 922.22,-11.82"/>
</g>
<!-- Node11&#45;&gt;Node7 -->
<g id="edge16" class="edge">
<title>Node11&#45;&gt;Node7</title>
<path fill="none" stroke="midnightblue" d="M660.82,-246.4C674.57,-237.28 692.65,-225.29 707.8,-215.24"/>
<polygon fill="midnightblue" stroke="midnightblue" points="709.94,-218.02 716.34,-209.58 706.07,-212.19 709.94,-218.02"/>
</g>
<!-- Node11&#45;&gt;Node10 -->
<g id="edge13" class="edge">
<title>Node11&#45;&gt;Node10</title>
<path fill="none" stroke="midnightblue" d="M619.39,-246.22C598.79,-229.84 571.89,-202.24 587.56,-179 590.32,-174.91 643.69,-154.29 679.79,-140.7"/>
<polygon fill="midnightblue" stroke="midnightblue" points="681.33,-143.86 689.46,-137.07 678.87,-137.31 681.33,-143.86"/>
</g>
<!-- Node12 -->
<g id="node12" class="node">
<title>Node12</title>
<g id="a_node12"><a xlink:title=" ">
<polygon fill="white" stroke="#bfbfbf" points="158.06,-118 158.06,-137 203.06,-137 203.06,-118 158.06,-118"/>
<text text-anchor="middle" x="180.56" y="-125" font-family="Helvetica,sans-Serif" font-size="10.00">utility</text>
</a>
</g>
</g>
<!-- Node11&#45;&gt;Node12 -->
<g id="edge15" class="edge">
<title>Node11&#45;&gt;Node12</title>
<path fill="none" stroke="midnightblue" d="M569.36,-247.56C566.39,-247.03 563.44,-246.51 560.56,-246 466.45,-229.37 439.58,-239.15 348.56,-210 294.28,-192.62 235.32,-160.67 203.71,-142.36"/>
<polygon fill="midnightblue" stroke="midnightblue" points="205.21,-139.19 194.81,-137.15 201.67,-145.23 205.21,-139.19"/>
</g>
<!-- Node13 -->
<g id="node13" class="node">
<title>Node13</title>
<g id="a_node13"><a xlink:href="maliput__hash_8h.html" target="_top" xlink:title=" ">
<polygon fill="white" stroke="black" points="357.56,-179.5 357.56,-209.5 497.56,-209.5 497.56,-179.5 357.56,-179.5"/>
<text text-anchor="start" x="365.56" y="-197.5" font-family="Helvetica,sans-Serif" font-size="10.00">maliput/common/maliput</text>
<text text-anchor="middle" x="427.56" y="-186.5" font-family="Helvetica,sans-Serif" font-size="10.00">_hash.h</text>
</a>
</g>
</g>
<!-- Node11&#45;&gt;Node13 -->
<g id="edge17" class="edge">
<title>Node11&#45;&gt;Node13</title>
<path fill="none" stroke="midnightblue" d="M593.82,-246.48C561.47,-236.56 517.91,-223.2 483.49,-212.65"/>
<polygon fill="midnightblue" stroke="midnightblue" points="484.17,-209.2 473.58,-209.61 482.12,-215.89 484.17,-209.2"/>
</g>
<!-- Node22 -->
<g id="node22" class="node">
<title>Node22</title>
<g id="a_node22"><a xlink:href="maliput__throw_8h.html" target="_top" xlink:title=" ">
<polygon fill="white" stroke="black" points="819.56,-112.5 819.56,-142.5 959.56,-142.5 959.56,-112.5 819.56,-112.5"/>
<text text-anchor="start" x="827.56" y="-130.5" font-family="Helvetica,sans-Serif" font-size="10.00">maliput/common/maliput</text>
<text text-anchor="middle" x="889.56" y="-119.5" font-family="Helvetica,sans-Serif" font-size="10.00">_throw.h</text>
</a>
</g>
</g>
<!-- Node11&#45;&gt;Node22 -->
<g id="edge36" class="edge">
<title>Node11&#45;&gt;Node22</title>
<path fill="none" stroke="midnightblue" d="M631.11,-246.39C621.69,-228.63 609.73,-198.14 625.56,-179 627.06,-177.18 732.04,-157.5 809.15,-143.26"/>
<polygon fill="midnightblue" stroke="midnightblue" points="810.16,-146.63 819.36,-141.38 808.89,-139.75 810.16,-146.63"/>
</g>
<!-- Node13&#45;&gt;Node4 -->
<g id="edge26" class="edge">
<title>Node13&#45;&gt;Node4</title>
<path fill="none" stroke="midnightblue" d="M357.4,-182.33C313.87,-173.8 263.79,-160.54 250.56,-143 242.26,-132 241.61,-122.48 250.56,-112 330.15,-18.84 738.25,-11.11 857.07,-10.86"/>
<polygon fill="midnightblue" stroke="midnightblue" points="857.33,-14.36 867.33,-10.86 857.33,-7.36 857.33,-14.36"/>
</g>
<!-- Node13&#45;&gt;Node6 -->
<g id="edge29" class="edge">
<title>Node13&#45;&gt;Node6</title>
<path fill="none" stroke="midnightblue" d="M497.66,-188.96C677.2,-177.3 1140.68,-146.91 1156.56,-143 1158.92,-142.42 1161.32,-141.68 1163.7,-140.85"/>
<polygon fill="midnightblue" stroke="midnightblue" points="1165.2,-144.02 1173.17,-137.03 1162.58,-137.52 1165.2,-144.02"/>
</g>
<!-- Node13&#45;&gt;Node10 -->
<g id="edge21" class="edge">
<title>Node13&#45;&gt;Node10</title>
<path fill="none" stroke="midnightblue" d="M497.78,-181.36C546.62,-172.32 613.02,-158.84 670.56,-143 673.59,-142.17 676.71,-141.23 679.83,-140.25"/>
<polygon fill="midnightblue" stroke="midnightblue" points="681.22,-143.47 689.62,-137.01 679.03,-136.83 681.22,-143.47"/>
</g>
<!-- Node13&#45;&gt;Node12 -->
<g id="edge28" class="edge">
<title>Node13&#45;&gt;Node12</title>
<path fill="none" stroke="midnightblue" d="M358.82,-179.47C317.49,-170.42 264.06,-157.63 217.56,-143 215.28,-142.28 212.95,-141.5 210.61,-140.67"/>
<polygon fill="midnightblue" stroke="midnightblue" points="211.72,-137.35 201.12,-137.14 209.27,-143.91 211.72,-137.35"/>
</g>
<!-- Node14 -->
<g id="node14" class="node">
<title>Node14</title>
<g id="a_node14"><a xlink:title=" ">
<polygon fill="white" stroke="#bfbfbf" points="615.06,-118 615.06,-137 662.06,-137 662.06,-118 615.06,-118"/>
<text text-anchor="middle" x="638.56" y="-125" font-family="Helvetica,sans-Serif" font-size="10.00">cmath</text>
</a>
</g>
</g>
<!-- Node13&#45;&gt;Node14 -->
<g id="edge18" class="edge">
<title>Node13&#45;&gt;Node14</title>
<path fill="none" stroke="midnightblue" d="M484.71,-179.43C519.93,-170.23 565.81,-157.29 605.56,-143 607.22,-142.4 608.91,-141.76 610.62,-141.09"/>
<polygon fill="midnightblue" stroke="midnightblue" points="612.36,-144.16 620.24,-137.08 609.66,-137.7 612.36,-144.16"/>
</g>
<!-- Node15 -->
<g id="node15" class="node">
<title>Node15</title>
<g id="a_node15"><a xlink:title=" ">
<polygon fill="white" stroke="#bfbfbf" points="260.06,-118 260.06,-137 313.06,-137 313.06,-118 260.06,-118"/>
<text text-anchor="middle" x="286.56" y="-125" font-family="Helvetica,sans-Serif" font-size="10.00">cstddef</text>
</a>
</g>
</g>
<!-- Node13&#45;&gt;Node15 -->
<g id="edge19" class="edge">
<title>Node13&#45;&gt;Node15</title>
<path fill="none" stroke="midnightblue" d="M396.97,-179.4C372.33,-168.04 338.01,-152.22 314.2,-141.24"/>
<polygon fill="midnightblue" stroke="midnightblue" points="315.56,-138.02 305.01,-137.01 312.63,-144.37 315.56,-138.02"/>
</g>
<!-- Node16 -->
<g id="node16" class="node">
<title>Node16</title>
<g id="a_node16"><a xlink:title=" ">
<polygon fill="white" stroke="#bfbfbf" points="331.56,-118 331.56,-137 381.56,-137 381.56,-118 331.56,-118"/>
<text text-anchor="middle" x="356.56" y="-125" font-family="Helvetica,sans-Serif" font-size="10.00">cstdint</text>
</a>
</g>
</g>
<!-- Node13&#45;&gt;Node16 -->
<g id="edge20" class="edge">
<title>Node13&#45;&gt;Node16</title>
<path fill="none" stroke="midnightblue" d="M412.15,-179.4C400.75,-168.96 385.23,-154.75 373.49,-144"/>
<polygon fill="midnightblue" stroke="midnightblue" points="375.8,-141.37 366.06,-137.19 371.07,-146.53 375.8,-141.37"/>
</g>
<!-- Node17 -->
<g id="node17" class="node">
<title>Node17</title>
<g id="a_node17"><a xlink:title=" ">
<polygon fill="white" stroke="#bfbfbf" points="399.56,-118 399.56,-137 459.56,-137 459.56,-118 399.56,-118"/>
<text text-anchor="middle" x="429.56" y="-125" font-family="Helvetica,sans-Serif" font-size="10.00">iostream</text>
</a>
</g>
</g>
<!-- Node13&#45;&gt;Node17 -->
<g id="edge22" class="edge">
<title>Node13&#45;&gt;Node17</title>
<path fill="none" stroke="midnightblue" d="M427.99,-179.4C428.28,-170.06 428.66,-157.71 428.97,-147.52"/>
<polygon fill="midnightblue" stroke="midnightblue" points="432.48,-147.3 429.29,-137.19 425.49,-147.08 432.48,-147.3"/>
</g>
<!-- Node18 -->
<g id="node18" class="node">
<title>Node18</title>
<g id="a_node18"><a xlink:title=" ">
<polygon fill="white" stroke="#bfbfbf" points="763.56,-118 763.56,-137 801.56,-137 801.56,-118 763.56,-118"/>
<text text-anchor="middle" x="782.56" y="-125" font-family="Helvetica,sans-Serif" font-size="10.00">map</text>
</a>
</g>
</g>
<!-- Node13&#45;&gt;Node18 -->
<g id="edge23" class="edge">
<title>Node13&#45;&gt;Node18</title>
<path fill="none" stroke="midnightblue" d="M497.68,-188.94C564.69,-183.12 667.89,-170.32 753.56,-143 755.18,-142.48 756.83,-141.89 758.46,-141.23"/>
<polygon fill="midnightblue" stroke="midnightblue" points="759.92,-144.41 767.58,-137.09 757.03,-138.04 759.92,-144.41"/>
</g>
<!-- Node19 -->
<g id="node19" class="node">
<title>Node19</title>
<g id="a_node19"><a xlink:title=" ">
<polygon fill="white" stroke="#bfbfbf" points="1091.56,-118 1091.56,-137 1147.56,-137 1147.56,-118 1091.56,-118"/>
<text text-anchor="middle" x="1119.56" y="-125" font-family="Helvetica,sans-Serif" font-size="10.00">optional</text>
</a>
</g>
</g>
<!-- Node13&#45;&gt;Node19 -->
<g id="edge24" class="edge">
<title>Node13&#45;&gt;Node19</title>
<path fill="none" stroke="midnightblue" d="M497.6,-187.02C600.73,-177.47 799.52,-159.01 968.56,-143 1006.91,-139.37 1050.72,-135.15 1081.24,-132.21"/>
<polygon fill="midnightblue" stroke="midnightblue" points="1081.84,-135.67 1091.45,-131.22 1081.16,-128.7 1081.84,-135.67"/>
</g>
<!-- Node20 -->
<g id="node20" class="node">
<title>Node20</title>
<g id="a_node20"><a xlink:title=" ">
<polygon fill="white" stroke="#bfbfbf" points="477.56,-118 477.56,-137 509.56,-137 509.56,-118 477.56,-118"/>
<text text-anchor="middle" x="493.56" y="-125" font-family="Helvetica,sans-Serif" font-size="10.00">set</text>
</a>
</g>
</g>
<!-- Node13&#45;&gt;Node20 -->
<g id="edge25" class="edge">
<title>Node13&#45;&gt;Node20</title>
<path fill="none" stroke="midnightblue" d="M441.88,-179.4C452.38,-169.06 466.63,-155.02 477.51,-144.31"/>
<polygon fill="midnightblue" stroke="midnightblue" points="480.06,-146.71 484.73,-137.19 475.15,-141.72 480.06,-146.71"/>
</g>
<!-- Node21 -->
<g id="node21" class="node">
<title>Node21</title>
<g id="a_node21"><a xlink:title=" ">
<polygon fill="white" stroke="#bfbfbf" points="528.06,-118 528.06,-137 597.06,-137 597.06,-118 528.06,-118"/>
<text text-anchor="middle" x="562.56" y="-125" font-family="Helvetica,sans-Serif" font-size="10.00">type_traits</text>
</a>
</g>
</g>
<!-- Node13&#45;&gt;Node21 -->
<g id="edge27" class="edge">
<title>Node13&#45;&gt;Node21</title>
<path fill="none" stroke="midnightblue" d="M456.85,-179.4C480.33,-168.09 513,-152.36 535.79,-141.39"/>
<polygon fill="midnightblue" stroke="midnightblue" points="537.4,-144.5 544.89,-137.01 534.36,-138.19 537.4,-144.5"/>
</g>
<!-- Node13&#45;&gt;Node22 -->
<g id="edge30" class="edge">
<title>Node13&#45;&gt;Node22</title>
<path fill="none" stroke="midnightblue" d="M497.6,-185.34C572.33,-176.39 694.42,-161.07 809.35,-143.15"/>
<polygon fill="midnightblue" stroke="midnightblue" points="810.04,-146.58 819.38,-141.57 808.96,-139.66 810.04,-146.58"/>
</g>
<!-- Node22&#45;&gt;Node4 -->
<g id="edge32" class="edge">
<title>Node22&#45;&gt;Node4</title>
<path fill="none" stroke="midnightblue" d="M889.56,-112.34C889.56,-91.62 889.56,-53.02 889.56,-29.9"/>
<polygon fill="midnightblue" stroke="midnightblue" points="893.06,-29.67 889.56,-19.67 886.06,-29.67 893.06,-29.67"/>
</g>
<!-- Node23 -->
<g id="node23" class="node">
<title>Node23</title>
<g id="a_node23"><a xlink:title=" ">
<polygon fill="white" stroke="#bfbfbf" points="929.56,-56.5 929.56,-75.5 985.56,-75.5 985.56,-56.5 929.56,-56.5"/>
<text text-anchor="middle" x="957.56" y="-63.5" font-family="Helvetica,sans-Serif" font-size="10.00">sstream</text>
</a>
</g>
</g>
<!-- Node22&#45;&gt;Node23 -->
<g id="edge31" class="edge">
<title>Node22&#45;&gt;Node23</title>
<path fill="none" stroke="midnightblue" d="M905.68,-112.4C915.96,-103.4 929.31,-91.72 939.89,-82.47"/>
<polygon fill="midnightblue" stroke="midnightblue" points="942.44,-84.88 947.67,-75.66 937.83,-79.61 942.44,-84.88"/>
</g>
<!-- Node24 -->
<g id="node24" class="node">
<title>Node24</title>
<g id="a_node24"><a xlink:href="error_8h.html" target="_top" xlink:title=" ">
<polygon fill="white" stroke="black" points="30.06,-56.5 30.06,-75.5 165.06,-75.5 165.06,-56.5 30.06,-56.5"/>
<text text-anchor="middle" x="97.56" y="-63.5" font-family="Helvetica,sans-Serif" font-size="10.00">maliput/common/error.h</text>
</a>
</g>
</g>
<!-- Node22&#45;&gt;Node24 -->
<g id="edge33" class="edge">
<title>Node22&#45;&gt;Node24</title>
<path fill="none" stroke="midnightblue" d="M819.42,-113.18C816.43,-112.75 813.47,-112.36 810.56,-112 580.73,-83.76 306.92,-72.77 175.5,-68.9"/>
<polygon fill="midnightblue" stroke="midnightblue" points="175.24,-65.39 165.14,-68.6 175.04,-72.39 175.24,-65.39"/>
</g>
<!-- Node24&#45;&gt;Node4 -->
<g id="edge35" class="edge">
<title>Node24&#45;&gt;Node4</title>
<path fill="none" stroke="midnightblue" d="M165.11,-57.34C169.99,-56.86 174.85,-56.41 179.56,-56 440.76,-33.4 756.94,-17.34 857.34,-12.51"/>
<polygon fill="midnightblue" stroke="midnightblue" points="857.63,-16 867.45,-12.03 857.29,-9.01 857.63,-16"/>
</g>
<!-- Node25 -->
<g id="node25" class="node">
<title>Node25</title>
<g id="a_node25"><a xlink:title=" ">
<polygon fill="white" stroke="#bfbfbf" points="65.06,-0.5 65.06,-19.5 130.06,-19.5 130.06,-0.5 65.06,-0.5"/>
<text text-anchor="middle" x="97.56" y="-7.5" font-family="Helvetica,sans-Serif" font-size="10.00">stdexcept</text>
</a>
</g>
</g>
<!-- Node24&#45;&gt;Node25 -->
<g id="edge34" class="edge">
<title>Node24&#45;&gt;Node25</title>
<path fill="none" stroke="midnightblue" d="M97.56,-56.08C97.56,-49.01 97.56,-38.86 97.56,-29.99"/>
<polygon fill="midnightblue" stroke="midnightblue" points="101.06,-29.75 97.56,-19.75 94.06,-29.75 101.06,-29.75"/>
</g>
<!-- Node27&#45;&gt;Node4 -->
<g id="edge40" class="edge">
<title>Node27&#45;&gt;Node4</title>
<path fill="none" stroke="midnightblue" d="M1324.12,-385.88C1320.73,-364.86 1312.56,-309.25 1312.56,-262.5 1312.56,-262.5 1312.56,-262.5 1312.56,-126.5 1312.56,-45.52 1020.42,-19.37 921.7,-12.84"/>
<polygon fill="midnightblue" stroke="midnightblue" points="921.91,-9.35 911.71,-12.21 921.46,-16.33 921.91,-9.35"/>
</g>
<!-- Node28&#45;&gt;Node3 -->
<g id="edge44" class="edge">
<title>Node28&#45;&gt;Node3</title>
<path fill="none" stroke="midnightblue" d="M997.65,-251.87C968.97,-240.57 918.52,-220.7 885.83,-207.82"/>
<polygon fill="midnightblue" stroke="midnightblue" points="886.89,-204.47 876.3,-204.06 884.32,-210.99 886.89,-204.47"/>
</g>
<!-- Node28&#45;&gt;Node4 -->
<g id="edge46" class="edge">
<title>Node28&#45;&gt;Node4</title>
<path fill="none" stroke="midnightblue" d="M1024.24,-251.61C1039.7,-220.9 1085.56,-117.82 1039.56,-56 1012.57,-19.73 957.35,-11.59 921.96,-10.34"/>
<polygon fill="midnightblue" stroke="midnightblue" points="921.73,-6.84 911.67,-10.15 921.61,-13.84 921.73,-6.84"/>
</g>
<!-- Node28&#45;&gt;Node6 -->
<g id="edge47" class="edge">
<title>Node28&#45;&gt;Node6</title>
<path fill="none" stroke="midnightblue" d="M1030.71,-251.84C1059.18,-229.74 1134.77,-171.04 1170.43,-143.35"/>
<polygon fill="midnightblue" stroke="midnightblue" points="1172.83,-145.92 1178.59,-137.02 1168.54,-140.39 1172.83,-145.92"/>
</g>
<!-- Node28&#45;&gt;Node7 -->
<g id="edge48" class="edge">
<title>Node28&#45;&gt;Node7</title>
<path fill="none" stroke="midnightblue" d="M982.4,-251.94C938.33,-241.78 863.89,-224.62 808.64,-211.88"/>
<polygon fill="midnightblue" stroke="midnightblue" points="809.09,-208.39 798.56,-209.56 807.51,-215.22 809.09,-208.39"/>
</g>
<!-- Node28&#45;&gt;Node10 -->
<g id="edge42" class="edge">
<title>Node28&#45;&gt;Node10</title>
<path fill="none" stroke="midnightblue" d="M1000.34,-251.99C980.71,-242.9 949.77,-227.42 925.56,-210 909.22,-198.25 910.17,-188.73 892.56,-179 837.08,-148.35 815.23,-161.36 754.56,-143 751.79,-142.16 748.93,-141.26 746.07,-140.33"/>
<polygon fill="midnightblue" stroke="midnightblue" points="747.04,-136.96 736.44,-137.1 744.81,-143.6 747.04,-136.96"/>
</g>
<!-- Node28&#45;&gt;Node18 -->
<g id="edge43" class="edge">
<title>Node28&#45;&gt;Node18</title>
<path fill="none" stroke="midnightblue" d="M1010.05,-251.86C988.11,-231.99 935.09,-184.31 925.56,-179 878.79,-152.91 860.08,-163.39 810.56,-143 809.52,-142.57 808.47,-142.12 807.42,-141.65"/>
<polygon fill="midnightblue" stroke="midnightblue" points="808.56,-138.32 798.03,-137.12 805.51,-144.62 808.56,-138.32"/>
</g>
<!-- Node28&#45;&gt;Node22 -->
<g id="edge49" class="edge">
<title>Node28&#45;&gt;Node22</title>
<path fill="none" stroke="midnightblue" d="M1015.05,-251.88C1006.53,-236.12 986.78,-202.15 963.56,-179 951.72,-167.2 936.78,-156.41 923.43,-147.86"/>
<polygon fill="midnightblue" stroke="midnightblue" points="925.28,-144.88 914.94,-142.57 921.58,-150.83 925.28,-144.88"/>
</g>
<!-- Node28&#45;&gt;Node23 -->
<g id="edge45" class="edge">
<title>Node28&#45;&gt;Node23</title>
<path fill="none" stroke="midnightblue" d="M1016.82,-251.94C1007.46,-222.72 976.64,-126.56 963.54,-85.67"/>
<polygon fill="midnightblue" stroke="midnightblue" points="966.8,-84.36 960.41,-75.91 960.13,-86.5 966.8,-84.36"/>
</g>
<!-- Node29&#45;&gt;Node4 -->
<g id="edge52" class="edge">
<title>Node29&#45;&gt;Node4</title>
<path fill="none" stroke="midnightblue" d="M1224.5,-179.42C1229.68,-161.98 1235.3,-132.09 1221.56,-112 1187.04,-61.54 998.59,-27.61 921.97,-15.71"/>
<polygon fill="midnightblue" stroke="midnightblue" points="922.34,-12.23 911.93,-14.18 921.29,-19.15 922.34,-12.23"/>
</g>
<!-- Node29&#45;&gt;Node6 -->
<g id="edge53" class="edge">
<title>Node29&#45;&gt;Node6</title>
<path fill="none" stroke="midnightblue" d="M1213.05,-179.4C1208.6,-169.76 1202.67,-156.91 1197.89,-146.54"/>
<polygon fill="midnightblue" stroke="midnightblue" points="1200.94,-144.81 1193.57,-137.19 1194.59,-147.74 1200.94,-144.81"/>
</g>
<!-- Node29&#45;&gt;Node19 -->
<g id="edge51" class="edge">
<title>Node29&#45;&gt;Node19</title>
<path fill="none" stroke="midnightblue" d="M1197.86,-179.4C1181.09,-168.5 1157.99,-153.48 1141.23,-142.58"/>
<polygon fill="midnightblue" stroke="midnightblue" points="1142.94,-139.52 1132.65,-137.01 1139.12,-145.39 1142.94,-139.52"/>
</g>
</g>
</svg>
