<?xml version="1.0" encoding="UTF-8" standalone="no"?>
<!DOCTYPE svg PUBLIC "-//W3C//DTD SVG 1.1//EN"
 "http://www.w3.org/Graphics/SVG/1.1/DTD/svg11.dtd">
<!-- Generated by graphviz version 2.43.0 (0)
 -->
<!-- Title: maliput_routing_position_compare.cc Pages: 1 -->
<!--zoomable 609 -->
<svg id="main" version="1.1" xmlns="http://www.w3.org/2000/svg" xmlns:xlink="http://www.w3.org/1999/xlink" xml:space="preserve" onload="init(evt)">
<style type="text/css"><![CDATA[
.edge:hover path { stroke: red; }
.edge:hover polygon { stroke: red; fill: red; }
]]></style>
<script type="text/javascript"><![CDATA[
var edges = document.getElementsByTagName('g');
if (edges && edges.length) {
  for (var i=0;i<edges.length;i++) {
    if (edges[i].id.substr(0,4)=='edge') {
      edges[i].setAttribute('class','edge');
    }
  }
}
]]></script>
        <defs>
                <circle id="rim" cx="0" cy="0" r="7"/>
                <circle id="rim2" cx="0" cy="0" r="3.5"/>
                <g id="zoomPlus">
                        <use xlink:href="#rim" fill="#404040">
                                <set attributeName="fill" to="#808080" begin="zoomplus.mouseover" end="zoomplus.mouseout"/>
                        </use>
                        <path d="M-4,0h8M0,-4v8" fill="none" stroke="white" stroke-width="1.5" pointer-events="none"/>
                </g>
                <g id="zoomMin">
                        <use xlink:href="#rim" fill="#404040">
                                <set attributeName="fill" to="#808080" begin="zoomminus.mouseover" end="zoomminus.mouseout"/>
                        </use>
                        <path d="M-4,0h8" fill="none" stroke="white" stroke-width="1.5" pointer-events="none"/>
                </g>
                <g id="dirArrow">
                        <path fill="none" stroke="white" stroke-width="1.5" d="M0,-3.0v7 M-2.5,-0.5L0,-3.0L2.5,-0.5"/>
                </g>
               <g id="resetDef">
                       <use xlink:href="#rim2" fill="#404040">
                               <set attributeName="fill" to="#808080" begin="reset.mouseover" end="reset.mouseout"/>
                       </use>
               </g>
        </defs>

<script type="text/javascript">
var viewWidth = 918;
var viewHeight = 609;
var sectionId = 'dynsection-0';
</script>
<script xlink:href="svgpan.js"/>
<svg id="graph" class="graph">
<g id="viewport">
<title>maliput_routing_position_compare.cc</title>
<polygon fill="white" stroke="transparent" points="-4,4 -4,-605 914.08,-605 914.08,4 -4,4"/>
<!-- Node1 -->
<g id="node1" class="node">
<title>Node1</title>
<g id="a_node1"><a xlink:title=" ">
<polygon fill="#bfbfbf" stroke="black" points="684,-570.5 684,-600.5 822,-600.5 822,-570.5 684,-570.5"/>
<text text-anchor="start" x="692" y="-588.5" font-family="Helvetica,sans-Serif" font-size="10.00">maliput_routing_position</text>
<text text-anchor="middle" x="753" y="-577.5" font-family="Helvetica,sans-Serif" font-size="10.00">_compare.cc</text>
</a>
</g>
</g>
<!-- Node2 -->
<g id="node2" class="node">
<title>Node2</title>
<g id="a_node2"><a xlink:href="maliput__routing__position__compare_8h.html" target="_top" xlink:title=" ">
<polygon fill="white" stroke="black" points="610.5,-492.5 610.5,-533.5 751.5,-533.5 751.5,-492.5 610.5,-492.5"/>
<text text-anchor="start" x="618.5" y="-521.5" font-family="Helvetica,sans-Serif" font-size="10.00">maliput/test_utilities</text>
<text text-anchor="start" x="618.5" y="-510.5" font-family="Helvetica,sans-Serif" font-size="10.00">/maliput_routing_position</text>
<text text-anchor="middle" x="681" y="-499.5" font-family="Helvetica,sans-Serif" font-size="10.00">_compare.h</text>
</a>
</g>
</g>
<!-- Node1&#45;&gt;Node2 -->
<g id="edge1" class="edge">
<title>Node1&#45;&gt;Node2</title>
<path fill="none" stroke="midnightblue" d="M738.43,-570.23C729.77,-561.75 718.5,-550.72 708.24,-540.68"/>
<polygon fill="midnightblue" stroke="midnightblue" points="710.6,-538.08 701.01,-533.59 705.7,-543.09 710.6,-538.08"/>
</g>
<!-- Node8 -->
<g id="node8" class="node">
<title>Node8</title>
<g id="a_node8"><a xlink:title=" ">
<polygon fill="white" stroke="#bfbfbf" points="665,-0.5 665,-19.5 709,-19.5 709,-0.5 665,-0.5"/>
<text text-anchor="middle" x="687" y="-7.5" font-family="Helvetica,sans-Serif" font-size="10.00">string</text>
</a>
</g>
</g>
<!-- Node1&#45;&gt;Node8 -->
<g id="edge36" class="edge">
<title>Node1&#45;&gt;Node8</title>
<path fill="none" stroke="midnightblue" d="M822.22,-573.15C846.55,-565.83 872.03,-553.79 889,-534 916.32,-502.14 908,-483.47 908,-441.5 908,-441.5 908,-441.5 908,-132 908,-47.03 780.74,-21.34 719.36,-13.89"/>
<polygon fill="midnightblue" stroke="midnightblue" points="719.73,-10.41 709.41,-12.77 718.95,-17.37 719.73,-10.41"/>
</g>
<!-- Node21 -->
<g id="node21" class="node">
<title>Node21</title>
<g id="a_node21"><a xlink:href="api_2compare_8h.html" target="_top" xlink:title=" ">
<polygon fill="white" stroke="black" points="465.5,-503.5 465.5,-522.5 592.5,-522.5 592.5,-503.5 465.5,-503.5"/>
<text text-anchor="middle" x="529" y="-510.5" font-family="Helvetica,sans-Serif" font-size="10.00">maliput/api/compare.h</text>
</a>
</g>
</g>
<!-- Node1&#45;&gt;Node21 -->
<g id="edge37" class="edge">
<title>Node1&#45;&gt;Node21</title>
<path fill="none" stroke="midnightblue" d="M708.48,-570.49C666.69,-557.34 604.93,-537.9 565.85,-525.6"/>
<polygon fill="midnightblue" stroke="midnightblue" points="566.77,-522.22 556.18,-522.55 564.67,-528.9 566.77,-522.22"/>
</g>
<!-- Node24 -->
<g id="node24" class="node">
<title>Node24</title>
<g id="a_node24"><a xlink:href="assert__compare_8h.html" target="_top" xlink:title=" ">
<polygon fill="white" stroke="black" points="770,-498 770,-528 880,-528 880,-498 770,-498"/>
<text text-anchor="start" x="778" y="-516" font-family="Helvetica,sans-Serif" font-size="10.00">test_utilities/assert</text>
<text text-anchor="middle" x="825" y="-505" font-family="Helvetica,sans-Serif" font-size="10.00">_compare.h</text>
</a>
</g>
</g>
<!-- Node1&#45;&gt;Node24 -->
<g id="edge42" class="edge">
<title>Node1&#45;&gt;Node24</title>
<path fill="none" stroke="midnightblue" d="M767.57,-570.23C777.82,-560.2 791.71,-546.6 803.26,-535.29"/>
<polygon fill="midnightblue" stroke="midnightblue" points="805.75,-537.74 810.45,-528.25 800.86,-532.74 805.75,-537.74"/>
</g>
<!-- Node3 -->
<g id="node3" class="node">
<title>Node3</title>
<g id="a_node3"><a xlink:title=" ">
<polygon fill="white" stroke="#bfbfbf" points="802,-431 802,-450 880,-450 880,-431 802,-431"/>
<text text-anchor="middle" x="841" y="-438" font-family="Helvetica,sans-Serif" font-size="10.00">gtest/gtest.h</text>
</a>
</g>
</g>
<!-- Node2&#45;&gt;Node3 -->
<g id="edge2" class="edge">
<title>Node2&#45;&gt;Node3</title>
<path fill="none" stroke="midnightblue" d="M725.57,-492.36C753.2,-480.19 787.9,-464.9 812,-454.28"/>
<polygon fill="midnightblue" stroke="midnightblue" points="813.58,-457.41 821.32,-450.17 810.75,-451 813.58,-457.41"/>
</g>
<!-- Node4 -->
<g id="node4" class="node">
<title>Node4</title>
<g id="a_node4"><a xlink:href="route__position__result_8h.html" target="_top" xlink:title=" ">
<polygon fill="white" stroke="black" points="490,-425.5 490,-455.5 610,-455.5 610,-425.5 490,-425.5"/>
<text text-anchor="start" x="498" y="-443.5" font-family="Helvetica,sans-Serif" font-size="10.00">maliput/routing/route</text>
<text text-anchor="middle" x="550" y="-432.5" font-family="Helvetica,sans-Serif" font-size="10.00">_position_result.h</text>
</a>
</g>
</g>
<!-- Node2&#45;&gt;Node4 -->
<g id="edge3" class="edge">
<title>Node2&#45;&gt;Node4</title>
<path fill="none" stroke="midnightblue" d="M644.51,-492.36C625.99,-482.39 603.59,-470.34 585.24,-460.47"/>
<polygon fill="midnightblue" stroke="midnightblue" points="586.79,-457.33 576.33,-455.67 583.48,-463.49 586.79,-457.33"/>
</g>
<!-- Node5 -->
<g id="node5" class="node">
<title>Node5</title>
<g id="a_node5"><a xlink:href="lane__data_8h.html" target="_top" xlink:title=" ">
<polygon fill="white" stroke="black" points="431,-369.5 431,-388.5 563,-388.5 563,-369.5 431,-369.5"/>
<text text-anchor="middle" x="497" y="-376.5" font-family="Helvetica,sans-Serif" font-size="10.00">maliput/api/lane_data.h</text>
</a>
</g>
</g>
<!-- Node4&#45;&gt;Node5 -->
<g id="edge4" class="edge">
<title>Node4&#45;&gt;Node5</title>
<path fill="none" stroke="midnightblue" d="M537.44,-425.4C529.66,-416.66 519.64,-405.41 511.52,-396.3"/>
<polygon fill="midnightblue" stroke="midnightblue" points="513.98,-393.8 504.71,-388.66 508.75,-398.45 513.98,-393.8"/>
</g>
<!-- Node6 -->
<g id="node6" class="node">
<title>Node6</title>
<g id="a_node6"><a xlink:title=" ">
<polygon fill="white" stroke="#bfbfbf" points="403.5,-308 403.5,-327 468.5,-327 468.5,-308 403.5,-308"/>
<text text-anchor="middle" x="436" y="-315" font-family="Helvetica,sans-Serif" font-size="10.00">functional</text>
</a>
</g>
</g>
<!-- Node5&#45;&gt;Node6 -->
<g id="edge5" class="edge">
<title>Node5&#45;&gt;Node6</title>
<path fill="none" stroke="midnightblue" d="M488.26,-369.48C478.84,-360.28 463.64,-345.46 452.05,-334.16"/>
<polygon fill="midnightblue" stroke="midnightblue" points="454.33,-331.49 444.72,-327.01 449.44,-336.5 454.33,-331.49"/>
</g>
<!-- Node7 -->
<g id="node7" class="node">
<title>Node7</title>
<g id="a_node7"><a xlink:title=" ">
<polygon fill="white" stroke="#bfbfbf" points="506.5,-185 506.5,-204 563.5,-204 563.5,-185 506.5,-185"/>
<text text-anchor="middle" x="535" y="-192" font-family="Helvetica,sans-Serif" font-size="10.00">ostream</text>
</a>
</g>
</g>
<!-- Node5&#45;&gt;Node7 -->
<g id="edge6" class="edge">
<title>Node5&#45;&gt;Node7</title>
<path fill="none" stroke="midnightblue" d="M500.02,-369.47C503.11,-360.48 507.89,-345.88 511,-333 521.12,-291.14 528.75,-241.14 532.48,-214.47"/>
<polygon fill="midnightblue" stroke="midnightblue" points="535.99,-214.65 533.87,-204.27 529.05,-213.7 535.99,-214.65"/>
</g>
<!-- Node5&#45;&gt;Node8 -->
<g id="edge7" class="edge">
<title>Node5&#45;&gt;Node8</title>
<path fill="none" stroke="midnightblue" d="M534.1,-369.41C584.4,-355.32 668,-322.1 668,-257 668,-257 668,-257 668,-132 668,-95.29 676.64,-53.06 682.27,-29.45"/>
<polygon fill="midnightblue" stroke="midnightblue" points="685.67,-30.28 684.67,-19.73 678.87,-28.6 685.67,-30.28"/>
</g>
<!-- Node9 -->
<g id="node9" class="node">
<title>Node9</title>
<g id="a_node9"><a xlink:href="maliput__copyable_8h.html" target="_top" xlink:title=" ">
<polygon fill="white" stroke="black" points="348,-179.5 348,-209.5 488,-209.5 488,-179.5 348,-179.5"/>
<text text-anchor="start" x="356" y="-197.5" font-family="Helvetica,sans-Serif" font-size="10.00">maliput/common/maliput</text>
<text text-anchor="middle" x="418" y="-186.5" font-family="Helvetica,sans-Serif" font-size="10.00">_copyable.h</text>
</a>
</g>
</g>
<!-- Node5&#45;&gt;Node9 -->
<g id="edge8" class="edge">
<title>Node5&#45;&gt;Node9</title>
<path fill="none" stroke="midnightblue" d="M495.45,-369.34C492.73,-355 486.45,-325.55 477,-302 464.86,-271.75 445.94,-239.31 432.81,-218.29"/>
<polygon fill="midnightblue" stroke="midnightblue" points="435.71,-216.32 427.41,-209.75 429.8,-220.07 435.71,-216.32"/>
</g>
<!-- Node10 -->
<g id="node10" class="node">
<title>Node10</title>
<g id="a_node10"><a xlink:href="maliput__throw_8h.html" target="_top" xlink:title=" ">
<polygon fill="white" stroke="black" points="500,-56.5 500,-86.5 640,-86.5 640,-56.5 500,-56.5"/>
<text text-anchor="start" x="508" y="-74.5" font-family="Helvetica,sans-Serif" font-size="10.00">maliput/common/maliput</text>
<text text-anchor="middle" x="570" y="-63.5" font-family="Helvetica,sans-Serif" font-size="10.00">_throw.h</text>
</a>
</g>
</g>
<!-- Node5&#45;&gt;Node10 -->
<g id="edge9" class="edge">
<title>Node5&#45;&gt;Node10</title>
<path fill="none" stroke="midnightblue" d="M519.86,-369.47C557.89,-353.63 630,-315.84 630,-257 630,-257 630,-257 630,-193.5 630,-155.87 606.42,-117.86 588.82,-94.74"/>
<polygon fill="midnightblue" stroke="midnightblue" points="591.37,-92.33 582.43,-86.64 585.88,-96.66 591.37,-92.33"/>
</g>
<!-- Node11 -->
<g id="node11" class="node">
<title>Node11</title>
<g id="a_node11"><a xlink:href="matrix_8h.html" target="_top" xlink:title=" ">
<polygon fill="white" stroke="black" points="60.5,-185 60.5,-204 187.5,-204 187.5,-185 60.5,-185"/>
<text text-anchor="middle" x="124" y="-192" font-family="Helvetica,sans-Serif" font-size="10.00">maliput/math/matrix.h</text>
</a>
</g>
</g>
<!-- Node5&#45;&gt;Node11 -->
<g id="edge11" class="edge">
<title>Node5&#45;&gt;Node11</title>
<path fill="none" stroke="midnightblue" d="M430.77,-374.26C356.48,-368.96 241.71,-357.08 206,-333 162.9,-303.94 139.01,-243.95 129.26,-213.73"/>
<polygon fill="midnightblue" stroke="midnightblue" points="132.58,-212.6 126.3,-204.06 125.88,-214.65 132.58,-212.6"/>
</g>
<!-- Node17 -->
<g id="node17" class="node">
<title>Node17</title>
<g id="a_node17"><a xlink:href="vector_8h.html" target="_top" xlink:title=" ">
<polygon fill="white" stroke="black" points="191.5,-123.5 191.5,-142.5 316.5,-142.5 316.5,-123.5 191.5,-123.5"/>
<text text-anchor="middle" x="254" y="-130.5" font-family="Helvetica,sans-Serif" font-size="10.00">maliput/math/vector.h</text>
</a>
</g>
</g>
<!-- Node5&#45;&gt;Node17 -->
<g id="edge35" class="edge">
<title>Node5&#45;&gt;Node17</title>
<path fill="none" stroke="midnightblue" d="M505.75,-369.35C534.95,-339.49 624.29,-239.21 572,-179 540.9,-143.18 410.65,-135.1 326.8,-133.7"/>
<polygon fill="midnightblue" stroke="midnightblue" points="326.61,-130.2 316.56,-133.56 326.51,-137.2 326.61,-130.2"/>
</g>
<!-- Node18 -->
<g id="node18" class="node">
<title>Node18</title>
<g id="a_node18"><a xlink:href="quaternion_8h.html" target="_top" xlink:title=" ">
<polygon fill="white" stroke="black" points="244.5,-246.5 244.5,-265.5 391.5,-265.5 391.5,-246.5 244.5,-246.5"/>
<text text-anchor="middle" x="318" y="-253.5" font-family="Helvetica,sans-Serif" font-size="10.00">maliput/math/quaternion.h</text>
</a>
</g>
</g>
<!-- Node5&#45;&gt;Node18 -->
<g id="edge24" class="edge">
<title>Node5&#45;&gt;Node18</title>
<path fill="none" stroke="midnightblue" d="M470.21,-369.42C448.56,-361.77 417.86,-349.28 394,-333 369.06,-315.99 345.29,-290.12 331.17,-273.39"/>
<polygon fill="midnightblue" stroke="midnightblue" points="333.78,-271.05 324.71,-265.57 328.38,-275.51 333.78,-271.05"/>
</g>
<!-- Node20 -->
<g id="node20" class="node">
<title>Node20</title>
<g id="a_node20"><a xlink:href="roll__pitch__yaw_8h.html" target="_top" xlink:title=" ">
<polygon fill="white" stroke="black" points="215.5,-302.5 215.5,-332.5 346.5,-332.5 346.5,-302.5 215.5,-302.5"/>
<text text-anchor="start" x="223.5" y="-320.5" font-family="Helvetica,sans-Serif" font-size="10.00">maliput/math/roll_pitch</text>
<text text-anchor="middle" x="281" y="-309.5" font-family="Helvetica,sans-Serif" font-size="10.00">_yaw.h</text>
</a>
</g>
</g>
<!-- Node5&#45;&gt;Node20 -->
<g id="edge30" class="edge">
<title>Node5&#45;&gt;Node20</title>
<path fill="none" stroke="midnightblue" d="M466.05,-369.48C433.72,-360.57 382.17,-346.37 341.68,-335.22"/>
<polygon fill="midnightblue" stroke="midnightblue" points="342.48,-331.8 331.91,-332.52 340.62,-338.55 342.48,-331.8"/>
</g>
<!-- Node10&#45;&gt;Node8 -->
<g id="edge10" class="edge">
<title>Node10&#45;&gt;Node8</title>
<path fill="none" stroke="midnightblue" d="M597.73,-56.4C616.83,-46.68 642.06,-33.86 660.82,-24.31"/>
<polygon fill="midnightblue" stroke="midnightblue" points="662.65,-27.31 669.98,-19.66 659.48,-21.07 662.65,-27.31"/>
</g>
<!-- Node12 -->
<g id="node12" class="node">
<title>Node12</title>
<g id="a_node12"><a xlink:title=" ">
<polygon fill="white" stroke="#bfbfbf" points="0,-62 0,-81 64,-81 64,-62 0,-62"/>
<text text-anchor="middle" x="32" y="-69" font-family="Helvetica,sans-Serif" font-size="10.00">algorithm</text>
</a>
</g>
</g>
<!-- Node11&#45;&gt;Node12 -->
<g id="edge12" class="edge">
<title>Node11&#45;&gt;Node12</title>
<path fill="none" stroke="midnightblue" d="M117.38,-184.8C102.2,-164.83 64.63,-115.42 44.78,-89.3"/>
<polygon fill="midnightblue" stroke="midnightblue" points="47.4,-86.97 38.56,-81.12 41.82,-91.2 47.4,-86.97"/>
</g>
<!-- Node13 -->
<g id="node13" class="node">
<title>Node13</title>
<g id="a_node13"><a xlink:title=" ">
<polygon fill="white" stroke="#bfbfbf" points="82,-62 82,-81 124,-81 124,-62 82,-62"/>
<text text-anchor="middle" x="103" y="-69" font-family="Helvetica,sans-Serif" font-size="10.00">array</text>
</a>
</g>
</g>
<!-- Node11&#45;&gt;Node13 -->
<g id="edge13" class="edge">
<title>Node11&#45;&gt;Node13</title>
<path fill="none" stroke="midnightblue" d="M121.32,-184.64C118.38,-174.63 113.73,-157.78 111,-143 107.79,-125.6 105.66,-105.54 104.42,-91.27"/>
<polygon fill="midnightblue" stroke="midnightblue" points="107.9,-90.92 103.6,-81.24 100.92,-91.49 107.9,-90.92"/>
</g>
<!-- Node14 -->
<g id="node14" class="node">
<title>Node14</title>
<g id="a_node14"><a xlink:title=" ">
<polygon fill="white" stroke="#bfbfbf" points="142.5,-62 142.5,-81 195.5,-81 195.5,-62 142.5,-62"/>
<text text-anchor="middle" x="169" y="-69" font-family="Helvetica,sans-Serif" font-size="10.00">cstddef</text>
</a>
</g>
</g>
<!-- Node11&#45;&gt;Node14 -->
<g id="edge14" class="edge">
<title>Node11&#45;&gt;Node14</title>
<path fill="none" stroke="midnightblue" d="M126.98,-184.78C131.56,-171.43 140.7,-145.13 149,-123 153.09,-112.11 157.88,-99.98 161.75,-90.35"/>
<polygon fill="midnightblue" stroke="midnightblue" points="165.01,-91.62 165.51,-81.04 158.52,-89 165.01,-91.62"/>
</g>
<!-- Node15 -->
<g id="node15" class="node">
<title>Node15</title>
<g id="a_node15"><a xlink:title=" ">
<polygon fill="white" stroke="#bfbfbf" points="213.5,-62 213.5,-81 296.5,-81 296.5,-62 213.5,-62"/>
<text text-anchor="middle" x="255" y="-69" font-family="Helvetica,sans-Serif" font-size="10.00">initializer_list</text>
</a>
</g>
</g>
<!-- Node11&#45;&gt;Node15 -->
<g id="edge15" class="edge">
<title>Node11&#45;&gt;Node15</title>
<path fill="none" stroke="midnightblue" d="M130.09,-184.59C139.97,-170.53 160.54,-142.75 182,-123 197.21,-109 216.53,-95.81 231.47,-86.42"/>
<polygon fill="midnightblue" stroke="midnightblue" points="233.45,-89.31 240.13,-81.09 229.78,-83.35 233.45,-89.31"/>
</g>
<!-- Node16 -->
<g id="node16" class="node">
<title>Node16</title>
<g id="a_node16"><a xlink:title=" ">
<polygon fill="white" stroke="#bfbfbf" points="315,-62 315,-81 375,-81 375,-62 315,-62"/>
<text text-anchor="middle" x="345" y="-69" font-family="Helvetica,sans-Serif" font-size="10.00">iostream</text>
</a>
</g>
</g>
<!-- Node11&#45;&gt;Node16 -->
<g id="edge16" class="edge">
<title>Node11&#45;&gt;Node16</title>
<path fill="none" stroke="midnightblue" d="M185.08,-184.98C236.64,-176.6 305.15,-162.26 325,-143 338.81,-129.6 343.29,-107.42 344.63,-91.51"/>
<polygon fill="midnightblue" stroke="midnightblue" points="348.14,-91.42 345.15,-81.25 341.15,-91.07 348.14,-91.42"/>
</g>
<!-- Node11&#45;&gt;Node17 -->
<g id="edge17" class="edge">
<title>Node11&#45;&gt;Node17</title>
<path fill="none" stroke="midnightblue" d="M142.63,-184.98C164.44,-174.99 200.8,-158.35 226.02,-146.81"/>
<polygon fill="midnightblue" stroke="midnightblue" points="227.77,-149.85 235.41,-142.51 224.86,-143.49 227.77,-149.85"/>
</g>
<!-- Node17&#45;&gt;Node10 -->
<g id="edge23" class="edge">
<title>Node17&#45;&gt;Node10</title>
<path fill="none" stroke="midnightblue" d="M299.28,-123.48C348.9,-114.13 429.49,-98.96 489.86,-87.59"/>
<polygon fill="midnightblue" stroke="midnightblue" points="490.57,-91.02 499.75,-85.73 489.27,-84.14 490.57,-91.02"/>
</g>
<!-- Node17&#45;&gt;Node12 -->
<g id="edge18" class="edge">
<title>Node17&#45;&gt;Node12</title>
<path fill="none" stroke="midnightblue" d="M215.22,-123.5C178.37,-115.15 121.53,-101.58 73,-87 70.22,-86.17 67.35,-85.25 64.48,-84.31"/>
<polygon fill="midnightblue" stroke="midnightblue" points="65.45,-80.94 54.86,-81.02 63.19,-87.57 65.45,-80.94"/>
</g>
<!-- Node17&#45;&gt;Node13 -->
<g id="edge19" class="edge">
<title>Node17&#45;&gt;Node13</title>
<path fill="none" stroke="midnightblue" d="M228.7,-123.37C204.03,-114.78 165.57,-100.89 133,-87 131.8,-86.49 130.58,-85.96 129.36,-85.41"/>
<polygon fill="midnightblue" stroke="midnightblue" points="130.55,-82.1 120.01,-81.06 127.6,-88.45 130.55,-82.1"/>
</g>
<!-- Node17&#45;&gt;Node14 -->
<g id="edge20" class="edge">
<title>Node17&#45;&gt;Node14</title>
<path fill="none" stroke="midnightblue" d="M241.82,-123.48C228.19,-113.93 205.87,-98.31 189.53,-86.87"/>
<polygon fill="midnightblue" stroke="midnightblue" points="191.36,-83.88 181.16,-81.01 187.34,-89.61 191.36,-83.88"/>
</g>
<!-- Node17&#45;&gt;Node15 -->
<g id="edge21" class="edge">
<title>Node17&#45;&gt;Node15</title>
<path fill="none" stroke="midnightblue" d="M254.14,-123.48C254.28,-115.08 254.5,-101.98 254.69,-91.16"/>
<polygon fill="midnightblue" stroke="midnightblue" points="258.19,-91.07 254.86,-81.01 251.19,-90.95 258.19,-91.07"/>
</g>
<!-- Node17&#45;&gt;Node16 -->
<g id="edge22" class="edge">
<title>Node17&#45;&gt;Node16</title>
<path fill="none" stroke="midnightblue" d="M267.04,-123.48C281.77,-113.84 305.97,-98.02 323.51,-86.55"/>
<polygon fill="midnightblue" stroke="midnightblue" points="325.53,-89.41 331.99,-81.01 321.7,-83.55 325.53,-89.41"/>
</g>
<!-- Node18&#45;&gt;Node7 -->
<g id="edge26" class="edge">
<title>Node18&#45;&gt;Node7</title>
<path fill="none" stroke="midnightblue" d="M357.48,-246.49C394,-238.28 449.63,-224.93 497,-210 499.42,-209.24 501.9,-208.41 504.39,-207.54"/>
<polygon fill="midnightblue" stroke="midnightblue" points="505.66,-210.8 513.85,-204.08 503.26,-204.22 505.66,-210.8"/>
</g>
<!-- Node18&#45;&gt;Node9 -->
<g id="edge27" class="edge">
<title>Node18&#45;&gt;Node9</title>
<path fill="none" stroke="midnightblue" d="M332.33,-246.48C346.12,-238.27 367.48,-225.56 385.42,-214.88"/>
<polygon fill="midnightblue" stroke="midnightblue" points="387.63,-217.64 394.43,-209.52 384.05,-211.63 387.63,-217.64"/>
</g>
<!-- Node18&#45;&gt;Node11 -->
<g id="edge28" class="edge">
<title>Node18&#45;&gt;Node11</title>
<path fill="none" stroke="midnightblue" d="M290.2,-246.48C256.35,-236.09 199.03,-218.51 161.35,-206.95"/>
<polygon fill="midnightblue" stroke="midnightblue" points="162.33,-203.6 151.74,-204.01 160.28,-210.29 162.33,-203.6"/>
</g>
<!-- Node18&#45;&gt;Node17 -->
<g id="edge29" class="edge">
<title>Node18&#45;&gt;Node17</title>
<path fill="none" stroke="midnightblue" d="M306.25,-246.31C295.96,-238.08 281.38,-224.81 273,-210 262.86,-192.1 258.07,-168.81 255.85,-152.76"/>
<polygon fill="midnightblue" stroke="midnightblue" points="259.29,-152.05 254.64,-142.53 252.34,-152.87 259.29,-152.05"/>
</g>
<!-- Node19 -->
<g id="node19" class="node">
<title>Node19</title>
<g id="a_node19"><a xlink:title=" ">
<polygon fill="white" stroke="#bfbfbf" points="282.5,-185 282.5,-204 329.5,-204 329.5,-185 282.5,-185"/>
<text text-anchor="middle" x="306" y="-192" font-family="Helvetica,sans-Serif" font-size="10.00">cmath</text>
</a>
</g>
</g>
<!-- Node18&#45;&gt;Node19 -->
<g id="edge25" class="edge">
<title>Node18&#45;&gt;Node19</title>
<path fill="none" stroke="midnightblue" d="M316.28,-246.48C314.57,-237.99 311.89,-224.7 309.7,-213.82"/>
<polygon fill="midnightblue" stroke="midnightblue" points="313.12,-213.12 307.72,-204.01 306.26,-214.5 313.12,-213.12"/>
</g>
<!-- Node20&#45;&gt;Node9 -->
<g id="edge31" class="edge">
<title>Node20&#45;&gt;Node9</title>
<path fill="none" stroke="midnightblue" d="M342.49,-302.4C363.38,-294.8 385.16,-283.28 400,-266 411,-253.2 415.42,-234.56 417.13,-219.67"/>
<polygon fill="midnightblue" stroke="midnightblue" points="420.63,-219.87 417.96,-209.62 413.65,-219.3 420.63,-219.87"/>
</g>
<!-- Node20&#45;&gt;Node11 -->
<g id="edge32" class="edge">
<title>Node20&#45;&gt;Node11</title>
<path fill="none" stroke="midnightblue" d="M256.8,-302.47C240.79,-292.84 219.6,-279.43 202,-266 179.26,-248.65 155.14,-226.13 139.84,-211.26"/>
<polygon fill="midnightblue" stroke="midnightblue" points="142.29,-208.76 132.7,-204.26 137.39,-213.76 142.29,-208.76"/>
</g>
<!-- Node20&#45;&gt;Node17 -->
<g id="edge34" class="edge">
<title>Node20&#45;&gt;Node17</title>
<path fill="none" stroke="midnightblue" d="M262.58,-302.29C252.34,-293.18 240.57,-280.38 235,-266 220.01,-227.29 235.34,-178.05 245.87,-152.02"/>
<polygon fill="midnightblue" stroke="midnightblue" points="249.15,-153.25 249.86,-142.67 242.71,-150.5 249.15,-153.25"/>
</g>
<!-- Node20&#45;&gt;Node18 -->
<g id="edge33" class="edge">
<title>Node20&#45;&gt;Node18</title>
<path fill="none" stroke="midnightblue" d="M289.77,-302.4C294.98,-294.02 301.63,-283.33 307.17,-274.42"/>
<polygon fill="midnightblue" stroke="midnightblue" points="310.31,-276 312.62,-265.66 304.36,-272.3 310.31,-276"/>
</g>
<!-- Node21&#45;&gt;Node5 -->
<g id="edge38" class="edge">
<title>Node21&#45;&gt;Node5</title>
<path fill="none" stroke="midnightblue" d="M518.11,-503.49C506.37,-493.56 488.37,-475.94 481,-456 473.86,-436.7 480.92,-413.41 487.78,-397.74"/>
<polygon fill="midnightblue" stroke="midnightblue" points="490.97,-399.2 492.11,-388.66 484.65,-396.18 490.97,-399.2"/>
</g>
<!-- Node22 -->
<g id="node22" class="node">
<title>Node22</title>
<g id="a_node22"><a xlink:href="common_2compare_8h.html" target="_top" xlink:title=" ">
<polygon fill="white" stroke="black" points="628.5,-431 628.5,-450 783.5,-450 783.5,-431 628.5,-431"/>
<text text-anchor="middle" x="706" y="-438" font-family="Helvetica,sans-Serif" font-size="10.00">maliput/common/compare.h</text>
</a>
</g>
</g>
<!-- Node21&#45;&gt;Node22 -->
<g id="edge39" class="edge">
<title>Node21&#45;&gt;Node22</title>
<path fill="none" stroke="midnightblue" d="M550.35,-503.5C581.45,-491.11 639.38,-468.04 675.12,-453.8"/>
<polygon fill="midnightblue" stroke="midnightblue" points="676.58,-456.99 684.57,-450.03 673.99,-450.48 676.58,-456.99"/>
</g>
<!-- Node22&#45;&gt;Node8 -->
<g id="edge41" class="edge">
<title>Node22&#45;&gt;Node8</title>
<path fill="none" stroke="midnightblue" d="M706,-430.99C706,-411.24 706,-360.72 706,-318.5 706,-318.5 706,-318.5 706,-132 706,-95.29 697.36,-53.06 691.73,-29.45"/>
<polygon fill="midnightblue" stroke="midnightblue" points="695.13,-28.6 689.33,-19.73 688.33,-30.28 695.13,-28.6"/>
</g>
<!-- Node23 -->
<g id="node23" class="node">
<title>Node23</title>
<g id="a_node23"><a xlink:title=" ">
<polygon fill="white" stroke="#bfbfbf" points="734,-369.5 734,-388.5 790,-388.5 790,-369.5 734,-369.5"/>
<text text-anchor="middle" x="762" y="-376.5" font-family="Helvetica,sans-Serif" font-size="10.00">optional</text>
</a>
</g>
</g>
<!-- Node22&#45;&gt;Node23 -->
<g id="edge40" class="edge">
<title>Node22&#45;&gt;Node23</title>
<path fill="none" stroke="midnightblue" d="M714.02,-430.98C722.59,-421.87 736.36,-407.24 746.96,-395.98"/>
<polygon fill="midnightblue" stroke="midnightblue" points="749.69,-398.19 753.99,-388.51 744.59,-393.39 749.69,-398.19"/>
</g>
<!-- Node24&#45;&gt;Node3 -->
<g id="edge43" class="edge">
<title>Node24&#45;&gt;Node3</title>
<path fill="none" stroke="midnightblue" d="M828.24,-497.73C830.67,-487 834.04,-472.19 836.7,-460.46"/>
<polygon fill="midnightblue" stroke="midnightblue" points="840.18,-460.92 838.98,-450.39 833.36,-459.37 840.18,-460.92"/>
</g>
<!-- Node24&#45;&gt;Node22 -->
<g id="edge44" class="edge">
<title>Node24&#45;&gt;Node22</title>
<path fill="none" stroke="midnightblue" d="M801.2,-497.9C780.27,-485.5 749.96,-467.55 729.2,-455.25"/>
<polygon fill="midnightblue" stroke="midnightblue" points="730.79,-452.12 720.4,-450.03 727.22,-458.14 730.79,-452.12"/>
</g>
</g>
</svg>
        <g id="navigator" transform="translate(0 0)" fill="#404254">
                <rect fill="#f2f5e9" fill-opacity="0.5" stroke="#606060" stroke-width=".5" x="0" y="0" width="60" height="60"/>
                <use id="zoomplus" xlink:href="#zoomPlus" x="17" y="9" onmousedown="handleZoom(evt,'in')"/>
                <use id="zoomminus" xlink:href="#zoomMin" x="42" y="9" onmousedown="handleZoom(evt,'out')"/>
                <use id="reset" xlink:href="#resetDef" x="30" y="36" onmousedown="handleReset()"/>
                <g id="arrowUp" xlink:href="#dirArrow" transform="translate(30 24)" onmousedown="handlePan(0,-1)">
                  <use xlink:href="#rim" fill="#404040">
                        <set attributeName="fill" to="#808080" begin="arrowUp.mouseover" end="arrowUp.mouseout"/>
                  </use>
                  <path fill="none" stroke="white" stroke-width="1.5" d="M0,-3.0v7 M-2.5,-0.5L0,-3.0L2.5,-0.5"/>
                </g>
                <g id="arrowRight" xlink:href="#dirArrow" transform="rotate(90) translate(36 -43)" onmousedown="handlePan(1,0)">
                  <use xlink:href="#rim" fill="#404040">
                        <set attributeName="fill" to="#808080" begin="arrowRight.mouseover" end="arrowRight.mouseout"/>
                  </use>
                  <path fill="none" stroke="white" stroke-width="1.5" d="M0,-3.0v7 M-2.5,-0.5L0,-3.0L2.5,-0.5"/>
                </g>
                <g id="arrowDown" xlink:href="#dirArrow" transform="rotate(180) translate(-30 -48)" onmousedown="handlePan(0,1)">
                  <use xlink:href="#rim" fill="#404040">
                        <set attributeName="fill" to="#808080" begin="arrowDown.mouseover" end="arrowDown.mouseout"/>
                  </use>
                  <path fill="none" stroke="white" stroke-width="1.5" d="M0,-3.0v7 M-2.5,-0.5L0,-3.0L2.5,-0.5"/>
                </g>
                <g id="arrowLeft" xlink:href="#dirArrow" transform="rotate(270) translate(-36 17)" onmousedown="handlePan(-1,0)">
                  <use xlink:href="#rim" fill="#404040">
                        <set attributeName="fill" to="#808080" begin="arrowLeft.mouseover" end="arrowLeft.mouseout"/>
                  </use>
                  <path fill="none" stroke="white" stroke-width="1.5" d="M0,-3.0v7 M-2.5,-0.5L0,-3.0L2.5,-0.5"/>
                </g>
        </g>
        <svg viewBox="0 0 15 15" width="100%" height="30px" preserveAspectRatio="xMaxYMin meet">
         <g id="arrow_out" transform="scale(0.3 0.3)">
          <a xlink:href="maliput__routing__position__compare_8cc__incl_org.svg" target="_base">
           <rect id="button" ry="5" rx="5" y="6" x="6" height="38" width="38"
                fill="#f2f5e9" fill-opacity="0.5" stroke="#606060" stroke-width="1.0"/>
           <path id="arrow"
             d="M 11.500037,31.436501 C 11.940474,20.09759 22.043105,11.32322 32.158766,21.979434 L 37.068811,17.246167 C 37.068811,17.246167 37.088388,32 37.088388,32 L 22.160133,31.978069 C 22.160133,31.978069 26.997745,27.140456 26.997745,27.140456 C 18.528582,18.264221 13.291696,25.230495 11.500037,31.436501 z"
             style="fill:#404040;"/>
          </a>
         </g>
        </svg>
</svg>
