<?xml version="1.0" encoding="UTF-8" standalone="no"?>
<!DOCTYPE svg PUBLIC "-//W3C//DTD SVG 1.1//EN"
 "http://www.w3.org/Graphics/SVG/1.1/DTD/svg11.dtd">
<!-- Generated by graphviz version 2.43.0 (0)
 -->
<!-- Title: compare.cc Pages: 1 -->
<!--zoomable 319 -->
<svg id="main" version="1.1" xmlns="http://www.w3.org/2000/svg" xmlns:xlink="http://www.w3.org/1999/xlink" xml:space="preserve" onload="init(evt)">
<style type="text/css"><![CDATA[
.edge:hover path { stroke: red; }
.edge:hover polygon { stroke: red; fill: red; }
]]></style>
<script type="text/javascript"><![CDATA[
var edges = document.getElementsByTagName('g');
if (edges && edges.length) {
  for (var i=0;i<edges.length;i++) {
    if (edges[i].id.substr(0,4)=='edge') {
      edges[i].setAttribute('class','edge');
    }
  }
}
]]></script>
        <defs>
                <circle id="rim" cx="0" cy="0" r="7"/>
                <circle id="rim2" cx="0" cy="0" r="3.5"/>
                <g id="zoomPlus">
                        <use xlink:href="#rim" fill="#404040">
                                <set attributeName="fill" to="#808080" begin="zoomplus.mouseover" end="zoomplus.mouseout"/>
                        </use>
                        <path d="M-4,0h8M0,-4v8" fill="none" stroke="white" stroke-width="1.5" pointer-events="none"/>
                </g>
                <g id="zoomMin">
                        <use xlink:href="#rim" fill="#404040">
                                <set attributeName="fill" to="#808080" begin="zoomminus.mouseover" end="zoomminus.mouseout"/>
                        </use>
                        <path d="M-4,0h8" fill="none" stroke="white" stroke-width="1.5" pointer-events="none"/>
                </g>
                <g id="dirArrow">
                        <path fill="none" stroke="white" stroke-width="1.5" d="M0,-3.0v7 M-2.5,-0.5L0,-3.0L2.5,-0.5"/>
                </g>
               <g id="resetDef">
                       <use xlink:href="#rim2" fill="#404040">
                               <set attributeName="fill" to="#808080" begin="reset.mouseover" end="reset.mouseout"/>
                       </use>
               </g>
        </defs>

<script type="text/javascript">
var viewWidth = 814;
var viewHeight = 319;
var sectionId = 'dynsection-0';
</script>
<script xlink:href="svgpan.js"/>
<svg id="graph" class="graph">
<g id="viewport">
<title>compare.cc</title>
<polygon fill="white" stroke="transparent" points="-4,4 -4,-315 810,-315 810,4 -4,4"/>
<!-- Node1 -->
<g id="node1" class="node">
<title>Node1</title>
<g id="a_node1"><a xlink:title=" ">
<polygon fill="#bfbfbf" stroke="black" points="631.5,-291.5 631.5,-310.5 704.5,-310.5 704.5,-291.5 631.5,-291.5"/>
<text text-anchor="middle" x="668" y="-298.5" font-family="Helvetica,sans-Serif" font-size="10.00">compare.cc</text>
</a>
</g>
</g>
<!-- Node2 -->
<g id="node2" class="node">
<title>Node2</title>
<g id="a_node2"><a xlink:href="math_2compare_8h.html" target="_top" xlink:title=" ">
<polygon fill="white" stroke="black" points="493.5,-235.5 493.5,-254.5 630.5,-254.5 630.5,-235.5 493.5,-235.5"/>
<text text-anchor="middle" x="562" y="-242.5" font-family="Helvetica,sans-Serif" font-size="10.00">maliput/math/compare.h</text>
</a>
</g>
</g>
<!-- Node1&#45;&gt;Node2 -->
<g id="edge1" class="edge">
<title>Node1&#45;&gt;Node2</title>
<path fill="none" stroke="midnightblue" d="M650.97,-291.32C633.97,-282.66 607.62,-269.24 588.01,-259.25"/>
<polygon fill="midnightblue" stroke="midnightblue" points="589.49,-256.08 578.99,-254.65 586.31,-262.31 589.49,-256.08"/>
</g>
<!-- Node4 -->
<g id="node4" class="node">
<title>Node4</title>
<g id="a_node4"><a xlink:title=" ">
<polygon fill="white" stroke="#bfbfbf" points="615,-123.5 615,-142.5 671,-142.5 671,-123.5 615,-123.5"/>
<text text-anchor="middle" x="643" y="-130.5" font-family="Helvetica,sans-Serif" font-size="10.00">optional</text>
</a>
</g>
</g>
<!-- Node1&#45;&gt;Node4 -->
<g id="edge22" class="edge">
<title>Node1&#45;&gt;Node4</title>
<path fill="none" stroke="midnightblue" d="M666.66,-291.08C662.72,-264.95 651.16,-188.21 645.8,-152.58"/>
<polygon fill="midnightblue" stroke="midnightblue" points="649.24,-151.94 644.29,-142.57 642.32,-152.98 649.24,-151.94"/>
</g>
<!-- Node7 -->
<g id="node7" class="node">
<title>Node7</title>
<g id="a_node7"><a xlink:title=" ">
<polygon fill="white" stroke="#bfbfbf" points="470,-62 470,-81 534,-81 534,-62 470,-62"/>
<text text-anchor="middle" x="502" y="-69" font-family="Helvetica,sans-Serif" font-size="10.00">algorithm</text>
</a>
</g>
</g>
<!-- Node1&#45;&gt;Node7 -->
<g id="edge19" class="edge">
<title>Node1&#45;&gt;Node7</title>
<path fill="none" stroke="midnightblue" d="M631.27,-295.77C583.69,-289.5 504.51,-276.17 485,-255 442.81,-209.21 475.05,-126.79 492.59,-90.49"/>
<polygon fill="midnightblue" stroke="midnightblue" points="495.91,-91.68 497.26,-81.17 489.65,-88.54 495.91,-91.68"/>
</g>
<!-- Node14 -->
<g id="node14" class="node">
<title>Node14</title>
<g id="a_node14"><a xlink:title=" ">
<polygon fill="white" stroke="#bfbfbf" points="696.5,-235.5 696.5,-254.5 743.5,-254.5 743.5,-235.5 696.5,-235.5"/>
<text text-anchor="middle" x="720" y="-242.5" font-family="Helvetica,sans-Serif" font-size="10.00">cmath</text>
</a>
</g>
</g>
<!-- Node1&#45;&gt;Node14 -->
<g id="edge20" class="edge">
<title>Node1&#45;&gt;Node14</title>
<path fill="none" stroke="midnightblue" d="M676.59,-291.08C684.16,-283.22 695.38,-271.57 704.51,-262.08"/>
<polygon fill="midnightblue" stroke="midnightblue" points="707.16,-264.38 711.57,-254.75 702.12,-259.53 707.16,-264.38"/>
</g>
<!-- Node15 -->
<g id="node15" class="node">
<title>Node15</title>
<g id="a_node15"><a xlink:title=" ">
<polygon fill="white" stroke="#bfbfbf" points="762,-235.5 762,-254.5 806,-254.5 806,-235.5 762,-235.5"/>
<text text-anchor="middle" x="784" y="-242.5" font-family="Helvetica,sans-Serif" font-size="10.00">limits</text>
</a>
</g>
</g>
<!-- Node1&#45;&gt;Node15 -->
<g id="edge21" class="edge">
<title>Node1&#45;&gt;Node15</title>
<path fill="none" stroke="midnightblue" d="M686.38,-291.44C705.22,-282.68 734.73,-268.94 756.38,-258.86"/>
<polygon fill="midnightblue" stroke="midnightblue" points="758.12,-261.91 765.71,-254.52 755.16,-255.56 758.12,-261.91"/>
</g>
<!-- Node3 -->
<g id="node3" class="node">
<title>Node3</title>
<g id="a_node3"><a xlink:href="common_2compare_8h.html" target="_top" xlink:title=" ">
<polygon fill="white" stroke="black" points="484.5,-179.5 484.5,-198.5 639.5,-198.5 639.5,-179.5 484.5,-179.5"/>
<text text-anchor="middle" x="562" y="-186.5" font-family="Helvetica,sans-Serif" font-size="10.00">maliput/common/compare.h</text>
</a>
</g>
</g>
<!-- Node2&#45;&gt;Node3 -->
<g id="edge2" class="edge">
<title>Node2&#45;&gt;Node3</title>
<path fill="none" stroke="midnightblue" d="M562,-235.08C562,-228.01 562,-217.86 562,-208.99"/>
<polygon fill="midnightblue" stroke="midnightblue" points="565.5,-208.75 562,-198.75 558.5,-208.75 565.5,-208.75"/>
</g>
<!-- Node6 -->
<g id="node6" class="node">
<title>Node6</title>
<g id="a_node6"><a xlink:href="matrix_8h.html" target="_top" xlink:title=" ">
<polygon fill="white" stroke="black" points="269.5,-179.5 269.5,-198.5 396.5,-198.5 396.5,-179.5 269.5,-179.5"/>
<text text-anchor="middle" x="333" y="-186.5" font-family="Helvetica,sans-Serif" font-size="10.00">maliput/math/matrix.h</text>
</a>
</g>
</g>
<!-- Node2&#45;&gt;Node6 -->
<g id="edge5" class="edge">
<title>Node2&#45;&gt;Node6</title>
<path fill="none" stroke="midnightblue" d="M525.71,-235.44C486.02,-226.08 422.29,-211.06 379.09,-200.87"/>
<polygon fill="midnightblue" stroke="midnightblue" points="379.65,-197.41 369.12,-198.52 378.05,-204.22 379.65,-197.41"/>
</g>
<!-- Node3&#45;&gt;Node4 -->
<g id="edge3" class="edge">
<title>Node3&#45;&gt;Node4</title>
<path fill="none" stroke="midnightblue" d="M575.01,-179.32C587.53,-170.98 606.68,-158.21 621.47,-148.35"/>
<polygon fill="midnightblue" stroke="midnightblue" points="623.64,-151.11 630.02,-142.65 619.76,-145.29 623.64,-151.11"/>
</g>
<!-- Node5 -->
<g id="node5" class="node">
<title>Node5</title>
<g id="a_node5"><a xlink:title=" ">
<polygon fill="white" stroke="#bfbfbf" points="360,-0.5 360,-19.5 404,-19.5 404,-0.5 360,-0.5"/>
<text text-anchor="middle" x="382" y="-7.5" font-family="Helvetica,sans-Serif" font-size="10.00">string</text>
</a>
</g>
</g>
<!-- Node3&#45;&gt;Node5 -->
<g id="edge4" class="edge">
<title>Node3&#45;&gt;Node5</title>
<path fill="none" stroke="midnightblue" d="M563.65,-179.3C567.53,-156.09 574.62,-92.01 543,-56 510.76,-19.28 451.28,-11.4 414.34,-10.3"/>
<polygon fill="midnightblue" stroke="midnightblue" points="414.16,-6.8 404.11,-10.15 414.06,-13.8 414.16,-6.8"/>
</g>
<!-- Node6&#45;&gt;Node7 -->
<g id="edge6" class="edge">
<title>Node6&#45;&gt;Node7</title>
<path fill="none" stroke="midnightblue" d="M345.7,-179.32C374.45,-159.67 444.78,-111.61 480.47,-87.22"/>
<polygon fill="midnightblue" stroke="midnightblue" points="482.87,-89.81 489.15,-81.28 478.92,-84.03 482.87,-89.81"/>
</g>
<!-- Node8 -->
<g id="node8" class="node">
<title>Node8</title>
<g id="a_node8"><a xlink:title=" ">
<polygon fill="white" stroke="#bfbfbf" points="0,-62 0,-81 42,-81 42,-62 0,-62"/>
<text text-anchor="middle" x="21" y="-69" font-family="Helvetica,sans-Serif" font-size="10.00">array</text>
</a>
</g>
</g>
<!-- Node6&#45;&gt;Node8 -->
<g id="edge7" class="edge">
<title>Node6&#45;&gt;Node8</title>
<path fill="none" stroke="midnightblue" d="M273.61,-179.46C233.94,-172.54 181.15,-160.94 137,-143 100.73,-128.27 62.69,-102.97 40.45,-87.02"/>
<polygon fill="midnightblue" stroke="midnightblue" points="42.34,-84.07 32.2,-81.01 38.22,-89.73 42.34,-84.07"/>
</g>
<!-- Node9 -->
<g id="node9" class="node">
<title>Node9</title>
<g id="a_node9"><a xlink:title=" ">
<polygon fill="white" stroke="#bfbfbf" points="60.5,-62 60.5,-81 113.5,-81 113.5,-62 60.5,-62"/>
<text text-anchor="middle" x="87" y="-69" font-family="Helvetica,sans-Serif" font-size="10.00">cstddef</text>
</a>
</g>
</g>
<!-- Node6&#45;&gt;Node9 -->
<g id="edge8" class="edge">
<title>Node6&#45;&gt;Node9</title>
<path fill="none" stroke="midnightblue" d="M280.17,-179.47C247.16,-172.7 204.51,-161.26 170,-143 143.25,-128.84 117.5,-104.82 101.95,-88.81"/>
<polygon fill="midnightblue" stroke="midnightblue" points="104.22,-86.12 94.81,-81.26 99.14,-90.93 104.22,-86.12"/>
</g>
<!-- Node10 -->
<g id="node10" class="node">
<title>Node10</title>
<g id="a_node10"><a xlink:title=" ">
<polygon fill="white" stroke="#bfbfbf" points="290.5,-62 290.5,-81 373.5,-81 373.5,-62 290.5,-62"/>
<text text-anchor="middle" x="332" y="-69" font-family="Helvetica,sans-Serif" font-size="10.00">initializer_list</text>
</a>
</g>
</g>
<!-- Node6&#45;&gt;Node10 -->
<g id="edge9" class="edge">
<title>Node6&#45;&gt;Node10</title>
<path fill="none" stroke="midnightblue" d="M332.92,-179.32C332.76,-160.76 332.38,-116.84 332.16,-91.47"/>
<polygon fill="midnightblue" stroke="midnightblue" points="335.66,-91.25 332.08,-81.28 328.66,-91.31 335.66,-91.25"/>
</g>
<!-- Node11 -->
<g id="node11" class="node">
<title>Node11</title>
<g id="a_node11"><a xlink:title=" ">
<polygon fill="white" stroke="#bfbfbf" points="392,-62 392,-81 452,-81 452,-62 392,-62"/>
<text text-anchor="middle" x="422" y="-69" font-family="Helvetica,sans-Serif" font-size="10.00">iostream</text>
</a>
</g>
</g>
<!-- Node6&#45;&gt;Node11 -->
<g id="edge10" class="edge">
<title>Node6&#45;&gt;Node11</title>
<path fill="none" stroke="midnightblue" d="M339.69,-179.32C354.38,-160.26 389.68,-114.45 408.93,-89.46"/>
<polygon fill="midnightblue" stroke="midnightblue" points="411.9,-91.34 415.23,-81.28 406.36,-87.07 411.9,-91.34"/>
</g>
<!-- Node12 -->
<g id="node12" class="node">
<title>Node12</title>
<g id="a_node12"><a xlink:href="vector_8h.html" target="_top" xlink:title=" ">
<polygon fill="white" stroke="black" points="179.5,-123.5 179.5,-142.5 304.5,-142.5 304.5,-123.5 179.5,-123.5"/>
<text text-anchor="middle" x="242" y="-130.5" font-family="Helvetica,sans-Serif" font-size="10.00">maliput/math/vector.h</text>
</a>
</g>
</g>
<!-- Node6&#45;&gt;Node12 -->
<g id="edge11" class="edge">
<title>Node6&#45;&gt;Node12</title>
<path fill="none" stroke="midnightblue" d="M318.38,-179.32C304.05,-170.82 281.99,-157.73 265.25,-147.8"/>
<polygon fill="midnightblue" stroke="midnightblue" points="266.97,-144.75 256.58,-142.65 263.4,-150.77 266.97,-144.75"/>
</g>
<!-- Node12&#45;&gt;Node7 -->
<g id="edge12" class="edge">
<title>Node12&#45;&gt;Node7</title>
<path fill="none" stroke="midnightblue" d="M293.81,-123.43C338.49,-115.54 404.53,-102.71 461,-87 463.96,-86.18 467.01,-85.25 470.06,-84.27"/>
<polygon fill="midnightblue" stroke="midnightblue" points="471.27,-87.56 479.62,-81.04 469.03,-80.93 471.27,-87.56"/>
</g>
<!-- Node12&#45;&gt;Node8 -->
<g id="edge13" class="edge">
<title>Node12&#45;&gt;Node8</title>
<path fill="none" stroke="midnightblue" d="M192.48,-123.42C153.41,-115.92 97.88,-103.62 51,-87 49.57,-86.49 48.12,-85.94 46.66,-85.35"/>
<polygon fill="midnightblue" stroke="midnightblue" points="47.79,-82.02 37.23,-81.14 44.94,-88.41 47.79,-82.02"/>
</g>
<!-- Node12&#45;&gt;Node9 -->
<g id="edge14" class="edge">
<title>Node12&#45;&gt;Node9</title>
<path fill="none" stroke="midnightblue" d="M218.69,-123.35C194.65,-114.4 156.13,-99.93 123,-87 121.16,-86.28 119.28,-85.54 117.38,-84.79"/>
<polygon fill="midnightblue" stroke="midnightblue" points="118.49,-81.47 107.91,-81.01 115.9,-87.97 118.49,-81.47"/>
</g>
<!-- Node12&#45;&gt;Node10 -->
<g id="edge15" class="edge">
<title>Node12&#45;&gt;Node10</title>
<path fill="none" stroke="midnightblue" d="M254.89,-123.48C269.46,-113.84 293.4,-98.02 310.75,-86.55"/>
<polygon fill="midnightblue" stroke="midnightblue" points="312.72,-89.44 319.13,-81.01 308.86,-83.6 312.72,-89.44"/>
</g>
<!-- Node12&#45;&gt;Node11 -->
<g id="edge16" class="edge">
<title>Node12&#45;&gt;Node11</title>
<path fill="none" stroke="midnightblue" d="M270.22,-123.42C298.78,-114.64 344.14,-100.42 383,-87 385.25,-86.22 387.56,-85.41 389.89,-84.58"/>
<polygon fill="midnightblue" stroke="midnightblue" points="391.18,-87.83 399.38,-81.11 388.79,-81.25 391.18,-87.83"/>
</g>
<!-- Node13 -->
<g id="node13" class="node">
<title>Node13</title>
<g id="a_node13"><a xlink:href="maliput__throw_8h.html" target="_top" xlink:title=" ">
<polygon fill="white" stroke="black" points="132,-56.5 132,-86.5 272,-86.5 272,-56.5 132,-56.5"/>
<text text-anchor="start" x="140" y="-74.5" font-family="Helvetica,sans-Serif" font-size="10.00">maliput/common/maliput</text>
<text text-anchor="middle" x="202" y="-63.5" font-family="Helvetica,sans-Serif" font-size="10.00">_throw.h</text>
</a>
</g>
</g>
<!-- Node12&#45;&gt;Node13 -->
<g id="edge17" class="edge">
<title>Node12&#45;&gt;Node13</title>
<path fill="none" stroke="midnightblue" d="M236.27,-123.48C231.26,-116.02 223.75,-104.85 217.04,-94.87"/>
<polygon fill="midnightblue" stroke="midnightblue" points="219.91,-92.87 211.43,-86.52 214.1,-96.77 219.91,-92.87"/>
</g>
<!-- Node13&#45;&gt;Node5 -->
<g id="edge18" class="edge">
<title>Node13&#45;&gt;Node5</title>
<path fill="none" stroke="midnightblue" d="M244.66,-56.4C277.02,-45.7 320.8,-31.23 350.15,-21.53"/>
<polygon fill="midnightblue" stroke="midnightblue" points="351.49,-24.77 359.89,-18.31 349.3,-18.12 351.49,-24.77"/>
</g>
</g>
</svg>
        <g id="navigator" transform="translate(0 0)" fill="#404254">
                <rect fill="#f2f5e9" fill-opacity="0.5" stroke="#606060" stroke-width=".5" x="0" y="0" width="60" height="60"/>
                <use id="zoomplus" xlink:href="#zoomPlus" x="17" y="9" onmousedown="handleZoom(evt,'in')"/>
                <use id="zoomminus" xlink:href="#zoomMin" x="42" y="9" onmousedown="handleZoom(evt,'out')"/>
                <use id="reset" xlink:href="#resetDef" x="30" y="36" onmousedown="handleReset()"/>
                <g id="arrowUp" xlink:href="#dirArrow" transform="translate(30 24)" onmousedown="handlePan(0,-1)">
                  <use xlink:href="#rim" fill="#404040">
                        <set attributeName="fill" to="#808080" begin="arrowUp.mouseover" end="arrowUp.mouseout"/>
                  </use>
                  <path fill="none" stroke="white" stroke-width="1.5" d="M0,-3.0v7 M-2.5,-0.5L0,-3.0L2.5,-0.5"/>
                </g>
                <g id="arrowRight" xlink:href="#dirArrow" transform="rotate(90) translate(36 -43)" onmousedown="handlePan(1,0)">
                  <use xlink:href="#rim" fill="#404040">
                        <set attributeName="fill" to="#808080" begin="arrowRight.mouseover" end="arrowRight.mouseout"/>
                  </use>
                  <path fill="none" stroke="white" stroke-width="1.5" d="M0,-3.0v7 M-2.5,-0.5L0,-3.0L2.5,-0.5"/>
                </g>
                <g id="arrowDown" xlink:href="#dirArrow" transform="rotate(180) translate(-30 -48)" onmousedown="handlePan(0,1)">
                  <use xlink:href="#rim" fill="#404040">
                        <set attributeName="fill" to="#808080" begin="arrowDown.mouseover" end="arrowDown.mouseout"/>
                  </use>
                  <path fill="none" stroke="white" stroke-width="1.5" d="M0,-3.0v7 M-2.5,-0.5L0,-3.0L2.5,-0.5"/>
                </g>
                <g id="arrowLeft" xlink:href="#dirArrow" transform="rotate(270) translate(-36 17)" onmousedown="handlePan(-1,0)">
                  <use xlink:href="#rim" fill="#404040">
                        <set attributeName="fill" to="#808080" begin="arrowLeft.mouseover" end="arrowLeft.mouseout"/>
                  </use>
                  <path fill="none" stroke="white" stroke-width="1.5" d="M0,-3.0v7 M-2.5,-0.5L0,-3.0L2.5,-0.5"/>
                </g>
        </g>
        <svg viewBox="0 0 15 15" width="100%" height="30px" preserveAspectRatio="xMaxYMin meet">
         <g id="arrow_out" transform="scale(0.3 0.3)">
          <a xlink:href="math_2compare_8cc__incl_org.svg" target="_base">
           <rect id="button" ry="5" rx="5" y="6" x="6" height="38" width="38"
                fill="#f2f5e9" fill-opacity="0.5" stroke="#606060" stroke-width="1.0"/>
           <path id="arrow"
             d="M 11.500037,31.436501 C 11.940474,20.09759 22.043105,11.32322 32.158766,21.979434 L 37.068811,17.246167 C 37.068811,17.246167 37.088388,32 37.088388,32 L 22.160133,31.978069 C 22.160133,31.978069 26.997745,27.140456 26.997745,27.140456 C 18.528582,18.264221 13.291696,25.230495 11.500037,31.436501 z"
             style="fill:#404040;"/>
          </a>
         </g>
        </svg>
</svg>
