<?xml version="1.0" encoding="UTF-8" standalone="no"?>
<!DOCTYPE svg PUBLIC "-//W3C//DTD SVG 1.1//EN"
 "http://www.w3.org/Graphics/SVG/1.1/DTD/svg11.dtd">
<!-- Generated by graphviz version 2.43.0 (0)
 -->
<!-- Title: overlapping_type.h Pages: 1 -->
<svg width="656pt" height="420pt"
 viewBox="0.00 0.00 655.50 420.00" xmlns="http://www.w3.org/2000/svg" xmlns:xlink="http://www.w3.org/1999/xlink">
<g id="graph0" class="graph" transform="scale(1 1) rotate(0) translate(4 416)">
<title>overlapping_type.h</title>
<polygon fill="white" stroke="transparent" points="-4,4 -4,-416 651.5,-416 651.5,4 -4,4"/>
<!-- Node1 -->
<g id="node1" class="node">
<title>Node1</title>
<g id="a_node1"><a xlink:title=" ">
<polygon fill="#bfbfbf" stroke="black" points="370,-392.5 370,-411.5 480,-411.5 480,-392.5 370,-392.5"/>
<text text-anchor="middle" x="425" y="-399.5" font-family="Helvetica,sans-Serif" font-size="10.00">overlapping_type.h</text>
</a>
</g>
</g>
<!-- Node2 -->
<g id="node2" class="node">
<title>Node2</title>
<g id="a_node2"><a xlink:href="axis__aligned__box_8h.html" target="_top" xlink:title=" ">
<polygon fill="white" stroke="black" points="248,-280.5 248,-299.5 358,-299.5 358,-280.5 248,-280.5"/>
<text text-anchor="middle" x="303" y="-287.5" font-family="Helvetica,sans-Serif" font-size="10.00">axis_aligned_box.h</text>
</a>
</g>
</g>
<!-- Node1&#45;&gt;Node2 -->
<g id="edge1" class="edge">
<title>Node1&#45;&gt;Node2</title>
<path fill="none" stroke="midnightblue" d="M374.79,-389.3C355.56,-382.5 334.92,-371.99 321,-356 306.85,-339.75 303.74,-313.28 303.11,-299.68"/>
<polygon fill="midnightblue" stroke="midnightblue" points="373.78,-392.65 384.37,-392.44 375.96,-386 373.78,-392.65"/>
</g>
<!-- Node3 -->
<g id="node3" class="node">
<title>Node3</title>
<g id="a_node3"><a xlink:href="kd__tree_8h.html" target="_top" xlink:title=" ">
<polygon fill="white" stroke="black" points="166,-224.5 166,-243.5 228,-243.5 228,-224.5 166,-224.5"/>
<text text-anchor="middle" x="197" y="-231.5" font-family="Helvetica,sans-Serif" font-size="10.00">kd_tree.h</text>
</a>
</g>
</g>
<!-- Node1&#45;&gt;Node3 -->
<g id="edge17" class="edge">
<title>Node1&#45;&gt;Node3</title>
<path fill="none" stroke="midnightblue" d="M385.02,-389.35C361.45,-381.62 331.55,-370.27 307,-356 273.15,-336.32 265.04,-329.23 239,-300 222.73,-281.74 208.37,-256.59 201.42,-243.58"/>
<polygon fill="midnightblue" stroke="midnightblue" points="384.1,-392.73 394.69,-392.44 386.23,-386.06 384.1,-392.73"/>
</g>
<!-- Node11 -->
<g id="node11" class="node">
<title>Node11</title>
<g id="a_node11"><a xlink:href="bounding__box_8h.html" target="_top" xlink:title=" ">
<polygon fill="white" stroke="black" points="382,-280.5 382,-299.5 476,-299.5 476,-280.5 382,-280.5"/>
<text text-anchor="middle" x="429" y="-287.5" font-family="Helvetica,sans-Serif" font-size="10.00">bounding_box.h</text>
</a>
</g>
</g>
<!-- Node1&#45;&gt;Node11 -->
<g id="edge11" class="edge">
<title>Node1&#45;&gt;Node11</title>
<path fill="none" stroke="midnightblue" d="M435.28,-383.63C439.49,-375.52 443.88,-365.57 446,-356 450.5,-335.73 440.52,-312.22 434.03,-299.78"/>
<polygon fill="midnightblue" stroke="midnightblue" points="432.18,-382 430.38,-392.44 438.3,-385.4 432.18,-382"/>
</g>
<!-- Node12 -->
<g id="node12" class="node">
<title>Node12</title>
<g id="a_node12"><a xlink:href="mock__math_8h.html" target="_top" xlink:title=" ">
<polygon fill="white" stroke="black" points="496.5,-224.5 496.5,-243.5 579.5,-243.5 579.5,-224.5 496.5,-224.5"/>
<text text-anchor="middle" x="538" y="-231.5" font-family="Helvetica,sans-Serif" font-size="10.00">mock_math.h</text>
</a>
</g>
</g>
<!-- Node1&#45;&gt;Node12 -->
<g id="edge18" class="edge">
<title>Node1&#45;&gt;Node12</title>
<path fill="none" stroke="midnightblue" d="M438.99,-384.4C445.84,-376.05 454.09,-365.66 461,-356 490.11,-315.29 520.98,-263.91 532.9,-243.72"/>
<polygon fill="midnightblue" stroke="midnightblue" points="436.16,-382.33 432.46,-392.26 441.54,-386.8 436.16,-382.33"/>
</g>
<!-- Node14 -->
<g id="node14" class="node">
<title>Node14</title>
<g id="a_node14"><a xlink:href="bounding__region_8h.html" target="_top" xlink:title=" ">
<polygon fill="white" stroke="black" points="330.5,-336.5 330.5,-355.5 437.5,-355.5 437.5,-336.5 330.5,-336.5"/>
<text text-anchor="middle" x="384" y="-343.5" font-family="Helvetica,sans-Serif" font-size="10.00">bounding_region.h</text>
</a>
</g>
</g>
<!-- Node1&#45;&gt;Node14 -->
<g id="edge14" class="edge">
<title>Node1&#45;&gt;Node14</title>
<path fill="none" stroke="midnightblue" d="M411.98,-383.86C404.88,-374.5 396.4,-363.33 390.64,-355.75"/>
<polygon fill="midnightblue" stroke="midnightblue" points="409.39,-386.24 418.23,-392.08 414.97,-382 409.39,-386.24"/>
</g>
<!-- Node15 -->
<g id="node15" class="node">
<title>Node15</title>
<g id="a_node15"><a xlink:href="overlapping__type_8cc.html" target="_top" xlink:title=" ">
<polygon fill="white" stroke="black" points="532.5,-336.5 532.5,-355.5 647.5,-355.5 647.5,-336.5 532.5,-336.5"/>
<text text-anchor="middle" x="590" y="-343.5" font-family="Helvetica,sans-Serif" font-size="10.00">overlapping_type.cc</text>
</a>
</g>
</g>
<!-- Node1&#45;&gt;Node15 -->
<g id="edge19" class="edge">
<title>Node1&#45;&gt;Node15</title>
<path fill="none" stroke="midnightblue" d="M460.74,-389.3C491.83,-379.13 536.15,-364.62 563.98,-355.52"/>
<polygon fill="midnightblue" stroke="midnightblue" points="459.56,-386.01 451.14,-392.44 461.74,-392.66 459.56,-386.01"/>
</g>
<!-- Node2&#45;&gt;Node3 -->
<g id="edge2" class="edge">
<title>Node2&#45;&gt;Node3</title>
<path fill="none" stroke="midnightblue" d="M276.94,-275.73C257.32,-265.73 230.97,-252.31 213.99,-243.65"/>
<polygon fill="midnightblue" stroke="midnightblue" points="275.47,-278.9 285.97,-280.32 278.65,-272.67 275.47,-278.9"/>
</g>
<!-- Node10 -->
<g id="node10" class="node">
<title>Node10</title>
<g id="a_node10"><a xlink:href="axis__aligned__box_8cc.html" target="_top" xlink:title=" ">
<polygon fill="white" stroke="black" points="246.5,-224.5 246.5,-243.5 361.5,-243.5 361.5,-224.5 246.5,-224.5"/>
<text text-anchor="middle" x="304" y="-231.5" font-family="Helvetica,sans-Serif" font-size="10.00">axis_aligned_box.cc</text>
</a>
</g>
</g>
<!-- Node2&#45;&gt;Node10 -->
<g id="edge10" class="edge">
<title>Node2&#45;&gt;Node10</title>
<path fill="none" stroke="midnightblue" d="M303.36,-269.8C303.52,-260.91 303.71,-250.78 303.84,-243.75"/>
<polygon fill="midnightblue" stroke="midnightblue" points="299.85,-270.02 303.17,-280.08 306.85,-270.15 299.85,-270.02"/>
</g>
<!-- Node4 -->
<g id="node4" class="node">
<title>Node4</title>
<g id="a_node4"><a xlink:href="kd__tree__strategy_8h.html" target="_top" xlink:title=" ">
<polygon fill="white" stroke="black" points="102.5,-168.5 102.5,-187.5 209.5,-187.5 209.5,-168.5 102.5,-168.5"/>
<text text-anchor="middle" x="156" y="-175.5" font-family="Helvetica,sans-Serif" font-size="10.00">kd_tree_strategy.h</text>
</a>
</g>
</g>
<!-- Node3&#45;&gt;Node4 -->
<g id="edge3" class="edge">
<title>Node3&#45;&gt;Node4</title>
<path fill="none" stroke="midnightblue" d="M183.98,-215.86C176.88,-206.5 168.4,-195.33 162.64,-187.75"/>
<polygon fill="midnightblue" stroke="midnightblue" points="181.39,-218.24 190.23,-224.08 186.97,-214 181.39,-218.24"/>
</g>
<!-- Node9 -->
<g id="node9" class="node">
<title>Node9</title>
<g id="a_node9"><a xlink:href="kd__tree__strategy_8cc.html" target="_top" xlink:title=" ">
<polygon fill="white" stroke="black" points="182.5,-112.5 182.5,-131.5 293.5,-131.5 293.5,-112.5 182.5,-112.5"/>
<text text-anchor="middle" x="238" y="-119.5" font-family="Helvetica,sans-Serif" font-size="10.00">kd_tree_strategy.cc</text>
</a>
</g>
</g>
<!-- Node3&#45;&gt;Node9 -->
<g id="edge9" class="edge">
<title>Node3&#45;&gt;Node9</title>
<path fill="none" stroke="midnightblue" d="M206.11,-214.97C210.04,-206.84 214.51,-197.05 218,-188 225.64,-168.17 232.42,-144.09 235.78,-131.54"/>
<polygon fill="midnightblue" stroke="midnightblue" points="202.85,-213.68 201.55,-224.19 209.12,-216.78 202.85,-213.68"/>
</g>
<!-- Node5 -->
<g id="node5" class="node">
<title>Node5</title>
<g id="a_node5"><a xlink:href="geometry__base_2road__geometry_8h.html" target="_top" xlink:title=" ">
<polygon fill="white" stroke="black" points="66,-112.5 66,-131.5 164,-131.5 164,-112.5 66,-112.5"/>
<text text-anchor="middle" x="115" y="-119.5" font-family="Helvetica,sans-Serif" font-size="10.00">road_geometry.h</text>
</a>
</g>
</g>
<!-- Node4&#45;&gt;Node5 -->
<g id="edge4" class="edge">
<title>Node4&#45;&gt;Node5</title>
<path fill="none" stroke="midnightblue" d="M142.98,-159.86C135.88,-150.5 127.4,-139.33 121.64,-131.75"/>
<polygon fill="midnightblue" stroke="midnightblue" points="140.39,-162.24 149.23,-168.08 145.97,-158 140.39,-162.24"/>
</g>
<!-- Node4&#45;&gt;Node9 -->
<g id="edge8" class="edge">
<title>Node4&#45;&gt;Node9</title>
<path fill="none" stroke="midnightblue" d="M177.83,-162.62C192.81,-152.76 212.2,-139.99 224.86,-131.65"/>
<polygon fill="midnightblue" stroke="midnightblue" points="175.6,-159.9 169.17,-168.32 179.45,-165.75 175.6,-159.9"/>
</g>
<!-- Node6 -->
<g id="node6" class="node">
<title>Node6</title>
<g id="a_node6"><a xlink:href="mock__geometry_8h.html" target="_top" xlink:title=" ">
<polygon fill="white" stroke="black" points="2,-56.5 2,-75.5 106,-75.5 106,-56.5 2,-56.5"/>
<text text-anchor="middle" x="54" y="-63.5" font-family="Helvetica,sans-Serif" font-size="10.00">mock_geometry.h</text>
</a>
</g>
</g>
<!-- Node5&#45;&gt;Node6 -->
<g id="edge5" class="edge">
<title>Node5&#45;&gt;Node6</title>
<path fill="none" stroke="midnightblue" d="M97.53,-105.54C86.66,-95.91 73.06,-83.87 63.98,-75.83"/>
<polygon fill="midnightblue" stroke="midnightblue" points="95.39,-108.32 105.2,-112.32 100.03,-103.07 95.39,-108.32"/>
</g>
<!-- Node8 -->
<g id="node8" class="node">
<title>Node8</title>
<g id="a_node8"><a xlink:href="geometry__base_2road__geometry_8cc.html" target="_top" xlink:title=" ">
<polygon fill="white" stroke="black" points="124.5,-56.5 124.5,-75.5 227.5,-75.5 227.5,-56.5 124.5,-56.5"/>
<text text-anchor="middle" x="176" y="-63.5" font-family="Helvetica,sans-Serif" font-size="10.00">road_geometry.cc</text>
</a>
</g>
</g>
<!-- Node5&#45;&gt;Node8 -->
<g id="edge7" class="edge">
<title>Node5&#45;&gt;Node8</title>
<path fill="none" stroke="midnightblue" d="M132.47,-105.54C143.34,-95.91 156.94,-83.87 166.02,-75.83"/>
<polygon fill="midnightblue" stroke="midnightblue" points="129.97,-103.07 124.8,-112.32 134.61,-108.32 129.97,-103.07"/>
</g>
<!-- Node7 -->
<g id="node7" class="node">
<title>Node7</title>
<g id="a_node7"><a xlink:href="mock__geometry_8cc.html" target="_top" xlink:title=" ">
<polygon fill="white" stroke="black" points="0,-0.5 0,-19.5 108,-19.5 108,-0.5 0,-0.5"/>
<text text-anchor="middle" x="54" y="-7.5" font-family="Helvetica,sans-Serif" font-size="10.00">mock_geometry.cc</text>
</a>
</g>
</g>
<!-- Node6&#45;&gt;Node7 -->
<g id="edge6" class="edge">
<title>Node6&#45;&gt;Node7</title>
<path fill="none" stroke="midnightblue" d="M54,-45.8C54,-36.91 54,-26.78 54,-19.75"/>
<polygon fill="midnightblue" stroke="midnightblue" points="50.5,-46.08 54,-56.08 57.5,-46.08 50.5,-46.08"/>
</g>
<!-- Node11&#45;&gt;Node12 -->
<g id="edge12" class="edge">
<title>Node11&#45;&gt;Node12</title>
<path fill="none" stroke="midnightblue" d="M455.52,-275.86C475.73,-265.85 502.99,-252.35 520.53,-243.65"/>
<polygon fill="midnightblue" stroke="midnightblue" points="453.92,-272.75 446.51,-280.32 457.03,-279.02 453.92,-272.75"/>
</g>
<!-- Node13 -->
<g id="node13" class="node">
<title>Node13</title>
<g id="a_node13"><a xlink:href="bounding__box_8cc.html" target="_top" xlink:title=" ">
<polygon fill="white" stroke="black" points="380,-224.5 380,-243.5 478,-243.5 478,-224.5 380,-224.5"/>
<text text-anchor="middle" x="429" y="-231.5" font-family="Helvetica,sans-Serif" font-size="10.00">bounding_box.cc</text>
</a>
</g>
</g>
<!-- Node11&#45;&gt;Node13 -->
<g id="edge13" class="edge">
<title>Node11&#45;&gt;Node13</title>
<path fill="none" stroke="midnightblue" d="M429,-269.8C429,-260.91 429,-250.78 429,-243.75"/>
<polygon fill="midnightblue" stroke="midnightblue" points="425.5,-270.08 429,-280.08 432.5,-270.08 425.5,-270.08"/>
</g>
<!-- Node14&#45;&gt;Node2 -->
<g id="edge15" class="edge">
<title>Node14&#45;&gt;Node2</title>
<path fill="none" stroke="midnightblue" d="M362.43,-330.62C347.64,-320.76 328.49,-307.99 315.98,-299.65"/>
<polygon fill="midnightblue" stroke="midnightblue" points="360.72,-333.69 370.99,-336.32 364.61,-327.86 360.72,-333.69"/>
</g>
<!-- Node14&#45;&gt;Node11 -->
<g id="edge16" class="edge">
<title>Node14&#45;&gt;Node11</title>
<path fill="none" stroke="midnightblue" d="M398.05,-328.14C405.89,-318.74 415.33,-307.4 421.71,-299.75"/>
<polygon fill="midnightblue" stroke="midnightblue" points="395.14,-326.16 391.43,-336.08 400.52,-330.64 395.14,-326.16"/>
</g>
</g>
</svg>
