<?xml version="1.0" encoding="UTF-8" standalone="no"?>
<!DOCTYPE svg PUBLIC "-//W3C//DTD SVG 1.1//EN"
 "http://www.w3.org/Graphics/SVG/1.1/DTD/svg11.dtd">
<!-- Generated by graphviz version 2.43.0 (0)
 -->
<!-- Title: phase_provider.h Pages: 1 -->
<!--zoomable 386 -->
<svg id="main" version="1.1" xmlns="http://www.w3.org/2000/svg" xmlns:xlink="http://www.w3.org/1999/xlink" xml:space="preserve" onload="init(evt)">
<style type="text/css"><![CDATA[
.edge:hover path { stroke: red; }
.edge:hover polygon { stroke: red; fill: red; }
]]></style>
<script type="text/javascript"><![CDATA[
var edges = document.getElementsByTagName('g');
if (edges && edges.length) {
  for (var i=0;i<edges.length;i++) {
    if (edges[i].id.substr(0,4)=='edge') {
      edges[i].setAttribute('class','edge');
    }
  }
}
]]></script>
        <defs>
                <circle id="rim" cx="0" cy="0" r="7"/>
                <circle id="rim2" cx="0" cy="0" r="3.5"/>
                <g id="zoomPlus">
                        <use xlink:href="#rim" fill="#404040">
                                <set attributeName="fill" to="#808080" begin="zoomplus.mouseover" end="zoomplus.mouseout"/>
                        </use>
                        <path d="M-4,0h8M0,-4v8" fill="none" stroke="white" stroke-width="1.5" pointer-events="none"/>
                </g>
                <g id="zoomMin">
                        <use xlink:href="#rim" fill="#404040">
                                <set attributeName="fill" to="#808080" begin="zoomminus.mouseover" end="zoomminus.mouseout"/>
                        </use>
                        <path d="M-4,0h8" fill="none" stroke="white" stroke-width="1.5" pointer-events="none"/>
                </g>
                <g id="dirArrow">
                        <path fill="none" stroke="white" stroke-width="1.5" d="M0,-3.0v7 M-2.5,-0.5L0,-3.0L2.5,-0.5"/>
                </g>
               <g id="resetDef">
                       <use xlink:href="#rim2" fill="#404040">
                               <set attributeName="fill" to="#808080" begin="reset.mouseover" end="reset.mouseout"/>
                       </use>
               </g>
        </defs>

<script type="text/javascript">
var viewWidth = 1625;
var viewHeight = 386;
var sectionId = 'dynsection-1';
</script>
<script xlink:href="svgpan.js"/>
<svg id="graph" class="graph">
<g id="viewport">
<title>phase_provider.h</title>
<polygon fill="white" stroke="transparent" points="-4,4 -4,-382 1621.14,-382 1621.14,4 -4,4"/>
<!-- Node1 -->
<g id="node1" class="node">
<title>Node1</title>
<g id="a_node1"><a xlink:title=" ">
<polygon fill="#bfbfbf" stroke="black" points="1080.64,-358.5 1080.64,-377.5 1181.64,-377.5 1181.64,-358.5 1080.64,-358.5"/>
<text text-anchor="middle" x="1131.14" y="-365.5" font-family="Helvetica,sans-Serif" font-size="10.00">phase_provider.h</text>
</a>
</g>
</g>
<!-- Node2 -->
<g id="node2" class="node">
<title>Node2</title>
<g id="a_node2"><a xlink:href="api_2intersection_8h.html" target="_top" xlink:title=" ">
<polygon fill="white" stroke="black" points="913.64,-297 913.64,-316 996.64,-316 996.64,-297 913.64,-297"/>
<text text-anchor="middle" x="955.14" y="-304" font-family="Helvetica,sans-Serif" font-size="10.00">intersection.h</text>
</a>
</g>
</g>
<!-- Node1&#45;&gt;Node2 -->
<g id="edge1" class="edge">
<title>Node1&#45;&gt;Node2</title>
<path fill="none" stroke="midnightblue" d="M1096.33,-355.23C1062.12,-343.67 1010.74,-326.3 980.31,-316.01"/>
<polygon fill="midnightblue" stroke="midnightblue" points="1095.33,-358.59 1105.92,-358.48 1097.57,-351.96 1095.33,-358.59"/>
</g>
<!-- Node4 -->
<g id="node4" class="node">
<title>Node4</title>
<g id="a_node4"><a xlink:href="road__network_8h.html" target="_top" xlink:title=" ">
<polygon fill="white" stroke="black" points="394.14,-168.5 394.14,-187.5 486.14,-187.5 486.14,-168.5 394.14,-168.5"/>
<text text-anchor="middle" x="440.14" y="-175.5" font-family="Helvetica,sans-Serif" font-size="10.00">road_network.h</text>
</a>
</g>
</g>
<!-- Node1&#45;&gt;Node4 -->
<g id="edge38" class="edge">
<title>Node1&#45;&gt;Node4</title>
<path fill="none" stroke="midnightblue" d="M1070.34,-364.7C961.27,-360 736.84,-347.49 663.14,-322 571.43,-290.28 479.41,-213.7 449.89,-187.76"/>
<polygon fill="midnightblue" stroke="midnightblue" points="1070.39,-368.21 1080.53,-365.14 1070.69,-361.22 1070.39,-368.21"/>
</g>
<!-- Node15 -->
<g id="node15" class="node">
<title>Node15</title>
<g id="a_node15"><a xlink:href="mock_8h.html" target="_top" xlink:title=" ">
<polygon fill="white" stroke="black" points="750.64,-112.5 750.64,-131.5 803.64,-131.5 803.64,-112.5 750.64,-112.5"/>
<text text-anchor="middle" x="777.14" y="-119.5" font-family="Helvetica,sans-Serif" font-size="10.00">mock.h</text>
</a>
</g>
</g>
<!-- Node1&#45;&gt;Node15 -->
<g id="edge48" class="edge">
<title>Node1&#45;&gt;Node15</title>
<path fill="none" stroke="midnightblue" d="M1070.29,-360.71C961.31,-348.03 740.07,-315.3 696.14,-255 663.84,-210.67 734.46,-153.17 764.47,-131.64"/>
<polygon fill="midnightblue" stroke="midnightblue" points="1070.15,-364.22 1080.48,-361.88 1070.94,-357.26 1070.15,-364.22"/>
</g>
<!-- Node26 -->
<g id="node26" class="node">
<title>Node26</title>
<g id="a_node26"><a xlink:href="base_2intersection_8h.html" target="_top" xlink:title=" ">
<polygon fill="white" stroke="black" points="1222.64,-230 1222.64,-249 1305.64,-249 1305.64,-230 1222.64,-230"/>
<text text-anchor="middle" x="1264.14" y="-237" font-family="Helvetica,sans-Serif" font-size="10.00">intersection.h</text>
</a>
</g>
</g>
<!-- Node1&#45;&gt;Node26 -->
<g id="edge39" class="edge">
<title>Node1&#45;&gt;Node26</title>
<path fill="none" stroke="midnightblue" d="M1161.75,-354.11C1177.7,-346.39 1196.8,-335.45 1211.14,-322 1234.78,-299.83 1252.77,-265.07 1260.29,-249.08"/>
<polygon fill="midnightblue" stroke="midnightblue" points="1159.9,-351.11 1152.31,-358.5 1162.85,-357.46 1159.9,-351.11"/>
</g>
<!-- Node29 -->
<g id="node29" class="node">
<title>Node29</title>
<g id="a_node29"><a xlink:href="manual__phase__provider_8h.html" target="_top" xlink:title=" ">
<polygon fill="white" stroke="black" points="1059.64,-297 1059.64,-316 1202.64,-316 1202.64,-297 1059.64,-297"/>
<text text-anchor="middle" x="1131.14" y="-304" font-family="Helvetica,sans-Serif" font-size="10.00">manual_phase_provider.h</text>
</a>
</g>
</g>
<!-- Node1&#45;&gt;Node29 -->
<g id="edge40" class="edge">
<title>Node1&#45;&gt;Node29</title>
<path fill="none" stroke="midnightblue" d="M1131.14,-348.32C1131.14,-337.5 1131.14,-324.4 1131.14,-316.01"/>
<polygon fill="midnightblue" stroke="midnightblue" points="1127.64,-348.48 1131.14,-358.48 1134.64,-348.48 1127.64,-348.48"/>
</g>
<!-- Node31 -->
<g id="node31" class="node">
<title>Node31</title>
<g id="a_node31"><a xlink:href="phase__based__right__of__way__rule__state__provider_8h.html" target="_top" xlink:title=" ">
<polygon fill="white" stroke="black" points="1300.64,-291.5 1300.64,-321.5 1451.64,-321.5 1451.64,-291.5 1300.64,-291.5"/>
<text text-anchor="start" x="1308.64" y="-309.5" font-family="Helvetica,sans-Serif" font-size="10.00">phase_based_right_of</text>
<text text-anchor="middle" x="1376.14" y="-298.5" font-family="Helvetica,sans-Serif" font-size="10.00">_way_rule_state_provider.h</text>
</a>
</g>
</g>
<!-- Node1&#45;&gt;Node31 -->
<g id="edge44" class="edge">
<title>Node1&#45;&gt;Node31</title>
<path fill="none" stroke="midnightblue" d="M1175.99,-356.11C1216.02,-346.39 1274.87,-332.1 1318.4,-321.52"/>
<polygon fill="midnightblue" stroke="midnightblue" points="1175.13,-352.71 1166.24,-358.48 1176.79,-359.52 1175.13,-352.71"/>
</g>
<!-- Node33 -->
<g id="node33" class="node">
<title>Node33</title>
<g id="a_node33"><a xlink:href="phased__discrete__rule__state__provider_8h.html" target="_top" xlink:title=" ">
<polygon fill="white" stroke="black" points="1483.14,-291.5 1483.14,-321.5 1603.14,-321.5 1603.14,-291.5 1483.14,-291.5"/>
<text text-anchor="start" x="1491.14" y="-309.5" font-family="Helvetica,sans-Serif" font-size="10.00">phased_discrete_rule</text>
<text text-anchor="middle" x="1543.14" y="-298.5" font-family="Helvetica,sans-Serif" font-size="10.00">_state_provider.h</text>
</a>
</g>
</g>
<!-- Node1&#45;&gt;Node33 -->
<g id="edge46" class="edge">
<title>Node1&#45;&gt;Node33</title>
<path fill="none" stroke="midnightblue" d="M1192.09,-359.42C1258.4,-351 1367.47,-336.66 1461.14,-322 1468.14,-320.9 1475.46,-319.7 1482.73,-318.46"/>
<polygon fill="midnightblue" stroke="midnightblue" points="1191.31,-355.99 1181.83,-360.72 1192.19,-362.94 1191.31,-355.99"/>
</g>
<!-- Node3 -->
<g id="node3" class="node">
<title>Node3</title>
<g id="a_node3"><a xlink:href="api_2intersection__book_8h.html" target="_top" xlink:title=" ">
<polygon fill="white" stroke="black" points="705.64,-230 705.64,-249 818.64,-249 818.64,-230 705.64,-230"/>
<text text-anchor="middle" x="762.14" y="-237" font-family="Helvetica,sans-Serif" font-size="10.00">intersection_book.h</text>
</a>
</g>
</g>
<!-- Node2&#45;&gt;Node3 -->
<g id="edge2" class="edge">
<title>Node2&#45;&gt;Node3</title>
<path fill="none" stroke="midnightblue" d="M919.81,-293.6C881.54,-280.71 821.44,-260.47 787.57,-249.06"/>
<polygon fill="midnightblue" stroke="midnightblue" points="918.92,-296.99 929.51,-296.87 921.15,-290.36 918.92,-296.99"/>
</g>
<!-- Node16 -->
<g id="node16" class="node">
<title>Node16</title>
<g id="a_node16"><a xlink:href="mock_8cc.html" target="_top" xlink:title=" ">
<polygon fill="white" stroke="black" points="818.64,-56.5 818.64,-75.5 875.64,-75.5 875.64,-56.5 818.64,-56.5"/>
<text text-anchor="middle" x="847.14" y="-63.5" font-family="Helvetica,sans-Serif" font-size="10.00">mock.cc</text>
</a>
</g>
</g>
<!-- Node2&#45;&gt;Node16 -->
<g id="edge37" class="edge">
<title>Node2&#45;&gt;Node16</title>
<path fill="none" stroke="midnightblue" d="M916.75,-293.19C898.38,-285.26 877.87,-273 866.14,-255 827.8,-196.19 840.28,-104.33 845.41,-75.77"/>
<polygon fill="midnightblue" stroke="midnightblue" points="915.52,-296.47 926.11,-296.95 918.13,-289.97 915.52,-296.47"/>
</g>
<!-- Node22 -->
<g id="node22" class="node">
<title>Node22</title>
<g id="a_node22"><a xlink:href="base_2intersection__book_8h.html" target="_top" xlink:title=" ">
<polygon fill="white" stroke="black" points="877.64,-168.5 877.64,-187.5 990.64,-187.5 990.64,-168.5 877.64,-168.5"/>
<text text-anchor="middle" x="934.14" y="-175.5" font-family="Helvetica,sans-Serif" font-size="10.00">intersection_book.h</text>
</a>
</g>
</g>
<!-- Node2&#45;&gt;Node22 -->
<g id="edge35" class="edge">
<title>Node2&#45;&gt;Node22</title>
<path fill="none" stroke="midnightblue" d="M964.49,-287.5C971.91,-270.71 979.87,-245.13 972.14,-224 966.73,-209.21 954.08,-195.93 944.85,-187.7"/>
<polygon fill="midnightblue" stroke="midnightblue" points="961.24,-286.17 960.08,-296.71 967.55,-289.2 961.24,-286.17"/>
</g>
<!-- Node2&#45;&gt;Node26 -->
<g id="edge32" class="edge">
<title>Node2&#45;&gt;Node26</title>
<path fill="none" stroke="midnightblue" d="M1006.97,-296.67C1059.26,-287.46 1142.19,-272 1213.14,-255 1220.48,-253.24 1228.35,-251.12 1235.66,-249.05"/>
<polygon fill="midnightblue" stroke="midnightblue" points="1006.17,-293.26 996.93,-298.43 1007.38,-300.15 1006.17,-293.26"/>
</g>
<!-- Node28 -->
<g id="node28" class="node">
<title>Node28</title>
<g id="a_node28"><a xlink:href="api_2intersection_8cc.html" target="_top" xlink:title=" ">
<polygon fill="white" stroke="black" points="875.14,-230 875.14,-249 963.14,-249 963.14,-230 875.14,-230"/>
<text text-anchor="middle" x="919.14" y="-237" font-family="Helvetica,sans-Serif" font-size="10.00">intersection.cc</text>
</a>
</g>
</g>
<!-- Node2&#45;&gt;Node28 -->
<g id="edge36" class="edge">
<title>Node2&#45;&gt;Node28</title>
<path fill="none" stroke="midnightblue" d="M945.26,-287.66C938.32,-275.13 929.34,-258.91 923.92,-249.13"/>
<polygon fill="midnightblue" stroke="midnightblue" points="942.38,-289.68 950.28,-296.73 948.5,-286.29 942.38,-289.68"/>
</g>
<!-- Node3&#45;&gt;Node4 -->
<g id="edge3" class="edge">
<title>Node3&#45;&gt;Node4</title>
<path fill="none" stroke="midnightblue" d="M705.95,-228.12C643.59,-216.59 544.13,-198.22 486.19,-187.51"/>
<polygon fill="midnightblue" stroke="midnightblue" points="705.54,-231.6 716.01,-229.98 706.81,-224.72 705.54,-231.6"/>
</g>
<!-- Node3&#45;&gt;Node15 -->
<g id="edge31" class="edge">
<title>Node3&#45;&gt;Node15</title>
<path fill="none" stroke="midnightblue" d="M764.59,-219.66C767.87,-194.37 773.58,-150.44 776,-131.78"/>
<polygon fill="midnightblue" stroke="midnightblue" points="761.08,-219.45 763.27,-229.82 768.03,-220.35 761.08,-219.45"/>
</g>
<!-- Node3&#45;&gt;Node22 -->
<g id="edge26" class="edge">
<title>Node3&#45;&gt;Node22</title>
<path fill="none" stroke="midnightblue" d="M796.59,-226.58C830.02,-215.02 879.93,-197.75 909.54,-187.51"/>
<polygon fill="midnightblue" stroke="midnightblue" points="795.09,-223.4 786.78,-229.98 797.38,-230.01 795.09,-223.4"/>
</g>
<!-- Node25 -->
<g id="node25" class="node">
<title>Node25</title>
<g id="a_node25"><a xlink:href="intersection__book__loader_8h.html" target="_top" xlink:title=" ">
<polygon fill="white" stroke="black" points="1008.64,-168.5 1008.64,-187.5 1157.64,-187.5 1157.64,-168.5 1008.64,-168.5"/>
<text text-anchor="middle" x="1083.14" y="-175.5" font-family="Helvetica,sans-Serif" font-size="10.00">intersection_book_loader.h</text>
</a>
</g>
</g>
<!-- Node3&#45;&gt;Node25 -->
<g id="edge29" class="edge">
<title>Node3&#45;&gt;Node25</title>
<path fill="none" stroke="midnightblue" d="M818.16,-228.12C880.32,-216.59 979.47,-198.22 1037.23,-187.51"/>
<polygon fill="midnightblue" stroke="midnightblue" points="817.33,-224.71 808.13,-229.98 818.6,-231.59 817.33,-224.71"/>
</g>
<!-- Node5 -->
<g id="node5" class="node">
<title>Node5</title>
<g id="a_node5"><a xlink:href="road__network__validator_8h.html" target="_top" xlink:title=" ">
<polygon fill="white" stroke="black" points="369.64,-112.5 369.64,-131.5 510.64,-131.5 510.64,-112.5 369.64,-112.5"/>
<text text-anchor="middle" x="440.14" y="-119.5" font-family="Helvetica,sans-Serif" font-size="10.00">road_network_validator.h</text>
</a>
</g>
</g>
<!-- Node4&#45;&gt;Node5 -->
<g id="edge4" class="edge">
<title>Node4&#45;&gt;Node5</title>
<path fill="none" stroke="midnightblue" d="M440.14,-157.8C440.14,-148.91 440.14,-138.78 440.14,-131.75"/>
<polygon fill="midnightblue" stroke="midnightblue" points="436.64,-158.08 440.14,-168.08 443.64,-158.08 436.64,-158.08"/>
</g>
<!-- Node7 -->
<g id="node7" class="node">
<title>Node7</title>
<g id="a_node7"><a xlink:href="create__road__network_8h.html" target="_top" xlink:title=" ">
<polygon fill="white" stroke="black" points="214.14,-56.5 214.14,-75.5 342.14,-75.5 342.14,-56.5 214.14,-56.5"/>
<text text-anchor="middle" x="278.14" y="-63.5" font-family="Helvetica,sans-Serif" font-size="10.00">create_road_network.h</text>
</a>
</g>
</g>
<!-- Node4&#45;&gt;Node7 -->
<g id="edge6" class="edge">
<title>Node4&#45;&gt;Node7</title>
<path fill="none" stroke="midnightblue" d="M413.88,-163.58C397.96,-155.12 377.45,-143.62 360.14,-132 332.69,-113.57 302.83,-88.49 287.85,-75.53"/>
<polygon fill="midnightblue" stroke="midnightblue" points="412.65,-166.89 423.13,-168.44 415.9,-160.69 412.65,-166.89"/>
</g>
<!-- Node9 -->
<g id="node9" class="node">
<title>Node9</title>
<g id="a_node9"><a xlink:href="road__network__loader_8h.html" target="_top" xlink:title=" ">
<polygon fill="white" stroke="black" points="185.14,-112.5 185.14,-131.5 313.14,-131.5 313.14,-112.5 185.14,-112.5"/>
<text text-anchor="middle" x="249.14" y="-119.5" font-family="Helvetica,sans-Serif" font-size="10.00">road_network_loader.h</text>
</a>
</g>
</g>
<!-- Node4&#45;&gt;Node9 -->
<g id="edge8" class="edge">
<title>Node4&#45;&gt;Node9</title>
<path fill="none" stroke="midnightblue" d="M400.17,-165.7C364.12,-155.51 311.9,-140.74 279.26,-131.52"/>
<polygon fill="midnightblue" stroke="midnightblue" points="399.3,-169.09 409.88,-168.44 401.2,-162.35 399.3,-169.09"/>
</g>
<!-- Node10 -->
<g id="node10" class="node">
<title>Node10</title>
<g id="a_node10"><a xlink:href="routing_2phase_8h.html" target="_top" xlink:title=" ">
<polygon fill="white" stroke="black" points="73.64,-112.5 73.64,-131.5 128.64,-131.5 128.64,-112.5 73.64,-112.5"/>
<text text-anchor="middle" x="101.14" y="-119.5" font-family="Helvetica,sans-Serif" font-size="10.00">phase.h</text>
</a>
</g>
</g>
<!-- Node4&#45;&gt;Node10 -->
<g id="edge10" class="edge">
<title>Node4&#45;&gt;Node10</title>
<path fill="none" stroke="midnightblue" d="M383.95,-169.52C324.1,-161.32 226.67,-147.26 143.14,-132 138.44,-131.14 133.47,-130.15 128.65,-129.15"/>
<polygon fill="midnightblue" stroke="midnightblue" points="383.57,-173 393.95,-170.89 384.52,-166.07 383.57,-173"/>
</g>
<!-- Node11 -->
<g id="node11" class="node">
<title>Node11</title>
<g id="a_node11"><a xlink:href="route_8h.html" target="_top" xlink:title=" ">
<polygon fill="white" stroke="black" points="131.64,-56.5 131.64,-75.5 182.64,-75.5 182.64,-56.5 131.64,-56.5"/>
<text text-anchor="middle" x="157.14" y="-63.5" font-family="Helvetica,sans-Serif" font-size="10.00">route.h</text>
</a>
</g>
</g>
<!-- Node4&#45;&gt;Node11 -->
<g id="edge16" class="edge">
<title>Node4&#45;&gt;Node11</title>
<path fill="none" stroke="midnightblue" d="M383.92,-174.28C315.72,-169.85 206.11,-158.69 176.14,-132 159.81,-117.46 157.18,-89.73 156.96,-75.66"/>
<polygon fill="midnightblue" stroke="midnightblue" points="383.89,-177.79 394.08,-174.91 384.32,-170.8 383.89,-177.79"/>
</g>
<!-- Node12 -->
<g id="node12" class="node">
<title>Node12</title>
<g id="a_node12"><a xlink:href="router_8h.html" target="_top" xlink:title=" ">
<polygon fill="white" stroke="black" points="59.64,-0.5 59.64,-19.5 114.64,-19.5 114.64,-0.5 59.64,-0.5"/>
<text text-anchor="middle" x="87.14" y="-7.5" font-family="Helvetica,sans-Serif" font-size="10.00">router.h</text>
</a>
</g>
</g>
<!-- Node4&#45;&gt;Node12 -->
<g id="edge17" class="edge">
<title>Node4&#45;&gt;Node12</title>
<path fill="none" stroke="midnightblue" d="M384.03,-174.65C293.43,-170.14 119.46,-158.28 64.14,-132 25.76,-113.77 -15.41,-92.62 6.14,-56 17.56,-36.59 40.72,-24.95 59.35,-18.39"/>
<polygon fill="midnightblue" stroke="midnightblue" points="383.96,-178.16 394.12,-175.14 384.3,-171.16 383.96,-178.16"/>
</g>
<!-- Node4&#45;&gt;Node15 -->
<g id="edge18" class="edge">
<title>Node4&#45;&gt;Node15</title>
<path fill="none" stroke="midnightblue" d="M496.41,-170.24C557.09,-162.56 656.4,-148.89 741.14,-132 744.17,-131.4 747.33,-130.7 750.47,-129.97"/>
<polygon fill="midnightblue" stroke="midnightblue" points="495.76,-166.79 486.27,-171.51 496.63,-173.74 495.76,-166.79"/>
</g>
<!-- Node17 -->
<g id="node17" class="node">
<title>Node17</title>
<g id="a_node17"><a xlink:href="generate__obj_8h.html" target="_top" xlink:title=" ">
<polygon fill="white" stroke="black" points="643.64,-112.5 643.64,-131.5 732.64,-131.5 732.64,-112.5 643.64,-112.5"/>
<text text-anchor="middle" x="688.14" y="-119.5" font-family="Helvetica,sans-Serif" font-size="10.00">generate_obj.h</text>
</a>
</g>
</g>
<!-- Node4&#45;&gt;Node17 -->
<g id="edge20" class="edge">
<title>Node4&#45;&gt;Node17</title>
<path fill="none" stroke="midnightblue" d="M489.37,-166.28C536.23,-156.08 605.84,-140.92 649.03,-131.52"/>
<polygon fill="midnightblue" stroke="midnightblue" points="488.46,-162.9 479.44,-168.44 489.95,-169.74 488.46,-162.9"/>
</g>
<!-- Node21 -->
<g id="node21" class="node">
<title>Node21</title>
<g id="a_node21"><a xlink:href="road__network_8cc.html" target="_top" xlink:title=" ">
<polygon fill="white" stroke="black" points="528.64,-112.5 528.64,-131.5 625.64,-131.5 625.64,-112.5 528.64,-112.5"/>
<text text-anchor="middle" x="577.14" y="-119.5" font-family="Helvetica,sans-Serif" font-size="10.00">road_network.cc</text>
</a>
</g>
</g>
<!-- Node4&#45;&gt;Node21 -->
<g id="edge25" class="edge">
<title>Node4&#45;&gt;Node21</title>
<path fill="none" stroke="midnightblue" d="M471.16,-164.77C496.9,-154.63 532.83,-140.47 555.53,-131.52"/>
<polygon fill="midnightblue" stroke="midnightblue" points="469.87,-161.52 461.85,-168.44 472.43,-168.03 469.87,-161.52"/>
</g>
<!-- Node6 -->
<g id="node6" class="node">
<title>Node6</title>
<g id="a_node6"><a xlink:href="road__network__validator_8cc.html" target="_top" xlink:title=" ">
<polygon fill="white" stroke="black" points="367.14,-56.5 367.14,-75.5 513.14,-75.5 513.14,-56.5 367.14,-56.5"/>
<text text-anchor="middle" x="440.14" y="-63.5" font-family="Helvetica,sans-Serif" font-size="10.00">road_network_validator.cc</text>
</a>
</g>
</g>
<!-- Node5&#45;&gt;Node6 -->
<g id="edge5" class="edge">
<title>Node5&#45;&gt;Node6</title>
<path fill="none" stroke="midnightblue" d="M440.14,-101.8C440.14,-92.91 440.14,-82.78 440.14,-75.75"/>
<polygon fill="midnightblue" stroke="midnightblue" points="436.64,-102.08 440.14,-112.08 443.64,-102.08 436.64,-102.08"/>
</g>
<!-- Node8 -->
<g id="node8" class="node">
<title>Node8</title>
<g id="a_node8"><a xlink:href="create__road__network_8cc.html" target="_top" xlink:title=" ">
<polygon fill="white" stroke="black" points="211.64,-0.5 211.64,-19.5 344.64,-19.5 344.64,-0.5 211.64,-0.5"/>
<text text-anchor="middle" x="278.14" y="-7.5" font-family="Helvetica,sans-Serif" font-size="10.00">create_road_network.cc</text>
</a>
</g>
</g>
<!-- Node7&#45;&gt;Node8 -->
<g id="edge7" class="edge">
<title>Node7&#45;&gt;Node8</title>
<path fill="none" stroke="midnightblue" d="M278.14,-45.8C278.14,-36.91 278.14,-26.78 278.14,-19.75"/>
<polygon fill="midnightblue" stroke="midnightblue" points="274.64,-46.08 278.14,-56.08 281.64,-46.08 274.64,-46.08"/>
</g>
<!-- Node9&#45;&gt;Node7 -->
<g id="edge9" class="edge">
<title>Node9&#45;&gt;Node7</title>
<path fill="none" stroke="midnightblue" d="M258.82,-102.98C263.74,-93.82 269.5,-83.09 273.44,-75.75"/>
<polygon fill="midnightblue" stroke="midnightblue" points="255.58,-101.62 253.93,-112.08 261.74,-104.93 255.58,-101.62"/>
</g>
<!-- Node10&#45;&gt;Node11 -->
<g id="edge11" class="edge">
<title>Node10&#45;&gt;Node11</title>
<path fill="none" stroke="midnightblue" d="M117.47,-105.25C127.4,-95.67 139.73,-83.79 147.98,-75.83"/>
<polygon fill="midnightblue" stroke="midnightblue" points="114.91,-102.86 110.14,-112.32 119.77,-107.9 114.91,-102.86"/>
</g>
<!-- Node10&#45;&gt;Node12 -->
<g id="edge14" class="edge">
<title>Node10&#45;&gt;Node12</title>
<path fill="none" stroke="midnightblue" d="M98.77,-102.35C95.7,-78.25 90.49,-37.31 88.23,-19.59"/>
<polygon fill="midnightblue" stroke="midnightblue" points="95.31,-102.89 100.04,-112.37 102.25,-102.01 95.31,-102.89"/>
</g>
<!-- Node14 -->
<g id="node14" class="node">
<title>Node14</title>
<g id="a_node14"><a xlink:href="routing_2phase_8cc.html" target="_top" xlink:title=" ">
<polygon fill="white" stroke="black" points="15.64,-56.5 15.64,-75.5 74.64,-75.5 74.64,-56.5 15.64,-56.5"/>
<text text-anchor="middle" x="45.14" y="-63.5" font-family="Helvetica,sans-Serif" font-size="10.00">phase.cc</text>
</a>
</g>
</g>
<!-- Node10&#45;&gt;Node14 -->
<g id="edge15" class="edge">
<title>Node10&#45;&gt;Node14</title>
<path fill="none" stroke="midnightblue" d="M84.81,-105.25C74.87,-95.67 62.55,-83.79 54.3,-75.83"/>
<polygon fill="midnightblue" stroke="midnightblue" points="82.51,-107.9 92.14,-112.32 87.37,-102.86 82.51,-107.9"/>
</g>
<!-- Node11&#45;&gt;Node12 -->
<g id="edge12" class="edge">
<title>Node11&#45;&gt;Node12</title>
<path fill="none" stroke="midnightblue" d="M137.83,-50.1C125.23,-40.38 109.21,-28.03 98.59,-19.83"/>
<polygon fill="midnightblue" stroke="midnightblue" points="135.84,-52.99 145.89,-56.32 140.11,-47.44 135.84,-52.99"/>
</g>
<!-- Node13 -->
<g id="node13" class="node">
<title>Node13</title>
<g id="a_node13"><a xlink:href="route_8cc.html" target="_top" xlink:title=" ">
<polygon fill="white" stroke="black" points="133.14,-0.5 133.14,-19.5 189.14,-19.5 189.14,-0.5 133.14,-0.5"/>
<text text-anchor="middle" x="161.14" y="-7.5" font-family="Helvetica,sans-Serif" font-size="10.00">route.cc</text>
</a>
</g>
</g>
<!-- Node11&#45;&gt;Node13 -->
<g id="edge13" class="edge">
<title>Node11&#45;&gt;Node13</title>
<path fill="none" stroke="midnightblue" d="M158.54,-46.1C159.2,-37.14 159.97,-26.86 160.49,-19.75"/>
<polygon fill="midnightblue" stroke="midnightblue" points="155.05,-45.85 157.8,-56.08 162.03,-46.37 155.05,-45.85"/>
</g>
<!-- Node15&#45;&gt;Node16 -->
<g id="edge19" class="edge">
<title>Node15&#45;&gt;Node16</title>
<path fill="none" stroke="midnightblue" d="M796.45,-106.1C809.05,-96.38 825.07,-84.03 835.69,-75.83"/>
<polygon fill="midnightblue" stroke="midnightblue" points="794.17,-103.44 788.39,-112.32 798.44,-108.99 794.17,-103.44"/>
</g>
<!-- Node18 -->
<g id="node18" class="node">
<title>Node18</title>
<g id="a_node18"><a xlink:href="generate__urdf_8h.html" target="_top" xlink:title=" ">
<polygon fill="white" stroke="black" points="594.64,-56.5 594.64,-75.5 687.64,-75.5 687.64,-56.5 594.64,-56.5"/>
<text text-anchor="middle" x="641.14" y="-63.5" font-family="Helvetica,sans-Serif" font-size="10.00">generate_urdf.h</text>
</a>
</g>
</g>
<!-- Node17&#45;&gt;Node18 -->
<g id="edge21" class="edge">
<title>Node17&#45;&gt;Node18</title>
<path fill="none" stroke="midnightblue" d="M673.72,-104.43C665.48,-94.97 655.49,-83.48 648.76,-75.75"/>
<polygon fill="midnightblue" stroke="midnightblue" points="671.17,-106.84 680.38,-112.08 676.45,-102.24 671.17,-106.84"/>
</g>
<!-- Node19 -->
<g id="node19" class="node">
<title>Node19</title>
<g id="a_node19"><a xlink:href="generate__urdf_8cc.html" target="_top" xlink:title=" ">
<polygon fill="white" stroke="black" points="554.14,-0.5 554.14,-19.5 652.14,-19.5 652.14,-0.5 554.14,-0.5"/>
<text text-anchor="middle" x="603.14" y="-7.5" font-family="Helvetica,sans-Serif" font-size="10.00">generate_urdf.cc</text>
</a>
</g>
</g>
<!-- Node17&#45;&gt;Node19 -->
<g id="edge24" class="edge">
<title>Node17&#45;&gt;Node19</title>
<path fill="none" stroke="midnightblue" d="M633.79,-110.1C615.14,-103.48 596.2,-92.89 585.14,-76 573.47,-58.17 587.49,-32.84 596.57,-19.68"/>
<polygon fill="midnightblue" stroke="midnightblue" points="632.88,-113.49 643.47,-113.22 635.02,-106.82 632.88,-113.49"/>
</g>
<!-- Node20 -->
<g id="node20" class="node">
<title>Node20</title>
<g id="a_node20"><a xlink:href="generate__obj_8cc.html" target="_top" xlink:title=" ">
<polygon fill="white" stroke="black" points="706.14,-56.5 706.14,-75.5 800.14,-75.5 800.14,-56.5 706.14,-56.5"/>
<text text-anchor="middle" x="753.14" y="-63.5" font-family="Helvetica,sans-Serif" font-size="10.00">generate_obj.cc</text>
</a>
</g>
</g>
<!-- Node17&#45;&gt;Node20 -->
<g id="edge23" class="edge">
<title>Node17&#45;&gt;Node20</title>
<path fill="none" stroke="midnightblue" d="M706.41,-105.82C718.06,-96.15 732.74,-83.95 742.51,-75.83"/>
<polygon fill="midnightblue" stroke="midnightblue" points="704.04,-103.24 698.58,-112.32 708.51,-108.63 704.04,-103.24"/>
</g>
<!-- Node18&#45;&gt;Node19 -->
<g id="edge22" class="edge">
<title>Node18&#45;&gt;Node19</title>
<path fill="none" stroke="midnightblue" d="M629.08,-47.86C622.5,-38.5 614.63,-27.33 609.3,-19.75"/>
<polygon fill="midnightblue" stroke="midnightblue" points="626.25,-49.92 634.86,-56.08 631.97,-45.89 626.25,-49.92"/>
</g>
<!-- Node23 -->
<g id="node23" class="node">
<title>Node23</title>
<g id="a_node23"><a xlink:href="intersection__book_8cc.html" target="_top" xlink:title=" ">
<polygon fill="white" stroke="black" points="875.64,-112.5 875.64,-131.5 992.64,-131.5 992.64,-112.5 875.64,-112.5"/>
<text text-anchor="middle" x="934.14" y="-119.5" font-family="Helvetica,sans-Serif" font-size="10.00">intersection_book.cc</text>
</a>
</g>
</g>
<!-- Node22&#45;&gt;Node23 -->
<g id="edge27" class="edge">
<title>Node22&#45;&gt;Node23</title>
<path fill="none" stroke="midnightblue" d="M934.14,-157.8C934.14,-148.91 934.14,-138.78 934.14,-131.75"/>
<polygon fill="midnightblue" stroke="midnightblue" points="930.64,-158.08 934.14,-168.08 937.64,-158.08 930.64,-158.08"/>
</g>
<!-- Node24 -->
<g id="node24" class="node">
<title>Node24</title>
<g id="a_node24"><a xlink:href="intersection__book__loader_8cc.html" target="_top" xlink:title=" ">
<polygon fill="white" stroke="black" points="1010.64,-112.5 1010.64,-131.5 1163.64,-131.5 1163.64,-112.5 1010.64,-112.5"/>
<text text-anchor="middle" x="1087.14" y="-119.5" font-family="Helvetica,sans-Serif" font-size="10.00">intersection_book_loader.cc</text>
</a>
</g>
</g>
<!-- Node22&#45;&gt;Node24 -->
<g id="edge28" class="edge">
<title>Node22&#45;&gt;Node24</title>
<path fill="none" stroke="midnightblue" d="M968.03,-165.04C996.82,-154.88 1037.43,-140.55 1063.01,-131.52"/>
<polygon fill="midnightblue" stroke="midnightblue" points="966.65,-161.81 958.38,-168.44 968.98,-168.42 966.65,-161.81"/>
</g>
<!-- Node25&#45;&gt;Node24 -->
<g id="edge30" class="edge">
<title>Node25&#45;&gt;Node24</title>
<path fill="none" stroke="midnightblue" d="M1084.54,-158.1C1085.2,-149.14 1085.97,-138.86 1086.49,-131.75"/>
<polygon fill="midnightblue" stroke="midnightblue" points="1081.05,-157.85 1083.8,-168.08 1088.03,-158.37 1081.05,-157.85"/>
</g>
<!-- Node26&#45;&gt;Node24 -->
<g id="edge34" class="edge">
<title>Node26&#45;&gt;Node24</title>
<path fill="none" stroke="midnightblue" d="M1244.88,-223.72C1225.42,-209 1194.28,-186.07 1166.14,-168 1145.02,-154.44 1119.66,-140.37 1103.47,-131.65"/>
<polygon fill="midnightblue" stroke="midnightblue" points="1242.87,-226.58 1252.95,-229.85 1247.1,-221.01 1242.87,-226.58"/>
</g>
<!-- Node27 -->
<g id="node27" class="node">
<title>Node27</title>
<g id="a_node27"><a xlink:href="base_2intersection_8cc.html" target="_top" xlink:title=" ">
<polygon fill="white" stroke="black" points="1220.14,-168.5 1220.14,-187.5 1308.14,-187.5 1308.14,-168.5 1220.14,-168.5"/>
<text text-anchor="middle" x="1264.14" y="-175.5" font-family="Helvetica,sans-Serif" font-size="10.00">intersection.cc</text>
</a>
</g>
</g>
<!-- Node26&#45;&gt;Node27 -->
<g id="edge33" class="edge">
<title>Node26&#45;&gt;Node27</title>
<path fill="none" stroke="midnightblue" d="M1264.14,-219.82C1264.14,-209 1264.14,-195.9 1264.14,-187.51"/>
<polygon fill="midnightblue" stroke="midnightblue" points="1260.64,-219.98 1264.14,-229.98 1267.64,-219.98 1260.64,-219.98"/>
</g>
<!-- Node29&#45;&gt;Node25 -->
<g id="edge42" class="edge">
<title>Node29&#45;&gt;Node25</title>
<path fill="none" stroke="midnightblue" d="M1094.43,-292.96C1077.12,-284.98 1058.11,-272.74 1048.14,-255 1034.9,-231.45 1059.38,-202 1073.75,-187.66"/>
<polygon fill="midnightblue" stroke="midnightblue" points="1093.24,-296.25 1103.81,-296.96 1095.99,-289.81 1093.24,-296.25"/>
</g>
<!-- Node29&#45;&gt;Node26 -->
<g id="edge41" class="edge">
<title>Node29&#45;&gt;Node26</title>
<path fill="none" stroke="midnightblue" d="M1157.86,-292.44C1184.2,-279.57 1223.71,-260.26 1246.41,-249.17"/>
<polygon fill="midnightblue" stroke="midnightblue" points="1156.25,-289.33 1148.8,-296.87 1159.32,-295.62 1156.25,-289.33"/>
</g>
<!-- Node30 -->
<g id="node30" class="node">
<title>Node30</title>
<g id="a_node30"><a xlink:href="manual__phase__provider_8cc.html" target="_top" xlink:title=" ">
<polygon fill="white" stroke="black" points="1057.64,-230 1057.64,-249 1204.64,-249 1204.64,-230 1057.64,-230"/>
<text text-anchor="middle" x="1131.14" y="-237" font-family="Helvetica,sans-Serif" font-size="10.00">manual_phase_provider.cc</text>
</a>
</g>
</g>
<!-- Node29&#45;&gt;Node30 -->
<g id="edge43" class="edge">
<title>Node29&#45;&gt;Node30</title>
<path fill="none" stroke="midnightblue" d="M1131.14,-286.54C1131.14,-274.17 1131.14,-258.62 1131.14,-249.13"/>
<polygon fill="midnightblue" stroke="midnightblue" points="1127.64,-286.73 1131.14,-296.73 1134.64,-286.73 1127.64,-286.73"/>
</g>
<!-- Node32 -->
<g id="node32" class="node">
<title>Node32</title>
<g id="a_node32"><a xlink:href="phase__based__right__of__way__rule__state__provider_8cc.html" target="_top" xlink:title=" ">
<polygon fill="white" stroke="black" points="1323.64,-224.5 1323.64,-254.5 1478.64,-254.5 1478.64,-224.5 1323.64,-224.5"/>
<text text-anchor="start" x="1331.64" y="-242.5" font-family="Helvetica,sans-Serif" font-size="10.00">phase_based_right_of</text>
<text text-anchor="middle" x="1401.14" y="-231.5" font-family="Helvetica,sans-Serif" font-size="10.00">_way_rule_state_provider.cc</text>
</a>
</g>
</g>
<!-- Node31&#45;&gt;Node32 -->
<g id="edge45" class="edge">
<title>Node31&#45;&gt;Node32</title>
<path fill="none" stroke="midnightblue" d="M1385.18,-281.99C1388.71,-272.8 1392.65,-262.58 1395.73,-254.58"/>
<polygon fill="midnightblue" stroke="midnightblue" points="1381.89,-280.81 1381.56,-291.4 1388.42,-283.32 1381.89,-280.81"/>
</g>
<!-- Node34 -->
<g id="node34" class="node">
<title>Node34</title>
<g id="a_node34"><a xlink:href="phased__discrete__rule__state__provider_8cc.html" target="_top" xlink:title=" ">
<polygon fill="white" stroke="black" points="1497.14,-224.5 1497.14,-254.5 1617.14,-254.5 1617.14,-224.5 1497.14,-224.5"/>
<text text-anchor="start" x="1505.14" y="-242.5" font-family="Helvetica,sans-Serif" font-size="10.00">phased_discrete_rule</text>
<text text-anchor="middle" x="1557.14" y="-231.5" font-family="Helvetica,sans-Serif" font-size="10.00">_state_provider.cc</text>
</a>
</g>
</g>
<!-- Node33&#45;&gt;Node34 -->
<g id="edge47" class="edge">
<title>Node33&#45;&gt;Node34</title>
<path fill="none" stroke="midnightblue" d="M1548.33,-281.4C1550.28,-272.37 1552.42,-262.41 1554.11,-254.58"/>
<polygon fill="midnightblue" stroke="midnightblue" points="1544.86,-280.88 1546.18,-291.4 1551.7,-282.36 1544.86,-280.88"/>
</g>
</g>
</svg>
        <g id="navigator" transform="translate(0 0)" fill="#404254">
                <rect fill="#f2f5e9" fill-opacity="0.5" stroke="#606060" stroke-width=".5" x="0" y="0" width="60" height="60"/>
                <use id="zoomplus" xlink:href="#zoomPlus" x="17" y="9" onmousedown="handleZoom(evt,'in')"/>
                <use id="zoomminus" xlink:href="#zoomMin" x="42" y="9" onmousedown="handleZoom(evt,'out')"/>
                <use id="reset" xlink:href="#resetDef" x="30" y="36" onmousedown="handleReset()"/>
                <g id="arrowUp" xlink:href="#dirArrow" transform="translate(30 24)" onmousedown="handlePan(0,-1)">
                  <use xlink:href="#rim" fill="#404040">
                        <set attributeName="fill" to="#808080" begin="arrowUp.mouseover" end="arrowUp.mouseout"/>
                  </use>
                  <path fill="none" stroke="white" stroke-width="1.5" d="M0,-3.0v7 M-2.5,-0.5L0,-3.0L2.5,-0.5"/>
                </g>
                <g id="arrowRight" xlink:href="#dirArrow" transform="rotate(90) translate(36 -43)" onmousedown="handlePan(1,0)">
                  <use xlink:href="#rim" fill="#404040">
                        <set attributeName="fill" to="#808080" begin="arrowRight.mouseover" end="arrowRight.mouseout"/>
                  </use>
                  <path fill="none" stroke="white" stroke-width="1.5" d="M0,-3.0v7 M-2.5,-0.5L0,-3.0L2.5,-0.5"/>
                </g>
                <g id="arrowDown" xlink:href="#dirArrow" transform="rotate(180) translate(-30 -48)" onmousedown="handlePan(0,1)">
                  <use xlink:href="#rim" fill="#404040">
                        <set attributeName="fill" to="#808080" begin="arrowDown.mouseover" end="arrowDown.mouseout"/>
                  </use>
                  <path fill="none" stroke="white" stroke-width="1.5" d="M0,-3.0v7 M-2.5,-0.5L0,-3.0L2.5,-0.5"/>
                </g>
                <g id="arrowLeft" xlink:href="#dirArrow" transform="rotate(270) translate(-36 17)" onmousedown="handlePan(-1,0)">
                  <use xlink:href="#rim" fill="#404040">
                        <set attributeName="fill" to="#808080" begin="arrowLeft.mouseover" end="arrowLeft.mouseout"/>
                  </use>
                  <path fill="none" stroke="white" stroke-width="1.5" d="M0,-3.0v7 M-2.5,-0.5L0,-3.0L2.5,-0.5"/>
                </g>
        </g>
        <svg viewBox="0 0 15 15" width="100%" height="30px" preserveAspectRatio="xMaxYMin meet">
         <g id="arrow_out" transform="scale(0.3 0.3)">
          <a xlink:href="phase__provider_8h__dep__incl_org.svg" target="_base">
           <rect id="button" ry="5" rx="5" y="6" x="6" height="38" width="38"
                fill="#f2f5e9" fill-opacity="0.5" stroke="#606060" stroke-width="1.0"/>
           <path id="arrow"
             d="M 11.500037,31.436501 C 11.940474,20.09759 22.043105,11.32322 32.158766,21.979434 L 37.068811,17.246167 C 37.068811,17.246167 37.088388,32 37.088388,32 L 22.160133,31.978069 C 22.160133,31.978069 26.997745,27.140456 26.997745,27.140456 C 18.528582,18.264221 13.291696,25.230495 11.500037,31.436501 z"
             style="fill:#404040;"/>
          </a>
         </g>
        </svg>
</svg>
