<?xml version="1.0" encoding="UTF-8" standalone="no"?>
<!DOCTYPE svg PUBLIC "-//W3C//DTD SVG 1.1//EN"
 "http://www.w3.org/Graphics/SVG/1.1/DTD/svg11.dtd">
<!-- Generated by graphviz version 2.43.0 (0)
 -->
<!-- Title: pointer_cast.h Pages: 1 -->
<svg width="735pt" height="498pt"
 viewBox="0.00 0.00 735.00 498.00" xmlns="http://www.w3.org/2000/svg" xmlns:xlink="http://www.w3.org/1999/xlink">
<g id="graph0" class="graph" transform="scale(1 1) rotate(0) translate(4 494)">
<title>pointer_cast.h</title>
<polygon fill="white" stroke="transparent" points="-4,4 -4,-494 731,-494 731,4 -4,4"/>
<!-- Node1 -->
<g id="node1" class="node">
<title>Node1</title>
<g id="a_node1"><a xlink:title=" ">
<polygon fill="#bfbfbf" stroke="black" points="480.5,-470.5 480.5,-489.5 566.5,-489.5 566.5,-470.5 480.5,-470.5"/>
<text text-anchor="middle" x="523.5" y="-477.5" font-family="Helvetica,sans-Serif" font-size="10.00">pointer_cast.h</text>
</a>
</g>
</g>
<!-- Node2 -->
<g id="node2" class="node">
<title>Node2</title>
<g id="a_node2"><a xlink:href="event__collection_8h.html" target="_top" xlink:title=" ">
<polygon fill="white" stroke="black" points="325.5,-414.5 325.5,-433.5 431.5,-433.5 431.5,-414.5 325.5,-414.5"/>
<text text-anchor="middle" x="378.5" y="-421.5" font-family="Helvetica,sans-Serif" font-size="10.00">event_collection.h</text>
</a>
</g>
</g>
<!-- Node1&#45;&gt;Node2 -->
<g id="edge1" class="edge">
<title>Node1&#45;&gt;Node2</title>
<path fill="none" stroke="midnightblue" d="M491.02,-466.91C463.76,-456.75 425.51,-442.51 401.37,-433.52"/>
<polygon fill="midnightblue" stroke="midnightblue" points="489.93,-470.23 500.52,-470.44 492.37,-463.67 489.93,-470.23"/>
</g>
<!-- Node3 -->
<g id="node3" class="node">
<title>Node3</title>
<g id="a_node3"><a xlink:href="system_8h.html" target="_top" xlink:title=" ">
<polygon fill="white" stroke="black" points="200.5,-302.5 200.5,-321.5 262.5,-321.5 262.5,-302.5 200.5,-302.5"/>
<text text-anchor="middle" x="231.5" y="-309.5" font-family="Helvetica,sans-Serif" font-size="10.00">system.h</text>
</a>
</g>
</g>
<!-- Node1&#45;&gt;Node3 -->
<g id="edge22" class="edge">
<title>Node1&#45;&gt;Node3</title>
<path fill="none" stroke="midnightblue" d="M470.43,-473.26C427.53,-467.27 366.32,-455.62 316.5,-434 276.35,-416.58 257.01,-416.12 235.5,-378 225.39,-360.08 227.63,-334.79 229.77,-321.66"/>
<polygon fill="midnightblue" stroke="midnightblue" points="470,-476.73 480.37,-474.59 470.93,-469.8 470,-476.73"/>
</g>
<!-- Node15 -->
<g id="node15" class="node">
<title>Node15</title>
<g id="a_node15"><a xlink:href="leaf__system_8cc.html" target="_top" xlink:title=" ">
<polygon fill="white" stroke="black" points="478.5,-190.5 478.5,-209.5 568.5,-209.5 568.5,-190.5 478.5,-190.5"/>
<text text-anchor="middle" x="523.5" y="-197.5" font-family="Helvetica,sans-Serif" font-size="10.00">leaf_system.cc</text>
</a>
</g>
</g>
<!-- Node1&#45;&gt;Node15 -->
<g id="edge25" class="edge">
<title>Node1&#45;&gt;Node15</title>
<path fill="none" stroke="midnightblue" d="M523.5,-460.25C523.5,-438.36 523.5,-401.05 523.5,-369 523.5,-369 523.5,-369 523.5,-311 523.5,-273.19 523.5,-228.06 523.5,-209.56"/>
<polygon fill="midnightblue" stroke="midnightblue" points="520,-460.44 523.5,-470.44 527,-460.44 520,-460.44"/>
</g>
<!-- Node20 -->
<g id="node20" class="node">
<title>Node20</title>
<g id="a_node20"><a xlink:href="pointer__cast_8cc.html" target="_top" xlink:title=" ">
<polygon fill="white" stroke="black" points="551.5,-414.5 551.5,-433.5 641.5,-433.5 641.5,-414.5 551.5,-414.5"/>
<text text-anchor="middle" x="596.5" y="-421.5" font-family="Helvetica,sans-Serif" font-size="10.00">pointer_cast.cc</text>
</a>
</g>
</g>
<!-- Node1&#45;&gt;Node20 -->
<g id="edge23" class="edge">
<title>Node1&#45;&gt;Node20</title>
<path fill="none" stroke="midnightblue" d="M543.64,-464.1C556.78,-454.38 573.48,-442.03 584.56,-433.83"/>
<polygon fill="midnightblue" stroke="midnightblue" points="541.19,-461.56 535.23,-470.32 545.35,-467.19 541.19,-461.56"/>
</g>
<!-- Node21 -->
<g id="node21" class="node">
<title>Node21</title>
<g id="a_node21"><a xlink:href="context_8cc.html" target="_top" xlink:title=" ">
<polygon fill="white" stroke="black" points="660,-414.5 660,-433.5 727,-433.5 727,-414.5 660,-414.5"/>
<text text-anchor="middle" x="693.5" y="-421.5" font-family="Helvetica,sans-Serif" font-size="10.00">context.cc</text>
</a>
</g>
</g>
<!-- Node1&#45;&gt;Node21 -->
<g id="edge24" class="edge">
<title>Node1&#45;&gt;Node21</title>
<path fill="none" stroke="midnightblue" d="M560.32,-467.3C592.35,-457.13 638.02,-442.62 666.69,-433.52"/>
<polygon fill="midnightblue" stroke="midnightblue" points="558.91,-464.08 550.44,-470.44 561.03,-470.75 558.91,-464.08"/>
</g>
<!-- Node2&#45;&gt;Node3 -->
<g id="edge2" class="edge">
<title>Node2&#45;&gt;Node3</title>
<path fill="none" stroke="midnightblue" d="M315.48,-413.32C292.31,-406.84 267.58,-396.03 250.5,-378 235.62,-362.3 232.31,-335.59 231.63,-321.81"/>
<polygon fill="midnightblue" stroke="midnightblue" points="314.73,-416.74 325.29,-415.84 316.48,-409.96 314.73,-416.74"/>
</g>
<!-- Node17 -->
<g id="node17" class="node">
<title>Node17</title>
<g id="a_node17"><a xlink:href="witness__function_8h.html" target="_top" xlink:title=" ">
<polygon fill="white" stroke="black" points="387.5,-358.5 387.5,-377.5 495.5,-377.5 495.5,-358.5 387.5,-358.5"/>
<text text-anchor="middle" x="441.5" y="-365.5" font-family="Helvetica,sans-Serif" font-size="10.00">witness_function.h</text>
</a>
</g>
</g>
<!-- Node2&#45;&gt;Node17 -->
<g id="edge18" class="edge">
<title>Node2&#45;&gt;Node17</title>
<path fill="none" stroke="midnightblue" d="M396.54,-407.54C407.77,-397.91 421.82,-385.87 431.19,-377.83"/>
<polygon fill="midnightblue" stroke="midnightblue" points="393.94,-405.16 388.62,-414.32 398.49,-410.47 393.94,-405.16"/>
</g>
<!-- Node19 -->
<g id="node19" class="node">
<title>Node19</title>
<g id="a_node19"><a xlink:href="event__collection_8cc.html" target="_top" xlink:title=" ">
<polygon fill="white" stroke="black" points="259.5,-358.5 259.5,-377.5 369.5,-377.5 369.5,-358.5 259.5,-358.5"/>
<text text-anchor="middle" x="314.5" y="-365.5" font-family="Helvetica,sans-Serif" font-size="10.00">event_collection.cc</text>
</a>
</g>
</g>
<!-- Node2&#45;&gt;Node19 -->
<g id="edge21" class="edge">
<title>Node2&#45;&gt;Node19</title>
<path fill="none" stroke="midnightblue" d="M360.51,-407.82C349.04,-398.15 334.59,-385.95 324.97,-377.83"/>
<polygon fill="midnightblue" stroke="midnightblue" points="358.32,-410.55 368.22,-414.32 362.83,-405.2 358.32,-410.55"/>
</g>
<!-- Node4 -->
<g id="node4" class="node">
<title>Node4</title>
<g id="a_node4"><a xlink:href="integrator__base_8h.html" target="_top" xlink:title=" ">
<polygon fill="white" stroke="black" points="180.5,-246.5 180.5,-265.5 282.5,-265.5 282.5,-246.5 180.5,-246.5"/>
<text text-anchor="middle" x="231.5" y="-253.5" font-family="Helvetica,sans-Serif" font-size="10.00">integrator_base.h</text>
</a>
</g>
</g>
<!-- Node3&#45;&gt;Node4 -->
<g id="edge3" class="edge">
<title>Node3&#45;&gt;Node4</title>
<path fill="none" stroke="midnightblue" d="M231.5,-291.8C231.5,-282.91 231.5,-272.78 231.5,-265.75"/>
<polygon fill="midnightblue" stroke="midnightblue" points="228,-292.08 231.5,-302.08 235,-292.08 228,-292.08"/>
</g>
<!-- Node14 -->
<g id="node14" class="node">
<title>Node14</title>
<g id="a_node14"><a xlink:href="leaf__system_8h.html" target="_top" xlink:title=" ">
<polygon fill="white" stroke="black" points="407.5,-246.5 407.5,-265.5 493.5,-265.5 493.5,-246.5 407.5,-246.5"/>
<text text-anchor="middle" x="450.5" y="-253.5" font-family="Helvetica,sans-Serif" font-size="10.00">leaf_system.h</text>
</a>
</g>
</g>
<!-- Node3&#45;&gt;Node14 -->
<g id="edge14" class="edge">
<title>Node3&#45;&gt;Node14</title>
<path fill="none" stroke="midnightblue" d="M272.64,-300.86C314.01,-290.66 377.07,-275.11 415.93,-265.52"/>
<polygon fill="midnightblue" stroke="midnightblue" points="271.75,-297.47 262.88,-303.26 273.42,-304.27 271.75,-297.47"/>
</g>
<!-- Node16 -->
<g id="node16" class="node">
<title>Node16</title>
<g id="a_node16"><a xlink:href="system_8cc.html" target="_top" xlink:title=" ">
<polygon fill="white" stroke="black" points="96.5,-246.5 96.5,-265.5 162.5,-265.5 162.5,-246.5 96.5,-246.5"/>
<text text-anchor="middle" x="129.5" y="-253.5" font-family="Helvetica,sans-Serif" font-size="10.00">system.cc</text>
</a>
</g>
</g>
<!-- Node3&#45;&gt;Node16 -->
<g id="edge17" class="edge">
<title>Node3&#45;&gt;Node16</title>
<path fill="none" stroke="midnightblue" d="M206.17,-297.59C187.31,-287.61 162.12,-274.27 145.85,-265.65"/>
<polygon fill="midnightblue" stroke="midnightblue" points="204.64,-300.74 215.11,-302.32 207.91,-294.55 204.64,-300.74"/>
</g>
<!-- Node5 -->
<g id="node5" class="node">
<title>Node5</title>
<g id="a_node5"><a xlink:href="initial__value__problem_8h.html" target="_top" xlink:title=" ">
<polygon fill="white" stroke="black" points="130,-190.5 130,-209.5 261,-209.5 261,-190.5 130,-190.5"/>
<text text-anchor="middle" x="195.5" y="-197.5" font-family="Helvetica,sans-Serif" font-size="10.00">initial_value_problem.h</text>
</a>
</g>
</g>
<!-- Node4&#45;&gt;Node5 -->
<g id="edge4" class="edge">
<title>Node4&#45;&gt;Node5</title>
<path fill="none" stroke="midnightblue" d="M219.88,-237.57C213.68,-228.27 206.33,-217.25 201.33,-209.75"/>
<polygon fill="midnightblue" stroke="midnightblue" points="217.1,-239.7 225.56,-246.08 222.92,-235.82 217.1,-239.7"/>
</g>
<!-- Node11 -->
<g id="node11" class="node">
<title>Node11</title>
<g id="a_node11"><a xlink:href="runge__kutta3__integrator_8h.html" target="_top" xlink:title=" ">
<polygon fill="white" stroke="black" points="279,-190.5 279,-209.5 422,-209.5 422,-190.5 279,-190.5"/>
<text text-anchor="middle" x="350.5" y="-197.5" font-family="Helvetica,sans-Serif" font-size="10.00">runge_kutta3_integrator.h</text>
</a>
</g>
</g>
<!-- Node4&#45;&gt;Node11 -->
<g id="edge10" class="edge">
<title>Node4&#45;&gt;Node11</title>
<path fill="none" stroke="midnightblue" d="M259.64,-242.23C281.9,-232.13 312.36,-218.31 331.73,-209.52"/>
<polygon fill="midnightblue" stroke="midnightblue" points="258.02,-239.12 250.36,-246.44 260.91,-245.5 258.02,-239.12"/>
</g>
<!-- Node13 -->
<g id="node13" class="node">
<title>Node13</title>
<g id="a_node13"><a xlink:href="integrator__base_8cc.html" target="_top" xlink:title=" ">
<polygon fill="white" stroke="black" points="5,-190.5 5,-209.5 112,-209.5 112,-190.5 5,-190.5"/>
<text text-anchor="middle" x="58.5" y="-197.5" font-family="Helvetica,sans-Serif" font-size="10.00">integrator_base.cc</text>
</a>
</g>
</g>
<!-- Node4&#45;&gt;Node13 -->
<g id="edge13" class="edge">
<title>Node4&#45;&gt;Node13</title>
<path fill="none" stroke="midnightblue" d="M194.45,-243.44C161.84,-233.26 115.09,-218.66 85.78,-209.52"/>
<polygon fill="midnightblue" stroke="midnightblue" points="193.5,-246.8 204.09,-246.44 195.58,-240.12 193.5,-246.8"/>
</g>
<!-- Node6 -->
<g id="node6" class="node">
<title>Node6</title>
<g id="a_node6"><a xlink:href="scalar__initial__value__problem_8h.html" target="_top" xlink:title=" ">
<polygon fill="white" stroke="black" points="87,-123.5 87,-153.5 198,-153.5 198,-123.5 87,-123.5"/>
<text text-anchor="start" x="95" y="-141.5" font-family="Helvetica,sans-Serif" font-size="10.00">scalar_initial_value</text>
<text text-anchor="middle" x="142.5" y="-130.5" font-family="Helvetica,sans-Serif" font-size="10.00">_problem.h</text>
</a>
</g>
</g>
<!-- Node5&#45;&gt;Node6 -->
<g id="edge5" class="edge">
<title>Node5&#45;&gt;Node6</title>
<path fill="none" stroke="midnightblue" d="M181.08,-182.81C172.92,-173.65 162.81,-162.3 154.99,-153.52"/>
<polygon fill="midnightblue" stroke="midnightblue" points="178.64,-185.34 187.91,-190.48 183.87,-180.68 178.64,-185.34"/>
</g>
<!-- Node10 -->
<g id="node10" class="node">
<title>Node10</title>
<g id="a_node10"><a xlink:href="initial__value__problem_8cc.html" target="_top" xlink:title=" ">
<polygon fill="white" stroke="black" points="382.5,-129 382.5,-148 518.5,-148 518.5,-129 382.5,-129"/>
<text text-anchor="middle" x="450.5" y="-136" font-family="Helvetica,sans-Serif" font-size="10.00">initial_value_problem.cc</text>
</a>
</g>
</g>
<!-- Node5&#45;&gt;Node10 -->
<g id="edge9" class="edge">
<title>Node5&#45;&gt;Node10</title>
<path fill="none" stroke="midnightblue" d="M241.85,-188.19C291.33,-176.64 368.71,-158.58 414.03,-148.01"/>
<polygon fill="midnightblue" stroke="midnightblue" points="240.98,-184.79 232.04,-190.48 242.57,-191.61 240.98,-184.79"/>
</g>
<!-- Node7 -->
<g id="node7" class="node">
<title>Node7</title>
<g id="a_node7"><a xlink:href="antiderivative__function_8h.html" target="_top" xlink:title=" ">
<polygon fill="white" stroke="black" points="2,-62 2,-81 141,-81 141,-62 2,-62"/>
<text text-anchor="middle" x="71.5" y="-69" font-family="Helvetica,sans-Serif" font-size="10.00">antiderivative_function.h</text>
</a>
</g>
</g>
<!-- Node6&#45;&gt;Node7 -->
<g id="edge6" class="edge">
<title>Node6&#45;&gt;Node7</title>
<path fill="none" stroke="midnightblue" d="M119.38,-116.34C106.35,-104.4 90.76,-90.14 81,-81.19"/>
<polygon fill="midnightblue" stroke="midnightblue" points="117.35,-119.22 127.09,-123.4 122.08,-114.06 117.35,-119.22"/>
</g>
<!-- Node9 -->
<g id="node9" class="node">
<title>Node9</title>
<g id="a_node9"><a xlink:href="scalar__initial__value__problem_8cc.html" target="_top" xlink:title=" ">
<polygon fill="white" stroke="black" points="159,-56.5 159,-86.5 270,-86.5 270,-56.5 159,-56.5"/>
<text text-anchor="start" x="167" y="-74.5" font-family="Helvetica,sans-Serif" font-size="10.00">scalar_initial_value</text>
<text text-anchor="middle" x="214.5" y="-63.5" font-family="Helvetica,sans-Serif" font-size="10.00">_problem.cc</text>
</a>
</g>
</g>
<!-- Node6&#45;&gt;Node9 -->
<g id="edge8" class="edge">
<title>Node6&#45;&gt;Node9</title>
<path fill="none" stroke="midnightblue" d="M165.65,-116.6C176.52,-106.78 189.2,-95.34 198.91,-86.58"/>
<polygon fill="midnightblue" stroke="midnightblue" points="163.2,-114.1 158.12,-123.4 167.89,-119.29 163.2,-114.1"/>
</g>
<!-- Node8 -->
<g id="node8" class="node">
<title>Node8</title>
<g id="a_node8"><a xlink:href="antiderivative__function_8cc.html" target="_top" xlink:title=" ">
<polygon fill="white" stroke="black" points="0,-0.5 0,-19.5 143,-19.5 143,-0.5 0,-0.5"/>
<text text-anchor="middle" x="71.5" y="-7.5" font-family="Helvetica,sans-Serif" font-size="10.00">antiderivative_function.cc</text>
</a>
</g>
</g>
<!-- Node7&#45;&gt;Node8 -->
<g id="edge7" class="edge">
<title>Node7&#45;&gt;Node8</title>
<path fill="none" stroke="midnightblue" d="M71.5,-51.82C71.5,-41 71.5,-27.9 71.5,-19.51"/>
<polygon fill="midnightblue" stroke="midnightblue" points="68,-51.98 71.5,-61.98 75,-51.98 68,-51.98"/>
</g>
<!-- Node11&#45;&gt;Node10 -->
<g id="edge11" class="edge">
<title>Node11&#45;&gt;Node10</title>
<path fill="none" stroke="midnightblue" d="M373.62,-185.24C392.94,-173.75 419.87,-157.72 436.2,-148.01"/>
<polygon fill="midnightblue" stroke="midnightblue" points="371.63,-182.35 364.83,-190.48 375.21,-188.37 371.63,-182.35"/>
</g>
<!-- Node12 -->
<g id="node12" class="node">
<title>Node12</title>
<g id="a_node12"><a xlink:href="runge__kutta3__integrator_8cc.html" target="_top" xlink:title=" ">
<polygon fill="white" stroke="black" points="216.5,-129 216.5,-148 364.5,-148 364.5,-129 216.5,-129"/>
<text text-anchor="middle" x="290.5" y="-136" font-family="Helvetica,sans-Serif" font-size="10.00">runge_kutta3_integrator.cc</text>
</a>
</g>
</g>
<!-- Node11&#45;&gt;Node12 -->
<g id="edge12" class="edge">
<title>Node11&#45;&gt;Node12</title>
<path fill="none" stroke="midnightblue" d="M334.69,-183.32C323.29,-172.02 308.34,-157.19 299.08,-148.01"/>
<polygon fill="midnightblue" stroke="midnightblue" points="332.34,-185.92 341.9,-190.48 337.27,-180.95 332.34,-185.92"/>
</g>
<!-- Node14&#45;&gt;Node10 -->
<g id="edge15" class="edge">
<title>Node14&#45;&gt;Node10</title>
<path fill="none" stroke="midnightblue" d="M450.5,-236.16C450.5,-210.87 450.5,-166.94 450.5,-148.28"/>
<polygon fill="midnightblue" stroke="midnightblue" points="447,-236.32 450.5,-246.32 454,-236.32 447,-236.32"/>
</g>
<!-- Node14&#45;&gt;Node15 -->
<g id="edge16" class="edge">
<title>Node14&#45;&gt;Node15</title>
<path fill="none" stroke="midnightblue" d="M470.64,-240.1C483.78,-230.38 500.48,-218.03 511.56,-209.83"/>
<polygon fill="midnightblue" stroke="midnightblue" points="468.19,-237.56 462.23,-246.32 472.35,-243.19 468.19,-237.56"/>
</g>
<!-- Node17&#45;&gt;Node3 -->
<g id="edge19" class="edge">
<title>Node17&#45;&gt;Node3</title>
<path fill="none" stroke="midnightblue" d="M398.38,-355.91C357.97,-345.52 298.52,-330.23 262.57,-320.99"/>
<polygon fill="midnightblue" stroke="midnightblue" points="397.67,-359.34 408.22,-358.44 399.41,-352.56 397.67,-359.34"/>
</g>
<!-- Node18 -->
<g id="node18" class="node">
<title>Node18</title>
<g id="a_node18"><a xlink:href="witness__function_8cc.html" target="_top" xlink:title=" ">
<polygon fill="white" stroke="black" points="382,-302.5 382,-321.5 495,-321.5 495,-302.5 382,-302.5"/>
<text text-anchor="middle" x="438.5" y="-309.5" font-family="Helvetica,sans-Serif" font-size="10.00">witness_function.cc</text>
</a>
</g>
</g>
<!-- Node17&#45;&gt;Node18 -->
<g id="edge20" class="edge">
<title>Node17&#45;&gt;Node18</title>
<path fill="none" stroke="midnightblue" d="M440.43,-347.8C439.94,-338.91 439.38,-328.78 438.99,-321.75"/>
<polygon fill="midnightblue" stroke="midnightblue" points="436.96,-348.29 441,-358.08 443.94,-347.9 436.96,-348.29"/>
</g>
</g>
</svg>
