<?xml version="1.0" encoding="UTF-8" standalone="no"?>
<!DOCTYPE svg PUBLIC "-//W3C//DTD SVG 1.1//EN"
 "http://www.w3.org/Graphics/SVG/1.1/DTD/svg11.dtd">
<!-- Generated by graphviz version 2.43.0 (0)
 -->
<!-- Title: road_rulebook.h Pages: 1 -->
<!--zoomable 285 -->
<svg id="main" version="1.1" xmlns="http://www.w3.org/2000/svg" xmlns:xlink="http://www.w3.org/1999/xlink" xml:space="preserve" onload="init(evt)">
<style type="text/css"><![CDATA[
.edge:hover path { stroke: red; }
.edge:hover polygon { stroke: red; fill: red; }
]]></style>
<script type="text/javascript"><![CDATA[
var edges = document.getElementsByTagName('g');
if (edges && edges.length) {
  for (var i=0;i<edges.length;i++) {
    if (edges[i].id.substr(0,4)=='edge') {
      edges[i].setAttribute('class','edge');
    }
  }
}
]]></script>
        <defs>
                <circle id="rim" cx="0" cy="0" r="7"/>
                <circle id="rim2" cx="0" cy="0" r="3.5"/>
                <g id="zoomPlus">
                        <use xlink:href="#rim" fill="#404040">
                                <set attributeName="fill" to="#808080" begin="zoomplus.mouseover" end="zoomplus.mouseout"/>
                        </use>
                        <path d="M-4,0h8M0,-4v8" fill="none" stroke="white" stroke-width="1.5" pointer-events="none"/>
                </g>
                <g id="zoomMin">
                        <use xlink:href="#rim" fill="#404040">
                                <set attributeName="fill" to="#808080" begin="zoomminus.mouseover" end="zoomminus.mouseout"/>
                        </use>
                        <path d="M-4,0h8" fill="none" stroke="white" stroke-width="1.5" pointer-events="none"/>
                </g>
                <g id="dirArrow">
                        <path fill="none" stroke="white" stroke-width="1.5" d="M0,-3.0v7 M-2.5,-0.5L0,-3.0L2.5,-0.5"/>
                </g>
               <g id="resetDef">
                       <use xlink:href="#rim2" fill="#404040">
                               <set attributeName="fill" to="#808080" begin="reset.mouseover" end="reset.mouseout"/>
                       </use>
               </g>
        </defs>

<script type="text/javascript">
var viewWidth = 2358;
var viewHeight = 285;
var sectionId = 'dynsection-1';
</script>
<script xlink:href="svgpan.js"/>
<svg id="graph" class="graph">
<g id="viewport">
<title>road_rulebook.h</title>
<polygon fill="white" stroke="transparent" points="-4,4 -4,-281 2353.5,-281 2353.5,4 -4,4"/>
<!-- Node1 -->
<g id="node1" class="node">
<title>Node1</title>
<g id="a_node1"><a xlink:title=" ">
<polygon fill="#bfbfbf" stroke="black" points="1341.5,-257.5 1341.5,-276.5 1436.5,-276.5 1436.5,-257.5 1341.5,-257.5"/>
<text text-anchor="middle" x="1389" y="-264.5" font-family="Helvetica,sans-Serif" font-size="10.00">road_rulebook.h</text>
</a>
</g>
</g>
<!-- Node2 -->
<g id="node2" class="node">
<title>Node2</title>
<g id="a_node2"><a xlink:href="road__network_8h.html" target="_top" xlink:title=" ">
<polygon fill="white" stroke="black" points="455,-196 455,-215 547,-215 547,-196 455,-196"/>
<text text-anchor="middle" x="501" y="-203" font-family="Helvetica,sans-Serif" font-size="10.00">road_network.h</text>
</a>
</g>
</g>
<!-- Node1&#45;&gt;Node2 -->
<g id="edge1" class="edge">
<title>Node1&#45;&gt;Node2</title>
<path fill="none" stroke="midnightblue" d="M1330.83,-262.1C1165.67,-251.04 696.27,-219.58 547.1,-209.59"/>
<polygon fill="midnightblue" stroke="midnightblue" points="1331.05,-265.62 1341.26,-262.8 1331.51,-258.64 1331.05,-265.62"/>
</g>
<!-- Node13 -->
<g id="node13" class="node">
<title>Node13</title>
<g id="a_node13"><a xlink:href="mock_8h.html" target="_top" xlink:title=" ">
<polygon fill="white" stroke="black" points="803.5,-129 803.5,-148 856.5,-148 856.5,-129 803.5,-129"/>
<text text-anchor="middle" x="830" y="-136" font-family="Helvetica,sans-Serif" font-size="10.00">mock.h</text>
</a>
</g>
</g>
<!-- Node1&#45;&gt;Node13 -->
<g id="edge49" class="edge">
<title>Node1&#45;&gt;Node13</title>
<path fill="none" stroke="midnightblue" d="M1330.95,-266.4C1216.84,-266.27 967.98,-261.21 894,-221 863.02,-204.16 841.96,-165.33 833.79,-148.06"/>
<polygon fill="midnightblue" stroke="midnightblue" points="1331.23,-269.9 1341.23,-266.4 1331.23,-262.9 1331.23,-269.9"/>
</g>
<!-- Node20 -->
<g id="node20" class="node">
<title>Node20</title>
<g id="a_node20"><a xlink:href="intersection__book__loader_8h.html" target="_top" xlink:title=" ">
<polygon fill="white" stroke="black" points="903.5,-196 903.5,-215 1052.5,-215 1052.5,-196 903.5,-196"/>
<text text-anchor="middle" x="978" y="-203" font-family="Helvetica,sans-Serif" font-size="10.00">intersection_book_loader.h</text>
</a>
</g>
</g>
<!-- Node1&#45;&gt;Node20 -->
<g id="edge24" class="edge">
<title>Node1&#45;&gt;Node20</title>
<path fill="none" stroke="midnightblue" d="M1331.34,-257.65C1253.51,-246.38 1115.55,-226.41 1037.02,-215.04"/>
<polygon fill="midnightblue" stroke="midnightblue" points="1331.05,-261.15 1341.45,-259.12 1332.06,-254.22 1331.05,-261.15"/>
</g>
<!-- Node22 -->
<g id="node22" class="node">
<title>Node22</title>
<g id="a_node22"><a xlink:href="manual__discrete__value__rule__state__provider_8h.html" target="_top" xlink:title=" ">
<polygon fill="white" stroke="black" points="1184,-190.5 1184,-220.5 1314,-220.5 1314,-190.5 1184,-190.5"/>
<text text-anchor="start" x="1192" y="-208.5" font-family="Helvetica,sans-Serif" font-size="10.00">manual_discrete_value</text>
<text text-anchor="middle" x="1249" y="-197.5" font-family="Helvetica,sans-Serif" font-size="10.00">_rule_state_provider.h</text>
</a>
</g>
</g>
<!-- Node1&#45;&gt;Node22 -->
<g id="edge26" class="edge">
<title>Node1&#45;&gt;Node22</title>
<path fill="none" stroke="midnightblue" d="M1359.5,-253.46C1336.82,-243.82 1305.5,-230.51 1282,-220.52"/>
<polygon fill="midnightblue" stroke="midnightblue" points="1358.37,-256.78 1368.94,-257.48 1361.11,-250.34 1358.37,-256.78"/>
</g>
<!-- Node23 -->
<g id="node23" class="node">
<title>Node23</title>
<g id="a_node23"><a xlink:href="phased__discrete__rule__state__provider_8h.html" target="_top" xlink:title=" ">
<polygon fill="white" stroke="black" points="1046,-123.5 1046,-153.5 1166,-153.5 1166,-123.5 1046,-123.5"/>
<text text-anchor="start" x="1054" y="-141.5" font-family="Helvetica,sans-Serif" font-size="10.00">phased_discrete_rule</text>
<text text-anchor="middle" x="1106" y="-130.5" font-family="Helvetica,sans-Serif" font-size="10.00">_state_provider.h</text>
</a>
</g>
</g>
<!-- Node1&#45;&gt;Node23 -->
<g id="edge39" class="edge">
<title>Node1&#45;&gt;Node23</title>
<path fill="none" stroke="midnightblue" d="M1330.9,-263.95C1285.62,-260.05 1222.64,-249.41 1175,-221 1146.98,-204.29 1124.87,-172.03 1113.79,-153.51"/>
<polygon fill="midnightblue" stroke="midnightblue" points="1330.9,-267.46 1341.14,-264.74 1331.44,-260.48 1330.9,-267.46"/>
</g>
<!-- Node26 -->
<g id="node26" class="node">
<title>Node26</title>
<g id="a_node26"><a xlink:href="manual__range__value__rule__state__provider_8h.html" target="_top" xlink:title=" ">
<polygon fill="white" stroke="black" points="1456.5,-190.5 1456.5,-220.5 1581.5,-220.5 1581.5,-190.5 1456.5,-190.5"/>
<text text-anchor="start" x="1464.5" y="-208.5" font-family="Helvetica,sans-Serif" font-size="10.00">manual_range_value</text>
<text text-anchor="middle" x="1519" y="-197.5" font-family="Helvetica,sans-Serif" font-size="10.00">_rule_state_provider.h</text>
</a>
</g>
</g>
<!-- Node1&#45;&gt;Node26 -->
<g id="edge30" class="edge">
<title>Node1&#45;&gt;Node26</title>
<path fill="none" stroke="midnightblue" d="M1416.97,-253.2C1437.97,-243.58 1466.73,-230.42 1488.36,-220.52"/>
<polygon fill="midnightblue" stroke="midnightblue" points="1415.26,-250.13 1407.63,-257.48 1418.18,-256.5 1415.26,-250.13"/>
</g>
<!-- Node28 -->
<g id="node28" class="node">
<title>Node28</title>
<g id="a_node28"><a xlink:href="manual__rulebook_8h.html" target="_top" xlink:title=" ">
<polygon fill="white" stroke="black" points="1619,-196 1619,-215 1729,-215 1729,-196 1619,-196"/>
<text text-anchor="middle" x="1674" y="-203" font-family="Helvetica,sans-Serif" font-size="10.00">manual_rulebook.h</text>
</a>
</g>
</g>
<!-- Node1&#45;&gt;Node28 -->
<g id="edge32" class="edge">
<title>Node1&#45;&gt;Node28</title>
<path fill="none" stroke="midnightblue" d="M1439.76,-255.4C1495.01,-243.87 1582.27,-225.65 1633.24,-215.01"/>
<polygon fill="midnightblue" stroke="midnightblue" points="1438.91,-252.01 1429.83,-257.48 1440.34,-258.86 1438.91,-252.01"/>
</g>
<!-- Node32 -->
<g id="node32" class="node">
<title>Node32</title>
<g id="a_node32"><a xlink:href="phase__ring__book__loader_8h.html" target="_top" xlink:title=" ">
<polygon fill="white" stroke="black" points="1975,-196 1975,-215 2119,-215 2119,-196 1975,-196"/>
<text text-anchor="middle" x="2047" y="-203" font-family="Helvetica,sans-Serif" font-size="10.00">phase_ring_book_loader.h</text>
</a>
</g>
</g>
<!-- Node1&#45;&gt;Node32 -->
<g id="edge36" class="edge">
<title>Node1&#45;&gt;Node32</title>
<path fill="none" stroke="midnightblue" d="M1446.74,-260.86C1539.98,-252.55 1729.47,-235.62 1890,-221 1917.67,-218.48 1948.08,-215.68 1974.7,-213.22"/>
<polygon fill="midnightblue" stroke="midnightblue" points="1446.32,-257.38 1436.67,-261.76 1446.94,-264.36 1446.32,-257.38"/>
</g>
<!-- Node35 -->
<g id="node35" class="node">
<title>Node35</title>
<g id="a_node35"><a xlink:href="road__rulebook__loader_8h.html" target="_top" xlink:title=" ">
<polygon fill="white" stroke="black" points="1750.5,-196 1750.5,-215 1881.5,-215 1881.5,-196 1750.5,-196"/>
<text text-anchor="middle" x="1816" y="-203" font-family="Helvetica,sans-Serif" font-size="10.00">road_rulebook_loader.h</text>
</a>
</g>
</g>
<!-- Node1&#45;&gt;Node35 -->
<g id="edge40" class="edge">
<title>Node1&#45;&gt;Node35</title>
<path fill="none" stroke="midnightblue" d="M1446.81,-259.54C1516.15,-251.57 1635.82,-237.07 1738,-221 1749.16,-219.25 1761.17,-217.13 1772.34,-215.06"/>
<polygon fill="midnightblue" stroke="midnightblue" points="1446.07,-256.1 1436.54,-260.72 1446.87,-263.06 1446.07,-256.1"/>
</g>
<!-- Node36 -->
<g id="node36" class="node">
<title>Node36</title>
<g id="a_node36"><a xlink:href="rule__filter_8h.html" target="_top" xlink:title=" ">
<polygon fill="white" stroke="black" points="1352.5,-196 1352.5,-215 1425.5,-215 1425.5,-196 1352.5,-196"/>
<text text-anchor="middle" x="1389" y="-203" font-family="Helvetica,sans-Serif" font-size="10.00">rule_filter.h</text>
</a>
</g>
</g>
<!-- Node1&#45;&gt;Node36 -->
<g id="edge43" class="edge">
<title>Node1&#45;&gt;Node36</title>
<path fill="none" stroke="midnightblue" d="M1389,-247.32C1389,-236.5 1389,-223.4 1389,-215.01"/>
<polygon fill="midnightblue" stroke="midnightblue" points="1385.5,-247.48 1389,-257.48 1392.5,-247.48 1385.5,-247.48"/>
</g>
<!-- Node38 -->
<g id="node38" class="node">
<title>Node38</title>
<g id="a_node38"><a xlink:href="simple__rulebook_8h.html" target="_top" xlink:title=" ">
<polygon fill="white" stroke="black" points="2137.5,-196 2137.5,-215 2244.5,-215 2244.5,-196 2137.5,-196"/>
<text text-anchor="middle" x="2191" y="-203" font-family="Helvetica,sans-Serif" font-size="10.00">simple_rulebook.h</text>
</a>
</g>
</g>
<!-- Node1&#45;&gt;Node38 -->
<g id="edge48" class="edge">
<title>Node1&#45;&gt;Node38</title>
<path fill="none" stroke="midnightblue" d="M1446.95,-265.72C1571.99,-264.41 1876.2,-257.39 2128,-221 2138,-219.56 2148.75,-217.33 2158.5,-215.06"/>
<polygon fill="midnightblue" stroke="midnightblue" points="1446.8,-262.22 1436.83,-265.82 1446.86,-269.22 1446.8,-262.22"/>
</g>
<!-- Node3 -->
<g id="node3" class="node">
<title>Node3</title>
<g id="a_node3"><a xlink:href="road__network__validator_8h.html" target="_top" xlink:title=" ">
<polygon fill="white" stroke="black" points="237.5,-129 237.5,-148 378.5,-148 378.5,-129 237.5,-129"/>
<text text-anchor="middle" x="308" y="-136" font-family="Helvetica,sans-Serif" font-size="10.00">road_network_validator.h</text>
</a>
</g>
</g>
<!-- Node2&#45;&gt;Node3 -->
<g id="edge2" class="edge">
<title>Node2&#45;&gt;Node3</title>
<path fill="none" stroke="midnightblue" d="M465.67,-192.6C427.4,-179.71 367.3,-159.47 333.43,-148.06"/>
<polygon fill="midnightblue" stroke="midnightblue" points="464.78,-195.99 475.37,-195.87 467.01,-189.36 464.78,-195.99"/>
</g>
<!-- Node5 -->
<g id="node5" class="node">
<title>Node5</title>
<g id="a_node5"><a xlink:href="create__road__network_8h.html" target="_top" xlink:title=" ">
<polygon fill="white" stroke="black" points="662,-62 662,-81 790,-81 790,-62 662,-62"/>
<text text-anchor="middle" x="726" y="-69" font-family="Helvetica,sans-Serif" font-size="10.00">create_road_network.h</text>
</a>
</g>
</g>
<!-- Node2&#45;&gt;Node5 -->
<g id="edge4" class="edge">
<title>Node2&#45;&gt;Node5</title>
<path fill="none" stroke="midnightblue" d="M532.55,-192.06C554.64,-182.81 584.47,-169.19 609,-154 627.82,-142.34 630.02,-135.92 648,-123 669.75,-107.37 696.09,-90.78 711.92,-81.04"/>
<polygon fill="midnightblue" stroke="midnightblue" points="531.21,-188.83 523.29,-195.88 533.87,-195.3 531.21,-188.83"/>
</g>
<!-- Node7 -->
<g id="node7" class="node">
<title>Node7</title>
<g id="a_node7"><a xlink:href="road__network__loader_8h.html" target="_top" xlink:title=" ">
<polygon fill="white" stroke="black" points="657,-129 657,-148 785,-148 785,-129 657,-129"/>
<text text-anchor="middle" x="721" y="-136" font-family="Helvetica,sans-Serif" font-size="10.00">road_network_loader.h</text>
</a>
</g>
</g>
<!-- Node2&#45;&gt;Node7 -->
<g id="edge6" class="edge">
<title>Node2&#45;&gt;Node7</title>
<path fill="none" stroke="midnightblue" d="M539.89,-193.01C583.43,-180.15 652.99,-159.59 692.02,-148.06"/>
<polygon fill="midnightblue" stroke="midnightblue" points="538.81,-189.68 530.21,-195.87 540.8,-196.39 538.81,-189.68"/>
</g>
<!-- Node8 -->
<g id="node8" class="node">
<title>Node8</title>
<g id="a_node8"><a xlink:href="routing_2phase_8h.html" target="_top" xlink:title=" ">
<polygon fill="white" stroke="black" points="94.5,-129 94.5,-148 149.5,-148 149.5,-129 94.5,-129"/>
<text text-anchor="middle" x="122" y="-136" font-family="Helvetica,sans-Serif" font-size="10.00">phase.h</text>
</a>
</g>
</g>
<!-- Node2&#45;&gt;Node8 -->
<g id="edge8" class="edge">
<title>Node2&#45;&gt;Node8</title>
<path fill="none" stroke="midnightblue" d="M444.97,-195.9C383.35,-186.3 281.45,-169.99 194,-154 179.32,-151.32 163.02,-148.06 149.65,-145.31"/>
<polygon fill="midnightblue" stroke="midnightblue" points="444.46,-199.36 454.88,-197.44 445.54,-192.44 444.46,-199.36"/>
</g>
<!-- Node9 -->
<g id="node9" class="node">
<title>Node9</title>
<g id="a_node9"><a xlink:href="route_8h.html" target="_top" xlink:title=" ">
<polygon fill="white" stroke="black" points="12.5,-62 12.5,-81 63.5,-81 63.5,-62 12.5,-62"/>
<text text-anchor="middle" x="38" y="-69" font-family="Helvetica,sans-Serif" font-size="10.00">route.h</text>
</a>
</g>
</g>
<!-- Node2&#45;&gt;Node9 -->
<g id="edge14" class="edge">
<title>Node2&#45;&gt;Node9</title>
<path fill="none" stroke="midnightblue" d="M444.6,-203.78C344.95,-201.52 142.8,-192.22 85,-154 58.43,-136.43 45.07,-98.34 40.21,-81.18"/>
<polygon fill="midnightblue" stroke="midnightblue" points="444.71,-207.28 454.78,-203.99 444.86,-200.29 444.71,-207.28"/>
</g>
<!-- Node10 -->
<g id="node10" class="node">
<title>Node10</title>
<g id="a_node10"><a xlink:href="router_8h.html" target="_top" xlink:title=" ">
<polygon fill="white" stroke="black" points="74.5,-0.5 74.5,-19.5 129.5,-19.5 129.5,-0.5 74.5,-0.5"/>
<text text-anchor="middle" x="102" y="-7.5" font-family="Helvetica,sans-Serif" font-size="10.00">router.h</text>
</a>
</g>
</g>
<!-- Node2&#45;&gt;Node10 -->
<g id="edge15" class="edge">
<title>Node2&#45;&gt;Node10</title>
<path fill="none" stroke="midnightblue" d="M444.86,-200.42C374.88,-194.28 260.51,-180.46 228,-154 191.51,-124.31 219.66,-90.8 188,-56 172.13,-38.55 147.89,-26.73 129.19,-19.6"/>
<polygon fill="midnightblue" stroke="midnightblue" points="444.59,-203.91 454.85,-201.27 445.18,-196.93 444.59,-203.91"/>
</g>
<!-- Node2&#45;&gt;Node13 -->
<g id="edge16" class="edge">
<title>Node2&#45;&gt;Node13</title>
<path fill="none" stroke="midnightblue" d="M557.05,-198.43C616.61,-191.15 713.15,-176.97 794,-154 799.57,-152.42 805.47,-150.26 810.83,-148.1"/>
<polygon fill="midnightblue" stroke="midnightblue" points="556.61,-194.96 547.1,-199.62 557.44,-201.91 556.61,-194.96"/>
</g>
<!-- Node15 -->
<g id="node15" class="node">
<title>Node15</title>
<g id="a_node15"><a xlink:href="generate__obj_8h.html" target="_top" xlink:title=" ">
<polygon fill="white" stroke="black" points="511.5,-129 511.5,-148 600.5,-148 600.5,-129 511.5,-129"/>
<text text-anchor="middle" x="556" y="-136" font-family="Helvetica,sans-Serif" font-size="10.00">generate_obj.h</text>
</a>
</g>
</g>
<!-- Node2&#45;&gt;Node15 -->
<g id="edge18" class="edge">
<title>Node2&#45;&gt;Node15</title>
<path fill="none" stroke="midnightblue" d="M515.16,-187.77C525.88,-175.1 540.18,-158.2 548.7,-148.13"/>
<polygon fill="midnightblue" stroke="midnightblue" points="512.21,-185.84 508.42,-195.73 517.55,-190.36 512.21,-185.84"/>
</g>
<!-- Node19 -->
<g id="node19" class="node">
<title>Node19</title>
<g id="a_node19"><a xlink:href="road__network_8cc.html" target="_top" xlink:title=" ">
<polygon fill="white" stroke="black" points="396.5,-129 396.5,-148 493.5,-148 493.5,-129 396.5,-129"/>
<text text-anchor="middle" x="445" y="-136" font-family="Helvetica,sans-Serif" font-size="10.00">road_network.cc</text>
</a>
</g>
</g>
<!-- Node2&#45;&gt;Node19 -->
<g id="edge23" class="edge">
<title>Node2&#45;&gt;Node19</title>
<path fill="none" stroke="midnightblue" d="M486.9,-188.13C475.95,-175.42 461.2,-158.3 452.43,-148.13"/>
<polygon fill="midnightblue" stroke="midnightblue" points="484.27,-190.44 493.45,-195.73 489.57,-185.87 484.27,-190.44"/>
</g>
<!-- Node4 -->
<g id="node4" class="node">
<title>Node4</title>
<g id="a_node4"><a xlink:href="road__network__validator_8cc.html" target="_top" xlink:title=" ">
<polygon fill="white" stroke="black" points="236,-62 236,-81 382,-81 382,-62 236,-62"/>
<text text-anchor="middle" x="309" y="-69" font-family="Helvetica,sans-Serif" font-size="10.00">road_network_validator.cc</text>
</a>
</g>
</g>
<!-- Node3&#45;&gt;Node4 -->
<g id="edge3" class="edge">
<title>Node3&#45;&gt;Node4</title>
<path fill="none" stroke="midnightblue" d="M308.29,-118.54C308.48,-106.17 308.72,-90.62 308.87,-81.13"/>
<polygon fill="midnightblue" stroke="midnightblue" points="304.79,-118.68 308.13,-128.73 311.79,-118.79 304.79,-118.68"/>
</g>
<!-- Node6 -->
<g id="node6" class="node">
<title>Node6</title>
<g id="a_node6"><a xlink:href="create__road__network_8cc.html" target="_top" xlink:title=" ">
<polygon fill="white" stroke="black" points="659.5,-0.5 659.5,-19.5 792.5,-19.5 792.5,-0.5 659.5,-0.5"/>
<text text-anchor="middle" x="726" y="-7.5" font-family="Helvetica,sans-Serif" font-size="10.00">create_road_network.cc</text>
</a>
</g>
</g>
<!-- Node5&#45;&gt;Node6 -->
<g id="edge5" class="edge">
<title>Node5&#45;&gt;Node6</title>
<path fill="none" stroke="midnightblue" d="M726,-51.82C726,-41 726,-27.9 726,-19.51"/>
<polygon fill="midnightblue" stroke="midnightblue" points="722.5,-51.98 726,-61.98 729.5,-51.98 722.5,-51.98"/>
</g>
<!-- Node7&#45;&gt;Node5 -->
<g id="edge7" class="edge">
<title>Node7&#45;&gt;Node5</title>
<path fill="none" stroke="midnightblue" d="M722.46,-118.54C723.41,-106.17 724.61,-90.62 725.34,-81.13"/>
<polygon fill="midnightblue" stroke="midnightblue" points="718.95,-118.49 721.67,-128.73 725.93,-119.03 718.95,-118.49"/>
</g>
<!-- Node8&#45;&gt;Node9 -->
<g id="edge9" class="edge">
<title>Node8&#45;&gt;Node9</title>
<path fill="none" stroke="midnightblue" d="M102.7,-122.57C86.12,-109.74 62.79,-91.69 49.15,-81.13"/>
<polygon fill="midnightblue" stroke="midnightblue" points="100.62,-125.38 110.67,-128.73 104.9,-119.85 100.62,-125.38"/>
</g>
<!-- Node8&#45;&gt;Node10 -->
<g id="edge12" class="edge">
<title>Node8&#45;&gt;Node10</title>
<path fill="none" stroke="midnightblue" d="M117.53,-119.05C115.34,-109.53 112.79,-97.69 111,-87 106.96,-62.89 104.08,-34.18 102.78,-19.93"/>
<polygon fill="midnightblue" stroke="midnightblue" points="114.17,-120.04 119.88,-128.97 120.98,-118.43 114.17,-120.04"/>
</g>
<!-- Node12 -->
<g id="node12" class="node">
<title>Node12</title>
<g id="a_node12"><a xlink:href="routing_2phase_8cc.html" target="_top" xlink:title=" ">
<polygon fill="white" stroke="black" points="120.5,-62 120.5,-81 179.5,-81 179.5,-62 120.5,-62"/>
<text text-anchor="middle" x="150" y="-69" font-family="Helvetica,sans-Serif" font-size="10.00">phase.cc</text>
</a>
</g>
</g>
<!-- Node8&#45;&gt;Node12 -->
<g id="edge13" class="edge">
<title>Node8&#45;&gt;Node12</title>
<path fill="none" stroke="midnightblue" d="M129.84,-119.29C135.22,-106.81 142.11,-90.81 146.28,-81.13"/>
<polygon fill="midnightblue" stroke="midnightblue" points="126.52,-118.16 125.78,-128.73 132.95,-120.93 126.52,-118.16"/>
</g>
<!-- Node9&#45;&gt;Node10 -->
<g id="edge10" class="edge">
<title>Node9&#45;&gt;Node10</title>
<path fill="none" stroke="midnightblue" d="M54.51,-55.15C66.71,-43.81 82.87,-28.78 92.85,-19.51"/>
<polygon fill="midnightblue" stroke="midnightblue" points="52.11,-52.6 47.17,-61.98 56.88,-57.73 52.11,-52.6"/>
</g>
<!-- Node11 -->
<g id="node11" class="node">
<title>Node11</title>
<g id="a_node11"><a xlink:href="route_8cc.html" target="_top" xlink:title=" ">
<polygon fill="white" stroke="black" points="0,-0.5 0,-19.5 56,-19.5 56,-0.5 0,-0.5"/>
<text text-anchor="middle" x="28" y="-7.5" font-family="Helvetica,sans-Serif" font-size="10.00">route.cc</text>
</a>
</g>
</g>
<!-- Node9&#45;&gt;Node11 -->
<g id="edge11" class="edge">
<title>Node9&#45;&gt;Node11</title>
<path fill="none" stroke="midnightblue" d="M34.86,-51.82C33.04,-41 30.84,-27.9 29.43,-19.51"/>
<polygon fill="midnightblue" stroke="midnightblue" points="31.46,-52.69 36.57,-61.98 38.36,-51.53 31.46,-52.69"/>
</g>
<!-- Node14 -->
<g id="node14" class="node">
<title>Node14</title>
<g id="a_node14"><a xlink:href="mock_8cc.html" target="_top" xlink:title=" ">
<polygon fill="white" stroke="black" points="808.5,-62 808.5,-81 865.5,-81 865.5,-62 808.5,-62"/>
<text text-anchor="middle" x="837" y="-69" font-family="Helvetica,sans-Serif" font-size="10.00">mock.cc</text>
</a>
</g>
</g>
<!-- Node13&#45;&gt;Node14 -->
<g id="edge17" class="edge">
<title>Node13&#45;&gt;Node14</title>
<path fill="none" stroke="midnightblue" d="M832.04,-118.54C833.37,-106.17 835.05,-90.62 836.07,-81.13"/>
<polygon fill="midnightblue" stroke="midnightblue" points="828.53,-118.42 830.94,-128.73 835.49,-119.17 828.53,-118.42"/>
</g>
<!-- Node16 -->
<g id="node16" class="node">
<title>Node16</title>
<g id="a_node16"><a xlink:href="generate__urdf_8h.html" target="_top" xlink:title=" ">
<polygon fill="white" stroke="black" points="550.5,-62 550.5,-81 643.5,-81 643.5,-62 550.5,-62"/>
<text text-anchor="middle" x="597" y="-69" font-family="Helvetica,sans-Serif" font-size="10.00">generate_urdf.h</text>
</a>
</g>
</g>
<!-- Node15&#45;&gt;Node16 -->
<g id="edge19" class="edge">
<title>Node15&#45;&gt;Node16</title>
<path fill="none" stroke="midnightblue" d="M567.02,-120.03C574.95,-107.45 585.33,-91.01 591.56,-81.13"/>
<polygon fill="midnightblue" stroke="midnightblue" points="563.9,-118.41 561.53,-128.73 569.82,-122.14 563.9,-118.41"/>
</g>
<!-- Node17 -->
<g id="node17" class="node">
<title>Node17</title>
<g id="a_node17"><a xlink:href="generate__urdf_8cc.html" target="_top" xlink:title=" ">
<polygon fill="white" stroke="black" points="452,-0.5 452,-19.5 550,-19.5 550,-0.5 452,-0.5"/>
<text text-anchor="middle" x="501" y="-7.5" font-family="Helvetica,sans-Serif" font-size="10.00">generate_urdf.cc</text>
</a>
</g>
</g>
<!-- Node15&#45;&gt;Node17 -->
<g id="edge22" class="edge">
<title>Node15&#45;&gt;Node17</title>
<path fill="none" stroke="midnightblue" d="M513.24,-126.09C480.36,-116.35 438.93,-101.64 429,-87 421.26,-75.6 422.32,-68.05 429,-56 438.86,-38.21 459.01,-26.52 475.5,-19.53"/>
<polygon fill="midnightblue" stroke="midnightblue" points="512.55,-129.53 523.12,-128.95 514.49,-122.81 512.55,-129.53"/>
</g>
<!-- Node18 -->
<g id="node18" class="node">
<title>Node18</title>
<g id="a_node18"><a xlink:href="generate__obj_8cc.html" target="_top" xlink:title=" ">
<polygon fill="white" stroke="black" points="438,-62 438,-81 532,-81 532,-62 438,-62"/>
<text text-anchor="middle" x="485" y="-69" font-family="Helvetica,sans-Serif" font-size="10.00">generate_obj.cc</text>
</a>
</g>
</g>
<!-- Node15&#45;&gt;Node18 -->
<g id="edge21" class="edge">
<title>Node15&#45;&gt;Node18</title>
<path fill="none" stroke="midnightblue" d="M538.91,-121.86C524.95,-109.08 505.74,-91.49 494.42,-81.13"/>
<polygon fill="midnightblue" stroke="midnightblue" points="536.69,-124.56 546.42,-128.73 541.41,-119.4 536.69,-124.56"/>
</g>
<!-- Node16&#45;&gt;Node17 -->
<g id="edge20" class="edge">
<title>Node16&#45;&gt;Node17</title>
<path fill="none" stroke="midnightblue" d="M574.55,-56.59C556.03,-45.1 530.33,-29.18 514.73,-19.51"/>
<polygon fill="midnightblue" stroke="midnightblue" points="572.9,-59.68 583.25,-61.98 576.59,-53.73 572.9,-59.68"/>
</g>
<!-- Node21 -->
<g id="node21" class="node">
<title>Node21</title>
<g id="a_node21"><a xlink:href="intersection__book__loader_8cc.html" target="_top" xlink:title=" ">
<polygon fill="white" stroke="black" points="874.5,-129 874.5,-148 1027.5,-148 1027.5,-129 874.5,-129"/>
<text text-anchor="middle" x="951" y="-136" font-family="Helvetica,sans-Serif" font-size="10.00">intersection_book_loader.cc</text>
</a>
</g>
</g>
<!-- Node20&#45;&gt;Node21 -->
<g id="edge25" class="edge">
<title>Node20&#45;&gt;Node21</title>
<path fill="none" stroke="midnightblue" d="M970.44,-186.29C965.25,-173.81 958.61,-157.81 954.58,-148.13"/>
<polygon fill="midnightblue" stroke="midnightblue" points="967.29,-187.84 974.36,-195.73 973.75,-185.16 967.29,-187.84"/>
</g>
<!-- Node22&#45;&gt;Node23 -->
<g id="edge27" class="edge">
<title>Node22&#45;&gt;Node23</title>
<path fill="none" stroke="midnightblue" d="M1208.59,-186.13C1185.87,-175.8 1157.94,-163.11 1136.97,-153.58"/>
<polygon fill="midnightblue" stroke="midnightblue" points="1207.42,-189.44 1217.97,-190.4 1210.32,-183.07 1207.42,-189.44"/>
</g>
<!-- Node25 -->
<g id="node25" class="node">
<title>Node25</title>
<g id="a_node25"><a xlink:href="manual__discrete__value__rule__state__provider_8cc.html" target="_top" xlink:title=" ">
<polygon fill="white" stroke="black" points="1184,-123.5 1184,-153.5 1314,-153.5 1314,-123.5 1184,-123.5"/>
<text text-anchor="start" x="1192" y="-141.5" font-family="Helvetica,sans-Serif" font-size="10.00">manual_discrete_value</text>
<text text-anchor="middle" x="1249" y="-130.5" font-family="Helvetica,sans-Serif" font-size="10.00">_rule_state_provider.cc</text>
</a>
</g>
</g>
<!-- Node22&#45;&gt;Node25 -->
<g id="edge29" class="edge">
<title>Node22&#45;&gt;Node25</title>
<path fill="none" stroke="midnightblue" d="M1249,-180.11C1249,-171.15 1249,-161.32 1249,-153.58"/>
<polygon fill="midnightblue" stroke="midnightblue" points="1245.5,-180.4 1249,-190.4 1252.5,-180.4 1245.5,-180.4"/>
</g>
<!-- Node24 -->
<g id="node24" class="node">
<title>Node24</title>
<g id="a_node24"><a xlink:href="phased__discrete__rule__state__provider_8cc.html" target="_top" xlink:title=" ">
<polygon fill="white" stroke="black" points="1164,-56.5 1164,-86.5 1284,-86.5 1284,-56.5 1164,-56.5"/>
<text text-anchor="start" x="1172" y="-74.5" font-family="Helvetica,sans-Serif" font-size="10.00">phased_discrete_rule</text>
<text text-anchor="middle" x="1224" y="-63.5" font-family="Helvetica,sans-Serif" font-size="10.00">_state_provider.cc</text>
</a>
</g>
</g>
<!-- Node23&#45;&gt;Node24 -->
<g id="edge28" class="edge">
<title>Node23&#45;&gt;Node24</title>
<path fill="none" stroke="midnightblue" d="M1140.61,-118.44C1159.12,-108.24 1181.52,-95.9 1198.45,-86.58"/>
<polygon fill="midnightblue" stroke="midnightblue" points="1138.67,-115.51 1131.6,-123.4 1142.05,-121.64 1138.67,-115.51"/>
</g>
<!-- Node27 -->
<g id="node27" class="node">
<title>Node27</title>
<g id="a_node27"><a xlink:href="manual__range__value__rule__state__provider_8cc.html" target="_top" xlink:title=" ">
<polygon fill="white" stroke="black" points="1466,-123.5 1466,-153.5 1596,-153.5 1596,-123.5 1466,-123.5"/>
<text text-anchor="start" x="1474" y="-141.5" font-family="Helvetica,sans-Serif" font-size="10.00">manual_range_value</text>
<text text-anchor="middle" x="1531" y="-130.5" font-family="Helvetica,sans-Serif" font-size="10.00">_rule_state_provider.cc</text>
</a>
</g>
</g>
<!-- Node26&#45;&gt;Node27 -->
<g id="edge31" class="edge">
<title>Node26&#45;&gt;Node27</title>
<path fill="none" stroke="midnightblue" d="M1523.45,-180.4C1525.12,-171.37 1526.96,-161.41 1528.4,-153.58"/>
<polygon fill="midnightblue" stroke="midnightblue" points="1519.98,-179.93 1521.6,-190.4 1526.86,-181.2 1519.98,-179.93"/>
</g>
<!-- Node29 -->
<g id="node29" class="node">
<title>Node29</title>
<g id="a_node29"><a xlink:href="manual__rulebook_8cc.html" target="_top" xlink:title=" ">
<polygon fill="white" stroke="black" points="1614.5,-129 1614.5,-148 1729.5,-148 1729.5,-129 1614.5,-129"/>
<text text-anchor="middle" x="1672" y="-136" font-family="Helvetica,sans-Serif" font-size="10.00">manual_rulebook.cc</text>
</a>
</g>
</g>
<!-- Node28&#45;&gt;Node29 -->
<g id="edge33" class="edge">
<title>Node28&#45;&gt;Node29</title>
<path fill="none" stroke="midnightblue" d="M1673.42,-185.54C1673.04,-173.17 1672.56,-157.62 1672.27,-148.13"/>
<polygon fill="midnightblue" stroke="midnightblue" points="1669.92,-185.85 1673.73,-195.73 1676.92,-185.63 1669.92,-185.85"/>
</g>
<!-- Node30 -->
<g id="node30" class="node">
<title>Node30</title>
<g id="a_node30"><a xlink:href="road__rulebook__loader_8cc.html" target="_top" xlink:title=" ">
<polygon fill="white" stroke="black" points="1748,-129 1748,-148 1884,-148 1884,-129 1748,-129"/>
<text text-anchor="middle" x="1816" y="-136" font-family="Helvetica,sans-Serif" font-size="10.00">road_rulebook_loader.cc</text>
</a>
</g>
</g>
<!-- Node28&#45;&gt;Node30 -->
<g id="edge34" class="edge">
<title>Node28&#45;&gt;Node30</title>
<path fill="none" stroke="midnightblue" d="M1702.15,-191.61C1730.28,-178.74 1772.73,-159.31 1797.07,-148.17"/>
<polygon fill="midnightblue" stroke="midnightblue" points="1700.49,-188.52 1692.86,-195.87 1703.41,-194.89 1700.49,-188.52"/>
</g>
<!-- Node31 -->
<g id="node31" class="node">
<title>Node31</title>
<g id="a_node31"><a xlink:href="road__rulebook__loader__using__rule__registry_8cc.html" target="_top" xlink:title=" ">
<polygon fill="white" stroke="black" points="1902.5,-123.5 1902.5,-153.5 2029.5,-153.5 2029.5,-123.5 1902.5,-123.5"/>
<text text-anchor="start" x="1910.5" y="-141.5" font-family="Helvetica,sans-Serif" font-size="10.00">road_rulebook_loader</text>
<text text-anchor="middle" x="1966" y="-130.5" font-family="Helvetica,sans-Serif" font-size="10.00">_using_rule_registry.cc</text>
</a>
</g>
</g>
<!-- Node28&#45;&gt;Node31 -->
<g id="edge35" class="edge">
<title>Node28&#45;&gt;Node31</title>
<path fill="none" stroke="midnightblue" d="M1722.27,-193.75C1771.66,-182.76 1848.64,-165.63 1902.84,-153.56"/>
<polygon fill="midnightblue" stroke="midnightblue" points="1721.47,-190.35 1712.47,-195.94 1723,-197.18 1721.47,-190.35"/>
</g>
<!-- Node33 -->
<g id="node33" class="node">
<title>Node33</title>
<g id="a_node33"><a xlink:href="phase__ring__book__loader_8cc.html" target="_top" xlink:title=" ">
<polygon fill="white" stroke="black" points="2047.5,-129 2047.5,-148 2196.5,-148 2196.5,-129 2047.5,-129"/>
<text text-anchor="middle" x="2122" y="-136" font-family="Helvetica,sans-Serif" font-size="10.00">phase_ring_book_loader.cc</text>
</a>
</g>
</g>
<!-- Node32&#45;&gt;Node33 -->
<g id="edge37" class="edge">
<title>Node32&#45;&gt;Node33</title>
<path fill="none" stroke="midnightblue" d="M2065.05,-188.86C2079.79,-176.08 2100.09,-158.49 2112.05,-148.13"/>
<polygon fill="midnightblue" stroke="midnightblue" points="2062.38,-186.54 2057.11,-195.73 2066.96,-191.83 2062.38,-186.54"/>
</g>
<!-- Node34 -->
<g id="node34" class="node">
<title>Node34</title>
<g id="a_node34"><a xlink:href="phase__ring__book__loader__old__rules_8cc.html" target="_top" xlink:title=" ">
<polygon fill="white" stroke="black" points="2214.5,-123.5 2214.5,-153.5 2349.5,-153.5 2349.5,-123.5 2214.5,-123.5"/>
<text text-anchor="start" x="2222.5" y="-141.5" font-family="Helvetica,sans-Serif" font-size="10.00">phase_ring_book_loader</text>
<text text-anchor="middle" x="2282" y="-130.5" font-family="Helvetica,sans-Serif" font-size="10.00">_old_rules.cc</text>
</a>
</g>
</g>
<!-- Node32&#45;&gt;Node34 -->
<g id="edge38" class="edge">
<title>Node32&#45;&gt;Node34</title>
<path fill="none" stroke="midnightblue" d="M2087.86,-193.2C2127.7,-182.18 2188.38,-165.39 2231.28,-153.53"/>
<polygon fill="midnightblue" stroke="midnightblue" points="2086.91,-189.83 2078.21,-195.87 2088.78,-196.58 2086.91,-189.83"/>
</g>
<!-- Node35&#45;&gt;Node30 -->
<g id="edge41" class="edge">
<title>Node35&#45;&gt;Node30</title>
<path fill="none" stroke="midnightblue" d="M1816,-185.54C1816,-173.17 1816,-157.62 1816,-148.13"/>
<polygon fill="midnightblue" stroke="midnightblue" points="1812.5,-185.73 1816,-195.73 1819.5,-185.73 1812.5,-185.73"/>
</g>
<!-- Node35&#45;&gt;Node31 -->
<g id="edge42" class="edge">
<title>Node35&#45;&gt;Node31</title>
<path fill="none" stroke="midnightblue" d="M1845.38,-191.77C1870.77,-180.77 1907.4,-164.89 1933.63,-153.53"/>
<polygon fill="midnightblue" stroke="midnightblue" points="1843.7,-188.68 1835.92,-195.87 1846.49,-195.1 1843.7,-188.68"/>
</g>
<!-- Node36&#45;&gt;Node24 -->
<g id="edge46" class="edge">
<title>Node36&#45;&gt;Node24</title>
<path fill="none" stroke="midnightblue" d="M1378.11,-187.11C1366.26,-169.27 1345.92,-141.57 1323,-123 1304.11,-107.7 1279.83,-95.22 1260.05,-86.5"/>
<polygon fill="midnightblue" stroke="midnightblue" points="1375.41,-189.39 1383.78,-195.89 1381.29,-185.59 1375.41,-189.39"/>
</g>
<!-- Node36&#45;&gt;Node25 -->
<g id="edge44" class="edge">
<title>Node36&#45;&gt;Node25</title>
<path fill="none" stroke="midnightblue" d="M1361.26,-191.62C1337.58,-180.63 1303.58,-164.84 1279.21,-153.53"/>
<polygon fill="midnightblue" stroke="midnightblue" points="1359.87,-194.83 1370.41,-195.87 1362.81,-188.48 1359.87,-194.83"/>
</g>
<!-- Node36&#45;&gt;Node27 -->
<g id="edge45" class="edge">
<title>Node36&#45;&gt;Node27</title>
<path fill="none" stroke="midnightblue" d="M1417.14,-191.62C1441.16,-180.63 1475.64,-164.84 1500.35,-153.53"/>
<polygon fill="midnightblue" stroke="midnightblue" points="1415.49,-188.52 1407.86,-195.87 1418.41,-194.89 1415.49,-188.52"/>
</g>
<!-- Node37 -->
<g id="node37" class="node">
<title>Node37</title>
<g id="a_node37"><a xlink:href="rule__filter_8cc.html" target="_top" xlink:title=" ">
<polygon fill="white" stroke="black" points="1370.5,-129 1370.5,-148 1447.5,-148 1447.5,-129 1370.5,-129"/>
<text text-anchor="middle" x="1409" y="-136" font-family="Helvetica,sans-Serif" font-size="10.00">rule_filter.cc</text>
</a>
</g>
</g>
<!-- Node36&#45;&gt;Node37 -->
<g id="edge47" class="edge">
<title>Node36&#45;&gt;Node37</title>
<path fill="none" stroke="midnightblue" d="M1394.72,-185.91C1398.54,-173.49 1403.39,-157.72 1406.35,-148.13"/>
<polygon fill="midnightblue" stroke="midnightblue" points="1391.29,-185.15 1391.7,-195.73 1397.98,-187.21 1391.29,-185.15"/>
</g>
</g>
</svg>
        <g id="navigator" transform="translate(0 0)" fill="#404254">
                <rect fill="#f2f5e9" fill-opacity="0.5" stroke="#606060" stroke-width=".5" x="0" y="0" width="60" height="60"/>
                <use id="zoomplus" xlink:href="#zoomPlus" x="17" y="9" onmousedown="handleZoom(evt,'in')"/>
                <use id="zoomminus" xlink:href="#zoomMin" x="42" y="9" onmousedown="handleZoom(evt,'out')"/>
                <use id="reset" xlink:href="#resetDef" x="30" y="36" onmousedown="handleReset()"/>
                <g id="arrowUp" xlink:href="#dirArrow" transform="translate(30 24)" onmousedown="handlePan(0,-1)">
                  <use xlink:href="#rim" fill="#404040">
                        <set attributeName="fill" to="#808080" begin="arrowUp.mouseover" end="arrowUp.mouseout"/>
                  </use>
                  <path fill="none" stroke="white" stroke-width="1.5" d="M0,-3.0v7 M-2.5,-0.5L0,-3.0L2.5,-0.5"/>
                </g>
                <g id="arrowRight" xlink:href="#dirArrow" transform="rotate(90) translate(36 -43)" onmousedown="handlePan(1,0)">
                  <use xlink:href="#rim" fill="#404040">
                        <set attributeName="fill" to="#808080" begin="arrowRight.mouseover" end="arrowRight.mouseout"/>
                  </use>
                  <path fill="none" stroke="white" stroke-width="1.5" d="M0,-3.0v7 M-2.5,-0.5L0,-3.0L2.5,-0.5"/>
                </g>
                <g id="arrowDown" xlink:href="#dirArrow" transform="rotate(180) translate(-30 -48)" onmousedown="handlePan(0,1)">
                  <use xlink:href="#rim" fill="#404040">
                        <set attributeName="fill" to="#808080" begin="arrowDown.mouseover" end="arrowDown.mouseout"/>
                  </use>
                  <path fill="none" stroke="white" stroke-width="1.5" d="M0,-3.0v7 M-2.5,-0.5L0,-3.0L2.5,-0.5"/>
                </g>
                <g id="arrowLeft" xlink:href="#dirArrow" transform="rotate(270) translate(-36 17)" onmousedown="handlePan(-1,0)">
                  <use xlink:href="#rim" fill="#404040">
                        <set attributeName="fill" to="#808080" begin="arrowLeft.mouseover" end="arrowLeft.mouseout"/>
                  </use>
                  <path fill="none" stroke="white" stroke-width="1.5" d="M0,-3.0v7 M-2.5,-0.5L0,-3.0L2.5,-0.5"/>
                </g>
        </g>
        <svg viewBox="0 0 15 15" width="100%" height="30px" preserveAspectRatio="xMaxYMin meet">
         <g id="arrow_out" transform="scale(0.3 0.3)">
          <a xlink:href="road__rulebook_8h__dep__incl_org.svg" target="_base">
           <rect id="button" ry="5" rx="5" y="6" x="6" height="38" width="38"
                fill="#f2f5e9" fill-opacity="0.5" stroke="#606060" stroke-width="1.0"/>
           <path id="arrow"
             d="M 11.500037,31.436501 C 11.940474,20.09759 22.043105,11.32322 32.158766,21.979434 L 37.068811,17.246167 C 37.068811,17.246167 37.088388,32 37.088388,32 L 22.160133,31.978069 C 22.160133,31.978069 26.997745,27.140456 26.997745,27.140456 C 18.528582,18.264221 13.291696,25.230495 11.500037,31.436501 z"
             style="fill:#404040;"/>
          </a>
         </g>
        </svg>
</svg>
