<?xml version="1.0" encoding="UTF-8" standalone="no"?>
<!DOCTYPE svg PUBLIC "-//W3C//DTD SVG 1.1//EN"
 "http://www.w3.org/Graphics/SVG/1.1/DTD/svg11.dtd">
<!-- Generated by graphviz version 2.43.0 (0)
 -->
<!-- Title: rule.h Pages: 1 -->
<!--zoomable 632 -->
<svg id="main" version="1.1" xmlns="http://www.w3.org/2000/svg" xmlns:xlink="http://www.w3.org/1999/xlink" xml:space="preserve" onload="init(evt)">
<style type="text/css"><![CDATA[
.edge:hover path { stroke: red; }
.edge:hover polygon { stroke: red; fill: red; }
]]></style>
<script type="text/javascript"><![CDATA[
var edges = document.getElementsByTagName('g');
if (edges && edges.length) {
  for (var i=0;i<edges.length;i++) {
    if (edges[i].id.substr(0,4)=='edge') {
      edges[i].setAttribute('class','edge');
    }
  }
}
]]></script>
        <defs>
                <circle id="rim" cx="0" cy="0" r="7"/>
                <circle id="rim2" cx="0" cy="0" r="3.5"/>
                <g id="zoomPlus">
                        <use xlink:href="#rim" fill="#404040">
                                <set attributeName="fill" to="#808080" begin="zoomplus.mouseover" end="zoomplus.mouseout"/>
                        </use>
                        <path d="M-4,0h8M0,-4v8" fill="none" stroke="white" stroke-width="1.5" pointer-events="none"/>
                </g>
                <g id="zoomMin">
                        <use xlink:href="#rim" fill="#404040">
                                <set attributeName="fill" to="#808080" begin="zoomminus.mouseover" end="zoomminus.mouseout"/>
                        </use>
                        <path d="M-4,0h8" fill="none" stroke="white" stroke-width="1.5" pointer-events="none"/>
                </g>
                <g id="dirArrow">
                        <path fill="none" stroke="white" stroke-width="1.5" d="M0,-3.0v7 M-2.5,-0.5L0,-3.0L2.5,-0.5"/>
                </g>
               <g id="resetDef">
                       <use xlink:href="#rim2" fill="#404040">
                               <set attributeName="fill" to="#808080" begin="reset.mouseover" end="reset.mouseout"/>
                       </use>
               </g>
        </defs>

<script type="text/javascript">
var viewWidth = 1702;
var viewHeight = 632;
var sectionId = 'dynsection-0';
</script>
<script xlink:href="svgpan.js"/>
<svg id="graph" class="graph">
<g id="viewport">
<title>rule.h</title>
<polygon fill="white" stroke="transparent" points="-4,4 -4,-628 1698,-628 1698,4 -4,4"/>
<!-- Node1 -->
<g id="node1" class="node">
<title>Node1</title>
<g id="a_node1"><a xlink:title=" ">
<polygon fill="#bfbfbf" stroke="black" points="797,-604.5 797,-623.5 841,-623.5 841,-604.5 797,-604.5"/>
<text text-anchor="middle" x="819" y="-611.5" font-family="Helvetica,sans-Serif" font-size="10.00">rule.h</text>
</a>
</g>
</g>
<!-- Node2 -->
<g id="node2" class="node">
<title>Node2</title>
<g id="a_node2"><a xlink:title=" ">
<polygon fill="white" stroke="#bfbfbf" points="1586,-118 1586,-137 1650,-137 1650,-118 1586,-118"/>
<text text-anchor="middle" x="1618" y="-125" font-family="Helvetica,sans-Serif" font-size="10.00">algorithm</text>
</a>
</g>
</g>
<!-- Node1&#45;&gt;Node2 -->
<g id="edge1" class="edge">
<title>Node1&#45;&gt;Node2</title>
<path fill="none" stroke="midnightblue" d="M841.39,-612.48C974.49,-609.1 1656,-587.64 1656,-503 1656,-503 1656,-503 1656,-249.5 1656,-211.31 1638.56,-169.33 1627.31,-146.22"/>
<polygon fill="midnightblue" stroke="midnightblue" points="1630.29,-144.36 1622.66,-137.02 1624.04,-147.52 1630.29,-144.36"/>
</g>
<!-- Node3 -->
<g id="node3" class="node">
<title>Node3</title>
<g id="a_node3"><a xlink:title=" ">
<polygon fill="white" stroke="#bfbfbf" points="348,-0.5 348,-19.5 392,-19.5 392,-0.5 348,-0.5"/>
<text text-anchor="middle" x="370" y="-7.5" font-family="Helvetica,sans-Serif" font-size="10.00">string</text>
</a>
</g>
</g>
<!-- Node1&#45;&gt;Node3 -->
<g id="edge2" class="edge">
<title>Node1&#45;&gt;Node3</title>
<path fill="none" stroke="midnightblue" d="M841.24,-612.67C947.88,-610.94 1407.28,-601.63 1546,-568 1615.82,-551.07 1694,-574.84 1694,-503 1694,-503 1694,-503 1694,-126.5 1694,-59.52 604.55,-19.02 402.15,-12.07"/>
<polygon fill="midnightblue" stroke="midnightblue" points="402.26,-8.57 392.15,-11.73 402.02,-15.57 402.26,-8.57"/>
</g>
<!-- Node4 -->
<g id="node4" class="node">
<title>Node4</title>
<g id="a_node4"><a xlink:title=" ">
<polygon fill="white" stroke="#bfbfbf" points="0.5,-241 0.5,-260 47.5,-260 47.5,-241 0.5,-241"/>
<text text-anchor="middle" x="24" y="-248" font-family="Helvetica,sans-Serif" font-size="10.00">vector</text>
</a>
</g>
</g>
<!-- Node1&#45;&gt;Node4 -->
<g id="edge3" class="edge">
<title>Node1&#45;&gt;Node4</title>
<path fill="none" stroke="midnightblue" d="M796.67,-612.42C665.41,-608.7 0,-585.76 0,-503 0,-503 0,-503 0,-383.5 0,-342.31 11.45,-295.04 18.53,-269.75"/>
<polygon fill="midnightblue" stroke="midnightblue" points="21.92,-270.63 21.34,-260.05 15.2,-268.68 21.92,-270.63"/>
</g>
<!-- Node5 -->
<g id="node5" class="node">
<title>Node5</title>
<g id="a_node5"><a xlink:href="regions_8h.html" target="_top" xlink:title=" ">
<polygon fill="white" stroke="black" points="759,-548.5 759,-567.5 879,-567.5 879,-548.5 759,-548.5"/>
<text text-anchor="middle" x="819" y="-555.5" font-family="Helvetica,sans-Serif" font-size="10.00">maliput/api/regions.h</text>
</a>
</g>
</g>
<!-- Node1&#45;&gt;Node5 -->
<g id="edge4" class="edge">
<title>Node1&#45;&gt;Node5</title>
<path fill="none" stroke="midnightblue" d="M819,-604.08C819,-597.01 819,-586.86 819,-577.99"/>
<polygon fill="midnightblue" stroke="midnightblue" points="822.5,-577.75 819,-567.75 815.5,-577.75 822.5,-577.75"/>
</g>
<!-- Node14 -->
<g id="node14" class="node">
<title>Node14</title>
<g id="a_node14"><a xlink:href="maliput__copyable_8h.html" target="_top" xlink:title=" ">
<polygon fill="white" stroke="black" points="930,-235.5 930,-265.5 1070,-265.5 1070,-235.5 930,-235.5"/>
<text text-anchor="start" x="938" y="-253.5" font-family="Helvetica,sans-Serif" font-size="10.00">maliput/common/maliput</text>
<text text-anchor="middle" x="1000" y="-242.5" font-family="Helvetica,sans-Serif" font-size="10.00">_copyable.h</text>
</a>
</g>
</g>
<!-- Node1&#45;&gt;Node14 -->
<g id="edge79" class="edge">
<title>Node1&#45;&gt;Node14</title>
<path fill="none" stroke="midnightblue" d="M840.61,-604.46C874.03,-590.19 938.25,-558.42 975,-512 1030.57,-441.81 1015.41,-325.34 1005.47,-275.42"/>
<polygon fill="midnightblue" stroke="midnightblue" points="1008.88,-274.62 1003.4,-265.55 1002.03,-276.05 1008.88,-274.62"/>
</g>
<!-- Node27 -->
<g id="node27" class="node">
<title>Node27</title>
<g id="a_node27"><a xlink:href="type__specific__identifier_8h.html" target="_top" xlink:title=" ">
<polygon fill="white" stroke="black" points="542,-369.5 542,-399.5 682,-399.5 682,-369.5 542,-369.5"/>
<text text-anchor="start" x="550" y="-387.5" font-family="Helvetica,sans-Serif" font-size="10.00">maliput/api/type_specific</text>
<text text-anchor="middle" x="612" y="-376.5" font-family="Helvetica,sans-Serif" font-size="10.00">_identifier.h</text>
</a>
</g>
</g>
<!-- Node1&#45;&gt;Node27 -->
<g id="edge73" class="edge">
<title>Node1&#45;&gt;Node27</title>
<path fill="none" stroke="midnightblue" d="M796.96,-604.66C762.05,-590.46 693.72,-558.55 652,-512 626.21,-483.23 617.05,-437.85 613.79,-409.98"/>
<polygon fill="midnightblue" stroke="midnightblue" points="617.26,-409.49 612.78,-399.89 610.29,-410.19 617.26,-409.49"/>
</g>
<!-- Node34 -->
<g id="node34" class="node">
<title>Node34</title>
<g id="a_node34"><a xlink:href="unique__id_8h.html" target="_top" xlink:title=" ">
<polygon fill="white" stroke="black" points="86.5,-375 86.5,-394 217.5,-394 217.5,-375 86.5,-375"/>
<text text-anchor="middle" x="152" y="-382" font-family="Helvetica,sans-Serif" font-size="10.00">maliput/api/unique_id.h</text>
</a>
</g>
</g>
<!-- Node1&#45;&gt;Node34 -->
<g id="edge74" class="edge">
<title>Node1&#45;&gt;Node34</title>
<path fill="none" stroke="midnightblue" d="M796.81,-605.43C699.07,-572.09 306.52,-438.2 186.82,-397.38"/>
<polygon fill="midnightblue" stroke="midnightblue" points="187.66,-393.97 177.07,-394.05 185.4,-400.59 187.66,-393.97"/>
</g>
<!-- Node5&#45;&gt;Node4 -->
<g id="edge8" class="edge">
<title>Node5&#45;&gt;Node4</title>
<path fill="none" stroke="midnightblue" d="M758.85,-551.78C600.91,-536.92 179.55,-489.63 77,-400 38.27,-366.15 27.84,-301.97 25.03,-270.24"/>
<polygon fill="midnightblue" stroke="midnightblue" points="28.51,-269.85 24.31,-260.13 21.53,-270.35 28.51,-269.85"/>
</g>
<!-- Node6 -->
<g id="node6" class="node">
<title>Node6</title>
<g id="a_node6"><a xlink:title=" ">
<polygon fill="white" stroke="#bfbfbf" points="1290.5,-241 1290.5,-260 1337.5,-260 1337.5,-241 1290.5,-241"/>
<text text-anchor="middle" x="1314" y="-248" font-family="Helvetica,sans-Serif" font-size="10.00">cmath</text>
</a>
</g>
</g>
<!-- Node5&#45;&gt;Node6 -->
<g id="edge5" class="edge">
<title>Node5&#45;&gt;Node6</title>
<path fill="none" stroke="midnightblue" d="M879.25,-552.19C1030.84,-539.29 1416,-501.18 1416,-447 1416,-447 1416,-447 1416,-383.5 1416,-346.31 1418.81,-332.13 1397,-302 1384.56,-284.82 1364.33,-272.34 1346.95,-264.08"/>
<polygon fill="midnightblue" stroke="midnightblue" points="1348.21,-260.81 1337.65,-259.92 1345.35,-267.2 1348.21,-260.81"/>
</g>
<!-- Node7 -->
<g id="node7" class="node">
<title>Node7</title>
<g id="a_node7"><a xlink:title=" ">
<polygon fill="white" stroke="#bfbfbf" points="890,-492.5 890,-511.5 946,-511.5 946,-492.5 890,-492.5"/>
<text text-anchor="middle" x="918" y="-499.5" font-family="Helvetica,sans-Serif" font-size="10.00">numeric</text>
</a>
</g>
</g>
<!-- Node5&#45;&gt;Node7 -->
<g id="edge6" class="edge">
<title>Node5&#45;&gt;Node7</title>
<path fill="none" stroke="midnightblue" d="M834.91,-548.32C850.64,-539.74 874.94,-526.49 893.21,-516.52"/>
<polygon fill="midnightblue" stroke="midnightblue" points="895.03,-519.52 902.13,-511.65 891.68,-513.37 895.03,-519.52"/>
</g>
<!-- Node8 -->
<g id="node8" class="node">
<title>Node8</title>
<g id="a_node8"><a xlink:title=" ">
<polygon fill="white" stroke="#bfbfbf" points="780,-241 780,-260 836,-260 836,-241 780,-241"/>
<text text-anchor="middle" x="808" y="-248" font-family="Helvetica,sans-Serif" font-size="10.00">optional</text>
</a>
</g>
</g>
<!-- Node5&#45;&gt;Node8 -->
<g id="edge7" class="edge">
<title>Node5&#45;&gt;Node8</title>
<path fill="none" stroke="midnightblue" d="M798.78,-548.49C784.23,-541.17 765.7,-529.06 757,-512 714.28,-428.2 772.1,-312.44 797.29,-268.95"/>
<polygon fill="midnightblue" stroke="midnightblue" points="800.42,-270.53 802.53,-260.15 794.41,-266.95 800.42,-270.53"/>
</g>
<!-- Node9 -->
<g id="node9" class="node">
<title>Node9</title>
<g id="a_node9"><a xlink:href="api_2lane_8h.html" target="_top" xlink:title=" ">
<polygon fill="white" stroke="black" points="766.5,-492.5 766.5,-511.5 871.5,-511.5 871.5,-492.5 766.5,-492.5"/>
<text text-anchor="middle" x="819" y="-499.5" font-family="Helvetica,sans-Serif" font-size="10.00">maliput/api/lane.h</text>
</a>
</g>
</g>
<!-- Node5&#45;&gt;Node9 -->
<g id="edge9" class="edge">
<title>Node5&#45;&gt;Node9</title>
<path fill="none" stroke="midnightblue" d="M819,-548.08C819,-541.01 819,-530.86 819,-521.99"/>
<polygon fill="midnightblue" stroke="midnightblue" points="822.5,-521.75 819,-511.75 815.5,-521.75 822.5,-521.75"/>
</g>
<!-- Node5&#45;&gt;Node14 -->
<g id="edge72" class="edge">
<title>Node5&#45;&gt;Node14</title>
<path fill="none" stroke="midnightblue" d="M879.34,-549.49C905.63,-543.36 934.95,-532.22 955,-512 987.86,-478.86 996.91,-333.94 999.24,-275.78"/>
<polygon fill="midnightblue" stroke="midnightblue" points="1002.75,-275.79 999.61,-265.67 995.75,-275.54 1002.75,-275.79"/>
</g>
<!-- Node5&#45;&gt;Node27 -->
<g id="edge71" class="edge">
<title>Node5&#45;&gt;Node27</title>
<path fill="none" stroke="midnightblue" d="M758.98,-549.58C730.56,-543.46 697.73,-532.31 674,-512 642.37,-484.92 625.39,-437.91 617.56,-409.46"/>
<polygon fill="midnightblue" stroke="midnightblue" points="620.89,-408.35 615,-399.54 614.11,-410.1 620.89,-408.35"/>
</g>
<!-- Node9&#45;&gt;Node3 -->
<g id="edge12" class="edge">
<title>Node9&#45;&gt;Node3</title>
<path fill="none" stroke="midnightblue" d="M823.79,-492.39C842.02,-458.41 904.17,-330.85 866,-235 791.88,-48.86 500.24,-17.4 402.28,-12.08"/>
<polygon fill="midnightblue" stroke="midnightblue" points="402.26,-8.58 392.11,-11.59 401.92,-15.57 402.26,-8.58"/>
</g>
<!-- Node9&#45;&gt;Node8 -->
<g id="edge11" class="edge">
<title>Node9&#45;&gt;Node8</title>
<path fill="none" stroke="midnightblue" d="M810.52,-492.23C802.95,-483.75 792.4,-470.13 788,-456 767.45,-389.94 789.51,-306.61 801.42,-270.08"/>
<polygon fill="midnightblue" stroke="midnightblue" points="804.83,-270.92 804.73,-260.32 798.2,-268.67 804.83,-270.92"/>
</g>
<!-- Node10 -->
<g id="node10" class="node">
<title>Node10</title>
<g id="a_node10"><a xlink:title=" ">
<polygon fill="white" stroke="#bfbfbf" points="906,-436.5 906,-455.5 964,-455.5 964,-436.5 906,-436.5"/>
<text text-anchor="middle" x="935" y="-443.5" font-family="Helvetica,sans-Serif" font-size="10.00">memory</text>
</a>
</g>
</g>
<!-- Node9&#45;&gt;Node10 -->
<g id="edge10" class="edge">
<title>Node9&#45;&gt;Node10</title>
<path fill="none" stroke="midnightblue" d="M837.38,-492.44C856.22,-483.68 885.73,-469.94 907.38,-459.86"/>
<polygon fill="midnightblue" stroke="midnightblue" points="909.12,-462.91 916.71,-455.52 906.16,-456.56 909.12,-462.91"/>
</g>
<!-- Node11 -->
<g id="node11" class="node">
<title>Node11</title>
<g id="a_node11"><a xlink:href="lane__data_8h.html" target="_top" xlink:title=" ">
<polygon fill="white" stroke="black" points="1089,-436.5 1089,-455.5 1221,-455.5 1221,-436.5 1089,-436.5"/>
<text text-anchor="middle" x="1155" y="-443.5" font-family="Helvetica,sans-Serif" font-size="10.00">maliput/api/lane_data.h</text>
</a>
</g>
</g>
<!-- Node9&#45;&gt;Node11 -->
<g id="edge13" class="edge">
<title>Node9&#45;&gt;Node11</title>
<path fill="none" stroke="midnightblue" d="M871.87,-492.5C931.51,-482.92 1028.46,-467.34 1091.99,-457.13"/>
<polygon fill="midnightblue" stroke="midnightblue" points="1092.57,-460.58 1101.88,-455.54 1091.46,-453.67 1092.57,-460.58"/>
</g>
<!-- Node9&#45;&gt;Node14 -->
<g id="edge69" class="edge">
<title>Node9&#45;&gt;Node14</title>
<path fill="none" stroke="midnightblue" d="M825.82,-492.45C832.95,-483.46 844.42,-468.86 854,-456 902.75,-390.59 958.19,-311.62 984.53,-273.8"/>
<polygon fill="midnightblue" stroke="midnightblue" points="987.44,-275.74 990.28,-265.53 981.7,-271.74 987.44,-275.74"/>
</g>
<!-- Node15 -->
<g id="node15" class="node">
<title>Node15</title>
<g id="a_node15"><a xlink:href="maliput__throw_8h.html" target="_top" xlink:title=" ">
<polygon fill="white" stroke="black" points="509,-112.5 509,-142.5 649,-142.5 649,-112.5 509,-112.5"/>
<text text-anchor="start" x="517" y="-130.5" font-family="Helvetica,sans-Serif" font-size="10.00">maliput/common/maliput</text>
<text text-anchor="middle" x="579" y="-119.5" font-family="Helvetica,sans-Serif" font-size="10.00">_throw.h</text>
</a>
</g>
</g>
<!-- Node9&#45;&gt;Node15 -->
<g id="edge70" class="edge">
<title>Node9&#45;&gt;Node15</title>
<path fill="none" stroke="midnightblue" d="M819.07,-492.32C819.33,-471.16 820.53,-415.26 826,-369 833.06,-309.26 878.71,-284.81 845,-235 803.8,-174.12 721.53,-148.04 659.34,-136.87"/>
<polygon fill="midnightblue" stroke="midnightblue" points="659.59,-133.36 649.14,-135.14 658.42,-140.26 659.59,-133.36"/>
</g>
<!-- Node9&#45;&gt;Node27 -->
<g id="edge49" class="edge">
<title>Node9&#45;&gt;Node27</title>
<path fill="none" stroke="midnightblue" d="M803.44,-492.32C770.19,-473.77 691.54,-429.88 646.07,-404.51"/>
<polygon fill="midnightblue" stroke="midnightblue" points="647.61,-401.36 637.17,-399.55 644.2,-407.47 647.61,-401.36"/>
</g>
<!-- Node11&#45;&gt;Node3 -->
<g id="edge16" class="edge">
<title>Node11&#45;&gt;Node3</title>
<path fill="none" stroke="midnightblue" d="M1153.14,-436.26C1148.34,-413.85 1135,-352.59 1122,-302 1089.04,-173.77 1071.63,-116.76 954,-56 904.88,-30.63 517.73,-15.89 402.34,-12.03"/>
<polygon fill="midnightblue" stroke="midnightblue" points="402.16,-8.52 392.05,-11.69 401.93,-15.51 402.16,-8.52"/>
</g>
<!-- Node12 -->
<g id="node12" class="node">
<title>Node12</title>
<g id="a_node12"><a xlink:title=" ">
<polygon fill="white" stroke="#bfbfbf" points="696.5,-241 696.5,-260 761.5,-260 761.5,-241 696.5,-241"/>
<text text-anchor="middle" x="729" y="-248" font-family="Helvetica,sans-Serif" font-size="10.00">functional</text>
</a>
</g>
</g>
<!-- Node11&#45;&gt;Node12 -->
<g id="edge14" class="edge">
<title>Node11&#45;&gt;Node12</title>
<path fill="none" stroke="midnightblue" d="M1136.15,-436.44C1068.66,-405.78 838.88,-301.41 757.7,-264.53"/>
<polygon fill="midnightblue" stroke="midnightblue" points="758.67,-261.13 748.12,-260.18 755.78,-267.51 758.67,-261.13"/>
</g>
<!-- Node13 -->
<g id="node13" class="node">
<title>Node13</title>
<g id="a_node13"><a xlink:title=" ">
<polygon fill="white" stroke="#bfbfbf" points="1190.5,-241 1190.5,-260 1247.5,-260 1247.5,-241 1190.5,-241"/>
<text text-anchor="middle" x="1219" y="-248" font-family="Helvetica,sans-Serif" font-size="10.00">ostream</text>
</a>
</g>
</g>
<!-- Node11&#45;&gt;Node13 -->
<g id="edge15" class="edge">
<title>Node11&#45;&gt;Node13</title>
<path fill="none" stroke="midnightblue" d="M1157.83,-436.44C1167.51,-407.16 1199.44,-310.65 1212.91,-269.91"/>
<polygon fill="midnightblue" stroke="midnightblue" points="1216.24,-271 1216.05,-260.41 1209.59,-268.8 1216.24,-271"/>
</g>
<!-- Node11&#45;&gt;Node14 -->
<g id="edge17" class="edge">
<title>Node11&#45;&gt;Node14</title>
<path fill="none" stroke="midnightblue" d="M1135.76,-436.47C1120.18,-428.78 1098.51,-416.19 1084,-400 1051.63,-363.88 1060.83,-343.66 1036,-302 1030.3,-292.43 1023.32,-282.34 1017.03,-273.72"/>
<polygon fill="midnightblue" stroke="midnightblue" points="1019.82,-271.6 1011.05,-265.66 1014.2,-275.78 1019.82,-271.6"/>
</g>
<!-- Node11&#45;&gt;Node15 -->
<g id="edge18" class="edge">
<title>Node11&#45;&gt;Node15</title>
<path fill="none" stroke="midnightblue" d="M1147.08,-436.34C1139.6,-427.73 1128.57,-413.82 1122,-400 1089.46,-331.56 1132.13,-289.03 1079,-235 1021.37,-176.39 785.36,-146.84 659.29,-134.98"/>
<polygon fill="midnightblue" stroke="midnightblue" points="659.57,-131.49 649.29,-134.05 658.93,-138.46 659.57,-131.49"/>
</g>
<!-- Node19 -->
<g id="node19" class="node">
<title>Node19</title>
<g id="a_node19"><a xlink:href="matrix_8h.html" target="_top" xlink:title=" ">
<polygon fill="white" stroke="black" points="1500.5,-241 1500.5,-260 1627.5,-260 1627.5,-241 1500.5,-241"/>
<text text-anchor="middle" x="1564" y="-248" font-family="Helvetica,sans-Serif" font-size="10.00">maliput/math/matrix.h</text>
</a>
</g>
</g>
<!-- Node11&#45;&gt;Node19 -->
<g id="edge24" class="edge">
<title>Node11&#45;&gt;Node19</title>
<path fill="none" stroke="midnightblue" d="M1221.29,-441.71C1326.31,-435.87 1521.44,-422.14 1544,-400 1578.89,-365.76 1573.33,-301.77 1567.91,-270.15"/>
<polygon fill="midnightblue" stroke="midnightblue" points="1571.3,-269.26 1565.99,-260.09 1564.43,-270.57 1571.3,-269.26"/>
</g>
<!-- Node24 -->
<g id="node24" class="node">
<title>Node24</title>
<g id="a_node24"><a xlink:href="vector_8h.html" target="_top" xlink:title=" ">
<polygon fill="white" stroke="black" points="1312.5,-179.5 1312.5,-198.5 1437.5,-198.5 1437.5,-179.5 1312.5,-179.5"/>
<text text-anchor="middle" x="1375" y="-186.5" font-family="Helvetica,sans-Serif" font-size="10.00">maliput/math/vector.h</text>
</a>
</g>
</g>
<!-- Node11&#45;&gt;Node24 -->
<g id="edge48" class="edge">
<title>Node11&#45;&gt;Node24</title>
<path fill="none" stroke="midnightblue" d="M1221.16,-439.41C1281.18,-433.09 1363.98,-420.87 1389,-400 1445.95,-352.48 1440.44,-304.3 1414,-235 1409.74,-223.84 1401.39,-213.59 1393.5,-205.7"/>
<polygon fill="midnightblue" stroke="midnightblue" points="1395.64,-202.91 1385.94,-198.65 1390.87,-208.03 1395.64,-202.91"/>
</g>
<!-- Node25 -->
<g id="node25" class="node">
<title>Node25</title>
<g id="a_node25"><a xlink:href="quaternion_8h.html" target="_top" xlink:title=" ">
<polygon fill="white" stroke="black" points="1240.5,-308 1240.5,-327 1387.5,-327 1387.5,-308 1240.5,-308"/>
<text text-anchor="middle" x="1314" y="-315" font-family="Helvetica,sans-Serif" font-size="10.00">maliput/math/quaternion.h</text>
</a>
</g>
</g>
<!-- Node11&#45;&gt;Node25 -->
<g id="edge37" class="edge">
<title>Node11&#45;&gt;Node25</title>
<path fill="none" stroke="midnightblue" d="M1164.09,-436.15C1179.27,-421.53 1211.01,-391.7 1240,-369 1256.73,-355.9 1276.69,-342.4 1291.65,-332.65"/>
<polygon fill="midnightblue" stroke="midnightblue" points="1293.75,-335.47 1300.26,-327.11 1289.95,-329.58 1293.75,-335.47"/>
</g>
<!-- Node26 -->
<g id="node26" class="node">
<title>Node26</title>
<g id="a_node26"><a xlink:href="roll__pitch__yaw_8h.html" target="_top" xlink:title=" ">
<polygon fill="white" stroke="black" points="1248.5,-369.5 1248.5,-399.5 1379.5,-399.5 1379.5,-369.5 1248.5,-369.5"/>
<text text-anchor="start" x="1256.5" y="-387.5" font-family="Helvetica,sans-Serif" font-size="10.00">maliput/math/roll_pitch</text>
<text text-anchor="middle" x="1314" y="-376.5" font-family="Helvetica,sans-Serif" font-size="10.00">_yaw.h</text>
</a>
</g>
</g>
<!-- Node11&#45;&gt;Node26 -->
<g id="edge43" class="edge">
<title>Node11&#45;&gt;Node26</title>
<path fill="none" stroke="midnightblue" d="M1177.78,-436.48C1200.93,-427.81 1237.45,-414.15 1266.86,-403.14"/>
<polygon fill="midnightblue" stroke="midnightblue" points="1268.39,-406.31 1276.53,-399.52 1265.93,-399.75 1268.39,-406.31"/>
</g>
<!-- Node15&#45;&gt;Node3 -->
<g id="edge20" class="edge">
<title>Node15&#45;&gt;Node3</title>
<path fill="none" stroke="midnightblue" d="M553.37,-112.34C512.7,-89.86 433.94,-46.33 394.19,-24.37"/>
<polygon fill="midnightblue" stroke="midnightblue" points="395.87,-21.3 385.42,-19.52 392.48,-27.42 395.87,-21.3"/>
</g>
<!-- Node16 -->
<g id="node16" class="node">
<title>Node16</title>
<g id="a_node16"><a xlink:title=" ">
<polygon fill="white" stroke="#bfbfbf" points="551,-56.5 551,-75.5 607,-75.5 607,-56.5 551,-56.5"/>
<text text-anchor="middle" x="579" y="-63.5" font-family="Helvetica,sans-Serif" font-size="10.00">sstream</text>
</a>
</g>
</g>
<!-- Node15&#45;&gt;Node16 -->
<g id="edge19" class="edge">
<title>Node15&#45;&gt;Node16</title>
<path fill="none" stroke="midnightblue" d="M579,-112.4C579,-104.47 579,-94.46 579,-85.86"/>
<polygon fill="midnightblue" stroke="midnightblue" points="582.5,-85.66 579,-75.66 575.5,-85.66 582.5,-85.66"/>
</g>
<!-- Node17 -->
<g id="node17" class="node">
<title>Node17</title>
<g id="a_node17"><a xlink:href="error_8h.html" target="_top" xlink:title=" ">
<polygon fill="white" stroke="black" points="104.5,-56.5 104.5,-75.5 239.5,-75.5 239.5,-56.5 104.5,-56.5"/>
<text text-anchor="middle" x="172" y="-63.5" font-family="Helvetica,sans-Serif" font-size="10.00">maliput/common/error.h</text>
</a>
</g>
</g>
<!-- Node15&#45;&gt;Node17 -->
<g id="edge21" class="edge">
<title>Node15&#45;&gt;Node17</title>
<path fill="none" stroke="midnightblue" d="M508.57,-116.2C433.39,-105.21 315.05,-87.91 240.58,-77.03"/>
<polygon fill="midnightblue" stroke="midnightblue" points="240.77,-73.52 230.37,-75.53 239.76,-80.44 240.77,-73.52"/>
</g>
<!-- Node17&#45;&gt;Node3 -->
<g id="edge23" class="edge">
<title>Node17&#45;&gt;Node3</title>
<path fill="none" stroke="midnightblue" d="M203.37,-56.44C240.25,-46.39 301.11,-29.79 338.18,-19.68"/>
<polygon fill="midnightblue" stroke="midnightblue" points="339.24,-23.02 347.97,-17.01 337.4,-16.26 339.24,-23.02"/>
</g>
<!-- Node18 -->
<g id="node18" class="node">
<title>Node18</title>
<g id="a_node18"><a xlink:title=" ">
<polygon fill="white" stroke="#bfbfbf" points="139.5,-0.5 139.5,-19.5 204.5,-19.5 204.5,-0.5 139.5,-0.5"/>
<text text-anchor="middle" x="172" y="-7.5" font-family="Helvetica,sans-Serif" font-size="10.00">stdexcept</text>
</a>
</g>
</g>
<!-- Node17&#45;&gt;Node18 -->
<g id="edge22" class="edge">
<title>Node17&#45;&gt;Node18</title>
<path fill="none" stroke="midnightblue" d="M172,-56.08C172,-49.01 172,-38.86 172,-29.99"/>
<polygon fill="midnightblue" stroke="midnightblue" points="175.5,-29.75 172,-19.75 168.5,-29.75 175.5,-29.75"/>
</g>
<!-- Node19&#45;&gt;Node2 -->
<g id="edge25" class="edge">
<title>Node19&#45;&gt;Node2</title>
<path fill="none" stroke="midnightblue" d="M1567.88,-240.8C1576.68,-221.09 1598.27,-172.71 1610.04,-146.34"/>
<polygon fill="midnightblue" stroke="midnightblue" points="1613.27,-147.68 1614.15,-137.12 1606.88,-144.83 1613.27,-147.68"/>
</g>
<!-- Node20 -->
<g id="node20" class="node">
<title>Node20</title>
<g id="a_node20"><a xlink:title=" ">
<polygon fill="white" stroke="#bfbfbf" points="1525,-118 1525,-137 1567,-137 1567,-118 1525,-118"/>
<text text-anchor="middle" x="1546" y="-125" font-family="Helvetica,sans-Serif" font-size="10.00">array</text>
</a>
</g>
</g>
<!-- Node19&#45;&gt;Node20 -->
<g id="edge26" class="edge">
<title>Node19&#45;&gt;Node20</title>
<path fill="none" stroke="midnightblue" d="M1563.24,-240.79C1562.03,-227.44 1559.44,-201.15 1556,-179 1554.34,-168.34 1552.02,-156.5 1550.04,-146.96"/>
<polygon fill="midnightblue" stroke="midnightblue" points="1553.43,-146.09 1547.91,-137.04 1546.58,-147.55 1553.43,-146.09"/>
</g>
<!-- Node21 -->
<g id="node21" class="node">
<title>Node21</title>
<g id="a_node21"><a xlink:title=" ">
<polygon fill="white" stroke="#bfbfbf" points="1349.5,-118 1349.5,-137 1402.5,-137 1402.5,-118 1349.5,-118"/>
<text text-anchor="middle" x="1376" y="-125" font-family="Helvetica,sans-Serif" font-size="10.00">cstddef</text>
</a>
</g>
</g>
<!-- Node19&#45;&gt;Node21 -->
<g id="edge27" class="edge">
<title>Node19&#45;&gt;Node21</title>
<path fill="none" stroke="midnightblue" d="M1555.26,-240.89C1540.59,-226.75 1509.72,-198.26 1480,-179 1456.63,-163.85 1428.04,-150.29 1406.76,-141.04"/>
<polygon fill="midnightblue" stroke="midnightblue" points="1408.11,-137.81 1397.54,-137.11 1405.36,-144.25 1408.11,-137.81"/>
</g>
<!-- Node22 -->
<g id="node22" class="node">
<title>Node22</title>
<g id="a_node22"><a xlink:title=" ">
<polygon fill="white" stroke="#bfbfbf" points="1422.5,-118 1422.5,-137 1505.5,-137 1505.5,-118 1422.5,-118"/>
<text text-anchor="middle" x="1464" y="-125" font-family="Helvetica,sans-Serif" font-size="10.00">initializer_list</text>
</a>
</g>
</g>
<!-- Node19&#45;&gt;Node22 -->
<g id="edge28" class="edge">
<title>Node19&#45;&gt;Node22</title>
<path fill="none" stroke="midnightblue" d="M1559.23,-240.79C1551.49,-227 1535.29,-199.59 1518,-179 1507.21,-166.15 1493.37,-153.26 1482.4,-143.72"/>
<polygon fill="midnightblue" stroke="midnightblue" points="1484.55,-140.95 1474.66,-137.13 1480.01,-146.28 1484.55,-140.95"/>
</g>
<!-- Node23 -->
<g id="node23" class="node">
<title>Node23</title>
<g id="a_node23"><a xlink:title=" ">
<polygon fill="white" stroke="#bfbfbf" points="1271,-118 1271,-137 1331,-137 1331,-118 1271,-118"/>
<text text-anchor="middle" x="1301" y="-125" font-family="Helvetica,sans-Serif" font-size="10.00">iostream</text>
</a>
</g>
</g>
<!-- Node19&#45;&gt;Node23 -->
<g id="edge29" class="edge">
<title>Node19&#45;&gt;Node23</title>
<path fill="none" stroke="midnightblue" d="M1549.72,-240.94C1533,-230.9 1504.47,-213.77 1480,-199 1465.32,-190.14 1462.54,-186.24 1447,-179 1401.9,-157.98 1387.95,-159.48 1341,-143 1338.62,-142.17 1336.17,-141.3 1333.7,-140.41"/>
<polygon fill="midnightblue" stroke="midnightblue" points="1334.83,-137.1 1324.24,-137.01 1332.46,-143.69 1334.83,-137.1"/>
</g>
<!-- Node19&#45;&gt;Node24 -->
<g id="edge30" class="edge">
<title>Node19&#45;&gt;Node24</title>
<path fill="none" stroke="midnightblue" d="M1536.92,-240.98C1504.08,-230.64 1448.57,-213.16 1411.85,-201.6"/>
<polygon fill="midnightblue" stroke="midnightblue" points="1412.62,-198.17 1402.03,-198.51 1410.52,-204.85 1412.62,-198.17"/>
</g>
<!-- Node24&#45;&gt;Node2 -->
<g id="edge31" class="edge">
<title>Node24&#45;&gt;Node2</title>
<path fill="none" stroke="midnightblue" d="M1419.67,-179.5C1460.64,-171.34 1522.85,-158.07 1576,-143 1578.95,-142.16 1581.99,-141.24 1585.03,-140.27"/>
<polygon fill="midnightblue" stroke="midnightblue" points="1586.21,-143.57 1594.6,-137.1 1584.01,-136.92 1586.21,-143.57"/>
</g>
<!-- Node24&#45;&gt;Node15 -->
<g id="edge36" class="edge">
<title>Node24&#45;&gt;Node15</title>
<path fill="none" stroke="midnightblue" d="M1312.21,-183.31C1168.97,-172.6 818.23,-146.38 659.44,-134.51"/>
<polygon fill="midnightblue" stroke="midnightblue" points="659.5,-131.01 649.26,-133.75 658.97,-137.99 659.5,-131.01"/>
</g>
<!-- Node24&#45;&gt;Node20 -->
<g id="edge32" class="edge">
<title>Node24&#45;&gt;Node20</title>
<path fill="none" stroke="midnightblue" d="M1405.43,-179.43C1434.05,-171.09 1477.93,-157.56 1515,-143 1516.42,-142.44 1517.86,-141.85 1519.31,-141.24"/>
<polygon fill="midnightblue" stroke="midnightblue" points="1521.08,-144.29 1528.79,-137.02 1518.23,-137.89 1521.08,-144.29"/>
</g>
<!-- Node24&#45;&gt;Node21 -->
<g id="edge33" class="edge">
<title>Node24&#45;&gt;Node21</title>
<path fill="none" stroke="midnightblue" d="M1375.14,-179.48C1375.28,-171.08 1375.5,-157.98 1375.69,-147.16"/>
<polygon fill="midnightblue" stroke="midnightblue" points="1379.19,-147.07 1375.86,-137.01 1372.19,-146.95 1379.19,-147.07"/>
</g>
<!-- Node24&#45;&gt;Node22 -->
<g id="edge34" class="edge">
<title>Node24&#45;&gt;Node22</title>
<path fill="none" stroke="midnightblue" d="M1387.75,-179.48C1402.03,-169.93 1425.4,-154.31 1442.51,-142.87"/>
<polygon fill="midnightblue" stroke="midnightblue" points="1444.9,-145.48 1451.27,-137.01 1441.01,-139.66 1444.9,-145.48"/>
</g>
<!-- Node24&#45;&gt;Node23 -->
<g id="edge35" class="edge">
<title>Node24&#45;&gt;Node23</title>
<path fill="none" stroke="midnightblue" d="M1364.4,-179.48C1352.75,-170.11 1333.81,-154.88 1319.67,-143.51"/>
<polygon fill="midnightblue" stroke="midnightblue" points="1321.57,-140.55 1311.58,-137.01 1317.18,-146 1321.57,-140.55"/>
</g>
<!-- Node25&#45;&gt;Node6 -->
<g id="edge38" class="edge">
<title>Node25&#45;&gt;Node6</title>
<path fill="none" stroke="midnightblue" d="M1314,-307.73C1314,-298.18 1314,-282.62 1314,-270.28"/>
<polygon fill="midnightblue" stroke="midnightblue" points="1317.5,-270.13 1314,-260.13 1310.5,-270.13 1317.5,-270.13"/>
</g>
<!-- Node25&#45;&gt;Node13 -->
<g id="edge39" class="edge">
<title>Node25&#45;&gt;Node13</title>
<path fill="none" stroke="midnightblue" d="M1301.19,-307.73C1285.52,-297.01 1258.78,-278.72 1240.07,-265.91"/>
<polygon fill="midnightblue" stroke="midnightblue" points="1241.84,-262.89 1231.61,-260.13 1237.89,-268.66 1241.84,-262.89"/>
</g>
<!-- Node25&#45;&gt;Node14 -->
<g id="edge40" class="edge">
<title>Node25&#45;&gt;Node14</title>
<path fill="none" stroke="midnightblue" d="M1272.63,-307.94C1223.25,-297.71 1139.64,-280.41 1078,-267.65"/>
<polygon fill="midnightblue" stroke="midnightblue" points="1078.42,-264.16 1067.92,-265.56 1077,-271.01 1078.42,-264.16"/>
</g>
<!-- Node25&#45;&gt;Node19 -->
<g id="edge41" class="edge">
<title>Node25&#45;&gt;Node19</title>
<path fill="none" stroke="midnightblue" d="M1346.94,-307.94C1391.72,-296.29 1471.87,-275.45 1521.24,-262.62"/>
<polygon fill="midnightblue" stroke="midnightblue" points="1522.19,-265.99 1530.99,-260.08 1520.43,-259.21 1522.19,-265.99"/>
</g>
<!-- Node25&#45;&gt;Node24 -->
<g id="edge42" class="edge">
<title>Node25&#45;&gt;Node24</title>
<path fill="none" stroke="midnightblue" d="M1320.47,-307.92C1327.63,-298.16 1339.19,-281.53 1347,-266 1356.45,-247.2 1364.42,-224.4 1369.41,-208.71"/>
<polygon fill="midnightblue" stroke="midnightblue" points="1372.9,-209.29 1372.5,-198.7 1366.21,-207.22 1372.9,-209.29"/>
</g>
<!-- Node26&#45;&gt;Node14 -->
<g id="edge44" class="edge">
<title>Node26&#45;&gt;Node14</title>
<path fill="none" stroke="midnightblue" d="M1280.69,-369.5C1223.34,-345.39 1106.03,-296.07 1042.74,-269.47"/>
<polygon fill="midnightblue" stroke="midnightblue" points="1044.01,-266.21 1033.44,-265.56 1041.3,-272.66 1044.01,-266.21"/>
</g>
<!-- Node26&#45;&gt;Node19 -->
<g id="edge45" class="edge">
<title>Node26&#45;&gt;Node19</title>
<path fill="none" stroke="midnightblue" d="M1374.75,-369.44C1404.05,-361.22 1439.03,-349.22 1468,-333 1499.76,-315.22 1530.82,-286.09 1548.65,-267.9"/>
<polygon fill="midnightblue" stroke="midnightblue" points="1551.46,-270.02 1555.87,-260.39 1546.41,-265.17 1551.46,-270.02"/>
</g>
<!-- Node26&#45;&gt;Node24 -->
<g id="edge47" class="edge">
<title>Node26&#45;&gt;Node24</title>
<path fill="none" stroke="midnightblue" d="M1354.02,-369.38C1370.39,-361.4 1387.66,-349.62 1397,-333 1419.69,-292.63 1398.29,-236.24 1384.54,-207.84"/>
<polygon fill="midnightblue" stroke="midnightblue" points="1387.56,-206.06 1379.91,-198.73 1381.31,-209.23 1387.56,-206.06"/>
</g>
<!-- Node26&#45;&gt;Node25 -->
<g id="edge46" class="edge">
<title>Node26&#45;&gt;Node25</title>
<path fill="none" stroke="midnightblue" d="M1314,-369.4C1314,-360.06 1314,-347.71 1314,-337.52"/>
<polygon fill="midnightblue" stroke="midnightblue" points="1317.5,-337.19 1314,-327.19 1310.5,-337.19 1317.5,-337.19"/>
</g>
<!-- Node27&#45;&gt;Node3 -->
<g id="edge51" class="edge">
<title>Node27&#45;&gt;Node3</title>
<path fill="none" stroke="midnightblue" d="M541.65,-374.52C432.6,-358.95 230.99,-323.05 190,-266 167.04,-234.05 164.97,-200.88 218,-112 245.3,-66.24 302.34,-37.01 338.25,-22.35"/>
<polygon fill="midnightblue" stroke="midnightblue" points="339.76,-25.51 347.78,-18.59 337.19,-19 339.76,-25.51"/>
</g>
<!-- Node27&#45;&gt;Node12 -->
<g id="edge50" class="edge">
<title>Node27&#45;&gt;Node12</title>
<path fill="none" stroke="midnightblue" d="M619.6,-369.3C629.11,-352.25 646.54,-323.31 666,-302 678.44,-288.38 694.75,-275.41 707.65,-266.03"/>
<polygon fill="midnightblue" stroke="midnightblue" points="709.82,-268.78 715.95,-260.14 705.77,-263.07 709.82,-268.78"/>
</g>
<!-- Node27&#45;&gt;Node14 -->
<g id="edge53" class="edge">
<title>Node27&#45;&gt;Node14</title>
<path fill="none" stroke="midnightblue" d="M676.26,-369.5C714.87,-360.46 764.74,-347.66 808,-333 862.38,-314.57 923.05,-287.7 961.36,-269.92"/>
<polygon fill="midnightblue" stroke="midnightblue" points="963.02,-273.01 970.6,-265.61 960.06,-266.67 963.02,-273.01"/>
</g>
<!-- Node27&#45;&gt;Node15 -->
<g id="edge68" class="edge">
<title>Node27&#45;&gt;Node15</title>
<path fill="none" stroke="midnightblue" d="M616.91,-369.35C626.04,-342.81 644.95,-286.36 648,-266 650.04,-252.37 651.91,-248.21 648,-235 638.39,-202.5 615.42,-170.61 598.61,-150.33"/>
<polygon fill="midnightblue" stroke="midnightblue" points="601.21,-147.98 592.07,-142.63 595.88,-152.52 601.21,-147.98"/>
</g>
<!-- Node28 -->
<g id="node28" class="node">
<title>Node28</title>
<g id="a_node28"><a xlink:title=" ">
<polygon fill="white" stroke="#bfbfbf" points="594.5,-241 594.5,-260 639.5,-260 639.5,-241 594.5,-241"/>
<text text-anchor="middle" x="617" y="-248" font-family="Helvetica,sans-Serif" font-size="10.00">utility</text>
</a>
</g>
</g>
<!-- Node27&#45;&gt;Node28 -->
<g id="edge52" class="edge">
<title>Node27&#45;&gt;Node28</title>
<path fill="none" stroke="midnightblue" d="M604,-369.44C598.87,-359.59 592.69,-345.92 590,-333 587.19,-319.51 586.65,-315.36 590,-302 592.94,-290.26 599.19,-278.27 604.93,-268.92"/>
<polygon fill="midnightblue" stroke="midnightblue" points="608.06,-270.54 610.58,-260.25 602.19,-266.72 608.06,-270.54"/>
</g>
<!-- Node29 -->
<g id="node29" class="node">
<title>Node29</title>
<g id="a_node29"><a xlink:href="maliput__hash_8h.html" target="_top" xlink:title=" ">
<polygon fill="white" stroke="black" points="398,-302.5 398,-332.5 538,-332.5 538,-302.5 398,-302.5"/>
<text text-anchor="start" x="406" y="-320.5" font-family="Helvetica,sans-Serif" font-size="10.00">maliput/common/maliput</text>
<text text-anchor="middle" x="468" y="-309.5" font-family="Helvetica,sans-Serif" font-size="10.00">_hash.h</text>
</a>
</g>
</g>
<!-- Node27&#45;&gt;Node29 -->
<g id="edge54" class="edge">
<title>Node27&#45;&gt;Node29</title>
<path fill="none" stroke="midnightblue" d="M580.75,-369.4C559.53,-359.81 531.25,-347.05 508.32,-336.7"/>
<polygon fill="midnightblue" stroke="midnightblue" points="509.74,-333.5 499.18,-332.58 506.86,-339.88 509.74,-333.5"/>
</g>
<!-- Node29&#45;&gt;Node3 -->
<g id="edge63" class="edge">
<title>Node29&#45;&gt;Node3</title>
<path fill="none" stroke="midnightblue" d="M397.79,-312.61C329.44,-307.18 232.52,-294.55 209,-266 139.64,-181.81 289.83,-65.75 348.14,-25.46"/>
<polygon fill="midnightblue" stroke="midnightblue" points="350.36,-28.18 356.66,-19.66 346.42,-22.4 350.36,-28.18"/>
</g>
<!-- Node29&#45;&gt;Node4 -->
<g id="edge66" class="edge">
<title>Node29&#45;&gt;Node4</title>
<path fill="none" stroke="midnightblue" d="M397.65,-306.2C300.69,-292.01 129.82,-266.99 57.66,-256.43"/>
<polygon fill="midnightblue" stroke="midnightblue" points="58.16,-252.96 47.75,-254.98 57.14,-259.89 58.16,-252.96"/>
</g>
<!-- Node29&#45;&gt;Node6 -->
<g id="edge55" class="edge">
<title>Node29&#45;&gt;Node6</title>
<path fill="none" stroke="midnightblue" d="M538.14,-316.35C676.49,-315.11 993.97,-307.51 1257,-266 1264.71,-264.78 1272.91,-263 1280.6,-261.09"/>
<polygon fill="midnightblue" stroke="midnightblue" points="1281.56,-264.46 1290.35,-258.56 1279.8,-257.69 1281.56,-264.46"/>
</g>
<!-- Node29&#45;&gt;Node8 -->
<g id="edge61" class="edge">
<title>Node29&#45;&gt;Node8</title>
<path fill="none" stroke="midnightblue" d="M538.12,-308.79C599.87,-301.05 691.89,-287.21 770,-266 772.66,-265.28 775.38,-264.44 778.1,-263.54"/>
<polygon fill="midnightblue" stroke="midnightblue" points="779.5,-266.75 787.74,-260.09 777.14,-260.16 779.5,-266.75"/>
</g>
<!-- Node29&#45;&gt;Node12 -->
<g id="edge58" class="edge">
<title>Node29&#45;&gt;Node12</title>
<path fill="none" stroke="midnightblue" d="M524.31,-302.48C572.97,-290.36 642.24,-273.11 686.4,-262.11"/>
<polygon fill="midnightblue" stroke="midnightblue" points="687.39,-265.47 696.24,-259.66 685.7,-258.68 687.39,-265.47"/>
</g>
<!-- Node29&#45;&gt;Node15 -->
<g id="edge67" class="edge">
<title>Node29&#45;&gt;Node15</title>
<path fill="none" stroke="midnightblue" d="M469.95,-302.41C474.15,-276.06 486.05,-218.43 514,-179 522.43,-167.11 534.46,-156.68 545.88,-148.43"/>
<polygon fill="midnightblue" stroke="midnightblue" points="548.17,-151.1 554.43,-142.56 544.21,-145.33 548.17,-151.1"/>
</g>
<!-- Node29&#45;&gt;Node21 -->
<g id="edge56" class="edge">
<title>Node29&#45;&gt;Node21</title>
<path fill="none" stroke="midnightblue" d="M490.55,-302.37C506.07,-292.49 527.04,-278.82 545,-266 563.31,-252.93 564.2,-243.56 585,-235 741.31,-170.7 1176.32,-185.16 1340,-143 1342.51,-142.35 1345.08,-141.57 1347.64,-140.71"/>
<polygon fill="midnightblue" stroke="midnightblue" points="1349.11,-143.9 1357.26,-137.13 1346.66,-137.34 1349.11,-143.9"/>
</g>
<!-- Node29&#45;&gt;Node23 -->
<g id="edge59" class="edge">
<title>Node29&#45;&gt;Node23</title>
<path fill="none" stroke="midnightblue" d="M478.07,-302.21C492.23,-283.36 519.89,-250.74 552,-235 679.3,-172.6 1124.52,-139.71 1260.95,-130.93"/>
<polygon fill="midnightblue" stroke="midnightblue" points="1261.22,-134.42 1270.97,-130.29 1260.77,-127.43 1261.22,-134.42"/>
</g>
<!-- Node29&#45;&gt;Node28 -->
<g id="edge65" class="edge">
<title>Node29&#45;&gt;Node28</title>
<path fill="none" stroke="midnightblue" d="M500.33,-302.4C526.47,-290.99 562.95,-275.08 588.12,-264.1"/>
<polygon fill="midnightblue" stroke="midnightblue" points="589.73,-267.21 597.5,-260.01 586.93,-260.8 589.73,-267.21"/>
</g>
<!-- Node30 -->
<g id="node30" class="node">
<title>Node30</title>
<g id="a_node30"><a xlink:title=" ">
<polygon fill="white" stroke="#bfbfbf" points="356,-241 356,-260 406,-260 406,-241 356,-241"/>
<text text-anchor="middle" x="381" y="-248" font-family="Helvetica,sans-Serif" font-size="10.00">cstdint</text>
</a>
</g>
</g>
<!-- Node29&#45;&gt;Node30 -->
<g id="edge57" class="edge">
<title>Node29&#45;&gt;Node30</title>
<path fill="none" stroke="midnightblue" d="M449.12,-302.4C434.89,-291.76 415.4,-277.2 400.92,-266.38"/>
<polygon fill="midnightblue" stroke="midnightblue" points="402.74,-263.38 392.64,-260.19 398.55,-268.98 402.74,-263.38"/>
</g>
<!-- Node31 -->
<g id="node31" class="node">
<title>Node31</title>
<g id="a_node31"><a xlink:title=" ">
<polygon fill="white" stroke="#bfbfbf" points="424,-241 424,-260 462,-260 462,-241 424,-241"/>
<text text-anchor="middle" x="443" y="-248" font-family="Helvetica,sans-Serif" font-size="10.00">map</text>
</a>
</g>
</g>
<!-- Node29&#45;&gt;Node31 -->
<g id="edge60" class="edge">
<title>Node29&#45;&gt;Node31</title>
<path fill="none" stroke="midnightblue" d="M462.58,-302.4C458.87,-292.76 453.93,-279.91 449.94,-269.54"/>
<polygon fill="midnightblue" stroke="midnightblue" points="453.2,-268.27 446.34,-260.19 446.67,-270.78 453.2,-268.27"/>
</g>
<!-- Node32 -->
<g id="node32" class="node">
<title>Node32</title>
<g id="a_node32"><a xlink:title=" ">
<polygon fill="white" stroke="#bfbfbf" points="218,-241 218,-260 250,-260 250,-241 218,-241"/>
<text text-anchor="middle" x="234" y="-248" font-family="Helvetica,sans-Serif" font-size="10.00">set</text>
</a>
</g>
</g>
<!-- Node29&#45;&gt;Node32 -->
<g id="edge62" class="edge">
<title>Node29&#45;&gt;Node32</title>
<path fill="none" stroke="midnightblue" d="M397.72,-304.78C356.42,-296.6 303.7,-283.92 259,-266 258.12,-265.65 257.24,-265.27 256.36,-264.87"/>
<polygon fill="midnightblue" stroke="midnightblue" points="257.62,-261.58 247.13,-260.07 254.38,-267.79 257.62,-261.58"/>
</g>
<!-- Node33 -->
<g id="node33" class="node">
<title>Node33</title>
<g id="a_node33"><a xlink:title=" ">
<polygon fill="white" stroke="#bfbfbf" points="268.5,-241 268.5,-260 337.5,-260 337.5,-241 268.5,-241"/>
<text text-anchor="middle" x="303" y="-248" font-family="Helvetica,sans-Serif" font-size="10.00">type_traits</text>
</a>
</g>
</g>
<!-- Node29&#45;&gt;Node33 -->
<g id="edge64" class="edge">
<title>Node29&#45;&gt;Node33</title>
<path fill="none" stroke="midnightblue" d="M432.2,-302.4C402.99,-290.89 362.14,-274.8 334.24,-263.81"/>
<polygon fill="midnightblue" stroke="midnightblue" points="335.18,-260.42 324.59,-260.01 332.62,-266.93 335.18,-260.42"/>
</g>
<!-- Node34&#45;&gt;Node3 -->
<g id="edge75" class="edge">
<title>Node34&#45;&gt;Node3</title>
<path fill="none" stroke="midnightblue" d="M139.94,-374.79C128.12,-365.65 110.41,-350.24 100,-333 80.48,-300.68 76,-289.26 76,-251.5 76,-251.5 76,-251.5 76,-126.5 76,-94.05 70.92,-77.76 95,-56 130.19,-24.2 272.81,-14.71 337.64,-12.02"/>
<polygon fill="midnightblue" stroke="midnightblue" points="337.86,-15.51 347.71,-11.62 337.59,-8.51 337.86,-15.51"/>
</g>
<!-- Node34&#45;&gt;Node14 -->
<g id="edge76" class="edge">
<title>Node34&#45;&gt;Node14</title>
<path fill="none" stroke="midnightblue" d="M217.84,-376.12C296.37,-367.08 431.52,-350.76 547,-333 678.13,-312.84 829.71,-284.55 920.06,-267.15"/>
<polygon fill="midnightblue" stroke="midnightblue" points="920.8,-270.57 929.95,-265.24 919.47,-263.7 920.8,-270.57"/>
</g>
<!-- Node34&#45;&gt;Node15 -->
<g id="edge78" class="edge">
<title>Node34&#45;&gt;Node15</title>
<path fill="none" stroke="midnightblue" d="M152.68,-375C155.18,-349.73 166.06,-274.39 209,-235 288.92,-161.7 416.14,-138.53 498.61,-131.39"/>
<polygon fill="midnightblue" stroke="midnightblue" points="499,-134.87 508.69,-130.58 498.44,-127.9 499,-134.87"/>
</g>
<!-- Node34&#45;&gt;Node29 -->
<g id="edge77" class="edge">
<title>Node34&#45;&gt;Node29</title>
<path fill="none" stroke="midnightblue" d="M193.64,-374.94C243.33,-364.71 327.47,-347.41 389.51,-334.65"/>
<polygon fill="midnightblue" stroke="midnightblue" points="390.56,-338 399.65,-332.56 389.15,-331.15 390.56,-338"/>
</g>
</g>
</svg>
        <g id="navigator" transform="translate(0 0)" fill="#404254">
                <rect fill="#f2f5e9" fill-opacity="0.5" stroke="#606060" stroke-width=".5" x="0" y="0" width="60" height="60"/>
                <use id="zoomplus" xlink:href="#zoomPlus" x="17" y="9" onmousedown="handleZoom(evt,'in')"/>
                <use id="zoomminus" xlink:href="#zoomMin" x="42" y="9" onmousedown="handleZoom(evt,'out')"/>
                <use id="reset" xlink:href="#resetDef" x="30" y="36" onmousedown="handleReset()"/>
                <g id="arrowUp" xlink:href="#dirArrow" transform="translate(30 24)" onmousedown="handlePan(0,-1)">
                  <use xlink:href="#rim" fill="#404040">
                        <set attributeName="fill" to="#808080" begin="arrowUp.mouseover" end="arrowUp.mouseout"/>
                  </use>
                  <path fill="none" stroke="white" stroke-width="1.5" d="M0,-3.0v7 M-2.5,-0.5L0,-3.0L2.5,-0.5"/>
                </g>
                <g id="arrowRight" xlink:href="#dirArrow" transform="rotate(90) translate(36 -43)" onmousedown="handlePan(1,0)">
                  <use xlink:href="#rim" fill="#404040">
                        <set attributeName="fill" to="#808080" begin="arrowRight.mouseover" end="arrowRight.mouseout"/>
                  </use>
                  <path fill="none" stroke="white" stroke-width="1.5" d="M0,-3.0v7 M-2.5,-0.5L0,-3.0L2.5,-0.5"/>
                </g>
                <g id="arrowDown" xlink:href="#dirArrow" transform="rotate(180) translate(-30 -48)" onmousedown="handlePan(0,1)">
                  <use xlink:href="#rim" fill="#404040">
                        <set attributeName="fill" to="#808080" begin="arrowDown.mouseover" end="arrowDown.mouseout"/>
                  </use>
                  <path fill="none" stroke="white" stroke-width="1.5" d="M0,-3.0v7 M-2.5,-0.5L0,-3.0L2.5,-0.5"/>
                </g>
                <g id="arrowLeft" xlink:href="#dirArrow" transform="rotate(270) translate(-36 17)" onmousedown="handlePan(-1,0)">
                  <use xlink:href="#rim" fill="#404040">
                        <set attributeName="fill" to="#808080" begin="arrowLeft.mouseover" end="arrowLeft.mouseout"/>
                  </use>
                  <path fill="none" stroke="white" stroke-width="1.5" d="M0,-3.0v7 M-2.5,-0.5L0,-3.0L2.5,-0.5"/>
                </g>
        </g>
        <svg viewBox="0 0 15 15" width="100%" height="30px" preserveAspectRatio="xMaxYMin meet">
         <g id="arrow_out" transform="scale(0.3 0.3)">
          <a xlink:href="rule_8h__incl_org.svg" target="_base">
           <rect id="button" ry="5" rx="5" y="6" x="6" height="38" width="38"
                fill="#f2f5e9" fill-opacity="0.5" stroke="#606060" stroke-width="1.0"/>
           <path id="arrow"
             d="M 11.500037,31.436501 C 11.940474,20.09759 22.043105,11.32322 32.158766,21.979434 L 37.068811,17.246167 C 37.068811,17.246167 37.088388,32 37.088388,32 L 22.160133,31.978069 C 22.160133,31.978069 26.997745,27.140456 26.997745,27.140456 C 18.528582,18.264221 13.291696,25.230495 11.500037,31.436501 z"
             style="fill:#404040;"/>
          </a>
         </g>
        </svg>
</svg>
