<?xml version="1.0" encoding="UTF-8" standalone="no"?>
<!DOCTYPE svg PUBLIC "-//W3C//DTD SVG 1.1//EN"
 "http://www.w3.org/Graphics/SVG/1.1/DTD/svg11.dtd">
<!-- Generated by graphviz version 2.43.0 (0)
 -->
<!-- Title: speed_limit_rule.h Pages: 1 -->
<svg width="2271pt" height="341pt"
 viewBox="0.00 0.00 2271.00 341.00" xmlns="http://www.w3.org/2000/svg" xmlns:xlink="http://www.w3.org/1999/xlink">
<g id="graph0" class="graph" transform="scale(1 1) rotate(0) translate(4 337)">
<title>speed_limit_rule.h</title>
<polygon fill="white" stroke="transparent" points="-4,4 -4,-337 2267,-337 2267,4 -4,4"/>
<!-- Node1 -->
<g id="node1" class="node">
<title>Node1</title>
<g id="a_node1"><a xlink:title=" ">
<polygon fill="#bfbfbf" stroke="black" points="1650,-313.5 1650,-332.5 1757,-332.5 1757,-313.5 1650,-313.5"/>
<text text-anchor="middle" x="1703.5" y="-320.5" font-family="Helvetica,sans-Serif" font-size="10.00">speed_limit_rule.h</text>
</a>
</g>
</g>
<!-- Node2 -->
<g id="node2" class="node">
<title>Node2</title>
<g id="a_node2"><a xlink:href="road__network_8h.html" target="_top" xlink:title=" ">
<polygon fill="white" stroke="black" points="423.5,-196 423.5,-215 515.5,-215 515.5,-196 423.5,-196"/>
<text text-anchor="middle" x="469.5" y="-203" font-family="Helvetica,sans-Serif" font-size="10.00">road_network.h</text>
</a>
</g>
</g>
<!-- Node1&#45;&gt;Node2 -->
<g id="edge1" class="edge">
<title>Node1&#45;&gt;Node2</title>
<path fill="none" stroke="midnightblue" d="M1639.64,-316.02C1420.84,-295.54 704.46,-228.49 515.52,-210.81"/>
<polygon fill="midnightblue" stroke="midnightblue" points="1639.4,-319.52 1649.68,-316.96 1640.05,-312.55 1639.4,-319.52"/>
</g>
<!-- Node18 -->
<g id="node18" class="node">
<title>Node18</title>
<g id="a_node18"><a xlink:href="road__rulebook_8h.html" target="_top" xlink:title=" ">
<polygon fill="white" stroke="black" points="1308,-257.5 1308,-276.5 1403,-276.5 1403,-257.5 1308,-257.5"/>
<text text-anchor="middle" x="1355.5" y="-264.5" font-family="Helvetica,sans-Serif" font-size="10.00">road_rulebook.h</text>
</a>
</g>
</g>
<!-- Node1&#45;&gt;Node18 -->
<g id="edge21" class="edge">
<title>Node1&#45;&gt;Node18</title>
<path fill="none" stroke="midnightblue" d="M1639.67,-312.1C1571.29,-301.49 1464.35,-284.89 1403.02,-275.37"/>
<polygon fill="midnightblue" stroke="midnightblue" points="1639.47,-315.61 1649.89,-313.68 1640.54,-308.69 1639.47,-315.61"/>
</g>
<!-- Node27 -->
<g id="node27" class="node">
<title>Node27</title>
<g id="a_node27"><a xlink:href="manual__rulebook_8h.html" target="_top" xlink:title=" ">
<polygon fill="white" stroke="black" points="1648.5,-196 1648.5,-215 1758.5,-215 1758.5,-196 1648.5,-196"/>
<text text-anchor="middle" x="1703.5" y="-203" font-family="Helvetica,sans-Serif" font-size="10.00">manual_rulebook.h</text>
</a>
</g>
</g>
<!-- Node1&#45;&gt;Node27 -->
<g id="edge49" class="edge">
<title>Node1&#45;&gt;Node27</title>
<path fill="none" stroke="midnightblue" d="M1703.5,-303.16C1703.5,-277.87 1703.5,-233.94 1703.5,-215.28"/>
<polygon fill="midnightblue" stroke="midnightblue" points="1700,-303.32 1703.5,-313.32 1707,-303.32 1700,-303.32"/>
</g>
<!-- Node37 -->
<g id="node37" class="node">
<title>Node37</title>
<g id="a_node37"><a xlink:href="simple__rulebook_8h.html" target="_top" xlink:title=" ">
<polygon fill="white" stroke="black" points="1939,-196 1939,-215 2046,-215 2046,-196 1939,-196"/>
<text text-anchor="middle" x="1992.5" y="-203" font-family="Helvetica,sans-Serif" font-size="10.00">simple_rulebook.h</text>
</a>
</g>
</g>
<!-- Node1&#45;&gt;Node37 -->
<g id="edge50" class="edge">
<title>Node1&#45;&gt;Node37</title>
<path fill="none" stroke="midnightblue" d="M1734.76,-309.51C1793.8,-285.91 1920.31,-235.35 1970.92,-215.12"/>
<polygon fill="midnightblue" stroke="midnightblue" points="1733.21,-306.36 1725.22,-313.32 1735.81,-312.86 1733.21,-306.36"/>
</g>
<!-- Node38 -->
<g id="node38" class="node">
<title>Node38</title>
<g id="a_node38"><a xlink:href="rules__speed__limit__compare_8h.html" target="_top" xlink:title=" ">
<polygon fill="white" stroke="black" points="1980.5,-257.5 1980.5,-276.5 2140.5,-276.5 2140.5,-257.5 1980.5,-257.5"/>
<text text-anchor="middle" x="2060.5" y="-264.5" font-family="Helvetica,sans-Serif" font-size="10.00">rules_speed_limit_compare.h</text>
</a>
</g>
</g>
<!-- Node1&#45;&gt;Node38 -->
<g id="edge51" class="edge">
<title>Node1&#45;&gt;Node38</title>
<path fill="none" stroke="midnightblue" d="M1767.4,-312.33C1834.75,-302.15 1939.81,-286.26 2004.16,-276.52"/>
<polygon fill="midnightblue" stroke="midnightblue" points="1766.7,-308.9 1757.33,-313.86 1767.74,-315.82 1766.7,-308.9"/>
</g>
<!-- Node3 -->
<g id="node3" class="node">
<title>Node3</title>
<g id="a_node3"><a xlink:href="road__network__validator_8h.html" target="_top" xlink:title=" ">
<polygon fill="white" stroke="black" points="112,-129 112,-148 253,-148 253,-129 112,-129"/>
<text text-anchor="middle" x="182.5" y="-136" font-family="Helvetica,sans-Serif" font-size="10.00">road_network_validator.h</text>
</a>
</g>
</g>
<!-- Node2&#45;&gt;Node3 -->
<g id="edge2" class="edge">
<title>Node2&#45;&gt;Node3</title>
<path fill="none" stroke="midnightblue" d="M421.92,-193.72C365.4,-180.92 272.28,-159.83 220.4,-148.08"/>
<polygon fill="midnightblue" stroke="midnightblue" points="421.16,-197.14 431.68,-195.94 422.7,-190.31 421.16,-197.14"/>
</g>
<!-- Node5 -->
<g id="node5" class="node">
<title>Node5</title>
<g id="a_node5"><a xlink:href="create__road__network_8h.html" target="_top" xlink:title=" ">
<polygon fill="white" stroke="black" points="571.5,-62 571.5,-81 699.5,-81 699.5,-62 571.5,-62"/>
<text text-anchor="middle" x="635.5" y="-69" font-family="Helvetica,sans-Serif" font-size="10.00">create_road_network.h</text>
</a>
</g>
</g>
<!-- Node2&#45;&gt;Node5 -->
<g id="edge4" class="edge">
<title>Node2&#45;&gt;Node5</title>
<path fill="none" stroke="midnightblue" d="M485.94,-188.79C503.94,-171.87 533.91,-144.49 561.5,-123 581.74,-107.23 606.63,-90.81 621.77,-81.13"/>
<polygon fill="midnightblue" stroke="midnightblue" points="483.43,-186.35 478.57,-195.77 488.24,-191.44 483.43,-186.35"/>
</g>
<!-- Node7 -->
<g id="node7" class="node">
<title>Node7</title>
<g id="a_node7"><a xlink:href="road__network__loader_8h.html" target="_top" xlink:title=" ">
<polygon fill="white" stroke="black" points="570.5,-129 570.5,-148 698.5,-148 698.5,-129 570.5,-129"/>
<text text-anchor="middle" x="634.5" y="-136" font-family="Helvetica,sans-Serif" font-size="10.00">road_network_loader.h</text>
</a>
</g>
</g>
<!-- Node2&#45;&gt;Node7 -->
<g id="edge6" class="edge">
<title>Node2&#45;&gt;Node7</title>
<path fill="none" stroke="midnightblue" d="M500.97,-192.1C533.73,-179.2 584.17,-159.33 612.76,-148.06"/>
<polygon fill="midnightblue" stroke="midnightblue" points="499.43,-188.95 491.41,-195.87 502,-195.46 499.43,-188.95"/>
</g>
<!-- Node8 -->
<g id="node8" class="node">
<title>Node8</title>
<g id="a_node8"><a xlink:href="routing_2phase_8h.html" target="_top" xlink:title=" ">
<polygon fill="white" stroke="black" points="0,-129 0,-148 55,-148 55,-129 0,-129"/>
<text text-anchor="middle" x="27.5" y="-136" font-family="Helvetica,sans-Serif" font-size="10.00">phase.h</text>
</a>
</g>
</g>
<!-- Node2&#45;&gt;Node8 -->
<g id="edge8" class="edge">
<title>Node2&#45;&gt;Node8</title>
<path fill="none" stroke="midnightblue" d="M413.27,-201.08C335.27,-195.51 190.19,-182.13 69.5,-154 62.89,-152.46 55.86,-150.26 49.48,-148.05"/>
<polygon fill="midnightblue" stroke="midnightblue" points="413.14,-204.58 423.36,-201.78 413.63,-197.6 413.14,-204.58"/>
</g>
<!-- Node9 -->
<g id="node9" class="node">
<title>Node9</title>
<g id="a_node9"><a xlink:href="route_8h.html" target="_top" xlink:title=" ">
<polygon fill="white" stroke="black" points="38,-62 38,-81 89,-81 89,-62 38,-62"/>
<text text-anchor="middle" x="63.5" y="-69" font-family="Helvetica,sans-Serif" font-size="10.00">route.h</text>
</a>
</g>
</g>
<!-- Node2&#45;&gt;Node9 -->
<g id="edge11" class="edge">
<title>Node2&#45;&gt;Node9</title>
<path fill="none" stroke="midnightblue" d="M413.14,-203.15C322.8,-199.95 150.83,-189.28 102.5,-154 77.8,-135.96 68.1,-98.12 64.88,-81.1"/>
<polygon fill="midnightblue" stroke="midnightblue" points="413.09,-206.65 423.21,-203.49 413.33,-199.66 413.09,-206.65"/>
</g>
<!-- Node10 -->
<g id="node10" class="node">
<title>Node10</title>
<g id="a_node10"><a xlink:href="router_8h.html" target="_top" xlink:title=" ">
<polygon fill="white" stroke="black" points="185,-0.5 185,-19.5 240,-19.5 240,-0.5 185,-0.5"/>
<text text-anchor="middle" x="212.5" y="-7.5" font-family="Helvetica,sans-Serif" font-size="10.00">router.h</text>
</a>
</g>
</g>
<!-- Node2&#45;&gt;Node10 -->
<g id="edge12" class="edge">
<title>Node2&#45;&gt;Node10</title>
<path fill="none" stroke="midnightblue" d="M413.24,-200.26C377.01,-194.78 331.14,-182.29 300.5,-154 266.18,-122.31 289.03,-94.45 262.5,-56 252.29,-41.2 236.27,-27.92 225.12,-19.69"/>
<polygon fill="midnightblue" stroke="midnightblue" points="412.79,-203.73 423.18,-201.63 413.75,-196.8 412.79,-203.73"/>
</g>
<!-- Node11 -->
<g id="node11" class="node">
<title>Node11</title>
<g id="a_node11"><a xlink:href="mock_8h.html" target="_top" xlink:title=" ">
<polygon fill="white" stroke="black" points="717,-129 717,-148 770,-148 770,-129 717,-129"/>
<text text-anchor="middle" x="743.5" y="-136" font-family="Helvetica,sans-Serif" font-size="10.00">mock.h</text>
</a>
</g>
</g>
<!-- Node2&#45;&gt;Node11 -->
<g id="edge13" class="edge">
<title>Node2&#45;&gt;Node11</title>
<path fill="none" stroke="midnightblue" d="M525.75,-195.41C574.42,-186.88 646.39,-172.63 707.5,-154 712.91,-152.35 718.65,-150.22 723.92,-148.11"/>
<polygon fill="midnightblue" stroke="midnightblue" points="524.98,-191.99 515.73,-197.15 526.18,-198.89 524.98,-191.99"/>
</g>
<!-- Node13 -->
<g id="node13" class="node">
<title>Node13</title>
<g id="a_node13"><a xlink:href="generate__obj_8h.html" target="_top" xlink:title=" ">
<polygon fill="white" stroke="black" points="425,-129 425,-148 514,-148 514,-129 425,-129"/>
<text text-anchor="middle" x="469.5" y="-136" font-family="Helvetica,sans-Serif" font-size="10.00">generate_obj.h</text>
</a>
</g>
</g>
<!-- Node2&#45;&gt;Node13 -->
<g id="edge15" class="edge">
<title>Node2&#45;&gt;Node13</title>
<path fill="none" stroke="midnightblue" d="M469.5,-185.54C469.5,-173.17 469.5,-157.62 469.5,-148.13"/>
<polygon fill="midnightblue" stroke="midnightblue" points="466,-185.73 469.5,-195.73 473,-185.73 466,-185.73"/>
</g>
<!-- Node17 -->
<g id="node17" class="node">
<title>Node17</title>
<g id="a_node17"><a xlink:href="road__network_8cc.html" target="_top" xlink:title=" ">
<polygon fill="white" stroke="black" points="310,-129 310,-148 407,-148 407,-129 310,-129"/>
<text text-anchor="middle" x="358.5" y="-136" font-family="Helvetica,sans-Serif" font-size="10.00">road_network.cc</text>
</a>
</g>
</g>
<!-- Node2&#45;&gt;Node17 -->
<g id="edge20" class="edge">
<title>Node2&#45;&gt;Node17</title>
<path fill="none" stroke="midnightblue" d="M445.79,-190.62C423.8,-177.74 391.76,-158.98 373.23,-148.13"/>
<polygon fill="midnightblue" stroke="midnightblue" points="444.13,-193.7 454.53,-195.73 447.67,-187.66 444.13,-193.7"/>
</g>
<!-- Node4 -->
<g id="node4" class="node">
<title>Node4</title>
<g id="a_node4"><a xlink:href="road__network__validator_8cc.html" target="_top" xlink:title=" ">
<polygon fill="white" stroke="black" points="107.5,-62 107.5,-81 253.5,-81 253.5,-62 107.5,-62"/>
<text text-anchor="middle" x="180.5" y="-69" font-family="Helvetica,sans-Serif" font-size="10.00">road_network_validator.cc</text>
</a>
</g>
</g>
<!-- Node3&#45;&gt;Node4 -->
<g id="edge3" class="edge">
<title>Node3&#45;&gt;Node4</title>
<path fill="none" stroke="midnightblue" d="M181.92,-118.54C181.54,-106.17 181.06,-90.62 180.77,-81.13"/>
<polygon fill="midnightblue" stroke="midnightblue" points="178.42,-118.85 182.23,-128.73 185.42,-118.63 178.42,-118.85"/>
</g>
<!-- Node6 -->
<g id="node6" class="node">
<title>Node6</title>
<g id="a_node6"><a xlink:href="create__road__network_8cc.html" target="_top" xlink:title=" ">
<polygon fill="white" stroke="black" points="569,-0.5 569,-19.5 702,-19.5 702,-0.5 569,-0.5"/>
<text text-anchor="middle" x="635.5" y="-7.5" font-family="Helvetica,sans-Serif" font-size="10.00">create_road_network.cc</text>
</a>
</g>
</g>
<!-- Node5&#45;&gt;Node6 -->
<g id="edge5" class="edge">
<title>Node5&#45;&gt;Node6</title>
<path fill="none" stroke="midnightblue" d="M635.5,-51.82C635.5,-41 635.5,-27.9 635.5,-19.51"/>
<polygon fill="midnightblue" stroke="midnightblue" points="632,-51.98 635.5,-61.98 639,-51.98 632,-51.98"/>
</g>
<!-- Node7&#45;&gt;Node5 -->
<g id="edge7" class="edge">
<title>Node7&#45;&gt;Node5</title>
<path fill="none" stroke="midnightblue" d="M634.79,-118.54C634.98,-106.17 635.22,-90.62 635.37,-81.13"/>
<polygon fill="midnightblue" stroke="midnightblue" points="631.29,-118.68 634.63,-128.73 638.29,-118.79 631.29,-118.68"/>
</g>
<!-- Node8&#45;&gt;Node9 -->
<g id="edge9" class="edge">
<title>Node8&#45;&gt;Node9</title>
<path fill="none" stroke="midnightblue" d="M37.38,-119.66C44.32,-107.13 53.3,-90.91 58.72,-81.13"/>
<polygon fill="midnightblue" stroke="midnightblue" points="34.14,-118.29 32.36,-128.73 40.26,-121.68 34.14,-118.29"/>
</g>
<!-- Node9&#45;&gt;Node10 -->
<g id="edge10" class="edge">
<title>Node9&#45;&gt;Node10</title>
<path fill="none" stroke="midnightblue" d="M93.63,-57.98C95.27,-57.31 96.91,-56.64 98.5,-56 130.46,-43.07 167.62,-28.49 190.6,-19.52"/>
<polygon fill="midnightblue" stroke="midnightblue" points="92.12,-54.82 84.2,-61.86 94.78,-61.29 92.12,-54.82"/>
</g>
<!-- Node12 -->
<g id="node12" class="node">
<title>Node12</title>
<g id="a_node12"><a xlink:href="mock_8cc.html" target="_top" xlink:title=" ">
<polygon fill="white" stroke="black" points="718,-62 718,-81 775,-81 775,-62 718,-62"/>
<text text-anchor="middle" x="746.5" y="-69" font-family="Helvetica,sans-Serif" font-size="10.00">mock.cc</text>
</a>
</g>
</g>
<!-- Node11&#45;&gt;Node12 -->
<g id="edge14" class="edge">
<title>Node11&#45;&gt;Node12</title>
<path fill="none" stroke="midnightblue" d="M744.38,-118.54C744.95,-106.17 745.66,-90.62 746.1,-81.13"/>
<polygon fill="midnightblue" stroke="midnightblue" points="740.87,-118.58 743.9,-128.73 747.86,-118.91 740.87,-118.58"/>
</g>
<!-- Node14 -->
<g id="node14" class="node">
<title>Node14</title>
<g id="a_node14"><a xlink:href="generate__urdf_8h.html" target="_top" xlink:title=" ">
<polygon fill="white" stroke="black" points="460,-62 460,-81 553,-81 553,-62 460,-62"/>
<text text-anchor="middle" x="506.5" y="-69" font-family="Helvetica,sans-Serif" font-size="10.00">generate_urdf.h</text>
</a>
</g>
</g>
<!-- Node13&#45;&gt;Node14 -->
<g id="edge16" class="edge">
<title>Node13&#45;&gt;Node14</title>
<path fill="none" stroke="midnightblue" d="M479.44,-120.03C486.61,-107.45 495.97,-91.01 501.59,-81.13"/>
<polygon fill="midnightblue" stroke="midnightblue" points="476.4,-118.31 474.49,-128.73 482.48,-121.77 476.4,-118.31"/>
</g>
<!-- Node15 -->
<g id="node15" class="node">
<title>Node15</title>
<g id="a_node15"><a xlink:href="generate__urdf_8cc.html" target="_top" xlink:title=" ">
<polygon fill="white" stroke="black" points="338.5,-0.5 338.5,-19.5 436.5,-19.5 436.5,-0.5 338.5,-0.5"/>
<text text-anchor="middle" x="387.5" y="-7.5" font-family="Helvetica,sans-Serif" font-size="10.00">generate_urdf.cc</text>
</a>
</g>
</g>
<!-- Node13&#45;&gt;Node15 -->
<g id="edge19" class="edge">
<title>Node13&#45;&gt;Node15</title>
<path fill="none" stroke="midnightblue" d="M432.84,-125.73C396.08,-113.56 344.14,-95.22 338.5,-87 330.7,-75.64 332.96,-68.61 338.5,-56 345.47,-40.14 361.09,-27.42 372.84,-19.6"/>
<polygon fill="midnightblue" stroke="midnightblue" points="432.16,-129.19 442.75,-128.98 434.34,-122.54 432.16,-129.19"/>
</g>
<!-- Node16 -->
<g id="node16" class="node">
<title>Node16</title>
<g id="a_node16"><a xlink:href="generate__obj_8cc.html" target="_top" xlink:title=" ">
<polygon fill="white" stroke="black" points="347.5,-62 347.5,-81 441.5,-81 441.5,-62 347.5,-62"/>
<text text-anchor="middle" x="394.5" y="-69" font-family="Helvetica,sans-Serif" font-size="10.00">generate_obj.cc</text>
</a>
</g>
</g>
<!-- Node13&#45;&gt;Node16 -->
<g id="edge18" class="edge">
<title>Node13&#45;&gt;Node16</title>
<path fill="none" stroke="midnightblue" d="M451.45,-121.86C436.71,-109.08 416.41,-91.49 404.45,-81.13"/>
<polygon fill="midnightblue" stroke="midnightblue" points="449.54,-124.83 459.39,-128.73 454.12,-119.54 449.54,-124.83"/>
</g>
<!-- Node14&#45;&gt;Node15 -->
<g id="edge17" class="edge">
<title>Node14&#45;&gt;Node15</title>
<path fill="none" stroke="midnightblue" d="M480.23,-57.37C457.17,-45.83 424.3,-29.4 404.52,-19.51"/>
<polygon fill="midnightblue" stroke="midnightblue" points="478.94,-60.63 489.45,-61.98 482.07,-54.37 478.94,-60.63"/>
</g>
<!-- Node18&#45;&gt;Node2 -->
<g id="edge22" class="edge">
<title>Node18&#45;&gt;Node2</title>
<path fill="none" stroke="midnightblue" d="M1297.46,-262.1C1132.79,-251.04 664.88,-219.62 515.76,-209.61"/>
<polygon fill="midnightblue" stroke="midnightblue" points="1297.65,-265.62 1307.86,-262.8 1298.12,-258.64 1297.65,-265.62"/>
</g>
<!-- Node18&#45;&gt;Node11 -->
<g id="edge48" class="edge">
<title>Node18&#45;&gt;Node11</title>
<path fill="none" stroke="midnightblue" d="M1297.7,-264.02C1164.65,-259.08 844.89,-244.86 802.5,-221 772.67,-204.21 753.93,-165.35 746.79,-148.06"/>
<polygon fill="midnightblue" stroke="midnightblue" points="1297.59,-267.52 1307.71,-264.39 1297.84,-260.52 1297.59,-267.52"/>
</g>
<!-- Node19 -->
<g id="node19" class="node">
<title>Node19</title>
<g id="a_node19"><a xlink:href="intersection__book__loader_8h.html" target="_top" xlink:title=" ">
<polygon fill="white" stroke="black" points="1332,-196 1332,-215 1481,-215 1481,-196 1332,-196"/>
<text text-anchor="middle" x="1406.5" y="-203" font-family="Helvetica,sans-Serif" font-size="10.00">intersection_book_loader.h</text>
</a>
</g>
</g>
<!-- Node18&#45;&gt;Node19 -->
<g id="edge23" class="edge">
<title>Node18&#45;&gt;Node19</title>
<path fill="none" stroke="midnightblue" d="M1369.5,-249.67C1379.11,-238.45 1391.49,-224.02 1399.21,-215.01"/>
<polygon fill="midnightblue" stroke="midnightblue" points="1366.66,-247.6 1362.81,-257.48 1371.97,-252.16 1366.66,-247.6"/>
</g>
<!-- Node21 -->
<g id="node21" class="node">
<title>Node21</title>
<g id="a_node21"><a xlink:href="manual__discrete__value__rule__state__provider_8h.html" target="_top" xlink:title=" ">
<polygon fill="white" stroke="black" points="1146.5,-190.5 1146.5,-220.5 1276.5,-220.5 1276.5,-190.5 1146.5,-190.5"/>
<text text-anchor="start" x="1154.5" y="-208.5" font-family="Helvetica,sans-Serif" font-size="10.00">manual_discrete_value</text>
<text text-anchor="middle" x="1211.5" y="-197.5" font-family="Helvetica,sans-Serif" font-size="10.00">_rule_state_provider.h</text>
</a>
</g>
</g>
<!-- Node18&#45;&gt;Node21 -->
<g id="edge25" class="edge">
<title>Node18&#45;&gt;Node21</title>
<path fill="none" stroke="midnightblue" d="M1325.47,-253.59C1302.12,-243.94 1269.72,-230.56 1245.44,-220.52"/>
<polygon fill="midnightblue" stroke="midnightblue" points="1324.29,-256.89 1334.87,-257.48 1326.96,-250.42 1324.29,-256.89"/>
</g>
<!-- Node22 -->
<g id="node22" class="node">
<title>Node22</title>
<g id="a_node22"><a xlink:href="phased__discrete__rule__state__provider_8h.html" target="_top" xlink:title=" ">
<polygon fill="white" stroke="black" points="1218.5,-123.5 1218.5,-153.5 1338.5,-153.5 1338.5,-123.5 1218.5,-123.5"/>
<text text-anchor="start" x="1226.5" y="-141.5" font-family="Helvetica,sans-Serif" font-size="10.00">phased_discrete_rule</text>
<text text-anchor="middle" x="1278.5" y="-130.5" font-family="Helvetica,sans-Serif" font-size="10.00">_state_provider.h</text>
</a>
</g>
</g>
<!-- Node18&#45;&gt;Node22 -->
<g id="edge38" class="edge">
<title>Node18&#45;&gt;Node22</title>
<path fill="none" stroke="midnightblue" d="M1342.32,-249.19C1336.04,-240.89 1328.58,-230.62 1322.5,-221 1308.06,-198.17 1293.62,-170.2 1285.4,-153.68"/>
<polygon fill="midnightblue" stroke="midnightblue" points="1339.68,-251.5 1348.55,-257.29 1345.23,-247.23 1339.68,-251.5"/>
</g>
<!-- Node25 -->
<g id="node25" class="node">
<title>Node25</title>
<g id="a_node25"><a xlink:href="manual__range__value__rule__state__provider_8h.html" target="_top" xlink:title=" ">
<polygon fill="white" stroke="black" points="812,-190.5 812,-220.5 937,-220.5 937,-190.5 812,-190.5"/>
<text text-anchor="start" x="820" y="-208.5" font-family="Helvetica,sans-Serif" font-size="10.00">manual_range_value</text>
<text text-anchor="middle" x="874.5" y="-197.5" font-family="Helvetica,sans-Serif" font-size="10.00">_rule_state_provider.h</text>
</a>
</g>
</g>
<!-- Node18&#45;&gt;Node25 -->
<g id="edge29" class="edge">
<title>Node18&#45;&gt;Node25</title>
<path fill="none" stroke="midnightblue" d="M1297.65,-260.01C1221.75,-251.98 1084.46,-236.89 967.5,-221 957.7,-219.67 947.34,-218.16 937.23,-216.62"/>
<polygon fill="midnightblue" stroke="midnightblue" points="1297.63,-263.52 1307.94,-261.09 1298.36,-256.56 1297.63,-263.52"/>
</g>
<!-- Node18&#45;&gt;Node27 -->
<g id="edge31" class="edge">
<title>Node18&#45;&gt;Node27</title>
<path fill="none" stroke="midnightblue" d="M1413.18,-257.89C1470.5,-249.59 1560.82,-235.83 1638.5,-221 1647.81,-219.22 1657.83,-217.1 1667.14,-215.03"/>
<polygon fill="midnightblue" stroke="midnightblue" points="1412.62,-254.44 1403.23,-259.33 1413.62,-261.37 1412.62,-254.44"/>
</g>
<!-- Node31 -->
<g id="node31" class="node">
<title>Node31</title>
<g id="a_node31"><a xlink:href="phase__ring__book__loader_8h.html" target="_top" xlink:title=" ">
<polygon fill="white" stroke="black" points="1776.5,-196 1776.5,-215 1920.5,-215 1920.5,-196 1776.5,-196"/>
<text text-anchor="middle" x="1848.5" y="-203" font-family="Helvetica,sans-Serif" font-size="10.00">phase_ring_book_loader.h</text>
</a>
</g>
</g>
<!-- Node18&#45;&gt;Node31 -->
<g id="edge35" class="edge">
<title>Node18&#45;&gt;Node31</title>
<path fill="none" stroke="midnightblue" d="M1413.56,-260.92C1493.46,-253.64 1641.75,-239.1 1767.5,-221 1779.38,-219.29 1792.18,-217.14 1804.03,-215.03"/>
<polygon fill="midnightblue" stroke="midnightblue" points="1412.86,-257.47 1403.21,-261.86 1413.49,-264.44 1412.86,-257.47"/>
</g>
<!-- Node34 -->
<g id="node34" class="node">
<title>Node34</title>
<g id="a_node34"><a xlink:href="road__rulebook__loader_8h.html" target="_top" xlink:title=" ">
<polygon fill="white" stroke="black" points="1499,-196 1499,-215 1630,-215 1630,-196 1499,-196"/>
<text text-anchor="middle" x="1564.5" y="-203" font-family="Helvetica,sans-Serif" font-size="10.00">road_rulebook_loader.h</text>
</a>
</g>
</g>
<!-- Node18&#45;&gt;Node34 -->
<g id="edge39" class="edge">
<title>Node18&#45;&gt;Node34</title>
<path fill="none" stroke="midnightblue" d="M1395.28,-254.68C1435.89,-243.11 1498.01,-225.43 1534.61,-215.01"/>
<polygon fill="midnightblue" stroke="midnightblue" points="1394.1,-251.37 1385.44,-257.48 1396.02,-258.1 1394.1,-251.37"/>
</g>
<!-- Node35 -->
<g id="node35" class="node">
<title>Node35</title>
<g id="a_node35"><a xlink:href="rule__filter_8h.html" target="_top" xlink:title=" ">
<polygon fill="white" stroke="black" points="977,-196 977,-215 1050,-215 1050,-196 977,-196"/>
<text text-anchor="middle" x="1013.5" y="-203" font-family="Helvetica,sans-Serif" font-size="10.00">rule_filter.h</text>
</a>
</g>
</g>
<!-- Node18&#45;&gt;Node35 -->
<g id="edge42" class="edge">
<title>Node18&#45;&gt;Node35</title>
<path fill="none" stroke="midnightblue" d="M1297.88,-255.97C1227.22,-243.68 1109.57,-223.21 1050.18,-212.88"/>
<polygon fill="midnightblue" stroke="midnightblue" points="1297.49,-259.46 1307.95,-257.73 1298.69,-252.56 1297.49,-259.46"/>
</g>
<!-- Node18&#45;&gt;Node37 -->
<g id="edge47" class="edge">
<title>Node18&#45;&gt;Node37</title>
<path fill="none" stroke="midnightblue" d="M1413.29,-264.3C1517.15,-260.61 1742.04,-249.76 1929.5,-221 1939.37,-219.49 1950,-217.27 1959.65,-215.03"/>
<polygon fill="midnightblue" stroke="midnightblue" points="1412.89,-260.81 1403.02,-264.65 1413.14,-267.8 1412.89,-260.81"/>
</g>
<!-- Node20 -->
<g id="node20" class="node">
<title>Node20</title>
<g id="a_node20"><a xlink:href="intersection__book__loader_8cc.html" target="_top" xlink:title=" ">
<polygon fill="white" stroke="black" points="1357,-129 1357,-148 1510,-148 1510,-129 1357,-129"/>
<text text-anchor="middle" x="1433.5" y="-136" font-family="Helvetica,sans-Serif" font-size="10.00">intersection_book_loader.cc</text>
</a>
</g>
</g>
<!-- Node19&#45;&gt;Node20 -->
<g id="edge24" class="edge">
<title>Node19&#45;&gt;Node20</title>
<path fill="none" stroke="midnightblue" d="M1414.06,-186.29C1419.25,-173.81 1425.89,-157.81 1429.92,-148.13"/>
<polygon fill="midnightblue" stroke="midnightblue" points="1410.75,-185.16 1410.14,-195.73 1417.21,-187.84 1410.75,-185.16"/>
</g>
<!-- Node21&#45;&gt;Node22 -->
<g id="edge26" class="edge">
<title>Node21&#45;&gt;Node22</title>
<path fill="none" stroke="midnightblue" d="M1233.34,-183.31C1243.39,-173.56 1255.04,-162.26 1263.99,-153.58"/>
<polygon fill="midnightblue" stroke="midnightblue" points="1230.78,-180.92 1226.04,-190.4 1235.65,-185.94 1230.78,-180.92"/>
</g>
<!-- Node24 -->
<g id="node24" class="node">
<title>Node24</title>
<g id="a_node24"><a xlink:href="manual__discrete__value__rule__state__provider_8cc.html" target="_top" xlink:title=" ">
<polygon fill="white" stroke="black" points="1070.5,-123.5 1070.5,-153.5 1200.5,-153.5 1200.5,-123.5 1070.5,-123.5"/>
<text text-anchor="start" x="1078.5" y="-141.5" font-family="Helvetica,sans-Serif" font-size="10.00">manual_discrete_value</text>
<text text-anchor="middle" x="1135.5" y="-130.5" font-family="Helvetica,sans-Serif" font-size="10.00">_rule_state_provider.cc</text>
</a>
</g>
</g>
<!-- Node21&#45;&gt;Node24 -->
<g id="edge28" class="edge">
<title>Node21&#45;&gt;Node24</title>
<path fill="none" stroke="midnightblue" d="M1187.39,-183.88C1175.84,-174.01 1162.31,-162.43 1151.96,-153.58"/>
<polygon fill="midnightblue" stroke="midnightblue" points="1185.13,-186.56 1195.01,-190.4 1189.68,-181.24 1185.13,-186.56"/>
</g>
<!-- Node23 -->
<g id="node23" class="node">
<title>Node23</title>
<g id="a_node23"><a xlink:href="phased__discrete__rule__state__provider_8cc.html" target="_top" xlink:title=" ">
<polygon fill="white" stroke="black" points="1052.5,-56.5 1052.5,-86.5 1172.5,-86.5 1172.5,-56.5 1052.5,-56.5"/>
<text text-anchor="start" x="1060.5" y="-74.5" font-family="Helvetica,sans-Serif" font-size="10.00">phased_discrete_rule</text>
<text text-anchor="middle" x="1112.5" y="-63.5" font-family="Helvetica,sans-Serif" font-size="10.00">_state_provider.cc</text>
</a>
</g>
</g>
<!-- Node22&#45;&gt;Node23 -->
<g id="edge27" class="edge">
<title>Node22&#45;&gt;Node23</title>
<path fill="none" stroke="midnightblue" d="M1232.99,-119.68C1206.37,-109.26 1173.23,-96.28 1148.45,-86.58"/>
<polygon fill="midnightblue" stroke="midnightblue" points="1231.89,-123.01 1242.48,-123.4 1234.45,-116.49 1231.89,-123.01"/>
</g>
<!-- Node26 -->
<g id="node26" class="node">
<title>Node26</title>
<g id="a_node26"><a xlink:href="manual__range__value__rule__state__provider_8cc.html" target="_top" xlink:title=" ">
<polygon fill="white" stroke="black" points="788.5,-123.5 788.5,-153.5 918.5,-153.5 918.5,-123.5 788.5,-123.5"/>
<text text-anchor="start" x="796.5" y="-141.5" font-family="Helvetica,sans-Serif" font-size="10.00">manual_range_value</text>
<text text-anchor="middle" x="853.5" y="-130.5" font-family="Helvetica,sans-Serif" font-size="10.00">_rule_state_provider.cc</text>
</a>
</g>
</g>
<!-- Node25&#45;&gt;Node26 -->
<g id="edge30" class="edge">
<title>Node25&#45;&gt;Node26</title>
<path fill="none" stroke="midnightblue" d="M866.81,-180.7C863.87,-171.59 860.61,-161.49 858.05,-153.58"/>
<polygon fill="midnightblue" stroke="midnightblue" points="863.54,-181.96 869.94,-190.4 870.2,-179.8 863.54,-181.96"/>
</g>
<!-- Node28 -->
<g id="node28" class="node">
<title>Node28</title>
<g id="a_node28"><a xlink:href="manual__rulebook_8cc.html" target="_top" xlink:title=" ">
<polygon fill="white" stroke="black" points="1828,-129 1828,-148 1943,-148 1943,-129 1828,-129"/>
<text text-anchor="middle" x="1885.5" y="-136" font-family="Helvetica,sans-Serif" font-size="10.00">manual_rulebook.cc</text>
</a>
</g>
</g>
<!-- Node27&#45;&gt;Node28 -->
<g id="edge32" class="edge">
<title>Node27&#45;&gt;Node28</title>
<path fill="none" stroke="midnightblue" d="M1737.28,-192.44C1773.38,-179.54 1829.71,-159.42 1861.52,-148.06"/>
<polygon fill="midnightblue" stroke="midnightblue" points="1735.91,-189.21 1727.67,-195.87 1738.26,-195.8 1735.91,-189.21"/>
</g>
<!-- Node29 -->
<g id="node29" class="node">
<title>Node29</title>
<g id="a_node29"><a xlink:href="road__rulebook__loader_8cc.html" target="_top" xlink:title=" ">
<polygon fill="white" stroke="black" points="1528.5,-129 1528.5,-148 1664.5,-148 1664.5,-129 1528.5,-129"/>
<text text-anchor="middle" x="1596.5" y="-136" font-family="Helvetica,sans-Serif" font-size="10.00">road_rulebook_loader.cc</text>
</a>
</g>
</g>
<!-- Node27&#45;&gt;Node29 -->
<g id="edge33" class="edge">
<title>Node27&#45;&gt;Node29</title>
<path fill="none" stroke="midnightblue" d="M1680.36,-190.44C1659.17,-177.57 1628.48,-158.93 1610.7,-148.13"/>
<polygon fill="midnightblue" stroke="midnightblue" points="1678.71,-193.53 1689.07,-195.73 1682.34,-187.55 1678.71,-193.53"/>
</g>
<!-- Node30 -->
<g id="node30" class="node">
<title>Node30</title>
<g id="a_node30"><a xlink:href="road__rulebook__loader__using__rule__registry_8cc.html" target="_top" xlink:title=" ">
<polygon fill="white" stroke="black" points="1683,-123.5 1683,-153.5 1810,-153.5 1810,-123.5 1683,-123.5"/>
<text text-anchor="start" x="1691" y="-141.5" font-family="Helvetica,sans-Serif" font-size="10.00">road_rulebook_loader</text>
<text text-anchor="middle" x="1746.5" y="-130.5" font-family="Helvetica,sans-Serif" font-size="10.00">_using_rule_registry.cc</text>
</a>
</g>
</g>
<!-- Node27&#45;&gt;Node30 -->
<g id="edge34" class="edge">
<title>Node27&#45;&gt;Node30</title>
<path fill="none" stroke="midnightblue" d="M1714.84,-187.35C1721.81,-176.82 1730.62,-163.5 1737.18,-153.59"/>
<polygon fill="midnightblue" stroke="midnightblue" points="1711.9,-185.46 1709.3,-195.73 1717.74,-189.32 1711.9,-185.46"/>
</g>
<!-- Node32 -->
<g id="node32" class="node">
<title>Node32</title>
<g id="a_node32"><a xlink:href="phase__ring__book__loader_8cc.html" target="_top" xlink:title=" ">
<polygon fill="white" stroke="black" points="1961,-129 1961,-148 2110,-148 2110,-129 1961,-129"/>
<text text-anchor="middle" x="2035.5" y="-136" font-family="Helvetica,sans-Serif" font-size="10.00">phase_ring_book_loader.cc</text>
</a>
</g>
</g>
<!-- Node31&#45;&gt;Node32 -->
<g id="edge36" class="edge">
<title>Node31&#45;&gt;Node32</title>
<path fill="none" stroke="midnightblue" d="M1883.21,-192.44C1920.3,-179.54 1978.18,-159.42 2010.86,-148.06"/>
<polygon fill="midnightblue" stroke="midnightblue" points="1881.63,-189.28 1873.33,-195.87 1883.93,-195.89 1881.63,-189.28"/>
</g>
<!-- Node33 -->
<g id="node33" class="node">
<title>Node33</title>
<g id="a_node33"><a xlink:href="phase__ring__book__loader__old__rules_8cc.html" target="_top" xlink:title=" ">
<polygon fill="white" stroke="black" points="2128,-123.5 2128,-153.5 2263,-153.5 2263,-123.5 2128,-123.5"/>
<text text-anchor="start" x="2136" y="-141.5" font-family="Helvetica,sans-Serif" font-size="10.00">phase_ring_book_loader</text>
<text text-anchor="middle" x="2195.5" y="-130.5" font-family="Helvetica,sans-Serif" font-size="10.00">_old_rules.cc</text>
</a>
</g>
</g>
<!-- Node31&#45;&gt;Node33 -->
<g id="edge37" class="edge">
<title>Node31&#45;&gt;Node33</title>
<path fill="none" stroke="midnightblue" d="M1904.4,-194.15C1959.21,-184 2045.12,-168.03 2119.5,-154 2122.27,-153.48 2125.1,-152.94 2127.96,-152.4"/>
<polygon fill="midnightblue" stroke="midnightblue" points="1903.74,-190.72 1894.54,-195.98 1905.01,-197.6 1903.74,-190.72"/>
</g>
<!-- Node34&#45;&gt;Node29 -->
<g id="edge40" class="edge">
<title>Node34&#45;&gt;Node29</title>
<path fill="none" stroke="midnightblue" d="M1573.28,-186.66C1579.45,-174.13 1587.44,-157.91 1592.25,-148.13"/>
<polygon fill="midnightblue" stroke="midnightblue" points="1570.09,-185.22 1568.82,-195.73 1576.37,-188.31 1570.09,-185.22"/>
</g>
<!-- Node34&#45;&gt;Node30 -->
<g id="edge41" class="edge">
<title>Node34&#45;&gt;Node30</title>
<path fill="none" stroke="midnightblue" d="M1598.13,-192.49C1628.98,-181.47 1674.7,-165.14 1707.22,-153.53"/>
<polygon fill="midnightblue" stroke="midnightblue" points="1596.91,-189.21 1588.67,-195.87 1599.26,-195.8 1596.91,-189.21"/>
</g>
<!-- Node35&#45;&gt;Node23 -->
<g id="edge45" class="edge">
<title>Node35&#45;&gt;Node23</title>
<path fill="none" stroke="midnightblue" d="M993.78,-189.4C974.36,-172.66 949.72,-145.1 965.5,-123 985.18,-95.44 1020.89,-82.76 1052.19,-77"/>
<polygon fill="midnightblue" stroke="midnightblue" points="991.7,-192.22 1001.65,-195.87 996.15,-186.81 991.7,-192.22"/>
</g>
<!-- Node35&#45;&gt;Node24 -->
<g id="edge43" class="edge">
<title>Node35&#45;&gt;Node24</title>
<path fill="none" stroke="midnightblue" d="M1038.75,-191.05C1059.26,-180.12 1088.09,-164.76 1108.94,-153.65"/>
<polygon fill="midnightblue" stroke="midnightblue" points="1036.88,-188.08 1029.7,-195.87 1040.17,-194.26 1036.88,-188.08"/>
</g>
<!-- Node35&#45;&gt;Node26 -->
<g id="edge44" class="edge">
<title>Node35&#45;&gt;Node26</title>
<path fill="none" stroke="midnightblue" d="M982.87,-192.06C955.77,-181.05 916.25,-164.99 888.03,-153.53"/>
<polygon fill="midnightblue" stroke="midnightblue" points="981.67,-195.35 992.25,-195.87 984.31,-188.86 981.67,-195.35"/>
</g>
<!-- Node36 -->
<g id="node36" class="node">
<title>Node36</title>
<g id="a_node36"><a xlink:href="rule__filter_8cc.html" target="_top" xlink:title=" ">
<polygon fill="white" stroke="black" points="975,-129 975,-148 1052,-148 1052,-129 975,-129"/>
<text text-anchor="middle" x="1013.5" y="-136" font-family="Helvetica,sans-Serif" font-size="10.00">rule_filter.cc</text>
</a>
</g>
</g>
<!-- Node35&#45;&gt;Node36 -->
<g id="edge46" class="edge">
<title>Node35&#45;&gt;Node36</title>
<path fill="none" stroke="midnightblue" d="M1013.5,-185.54C1013.5,-173.17 1013.5,-157.62 1013.5,-148.13"/>
<polygon fill="midnightblue" stroke="midnightblue" points="1010,-185.73 1013.5,-195.73 1017,-185.73 1010,-185.73"/>
</g>
<!-- Node39 -->
<g id="node39" class="node">
<title>Node39</title>
<g id="a_node39"><a xlink:href="rules__speed__limit__compare_8cc.html" target="_top" xlink:title=" ">
<polygon fill="white" stroke="black" points="2064.5,-196 2064.5,-215 2228.5,-215 2228.5,-196 2064.5,-196"/>
<text text-anchor="middle" x="2146.5" y="-203" font-family="Helvetica,sans-Serif" font-size="10.00">rules_speed_limit_compare.cc</text>
</a>
</g>
</g>
<!-- Node38&#45;&gt;Node39 -->
<g id="edge52" class="edge">
<title>Node38&#45;&gt;Node39</title>
<path fill="none" stroke="midnightblue" d="M2081.3,-251.61C2097.84,-240.17 2120.42,-224.55 2134.2,-215.01"/>
<polygon fill="midnightblue" stroke="midnightblue" points="2079.05,-248.91 2072.82,-257.48 2083.04,-254.66 2079.05,-248.91"/>
</g>
</g>
</svg>
