<?xml version="1.0" encoding="UTF-8" standalone="no"?>
<!DOCTYPE svg PUBLIC "-//W3C//DTD SVG 1.1//EN"
 "http://www.w3.org/Graphics/SVG/1.1/DTD/svg11.dtd">
<!-- Generated by graphviz version 2.43.0 (0)
 -->
<!-- Title: speed_limit_rule.h Pages: 1 -->
<!--zoomable 341 -->
<svg id="main" version="1.1" xmlns="http://www.w3.org/2000/svg" xmlns:xlink="http://www.w3.org/1999/xlink" xml:space="preserve" onload="init(evt)">
<style type="text/css"><![CDATA[
.edge:hover path { stroke: red; }
.edge:hover polygon { stroke: red; fill: red; }
]]></style>
<script type="text/javascript"><![CDATA[
var edges = document.getElementsByTagName('g');
if (edges && edges.length) {
  for (var i=0;i<edges.length;i++) {
    if (edges[i].id.substr(0,4)=='edge') {
      edges[i].setAttribute('class','edge');
    }
  }
}
]]></script>
        <defs>
                <circle id="rim" cx="0" cy="0" r="7"/>
                <circle id="rim2" cx="0" cy="0" r="3.5"/>
                <g id="zoomPlus">
                        <use xlink:href="#rim" fill="#404040">
                                <set attributeName="fill" to="#808080" begin="zoomplus.mouseover" end="zoomplus.mouseout"/>
                        </use>
                        <path d="M-4,0h8M0,-4v8" fill="none" stroke="white" stroke-width="1.5" pointer-events="none"/>
                </g>
                <g id="zoomMin">
                        <use xlink:href="#rim" fill="#404040">
                                <set attributeName="fill" to="#808080" begin="zoomminus.mouseover" end="zoomminus.mouseout"/>
                        </use>
                        <path d="M-4,0h8" fill="none" stroke="white" stroke-width="1.5" pointer-events="none"/>
                </g>
                <g id="dirArrow">
                        <path fill="none" stroke="white" stroke-width="1.5" d="M0,-3.0v7 M-2.5,-0.5L0,-3.0L2.5,-0.5"/>
                </g>
               <g id="resetDef">
                       <use xlink:href="#rim2" fill="#404040">
                               <set attributeName="fill" to="#808080" begin="reset.mouseover" end="reset.mouseout"/>
                       </use>
               </g>
        </defs>

<script type="text/javascript">
var viewWidth = 2270;
var viewHeight = 341;
var sectionId = 'dynsection-1';
</script>
<script xlink:href="svgpan.js"/>
<svg id="graph" class="graph">
<g id="viewport">
<title>speed_limit_rule.h</title>
<polygon fill="white" stroke="transparent" points="-4,4 -4,-337 2266,-337 2266,4 -4,4"/>
<!-- Node1 -->
<g id="node1" class="node">
<title>Node1</title>
<g id="a_node1"><a xlink:title=" ">
<polygon fill="#bfbfbf" stroke="black" points="1853,-313.5 1853,-332.5 1960,-332.5 1960,-313.5 1853,-313.5"/>
<text text-anchor="middle" x="1906.5" y="-320.5" font-family="Helvetica,sans-Serif" font-size="10.00">speed_limit_rule.h</text>
</a>
</g>
</g>
<!-- Node2 -->
<g id="node2" class="node">
<title>Node2</title>
<g id="a_node2"><a xlink:href="road__network_8h.html" target="_top" xlink:title=" ">
<polygon fill="white" stroke="black" points="495.5,-196 495.5,-215 587.5,-215 587.5,-196 495.5,-196"/>
<text text-anchor="middle" x="541.5" y="-203" font-family="Helvetica,sans-Serif" font-size="10.00">road_network.h</text>
</a>
</g>
</g>
<!-- Node1&#45;&gt;Node2 -->
<g id="edge1" class="edge">
<title>Node1&#45;&gt;Node2</title>
<path fill="none" stroke="midnightblue" d="M1842.59,-317.39C1734.73,-309.55 1509.69,-292.91 1319.5,-277 1041.43,-253.74 707.78,-222.33 587.52,-210.89"/>
<polygon fill="midnightblue" stroke="midnightblue" points="1842.43,-320.89 1852.66,-318.12 1842.94,-313.91 1842.43,-320.89"/>
</g>
<!-- Node20 -->
<g id="node20" class="node">
<title>Node20</title>
<g id="a_node20"><a xlink:href="api_2rules_2compare_8h.html" target="_top" xlink:title=" ">
<polygon fill="white" stroke="black" points="2061.5,-257.5 2061.5,-276.5 2129.5,-276.5 2129.5,-257.5 2061.5,-257.5"/>
<text text-anchor="middle" x="2095.5" y="-264.5" font-family="Helvetica,sans-Serif" font-size="10.00">compare.h</text>
</a>
</g>
</g>
<!-- Node1&#45;&gt;Node20 -->
<g id="edge23" class="edge">
<title>Node1&#45;&gt;Node20</title>
<path fill="none" stroke="midnightblue" d="M1946.51,-310.57C1982.17,-300.38 2033.54,-285.7 2065.69,-276.52"/>
<polygon fill="midnightblue" stroke="midnightblue" points="1945.1,-307.33 1936.45,-313.44 1947.02,-314.06 1945.1,-307.33"/>
</g>
<!-- Node22 -->
<g id="node22" class="node">
<title>Node22</title>
<g id="a_node22"><a xlink:href="road__rulebook_8h.html" target="_top" xlink:title=" ">
<polygon fill="white" stroke="black" points="1329,-257.5 1329,-276.5 1424,-276.5 1424,-257.5 1329,-257.5"/>
<text text-anchor="middle" x="1376.5" y="-264.5" font-family="Helvetica,sans-Serif" font-size="10.00">road_rulebook.h</text>
</a>
</g>
</g>
<!-- Node1&#45;&gt;Node22 -->
<g id="edge25" class="edge">
<title>Node1&#45;&gt;Node22</title>
<path fill="none" stroke="midnightblue" d="M1842.69,-315.5C1735.07,-304.53 1519.85,-282.61 1424.21,-272.86"/>
<polygon fill="midnightblue" stroke="midnightblue" points="1842.46,-318.99 1852.76,-316.53 1843.17,-312.03 1842.46,-318.99"/>
</g>
<!-- Node31 -->
<g id="node31" class="node">
<title>Node31</title>
<g id="a_node31"><a xlink:href="manual__rulebook_8h.html" target="_top" xlink:title=" ">
<polygon fill="white" stroke="black" points="1851.5,-196 1851.5,-215 1961.5,-215 1961.5,-196 1851.5,-196"/>
<text text-anchor="middle" x="1906.5" y="-203" font-family="Helvetica,sans-Serif" font-size="10.00">manual_rulebook.h</text>
</a>
</g>
</g>
<!-- Node1&#45;&gt;Node31 -->
<g id="edge53" class="edge">
<title>Node1&#45;&gt;Node31</title>
<path fill="none" stroke="midnightblue" d="M1906.5,-303.16C1906.5,-277.87 1906.5,-233.94 1906.5,-215.28"/>
<polygon fill="midnightblue" stroke="midnightblue" points="1903,-303.32 1906.5,-313.32 1910,-303.32 1903,-303.32"/>
</g>
<!-- Node41 -->
<g id="node41" class="node">
<title>Node41</title>
<g id="a_node41"><a xlink:href="simple__rulebook_8h.html" target="_top" xlink:title=" ">
<polygon fill="white" stroke="black" points="1980,-196 1980,-215 2087,-215 2087,-196 1980,-196"/>
<text text-anchor="middle" x="2033.5" y="-203" font-family="Helvetica,sans-Serif" font-size="10.00">simple_rulebook.h</text>
</a>
</g>
</g>
<!-- Node1&#45;&gt;Node41 -->
<g id="edge54" class="edge">
<title>Node1&#45;&gt;Node41</title>
<path fill="none" stroke="midnightblue" d="M1923.58,-306.47C1950.62,-281.87 2002.41,-234.78 2023.84,-215.28"/>
<polygon fill="midnightblue" stroke="midnightblue" points="1921.09,-304 1916.05,-313.32 1925.8,-309.18 1921.09,-304"/>
</g>
<!-- Node3 -->
<g id="node3" class="node">
<title>Node3</title>
<g id="a_node3"><a xlink:href="road__network__validator_8h.html" target="_top" xlink:title=" ">
<polygon fill="white" stroke="black" points="115,-129 115,-148 256,-148 256,-129 115,-129"/>
<text text-anchor="middle" x="185.5" y="-136" font-family="Helvetica,sans-Serif" font-size="10.00">road_network_validator.h</text>
</a>
</g>
</g>
<!-- Node2&#45;&gt;Node3 -->
<g id="edge2" class="edge">
<title>Node2&#45;&gt;Node3</title>
<path fill="none" stroke="midnightblue" d="M485.36,-194.29C429.4,-184.1 341,-167.99 264.5,-154 253.94,-152.07 242.58,-149.99 231.87,-148.02"/>
<polygon fill="midnightblue" stroke="midnightblue" points="484.96,-197.77 495.43,-196.12 486.21,-190.88 484.96,-197.77"/>
</g>
<!-- Node5 -->
<g id="node5" class="node">
<title>Node5</title>
<g id="a_node5"><a xlink:href="create__road__network_8h.html" target="_top" xlink:title=" ">
<polygon fill="white" stroke="black" points="422.5,-62 422.5,-81 550.5,-81 550.5,-62 422.5,-62"/>
<text text-anchor="middle" x="486.5" y="-69" font-family="Helvetica,sans-Serif" font-size="10.00">create_road_network.h</text>
</a>
</g>
</g>
<!-- Node2&#45;&gt;Node5 -->
<g id="edge4" class="edge">
<title>Node2&#45;&gt;Node5</title>
<path fill="none" stroke="midnightblue" d="M539.18,-185.29C536.63,-168.33 531.63,-143.23 522.5,-123 515.23,-106.91 502.5,-90.71 494.29,-81.14"/>
<polygon fill="midnightblue" stroke="midnightblue" points="535.76,-186.13 540.57,-195.57 542.7,-185.19 535.76,-186.13"/>
</g>
<!-- Node7 -->
<g id="node7" class="node">
<title>Node7</title>
<g id="a_node7"><a xlink:href="road__network__loader_8h.html" target="_top" xlink:title=" ">
<polygon fill="white" stroke="black" points="385.5,-129 385.5,-148 513.5,-148 513.5,-129 385.5,-129"/>
<text text-anchor="middle" x="449.5" y="-136" font-family="Helvetica,sans-Serif" font-size="10.00">road_network_loader.h</text>
</a>
</g>
</g>
<!-- Node2&#45;&gt;Node7 -->
<g id="edge6" class="edge">
<title>Node2&#45;&gt;Node7</title>
<path fill="none" stroke="midnightblue" d="M520.86,-189.92C502.68,-177.07 476.79,-158.78 461.71,-148.13"/>
<polygon fill="midnightblue" stroke="midnightblue" points="518.91,-192.82 529.09,-195.73 522.94,-187.1 518.91,-192.82"/>
</g>
<!-- Node8 -->
<g id="node8" class="node">
<title>Node8</title>
<g id="a_node8"><a xlink:href="routing_2phase_8h.html" target="_top" xlink:title=" ">
<polygon fill="white" stroke="black" points="274,-129 274,-148 329,-148 329,-129 274,-129"/>
<text text-anchor="middle" x="301.5" y="-136" font-family="Helvetica,sans-Serif" font-size="10.00">phase.h</text>
</a>
</g>
</g>
<!-- Node2&#45;&gt;Node8 -->
<g id="edge8" class="edge">
<title>Node2&#45;&gt;Node8</title>
<path fill="none" stroke="midnightblue" d="M494.2,-193.6C453.9,-184.04 394.57,-169.3 343.5,-154 337.59,-152.23 331.27,-150.15 325.38,-148.13"/>
<polygon fill="midnightblue" stroke="midnightblue" points="493.49,-197.03 504.02,-195.92 495.1,-190.22 493.49,-197.03"/>
</g>
<!-- Node9 -->
<g id="node9" class="node">
<title>Node9</title>
<g id="a_node9"><a xlink:href="route_8h.html" target="_top" xlink:title=" ">
<polygon fill="white" stroke="black" points="340,-62 340,-81 391,-81 391,-62 340,-62"/>
<text text-anchor="middle" x="365.5" y="-69" font-family="Helvetica,sans-Serif" font-size="10.00">route.h</text>
</a>
</g>
</g>
<!-- Node2&#45;&gt;Node9 -->
<g id="edge13" class="edge">
<title>Node2&#45;&gt;Node9</title>
<path fill="none" stroke="midnightblue" d="M485.36,-202.25C448.83,-197.65 403.17,-185.41 376.5,-154 358.76,-133.1 361.44,-97.71 363.89,-81.32"/>
<polygon fill="midnightblue" stroke="midnightblue" points="485.07,-205.74 495.4,-203.35 485.84,-198.78 485.07,-205.74"/>
</g>
<!-- Node10 -->
<g id="node10" class="node">
<title>Node10</title>
<g id="a_node10"><a xlink:href="router_8h.html" target="_top" xlink:title=" ">
<polygon fill="white" stroke="black" points="375,-0.5 375,-19.5 430,-19.5 430,-0.5 375,-0.5"/>
<text text-anchor="middle" x="402.5" y="-7.5" font-family="Helvetica,sans-Serif" font-size="10.00">router.h</text>
</a>
</g>
</g>
<!-- Node2&#45;&gt;Node10 -->
<g id="edge14" class="edge">
<title>Node2&#45;&gt;Node10</title>
<path fill="none" stroke="midnightblue" d="M550.91,-186.78C565.46,-156.65 588.85,-94.94 559.5,-56 555.52,-50.72 474.01,-29.25 430.05,-17.98"/>
<polygon fill="midnightblue" stroke="midnightblue" points="547.78,-185.2 546.4,-195.7 554.03,-188.36 547.78,-185.2"/>
</g>
<!-- Node13 -->
<g id="node13" class="node">
<title>Node13</title>
<g id="a_node13"><a xlink:href="mock_8h.html" target="_top" xlink:title=" ">
<polygon fill="white" stroke="black" points="716,-129 716,-148 769,-148 769,-129 716,-129"/>
<text text-anchor="middle" x="742.5" y="-136" font-family="Helvetica,sans-Serif" font-size="10.00">mock.h</text>
</a>
</g>
</g>
<!-- Node2&#45;&gt;Node13 -->
<g id="edge15" class="edge">
<title>Node2&#45;&gt;Node13</title>
<path fill="none" stroke="midnightblue" d="M582.08,-193.14C615.67,-183.48 664.52,-168.85 706.5,-154 711.58,-152.2 717,-150.11 722.06,-148.09"/>
<polygon fill="midnightblue" stroke="midnightblue" points="580.82,-189.86 572.17,-195.97 582.74,-196.59 580.82,-189.86"/>
</g>
<!-- Node15 -->
<g id="node15" class="node">
<title>Node15</title>
<g id="a_node15"><a xlink:href="generate__obj_8h.html" target="_top" xlink:title=" ">
<polygon fill="white" stroke="black" points="609,-129 609,-148 698,-148 698,-129 609,-129"/>
<text text-anchor="middle" x="653.5" y="-136" font-family="Helvetica,sans-Serif" font-size="10.00">generate_obj.h</text>
</a>
</g>
</g>
<!-- Node2&#45;&gt;Node15 -->
<g id="edge17" class="edge">
<title>Node2&#45;&gt;Node15</title>
<path fill="none" stroke="midnightblue" d="M565.42,-190.62C587.61,-177.74 619.94,-158.98 638.63,-148.13"/>
<polygon fill="midnightblue" stroke="midnightblue" points="563.5,-187.69 556.6,-195.73 567.01,-193.74 563.5,-187.69"/>
</g>
<!-- Node19 -->
<g id="node19" class="node">
<title>Node19</title>
<g id="a_node19"><a xlink:href="road__network_8cc.html" target="_top" xlink:title=" ">
<polygon fill="white" stroke="black" points="0,-129 0,-148 97,-148 97,-129 0,-129"/>
<text text-anchor="middle" x="48.5" y="-136" font-family="Helvetica,sans-Serif" font-size="10.00">road_network.cc</text>
</a>
</g>
</g>
<!-- Node2&#45;&gt;Node19 -->
<g id="edge22" class="edge">
<title>Node2&#45;&gt;Node19</title>
<path fill="none" stroke="midnightblue" d="M485.36,-200.41C401.99,-193.8 240.74,-178.92 105.5,-154 96.76,-152.39 87.38,-150.2 78.8,-148.01"/>
<polygon fill="midnightblue" stroke="midnightblue" points="485.13,-203.91 495.38,-201.2 485.68,-196.93 485.13,-203.91"/>
</g>
<!-- Node4 -->
<g id="node4" class="node">
<title>Node4</title>
<g id="a_node4"><a xlink:href="road__network__validator_8cc.html" target="_top" xlink:title=" ">
<polygon fill="white" stroke="black" points="98.5,-62 98.5,-81 244.5,-81 244.5,-62 98.5,-62"/>
<text text-anchor="middle" x="171.5" y="-69" font-family="Helvetica,sans-Serif" font-size="10.00">road_network_validator.cc</text>
</a>
</g>
</g>
<!-- Node3&#45;&gt;Node4 -->
<g id="edge3" class="edge">
<title>Node3&#45;&gt;Node4</title>
<path fill="none" stroke="midnightblue" d="M181.5,-118.91C178.82,-106.49 175.42,-90.72 173.36,-81.13"/>
<polygon fill="midnightblue" stroke="midnightblue" points="178.08,-119.69 183.61,-128.73 184.93,-118.22 178.08,-119.69"/>
</g>
<!-- Node6 -->
<g id="node6" class="node">
<title>Node6</title>
<g id="a_node6"><a xlink:href="create__road__network_8cc.html" target="_top" xlink:title=" ">
<polygon fill="white" stroke="black" points="448,-0.5 448,-19.5 581,-19.5 581,-0.5 448,-0.5"/>
<text text-anchor="middle" x="514.5" y="-7.5" font-family="Helvetica,sans-Serif" font-size="10.00">create_road_network.cc</text>
</a>
</g>
</g>
<!-- Node5&#45;&gt;Node6 -->
<g id="edge5" class="edge">
<title>Node5&#45;&gt;Node6</title>
<path fill="none" stroke="midnightblue" d="M494.81,-52.83C499.99,-41.83 506.42,-28.16 510.5,-19.51"/>
<polygon fill="midnightblue" stroke="midnightblue" points="491.6,-51.44 490.51,-61.98 497.94,-54.42 491.6,-51.44"/>
</g>
<!-- Node7&#45;&gt;Node5 -->
<g id="edge7" class="edge">
<title>Node7&#45;&gt;Node5</title>
<path fill="none" stroke="midnightblue" d="M459.44,-120.03C466.61,-107.45 475.97,-91.01 481.59,-81.13"/>
<polygon fill="midnightblue" stroke="midnightblue" points="456.4,-118.31 454.49,-128.73 462.48,-121.77 456.4,-118.31"/>
</g>
<!-- Node8&#45;&gt;Node9 -->
<g id="edge9" class="edge">
<title>Node8&#45;&gt;Node9</title>
<path fill="none" stroke="midnightblue" d="M317.26,-121.5C329.81,-108.75 346.9,-91.39 357.01,-81.13"/>
<polygon fill="midnightblue" stroke="midnightblue" points="314.65,-119.15 310.13,-128.73 319.64,-124.06 314.65,-119.15"/>
</g>
<!-- Node12 -->
<g id="node12" class="node">
<title>Node12</title>
<g id="a_node12"><a xlink:href="routing_2phase_8cc.html" target="_top" xlink:title=" ">
<polygon fill="white" stroke="black" points="263,-62 263,-81 322,-81 322,-62 263,-62"/>
<text text-anchor="middle" x="292.5" y="-69" font-family="Helvetica,sans-Serif" font-size="10.00">phase.cc</text>
</a>
</g>
</g>
<!-- Node8&#45;&gt;Node12 -->
<g id="edge12" class="edge">
<title>Node8&#45;&gt;Node12</title>
<path fill="none" stroke="midnightblue" d="M298.87,-118.54C297.16,-106.17 295.01,-90.62 293.69,-81.13"/>
<polygon fill="midnightblue" stroke="midnightblue" points="295.45,-119.31 300.29,-128.73 302.38,-118.35 295.45,-119.31"/>
</g>
<!-- Node9&#45;&gt;Node10 -->
<g id="edge10" class="edge">
<title>Node9&#45;&gt;Node10</title>
<path fill="none" stroke="midnightblue" d="M376.28,-53.17C383.16,-42.11 391.77,-28.25 397.21,-19.51"/>
<polygon fill="midnightblue" stroke="midnightblue" points="373.11,-51.63 370.8,-61.98 379.05,-55.33 373.11,-51.63"/>
</g>
<!-- Node11 -->
<g id="node11" class="node">
<title>Node11</title>
<g id="a_node11"><a xlink:href="route_8cc.html" target="_top" xlink:title=" ">
<polygon fill="white" stroke="black" points="300.5,-0.5 300.5,-19.5 356.5,-19.5 356.5,-0.5 300.5,-0.5"/>
<text text-anchor="middle" x="328.5" y="-7.5" font-family="Helvetica,sans-Serif" font-size="10.00">route.cc</text>
</a>
</g>
</g>
<!-- Node9&#45;&gt;Node11 -->
<g id="edge11" class="edge">
<title>Node9&#45;&gt;Node11</title>
<path fill="none" stroke="midnightblue" d="M354.72,-53.17C347.84,-42.11 339.23,-28.25 333.79,-19.51"/>
<polygon fill="midnightblue" stroke="midnightblue" points="351.95,-55.33 360.2,-61.98 357.89,-51.63 351.95,-55.33"/>
</g>
<!-- Node14 -->
<g id="node14" class="node">
<title>Node14</title>
<g id="a_node14"><a xlink:href="mock_8cc.html" target="_top" xlink:title=" ">
<polygon fill="white" stroke="black" points="868,-62 868,-81 925,-81 925,-62 868,-62"/>
<text text-anchor="middle" x="896.5" y="-69" font-family="Helvetica,sans-Serif" font-size="10.00">mock.cc</text>
</a>
</g>
</g>
<!-- Node13&#45;&gt;Node14 -->
<g id="edge16" class="edge">
<title>Node13&#45;&gt;Node14</title>
<path fill="none" stroke="midnightblue" d="M772.24,-124.95C802.73,-112.08 849.34,-92.4 875.97,-81.17"/>
<polygon fill="midnightblue" stroke="midnightblue" points="770.8,-121.76 762.95,-128.87 773.52,-128.2 770.8,-121.76"/>
</g>
<!-- Node16 -->
<g id="node16" class="node">
<title>Node16</title>
<g id="a_node16"><a xlink:href="generate__urdf_8h.html" target="_top" xlink:title=" ">
<polygon fill="white" stroke="black" points="757,-62 757,-81 850,-81 850,-62 757,-62"/>
<text text-anchor="middle" x="803.5" y="-69" font-family="Helvetica,sans-Serif" font-size="10.00">generate_urdf.h</text>
</a>
</g>
</g>
<!-- Node15&#45;&gt;Node16 -->
<g id="edge18" class="edge">
<title>Node15&#45;&gt;Node16</title>
<path fill="none" stroke="midnightblue" d="M682.85,-124.78C712.56,-111.91 757.68,-92.35 783.5,-81.17"/>
<polygon fill="midnightblue" stroke="midnightblue" points="681.2,-121.68 673.42,-128.87 683.99,-128.1 681.2,-121.68"/>
</g>
<!-- Node17 -->
<g id="node17" class="node">
<title>Node17</title>
<g id="a_node17"><a xlink:href="generate__urdf_8cc.html" target="_top" xlink:title=" ">
<polygon fill="white" stroke="black" points="716.5,-0.5 716.5,-19.5 814.5,-19.5 814.5,-0.5 716.5,-0.5"/>
<text text-anchor="middle" x="765.5" y="-7.5" font-family="Helvetica,sans-Serif" font-size="10.00">generate_urdf.cc</text>
</a>
</g>
</g>
<!-- Node15&#45;&gt;Node17 -->
<g id="edge21" class="edge">
<title>Node15&#45;&gt;Node17</title>
<path fill="none" stroke="midnightblue" d="M672.36,-122.16C683.66,-112.57 698.01,-99.68 709.5,-87 729.97,-64.41 750.25,-34.52 759.82,-19.87"/>
<polygon fill="midnightblue" stroke="midnightblue" points="669.85,-119.69 664.41,-128.79 674.34,-125.07 669.85,-119.69"/>
</g>
<!-- Node18 -->
<g id="node18" class="node">
<title>Node18</title>
<g id="a_node18"><a xlink:href="generate__obj_8cc.html" target="_top" xlink:title=" ">
<polygon fill="white" stroke="black" points="606.5,-62 606.5,-81 700.5,-81 700.5,-62 606.5,-62"/>
<text text-anchor="middle" x="653.5" y="-69" font-family="Helvetica,sans-Serif" font-size="10.00">generate_obj.cc</text>
</a>
</g>
</g>
<!-- Node15&#45;&gt;Node18 -->
<g id="edge20" class="edge">
<title>Node15&#45;&gt;Node18</title>
<path fill="none" stroke="midnightblue" d="M653.5,-118.54C653.5,-106.17 653.5,-90.62 653.5,-81.13"/>
<polygon fill="midnightblue" stroke="midnightblue" points="650,-118.73 653.5,-128.73 657,-118.73 650,-118.73"/>
</g>
<!-- Node16&#45;&gt;Node17 -->
<g id="edge19" class="edge">
<title>Node16&#45;&gt;Node17</title>
<path fill="none" stroke="midnightblue" d="M792.65,-53.51C785.55,-42.39 776.57,-28.34 770.93,-19.51"/>
<polygon fill="midnightblue" stroke="midnightblue" points="789.72,-55.43 798.06,-61.98 795.62,-51.66 789.72,-55.43"/>
</g>
<!-- Node21 -->
<g id="node21" class="node">
<title>Node21</title>
<g id="a_node21"><a xlink:href="api_2rules_2compare_8cc.html" target="_top" xlink:title=" ">
<polygon fill="white" stroke="black" points="2105,-196 2105,-215 2178,-215 2178,-196 2105,-196"/>
<text text-anchor="middle" x="2141.5" y="-203" font-family="Helvetica,sans-Serif" font-size="10.00">compare.cc</text>
</a>
</g>
</g>
<!-- Node20&#45;&gt;Node21 -->
<g id="edge24" class="edge">
<title>Node20&#45;&gt;Node21</title>
<path fill="none" stroke="midnightblue" d="M2108.38,-249.34C2117.02,-238.17 2128.03,-223.93 2134.92,-215.01"/>
<polygon fill="midnightblue" stroke="midnightblue" points="2105.44,-247.42 2102.09,-257.48 2110.98,-251.7 2105.44,-247.42"/>
</g>
<!-- Node22&#45;&gt;Node2 -->
<g id="edge26" class="edge">
<title>Node22&#45;&gt;Node2</title>
<path fill="none" stroke="midnightblue" d="M1318.73,-262C1206.64,-254.22 951.82,-236.47 737.5,-221 686.28,-217.3 627.54,-212.94 587.83,-209.97"/>
<polygon fill="midnightblue" stroke="midnightblue" points="1318.58,-265.5 1328.8,-262.7 1319.07,-258.52 1318.58,-265.5"/>
</g>
<!-- Node22&#45;&gt;Node13 -->
<g id="edge52" class="edge">
<title>Node22&#45;&gt;Node13</title>
<path fill="none" stroke="midnightblue" d="M1318.39,-264.21C1181.29,-259.58 845.81,-245.85 801.5,-221 771.64,-204.25 752.92,-165.38 745.78,-148.07"/>
<polygon fill="midnightblue" stroke="midnightblue" points="1318.58,-267.71 1328.69,-264.55 1318.82,-260.72 1318.58,-267.71"/>
</g>
<!-- Node23 -->
<g id="node23" class="node">
<title>Node23</title>
<g id="a_node23"><a xlink:href="intersection__book__loader_8h.html" target="_top" xlink:title=" ">
<polygon fill="white" stroke="black" points="1529,-196 1529,-215 1678,-215 1678,-196 1529,-196"/>
<text text-anchor="middle" x="1603.5" y="-203" font-family="Helvetica,sans-Serif" font-size="10.00">intersection_book_loader.h</text>
</a>
</g>
</g>
<!-- Node22&#45;&gt;Node23 -->
<g id="edge27" class="edge">
<title>Node22&#45;&gt;Node23</title>
<path fill="none" stroke="midnightblue" d="M1418.86,-254.9C1462.95,-243.34 1531.03,-225.5 1571.04,-215.01"/>
<polygon fill="midnightblue" stroke="midnightblue" points="1417.81,-251.55 1409.02,-257.48 1419.58,-258.33 1417.81,-251.55"/>
</g>
<!-- Node25 -->
<g id="node25" class="node">
<title>Node25</title>
<g id="a_node25"><a xlink:href="manual__discrete__value__rule__state__provider_8h.html" target="_top" xlink:title=" ">
<polygon fill="white" stroke="black" points="1168.5,-190.5 1168.5,-220.5 1298.5,-220.5 1298.5,-190.5 1168.5,-190.5"/>
<text text-anchor="start" x="1176.5" y="-208.5" font-family="Helvetica,sans-Serif" font-size="10.00">manual_discrete_value</text>
<text text-anchor="middle" x="1233.5" y="-197.5" font-family="Helvetica,sans-Serif" font-size="10.00">_rule_state_provider.h</text>
</a>
</g>
</g>
<!-- Node22&#45;&gt;Node25 -->
<g id="edge29" class="edge">
<title>Node22&#45;&gt;Node25</title>
<path fill="none" stroke="midnightblue" d="M1346.67,-253.59C1323.49,-243.94 1291.32,-230.56 1267.2,-220.52"/>
<polygon fill="midnightblue" stroke="midnightblue" points="1345.43,-256.86 1356.01,-257.48 1348.12,-250.4 1345.43,-256.86"/>
</g>
<!-- Node26 -->
<g id="node26" class="node">
<title>Node26</title>
<g id="a_node26"><a xlink:href="phased__discrete__rule__state__provider_8h.html" target="_top" xlink:title=" ">
<polygon fill="white" stroke="black" points="1217.5,-123.5 1217.5,-153.5 1337.5,-153.5 1337.5,-123.5 1217.5,-123.5"/>
<text text-anchor="start" x="1225.5" y="-141.5" font-family="Helvetica,sans-Serif" font-size="10.00">phased_discrete_rule</text>
<text text-anchor="middle" x="1277.5" y="-130.5" font-family="Helvetica,sans-Serif" font-size="10.00">_state_provider.h</text>
</a>
</g>
</g>
<!-- Node22&#45;&gt;Node26 -->
<g id="edge42" class="edge">
<title>Node22&#45;&gt;Node26</title>
<path fill="none" stroke="midnightblue" d="M1363.3,-249.13C1343.68,-224.07 1307.19,-177.43 1288.76,-153.89"/>
<polygon fill="midnightblue" stroke="midnightblue" points="1360.78,-251.59 1369.7,-257.31 1366.29,-247.27 1360.78,-251.59"/>
</g>
<!-- Node29 -->
<g id="node29" class="node">
<title>Node29</title>
<g id="a_node29"><a xlink:href="manual__range__value__rule__state__provider_8h.html" target="_top" xlink:title=" ">
<polygon fill="white" stroke="black" points="811,-190.5 811,-220.5 936,-220.5 936,-190.5 811,-190.5"/>
<text text-anchor="start" x="819" y="-208.5" font-family="Helvetica,sans-Serif" font-size="10.00">manual_range_value</text>
<text text-anchor="middle" x="873.5" y="-197.5" font-family="Helvetica,sans-Serif" font-size="10.00">_rule_state_provider.h</text>
</a>
</g>
</g>
<!-- Node22&#45;&gt;Node29 -->
<g id="edge33" class="edge">
<title>Node22&#45;&gt;Node29</title>
<path fill="none" stroke="midnightblue" d="M1318.46,-260.47C1238.93,-252.69 1091.67,-237.62 966.5,-221 956.7,-219.7 946.34,-218.2 936.23,-216.68"/>
<polygon fill="midnightblue" stroke="midnightblue" points="1318.46,-263.98 1328.75,-261.47 1319.14,-257.02 1318.46,-263.98"/>
</g>
<!-- Node22&#45;&gt;Node31 -->
<g id="edge35" class="edge">
<title>Node22&#45;&gt;Node31</title>
<path fill="none" stroke="midnightblue" d="M1434.35,-262.7C1522.58,-257.14 1695.88,-244.2 1841.5,-221 1851.43,-219.42 1862.12,-217.24 1871.91,-215.05"/>
<polygon fill="midnightblue" stroke="midnightblue" points="1434.04,-259.21 1424.27,-263.32 1434.47,-266.2 1434.04,-259.21"/>
</g>
<!-- Node35 -->
<g id="node35" class="node">
<title>Node35</title>
<g id="a_node35"><a xlink:href="phase__ring__book__loader_8h.html" target="_top" xlink:title=" ">
<polygon fill="white" stroke="black" points="1354.5,-196 1354.5,-215 1498.5,-215 1498.5,-196 1354.5,-196"/>
<text text-anchor="middle" x="1426.5" y="-203" font-family="Helvetica,sans-Serif" font-size="10.00">phase_ring_book_loader.h</text>
</a>
</g>
</g>
<!-- Node22&#45;&gt;Node35 -->
<g id="edge39" class="edge">
<title>Node22&#45;&gt;Node35</title>
<path fill="none" stroke="midnightblue" d="M1390.22,-249.67C1399.65,-238.45 1411.78,-224.02 1419.35,-215.01"/>
<polygon fill="midnightblue" stroke="midnightblue" points="1387.42,-247.57 1383.66,-257.48 1392.78,-252.07 1387.42,-247.57"/>
</g>
<!-- Node38 -->
<g id="node38" class="node">
<title>Node38</title>
<g id="a_node38"><a xlink:href="road__rulebook__loader_8h.html" target="_top" xlink:title=" ">
<polygon fill="white" stroke="black" points="1702,-196 1702,-215 1833,-215 1833,-196 1702,-196"/>
<text text-anchor="middle" x="1767.5" y="-203" font-family="Helvetica,sans-Serif" font-size="10.00">road_rulebook_loader.h</text>
</a>
</g>
</g>
<!-- Node22&#45;&gt;Node38 -->
<g id="edge43" class="edge">
<title>Node22&#45;&gt;Node38</title>
<path fill="none" stroke="midnightblue" d="M1434.13,-258.21C1496.45,-249.66 1598.65,-235.23 1686.5,-221 1697.78,-219.17 1709.92,-217.07 1721.28,-215.04"/>
<polygon fill="midnightblue" stroke="midnightblue" points="1433.54,-254.76 1424.11,-259.59 1434.49,-261.7 1433.54,-254.76"/>
</g>
<!-- Node39 -->
<g id="node39" class="node">
<title>Node39</title>
<g id="a_node39"><a xlink:href="rule__filter_8h.html" target="_top" xlink:title=" ">
<polygon fill="white" stroke="black" points="976,-196 976,-215 1049,-215 1049,-196 976,-196"/>
<text text-anchor="middle" x="1012.5" y="-203" font-family="Helvetica,sans-Serif" font-size="10.00">rule_filter.h</text>
</a>
</g>
</g>
<!-- Node22&#45;&gt;Node39 -->
<g id="edge46" class="edge">
<title>Node22&#45;&gt;Node39</title>
<path fill="none" stroke="midnightblue" d="M1318.6,-256.54C1242.88,-244.16 1112.42,-222.83 1049.1,-212.48"/>
<polygon fill="midnightblue" stroke="midnightblue" points="1318.48,-260.06 1328.91,-258.22 1319.61,-253.15 1318.48,-260.06"/>
</g>
<!-- Node22&#45;&gt;Node41 -->
<g id="edge51" class="edge">
<title>Node22&#45;&gt;Node41</title>
<path fill="none" stroke="midnightblue" d="M1434.35,-264.51C1540.94,-261.12 1775.32,-250.68 1970.5,-221 1980.38,-219.5 1991,-217.29 2000.66,-215.04"/>
<polygon fill="midnightblue" stroke="midnightblue" points="1434.02,-261.02 1424.13,-264.82 1434.23,-268.01 1434.02,-261.02"/>
</g>
<!-- Node24 -->
<g id="node24" class="node">
<title>Node24</title>
<g id="a_node24"><a xlink:href="intersection__book__loader_8cc.html" target="_top" xlink:title=" ">
<polygon fill="white" stroke="black" points="1676,-129 1676,-148 1829,-148 1829,-129 1676,-129"/>
<text text-anchor="middle" x="1752.5" y="-136" font-family="Helvetica,sans-Serif" font-size="10.00">intersection_book_loader.cc</text>
</a>
</g>
</g>
<!-- Node23&#45;&gt;Node24 -->
<g id="edge28" class="edge">
<title>Node23&#45;&gt;Node24</title>
<path fill="none" stroke="midnightblue" d="M1632.66,-191.78C1662.16,-178.91 1706.99,-159.35 1732.63,-148.17"/>
<polygon fill="midnightblue" stroke="midnightblue" points="1631.05,-188.66 1623.29,-195.87 1633.85,-195.08 1631.05,-188.66"/>
</g>
<!-- Node25&#45;&gt;Node26 -->
<g id="edge30" class="edge">
<title>Node25&#45;&gt;Node26</title>
<path fill="none" stroke="midnightblue" d="M1248.82,-181.87C1255.19,-172.46 1262.38,-161.83 1267.97,-153.58"/>
<polygon fill="midnightblue" stroke="midnightblue" points="1245.75,-180.15 1243.05,-190.4 1251.55,-184.08 1245.75,-180.15"/>
</g>
<!-- Node28 -->
<g id="node28" class="node">
<title>Node28</title>
<g id="a_node28"><a xlink:href="manual__discrete__value__rule__state__provider_8cc.html" target="_top" xlink:title=" ">
<polygon fill="white" stroke="black" points="1069.5,-123.5 1069.5,-153.5 1199.5,-153.5 1199.5,-123.5 1069.5,-123.5"/>
<text text-anchor="start" x="1077.5" y="-141.5" font-family="Helvetica,sans-Serif" font-size="10.00">manual_discrete_value</text>
<text text-anchor="middle" x="1134.5" y="-130.5" font-family="Helvetica,sans-Serif" font-size="10.00">_rule_state_provider.cc</text>
</a>
</g>
</g>
<!-- Node25&#45;&gt;Node28 -->
<g id="edge32" class="edge">
<title>Node25&#45;&gt;Node28</title>
<path fill="none" stroke="midnightblue" d="M1203.39,-184.73C1188.08,-174.68 1169.81,-162.68 1155.94,-153.58"/>
<polygon fill="midnightblue" stroke="midnightblue" points="1201.74,-187.83 1212.02,-190.4 1205.58,-181.98 1201.74,-187.83"/>
</g>
<!-- Node27 -->
<g id="node27" class="node">
<title>Node27</title>
<g id="a_node27"><a xlink:href="phased__discrete__rule__state__provider_8cc.html" target="_top" xlink:title=" ">
<polygon fill="white" stroke="black" points="1080.5,-56.5 1080.5,-86.5 1200.5,-86.5 1200.5,-56.5 1080.5,-56.5"/>
<text text-anchor="start" x="1088.5" y="-74.5" font-family="Helvetica,sans-Serif" font-size="10.00">phased_discrete_rule</text>
<text text-anchor="middle" x="1140.5" y="-63.5" font-family="Helvetica,sans-Serif" font-size="10.00">_state_provider.cc</text>
</a>
</g>
</g>
<!-- Node26&#45;&gt;Node27 -->
<g id="edge31" class="edge">
<title>Node26&#45;&gt;Node27</title>
<path fill="none" stroke="midnightblue" d="M1238.49,-118.99C1216.78,-108.69 1190.17,-96.07 1170.17,-86.58"/>
<polygon fill="midnightblue" stroke="midnightblue" points="1237.24,-122.27 1247.77,-123.4 1240.24,-115.95 1237.24,-122.27"/>
</g>
<!-- Node30 -->
<g id="node30" class="node">
<title>Node30</title>
<g id="a_node30"><a xlink:href="manual__range__value__rule__state__provider_8cc.html" target="_top" xlink:title=" ">
<polygon fill="white" stroke="black" points="787.5,-123.5 787.5,-153.5 917.5,-153.5 917.5,-123.5 787.5,-123.5"/>
<text text-anchor="start" x="795.5" y="-141.5" font-family="Helvetica,sans-Serif" font-size="10.00">manual_range_value</text>
<text text-anchor="middle" x="852.5" y="-130.5" font-family="Helvetica,sans-Serif" font-size="10.00">_rule_state_provider.cc</text>
</a>
</g>
</g>
<!-- Node29&#45;&gt;Node30 -->
<g id="edge34" class="edge">
<title>Node29&#45;&gt;Node30</title>
<path fill="none" stroke="midnightblue" d="M865.81,-180.7C862.87,-171.59 859.61,-161.49 857.05,-153.58"/>
<polygon fill="midnightblue" stroke="midnightblue" points="862.54,-181.96 868.94,-190.4 869.2,-179.8 862.54,-181.96"/>
</g>
<!-- Node32 -->
<g id="node32" class="node">
<title>Node32</title>
<g id="a_node32"><a xlink:href="manual__rulebook_8cc.html" target="_top" xlink:title=" ">
<polygon fill="white" stroke="black" points="2147,-129 2147,-148 2262,-148 2262,-129 2147,-129"/>
<text text-anchor="middle" x="2204.5" y="-136" font-family="Helvetica,sans-Serif" font-size="10.00">manual_rulebook.cc</text>
</a>
</g>
</g>
<!-- Node31&#45;&gt;Node32 -->
<g id="edge36" class="edge">
<title>Node31&#45;&gt;Node32</title>
<path fill="none" stroke="midnightblue" d="M1953.76,-193.73C1959.4,-192.47 1965.08,-191.2 1970.5,-190 2044.64,-173.61 2063.28,-170.03 2137.5,-154 2146.46,-152.07 2156.09,-149.98 2165.18,-148.02"/>
<polygon fill="midnightblue" stroke="midnightblue" points="1952.7,-190.39 1943.71,-196 1954.24,-197.21 1952.7,-190.39"/>
</g>
<!-- Node33 -->
<g id="node33" class="node">
<title>Node33</title>
<g id="a_node33"><a xlink:href="road__rulebook__loader_8cc.html" target="_top" xlink:title=" ">
<polygon fill="white" stroke="black" points="1992.5,-129 1992.5,-148 2128.5,-148 2128.5,-129 1992.5,-129"/>
<text text-anchor="middle" x="2060.5" y="-136" font-family="Helvetica,sans-Serif" font-size="10.00">road_rulebook_loader.cc</text>
</a>
</g>
</g>
<!-- Node31&#45;&gt;Node33 -->
<g id="edge37" class="edge">
<title>Node31&#45;&gt;Node33</title>
<path fill="none" stroke="midnightblue" d="M1936.24,-191.95C1966.73,-179.08 2013.34,-159.4 2039.97,-148.17"/>
<polygon fill="midnightblue" stroke="midnightblue" points="1934.8,-188.76 1926.95,-195.87 1937.52,-195.2 1934.8,-188.76"/>
</g>
<!-- Node34 -->
<g id="node34" class="node">
<title>Node34</title>
<g id="a_node34"><a xlink:href="road__rulebook__loader__using__rule__registry_8cc.html" target="_top" xlink:title=" ">
<polygon fill="white" stroke="black" points="1847,-123.5 1847,-153.5 1974,-153.5 1974,-123.5 1847,-123.5"/>
<text text-anchor="start" x="1855" y="-141.5" font-family="Helvetica,sans-Serif" font-size="10.00">road_rulebook_loader</text>
<text text-anchor="middle" x="1910.5" y="-130.5" font-family="Helvetica,sans-Serif" font-size="10.00">_using_rule_registry.cc</text>
</a>
</g>
</g>
<!-- Node31&#45;&gt;Node34 -->
<g id="edge38" class="edge">
<title>Node31&#45;&gt;Node34</title>
<path fill="none" stroke="midnightblue" d="M1907.65,-185.74C1908.29,-175.49 1909.05,-163 1909.63,-153.59"/>
<polygon fill="midnightblue" stroke="midnightblue" points="1904.16,-185.54 1907.04,-195.73 1911.15,-185.97 1904.16,-185.54"/>
</g>
<!-- Node36 -->
<g id="node36" class="node">
<title>Node36</title>
<g id="a_node36"><a xlink:href="phase__ring__book__loader_8cc.html" target="_top" xlink:title=" ">
<polygon fill="white" stroke="black" points="1509,-129 1509,-148 1658,-148 1658,-129 1509,-129"/>
<text text-anchor="middle" x="1583.5" y="-136" font-family="Helvetica,sans-Serif" font-size="10.00">phase_ring_book_loader.cc</text>
</a>
</g>
</g>
<!-- Node35&#45;&gt;Node36 -->
<g id="edge40" class="edge">
<title>Node35&#45;&gt;Node36</title>
<path fill="none" stroke="midnightblue" d="M1456.82,-191.95C1487.9,-179.08 1535.43,-159.4 1562.57,-148.17"/>
<polygon fill="midnightblue" stroke="midnightblue" points="1455.25,-188.81 1447.35,-195.87 1457.93,-195.28 1455.25,-188.81"/>
</g>
<!-- Node37 -->
<g id="node37" class="node">
<title>Node37</title>
<g id="a_node37"><a xlink:href="phase__ring__book__loader__old__rules_8cc.html" target="_top" xlink:title=" ">
<polygon fill="white" stroke="black" points="1356,-123.5 1356,-153.5 1491,-153.5 1491,-123.5 1356,-123.5"/>
<text text-anchor="start" x="1364" y="-141.5" font-family="Helvetica,sans-Serif" font-size="10.00">phase_ring_book_loader</text>
<text text-anchor="middle" x="1423.5" y="-130.5" font-family="Helvetica,sans-Serif" font-size="10.00">_old_rules.cc</text>
</a>
</g>
</g>
<!-- Node35&#45;&gt;Node37 -->
<g id="edge41" class="edge">
<title>Node35&#45;&gt;Node37</title>
<path fill="none" stroke="midnightblue" d="M1425.63,-185.74C1425.16,-175.49 1424.58,-163 1424.15,-153.59"/>
<polygon fill="midnightblue" stroke="midnightblue" points="1422.14,-185.91 1426.1,-195.73 1429.13,-185.58 1422.14,-185.91"/>
</g>
<!-- Node38&#45;&gt;Node33 -->
<g id="edge44" class="edge">
<title>Node38&#45;&gt;Node33</title>
<path fill="none" stroke="midnightblue" d="M1816.08,-193.72C1873.77,-180.92 1968.84,-159.83 2021.81,-148.08"/>
<polygon fill="midnightblue" stroke="midnightblue" points="1815.11,-190.35 1806.11,-195.94 1816.63,-197.19 1815.11,-190.35"/>
</g>
<!-- Node38&#45;&gt;Node34 -->
<g id="edge45" class="edge">
<title>Node38&#45;&gt;Node34</title>
<path fill="none" stroke="midnightblue" d="M1795.83,-191.62C1820.02,-180.63 1854.75,-164.84 1879.64,-153.53"/>
<polygon fill="midnightblue" stroke="midnightblue" points="1794.14,-188.54 1786.49,-195.87 1797.04,-194.92 1794.14,-188.54"/>
</g>
<!-- Node39&#45;&gt;Node27 -->
<g id="edge49" class="edge">
<title>Node39&#45;&gt;Node27</title>
<path fill="none" stroke="midnightblue" d="M992.57,-189.24C972.96,-172.37 948.16,-144.69 964.5,-123 978.61,-104.28 1034.89,-90.36 1080.06,-81.93"/>
<polygon fill="midnightblue" stroke="midnightblue" points="990.57,-192.13 1000.52,-195.77 995.01,-186.72 990.57,-192.13"/>
</g>
<!-- Node39&#45;&gt;Node28 -->
<g id="edge47" class="edge">
<title>Node39&#45;&gt;Node28</title>
<path fill="none" stroke="midnightblue" d="M1037.75,-191.05C1058.26,-180.12 1087.09,-164.76 1107.94,-153.65"/>
<polygon fill="midnightblue" stroke="midnightblue" points="1035.88,-188.08 1028.7,-195.87 1039.17,-194.26 1035.88,-188.08"/>
</g>
<!-- Node39&#45;&gt;Node30 -->
<g id="edge48" class="edge">
<title>Node39&#45;&gt;Node30</title>
<path fill="none" stroke="midnightblue" d="M981.87,-192.06C954.77,-181.05 915.25,-164.99 887.03,-153.53"/>
<polygon fill="midnightblue" stroke="midnightblue" points="980.67,-195.35 991.25,-195.87 983.31,-188.86 980.67,-195.35"/>
</g>
<!-- Node40 -->
<g id="node40" class="node">
<title>Node40</title>
<g id="a_node40"><a xlink:href="rule__filter_8cc.html" target="_top" xlink:title=" ">
<polygon fill="white" stroke="black" points="974,-129 974,-148 1051,-148 1051,-129 974,-129"/>
<text text-anchor="middle" x="1012.5" y="-136" font-family="Helvetica,sans-Serif" font-size="10.00">rule_filter.cc</text>
</a>
</g>
</g>
<!-- Node39&#45;&gt;Node40 -->
<g id="edge50" class="edge">
<title>Node39&#45;&gt;Node40</title>
<path fill="none" stroke="midnightblue" d="M1012.5,-185.54C1012.5,-173.17 1012.5,-157.62 1012.5,-148.13"/>
<polygon fill="midnightblue" stroke="midnightblue" points="1009,-185.73 1012.5,-195.73 1016,-185.73 1009,-185.73"/>
</g>
</g>
</svg>
        <g id="navigator" transform="translate(0 0)" fill="#404254">
                <rect fill="#f2f5e9" fill-opacity="0.5" stroke="#606060" stroke-width=".5" x="0" y="0" width="60" height="60"/>
                <use id="zoomplus" xlink:href="#zoomPlus" x="17" y="9" onmousedown="handleZoom(evt,'in')"/>
                <use id="zoomminus" xlink:href="#zoomMin" x="42" y="9" onmousedown="handleZoom(evt,'out')"/>
                <use id="reset" xlink:href="#resetDef" x="30" y="36" onmousedown="handleReset()"/>
                <g id="arrowUp" xlink:href="#dirArrow" transform="translate(30 24)" onmousedown="handlePan(0,-1)">
                  <use xlink:href="#rim" fill="#404040">
                        <set attributeName="fill" to="#808080" begin="arrowUp.mouseover" end="arrowUp.mouseout"/>
                  </use>
                  <path fill="none" stroke="white" stroke-width="1.5" d="M0,-3.0v7 M-2.5,-0.5L0,-3.0L2.5,-0.5"/>
                </g>
                <g id="arrowRight" xlink:href="#dirArrow" transform="rotate(90) translate(36 -43)" onmousedown="handlePan(1,0)">
                  <use xlink:href="#rim" fill="#404040">
                        <set attributeName="fill" to="#808080" begin="arrowRight.mouseover" end="arrowRight.mouseout"/>
                  </use>
                  <path fill="none" stroke="white" stroke-width="1.5" d="M0,-3.0v7 M-2.5,-0.5L0,-3.0L2.5,-0.5"/>
                </g>
                <g id="arrowDown" xlink:href="#dirArrow" transform="rotate(180) translate(-30 -48)" onmousedown="handlePan(0,1)">
                  <use xlink:href="#rim" fill="#404040">
                        <set attributeName="fill" to="#808080" begin="arrowDown.mouseover" end="arrowDown.mouseout"/>
                  </use>
                  <path fill="none" stroke="white" stroke-width="1.5" d="M0,-3.0v7 M-2.5,-0.5L0,-3.0L2.5,-0.5"/>
                </g>
                <g id="arrowLeft" xlink:href="#dirArrow" transform="rotate(270) translate(-36 17)" onmousedown="handlePan(-1,0)">
                  <use xlink:href="#rim" fill="#404040">
                        <set attributeName="fill" to="#808080" begin="arrowLeft.mouseover" end="arrowLeft.mouseout"/>
                  </use>
                  <path fill="none" stroke="white" stroke-width="1.5" d="M0,-3.0v7 M-2.5,-0.5L0,-3.0L2.5,-0.5"/>
                </g>
        </g>
        <svg viewBox="0 0 15 15" width="100%" height="30px" preserveAspectRatio="xMaxYMin meet">
         <g id="arrow_out" transform="scale(0.3 0.3)">
          <a xlink:href="speed__limit__rule_8h__dep__incl_org.svg" target="_base">
           <rect id="button" ry="5" rx="5" y="6" x="6" height="38" width="38"
                fill="#f2f5e9" fill-opacity="0.5" stroke="#606060" stroke-width="1.0"/>
           <path id="arrow"
             d="M 11.500037,31.436501 C 11.940474,20.09759 22.043105,11.32322 32.158766,21.979434 L 37.068811,17.246167 C 37.068811,17.246167 37.088388,32 37.088388,32 L 22.160133,31.978069 C 22.160133,31.978069 26.997745,27.140456 26.997745,27.140456 C 18.528582,18.264221 13.291696,25.230495 11.500037,31.436501 z"
             style="fill:#404040;"/>
          </a>
         </g>
        </svg>
</svg>
