<?xml version="1.0" encoding="UTF-8" standalone="no"?>
<!DOCTYPE svg PUBLIC "-//W3C//DTD SVG 1.1//EN"
 "http://www.w3.org/Graphics/SVG/1.1/DTD/svg11.dtd">
<!-- Generated by graphviz version 2.43.0 (0)
 -->
<!-- Title: string_format.cc Pages: 1 -->
<svg width="394pt" height="218pt"
 viewBox="0.00 0.00 393.50 218.00" xmlns="http://www.w3.org/2000/svg" xmlns:xlink="http://www.w3.org/1999/xlink">
<g id="graph0" class="graph" transform="scale(1 1) rotate(0) translate(4 214)">
<title>string_format.cc</title>
<polygon fill="white" stroke="transparent" points="-4,4 -4,-214 389.5,-214 389.5,4 -4,4"/>
<!-- Node1 -->
<g id="node1" class="node">
<title>Node1</title>
<g id="a_node1"><a xlink:title=" ">
<polygon fill="#bfbfbf" stroke="black" points="90,-190.5 90,-209.5 186,-209.5 186,-190.5 90,-190.5"/>
<text text-anchor="middle" x="138" y="-197.5" font-family="Helvetica,sans-Serif" font-size="10.00">string_format.cc</text>
</a>
</g>
</g>
<!-- Node2 -->
<g id="node2" class="node">
<title>Node2</title>
<g id="a_node2"><a xlink:href="string__format_8h.html" target="_top" xlink:title=" ">
<polygon fill="white" stroke="black" points="0,-56.5 0,-86.5 116,-86.5 116,-56.5 0,-56.5"/>
<text text-anchor="start" x="8" y="-74.5" font-family="Helvetica,sans-Serif" font-size="10.00">maliput/utility/string</text>
<text text-anchor="middle" x="58" y="-63.5" font-family="Helvetica,sans-Serif" font-size="10.00">_format.h</text>
</a>
</g>
</g>
<!-- Node1&#45;&gt;Node2 -->
<g id="edge1" class="edge">
<title>Node1&#45;&gt;Node2</title>
<path fill="none" stroke="midnightblue" d="M118.03,-190.38C103.22,-182.93 83.8,-170.72 73,-154 62.05,-137.05 58.59,-114.2 57.71,-97.01"/>
<polygon fill="midnightblue" stroke="midnightblue" points="61.2,-96.56 57.45,-86.65 54.2,-96.74 61.2,-96.56"/>
</g>
<!-- Node4 -->
<g id="node4" class="node">
<title>Node4</title>
<g id="a_node4"><a xlink:title=" ">
<polygon fill="white" stroke="#bfbfbf" points="82,-129 82,-148 138,-148 138,-129 82,-129"/>
<text text-anchor="middle" x="110" y="-136" font-family="Helvetica,sans-Serif" font-size="10.00">iomanip</text>
</a>
</g>
</g>
<!-- Node1&#45;&gt;Node4 -->
<g id="edge3" class="edge">
<title>Node1&#45;&gt;Node4</title>
<path fill="none" stroke="midnightblue" d="M133.99,-190.48C129.91,-181.82 123.48,-168.15 118.3,-157.15"/>
<polygon fill="midnightblue" stroke="midnightblue" points="121.43,-155.57 114,-148.01 115.1,-158.55 121.43,-155.57"/>
</g>
<!-- Node5 -->
<g id="node5" class="node">
<title>Node5</title>
<g id="a_node5"><a xlink:title=" ">
<polygon fill="white" stroke="#bfbfbf" points="138,-62 138,-81 194,-81 194,-62 138,-62"/>
<text text-anchor="middle" x="166" y="-69" font-family="Helvetica,sans-Serif" font-size="10.00">sstream</text>
</a>
</g>
</g>
<!-- Node1&#45;&gt;Node5 -->
<g id="edge4" class="edge">
<title>Node1&#45;&gt;Node5</title>
<path fill="none" stroke="midnightblue" d="M139.92,-190.31C144.42,-169.99 155.7,-119.05 161.84,-91.28"/>
<polygon fill="midnightblue" stroke="midnightblue" points="165.32,-91.78 164.06,-81.26 158.48,-90.26 165.32,-91.78"/>
</g>
<!-- Node6 -->
<g id="node6" class="node">
<title>Node6</title>
<g id="a_node6"><a xlink:href="maliput__throw_8h.html" target="_top" xlink:title=" ">
<polygon fill="white" stroke="black" points="194,-123.5 194,-153.5 334,-153.5 334,-123.5 194,-123.5"/>
<text text-anchor="start" x="202" y="-141.5" font-family="Helvetica,sans-Serif" font-size="10.00">maliput/common/maliput</text>
<text text-anchor="middle" x="264" y="-130.5" font-family="Helvetica,sans-Serif" font-size="10.00">_throw.h</text>
</a>
</g>
</g>
<!-- Node1&#45;&gt;Node6 -->
<g id="edge5" class="edge">
<title>Node1&#45;&gt;Node6</title>
<path fill="none" stroke="midnightblue" d="M156.05,-190.48C173.99,-182 202.09,-168.74 225.11,-157.86"/>
<polygon fill="midnightblue" stroke="midnightblue" points="226.76,-160.96 234.3,-153.52 223.77,-154.63 226.76,-160.96"/>
</g>
<!-- Node3 -->
<g id="node3" class="node">
<title>Node3</title>
<g id="a_node3"><a xlink:title=" ">
<polygon fill="white" stroke="#bfbfbf" points="200,-0.5 200,-19.5 244,-19.5 244,-0.5 200,-0.5"/>
<text text-anchor="middle" x="222" y="-7.5" font-family="Helvetica,sans-Serif" font-size="10.00">string</text>
</a>
</g>
</g>
<!-- Node2&#45;&gt;Node3 -->
<g id="edge2" class="edge">
<title>Node2&#45;&gt;Node3</title>
<path fill="none" stroke="midnightblue" d="M96.87,-56.4C125.25,-46.1 163.29,-32.3 189.94,-22.63"/>
<polygon fill="midnightblue" stroke="midnightblue" points="191.35,-25.84 199.56,-19.14 188.96,-19.26 191.35,-25.84"/>
</g>
<!-- Node6&#45;&gt;Node3 -->
<g id="edge7" class="edge">
<title>Node6&#45;&gt;Node3</title>
<path fill="none" stroke="midnightblue" d="M256.64,-123.2C251.73,-113.24 245.39,-99.55 241,-87 234.28,-67.78 228.93,-45.06 225.64,-29.5"/>
<polygon fill="midnightblue" stroke="midnightblue" points="229.04,-28.68 223.61,-19.58 222.18,-30.08 229.04,-28.68"/>
</g>
<!-- Node6&#45;&gt;Node5 -->
<g id="edge6" class="edge">
<title>Node6&#45;&gt;Node5</title>
<path fill="none" stroke="midnightblue" d="M242.74,-123.4C226.3,-112.5 203.66,-97.48 187.23,-86.58"/>
<polygon fill="midnightblue" stroke="midnightblue" points="189.09,-83.62 178.83,-81.01 185.22,-89.45 189.09,-83.62"/>
</g>
<!-- Node7 -->
<g id="node7" class="node">
<title>Node7</title>
<g id="a_node7"><a xlink:href="error_8h.html" target="_top" xlink:title=" ">
<polygon fill="white" stroke="black" points="250.5,-62 250.5,-81 385.5,-81 385.5,-62 250.5,-62"/>
<text text-anchor="middle" x="318" y="-69" font-family="Helvetica,sans-Serif" font-size="10.00">maliput/common/error.h</text>
</a>
</g>
</g>
<!-- Node6&#45;&gt;Node7 -->
<g id="edge8" class="edge">
<title>Node6&#45;&gt;Node7</title>
<path fill="none" stroke="midnightblue" d="M275.72,-123.4C284.14,-113.26 295.51,-99.57 304.34,-88.94"/>
<polygon fill="midnightblue" stroke="midnightblue" points="307.08,-91.12 310.78,-81.19 301.69,-86.65 307.08,-91.12"/>
</g>
<!-- Node7&#45;&gt;Node3 -->
<g id="edge10" class="edge">
<title>Node7&#45;&gt;Node3</title>
<path fill="none" stroke="midnightblue" d="M304.25,-61.98C288.63,-52.3 262.94,-36.37 244.42,-24.89"/>
<polygon fill="midnightblue" stroke="midnightblue" points="246.07,-21.8 235.73,-19.51 242.38,-27.75 246.07,-21.8"/>
</g>
<!-- Node8 -->
<g id="node8" class="node">
<title>Node8</title>
<g id="a_node8"><a xlink:title=" ">
<polygon fill="white" stroke="#bfbfbf" points="285.5,-0.5 285.5,-19.5 350.5,-19.5 350.5,-0.5 285.5,-0.5"/>
<text text-anchor="middle" x="318" y="-7.5" font-family="Helvetica,sans-Serif" font-size="10.00">stdexcept</text>
</a>
</g>
</g>
<!-- Node7&#45;&gt;Node8 -->
<g id="edge9" class="edge">
<title>Node7&#45;&gt;Node8</title>
<path fill="none" stroke="midnightblue" d="M318,-61.98C318,-53.58 318,-40.48 318,-29.66"/>
<polygon fill="midnightblue" stroke="midnightblue" points="321.5,-29.51 318,-19.51 314.5,-29.51 321.5,-29.51"/>
</g>
</g>
</svg>
