<?xml version="1.0" encoding="UTF-8" standalone="no"?>
<!DOCTYPE svg PUBLIC "-//W3C//DTD SVG 1.1//EN"
 "http://www.w3.org/Graphics/SVG/1.1/DTD/svg11.dtd">
<!-- Generated by graphviz version 2.43.0 (0)
 -->
<!-- Title: is_eigen_nonvector_of&lt; Derived, Scalar &gt; Pages: 1 -->
<svg width="318pt" height="72pt"
 viewBox="0.00 0.00 318.00 72.00" xmlns="http://www.w3.org/2000/svg" xmlns:xlink="http://www.w3.org/1999/xlink">
<g id="graph0" class="graph" transform="scale(1 1) rotate(0) translate(4 68)">
<title>is_eigen_nonvector_of&lt; Derived, Scalar &gt;</title>
<polygon fill="white" stroke="transparent" points="-4,4 -4,-68 314,-68 314,4 -4,4"/>
<!-- Node1 -->
<g id="node1" class="node">
<title>Node1</title>
<g id="a_node1"><a xlink:title=" ">
<polygon fill="#bfbfbf" stroke="black" points="182,-17 182,-47 310,-47 310,-17 182,-17"/>
<text text-anchor="start" x="190" y="-35" font-family="Helvetica,sans-Serif" font-size="10.00">is_eigen_nonvector</text>
<text text-anchor="middle" x="246" y="-24" font-family="Helvetica,sans-Serif" font-size="10.00">_of&lt; Derived, Scalar &gt;</text>
</a>
</g>
</g>
<!-- Node2 -->
<g id="node2" class="node">
<title>Node2</title>
<g id="a_node2"><a xlink:title=" ">
<polygon fill="white" stroke="#bfbfbf" points="0,-0.5 0,-63.5 146,-63.5 146,-0.5 0,-0.5"/>
<text text-anchor="start" x="8" y="-51.5" font-family="Helvetica,sans-Serif" font-size="10.00">bool_constant&lt; is_eigen</text>
<text text-anchor="start" x="8" y="-40.5" font-family="Helvetica,sans-Serif" font-size="10.00">_scalar_same&lt; Derived,</text>
<text text-anchor="start" x="8" y="-29.5" font-family="Helvetica,sans-Serif" font-size="10.00"> Scalar &gt;::value &amp;&amp;!is</text>
<text text-anchor="start" x="8" y="-18.5" font-family="Helvetica,sans-Serif" font-size="10.00">_eigen_vector&lt; Derived &gt;</text>
<text text-anchor="middle" x="73" y="-7.5" font-family="Helvetica,sans-Serif" font-size="10.00">::value &gt;</text>
</a>
</g>
</g>
<!-- Node2&#45;&gt;Node1 -->
<g id="edge1" class="edge">
<title>Node2&#45;&gt;Node1</title>
<path fill="none" stroke="midnightblue" d="M156.1,-32C164.72,-32 173.38,-32 181.74,-32"/>
<polygon fill="midnightblue" stroke="midnightblue" points="156.02,-28.5 146.02,-32 156.02,-35.5 156.02,-28.5"/>
</g>
</g>
</svg>
