<?xml version="1.0" encoding="UTF-8" standalone="no"?>
<!DOCTYPE svg PUBLIC "-//W3C//DTD SVG 1.1//EN"
 "http://www.w3.org/Graphics/SVG/1.1/DTD/svg11.dtd">
<!-- Generated by graphviz version 2.43.0 (0)
 -->
<!-- Title: thread_pool.h Pages: 1 -->
<svg width="664pt" height="207pt"
 viewBox="0.00 0.00 663.50 207.00" xmlns="http://www.w3.org/2000/svg" xmlns:xlink="http://www.w3.org/1999/xlink">
<g id="graph0" class="graph" transform="scale(1 1) rotate(0) translate(4 203)">
<title>thread_pool.h</title>
<polygon fill="white" stroke="transparent" points="-4,4 -4,-203 659.5,-203 659.5,4 -4,4"/>
<!-- Node1 -->
<g id="node1" class="node">
<title>Node1</title>
<g id="a_node1"><a xlink:title=" ">
<polygon fill="#bfbfbf" stroke="black" points="147.5,-179.5 147.5,-198.5 230.5,-198.5 230.5,-179.5 147.5,-179.5"/>
<text text-anchor="middle" x="189" y="-186.5" font-family="Helvetica,sans-Serif" font-size="10.00">thread_pool.h</text>
</a>
</g>
</g>
<!-- Node2 -->
<g id="node2" class="node">
<title>Node2</title>
<g id="a_node2"><a xlink:title=" ">
<polygon fill="white" stroke="#bfbfbf" points="0,-118 0,-137 50,-137 50,-118 0,-118"/>
<text text-anchor="middle" x="25" y="-125" font-family="Helvetica,sans-Serif" font-size="10.00">atomic</text>
</a>
</g>
</g>
<!-- Node1&#45;&gt;Node2 -->
<g id="edge1" class="edge">
<title>Node1&#45;&gt;Node2</title>
<path fill="none" stroke="midnightblue" d="M162.66,-179.48C136.26,-170.81 94.54,-156.71 59,-143 57.35,-142.36 55.67,-141.7 53.97,-141.02"/>
<polygon fill="midnightblue" stroke="midnightblue" points="54.9,-137.61 44.32,-137.02 52.22,-144.08 54.9,-137.61"/>
</g>
<!-- Node3 -->
<g id="node3" class="node">
<title>Node3</title>
<g id="a_node3"><a xlink:title=" ">
<polygon fill="white" stroke="#bfbfbf" points="68.5,-118 68.5,-137 115.5,-137 115.5,-118 68.5,-118"/>
<text text-anchor="middle" x="92" y="-125" font-family="Helvetica,sans-Serif" font-size="10.00">deque</text>
</a>
</g>
</g>
<!-- Node1&#45;&gt;Node3 -->
<g id="edge2" class="edge">
<title>Node1&#45;&gt;Node3</title>
<path fill="none" stroke="midnightblue" d="M175.1,-179.48C159.33,-169.8 133.36,-153.87 114.65,-142.39"/>
<polygon fill="midnightblue" stroke="midnightblue" points="116.23,-139.25 105.87,-137.01 112.57,-145.22 116.23,-139.25"/>
</g>
<!-- Node4 -->
<g id="node4" class="node">
<title>Node4</title>
<g id="a_node4"><a xlink:title=" ">
<polygon fill="white" stroke="#bfbfbf" points="134,-118 134,-137 180,-137 180,-118 134,-118"/>
<text text-anchor="middle" x="157" y="-125" font-family="Helvetica,sans-Serif" font-size="10.00">future</text>
</a>
</g>
</g>
<!-- Node1&#45;&gt;Node4 -->
<g id="edge3" class="edge">
<title>Node1&#45;&gt;Node4</title>
<path fill="none" stroke="midnightblue" d="M184.42,-179.48C179.76,-170.82 172.41,-157.15 166.49,-146.15"/>
<polygon fill="midnightblue" stroke="midnightblue" points="169.4,-144.16 161.58,-137.01 163.23,-147.47 169.4,-144.16"/>
</g>
<!-- Node5 -->
<g id="node5" class="node">
<title>Node5</title>
<g id="a_node5"><a xlink:title=" ">
<polygon fill="white" stroke="#bfbfbf" points="198.5,-118 198.5,-137 245.5,-137 245.5,-118 198.5,-118"/>
<text text-anchor="middle" x="222" y="-125" font-family="Helvetica,sans-Serif" font-size="10.00">vector</text>
</a>
</g>
</g>
<!-- Node1&#45;&gt;Node5 -->
<g id="edge4" class="edge">
<title>Node1&#45;&gt;Node5</title>
<path fill="none" stroke="midnightblue" d="M193.73,-179.48C198.58,-170.73 206.27,-156.87 212.4,-145.81"/>
<polygon fill="midnightblue" stroke="midnightblue" points="215.49,-147.45 217.28,-137.01 209.37,-144.06 215.49,-147.45"/>
</g>
<!-- Node6 -->
<g id="node6" class="node">
<title>Node6</title>
<g id="a_node6"><a xlink:href="maliput__copyable_8h.html" target="_top" xlink:title=" ">
<polygon fill="white" stroke="black" points="264,-112.5 264,-142.5 404,-142.5 404,-112.5 264,-112.5"/>
<text text-anchor="start" x="272" y="-130.5" font-family="Helvetica,sans-Serif" font-size="10.00">maliput/common/maliput</text>
<text text-anchor="middle" x="334" y="-119.5" font-family="Helvetica,sans-Serif" font-size="10.00">_copyable.h</text>
</a>
</g>
</g>
<!-- Node1&#45;&gt;Node6 -->
<g id="edge5" class="edge">
<title>Node1&#45;&gt;Node6</title>
<path fill="none" stroke="midnightblue" d="M209.77,-179.48C230.7,-170.89 263.61,-157.38 290.31,-146.43"/>
<polygon fill="midnightblue" stroke="midnightblue" points="291.9,-149.56 299.83,-142.52 289.25,-143.08 291.9,-149.56"/>
</g>
<!-- Node7 -->
<g id="node7" class="node">
<title>Node7</title>
<g id="a_node7"><a xlink:href="maliput__throw_8h.html" target="_top" xlink:title=" ">
<polygon fill="white" stroke="black" points="422,-112.5 422,-142.5 562,-142.5 562,-112.5 422,-112.5"/>
<text text-anchor="start" x="430" y="-130.5" font-family="Helvetica,sans-Serif" font-size="10.00">maliput/common/maliput</text>
<text text-anchor="middle" x="492" y="-119.5" font-family="Helvetica,sans-Serif" font-size="10.00">_throw.h</text>
</a>
</g>
</g>
<!-- Node1&#45;&gt;Node7 -->
<g id="edge6" class="edge">
<title>Node1&#45;&gt;Node7</title>
<path fill="none" stroke="midnightblue" d="M230.81,-179.79C277.39,-170.64 353.78,-155.64 411.95,-144.22"/>
<polygon fill="midnightblue" stroke="midnightblue" points="412.71,-147.64 421.85,-142.28 411.36,-140.77 412.71,-147.64"/>
</g>
<!-- Node8 -->
<g id="node8" class="node">
<title>Node8</title>
<g id="a_node8"><a xlink:title=" ">
<polygon fill="white" stroke="#bfbfbf" points="408,-56.5 408,-75.5 464,-75.5 464,-56.5 408,-56.5"/>
<text text-anchor="middle" x="436" y="-63.5" font-family="Helvetica,sans-Serif" font-size="10.00">sstream</text>
</a>
</g>
</g>
<!-- Node7&#45;&gt;Node8 -->
<g id="edge7" class="edge">
<title>Node7&#45;&gt;Node8</title>
<path fill="none" stroke="midnightblue" d="M478.73,-112.4C470.42,-103.58 459.7,-92.18 451.08,-83.02"/>
<polygon fill="midnightblue" stroke="midnightblue" points="453.55,-80.54 444.15,-75.66 448.45,-85.34 453.55,-80.54"/>
</g>
<!-- Node9 -->
<g id="node9" class="node">
<title>Node9</title>
<g id="a_node9"><a xlink:title=" ">
<polygon fill="white" stroke="#bfbfbf" points="482,-0.5 482,-19.5 526,-19.5 526,-0.5 482,-0.5"/>
<text text-anchor="middle" x="504" y="-7.5" font-family="Helvetica,sans-Serif" font-size="10.00">string</text>
</a>
</g>
</g>
<!-- Node7&#45;&gt;Node9 -->
<g id="edge8" class="edge">
<title>Node7&#45;&gt;Node9</title>
<path fill="none" stroke="midnightblue" d="M493.47,-112.34C495.62,-91.62 499.63,-53.02 502.04,-29.9"/>
<polygon fill="midnightblue" stroke="midnightblue" points="505.55,-29.98 503.1,-19.67 498.58,-29.25 505.55,-29.98"/>
</g>
<!-- Node10 -->
<g id="node10" class="node">
<title>Node10</title>
<g id="a_node10"><a xlink:href="error_8h.html" target="_top" xlink:title=" ">
<polygon fill="white" stroke="black" points="520.5,-56.5 520.5,-75.5 655.5,-75.5 655.5,-56.5 520.5,-56.5"/>
<text text-anchor="middle" x="588" y="-63.5" font-family="Helvetica,sans-Serif" font-size="10.00">maliput/common/error.h</text>
</a>
</g>
</g>
<!-- Node7&#45;&gt;Node10 -->
<g id="edge9" class="edge">
<title>Node7&#45;&gt;Node10</title>
<path fill="none" stroke="midnightblue" d="M514.75,-112.4C529.99,-102.95 549.99,-90.56 565.24,-81.11"/>
<polygon fill="midnightblue" stroke="midnightblue" points="567.38,-83.9 574.03,-75.66 563.69,-77.95 567.38,-83.9"/>
</g>
<!-- Node10&#45;&gt;Node9 -->
<g id="edge11" class="edge">
<title>Node10&#45;&gt;Node9</title>
<path fill="none" stroke="midnightblue" d="M574.5,-56.32C561.4,-47.9 541.29,-34.97 525.89,-25.07"/>
<polygon fill="midnightblue" stroke="midnightblue" points="527.77,-22.12 517.46,-19.65 523.98,-28.01 527.77,-22.12"/>
</g>
<!-- Node11 -->
<g id="node11" class="node">
<title>Node11</title>
<g id="a_node11"><a xlink:title=" ">
<polygon fill="white" stroke="#bfbfbf" points="555.5,-0.5 555.5,-19.5 620.5,-19.5 620.5,-0.5 555.5,-0.5"/>
<text text-anchor="middle" x="588" y="-7.5" font-family="Helvetica,sans-Serif" font-size="10.00">stdexcept</text>
</a>
</g>
</g>
<!-- Node10&#45;&gt;Node11 -->
<g id="edge10" class="edge">
<title>Node10&#45;&gt;Node11</title>
<path fill="none" stroke="midnightblue" d="M588,-56.08C588,-49.01 588,-38.86 588,-29.99"/>
<polygon fill="midnightblue" stroke="midnightblue" points="591.5,-29.75 588,-19.75 584.5,-29.75 591.5,-29.75"/>
</g>
</g>
</svg>
