<?xml version="1.0" encoding="UTF-8" standalone="no"?>
<!DOCTYPE svg PUBLIC "-//W3C//DTD SVG 1.1//EN"
 "http://www.w3.org/Graphics/SVG/1.1/DTD/svg11.dtd">
<!-- Generated by graphviz version 2.43.0 (0)
 -->
<!-- Title: traffic_lights_compare.cc Pages: 1 -->
<!--zoomable 598 -->
<svg id="main" version="1.1" xmlns="http://www.w3.org/2000/svg" xmlns:xlink="http://www.w3.org/1999/xlink" xml:space="preserve" onload="init(evt)">
<style type="text/css"><![CDATA[
.edge:hover path { stroke: red; }
.edge:hover polygon { stroke: red; fill: red; }
]]></style>
<script type="text/javascript"><![CDATA[
var edges = document.getElementsByTagName('g');
if (edges && edges.length) {
  for (var i=0;i<edges.length;i++) {
    if (edges[i].id.substr(0,4)=='edge') {
      edges[i].setAttribute('class','edge');
    }
  }
}
]]></script>
        <defs>
                <circle id="rim" cx="0" cy="0" r="7"/>
                <circle id="rim2" cx="0" cy="0" r="3.5"/>
                <g id="zoomPlus">
                        <use xlink:href="#rim" fill="#404040">
                                <set attributeName="fill" to="#808080" begin="zoomplus.mouseover" end="zoomplus.mouseout"/>
                        </use>
                        <path d="M-4,0h8M0,-4v8" fill="none" stroke="white" stroke-width="1.5" pointer-events="none"/>
                </g>
                <g id="zoomMin">
                        <use xlink:href="#rim" fill="#404040">
                                <set attributeName="fill" to="#808080" begin="zoomminus.mouseover" end="zoomminus.mouseout"/>
                        </use>
                        <path d="M-4,0h8" fill="none" stroke="white" stroke-width="1.5" pointer-events="none"/>
                </g>
                <g id="dirArrow">
                        <path fill="none" stroke="white" stroke-width="1.5" d="M0,-3.0v7 M-2.5,-0.5L0,-3.0L2.5,-0.5"/>
                </g>
               <g id="resetDef">
                       <use xlink:href="#rim2" fill="#404040">
                               <set attributeName="fill" to="#808080" begin="reset.mouseover" end="reset.mouseout"/>
                       </use>
               </g>
        </defs>

<script type="text/javascript">
var viewWidth = 1748;
var viewHeight = 598;
var sectionId = 'dynsection-0';
</script>
<script xlink:href="svgpan.js"/>
<svg id="graph" class="graph">
<g id="viewport">
<title>traffic_lights_compare.cc</title>
<polygon fill="white" stroke="transparent" points="-4,4 -4,-594 1744.46,-594 1744.46,4 -4,4"/>
<!-- Node1 -->
<g id="node1" class="node">
<title>Node1</title>
<g id="a_node1"><a xlink:title=" ">
<polygon fill="#bfbfbf" stroke="black" points="1522,-570.5 1522,-589.5 1662,-589.5 1662,-570.5 1522,-570.5"/>
<text text-anchor="middle" x="1592" y="-577.5" font-family="Helvetica,sans-Serif" font-size="10.00">traffic_lights_compare.cc</text>
</a>
</g>
</g>
<!-- Node2 -->
<g id="node2" class="node">
<title>Node2</title>
<g id="a_node2"><a xlink:href="traffic__lights__compare_8h.html" target="_top" xlink:title=" ">
<polygon fill="white" stroke="black" points="1005,-503.5 1005,-533.5 1143,-533.5 1143,-503.5 1005,-503.5"/>
<text text-anchor="start" x="1013" y="-521.5" font-family="Helvetica,sans-Serif" font-size="10.00">maliput/test_utilities</text>
<text text-anchor="middle" x="1074" y="-510.5" font-family="Helvetica,sans-Serif" font-size="10.00">/traffic_lights_compare.h</text>
</a>
</g>
</g>
<!-- Node1&#45;&gt;Node2 -->
<g id="edge1" class="edge">
<title>Node1&#45;&gt;Node2</title>
<path fill="none" stroke="midnightblue" d="M1521.87,-570.94C1425.81,-559.91 1253.78,-540.15 1153.19,-528.6"/>
<polygon fill="midnightblue" stroke="midnightblue" points="1153.42,-525.1 1143.09,-527.44 1152.62,-532.05 1153.42,-525.1"/>
</g>
<!-- Node16 -->
<g id="node16" class="node">
<title>Node16</title>
<g id="a_node16"><a xlink:title=" ">
<polygon fill="white" stroke="#bfbfbf" points="1545,-62 1545,-81 1609,-81 1609,-62 1545,-62"/>
<text text-anchor="middle" x="1577" y="-69" font-family="Helvetica,sans-Serif" font-size="10.00">algorithm</text>
</a>
</g>
</g>
<!-- Node1&#45;&gt;Node16 -->
<g id="edge73" class="edge">
<title>Node1&#45;&gt;Node16</title>
<path fill="none" stroke="midnightblue" d="M1653.19,-570.44C1677.11,-564.11 1702.86,-553.12 1720,-534 1744.83,-506.31 1739,-489.69 1739,-452.5 1739,-452.5 1739,-452.5 1739,-260.5 1739,-177.47 1647.19,-112.9 1601.8,-86.06"/>
<polygon fill="midnightblue" stroke="midnightblue" points="1603.54,-83.02 1593.13,-81.06 1600.04,-89.09 1603.54,-83.02"/>
</g>
<!-- Node33 -->
<g id="node33" class="node">
<title>Node33</title>
<g id="a_node33"><a xlink:href="maliput__unused_8h.html" target="_top" xlink:title=" ">
<polygon fill="white" stroke="black" points="1571,-503.5 1571,-533.5 1711,-533.5 1711,-503.5 1571,-503.5"/>
<text text-anchor="start" x="1579" y="-521.5" font-family="Helvetica,sans-Serif" font-size="10.00">maliput/common/maliput</text>
<text text-anchor="middle" x="1641" y="-510.5" font-family="Helvetica,sans-Serif" font-size="10.00">_unused.h</text>
</a>
</g>
</g>
<!-- Node1&#45;&gt;Node33 -->
<g id="edge74" class="edge">
<title>Node1&#45;&gt;Node33</title>
<path fill="none" stroke="midnightblue" d="M1599.02,-570.48C1605.28,-562.87 1614.73,-551.4 1623.08,-541.26"/>
<polygon fill="midnightblue" stroke="midnightblue" points="1625.8,-543.47 1629.45,-533.52 1620.39,-539.02 1625.8,-543.47"/>
</g>
<!-- Node34 -->
<g id="node34" class="node">
<title>Node34</title>
<g id="a_node34"><a xlink:href="rules__test__utilities_8h.html" target="_top" xlink:title=" ">
<polygon fill="white" stroke="black" points="1533.5,-246.5 1533.5,-276.5 1652.5,-276.5 1652.5,-246.5 1533.5,-246.5"/>
<text text-anchor="start" x="1541.5" y="-264.5" font-family="Helvetica,sans-Serif" font-size="10.00">maliput/test_utilities</text>
<text text-anchor="middle" x="1593" y="-253.5" font-family="Helvetica,sans-Serif" font-size="10.00">/rules_test_utilities.h</text>
</a>
</g>
</g>
<!-- Node1&#45;&gt;Node34 -->
<g id="edge75" class="edge">
<title>Node1&#45;&gt;Node34</title>
<path fill="none" stroke="midnightblue" d="M1584.77,-570.25C1577.94,-561.57 1567.89,-547.61 1562,-534 1547.22,-499.87 1543,-489.69 1543,-452.5 1543,-452.5 1543,-452.5 1543,-389 1543,-350.47 1563.31,-309.67 1578.04,-285.14"/>
<polygon fill="midnightblue" stroke="midnightblue" points="1581.06,-286.92 1583.36,-276.58 1575.11,-283.23 1581.06,-286.92"/>
</g>
<!-- Node3 -->
<g id="node3" class="node">
<title>Node3</title>
<g id="a_node3"><a xlink:title=" ">
<polygon fill="white" stroke="#bfbfbf" points="66,-185 66,-204 122,-204 122,-185 66,-185"/>
<text text-anchor="middle" x="94" y="-192" font-family="Helvetica,sans-Serif" font-size="10.00">optional</text>
</a>
</g>
</g>
<!-- Node2&#45;&gt;Node3 -->
<g id="edge2" class="edge">
<title>Node2&#45;&gt;Node3</title>
<path fill="none" stroke="midnightblue" d="M1004.61,-516.01C778.29,-510.24 76,-484.77 76,-391 76,-391 76,-391 76,-327.5 76,-286.78 84.51,-239.65 89.83,-214.17"/>
<polygon fill="midnightblue" stroke="midnightblue" points="93.32,-214.61 92,-204.09 86.47,-213.13 93.32,-214.61"/>
</g>
<!-- Node4 -->
<g id="node4" class="node">
<title>Node4</title>
<g id="a_node4"><a xlink:title=" ">
<polygon fill="white" stroke="#bfbfbf" points="476,-0.5 476,-19.5 520,-19.5 520,-0.5 476,-0.5"/>
<text text-anchor="middle" x="498" y="-7.5" font-family="Helvetica,sans-Serif" font-size="10.00">string</text>
</a>
</g>
</g>
<!-- Node2&#45;&gt;Node4 -->
<g id="edge3" class="edge">
<title>Node2&#45;&gt;Node4</title>
<path fill="none" stroke="midnightblue" d="M1004.69,-517.66C817.21,-517.46 303.3,-512.66 141,-467 72.47,-447.72 0,-462.19 0,-391 0,-391 0,-391 0,-132 0,-84.86 31.59,-76.6 74,-56 143.19,-22.39 379.49,-13.69 465.96,-11.61"/>
<polygon fill="midnightblue" stroke="midnightblue" points="466.06,-15.11 475.98,-11.38 465.9,-8.11 466.06,-15.11"/>
</g>
<!-- Node5 -->
<g id="node5" class="node">
<title>Node5</title>
<g id="a_node5"><a xlink:title=" ">
<polygon fill="white" stroke="#bfbfbf" points="1458.5,-185 1458.5,-204 1505.5,-204 1505.5,-185 1458.5,-185"/>
<text text-anchor="middle" x="1482" y="-192" font-family="Helvetica,sans-Serif" font-size="10.00">vector</text>
</a>
</g>
</g>
<!-- Node2&#45;&gt;Node5 -->
<g id="edge4" class="edge">
<title>Node2&#45;&gt;Node5</title>
<path fill="none" stroke="midnightblue" d="M1143.36,-509.61C1256.18,-494.82 1467,-458.2 1467,-391 1467,-391 1467,-391 1467,-327.5 1467,-286.9 1474.09,-239.72 1478.52,-214.21"/>
<polygon fill="midnightblue" stroke="midnightblue" points="1482.01,-214.57 1480.34,-204.11 1475.12,-213.33 1482.01,-214.57"/>
</g>
<!-- Node6 -->
<g id="node6" class="node">
<title>Node6</title>
<g id="a_node6"><a xlink:title=" ">
<polygon fill="white" stroke="#bfbfbf" points="1524,-185 1524,-204 1602,-204 1602,-185 1524,-185"/>
<text text-anchor="middle" x="1563" y="-192" font-family="Helvetica,sans-Serif" font-size="10.00">gtest/gtest.h</text>
</a>
</g>
</g>
<!-- Node2&#45;&gt;Node6 -->
<g id="edge5" class="edge">
<title>Node2&#45;&gt;Node6</title>
<path fill="none" stroke="midnightblue" d="M1143.09,-517.08C1212.43,-514.38 1321.01,-503.87 1407,-467 1457.66,-445.28 1505,-446.12 1505,-391 1505,-391 1505,-391 1505,-327.5 1505,-290.2 1509.02,-279.7 1525,-246 1530.9,-233.55 1540.16,-221.17 1548.06,-211.78"/>
<polygon fill="midnightblue" stroke="midnightblue" points="1550.84,-213.91 1554.79,-204.08 1545.57,-209.3 1550.84,-213.91"/>
</g>
<!-- Node7 -->
<g id="node7" class="node">
<title>Node7</title>
<g id="a_node7"><a xlink:href="traffic__lights_8h.html" target="_top" xlink:title=" ">
<polygon fill="white" stroke="black" points="705.5,-436.5 705.5,-466.5 836.5,-466.5 836.5,-436.5 705.5,-436.5"/>
<text text-anchor="start" x="713.5" y="-454.5" font-family="Helvetica,sans-Serif" font-size="10.00">maliput/api/rules/traffic</text>
<text text-anchor="middle" x="771" y="-443.5" font-family="Helvetica,sans-Serif" font-size="10.00">_lights.h</text>
</a>
</g>
</g>
<!-- Node2&#45;&gt;Node7 -->
<g id="edge6" class="edge">
<title>Node2&#45;&gt;Node7</title>
<path fill="none" stroke="midnightblue" d="M1008.63,-503.48C961.02,-493.26 896.42,-479.41 846.59,-468.72"/>
<polygon fill="midnightblue" stroke="midnightblue" points="847.03,-465.23 836.52,-466.55 845.56,-472.07 847.03,-465.23"/>
</g>
<!-- Node7&#45;&gt;Node3 -->
<g id="edge9" class="edge">
<title>Node7&#45;&gt;Node3</title>
<path fill="none" stroke="midnightblue" d="M705.44,-450.04C623.09,-447.75 478.35,-438.02 361,-400 253.32,-365.12 217.67,-357.4 138,-277 119.92,-258.75 107.27,-231.54 100.31,-213.66"/>
<polygon fill="midnightblue" stroke="midnightblue" points="103.54,-212.3 96.8,-204.12 96.97,-214.72 103.54,-212.3"/>
</g>
<!-- Node7&#45;&gt;Node4 -->
<g id="edge10" class="edge">
<title>Node7&#45;&gt;Node4</title>
<path fill="none" stroke="midnightblue" d="M705.31,-447.66C525.39,-438.12 38,-399.62 38,-262.5 38,-262.5 38,-262.5 38,-132 38,-43.47 360.68,-18.36 465.52,-12.53"/>
<polygon fill="midnightblue" stroke="midnightblue" points="466.01,-16.01 475.81,-11.99 465.64,-9.02 466.01,-16.01"/>
</g>
<!-- Node7&#45;&gt;Node5 -->
<g id="edge12" class="edge">
<title>Node7&#45;&gt;Node5</title>
<path fill="none" stroke="midnightblue" d="M836.69,-446.84C919.8,-441.25 1066.96,-428.1 1190,-400 1265.09,-382.85 1290.18,-387.12 1354,-344 1407.44,-307.89 1451.9,-243.87 1471.39,-213.05"/>
<polygon fill="midnightblue" stroke="midnightblue" points="1474.53,-214.63 1476.82,-204.28 1468.58,-210.94 1474.53,-214.63"/>
</g>
<!-- Node8 -->
<g id="node8" class="node">
<title>Node8</title>
<g id="a_node8"><a xlink:title=" ">
<polygon fill="white" stroke="#bfbfbf" points="216.5,-185 216.5,-204 281.5,-204 281.5,-185 216.5,-185"/>
<text text-anchor="middle" x="249" y="-192" font-family="Helvetica,sans-Serif" font-size="10.00">functional</text>
</a>
</g>
</g>
<!-- Node7&#45;&gt;Node8 -->
<g id="edge7" class="edge">
<title>Node7&#45;&gt;Node8</title>
<path fill="none" stroke="midnightblue" d="M705.28,-446.47C605.78,-439.69 422.05,-424.3 361,-400 322.02,-384.48 308.23,-378.94 285,-344 257.9,-303.24 251.16,-244.1 249.51,-214.24"/>
<polygon fill="midnightblue" stroke="midnightblue" points="253,-213.86 249.09,-204.01 246.01,-214.15 253,-213.86"/>
</g>
<!-- Node9 -->
<g id="node9" class="node">
<title>Node9</title>
<g id="a_node9"><a xlink:title=" ">
<polygon fill="white" stroke="#bfbfbf" points="861,-380.5 861,-399.5 919,-399.5 919,-380.5 861,-380.5"/>
<text text-anchor="middle" x="890" y="-387.5" font-family="Helvetica,sans-Serif" font-size="10.00">memory</text>
</a>
</g>
</g>
<!-- Node7&#45;&gt;Node9 -->
<g id="edge8" class="edge">
<title>Node7&#45;&gt;Node9</title>
<path fill="none" stroke="midnightblue" d="M799.2,-436.4C818.72,-426.64 844.53,-413.74 863.63,-404.18"/>
<polygon fill="midnightblue" stroke="midnightblue" points="865.31,-407.26 872.68,-399.66 862.17,-401 865.31,-407.26"/>
</g>
<!-- Node10 -->
<g id="node10" class="node">
<title>Node10</title>
<g id="a_node10"><a xlink:title=" ">
<polygon fill="white" stroke="#bfbfbf" points="937.5,-380.5 937.5,-399.5 1030.5,-399.5 1030.5,-380.5 937.5,-380.5"/>
<text text-anchor="middle" x="984" y="-387.5" font-family="Helvetica,sans-Serif" font-size="10.00">unordered_map</text>
</a>
</g>
</g>
<!-- Node7&#45;&gt;Node10 -->
<g id="edge11" class="edge">
<title>Node7&#45;&gt;Node10</title>
<path fill="none" stroke="midnightblue" d="M821.21,-436.47C858.6,-426.03 908.98,-411.96 943.74,-402.25"/>
<polygon fill="midnightblue" stroke="midnightblue" points="944.86,-405.57 953.55,-399.51 942.98,-398.83 944.86,-405.57"/>
</g>
<!-- Node11 -->
<g id="node11" class="node">
<title>Node11</title>
<g id="a_node11"><a xlink:href="lane__data_8h.html" target="_top" xlink:title=" ">
<polygon fill="white" stroke="black" points="1049,-380.5 1049,-399.5 1181,-399.5 1181,-380.5 1049,-380.5"/>
<text text-anchor="middle" x="1115" y="-387.5" font-family="Helvetica,sans-Serif" font-size="10.00">maliput/api/lane_data.h</text>
</a>
</g>
</g>
<!-- Node7&#45;&gt;Node11 -->
<g id="edge13" class="edge">
<title>Node7&#45;&gt;Node11</title>
<path fill="none" stroke="midnightblue" d="M836.51,-439.17C899.76,-428.23 994.67,-411.81 1055.73,-401.25"/>
<polygon fill="midnightblue" stroke="midnightblue" points="1056.34,-404.7 1065.6,-399.55 1055.15,-397.8 1056.34,-404.7"/>
</g>
<!-- Node13 -->
<g id="node13" class="node">
<title>Node13</title>
<g id="a_node13"><a xlink:href="maliput__copyable_8h.html" target="_top" xlink:title=" ">
<polygon fill="white" stroke="black" points="889,-179.5 889,-209.5 1029,-209.5 1029,-179.5 889,-179.5"/>
<text text-anchor="start" x="897" y="-197.5" font-family="Helvetica,sans-Serif" font-size="10.00">maliput/common/maliput</text>
<text text-anchor="middle" x="959" y="-186.5" font-family="Helvetica,sans-Serif" font-size="10.00">_copyable.h</text>
</a>
</g>
</g>
<!-- Node7&#45;&gt;Node13 -->
<g id="edge69" class="edge">
<title>Node7&#45;&gt;Node13</title>
<path fill="none" stroke="midnightblue" d="M781.69,-436.39C789.33,-426.28 799.84,-412.33 809,-400 857.86,-334.23 914.94,-256.03 942.48,-218.21"/>
<polygon fill="midnightblue" stroke="midnightblue" points="945.46,-220.07 948.51,-209.92 939.8,-215.95 945.46,-220.07"/>
</g>
<!-- Node21 -->
<g id="node21" class="node">
<title>Node21</title>
<g id="a_node21"><a xlink:href="vector_8h.html" target="_top" xlink:title=" ">
<polygon fill="white" stroke="black" points="1147.5,-123.5 1147.5,-142.5 1272.5,-142.5 1272.5,-123.5 1147.5,-123.5"/>
<text text-anchor="middle" x="1210" y="-130.5" font-family="Helvetica,sans-Serif" font-size="10.00">maliput/math/vector.h</text>
</a>
</g>
</g>
<!-- Node7&#45;&gt;Node21 -->
<g id="edge72" class="edge">
<title>Node7&#45;&gt;Node21</title>
<path fill="none" stroke="midnightblue" d="M775.74,-436.15C782.74,-413.68 795,-368.69 795,-329.5 795,-329.5 795,-329.5 795,-260.5 795,-223.31 786.22,-203.73 814,-179 837.62,-157.97 1029.53,-144.02 1137.27,-137.77"/>
<polygon fill="midnightblue" stroke="midnightblue" points="1137.64,-141.26 1147.42,-137.19 1137.24,-134.27 1137.64,-141.26"/>
</g>
<!-- Node25 -->
<g id="node25" class="node">
<title>Node25</title>
<g id="a_node25"><a xlink:href="type__specific__identifier_8h.html" target="_top" xlink:title=" ">
<polygon fill="white" stroke="black" points="294,-313.5 294,-343.5 434,-343.5 434,-313.5 294,-313.5"/>
<text text-anchor="start" x="302" y="-331.5" font-family="Helvetica,sans-Serif" font-size="10.00">maliput/api/type_specific</text>
<text text-anchor="middle" x="364" y="-320.5" font-family="Helvetica,sans-Serif" font-size="10.00">_identifier.h</text>
</a>
</g>
</g>
<!-- Node7&#45;&gt;Node25 -->
<g id="edge45" class="edge">
<title>Node7&#45;&gt;Node25</title>
<path fill="none" stroke="midnightblue" d="M705.32,-451.21C605.37,-450.84 421.83,-443.97 376,-400 363.89,-388.38 361.22,-369.37 361.4,-354.02"/>
<polygon fill="midnightblue" stroke="midnightblue" points="364.92,-353.81 361.94,-343.65 357.93,-353.45 364.92,-353.81"/>
</g>
<!-- Node27 -->
<g id="node27" class="node">
<title>Node27</title>
<g id="a_node27"><a xlink:href="maliput__hash_8h.html" target="_top" xlink:title=" ">
<polygon fill="white" stroke="black" points="475,-246.5 475,-276.5 615,-276.5 615,-246.5 475,-246.5"/>
<text text-anchor="start" x="483" y="-264.5" font-family="Helvetica,sans-Serif" font-size="10.00">maliput/common/maliput</text>
<text text-anchor="middle" x="545" y="-253.5" font-family="Helvetica,sans-Serif" font-size="10.00">_hash.h</text>
</a>
</g>
</g>
<!-- Node7&#45;&gt;Node27 -->
<g id="edge70" class="edge">
<title>Node7&#45;&gt;Node27</title>
<path fill="none" stroke="midnightblue" d="M749.57,-436.31C720.57,-416.76 667.65,-379.87 626,-344 604.05,-325.09 580.93,-301.41 565.04,-284.45"/>
<polygon fill="midnightblue" stroke="midnightblue" points="567.23,-281.66 557.86,-276.72 562.1,-286.43 567.23,-281.66"/>
</g>
<!-- Node31 -->
<g id="node31" class="node">
<title>Node31</title>
<g id="a_node31"><a xlink:href="unique__id_8h.html" target="_top" xlink:title=" ">
<polygon fill="white" stroke="black" points="635.5,-319 635.5,-338 766.5,-338 766.5,-319 635.5,-319"/>
<text text-anchor="middle" x="701" y="-326" font-family="Helvetica,sans-Serif" font-size="10.00">maliput/api/unique_id.h</text>
</a>
</g>
</g>
<!-- Node7&#45;&gt;Node31 -->
<g id="edge64" class="edge">
<title>Node7&#45;&gt;Node31</title>
<path fill="none" stroke="midnightblue" d="M762.7,-436.14C749.77,-413.81 724.9,-370.8 711,-346.79"/>
<polygon fill="midnightblue" stroke="midnightblue" points="713.98,-344.96 705.95,-338.05 707.93,-348.46 713.98,-344.96"/>
</g>
<!-- Node32 -->
<g id="node32" class="node">
<title>Node32</title>
<g id="a_node32"><a xlink:href="passkey_8h.html" target="_top" xlink:title=" ">
<polygon fill="white" stroke="black" points="385,-380.5 385,-399.5 535,-399.5 535,-380.5 385,-380.5"/>
<text text-anchor="middle" x="460" y="-387.5" font-family="Helvetica,sans-Serif" font-size="10.00">maliput/common/passkey.h</text>
</a>
</g>
</g>
<!-- Node7&#45;&gt;Node32 -->
<g id="edge71" class="edge">
<title>Node7&#45;&gt;Node32</title>
<path fill="none" stroke="midnightblue" d="M705.42,-437.95C648.67,-427.1 567.56,-411.58 514.36,-401.4"/>
<polygon fill="midnightblue" stroke="midnightblue" points="514.91,-397.94 504.43,-399.5 513.6,-404.82 514.91,-397.94"/>
</g>
<!-- Node11&#45;&gt;Node4 -->
<g id="edge16" class="edge">
<title>Node11&#45;&gt;Node4</title>
<path fill="none" stroke="midnightblue" d="M1107.07,-380.42C1099.63,-371.85 1088.8,-357.99 1083,-344 1054.51,-275.29 1102.35,-236.36 1055,-179 985.7,-95.04 638.15,-33.35 530.1,-15.96"/>
<polygon fill="midnightblue" stroke="midnightblue" points="530.55,-12.49 520.12,-14.38 529.45,-19.4 530.55,-12.49"/>
</g>
<!-- Node11&#45;&gt;Node8 -->
<g id="edge14" class="edge">
<title>Node11&#45;&gt;Node8</title>
<path fill="none" stroke="midnightblue" d="M1048.76,-380.93C1045.8,-380.61 1042.87,-380.3 1040,-380 856.29,-360.99 805.79,-386.28 626,-344 488.48,-311.66 334.72,-238.68 274.83,-208.72"/>
<polygon fill="midnightblue" stroke="midnightblue" points="276.22,-205.5 265.72,-204.13 273.07,-211.75 276.22,-205.5"/>
</g>
<!-- Node12 -->
<g id="node12" class="node">
<title>Node12</title>
<g id="a_node12"><a xlink:title=" ">
<polygon fill="white" stroke="#bfbfbf" points="1123.5,-185 1123.5,-204 1180.5,-204 1180.5,-185 1123.5,-185"/>
<text text-anchor="middle" x="1152" y="-192" font-family="Helvetica,sans-Serif" font-size="10.00">ostream</text>
</a>
</g>
</g>
<!-- Node11&#45;&gt;Node12 -->
<g id="edge15" class="edge">
<title>Node11&#45;&gt;Node12</title>
<path fill="none" stroke="midnightblue" d="M1110.5,-380.48C1099.06,-357.58 1071.26,-293.23 1093,-246 1100.1,-230.58 1114.49,-218.11 1127.29,-209.42"/>
<polygon fill="midnightblue" stroke="midnightblue" points="1129.22,-212.34 1135.78,-204.01 1125.46,-206.43 1129.22,-212.34"/>
</g>
<!-- Node11&#45;&gt;Node13 -->
<g id="edge17" class="edge">
<title>Node11&#45;&gt;Node13</title>
<path fill="none" stroke="midnightblue" d="M1048.86,-380.86C1024.79,-374.59 999.48,-363.52 983,-344 953.46,-309.02 953.12,-252.3 955.85,-220.02"/>
<polygon fill="midnightblue" stroke="midnightblue" points="959.37,-220.01 956.89,-209.7 952.4,-219.3 959.37,-220.01"/>
</g>
<!-- Node14 -->
<g id="node14" class="node">
<title>Node14</title>
<g id="a_node14"><a xlink:href="maliput__throw_8h.html" target="_top" xlink:title=" ">
<polygon fill="white" stroke="black" points="554,-56.5 554,-86.5 694,-86.5 694,-56.5 554,-56.5"/>
<text text-anchor="start" x="562" y="-74.5" font-family="Helvetica,sans-Serif" font-size="10.00">maliput/common/maliput</text>
<text text-anchor="middle" x="624" y="-63.5" font-family="Helvetica,sans-Serif" font-size="10.00">_throw.h</text>
</a>
</g>
</g>
<!-- Node11&#45;&gt;Node14 -->
<g id="edge18" class="edge">
<title>Node11&#45;&gt;Node14</title>
<path fill="none" stroke="midnightblue" d="M1074.85,-380.43C1055.03,-373.95 1032.86,-362.83 1021,-344 997.78,-307.15 1011.47,-288.5 1021,-246 1027.72,-216.02 1056.82,-203.28 1038,-179 997.49,-126.74 812.8,-95.64 704.27,-81.55"/>
<polygon fill="midnightblue" stroke="midnightblue" points="704.69,-78.08 694.33,-80.28 703.81,-85.02 704.69,-78.08"/>
</g>
<!-- Node15 -->
<g id="node15" class="node">
<title>Node15</title>
<g id="a_node15"><a xlink:href="matrix_8h.html" target="_top" xlink:title=" ">
<polygon fill="white" stroke="black" points="1313.5,-185 1313.5,-204 1440.5,-204 1440.5,-185 1313.5,-185"/>
<text text-anchor="middle" x="1377" y="-192" font-family="Helvetica,sans-Serif" font-size="10.00">maliput/math/matrix.h</text>
</a>
</g>
</g>
<!-- Node11&#45;&gt;Node15 -->
<g id="edge20" class="edge">
<title>Node11&#45;&gt;Node15</title>
<path fill="none" stroke="midnightblue" d="M1181.1,-382.38C1235.66,-375.63 1307.48,-363.36 1329,-344 1366.85,-309.94 1375,-245.87 1376.65,-214.19"/>
<polygon fill="midnightblue" stroke="midnightblue" points="1380.15,-214.23 1377.01,-204.11 1373.16,-213.98 1380.15,-214.23"/>
</g>
<!-- Node11&#45;&gt;Node21 -->
<g id="edge44" class="edge">
<title>Node11&#45;&gt;Node21</title>
<path fill="none" stroke="midnightblue" d="M1176.98,-380.5C1219.59,-373.24 1270.77,-361.21 1284,-344 1329.08,-285.34 1298.59,-243.3 1262,-179 1255.08,-166.84 1243.6,-156.38 1233.18,-148.62"/>
<polygon fill="midnightblue" stroke="midnightblue" points="1235.01,-145.62 1224.81,-142.75 1230.99,-151.35 1235.01,-145.62"/>
</g>
<!-- Node22 -->
<g id="node22" class="node">
<title>Node22</title>
<g id="a_node22"><a xlink:href="quaternion_8h.html" target="_top" xlink:title=" ">
<polygon fill="white" stroke="black" points="1101.5,-252 1101.5,-271 1248.5,-271 1248.5,-252 1101.5,-252"/>
<text text-anchor="middle" x="1175" y="-259" font-family="Helvetica,sans-Serif" font-size="10.00">maliput/math/quaternion.h</text>
</a>
</g>
</g>
<!-- Node11&#45;&gt;Node22 -->
<g id="edge33" class="edge">
<title>Node11&#45;&gt;Node22</title>
<path fill="none" stroke="midnightblue" d="M1116.12,-380.15C1118.24,-365.53 1123.65,-335.7 1135,-313 1141.34,-300.31 1151.22,-287.8 1159.57,-278.4"/>
<polygon fill="midnightblue" stroke="midnightblue" points="1162.18,-280.74 1166.39,-271.02 1157.04,-275.99 1162.18,-280.74"/>
</g>
<!-- Node24 -->
<g id="node24" class="node">
<title>Node24</title>
<g id="a_node24"><a xlink:href="roll__pitch__yaw_8h.html" target="_top" xlink:title=" ">
<polygon fill="white" stroke="black" points="1143.5,-313.5 1143.5,-343.5 1274.5,-343.5 1274.5,-313.5 1143.5,-313.5"/>
<text text-anchor="start" x="1151.5" y="-331.5" font-family="Helvetica,sans-Serif" font-size="10.00">maliput/math/roll_pitch</text>
<text text-anchor="middle" x="1209" y="-320.5" font-family="Helvetica,sans-Serif" font-size="10.00">_yaw.h</text>
</a>
</g>
</g>
<!-- Node11&#45;&gt;Node24 -->
<g id="edge39" class="edge">
<title>Node11&#45;&gt;Node24</title>
<path fill="none" stroke="midnightblue" d="M1128.47,-380.48C1141.44,-372.27 1161.51,-359.56 1178.38,-348.88"/>
<polygon fill="midnightblue" stroke="midnightblue" points="1180.27,-351.83 1186.85,-343.52 1176.52,-345.91 1180.27,-351.83"/>
</g>
<!-- Node14&#45;&gt;Node4 -->
<g id="edge19" class="edge">
<title>Node14&#45;&gt;Node4</title>
<path fill="none" stroke="midnightblue" d="M594.14,-56.4C573.38,-46.59 545.9,-33.62 525.64,-24.05"/>
<polygon fill="midnightblue" stroke="midnightblue" points="526.87,-20.76 516.33,-19.66 523.88,-27.09 526.87,-20.76"/>
</g>
<!-- Node15&#45;&gt;Node16 -->
<g id="edge21" class="edge">
<title>Node15&#45;&gt;Node16</title>
<path fill="none" stroke="midnightblue" d="M1391.06,-184.99C1425.12,-164.39 1512.28,-111.65 1554.03,-86.39"/>
<polygon fill="midnightblue" stroke="midnightblue" points="1555.94,-89.33 1562.68,-81.16 1552.32,-83.34 1555.94,-89.33"/>
</g>
<!-- Node17 -->
<g id="node17" class="node">
<title>Node17</title>
<g id="a_node17"><a xlink:title=" ">
<polygon fill="white" stroke="#bfbfbf" points="1384,-62 1384,-81 1426,-81 1426,-62 1384,-62"/>
<text text-anchor="middle" x="1405" y="-69" font-family="Helvetica,sans-Serif" font-size="10.00">array</text>
</a>
</g>
</g>
<!-- Node15&#45;&gt;Node17 -->
<g id="edge22" class="edge">
<title>Node15&#45;&gt;Node17</title>
<path fill="none" stroke="midnightblue" d="M1379.57,-184.97C1382.54,-174.97 1387.47,-157.87 1391,-143 1395.14,-125.56 1399.04,-105.51 1401.67,-91.25"/>
<polygon fill="midnightblue" stroke="midnightblue" points="1405.15,-91.69 1403.48,-81.23 1398.26,-90.44 1405.15,-91.69"/>
</g>
<!-- Node18 -->
<g id="node18" class="node">
<title>Node18</title>
<g id="a_node18"><a xlink:title=" ">
<polygon fill="white" stroke="#bfbfbf" points="1204.5,-62 1204.5,-81 1257.5,-81 1257.5,-62 1204.5,-62"/>
<text text-anchor="middle" x="1231" y="-69" font-family="Helvetica,sans-Serif" font-size="10.00">cstddef</text>
</a>
</g>
</g>
<!-- Node15&#45;&gt;Node18 -->
<g id="edge23" class="edge">
<title>Node15&#45;&gt;Node18</title>
<path fill="none" stroke="midnightblue" d="M1370.85,-184.93C1360.46,-170.84 1338.28,-142.42 1315,-123 1297.36,-108.28 1274.97,-95.04 1257.74,-85.82"/>
<polygon fill="midnightblue" stroke="midnightblue" points="1259.24,-82.65 1248.76,-81.12 1256,-88.86 1259.24,-82.65"/>
</g>
<!-- Node19 -->
<g id="node19" class="node">
<title>Node19</title>
<g id="a_node19"><a xlink:title=" ">
<polygon fill="white" stroke="#bfbfbf" points="1280.5,-62 1280.5,-81 1363.5,-81 1363.5,-62 1280.5,-62"/>
<text text-anchor="middle" x="1322" y="-69" font-family="Helvetica,sans-Serif" font-size="10.00">initializer_list</text>
</a>
</g>
</g>
<!-- Node15&#45;&gt;Node19 -->
<g id="edge24" class="edge">
<title>Node15&#45;&gt;Node19</title>
<path fill="none" stroke="midnightblue" d="M1374.65,-184.57C1370.92,-170.95 1363.01,-144.3 1353,-123 1347.55,-111.41 1340.07,-99.15 1333.82,-89.61"/>
<polygon fill="midnightblue" stroke="midnightblue" points="1336.59,-87.45 1328.11,-81.11 1330.78,-91.36 1336.59,-87.45"/>
</g>
<!-- Node20 -->
<g id="node20" class="node">
<title>Node20</title>
<g id="a_node20"><a xlink:title=" ">
<polygon fill="white" stroke="#bfbfbf" points="1126,-62 1126,-81 1186,-81 1186,-62 1126,-62"/>
<text text-anchor="middle" x="1156" y="-69" font-family="Helvetica,sans-Serif" font-size="10.00">iostream</text>
</a>
</g>
</g>
<!-- Node15&#45;&gt;Node20 -->
<g id="edge25" class="edge">
<title>Node15&#45;&gt;Node20</title>
<path fill="none" stroke="midnightblue" d="M1367.32,-184.98C1350.76,-170.72 1315.52,-141.74 1282,-123 1265.57,-113.82 1220.6,-96.44 1189.09,-84.66"/>
<polygon fill="midnightblue" stroke="midnightblue" points="1189.98,-81.26 1179.39,-81.05 1187.54,-87.82 1189.98,-81.26"/>
</g>
<!-- Node15&#45;&gt;Node21 -->
<g id="edge26" class="edge">
<title>Node15&#45;&gt;Node21</title>
<path fill="none" stroke="midnightblue" d="M1353.07,-184.98C1324.3,-174.72 1275.84,-157.46 1243.4,-145.9"/>
<polygon fill="midnightblue" stroke="midnightblue" points="1244.48,-142.57 1233.88,-142.51 1242.13,-149.16 1244.48,-142.57"/>
</g>
<!-- Node21&#45;&gt;Node14 -->
<g id="edge32" class="edge">
<title>Node21&#45;&gt;Node14</title>
<path fill="none" stroke="midnightblue" d="M1147.29,-125.63C1040.28,-114.77 822.55,-92.66 704.48,-80.67"/>
<polygon fill="midnightblue" stroke="midnightblue" points="704.71,-77.18 694.41,-79.65 704.01,-84.14 704.71,-77.18"/>
</g>
<!-- Node21&#45;&gt;Node16 -->
<g id="edge27" class="edge">
<title>Node21&#45;&gt;Node16</title>
<path fill="none" stroke="midnightblue" d="M1262.58,-123.48C1335.77,-111.61 1466.92,-90.35 1534.37,-79.41"/>
<polygon fill="midnightblue" stroke="midnightblue" points="1535.32,-82.8 1544.63,-77.75 1534.2,-75.89 1535.32,-82.8"/>
</g>
<!-- Node21&#45;&gt;Node17 -->
<g id="edge28" class="edge">
<title>Node21&#45;&gt;Node17</title>
<path fill="none" stroke="midnightblue" d="M1247.42,-123.43C1280.79,-115.38 1330.77,-102.29 1373,-87 1374.62,-86.41 1376.27,-85.78 1377.92,-85.12"/>
<polygon fill="midnightblue" stroke="midnightblue" points="1379.44,-88.28 1387.26,-81.13 1376.69,-81.84 1379.44,-88.28"/>
</g>
<!-- Node21&#45;&gt;Node18 -->
<g id="edge29" class="edge">
<title>Node21&#45;&gt;Node18</title>
<path fill="none" stroke="midnightblue" d="M1213.01,-123.48C1216.03,-114.9 1220.79,-101.43 1224.65,-90.48"/>
<polygon fill="midnightblue" stroke="midnightblue" points="1227.97,-91.6 1228,-81.01 1221.37,-89.27 1227.97,-91.6"/>
</g>
<!-- Node21&#45;&gt;Node19 -->
<g id="edge30" class="edge">
<title>Node21&#45;&gt;Node19</title>
<path fill="none" stroke="midnightblue" d="M1226.05,-123.48C1244.59,-113.62 1275.34,-97.29 1297.02,-85.77"/>
<polygon fill="midnightblue" stroke="midnightblue" points="1298.79,-88.79 1305.98,-81.01 1295.51,-82.61 1298.79,-88.79"/>
</g>
<!-- Node21&#45;&gt;Node20 -->
<g id="edge31" class="edge">
<title>Node21&#45;&gt;Node20</title>
<path fill="none" stroke="midnightblue" d="M1202.26,-123.48C1194,-114.37 1180.72,-99.74 1170.51,-88.48"/>
<polygon fill="midnightblue" stroke="midnightblue" points="1173.03,-86.06 1163.72,-81.01 1167.85,-90.77 1173.03,-86.06"/>
</g>
<!-- Node22&#45;&gt;Node12 -->
<g id="edge35" class="edge">
<title>Node22&#45;&gt;Node12</title>
<path fill="none" stroke="midnightblue" d="M1171.9,-251.73C1168.48,-242.09 1162.9,-226.3 1158.51,-213.91"/>
<polygon fill="midnightblue" stroke="midnightblue" points="1161.69,-212.39 1155.05,-204.13 1155.09,-214.72 1161.69,-212.39"/>
</g>
<!-- Node22&#45;&gt;Node13 -->
<g id="edge36" class="edge">
<title>Node22&#45;&gt;Node13</title>
<path fill="none" stroke="midnightblue" d="M1146.32,-251.87C1113.06,-241.86 1057.45,-225.13 1015.44,-212.48"/>
<polygon fill="midnightblue" stroke="midnightblue" points="1016.2,-209.06 1005.62,-209.53 1014.18,-215.76 1016.2,-209.06"/>
</g>
<!-- Node22&#45;&gt;Node15 -->
<g id="edge37" class="edge">
<title>Node22&#45;&gt;Node15</title>
<path fill="none" stroke="midnightblue" d="M1201.82,-251.87C1237.54,-240.38 1300.84,-220.01 1340.77,-207.16"/>
<polygon fill="midnightblue" stroke="midnightblue" points="1341.94,-210.46 1350.39,-204.06 1339.8,-203.8 1341.94,-210.46"/>
</g>
<!-- Node22&#45;&gt;Node21 -->
<g id="edge38" class="edge">
<title>Node22&#45;&gt;Node21</title>
<path fill="none" stroke="midnightblue" d="M1177.63,-251.95C1180.69,-241.92 1185.86,-224.8 1190,-210 1195.45,-190.55 1201.28,-168.17 1205.24,-152.76"/>
<polygon fill="midnightblue" stroke="midnightblue" points="1208.67,-153.47 1207.75,-142.92 1201.89,-151.74 1208.67,-153.47"/>
</g>
<!-- Node23 -->
<g id="node23" class="node">
<title>Node23</title>
<g id="a_node23"><a xlink:title=" ">
<polygon fill="white" stroke="#bfbfbf" points="823.5,-185 823.5,-204 870.5,-204 870.5,-185 823.5,-185"/>
<text text-anchor="middle" x="847" y="-192" font-family="Helvetica,sans-Serif" font-size="10.00">cmath</text>
</a>
</g>
</g>
<!-- Node22&#45;&gt;Node23 -->
<g id="edge34" class="edge">
<title>Node22&#45;&gt;Node23</title>
<path fill="none" stroke="midnightblue" d="M1101.42,-252.97C1041.03,-245.59 953.78,-232.16 880,-210 878.07,-209.42 876.1,-208.76 874.13,-208.04"/>
<polygon fill="midnightblue" stroke="midnightblue" points="875.09,-204.65 864.51,-204.14 872.47,-211.14 875.09,-204.65"/>
</g>
<!-- Node24&#45;&gt;Node13 -->
<g id="edge40" class="edge">
<title>Node24&#45;&gt;Node13</title>
<path fill="none" stroke="midnightblue" d="M1173.39,-313.47C1150.14,-303.95 1119.32,-290.65 1093,-277 1056.08,-257.85 1015.52,-232.54 988.8,-215.24"/>
<polygon fill="midnightblue" stroke="midnightblue" points="990.58,-212.22 980.3,-209.7 986.76,-218.09 990.58,-212.22"/>
</g>
<!-- Node24&#45;&gt;Node15 -->
<g id="edge41" class="edge">
<title>Node24&#45;&gt;Node15</title>
<path fill="none" stroke="midnightblue" d="M1235.02,-313.33C1251.6,-303.85 1273.24,-290.65 1291,-277 1317.63,-256.53 1345.28,-229.02 1361.81,-211.77"/>
<polygon fill="midnightblue" stroke="midnightblue" points="1364.64,-213.87 1368.98,-204.21 1359.56,-209.06 1364.64,-213.87"/>
</g>
<!-- Node24&#45;&gt;Node21 -->
<g id="edge43" class="edge">
<title>Node24&#45;&gt;Node21</title>
<path fill="none" stroke="midnightblue" d="M1228.84,-313.33C1239.68,-304.31 1252.08,-291.6 1258,-277 1276.21,-232.08 1243,-177.37 1223.2,-150.5"/>
<polygon fill="midnightblue" stroke="midnightblue" points="1225.95,-148.33 1217.1,-142.51 1220.39,-152.58 1225.95,-148.33"/>
</g>
<!-- Node24&#45;&gt;Node22 -->
<g id="edge42" class="edge">
<title>Node24&#45;&gt;Node22</title>
<path fill="none" stroke="midnightblue" d="M1201.62,-313.4C1196.53,-303.66 1189.72,-290.65 1184.27,-280.21"/>
<polygon fill="midnightblue" stroke="midnightblue" points="1187.28,-278.43 1179.55,-271.19 1181.08,-281.68 1187.28,-278.43"/>
</g>
<!-- Node25&#45;&gt;Node4 -->
<g id="edge47" class="edge">
<title>Node25&#45;&gt;Node4</title>
<path fill="none" stroke="midnightblue" d="M293.92,-318.03C265.82,-310.96 235.15,-298.6 214,-277 182.84,-245.17 174.14,-219.35 193,-179 243.67,-70.61 398.28,-29.4 465.84,-16.28"/>
<polygon fill="midnightblue" stroke="midnightblue" points="466.72,-19.68 475.91,-14.41 465.44,-12.8 466.72,-19.68"/>
</g>
<!-- Node25&#45;&gt;Node8 -->
<g id="edge46" class="edge">
<title>Node25&#45;&gt;Node8</title>
<path fill="none" stroke="midnightblue" d="M351.69,-313.37C330.24,-288.76 286.13,-238.12 263.34,-211.96"/>
<polygon fill="midnightblue" stroke="midnightblue" points="265.7,-209.34 256.49,-204.1 260.42,-213.94 265.7,-209.34"/>
</g>
<!-- Node25&#45;&gt;Node13 -->
<g id="edge49" class="edge">
<title>Node25&#45;&gt;Node13</title>
<path fill="none" stroke="midnightblue" d="M434.26,-314.78C486.68,-305.06 559.99,-291 624,-277 718.55,-256.33 827.31,-229.25 894.61,-212.11"/>
<polygon fill="midnightblue" stroke="midnightblue" points="895.81,-215.42 904.64,-209.55 894.08,-208.64 895.81,-215.42"/>
</g>
<!-- Node25&#45;&gt;Node14 -->
<g id="edge63" class="edge">
<title>Node25&#45;&gt;Node14</title>
<path fill="none" stroke="midnightblue" d="M327.49,-313.42C268.69,-288.68 163.73,-234.71 207,-179 247.89,-126.35 434.36,-95.36 543.61,-81.41"/>
<polygon fill="midnightblue" stroke="midnightblue" points="544.12,-84.87 553.6,-80.15 543.25,-77.93 544.12,-84.87"/>
</g>
<!-- Node26 -->
<g id="node26" class="node">
<title>Node26</title>
<g id="a_node26"><a xlink:title=" ">
<polygon fill="white" stroke="#bfbfbf" points="299.5,-185 299.5,-204 344.5,-204 344.5,-185 299.5,-185"/>
<text text-anchor="middle" x="322" y="-192" font-family="Helvetica,sans-Serif" font-size="10.00">utility</text>
</a>
</g>
</g>
<!-- Node25&#45;&gt;Node26 -->
<g id="edge48" class="edge">
<title>Node25&#45;&gt;Node26</title>
<path fill="none" stroke="midnightblue" d="M359.51,-313.37C351.84,-289.29 336.26,-240.31 327.79,-213.7"/>
<polygon fill="midnightblue" stroke="midnightblue" points="331.1,-212.57 324.74,-204.1 324.43,-214.69 331.1,-212.57"/>
</g>
<!-- Node25&#45;&gt;Node27 -->
<g id="edge50" class="edge">
<title>Node25&#45;&gt;Node27</title>
<path fill="none" stroke="midnightblue" d="M403.27,-313.4C430.55,-303.6 467.08,-290.48 496.23,-280.02"/>
<polygon fill="midnightblue" stroke="midnightblue" points="497.57,-283.25 505.8,-276.58 495.21,-276.66 497.57,-283.25"/>
</g>
<!-- Node27&#45;&gt;Node3 -->
<g id="edge56" class="edge">
<title>Node27&#45;&gt;Node3</title>
<path fill="none" stroke="midnightblue" d="M474.53,-250.34C377.99,-236.43 207.98,-211.93 132.25,-201.01"/>
<polygon fill="midnightblue" stroke="midnightblue" points="132.61,-197.53 122.21,-199.57 131.61,-204.46 132.61,-197.53"/>
</g>
<!-- Node27&#45;&gt;Node4 -->
<g id="edge58" class="edge">
<title>Node27&#45;&gt;Node4</title>
<path fill="none" stroke="midnightblue" d="M474.83,-255.3C444.21,-249.13 411.01,-236.29 392,-210 345.98,-146.34 437.24,-60.2 478.84,-25.95"/>
<polygon fill="midnightblue" stroke="midnightblue" points="481.08,-28.63 486.67,-19.63 476.69,-23.18 481.08,-28.63"/>
</g>
<!-- Node27&#45;&gt;Node5 -->
<g id="edge61" class="edge">
<title>Node27&#45;&gt;Node5</title>
<path fill="none" stroke="midnightblue" d="M615.1,-258.08C813.51,-251.01 1369.86,-229.66 1450,-210 1452.21,-209.46 1454.46,-208.76 1456.69,-207.97"/>
<polygon fill="midnightblue" stroke="midnightblue" points="1458.23,-211.13 1466.14,-204.08 1455.56,-204.66 1458.23,-211.13"/>
</g>
<!-- Node27&#45;&gt;Node8 -->
<g id="edge53" class="edge">
<title>Node27&#45;&gt;Node8</title>
<path fill="none" stroke="midnightblue" d="M474.83,-249.41C423.25,-240.59 351.69,-226.92 290,-210 287.04,-209.19 283.98,-208.27 280.94,-207.29"/>
<polygon fill="midnightblue" stroke="midnightblue" points="281.97,-203.95 271.37,-204.07 279.73,-210.58 281.97,-203.95"/>
</g>
<!-- Node27&#45;&gt;Node14 -->
<g id="edge62" class="edge">
<title>Node27&#45;&gt;Node14</title>
<path fill="none" stroke="midnightblue" d="M559.34,-246.19C568.16,-236.66 579.07,-223.45 586,-210 605.03,-173.07 615.43,-125.51 620.35,-97.1"/>
<polygon fill="midnightblue" stroke="midnightblue" points="623.86,-97.3 622.02,-86.86 616.95,-96.17 623.86,-97.3"/>
</g>
<!-- Node27&#45;&gt;Node18 -->
<g id="edge52" class="edge">
<title>Node27&#45;&gt;Node18</title>
<path fill="none" stroke="midnightblue" d="M581.38,-246.49C627.38,-229.1 709.26,-199.29 781,-179 962.38,-127.71 1014.97,-142.84 1195,-87 1197.28,-86.29 1199.62,-85.5 1201.96,-84.67"/>
<polygon fill="midnightblue" stroke="midnightblue" points="1203.31,-87.9 1211.41,-81.07 1200.81,-81.36 1203.31,-87.9"/>
</g>
<!-- Node27&#45;&gt;Node20 -->
<g id="edge54" class="edge">
<title>Node27&#45;&gt;Node20</title>
<path fill="none" stroke="midnightblue" d="M565.2,-246.47C607.17,-218.07 707.74,-153.87 802,-123 911.76,-87.05 1048.95,-76.68 1115.74,-73.7"/>
<polygon fill="midnightblue" stroke="midnightblue" points="1115.99,-77.19 1125.83,-73.28 1115.7,-70.2 1115.99,-77.19"/>
</g>
<!-- Node27&#45;&gt;Node23 -->
<g id="edge51" class="edge">
<title>Node27&#45;&gt;Node23</title>
<path fill="none" stroke="midnightblue" d="M610.16,-246.48C672.51,-233.05 764.12,-213.34 813.12,-202.79"/>
<polygon fill="midnightblue" stroke="midnightblue" points="814.15,-206.15 823.19,-200.62 812.68,-199.31 814.15,-206.15"/>
</g>
<!-- Node27&#45;&gt;Node26 -->
<g id="edge60" class="edge">
<title>Node27&#45;&gt;Node26</title>
<path fill="none" stroke="midnightblue" d="M486.71,-246.4C449.81,-237.05 401.25,-223.97 359,-210 356.73,-209.25 354.4,-208.44 352.07,-207.6"/>
<polygon fill="midnightblue" stroke="midnightblue" points="353.19,-204.28 342.6,-204.03 350.72,-210.83 353.19,-204.28"/>
</g>
<!-- Node28 -->
<g id="node28" class="node">
<title>Node28</title>
<g id="a_node28"><a xlink:title=" ">
<polygon fill="white" stroke="#bfbfbf" points="539,-185 539,-204 577,-204 577,-185 539,-185"/>
<text text-anchor="middle" x="558" y="-192" font-family="Helvetica,sans-Serif" font-size="10.00">map</text>
</a>
</g>
</g>
<!-- Node27&#45;&gt;Node28 -->
<g id="edge55" class="edge">
<title>Node27&#45;&gt;Node28</title>
<path fill="none" stroke="midnightblue" d="M547.82,-246.4C549.71,-236.96 552.21,-224.45 554.26,-214.19"/>
<polygon fill="midnightblue" stroke="midnightblue" points="557.73,-214.69 556.26,-204.19 550.87,-213.31 557.73,-214.69"/>
</g>
<!-- Node29 -->
<g id="node29" class="node">
<title>Node29</title>
<g id="a_node29"><a xlink:title=" ">
<polygon fill="white" stroke="#bfbfbf" points="401,-185 401,-204 433,-204 433,-185 401,-185"/>
<text text-anchor="middle" x="417" y="-192" font-family="Helvetica,sans-Serif" font-size="10.00">set</text>
</a>
</g>
</g>
<!-- Node27&#45;&gt;Node29 -->
<g id="edge57" class="edge">
<title>Node27&#45;&gt;Node29</title>
<path fill="none" stroke="midnightblue" d="M514.97,-246.46C494.28,-236.61 466.24,-222.95 442,-210 441.46,-209.71 440.92,-209.42 440.37,-209.12"/>
<polygon fill="midnightblue" stroke="midnightblue" points="441.88,-205.95 431.45,-204.11 438.45,-212.06 441.88,-205.95"/>
</g>
<!-- Node30 -->
<g id="node30" class="node">
<title>Node30</title>
<g id="a_node30"><a xlink:title=" ">
<polygon fill="white" stroke="#bfbfbf" points="451.5,-185 451.5,-204 520.5,-204 520.5,-185 451.5,-185"/>
<text text-anchor="middle" x="486" y="-192" font-family="Helvetica,sans-Serif" font-size="10.00">type_traits</text>
</a>
</g>
</g>
<!-- Node27&#45;&gt;Node30 -->
<g id="edge59" class="edge">
<title>Node27&#45;&gt;Node30</title>
<path fill="none" stroke="midnightblue" d="M532.2,-246.4C522.91,-236.16 510.32,-222.3 500.63,-211.62"/>
<polygon fill="midnightblue" stroke="midnightblue" points="503.2,-209.25 493.89,-204.19 498.02,-213.95 503.2,-209.25"/>
</g>
<!-- Node31&#45;&gt;Node4 -->
<g id="edge65" class="edge">
<title>Node31&#45;&gt;Node4</title>
<path fill="none" stroke="midnightblue" d="M704.57,-318.72C718.92,-281.83 768.58,-137.54 703,-56 681.69,-29.5 582.49,-17.72 530.3,-13.28"/>
<polygon fill="midnightblue" stroke="midnightblue" points="530.47,-9.79 520.22,-12.47 529.91,-16.76 530.47,-9.79"/>
</g>
<!-- Node31&#45;&gt;Node13 -->
<g id="edge66" class="edge">
<title>Node31&#45;&gt;Node13</title>
<path fill="none" stroke="midnightblue" d="M717.34,-318.82C745.67,-303.79 805.8,-272.05 857,-246 878.04,-235.3 901.65,-223.59 920.86,-214.14"/>
<polygon fill="midnightblue" stroke="midnightblue" points="922.47,-217.25 929.9,-209.7 919.38,-210.97 922.47,-217.25"/>
</g>
<!-- Node31&#45;&gt;Node14 -->
<g id="edge68" class="edge">
<title>Node31&#45;&gt;Node14</title>
<path fill="none" stroke="midnightblue" d="M698.35,-318.72C687.69,-283.42 647.72,-151.07 631.21,-96.38"/>
<polygon fill="midnightblue" stroke="midnightblue" points="634.48,-95.09 628.24,-86.53 627.78,-97.11 634.48,-95.09"/>
</g>
<!-- Node31&#45;&gt;Node27 -->
<g id="edge67" class="edge">
<title>Node31&#45;&gt;Node27</title>
<path fill="none" stroke="midnightblue" d="M680.28,-318.87C656.88,-309.12 618.13,-292.97 588.08,-280.45"/>
<polygon fill="midnightblue" stroke="midnightblue" points="589.24,-277.14 578.67,-276.53 586.55,-283.61 589.24,-277.14"/>
</g>
<!-- Node34&#45;&gt;Node4 -->
<g id="edge77" class="edge">
<title>Node34&#45;&gt;Node4</title>
<path fill="none" stroke="midnightblue" d="M1605.24,-246.12C1612.54,-236.57 1621.12,-223.36 1625,-210 1637.16,-168.09 1656.21,-93.57 1618,-56 1578.19,-16.85 709.18,-11.73 530.1,-11.09"/>
<polygon fill="midnightblue" stroke="midnightblue" points="530.01,-7.59 520,-11.05 529.99,-14.59 530.01,-7.59"/>
</g>
<!-- Node34&#45;&gt;Node5 -->
<g id="edge78" class="edge">
<title>Node34&#45;&gt;Node5</title>
<path fill="none" stroke="midnightblue" d="M1568.91,-246.4C1550.04,-235.34 1523.94,-220.06 1505.28,-209.13"/>
<polygon fill="midnightblue" stroke="midnightblue" points="1506.93,-206.04 1496.53,-204.01 1503.39,-212.08 1506.93,-206.04"/>
</g>
<!-- Node34&#45;&gt;Node6 -->
<g id="edge79" class="edge">
<title>Node34&#45;&gt;Node6</title>
<path fill="none" stroke="midnightblue" d="M1586.49,-246.4C1582.04,-236.76 1576.11,-223.91 1571.32,-213.54"/>
<polygon fill="midnightblue" stroke="midnightblue" points="1574.38,-211.81 1567.01,-204.19 1568.03,-214.74 1574.38,-211.81"/>
</g>
<!-- Node34&#45;&gt;Node16 -->
<g id="edge76" class="edge">
<title>Node34&#45;&gt;Node16</title>
<path fill="none" stroke="midnightblue" d="M1599.55,-246.27C1603.75,-236.34 1608.81,-222.66 1611,-210 1618.54,-166.36 1598.65,-116.07 1586.18,-90.09"/>
<polygon fill="midnightblue" stroke="midnightblue" points="1589.29,-88.48 1581.7,-81.1 1583.03,-91.61 1589.29,-88.48"/>
</g>
</g>
</svg>
        <g id="navigator" transform="translate(0 0)" fill="#404254">
                <rect fill="#f2f5e9" fill-opacity="0.5" stroke="#606060" stroke-width=".5" x="0" y="0" width="60" height="60"/>
                <use id="zoomplus" xlink:href="#zoomPlus" x="17" y="9" onmousedown="handleZoom(evt,'in')"/>
                <use id="zoomminus" xlink:href="#zoomMin" x="42" y="9" onmousedown="handleZoom(evt,'out')"/>
                <use id="reset" xlink:href="#resetDef" x="30" y="36" onmousedown="handleReset()"/>
                <g id="arrowUp" xlink:href="#dirArrow" transform="translate(30 24)" onmousedown="handlePan(0,-1)">
                  <use xlink:href="#rim" fill="#404040">
                        <set attributeName="fill" to="#808080" begin="arrowUp.mouseover" end="arrowUp.mouseout"/>
                  </use>
                  <path fill="none" stroke="white" stroke-width="1.5" d="M0,-3.0v7 M-2.5,-0.5L0,-3.0L2.5,-0.5"/>
                </g>
                <g id="arrowRight" xlink:href="#dirArrow" transform="rotate(90) translate(36 -43)" onmousedown="handlePan(1,0)">
                  <use xlink:href="#rim" fill="#404040">
                        <set attributeName="fill" to="#808080" begin="arrowRight.mouseover" end="arrowRight.mouseout"/>
                  </use>
                  <path fill="none" stroke="white" stroke-width="1.5" d="M0,-3.0v7 M-2.5,-0.5L0,-3.0L2.5,-0.5"/>
                </g>
                <g id="arrowDown" xlink:href="#dirArrow" transform="rotate(180) translate(-30 -48)" onmousedown="handlePan(0,1)">
                  <use xlink:href="#rim" fill="#404040">
                        <set attributeName="fill" to="#808080" begin="arrowDown.mouseover" end="arrowDown.mouseout"/>
                  </use>
                  <path fill="none" stroke="white" stroke-width="1.5" d="M0,-3.0v7 M-2.5,-0.5L0,-3.0L2.5,-0.5"/>
                </g>
                <g id="arrowLeft" xlink:href="#dirArrow" transform="rotate(270) translate(-36 17)" onmousedown="handlePan(-1,0)">
                  <use xlink:href="#rim" fill="#404040">
                        <set attributeName="fill" to="#808080" begin="arrowLeft.mouseover" end="arrowLeft.mouseout"/>
                  </use>
                  <path fill="none" stroke="white" stroke-width="1.5" d="M0,-3.0v7 M-2.5,-0.5L0,-3.0L2.5,-0.5"/>
                </g>
        </g>
        <svg viewBox="0 0 15 15" width="100%" height="30px" preserveAspectRatio="xMaxYMin meet">
         <g id="arrow_out" transform="scale(0.3 0.3)">
          <a xlink:href="traffic__lights__compare_8cc__incl_org.svg" target="_base">
           <rect id="button" ry="5" rx="5" y="6" x="6" height="38" width="38"
                fill="#f2f5e9" fill-opacity="0.5" stroke="#606060" stroke-width="1.0"/>
           <path id="arrow"
             d="M 11.500037,31.436501 C 11.940474,20.09759 22.043105,11.32322 32.158766,21.979434 L 37.068811,17.246167 C 37.068811,17.246167 37.088388,32 37.088388,32 L 22.160133,31.978069 C 22.160133,31.978069 26.997745,27.140456 26.997745,27.140456 C 18.528582,18.264221 13.291696,25.230495 11.500037,31.436501 z"
             style="fill:#404040;"/>
          </a>
         </g>
        </svg>
</svg>
