<?xml version="1.0" encoding="UTF-8" standalone="no"?>
<!DOCTYPE svg PUBLIC "-//W3C//DTD SVG 1.1//EN"
 "http://www.w3.org/Graphics/SVG/1.1/DTD/svg11.dtd">
<!-- Generated by graphviz version 2.43.0 (0)
 -->
<!-- Title: maliput_derive_lane_s_routes.cc Pages: 1 -->
<svg width="1564pt" height="162pt"
 viewBox="0.00 0.00 1564.00 162.00" xmlns="http://www.w3.org/2000/svg" xmlns:xlink="http://www.w3.org/1999/xlink">
<g id="graph0" class="graph" transform="scale(1 1) rotate(0) translate(4 158)">
<title>maliput_derive_lane_s_routes.cc</title>
<polygon fill="white" stroke="transparent" points="-4,4 -4,-158 1560,-158 1560,4 -4,4"/>
<!-- Node1 -->
<g id="node1" class="node">
<title>Node1</title>
<g id="a_node1"><a xlink:title=" ">
<polygon fill="#bfbfbf" stroke="black" points="487.5,-123.5 487.5,-153.5 603.5,-153.5 603.5,-123.5 487.5,-123.5"/>
<text text-anchor="start" x="495.5" y="-141.5" font-family="Helvetica,sans-Serif" font-size="10.00">maliput_derive_lane</text>
<text text-anchor="middle" x="545.5" y="-130.5" font-family="Helvetica,sans-Serif" font-size="10.00">_s_routes.cc</text>
</a>
</g>
</g>
<!-- Node2 -->
<g id="node2" class="node">
<title>Node2</title>
<g id="a_node2"><a xlink:title=" ">
<polygon fill="white" stroke="#bfbfbf" points="0,-62 0,-81 47,-81 47,-62 0,-62"/>
<text text-anchor="middle" x="23.5" y="-69" font-family="Helvetica,sans-Serif" font-size="10.00">cmath</text>
</a>
</g>
</g>
<!-- Node1&#45;&gt;Node2 -->
<g id="edge1" class="edge">
<title>Node1&#45;&gt;Node2</title>
<path fill="none" stroke="midnightblue" d="M487.24,-137.29C394.52,-135.67 208.32,-127.14 56.5,-87 54.2,-86.39 51.86,-85.65 49.54,-84.82"/>
<polygon fill="midnightblue" stroke="midnightblue" points="50.85,-81.57 40.26,-81.07 48.22,-88.06 50.85,-81.57"/>
</g>
<!-- Node3 -->
<g id="node3" class="node">
<title>Node3</title>
<g id="a_node3"><a xlink:title=" ">
<polygon fill="white" stroke="#bfbfbf" points="65.5,-62 65.5,-81 125.5,-81 125.5,-62 65.5,-62"/>
<text text-anchor="middle" x="95.5" y="-69" font-family="Helvetica,sans-Serif" font-size="10.00">iostream</text>
</a>
</g>
</g>
<!-- Node1&#45;&gt;Node3 -->
<g id="edge2" class="edge">
<title>Node1&#45;&gt;Node3</title>
<path fill="none" stroke="midnightblue" d="M487.41,-133.84C408.04,-128.04 261.64,-114.45 139.5,-87 135.83,-86.18 132.04,-85.17 128.28,-84.07"/>
<polygon fill="midnightblue" stroke="midnightblue" points="129.14,-80.68 118.55,-81.03 127.05,-87.36 129.14,-80.68"/>
</g>
<!-- Node4 -->
<g id="node4" class="node">
<title>Node4</title>
<g id="a_node4"><a xlink:title=" ">
<polygon fill="white" stroke="#bfbfbf" points="7.5,-0.5 7.5,-19.5 65.5,-19.5 65.5,-0.5 7.5,-0.5"/>
<text text-anchor="middle" x="36.5" y="-7.5" font-family="Helvetica,sans-Serif" font-size="10.00">memory</text>
</a>
</g>
</g>
<!-- Node1&#45;&gt;Node4 -->
<g id="edge3" class="edge">
<title>Node1&#45;&gt;Node4</title>
<path fill="none" stroke="midnightblue" d="M487.39,-133.72C396.62,-127.15 225.85,-111.88 170.5,-87 151.24,-78.34 152.27,-67.41 134.5,-56 114.01,-42.85 89.05,-31.45 69.45,-23.41"/>
<polygon fill="midnightblue" stroke="midnightblue" points="70.61,-20.1 60.02,-19.63 68,-26.6 70.61,-20.1"/>
</g>
<!-- Node5 -->
<g id="node5" class="node">
<title>Node5</title>
<g id="a_node5"><a xlink:title=" ">
<polygon fill="white" stroke="#bfbfbf" points="573.5,-62 573.5,-81 629.5,-81 629.5,-62 573.5,-62"/>
<text text-anchor="middle" x="601.5" y="-69" font-family="Helvetica,sans-Serif" font-size="10.00">sstream</text>
</a>
</g>
</g>
<!-- Node1&#45;&gt;Node5 -->
<g id="edge4" class="edge">
<title>Node1&#45;&gt;Node5</title>
<path fill="none" stroke="midnightblue" d="M557.65,-123.4C566.38,-113.26 578.18,-99.57 587.34,-88.94"/>
<polygon fill="midnightblue" stroke="midnightblue" points="590.13,-91.06 594.01,-81.19 584.83,-86.49 590.13,-91.06"/>
</g>
<!-- Node6 -->
<g id="node6" class="node">
<title>Node6</title>
<g id="a_node6"><a xlink:title=" ">
<polygon fill="white" stroke="#bfbfbf" points="83.5,-0.5 83.5,-19.5 127.5,-19.5 127.5,-0.5 83.5,-0.5"/>
<text text-anchor="middle" x="105.5" y="-7.5" font-family="Helvetica,sans-Serif" font-size="10.00">string</text>
</a>
</g>
</g>
<!-- Node1&#45;&gt;Node6 -->
<g id="edge5" class="edge">
<title>Node1&#45;&gt;Node6</title>
<path fill="none" stroke="midnightblue" d="M487.25,-135.29C421.91,-131.22 313.65,-119.69 226.5,-87 205.75,-79.22 155.03,-45.28 126.28,-25.49"/>
<polygon fill="midnightblue" stroke="midnightblue" points="127.99,-22.42 117.78,-19.61 124.01,-28.17 127.99,-22.42"/>
</g>
<!-- Node7 -->
<g id="node7" class="node">
<title>Node7</title>
<g id="a_node7"><a xlink:title=" ">
<polygon fill="white" stroke="#bfbfbf" points="648,-62 648,-81 695,-81 695,-62 648,-62"/>
<text text-anchor="middle" x="671.5" y="-69" font-family="Helvetica,sans-Serif" font-size="10.00">vector</text>
</a>
</g>
</g>
<!-- Node1&#45;&gt;Node7 -->
<g id="edge6" class="edge">
<title>Node1&#45;&gt;Node7</title>
<path fill="none" stroke="midnightblue" d="M572.84,-123.4C594.56,-112.19 624.7,-96.64 645.94,-85.69"/>
<polygon fill="midnightblue" stroke="midnightblue" points="647.73,-88.7 655.01,-81.01 644.52,-82.48 647.73,-88.7"/>
</g>
<!-- Node8 -->
<g id="node8" class="node">
<title>Node8</title>
<g id="a_node8"><a xlink:title=" ">
<polygon fill="white" stroke="#bfbfbf" points="565,-0.5 565,-19.5 654,-19.5 654,-0.5 565,-0.5"/>
<text text-anchor="middle" x="609.5" y="-7.5" font-family="Helvetica,sans-Serif" font-size="10.00">gflags/gflags.h</text>
</a>
</g>
</g>
<!-- Node1&#45;&gt;Node8 -->
<g id="edge7" class="edge">
<title>Node1&#45;&gt;Node8</title>
<path fill="none" stroke="midnightblue" d="M546.43,-123.4C548.06,-106.45 552.5,-77.59 564.5,-56 570.83,-44.61 580.87,-34.17 589.87,-26.22"/>
<polygon fill="midnightblue" stroke="midnightblue" points="592.28,-28.76 597.7,-19.66 587.78,-23.4 592.28,-28.76"/>
</g>
<!-- Node9 -->
<g id="node9" class="node">
<title>Node9</title>
<g id="a_node9"><a xlink:href="../../maliput/html/lane__data_8h.html.html" xlink:title=" ">
<polygon fill="white" stroke="black" points="713.5,-62 713.5,-81 845.5,-81 845.5,-62 713.5,-62"/>
<text text-anchor="middle" x="779.5" y="-69" font-family="Helvetica,sans-Serif" font-size="10.00">maliput/api/lane_data.h</text>
</a>
</g>
</g>
<!-- Node1&#45;&gt;Node9 -->
<g id="edge8" class="edge">
<title>Node1&#45;&gt;Node9</title>
<path fill="none" stroke="midnightblue" d="M595.99,-123.48C638.75,-111.6 699.27,-94.79 738.94,-83.77"/>
<polygon fill="midnightblue" stroke="midnightblue" points="740.1,-87.08 748.8,-81.03 738.22,-80.33 740.1,-87.08"/>
</g>
<!-- Node10 -->
<g id="node10" class="node">
<title>Node10</title>
<g id="a_node10"><a xlink:href="../../maliput/html/regions_8h.html.html" xlink:title=" ">
<polygon fill="white" stroke="black" points="863.5,-62 863.5,-81 983.5,-81 983.5,-62 863.5,-62"/>
<text text-anchor="middle" x="923.5" y="-69" font-family="Helvetica,sans-Serif" font-size="10.00">maliput/api/regions.h</text>
</a>
</g>
</g>
<!-- Node1&#45;&gt;Node10 -->
<g id="edge9" class="edge">
<title>Node1&#45;&gt;Node10</title>
<path fill="none" stroke="midnightblue" d="M603.73,-128.79C665.95,-119.29 767.4,-103.26 854.5,-87 861.05,-85.78 867.93,-84.42 874.71,-83.04"/>
<polygon fill="midnightblue" stroke="midnightblue" points="875.43,-86.46 884.52,-81.01 874.01,-79.61 875.43,-86.46"/>
</g>
<!-- Node11 -->
<g id="node11" class="node">
<title>Node11</title>
<g id="a_node11"><a xlink:title=" ">
<polygon fill="white" stroke="#bfbfbf" points="146,-0.5 146,-19.5 303,-19.5 303,-0.5 146,-0.5"/>
<text text-anchor="middle" x="224.5" y="-7.5" font-family="Helvetica,sans-Serif" font-size="10.00">maliput/api/road_geometry.h</text>
</a>
</g>
</g>
<!-- Node1&#45;&gt;Node11 -->
<g id="edge10" class="edge">
<title>Node1&#45;&gt;Node11</title>
<path fill="none" stroke="midnightblue" d="M487.43,-134.69C411.29,-129.84 283.3,-117.32 248.5,-87 232.07,-72.68 226.77,-47.22 225.13,-29.74"/>
<polygon fill="midnightblue" stroke="midnightblue" points="228.61,-29.37 224.49,-19.6 221.62,-29.8 228.61,-29.37"/>
</g>
<!-- Node12 -->
<g id="node12" class="node">
<title>Node12</title>
<g id="a_node12"><a xlink:href="../../maliput/html/road__network_8h.html.html" xlink:title=" ">
<polygon fill="white" stroke="black" points="321,-0.5 321,-19.5 472,-19.5 472,-0.5 321,-0.5"/>
<text text-anchor="middle" x="396.5" y="-7.5" font-family="Helvetica,sans-Serif" font-size="10.00">maliput/api/road_network.h</text>
</a>
</g>
</g>
<!-- Node1&#45;&gt;Node12 -->
<g id="edge11" class="edge">
<title>Node1&#45;&gt;Node12</title>
<path fill="none" stroke="midnightblue" d="M487.33,-129.2C460.14,-122.34 429.63,-109.82 410.5,-87 397.2,-71.13 394.85,-46.76 395.08,-29.92"/>
<polygon fill="midnightblue" stroke="midnightblue" points="398.59,-29.8 395.55,-19.65 391.59,-29.48 398.59,-29.8"/>
</g>
<!-- Node13 -->
<g id="node13" class="node">
<title>Node13</title>
<g id="a_node13"><a xlink:href="../../maliput/html/logger_8h.html.html" xlink:title=" ">
<polygon fill="white" stroke="black" points="1002,-62 1002,-81 1145,-81 1145,-62 1002,-62"/>
<text text-anchor="middle" x="1073.5" y="-69" font-family="Helvetica,sans-Serif" font-size="10.00">maliput/common/logger.h</text>
</a>
</g>
</g>
<!-- Node1&#45;&gt;Node13 -->
<g id="edge12" class="edge">
<title>Node1&#45;&gt;Node13</title>
<path fill="none" stroke="midnightblue" d="M603.52,-132.15C688.92,-124.01 853.4,-107.29 992.5,-87 1000.93,-85.77 1009.83,-84.33 1018.53,-82.83"/>
<polygon fill="midnightblue" stroke="midnightblue" points="1019.35,-86.24 1028.6,-81.07 1018.14,-79.35 1019.35,-86.24"/>
</g>
<!-- Node14 -->
<g id="node14" class="node">
<title>Node14</title>
<g id="a_node14"><a xlink:href="../../maliput/html/derive__lane__s__routes_8h.html.html" xlink:title=" ">
<polygon fill="white" stroke="black" points="1163,-56.5 1163,-86.5 1288,-86.5 1288,-56.5 1163,-56.5"/>
<text text-anchor="start" x="1171" y="-74.5" font-family="Helvetica,sans-Serif" font-size="10.00">maliput/routing/derive</text>
<text text-anchor="middle" x="1225.5" y="-63.5" font-family="Helvetica,sans-Serif" font-size="10.00">_lane_s_routes.h</text>
</a>
</g>
</g>
<!-- Node1&#45;&gt;Node14 -->
<g id="edge13" class="edge">
<title>Node1&#45;&gt;Node14</title>
<path fill="none" stroke="midnightblue" d="M603.7,-134.98C710.62,-129.84 945.65,-116.22 1152.7,-87.16"/>
<polygon fill="midnightblue" stroke="midnightblue" points="1153.44,-90.59 1162.85,-85.71 1152.46,-83.65 1153.44,-90.59"/>
</g>
<!-- Node15 -->
<g id="node15" class="node">
<title>Node15</title>
<g id="a_node15"><a xlink:href="../../maliput/html/generate__string_8h.html.html" xlink:title=" ">
<polygon fill="white" stroke="black" points="1306.5,-56.5 1306.5,-86.5 1438.5,-86.5 1438.5,-56.5 1306.5,-56.5"/>
<text text-anchor="start" x="1314.5" y="-74.5" font-family="Helvetica,sans-Serif" font-size="10.00">maliput/utility/generate</text>
<text text-anchor="middle" x="1372.5" y="-63.5" font-family="Helvetica,sans-Serif" font-size="10.00">_string.h</text>
</a>
</g>
</g>
<!-- Node1&#45;&gt;Node15 -->
<g id="edge14" class="edge">
<title>Node1&#45;&gt;Node15</title>
<path fill="none" stroke="midnightblue" d="M603.77,-136.05C728.84,-132.39 1032.41,-120.68 1296.16,-87.06"/>
<polygon fill="midnightblue" stroke="midnightblue" points="1296.85,-90.5 1306.32,-85.76 1295.95,-83.56 1296.85,-90.5"/>
</g>
<!-- Node16 -->
<g id="node16" class="node">
<title>Node16</title>
<g id="a_node16"><a xlink:title=" ">
<polygon fill="white" stroke="#bfbfbf" points="1457,-62 1457,-81 1556,-81 1556,-62 1457,-62"/>
<text text-anchor="middle" x="1506.5" y="-69" font-family="Helvetica,sans-Serif" font-size="10.00">yaml&#45;cpp/yaml.h</text>
</a>
</g>
</g>
<!-- Node1&#45;&gt;Node16 -->
<g id="edge15" class="edge">
<title>Node1&#45;&gt;Node16</title>
<path fill="none" stroke="midnightblue" d="M603.65,-137.96C747.58,-138.28 1131.64,-134.24 1447.5,-87 1453.73,-86.07 1460.26,-84.78 1466.62,-83.36"/>
<polygon fill="midnightblue" stroke="midnightblue" points="1467.48,-86.75 1476.4,-81.04 1465.86,-79.94 1467.48,-86.75"/>
</g>
<!-- Node17 -->
<g id="node17" class="node">
<title>Node17</title>
<g id="a_node17"><a xlink:href="tools_8h.html" target="_top" xlink:title=" ">
<polygon fill="white" stroke="black" points="257.5,-62 257.5,-81 363.5,-81 363.5,-62 257.5,-62"/>
<text text-anchor="middle" x="310.5" y="-69" font-family="Helvetica,sans-Serif" font-size="10.00">integration/tools.h</text>
</a>
</g>
</g>
<!-- Node1&#45;&gt;Node17 -->
<g id="edge16" class="edge">
<title>Node1&#45;&gt;Node17</title>
<path fill="none" stroke="midnightblue" d="M494.8,-123.48C451.76,-111.57 390.82,-94.72 350.98,-83.7"/>
<polygon fill="midnightblue" stroke="midnightblue" points="351.91,-80.32 341.33,-81.03 350.04,-87.07 351.91,-80.32"/>
</g>
<!-- Node19 -->
<g id="node19" class="node">
<title>Node19</title>
<g id="a_node19"><a xlink:href="maliput__gflags_8h.html" target="_top" xlink:title=" ">
<polygon fill="white" stroke="black" points="419.5,-62 419.5,-81 517.5,-81 517.5,-62 419.5,-62"/>
<text text-anchor="middle" x="468.5" y="-69" font-family="Helvetica,sans-Serif" font-size="10.00">maliput_gflags.h</text>
</a>
</g>
</g>
<!-- Node1&#45;&gt;Node19 -->
<g id="edge22" class="edge">
<title>Node1&#45;&gt;Node19</title>
<path fill="none" stroke="midnightblue" d="M528.79,-123.4C516.31,-112.86 499.27,-98.48 486.49,-87.69"/>
<polygon fill="midnightblue" stroke="midnightblue" points="488.7,-84.97 478.8,-81.19 484.18,-90.32 488.7,-84.97"/>
</g>
<!-- Node17&#45;&gt;Node4 -->
<g id="edge17" class="edge">
<title>Node17&#45;&gt;Node4</title>
<path fill="none" stroke="midnightblue" d="M269.09,-61.92C223.94,-52.51 149.32,-36.77 75.47,-20.18"/>
<polygon fill="midnightblue" stroke="midnightblue" points="76.06,-16.73 65.53,-17.94 74.52,-23.56 76.06,-16.73"/>
</g>
<!-- Node17&#45;&gt;Node6 -->
<g id="edge19" class="edge">
<title>Node17&#45;&gt;Node6</title>
<path fill="none" stroke="midnightblue" d="M281.13,-61.98C242.94,-50.89 176.48,-31.6 137.18,-20.2"/>
<polygon fill="midnightblue" stroke="midnightblue" points="138.16,-16.83 127.58,-17.41 136.21,-23.56 138.16,-16.83"/>
</g>
<!-- Node17&#45;&gt;Node11 -->
<g id="edge20" class="edge">
<title>Node17&#45;&gt;Node11</title>
<path fill="none" stroke="midnightblue" d="M298.18,-61.98C284.38,-52.43 261.8,-36.81 245.27,-25.37"/>
<polygon fill="midnightblue" stroke="midnightblue" points="247.01,-22.32 236.8,-19.51 243.03,-28.08 247.01,-22.32"/>
</g>
<!-- Node17&#45;&gt;Node12 -->
<g id="edge21" class="edge">
<title>Node17&#45;&gt;Node12</title>
<path fill="none" stroke="midnightblue" d="M322.82,-61.98C336.62,-52.43 359.2,-36.81 375.73,-25.37"/>
<polygon fill="midnightblue" stroke="midnightblue" points="377.97,-28.08 384.2,-19.51 373.99,-22.32 377.97,-28.08"/>
</g>
<!-- Node18 -->
<g id="node18" class="node">
<title>Node18</title>
<g id="a_node18"><a xlink:title=" ">
<polygon fill="white" stroke="#bfbfbf" points="490.5,-0.5 490.5,-19.5 546.5,-19.5 546.5,-0.5 490.5,-0.5"/>
<text text-anchor="middle" x="518.5" y="-7.5" font-family="Helvetica,sans-Serif" font-size="10.00">optional</text>
</a>
</g>
</g>
<!-- Node17&#45;&gt;Node18 -->
<g id="edge18" class="edge">
<title>Node17&#45;&gt;Node18</title>
<path fill="none" stroke="midnightblue" d="M340.3,-61.98C377.27,-51.4 440.34,-33.36 480.68,-21.82"/>
<polygon fill="midnightblue" stroke="midnightblue" points="481.77,-25.15 490.42,-19.03 479.84,-18.42 481.77,-25.15"/>
</g>
<!-- Node19&#45;&gt;Node8 -->
<g id="edge24" class="edge">
<title>Node19&#45;&gt;Node8</title>
<path fill="none" stroke="midnightblue" d="M488.7,-61.98C512.57,-51.9 552.5,-35.05 579.87,-23.5"/>
<polygon fill="midnightblue" stroke="midnightblue" points="581.48,-26.62 589.34,-19.51 578.76,-20.17 581.48,-26.62"/>
</g>
<!-- Node19&#45;&gt;Node18 -->
<g id="edge23" class="edge">
<title>Node19&#45;&gt;Node18</title>
<path fill="none" stroke="midnightblue" d="M475.66,-61.98C483.24,-52.96 495.37,-38.52 504.79,-27.31"/>
<polygon fill="midnightblue" stroke="midnightblue" points="507.6,-29.42 511.35,-19.51 502.24,-24.91 507.6,-29.42"/>
</g>
</g>
</svg>
