<?xml version="1.0" encoding="UTF-8" standalone="no"?>
<!DOCTYPE svg PUBLIC "-//W3C//DTD SVG 1.1//EN"
 "http://www.w3.org/Graphics/SVG/1.1/DTD/svg11.dtd">
<!-- Generated by graphviz version 2.43.0 (0)
 -->
<!-- Title: maliput_query.cc Pages: 1 -->
<svg width="2187pt" height="151pt"
 viewBox="0.00 0.00 2187.00 151.00" xmlns="http://www.w3.org/2000/svg" xmlns:xlink="http://www.w3.org/1999/xlink">
<g id="graph0" class="graph" transform="scale(1 1) rotate(0) translate(4 147)">
<title>maliput_query.cc</title>
<polygon fill="white" stroke="transparent" points="-4,4 -4,-147 2183,-147 2183,4 -4,4"/>
<!-- Node1 -->
<g id="node1" class="node">
<title>Node1</title>
<g id="a_node1"><a xlink:title=" ">
<polygon fill="#bfbfbf" stroke="black" points="648.5,-123.5 648.5,-142.5 747.5,-142.5 747.5,-123.5 648.5,-123.5"/>
<text text-anchor="middle" x="698" y="-130.5" font-family="Helvetica,sans-Serif" font-size="10.00">maliput_query.cc</text>
</a>
</g>
</g>
<!-- Node2 -->
<g id="node2" class="node">
<title>Node2</title>
<g id="a_node2"><a xlink:title=" ">
<polygon fill="white" stroke="#bfbfbf" points="0,-62 0,-81 50,-81 50,-62 0,-62"/>
<text text-anchor="middle" x="25" y="-69" font-family="Helvetica,sans-Serif" font-size="10.00">chrono</text>
</a>
</g>
</g>
<!-- Node1&#45;&gt;Node2 -->
<g id="edge1" class="edge">
<title>Node1&#45;&gt;Node2</title>
<path fill="none" stroke="midnightblue" d="M648.09,-130.62C517.94,-126.69 170.62,-113.93 59,-87 56.49,-86.39 53.93,-85.62 51.39,-84.75"/>
<polygon fill="midnightblue" stroke="midnightblue" points="52.5,-81.42 41.92,-81.02 49.94,-87.94 52.5,-81.42"/>
</g>
<!-- Node3 -->
<g id="node3" class="node">
<title>Node3</title>
<g id="a_node3"><a xlink:title=" ">
<polygon fill="white" stroke="#bfbfbf" points="68,-62 68,-81 128,-81 128,-62 68,-62"/>
<text text-anchor="middle" x="98" y="-69" font-family="Helvetica,sans-Serif" font-size="10.00">iostream</text>
</a>
</g>
</g>
<!-- Node1&#45;&gt;Node3 -->
<g id="edge2" class="edge">
<title>Node1&#45;&gt;Node3</title>
<path fill="none" stroke="midnightblue" d="M648.17,-132.57C549.4,-132.71 322.31,-128.05 137,-87 133.93,-86.32 130.77,-85.45 127.64,-84.48"/>
<polygon fill="midnightblue" stroke="midnightblue" points="128.52,-81.07 117.92,-81.11 126.23,-87.69 128.52,-81.07"/>
</g>
<!-- Node4 -->
<g id="node4" class="node">
<title>Node4</title>
<g id="a_node4"><a xlink:title=" ">
<polygon fill="white" stroke="#bfbfbf" points="146,-62 146,-81 184,-81 184,-62 146,-62"/>
<text text-anchor="middle" x="165" y="-69" font-family="Helvetica,sans-Serif" font-size="10.00">map</text>
</a>
</g>
</g>
<!-- Node1&#45;&gt;Node4 -->
<g id="edge3" class="edge">
<title>Node1&#45;&gt;Node4</title>
<path fill="none" stroke="midnightblue" d="M648.49,-132.8C557.67,-133.11 359,-128.43 198,-87 195.7,-86.41 193.35,-85.67 191.03,-84.85"/>
<polygon fill="midnightblue" stroke="midnightblue" points="192.34,-81.6 181.75,-81.11 189.72,-88.09 192.34,-81.6"/>
</g>
<!-- Node5 -->
<g id="node5" class="node">
<title>Node5</title>
<g id="a_node5"><a xlink:title=" ">
<polygon fill="white" stroke="#bfbfbf" points="149,-0.5 149,-19.5 207,-19.5 207,-0.5 149,-0.5"/>
<text text-anchor="middle" x="178" y="-7.5" font-family="Helvetica,sans-Serif" font-size="10.00">memory</text>
</a>
</g>
</g>
<!-- Node1&#45;&gt;Node5 -->
<g id="edge4" class="edge">
<title>Node1&#45;&gt;Node5</title>
<path fill="none" stroke="midnightblue" d="M648.47,-131.39C546.77,-129.43 318.16,-121.23 249,-87 222.54,-73.9 200.92,-46.53 188.75,-28.47"/>
<polygon fill="midnightblue" stroke="midnightblue" points="191.64,-26.49 183.27,-19.99 185.76,-30.29 191.64,-26.49"/>
</g>
<!-- Node6 -->
<g id="node6" class="node">
<title>Node6</title>
<g id="a_node6"><a xlink:title=" ">
<polygon fill="white" stroke="#bfbfbf" points="225,-0.5 225,-19.5 281,-19.5 281,-0.5 225,-0.5"/>
<text text-anchor="middle" x="253" y="-7.5" font-family="Helvetica,sans-Serif" font-size="10.00">optional</text>
</a>
</g>
</g>
<!-- Node1&#45;&gt;Node6 -->
<g id="edge5" class="edge">
<title>Node1&#45;&gt;Node6</title>
<path fill="none" stroke="midnightblue" d="M648.18,-130.03C541.16,-125.34 296.7,-111.98 269,-87 253.23,-72.78 250.81,-47.29 251.28,-29.78"/>
<polygon fill="midnightblue" stroke="midnightblue" points="254.78,-29.82 251.9,-19.62 247.8,-29.39 254.78,-29.82"/>
</g>
<!-- Node7 -->
<g id="node7" class="node">
<title>Node7</title>
<g id="a_node7"><a xlink:title=" ">
<polygon fill="white" stroke="#bfbfbf" points="594.5,-62 594.5,-81 651.5,-81 651.5,-62 594.5,-62"/>
<text text-anchor="middle" x="623" y="-69" font-family="Helvetica,sans-Serif" font-size="10.00">ostream</text>
</a>
</g>
</g>
<!-- Node1&#45;&gt;Node7 -->
<g id="edge6" class="edge">
<title>Node1&#45;&gt;Node7</title>
<path fill="none" stroke="midnightblue" d="M687.25,-123.48C675.45,-114.11 656.26,-98.88 641.92,-87.51"/>
<polygon fill="midnightblue" stroke="midnightblue" points="643.74,-84.48 633.73,-81.01 639.38,-89.97 643.74,-84.48"/>
</g>
<!-- Node8 -->
<g id="node8" class="node">
<title>Node8</title>
<g id="a_node8"><a xlink:title=" ">
<polygon fill="white" stroke="#bfbfbf" points="670,-62 670,-81 726,-81 726,-62 670,-62"/>
<text text-anchor="middle" x="698" y="-69" font-family="Helvetica,sans-Serif" font-size="10.00">sstream</text>
</a>
</g>
</g>
<!-- Node1&#45;&gt;Node8 -->
<g id="edge7" class="edge">
<title>Node1&#45;&gt;Node8</title>
<path fill="none" stroke="midnightblue" d="M698,-123.48C698,-115.08 698,-101.98 698,-91.16"/>
<polygon fill="midnightblue" stroke="midnightblue" points="701.5,-91.01 698,-81.01 694.5,-91.01 701.5,-91.01"/>
</g>
<!-- Node9 -->
<g id="node9" class="node">
<title>Node9</title>
<g id="a_node9"><a xlink:title=" ">
<polygon fill="white" stroke="#bfbfbf" points="751,-0.5 751,-19.5 795,-19.5 795,-0.5 751,-0.5"/>
<text text-anchor="middle" x="773" y="-7.5" font-family="Helvetica,sans-Serif" font-size="10.00">string</text>
</a>
</g>
</g>
<!-- Node1&#45;&gt;Node9 -->
<g id="edge8" class="edge">
<title>Node1&#45;&gt;Node9</title>
<path fill="none" stroke="midnightblue" d="M648.39,-124.96C625.36,-118.93 600.02,-107.75 586,-87 578.28,-75.59 577.42,-66.78 586,-56 628.39,-2.71 669.46,-34.87 740.88,-19.94"/>
<polygon fill="midnightblue" stroke="midnightblue" points="741.76,-23.33 750.69,-17.64 740.15,-16.52 741.76,-23.33"/>
</g>
<!-- Node10 -->
<g id="node10" class="node">
<title>Node10</title>
<g id="a_node10"><a xlink:title=" ">
<polygon fill="white" stroke="#bfbfbf" points="744.5,-62 744.5,-81 791.5,-81 791.5,-62 744.5,-62"/>
<text text-anchor="middle" x="768" y="-69" font-family="Helvetica,sans-Serif" font-size="10.00">vector</text>
</a>
</g>
</g>
<!-- Node1&#45;&gt;Node10 -->
<g id="edge9" class="edge">
<title>Node1&#45;&gt;Node10</title>
<path fill="none" stroke="midnightblue" d="M708.03,-123.48C719.05,-114.11 736.96,-98.88 750.34,-87.51"/>
<polygon fill="midnightblue" stroke="midnightblue" points="752.64,-90.15 757.99,-81.01 748.1,-84.82 752.64,-90.15"/>
</g>
<!-- Node11 -->
<g id="node11" class="node">
<title>Node11</title>
<g id="a_node11"><a xlink:title=" ">
<polygon fill="white" stroke="#bfbfbf" points="299.5,-0.5 299.5,-19.5 388.5,-19.5 388.5,-0.5 299.5,-0.5"/>
<text text-anchor="middle" x="344" y="-7.5" font-family="Helvetica,sans-Serif" font-size="10.00">gflags/gflags.h</text>
</a>
</g>
</g>
<!-- Node1&#45;&gt;Node11 -->
<g id="edge10" class="edge">
<title>Node1&#45;&gt;Node11</title>
<path fill="none" stroke="midnightblue" d="M648.36,-132.6C591.11,-131.37 495.57,-123.33 423,-87 408.19,-79.59 377.01,-47.13 358.56,-27.11"/>
<polygon fill="midnightblue" stroke="midnightblue" points="361.06,-24.66 351.73,-19.64 355.89,-29.38 361.06,-24.66"/>
</g>
<!-- Node12 -->
<g id="node12" class="node">
<title>Node12</title>
<g id="a_node12"><a xlink:href="../../maliput/html/logger_8h.html.html" xlink:title=" ">
<polygon fill="white" stroke="black" points="809.5,-62 809.5,-81 952.5,-81 952.5,-62 809.5,-62"/>
<text text-anchor="middle" x="881" y="-69" font-family="Helvetica,sans-Serif" font-size="10.00">maliput/common/logger.h</text>
</a>
</g>
</g>
<!-- Node1&#45;&gt;Node12 -->
<g id="edge11" class="edge">
<title>Node1&#45;&gt;Node12</title>
<path fill="none" stroke="midnightblue" d="M724.22,-123.48C756.02,-113.14 809.77,-95.66 845.32,-84.1"/>
<polygon fill="midnightblue" stroke="midnightblue" points="846.4,-87.43 854.83,-81.01 844.24,-80.77 846.4,-87.43"/>
</g>
<!-- Node13 -->
<g id="node13" class="node">
<title>Node13</title>
<g id="a_node13"><a xlink:href="../../maliput/html/maliput__abort_8h.html.html" xlink:title=" ">
<polygon fill="white" stroke="black" points="971,-56.5 971,-86.5 1111,-86.5 1111,-56.5 971,-56.5"/>
<text text-anchor="start" x="979" y="-74.5" font-family="Helvetica,sans-Serif" font-size="10.00">maliput/common/maliput</text>
<text text-anchor="middle" x="1041" y="-63.5" font-family="Helvetica,sans-Serif" font-size="10.00">_abort.h</text>
</a>
</g>
</g>
<!-- Node1&#45;&gt;Node13 -->
<g id="edge12" class="edge">
<title>Node1&#45;&gt;Node13</title>
<path fill="none" stroke="midnightblue" d="M747.66,-123.73C798.57,-115.2 880.32,-101.4 960.52,-87.25"/>
<polygon fill="midnightblue" stroke="midnightblue" points="961.56,-90.62 970.8,-85.43 960.34,-83.73 961.56,-90.62"/>
</g>
<!-- Node14 -->
<g id="node14" class="node">
<title>Node14</title>
<g id="a_node14"><a xlink:href="../../maliput/html/bounding__box_8h.html.html" xlink:title=" ">
<polygon fill="white" stroke="black" points="1129.5,-56.5 1129.5,-86.5 1260.5,-86.5 1260.5,-56.5 1129.5,-56.5"/>
<text text-anchor="start" x="1137.5" y="-74.5" font-family="Helvetica,sans-Serif" font-size="10.00">maliput/math/bounding</text>
<text text-anchor="middle" x="1195" y="-63.5" font-family="Helvetica,sans-Serif" font-size="10.00">_box.h</text>
</a>
</g>
</g>
<!-- Node1&#45;&gt;Node14 -->
<g id="edge13" class="edge">
<title>Node1&#45;&gt;Node14</title>
<path fill="none" stroke="midnightblue" d="M747.55,-128.09C824.72,-121.69 978.5,-107.75 1119.1,-87.05"/>
<polygon fill="midnightblue" stroke="midnightblue" points="1119.83,-90.48 1129.2,-85.55 1118.8,-83.56 1119.83,-90.48"/>
</g>
<!-- Node15 -->
<g id="node15" class="node">
<title>Node15</title>
<g id="a_node15"><a xlink:href="../../maliput/html/overlapping__type_8h.html.html" xlink:title=" ">
<polygon fill="white" stroke="black" points="1278.5,-56.5 1278.5,-86.5 1421.5,-86.5 1421.5,-56.5 1278.5,-56.5"/>
<text text-anchor="start" x="1286.5" y="-74.5" font-family="Helvetica,sans-Serif" font-size="10.00">maliput/math/overlapping</text>
<text text-anchor="middle" x="1350" y="-63.5" font-family="Helvetica,sans-Serif" font-size="10.00">_type.h</text>
</a>
</g>
</g>
<!-- Node1&#45;&gt;Node15 -->
<g id="edge14" class="edge">
<title>Node1&#45;&gt;Node15</title>
<path fill="none" stroke="midnightblue" d="M747.52,-129.79C845.26,-125.06 1069.99,-112.37 1268.09,-87.17"/>
<polygon fill="midnightblue" stroke="midnightblue" points="1268.62,-90.63 1278.1,-85.89 1267.73,-83.69 1268.62,-90.63"/>
</g>
<!-- Node16 -->
<g id="node16" class="node">
<title>Node16</title>
<g id="a_node16"><a xlink:href="../../maliput_malidrive/html/constants_8h.html.html" xlink:title=" ">
<polygon fill="white" stroke="black" points="1439.5,-62 1439.5,-81 1604.5,-81 1604.5,-62 1439.5,-62"/>
<text text-anchor="middle" x="1522" y="-69" font-family="Helvetica,sans-Serif" font-size="10.00">maliput_malidrive/constants.h</text>
</a>
</g>
</g>
<!-- Node1&#45;&gt;Node16 -->
<g id="edge15" class="edge">
<title>Node1&#45;&gt;Node16</title>
<path fill="none" stroke="midnightblue" d="M747.91,-130.6C866.62,-126.91 1175,-115.19 1431,-87 1441.71,-85.82 1453.09,-84.26 1464.04,-82.59"/>
<polygon fill="midnightblue" stroke="midnightblue" points="1464.61,-86.05 1473.95,-81.05 1463.53,-79.13 1464.61,-86.05"/>
</g>
<!-- Node17 -->
<g id="node17" class="node">
<title>Node17</title>
<g id="a_node17"><a xlink:title=" ">
<polygon fill="white" stroke="#bfbfbf" points="1622.5,-56.5 1622.5,-86.5 1759.5,-86.5 1759.5,-56.5 1622.5,-56.5"/>
<text text-anchor="start" x="1630.5" y="-74.5" font-family="Helvetica,sans-Serif" font-size="10.00">maliput_malidrive/utility</text>
<text text-anchor="middle" x="1691" y="-63.5" font-family="Helvetica,sans-Serif" font-size="10.00">/file_tools.h</text>
</a>
</g>
</g>
<!-- Node1&#45;&gt;Node17 -->
<g id="edge16" class="edge">
<title>Node1&#45;&gt;Node17</title>
<path fill="none" stroke="midnightblue" d="M747.85,-131.95C884.55,-131.29 1276.95,-125.97 1611.84,-87.15"/>
<polygon fill="midnightblue" stroke="midnightblue" points="1612.7,-90.57 1622.22,-85.93 1611.89,-83.62 1612.7,-90.57"/>
</g>
<!-- Node18 -->
<g id="node18" class="node">
<title>Node18</title>
<g id="a_node18"><a xlink:href="../../maliput_object/html/object_8h.html.html" xlink:title=" ">
<polygon fill="white" stroke="black" points="1777.5,-56.5 1777.5,-86.5 1884.5,-86.5 1884.5,-56.5 1777.5,-56.5"/>
<text text-anchor="start" x="1785.5" y="-74.5" font-family="Helvetica,sans-Serif" font-size="10.00">maliput_object/api</text>
<text text-anchor="middle" x="1831" y="-63.5" font-family="Helvetica,sans-Serif" font-size="10.00">/object.h</text>
</a>
</g>
</g>
<!-- Node1&#45;&gt;Node18 -->
<g id="edge17" class="edge">
<title>Node1&#45;&gt;Node18</title>
<path fill="none" stroke="midnightblue" d="M747.56,-131.15C927.64,-127.89 1547.87,-114.94 1767.21,-87.04"/>
<polygon fill="midnightblue" stroke="midnightblue" points="1767.89,-90.48 1777.35,-85.7 1766.97,-83.54 1767.89,-90.48"/>
</g>
<!-- Node19 -->
<g id="node19" class="node">
<title>Node19</title>
<g id="a_node19"><a xlink:href="../../maliput_object/html/manual__object__book_8h.html.html" xlink:title=" ">
<polygon fill="white" stroke="black" points="1903,-56.5 1903,-86.5 2033,-86.5 2033,-56.5 1903,-56.5"/>
<text text-anchor="start" x="1911" y="-74.5" font-family="Helvetica,sans-Serif" font-size="10.00">maliput_object/base</text>
<text text-anchor="middle" x="1968" y="-63.5" font-family="Helvetica,sans-Serif" font-size="10.00">/manual_object_book.h</text>
</a>
</g>
</g>
<!-- Node1&#45;&gt;Node19 -->
<g id="edge18" class="edge">
<title>Node1&#45;&gt;Node19</title>
<path fill="none" stroke="midnightblue" d="M747.82,-131.16C941.72,-127.74 1646.92,-113.79 1892.76,-86.99"/>
<polygon fill="midnightblue" stroke="midnightblue" points="1893.17,-90.46 1902.72,-85.86 1892.39,-83.51 1893.17,-90.46"/>
</g>
<!-- Node20 -->
<g id="node20" class="node">
<title>Node20</title>
<g id="a_node20"><a xlink:href="../../maliput_object/html/simple__object__query_8h.html.html" xlink:title=" ">
<polygon fill="white" stroke="black" points="2051,-56.5 2051,-86.5 2179,-86.5 2179,-56.5 2051,-56.5"/>
<text text-anchor="start" x="2059" y="-74.5" font-family="Helvetica,sans-Serif" font-size="10.00">maliput_object/base</text>
<text text-anchor="middle" x="2115" y="-63.5" font-family="Helvetica,sans-Serif" font-size="10.00">/simple_object_query.h</text>
</a>
</g>
</g>
<!-- Node1&#45;&gt;Node20 -->
<g id="edge19" class="edge">
<title>Node1&#45;&gt;Node20</title>
<path fill="none" stroke="midnightblue" d="M747.77,-131.42C956.63,-128.81 1763.94,-117.04 2040.97,-86.95"/>
<polygon fill="midnightblue" stroke="midnightblue" points="2041.45,-90.42 2051,-85.82 2040.67,-83.46 2041.45,-90.42"/>
</g>
<!-- Node21 -->
<g id="node21" class="node">
<title>Node21</title>
<g id="a_node21"><a xlink:href="tools_8h.html" target="_top" xlink:title=" ">
<polygon fill="white" stroke="black" points="432,-62 432,-81 538,-81 538,-62 432,-62"/>
<text text-anchor="middle" x="485" y="-69" font-family="Helvetica,sans-Serif" font-size="10.00">integration/tools.h</text>
</a>
</g>
</g>
<!-- Node1&#45;&gt;Node21 -->
<g id="edge20" class="edge">
<title>Node1&#45;&gt;Node21</title>
<path fill="none" stroke="midnightblue" d="M667.48,-123.48C630.08,-113.03 566.57,-95.29 525.21,-83.73"/>
<polygon fill="midnightblue" stroke="midnightblue" points="526.03,-80.33 515.46,-81.01 524.15,-87.07 526.03,-80.33"/>
</g>
<!-- Node24 -->
<g id="node24" class="node">
<title>Node24</title>
<g id="a_node24"><a xlink:href="maliput__gflags_8h.html" target="_top" xlink:title=" ">
<polygon fill="white" stroke="black" points="278,-62 278,-81 376,-81 376,-62 278,-62"/>
<text text-anchor="middle" x="327" y="-69" font-family="Helvetica,sans-Serif" font-size="10.00">maliput_gflags.h</text>
</a>
</g>
</g>
<!-- Node1&#45;&gt;Node24 -->
<g id="edge26" class="edge">
<title>Node1&#45;&gt;Node24</title>
<path fill="none" stroke="midnightblue" d="M648.45,-126.02C587.42,-118.36 480.69,-104.03 390,-87 384.13,-85.9 377.99,-84.63 371.93,-83.31"/>
<polygon fill="midnightblue" stroke="midnightblue" points="372.41,-79.83 361.88,-81.06 370.88,-86.66 372.41,-79.83"/>
</g>
<!-- Node21&#45;&gt;Node5 -->
<g id="edge21" class="edge">
<title>Node21&#45;&gt;Node5</title>
<path fill="none" stroke="midnightblue" d="M435.78,-61.98C383.84,-52.82 299.38,-37.48 217.04,-20.14"/>
<polygon fill="midnightblue" stroke="midnightblue" points="217.52,-16.67 207.01,-18.02 216.07,-23.52 217.52,-16.67"/>
</g>
<!-- Node21&#45;&gt;Node6 -->
<g id="edge22" class="edge">
<title>Node21&#45;&gt;Node6</title>
<path fill="none" stroke="midnightblue" d="M451.76,-61.98C409.22,-51.06 335.68,-32.21 290.98,-20.74"/>
<polygon fill="midnightblue" stroke="midnightblue" points="291.64,-17.3 281.08,-18.2 289.9,-24.08 291.64,-17.3"/>
</g>
<!-- Node21&#45;&gt;Node9 -->
<g id="edge23" class="edge">
<title>Node21&#45;&gt;Node9</title>
<path fill="none" stroke="midnightblue" d="M523.58,-61.97C532.88,-59.97 542.79,-57.87 552,-56 633.19,-39.53 656.73,-39.95 740.98,-20.07"/>
<polygon fill="midnightblue" stroke="midnightblue" points="741.8,-23.47 750.72,-17.74 740.18,-16.66 741.8,-23.47"/>
</g>
<!-- Node22 -->
<g id="node22" class="node">
<title>Node22</title>
<g id="a_node22"><a xlink:title=" ">
<polygon fill="white" stroke="#bfbfbf" points="406.5,-0.5 406.5,-19.5 563.5,-19.5 563.5,-0.5 406.5,-0.5"/>
<text text-anchor="middle" x="485" y="-7.5" font-family="Helvetica,sans-Serif" font-size="10.00">maliput/api/road_geometry.h</text>
</a>
</g>
</g>
<!-- Node21&#45;&gt;Node22 -->
<g id="edge24" class="edge">
<title>Node21&#45;&gt;Node22</title>
<path fill="none" stroke="midnightblue" d="M485,-61.98C485,-53.58 485,-40.48 485,-29.66"/>
<polygon fill="midnightblue" stroke="midnightblue" points="488.5,-29.51 485,-19.51 481.5,-29.51 488.5,-29.51"/>
</g>
<!-- Node23 -->
<g id="node23" class="node">
<title>Node23</title>
<g id="a_node23"><a xlink:href="../../maliput/html/road__network_8h.html.html" xlink:title=" ">
<polygon fill="white" stroke="black" points="581.5,-0.5 581.5,-19.5 732.5,-19.5 732.5,-0.5 581.5,-0.5"/>
<text text-anchor="middle" x="657" y="-7.5" font-family="Helvetica,sans-Serif" font-size="10.00">maliput/api/road_network.h</text>
</a>
</g>
</g>
<!-- Node21&#45;&gt;Node23 -->
<g id="edge25" class="edge">
<title>Node21&#45;&gt;Node23</title>
<path fill="none" stroke="midnightblue" d="M509.64,-61.98C539.28,-51.72 589.18,-34.46 622.6,-22.9"/>
<polygon fill="midnightblue" stroke="midnightblue" points="624.1,-26.09 632.4,-19.51 621.81,-19.47 624.1,-26.09"/>
</g>
<!-- Node24&#45;&gt;Node6 -->
<g id="edge27" class="edge">
<title>Node24&#45;&gt;Node6</title>
<path fill="none" stroke="midnightblue" d="M316.4,-61.98C304.75,-52.61 285.81,-37.38 271.67,-26.01"/>
<polygon fill="midnightblue" stroke="midnightblue" points="273.57,-23.05 263.58,-19.51 269.18,-28.5 273.57,-23.05"/>
</g>
<!-- Node24&#45;&gt;Node11 -->
<g id="edge28" class="edge">
<title>Node24&#45;&gt;Node11</title>
<path fill="none" stroke="midnightblue" d="M329.44,-61.98C331.86,-53.49 335.66,-40.2 338.77,-29.32"/>
<polygon fill="midnightblue" stroke="midnightblue" points="342.19,-30.09 341.57,-19.51 335.46,-28.16 342.19,-30.09"/>
</g>
</g>
</svg>
