<?xml version="1.0" encoding="UTF-8" standalone="no"?>
<!DOCTYPE svg PUBLIC "-//W3C//DTD SVG 1.1//EN"
 "http://www.w3.org/Graphics/SVG/1.1/DTD/svg11.dtd">
<!-- Generated by graphviz version 2.43.0 (0)
 -->
<!-- Title: tools.h Pages: 1 -->
<svg width="915pt" height="95pt"
 viewBox="0.00 0.00 915.00 95.00" xmlns="http://www.w3.org/2000/svg" xmlns:xlink="http://www.w3.org/1999/xlink">
<g id="graph0" class="graph" transform="scale(1 1) rotate(0) translate(4 91)">
<title>tools.h</title>
<polygon fill="white" stroke="transparent" points="-4,4 -4,-91 911,-91 911,4 -4,4"/>
<!-- Node1 -->
<g id="node1" class="node">
<title>Node1</title>
<g id="a_node1"><a xlink:title=" ">
<polygon fill="#bfbfbf" stroke="black" points="505,-67.5 505,-86.5 555,-86.5 555,-67.5 505,-67.5"/>
<text text-anchor="middle" x="530" y="-74.5" font-family="Helvetica,sans-Serif" font-size="10.00">tools.h</text>
</a>
</g>
</g>
<!-- Node2 -->
<g id="node2" class="node">
<title>Node2</title>
<g id="a_node2"><a xlink:href="maliput__derive__lane__s__routes_8cc.html" target="_top" xlink:title=" ">
<polygon fill="white" stroke="black" points="0,-0.5 0,-30.5 116,-30.5 116,-0.5 0,-0.5"/>
<text text-anchor="start" x="8" y="-18.5" font-family="Helvetica,sans-Serif" font-size="10.00">maliput_derive_lane</text>
<text text-anchor="middle" x="58" y="-7.5" font-family="Helvetica,sans-Serif" font-size="10.00">_s_routes.cc</text>
</a>
</g>
</g>
<!-- Node1&#45;&gt;Node2 -->
<g id="edge1" class="edge">
<title>Node1&#45;&gt;Node2</title>
<path fill="none" stroke="midnightblue" d="M494.64,-73.3C424.06,-67.63 260.81,-53.18 125,-31 122.06,-30.52 119.06,-30 116.04,-29.44"/>
<polygon fill="midnightblue" stroke="midnightblue" points="494.51,-76.8 504.76,-74.1 495.07,-69.82 494.51,-76.8"/>
</g>
<!-- Node3 -->
<g id="node3" class="node">
<title>Node3</title>
<g id="a_node3"><a xlink:href="maliput__dynamic__environment_8cc.html" target="_top" xlink:title=" ">
<polygon fill="white" stroke="black" points="134,-6 134,-25 316,-25 316,-6 134,-6"/>
<text text-anchor="middle" x="225" y="-13" font-family="Helvetica,sans-Serif" font-size="10.00">maliput_dynamic_environment.cc</text>
</a>
</g>
</g>
<!-- Node1&#45;&gt;Node3 -->
<g id="edge2" class="edge">
<title>Node1&#45;&gt;Node3</title>
<path fill="none" stroke="midnightblue" d="M494.63,-69.1C438.56,-58.16 329.42,-36.87 268.6,-25"/>
<polygon fill="midnightblue" stroke="midnightblue" points="494.3,-72.6 504.78,-71.08 495.64,-65.73 494.3,-72.6"/>
</g>
<!-- Node4 -->
<g id="node4" class="node">
<title>Node4</title>
<g id="a_node4"><a xlink:href="maliput__measure__load__time_8cc.html" target="_top" xlink:title=" ">
<polygon fill="white" stroke="black" points="334,-0.5 334,-30.5 462,-30.5 462,-0.5 334,-0.5"/>
<text text-anchor="start" x="342" y="-18.5" font-family="Helvetica,sans-Serif" font-size="10.00">maliput_measure_load</text>
<text text-anchor="middle" x="398" y="-7.5" font-family="Helvetica,sans-Serif" font-size="10.00">_time.cc</text>
</a>
</g>
</g>
<!-- Node1&#45;&gt;Node4 -->
<g id="edge3" class="edge">
<title>Node1&#45;&gt;Node4</title>
<path fill="none" stroke="midnightblue" d="M501.89,-63.33C480.54,-53.7 451.17,-40.47 429.11,-30.52"/>
<polygon fill="midnightblue" stroke="midnightblue" points="500.53,-66.56 511.09,-67.48 503.41,-60.17 500.53,-66.56"/>
</g>
<!-- Node5 -->
<g id="node5" class="node">
<title>Node5</title>
<g id="a_node5"><a xlink:href="maliput__query_8cc.html" target="_top" xlink:title=" ">
<polygon fill="white" stroke="black" points="480.5,-6 480.5,-25 579.5,-25 579.5,-6 480.5,-6"/>
<text text-anchor="middle" x="530" y="-13" font-family="Helvetica,sans-Serif" font-size="10.00">maliput_query.cc</text>
</a>
</g>
</g>
<!-- Node1&#45;&gt;Node5 -->
<g id="edge4" class="edge">
<title>Node1&#45;&gt;Node5</title>
<path fill="none" stroke="midnightblue" d="M530,-57.32C530,-46.5 530,-33.4 530,-25.01"/>
<polygon fill="midnightblue" stroke="midnightblue" points="526.5,-57.48 530,-67.48 533.5,-57.48 526.5,-57.48"/>
</g>
<!-- Node6 -->
<g id="node6" class="node">
<title>Node6</title>
<g id="a_node6"><a xlink:href="maliput__to__obj_8cc.html" target="_top" xlink:title=" ">
<polygon fill="white" stroke="black" points="597.5,-6 597.5,-25 700.5,-25 700.5,-6 597.5,-6"/>
<text text-anchor="middle" x="649" y="-13" font-family="Helvetica,sans-Serif" font-size="10.00">maliput_to_obj.cc</text>
</a>
</g>
</g>
<!-- Node1&#45;&gt;Node6 -->
<g id="edge5" class="edge">
<title>Node1&#45;&gt;Node6</title>
<path fill="none" stroke="midnightblue" d="M556.27,-62.87C579.33,-51.33 612.2,-34.9 631.98,-25.01"/>
<polygon fill="midnightblue" stroke="midnightblue" points="554.43,-59.87 547.05,-67.48 557.56,-66.13 554.43,-59.87"/>
</g>
<!-- Node7 -->
<g id="node7" class="node">
<title>Node7</title>
<g id="a_node7"><a xlink:href="maliput__to__string_8cc.html" target="_top" xlink:title=" ">
<polygon fill="white" stroke="black" points="719,-6 719,-25 835,-25 835,-6 719,-6"/>
<text text-anchor="middle" x="777" y="-13" font-family="Helvetica,sans-Serif" font-size="10.00">maliput_to_string.cc</text>
</a>
</g>
</g>
<!-- Node1&#45;&gt;Node7 -->
<g id="edge6" class="edge">
<title>Node1&#45;&gt;Node7</title>
<path fill="none" stroke="midnightblue" d="M565.03,-67.56C611.9,-56.27 694.55,-36.36 741.6,-25.03"/>
<polygon fill="midnightblue" stroke="midnightblue" points="563.95,-64.22 555.04,-69.97 565.58,-71.03 563.95,-64.22"/>
</g>
<!-- Node8 -->
<g id="node8" class="node">
<title>Node8</title>
<g id="a_node8"><a xlink:href="tools_8cc.html" target="_top" xlink:title=" ">
<polygon fill="white" stroke="black" points="853,-6 853,-25 907,-25 907,-6 853,-6"/>
<text text-anchor="middle" x="880" y="-13" font-family="Helvetica,sans-Serif" font-size="10.00">tools.cc</text>
</a>
</g>
</g>
<!-- Node1&#45;&gt;Node8 -->
<g id="edge7" class="edge">
<title>Node1&#45;&gt;Node8</title>
<path fill="none" stroke="midnightblue" d="M565.47,-73.71C624.24,-69.29 745.12,-57.58 844,-31 849.73,-29.46 855.77,-27.27 861.24,-25.05"/>
<polygon fill="midnightblue" stroke="midnightblue" points="564.96,-70.23 555.24,-74.45 565.47,-77.22 564.96,-70.23"/>
</g>
</g>
</svg>
