<?xml version="1.0" encoding="UTF-8" standalone="no"?>
<!DOCTYPE svg PUBLIC "-//W3C//DTD SVG 1.1//EN"
 "http://www.w3.org/Graphics/SVG/1.1/DTD/svg11.dtd">
<!-- Generated by graphviz version 2.43.0 (0)
 -->
<!-- Title: tools.cc Pages: 1 -->
<!--zoomable 162 -->
<svg id="main" version="1.1" xmlns="http://www.w3.org/2000/svg" xmlns:xlink="http://www.w3.org/1999/xlink" xml:space="preserve" onload="init(evt)">
<style type="text/css"><![CDATA[
.edge:hover path { stroke: red; }
.edge:hover polygon { stroke: red; fill: red; }
]]></style>
<script type="text/javascript"><![CDATA[
var edges = document.getElementsByTagName('g');
if (edges && edges.length) {
  for (var i=0;i<edges.length;i++) {
    if (edges[i].id.substr(0,4)=='edge') {
      edges[i].setAttribute('class','edge');
    }
  }
}
]]></script>
        <defs>
                <circle id="rim" cx="0" cy="0" r="7"/>
                <circle id="rim2" cx="0" cy="0" r="3.5"/>
                <g id="zoomPlus">
                        <use xlink:href="#rim" fill="#404040">
                                <set attributeName="fill" to="#808080" begin="zoomplus.mouseover" end="zoomplus.mouseout"/>
                        </use>
                        <path d="M-4,0h8M0,-4v8" fill="none" stroke="white" stroke-width="1.5" pointer-events="none"/>
                </g>
                <g id="zoomMin">
                        <use xlink:href="#rim" fill="#404040">
                                <set attributeName="fill" to="#808080" begin="zoomminus.mouseover" end="zoomminus.mouseout"/>
                        </use>
                        <path d="M-4,0h8" fill="none" stroke="white" stroke-width="1.5" pointer-events="none"/>
                </g>
                <g id="dirArrow">
                        <path fill="none" stroke="white" stroke-width="1.5" d="M0,-3.0v7 M-2.5,-0.5L0,-3.0L2.5,-0.5"/>
                </g>
               <g id="resetDef">
                       <use xlink:href="#rim2" fill="#404040">
                               <set attributeName="fill" to="#808080" begin="reset.mouseover" end="reset.mouseout"/>
                       </use>
               </g>
        </defs>

<script type="text/javascript">
var viewWidth = 3648;
var viewHeight = 162;
var sectionId = 'dynsection-0';
</script>
<script xlink:href="svgpan.js"/>
<svg id="graph" class="graph">
<g id="viewport">
<title>tools.cc</title>
<polygon fill="white" stroke="transparent" points="-4,4 -4,-158 3643.5,-158 3643.5,4 -4,4"/>
<!-- Node1 -->
<g id="node1" class="node">
<title>Node1</title>
<g id="a_node1"><a xlink:title=" ">
<polygon fill="#bfbfbf" stroke="black" points="1740,-134.5 1740,-153.5 1794,-153.5 1794,-134.5 1740,-134.5"/>
<text text-anchor="middle" x="1767" y="-141.5" font-family="Helvetica,sans-Serif" font-size="10.00">tools.cc</text>
</a>
</g>
</g>
<!-- Node2 -->
<g id="node2" class="node">
<title>Node2</title>
<g id="a_node2"><a xlink:href="tools_8h.html" target="_top" xlink:title=" ">
<polygon fill="white" stroke="black" points="119,-67.5 119,-86.5 225,-86.5 225,-67.5 119,-67.5"/>
<text text-anchor="middle" x="172" y="-74.5" font-family="Helvetica,sans-Serif" font-size="10.00">integration/tools.h</text>
</a>
</g>
</g>
<!-- Node1&#45;&gt;Node2 -->
<g id="edge1" class="edge">
<title>Node1&#45;&gt;Node2</title>
<path fill="none" stroke="midnightblue" d="M1739.94,-142.67C1547.39,-140.23 387.91,-124.53 234,-98 223.74,-96.23 212.85,-93.15 203.1,-89.93"/>
<polygon fill="midnightblue" stroke="midnightblue" points="204.02,-86.54 193.43,-86.57 201.73,-93.16 204.02,-86.54"/>
</g>
<!-- Node8 -->
<g id="node8" class="node">
<title>Node8</title>
<g id="a_node8"><a xlink:title=" ">
<polygon fill="white" stroke="#bfbfbf" points="243,-67.5 243,-86.5 281,-86.5 281,-67.5 243,-67.5"/>
<text text-anchor="middle" x="262" y="-74.5" font-family="Helvetica,sans-Serif" font-size="10.00">map</text>
</a>
</g>
</g>
<!-- Node1&#45;&gt;Node8 -->
<g id="edge7" class="edge">
<title>Node1&#45;&gt;Node8</title>
<path fill="none" stroke="midnightblue" d="M1739.94,-143.09C1551.09,-143.63 433.65,-144.82 291,-98 287.06,-96.71 283.17,-94.7 279.59,-92.44"/>
<polygon fill="midnightblue" stroke="midnightblue" points="281.6,-89.57 271.43,-86.58 277.51,-95.26 281.6,-89.57"/>
</g>
<!-- Node9 -->
<g id="node9" class="node">
<title>Node9</title>
<g id="a_node9"><a xlink:title=" ">
<polygon fill="white" stroke="#bfbfbf" points="299.5,-62 299.5,-92 440.5,-92 440.5,-62 299.5,-62"/>
<text text-anchor="start" x="307.5" y="-80" font-family="Helvetica,sans-Serif" font-size="10.00">maliput/base/intersection</text>
<text text-anchor="middle" x="370" y="-69" font-family="Helvetica,sans-Serif" font-size="10.00">_book.h</text>
</a>
</g>
</g>
<!-- Node1&#45;&gt;Node9 -->
<g id="edge8" class="edge">
<title>Node1&#45;&gt;Node9</title>
<path fill="none" stroke="midnightblue" d="M1739.8,-142.85C1575.31,-141.83 711.95,-134.8 450,-98 443.24,-97.05 436.22,-95.76 429.27,-94.29"/>
<polygon fill="midnightblue" stroke="midnightblue" points="429.71,-90.8 419.18,-92.02 428.17,-97.63 429.71,-90.8"/>
</g>
<!-- Node10 -->
<g id="node10" class="node">
<title>Node10</title>
<g id="a_node10"><a xlink:href="../../maliput/html/intersection__book__loader_8h.html.html" xlink:title=" ">
<polygon fill="white" stroke="black" points="458.5,-62 458.5,-92 599.5,-92 599.5,-62 458.5,-62"/>
<text text-anchor="start" x="466.5" y="-80" font-family="Helvetica,sans-Serif" font-size="10.00">maliput/base/intersection</text>
<text text-anchor="middle" x="529" y="-69" font-family="Helvetica,sans-Serif" font-size="10.00">_book_loader.h</text>
</a>
</g>
</g>
<!-- Node1&#45;&gt;Node10 -->
<g id="edge9" class="edge">
<title>Node1&#45;&gt;Node10</title>
<path fill="none" stroke="midnightblue" d="M1739.69,-142.7C1586.98,-140.93 837.55,-130.65 609,-98 602.33,-97.05 595.42,-95.77 588.57,-94.32"/>
<polygon fill="midnightblue" stroke="midnightblue" points="589.14,-90.86 578.62,-92.09 587.61,-97.69 589.14,-90.86"/>
</g>
<!-- Node11 -->
<g id="node11" class="node">
<title>Node11</title>
<g id="a_node11"><a xlink:href="../../maliput/html/manual__discrete__value__rule__state__provider_8h.html.html" xlink:title=" ">
<polygon fill="white" stroke="black" points="618,-56.5 618,-97.5 738,-97.5 738,-56.5 618,-56.5"/>
<text text-anchor="start" x="626" y="-85.5" font-family="Helvetica,sans-Serif" font-size="10.00">maliput/base/manual</text>
<text text-anchor="start" x="626" y="-74.5" font-family="Helvetica,sans-Serif" font-size="10.00">_discrete_value_rule</text>
<text text-anchor="middle" x="678" y="-63.5" font-family="Helvetica,sans-Serif" font-size="10.00">_state_provider.h</text>
</a>
</g>
</g>
<!-- Node1&#45;&gt;Node11 -->
<g id="edge10" class="edge">
<title>Node1&#45;&gt;Node11</title>
<path fill="none" stroke="midnightblue" d="M1739.75,-142.67C1600.47,-140.88 966.42,-131.09 748.1,-97.91"/>
<polygon fill="midnightblue" stroke="midnightblue" points="748.44,-94.42 738.02,-96.31 747.35,-101.33 748.44,-94.42"/>
</g>
<!-- Node12 -->
<g id="node12" class="node">
<title>Node12</title>
<g id="a_node12"><a xlink:href="../../maliput/html/manual__phase__provider_8h.html.html" xlink:title=" ">
<polygon fill="white" stroke="black" points="756,-62 756,-92 876,-92 876,-62 756,-62"/>
<text text-anchor="start" x="764" y="-80" font-family="Helvetica,sans-Serif" font-size="10.00">maliput/base/manual</text>
<text text-anchor="middle" x="816" y="-69" font-family="Helvetica,sans-Serif" font-size="10.00">_phase_provider.h</text>
</a>
</g>
</g>
<!-- Node1&#45;&gt;Node12 -->
<g id="edge11" class="edge">
<title>Node1&#45;&gt;Node12</title>
<path fill="none" stroke="midnightblue" d="M1739.68,-142.46C1609.98,-139.75 1055.48,-126.66 885,-98 879.62,-97.1 874.06,-95.92 868.55,-94.58"/>
<polygon fill="midnightblue" stroke="midnightblue" points="869.27,-91.15 858.71,-92.04 867.52,-97.93 869.27,-91.15"/>
</g>
<!-- Node13 -->
<g id="node13" class="node">
<title>Node13</title>
<g id="a_node13"><a xlink:href="../../maliput/html/manual__phase__ring__book_8h.html.html" xlink:title=" ">
<polygon fill="white" stroke="black" points="894,-62 894,-92 1014,-92 1014,-62 894,-62"/>
<text text-anchor="start" x="902" y="-80" font-family="Helvetica,sans-Serif" font-size="10.00">maliput/base/manual</text>
<text text-anchor="middle" x="954" y="-69" font-family="Helvetica,sans-Serif" font-size="10.00">_phase_ring_book.h</text>
</a>
</g>
</g>
<!-- Node1&#45;&gt;Node13 -->
<g id="edge12" class="edge">
<title>Node1&#45;&gt;Node13</title>
<path fill="none" stroke="midnightblue" d="M1739.72,-143.52C1641.89,-144.92 1299.7,-145.86 1023,-98 1017.7,-97.08 1012.23,-95.91 1006.79,-94.59"/>
<polygon fill="midnightblue" stroke="midnightblue" points="1007.65,-91.19 997.09,-92.08 1005.89,-97.97 1007.65,-91.19"/>
</g>
<!-- Node14 -->
<g id="node14" class="node">
<title>Node14</title>
<g id="a_node14"><a xlink:href="../../maliput/html/manual__range__value__rule__state__provider_8h.html.html" xlink:title=" ">
<polygon fill="white" stroke="black" points="1032,-56.5 1032,-97.5 1168,-97.5 1168,-56.5 1032,-56.5"/>
<text text-anchor="start" x="1040" y="-85.5" font-family="Helvetica,sans-Serif" font-size="10.00">maliput/base/manual</text>
<text text-anchor="start" x="1040" y="-74.5" font-family="Helvetica,sans-Serif" font-size="10.00">_range_value_rule_state</text>
<text text-anchor="middle" x="1100" y="-63.5" font-family="Helvetica,sans-Serif" font-size="10.00">_provider.h</text>
</a>
</g>
</g>
<!-- Node1&#45;&gt;Node14 -->
<g id="edge13" class="edge">
<title>Node1&#45;&gt;Node14</title>
<path fill="none" stroke="midnightblue" d="M1739.79,-142.61C1656.9,-141.06 1400.18,-133.64 1178.22,-97.86"/>
<polygon fill="midnightblue" stroke="midnightblue" points="1178.77,-94.4 1168.34,-96.24 1177.64,-101.31 1178.77,-94.4"/>
</g>
<!-- Node15 -->
<g id="node15" class="node">
<title>Node15</title>
<g id="a_node15"><a xlink:href="../../maliput/html/manual__right__of__way__rule__state__provider_8h.html.html" xlink:title=" ">
<polygon fill="white" stroke="black" points="1186.5,-56.5 1186.5,-97.5 1325.5,-97.5 1325.5,-56.5 1186.5,-56.5"/>
<text text-anchor="start" x="1194.5" y="-85.5" font-family="Helvetica,sans-Serif" font-size="10.00">maliput/base/manual</text>
<text text-anchor="start" x="1194.5" y="-74.5" font-family="Helvetica,sans-Serif" font-size="10.00">_right_of_way_rule_state</text>
<text text-anchor="middle" x="1256" y="-63.5" font-family="Helvetica,sans-Serif" font-size="10.00">_provider.h</text>
</a>
</g>
</g>
<!-- Node1&#45;&gt;Node15 -->
<g id="edge14" class="edge">
<title>Node1&#45;&gt;Node15</title>
<path fill="none" stroke="midnightblue" d="M1739.52,-141.52C1672.26,-137.59 1493.97,-125.43 1335.59,-97.96"/>
<polygon fill="midnightblue" stroke="midnightblue" points="1336.12,-94.5 1325.67,-96.22 1334.91,-101.4 1336.12,-94.5"/>
</g>
<!-- Node16 -->
<g id="node16" class="node">
<title>Node16</title>
<g id="a_node16"><a xlink:href="../../maliput/html/manual__rulebook_8h.html.html" xlink:title=" ">
<polygon fill="white" stroke="black" points="1344,-62 1344,-92 1464,-92 1464,-62 1344,-62"/>
<text text-anchor="start" x="1352" y="-80" font-family="Helvetica,sans-Serif" font-size="10.00">maliput/base/manual</text>
<text text-anchor="middle" x="1404" y="-69" font-family="Helvetica,sans-Serif" font-size="10.00">_rulebook.h</text>
</a>
</g>
</g>
<!-- Node1&#45;&gt;Node16 -->
<g id="edge15" class="edge">
<title>Node1&#45;&gt;Node16</title>
<path fill="none" stroke="midnightblue" d="M1739.72,-139.97C1687.68,-133.95 1570.78,-119.17 1474,-98 1469.38,-96.99 1464.62,-95.85 1459.85,-94.63"/>
<polygon fill="midnightblue" stroke="midnightblue" points="1460.67,-91.23 1450.1,-92.06 1458.88,-98 1460.67,-91.23"/>
</g>
<!-- Node17 -->
<g id="node17" class="node">
<title>Node17</title>
<g id="a_node17"><a xlink:href="../../maliput/html/phase__ring__book__loader_8h.html.html" xlink:title=" ">
<polygon fill="white" stroke="black" points="1482.5,-62 1482.5,-92 1597.5,-92 1597.5,-62 1482.5,-62"/>
<text text-anchor="start" x="1490.5" y="-80" font-family="Helvetica,sans-Serif" font-size="10.00">maliput/base/phase</text>
<text text-anchor="middle" x="1540" y="-69" font-family="Helvetica,sans-Serif" font-size="10.00">_ring_book_loader.h</text>
</a>
</g>
</g>
<!-- Node1&#45;&gt;Node17 -->
<g id="edge16" class="edge">
<title>Node1&#45;&gt;Node17</title>
<path fill="none" stroke="midnightblue" d="M1739.78,-135.49C1707.92,-126.66 1653.56,-111.5 1607,-98 1603.63,-97.02 1600.17,-96.01 1596.69,-94.99"/>
<polygon fill="midnightblue" stroke="midnightblue" points="1597.41,-91.55 1586.83,-92.08 1595.43,-98.27 1597.41,-91.55"/>
</g>
<!-- Node18 -->
<g id="node18" class="node">
<title>Node18</title>
<g id="a_node18"><a xlink:href="../../maliput/html/road__rulebook__loader_8h.html.html" xlink:title=" ">
<polygon fill="white" stroke="black" points="1615.5,-62 1615.5,-92 1768.5,-92 1768.5,-62 1615.5,-62"/>
<text text-anchor="start" x="1623.5" y="-80" font-family="Helvetica,sans-Serif" font-size="10.00">maliput/base/road_rulebook</text>
<text text-anchor="middle" x="1692" y="-69" font-family="Helvetica,sans-Serif" font-size="10.00">_loader.h</text>
</a>
</g>
</g>
<!-- Node1&#45;&gt;Node18 -->
<g id="edge17" class="edge">
<title>Node1&#45;&gt;Node18</title>
<path fill="none" stroke="midnightblue" d="M1756.89,-134.23C1746.46,-125.2 1729.82,-110.77 1716,-98.8"/>
<polygon fill="midnightblue" stroke="midnightblue" points="1718.11,-95.99 1708.26,-92.09 1713.52,-101.28 1718.11,-95.99"/>
</g>
<!-- Node19 -->
<g id="node19" class="node">
<title>Node19</title>
<g id="a_node19"><a xlink:title=" ">
<polygon fill="white" stroke="#bfbfbf" points="1786.5,-62 1786.5,-92 1899.5,-92 1899.5,-62 1786.5,-62"/>
<text text-anchor="start" x="1794.5" y="-80" font-family="Helvetica,sans-Serif" font-size="10.00">maliput/base/traffic</text>
<text text-anchor="middle" x="1843" y="-69" font-family="Helvetica,sans-Serif" font-size="10.00">_light_book.h</text>
</a>
</g>
</g>
<!-- Node1&#45;&gt;Node19 -->
<g id="edge18" class="edge">
<title>Node1&#45;&gt;Node19</title>
<path fill="none" stroke="midnightblue" d="M1777.25,-134.23C1787.82,-125.2 1804.68,-110.77 1818.68,-98.8"/>
<polygon fill="midnightblue" stroke="midnightblue" points="1821.2,-101.25 1826.53,-92.09 1816.65,-95.93 1821.2,-101.25"/>
</g>
<!-- Node20 -->
<g id="node20" class="node">
<title>Node20</title>
<g id="a_node20"><a xlink:href="../../maliput/html/traffic__light__book__loader_8h.html.html" xlink:title=" ">
<polygon fill="white" stroke="black" points="1918,-62 1918,-92 2036,-92 2036,-62 1918,-62"/>
<text text-anchor="start" x="1926" y="-80" font-family="Helvetica,sans-Serif" font-size="10.00">maliput/base/traffic</text>
<text text-anchor="middle" x="1977" y="-69" font-family="Helvetica,sans-Serif" font-size="10.00">_light_book_loader.h</text>
</a>
</g>
</g>
<!-- Node1&#45;&gt;Node20 -->
<g id="edge19" class="edge">
<title>Node1&#45;&gt;Node20</title>
<path fill="none" stroke="midnightblue" d="M1794.02,-134.64C1826.23,-124.67 1880.85,-107.76 1922.05,-95.01"/>
<polygon fill="midnightblue" stroke="midnightblue" points="1923.16,-98.33 1931.68,-92.03 1921.09,-91.64 1923.16,-98.33"/>
</g>
<!-- Node21 -->
<g id="node21" class="node">
<title>Node21</title>
<g id="a_node21"><a xlink:href="../../maliput/html/filesystem_8h.html.html" xlink:title=" ">
<polygon fill="white" stroke="black" points="2054,-67.5 2054,-86.5 2218,-86.5 2218,-67.5 2054,-67.5"/>
<text text-anchor="middle" x="2136" y="-74.5" font-family="Helvetica,sans-Serif" font-size="10.00">maliput/common/filesystem.h</text>
</a>
</g>
</g>
<!-- Node1&#45;&gt;Node21 -->
<g id="edge20" class="edge">
<title>Node1&#45;&gt;Node21</title>
<path fill="none" stroke="midnightblue" d="M1794.32,-139.1C1844.24,-131.85 1953.51,-115.44 2045,-98 2059.45,-95.25 2075.11,-91.92 2089.31,-88.79"/>
<polygon fill="midnightblue" stroke="midnightblue" points="2090.35,-92.14 2099.35,-86.55 2088.82,-85.31 2090.35,-92.14"/>
</g>
<!-- Node22 -->
<g id="node22" class="node">
<title>Node22</title>
<g id="a_node22"><a xlink:href="../../maliput/html/logger_8h.html.html" xlink:title=" ">
<polygon fill="white" stroke="black" points="2236.5,-67.5 2236.5,-86.5 2379.5,-86.5 2379.5,-67.5 2236.5,-67.5"/>
<text text-anchor="middle" x="2308" y="-74.5" font-family="Helvetica,sans-Serif" font-size="10.00">maliput/common/logger.h</text>
</a>
</g>
</g>
<!-- Node1&#45;&gt;Node22 -->
<g id="edge21" class="edge">
<title>Node1&#45;&gt;Node22</title>
<path fill="none" stroke="midnightblue" d="M1794.14,-141.72C1865.5,-138.05 2064.08,-125.93 2227,-98 2240.41,-95.7 2254.87,-92.4 2267.82,-89.14"/>
<polygon fill="midnightblue" stroke="midnightblue" points="2269.03,-92.44 2277.83,-86.55 2267.27,-85.66 2269.03,-92.44"/>
</g>
<!-- Node23 -->
<g id="node23" class="node">
<title>Node23</title>
<g id="a_node23"><a xlink:href="../../maliput/html/maliput__abort_8h.html.html" xlink:title=" ">
<polygon fill="white" stroke="black" points="2398,-62 2398,-92 2538,-92 2538,-62 2398,-62"/>
<text text-anchor="start" x="2406" y="-80" font-family="Helvetica,sans-Serif" font-size="10.00">maliput/common/maliput</text>
<text text-anchor="middle" x="2468" y="-69" font-family="Helvetica,sans-Serif" font-size="10.00">_abort.h</text>
</a>
</g>
</g>
<!-- Node1&#45;&gt;Node23 -->
<g id="edge22" class="edge">
<title>Node1&#45;&gt;Node23</title>
<path fill="none" stroke="midnightblue" d="M1794.17,-142.73C1881.27,-141.52 2161.07,-134.8 2389,-98 2395.23,-96.99 2401.69,-95.73 2408.11,-94.33"/>
<polygon fill="midnightblue" stroke="midnightblue" points="2409.16,-97.68 2418.13,-92.04 2407.6,-90.86 2409.16,-97.68"/>
</g>
<!-- Node24 -->
<g id="node24" class="node">
<title>Node24</title>
<g id="a_node24"><a xlink:href="../../maliput_dragway/html/road__geometry_8h.html.html" xlink:title=" ">
<polygon fill="white" stroke="black" points="2556,-62 2556,-92 2682,-92 2682,-62 2556,-62"/>
<text text-anchor="start" x="2564" y="-80" font-family="Helvetica,sans-Serif" font-size="10.00">maliput_dragway/road</text>
<text text-anchor="middle" x="2619" y="-69" font-family="Helvetica,sans-Serif" font-size="10.00">_geometry.h</text>
</a>
</g>
</g>
<!-- Node1&#45;&gt;Node24 -->
<g id="edge23" class="edge">
<title>Node1&#45;&gt;Node24</title>
<path fill="none" stroke="midnightblue" d="M1794.29,-142.21C1914.51,-138.59 2397.46,-122.79 2547,-98 2552.52,-97.08 2558.22,-95.91 2563.89,-94.59"/>
<polygon fill="midnightblue" stroke="midnightblue" points="2565.15,-97.89 2574.01,-92.08 2563.46,-91.09 2565.15,-97.89"/>
</g>
<!-- Node25 -->
<g id="node25" class="node">
<title>Node25</title>
<g id="a_node25"><a xlink:href="../../maliput_malidrive/html/road__network__builder_8h.html.html" xlink:title=" ">
<polygon fill="white" stroke="black" points="2700.5,-62 2700.5,-92 2843.5,-92 2843.5,-62 2700.5,-62"/>
<text text-anchor="start" x="2708.5" y="-80" font-family="Helvetica,sans-Serif" font-size="10.00">maliput_malidrive/builder</text>
<text text-anchor="middle" x="2772" y="-69" font-family="Helvetica,sans-Serif" font-size="10.00">/road_network_builder.h</text>
</a>
</g>
</g>
<!-- Node1&#45;&gt;Node25 -->
<g id="edge24" class="edge">
<title>Node1&#45;&gt;Node25</title>
<path fill="none" stroke="midnightblue" d="M1794.25,-142.38C1927.5,-139.27 2511.23,-124.32 2691,-98 2697.74,-97.01 2704.74,-95.71 2711.67,-94.25"/>
<polygon fill="midnightblue" stroke="midnightblue" points="2712.75,-97.6 2721.74,-92.01 2711.22,-90.76 2712.75,-97.6"/>
</g>
<!-- Node26 -->
<g id="node26" class="node">
<title>Node26</title>
<g id="a_node26"><a xlink:href="../../maliput_malidrive/html/constants_8h.html.html" xlink:title=" ">
<polygon fill="white" stroke="black" points="2861.5,-67.5 2861.5,-86.5 3026.5,-86.5 3026.5,-67.5 2861.5,-67.5"/>
<text text-anchor="middle" x="2944" y="-74.5" font-family="Helvetica,sans-Serif" font-size="10.00">maliput_malidrive/constants.h</text>
</a>
</g>
</g>
<!-- Node1&#45;&gt;Node26 -->
<g id="edge25" class="edge">
<title>Node1&#45;&gt;Node26</title>
<path fill="none" stroke="midnightblue" d="M1794.02,-142.52C1940.33,-139.84 2638.96,-125.74 2853,-98 2869.03,-95.92 2886.41,-92.42 2901.65,-88.92"/>
<polygon fill="midnightblue" stroke="midnightblue" points="2902.89,-92.22 2911.81,-86.52 2901.28,-85.41 2902.89,-92.22"/>
</g>
<!-- Node27 -->
<g id="node27" class="node">
<title>Node27</title>
<g id="a_node27"><a xlink:href="../../maliput_malidrive/html/loader_8h.html.html" xlink:title=" ">
<polygon fill="white" stroke="black" points="3045,-62 3045,-92 3185,-92 3185,-62 3045,-62"/>
<text text-anchor="start" x="3053" y="-80" font-family="Helvetica,sans-Serif" font-size="10.00">maliput_malidrive/loader</text>
<text text-anchor="middle" x="3115" y="-69" font-family="Helvetica,sans-Serif" font-size="10.00">/loader.h</text>
</a>
</g>
</g>
<!-- Node1&#45;&gt;Node27 -->
<g id="edge26" class="edge">
<title>Node1&#45;&gt;Node27</title>
<path fill="none" stroke="midnightblue" d="M1794.25,-142.82C1955.31,-141.65 2784.2,-133.92 3036,-98 3042.68,-97.05 3049.62,-95.75 3056.48,-94.28"/>
<polygon fill="midnightblue" stroke="midnightblue" points="3057.46,-97.65 3066.44,-92.02 3055.91,-90.82 3057.46,-97.65"/>
</g>
<!-- Node28 -->
<g id="node28" class="node">
<title>Node28</title>
<g id="a_node28"><a xlink:href="../../maliput_multilane/html/builder_8h.html.html" xlink:title=" ">
<polygon fill="white" stroke="black" points="3203,-67.5 3203,-86.5 3355,-86.5 3355,-67.5 3203,-67.5"/>
<text text-anchor="middle" x="3279" y="-74.5" font-family="Helvetica,sans-Serif" font-size="10.00">maliput_multilane/builder.h</text>
</a>
</g>
</g>
<!-- Node1&#45;&gt;Node28 -->
<g id="edge27" class="edge">
<title>Node1&#45;&gt;Node28</title>
<path fill="none" stroke="midnightblue" d="M1794.2,-142.88C1966.55,-142.03 2908.64,-135.69 3194,-98 3209,-96.02 3225.22,-92.54 3239.43,-89.04"/>
<polygon fill="midnightblue" stroke="midnightblue" points="3240.55,-92.37 3249.37,-86.51 3238.82,-85.58 3240.55,-92.37"/>
</g>
<!-- Node29 -->
<g id="node29" class="node">
<title>Node29</title>
<g id="a_node29"><a xlink:href="../../maliput_multilane/html/loader_8h.html.html" xlink:title=" ">
<polygon fill="white" stroke="black" points="3373.5,-67.5 3373.5,-86.5 3522.5,-86.5 3522.5,-67.5 3373.5,-67.5"/>
<text text-anchor="middle" x="3448" y="-74.5" font-family="Helvetica,sans-Serif" font-size="10.00">maliput_multilane/loader.h</text>
</a>
</g>
</g>
<!-- Node1&#45;&gt;Node29 -->
<g id="edge28" class="edge">
<title>Node1&#45;&gt;Node29</title>
<path fill="none" stroke="midnightblue" d="M1794.11,-143C1977.81,-142.87 3042.77,-140.31 3364,-98 3378.83,-96.05 3394.86,-92.58 3408.9,-89.07"/>
<polygon fill="midnightblue" stroke="midnightblue" points="3409.92,-92.42 3418.73,-86.53 3408.17,-85.64 3409.92,-92.42"/>
</g>
<!-- Node30 -->
<g id="node30" class="node">
<title>Node30</title>
<g id="a_node30"><a xlink:title=" ">
<polygon fill="white" stroke="#bfbfbf" points="3540.5,-67.5 3540.5,-86.5 3639.5,-86.5 3639.5,-67.5 3540.5,-67.5"/>
<text text-anchor="middle" x="3590" y="-74.5" font-family="Helvetica,sans-Serif" font-size="10.00">yaml&#45;cpp/yaml.h</text>
</a>
</g>
</g>
<!-- Node1&#45;&gt;Node30 -->
<g id="edge29" class="edge">
<title>Node1&#45;&gt;Node30</title>
<path fill="none" stroke="midnightblue" d="M1794.04,-142.81C2002.77,-141.28 3353.94,-130.18 3532,-98 3541.44,-96.29 3551.42,-93.31 3560.39,-90.16"/>
<polygon fill="midnightblue" stroke="midnightblue" points="3561.85,-93.35 3570.01,-86.6 3559.41,-86.79 3561.85,-93.35"/>
</g>
<!-- Node3 -->
<g id="node3" class="node">
<title>Node3</title>
<g id="a_node3"><a xlink:title=" ">
<polygon fill="white" stroke="#bfbfbf" points="0,-0.5 0,-19.5 58,-19.5 58,-0.5 0,-0.5"/>
<text text-anchor="middle" x="29" y="-7.5" font-family="Helvetica,sans-Serif" font-size="10.00">memory</text>
</a>
</g>
</g>
<!-- Node2&#45;&gt;Node3 -->
<g id="edge2" class="edge">
<title>Node2&#45;&gt;Node3</title>
<path fill="none" stroke="midnightblue" d="M153.01,-67.37C128.54,-56.25 85.8,-36.82 57.44,-23.93"/>
<polygon fill="midnightblue" stroke="midnightblue" points="58.62,-20.62 48.07,-19.67 55.72,-26.99 58.62,-20.62"/>
</g>
<!-- Node4 -->
<g id="node4" class="node">
<title>Node4</title>
<g id="a_node4"><a xlink:title=" ">
<polygon fill="white" stroke="#bfbfbf" points="76,-0.5 76,-19.5 132,-19.5 132,-0.5 76,-0.5"/>
<text text-anchor="middle" x="104" y="-7.5" font-family="Helvetica,sans-Serif" font-size="10.00">optional</text>
</a>
</g>
</g>
<!-- Node2&#45;&gt;Node4 -->
<g id="edge3" class="edge">
<title>Node2&#45;&gt;Node4</title>
<path fill="none" stroke="midnightblue" d="M162.83,-67.23C152.02,-56.9 133.85,-39.54 120.56,-26.83"/>
<polygon fill="midnightblue" stroke="midnightblue" points="122.67,-24.01 113.03,-19.63 117.84,-29.07 122.67,-24.01"/>
</g>
<!-- Node5 -->
<g id="node5" class="node">
<title>Node5</title>
<g id="a_node5"><a xlink:title=" ">
<polygon fill="white" stroke="#bfbfbf" points="150,-0.5 150,-19.5 194,-19.5 194,-0.5 150,-0.5"/>
<text text-anchor="middle" x="172" y="-7.5" font-family="Helvetica,sans-Serif" font-size="10.00">string</text>
</a>
</g>
</g>
<!-- Node2&#45;&gt;Node5 -->
<g id="edge4" class="edge">
<title>Node2&#45;&gt;Node5</title>
<path fill="none" stroke="midnightblue" d="M172,-67.23C172,-57.68 172,-42.12 172,-29.78"/>
<polygon fill="midnightblue" stroke="midnightblue" points="175.5,-29.63 172,-19.63 168.5,-29.63 175.5,-29.63"/>
</g>
<!-- Node6 -->
<g id="node6" class="node">
<title>Node6</title>
<g id="a_node6"><a xlink:title=" ">
<polygon fill="white" stroke="#bfbfbf" points="212.5,-0.5 212.5,-19.5 369.5,-19.5 369.5,-0.5 212.5,-0.5"/>
<text text-anchor="middle" x="291" y="-7.5" font-family="Helvetica,sans-Serif" font-size="10.00">maliput/api/road_geometry.h</text>
</a>
</g>
</g>
<!-- Node2&#45;&gt;Node6 -->
<g id="edge5" class="edge">
<title>Node2&#45;&gt;Node6</title>
<path fill="none" stroke="midnightblue" d="M188.05,-67.23C208.12,-56.27 242.7,-37.38 266.19,-24.55"/>
<polygon fill="midnightblue" stroke="midnightblue" points="268.11,-27.49 275.21,-19.63 264.75,-21.35 268.11,-27.49"/>
</g>
<!-- Node7 -->
<g id="node7" class="node">
<title>Node7</title>
<g id="a_node7"><a xlink:href="../../maliput/html/road__network_8h.html.html" xlink:title=" ">
<polygon fill="white" stroke="black" points="387.5,-0.5 387.5,-19.5 538.5,-19.5 538.5,-0.5 387.5,-0.5"/>
<text text-anchor="middle" x="463" y="-7.5" font-family="Helvetica,sans-Serif" font-size="10.00">maliput/api/road_network.h</text>
</a>
</g>
</g>
<!-- Node2&#45;&gt;Node7 -->
<g id="edge6" class="edge">
<title>Node2&#45;&gt;Node7</title>
<path fill="none" stroke="midnightblue" d="M196.25,-67.45C207.62,-63.62 221.41,-59.26 234,-56 289.73,-41.59 354.14,-29.31 400.42,-21.24"/>
<polygon fill="midnightblue" stroke="midnightblue" points="401.05,-24.69 410.31,-19.53 399.86,-17.79 401.05,-24.69"/>
</g>
</g>
</svg>
        <g id="navigator" transform="translate(0 0)" fill="#404254">
                <rect fill="#f2f5e9" fill-opacity="0.5" stroke="#606060" stroke-width=".5" x="0" y="0" width="60" height="60"/>
                <use id="zoomplus" xlink:href="#zoomPlus" x="17" y="9" onmousedown="handleZoom(evt,'in')"/>
                <use id="zoomminus" xlink:href="#zoomMin" x="42" y="9" onmousedown="handleZoom(evt,'out')"/>
                <use id="reset" xlink:href="#resetDef" x="30" y="36" onmousedown="handleReset()"/>
                <g id="arrowUp" xlink:href="#dirArrow" transform="translate(30 24)" onmousedown="handlePan(0,-1)">
                  <use xlink:href="#rim" fill="#404040">
                        <set attributeName="fill" to="#808080" begin="arrowUp.mouseover" end="arrowUp.mouseout"/>
                  </use>
                  <path fill="none" stroke="white" stroke-width="1.5" d="M0,-3.0v7 M-2.5,-0.5L0,-3.0L2.5,-0.5"/>
                </g>
                <g id="arrowRight" xlink:href="#dirArrow" transform="rotate(90) translate(36 -43)" onmousedown="handlePan(1,0)">
                  <use xlink:href="#rim" fill="#404040">
                        <set attributeName="fill" to="#808080" begin="arrowRight.mouseover" end="arrowRight.mouseout"/>
                  </use>
                  <path fill="none" stroke="white" stroke-width="1.5" d="M0,-3.0v7 M-2.5,-0.5L0,-3.0L2.5,-0.5"/>
                </g>
                <g id="arrowDown" xlink:href="#dirArrow" transform="rotate(180) translate(-30 -48)" onmousedown="handlePan(0,1)">
                  <use xlink:href="#rim" fill="#404040">
                        <set attributeName="fill" to="#808080" begin="arrowDown.mouseover" end="arrowDown.mouseout"/>
                  </use>
                  <path fill="none" stroke="white" stroke-width="1.5" d="M0,-3.0v7 M-2.5,-0.5L0,-3.0L2.5,-0.5"/>
                </g>
                <g id="arrowLeft" xlink:href="#dirArrow" transform="rotate(270) translate(-36 17)" onmousedown="handlePan(-1,0)">
                  <use xlink:href="#rim" fill="#404040">
                        <set attributeName="fill" to="#808080" begin="arrowLeft.mouseover" end="arrowLeft.mouseout"/>
                  </use>
                  <path fill="none" stroke="white" stroke-width="1.5" d="M0,-3.0v7 M-2.5,-0.5L0,-3.0L2.5,-0.5"/>
                </g>
        </g>
        <svg viewBox="0 0 15 15" width="100%" height="30px" preserveAspectRatio="xMaxYMin meet">
         <g id="arrow_out" transform="scale(0.3 0.3)">
          <a xlink:href="tools_8cc__incl_org.svg" target="_base">
           <rect id="button" ry="5" rx="5" y="6" x="6" height="38" width="38"
                fill="#f2f5e9" fill-opacity="0.5" stroke="#606060" stroke-width="1.0"/>
           <path id="arrow"
             d="M 11.500037,31.436501 C 11.940474,20.09759 22.043105,11.32322 32.158766,21.979434 L 37.068811,17.246167 C 37.068811,17.246167 37.088388,32 37.088388,32 L 22.160133,31.978069 C 22.160133,31.978069 26.997745,27.140456 26.997745,27.140456 C 18.528582,18.264221 13.291696,25.230495 11.500037,31.436501 z"
             style="fill:#404040;"/>
          </a>
         </g>
        </svg>
</svg>
