<?xml version="1.0" encoding="UTF-8" standalone="no"?>
<!DOCTYPE svg PUBLIC "-//W3C//DTD SVG 1.1//EN"
 "http://www.w3.org/Graphics/SVG/1.1/DTD/svg11.dtd">
<!-- Generated by graphviz version 2.43.0 (0)
 -->
<!-- Title: lane.h Pages: 1 -->
<!--zoomable 430 -->
<svg id="main" version="1.1" xmlns="http://www.w3.org/2000/svg" xmlns:xlink="http://www.w3.org/1999/xlink" xml:space="preserve" onload="init(evt)">
<style type="text/css"><![CDATA[
.edge:hover path { stroke: red; }
.edge:hover polygon { stroke: red; fill: red; }
]]></style>
<script type="text/javascript"><![CDATA[
var edges = document.getElementsByTagName('g');
if (edges && edges.length) {
  for (var i=0;i<edges.length;i++) {
    if (edges[i].id.substr(0,4)=='edge') {
      edges[i].setAttribute('class','edge');
    }
  }
}
]]></script>
        <defs>
                <circle id="rim" cx="0" cy="0" r="7"/>
                <circle id="rim2" cx="0" cy="0" r="3.5"/>
                <g id="zoomPlus">
                        <use xlink:href="#rim" fill="#404040">
                                <set attributeName="fill" to="#808080" begin="zoomplus.mouseover" end="zoomplus.mouseout"/>
                        </use>
                        <path d="M-4,0h8M0,-4v8" fill="none" stroke="white" stroke-width="1.5" pointer-events="none"/>
                </g>
                <g id="zoomMin">
                        <use xlink:href="#rim" fill="#404040">
                                <set attributeName="fill" to="#808080" begin="zoomminus.mouseover" end="zoomminus.mouseout"/>
                        </use>
                        <path d="M-4,0h8" fill="none" stroke="white" stroke-width="1.5" pointer-events="none"/>
                </g>
                <g id="dirArrow">
                        <path fill="none" stroke="white" stroke-width="1.5" d="M0,-3.0v7 M-2.5,-0.5L0,-3.0L2.5,-0.5"/>
                </g>
               <g id="resetDef">
                       <use xlink:href="#rim2" fill="#404040">
                               <set attributeName="fill" to="#808080" begin="reset.mouseover" end="reset.mouseout"/>
                       </use>
               </g>
        </defs>

<script type="text/javascript">
var viewWidth = 1615;
var viewHeight = 430;
var sectionId = 'dynsection-0';
</script>
<script xlink:href="svgpan.js"/>
<svg id="graph" class="graph">
<g id="viewport">
<title>lane.h</title>
<polygon fill="white" stroke="transparent" points="-4,4 -4,-426 1611.39,-426 1611.39,4 -4,4"/>
<!-- Node1 -->
<g id="node1" class="node">
<title>Node1</title>
<g id="a_node1"><a xlink:title=" ">
<polygon fill="#bfbfbf" stroke="black" points="802.39,-402.5 802.39,-421.5 849.39,-421.5 849.39,-402.5 802.39,-402.5"/>
<text text-anchor="middle" x="825.89" y="-409.5" font-family="Helvetica,sans-Serif" font-size="10.00">lane.h</text>
</a>
</g>
</g>
<!-- Node2 -->
<g id="node2" class="node">
<title>Node2</title>
<g id="a_node2"><a xlink:title=" ">
<polygon fill="white" stroke="#bfbfbf" points="477.89,-207 477.89,-226 535.89,-226 535.89,-207 477.89,-207"/>
<text text-anchor="middle" x="506.89" y="-214" font-family="Helvetica,sans-Serif" font-size="10.00">memory</text>
</a>
</g>
</g>
<!-- Node1&#45;&gt;Node2 -->
<g id="edge1" class="edge">
<title>Node1&#45;&gt;Node2</title>
<path fill="none" stroke="midnightblue" d="M811.77,-402.44C761.65,-372.03 591.97,-269.11 529.89,-231.45"/>
<polygon fill="midnightblue" stroke="midnightblue" points="531.57,-228.38 521.21,-226.18 527.94,-234.36 531.57,-228.38"/>
</g>
<!-- Node3 -->
<g id="node3" class="node">
<title>Node3</title>
<g id="a_node3"><a xlink:href="../../maliput/html/lane__data_8h.html.html" xlink:title=" ">
<polygon fill="white" stroke="black" points="1323.89,-341 1323.89,-360 1455.89,-360 1455.89,-341 1323.89,-341"/>
<text text-anchor="middle" x="1389.89" y="-348" font-family="Helvetica,sans-Serif" font-size="10.00">maliput/api/lane_data.h</text>
</a>
</g>
</g>
<!-- Node1&#45;&gt;Node3 -->
<g id="edge2" class="edge">
<title>Node1&#45;&gt;Node3</title>
<path fill="none" stroke="midnightblue" d="M849.64,-409.52C920.08,-404.99 1133.89,-390.09 1309.89,-366 1318.63,-364.8 1327.87,-363.33 1336.84,-361.78"/>
<polygon fill="midnightblue" stroke="midnightblue" points="1337.58,-365.2 1346.82,-360.01 1336.36,-358.31 1337.58,-365.2"/>
</g>
<!-- Node4 -->
<g id="node4" class="node">
<title>Node4</title>
<g id="a_node4"><a xlink:title=" ">
<polygon fill="white" stroke="#bfbfbf" points="1474.39,-335.5 1474.39,-365.5 1607.39,-365.5 1607.39,-335.5 1474.39,-335.5"/>
<text text-anchor="start" x="1482.39" y="-353.5" font-family="Helvetica,sans-Serif" font-size="10.00">maliput/geometry_base</text>
<text text-anchor="middle" x="1540.89" y="-342.5" font-family="Helvetica,sans-Serif" font-size="10.00">/lane.h</text>
</a>
</g>
</g>
<!-- Node1&#45;&gt;Node4 -->
<g id="edge3" class="edge">
<title>Node1&#45;&gt;Node4</title>
<path fill="none" stroke="midnightblue" d="M849.49,-410.34C932.36,-407.83 1217.9,-397.4 1464.02,-366"/>
<polygon fill="midnightblue" stroke="midnightblue" points="1464.76,-369.43 1474.23,-364.68 1463.87,-362.49 1464.76,-369.43"/>
</g>
<!-- Node5 -->
<g id="node5" class="node">
<title>Node5</title>
<g id="a_node5"><a xlink:href="../../maliput/html/vector_8h.html.html" xlink:title=" ">
<polygon fill="white" stroke="black" points="972.39,-140 972.39,-159 1097.39,-159 1097.39,-140 972.39,-140"/>
<text text-anchor="middle" x="1034.89" y="-147" font-family="Helvetica,sans-Serif" font-size="10.00">maliput/math/vector.h</text>
</a>
</g>
</g>
<!-- Node1&#45;&gt;Node5 -->
<g id="edge4" class="edge">
<title>Node1&#45;&gt;Node5</title>
<path fill="none" stroke="midnightblue" d="M823.98,-402.48C819.02,-377.87 808.48,-305.96 844.89,-268 908.92,-201.24 990.4,-302.84 1049.89,-232 1064.88,-214.15 1054.89,-186.26 1045.53,-168.18"/>
<polygon fill="midnightblue" stroke="midnightblue" points="1048.49,-166.3 1040.56,-159.27 1042.38,-169.71 1048.49,-166.3"/>
</g>
<!-- Node6 -->
<g id="node6" class="node">
<title>Node6</title>
<g id="a_node6"><a xlink:href="macros_8h.html" target="_top" xlink:title=" ">
<polygon fill="white" stroke="black" points="810.89,-67.5 810.89,-97.5 962.89,-97.5 962.89,-67.5 810.89,-67.5"/>
<text text-anchor="start" x="818.89" y="-85.5" font-family="Helvetica,sans-Serif" font-size="10.00">maliput_malidrive/common</text>
<text text-anchor="middle" x="886.89" y="-74.5" font-family="Helvetica,sans-Serif" font-size="10.00">/macros.h</text>
</a>
</g>
</g>
<!-- Node1&#45;&gt;Node6 -->
<g id="edge5" class="edge">
<title>Node1&#45;&gt;Node6</title>
<path fill="none" stroke="midnightblue" d="M849.52,-409.81C944.83,-404.37 1295.89,-377.98 1295.89,-284.5 1295.89,-284.5 1295.89,-284.5 1295.89,-215.5 1295.89,-148.28 1093.27,-110.29 973.26,-93.69"/>
<polygon fill="midnightblue" stroke="midnightblue" points="973.72,-90.22 963.34,-92.34 972.78,-97.15 973.72,-90.22"/>
</g>
<!-- Node13 -->
<g id="node13" class="node">
<title>Node13</title>
<g id="a_node13"><a xlink:href="function_8h.html" target="_top" xlink:title=" ">
<polygon fill="white" stroke="black" points="498.39,-134.5 498.39,-164.5 629.39,-164.5 629.39,-134.5 498.39,-134.5"/>
<text text-anchor="start" x="506.39" y="-152.5" font-family="Helvetica,sans-Serif" font-size="10.00">maliput_malidrive/road</text>
<text text-anchor="middle" x="563.89" y="-141.5" font-family="Helvetica,sans-Serif" font-size="10.00">_curve/function.h</text>
</a>
</g>
</g>
<!-- Node1&#45;&gt;Node13 -->
<g id="edge12" class="edge">
<title>Node1&#45;&gt;Node13</title>
<path fill="none" stroke="midnightblue" d="M802.05,-407.86C734.48,-397.51 541.85,-357.6 468.89,-232 461.97,-220.09 461.79,-212.81 468.89,-201 477.33,-186.95 491.16,-176.59 505.68,-169.05"/>
<polygon fill="midnightblue" stroke="midnightblue" points="507.25,-172.18 514.77,-164.72 504.23,-165.86 507.25,-172.18"/>
</g>
<!-- Node14 -->
<g id="node14" class="node">
<title>Node14</title>
<g id="a_node14"><a xlink:href="road__curve_8h.html" target="_top" xlink:title=" ">
<polygon fill="white" stroke="black" points="666.39,-268.5 666.39,-298.5 797.39,-298.5 797.39,-268.5 666.39,-268.5"/>
<text text-anchor="start" x="674.39" y="-286.5" font-family="Helvetica,sans-Serif" font-size="10.00">maliput_malidrive/road</text>
<text text-anchor="middle" x="731.89" y="-275.5" font-family="Helvetica,sans-Serif" font-size="10.00">_curve/road_curve.h</text>
</a>
</g>
</g>
<!-- Node1&#45;&gt;Node14 -->
<g id="edge14" class="edge">
<title>Node1&#45;&gt;Node14</title>
<path fill="none" stroke="midnightblue" d="M819.43,-402.31C804.99,-382.88 769.74,-335.44 748.64,-307.04"/>
<polygon fill="midnightblue" stroke="midnightblue" points="751.35,-304.83 742.58,-298.89 745.74,-309 751.35,-304.83"/>
</g>
<!-- Node20 -->
<g id="node20" class="node">
<title>Node20</title>
<g id="a_node20"><a xlink:href="road__curve__offset_8h.html" target="_top" xlink:title=" ">
<polygon fill="white" stroke="black" points="893.39,-335.5 893.39,-365.5 1042.39,-365.5 1042.39,-335.5 893.39,-335.5"/>
<text text-anchor="start" x="901.39" y="-353.5" font-family="Helvetica,sans-Serif" font-size="10.00">maliput_malidrive/road</text>
<text text-anchor="middle" x="967.89" y="-342.5" font-family="Helvetica,sans-Serif" font-size="10.00">_curve/road_curve_offset.h</text>
</a>
</g>
</g>
<!-- Node1&#45;&gt;Node20 -->
<g id="edge28" class="edge">
<title>Node1&#45;&gt;Node20</title>
<path fill="none" stroke="midnightblue" d="M846.23,-402.48C866.72,-393.89 898.96,-380.38 925.1,-369.43"/>
<polygon fill="midnightblue" stroke="midnightblue" points="926.55,-372.62 934.42,-365.52 923.85,-366.16 926.55,-372.62"/>
</g>
<!-- Node24 -->
<g id="node24" class="node">
<title>Node24</title>
<g id="a_node24"><a xlink:href="xodr_2lane_8h.html" target="_top" xlink:title=" ">
<polygon fill="white" stroke="black" points="149.39,-268.5 149.39,-298.5 280.39,-298.5 280.39,-268.5 149.39,-268.5"/>
<text text-anchor="start" x="157.39" y="-286.5" font-family="Helvetica,sans-Serif" font-size="10.00">maliput_malidrive/xodr</text>
<text text-anchor="middle" x="214.89" y="-275.5" font-family="Helvetica,sans-Serif" font-size="10.00">/lane.h</text>
</a>
</g>
</g>
<!-- Node1&#45;&gt;Node24 -->
<g id="edge34" class="edge">
<title>Node1&#45;&gt;Node24</title>
<path fill="none" stroke="midnightblue" d="M802.25,-410.23C740.95,-407.82 572.13,-398.49 435.89,-366 370.8,-350.48 298.63,-321.5 255.02,-302.61"/>
<polygon fill="midnightblue" stroke="midnightblue" points="256.2,-299.31 245.64,-298.51 253.4,-305.72 256.2,-299.31"/>
</g>
<!-- Node7 -->
<g id="node7" class="node">
<title>Node7</title>
<g id="a_node7"><a xlink:title=" ">
<polygon fill="white" stroke="#bfbfbf" points="340.89,-6 340.89,-25 384.89,-25 384.89,-6 340.89,-6"/>
<text text-anchor="middle" x="362.89" y="-13" font-family="Helvetica,sans-Serif" font-size="10.00">string</text>
</a>
</g>
</g>
<!-- Node6&#45;&gt;Node7 -->
<g id="edge6" class="edge">
<title>Node6&#45;&gt;Node7</title>
<path fill="none" stroke="midnightblue" d="M810.69,-72.05C694.29,-57.61 477.08,-30.66 395.22,-20.51"/>
<polygon fill="midnightblue" stroke="midnightblue" points="395.38,-17 385.03,-19.25 394.52,-23.95 395.38,-17"/>
</g>
<!-- Node8 -->
<g id="node8" class="node">
<title>Node8</title>
<g id="a_node8"><a xlink:href="../../maliput/html/error_8h.html.html" xlink:title=" ">
<polygon fill="white" stroke="black" points="662.39,-6 662.39,-25 797.39,-25 797.39,-6 662.39,-6"/>
<text text-anchor="middle" x="729.89" y="-13" font-family="Helvetica,sans-Serif" font-size="10.00">maliput/common/error.h</text>
</a>
</g>
</g>
<!-- Node6&#45;&gt;Node8 -->
<g id="edge7" class="edge">
<title>Node6&#45;&gt;Node8</title>
<path fill="none" stroke="midnightblue" d="M852.82,-67.4C825.15,-55.94 786.5,-39.94 759.97,-28.95"/>
<polygon fill="midnightblue" stroke="midnightblue" points="761.01,-25.6 750.44,-25.01 758.34,-32.07 761.01,-25.6"/>
</g>
<!-- Node9 -->
<g id="node9" class="node">
<title>Node9</title>
<g id="a_node9"><a xlink:href="../../maliput/html/logger_8h.html.html" xlink:title=" ">
<polygon fill="white" stroke="black" points="815.39,-6 815.39,-25 958.39,-25 958.39,-6 815.39,-6"/>
<text text-anchor="middle" x="886.89" y="-13" font-family="Helvetica,sans-Serif" font-size="10.00">maliput/common/logger.h</text>
</a>
</g>
</g>
<!-- Node6&#45;&gt;Node9 -->
<g id="edge8" class="edge">
<title>Node6&#45;&gt;Node9</title>
<path fill="none" stroke="midnightblue" d="M886.89,-67.4C886.89,-58.06 886.89,-45.71 886.89,-35.52"/>
<polygon fill="midnightblue" stroke="midnightblue" points="890.39,-35.19 886.89,-25.19 883.39,-35.19 890.39,-35.19"/>
</g>
<!-- Node10 -->
<g id="node10" class="node">
<title>Node10</title>
<g id="a_node10"><a xlink:href="../../maliput/html/maliput__abort_8h.html.html" xlink:title=" ">
<polygon fill="white" stroke="black" points="976.89,-0.5 976.89,-30.5 1116.89,-30.5 1116.89,-0.5 976.89,-0.5"/>
<text text-anchor="start" x="984.89" y="-18.5" font-family="Helvetica,sans-Serif" font-size="10.00">maliput/common/maliput</text>
<text text-anchor="middle" x="1046.89" y="-7.5" font-family="Helvetica,sans-Serif" font-size="10.00">_abort.h</text>
</a>
</g>
</g>
<!-- Node6&#45;&gt;Node10 -->
<g id="edge9" class="edge">
<title>Node6&#45;&gt;Node10</title>
<path fill="none" stroke="midnightblue" d="M921.61,-67.4C945.4,-57.73 977.17,-44.82 1002.76,-34.43"/>
<polygon fill="midnightblue" stroke="midnightblue" points="1004.29,-37.58 1012.24,-30.58 1001.66,-31.1 1004.29,-37.58"/>
</g>
<!-- Node11 -->
<g id="node11" class="node">
<title>Node11</title>
<g id="a_node11"><a xlink:href="../../maliput/html/maliput__copyable_8h.html.html" xlink:title=" ">
<polygon fill="white" stroke="black" points="1134.89,-0.5 1134.89,-30.5 1274.89,-30.5 1274.89,-0.5 1134.89,-0.5"/>
<text text-anchor="start" x="1142.89" y="-18.5" font-family="Helvetica,sans-Serif" font-size="10.00">maliput/common/maliput</text>
<text text-anchor="middle" x="1204.89" y="-7.5" font-family="Helvetica,sans-Serif" font-size="10.00">_copyable.h</text>
</a>
</g>
</g>
<!-- Node6&#45;&gt;Node11 -->
<g id="edge10" class="edge">
<title>Node6&#45;&gt;Node11</title>
<path fill="none" stroke="midnightblue" d="M955.5,-67.48C1005.67,-57.22 1073.82,-43.29 1126.21,-32.58"/>
<polygon fill="midnightblue" stroke="midnightblue" points="1127.03,-35.99 1136.13,-30.55 1125.63,-29.13 1127.03,-35.99"/>
</g>
<!-- Node12 -->
<g id="node12" class="node">
<title>Node12</title>
<g id="a_node12"><a xlink:href="../../maliput/html/maliput__throw_8h.html.html" xlink:title=" ">
<polygon fill="white" stroke="black" points="503.89,-0.5 503.89,-30.5 643.89,-30.5 643.89,-0.5 503.89,-0.5"/>
<text text-anchor="start" x="511.89" y="-18.5" font-family="Helvetica,sans-Serif" font-size="10.00">maliput/common/maliput</text>
<text text-anchor="middle" x="573.89" y="-7.5" font-family="Helvetica,sans-Serif" font-size="10.00">_throw.h</text>
</a>
</g>
</g>
<!-- Node6&#45;&gt;Node12 -->
<g id="edge11" class="edge">
<title>Node6&#45;&gt;Node12</title>
<path fill="none" stroke="midnightblue" d="M819.36,-67.48C770.08,-57.24 703.17,-43.35 651.66,-32.65"/>
<polygon fill="midnightblue" stroke="midnightblue" points="652.07,-29.16 641.57,-30.55 650.65,-36.02 652.07,-29.16"/>
</g>
<!-- Node13&#45;&gt;Node6 -->
<g id="edge13" class="edge">
<title>Node13&#45;&gt;Node6</title>
<path fill="none" stroke="midnightblue" d="M629.64,-135.27C681.04,-124.92 752.69,-110.51 807.32,-99.51"/>
<polygon fill="midnightblue" stroke="midnightblue" points="808.21,-102.9 817.32,-97.5 806.82,-96.04 808.21,-102.9"/>
</g>
<!-- Node14&#45;&gt;Node2 -->
<g id="edge15" class="edge">
<title>Node14&#45;&gt;Node2</title>
<path fill="none" stroke="midnightblue" d="M678.31,-268.46C641.94,-258.72 592.83,-245.19 549.89,-232 546.97,-231.1 543.95,-230.15 540.93,-229.17"/>
<polygon fill="midnightblue" stroke="midnightblue" points="541.97,-225.83 531.37,-226.01 539.77,-232.47 541.97,-225.83"/>
</g>
<!-- Node14&#45;&gt;Node5 -->
<g id="edge17" class="edge">
<title>Node14&#45;&gt;Node5</title>
<path fill="none" stroke="midnightblue" d="M797.79,-270.47C802.56,-269.62 807.3,-268.79 811.89,-268 860.49,-259.6 998.06,-268.8 1030.89,-232 1045.95,-215.11 1043.77,-187.57 1040.01,-169.24"/>
<polygon fill="midnightblue" stroke="midnightblue" points="1043.39,-168.34 1037.66,-159.43 1036.58,-169.97 1043.39,-168.34"/>
</g>
<!-- Node14&#45;&gt;Node6 -->
<g id="edge18" class="edge">
<title>Node14&#45;&gt;Node6</title>
<path fill="none" stroke="midnightblue" d="M797.55,-273.26C887.43,-260.44 1038.97,-238.13 1049.89,-232 1083.98,-212.86 1093.39,-201.69 1106.89,-165 1111.64,-152.07 1115.47,-144.78 1106.89,-134 1090.02,-112.83 1027.29,-99.8 973.11,-92.29"/>
<polygon fill="midnightblue" stroke="midnightblue" points="973.48,-88.81 963.1,-90.95 972.55,-95.75 973.48,-88.81"/>
</g>
<!-- Node14&#45;&gt;Node13 -->
<g id="edge19" class="edge">
<title>Node14&#45;&gt;Node13</title>
<path fill="none" stroke="midnightblue" d="M666.04,-274.77C636.76,-268.04 604.17,-255.47 582.89,-232 568.84,-216.51 564.58,-192.67 563.55,-174.77"/>
<polygon fill="midnightblue" stroke="midnightblue" points="567.05,-174.67 563.26,-164.77 560.05,-174.87 567.05,-174.67"/>
</g>
<!-- Node15 -->
<g id="node15" class="node">
<title>Node15</title>
<g id="a_node15"><a xlink:href="../../maliput/html/roll__pitch__yaw_8h.html.html" xlink:title=" ">
<polygon fill="white" stroke="black" points="741.39,-201.5 741.39,-231.5 872.39,-231.5 872.39,-201.5 741.39,-201.5"/>
<text text-anchor="start" x="749.39" y="-219.5" font-family="Helvetica,sans-Serif" font-size="10.00">maliput/math/roll_pitch</text>
<text text-anchor="middle" x="806.89" y="-208.5" font-family="Helvetica,sans-Serif" font-size="10.00">_yaw.h</text>
</a>
</g>
</g>
<!-- Node14&#45;&gt;Node15 -->
<g id="edge16" class="edge">
<title>Node14&#45;&gt;Node15</title>
<path fill="none" stroke="midnightblue" d="M748.16,-268.4C758.29,-259.62 771.49,-248.18 782.81,-238.37"/>
<polygon fill="midnightblue" stroke="midnightblue" points="785.38,-240.77 790.65,-231.58 780.8,-235.48 785.38,-240.77"/>
</g>
<!-- Node16 -->
<g id="node16" class="node">
<title>Node16</title>
<g id="a_node16"><a xlink:href="ground__curve_8h.html" target="_top" xlink:title=" ">
<polygon fill="white" stroke="black" points="890.39,-201.5 890.39,-231.5 1021.39,-231.5 1021.39,-201.5 890.39,-201.5"/>
<text text-anchor="start" x="898.39" y="-219.5" font-family="Helvetica,sans-Serif" font-size="10.00">maliput_malidrive/road</text>
<text text-anchor="middle" x="955.89" y="-208.5" font-family="Helvetica,sans-Serif" font-size="10.00">_curve/ground_curve.h</text>
</a>
</g>
</g>
<!-- Node14&#45;&gt;Node16 -->
<g id="edge20" class="edge">
<title>Node14&#45;&gt;Node16</title>
<path fill="none" stroke="midnightblue" d="M780.22,-268.48C814.55,-258.51 860.82,-245.09 897.26,-234.51"/>
<polygon fill="midnightblue" stroke="midnightblue" points="898.63,-237.76 907.26,-231.61 896.68,-231.04 898.63,-237.76"/>
</g>
<!-- Node17 -->
<g id="node17" class="node">
<title>Node17</title>
<g id="a_node17"><a xlink:href="road__curve_2lane__offset_8h.html" target="_top" xlink:title=" ">
<polygon fill="white" stroke="black" points="592.39,-201.5 592.39,-231.5 723.39,-231.5 723.39,-201.5 592.39,-201.5"/>
<text text-anchor="start" x="600.39" y="-219.5" font-family="Helvetica,sans-Serif" font-size="10.00">maliput_malidrive/road</text>
<text text-anchor="middle" x="657.89" y="-208.5" font-family="Helvetica,sans-Serif" font-size="10.00">_curve/lane_offset.h</text>
</a>
</g>
</g>
<!-- Node14&#45;&gt;Node17 -->
<g id="edge23" class="edge">
<title>Node14&#45;&gt;Node17</title>
<path fill="none" stroke="midnightblue" d="M715.83,-268.4C705.84,-259.62 692.82,-248.18 681.65,-238.37"/>
<polygon fill="midnightblue" stroke="midnightblue" points="683.74,-235.55 673.91,-231.58 679.12,-240.81 683.74,-235.55"/>
</g>
<!-- Node16&#45;&gt;Node5 -->
<g id="edge21" class="edge">
<title>Node16&#45;&gt;Node5</title>
<path fill="none" stroke="midnightblue" d="M973.03,-201.4C985.84,-190.86 1003.32,-176.48 1016.43,-165.69"/>
<polygon fill="midnightblue" stroke="midnightblue" points="1018.82,-168.25 1024.32,-159.19 1014.38,-162.85 1018.82,-168.25"/>
</g>
<!-- Node16&#45;&gt;Node6 -->
<g id="edge22" class="edge">
<title>Node16&#45;&gt;Node6</title>
<path fill="none" stroke="midnightblue" d="M948.5,-201.37C936.62,-178.65 913.16,-133.75 898.86,-106.4"/>
<polygon fill="midnightblue" stroke="midnightblue" points="901.95,-104.77 894.22,-97.52 895.75,-108.01 901.95,-104.77"/>
</g>
<!-- Node17&#45;&gt;Node6 -->
<g id="edge26" class="edge">
<title>Node17&#45;&gt;Node6</title>
<path fill="none" stroke="midnightblue" d="M703.65,-201.48C729.06,-192.75 760.72,-180.28 786.89,-165 816.13,-147.93 845.7,-122.6 865.03,-104.72"/>
<polygon fill="midnightblue" stroke="midnightblue" points="867.51,-107.19 872.4,-97.79 862.71,-102.09 867.51,-107.19"/>
</g>
<!-- Node17&#45;&gt;Node13 -->
<g id="edge27" class="edge">
<title>Node17&#45;&gt;Node13</title>
<path fill="none" stroke="midnightblue" d="M637.49,-201.4C624.44,-192.37 607.29,-180.51 592.84,-170.52"/>
<polygon fill="midnightblue" stroke="midnightblue" points="594.46,-167.39 584.25,-164.58 590.48,-173.14 594.46,-167.39"/>
</g>
<!-- Node18 -->
<g id="node18" class="node">
<title>Node18</title>
<g id="a_node18"><a xlink:title=" ">
<polygon fill="white" stroke="#bfbfbf" points="383.89,-140 383.89,-159 439.89,-159 439.89,-140 383.89,-140"/>
<text text-anchor="middle" x="411.89" y="-147" font-family="Helvetica,sans-Serif" font-size="10.00">optional</text>
</a>
</g>
</g>
<!-- Node17&#45;&gt;Node18 -->
<g id="edge24" class="edge">
<title>Node17&#45;&gt;Node18</title>
<path fill="none" stroke="midnightblue" d="M604.81,-201.48C558.1,-189.13 491.24,-171.47 449.75,-160.5"/>
<polygon fill="midnightblue" stroke="midnightblue" points="450.59,-157.11 440.03,-157.93 448.8,-163.87 450.59,-157.11"/>
</g>
<!-- Node19 -->
<g id="node19" class="node">
<title>Node19</title>
<g id="a_node19"><a xlink:href="../../maliput/html/range__validator_8h.html.html" xlink:title=" ">
<polygon fill="white" stroke="black" points="647.39,-134.5 647.39,-164.5 778.39,-164.5 778.39,-134.5 647.39,-134.5"/>
<text text-anchor="start" x="655.39" y="-152.5" font-family="Helvetica,sans-Serif" font-size="10.00">maliput/common/range</text>
<text text-anchor="middle" x="712.89" y="-141.5" font-family="Helvetica,sans-Serif" font-size="10.00">_validator.h</text>
</a>
</g>
</g>
<!-- Node17&#45;&gt;Node19 -->
<g id="edge25" class="edge">
<title>Node17&#45;&gt;Node19</title>
<path fill="none" stroke="midnightblue" d="M669.82,-201.4C677.03,-192.88 686.36,-181.85 694.5,-172.23"/>
<polygon fill="midnightblue" stroke="midnightblue" points="697.19,-174.47 700.98,-164.58 691.85,-169.95 697.19,-174.47"/>
</g>
<!-- Node20&#45;&gt;Node6 -->
<g id="edge32" class="edge">
<title>Node20&#45;&gt;Node6</title>
<path fill="none" stroke="midnightblue" d="M1042.64,-345.99C1114.05,-340.89 1214.34,-328.54 1238.89,-299 1247.69,-288.4 1243.7,-280.91 1238.89,-268 1211.38,-194.19 1190.69,-174.1 1122.89,-134 1077.7,-107.28 1020.2,-94.61 973.28,-88.65"/>
<polygon fill="midnightblue" stroke="midnightblue" points="973.47,-85.15 963.13,-87.44 972.64,-92.1 973.47,-85.15"/>
</g>
<!-- Node20&#45;&gt;Node14 -->
<g id="edge33" class="edge">
<title>Node20&#45;&gt;Node14</title>
<path fill="none" stroke="midnightblue" d="M916.97,-335.48C880.65,-325.47 831.63,-311.97 793.16,-301.38"/>
<polygon fill="midnightblue" stroke="midnightblue" points="793.69,-297.89 783.12,-298.61 791.83,-304.64 793.69,-297.89"/>
</g>
<!-- Node21 -->
<g id="node21" class="node">
<title>Node21</title>
<g id="a_node21"><a xlink:title=" ">
<polygon fill="white" stroke="#bfbfbf" points="854.39,-274 854.39,-293 919.39,-293 919.39,-274 854.39,-274"/>
<text text-anchor="middle" x="886.89" y="-281" font-family="Helvetica,sans-Serif" font-size="10.00">functional</text>
</a>
</g>
</g>
<!-- Node20&#45;&gt;Node21 -->
<g id="edge29" class="edge">
<title>Node20&#45;&gt;Node21</title>
<path fill="none" stroke="midnightblue" d="M950.31,-335.4C937.18,-324.86 919.26,-310.48 905.82,-299.69"/>
<polygon fill="midnightblue" stroke="midnightblue" points="907.71,-296.72 897.72,-293.19 903.33,-302.18 907.71,-296.72"/>
</g>
<!-- Node22 -->
<g id="node22" class="node">
<title>Node22</title>
<g id="a_node22"><a xlink:href="../../maliput/html/arc__length__integrator_8h.html.html" xlink:title=" ">
<polygon fill="white" stroke="black" points="937.89,-268.5 937.89,-298.5 1075.89,-298.5 1075.89,-268.5 937.89,-268.5"/>
<text text-anchor="start" x="945.89" y="-286.5" font-family="Helvetica,sans-Serif" font-size="10.00">maliput/drake/arc_length</text>
<text text-anchor="middle" x="1006.89" y="-275.5" font-family="Helvetica,sans-Serif" font-size="10.00">_integrator.h</text>
</a>
</g>
</g>
<!-- Node20&#45;&gt;Node22 -->
<g id="edge30" class="edge">
<title>Node20&#45;&gt;Node22</title>
<path fill="none" stroke="midnightblue" d="M976.35,-335.4C981.26,-327.22 987.55,-316.73 993.15,-307.39"/>
<polygon fill="midnightblue" stroke="midnightblue" points="996.3,-308.95 998.44,-298.58 990.3,-305.35 996.3,-308.95"/>
</g>
<!-- Node23 -->
<g id="node23" class="node">
<title>Node23</title>
<g id="a_node23"><a xlink:href="../../maliput/html/inverse__arc__length__integrator_8h.html.html" xlink:title=" ">
<polygon fill="white" stroke="black" points="1094.39,-268.5 1094.39,-298.5 1229.39,-298.5 1229.39,-268.5 1094.39,-268.5"/>
<text text-anchor="start" x="1102.39" y="-286.5" font-family="Helvetica,sans-Serif" font-size="10.00">maliput/drake/inverse</text>
<text text-anchor="middle" x="1161.89" y="-275.5" font-family="Helvetica,sans-Serif" font-size="10.00">_arc_length_integrator.h</text>
</a>
</g>
</g>
<!-- Node20&#45;&gt;Node23 -->
<g id="edge31" class="edge">
<title>Node20&#45;&gt;Node23</title>
<path fill="none" stroke="midnightblue" d="M1009.98,-335.4C1039.35,-325.56 1078.72,-312.37 1110.02,-301.88"/>
<polygon fill="midnightblue" stroke="midnightblue" points="1111.51,-305.07 1119.88,-298.58 1109.28,-298.43 1111.51,-305.07"/>
</g>
<!-- Node24&#45;&gt;Node18 -->
<g id="edge36" class="edge">
<title>Node24&#45;&gt;Node18</title>
<path fill="none" stroke="midnightblue" d="M280.8,-279.52C318.22,-274.38 363.18,-261.8 391.89,-232 408.04,-215.23 411.82,-187.63 412.38,-169.26"/>
<polygon fill="midnightblue" stroke="midnightblue" points="415.88,-169.2 412.4,-159.2 408.88,-169.19 415.88,-169.2"/>
</g>
<!-- Node25 -->
<g id="node25" class="node">
<title>Node25</title>
<g id="a_node25"><a xlink:title=" ">
<polygon fill="white" stroke="#bfbfbf" points="195.89,-207 195.89,-226 233.89,-226 233.89,-207 195.89,-207"/>
<text text-anchor="middle" x="214.89" y="-214" font-family="Helvetica,sans-Serif" font-size="10.00">map</text>
</a>
</g>
</g>
<!-- Node24&#45;&gt;Node25 -->
<g id="edge35" class="edge">
<title>Node24&#45;&gt;Node25</title>
<path fill="none" stroke="midnightblue" d="M214.89,-268.4C214.89,-259.06 214.89,-246.71 214.89,-236.52"/>
<polygon fill="midnightblue" stroke="midnightblue" points="218.39,-236.19 214.89,-226.19 211.39,-236.19 218.39,-236.19"/>
</g>
<!-- Node26 -->
<g id="node26" class="node">
<title>Node26</title>
<g id="a_node26"><a xlink:href="../../maliput/html/type__specific__identifier_8h.html.html" xlink:title=" ">
<polygon fill="white" stroke="black" points="24.89,-134.5 24.89,-164.5 164.89,-164.5 164.89,-134.5 24.89,-134.5"/>
<text text-anchor="start" x="32.89" y="-152.5" font-family="Helvetica,sans-Serif" font-size="10.00">maliput/api/type_specific</text>
<text text-anchor="middle" x="94.89" y="-141.5" font-family="Helvetica,sans-Serif" font-size="10.00">_identifier.h</text>
</a>
</g>
</g>
<!-- Node24&#45;&gt;Node26 -->
<g id="edge37" class="edge">
<title>Node24&#45;&gt;Node26</title>
<path fill="none" stroke="midnightblue" d="M149.08,-272.29C104.28,-263.84 50.69,-250.26 36.89,-232 21.29,-211.36 43.49,-187.14 64.77,-170.5"/>
<polygon fill="midnightblue" stroke="midnightblue" points="66.88,-173.3 72.8,-164.52 62.69,-167.69 66.88,-173.3"/>
</g>
<!-- Node27 -->
<g id="node27" class="node">
<title>Node27</title>
<g id="a_node27"><a xlink:href="lane__link_8h.html" target="_top" xlink:title=" ">
<polygon fill="white" stroke="black" points="46.39,-201.5 46.39,-231.5 177.39,-231.5 177.39,-201.5 46.39,-201.5"/>
<text text-anchor="start" x="54.39" y="-219.5" font-family="Helvetica,sans-Serif" font-size="10.00">maliput_malidrive/xodr</text>
<text text-anchor="middle" x="111.89" y="-208.5" font-family="Helvetica,sans-Serif" font-size="10.00">/lane_link.h</text>
</a>
</g>
</g>
<!-- Node24&#45;&gt;Node27 -->
<g id="edge38" class="edge">
<title>Node24&#45;&gt;Node27</title>
<path fill="none" stroke="midnightblue" d="M192.54,-268.4C177.96,-259.2 158.74,-247.07 142.72,-236.95"/>
<polygon fill="midnightblue" stroke="midnightblue" points="144.52,-233.95 134.19,-231.58 140.78,-239.87 144.52,-233.95"/>
</g>
<!-- Node28 -->
<g id="node28" class="node">
<title>Node28</title>
<g id="a_node28"><a xlink:href="lane__width_8h.html" target="_top" xlink:title=" ">
<polygon fill="white" stroke="black" points="252.39,-201.5 252.39,-231.5 383.39,-231.5 383.39,-201.5 252.39,-201.5"/>
<text text-anchor="start" x="260.39" y="-219.5" font-family="Helvetica,sans-Serif" font-size="10.00">maliput_malidrive/xodr</text>
<text text-anchor="middle" x="317.89" y="-208.5" font-family="Helvetica,sans-Serif" font-size="10.00">/lane_width.h</text>
</a>
</g>
</g>
<!-- Node24&#45;&gt;Node28 -->
<g id="edge42" class="edge">
<title>Node24&#45;&gt;Node28</title>
<path fill="none" stroke="midnightblue" d="M237.24,-268.4C251.82,-259.2 271.04,-247.07 287.06,-236.95"/>
<polygon fill="midnightblue" stroke="midnightblue" points="288.99,-239.87 295.58,-231.58 285.26,-233.95 288.99,-239.87"/>
</g>
<!-- Node29 -->
<g id="node29" class="node">
<title>Node29</title>
<g id="a_node29"><a xlink:href="unit_8h.html" target="_top" xlink:title=" ">
<polygon fill="white" stroke="black" points="95.39,-67.5 95.39,-97.5 226.39,-97.5 226.39,-67.5 95.39,-67.5"/>
<text text-anchor="start" x="103.39" y="-85.5" font-family="Helvetica,sans-Serif" font-size="10.00">maliput_malidrive/xodr</text>
<text text-anchor="middle" x="160.89" y="-74.5" font-family="Helvetica,sans-Serif" font-size="10.00">/unit.h</text>
</a>
</g>
</g>
<!-- Node24&#45;&gt;Node29 -->
<g id="edge43" class="edge">
<title>Node24&#45;&gt;Node29</title>
<path fill="none" stroke="midnightblue" d="M149.2,-272.39C102.17,-263.78 44.37,-249.97 27.89,-232 -1.77,-199.66 -9.53,-169.77 15.89,-134 31.91,-111.46 58.76,-98.89 85.03,-91.92"/>
<polygon fill="midnightblue" stroke="midnightblue" points="86.14,-95.25 95.04,-89.51 84.5,-88.45 86.14,-95.25"/>
</g>
<!-- Node27&#45;&gt;Node6 -->
<g id="edge41" class="edge">
<title>Node27&#45;&gt;Node6</title>
<path fill="none" stroke="midnightblue" d="M148.73,-201.48C199.04,-182.94 292.42,-150.67 374.89,-134 522.59,-104.15 697.98,-91.71 800.41,-86.7"/>
<polygon fill="midnightblue" stroke="midnightblue" points="800.88,-90.18 810.7,-86.21 800.55,-83.19 800.88,-90.18"/>
</g>
<!-- Node27&#45;&gt;Node18 -->
<g id="edge39" class="edge">
<title>Node27&#45;&gt;Node18</title>
<path fill="none" stroke="midnightblue" d="M176.61,-201.48C236.76,-188.44 324.29,-169.48 373.88,-158.73"/>
<polygon fill="midnightblue" stroke="midnightblue" points="374.83,-162.11 383.87,-156.57 373.35,-155.27 374.83,-162.11"/>
</g>
<!-- Node27&#45;&gt;Node26 -->
<g id="edge40" class="edge">
<title>Node27&#45;&gt;Node26</title>
<path fill="none" stroke="midnightblue" d="M108.2,-201.4C106.13,-193.47 103.49,-183.38 101.11,-174.27"/>
<polygon fill="midnightblue" stroke="midnightblue" points="104.49,-173.37 98.57,-164.58 97.71,-175.14 104.49,-173.37"/>
</g>
<!-- Node29&#45;&gt;Node7 -->
<g id="edge44" class="edge">
<title>Node29&#45;&gt;Node7</title>
<path fill="none" stroke="midnightblue" d="M204.72,-67.4C242.68,-55.18 296.71,-37.8 330.77,-26.83"/>
<polygon fill="midnightblue" stroke="midnightblue" points="332.21,-30.05 340.66,-23.65 330.07,-23.38 332.21,-30.05"/>
</g>
</g>
</svg>
        <g id="navigator" transform="translate(0 0)" fill="#404254">
                <rect fill="#f2f5e9" fill-opacity="0.5" stroke="#606060" stroke-width=".5" x="0" y="0" width="60" height="60"/>
                <use id="zoomplus" xlink:href="#zoomPlus" x="17" y="9" onmousedown="handleZoom(evt,'in')"/>
                <use id="zoomminus" xlink:href="#zoomMin" x="42" y="9" onmousedown="handleZoom(evt,'out')"/>
                <use id="reset" xlink:href="#resetDef" x="30" y="36" onmousedown="handleReset()"/>
                <g id="arrowUp" xlink:href="#dirArrow" transform="translate(30 24)" onmousedown="handlePan(0,-1)">
                  <use xlink:href="#rim" fill="#404040">
                        <set attributeName="fill" to="#808080" begin="arrowUp.mouseover" end="arrowUp.mouseout"/>
                  </use>
                  <path fill="none" stroke="white" stroke-width="1.5" d="M0,-3.0v7 M-2.5,-0.5L0,-3.0L2.5,-0.5"/>
                </g>
                <g id="arrowRight" xlink:href="#dirArrow" transform="rotate(90) translate(36 -43)" onmousedown="handlePan(1,0)">
                  <use xlink:href="#rim" fill="#404040">
                        <set attributeName="fill" to="#808080" begin="arrowRight.mouseover" end="arrowRight.mouseout"/>
                  </use>
                  <path fill="none" stroke="white" stroke-width="1.5" d="M0,-3.0v7 M-2.5,-0.5L0,-3.0L2.5,-0.5"/>
                </g>
                <g id="arrowDown" xlink:href="#dirArrow" transform="rotate(180) translate(-30 -48)" onmousedown="handlePan(0,1)">
                  <use xlink:href="#rim" fill="#404040">
                        <set attributeName="fill" to="#808080" begin="arrowDown.mouseover" end="arrowDown.mouseout"/>
                  </use>
                  <path fill="none" stroke="white" stroke-width="1.5" d="M0,-3.0v7 M-2.5,-0.5L0,-3.0L2.5,-0.5"/>
                </g>
                <g id="arrowLeft" xlink:href="#dirArrow" transform="rotate(270) translate(-36 17)" onmousedown="handlePan(-1,0)">
                  <use xlink:href="#rim" fill="#404040">
                        <set attributeName="fill" to="#808080" begin="arrowLeft.mouseover" end="arrowLeft.mouseout"/>
                  </use>
                  <path fill="none" stroke="white" stroke-width="1.5" d="M0,-3.0v7 M-2.5,-0.5L0,-3.0L2.5,-0.5"/>
                </g>
        </g>
        <svg viewBox="0 0 15 15" width="100%" height="30px" preserveAspectRatio="xMaxYMin meet">
         <g id="arrow_out" transform="scale(0.3 0.3)">
          <a xlink:href="base_2lane_8h__incl_org.svg" target="_base">
           <rect id="button" ry="5" rx="5" y="6" x="6" height="38" width="38"
                fill="#f2f5e9" fill-opacity="0.5" stroke="#606060" stroke-width="1.0"/>
           <path id="arrow"
             d="M 11.500037,31.436501 C 11.940474,20.09759 22.043105,11.32322 32.158766,21.979434 L 37.068811,17.246167 C 37.068811,17.246167 37.088388,32 37.088388,32 L 22.160133,31.978069 C 22.160133,31.978069 26.997745,27.140456 26.997745,27.140456 C 18.528582,18.264221 13.291696,25.230495 11.500037,31.436501 z"
             style="fill:#404040;"/>
          </a>
         </g>
        </svg>
</svg>
