<?xml version="1.0" encoding="UTF-8" standalone="no"?>
<!DOCTYPE svg PUBLIC "-//W3C//DTD SVG 1.1//EN"
 "http://www.w3.org/Graphics/SVG/1.1/DTD/svg11.dtd">
<!-- Generated by graphviz version 2.43.0 (0)
 -->
<!-- Title: builder_tools.h Pages: 1 -->
<svg width="1782pt" height="151pt"
 viewBox="0.00 0.00 1781.50 151.00" xmlns="http://www.w3.org/2000/svg" xmlns:xlink="http://www.w3.org/1999/xlink">
<g id="graph0" class="graph" transform="scale(1 1) rotate(0) translate(4 147)">
<title>builder_tools.h</title>
<polygon fill="white" stroke="transparent" points="-4,4 -4,-147 1777.5,-147 1777.5,4 -4,4"/>
<!-- Node1 -->
<g id="node1" class="node">
<title>Node1</title>
<g id="a_node1"><a xlink:title=" ">
<polygon fill="#bfbfbf" stroke="black" points="797,-123.5 797,-142.5 886,-142.5 886,-123.5 797,-123.5"/>
<text text-anchor="middle" x="841.5" y="-130.5" font-family="Helvetica,sans-Serif" font-size="10.00">builder_tools.h</text>
</a>
</g>
</g>
<!-- Node2 -->
<g id="node2" class="node">
<title>Node2</title>
<g id="a_node2"><a xlink:href="builder__tools_8cc.html" target="_top" xlink:title=" ">
<polygon fill="white" stroke="black" points="0,-62 0,-81 93,-81 93,-62 0,-62"/>
<text text-anchor="middle" x="46.5" y="-69" font-family="Helvetica,sans-Serif" font-size="10.00">builder_tools.cc</text>
</a>
</g>
</g>
<!-- Node1&#45;&gt;Node2 -->
<g id="edge1" class="edge">
<title>Node1&#45;&gt;Node2</title>
<path fill="none" stroke="midnightblue" d="M786.29,-132.25C662.9,-132.03 355.69,-127.1 102.5,-87 93.47,-85.57 83.79,-83.32 75.05,-81.02"/>
<polygon fill="midnightblue" stroke="midnightblue" points="786.61,-135.75 796.61,-132.26 786.61,-128.75 786.61,-135.75"/>
</g>
<!-- Node3 -->
<g id="node3" class="node">
<title>Node3</title>
<g id="a_node3"><a xlink:href="direction__usage__builder_8cc.html" target="_top" xlink:title=" ">
<polygon fill="white" stroke="black" points="111.5,-62 111.5,-81 257.5,-81 257.5,-62 111.5,-62"/>
<text text-anchor="middle" x="184.5" y="-69" font-family="Helvetica,sans-Serif" font-size="10.00">direction_usage_builder.cc</text>
</a>
</g>
</g>
<!-- Node1&#45;&gt;Node3 -->
<g id="edge2" class="edge">
<title>Node1&#45;&gt;Node3</title>
<path fill="none" stroke="midnightblue" d="M786.88,-129.49C684.51,-124.4 456.88,-111.22 266.5,-87 254.02,-85.41 240.56,-83.23 228.21,-81.04"/>
<polygon fill="midnightblue" stroke="midnightblue" points="786.82,-132.99 796.98,-129.99 787.17,-126 786.82,-132.99"/>
</g>
<!-- Node4 -->
<g id="node4" class="node">
<title>Node4</title>
<g id="a_node4"><a xlink:href="road__geometry__builder_8h.html" target="_top" xlink:title=" ">
<polygon fill="white" stroke="black" points="276,-62 276,-81 415,-81 415,-62 276,-62"/>
<text text-anchor="middle" x="345.5" y="-69" font-family="Helvetica,sans-Serif" font-size="10.00">road_geometry_builder.h</text>
</a>
</g>
</g>
<!-- Node1&#45;&gt;Node4 -->
<g id="edge3" class="edge">
<title>Node1&#45;&gt;Node4</title>
<path fill="none" stroke="midnightblue" d="M786.67,-127.1C707.59,-119.8 557.01,-104.95 429.5,-87 417.34,-85.29 404.23,-83.16 392.07,-81.07"/>
<polygon fill="midnightblue" stroke="midnightblue" points="786.6,-130.61 796.88,-128.04 787.24,-123.64 786.6,-130.61"/>
</g>
<!-- Node6 -->
<g id="node6" class="node">
<title>Node6</title>
<g id="a_node6"><a xlink:href="road__network__builder_8cc.html" target="_top" xlink:title=" ">
<polygon fill="white" stroke="black" points="375.5,-0.5 375.5,-19.5 511.5,-19.5 511.5,-0.5 375.5,-0.5"/>
<text text-anchor="middle" x="443.5" y="-7.5" font-family="Helvetica,sans-Serif" font-size="10.00">road_network_builder.cc</text>
</a>
</g>
</g>
<!-- Node1&#45;&gt;Node6 -->
<g id="edge7" class="edge">
<title>Node1&#45;&gt;Node6</title>
<path fill="none" stroke="midnightblue" d="M786.94,-132.79C694.04,-132.98 510.6,-127.97 463.5,-87 443.74,-69.81 442.37,-35.65 442.92,-19.65"/>
<polygon fill="midnightblue" stroke="midnightblue" points="787.01,-136.29 796.99,-132.75 786.98,-129.29 787.01,-136.29"/>
</g>
<!-- Node7 -->
<g id="node7" class="node">
<title>Node7</title>
<g id="a_node7"><a xlink:href="road__marking__builder_8cc.html" target="_top" xlink:title=" ">
<polygon fill="white" stroke="black" points="472,-62 472,-81 609,-81 609,-62 472,-62"/>
<text text-anchor="middle" x="540.5" y="-69" font-family="Helvetica,sans-Serif" font-size="10.00">road_marking_builder.cc</text>
</a>
</g>
</g>
<!-- Node1&#45;&gt;Node7 -->
<g id="edge6" class="edge">
<title>Node1&#45;&gt;Node7</title>
<path fill="none" stroke="midnightblue" d="M788.25,-121.47C729.92,-109.94 637.49,-91.67 583.55,-81.01"/>
<polygon fill="midnightblue" stroke="midnightblue" points="787.89,-124.97 798.37,-123.48 789.24,-118.1 787.89,-124.97"/>
</g>
<!-- Node8 -->
<g id="node8" class="node">
<title>Node8</title>
<g id="a_node8"><a xlink:href="road__object__builder_8cc.html" target="_top" xlink:title=" ">
<polygon fill="white" stroke="black" points="627.5,-62 627.5,-81 753.5,-81 753.5,-62 627.5,-62"/>
<text text-anchor="middle" x="690.5" y="-69" font-family="Helvetica,sans-Serif" font-size="10.00">road_object_builder.cc</text>
</a>
</g>
</g>
<!-- Node1&#45;&gt;Node8 -->
<g id="edge8" class="edge">
<title>Node1&#45;&gt;Node8</title>
<path fill="none" stroke="midnightblue" d="M810.49,-119.78C781.15,-108.22 737.87,-91.16 712.09,-81.01"/>
<polygon fill="midnightblue" stroke="midnightblue" points="809.28,-123.07 819.87,-123.48 811.84,-116.55 809.28,-123.07"/>
</g>
<!-- Node9 -->
<g id="node9" class="node">
<title>Node9</title>
<g id="a_node9"><a xlink:href="road__rulebook__builder_8cc.html" target="_top" xlink:title=" ">
<polygon fill="white" stroke="black" points="772,-62 772,-81 911,-81 911,-62 772,-62"/>
<text text-anchor="middle" x="841.5" y="-69" font-family="Helvetica,sans-Serif" font-size="10.00">road_rulebook_builder.cc</text>
</a>
</g>
</g>
<!-- Node1&#45;&gt;Node9 -->
<g id="edge9" class="edge">
<title>Node1&#45;&gt;Node9</title>
<path fill="none" stroke="midnightblue" d="M841.5,-113.32C841.5,-102.5 841.5,-89.4 841.5,-81.01"/>
<polygon fill="midnightblue" stroke="midnightblue" points="838,-113.48 841.5,-123.48 845,-113.48 838,-113.48"/>
</g>
<!-- Node10 -->
<g id="node10" class="node">
<title>Node10</title>
<g id="a_node10"><a xlink:href="road__rulebook__builder__old__rules_8cc.html" target="_top" xlink:title=" ">
<polygon fill="white" stroke="black" points="929,-56.5 929,-86.5 1054,-86.5 1054,-56.5 929,-56.5"/>
<text text-anchor="start" x="937" y="-74.5" font-family="Helvetica,sans-Serif" font-size="10.00">road_rulebook_builder</text>
<text text-anchor="middle" x="991.5" y="-63.5" font-family="Helvetica,sans-Serif" font-size="10.00">_old_rules.cc</text>
</a>
</g>
</g>
<!-- Node1&#45;&gt;Node10 -->
<g id="edge10" class="edge">
<title>Node1&#45;&gt;Node10</title>
<path fill="none" stroke="midnightblue" d="M872.46,-119.72C896.81,-110.06 930.74,-96.6 956.15,-86.52"/>
<polygon fill="midnightblue" stroke="midnightblue" points="871,-116.53 862.99,-123.48 873.58,-123.04 871,-116.53"/>
</g>
<!-- Node11 -->
<g id="node11" class="node">
<title>Node11</title>
<g id="a_node11"><a xlink:href="rule__registry__builder_8cc.html" target="_top" xlink:title=" ">
<polygon fill="white" stroke="black" points="1072,-62 1072,-81 1203,-81 1203,-62 1072,-62"/>
<text text-anchor="middle" x="1137.5" y="-69" font-family="Helvetica,sans-Serif" font-size="10.00">rule_registry_builder.cc</text>
</a>
</g>
</g>
<!-- Node1&#45;&gt;Node11 -->
<g id="edge11" class="edge">
<title>Node1&#45;&gt;Node11</title>
<path fill="none" stroke="midnightblue" d="M893.86,-121.47C951.23,-109.94 1042.12,-91.67 1095.17,-81.01"/>
<polygon fill="midnightblue" stroke="midnightblue" points="893.02,-118.07 883.91,-123.48 894.4,-124.94 893.02,-118.07"/>
</g>
<!-- Node12 -->
<g id="node12" class="node">
<title>Node12</title>
<g id="a_node12"><a xlink:href="speed__limit__builder_8cc.html" target="_top" xlink:title=" ">
<polygon fill="white" stroke="black" points="1221.5,-62 1221.5,-81 1347.5,-81 1347.5,-62 1221.5,-62"/>
<text text-anchor="middle" x="1284.5" y="-69" font-family="Helvetica,sans-Serif" font-size="10.00">speed_limit_builder.cc</text>
</a>
</g>
</g>
<!-- Node1&#45;&gt;Node12 -->
<g id="edge12" class="edge">
<title>Node1&#45;&gt;Node12</title>
<path fill="none" stroke="midnightblue" d="M896.47,-126.69C969.07,-119.36 1100.77,-105 1212.5,-87 1223.07,-85.3 1234.46,-83.15 1244.99,-81.03"/>
<polygon fill="midnightblue" stroke="midnightblue" points="895.8,-123.24 886.2,-127.72 896.5,-130.2 895.8,-123.24"/>
</g>
<!-- Node13 -->
<g id="node13" class="node">
<title>Node13</title>
<g id="a_node13"><a xlink:href="traffic__control__device__books__builder_8cc.html" target="_top" xlink:title=" ">
<polygon fill="white" stroke="black" points="1365.5,-56.5 1365.5,-86.5 1487.5,-86.5 1487.5,-56.5 1365.5,-56.5"/>
<text text-anchor="start" x="1373.5" y="-74.5" font-family="Helvetica,sans-Serif" font-size="10.00">traffic_control_device</text>
<text text-anchor="middle" x="1426.5" y="-63.5" font-family="Helvetica,sans-Serif" font-size="10.00">_books_builder.cc</text>
</a>
</g>
</g>
<!-- Node1&#45;&gt;Node13 -->
<g id="edge13" class="edge">
<title>Node1&#45;&gt;Node13</title>
<path fill="none" stroke="midnightblue" d="M896.3,-129.32C990.68,-124.24 1189.81,-111.46 1356.5,-87 1359.45,-86.57 1362.46,-86.09 1365.49,-85.58"/>
<polygon fill="midnightblue" stroke="midnightblue" points="895.94,-125.84 886.14,-129.86 896.31,-132.83 895.94,-125.84"/>
</g>
<!-- Node14 -->
<g id="node14" class="node">
<title>Node14</title>
<g id="a_node14"><a xlink:href="traffic__light__builder_8cc.html" target="_top" xlink:title=" ">
<polygon fill="white" stroke="black" points="1506,-62 1506,-81 1631,-81 1631,-62 1506,-62"/>
<text text-anchor="middle" x="1568.5" y="-69" font-family="Helvetica,sans-Serif" font-size="10.00">traffic_light_builder.cc</text>
</a>
</g>
</g>
<!-- Node1&#45;&gt;Node14 -->
<g id="edge14" class="edge">
<title>Node1&#45;&gt;Node14</title>
<path fill="none" stroke="midnightblue" d="M896.29,-130.64C1009.08,-127.32 1275.22,-116.75 1496.5,-87 1507.75,-85.49 1519.88,-83.27 1530.91,-81.03"/>
<polygon fill="midnightblue" stroke="midnightblue" points="896.07,-127.15 886.18,-130.93 896.27,-134.15 896.07,-127.15"/>
</g>
<!-- Node15 -->
<g id="node15" class="node">
<title>Node15</title>
<g id="a_node15"><a xlink:href="traffic__sign__builder_8cc.html" target="_top" xlink:title=" ">
<polygon fill="white" stroke="black" points="1649.5,-62 1649.5,-81 1773.5,-81 1773.5,-62 1649.5,-62"/>
<text text-anchor="middle" x="1711.5" y="-69" font-family="Helvetica,sans-Serif" font-size="10.00">traffic_sign_builder.cc</text>
</a>
</g>
</g>
<!-- Node1&#45;&gt;Node15 -->
<g id="edge15" class="edge">
<title>Node1&#45;&gt;Node15</title>
<path fill="none" stroke="midnightblue" d="M896.42,-131.65C1026.32,-130.22 1362.47,-123.03 1640.5,-87 1651.73,-85.55 1663.84,-83.32 1674.82,-81.05"/>
<polygon fill="midnightblue" stroke="midnightblue" points="896.29,-128.15 886.32,-131.75 896.36,-135.15 896.29,-128.15"/>
</g>
<!-- Node5 -->
<g id="node5" class="node">
<title>Node5</title>
<g id="a_node5"><a xlink:href="road__geometry__builder_8cc.html" target="_top" xlink:title=" ">
<polygon fill="white" stroke="black" points="214,-0.5 214,-19.5 357,-19.5 357,-0.5 214,-0.5"/>
<text text-anchor="middle" x="285.5" y="-7.5" font-family="Helvetica,sans-Serif" font-size="10.00">road_geometry_builder.cc</text>
</a>
</g>
</g>
<!-- Node4&#45;&gt;Node5 -->
<g id="edge4" class="edge">
<title>Node4&#45;&gt;Node5</title>
<path fill="none" stroke="midnightblue" d="M329.69,-54.82C318.29,-43.52 303.34,-28.69 294.08,-19.51"/>
<polygon fill="midnightblue" stroke="midnightblue" points="327.34,-57.42 336.9,-61.98 332.27,-52.45 327.34,-57.42"/>
</g>
<!-- Node4&#45;&gt;Node6 -->
<g id="edge5" class="edge">
<title>Node4&#45;&gt;Node6</title>
<path fill="none" stroke="midnightblue" d="M368.16,-56.74C387.09,-45.25 413.49,-29.22 429.49,-19.51"/>
<polygon fill="midnightblue" stroke="midnightblue" points="366.27,-53.79 359.54,-61.98 369.91,-59.78 366.27,-53.79"/>
</g>
</g>
</svg>
