<?xml version="1.0" encoding="UTF-8" standalone="no"?>
<!DOCTYPE svg PUBLIC "-//W3C//DTD SVG 1.1//EN"
 "http://www.w3.org/Graphics/SVG/1.1/DTD/svg11.dtd">
<!-- Generated by graphviz version 2.43.0 (0)
 -->
<!-- Title: db_manager.h Pages: 1 -->
<!--zoomable 207 -->
<svg id="main" version="1.1" xmlns="http://www.w3.org/2000/svg" xmlns:xlink="http://www.w3.org/1999/xlink" xml:space="preserve" onload="init(evt)">
<style type="text/css"><![CDATA[
.edge:hover path { stroke: red; }
.edge:hover polygon { stroke: red; fill: red; }
]]></style>
<script type="text/javascript"><![CDATA[
var edges = document.getElementsByTagName('g');
if (edges && edges.length) {
  for (var i=0;i<edges.length;i++) {
    if (edges[i].id.substr(0,4)=='edge') {
      edges[i].setAttribute('class','edge');
    }
  }
}
]]></script>
        <defs>
                <circle id="rim" cx="0" cy="0" r="7"/>
                <circle id="rim2" cx="0" cy="0" r="3.5"/>
                <g id="zoomPlus">
                        <use xlink:href="#rim" fill="#404040">
                                <set attributeName="fill" to="#808080" begin="zoomplus.mouseover" end="zoomplus.mouseout"/>
                        </use>
                        <path d="M-4,0h8M0,-4v8" fill="none" stroke="white" stroke-width="1.5" pointer-events="none"/>
                </g>
                <g id="zoomMin">
                        <use xlink:href="#rim" fill="#404040">
                                <set attributeName="fill" to="#808080" begin="zoomminus.mouseover" end="zoomminus.mouseout"/>
                        </use>
                        <path d="M-4,0h8" fill="none" stroke="white" stroke-width="1.5" pointer-events="none"/>
                </g>
                <g id="dirArrow">
                        <path fill="none" stroke="white" stroke-width="1.5" d="M0,-3.0v7 M-2.5,-0.5L0,-3.0L2.5,-0.5"/>
                </g>
               <g id="resetDef">
                       <use xlink:href="#rim2" fill="#404040">
                               <set attributeName="fill" to="#808080" begin="reset.mouseover" end="reset.mouseout"/>
                       </use>
               </g>
        </defs>

<script type="text/javascript">
var viewWidth = 2356;
var viewHeight = 207;
var sectionId = 'dynsection-1';
</script>
<script xlink:href="svgpan.js"/>
<svg id="graph" class="graph">
<g id="viewport">
<title>db_manager.h</title>
<polygon fill="white" stroke="transparent" points="-4,4 -4,-203 2352,-203 2352,4 -4,4"/>
<!-- Node1 -->
<g id="node1" class="node">
<title>Node1</title>
<g id="a_node1"><a xlink:title=" ">
<polygon fill="#bfbfbf" stroke="black" points="851.5,-179.5 851.5,-198.5 937.5,-198.5 937.5,-179.5 851.5,-179.5"/>
<text text-anchor="middle" x="894.5" y="-186.5" font-family="Helvetica,sans-Serif" font-size="10.00">db_manager.h</text>
</a>
</g>
</g>
<!-- Node2 -->
<g id="node2" class="node">
<title>Node2</title>
<g id="a_node2"><a xlink:href="xodr__query_8cc.html" target="_top" xlink:title=" ">
<polygon fill="white" stroke="black" points="65,-123.5 65,-142.5 148,-142.5 148,-123.5 65,-123.5"/>
<text text-anchor="middle" x="106.5" y="-130.5" font-family="Helvetica,sans-Serif" font-size="10.00">xodr_query.cc</text>
</a>
</g>
</g>
<!-- Node1&#45;&gt;Node2 -->
<g id="edge1" class="edge">
<title>Node1&#45;&gt;Node2</title>
<path fill="none" stroke="midnightblue" d="M841.35,-186.89C719.71,-183.9 411.92,-173.67 156.5,-143 153.79,-142.67 150.99,-142.3 148.19,-141.88"/>
<polygon fill="midnightblue" stroke="midnightblue" points="841.42,-190.4 851.5,-187.14 841.59,-183.4 841.42,-190.4"/>
</g>
<!-- Node3 -->
<g id="node3" class="node">
<title>Node3</title>
<g id="a_node3"><a xlink:href="xodr__validate_8cc.html" target="_top" xlink:title=" ">
<polygon fill="white" stroke="black" points="166,-123.5 166,-142.5 263,-142.5 263,-123.5 166,-123.5"/>
<text text-anchor="middle" x="214.5" y="-130.5" font-family="Helvetica,sans-Serif" font-size="10.00">xodr_validate.cc</text>
</a>
</g>
</g>
<!-- Node1&#45;&gt;Node3 -->
<g id="edge2" class="edge">
<title>Node1&#45;&gt;Node3</title>
<path fill="none" stroke="midnightblue" d="M841.12,-185.61C733.38,-180.46 482.28,-166.82 272.5,-143 269.46,-142.66 266.34,-142.27 263.2,-141.85"/>
<polygon fill="midnightblue" stroke="midnightblue" points="841.25,-189.12 851.4,-186.1 841.58,-182.13 841.25,-189.12"/>
</g>
<!-- Node4 -->
<g id="node4" class="node">
<title>Node4</title>
<g id="a_node4"><a xlink:href="road__geometry_8h.html" target="_top" xlink:title=" ">
<polygon fill="white" stroke="black" points="781.5,-123.5 781.5,-142.5 879.5,-142.5 879.5,-123.5 781.5,-123.5"/>
<text text-anchor="middle" x="830.5" y="-130.5" font-family="Helvetica,sans-Serif" font-size="10.00">road_geometry.h</text>
</a>
</g>
</g>
<!-- Node1&#45;&gt;Node4 -->
<g id="edge3" class="edge">
<title>Node1&#45;&gt;Node4</title>
<path fill="none" stroke="midnightblue" d="M876.51,-172.82C865.04,-163.15 850.59,-150.95 840.97,-142.83"/>
<polygon fill="midnightblue" stroke="midnightblue" points="874.32,-175.55 884.22,-179.32 878.83,-170.2 874.32,-175.55"/>
</g>
<!-- Node7 -->
<g id="node7" class="node">
<title>Node7</title>
<g id="a_node7"><a xlink:href="builder__tools_8cc.html" target="_top" xlink:title=" ">
<polygon fill="white" stroke="black" points="669,-62 669,-81 762,-81 762,-62 669,-62"/>
<text text-anchor="middle" x="715.5" y="-69" font-family="Helvetica,sans-Serif" font-size="10.00">builder_tools.cc</text>
</a>
</g>
</g>
<!-- Node1&#45;&gt;Node7 -->
<g id="edge15" class="edge">
<title>Node1&#45;&gt;Node7</title>
<path fill="none" stroke="midnightblue" d="M846.09,-176.66C822.43,-169.56 794.41,-158.71 772.5,-143 748.45,-125.76 728.98,-95.82 720.34,-81.13"/>
<polygon fill="midnightblue" stroke="midnightblue" points="845.36,-180.09 855.94,-179.48 847.29,-173.36 845.36,-180.09"/>
</g>
<!-- Node8 -->
<g id="node8" class="node">
<title>Node8</title>
<g id="a_node8"><a xlink:href="road__geometry__builder_8h.html" target="_top" xlink:title=" ">
<polygon fill="white" stroke="black" points="1413,-62 1413,-81 1552,-81 1552,-62 1413,-62"/>
<text text-anchor="middle" x="1482.5" y="-69" font-family="Helvetica,sans-Serif" font-size="10.00">road_geometry_builder.h</text>
</a>
</g>
</g>
<!-- Node1&#45;&gt;Node8 -->
<g id="edge31" class="edge">
<title>Node1&#45;&gt;Node8</title>
<path fill="none" stroke="midnightblue" d="M947.98,-180C1002.75,-171.59 1090.29,-157.6 1165.5,-143 1268.17,-123.07 1388.49,-95.01 1446.98,-81.06"/>
<polygon fill="midnightblue" stroke="midnightblue" points="947.17,-176.58 937.81,-181.55 948.22,-183.5 947.17,-176.58"/>
</g>
<!-- Node16 -->
<g id="node16" class="node">
<title>Node16</title>
<g id="a_node16"><a xlink:href="builder__tools_8h.html" target="_top" xlink:title=" ">
<polygon fill="white" stroke="black" points="1363,-123.5 1363,-142.5 1452,-142.5 1452,-123.5 1363,-123.5"/>
<text text-anchor="middle" x="1407.5" y="-130.5" font-family="Helvetica,sans-Serif" font-size="10.00">builder_tools.h</text>
</a>
</g>
</g>
<!-- Node1&#45;&gt;Node16 -->
<g id="edge16" class="edge">
<title>Node1&#45;&gt;Node16</title>
<path fill="none" stroke="midnightblue" d="M947.82,-182.39C1049.25,-171.71 1268.26,-148.66 1362.68,-138.72"/>
<polygon fill="midnightblue" stroke="midnightblue" points="947.37,-178.91 937.8,-183.44 948.11,-185.88 947.37,-178.91"/>
</g>
<!-- Node22 -->
<g id="node22" class="node">
<title>Node22</title>
<g id="a_node22"><a xlink:href="determine__tolerance_8h.html" target="_top" xlink:title=" ">
<polygon fill="white" stroke="black" points="426,-123.5 426,-142.5 553,-142.5 553,-123.5 426,-123.5"/>
<text text-anchor="middle" x="489.5" y="-130.5" font-family="Helvetica,sans-Serif" font-size="10.00">determine_tolerance.h</text>
</a>
</g>
</g>
<!-- Node1&#45;&gt;Node22 -->
<g id="edge28" class="edge">
<title>Node1&#45;&gt;Node22</title>
<path fill="none" stroke="midnightblue" d="M841.08,-180.88C766.77,-170.97 632.41,-153.05 553.05,-142.47"/>
<polygon fill="midnightblue" stroke="midnightblue" points="840.78,-184.37 851.16,-182.22 841.71,-177.43 840.78,-184.37"/>
</g>
<!-- Node24 -->
<g id="node24" class="node">
<title>Node24</title>
<g id="a_node24"><a xlink:href="simplify__geometries_8h.html" target="_top" xlink:title=" ">
<polygon fill="white" stroke="black" points="281.5,-123.5 281.5,-142.5 407.5,-142.5 407.5,-123.5 281.5,-123.5"/>
<text text-anchor="middle" x="344.5" y="-130.5" font-family="Helvetica,sans-Serif" font-size="10.00">simplify_geometries.h</text>
</a>
</g>
</g>
<!-- Node1&#45;&gt;Node24 -->
<g id="edge32" class="edge">
<title>Node1&#45;&gt;Node24</title>
<path fill="none" stroke="midnightblue" d="M841.24,-183.52C752.9,-175.97 570.52,-159.87 416.5,-143 413.62,-142.68 410.68,-142.35 407.7,-142.01"/>
<polygon fill="midnightblue" stroke="midnightblue" points="841.02,-187.01 851.28,-184.38 841.62,-180.04 841.02,-187.01"/>
</g>
<!-- Node26 -->
<g id="node26" class="node">
<title>Node26</title>
<g id="a_node26"><a xlink:href="traffic__light__builder_8h.html" target="_top" xlink:title=" ">
<polygon fill="white" stroke="black" points="898,-123.5 898,-142.5 1019,-142.5 1019,-123.5 898,-123.5"/>
<text text-anchor="middle" x="958.5" y="-130.5" font-family="Helvetica,sans-Serif" font-size="10.00">traffic_light_builder.h</text>
</a>
</g>
</g>
<!-- Node1&#45;&gt;Node26 -->
<g id="edge35" class="edge">
<title>Node1&#45;&gt;Node26</title>
<path fill="none" stroke="midnightblue" d="M912.49,-172.82C923.96,-163.15 938.41,-150.95 948.03,-142.83"/>
<polygon fill="midnightblue" stroke="midnightblue" points="910.17,-170.2 904.78,-179.32 914.68,-175.55 910.17,-170.2"/>
</g>
<!-- Node27 -->
<g id="node27" class="node">
<title>Node27</title>
<g id="a_node27"><a xlink:href="traffic__sign__builder_8h.html" target="_top" xlink:title=" ">
<polygon fill="white" stroke="black" points="1037,-123.5 1037,-142.5 1156,-142.5 1156,-123.5 1037,-123.5"/>
<text text-anchor="middle" x="1096.5" y="-130.5" font-family="Helvetica,sans-Serif" font-size="10.00">traffic_sign_builder.h</text>
</a>
</g>
</g>
<!-- Node1&#45;&gt;Node27 -->
<g id="edge38" class="edge">
<title>Node1&#45;&gt;Node27</title>
<path fill="none" stroke="midnightblue" d="M936.29,-176.83C974.43,-166.63 1029.98,-151.78 1064.64,-142.52"/>
<polygon fill="midnightblue" stroke="midnightblue" points="935.26,-173.48 926.51,-179.44 937.07,-180.24 935.26,-173.48"/>
</g>
<!-- Node28 -->
<g id="node28" class="node">
<title>Node28</title>
<g id="a_node28"><a xlink:href="loader_8cc.html" target="_top" xlink:title=" ">
<polygon fill="white" stroke="black" points="1470,-123.5 1470,-142.5 1531,-142.5 1531,-123.5 1470,-123.5"/>
<text text-anchor="middle" x="1500.5" y="-130.5" font-family="Helvetica,sans-Serif" font-size="10.00">loader.cc</text>
</a>
</g>
</g>
<!-- Node1&#45;&gt;Node28 -->
<g id="edge41" class="edge">
<title>Node1&#45;&gt;Node28</title>
<path fill="none" stroke="midnightblue" d="M948.03,-186.38C1048.97,-182.75 1274.16,-171.89 1461.5,-143 1464.25,-142.58 1467.09,-142.07 1469.93,-141.5"/>
<polygon fill="midnightblue" stroke="midnightblue" points="947.66,-182.89 937.79,-186.74 947.9,-189.89 947.66,-182.89"/>
</g>
<!-- Node29 -->
<g id="node29" class="node">
<title>Node29</title>
<g id="a_node29"><a xlink:href="db__manager_8cc.html" target="_top" xlink:title=" ">
<polygon fill="white" stroke="black" points="1549,-123.5 1549,-142.5 1640,-142.5 1640,-123.5 1549,-123.5"/>
<text text-anchor="middle" x="1594.5" y="-130.5" font-family="Helvetica,sans-Serif" font-size="10.00">db_manager.cc</text>
</a>
</g>
</g>
<!-- Node1&#45;&gt;Node29 -->
<g id="edge42" class="edge">
<title>Node1&#45;&gt;Node29</title>
<path fill="none" stroke="midnightblue" d="M947.97,-186.01C1058.79,-181.49 1321.47,-168.82 1540.5,-143 1543.24,-142.68 1546.05,-142.31 1548.88,-141.92"/>
<polygon fill="midnightblue" stroke="midnightblue" points="947.58,-182.52 937.73,-186.42 947.86,-189.51 947.58,-182.52"/>
</g>
<!-- Node5 -->
<g id="node5" class="node">
<title>Node5</title>
<g id="a_node5"><a xlink:href="base_2lane_8cc.html" target="_top" xlink:title=" ">
<polygon fill="white" stroke="black" points="780,-62 780,-81 831,-81 831,-62 780,-62"/>
<text text-anchor="middle" x="805.5" y="-69" font-family="Helvetica,sans-Serif" font-size="10.00">lane.cc</text>
</a>
</g>
</g>
<!-- Node4&#45;&gt;Node5 -->
<g id="edge4" class="edge">
<title>Node4&#45;&gt;Node5</title>
<path fill="none" stroke="midnightblue" d="M822.94,-114C818.34,-103.05 812.67,-89.57 809.08,-81.01"/>
<polygon fill="midnightblue" stroke="midnightblue" points="819.82,-115.61 826.92,-123.48 826.27,-112.9 819.82,-115.61"/>
</g>
<!-- Node6 -->
<g id="node6" class="node">
<title>Node6</title>
<g id="a_node6"><a xlink:href="road__geometry_8cc.html" target="_top" xlink:title=" ">
<polygon fill="white" stroke="black" points="375,-62 375,-81 478,-81 478,-62 375,-62"/>
<text text-anchor="middle" x="426.5" y="-69" font-family="Helvetica,sans-Serif" font-size="10.00">road_geometry.cc</text>
</a>
</g>
</g>
<!-- Node4&#45;&gt;Node6 -->
<g id="edge5" class="edge">
<title>Node4&#45;&gt;Node6</title>
<path fill="none" stroke="midnightblue" d="M771.04,-126.18C702.22,-118.98 585.64,-105.41 486.5,-87 477.54,-85.34 467.92,-83.18 459.06,-81.04"/>
<polygon fill="midnightblue" stroke="midnightblue" points="770.94,-129.68 781.25,-127.23 771.66,-122.72 770.94,-129.68"/>
</g>
<!-- Node4&#45;&gt;Node7 -->
<g id="edge6" class="edge">
<title>Node4&#45;&gt;Node7</title>
<path fill="none" stroke="midnightblue" d="M805.12,-118.87C782.83,-107.33 751.06,-90.9 731.95,-81.01"/>
<polygon fill="midnightblue" stroke="midnightblue" points="803.53,-121.99 814.02,-123.48 806.75,-115.77 803.53,-121.99"/>
</g>
<!-- Node4&#45;&gt;Node8 -->
<g id="edge7" class="edge">
<title>Node4&#45;&gt;Node8</title>
<path fill="none" stroke="midnightblue" d="M889.69,-123.09C1118.81,-98.21 1179.52,-115.31 1403.5,-87 1415.67,-85.46 1428.81,-83.27 1440.82,-81.05"/>
<polygon fill="midnightblue" stroke="midnightblue" points="889.27,-119.61 879.72,-124.19 890.04,-126.57 889.27,-119.61"/>
</g>
<!-- Node11 -->
<g id="node11" class="node">
<title>Node11</title>
<g id="a_node11"><a xlink:href="road__object__book__builder_8cc.html" target="_top" xlink:title=" ">
<polygon fill="white" stroke="black" points="496,-62 496,-81 651,-81 651,-62 496,-62"/>
<text text-anchor="middle" x="573.5" y="-69" font-family="Helvetica,sans-Serif" font-size="10.00">road_object_book_builder.cc</text>
</a>
</g>
</g>
<!-- Node4&#45;&gt;Node11 -->
<g id="edge10" class="edge">
<title>Node4&#45;&gt;Node11</title>
<path fill="none" stroke="midnightblue" d="M783.79,-121.19C733.92,-109.64 655.93,-91.58 610.25,-81.01"/>
<polygon fill="midnightblue" stroke="midnightblue" points="783.15,-124.63 793.68,-123.48 784.73,-117.81 783.15,-124.63"/>
</g>
<!-- Node12 -->
<g id="node12" class="node">
<title>Node12</title>
<g id="a_node12"><a xlink:href="road__object__builder_8cc.html" target="_top" xlink:title=" ">
<polygon fill="white" stroke="black" points="982.5,-62 982.5,-81 1108.5,-81 1108.5,-62 982.5,-62"/>
<text text-anchor="middle" x="1045.5" y="-69" font-family="Helvetica,sans-Serif" font-size="10.00">road_object_builder.cc</text>
</a>
</g>
</g>
<!-- Node4&#45;&gt;Node12 -->
<g id="edge11" class="edge">
<title>Node4&#45;&gt;Node12</title>
<path fill="none" stroke="midnightblue" d="M871.15,-120.75C912.92,-109.19 977.02,-91.45 1014.75,-81.01"/>
<polygon fill="midnightblue" stroke="midnightblue" points="870.01,-117.43 861.3,-123.48 871.88,-124.18 870.01,-117.43"/>
</g>
<!-- Node13 -->
<g id="node13" class="node">
<title>Node13</title>
<g id="a_node13"><a xlink:href="traffic__light__builder_8cc.html" target="_top" xlink:title=" ">
<polygon fill="white" stroke="black" points="1127,-62 1127,-81 1252,-81 1252,-62 1127,-62"/>
<text text-anchor="middle" x="1189.5" y="-69" font-family="Helvetica,sans-Serif" font-size="10.00">traffic_light_builder.cc</text>
</a>
</g>
</g>
<!-- Node4&#45;&gt;Node13 -->
<g id="edge12" class="edge">
<title>Node4&#45;&gt;Node13</title>
<path fill="none" stroke="midnightblue" d="M889.91,-122.83C967.37,-110.84 1095.58,-90.92 1117.5,-87 1127.67,-85.18 1138.61,-83.06 1148.82,-81.01"/>
<polygon fill="midnightblue" stroke="midnightblue" points="889.15,-119.4 879.8,-124.39 890.22,-126.32 889.15,-119.4"/>
</g>
<!-- Node14 -->
<g id="node14" class="node">
<title>Node14</title>
<g id="a_node14"><a xlink:href="traffic__sign__builder_8cc.html" target="_top" xlink:title=" ">
<polygon fill="white" stroke="black" points="1270.5,-62 1270.5,-81 1394.5,-81 1394.5,-62 1270.5,-62"/>
<text text-anchor="middle" x="1332.5" y="-69" font-family="Helvetica,sans-Serif" font-size="10.00">traffic_sign_builder.cc</text>
</a>
</g>
</g>
<!-- Node4&#45;&gt;Node14 -->
<g id="edge13" class="edge">
<title>Node4&#45;&gt;Node14</title>
<path fill="none" stroke="midnightblue" d="M889.81,-123.04C1056.05,-102.81 1100.44,-111.17 1261.5,-87 1272.2,-85.39 1283.72,-83.23 1294.31,-81.07"/>
<polygon fill="midnightblue" stroke="midnightblue" points="889.22,-119.59 879.73,-124.28 890.08,-126.53 889.22,-119.59"/>
</g>
<!-- Node15 -->
<g id="node15" class="node">
<title>Node15</title>
<g id="a_node15"><a xlink:href="traffic__signal__books__builder_8cc.html" target="_top" xlink:title=" ">
<polygon fill="white" stroke="black" points="849,-56.5 849,-86.5 964,-86.5 964,-56.5 849,-56.5"/>
<text text-anchor="start" x="857" y="-74.5" font-family="Helvetica,sans-Serif" font-size="10.00">traffic_signal_books</text>
<text text-anchor="middle" x="906.5" y="-63.5" font-family="Helvetica,sans-Serif" font-size="10.00">_builder.cc</text>
</a>
</g>
</g>
<!-- Node4&#45;&gt;Node15 -->
<g id="edge14" class="edge">
<title>Node4&#45;&gt;Node15</title>
<path fill="none" stroke="midnightblue" d="M849.41,-117.2C861.39,-107.81 876.8,-95.75 888.59,-86.52"/>
<polygon fill="midnightblue" stroke="midnightblue" points="847.11,-114.55 841.39,-123.48 851.42,-120.07 847.11,-114.55"/>
</g>
<!-- Node9 -->
<g id="node9" class="node">
<title>Node9</title>
<g id="a_node9"><a xlink:href="road__geometry__builder_8cc.html" target="_top" xlink:title=" ">
<polygon fill="white" stroke="black" points="126,-0.5 126,-19.5 269,-19.5 269,-0.5 126,-0.5"/>
<text text-anchor="middle" x="197.5" y="-7.5" font-family="Helvetica,sans-Serif" font-size="10.00">road_geometry_builder.cc</text>
</a>
</g>
</g>
<!-- Node8&#45;&gt;Node9 -->
<g id="edge8" class="edge">
<title>Node8&#45;&gt;Node9</title>
<path fill="none" stroke="midnightblue" d="M1432.63,-60.22C1423,-58.56 1412.96,-57.04 1403.5,-56 1181.69,-31.63 494.1,-16.66 269.37,-12.32"/>
<polygon fill="midnightblue" stroke="midnightblue" points="1432.01,-63.67 1442.48,-62 1433.26,-56.78 1432.01,-63.67"/>
</g>
<!-- Node10 -->
<g id="node10" class="node">
<title>Node10</title>
<g id="a_node10"><a xlink:href="road__network__builder_8cc.html" target="_top" xlink:title=" ">
<polygon fill="white" stroke="black" points="1681.5,-0.5 1681.5,-19.5 1817.5,-19.5 1817.5,-0.5 1681.5,-0.5"/>
<text text-anchor="middle" x="1749.5" y="-7.5" font-family="Helvetica,sans-Serif" font-size="10.00">road_network_builder.cc</text>
</a>
</g>
</g>
<!-- Node8&#45;&gt;Node10 -->
<g id="edge9" class="edge">
<title>Node8&#45;&gt;Node10</title>
<path fill="none" stroke="midnightblue" d="M1530.7,-59.76C1582.5,-48.22 1663.77,-30.11 1711.32,-19.51"/>
<polygon fill="midnightblue" stroke="midnightblue" points="1529.75,-56.38 1520.75,-61.98 1531.28,-63.22 1529.75,-56.38"/>
</g>
<!-- Node16&#45;&gt;Node7 -->
<g id="edge17" class="edge">
<title>Node16&#45;&gt;Node7</title>
<path fill="none" stroke="midnightblue" d="M1352.62,-129.45C1219.44,-123.04 881.92,-105.46 770.5,-87 761.73,-85.55 752.33,-83.32 743.83,-81.05"/>
<polygon fill="midnightblue" stroke="midnightblue" points="1352.82,-132.96 1362.98,-129.94 1353.16,-125.97 1352.82,-132.96"/>
</g>
<!-- Node16&#45;&gt;Node8 -->
<g id="edge19" class="edge">
<title>Node16&#45;&gt;Node8</title>
<path fill="none" stroke="midnightblue" d="M1426.44,-116.97C1440.79,-105.59 1459.98,-90.37 1471.77,-81.01"/>
<polygon fill="midnightblue" stroke="midnightblue" points="1423.9,-114.52 1418.25,-123.48 1428.26,-120 1423.9,-114.52"/>
</g>
<!-- Node16&#45;&gt;Node10 -->
<g id="edge20" class="edge">
<title>Node16&#45;&gt;Node10</title>
<path fill="none" stroke="midnightblue" d="M1462.48,-123.31C1555.88,-117.18 1958.4,-128.81 1997.5,-87 2052.63,-28.04 1908.97,-14.39 1817.87,-11.5"/>
<polygon fill="midnightblue" stroke="midnightblue" points="1461.9,-119.84 1452.24,-124.2 1462.51,-126.82 1461.9,-119.84"/>
</g>
<!-- Node16&#45;&gt;Node12 -->
<g id="edge21" class="edge">
<title>Node16&#45;&gt;Node12</title>
<path fill="none" stroke="midnightblue" d="M1352.77,-124.17C1294.56,-115.68 1199.87,-101.41 1118.5,-87 1108.19,-85.17 1097.1,-83.05 1086.75,-81.01"/>
<polygon fill="midnightblue" stroke="midnightblue" points="1352.45,-127.66 1362.85,-125.64 1353.45,-120.73 1352.45,-127.66"/>
</g>
<!-- Node16&#45;&gt;Node13 -->
<g id="edge26" class="edge">
<title>Node16&#45;&gt;Node13</title>
<path fill="none" stroke="midnightblue" d="M1366.55,-120.82C1324.2,-109.26 1259.02,-91.47 1220.68,-81.01"/>
<polygon fill="midnightblue" stroke="midnightblue" points="1365.7,-124.22 1376.27,-123.48 1367.54,-117.47 1365.7,-124.22"/>
</g>
<!-- Node16&#45;&gt;Node14 -->
<g id="edge27" class="edge">
<title>Node16&#45;&gt;Node14</title>
<path fill="none" stroke="midnightblue" d="M1388.56,-116.97C1374.21,-105.59 1355.02,-90.37 1343.23,-81.01"/>
<polygon fill="midnightblue" stroke="midnightblue" points="1386.74,-120 1396.75,-123.48 1391.1,-114.52 1386.74,-120"/>
</g>
<!-- Node17 -->
<g id="node17" class="node">
<title>Node17</title>
<g id="a_node17"><a xlink:href="direction__usage__builder_8cc.html" target="_top" xlink:title=" ">
<polygon fill="white" stroke="black" points="2044.5,-62 2044.5,-81 2190.5,-81 2190.5,-62 2044.5,-62"/>
<text text-anchor="middle" x="2117.5" y="-69" font-family="Helvetica,sans-Serif" font-size="10.00">direction_usage_builder.cc</text>
</a>
</g>
</g>
<!-- Node16&#45;&gt;Node17 -->
<g id="edge18" class="edge">
<title>Node16&#45;&gt;Node17</title>
<path fill="none" stroke="midnightblue" d="M1462.46,-123.02C1715,-94.7 1782.07,-115.49 2030.5,-87 2043.89,-85.46 2058.35,-83.27 2071.57,-81.05"/>
<polygon fill="midnightblue" stroke="midnightblue" points="1461.78,-119.58 1452.24,-124.18 1462.57,-126.53 1461.78,-119.58"/>
</g>
<!-- Node18 -->
<g id="node18" class="node">
<title>Node18</title>
<g id="a_node18"><a xlink:href="road__rulebook__builder_8cc.html" target="_top" xlink:title=" ">
<polygon fill="white" stroke="black" points="2209,-62 2209,-81 2348,-81 2348,-62 2209,-62"/>
<text text-anchor="middle" x="2278.5" y="-69" font-family="Helvetica,sans-Serif" font-size="10.00">road_rulebook_builder.cc</text>
</a>
</g>
</g>
<!-- Node16&#45;&gt;Node18 -->
<g id="edge22" class="edge">
<title>Node16&#45;&gt;Node18</title>
<path fill="none" stroke="midnightblue" d="M1462.48,-123.04C1789.79,-88.69 1876.63,-124.34 2199.5,-87 2211.97,-85.56 2225.43,-83.34 2237.65,-81.07"/>
<polygon fill="midnightblue" stroke="midnightblue" points="1461.81,-119.59 1452.23,-124.13 1462.55,-126.56 1461.81,-119.59"/>
</g>
<!-- Node19 -->
<g id="node19" class="node">
<title>Node19</title>
<g id="a_node19"><a xlink:href="road__rulebook__builder__old__rules_8cc.html" target="_top" xlink:title=" ">
<polygon fill="white" stroke="black" points="1570,-56.5 1570,-86.5 1695,-86.5 1695,-56.5 1570,-56.5"/>
<text text-anchor="start" x="1578" y="-74.5" font-family="Helvetica,sans-Serif" font-size="10.00">road_rulebook_builder</text>
<text text-anchor="middle" x="1632.5" y="-63.5" font-family="Helvetica,sans-Serif" font-size="10.00">_old_rules.cc</text>
</a>
</g>
</g>
<!-- Node16&#45;&gt;Node19 -->
<g id="edge23" class="edge">
<title>Node16&#45;&gt;Node19</title>
<path fill="none" stroke="midnightblue" d="M1449.63,-120.86C1486.37,-111.14 1539.83,-97.01 1579.47,-86.52"/>
<polygon fill="midnightblue" stroke="midnightblue" points="1448.51,-117.53 1439.74,-123.48 1450.3,-124.3 1448.51,-117.53"/>
</g>
<!-- Node20 -->
<g id="node20" class="node">
<title>Node20</title>
<g id="a_node20"><a xlink:href="rule__registry__builder_8cc.html" target="_top" xlink:title=" ">
<polygon fill="white" stroke="black" points="1713,-62 1713,-81 1844,-81 1844,-62 1713,-62"/>
<text text-anchor="middle" x="1778.5" y="-69" font-family="Helvetica,sans-Serif" font-size="10.00">rule_registry_builder.cc</text>
</a>
</g>
</g>
<!-- Node16&#45;&gt;Node20 -->
<g id="edge24" class="edge">
<title>Node16&#45;&gt;Node20</title>
<path fill="none" stroke="midnightblue" d="M1462.34,-122.9C1571.03,-105.98 1600.05,-104.96 1704.5,-87 1714.95,-85.2 1726.2,-83.09 1736.69,-81.04"/>
<polygon fill="midnightblue" stroke="midnightblue" points="1461.62,-119.47 1452.28,-124.47 1462.7,-126.38 1461.62,-119.47"/>
</g>
<!-- Node21 -->
<g id="node21" class="node">
<title>Node21</title>
<g id="a_node21"><a xlink:href="speed__limit__builder_8cc.html" target="_top" xlink:title=" ">
<polygon fill="white" stroke="black" points="1862.5,-62 1862.5,-81 1988.5,-81 1988.5,-62 1862.5,-62"/>
<text text-anchor="middle" x="1925.5" y="-69" font-family="Helvetica,sans-Serif" font-size="10.00">speed_limit_builder.cc</text>
</a>
</g>
</g>
<!-- Node16&#45;&gt;Node21 -->
<g id="edge25" class="edge">
<title>Node16&#45;&gt;Node21</title>
<path fill="none" stroke="midnightblue" d="M1462.28,-123C1636.74,-101.03 1683.6,-111.84 1853.5,-87 1864.48,-85.4 1876.31,-83.21 1887.15,-81.02"/>
<polygon fill="midnightblue" stroke="midnightblue" points="1461.73,-119.54 1452.25,-124.28 1462.61,-126.49 1461.73,-119.54"/>
</g>
<!-- Node22&#45;&gt;Node9 -->
<g id="edge30" class="edge">
<title>Node22&#45;&gt;Node9</title>
<path fill="none" stroke="midnightblue" d="M416.8,-122.02C338.46,-110.97 223.9,-93.81 216.5,-87 197.3,-69.3 196.21,-35.4 196.87,-19.56"/>
<polygon fill="midnightblue" stroke="midnightblue" points="416.73,-125.55 427.12,-123.47 417.71,-118.62 416.73,-125.55"/>
</g>
<!-- Node23 -->
<g id="node23" class="node">
<title>Node23</title>
<g id="a_node23"><a xlink:href="determine__tolerance_8cc.html" target="_top" xlink:title=" ">
<polygon fill="white" stroke="black" points="226,-62 226,-81 357,-81 357,-62 226,-62"/>
<text text-anchor="middle" x="291.5" y="-69" font-family="Helvetica,sans-Serif" font-size="10.00">determine_tolerance.cc</text>
</a>
</g>
</g>
<!-- Node22&#45;&gt;Node23 -->
<g id="edge29" class="edge">
<title>Node22&#45;&gt;Node23</title>
<path fill="none" stroke="midnightblue" d="M451.33,-120.53C412.84,-108.96 354.34,-91.38 319.82,-81.01"/>
<polygon fill="midnightblue" stroke="midnightblue" points="450.55,-123.95 461.13,-123.48 452.56,-117.25 450.55,-123.95"/>
</g>
<!-- Node24&#45;&gt;Node9 -->
<g id="edge33" class="edge">
<title>Node24&#45;&gt;Node9</title>
<path fill="none" stroke="midnightblue" d="M277.29,-121.56C238.53,-114.02 195.22,-102.44 183.5,-87 168.09,-66.69 183.27,-34.67 192.12,-19.5"/>
<polygon fill="midnightblue" stroke="midnightblue" points="277.07,-125.08 287.54,-123.49 278.36,-118.2 277.07,-125.08"/>
</g>
<!-- Node25 -->
<g id="node25" class="node">
<title>Node25</title>
<g id="a_node25"><a xlink:href="simplify__geometries_8cc.html" target="_top" xlink:title=" ">
<polygon fill="white" stroke="black" points="0,-62 0,-81 131,-81 131,-62 0,-62"/>
<text text-anchor="middle" x="65.5" y="-69" font-family="Helvetica,sans-Serif" font-size="10.00">simplify_geometries.cc</text>
</a>
</g>
</g>
<!-- Node24&#45;&gt;Node25 -->
<g id="edge34" class="edge">
<title>Node24&#45;&gt;Node25</title>
<path fill="none" stroke="midnightblue" d="M294.47,-121.33C240.36,-109.79 155.19,-91.63 105.4,-81.01"/>
<polygon fill="midnightblue" stroke="midnightblue" points="294.02,-124.81 304.53,-123.48 295.48,-117.97 294.02,-124.81"/>
</g>
<!-- Node26&#45;&gt;Node13 -->
<g id="edge36" class="edge">
<title>Node26&#45;&gt;Node13</title>
<path fill="none" stroke="midnightblue" d="M1001.33,-120.97C1046.18,-109.41 1115.67,-91.52 1156.46,-81.01"/>
<polygon fill="midnightblue" stroke="midnightblue" points="1000.41,-117.59 991.6,-123.48 1002.15,-124.37 1000.41,-117.59"/>
</g>
<!-- Node26&#45;&gt;Node15 -->
<g id="edge37" class="edge">
<title>Node26&#45;&gt;Node15</title>
<path fill="none" stroke="midnightblue" d="M944.35,-115.81C936.34,-106.65 926.43,-95.3 918.76,-86.52"/>
<polygon fill="midnightblue" stroke="midnightblue" points="941.83,-118.25 951.05,-123.48 947.1,-113.64 941.83,-118.25"/>
</g>
<!-- Node27&#45;&gt;Node14 -->
<g id="edge39" class="edge">
<title>Node27&#45;&gt;Node14</title>
<path fill="none" stroke="midnightblue" d="M1140.26,-120.97C1186.08,-109.41 1257.07,-91.52 1298.75,-81.01"/>
<polygon fill="midnightblue" stroke="midnightblue" points="1139.15,-117.64 1130.31,-123.48 1140.87,-124.42 1139.15,-117.64"/>
</g>
<!-- Node27&#45;&gt;Node15 -->
<g id="edge40" class="edge">
<title>Node27&#45;&gt;Node15</title>
<path fill="none" stroke="midnightblue" d="M1059.72,-120.48C1028.75,-110.78 984.32,-96.87 951.28,-86.52"/>
<polygon fill="midnightblue" stroke="midnightblue" points="1058.69,-123.83 1069.28,-123.48 1060.78,-117.15 1058.69,-123.83"/>
</g>
</g>
</svg>
        <g id="navigator" transform="translate(0 0)" fill="#404254">
                <rect fill="#f2f5e9" fill-opacity="0.5" stroke="#606060" stroke-width=".5" x="0" y="0" width="60" height="60"/>
                <use id="zoomplus" xlink:href="#zoomPlus" x="17" y="9" onmousedown="handleZoom(evt,'in')"/>
                <use id="zoomminus" xlink:href="#zoomMin" x="42" y="9" onmousedown="handleZoom(evt,'out')"/>
                <use id="reset" xlink:href="#resetDef" x="30" y="36" onmousedown="handleReset()"/>
                <g id="arrowUp" xlink:href="#dirArrow" transform="translate(30 24)" onmousedown="handlePan(0,-1)">
                  <use xlink:href="#rim" fill="#404040">
                        <set attributeName="fill" to="#808080" begin="arrowUp.mouseover" end="arrowUp.mouseout"/>
                  </use>
                  <path fill="none" stroke="white" stroke-width="1.5" d="M0,-3.0v7 M-2.5,-0.5L0,-3.0L2.5,-0.5"/>
                </g>
                <g id="arrowRight" xlink:href="#dirArrow" transform="rotate(90) translate(36 -43)" onmousedown="handlePan(1,0)">
                  <use xlink:href="#rim" fill="#404040">
                        <set attributeName="fill" to="#808080" begin="arrowRight.mouseover" end="arrowRight.mouseout"/>
                  </use>
                  <path fill="none" stroke="white" stroke-width="1.5" d="M0,-3.0v7 M-2.5,-0.5L0,-3.0L2.5,-0.5"/>
                </g>
                <g id="arrowDown" xlink:href="#dirArrow" transform="rotate(180) translate(-30 -48)" onmousedown="handlePan(0,1)">
                  <use xlink:href="#rim" fill="#404040">
                        <set attributeName="fill" to="#808080" begin="arrowDown.mouseover" end="arrowDown.mouseout"/>
                  </use>
                  <path fill="none" stroke="white" stroke-width="1.5" d="M0,-3.0v7 M-2.5,-0.5L0,-3.0L2.5,-0.5"/>
                </g>
                <g id="arrowLeft" xlink:href="#dirArrow" transform="rotate(270) translate(-36 17)" onmousedown="handlePan(-1,0)">
                  <use xlink:href="#rim" fill="#404040">
                        <set attributeName="fill" to="#808080" begin="arrowLeft.mouseover" end="arrowLeft.mouseout"/>
                  </use>
                  <path fill="none" stroke="white" stroke-width="1.5" d="M0,-3.0v7 M-2.5,-0.5L0,-3.0L2.5,-0.5"/>
                </g>
        </g>
        <svg viewBox="0 0 15 15" width="100%" height="30px" preserveAspectRatio="xMaxYMin meet">
         <g id="arrow_out" transform="scale(0.3 0.3)">
          <a xlink:href="db__manager_8h__dep__incl_org.svg" target="_base">
           <rect id="button" ry="5" rx="5" y="6" x="6" height="38" width="38"
                fill="#f2f5e9" fill-opacity="0.5" stroke="#606060" stroke-width="1.0"/>
           <path id="arrow"
             d="M 11.500037,31.436501 C 11.940474,20.09759 22.043105,11.32322 32.158766,21.979434 L 37.068811,17.246167 C 37.068811,17.246167 37.088388,32 37.088388,32 L 22.160133,31.978069 C 22.160133,31.978069 26.997745,27.140456 26.997745,27.140456 C 18.528582,18.264221 13.291696,25.230495 11.500037,31.436501 z"
             style="fill:#404040;"/>
          </a>
         </g>
        </svg>
</svg>
