<?xml version="1.0" encoding="UTF-8" standalone="no"?>
<!DOCTYPE svg PUBLIC "-//W3C//DTD SVG 1.1//EN"
 "http://www.w3.org/Graphics/SVG/1.1/DTD/svg11.dtd">
<!-- Generated by graphviz version 2.43.0 (0)
 -->
<!-- Title: ground_curve.h Pages: 1 -->
<!--zoomable 442 -->
<svg id="main" version="1.1" xmlns="http://www.w3.org/2000/svg" xmlns:xlink="http://www.w3.org/1999/xlink" xml:space="preserve" onload="init(evt)">
<style type="text/css"><![CDATA[
.edge:hover path { stroke: red; }
.edge:hover polygon { stroke: red; fill: red; }
]]></style>
<script type="text/javascript"><![CDATA[
var edges = document.getElementsByTagName('g');
if (edges && edges.length) {
  for (var i=0;i<edges.length;i++) {
    if (edges[i].id.substr(0,4)=='edge') {
      edges[i].setAttribute('class','edge');
    }
  }
}
]]></script>
        <defs>
                <circle id="rim" cx="0" cy="0" r="7"/>
                <circle id="rim2" cx="0" cy="0" r="3.5"/>
                <g id="zoomPlus">
                        <use xlink:href="#rim" fill="#404040">
                                <set attributeName="fill" to="#808080" begin="zoomplus.mouseover" end="zoomplus.mouseout"/>
                        </use>
                        <path d="M-4,0h8M0,-4v8" fill="none" stroke="white" stroke-width="1.5" pointer-events="none"/>
                </g>
                <g id="zoomMin">
                        <use xlink:href="#rim" fill="#404040">
                                <set attributeName="fill" to="#808080" begin="zoomminus.mouseover" end="zoomminus.mouseout"/>
                        </use>
                        <path d="M-4,0h8" fill="none" stroke="white" stroke-width="1.5" pointer-events="none"/>
                </g>
                <g id="dirArrow">
                        <path fill="none" stroke="white" stroke-width="1.5" d="M0,-3.0v7 M-2.5,-0.5L0,-3.0L2.5,-0.5"/>
                </g>
               <g id="resetDef">
                       <use xlink:href="#rim2" fill="#404040">
                               <set attributeName="fill" to="#808080" begin="reset.mouseover" end="reset.mouseout"/>
                       </use>
               </g>
        </defs>

<script type="text/javascript">
var viewWidth = 2203;
var viewHeight = 442;
var sectionId = 'dynsection-1';
</script>
<script xlink:href="svgpan.js"/>
<svg id="graph" class="graph">
<g id="viewport">
<title>ground_curve.h</title>
<polygon fill="white" stroke="transparent" points="-4,4 -4,-438 2199.05,-438 2199.05,4 -4,4"/>
<!-- Node1 -->
<g id="node1" class="node">
<title>Node1</title>
<g id="a_node1"><a xlink:title=" ">
<polygon fill="#bfbfbf" stroke="black" points="571.5,-414.5 571.5,-433.5 663.5,-433.5 663.5,-414.5 571.5,-414.5"/>
<text text-anchor="middle" x="617.5" y="-421.5" font-family="Helvetica,sans-Serif" font-size="10.00">ground_curve.h</text>
</a>
</g>
</g>
<!-- Node2 -->
<g id="node2" class="node">
<title>Node2</title>
<g id="a_node2"><a xlink:href="determine__tolerance_8cc.html" target="_top" xlink:title=" ">
<polygon fill="white" stroke="black" points="0,-358.5 0,-377.5 131,-377.5 131,-358.5 0,-358.5"/>
<text text-anchor="middle" x="65.5" y="-365.5" font-family="Helvetica,sans-Serif" font-size="10.00">determine_tolerance.cc</text>
</a>
</g>
</g>
<!-- Node1&#45;&gt;Node2 -->
<g id="edge1" class="edge">
<title>Node1&#45;&gt;Node2</title>
<path fill="none" stroke="midnightblue" d="M561.24,-418.16C471.98,-410.37 292.45,-394.28 140.5,-378 137.5,-377.68 134.44,-377.34 131.34,-377"/>
<polygon fill="midnightblue" stroke="midnightblue" points="561.15,-421.66 571.41,-419.04 561.76,-414.69 561.15,-421.66"/>
</g>
<!-- Node3 -->
<g id="node3" class="node">
<title>Node3</title>
<g id="a_node3"><a xlink:href="road__curve__factory_8h.html" target="_top" xlink:title=" ">
<polygon fill="white" stroke="black" points="801.5,-302.5 801.5,-321.5 919.5,-321.5 919.5,-302.5 801.5,-302.5"/>
<text text-anchor="middle" x="860.5" y="-309.5" font-family="Helvetica,sans-Serif" font-size="10.00">road_curve_factory.h</text>
</a>
</g>
</g>
<!-- Node1&#45;&gt;Node3 -->
<g id="edge2" class="edge">
<title>Node1&#45;&gt;Node3</title>
<path fill="none" stroke="midnightblue" d="M672.88,-412.16C703.54,-404.92 741.75,-393.78 773.5,-378 804.57,-362.56 835.92,-335.74 851.1,-321.87"/>
<polygon fill="midnightblue" stroke="midnightblue" points="671.76,-408.83 662.8,-414.47 673.32,-415.65 671.76,-408.83"/>
</g>
<!-- Node8 -->
<g id="node8" class="node">
<title>Node8</title>
<g id="a_node8"><a xlink:href="arc__ground__curve_8h.html" target="_top" xlink:title=" ">
<polygon fill="white" stroke="black" points="488.5,-358.5 488.5,-377.5 600.5,-377.5 600.5,-358.5 488.5,-358.5"/>
<text text-anchor="middle" x="544.5" y="-365.5" font-family="Helvetica,sans-Serif" font-size="10.00">arc_ground_curve.h</text>
</a>
</g>
</g>
<!-- Node1&#45;&gt;Node8 -->
<g id="edge8" class="edge">
<title>Node1&#45;&gt;Node8</title>
<path fill="none" stroke="midnightblue" d="M597.36,-408.1C584.22,-398.38 567.52,-386.03 556.44,-377.83"/>
<polygon fill="midnightblue" stroke="midnightblue" points="595.65,-411.19 605.77,-414.32 599.81,-405.56 595.65,-411.19"/>
</g>
<!-- Node10 -->
<g id="node10" class="node">
<title>Node10</title>
<g id="a_node10"><a xlink:href="line__ground__curve_8h.html" target="_top" xlink:title=" ">
<polygon fill="white" stroke="black" points="338,-358.5 338,-377.5 453,-377.5 453,-358.5 338,-358.5"/>
<text text-anchor="middle" x="395.5" y="-365.5" font-family="Helvetica,sans-Serif" font-size="10.00">line_ground_curve.h</text>
</a>
</g>
</g>
<!-- Node1&#45;&gt;Node10 -->
<g id="edge11" class="edge">
<title>Node1&#45;&gt;Node10</title>
<path fill="none" stroke="midnightblue" d="M572.38,-412.02C530.44,-401.82 468.85,-386.84 430.51,-377.52"/>
<polygon fill="midnightblue" stroke="midnightblue" points="571.78,-415.48 582.32,-414.44 573.43,-408.68 571.78,-415.48"/>
</g>
<!-- Node12 -->
<g id="node12" class="node">
<title>Node12</title>
<g id="a_node12"><a xlink:href="piecewise__ground__curve_8h.html" target="_top" xlink:title=" ">
<polygon fill="white" stroke="black" points="618.5,-358.5 618.5,-377.5 764.5,-377.5 764.5,-358.5 618.5,-358.5"/>
<text text-anchor="middle" x="691.5" y="-365.5" font-family="Helvetica,sans-Serif" font-size="10.00">piecewise_ground_curve.h</text>
</a>
</g>
</g>
<!-- Node1&#45;&gt;Node12 -->
<g id="edge14" class="edge">
<title>Node1&#45;&gt;Node12</title>
<path fill="none" stroke="midnightblue" d="M637.53,-408.38C650.91,-398.62 668.06,-386.11 679.39,-377.83"/>
<polygon fill="midnightblue" stroke="midnightblue" points="635.4,-405.6 629.39,-414.32 639.53,-411.26 635.4,-405.6"/>
</g>
<!-- Node14 -->
<g id="node14" class="node">
<title>Node14</title>
<g id="a_node14"><a xlink:href="road__curve_8h.html" target="_top" xlink:title=" ">
<polygon fill="white" stroke="black" points="926.5,-358.5 926.5,-377.5 1006.5,-377.5 1006.5,-358.5 926.5,-358.5"/>
<text text-anchor="middle" x="966.5" y="-365.5" font-family="Helvetica,sans-Serif" font-size="10.00">road_curve.h</text>
</a>
</g>
</g>
<!-- Node1&#45;&gt;Node14 -->
<g id="edge17" class="edge">
<title>Node1&#45;&gt;Node14</title>
<path fill="none" stroke="midnightblue" d="M673.92,-414.27C744.73,-403.31 864.39,-384.8 926.46,-375.2"/>
<polygon fill="midnightblue" stroke="midnightblue" points="673.19,-410.84 663.84,-415.83 674.26,-417.76 673.19,-410.84"/>
</g>
<!-- Node35 -->
<g id="node35" class="node">
<title>Node35</title>
<g id="a_node35"><a xlink:href="spiral__ground__curve_8h.html" target="_top" xlink:title=" ">
<polygon fill="white" stroke="black" points="149.5,-358.5 149.5,-377.5 273.5,-377.5 273.5,-358.5 149.5,-358.5"/>
<text text-anchor="middle" x="211.5" y="-365.5" font-family="Helvetica,sans-Serif" font-size="10.00">spiral_ground_curve.h</text>
</a>
</g>
</g>
<!-- Node1&#45;&gt;Node35 -->
<g id="edge62" class="edge">
<title>Node1&#45;&gt;Node35</title>
<path fill="none" stroke="midnightblue" d="M561.05,-415.49C485.47,-405.44 351.84,-387.67 273.52,-377.25"/>
<polygon fill="midnightblue" stroke="midnightblue" points="560.95,-419.01 571.32,-416.86 561.87,-412.07 560.95,-419.01"/>
</g>
<!-- Node37 -->
<g id="node37" class="node">
<title>Node37</title>
<g id="a_node37"><a xlink:href="ground__curve__stub_8h.html" target="_top" xlink:title=" ">
<polygon fill="white" stroke="black" points="1024.5,-358.5 1024.5,-377.5 1142.5,-377.5 1142.5,-358.5 1024.5,-358.5"/>
<text text-anchor="middle" x="1083.5" y="-365.5" font-family="Helvetica,sans-Serif" font-size="10.00">ground_curve_stub.h</text>
</a>
</g>
</g>
<!-- Node1&#45;&gt;Node37 -->
<g id="edge65" class="edge">
<title>Node1&#45;&gt;Node37</title>
<path fill="none" stroke="midnightblue" d="M673.78,-416.98C750.92,-408.64 893.8,-392.93 1015.5,-378 1018.34,-377.65 1021.24,-377.29 1024.17,-376.92"/>
<polygon fill="midnightblue" stroke="midnightblue" points="673.37,-413.5 663.8,-418.05 674.12,-420.46 673.37,-413.5"/>
</g>
<!-- Node4 -->
<g id="node4" class="node">
<title>Node4</title>
<g id="a_node4"><a xlink:href="road__curve__factory_8cc.html" target="_top" xlink:title=" ">
<polygon fill="white" stroke="black" points="506.5,-246.5 506.5,-265.5 628.5,-265.5 628.5,-246.5 506.5,-246.5"/>
<text text-anchor="middle" x="567.5" y="-253.5" font-family="Helvetica,sans-Serif" font-size="10.00">road_curve_factory.cc</text>
</a>
</g>
</g>
<!-- Node3&#45;&gt;Node4 -->
<g id="edge3" class="edge">
<title>Node3&#45;&gt;Node4</title>
<path fill="none" stroke="midnightblue" d="M804.07,-300.6C748.7,-290.4 665.27,-275.02 613.71,-265.52"/>
<polygon fill="midnightblue" stroke="midnightblue" points="803.6,-304.07 814.07,-302.44 804.87,-297.19 803.6,-304.07"/>
</g>
<!-- Node5 -->
<g id="node5" class="node">
<title>Node5</title>
<g id="a_node5"><a xlink:href="road__geometry__builder_8cc.html" target="_top" xlink:title=" ">
<polygon fill="white" stroke="black" points="774,-0.5 774,-19.5 917,-19.5 917,-0.5 774,-0.5"/>
<text text-anchor="middle" x="845.5" y="-7.5" font-family="Helvetica,sans-Serif" font-size="10.00">road_geometry_builder.cc</text>
</a>
</g>
</g>
<!-- Node3&#45;&gt;Node5 -->
<g id="edge4" class="edge">
<title>Node3&#45;&gt;Node5</title>
<path fill="none" stroke="midnightblue" d="M843.85,-294.99C824.89,-274.96 796.5,-238.67 796.5,-201 796.5,-201 796.5,-201 796.5,-137.5 796.5,-100.31 800.72,-90.13 815.5,-56 821.39,-42.39 831.44,-28.43 838.27,-19.75"/>
<polygon fill="midnightblue" stroke="midnightblue" points="841.55,-297.64 851.06,-302.31 846.54,-292.73 841.55,-297.64"/>
</g>
<!-- Node6 -->
<g id="node6" class="node">
<title>Node6</title>
<g id="a_node6"><a xlink:href="road__geometry__builder_8h.html" target="_top" xlink:title=" ">
<polygon fill="white" stroke="black" points="825,-62 825,-81 964,-81 964,-62 825,-62"/>
<text text-anchor="middle" x="894.5" y="-69" font-family="Helvetica,sans-Serif" font-size="10.00">road_geometry_builder.h</text>
</a>
</g>
</g>
<!-- Node3&#45;&gt;Node6 -->
<g id="edge5" class="edge">
<title>Node3&#45;&gt;Node6</title>
<path fill="none" stroke="midnightblue" d="M863.18,-292.17C870.11,-243.6 888.37,-115.49 893.27,-81.1"/>
<polygon fill="midnightblue" stroke="midnightblue" points="859.7,-291.83 861.75,-302.23 866.63,-292.82 859.7,-291.83"/>
</g>
<!-- Node6&#45;&gt;Node5 -->
<g id="edge6" class="edge">
<title>Node6&#45;&gt;Node5</title>
<path fill="none" stroke="midnightblue" d="M881.05,-54.17C871.81,-42.95 859.93,-28.52 852.51,-19.51"/>
<polygon fill="midnightblue" stroke="midnightblue" points="878.42,-56.48 887.48,-61.98 883.82,-52.03 878.42,-56.48"/>
</g>
<!-- Node7 -->
<g id="node7" class="node">
<title>Node7</title>
<g id="a_node7"><a xlink:href="road__network__builder_8cc.html" target="_top" xlink:title=" ">
<polygon fill="white" stroke="black" points="1610.5,-0.5 1610.5,-19.5 1746.5,-19.5 1746.5,-0.5 1610.5,-0.5"/>
<text text-anchor="middle" x="1678.5" y="-7.5" font-family="Helvetica,sans-Serif" font-size="10.00">road_network_builder.cc</text>
</a>
</g>
</g>
<!-- Node6&#45;&gt;Node7 -->
<g id="edge7" class="edge">
<title>Node6&#45;&gt;Node7</title>
<path fill="none" stroke="midnightblue" d="M945.63,-60.21C954.88,-58.61 964.45,-57.11 973.5,-56 1205.99,-27.34 1484.01,-16.4 1610.19,-12.69"/>
<polygon fill="midnightblue" stroke="midnightblue" points="944.99,-56.77 935.77,-61.98 946.23,-63.66 944.99,-56.77"/>
</g>
<!-- Node8&#45;&gt;Node4 -->
<g id="edge9" class="edge">
<title>Node8&#45;&gt;Node4</title>
<path fill="none" stroke="midnightblue" d="M548.4,-348.35C553.44,-324.25 562,-283.31 565.7,-265.59"/>
<polygon fill="midnightblue" stroke="midnightblue" points="544.93,-347.86 546.3,-358.37 551.78,-349.3 544.93,-347.86"/>
</g>
<!-- Node9 -->
<g id="node9" class="node">
<title>Node9</title>
<g id="a_node9"><a xlink:href="arc__ground__curve_8cc.html" target="_top" xlink:title=" ">
<polygon fill="white" stroke="black" points="423.5,-302.5 423.5,-321.5 539.5,-321.5 539.5,-302.5 423.5,-302.5"/>
<text text-anchor="middle" x="481.5" y="-309.5" font-family="Helvetica,sans-Serif" font-size="10.00">arc_ground_curve.cc</text>
</a>
</g>
</g>
<!-- Node8&#45;&gt;Node9 -->
<g id="edge10" class="edge">
<title>Node8&#45;&gt;Node9</title>
<path fill="none" stroke="midnightblue" d="M526.46,-351.54C515.23,-341.91 501.18,-329.87 491.81,-321.83"/>
<polygon fill="midnightblue" stroke="midnightblue" points="524.51,-354.47 534.38,-358.32 529.06,-349.16 524.51,-354.47"/>
</g>
<!-- Node10&#45;&gt;Node4 -->
<g id="edge12" class="edge">
<title>Node10&#45;&gt;Node4</title>
<path fill="none" stroke="midnightblue" d="M396.32,-347.8C397.95,-333.37 402.44,-314.08 414.5,-302 438.66,-277.8 475.12,-266.48 506.38,-261.24"/>
<polygon fill="midnightblue" stroke="midnightblue" points="392.8,-347.86 395.54,-358.1 399.78,-348.39 392.8,-347.86"/>
</g>
<!-- Node11 -->
<g id="node11" class="node">
<title>Node11</title>
<g id="a_node11"><a xlink:href="line__ground__curve_8cc.html" target="_top" xlink:title=" ">
<polygon fill="white" stroke="black" points="248,-302.5 248,-321.5 367,-321.5 367,-302.5 248,-302.5"/>
<text text-anchor="middle" x="307.5" y="-309.5" font-family="Helvetica,sans-Serif" font-size="10.00">line_ground_curve.cc</text>
</a>
</g>
</g>
<!-- Node10&#45;&gt;Node11 -->
<g id="edge13" class="edge">
<title>Node10&#45;&gt;Node11</title>
<path fill="none" stroke="midnightblue" d="M372.52,-352.9C356.39,-343 335.32,-330.07 321.6,-321.65"/>
<polygon fill="midnightblue" stroke="midnightblue" points="371.01,-356.08 381.36,-358.32 374.67,-350.11 371.01,-356.08"/>
</g>
<!-- Node12&#45;&gt;Node4 -->
<g id="edge15" class="edge">
<title>Node12&#45;&gt;Node4</title>
<path fill="none" stroke="midnightblue" d="M667.71,-353.14C654.39,-344.87 637.84,-333.73 624.5,-322 603.98,-303.96 583.83,-278.72 573.89,-265.63"/>
<polygon fill="midnightblue" stroke="midnightblue" points="665.97,-356.17 676.33,-358.37 669.6,-350.19 665.97,-356.17"/>
</g>
<!-- Node13 -->
<g id="node13" class="node">
<title>Node13</title>
<g id="a_node13"><a xlink:href="piecewise__ground__curve_8cc.html" target="_top" xlink:title=" ">
<polygon fill="white" stroke="black" points="633.5,-302.5 633.5,-321.5 783.5,-321.5 783.5,-302.5 633.5,-302.5"/>
<text text-anchor="middle" x="708.5" y="-309.5" font-family="Helvetica,sans-Serif" font-size="10.00">piecewise_ground_curve.cc</text>
</a>
</g>
</g>
<!-- Node12&#45;&gt;Node13 -->
<g id="edge16" class="edge">
<title>Node12&#45;&gt;Node13</title>
<path fill="none" stroke="midnightblue" d="M697.36,-348.4C700.2,-339.36 703.48,-328.94 705.75,-321.75"/>
<polygon fill="midnightblue" stroke="midnightblue" points="693.97,-347.49 694.31,-358.08 700.65,-349.6 693.97,-347.49"/>
</g>
<!-- Node14&#45;&gt;Node3 -->
<g id="edge56" class="edge">
<title>Node14&#45;&gt;Node3</title>
<path fill="none" stroke="midnightblue" d="M940.44,-353.73C920.82,-343.73 894.47,-330.31 877.49,-321.65"/>
<polygon fill="midnightblue" stroke="midnightblue" points="938.97,-356.9 949.47,-358.32 942.15,-350.67 938.97,-356.9"/>
</g>
<!-- Node15 -->
<g id="node15" class="node">
<title>Node15</title>
<g id="a_node15"><a xlink:href="base_2lane_8h.html" target="_top" xlink:title=" ">
<polygon fill="white" stroke="black" points="1234,-246.5 1234,-265.5 1281,-265.5 1281,-246.5 1234,-246.5"/>
<text text-anchor="middle" x="1257.5" y="-253.5" font-family="Helvetica,sans-Serif" font-size="10.00">lane.h</text>
</a>
</g>
</g>
<!-- Node14&#45;&gt;Node15 -->
<g id="edge18" class="edge">
<title>Node14&#45;&gt;Node15</title>
<path fill="none" stroke="midnightblue" d="M1016.84,-358.04C1079.54,-349.98 1202.93,-353.4 1238.5,-322 1254.89,-307.53 1257.5,-279.77 1257.69,-265.68"/>
<polygon fill="midnightblue" stroke="midnightblue" points="1015.98,-354.63 1006.6,-359.56 1017,-361.55 1015.98,-354.63"/>
</g>
<!-- Node18 -->
<g id="node18" class="node">
<title>Node18</title>
<g id="a_node18"><a xlink:href="segment_8h.html" target="_top" xlink:title=" ">
<polygon fill="white" stroke="black" points="975.5,-190.5 975.5,-209.5 1043.5,-209.5 1043.5,-190.5 975.5,-190.5"/>
<text text-anchor="middle" x="1009.5" y="-197.5" font-family="Helvetica,sans-Serif" font-size="10.00">segment.h</text>
</a>
</g>
</g>
<!-- Node14&#45;&gt;Node18 -->
<g id="edge55" class="edge">
<title>Node14&#45;&gt;Node18</title>
<path fill="none" stroke="midnightblue" d="M971.44,-347.93C980.77,-311.92 1000.63,-235.23 1007.28,-209.57"/>
<polygon fill="midnightblue" stroke="midnightblue" points="967.93,-347.52 968.81,-358.08 974.71,-349.27 967.93,-347.52"/>
</g>
<!-- Node19 -->
<g id="node19" class="node">
<title>Node19</title>
<g id="a_node19"><a xlink:href="road__geometry_8h.html" target="_top" xlink:title=" ">
<polygon fill="white" stroke="black" points="1004.5,-129 1004.5,-148 1102.5,-148 1102.5,-129 1004.5,-129"/>
<text text-anchor="middle" x="1053.5" y="-136" font-family="Helvetica,sans-Serif" font-size="10.00">road_geometry.h</text>
</a>
</g>
</g>
<!-- Node14&#45;&gt;Node19 -->
<g id="edge54" class="edge">
<title>Node14&#45;&gt;Node19</title>
<path fill="none" stroke="midnightblue" d="M960.89,-348.6C951.68,-314.64 937.16,-240.96 966.5,-190 978.7,-168.81 1003.58,-155.69 1023.61,-148.16"/>
<polygon fill="midnightblue" stroke="midnightblue" points="957.61,-349.85 963.74,-358.5 964.34,-347.92 957.61,-349.85"/>
</g>
<!-- Node32 -->
<g id="node32" class="node">
<title>Node32</title>
<g id="a_node32"><a xlink:href="road__curve_8cc.html" target="_top" xlink:title=" ">
<polygon fill="white" stroke="black" points="1145.5,-302.5 1145.5,-321.5 1229.5,-321.5 1229.5,-302.5 1145.5,-302.5"/>
<text text-anchor="middle" x="1187.5" y="-309.5" font-family="Helvetica,sans-Serif" font-size="10.00">road_curve.cc</text>
</a>
</g>
</g>
<!-- Node14&#45;&gt;Node32 -->
<g id="edge57" class="edge">
<title>Node14&#45;&gt;Node32</title>
<path fill="none" stroke="midnightblue" d="M1011.42,-356.02C1053.17,-345.82 1114.48,-330.84 1152.65,-321.52"/>
<polygon fill="midnightblue" stroke="midnightblue" points="1010.4,-352.67 1001.52,-358.44 1012.06,-359.47 1010.4,-352.67"/>
</g>
<!-- Node33 -->
<g id="node33" class="node">
<title>Node33</title>
<g id="a_node33"><a xlink:href="road__curve__offset_8h.html" target="_top" xlink:title=" ">
<polygon fill="white" stroke="black" points="1014,-302.5 1014,-321.5 1127,-321.5 1127,-302.5 1014,-302.5"/>
<text text-anchor="middle" x="1070.5" y="-309.5" font-family="Helvetica,sans-Serif" font-size="10.00">road_curve_offset.h</text>
</a>
</g>
</g>
<!-- Node14&#45;&gt;Node33 -->
<g id="edge58" class="edge">
<title>Node14&#45;&gt;Node33</title>
<path fill="none" stroke="midnightblue" d="M992.33,-353.59C1011.56,-343.61 1037.24,-330.27 1053.83,-321.65"/>
<polygon fill="midnightblue" stroke="midnightblue" points="990.47,-350.61 983.21,-358.32 993.7,-356.82 990.47,-350.61"/>
</g>
<!-- Node15&#45;&gt;Node6 -->
<g id="edge40" class="edge">
<title>Node15&#45;&gt;Node6</title>
<path fill="none" stroke="midnightblue" d="M1224,-246.58C1172.25,-232.62 1070.96,-201.42 995.5,-154 978.46,-143.29 977.94,-135.91 962.5,-123 943.77,-107.34 920.74,-90.76 906.86,-81.03"/>
<polygon fill="midnightblue" stroke="midnightblue" points="1223.11,-249.97 1233.67,-249.14 1224.9,-243.2 1223.11,-249.97"/>
</g>
<!-- Node16 -->
<g id="node16" class="node">
<title>Node16</title>
<g id="a_node16"><a xlink:href="base_2lane_8cc.html" target="_top" xlink:title=" ">
<polygon fill="white" stroke="black" points="982,-62 982,-81 1033,-81 1033,-62 982,-62"/>
<text text-anchor="middle" x="1007.5" y="-69" font-family="Helvetica,sans-Serif" font-size="10.00">lane.cc</text>
</a>
</g>
</g>
<!-- Node15&#45;&gt;Node16 -->
<g id="edge19" class="edge">
<title>Node15&#45;&gt;Node16</title>
<path fill="none" stroke="midnightblue" d="M1237.17,-240.54C1225.55,-232.02 1210.86,-220.81 1198.5,-210 1188.21,-201 1122.64,-130.93 1111.5,-123 1097.03,-112.7 1052.85,-92.5 1026.97,-81.02"/>
<polygon fill="midnightblue" stroke="midnightblue" points="1235.23,-243.45 1245.38,-246.49 1239.33,-237.78 1235.23,-243.45"/>
</g>
<!-- Node17 -->
<g id="node17" class="node">
<title>Node17</title>
<g id="a_node17"><a xlink:href="road__geometry_8cc.html" target="_top" xlink:title=" ">
<polygon fill="white" stroke="black" points="1051,-62 1051,-81 1154,-81 1154,-62 1051,-62"/>
<text text-anchor="middle" x="1102.5" y="-69" font-family="Helvetica,sans-Serif" font-size="10.00">road_geometry.cc</text>
</a>
</g>
</g>
<!-- Node15&#45;&gt;Node17 -->
<g id="edge20" class="edge">
<title>Node15&#45;&gt;Node17</title>
<path fill="none" stroke="midnightblue" d="M1243.21,-238.18C1211.09,-200.36 1134.09,-109.69 1109.9,-81.21"/>
<polygon fill="midnightblue" stroke="midnightblue" points="1240.88,-240.84 1250.02,-246.2 1246.22,-236.31 1240.88,-240.84"/>
</g>
<!-- Node15&#45;&gt;Node18 -->
<g id="edge21" class="edge">
<title>Node15&#45;&gt;Node18</title>
<path fill="none" stroke="midnightblue" d="M1223.69,-247.64C1176.49,-237.36 1091.29,-218.81 1043.81,-208.47"/>
<polygon fill="midnightblue" stroke="midnightblue" points="1223.2,-251.11 1233.72,-249.82 1224.69,-244.27 1223.2,-251.11"/>
</g>
<!-- Node21 -->
<g id="node21" class="node">
<title>Node21</title>
<g id="a_node21"><a xlink:href="builder__tools_8h.html" target="_top" xlink:title=" ">
<polygon fill="white" stroke="black" points="1533,-129 1533,-148 1622,-148 1622,-129 1533,-129"/>
<text text-anchor="middle" x="1577.5" y="-136" font-family="Helvetica,sans-Serif" font-size="10.00">builder_tools.h</text>
</a>
</g>
</g>
<!-- Node15&#45;&gt;Node21 -->
<g id="edge28" class="edge">
<title>Node15&#45;&gt;Node21</title>
<path fill="none" stroke="midnightblue" d="M1290.76,-243C1355.66,-219.57 1497.73,-168.29 1553.94,-148.01"/>
<polygon fill="midnightblue" stroke="midnightblue" points="1289.25,-239.82 1281.03,-246.51 1291.62,-246.4 1289.25,-239.82"/>
</g>
<!-- Node27 -->
<g id="node27" class="node">
<title>Node27</title>
<g id="a_node27"><a xlink:href="direction__usage__builder_8h.html" target="_top" xlink:title=" ">
<polygon fill="white" stroke="black" points="1336.5,-129 1336.5,-148 1478.5,-148 1478.5,-129 1336.5,-129"/>
<text text-anchor="middle" x="1407.5" y="-136" font-family="Helvetica,sans-Serif" font-size="10.00">direction_usage_builder.h</text>
</a>
</g>
</g>
<!-- Node15&#45;&gt;Node27 -->
<g id="edge37" class="edge">
<title>Node15&#45;&gt;Node27</title>
<path fill="none" stroke="midnightblue" d="M1276.86,-240.1C1308.55,-215.69 1370.56,-167.94 1396.09,-148.28"/>
<polygon fill="midnightblue" stroke="midnightblue" points="1274.56,-237.44 1268.77,-246.32 1278.83,-242.99 1274.56,-237.44"/>
</g>
<!-- Node28 -->
<g id="node28" class="node">
<title>Node28</title>
<g id="a_node28"><a xlink:href="road__rulebook__builder_8h.html" target="_top" xlink:title=" ">
<polygon fill="white" stroke="black" points="1710.5,-129 1710.5,-148 1844.5,-148 1844.5,-129 1710.5,-129"/>
<text text-anchor="middle" x="1777.5" y="-136" font-family="Helvetica,sans-Serif" font-size="10.00">road_rulebook_builder.h</text>
</a>
</g>
</g>
<!-- Node15&#45;&gt;Node28 -->
<g id="edge41" class="edge">
<title>Node15&#45;&gt;Node28</title>
<path fill="none" stroke="midnightblue" d="M1291.12,-247.53C1383.53,-227.01 1640.96,-169.83 1738.95,-148.06"/>
<polygon fill="midnightblue" stroke="midnightblue" points="1290.2,-244.15 1281.19,-249.74 1291.72,-250.99 1290.2,-244.15"/>
</g>
<!-- Node29 -->
<g id="node29" class="node">
<title>Node29</title>
<g id="a_node29"><a xlink:href="road__rulebook__builder__old__rules_8h.html" target="_top" xlink:title=" ">
<polygon fill="white" stroke="black" points="1864,-123.5 1864,-153.5 1989,-153.5 1989,-123.5 1864,-123.5"/>
<text text-anchor="start" x="1872" y="-141.5" font-family="Helvetica,sans-Serif" font-size="10.00">road_rulebook_builder</text>
<text text-anchor="middle" x="1926.5" y="-130.5" font-family="Helvetica,sans-Serif" font-size="10.00">_old_rules.h</text>
</a>
</g>
</g>
<!-- Node15&#45;&gt;Node29 -->
<g id="edge45" class="edge">
<title>Node15&#45;&gt;Node29</title>
<path fill="none" stroke="midnightblue" d="M1291.1,-249.65C1381.9,-235.12 1639.8,-193.35 1853.5,-154 1856.8,-153.39 1860.19,-152.76 1863.61,-152.11"/>
<polygon fill="midnightblue" stroke="midnightblue" points="1290.43,-246.21 1281.11,-251.25 1291.54,-253.12 1290.43,-246.21"/>
</g>
<!-- Node30 -->
<g id="node30" class="node">
<title>Node30</title>
<g id="a_node30"><a xlink:href="rule__registry__builder_8h.html" target="_top" xlink:title=" ">
<polygon fill="white" stroke="black" points="2009.5,-129 2009.5,-148 2135.5,-148 2135.5,-129 2009.5,-129"/>
<text text-anchor="middle" x="2072.5" y="-136" font-family="Helvetica,sans-Serif" font-size="10.00">rule_registry_builder.h</text>
</a>
</g>
</g>
<!-- Node15&#45;&gt;Node30 -->
<g id="edge48" class="edge">
<title>Node15&#45;&gt;Node30</title>
<path fill="none" stroke="midnightblue" d="M1291.28,-251.18C1396.38,-239.14 1726.84,-199.99 1998.5,-154 2009.08,-152.21 2020.48,-150.08 2031.08,-148.01"/>
<polygon fill="midnightblue" stroke="midnightblue" points="1290.8,-247.71 1281.26,-252.33 1291.59,-254.67 1290.8,-247.71"/>
</g>
<!-- Node31 -->
<g id="node31" class="node">
<title>Node31</title>
<g id="a_node31"><a xlink:href="speed__limit__builder_8h.html" target="_top" xlink:title=" ">
<polygon fill="white" stroke="black" points="1196.5,-129 1196.5,-148 1318.5,-148 1318.5,-129 1196.5,-129"/>
<text text-anchor="middle" x="1257.5" y="-136" font-family="Helvetica,sans-Serif" font-size="10.00">speed_limit_builder.h</text>
</a>
</g>
</g>
<!-- Node15&#45;&gt;Node31 -->
<g id="edge51" class="edge">
<title>Node15&#45;&gt;Node31</title>
<path fill="none" stroke="midnightblue" d="M1257.5,-236.16C1257.5,-210.87 1257.5,-166.94 1257.5,-148.28"/>
<polygon fill="midnightblue" stroke="midnightblue" points="1254,-236.32 1257.5,-246.32 1261,-236.32 1254,-236.32"/>
</g>
<!-- Node18&#45;&gt;Node6 -->
<g id="edge27" class="edge">
<title>Node18&#45;&gt;Node6</title>
<path fill="none" stroke="midnightblue" d="M992.47,-183.56C983.34,-175.07 972.04,-164.22 962.5,-154 938.85,-128.68 913.27,-96.6 901.34,-81.34"/>
<polygon fill="midnightblue" stroke="midnightblue" points="990.1,-186.14 999.83,-190.33 994.84,-180.99 990.1,-186.14"/>
</g>
<!-- Node18&#45;&gt;Node19 -->
<g id="edge22" class="edge">
<title>Node18&#45;&gt;Node19</title>
<path fill="none" stroke="midnightblue" d="M1021.82,-182.34C1030.08,-171.17 1040.61,-156.93 1047.21,-148.01"/>
<polygon fill="midnightblue" stroke="midnightblue" points="1018.94,-180.35 1015.8,-190.48 1024.56,-184.52 1018.94,-180.35"/>
</g>
<!-- Node19&#45;&gt;Node6 -->
<g id="edge26" class="edge">
<title>Node19&#45;&gt;Node6</title>
<path fill="none" stroke="midnightblue" d="M1022.77,-124.94C991.19,-112.03 942.88,-92.28 915.45,-81.06"/>
<polygon fill="midnightblue" stroke="midnightblue" points="1021.81,-128.32 1032.39,-128.87 1024.45,-121.84 1021.81,-128.32"/>
</g>
<!-- Node19&#45;&gt;Node16 -->
<g id="edge23" class="edge">
<title>Node19&#45;&gt;Node16</title>
<path fill="none" stroke="midnightblue" d="M1041.4,-120.4C1032.46,-107.77 1020.67,-91.1 1013.61,-81.13"/>
<polygon fill="midnightblue" stroke="midnightblue" points="1038.66,-122.59 1047.3,-128.73 1044.38,-118.55 1038.66,-122.59"/>
</g>
<!-- Node19&#45;&gt;Node17 -->
<g id="edge24" class="edge">
<title>Node19&#45;&gt;Node17</title>
<path fill="none" stroke="midnightblue" d="M1066.39,-120.4C1075.91,-107.77 1088.48,-91.1 1096,-81.13"/>
<polygon fill="midnightblue" stroke="midnightblue" points="1063.33,-118.64 1060.11,-128.73 1068.92,-122.86 1063.33,-118.64"/>
</g>
<!-- Node20 -->
<g id="node20" class="node">
<title>Node20</title>
<g id="a_node20"><a xlink:href="builder__tools_8cc.html" target="_top" xlink:title=" ">
<polygon fill="white" stroke="black" points="1249,-62 1249,-81 1342,-81 1342,-62 1249,-62"/>
<text text-anchor="middle" x="1295.5" y="-69" font-family="Helvetica,sans-Serif" font-size="10.00">builder_tools.cc</text>
</a>
</g>
</g>
<!-- Node19&#45;&gt;Node20 -->
<g id="edge25" class="edge">
<title>Node19&#45;&gt;Node20</title>
<path fill="none" stroke="midnightblue" d="M1095.11,-126.32C1142.9,-113.49 1220.25,-92.71 1263.54,-81.08"/>
<polygon fill="midnightblue" stroke="midnightblue" points="1094.14,-122.96 1085.39,-128.94 1095.95,-129.72 1094.14,-122.96"/>
</g>
<!-- Node21&#45;&gt;Node6 -->
<g id="edge31" class="edge">
<title>Node21&#45;&gt;Node6</title>
<path fill="none" stroke="midnightblue" d="M1522.73,-127.87C1511.13,-126.06 1498.93,-124.32 1487.5,-123 1260,-96.76 1200.7,-115.72 973.5,-87 961.33,-85.46 948.19,-83.27 936.18,-81.05"/>
<polygon fill="midnightblue" stroke="midnightblue" points="1522.32,-131.35 1532.75,-129.48 1523.43,-124.44 1522.32,-131.35"/>
</g>
<!-- Node21&#45;&gt;Node7 -->
<g id="edge32" class="edge">
<title>Node21&#45;&gt;Node7</title>
<path fill="none" stroke="midnightblue" d="M1609.95,-124.75C1627.09,-116.44 1647.08,-103.96 1659.5,-87 1674.6,-66.37 1677.77,-35.05 1678.39,-19.87"/>
<polygon fill="midnightblue" stroke="midnightblue" points="1608.43,-121.6 1600.79,-128.94 1611.34,-127.97 1608.43,-121.6"/>
</g>
<!-- Node21&#45;&gt;Node20 -->
<g id="edge29" class="edge">
<title>Node21&#45;&gt;Node20</title>
<path fill="none" stroke="midnightblue" d="M1527.41,-126.81C1481.54,-116.9 1411.82,-101.54 1351.5,-87 1343.79,-85.14 1335.5,-83.05 1327.73,-81.04"/>
<polygon fill="midnightblue" stroke="midnightblue" points="1526.89,-130.28 1537.4,-128.96 1528.36,-123.44 1526.89,-130.28"/>
</g>
<!-- Node22 -->
<g id="node22" class="node">
<title>Node22</title>
<g id="a_node22"><a xlink:href="direction__usage__builder_8cc.html" target="_top" xlink:title=" ">
<polygon fill="white" stroke="black" points="1504.5,-62 1504.5,-81 1650.5,-81 1650.5,-62 1504.5,-62"/>
<text text-anchor="middle" x="1577.5" y="-69" font-family="Helvetica,sans-Serif" font-size="10.00">direction_usage_builder.cc</text>
</a>
</g>
</g>
<!-- Node21&#45;&gt;Node22 -->
<g id="edge30" class="edge">
<title>Node21&#45;&gt;Node22</title>
<path fill="none" stroke="midnightblue" d="M1577.5,-118.54C1577.5,-106.17 1577.5,-90.62 1577.5,-81.13"/>
<polygon fill="midnightblue" stroke="midnightblue" points="1574,-118.73 1577.5,-128.73 1581,-118.73 1574,-118.73"/>
</g>
<!-- Node23 -->
<g id="node23" class="node">
<title>Node23</title>
<g id="a_node23"><a xlink:href="road__rulebook__builder_8cc.html" target="_top" xlink:title=" ">
<polygon fill="white" stroke="black" points="1707,-62 1707,-81 1846,-81 1846,-62 1707,-62"/>
<text text-anchor="middle" x="1776.5" y="-69" font-family="Helvetica,sans-Serif" font-size="10.00">road_rulebook_builder.cc</text>
</a>
</g>
</g>
<!-- Node21&#45;&gt;Node23 -->
<g id="edge33" class="edge">
<title>Node21&#45;&gt;Node23</title>
<path fill="none" stroke="midnightblue" d="M1613.68,-125.68C1653.12,-112.8 1715.28,-92.5 1750.28,-81.06"/>
<polygon fill="midnightblue" stroke="midnightblue" points="1612.34,-122.44 1603.93,-128.87 1614.52,-129.09 1612.34,-122.44"/>
</g>
<!-- Node24 -->
<g id="node24" class="node">
<title>Node24</title>
<g id="a_node24"><a xlink:href="road__rulebook__builder__old__rules_8cc.html" target="_top" xlink:title=" ">
<polygon fill="white" stroke="black" points="1864,-56.5 1864,-86.5 1989,-86.5 1989,-56.5 1864,-56.5"/>
<text text-anchor="start" x="1872" y="-74.5" font-family="Helvetica,sans-Serif" font-size="10.00">road_rulebook_builder</text>
<text text-anchor="middle" x="1926.5" y="-63.5" font-family="Helvetica,sans-Serif" font-size="10.00">_old_rules.cc</text>
</a>
</g>
</g>
<!-- Node21&#45;&gt;Node24 -->
<g id="edge34" class="edge">
<title>Node21&#45;&gt;Node24</title>
<path fill="none" stroke="midnightblue" d="M1632.41,-127.89C1688.54,-117.98 1778.19,-101.91 1855.5,-87 1858.22,-86.48 1860.99,-85.93 1863.79,-85.38"/>
<polygon fill="midnightblue" stroke="midnightblue" points="1631.57,-124.48 1622.33,-129.67 1632.79,-131.38 1631.57,-124.48"/>
</g>
<!-- Node25 -->
<g id="node25" class="node">
<title>Node25</title>
<g id="a_node25"><a xlink:href="rule__registry__builder_8cc.html" target="_top" xlink:title=" ">
<polygon fill="white" stroke="black" points="2007,-62 2007,-81 2138,-81 2138,-62 2007,-62"/>
<text text-anchor="middle" x="2072.5" y="-69" font-family="Helvetica,sans-Serif" font-size="10.00">rule_registry_builder.cc</text>
</a>
</g>
</g>
<!-- Node21&#45;&gt;Node25 -->
<g id="edge35" class="edge">
<title>Node21&#45;&gt;Node25</title>
<path fill="none" stroke="midnightblue" d="M1632.41,-131.02C1742.36,-118.04 1980.65,-89.82 1998.5,-87 2009.36,-85.29 2021.06,-83.14 2031.88,-81.02"/>
<polygon fill="midnightblue" stroke="midnightblue" points="1631.7,-127.58 1622.18,-132.23 1632.52,-134.53 1631.7,-127.58"/>
</g>
<!-- Node26 -->
<g id="node26" class="node">
<title>Node26</title>
<g id="a_node26"><a xlink:href="speed__limit__builder_8cc.html" target="_top" xlink:title=" ">
<polygon fill="white" stroke="black" points="1360.5,-62 1360.5,-81 1486.5,-81 1486.5,-62 1360.5,-62"/>
<text text-anchor="middle" x="1423.5" y="-69" font-family="Helvetica,sans-Serif" font-size="10.00">speed_limit_builder.cc</text>
</a>
</g>
</g>
<!-- Node21&#45;&gt;Node26 -->
<g id="edge36" class="edge">
<title>Node21&#45;&gt;Node26</title>
<path fill="none" stroke="midnightblue" d="M1547.76,-124.95C1517.27,-112.08 1470.66,-92.4 1444.03,-81.17"/>
<polygon fill="midnightblue" stroke="midnightblue" points="1546.48,-128.2 1557.05,-128.87 1549.2,-121.76 1546.48,-128.2"/>
</g>
<!-- Node27&#45;&gt;Node7 -->
<g id="edge39" class="edge">
<title>Node27&#45;&gt;Node7</title>
<path fill="none" stroke="midnightblue" d="M1346.59,-126.92C1304.36,-118.2 1253.45,-104.45 1240.5,-87 1232.29,-75.94 1231.27,-66.23 1240.5,-56 1264.76,-29.12 1493.11,-17.38 1610.1,-13.09"/>
<polygon fill="midnightblue" stroke="midnightblue" points="1346.07,-130.39 1356.56,-128.92 1347.45,-123.52 1346.07,-130.39"/>
</g>
<!-- Node27&#45;&gt;Node22 -->
<g id="edge38" class="edge">
<title>Node27&#45;&gt;Node22</title>
<path fill="none" stroke="midnightblue" d="M1439.48,-125.27C1473.22,-112.37 1525.52,-92.38 1555.1,-81.06"/>
<polygon fill="midnightblue" stroke="midnightblue" points="1438.17,-122.03 1430.07,-128.87 1440.67,-128.57 1438.17,-122.03"/>
</g>
<!-- Node28&#45;&gt;Node7 -->
<g id="edge42" class="edge">
<title>Node28&#45;&gt;Node7</title>
<path fill="none" stroke="midnightblue" d="M1830.71,-127.16C1838.99,-125.68 1847.47,-124.24 1855.5,-123 1987.09,-102.68 2237.04,-154.55 2147.5,-56 2121.1,-26.94 1870.49,-16.16 1746.83,-12.58"/>
<polygon fill="midnightblue" stroke="midnightblue" points="1829.95,-123.74 1820.74,-128.97 1831.21,-130.63 1829.95,-123.74"/>
</g>
<!-- Node28&#45;&gt;Node23 -->
<g id="edge43" class="edge">
<title>Node28&#45;&gt;Node23</title>
<path fill="none" stroke="midnightblue" d="M1777.21,-118.54C1777.02,-106.17 1776.78,-90.62 1776.63,-81.13"/>
<polygon fill="midnightblue" stroke="midnightblue" points="1773.71,-118.79 1777.37,-128.73 1780.71,-118.68 1773.71,-118.79"/>
</g>
<!-- Node28&#45;&gt;Node24 -->
<g id="edge44" class="edge">
<title>Node28&#45;&gt;Node24</title>
<path fill="none" stroke="midnightblue" d="M1806.69,-124.77C1831.91,-113.77 1868.29,-97.89 1894.34,-86.53"/>
<polygon fill="midnightblue" stroke="midnightblue" points="1805.05,-121.66 1797.29,-128.87 1807.85,-128.08 1805.05,-121.66"/>
</g>
<!-- Node29&#45;&gt;Node7 -->
<g id="edge46" class="edge">
<title>Node29&#45;&gt;Node7</title>
<path fill="none" stroke="midnightblue" d="M1999.05,-123.05C2070.47,-108.73 2169.11,-88.71 2170.5,-87 2179.2,-76.32 2179.79,-66.18 2170.5,-56 2142.49,-25.31 1875.06,-15.3 1746.66,-12.25"/>
<polygon fill="midnightblue" stroke="midnightblue" points="1998.29,-119.63 1989.17,-125.02 1999.66,-126.49 1998.29,-119.63"/>
</g>
<!-- Node29&#45;&gt;Node24 -->
<g id="edge47" class="edge">
<title>Node29&#45;&gt;Node24</title>
<path fill="none" stroke="midnightblue" d="M1926.5,-113.11C1926.5,-104.15 1926.5,-94.32 1926.5,-86.58"/>
<polygon fill="midnightblue" stroke="midnightblue" points="1923,-113.4 1926.5,-123.4 1930,-113.4 1923,-113.4"/>
</g>
<!-- Node30&#45;&gt;Node7 -->
<g id="edge49" class="edge">
<title>Node30&#45;&gt;Node7</title>
<path fill="none" stroke="midnightblue" d="M2114.19,-125.84C2157.43,-111.78 2215.17,-86.22 2187.5,-56 2158.32,-24.12 1878.61,-14.7 1746.71,-12.02"/>
<polygon fill="midnightblue" stroke="midnightblue" points="2112.88,-122.58 2104.39,-128.92 2114.98,-129.26 2112.88,-122.58"/>
</g>
<!-- Node30&#45;&gt;Node25 -->
<g id="edge50" class="edge">
<title>Node30&#45;&gt;Node25</title>
<path fill="none" stroke="midnightblue" d="M2072.5,-118.54C2072.5,-106.17 2072.5,-90.62 2072.5,-81.13"/>
<polygon fill="midnightblue" stroke="midnightblue" points="2069,-118.73 2072.5,-128.73 2076,-118.73 2069,-118.73"/>
</g>
<!-- Node31&#45;&gt;Node7 -->
<g id="edge52" class="edge">
<title>Node31&#45;&gt;Node7</title>
<path fill="none" stroke="midnightblue" d="M1243.12,-120.87C1229.36,-102.87 1212.94,-74.31 1229.5,-56 1254.53,-28.33 1490.94,-16.92 1610.28,-12.9"/>
<polygon fill="midnightblue" stroke="midnightblue" points="1240.5,-123.19 1249.51,-128.76 1245.94,-118.78 1240.5,-123.19"/>
</g>
<!-- Node31&#45;&gt;Node26 -->
<g id="edge53" class="edge">
<title>Node31&#45;&gt;Node26</title>
<path fill="none" stroke="midnightblue" d="M1289.16,-125.1C1322.12,-112.2 1372.86,-92.33 1401.63,-81.06"/>
<polygon fill="midnightblue" stroke="midnightblue" points="1287.58,-121.96 1279.54,-128.87 1290.13,-128.48 1287.58,-121.96"/>
</g>
<!-- Node33&#45;&gt;Node15 -->
<g id="edge59" class="edge">
<title>Node33&#45;&gt;Node15</title>
<path fill="none" stroke="midnightblue" d="M1109.74,-299.67C1147.31,-288.82 1202.73,-272.82 1233.93,-263.81"/>
<polygon fill="midnightblue" stroke="midnightblue" points="1108.77,-296.31 1100.13,-302.44 1110.71,-303.03 1108.77,-296.31"/>
</g>
<!-- Node33&#45;&gt;Node18 -->
<g id="edge60" class="edge">
<title>Node33&#45;&gt;Node18</title>
<path fill="none" stroke="midnightblue" d="M1059.27,-293.74C1054.01,-285.45 1047.75,-275.32 1042.5,-266 1031.32,-246.15 1019.54,-222.08 1013.54,-209.54"/>
<polygon fill="midnightblue" stroke="midnightblue" points="1056.34,-295.65 1064.69,-302.17 1062.23,-291.87 1056.34,-295.65"/>
</g>
<!-- Node34 -->
<g id="node34" class="node">
<title>Node34</title>
<g id="a_node34"><a xlink:href="road__curve__offset_8cc.html" target="_top" xlink:title=" ">
<polygon fill="white" stroke="black" points="1051.5,-246.5 1051.5,-265.5 1169.5,-265.5 1169.5,-246.5 1051.5,-246.5"/>
<text text-anchor="middle" x="1110.5" y="-253.5" font-family="Helvetica,sans-Serif" font-size="10.00">road_curve_offset.cc</text>
</a>
</g>
</g>
<!-- Node33&#45;&gt;Node34 -->
<g id="edge61" class="edge">
<title>Node33&#45;&gt;Node34</title>
<path fill="none" stroke="midnightblue" d="M1083.2,-293.86C1090.13,-284.5 1098.41,-273.33 1104.02,-265.75"/>
<polygon fill="midnightblue" stroke="midnightblue" points="1080.25,-291.96 1077.11,-302.08 1085.87,-296.13 1080.25,-291.96"/>
</g>
<!-- Node35&#45;&gt;Node4 -->
<g id="edge63" class="edge">
<title>Node35&#45;&gt;Node4</title>
<path fill="none" stroke="midnightblue" d="M154.57,-356.13C113.39,-345.83 68.81,-328.04 92.5,-302 119.85,-271.94 384.41,-261.52 506.42,-258.3"/>
<polygon fill="midnightblue" stroke="midnightblue" points="153.83,-359.55 164.37,-358.46 155.45,-352.74 153.83,-359.55"/>
</g>
<!-- Node36 -->
<g id="node36" class="node">
<title>Node36</title>
<g id="a_node36"><a xlink:href="spiral__ground__curve_8cc.html" target="_top" xlink:title=" ">
<polygon fill="white" stroke="black" points="101.5,-302.5 101.5,-321.5 229.5,-321.5 229.5,-302.5 101.5,-302.5"/>
<text text-anchor="middle" x="165.5" y="-309.5" font-family="Helvetica,sans-Serif" font-size="10.00">spiral_ground_curve.cc</text>
</a>
</g>
</g>
<!-- Node35&#45;&gt;Node36 -->
<g id="edge64" class="edge">
<title>Node35&#45;&gt;Node36</title>
<path fill="none" stroke="midnightblue" d="M197.39,-350.43C189.32,-340.97 179.54,-329.48 172.95,-321.75"/>
<polygon fill="midnightblue" stroke="midnightblue" points="194.75,-352.74 203.9,-358.08 200.08,-348.2 194.75,-352.74"/>
</g>
</g>
</svg>
        <g id="navigator" transform="translate(0 0)" fill="#404254">
                <rect fill="#f2f5e9" fill-opacity="0.5" stroke="#606060" stroke-width=".5" x="0" y="0" width="60" height="60"/>
                <use id="zoomplus" xlink:href="#zoomPlus" x="17" y="9" onmousedown="handleZoom(evt,'in')"/>
                <use id="zoomminus" xlink:href="#zoomMin" x="42" y="9" onmousedown="handleZoom(evt,'out')"/>
                <use id="reset" xlink:href="#resetDef" x="30" y="36" onmousedown="handleReset()"/>
                <g id="arrowUp" xlink:href="#dirArrow" transform="translate(30 24)" onmousedown="handlePan(0,-1)">
                  <use xlink:href="#rim" fill="#404040">
                        <set attributeName="fill" to="#808080" begin="arrowUp.mouseover" end="arrowUp.mouseout"/>
                  </use>
                  <path fill="none" stroke="white" stroke-width="1.5" d="M0,-3.0v7 M-2.5,-0.5L0,-3.0L2.5,-0.5"/>
                </g>
                <g id="arrowRight" xlink:href="#dirArrow" transform="rotate(90) translate(36 -43)" onmousedown="handlePan(1,0)">
                  <use xlink:href="#rim" fill="#404040">
                        <set attributeName="fill" to="#808080" begin="arrowRight.mouseover" end="arrowRight.mouseout"/>
                  </use>
                  <path fill="none" stroke="white" stroke-width="1.5" d="M0,-3.0v7 M-2.5,-0.5L0,-3.0L2.5,-0.5"/>
                </g>
                <g id="arrowDown" xlink:href="#dirArrow" transform="rotate(180) translate(-30 -48)" onmousedown="handlePan(0,1)">
                  <use xlink:href="#rim" fill="#404040">
                        <set attributeName="fill" to="#808080" begin="arrowDown.mouseover" end="arrowDown.mouseout"/>
                  </use>
                  <path fill="none" stroke="white" stroke-width="1.5" d="M0,-3.0v7 M-2.5,-0.5L0,-3.0L2.5,-0.5"/>
                </g>
                <g id="arrowLeft" xlink:href="#dirArrow" transform="rotate(270) translate(-36 17)" onmousedown="handlePan(-1,0)">
                  <use xlink:href="#rim" fill="#404040">
                        <set attributeName="fill" to="#808080" begin="arrowLeft.mouseover" end="arrowLeft.mouseout"/>
                  </use>
                  <path fill="none" stroke="white" stroke-width="1.5" d="M0,-3.0v7 M-2.5,-0.5L0,-3.0L2.5,-0.5"/>
                </g>
        </g>
        <svg viewBox="0 0 15 15" width="100%" height="30px" preserveAspectRatio="xMaxYMin meet">
         <g id="arrow_out" transform="scale(0.3 0.3)">
          <a xlink:href="ground__curve_8h__dep__incl_org.svg" target="_base">
           <rect id="button" ry="5" rx="5" y="6" x="6" height="38" width="38"
                fill="#f2f5e9" fill-opacity="0.5" stroke="#606060" stroke-width="1.0"/>
           <path id="arrow"
             d="M 11.500037,31.436501 C 11.940474,20.09759 22.043105,11.32322 32.158766,21.979434 L 37.068811,17.246167 C 37.068811,17.246167 37.088388,32 37.088388,32 L 22.160133,31.978069 C 22.160133,31.978069 26.997745,27.140456 26.997745,27.140456 C 18.528582,18.264221 13.291696,25.230495 11.500037,31.436501 z"
             style="fill:#404040;"/>
          </a>
         </g>
        </svg>
</svg>
