<?xml version="1.0" encoding="UTF-8" standalone="no"?>
<!DOCTYPE svg PUBLIC "-//W3C//DTD SVG 1.1//EN"
 "http://www.w3.org/Graphics/SVG/1.1/DTD/svg11.dtd">
<!-- Generated by graphviz version 2.43.0 (0)
 -->
<!-- Title: outlines.cc Pages: 1 -->
<svg width="1036pt" height="430pt"
 viewBox="0.00 0.00 1036.00 430.00" xmlns="http://www.w3.org/2000/svg" xmlns:xlink="http://www.w3.org/1999/xlink">
<g id="graph0" class="graph" transform="scale(1 1) rotate(0) translate(4 426)">
<title>outlines.cc</title>
<polygon fill="white" stroke="transparent" points="-4,4 -4,-426 1032,-426 1032,4 -4,4"/>
<!-- Node1 -->
<g id="node1" class="node">
<title>Node1</title>
<g id="a_node1"><a xlink:title=" ">
<polygon fill="#bfbfbf" stroke="black" points="364,-402.5 364,-421.5 433,-421.5 433,-402.5 364,-402.5"/>
<text text-anchor="middle" x="398.5" y="-409.5" font-family="Helvetica,sans-Serif" font-size="10.00">outlines.cc</text>
</a>
</g>
</g>
<!-- Node2 -->
<g id="node2" class="node">
<title>Node2</title>
<g id="a_node2"><a xlink:href="outlines_8h.html" target="_top" xlink:title=" ">
<polygon fill="white" stroke="black" points="333,-335.5 333,-365.5 464,-365.5 464,-335.5 333,-335.5"/>
<text text-anchor="start" x="341" y="-353.5" font-family="Helvetica,sans-Serif" font-size="10.00">maliput_malidrive/xodr</text>
<text text-anchor="middle" x="398.5" y="-342.5" font-family="Helvetica,sans-Serif" font-size="10.00">/object/outlines.h</text>
</a>
</g>
</g>
<!-- Node1&#45;&gt;Node2 -->
<g id="edge1" class="edge">
<title>Node1&#45;&gt;Node2</title>
<path fill="none" stroke="midnightblue" d="M398.5,-402.48C398.5,-395.47 398.5,-385.19 398.5,-375.7"/>
<polygon fill="midnightblue" stroke="midnightblue" points="402,-375.52 398.5,-365.52 395,-375.52 402,-375.52"/>
</g>
<!-- Node3 -->
<g id="node3" class="node">
<title>Node3</title>
<g id="a_node3"><a xlink:title=" ">
<polygon fill="white" stroke="#bfbfbf" points="126.5,-140 126.5,-159 164.5,-159 164.5,-140 126.5,-140"/>
<text text-anchor="middle" x="145.5" y="-147" font-family="Helvetica,sans-Serif" font-size="10.00">map</text>
</a>
</g>
</g>
<!-- Node2&#45;&gt;Node3 -->
<g id="edge2" class="edge">
<title>Node2&#45;&gt;Node3</title>
<path fill="none" stroke="midnightblue" d="M332.87,-346.37C257.51,-338.83 137.03,-313.84 80.5,-232 72.67,-220.66 74.44,-213.38 80.5,-201 85.14,-191.52 106.05,-176.18 122.92,-164.89"/>
<polygon fill="midnightblue" stroke="midnightblue" points="125.31,-167.51 131.75,-159.09 121.47,-161.66 125.31,-167.51"/>
</g>
<!-- Node4 -->
<g id="node4" class="node">
<title>Node4</title>
<g id="a_node4"><a xlink:title=" ">
<polygon fill="white" stroke="#bfbfbf" points="413.5,-140 413.5,-159 469.5,-159 469.5,-140 413.5,-140"/>
<text text-anchor="middle" x="441.5" y="-147" font-family="Helvetica,sans-Serif" font-size="10.00">optional</text>
</a>
</g>
</g>
<!-- Node2&#45;&gt;Node4 -->
<g id="edge3" class="edge">
<title>Node2&#45;&gt;Node4</title>
<path fill="none" stroke="midnightblue" d="M401.59,-335.19C409.22,-299.91 428.91,-208.78 437.45,-169.25"/>
<polygon fill="midnightblue" stroke="midnightblue" points="440.89,-169.87 439.59,-159.36 434.05,-168.4 440.89,-169.87"/>
</g>
<!-- Node5 -->
<g id="node5" class="node">
<title>Node5</title>
<g id="a_node5"><a xlink:title=" ">
<polygon fill="white" stroke="#bfbfbf" points="194.5,-6 194.5,-25 238.5,-25 238.5,-6 194.5,-6"/>
<text text-anchor="middle" x="216.5" y="-13" font-family="Helvetica,sans-Serif" font-size="10.00">string</text>
</a>
</g>
</g>
<!-- Node2&#45;&gt;Node5 -->
<g id="edge4" class="edge">
<title>Node2&#45;&gt;Node5</title>
<path fill="none" stroke="midnightblue" d="M464.05,-342.92C503.97,-336.5 554.6,-323.85 593.5,-299 665.19,-253.21 744.95,-199.36 690.5,-134 662.16,-99.98 537.69,-107.81 494.5,-98 383.58,-72.82 354.3,-70.13 247.5,-31 245.89,-30.41 244.25,-29.77 242.6,-29.09"/>
<polygon fill="midnightblue" stroke="midnightblue" points="243.89,-25.84 233.33,-25.02 241.07,-32.25 243.89,-25.84"/>
</g>
<!-- Node6 -->
<g id="node6" class="node">
<title>Node6</title>
<g id="a_node6"><a xlink:title=" ">
<polygon fill="white" stroke="#bfbfbf" points="61,-140 61,-159 108,-159 108,-140 61,-140"/>
<text text-anchor="middle" x="84.5" y="-147" font-family="Helvetica,sans-Serif" font-size="10.00">vector</text>
</a>
</g>
</g>
<!-- Node2&#45;&gt;Node6 -->
<g id="edge5" class="edge">
<title>Node2&#45;&gt;Node6</title>
<path fill="none" stroke="midnightblue" d="M332.81,-344.28C259.49,-337.37 146.55,-323.15 111.5,-299 72.76,-272.31 65.59,-247.67 71.5,-201 72.86,-190.28 75.77,-178.59 78.5,-169.15"/>
<polygon fill="midnightblue" stroke="midnightblue" points="81.93,-169.89 81.51,-159.31 75.24,-167.85 81.93,-169.89"/>
</g>
<!-- Node7 -->
<g id="node7" class="node">
<title>Node7</title>
<g id="a_node7"><a xlink:href="../../maliput/html/type__specific__identifier_8h.html.html" xlink:title=" ">
<polygon fill="white" stroke="black" points="541.5,-134.5 541.5,-164.5 681.5,-164.5 681.5,-134.5 541.5,-134.5"/>
<text text-anchor="start" x="549.5" y="-152.5" font-family="Helvetica,sans-Serif" font-size="10.00">maliput/api/type_specific</text>
<text text-anchor="middle" x="611.5" y="-141.5" font-family="Helvetica,sans-Serif" font-size="10.00">_identifier.h</text>
</a>
</g>
</g>
<!-- Node2&#45;&gt;Node7 -->
<g id="edge6" class="edge">
<title>Node2&#45;&gt;Node7</title>
<path fill="none" stroke="midnightblue" d="M464.2,-336.42C519.78,-321.5 596.04,-291.1 632.5,-232 643.5,-214.16 635.58,-190.73 626.49,-173.57"/>
<polygon fill="midnightblue" stroke="midnightblue" points="629.45,-171.69 621.43,-164.76 623.38,-175.17 629.45,-171.69"/>
</g>
<!-- Node8 -->
<g id="node8" class="node">
<title>Node8</title>
<g id="a_node8"><a xlink:href="xodr_2lane_8h.html" target="_top" xlink:title=" ">
<polygon fill="white" stroke="black" points="267,-268.5 267,-298.5 398,-298.5 398,-268.5 267,-268.5"/>
<text text-anchor="start" x="275" y="-286.5" font-family="Helvetica,sans-Serif" font-size="10.00">maliput_malidrive/xodr</text>
<text text-anchor="middle" x="332.5" y="-275.5" font-family="Helvetica,sans-Serif" font-size="10.00">/lane.h</text>
</a>
</g>
</g>
<!-- Node2&#45;&gt;Node8 -->
<g id="edge7" class="edge">
<title>Node2&#45;&gt;Node8</title>
<path fill="none" stroke="midnightblue" d="M384.18,-335.4C375.36,-326.71 363.88,-315.4 353.98,-305.66"/>
<polygon fill="midnightblue" stroke="midnightblue" points="356.37,-303.1 346.79,-298.58 351.46,-308.09 356.37,-303.1"/>
</g>
<!-- Node8&#45;&gt;Node3 -->
<g id="edge8" class="edge">
<title>Node8&#45;&gt;Node3</title>
<path fill="none" stroke="midnightblue" d="M266.88,-278C202.7,-272.07 111.49,-259.03 89.5,-232 71.34,-209.68 100.96,-181.66 123.58,-164.96"/>
<polygon fill="midnightblue" stroke="midnightblue" points="125.65,-167.78 131.79,-159.15 121.61,-162.07 125.65,-167.78"/>
</g>
<!-- Node8&#45;&gt;Node4 -->
<g id="edge9" class="edge">
<title>Node8&#45;&gt;Node4</title>
<path fill="none" stroke="midnightblue" d="M350.51,-268.33C362.08,-258.75 377.02,-245.44 388.5,-232 405.91,-211.61 422.12,-185.15 431.91,-168"/>
<polygon fill="midnightblue" stroke="midnightblue" points="435.07,-169.53 436.9,-159.1 428.96,-166.11 435.07,-169.53"/>
</g>
<!-- Node8&#45;&gt;Node7 -->
<g id="edge10" class="edge">
<title>Node8&#45;&gt;Node7</title>
<path fill="none" stroke="midnightblue" d="M398.06,-280.17C472.59,-275.98 587.45,-264.33 614.5,-232 627.64,-216.3 624.98,-192.33 620.17,-174.44"/>
<polygon fill="midnightblue" stroke="midnightblue" points="623.47,-173.26 617.2,-164.72 616.78,-175.31 623.47,-173.26"/>
</g>
<!-- Node9 -->
<g id="node9" class="node">
<title>Node9</title>
<g id="a_node9"><a xlink:href="lane__link_8h.html" target="_top" xlink:title=" ">
<polygon fill="white" stroke="black" points="474,-201.5 474,-231.5 605,-231.5 605,-201.5 474,-201.5"/>
<text text-anchor="start" x="482" y="-219.5" font-family="Helvetica,sans-Serif" font-size="10.00">maliput_malidrive/xodr</text>
<text text-anchor="middle" x="539.5" y="-208.5" font-family="Helvetica,sans-Serif" font-size="10.00">/lane_link.h</text>
</a>
</g>
</g>
<!-- Node8&#45;&gt;Node9 -->
<g id="edge11" class="edge">
<title>Node8&#45;&gt;Node9</title>
<path fill="none" stroke="midnightblue" d="M377.16,-268.48C408.75,-258.56 451.28,-245.2 484.89,-234.65"/>
<polygon fill="midnightblue" stroke="midnightblue" points="486.07,-237.95 494.56,-231.61 483.97,-231.27 486.07,-237.95"/>
</g>
<!-- Node16 -->
<g id="node16" class="node">
<title>Node16</title>
<g id="a_node16"><a xlink:href="lane__road__mark_8h.html" target="_top" xlink:title=" ">
<polygon fill="white" stroke="black" points="99,-201.5 99,-231.5 230,-231.5 230,-201.5 99,-201.5"/>
<text text-anchor="start" x="107" y="-219.5" font-family="Helvetica,sans-Serif" font-size="10.00">maliput_malidrive/xodr</text>
<text text-anchor="middle" x="164.5" y="-208.5" font-family="Helvetica,sans-Serif" font-size="10.00">/lane_road_mark.h</text>
</a>
</g>
</g>
<!-- Node8&#45;&gt;Node16 -->
<g id="edge21" class="edge">
<title>Node8&#45;&gt;Node16</title>
<path fill="none" stroke="midnightblue" d="M296.05,-268.4C270.95,-258.69 237.41,-245.71 210.48,-235.29"/>
<polygon fill="midnightblue" stroke="midnightblue" points="211.47,-231.92 200.88,-231.58 208.95,-238.45 211.47,-231.92"/>
</g>
<!-- Node18 -->
<g id="node18" class="node">
<title>Node18</title>
<g id="a_node18"><a xlink:href="lane__width_8h.html" target="_top" xlink:title=" ">
<polygon fill="white" stroke="black" points="248,-201.5 248,-231.5 379,-231.5 379,-201.5 248,-201.5"/>
<text text-anchor="start" x="256" y="-219.5" font-family="Helvetica,sans-Serif" font-size="10.00">maliput_malidrive/xodr</text>
<text text-anchor="middle" x="313.5" y="-208.5" font-family="Helvetica,sans-Serif" font-size="10.00">/lane_width.h</text>
</a>
</g>
</g>
<!-- Node8&#45;&gt;Node18 -->
<g id="edge30" class="edge">
<title>Node8&#45;&gt;Node18</title>
<path fill="none" stroke="midnightblue" d="M328.38,-268.4C326.06,-260.47 323.11,-250.38 320.45,-241.27"/>
<polygon fill="midnightblue" stroke="midnightblue" points="323.78,-240.19 317.61,-231.58 317.06,-242.16 323.78,-240.19"/>
</g>
<!-- Node19 -->
<g id="node19" class="node">
<title>Node19</title>
<g id="a_node19"><a xlink:href="unit_8h.html" target="_top" xlink:title=" ">
<polygon fill="white" stroke="black" points="0,-67.5 0,-97.5 131,-97.5 131,-67.5 0,-67.5"/>
<text text-anchor="start" x="8" y="-85.5" font-family="Helvetica,sans-Serif" font-size="10.00">maliput_malidrive/xodr</text>
<text text-anchor="middle" x="65.5" y="-74.5" font-family="Helvetica,sans-Serif" font-size="10.00">/unit.h</text>
</a>
</g>
</g>
<!-- Node8&#45;&gt;Node19 -->
<g id="edge31" class="edge">
<title>Node8&#45;&gt;Node19</title>
<path fill="none" stroke="midnightblue" d="M266.89,-276.27C202.05,-268.91 108.6,-254.73 80.5,-232 45.18,-203.44 45.38,-179.01 51.5,-134 52.69,-125.25 54.99,-115.88 57.39,-107.62"/>
<polygon fill="midnightblue" stroke="midnightblue" points="60.79,-108.46 60.4,-97.87 54.1,-106.39 60.79,-108.46"/>
</g>
<!-- Node9&#45;&gt;Node4 -->
<g id="edge12" class="edge">
<title>Node9&#45;&gt;Node4</title>
<path fill="none" stroke="midnightblue" d="M518.24,-201.4C501.8,-190.5 479.16,-175.48 462.73,-164.58"/>
<polygon fill="midnightblue" stroke="midnightblue" points="464.59,-161.62 454.33,-159.01 460.72,-167.45 464.59,-161.62"/>
</g>
<!-- Node9&#45;&gt;Node7 -->
<g id="edge13" class="edge">
<title>Node9&#45;&gt;Node7</title>
<path fill="none" stroke="midnightblue" d="M555.12,-201.4C564.84,-192.62 577.51,-181.18 588.38,-171.37"/>
<polygon fill="midnightblue" stroke="midnightblue" points="590.83,-173.88 595.91,-164.58 586.14,-168.68 590.83,-173.88"/>
</g>
<!-- Node10 -->
<g id="node10" class="node">
<title>Node10</title>
<g id="a_node10"><a xlink:href="macros_8h.html" target="_top" xlink:title=" ">
<polygon fill="white" stroke="black" points="503.5,-67.5 503.5,-97.5 655.5,-97.5 655.5,-67.5 503.5,-67.5"/>
<text text-anchor="start" x="511.5" y="-85.5" font-family="Helvetica,sans-Serif" font-size="10.00">maliput_malidrive/common</text>
<text text-anchor="middle" x="579.5" y="-74.5" font-family="Helvetica,sans-Serif" font-size="10.00">/macros.h</text>
</a>
</g>
</g>
<!-- Node9&#45;&gt;Node10 -->
<g id="edge14" class="edge">
<title>Node9&#45;&gt;Node10</title>
<path fill="none" stroke="midnightblue" d="M534.58,-201.4C529.58,-184.7 523.71,-156.33 532.5,-134 536.86,-122.91 544.94,-112.81 553.18,-104.6"/>
<polygon fill="midnightblue" stroke="midnightblue" points="555.74,-107 560.69,-97.63 550.98,-101.87 555.74,-107"/>
</g>
<!-- Node10&#45;&gt;Node5 -->
<g id="edge15" class="edge">
<title>Node10&#45;&gt;Node5</title>
<path fill="none" stroke="midnightblue" d="M503.4,-69.17C498.7,-68.43 494.04,-67.7 489.5,-67 382.04,-50.35 351.62,-62.36 247.5,-31 245.62,-30.43 243.71,-29.77 241.81,-29.05"/>
<polygon fill="midnightblue" stroke="midnightblue" points="243.13,-25.81 232.56,-25.09 240.38,-32.24 243.13,-25.81"/>
</g>
<!-- Node11 -->
<g id="node11" class="node">
<title>Node11</title>
<g id="a_node11"><a xlink:href="../../maliput/html/error_8h.html.html" xlink:title=" ">
<polygon fill="white" stroke="black" points="893,-6 893,-25 1028,-25 1028,-6 893,-6"/>
<text text-anchor="middle" x="960.5" y="-13" font-family="Helvetica,sans-Serif" font-size="10.00">maliput/common/error.h</text>
</a>
</g>
</g>
<!-- Node10&#45;&gt;Node11 -->
<g id="edge16" class="edge">
<title>Node10&#45;&gt;Node11</title>
<path fill="none" stroke="midnightblue" d="M655.79,-69.29C717.32,-59.34 806.06,-44.72 883.5,-31 890.86,-29.7 898.6,-28.28 906.23,-26.87"/>
<polygon fill="midnightblue" stroke="midnightblue" points="906.96,-30.3 916.15,-25.02 905.68,-23.41 906.96,-30.3"/>
</g>
<!-- Node12 -->
<g id="node12" class="node">
<title>Node12</title>
<g id="a_node12"><a xlink:href="../../maliput/html/logger_8h.html.html" xlink:title=" ">
<polygon fill="white" stroke="black" points="257,-6 257,-25 400,-25 400,-6 257,-6"/>
<text text-anchor="middle" x="328.5" y="-13" font-family="Helvetica,sans-Serif" font-size="10.00">maliput/common/logger.h</text>
</a>
</g>
</g>
<!-- Node10&#45;&gt;Node12 -->
<g id="edge17" class="edge">
<title>Node10&#45;&gt;Node12</title>
<path fill="none" stroke="midnightblue" d="M525.35,-67.48C479.18,-55.52 413.73,-38.57 371.2,-27.56"/>
<polygon fill="midnightblue" stroke="midnightblue" points="371.99,-24.15 361.43,-25.03 370.24,-30.92 371.99,-24.15"/>
</g>
<!-- Node13 -->
<g id="node13" class="node">
<title>Node13</title>
<g id="a_node13"><a xlink:href="../../maliput/html/maliput__abort_8h.html.html" xlink:title=" ">
<polygon fill="white" stroke="black" points="418.5,-0.5 418.5,-30.5 558.5,-30.5 558.5,-0.5 418.5,-0.5"/>
<text text-anchor="start" x="426.5" y="-18.5" font-family="Helvetica,sans-Serif" font-size="10.00">maliput/common/maliput</text>
<text text-anchor="middle" x="488.5" y="-7.5" font-family="Helvetica,sans-Serif" font-size="10.00">_abort.h</text>
</a>
</g>
</g>
<!-- Node10&#45;&gt;Node13 -->
<g id="edge18" class="edge">
<title>Node10&#45;&gt;Node13</title>
<path fill="none" stroke="midnightblue" d="M559.75,-67.4C547.11,-58.37 530.52,-46.51 516.53,-36.52"/>
<polygon fill="midnightblue" stroke="midnightblue" points="518.38,-33.54 508.21,-30.58 514.31,-39.24 518.38,-33.54"/>
</g>
<!-- Node14 -->
<g id="node14" class="node">
<title>Node14</title>
<g id="a_node14"><a xlink:href="../../maliput/html/maliput__copyable_8h.html.html" xlink:title=" ">
<polygon fill="white" stroke="black" points="576.5,-0.5 576.5,-30.5 716.5,-30.5 716.5,-0.5 576.5,-0.5"/>
<text text-anchor="start" x="584.5" y="-18.5" font-family="Helvetica,sans-Serif" font-size="10.00">maliput/common/maliput</text>
<text text-anchor="middle" x="646.5" y="-7.5" font-family="Helvetica,sans-Serif" font-size="10.00">_copyable.h</text>
</a>
</g>
</g>
<!-- Node10&#45;&gt;Node14 -->
<g id="edge19" class="edge">
<title>Node10&#45;&gt;Node14</title>
<path fill="none" stroke="midnightblue" d="M594.04,-67.4C602.99,-58.71 614.64,-47.4 624.69,-37.66"/>
<polygon fill="midnightblue" stroke="midnightblue" points="627.25,-40.05 631.99,-30.58 622.38,-35.03 627.25,-40.05"/>
</g>
<!-- Node15 -->
<g id="node15" class="node">
<title>Node15</title>
<g id="a_node15"><a xlink:href="../../maliput/html/maliput__throw_8h.html.html" xlink:title=" ">
<polygon fill="white" stroke="black" points="734.5,-0.5 734.5,-30.5 874.5,-30.5 874.5,-0.5 734.5,-0.5"/>
<text text-anchor="start" x="742.5" y="-18.5" font-family="Helvetica,sans-Serif" font-size="10.00">maliput/common/maliput</text>
<text text-anchor="middle" x="804.5" y="-7.5" font-family="Helvetica,sans-Serif" font-size="10.00">_throw.h</text>
</a>
</g>
</g>
<!-- Node10&#45;&gt;Node15 -->
<g id="edge20" class="edge">
<title>Node10&#45;&gt;Node15</title>
<path fill="none" stroke="midnightblue" d="M628.04,-67.48C662.53,-57.51 709.01,-44.09 745.61,-33.51"/>
<polygon fill="midnightblue" stroke="midnightblue" points="747.02,-36.75 755.65,-30.61 745.08,-30.02 747.02,-36.75"/>
</g>
<!-- Node16&#45;&gt;Node3 -->
<g id="edge22" class="edge">
<title>Node16&#45;&gt;Node3</title>
<path fill="none" stroke="midnightblue" d="M160.38,-201.4C157.59,-191.86 153.88,-179.18 150.87,-168.86"/>
<polygon fill="midnightblue" stroke="midnightblue" points="154.21,-167.81 148.04,-159.19 147.49,-169.77 154.21,-167.81"/>
</g>
<!-- Node16&#45;&gt;Node4 -->
<g id="edge23" class="edge">
<title>Node16&#45;&gt;Node4</title>
<path fill="none" stroke="midnightblue" d="M230.23,-202.06C287.66,-190.16 366.55,-173.43 397.5,-165 400.68,-164.13 403.97,-163.17 407.26,-162.17"/>
<polygon fill="midnightblue" stroke="midnightblue" points="408.5,-165.45 416.97,-159.09 406.38,-158.78 408.5,-165.45"/>
</g>
<!-- Node16&#45;&gt;Node5 -->
<g id="edge24" class="edge">
<title>Node16&#45;&gt;Node5</title>
<path fill="none" stroke="midnightblue" d="M168.24,-201.19C177.46,-165.91 201.27,-74.78 211.6,-35.25"/>
<polygon fill="midnightblue" stroke="midnightblue" points="215.04,-35.92 214.18,-25.36 208.27,-34.15 215.04,-35.92"/>
</g>
<!-- Node16&#45;&gt;Node6 -->
<g id="edge25" class="edge">
<title>Node16&#45;&gt;Node6</title>
<path fill="none" stroke="midnightblue" d="M147.14,-201.4C134.17,-190.86 116.47,-176.48 103.19,-165.69"/>
<polygon fill="midnightblue" stroke="midnightblue" points="105.17,-162.78 95.2,-159.19 100.76,-168.22 105.17,-162.78"/>
</g>
<!-- Node16&#45;&gt;Node10 -->
<g id="edge26" class="edge">
<title>Node16&#45;&gt;Node10</title>
<path fill="none" stroke="midnightblue" d="M229.92,-201.48C277.78,-190.71 338.24,-175.89 361.5,-165 382.84,-155.01 383.31,-144.31 404.5,-134 434.65,-119.33 469.84,-108.15 500.73,-100.09"/>
<polygon fill="midnightblue" stroke="midnightblue" points="501.77,-103.43 510.6,-97.58 500.04,-96.65 501.77,-103.43"/>
</g>
<!-- Node17 -->
<g id="node17" class="node">
<title>Node17</title>
<g id="a_node17"><a xlink:href="colors_8h.html" target="_top" xlink:title=" ">
<polygon fill="white" stroke="black" points="221,-134.5 221,-164.5 352,-164.5 352,-134.5 221,-134.5"/>
<text text-anchor="start" x="229" y="-152.5" font-family="Helvetica,sans-Serif" font-size="10.00">maliput_malidrive/xodr</text>
<text text-anchor="middle" x="286.5" y="-141.5" font-family="Helvetica,sans-Serif" font-size="10.00">/colors.h</text>
</a>
</g>
</g>
<!-- Node16&#45;&gt;Node17 -->
<g id="edge27" class="edge">
<title>Node16&#45;&gt;Node17</title>
<path fill="none" stroke="midnightblue" d="M190.97,-201.4C208.56,-192.03 231.85,-179.62 251.04,-169.39"/>
<polygon fill="midnightblue" stroke="midnightblue" points="252.9,-172.37 260.08,-164.58 249.61,-166.19 252.9,-172.37"/>
</g>
<!-- Node17&#45;&gt;Node5 -->
<g id="edge28" class="edge">
<title>Node17&#45;&gt;Node5</title>
<path fill="none" stroke="midnightblue" d="M279.01,-134.37C266.12,-110.08 239.8,-60.44 225.78,-34"/>
<polygon fill="midnightblue" stroke="midnightblue" points="228.84,-32.29 221.06,-25.1 222.65,-35.57 228.84,-32.29"/>
</g>
<!-- Node17&#45;&gt;Node10 -->
<g id="edge29" class="edge">
<title>Node17&#45;&gt;Node10</title>
<path fill="none" stroke="midnightblue" d="M349.72,-134.48C395.66,-124.28 457.96,-110.46 506.1,-99.78"/>
<polygon fill="midnightblue" stroke="midnightblue" points="507.14,-103.14 516.15,-97.55 505.62,-96.3 507.14,-103.14"/>
</g>
<!-- Node19&#45;&gt;Node5 -->
<g id="edge32" class="edge">
<title>Node19&#45;&gt;Node5</title>
<path fill="none" stroke="midnightblue" d="M98.26,-67.4C124.76,-55.99 161.72,-40.08 187.23,-29.1"/>
<polygon fill="midnightblue" stroke="midnightblue" points="188.94,-32.18 196.74,-25.01 186.17,-25.75 188.94,-32.18"/>
</g>
</g>
</svg>
