<?xml version="1.0" encoding="UTF-8" standalone="no"?>
<!DOCTYPE svg PUBLIC "-//W3C//DTD SVG 1.1//EN"
 "http://www.w3.org/Graphics/SVG/1.1/DTD/svg11.dtd">
<!-- Generated by graphviz version 2.43.0 (0)
 -->
<!-- Title: piecewise_function.h Pages: 1 -->
<svg width="387pt" height="196pt"
 viewBox="0.00 0.00 387.00 196.00" xmlns="http://www.w3.org/2000/svg" xmlns:xlink="http://www.w3.org/1999/xlink">
<g id="graph0" class="graph" transform="scale(1 1) rotate(0) translate(4 192)">
<title>piecewise_function.h</title>
<polygon fill="white" stroke="transparent" points="-4,4 -4,-192 383,-192 383,4 -4,4"/>
<!-- Node1 -->
<g id="node1" class="node">
<title>Node1</title>
<g id="a_node1"><a xlink:title=" ">
<polygon fill="#bfbfbf" stroke="black" points="81,-168.5 81,-187.5 200,-187.5 200,-168.5 81,-168.5"/>
<text text-anchor="middle" x="140.5" y="-175.5" font-family="Helvetica,sans-Serif" font-size="10.00">piecewise_function.h</text>
</a>
</g>
</g>
<!-- Node2 -->
<g id="node2" class="node">
<title>Node2</title>
<g id="a_node2"><a xlink:href="road__curve__factory_8h.html" target="_top" xlink:title=" ">
<polygon fill="white" stroke="black" points="81.5,-112.5 81.5,-131.5 199.5,-131.5 199.5,-112.5 81.5,-112.5"/>
<text text-anchor="middle" x="140.5" y="-119.5" font-family="Helvetica,sans-Serif" font-size="10.00">road_curve_factory.h</text>
</a>
</g>
</g>
<!-- Node1&#45;&gt;Node2 -->
<g id="edge1" class="edge">
<title>Node1&#45;&gt;Node2</title>
<path fill="none" stroke="midnightblue" d="M140.5,-157.8C140.5,-148.91 140.5,-138.78 140.5,-131.75"/>
<polygon fill="midnightblue" stroke="midnightblue" points="137,-158.08 140.5,-168.08 144,-158.08 137,-158.08"/>
</g>
<!-- Node4 -->
<g id="node4" class="node">
<title>Node4</title>
<g id="a_node4"><a xlink:href="road__geometry__builder_8cc.html" target="_top" xlink:title=" ">
<polygon fill="white" stroke="black" points="0,-0.5 0,-19.5 143,-19.5 143,-0.5 0,-0.5"/>
<text text-anchor="middle" x="71.5" y="-7.5" font-family="Helvetica,sans-Serif" font-size="10.00">road_geometry_builder.cc</text>
</a>
</g>
</g>
<!-- Node1&#45;&gt;Node4 -->
<g id="edge7" class="edge">
<title>Node1&#45;&gt;Node4</title>
<path fill="none" stroke="midnightblue" d="M107.96,-163.87C94.46,-156.61 80.18,-146.15 72.5,-132 52.16,-94.52 63.45,-40.4 69,-19.59"/>
<polygon fill="midnightblue" stroke="midnightblue" points="106.58,-167.09 117.09,-168.38 109.68,-160.81 106.58,-167.09"/>
</g>
<!-- Node7 -->
<g id="node7" class="node">
<title>Node7</title>
<g id="a_node7"><a xlink:href="piecewise__function_8cc.html" target="_top" xlink:title=" ">
<polygon fill="white" stroke="black" points="217.5,-112.5 217.5,-131.5 341.5,-131.5 341.5,-112.5 217.5,-112.5"/>
<text text-anchor="middle" x="279.5" y="-119.5" font-family="Helvetica,sans-Serif" font-size="10.00">piecewise_function.cc</text>
</a>
</g>
</g>
<!-- Node1&#45;&gt;Node7 -->
<g id="edge8" class="edge">
<title>Node1&#45;&gt;Node7</title>
<path fill="none" stroke="midnightblue" d="M171.98,-164.77C198.09,-154.63 234.54,-140.47 257.58,-131.52"/>
<polygon fill="midnightblue" stroke="midnightblue" points="170.58,-161.56 162.52,-168.44 173.11,-168.08 170.58,-161.56"/>
</g>
<!-- Node3 -->
<g id="node3" class="node">
<title>Node3</title>
<g id="a_node3"><a xlink:href="road__curve__factory_8cc.html" target="_top" xlink:title=" ">
<polygon fill="white" stroke="black" points="99.5,-56.5 99.5,-75.5 221.5,-75.5 221.5,-56.5 99.5,-56.5"/>
<text text-anchor="middle" x="160.5" y="-63.5" font-family="Helvetica,sans-Serif" font-size="10.00">road_curve_factory.cc</text>
</a>
</g>
</g>
<!-- Node2&#45;&gt;Node3 -->
<g id="edge2" class="edge">
<title>Node2&#45;&gt;Node3</title>
<path fill="none" stroke="midnightblue" d="M147.28,-102.69C150.65,-93.59 154.57,-83.01 157.26,-75.75"/>
<polygon fill="midnightblue" stroke="midnightblue" points="143.99,-101.49 143.8,-112.08 150.56,-103.92 143.99,-101.49"/>
</g>
<!-- Node2&#45;&gt;Node4 -->
<g id="edge3" class="edge">
<title>Node2&#45;&gt;Node4</title>
<path fill="none" stroke="midnightblue" d="M118.86,-105.95C108.95,-98.06 97.81,-87.62 90.5,-76 79.11,-57.88 74.31,-32.67 72.49,-19.61"/>
<polygon fill="midnightblue" stroke="midnightblue" points="117.04,-108.96 127.13,-112.19 121.26,-103.38 117.04,-108.96"/>
</g>
<!-- Node5 -->
<g id="node5" class="node">
<title>Node5</title>
<g id="a_node5"><a xlink:href="road__geometry__builder_8h.html" target="_top" xlink:title=" ">
<polygon fill="white" stroke="black" points="240,-56.5 240,-75.5 379,-75.5 379,-56.5 240,-56.5"/>
<text text-anchor="middle" x="309.5" y="-63.5" font-family="Helvetica,sans-Serif" font-size="10.00">road_geometry_builder.h</text>
</a>
</g>
</g>
<!-- Node2&#45;&gt;Node5 -->
<g id="edge4" class="edge">
<title>Node2&#45;&gt;Node5</title>
<path fill="none" stroke="midnightblue" d="M177.1,-109.3C208.95,-99.13 254.34,-84.62 282.85,-75.52"/>
<polygon fill="midnightblue" stroke="midnightblue" points="175.74,-106.07 167.28,-112.44 177.87,-112.73 175.74,-106.07"/>
</g>
<!-- Node5&#45;&gt;Node4 -->
<g id="edge5" class="edge">
<title>Node5&#45;&gt;Node4</title>
<path fill="none" stroke="midnightblue" d="M261.98,-54.22C217,-44.01 150.4,-28.9 109.04,-19.52"/>
<polygon fill="midnightblue" stroke="midnightblue" points="261.26,-57.64 271.79,-56.44 262.81,-50.82 261.26,-57.64"/>
</g>
<!-- Node6 -->
<g id="node6" class="node">
<title>Node6</title>
<g id="a_node6"><a xlink:href="road__network__builder_8cc.html" target="_top" xlink:title=" ">
<polygon fill="white" stroke="black" points="241.5,-0.5 241.5,-19.5 377.5,-19.5 377.5,-0.5 241.5,-0.5"/>
<text text-anchor="middle" x="309.5" y="-7.5" font-family="Helvetica,sans-Serif" font-size="10.00">road_network_builder.cc</text>
</a>
</g>
</g>
<!-- Node5&#45;&gt;Node6 -->
<g id="edge6" class="edge">
<title>Node5&#45;&gt;Node6</title>
<path fill="none" stroke="midnightblue" d="M309.5,-45.8C309.5,-36.91 309.5,-26.78 309.5,-19.75"/>
<polygon fill="midnightblue" stroke="midnightblue" points="306,-46.08 309.5,-56.08 313,-46.08 306,-46.08"/>
</g>
</g>
</svg>
