<?xml version="1.0" encoding="UTF-8" standalone="no"?>
<!DOCTYPE svg PUBLIC "-//W3C//DTD SVG 1.1//EN"
 "http://www.w3.org/Graphics/SVG/1.1/DTD/svg11.dtd">
<!-- Generated by graphviz version 2.43.0 (0)
 -->
<!-- Title: piecewise_ground_curve.h Pages: 1 -->
<svg width="841pt" height="229pt"
 viewBox="0.00 0.00 841.00 229.00" xmlns="http://www.w3.org/2000/svg" xmlns:xlink="http://www.w3.org/1999/xlink">
<g id="graph0" class="graph" transform="scale(1 1) rotate(0) translate(4 225)">
<title>piecewise_ground_curve.h</title>
<polygon fill="white" stroke="transparent" points="-4,4 -4,-225 837,-225 837,4 -4,4"/>
<!-- Node1 -->
<g id="node1" class="node">
<title>Node1</title>
<g id="a_node1"><a xlink:title=" ">
<polygon fill="#bfbfbf" stroke="black" points="206,-201.5 206,-220.5 352,-220.5 352,-201.5 206,-201.5"/>
<text text-anchor="middle" x="279" y="-208.5" font-family="Helvetica,sans-Serif" font-size="10.00">piecewise_ground_curve.h</text>
</a>
</g>
</g>
<!-- Node2 -->
<g id="node2" class="node">
<title>Node2</title>
<g id="a_node2"><a xlink:title=" ">
<polygon fill="white" stroke="#bfbfbf" points="75.5,-140 75.5,-159 140.5,-159 140.5,-140 75.5,-140"/>
<text text-anchor="middle" x="108" y="-147" font-family="Helvetica,sans-Serif" font-size="10.00">functional</text>
</a>
</g>
</g>
<!-- Node1&#45;&gt;Node2 -->
<g id="edge1" class="edge">
<title>Node1&#45;&gt;Node2</title>
<path fill="none" stroke="midnightblue" d="M254.5,-201.48C225.04,-191.22 175.42,-173.96 142.2,-162.4"/>
<polygon fill="midnightblue" stroke="midnightblue" points="143.05,-158.99 132.45,-159.01 140.75,-165.6 143.05,-158.99"/>
</g>
<!-- Node3 -->
<g id="node3" class="node">
<title>Node3</title>
<g id="a_node3"><a xlink:title=" ">
<polygon fill="white" stroke="#bfbfbf" points="159,-140 159,-159 197,-159 197,-140 159,-140"/>
<text text-anchor="middle" x="178" y="-147" font-family="Helvetica,sans-Serif" font-size="10.00">map</text>
</a>
</g>
</g>
<!-- Node1&#45;&gt;Node3 -->
<g id="edge2" class="edge">
<title>Node1&#45;&gt;Node3</title>
<path fill="none" stroke="midnightblue" d="M264.53,-201.48C248.03,-191.75 220.82,-175.73 201.32,-164.24"/>
<polygon fill="midnightblue" stroke="midnightblue" points="202.84,-161.07 192.44,-159.01 199.28,-167.1 202.84,-161.07"/>
</g>
<!-- Node4 -->
<g id="node4" class="node">
<title>Node4</title>
<g id="a_node4"><a xlink:title=" ">
<polygon fill="white" stroke="#bfbfbf" points="215,-140 215,-159 273,-159 273,-140 215,-140"/>
<text text-anchor="middle" x="244" y="-147" font-family="Helvetica,sans-Serif" font-size="10.00">memory</text>
</a>
</g>
</g>
<!-- Node1&#45;&gt;Node4 -->
<g id="edge3" class="edge">
<title>Node1&#45;&gt;Node4</title>
<path fill="none" stroke="midnightblue" d="M273.99,-201.48C268.84,-192.73 260.69,-178.87 254.18,-167.81"/>
<polygon fill="midnightblue" stroke="midnightblue" points="257.09,-165.85 249.01,-159.01 251.06,-169.4 257.09,-165.85"/>
</g>
<!-- Node5 -->
<g id="node5" class="node">
<title>Node5</title>
<g id="a_node5"><a xlink:title=" ">
<polygon fill="white" stroke="#bfbfbf" points="291.5,-140 291.5,-159 338.5,-159 338.5,-140 291.5,-140"/>
<text text-anchor="middle" x="315" y="-147" font-family="Helvetica,sans-Serif" font-size="10.00">vector</text>
</a>
</g>
</g>
<!-- Node1&#45;&gt;Node5 -->
<g id="edge4" class="edge">
<title>Node1&#45;&gt;Node5</title>
<path fill="none" stroke="midnightblue" d="M284.16,-201.48C289.45,-192.73 297.84,-178.87 304.53,-167.81"/>
<polygon fill="midnightblue" stroke="midnightblue" points="307.67,-169.38 309.85,-159.01 301.68,-165.75 307.67,-169.38"/>
</g>
<!-- Node6 -->
<g id="node6" class="node">
<title>Node6</title>
<g id="a_node6"><a xlink:href="macros_8h.html" target="_top" xlink:title=" ">
<polygon fill="white" stroke="black" points="291,-67.5 291,-97.5 443,-97.5 443,-67.5 291,-67.5"/>
<text text-anchor="start" x="299" y="-85.5" font-family="Helvetica,sans-Serif" font-size="10.00">maliput_malidrive/common</text>
<text text-anchor="middle" x="367" y="-74.5" font-family="Helvetica,sans-Serif" font-size="10.00">/macros.h</text>
</a>
</g>
</g>
<!-- Node1&#45;&gt;Node6 -->
<g id="edge5" class="edge">
<title>Node1&#45;&gt;Node6</title>
<path fill="none" stroke="midnightblue" d="M300.28,-201.38C315.83,-194 336.19,-181.87 348,-165 359.69,-148.31 364.27,-125.44 366.03,-108.17"/>
<polygon fill="midnightblue" stroke="midnightblue" points="369.55,-107.99 366.82,-97.76 362.57,-107.46 369.55,-107.99"/>
</g>
<!-- Node13 -->
<g id="node13" class="node">
<title>Node13</title>
<g id="a_node13"><a xlink:href="ground__curve_8h.html" target="_top" xlink:title=" ">
<polygon fill="white" stroke="black" points="395.5,-134.5 395.5,-164.5 526.5,-164.5 526.5,-134.5 395.5,-134.5"/>
<text text-anchor="start" x="403.5" y="-152.5" font-family="Helvetica,sans-Serif" font-size="10.00">maliput_malidrive/road</text>
<text text-anchor="middle" x="461" y="-141.5" font-family="Helvetica,sans-Serif" font-size="10.00">_curve/ground_curve.h</text>
</a>
</g>
</g>
<!-- Node1&#45;&gt;Node13 -->
<g id="edge12" class="edge">
<title>Node1&#45;&gt;Node13</title>
<path fill="none" stroke="midnightblue" d="M305.08,-201.48C331.91,-192.7 374.47,-178.79 408.35,-167.71"/>
<polygon fill="midnightblue" stroke="midnightblue" points="409.69,-170.96 418.11,-164.52 407.51,-164.3 409.69,-170.96"/>
</g>
<!-- Node7 -->
<g id="node7" class="node">
<title>Node7</title>
<g id="a_node7"><a xlink:title=" ">
<polygon fill="white" stroke="#bfbfbf" points="0,-6 0,-25 44,-25 44,-6 0,-6"/>
<text text-anchor="middle" x="22" y="-13" font-family="Helvetica,sans-Serif" font-size="10.00">string</text>
</a>
</g>
</g>
<!-- Node6&#45;&gt;Node7 -->
<g id="edge6" class="edge">
<title>Node6&#45;&gt;Node7</title>
<path fill="none" stroke="midnightblue" d="M290.79,-75.22C226.36,-68.51 132.16,-55.36 53,-31 51.13,-30.42 49.22,-29.75 47.32,-29.03"/>
<polygon fill="midnightblue" stroke="midnightblue" points="48.64,-25.78 38.07,-25.05 45.88,-32.22 48.64,-25.78"/>
</g>
<!-- Node8 -->
<g id="node8" class="node">
<title>Node8</title>
<g id="a_node8"><a xlink:href="../../maliput/html/error_8h.html.html" xlink:title=" ">
<polygon fill="white" stroke="black" points="62.5,-6 62.5,-25 197.5,-25 197.5,-6 62.5,-6"/>
<text text-anchor="middle" x="130" y="-13" font-family="Helvetica,sans-Serif" font-size="10.00">maliput/common/error.h</text>
</a>
</g>
</g>
<!-- Node6&#45;&gt;Node8 -->
<g id="edge7" class="edge">
<title>Node6&#45;&gt;Node8</title>
<path fill="none" stroke="midnightblue" d="M315.87,-67.48C272.46,-55.57 211,-38.72 170.83,-27.7"/>
<polygon fill="midnightblue" stroke="midnightblue" points="171.67,-24.3 161.1,-25.03 169.81,-31.05 171.67,-24.3"/>
</g>
<!-- Node9 -->
<g id="node9" class="node">
<title>Node9</title>
<g id="a_node9"><a xlink:href="../../maliput/html/logger_8h.html.html" xlink:title=" ">
<polygon fill="white" stroke="black" points="215.5,-6 215.5,-25 358.5,-25 358.5,-6 215.5,-6"/>
<text text-anchor="middle" x="287" y="-13" font-family="Helvetica,sans-Serif" font-size="10.00">maliput/common/logger.h</text>
</a>
</g>
</g>
<!-- Node6&#45;&gt;Node9 -->
<g id="edge8" class="edge">
<title>Node6&#45;&gt;Node9</title>
<path fill="none" stroke="midnightblue" d="M349.64,-67.4C336.67,-56.86 318.97,-42.48 305.69,-31.69"/>
<polygon fill="midnightblue" stroke="midnightblue" points="307.67,-28.78 297.7,-25.19 303.26,-34.22 307.67,-28.78"/>
</g>
<!-- Node10 -->
<g id="node10" class="node">
<title>Node10</title>
<g id="a_node10"><a xlink:href="../../maliput/html/maliput__abort_8h.html.html" xlink:title=" ">
<polygon fill="white" stroke="black" points="377,-0.5 377,-30.5 517,-30.5 517,-0.5 377,-0.5"/>
<text text-anchor="start" x="385" y="-18.5" font-family="Helvetica,sans-Serif" font-size="10.00">maliput/common/maliput</text>
<text text-anchor="middle" x="447" y="-7.5" font-family="Helvetica,sans-Serif" font-size="10.00">_abort.h</text>
</a>
</g>
</g>
<!-- Node6&#45;&gt;Node10 -->
<g id="edge9" class="edge">
<title>Node6&#45;&gt;Node10</title>
<path fill="none" stroke="midnightblue" d="M384.36,-67.4C395.26,-58.54 409.51,-46.96 421.66,-37.09"/>
<polygon fill="midnightblue" stroke="midnightblue" points="424.12,-39.6 429.68,-30.58 419.71,-34.17 424.12,-39.6"/>
</g>
<!-- Node11 -->
<g id="node11" class="node">
<title>Node11</title>
<g id="a_node11"><a xlink:href="../../maliput/html/maliput__copyable_8h.html.html" xlink:title=" ">
<polygon fill="white" stroke="black" points="535,-0.5 535,-30.5 675,-30.5 675,-0.5 535,-0.5"/>
<text text-anchor="start" x="543" y="-18.5" font-family="Helvetica,sans-Serif" font-size="10.00">maliput/common/maliput</text>
<text text-anchor="middle" x="605" y="-7.5" font-family="Helvetica,sans-Serif" font-size="10.00">_copyable.h</text>
</a>
</g>
</g>
<!-- Node6&#45;&gt;Node11 -->
<g id="edge10" class="edge">
<title>Node6&#45;&gt;Node11</title>
<path fill="none" stroke="midnightblue" d="M418.35,-67.48C454.98,-57.47 504.41,-43.97 543.2,-33.38"/>
<polygon fill="midnightblue" stroke="midnightblue" points="544.61,-36.62 553.33,-30.61 542.76,-29.87 544.61,-36.62"/>
</g>
<!-- Node12 -->
<g id="node12" class="node">
<title>Node12</title>
<g id="a_node12"><a xlink:href="../../maliput/html/maliput__throw_8h.html.html" xlink:title=" ">
<polygon fill="white" stroke="black" points="693,-0.5 693,-30.5 833,-30.5 833,-0.5 693,-0.5"/>
<text text-anchor="start" x="701" y="-18.5" font-family="Helvetica,sans-Serif" font-size="10.00">maliput/common/maliput</text>
<text text-anchor="middle" x="763" y="-7.5" font-family="Helvetica,sans-Serif" font-size="10.00">_throw.h</text>
</a>
</g>
</g>
<!-- Node6&#45;&gt;Node12 -->
<g id="edge11" class="edge">
<title>Node6&#45;&gt;Node12</title>
<path fill="none" stroke="midnightblue" d="M443.42,-68.56C446.66,-68.03 449.86,-67.51 453,-67 552.46,-50.87 579.91,-48.51 682.93,-31.16"/>
<polygon fill="midnightblue" stroke="midnightblue" points="683.53,-34.6 692.81,-29.49 682.36,-27.7 683.53,-34.6"/>
</g>
<!-- Node13&#45;&gt;Node6 -->
<g id="edge14" class="edge">
<title>Node13&#45;&gt;Node6</title>
<path fill="none" stroke="midnightblue" d="M440.6,-134.4C427.55,-125.37 410.4,-113.51 395.95,-103.52"/>
<polygon fill="midnightblue" stroke="midnightblue" points="397.57,-100.39 387.36,-97.58 393.59,-106.14 397.57,-100.39"/>
</g>
<!-- Node14 -->
<g id="node14" class="node">
<title>Node14</title>
<g id="a_node14"><a xlink:href="../../maliput/html/vector_8h.html.html" xlink:title=" ">
<polygon fill="white" stroke="black" points="461.5,-73 461.5,-92 586.5,-92 586.5,-73 461.5,-73"/>
<text text-anchor="middle" x="524" y="-80" font-family="Helvetica,sans-Serif" font-size="10.00">maliput/math/vector.h</text>
</a>
</g>
</g>
<!-- Node13&#45;&gt;Node14 -->
<g id="edge13" class="edge">
<title>Node13&#45;&gt;Node14</title>
<path fill="none" stroke="midnightblue" d="M474.67,-134.4C484.59,-124.16 498.03,-110.3 508.37,-99.62"/>
<polygon fill="midnightblue" stroke="midnightblue" points="511.13,-101.81 515.57,-92.19 506.1,-96.94 511.13,-101.81"/>
</g>
</g>
</svg>
