<?xml version="1.0" encoding="UTF-8" standalone="no"?>
<!DOCTYPE svg PUBLIC "-//W3C//DTD SVG 1.1//EN"
 "http://www.w3.org/Graphics/SVG/1.1/DTD/svg11.dtd">
<!-- Generated by graphviz version 2.43.0 (0)
 -->
<!-- Title: range_value_rule_state_provider_builder.cc Pages: 1 -->
<svg width="944pt" height="251pt"
 viewBox="0.00 0.00 944.00 251.00" xmlns="http://www.w3.org/2000/svg" xmlns:xlink="http://www.w3.org/1999/xlink">
<g id="graph0" class="graph" transform="scale(1 1) rotate(0) translate(4 247)">
<title>range_value_rule_state_provider_builder.cc</title>
<polygon fill="white" stroke="transparent" points="-4,4 -4,-247 940,-247 940,4 -4,4"/>
<!-- Node1 -->
<g id="node1" class="node">
<title>Node1</title>
<g id="a_node1"><a xlink:title=" ">
<polygon fill="#bfbfbf" stroke="black" points="247.5,-212.5 247.5,-242.5 378.5,-242.5 378.5,-212.5 247.5,-212.5"/>
<text text-anchor="start" x="255.5" y="-230.5" font-family="Helvetica,sans-Serif" font-size="10.00">range_value_rule_state</text>
<text text-anchor="middle" x="313" y="-219.5" font-family="Helvetica,sans-Serif" font-size="10.00">_provider_builder.cc</text>
</a>
</g>
</g>
<!-- Node2 -->
<g id="node2" class="node">
<title>Node2</title>
<g id="a_node2"><a xlink:href="range__value__rule__state__provider__builder_8h.html" target="_top" xlink:title=" ">
<polygon fill="white" stroke="black" points="162.5,-134.5 162.5,-175.5 305.5,-175.5 305.5,-134.5 162.5,-134.5"/>
<text text-anchor="start" x="170.5" y="-163.5" font-family="Helvetica,sans-Serif" font-size="10.00">maliput_malidrive/builder</text>
<text text-anchor="start" x="170.5" y="-152.5" font-family="Helvetica,sans-Serif" font-size="10.00">/range_value_rule_state</text>
<text text-anchor="middle" x="234" y="-141.5" font-family="Helvetica,sans-Serif" font-size="10.00">_provider_builder.h</text>
</a>
</g>
</g>
<!-- Node1&#45;&gt;Node2 -->
<g id="edge1" class="edge">
<title>Node1&#45;&gt;Node2</title>
<path fill="none" stroke="midnightblue" d="M297.01,-212.23C287.42,-203.67 274.91,-192.5 263.56,-182.38"/>
<polygon fill="midnightblue" stroke="midnightblue" points="265.74,-179.64 255.95,-175.59 261.08,-184.86 265.74,-179.64"/>
</g>
<!-- Node13 -->
<g id="node13" class="node">
<title>Node13</title>
<g id="a_node13"><a xlink:href="../../maliput/html/manual__range__value__rule__state__provider_8h.html.html" xlink:title=" ">
<polygon fill="white" stroke="black" points="324,-134.5 324,-175.5 460,-175.5 460,-134.5 324,-134.5"/>
<text text-anchor="start" x="332" y="-163.5" font-family="Helvetica,sans-Serif" font-size="10.00">maliput/base/manual</text>
<text text-anchor="start" x="332" y="-152.5" font-family="Helvetica,sans-Serif" font-size="10.00">_range_value_rule_state</text>
<text text-anchor="middle" x="392" y="-141.5" font-family="Helvetica,sans-Serif" font-size="10.00">_provider.h</text>
</a>
</g>
</g>
<!-- Node1&#45;&gt;Node13 -->
<g id="edge12" class="edge">
<title>Node1&#45;&gt;Node13</title>
<path fill="none" stroke="midnightblue" d="M328.99,-212.23C338.58,-203.67 351.09,-192.5 362.44,-182.38"/>
<polygon fill="midnightblue" stroke="midnightblue" points="364.92,-184.86 370.05,-175.59 360.26,-179.64 364.92,-184.86"/>
</g>
<!-- Node3 -->
<g id="node3" class="node">
<title>Node3</title>
<g id="a_node3"><a xlink:title=" ">
<polygon fill="white" stroke="#bfbfbf" points="0,-73 0,-92 58,-92 58,-73 0,-73"/>
<text text-anchor="middle" x="29" y="-80" font-family="Helvetica,sans-Serif" font-size="10.00">memory</text>
</a>
</g>
</g>
<!-- Node2&#45;&gt;Node3 -->
<g id="edge2" class="edge">
<title>Node2&#45;&gt;Node3</title>
<path fill="none" stroke="midnightblue" d="M173.5,-134.38C141.7,-123.89 102.12,-110.58 67,-98 64.89,-97.25 62.73,-96.46 60.55,-95.65"/>
<polygon fill="midnightblue" stroke="midnightblue" points="61.64,-92.32 51.05,-92.09 59.18,-98.88 61.64,-92.32"/>
</g>
<!-- Node4 -->
<g id="node4" class="node">
<title>Node4</title>
<g id="a_node4"><a xlink:href="../../maliput/html/range__value__rule__state__provider_8h.html.html" xlink:title=" ">
<polygon fill="white" stroke="black" points="76,-67.5 76,-97.5 234,-97.5 234,-67.5 76,-67.5"/>
<text text-anchor="start" x="84" y="-85.5" font-family="Helvetica,sans-Serif" font-size="10.00">maliput/api/rules/range</text>
<text text-anchor="middle" x="155" y="-74.5" font-family="Helvetica,sans-Serif" font-size="10.00">_value_rule_state_provider.h</text>
</a>
</g>
</g>
<!-- Node2&#45;&gt;Node4 -->
<g id="edge3" class="edge">
<title>Node2&#45;&gt;Node4</title>
<path fill="none" stroke="midnightblue" d="M211.99,-134.36C201.59,-125.08 189.15,-113.98 178.56,-104.52"/>
<polygon fill="midnightblue" stroke="midnightblue" points="180.67,-101.72 170.88,-97.67 176.01,-106.94 180.67,-101.72"/>
</g>
<!-- Node5 -->
<g id="node5" class="node">
<title>Node5</title>
<g id="a_node5"><a xlink:href="../../maliput/html/road__rulebook_8h.html.html" xlink:title=" ">
<polygon fill="white" stroke="black" points="252,-67.5 252,-97.5 376,-97.5 376,-67.5 252,-67.5"/>
<text text-anchor="start" x="260" y="-85.5" font-family="Helvetica,sans-Serif" font-size="10.00">maliput/api/rules/road</text>
<text text-anchor="middle" x="314" y="-74.5" font-family="Helvetica,sans-Serif" font-size="10.00">_rulebook.h</text>
</a>
</g>
</g>
<!-- Node2&#45;&gt;Node5 -->
<g id="edge4" class="edge">
<title>Node2&#45;&gt;Node5</title>
<path fill="none" stroke="midnightblue" d="M256.28,-134.36C266.82,-125.08 279.41,-113.98 290.14,-104.52"/>
<polygon fill="midnightblue" stroke="midnightblue" points="292.73,-106.91 297.92,-97.67 288.1,-101.66 292.73,-106.91"/>
</g>
<!-- Node6 -->
<g id="node6" class="node">
<title>Node6</title>
<g id="a_node6"><a xlink:href="macros_8h.html" target="_top" xlink:title=" ">
<polygon fill="white" stroke="black" points="394,-67.5 394,-97.5 546,-97.5 546,-67.5 394,-67.5"/>
<text text-anchor="start" x="402" y="-85.5" font-family="Helvetica,sans-Serif" font-size="10.00">maliput_malidrive/common</text>
<text text-anchor="middle" x="470" y="-74.5" font-family="Helvetica,sans-Serif" font-size="10.00">/macros.h</text>
</a>
</g>
</g>
<!-- Node2&#45;&gt;Node6 -->
<g id="edge5" class="edge">
<title>Node2&#45;&gt;Node6</title>
<path fill="none" stroke="midnightblue" d="M299.43,-134.46C335.06,-123.81 378.73,-110.76 412.97,-100.54"/>
<polygon fill="midnightblue" stroke="midnightblue" points="414.23,-103.81 422.81,-97.6 412.23,-97.11 414.23,-103.81"/>
</g>
<!-- Node7 -->
<g id="node7" class="node">
<title>Node7</title>
<g id="a_node7"><a xlink:title=" ">
<polygon fill="white" stroke="#bfbfbf" points="103,-6 103,-25 147,-25 147,-6 103,-6"/>
<text text-anchor="middle" x="125" y="-13" font-family="Helvetica,sans-Serif" font-size="10.00">string</text>
</a>
</g>
</g>
<!-- Node6&#45;&gt;Node7 -->
<g id="edge6" class="edge">
<title>Node6&#45;&gt;Node7</title>
<path fill="none" stroke="midnightblue" d="M393.55,-68.41C390.67,-67.93 387.81,-67.46 385,-67 283.33,-50.34 254.53,-61.12 156,-31 154.12,-30.43 152.22,-29.76 150.32,-29.03"/>
<polygon fill="midnightblue" stroke="midnightblue" points="151.64,-25.79 141.07,-25.06 148.88,-32.22 151.64,-25.79"/>
</g>
<!-- Node8 -->
<g id="node8" class="node">
<title>Node8</title>
<g id="a_node8"><a xlink:href="../../maliput/html/error_8h.html.html" xlink:title=" ">
<polygon fill="white" stroke="black" points="165.5,-6 165.5,-25 300.5,-25 300.5,-6 165.5,-6"/>
<text text-anchor="middle" x="233" y="-13" font-family="Helvetica,sans-Serif" font-size="10.00">maliput/common/error.h</text>
</a>
</g>
</g>
<!-- Node6&#45;&gt;Node8 -->
<g id="edge7" class="edge">
<title>Node6&#45;&gt;Node8</title>
<path fill="none" stroke="midnightblue" d="M418.87,-67.48C375.46,-55.57 314,-38.72 273.83,-27.7"/>
<polygon fill="midnightblue" stroke="midnightblue" points="274.67,-24.3 264.1,-25.03 272.81,-31.05 274.67,-24.3"/>
</g>
<!-- Node9 -->
<g id="node9" class="node">
<title>Node9</title>
<g id="a_node9"><a xlink:href="../../maliput/html/logger_8h.html.html" xlink:title=" ">
<polygon fill="white" stroke="black" points="318.5,-6 318.5,-25 461.5,-25 461.5,-6 318.5,-6"/>
<text text-anchor="middle" x="390" y="-13" font-family="Helvetica,sans-Serif" font-size="10.00">maliput/common/logger.h</text>
</a>
</g>
</g>
<!-- Node6&#45;&gt;Node9 -->
<g id="edge8" class="edge">
<title>Node6&#45;&gt;Node9</title>
<path fill="none" stroke="midnightblue" d="M452.64,-67.4C439.67,-56.86 421.97,-42.48 408.69,-31.69"/>
<polygon fill="midnightblue" stroke="midnightblue" points="410.67,-28.78 400.7,-25.19 406.26,-34.22 410.67,-28.78"/>
</g>
<!-- Node10 -->
<g id="node10" class="node">
<title>Node10</title>
<g id="a_node10"><a xlink:href="../../maliput/html/maliput__abort_8h.html.html" xlink:title=" ">
<polygon fill="white" stroke="black" points="480,-0.5 480,-30.5 620,-30.5 620,-0.5 480,-0.5"/>
<text text-anchor="start" x="488" y="-18.5" font-family="Helvetica,sans-Serif" font-size="10.00">maliput/common/maliput</text>
<text text-anchor="middle" x="550" y="-7.5" font-family="Helvetica,sans-Serif" font-size="10.00">_abort.h</text>
</a>
</g>
</g>
<!-- Node6&#45;&gt;Node10 -->
<g id="edge9" class="edge">
<title>Node6&#45;&gt;Node10</title>
<path fill="none" stroke="midnightblue" d="M487.36,-67.4C498.26,-58.54 512.51,-46.96 524.66,-37.09"/>
<polygon fill="midnightblue" stroke="midnightblue" points="527.12,-39.6 532.68,-30.58 522.71,-34.17 527.12,-39.6"/>
</g>
<!-- Node11 -->
<g id="node11" class="node">
<title>Node11</title>
<g id="a_node11"><a xlink:href="../../maliput/html/maliput__copyable_8h.html.html" xlink:title=" ">
<polygon fill="white" stroke="black" points="638,-0.5 638,-30.5 778,-30.5 778,-0.5 638,-0.5"/>
<text text-anchor="start" x="646" y="-18.5" font-family="Helvetica,sans-Serif" font-size="10.00">maliput/common/maliput</text>
<text text-anchor="middle" x="708" y="-7.5" font-family="Helvetica,sans-Serif" font-size="10.00">_copyable.h</text>
</a>
</g>
</g>
<!-- Node6&#45;&gt;Node11 -->
<g id="edge10" class="edge">
<title>Node6&#45;&gt;Node11</title>
<path fill="none" stroke="midnightblue" d="M521.35,-67.48C557.98,-57.47 607.41,-43.97 646.2,-33.38"/>
<polygon fill="midnightblue" stroke="midnightblue" points="647.61,-36.62 656.33,-30.61 645.76,-29.87 647.61,-36.62"/>
</g>
<!-- Node12 -->
<g id="node12" class="node">
<title>Node12</title>
<g id="a_node12"><a xlink:href="../../maliput/html/maliput__throw_8h.html.html" xlink:title=" ">
<polygon fill="white" stroke="black" points="796,-0.5 796,-30.5 936,-30.5 936,-0.5 796,-0.5"/>
<text text-anchor="start" x="804" y="-18.5" font-family="Helvetica,sans-Serif" font-size="10.00">maliput/common/maliput</text>
<text text-anchor="middle" x="866" y="-7.5" font-family="Helvetica,sans-Serif" font-size="10.00">_throw.h</text>
</a>
</g>
</g>
<!-- Node6&#45;&gt;Node12 -->
<g id="edge11" class="edge">
<title>Node6&#45;&gt;Node12</title>
<path fill="none" stroke="midnightblue" d="M546.31,-69.86C608.25,-60.29 698.11,-46.14 785.94,-31.16"/>
<polygon fill="midnightblue" stroke="midnightblue" points="786.54,-34.61 795.8,-29.47 785.36,-27.71 786.54,-34.61"/>
</g>
</g>
</svg>
