<?xml version="1.0" encoding="UTF-8" standalone="no"?>
<!DOCTYPE svg PUBLIC "-//W3C//DTD SVG 1.1//EN"
 "http://www.w3.org/Graphics/SVG/1.1/DTD/svg11.dtd">
<!-- Generated by graphviz version 2.43.0 (0)
 -->
<!-- Title: road_curve.h Pages: 1 -->
<!--zoomable 296 -->
<svg id="main" version="1.1" xmlns="http://www.w3.org/2000/svg" xmlns:xlink="http://www.w3.org/1999/xlink" xml:space="preserve" onload="init(evt)">
<style type="text/css"><![CDATA[
.edge:hover path { stroke: red; }
.edge:hover polygon { stroke: red; fill: red; }
]]></style>
<script type="text/javascript"><![CDATA[
var edges = document.getElementsByTagName('g');
if (edges && edges.length) {
  for (var i=0;i<edges.length;i++) {
    if (edges[i].id.substr(0,4)=='edge') {
      edges[i].setAttribute('class','edge');
    }
  }
}
]]></script>
        <defs>
                <circle id="rim" cx="0" cy="0" r="7"/>
                <circle id="rim2" cx="0" cy="0" r="3.5"/>
                <g id="zoomPlus">
                        <use xlink:href="#rim" fill="#404040">
                                <set attributeName="fill" to="#808080" begin="zoomplus.mouseover" end="zoomplus.mouseout"/>
                        </use>
                        <path d="M-4,0h8M0,-4v8" fill="none" stroke="white" stroke-width="1.5" pointer-events="none"/>
                </g>
                <g id="zoomMin">
                        <use xlink:href="#rim" fill="#404040">
                                <set attributeName="fill" to="#808080" begin="zoomminus.mouseover" end="zoomminus.mouseout"/>
                        </use>
                        <path d="M-4,0h8" fill="none" stroke="white" stroke-width="1.5" pointer-events="none"/>
                </g>
                <g id="dirArrow">
                        <path fill="none" stroke="white" stroke-width="1.5" d="M0,-3.0v7 M-2.5,-0.5L0,-3.0L2.5,-0.5"/>
                </g>
               <g id="resetDef">
                       <use xlink:href="#rim2" fill="#404040">
                               <set attributeName="fill" to="#808080" begin="reset.mouseover" end="reset.mouseout"/>
                       </use>
               </g>
        </defs>

<script type="text/javascript">
var viewWidth = 939;
var viewHeight = 296;
var sectionId = 'dynsection-0';
</script>
<script xlink:href="svgpan.js"/>
<svg id="graph" class="graph">
<g id="viewport">
<title>road_curve.h</title>
<polygon fill="white" stroke="transparent" points="-4,4 -4,-292 935,-292 935,4 -4,4"/>
<!-- Node1 -->
<g id="node1" class="node">
<title>Node1</title>
<g id="a_node1"><a xlink:title=" ">
<polygon fill="#bfbfbf" stroke="black" points="259,-268.5 259,-287.5 339,-287.5 339,-268.5 259,-268.5"/>
<text text-anchor="middle" x="299" y="-275.5" font-family="Helvetica,sans-Serif" font-size="10.00">road_curve.h</text>
</a>
</g>
</g>
<!-- Node2 -->
<g id="node2" class="node">
<title>Node2</title>
<g id="a_node2"><a xlink:title=" ">
<polygon fill="white" stroke="#bfbfbf" points="0,-207 0,-226 58,-226 58,-207 0,-207"/>
<text text-anchor="middle" x="29" y="-214" font-family="Helvetica,sans-Serif" font-size="10.00">memory</text>
</a>
</g>
</g>
<!-- Node1&#45;&gt;Node2 -->
<g id="edge1" class="edge">
<title>Node1&#45;&gt;Node2</title>
<path fill="none" stroke="midnightblue" d="M258.68,-271.35C212.01,-264.31 133.08,-250.86 67,-232 64.42,-231.26 61.76,-230.42 59.11,-229.53"/>
<polygon fill="midnightblue" stroke="midnightblue" points="60.28,-226.23 49.69,-226.14 57.91,-232.82 60.28,-226.23"/>
</g>
<!-- Node3 -->
<g id="node3" class="node">
<title>Node3</title>
<g id="a_node3"><a xlink:href="../../maliput/html/roll__pitch__yaw_8h.html.html" xlink:title=" ">
<polygon fill="white" stroke="black" points="76.5,-201.5 76.5,-231.5 207.5,-231.5 207.5,-201.5 76.5,-201.5"/>
<text text-anchor="start" x="84.5" y="-219.5" font-family="Helvetica,sans-Serif" font-size="10.00">maliput/math/roll_pitch</text>
<text text-anchor="middle" x="142" y="-208.5" font-family="Helvetica,sans-Serif" font-size="10.00">_yaw.h</text>
</a>
</g>
</g>
<!-- Node1&#45;&gt;Node3 -->
<g id="edge2" class="edge">
<title>Node1&#45;&gt;Node3</title>
<path fill="none" stroke="midnightblue" d="M276.51,-268.48C253.65,-259.81 217.59,-246.15 188.55,-235.14"/>
<polygon fill="midnightblue" stroke="midnightblue" points="189.59,-231.79 179,-231.52 187.11,-238.34 189.59,-231.79"/>
</g>
<!-- Node4 -->
<g id="node4" class="node">
<title>Node4</title>
<g id="a_node4"><a xlink:href="../../maliput/html/vector_8h.html.html" xlink:title=" ">
<polygon fill="white" stroke="black" points="264.5,-140 264.5,-159 389.5,-159 389.5,-140 264.5,-140"/>
<text text-anchor="middle" x="327" y="-147" font-family="Helvetica,sans-Serif" font-size="10.00">maliput/math/vector.h</text>
</a>
</g>
</g>
<!-- Node1&#45;&gt;Node4 -->
<g id="edge3" class="edge">
<title>Node1&#45;&gt;Node4</title>
<path fill="none" stroke="midnightblue" d="M300.92,-268.31C305.42,-247.99 316.7,-197.05 322.84,-169.28"/>
<polygon fill="midnightblue" stroke="midnightblue" points="326.32,-169.78 325.06,-159.26 319.48,-168.26 326.32,-169.78"/>
</g>
<!-- Node5 -->
<g id="node5" class="node">
<title>Node5</title>
<g id="a_node5"><a xlink:href="macros_8h.html" target="_top" xlink:title=" ">
<polygon fill="white" stroke="black" points="389,-67.5 389,-97.5 541,-97.5 541,-67.5 389,-67.5"/>
<text text-anchor="start" x="397" y="-85.5" font-family="Helvetica,sans-Serif" font-size="10.00">maliput_malidrive/common</text>
<text text-anchor="middle" x="465" y="-74.5" font-family="Helvetica,sans-Serif" font-size="10.00">/macros.h</text>
</a>
</g>
</g>
<!-- Node1&#45;&gt;Node5 -->
<g id="edge4" class="edge">
<title>Node1&#45;&gt;Node5</title>
<path fill="none" stroke="midnightblue" d="M291.41,-268.28C271.51,-244.32 221.56,-176.44 255,-134 270.64,-114.15 328.01,-101.21 378.84,-93.4"/>
<polygon fill="midnightblue" stroke="midnightblue" points="379.53,-96.83 388.9,-91.9 378.5,-89.91 379.53,-96.83"/>
</g>
<!-- Node12 -->
<g id="node12" class="node">
<title>Node12</title>
<g id="a_node12"><a xlink:href="function_8h.html" target="_top" xlink:title=" ">
<polygon fill="white" stroke="black" points="446.5,-134.5 446.5,-164.5 577.5,-164.5 577.5,-134.5 446.5,-134.5"/>
<text text-anchor="start" x="454.5" y="-152.5" font-family="Helvetica,sans-Serif" font-size="10.00">maliput_malidrive/road</text>
<text text-anchor="middle" x="512" y="-141.5" font-family="Helvetica,sans-Serif" font-size="10.00">_curve/function.h</text>
</a>
</g>
</g>
<!-- Node1&#45;&gt;Node12 -->
<g id="edge11" class="edge">
<title>Node1&#45;&gt;Node12</title>
<path fill="none" stroke="midnightblue" d="M339.25,-275.02C375.98,-271.32 430.02,-260.94 467,-232 485.79,-217.29 497.88,-192.44 504.74,-174.03"/>
<polygon fill="midnightblue" stroke="midnightblue" points="508.05,-175.17 508.03,-164.58 501.44,-172.88 508.05,-175.17"/>
</g>
<!-- Node13 -->
<g id="node13" class="node">
<title>Node13</title>
<g id="a_node13"><a xlink:href="ground__curve_8h.html" target="_top" xlink:title=" ">
<polygon fill="white" stroke="black" points="327.5,-201.5 327.5,-231.5 458.5,-231.5 458.5,-201.5 327.5,-201.5"/>
<text text-anchor="start" x="335.5" y="-219.5" font-family="Helvetica,sans-Serif" font-size="10.00">maliput_malidrive/road</text>
<text text-anchor="middle" x="393" y="-208.5" font-family="Helvetica,sans-Serif" font-size="10.00">_curve/ground_curve.h</text>
</a>
</g>
</g>
<!-- Node1&#45;&gt;Node13 -->
<g id="edge13" class="edge">
<title>Node1&#45;&gt;Node13</title>
<path fill="none" stroke="midnightblue" d="M312.47,-268.48C325.44,-260.27 345.51,-247.56 362.38,-236.88"/>
<polygon fill="midnightblue" stroke="midnightblue" points="364.27,-239.83 370.85,-231.52 360.52,-233.91 364.27,-239.83"/>
</g>
<!-- Node14 -->
<g id="node14" class="node">
<title>Node14</title>
<g id="a_node14"><a xlink:href="road__curve_2lane__offset_8h.html" target="_top" xlink:title=" ">
<polygon fill="white" stroke="black" points="558.5,-201.5 558.5,-231.5 689.5,-231.5 689.5,-201.5 558.5,-201.5"/>
<text text-anchor="start" x="566.5" y="-219.5" font-family="Helvetica,sans-Serif" font-size="10.00">maliput_malidrive/road</text>
<text text-anchor="middle" x="624" y="-208.5" font-family="Helvetica,sans-Serif" font-size="10.00">_curve/lane_offset.h</text>
</a>
</g>
</g>
<!-- Node1&#45;&gt;Node14 -->
<g id="edge16" class="edge">
<title>Node1&#45;&gt;Node14</title>
<path fill="none" stroke="midnightblue" d="M339.18,-269.64C391.27,-260.11 483.18,-243.28 548.5,-231.32"/>
<polygon fill="midnightblue" stroke="midnightblue" points="549.13,-234.76 558.34,-229.52 547.87,-227.88 549.13,-234.76"/>
</g>
<!-- Node6 -->
<g id="node6" class="node">
<title>Node6</title>
<g id="a_node6"><a xlink:title=" ">
<polygon fill="white" stroke="#bfbfbf" points="98,-6 98,-25 142,-25 142,-6 98,-6"/>
<text text-anchor="middle" x="120" y="-13" font-family="Helvetica,sans-Serif" font-size="10.00">string</text>
</a>
</g>
</g>
<!-- Node5&#45;&gt;Node6 -->
<g id="edge5" class="edge">
<title>Node5&#45;&gt;Node6</title>
<path fill="none" stroke="midnightblue" d="M388.79,-75.22C324.36,-68.51 230.16,-55.36 151,-31 149.13,-30.42 147.22,-29.75 145.32,-29.03"/>
<polygon fill="midnightblue" stroke="midnightblue" points="146.64,-25.78 136.07,-25.05 143.88,-32.22 146.64,-25.78"/>
</g>
<!-- Node7 -->
<g id="node7" class="node">
<title>Node7</title>
<g id="a_node7"><a xlink:href="../../maliput/html/error_8h.html.html" xlink:title=" ">
<polygon fill="white" stroke="black" points="160.5,-6 160.5,-25 295.5,-25 295.5,-6 160.5,-6"/>
<text text-anchor="middle" x="228" y="-13" font-family="Helvetica,sans-Serif" font-size="10.00">maliput/common/error.h</text>
</a>
</g>
</g>
<!-- Node5&#45;&gt;Node7 -->
<g id="edge6" class="edge">
<title>Node5&#45;&gt;Node7</title>
<path fill="none" stroke="midnightblue" d="M413.87,-67.48C370.46,-55.57 309,-38.72 268.83,-27.7"/>
<polygon fill="midnightblue" stroke="midnightblue" points="269.67,-24.3 259.1,-25.03 267.81,-31.05 269.67,-24.3"/>
</g>
<!-- Node8 -->
<g id="node8" class="node">
<title>Node8</title>
<g id="a_node8"><a xlink:href="../../maliput/html/logger_8h.html.html" xlink:title=" ">
<polygon fill="white" stroke="black" points="313.5,-6 313.5,-25 456.5,-25 456.5,-6 313.5,-6"/>
<text text-anchor="middle" x="385" y="-13" font-family="Helvetica,sans-Serif" font-size="10.00">maliput/common/logger.h</text>
</a>
</g>
</g>
<!-- Node5&#45;&gt;Node8 -->
<g id="edge7" class="edge">
<title>Node5&#45;&gt;Node8</title>
<path fill="none" stroke="midnightblue" d="M447.64,-67.4C434.67,-56.86 416.97,-42.48 403.69,-31.69"/>
<polygon fill="midnightblue" stroke="midnightblue" points="405.67,-28.78 395.7,-25.19 401.26,-34.22 405.67,-28.78"/>
</g>
<!-- Node9 -->
<g id="node9" class="node">
<title>Node9</title>
<g id="a_node9"><a xlink:href="../../maliput/html/maliput__abort_8h.html.html" xlink:title=" ">
<polygon fill="white" stroke="black" points="475,-0.5 475,-30.5 615,-30.5 615,-0.5 475,-0.5"/>
<text text-anchor="start" x="483" y="-18.5" font-family="Helvetica,sans-Serif" font-size="10.00">maliput/common/maliput</text>
<text text-anchor="middle" x="545" y="-7.5" font-family="Helvetica,sans-Serif" font-size="10.00">_abort.h</text>
</a>
</g>
</g>
<!-- Node5&#45;&gt;Node9 -->
<g id="edge8" class="edge">
<title>Node5&#45;&gt;Node9</title>
<path fill="none" stroke="midnightblue" d="M482.36,-67.4C493.26,-58.54 507.51,-46.96 519.66,-37.09"/>
<polygon fill="midnightblue" stroke="midnightblue" points="522.12,-39.6 527.68,-30.58 517.71,-34.17 522.12,-39.6"/>
</g>
<!-- Node10 -->
<g id="node10" class="node">
<title>Node10</title>
<g id="a_node10"><a xlink:href="../../maliput/html/maliput__copyable_8h.html.html" xlink:title=" ">
<polygon fill="white" stroke="black" points="633,-0.5 633,-30.5 773,-30.5 773,-0.5 633,-0.5"/>
<text text-anchor="start" x="641" y="-18.5" font-family="Helvetica,sans-Serif" font-size="10.00">maliput/common/maliput</text>
<text text-anchor="middle" x="703" y="-7.5" font-family="Helvetica,sans-Serif" font-size="10.00">_copyable.h</text>
</a>
</g>
</g>
<!-- Node5&#45;&gt;Node10 -->
<g id="edge9" class="edge">
<title>Node5&#45;&gt;Node10</title>
<path fill="none" stroke="midnightblue" d="M516.35,-67.48C552.98,-57.47 602.41,-43.97 641.2,-33.38"/>
<polygon fill="midnightblue" stroke="midnightblue" points="642.61,-36.62 651.33,-30.61 640.76,-29.87 642.61,-36.62"/>
</g>
<!-- Node11 -->
<g id="node11" class="node">
<title>Node11</title>
<g id="a_node11"><a xlink:href="../../maliput/html/maliput__throw_8h.html.html" xlink:title=" ">
<polygon fill="white" stroke="black" points="791,-0.5 791,-30.5 931,-30.5 931,-0.5 791,-0.5"/>
<text text-anchor="start" x="799" y="-18.5" font-family="Helvetica,sans-Serif" font-size="10.00">maliput/common/maliput</text>
<text text-anchor="middle" x="861" y="-7.5" font-family="Helvetica,sans-Serif" font-size="10.00">_throw.h</text>
</a>
</g>
</g>
<!-- Node5&#45;&gt;Node11 -->
<g id="edge10" class="edge">
<title>Node5&#45;&gt;Node11</title>
<path fill="none" stroke="midnightblue" d="M541.31,-69.86C603.25,-60.29 693.11,-46.14 780.94,-31.16"/>
<polygon fill="midnightblue" stroke="midnightblue" points="781.54,-34.61 790.8,-29.47 780.36,-27.71 781.54,-34.61"/>
</g>
<!-- Node12&#45;&gt;Node5 -->
<g id="edge12" class="edge">
<title>Node12&#45;&gt;Node5</title>
<path fill="none" stroke="midnightblue" d="M501.8,-134.4C495.77,-126.05 487.98,-115.29 481.13,-105.81"/>
<polygon fill="midnightblue" stroke="midnightblue" points="483.87,-103.63 475.18,-97.58 478.2,-107.73 483.87,-103.63"/>
</g>
<!-- Node13&#45;&gt;Node4 -->
<g id="edge14" class="edge">
<title>Node13&#45;&gt;Node4</title>
<path fill="none" stroke="midnightblue" d="M378.68,-201.4C368.18,-191.06 353.93,-177.02 343.05,-166.31"/>
<polygon fill="midnightblue" stroke="midnightblue" points="345.41,-163.72 335.83,-159.19 340.5,-168.71 345.41,-163.72"/>
</g>
<!-- Node13&#45;&gt;Node5 -->
<g id="edge15" class="edge">
<title>Node13&#45;&gt;Node5</title>
<path fill="none" stroke="midnightblue" d="M400.58,-201.34C409.31,-185.06 424.11,-157.56 437,-134 441.95,-124.96 447.44,-115.03 452.24,-106.39"/>
<polygon fill="midnightblue" stroke="midnightblue" points="455.31,-108.07 457.11,-97.63 449.19,-104.66 455.31,-108.07"/>
</g>
<!-- Node14&#45;&gt;Node5 -->
<g id="edge19" class="edge">
<title>Node14&#45;&gt;Node5</title>
<path fill="none" stroke="midnightblue" d="M689.77,-208.95C757.62,-199.66 848.5,-178.55 810,-134 777.19,-96.04 642.19,-86.06 551.11,-83.75"/>
<polygon fill="midnightblue" stroke="midnightblue" points="551.14,-80.25 541.06,-83.52 550.98,-87.25 551.14,-80.25"/>
</g>
<!-- Node14&#45;&gt;Node12 -->
<g id="edge20" class="edge">
<title>Node14&#45;&gt;Node12</title>
<path fill="none" stroke="midnightblue" d="M599.7,-201.4C583.7,-192.11 562.56,-179.84 545.04,-169.67"/>
<polygon fill="midnightblue" stroke="midnightblue" points="546.66,-166.57 536.25,-164.58 543.15,-172.62 546.66,-166.57"/>
</g>
<!-- Node15 -->
<g id="node15" class="node">
<title>Node15</title>
<g id="a_node15"><a xlink:title=" ">
<polygon fill="white" stroke="#bfbfbf" points="596,-140 596,-159 652,-159 652,-140 596,-140"/>
<text text-anchor="middle" x="624" y="-147" font-family="Helvetica,sans-Serif" font-size="10.00">optional</text>
</a>
</g>
</g>
<!-- Node14&#45;&gt;Node15 -->
<g id="edge17" class="edge">
<title>Node14&#45;&gt;Node15</title>
<path fill="none" stroke="midnightblue" d="M624,-201.4C624,-192.06 624,-179.71 624,-169.52"/>
<polygon fill="midnightblue" stroke="midnightblue" points="627.5,-169.19 624,-159.19 620.5,-169.19 627.5,-169.19"/>
</g>
<!-- Node16 -->
<g id="node16" class="node">
<title>Node16</title>
<g id="a_node16"><a xlink:href="../../maliput/html/range__validator_8h.html.html" xlink:title=" ">
<polygon fill="white" stroke="black" points="670.5,-134.5 670.5,-164.5 801.5,-164.5 801.5,-134.5 670.5,-134.5"/>
<text text-anchor="start" x="678.5" y="-152.5" font-family="Helvetica,sans-Serif" font-size="10.00">maliput/common/range</text>
<text text-anchor="middle" x="736" y="-141.5" font-family="Helvetica,sans-Serif" font-size="10.00">_validator.h</text>
</a>
</g>
</g>
<!-- Node14&#45;&gt;Node16 -->
<g id="edge18" class="edge">
<title>Node14&#45;&gt;Node16</title>
<path fill="none" stroke="midnightblue" d="M648.3,-201.4C664.3,-192.11 685.44,-179.84 702.96,-169.67"/>
<polygon fill="midnightblue" stroke="midnightblue" points="704.85,-172.62 711.75,-164.58 701.34,-166.57 704.85,-172.62"/>
</g>
</g>
</svg>
        <g id="navigator" transform="translate(0 0)" fill="#404254">
                <rect fill="#f2f5e9" fill-opacity="0.5" stroke="#606060" stroke-width=".5" x="0" y="0" width="60" height="60"/>
                <use id="zoomplus" xlink:href="#zoomPlus" x="17" y="9" onmousedown="handleZoom(evt,'in')"/>
                <use id="zoomminus" xlink:href="#zoomMin" x="42" y="9" onmousedown="handleZoom(evt,'out')"/>
                <use id="reset" xlink:href="#resetDef" x="30" y="36" onmousedown="handleReset()"/>
                <g id="arrowUp" xlink:href="#dirArrow" transform="translate(30 24)" onmousedown="handlePan(0,-1)">
                  <use xlink:href="#rim" fill="#404040">
                        <set attributeName="fill" to="#808080" begin="arrowUp.mouseover" end="arrowUp.mouseout"/>
                  </use>
                  <path fill="none" stroke="white" stroke-width="1.5" d="M0,-3.0v7 M-2.5,-0.5L0,-3.0L2.5,-0.5"/>
                </g>
                <g id="arrowRight" xlink:href="#dirArrow" transform="rotate(90) translate(36 -43)" onmousedown="handlePan(1,0)">
                  <use xlink:href="#rim" fill="#404040">
                        <set attributeName="fill" to="#808080" begin="arrowRight.mouseover" end="arrowRight.mouseout"/>
                  </use>
                  <path fill="none" stroke="white" stroke-width="1.5" d="M0,-3.0v7 M-2.5,-0.5L0,-3.0L2.5,-0.5"/>
                </g>
                <g id="arrowDown" xlink:href="#dirArrow" transform="rotate(180) translate(-30 -48)" onmousedown="handlePan(0,1)">
                  <use xlink:href="#rim" fill="#404040">
                        <set attributeName="fill" to="#808080" begin="arrowDown.mouseover" end="arrowDown.mouseout"/>
                  </use>
                  <path fill="none" stroke="white" stroke-width="1.5" d="M0,-3.0v7 M-2.5,-0.5L0,-3.0L2.5,-0.5"/>
                </g>
                <g id="arrowLeft" xlink:href="#dirArrow" transform="rotate(270) translate(-36 17)" onmousedown="handlePan(-1,0)">
                  <use xlink:href="#rim" fill="#404040">
                        <set attributeName="fill" to="#808080" begin="arrowLeft.mouseover" end="arrowLeft.mouseout"/>
                  </use>
                  <path fill="none" stroke="white" stroke-width="1.5" d="M0,-3.0v7 M-2.5,-0.5L0,-3.0L2.5,-0.5"/>
                </g>
        </g>
        <svg viewBox="0 0 15 15" width="100%" height="30px" preserveAspectRatio="xMaxYMin meet">
         <g id="arrow_out" transform="scale(0.3 0.3)">
          <a xlink:href="road__curve_8h__incl_org.svg" target="_base">
           <rect id="button" ry="5" rx="5" y="6" x="6" height="38" width="38"
                fill="#f2f5e9" fill-opacity="0.5" stroke="#606060" stroke-width="1.0"/>
           <path id="arrow"
             d="M 11.500037,31.436501 C 11.940474,20.09759 22.043105,11.32322 32.158766,21.979434 L 37.068811,17.246167 C 37.068811,17.246167 37.088388,32 37.088388,32 L 22.160133,31.978069 C 22.160133,31.978069 26.997745,27.140456 26.997745,27.140456 C 18.528582,18.264221 13.291696,25.230495 11.500037,31.436501 z"
             style="fill:#404040;"/>
          </a>
         </g>
        </svg>
</svg>
