<?xml version="1.0" encoding="UTF-8" standalone="no"?>
<!DOCTYPE svg PUBLIC "-//W3C//DTD SVG 1.1//EN"
 "http://www.w3.org/Graphics/SVG/1.1/DTD/svg11.dtd">
<!-- Generated by graphviz version 2.43.0 (0)
 -->
<!-- Title: road_rulebook_builder_old_rules.h Pages: 1 -->
<!--zoomable 508 -->
<svg id="main" version="1.1" xmlns="http://www.w3.org/2000/svg" xmlns:xlink="http://www.w3.org/1999/xlink" xml:space="preserve" onload="init(evt)">
<style type="text/css"><![CDATA[
.edge:hover path { stroke: red; }
.edge:hover polygon { stroke: red; fill: red; }
]]></style>
<script type="text/javascript"><![CDATA[
var edges = document.getElementsByTagName('g');
if (edges && edges.length) {
  for (var i=0;i<edges.length;i++) {
    if (edges[i].id.substr(0,4)=='edge') {
      edges[i].setAttribute('class','edge');
    }
  }
}
]]></script>
        <defs>
                <circle id="rim" cx="0" cy="0" r="7"/>
                <circle id="rim2" cx="0" cy="0" r="3.5"/>
                <g id="zoomPlus">
                        <use xlink:href="#rim" fill="#404040">
                                <set attributeName="fill" to="#808080" begin="zoomplus.mouseover" end="zoomplus.mouseout"/>
                        </use>
                        <path d="M-4,0h8M0,-4v8" fill="none" stroke="white" stroke-width="1.5" pointer-events="none"/>
                </g>
                <g id="zoomMin">
                        <use xlink:href="#rim" fill="#404040">
                                <set attributeName="fill" to="#808080" begin="zoomminus.mouseover" end="zoomminus.mouseout"/>
                        </use>
                        <path d="M-4,0h8" fill="none" stroke="white" stroke-width="1.5" pointer-events="none"/>
                </g>
                <g id="dirArrow">
                        <path fill="none" stroke="white" stroke-width="1.5" d="M0,-3.0v7 M-2.5,-0.5L0,-3.0L2.5,-0.5"/>
                </g>
               <g id="resetDef">
                       <use xlink:href="#rim2" fill="#404040">
                               <set attributeName="fill" to="#808080" begin="reset.mouseover" end="reset.mouseout"/>
                       </use>
               </g>
        </defs>

<script type="text/javascript">
var viewWidth = 1702;
var viewHeight = 508;
var sectionId = 'dynsection-0';
</script>
<script xlink:href="svgpan.js"/>
<svg id="graph" class="graph">
<g id="viewport">
<title>road_rulebook_builder_old_rules.h</title>
<polygon fill="white" stroke="transparent" points="-4,4 -4,-504 1698,-504 1698,4 -4,4"/>
<!-- Node1 -->
<g id="node1" class="node">
<title>Node1</title>
<g id="a_node1"><a xlink:title=" ">
<polygon fill="#bfbfbf" stroke="black" points="482.5,-469.5 482.5,-499.5 607.5,-499.5 607.5,-469.5 482.5,-469.5"/>
<text text-anchor="start" x="490.5" y="-487.5" font-family="Helvetica,sans-Serif" font-size="10.00">road_rulebook_builder</text>
<text text-anchor="middle" x="545" y="-476.5" font-family="Helvetica,sans-Serif" font-size="10.00">_old_rules.h</text>
</a>
</g>
</g>
<!-- Node2 -->
<g id="node2" class="node">
<title>Node2</title>
<g id="a_node2"><a xlink:title=" ">
<polygon fill="white" stroke="#bfbfbf" points="574,-207 574,-226 632,-226 632,-207 574,-207"/>
<text text-anchor="middle" x="603" y="-214" font-family="Helvetica,sans-Serif" font-size="10.00">memory</text>
</a>
</g>
</g>
<!-- Node1&#45;&gt;Node2 -->
<g id="edge1" class="edge">
<title>Node1&#45;&gt;Node2</title>
<path fill="none" stroke="midnightblue" d="M482.15,-482.57C400.42,-479.88 264.34,-469.82 233,-433 224.07,-422.51 226.17,-413.97 233,-402 291.09,-300.26 353.82,-317.52 460,-268 494.15,-252.07 534.81,-238.17 564.03,-229.01"/>
<polygon fill="midnightblue" stroke="midnightblue" points="565.34,-232.27 573.86,-225.97 563.27,-225.58 565.34,-232.27"/>
</g>
<!-- Node3 -->
<g id="node3" class="node">
<title>Node3</title>
<g id="a_node3"><a xlink:title=" ">
<polygon fill="white" stroke="#bfbfbf" points="321,-140 321,-159 377,-159 377,-140 321,-140"/>
<text text-anchor="middle" x="349" y="-147" font-family="Helvetica,sans-Serif" font-size="10.00">optional</text>
</a>
</g>
</g>
<!-- Node1&#45;&gt;Node3 -->
<g id="edge2" class="edge">
<title>Node1&#45;&gt;Node3</title>
<path fill="none" stroke="midnightblue" d="M482.24,-479.02C354.44,-468.16 76,-434.92 76,-351.5 76,-351.5 76,-351.5 76,-282.5 76,-179.43 235.69,-156.8 310.8,-151.87"/>
<polygon fill="midnightblue" stroke="midnightblue" points="311.03,-155.36 320.81,-151.28 310.62,-148.37 311.03,-155.36"/>
</g>
<!-- Node4 -->
<g id="node4" class="node">
<title>Node4</title>
<g id="a_node4"><a xlink:title=" ">
<polygon fill="white" stroke="#bfbfbf" points="92,-6 92,-25 136,-25 136,-6 92,-6"/>
<text text-anchor="middle" x="114" y="-13" font-family="Helvetica,sans-Serif" font-size="10.00">string</text>
</a>
</g>
</g>
<!-- Node1&#45;&gt;Node4 -->
<g id="edge3" class="edge">
<title>Node1&#45;&gt;Node4</title>
<path fill="none" stroke="midnightblue" d="M482.48,-481.48C339.33,-475.17 0,-449.83 0,-351.5 0,-351.5 0,-351.5 0,-148.5 0,-108.34 12.76,-97.39 39,-67 52.25,-51.65 71.23,-38.93 86.78,-30.1"/>
<polygon fill="midnightblue" stroke="midnightblue" points="88.83,-32.97 95.93,-25.11 85.48,-26.82 88.83,-32.97"/>
</g>
<!-- Node5 -->
<g id="node5" class="node">
<title>Node5</title>
<g id="a_node5"><a xlink:title=" ">
<polygon fill="white" stroke="#bfbfbf" points="242.5,-408 242.5,-427 289.5,-427 289.5,-408 242.5,-408"/>
<text text-anchor="middle" x="266" y="-415" font-family="Helvetica,sans-Serif" font-size="10.00">vector</text>
</a>
</g>
</g>
<!-- Node1&#45;&gt;Node5 -->
<g id="edge4" class="edge">
<title>Node1&#45;&gt;Node5</title>
<path fill="none" stroke="midnightblue" d="M482.34,-474.67C431.81,-466.6 359.31,-452.88 298,-433 296.13,-432.39 294.22,-431.71 292.32,-430.98"/>
<polygon fill="midnightblue" stroke="midnightblue" points="293.57,-427.71 282.99,-427.05 290.85,-434.16 293.57,-427.71"/>
</g>
<!-- Node6 -->
<g id="node6" class="node">
<title>Node6</title>
<g id="a_node6"><a xlink:title=" ">
<polygon fill="white" stroke="#bfbfbf" points="307.5,-408 307.5,-427 464.5,-427 464.5,-408 307.5,-408"/>
<text text-anchor="middle" x="386" y="-415" font-family="Helvetica,sans-Serif" font-size="10.00">maliput/api/road_geometry.h</text>
</a>
</g>
</g>
<!-- Node1&#45;&gt;Node6 -->
<g id="edge5" class="edge">
<title>Node1&#45;&gt;Node6</title>
<path fill="none" stroke="midnightblue" d="M510.5,-469.4C482.35,-457.89 442.99,-441.8 416.11,-430.81"/>
<polygon fill="midnightblue" stroke="midnightblue" points="417.39,-427.55 406.81,-427.01 414.74,-434.03 417.39,-427.55"/>
</g>
<!-- Node7 -->
<g id="node7" class="node">
<title>Node7</title>
<g id="a_node7"><a xlink:href="../../maliput/html/road__rulebook_8h.html.html" xlink:title=" ">
<polygon fill="white" stroke="black" points="483,-402.5 483,-432.5 607,-432.5 607,-402.5 483,-402.5"/>
<text text-anchor="start" x="491" y="-420.5" font-family="Helvetica,sans-Serif" font-size="10.00">maliput/api/rules/road</text>
<text text-anchor="middle" x="545" y="-409.5" font-family="Helvetica,sans-Serif" font-size="10.00">_rulebook.h</text>
</a>
</g>
</g>
<!-- Node1&#45;&gt;Node7 -->
<g id="edge6" class="edge">
<title>Node1&#45;&gt;Node7</title>
<path fill="none" stroke="midnightblue" d="M545,-469.4C545,-461.64 545,-451.81 545,-442.86"/>
<polygon fill="midnightblue" stroke="midnightblue" points="548.5,-442.58 545,-432.58 541.5,-442.58 548.5,-442.58"/>
</g>
<!-- Node8 -->
<g id="node8" class="node">
<title>Node8</title>
<g id="a_node8"><a xlink:href="../../maliput/html/manual__rulebook_8h.html.html" xlink:title=" ">
<polygon fill="white" stroke="black" points="625,-402.5 625,-432.5 745,-432.5 745,-402.5 625,-402.5"/>
<text text-anchor="start" x="633" y="-420.5" font-family="Helvetica,sans-Serif" font-size="10.00">maliput/base/manual</text>
<text text-anchor="middle" x="685" y="-409.5" font-family="Helvetica,sans-Serif" font-size="10.00">_rulebook.h</text>
</a>
</g>
</g>
<!-- Node1&#45;&gt;Node8 -->
<g id="edge7" class="edge">
<title>Node1&#45;&gt;Node8</title>
<path fill="none" stroke="midnightblue" d="M575.38,-469.4C595.93,-459.86 623.26,-447.16 645.5,-436.84"/>
<polygon fill="midnightblue" stroke="midnightblue" points="647.09,-439.96 654.68,-432.58 644.14,-433.61 647.09,-439.96"/>
</g>
<!-- Node9 -->
<g id="node9" class="node">
<title>Node9</title>
<g id="a_node9"><a xlink:title=" ">
<polygon fill="white" stroke="#bfbfbf" points="763,-408 763,-427 915,-427 915,-408 763,-408"/>
<text text-anchor="middle" x="839" y="-415" font-family="Helvetica,sans-Serif" font-size="10.00">maliput/base/rule_registry.h</text>
</a>
</g>
</g>
<!-- Node1&#45;&gt;Node9 -->
<g id="edge8" class="edge">
<title>Node1&#45;&gt;Node9</title>
<path fill="none" stroke="midnightblue" d="M607.71,-469.64C662.3,-457.57 740.31,-440.32 790.31,-429.26"/>
<polygon fill="midnightblue" stroke="midnightblue" points="791.22,-432.65 800.23,-427.07 789.71,-425.81 791.22,-432.65"/>
</g>
<!-- Node10 -->
<g id="node10" class="node">
<title>Node10</title>
<g id="a_node10"><a xlink:href="base_2lane_8h.html" target="_top" xlink:title=" ">
<polygon fill="white" stroke="black" points="933,-402.5 933,-432.5 1065,-432.5 1065,-402.5 933,-402.5"/>
<text text-anchor="start" x="941" y="-420.5" font-family="Helvetica,sans-Serif" font-size="10.00">maliput_malidrive/base</text>
<text text-anchor="middle" x="999" y="-409.5" font-family="Helvetica,sans-Serif" font-size="10.00">/lane.h</text>
</a>
</g>
</g>
<!-- Node1&#45;&gt;Node10 -->
<g id="edge9" class="edge">
<title>Node1&#45;&gt;Node10</title>
<path fill="none" stroke="midnightblue" d="M607.54,-476.3C680.68,-467.63 805.63,-452.03 922.58,-433.18"/>
<polygon fill="midnightblue" stroke="midnightblue" points="923.47,-436.58 932.78,-431.52 922.35,-429.67 923.47,-436.58"/>
</g>
<!-- Node14 -->
<g id="node14" class="node">
<title>Node14</title>
<g id="a_node14"><a xlink:href="macros_8h.html" target="_top" xlink:title=" ">
<polygon fill="white" stroke="black" points="772,-67.5 772,-97.5 924,-97.5 924,-67.5 772,-67.5"/>
<text text-anchor="start" x="780" y="-85.5" font-family="Helvetica,sans-Serif" font-size="10.00">maliput_malidrive/common</text>
<text text-anchor="middle" x="848" y="-74.5" font-family="Helvetica,sans-Serif" font-size="10.00">/macros.h</text>
</a>
</g>
</g>
<!-- Node1&#45;&gt;Node14 -->
<g id="edge58" class="edge">
<title>Node1&#45;&gt;Node14</title>
<path fill="none" stroke="midnightblue" d="M607.56,-479.68C794.81,-467.4 1338,-425.43 1338,-351.5 1338,-351.5 1338,-351.5 1338,-215.5 1338,-178.2 1346.07,-158.55 1318,-134 1289.77,-109.31 1062.21,-94.13 934.38,-87.47"/>
<polygon fill="midnightblue" stroke="midnightblue" points="934.39,-83.97 924.22,-86.95 934.03,-90.96 934.39,-83.97"/>
</g>
<!-- Node36 -->
<g id="node36" class="node">
<title>Node36</title>
<g id="a_node36"><a xlink:href="rule__tools_8h.html" target="_top" xlink:title=" ">
<polygon fill="white" stroke="black" points="1385.5,-402.5 1385.5,-432.5 1528.5,-432.5 1528.5,-402.5 1385.5,-402.5"/>
<text text-anchor="start" x="1393.5" y="-420.5" font-family="Helvetica,sans-Serif" font-size="10.00">maliput_malidrive/builder</text>
<text text-anchor="middle" x="1457" y="-409.5" font-family="Helvetica,sans-Serif" font-size="10.00">/rule_tools.h</text>
</a>
</g>
</g>
<!-- Node1&#45;&gt;Node36 -->
<g id="edge54" class="edge">
<title>Node1&#45;&gt;Node36</title>
<path fill="none" stroke="midnightblue" d="M607.66,-481.18C743.51,-475.78 1075.26,-460.73 1352,-433 1359.6,-432.24 1367.49,-431.34 1375.38,-430.38"/>
<polygon fill="midnightblue" stroke="midnightblue" points="1375.87,-433.84 1385.35,-429.12 1374.99,-426.9 1375.87,-433.84"/>
</g>
<!-- Node10&#45;&gt;Node2 -->
<g id="edge10" class="edge">
<title>Node10&#45;&gt;Node2</title>
<path fill="none" stroke="midnightblue" d="M932.81,-403.32C929.84,-402.85 926.89,-402.4 924,-402 832.98,-389.26 589.32,-415.67 512,-366 472.7,-340.75 447.67,-306.59 474,-268 479.55,-259.87 530.7,-241.51 566.89,-229.31"/>
<polygon fill="midnightblue" stroke="midnightblue" points="568.28,-232.53 576.66,-226.04 566.06,-225.9 568.28,-232.53"/>
</g>
<!-- Node11 -->
<g id="node11" class="node">
<title>Node11</title>
<g id="a_node11"><a xlink:href="../../maliput/html/lane__data_8h.html.html" xlink:title=" ">
<polygon fill="white" stroke="black" points="521,-341 521,-360 653,-360 653,-341 521,-341"/>
<text text-anchor="middle" x="587" y="-348" font-family="Helvetica,sans-Serif" font-size="10.00">maliput/api/lane_data.h</text>
</a>
</g>
</g>
<!-- Node10&#45;&gt;Node11 -->
<g id="edge11" class="edge">
<title>Node10&#45;&gt;Node11</title>
<path fill="none" stroke="midnightblue" d="M932.78,-403.5C929.82,-402.98 926.88,-402.48 924,-402 808.03,-382.84 777.97,-385.16 662,-366 654.54,-364.77 646.68,-363.36 638.97,-361.93"/>
<polygon fill="midnightblue" stroke="midnightblue" points="639.45,-358.46 628.97,-360.03 638.15,-365.33 639.45,-358.46"/>
</g>
<!-- Node12 -->
<g id="node12" class="node">
<title>Node12</title>
<g id="a_node12"><a xlink:title=" ">
<polygon fill="white" stroke="#bfbfbf" points="671.5,-335.5 671.5,-365.5 804.5,-365.5 804.5,-335.5 671.5,-335.5"/>
<text text-anchor="start" x="679.5" y="-353.5" font-family="Helvetica,sans-Serif" font-size="10.00">maliput/geometry_base</text>
<text text-anchor="middle" x="738" y="-342.5" font-family="Helvetica,sans-Serif" font-size="10.00">/lane.h</text>
</a>
</g>
</g>
<!-- Node10&#45;&gt;Node12 -->
<g id="edge12" class="edge">
<title>Node10&#45;&gt;Node12</title>
<path fill="none" stroke="midnightblue" d="M942.69,-402.48C902.09,-392.37 847.15,-378.68 804.41,-368.04"/>
<polygon fill="midnightblue" stroke="midnightblue" points="805.21,-364.63 794.66,-365.61 803.52,-371.42 805.21,-364.63"/>
</g>
<!-- Node13 -->
<g id="node13" class="node">
<title>Node13</title>
<g id="a_node13"><a xlink:href="../../maliput/html/vector_8h.html.html" xlink:title=" ">
<polygon fill="white" stroke="black" points="1184.5,-140 1184.5,-159 1309.5,-159 1309.5,-140 1184.5,-140"/>
<text text-anchor="middle" x="1247" y="-147" font-family="Helvetica,sans-Serif" font-size="10.00">maliput/math/vector.h</text>
</a>
</g>
</g>
<!-- Node10&#45;&gt;Node13 -->
<g id="edge13" class="edge">
<title>Node10&#45;&gt;Node13</title>
<path fill="none" stroke="midnightblue" d="M1038.72,-402.44C1099.81,-378.38 1214.72,-322.93 1262,-232 1272.44,-211.92 1264.38,-185.73 1256.62,-168.53"/>
<polygon fill="midnightblue" stroke="midnightblue" points="1259.54,-166.55 1251.99,-159.12 1253.26,-169.64 1259.54,-166.55"/>
</g>
<!-- Node10&#45;&gt;Node14 -->
<g id="edge14" class="edge">
<title>Node10&#45;&gt;Node14</title>
<path fill="none" stroke="midnightblue" d="M932.82,-403.22C929.85,-402.78 926.89,-402.37 924,-402 666.91,-369.34 595.97,-417.59 342,-366 254.25,-348.18 213.3,-364.27 152,-299 130.81,-276.44 137.26,-262.66 133,-232 131.1,-218.35 125.15,-212.32 133,-201 181.41,-131.2 229.22,-153.04 312,-134 467.97,-98.13 655.09,-87.65 761.91,-84.65"/>
<polygon fill="midnightblue" stroke="midnightblue" points="762.09,-88.14 771.99,-84.38 761.9,-81.14 762.09,-88.14"/>
</g>
<!-- Node20 -->
<g id="node20" class="node">
<title>Node20</title>
<g id="a_node20"><a xlink:href="function_8h.html" target="_top" xlink:title=" ">
<polygon fill="white" stroke="black" points="876.5,-134.5 876.5,-164.5 1007.5,-164.5 1007.5,-134.5 876.5,-134.5"/>
<text text-anchor="start" x="884.5" y="-152.5" font-family="Helvetica,sans-Serif" font-size="10.00">maliput_malidrive/road</text>
<text text-anchor="middle" x="942" y="-141.5" font-family="Helvetica,sans-Serif" font-size="10.00">_curve/function.h</text>
</a>
</g>
</g>
<!-- Node10&#45;&gt;Node20 -->
<g id="edge21" class="edge">
<title>Node10&#45;&gt;Node20</title>
<path fill="none" stroke="midnightblue" d="M1010.43,-402.46C1030.19,-376.45 1067.4,-318.77 1054,-268 1045.27,-234.9 1039.18,-226.19 1016,-201 1004.96,-189 990.56,-178.37 977.39,-169.98"/>
<polygon fill="midnightblue" stroke="midnightblue" points="978.89,-166.8 968.53,-164.55 975.23,-172.76 978.89,-166.8"/>
</g>
<!-- Node21 -->
<g id="node21" class="node">
<title>Node21</title>
<g id="a_node21"><a xlink:href="road__curve_8h.html" target="_top" xlink:title=" ">
<polygon fill="white" stroke="black" points="831.5,-268.5 831.5,-298.5 962.5,-298.5 962.5,-268.5 831.5,-268.5"/>
<text text-anchor="start" x="839.5" y="-286.5" font-family="Helvetica,sans-Serif" font-size="10.00">maliput_malidrive/road</text>
<text text-anchor="middle" x="897" y="-275.5" font-family="Helvetica,sans-Serif" font-size="10.00">_curve/road_curve.h</text>
</a>
</g>
</g>
<!-- Node10&#45;&gt;Node21 -->
<g id="edge23" class="edge">
<title>Node10&#45;&gt;Node21</title>
<path fill="none" stroke="midnightblue" d="M998.94,-402.47C998.19,-385.07 994.65,-355.24 980,-335 970.43,-321.77 956.23,-311.33 942.27,-303.46"/>
<polygon fill="midnightblue" stroke="midnightblue" points="943.65,-300.23 933.18,-298.65 940.38,-306.42 943.65,-300.23"/>
</g>
<!-- Node26 -->
<g id="node26" class="node">
<title>Node26</title>
<g id="a_node26"><a xlink:href="road__curve__offset_8h.html" target="_top" xlink:title=" ">
<polygon fill="white" stroke="black" points="822.5,-335.5 822.5,-365.5 971.5,-365.5 971.5,-335.5 822.5,-335.5"/>
<text text-anchor="start" x="830.5" y="-353.5" font-family="Helvetica,sans-Serif" font-size="10.00">maliput_malidrive/road</text>
<text text-anchor="middle" x="897" y="-342.5" font-family="Helvetica,sans-Serif" font-size="10.00">_curve/road_curve_offset.h</text>
</a>
</g>
</g>
<!-- Node10&#45;&gt;Node26 -->
<g id="edge37" class="edge">
<title>Node10&#45;&gt;Node26</title>
<path fill="none" stroke="midnightblue" d="M976.87,-402.4C962.43,-393.2 943.4,-381.07 927.53,-370.95"/>
<polygon fill="midnightblue" stroke="midnightblue" points="929.4,-368 919.09,-365.58 925.64,-373.9 929.4,-368"/>
</g>
<!-- Node30 -->
<g id="node30" class="node">
<title>Node30</title>
<g id="a_node30"><a xlink:href="xodr_2lane_8h.html" target="_top" xlink:title=" ">
<polygon fill="white" stroke="black" points="161.5,-268.5 161.5,-298.5 292.5,-298.5 292.5,-268.5 161.5,-268.5"/>
<text text-anchor="start" x="169.5" y="-286.5" font-family="Helvetica,sans-Serif" font-size="10.00">maliput_malidrive/xodr</text>
<text text-anchor="middle" x="227" y="-275.5" font-family="Helvetica,sans-Serif" font-size="10.00">/lane.h</text>
</a>
</g>
</g>
<!-- Node10&#45;&gt;Node30 -->
<g id="edge43" class="edge">
<title>Node10&#45;&gt;Node30</title>
<path fill="none" stroke="midnightblue" d="M932.82,-403.27C929.84,-402.81 926.89,-402.39 924,-402 710.63,-373.52 651.11,-412.8 441,-366 377.28,-351.81 307.25,-322.29 265.23,-302.95"/>
<polygon fill="midnightblue" stroke="midnightblue" points="266.48,-299.67 255.94,-298.62 263.53,-306.01 266.48,-299.67"/>
</g>
<!-- Node14&#45;&gt;Node4 -->
<g id="edge15" class="edge">
<title>Node14&#45;&gt;Node4</title>
<path fill="none" stroke="midnightblue" d="M771.87,-74.76C613.76,-60.76 255.44,-29.03 146.21,-19.35"/>
<polygon fill="midnightblue" stroke="midnightblue" points="146.41,-15.86 136.14,-18.46 145.79,-22.83 146.41,-15.86"/>
</g>
<!-- Node15 -->
<g id="node15" class="node">
<title>Node15</title>
<g id="a_node15"><a xlink:href="../../maliput/html/error_8h.html.html" xlink:title=" ">
<polygon fill="white" stroke="black" points="1094.5,-6 1094.5,-25 1229.5,-25 1229.5,-6 1094.5,-6"/>
<text text-anchor="middle" x="1162" y="-13" font-family="Helvetica,sans-Serif" font-size="10.00">maliput/common/error.h</text>
</a>
</g>
</g>
<!-- Node14&#45;&gt;Node15 -->
<g id="edge16" class="edge">
<title>Node14&#45;&gt;Node15</title>
<path fill="none" stroke="midnightblue" d="M915.75,-67.48C974.35,-55.34 1057.8,-38.07 1110.92,-27.07"/>
<polygon fill="midnightblue" stroke="midnightblue" points="1111.72,-30.48 1120.8,-25.03 1110.3,-23.63 1111.72,-30.48"/>
</g>
<!-- Node16 -->
<g id="node16" class="node">
<title>Node16</title>
<g id="a_node16"><a xlink:href="../../maliput/html/logger_8h.html.html" xlink:title=" ">
<polygon fill="white" stroke="black" points="458.5,-6 458.5,-25 601.5,-25 601.5,-6 458.5,-6"/>
<text text-anchor="middle" x="530" y="-13" font-family="Helvetica,sans-Serif" font-size="10.00">maliput/common/logger.h</text>
</a>
</g>
</g>
<!-- Node14&#45;&gt;Node16 -->
<g id="edge17" class="edge">
<title>Node14&#45;&gt;Node16</title>
<path fill="none" stroke="midnightblue" d="M779.39,-67.48C720.04,-55.34 635.53,-38.07 581.73,-27.07"/>
<polygon fill="midnightblue" stroke="midnightblue" points="582.22,-23.6 571.72,-25.03 580.82,-30.46 582.22,-23.6"/>
</g>
<!-- Node17 -->
<g id="node17" class="node">
<title>Node17</title>
<g id="a_node17"><a xlink:href="../../maliput/html/maliput__abort_8h.html.html" xlink:title=" ">
<polygon fill="white" stroke="black" points="620,-0.5 620,-30.5 760,-30.5 760,-0.5 620,-0.5"/>
<text text-anchor="start" x="628" y="-18.5" font-family="Helvetica,sans-Serif" font-size="10.00">maliput/common/maliput</text>
<text text-anchor="middle" x="690" y="-7.5" font-family="Helvetica,sans-Serif" font-size="10.00">_abort.h</text>
</a>
</g>
</g>
<!-- Node14&#45;&gt;Node17 -->
<g id="edge18" class="edge">
<title>Node14&#45;&gt;Node17</title>
<path fill="none" stroke="midnightblue" d="M813.72,-67.4C790.22,-57.73 758.85,-44.82 733.57,-34.43"/>
<polygon fill="midnightblue" stroke="midnightblue" points="734.8,-31.14 724.22,-30.58 732.13,-37.62 734.8,-31.14"/>
</g>
<!-- Node18 -->
<g id="node18" class="node">
<title>Node18</title>
<g id="a_node18"><a xlink:href="../../maliput/html/maliput__copyable_8h.html.html" xlink:title=" ">
<polygon fill="white" stroke="black" points="778,-0.5 778,-30.5 918,-30.5 918,-0.5 778,-0.5"/>
<text text-anchor="start" x="786" y="-18.5" font-family="Helvetica,sans-Serif" font-size="10.00">maliput/common/maliput</text>
<text text-anchor="middle" x="848" y="-7.5" font-family="Helvetica,sans-Serif" font-size="10.00">_copyable.h</text>
</a>
</g>
</g>
<!-- Node14&#45;&gt;Node18 -->
<g id="edge19" class="edge">
<title>Node14&#45;&gt;Node18</title>
<path fill="none" stroke="midnightblue" d="M848,-67.4C848,-59.64 848,-49.81 848,-40.86"/>
<polygon fill="midnightblue" stroke="midnightblue" points="851.5,-40.58 848,-30.58 844.5,-40.58 851.5,-40.58"/>
</g>
<!-- Node19 -->
<g id="node19" class="node">
<title>Node19</title>
<g id="a_node19"><a xlink:href="../../maliput/html/maliput__throw_8h.html.html" xlink:title=" ">
<polygon fill="white" stroke="black" points="936,-0.5 936,-30.5 1076,-30.5 1076,-0.5 936,-0.5"/>
<text text-anchor="start" x="944" y="-18.5" font-family="Helvetica,sans-Serif" font-size="10.00">maliput/common/maliput</text>
<text text-anchor="middle" x="1006" y="-7.5" font-family="Helvetica,sans-Serif" font-size="10.00">_throw.h</text>
</a>
</g>
</g>
<!-- Node14&#45;&gt;Node19 -->
<g id="edge20" class="edge">
<title>Node14&#45;&gt;Node19</title>
<path fill="none" stroke="midnightblue" d="M882.28,-67.4C905.78,-57.73 937.15,-44.82 962.43,-34.43"/>
<polygon fill="midnightblue" stroke="midnightblue" points="963.87,-37.62 971.78,-30.58 961.2,-31.14 963.87,-37.62"/>
</g>
<!-- Node20&#45;&gt;Node14 -->
<g id="edge22" class="edge">
<title>Node20&#45;&gt;Node14</title>
<path fill="none" stroke="midnightblue" d="M921.6,-134.4C908.55,-125.37 891.4,-113.51 876.95,-103.52"/>
<polygon fill="midnightblue" stroke="midnightblue" points="878.57,-100.39 868.36,-97.58 874.59,-106.14 878.57,-100.39"/>
</g>
<!-- Node21&#45;&gt;Node2 -->
<g id="edge24" class="edge">
<title>Node21&#45;&gt;Node2</title>
<path fill="none" stroke="midnightblue" d="M833.57,-268.48C775.42,-255.62 691.14,-236.99 642.21,-226.17"/>
<polygon fill="midnightblue" stroke="midnightblue" points="642.85,-222.73 632.33,-223.99 641.34,-229.56 642.85,-222.73"/>
</g>
<!-- Node21&#45;&gt;Node13 -->
<g id="edge26" class="edge">
<title>Node21&#45;&gt;Node13</title>
<path fill="none" stroke="midnightblue" d="M962.73,-269.4C965.52,-268.92 968.29,-268.45 971,-268 1030.95,-258.15 1200.59,-276.45 1242,-232 1257.52,-215.34 1255.53,-187.52 1251.9,-169.08"/>
<polygon fill="midnightblue" stroke="midnightblue" points="1255.29,-168.2 1249.63,-159.24 1248.47,-169.77 1255.29,-168.2"/>
</g>
<!-- Node21&#45;&gt;Node14 -->
<g id="edge27" class="edge">
<title>Node21&#45;&gt;Node14</title>
<path fill="none" stroke="midnightblue" d="M962.54,-269.72C983.16,-262.28 1003.74,-250.53 1016,-232 1040.04,-195.68 1041.99,-168.95 1016,-134 996.9,-108.31 965.15,-95.2 934.37,-88.68"/>
<polygon fill="midnightblue" stroke="midnightblue" points="934.91,-85.21 924.43,-86.78 933.6,-92.09 934.91,-85.21"/>
</g>
<!-- Node21&#45;&gt;Node20 -->
<g id="edge28" class="edge">
<title>Node21&#45;&gt;Node20</title>
<path fill="none" stroke="midnightblue" d="M884.81,-268.45C871.94,-251.81 855.03,-223.49 867,-201 873.94,-187.95 885.92,-177.67 898.3,-169.89"/>
<polygon fill="midnightblue" stroke="midnightblue" points="900.42,-172.7 907.31,-164.66 896.9,-166.65 900.42,-172.7"/>
</g>
<!-- Node22 -->
<g id="node22" class="node">
<title>Node22</title>
<g id="a_node22"><a xlink:href="../../maliput/html/roll__pitch__yaw_8h.html.html" xlink:title=" ">
<polygon fill="white" stroke="black" points="876.5,-201.5 876.5,-231.5 1007.5,-231.5 1007.5,-201.5 876.5,-201.5"/>
<text text-anchor="start" x="884.5" y="-219.5" font-family="Helvetica,sans-Serif" font-size="10.00">maliput/math/roll_pitch</text>
<text text-anchor="middle" x="942" y="-208.5" font-family="Helvetica,sans-Serif" font-size="10.00">_yaw.h</text>
</a>
</g>
</g>
<!-- Node21&#45;&gt;Node22 -->
<g id="edge25" class="edge">
<title>Node21&#45;&gt;Node22</title>
<path fill="none" stroke="midnightblue" d="M906.76,-268.4C912.54,-260.05 919.99,-249.29 926.55,-239.81"/>
<polygon fill="midnightblue" stroke="midnightblue" points="929.44,-241.79 932.25,-231.58 923.68,-237.81 929.44,-241.79"/>
</g>
<!-- Node23 -->
<g id="node23" class="node">
<title>Node23</title>
<g id="a_node23"><a xlink:href="ground__curve_8h.html" target="_top" xlink:title=" ">
<polygon fill="white" stroke="black" points="1102.5,-201.5 1102.5,-231.5 1233.5,-231.5 1233.5,-201.5 1102.5,-201.5"/>
<text text-anchor="start" x="1110.5" y="-219.5" font-family="Helvetica,sans-Serif" font-size="10.00">maliput_malidrive/road</text>
<text text-anchor="middle" x="1168" y="-208.5" font-family="Helvetica,sans-Serif" font-size="10.00">_curve/ground_curve.h</text>
</a>
</g>
</g>
<!-- Node21&#45;&gt;Node23 -->
<g id="edge29" class="edge">
<title>Node21&#45;&gt;Node23</title>
<path fill="none" stroke="midnightblue" d="M955.47,-268.48C997.71,-258.34 1054.9,-244.63 1099.32,-233.97"/>
<polygon fill="midnightblue" stroke="midnightblue" points="1100.26,-237.35 1109.17,-231.61 1098.63,-230.54 1100.26,-237.35"/>
</g>
<!-- Node24 -->
<g id="node24" class="node">
<title>Node24</title>
<g id="a_node24"><a xlink:href="road__curve_2lane__offset_8h.html" target="_top" xlink:title=" ">
<polygon fill="white" stroke="black" points="688.5,-201.5 688.5,-231.5 819.5,-231.5 819.5,-201.5 688.5,-201.5"/>
<text text-anchor="start" x="696.5" y="-219.5" font-family="Helvetica,sans-Serif" font-size="10.00">maliput_malidrive/road</text>
<text text-anchor="middle" x="754" y="-208.5" font-family="Helvetica,sans-Serif" font-size="10.00">_curve/lane_offset.h</text>
</a>
</g>
</g>
<!-- Node21&#45;&gt;Node24 -->
<g id="edge32" class="edge">
<title>Node21&#45;&gt;Node24</title>
<path fill="none" stroke="midnightblue" d="M865.97,-268.4C844.98,-258.86 817.06,-246.16 794.35,-235.84"/>
<polygon fill="midnightblue" stroke="midnightblue" points="795.52,-232.53 784.97,-231.58 792.62,-238.9 795.52,-232.53"/>
</g>
<!-- Node23&#45;&gt;Node13 -->
<g id="edge30" class="edge">
<title>Node23&#45;&gt;Node13</title>
<path fill="none" stroke="midnightblue" d="M1185.14,-201.4C1197.95,-190.86 1215.43,-176.48 1228.54,-165.69"/>
<polygon fill="midnightblue" stroke="midnightblue" points="1230.93,-168.25 1236.43,-159.19 1226.49,-162.85 1230.93,-168.25"/>
</g>
<!-- Node23&#45;&gt;Node14 -->
<g id="edge31" class="edge">
<title>Node23&#45;&gt;Node14</title>
<path fill="none" stroke="midnightblue" d="M1151.59,-201.27C1129.8,-183.09 1089.47,-151.85 1050,-134 1013.57,-117.53 970.91,-105.86 934.21,-97.92"/>
<polygon fill="midnightblue" stroke="midnightblue" points="934.53,-94.41 924.03,-95.78 933.09,-101.26 934.53,-94.41"/>
</g>
<!-- Node24&#45;&gt;Node3 -->
<g id="edge33" class="edge">
<title>Node24&#45;&gt;Node3</title>
<path fill="none" stroke="midnightblue" d="M688.48,-204.98C603.09,-191.28 456.52,-167.76 387.32,-156.65"/>
<polygon fill="midnightblue" stroke="midnightblue" points="387.72,-153.17 377.29,-155.04 386.61,-160.08 387.72,-153.17"/>
</g>
<!-- Node24&#45;&gt;Node14 -->
<g id="edge35" class="edge">
<title>Node24&#45;&gt;Node14</title>
<path fill="none" stroke="midnightblue" d="M784.71,-201.29C799.87,-192.79 817.19,-180.59 828,-165 839.65,-148.21 844.53,-125.35 846.57,-108.11"/>
<polygon fill="midnightblue" stroke="midnightblue" points="850.1,-108 847.54,-97.72 843.13,-107.35 850.1,-108"/>
</g>
<!-- Node24&#45;&gt;Node20 -->
<g id="edge36" class="edge">
<title>Node24&#45;&gt;Node20</title>
<path fill="none" stroke="midnightblue" d="M794.79,-201.4C823.25,-191.56 861.4,-178.37 891.73,-167.88"/>
<polygon fill="midnightblue" stroke="midnightblue" points="892.98,-171.15 901.29,-164.58 890.69,-164.54 892.98,-171.15"/>
</g>
<!-- Node25 -->
<g id="node25" class="node">
<title>Node25</title>
<g id="a_node25"><a xlink:href="../../maliput/html/range__validator_8h.html.html" xlink:title=" ">
<polygon fill="white" stroke="black" points="688.5,-134.5 688.5,-164.5 819.5,-164.5 819.5,-134.5 688.5,-134.5"/>
<text text-anchor="start" x="696.5" y="-152.5" font-family="Helvetica,sans-Serif" font-size="10.00">maliput/common/range</text>
<text text-anchor="middle" x="754" y="-141.5" font-family="Helvetica,sans-Serif" font-size="10.00">_validator.h</text>
</a>
</g>
</g>
<!-- Node24&#45;&gt;Node25 -->
<g id="edge34" class="edge">
<title>Node24&#45;&gt;Node25</title>
<path fill="none" stroke="midnightblue" d="M754,-201.4C754,-193.64 754,-183.81 754,-174.86"/>
<polygon fill="midnightblue" stroke="midnightblue" points="757.5,-174.58 754,-164.58 750.5,-174.58 757.5,-174.58"/>
</g>
<!-- Node26&#45;&gt;Node14 -->
<g id="edge41" class="edge">
<title>Node26&#45;&gt;Node14</title>
<path fill="none" stroke="midnightblue" d="M875.03,-335.36C859.91,-325.47 839.48,-311.8 822,-299 804.14,-285.92 802.41,-278.66 783,-268 740.13,-244.45 707.37,-271.84 679,-232 653.74,-196.52 652.98,-168.93 679,-134 698.39,-107.96 730.71,-94.83 761.92,-88.38"/>
<polygon fill="midnightblue" stroke="midnightblue" points="762.8,-91.78 772,-86.51 761.53,-84.89 762.8,-91.78"/>
</g>
<!-- Node26&#45;&gt;Node21 -->
<g id="edge42" class="edge">
<title>Node26&#45;&gt;Node21</title>
<path fill="none" stroke="midnightblue" d="M897,-335.4C897,-327.64 897,-317.81 897,-308.86"/>
<polygon fill="midnightblue" stroke="midnightblue" points="900.5,-308.58 897,-298.58 893.5,-308.58 900.5,-308.58"/>
</g>
<!-- Node27 -->
<g id="node27" class="node">
<title>Node27</title>
<g id="a_node27"><a xlink:title=" ">
<polygon fill="white" stroke="#bfbfbf" points="980.5,-274 980.5,-293 1045.5,-293 1045.5,-274 980.5,-274"/>
<text text-anchor="middle" x="1013" y="-281" font-family="Helvetica,sans-Serif" font-size="10.00">functional</text>
</a>
</g>
</g>
<!-- Node26&#45;&gt;Node27 -->
<g id="edge38" class="edge">
<title>Node26&#45;&gt;Node27</title>
<path fill="none" stroke="midnightblue" d="M922.17,-335.4C941.98,-324.29 969.42,-308.92 988.94,-297.98"/>
<polygon fill="midnightblue" stroke="midnightblue" points="990.81,-300.95 997.82,-293.01 987.38,-294.84 990.81,-300.95"/>
</g>
<!-- Node28 -->
<g id="node28" class="node">
<title>Node28</title>
<g id="a_node28"><a xlink:href="../../maliput/html/arc__length__integrator_8h.html.html" xlink:title=" ">
<polygon fill="white" stroke="black" points="483,-268.5 483,-298.5 621,-298.5 621,-268.5 483,-268.5"/>
<text text-anchor="start" x="491" y="-286.5" font-family="Helvetica,sans-Serif" font-size="10.00">maliput/drake/arc_length</text>
<text text-anchor="middle" x="552" y="-275.5" font-family="Helvetica,sans-Serif" font-size="10.00">_integrator.h</text>
</a>
</g>
</g>
<!-- Node26&#45;&gt;Node28 -->
<g id="edge39" class="edge">
<title>Node26&#45;&gt;Node28</title>
<path fill="none" stroke="midnightblue" d="M822.56,-335.48C766.13,-324.84 688.73,-310.26 631.17,-299.42"/>
<polygon fill="midnightblue" stroke="midnightblue" points="631.5,-295.92 621.02,-297.5 630.2,-302.79 631.5,-295.92"/>
</g>
<!-- Node29 -->
<g id="node29" class="node">
<title>Node29</title>
<g id="a_node29"><a xlink:href="../../maliput/html/inverse__arc__length__integrator_8h.html.html" xlink:title=" ">
<polygon fill="white" stroke="black" points="639.5,-268.5 639.5,-298.5 774.5,-298.5 774.5,-268.5 639.5,-268.5"/>
<text text-anchor="start" x="647.5" y="-286.5" font-family="Helvetica,sans-Serif" font-size="10.00">maliput/drake/inverse</text>
<text text-anchor="middle" x="707" y="-275.5" font-family="Helvetica,sans-Serif" font-size="10.00">_arc_length_integrator.h</text>
</a>
</g>
</g>
<!-- Node26&#45;&gt;Node29 -->
<g id="edge40" class="edge">
<title>Node26&#45;&gt;Node29</title>
<path fill="none" stroke="midnightblue" d="M855.77,-335.4C827.02,-325.56 788.46,-312.37 757.8,-301.88"/>
<polygon fill="midnightblue" stroke="midnightblue" points="758.74,-298.5 748.15,-298.58 756.48,-305.13 758.74,-298.5"/>
</g>
<!-- Node30&#45;&gt;Node3 -->
<g id="edge45" class="edge">
<title>Node30&#45;&gt;Node3</title>
<path fill="none" stroke="midnightblue" d="M243.44,-268.48C254.68,-258.65 269.7,-244.99 282,-232 301.98,-210.9 322.92,-184.66 335.96,-167.75"/>
<polygon fill="midnightblue" stroke="midnightblue" points="339.05,-169.47 342.34,-159.4 333.49,-165.22 339.05,-169.47"/>
</g>
<!-- Node31 -->
<g id="node31" class="node">
<title>Node31</title>
<g id="a_node31"><a xlink:title=" ">
<polygon fill="white" stroke="#bfbfbf" points="330,-207 330,-226 368,-226 368,-207 330,-207"/>
<text text-anchor="middle" x="349" y="-214" font-family="Helvetica,sans-Serif" font-size="10.00">map</text>
</a>
</g>
</g>
<!-- Node30&#45;&gt;Node31 -->
<g id="edge44" class="edge">
<title>Node30&#45;&gt;Node31</title>
<path fill="none" stroke="midnightblue" d="M253.47,-268.4C274.4,-257.24 303.43,-241.78 323.97,-230.83"/>
<polygon fill="midnightblue" stroke="midnightblue" points="325.85,-233.8 333.03,-226.01 322.56,-227.62 325.85,-233.8"/>
</g>
<!-- Node32 -->
<g id="node32" class="node">
<title>Node32</title>
<g id="a_node32"><a xlink:href="../../maliput/html/type__specific__identifier_8h.html.html" xlink:title=" ">
<polygon fill="white" stroke="black" points="478,-134.5 478,-164.5 618,-164.5 618,-134.5 478,-134.5"/>
<text text-anchor="start" x="486" y="-152.5" font-family="Helvetica,sans-Serif" font-size="10.00">maliput/api/type_specific</text>
<text text-anchor="middle" x="548" y="-141.5" font-family="Helvetica,sans-Serif" font-size="10.00">_identifier.h</text>
</a>
</g>
</g>
<!-- Node30&#45;&gt;Node32 -->
<g id="edge46" class="edge">
<title>Node30&#45;&gt;Node32</title>
<path fill="none" stroke="midnightblue" d="M292.91,-270.47C297.67,-269.62 302.41,-268.79 307,-268 355.6,-259.6 489.41,-265.07 526,-232 541.9,-217.62 546.82,-193.06 548.1,-174.65"/>
<polygon fill="midnightblue" stroke="midnightblue" points="551.6,-174.78 548.5,-164.65 544.61,-174.5 551.6,-174.78"/>
</g>
<!-- Node33 -->
<g id="node33" class="node">
<title>Node33</title>
<g id="a_node33"><a xlink:href="lane__link_8h.html" target="_top" xlink:title=" ">
<polygon fill="white" stroke="black" points="386.5,-201.5 386.5,-231.5 517.5,-231.5 517.5,-201.5 386.5,-201.5"/>
<text text-anchor="start" x="394.5" y="-219.5" font-family="Helvetica,sans-Serif" font-size="10.00">maliput_malidrive/xodr</text>
<text text-anchor="middle" x="452" y="-208.5" font-family="Helvetica,sans-Serif" font-size="10.00">/lane_link.h</text>
</a>
</g>
</g>
<!-- Node30&#45;&gt;Node33 -->
<g id="edge47" class="edge">
<title>Node30&#45;&gt;Node33</title>
<path fill="none" stroke="midnightblue" d="M275.54,-268.48C310.03,-258.51 356.51,-245.09 393.11,-234.51"/>
<polygon fill="midnightblue" stroke="midnightblue" points="394.52,-237.75 403.15,-231.61 392.58,-231.02 394.52,-237.75"/>
</g>
<!-- Node34 -->
<g id="node34" class="node">
<title>Node34</title>
<g id="a_node34"><a xlink:href="lane__width_8h.html" target="_top" xlink:title=" ">
<polygon fill="white" stroke="black" points="142.5,-201.5 142.5,-231.5 273.5,-231.5 273.5,-201.5 142.5,-201.5"/>
<text text-anchor="start" x="150.5" y="-219.5" font-family="Helvetica,sans-Serif" font-size="10.00">maliput_malidrive/xodr</text>
<text text-anchor="middle" x="208" y="-208.5" font-family="Helvetica,sans-Serif" font-size="10.00">/lane_width.h</text>
</a>
</g>
</g>
<!-- Node30&#45;&gt;Node34 -->
<g id="edge51" class="edge">
<title>Node30&#45;&gt;Node34</title>
<path fill="none" stroke="midnightblue" d="M222.88,-268.4C220.56,-260.47 217.61,-250.38 214.95,-241.27"/>
<polygon fill="midnightblue" stroke="midnightblue" points="218.28,-240.19 212.11,-231.58 211.56,-242.16 218.28,-240.19"/>
</g>
<!-- Node35 -->
<g id="node35" class="node">
<title>Node35</title>
<g id="a_node35"><a xlink:href="unit_8h.html" target="_top" xlink:title=" ">
<polygon fill="white" stroke="black" points="48.5,-67.5 48.5,-97.5 179.5,-97.5 179.5,-67.5 48.5,-67.5"/>
<text text-anchor="start" x="56.5" y="-85.5" font-family="Helvetica,sans-Serif" font-size="10.00">maliput_malidrive/xodr</text>
<text text-anchor="middle" x="114" y="-74.5" font-family="Helvetica,sans-Serif" font-size="10.00">/unit.h</text>
</a>
</g>
</g>
<!-- Node30&#45;&gt;Node35 -->
<g id="edge52" class="edge">
<title>Node30&#45;&gt;Node35</title>
<path fill="none" stroke="midnightblue" d="M181.42,-268.34C163.53,-260.47 144.55,-248.79 133,-232 107.31,-194.65 107.81,-139.25 110.73,-107.74"/>
<polygon fill="midnightblue" stroke="midnightblue" points="114.23,-107.98 111.83,-97.66 107.27,-107.23 114.23,-107.98"/>
</g>
<!-- Node33&#45;&gt;Node3 -->
<g id="edge48" class="edge">
<title>Node33&#45;&gt;Node3</title>
<path fill="none" stroke="midnightblue" d="M429.65,-201.4C412.38,-190.5 388.58,-175.48 371.32,-164.58"/>
<polygon fill="midnightblue" stroke="midnightblue" points="372.81,-161.38 362.48,-159.01 369.07,-167.3 372.81,-161.38"/>
</g>
<!-- Node33&#45;&gt;Node14 -->
<g id="edge50" class="edge">
<title>Node33&#45;&gt;Node14</title>
<path fill="none" stroke="midnightblue" d="M450.46,-201.36C449.33,-182.98 450.47,-151.22 469,-134 510.21,-95.7 663,-85.98 761.55,-83.78"/>
<polygon fill="midnightblue" stroke="midnightblue" points="761.87,-87.28 771.8,-83.58 761.73,-80.28 761.87,-87.28"/>
</g>
<!-- Node33&#45;&gt;Node32 -->
<g id="edge49" class="edge">
<title>Node33&#45;&gt;Node32</title>
<path fill="none" stroke="midnightblue" d="M472.83,-201.4C486.29,-192.28 504,-180.29 518.85,-170.24"/>
<polygon fill="midnightblue" stroke="midnightblue" points="520.89,-173.08 527.21,-164.58 516.97,-167.28 520.89,-173.08"/>
</g>
<!-- Node35&#45;&gt;Node4 -->
<g id="edge53" class="edge">
<title>Node35&#45;&gt;Node4</title>
<path fill="none" stroke="midnightblue" d="M114,-67.4C114,-58.06 114,-45.71 114,-35.52"/>
<polygon fill="midnightblue" stroke="midnightblue" points="117.5,-35.19 114,-25.19 110.5,-35.19 117.5,-35.19"/>
</g>
<!-- Node36&#45;&gt;Node27 -->
<g id="edge55" class="edge">
<title>Node36&#45;&gt;Node27</title>
<path fill="none" stroke="midnightblue" d="M1409.9,-402.5C1321.62,-376.25 1132.83,-320.12 1051.54,-295.96"/>
<polygon fill="midnightblue" stroke="midnightblue" points="1052.3,-292.53 1041.71,-293.04 1050.3,-299.24 1052.3,-292.53"/>
</g>
<!-- Node37 -->
<g id="node37" class="node">
<title>Node37</title>
<g id="a_node37"><a xlink:href="../../maliput/html/discrete__value__rule_8h.html.html" xlink:title=" ">
<polygon fill="white" stroke="black" points="1404.5,-335.5 1404.5,-365.5 1545.5,-365.5 1545.5,-335.5 1404.5,-335.5"/>
<text text-anchor="start" x="1412.5" y="-353.5" font-family="Helvetica,sans-Serif" font-size="10.00">maliput/api/rules/discrete</text>
<text text-anchor="middle" x="1475" y="-342.5" font-family="Helvetica,sans-Serif" font-size="10.00">_value_rule.h</text>
</a>
</g>
</g>
<!-- Node36&#45;&gt;Node37 -->
<g id="edge56" class="edge">
<title>Node36&#45;&gt;Node37</title>
<path fill="none" stroke="midnightblue" d="M1460.91,-402.4C1463.1,-394.47 1465.9,-384.38 1468.42,-375.27"/>
<polygon fill="midnightblue" stroke="midnightblue" points="1471.81,-376.15 1471.1,-365.58 1465.06,-374.28 1471.81,-376.15"/>
</g>
<!-- Node38 -->
<g id="node38" class="node">
<title>Node38</title>
<g id="a_node38"><a xlink:href="../../maliput/html/rule_8h.html.html" xlink:title=" ">
<polygon fill="white" stroke="black" points="1564,-341 1564,-360 1694,-360 1694,-341 1564,-341"/>
<text text-anchor="middle" x="1629" y="-348" font-family="Helvetica,sans-Serif" font-size="10.00">maliput/api/rules/rule.h</text>
</a>
</g>
</g>
<!-- Node36&#45;&gt;Node38 -->
<g id="edge57" class="edge">
<title>Node36&#45;&gt;Node38</title>
<path fill="none" stroke="midnightblue" d="M1494.32,-402.4C1524.9,-390.84 1567.73,-374.66 1596.82,-363.66"/>
<polygon fill="midnightblue" stroke="midnightblue" points="1598.37,-366.82 1606.49,-360.01 1595.9,-360.27 1598.37,-366.82"/>
</g>
</g>
</svg>
        <g id="navigator" transform="translate(0 0)" fill="#404254">
                <rect fill="#f2f5e9" fill-opacity="0.5" stroke="#606060" stroke-width=".5" x="0" y="0" width="60" height="60"/>
                <use id="zoomplus" xlink:href="#zoomPlus" x="17" y="9" onmousedown="handleZoom(evt,'in')"/>
                <use id="zoomminus" xlink:href="#zoomMin" x="42" y="9" onmousedown="handleZoom(evt,'out')"/>
                <use id="reset" xlink:href="#resetDef" x="30" y="36" onmousedown="handleReset()"/>
                <g id="arrowUp" xlink:href="#dirArrow" transform="translate(30 24)" onmousedown="handlePan(0,-1)">
                  <use xlink:href="#rim" fill="#404040">
                        <set attributeName="fill" to="#808080" begin="arrowUp.mouseover" end="arrowUp.mouseout"/>
                  </use>
                  <path fill="none" stroke="white" stroke-width="1.5" d="M0,-3.0v7 M-2.5,-0.5L0,-3.0L2.5,-0.5"/>
                </g>
                <g id="arrowRight" xlink:href="#dirArrow" transform="rotate(90) translate(36 -43)" onmousedown="handlePan(1,0)">
                  <use xlink:href="#rim" fill="#404040">
                        <set attributeName="fill" to="#808080" begin="arrowRight.mouseover" end="arrowRight.mouseout"/>
                  </use>
                  <path fill="none" stroke="white" stroke-width="1.5" d="M0,-3.0v7 M-2.5,-0.5L0,-3.0L2.5,-0.5"/>
                </g>
                <g id="arrowDown" xlink:href="#dirArrow" transform="rotate(180) translate(-30 -48)" onmousedown="handlePan(0,1)">
                  <use xlink:href="#rim" fill="#404040">
                        <set attributeName="fill" to="#808080" begin="arrowDown.mouseover" end="arrowDown.mouseout"/>
                  </use>
                  <path fill="none" stroke="white" stroke-width="1.5" d="M0,-3.0v7 M-2.5,-0.5L0,-3.0L2.5,-0.5"/>
                </g>
                <g id="arrowLeft" xlink:href="#dirArrow" transform="rotate(270) translate(-36 17)" onmousedown="handlePan(-1,0)">
                  <use xlink:href="#rim" fill="#404040">
                        <set attributeName="fill" to="#808080" begin="arrowLeft.mouseover" end="arrowLeft.mouseout"/>
                  </use>
                  <path fill="none" stroke="white" stroke-width="1.5" d="M0,-3.0v7 M-2.5,-0.5L0,-3.0L2.5,-0.5"/>
                </g>
        </g>
        <svg viewBox="0 0 15 15" width="100%" height="30px" preserveAspectRatio="xMaxYMin meet">
         <g id="arrow_out" transform="scale(0.3 0.3)">
          <a xlink:href="road__rulebook__builder__old__rules_8h__incl_org.svg" target="_base">
           <rect id="button" ry="5" rx="5" y="6" x="6" height="38" width="38"
                fill="#f2f5e9" fill-opacity="0.5" stroke="#606060" stroke-width="1.0"/>
           <path id="arrow"
             d="M 11.500037,31.436501 C 11.940474,20.09759 22.043105,11.32322 32.158766,21.979434 L 37.068811,17.246167 C 37.068811,17.246167 37.088388,32 37.088388,32 L 22.160133,31.978069 C 22.160133,31.978069 26.997745,27.140456 26.997745,27.140456 C 18.528582,18.264221 13.291696,25.230495 11.500037,31.436501 z"
             style="fill:#404040;"/>
          </a>
         </g>
        </svg>
</svg>
