<?xml version="1.0" encoding="UTF-8" standalone="no"?>
<!DOCTYPE svg PUBLIC "-//W3C//DTD SVG 1.1//EN"
 "http://www.w3.org/Graphics/SVG/1.1/DTD/svg11.dtd">
<!-- Generated by graphviz version 2.43.0 (0)
 -->
<!-- Title: lane_offset.h Pages: 1 -->
<svg width="1633pt" height="498pt"
 viewBox="0.00 0.00 1633.03 498.00" xmlns="http://www.w3.org/2000/svg" xmlns:xlink="http://www.w3.org/1999/xlink">
<g id="graph0" class="graph" transform="scale(1 1) rotate(0) translate(4 494)">
<title>lane_offset.h</title>
<polygon fill="white" stroke="transparent" points="-4,4 -4,-494 1629.03,-494 1629.03,4 -4,4"/>
<!-- Node1 -->
<g id="node1" class="node">
<title>Node1</title>
<g id="a_node1"><a xlink:title=" ">
<polygon fill="#bfbfbf" stroke="black" points="290,-470.5 290,-489.5 370,-489.5 370,-470.5 290,-470.5"/>
<text text-anchor="middle" x="330" y="-477.5" font-family="Helvetica,sans-Serif" font-size="10.00">lane_offset.h</text>
</a>
</g>
</g>
<!-- Node2 -->
<g id="node2" class="node">
<title>Node2</title>
<g id="a_node2"><a xlink:href="road__geometry__builder_8cc.html" target="_top" xlink:title=" ">
<polygon fill="white" stroke="black" points="55.5,-0.5 55.5,-19.5 198.5,-19.5 198.5,-0.5 55.5,-0.5"/>
<text text-anchor="middle" x="127" y="-7.5" font-family="Helvetica,sans-Serif" font-size="10.00">road_geometry_builder.cc</text>
</a>
</g>
</g>
<!-- Node1&#45;&gt;Node2 -->
<g id="edge1" class="edge">
<title>Node1&#45;&gt;Node2</title>
<path fill="none" stroke="midnightblue" d="M279.9,-472.88C187.59,-460.21 0,-427.28 0,-369 0,-369 0,-369 0,-137.5 0,-77.75 71.44,-36.47 107.16,-19.56"/>
<polygon fill="midnightblue" stroke="midnightblue" points="279.49,-476.36 289.87,-474.22 280.42,-469.42 279.49,-476.36"/>
</g>
<!-- Node3 -->
<g id="node3" class="node">
<title>Node3</title>
<g id="a_node3"><a xlink:href="road__curve_2lane__offset_8cc.html" target="_top" xlink:title=" ">
<polygon fill="white" stroke="black" points="388.5,-414.5 388.5,-433.5 473.5,-433.5 473.5,-414.5 388.5,-414.5"/>
<text text-anchor="middle" x="431" y="-421.5" font-family="Helvetica,sans-Serif" font-size="10.00">lane_offset.cc</text>
</a>
</g>
</g>
<!-- Node1&#45;&gt;Node3 -->
<g id="edge2" class="edge">
<title>Node1&#45;&gt;Node3</title>
<path fill="none" stroke="midnightblue" d="M355.08,-465.59C373.76,-455.61 398.7,-442.27 414.81,-433.65"/>
<polygon fill="midnightblue" stroke="midnightblue" points="353.4,-462.52 346.23,-470.32 356.7,-468.7 353.4,-462.52"/>
</g>
<!-- Node4 -->
<g id="node4" class="node">
<title>Node4</title>
<g id="a_node4"><a xlink:href="road__curve_8h.html" target="_top" xlink:title=" ">
<polygon fill="white" stroke="black" points="290,-414.5 290,-433.5 370,-433.5 370,-414.5 290,-414.5"/>
<text text-anchor="middle" x="330" y="-421.5" font-family="Helvetica,sans-Serif" font-size="10.00">road_curve.h</text>
</a>
</g>
</g>
<!-- Node1&#45;&gt;Node4 -->
<g id="edge3" class="edge">
<title>Node1&#45;&gt;Node4</title>
<path fill="none" stroke="midnightblue" d="M330,-459.8C330,-450.91 330,-440.78 330,-433.75"/>
<polygon fill="midnightblue" stroke="midnightblue" points="326.5,-460.08 330,-470.08 333.5,-460.08 326.5,-460.08"/>
</g>
<!-- Node5 -->
<g id="node5" class="node">
<title>Node5</title>
<g id="a_node5"><a xlink:href="base_2lane_8h.html" target="_top" xlink:title=" ">
<polygon fill="white" stroke="black" points="588.5,-302.5 588.5,-321.5 635.5,-321.5 635.5,-302.5 588.5,-302.5"/>
<text text-anchor="middle" x="612" y="-309.5" font-family="Helvetica,sans-Serif" font-size="10.00">lane.h</text>
</a>
</g>
</g>
<!-- Node4&#45;&gt;Node5 -->
<g id="edge4" class="edge">
<title>Node4&#45;&gt;Node5</title>
<path fill="none" stroke="midnightblue" d="M379.7,-414.05C379.8,-414.04 379.9,-414.02 380,-414 470.2,-397.88 510.8,-434.42 583,-378 601.11,-363.85 608.21,-335.95 610.74,-321.75"/>
<polygon fill="midnightblue" stroke="midnightblue" points="379.34,-410.56 370.12,-415.77 380.58,-417.45 379.34,-410.56"/>
</g>
<!-- Node9 -->
<g id="node9" class="node">
<title>Node9</title>
<g id="a_node9"><a xlink:href="segment_8h.html" target="_top" xlink:title=" ">
<polygon fill="white" stroke="black" points="320,-190.5 320,-209.5 388,-209.5 388,-190.5 320,-190.5"/>
<text text-anchor="middle" x="354" y="-197.5" font-family="Helvetica,sans-Serif" font-size="10.00">segment.h</text>
</a>
</g>
</g>
<!-- Node4&#45;&gt;Node9 -->
<g id="edge47" class="edge">
<title>Node4&#45;&gt;Node9</title>
<path fill="none" stroke="midnightblue" d="M332.02,-404.3C336.96,-358.64 349.48,-242.85 353.04,-209.88"/>
<polygon fill="midnightblue" stroke="midnightblue" points="328.54,-403.98 330.94,-414.3 335.5,-404.73 328.54,-403.98"/>
</g>
<!-- Node10 -->
<g id="node10" class="node">
<title>Node10</title>
<g id="a_node10"><a xlink:href="road__geometry_8h.html" target="_top" xlink:title=" ">
<polygon fill="white" stroke="black" points="294,-129 294,-148 392,-148 392,-129 294,-129"/>
<text text-anchor="middle" x="343" y="-136" font-family="Helvetica,sans-Serif" font-size="10.00">road_geometry.h</text>
</a>
</g>
</g>
<!-- Node4&#45;&gt;Node10 -->
<g id="edge46" class="edge">
<title>Node4&#45;&gt;Node10</title>
<path fill="none" stroke="midnightblue" d="M319.86,-405.43C308.6,-384.24 292,-347.19 292,-313 292,-313 292,-313 292,-255 292,-211.82 322.2,-166.7 336.12,-148.2"/>
<polygon fill="midnightblue" stroke="midnightblue" points="316.82,-407.17 324.72,-414.23 322.95,-403.78 316.82,-407.17"/>
</g>
<!-- Node26 -->
<g id="node26" class="node">
<title>Node26</title>
<g id="a_node26"><a xlink:href="road__curve__factory_8h.html" target="_top" xlink:title=" ">
<polygon fill="white" stroke="black" points="69,-129 69,-148 187,-148 187,-129 69,-129"/>
<text text-anchor="middle" x="128" y="-136" font-family="Helvetica,sans-Serif" font-size="10.00">road_curve_factory.h</text>
</a>
</g>
</g>
<!-- Node4&#45;&gt;Node26 -->
<g id="edge48" class="edge">
<title>Node4&#45;&gt;Node26</title>
<path fill="none" stroke="midnightblue" d="M282.22,-411.64C235.39,-397.32 171,-367.68 171,-313 171,-313 171,-313 171,-255 171,-212.63 145.28,-166.71 133.62,-148.08"/>
<polygon fill="midnightblue" stroke="midnightblue" points="281.34,-415.02 291.92,-414.46 283.29,-408.3 281.34,-415.02"/>
</g>
<!-- Node28 -->
<g id="node28" class="node">
<title>Node28</title>
<g id="a_node28"><a xlink:href="road__curve_8cc.html" target="_top" xlink:title=" ">
<polygon fill="white" stroke="black" points="490,-358.5 490,-377.5 574,-377.5 574,-358.5 490,-358.5"/>
<text text-anchor="middle" x="532" y="-365.5" font-family="Helvetica,sans-Serif" font-size="10.00">road_curve.cc</text>
</a>
</g>
</g>
<!-- Node4&#45;&gt;Node28 -->
<g id="edge52" class="edge">
<title>Node4&#45;&gt;Node28</title>
<path fill="none" stroke="midnightblue" d="M371.79,-411.83C409.93,-401.63 465.48,-386.78 500.14,-377.52"/>
<polygon fill="midnightblue" stroke="midnightblue" points="370.76,-408.48 362.01,-414.44 372.57,-415.24 370.76,-408.48"/>
</g>
<!-- Node29 -->
<g id="node29" class="node">
<title>Node29</title>
<g id="a_node29"><a xlink:href="road__curve__offset_8h.html" target="_top" xlink:title=" ">
<polygon fill="white" stroke="black" points="358.5,-358.5 358.5,-377.5 471.5,-377.5 471.5,-358.5 358.5,-358.5"/>
<text text-anchor="middle" x="415" y="-365.5" font-family="Helvetica,sans-Serif" font-size="10.00">road_curve_offset.h</text>
</a>
</g>
</g>
<!-- Node4&#45;&gt;Node29 -->
<g id="edge53" class="edge">
<title>Node4&#45;&gt;Node29</title>
<path fill="none" stroke="midnightblue" d="M352.19,-408.9C367.78,-399 388.13,-386.07 401.38,-377.65"/>
<polygon fill="midnightblue" stroke="midnightblue" points="350.22,-406.01 343.66,-414.32 353.97,-411.92 350.22,-406.01"/>
</g>
<!-- Node6 -->
<g id="node6" class="node">
<title>Node6</title>
<g id="a_node6"><a xlink:href="base_2lane_8cc.html" target="_top" xlink:title=" ">
<polygon fill="white" stroke="black" points="244.5,-62 244.5,-81 295.5,-81 295.5,-62 244.5,-62"/>
<text text-anchor="middle" x="270" y="-69" font-family="Helvetica,sans-Serif" font-size="10.00">lane.cc</text>
</a>
</g>
</g>
<!-- Node5&#45;&gt;Node6 -->
<g id="edge5" class="edge">
<title>Node5&#45;&gt;Node6</title>
<path fill="none" stroke="midnightblue" d="M578.25,-307.84C534.92,-302.91 458.05,-291.22 397,-266 354.84,-248.58 340.87,-244.47 311,-210 277.06,-170.85 271.21,-104.55 270.2,-81.06"/>
<polygon fill="midnightblue" stroke="midnightblue" points="577.93,-311.33 588.25,-308.92 578.69,-304.37 577.93,-311.33"/>
</g>
<!-- Node7 -->
<g id="node7" class="node">
<title>Node7</title>
<g id="a_node7"><a xlink:href="lane__boundary_8h.html" target="_top" xlink:title=" ">
<polygon fill="white" stroke="black" points="441,-246.5 441,-265.5 537,-265.5 537,-246.5 441,-246.5"/>
<text text-anchor="middle" x="489" y="-253.5" font-family="Helvetica,sans-Serif" font-size="10.00">lane_boundary.h</text>
</a>
</g>
</g>
<!-- Node5&#45;&gt;Node7 -->
<g id="edge6" class="edge">
<title>Node5&#45;&gt;Node7</title>
<path fill="none" stroke="midnightblue" d="M583.23,-298.37C560.19,-288.26 528.52,-274.35 508.4,-265.52"/>
<polygon fill="midnightblue" stroke="midnightblue" points="581.95,-301.63 592.51,-302.44 584.76,-295.22 581.95,-301.63"/>
</g>
<!-- Node5&#45;&gt;Node9 -->
<g id="edge19" class="edge">
<title>Node5&#45;&gt;Node9</title>
<path fill="none" stroke="midnightblue" d="M578.03,-307.12C540.61,-301.83 479.45,-290.09 432,-266 402.77,-251.16 374.84,-223.57 361.75,-209.59"/>
<polygon fill="midnightblue" stroke="midnightblue" points="578.01,-310.65 588.38,-308.51 578.94,-303.71 578.01,-310.65"/>
</g>
<!-- Node11 -->
<g id="node11" class="node">
<title>Node11</title>
<g id="a_node11"><a xlink:href="road__geometry_8cc.html" target="_top" xlink:title=" ">
<polygon fill="white" stroke="black" points="470.5,-62 470.5,-81 573.5,-81 573.5,-62 470.5,-62"/>
<text text-anchor="middle" x="522" y="-69" font-family="Helvetica,sans-Serif" font-size="10.00">road_geometry.cc</text>
</a>
</g>
</g>
<!-- Node5&#45;&gt;Node11 -->
<g id="edge18" class="edge">
<title>Node5&#45;&gt;Node11</title>
<path fill="none" stroke="midnightblue" d="M614.15,-292.04C617.25,-256.34 619.56,-177.83 588,-123 576.99,-103.87 555.56,-89.57 540.11,-81.16"/>
<polygon fill="midnightblue" stroke="midnightblue" points="610.62,-292.11 613.11,-302.41 617.59,-292.8 610.62,-292.11"/>
</g>
<!-- Node13 -->
<g id="node13" class="node">
<title>Node13</title>
<g id="a_node13"><a xlink:href="road__geometry__builder_8h.html" target="_top" xlink:title=" ">
<polygon fill="white" stroke="black" points="313.5,-62 313.5,-81 452.5,-81 452.5,-62 313.5,-62"/>
<text text-anchor="middle" x="383" y="-69" font-family="Helvetica,sans-Serif" font-size="10.00">road_geometry_builder.h</text>
</a>
</g>
</g>
<!-- Node5&#45;&gt;Node13 -->
<g id="edge32" class="edge">
<title>Node5&#45;&gt;Node13</title>
<path fill="none" stroke="midnightblue" d="M606.66,-292.41C598.67,-267.06 581.64,-221.25 555,-190 510.08,-137.29 436.12,-97.69 401.7,-81.08"/>
<polygon fill="midnightblue" stroke="midnightblue" points="603.38,-293.64 609.61,-302.2 610.08,-291.62 603.38,-293.64"/>
</g>
<!-- Node15 -->
<g id="node15" class="node">
<title>Node15</title>
<g id="a_node15"><a xlink:href="builder__tools_8h.html" target="_top" xlink:title=" ">
<polygon fill="white" stroke="black" points="845.5,-129 845.5,-148 934.5,-148 934.5,-129 845.5,-129"/>
<text text-anchor="middle" x="890" y="-136" font-family="Helvetica,sans-Serif" font-size="10.00">builder_tools.h</text>
</a>
</g>
</g>
<!-- Node5&#45;&gt;Node15 -->
<g id="edge20" class="edge">
<title>Node5&#45;&gt;Node15</title>
<path fill="none" stroke="midnightblue" d="M634.49,-297.13C689.81,-263 831.27,-175.73 876.13,-148.06"/>
<polygon fill="midnightblue" stroke="midnightblue" points="632.46,-294.27 625.79,-302.5 636.13,-300.22 632.46,-294.27"/>
</g>
<!-- Node21 -->
<g id="node21" class="node">
<title>Node21</title>
<g id="a_node21"><a xlink:href="direction__usage__builder_8h.html" target="_top" xlink:title=" ">
<polygon fill="white" stroke="black" points="640,-129 640,-148 782,-148 782,-129 640,-129"/>
<text text-anchor="middle" x="711" y="-136" font-family="Helvetica,sans-Serif" font-size="10.00">direction_usage_builder.h</text>
</a>
</g>
</g>
<!-- Node5&#45;&gt;Node21 -->
<g id="edge29" class="edge">
<title>Node5&#45;&gt;Node21</title>
<path fill="none" stroke="midnightblue" d="M622.23,-293.28C643.27,-256.83 690.7,-174.67 706.08,-148.02"/>
<polygon fill="midnightblue" stroke="midnightblue" points="619.01,-291.85 617.05,-302.26 625.08,-295.35 619.01,-291.85"/>
</g>
<!-- Node22 -->
<g id="node22" class="node">
<title>Node22</title>
<g id="a_node22"><a xlink:href="road__rulebook__builder_8h.html" target="_top" xlink:title=" ">
<polygon fill="white" stroke="black" points="953,-129 953,-148 1087,-148 1087,-129 953,-129"/>
<text text-anchor="middle" x="1020" y="-136" font-family="Helvetica,sans-Serif" font-size="10.00">road_rulebook_builder.h</text>
</a>
</g>
</g>
<!-- Node5&#45;&gt;Node22 -->
<g id="edge33" class="edge">
<title>Node5&#45;&gt;Node22</title>
<path fill="none" stroke="midnightblue" d="M641.56,-298.57C720.16,-265.54 932.85,-176.13 999.65,-148.06"/>
<polygon fill="midnightblue" stroke="midnightblue" points="640.1,-295.39 632.23,-302.5 642.81,-301.85 640.1,-295.39"/>
</g>
<!-- Node23 -->
<g id="node23" class="node">
<title>Node23</title>
<g id="a_node23"><a xlink:href="road__rulebook__builder__old__rules_8h.html" target="_top" xlink:title=" ">
<polygon fill="white" stroke="black" points="1250.5,-123.5 1250.5,-153.5 1375.5,-153.5 1375.5,-123.5 1250.5,-123.5"/>
<text text-anchor="start" x="1258.5" y="-141.5" font-family="Helvetica,sans-Serif" font-size="10.00">road_rulebook_builder</text>
<text text-anchor="middle" x="1313" y="-130.5" font-family="Helvetica,sans-Serif" font-size="10.00">_old_rules.h</text>
</a>
</g>
</g>
<!-- Node5&#45;&gt;Node23 -->
<g id="edge37" class="edge">
<title>Node5&#45;&gt;Node23</title>
<path fill="none" stroke="midnightblue" d="M645.95,-303.25C684.53,-294.4 749.36,-279.41 805,-266 970.01,-226.22 1164.61,-177.16 1257.82,-153.53"/>
<polygon fill="midnightblue" stroke="midnightblue" points="644.76,-299.93 635.8,-305.57 646.33,-306.75 644.76,-299.93"/>
</g>
<!-- Node24 -->
<g id="node24" class="node">
<title>Node24</title>
<g id="a_node24"><a xlink:href="rule__registry__builder_8h.html" target="_top" xlink:title=" ">
<polygon fill="white" stroke="black" points="1105,-129 1105,-148 1231,-148 1231,-129 1105,-129"/>
<text text-anchor="middle" x="1168" y="-136" font-family="Helvetica,sans-Serif" font-size="10.00">rule_registry_builder.h</text>
</a>
</g>
</g>
<!-- Node5&#45;&gt;Node24 -->
<g id="edge40" class="edge">
<title>Node5&#45;&gt;Node24</title>
<path fill="none" stroke="midnightblue" d="M645.19,-300.76C745.97,-269.68 1047.18,-176.77 1140.27,-148.05"/>
<polygon fill="midnightblue" stroke="midnightblue" points="644.06,-297.45 635.54,-303.74 646.12,-304.14 644.06,-297.45"/>
</g>
<!-- Node25 -->
<g id="node25" class="node">
<title>Node25</title>
<g id="a_node25"><a xlink:href="speed__limit__builder_8h.html" target="_top" xlink:title=" ">
<polygon fill="white" stroke="black" points="1434,-129 1434,-148 1556,-148 1556,-129 1434,-129"/>
<text text-anchor="middle" x="1495" y="-136" font-family="Helvetica,sans-Serif" font-size="10.00">speed_limit_builder.h</text>
</a>
</g>
</g>
<!-- Node5&#45;&gt;Node25 -->
<g id="edge43" class="edge">
<title>Node5&#45;&gt;Node25</title>
<path fill="none" stroke="midnightblue" d="M645.8,-304.98C693.24,-296.5 782.27,-280.45 858,-266 1082.83,-223.11 1351.64,-168.7 1453.31,-148.01"/>
<polygon fill="midnightblue" stroke="midnightblue" points="645,-301.57 635.77,-306.78 646.23,-308.46 645,-301.57"/>
</g>
<!-- Node7&#45;&gt;Node2 -->
<g id="edge17" class="edge">
<title>Node7&#45;&gt;Node2</title>
<path fill="none" stroke="midnightblue" d="M471.07,-239.82C453.26,-225.36 424.67,-203.81 397,-190 350.22,-166.65 328.88,-182.44 285,-154 235.88,-122.16 241.58,-93.94 197,-56 179.84,-41.39 157.6,-27.88 142.84,-19.55"/>
<polygon fill="midnightblue" stroke="midnightblue" points="468.96,-242.61 478.9,-246.28 473.42,-237.22 468.96,-242.61"/>
</g>
<!-- Node8 -->
<g id="node8" class="node">
<title>Node8</title>
<g id="a_node8"><a xlink:href="lane__boundary_8cc.html" target="_top" xlink:title=" ">
<polygon fill="white" stroke="black" points="444.5,-190.5 444.5,-209.5 545.5,-209.5 545.5,-190.5 444.5,-190.5"/>
<text text-anchor="middle" x="495" y="-197.5" font-family="Helvetica,sans-Serif" font-size="10.00">lane_boundary.cc</text>
</a>
</g>
</g>
<!-- Node7&#45;&gt;Node8 -->
<g id="edge7" class="edge">
<title>Node7&#45;&gt;Node8</title>
<path fill="none" stroke="midnightblue" d="M491.1,-236.1C492.1,-227.14 493.24,-216.86 494.03,-209.75"/>
<polygon fill="midnightblue" stroke="midnightblue" points="487.62,-235.76 489.99,-246.08 494.57,-236.53 487.62,-235.76"/>
</g>
<!-- Node7&#45;&gt;Node9 -->
<g id="edge8" class="edge">
<title>Node7&#45;&gt;Node9</title>
<path fill="none" stroke="midnightblue" d="M458.09,-242.64C432.76,-232.5 397.57,-218.43 375.29,-209.52"/>
<polygon fill="midnightblue" stroke="midnightblue" points="457.02,-245.98 467.61,-246.44 459.62,-239.48 457.02,-245.98"/>
</g>
<!-- Node9&#45;&gt;Node10 -->
<g id="edge9" class="edge">
<title>Node9&#45;&gt;Node10</title>
<path fill="none" stroke="midnightblue" d="M350.55,-180.32C348.55,-169.5 346.12,-156.4 344.57,-148.01"/>
<polygon fill="midnightblue" stroke="midnightblue" points="347.16,-181.28 352.42,-190.48 354.05,-180.01 347.16,-181.28"/>
</g>
<!-- Node9&#45;&gt;Node13 -->
<g id="edge16" class="edge">
<title>Node9&#45;&gt;Node13</title>
<path fill="none" stroke="midnightblue" d="M376.17,-184.16C385.72,-176.42 395.85,-166.05 401,-154 411.7,-128.95 396.98,-96.74 388.4,-81.39"/>
<polygon fill="midnightblue" stroke="midnightblue" points="373.96,-181.45 368.08,-190.26 378.17,-187.04 373.96,-181.45"/>
</g>
<!-- Node10&#45;&gt;Node6 -->
<g id="edge10" class="edge">
<title>Node10&#45;&gt;Node6</title>
<path fill="none" stroke="midnightblue" d="M325.43,-121.86C311.08,-109.08 291.33,-91.49 279.69,-81.13"/>
<polygon fill="midnightblue" stroke="midnightblue" points="323.36,-124.7 333.15,-128.73 328.01,-119.47 323.36,-124.7"/>
</g>
<!-- Node10&#45;&gt;Node11 -->
<g id="edge11" class="edge">
<title>Node10&#45;&gt;Node11</title>
<path fill="none" stroke="midnightblue" d="M376.22,-125.44C411.73,-112.54 467.13,-92.42 498.42,-81.06"/>
<polygon fill="midnightblue" stroke="midnightblue" points="374.97,-122.17 366.77,-128.87 377.36,-128.75 374.97,-122.17"/>
</g>
<!-- Node12 -->
<g id="node12" class="node">
<title>Node12</title>
<g id="a_node12"><a xlink:href="builder__tools_8cc.html" target="_top" xlink:title=" ">
<polygon fill="white" stroke="black" points="630.5,-62 630.5,-81 723.5,-81 723.5,-62 630.5,-62"/>
<text text-anchor="middle" x="677" y="-69" font-family="Helvetica,sans-Serif" font-size="10.00">builder_tools.cc</text>
</a>
</g>
</g>
<!-- Node10&#45;&gt;Node12 -->
<g id="edge12" class="edge">
<title>Node10&#45;&gt;Node12</title>
<path fill="none" stroke="midnightblue" d="M397.17,-126.96C462.91,-114.16 572.47,-92.84 633.16,-81.03"/>
<polygon fill="midnightblue" stroke="midnightblue" points="396.16,-123.59 387.01,-128.94 397.49,-130.46 396.16,-123.59"/>
</g>
<!-- Node10&#45;&gt;Node13 -->
<g id="edge13" class="edge">
<title>Node10&#45;&gt;Node13</title>
<path fill="none" stroke="midnightblue" d="M353.75,-120.03C361.49,-107.45 371.61,-91.01 377.69,-81.13"/>
<polygon fill="midnightblue" stroke="midnightblue" points="350.65,-118.38 348.39,-128.73 356.62,-122.05 350.65,-118.38"/>
</g>
<!-- Node13&#45;&gt;Node2 -->
<g id="edge14" class="edge">
<title>Node13&#45;&gt;Node2</title>
<path fill="none" stroke="midnightblue" d="M336.47,-59.69C286.8,-48.14 209.11,-30.08 163.61,-19.51"/>
<polygon fill="midnightblue" stroke="midnightblue" points="335.79,-63.12 346.32,-61.98 337.37,-56.3 335.79,-63.12"/>
</g>
<!-- Node14 -->
<g id="node14" class="node">
<title>Node14</title>
<g id="a_node14"><a xlink:href="road__network__builder_8cc.html" target="_top" xlink:title=" ">
<polygon fill="white" stroke="black" points="1336,-0.5 1336,-19.5 1472,-19.5 1472,-0.5 1336,-0.5"/>
<text text-anchor="middle" x="1404" y="-7.5" font-family="Helvetica,sans-Serif" font-size="10.00">road_network_builder.cc</text>
</a>
</g>
</g>
<!-- Node13&#45;&gt;Node14 -->
<g id="edge15" class="edge">
<title>Node13&#45;&gt;Node14</title>
<path fill="none" stroke="midnightblue" d="M433.81,-60.14C443.15,-58.53 452.84,-57.05 462,-56 787.71,-18.5 1180.25,-12.13 1335.78,-11.14"/>
<polygon fill="midnightblue" stroke="midnightblue" points="433.07,-56.72 423.85,-61.93 434.31,-63.61 433.07,-56.72"/>
</g>
<!-- Node15&#45;&gt;Node12 -->
<g id="edge21" class="edge">
<title>Node15&#45;&gt;Node12</title>
<path fill="none" stroke="midnightblue" d="M852.08,-125.93C809.91,-113.06 742.77,-92.57 705.06,-81.06"/>
<polygon fill="midnightblue" stroke="midnightblue" points="851.13,-129.3 861.72,-128.87 853.17,-122.6 851.13,-129.3"/>
</g>
<!-- Node15&#45;&gt;Node13 -->
<g id="edge23" class="edge">
<title>Node15&#45;&gt;Node13</title>
<path fill="none" stroke="midnightblue" d="M835,-129.08C820.69,-126.99 805.28,-124.83 791,-123 645.09,-104.34 607.55,-108.29 462,-87 450.41,-85.3 437.92,-83.16 426.37,-81.04"/>
<polygon fill="midnightblue" stroke="midnightblue" points="834.8,-132.59 845.2,-130.59 835.82,-125.66 834.8,-132.59"/>
</g>
<!-- Node15&#45;&gt;Node14 -->
<g id="edge24" class="edge">
<title>Node15&#45;&gt;Node14</title>
<path fill="none" stroke="midnightblue" d="M894.92,-119.03C901.1,-99.8 913.69,-70.5 936,-56 968.72,-34.73 1213.75,-20.13 1335.61,-14.1"/>
<polygon fill="midnightblue" stroke="midnightblue" points="891.52,-118.18 892.07,-128.76 898.24,-120.16 891.52,-118.18"/>
</g>
<!-- Node16 -->
<g id="node16" class="node">
<title>Node16</title>
<g id="a_node16"><a xlink:href="direction__usage__builder_8cc.html" target="_top" xlink:title=" ">
<polygon fill="white" stroke="black" points="742,-62 742,-81 888,-81 888,-62 742,-62"/>
<text text-anchor="middle" x="815" y="-69" font-family="Helvetica,sans-Serif" font-size="10.00">direction_usage_builder.cc</text>
</a>
</g>
</g>
<!-- Node15&#45;&gt;Node16 -->
<g id="edge22" class="edge">
<title>Node15&#45;&gt;Node16</title>
<path fill="none" stroke="midnightblue" d="M871.95,-121.86C857.21,-109.08 836.91,-91.49 824.95,-81.13"/>
<polygon fill="midnightblue" stroke="midnightblue" points="870.04,-124.83 879.89,-128.73 874.62,-119.54 870.04,-124.83"/>
</g>
<!-- Node17 -->
<g id="node17" class="node">
<title>Node17</title>
<g id="a_node17"><a xlink:href="road__rulebook__builder_8cc.html" target="_top" xlink:title=" ">
<polygon fill="white" stroke="black" points="944.5,-62 944.5,-81 1083.5,-81 1083.5,-62 944.5,-62"/>
<text text-anchor="middle" x="1014" y="-69" font-family="Helvetica,sans-Serif" font-size="10.00">road_rulebook_builder.cc</text>
</a>
</g>
</g>
<!-- Node15&#45;&gt;Node17 -->
<g id="edge25" class="edge">
<title>Node15&#45;&gt;Node17</title>
<path fill="none" stroke="midnightblue" d="M915.56,-124.1C940.11,-111.23 976.49,-92.16 997.47,-81.17"/>
<polygon fill="midnightblue" stroke="midnightblue" points="913.7,-121.13 906.47,-128.87 916.95,-127.33 913.7,-121.13"/>
</g>
<!-- Node18 -->
<g id="node18" class="node">
<title>Node18</title>
<g id="a_node18"><a xlink:href="road__rulebook__builder__old__rules_8cc.html" target="_top" xlink:title=" ">
<polygon fill="white" stroke="black" points="1250.5,-56.5 1250.5,-86.5 1375.5,-86.5 1375.5,-56.5 1250.5,-56.5"/>
<text text-anchor="start" x="1258.5" y="-74.5" font-family="Helvetica,sans-Serif" font-size="10.00">road_rulebook_builder</text>
<text text-anchor="middle" x="1313" y="-63.5" font-family="Helvetica,sans-Serif" font-size="10.00">_old_rules.cc</text>
</a>
</g>
</g>
<!-- Node15&#45;&gt;Node18 -->
<g id="edge26" class="edge">
<title>Node15&#45;&gt;Node18</title>
<path fill="none" stroke="midnightblue" d="M928.48,-126.45C933.67,-125.17 938.95,-123.98 944,-123 1074.97,-97.64 1110.31,-108.36 1242,-87 1244.73,-86.56 1247.52,-86.08 1250.33,-85.59"/>
<polygon fill="midnightblue" stroke="midnightblue" points="927.49,-123.09 918.69,-128.98 929.25,-129.87 927.49,-123.09"/>
</g>
<!-- Node19 -->
<g id="node19" class="node">
<title>Node19</title>
<g id="a_node19"><a xlink:href="rule__registry__builder_8cc.html" target="_top" xlink:title=" ">
<polygon fill="white" stroke="black" points="1101.5,-62 1101.5,-81 1232.5,-81 1232.5,-62 1101.5,-62"/>
<text text-anchor="middle" x="1167" y="-69" font-family="Helvetica,sans-Serif" font-size="10.00">rule_registry_builder.cc</text>
</a>
</g>
</g>
<!-- Node15&#45;&gt;Node19 -->
<g id="edge27" class="edge">
<title>Node15&#45;&gt;Node19</title>
<path fill="none" stroke="midnightblue" d="M930.74,-126.38C935.21,-125.21 939.7,-124.06 944,-123 1007.77,-107.22 1082.29,-90.74 1127.01,-81.06"/>
<polygon fill="midnightblue" stroke="midnightblue" points="929.84,-122.99 921.07,-128.93 931.63,-129.76 929.84,-122.99"/>
</g>
<!-- Node20 -->
<g id="node20" class="node">
<title>Node20</title>
<g id="a_node20"><a xlink:href="speed__limit__builder_8cc.html" target="_top" xlink:title=" ">
<polygon fill="white" stroke="black" points="1432,-62 1432,-81 1558,-81 1558,-62 1432,-62"/>
<text text-anchor="middle" x="1495" y="-69" font-family="Helvetica,sans-Serif" font-size="10.00">speed_limit_builder.cc</text>
</a>
</g>
</g>
<!-- Node15&#45;&gt;Node20 -->
<g id="edge28" class="edge">
<title>Node15&#45;&gt;Node20</title>
<path fill="none" stroke="midnightblue" d="M928.09,-126.35C933.4,-125.07 938.81,-123.9 944,-123 1137.75,-89.36 1189.46,-107.86 1385,-87 1401.09,-85.28 1418.46,-83.13 1434.55,-81.02"/>
<polygon fill="midnightblue" stroke="midnightblue" points="926.9,-123.05 918.09,-128.93 928.65,-129.83 926.9,-123.05"/>
</g>
<!-- Node21&#45;&gt;Node14 -->
<g id="edge31" class="edge">
<title>Node21&#45;&gt;Node14</title>
<path fill="none" stroke="midnightblue" d="M679.35,-124.86C644.83,-109.35 597.55,-81.9 622,-56 646.33,-30.23 1149.76,-16.59 1335.74,-12.41"/>
<polygon fill="midnightblue" stroke="midnightblue" points="678.11,-128.14 688.68,-128.91 680.9,-121.72 678.11,-128.14"/>
</g>
<!-- Node21&#45;&gt;Node16 -->
<g id="edge30" class="edge">
<title>Node21&#45;&gt;Node16</title>
<path fill="none" stroke="midnightblue" d="M733.77,-123.27C754.36,-110.4 783.99,-91.88 801.2,-81.13"/>
<polygon fill="midnightblue" stroke="midnightblue" points="731.65,-120.47 725.03,-128.73 735.36,-126.4 731.65,-120.47"/>
</g>
<!-- Node22&#45;&gt;Node14 -->
<g id="edge34" class="edge">
<title>Node22&#45;&gt;Node14</title>
<path fill="none" stroke="midnightblue" d="M1072.11,-127.1C1080.09,-125.64 1088.26,-124.22 1096,-123 1159.93,-112.93 1336.55,-129.91 1385,-87 1404.55,-69.69 1405.46,-35.59 1404.7,-19.63"/>
<polygon fill="midnightblue" stroke="midnightblue" points="1071.31,-123.69 1062.13,-128.96 1072.6,-130.57 1071.31,-123.69"/>
</g>
<!-- Node22&#45;&gt;Node17 -->
<g id="edge35" class="edge">
<title>Node22&#45;&gt;Node17</title>
<path fill="none" stroke="midnightblue" d="M1018.25,-118.54C1017.11,-106.17 1015.67,-90.62 1014.8,-81.13"/>
<polygon fill="midnightblue" stroke="midnightblue" points="1014.79,-119.1 1019.19,-128.73 1021.76,-118.45 1014.79,-119.1"/>
</g>
<!-- Node22&#45;&gt;Node18 -->
<g id="edge36" class="edge">
<title>Node22&#45;&gt;Node18</title>
<path fill="none" stroke="midnightblue" d="M1068.49,-126.74C1118.3,-115.69 1196.04,-98.45 1250.46,-86.37"/>
<polygon fill="midnightblue" stroke="midnightblue" points="1067.61,-123.35 1058.61,-128.94 1069.13,-130.19 1067.61,-123.35"/>
</g>
<!-- Node23&#45;&gt;Node14 -->
<g id="edge38" class="edge">
<title>Node23&#45;&gt;Node14</title>
<path fill="none" stroke="midnightblue" d="M1385.84,-127.05C1468.57,-114.84 1593.08,-95.24 1600,-87 1639.3,-40.18 1543.27,-22.09 1472.17,-15.18"/>
<polygon fill="midnightblue" stroke="midnightblue" points="1385.1,-123.62 1375.72,-128.54 1386.12,-130.55 1385.1,-123.62"/>
</g>
<!-- Node23&#45;&gt;Node18 -->
<g id="edge39" class="edge">
<title>Node23&#45;&gt;Node18</title>
<path fill="none" stroke="midnightblue" d="M1313,-113.11C1313,-104.15 1313,-94.32 1313,-86.58"/>
<polygon fill="midnightblue" stroke="midnightblue" points="1309.5,-113.4 1313,-123.4 1316.5,-113.4 1309.5,-113.4"/>
</g>
<!-- Node24&#45;&gt;Node14 -->
<g id="edge41" class="edge">
<title>Node24&#45;&gt;Node14</title>
<path fill="none" stroke="midnightblue" d="M1218.15,-127.09C1226.11,-125.61 1234.27,-124.18 1242,-123 1313.83,-112 1518.53,-141.14 1567,-87 1600.12,-50.01 1529.22,-29.65 1470.73,-19.53"/>
<polygon fill="midnightblue" stroke="midnightblue" points="1217.38,-123.67 1208.22,-128.99 1218.7,-130.55 1217.38,-123.67"/>
</g>
<!-- Node24&#45;&gt;Node19 -->
<g id="edge42" class="edge">
<title>Node24&#45;&gt;Node19</title>
<path fill="none" stroke="midnightblue" d="M1167.71,-118.54C1167.52,-106.17 1167.28,-90.62 1167.13,-81.13"/>
<polygon fill="midnightblue" stroke="midnightblue" points="1164.21,-118.79 1167.87,-128.73 1171.21,-118.68 1164.21,-118.79"/>
</g>
<!-- Node25&#45;&gt;Node14 -->
<g id="edge44" class="edge">
<title>Node25&#45;&gt;Node14</title>
<path fill="none" stroke="midnightblue" d="M1541.14,-126.23C1586.24,-113.02 1644.54,-88.71 1618,-56 1599.82,-33.6 1527.78,-21.93 1472.26,-16.15"/>
<polygon fill="midnightblue" stroke="midnightblue" points="1540.14,-122.88 1531.46,-128.96 1542.04,-129.61 1540.14,-122.88"/>
</g>
<!-- Node25&#45;&gt;Node20 -->
<g id="edge45" class="edge">
<title>Node25&#45;&gt;Node20</title>
<path fill="none" stroke="midnightblue" d="M1495,-118.54C1495,-106.17 1495,-90.62 1495,-81.13"/>
<polygon fill="midnightblue" stroke="midnightblue" points="1491.5,-118.73 1495,-128.73 1498.5,-118.73 1491.5,-118.73"/>
</g>
<!-- Node26&#45;&gt;Node2 -->
<g id="edge50" class="edge">
<title>Node26&#45;&gt;Node2</title>
<path fill="none" stroke="midnightblue" d="M97.47,-124.24C82.36,-115.92 65.56,-103.59 57,-87 50.68,-74.76 50.4,-68.09 57,-56 66.62,-38.37 86.43,-26.62 102.53,-19.56"/>
<polygon fill="midnightblue" stroke="midnightblue" points="96.08,-127.46 106.57,-128.91 99.27,-121.23 96.08,-127.46"/>
</g>
<!-- Node26&#45;&gt;Node13 -->
<g id="edge51" class="edge">
<title>Node26&#45;&gt;Node13</title>
<path fill="none" stroke="midnightblue" d="M171.53,-126.4C221.86,-113.58 303.61,-92.74 349.33,-81.08"/>
<polygon fill="midnightblue" stroke="midnightblue" points="170.42,-123.07 161.6,-128.94 172.15,-129.86 170.42,-123.07"/>
</g>
<!-- Node27 -->
<g id="node27" class="node">
<title>Node27</title>
<g id="a_node27"><a xlink:href="road__curve__factory_8cc.html" target="_top" xlink:title=" ">
<polygon fill="white" stroke="black" points="66,-62 66,-81 188,-81 188,-62 66,-62"/>
<text text-anchor="middle" x="127" y="-69" font-family="Helvetica,sans-Serif" font-size="10.00">road_curve_factory.cc</text>
</a>
</g>
</g>
<!-- Node26&#45;&gt;Node27 -->
<g id="edge49" class="edge">
<title>Node26&#45;&gt;Node27</title>
<path fill="none" stroke="midnightblue" d="M127.71,-118.54C127.52,-106.17 127.28,-90.62 127.13,-81.13"/>
<polygon fill="midnightblue" stroke="midnightblue" points="124.21,-118.79 127.87,-128.73 131.21,-118.68 124.21,-118.79"/>
</g>
<!-- Node29&#45;&gt;Node5 -->
<g id="edge54" class="edge">
<title>Node29&#45;&gt;Node5</title>
<path fill="none" stroke="midnightblue" d="M455.95,-355.78C496,-344.8 555.61,-328.46 588.35,-319.48"/>
<polygon fill="midnightblue" stroke="midnightblue" points="454.93,-352.42 446.22,-358.44 456.78,-359.18 454.93,-352.42"/>
</g>
<!-- Node29&#45;&gt;Node9 -->
<g id="edge55" class="edge">
<title>Node29&#45;&gt;Node9</title>
<path fill="none" stroke="midnightblue" d="M402.9,-350.18C397.44,-341.98 391.28,-331.8 387,-322 369.5,-281.89 359.14,-230.17 355.49,-209.8"/>
<polygon fill="midnightblue" stroke="midnightblue" points="400.06,-352.22 408.62,-358.45 405.82,-348.24 400.06,-352.22"/>
</g>
<!-- Node30 -->
<g id="node30" class="node">
<title>Node30</title>
<g id="a_node30"><a xlink:href="road__curve__offset_8cc.html" target="_top" xlink:title=" ">
<polygon fill="white" stroke="black" points="396,-302.5 396,-321.5 514,-321.5 514,-302.5 396,-302.5"/>
<text text-anchor="middle" x="455" y="-309.5" font-family="Helvetica,sans-Serif" font-size="10.00">road_curve_offset.cc</text>
</a>
</g>
</g>
<!-- Node29&#45;&gt;Node30 -->
<g id="edge56" class="edge">
<title>Node29&#45;&gt;Node30</title>
<path fill="none" stroke="midnightblue" d="M427.7,-349.86C434.63,-340.5 442.91,-329.33 448.52,-321.75"/>
<polygon fill="midnightblue" stroke="midnightblue" points="424.75,-347.96 421.61,-358.08 430.37,-352.13 424.75,-347.96"/>
</g>
</g>
</svg>
