<?xml version="1.0" encoding="UTF-8" standalone="no"?>
<!DOCTYPE svg PUBLIC "-//W3C//DTD SVG 1.1//EN"
 "http://www.w3.org/Graphics/SVG/1.1/DTD/svg11.dtd">
<!-- Generated by graphviz version 2.43.0 (0)
 -->
<!-- Title: semantics.h Pages: 1 -->
<!--zoomable 375 -->
<svg id="main" version="1.1" xmlns="http://www.w3.org/2000/svg" xmlns:xlink="http://www.w3.org/1999/xlink" xml:space="preserve" onload="init(evt)">
<style type="text/css"><![CDATA[
.edge:hover path { stroke: red; }
.edge:hover polygon { stroke: red; fill: red; }
]]></style>
<script type="text/javascript"><![CDATA[
var edges = document.getElementsByTagName('g');
if (edges && edges.length) {
  for (var i=0;i<edges.length;i++) {
    if (edges[i].id.substr(0,4)=='edge') {
      edges[i].setAttribute('class','edge');
    }
  }
}
]]></script>
        <defs>
                <circle id="rim" cx="0" cy="0" r="7"/>
                <circle id="rim2" cx="0" cy="0" r="3.5"/>
                <g id="zoomPlus">
                        <use xlink:href="#rim" fill="#404040">
                                <set attributeName="fill" to="#808080" begin="zoomplus.mouseover" end="zoomplus.mouseout"/>
                        </use>
                        <path d="M-4,0h8M0,-4v8" fill="none" stroke="white" stroke-width="1.5" pointer-events="none"/>
                </g>
                <g id="zoomMin">
                        <use xlink:href="#rim" fill="#404040">
                                <set attributeName="fill" to="#808080" begin="zoomminus.mouseover" end="zoomminus.mouseout"/>
                        </use>
                        <path d="M-4,0h8" fill="none" stroke="white" stroke-width="1.5" pointer-events="none"/>
                </g>
                <g id="dirArrow">
                        <path fill="none" stroke="white" stroke-width="1.5" d="M0,-3.0v7 M-2.5,-0.5L0,-3.0L2.5,-0.5"/>
                </g>
               <g id="resetDef">
                       <use xlink:href="#rim2" fill="#404040">
                               <set attributeName="fill" to="#808080" begin="reset.mouseover" end="reset.mouseout"/>
                       </use>
               </g>
        </defs>

<script type="text/javascript">
var viewWidth = 2356;
var viewHeight = 375;
var sectionId = 'dynsection-1';
</script>
<script xlink:href="svgpan.js"/>
<svg id="graph" class="graph">
<g id="viewport">
<title>semantics.h</title>
<polygon fill="white" stroke="transparent" points="-4,4 -4,-371 2352,-371 2352,4 -4,4"/>
<!-- Node1 -->
<g id="node1" class="node">
<title>Node1</title>
<g id="a_node1"><a xlink:title=" ">
<polygon fill="#bfbfbf" stroke="black" points="1372.5,-347.5 1372.5,-366.5 1448.5,-366.5 1448.5,-347.5 1372.5,-347.5"/>
<text text-anchor="middle" x="1410.5" y="-354.5" font-family="Helvetica,sans-Serif" font-size="10.00">semantics.h</text>
</a>
</g>
</g>
<!-- Node2 -->
<g id="node2" class="node">
<title>Node2</title>
<g id="a_node2"><a xlink:href="xodr_2parser_8cc.html" target="_top" xlink:title=" ">
<polygon fill="white" stroke="black" points="1306,-179.5 1306,-198.5 1367,-198.5 1367,-179.5 1306,-179.5"/>
<text text-anchor="middle" x="1336.5" y="-186.5" font-family="Helvetica,sans-Serif" font-size="10.00">parser.cc</text>
</a>
</g>
</g>
<!-- Node1&#45;&gt;Node2 -->
<g id="edge1" class="edge">
<title>Node1&#45;&gt;Node2</title>
<path fill="none" stroke="midnightblue" d="M1362.31,-343.93C1345.47,-337.15 1328.34,-326.76 1318.5,-311 1295.67,-274.42 1320.37,-219.77 1331.57,-198.71"/>
<polygon fill="midnightblue" stroke="midnightblue" points="1361.53,-347.38 1372.13,-347.52 1363.94,-340.8 1361.53,-347.38"/>
</g>
<!-- Node3 -->
<g id="node3" class="node">
<title>Node3</title>
<g id="a_node3"><a xlink:href="semantics_8cc.html" target="_top" xlink:title=" ">
<polygon fill="white" stroke="black" points="1327.5,-291.5 1327.5,-310.5 1407.5,-310.5 1407.5,-291.5 1327.5,-291.5"/>
<text text-anchor="middle" x="1367.5" y="-298.5" font-family="Helvetica,sans-Serif" font-size="10.00">semantics.cc</text>
</a>
</g>
</g>
<!-- Node1&#45;&gt;Node3 -->
<g id="edge2" class="edge">
<title>Node1&#45;&gt;Node3</title>
<path fill="none" stroke="midnightblue" d="M1397.08,-339.14C1389.59,-329.74 1380.56,-318.4 1374.47,-310.75"/>
<polygon fill="midnightblue" stroke="midnightblue" points="1394.43,-341.44 1403.4,-347.08 1399.91,-337.08 1394.43,-341.44"/>
</g>
<!-- Node4 -->
<g id="node4" class="node">
<title>Node4</title>
<g id="a_node4"><a xlink:href="signal_8h.html" target="_top" xlink:title=" ">
<polygon fill="white" stroke="black" points="1426,-291.5 1426,-310.5 1481,-310.5 1481,-291.5 1426,-291.5"/>
<text text-anchor="middle" x="1453.5" y="-298.5" font-family="Helvetica,sans-Serif" font-size="10.00">signal.h</text>
</a>
</g>
</g>
<!-- Node1&#45;&gt;Node4 -->
<g id="edge3" class="edge">
<title>Node1&#45;&gt;Node4</title>
<path fill="none" stroke="midnightblue" d="M1423.92,-339.14C1431.41,-329.74 1440.44,-318.4 1446.53,-310.75"/>
<polygon fill="midnightblue" stroke="midnightblue" points="1421.09,-337.08 1417.6,-347.08 1426.57,-341.44 1421.09,-337.08"/>
</g>
<!-- Node40 -->
<g id="node40" class="node">
<title>Node40</title>
<g id="a_node40"><a xlink:href="signal__parser_8cc.html" target="_top" xlink:title=" ">
<polygon fill="white" stroke="black" points="1568,-179.5 1568,-198.5 1663,-198.5 1663,-179.5 1568,-179.5"/>
<text text-anchor="middle" x="1615.5" y="-186.5" font-family="Helvetica,sans-Serif" font-size="10.00">signal_parser.cc</text>
</a>
</g>
</g>
<!-- Node1&#45;&gt;Node40 -->
<g id="edge67" class="edge">
<title>Node1&#45;&gt;Node40</title>
<path fill="none" stroke="midnightblue" d="M1442.32,-343.53C1479.41,-327.66 1540.7,-297.17 1580.5,-255 1596.51,-238.04 1607.45,-212.34 1612.43,-198.9"/>
<polygon fill="midnightblue" stroke="midnightblue" points="1440.86,-340.34 1432.99,-347.43 1443.56,-346.8 1440.86,-340.34"/>
</g>
<!-- Node4&#45;&gt;Node2 -->
<g id="edge10" class="edge">
<title>Node4&#45;&gt;Node2</title>
<path fill="none" stroke="midnightblue" d="M1426.6,-286.64C1412.22,-278.69 1394.8,-267.69 1381.5,-255 1363.43,-237.76 1348.31,-212.18 1341.08,-198.83"/>
<polygon fill="midnightblue" stroke="midnightblue" points="1425.06,-289.79 1435.53,-291.41 1428.36,-283.61 1425.06,-289.79"/>
</g>
<!-- Node5 -->
<g id="node5" class="node">
<title>Node5</title>
<g id="a_node5"><a xlink:href="traffic__light__builder_8h.html" target="_top" xlink:title=" ">
<polygon fill="white" stroke="black" points="1307,-123.5 1307,-142.5 1428,-142.5 1428,-123.5 1307,-123.5"/>
<text text-anchor="middle" x="1367.5" y="-130.5" font-family="Helvetica,sans-Serif" font-size="10.00">traffic_light_builder.h</text>
</a>
</g>
</g>
<!-- Node4&#45;&gt;Node5 -->
<g id="edge4" class="edge">
<title>Node4&#45;&gt;Node5</title>
<path fill="none" stroke="midnightblue" d="M1437.31,-284.08C1429.65,-275.91 1420.82,-265.49 1414.5,-255 1391.01,-216.01 1375.33,-163.21 1369.76,-142.68"/>
<polygon fill="midnightblue" stroke="midnightblue" points="1434.96,-286.69 1444.44,-291.42 1439.98,-281.81 1434.96,-286.69"/>
</g>
<!-- Node8 -->
<g id="node8" class="node">
<title>Node8</title>
<g id="a_node8"><a xlink:href="traffic__sign__builder_8h.html" target="_top" xlink:title=" ">
<polygon fill="white" stroke="black" points="1170,-123.5 1170,-142.5 1289,-142.5 1289,-123.5 1170,-123.5"/>
<text text-anchor="middle" x="1229.5" y="-130.5" font-family="Helvetica,sans-Serif" font-size="10.00">traffic_sign_builder.h</text>
</a>
</g>
</g>
<!-- Node4&#45;&gt;Node8 -->
<g id="edge7" class="edge">
<title>Node4&#45;&gt;Node8</title>
<path fill="none" stroke="midnightblue" d="M1415.78,-291.16C1280.08,-269.5 1226.85,-322.65 1112.5,-255 1079.65,-235.57 1049.53,-209.48 1072.5,-179 1085,-162.41 1134.61,-150.07 1174.76,-142.55"/>
<polygon fill="midnightblue" stroke="midnightblue" points="1415.25,-294.62 1425.7,-292.86 1416.43,-287.72 1415.25,-294.62"/>
</g>
<!-- Node10 -->
<g id="node10" class="node">
<title>Node10</title>
<g id="a_node10"><a xlink:href="road__header_8h.html" target="_top" xlink:title=" ">
<polygon fill="white" stroke="black" points="1121.5,-235.5 1121.5,-254.5 1207.5,-254.5 1207.5,-235.5 1121.5,-235.5"/>
<text text-anchor="middle" x="1164.5" y="-242.5" font-family="Helvetica,sans-Serif" font-size="10.00">road_header.h</text>
</a>
</g>
</g>
<!-- Node4&#45;&gt;Node10 -->
<g id="edge11" class="edge">
<title>Node4&#45;&gt;Node10</title>
<path fill="none" stroke="midnightblue" d="M1415.56,-290.91C1336.71,-274.47 1256.19,-260.79 1207.91,-252.91"/>
<polygon fill="midnightblue" stroke="midnightblue" points="1415.16,-294.4 1425.66,-293.03 1416.6,-287.55 1415.16,-294.4"/>
</g>
<!-- Node37 -->
<g id="node37" class="node">
<title>Node37</title>
<g id="a_node37"><a xlink:href="sign_8h.html" target="_top" xlink:title=" ">
<polygon fill="white" stroke="black" points="1501.5,-235.5 1501.5,-254.5 1547.5,-254.5 1547.5,-235.5 1501.5,-235.5"/>
<text text-anchor="middle" x="1524.5" y="-242.5" font-family="Helvetica,sans-Serif" font-size="10.00">sign.h</text>
</a>
</g>
</g>
<!-- Node4&#45;&gt;Node37 -->
<g id="edge61" class="edge">
<title>Node4&#45;&gt;Node37</title>
<path fill="none" stroke="midnightblue" d="M1473.09,-285.1C1485.87,-275.38 1502.11,-263.03 1512.89,-254.83"/>
<polygon fill="midnightblue" stroke="midnightblue" points="1470.75,-282.48 1464.91,-291.32 1474.99,-288.06 1470.75,-282.48"/>
</g>
<!-- Node4&#45;&gt;Node40 -->
<g id="edge66" class="edge">
<title>Node4&#45;&gt;Node40</title>
<path fill="none" stroke="midnightblue" d="M1491.02,-287.97C1511.48,-280.37 1536.61,-269.28 1556.5,-255 1579.28,-238.64 1599.79,-212.22 1609.53,-198.65"/>
<polygon fill="midnightblue" stroke="midnightblue" points="1489.62,-284.75 1481.39,-291.42 1491.99,-291.34 1489.62,-284.75"/>
</g>
<!-- Node41 -->
<g id="node41" class="node">
<title>Node41</title>
<g id="a_node41"><a xlink:href="signal_8cc.html" target="_top" xlink:title=" ">
<polygon fill="white" stroke="black" points="1424,-235.5 1424,-254.5 1483,-254.5 1483,-235.5 1424,-235.5"/>
<text text-anchor="middle" x="1453.5" y="-242.5" font-family="Helvetica,sans-Serif" font-size="10.00">signal.cc</text>
</a>
</g>
</g>
<!-- Node4&#45;&gt;Node41 -->
<g id="edge65" class="edge">
<title>Node4&#45;&gt;Node41</title>
<path fill="none" stroke="midnightblue" d="M1453.5,-280.8C1453.5,-271.91 1453.5,-261.78 1453.5,-254.75"/>
<polygon fill="midnightblue" stroke="midnightblue" points="1450,-281.08 1453.5,-291.08 1457,-281.08 1450,-281.08"/>
</g>
<!-- Node6 -->
<g id="node6" class="node">
<title>Node6</title>
<g id="a_node6"><a xlink:href="traffic__light__builder_8cc.html" target="_top" xlink:title=" ">
<polygon fill="white" stroke="black" points="1427,-62 1427,-81 1552,-81 1552,-62 1427,-62"/>
<text text-anchor="middle" x="1489.5" y="-69" font-family="Helvetica,sans-Serif" font-size="10.00">traffic_light_builder.cc</text>
</a>
</g>
</g>
<!-- Node5&#45;&gt;Node6 -->
<g id="edge5" class="edge">
<title>Node5&#45;&gt;Node6</title>
<path fill="none" stroke="midnightblue" d="M1394.11,-119.02C1417.77,-107.48 1451.68,-90.94 1472.05,-81.01"/>
<polygon fill="midnightblue" stroke="midnightblue" points="1392.43,-115.95 1384.98,-123.48 1395.5,-122.24 1392.43,-115.95"/>
</g>
<!-- Node7 -->
<g id="node7" class="node">
<title>Node7</title>
<g id="a_node7"><a xlink:href="traffic__signal__books__builder_8cc.html" target="_top" xlink:title=" ">
<polygon fill="white" stroke="black" points="1151,-56.5 1151,-86.5 1266,-86.5 1266,-56.5 1151,-56.5"/>
<text text-anchor="start" x="1159" y="-74.5" font-family="Helvetica,sans-Serif" font-size="10.00">traffic_signal_books</text>
<text text-anchor="middle" x="1208.5" y="-63.5" font-family="Helvetica,sans-Serif" font-size="10.00">_builder.cc</text>
</a>
</g>
</g>
<!-- Node5&#45;&gt;Node7 -->
<g id="edge6" class="edge">
<title>Node5&#45;&gt;Node7</title>
<path fill="none" stroke="midnightblue" d="M1335.03,-119.85C1309.2,-110.18 1273.03,-96.65 1245.97,-86.52"/>
<polygon fill="midnightblue" stroke="midnightblue" points="1334.13,-123.25 1344.72,-123.48 1336.58,-116.69 1334.13,-123.25"/>
</g>
<!-- Node8&#45;&gt;Node7 -->
<g id="edge9" class="edge">
<title>Node8&#45;&gt;Node7</title>
<path fill="none" stroke="midnightblue" d="M1223.08,-113.82C1219.99,-105.04 1216.33,-94.68 1213.45,-86.52"/>
<polygon fill="midnightblue" stroke="midnightblue" points="1219.86,-115.21 1226.49,-123.48 1226.46,-112.88 1219.86,-115.21"/>
</g>
<!-- Node9 -->
<g id="node9" class="node">
<title>Node9</title>
<g id="a_node9"><a xlink:href="traffic__sign__builder_8cc.html" target="_top" xlink:title=" ">
<polygon fill="white" stroke="black" points="1284.5,-62 1284.5,-81 1408.5,-81 1408.5,-62 1284.5,-62"/>
<text text-anchor="middle" x="1346.5" y="-69" font-family="Helvetica,sans-Serif" font-size="10.00">traffic_sign_builder.cc</text>
</a>
</g>
</g>
<!-- Node8&#45;&gt;Node9 -->
<g id="edge8" class="edge">
<title>Node8&#45;&gt;Node9</title>
<path fill="none" stroke="midnightblue" d="M1255.33,-118.87C1278,-107.33 1310.32,-90.9 1329.77,-81.01"/>
<polygon fill="midnightblue" stroke="midnightblue" points="1253.59,-115.82 1246.26,-123.48 1256.76,-122.06 1253.59,-115.82"/>
</g>
<!-- Node10&#45;&gt;Node2 -->
<g id="edge59" class="edge">
<title>Node10&#45;&gt;Node2</title>
<path fill="none" stroke="midnightblue" d="M1201.33,-232.44C1233.76,-222.26 1280.24,-207.66 1309.37,-198.52"/>
<polygon fill="midnightblue" stroke="midnightblue" points="1200.25,-229.11 1191.75,-235.44 1202.34,-235.79 1200.25,-229.11"/>
</g>
<!-- Node10&#45;&gt;Node5 -->
<g id="edge31" class="edge">
<title>Node10&#45;&gt;Node5</title>
<path fill="none" stroke="midnightblue" d="M1184.41,-229.45C1203.97,-215.52 1234.94,-194.41 1263.5,-179 1290.51,-164.43 1323.22,-150.91 1344.66,-142.57"/>
<polygon fill="midnightblue" stroke="midnightblue" points="1182.35,-226.62 1176.28,-235.3 1186.44,-232.3 1182.35,-226.62"/>
</g>
<!-- Node10&#45;&gt;Node8 -->
<g id="edge32" class="edge">
<title>Node10&#45;&gt;Node8</title>
<path fill="none" stroke="midnightblue" d="M1174.76,-226.64C1188.88,-202.74 1213.76,-160.63 1224.42,-142.59"/>
<polygon fill="midnightblue" stroke="midnightblue" points="1171.67,-224.98 1169.6,-235.37 1177.7,-228.54 1171.67,-224.98"/>
</g>
<!-- Node11 -->
<g id="node11" class="node">
<title>Node11</title>
<g id="a_node11"><a xlink:href="builder__tools_8cc.html" target="_top" xlink:title=" ">
<polygon fill="white" stroke="black" points="883,-62 883,-81 976,-81 976,-62 883,-62"/>
<text text-anchor="middle" x="929.5" y="-69" font-family="Helvetica,sans-Serif" font-size="10.00">builder_tools.cc</text>
</a>
</g>
</g>
<!-- Node10&#45;&gt;Node11 -->
<g id="edge12" class="edge">
<title>Node10&#45;&gt;Node11</title>
<path fill="none" stroke="midnightblue" d="M1111.48,-243.46C977.83,-240.86 632.8,-226.08 562.5,-143 556.76,-136.21 556.59,-129.64 562.5,-123 608.78,-71.05 805.11,-99.75 873.5,-87 882.09,-85.4 891.31,-83.21 899.74,-81.02"/>
<polygon fill="midnightblue" stroke="midnightblue" points="1111.42,-246.96 1121.48,-243.64 1111.55,-239.96 1111.42,-246.96"/>
</g>
<!-- Node12 -->
<g id="node12" class="node">
<title>Node12</title>
<g id="a_node12"><a xlink:href="builder__tools_8h.html" target="_top" xlink:title=" ">
<polygon fill="white" stroke="black" points="1446,-123.5 1446,-142.5 1535,-142.5 1535,-123.5 1446,-123.5"/>
<text text-anchor="middle" x="1490.5" y="-130.5" font-family="Helvetica,sans-Serif" font-size="10.00">builder_tools.h</text>
</a>
</g>
</g>
<!-- Node10&#45;&gt;Node12 -->
<g id="edge13" class="edge">
<title>Node10&#45;&gt;Node12</title>
<path fill="none" stroke="midnightblue" d="M1193.66,-231.25C1213.09,-222.57 1239.06,-210.59 1261.5,-199 1277.42,-190.78 1279.82,-185.54 1296.5,-179 1323.54,-168.4 1398.64,-152.33 1447.07,-142.54"/>
<polygon fill="midnightblue" stroke="midnightblue" points="1192.15,-228.09 1184.43,-235.35 1194.99,-234.49 1192.15,-228.09"/>
</g>
<!-- Node22 -->
<g id="node22" class="node">
<title>Node22</title>
<g id="a_node22"><a xlink:href="determine__tolerance_8cc.html" target="_top" xlink:title=" ">
<polygon fill="white" stroke="black" points="0,-62 0,-81 131,-81 131,-62 0,-62"/>
<text text-anchor="middle" x="65.5" y="-69" font-family="Helvetica,sans-Serif" font-size="10.00">determine_tolerance.cc</text>
</a>
</g>
</g>
<!-- Node10&#45;&gt;Node22 -->
<g id="edge27" class="edge">
<title>Node10&#45;&gt;Node22</title>
<path fill="none" stroke="midnightblue" d="M1111.22,-242.6C904.58,-236.69 163.62,-210.88 85.5,-143 67.45,-127.31 65.12,-96.64 65.16,-81.46"/>
<polygon fill="midnightblue" stroke="midnightblue" points="1111.13,-246.1 1121.23,-242.88 1111.33,-239.1 1111.13,-246.1"/>
</g>
<!-- Node23 -->
<g id="node23" class="node">
<title>Node23</title>
<g id="a_node23"><a xlink:href="road__object__builder_8h.html" target="_top" xlink:title=" ">
<polygon fill="white" stroke="black" points="393.5,-123.5 393.5,-142.5 515.5,-142.5 515.5,-123.5 393.5,-123.5"/>
<text text-anchor="middle" x="454.5" y="-130.5" font-family="Helvetica,sans-Serif" font-size="10.00">road_object_builder.h</text>
</a>
</g>
</g>
<!-- Node10&#45;&gt;Node23 -->
<g id="edge28" class="edge">
<title>Node10&#45;&gt;Node23</title>
<path fill="none" stroke="midnightblue" d="M1110.83,-244.51C977.41,-245.11 634.02,-242.26 529.5,-199 499.57,-186.61 473.15,-157.36 461.23,-142.7"/>
<polygon fill="midnightblue" stroke="midnightblue" points="1111.21,-248.01 1121.19,-244.46 1111.17,-241.01 1111.21,-248.01"/>
</g>
<!-- Node25 -->
<g id="node25" class="node">
<title>Node25</title>
<g id="a_node25"><a xlink:href="db__manager_8h.html" target="_top" xlink:title=" ">
<polygon fill="white" stroke="black" points="939.5,-179.5 939.5,-198.5 1025.5,-198.5 1025.5,-179.5 939.5,-179.5"/>
<text text-anchor="middle" x="982.5" y="-186.5" font-family="Helvetica,sans-Serif" font-size="10.00">db_manager.h</text>
</a>
</g>
</g>
<!-- Node10&#45;&gt;Node25 -->
<g id="edge33" class="edge">
<title>Node10&#45;&gt;Node25</title>
<path fill="none" stroke="midnightblue" d="M1125.97,-232.57C1091.64,-222.38 1042.17,-207.7 1011.2,-198.52"/>
<polygon fill="midnightblue" stroke="midnightblue" points="1125.08,-235.95 1135.66,-235.44 1127.07,-229.24 1125.08,-235.95"/>
</g>
<!-- Node36 -->
<g id="node36" class="node">
<title>Node36</title>
<g id="a_node36"><a xlink:href="road__header_8cc.html" target="_top" xlink:title=" ">
<polygon fill="white" stroke="black" points="1082,-179.5 1082,-198.5 1173,-198.5 1173,-179.5 1082,-179.5"/>
<text text-anchor="middle" x="1127.5" y="-186.5" font-family="Helvetica,sans-Serif" font-size="10.00">road_header.cc</text>
</a>
</g>
</g>
<!-- Node10&#45;&gt;Node36 -->
<g id="edge60" class="edge">
<title>Node10&#45;&gt;Node36</title>
<path fill="none" stroke="midnightblue" d="M1152.55,-226.57C1146.19,-217.27 1138.63,-206.25 1133.5,-198.75"/>
<polygon fill="midnightblue" stroke="midnightblue" points="1149.85,-228.81 1158.39,-235.08 1155.63,-224.86 1149.85,-228.81"/>
</g>
<!-- Node12&#45;&gt;Node6 -->
<g id="edge25" class="edge">
<title>Node12&#45;&gt;Node6</title>
<path fill="none" stroke="midnightblue" d="M1490.19,-113.32C1490,-102.5 1489.78,-89.4 1489.64,-81.01"/>
<polygon fill="midnightblue" stroke="midnightblue" points="1486.69,-113.54 1490.36,-123.48 1493.69,-113.42 1486.69,-113.54"/>
</g>
<!-- Node12&#45;&gt;Node9 -->
<g id="edge26" class="edge">
<title>Node12&#45;&gt;Node9</title>
<path fill="none" stroke="midnightblue" d="M1460.57,-119.63C1432.59,-108.07 1391.56,-91.12 1367.09,-81.01"/>
<polygon fill="midnightblue" stroke="midnightblue" points="1459.29,-122.89 1469.87,-123.48 1461.96,-116.42 1459.29,-122.89"/>
</g>
<!-- Node12&#45;&gt;Node11 -->
<g id="edge14" class="edge">
<title>Node12&#45;&gt;Node11</title>
<path fill="none" stroke="midnightblue" d="M1435.76,-123.03C1234.72,-99.12 1179.97,-120.28 984.5,-87 975.74,-85.51 966.34,-83.27 957.83,-81"/>
<polygon fill="midnightblue" stroke="midnightblue" points="1435.41,-126.51 1445.75,-124.24 1436.25,-119.56 1435.41,-126.51"/>
</g>
<!-- Node13 -->
<g id="node13" class="node">
<title>Node13</title>
<g id="a_node13"><a xlink:href="direction__usage__builder_8cc.html" target="_top" xlink:title=" ">
<polygon fill="white" stroke="black" points="1863.5,-62 1863.5,-81 2009.5,-81 2009.5,-62 1863.5,-62"/>
<text text-anchor="middle" x="1936.5" y="-69" font-family="Helvetica,sans-Serif" font-size="10.00">direction_usage_builder.cc</text>
</a>
</g>
</g>
<!-- Node12&#45;&gt;Node13 -->
<g id="edge15" class="edge">
<title>Node12&#45;&gt;Node13</title>
<path fill="none" stroke="midnightblue" d="M1545.25,-126.13C1616.58,-118.28 1745.12,-103.42 1854.5,-87 1866.22,-85.24 1878.85,-83.12 1890.6,-81.05"/>
<polygon fill="midnightblue" stroke="midnightblue" points="1544.71,-122.67 1535.15,-127.24 1545.47,-129.63 1544.71,-122.67"/>
</g>
<!-- Node14 -->
<g id="node14" class="node">
<title>Node14</title>
<g id="a_node14"><a xlink:href="road__geometry__builder_8h.html" target="_top" xlink:title=" ">
<polygon fill="white" stroke="black" points="994,-62 994,-81 1133,-81 1133,-62 994,-62"/>
<text text-anchor="middle" x="1063.5" y="-69" font-family="Helvetica,sans-Serif" font-size="10.00">road_geometry_builder.h</text>
</a>
</g>
</g>
<!-- Node12&#45;&gt;Node14 -->
<g id="edge16" class="edge">
<title>Node12&#45;&gt;Node14</title>
<path fill="none" stroke="midnightblue" d="M1435.67,-122.94C1304.07,-104.27 1268.86,-106.59 1141.5,-87 1130.2,-85.26 1118.03,-83.13 1106.74,-81.03"/>
<polygon fill="midnightblue" stroke="midnightblue" points="1435.34,-126.43 1445.73,-124.38 1436.33,-119.5 1435.34,-126.43"/>
</g>
<!-- Node16 -->
<g id="node16" class="node">
<title>Node16</title>
<g id="a_node16"><a xlink:href="road__network__builder_8cc.html" target="_top" xlink:title=" ">
<polygon fill="white" stroke="black" points="1482.5,-0.5 1482.5,-19.5 1618.5,-19.5 1618.5,-0.5 1482.5,-0.5"/>
<text text-anchor="middle" x="1550.5" y="-7.5" font-family="Helvetica,sans-Serif" font-size="10.00">road_network_builder.cc</text>
</a>
</g>
</g>
<!-- Node12&#45;&gt;Node16 -->
<g id="edge19" class="edge">
<title>Node12&#45;&gt;Node16</title>
<path fill="none" stroke="midnightblue" d="M1545.42,-131.43C1674.16,-129.52 1986.96,-121.35 2018.5,-87 2027.82,-76.85 2027.76,-66.2 2018.5,-56 1992.15,-27 1742.08,-16.19 1618.69,-12.59"/>
<polygon fill="midnightblue" stroke="midnightblue" points="1545.32,-127.93 1535.37,-131.57 1545.42,-134.93 1545.32,-127.93"/>
</g>
<!-- Node17 -->
<g id="node17" class="node">
<title>Node17</title>
<g id="a_node17"><a xlink:href="road__object__builder_8cc.html" target="_top" xlink:title=" ">
<polygon fill="white" stroke="black" points="669.5,-62 669.5,-81 795.5,-81 795.5,-62 669.5,-62"/>
<text text-anchor="middle" x="732.5" y="-69" font-family="Helvetica,sans-Serif" font-size="10.00">road_object_builder.cc</text>
</a>
</g>
</g>
<!-- Node12&#45;&gt;Node17 -->
<g id="edge20" class="edge">
<title>Node12&#45;&gt;Node17</title>
<path fill="none" stroke="midnightblue" d="M1435.7,-123.05C1155.14,-92.55 1080.28,-122.44 804.5,-87 793.12,-85.54 780.84,-83.31 769.7,-81.04"/>
<polygon fill="midnightblue" stroke="midnightblue" points="1435.44,-126.54 1445.76,-124.16 1436.21,-119.59 1435.44,-126.54"/>
</g>
<!-- Node18 -->
<g id="node18" class="node">
<title>Node18</title>
<g id="a_node18"><a xlink:href="road__rulebook__builder_8cc.html" target="_top" xlink:title=" ">
<polygon fill="white" stroke="black" points="2066,-62 2066,-81 2205,-81 2205,-62 2066,-62"/>
<text text-anchor="middle" x="2135.5" y="-69" font-family="Helvetica,sans-Serif" font-size="10.00">road_rulebook_builder.cc</text>
</a>
</g>
</g>
<!-- Node12&#45;&gt;Node18 -->
<g id="edge21" class="edge">
<title>Node12&#45;&gt;Node18</title>
<path fill="none" stroke="midnightblue" d="M1545.22,-129.27C1645.77,-123.88 1866.59,-110.33 2051.5,-87 2064.27,-85.39 2078.07,-83.2 2090.71,-81.01"/>
<polygon fill="midnightblue" stroke="midnightblue" points="1544.8,-125.78 1535,-129.81 1545.17,-132.77 1544.8,-125.78"/>
</g>
<!-- Node19 -->
<g id="node19" class="node">
<title>Node19</title>
<g id="a_node19"><a xlink:href="road__rulebook__builder__old__rules_8cc.html" target="_top" xlink:title=" ">
<polygon fill="white" stroke="black" points="2223,-56.5 2223,-86.5 2348,-86.5 2348,-56.5 2223,-56.5"/>
<text text-anchor="start" x="2231" y="-74.5" font-family="Helvetica,sans-Serif" font-size="10.00">road_rulebook_builder</text>
<text text-anchor="middle" x="2285.5" y="-63.5" font-family="Helvetica,sans-Serif" font-size="10.00">_old_rules.cc</text>
</a>
</g>
</g>
<!-- Node12&#45;&gt;Node19 -->
<g id="edge22" class="edge">
<title>Node12&#45;&gt;Node19</title>
<path fill="none" stroke="midnightblue" d="M1545.33,-131.2C1666.53,-128.85 1966.12,-119.92 2214.5,-87 2217.24,-86.64 2220.04,-86.23 2222.86,-85.79"/>
<polygon fill="midnightblue" stroke="midnightblue" points="1545.13,-127.7 1535.2,-131.38 1545.26,-134.7 1545.13,-127.7"/>
</g>
<!-- Node20 -->
<g id="node20" class="node">
<title>Node20</title>
<g id="a_node20"><a xlink:href="rule__registry__builder_8cc.html" target="_top" xlink:title=" ">
<polygon fill="white" stroke="black" points="1570,-62 1570,-81 1701,-81 1701,-62 1570,-62"/>
<text text-anchor="middle" x="1635.5" y="-69" font-family="Helvetica,sans-Serif" font-size="10.00">rule_registry_builder.cc</text>
</a>
</g>
</g>
<!-- Node12&#45;&gt;Node20 -->
<g id="edge23" class="edge">
<title>Node12&#45;&gt;Node20</title>
<path fill="none" stroke="midnightblue" d="M1520.64,-119.63C1548.81,-108.07 1590.12,-91.12 1614.76,-81.01"/>
<polygon fill="midnightblue" stroke="midnightblue" points="1519.2,-116.44 1511.27,-123.48 1521.86,-122.92 1519.2,-116.44"/>
</g>
<!-- Node21 -->
<g id="node21" class="node">
<title>Node21</title>
<g id="a_node21"><a xlink:href="speed__limit__builder_8cc.html" target="_top" xlink:title=" ">
<polygon fill="white" stroke="black" points="1719.5,-62 1719.5,-81 1845.5,-81 1845.5,-62 1719.5,-62"/>
<text text-anchor="middle" x="1782.5" y="-69" font-family="Helvetica,sans-Serif" font-size="10.00">speed_limit_builder.cc</text>
</a>
</g>
</g>
<!-- Node12&#45;&gt;Node21 -->
<g id="edge24" class="edge">
<title>Node12&#45;&gt;Node21</title>
<path fill="none" stroke="midnightblue" d="M1542.16,-121.47C1598.75,-109.94 1688.41,-91.67 1740.74,-81.01"/>
<polygon fill="midnightblue" stroke="midnightblue" points="1541.44,-118.05 1532.34,-123.48 1542.83,-124.91 1541.44,-118.05"/>
</g>
<!-- Node15 -->
<g id="node15" class="node">
<title>Node15</title>
<g id="a_node15"><a xlink:href="road__geometry__builder_8cc.html" target="_top" xlink:title=" ">
<polygon fill="white" stroke="black" points="126,-0.5 126,-19.5 269,-19.5 269,-0.5 126,-0.5"/>
<text text-anchor="middle" x="197.5" y="-7.5" font-family="Helvetica,sans-Serif" font-size="10.00">road_geometry_builder.cc</text>
</a>
</g>
</g>
<!-- Node14&#45;&gt;Node15 -->
<g id="edge17" class="edge">
<title>Node14&#45;&gt;Node15</title>
<path fill="none" stroke="midnightblue" d="M1012.37,-60.16C1003.13,-58.56 993.55,-57.08 984.5,-56 722.08,-24.54 407.7,-14.94 269.11,-12.12"/>
<polygon fill="midnightblue" stroke="midnightblue" points="1011.78,-63.61 1022.24,-61.93 1013.01,-56.72 1011.78,-63.61"/>
</g>
<!-- Node14&#45;&gt;Node16 -->
<g id="edge18" class="edge">
<title>Node14&#45;&gt;Node16</title>
<path fill="none" stroke="midnightblue" d="M1116.4,-60.12C1124.78,-58.63 1133.36,-57.2 1141.5,-56 1260.93,-38.35 1400.92,-24.39 1482.28,-16.95"/>
<polygon fill="midnightblue" stroke="midnightblue" points="1115.53,-56.72 1106.32,-61.95 1116.78,-63.61 1115.53,-56.72"/>
</g>
<!-- Node23&#45;&gt;Node17 -->
<g id="edge30" class="edge">
<title>Node23&#45;&gt;Node17</title>
<path fill="none" stroke="midnightblue" d="M504.35,-121.33C558.26,-109.79 643.13,-91.63 692.74,-81.01"/>
<polygon fill="midnightblue" stroke="midnightblue" points="503.38,-117.96 494.33,-123.48 504.84,-124.8 503.38,-117.96"/>
</g>
<!-- Node24 -->
<g id="node24" class="node">
<title>Node24</title>
<g id="a_node24"><a xlink:href="road__object__book__builder_8cc.html" target="_top" xlink:title=" ">
<polygon fill="white" stroke="black" points="375,-62 375,-81 530,-81 530,-62 375,-62"/>
<text text-anchor="middle" x="452.5" y="-69" font-family="Helvetica,sans-Serif" font-size="10.00">road_object_book_builder.cc</text>
</a>
</g>
</g>
<!-- Node23&#45;&gt;Node24 -->
<g id="edge29" class="edge">
<title>Node23&#45;&gt;Node24</title>
<path fill="none" stroke="midnightblue" d="M453.87,-113.32C453.51,-102.5 453.07,-89.4 452.79,-81.01"/>
<polygon fill="midnightblue" stroke="midnightblue" points="450.38,-113.6 454.21,-123.48 457.38,-113.36 450.38,-113.6"/>
</g>
<!-- Node25&#45;&gt;Node5 -->
<g id="edge55" class="edge">
<title>Node25&#45;&gt;Node5</title>
<path fill="none" stroke="midnightblue" d="M1035.61,-180.55C1106.59,-170.6 1232.09,-152.99 1306.75,-142.52"/>
<polygon fill="midnightblue" stroke="midnightblue" points="1034.96,-177.11 1025.54,-181.96 1035.93,-184.04 1034.96,-177.11"/>
</g>
<!-- Node25&#45;&gt;Node8 -->
<g id="edge56" class="edge">
<title>Node25&#45;&gt;Node8</title>
<path fill="none" stroke="midnightblue" d="M1031.53,-177.28C1078.2,-167.08 1147.53,-151.92 1190.55,-142.52"/>
<polygon fill="midnightblue" stroke="midnightblue" points="1030.66,-173.89 1021.64,-179.44 1032.15,-180.73 1030.66,-173.89"/>
</g>
<!-- Node25&#45;&gt;Node11 -->
<g id="edge46" class="edge">
<title>Node25&#45;&gt;Node11</title>
<path fill="none" stroke="midnightblue" d="M1030.37,-176.57C1064.62,-166.01 1101.71,-148.13 1083.5,-123 1076.2,-112.92 1005.37,-92.64 962.36,-81.08"/>
<polygon fill="midnightblue" stroke="midnightblue" points="1028.99,-173.33 1020.36,-179.49 1030.94,-180.05 1028.99,-173.33"/>
</g>
<!-- Node25&#45;&gt;Node12 -->
<g id="edge47" class="edge">
<title>Node25&#45;&gt;Node12</title>
<path fill="none" stroke="midnightblue" d="M1035.53,-182.69C1047.68,-181.47 1060.54,-180.19 1072.5,-179 1234.27,-162.91 1275.34,-164.37 1436.5,-143 1439.51,-142.6 1442.62,-142.16 1445.75,-141.69"/>
<polygon fill="midnightblue" stroke="midnightblue" points="1035.13,-179.21 1025.53,-183.69 1035.83,-186.17 1035.13,-179.21"/>
</g>
<!-- Node25&#45;&gt;Node14 -->
<g id="edge51" class="edge">
<title>Node25&#45;&gt;Node14</title>
<path fill="none" stroke="midnightblue" d="M1026.92,-176.71C1056.58,-168.18 1091.7,-155.77 1100.5,-143 1114.93,-122.05 1089.5,-94.8 1074.06,-81.12"/>
<polygon fill="midnightblue" stroke="midnightblue" points="1025.8,-173.39 1017.11,-179.46 1027.69,-180.13 1025.8,-173.39"/>
</g>
<!-- Node26 -->
<g id="node26" class="node">
<title>Node26</title>
<g id="a_node26"><a xlink:href="xodr__query_8cc.html" target="_top" xlink:title=" ">
<polygon fill="white" stroke="black" points="572,-123.5 572,-142.5 655,-142.5 655,-123.5 572,-123.5"/>
<text text-anchor="middle" x="613.5" y="-130.5" font-family="Helvetica,sans-Serif" font-size="10.00">xodr_query.cc</text>
</a>
</g>
</g>
<!-- Node25&#45;&gt;Node26 -->
<g id="edge34" class="edge">
<title>Node25&#45;&gt;Node26</title>
<path fill="none" stroke="midnightblue" d="M929.18,-181.11C865.76,-172.76 756.75,-157.96 663.5,-143 660.8,-142.57 658.02,-142.11 655.22,-141.63"/>
<polygon fill="midnightblue" stroke="midnightblue" points="928.97,-184.61 939.34,-182.44 929.88,-177.67 928.97,-184.61"/>
</g>
<!-- Node27 -->
<g id="node27" class="node">
<title>Node27</title>
<g id="a_node27"><a xlink:href="xodr__validate_8cc.html" target="_top" xlink:title=" ">
<polygon fill="white" stroke="black" points="673,-123.5 673,-142.5 770,-142.5 770,-123.5 673,-123.5"/>
<text text-anchor="middle" x="721.5" y="-130.5" font-family="Helvetica,sans-Serif" font-size="10.00">xodr_validate.cc</text>
</a>
</g>
</g>
<!-- Node25&#45;&gt;Node27 -->
<g id="edge35" class="edge">
<title>Node25&#45;&gt;Node27</title>
<path fill="none" stroke="midnightblue" d="M931.31,-177.41C881.99,-167.2 808.31,-151.96 762.66,-142.52"/>
<polygon fill="midnightblue" stroke="midnightblue" points="930.64,-180.84 941.14,-179.44 932.06,-173.99 930.64,-180.84"/>
</g>
<!-- Node28 -->
<g id="node28" class="node">
<title>Node28</title>
<g id="a_node28"><a xlink:href="road__geometry_8h.html" target="_top" xlink:title=" ">
<polygon fill="white" stroke="black" points="788.5,-123.5 788.5,-142.5 886.5,-142.5 886.5,-123.5 788.5,-123.5"/>
<text text-anchor="middle" x="837.5" y="-130.5" font-family="Helvetica,sans-Serif" font-size="10.00">road_geometry.h</text>
</a>
</g>
</g>
<!-- Node25&#45;&gt;Node28 -->
<g id="edge36" class="edge">
<title>Node25&#45;&gt;Node28</title>
<path fill="none" stroke="midnightblue" d="M950.02,-175.91C922.76,-165.75 884.51,-151.51 860.37,-142.52"/>
<polygon fill="midnightblue" stroke="midnightblue" points="948.93,-179.23 959.52,-179.44 951.37,-172.67 948.93,-179.23"/>
</g>
<!-- Node31 -->
<g id="node31" class="node">
<title>Node31</title>
<g id="a_node31"><a xlink:href="determine__tolerance_8h.html" target="_top" xlink:title=" ">
<polygon fill="white" stroke="black" points="95,-123.5 95,-142.5 222,-142.5 222,-123.5 95,-123.5"/>
<text text-anchor="middle" x="158.5" y="-130.5" font-family="Helvetica,sans-Serif" font-size="10.00">determine_tolerance.h</text>
</a>
</g>
</g>
<!-- Node25&#45;&gt;Node31 -->
<g id="edge48" class="edge">
<title>Node25&#45;&gt;Node31</title>
<path fill="none" stroke="midnightblue" d="M928.96,-185.95C805.72,-180.97 492.49,-166.88 231.5,-143 228.45,-142.72 225.33,-142.41 222.18,-142.09"/>
<polygon fill="midnightblue" stroke="midnightblue" points="929.12,-189.46 939.25,-186.36 929.4,-182.46 929.12,-189.46"/>
</g>
<!-- Node32 -->
<g id="node32" class="node">
<title>Node32</title>
<g id="a_node32"><a xlink:href="simplify__geometries_8h.html" target="_top" xlink:title=" ">
<polygon fill="white" stroke="black" points="240.5,-123.5 240.5,-142.5 366.5,-142.5 366.5,-123.5 240.5,-123.5"/>
<text text-anchor="middle" x="303.5" y="-130.5" font-family="Helvetica,sans-Serif" font-size="10.00">simplify_geometries.h</text>
</a>
</g>
</g>
<!-- Node25&#45;&gt;Node32 -->
<g id="edge52" class="edge">
<title>Node25&#45;&gt;Node32</title>
<path fill="none" stroke="midnightblue" d="M929.32,-184.64C824.83,-177.88 585.4,-161.71 384.5,-143 378.72,-142.46 372.72,-141.87 366.71,-141.24"/>
<polygon fill="midnightblue" stroke="midnightblue" points="929.1,-188.13 939.31,-185.28 929.55,-181.14 929.1,-188.13"/>
</g>
<!-- Node34 -->
<g id="node34" class="node">
<title>Node34</title>
<g id="a_node34"><a xlink:href="loader_8cc.html" target="_top" xlink:title=" ">
<polygon fill="white" stroke="black" points="905,-123.5 905,-142.5 966,-142.5 966,-123.5 905,-123.5"/>
<text text-anchor="middle" x="935.5" y="-130.5" font-family="Helvetica,sans-Serif" font-size="10.00">loader.cc</text>
</a>
</g>
</g>
<!-- Node25&#45;&gt;Node34 -->
<g id="edge57" class="edge">
<title>Node25&#45;&gt;Node34</title>
<path fill="none" stroke="midnightblue" d="M968.08,-171.43C959.84,-161.97 949.85,-150.48 943.12,-142.75"/>
<polygon fill="midnightblue" stroke="midnightblue" points="965.53,-173.84 974.74,-179.08 970.81,-169.24 965.53,-173.84"/>
</g>
<!-- Node35 -->
<g id="node35" class="node">
<title>Node35</title>
<g id="a_node35"><a xlink:href="db__manager_8cc.html" target="_top" xlink:title=" ">
<polygon fill="white" stroke="black" points="984,-123.5 984,-142.5 1075,-142.5 1075,-123.5 984,-123.5"/>
<text text-anchor="middle" x="1029.5" y="-130.5" font-family="Helvetica,sans-Serif" font-size="10.00">db_manager.cc</text>
</a>
</g>
</g>
<!-- Node25&#45;&gt;Node35 -->
<g id="edge58" class="edge">
<title>Node25&#45;&gt;Node35</title>
<path fill="none" stroke="midnightblue" d="M996.92,-171.43C1005.16,-161.97 1015.15,-150.48 1021.88,-142.75"/>
<polygon fill="midnightblue" stroke="midnightblue" points="994.19,-169.24 990.26,-179.08 999.47,-173.84 994.19,-169.24"/>
</g>
<!-- Node28&#45;&gt;Node6 -->
<g id="edge43" class="edge">
<title>Node28&#45;&gt;Node6</title>
<path fill="none" stroke="midnightblue" d="M896.6,-122.98C1128.35,-97.73 1190.29,-117.58 1417.5,-87 1428.75,-85.49 1440.88,-83.27 1451.91,-81.03"/>
<polygon fill="midnightblue" stroke="midnightblue" points="896.06,-119.52 886.51,-124.1 896.83,-126.47 896.06,-119.52"/>
</g>
<!-- Node28&#45;&gt;Node7 -->
<g id="edge45" class="edge">
<title>Node28&#45;&gt;Node7</title>
<path fill="none" stroke="midnightblue" d="M896.71,-122.84C1006.47,-106.52 1035.96,-106.12 1141.5,-87 1144.54,-86.45 1147.66,-85.86 1150.81,-85.25"/>
<polygon fill="midnightblue" stroke="midnightblue" points="895.91,-119.42 886.54,-124.36 896.95,-126.34 895.91,-119.42"/>
</g>
<!-- Node28&#45;&gt;Node9 -->
<g id="edge44" class="edge">
<title>Node28&#45;&gt;Node9</title>
<path fill="none" stroke="midnightblue" d="M896.48,-122.95C1065.11,-102.38 1110.3,-111.26 1274.5,-87 1285.35,-85.4 1297.03,-83.23 1307.77,-81.07"/>
<polygon fill="midnightblue" stroke="midnightblue" points="896.01,-119.48 886.52,-124.18 896.87,-126.43 896.01,-119.48"/>
</g>
<!-- Node28&#45;&gt;Node11 -->
<g id="edge39" class="edge">
<title>Node28&#45;&gt;Node11</title>
<path fill="none" stroke="midnightblue" d="M859.26,-117.93C876.99,-106.46 901.46,-90.63 916.34,-81.01"/>
<polygon fill="midnightblue" stroke="midnightblue" points="857.18,-115.11 850.68,-123.48 860.98,-120.98 857.18,-115.11"/>
</g>
<!-- Node28&#45;&gt;Node14 -->
<g id="edge40" class="edge">
<title>Node28&#45;&gt;Node14</title>
<path fill="none" stroke="midnightblue" d="M879.68,-120.9C923.57,-109.34 991.35,-91.5 1031.18,-81.01"/>
<polygon fill="midnightblue" stroke="midnightblue" points="878.66,-117.54 869.88,-123.48 880.44,-124.31 878.66,-117.54"/>
</g>
<!-- Node28&#45;&gt;Node17 -->
<g id="edge42" class="edge">
<title>Node28&#45;&gt;Node17</title>
<path fill="none" stroke="midnightblue" d="M813.5,-118.4C793.2,-106.9 764.74,-90.77 747.52,-81.01"/>
<polygon fill="midnightblue" stroke="midnightblue" points="812.03,-121.59 822.46,-123.48 815.48,-115.5 812.03,-121.59"/>
</g>
<!-- Node28&#45;&gt;Node24 -->
<g id="edge41" class="edge">
<title>Node28&#45;&gt;Node24</title>
<path fill="none" stroke="midnightblue" d="M778.24,-122.97C670.21,-106.69 641.9,-103.47 538.5,-87 526.69,-85.12 513.98,-83.02 502.04,-81.01"/>
<polygon fill="midnightblue" stroke="midnightblue" points="777.84,-126.44 788.25,-124.48 778.88,-119.52 777.84,-126.44"/>
</g>
<!-- Node29 -->
<g id="node29" class="node">
<title>Node29</title>
<g id="a_node29"><a xlink:href="base_2lane_8cc.html" target="_top" xlink:title=" ">
<polygon fill="white" stroke="black" points="814,-62 814,-81 865,-81 865,-62 814,-62"/>
<text text-anchor="middle" x="839.5" y="-69" font-family="Helvetica,sans-Serif" font-size="10.00">lane.cc</text>
</a>
</g>
</g>
<!-- Node28&#45;&gt;Node29 -->
<g id="edge37" class="edge">
<title>Node28&#45;&gt;Node29</title>
<path fill="none" stroke="midnightblue" d="M838.13,-113.32C838.49,-102.5 838.93,-89.4 839.21,-81.01"/>
<polygon fill="midnightblue" stroke="midnightblue" points="834.62,-113.36 837.79,-123.48 841.62,-113.6 834.62,-113.36"/>
</g>
<!-- Node30 -->
<g id="node30" class="node">
<title>Node30</title>
<g id="a_node30"><a xlink:href="road__geometry_8cc.html" target="_top" xlink:title=" ">
<polygon fill="white" stroke="black" points="548,-62 548,-81 651,-81 651,-62 548,-62"/>
<text text-anchor="middle" x="599.5" y="-69" font-family="Helvetica,sans-Serif" font-size="10.00">road_geometry.cc</text>
</a>
</g>
</g>
<!-- Node28&#45;&gt;Node30 -->
<g id="edge38" class="edge">
<title>Node28&#45;&gt;Node30</title>
<path fill="none" stroke="midnightblue" d="M793.66,-121.04C747.46,-109.49 675.66,-91.54 633.54,-81.01"/>
<polygon fill="midnightblue" stroke="midnightblue" points="792.85,-124.45 803.4,-123.48 794.55,-117.65 792.85,-124.45"/>
</g>
<!-- Node31&#45;&gt;Node15 -->
<g id="edge50" class="edge">
<title>Node31&#45;&gt;Node15</title>
<path fill="none" stroke="midnightblue" d="M164.4,-113.7C172.94,-87.2 188.42,-39.17 194.72,-19.62"/>
<polygon fill="midnightblue" stroke="midnightblue" points="161.04,-112.71 161.3,-123.3 167.7,-114.85 161.04,-112.71"/>
</g>
<!-- Node31&#45;&gt;Node22 -->
<g id="edge49" class="edge">
<title>Node31&#45;&gt;Node22</title>
<path fill="none" stroke="midnightblue" d="M136.51,-117.93C118.58,-106.46 93.84,-90.63 78.8,-81.01"/>
<polygon fill="midnightblue" stroke="midnightblue" points="134.87,-121.03 145.18,-123.48 138.64,-115.14 134.87,-121.03"/>
</g>
<!-- Node32&#45;&gt;Node15 -->
<g id="edge53" class="edge">
<title>Node32&#45;&gt;Node15</title>
<path fill="none" stroke="midnightblue" d="M263.48,-119.64C246.72,-112.58 228.41,-102.05 216.5,-87 200.47,-66.73 197.77,-34.69 197.44,-19.51"/>
<polygon fill="midnightblue" stroke="midnightblue" points="262.52,-123.03 273.11,-123.41 265.07,-116.51 262.52,-123.03"/>
</g>
<!-- Node33 -->
<g id="node33" class="node">
<title>Node33</title>
<g id="a_node33"><a xlink:href="simplify__geometries_8cc.html" target="_top" xlink:title=" ">
<polygon fill="white" stroke="black" points="226,-62 226,-81 357,-81 357,-62 226,-62"/>
<text text-anchor="middle" x="291.5" y="-69" font-family="Helvetica,sans-Serif" font-size="10.00">simplify_geometries.cc</text>
</a>
</g>
</g>
<!-- Node32&#45;&gt;Node33 -->
<g id="edge54" class="edge">
<title>Node32&#45;&gt;Node33</title>
<path fill="none" stroke="midnightblue" d="M299.8,-113.66C297.61,-102.77 294.93,-89.49 293.22,-81.01"/>
<polygon fill="midnightblue" stroke="midnightblue" points="296.37,-114.36 301.78,-123.48 303.23,-112.98 296.37,-114.36"/>
</g>
<!-- Node38 -->
<g id="node38" class="node">
<title>Node38</title>
<g id="a_node38"><a xlink:href="board_8cc.html" target="_top" xlink:title=" ">
<polygon fill="white" stroke="black" points="1491.5,-179.5 1491.5,-198.5 1549.5,-198.5 1549.5,-179.5 1491.5,-179.5"/>
<text text-anchor="middle" x="1520.5" y="-186.5" font-family="Helvetica,sans-Serif" font-size="10.00">board.cc</text>
</a>
</g>
</g>
<!-- Node37&#45;&gt;Node38 -->
<g id="edge62" class="edge">
<title>Node37&#45;&gt;Node38</title>
<path fill="none" stroke="midnightblue" d="M1523.1,-225.1C1522.44,-216.14 1521.67,-205.86 1521.15,-198.75"/>
<polygon fill="midnightblue" stroke="midnightblue" points="1519.61,-225.37 1523.84,-235.08 1526.59,-224.85 1519.61,-225.37"/>
</g>
<!-- Node39 -->
<g id="node39" class="node">
<title>Node39</title>
<g id="a_node39"><a xlink:href="sign_8cc.html" target="_top" xlink:title=" ">
<polygon fill="white" stroke="black" points="1423.5,-179.5 1423.5,-198.5 1473.5,-198.5 1473.5,-179.5 1423.5,-179.5"/>
<text text-anchor="middle" x="1448.5" y="-186.5" font-family="Helvetica,sans-Serif" font-size="10.00">sign.cc</text>
</a>
</g>
</g>
<!-- Node37&#45;&gt;Node39 -->
<g id="edge63" class="edge">
<title>Node37&#45;&gt;Node39</title>
<path fill="none" stroke="midnightblue" d="M1503.92,-229.38C1490.19,-219.62 1472.57,-207.11 1460.93,-198.83"/>
<polygon fill="midnightblue" stroke="midnightblue" points="1502.11,-232.38 1512.29,-235.32 1506.16,-226.68 1502.11,-232.38"/>
</g>
<!-- Node37&#45;&gt;Node40 -->
<g id="edge64" class="edge">
<title>Node37&#45;&gt;Node40</title>
<path fill="none" stroke="midnightblue" d="M1547.79,-230.18C1564.54,-220.24 1586.6,-207.15 1600.92,-198.65"/>
<polygon fill="midnightblue" stroke="midnightblue" points="1545.93,-227.21 1539.12,-235.32 1549.51,-233.23 1545.93,-227.21"/>
</g>
</g>
</svg>
        <g id="navigator" transform="translate(0 0)" fill="#404254">
                <rect fill="#f2f5e9" fill-opacity="0.5" stroke="#606060" stroke-width=".5" x="0" y="0" width="60" height="60"/>
                <use id="zoomplus" xlink:href="#zoomPlus" x="17" y="9" onmousedown="handleZoom(evt,'in')"/>
                <use id="zoomminus" xlink:href="#zoomMin" x="42" y="9" onmousedown="handleZoom(evt,'out')"/>
                <use id="reset" xlink:href="#resetDef" x="30" y="36" onmousedown="handleReset()"/>
                <g id="arrowUp" xlink:href="#dirArrow" transform="translate(30 24)" onmousedown="handlePan(0,-1)">
                  <use xlink:href="#rim" fill="#404040">
                        <set attributeName="fill" to="#808080" begin="arrowUp.mouseover" end="arrowUp.mouseout"/>
                  </use>
                  <path fill="none" stroke="white" stroke-width="1.5" d="M0,-3.0v7 M-2.5,-0.5L0,-3.0L2.5,-0.5"/>
                </g>
                <g id="arrowRight" xlink:href="#dirArrow" transform="rotate(90) translate(36 -43)" onmousedown="handlePan(1,0)">
                  <use xlink:href="#rim" fill="#404040">
                        <set attributeName="fill" to="#808080" begin="arrowRight.mouseover" end="arrowRight.mouseout"/>
                  </use>
                  <path fill="none" stroke="white" stroke-width="1.5" d="M0,-3.0v7 M-2.5,-0.5L0,-3.0L2.5,-0.5"/>
                </g>
                <g id="arrowDown" xlink:href="#dirArrow" transform="rotate(180) translate(-30 -48)" onmousedown="handlePan(0,1)">
                  <use xlink:href="#rim" fill="#404040">
                        <set attributeName="fill" to="#808080" begin="arrowDown.mouseover" end="arrowDown.mouseout"/>
                  </use>
                  <path fill="none" stroke="white" stroke-width="1.5" d="M0,-3.0v7 M-2.5,-0.5L0,-3.0L2.5,-0.5"/>
                </g>
                <g id="arrowLeft" xlink:href="#dirArrow" transform="rotate(270) translate(-36 17)" onmousedown="handlePan(-1,0)">
                  <use xlink:href="#rim" fill="#404040">
                        <set attributeName="fill" to="#808080" begin="arrowLeft.mouseover" end="arrowLeft.mouseout"/>
                  </use>
                  <path fill="none" stroke="white" stroke-width="1.5" d="M0,-3.0v7 M-2.5,-0.5L0,-3.0L2.5,-0.5"/>
                </g>
        </g>
        <svg viewBox="0 0 15 15" width="100%" height="30px" preserveAspectRatio="xMaxYMin meet">
         <g id="arrow_out" transform="scale(0.3 0.3)">
          <a xlink:href="semantics_8h__dep__incl_org.svg" target="_base">
           <rect id="button" ry="5" rx="5" y="6" x="6" height="38" width="38"
                fill="#f2f5e9" fill-opacity="0.5" stroke="#606060" stroke-width="1.0"/>
           <path id="arrow"
             d="M 11.500037,31.436501 C 11.940474,20.09759 22.043105,11.32322 32.158766,21.979434 L 37.068811,17.246167 C 37.068811,17.246167 37.088388,32 37.088388,32 L 22.160133,31.978069 C 22.160133,31.978069 26.997745,27.140456 26.997745,27.140456 C 18.528582,18.264221 13.291696,25.230495 11.500037,31.436501 z"
             style="fill:#404040;"/>
          </a>
         </g>
        </svg>
</svg>
