<?xml version="1.0" encoding="UTF-8" standalone="no"?>
<!DOCTYPE svg PUBLIC "-//W3C//DTD SVG 1.1//EN"
 "http://www.w3.org/Graphics/SVG/1.1/DTD/svg11.dtd">
<!-- Generated by graphviz version 2.43.0 (0)
 -->
<!-- Title: semantics.h Pages: 1 -->
<!--zoomable 375 -->
<svg id="main" version="1.1" xmlns="http://www.w3.org/2000/svg" xmlns:xlink="http://www.w3.org/1999/xlink" xml:space="preserve" onload="init(evt)">
<style type="text/css"><![CDATA[
.edge:hover path { stroke: red; }
.edge:hover polygon { stroke: red; fill: red; }
]]></style>
<script type="text/javascript"><![CDATA[
var edges = document.getElementsByTagName('g');
if (edges && edges.length) {
  for (var i=0;i<edges.length;i++) {
    if (edges[i].id.substr(0,4)=='edge') {
      edges[i].setAttribute('class','edge');
    }
  }
}
]]></script>
        <defs>
                <circle id="rim" cx="0" cy="0" r="7"/>
                <circle id="rim2" cx="0" cy="0" r="3.5"/>
                <g id="zoomPlus">
                        <use xlink:href="#rim" fill="#404040">
                                <set attributeName="fill" to="#808080" begin="zoomplus.mouseover" end="zoomplus.mouseout"/>
                        </use>
                        <path d="M-4,0h8M0,-4v8" fill="none" stroke="white" stroke-width="1.5" pointer-events="none"/>
                </g>
                <g id="zoomMin">
                        <use xlink:href="#rim" fill="#404040">
                                <set attributeName="fill" to="#808080" begin="zoomminus.mouseover" end="zoomminus.mouseout"/>
                        </use>
                        <path d="M-4,0h8" fill="none" stroke="white" stroke-width="1.5" pointer-events="none"/>
                </g>
                <g id="dirArrow">
                        <path fill="none" stroke="white" stroke-width="1.5" d="M0,-3.0v7 M-2.5,-0.5L0,-3.0L2.5,-0.5"/>
                </g>
               <g id="resetDef">
                       <use xlink:href="#rim2" fill="#404040">
                               <set attributeName="fill" to="#808080" begin="reset.mouseover" end="reset.mouseout"/>
                       </use>
               </g>
        </defs>

<script type="text/javascript">
var viewWidth = 2522;
var viewHeight = 375;
var sectionId = 'dynsection-1';
</script>
<script xlink:href="svgpan.js"/>
<svg id="graph" class="graph">
<g id="viewport">
<title>semantics.h</title>
<polygon fill="white" stroke="transparent" points="-4,4 -4,-371 2518,-371 2518,4 -4,4"/>
<!-- Node1 -->
<g id="node1" class="node">
<title>Node1</title>
<g id="a_node1"><a xlink:title=" ">
<polygon fill="#bfbfbf" stroke="black" points="2298,-347.5 2298,-366.5 2374,-366.5 2374,-347.5 2298,-347.5"/>
<text text-anchor="middle" x="2336" y="-354.5" font-family="Helvetica,sans-Serif" font-size="10.00">semantics.h</text>
</a>
</g>
</g>
<!-- Node2 -->
<g id="node2" class="node">
<title>Node2</title>
<g id="a_node2"><a xlink:href="xodr_2parser_8cc.html" target="_top" xlink:title=" ">
<polygon fill="white" stroke="black" points="2140.5,-179.5 2140.5,-198.5 2201.5,-198.5 2201.5,-179.5 2140.5,-179.5"/>
<text text-anchor="middle" x="2171" y="-186.5" font-family="Helvetica,sans-Serif" font-size="10.00">parser.cc</text>
</a>
</g>
</g>
<!-- Node1&#45;&gt;Node2 -->
<g id="edge1" class="edge">
<title>Node1&#45;&gt;Node2</title>
<path fill="none" stroke="midnightblue" d="M2322.05,-339.73C2301.42,-315.94 2261.19,-270.63 2224,-235 2210.05,-221.64 2192.84,-207.4 2181.89,-198.6"/>
<polygon fill="midnightblue" stroke="midnightblue" points="2319.54,-342.17 2328.73,-347.46 2324.84,-337.6 2319.54,-342.17"/>
</g>
<!-- Node3 -->
<g id="node3" class="node">
<title>Node3</title>
<g id="a_node3"><a xlink:href="semantics_8cc.html" target="_top" xlink:title=" ">
<polygon fill="white" stroke="black" points="2434,-291.5 2434,-310.5 2514,-310.5 2514,-291.5 2434,-291.5"/>
<text text-anchor="middle" x="2474" y="-298.5" font-family="Helvetica,sans-Serif" font-size="10.00">semantics.cc</text>
</a>
</g>
</g>
<!-- Node1&#45;&gt;Node3 -->
<g id="edge2" class="edge">
<title>Node1&#45;&gt;Node3</title>
<path fill="none" stroke="midnightblue" d="M2367.25,-343.77C2393.17,-333.63 2429.36,-319.47 2452.24,-310.52"/>
<polygon fill="midnightblue" stroke="midnightblue" points="2365.9,-340.54 2357.87,-347.44 2368.45,-347.06 2365.9,-340.54"/>
</g>
<!-- Node4 -->
<g id="node4" class="node">
<title>Node4</title>
<g id="a_node4"><a xlink:href="signal_8h.html" target="_top" xlink:title=" ">
<polygon fill="white" stroke="black" points="2162.5,-291.5 2162.5,-310.5 2217.5,-310.5 2217.5,-291.5 2162.5,-291.5"/>
<text text-anchor="middle" x="2190" y="-298.5" font-family="Helvetica,sans-Serif" font-size="10.00">signal.h</text>
</a>
</g>
</g>
<!-- Node1&#45;&gt;Node4 -->
<g id="edge3" class="edge">
<title>Node1&#45;&gt;Node4</title>
<path fill="none" stroke="midnightblue" d="M2303.3,-343.91C2275.85,-333.75 2237.33,-319.51 2213.03,-310.52"/>
<polygon fill="midnightblue" stroke="midnightblue" points="2302.27,-347.26 2312.87,-347.44 2304.7,-340.69 2302.27,-347.26"/>
</g>
<!-- Node42 -->
<g id="node42" class="node">
<title>Node42</title>
<g id="a_node42"><a xlink:href="signal__parser_8cc.html" target="_top" xlink:title=" ">
<polygon fill="white" stroke="black" points="2364.5,-179.5 2364.5,-198.5 2459.5,-198.5 2459.5,-179.5 2364.5,-179.5"/>
<text text-anchor="middle" x="2412" y="-186.5" font-family="Helvetica,sans-Serif" font-size="10.00">signal_parser.cc</text>
</a>
</g>
</g>
<!-- Node1&#45;&gt;Node42 -->
<g id="edge71" class="edge">
<title>Node1&#45;&gt;Node42</title>
<path fill="none" stroke="midnightblue" d="M2344.31,-337.86C2360.61,-302.25 2396.23,-224.45 2408.08,-198.57"/>
<polygon fill="midnightblue" stroke="midnightblue" points="2341.07,-336.53 2340.09,-347.08 2347.43,-339.44 2341.07,-336.53"/>
</g>
<!-- Node4&#45;&gt;Node2 -->
<g id="edge10" class="edge">
<title>Node4&#45;&gt;Node2</title>
<path fill="none" stroke="midnightblue" d="M2201.15,-282.54C2208.13,-269.33 2214.79,-250.84 2209,-235 2203.59,-220.21 2190.94,-206.93 2181.71,-198.7"/>
<polygon fill="midnightblue" stroke="midnightblue" points="2197.96,-281.07 2195.95,-291.47 2204.01,-284.59 2197.96,-281.07"/>
</g>
<!-- Node5 -->
<g id="node5" class="node">
<title>Node5</title>
<g id="a_node5"><a xlink:href="traffic__light__builder_8h.html" target="_top" xlink:title=" ">
<polygon fill="white" stroke="black" points="1913.5,-123.5 1913.5,-142.5 2034.5,-142.5 2034.5,-123.5 1913.5,-123.5"/>
<text text-anchor="middle" x="1974" y="-130.5" font-family="Helvetica,sans-Serif" font-size="10.00">traffic_light_builder.h</text>
</a>
</g>
</g>
<!-- Node4&#45;&gt;Node5 -->
<g id="edge4" class="edge">
<title>Node4&#45;&gt;Node5</title>
<path fill="none" stroke="midnightblue" d="M2166.25,-286.3C2151.94,-277.77 2133.55,-266.31 2118,-255 2064.65,-216.21 2005.84,-163.3 1983.4,-142.7"/>
<polygon fill="midnightblue" stroke="midnightblue" points="2164.59,-289.39 2174.99,-291.45 2168.15,-283.36 2164.59,-289.39"/>
</g>
<!-- Node8 -->
<g id="node8" class="node">
<title>Node8</title>
<g id="a_node8"><a xlink:href="traffic__sign__builder_8h.html" target="_top" xlink:title=" ">
<polygon fill="white" stroke="black" points="2052.5,-123.5 2052.5,-142.5 2171.5,-142.5 2171.5,-123.5 2052.5,-123.5"/>
<text text-anchor="middle" x="2112" y="-130.5" font-family="Helvetica,sans-Serif" font-size="10.00">traffic_sign_builder.h</text>
</a>
</g>
</g>
<!-- Node4&#45;&gt;Node8 -->
<g id="edge7" class="edge">
<title>Node4&#45;&gt;Node8</title>
<path fill="none" stroke="midnightblue" d="M2164.3,-286.12C2152.61,-278.48 2139.69,-267.91 2132,-255 2109.87,-217.87 2110.26,-163.54 2111.37,-142.64"/>
<polygon fill="midnightblue" stroke="midnightblue" points="2162.54,-289.15 2172.9,-291.38 2166.2,-283.18 2162.54,-289.15"/>
</g>
<!-- Node10 -->
<g id="node10" class="node">
<title>Node10</title>
<g id="a_node10"><a xlink:href="road__header_8h.html" target="_top" xlink:title=" ">
<polygon fill="white" stroke="black" points="1518,-235.5 1518,-254.5 1604,-254.5 1604,-235.5 1518,-235.5"/>
<text text-anchor="middle" x="1561" y="-242.5" font-family="Helvetica,sans-Serif" font-size="10.00">road_header.h</text>
</a>
</g>
</g>
<!-- Node4&#45;&gt;Node10 -->
<g id="edge11" class="edge">
<title>Node4&#45;&gt;Node10</title>
<path fill="none" stroke="midnightblue" d="M2152.16,-296.75C2041.88,-287.28 1721.21,-259.75 1604.3,-249.72"/>
<polygon fill="midnightblue" stroke="midnightblue" points="2151.9,-300.24 2162.16,-297.61 2152.5,-293.27 2151.9,-300.24"/>
</g>
<!-- Node39 -->
<g id="node39" class="node">
<title>Node39</title>
<g id="a_node39"><a xlink:href="sign_8h.html" target="_top" xlink:title=" ">
<polygon fill="white" stroke="black" points="2294,-235.5 2294,-254.5 2340,-254.5 2340,-235.5 2294,-235.5"/>
<text text-anchor="middle" x="2317" y="-242.5" font-family="Helvetica,sans-Serif" font-size="10.00">sign.h</text>
</a>
</g>
</g>
<!-- Node4&#45;&gt;Node39 -->
<g id="edge65" class="edge">
<title>Node4&#45;&gt;Node39</title>
<path fill="none" stroke="midnightblue" d="M2219.39,-287.5C2243.2,-277.38 2276.11,-263.39 2296.97,-254.52"/>
<polygon fill="midnightblue" stroke="midnightblue" points="2217.96,-284.31 2210.12,-291.44 2220.7,-290.75 2217.96,-284.31"/>
</g>
<!-- Node4&#45;&gt;Node42 -->
<g id="edge70" class="edge">
<title>Node4&#45;&gt;Node42</title>
<path fill="none" stroke="midnightblue" d="M2227.51,-295.06C2261.2,-289.35 2311.05,-277.66 2349,-255 2374.1,-240.01 2395.98,-212.49 2406.07,-198.56"/>
<polygon fill="midnightblue" stroke="midnightblue" points="2226.92,-291.61 2217.6,-296.64 2228.03,-298.52 2226.92,-291.61"/>
</g>
<!-- Node43 -->
<g id="node43" class="node">
<title>Node43</title>
<g id="a_node43"><a xlink:href="signal_8cc.html" target="_top" xlink:title=" ">
<polygon fill="white" stroke="black" points="2140.5,-235.5 2140.5,-254.5 2199.5,-254.5 2199.5,-235.5 2140.5,-235.5"/>
<text text-anchor="middle" x="2170" y="-242.5" font-family="Helvetica,sans-Serif" font-size="10.00">signal.cc</text>
</a>
</g>
</g>
<!-- Node4&#45;&gt;Node43 -->
<g id="edge69" class="edge">
<title>Node4&#45;&gt;Node43</title>
<path fill="none" stroke="midnightblue" d="M2183.22,-281.69C2179.85,-272.59 2175.93,-262.01 2173.24,-254.75"/>
<polygon fill="midnightblue" stroke="midnightblue" points="2179.94,-282.92 2186.7,-291.08 2186.51,-280.49 2179.94,-282.92"/>
</g>
<!-- Node6 -->
<g id="node6" class="node">
<title>Node6</title>
<g id="a_node6"><a xlink:href="traffic__light__builder_8cc.html" target="_top" xlink:title=" ">
<polygon fill="white" stroke="black" points="1537.5,-62 1537.5,-81 1662.5,-81 1662.5,-62 1537.5,-62"/>
<text text-anchor="middle" x="1600" y="-69" font-family="Helvetica,sans-Serif" font-size="10.00">traffic_light_builder.cc</text>
</a>
</g>
</g>
<!-- Node5&#45;&gt;Node6 -->
<g id="edge5" class="edge">
<title>Node5&#45;&gt;Node6</title>
<path fill="none" stroke="midnightblue" d="M1903.49,-122.63C1841.97,-114.19 1750.38,-100.99 1671,-87 1660.84,-85.21 1649.9,-83.08 1639.73,-81.01"/>
<polygon fill="midnightblue" stroke="midnightblue" points="1903.1,-126.11 1913.48,-123.99 1904.05,-119.17 1903.1,-126.11"/>
</g>
<!-- Node7 -->
<g id="node7" class="node">
<title>Node7</title>
<g id="a_node7"><a xlink:href="traffic__signal__books__builder_8cc.html" target="_top" xlink:title=" ">
<polygon fill="white" stroke="black" points="2201.5,-56.5 2201.5,-86.5 2316.5,-86.5 2316.5,-56.5 2201.5,-56.5"/>
<text text-anchor="start" x="2209.5" y="-74.5" font-family="Helvetica,sans-Serif" font-size="10.00">traffic_signal_books</text>
<text text-anchor="middle" x="2259" y="-63.5" font-family="Helvetica,sans-Serif" font-size="10.00">_builder.cc</text>
</a>
</g>
</g>
<!-- Node5&#45;&gt;Node7 -->
<g id="edge6" class="edge">
<title>Node5&#45;&gt;Node7</title>
<path fill="none" stroke="midnightblue" d="M2024.7,-121.42C2074.28,-111.06 2149.68,-95.32 2201.48,-84.51"/>
<polygon fill="midnightblue" stroke="midnightblue" points="2023.91,-118.01 2014.83,-123.48 2025.34,-124.86 2023.91,-118.01"/>
</g>
<!-- Node8&#45;&gt;Node7 -->
<g id="edge9" class="edge">
<title>Node8&#45;&gt;Node7</title>
<path fill="none" stroke="midnightblue" d="M2142.34,-119.72C2166.2,-110.06 2199.45,-96.6 2224.36,-86.52"/>
<polygon fill="midnightblue" stroke="midnightblue" points="2141.02,-116.48 2133.06,-123.48 2143.64,-122.97 2141.02,-116.48"/>
</g>
<!-- Node9 -->
<g id="node9" class="node">
<title>Node9</title>
<g id="a_node9"><a xlink:href="traffic__sign__builder_8cc.html" target="_top" xlink:title=" ">
<polygon fill="white" stroke="black" points="1871,-62 1871,-81 1995,-81 1995,-62 1871,-62"/>
<text text-anchor="middle" x="1933" y="-69" font-family="Helvetica,sans-Serif" font-size="10.00">traffic_sign_builder.cc</text>
</a>
</g>
</g>
<!-- Node8&#45;&gt;Node9 -->
<g id="edge8" class="edge">
<title>Node8&#45;&gt;Node9</title>
<path fill="none" stroke="midnightblue" d="M2076.6,-120.23C2041.8,-108.67 1989.55,-91.3 1958.6,-81.01"/>
<polygon fill="midnightblue" stroke="midnightblue" points="2075.76,-123.64 2086.35,-123.48 2077.97,-117 2075.76,-123.64"/>
</g>
<!-- Node10&#45;&gt;Node2 -->
<g id="edge63" class="edge">
<title>Node10&#45;&gt;Node2</title>
<path fill="none" stroke="midnightblue" d="M1614.3,-239.85C1709.47,-232.36 1914.89,-215.77 2088,-199 2105.31,-197.32 2124.63,-195.24 2140.27,-193.5"/>
<polygon fill="midnightblue" stroke="midnightblue" points="1613.76,-236.38 1604.07,-240.66 1614.31,-243.36 1613.76,-236.38"/>
</g>
<!-- Node10&#45;&gt;Node5 -->
<g id="edge34" class="edge">
<title>Node10&#45;&gt;Node5</title>
<path fill="none" stroke="midnightblue" d="M1602.87,-232.85C1685.52,-210.84 1868.02,-162.23 1941.96,-142.53"/>
<polygon fill="midnightblue" stroke="midnightblue" points="1601.83,-229.5 1593.06,-235.46 1603.63,-236.27 1601.83,-229.5"/>
</g>
<!-- Node10&#45;&gt;Node8 -->
<g id="edge35" class="edge">
<title>Node10&#45;&gt;Node8</title>
<path fill="none" stroke="midnightblue" d="M1613.86,-233.45C1722.65,-211.73 1969.7,-162.41 2069.25,-142.53"/>
<polygon fill="midnightblue" stroke="midnightblue" points="1612.9,-230.07 1603.78,-235.46 1614.27,-236.93 1612.9,-230.07"/>
</g>
<!-- Node11 -->
<g id="node11" class="node">
<title>Node11</title>
<g id="a_node11"><a xlink:href="builder__tools_8cc.html" target="_top" xlink:title=" ">
<polygon fill="white" stroke="black" points="951.5,-62 951.5,-81 1044.5,-81 1044.5,-62 951.5,-62"/>
<text text-anchor="middle" x="998" y="-69" font-family="Helvetica,sans-Serif" font-size="10.00">builder_tools.cc</text>
</a>
</g>
</g>
<!-- Node10&#45;&gt;Node11 -->
<g id="edge12" class="edge">
<title>Node10&#45;&gt;Node11</title>
<path fill="none" stroke="midnightblue" d="M1507.59,-240.11C1388.03,-230.44 1103.59,-201.72 1030,-143 1010.25,-127.24 1002.25,-96.61 999.39,-81.44"/>
<polygon fill="midnightblue" stroke="midnightblue" points="1507.37,-243.61 1517.61,-240.91 1507.92,-236.63 1507.37,-243.61"/>
</g>
<!-- Node12 -->
<g id="node12" class="node">
<title>Node12</title>
<g id="a_node12"><a xlink:href="builder__tools_8h.html" target="_top" xlink:title=" ">
<polygon fill="white" stroke="black" points="852.5,-123.5 852.5,-142.5 941.5,-142.5 941.5,-123.5 852.5,-123.5"/>
<text text-anchor="middle" x="897" y="-130.5" font-family="Helvetica,sans-Serif" font-size="10.00">builder_tools.h</text>
</a>
</g>
</g>
<!-- Node10&#45;&gt;Node12 -->
<g id="edge13" class="edge">
<title>Node10&#45;&gt;Node12</title>
<path fill="none" stroke="midnightblue" d="M1507.68,-242.01C1391.35,-237.25 1118.08,-223.75 1029,-199 1016.97,-195.66 946.33,-159.51 913.62,-142.62"/>
<polygon fill="midnightblue" stroke="midnightblue" points="1507.64,-245.51 1517.77,-242.41 1507.92,-238.51 1507.64,-245.51"/>
</g>
<!-- Node23 -->
<g id="node23" class="node">
<title>Node23</title>
<g id="a_node23"><a xlink:href="determine__tolerance_8cc.html" target="_top" xlink:title=" ">
<polygon fill="white" stroke="black" points="2373.5,-62 2373.5,-81 2504.5,-81 2504.5,-62 2373.5,-62"/>
<text text-anchor="middle" x="2439" y="-69" font-family="Helvetica,sans-Serif" font-size="10.00">determine_tolerance.cc</text>
</a>
</g>
</g>
<!-- Node10&#45;&gt;Node23 -->
<g id="edge28" class="edge">
<title>Node10&#45;&gt;Node23</title>
<path fill="none" stroke="midnightblue" d="M1614.33,-238.28C1776.86,-220.68 2259.06,-167.02 2326,-143 2367.35,-128.16 2409.57,-96.51 2428.59,-81.18"/>
<polygon fill="midnightblue" stroke="midnightblue" points="1613.66,-234.84 1604.09,-239.39 1614.41,-241.8 1613.66,-234.84"/>
</g>
<!-- Node24 -->
<g id="node24" class="node">
<title>Node24</title>
<g id="a_node24"><a xlink:href="road__marking__builder_8h.html" target="_top" xlink:title=" ">
<polygon fill="white" stroke="black" points="735,-179.5 735,-198.5 867,-198.5 867,-179.5 735,-179.5"/>
<text text-anchor="middle" x="801" y="-186.5" font-family="Helvetica,sans-Serif" font-size="10.00">road_marking_builder.h</text>
</a>
</g>
</g>
<!-- Node10&#45;&gt;Node24 -->
<g id="edge29" class="edge">
<title>Node10&#45;&gt;Node24</title>
<path fill="none" stroke="midnightblue" d="M1507.32,-241.46C1391.74,-235.77 1110.76,-220.78 876,-199 873.13,-198.73 870.19,-198.45 867.23,-198.14"/>
<polygon fill="midnightblue" stroke="midnightblue" points="1507.5,-244.97 1517.66,-241.96 1507.84,-237.98 1507.5,-244.97"/>
</g>
<!-- Node25 -->
<g id="node25" class="node">
<title>Node25</title>
<g id="a_node25"><a xlink:href="road__object__builder_8h.html" target="_top" xlink:title=" ">
<polygon fill="white" stroke="black" points="1069,-123.5 1069,-142.5 1191,-142.5 1191,-123.5 1069,-123.5"/>
<text text-anchor="middle" x="1130" y="-130.5" font-family="Helvetica,sans-Serif" font-size="10.00">road_object_builder.h</text>
</a>
</g>
</g>
<!-- Node10&#45;&gt;Node25 -->
<g id="edge31" class="edge">
<title>Node10&#45;&gt;Node25</title>
<path fill="none" stroke="midnightblue" d="M1517.83,-232.98C1431.83,-211.03 1240.76,-162.27 1163.44,-142.53"/>
<polygon fill="midnightblue" stroke="midnightblue" points="1516.98,-236.38 1527.54,-235.46 1518.71,-229.6 1516.98,-236.38"/>
</g>
<!-- Node27 -->
<g id="node27" class="node">
<title>Node27</title>
<g id="a_node27"><a xlink:href="db__manager_8h.html" target="_top" xlink:title=" ">
<polygon fill="white" stroke="black" points="1518,-179.5 1518,-198.5 1604,-198.5 1604,-179.5 1518,-179.5"/>
<text text-anchor="middle" x="1561" y="-186.5" font-family="Helvetica,sans-Serif" font-size="10.00">db_manager.h</text>
</a>
</g>
</g>
<!-- Node10&#45;&gt;Node27 -->
<g id="edge36" class="edge">
<title>Node10&#45;&gt;Node27</title>
<path fill="none" stroke="midnightblue" d="M1561,-224.8C1561,-215.91 1561,-205.78 1561,-198.75"/>
<polygon fill="midnightblue" stroke="midnightblue" points="1557.5,-225.08 1561,-235.08 1564.5,-225.08 1557.5,-225.08"/>
</g>
<!-- Node38 -->
<g id="node38" class="node">
<title>Node38</title>
<g id="a_node38"><a xlink:href="road__header_8cc.html" target="_top" xlink:title=" ">
<polygon fill="white" stroke="black" points="885.5,-179.5 885.5,-198.5 976.5,-198.5 976.5,-179.5 885.5,-179.5"/>
<text text-anchor="middle" x="931" y="-186.5" font-family="Helvetica,sans-Serif" font-size="10.00">road_header.cc</text>
</a>
</g>
</g>
<!-- Node10&#45;&gt;Node38 -->
<g id="edge64" class="edge">
<title>Node10&#45;&gt;Node38</title>
<path fill="none" stroke="midnightblue" d="M1507.75,-241.05C1406.77,-235.17 1180.55,-220.67 991,-199 986.4,-198.47 981.6,-197.86 976.82,-197.21"/>
<polygon fill="midnightblue" stroke="midnightblue" points="1507.81,-244.56 1518,-241.64 1508.22,-237.57 1507.81,-244.56"/>
</g>
<!-- Node12&#45;&gt;Node6 -->
<g id="edge26" class="edge">
<title>Node12&#45;&gt;Node6</title>
<path fill="none" stroke="midnightblue" d="M952.25,-128.97C1084.69,-121.55 1417.41,-102.02 1528,-87 1539.25,-85.47 1551.37,-83.26 1562.41,-81.01"/>
<polygon fill="midnightblue" stroke="midnightblue" points="951.73,-125.49 941.94,-129.54 952.12,-132.48 951.73,-125.49"/>
</g>
<!-- Node12&#45;&gt;Node9 -->
<g id="edge27" class="edge">
<title>Node12&#45;&gt;Node9</title>
<path fill="none" stroke="midnightblue" d="M951.97,-128.82C983.57,-127.03 1024.01,-124.8 1060,-123 1415.91,-105.18 1507.28,-130.31 1861,-87 1872.52,-85.59 1884.94,-83.35 1896.18,-81.05"/>
<polygon fill="midnightblue" stroke="midnightblue" points="951.4,-125.35 941.62,-129.41 951.8,-132.34 951.4,-125.35"/>
</g>
<!-- Node12&#45;&gt;Node11 -->
<g id="edge14" class="edge">
<title>Node12&#45;&gt;Node11</title>
<path fill="none" stroke="midnightblue" d="M920.35,-118.24C939.86,-106.75 967.07,-90.72 983.56,-81.01"/>
<polygon fill="midnightblue" stroke="midnightblue" points="918.31,-115.38 911.47,-123.48 921.86,-121.41 918.31,-115.38"/>
</g>
<!-- Node13 -->
<g id="node13" class="node">
<title>Node13</title>
<g id="a_node13"><a xlink:href="direction__usage__builder_8cc.html" target="_top" xlink:title=" ">
<polygon fill="white" stroke="black" points="0,-62 0,-81 146,-81 146,-62 0,-62"/>
<text text-anchor="middle" x="73" y="-69" font-family="Helvetica,sans-Serif" font-size="10.00">direction_usage_builder.cc</text>
</a>
</g>
</g>
<!-- Node12&#45;&gt;Node13 -->
<g id="edge15" class="edge">
<title>Node12&#45;&gt;Node13</title>
<path fill="none" stroke="midnightblue" d="M841.77,-130.81C718.29,-127.68 410.6,-117.25 155,-87 142.22,-85.49 128.42,-83.27 115.85,-81.03"/>
<polygon fill="midnightblue" stroke="midnightblue" points="842.01,-134.32 852.09,-131.07 842.18,-127.32 842.01,-134.32"/>
</g>
<!-- Node14 -->
<g id="node14" class="node">
<title>Node14</title>
<g id="a_node14"><a xlink:href="road__geometry__builder_8h.html" target="_top" xlink:title=" ">
<polygon fill="white" stroke="black" points="1207.5,-62 1207.5,-81 1346.5,-81 1346.5,-62 1207.5,-62"/>
<text text-anchor="middle" x="1277" y="-69" font-family="Helvetica,sans-Serif" font-size="10.00">road_geometry_builder.h</text>
</a>
</g>
</g>
<!-- Node12&#45;&gt;Node14 -->
<g id="edge16" class="edge">
<title>Node12&#45;&gt;Node14</title>
<path fill="none" stroke="midnightblue" d="M951.77,-124.37C1012.16,-115.82 1112.15,-101.29 1198,-87 1209,-85.17 1220.85,-83.07 1231.93,-81.04"/>
<polygon fill="midnightblue" stroke="midnightblue" points="951.11,-120.93 941.7,-125.79 952.09,-127.86 951.11,-120.93"/>
</g>
<!-- Node16 -->
<g id="node16" class="node">
<title>Node16</title>
<g id="a_node16"><a xlink:href="road__network__builder_8cc.html" target="_top" xlink:title=" ">
<polygon fill="white" stroke="black" points="955,-0.5 955,-19.5 1091,-19.5 1091,-0.5 955,-0.5"/>
<text text-anchor="middle" x="1023" y="-7.5" font-family="Helvetica,sans-Serif" font-size="10.00">road_network_builder.cc</text>
</a>
</g>
</g>
<!-- Node12&#45;&gt;Node16 -->
<g id="edge20" class="edge">
<title>Node12&#45;&gt;Node16</title>
<path fill="none" stroke="midnightblue" d="M842.61,-123.11C821.59,-116.73 799.61,-105.78 787,-87 779.32,-75.56 778.22,-66.62 787,-56 808,-30.61 892.98,-19.42 954.96,-14.57"/>
<polygon fill="midnightblue" stroke="midnightblue" points="841.91,-126.55 852.48,-125.81 843.76,-119.8 841.91,-126.55"/>
</g>
<!-- Node17 -->
<g id="node17" class="node">
<title>Node17</title>
<g id="a_node17"><a xlink:href="road__marking__builder_8cc.html" target="_top" xlink:title=" ">
<polygon fill="white" stroke="black" points="796.5,-62 796.5,-81 933.5,-81 933.5,-62 796.5,-62"/>
<text text-anchor="middle" x="865" y="-69" font-family="Helvetica,sans-Serif" font-size="10.00">road_marking_builder.cc</text>
</a>
</g>
</g>
<!-- Node12&#45;&gt;Node17 -->
<g id="edge19" class="edge">
<title>Node12&#45;&gt;Node17</title>
<path fill="none" stroke="midnightblue" d="M887.5,-114.33C881.58,-103.33 874.23,-89.66 869.58,-81.01"/>
<polygon fill="midnightblue" stroke="midnightblue" points="884.6,-116.33 892.42,-123.48 890.76,-113.01 884.6,-116.33"/>
</g>
<!-- Node18 -->
<g id="node18" class="node">
<title>Node18</title>
<g id="a_node18"><a xlink:href="road__object__builder_8cc.html" target="_top" xlink:title=" ">
<polygon fill="white" stroke="black" points="1063,-62 1063,-81 1189,-81 1189,-62 1063,-62"/>
<text text-anchor="middle" x="1126" y="-69" font-family="Helvetica,sans-Serif" font-size="10.00">road_object_builder.cc</text>
</a>
</g>
</g>
<!-- Node12&#45;&gt;Node18 -->
<g id="edge21" class="edge">
<title>Node12&#45;&gt;Node18</title>
<path fill="none" stroke="midnightblue" d="M939.74,-120.9C984.21,-109.34 1052.89,-91.5 1093.25,-81.01"/>
<polygon fill="midnightblue" stroke="midnightblue" points="938.61,-117.57 929.81,-123.48 940.37,-124.35 938.61,-117.57"/>
</g>
<!-- Node19 -->
<g id="node19" class="node">
<title>Node19</title>
<g id="a_node19"><a xlink:href="road__rulebook__builder_8cc.html" target="_top" xlink:title=" ">
<polygon fill="white" stroke="black" points="164.5,-62 164.5,-81 303.5,-81 303.5,-62 164.5,-62"/>
<text text-anchor="middle" x="234" y="-69" font-family="Helvetica,sans-Serif" font-size="10.00">road_rulebook_builder.cc</text>
</a>
</g>
</g>
<!-- Node12&#45;&gt;Node19 -->
<g id="edge22" class="edge">
<title>Node12&#45;&gt;Node19</title>
<path fill="none" stroke="midnightblue" d="M842.2,-129.74C738.39,-125.04 506.07,-112.43 312,-87 299.98,-85.43 287.01,-83.22 275.16,-81"/>
<polygon fill="midnightblue" stroke="midnightblue" points="842.29,-133.25 852.43,-130.2 842.6,-126.26 842.29,-133.25"/>
</g>
<!-- Node20 -->
<g id="node20" class="node">
<title>Node20</title>
<g id="a_node20"><a xlink:href="road__rulebook__builder__old__rules_8cc.html" target="_top" xlink:title=" ">
<polygon fill="white" stroke="black" points="321.5,-56.5 321.5,-86.5 446.5,-86.5 446.5,-56.5 321.5,-56.5"/>
<text text-anchor="start" x="329.5" y="-74.5" font-family="Helvetica,sans-Serif" font-size="10.00">road_rulebook_builder</text>
<text text-anchor="middle" x="384" y="-63.5" font-family="Helvetica,sans-Serif" font-size="10.00">_old_rules.cc</text>
</a>
</g>
</g>
<!-- Node12&#45;&gt;Node20 -->
<g id="edge23" class="edge">
<title>Node12&#45;&gt;Node20</title>
<path fill="none" stroke="midnightblue" d="M842.22,-128.19C758.47,-121.98 593.71,-108.17 455,-87 452.26,-86.58 449.47,-86.13 446.66,-85.65"/>
<polygon fill="midnightblue" stroke="midnightblue" points="842.04,-131.69 852.27,-128.93 842.55,-124.71 842.04,-131.69"/>
</g>
<!-- Node21 -->
<g id="node21" class="node">
<title>Node21</title>
<g id="a_node21"><a xlink:href="rule__registry__builder_8cc.html" target="_top" xlink:title=" ">
<polygon fill="white" stroke="black" points="464.5,-62 464.5,-81 595.5,-81 595.5,-62 464.5,-62"/>
<text text-anchor="middle" x="530" y="-69" font-family="Helvetica,sans-Serif" font-size="10.00">rule_registry_builder.cc</text>
</a>
</g>
</g>
<!-- Node12&#45;&gt;Node21 -->
<g id="edge24" class="edge">
<title>Node12&#45;&gt;Node21</title>
<path fill="none" stroke="midnightblue" d="M842.22,-124.19C783.47,-115.67 687.48,-101.32 605,-87 594.55,-85.18 583.3,-83.09 572.78,-81.06"/>
<polygon fill="midnightblue" stroke="midnightblue" points="841.99,-127.7 852.39,-125.66 842.99,-120.77 841.99,-127.7"/>
</g>
<!-- Node22 -->
<g id="node22" class="node">
<title>Node22</title>
<g id="a_node22"><a xlink:href="speed__limit__builder_8cc.html" target="_top" xlink:title=" ">
<polygon fill="white" stroke="black" points="614,-62 614,-81 740,-81 740,-62 614,-62"/>
<text text-anchor="middle" x="677" y="-69" font-family="Helvetica,sans-Serif" font-size="10.00">speed_limit_builder.cc</text>
</a>
</g>
</g>
<!-- Node12&#45;&gt;Node22 -->
<g id="edge25" class="edge">
<title>Node12&#45;&gt;Node22</title>
<path fill="none" stroke="midnightblue" d="M855.67,-120.82C812.94,-109.26 747.15,-91.47 708.46,-81.01"/>
<polygon fill="midnightblue" stroke="midnightblue" points="854.91,-124.24 865.48,-123.48 856.74,-117.49 854.91,-124.24"/>
</g>
<!-- Node15 -->
<g id="node15" class="node">
<title>Node15</title>
<g id="a_node15"><a xlink:href="road__geometry__builder_8cc.html" target="_top" xlink:title=" ">
<polygon fill="white" stroke="black" points="2101.5,-0.5 2101.5,-19.5 2244.5,-19.5 2244.5,-0.5 2101.5,-0.5"/>
<text text-anchor="middle" x="2173" y="-7.5" font-family="Helvetica,sans-Serif" font-size="10.00">road_geometry_builder.cc</text>
</a>
</g>
</g>
<!-- Node14&#45;&gt;Node15 -->
<g id="edge17" class="edge">
<title>Node14&#45;&gt;Node15</title>
<path fill="none" stroke="midnightblue" d="M1327.46,-60.14C1336.59,-58.54 1346.06,-57.07 1355,-56 1629.49,-23.08 1958.73,-14.21 2101.34,-11.84"/>
<polygon fill="midnightblue" stroke="midnightblue" points="1326.54,-56.75 1317.33,-61.98 1327.8,-63.63 1326.54,-56.75"/>
</g>
<!-- Node14&#45;&gt;Node16 -->
<g id="edge18" class="edge">
<title>Node14&#45;&gt;Node16</title>
<path fill="none" stroke="midnightblue" d="M1230.84,-59.69C1181.55,-48.14 1104.47,-30.08 1059.32,-19.51"/>
<polygon fill="midnightblue" stroke="midnightblue" points="1230.07,-63.1 1240.61,-61.98 1231.67,-56.29 1230.07,-63.1"/>
</g>
<!-- Node24&#45;&gt;Node17 -->
<g id="edge30" class="edge">
<title>Node24&#45;&gt;Node17</title>
<path fill="none" stroke="midnightblue" d="M810.69,-170.51C824.57,-145.46 849.61,-100.27 860.13,-81.28"/>
<polygon fill="midnightblue" stroke="midnightblue" points="807.6,-168.88 805.81,-179.32 813.72,-172.27 807.6,-168.88"/>
</g>
<!-- Node25&#45;&gt;Node18 -->
<g id="edge33" class="edge">
<title>Node25&#45;&gt;Node18</title>
<path fill="none" stroke="midnightblue" d="M1128.74,-113.32C1128.02,-102.5 1127.14,-89.4 1126.57,-81.01"/>
<polygon fill="midnightblue" stroke="midnightblue" points="1125.26,-113.73 1129.43,-123.48 1132.25,-113.26 1125.26,-113.73"/>
</g>
<!-- Node26 -->
<g id="node26" class="node">
<title>Node26</title>
<g id="a_node26"><a xlink:href="road__object__book__builder_8cc.html" target="_top" xlink:title=" ">
<polygon fill="white" stroke="black" points="1364.5,-62 1364.5,-81 1519.5,-81 1519.5,-62 1364.5,-62"/>
<text text-anchor="middle" x="1442" y="-69" font-family="Helvetica,sans-Serif" font-size="10.00">road_object_book_builder.cc</text>
</a>
</g>
</g>
<!-- Node25&#45;&gt;Node26 -->
<g id="edge32" class="edge">
<title>Node25&#45;&gt;Node26</title>
<path fill="none" stroke="midnightblue" d="M1184.82,-121.55C1245.26,-110.02 1341.35,-91.69 1397.38,-81.01"/>
<polygon fill="midnightblue" stroke="midnightblue" points="1183.87,-118.16 1174.7,-123.48 1185.18,-125.04 1183.87,-118.16"/>
</g>
<!-- Node27&#45;&gt;Node5 -->
<g id="edge59" class="edge">
<title>Node27&#45;&gt;Node5</title>
<path fill="none" stroke="midnightblue" d="M1613.97,-181.07C1690.75,-171.04 1832.61,-152.49 1913.44,-141.92"/>
<polygon fill="midnightblue" stroke="midnightblue" points="1613.49,-177.61 1604.03,-182.37 1614.4,-184.55 1613.49,-177.61"/>
</g>
<!-- Node27&#45;&gt;Node8 -->
<g id="edge60" class="edge">
<title>Node27&#45;&gt;Node8</title>
<path fill="none" stroke="midnightblue" d="M1614.37,-183.66C1703.34,-176.28 1887.54,-160.39 2043,-143 2046,-142.66 2049.07,-142.31 2052.18,-141.94"/>
<polygon fill="midnightblue" stroke="midnightblue" points="1613.94,-180.18 1604.26,-184.5 1614.52,-187.16 1613.94,-180.18"/>
</g>
<!-- Node27&#45;&gt;Node11 -->
<g id="edge50" class="edge">
<title>Node27&#45;&gt;Node11</title>
<path fill="none" stroke="midnightblue" d="M1507.9,-188.14C1395.44,-187.66 1137.22,-182.18 1060,-143 1032.38,-128.99 1011.61,-96.94 1002.73,-81.35"/>
<polygon fill="midnightblue" stroke="midnightblue" points="1507.99,-191.64 1518,-188.17 1508.01,-184.64 1507.99,-191.64"/>
</g>
<!-- Node27&#45;&gt;Node12 -->
<g id="edge51" class="edge">
<title>Node27&#45;&gt;Node12</title>
<path fill="none" stroke="midnightblue" d="M1507.66,-183.66C1380.22,-173.3 1059.87,-147.25 941.7,-137.63"/>
<polygon fill="midnightblue" stroke="midnightblue" points="1507.69,-187.18 1517.94,-184.5 1508.26,-180.2 1507.69,-187.18"/>
</g>
<!-- Node27&#45;&gt;Node14 -->
<g id="edge55" class="edge">
<title>Node27&#45;&gt;Node14</title>
<path fill="none" stroke="midnightblue" d="M1550.29,-170.89C1540,-155.93 1523.09,-134.8 1503,-123 1487.51,-113.9 1383.47,-92.89 1322.09,-81.03"/>
<polygon fill="midnightblue" stroke="midnightblue" points="1547.38,-172.85 1555.8,-179.27 1553.23,-169 1547.38,-172.85"/>
</g>
<!-- Node28 -->
<g id="node28" class="node">
<title>Node28</title>
<g id="a_node28"><a xlink:href="xodr__query_8cc.html" target="_top" xlink:title=" ">
<polygon fill="white" stroke="black" points="1667.5,-123.5 1667.5,-142.5 1750.5,-142.5 1750.5,-123.5 1667.5,-123.5"/>
<text text-anchor="middle" x="1709" y="-130.5" font-family="Helvetica,sans-Serif" font-size="10.00">xodr_query.cc</text>
</a>
</g>
</g>
<!-- Node27&#45;&gt;Node28 -->
<g id="edge37" class="edge">
<title>Node27&#45;&gt;Node28</title>
<path fill="none" stroke="midnightblue" d="M1594.15,-175.91C1621.97,-165.75 1661.02,-151.51 1685.66,-142.52"/>
<polygon fill="midnightblue" stroke="midnightblue" points="1592.65,-172.73 1584.45,-179.44 1595.04,-179.3 1592.65,-172.73"/>
</g>
<!-- Node29 -->
<g id="node29" class="node">
<title>Node29</title>
<g id="a_node29"><a xlink:href="xodr__validate_8cc.html" target="_top" xlink:title=" ">
<polygon fill="white" stroke="black" points="1209.5,-123.5 1209.5,-142.5 1306.5,-142.5 1306.5,-123.5 1209.5,-123.5"/>
<text text-anchor="middle" x="1258" y="-130.5" font-family="Helvetica,sans-Serif" font-size="10.00">xodr_validate.cc</text>
</a>
</g>
</g>
<!-- Node27&#45;&gt;Node29 -->
<g id="edge38" class="edge">
<title>Node27&#45;&gt;Node29</title>
<path fill="none" stroke="midnightblue" d="M1508,-178.55C1450.94,-168.38 1360.96,-152.35 1305.94,-142.54"/>
<polygon fill="midnightblue" stroke="midnightblue" points="1507.45,-182.01 1517.91,-180.32 1508.68,-175.12 1507.45,-182.01"/>
</g>
<!-- Node30 -->
<g id="node30" class="node">
<title>Node30</title>
<g id="a_node30"><a xlink:href="road__geometry_8h.html" target="_top" xlink:title=" ">
<polygon fill="white" stroke="black" points="1551,-123.5 1551,-142.5 1649,-142.5 1649,-123.5 1551,-123.5"/>
<text text-anchor="middle" x="1600" y="-130.5" font-family="Helvetica,sans-Serif" font-size="10.00">road_geometry.h</text>
</a>
</g>
</g>
<!-- Node27&#45;&gt;Node30 -->
<g id="edge39" class="edge">
<title>Node27&#45;&gt;Node30</title>
<path fill="none" stroke="midnightblue" d="M1573.38,-170.86C1580.14,-161.5 1588.21,-150.33 1593.68,-142.75"/>
<polygon fill="midnightblue" stroke="midnightblue" points="1570.46,-168.93 1567.44,-179.08 1576.13,-173.03 1570.46,-168.93"/>
</g>
<!-- Node33 -->
<g id="node33" class="node">
<title>Node33</title>
<g id="a_node33"><a xlink:href="determine__tolerance_8h.html" target="_top" xlink:title=" ">
<polygon fill="white" stroke="black" points="2189.5,-123.5 2189.5,-142.5 2316.5,-142.5 2316.5,-123.5 2189.5,-123.5"/>
<text text-anchor="middle" x="2253" y="-130.5" font-family="Helvetica,sans-Serif" font-size="10.00">determine_tolerance.h</text>
</a>
</g>
</g>
<!-- Node27&#45;&gt;Node33 -->
<g id="edge52" class="edge">
<title>Node27&#45;&gt;Node33</title>
<path fill="none" stroke="midnightblue" d="M1614.55,-185.05C1722.06,-178.93 1971.82,-163.65 2181,-143 2183.76,-142.73 2186.57,-142.44 2189.42,-142.13"/>
<polygon fill="midnightblue" stroke="midnightblue" points="1614.07,-181.57 1604.29,-185.63 1614.47,-188.56 1614.07,-181.57"/>
</g>
<!-- Node34 -->
<g id="node34" class="node">
<title>Node34</title>
<g id="a_node34"><a xlink:href="simplify__geometries_8h.html" target="_top" xlink:title=" ">
<polygon fill="white" stroke="black" points="1769,-123.5 1769,-142.5 1895,-142.5 1895,-123.5 1769,-123.5"/>
<text text-anchor="middle" x="1832" y="-130.5" font-family="Helvetica,sans-Serif" font-size="10.00">simplify_geometries.h</text>
</a>
</g>
</g>
<!-- Node27&#45;&gt;Node34 -->
<g id="edge56" class="edge">
<title>Node27&#45;&gt;Node34</title>
<path fill="none" stroke="midnightblue" d="M1613.83,-177.47C1665.04,-167.27 1741.77,-151.98 1789.26,-142.52"/>
<polygon fill="midnightblue" stroke="midnightblue" points="1613.06,-174.06 1603.94,-179.44 1614.43,-180.92 1613.06,-174.06"/>
</g>
<!-- Node36 -->
<g id="node36" class="node">
<title>Node36</title>
<g id="a_node36"><a xlink:href="loader_8cc.html" target="_top" xlink:title=" ">
<polygon fill="white" stroke="black" points="1324.5,-123.5 1324.5,-142.5 1385.5,-142.5 1385.5,-123.5 1324.5,-123.5"/>
<text text-anchor="middle" x="1355" y="-130.5" font-family="Helvetica,sans-Serif" font-size="10.00">loader.cc</text>
</a>
</g>
</g>
<!-- Node27&#45;&gt;Node36 -->
<g id="edge61" class="edge">
<title>Node27&#45;&gt;Node36</title>
<path fill="none" stroke="midnightblue" d="M1518.48,-176.85C1478.96,-166.5 1421.05,-151.31 1385.81,-142.08"/>
<polygon fill="midnightblue" stroke="midnightblue" points="1517.8,-180.29 1528.36,-179.44 1519.57,-173.52 1517.8,-180.29"/>
</g>
<!-- Node37 -->
<g id="node37" class="node">
<title>Node37</title>
<g id="a_node37"><a xlink:href="db__manager_8cc.html" target="_top" xlink:title=" ">
<polygon fill="white" stroke="black" points="1403.5,-123.5 1403.5,-142.5 1494.5,-142.5 1494.5,-123.5 1403.5,-123.5"/>
<text text-anchor="middle" x="1449" y="-130.5" font-family="Helvetica,sans-Serif" font-size="10.00">db_manager.cc</text>
</a>
</g>
</g>
<!-- Node27&#45;&gt;Node37 -->
<g id="edge62" class="edge">
<title>Node27&#45;&gt;Node37</title>
<path fill="none" stroke="midnightblue" d="M1533.75,-174.86C1512.98,-164.85 1484.98,-151.35 1466.95,-142.65"/>
<polygon fill="midnightblue" stroke="midnightblue" points="1532.48,-178.13 1543.01,-179.32 1535.52,-171.83 1532.48,-178.13"/>
</g>
<!-- Node30&#45;&gt;Node6 -->
<g id="edge47" class="edge">
<title>Node30&#45;&gt;Node6</title>
<path fill="none" stroke="midnightblue" d="M1600,-113.32C1600,-102.5 1600,-89.4 1600,-81.01"/>
<polygon fill="midnightblue" stroke="midnightblue" points="1596.5,-113.48 1600,-123.48 1603.5,-113.48 1596.5,-113.48"/>
</g>
<!-- Node30&#45;&gt;Node7 -->
<g id="edge49" class="edge">
<title>Node30&#45;&gt;Node7</title>
<path fill="none" stroke="midnightblue" d="M1659.27,-122.95C1879.36,-98.39 1937.52,-109.78 2154,-87 2169.37,-85.38 2185.96,-83.27 2201.31,-81.15"/>
<polygon fill="midnightblue" stroke="midnightblue" points="1658.55,-119.51 1649.01,-124.11 1659.34,-126.46 1658.55,-119.51"/>
</g>
<!-- Node30&#45;&gt;Node9 -->
<g id="edge48" class="edge">
<title>Node30&#45;&gt;Node9</title>
<path fill="none" stroke="midnightblue" d="M1659.03,-122.31C1711.99,-113.5 1791.79,-99.93 1861,-87 1870.9,-85.15 1881.55,-83.06 1891.54,-81.06"/>
<polygon fill="midnightblue" stroke="midnightblue" points="1658.43,-118.86 1649.14,-123.95 1659.58,-125.76 1658.43,-118.86"/>
</g>
<!-- Node30&#45;&gt;Node11 -->
<g id="edge42" class="edge">
<title>Node30&#45;&gt;Node11</title>
<path fill="none" stroke="midnightblue" d="M1540.44,-126.36C1528.07,-125.22 1515.11,-124.05 1503,-123 1303.55,-105.75 1251.42,-120.22 1054,-87 1045.19,-85.52 1035.73,-83.31 1027.15,-81.07"/>
<polygon fill="midnightblue" stroke="midnightblue" points="1540.38,-129.87 1550.66,-127.3 1541.03,-122.89 1540.38,-129.87"/>
</g>
<!-- Node30&#45;&gt;Node14 -->
<g id="edge43" class="edge">
<title>Node30&#45;&gt;Node14</title>
<path fill="none" stroke="midnightblue" d="M1543.58,-121.67C1493.92,-112.57 1419.65,-98.95 1355,-87 1344.57,-85.07 1333.36,-82.99 1322.78,-81.03"/>
<polygon fill="midnightblue" stroke="midnightblue" points="1543.02,-125.13 1553.48,-123.49 1544.28,-118.24 1543.02,-125.13"/>
</g>
<!-- Node30&#45;&gt;Node17 -->
<g id="edge44" class="edge">
<title>Node30&#45;&gt;Node17</title>
<path fill="none" stroke="midnightblue" d="M1540.45,-126.21C1528.08,-125.08 1515.12,-123.95 1503,-123 1253.92,-103.46 1189.89,-118.18 942,-87 929.99,-85.49 917.02,-83.28 905.22,-81.03"/>
<polygon fill="midnightblue" stroke="midnightblue" points="1540.4,-129.72 1550.68,-127.15 1541.04,-122.75 1540.4,-129.72"/>
</g>
<!-- Node30&#45;&gt;Node18 -->
<g id="edge46" class="edge">
<title>Node30&#45;&gt;Node18</title>
<path fill="none" stroke="midnightblue" d="M1540.7,-126.01C1445.45,-116.27 1262.52,-97.09 1198,-87 1187.29,-85.33 1175.76,-83.16 1165.12,-81.02"/>
<polygon fill="midnightblue" stroke="midnightblue" points="1540.45,-129.5 1550.75,-127.03 1541.16,-122.53 1540.45,-129.5"/>
</g>
<!-- Node30&#45;&gt;Node26 -->
<g id="edge45" class="edge">
<title>Node30&#45;&gt;Node26</title>
<path fill="none" stroke="midnightblue" d="M1567.96,-119.93C1537.25,-108.37 1491.68,-91.21 1464.6,-81.01"/>
<polygon fill="midnightblue" stroke="midnightblue" points="1566.77,-123.23 1577.36,-123.48 1569.24,-116.68 1566.77,-123.23"/>
</g>
<!-- Node31 -->
<g id="node31" class="node">
<title>Node31</title>
<g id="a_node31"><a xlink:href="base_2lane_8cc.html" target="_top" xlink:title=" ">
<polygon fill="white" stroke="black" points="1801.5,-62 1801.5,-81 1852.5,-81 1852.5,-62 1801.5,-62"/>
<text text-anchor="middle" x="1827" y="-69" font-family="Helvetica,sans-Serif" font-size="10.00">lane.cc</text>
</a>
</g>
</g>
<!-- Node30&#45;&gt;Node31 -->
<g id="edge40" class="edge">
<title>Node30&#45;&gt;Node31</title>
<path fill="none" stroke="midnightblue" d="M1655.59,-121.47C1694.28,-113.53 1746.83,-101.54 1792,-87 1797.26,-85.31 1802.84,-83.16 1807.95,-81.05"/>
<polygon fill="midnightblue" stroke="midnightblue" points="1654.68,-118.08 1645.57,-123.5 1656.06,-124.94 1654.68,-118.08"/>
</g>
<!-- Node32 -->
<g id="node32" class="node">
<title>Node32</title>
<g id="a_node32"><a xlink:href="road__geometry_8cc.html" target="_top" xlink:title=" ">
<polygon fill="white" stroke="black" points="1680.5,-62 1680.5,-81 1783.5,-81 1783.5,-62 1680.5,-62"/>
<text text-anchor="middle" x="1732" y="-69" font-family="Helvetica,sans-Serif" font-size="10.00">road_geometry.cc</text>
</a>
</g>
</g>
<!-- Node30&#45;&gt;Node32 -->
<g id="edge41" class="edge">
<title>Node30&#45;&gt;Node32</title>
<path fill="none" stroke="midnightblue" d="M1628.11,-119.33C1653.74,-107.78 1690.89,-91.03 1713.12,-81.01"/>
<polygon fill="midnightblue" stroke="midnightblue" points="1626.59,-116.17 1618.91,-123.48 1629.47,-122.56 1626.59,-116.17"/>
</g>
<!-- Node33&#45;&gt;Node15 -->
<g id="edge54" class="edge">
<title>Node33&#45;&gt;Node15</title>
<path fill="none" stroke="midnightblue" d="M2288.45,-119.2C2302.78,-112.06 2317.84,-101.61 2326,-87 2332.72,-74.97 2334.25,-67.03 2326,-56 2313.73,-39.6 2264.51,-27.12 2225.16,-19.51"/>
<polygon fill="midnightblue" stroke="midnightblue" points="2286.85,-116.08 2279.21,-123.41 2289.76,-122.44 2286.85,-116.08"/>
</g>
<!-- Node33&#45;&gt;Node23 -->
<g id="edge53" class="edge">
<title>Node33&#45;&gt;Node23</title>
<path fill="none" stroke="midnightblue" d="M2289.32,-120.38C2325.48,-108.82 2380.1,-91.34 2412.4,-81.01"/>
<polygon fill="midnightblue" stroke="midnightblue" points="2288.11,-117.09 2279.65,-123.48 2290.24,-123.76 2288.11,-117.09"/>
</g>
<!-- Node34&#45;&gt;Node15 -->
<g id="edge57" class="edge">
<title>Node34&#45;&gt;Node15</title>
<path fill="none" stroke="midnightblue" d="M1905.2,-122.8C1998.78,-110.88 2149.38,-91.15 2154,-87 2173.42,-69.54 2174.4,-35.52 2173.67,-19.6"/>
<polygon fill="midnightblue" stroke="midnightblue" points="1904.68,-119.33 1895.2,-124.07 1905.57,-126.28 1904.68,-119.33"/>
</g>
<!-- Node35 -->
<g id="node35" class="node">
<title>Node35</title>
<g id="a_node35"><a xlink:href="simplify__geometries_8cc.html" target="_top" xlink:title=" ">
<polygon fill="white" stroke="black" points="2013.5,-62 2013.5,-81 2144.5,-81 2144.5,-62 2013.5,-62"/>
<text text-anchor="middle" x="2079" y="-69" font-family="Helvetica,sans-Serif" font-size="10.00">simplify_geometries.cc</text>
</a>
</g>
</g>
<!-- Node34&#45;&gt;Node35 -->
<g id="edge58" class="edge">
<title>Node34&#45;&gt;Node35</title>
<path fill="none" stroke="midnightblue" d="M1877.19,-121.11C1925.13,-109.57 1999.87,-91.56 2043.68,-81.01"/>
<polygon fill="midnightblue" stroke="midnightblue" points="1876.29,-117.73 1867.39,-123.48 1877.93,-124.54 1876.29,-117.73"/>
</g>
<!-- Node40 -->
<g id="node40" class="node">
<title>Node40</title>
<g id="a_node40"><a xlink:href="board_8cc.html" target="_top" xlink:title=" ">
<polygon fill="white" stroke="black" points="2288,-179.5 2288,-198.5 2346,-198.5 2346,-179.5 2288,-179.5"/>
<text text-anchor="middle" x="2317" y="-186.5" font-family="Helvetica,sans-Serif" font-size="10.00">board.cc</text>
</a>
</g>
</g>
<!-- Node39&#45;&gt;Node40 -->
<g id="edge66" class="edge">
<title>Node39&#45;&gt;Node40</title>
<path fill="none" stroke="midnightblue" d="M2317,-224.8C2317,-215.91 2317,-205.78 2317,-198.75"/>
<polygon fill="midnightblue" stroke="midnightblue" points="2313.5,-225.08 2317,-235.08 2320.5,-225.08 2313.5,-225.08"/>
</g>
<!-- Node41 -->
<g id="node41" class="node">
<title>Node41</title>
<g id="a_node41"><a xlink:href="sign_8cc.html" target="_top" xlink:title=" ">
<polygon fill="white" stroke="black" points="2220,-179.5 2220,-198.5 2270,-198.5 2270,-179.5 2220,-179.5"/>
<text text-anchor="middle" x="2245" y="-186.5" font-family="Helvetica,sans-Serif" font-size="10.00">sign.cc</text>
</a>
</g>
</g>
<!-- Node39&#45;&gt;Node41 -->
<g id="edge67" class="edge">
<title>Node39&#45;&gt;Node41</title>
<path fill="none" stroke="midnightblue" d="M2297.13,-229.1C2284.18,-219.38 2267.7,-207.03 2256.78,-198.83"/>
<polygon fill="midnightblue" stroke="midnightblue" points="2295.33,-232.12 2305.43,-235.32 2299.53,-226.52 2295.33,-232.12"/>
</g>
<!-- Node39&#45;&gt;Node42 -->
<g id="edge68" class="edge">
<title>Node39&#45;&gt;Node42</title>
<path fill="none" stroke="midnightblue" d="M2341.32,-230.18C2358.8,-220.24 2381.83,-207.15 2396.77,-198.65"/>
<polygon fill="midnightblue" stroke="midnightblue" points="2339.23,-227.34 2332.26,-235.32 2342.69,-233.43 2339.23,-227.34"/>
</g>
</g>
</svg>
        <g id="navigator" transform="translate(0 0)" fill="#404254">
                <rect fill="#f2f5e9" fill-opacity="0.5" stroke="#606060" stroke-width=".5" x="0" y="0" width="60" height="60"/>
                <use id="zoomplus" xlink:href="#zoomPlus" x="17" y="9" onmousedown="handleZoom(evt,'in')"/>
                <use id="zoomminus" xlink:href="#zoomMin" x="42" y="9" onmousedown="handleZoom(evt,'out')"/>
                <use id="reset" xlink:href="#resetDef" x="30" y="36" onmousedown="handleReset()"/>
                <g id="arrowUp" xlink:href="#dirArrow" transform="translate(30 24)" onmousedown="handlePan(0,-1)">
                  <use xlink:href="#rim" fill="#404040">
                        <set attributeName="fill" to="#808080" begin="arrowUp.mouseover" end="arrowUp.mouseout"/>
                  </use>
                  <path fill="none" stroke="white" stroke-width="1.5" d="M0,-3.0v7 M-2.5,-0.5L0,-3.0L2.5,-0.5"/>
                </g>
                <g id="arrowRight" xlink:href="#dirArrow" transform="rotate(90) translate(36 -43)" onmousedown="handlePan(1,0)">
                  <use xlink:href="#rim" fill="#404040">
                        <set attributeName="fill" to="#808080" begin="arrowRight.mouseover" end="arrowRight.mouseout"/>
                  </use>
                  <path fill="none" stroke="white" stroke-width="1.5" d="M0,-3.0v7 M-2.5,-0.5L0,-3.0L2.5,-0.5"/>
                </g>
                <g id="arrowDown" xlink:href="#dirArrow" transform="rotate(180) translate(-30 -48)" onmousedown="handlePan(0,1)">
                  <use xlink:href="#rim" fill="#404040">
                        <set attributeName="fill" to="#808080" begin="arrowDown.mouseover" end="arrowDown.mouseout"/>
                  </use>
                  <path fill="none" stroke="white" stroke-width="1.5" d="M0,-3.0v7 M-2.5,-0.5L0,-3.0L2.5,-0.5"/>
                </g>
                <g id="arrowLeft" xlink:href="#dirArrow" transform="rotate(270) translate(-36 17)" onmousedown="handlePan(-1,0)">
                  <use xlink:href="#rim" fill="#404040">
                        <set attributeName="fill" to="#808080" begin="arrowLeft.mouseover" end="arrowLeft.mouseout"/>
                  </use>
                  <path fill="none" stroke="white" stroke-width="1.5" d="M0,-3.0v7 M-2.5,-0.5L0,-3.0L2.5,-0.5"/>
                </g>
        </g>
        <svg viewBox="0 0 15 15" width="100%" height="30px" preserveAspectRatio="xMaxYMin meet">
         <g id="arrow_out" transform="scale(0.3 0.3)">
          <a xlink:href="semantics_8h__dep__incl_org.svg" target="_base">
           <rect id="button" ry="5" rx="5" y="6" x="6" height="38" width="38"
                fill="#f2f5e9" fill-opacity="0.5" stroke="#606060" stroke-width="1.0"/>
           <path id="arrow"
             d="M 11.500037,31.436501 C 11.940474,20.09759 22.043105,11.32322 32.158766,21.979434 L 37.068811,17.246167 C 37.068811,17.246167 37.088388,32 37.088388,32 L 22.160133,31.978069 C 22.160133,31.978069 26.997745,27.140456 26.997745,27.140456 C 18.528582,18.264221 13.291696,25.230495 11.500037,31.436501 z"
             style="fill:#404040;"/>
          </a>
         </g>
        </svg>
</svg>
