<?xml version="1.0" encoding="UTF-8" standalone="no"?>
<!DOCTYPE svg PUBLIC "-//W3C//DTD SVG 1.1//EN"
 "http://www.w3.org/Graphics/SVG/1.1/DTD/svg11.dtd">
<!-- Generated by graphviz version 2.43.0 (0)
 -->
<!-- Title: signal.h Pages: 1 -->
<svg width="1952pt" height="319pt"
 viewBox="0.00 0.00 1952.35 319.00" xmlns="http://www.w3.org/2000/svg" xmlns:xlink="http://www.w3.org/1999/xlink">
<g id="graph0" class="graph" transform="scale(1 1) rotate(0) translate(4 315)">
<title>signal.h</title>
<polygon fill="white" stroke="transparent" points="-4,4 -4,-315 1948.35,-315 1948.35,4 -4,4"/>
<!-- Node1 -->
<g id="node1" class="node">
<title>Node1</title>
<g id="a_node1"><a xlink:title=" ">
<polygon fill="#bfbfbf" stroke="black" points="886.35,-291.5 886.35,-310.5 941.35,-310.5 941.35,-291.5 886.35,-291.5"/>
<text text-anchor="middle" x="913.85" y="-298.5" font-family="Helvetica,sans-Serif" font-size="10.00">signal.h</text>
</a>
</g>
</g>
<!-- Node2 -->
<g id="node2" class="node">
<title>Node2</title>
<g id="a_node2"><a xlink:href="traffic__light__builder_8h.html" target="_top" xlink:title=" ">
<polygon fill="white" stroke="black" points="964.35,-123.5 964.35,-142.5 1085.35,-142.5 1085.35,-123.5 964.35,-123.5"/>
<text text-anchor="middle" x="1024.85" y="-130.5" font-family="Helvetica,sans-Serif" font-size="10.00">traffic_light_builder.h</text>
</a>
</g>
</g>
<!-- Node1&#45;&gt;Node2 -->
<g id="edge1" class="edge">
<title>Node1&#45;&gt;Node2</title>
<path fill="none" stroke="midnightblue" d="M906.45,-281.95C897.35,-256.56 885.54,-209.93 906.85,-179 920.03,-159.86 942.53,-148.86 964.36,-142.53"/>
<polygon fill="midnightblue" stroke="midnightblue" points="903.24,-283.34 910.08,-291.43 909.77,-280.84 903.24,-283.34"/>
</g>
<!-- Node5 -->
<g id="node5" class="node">
<title>Node5</title>
<g id="a_node5"><a xlink:href="xodr_2parser_8cc.html" target="_top" xlink:title=" ">
<polygon fill="white" stroke="black" points="798.35,-179.5 798.35,-198.5 859.35,-198.5 859.35,-179.5 798.35,-179.5"/>
<text text-anchor="middle" x="828.85" y="-186.5" font-family="Helvetica,sans-Serif" font-size="10.00">parser.cc</text>
</a>
</g>
</g>
<!-- Node1&#45;&gt;Node5 -->
<g id="edge4" class="edge">
<title>Node1&#45;&gt;Node5</title>
<path fill="none" stroke="midnightblue" d="M898.54,-283.74C890.87,-275.37 881.6,-264.86 873.85,-255 858.58,-235.58 842.53,-211.33 834.35,-198.65"/>
<polygon fill="midnightblue" stroke="midnightblue" points="896.18,-286.36 905.55,-291.31 901.32,-281.6 896.18,-286.36"/>
</g>
<!-- Node6 -->
<g id="node6" class="node">
<title>Node6</title>
<g id="a_node6"><a xlink:href="road__header_8h.html" target="_top" xlink:title=" ">
<polygon fill="white" stroke="black" points="653.85,-235.5 653.85,-254.5 739.85,-254.5 739.85,-235.5 653.85,-235.5"/>
<text text-anchor="middle" x="696.85" y="-242.5" font-family="Helvetica,sans-Serif" font-size="10.00">road_header.h</text>
</a>
</g>
</g>
<!-- Node1&#45;&gt;Node6 -->
<g id="edge5" class="edge">
<title>Node1&#45;&gt;Node6</title>
<path fill="none" stroke="midnightblue" d="M876.07,-290.6C835.18,-280.42 770.55,-264.34 731.09,-254.52"/>
<polygon fill="midnightblue" stroke="midnightblue" points="875.37,-294.03 885.92,-293.05 877.06,-287.24 875.37,-294.03"/>
</g>
<!-- Node30 -->
<g id="node30" class="node">
<title>Node30</title>
<g id="a_node30"><a xlink:href="sign_8h.html" target="_top" xlink:title=" ">
<polygon fill="white" stroke="black" points="917.85,-235.5 917.85,-254.5 963.85,-254.5 963.85,-235.5 917.85,-235.5"/>
<text text-anchor="middle" x="940.85" y="-242.5" font-family="Helvetica,sans-Serif" font-size="10.00">sign.h</text>
</a>
</g>
</g>
<!-- Node1&#45;&gt;Node30 -->
<g id="edge44" class="edge">
<title>Node1&#45;&gt;Node30</title>
<path fill="none" stroke="midnightblue" d="M922.86,-281.98C927.44,-272.82 932.8,-262.09 936.47,-254.75"/>
<polygon fill="midnightblue" stroke="midnightblue" points="919.65,-280.57 918.3,-291.08 925.91,-283.7 919.65,-280.57"/>
</g>
<!-- Node33 -->
<g id="node33" class="node">
<title>Node33</title>
<g id="a_node33"><a xlink:href="signal__parser_8cc.html" target="_top" xlink:title=" ">
<polygon fill="white" stroke="black" points="1060.35,-179.5 1060.35,-198.5 1155.35,-198.5 1155.35,-179.5 1060.35,-179.5"/>
<text text-anchor="middle" x="1107.85" y="-186.5" font-family="Helvetica,sans-Serif" font-size="10.00">signal_parser.cc</text>
</a>
</g>
</g>
<!-- Node1&#45;&gt;Node33 -->
<g id="edge49" class="edge">
<title>Node1&#45;&gt;Node33</title>
<path fill="none" stroke="midnightblue" d="M933.9,-285.43C953.33,-271.62 983.88,-250.72 1011.85,-235 1037.04,-220.84 1067.44,-207.12 1087.18,-198.63"/>
<polygon fill="midnightblue" stroke="midnightblue" points="931.65,-282.74 925.56,-291.41 935.73,-288.43 931.65,-282.74"/>
</g>
<!-- Node34 -->
<g id="node34" class="node">
<title>Node34</title>
<g id="a_node34"><a xlink:href="signal_8cc.html" target="_top" xlink:title=" ">
<polygon fill="white" stroke="black" points="1020.35,-235.5 1020.35,-254.5 1079.35,-254.5 1079.35,-235.5 1020.35,-235.5"/>
<text text-anchor="middle" x="1049.85" y="-242.5" font-family="Helvetica,sans-Serif" font-size="10.00">signal.cc</text>
</a>
</g>
</g>
<!-- Node1&#45;&gt;Node34 -->
<g id="edge48" class="edge">
<title>Node1&#45;&gt;Node34</title>
<path fill="none" stroke="midnightblue" d="M944.98,-287.64C970.5,-277.5 1005.96,-263.43 1028.4,-254.52"/>
<polygon fill="midnightblue" stroke="midnightblue" points="943.4,-284.5 935.4,-291.44 945.98,-291.01 943.4,-284.5"/>
</g>
<!-- Node3 -->
<g id="node3" class="node">
<title>Node3</title>
<g id="a_node3"><a xlink:href="traffic__light__book__builder_8cc.html" target="_top" xlink:title=" ">
<polygon fill="white" stroke="black" points="745.85,-56.5 745.85,-86.5 847.85,-86.5 847.85,-56.5 745.85,-56.5"/>
<text text-anchor="start" x="753.85" y="-74.5" font-family="Helvetica,sans-Serif" font-size="10.00">traffic_light_book</text>
<text text-anchor="middle" x="796.85" y="-63.5" font-family="Helvetica,sans-Serif" font-size="10.00">_builder.cc</text>
</a>
</g>
</g>
<!-- Node2&#45;&gt;Node3 -->
<g id="edge2" class="edge">
<title>Node2&#45;&gt;Node3</title>
<path fill="none" stroke="midnightblue" d="M982.43,-120.93C944.38,-111 888.47,-96.41 847.97,-85.84"/>
<polygon fill="midnightblue" stroke="midnightblue" points="981.62,-124.34 992.18,-123.48 983.39,-117.56 981.62,-124.34"/>
</g>
<!-- Node4 -->
<g id="node4" class="node">
<title>Node4</title>
<g id="a_node4"><a xlink:href="traffic__light__builder_8cc.html" target="_top" xlink:title=" ">
<polygon fill="white" stroke="black" points="1023.35,-62 1023.35,-81 1148.35,-81 1148.35,-62 1023.35,-62"/>
<text text-anchor="middle" x="1085.85" y="-69" font-family="Helvetica,sans-Serif" font-size="10.00">traffic_light_builder.cc</text>
</a>
</g>
</g>
<!-- Node2&#45;&gt;Node4 -->
<g id="edge3" class="edge">
<title>Node2&#45;&gt;Node4</title>
<path fill="none" stroke="midnightblue" d="M1040.92,-116.32C1052.51,-105.02 1067.71,-90.19 1077.12,-81.01"/>
<polygon fill="midnightblue" stroke="midnightblue" points="1038.3,-113.99 1033.59,-123.48 1043.19,-119 1038.3,-113.99"/>
</g>
<!-- Node6&#45;&gt;Node2 -->
<g id="edge20" class="edge">
<title>Node6&#45;&gt;Node2</title>
<path fill="none" stroke="midnightblue" d="M707.66,-226.63C718.07,-211.49 735.24,-190.25 755.85,-179 773.85,-169.17 890.69,-152.04 964.34,-141.99"/>
<polygon fill="midnightblue" stroke="midnightblue" points="704.65,-224.84 702.09,-235.12 710.5,-228.69 704.65,-224.84"/>
</g>
<!-- Node6&#45;&gt;Node5 -->
<g id="edge42" class="edge">
<title>Node6&#45;&gt;Node5</title>
<path fill="none" stroke="midnightblue" d="M727.07,-231.64C751.84,-221.5 786.25,-207.43 808.03,-198.52"/>
<polygon fill="midnightblue" stroke="midnightblue" points="725.69,-228.42 717.76,-235.44 728.34,-234.9 725.69,-228.42"/>
</g>
<!-- Node7 -->
<g id="node7" class="node">
<title>Node7</title>
<g id="a_node7"><a xlink:href="builder__tools_8cc.html" target="_top" xlink:title=" ">
<polygon fill="white" stroke="black" points="444.35,-62 444.35,-81 537.35,-81 537.35,-62 444.35,-62"/>
<text text-anchor="middle" x="490.85" y="-69" font-family="Helvetica,sans-Serif" font-size="10.00">builder_tools.cc</text>
</a>
</g>
</g>
<!-- Node6&#45;&gt;Node7 -->
<g id="edge6" class="edge">
<title>Node6&#45;&gt;Node7</title>
<path fill="none" stroke="midnightblue" d="M643.85,-236C557.39,-221.74 392.18,-189.06 357.85,-143 331.76,-108.01 396.31,-88.67 444.34,-79.45"/>
<polygon fill="midnightblue" stroke="midnightblue" points="643.3,-239.45 653.73,-237.6 644.42,-232.54 643.3,-239.45"/>
</g>
<!-- Node8 -->
<g id="node8" class="node">
<title>Node8</title>
<g id="a_node8"><a xlink:href="builder__tools_8h.html" target="_top" xlink:title=" ">
<polygon fill="white" stroke="black" points="1260.35,-123.5 1260.35,-142.5 1349.35,-142.5 1349.35,-123.5 1260.35,-123.5"/>
<text text-anchor="middle" x="1304.85" y="-130.5" font-family="Helvetica,sans-Serif" font-size="10.00">builder_tools.h</text>
</a>
</g>
</g>
<!-- Node6&#45;&gt;Node8 -->
<g id="edge7" class="edge">
<title>Node6&#45;&gt;Node8</title>
<path fill="none" stroke="midnightblue" d="M716.8,-229.06C741.38,-210.79 780.87,-181.92 788.85,-179 832.54,-163 1142.95,-143.45 1260.17,-136.56"/>
<polygon fill="midnightblue" stroke="midnightblue" points="714.43,-226.46 708.5,-235.25 718.61,-232.07 714.43,-226.46"/>
</g>
<!-- Node17 -->
<g id="node17" class="node">
<title>Node17</title>
<g id="a_node17"><a xlink:href="determine__tolerance_8cc.html" target="_top" xlink:title=" ">
<polygon fill="white" stroke="black" points="164.35,-62 164.35,-81 295.35,-81 295.35,-62 164.35,-62"/>
<text text-anchor="middle" x="229.85" y="-69" font-family="Helvetica,sans-Serif" font-size="10.00">determine_tolerance.cc</text>
</a>
</g>
</g>
<!-- Node6&#45;&gt;Node17 -->
<g id="edge19" class="edge">
<title>Node6&#45;&gt;Node17</title>
<path fill="none" stroke="midnightblue" d="M643.21,-244.84C532.16,-245.67 281.47,-242.5 209.85,-199 177.9,-179.6 158.66,-157.15 173.85,-123 182.15,-104.34 201.13,-89.67 214.69,-81.05"/>
<polygon fill="midnightblue" stroke="midnightblue" points="643.54,-248.34 653.51,-244.75 643.48,-241.34 643.54,-248.34"/>
</g>
<!-- Node18 -->
<g id="node18" class="node">
<title>Node18</title>
<g id="a_node18"><a xlink:href="db__manager_8h.html" target="_top" xlink:title=" ">
<polygon fill="white" stroke="black" points="617.85,-179.5 617.85,-198.5 703.85,-198.5 703.85,-179.5 617.85,-179.5"/>
<text text-anchor="middle" x="660.85" y="-186.5" font-family="Helvetica,sans-Serif" font-size="10.00">db_manager.h</text>
</a>
</g>
</g>
<!-- Node6&#45;&gt;Node18 -->
<g id="edge21" class="edge">
<title>Node6&#45;&gt;Node18</title>
<path fill="none" stroke="midnightblue" d="M685.22,-226.57C679.03,-217.27 671.68,-206.25 666.68,-198.75"/>
<polygon fill="midnightblue" stroke="midnightblue" points="682.44,-228.7 690.9,-235.08 688.27,-224.82 682.44,-228.7"/>
</g>
<!-- Node29 -->
<g id="node29" class="node">
<title>Node29</title>
<g id="a_node29"><a xlink:href="road__header_8cc.html" target="_top" xlink:title=" ">
<polygon fill="white" stroke="black" points="219.35,-179.5 219.35,-198.5 310.35,-198.5 310.35,-179.5 219.35,-179.5"/>
<text text-anchor="middle" x="264.85" y="-186.5" font-family="Helvetica,sans-Serif" font-size="10.00">road_header.cc</text>
</a>
</g>
</g>
<!-- Node6&#45;&gt;Node29 -->
<g id="edge43" class="edge">
<title>Node6&#45;&gt;Node29</title>
<path fill="none" stroke="midnightblue" d="M643.62,-238.04C571.36,-229.85 438.21,-214.36 324.85,-199 320.15,-198.36 315.25,-197.67 310.36,-196.97"/>
<polygon fill="midnightblue" stroke="midnightblue" points="643.5,-241.55 653.83,-239.2 644.29,-234.6 643.5,-241.55"/>
</g>
<!-- Node8&#45;&gt;Node4 -->
<g id="edge18" class="edge">
<title>Node8&#45;&gt;Node4</title>
<path fill="none" stroke="midnightblue" d="M1263.71,-120.82C1221.16,-109.26 1155.68,-91.47 1117.17,-81.01"/>
<polygon fill="midnightblue" stroke="midnightblue" points="1262.9,-124.23 1273.47,-123.48 1264.74,-117.48 1262.9,-124.23"/>
</g>
<!-- Node8&#45;&gt;Node7 -->
<g id="edge8" class="edge">
<title>Node8&#45;&gt;Node7</title>
<path fill="none" stroke="midnightblue" d="M1249.94,-129.38C1087.24,-121.51 614.72,-98.01 545.85,-87 536.97,-85.58 527.46,-83.34 518.88,-81.04"/>
<polygon fill="midnightblue" stroke="midnightblue" points="1250.04,-132.89 1260.2,-129.87 1250.38,-125.89 1250.04,-132.89"/>
</g>
<!-- Node9 -->
<g id="node9" class="node">
<title>Node9</title>
<g id="a_node9"><a xlink:href="direction__usage__builder_8cc.html" target="_top" xlink:title=" ">
<polygon fill="white" stroke="black" points="1497.85,-62 1497.85,-81 1643.85,-81 1643.85,-62 1497.85,-62"/>
<text text-anchor="middle" x="1570.85" y="-69" font-family="Helvetica,sans-Serif" font-size="10.00">direction_usage_builder.cc</text>
</a>
</g>
</g>
<!-- Node8&#45;&gt;Node9 -->
<g id="edge9" class="edge">
<title>Node8&#45;&gt;Node9</title>
<path fill="none" stroke="midnightblue" d="M1352.87,-121.26C1404.47,-109.72 1485.43,-91.61 1532.81,-81.01"/>
<polygon fill="midnightblue" stroke="midnightblue" points="1351.95,-117.88 1342.96,-123.48 1353.48,-124.71 1351.95,-117.88"/>
</g>
<!-- Node10 -->
<g id="node10" class="node">
<title>Node10</title>
<g id="a_node10"><a xlink:href="road__geometry__builder_8h.html" target="_top" xlink:title=" ">
<polygon fill="white" stroke="black" points="866.35,-62 866.35,-81 1005.35,-81 1005.35,-62 866.35,-62"/>
<text text-anchor="middle" x="935.85" y="-69" font-family="Helvetica,sans-Serif" font-size="10.00">road_geometry_builder.h</text>
</a>
</g>
</g>
<!-- Node8&#45;&gt;Node10 -->
<g id="edge10" class="edge">
<title>Node8&#45;&gt;Node10</title>
<path fill="none" stroke="midnightblue" d="M1249.96,-123.94C1191.59,-115.27 1096.59,-100.84 1014.85,-87 1003.98,-85.16 992.3,-83.08 981.34,-81.07"/>
<polygon fill="midnightblue" stroke="midnightblue" points="1249.67,-127.44 1260.07,-125.44 1250.69,-120.51 1249.67,-127.44"/>
</g>
<!-- Node12 -->
<g id="node12" class="node">
<title>Node12</title>
<g id="a_node12"><a xlink:href="road__network__builder_8cc.html" target="_top" xlink:title=" ">
<polygon fill="white" stroke="black" points="1134.85,-0.5 1134.85,-19.5 1270.85,-19.5 1270.85,-0.5 1134.85,-0.5"/>
<text text-anchor="middle" x="1202.85" y="-7.5" font-family="Helvetica,sans-Serif" font-size="10.00">road_network_builder.cc</text>
</a>
</g>
</g>
<!-- Node8&#45;&gt;Node12 -->
<g id="edge13" class="edge">
<title>Node8&#45;&gt;Node12</title>
<path fill="none" stroke="midnightblue" d="M1359.56,-123.53C1412.57,-113.03 1480.87,-91.96 1450.85,-56 1428.31,-29 1336.29,-18.17 1270.93,-13.84"/>
<polygon fill="midnightblue" stroke="midnightblue" points="1358.71,-120.13 1349.53,-125.43 1360.01,-127.01 1358.71,-120.13"/>
</g>
<!-- Node13 -->
<g id="node13" class="node">
<title>Node13</title>
<g id="a_node13"><a xlink:href="road__rulebook__builder_8cc.html" target="_top" xlink:title=" ">
<polygon fill="white" stroke="black" points="1662.35,-62 1662.35,-81 1801.35,-81 1801.35,-62 1662.35,-62"/>
<text text-anchor="middle" x="1731.85" y="-69" font-family="Helvetica,sans-Serif" font-size="10.00">road_rulebook_builder.cc</text>
</a>
</g>
</g>
<!-- Node8&#45;&gt;Node13 -->
<g id="edge14" class="edge">
<title>Node8&#45;&gt;Node13</title>
<path fill="none" stroke="midnightblue" d="M1359.6,-125.83C1428.26,-117.88 1549.51,-103.15 1652.85,-87 1664.14,-85.23 1676.31,-83.11 1687.63,-81.04"/>
<polygon fill="midnightblue" stroke="midnightblue" points="1358.98,-122.38 1349.45,-127 1359.79,-129.33 1358.98,-122.38"/>
</g>
<!-- Node14 -->
<g id="node14" class="node">
<title>Node14</title>
<g id="a_node14"><a xlink:href="road__rulebook__builder__old__rules_8cc.html" target="_top" xlink:title=" ">
<polygon fill="white" stroke="black" points="1819.35,-56.5 1819.35,-86.5 1944.35,-86.5 1944.35,-56.5 1819.35,-56.5"/>
<text text-anchor="start" x="1827.35" y="-74.5" font-family="Helvetica,sans-Serif" font-size="10.00">road_rulebook_builder</text>
<text text-anchor="middle" x="1881.85" y="-63.5" font-family="Helvetica,sans-Serif" font-size="10.00">_old_rules.cc</text>
</a>
</g>
</g>
<!-- Node8&#45;&gt;Node14 -->
<g id="edge15" class="edge">
<title>Node8&#45;&gt;Node14</title>
<path fill="none" stroke="midnightblue" d="M1359.4,-129.17C1452.4,-123.9 1647.45,-110.87 1810.85,-87 1813.59,-86.6 1816.38,-86.16 1819.19,-85.69"/>
<polygon fill="midnightblue" stroke="midnightblue" points="1359.16,-125.68 1349.38,-129.73 1359.56,-132.67 1359.16,-125.68"/>
</g>
<!-- Node15 -->
<g id="node15" class="node">
<title>Node15</title>
<g id="a_node15"><a xlink:href="rule__registry__builder_8cc.html" target="_top" xlink:title=" ">
<polygon fill="white" stroke="black" points="1166.35,-62 1166.35,-81 1297.35,-81 1297.35,-62 1166.35,-62"/>
<text text-anchor="middle" x="1231.85" y="-69" font-family="Helvetica,sans-Serif" font-size="10.00">rule_registry_builder.cc</text>
</a>
</g>
</g>
<!-- Node8&#45;&gt;Node15 -->
<g id="edge16" class="edge">
<title>Node8&#45;&gt;Node15</title>
<path fill="none" stroke="midnightblue" d="M1286.41,-116.97C1272.45,-105.59 1253.77,-90.37 1242.29,-81.01"/>
<polygon fill="midnightblue" stroke="midnightblue" points="1284.42,-119.87 1294.39,-123.48 1288.85,-114.44 1284.42,-119.87"/>
</g>
<!-- Node16 -->
<g id="node16" class="node">
<title>Node16</title>
<g id="a_node16"><a xlink:href="speed__limit__builder_8cc.html" target="_top" xlink:title=" ">
<polygon fill="white" stroke="black" points="1315.85,-62 1315.85,-81 1441.85,-81 1441.85,-62 1315.85,-62"/>
<text text-anchor="middle" x="1378.85" y="-69" font-family="Helvetica,sans-Serif" font-size="10.00">speed_limit_builder.cc</text>
</a>
</g>
</g>
<!-- Node8&#45;&gt;Node16 -->
<g id="edge17" class="edge">
<title>Node8&#45;&gt;Node16</title>
<path fill="none" stroke="midnightblue" d="M1323.54,-116.97C1337.69,-105.59 1356.62,-90.37 1368.26,-81.01"/>
<polygon fill="midnightblue" stroke="midnightblue" points="1321.05,-114.48 1315.45,-123.48 1325.44,-119.94 1321.05,-114.48"/>
</g>
<!-- Node11 -->
<g id="node11" class="node">
<title>Node11</title>
<g id="a_node11"><a xlink:href="road__geometry__builder_8cc.html" target="_top" xlink:title=" ">
<polygon fill="white" stroke="black" points="252.35,-0.5 252.35,-19.5 395.35,-19.5 395.35,-0.5 252.35,-0.5"/>
<text text-anchor="middle" x="323.85" y="-7.5" font-family="Helvetica,sans-Serif" font-size="10.00">road_geometry_builder.cc</text>
</a>
</g>
</g>
<!-- Node10&#45;&gt;Node11 -->
<g id="edge11" class="edge">
<title>Node10&#45;&gt;Node11</title>
<path fill="none" stroke="midnightblue" d="M883.78,-60.2C874.82,-58.64 865.58,-57.17 856.85,-56 692.55,-34.04 498.23,-20.83 395.64,-14.84"/>
<polygon fill="midnightblue" stroke="midnightblue" points="883.28,-63.67 893.74,-61.99 884.51,-56.78 883.28,-63.67"/>
</g>
<!-- Node10&#45;&gt;Node12 -->
<g id="edge12" class="edge">
<title>Node10&#45;&gt;Node12</title>
<path fill="none" stroke="midnightblue" d="M984.05,-59.76C1035.84,-48.22 1117.11,-30.11 1164.66,-19.51"/>
<polygon fill="midnightblue" stroke="midnightblue" points="983.1,-56.38 974.1,-61.98 984.62,-63.22 983.1,-56.38"/>
</g>
<!-- Node18&#45;&gt;Node2 -->
<g id="edge39" class="edge">
<title>Node18&#45;&gt;Node2</title>
<path fill="none" stroke="midnightblue" d="M714.04,-179.58C715.32,-179.38 716.59,-179.19 717.85,-179 803.85,-165.91 903.52,-151.42 965.39,-142.52"/>
<polygon fill="midnightblue" stroke="midnightblue" points="713.45,-176.13 704.1,-181.12 714.52,-183.05 713.45,-176.13"/>
</g>
<!-- Node18&#45;&gt;Node7 -->
<g id="edge31" class="edge">
<title>Node18&#45;&gt;Node7</title>
<path fill="none" stroke="midnightblue" d="M707.32,-176.55C742.79,-165.61 782.36,-147.21 761.85,-123 730.39,-85.87 593.42,-97.21 545.85,-87 537.83,-85.28 529.23,-83.15 521.27,-81.06"/>
<polygon fill="midnightblue" stroke="midnightblue" points="706.09,-173.26 697.48,-179.43 708.06,-179.98 706.09,-173.26"/>
</g>
<!-- Node18&#45;&gt;Node10 -->
<g id="edge35" class="edge">
<title>Node18&#45;&gt;Node10</title>
<path fill="none" stroke="midnightblue" d="M714.11,-179.37C788.01,-167.29 913.1,-146.43 916.85,-143 934.43,-126.92 936.44,-96.43 936.26,-81.38"/>
<polygon fill="midnightblue" stroke="midnightblue" points="713.34,-175.95 704.04,-181.01 714.47,-182.86 713.34,-175.95"/>
</g>
<!-- Node19 -->
<g id="node19" class="node">
<title>Node19</title>
<g id="a_node19"><a xlink:href="xodr__query_8cc.html" target="_top" xlink:title=" ">
<polygon fill="white" stroke="black" points="367.35,-123.5 367.35,-142.5 450.35,-142.5 450.35,-123.5 367.35,-123.5"/>
<text text-anchor="middle" x="408.85" y="-130.5" font-family="Helvetica,sans-Serif" font-size="10.00">xodr_query.cc</text>
</a>
</g>
</g>
<!-- Node18&#45;&gt;Node19 -->
<g id="edge22" class="edge">
<title>Node18&#45;&gt;Node19</title>
<path fill="none" stroke="midnightblue" d="M611.13,-177.35C563.5,-167.14 492.57,-151.94 448.59,-142.52"/>
<polygon fill="midnightblue" stroke="midnightblue" points="610.4,-180.77 620.92,-179.44 611.87,-173.93 610.4,-180.77"/>
</g>
<!-- Node20 -->
<g id="node20" class="node">
<title>Node20</title>
<g id="a_node20"><a xlink:href="xodr__validate_8cc.html" target="_top" xlink:title=" ">
<polygon fill="white" stroke="black" points="468.35,-123.5 468.35,-142.5 565.35,-142.5 565.35,-123.5 468.35,-123.5"/>
<text text-anchor="middle" x="516.85" y="-130.5" font-family="Helvetica,sans-Serif" font-size="10.00">xodr_validate.cc</text>
</a>
</g>
</g>
<!-- Node18&#45;&gt;Node20 -->
<g id="edge23" class="edge">
<title>Node18&#45;&gt;Node20</title>
<path fill="none" stroke="midnightblue" d="M628.6,-175.91C601.52,-165.75 563.53,-151.51 539.56,-142.52"/>
<polygon fill="midnightblue" stroke="midnightblue" points="627.44,-179.21 638.03,-179.44 629.89,-172.66 627.44,-179.21"/>
</g>
<!-- Node21 -->
<g id="node21" class="node">
<title>Node21</title>
<g id="a_node21"><a xlink:href="road__geometry_8h.html" target="_top" xlink:title=" ">
<polygon fill="white" stroke="black" points="809.85,-123.5 809.85,-142.5 907.85,-142.5 907.85,-123.5 809.85,-123.5"/>
<text text-anchor="middle" x="858.85" y="-130.5" font-family="Helvetica,sans-Serif" font-size="10.00">road_geometry.h</text>
</a>
</g>
</g>
<!-- Node18&#45;&gt;Node21 -->
<g id="edge24" class="edge">
<title>Node18&#45;&gt;Node21</title>
<path fill="none" stroke="midnightblue" d="M702.28,-176.7C739.65,-166.51 793.79,-151.74 827.62,-142.52"/>
<polygon fill="midnightblue" stroke="midnightblue" points="700.95,-173.44 692.22,-179.44 702.79,-180.19 700.95,-173.44"/>
</g>
<!-- Node24 -->
<g id="node24" class="node">
<title>Node24</title>
<g id="a_node24"><a xlink:href="determine__tolerance_8h.html" target="_top" xlink:title=" ">
<polygon fill="white" stroke="black" points="183.35,-123.5 183.35,-142.5 310.35,-142.5 310.35,-123.5 183.35,-123.5"/>
<text text-anchor="middle" x="246.85" y="-130.5" font-family="Helvetica,sans-Serif" font-size="10.00">determine_tolerance.h</text>
</a>
</g>
</g>
<!-- Node18&#45;&gt;Node24 -->
<g id="edge32" class="edge">
<title>Node18&#45;&gt;Node24</title>
<path fill="none" stroke="midnightblue" d="M607.4,-181.03C531.25,-171.1 391.77,-152.9 310.42,-142.29"/>
<polygon fill="midnightblue" stroke="midnightblue" points="607.34,-184.55 617.71,-182.37 608.25,-177.61 607.34,-184.55"/>
</g>
<!-- Node25 -->
<g id="node25" class="node">
<title>Node25</title>
<g id="a_node25"><a xlink:href="simplify__geometries_8h.html" target="_top" xlink:title=" ">
<polygon fill="white" stroke="black" points="0.85,-123.5 0.85,-142.5 126.85,-142.5 126.85,-123.5 0.85,-123.5"/>
<text text-anchor="middle" x="63.85" y="-130.5" font-family="Helvetica,sans-Serif" font-size="10.00">simplify_geometries.h</text>
</a>
</g>
</g>
<!-- Node18&#45;&gt;Node25 -->
<g id="edge36" class="edge">
<title>Node18&#45;&gt;Node25</title>
<path fill="none" stroke="midnightblue" d="M607.21,-183.15C496.95,-173.17 245.28,-150.41 127.21,-139.73"/>
<polygon fill="midnightblue" stroke="midnightblue" points="607.16,-186.66 617.43,-184.07 607.79,-179.69 607.16,-186.66"/>
</g>
<!-- Node27 -->
<g id="node27" class="node">
<title>Node27</title>
<g id="a_node27"><a xlink:href="loader_8cc.html" target="_top" xlink:title=" ">
<polygon fill="white" stroke="black" points="583.35,-123.5 583.35,-142.5 644.35,-142.5 644.35,-123.5 583.35,-123.5"/>
<text text-anchor="middle" x="613.85" y="-130.5" font-family="Helvetica,sans-Serif" font-size="10.00">loader.cc</text>
</a>
</g>
</g>
<!-- Node18&#45;&gt;Node27 -->
<g id="edge40" class="edge">
<title>Node18&#45;&gt;Node27</title>
<path fill="none" stroke="midnightblue" d="M646.43,-171.43C638.19,-161.97 628.19,-150.48 621.46,-142.75"/>
<polygon fill="midnightblue" stroke="midnightblue" points="643.88,-173.84 653.09,-179.08 649.16,-169.24 643.88,-173.84"/>
</g>
<!-- Node28 -->
<g id="node28" class="node">
<title>Node28</title>
<g id="a_node28"><a xlink:href="db__manager_8cc.html" target="_top" xlink:title=" ">
<polygon fill="white" stroke="black" points="662.35,-123.5 662.35,-142.5 753.35,-142.5 753.35,-123.5 662.35,-123.5"/>
<text text-anchor="middle" x="707.85" y="-130.5" font-family="Helvetica,sans-Serif" font-size="10.00">db_manager.cc</text>
</a>
</g>
</g>
<!-- Node18&#45;&gt;Node28 -->
<g id="edge41" class="edge">
<title>Node18&#45;&gt;Node28</title>
<path fill="none" stroke="midnightblue" d="M675.27,-171.43C683.5,-161.97 693.5,-150.48 700.23,-142.75"/>
<polygon fill="midnightblue" stroke="midnightblue" points="672.53,-169.24 668.61,-179.08 677.81,-173.84 672.53,-169.24"/>
</g>
<!-- Node21&#45;&gt;Node3 -->
<g id="edge29" class="edge">
<title>Node21&#45;&gt;Node3</title>
<path fill="none" stroke="midnightblue" d="M842.56,-116.37C832.91,-107.11 820.79,-95.48 811.46,-86.52"/>
<polygon fill="midnightblue" stroke="midnightblue" points="840.32,-119.08 849.96,-123.48 845.17,-114.03 840.32,-119.08"/>
</g>
<!-- Node21&#45;&gt;Node4 -->
<g id="edge30" class="edge">
<title>Node21&#45;&gt;Node4</title>
<path fill="none" stroke="midnightblue" d="M901.21,-120.9C945.3,-109.34 1013.38,-91.5 1053.38,-81.01"/>
<polygon fill="midnightblue" stroke="midnightblue" points="900.16,-117.55 891.37,-123.48 901.93,-124.33 900.16,-117.55"/>
</g>
<!-- Node21&#45;&gt;Node7 -->
<g id="edge27" class="edge">
<title>Node21&#45;&gt;Node7</title>
<path fill="none" stroke="midnightblue" d="M799.45,-123.5C709.55,-110.64 548.94,-87.63 545.85,-87 537.62,-85.33 528.79,-83.17 520.67,-81.03"/>
<polygon fill="midnightblue" stroke="midnightblue" points="799.13,-126.99 809.52,-124.95 800.12,-120.06 799.13,-126.99"/>
</g>
<!-- Node21&#45;&gt;Node10 -->
<g id="edge28" class="edge">
<title>Node21&#45;&gt;Node10</title>
<path fill="none" stroke="midnightblue" d="M877.88,-117.29C892.65,-105.88 912.61,-90.46 924.83,-81.01"/>
<polygon fill="midnightblue" stroke="midnightblue" points="875.65,-114.59 869.88,-123.48 879.93,-120.13 875.65,-114.59"/>
</g>
<!-- Node22 -->
<g id="node22" class="node">
<title>Node22</title>
<g id="a_node22"><a xlink:href="base_2lane_8cc.html" target="_top" xlink:title=" ">
<polygon fill="white" stroke="black" points="555.35,-62 555.35,-81 606.35,-81 606.35,-62 555.35,-62"/>
<text text-anchor="middle" x="580.85" y="-69" font-family="Helvetica,sans-Serif" font-size="10.00">lane.cc</text>
</a>
</g>
</g>
<!-- Node21&#45;&gt;Node22 -->
<g id="edge25" class="edge">
<title>Node21&#45;&gt;Node22</title>
<path fill="none" stroke="midnightblue" d="M799.55,-122.61C738.78,-112.71 648.57,-97.16 614.85,-87 609.56,-85.41 603.99,-83.25 598.92,-81.08"/>
<polygon fill="midnightblue" stroke="midnightblue" points="799.35,-126.12 809.78,-124.27 800.47,-119.21 799.35,-126.12"/>
</g>
<!-- Node23 -->
<g id="node23" class="node">
<title>Node23</title>
<g id="a_node23"><a xlink:href="road__geometry_8cc.html" target="_top" xlink:title=" ">
<polygon fill="white" stroke="black" points="624.35,-62 624.35,-81 727.35,-81 727.35,-62 624.35,-62"/>
<text text-anchor="middle" x="675.85" y="-69" font-family="Helvetica,sans-Serif" font-size="10.00">road_geometry.cc</text>
</a>
</g>
</g>
<!-- Node21&#45;&gt;Node23 -->
<g id="edge26" class="edge">
<title>Node21&#45;&gt;Node23</title>
<path fill="none" stroke="midnightblue" d="M823.11,-120.38C787.54,-108.82 733.79,-91.34 702.02,-81.01"/>
<polygon fill="midnightblue" stroke="midnightblue" points="822.03,-123.71 832.63,-123.48 824.2,-117.05 822.03,-123.71"/>
</g>
<!-- Node24&#45;&gt;Node11 -->
<g id="edge34" class="edge">
<title>Node24&#45;&gt;Node11</title>
<path fill="none" stroke="midnightblue" d="M271.47,-117.79C282.87,-110.04 295.67,-99.48 303.85,-87 317.9,-65.54 322.1,-34.61 323.34,-19.7"/>
<polygon fill="midnightblue" stroke="midnightblue" points="269.27,-115.04 262.74,-123.38 273.05,-120.93 269.27,-115.04"/>
</g>
<!-- Node24&#45;&gt;Node17 -->
<g id="edge33" class="edge">
<title>Node24&#45;&gt;Node17</title>
<path fill="none" stroke="midnightblue" d="M241.61,-113.66C238.5,-102.77 234.7,-89.49 232.28,-81.01"/>
<polygon fill="midnightblue" stroke="midnightblue" points="238.3,-114.82 244.41,-123.48 245.03,-112.9 238.3,-114.82"/>
</g>
<!-- Node25&#45;&gt;Node11 -->
<g id="edge37" class="edge">
<title>Node25&#45;&gt;Node11</title>
<path fill="none" stroke="midnightblue" d="M36.72,-118.32C24.94,-110.82 12.37,-100.32 5.85,-87 -0.21,-74.63 -3.19,-66.4 5.85,-56 37.11,-20.01 168.49,-12.02 252.29,-10.68"/>
<polygon fill="midnightblue" stroke="midnightblue" points="35.06,-121.41 45.46,-123.47 38.62,-115.38 35.06,-121.41"/>
</g>
<!-- Node26 -->
<g id="node26" class="node">
<title>Node26</title>
<g id="a_node26"><a xlink:href="simplify__geometries_8cc.html" target="_top" xlink:title=" ">
<polygon fill="white" stroke="black" points="15.35,-62 15.35,-81 146.35,-81 146.35,-62 15.35,-62"/>
<text text-anchor="middle" x="80.85" y="-69" font-family="Helvetica,sans-Serif" font-size="10.00">simplify_geometries.cc</text>
</a>
</g>
</g>
<!-- Node25&#45;&gt;Node26 -->
<g id="edge38" class="edge">
<title>Node25&#45;&gt;Node26</title>
<path fill="none" stroke="midnightblue" d="M69.09,-113.66C72.2,-102.77 75.99,-89.49 78.42,-81.01"/>
<polygon fill="midnightblue" stroke="midnightblue" points="65.66,-112.9 66.28,-123.48 72.39,-114.82 65.66,-112.9"/>
</g>
<!-- Node31 -->
<g id="node31" class="node">
<title>Node31</title>
<g id="a_node31"><a xlink:href="board_8cc.html" target="_top" xlink:title=" ">
<polygon fill="white" stroke="black" points="983.85,-179.5 983.85,-198.5 1041.85,-198.5 1041.85,-179.5 983.85,-179.5"/>
<text text-anchor="middle" x="1012.85" y="-186.5" font-family="Helvetica,sans-Serif" font-size="10.00">board.cc</text>
</a>
</g>
</g>
<!-- Node30&#45;&gt;Node31 -->
<g id="edge45" class="edge">
<title>Node30&#45;&gt;Node31</title>
<path fill="none" stroke="midnightblue" d="M960.71,-229.1C973.67,-219.38 990.14,-207.03 1001.07,-198.83"/>
<polygon fill="midnightblue" stroke="midnightblue" points="958.31,-226.52 952.41,-235.32 962.51,-232.12 958.31,-226.52"/>
</g>
<!-- Node32 -->
<g id="node32" class="node">
<title>Node32</title>
<g id="a_node32"><a xlink:href="sign_8cc.html" target="_top" xlink:title=" ">
<polygon fill="white" stroke="black" points="915.85,-179.5 915.85,-198.5 965.85,-198.5 965.85,-179.5 915.85,-179.5"/>
<text text-anchor="middle" x="940.85" y="-186.5" font-family="Helvetica,sans-Serif" font-size="10.00">sign.cc</text>
</a>
</g>
</g>
<!-- Node30&#45;&gt;Node32 -->
<g id="edge46" class="edge">
<title>Node30&#45;&gt;Node32</title>
<path fill="none" stroke="midnightblue" d="M940.85,-224.8C940.85,-215.91 940.85,-205.78 940.85,-198.75"/>
<polygon fill="midnightblue" stroke="midnightblue" points="937.35,-225.08 940.85,-235.08 944.35,-225.08 937.35,-225.08"/>
</g>
<!-- Node30&#45;&gt;Node33 -->
<g id="edge47" class="edge">
<title>Node30&#45;&gt;Node33</title>
<path fill="none" stroke="midnightblue" d="M973.73,-233.37C1005.29,-223.16 1052.36,-207.94 1081.52,-198.51"/>
<polygon fill="midnightblue" stroke="midnightblue" points="972.51,-230.08 964.07,-236.49 974.66,-236.75 972.51,-230.08"/>
</g>
</g>
</svg>
