<?xml version="1.0" encoding="UTF-8" standalone="no"?>
<!DOCTYPE svg PUBLIC "-//W3C//DTD SVG 1.1//EN"
 "http://www.w3.org/Graphics/SVG/1.1/DTD/svg11.dtd">
<!-- Generated by graphviz version 2.43.0 (0)
 -->
<!-- Title: unit.cc Pages: 1 -->
<svg width="872pt" height="162pt"
 viewBox="0.00 0.00 871.50 162.00" xmlns="http://www.w3.org/2000/svg" xmlns:xlink="http://www.w3.org/1999/xlink">
<g id="graph0" class="graph" transform="scale(1 1) rotate(0) translate(4 158)">
<title>unit.cc</title>
<polygon fill="white" stroke="transparent" points="-4,4 -4,-158 867.5,-158 867.5,4 -4,4"/>
<!-- Node1 -->
<g id="node1" class="node">
<title>Node1</title>
<g id="a_node1"><a xlink:title=" ">
<polygon fill="#bfbfbf" stroke="black" points="168,-134.5 168,-153.5 217,-153.5 217,-134.5 168,-134.5"/>
<text text-anchor="middle" x="192.5" y="-141.5" font-family="Helvetica,sans-Serif" font-size="10.00">unit.cc</text>
</a>
</g>
</g>
<!-- Node2 -->
<g id="node2" class="node">
<title>Node2</title>
<g id="a_node2"><a xlink:href="unit_8h.html" target="_top" xlink:title=" ">
<polygon fill="white" stroke="black" points="0,-67.5 0,-97.5 131,-97.5 131,-67.5 0,-67.5"/>
<text text-anchor="start" x="8" y="-85.5" font-family="Helvetica,sans-Serif" font-size="10.00">maliput_malidrive/xodr</text>
<text text-anchor="middle" x="65.5" y="-74.5" font-family="Helvetica,sans-Serif" font-size="10.00">/unit.h</text>
</a>
</g>
</g>
<!-- Node1&#45;&gt;Node2 -->
<g id="edge1" class="edge">
<title>Node1&#45;&gt;Node2</title>
<path fill="none" stroke="midnightblue" d="M174.3,-134.48C156.22,-126 127.91,-112.74 104.69,-101.86"/>
<polygon fill="midnightblue" stroke="midnightblue" points="105.97,-98.6 95.43,-97.52 103,-104.93 105.97,-98.6"/>
</g>
<!-- Node4 -->
<g id="node4" class="node">
<title>Node4</title>
<g id="a_node4"><a xlink:title=" ">
<polygon fill="white" stroke="#bfbfbf" points="173.5,-73 173.5,-92 211.5,-92 211.5,-73 173.5,-73"/>
<text text-anchor="middle" x="192.5" y="-80" font-family="Helvetica,sans-Serif" font-size="10.00">map</text>
</a>
</g>
</g>
<!-- Node1&#45;&gt;Node4 -->
<g id="edge3" class="edge">
<title>Node1&#45;&gt;Node4</title>
<path fill="none" stroke="midnightblue" d="M192.5,-134.48C192.5,-126.08 192.5,-112.98 192.5,-102.16"/>
<polygon fill="midnightblue" stroke="midnightblue" points="196,-102.01 192.5,-92.01 189,-102.01 196,-102.01"/>
</g>
<!-- Node5 -->
<g id="node5" class="node">
<title>Node5</title>
<g id="a_node5"><a xlink:href="macros_8h.html" target="_top" xlink:title=" ">
<polygon fill="white" stroke="black" points="241.5,-67.5 241.5,-97.5 393.5,-97.5 393.5,-67.5 241.5,-67.5"/>
<text text-anchor="start" x="249.5" y="-85.5" font-family="Helvetica,sans-Serif" font-size="10.00">maliput_malidrive/common</text>
<text text-anchor="middle" x="317.5" y="-74.5" font-family="Helvetica,sans-Serif" font-size="10.00">/macros.h</text>
</a>
</g>
</g>
<!-- Node1&#45;&gt;Node5 -->
<g id="edge4" class="edge">
<title>Node1&#45;&gt;Node5</title>
<path fill="none" stroke="midnightblue" d="M210.41,-134.48C228.21,-126 256.08,-112.74 278.92,-101.86"/>
<polygon fill="midnightblue" stroke="midnightblue" points="280.51,-104.98 288.04,-97.52 277.51,-98.66 280.51,-104.98"/>
</g>
<!-- Node3 -->
<g id="node3" class="node">
<title>Node3</title>
<g id="a_node3"><a xlink:title=" ">
<polygon fill="white" stroke="#bfbfbf" points="30.5,-6 30.5,-25 74.5,-25 74.5,-6 30.5,-6"/>
<text text-anchor="middle" x="52.5" y="-13" font-family="Helvetica,sans-Serif" font-size="10.00">string</text>
</a>
</g>
</g>
<!-- Node2&#45;&gt;Node3 -->
<g id="edge2" class="edge">
<title>Node2&#45;&gt;Node3</title>
<path fill="none" stroke="midnightblue" d="M62.68,-67.4C60.79,-57.96 58.29,-45.45 56.24,-35.19"/>
<polygon fill="midnightblue" stroke="midnightblue" points="59.63,-34.31 54.24,-25.19 52.77,-35.69 59.63,-34.31"/>
</g>
<!-- Node5&#45;&gt;Node3 -->
<g id="edge5" class="edge">
<title>Node5&#45;&gt;Node3</title>
<path fill="none" stroke="midnightblue" d="M241.25,-69.53C194.93,-61.15 134.99,-48.35 83.5,-31 81.84,-30.44 80.14,-29.81 78.45,-29.15"/>
<polygon fill="midnightblue" stroke="midnightblue" points="79.52,-25.8 68.95,-25.03 76.73,-32.22 79.52,-25.8"/>
</g>
<!-- Node6 -->
<g id="node6" class="node">
<title>Node6</title>
<g id="a_node6"><a xlink:href="../../maliput/html/error_8h.html.html" xlink:title=" ">
<polygon fill="white" stroke="black" points="93,-6 93,-25 228,-25 228,-6 93,-6"/>
<text text-anchor="middle" x="160.5" y="-13" font-family="Helvetica,sans-Serif" font-size="10.00">maliput/common/error.h</text>
</a>
</g>
</g>
<!-- Node5&#45;&gt;Node6 -->
<g id="edge6" class="edge">
<title>Node5&#45;&gt;Node6</title>
<path fill="none" stroke="midnightblue" d="M283.43,-67.4C255.76,-55.94 217.11,-39.94 190.58,-28.95"/>
<polygon fill="midnightblue" stroke="midnightblue" points="191.63,-25.6 181.05,-25.01 188.95,-32.07 191.63,-25.6"/>
</g>
<!-- Node7 -->
<g id="node7" class="node">
<title>Node7</title>
<g id="a_node7"><a xlink:href="../../maliput/html/logger_8h.html.html" xlink:title=" ">
<polygon fill="white" stroke="black" points="246,-6 246,-25 389,-25 389,-6 246,-6"/>
<text text-anchor="middle" x="317.5" y="-13" font-family="Helvetica,sans-Serif" font-size="10.00">maliput/common/logger.h</text>
</a>
</g>
</g>
<!-- Node5&#45;&gt;Node7 -->
<g id="edge7" class="edge">
<title>Node5&#45;&gt;Node7</title>
<path fill="none" stroke="midnightblue" d="M317.5,-67.4C317.5,-58.06 317.5,-45.71 317.5,-35.52"/>
<polygon fill="midnightblue" stroke="midnightblue" points="321,-35.19 317.5,-25.19 314,-35.19 321,-35.19"/>
</g>
<!-- Node8 -->
<g id="node8" class="node">
<title>Node8</title>
<g id="a_node8"><a xlink:href="../../maliput/html/maliput__abort_8h.html.html" xlink:title=" ">
<polygon fill="white" stroke="black" points="407.5,-0.5 407.5,-30.5 547.5,-30.5 547.5,-0.5 407.5,-0.5"/>
<text text-anchor="start" x="415.5" y="-18.5" font-family="Helvetica,sans-Serif" font-size="10.00">maliput/common/maliput</text>
<text text-anchor="middle" x="477.5" y="-7.5" font-family="Helvetica,sans-Serif" font-size="10.00">_abort.h</text>
</a>
</g>
</g>
<!-- Node5&#45;&gt;Node8 -->
<g id="edge8" class="edge">
<title>Node5&#45;&gt;Node8</title>
<path fill="none" stroke="midnightblue" d="M352.22,-67.4C376.01,-57.73 407.78,-44.82 433.37,-34.43"/>
<polygon fill="midnightblue" stroke="midnightblue" points="434.9,-37.58 442.85,-30.58 432.27,-31.1 434.9,-37.58"/>
</g>
<!-- Node9 -->
<g id="node9" class="node">
<title>Node9</title>
<g id="a_node9"><a xlink:href="../../maliput/html/maliput__copyable_8h.html.html" xlink:title=" ">
<polygon fill="white" stroke="black" points="565.5,-0.5 565.5,-30.5 705.5,-30.5 705.5,-0.5 565.5,-0.5"/>
<text text-anchor="start" x="573.5" y="-18.5" font-family="Helvetica,sans-Serif" font-size="10.00">maliput/common/maliput</text>
<text text-anchor="middle" x="635.5" y="-7.5" font-family="Helvetica,sans-Serif" font-size="10.00">_copyable.h</text>
</a>
</g>
</g>
<!-- Node5&#45;&gt;Node9 -->
<g id="edge9" class="edge">
<title>Node5&#45;&gt;Node9</title>
<path fill="none" stroke="midnightblue" d="M386.11,-67.48C436.28,-57.22 504.44,-43.29 556.82,-32.58"/>
<polygon fill="midnightblue" stroke="midnightblue" points="557.64,-35.99 566.74,-30.55 556.24,-29.13 557.64,-35.99"/>
</g>
<!-- Node10 -->
<g id="node10" class="node">
<title>Node10</title>
<g id="a_node10"><a xlink:href="../../maliput/html/maliput__throw_8h.html.html" xlink:title=" ">
<polygon fill="white" stroke="black" points="723.5,-0.5 723.5,-30.5 863.5,-30.5 863.5,-0.5 723.5,-0.5"/>
<text text-anchor="start" x="731.5" y="-18.5" font-family="Helvetica,sans-Serif" font-size="10.00">maliput/common/maliput</text>
<text text-anchor="middle" x="793.5" y="-7.5" font-family="Helvetica,sans-Serif" font-size="10.00">_throw.h</text>
</a>
</g>
</g>
<!-- Node5&#45;&gt;Node10 -->
<g id="edge10" class="edge">
<title>Node5&#45;&gt;Node10</title>
<path fill="none" stroke="midnightblue" d="M393.78,-73.06C471.57,-64.16 595.98,-49.15 713.1,-31.17"/>
<polygon fill="midnightblue" stroke="midnightblue" points="713.97,-34.57 723.32,-29.59 712.91,-27.66 713.97,-34.57"/>
</g>
</g>
</svg>
