<?xml version="1.0" encoding="UTF-8" standalone="no"?>
<!DOCTYPE svg PUBLIC "-//W3C//DTD SVG 1.1//EN"
 "http://www.w3.org/Graphics/SVG/1.1/DTD/svg11.dtd">
<!-- Generated by graphviz version 2.43.0 (0)
 -->
<!-- Title: lane.h Pages: 1 -->
<!--zoomable 442 -->
<svg id="main" version="1.1" xmlns="http://www.w3.org/2000/svg" xmlns:xlink="http://www.w3.org/1999/xlink" xml:space="preserve" onload="init(evt)">
<style type="text/css"><![CDATA[
.edge:hover path { stroke: red; }
.edge:hover polygon { stroke: red; fill: red; }
]]></style>
<script type="text/javascript"><![CDATA[
var edges = document.getElementsByTagName('g');
if (edges && edges.length) {
  for (var i=0;i<edges.length;i++) {
    if (edges[i].id.substr(0,4)=='edge') {
      edges[i].setAttribute('class','edge');
    }
  }
}
]]></script>
        <defs>
                <circle id="rim" cx="0" cy="0" r="7"/>
                <circle id="rim2" cx="0" cy="0" r="3.5"/>
                <g id="zoomPlus">
                        <use xlink:href="#rim" fill="#404040">
                                <set attributeName="fill" to="#808080" begin="zoomplus.mouseover" end="zoomplus.mouseout"/>
                        </use>
                        <path d="M-4,0h8M0,-4v8" fill="none" stroke="white" stroke-width="1.5" pointer-events="none"/>
                </g>
                <g id="zoomMin">
                        <use xlink:href="#rim" fill="#404040">
                                <set attributeName="fill" to="#808080" begin="zoomminus.mouseover" end="zoomminus.mouseout"/>
                        </use>
                        <path d="M-4,0h8" fill="none" stroke="white" stroke-width="1.5" pointer-events="none"/>
                </g>
                <g id="dirArrow">
                        <path fill="none" stroke="white" stroke-width="1.5" d="M0,-3.0v7 M-2.5,-0.5L0,-3.0L2.5,-0.5"/>
                </g>
               <g id="resetDef">
                       <use xlink:href="#rim2" fill="#404040">
                               <set attributeName="fill" to="#808080" begin="reset.mouseover" end="reset.mouseout"/>
                       </use>
               </g>
        </defs>

<script type="text/javascript">
var viewWidth = 2284;
var viewHeight = 442;
var sectionId = 'dynsection-1';
</script>
<script xlink:href="svgpan.js"/>
<svg id="graph" class="graph">
<g id="viewport">
<title>lane.h</title>
<polygon fill="white" stroke="transparent" points="-4,4 -4,-438 2280,-438 2280,4 -4,4"/>
<!-- Node1 -->
<g id="node1" class="node">
<title>Node1</title>
<g id="a_node1"><a xlink:title=" ">
<polygon fill="#bfbfbf" stroke="black" points="1163,-414.5 1163,-433.5 1210,-433.5 1210,-414.5 1163,-414.5"/>
<text text-anchor="middle" x="1186.5" y="-421.5" font-family="Helvetica,sans-Serif" font-size="10.00">lane.h</text>
</a>
</g>
</g>
<!-- Node2 -->
<g id="node2" class="node">
<title>Node2</title>
<g id="a_node2"><a xlink:href="base_2lane_8h.html" target="_top" xlink:title=" ">
<polygon fill="white" stroke="black" points="624,-246.5 624,-265.5 671,-265.5 671,-246.5 624,-246.5"/>
<text text-anchor="middle" x="647.5" y="-253.5" font-family="Helvetica,sans-Serif" font-size="10.00">lane.h</text>
</a>
</g>
</g>
<!-- Node1&#45;&gt;Node2 -->
<g id="edge1" class="edge">
<title>Node1&#45;&gt;Node2</title>
<path fill="none" stroke="midnightblue" d="M1153.42,-412.81C1053.63,-382.08 757.13,-290.76 671.13,-264.28"/>
<polygon fill="midnightblue" stroke="midnightblue" points="1152.41,-416.16 1162.99,-415.76 1154.47,-409.47 1152.41,-416.16"/>
</g>
<!-- Node11 -->
<g id="node11" class="node">
<title>Node11</title>
<g id="a_node11"><a xlink:href="builder__tools_8h.html" target="_top" xlink:title=" ">
<polygon fill="white" stroke="black" points="1006,-185 1006,-204 1095,-204 1095,-185 1006,-185"/>
<text text-anchor="middle" x="1050.5" y="-192" font-family="Helvetica,sans-Serif" font-size="10.00">builder_tools.h</text>
</a>
</g>
</g>
<!-- Node1&#45;&gt;Node11 -->
<g id="edge39" class="edge">
<title>Node1&#45;&gt;Node11</title>
<path fill="none" stroke="midnightblue" d="M1176.1,-405.6C1148.79,-359.92 1075.75,-237.74 1055.67,-204.15"/>
<polygon fill="midnightblue" stroke="midnightblue" points="1173.2,-407.57 1181.33,-414.36 1179.21,-403.98 1173.2,-407.57"/>
</g>
<!-- Node22 -->
<g id="node22" class="node">
<title>Node22</title>
<g id="a_node22"><a xlink:href="xodr_2lane_8cc.html" target="_top" xlink:title=" ">
<polygon fill="white" stroke="black" points="1320,-358.5 1320,-377.5 1371,-377.5 1371,-358.5 1320,-358.5"/>
<text text-anchor="middle" x="1345.5" y="-365.5" font-family="Helvetica,sans-Serif" font-size="10.00">lane.cc</text>
</a>
</g>
</g>
<!-- Node1&#45;&gt;Node22 -->
<g id="edge40" class="edge">
<title>Node1&#45;&gt;Node22</title>
<path fill="none" stroke="midnightblue" d="M1219.9,-411.66C1249.83,-401.49 1293.07,-386.8 1320.22,-377.59"/>
<polygon fill="midnightblue" stroke="midnightblue" points="1218.65,-408.39 1210.3,-414.92 1220.9,-415.01 1218.65,-408.39"/>
</g>
<!-- Node23 -->
<g id="node23" class="node">
<title>Node23</title>
<g id="a_node23"><a xlink:href="lane__section_8h.html" target="_top" xlink:title=" ">
<polygon fill="white" stroke="black" points="1215,-358.5 1215,-377.5 1302,-377.5 1302,-358.5 1215,-358.5"/>
<text text-anchor="middle" x="1258.5" y="-365.5" font-family="Helvetica,sans-Serif" font-size="10.00">lane_section.h</text>
</a>
</g>
</g>
<!-- Node1&#45;&gt;Node23 -->
<g id="edge41" class="edge">
<title>Node1&#45;&gt;Node23</title>
<path fill="none" stroke="midnightblue" d="M1206.37,-408.1C1219.32,-398.38 1235.8,-386.03 1246.72,-377.83"/>
<polygon fill="midnightblue" stroke="midnightblue" points="1203.97,-405.52 1198.07,-414.32 1208.17,-411.12 1203.97,-405.52"/>
</g>
<!-- Node27 -->
<g id="node27" class="node">
<title>Node27</title>
<g id="a_node27"><a xlink:href="parser_8cc.html" target="_top" xlink:title=" ">
<polygon fill="white" stroke="black" points="1249,-185 1249,-204 1310,-204 1310,-185 1249,-185"/>
<text text-anchor="middle" x="1279.5" y="-192" font-family="Helvetica,sans-Serif" font-size="10.00">parser.cc</text>
</a>
</g>
</g>
<!-- Node1&#45;&gt;Node27 -->
<g id="edge67" class="edge">
<title>Node1&#45;&gt;Node27</title>
<path fill="none" stroke="midnightblue" d="M1191.46,-404.76C1195.19,-391.62 1200.65,-373.54 1206.5,-358 1229.18,-297.8 1263.2,-228.15 1275.16,-204.15"/>
<polygon fill="midnightblue" stroke="midnightblue" points="1188.06,-403.9 1188.76,-414.47 1194.81,-405.77 1188.06,-403.9"/>
</g>
<!-- Node3 -->
<g id="node3" class="node">
<title>Node3</title>
<g id="a_node3"><a xlink:href="base_2lane_8cc.html" target="_top" xlink:title=" ">
<polygon fill="white" stroke="black" points="858,-56.5 858,-75.5 909,-75.5 909,-56.5 858,-56.5"/>
<text text-anchor="middle" x="883.5" y="-63.5" font-family="Helvetica,sans-Serif" font-size="10.00">lane.cc</text>
</a>
</g>
</g>
<!-- Node2&#45;&gt;Node3 -->
<g id="edge2" class="edge">
<title>Node2&#45;&gt;Node3</title>
<path fill="none" stroke="midnightblue" d="M613.55,-254.36C509.8,-252.07 202.11,-242.55 172.5,-210 163.23,-199.81 166.83,-191.56 172.5,-179 191.03,-137.96 206.97,-129.4 248.5,-112 361.27,-64.77 753.42,-65.56 857.81,-66.65"/>
<polygon fill="midnightblue" stroke="midnightblue" points="613.71,-257.87 623.78,-254.58 613.86,-250.87 613.71,-257.87"/>
</g>
<!-- Node4 -->
<g id="node4" class="node">
<title>Node4</title>
<g id="a_node4"><a xlink:href="road__geometry_8cc.html" target="_top" xlink:title=" ">
<polygon fill="white" stroke="black" points="982,-56.5 982,-75.5 1085,-75.5 1085,-56.5 982,-56.5"/>
<text text-anchor="middle" x="1033.5" y="-63.5" font-family="Helvetica,sans-Serif" font-size="10.00">road_geometry.cc</text>
</a>
</g>
</g>
<!-- Node2&#45;&gt;Node4 -->
<g id="edge3" class="edge">
<title>Node2&#45;&gt;Node4</title>
<path fill="none" stroke="midnightblue" d="M648.02,-236.28C647.45,-219.02 643.75,-193.89 628.5,-179 576.35,-128.07 514.03,-199.92 468.5,-143 459.89,-132.24 459.15,-122.12 468.5,-112 469.04,-111.41 842.59,-82 981.92,-71.05"/>
<polygon fill="midnightblue" stroke="midnightblue" points="644.52,-236.31 648.04,-246.3 651.52,-236.29 644.52,-236.31"/>
</g>
<!-- Node5 -->
<g id="node5" class="node">
<title>Node5</title>
<g id="a_node5"><a xlink:href="segment_8h.html" target="_top" xlink:title=" ">
<polygon fill="white" stroke="black" points="1124.5,-185 1124.5,-204 1192.5,-204 1192.5,-185 1124.5,-185"/>
<text text-anchor="middle" x="1158.5" y="-192" font-family="Helvetica,sans-Serif" font-size="10.00">segment.h</text>
</a>
</g>
</g>
<!-- Node2&#45;&gt;Node5 -->
<g id="edge4" class="edge">
<title>Node2&#45;&gt;Node5</title>
<path fill="none" stroke="midnightblue" d="M681.85,-253.48C758.19,-249.7 947.54,-238.07 1103.5,-210 1112.05,-208.46 1121.22,-206.27 1129.58,-204.05"/>
<polygon fill="midnightblue" stroke="midnightblue" points="681.24,-250.01 671.42,-253.98 681.58,-257 681.24,-250.01"/>
</g>
<!-- Node8 -->
<g id="node8" class="node">
<title>Node8</title>
<g id="a_node8"><a xlink:href="road__geometry__builder_8h.html" target="_top" xlink:title=" ">
<polygon fill="white" stroke="black" points="1244,-56.5 1244,-75.5 1383,-75.5 1383,-56.5 1244,-56.5"/>
<text text-anchor="middle" x="1313.5" y="-63.5" font-family="Helvetica,sans-Serif" font-size="10.00">road_geometry_builder.h</text>
</a>
</g>
</g>
<!-- Node2&#45;&gt;Node8 -->
<g id="edge25" class="edge">
<title>Node2&#45;&gt;Node8</title>
<path fill="none" stroke="midnightblue" d="M681.14,-254.81C786.06,-253.84 1105.95,-247.76 1201.5,-210 1222.09,-201.86 1221.31,-190.05 1240.5,-179 1278.55,-157.1 1307.75,-179.27 1332.5,-143 1346.91,-121.88 1329.91,-90.79 1319.86,-75.77"/>
<polygon fill="midnightblue" stroke="midnightblue" points="681.08,-251.31 671.11,-254.9 681.14,-258.31 681.08,-251.31"/>
</g>
<!-- Node2&#45;&gt;Node11 -->
<g id="edge13" class="edge">
<title>Node2&#45;&gt;Node11</title>
<path fill="none" stroke="midnightblue" d="M681.16,-250.03C753.59,-239.34 924.27,-214.14 1005.72,-202.11"/>
<polygon fill="midnightblue" stroke="midnightblue" points="680.59,-246.58 671.2,-251.5 681.61,-253.5 680.59,-246.58"/>
</g>
<!-- Node17 -->
<g id="node17" class="node">
<title>Node17</title>
<g id="a_node17"><a xlink:href="direction__usage__builder_8h.html" target="_top" xlink:title=" ">
<polygon fill="white" stroke="black" points="181.5,-185 181.5,-204 323.5,-204 323.5,-185 181.5,-185"/>
<text text-anchor="middle" x="252.5" y="-192" font-family="Helvetica,sans-Serif" font-size="10.00">direction_usage_builder.h</text>
</a>
</g>
</g>
<!-- Node2&#45;&gt;Node17 -->
<g id="edge22" class="edge">
<title>Node2&#45;&gt;Node17</title>
<path fill="none" stroke="midnightblue" d="M613.72,-250.6C555.99,-242.98 434.66,-226.55 332.5,-210 321.21,-208.17 309.06,-206.05 297.72,-204"/>
<polygon fill="midnightblue" stroke="midnightblue" points="613.37,-254.08 623.74,-251.92 614.29,-247.14 613.37,-254.08"/>
</g>
<!-- Node18 -->
<g id="node18" class="node">
<title>Node18</title>
<g id="a_node18"><a xlink:href="road__rulebook__builder_8h.html" target="_top" xlink:title=" ">
<polygon fill="white" stroke="black" points="485.5,-185 485.5,-204 619.5,-204 619.5,-185 485.5,-185"/>
<text text-anchor="middle" x="552.5" y="-192" font-family="Helvetica,sans-Serif" font-size="10.00">road_rulebook_builder.h</text>
</a>
</g>
</g>
<!-- Node2&#45;&gt;Node18 -->
<g id="edge26" class="edge">
<title>Node2&#45;&gt;Node18</title>
<path fill="none" stroke="midnightblue" d="M625.29,-241.09C606.95,-229.6 581.52,-213.68 566.09,-204.01"/>
<polygon fill="midnightblue" stroke="midnightblue" points="623.56,-244.13 633.89,-246.48 627.27,-238.2 623.56,-244.13"/>
</g>
<!-- Node19 -->
<g id="node19" class="node">
<title>Node19</title>
<g id="a_node19"><a xlink:href="road__rulebook__builder__old__rules_8h.html" target="_top" xlink:title=" ">
<polygon fill="white" stroke="black" points="0,-179.5 0,-209.5 125,-209.5 125,-179.5 0,-179.5"/>
<text text-anchor="start" x="8" y="-197.5" font-family="Helvetica,sans-Serif" font-size="10.00">road_rulebook_builder</text>
<text text-anchor="middle" x="62.5" y="-186.5" font-family="Helvetica,sans-Serif" font-size="10.00">_old_rules.h</text>
</a>
</g>
</g>
<!-- Node2&#45;&gt;Node19 -->
<g id="edge30" class="edge">
<title>Node2&#45;&gt;Node19</title>
<path fill="none" stroke="midnightblue" d="M613.67,-253.15C531.91,-248.43 317.24,-234.55 139.5,-210 134.78,-209.35 129.92,-208.6 125.03,-207.8"/>
<polygon fill="midnightblue" stroke="midnightblue" points="613.68,-256.66 623.86,-253.73 614.08,-249.67 613.68,-256.66"/>
</g>
<!-- Node20 -->
<g id="node20" class="node">
<title>Node20</title>
<g id="a_node20"><a xlink:href="rule__registry__builder_8h.html" target="_top" xlink:title=" ">
<polygon fill="white" stroke="black" points="341.5,-185 341.5,-204 467.5,-204 467.5,-185 341.5,-185"/>
<text text-anchor="middle" x="404.5" y="-192" font-family="Helvetica,sans-Serif" font-size="10.00">rule_registry_builder.h</text>
</a>
</g>
</g>
<!-- Node2&#45;&gt;Node20 -->
<g id="edge33" class="edge">
<title>Node2&#45;&gt;Node20</title>
<path fill="none" stroke="midnightblue" d="M614.01,-246.8C568.18,-235.58 486.3,-215.53 439.63,-204.1"/>
<polygon fill="midnightblue" stroke="midnightblue" points="613.21,-250.21 623.76,-249.19 614.88,-243.41 613.21,-250.21"/>
</g>
<!-- Node21 -->
<g id="node21" class="node">
<title>Node21</title>
<g id="a_node21"><a xlink:href="speed__limit__builder_8h.html" target="_top" xlink:title=" ">
<polygon fill="white" stroke="black" points="740.5,-185 740.5,-204 862.5,-204 862.5,-185 740.5,-185"/>
<text text-anchor="middle" x="801.5" y="-192" font-family="Helvetica,sans-Serif" font-size="10.00">speed_limit_builder.h</text>
</a>
</g>
</g>
<!-- Node2&#45;&gt;Node21 -->
<g id="edge36" class="edge">
<title>Node2&#45;&gt;Node21</title>
<path fill="none" stroke="midnightblue" d="M679.12,-242.78C709.05,-231.22 753.19,-214.16 779.48,-204.01"/>
<polygon fill="midnightblue" stroke="midnightblue" points="677.63,-239.61 669.56,-246.48 680.15,-246.14 677.63,-239.61"/>
</g>
<!-- Node6 -->
<g id="node6" class="node">
<title>Node6</title>
<g id="a_node6"><a xlink:href="road__geometry_8h.html" target="_top" xlink:title=" ">
<polygon fill="white" stroke="black" points="1207.5,-118 1207.5,-137 1305.5,-137 1305.5,-118 1207.5,-118"/>
<text text-anchor="middle" x="1256.5" y="-125" font-family="Helvetica,sans-Serif" font-size="10.00">road_geometry.h</text>
</a>
</g>
</g>
<!-- Node5&#45;&gt;Node6 -->
<g id="edge5" class="edge">
<title>Node5&#45;&gt;Node6</title>
<path fill="none" stroke="midnightblue" d="M1180.22,-179.09C1199.61,-166.24 1227.36,-147.83 1243.49,-137.13"/>
<polygon fill="midnightblue" stroke="midnightblue" points="1178.12,-176.29 1171.72,-184.73 1181.98,-182.12 1178.12,-176.29"/>
</g>
<!-- Node5&#45;&gt;Node8 -->
<g id="edge12" class="edge">
<title>Node5&#45;&gt;Node8</title>
<path fill="none" stroke="midnightblue" d="M1195.9,-181.99C1241.47,-167.87 1312.68,-145.5 1314.5,-143 1329.25,-122.72 1321.55,-90.68 1316.61,-75.51"/>
<polygon fill="midnightblue" stroke="midnightblue" points="1194.84,-178.65 1186.32,-184.95 1196.91,-185.34 1194.84,-178.65"/>
</g>
<!-- Node6&#45;&gt;Node3 -->
<g id="edge6" class="edge">
<title>Node6&#45;&gt;Node3</title>
<path fill="none" stroke="midnightblue" d="M1197.35,-117.06C1114.65,-103.87 968,-80.48 909.07,-71.08"/>
<polygon fill="midnightblue" stroke="midnightblue" points="1196.93,-120.54 1207.35,-118.66 1198.03,-113.63 1196.93,-120.54"/>
</g>
<!-- Node6&#45;&gt;Node4 -->
<g id="edge7" class="edge">
<title>Node6&#45;&gt;Node4</title>
<path fill="none" stroke="midnightblue" d="M1214.88,-115.4C1171.57,-103.84 1104.69,-86 1065.39,-75.51"/>
<polygon fill="midnightblue" stroke="midnightblue" points="1213.99,-118.78 1224.55,-117.98 1215.79,-112.02 1213.99,-118.78"/>
</g>
<!-- Node7 -->
<g id="node7" class="node">
<title>Node7</title>
<g id="a_node7"><a xlink:href="builder__tools_8cc.html" target="_top" xlink:title=" ">
<polygon fill="white" stroke="black" points="1401,-56.5 1401,-75.5 1494,-75.5 1494,-56.5 1401,-56.5"/>
<text text-anchor="middle" x="1447.5" y="-63.5" font-family="Helvetica,sans-Serif" font-size="10.00">builder_tools.cc</text>
</a>
</g>
</g>
<!-- Node6&#45;&gt;Node7 -->
<g id="edge8" class="edge">
<title>Node6&#45;&gt;Node7</title>
<path fill="none" stroke="midnightblue" d="M1293.8,-114.88C1330.93,-103.32 1387.02,-85.84 1420.19,-75.51"/>
<polygon fill="midnightblue" stroke="midnightblue" points="1292.37,-111.66 1283.87,-117.98 1294.45,-118.34 1292.37,-111.66"/>
</g>
<!-- Node6&#45;&gt;Node8 -->
<g id="edge9" class="edge">
<title>Node6&#45;&gt;Node8</title>
<path fill="none" stroke="midnightblue" d="M1271.83,-110.5C1282.62,-99.24 1296.64,-84.6 1305.35,-75.51"/>
<polygon fill="midnightblue" stroke="midnightblue" points="1269.06,-108.33 1264.67,-117.98 1274.11,-113.18 1269.06,-108.33"/>
</g>
<!-- Node9 -->
<g id="node9" class="node">
<title>Node9</title>
<g id="a_node9"><a xlink:href="road__geometry__builder_8cc.html" target="_top" xlink:title=" ">
<polygon fill="white" stroke="black" points="1974,-0.5 1974,-19.5 2117,-19.5 2117,-0.5 1974,-0.5"/>
<text text-anchor="middle" x="2045.5" y="-7.5" font-family="Helvetica,sans-Serif" font-size="10.00">road_geometry_builder.cc</text>
</a>
</g>
</g>
<!-- Node8&#45;&gt;Node9 -->
<g id="edge10" class="edge">
<title>Node8&#45;&gt;Node9</title>
<path fill="none" stroke="midnightblue" d="M1393.29,-55.97C1611.1,-36.26 1855.49,-21.54 1973.91,-14.89"/>
<polygon fill="midnightblue" stroke="midnightblue" points="1392.91,-52.49 1383.27,-56.88 1393.55,-59.46 1392.91,-52.49"/>
</g>
<!-- Node10 -->
<g id="node10" class="node">
<title>Node10</title>
<g id="a_node10"><a xlink:href="road__network__builder_8cc.html" target="_top" xlink:title=" ">
<polygon fill="white" stroke="black" points="343.5,-0.5 343.5,-19.5 479.5,-19.5 479.5,-0.5 343.5,-0.5"/>
<text text-anchor="middle" x="411.5" y="-7.5" font-family="Helvetica,sans-Serif" font-size="10.00">road_network_builder.cc</text>
</a>
</g>
</g>
<!-- Node8&#45;&gt;Node10 -->
<g id="edge11" class="edge">
<title>Node8&#45;&gt;Node10</title>
<path fill="none" stroke="midnightblue" d="M1233.67,-60.22C1058.61,-49.74 643.54,-24.89 479.71,-15.08"/>
<polygon fill="midnightblue" stroke="midnightblue" points="1233.65,-63.73 1243.85,-60.83 1234.07,-56.74 1233.65,-63.73"/>
</g>
<!-- Node11&#45;&gt;Node7 -->
<g id="edge14" class="edge">
<title>Node11&#45;&gt;Node7</title>
<path fill="none" stroke="midnightblue" d="M1097.58,-182.76C1103.6,-181.46 1109.69,-180.17 1115.5,-179 1203.6,-161.21 1230.04,-173.74 1314.5,-143 1362.48,-125.54 1413.3,-91.52 1435.72,-75.6"/>
<polygon fill="midnightblue" stroke="midnightblue" points="1096.59,-179.4 1087.57,-184.96 1098.09,-186.23 1096.59,-179.4"/>
</g>
<!-- Node11&#45;&gt;Node8 -->
<g id="edge16" class="edge">
<title>Node11&#45;&gt;Node8</title>
<path fill="none" stroke="midnightblue" d="M1080.42,-180.8C1101.84,-171.32 1131.07,-157.52 1155.5,-143 1175.75,-130.96 1177.81,-123.27 1198.5,-112 1227.12,-96.41 1262.29,-83.47 1286.15,-75.53"/>
<polygon fill="midnightblue" stroke="midnightblue" points="1078.94,-177.63 1071.18,-184.85 1081.75,-184.05 1078.94,-177.63"/>
</g>
<!-- Node11&#45;&gt;Node10 -->
<g id="edge17" class="edge">
<title>Node11&#45;&gt;Node10</title>
<path fill="none" stroke="midnightblue" d="M1081.45,-180.34C1096.77,-172.05 1113.81,-159.71 1122.5,-143 1141.31,-106.84 1127.61,-78.32 1093.5,-56 1043.02,-22.97 642.32,-14.02 479.71,-11.74"/>
<polygon fill="midnightblue" stroke="midnightblue" points="1079.58,-177.36 1072.22,-184.99 1082.72,-183.62 1079.58,-177.36"/>
</g>
<!-- Node12 -->
<g id="node12" class="node">
<title>Node12</title>
<g id="a_node12"><a xlink:href="direction__usage__builder_8cc.html" target="_top" xlink:title=" ">
<polygon fill="white" stroke="black" points="477.5,-118 477.5,-137 623.5,-137 623.5,-118 477.5,-118"/>
<text text-anchor="middle" x="550.5" y="-125" font-family="Helvetica,sans-Serif" font-size="10.00">direction_usage_builder.cc</text>
</a>
</g>
</g>
<!-- Node11&#45;&gt;Node12 -->
<g id="edge15" class="edge">
<title>Node11&#45;&gt;Node12</title>
<path fill="none" stroke="midnightblue" d="M995.52,-187.83C915.47,-179.35 762.24,-162.29 632.5,-143 620.77,-141.26 608.15,-139.14 596.4,-137.07"/>
<polygon fill="midnightblue" stroke="midnightblue" points="995.54,-191.35 1005.85,-188.92 996.27,-184.39 995.54,-191.35"/>
</g>
<!-- Node13 -->
<g id="node13" class="node">
<title>Node13</title>
<g id="a_node13"><a xlink:href="road__rulebook__builder_8cc.html" target="_top" xlink:title=" ">
<polygon fill="white" stroke="black" points="830,-118 830,-137 969,-137 969,-118 830,-118"/>
<text text-anchor="middle" x="899.5" y="-125" font-family="Helvetica,sans-Serif" font-size="10.00">road_rulebook_builder.cc</text>
</a>
</g>
</g>
<!-- Node11&#45;&gt;Node13 -->
<g id="edge18" class="edge">
<title>Node11&#45;&gt;Node13</title>
<path fill="none" stroke="midnightblue" d="M1020.95,-180.78C991.05,-167.91 945.62,-148.35 919.63,-137.17"/>
<polygon fill="midnightblue" stroke="midnightblue" points="1019.88,-184.13 1030.45,-184.87 1022.65,-177.7 1019.88,-184.13"/>
</g>
<!-- Node14 -->
<g id="node14" class="node">
<title>Node14</title>
<g id="a_node14"><a xlink:href="road__rulebook__builder__old__rules_8cc.html" target="_top" xlink:title=" ">
<polygon fill="white" stroke="black" points="258,-112.5 258,-142.5 383,-142.5 383,-112.5 258,-112.5"/>
<text text-anchor="start" x="266" y="-130.5" font-family="Helvetica,sans-Serif" font-size="10.00">road_rulebook_builder</text>
<text text-anchor="middle" x="320.5" y="-119.5" font-family="Helvetica,sans-Serif" font-size="10.00">_old_rules.cc</text>
</a>
</g>
</g>
<!-- Node11&#45;&gt;Node14 -->
<g id="edge19" class="edge">
<title>Node11&#45;&gt;Node14</title>
<path fill="none" stroke="midnightblue" d="M995.77,-188.96C892.61,-180.34 662.31,-160.9 468.5,-143 440.48,-140.41 409.49,-137.4 383.14,-134.79"/>
<polygon fill="midnightblue" stroke="midnightblue" points="995.69,-192.46 1005.95,-189.8 996.27,-185.48 995.69,-192.46"/>
</g>
<!-- Node15 -->
<g id="node15" class="node">
<title>Node15</title>
<g id="a_node15"><a xlink:href="rule__registry__builder_8cc.html" target="_top" xlink:title=" ">
<polygon fill="white" stroke="black" points="642,-118 642,-137 773,-137 773,-118 642,-118"/>
<text text-anchor="middle" x="707.5" y="-125" font-family="Helvetica,sans-Serif" font-size="10.00">rule_registry_builder.cc</text>
</a>
</g>
</g>
<!-- Node11&#45;&gt;Node15 -->
<g id="edge20" class="edge">
<title>Node11&#45;&gt;Node15</title>
<path fill="none" stroke="midnightblue" d="M995.66,-183.11C928.27,-170.34 815.22,-148.91 752.62,-137.05"/>
<polygon fill="midnightblue" stroke="midnightblue" points="995.18,-186.58 1005.66,-185 996.49,-179.7 995.18,-186.58"/>
</g>
<!-- Node16 -->
<g id="node16" class="node">
<title>Node16</title>
<g id="a_node16"><a xlink:href="speed__limit__builder_8cc.html" target="_top" xlink:title=" ">
<polygon fill="white" stroke="black" points="987.5,-118 987.5,-137 1113.5,-137 1113.5,-118 987.5,-118"/>
<text text-anchor="middle" x="1050.5" y="-125" font-family="Helvetica,sans-Serif" font-size="10.00">speed_limit_builder.cc</text>
</a>
</g>
</g>
<!-- Node11&#45;&gt;Node16 -->
<g id="edge21" class="edge">
<title>Node11&#45;&gt;Node16</title>
<path fill="none" stroke="midnightblue" d="M1050.5,-174.54C1050.5,-162.17 1050.5,-146.62 1050.5,-137.13"/>
<polygon fill="midnightblue" stroke="midnightblue" points="1047,-174.73 1050.5,-184.73 1054,-174.73 1047,-174.73"/>
</g>
<!-- Node17&#45;&gt;Node10 -->
<g id="edge24" class="edge">
<title>Node17&#45;&gt;Node10</title>
<path fill="none" stroke="midnightblue" d="M245.23,-175.26C241.84,-165.8 238.2,-153.96 236.5,-143 230.29,-102.86 233.49,-82.23 264.5,-56 287.12,-36.87 317.76,-25.87 345.21,-19.54"/>
<polygon fill="midnightblue" stroke="midnightblue" points="242.01,-176.64 248.82,-184.76 248.56,-174.17 242.01,-176.64"/>
</g>
<!-- Node17&#45;&gt;Node12 -->
<g id="edge23" class="edge">
<title>Node17&#45;&gt;Node12</title>
<path fill="none" stroke="midnightblue" d="M301.54,-182.8C360.18,-170.01 457.17,-148.86 511.15,-137.08"/>
<polygon fill="midnightblue" stroke="midnightblue" points="300.79,-179.38 291.76,-184.94 302.28,-186.22 300.79,-179.38"/>
</g>
<!-- Node18&#45;&gt;Node10 -->
<g id="edge27" class="edge">
<title>Node18&#45;&gt;Node10</title>
<path fill="none" stroke="midnightblue" d="M497.68,-181.94C475.21,-174.47 450.91,-162.39 435.5,-143 405.5,-105.26 408.32,-42.25 410.5,-19.51"/>
<polygon fill="midnightblue" stroke="midnightblue" points="496.92,-185.37 507.51,-184.96 498.98,-178.68 496.92,-185.37"/>
</g>
<!-- Node18&#45;&gt;Node13 -->
<g id="edge28" class="edge">
<title>Node18&#45;&gt;Node13</title>
<path fill="none" stroke="midnightblue" d="M608.36,-183.04C676.6,-170.25 790.77,-148.87 853.95,-137.03"/>
<polygon fill="midnightblue" stroke="midnightblue" points="607.41,-179.65 598.22,-184.94 608.69,-186.53 607.41,-179.65"/>
</g>
<!-- Node18&#45;&gt;Node14 -->
<g id="edge29" class="edge">
<title>Node18&#45;&gt;Node14</title>
<path fill="none" stroke="midnightblue" d="M511.91,-182.13C472.58,-171.11 412.83,-154.37 370.57,-142.53"/>
<polygon fill="midnightblue" stroke="midnightblue" points="511.12,-185.54 521.69,-184.87 513.01,-178.8 511.12,-185.54"/>
</g>
<!-- Node19&#45;&gt;Node10 -->
<g id="edge31" class="edge">
<title>Node19&#45;&gt;Node10</title>
<path fill="none" stroke="midnightblue" d="M84.49,-172C116.59,-141.79 179.37,-86.99 242.5,-56 279.3,-37.94 324.28,-26.41 358.59,-19.55"/>
<polygon fill="midnightblue" stroke="midnightblue" points="81.84,-169.7 77.01,-179.13 86.66,-174.77 81.84,-169.7"/>
</g>
<!-- Node19&#45;&gt;Node14 -->
<g id="edge32" class="edge">
<title>Node19&#45;&gt;Node14</title>
<path fill="none" stroke="midnightblue" d="M128.05,-176.98C170.2,-166.37 224.36,-152.72 264.49,-142.61"/>
<polygon fill="midnightblue" stroke="midnightblue" points="127.01,-173.64 118.16,-179.48 128.72,-180.43 127.01,-173.64"/>
</g>
<!-- Node20&#45;&gt;Node10 -->
<g id="edge34" class="edge">
<title>Node20&#45;&gt;Node10</title>
<path fill="none" stroke="midnightblue" d="M349.33,-182.79C309.51,-173.8 260.7,-159.77 248.5,-143 206.3,-84.99 325.58,-38.09 382.79,-19.56"/>
<polygon fill="midnightblue" stroke="midnightblue" points="348.72,-186.23 359.24,-184.96 350.22,-179.4 348.72,-186.23"/>
</g>
<!-- Node20&#45;&gt;Node15 -->
<g id="edge35" class="edge">
<title>Node20&#45;&gt;Node15</title>
<path fill="none" stroke="midnightblue" d="M454.36,-182.8C513.99,-170.01 612.6,-148.86 667.49,-137.08"/>
<polygon fill="midnightblue" stroke="midnightblue" points="453.47,-179.42 444.42,-184.94 454.94,-186.26 453.47,-179.42"/>
</g>
<!-- Node21&#45;&gt;Node10 -->
<g id="edge37" class="edge">
<title>Node21&#45;&gt;Node10</title>
<path fill="none" stroke="midnightblue" d="M802.03,-174.7C801.51,-156.3 797.75,-128.68 781.5,-112 738.22,-67.59 562.07,-34.34 469.3,-19.52"/>
<polygon fill="midnightblue" stroke="midnightblue" points="798.53,-174.78 802.03,-184.78 805.53,-174.78 798.53,-174.78"/>
</g>
<!-- Node21&#45;&gt;Node16 -->
<g id="edge38" class="edge">
<title>Node21&#45;&gt;Node16</title>
<path fill="none" stroke="midnightblue" d="M844.01,-182.4C893.15,-169.58 972.98,-148.74 1017.62,-137.08"/>
<polygon fill="midnightblue" stroke="midnightblue" points="843.1,-179.02 834.31,-184.94 844.87,-185.8 843.1,-179.02"/>
</g>
<!-- Node24 -->
<g id="node24" class="node">
<title>Node24</title>
<g id="a_node24"><a xlink:href="lane__section_8cc.html" target="_top" xlink:title=" ">
<polygon fill="white" stroke="black" points="1339.5,-302.5 1339.5,-321.5 1431.5,-321.5 1431.5,-302.5 1339.5,-302.5"/>
<text text-anchor="middle" x="1385.5" y="-309.5" font-family="Helvetica,sans-Serif" font-size="10.00">lane_section.cc</text>
</a>
</g>
</g>
<!-- Node23&#45;&gt;Node24 -->
<g id="edge42" class="edge">
<title>Node23&#45;&gt;Node24</title>
<path fill="none" stroke="midnightblue" d="M1287.89,-354.5C1311.7,-344.38 1344.61,-330.39 1365.47,-321.52"/>
<polygon fill="midnightblue" stroke="midnightblue" points="1286.46,-351.31 1278.62,-358.44 1289.2,-357.75 1286.46,-351.31"/>
</g>
<!-- Node25 -->
<g id="node25" class="node">
<title>Node25</title>
<g id="a_node25"><a xlink:href="lanes_8h.html" target="_top" xlink:title=" ">
<polygon fill="white" stroke="black" points="1269.5,-302.5 1269.5,-321.5 1321.5,-321.5 1321.5,-302.5 1269.5,-302.5"/>
<text text-anchor="middle" x="1295.5" y="-309.5" font-family="Helvetica,sans-Serif" font-size="10.00">lanes.h</text>
</a>
</g>
</g>
<!-- Node23&#45;&gt;Node25 -->
<g id="edge43" class="edge">
<title>Node23&#45;&gt;Node25</title>
<path fill="none" stroke="midnightblue" d="M1270.45,-349.57C1276.81,-340.27 1284.37,-329.25 1289.5,-321.75"/>
<polygon fill="midnightblue" stroke="midnightblue" points="1267.37,-347.86 1264.61,-358.08 1273.15,-351.81 1267.37,-347.86"/>
</g>
<!-- Node23&#45;&gt;Node27 -->
<g id="edge66" class="edge">
<title>Node23&#45;&gt;Node27</title>
<path fill="none" stroke="midnightblue" d="M1258.36,-348.09C1258.43,-335.09 1258.89,-317.46 1260.5,-302 1264.31,-265.39 1273.42,-222.41 1277.49,-204.27"/>
<polygon fill="midnightblue" stroke="midnightblue" points="1254.86,-348.14 1258.36,-358.14 1261.86,-348.14 1254.86,-348.14"/>
</g>
<!-- Node26 -->
<g id="node26" class="node">
<title>Node26</title>
<g id="a_node26"><a xlink:href="lanes_8cc.html" target="_top" xlink:title=" ">
<polygon fill="white" stroke="black" points="1307.5,-246.5 1307.5,-265.5 1363.5,-265.5 1363.5,-246.5 1307.5,-246.5"/>
<text text-anchor="middle" x="1335.5" y="-253.5" font-family="Helvetica,sans-Serif" font-size="10.00">lanes.cc</text>
</a>
</g>
</g>
<!-- Node25&#45;&gt;Node26 -->
<g id="edge44" class="edge">
<title>Node25&#45;&gt;Node26</title>
<path fill="none" stroke="midnightblue" d="M1308.2,-293.86C1315.13,-284.5 1323.41,-273.33 1329.02,-265.75"/>
<polygon fill="midnightblue" stroke="midnightblue" points="1305.25,-291.96 1302.11,-302.08 1310.87,-296.13 1305.25,-291.96"/>
</g>
<!-- Node25&#45;&gt;Node27 -->
<g id="edge45" class="edge">
<title>Node25&#45;&gt;Node27</title>
<path fill="none" stroke="midnightblue" d="M1292.89,-292.16C1289.39,-266.87 1283.3,-222.94 1280.72,-204.28"/>
<polygon fill="midnightblue" stroke="midnightblue" points="1289.46,-292.89 1294.3,-302.32 1296.39,-291.93 1289.46,-292.89"/>
</g>
<!-- Node28 -->
<g id="node28" class="node">
<title>Node28</title>
<g id="a_node28"><a xlink:href="road__header_8h.html" target="_top" xlink:title=" ">
<polygon fill="white" stroke="black" points="1381.5,-246.5 1381.5,-265.5 1467.5,-265.5 1467.5,-246.5 1381.5,-246.5"/>
<text text-anchor="middle" x="1424.5" y="-253.5" font-family="Helvetica,sans-Serif" font-size="10.00">road_header.h</text>
</a>
</g>
</g>
<!-- Node25&#45;&gt;Node28 -->
<g id="edge46" class="edge">
<title>Node25&#45;&gt;Node28</title>
<path fill="none" stroke="midnightblue" d="M1325.35,-298.5C1349.54,-288.38 1382.96,-274.39 1404.16,-265.52"/>
<polygon fill="midnightblue" stroke="midnightblue" points="1323.81,-295.35 1315.94,-302.44 1326.52,-301.81 1323.81,-295.35"/>
</g>
<!-- Node28&#45;&gt;Node7 -->
<g id="edge47" class="edge">
<title>Node28&#45;&gt;Node7</title>
<path fill="none" stroke="midnightblue" d="M1426.76,-236.5C1431.63,-196.71 1442.94,-104.26 1446.45,-75.62"/>
<polygon fill="midnightblue" stroke="midnightblue" points="1423.29,-236.08 1425.55,-246.43 1430.24,-236.93 1423.29,-236.08"/>
</g>
<!-- Node28&#45;&gt;Node11 -->
<g id="edge48" class="edge">
<title>Node28&#45;&gt;Node11</title>
<path fill="none" stroke="midnightblue" d="M1371.17,-245.84C1256.81,-228.28 1225.77,-229.99 1115.5,-210 1106.06,-208.29 1095.91,-206.16 1086.5,-204.07"/>
<polygon fill="midnightblue" stroke="midnightblue" points="1370.97,-249.35 1381.39,-247.43 1372.04,-242.44 1370.97,-249.35"/>
</g>
<!-- Node28&#45;&gt;Node27 -->
<g id="edge64" class="edge">
<title>Node28&#45;&gt;Node27</title>
<path fill="none" stroke="midnightblue" d="M1394.36,-242.63C1366.19,-231.07 1324.88,-214.12 1300.24,-204.01"/>
<polygon fill="midnightblue" stroke="midnightblue" points="1393.14,-245.92 1403.73,-246.48 1395.8,-239.44 1393.14,-245.92"/>
</g>
<!-- Node29 -->
<g id="node29" class="node">
<title>Node29</title>
<g id="a_node29"><a xlink:href="determine__tolerance_8cc.html" target="_top" xlink:title=" ">
<polygon fill="white" stroke="black" points="2145,-56.5 2145,-75.5 2276,-75.5 2276,-56.5 2145,-56.5"/>
<text text-anchor="middle" x="2210.5" y="-63.5" font-family="Helvetica,sans-Serif" font-size="10.00">determine_tolerance.cc</text>
</a>
</g>
</g>
<!-- Node28&#45;&gt;Node29 -->
<g id="edge49" class="edge">
<title>Node28&#45;&gt;Node29</title>
<path fill="none" stroke="midnightblue" d="M1477.87,-248.06C1544.67,-239.34 1662.58,-223.83 1763.5,-210 1974.29,-181.11 2097.98,-303.63 2237.5,-143 2254.95,-122.91 2231.62,-90.78 2218.44,-75.54"/>
<polygon fill="midnightblue" stroke="midnightblue" points="1477.06,-244.63 1467.59,-249.4 1477.96,-251.57 1477.06,-244.63"/>
</g>
<!-- Node30 -->
<g id="node30" class="node">
<title>Node30</title>
<g id="a_node30"><a xlink:href="db__manager_8h.html" target="_top" xlink:title=" ">
<polygon fill="white" stroke="black" points="1668.5,-185 1668.5,-204 1754.5,-204 1754.5,-185 1668.5,-185"/>
<text text-anchor="middle" x="1711.5" y="-192" font-family="Helvetica,sans-Serif" font-size="10.00">db_manager.h</text>
</a>
</g>
</g>
<!-- Node28&#45;&gt;Node30 -->
<g id="edge50" class="edge">
<title>Node28&#45;&gt;Node30</title>
<path fill="none" stroke="midnightblue" d="M1475.62,-244.4C1531.26,-232.87 1619.13,-214.65 1670.46,-204.01"/>
<polygon fill="midnightblue" stroke="midnightblue" points="1474.7,-241.02 1465.62,-246.48 1476.12,-247.87 1474.7,-241.02"/>
</g>
<!-- Node38 -->
<g id="node38" class="node">
<title>Node38</title>
<g id="a_node38"><a xlink:href="road__header_8cc.html" target="_top" xlink:title=" ">
<polygon fill="white" stroke="black" points="1328,-185 1328,-204 1419,-204 1419,-185 1328,-185"/>
<text text-anchor="middle" x="1373.5" y="-192" font-family="Helvetica,sans-Serif" font-size="10.00">road_header.cc</text>
</a>
</g>
</g>
<!-- Node28&#45;&gt;Node38 -->
<g id="edge65" class="edge">
<title>Node28&#45;&gt;Node38</title>
<path fill="none" stroke="midnightblue" d="M1410.5,-238.67C1400.89,-227.45 1388.51,-213.02 1380.79,-204.01"/>
<polygon fill="midnightblue" stroke="midnightblue" points="1408.03,-241.16 1417.19,-246.48 1413.34,-236.6 1408.03,-241.16"/>
</g>
<!-- Node30&#45;&gt;Node6 -->
<g id="edge53" class="edge">
<title>Node30&#45;&gt;Node6</title>
<path fill="none" stroke="midnightblue" d="M1658.14,-185.88C1569.13,-173.16 1391.64,-147.81 1305.57,-135.51"/>
<polygon fill="midnightblue" stroke="midnightblue" points="1657.89,-189.38 1668.28,-187.33 1658.88,-182.45 1657.89,-189.38"/>
</g>
<!-- Node30&#45;&gt;Node7 -->
<g id="edge54" class="edge">
<title>Node30&#45;&gt;Node7</title>
<path fill="none" stroke="midnightblue" d="M1764.47,-189.41C1837.34,-181.88 1954.65,-161.76 1909.5,-112 1881.95,-81.64 1606.26,-71.11 1494.35,-68.07"/>
<polygon fill="midnightblue" stroke="midnightblue" points="1764.11,-185.93 1754.51,-190.39 1764.8,-192.9 1764.11,-185.93"/>
</g>
<!-- Node30&#45;&gt;Node8 -->
<g id="edge58" class="edge">
<title>Node30&#45;&gt;Node8</title>
<path fill="none" stroke="midnightblue" d="M1659.61,-182.84C1617.63,-173.72 1557.19,-159.48 1505.5,-143 1488.42,-137.55 1380.84,-94.23 1334.59,-75.54"/>
<polygon fill="midnightblue" stroke="midnightblue" points="1659.09,-186.31 1669.61,-184.99 1660.57,-179.46 1659.09,-186.31"/>
</g>
<!-- Node31 -->
<g id="node31" class="node">
<title>Node31</title>
<g id="a_node31"><a xlink:href="xodr__query_8cc.html" target="_top" xlink:title=" ">
<polygon fill="white" stroke="black" points="1514,-118 1514,-137 1597,-137 1597,-118 1514,-118"/>
<text text-anchor="middle" x="1555.5" y="-125" font-family="Helvetica,sans-Serif" font-size="10.00">xodr_query.cc</text>
</a>
</g>
</g>
<!-- Node30&#45;&gt;Node31 -->
<g id="edge51" class="edge">
<title>Node30&#45;&gt;Node31</title>
<path fill="none" stroke="midnightblue" d="M1681.38,-180.95C1650.49,-168.08 1603.27,-148.4 1576.3,-137.17"/>
<polygon fill="midnightblue" stroke="midnightblue" points="1680.21,-184.25 1690.78,-184.87 1682.9,-177.79 1680.21,-184.25"/>
</g>
<!-- Node32 -->
<g id="node32" class="node">
<title>Node32</title>
<g id="a_node32"><a xlink:href="xodr__validate_8cc.html" target="_top" xlink:title=" ">
<polygon fill="white" stroke="black" points="1615,-118 1615,-137 1712,-137 1712,-118 1615,-118"/>
<text text-anchor="middle" x="1663.5" y="-125" font-family="Helvetica,sans-Serif" font-size="10.00">xodr_validate.cc</text>
</a>
</g>
</g>
<!-- Node30&#45;&gt;Node32 -->
<g id="edge52" class="edge">
<title>Node30&#45;&gt;Node32</title>
<path fill="none" stroke="midnightblue" d="M1698.88,-176.4C1689.55,-163.77 1677.24,-147.1 1669.87,-137.13"/>
<polygon fill="midnightblue" stroke="midnightblue" points="1696.27,-178.77 1705.03,-184.73 1701.9,-174.61 1696.27,-178.77"/>
</g>
<!-- Node33 -->
<g id="node33" class="node">
<title>Node33</title>
<g id="a_node33"><a xlink:href="determine__tolerance_8h.html" target="_top" xlink:title=" ">
<polygon fill="white" stroke="black" points="2101,-118 2101,-137 2228,-137 2228,-118 2101,-118"/>
<text text-anchor="middle" x="2164.5" y="-125" font-family="Helvetica,sans-Serif" font-size="10.00">determine_tolerance.h</text>
</a>
</g>
</g>
<!-- Node30&#45;&gt;Node33 -->
<g id="edge55" class="edge">
<title>Node30&#45;&gt;Node33</title>
<path fill="none" stroke="midnightblue" d="M1764.62,-187.53C1838.23,-179 1975.33,-162.24 2091.5,-143 2102.08,-141.25 2113.47,-139.11 2124.04,-137.02"/>
<polygon fill="midnightblue" stroke="midnightblue" points="1764.19,-184.05 1754.66,-188.68 1764.99,-191.01 1764.19,-184.05"/>
</g>
<!-- Node34 -->
<g id="node34" class="node">
<title>Node34</title>
<g id="a_node34"><a xlink:href="simplify__geometries_8h.html" target="_top" xlink:title=" ">
<polygon fill="white" stroke="black" points="1956.5,-118 1956.5,-137 2082.5,-137 2082.5,-118 1956.5,-118"/>
<text text-anchor="middle" x="2019.5" y="-125" font-family="Helvetica,sans-Serif" font-size="10.00">simplify_geometries.h</text>
</a>
</g>
</g>
<!-- Node30&#45;&gt;Node34 -->
<g id="edge59" class="edge">
<title>Node30&#45;&gt;Node34</title>
<path fill="none" stroke="midnightblue" d="M1762.19,-182.8C1822.8,-170.01 1923.04,-148.86 1978.83,-137.08"/>
<polygon fill="midnightblue" stroke="midnightblue" points="1761.14,-179.45 1752.08,-184.94 1762.59,-186.3 1761.14,-179.45"/>
</g>
<!-- Node36 -->
<g id="node36" class="node">
<title>Node36</title>
<g id="a_node36"><a xlink:href="loader_8cc.html" target="_top" xlink:title=" ">
<polygon fill="white" stroke="black" points="1730,-118 1730,-137 1791,-137 1791,-118 1730,-118"/>
<text text-anchor="middle" x="1760.5" y="-125" font-family="Helvetica,sans-Serif" font-size="10.00">loader.cc</text>
</a>
</g>
</g>
<!-- Node30&#45;&gt;Node36 -->
<g id="edge62" class="edge">
<title>Node30&#45;&gt;Node36</title>
<path fill="none" stroke="midnightblue" d="M1724.39,-176.4C1733.91,-163.77 1746.48,-147.1 1754,-137.13"/>
<polygon fill="midnightblue" stroke="midnightblue" points="1721.33,-174.64 1718.11,-184.73 1726.92,-178.86 1721.33,-174.64"/>
</g>
<!-- Node37 -->
<g id="node37" class="node">
<title>Node37</title>
<g id="a_node37"><a xlink:href="db__manager_8cc.html" target="_top" xlink:title=" ">
<polygon fill="white" stroke="black" points="1809,-118 1809,-137 1900,-137 1900,-118 1809,-118"/>
<text text-anchor="middle" x="1854.5" y="-125" font-family="Helvetica,sans-Serif" font-size="10.00">db_manager.cc</text>
</a>
</g>
</g>
<!-- Node30&#45;&gt;Node37 -->
<g id="edge63" class="edge">
<title>Node30&#45;&gt;Node37</title>
<path fill="none" stroke="midnightblue" d="M1739.85,-180.61C1768.17,-167.74 1810.93,-148.31 1835.43,-137.17"/>
<polygon fill="midnightblue" stroke="midnightblue" points="1738.14,-177.54 1730.49,-184.87 1741.04,-183.92 1738.14,-177.54"/>
</g>
<!-- Node33&#45;&gt;Node9 -->
<g id="edge57" class="edge">
<title>Node33&#45;&gt;Node9</title>
<path fill="none" stroke="midnightblue" d="M2148.17,-110.65C2122.74,-85.97 2074.55,-39.19 2054.55,-19.78"/>
<polygon fill="midnightblue" stroke="midnightblue" points="2145.94,-113.37 2155.56,-117.82 2150.82,-108.34 2145.94,-113.37"/>
</g>
<!-- Node33&#45;&gt;Node29 -->
<g id="edge56" class="edge">
<title>Node33&#45;&gt;Node29</title>
<path fill="none" stroke="midnightblue" d="M2177.38,-109.84C2186.02,-98.67 2197.03,-84.43 2203.92,-75.51"/>
<polygon fill="midnightblue" stroke="midnightblue" points="2174.44,-107.92 2171.09,-117.98 2179.98,-112.2 2174.44,-107.92"/>
</g>
<!-- Node34&#45;&gt;Node9 -->
<g id="edge60" class="edge">
<title>Node34&#45;&gt;Node9</title>
<path fill="none" stroke="midnightblue" d="M2023.66,-108C2029.35,-82.76 2039.31,-38.52 2043.52,-19.78"/>
<polygon fill="midnightblue" stroke="midnightblue" points="2020.24,-107.29 2021.45,-117.82 2027.06,-108.83 2020.24,-107.29"/>
</g>
<!-- Node35 -->
<g id="node35" class="node">
<title>Node35</title>
<g id="a_node35"><a xlink:href="simplify__geometries_8cc.html" target="_top" xlink:title=" ">
<polygon fill="white" stroke="black" points="1886,-56.5 1886,-75.5 2017,-75.5 2017,-56.5 1886,-56.5"/>
<text text-anchor="middle" x="1951.5" y="-63.5" font-family="Helvetica,sans-Serif" font-size="10.00">simplify_geometries.cc</text>
</a>
</g>
</g>
<!-- Node34&#45;&gt;Node35 -->
<g id="edge61" class="edge">
<title>Node34&#45;&gt;Node35</title>
<path fill="none" stroke="midnightblue" d="M2001.96,-111.15C1988.99,-99.81 1971.82,-84.78 1961.22,-75.51"/>
<polygon fill="midnightblue" stroke="midnightblue" points="1999.93,-114.02 2009.76,-117.98 2004.54,-108.76 1999.93,-114.02"/>
</g>
</g>
</svg>
        <g id="navigator" transform="translate(0 0)" fill="#404254">
                <rect fill="#f2f5e9" fill-opacity="0.5" stroke="#606060" stroke-width=".5" x="0" y="0" width="60" height="60"/>
                <use id="zoomplus" xlink:href="#zoomPlus" x="17" y="9" onmousedown="handleZoom(evt,'in')"/>
                <use id="zoomminus" xlink:href="#zoomMin" x="42" y="9" onmousedown="handleZoom(evt,'out')"/>
                <use id="reset" xlink:href="#resetDef" x="30" y="36" onmousedown="handleReset()"/>
                <g id="arrowUp" xlink:href="#dirArrow" transform="translate(30 24)" onmousedown="handlePan(0,-1)">
                  <use xlink:href="#rim" fill="#404040">
                        <set attributeName="fill" to="#808080" begin="arrowUp.mouseover" end="arrowUp.mouseout"/>
                  </use>
                  <path fill="none" stroke="white" stroke-width="1.5" d="M0,-3.0v7 M-2.5,-0.5L0,-3.0L2.5,-0.5"/>
                </g>
                <g id="arrowRight" xlink:href="#dirArrow" transform="rotate(90) translate(36 -43)" onmousedown="handlePan(1,0)">
                  <use xlink:href="#rim" fill="#404040">
                        <set attributeName="fill" to="#808080" begin="arrowRight.mouseover" end="arrowRight.mouseout"/>
                  </use>
                  <path fill="none" stroke="white" stroke-width="1.5" d="M0,-3.0v7 M-2.5,-0.5L0,-3.0L2.5,-0.5"/>
                </g>
                <g id="arrowDown" xlink:href="#dirArrow" transform="rotate(180) translate(-30 -48)" onmousedown="handlePan(0,1)">
                  <use xlink:href="#rim" fill="#404040">
                        <set attributeName="fill" to="#808080" begin="arrowDown.mouseover" end="arrowDown.mouseout"/>
                  </use>
                  <path fill="none" stroke="white" stroke-width="1.5" d="M0,-3.0v7 M-2.5,-0.5L0,-3.0L2.5,-0.5"/>
                </g>
                <g id="arrowLeft" xlink:href="#dirArrow" transform="rotate(270) translate(-36 17)" onmousedown="handlePan(-1,0)">
                  <use xlink:href="#rim" fill="#404040">
                        <set attributeName="fill" to="#808080" begin="arrowLeft.mouseover" end="arrowLeft.mouseout"/>
                  </use>
                  <path fill="none" stroke="white" stroke-width="1.5" d="M0,-3.0v7 M-2.5,-0.5L0,-3.0L2.5,-0.5"/>
                </g>
        </g>
        <svg viewBox="0 0 15 15" width="100%" height="30px" preserveAspectRatio="xMaxYMin meet">
         <g id="arrow_out" transform="scale(0.3 0.3)">
          <a xlink:href="xodr_2lane_8h__dep__incl_org.svg" target="_base">
           <rect id="button" ry="5" rx="5" y="6" x="6" height="38" width="38"
                fill="#f2f5e9" fill-opacity="0.5" stroke="#606060" stroke-width="1.0"/>
           <path id="arrow"
             d="M 11.500037,31.436501 C 11.940474,20.09759 22.043105,11.32322 32.158766,21.979434 L 37.068811,17.246167 C 37.068811,17.246167 37.088388,32 37.088388,32 L 22.160133,31.978069 C 22.160133,31.978069 26.997745,27.140456 26.997745,27.140456 C 18.528582,18.264221 13.291696,25.230495 11.500037,31.436501 z"
             style="fill:#404040;"/>
          </a>
         </g>
        </svg>
</svg>
