<?xml version="1.0" encoding="UTF-8" standalone="no"?>
<!DOCTYPE svg PUBLIC "-//W3C//DTD SVG 1.1//EN"
 "http://www.w3.org/Graphics/SVG/1.1/DTD/svg11.dtd">
<!-- Generated by graphviz version 2.43.0 (0)
 -->
<!-- Title: arc_road_curve.h Pages: 1 -->
<!--zoomable 229 -->
<svg id="main" version="1.1" xmlns="http://www.w3.org/2000/svg" xmlns:xlink="http://www.w3.org/1999/xlink" xml:space="preserve" onload="init(evt)">
<style type="text/css"><![CDATA[
.edge:hover path { stroke: red; }
.edge:hover polygon { stroke: red; fill: red; }
]]></style>
<script type="text/javascript"><![CDATA[
var edges = document.getElementsByTagName('g');
if (edges && edges.length) {
  for (var i=0;i<edges.length;i++) {
    if (edges[i].id.substr(0,4)=='edge') {
      edges[i].setAttribute('class','edge');
    }
  }
}
]]></script>
        <defs>
                <circle id="rim" cx="0" cy="0" r="7"/>
                <circle id="rim2" cx="0" cy="0" r="3.5"/>
                <g id="zoomPlus">
                        <use xlink:href="#rim" fill="#404040">
                                <set attributeName="fill" to="#808080" begin="zoomplus.mouseover" end="zoomplus.mouseout"/>
                        </use>
                        <path d="M-4,0h8M0,-4v8" fill="none" stroke="white" stroke-width="1.5" pointer-events="none"/>
                </g>
                <g id="zoomMin">
                        <use xlink:href="#rim" fill="#404040">
                                <set attributeName="fill" to="#808080" begin="zoomminus.mouseover" end="zoomminus.mouseout"/>
                        </use>
                        <path d="M-4,0h8" fill="none" stroke="white" stroke-width="1.5" pointer-events="none"/>
                </g>
                <g id="dirArrow">
                        <path fill="none" stroke="white" stroke-width="1.5" d="M0,-3.0v7 M-2.5,-0.5L0,-3.0L2.5,-0.5"/>
                </g>
               <g id="resetDef">
                       <use xlink:href="#rim2" fill="#404040">
                               <set attributeName="fill" to="#808080" begin="reset.mouseover" end="reset.mouseout"/>
                       </use>
               </g>
        </defs>

<script type="text/javascript">
var viewWidth = 1467;
var viewHeight = 229;
var sectionId = 'dynsection-0';
</script>
<script xlink:href="svgpan.js"/>
<svg id="graph" class="graph">
<g id="viewport">
<title>arc_road_curve.h</title>
<polygon fill="white" stroke="transparent" points="-4,4 -4,-225 1463,-225 1463,4 -4,4"/>
<!-- Node1 -->
<g id="node1" class="node">
<title>Node1</title>
<g id="a_node1"><a xlink:title=" ">
<polygon fill="#bfbfbf" stroke="black" points="191,-201.5 191,-220.5 291,-220.5 291,-201.5 191,-201.5"/>
<text text-anchor="middle" x="241" y="-208.5" font-family="Helvetica,sans-Serif" font-size="10.00">arc_road_curve.h</text>
</a>
</g>
</g>
<!-- Node2 -->
<g id="node2" class="node">
<title>Node2</title>
<g id="a_node2"><a xlink:title=" ">
<polygon fill="white" stroke="#bfbfbf" points="146.5,-6 146.5,-25 193.5,-25 193.5,-6 146.5,-6"/>
<text text-anchor="middle" x="170" y="-13" font-family="Helvetica,sans-Serif" font-size="10.00">cmath</text>
</a>
</g>
</g>
<!-- Node1&#45;&gt;Node2 -->
<g id="edge1" class="edge">
<title>Node1&#45;&gt;Node2</title>
<path fill="none" stroke="midnightblue" d="M190.83,-206.97C132.4,-202.26 41.15,-190.89 20,-165 -7.56,-131.27 -5.42,-102.37 20,-67 46.3,-30.4 100.48,-19.97 136.01,-17.2"/>
<polygon fill="midnightblue" stroke="midnightblue" points="136.62,-20.67 146.39,-16.56 136.19,-13.68 136.62,-20.67"/>
</g>
<!-- Node3 -->
<g id="node3" class="node">
<title>Node3</title>
<g id="a_node3"><a xlink:href="../../maliput/html/maliput__copyable_8h.html.html" xlink:title=" ">
<polygon fill="white" stroke="black" points="1319,-0.5 1319,-30.5 1459,-30.5 1459,-0.5 1319,-0.5"/>
<text text-anchor="start" x="1327" y="-18.5" font-family="Helvetica,sans-Serif" font-size="10.00">maliput/common/maliput</text>
<text text-anchor="middle" x="1389" y="-7.5" font-family="Helvetica,sans-Serif" font-size="10.00">_copyable.h</text>
</a>
</g>
</g>
<!-- Node1&#45;&gt;Node3 -->
<g id="edge2" class="edge">
<title>Node1&#45;&gt;Node3</title>
<path fill="none" stroke="midnightblue" d="M291.21,-209.08C503.36,-204.67 1318.78,-182.32 1392,-98 1405.5,-82.45 1402.69,-58.26 1397.75,-40.27"/>
<polygon fill="midnightblue" stroke="midnightblue" points="1401.02,-39 1394.7,-30.5 1394.34,-41.09 1401.02,-39"/>
</g>
<!-- Node4 -->
<g id="node4" class="node">
<title>Node4</title>
<g id="a_node4"><a xlink:href="../../maliput/html/maliput__throw_8h.html.html" xlink:title=" ">
<polygon fill="white" stroke="black" points="73,-134.5 73,-164.5 213,-164.5 213,-134.5 73,-134.5"/>
<text text-anchor="start" x="81" y="-152.5" font-family="Helvetica,sans-Serif" font-size="10.00">maliput/common/maliput</text>
<text text-anchor="middle" x="143" y="-141.5" font-family="Helvetica,sans-Serif" font-size="10.00">_throw.h</text>
</a>
</g>
</g>
<!-- Node1&#45;&gt;Node4 -->
<g id="edge3" class="edge">
<title>Node1&#45;&gt;Node4</title>
<path fill="none" stroke="midnightblue" d="M226.96,-201.48C213.44,-193.27 192.5,-180.56 174.92,-169.88"/>
<polygon fill="midnightblue" stroke="midnightblue" points="176.46,-166.72 166.09,-164.52 172.83,-172.7 176.46,-166.72"/>
</g>
<!-- Node5 -->
<g id="node5" class="node">
<title>Node5</title>
<g id="a_node5"><a xlink:href="../../maliput/html/maliput__unused_8h.html.html" xlink:title=" ">
<polygon fill="white" stroke="black" points="559,-0.5 559,-30.5 699,-30.5 699,-0.5 559,-0.5"/>
<text text-anchor="start" x="567" y="-18.5" font-family="Helvetica,sans-Serif" font-size="10.00">maliput/common/maliput</text>
<text text-anchor="middle" x="629" y="-7.5" font-family="Helvetica,sans-Serif" font-size="10.00">_unused.h</text>
</a>
</g>
</g>
<!-- Node1&#45;&gt;Node5 -->
<g id="edge4" class="edge">
<title>Node1&#45;&gt;Node5</title>
<path fill="none" stroke="midnightblue" d="M190.86,-203.5C144.68,-196.45 80.85,-183.64 64,-165 34.64,-132.52 24.42,-99.28 54,-67 86.75,-31.24 398.67,-20.69 548.89,-17.67"/>
<polygon fill="midnightblue" stroke="midnightblue" points="549.06,-21.16 558.99,-17.47 548.92,-14.16 549.06,-21.16"/>
</g>
<!-- Node6 -->
<g id="node6" class="node">
<title>Node6</title>
<g id="a_node6"><a xlink:href="../../maliput/html/vector_8h.html.html" xlink:title=" ">
<polygon fill="white" stroke="black" points="62.5,-73 62.5,-92 187.5,-92 187.5,-73 62.5,-73"/>
<text text-anchor="middle" x="125" y="-80" font-family="Helvetica,sans-Serif" font-size="10.00">maliput/math/vector.h</text>
</a>
</g>
</g>
<!-- Node1&#45;&gt;Node6 -->
<g id="edge5" class="edge">
<title>Node1&#45;&gt;Node6</title>
<path fill="none" stroke="midnightblue" d="M241.05,-201.5C240.72,-186.33 238,-154.29 222,-134 207.65,-115.81 184.94,-103.49 165.1,-95.57"/>
<polygon fill="midnightblue" stroke="midnightblue" points="166.23,-92.26 155.64,-92.03 163.78,-98.81 166.23,-92.26"/>
</g>
<!-- Node7 -->
<g id="node7" class="node">
<title>Node7</title>
<g id="a_node7"><a xlink:href="computation__policy_8h.html" target="_top" xlink:title=" ">
<polygon fill="white" stroke="black" points="206,-67.5 206,-97.5 376,-97.5 376,-67.5 206,-67.5"/>
<text text-anchor="start" x="214" y="-85.5" font-family="Helvetica,sans-Serif" font-size="10.00">maliput_multilane/computation</text>
<text text-anchor="middle" x="291" y="-74.5" font-family="Helvetica,sans-Serif" font-size="10.00">_policy.h</text>
</a>
</g>
</g>
<!-- Node1&#45;&gt;Node7 -->
<g id="edge6" class="edge">
<title>Node1&#45;&gt;Node7</title>
<path fill="none" stroke="midnightblue" d="M244.43,-201.31C251.98,-182.21 270.22,-136.07 281.5,-107.52"/>
<polygon fill="midnightblue" stroke="midnightblue" points="284.89,-108.47 285.31,-97.89 278.38,-105.9 284.89,-108.47"/>
</g>
<!-- Node8 -->
<g id="node8" class="node">
<title>Node8</title>
<g id="a_node8"><a xlink:href="road__curve_8h.html" target="_top" xlink:title=" ">
<polygon fill="white" stroke="black" points="778.5,-134.5 778.5,-164.5 909.5,-164.5 909.5,-134.5 778.5,-134.5"/>
<text text-anchor="start" x="786.5" y="-152.5" font-family="Helvetica,sans-Serif" font-size="10.00">maliput_multilane/road</text>
<text text-anchor="middle" x="844" y="-141.5" font-family="Helvetica,sans-Serif" font-size="10.00">_curve.h</text>
</a>
</g>
</g>
<!-- Node1&#45;&gt;Node8 -->
<g id="edge7" class="edge">
<title>Node1&#45;&gt;Node8</title>
<path fill="none" stroke="midnightblue" d="M291.11,-205.05C396.81,-194.63 643.08,-170.32 768.18,-157.98"/>
<polygon fill="midnightblue" stroke="midnightblue" points="768.82,-161.43 778.43,-156.97 768.14,-154.47 768.82,-161.43"/>
</g>
<!-- Node8&#45;&gt;Node3 -->
<g id="edge12" class="edge">
<title>Node8&#45;&gt;Node3</title>
<path fill="none" stroke="midnightblue" d="M909.52,-146.43C1042.84,-141.62 1335.99,-127.75 1370,-98 1385.99,-84.01 1389.91,-59.39 1390.33,-40.87"/>
<polygon fill="midnightblue" stroke="midnightblue" points="1393.83,-40.75 1390.24,-30.79 1386.83,-40.82 1393.83,-40.75"/>
</g>
<!-- Node8&#45;&gt;Node6 -->
<g id="edge16" class="edge">
<title>Node8&#45;&gt;Node6</title>
<path fill="none" stroke="midnightblue" d="M778.05,-145.99C660.72,-140.93 408.19,-127.4 197,-98 189.18,-96.91 180.94,-95.5 172.93,-93.99"/>
<polygon fill="midnightblue" stroke="midnightblue" points="173.45,-90.53 162.96,-92.04 172.1,-97.4 173.45,-90.53"/>
</g>
<!-- Node8&#45;&gt;Node7 -->
<g id="edge17" class="edge">
<title>Node8&#45;&gt;Node7</title>
<path fill="none" stroke="midnightblue" d="M778.14,-142.16C690.91,-133.57 532.02,-117.2 386.07,-98.11"/>
<polygon fill="midnightblue" stroke="midnightblue" points="386.4,-94.62 376.03,-96.79 385.49,-101.56 386.4,-94.62"/>
</g>
<!-- Node9 -->
<g id="node9" class="node">
<title>Node9</title>
<g id="a_node9"><a xlink:title=" ">
<polygon fill="white" stroke="#bfbfbf" points="1005.5,-73 1005.5,-92 1070.5,-92 1070.5,-73 1005.5,-73"/>
<text text-anchor="middle" x="1038" y="-80" font-family="Helvetica,sans-Serif" font-size="10.00">functional</text>
</a>
</g>
</g>
<!-- Node8&#45;&gt;Node9 -->
<g id="edge8" class="edge">
<title>Node8&#45;&gt;Node9</title>
<path fill="none" stroke="midnightblue" d="M886.63,-134.48C917.12,-124.42 959.13,-110.49 996,-98 998.43,-97.18 1000.93,-96.32 1003.46,-95.46"/>
<polygon fill="midnightblue" stroke="midnightblue" points="1004.82,-98.69 1013.14,-92.14 1002.55,-92.07 1004.82,-98.69"/>
</g>
<!-- Node10 -->
<g id="node10" class="node">
<title>Node10</title>
<g id="a_node10"><a xlink:title=" ">
<polygon fill="white" stroke="#bfbfbf" points="1089,-73 1089,-92 1147,-92 1147,-73 1089,-73"/>
<text text-anchor="middle" x="1118" y="-80" font-family="Helvetica,sans-Serif" font-size="10.00">memory</text>
</a>
</g>
</g>
<!-- Node8&#45;&gt;Node10 -->
<g id="edge9" class="edge">
<title>Node8&#45;&gt;Node10</title>
<path fill="none" stroke="midnightblue" d="M909.53,-137.28C957.27,-128.43 1023.25,-114.79 1080,-98 1082.57,-97.24 1085.23,-96.38 1087.87,-95.48"/>
<polygon fill="midnightblue" stroke="midnightblue" points="1089.08,-98.76 1097.29,-92.06 1086.69,-92.18 1089.08,-98.76"/>
</g>
<!-- Node11 -->
<g id="node11" class="node">
<title>Node11</title>
<g id="a_node11"><a xlink:title=" ">
<polygon fill="white" stroke="#bfbfbf" points="1165.5,-73 1165.5,-92 1210.5,-92 1210.5,-73 1165.5,-73"/>
<text text-anchor="middle" x="1188" y="-80" font-family="Helvetica,sans-Serif" font-size="10.00">utility</text>
</a>
</g>
</g>
<!-- Node8&#45;&gt;Node11 -->
<g id="edge10" class="edge">
<title>Node8&#45;&gt;Node11</title>
<path fill="none" stroke="midnightblue" d="M909.67,-142.97C973.6,-136.41 1072.99,-123.04 1156,-98 1157.92,-97.42 1159.89,-96.75 1161.84,-96.02"/>
<polygon fill="midnightblue" stroke="midnightblue" points="1163.5,-99.12 1171.38,-92.04 1160.8,-92.66 1163.5,-99.12"/>
</g>
<!-- Node12 -->
<g id="node12" class="node">
<title>Node12</title>
<g id="a_node12"><a xlink:href="../../maliput/html/lane__data_8h.html.html" xlink:title=" ">
<polygon fill="white" stroke="black" points="1229,-73 1229,-92 1361,-92 1361,-73 1229,-73"/>
<text text-anchor="middle" x="1295" y="-80" font-family="Helvetica,sans-Serif" font-size="10.00">maliput/api/lane_data.h</text>
</a>
</g>
</g>
<!-- Node8&#45;&gt;Node12 -->
<g id="edge11" class="edge">
<title>Node8&#45;&gt;Node12</title>
<path fill="none" stroke="midnightblue" d="M909.71,-140.83C984.89,-131.8 1111.61,-115.74 1220,-98 1227.46,-96.78 1235.32,-95.38 1243.03,-93.95"/>
<polygon fill="midnightblue" stroke="midnightblue" points="1243.85,-97.35 1253.03,-92.06 1242.55,-90.48 1243.85,-97.35"/>
</g>
<!-- Node13 -->
<g id="node13" class="node">
<title>Node13</title>
<g id="a_node13"><a xlink:href="../../maliput/html/arc__length__integrator_8h.html.html" xlink:title=" ">
<polygon fill="white" stroke="black" points="394,-67.5 394,-97.5 532,-97.5 532,-67.5 394,-67.5"/>
<text text-anchor="start" x="402" y="-85.5" font-family="Helvetica,sans-Serif" font-size="10.00">maliput/drake/arc_length</text>
<text text-anchor="middle" x="463" y="-74.5" font-family="Helvetica,sans-Serif" font-size="10.00">_integrator.h</text>
</a>
</g>
</g>
<!-- Node8&#45;&gt;Node13 -->
<g id="edge13" class="edge">
<title>Node8&#45;&gt;Node13</title>
<path fill="none" stroke="midnightblue" d="M778.26,-137.82C719.26,-128.16 630.02,-113.37 542.22,-98.02"/>
<polygon fill="midnightblue" stroke="midnightblue" points="542.8,-94.57 532.35,-96.29 541.59,-101.47 542.8,-94.57"/>
</g>
<!-- Node14 -->
<g id="node14" class="node">
<title>Node14</title>
<g id="a_node14"><a xlink:href="../../maliput/html/inverse__arc__length__integrator_8h.html.html" xlink:title=" ">
<polygon fill="white" stroke="black" points="550.5,-67.5 550.5,-97.5 685.5,-97.5 685.5,-67.5 550.5,-67.5"/>
<text text-anchor="start" x="558.5" y="-85.5" font-family="Helvetica,sans-Serif" font-size="10.00">maliput/drake/inverse</text>
<text text-anchor="middle" x="618" y="-74.5" font-family="Helvetica,sans-Serif" font-size="10.00">_arc_length_integrator.h</text>
</a>
</g>
</g>
<!-- Node8&#45;&gt;Node14 -->
<g id="edge14" class="edge">
<title>Node8&#45;&gt;Node14</title>
<path fill="none" stroke="midnightblue" d="M795.24,-134.48C760.45,-124.47 713.51,-110.97 676.68,-100.38"/>
<polygon fill="midnightblue" stroke="midnightblue" points="677.64,-97.01 667.06,-97.61 675.7,-103.74 677.64,-97.01"/>
</g>
<!-- Node15 -->
<g id="node15" class="node">
<title>Node15</title>
<g id="a_node15"><a xlink:href="../../maliput/html/roll__pitch__yaw_8h.html.html" xlink:title=" ">
<polygon fill="white" stroke="black" points="703.5,-67.5 703.5,-97.5 834.5,-97.5 834.5,-67.5 703.5,-67.5"/>
<text text-anchor="start" x="711.5" y="-85.5" font-family="Helvetica,sans-Serif" font-size="10.00">maliput/math/roll_pitch</text>
<text text-anchor="middle" x="769" y="-74.5" font-family="Helvetica,sans-Serif" font-size="10.00">_yaw.h</text>
</a>
</g>
</g>
<!-- Node8&#45;&gt;Node15 -->
<g id="edge15" class="edge">
<title>Node8&#45;&gt;Node15</title>
<path fill="none" stroke="midnightblue" d="M827.72,-134.4C817.6,-125.62 804.4,-114.18 793.08,-104.37"/>
<polygon fill="midnightblue" stroke="midnightblue" points="795.09,-101.48 785.24,-97.58 790.5,-106.77 795.09,-101.48"/>
</g>
<!-- Node16 -->
<g id="node16" class="node">
<title>Node16</title>
<g id="a_node16"><a xlink:href="cubic__polynomial_8h.html" target="_top" xlink:title=" ">
<polygon fill="white" stroke="black" points="853,-67.5 853,-97.5 987,-97.5 987,-67.5 853,-67.5"/>
<text text-anchor="start" x="861" y="-85.5" font-family="Helvetica,sans-Serif" font-size="10.00">maliput_multilane/cubic</text>
<text text-anchor="middle" x="920" y="-74.5" font-family="Helvetica,sans-Serif" font-size="10.00">_polynomial.h</text>
</a>
</g>
</g>
<!-- Node8&#45;&gt;Node16 -->
<g id="edge18" class="edge">
<title>Node8&#45;&gt;Node16</title>
<path fill="none" stroke="midnightblue" d="M860.49,-134.4C870.85,-125.54 884.38,-113.96 895.93,-104.09"/>
<polygon fill="midnightblue" stroke="midnightblue" points="898.21,-106.74 903.54,-97.58 893.66,-101.42 898.21,-106.74"/>
</g>
<!-- Node16&#45;&gt;Node2 -->
<g id="edge19" class="edge">
<title>Node16&#45;&gt;Node2</title>
<path fill="none" stroke="midnightblue" d="M852.93,-68.28C849.91,-67.82 846.93,-67.39 844,-67 599.85,-34.67 303,-21.41 203.97,-17.68"/>
<polygon fill="midnightblue" stroke="midnightblue" points="203.8,-14.17 193.68,-17.3 203.54,-21.17 203.8,-14.17"/>
</g>
<!-- Node16&#45;&gt;Node3 -->
<g id="edge21" class="edge">
<title>Node16&#45;&gt;Node3</title>
<path fill="none" stroke="midnightblue" d="M987.15,-68.62C990.48,-68.05 993.77,-67.51 997,-67 1104.34,-49.99 1228.91,-34.7 1308.3,-25.51"/>
<polygon fill="midnightblue" stroke="midnightblue" points="1309.18,-28.93 1318.72,-24.31 1308.38,-21.98 1309.18,-28.93"/>
</g>
<!-- Node16&#45;&gt;Node5 -->
<g id="edge22" class="edge">
<title>Node16&#45;&gt;Node5</title>
<path fill="none" stroke="midnightblue" d="M857.21,-67.48C811.59,-57.28 749.71,-43.46 701.9,-32.78"/>
<polygon fill="midnightblue" stroke="midnightblue" points="702.44,-29.32 691.92,-30.55 700.92,-36.15 702.44,-29.32"/>
</g>
<!-- Node17 -->
<g id="node17" class="node">
<title>Node17</title>
<g id="a_node17"><a xlink:title=" ">
<polygon fill="white" stroke="#bfbfbf" points="891.5,-6 891.5,-25 948.5,-25 948.5,-6 891.5,-6"/>
<text text-anchor="middle" x="920" y="-13" font-family="Helvetica,sans-Serif" font-size="10.00">ostream</text>
</a>
</g>
</g>
<!-- Node16&#45;&gt;Node17 -->
<g id="edge20" class="edge">
<title>Node16&#45;&gt;Node17</title>
<path fill="none" stroke="midnightblue" d="M920,-67.4C920,-58.06 920,-45.71 920,-35.52"/>
<polygon fill="midnightblue" stroke="midnightblue" points="923.5,-35.19 920,-25.19 916.5,-35.19 923.5,-35.19"/>
</g>
</g>
</svg>
        <g id="navigator" transform="translate(0 0)" fill="#404254">
                <rect fill="#f2f5e9" fill-opacity="0.5" stroke="#606060" stroke-width=".5" x="0" y="0" width="60" height="60"/>
                <use id="zoomplus" xlink:href="#zoomPlus" x="17" y="9" onmousedown="handleZoom(evt,'in')"/>
                <use id="zoomminus" xlink:href="#zoomMin" x="42" y="9" onmousedown="handleZoom(evt,'out')"/>
                <use id="reset" xlink:href="#resetDef" x="30" y="36" onmousedown="handleReset()"/>
                <g id="arrowUp" xlink:href="#dirArrow" transform="translate(30 24)" onmousedown="handlePan(0,-1)">
                  <use xlink:href="#rim" fill="#404040">
                        <set attributeName="fill" to="#808080" begin="arrowUp.mouseover" end="arrowUp.mouseout"/>
                  </use>
                  <path fill="none" stroke="white" stroke-width="1.5" d="M0,-3.0v7 M-2.5,-0.5L0,-3.0L2.5,-0.5"/>
                </g>
                <g id="arrowRight" xlink:href="#dirArrow" transform="rotate(90) translate(36 -43)" onmousedown="handlePan(1,0)">
                  <use xlink:href="#rim" fill="#404040">
                        <set attributeName="fill" to="#808080" begin="arrowRight.mouseover" end="arrowRight.mouseout"/>
                  </use>
                  <path fill="none" stroke="white" stroke-width="1.5" d="M0,-3.0v7 M-2.5,-0.5L0,-3.0L2.5,-0.5"/>
                </g>
                <g id="arrowDown" xlink:href="#dirArrow" transform="rotate(180) translate(-30 -48)" onmousedown="handlePan(0,1)">
                  <use xlink:href="#rim" fill="#404040">
                        <set attributeName="fill" to="#808080" begin="arrowDown.mouseover" end="arrowDown.mouseout"/>
                  </use>
                  <path fill="none" stroke="white" stroke-width="1.5" d="M0,-3.0v7 M-2.5,-0.5L0,-3.0L2.5,-0.5"/>
                </g>
                <g id="arrowLeft" xlink:href="#dirArrow" transform="rotate(270) translate(-36 17)" onmousedown="handlePan(-1,0)">
                  <use xlink:href="#rim" fill="#404040">
                        <set attributeName="fill" to="#808080" begin="arrowLeft.mouseover" end="arrowLeft.mouseout"/>
                  </use>
                  <path fill="none" stroke="white" stroke-width="1.5" d="M0,-3.0v7 M-2.5,-0.5L0,-3.0L2.5,-0.5"/>
                </g>
        </g>
        <svg viewBox="0 0 15 15" width="100%" height="30px" preserveAspectRatio="xMaxYMin meet">
         <g id="arrow_out" transform="scale(0.3 0.3)">
          <a xlink:href="arc__road__curve_8h__incl_org.svg" target="_base">
           <rect id="button" ry="5" rx="5" y="6" x="6" height="38" width="38"
                fill="#f2f5e9" fill-opacity="0.5" stroke="#606060" stroke-width="1.0"/>
           <path id="arrow"
             d="M 11.500037,31.436501 C 11.940474,20.09759 22.043105,11.32322 32.158766,21.979434 L 37.068811,17.246167 C 37.068811,17.246167 37.088388,32 37.088388,32 L 22.160133,31.978069 C 22.160133,31.978069 26.997745,27.140456 26.997745,27.140456 C 18.528582,18.264221 13.291696,25.230495 11.500037,31.436501 z"
             style="fill:#404040;"/>
          </a>
         </g>
        </svg>
</svg>
