<?xml version="1.0" encoding="UTF-8" standalone="no"?>
<!DOCTYPE svg PUBLIC "-//W3C//DTD SVG 1.1//EN"
 "http://www.w3.org/Graphics/SVG/1.1/DTD/svg11.dtd">
<!-- Generated by graphviz version 2.43.0 (0)
 -->
<!-- Title: junction.cc Pages: 1 -->
<!--zoomable 397 -->
<svg id="main" version="1.1" xmlns="http://www.w3.org/2000/svg" xmlns:xlink="http://www.w3.org/1999/xlink" xml:space="preserve" onload="init(evt)">
<style type="text/css"><![CDATA[
.edge:hover path { stroke: red; }
.edge:hover polygon { stroke: red; fill: red; }
]]></style>
<script type="text/javascript"><![CDATA[
var edges = document.getElementsByTagName('g');
if (edges && edges.length) {
  for (var i=0;i<edges.length;i++) {
    if (edges[i].id.substr(0,4)=='edge') {
      edges[i].setAttribute('class','edge');
    }
  }
}
]]></script>
        <defs>
                <circle id="rim" cx="0" cy="0" r="7"/>
                <circle id="rim2" cx="0" cy="0" r="3.5"/>
                <g id="zoomPlus">
                        <use xlink:href="#rim" fill="#404040">
                                <set attributeName="fill" to="#808080" begin="zoomplus.mouseover" end="zoomplus.mouseout"/>
                        </use>
                        <path d="M-4,0h8M0,-4v8" fill="none" stroke="white" stroke-width="1.5" pointer-events="none"/>
                </g>
                <g id="zoomMin">
                        <use xlink:href="#rim" fill="#404040">
                                <set attributeName="fill" to="#808080" begin="zoomminus.mouseover" end="zoomminus.mouseout"/>
                        </use>
                        <path d="M-4,0h8" fill="none" stroke="white" stroke-width="1.5" pointer-events="none"/>
                </g>
                <g id="dirArrow">
                        <path fill="none" stroke="white" stroke-width="1.5" d="M0,-3.0v7 M-2.5,-0.5L0,-3.0L2.5,-0.5"/>
                </g>
               <g id="resetDef">
                       <use xlink:href="#rim2" fill="#404040">
                               <set attributeName="fill" to="#808080" begin="reset.mouseover" end="reset.mouseout"/>
                       </use>
               </g>
        </defs>

<script type="text/javascript">
var viewWidth = 1622;
var viewHeight = 397;
var sectionId = 'dynsection-0';
</script>
<script xlink:href="svgpan.js"/>
<svg id="graph" class="graph">
<g id="viewport">
<title>junction.cc</title>
<polygon fill="white" stroke="transparent" points="-4,4 -4,-393 1617.71,-393 1617.71,4 -4,4"/>
<!-- Node1 -->
<g id="node1" class="node">
<title>Node1</title>
<g id="a_node1"><a xlink:title=" ">
<polygon fill="#bfbfbf" stroke="black" points="1023,-369.5 1023,-388.5 1092,-388.5 1092,-369.5 1023,-369.5"/>
<text text-anchor="middle" x="1057.5" y="-376.5" font-family="Helvetica,sans-Serif" font-size="10.00">junction.cc</text>
</a>
</g>
</g>
<!-- Node2 -->
<g id="node2" class="node">
<title>Node2</title>
<g id="a_node2"><a xlink:href="junction_8h.html" target="_top" xlink:title=" ">
<polygon fill="white" stroke="black" points="621,-313.5 621,-332.5 778,-332.5 778,-313.5 621,-313.5"/>
<text text-anchor="middle" x="699.5" y="-320.5" font-family="Helvetica,sans-Serif" font-size="10.00">maliput_multilane/junction.h</text>
</a>
</g>
</g>
<!-- Node1&#45;&gt;Node2 -->
<g id="edge1" class="edge">
<title>Node1&#45;&gt;Node2</title>
<path fill="none" stroke="midnightblue" d="M1022.85,-372.77C963.65,-363.84 842.08,-345.51 766.04,-334.04"/>
<polygon fill="midnightblue" stroke="midnightblue" points="766.49,-330.57 756.08,-332.53 765.45,-337.49 766.49,-330.57"/>
</g>
<!-- Node11 -->
<g id="node11" class="node">
<title>Node11</title>
<g id="a_node11"><a xlink:title=" ">
<polygon fill="white" stroke="#bfbfbf" points="1538,-73 1538,-92 1583,-92 1583,-73 1538,-73"/>
<text text-anchor="middle" x="1560.5" y="-80" font-family="Helvetica,sans-Serif" font-size="10.00">utility</text>
</a>
</g>
</g>
<!-- Node1&#45;&gt;Node11 -->
<g id="edge48" class="edge">
<title>Node1&#45;&gt;Node11</title>
<path fill="none" stroke="midnightblue" d="M1092.07,-377.83C1205.72,-376.37 1560.5,-364.09 1560.5,-268 1560.5,-268 1560.5,-268 1560.5,-210 1560.5,-171.7 1560.5,-126.88 1560.5,-102.2"/>
<polygon fill="midnightblue" stroke="midnightblue" points="1564,-102.09 1560.5,-92.09 1557,-102.09 1564,-102.09"/>
</g>
<!-- Node3 -->
<g id="node3" class="node">
<title>Node3</title>
<g id="a_node3"><a xlink:title=" ">
<polygon fill="white" stroke="#bfbfbf" points="1455,-73 1455,-92 1520,-92 1520,-73 1455,-73"/>
<text text-anchor="middle" x="1487.5" y="-80" font-family="Helvetica,sans-Serif" font-size="10.00">functional</text>
</a>
</g>
</g>
<!-- Node2&#45;&gt;Node3 -->
<g id="edge2" class="edge">
<title>Node2&#45;&gt;Node3</title>
<path fill="none" stroke="midnightblue" d="M778.11,-314.66C949.16,-297.29 1348.08,-248.69 1451.5,-165 1470.91,-149.29 1480.15,-120.99 1484.34,-102.22"/>
<polygon fill="midnightblue" stroke="midnightblue" points="1487.81,-102.69 1486.29,-92.2 1480.94,-101.35 1487.81,-102.69"/>
</g>
<!-- Node4 -->
<g id="node4" class="node">
<title>Node4</title>
<g id="a_node4"><a xlink:title=" ">
<polygon fill="white" stroke="#bfbfbf" points="361.5,-73 361.5,-92 419.5,-92 419.5,-73 361.5,-73"/>
<text text-anchor="middle" x="390.5" y="-80" font-family="Helvetica,sans-Serif" font-size="10.00">memory</text>
</a>
</g>
</g>
<!-- Node2&#45;&gt;Node4 -->
<g id="edge3" class="edge">
<title>Node2&#45;&gt;Node4</title>
<path fill="none" stroke="midnightblue" d="M708.31,-313.39C736.77,-284.53 821.63,-189.97 771.5,-134 722.87,-79.71 517.16,-111.33 445.5,-98 440.35,-97.04 434.98,-95.86 429.69,-94.59"/>
<polygon fill="midnightblue" stroke="midnightblue" points="430.27,-91.12 419.72,-92.06 428.55,-97.91 430.27,-91.12"/>
</g>
<!-- Node5 -->
<g id="node5" class="node">
<title>Node5</title>
<g id="a_node5"><a xlink:title=" ">
<polygon fill="white" stroke="#bfbfbf" points="58,-201.5 58,-220.5 105,-220.5 105,-201.5 58,-201.5"/>
<text text-anchor="middle" x="81.5" y="-208.5" font-family="Helvetica,sans-Serif" font-size="10.00">vector</text>
</a>
</g>
</g>
<!-- Node2&#45;&gt;Node5 -->
<g id="edge4" class="edge">
<title>Node2&#45;&gt;Node5</title>
<path fill="none" stroke="midnightblue" d="M625.87,-313.49C559.43,-305.43 459.12,-292.3 372.5,-277 259.7,-257.07 229.43,-249.8 115.07,-221.3"/>
<polygon fill="midnightblue" stroke="midnightblue" points="115.77,-217.87 105.22,-218.85 114.08,-224.66 115.77,-217.87"/>
</g>
<!-- Node6 -->
<g id="node6" class="node">
<title>Node6</title>
<g id="a_node6"><a xlink:title=" ">
<polygon fill="white" stroke="#bfbfbf" points="123,-201.5 123,-220.5 246,-220.5 246,-201.5 123,-201.5"/>
<text text-anchor="middle" x="184.5" y="-208.5" font-family="Helvetica,sans-Serif" font-size="10.00">maliput/api/junction.h</text>
</a>
</g>
</g>
<!-- Node2&#45;&gt;Node6 -->
<g id="edge5" class="edge">
<title>Node2&#45;&gt;Node6</title>
<path fill="none" stroke="midnightblue" d="M650.18,-313.45C601.57,-304.86 525.23,-290.92 459.5,-277 377.44,-259.62 282.32,-236.46 228.19,-222.99"/>
<polygon fill="midnightblue" stroke="midnightblue" points="228.8,-219.54 218.25,-220.52 227.11,-226.33 228.8,-219.54"/>
</g>
<!-- Node7 -->
<g id="node7" class="node">
<title>Node7</title>
<g id="a_node7"><a xlink:title=" ">
<polygon fill="white" stroke="#bfbfbf" points="264,-201.5 264,-220.5 421,-220.5 421,-201.5 264,-201.5"/>
<text text-anchor="middle" x="342.5" y="-208.5" font-family="Helvetica,sans-Serif" font-size="10.00">maliput/api/road_geometry.h</text>
</a>
</g>
</g>
<!-- Node2&#45;&gt;Node7 -->
<g id="edge6" class="edge">
<title>Node2&#45;&gt;Node7</title>
<path fill="none" stroke="midnightblue" d="M661.57,-313.49C625.52,-305.13 569.94,-291.56 522.5,-277 469.51,-260.74 409.15,-238.07 373.52,-224.25"/>
<polygon fill="midnightblue" stroke="midnightblue" points="374.75,-220.97 364.16,-220.6 372.2,-227.49 374.75,-220.97"/>
</g>
<!-- Node8 -->
<g id="node8" class="node">
<title>Node8</title>
<g id="a_node8"><a xlink:title=" ">
<polygon fill="white" stroke="#bfbfbf" points="0,-140 0,-159 127,-159 127,-140 0,-140"/>
<text text-anchor="middle" x="63.5" y="-147" font-family="Helvetica,sans-Serif" font-size="10.00">maliput/api/segment.h</text>
</a>
</g>
</g>
<!-- Node2&#45;&gt;Node8 -->
<g id="edge7" class="edge">
<title>Node2&#45;&gt;Node8</title>
<path fill="none" stroke="midnightblue" d="M620.9,-322.56C463.16,-321.77 117.23,-309.72 48.5,-221 36.81,-205.91 44.38,-183.76 52.41,-168.33"/>
<polygon fill="midnightblue" stroke="midnightblue" points="55.64,-169.73 57.55,-159.3 49.56,-166.26 55.64,-169.73"/>
</g>
<!-- Node9 -->
<g id="node9" class="node">
<title>Node9</title>
<g id="a_node9"><a xlink:href="../../maliput/html/maliput__copyable_8h.html.html" xlink:title=" ">
<polygon fill="white" stroke="black" points="377.5,-0.5 377.5,-30.5 517.5,-30.5 517.5,-0.5 377.5,-0.5"/>
<text text-anchor="start" x="385.5" y="-18.5" font-family="Helvetica,sans-Serif" font-size="10.00">maliput/common/maliput</text>
<text text-anchor="middle" x="447.5" y="-7.5" font-family="Helvetica,sans-Serif" font-size="10.00">_copyable.h</text>
</a>
</g>
</g>
<!-- Node2&#45;&gt;Node9 -->
<g id="edge8" class="edge">
<title>Node2&#45;&gt;Node9</title>
<path fill="none" stroke="midnightblue" d="M778.05,-320.71C999.26,-316.06 1611.5,-295.63 1611.5,-212 1611.5,-212 1611.5,-212 1611.5,-148.5 1611.5,-111.2 1620.33,-90.66 1591.5,-67 1550.48,-33.34 781.91,-20.7 528.09,-17.43"/>
<polygon fill="midnightblue" stroke="midnightblue" points="527.88,-13.93 517.83,-17.3 527.79,-20.93 527.88,-13.93"/>
</g>
<!-- Node10 -->
<g id="node10" class="node">
<title>Node10</title>
<g id="a_node10"><a xlink:href="road__curve_8h.html" target="_top" xlink:title=" ">
<polygon fill="white" stroke="black" points="864,-134.5 864,-164.5 995,-164.5 995,-134.5 864,-134.5"/>
<text text-anchor="start" x="872" y="-152.5" font-family="Helvetica,sans-Serif" font-size="10.00">maliput_multilane/road</text>
<text text-anchor="middle" x="929.5" y="-141.5" font-family="Helvetica,sans-Serif" font-size="10.00">_curve.h</text>
</a>
</g>
</g>
<!-- Node2&#45;&gt;Node10 -->
<g id="edge9" class="edge">
<title>Node2&#45;&gt;Node10</title>
<path fill="none" stroke="midnightblue" d="M762.48,-313.45C791.22,-307.09 824.38,-296.07 849.5,-277 884.9,-250.14 908.7,-202.72 920.6,-174.19"/>
<polygon fill="midnightblue" stroke="midnightblue" points="923.97,-175.19 924.45,-164.61 917.48,-172.59 923.97,-175.19"/>
</g>
<!-- Node22 -->
<g id="node22" class="node">
<title>Node22</title>
<g id="a_node22"><a xlink:href="segment_8h.html" target="_top" xlink:title=" ">
<polygon fill="white" stroke="black" points="532,-257.5 532,-276.5 693,-276.5 693,-257.5 532,-257.5"/>
<text text-anchor="middle" x="612.5" y="-264.5" font-family="Helvetica,sans-Serif" font-size="10.00">maliput_multilane/segment.h</text>
</a>
</g>
</g>
<!-- Node2&#45;&gt;Node22 -->
<g id="edge25" class="edge">
<title>Node2&#45;&gt;Node22</title>
<path fill="none" stroke="midnightblue" d="M685.52,-313.32C671.95,-304.9 651.12,-291.97 635.18,-282.07"/>
<polygon fill="midnightblue" stroke="midnightblue" points="636.79,-278.95 626.44,-276.65 633.09,-284.9 636.79,-278.95"/>
</g>
<!-- Node10&#45;&gt;Node3 -->
<g id="edge10" class="edge">
<title>Node10&#45;&gt;Node3</title>
<path fill="none" stroke="midnightblue" d="M995.27,-143.04C1087.44,-135.04 1260.16,-118.82 1406.5,-98 1418.99,-96.22 1432.49,-93.95 1444.83,-91.73"/>
<polygon fill="midnightblue" stroke="midnightblue" points="1445.67,-95.13 1454.87,-89.89 1444.41,-88.25 1445.67,-95.13"/>
</g>
<!-- Node10&#45;&gt;Node4 -->
<g id="edge11" class="edge">
<title>Node10&#45;&gt;Node4</title>
<path fill="none" stroke="midnightblue" d="M863.66,-136.06C858.87,-135.32 854.12,-134.62 849.5,-134 665.55,-109.42 615.16,-135.92 433.5,-98 429.81,-97.23 426,-96.24 422.24,-95.14"/>
<polygon fill="midnightblue" stroke="midnightblue" points="423.13,-91.75 412.54,-92.06 421.01,-98.42 423.13,-91.75"/>
</g>
<!-- Node10&#45;&gt;Node9 -->
<g id="edge14" class="edge">
<title>Node10&#45;&gt;Node9</title>
<path fill="none" stroke="midnightblue" d="M863.65,-136.1C858.87,-135.35 854.11,-134.63 849.5,-134 764.81,-122.37 530.9,-154.22 466.5,-98 450.49,-84.02 446.57,-59.41 446.16,-40.87"/>
<polygon fill="midnightblue" stroke="midnightblue" points="449.66,-40.82 446.25,-30.79 442.66,-40.76 449.66,-40.82"/>
</g>
<!-- Node10&#45;&gt;Node11 -->
<g id="edge12" class="edge">
<title>Node10&#45;&gt;Node11</title>
<path fill="none" stroke="midnightblue" d="M995.2,-145.78C1129.08,-139.79 1429.21,-123.86 1528.5,-98 1530.66,-97.44 1532.85,-96.74 1535.03,-95.96"/>
<polygon fill="midnightblue" stroke="midnightblue" points="1536.38,-99.19 1544.29,-92.14 1533.71,-92.72 1536.38,-99.19"/>
</g>
<!-- Node12 -->
<g id="node12" class="node">
<title>Node12</title>
<g id="a_node12"><a xlink:href="../../maliput/html/lane__data_8h.html.html" xlink:title=" ">
<polygon fill="white" stroke="black" points="956.5,-73 956.5,-92 1088.5,-92 1088.5,-73 956.5,-73"/>
<text text-anchor="middle" x="1022.5" y="-80" font-family="Helvetica,sans-Serif" font-size="10.00">maliput/api/lane_data.h</text>
</a>
</g>
</g>
<!-- Node10&#45;&gt;Node12 -->
<g id="edge13" class="edge">
<title>Node10&#45;&gt;Node12</title>
<path fill="none" stroke="midnightblue" d="M949.68,-134.4C965.13,-123.6 986.36,-108.76 1001.92,-97.89"/>
<polygon fill="midnightblue" stroke="midnightblue" points="1004.14,-100.6 1010.33,-92.01 1000.13,-94.87 1004.14,-100.6"/>
</g>
<!-- Node13 -->
<g id="node13" class="node">
<title>Node13</title>
<g id="a_node13"><a xlink:href="../../maliput/html/arc__length__integrator_8h.html.html" xlink:title=" ">
<polygon fill="white" stroke="black" points="1106.5,-67.5 1106.5,-97.5 1244.5,-97.5 1244.5,-67.5 1106.5,-67.5"/>
<text text-anchor="start" x="1114.5" y="-85.5" font-family="Helvetica,sans-Serif" font-size="10.00">maliput/drake/arc_length</text>
<text text-anchor="middle" x="1175.5" y="-74.5" font-family="Helvetica,sans-Serif" font-size="10.00">_integrator.h</text>
</a>
</g>
</g>
<!-- Node10&#45;&gt;Node13 -->
<g id="edge15" class="edge">
<title>Node10&#45;&gt;Node13</title>
<path fill="none" stroke="midnightblue" d="M982.58,-134.48C1020.68,-124.41 1072.18,-110.8 1112.39,-100.17"/>
<polygon fill="midnightblue" stroke="midnightblue" points="1113.32,-103.55 1122.1,-97.61 1111.53,-96.78 1113.32,-103.55"/>
</g>
<!-- Node14 -->
<g id="node14" class="node">
<title>Node14</title>
<g id="a_node14"><a xlink:href="../../maliput/html/inverse__arc__length__integrator_8h.html.html" xlink:title=" ">
<polygon fill="white" stroke="black" points="1263,-67.5 1263,-97.5 1398,-97.5 1398,-67.5 1263,-67.5"/>
<text text-anchor="start" x="1271" y="-85.5" font-family="Helvetica,sans-Serif" font-size="10.00">maliput/drake/inverse</text>
<text text-anchor="middle" x="1330.5" y="-74.5" font-family="Helvetica,sans-Serif" font-size="10.00">_arc_length_integrator.h</text>
</a>
</g>
</g>
<!-- Node10&#45;&gt;Node14 -->
<g id="edge16" class="edge">
<title>Node10&#45;&gt;Node14</title>
<path fill="none" stroke="midnightblue" d="M995.07,-138.9C1058.35,-129.49 1157.12,-114.44 1252.77,-98.09"/>
<polygon fill="midnightblue" stroke="midnightblue" points="1253.65,-101.49 1262.92,-96.35 1252.47,-94.59 1253.65,-101.49"/>
</g>
<!-- Node15 -->
<g id="node15" class="node">
<title>Node15</title>
<g id="a_node15"><a xlink:href="../../maliput/html/roll__pitch__yaw_8h.html.html" xlink:title=" ">
<polygon fill="white" stroke="black" points="476,-67.5 476,-97.5 607,-97.5 607,-67.5 476,-67.5"/>
<text text-anchor="start" x="484" y="-85.5" font-family="Helvetica,sans-Serif" font-size="10.00">maliput/math/roll_pitch</text>
<text text-anchor="middle" x="541.5" y="-74.5" font-family="Helvetica,sans-Serif" font-size="10.00">_yaw.h</text>
</a>
</g>
</g>
<!-- Node10&#45;&gt;Node15 -->
<g id="edge17" class="edge">
<title>Node10&#45;&gt;Node15</title>
<path fill="none" stroke="midnightblue" d="M863.6,-136.41C858.83,-135.58 854.09,-134.77 849.5,-134 748.86,-117.14 720.83,-116.17 617.18,-98.25"/>
<polygon fill="midnightblue" stroke="midnightblue" points="617.69,-94.79 607.24,-96.53 616.49,-101.69 617.69,-94.79"/>
</g>
<!-- Node16 -->
<g id="node16" class="node">
<title>Node16</title>
<g id="a_node16"><a xlink:href="../../maliput/html/vector_8h.html.html" xlink:title=" ">
<polygon fill="white" stroke="black" points="625,-73 625,-92 750,-92 750,-73 625,-73"/>
<text text-anchor="middle" x="687.5" y="-80" font-family="Helvetica,sans-Serif" font-size="10.00">maliput/math/vector.h</text>
</a>
</g>
</g>
<!-- Node10&#45;&gt;Node16 -->
<g id="edge18" class="edge">
<title>Node10&#45;&gt;Node16</title>
<path fill="none" stroke="midnightblue" d="M877.29,-134.48C832.87,-122.55 769.94,-105.64 728.93,-94.63"/>
<polygon fill="midnightblue" stroke="midnightblue" points="729.82,-91.24 719.25,-92.03 728,-98 729.82,-91.24"/>
</g>
<!-- Node17 -->
<g id="node17" class="node">
<title>Node17</title>
<g id="a_node17"><a xlink:href="computation__policy_8h.html" target="_top" xlink:title=" ">
<polygon fill="white" stroke="black" points="768.5,-67.5 768.5,-97.5 938.5,-97.5 938.5,-67.5 768.5,-67.5"/>
<text text-anchor="start" x="776.5" y="-85.5" font-family="Helvetica,sans-Serif" font-size="10.00">maliput_multilane/computation</text>
<text text-anchor="middle" x="853.5" y="-74.5" font-family="Helvetica,sans-Serif" font-size="10.00">_policy.h</text>
</a>
</g>
</g>
<!-- Node10&#45;&gt;Node17 -->
<g id="edge19" class="edge">
<title>Node10&#45;&gt;Node17</title>
<path fill="none" stroke="midnightblue" d="M913.01,-134.4C902.65,-125.54 889.12,-113.96 877.57,-104.09"/>
<polygon fill="midnightblue" stroke="midnightblue" points="879.83,-101.42 869.96,-97.58 875.28,-106.74 879.83,-101.42"/>
</g>
<!-- Node18 -->
<g id="node18" class="node">
<title>Node18</title>
<g id="a_node18"><a xlink:href="cubic__polynomial_8h.html" target="_top" xlink:title=" ">
<polygon fill="white" stroke="black" points="171.5,-67.5 171.5,-97.5 305.5,-97.5 305.5,-67.5 171.5,-67.5"/>
<text text-anchor="start" x="179.5" y="-85.5" font-family="Helvetica,sans-Serif" font-size="10.00">maliput_multilane/cubic</text>
<text text-anchor="middle" x="238.5" y="-74.5" font-family="Helvetica,sans-Serif" font-size="10.00">_polynomial.h</text>
</a>
</g>
</g>
<!-- Node10&#45;&gt;Node18 -->
<g id="edge20" class="edge">
<title>Node10&#45;&gt;Node18</title>
<path fill="none" stroke="midnightblue" d="M863.65,-143.58C756.43,-135.38 537.47,-117.85 352.5,-98 340.64,-96.73 328.11,-95.26 315.86,-93.76"/>
<polygon fill="midnightblue" stroke="midnightblue" points="316.02,-90.25 305.66,-92.49 315.15,-97.19 316.02,-90.25"/>
</g>
<!-- Node18&#45;&gt;Node9 -->
<g id="edge23" class="edge">
<title>Node18&#45;&gt;Node9</title>
<path fill="none" stroke="midnightblue" d="M283.59,-67.48C315.48,-57.56 358.43,-44.2 392.36,-33.65"/>
<polygon fill="midnightblue" stroke="midnightblue" points="393.62,-36.92 402.13,-30.61 391.54,-30.24 393.62,-36.92"/>
</g>
<!-- Node19 -->
<g id="node19" class="node">
<title>Node19</title>
<g id="a_node19"><a xlink:title=" ">
<polygon fill="white" stroke="#bfbfbf" points="215,-6 215,-25 262,-25 262,-6 215,-6"/>
<text text-anchor="middle" x="238.5" y="-13" font-family="Helvetica,sans-Serif" font-size="10.00">cmath</text>
</a>
</g>
</g>
<!-- Node18&#45;&gt;Node19 -->
<g id="edge21" class="edge">
<title>Node18&#45;&gt;Node19</title>
<path fill="none" stroke="midnightblue" d="M238.5,-67.4C238.5,-58.06 238.5,-45.71 238.5,-35.52"/>
<polygon fill="midnightblue" stroke="midnightblue" points="242,-35.19 238.5,-25.19 235,-35.19 242,-35.19"/>
</g>
<!-- Node20 -->
<g id="node20" class="node">
<title>Node20</title>
<g id="a_node20"><a xlink:title=" ">
<polygon fill="white" stroke="#bfbfbf" points="280,-6 280,-25 337,-25 337,-6 280,-6"/>
<text text-anchor="middle" x="308.5" y="-13" font-family="Helvetica,sans-Serif" font-size="10.00">ostream</text>
</a>
</g>
</g>
<!-- Node18&#45;&gt;Node20 -->
<g id="edge22" class="edge">
<title>Node18&#45;&gt;Node20</title>
<path fill="none" stroke="midnightblue" d="M253.69,-67.4C264.82,-57.06 279.94,-43.02 291.47,-32.31"/>
<polygon fill="midnightblue" stroke="midnightblue" points="294.19,-34.56 299.14,-25.19 289.43,-29.43 294.19,-34.56"/>
</g>
<!-- Node21 -->
<g id="node21" class="node">
<title>Node21</title>
<g id="a_node21"><a xlink:href="../../maliput/html/maliput__unused_8h.html.html" xlink:title=" ">
<polygon fill="white" stroke="black" points="56.5,-0.5 56.5,-30.5 196.5,-30.5 196.5,-0.5 56.5,-0.5"/>
<text text-anchor="start" x="64.5" y="-18.5" font-family="Helvetica,sans-Serif" font-size="10.00">maliput/common/maliput</text>
<text text-anchor="middle" x="126.5" y="-7.5" font-family="Helvetica,sans-Serif" font-size="10.00">_unused.h</text>
</a>
</g>
</g>
<!-- Node18&#45;&gt;Node21 -->
<g id="edge24" class="edge">
<title>Node18&#45;&gt;Node21</title>
<path fill="none" stroke="midnightblue" d="M214.2,-67.4C198.2,-58.11 177.06,-45.84 159.54,-35.67"/>
<polygon fill="midnightblue" stroke="midnightblue" points="161.16,-32.57 150.75,-30.58 157.65,-38.62 161.16,-32.57"/>
</g>
<!-- Node22&#45;&gt;Node3 -->
<g id="edge26" class="edge">
<title>Node22&#45;&gt;Node3</title>
<path fill="none" stroke="midnightblue" d="M693.12,-264.22C871.41,-259.83 1288.03,-246.9 1346.5,-221 1406.28,-194.52 1455.42,-130.88 1476.47,-100.37"/>
<polygon fill="midnightblue" stroke="midnightblue" points="1479.39,-102.29 1482.08,-92.04 1473.59,-98.38 1479.39,-102.29"/>
</g>
<!-- Node22&#45;&gt;Node4 -->
<g id="edge27" class="edge">
<title>Node22&#45;&gt;Node4</title>
<path fill="none" stroke="midnightblue" d="M674.7,-257.5C698.23,-251.18 723.23,-240.18 739.5,-221 764.68,-191.32 775.35,-163.09 749.5,-134 704.31,-83.15 512.33,-110.7 445.5,-98 440.36,-97.02 434.99,-95.83 429.7,-94.55"/>
<polygon fill="midnightblue" stroke="midnightblue" points="430.28,-91.08 419.73,-92.02 428.56,-97.87 430.28,-91.08"/>
</g>
<!-- Node22&#45;&gt;Node5 -->
<g id="edge29" class="edge">
<title>Node22&#45;&gt;Node5</title>
<path fill="none" stroke="midnightblue" d="M531.94,-263.3C434.91,-259.02 266.98,-248.36 115.13,-221"/>
<polygon fill="midnightblue" stroke="midnightblue" points="115.62,-217.53 105.15,-219.18 114.36,-224.42 115.62,-217.53"/>
</g>
<!-- Node22&#45;&gt;Node6 -->
<g id="edge30" class="edge">
<title>Node22&#45;&gt;Node6</title>
<path fill="none" stroke="midnightblue" d="M544.2,-257.47C474.4,-248.75 362.58,-234.73 256.57,-221.26"/>
<polygon fill="midnightblue" stroke="midnightblue" points="256.7,-217.75 246.34,-219.96 255.81,-224.69 256.7,-217.75"/>
</g>
<!-- Node22&#45;&gt;Node7 -->
<g id="edge32" class="edge">
<title>Node22&#45;&gt;Node7</title>
<path fill="none" stroke="midnightblue" d="M569.72,-257.44C522.32,-247.96 445.87,-232.67 394.92,-222.48"/>
<polygon fill="midnightblue" stroke="midnightblue" points="395.57,-219.05 385.08,-220.52 394.2,-225.91 395.57,-219.05"/>
</g>
<!-- Node22&#45;&gt;Node8 -->
<g id="edge33" class="edge">
<title>Node22&#45;&gt;Node8</title>
<path fill="none" stroke="midnightblue" d="M582.87,-257.47C554.5,-249.06 510.63,-235.4 473.5,-221 453.47,-213.23 450.17,-206.84 429.5,-201 305.37,-165.91 268.97,-184.8 141.5,-165 133.47,-163.75 125,-162.31 116.71,-160.83"/>
<polygon fill="midnightblue" stroke="midnightblue" points="117.21,-157.36 106.74,-159.01 115.95,-164.25 117.21,-157.36"/>
</g>
<!-- Node22&#45;&gt;Node9 -->
<g id="edge35" class="edge">
<title>Node22&#45;&gt;Node9</title>
<path fill="none" stroke="midnightblue" d="M693.3,-259.23C914.81,-239.2 1508.71,-174.74 1406.5,-67 1376.45,-35.32 753.15,-21.67 527.86,-17.76"/>
<polygon fill="midnightblue" stroke="midnightblue" points="527.81,-14.26 517.75,-17.58 527.69,-21.25 527.81,-14.26"/>
</g>
<!-- Node22&#45;&gt;Node10 -->
<g id="edge47" class="edge">
<title>Node22&#45;&gt;Node10</title>
<path fill="none" stroke="midnightblue" d="M649.12,-257.45C682.09,-249.36 731.63,-236.21 773.5,-221 815.27,-205.82 861.47,-184.32 892.67,-169.06"/>
<polygon fill="midnightblue" stroke="midnightblue" points="894.43,-172.1 901.85,-164.54 891.33,-165.82 894.43,-172.1"/>
</g>
<!-- Node22&#45;&gt;Node11 -->
<g id="edge28" class="edge">
<title>Node22&#45;&gt;Node11</title>
<path fill="none" stroke="midnightblue" d="M693.2,-263.89C876.76,-258.71 1314.58,-244.08 1377.5,-221 1449.46,-194.61 1516.86,-129.94 1545.73,-99.65"/>
<polygon fill="midnightblue" stroke="midnightblue" points="1548.54,-101.77 1552.82,-92.08 1543.43,-96.98 1548.54,-101.77"/>
</g>
<!-- Node22&#45;&gt;Node18 -->
<g id="edge36" class="edge">
<title>Node22&#45;&gt;Node18</title>
<path fill="none" stroke="midnightblue" d="M589.18,-257.5C566.47,-248.99 531.14,-235.18 501.5,-221 484.99,-213.1 482.9,-206.67 465.5,-201 403.55,-180.81 217.65,-213.82 174.5,-165 156.59,-144.74 181.77,-120.18 205.61,-103.35"/>
<polygon fill="midnightblue" stroke="midnightblue" points="207.59,-106.24 213.92,-97.74 203.67,-100.44 207.59,-106.24"/>
</g>
<!-- Node23 -->
<g id="node23" class="node">
<title>Node23</title>
<g id="a_node23"><a xlink:title=" ">
<polygon fill="white" stroke="#bfbfbf" points="184,-140 184,-159 289,-159 289,-140 184,-140"/>
<text text-anchor="middle" x="236.5" y="-147" font-family="Helvetica,sans-Serif" font-size="10.00">maliput/api/lane.h</text>
</a>
</g>
</g>
<!-- Node22&#45;&gt;Node23 -->
<g id="edge31" class="edge">
<title>Node22&#45;&gt;Node23</title>
<path fill="none" stroke="midnightblue" d="M598.34,-257.33C570.77,-240.51 511.72,-204.76 501.5,-201 415.51,-169.35 388.26,-183.44 298.5,-165 293.02,-163.87 287.28,-162.63 281.6,-161.35"/>
<polygon fill="midnightblue" stroke="midnightblue" points="282.04,-157.86 271.51,-159.04 280.48,-164.68 282.04,-157.86"/>
</g>
<!-- Node24 -->
<g id="node24" class="node">
<title>Node24</title>
<g id="a_node24"><a xlink:href="../../maliput/html/maliput__abort_8h.html.html" xlink:title=" ">
<polygon fill="white" stroke="black" points="307.5,-134.5 307.5,-164.5 447.5,-164.5 447.5,-134.5 307.5,-134.5"/>
<text text-anchor="start" x="315.5" y="-152.5" font-family="Helvetica,sans-Serif" font-size="10.00">maliput/common/maliput</text>
<text text-anchor="middle" x="377.5" y="-141.5" font-family="Helvetica,sans-Serif" font-size="10.00">_abort.h</text>
</a>
</g>
</g>
<!-- Node22&#45;&gt;Node24 -->
<g id="edge34" class="edge">
<title>Node22&#45;&gt;Node24</title>
<path fill="none" stroke="midnightblue" d="M604.87,-257.12C592.5,-243.23 566.68,-216.37 539.5,-201 513.24,-186.14 482.06,-175.09 454.1,-167.18"/>
<polygon fill="midnightblue" stroke="midnightblue" points="454.93,-163.77 444.36,-164.51 453.08,-170.53 454.93,-163.77"/>
</g>
<!-- Node25 -->
<g id="node25" class="node">
<title>Node25</title>
<g id="a_node25"><a xlink:href="lane_8h.html" target="_top" xlink:title=" ">
<polygon fill="white" stroke="black" points="592,-201.5 592,-220.5 731,-220.5 731,-201.5 592,-201.5"/>
<text text-anchor="middle" x="661.5" y="-208.5" font-family="Helvetica,sans-Serif" font-size="10.00">maliput_multilane/lane.h</text>
</a>
</g>
</g>
<!-- Node22&#45;&gt;Node25 -->
<g id="edge37" class="edge">
<title>Node22&#45;&gt;Node25</title>
<path fill="none" stroke="midnightblue" d="M620.59,-257.08C627.66,-249.3 638.09,-237.8 646.65,-228.37"/>
<polygon fill="midnightblue" stroke="midnightblue" points="649.43,-230.51 653.56,-220.75 644.25,-225.8 649.43,-230.51"/>
</g>
<!-- Node25&#45;&gt;Node4 -->
<g id="edge38" class="edge">
<title>Node25&#45;&gt;Node4</title>
<path fill="none" stroke="midnightblue" d="M686.66,-201.38C702.92,-194.34 722.79,-182.65 732.5,-165 739.14,-152.93 741.64,-144.31 732.5,-134 688.1,-83.93 498.77,-112.77 433.5,-98 430.01,-97.21 426.41,-96.25 422.85,-95.19"/>
<polygon fill="midnightblue" stroke="midnightblue" points="423.6,-91.76 413.01,-92.06 421.48,-98.43 423.6,-91.76"/>
</g>
<!-- Node25&#45;&gt;Node8 -->
<g id="edge42" class="edge">
<title>Node25&#45;&gt;Node8</title>
<path fill="none" stroke="midnightblue" d="M591.66,-204.38C497.01,-196.57 322.81,-181.53 174.5,-165 161.93,-163.6 148.57,-161.97 135.64,-160.33"/>
<polygon fill="midnightblue" stroke="midnightblue" points="135.75,-156.81 125.39,-159.01 134.86,-163.75 135.75,-156.81"/>
</g>
<!-- Node25&#45;&gt;Node9 -->
<g id="edge44" class="edge">
<title>Node25&#45;&gt;Node9</title>
<path fill="none" stroke="midnightblue" d="M627.65,-201.45C600.87,-193.92 563.04,-181.58 532.5,-165 512.73,-154.27 512.7,-143.89 492.5,-134 434.8,-105.74 391.87,-148.77 352.5,-98 344.06,-87.11 345.4,-78.81 352.5,-67 360.95,-52.95 374.77,-42.59 389.29,-35.05"/>
<polygon fill="midnightblue" stroke="midnightblue" points="390.86,-38.18 398.38,-30.72 387.85,-31.86 390.86,-38.18"/>
</g>
<!-- Node25&#45;&gt;Node10 -->
<g id="edge46" class="edge">
<title>Node25&#45;&gt;Node10</title>
<path fill="none" stroke="midnightblue" d="M699.9,-201.48C740.6,-192.44 805.87,-177.95 856.43,-166.72"/>
<polygon fill="midnightblue" stroke="midnightblue" points="857.33,-170.11 866.34,-164.52 855.82,-163.27 857.33,-170.11"/>
</g>
<!-- Node25&#45;&gt;Node18 -->
<g id="edge45" class="edge">
<title>Node25&#45;&gt;Node18</title>
<path fill="none" stroke="midnightblue" d="M614.19,-201.48C581.01,-194.41 536.21,-182.63 499.5,-165 478.26,-154.8 477.95,-143.74 456.5,-134 431.53,-122.67 367.82,-108.48 315.68,-98.03"/>
<polygon fill="midnightblue" stroke="midnightblue" points="316.25,-94.57 305.76,-96.06 314.89,-101.44 316.25,-94.57"/>
</g>
<!-- Node25&#45;&gt;Node23 -->
<g id="edge41" class="edge">
<title>Node25&#45;&gt;Node23</title>
<path fill="none" stroke="midnightblue" d="M591.92,-203.6C518.6,-196.33 399.93,-183.1 298.5,-165 292.57,-163.94 286.36,-162.68 280.26,-161.35"/>
<polygon fill="midnightblue" stroke="midnightblue" points="280.68,-157.85 270.15,-159.06 279.13,-164.68 280.68,-157.85"/>
</g>
<!-- Node25&#45;&gt;Node24 -->
<g id="edge43" class="edge">
<title>Node25&#45;&gt;Node24</title>
<path fill="none" stroke="midnightblue" d="M620.81,-201.48C577.49,-192.4 507.93,-177.83 454.26,-166.58"/>
<polygon fill="midnightblue" stroke="midnightblue" points="454.94,-163.15 444.43,-164.52 453.5,-170 454.94,-163.15"/>
</g>
<!-- Node26 -->
<g id="node26" class="node">
<title>Node26</title>
<g id="a_node26"><a xlink:title=" ">
<polygon fill="white" stroke="#bfbfbf" points="541.5,-140 541.5,-159 597.5,-159 597.5,-140 541.5,-140"/>
<text text-anchor="middle" x="569.5" y="-147" font-family="Helvetica,sans-Serif" font-size="10.00">optional</text>
</a>
</g>
</g>
<!-- Node25&#45;&gt;Node26 -->
<g id="edge39" class="edge">
<title>Node25&#45;&gt;Node26</title>
<path fill="none" stroke="midnightblue" d="M648.32,-201.48C633.43,-191.84 608.96,-176.02 591.23,-164.55"/>
<polygon fill="midnightblue" stroke="midnightblue" points="592.95,-161.5 582.66,-159.01 589.15,-167.38 592.95,-161.5"/>
</g>
<!-- Node27 -->
<g id="node27" class="node">
<title>Node27</title>
<g id="a_node27"><a xlink:title=" ">
<polygon fill="white" stroke="#bfbfbf" points="615.5,-134.5 615.5,-164.5 723.5,-164.5 723.5,-134.5 615.5,-134.5"/>
<text text-anchor="start" x="623.5" y="-152.5" font-family="Helvetica,sans-Serif" font-size="10.00">maliput/api/branch</text>
<text text-anchor="middle" x="669.5" y="-141.5" font-family="Helvetica,sans-Serif" font-size="10.00">_point.h</text>
</a>
</g>
</g>
<!-- Node25&#45;&gt;Node27 -->
<g id="edge40" class="edge">
<title>Node25&#45;&gt;Node27</title>
<path fill="none" stroke="midnightblue" d="M662.65,-201.48C663.59,-194.47 664.97,-184.19 666.25,-174.7"/>
<polygon fill="midnightblue" stroke="midnightblue" points="669.75,-174.9 667.61,-164.52 662.81,-173.97 669.75,-174.9"/>
</g>
</g>
</svg>
        <g id="navigator" transform="translate(0 0)" fill="#404254">
                <rect fill="#f2f5e9" fill-opacity="0.5" stroke="#606060" stroke-width=".5" x="0" y="0" width="60" height="60"/>
                <use id="zoomplus" xlink:href="#zoomPlus" x="17" y="9" onmousedown="handleZoom(evt,'in')"/>
                <use id="zoomminus" xlink:href="#zoomMin" x="42" y="9" onmousedown="handleZoom(evt,'out')"/>
                <use id="reset" xlink:href="#resetDef" x="30" y="36" onmousedown="handleReset()"/>
                <g id="arrowUp" xlink:href="#dirArrow" transform="translate(30 24)" onmousedown="handlePan(0,-1)">
                  <use xlink:href="#rim" fill="#404040">
                        <set attributeName="fill" to="#808080" begin="arrowUp.mouseover" end="arrowUp.mouseout"/>
                  </use>
                  <path fill="none" stroke="white" stroke-width="1.5" d="M0,-3.0v7 M-2.5,-0.5L0,-3.0L2.5,-0.5"/>
                </g>
                <g id="arrowRight" xlink:href="#dirArrow" transform="rotate(90) translate(36 -43)" onmousedown="handlePan(1,0)">
                  <use xlink:href="#rim" fill="#404040">
                        <set attributeName="fill" to="#808080" begin="arrowRight.mouseover" end="arrowRight.mouseout"/>
                  </use>
                  <path fill="none" stroke="white" stroke-width="1.5" d="M0,-3.0v7 M-2.5,-0.5L0,-3.0L2.5,-0.5"/>
                </g>
                <g id="arrowDown" xlink:href="#dirArrow" transform="rotate(180) translate(-30 -48)" onmousedown="handlePan(0,1)">
                  <use xlink:href="#rim" fill="#404040">
                        <set attributeName="fill" to="#808080" begin="arrowDown.mouseover" end="arrowDown.mouseout"/>
                  </use>
                  <path fill="none" stroke="white" stroke-width="1.5" d="M0,-3.0v7 M-2.5,-0.5L0,-3.0L2.5,-0.5"/>
                </g>
                <g id="arrowLeft" xlink:href="#dirArrow" transform="rotate(270) translate(-36 17)" onmousedown="handlePan(-1,0)">
                  <use xlink:href="#rim" fill="#404040">
                        <set attributeName="fill" to="#808080" begin="arrowLeft.mouseover" end="arrowLeft.mouseout"/>
                  </use>
                  <path fill="none" stroke="white" stroke-width="1.5" d="M0,-3.0v7 M-2.5,-0.5L0,-3.0L2.5,-0.5"/>
                </g>
        </g>
        <svg viewBox="0 0 15 15" width="100%" height="30px" preserveAspectRatio="xMaxYMin meet">
         <g id="arrow_out" transform="scale(0.3 0.3)">
          <a xlink:href="junction_8cc__incl_org.svg" target="_base">
           <rect id="button" ry="5" rx="5" y="6" x="6" height="38" width="38"
                fill="#f2f5e9" fill-opacity="0.5" stroke="#606060" stroke-width="1.0"/>
           <path id="arrow"
             d="M 11.500037,31.436501 C 11.940474,20.09759 22.043105,11.32322 32.158766,21.979434 L 37.068811,17.246167 C 37.068811,17.246167 37.088388,32 37.088388,32 L 22.160133,31.978069 C 22.160133,31.978069 26.997745,27.140456 26.997745,27.140456 C 18.528582,18.264221 13.291696,25.230495 11.500037,31.436501 z"
             style="fill:#404040;"/>
          </a>
         </g>
        </svg>
</svg>
