<?xml version="1.0" encoding="UTF-8" standalone="no"?>
<!DOCTYPE svg PUBLIC "-//W3C//DTD SVG 1.1//EN"
 "http://www.w3.org/Graphics/SVG/1.1/DTD/svg11.dtd">
<!-- Generated by graphviz version 2.43.0 (0)
 -->
<!-- Title: line_road_curve.cc Pages: 1 -->
<svg width="1631pt" height="296pt"
 viewBox="0.00 0.00 1631.25 296.00" xmlns="http://www.w3.org/2000/svg" xmlns:xlink="http://www.w3.org/1999/xlink">
<g id="graph0" class="graph" transform="scale(1 1) rotate(0) translate(4 292)">
<title>line_road_curve.cc</title>
<polygon fill="white" stroke="transparent" points="-4,4 -4,-292 1627.25,-292 1627.25,4 -4,4"/>
<!-- Node1 -->
<g id="node1" class="node">
<title>Node1</title>
<g id="a_node1"><a xlink:title=" ">
<polygon fill="#bfbfbf" stroke="black" points="476.75,-268.5 476.75,-287.5 583.75,-287.5 583.75,-268.5 476.75,-268.5"/>
<text text-anchor="middle" x="530.25" y="-275.5" font-family="Helvetica,sans-Serif" font-size="10.00">line_road_curve.cc</text>
</a>
</g>
</g>
<!-- Node2 -->
<g id="node2" class="node">
<title>Node2</title>
<g id="a_node2"><a xlink:href="line__road__curve_8h.html" target="_top" xlink:title=" ">
<polygon fill="white" stroke="black" points="409.75,-201.5 409.75,-231.5 536.75,-231.5 536.75,-201.5 409.75,-201.5"/>
<text text-anchor="start" x="417.75" y="-219.5" font-family="Helvetica,sans-Serif" font-size="10.00">maliput_multilane/line</text>
<text text-anchor="middle" x="473.25" y="-208.5" font-family="Helvetica,sans-Serif" font-size="10.00">_road_curve.h</text>
</a>
</g>
</g>
<!-- Node1&#45;&gt;Node2 -->
<g id="edge1" class="edge">
<title>Node1&#45;&gt;Node2</title>
<path fill="none" stroke="midnightblue" d="M522.08,-268.48C514.72,-260.79 503.59,-249.17 493.81,-238.96"/>
<polygon fill="midnightblue" stroke="midnightblue" points="496.13,-236.32 486.68,-231.52 491.07,-241.17 496.13,-236.32"/>
</g>
<!-- Node20 -->
<g id="node20" class="node">
<title>Node20</title>
<g id="a_node20"><a xlink:title=" ">
<polygon fill="white" stroke="#bfbfbf" points="555.25,-207 555.25,-226 619.25,-226 619.25,-207 555.25,-207"/>
<text text-anchor="middle" x="587.25" y="-214" font-family="Helvetica,sans-Serif" font-size="10.00">algorithm</text>
</a>
</g>
</g>
<!-- Node1&#45;&gt;Node20 -->
<g id="edge27" class="edge">
<title>Node1&#45;&gt;Node20</title>
<path fill="none" stroke="midnightblue" d="M538.42,-268.48C547.14,-259.37 561.15,-244.74 571.94,-233.48"/>
<polygon fill="midnightblue" stroke="midnightblue" points="574.71,-235.65 579.1,-226.01 569.65,-230.81 574.71,-235.65"/>
</g>
<!-- Node3 -->
<g id="node3" class="node">
<title>Node3</title>
<g id="a_node3"><a xlink:title=" ">
<polygon fill="white" stroke="#bfbfbf" points="99.75,-6 99.75,-25 146.75,-25 146.75,-6 99.75,-6"/>
<text text-anchor="middle" x="123.25" y="-13" font-family="Helvetica,sans-Serif" font-size="10.00">cmath</text>
</a>
</g>
</g>
<!-- Node2&#45;&gt;Node3 -->
<g id="edge2" class="edge">
<title>Node2&#45;&gt;Node3</title>
<path fill="none" stroke="midnightblue" d="M409.48,-213.27C309.97,-208.86 123.15,-196.54 65.25,-165 21.2,-141 -18.11,-109.05 9.25,-67 26.87,-39.93 62.67,-27.26 89.48,-21.4"/>
<polygon fill="midnightblue" stroke="midnightblue" points="90.48,-24.77 99.61,-19.41 89.13,-17.9 90.48,-24.77"/>
</g>
<!-- Node4 -->
<g id="node4" class="node">
<title>Node4</title>
<g id="a_node4"><a xlink:title=" ">
<polygon fill="white" stroke="#bfbfbf" points="1421.25,-140 1421.25,-159 1465.25,-159 1465.25,-140 1421.25,-140"/>
<text text-anchor="middle" x="1443.25" y="-147" font-family="Helvetica,sans-Serif" font-size="10.00">limits</text>
</a>
</g>
</g>
<!-- Node2&#45;&gt;Node4 -->
<g id="edge3" class="edge">
<title>Node2&#45;&gt;Node4</title>
<path fill="none" stroke="midnightblue" d="M536.86,-202.27C540.03,-201.79 543.17,-201.37 546.25,-201 926.55,-155.56 1032.85,-245.72 1407.25,-165 1410.09,-164.39 1413,-163.57 1415.86,-162.63"/>
<polygon fill="midnightblue" stroke="midnightblue" points="1417.16,-165.88 1425.32,-159.12 1414.72,-159.32 1417.16,-165.88"/>
</g>
<!-- Node5 -->
<g id="node5" class="node">
<title>Node5</title>
<g id="a_node5"><a xlink:title=" ">
<polygon fill="white" stroke="#bfbfbf" points="28.75,-73 28.75,-92 73.75,-92 73.75,-73 28.75,-73"/>
<text text-anchor="middle" x="51.25" y="-80" font-family="Helvetica,sans-Serif" font-size="10.00">utility</text>
</a>
</g>
</g>
<!-- Node2&#45;&gt;Node5 -->
<g id="edge4" class="edge">
<title>Node2&#45;&gt;Node5</title>
<path fill="none" stroke="midnightblue" d="M416.42,-201.47C339.61,-181.82 198.96,-143.36 83.25,-98 81.83,-97.44 80.38,-96.86 78.93,-96.25"/>
<polygon fill="midnightblue" stroke="midnightblue" points="79.95,-92.88 69.39,-92.11 77.17,-99.3 79.95,-92.88"/>
</g>
<!-- Node6 -->
<g id="node6" class="node">
<title>Node6</title>
<g id="a_node6"><a xlink:href="../../maliput/html/lane__data_8h.html.html" xlink:title=" ">
<polygon fill="white" stroke="black" points="92.25,-73 92.25,-92 224.25,-92 224.25,-73 92.25,-73"/>
<text text-anchor="middle" x="158.25" y="-80" font-family="Helvetica,sans-Serif" font-size="10.00">maliput/api/lane_data.h</text>
</a>
</g>
</g>
<!-- Node2&#45;&gt;Node6 -->
<g id="edge5" class="edge">
<title>Node2&#45;&gt;Node6</title>
<path fill="none" stroke="midnightblue" d="M439.84,-201.5C378.17,-175.66 247.39,-120.85 188.32,-96.1"/>
<polygon fill="midnightblue" stroke="midnightblue" points="189.39,-92.75 178.81,-92.12 186.68,-99.21 189.39,-92.75"/>
</g>
<!-- Node7 -->
<g id="node7" class="node">
<title>Node7</title>
<g id="a_node7"><a xlink:href="../../maliput/html/maliput__abort_8h.html.html" xlink:title=" ">
<polygon fill="white" stroke="black" points="1483.25,-134.5 1483.25,-164.5 1623.25,-164.5 1623.25,-134.5 1483.25,-134.5"/>
<text text-anchor="start" x="1491.25" y="-152.5" font-family="Helvetica,sans-Serif" font-size="10.00">maliput/common/maliput</text>
<text text-anchor="middle" x="1553.25" y="-141.5" font-family="Helvetica,sans-Serif" font-size="10.00">_abort.h</text>
</a>
</g>
</g>
<!-- Node2&#45;&gt;Node7 -->
<g id="edge6" class="edge">
<title>Node2&#45;&gt;Node7</title>
<path fill="none" stroke="midnightblue" d="M536.86,-202.25C540.03,-201.79 543.17,-201.36 546.25,-201 952.86,-153.03 1062.24,-209.45 1473.05,-165.01"/>
<polygon fill="midnightblue" stroke="midnightblue" points="1473.56,-168.48 1483.12,-163.91 1472.79,-161.52 1473.56,-168.48"/>
</g>
<!-- Node8 -->
<g id="node8" class="node">
<title>Node8</title>
<g id="a_node8"><a xlink:href="../../maliput/html/maliput__copyable_8h.html.html" xlink:title=" ">
<polygon fill="white" stroke="black" points="315.25,-0.5 315.25,-30.5 455.25,-30.5 455.25,-0.5 315.25,-0.5"/>
<text text-anchor="start" x="323.25" y="-18.5" font-family="Helvetica,sans-Serif" font-size="10.00">maliput/common/maliput</text>
<text text-anchor="middle" x="385.25" y="-7.5" font-family="Helvetica,sans-Serif" font-size="10.00">_copyable.h</text>
</a>
</g>
</g>
<!-- Node2&#45;&gt;Node8 -->
<g id="edge7" class="edge">
<title>Node2&#45;&gt;Node8</title>
<path fill="none" stroke="midnightblue" d="M409.62,-209.19C295.27,-196.31 62.85,-162.62 19.25,-98 11.54,-86.58 10.2,-77.39 19.25,-67 37.76,-45.77 203.17,-29.9 305.19,-22.03"/>
<polygon fill="midnightblue" stroke="midnightblue" points="305.46,-25.52 315.16,-21.27 304.92,-18.54 305.46,-25.52"/>
</g>
<!-- Node9 -->
<g id="node9" class="node">
<title>Node9</title>
<g id="a_node9"><a xlink:href="../../maliput/html/maliput__unused_8h.html.html" xlink:title=" ">
<polygon fill="white" stroke="black" points="941.25,-0.5 941.25,-30.5 1081.25,-30.5 1081.25,-0.5 941.25,-0.5"/>
<text text-anchor="start" x="949.25" y="-18.5" font-family="Helvetica,sans-Serif" font-size="10.00">maliput/common/maliput</text>
<text text-anchor="middle" x="1011.25" y="-7.5" font-family="Helvetica,sans-Serif" font-size="10.00">_unused.h</text>
</a>
</g>
</g>
<!-- Node2&#45;&gt;Node9 -->
<g id="edge8" class="edge">
<title>Node2&#45;&gt;Node9</title>
<path fill="none" stroke="midnightblue" d="M536.89,-202.51C540.05,-201.98 543.19,-201.47 546.25,-201 729.54,-172.98 1252.27,-237.64 1374.25,-98 1383.31,-87.62 1383.3,-77.39 1374.25,-67 1338.38,-25.79 1187.26,-17.14 1091.68,-15.92"/>
<polygon fill="midnightblue" stroke="midnightblue" points="1091.49,-12.42 1081.46,-15.81 1091.42,-19.42 1091.49,-12.42"/>
</g>
<!-- Node10 -->
<g id="node10" class="node">
<title>Node10</title>
<g id="a_node10"><a xlink:href="../../maliput/html/vector_8h.html.html" xlink:title=" ">
<polygon fill="white" stroke="black" points="242.75,-73 242.75,-92 367.75,-92 367.75,-73 242.75,-73"/>
<text text-anchor="middle" x="305.25" y="-80" font-family="Helvetica,sans-Serif" font-size="10.00">maliput/math/vector.h</text>
</a>
</g>
</g>
<!-- Node2&#45;&gt;Node10 -->
<g id="edge9" class="edge">
<title>Node2&#45;&gt;Node10</title>
<path fill="none" stroke="midnightblue" d="M455.27,-201.37C423.26,-176.22 356.68,-123.91 324.07,-98.29"/>
<polygon fill="midnightblue" stroke="midnightblue" points="326.22,-95.52 316.19,-92.1 321.89,-101.03 326.22,-95.52"/>
</g>
<!-- Node11 -->
<g id="node11" class="node">
<title>Node11</title>
<g id="a_node11"><a xlink:href="computation__policy_8h.html" target="_top" xlink:title=" ">
<polygon fill="white" stroke="black" points="1195.25,-67.5 1195.25,-97.5 1365.25,-97.5 1365.25,-67.5 1195.25,-67.5"/>
<text text-anchor="start" x="1203.25" y="-85.5" font-family="Helvetica,sans-Serif" font-size="10.00">maliput_multilane/computation</text>
<text text-anchor="middle" x="1280.25" y="-74.5" font-family="Helvetica,sans-Serif" font-size="10.00">_policy.h</text>
</a>
</g>
</g>
<!-- Node2&#45;&gt;Node11 -->
<g id="edge10" class="edge">
<title>Node2&#45;&gt;Node11</title>
<path fill="none" stroke="midnightblue" d="M536.93,-202.71C540.08,-202.12 543.2,-201.55 546.25,-201 667.45,-179.27 1015.8,-124.65 1185.31,-98.24"/>
<polygon fill="midnightblue" stroke="midnightblue" points="1185.89,-101.7 1195.23,-96.7 1184.81,-94.78 1185.89,-101.7"/>
</g>
<!-- Node12 -->
<g id="node12" class="node">
<title>Node12</title>
<g id="a_node12"><a xlink:href="road__curve_8h.html" target="_top" xlink:title=" ">
<polygon fill="white" stroke="black" points="484.75,-134.5 484.75,-164.5 615.75,-164.5 615.75,-134.5 484.75,-134.5"/>
<text text-anchor="start" x="492.75" y="-152.5" font-family="Helvetica,sans-Serif" font-size="10.00">maliput_multilane/road</text>
<text text-anchor="middle" x="550.25" y="-141.5" font-family="Helvetica,sans-Serif" font-size="10.00">_curve.h</text>
</a>
</g>
</g>
<!-- Node2&#45;&gt;Node12 -->
<g id="edge11" class="edge">
<title>Node2&#45;&gt;Node12</title>
<path fill="none" stroke="midnightblue" d="M489.96,-201.4C500.45,-192.54 514.17,-180.96 525.86,-171.09"/>
<polygon fill="midnightblue" stroke="midnightblue" points="528.19,-173.7 533.58,-164.58 523.68,-168.35 528.19,-173.7"/>
</g>
<!-- Node12&#45;&gt;Node5 -->
<g id="edge14" class="edge">
<title>Node12&#45;&gt;Node5</title>
<path fill="none" stroke="midnightblue" d="M484.45,-147.91C392.92,-145.64 222.69,-136.08 83.25,-98 81.1,-97.41 78.91,-96.7 76.74,-95.9"/>
<polygon fill="midnightblue" stroke="midnightblue" points="78.06,-92.66 67.49,-92.06 75.38,-99.13 78.06,-92.66"/>
</g>
<!-- Node12&#45;&gt;Node6 -->
<g id="edge15" class="edge">
<title>Node12&#45;&gt;Node6</title>
<path fill="none" stroke="midnightblue" d="M484.58,-138.68C420.39,-128.94 319.97,-113.29 233.25,-98 226.07,-96.73 218.51,-95.34 211.07,-93.94"/>
<polygon fill="midnightblue" stroke="midnightblue" points="211.52,-90.46 201.04,-92.03 210.21,-97.34 211.52,-90.46"/>
</g>
<!-- Node12&#45;&gt;Node8 -->
<g id="edge16" class="edge">
<title>Node12&#45;&gt;Node8</title>
<path fill="none" stroke="midnightblue" d="M484.44,-136.07C460.07,-128.58 433.87,-116.72 415.25,-98 399.86,-82.52 392.28,-58.49 388.6,-40.52"/>
<polygon fill="midnightblue" stroke="midnightblue" points="392.02,-39.74 386.82,-30.5 385.12,-40.96 392.02,-39.74"/>
</g>
<!-- Node12&#45;&gt;Node10 -->
<g id="edge20" class="edge">
<title>Node12&#45;&gt;Node10</title>
<path fill="none" stroke="midnightblue" d="M497.39,-134.48C452.43,-122.55 388.72,-105.64 347.19,-94.63"/>
<polygon fill="midnightblue" stroke="midnightblue" points="347.96,-91.21 337.4,-92.03 346.17,-97.98 347.96,-91.21"/>
</g>
<!-- Node12&#45;&gt;Node11 -->
<g id="edge21" class="edge">
<title>Node12&#45;&gt;Node11</title>
<path fill="none" stroke="midnightblue" d="M615.76,-144.85C729.31,-138.19 970.22,-122.54 1184.89,-97.98"/>
<polygon fill="midnightblue" stroke="midnightblue" points="1185.56,-101.42 1195.09,-96.8 1184.76,-94.47 1185.56,-101.42"/>
</g>
<!-- Node13 -->
<g id="node13" class="node">
<title>Node13</title>
<g id="a_node13"><a xlink:title=" ">
<polygon fill="white" stroke="#bfbfbf" points="576.75,-73 576.75,-92 641.75,-92 641.75,-73 576.75,-73"/>
<text text-anchor="middle" x="609.25" y="-80" font-family="Helvetica,sans-Serif" font-size="10.00">functional</text>
</a>
</g>
</g>
<!-- Node12&#45;&gt;Node13 -->
<g id="edge12" class="edge">
<title>Node12&#45;&gt;Node13</title>
<path fill="none" stroke="midnightblue" d="M563.05,-134.4C572.34,-124.16 584.93,-110.3 594.62,-99.62"/>
<polygon fill="midnightblue" stroke="midnightblue" points="597.23,-101.95 601.36,-92.19 592.05,-97.25 597.23,-101.95"/>
</g>
<!-- Node14 -->
<g id="node14" class="node">
<title>Node14</title>
<g id="a_node14"><a xlink:title=" ">
<polygon fill="white" stroke="#bfbfbf" points="660.25,-73 660.25,-92 718.25,-92 718.25,-73 660.25,-73"/>
<text text-anchor="middle" x="689.25" y="-80" font-family="Helvetica,sans-Serif" font-size="10.00">memory</text>
</a>
</g>
</g>
<!-- Node12&#45;&gt;Node14 -->
<g id="edge13" class="edge">
<title>Node12&#45;&gt;Node14</title>
<path fill="none" stroke="midnightblue" d="M580.41,-134.4C604.69,-123.04 638.53,-107.22 662,-96.24"/>
<polygon fill="midnightblue" stroke="midnightblue" points="663.48,-99.41 671.06,-92.01 660.52,-93.07 663.48,-99.41"/>
</g>
<!-- Node15 -->
<g id="node15" class="node">
<title>Node15</title>
<g id="a_node15"><a xlink:href="../../maliput/html/arc__length__integrator_8h.html.html" xlink:title=" ">
<polygon fill="white" stroke="black" points="736.25,-67.5 736.25,-97.5 874.25,-97.5 874.25,-67.5 736.25,-67.5"/>
<text text-anchor="start" x="744.25" y="-85.5" font-family="Helvetica,sans-Serif" font-size="10.00">maliput/drake/arc_length</text>
<text text-anchor="middle" x="805.25" y="-74.5" font-family="Helvetica,sans-Serif" font-size="10.00">_integrator.h</text>
</a>
</g>
</g>
<!-- Node12&#45;&gt;Node15 -->
<g id="edge17" class="edge">
<title>Node12&#45;&gt;Node15</title>
<path fill="none" stroke="midnightblue" d="M605.27,-134.48C644.85,-124.39 698.38,-110.74 740.1,-100.11"/>
<polygon fill="midnightblue" stroke="midnightblue" points="741.07,-103.47 749.89,-97.61 739.34,-96.69 741.07,-103.47"/>
</g>
<!-- Node16 -->
<g id="node16" class="node">
<title>Node16</title>
<g id="a_node16"><a xlink:href="../../maliput/html/inverse__arc__length__integrator_8h.html.html" xlink:title=" ">
<polygon fill="white" stroke="black" points="892.75,-67.5 892.75,-97.5 1027.75,-97.5 1027.75,-67.5 892.75,-67.5"/>
<text text-anchor="start" x="900.75" y="-85.5" font-family="Helvetica,sans-Serif" font-size="10.00">maliput/drake/inverse</text>
<text text-anchor="middle" x="960.25" y="-74.5" font-family="Helvetica,sans-Serif" font-size="10.00">_arc_length_integrator.h</text>
</a>
</g>
</g>
<!-- Node12&#45;&gt;Node16 -->
<g id="edge18" class="edge">
<title>Node12&#45;&gt;Node16</title>
<path fill="none" stroke="midnightblue" d="M615.76,-139.27C680.83,-129.94 783.69,-114.76 882.78,-98.04"/>
<polygon fill="midnightblue" stroke="midnightblue" points="883.39,-101.49 892.67,-96.37 882.22,-94.59 883.39,-101.49"/>
</g>
<!-- Node17 -->
<g id="node17" class="node">
<title>Node17</title>
<g id="a_node17"><a xlink:href="../../maliput/html/roll__pitch__yaw_8h.html.html" xlink:title=" ">
<polygon fill="white" stroke="black" points="1045.75,-67.5 1045.75,-97.5 1176.75,-97.5 1176.75,-67.5 1045.75,-67.5"/>
<text text-anchor="start" x="1053.75" y="-85.5" font-family="Helvetica,sans-Serif" font-size="10.00">maliput/math/roll_pitch</text>
<text text-anchor="middle" x="1111.25" y="-74.5" font-family="Helvetica,sans-Serif" font-size="10.00">_yaw.h</text>
</a>
</g>
</g>
<!-- Node12&#45;&gt;Node17 -->
<g id="edge19" class="edge">
<title>Node12&#45;&gt;Node17</title>
<path fill="none" stroke="midnightblue" d="M616.12,-143.49C707.76,-136.12 879.12,-120.86 1035.2,-98.07"/>
<polygon fill="midnightblue" stroke="midnightblue" points="1036.07,-101.48 1045.46,-96.56 1035.05,-94.55 1036.07,-101.48"/>
</g>
<!-- Node18 -->
<g id="node18" class="node">
<title>Node18</title>
<g id="a_node18"><a xlink:href="cubic__polynomial_8h.html" target="_top" xlink:title=" ">
<polygon fill="white" stroke="black" points="424.25,-67.5 424.25,-97.5 558.25,-97.5 558.25,-67.5 424.25,-67.5"/>
<text text-anchor="start" x="432.25" y="-85.5" font-family="Helvetica,sans-Serif" font-size="10.00">maliput_multilane/cubic</text>
<text text-anchor="middle" x="491.25" y="-74.5" font-family="Helvetica,sans-Serif" font-size="10.00">_polynomial.h</text>
</a>
</g>
</g>
<!-- Node12&#45;&gt;Node18 -->
<g id="edge22" class="edge">
<title>Node12&#45;&gt;Node18</title>
<path fill="none" stroke="midnightblue" d="M537.45,-134.4C529.72,-125.88 519.7,-114.85 510.98,-105.23"/>
<polygon fill="midnightblue" stroke="midnightblue" points="513.34,-102.63 504.03,-97.58 508.16,-107.33 513.34,-102.63"/>
</g>
<!-- Node18&#45;&gt;Node3 -->
<g id="edge23" class="edge">
<title>Node18&#45;&gt;Node3</title>
<path fill="none" stroke="midnightblue" d="M424.18,-69.65C345.37,-55.73 217.68,-33.18 157.15,-22.49"/>
<polygon fill="midnightblue" stroke="midnightblue" points="157.46,-18.99 147,-20.69 156.24,-25.88 157.46,-18.99"/>
</g>
<!-- Node18&#45;&gt;Node8 -->
<g id="edge25" class="edge">
<title>Node18&#45;&gt;Node8</title>
<path fill="none" stroke="midnightblue" d="M468.25,-67.4C453.25,-58.2 433.47,-46.07 416.98,-35.95"/>
<polygon fill="midnightblue" stroke="midnightblue" points="418.56,-32.82 408.21,-30.58 414.9,-38.79 418.56,-32.82"/>
</g>
<!-- Node18&#45;&gt;Node9 -->
<g id="edge26" class="edge">
<title>Node18&#45;&gt;Node9</title>
<path fill="none" stroke="midnightblue" d="M558.34,-68.42C561.35,-67.92 564.33,-67.44 567.25,-67 693.91,-47.74 841.91,-32.32 931.02,-23.79"/>
<polygon fill="midnightblue" stroke="midnightblue" points="931.43,-27.27 941.06,-22.84 930.77,-20.3 931.43,-27.27"/>
</g>
<!-- Node19 -->
<g id="node19" class="node">
<title>Node19</title>
<g id="a_node19"><a xlink:title=" ">
<polygon fill="white" stroke="#bfbfbf" points="473.75,-6 473.75,-25 530.75,-25 530.75,-6 473.75,-6"/>
<text text-anchor="middle" x="502.25" y="-13" font-family="Helvetica,sans-Serif" font-size="10.00">ostream</text>
</a>
</g>
</g>
<!-- Node18&#45;&gt;Node19 -->
<g id="edge24" class="edge">
<title>Node18&#45;&gt;Node19</title>
<path fill="none" stroke="midnightblue" d="M493.64,-67.4C495.23,-57.96 497.35,-45.45 499.09,-35.19"/>
<polygon fill="midnightblue" stroke="midnightblue" points="502.56,-35.64 500.78,-25.19 495.66,-34.47 502.56,-35.64"/>
</g>
</g>
</svg>
