<?xml version="1.0" encoding="UTF-8" standalone="no"?>
<!DOCTYPE svg PUBLIC "-//W3C//DTD SVG 1.1//EN"
 "http://www.w3.org/Graphics/SVG/1.1/DTD/svg11.dtd">
<!-- Generated by graphviz version 2.43.0 (0)
 -->
<!-- Title: road_curve.h Pages: 1 -->
<svg width="1464pt" height="162pt"
 viewBox="0.00 0.00 1463.50 162.00" xmlns="http://www.w3.org/2000/svg" xmlns:xlink="http://www.w3.org/1999/xlink">
<g id="graph0" class="graph" transform="scale(1 1) rotate(0) translate(4 158)">
<title>road_curve.h</title>
<polygon fill="white" stroke="transparent" points="-4,4 -4,-158 1459.5,-158 1459.5,4 -4,4"/>
<!-- Node1 -->
<g id="node1" class="node">
<title>Node1</title>
<g id="a_node1"><a xlink:title=" ">
<polygon fill="#bfbfbf" stroke="black" points="440.5,-134.5 440.5,-153.5 520.5,-153.5 520.5,-134.5 440.5,-134.5"/>
<text text-anchor="middle" x="480.5" y="-141.5" font-family="Helvetica,sans-Serif" font-size="10.00">road_curve.h</text>
</a>
</g>
</g>
<!-- Node2 -->
<g id="node2" class="node">
<title>Node2</title>
<g id="a_node2"><a xlink:title=" ">
<polygon fill="white" stroke="#bfbfbf" points="0,-73 0,-92 65,-92 65,-73 0,-73"/>
<text text-anchor="middle" x="32.5" y="-80" font-family="Helvetica,sans-Serif" font-size="10.00">functional</text>
</a>
</g>
</g>
<!-- Node1&#45;&gt;Node2 -->
<g id="edge1" class="edge">
<title>Node1&#45;&gt;Node2</title>
<path fill="none" stroke="midnightblue" d="M440.25,-141.5C366.77,-138.1 206.3,-127.67 74.5,-98 71.09,-97.23 67.56,-96.28 64.07,-95.23"/>
<polygon fill="midnightblue" stroke="midnightblue" points="65.06,-91.87 54.47,-92.11 62.9,-98.53 65.06,-91.87"/>
</g>
<!-- Node3 -->
<g id="node3" class="node">
<title>Node3</title>
<g id="a_node3"><a xlink:title=" ">
<polygon fill="white" stroke="#bfbfbf" points="83.5,-73 83.5,-92 141.5,-92 141.5,-73 83.5,-73"/>
<text text-anchor="middle" x="112.5" y="-80" font-family="Helvetica,sans-Serif" font-size="10.00">memory</text>
</a>
</g>
</g>
<!-- Node1&#45;&gt;Node3 -->
<g id="edge2" class="edge">
<title>Node1&#45;&gt;Node3</title>
<path fill="none" stroke="midnightblue" d="M440.31,-140.5C377.6,-135.93 253.02,-124.18 150.5,-98 147.68,-97.28 144.78,-96.41 141.9,-95.47"/>
<polygon fill="midnightblue" stroke="midnightblue" points="142.93,-92.12 132.34,-92.05 140.58,-98.71 142.93,-92.12"/>
</g>
<!-- Node4 -->
<g id="node4" class="node">
<title>Node4</title>
<g id="a_node4"><a xlink:title=" ">
<polygon fill="white" stroke="#bfbfbf" points="160,-73 160,-92 205,-92 205,-73 160,-73"/>
<text text-anchor="middle" x="182.5" y="-80" font-family="Helvetica,sans-Serif" font-size="10.00">utility</text>
</a>
</g>
</g>
<!-- Node1&#45;&gt;Node4 -->
<g id="edge3" class="edge">
<title>Node1&#45;&gt;Node4</title>
<path fill="none" stroke="midnightblue" d="M440.1,-139.44C387.32,-134.04 292.44,-121.81 214.5,-98 212.58,-97.41 210.61,-96.73 208.66,-96"/>
<polygon fill="midnightblue" stroke="midnightblue" points="209.7,-92.64 199.12,-92.01 207,-99.1 209.7,-92.64"/>
</g>
<!-- Node5 -->
<g id="node5" class="node">
<title>Node5</title>
<g id="a_node5"><a xlink:href="../../maliput/html/lane__data_8h.html.html" xlink:title=" ">
<polygon fill="white" stroke="black" points="223.5,-73 223.5,-92 355.5,-92 355.5,-73 223.5,-73"/>
<text text-anchor="middle" x="289.5" y="-80" font-family="Helvetica,sans-Serif" font-size="10.00">maliput/api/lane_data.h</text>
</a>
</g>
</g>
<!-- Node1&#45;&gt;Node5 -->
<g id="edge4" class="edge">
<title>Node1&#45;&gt;Node5</title>
<path fill="none" stroke="midnightblue" d="M453.13,-134.48C419.95,-124.14 363.85,-106.66 326.74,-95.1"/>
<polygon fill="midnightblue" stroke="midnightblue" points="327.4,-91.64 316.81,-92.01 325.32,-98.32 327.4,-91.64"/>
</g>
<!-- Node6 -->
<g id="node6" class="node">
<title>Node6</title>
<g id="a_node6"><a xlink:href="../../maliput/html/maliput__copyable_8h.html.html" xlink:title=" ">
<polygon fill="white" stroke="black" points="665.5,-0.5 665.5,-30.5 805.5,-30.5 805.5,-0.5 665.5,-0.5"/>
<text text-anchor="start" x="673.5" y="-18.5" font-family="Helvetica,sans-Serif" font-size="10.00">maliput/common/maliput</text>
<text text-anchor="middle" x="735.5" y="-7.5" font-family="Helvetica,sans-Serif" font-size="10.00">_copyable.h</text>
</a>
</g>
</g>
<!-- Node1&#45;&gt;Node6 -->
<g id="edge5" class="edge">
<title>Node1&#45;&gt;Node6</title>
<path fill="none" stroke="midnightblue" d="M451.38,-134.44C433.86,-127.62 412.98,-116.14 402.5,-98 395.61,-86.07 393.52,-77.45 402.5,-67 434.45,-29.84 567.31,-19.69 655.25,-17.11"/>
<polygon fill="midnightblue" stroke="midnightblue" points="655.57,-20.61 665.48,-16.84 655.39,-13.61 655.57,-20.61"/>
</g>
<!-- Node7 -->
<g id="node7" class="node">
<title>Node7</title>
<g id="a_node7"><a xlink:href="../../maliput/html/arc__length__integrator_8h.html.html" xlink:title=" ">
<polygon fill="white" stroke="black" points="411.5,-67.5 411.5,-97.5 549.5,-97.5 549.5,-67.5 411.5,-67.5"/>
<text text-anchor="start" x="419.5" y="-85.5" font-family="Helvetica,sans-Serif" font-size="10.00">maliput/drake/arc_length</text>
<text text-anchor="middle" x="480.5" y="-74.5" font-family="Helvetica,sans-Serif" font-size="10.00">_integrator.h</text>
</a>
</g>
</g>
<!-- Node1&#45;&gt;Node7 -->
<g id="edge6" class="edge">
<title>Node1&#45;&gt;Node7</title>
<path fill="none" stroke="midnightblue" d="M480.5,-134.48C480.5,-127.47 480.5,-117.19 480.5,-107.7"/>
<polygon fill="midnightblue" stroke="midnightblue" points="484,-107.52 480.5,-97.52 477,-107.52 484,-107.52"/>
</g>
<!-- Node8 -->
<g id="node8" class="node">
<title>Node8</title>
<g id="a_node8"><a xlink:href="../../maliput/html/inverse__arc__length__integrator_8h.html.html" xlink:title=" ">
<polygon fill="white" stroke="black" points="568,-67.5 568,-97.5 703,-97.5 703,-67.5 568,-67.5"/>
<text text-anchor="start" x="576" y="-85.5" font-family="Helvetica,sans-Serif" font-size="10.00">maliput/drake/inverse</text>
<text text-anchor="middle" x="635.5" y="-74.5" font-family="Helvetica,sans-Serif" font-size="10.00">_arc_length_integrator.h</text>
</a>
</g>
</g>
<!-- Node1&#45;&gt;Node8 -->
<g id="edge7" class="edge">
<title>Node1&#45;&gt;Node8</title>
<path fill="none" stroke="midnightblue" d="M502.71,-134.48C525.27,-125.81 560.88,-112.15 589.54,-101.14"/>
<polygon fill="midnightblue" stroke="midnightblue" points="590.89,-104.37 598.97,-97.52 588.38,-97.84 590.89,-104.37"/>
</g>
<!-- Node9 -->
<g id="node9" class="node">
<title>Node9</title>
<g id="a_node9"><a xlink:href="../../maliput/html/roll__pitch__yaw_8h.html.html" xlink:title=" ">
<polygon fill="white" stroke="black" points="721,-67.5 721,-97.5 852,-97.5 852,-67.5 721,-67.5"/>
<text text-anchor="start" x="729" y="-85.5" font-family="Helvetica,sans-Serif" font-size="10.00">maliput/math/roll_pitch</text>
<text text-anchor="middle" x="786.5" y="-74.5" font-family="Helvetica,sans-Serif" font-size="10.00">_yaw.h</text>
</a>
</g>
</g>
<!-- Node1&#45;&gt;Node9 -->
<g id="edge8" class="edge">
<title>Node1&#45;&gt;Node9</title>
<path fill="none" stroke="midnightblue" d="M520.5,-135.22C568.69,-125.85 650.66,-109.91 710.9,-98.2"/>
<polygon fill="midnightblue" stroke="midnightblue" points="711.6,-101.63 720.75,-96.28 710.27,-94.76 711.6,-101.63"/>
</g>
<!-- Node10 -->
<g id="node10" class="node">
<title>Node10</title>
<g id="a_node10"><a xlink:href="../../maliput/html/vector_8h.html.html" xlink:title=" ">
<polygon fill="white" stroke="black" points="870,-73 870,-92 995,-92 995,-73 870,-73"/>
<text text-anchor="middle" x="932.5" y="-80" font-family="Helvetica,sans-Serif" font-size="10.00">maliput/math/vector.h</text>
</a>
</g>
</g>
<!-- Node1&#45;&gt;Node10 -->
<g id="edge9" class="edge">
<title>Node1&#45;&gt;Node10</title>
<path fill="none" stroke="midnightblue" d="M520.59,-139.33C590.04,-132.73 737.17,-117.69 860.5,-98 867.85,-96.83 875.6,-95.43 883.18,-93.98"/>
<polygon fill="midnightblue" stroke="midnightblue" points="883.85,-97.42 892.99,-92.05 882.51,-90.55 883.85,-97.42"/>
</g>
<!-- Node11 -->
<g id="node11" class="node">
<title>Node11</title>
<g id="a_node11"><a xlink:href="computation__policy_8h.html" target="_top" xlink:title=" ">
<polygon fill="white" stroke="black" points="1013.5,-67.5 1013.5,-97.5 1183.5,-97.5 1183.5,-67.5 1013.5,-67.5"/>
<text text-anchor="start" x="1021.5" y="-85.5" font-family="Helvetica,sans-Serif" font-size="10.00">maliput_multilane/computation</text>
<text text-anchor="middle" x="1098.5" y="-74.5" font-family="Helvetica,sans-Serif" font-size="10.00">_policy.h</text>
</a>
</g>
</g>
<!-- Node1&#45;&gt;Node11 -->
<g id="edge10" class="edge">
<title>Node1&#45;&gt;Node11</title>
<path fill="none" stroke="midnightblue" d="M520.62,-140.45C606.82,-134.78 816.33,-119.95 1003.33,-97.96"/>
<polygon fill="midnightblue" stroke="midnightblue" points="1003.82,-101.43 1013.34,-96.77 1003,-94.48 1003.82,-101.43"/>
</g>
<!-- Node12 -->
<g id="node12" class="node">
<title>Node12</title>
<g id="a_node12"><a xlink:href="cubic__polynomial_8h.html" target="_top" xlink:title=" ">
<polygon fill="white" stroke="black" points="1201.5,-67.5 1201.5,-97.5 1335.5,-97.5 1335.5,-67.5 1201.5,-67.5"/>
<text text-anchor="start" x="1209.5" y="-85.5" font-family="Helvetica,sans-Serif" font-size="10.00">maliput_multilane/cubic</text>
<text text-anchor="middle" x="1268.5" y="-74.5" font-family="Helvetica,sans-Serif" font-size="10.00">_polynomial.h</text>
</a>
</g>
</g>
<!-- Node1&#45;&gt;Node12 -->
<g id="edge11" class="edge">
<title>Node1&#45;&gt;Node12</title>
<path fill="none" stroke="midnightblue" d="M520.81,-142.22C628.22,-139.77 930.34,-130.42 1191.39,-98.03"/>
<polygon fill="midnightblue" stroke="midnightblue" points="1191.95,-101.49 1201.44,-96.77 1191.08,-94.54 1191.95,-101.49"/>
</g>
<!-- Node12&#45;&gt;Node6 -->
<g id="edge14" class="edge">
<title>Node12&#45;&gt;Node6</title>
<path fill="none" stroke="midnightblue" d="M1201.41,-68.4C1198.4,-67.91 1195.42,-67.44 1192.5,-67 1061.07,-47.23 907.27,-31.81 815.81,-23.45"/>
<polygon fill="midnightblue" stroke="midnightblue" points="816.07,-19.96 805.79,-22.54 815.43,-26.93 816.07,-19.96"/>
</g>
<!-- Node13 -->
<g id="node13" class="node">
<title>Node13</title>
<g id="a_node13"><a xlink:title=" ">
<polygon fill="white" stroke="#bfbfbf" points="1175,-6 1175,-25 1222,-25 1222,-6 1175,-6"/>
<text text-anchor="middle" x="1198.5" y="-13" font-family="Helvetica,sans-Serif" font-size="10.00">cmath</text>
</a>
</g>
</g>
<!-- Node12&#45;&gt;Node13 -->
<g id="edge12" class="edge">
<title>Node12&#45;&gt;Node13</title>
<path fill="none" stroke="midnightblue" d="M1253.31,-67.4C1242.18,-57.06 1227.06,-43.02 1215.53,-32.31"/>
<polygon fill="midnightblue" stroke="midnightblue" points="1217.57,-29.43 1207.86,-25.19 1212.81,-34.56 1217.57,-29.43"/>
</g>
<!-- Node14 -->
<g id="node14" class="node">
<title>Node14</title>
<g id="a_node14"><a xlink:title=" ">
<polygon fill="white" stroke="#bfbfbf" points="1240,-6 1240,-25 1297,-25 1297,-6 1240,-6"/>
<text text-anchor="middle" x="1268.5" y="-13" font-family="Helvetica,sans-Serif" font-size="10.00">ostream</text>
</a>
</g>
</g>
<!-- Node12&#45;&gt;Node14 -->
<g id="edge13" class="edge">
<title>Node12&#45;&gt;Node14</title>
<path fill="none" stroke="midnightblue" d="M1268.5,-67.4C1268.5,-58.06 1268.5,-45.71 1268.5,-35.52"/>
<polygon fill="midnightblue" stroke="midnightblue" points="1272,-35.19 1268.5,-25.19 1265,-35.19 1272,-35.19"/>
</g>
<!-- Node15 -->
<g id="node15" class="node">
<title>Node15</title>
<g id="a_node15"><a xlink:href="../../maliput/html/maliput__unused_8h.html.html" xlink:title=" ">
<polygon fill="white" stroke="black" points="1315.5,-0.5 1315.5,-30.5 1455.5,-30.5 1455.5,-0.5 1315.5,-0.5"/>
<text text-anchor="start" x="1323.5" y="-18.5" font-family="Helvetica,sans-Serif" font-size="10.00">maliput/common/maliput</text>
<text text-anchor="middle" x="1385.5" y="-7.5" font-family="Helvetica,sans-Serif" font-size="10.00">_unused.h</text>
</a>
</g>
</g>
<!-- Node12&#45;&gt;Node15 -->
<g id="edge15" class="edge">
<title>Node12&#45;&gt;Node15</title>
<path fill="none" stroke="midnightblue" d="M1293.89,-67.4C1310.68,-58.07 1332.89,-45.73 1351.24,-35.53"/>
<polygon fill="midnightblue" stroke="midnightblue" points="1353.12,-38.49 1360.16,-30.58 1349.72,-32.37 1353.12,-38.49"/>
</g>
</g>
</svg>
