<?xml version="1.0" encoding="UTF-8" standalone="no"?>
<!DOCTYPE svg PUBLIC "-//W3C//DTD SVG 1.1//EN"
 "http://www.w3.org/Graphics/SVG/1.1/DTD/svg11.dtd">
<!-- Generated by graphviz version 2.43.0 (0)
 -->
<!-- Title: dynamic_environment_handler.h Pages: 1 -->
<svg width="587pt" height="173pt"
 viewBox="0.00 0.00 587.00 173.00" xmlns="http://www.w3.org/2000/svg" xmlns:xlink="http://www.w3.org/1999/xlink">
<g id="graph0" class="graph" transform="scale(1 1) rotate(0) translate(4 169)">
<title>dynamic_environment_handler.h</title>
<polygon fill="white" stroke="transparent" points="-4,4 -4,-169 583,-169 583,4 -4,4"/>
<!-- Node1 -->
<g id="node1" class="node">
<title>Node1</title>
<g id="a_node1"><a xlink:title=" ">
<polygon fill="#bfbfbf" stroke="black" points="176.5,-134.5 176.5,-164.5 302.5,-164.5 302.5,-134.5 176.5,-134.5"/>
<text text-anchor="start" x="184.5" y="-152.5" font-family="Helvetica,sans-Serif" font-size="10.00">dynamic_environment</text>
<text text-anchor="middle" x="239.5" y="-141.5" font-family="Helvetica,sans-Serif" font-size="10.00">_handler.h</text>
</a>
</g>
</g>
<!-- Node2 -->
<g id="node2" class="node">
<title>Node2</title>
<g id="a_node2"><a xlink:href="../../maliput/html/road__network_8h.html.html" xlink:title=" ">
<polygon fill="white" stroke="black" points="0,-73 0,-92 151,-92 151,-73 0,-73"/>
<text text-anchor="middle" x="75.5" y="-80" font-family="Helvetica,sans-Serif" font-size="10.00">maliput/api/road_network.h</text>
</a>
</g>
</g>
<!-- Node1&#45;&gt;Node2 -->
<g id="edge1" class="edge">
<title>Node1&#45;&gt;Node2</title>
<path fill="none" stroke="midnightblue" d="M203.91,-134.4C174.88,-122.89 134.28,-106.8 106.55,-95.81"/>
<polygon fill="midnightblue" stroke="midnightblue" points="107.55,-92.44 96.96,-92.01 104.97,-98.95 107.55,-92.44"/>
</g>
<!-- Node3 -->
<g id="node3" class="node">
<title>Node3</title>
<g id="a_node3"><a xlink:href="../../maliput/html/maliput__copyable_8h.html.html" xlink:title=" ">
<polygon fill="white" stroke="black" points="169.5,-67.5 169.5,-97.5 309.5,-97.5 309.5,-67.5 169.5,-67.5"/>
<text text-anchor="start" x="177.5" y="-85.5" font-family="Helvetica,sans-Serif" font-size="10.00">maliput/common/maliput</text>
<text text-anchor="middle" x="239.5" y="-74.5" font-family="Helvetica,sans-Serif" font-size="10.00">_copyable.h</text>
</a>
</g>
</g>
<!-- Node1&#45;&gt;Node3 -->
<g id="edge2" class="edge">
<title>Node1&#45;&gt;Node3</title>
<path fill="none" stroke="midnightblue" d="M239.5,-134.4C239.5,-126.64 239.5,-116.81 239.5,-107.86"/>
<polygon fill="midnightblue" stroke="midnightblue" points="243,-107.58 239.5,-97.58 236,-107.58 243,-107.58"/>
</g>
<!-- Node4 -->
<g id="node4" class="node">
<title>Node4</title>
<g id="a_node4"><a xlink:href="macros_8h.html" target="_top" xlink:title=" ">
<polygon fill="white" stroke="black" points="327.5,-73 327.5,-92 437.5,-92 437.5,-73 327.5,-73"/>
<text text-anchor="middle" x="382.5" y="-80" font-family="Helvetica,sans-Serif" font-size="10.00">delphyne/macros.h</text>
</a>
</g>
</g>
<!-- Node1&#45;&gt;Node4 -->
<g id="edge3" class="edge">
<title>Node1&#45;&gt;Node4</title>
<path fill="none" stroke="midnightblue" d="M270.53,-134.4C295.51,-123.04 330.32,-107.22 354.46,-96.24"/>
<polygon fill="midnightblue" stroke="midnightblue" points="356.13,-99.33 363.78,-92.01 353.23,-92.96 356.13,-99.33"/>
</g>
<!-- Node5 -->
<g id="node5" class="node">
<title>Node5</title>
<g id="a_node5"><a xlink:title=" ">
<polygon fill="white" stroke="#bfbfbf" points="260.5,-6 260.5,-25 304.5,-25 304.5,-6 260.5,-6"/>
<text text-anchor="middle" x="282.5" y="-13" font-family="Helvetica,sans-Serif" font-size="10.00">string</text>
</a>
</g>
</g>
<!-- Node4&#45;&gt;Node5 -->
<g id="edge4" class="edge">
<title>Node4&#45;&gt;Node5</title>
<path fill="none" stroke="midnightblue" d="M369.01,-72.73C352.45,-61.96 324.12,-43.55 304.41,-30.74"/>
<polygon fill="midnightblue" stroke="midnightblue" points="306.06,-27.64 295.77,-25.13 302.25,-33.51 306.06,-27.64"/>
</g>
<!-- Node6 -->
<g id="node6" class="node">
<title>Node6</title>
<g id="a_node6"><a xlink:href="../../maliput/html/drake__assert_8h.html.html" xlink:title=" ">
<polygon fill="white" stroke="black" points="323,-0.5 323,-30.5 442,-30.5 442,-0.5 323,-0.5"/>
<text text-anchor="start" x="331" y="-18.5" font-family="Helvetica,sans-Serif" font-size="10.00">drake/common/drake</text>
<text text-anchor="middle" x="382.5" y="-7.5" font-family="Helvetica,sans-Serif" font-size="10.00">_assert.h</text>
</a>
</g>
</g>
<!-- Node4&#45;&gt;Node6 -->
<g id="edge5" class="edge">
<title>Node4&#45;&gt;Node6</title>
<path fill="none" stroke="midnightblue" d="M382.5,-72.73C382.5,-64.54 382.5,-51.92 382.5,-40.71"/>
<polygon fill="midnightblue" stroke="midnightblue" points="386,-40.59 382.5,-30.59 379,-40.59 386,-40.59"/>
</g>
<!-- Node7 -->
<g id="node7" class="node">
<title>Node7</title>
<g id="a_node7"><a xlink:href="../../maliput/html/drake__copyable_8h.html.html" xlink:title=" ">
<polygon fill="white" stroke="black" points="460,-0.5 460,-30.5 579,-30.5 579,-0.5 460,-0.5"/>
<text text-anchor="start" x="468" y="-18.5" font-family="Helvetica,sans-Serif" font-size="10.00">drake/common/drake</text>
<text text-anchor="middle" x="519.5" y="-7.5" font-family="Helvetica,sans-Serif" font-size="10.00">_copyable.h</text>
</a>
</g>
</g>
<!-- Node4&#45;&gt;Node7 -->
<g id="edge6" class="edge">
<title>Node4&#45;&gt;Node7</title>
<path fill="none" stroke="midnightblue" d="M400.69,-72.87C420.98,-63.24 454.4,-47.39 480.63,-34.94"/>
<polygon fill="midnightblue" stroke="midnightblue" points="482.4,-37.98 489.93,-30.53 479.4,-31.65 482.4,-37.98"/>
</g>
</g>
</svg>
