<?xml version="1.0" encoding="UTF-8" standalone="no"?>
<!DOCTYPE svg PUBLIC "-//W3C//DTD SVG 1.1//EN"
 "http://www.w3.org/Graphics/SVG/1.1/DTD/svg11.dtd">
<!-- Generated by graphviz version 2.43.0 (0)
 -->
<!-- Title: filesystem.h Pages: 1 -->
<svg width="728pt" height="84pt"
 viewBox="0.00 0.00 727.50 84.00" xmlns="http://www.w3.org/2000/svg" xmlns:xlink="http://www.w3.org/1999/xlink">
<g id="graph0" class="graph" transform="scale(1 1) rotate(0) translate(4 80)">
<title>filesystem.h</title>
<polygon fill="white" stroke="transparent" points="-4,4 -4,-80 723.5,-80 723.5,4 -4,4"/>
<!-- Node1 -->
<g id="node1" class="node">
<title>Node1</title>
<g id="a_node1"><a xlink:title=" ">
<polygon fill="#bfbfbf" stroke="black" points="356.5,-56.5 356.5,-75.5 433.5,-75.5 433.5,-56.5 356.5,-56.5"/>
<text text-anchor="middle" x="395" y="-63.5" font-family="Helvetica,sans-Serif" font-size="10.00">filesystem.h</text>
</a>
</g>
</g>
<!-- Node2 -->
<g id="node2" class="node">
<title>Node2</title>
<g id="a_node2"><a xlink:href="data__logger_8cc.html" target="_top" xlink:title=" ">
<polygon fill="white" stroke="black" points="0,-0.5 0,-19.5 88,-19.5 88,-0.5 0,-0.5"/>
<text text-anchor="middle" x="44" y="-7.5" font-family="Helvetica,sans-Serif" font-size="10.00">data_logger.cc</text>
</a>
</g>
</g>
<!-- Node1&#45;&gt;Node2 -->
<g id="edge1" class="edge">
<title>Node1&#45;&gt;Node2</title>
<path fill="none" stroke="midnightblue" d="M346.23,-57.92C287.18,-49.27 184.73,-34.07 97,-20 94.14,-19.54 91.2,-19.06 88.24,-18.57"/>
<polygon fill="midnightblue" stroke="midnightblue" points="345.99,-61.42 356.39,-59.4 347,-54.49 345.99,-61.42"/>
</g>
<!-- Node3 -->
<g id="node3" class="node">
<title>Node3</title>
<g id="a_node3"><a xlink:href="simulation__runner_8cc.html" target="_top" xlink:title=" ">
<polygon fill="white" stroke="black" points="106.5,-0.5 106.5,-19.5 225.5,-19.5 225.5,-0.5 106.5,-0.5"/>
<text text-anchor="middle" x="166" y="-7.5" font-family="Helvetica,sans-Serif" font-size="10.00">simulation_runner.cc</text>
</a>
</g>
</g>
<!-- Node1&#45;&gt;Node3 -->
<g id="edge2" class="edge">
<title>Node1&#45;&gt;Node3</title>
<path fill="none" stroke="midnightblue" d="M348.73,-54.09C305.46,-43.89 241.74,-28.86 202.12,-19.52"/>
<polygon fill="midnightblue" stroke="midnightblue" points="348.18,-57.55 358.71,-56.44 349.78,-50.74 348.18,-57.55"/>
</g>
<!-- Node4 -->
<g id="node4" class="node">
<title>Node4</title>
<g id="a_node4"><a xlink:href="compression_8cc.html" target="_top" xlink:title=" ">
<polygon fill="white" stroke="black" points="244,-0.5 244,-19.5 336,-19.5 336,-0.5 244,-0.5"/>
<text text-anchor="middle" x="290" y="-7.5" font-family="Helvetica,sans-Serif" font-size="10.00">compression.cc</text>
</a>
</g>
</g>
<!-- Node1&#45;&gt;Node4 -->
<g id="edge3" class="edge">
<title>Node1&#45;&gt;Node4</title>
<path fill="none" stroke="midnightblue" d="M369.19,-51.73C349.75,-41.73 323.65,-28.31 306.83,-19.65"/>
<polygon fill="midnightblue" stroke="midnightblue" points="367.64,-54.86 378.13,-56.32 370.84,-48.64 367.64,-54.86"/>
</g>
<!-- Node5 -->
<g id="node5" class="node">
<title>Node5</title>
<g id="a_node5"><a xlink:href="filesystem_8cc.html" target="_top" xlink:title=" ">
<polygon fill="white" stroke="black" points="354,-0.5 354,-19.5 436,-19.5 436,-0.5 354,-0.5"/>
<text text-anchor="middle" x="395" y="-7.5" font-family="Helvetica,sans-Serif" font-size="10.00">filesystem.cc</text>
</a>
</g>
</g>
<!-- Node1&#45;&gt;Node5 -->
<g id="edge4" class="edge">
<title>Node1&#45;&gt;Node5</title>
<path fill="none" stroke="midnightblue" d="M395,-45.8C395,-36.91 395,-26.78 395,-19.75"/>
<polygon fill="midnightblue" stroke="midnightblue" points="391.5,-46.08 395,-56.08 398.5,-46.08 391.5,-46.08"/>
</g>
<!-- Node6 -->
<g id="node6" class="node">
<title>Node6</title>
<g id="a_node6"><a xlink:href="package_8cc.html" target="_top" xlink:title=" ">
<polygon fill="white" stroke="black" points="454.5,-0.5 454.5,-19.5 525.5,-19.5 525.5,-0.5 454.5,-0.5"/>
<text text-anchor="middle" x="490" y="-7.5" font-family="Helvetica,sans-Serif" font-size="10.00">package.cc</text>
</a>
</g>
</g>
<!-- Node1&#45;&gt;Node6 -->
<g id="edge5" class="edge">
<title>Node1&#45;&gt;Node6</title>
<path fill="none" stroke="midnightblue" d="M419.32,-51.18C436.8,-41.24 459.83,-28.15 474.77,-19.65"/>
<polygon fill="midnightblue" stroke="midnightblue" points="417.23,-48.34 410.26,-56.32 420.69,-54.43 417.23,-48.34"/>
</g>
<!-- Node7 -->
<g id="node7" class="node">
<title>Node7</title>
<g id="a_node7"><a xlink:href="inspection_8cc.html" target="_top" xlink:title=" ">
<polygon fill="white" stroke="black" points="544,-0.5 544,-19.5 624,-19.5 624,-0.5 544,-0.5"/>
<text text-anchor="middle" x="584" y="-7.5" font-family="Helvetica,sans-Serif" font-size="10.00">inspection.cc</text>
</a>
</g>
</g>
<!-- Node1&#45;&gt;Node7 -->
<g id="edge6" class="edge">
<title>Node1&#45;&gt;Node7</title>
<path fill="none" stroke="midnightblue" d="M435.01,-53.57C470.67,-43.38 522.04,-28.7 554.19,-19.52"/>
<polygon fill="midnightblue" stroke="midnightblue" points="433.6,-50.33 424.95,-56.44 435.52,-57.06 433.6,-50.33"/>
</g>
<!-- Node8 -->
<g id="node8" class="node">
<title>Node8</title>
<g id="a_node8"><a xlink:href="resources_8cc.html" target="_top" xlink:title=" ">
<polygon fill="white" stroke="black" points="642.5,-0.5 642.5,-19.5 719.5,-19.5 719.5,-0.5 642.5,-0.5"/>
<text text-anchor="middle" x="681" y="-7.5" font-family="Helvetica,sans-Serif" font-size="10.00">resources.cc</text>
</a>
</g>
</g>
<!-- Node1&#45;&gt;Node8 -->
<g id="edge7" class="edge">
<title>Node1&#45;&gt;Node8</title>
<path fill="none" stroke="midnightblue" d="M443.61,-55.82C499.63,-45.24 590.59,-28.07 642.13,-18.34"/>
<polygon fill="midnightblue" stroke="midnightblue" points="442.75,-52.42 433.57,-57.72 444.05,-59.3 442.75,-52.42"/>
</g>
</g>
</svg>
