<?xml version="1.0" encoding="UTF-8" standalone="no"?>
<!DOCTYPE svg PUBLIC "-//W3C//DTD SVG 1.1//EN"
 "http://www.w3.org/Graphics/SVG/1.1/DTD/svg11.dtd">
<!-- Generated by graphviz version 2.43.0 (0)
 -->
<!-- Title: mobil_planner.h Pages: 1 -->
<!--zoomable 229 -->
<svg id="main" version="1.1" xmlns="http://www.w3.org/2000/svg" xmlns:xlink="http://www.w3.org/1999/xlink" xml:space="preserve" onload="init(evt)">
<style type="text/css"><![CDATA[
.edge:hover path { stroke: red; }
.edge:hover polygon { stroke: red; fill: red; }
]]></style>
<script type="text/javascript"><![CDATA[
var edges = document.getElementsByTagName('g');
if (edges && edges.length) {
  for (var i=0;i<edges.length;i++) {
    if (edges[i].id.substr(0,4)=='edge') {
      edges[i].setAttribute('class','edge');
    }
  }
}
]]></script>
        <defs>
                <circle id="rim" cx="0" cy="0" r="7"/>
                <circle id="rim2" cx="0" cy="0" r="3.5"/>
                <g id="zoomPlus">
                        <use xlink:href="#rim" fill="#404040">
                                <set attributeName="fill" to="#808080" begin="zoomplus.mouseover" end="zoomplus.mouseout"/>
                        </use>
                        <path d="M-4,0h8M0,-4v8" fill="none" stroke="white" stroke-width="1.5" pointer-events="none"/>
                </g>
                <g id="zoomMin">
                        <use xlink:href="#rim" fill="#404040">
                                <set attributeName="fill" to="#808080" begin="zoomminus.mouseover" end="zoomminus.mouseout"/>
                        </use>
                        <path d="M-4,0h8" fill="none" stroke="white" stroke-width="1.5" pointer-events="none"/>
                </g>
                <g id="dirArrow">
                        <path fill="none" stroke="white" stroke-width="1.5" d="M0,-3.0v7 M-2.5,-0.5L0,-3.0L2.5,-0.5"/>
                </g>
               <g id="resetDef">
                       <use xlink:href="#rim2" fill="#404040">
                               <set attributeName="fill" to="#808080" begin="reset.mouseover" end="reset.mouseout"/>
                       </use>
               </g>
        </defs>

<script type="text/javascript">
var viewWidth = 2282;
var viewHeight = 229;
var sectionId = 'dynsection-0';
</script>
<script xlink:href="svgpan.js"/>
<svg id="graph" class="graph">
<g id="viewport">
<title>mobil_planner.h</title>
<polygon fill="white" stroke="transparent" points="-4,4 -4,-225 2278.25,-225 2278.25,4 -4,4"/>
<!-- Node1 -->
<g id="node1" class="node">
<title>Node1</title>
<g id="a_node1"><a xlink:title=" ">
<polygon fill="#bfbfbf" stroke="black" points="893.75,-201.5 893.75,-220.5 988.75,-220.5 988.75,-201.5 893.75,-201.5"/>
<text text-anchor="middle" x="941.25" y="-208.5" font-family="Helvetica,sans-Serif" font-size="10.00">mobil_planner.h</text>
</a>
</g>
</g>
<!-- Node2 -->
<g id="node2" class="node">
<title>Node2</title>
<g id="a_node2"><a xlink:title=" ">
<polygon fill="white" stroke="#bfbfbf" points="30.25,-73 30.25,-92 68.25,-92 68.25,-73 30.25,-73"/>
<text text-anchor="middle" x="49.25" y="-80" font-family="Helvetica,sans-Serif" font-size="10.00">map</text>
</a>
</g>
</g>
<!-- Node1&#45;&gt;Node2 -->
<g id="edge1" class="edge">
<title>Node1&#45;&gt;Node2</title>
<path fill="none" stroke="midnightblue" d="M893.36,-210.25C786.17,-210.01 519.18,-205.06 300.25,-165 198.46,-146.37 173.17,-136.85 77.25,-98 76.06,-97.51 74.84,-97 73.62,-96.45"/>
<polygon fill="midnightblue" stroke="midnightblue" points="74.94,-93.2 64.42,-92 71.9,-99.51 74.94,-93.2"/>
</g>
<!-- Node3 -->
<g id="node3" class="node">
<title>Node3</title>
<g id="a_node3"><a xlink:title=" ">
<polygon fill="white" stroke="#bfbfbf" points="127.25,-6 127.25,-25 185.25,-25 185.25,-6 127.25,-6"/>
<text text-anchor="middle" x="156.25" y="-13" font-family="Helvetica,sans-Serif" font-size="10.00">memory</text>
</a>
</g>
</g>
<!-- Node1&#45;&gt;Node3 -->
<g id="edge2" class="edge">
<title>Node1&#45;&gt;Node3</title>
<path fill="none" stroke="midnightblue" d="M893.62,-210.19C719.46,-210.54 123.59,-208.51 51.25,-165 10.94,-140.75 -16,-105.35 11.25,-67 35.04,-33.52 82.71,-22.05 116.91,-18.22"/>
<polygon fill="midnightblue" stroke="midnightblue" points="117.42,-21.69 127.04,-17.26 116.76,-14.72 117.42,-21.69"/>
</g>
<!-- Node4 -->
<g id="node4" class="node">
<title>Node4</title>
<g id="a_node4"><a xlink:title=" ">
<polygon fill="white" stroke="#bfbfbf" points="1032.75,-6 1032.75,-25 1077.75,-25 1077.75,-6 1032.75,-6"/>
<text text-anchor="middle" x="1055.25" y="-13" font-family="Helvetica,sans-Serif" font-size="10.00">utility</text>
</a>
</g>
</g>
<!-- Node1&#45;&gt;Node4 -->
<g id="edge3" class="edge">
<title>Node1&#45;&gt;Node4</title>
<path fill="none" stroke="midnightblue" d="M988.87,-207.5C1053.67,-201.06 1165.36,-178.28 1198.25,-98 1203.48,-85.25 1206.36,-78.14 1198.25,-67 1167.76,-25.05 1135.62,-49.73 1087.25,-31 1085.83,-30.45 1084.38,-29.87 1082.92,-29.27"/>
<polygon fill="midnightblue" stroke="midnightblue" points="1083.95,-25.9 1073.38,-25.14 1081.17,-32.32 1083.95,-25.9"/>
</g>
<!-- Node5 -->
<g id="node5" class="node">
<title>Node5</title>
<g id="a_node5"><a xlink:title=" ">
<polygon fill="white" stroke="#bfbfbf" points="1095.75,-6 1095.75,-25 1142.75,-25 1142.75,-6 1095.75,-6"/>
<text text-anchor="middle" x="1119.25" y="-13" font-family="Helvetica,sans-Serif" font-size="10.00">vector</text>
</a>
</g>
</g>
<!-- Node1&#45;&gt;Node5 -->
<g id="edge4" class="edge">
<title>Node1&#45;&gt;Node5</title>
<path fill="none" stroke="midnightblue" d="M988.94,-205.01C1047.09,-198.19 1141.21,-184.53 1170.25,-165 1209.88,-138.36 1238.85,-107.92 1214.25,-67 1210.38,-60.55 1173.71,-42.2 1147.09,-29.49"/>
<polygon fill="midnightblue" stroke="midnightblue" points="1148.35,-26.22 1137.82,-25.1 1145.36,-32.54 1148.35,-26.22"/>
</g>
<!-- Node6 -->
<g id="node6" class="node">
<title>Node6</title>
<g id="a_node6"><a xlink:title=" ">
<polygon fill="white" stroke="#bfbfbf" points="558.75,-73 558.75,-92 653.75,-92 653.75,-73 558.75,-73"/>
<text text-anchor="middle" x="606.25" y="-80" font-family="Helvetica,sans-Serif" font-size="10.00">Eigen/Geometry</text>
</a>
</g>
</g>
<!-- Node1&#45;&gt;Node6 -->
<g id="edge5" class="edge">
<title>Node1&#45;&gt;Node6</title>
<path fill="none" stroke="midnightblue" d="M917.63,-201.49C892.84,-192.52 852.74,-177.94 818.25,-165 753.96,-140.88 679.04,-111.86 637.7,-95.77"/>
<polygon fill="midnightblue" stroke="midnightblue" points="638.77,-92.43 628.18,-92.07 636.23,-98.96 638.77,-92.43"/>
</g>
<!-- Node7 -->
<g id="node7" class="node">
<title>Node7</title>
<g id="a_node7"><a xlink:href="../../maliput/html/drake__copyable_8h.html.html" xlink:title=" ">
<polygon fill="white" stroke="black" points="1495.75,-67.5 1495.75,-97.5 1614.75,-97.5 1614.75,-67.5 1495.75,-67.5"/>
<text text-anchor="start" x="1503.75" y="-85.5" font-family="Helvetica,sans-Serif" font-size="10.00">drake/common/drake</text>
<text text-anchor="middle" x="1555.25" y="-74.5" font-family="Helvetica,sans-Serif" font-size="10.00">_copyable.h</text>
</a>
</g>
</g>
<!-- Node1&#45;&gt;Node7 -->
<g id="edge6" class="edge">
<title>Node1&#45;&gt;Node7</title>
<path fill="none" stroke="midnightblue" d="M989.14,-210.77C1105.93,-211.89 1402.15,-210.09 1488.25,-165 1512.94,-152.07 1531.94,-125.74 1543.3,-106.49"/>
<polygon fill="midnightblue" stroke="midnightblue" points="1546.39,-108.13 1548.26,-97.7 1540.3,-104.69 1546.39,-108.13"/>
</g>
<!-- Node8 -->
<g id="node8" class="node">
<title>Node8</title>
<g id="a_node8"><a xlink:href="../../maliput/html/leaf__system_8h.html.html" xlink:title=" ">
<polygon fill="white" stroke="black" points="1573.25,-134.5 1573.25,-164.5 1717.25,-164.5 1717.25,-134.5 1573.25,-134.5"/>
<text text-anchor="start" x="1581.25" y="-152.5" font-family="Helvetica,sans-Serif" font-size="10.00">drake/systems/framework</text>
<text text-anchor="middle" x="1645.25" y="-141.5" font-family="Helvetica,sans-Serif" font-size="10.00">/leaf_system.h</text>
</a>
</g>
</g>
<!-- Node1&#45;&gt;Node8 -->
<g id="edge7" class="edge">
<title>Node1&#45;&gt;Node8</title>
<path fill="none" stroke="midnightblue" d="M989.09,-208.06C1093.1,-203.49 1347.52,-190.5 1559.25,-165 1560.52,-164.85 1561.8,-164.69 1563.09,-164.53"/>
<polygon fill="midnightblue" stroke="midnightblue" points="1563.62,-167.98 1573.06,-163.18 1562.69,-161.05 1563.62,-167.98"/>
</g>
<!-- Node9 -->
<g id="node9" class="node">
<title>Node9</title>
<g id="a_node9"><a xlink:title=" ">
<polygon fill="white" stroke="#bfbfbf" points="671.75,-67.5 671.75,-97.5 808.75,-97.5 808.75,-67.5 671.75,-67.5"/>
<text text-anchor="start" x="679.75" y="-85.5" font-family="Helvetica,sans-Serif" font-size="10.00">drake/systems/rendering</text>
<text text-anchor="middle" x="740.25" y="-74.5" font-family="Helvetica,sans-Serif" font-size="10.00">/pose_bundle.h</text>
</a>
</g>
</g>
<!-- Node1&#45;&gt;Node9 -->
<g id="edge8" class="edge">
<title>Node1&#45;&gt;Node9</title>
<path fill="none" stroke="midnightblue" d="M927.44,-201.31C895.49,-181.2 815.86,-131.08 771.44,-103.13"/>
<polygon fill="midnightblue" stroke="midnightblue" points="773.12,-100.05 762.79,-97.68 769.39,-105.97 773.12,-100.05"/>
</g>
<!-- Node10 -->
<g id="node10" class="node">
<title>Node10</title>
<g id="a_node10"><a xlink:title=" ">
<polygon fill="white" stroke="#bfbfbf" points="826.75,-67.5 826.75,-97.5 963.75,-97.5 963.75,-67.5 826.75,-67.5"/>
<text text-anchor="start" x="834.75" y="-85.5" font-family="Helvetica,sans-Serif" font-size="10.00">drake/systems/rendering</text>
<text text-anchor="middle" x="895.25" y="-74.5" font-family="Helvetica,sans-Serif" font-size="10.00">/pose_vector.h</text>
</a>
</g>
</g>
<!-- Node1&#45;&gt;Node10 -->
<g id="edge9" class="edge">
<title>Node1&#45;&gt;Node10</title>
<path fill="none" stroke="midnightblue" d="M938.09,-201.31C931.15,-182.21 914.37,-136.07 903.99,-107.52"/>
<polygon fill="midnightblue" stroke="midnightblue" points="907.19,-106.09 900.49,-97.89 900.61,-108.48 907.19,-106.09"/>
</g>
<!-- Node11 -->
<g id="node11" class="node">
<title>Node11</title>
<g id="a_node11"><a xlink:title=" ">
<polygon fill="white" stroke="#bfbfbf" points="221.75,-6 221.75,-25 326.75,-25 326.75,-6 221.75,-6"/>
<text text-anchor="middle" x="274.25" y="-13" font-family="Helvetica,sans-Serif" font-size="10.00">maliput/api/lane.h</text>
</a>
</g>
</g>
<!-- Node1&#45;&gt;Node11 -->
<g id="edge10" class="edge">
<title>Node1&#45;&gt;Node11</title>
<path fill="none" stroke="midnightblue" d="M893.63,-209.52C747.47,-207.67 306.81,-199.33 168.25,-165 98.56,-147.73 60.09,-158.39 21.25,-98 13.8,-86.41 12.52,-77.65 21.25,-67 24.39,-63.17 144.04,-40.51 217.65,-26.88"/>
<polygon fill="midnightblue" stroke="midnightblue" points="218.52,-30.28 227.72,-25.02 217.25,-23.4 218.52,-30.28"/>
</g>
<!-- Node12 -->
<g id="node12" class="node">
<title>Node12</title>
<g id="a_node12"><a xlink:title=" ">
<polygon fill="white" stroke="#bfbfbf" points="981.75,-73 981.75,-92 1138.75,-92 1138.75,-73 981.75,-73"/>
<text text-anchor="middle" x="1060.25" y="-80" font-family="Helvetica,sans-Serif" font-size="10.00">maliput/api/road_geometry.h</text>
</a>
</g>
</g>
<!-- Node1&#45;&gt;Node12 -->
<g id="edge11" class="edge">
<title>Node1&#45;&gt;Node12</title>
<path fill="none" stroke="midnightblue" d="M945.35,-201.27C952.65,-186.31 969.09,-155.31 989.25,-134 1003.03,-119.44 1021.57,-106.43 1036.24,-97.26"/>
<polygon fill="midnightblue" stroke="midnightblue" points="1038.07,-100.24 1044.81,-92.06 1034.44,-94.26 1038.07,-100.24"/>
</g>
<!-- Node13 -->
<g id="node13" class="node">
<title>Node13</title>
<g id="a_node13"><a xlink:href="idm__planner__parameters_8h.html" target="_top" xlink:title=" ">
<polygon fill="white" stroke="black" points="1308.75,-73 1308.75,-92 1477.75,-92 1477.75,-73 1308.75,-73"/>
<text text-anchor="middle" x="1393.25" y="-80" font-family="Helvetica,sans-Serif" font-size="10.00">gen/idm_planner_parameters.h</text>
</a>
</g>
</g>
<!-- Node1&#45;&gt;Node13 -->
<g id="edge12" class="edge">
<title>Node1&#45;&gt;Node13</title>
<path fill="none" stroke="midnightblue" d="M988.95,-207.25C1072.42,-201.89 1241.28,-188.46 1295.25,-165 1313.33,-157.14 1353.7,-120.76 1376.58,-99.36"/>
<polygon fill="midnightblue" stroke="midnightblue" points="1379.27,-101.63 1384.15,-92.23 1374.47,-96.54 1379.27,-101.63"/>
</g>
<!-- Node24 -->
<g id="node24" class="node">
<title>Node24</title>
<g id="a_node24"><a xlink:href="mobil__planner__parameters_8h.html" target="_top" xlink:title=" ">
<polygon fill="white" stroke="black" points="1633.25,-73 1633.25,-92 1811.25,-92 1811.25,-73 1633.25,-73"/>
<text text-anchor="middle" x="1722.25" y="-80" font-family="Helvetica,sans-Serif" font-size="10.00">gen/mobil_planner_parameters.h</text>
</a>
</g>
</g>
<!-- Node1&#45;&gt;Node24 -->
<g id="edge25" class="edge">
<title>Node1&#45;&gt;Node24</title>
<path fill="none" stroke="midnightblue" d="M988.91,-209.46C1109.1,-207.6 1421.89,-199.49 1519.25,-165 1542.15,-156.89 1542.45,-144.7 1564.25,-134 1599.94,-116.48 1643.09,-103.17 1675.27,-94.62"/>
<polygon fill="midnightblue" stroke="midnightblue" points="1676.51,-97.92 1685.31,-92.02 1674.75,-91.14 1676.51,-97.92"/>
</g>
<!-- Node25 -->
<g id="node25" class="node">
<title>Node25</title>
<g id="a_node25"><a xlink:href="calc__ongoing__road__position_8h.html" target="_top" xlink:title=" ">
<polygon fill="white" stroke="black" points="997.75,-134.5 997.75,-164.5 1122.75,-164.5 1122.75,-134.5 997.75,-134.5"/>
<text text-anchor="start" x="1005.75" y="-152.5" font-family="Helvetica,sans-Serif" font-size="10.00">systems/calc_ongoing</text>
<text text-anchor="middle" x="1060.25" y="-141.5" font-family="Helvetica,sans-Serif" font-size="10.00">_road_position.h</text>
</a>
</g>
</g>
<!-- Node1&#45;&gt;Node25 -->
<g id="edge38" class="edge">
<title>Node1&#45;&gt;Node25</title>
<path fill="none" stroke="midnightblue" d="M958.3,-201.48C975.17,-193.04 1001.54,-179.86 1023.24,-169.01"/>
<polygon fill="midnightblue" stroke="midnightblue" points="1024.83,-172.13 1032.21,-164.52 1021.7,-165.86 1024.83,-172.13"/>
</g>
<!-- Node28 -->
<g id="node28" class="node">
<title>Node28</title>
<g id="a_node28"><a xlink:href="idm__planner_8h.html" target="_top" xlink:title=" ">
<polygon fill="white" stroke="black" points="1347.75,-140 1347.75,-159 1478.75,-159 1478.75,-140 1347.75,-140"/>
<text text-anchor="middle" x="1413.25" y="-147" font-family="Helvetica,sans-Serif" font-size="10.00">systems/idm_planner.h</text>
</a>
</g>
</g>
<!-- Node1&#45;&gt;Node28 -->
<g id="edge43" class="edge">
<title>Node1&#45;&gt;Node28</title>
<path fill="none" stroke="midnightblue" d="M989.06,-205.52C1063.02,-198.37 1209.58,-183.29 1333.25,-165 1341.58,-163.77 1350.38,-162.32 1358.96,-160.83"/>
<polygon fill="midnightblue" stroke="midnightblue" points="1359.67,-164.26 1368.91,-159.07 1358.45,-157.37 1359.67,-164.26"/>
</g>
<!-- Node29 -->
<g id="node29" class="node">
<title>Node29</title>
<g id="a_node29"><a xlink:href="lane__direction_8h.html" target="_top" xlink:title=" ">
<polygon fill="white" stroke="black" points="86.75,-73 86.75,-92 225.75,-92 225.75,-73 86.75,-73"/>
<text text-anchor="middle" x="156.25" y="-80" font-family="Helvetica,sans-Serif" font-size="10.00">systems/lane_direction.h</text>
</a>
</g>
</g>
<!-- Node1&#45;&gt;Node29 -->
<g id="edge46" class="edge">
<title>Node1&#45;&gt;Node29</title>
<path fill="none" stroke="midnightblue" d="M893.56,-209.21C801.58,-206.96 593.6,-198.29 422.25,-165 335.76,-148.19 237.46,-113.95 188.1,-95.66"/>
<polygon fill="midnightblue" stroke="midnightblue" points="189.21,-92.34 178.62,-92.12 186.76,-98.9 189.21,-92.34"/>
</g>
<!-- Node30 -->
<g id="node30" class="node">
<title>Node30</title>
<g id="a_node30"><a xlink:href="road__odometry_8h.html" target="_top" xlink:title=" ">
<polygon fill="white" stroke="black" points="320.75,-73 320.75,-92 463.75,-92 463.75,-73 320.75,-73"/>
<text text-anchor="middle" x="392.25" y="-80" font-family="Helvetica,sans-Serif" font-size="10.00">systems/road_odometry.h</text>
</a>
</g>
</g>
<!-- Node1&#45;&gt;Node30 -->
<g id="edge49" class="edge">
<title>Node1&#45;&gt;Node30</title>
<path fill="none" stroke="midnightblue" d="M893.45,-210.04C787.32,-209.42 535.55,-203.76 461.25,-165 433.82,-150.69 412.83,-120.39 401.54,-101.04"/>
<polygon fill="midnightblue" stroke="midnightblue" points="404.46,-99.1 396.54,-92.06 398.35,-102.5 404.46,-99.1"/>
</g>
<!-- Node31 -->
<g id="node31" class="node">
<title>Node31</title>
<g id="a_node31"><a xlink:href="traffic__pose__selector_8h.html" target="_top" xlink:title=" ">
<polygon fill="white" stroke="black" points="470.75,-134.5 470.75,-164.5 589.75,-164.5 589.75,-134.5 470.75,-134.5"/>
<text text-anchor="start" x="478.75" y="-152.5" font-family="Helvetica,sans-Serif" font-size="10.00">systems/traffic_pose</text>
<text text-anchor="middle" x="530.25" y="-141.5" font-family="Helvetica,sans-Serif" font-size="10.00">_selector.h</text>
</a>
</g>
</g>
<!-- Node1&#45;&gt;Node31 -->
<g id="edge53" class="edge">
<title>Node1&#45;&gt;Node31</title>
<path fill="none" stroke="midnightblue" d="M893.71,-203.12C821.42,-192.65 683.47,-172.68 599.88,-160.58"/>
<polygon fill="midnightblue" stroke="midnightblue" points="600.36,-157.11 589.97,-159.14 599.36,-164.04 600.36,-157.11"/>
</g>
<!-- Node13&#45;&gt;Node4 -->
<g id="edge17" class="edge">
<title>Node13&#45;&gt;Node4</title>
<path fill="none" stroke="midnightblue" d="M1308.45,-73.54C1246.26,-66.26 1160.29,-53.15 1087.25,-31 1085.33,-30.42 1083.37,-29.74 1081.41,-29.01"/>
<polygon fill="midnightblue" stroke="midnightblue" points="1082.45,-25.65 1071.87,-25.02 1079.75,-32.11 1082.45,-25.65"/>
</g>
<!-- Node13&#45;&gt;Node5 -->
<g id="edge18" class="edge">
<title>Node13&#45;&gt;Node5</title>
<path fill="none" stroke="midnightblue" d="M1335.91,-72.93C1286.53,-64.74 1213.72,-50.71 1152.25,-31 1150.33,-30.38 1148.37,-29.69 1146.41,-28.96"/>
<polygon fill="midnightblue" stroke="midnightblue" points="1147.38,-25.57 1136.8,-25.02 1144.73,-32.05 1147.38,-25.57"/>
</g>
<!-- Node14 -->
<g id="node14" class="node">
<title>Node14</title>
<g id="a_node14"><a xlink:title=" ">
<polygon fill="white" stroke="#bfbfbf" points="1481.75,-6 1481.75,-25 1528.75,-25 1528.75,-6 1481.75,-6"/>
<text text-anchor="middle" x="1505.25" y="-13" font-family="Helvetica,sans-Serif" font-size="10.00">cmath</text>
</a>
</g>
</g>
<!-- Node13&#45;&gt;Node14 -->
<g id="edge13" class="edge">
<title>Node13&#45;&gt;Node14</title>
<path fill="none" stroke="midnightblue" d="M1408.36,-72.73C1427.17,-61.82 1459.51,-43.05 1481.61,-30.22"/>
<polygon fill="midnightblue" stroke="midnightblue" points="1483.5,-33.17 1490.39,-25.13 1479.98,-27.12 1483.5,-33.17"/>
</g>
<!-- Node15 -->
<g id="node15" class="node">
<title>Node15</title>
<g id="a_node15"><a xlink:title=" ">
<polygon fill="white" stroke="#bfbfbf" points="1547.25,-6 1547.25,-25 1591.25,-25 1591.25,-6 1547.25,-6"/>
<text text-anchor="middle" x="1569.25" y="-13" font-family="Helvetica,sans-Serif" font-size="10.00">limits</text>
</a>
</g>
</g>
<!-- Node13&#45;&gt;Node15 -->
<g id="edge14" class="edge">
<title>Node13&#45;&gt;Node15</title>
<path fill="none" stroke="midnightblue" d="M1420.55,-72.92C1449.93,-63.47 1497.88,-47.42 1538.25,-31 1539.63,-30.44 1541.03,-29.85 1542.44,-29.25"/>
<polygon fill="midnightblue" stroke="midnightblue" points="1544,-32.38 1551.69,-25.1 1541.13,-26 1544,-32.38"/>
</g>
<!-- Node16 -->
<g id="node16" class="node">
<title>Node16</title>
<g id="a_node16"><a xlink:title=" ">
<polygon fill="white" stroke="#bfbfbf" points="1609.75,-6 1609.75,-25 1674.75,-25 1674.75,-6 1609.75,-6"/>
<text text-anchor="middle" x="1642.25" y="-13" font-family="Helvetica,sans-Serif" font-size="10.00">stdexcept</text>
</a>
</g>
</g>
<!-- Node13&#45;&gt;Node16 -->
<g id="edge15" class="edge">
<title>Node13&#45;&gt;Node16</title>
<path fill="none" stroke="midnightblue" d="M1432.84,-72.99C1474.72,-63.73 1542.58,-47.95 1600.25,-31 1603.19,-30.14 1606.23,-29.19 1609.27,-28.21"/>
<polygon fill="midnightblue" stroke="midnightblue" points="1610.45,-31.5 1618.83,-25.02 1608.24,-24.87 1610.45,-31.5"/>
</g>
<!-- Node17 -->
<g id="node17" class="node">
<title>Node17</title>
<g id="a_node17"><a xlink:title=" ">
<polygon fill="white" stroke="#bfbfbf" points="1693.25,-6 1693.25,-25 1737.25,-25 1737.25,-6 1693.25,-6"/>
<text text-anchor="middle" x="1715.25" y="-13" font-family="Helvetica,sans-Serif" font-size="10.00">string</text>
</a>
</g>
</g>
<!-- Node13&#45;&gt;Node17 -->
<g id="edge16" class="edge">
<title>Node13&#45;&gt;Node17</title>
<path fill="none" stroke="midnightblue" d="M1446.88,-72.98C1524.68,-60.51 1662.03,-37.99 1684.25,-31 1686.12,-30.41 1688.03,-29.73 1689.92,-29"/>
<polygon fill="midnightblue" stroke="midnightblue" points="1691.37,-32.19 1699.17,-25.01 1688.6,-25.76 1691.37,-32.19"/>
</g>
<!-- Node18 -->
<g id="node18" class="node">
<title>Node18</title>
<g id="a_node18"><a xlink:title=" ">
<polygon fill="white" stroke="#bfbfbf" points="1755.75,-6 1755.75,-25 1824.75,-25 1824.75,-6 1755.75,-6"/>
<text text-anchor="middle" x="1790.25" y="-13" font-family="Helvetica,sans-Serif" font-size="10.00">Eigen/Core</text>
</a>
</g>
</g>
<!-- Node13&#45;&gt;Node18 -->
<g id="edge19" class="edge">
<title>Node13&#45;&gt;Node18</title>
<path fill="none" stroke="midnightblue" d="M1447.91,-72.93C1460.81,-70.94 1474.51,-68.87 1487.25,-67 1602.24,-50.14 1633.05,-57.29 1746.25,-31 1749.73,-30.19 1753.32,-29.23 1756.88,-28.19"/>
<polygon fill="midnightblue" stroke="midnightblue" points="1758.22,-31.44 1766.73,-25.12 1756.14,-24.76 1758.22,-31.44"/>
</g>
<!-- Node19 -->
<g id="node19" class="node">
<title>Node19</title>
<g id="a_node19"><a xlink:href="../../maliput/html/drake__bool_8h.html.html" xlink:title=" ">
<polygon fill="white" stroke="black" points="1842.75,-0.5 1842.75,-30.5 1961.75,-30.5 1961.75,-0.5 1842.75,-0.5"/>
<text text-anchor="start" x="1850.75" y="-18.5" font-family="Helvetica,sans-Serif" font-size="10.00">drake/common/drake</text>
<text text-anchor="middle" x="1902.25" y="-7.5" font-family="Helvetica,sans-Serif" font-size="10.00">_bool.h</text>
</a>
</g>
</g>
<!-- Node13&#45;&gt;Node19 -->
<g id="edge20" class="edge">
<title>Node13&#45;&gt;Node19</title>
<path fill="none" stroke="midnightblue" d="M1445.4,-72.99C1459,-70.89 1473.66,-68.75 1487.25,-67 1637.73,-47.6 1679.33,-54.87 1832.37,-31.2"/>
<polygon fill="midnightblue" stroke="midnightblue" points="1833.28,-34.6 1842.62,-29.59 1832.2,-27.68 1833.28,-34.6"/>
</g>
<!-- Node20 -->
<g id="node20" class="node">
<title>Node20</title>
<g id="a_node20"><a xlink:href="../../maliput/html/dummy__value_8h.html.html" xlink:title=" ">
<polygon fill="white" stroke="black" points="1980.25,-0.5 1980.25,-30.5 2110.25,-30.5 2110.25,-0.5 1980.25,-0.5"/>
<text text-anchor="start" x="1988.25" y="-18.5" font-family="Helvetica,sans-Serif" font-size="10.00">drake/common/dummy</text>
<text text-anchor="middle" x="2045.25" y="-7.5" font-family="Helvetica,sans-Serif" font-size="10.00">_value.h</text>
</a>
</g>
</g>
<!-- Node13&#45;&gt;Node20 -->
<g id="edge21" class="edge">
<title>Node13&#45;&gt;Node20</title>
<path fill="none" stroke="midnightblue" d="M1443.89,-72.94C1457.91,-70.78 1473.14,-68.61 1487.25,-67 1698.32,-42.91 1755.75,-59.28 1969.96,-31.07"/>
<polygon fill="midnightblue" stroke="midnightblue" points="1970.5,-34.53 1979.95,-29.73 1969.58,-27.59 1970.5,-34.53"/>
</g>
<!-- Node21 -->
<g id="node21" class="node">
<title>Node21</title>
<g id="a_node21"><a xlink:title=" ">
<polygon fill="white" stroke="#bfbfbf" points="2128.25,-6 2128.25,-25 2274.25,-25 2274.25,-6 2128.25,-6"/>
<text text-anchor="middle" x="2201.25" y="-13" font-family="Helvetica,sans-Serif" font-size="10.00">drake/common/symbolic.h</text>
</a>
</g>
</g>
<!-- Node13&#45;&gt;Node21 -->
<g id="edge22" class="edge">
<title>Node13&#45;&gt;Node21</title>
<path fill="none" stroke="midnightblue" d="M1442.9,-72.93C1457.18,-70.71 1472.8,-68.52 1487.25,-67 1767.05,-37.52 1839.8,-63.55 2119.25,-31 2128.74,-29.9 2138.79,-28.4 2148.48,-26.78"/>
<polygon fill="midnightblue" stroke="midnightblue" points="2149.15,-30.21 2158.41,-25.06 2147.96,-23.32 2149.15,-30.21"/>
</g>
<!-- Node22 -->
<g id="node22" class="node">
<title>Node22</title>
<g id="a_node22"><a xlink:href="../../maliput/html/basic__vector_8h.html.html" xlink:title=" ">
<polygon fill="white" stroke="black" points="1161.25,-0.5 1161.25,-30.5 1305.25,-30.5 1305.25,-0.5 1161.25,-0.5"/>
<text text-anchor="start" x="1169.25" y="-18.5" font-family="Helvetica,sans-Serif" font-size="10.00">drake/systems/framework</text>
<text text-anchor="middle" x="1233.25" y="-7.5" font-family="Helvetica,sans-Serif" font-size="10.00">/basic_vector.h</text>
</a>
</g>
</g>
<!-- Node13&#45;&gt;Node22 -->
<g id="edge23" class="edge">
<title>Node13&#45;&gt;Node22</title>
<path fill="none" stroke="midnightblue" d="M1372.01,-72.87C1348,-63.12 1308.26,-46.97 1277.44,-34.45"/>
<polygon fill="midnightblue" stroke="midnightblue" points="1278.37,-31.05 1267.78,-30.53 1275.73,-37.53 1278.37,-31.05"/>
</g>
<!-- Node23 -->
<g id="node23" class="node">
<title>Node23</title>
<g id="a_node23"><a xlink:href="../../maliput/html/maliput__never__destroyed_8h.html.html" xlink:title=" ">
<polygon fill="white" stroke="black" points="1323.25,-0.5 1323.25,-30.5 1463.25,-30.5 1463.25,-0.5 1323.25,-0.5"/>
<text text-anchor="start" x="1331.25" y="-18.5" font-family="Helvetica,sans-Serif" font-size="10.00">maliput/common/maliput</text>
<text text-anchor="middle" x="1393.25" y="-7.5" font-family="Helvetica,sans-Serif" font-size="10.00">_never_destroyed.h</text>
</a>
</g>
</g>
<!-- Node13&#45;&gt;Node23 -->
<g id="edge24" class="edge">
<title>Node13&#45;&gt;Node23</title>
<path fill="none" stroke="midnightblue" d="M1393.25,-72.73C1393.25,-64.54 1393.25,-51.92 1393.25,-40.71"/>
<polygon fill="midnightblue" stroke="midnightblue" points="1396.75,-40.59 1393.25,-30.59 1389.75,-40.59 1396.75,-40.59"/>
</g>
<!-- Node24&#45;&gt;Node4 -->
<g id="edge30" class="edge">
<title>Node24&#45;&gt;Node4</title>
<path fill="none" stroke="midnightblue" d="M1669.97,-72.97C1655.22,-70.78 1639.13,-68.6 1624.25,-67 1386.42,-41.47 1319.24,-89.3 1087.25,-31 1085.04,-30.44 1082.8,-29.74 1080.57,-28.95"/>
<polygon fill="midnightblue" stroke="midnightblue" points="1081.7,-25.63 1071.13,-25.04 1079.03,-32.1 1081.7,-25.63"/>
</g>
<!-- Node24&#45;&gt;Node5 -->
<g id="edge31" class="edge">
<title>Node24&#45;&gt;Node5</title>
<path fill="none" stroke="midnightblue" d="M1669.45,-72.99C1654.84,-70.82 1638.95,-68.65 1624.25,-67 1415.17,-43.59 1356.36,-82.04 1152.25,-31 1149.9,-30.41 1147.5,-29.67 1145.12,-28.83"/>
<polygon fill="midnightblue" stroke="midnightblue" points="1146.24,-25.51 1135.65,-25.01 1143.62,-32 1146.24,-25.51"/>
</g>
<!-- Node24&#45;&gt;Node14 -->
<g id="edge26" class="edge">
<title>Node24&#45;&gt;Node14</title>
<path fill="none" stroke="midnightblue" d="M1685.11,-73C1647.59,-64.02 1588.2,-48.72 1538.25,-31 1536.59,-30.41 1534.9,-29.77 1533.19,-29.11"/>
<polygon fill="midnightblue" stroke="midnightblue" points="1534.14,-25.71 1523.56,-25.11 1531.46,-32.18 1534.14,-25.71"/>
</g>
<!-- Node24&#45;&gt;Node15 -->
<g id="edge27" class="edge">
<title>Node24&#45;&gt;Node15</title>
<path fill="none" stroke="midnightblue" d="M1701.19,-72.93C1676.98,-63.04 1636.11,-46.17 1601.25,-31 1599.89,-30.41 1598.5,-29.8 1597.09,-29.17"/>
<polygon fill="midnightblue" stroke="midnightblue" points="1598.38,-25.92 1587.82,-25.03 1595.52,-32.31 1598.38,-25.92"/>
</g>
<!-- Node24&#45;&gt;Node16 -->
<g id="edge28" class="edge">
<title>Node24&#45;&gt;Node16</title>
<path fill="none" stroke="midnightblue" d="M1711.46,-72.73C1698.51,-62.21 1676.57,-44.38 1660.86,-31.62"/>
<polygon fill="midnightblue" stroke="midnightblue" points="1662.84,-28.72 1652.87,-25.13 1658.43,-34.15 1662.84,-28.72"/>
</g>
<!-- Node24&#45;&gt;Node17 -->
<g id="edge29" class="edge">
<title>Node24&#45;&gt;Node17</title>
<path fill="none" stroke="midnightblue" d="M1721.31,-72.73C1720.28,-63.18 1718.61,-47.62 1717.28,-35.28"/>
<polygon fill="midnightblue" stroke="midnightblue" points="1720.73,-34.7 1716.18,-25.13 1713.77,-35.44 1720.73,-34.7"/>
</g>
<!-- Node24&#45;&gt;Node18 -->
<g id="edge32" class="edge">
<title>Node24&#45;&gt;Node18</title>
<path fill="none" stroke="midnightblue" d="M1731.42,-72.73C1742.23,-62.4 1760.4,-45.04 1773.69,-32.33"/>
<polygon fill="midnightblue" stroke="midnightblue" points="1776.42,-34.57 1781.23,-25.13 1771.58,-29.51 1776.42,-34.57"/>
</g>
<!-- Node24&#45;&gt;Node19 -->
<g id="edge33" class="edge">
<title>Node24&#45;&gt;Node19</title>
<path fill="none" stroke="midnightblue" d="M1746.16,-72.87C1773.52,-62.99 1819.04,-46.55 1853.89,-33.97"/>
<polygon fill="midnightblue" stroke="midnightblue" points="1855.19,-37.22 1863.41,-30.53 1852.81,-30.63 1855.19,-37.22"/>
</g>
<!-- Node24&#45;&gt;Node20 -->
<g id="edge34" class="edge">
<title>Node24&#45;&gt;Node20</title>
<path fill="none" stroke="midnightblue" d="M1764.81,-72.94C1817.01,-62.43 1906.4,-44.44 1970.23,-31.6"/>
<polygon fill="midnightblue" stroke="midnightblue" points="1971.13,-34.99 1980.25,-29.58 1969.75,-28.12 1971.13,-34.99"/>
</g>
<!-- Node24&#45;&gt;Node21 -->
<g id="edge35" class="edge">
<title>Node24&#45;&gt;Node21</title>
<path fill="none" stroke="midnightblue" d="M1797.77,-73C1877.75,-63.74 2007.63,-47.96 2119.25,-31 2127.68,-29.72 2136.57,-28.26 2145.27,-26.77"/>
<polygon fill="midnightblue" stroke="midnightblue" points="2146.09,-30.18 2155.35,-25.02 2144.9,-23.29 2146.09,-30.18"/>
</g>
<!-- Node24&#45;&gt;Node22 -->
<g id="edge36" class="edge">
<title>Node24&#45;&gt;Node22</title>
<path fill="none" stroke="midnightblue" d="M1666.84,-72.99C1652.95,-70.94 1638.07,-68.82 1624.25,-67 1489.97,-49.27 1453.18,-51.13 1315.72,-31.16"/>
<polygon fill="midnightblue" stroke="midnightblue" points="1316.04,-27.67 1305.64,-29.69 1315.03,-34.6 1316.04,-27.67"/>
</g>
<!-- Node24&#45;&gt;Node23 -->
<g id="edge37" class="edge">
<title>Node24&#45;&gt;Node23</title>
<path fill="none" stroke="midnightblue" d="M1678.9,-72.94C1626.81,-62.64 1538.36,-45.17 1473.65,-32.38"/>
<polygon fill="midnightblue" stroke="midnightblue" points="1473.97,-28.88 1463.48,-30.37 1472.61,-35.75 1473.97,-28.88"/>
</g>
<!-- Node25&#45;&gt;Node10 -->
<g id="edge40" class="edge">
<title>Node25&#45;&gt;Node10</title>
<path fill="none" stroke="midnightblue" d="M1024.45,-134.4C999.8,-124.69 966.86,-111.71 940.41,-101.29"/>
<polygon fill="midnightblue" stroke="midnightblue" points="941.57,-97.99 930.99,-97.58 939.01,-104.5 941.57,-97.99"/>
</g>
<!-- Node25&#45;&gt;Node12 -->
<g id="edge42" class="edge">
<title>Node25&#45;&gt;Node12</title>
<path fill="none" stroke="midnightblue" d="M1060.25,-134.4C1060.25,-125.06 1060.25,-112.71 1060.25,-102.52"/>
<polygon fill="midnightblue" stroke="midnightblue" points="1063.75,-102.19 1060.25,-92.19 1056.75,-102.19 1063.75,-102.19"/>
</g>
<!-- Node26 -->
<g id="node26" class="node">
<title>Node26</title>
<g id="a_node26"><a xlink:title=" ">
<polygon fill="white" stroke="#bfbfbf" points="727.75,-0.5 727.75,-30.5 864.75,-30.5 864.75,-0.5 727.75,-0.5"/>
<text text-anchor="start" x="735.75" y="-18.5" font-family="Helvetica,sans-Serif" font-size="10.00">drake/systems/rendering</text>
<text text-anchor="middle" x="796.25" y="-7.5" font-family="Helvetica,sans-Serif" font-size="10.00">/frame_velocity.h</text>
</a>
</g>
</g>
<!-- Node25&#45;&gt;Node26 -->
<g id="edge39" class="edge">
<title>Node25&#45;&gt;Node26</title>
<path fill="none" stroke="midnightblue" d="M1113.57,-134.37C1157,-120.31 1207.23,-96.6 1181.25,-67 1161.39,-44.36 981.59,-28.72 874.87,-21.34"/>
<polygon fill="midnightblue" stroke="midnightblue" points="874.99,-17.84 864.78,-20.65 874.52,-24.82 874.99,-17.84"/>
</g>
<!-- Node27 -->
<g id="node27" class="node">
<title>Node27</title>
<g id="a_node27"><a xlink:href="../../maliput/html/lane__data_8h.html.html" xlink:title=" ">
<polygon fill="white" stroke="black" points="426.25,-6 426.25,-25 558.25,-25 558.25,-6 426.25,-6"/>
<text text-anchor="middle" x="492.25" y="-13" font-family="Helvetica,sans-Serif" font-size="10.00">maliput/api/lane_data.h</text>
</a>
</g>
</g>
<!-- Node25&#45;&gt;Node27 -->
<g id="edge41" class="edge">
<title>Node25&#45;&gt;Node27</title>
<path fill="none" stroke="midnightblue" d="M1094.56,-134.48C1128.29,-118.78 1171.6,-92.21 1148.25,-67 1143.37,-61.73 740.3,-33.5 568.47,-21.7"/>
<polygon fill="midnightblue" stroke="midnightblue" points="568.7,-18.21 558.49,-21.01 568.22,-25.19 568.7,-18.21"/>
</g>
<!-- Node28&#45;&gt;Node7 -->
<g id="edge44" class="edge">
<title>Node28&#45;&gt;Node7</title>
<path fill="none" stroke="midnightblue" d="M1432.11,-139.87C1453.23,-130.2 1488.08,-114.25 1515.32,-101.78"/>
<polygon fill="midnightblue" stroke="midnightblue" points="1516.97,-104.87 1524.61,-97.53 1514.06,-98.51 1516.97,-104.87"/>
</g>
<!-- Node28&#45;&gt;Node13 -->
<g id="edge45" class="edge">
<title>Node28&#45;&gt;Node13</title>
<path fill="none" stroke="midnightblue" d="M1410.56,-139.73C1407.59,-130.09 1402.73,-114.3 1398.92,-101.91"/>
<polygon fill="midnightblue" stroke="midnightblue" points="1402.19,-100.66 1395.91,-92.13 1395.5,-102.71 1402.19,-100.66"/>
</g>
<!-- Node29&#45;&gt;Node3 -->
<g id="edge47" class="edge">
<title>Node29&#45;&gt;Node3</title>
<path fill="none" stroke="midnightblue" d="M156.25,-72.73C156.25,-63.18 156.25,-47.62 156.25,-35.28"/>
<polygon fill="midnightblue" stroke="midnightblue" points="159.75,-35.13 156.25,-25.13 152.75,-35.13 159.75,-35.13"/>
</g>
<!-- Node29&#45;&gt;Node11 -->
<g id="edge48" class="edge">
<title>Node29&#45;&gt;Node11</title>
<path fill="none" stroke="midnightblue" d="M172.17,-72.73C192.07,-61.77 226.36,-42.88 249.66,-30.05"/>
<polygon fill="midnightblue" stroke="midnightblue" points="251.52,-33.02 258.59,-25.13 248.14,-26.89 251.52,-33.02"/>
</g>
<!-- Node30&#45;&gt;Node11 -->
<g id="edge51" class="edge">
<title>Node30&#45;&gt;Node11</title>
<path fill="none" stroke="midnightblue" d="M376.34,-72.73C356.44,-61.77 322.15,-42.88 298.85,-30.05"/>
<polygon fill="midnightblue" stroke="midnightblue" points="300.36,-26.89 289.92,-25.13 296.99,-33.02 300.36,-26.89"/>
</g>
<!-- Node30&#45;&gt;Node26 -->
<g id="edge50" class="edge">
<title>Node30&#45;&gt;Node26</title>
<path fill="none" stroke="midnightblue" d="M445.49,-72.94C515.04,-61.74 637.4,-42.06 717.64,-29.15"/>
<polygon fill="midnightblue" stroke="midnightblue" points="718.38,-32.57 727.7,-27.53 717.27,-25.66 718.38,-32.57"/>
</g>
<!-- Node30&#45;&gt;Node27 -->
<g id="edge52" class="edge">
<title>Node30&#45;&gt;Node27</title>
<path fill="none" stroke="midnightblue" d="M405.74,-72.73C422.31,-61.96 450.64,-43.55 470.35,-30.74"/>
<polygon fill="midnightblue" stroke="midnightblue" points="472.5,-33.51 478.98,-25.13 468.69,-27.64 472.5,-33.51"/>
</g>
<!-- Node31&#45;&gt;Node2 -->
<g id="edge54" class="edge">
<title>Node31&#45;&gt;Node2</title>
<path fill="none" stroke="midnightblue" d="M470.59,-148.72C382.61,-147.53 213.75,-139.39 77.25,-98 75.78,-97.55 74.29,-97.03 72.81,-96.45"/>
<polygon fill="midnightblue" stroke="midnightblue" points="73.9,-93.1 63.36,-92.08 70.97,-99.45 73.9,-93.1"/>
</g>
<!-- Node31&#45;&gt;Node3 -->
<g id="edge55" class="edge">
<title>Node31&#45;&gt;Node3</title>
<path fill="none" stroke="midnightblue" d="M470.6,-142.3C419.89,-135.6 345.87,-122.45 285.25,-98 279.53,-95.69 213.79,-53.56 178.44,-30.8"/>
<polygon fill="midnightblue" stroke="midnightblue" points="180.05,-27.68 169.75,-25.21 176.26,-33.57 180.05,-27.68"/>
</g>
<!-- Node31&#45;&gt;Node4 -->
<g id="edge56" class="edge">
<title>Node31&#45;&gt;Node4</title>
<path fill="none" stroke="midnightblue" d="M529.02,-134.22C528.29,-115.7 530.15,-83.78 549.25,-67 558.2,-59.14 911.67,-28.64 1022.42,-19.26"/>
<polygon fill="midnightblue" stroke="midnightblue" points="1022.99,-22.73 1032.66,-18.4 1022.4,-15.75 1022.99,-22.73"/>
</g>
<!-- Node31&#45;&gt;Node6 -->
<g id="edge57" class="edge">
<title>Node31&#45;&gt;Node6</title>
<path fill="none" stroke="midnightblue" d="M546.74,-134.4C558.95,-123.96 575.56,-109.75 588.13,-99"/>
<polygon fill="midnightblue" stroke="midnightblue" points="590.76,-101.35 596.09,-92.19 586.21,-96.03 590.76,-101.35"/>
</g>
<!-- Node31&#45;&gt;Node7 -->
<g id="edge58" class="edge">
<title>Node31&#45;&gt;Node7</title>
<path fill="none" stroke="midnightblue" d="M589.85,-146.59C767.67,-140.68 1293.49,-121.79 1485.65,-98.04"/>
<polygon fill="midnightblue" stroke="midnightblue" points="1486.17,-101.51 1495.64,-96.77 1485.28,-94.56 1486.17,-101.51"/>
</g>
<!-- Node31&#45;&gt;Node9 -->
<g id="edge59" class="edge">
<title>Node31&#45;&gt;Node9</title>
<path fill="none" stroke="midnightblue" d="M575.56,-134.48C607.61,-124.56 650.76,-111.2 684.85,-100.65"/>
<polygon fill="midnightblue" stroke="midnightblue" points="686.15,-103.91 694.66,-97.61 684.08,-97.22 686.15,-103.91"/>
</g>
<!-- Node31&#45;&gt;Node10 -->
<g id="edge60" class="edge">
<title>Node31&#45;&gt;Node10</title>
<path fill="none" stroke="midnightblue" d="M589.86,-138.27C645.91,-128.6 732.44,-113.55 816.45,-98.32"/>
<polygon fill="midnightblue" stroke="midnightblue" points="817.2,-101.74 826.41,-96.51 815.95,-94.85 817.2,-101.74"/>
</g>
<!-- Node31&#45;&gt;Node11 -->
<g id="edge61" class="edge">
<title>Node31&#45;&gt;Node11</title>
<path fill="none" stroke="midnightblue" d="M470.63,-140.78C414.43,-132.46 335.34,-117.7 311.25,-98 291.84,-82.12 282.2,-53.86 277.72,-35.15"/>
<polygon fill="midnightblue" stroke="midnightblue" points="281.1,-34.22 275.61,-25.17 274.26,-35.68 281.1,-34.22"/>
</g>
<!-- Node31&#45;&gt;Node12 -->
<g id="edge63" class="edge">
<title>Node31&#45;&gt;Node12</title>
<path fill="none" stroke="midnightblue" d="M589.85,-142.69C675.03,-134.17 836.42,-117.19 973.25,-98 982.39,-96.72 992.04,-95.24 1001.45,-93.72"/>
<polygon fill="midnightblue" stroke="midnightblue" points="1002.24,-97.14 1011.55,-92.07 1001.11,-90.23 1002.24,-97.14"/>
</g>
<!-- Node31&#45;&gt;Node27 -->
<g id="edge62" class="edge">
<title>Node31&#45;&gt;Node27</title>
<path fill="none" stroke="midnightblue" d="M526.19,-134.37C519.28,-110.4 505.28,-61.75 497.6,-35.06"/>
<polygon fill="midnightblue" stroke="midnightblue" points="500.86,-33.74 494.73,-25.1 494.13,-35.68 500.86,-33.74"/>
</g>
<!-- Node31&#45;&gt;Node29 -->
<g id="edge64" class="edge">
<title>Node31&#45;&gt;Node29</title>
<path fill="none" stroke="midnightblue" d="M470.58,-138.13C400.5,-125.95 285,-105.88 215.23,-93.75"/>
<polygon fill="midnightblue" stroke="midnightblue" points="215.73,-90.28 205.28,-92.02 214.53,-97.18 215.73,-90.28"/>
</g>
<!-- Node31&#45;&gt;Node30 -->
<g id="edge65" class="edge">
<title>Node31&#45;&gt;Node30</title>
<path fill="none" stroke="midnightblue" d="M500.31,-134.4C476.31,-123.09 442.91,-107.36 419.62,-96.39"/>
<polygon fill="midnightblue" stroke="midnightblue" points="420.85,-93.1 410.31,-92.01 417.87,-99.43 420.85,-93.1"/>
</g>
</g>
</svg>
        <g id="navigator" transform="translate(0 0)" fill="#404254">
                <rect fill="#f2f5e9" fill-opacity="0.5" stroke="#606060" stroke-width=".5" x="0" y="0" width="60" height="60"/>
                <use id="zoomplus" xlink:href="#zoomPlus" x="17" y="9" onmousedown="handleZoom(evt,'in')"/>
                <use id="zoomminus" xlink:href="#zoomMin" x="42" y="9" onmousedown="handleZoom(evt,'out')"/>
                <use id="reset" xlink:href="#resetDef" x="30" y="36" onmousedown="handleReset()"/>
                <g id="arrowUp" xlink:href="#dirArrow" transform="translate(30 24)" onmousedown="handlePan(0,-1)">
                  <use xlink:href="#rim" fill="#404040">
                        <set attributeName="fill" to="#808080" begin="arrowUp.mouseover" end="arrowUp.mouseout"/>
                  </use>
                  <path fill="none" stroke="white" stroke-width="1.5" d="M0,-3.0v7 M-2.5,-0.5L0,-3.0L2.5,-0.5"/>
                </g>
                <g id="arrowRight" xlink:href="#dirArrow" transform="rotate(90) translate(36 -43)" onmousedown="handlePan(1,0)">
                  <use xlink:href="#rim" fill="#404040">
                        <set attributeName="fill" to="#808080" begin="arrowRight.mouseover" end="arrowRight.mouseout"/>
                  </use>
                  <path fill="none" stroke="white" stroke-width="1.5" d="M0,-3.0v7 M-2.5,-0.5L0,-3.0L2.5,-0.5"/>
                </g>
                <g id="arrowDown" xlink:href="#dirArrow" transform="rotate(180) translate(-30 -48)" onmousedown="handlePan(0,1)">
                  <use xlink:href="#rim" fill="#404040">
                        <set attributeName="fill" to="#808080" begin="arrowDown.mouseover" end="arrowDown.mouseout"/>
                  </use>
                  <path fill="none" stroke="white" stroke-width="1.5" d="M0,-3.0v7 M-2.5,-0.5L0,-3.0L2.5,-0.5"/>
                </g>
                <g id="arrowLeft" xlink:href="#dirArrow" transform="rotate(270) translate(-36 17)" onmousedown="handlePan(-1,0)">
                  <use xlink:href="#rim" fill="#404040">
                        <set attributeName="fill" to="#808080" begin="arrowLeft.mouseover" end="arrowLeft.mouseout"/>
                  </use>
                  <path fill="none" stroke="white" stroke-width="1.5" d="M0,-3.0v7 M-2.5,-0.5L0,-3.0L2.5,-0.5"/>
                </g>
        </g>
        <svg viewBox="0 0 15 15" width="100%" height="30px" preserveAspectRatio="xMaxYMin meet">
         <g id="arrow_out" transform="scale(0.3 0.3)">
          <a xlink:href="mobil__planner_8h__incl_org.svg" target="_base">
           <rect id="button" ry="5" rx="5" y="6" x="6" height="38" width="38"
                fill="#f2f5e9" fill-opacity="0.5" stroke="#606060" stroke-width="1.0"/>
           <path id="arrow"
             d="M 11.500037,31.436501 C 11.940474,20.09759 22.043105,11.32322 32.158766,21.979434 L 37.068811,17.246167 C 37.068811,17.246167 37.088388,32 37.088388,32 L 22.160133,31.978069 C 22.160133,31.978069 26.997745,27.140456 26.997745,27.140456 C 18.528582,18.264221 13.291696,25.230495 11.500037,31.436501 z"
             style="fill:#404040;"/>
          </a>
         </g>
        </svg>
</svg>
