<?xml version="1.0" encoding="UTF-8" standalone="no"?>
<!DOCTYPE svg PUBLIC "-//W3C//DTD SVG 1.1//EN"
 "http://www.w3.org/Graphics/SVG/1.1/DTD/svg11.dtd">
<!-- Generated by graphviz version 2.43.0 (0)
 -->
<!-- Title: pure_pursuit.h Pages: 1 -->
<svg width="1605pt" height="162pt"
 viewBox="0.00 0.00 1605.00 162.00" xmlns="http://www.w3.org/2000/svg" xmlns:xlink="http://www.w3.org/1999/xlink">
<g id="graph0" class="graph" transform="scale(1 1) rotate(0) translate(4 158)">
<title>pure_pursuit.h</title>
<polygon fill="white" stroke="transparent" points="-4,4 -4,-158 1601,-158 1601,4 -4,4"/>
<!-- Node1 -->
<g id="node1" class="node">
<title>Node1</title>
<g id="a_node1"><a xlink:title=" ">
<polygon fill="#bfbfbf" stroke="black" points="394.5,-134.5 394.5,-153.5 480.5,-153.5 480.5,-134.5 394.5,-134.5"/>
<text text-anchor="middle" x="437.5" y="-141.5" font-family="Helvetica,sans-Serif" font-size="10.00">pure_pursuit.h</text>
</a>
</g>
</g>
<!-- Node2 -->
<g id="node2" class="node">
<title>Node2</title>
<g id="a_node2"><a xlink:href="../../maliput/html/drake__copyable_8h.html.html" xlink:title=" ">
<polygon fill="white" stroke="black" points="0,-67.5 0,-97.5 119,-97.5 119,-67.5 0,-67.5"/>
<text text-anchor="start" x="8" y="-85.5" font-family="Helvetica,sans-Serif" font-size="10.00">drake/common/drake</text>
<text text-anchor="middle" x="59.5" y="-74.5" font-family="Helvetica,sans-Serif" font-size="10.00">_copyable.h</text>
</a>
</g>
</g>
<!-- Node1&#45;&gt;Node2 -->
<g id="edge1" class="edge">
<title>Node1&#45;&gt;Node2</title>
<path fill="none" stroke="midnightblue" d="M394.48,-137.67C336.42,-130.27 229.56,-115.95 129.17,-98.23"/>
<polygon fill="midnightblue" stroke="midnightblue" points="129.62,-94.76 119.16,-96.45 128.39,-101.65 129.62,-94.76"/>
</g>
<!-- Node3 -->
<g id="node3" class="node">
<title>Node3</title>
<g id="a_node3"><a xlink:title=" ">
<polygon fill="white" stroke="#bfbfbf" points="137,-67.5 137,-97.5 274,-97.5 274,-67.5 137,-67.5"/>
<text text-anchor="start" x="145" y="-85.5" font-family="Helvetica,sans-Serif" font-size="10.00">drake/systems/rendering</text>
<text text-anchor="middle" x="205.5" y="-74.5" font-family="Helvetica,sans-Serif" font-size="10.00">/pose_vector.h</text>
</a>
</g>
</g>
<!-- Node1&#45;&gt;Node3 -->
<g id="edge2" class="edge">
<title>Node1&#45;&gt;Node3</title>
<path fill="none" stroke="midnightblue" d="M404.26,-134.48C369.39,-125.53 313.7,-111.25 270.12,-100.07"/>
<polygon fill="midnightblue" stroke="midnightblue" points="270.73,-96.62 260.18,-97.52 268.99,-103.4 270.73,-96.62"/>
</g>
<!-- Node4 -->
<g id="node4" class="node">
<title>Node4</title>
<g id="a_node4"><a xlink:href="../../maliput/html/lane__data_8h.html.html" xlink:title=" ">
<polygon fill="white" stroke="black" points="292.5,-73 292.5,-92 424.5,-92 424.5,-73 292.5,-73"/>
<text text-anchor="middle" x="358.5" y="-80" font-family="Helvetica,sans-Serif" font-size="10.00">maliput/api/lane_data.h</text>
</a>
</g>
</g>
<!-- Node1&#45;&gt;Node4 -->
<g id="edge3" class="edge">
<title>Node1&#45;&gt;Node4</title>
<path fill="none" stroke="midnightblue" d="M426.18,-134.48C413.63,-125.02 393.15,-109.6 378,-98.19"/>
<polygon fill="midnightblue" stroke="midnightblue" points="379.89,-95.23 369.8,-92.01 375.68,-100.82 379.89,-95.23"/>
</g>
<!-- Node5 -->
<g id="node5" class="node">
<title>Node5</title>
<g id="a_node5"><a xlink:href="pure__pursuit__params_8h.html" target="_top" xlink:title=" ">
<polygon fill="white" stroke="black" points="443,-73 443,-92 592,-92 592,-73 443,-73"/>
<text text-anchor="middle" x="517.5" y="-80" font-family="Helvetica,sans-Serif" font-size="10.00">gen/pure_pursuit_params.h</text>
</a>
</g>
</g>
<!-- Node1&#45;&gt;Node5 -->
<g id="edge4" class="edge">
<title>Node1&#45;&gt;Node5</title>
<path fill="none" stroke="midnightblue" d="M448.96,-134.48C461.67,-125.02 482.41,-109.6 497.75,-98.19"/>
<polygon fill="midnightblue" stroke="midnightblue" points="500.12,-100.79 506.06,-92.01 495.95,-95.17 500.12,-100.79"/>
</g>
<!-- Node18 -->
<g id="node18" class="node">
<title>Node18</title>
<g id="a_node18"><a xlink:href="simple__car__params_8h.html" target="_top" xlink:title=" ">
<polygon fill="white" stroke="black" points="610.5,-73 610.5,-92 752.5,-92 752.5,-73 610.5,-73"/>
<text text-anchor="middle" x="681.5" y="-80" font-family="Helvetica,sans-Serif" font-size="10.00">gen/simple_car_params.h</text>
</a>
</g>
</g>
<!-- Node1&#45;&gt;Node18 -->
<g id="edge17" class="edge">
<title>Node1&#45;&gt;Node18</title>
<path fill="none" stroke="midnightblue" d="M472.46,-134.48C515.67,-123.94 589.29,-105.99 636.63,-94.44"/>
<polygon fill="midnightblue" stroke="midnightblue" points="637.72,-97.78 646.61,-92.01 636.06,-90.98 637.72,-97.78"/>
</g>
<!-- Node19 -->
<g id="node19" class="node">
<title>Node19</title>
<g id="a_node19"><a xlink:href="lane__direction_8h.html" target="_top" xlink:title=" ">
<polygon fill="white" stroke="black" points="1375,-73 1375,-92 1514,-92 1514,-73 1375,-73"/>
<text text-anchor="middle" x="1444.5" y="-80" font-family="Helvetica,sans-Serif" font-size="10.00">systems/lane_direction.h</text>
</a>
</g>
</g>
<!-- Node1&#45;&gt;Node19 -->
<g id="edge30" class="edge">
<title>Node1&#45;&gt;Node19</title>
<path fill="none" stroke="midnightblue" d="M480.77,-140.44C635.44,-131.3 1162.46,-100.16 1364.64,-88.22"/>
<polygon fill="midnightblue" stroke="midnightblue" points="1365.11,-91.7 1374.89,-87.61 1364.7,-84.71 1365.11,-91.7"/>
</g>
<!-- Node6 -->
<g id="node6" class="node">
<title>Node6</title>
<g id="a_node6"><a xlink:title=" ">
<polygon fill="white" stroke="#bfbfbf" points="157,-6 157,-25 204,-25 204,-6 157,-6"/>
<text text-anchor="middle" x="180.5" y="-13" font-family="Helvetica,sans-Serif" font-size="10.00">cmath</text>
</a>
</g>
</g>
<!-- Node5&#45;&gt;Node6 -->
<g id="edge5" class="edge">
<title>Node5&#45;&gt;Node6</title>
<path fill="none" stroke="midnightblue" d="M468.65,-72.99C457.13,-71.01 444.88,-68.91 433.5,-67 335.79,-50.57 308.49,-59.15 213.5,-31 211.36,-30.36 209.17,-29.62 206.99,-28.82"/>
<polygon fill="midnightblue" stroke="midnightblue" points="208.24,-25.55 197.66,-25.02 205.6,-32.03 208.24,-25.55"/>
</g>
<!-- Node7 -->
<g id="node7" class="node">
<title>Node7</title>
<g id="a_node7"><a xlink:title=" ">
<polygon fill="white" stroke="#bfbfbf" points="222.5,-6 222.5,-25 266.5,-25 266.5,-6 222.5,-6"/>
<text text-anchor="middle" x="244.5" y="-13" font-family="Helvetica,sans-Serif" font-size="10.00">limits</text>
</a>
</g>
</g>
<!-- Node5&#45;&gt;Node7 -->
<g id="edge6" class="edge">
<title>Node5&#45;&gt;Node7</title>
<path fill="none" stroke="midnightblue" d="M470.08,-72.96C410.28,-61.95 310.98,-42.82 275.5,-31 273.83,-30.44 272.14,-29.82 270.44,-29.16"/>
<polygon fill="midnightblue" stroke="midnightblue" points="271.51,-25.81 260.94,-25.05 268.73,-32.23 271.51,-25.81"/>
</g>
<!-- Node8 -->
<g id="node8" class="node">
<title>Node8</title>
<g id="a_node8"><a xlink:title=" ">
<polygon fill="white" stroke="#bfbfbf" points="285,-6 285,-25 350,-25 350,-6 285,-6"/>
<text text-anchor="middle" x="317.5" y="-13" font-family="Helvetica,sans-Serif" font-size="10.00">stdexcept</text>
</a>
</g>
</g>
<!-- Node5&#45;&gt;Node8 -->
<g id="edge7" class="edge">
<title>Node5&#45;&gt;Node8</title>
<path fill="none" stroke="midnightblue" d="M490.04,-72.93C458.47,-63.04 405.14,-46.17 359.5,-31 356.91,-30.14 354.24,-29.24 351.55,-28.33"/>
<polygon fill="midnightblue" stroke="midnightblue" points="352.49,-24.95 341.9,-25.03 350.23,-31.58 352.49,-24.95"/>
</g>
<!-- Node9 -->
<g id="node9" class="node">
<title>Node9</title>
<g id="a_node9"><a xlink:title=" ">
<polygon fill="white" stroke="#bfbfbf" points="368.5,-6 368.5,-25 412.5,-25 412.5,-6 368.5,-6"/>
<text text-anchor="middle" x="390.5" y="-13" font-family="Helvetica,sans-Serif" font-size="10.00">string</text>
</a>
</g>
</g>
<!-- Node5&#45;&gt;Node9 -->
<g id="edge8" class="edge">
<title>Node5&#45;&gt;Node9</title>
<path fill="none" stroke="midnightblue" d="M500.64,-72.87C479.1,-61.84 441.6,-42.66 416.42,-29.77"/>
<polygon fill="midnightblue" stroke="midnightblue" points="417.93,-26.61 407.43,-25.17 414.74,-32.84 417.93,-26.61"/>
</g>
<!-- Node10 -->
<g id="node10" class="node">
<title>Node10</title>
<g id="a_node10"><a xlink:title=" ">
<polygon fill="white" stroke="#bfbfbf" points="431,-6 431,-25 476,-25 476,-6 431,-6"/>
<text text-anchor="middle" x="453.5" y="-13" font-family="Helvetica,sans-Serif" font-size="10.00">utility</text>
</a>
</g>
</g>
<!-- Node5&#45;&gt;Node10 -->
<g id="edge9" class="edge">
<title>Node5&#45;&gt;Node10</title>
<path fill="none" stroke="midnightblue" d="M508.87,-72.73C498.7,-62.4 481.6,-45.04 469.09,-32.33"/>
<polygon fill="midnightblue" stroke="midnightblue" points="471.5,-29.8 461.99,-25.13 466.52,-34.71 471.5,-29.8"/>
</g>
<!-- Node11 -->
<g id="node11" class="node">
<title>Node11</title>
<g id="a_node11"><a xlink:title=" ">
<polygon fill="white" stroke="#bfbfbf" points="494,-6 494,-25 541,-25 541,-6 494,-6"/>
<text text-anchor="middle" x="517.5" y="-13" font-family="Helvetica,sans-Serif" font-size="10.00">vector</text>
</a>
</g>
</g>
<!-- Node5&#45;&gt;Node11 -->
<g id="edge10" class="edge">
<title>Node5&#45;&gt;Node11</title>
<path fill="none" stroke="midnightblue" d="M517.5,-72.73C517.5,-63.18 517.5,-47.62 517.5,-35.28"/>
<polygon fill="midnightblue" stroke="midnightblue" points="521,-35.13 517.5,-25.13 514,-35.13 521,-35.13"/>
</g>
<!-- Node12 -->
<g id="node12" class="node">
<title>Node12</title>
<g id="a_node12"><a xlink:title=" ">
<polygon fill="white" stroke="#bfbfbf" points="559,-6 559,-25 628,-25 628,-6 559,-6"/>
<text text-anchor="middle" x="593.5" y="-13" font-family="Helvetica,sans-Serif" font-size="10.00">Eigen/Core</text>
</a>
</g>
</g>
<!-- Node5&#45;&gt;Node12 -->
<g id="edge11" class="edge">
<title>Node5&#45;&gt;Node12</title>
<path fill="none" stroke="midnightblue" d="M527.75,-72.73C539.94,-62.31 560.52,-44.71 575.41,-31.97"/>
<polygon fill="midnightblue" stroke="midnightblue" points="578.09,-34.29 583.41,-25.13 573.54,-28.97 578.09,-34.29"/>
</g>
<!-- Node13 -->
<g id="node13" class="node">
<title>Node13</title>
<g id="a_node13"><a xlink:href="../../maliput/html/drake__bool_8h.html.html" xlink:title=" ">
<polygon fill="white" stroke="black" points="646,-0.5 646,-30.5 765,-30.5 765,-0.5 646,-0.5"/>
<text text-anchor="start" x="654" y="-18.5" font-family="Helvetica,sans-Serif" font-size="10.00">drake/common/drake</text>
<text text-anchor="middle" x="705.5" y="-7.5" font-family="Helvetica,sans-Serif" font-size="10.00">_bool.h</text>
</a>
</g>
</g>
<!-- Node5&#45;&gt;Node13 -->
<g id="edge12" class="edge">
<title>Node5&#45;&gt;Node13</title>
<path fill="none" stroke="midnightblue" d="M542.46,-72.87C571.16,-62.95 619,-46.41 655.45,-33.81"/>
<polygon fill="midnightblue" stroke="midnightblue" points="656.62,-37.1 664.93,-30.53 654.33,-30.49 656.62,-37.1"/>
</g>
<!-- Node14 -->
<g id="node14" class="node">
<title>Node14</title>
<g id="a_node14"><a xlink:href="../../maliput/html/dummy__value_8h.html.html" xlink:title=" ">
<polygon fill="white" stroke="black" points="783.5,-0.5 783.5,-30.5 913.5,-30.5 913.5,-0.5 783.5,-0.5"/>
<text text-anchor="start" x="791.5" y="-18.5" font-family="Helvetica,sans-Serif" font-size="10.00">drake/common/dummy</text>
<text text-anchor="middle" x="848.5" y="-7.5" font-family="Helvetica,sans-Serif" font-size="10.00">_value.h</text>
</a>
</g>
</g>
<!-- Node5&#45;&gt;Node14 -->
<g id="edge13" class="edge">
<title>Node5&#45;&gt;Node14</title>
<path fill="none" stroke="midnightblue" d="M561.11,-72.94C615.13,-62.33 708.02,-44.09 773.55,-31.22"/>
<polygon fill="midnightblue" stroke="midnightblue" points="774.28,-34.64 783.41,-29.28 772.93,-27.77 774.28,-34.64"/>
</g>
<!-- Node15 -->
<g id="node15" class="node">
<title>Node15</title>
<g id="a_node15"><a xlink:title=" ">
<polygon fill="white" stroke="#bfbfbf" points="931.5,-6 931.5,-25 1077.5,-25 1077.5,-6 931.5,-6"/>
<text text-anchor="middle" x="1004.5" y="-13" font-family="Helvetica,sans-Serif" font-size="10.00">drake/common/symbolic.h</text>
</a>
</g>
</g>
<!-- Node5&#45;&gt;Node15 -->
<g id="edge14" class="edge">
<title>Node5&#45;&gt;Node15</title>
<path fill="none" stroke="midnightblue" d="M564.08,-72.95C576.23,-70.86 589.34,-68.73 601.5,-67 743.63,-46.78 780.41,-51.51 922.5,-31 931.13,-29.75 940.24,-28.29 949.13,-26.78"/>
<polygon fill="midnightblue" stroke="midnightblue" points="949.78,-30.22 959.04,-25.07 948.59,-23.32 949.78,-30.22"/>
</g>
<!-- Node16 -->
<g id="node16" class="node">
<title>Node16</title>
<g id="a_node16"><a xlink:href="../../maliput/html/basic__vector_8h.html.html" xlink:title=" ">
<polygon fill="white" stroke="black" points="1095.5,-0.5 1095.5,-30.5 1239.5,-30.5 1239.5,-0.5 1095.5,-0.5"/>
<text text-anchor="start" x="1103.5" y="-18.5" font-family="Helvetica,sans-Serif" font-size="10.00">drake/systems/framework</text>
<text text-anchor="middle" x="1167.5" y="-7.5" font-family="Helvetica,sans-Serif" font-size="10.00">/basic_vector.h</text>
</a>
</g>
</g>
<!-- Node5&#45;&gt;Node16 -->
<g id="edge15" class="edge">
<title>Node5&#45;&gt;Node16</title>
<path fill="none" stroke="midnightblue" d="M562.28,-72.94C574.93,-70.75 588.72,-68.57 601.5,-67 812.78,-40.99 870.32,-57.56 1085.12,-31.09"/>
<polygon fill="midnightblue" stroke="midnightblue" points="1085.64,-34.55 1095.13,-29.84 1084.78,-27.6 1085.64,-34.55"/>
</g>
<!-- Node17 -->
<g id="node17" class="node">
<title>Node17</title>
<g id="a_node17"><a xlink:href="../../maliput/html/maliput__never__destroyed_8h.html.html" xlink:title=" ">
<polygon fill="white" stroke="black" points="1257.5,-0.5 1257.5,-30.5 1397.5,-30.5 1397.5,-0.5 1257.5,-0.5"/>
<text text-anchor="start" x="1265.5" y="-18.5" font-family="Helvetica,sans-Serif" font-size="10.00">maliput/common/maliput</text>
<text text-anchor="middle" x="1327.5" y="-7.5" font-family="Helvetica,sans-Serif" font-size="10.00">_never_destroyed.h</text>
</a>
</g>
</g>
<!-- Node5&#45;&gt;Node17 -->
<g id="edge16" class="edge">
<title>Node5&#45;&gt;Node17</title>
<path fill="none" stroke="midnightblue" d="M561.39,-72.94C574.27,-70.69 588.41,-68.49 601.5,-67 884.3,-34.83 960.74,-64.35 1247.08,-31.06"/>
<polygon fill="midnightblue" stroke="midnightblue" points="1247.84,-34.49 1257.36,-29.85 1247.02,-27.54 1247.84,-34.49"/>
</g>
<!-- Node18&#45;&gt;Node6 -->
<g id="edge18" class="edge">
<title>Node18&#45;&gt;Node6</title>
<path fill="none" stroke="midnightblue" d="M637.89,-73C625.81,-70.83 612.67,-68.65 600.5,-67 429.33,-43.76 380.73,-74.3 213.5,-31 211.2,-30.4 208.86,-29.67 206.53,-28.84"/>
<polygon fill="midnightblue" stroke="midnightblue" points="207.84,-25.59 197.25,-25.1 205.22,-32.09 207.84,-25.59"/>
</g>
<!-- Node18&#45;&gt;Node7 -->
<g id="edge19" class="edge">
<title>Node18&#45;&gt;Node7</title>
<path fill="none" stroke="midnightblue" d="M637.02,-72.99C625.18,-70.87 612.38,-68.72 600.5,-67 456.67,-46.18 415.41,-70.31 275.5,-31 273.57,-30.46 271.61,-29.81 269.66,-29.08"/>
<polygon fill="midnightblue" stroke="midnightblue" points="270.78,-25.76 260.21,-25.06 268.04,-32.2 270.78,-25.76"/>
</g>
<!-- Node18&#45;&gt;Node8 -->
<g id="edge20" class="edge">
<title>Node18&#45;&gt;Node8</title>
<path fill="none" stroke="midnightblue" d="M635.28,-72.99C623.92,-70.96 611.78,-68.85 600.5,-67 493.63,-49.46 464.69,-56.78 359.5,-31 356.28,-30.21 352.95,-29.28 349.65,-28.27"/>
<polygon fill="midnightblue" stroke="midnightblue" points="350.53,-24.88 339.94,-25.1 348.36,-31.53 350.53,-24.88"/>
</g>
<!-- Node18&#45;&gt;Node9 -->
<g id="edge21" class="edge">
<title>Node18&#45;&gt;Node9</title>
<path fill="none" stroke="midnightblue" d="M634.16,-72.96C564.75,-60.33 441.42,-37.48 421.5,-31 419.83,-30.46 418.13,-29.84 416.44,-29.19"/>
<polygon fill="midnightblue" stroke="midnightblue" points="417.5,-25.84 406.93,-25.1 414.73,-32.27 417.5,-25.84"/>
</g>
<!-- Node18&#45;&gt;Node10 -->
<g id="edge22" class="edge">
<title>Node18&#45;&gt;Node10</title>
<path fill="none" stroke="midnightblue" d="M638.93,-72.99C598.56,-64.37 536.51,-49.65 484.5,-31 482.89,-30.42 481.24,-29.79 479.59,-29.12"/>
<polygon fill="midnightblue" stroke="midnightblue" points="480.88,-25.86 470.31,-25.06 478.07,-32.28 480.88,-25.86"/>
</g>
<!-- Node18&#45;&gt;Node11 -->
<g id="edge23" class="edge">
<title>Node18&#45;&gt;Node11</title>
<path fill="none" stroke="midnightblue" d="M657.96,-72.98C631.43,-63.27 587.09,-46.69 549.5,-31 548.13,-30.43 546.73,-29.83 545.32,-29.22"/>
<polygon fill="midnightblue" stroke="midnightblue" points="546.59,-25.96 536.03,-25.12 543.76,-32.37 546.59,-25.96"/>
</g>
<!-- Node18&#45;&gt;Node12 -->
<g id="edge24" class="edge">
<title>Node18&#45;&gt;Node12</title>
<path fill="none" stroke="midnightblue" d="M669.63,-72.73C655.25,-62.11 630.8,-44.05 613.49,-31.26"/>
<polygon fill="midnightblue" stroke="midnightblue" points="615.3,-28.25 605.18,-25.13 611.14,-33.88 615.3,-28.25"/>
</g>
<!-- Node18&#45;&gt;Node13 -->
<g id="edge25" class="edge">
<title>Node18&#45;&gt;Node13</title>
<path fill="none" stroke="midnightblue" d="M684.74,-72.73C687.82,-64.37 692.61,-51.4 696.81,-40.02"/>
<polygon fill="midnightblue" stroke="midnightblue" points="700.12,-41.18 700.3,-30.59 693.55,-38.76 700.12,-41.18"/>
</g>
<!-- Node18&#45;&gt;Node14 -->
<g id="edge26" class="edge">
<title>Node18&#45;&gt;Node14</title>
<path fill="none" stroke="midnightblue" d="M703.68,-72.87C728.84,-63.07 770.58,-46.83 802.79,-34.29"/>
<polygon fill="midnightblue" stroke="midnightblue" points="804.41,-37.42 812.46,-30.53 801.87,-30.89 804.41,-37.42"/>
</g>
<!-- Node18&#45;&gt;Node15 -->
<g id="edge27" class="edge">
<title>Node18&#45;&gt;Node15</title>
<path fill="none" stroke="midnightblue" d="M724.06,-72.94C782.84,-61.11 888.8,-39.78 952.29,-27.01"/>
<polygon fill="midnightblue" stroke="midnightblue" points="952.99,-30.44 962.1,-25.03 951.61,-23.57 952.99,-30.44"/>
</g>
<!-- Node18&#45;&gt;Node16 -->
<g id="edge28" class="edge">
<title>Node18&#45;&gt;Node16</title>
<path fill="none" stroke="midnightblue" d="M752.62,-73.79C831.49,-64.98 962.71,-49.54 1085.18,-31.16"/>
<polygon fill="midnightblue" stroke="midnightblue" points="1085.74,-34.61 1095.11,-29.66 1084.7,-27.69 1085.74,-34.61"/>
</g>
<!-- Node18&#45;&gt;Node17 -->
<g id="edge29" class="edge">
<title>Node18&#45;&gt;Node17</title>
<path fill="none" stroke="midnightblue" d="M752.9,-77.27C858.68,-70.54 1063.44,-55.69 1247.22,-31.09"/>
<polygon fill="midnightblue" stroke="midnightblue" points="1247.9,-34.53 1257.34,-29.73 1246.96,-27.6 1247.9,-34.53"/>
</g>
<!-- Node20 -->
<g id="node20" class="node">
<title>Node20</title>
<g id="a_node20"><a xlink:title=" ">
<polygon fill="white" stroke="#bfbfbf" points="1415.5,-6 1415.5,-25 1473.5,-25 1473.5,-6 1415.5,-6"/>
<text text-anchor="middle" x="1444.5" y="-13" font-family="Helvetica,sans-Serif" font-size="10.00">memory</text>
</a>
</g>
</g>
<!-- Node19&#45;&gt;Node20 -->
<g id="edge31" class="edge">
<title>Node19&#45;&gt;Node20</title>
<path fill="none" stroke="midnightblue" d="M1444.5,-72.73C1444.5,-63.18 1444.5,-47.62 1444.5,-35.28"/>
<polygon fill="midnightblue" stroke="midnightblue" points="1448,-35.13 1444.5,-25.13 1441,-35.13 1448,-35.13"/>
</g>
<!-- Node21 -->
<g id="node21" class="node">
<title>Node21</title>
<g id="a_node21"><a xlink:title=" ">
<polygon fill="white" stroke="#bfbfbf" points="1492,-6 1492,-25 1597,-25 1597,-6 1492,-6"/>
<text text-anchor="middle" x="1544.5" y="-13" font-family="Helvetica,sans-Serif" font-size="10.00">maliput/api/lane.h</text>
</a>
</g>
</g>
<!-- Node19&#45;&gt;Node21 -->
<g id="edge32" class="edge">
<title>Node19&#45;&gt;Node21</title>
<path fill="none" stroke="midnightblue" d="M1457.99,-72.73C1474.55,-61.96 1502.88,-43.55 1522.59,-30.74"/>
<polygon fill="midnightblue" stroke="midnightblue" points="1524.75,-33.51 1531.23,-25.13 1520.94,-27.64 1524.75,-33.51"/>
</g>
</g>
</svg>
