<?xml version="1.0" encoding="UTF-8" standalone="no"?>
<!DOCTYPE svg PUBLIC "-//W3C//DTD SVG 1.1//EN"
 "http://www.w3.org/Graphics/SVG/1.1/DTD/svg11.dtd">
<!-- Generated by graphviz version 2.43.0 (0)
 -->
<!-- Title: right_of_way_system.h Pages: 1 -->
<svg width="754pt" height="162pt"
 viewBox="0.00 0.00 753.50 162.00" xmlns="http://www.w3.org/2000/svg" xmlns:xlink="http://www.w3.org/1999/xlink">
<g id="graph0" class="graph" transform="scale(1 1) rotate(0) translate(4 158)">
<title>right_of_way_system.h</title>
<polygon fill="white" stroke="transparent" points="-4,4 -4,-158 749.5,-158 749.5,4 -4,4"/>
<!-- Node1 -->
<g id="node1" class="node">
<title>Node1</title>
<g id="a_node1"><a xlink:title=" ">
<polygon fill="#bfbfbf" stroke="black" points="252,-134.5 252,-153.5 382,-153.5 382,-134.5 252,-134.5"/>
<text text-anchor="middle" x="317" y="-141.5" font-family="Helvetica,sans-Serif" font-size="10.00">right_of_way_system.h</text>
</a>
</g>
</g>
<!-- Node2 -->
<g id="node2" class="node">
<title>Node2</title>
<g id="a_node2"><a xlink:href="../../maliput/html/basic__vector_8h.html.html" xlink:title=" ">
<polygon fill="white" stroke="black" points="0,-67.5 0,-97.5 144,-97.5 144,-67.5 0,-67.5"/>
<text text-anchor="start" x="8" y="-85.5" font-family="Helvetica,sans-Serif" font-size="10.00">drake/systems/framework</text>
<text text-anchor="middle" x="72" y="-74.5" font-family="Helvetica,sans-Serif" font-size="10.00">/basic_vector.h</text>
</a>
</g>
</g>
<!-- Node1&#45;&gt;Node2 -->
<g id="edge1" class="edge">
<title>Node1&#45;&gt;Node2</title>
<path fill="none" stroke="midnightblue" d="M281.9,-134.48C244.92,-125.49 185.76,-111.13 139.66,-99.93"/>
<polygon fill="midnightblue" stroke="midnightblue" points="140.29,-96.48 129.74,-97.52 138.63,-103.28 140.29,-96.48"/>
</g>
<!-- Node3 -->
<g id="node3" class="node">
<title>Node3</title>
<g id="a_node3"><a xlink:href="../../maliput/html/leaf__system_8h.html.html" xlink:title=" ">
<polygon fill="white" stroke="black" points="162,-67.5 162,-97.5 306,-97.5 306,-67.5 162,-67.5"/>
<text text-anchor="start" x="170" y="-85.5" font-family="Helvetica,sans-Serif" font-size="10.00">drake/systems/framework</text>
<text text-anchor="middle" x="234" y="-74.5" font-family="Helvetica,sans-Serif" font-size="10.00">/leaf_system.h</text>
</a>
</g>
</g>
<!-- Node1&#45;&gt;Node3 -->
<g id="edge2" class="edge">
<title>Node1&#45;&gt;Node3</title>
<path fill="none" stroke="midnightblue" d="M305.11,-134.48C293.87,-126.42 276.58,-114.02 261.86,-103.47"/>
<polygon fill="midnightblue" stroke="midnightblue" points="263.73,-100.5 253.56,-97.52 259.65,-106.19 263.73,-100.5"/>
</g>
<!-- Node4 -->
<g id="node4" class="node">
<title>Node4</title>
<g id="a_node4"><a xlink:href="../../maliput/html/road__network_8h.html.html" xlink:title=" ">
<polygon fill="white" stroke="black" points="324.5,-73 324.5,-92 475.5,-92 475.5,-73 324.5,-73"/>
<text text-anchor="middle" x="400" y="-80" font-family="Helvetica,sans-Serif" font-size="10.00">maliput/api/road_network.h</text>
</a>
</g>
</g>
<!-- Node1&#45;&gt;Node4 -->
<g id="edge3" class="edge">
<title>Node1&#45;&gt;Node4</title>
<path fill="none" stroke="midnightblue" d="M328.89,-134.48C342.2,-124.93 364,-109.31 379.96,-97.87"/>
<polygon fill="midnightblue" stroke="midnightblue" points="382.04,-100.68 388.13,-92.01 377.96,-94.99 382.04,-100.68"/>
</g>
<!-- Node5 -->
<g id="node5" class="node">
<title>Node5</title>
<g id="a_node5"><a xlink:href="macros_8h.html" target="_top" xlink:title=" ">
<polygon fill="white" stroke="black" points="494,-73 494,-92 604,-92 604,-73 494,-73"/>
<text text-anchor="middle" x="549" y="-80" font-family="Helvetica,sans-Serif" font-size="10.00">delphyne/macros.h</text>
</a>
</g>
</g>
<!-- Node1&#45;&gt;Node5 -->
<g id="edge4" class="edge">
<title>Node1&#45;&gt;Node5</title>
<path fill="none" stroke="midnightblue" d="M350.24,-134.48C391.24,-123.96 461.03,-106.06 506.05,-94.51"/>
<polygon fill="midnightblue" stroke="midnightblue" points="507,-97.88 515.82,-92.01 505.27,-91.1 507,-97.88"/>
</g>
<!-- Node6 -->
<g id="node6" class="node">
<title>Node6</title>
<g id="a_node6"><a xlink:title=" ">
<polygon fill="white" stroke="#bfbfbf" points="427,-6 427,-25 471,-25 471,-6 427,-6"/>
<text text-anchor="middle" x="449" y="-13" font-family="Helvetica,sans-Serif" font-size="10.00">string</text>
</a>
</g>
</g>
<!-- Node5&#45;&gt;Node6 -->
<g id="edge5" class="edge">
<title>Node5&#45;&gt;Node6</title>
<path fill="none" stroke="midnightblue" d="M535.51,-72.73C518.95,-61.96 490.62,-43.55 470.91,-30.74"/>
<polygon fill="midnightblue" stroke="midnightblue" points="472.56,-27.64 462.27,-25.13 468.75,-33.51 472.56,-27.64"/>
</g>
<!-- Node7 -->
<g id="node7" class="node">
<title>Node7</title>
<g id="a_node7"><a xlink:href="../../maliput/html/drake__assert_8h.html.html" xlink:title=" ">
<polygon fill="white" stroke="black" points="489.5,-0.5 489.5,-30.5 608.5,-30.5 608.5,-0.5 489.5,-0.5"/>
<text text-anchor="start" x="497.5" y="-18.5" font-family="Helvetica,sans-Serif" font-size="10.00">drake/common/drake</text>
<text text-anchor="middle" x="549" y="-7.5" font-family="Helvetica,sans-Serif" font-size="10.00">_assert.h</text>
</a>
</g>
</g>
<!-- Node5&#45;&gt;Node7 -->
<g id="edge6" class="edge">
<title>Node5&#45;&gt;Node7</title>
<path fill="none" stroke="midnightblue" d="M549,-72.73C549,-64.54 549,-51.92 549,-40.71"/>
<polygon fill="midnightblue" stroke="midnightblue" points="552.5,-40.59 549,-30.59 545.5,-40.59 552.5,-40.59"/>
</g>
<!-- Node8 -->
<g id="node8" class="node">
<title>Node8</title>
<g id="a_node8"><a xlink:href="../../maliput/html/drake__copyable_8h.html.html" xlink:title=" ">
<polygon fill="white" stroke="black" points="626.5,-0.5 626.5,-30.5 745.5,-30.5 745.5,-0.5 626.5,-0.5"/>
<text text-anchor="start" x="634.5" y="-18.5" font-family="Helvetica,sans-Serif" font-size="10.00">drake/common/drake</text>
<text text-anchor="middle" x="686" y="-7.5" font-family="Helvetica,sans-Serif" font-size="10.00">_copyable.h</text>
</a>
</g>
</g>
<!-- Node5&#45;&gt;Node8 -->
<g id="edge7" class="edge">
<title>Node5&#45;&gt;Node8</title>
<path fill="none" stroke="midnightblue" d="M567.19,-72.87C587.48,-63.24 620.9,-47.39 647.13,-34.94"/>
<polygon fill="midnightblue" stroke="midnightblue" points="648.9,-37.98 656.43,-30.53 645.9,-31.65 648.9,-37.98"/>
</g>
</g>
</svg>
