<?xml version="1.0" encoding="UTF-8" standalone="no"?>
<!DOCTYPE svg PUBLIC "-//W3C//DTD SVG 1.1//EN"
 "http://www.w3.org/Graphics/SVG/1.1/DTD/svg11.dtd">
<!-- Generated by graphviz version 2.43.0 (0)
 -->
<!-- Title: road_path.cc Pages: 1 -->
<!--zoomable 218 -->
<svg id="main" version="1.1" xmlns="http://www.w3.org/2000/svg" xmlns:xlink="http://www.w3.org/1999/xlink" xml:space="preserve" onload="init(evt)">
<style type="text/css"><![CDATA[
.edge:hover path { stroke: red; }
.edge:hover polygon { stroke: red; fill: red; }
]]></style>
<script type="text/javascript"><![CDATA[
var edges = document.getElementsByTagName('g');
if (edges && edges.length) {
  for (var i=0;i<edges.length;i++) {
    if (edges[i].id.substr(0,4)=='edge') {
      edges[i].setAttribute('class','edge');
    }
  }
}
]]></script>
        <defs>
                <circle id="rim" cx="0" cy="0" r="7"/>
                <circle id="rim2" cx="0" cy="0" r="3.5"/>
                <g id="zoomPlus">
                        <use xlink:href="#rim" fill="#404040">
                                <set attributeName="fill" to="#808080" begin="zoomplus.mouseover" end="zoomplus.mouseout"/>
                        </use>
                        <path d="M-4,0h8M0,-4v8" fill="none" stroke="white" stroke-width="1.5" pointer-events="none"/>
                </g>
                <g id="zoomMin">
                        <use xlink:href="#rim" fill="#404040">
                                <set attributeName="fill" to="#808080" begin="zoomminus.mouseover" end="zoomminus.mouseout"/>
                        </use>
                        <path d="M-4,0h8" fill="none" stroke="white" stroke-width="1.5" pointer-events="none"/>
                </g>
                <g id="dirArrow">
                        <path fill="none" stroke="white" stroke-width="1.5" d="M0,-3.0v7 M-2.5,-0.5L0,-3.0L2.5,-0.5"/>
                </g>
               <g id="resetDef">
                       <use xlink:href="#rim2" fill="#404040">
                               <set attributeName="fill" to="#808080" begin="reset.mouseover" end="reset.mouseout"/>
                       </use>
               </g>
        </defs>

<script type="text/javascript">
var viewWidth = 1788;
var viewHeight = 218;
var sectionId = 'dynsection-0';
</script>
<script xlink:href="svgpan.js"/>
<svg id="graph" class="graph">
<g id="viewport">
<title>road_path.cc</title>
<polygon fill="white" stroke="transparent" points="-4,4 -4,-214 1783.5,-214 1783.5,4 -4,4"/>
<!-- Node1 -->
<g id="node1" class="node">
<title>Node1</title>
<g id="a_node1"><a xlink:title=" ">
<polygon fill="#bfbfbf" stroke="black" points="1048,-190.5 1048,-209.5 1127,-209.5 1127,-190.5 1048,-190.5"/>
<text text-anchor="middle" x="1087.5" y="-197.5" font-family="Helvetica,sans-Serif" font-size="10.00">road_path.cc</text>
</a>
</g>
</g>
<!-- Node2 -->
<g id="node2" class="node">
<title>Node2</title>
<g id="a_node2"><a xlink:href="road__path_8h.html" target="_top" xlink:title=" ">
<polygon fill="white" stroke="black" points="574,-129 574,-148 693,-148 693,-129 574,-129"/>
<text text-anchor="middle" x="633.5" y="-136" font-family="Helvetica,sans-Serif" font-size="10.00">systems/road_path.h</text>
</a>
</g>
</g>
<!-- Node1&#45;&gt;Node2 -->
<g id="edge1" class="edge">
<title>Node1&#45;&gt;Node2</title>
<path fill="none" stroke="midnightblue" d="M1047.61,-193.77C970.39,-183.65 799.63,-161.27 703.24,-148.64"/>
<polygon fill="midnightblue" stroke="midnightblue" points="703.67,-145.17 693.3,-147.34 702.76,-152.11 703.67,-145.17"/>
</g>
<!-- Node9 -->
<g id="node9" class="node">
<title>Node9</title>
<g id="a_node9"><a xlink:title=" ">
<polygon fill="white" stroke="#bfbfbf" points="931,-0.5 931,-19.5 1036,-19.5 1036,-0.5 931,-0.5"/>
<text text-anchor="middle" x="983.5" y="-7.5" font-family="Helvetica,sans-Serif" font-size="10.00">maliput/api/lane.h</text>
</a>
</g>
</g>
<!-- Node1&#45;&gt;Node9 -->
<g id="edge14" class="edge">
<title>Node1&#45;&gt;Node9</title>
<path fill="none" stroke="midnightblue" d="M1056.27,-190.44C1037.63,-183.66 1015.19,-172.23 1002.5,-154 976.23,-116.25 977.87,-59.08 980.9,-29.78"/>
<polygon fill="midnightblue" stroke="midnightblue" points="984.39,-30.03 982.12,-19.69 977.44,-29.2 984.39,-30.03"/>
</g>
<!-- Node10 -->
<g id="node10" class="node">
<title>Node10</title>
<g id="a_node10"><a xlink:title=" ">
<polygon fill="white" stroke="#bfbfbf" points="1012,-129 1012,-148 1059,-148 1059,-129 1012,-129"/>
<text text-anchor="middle" x="1035.5" y="-136" font-family="Helvetica,sans-Serif" font-size="10.00">vector</text>
</a>
</g>
</g>
<!-- Node1&#45;&gt;Node10 -->
<g id="edge9" class="edge">
<title>Node1&#45;&gt;Node10</title>
<path fill="none" stroke="midnightblue" d="M1080.05,-190.48C1072.17,-181.46 1059.56,-167.02 1049.76,-155.81"/>
<polygon fill="midnightblue" stroke="midnightblue" points="1052.15,-153.24 1042.94,-148.01 1046.88,-157.84 1052.15,-153.24"/>
</g>
<!-- Node11 -->
<g id="node11" class="node">
<title>Node11</title>
<g id="a_node11"><a xlink:title=" ">
<polygon fill="white" stroke="#bfbfbf" points="1077,-129 1077,-148 1202,-148 1202,-129 1077,-129"/>
<text text-anchor="middle" x="1139.5" y="-136" font-family="Helvetica,sans-Serif" font-size="10.00">drake/common/cond.h</text>
</a>
</g>
</g>
<!-- Node1&#45;&gt;Node11 -->
<g id="edge10" class="edge">
<title>Node1&#45;&gt;Node11</title>
<path fill="none" stroke="midnightblue" d="M1094.95,-190.48C1102.83,-181.46 1115.44,-167.02 1125.24,-155.81"/>
<polygon fill="midnightblue" stroke="midnightblue" points="1128.12,-157.84 1132.06,-148.01 1122.85,-153.24 1128.12,-157.84"/>
</g>
<!-- Node12 -->
<g id="node12" class="node">
<title>Node12</title>
<g id="a_node12"><a xlink:href="../../maliput/html/drake__assert_8h.html.html" xlink:title=" ">
<polygon fill="white" stroke="black" points="0,-56.5 0,-86.5 119,-86.5 119,-56.5 0,-56.5"/>
<text text-anchor="start" x="8" y="-74.5" font-family="Helvetica,sans-Serif" font-size="10.00">drake/common/drake</text>
<text text-anchor="middle" x="59.5" y="-63.5" font-family="Helvetica,sans-Serif" font-size="10.00">_assert.h</text>
</a>
</g>
</g>
<!-- Node1&#45;&gt;Node12 -->
<g id="edge11" class="edge">
<title>Node1&#45;&gt;Node12</title>
<path fill="none" stroke="midnightblue" d="M1047.92,-198.73C879.75,-197.35 229.32,-189.75 145.5,-154 116.16,-141.49 90.81,-114.23 75.39,-94.69"/>
<polygon fill="midnightblue" stroke="midnightblue" points="78.05,-92.41 69.21,-86.59 72.49,-96.66 78.05,-92.41"/>
</g>
<!-- Node13 -->
<g id="node13" class="node">
<title>Node13</title>
<g id="a_node13"><a xlink:title=" ">
<polygon fill="white" stroke="#bfbfbf" points="1220,-129 1220,-148 1345,-148 1345,-129 1220,-129"/>
<text text-anchor="middle" x="1282.5" y="-136" font-family="Helvetica,sans-Serif" font-size="10.00">drake/math/saturate.h</text>
</a>
</g>
</g>
<!-- Node1&#45;&gt;Node13 -->
<g id="edge12" class="edge">
<title>Node1&#45;&gt;Node13</title>
<path fill="none" stroke="midnightblue" d="M1115.44,-190.48C1149.47,-180.09 1207.08,-162.51 1244.96,-150.95"/>
<polygon fill="midnightblue" stroke="midnightblue" points="1246.07,-154.28 1254.61,-148.01 1244.03,-147.58 1246.07,-154.28"/>
</g>
<!-- Node14 -->
<g id="node14" class="node">
<title>Node14</title>
<g id="a_node14"><a xlink:title=" ">
<polygon fill="white" stroke="#bfbfbf" points="1363.5,-123.5 1363.5,-153.5 1471.5,-153.5 1471.5,-123.5 1363.5,-123.5"/>
<text text-anchor="start" x="1371.5" y="-141.5" font-family="Helvetica,sans-Serif" font-size="10.00">maliput/api/branch</text>
<text text-anchor="middle" x="1417.5" y="-130.5" font-family="Helvetica,sans-Serif" font-size="10.00">_point.h</text>
</a>
</g>
</g>
<!-- Node1&#45;&gt;Node14 -->
<g id="edge13" class="edge">
<title>Node1&#45;&gt;Node14</title>
<path fill="none" stroke="midnightblue" d="M1127.28,-192.97C1179.4,-184.92 1273.55,-169.81 1353.5,-154 1353.6,-153.98 1353.7,-153.96 1353.8,-153.94"/>
<polygon fill="midnightblue" stroke="midnightblue" points="1354.33,-157.41 1363.42,-151.97 1352.92,-150.55 1354.33,-157.41"/>
</g>
<!-- Node15 -->
<g id="node15" class="node">
<title>Node15</title>
<g id="a_node15"><a xlink:href="../../maliput/html/lane__data_8h.html.html" xlink:title=" ">
<polygon fill="white" stroke="black" points="1489.5,-129 1489.5,-148 1621.5,-148 1621.5,-129 1489.5,-129"/>
<text text-anchor="middle" x="1555.5" y="-136" font-family="Helvetica,sans-Serif" font-size="10.00">maliput/api/lane_data.h</text>
</a>
</g>
</g>
<!-- Node1&#45;&gt;Node15 -->
<g id="edge15" class="edge">
<title>Node1&#45;&gt;Node15</title>
<path fill="none" stroke="midnightblue" d="M1127.24,-195.47C1198.33,-188.93 1351.87,-173.77 1480.5,-154 1488.24,-152.81 1496.4,-151.4 1504.38,-149.93"/>
<polygon fill="midnightblue" stroke="midnightblue" points="1505.16,-153.34 1514.34,-148.05 1503.86,-146.46 1505.16,-153.34"/>
</g>
<!-- Node16 -->
<g id="node16" class="node">
<title>Node16</title>
<g id="a_node16"><a xlink:href="../../maliput/html/maliput__unused_8h.html.html" xlink:title=" ">
<polygon fill="white" stroke="black" points="1639.5,-123.5 1639.5,-153.5 1779.5,-153.5 1779.5,-123.5 1639.5,-123.5"/>
<text text-anchor="start" x="1647.5" y="-141.5" font-family="Helvetica,sans-Serif" font-size="10.00">maliput/common/maliput</text>
<text text-anchor="middle" x="1709.5" y="-130.5" font-family="Helvetica,sans-Serif" font-size="10.00">_unused.h</text>
</a>
</g>
</g>
<!-- Node1&#45;&gt;Node16 -->
<g id="edge16" class="edge">
<title>Node1&#45;&gt;Node16</title>
<path fill="none" stroke="midnightblue" d="M1127.16,-197.06C1215.49,-192.45 1435.28,-179.38 1629.25,-154.08"/>
<polygon fill="midnightblue" stroke="midnightblue" points="1629.89,-157.53 1639.35,-152.75 1628.97,-150.59 1629.89,-157.53"/>
</g>
<!-- Node17 -->
<g id="node17" class="node">
<title>Node17</title>
<g id="a_node17"><a xlink:href="macros_8h.html" target="_top" xlink:title=" ">
<polygon fill="white" stroke="black" points="154.5,-129 154.5,-148 264.5,-148 264.5,-129 154.5,-129"/>
<text text-anchor="middle" x="209.5" y="-136" font-family="Helvetica,sans-Serif" font-size="10.00">delphyne/macros.h</text>
</a>
</g>
</g>
<!-- Node1&#45;&gt;Node17 -->
<g id="edge17" class="edge">
<title>Node1&#45;&gt;Node17</title>
<path fill="none" stroke="midnightblue" d="M1047.78,-196.31C909.33,-186.93 447.12,-155.6 274.91,-143.93"/>
<polygon fill="midnightblue" stroke="midnightblue" points="274.94,-140.43 264.72,-143.24 274.46,-147.41 274.94,-140.43"/>
</g>
<!-- Node3 -->
<g id="node3" class="node">
<title>Node3</title>
<g id="a_node3"><a xlink:href="../../maliput/html/drake__copyable_8h.html.html" xlink:title=" ">
<polygon fill="white" stroke="black" points="200,-56.5 200,-86.5 319,-86.5 319,-56.5 200,-56.5"/>
<text text-anchor="start" x="208" y="-74.5" font-family="Helvetica,sans-Serif" font-size="10.00">drake/common/drake</text>
<text text-anchor="middle" x="259.5" y="-63.5" font-family="Helvetica,sans-Serif" font-size="10.00">_copyable.h</text>
</a>
</g>
</g>
<!-- Node2&#45;&gt;Node3 -->
<g id="edge2" class="edge">
<title>Node2&#45;&gt;Node3</title>
<path fill="none" stroke="midnightblue" d="M576.96,-128.98C517.61,-119.85 421.33,-104.53 329.22,-87.28"/>
<polygon fill="midnightblue" stroke="midnightblue" points="329.65,-83.8 319.17,-85.39 328.35,-90.68 329.65,-83.8"/>
</g>
<!-- Node4 -->
<g id="node4" class="node">
<title>Node4</title>
<g id="a_node4"><a xlink:href="../../maliput/html/eigen__types_8h.html.html" xlink:title=" ">
<polygon fill="white" stroke="black" points="337,-56.5 337,-86.5 456,-86.5 456,-56.5 337,-56.5"/>
<text text-anchor="start" x="345" y="-74.5" font-family="Helvetica,sans-Serif" font-size="10.00">drake/common/eigen</text>
<text text-anchor="middle" x="396.5" y="-63.5" font-family="Helvetica,sans-Serif" font-size="10.00">_types.h</text>
</a>
</g>
</g>
<!-- Node2&#45;&gt;Node4 -->
<g id="edge3" class="edge">
<title>Node2&#45;&gt;Node4</title>
<path fill="none" stroke="midnightblue" d="M602.03,-128.87C565.31,-118.8 503.75,-101.91 457.55,-89.24"/>
<polygon fill="midnightblue" stroke="midnightblue" points="458.22,-85.8 447.65,-86.53 456.37,-92.55 458.22,-85.8"/>
</g>
<!-- Node5 -->
<g id="node5" class="node">
<title>Node5</title>
<g id="a_node5"><a xlink:href="../../maliput/html/piecewise__polynomial_8h.html.html" xlink:title=" ">
<polygon fill="white" stroke="black" points="474.5,-56.5 474.5,-86.5 622.5,-86.5 622.5,-56.5 474.5,-56.5"/>
<text text-anchor="start" x="482.5" y="-74.5" font-family="Helvetica,sans-Serif" font-size="10.00">drake/common/trajectories</text>
<text text-anchor="middle" x="548.5" y="-63.5" font-family="Helvetica,sans-Serif" font-size="10.00">/piecewise_polynomial.h</text>
</a>
</g>
</g>
<!-- Node2&#45;&gt;Node5 -->
<g id="edge4" class="edge">
<title>Node2&#45;&gt;Node5</title>
<path fill="none" stroke="midnightblue" d="M622.04,-128.73C610.11,-119.61 591,-105 575.26,-92.96"/>
<polygon fill="midnightblue" stroke="midnightblue" points="576.99,-89.88 566.92,-86.59 572.74,-95.44 576.99,-89.88"/>
</g>
<!-- Node6 -->
<g id="node6" class="node">
<title>Node6</title>
<g id="a_node6"><a xlink:title=" ">
<polygon fill="white" stroke="#bfbfbf" points="641,-62 641,-81 798,-81 798,-62 641,-62"/>
<text text-anchor="middle" x="719.5" y="-69" font-family="Helvetica,sans-Serif" font-size="10.00">maliput/api/road_geometry.h</text>
</a>
</g>
</g>
<!-- Node2&#45;&gt;Node6 -->
<g id="edge5" class="edge">
<title>Node2&#45;&gt;Node6</title>
<path fill="none" stroke="midnightblue" d="M645.1,-128.73C659.15,-118.11 683.05,-100.05 699.97,-87.26"/>
<polygon fill="midnightblue" stroke="midnightblue" points="702.22,-89.95 708.09,-81.13 698,-84.36 702.22,-89.95"/>
</g>
<!-- Node7 -->
<g id="node7" class="node">
<title>Node7</title>
<g id="a_node7"><a xlink:href="lane__direction_8h.html" target="_top" xlink:title=" ">
<polygon fill="white" stroke="black" points="816,-62 816,-81 955,-81 955,-62 816,-62"/>
<text text-anchor="middle" x="885.5" y="-69" font-family="Helvetica,sans-Serif" font-size="10.00">systems/lane_direction.h</text>
</a>
</g>
</g>
<!-- Node2&#45;&gt;Node7 -->
<g id="edge6" class="edge">
<title>Node2&#45;&gt;Node7</title>
<path fill="none" stroke="midnightblue" d="M666.7,-128.94C711.84,-117.29 792.63,-96.45 842.4,-83.62"/>
<polygon fill="midnightblue" stroke="midnightblue" points="843.41,-86.97 852.22,-81.08 841.67,-80.19 843.41,-86.97"/>
</g>
<!-- Node8 -->
<g id="node8" class="node">
<title>Node8</title>
<g id="a_node8"><a xlink:title=" ">
<polygon fill="white" stroke="#bfbfbf" points="854.5,-0.5 854.5,-19.5 912.5,-19.5 912.5,-0.5 854.5,-0.5"/>
<text text-anchor="middle" x="883.5" y="-7.5" font-family="Helvetica,sans-Serif" font-size="10.00">memory</text>
</a>
</g>
</g>
<!-- Node7&#45;&gt;Node8 -->
<g id="edge7" class="edge">
<title>Node7&#45;&gt;Node8</title>
<path fill="none" stroke="midnightblue" d="M885.21,-61.98C884.93,-53.58 884.49,-40.48 884.13,-29.66"/>
<polygon fill="midnightblue" stroke="midnightblue" points="887.62,-29.39 883.79,-19.51 880.62,-29.62 887.62,-29.39"/>
</g>
<!-- Node7&#45;&gt;Node9 -->
<g id="edge8" class="edge">
<title>Node7&#45;&gt;Node9</title>
<path fill="none" stroke="midnightblue" d="M899.54,-61.98C915.55,-52.25 941.95,-36.23 960.87,-24.74"/>
<polygon fill="midnightblue" stroke="midnightblue" points="962.75,-27.69 969.49,-19.51 959.12,-21.71 962.75,-27.69"/>
</g>
<!-- Node17&#45;&gt;Node3 -->
<g id="edge20" class="edge">
<title>Node17&#45;&gt;Node3</title>
<path fill="none" stroke="midnightblue" d="M216.24,-128.73C222.94,-120.03 233.47,-106.34 242.46,-94.65"/>
<polygon fill="midnightblue" stroke="midnightblue" points="245.34,-96.65 248.66,-86.59 239.79,-92.38 245.34,-96.65"/>
</g>
<!-- Node17&#45;&gt;Node12 -->
<g id="edge19" class="edge">
<title>Node17&#45;&gt;Node12</title>
<path fill="none" stroke="midnightblue" d="M189.58,-128.87C167.17,-119.16 130.14,-103.11 101.3,-90.61"/>
<polygon fill="midnightblue" stroke="midnightblue" points="102.44,-87.29 91.87,-86.53 99.66,-93.72 102.44,-87.29"/>
</g>
<!-- Node18 -->
<g id="node18" class="node">
<title>Node18</title>
<g id="a_node18"><a xlink:title=" ">
<polygon fill="white" stroke="#bfbfbf" points="137.5,-62 137.5,-81 181.5,-81 181.5,-62 137.5,-62"/>
<text text-anchor="middle" x="159.5" y="-69" font-family="Helvetica,sans-Serif" font-size="10.00">string</text>
</a>
</g>
</g>
<!-- Node17&#45;&gt;Node18 -->
<g id="edge18" class="edge">
<title>Node17&#45;&gt;Node18</title>
<path fill="none" stroke="midnightblue" d="M202.76,-128.73C194.96,-118.6 181.95,-101.69 172.24,-89.06"/>
<polygon fill="midnightblue" stroke="midnightblue" points="175.01,-86.92 166.14,-81.13 169.46,-91.19 175.01,-86.92"/>
</g>
</g>
</svg>
        <g id="navigator" transform="translate(0 0)" fill="#404254">
                <rect fill="#f2f5e9" fill-opacity="0.5" stroke="#606060" stroke-width=".5" x="0" y="0" width="60" height="60"/>
                <use id="zoomplus" xlink:href="#zoomPlus" x="17" y="9" onmousedown="handleZoom(evt,'in')"/>
                <use id="zoomminus" xlink:href="#zoomMin" x="42" y="9" onmousedown="handleZoom(evt,'out')"/>
                <use id="reset" xlink:href="#resetDef" x="30" y="36" onmousedown="handleReset()"/>
                <g id="arrowUp" xlink:href="#dirArrow" transform="translate(30 24)" onmousedown="handlePan(0,-1)">
                  <use xlink:href="#rim" fill="#404040">
                        <set attributeName="fill" to="#808080" begin="arrowUp.mouseover" end="arrowUp.mouseout"/>
                  </use>
                  <path fill="none" stroke="white" stroke-width="1.5" d="M0,-3.0v7 M-2.5,-0.5L0,-3.0L2.5,-0.5"/>
                </g>
                <g id="arrowRight" xlink:href="#dirArrow" transform="rotate(90) translate(36 -43)" onmousedown="handlePan(1,0)">
                  <use xlink:href="#rim" fill="#404040">
                        <set attributeName="fill" to="#808080" begin="arrowRight.mouseover" end="arrowRight.mouseout"/>
                  </use>
                  <path fill="none" stroke="white" stroke-width="1.5" d="M0,-3.0v7 M-2.5,-0.5L0,-3.0L2.5,-0.5"/>
                </g>
                <g id="arrowDown" xlink:href="#dirArrow" transform="rotate(180) translate(-30 -48)" onmousedown="handlePan(0,1)">
                  <use xlink:href="#rim" fill="#404040">
                        <set attributeName="fill" to="#808080" begin="arrowDown.mouseover" end="arrowDown.mouseout"/>
                  </use>
                  <path fill="none" stroke="white" stroke-width="1.5" d="M0,-3.0v7 M-2.5,-0.5L0,-3.0L2.5,-0.5"/>
                </g>
                <g id="arrowLeft" xlink:href="#dirArrow" transform="rotate(270) translate(-36 17)" onmousedown="handlePan(-1,0)">
                  <use xlink:href="#rim" fill="#404040">
                        <set attributeName="fill" to="#808080" begin="arrowLeft.mouseover" end="arrowLeft.mouseout"/>
                  </use>
                  <path fill="none" stroke="white" stroke-width="1.5" d="M0,-3.0v7 M-2.5,-0.5L0,-3.0L2.5,-0.5"/>
                </g>
        </g>
        <svg viewBox="0 0 15 15" width="100%" height="30px" preserveAspectRatio="xMaxYMin meet">
         <g id="arrow_out" transform="scale(0.3 0.3)">
          <a xlink:href="road__path_8cc__incl_org.svg" target="_base">
           <rect id="button" ry="5" rx="5" y="6" x="6" height="38" width="38"
                fill="#f2f5e9" fill-opacity="0.5" stroke="#606060" stroke-width="1.0"/>
           <path id="arrow"
             d="M 11.500037,31.436501 C 11.940474,20.09759 22.043105,11.32322 32.158766,21.979434 L 37.068811,17.246167 C 37.068811,17.246167 37.088388,32 37.088388,32 L 22.160133,31.978069 C 22.160133,31.978069 26.997745,27.140456 26.997745,27.140456 C 18.528582,18.264221 13.291696,25.230495 11.500037,31.436501 z"
             style="fill:#404040;"/>
          </a>
         </g>
        </svg>
</svg>
