<?xml version="1.0" encoding="UTF-8" standalone="no"?>
<!DOCTYPE svg PUBLIC "-//W3C//DTD SVG 1.1//EN"
 "http://www.w3.org/Graphics/SVG/1.1/DTD/svg11.dtd">
<!-- Generated by graphviz version 2.43.0 (0)
 -->
<!-- Title: unicycle_car.h Pages: 1 -->
<svg width="1585pt" height="162pt"
 viewBox="0.00 0.00 1584.50 162.00" xmlns="http://www.w3.org/2000/svg" xmlns:xlink="http://www.w3.org/1999/xlink">
<g id="graph0" class="graph" transform="scale(1 1) rotate(0) translate(4 158)">
<title>unicycle_car.h</title>
<polygon fill="white" stroke="transparent" points="-4,4 -4,-158 1580.5,-158 1580.5,4 -4,4"/>
<!-- Node1 -->
<g id="node1" class="node">
<title>Node1</title>
<g id="a_node1"><a xlink:title=" ">
<polygon fill="#bfbfbf" stroke="black" points="402,-134.5 402,-153.5 488,-153.5 488,-134.5 402,-134.5"/>
<text text-anchor="middle" x="445" y="-141.5" font-family="Helvetica,sans-Serif" font-size="10.00">unicycle_car.h</text>
</a>
</g>
</g>
<!-- Node2 -->
<g id="node2" class="node">
<title>Node2</title>
<g id="a_node2"><a xlink:title=" ">
<polygon fill="white" stroke="#bfbfbf" points="0,-73 0,-92 58,-92 58,-73 0,-73"/>
<text text-anchor="middle" x="29" y="-80" font-family="Helvetica,sans-Serif" font-size="10.00">memory</text>
</a>
</g>
</g>
<!-- Node1&#45;&gt;Node2 -->
<g id="edge1" class="edge">
<title>Node1&#45;&gt;Node2</title>
<path fill="none" stroke="midnightblue" d="M401.87,-141.31C331.04,-137.78 186.04,-127.32 67,-98 64.17,-97.3 61.27,-96.45 58.39,-95.52"/>
<polygon fill="midnightblue" stroke="midnightblue" points="59.42,-92.17 48.82,-92.12 57.07,-98.77 59.42,-92.17"/>
</g>
<!-- Node3 -->
<g id="node3" class="node">
<title>Node3</title>
<g id="a_node3"><a xlink:title=" ">
<polygon fill="white" stroke="#bfbfbf" points="76.5,-67.5 76.5,-97.5 195.5,-97.5 195.5,-67.5 76.5,-67.5"/>
<text text-anchor="start" x="84.5" y="-85.5" font-family="Helvetica,sans-Serif" font-size="10.00">drake/common/drake</text>
<text text-anchor="middle" x="136" y="-74.5" font-family="Helvetica,sans-Serif" font-size="10.00">_copyable.h</text>
</a>
</g>
</g>
<!-- Node1&#45;&gt;Node3 -->
<g id="edge2" class="edge">
<title>Node1&#45;&gt;Node3</title>
<path fill="none" stroke="midnightblue" d="M401.59,-135.15C355.54,-126.77 280.41,-112.9 205.86,-98.15"/>
<polygon fill="midnightblue" stroke="midnightblue" points="206.31,-94.67 195.82,-96.15 204.95,-101.53 206.31,-94.67"/>
</g>
<!-- Node4 -->
<g id="node4" class="node">
<title>Node4</title>
<g id="a_node4"><a xlink:title=" ">
<polygon fill="white" stroke="#bfbfbf" points="214,-67.5 214,-97.5 358,-97.5 358,-67.5 214,-67.5"/>
<text text-anchor="start" x="222" y="-85.5" font-family="Helvetica,sans-Serif" font-size="10.00">drake/systems/framework</text>
<text text-anchor="middle" x="286" y="-74.5" font-family="Helvetica,sans-Serif" font-size="10.00">/leaf_system.h</text>
</a>
</g>
</g>
<!-- Node1&#45;&gt;Node4 -->
<g id="edge3" class="edge">
<title>Node1&#45;&gt;Node4</title>
<path fill="none" stroke="midnightblue" d="M422.22,-134.48C399.07,-125.81 362.55,-112.15 333.14,-101.14"/>
<polygon fill="midnightblue" stroke="midnightblue" points="334.07,-97.75 323.47,-97.52 331.61,-104.31 334.07,-97.75"/>
</g>
<!-- Node5 -->
<g id="node5" class="node">
<title>Node5</title>
<g id="a_node5"><a xlink:title=" ">
<polygon fill="white" stroke="#bfbfbf" points="376.5,-67.5 376.5,-97.5 513.5,-97.5 513.5,-67.5 376.5,-67.5"/>
<text text-anchor="start" x="384.5" y="-85.5" font-family="Helvetica,sans-Serif" font-size="10.00">drake/systems/rendering</text>
<text text-anchor="middle" x="445" y="-74.5" font-family="Helvetica,sans-Serif" font-size="10.00">/frame_velocity.h</text>
</a>
</g>
</g>
<!-- Node1&#45;&gt;Node5 -->
<g id="edge4" class="edge">
<title>Node1&#45;&gt;Node5</title>
<path fill="none" stroke="midnightblue" d="M445,-134.48C445,-127.47 445,-117.19 445,-107.7"/>
<polygon fill="midnightblue" stroke="midnightblue" points="448.5,-107.52 445,-97.52 441.5,-107.52 448.5,-107.52"/>
</g>
<!-- Node6 -->
<g id="node6" class="node">
<title>Node6</title>
<g id="a_node6"><a xlink:title=" ">
<polygon fill="white" stroke="#bfbfbf" points="531.5,-67.5 531.5,-97.5 668.5,-97.5 668.5,-67.5 531.5,-67.5"/>
<text text-anchor="start" x="539.5" y="-85.5" font-family="Helvetica,sans-Serif" font-size="10.00">drake/systems/rendering</text>
<text text-anchor="middle" x="600" y="-74.5" font-family="Helvetica,sans-Serif" font-size="10.00">/pose_vector.h</text>
</a>
</g>
</g>
<!-- Node1&#45;&gt;Node6 -->
<g id="edge5" class="edge">
<title>Node1&#45;&gt;Node6</title>
<path fill="none" stroke="midnightblue" d="M467.21,-134.48C489.77,-125.81 525.38,-112.15 554.04,-101.14"/>
<polygon fill="midnightblue" stroke="midnightblue" points="555.39,-104.37 563.47,-97.52 552.88,-97.84 555.39,-104.37"/>
</g>
<!-- Node7 -->
<g id="node7" class="node">
<title>Node7</title>
<g id="a_node7"><a xlink:href="angular__rate__acceleration__command_8h.html" target="_top" xlink:title=" ">
<polygon fill="white" stroke="black" points="687,-67.5 687,-97.5 851,-97.5 851,-67.5 687,-67.5"/>
<text text-anchor="start" x="695" y="-85.5" font-family="Helvetica,sans-Serif" font-size="10.00">gen/angular_rate_acceleration</text>
<text text-anchor="middle" x="769" y="-74.5" font-family="Helvetica,sans-Serif" font-size="10.00">_command.h</text>
</a>
</g>
</g>
<!-- Node1&#45;&gt;Node7 -->
<g id="edge6" class="edge">
<title>Node1&#45;&gt;Node7</title>
<path fill="none" stroke="midnightblue" d="M488.02,-135.1C537.45,-126.02 619.81,-110.9 682.62,-99.36"/>
<polygon fill="midnightblue" stroke="midnightblue" points="683.32,-102.79 692.52,-97.54 682.06,-95.91 683.32,-102.79"/>
</g>
<!-- Node14 -->
<g id="node14" class="node">
<title>Node14</title>
<g id="a_node14"><a xlink:href="simple__car__state_8h.html" target="_top" xlink:title=" ">
<polygon fill="white" stroke="black" points="869,-73 869,-92 999,-92 999,-73 869,-73"/>
<text text-anchor="middle" x="934" y="-80" font-family="Helvetica,sans-Serif" font-size="10.00">gen/simple_car_state.h</text>
</a>
</g>
</g>
<!-- Node1&#45;&gt;Node14 -->
<g id="edge13" class="edge">
<title>Node1&#45;&gt;Node14</title>
<path fill="none" stroke="midnightblue" d="M488.17,-139.54C563.77,-133.22 724.94,-118.52 860,-98 867.74,-96.82 875.89,-95.41 883.85,-93.93"/>
<polygon fill="midnightblue" stroke="midnightblue" points="884.62,-97.34 893.78,-92.03 883.3,-90.47 884.62,-97.34"/>
</g>
<!-- Node8 -->
<g id="node8" class="node">
<title>Node8</title>
<g id="a_node8"><a xlink:title=" ">
<polygon fill="white" stroke="#bfbfbf" points="783.5,-6 783.5,-25 830.5,-25 830.5,-6 783.5,-6"/>
<text text-anchor="middle" x="807" y="-13" font-family="Helvetica,sans-Serif" font-size="10.00">cmath</text>
</a>
</g>
</g>
<!-- Node7&#45;&gt;Node8 -->
<g id="edge7" class="edge">
<title>Node7&#45;&gt;Node8</title>
<path fill="none" stroke="midnightblue" d="M777.25,-67.4C782.99,-57.56 790.7,-44.38 796.83,-33.89"/>
<polygon fill="midnightblue" stroke="midnightblue" points="799.89,-35.59 801.92,-25.19 793.85,-32.06 799.89,-35.59"/>
</g>
<!-- Node9 -->
<g id="node9" class="node">
<title>Node9</title>
<g id="a_node9"><a xlink:title=" ">
<polygon fill="white" stroke="#bfbfbf" points="849,-6 849,-25 893,-25 893,-6 849,-6"/>
<text text-anchor="middle" x="871" y="-13" font-family="Helvetica,sans-Serif" font-size="10.00">string</text>
</a>
</g>
</g>
<!-- Node7&#45;&gt;Node9 -->
<g id="edge8" class="edge">
<title>Node7&#45;&gt;Node9</title>
<path fill="none" stroke="midnightblue" d="M791.13,-67.4C808.24,-56.5 831.8,-41.48 848.9,-30.58"/>
<polygon fill="midnightblue" stroke="midnightblue" points="851.1,-33.33 857.65,-25.01 847.34,-27.43 851.1,-33.33"/>
</g>
<!-- Node10 -->
<g id="node10" class="node">
<title>Node10</title>
<g id="a_node10"><a xlink:title=" ">
<polygon fill="white" stroke="#bfbfbf" points="911.5,-6 911.5,-25 956.5,-25 956.5,-6 911.5,-6"/>
<text text-anchor="middle" x="934" y="-13" font-family="Helvetica,sans-Serif" font-size="10.00">utility</text>
</a>
</g>
</g>
<!-- Node7&#45;&gt;Node10 -->
<g id="edge9" class="edge">
<title>Node7&#45;&gt;Node10</title>
<path fill="none" stroke="midnightblue" d="M807.95,-67.44C834.6,-57.64 870.64,-44.04 902,-31 903.37,-30.43 904.77,-29.84 906.19,-29.23"/>
<polygon fill="midnightblue" stroke="midnightblue" points="907.74,-32.37 915.47,-25.13 904.91,-25.97 907.74,-32.37"/>
</g>
<!-- Node11 -->
<g id="node11" class="node">
<title>Node11</title>
<g id="a_node11"><a xlink:title=" ">
<polygon fill="white" stroke="#bfbfbf" points="397.5,-6 397.5,-25 444.5,-25 444.5,-6 397.5,-6"/>
<text text-anchor="middle" x="421" y="-13" font-family="Helvetica,sans-Serif" font-size="10.00">vector</text>
</a>
</g>
</g>
<!-- Node7&#45;&gt;Node11 -->
<g id="edge10" class="edge">
<title>Node7&#45;&gt;Node11</title>
<path fill="none" stroke="midnightblue" d="M686.79,-68.45C594.4,-53.76 456.82,-31.83 454,-31 451.85,-30.37 449.66,-29.63 447.48,-28.83"/>
<polygon fill="midnightblue" stroke="midnightblue" points="448.74,-25.56 438.16,-25.03 446.1,-32.04 448.74,-25.56"/>
</g>
<!-- Node12 -->
<g id="node12" class="node">
<title>Node12</title>
<g id="a_node12"><a xlink:title=" ">
<polygon fill="white" stroke="#bfbfbf" points="463,-0.5 463,-30.5 607,-30.5 607,-0.5 463,-0.5"/>
<text text-anchor="start" x="471" y="-18.5" font-family="Helvetica,sans-Serif" font-size="10.00">drake/systems/framework</text>
<text text-anchor="middle" x="535" y="-7.5" font-family="Helvetica,sans-Serif" font-size="10.00">/basic_vector.h</text>
</a>
</g>
</g>
<!-- Node7&#45;&gt;Node12 -->
<g id="edge11" class="edge">
<title>Node7&#45;&gt;Node12</title>
<path fill="none" stroke="midnightblue" d="M718.51,-67.48C682.5,-57.47 633.9,-43.97 595.76,-33.38"/>
<polygon fill="midnightblue" stroke="midnightblue" points="596.37,-29.92 585.8,-30.61 594.5,-36.66 596.37,-29.92"/>
</g>
<!-- Node13 -->
<g id="node13" class="node">
<title>Node13</title>
<g id="a_node13"><a xlink:href="../../maliput/html/maliput__never__destroyed_8h.html.html" xlink:title=" ">
<polygon fill="white" stroke="black" points="625,-0.5 625,-30.5 765,-30.5 765,-0.5 625,-0.5"/>
<text text-anchor="start" x="633" y="-18.5" font-family="Helvetica,sans-Serif" font-size="10.00">maliput/common/maliput</text>
<text text-anchor="middle" x="695" y="-7.5" font-family="Helvetica,sans-Serif" font-size="10.00">_never_destroyed.h</text>
</a>
</g>
</g>
<!-- Node7&#45;&gt;Node13 -->
<g id="edge12" class="edge">
<title>Node7&#45;&gt;Node13</title>
<path fill="none" stroke="midnightblue" d="M752.94,-67.4C742.96,-58.62 729.93,-47.18 718.76,-37.37"/>
<polygon fill="midnightblue" stroke="midnightblue" points="720.85,-34.55 711.03,-30.58 716.23,-39.81 720.85,-34.55"/>
</g>
<!-- Node14&#45;&gt;Node8 -->
<g id="edge14" class="edge">
<title>Node14&#45;&gt;Node8</title>
<path fill="none" stroke="midnightblue" d="M917.14,-72.87C895.6,-61.84 858.1,-42.66 832.92,-29.77"/>
<polygon fill="midnightblue" stroke="midnightblue" points="834.43,-26.61 823.93,-25.17 831.24,-32.84 834.43,-26.61"/>
</g>
<!-- Node14&#45;&gt;Node9 -->
<g id="edge16" class="edge">
<title>Node14&#45;&gt;Node9</title>
<path fill="none" stroke="midnightblue" d="M925.5,-72.73C915.49,-62.4 898.66,-45.04 886.34,-32.33"/>
<polygon fill="midnightblue" stroke="midnightblue" points="888.83,-29.87 879.36,-25.13 883.81,-34.74 888.83,-29.87"/>
</g>
<!-- Node14&#45;&gt;Node10 -->
<g id="edge17" class="edge">
<title>Node14&#45;&gt;Node10</title>
<path fill="none" stroke="midnightblue" d="M934,-72.73C934,-63.18 934,-47.62 934,-35.28"/>
<polygon fill="midnightblue" stroke="midnightblue" points="937.5,-35.13 934,-25.13 930.5,-35.13 937.5,-35.13"/>
</g>
<!-- Node14&#45;&gt;Node11 -->
<g id="edge18" class="edge">
<title>Node14&#45;&gt;Node11</title>
<path fill="none" stroke="midnightblue" d="M894.57,-72.98C883.44,-70.79 871.28,-68.6 860,-67 680.64,-41.55 629.47,-76.03 454,-31 451.7,-30.41 449.35,-29.67 447.03,-28.85"/>
<polygon fill="midnightblue" stroke="midnightblue" points="448.33,-25.6 437.75,-25.12 445.72,-32.1 448.33,-25.6"/>
</g>
<!-- Node14&#45;&gt;Node12 -->
<g id="edge23" class="edge">
<title>Node14&#45;&gt;Node12</title>
<path fill="none" stroke="midnightblue" d="M892.19,-72.95C881.7,-70.9 870.45,-68.79 860,-67 755.13,-49 725.88,-48.66 617.44,-31.2"/>
<polygon fill="midnightblue" stroke="midnightblue" points="617.84,-27.72 607.4,-29.57 616.72,-34.63 617.84,-27.72"/>
</g>
<!-- Node14&#45;&gt;Node13 -->
<g id="edge24" class="edge">
<title>Node14&#45;&gt;Node13</title>
<path fill="none" stroke="midnightblue" d="M902.26,-72.87C865.16,-62.78 802.89,-45.84 756.28,-33.16"/>
<polygon fill="midnightblue" stroke="midnightblue" points="757.15,-29.78 746.58,-30.53 755.31,-36.53 757.15,-29.78"/>
</g>
<!-- Node15 -->
<g id="node15" class="node">
<title>Node15</title>
<g id="a_node15"><a xlink:title=" ">
<polygon fill="white" stroke="#bfbfbf" points="1287.5,-6 1287.5,-25 1352.5,-25 1352.5,-6 1287.5,-6"/>
<text text-anchor="middle" x="1320" y="-13" font-family="Helvetica,sans-Serif" font-size="10.00">stdexcept</text>
</a>
</g>
</g>
<!-- Node14&#45;&gt;Node15 -->
<g id="edge15" class="edge">
<title>Node14&#45;&gt;Node15</title>
<path fill="none" stroke="midnightblue" d="M999.04,-75.61C1068.74,-68.45 1182.26,-54.34 1278,-31 1281.22,-30.21 1284.55,-29.28 1287.85,-28.28"/>
<polygon fill="midnightblue" stroke="midnightblue" points="1289.14,-31.54 1297.56,-25.11 1286.97,-24.88 1289.14,-31.54"/>
</g>
<!-- Node16 -->
<g id="node16" class="node">
<title>Node16</title>
<g id="a_node16"><a xlink:title=" ">
<polygon fill="white" stroke="#bfbfbf" points="1370.5,-6 1370.5,-25 1439.5,-25 1439.5,-6 1370.5,-6"/>
<text text-anchor="middle" x="1405" y="-13" font-family="Helvetica,sans-Serif" font-size="10.00">Eigen/Core</text>
</a>
</g>
</g>
<!-- Node14&#45;&gt;Node16 -->
<g id="edge19" class="edge">
<title>Node14&#45;&gt;Node16</title>
<path fill="none" stroke="midnightblue" d="M999.24,-78.03C1083.78,-72.56 1235.35,-59.5 1362,-31 1365.49,-30.22 1369.09,-29.25 1372.66,-28.2"/>
<polygon fill="midnightblue" stroke="midnightblue" points="1374.02,-31.44 1382.49,-25.07 1371.9,-24.77 1374.02,-31.44"/>
</g>
<!-- Node17 -->
<g id="node17" class="node">
<title>Node17</title>
<g id="a_node17"><a xlink:title=" ">
<polygon fill="white" stroke="#bfbfbf" points="1457.5,-0.5 1457.5,-30.5 1576.5,-30.5 1576.5,-0.5 1457.5,-0.5"/>
<text text-anchor="start" x="1465.5" y="-18.5" font-family="Helvetica,sans-Serif" font-size="10.00">drake/common/drake</text>
<text text-anchor="middle" x="1517" y="-7.5" font-family="Helvetica,sans-Serif" font-size="10.00">_bool.h</text>
</a>
</g>
</g>
<!-- Node14&#45;&gt;Node17 -->
<g id="edge20" class="edge">
<title>Node14&#45;&gt;Node17</title>
<path fill="none" stroke="midnightblue" d="M999.33,-77.46C1095.49,-70.98 1280.89,-56.51 1447.44,-31.14"/>
<polygon fill="midnightblue" stroke="midnightblue" points="1448.02,-34.59 1457.37,-29.61 1446.95,-27.67 1448.02,-34.59"/>
</g>
<!-- Node18 -->
<g id="node18" class="node">
<title>Node18</title>
<g id="a_node18"><a xlink:title=" ">
<polygon fill="white" stroke="#bfbfbf" points="975,-0.5 975,-30.5 1105,-30.5 1105,-0.5 975,-0.5"/>
<text text-anchor="start" x="983" y="-18.5" font-family="Helvetica,sans-Serif" font-size="10.00">drake/common/dummy</text>
<text text-anchor="middle" x="1040" y="-7.5" font-family="Helvetica,sans-Serif" font-size="10.00">_value.h</text>
</a>
</g>
</g>
<!-- Node14&#45;&gt;Node18 -->
<g id="edge21" class="edge">
<title>Node14&#45;&gt;Node18</title>
<path fill="none" stroke="midnightblue" d="M948.3,-72.73C963.59,-63.36 988.32,-48.19 1008.26,-35.97"/>
<polygon fill="midnightblue" stroke="midnightblue" points="1010.33,-38.8 1017.02,-30.59 1006.67,-32.83 1010.33,-38.8"/>
</g>
<!-- Node19 -->
<g id="node19" class="node">
<title>Node19</title>
<g id="a_node19"><a xlink:title=" ">
<polygon fill="white" stroke="#bfbfbf" points="1123,-6 1123,-25 1269,-25 1269,-6 1123,-6"/>
<text text-anchor="middle" x="1196" y="-13" font-family="Helvetica,sans-Serif" font-size="10.00">drake/common/symbolic.h</text>
</a>
</g>
</g>
<!-- Node14&#45;&gt;Node19 -->
<g id="edge22" class="edge">
<title>Node14&#45;&gt;Node19</title>
<path fill="none" stroke="midnightblue" d="M968.52,-72.94C1015.55,-61.27 1099.8,-40.37 1151.51,-27.54"/>
<polygon fill="midnightblue" stroke="midnightblue" points="1152.54,-30.89 1161.4,-25.08 1150.85,-24.09 1152.54,-30.89"/>
</g>
</g>
</svg>
