<?xml version="1.0" encoding="UTF-8" standalone="no"?>
<!DOCTYPE svg PUBLIC "-//W3C//DTD SVG 1.1//EN"
 "http://www.w3.org/Graphics/SVG/1.1/DTD/svg11.dtd">
<!-- Generated by graphviz version 2.43.0 (0)
 -->
<!-- Title: traffic_pose_selector.cc Pages: 1 -->
<!--zoomable 229 -->
<svg id="main" version="1.1" xmlns="http://www.w3.org/2000/svg" xmlns:xlink="http://www.w3.org/1999/xlink" xml:space="preserve" onload="init(evt)">
<style type="text/css"><![CDATA[
.edge:hover path { stroke: red; }
.edge:hover polygon { stroke: red; fill: red; }
]]></style>
<script type="text/javascript"><![CDATA[
var edges = document.getElementsByTagName('g');
if (edges && edges.length) {
  for (var i=0;i<edges.length;i++) {
    if (edges[i].id.substr(0,4)=='edge') {
      edges[i].setAttribute('class','edge');
    }
  }
}
]]></script>
        <defs>
                <circle id="rim" cx="0" cy="0" r="7"/>
                <circle id="rim2" cx="0" cy="0" r="3.5"/>
                <g id="zoomPlus">
                        <use xlink:href="#rim" fill="#404040">
                                <set attributeName="fill" to="#808080" begin="zoomplus.mouseover" end="zoomplus.mouseout"/>
                        </use>
                        <path d="M-4,0h8M0,-4v8" fill="none" stroke="white" stroke-width="1.5" pointer-events="none"/>
                </g>
                <g id="zoomMin">
                        <use xlink:href="#rim" fill="#404040">
                                <set attributeName="fill" to="#808080" begin="zoomminus.mouseover" end="zoomminus.mouseout"/>
                        </use>
                        <path d="M-4,0h8" fill="none" stroke="white" stroke-width="1.5" pointer-events="none"/>
                </g>
                <g id="dirArrow">
                        <path fill="none" stroke="white" stroke-width="1.5" d="M0,-3.0v7 M-2.5,-0.5L0,-3.0L2.5,-0.5"/>
                </g>
               <g id="resetDef">
                       <use xlink:href="#rim2" fill="#404040">
                               <set attributeName="fill" to="#808080" begin="reset.mouseover" end="reset.mouseout"/>
                       </use>
               </g>
        </defs>

<script type="text/javascript">
var viewWidth = 2767;
var viewHeight = 229;
var sectionId = 'dynsection-0';
</script>
<script xlink:href="svgpan.js"/>
<svg id="graph" class="graph">
<g id="viewport">
<title>traffic_pose_selector.cc</title>
<polygon fill="white" stroke="transparent" points="-4,4 -4,-225 2763,-225 2763,4 -4,4"/>
<!-- Node1 -->
<g id="node1" class="node">
<title>Node1</title>
<g id="a_node1"><a xlink:title=" ">
<polygon fill="#bfbfbf" stroke="black" points="1616.5,-201.5 1616.5,-220.5 1748.5,-220.5 1748.5,-201.5 1616.5,-201.5"/>
<text text-anchor="middle" x="1682.5" y="-208.5" font-family="Helvetica,sans-Serif" font-size="10.00">traffic_pose_selector.cc</text>
</a>
</g>
</g>
<!-- Node2 -->
<g id="node2" class="node">
<title>Node2</title>
<g id="a_node2"><a xlink:href="traffic__pose__selector_8h.html" target="_top" xlink:title=" ">
<polygon fill="white" stroke="black" points="779,-134.5 779,-164.5 898,-164.5 898,-134.5 779,-134.5"/>
<text text-anchor="start" x="787" y="-152.5" font-family="Helvetica,sans-Serif" font-size="10.00">systems/traffic_pose</text>
<text text-anchor="middle" x="838.5" y="-141.5" font-family="Helvetica,sans-Serif" font-size="10.00">_selector.h</text>
</a>
</g>
</g>
<!-- Node1&#45;&gt;Node2 -->
<g id="edge1" class="edge">
<title>Node1&#45;&gt;Node2</title>
<path fill="none" stroke="midnightblue" d="M1616.27,-205.33C1459.8,-194.3 1068.39,-166.71 908.36,-155.42"/>
<polygon fill="midnightblue" stroke="midnightblue" points="908.37,-151.92 898.15,-154.71 907.88,-158.9 908.37,-151.92"/>
</g>
<!-- Node4 -->
<g id="node4" class="node">
<title>Node4</title>
<g id="a_node4"><a xlink:title=" ">
<polygon fill="white" stroke="#bfbfbf" points="1168.5,-6 1168.5,-25 1226.5,-25 1226.5,-6 1168.5,-6"/>
<text text-anchor="middle" x="1197.5" y="-13" font-family="Helvetica,sans-Serif" font-size="10.00">memory</text>
</a>
</g>
</g>
<!-- Node1&#45;&gt;Node4 -->
<g id="edge21" class="edge">
<title>Node1&#45;&gt;Node4</title>
<path fill="none" stroke="midnightblue" d="M1616.15,-209.7C1524.04,-207.98 1363.67,-199.88 1318.5,-165 1281.4,-136.35 1309.66,-102.89 1279.5,-67 1265.71,-50.58 1245.15,-37.94 1228.08,-29.41"/>
<polygon fill="midnightblue" stroke="midnightblue" points="1229.54,-26.23 1219.01,-25.1 1226.54,-32.56 1229.54,-26.23"/>
</g>
<!-- Node5 -->
<g id="node5" class="node">
<title>Node5</title>
<g id="a_node5"><a xlink:title=" ">
<polygon fill="white" stroke="#bfbfbf" points="1226,-73 1226,-92 1271,-92 1271,-73 1226,-73"/>
<text text-anchor="middle" x="1248.5" y="-80" font-family="Helvetica,sans-Serif" font-size="10.00">utility</text>
</a>
</g>
</g>
<!-- Node1&#45;&gt;Node5 -->
<g id="edge23" class="edge">
<title>Node1&#45;&gt;Node5</title>
<path fill="none" stroke="midnightblue" d="M1616.18,-210.21C1517.15,-209.26 1336.76,-202.28 1285.5,-165 1265.01,-150.1 1255.62,-121.13 1251.49,-102.05"/>
<polygon fill="midnightblue" stroke="midnightblue" points="1254.91,-101.32 1249.63,-92.14 1248.03,-102.62 1254.91,-101.32"/>
</g>
<!-- Node16 -->
<g id="node16" class="node">
<title>Node16</title>
<g id="a_node16"><a xlink:title=" ">
<polygon fill="white" stroke="#bfbfbf" points="1327.5,-140 1327.5,-159 1391.5,-159 1391.5,-140 1327.5,-140"/>
<text text-anchor="middle" x="1359.5" y="-147" font-family="Helvetica,sans-Serif" font-size="10.00">algorithm</text>
</a>
</g>
</g>
<!-- Node1&#45;&gt;Node16 -->
<g id="edge19" class="edge">
<title>Node1&#45;&gt;Node16</title>
<path fill="none" stroke="midnightblue" d="M1616.28,-202.88C1558.69,-195.88 1473.29,-183.52 1400.5,-165 1397.45,-164.22 1394.31,-163.32 1391.19,-162.34"/>
<polygon fill="midnightblue" stroke="midnightblue" points="1392,-158.92 1381.4,-159.07 1389.78,-165.56 1392,-158.92"/>
</g>
<!-- Node17 -->
<g id="node17" class="node">
<title>Node17</title>
<g id="a_node17"><a xlink:title=" ">
<polygon fill="white" stroke="#bfbfbf" points="1409.5,-140 1409.5,-159 1453.5,-159 1453.5,-140 1409.5,-140"/>
<text text-anchor="middle" x="1431.5" y="-147" font-family="Helvetica,sans-Serif" font-size="10.00">limits</text>
</a>
</g>
</g>
<!-- Node1&#45;&gt;Node17 -->
<g id="edge20" class="edge">
<title>Node1&#45;&gt;Node17</title>
<path fill="none" stroke="midnightblue" d="M1621.27,-201.45C1576.56,-194.25 1514.87,-182.33 1462.5,-165 1460.83,-164.45 1459.14,-163.83 1457.44,-163.17"/>
<polygon fill="midnightblue" stroke="midnightblue" points="1458.51,-159.82 1447.94,-159.07 1455.73,-166.24 1458.51,-159.82"/>
</g>
<!-- Node18 -->
<g id="node18" class="node">
<title>Node18</title>
<g id="a_node18"><a xlink:title=" ">
<polygon fill="white" stroke="#bfbfbf" points="1471.5,-140 1471.5,-159 1527.5,-159 1527.5,-140 1471.5,-140"/>
<text text-anchor="middle" x="1499.5" y="-147" font-family="Helvetica,sans-Serif" font-size="10.00">optional</text>
</a>
</g>
</g>
<!-- Node1&#45;&gt;Node18 -->
<g id="edge22" class="edge">
<title>Node1&#45;&gt;Node18</title>
<path fill="none" stroke="midnightblue" d="M1653.16,-201.49C1623.74,-192.82 1577.24,-178.73 1537.5,-165 1535.25,-164.22 1532.93,-163.4 1530.6,-162.55"/>
<polygon fill="midnightblue" stroke="midnightblue" points="1531.71,-159.23 1521.12,-159.02 1529.27,-165.79 1531.71,-159.23"/>
</g>
<!-- Node19 -->
<g id="node19" class="node">
<title>Node19</title>
<g id="a_node19"><a xlink:title=" ">
<polygon fill="white" stroke="#bfbfbf" points="1546,-140 1546,-159 1593,-159 1593,-140 1546,-140"/>
<text text-anchor="middle" x="1569.5" y="-147" font-family="Helvetica,sans-Serif" font-size="10.00">vector</text>
</a>
</g>
</g>
<!-- Node1&#45;&gt;Node19 -->
<g id="edge24" class="edge">
<title>Node1&#45;&gt;Node19</title>
<path fill="none" stroke="midnightblue" d="M1666.31,-201.48C1647.6,-191.62 1616.58,-175.29 1594.7,-163.77"/>
<polygon fill="midnightblue" stroke="midnightblue" points="1596.14,-160.57 1585.66,-159.01 1592.88,-166.77 1596.14,-160.57"/>
</g>
<!-- Node20 -->
<g id="node20" class="node">
<title>Node20</title>
<g id="a_node20"><a xlink:title=" ">
<polygon fill="white" stroke="#bfbfbf" points="1611,-134.5 1611,-164.5 1754,-164.5 1754,-134.5 1611,-134.5"/>
<text text-anchor="start" x="1619" y="-152.5" font-family="Helvetica,sans-Serif" font-size="10.00">drake/common/autodiffxd</text>
<text text-anchor="middle" x="1682.5" y="-141.5" font-family="Helvetica,sans-Serif" font-size="10.00">_make_coherent.h</text>
</a>
</g>
</g>
<!-- Node1&#45;&gt;Node20 -->
<g id="edge25" class="edge">
<title>Node1&#45;&gt;Node20</title>
<path fill="none" stroke="midnightblue" d="M1682.5,-201.48C1682.5,-194.47 1682.5,-184.19 1682.5,-174.7"/>
<polygon fill="midnightblue" stroke="midnightblue" points="1686,-174.52 1682.5,-164.52 1679,-174.52 1686,-174.52"/>
</g>
<!-- Node21 -->
<g id="node21" class="node">
<title>Node21</title>
<g id="a_node21"><a xlink:href="../../maliput/html/default__scalars_8h.html.html" xlink:title=" ">
<polygon fill="white" stroke="black" points="1772,-134.5 1772,-164.5 1899,-164.5 1899,-134.5 1772,-134.5"/>
<text text-anchor="start" x="1780" y="-152.5" font-family="Helvetica,sans-Serif" font-size="10.00">drake/common/default</text>
<text text-anchor="middle" x="1835.5" y="-141.5" font-family="Helvetica,sans-Serif" font-size="10.00">_scalars.h</text>
</a>
</g>
</g>
<!-- Node1&#45;&gt;Node21 -->
<g id="edge26" class="edge">
<title>Node1&#45;&gt;Node21</title>
<path fill="none" stroke="midnightblue" d="M1704.42,-201.48C1726.6,-192.85 1761.54,-179.26 1789.77,-168.29"/>
<polygon fill="midnightblue" stroke="midnightblue" points="1791.39,-171.41 1799.44,-164.52 1788.85,-164.89 1791.39,-171.41"/>
</g>
<!-- Node22 -->
<g id="node22" class="node">
<title>Node22</title>
<g id="a_node22"><a xlink:href="../../maliput/html/drake__assert_8h.html.html" xlink:title=" ">
<polygon fill="white" stroke="black" points="1917,-134.5 1917,-164.5 2036,-164.5 2036,-134.5 1917,-134.5"/>
<text text-anchor="start" x="1925" y="-152.5" font-family="Helvetica,sans-Serif" font-size="10.00">drake/common/drake</text>
<text text-anchor="middle" x="1976.5" y="-141.5" font-family="Helvetica,sans-Serif" font-size="10.00">_assert.h</text>
</a>
</g>
</g>
<!-- Node1&#45;&gt;Node22 -->
<g id="edge27" class="edge">
<title>Node1&#45;&gt;Node22</title>
<path fill="none" stroke="midnightblue" d="M1726.28,-201.46C1769.7,-192.96 1838.4,-179.39 1906.73,-165.35"/>
<polygon fill="midnightblue" stroke="midnightblue" points="1907.72,-168.72 1916.81,-163.28 1906.31,-161.87 1907.72,-168.72"/>
</g>
<!-- Node23 -->
<g id="node23" class="node">
<title>Node23</title>
<g id="a_node23"><a xlink:href="../../maliput/html/extract__double_8h.html.html" xlink:title=" ">
<polygon fill="white" stroke="black" points="2054,-134.5 2054,-164.5 2181,-164.5 2181,-134.5 2054,-134.5"/>
<text text-anchor="start" x="2062" y="-152.5" font-family="Helvetica,sans-Serif" font-size="10.00">drake/common/extract</text>
<text text-anchor="middle" x="2117.5" y="-141.5" font-family="Helvetica,sans-Serif" font-size="10.00">_double.h</text>
</a>
</g>
</g>
<!-- Node1&#45;&gt;Node23 -->
<g id="edge28" class="edge">
<title>Node1&#45;&gt;Node23</title>
<path fill="none" stroke="midnightblue" d="M1748.62,-203.32C1819.33,-195.83 1934.97,-182.61 2043.78,-165.21"/>
<polygon fill="midnightblue" stroke="midnightblue" points="2044.63,-168.62 2053.94,-163.57 2043.51,-161.71 2044.63,-168.62"/>
</g>
<!-- Node24 -->
<g id="node24" class="node">
<title>Node24</title>
<g id="a_node24"><a xlink:title=" ">
<polygon fill="white" stroke="#bfbfbf" points="2199.5,-134.5 2199.5,-164.5 2307.5,-164.5 2307.5,-134.5 2199.5,-134.5"/>
<text text-anchor="start" x="2207.5" y="-152.5" font-family="Helvetica,sans-Serif" font-size="10.00">maliput/api/branch</text>
<text text-anchor="middle" x="2253.5" y="-141.5" font-family="Helvetica,sans-Serif" font-size="10.00">_point.h</text>
</a>
</g>
</g>
<!-- Node1&#45;&gt;Node24 -->
<g id="edge29" class="edge">
<title>Node1&#45;&gt;Node24</title>
<path fill="none" stroke="midnightblue" d="M1748.62,-207.06C1843.9,-202.17 2025.46,-190.46 2189.05,-165.09"/>
<polygon fill="midnightblue" stroke="midnightblue" points="2189.96,-168.49 2199.3,-163.47 2188.87,-161.57 2189.96,-168.49"/>
</g>
<!-- Node25 -->
<g id="node25" class="node">
<title>Node25</title>
<g id="a_node25"><a xlink:title=" ">
<polygon fill="white" stroke="#bfbfbf" points="2326,-140 2326,-159 2449,-159 2449,-140 2326,-140"/>
<text text-anchor="middle" x="2387.5" y="-147" font-family="Helvetica,sans-Serif" font-size="10.00">maliput/api/junction.h</text>
</a>
</g>
</g>
<!-- Node1&#45;&gt;Node25 -->
<g id="edge30" class="edge">
<title>Node1&#45;&gt;Node25</title>
<path fill="none" stroke="midnightblue" d="M1748.51,-208.15C1864.08,-204.29 2110.42,-193.23 2316.5,-165 2324.3,-163.93 2332.53,-162.52 2340.51,-160.99"/>
<polygon fill="midnightblue" stroke="midnightblue" points="2341.31,-164.4 2350.44,-159.02 2339.95,-157.54 2341.31,-164.4"/>
</g>
<!-- Node26 -->
<g id="node26" class="node">
<title>Node26</title>
<g id="a_node26"><a xlink:title=" ">
<polygon fill="white" stroke="#bfbfbf" points="2467,-140 2467,-159 2594,-159 2594,-140 2467,-140"/>
<text text-anchor="middle" x="2530.5" y="-147" font-family="Helvetica,sans-Serif" font-size="10.00">maliput/api/segment.h</text>
</a>
</g>
</g>
<!-- Node1&#45;&gt;Node26 -->
<g id="edge31" class="edge">
<title>Node1&#45;&gt;Node26</title>
<path fill="none" stroke="midnightblue" d="M1748.71,-209.3C1883.07,-207.18 2197.18,-198.72 2458.5,-165 2466.59,-163.96 2475.14,-162.53 2483.4,-160.97"/>
<polygon fill="midnightblue" stroke="midnightblue" points="2484.16,-164.39 2493.3,-159.03 2482.81,-157.52 2484.16,-164.39"/>
</g>
<!-- Node27 -->
<g id="node27" class="node">
<title>Node27</title>
<g id="a_node27"><a xlink:href="../../maliput/html/quaternion_8h.html.html" xlink:title=" ">
<polygon fill="white" stroke="black" points="2612,-140 2612,-159 2759,-159 2759,-140 2612,-140"/>
<text text-anchor="middle" x="2685.5" y="-147" font-family="Helvetica,sans-Serif" font-size="10.00">maliput/math/quaternion.h</text>
</a>
</g>
</g>
<!-- Node1&#45;&gt;Node27 -->
<g id="edge32" class="edge">
<title>Node1&#45;&gt;Node27</title>
<path fill="none" stroke="midnightblue" d="M1748.62,-209.63C1900.25,-208.15 2284.53,-200.85 2603.5,-165 2613.1,-163.92 2623.27,-162.42 2633.06,-160.79"/>
<polygon fill="midnightblue" stroke="midnightblue" points="2633.83,-164.2 2643.09,-159.05 2632.64,-157.31 2633.83,-164.2"/>
</g>
<!-- Node3 -->
<g id="node3" class="node">
<title>Node3</title>
<g id="a_node3"><a xlink:title=" ">
<polygon fill="white" stroke="#bfbfbf" points="1131.5,-73 1131.5,-92 1169.5,-92 1169.5,-73 1131.5,-73"/>
<text text-anchor="middle" x="1150.5" y="-80" font-family="Helvetica,sans-Serif" font-size="10.00">map</text>
</a>
</g>
</g>
<!-- Node2&#45;&gt;Node3 -->
<g id="edge2" class="edge">
<title>Node2&#45;&gt;Node3</title>
<path fill="none" stroke="midnightblue" d="M898.26,-142.87C956.39,-136.23 1046.65,-122.81 1121.5,-98 1123.12,-97.46 1124.76,-96.85 1126.39,-96.19"/>
<polygon fill="midnightblue" stroke="midnightblue" points="1127.86,-99.37 1135.5,-92.02 1124.95,-93 1127.86,-99.37"/>
</g>
<!-- Node2&#45;&gt;Node4 -->
<g id="edge3" class="edge">
<title>Node2&#45;&gt;Node4</title>
<path fill="none" stroke="midnightblue" d="M898.01,-147.48C984.42,-144.74 1138.68,-134.7 1178.5,-98 1195.66,-82.18 1198.77,-54.12 1198.7,-35.41"/>
<polygon fill="midnightblue" stroke="midnightblue" points="1202.19,-35.04 1198.34,-25.16 1195.19,-35.28 1202.19,-35.04"/>
</g>
<!-- Node2&#45;&gt;Node5 -->
<g id="edge4" class="edge">
<title>Node2&#45;&gt;Node5</title>
<path fill="none" stroke="midnightblue" d="M898.13,-144.83C972.49,-139.26 1103.03,-126.16 1211.5,-98 1214.16,-97.31 1216.89,-96.48 1219.61,-95.58"/>
<polygon fill="midnightblue" stroke="midnightblue" points="1221.01,-98.79 1229.2,-92.07 1218.61,-92.21 1221.01,-98.79"/>
</g>
<!-- Node6 -->
<g id="node6" class="node">
<title>Node6</title>
<g id="a_node6"><a xlink:title=" ">
<polygon fill="white" stroke="#bfbfbf" points="0,-73 0,-92 95,-92 95,-73 0,-73"/>
<text text-anchor="middle" x="47.5" y="-80" font-family="Helvetica,sans-Serif" font-size="10.00">Eigen/Geometry</text>
</a>
</g>
</g>
<!-- Node2&#45;&gt;Node6 -->
<g id="edge5" class="edge">
<title>Node2&#45;&gt;Node6</title>
<path fill="none" stroke="midnightblue" d="M778.53,-148.12C652.63,-146.5 351.9,-138.34 103.5,-98 97.92,-97.09 92.09,-95.89 86.39,-94.55"/>
<polygon fill="midnightblue" stroke="midnightblue" points="86.9,-91.07 76.35,-92.06 85.21,-97.87 86.9,-91.07"/>
</g>
<!-- Node7 -->
<g id="node7" class="node">
<title>Node7</title>
<g id="a_node7"><a xlink:href="../../maliput/html/drake__copyable_8h.html.html" xlink:title=" ">
<polygon fill="white" stroke="black" points="113,-67.5 113,-97.5 232,-97.5 232,-67.5 113,-67.5"/>
<text text-anchor="start" x="121" y="-85.5" font-family="Helvetica,sans-Serif" font-size="10.00">drake/common/drake</text>
<text text-anchor="middle" x="172.5" y="-74.5" font-family="Helvetica,sans-Serif" font-size="10.00">_copyable.h</text>
</a>
</g>
</g>
<!-- Node2&#45;&gt;Node7 -->
<g id="edge6" class="edge">
<title>Node2&#45;&gt;Node7</title>
<path fill="none" stroke="midnightblue" d="M778.8,-145.95C672.61,-140.87 443.85,-127.47 242.02,-98.11"/>
<polygon fill="midnightblue" stroke="midnightblue" points="242.53,-94.65 232.13,-96.66 241.51,-101.58 242.53,-94.65"/>
</g>
<!-- Node8 -->
<g id="node8" class="node">
<title>Node8</title>
<g id="a_node8"><a xlink:title=" ">
<polygon fill="white" stroke="#bfbfbf" points="250,-67.5 250,-97.5 387,-97.5 387,-67.5 250,-67.5"/>
<text text-anchor="start" x="258" y="-85.5" font-family="Helvetica,sans-Serif" font-size="10.00">drake/systems/rendering</text>
<text text-anchor="middle" x="318.5" y="-74.5" font-family="Helvetica,sans-Serif" font-size="10.00">/pose_bundle.h</text>
</a>
</g>
</g>
<!-- Node2&#45;&gt;Node8 -->
<g id="edge7" class="edge">
<title>Node2&#45;&gt;Node8</title>
<path fill="none" stroke="midnightblue" d="M778.85,-143.09C695.6,-135.23 539.65,-119.39 397.51,-98.24"/>
<polygon fill="midnightblue" stroke="midnightblue" points="397.71,-94.74 387.3,-96.71 396.67,-101.66 397.71,-94.74"/>
</g>
<!-- Node9 -->
<g id="node9" class="node">
<title>Node9</title>
<g id="a_node9"><a xlink:title=" ">
<polygon fill="white" stroke="#bfbfbf" points="405,-67.5 405,-97.5 542,-97.5 542,-67.5 405,-67.5"/>
<text text-anchor="start" x="413" y="-85.5" font-family="Helvetica,sans-Serif" font-size="10.00">drake/systems/rendering</text>
<text text-anchor="middle" x="473.5" y="-74.5" font-family="Helvetica,sans-Serif" font-size="10.00">/pose_vector.h</text>
</a>
</g>
</g>
<!-- Node2&#45;&gt;Node9 -->
<g id="edge8" class="edge">
<title>Node2&#45;&gt;Node9</title>
<path fill="none" stroke="midnightblue" d="M778.64,-137.84C716.89,-126.84 620.27,-109.64 552.33,-97.54"/>
<polygon fill="midnightblue" stroke="midnightblue" points="552.56,-94.03 542.11,-95.72 551.34,-100.92 552.56,-94.03"/>
</g>
<!-- Node10 -->
<g id="node10" class="node">
<title>Node10</title>
<g id="a_node10"><a xlink:title=" ">
<polygon fill="white" stroke="#bfbfbf" points="893,-6 893,-25 998,-25 998,-6 893,-6"/>
<text text-anchor="middle" x="945.5" y="-13" font-family="Helvetica,sans-Serif" font-size="10.00">maliput/api/lane.h</text>
</a>
</g>
</g>
<!-- Node2&#45;&gt;Node10 -->
<g id="edge9" class="edge">
<title>Node2&#45;&gt;Node10</title>
<path fill="none" stroke="midnightblue" d="M876.76,-134.47C894.03,-126.31 913.25,-114.36 925.5,-98 939.25,-79.63 943.65,-53.02 945,-35.25"/>
<polygon fill="midnightblue" stroke="midnightblue" points="948.51,-35.2 945.52,-25.04 941.52,-34.85 948.51,-35.2"/>
</g>
<!-- Node11 -->
<g id="node11" class="node">
<title>Node11</title>
<g id="a_node11"><a xlink:href="../../maliput/html/lane__data_8h.html.html" xlink:title=" ">
<polygon fill="white" stroke="black" points="504.5,-6 504.5,-25 636.5,-25 636.5,-6 504.5,-6"/>
<text text-anchor="middle" x="570.5" y="-13" font-family="Helvetica,sans-Serif" font-size="10.00">maliput/api/lane_data.h</text>
</a>
</g>
</g>
<!-- Node2&#45;&gt;Node11 -->
<g id="edge10" class="edge">
<title>Node2&#45;&gt;Node11</title>
<path fill="none" stroke="midnightblue" d="M778.72,-143.74C713.83,-137.33 615.92,-123.66 589.5,-98 572.76,-81.74 569.55,-53.79 569.48,-35.23"/>
<polygon fill="midnightblue" stroke="midnightblue" points="572.98,-35.16 569.75,-25.07 565.98,-34.97 572.98,-35.16"/>
</g>
<!-- Node12 -->
<g id="node12" class="node">
<title>Node12</title>
<g id="a_node12"><a xlink:title=" ">
<polygon fill="white" stroke="#bfbfbf" points="760,-73 760,-92 917,-92 917,-73 760,-73"/>
<text text-anchor="middle" x="838.5" y="-80" font-family="Helvetica,sans-Serif" font-size="10.00">maliput/api/road_geometry.h</text>
</a>
</g>
</g>
<!-- Node2&#45;&gt;Node12 -->
<g id="edge11" class="edge">
<title>Node2&#45;&gt;Node12</title>
<path fill="none" stroke="midnightblue" d="M838.5,-134.4C838.5,-125.06 838.5,-112.71 838.5,-102.52"/>
<polygon fill="midnightblue" stroke="midnightblue" points="842,-102.19 838.5,-92.19 835,-102.19 842,-102.19"/>
</g>
<!-- Node13 -->
<g id="node13" class="node">
<title>Node13</title>
<g id="a_node13"><a xlink:href="lane__direction_8h.html" target="_top" xlink:title=" ">
<polygon fill="white" stroke="black" points="974,-73 974,-92 1113,-92 1113,-73 974,-73"/>
<text text-anchor="middle" x="1043.5" y="-80" font-family="Helvetica,sans-Serif" font-size="10.00">systems/lane_direction.h</text>
</a>
</g>
</g>
<!-- Node2&#45;&gt;Node13 -->
<g id="edge12" class="edge">
<title>Node2&#45;&gt;Node13</title>
<path fill="none" stroke="midnightblue" d="M882.73,-134.48C919.8,-122.72 972.09,-106.14 1006.85,-95.12"/>
<polygon fill="midnightblue" stroke="midnightblue" points="1008.13,-98.39 1016.6,-92.03 1006.01,-91.71 1008.13,-98.39"/>
</g>
<!-- Node14 -->
<g id="node14" class="node">
<title>Node14</title>
<g id="a_node14"><a xlink:href="road__odometry_8h.html" target="_top" xlink:title=" ">
<polygon fill="white" stroke="black" points="599,-73 599,-92 742,-92 742,-73 599,-73"/>
<text text-anchor="middle" x="670.5" y="-80" font-family="Helvetica,sans-Serif" font-size="10.00">systems/road_odometry.h</text>
</a>
</g>
</g>
<!-- Node2&#45;&gt;Node14 -->
<g id="edge15" class="edge">
<title>Node2&#45;&gt;Node14</title>
<path fill="none" stroke="midnightblue" d="M802.05,-134.4C772.18,-122.84 730.35,-106.66 701.94,-95.66"/>
<polygon fill="midnightblue" stroke="midnightblue" points="703.08,-92.35 692.49,-92.01 700.55,-98.88 703.08,-92.35"/>
</g>
<!-- Node13&#45;&gt;Node4 -->
<g id="edge13" class="edge">
<title>Node13&#45;&gt;Node4</title>
<path fill="none" stroke="midnightblue" d="M1063.95,-72.87C1090.53,-61.65 1137.14,-41.98 1167.67,-29.09"/>
<polygon fill="midnightblue" stroke="midnightblue" points="1169.11,-32.28 1176.97,-25.17 1166.39,-25.83 1169.11,-32.28"/>
</g>
<!-- Node13&#45;&gt;Node10 -->
<g id="edge14" class="edge">
<title>Node13&#45;&gt;Node10</title>
<path fill="none" stroke="midnightblue" d="M1030.28,-72.73C1014.05,-61.96 986.28,-43.55 966.97,-30.74"/>
<polygon fill="midnightblue" stroke="midnightblue" points="968.78,-27.74 958.51,-25.13 964.91,-33.57 968.78,-27.74"/>
</g>
<!-- Node14&#45;&gt;Node10 -->
<g id="edge17" class="edge">
<title>Node14&#45;&gt;Node10</title>
<path fill="none" stroke="midnightblue" d="M706.73,-72.94C756.2,-61.24 844.89,-40.28 899.15,-27.46"/>
<polygon fill="midnightblue" stroke="midnightblue" points="900.26,-30.79 909.19,-25.08 898.65,-23.98 900.26,-30.79"/>
</g>
<!-- Node14&#45;&gt;Node11 -->
<g id="edge18" class="edge">
<title>Node14&#45;&gt;Node11</title>
<path fill="none" stroke="midnightblue" d="M657.01,-72.73C640.45,-61.96 612.12,-43.55 592.41,-30.74"/>
<polygon fill="midnightblue" stroke="midnightblue" points="594.06,-27.64 583.77,-25.13 590.25,-33.51 594.06,-27.64"/>
</g>
<!-- Node15 -->
<g id="node15" class="node">
<title>Node15</title>
<g id="a_node15"><a xlink:title=" ">
<polygon fill="white" stroke="#bfbfbf" points="655,-0.5 655,-30.5 792,-30.5 792,-0.5 655,-0.5"/>
<text text-anchor="start" x="663" y="-18.5" font-family="Helvetica,sans-Serif" font-size="10.00">drake/systems/rendering</text>
<text text-anchor="middle" x="723.5" y="-7.5" font-family="Helvetica,sans-Serif" font-size="10.00">/frame_velocity.h</text>
</a>
</g>
</g>
<!-- Node14&#45;&gt;Node15 -->
<g id="edge16" class="edge">
<title>Node14&#45;&gt;Node15</title>
<path fill="none" stroke="midnightblue" d="M677.65,-72.73C684.74,-64.03 695.9,-50.34 705.44,-38.65"/>
<polygon fill="midnightblue" stroke="midnightblue" points="708.41,-40.55 712.01,-30.59 702.98,-36.13 708.41,-40.55"/>
</g>
</g>
</svg>
        <g id="navigator" transform="translate(0 0)" fill="#404254">
                <rect fill="#f2f5e9" fill-opacity="0.5" stroke="#606060" stroke-width=".5" x="0" y="0" width="60" height="60"/>
                <use id="zoomplus" xlink:href="#zoomPlus" x="17" y="9" onmousedown="handleZoom(evt,'in')"/>
                <use id="zoomminus" xlink:href="#zoomMin" x="42" y="9" onmousedown="handleZoom(evt,'out')"/>
                <use id="reset" xlink:href="#resetDef" x="30" y="36" onmousedown="handleReset()"/>
                <g id="arrowUp" xlink:href="#dirArrow" transform="translate(30 24)" onmousedown="handlePan(0,-1)">
                  <use xlink:href="#rim" fill="#404040">
                        <set attributeName="fill" to="#808080" begin="arrowUp.mouseover" end="arrowUp.mouseout"/>
                  </use>
                  <path fill="none" stroke="white" stroke-width="1.5" d="M0,-3.0v7 M-2.5,-0.5L0,-3.0L2.5,-0.5"/>
                </g>
                <g id="arrowRight" xlink:href="#dirArrow" transform="rotate(90) translate(36 -43)" onmousedown="handlePan(1,0)">
                  <use xlink:href="#rim" fill="#404040">
                        <set attributeName="fill" to="#808080" begin="arrowRight.mouseover" end="arrowRight.mouseout"/>
                  </use>
                  <path fill="none" stroke="white" stroke-width="1.5" d="M0,-3.0v7 M-2.5,-0.5L0,-3.0L2.5,-0.5"/>
                </g>
                <g id="arrowDown" xlink:href="#dirArrow" transform="rotate(180) translate(-30 -48)" onmousedown="handlePan(0,1)">
                  <use xlink:href="#rim" fill="#404040">
                        <set attributeName="fill" to="#808080" begin="arrowDown.mouseover" end="arrowDown.mouseout"/>
                  </use>
                  <path fill="none" stroke="white" stroke-width="1.5" d="M0,-3.0v7 M-2.5,-0.5L0,-3.0L2.5,-0.5"/>
                </g>
                <g id="arrowLeft" xlink:href="#dirArrow" transform="rotate(270) translate(-36 17)" onmousedown="handlePan(-1,0)">
                  <use xlink:href="#rim" fill="#404040">
                        <set attributeName="fill" to="#808080" begin="arrowLeft.mouseover" end="arrowLeft.mouseout"/>
                  </use>
                  <path fill="none" stroke="white" stroke-width="1.5" d="M0,-3.0v7 M-2.5,-0.5L0,-3.0L2.5,-0.5"/>
                </g>
        </g>
        <svg viewBox="0 0 15 15" width="100%" height="30px" preserveAspectRatio="xMaxYMin meet">
         <g id="arrow_out" transform="scale(0.3 0.3)">
          <a xlink:href="traffic__pose__selector_8cc__incl_org.svg" target="_base">
           <rect id="button" ry="5" rx="5" y="6" x="6" height="38" width="38"
                fill="#f2f5e9" fill-opacity="0.5" stroke="#606060" stroke-width="1.0"/>
           <path id="arrow"
             d="M 11.500037,31.436501 C 11.940474,20.09759 22.043105,11.32322 32.158766,21.979434 L 37.068811,17.246167 C 37.068811,17.246167 37.088388,32 37.088388,32 L 22.160133,31.978069 C 22.160133,31.978069 26.997745,27.140456 26.997745,27.140456 C 18.528582,18.264221 13.291696,25.230495 11.500037,31.436501 z"
             style="fill:#404040;"/>
          </a>
         </g>
        </svg>
</svg>
