<?xml version="1.0" encoding="UTF-8" standalone="no"?>
<!DOCTYPE svg PUBLIC "-//W3C//DTD SVG 1.1//EN"
 "http://www.w3.org/Graphics/SVG/1.1/DTD/svg11.dtd">
<!-- Generated by graphviz version 2.43.0 (0)
 -->
<!-- Title: api_py.cc Pages: 1 -->
<!--zoomable 151 -->
<svg id="main" version="1.1" xmlns="http://www.w3.org/2000/svg" xmlns:xlink="http://www.w3.org/1999/xlink" xml:space="preserve" onload="init(evt)">
<style type="text/css"><![CDATA[
.edge:hover path { stroke: red; }
.edge:hover polygon { stroke: red; fill: red; }
]]></style>
<script type="text/javascript"><![CDATA[
var edges = document.getElementsByTagName('g');
if (edges && edges.length) {
  for (var i=0;i<edges.length;i++) {
    if (edges[i].id.substr(0,4)=='edge') {
      edges[i].setAttribute('class','edge');
    }
  }
}
]]></script>
        <defs>
                <circle id="rim" cx="0" cy="0" r="7"/>
                <circle id="rim2" cx="0" cy="0" r="3.5"/>
                <g id="zoomPlus">
                        <use xlink:href="#rim" fill="#404040">
                                <set attributeName="fill" to="#808080" begin="zoomplus.mouseover" end="zoomplus.mouseout"/>
                        </use>
                        <path d="M-4,0h8M0,-4v8" fill="none" stroke="white" stroke-width="1.5" pointer-events="none"/>
                </g>
                <g id="zoomMin">
                        <use xlink:href="#rim" fill="#404040">
                                <set attributeName="fill" to="#808080" begin="zoomminus.mouseover" end="zoomminus.mouseout"/>
                        </use>
                        <path d="M-4,0h8" fill="none" stroke="white" stroke-width="1.5" pointer-events="none"/>
                </g>
                <g id="dirArrow">
                        <path fill="none" stroke="white" stroke-width="1.5" d="M0,-3.0v7 M-2.5,-0.5L0,-3.0L2.5,-0.5"/>
                </g>
               <g id="resetDef">
                       <use xlink:href="#rim2" fill="#404040">
                               <set attributeName="fill" to="#808080" begin="reset.mouseover" end="reset.mouseout"/>
                       </use>
               </g>
        </defs>

<script type="text/javascript">
var viewWidth = 1896;
var viewHeight = 151;
var sectionId = 'dynsection-0';
</script>
<script xlink:href="svgpan.js"/>
<svg id="graph" class="graph">
<g id="viewport">
<title>api_py.cc</title>
<polygon fill="white" stroke="transparent" points="-4,4 -4,-147 1892,-147 1892,4 -4,4"/>
<!-- Node1 -->
<g id="node1" class="node">
<title>Node1</title>
<g id="a_node1"><a xlink:title=" ">
<polygon fill="#bfbfbf" stroke="black" points="973.5,-123.5 973.5,-142.5 1034.5,-142.5 1034.5,-123.5 973.5,-123.5"/>
<text text-anchor="middle" x="1004" y="-130.5" font-family="Helvetica,sans-Serif" font-size="10.00">api_py.cc</text>
</a>
</g>
</g>
<!-- Node2 -->
<g id="node2" class="node">
<title>Node2</title>
<g id="a_node2"><a xlink:title=" ">
<polygon fill="white" stroke="#bfbfbf" points="0,-56.5 0,-86.5 108,-86.5 108,-56.5 0,-56.5"/>
<text text-anchor="start" x="8" y="-74.5" font-family="Helvetica,sans-Serif" font-size="10.00">maliput/api/branch</text>
<text text-anchor="middle" x="54" y="-63.5" font-family="Helvetica,sans-Serif" font-size="10.00">_point.h</text>
</a>
</g>
</g>
<!-- Node1&#45;&gt;Node2 -->
<g id="edge1" class="edge">
<title>Node1&#45;&gt;Node2</title>
<path fill="none" stroke="midnightblue" d="M973.18,-132.39C860.17,-133.39 457.88,-133.39 118.21,-86.99"/>
<polygon fill="midnightblue" stroke="midnightblue" points="118.57,-83.51 108.18,-85.61 117.61,-90.44 118.57,-83.51"/>
</g>
<!-- Node3 -->
<g id="node3" class="node">
<title>Node3</title>
<g id="a_node3"><a xlink:title=" ">
<polygon fill="white" stroke="#bfbfbf" points="126,-62 126,-81 268,-81 268,-62 126,-62"/>
<text text-anchor="middle" x="197" y="-69" font-family="Helvetica,sans-Serif" font-size="10.00">maliput/api/intersection.h</text>
</a>
</g>
</g>
<!-- Node1&#45;&gt;Node3 -->
<g id="edge2" class="edge">
<title>Node1&#45;&gt;Node3</title>
<path fill="none" stroke="midnightblue" d="M973.45,-131.37C873.36,-129.02 546.32,-119.22 278,-87 268.73,-85.89 258.91,-84.4 249.43,-82.79"/>
<polygon fill="midnightblue" stroke="midnightblue" points="249.77,-79.3 239.32,-81.03 248.57,-86.2 249.77,-79.3"/>
</g>
<!-- Node4 -->
<g id="node4" class="node">
<title>Node4</title>
<g id="a_node4"><a xlink:title=" ">
<polygon fill="white" stroke="#bfbfbf" points="286.5,-62 286.5,-81 409.5,-81 409.5,-62 286.5,-62"/>
<text text-anchor="middle" x="348" y="-69" font-family="Helvetica,sans-Serif" font-size="10.00">maliput/api/junction.h</text>
</a>
</g>
</g>
<!-- Node1&#45;&gt;Node4 -->
<g id="edge3" class="edge">
<title>Node1&#45;&gt;Node4</title>
<path fill="none" stroke="midnightblue" d="M973.4,-130.99C886.33,-127.83 629.84,-116.52 419,-87 411.29,-85.92 403.16,-84.52 395.26,-83.01"/>
<polygon fill="midnightblue" stroke="midnightblue" points="395.92,-79.57 385.43,-81.05 394.56,-86.44 395.92,-79.57"/>
</g>
<!-- Node5 -->
<g id="node5" class="node">
<title>Node5</title>
<g id="a_node5"><a xlink:title=" ">
<polygon fill="white" stroke="#bfbfbf" points="427.5,-62 427.5,-81 532.5,-81 532.5,-62 427.5,-62"/>
<text text-anchor="middle" x="480" y="-69" font-family="Helvetica,sans-Serif" font-size="10.00">maliput/api/lane.h</text>
</a>
</g>
</g>
<!-- Node1&#45;&gt;Node5 -->
<g id="edge4" class="edge">
<title>Node1&#45;&gt;Node5</title>
<path fill="none" stroke="midnightblue" d="M973.27,-130.42C898.86,-126.29 703.22,-113.58 542,-87 535.77,-85.97 529.24,-84.68 522.85,-83.3"/>
<polygon fill="midnightblue" stroke="midnightblue" points="523.5,-79.86 512.98,-81.07 521.96,-86.69 523.5,-79.86"/>
</g>
<!-- Node6 -->
<g id="node6" class="node">
<title>Node6</title>
<g id="a_node6"><a xlink:href="../../maliput/html/lane__data_8h.html.html" xlink:title=" ">
<polygon fill="white" stroke="black" points="551,-62 551,-81 683,-81 683,-62 551,-62"/>
<text text-anchor="middle" x="617" y="-69" font-family="Helvetica,sans-Serif" font-size="10.00">maliput/api/lane_data.h</text>
</a>
</g>
</g>
<!-- Node1&#45;&gt;Node6 -->
<g id="edge5" class="edge">
<title>Node1&#45;&gt;Node6</title>
<path fill="none" stroke="midnightblue" d="M973.37,-128.08C917.37,-120.79 794.8,-104.34 692,-87 684.63,-85.76 676.88,-84.36 669.26,-82.94"/>
<polygon fill="midnightblue" stroke="midnightblue" points="669.85,-79.49 659.38,-81.06 668.55,-86.36 669.85,-79.49"/>
</g>
<!-- Node7 -->
<g id="node7" class="node">
<title>Node7</title>
<g id="a_node7"><a xlink:href="../../maliput/html/regions_8h.html.html" xlink:title=" ">
<polygon fill="white" stroke="black" points="701,-62 701,-81 821,-81 821,-62 701,-62"/>
<text text-anchor="middle" x="761" y="-69" font-family="Helvetica,sans-Serif" font-size="10.00">maliput/api/regions.h</text>
</a>
</g>
</g>
<!-- Node1&#45;&gt;Node7 -->
<g id="edge6" class="edge">
<title>Node1&#45;&gt;Node7</title>
<path fill="none" stroke="midnightblue" d="M973.22,-124.46C930.9,-114.1 854.44,-95.38 805.78,-83.46"/>
<polygon fill="midnightblue" stroke="midnightblue" points="806.38,-80.01 795.84,-81.03 804.72,-86.81 806.38,-80.01"/>
</g>
<!-- Node8 -->
<g id="node8" class="node">
<title>Node8</title>
<g id="a_node8"><a xlink:title=" ">
<polygon fill="white" stroke="#bfbfbf" points="839.5,-62 839.5,-81 996.5,-81 996.5,-62 839.5,-62"/>
<text text-anchor="middle" x="918" y="-69" font-family="Helvetica,sans-Serif" font-size="10.00">maliput/api/road_geometry.h</text>
</a>
</g>
</g>
<!-- Node1&#45;&gt;Node8 -->
<g id="edge7" class="edge">
<title>Node1&#45;&gt;Node8</title>
<path fill="none" stroke="midnightblue" d="M991.68,-123.48C977.88,-113.93 955.3,-98.31 938.77,-86.87"/>
<polygon fill="midnightblue" stroke="midnightblue" points="940.51,-83.82 930.3,-81.01 936.53,-89.58 940.51,-83.82"/>
</g>
<!-- Node9 -->
<g id="node9" class="node">
<title>Node9</title>
<g id="a_node9"><a xlink:href="../../maliput/html/road__network_8h.html.html" xlink:title=" ">
<polygon fill="white" stroke="black" points="1014.5,-62 1014.5,-81 1165.5,-81 1165.5,-62 1014.5,-62"/>
<text text-anchor="middle" x="1090" y="-69" font-family="Helvetica,sans-Serif" font-size="10.00">maliput/api/road_network.h</text>
</a>
</g>
</g>
<!-- Node1&#45;&gt;Node9 -->
<g id="edge8" class="edge">
<title>Node1&#45;&gt;Node9</title>
<path fill="none" stroke="midnightblue" d="M1016.32,-123.48C1030.12,-113.93 1052.7,-98.31 1069.23,-86.87"/>
<polygon fill="midnightblue" stroke="midnightblue" points="1071.47,-89.58 1077.7,-81.01 1067.49,-83.82 1071.47,-89.58"/>
</g>
<!-- Node10 -->
<g id="node10" class="node">
<title>Node10</title>
<g id="a_node10"><a xlink:title=" ">
<polygon fill="white" stroke="#bfbfbf" points="1183.5,-62 1183.5,-81 1310.5,-81 1310.5,-62 1183.5,-62"/>
<text text-anchor="middle" x="1247" y="-69" font-family="Helvetica,sans-Serif" font-size="10.00">maliput/api/segment.h</text>
</a>
</g>
</g>
<!-- Node1&#45;&gt;Node10 -->
<g id="edge9" class="edge">
<title>Node1&#45;&gt;Node10</title>
<path fill="none" stroke="midnightblue" d="M1034.78,-124.46C1077.1,-114.1 1153.56,-95.38 1202.22,-83.46"/>
<polygon fill="midnightblue" stroke="midnightblue" points="1203.28,-86.81 1212.16,-81.03 1201.62,-80.01 1203.28,-86.81"/>
</g>
<!-- Node11 -->
<g id="node11" class="node">
<title>Node11</title>
<g id="a_node11"><a xlink:href="../../maliput/html/unique__id_8h.html.html" xlink:title=" ">
<polygon fill="white" stroke="black" points="1328.5,-62 1328.5,-81 1459.5,-81 1459.5,-62 1328.5,-62"/>
<text text-anchor="middle" x="1394" y="-69" font-family="Helvetica,sans-Serif" font-size="10.00">maliput/api/unique_id.h</text>
</a>
</g>
</g>
<!-- Node1&#45;&gt;Node11 -->
<g id="edge10" class="edge">
<title>Node1&#45;&gt;Node11</title>
<path fill="none" stroke="midnightblue" d="M1034.59,-128.18C1091.1,-121.01 1215.64,-104.64 1320,-87 1327.36,-85.76 1335.11,-84.35 1342.72,-82.91"/>
<polygon fill="midnightblue" stroke="midnightblue" points="1343.42,-86.34 1352.58,-81.01 1342.1,-79.46 1343.42,-86.34"/>
</g>
<!-- Node12 -->
<g id="node12" class="node">
<title>Node12</title>
<g id="a_node12"><a xlink:title=" ">
<polygon fill="white" stroke="#bfbfbf" points="1478,-62 1478,-81 1598,-81 1598,-62 1478,-62"/>
<text text-anchor="middle" x="1538" y="-69" font-family="Helvetica,sans-Serif" font-size="10.00">pybind11/operators.h</text>
</a>
</g>
</g>
<!-- Node1&#45;&gt;Node12 -->
<g id="edge11" class="edge">
<title>Node1&#45;&gt;Node12</title>
<path fill="none" stroke="midnightblue" d="M1034.61,-130.21C1109.22,-125.61 1306.25,-111.9 1469,-87 1476.24,-85.89 1483.86,-84.51 1491.29,-83.04"/>
<polygon fill="midnightblue" stroke="midnightblue" points="1492.16,-86.44 1501.25,-81.01 1490.76,-79.58 1492.16,-86.44"/>
</g>
<!-- Node13 -->
<g id="node13" class="node">
<title>Node13</title>
<g id="a_node13"><a xlink:title=" ">
<polygon fill="white" stroke="#bfbfbf" points="1664.5,-0.5 1664.5,-19.5 1783.5,-19.5 1783.5,-0.5 1664.5,-0.5"/>
<text text-anchor="middle" x="1724" y="-7.5" font-family="Helvetica,sans-Serif" font-size="10.00">pybind11/pybind11.h</text>
</a>
</g>
</g>
<!-- Node1&#45;&gt;Node13 -->
<g id="edge12" class="edge">
<title>Node1&#45;&gt;Node13</title>
<path fill="none" stroke="midnightblue" d="M1034.73,-132.12C1142.32,-132.18 1501.32,-129.14 1607,-87 1627.25,-78.93 1627.02,-68.33 1645,-56 1662.03,-44.32 1682.29,-32.82 1698.03,-24.38"/>
<polygon fill="midnightblue" stroke="midnightblue" points="1699.97,-27.31 1707.18,-19.53 1696.7,-21.12 1699.97,-27.31"/>
</g>
<!-- Node14 -->
<g id="node14" class="node">
<title>Node14</title>
<g id="a_node14"><a xlink:title=" ">
<polygon fill="white" stroke="#bfbfbf" points="1654,-62 1654,-81 1740,-81 1740,-62 1654,-62"/>
<text text-anchor="middle" x="1697" y="-69" font-family="Helvetica,sans-Serif" font-size="10.00">pybind11/stl.h</text>
</a>
</g>
</g>
<!-- Node1&#45;&gt;Node14 -->
<g id="edge13" class="edge">
<title>Node1&#45;&gt;Node14</title>
<path fill="none" stroke="midnightblue" d="M1034.67,-131.76C1126.88,-130.64 1409.42,-124.18 1640,-87 1645.81,-86.06 1651.9,-84.81 1657.84,-83.44"/>
<polygon fill="midnightblue" stroke="midnightblue" points="1658.75,-86.82 1667.63,-81.04 1657.08,-80.02 1658.75,-86.82"/>
</g>
<!-- Node15 -->
<g id="node15" class="node">
<title>Node15</title>
<g id="a_node15"><a xlink:href="api__rules__py_8h.html" target="_top" xlink:title=" ">
<polygon fill="white" stroke="black" points="1758,-62 1758,-81 1888,-81 1888,-62 1758,-62"/>
<text text-anchor="middle" x="1823" y="-69" font-family="Helvetica,sans-Serif" font-size="10.00">bindings/api_rules_py.h</text>
</a>
</g>
</g>
<!-- Node1&#45;&gt;Node15 -->
<g id="edge14" class="edge">
<title>Node1&#45;&gt;Node15</title>
<path fill="none" stroke="midnightblue" d="M1034.65,-131.61C1136.58,-130 1473.29,-122.18 1749,-87 1757.4,-85.93 1766.28,-84.47 1774.86,-82.89"/>
<polygon fill="midnightblue" stroke="midnightblue" points="1775.59,-86.32 1784.75,-81 1774.27,-79.44 1775.59,-86.32"/>
</g>
<!-- Node15&#45;&gt;Node13 -->
<g id="edge15" class="edge">
<title>Node15&#45;&gt;Node13</title>
<path fill="none" stroke="midnightblue" d="M1808.82,-61.98C1792.64,-52.25 1765.97,-36.23 1746.86,-24.74"/>
<polygon fill="midnightblue" stroke="midnightblue" points="1748.53,-21.66 1738.16,-19.51 1744.93,-27.66 1748.53,-21.66"/>
</g>
</g>
</svg>
        <g id="navigator" transform="translate(0 0)" fill="#404254">
                <rect fill="#f2f5e9" fill-opacity="0.5" stroke="#606060" stroke-width=".5" x="0" y="0" width="60" height="60"/>
                <use id="zoomplus" xlink:href="#zoomPlus" x="17" y="9" onmousedown="handleZoom(evt,'in')"/>
                <use id="zoomminus" xlink:href="#zoomMin" x="42" y="9" onmousedown="handleZoom(evt,'out')"/>
                <use id="reset" xlink:href="#resetDef" x="30" y="36" onmousedown="handleReset()"/>
                <g id="arrowUp" xlink:href="#dirArrow" transform="translate(30 24)" onmousedown="handlePan(0,-1)">
                  <use xlink:href="#rim" fill="#404040">
                        <set attributeName="fill" to="#808080" begin="arrowUp.mouseover" end="arrowUp.mouseout"/>
                  </use>
                  <path fill="none" stroke="white" stroke-width="1.5" d="M0,-3.0v7 M-2.5,-0.5L0,-3.0L2.5,-0.5"/>
                </g>
                <g id="arrowRight" xlink:href="#dirArrow" transform="rotate(90) translate(36 -43)" onmousedown="handlePan(1,0)">
                  <use xlink:href="#rim" fill="#404040">
                        <set attributeName="fill" to="#808080" begin="arrowRight.mouseover" end="arrowRight.mouseout"/>
                  </use>
                  <path fill="none" stroke="white" stroke-width="1.5" d="M0,-3.0v7 M-2.5,-0.5L0,-3.0L2.5,-0.5"/>
                </g>
                <g id="arrowDown" xlink:href="#dirArrow" transform="rotate(180) translate(-30 -48)" onmousedown="handlePan(0,1)">
                  <use xlink:href="#rim" fill="#404040">
                        <set attributeName="fill" to="#808080" begin="arrowDown.mouseover" end="arrowDown.mouseout"/>
                  </use>
                  <path fill="none" stroke="white" stroke-width="1.5" d="M0,-3.0v7 M-2.5,-0.5L0,-3.0L2.5,-0.5"/>
                </g>
                <g id="arrowLeft" xlink:href="#dirArrow" transform="rotate(270) translate(-36 17)" onmousedown="handlePan(-1,0)">
                  <use xlink:href="#rim" fill="#404040">
                        <set attributeName="fill" to="#808080" begin="arrowLeft.mouseover" end="arrowLeft.mouseout"/>
                  </use>
                  <path fill="none" stroke="white" stroke-width="1.5" d="M0,-3.0v7 M-2.5,-0.5L0,-3.0L2.5,-0.5"/>
                </g>
        </g>
        <svg viewBox="0 0 15 15" width="100%" height="30px" preserveAspectRatio="xMaxYMin meet">
         <g id="arrow_out" transform="scale(0.3 0.3)">
          <a xlink:href="api__py_8cc__incl_org.svg" target="_base">
           <rect id="button" ry="5" rx="5" y="6" x="6" height="38" width="38"
                fill="#f2f5e9" fill-opacity="0.5" stroke="#606060" stroke-width="1.0"/>
           <path id="arrow"
             d="M 11.500037,31.436501 C 11.940474,20.09759 22.043105,11.32322 32.158766,21.979434 L 37.068811,17.246167 C 37.068811,17.246167 37.088388,32 37.088388,32 L 22.160133,31.978069 C 22.160133,31.978069 26.997745,27.140456 26.997745,27.140456 C 18.528582,18.264221 13.291696,25.230495 11.500037,31.436501 z"
             style="fill:#404040;"/>
          </a>
         </g>
        </svg>
</svg>
