<?xml version="1.0" encoding="UTF-8" standalone="no"?>
<!DOCTYPE svg PUBLIC "-//W3C//DTD SVG 1.1//EN"
 "http://www.w3.org/Graphics/SVG/1.1/DTD/svg11.dtd">
<!-- Generated by graphviz version 2.43.0 (0)
 -->
<!-- Title: selector.cc Pages: 1 -->
<svg width="1530pt" height="162pt"
 viewBox="0.00 0.00 1529.50 162.00" xmlns="http://www.w3.org/2000/svg" xmlns:xlink="http://www.w3.org/1999/xlink">
<g id="graph0" class="graph" transform="scale(1 1) rotate(0) translate(4 158)">
<title>selector.cc</title>
<polygon fill="white" stroke="transparent" points="-4,4 -4,-158 1525.5,-158 1525.5,4 -4,4"/>
<!-- Node1 -->
<g id="node1" class="node">
<title>Node1</title>
<g id="a_node1"><a xlink:title=" ">
<polygon fill="#bfbfbf" stroke="black" points="713,-134.5 713,-153.5 782,-153.5 782,-134.5 713,-134.5"/>
<text text-anchor="middle" x="747.5" y="-141.5" font-family="Helvetica,sans-Serif" font-size="10.00">selector.cc</text>
</a>
</g>
</g>
<!-- Node2 -->
<g id="node2" class="node">
<title>Node2</title>
<g id="a_node2"><a xlink:href="selector_8hh.html" target="_top" xlink:title=" ">
<polygon fill="white" stroke="black" points="325,-73 325,-92 396,-92 396,-73 325,-73"/>
<text text-anchor="middle" x="360.5" y="-80" font-family="Helvetica,sans-Serif" font-size="10.00">selector.hh</text>
</a>
</g>
</g>
<!-- Node1&#45;&gt;Node2 -->
<g id="edge1" class="edge">
<title>Node1&#45;&gt;Node2</title>
<path fill="none" stroke="midnightblue" d="M712.93,-139.15C653.66,-132.35 528.93,-117.07 424.5,-98 418.32,-96.87 411.84,-95.56 405.46,-94.19"/>
<polygon fill="midnightblue" stroke="midnightblue" points="406.12,-90.75 395.6,-92.01 404.61,-97.59 406.12,-90.75"/>
</g>
<!-- Node4 -->
<g id="node4" class="node">
<title>Node4</title>
<g id="a_node4"><a xlink:title=" ">
<polygon fill="white" stroke="#bfbfbf" points="0,-6 0,-25 137,-25 137,-6 0,-6"/>
<text text-anchor="middle" x="68.5" y="-13" font-family="Helvetica,sans-Serif" font-size="10.00">ignition/math/Vector3.hh</text>
</a>
</g>
</g>
<!-- Node1&#45;&gt;Node4 -->
<g id="edge10" class="edge">
<title>Node1&#45;&gt;Node4</title>
<path fill="none" stroke="midnightblue" d="M712.95,-141.92C639.17,-139.06 461.12,-129.23 315.5,-98 235.29,-80.8 144.53,-46.97 98.59,-28.77"/>
<polygon fill="midnightblue" stroke="midnightblue" points="99.81,-25.49 89.22,-25.03 97.21,-31.99 99.81,-25.49"/>
</g>
<!-- Node5 -->
<g id="node5" class="node">
<title>Node5</title>
<g id="a_node5"><a xlink:title=" ">
<polygon fill="white" stroke="#bfbfbf" points="395,-0.5 395,-30.5 498,-30.5 498,-0.5 395,-0.5"/>
<text text-anchor="start" x="403" y="-18.5" font-family="Helvetica,sans-Serif" font-size="10.00">ignition/rendering</text>
<text text-anchor="middle" x="446.5" y="-7.5" font-family="Helvetica,sans-Serif" font-size="10.00">/Scene.hh</text>
</a>
</g>
</g>
<!-- Node1&#45;&gt;Node5 -->
<g id="edge13" class="edge">
<title>Node1&#45;&gt;Node5</title>
<path fill="none" stroke="midnightblue" d="M712.7,-140.94C649.87,-136.61 520.75,-124.65 485.5,-98 467,-84.02 456.87,-59.01 451.6,-40.37"/>
<polygon fill="midnightblue" stroke="midnightblue" points="454.95,-39.35 449.09,-30.53 448.17,-41.08 454.95,-39.35"/>
</g>
<!-- Node6 -->
<g id="node6" class="node">
<title>Node6</title>
<g id="a_node6"><a xlink:title=" ">
<polygon fill="white" stroke="#bfbfbf" points="516,-6 516,-25 621,-25 621,-6 516,-6"/>
<text text-anchor="middle" x="568.5" y="-13" font-family="Helvetica,sans-Serif" font-size="10.00">maliput/api/lane.h</text>
</a>
</g>
</g>
<!-- Node1&#45;&gt;Node6 -->
<g id="edge14" class="edge">
<title>Node1&#45;&gt;Node6</title>
<path fill="none" stroke="midnightblue" d="M712.77,-142.08C650.28,-139.62 522.82,-130.63 495.5,-98 474.92,-73.42 513.19,-45.84 541.66,-29.89"/>
<polygon fill="midnightblue" stroke="midnightblue" points="543.34,-32.96 550.48,-25.13 540.02,-26.8 543.34,-32.96"/>
</g>
<!-- Node8 -->
<g id="node8" class="node">
<title>Node8</title>
<g id="a_node8"><a xlink:title=" ">
<polygon fill="white" stroke="#bfbfbf" points="504.5,-73 504.5,-92 660.5,-92 660.5,-73 504.5,-73"/>
<text text-anchor="middle" x="582.5" y="-80" font-family="Helvetica,sans-Serif" font-size="10.00">ignition/common/Console.hh</text>
</a>
</g>
</g>
<!-- Node1&#45;&gt;Node8 -->
<g id="edge7" class="edge">
<title>Node1&#45;&gt;Node8</title>
<path fill="none" stroke="midnightblue" d="M723.86,-134.48C695.56,-124.27 647.97,-107.11 615.91,-95.55"/>
<polygon fill="midnightblue" stroke="midnightblue" points="616.69,-92.11 606.1,-92.01 614.32,-98.69 616.69,-92.11"/>
</g>
<!-- Node9 -->
<g id="node9" class="node">
<title>Node9</title>
<g id="a_node9"><a xlink:title=" ">
<polygon fill="white" stroke="#bfbfbf" points="679,-73 679,-92 816,-92 816,-73 679,-73"/>
<text text-anchor="middle" x="747.5" y="-80" font-family="Helvetica,sans-Serif" font-size="10.00">ignition/math/Helpers.hh</text>
</a>
</g>
</g>
<!-- Node1&#45;&gt;Node9 -->
<g id="edge8" class="edge">
<title>Node1&#45;&gt;Node9</title>
<path fill="none" stroke="midnightblue" d="M747.5,-134.48C747.5,-126.08 747.5,-112.98 747.5,-102.16"/>
<polygon fill="midnightblue" stroke="midnightblue" points="751,-102.01 747.5,-92.01 744,-102.01 751,-102.01"/>
</g>
<!-- Node10 -->
<g id="node10" class="node">
<title>Node10</title>
<g id="a_node10"><a xlink:title=" ">
<polygon fill="white" stroke="#bfbfbf" points="834,-73 834,-92 971,-92 971,-73 834,-73"/>
<text text-anchor="middle" x="902.5" y="-80" font-family="Helvetica,sans-Serif" font-size="10.00">ignition/math/Matrix4.hh</text>
</a>
</g>
</g>
<!-- Node1&#45;&gt;Node10 -->
<g id="edge9" class="edge">
<title>Node1&#45;&gt;Node10</title>
<path fill="none" stroke="midnightblue" d="M769.71,-134.48C796.18,-124.31 840.61,-107.26 870.72,-95.7"/>
<polygon fill="midnightblue" stroke="midnightblue" points="872.25,-98.86 880.33,-92.01 869.74,-92.33 872.25,-98.86"/>
</g>
<!-- Node11 -->
<g id="node11" class="node">
<title>Node11</title>
<g id="a_node11"><a xlink:title=" ">
<polygon fill="white" stroke="#bfbfbf" points="989,-67.5 989,-97.5 1092,-97.5 1092,-67.5 989,-67.5"/>
<text text-anchor="start" x="997" y="-85.5" font-family="Helvetica,sans-Serif" font-size="10.00">ignition/rendering</text>
<text text-anchor="middle" x="1040.5" y="-74.5" font-family="Helvetica,sans-Serif" font-size="10.00">/Material.hh</text>
</a>
</g>
</g>
<!-- Node1&#45;&gt;Node11 -->
<g id="edge11" class="edge">
<title>Node1&#45;&gt;Node11</title>
<path fill="none" stroke="midnightblue" d="M782.34,-136.79C826.02,-128.89 903.43,-114.52 978.7,-98.34"/>
<polygon fill="midnightblue" stroke="midnightblue" points="979.79,-101.69 988.82,-96.15 978.31,-94.84 979.79,-101.69"/>
</g>
<!-- Node12 -->
<g id="node12" class="node">
<title>Node12</title>
<g id="a_node12"><a xlink:title=" ">
<polygon fill="white" stroke="#bfbfbf" points="1110,-67.5 1110,-97.5 1213,-97.5 1213,-67.5 1110,-67.5"/>
<text text-anchor="start" x="1118" y="-85.5" font-family="Helvetica,sans-Serif" font-size="10.00">ignition/rendering</text>
<text text-anchor="middle" x="1161.5" y="-74.5" font-family="Helvetica,sans-Serif" font-size="10.00">/Mesh.hh</text>
</a>
</g>
</g>
<!-- Node1&#45;&gt;Node12 -->
<g id="edge12" class="edge">
<title>Node1&#45;&gt;Node12</title>
<path fill="none" stroke="midnightblue" d="M782.12,-139.88C844.03,-134.03 977.97,-120.12 1099.98,-98.16"/>
<polygon fill="midnightblue" stroke="midnightblue" points="1100.66,-101.6 1109.87,-96.36 1099.4,-94.71 1100.66,-101.6"/>
</g>
<!-- Node13 -->
<g id="node13" class="node">
<title>Node13</title>
<g id="a_node13"><a xlink:title=" ">
<polygon fill="white" stroke="#bfbfbf" points="1231.5,-73 1231.5,-92 1363.5,-92 1363.5,-73 1231.5,-73"/>
<text text-anchor="middle" x="1297.5" y="-80" font-family="Helvetica,sans-Serif" font-size="10.00">maliput/api/lane_data.h</text>
</a>
</g>
</g>
<!-- Node1&#45;&gt;Node13 -->
<g id="edge15" class="edge">
<title>Node1&#45;&gt;Node13</title>
<path fill="none" stroke="midnightblue" d="M782.2,-140.86C860.84,-135.77 1058.52,-121.56 1222.5,-98 1230.53,-96.85 1239,-95.42 1247.24,-93.91"/>
<polygon fill="midnightblue" stroke="midnightblue" points="1247.96,-97.34 1257.14,-92.04 1246.67,-90.46 1247.96,-97.34"/>
</g>
<!-- Node14 -->
<g id="node14" class="node">
<title>Node14</title>
<g id="a_node14"><a xlink:title=" ">
<polygon fill="white" stroke="#bfbfbf" points="1381.5,-67.5 1381.5,-97.5 1521.5,-97.5 1521.5,-67.5 1381.5,-67.5"/>
<text text-anchor="start" x="1389.5" y="-85.5" font-family="Helvetica,sans-Serif" font-size="10.00">maliput/common/maliput</text>
<text text-anchor="middle" x="1451.5" y="-74.5" font-family="Helvetica,sans-Serif" font-size="10.00">_throw.h</text>
</a>
</g>
</g>
<!-- Node1&#45;&gt;Node14 -->
<g id="edge16" class="edge">
<title>Node1&#45;&gt;Node14</title>
<path fill="none" stroke="midnightblue" d="M782.19,-141.84C875.65,-138.42 1140.66,-126.87 1371.1,-98.08"/>
<polygon fill="midnightblue" stroke="midnightblue" points="1371.87,-101.51 1381.35,-96.79 1370.99,-94.57 1371.87,-101.51"/>
</g>
<!-- Node3 -->
<g id="node3" class="node">
<title>Node3</title>
<g id="a_node3"><a xlink:title=" ">
<polygon fill="white" stroke="#bfbfbf" points="330,-6 330,-25 377,-25 377,-6 330,-6"/>
<text text-anchor="middle" x="353.5" y="-13" font-family="Helvetica,sans-Serif" font-size="10.00">vector</text>
</a>
</g>
</g>
<!-- Node2&#45;&gt;Node3 -->
<g id="edge2" class="edge">
<title>Node2&#45;&gt;Node3</title>
<path fill="none" stroke="midnightblue" d="M359.56,-72.73C358.53,-63.18 356.85,-47.62 355.52,-35.28"/>
<polygon fill="midnightblue" stroke="midnightblue" points="358.98,-34.7 354.43,-25.13 352.02,-35.44 358.98,-34.7"/>
</g>
<!-- Node2&#45;&gt;Node4 -->
<g id="edge3" class="edge">
<title>Node2&#45;&gt;Node4</title>
<path fill="none" stroke="midnightblue" d="M324.99,-73.59C272.83,-61.98 175.38,-40.29 116.77,-27.25"/>
<polygon fill="midnightblue" stroke="midnightblue" points="117.53,-23.83 107.01,-25.07 116.01,-30.66 117.53,-23.83"/>
</g>
<!-- Node2&#45;&gt;Node5 -->
<g id="edge4" class="edge">
<title>Node2&#45;&gt;Node5</title>
<path fill="none" stroke="midnightblue" d="M372.1,-72.73C384.28,-63.53 403.85,-48.73 419.87,-36.63"/>
<polygon fill="midnightblue" stroke="midnightblue" points="421.99,-39.41 427.86,-30.59 417.77,-33.83 421.99,-39.41"/>
</g>
<!-- Node2&#45;&gt;Node6 -->
<g id="edge5" class="edge">
<title>Node2&#45;&gt;Node6</title>
<path fill="none" stroke="midnightblue" d="M388.12,-72.87C424.98,-61.35 490.35,-40.92 531.45,-28.08"/>
<polygon fill="midnightblue" stroke="midnightblue" points="532.6,-31.39 541.1,-25.06 530.51,-24.71 532.6,-31.39"/>
</g>
<!-- Node7 -->
<g id="node7" class="node">
<title>Node7</title>
<g id="a_node7"><a xlink:title=" ">
<polygon fill="white" stroke="#bfbfbf" points="155,-6 155,-25 312,-25 312,-6 155,-6"/>
<text text-anchor="middle" x="233.5" y="-13" font-family="Helvetica,sans-Serif" font-size="10.00">maliput/api/road_geometry.h</text>
</a>
</g>
</g>
<!-- Node2&#45;&gt;Node7 -->
<g id="edge6" class="edge">
<title>Node2&#45;&gt;Node7</title>
<path fill="none" stroke="midnightblue" d="M343.64,-72.87C322.1,-61.84 284.6,-42.66 259.42,-29.77"/>
<polygon fill="midnightblue" stroke="midnightblue" points="260.93,-26.61 250.43,-25.17 257.74,-32.84 260.93,-26.61"/>
</g>
</g>
</svg>
