<?xml version="1.0" encoding="UTF-8" standalone="no"?>
<!DOCTYPE svg PUBLIC "-//W3C//DTD SVG 1.1//EN"
 "http://www.w3.org/Graphics/SVG/1.1/DTD/svg11.dtd">
<!-- Generated by graphviz version 2.43.0 (0)
 -->
<!-- Title: teleop_plugin.h Pages: 1 -->
<svg width="466pt" height="84pt"
 viewBox="0.00 0.00 465.50 84.00" xmlns="http://www.w3.org/2000/svg" xmlns:xlink="http://www.w3.org/1999/xlink">
<g id="graph0" class="graph" transform="scale(1 1) rotate(0) translate(4 80)">
<title>teleop_plugin.h</title>
<polygon fill="white" stroke="transparent" points="-4,4 -4,-80 461.5,-80 461.5,4 -4,4"/>
<!-- Node1 -->
<g id="node1" class="node">
<title>Node1</title>
<g id="a_node1"><a xlink:title=" ">
<polygon fill="#bfbfbf" stroke="black" points="117.5,-56.5 117.5,-75.5 209.5,-75.5 209.5,-56.5 117.5,-56.5"/>
<text text-anchor="middle" x="163.5" y="-63.5" font-family="Helvetica,sans-Serif" font-size="10.00">teleop_plugin.h</text>
</a>
</g>
</g>
<!-- Node2 -->
<g id="node2" class="node">
<title>Node2</title>
<g id="a_node2"><a xlink:title=" ">
<polygon fill="white" stroke="#bfbfbf" points="0,-0.5 0,-19.5 47,-19.5 47,-0.5 0,-0.5"/>
<text text-anchor="middle" x="23.5" y="-7.5" font-family="Helvetica,sans-Serif" font-size="10.00">cmath</text>
</a>
</g>
</g>
<!-- Node1&#45;&gt;Node2 -->
<g id="edge1" class="edge">
<title>Node1&#45;&gt;Node2</title>
<path fill="none" stroke="midnightblue" d="M141.32,-56.44C118.07,-47.48 81.35,-33.31 55.08,-23.18"/>
<polygon fill="midnightblue" stroke="midnightblue" points="56.17,-19.85 45.58,-19.52 53.65,-26.38 56.17,-19.85"/>
</g>
<!-- Node3 -->
<g id="node3" class="node">
<title>Node3</title>
<g id="a_node3"><a xlink:title=" ">
<polygon fill="white" stroke="#bfbfbf" points="65.5,-0.5 65.5,-19.5 123.5,-19.5 123.5,-0.5 65.5,-0.5"/>
<text text-anchor="middle" x="94.5" y="-7.5" font-family="Helvetica,sans-Serif" font-size="10.00">memory</text>
</a>
</g>
</g>
<!-- Node1&#45;&gt;Node3 -->
<g id="edge2" class="edge">
<title>Node1&#45;&gt;Node3</title>
<path fill="none" stroke="midnightblue" d="M152.41,-56.32C142.01,-48.18 126.24,-35.84 113.78,-26.09"/>
<polygon fill="midnightblue" stroke="midnightblue" points="115.82,-23.24 105.79,-19.83 111.51,-28.75 115.82,-23.24"/>
</g>
<!-- Node4 -->
<g id="node4" class="node">
<title>Node4</title>
<g id="a_node4"><a xlink:title=" ">
<polygon fill="white" stroke="#bfbfbf" points="141.5,-0.5 141.5,-19.5 185.5,-19.5 185.5,-0.5 141.5,-0.5"/>
<text text-anchor="middle" x="163.5" y="-7.5" font-family="Helvetica,sans-Serif" font-size="10.00">string</text>
</a>
</g>
</g>
<!-- Node1&#45;&gt;Node4 -->
<g id="edge3" class="edge">
<title>Node1&#45;&gt;Node4</title>
<path fill="none" stroke="midnightblue" d="M163.5,-56.08C163.5,-49.01 163.5,-38.86 163.5,-29.99"/>
<polygon fill="midnightblue" stroke="midnightblue" points="167,-29.75 163.5,-19.75 160,-29.75 167,-29.75"/>
</g>
<!-- Node5 -->
<g id="node5" class="node">
<title>Node5</title>
<g id="a_node5"><a xlink:title=" ">
<polygon fill="white" stroke="#bfbfbf" points="204,-0.5 204,-19.5 323,-19.5 323,-0.5 204,-0.5"/>
<text text-anchor="middle" x="263.5" y="-7.5" font-family="Helvetica,sans-Serif" font-size="10.00">ignition/gui/Plugin.hh</text>
</a>
</g>
</g>
<!-- Node1&#45;&gt;Node5 -->
<g id="edge4" class="edge">
<title>Node1&#45;&gt;Node5</title>
<path fill="none" stroke="midnightblue" d="M179.57,-56.32C195.46,-47.74 220.01,-34.49 238.46,-24.52"/>
<polygon fill="midnightblue" stroke="midnightblue" points="240.34,-27.49 247.47,-19.65 237.01,-21.33 240.34,-27.49"/>
</g>
<!-- Node6 -->
<g id="node6" class="node">
<title>Node6</title>
<g id="a_node6"><a xlink:title=" ">
<polygon fill="white" stroke="#bfbfbf" points="341.5,-0.5 341.5,-19.5 457.5,-19.5 457.5,-0.5 341.5,-0.5"/>
<text text-anchor="middle" x="399.5" y="-7.5" font-family="Helvetica,sans-Serif" font-size="10.00">ignition/transport.hh</text>
</a>
</g>
</g>
<!-- Node1&#45;&gt;Node6 -->
<g id="edge5" class="edge">
<title>Node1&#45;&gt;Node6</title>
<path fill="none" stroke="midnightblue" d="M200.89,-56.44C241.89,-47.06 307.75,-31.99 352.28,-21.8"/>
<polygon fill="midnightblue" stroke="midnightblue" points="353.31,-25.16 362.28,-19.52 351.75,-18.34 353.31,-25.16"/>
</g>
</g>
</svg>
