<?xml version="1.0" encoding="UTF-8" standalone="no"?>
<!DOCTYPE svg PUBLIC "-//W3C//DTD SVG 1.1//EN"
 "http://www.w3.org/Graphics/SVG/1.1/DTD/svg11.dtd">
<!-- Generated by graphviz version 2.43.0 (0)
 -->
<!-- Title: teleop_plugin.cc Pages: 1 -->
<svg width="1035pt" height="151pt"
 viewBox="0.00 0.00 1035.00 151.00" xmlns="http://www.w3.org/2000/svg" xmlns:xlink="http://www.w3.org/1999/xlink">
<g id="graph0" class="graph" transform="scale(1 1) rotate(0) translate(4 147)">
<title>teleop_plugin.cc</title>
<polygon fill="white" stroke="transparent" points="-4,4 -4,-147 1031,-147 1031,4 -4,4"/>
<!-- Node1 -->
<g id="node1" class="node">
<title>Node1</title>
<g id="a_node1"><a xlink:title=" ">
<polygon fill="#bfbfbf" stroke="black" points="390.5,-123.5 390.5,-142.5 486.5,-142.5 486.5,-123.5 390.5,-123.5"/>
<text text-anchor="middle" x="438.5" y="-130.5" font-family="Helvetica,sans-Serif" font-size="10.00">teleop_plugin.cc</text>
</a>
</g>
</g>
<!-- Node2 -->
<g id="node2" class="node">
<title>Node2</title>
<g id="a_node2"><a xlink:href="teleop__plugin_8h.html" target="_top" xlink:title=" ">
<polygon fill="white" stroke="black" points="117.5,-62 117.5,-81 209.5,-81 209.5,-62 117.5,-62"/>
<text text-anchor="middle" x="163.5" y="-69" font-family="Helvetica,sans-Serif" font-size="10.00">teleop_plugin.h</text>
</a>
</g>
</g>
<!-- Node1&#45;&gt;Node2 -->
<g id="edge1" class="edge">
<title>Node1&#45;&gt;Node2</title>
<path fill="none" stroke="midnightblue" d="M392.83,-123.43C348.22,-114.88 278.48,-101.03 218.5,-87 213.88,-85.92 209.05,-84.73 204.26,-83.52"/>
<polygon fill="midnightblue" stroke="midnightblue" points="205.1,-80.12 194.55,-81.01 203.35,-86.9 205.1,-80.12"/>
</g>
<!-- Node8 -->
<g id="node8" class="node">
<title>Node8</title>
<g id="a_node8"><a xlink:title=" ">
<polygon fill="white" stroke="#bfbfbf" points="227.5,-62 227.5,-81 291.5,-81 291.5,-62 227.5,-62"/>
<text text-anchor="middle" x="259.5" y="-69" font-family="Helvetica,sans-Serif" font-size="10.00">algorithm</text>
</a>
</g>
</g>
<!-- Node1&#45;&gt;Node8 -->
<g id="edge7" class="edge">
<title>Node1&#45;&gt;Node8</title>
<path fill="none" stroke="midnightblue" d="M411.72,-123.48C383.87,-114.58 339.03,-100.09 300.5,-87 298.06,-86.17 295.54,-85.31 293.01,-84.43"/>
<polygon fill="midnightblue" stroke="midnightblue" points="293.91,-81.03 283.31,-81.03 291.6,-87.64 293.91,-81.03"/>
</g>
<!-- Node9 -->
<g id="node9" class="node">
<title>Node9</title>
<g id="a_node9"><a xlink:title=" ">
<polygon fill="white" stroke="#bfbfbf" points="309.5,-62 309.5,-81 359.5,-81 359.5,-62 309.5,-62"/>
<text text-anchor="middle" x="334.5" y="-69" font-family="Helvetica,sans-Serif" font-size="10.00">chrono</text>
</a>
</g>
</g>
<!-- Node1&#45;&gt;Node9 -->
<g id="edge8" class="edge">
<title>Node1&#45;&gt;Node9</title>
<path fill="none" stroke="midnightblue" d="M423.6,-123.48C406.53,-113.71 378.34,-97.58 358.24,-86.08"/>
<polygon fill="midnightblue" stroke="midnightblue" points="359.79,-82.94 349.37,-81.01 356.31,-89.01 359.79,-82.94"/>
</g>
<!-- Node10 -->
<g id="node10" class="node">
<title>Node10</title>
<g id="a_node10"><a xlink:title=" ">
<polygon fill="white" stroke="#bfbfbf" points="377.5,-62 377.5,-81 427.5,-81 427.5,-62 377.5,-62"/>
<text text-anchor="middle" x="402.5" y="-69" font-family="Helvetica,sans-Serif" font-size="10.00">cstdint</text>
</a>
</g>
</g>
<!-- Node1&#45;&gt;Node10 -->
<g id="edge9" class="edge">
<title>Node1&#45;&gt;Node10</title>
<path fill="none" stroke="midnightblue" d="M433.34,-123.48C428.05,-114.73 419.66,-100.87 412.97,-89.81"/>
<polygon fill="midnightblue" stroke="midnightblue" points="415.82,-87.75 407.65,-81.01 409.83,-91.38 415.82,-87.75"/>
</g>
<!-- Node11 -->
<g id="node11" class="node">
<title>Node11</title>
<g id="a_node11"><a xlink:title=" ">
<polygon fill="white" stroke="#bfbfbf" points="445.5,-62 445.5,-81 505.5,-81 505.5,-62 445.5,-62"/>
<text text-anchor="middle" x="475.5" y="-69" font-family="Helvetica,sans-Serif" font-size="10.00">iostream</text>
</a>
</g>
</g>
<!-- Node1&#45;&gt;Node11 -->
<g id="edge10" class="edge">
<title>Node1&#45;&gt;Node11</title>
<path fill="none" stroke="midnightblue" d="M443.8,-123.48C449.24,-114.73 457.86,-100.87 464.74,-89.81"/>
<polygon fill="midnightblue" stroke="midnightblue" points="467.9,-91.35 470.21,-81.01 461.96,-87.65 467.9,-91.35"/>
</g>
<!-- Node12 -->
<g id="node12" class="node">
<title>Node12</title>
<g id="a_node12"><a xlink:title=" ">
<polygon fill="white" stroke="#bfbfbf" points="524,-56.5 524,-86.5 689,-86.5 689,-56.5 524,-56.5"/>
<text text-anchor="start" x="532" y="-74.5" font-family="Helvetica,sans-Serif" font-size="10.00">delphyne/protobuf/automotive</text>
<text text-anchor="middle" x="606.5" y="-63.5" font-family="Helvetica,sans-Serif" font-size="10.00">_driving_command.pb.h</text>
</a>
</g>
</g>
<!-- Node1&#45;&gt;Node12 -->
<g id="edge11" class="edge">
<title>Node1&#45;&gt;Node12</title>
<path fill="none" stroke="midnightblue" d="M462.57,-123.48C487.13,-114.78 525.95,-101.03 557.09,-90"/>
<polygon fill="midnightblue" stroke="midnightblue" points="558.65,-93.16 566.91,-86.52 556.31,-86.56 558.65,-93.16"/>
</g>
<!-- Node13 -->
<g id="node13" class="node">
<title>Node13</title>
<g id="a_node13"><a xlink:title=" ">
<polygon fill="white" stroke="#bfbfbf" points="707.5,-62 707.5,-81 863.5,-81 863.5,-62 707.5,-62"/>
<text text-anchor="middle" x="785.5" y="-69" font-family="Helvetica,sans-Serif" font-size="10.00">ignition/common/Console.hh</text>
</a>
</g>
</g>
<!-- Node1&#45;&gt;Node13 -->
<g id="edge12" class="edge">
<title>Node1&#45;&gt;Node13</title>
<path fill="none" stroke="midnightblue" d="M486.75,-123.73C549.19,-113.02 657.97,-94.37 725.62,-82.77"/>
<polygon fill="midnightblue" stroke="midnightblue" points="726.43,-86.18 735.7,-81.04 725.25,-79.28 726.43,-86.18"/>
</g>
<!-- Node14 -->
<g id="node14" class="node">
<title>Node14</title>
<g id="a_node14"><a xlink:title=" ">
<polygon fill="white" stroke="#bfbfbf" points="882,-62 882,-81 1027,-81 1027,-62 882,-62"/>
<text text-anchor="middle" x="954.5" y="-69" font-family="Helvetica,sans-Serif" font-size="10.00">ignition/plugin/Register.hh</text>
</a>
</g>
</g>
<!-- Node1&#45;&gt;Node14 -->
<g id="edge13" class="edge">
<title>Node1&#45;&gt;Node14</title>
<path fill="none" stroke="midnightblue" d="M486.8,-128.13C567.09,-121.44 732.97,-106.55 872.5,-87 881.24,-85.78 890.47,-84.31 899.46,-82.79"/>
<polygon fill="midnightblue" stroke="midnightblue" points="900.22,-86.21 909.48,-81.06 899.03,-79.31 900.22,-86.21"/>
</g>
<!-- Node3 -->
<g id="node3" class="node">
<title>Node3</title>
<g id="a_node3"><a xlink:title=" ">
<polygon fill="white" stroke="#bfbfbf" points="0,-0.5 0,-19.5 47,-19.5 47,-0.5 0,-0.5"/>
<text text-anchor="middle" x="23.5" y="-7.5" font-family="Helvetica,sans-Serif" font-size="10.00">cmath</text>
</a>
</g>
</g>
<!-- Node2&#45;&gt;Node3 -->
<g id="edge2" class="edge">
<title>Node2&#45;&gt;Node3</title>
<path fill="none" stroke="midnightblue" d="M143.44,-61.98C119.74,-51.9 80.09,-35.05 52.92,-23.5"/>
<polygon fill="midnightblue" stroke="midnightblue" points="54.09,-20.2 43.52,-19.51 51.36,-26.64 54.09,-20.2"/>
</g>
<!-- Node4 -->
<g id="node4" class="node">
<title>Node4</title>
<g id="a_node4"><a xlink:title=" ">
<polygon fill="white" stroke="#bfbfbf" points="65.5,-0.5 65.5,-19.5 123.5,-19.5 123.5,-0.5 65.5,-0.5"/>
<text text-anchor="middle" x="94.5" y="-7.5" font-family="Helvetica,sans-Serif" font-size="10.00">memory</text>
</a>
</g>
</g>
<!-- Node2&#45;&gt;Node4 -->
<g id="edge3" class="edge">
<title>Node2&#45;&gt;Node4</title>
<path fill="none" stroke="midnightblue" d="M153.61,-61.98C142.85,-52.7 125.43,-37.67 112.28,-26.33"/>
<polygon fill="midnightblue" stroke="midnightblue" points="114.23,-23.39 104.37,-19.51 109.66,-28.69 114.23,-23.39"/>
</g>
<!-- Node5 -->
<g id="node5" class="node">
<title>Node5</title>
<g id="a_node5"><a xlink:title=" ">
<polygon fill="white" stroke="#bfbfbf" points="141.5,-0.5 141.5,-19.5 185.5,-19.5 185.5,-0.5 141.5,-0.5"/>
<text text-anchor="middle" x="163.5" y="-7.5" font-family="Helvetica,sans-Serif" font-size="10.00">string</text>
</a>
</g>
</g>
<!-- Node2&#45;&gt;Node5 -->
<g id="edge4" class="edge">
<title>Node2&#45;&gt;Node5</title>
<path fill="none" stroke="midnightblue" d="M163.5,-61.98C163.5,-53.58 163.5,-40.48 163.5,-29.66"/>
<polygon fill="midnightblue" stroke="midnightblue" points="167,-29.51 163.5,-19.51 160,-29.51 167,-29.51"/>
</g>
<!-- Node6 -->
<g id="node6" class="node">
<title>Node6</title>
<g id="a_node6"><a xlink:title=" ">
<polygon fill="white" stroke="#bfbfbf" points="204,-0.5 204,-19.5 323,-19.5 323,-0.5 204,-0.5"/>
<text text-anchor="middle" x="263.5" y="-7.5" font-family="Helvetica,sans-Serif" font-size="10.00">ignition/gui/Plugin.hh</text>
</a>
</g>
</g>
<!-- Node2&#45;&gt;Node6 -->
<g id="edge5" class="edge">
<title>Node2&#45;&gt;Node6</title>
<path fill="none" stroke="midnightblue" d="M177.83,-61.98C194.16,-52.25 221.1,-36.23 240.41,-24.74"/>
<polygon fill="midnightblue" stroke="midnightblue" points="242.39,-27.63 249.2,-19.51 238.82,-21.61 242.39,-27.63"/>
</g>
<!-- Node7 -->
<g id="node7" class="node">
<title>Node7</title>
<g id="a_node7"><a xlink:title=" ">
<polygon fill="white" stroke="#bfbfbf" points="341.5,-0.5 341.5,-19.5 457.5,-19.5 457.5,-0.5 341.5,-0.5"/>
<text text-anchor="middle" x="399.5" y="-7.5" font-family="Helvetica,sans-Serif" font-size="10.00">ignition/transport.hh</text>
</a>
</g>
</g>
<!-- Node2&#45;&gt;Node7 -->
<g id="edge6" class="edge">
<title>Node2&#45;&gt;Node7</title>
<path fill="none" stroke="midnightblue" d="M195.47,-61.99C203.02,-60 211.04,-57.91 218.5,-56 264.81,-44.14 317.89,-31 354.54,-21.99"/>
<polygon fill="midnightblue" stroke="midnightblue" points="355.55,-25.35 364.43,-19.56 353.88,-18.55 355.55,-25.35"/>
</g>
</g>
</svg>
