<?xml version="1.0" encoding="UTF-8" standalone="no"?>
<!DOCTYPE svg PUBLIC "-//W3C//DTD SVG 1.1//EN"
 "http://www.w3.org/Graphics/SVG/1.1/DTD/svg11.dtd">
<!-- Generated by graphviz version 2.43.0 (0)
 -->
<!-- Title: Graphical Class Hierarchy Pages: 1 -->
<svg width="194pt" height="180pt"
 viewBox="0.00 0.00 194.00 180.00" xmlns="http://www.w3.org/2000/svg" xmlns:xlink="http://www.w3.org/1999/xlink">
<g id="graph0" class="graph" transform="scale(1 1) rotate(0) translate(4 176)">
<title>Graphical Class Hierarchy</title>
<polygon fill="white" stroke="transparent" points="-4,4 -4,-176 190,-176 190,4 -4,4"/>
<!-- Node8 -->
<g id="node1" class="node">
<title>Node8</title>
<g id="a_node1"><a xlink:title=" ">
<polygon fill="white" stroke="#bfbfbf" points="0,-76.5 0,-95.5 56,-95.5 56,-76.5 0,-76.5"/>
<text text-anchor="middle" x="28" y="-83.5" font-family="Helvetica,sans-Serif" font-size="10.00">Success</text>
</a>
</g>
</g>
<!-- Node0 -->
<g id="node2" class="node">
<title>Node0</title>
<g id="a_node2"><a xlink:href="classdelphyne_1_1behaviours_1_1agents_1_1_mobil_car.html" target="_top" xlink:title=" ">
<polygon fill="white" stroke="black" points="109,-152.5 109,-171.5 169,-171.5 169,-152.5 109,-152.5"/>
<text text-anchor="middle" x="139" y="-159.5" font-family="Helvetica,sans-Serif" font-size="10.00">MobilCar</text>
</a>
</g>
</g>
<!-- Node8&#45;&gt;Node0 -->
<g id="edge1" class="edge">
<title>Node8&#45;&gt;Node0</title>
<path fill="none" stroke="midnightblue" d="M44.63,-103C56.67,-115.33 74.2,-131.75 92,-143 97.7,-146.6 104.19,-149.77 110.47,-152.44"/>
<polygon fill="midnightblue" stroke="midnightblue" points="47,-100.41 37.57,-95.58 41.93,-105.23 47,-100.41"/>
</g>
<!-- Node10 -->
<g id="node3" class="node">
<title>Node10</title>
<g id="a_node3"><a xlink:href="classdelphyne_1_1behaviours_1_1agents_1_1_rail_car.html" target="_top" xlink:title=" ">
<polygon fill="white" stroke="black" points="113,-114.5 113,-133.5 165,-133.5 165,-114.5 113,-114.5"/>
<text text-anchor="middle" x="139" y="-121.5" font-family="Helvetica,sans-Serif" font-size="10.00">RailCar</text>
</a>
</g>
</g>
<!-- Node8&#45;&gt;Node10 -->
<g id="edge2" class="edge">
<title>Node8&#45;&gt;Node10</title>
<path fill="none" stroke="midnightblue" d="M66.03,-98.91C81.5,-104.3 99.08,-110.43 112.99,-115.28"/>
<polygon fill="midnightblue" stroke="midnightblue" points="66.82,-95.48 56.22,-95.49 64.51,-102.09 66.82,-95.48"/>
</g>
<!-- Node11 -->
<g id="node4" class="node">
<title>Node11</title>
<g id="a_node4"><a xlink:href="classdelphyne_1_1behaviours_1_1agents_1_1_simple_car.html" target="_top" xlink:title=" ">
<polygon fill="white" stroke="black" points="105.5,-76.5 105.5,-95.5 172.5,-95.5 172.5,-76.5 105.5,-76.5"/>
<text text-anchor="middle" x="139" y="-83.5" font-family="Helvetica,sans-Serif" font-size="10.00">SimpleCar</text>
</a>
</g>
</g>
<!-- Node8&#45;&gt;Node11 -->
<g id="edge3" class="edge">
<title>Node8&#45;&gt;Node11</title>
<path fill="none" stroke="midnightblue" d="M66.45,-86C79.08,-86 93.07,-86 105.3,-86"/>
<polygon fill="midnightblue" stroke="midnightblue" points="66.22,-82.5 56.22,-86 66.22,-89.5 66.22,-82.5"/>
</g>
<!-- Node12 -->
<g id="node5" class="node">
<title>Node12</title>
<g id="a_node5"><a xlink:href="classdelphyne_1_1behaviours_1_1agents_1_1_trajectory_agent.html" target="_top" xlink:title=" ">
<polygon fill="white" stroke="black" points="92,-38.5 92,-57.5 186,-57.5 186,-38.5 92,-38.5"/>
<text text-anchor="middle" x="139" y="-45.5" font-family="Helvetica,sans-Serif" font-size="10.00">TrajectoryAgent</text>
</a>
</g>
</g>
<!-- Node8&#45;&gt;Node12 -->
<g id="edge4" class="edge">
<title>Node8&#45;&gt;Node12</title>
<path fill="none" stroke="midnightblue" d="M66.01,-73.1C80.67,-67.99 97.21,-62.22 110.75,-57.5"/>
<polygon fill="midnightblue" stroke="midnightblue" points="64.51,-69.91 56.22,-76.51 66.82,-76.52 64.51,-69.91"/>
</g>
<!-- Node13 -->
<g id="node6" class="node">
<title>Node13</title>
<g id="a_node6"><a xlink:href="classdelphyne_1_1behaviours_1_1agents_1_1_unicycle_car.html" target="_top" xlink:title=" ">
<polygon fill="white" stroke="black" points="101.5,-0.5 101.5,-19.5 176.5,-19.5 176.5,-0.5 101.5,-0.5"/>
<text text-anchor="middle" x="139" y="-7.5" font-family="Helvetica,sans-Serif" font-size="10.00">UnicycleCar</text>
</a>
</g>
</g>
<!-- Node8&#45;&gt;Node13 -->
<g id="edge5" class="edge">
<title>Node8&#45;&gt;Node13</title>
<path fill="none" stroke="midnightblue" d="M44.63,-69C56.67,-56.67 74.2,-40.25 92,-29 97.7,-25.4 104.19,-22.23 110.47,-19.56"/>
<polygon fill="midnightblue" stroke="midnightblue" points="41.93,-66.77 37.57,-76.42 47,-71.59 41.93,-66.77"/>
</g>
</g>
</svg>
