<?xml version="1.0" encoding="UTF-8" standalone="no"?>
<!DOCTYPE svg PUBLIC "-//W3C//DTD SVG 1.1//EN"
 "http://www.w3.org/Graphics/SVG/1.1/DTD/svg11.dtd">
<!-- Generated by graphviz version 2.43.0 (0)
 -->
<!-- Title: lcm_viewer_load_robot_to_ign_model_v.h Pages: 1 -->
<svg width="1101pt" height="240pt"
 viewBox="0.00 0.00 1100.50 240.00" xmlns="http://www.w3.org/2000/svg" xmlns:xlink="http://www.w3.org/1999/xlink">
<g id="graph0" class="graph" transform="scale(1 1) rotate(0) translate(4 236)">
<title>lcm_viewer_load_robot_to_ign_model_v.h</title>
<polygon fill="white" stroke="transparent" points="-4,4 -4,-236 1096.5,-236 1096.5,4 -4,4"/>
<!-- Node1 -->
<g id="node1" class="node">
<title>Node1</title>
<g id="a_node1"><a xlink:title=" ">
<polygon fill="#bfbfbf" stroke="black" points="146,-201.5 146,-231.5 276,-231.5 276,-201.5 146,-201.5"/>
<text text-anchor="start" x="154" y="-219.5" font-family="Helvetica,sans-Serif" font-size="10.00">lcm_viewer_load_robot</text>
<text text-anchor="middle" x="211" y="-208.5" font-family="Helvetica,sans-Serif" font-size="10.00">_to_ign_model_v.h</text>
</a>
</g>
</g>
<!-- Node2 -->
<g id="node2" class="node">
<title>Node2</title>
<g id="a_node2"><a xlink:title=" ">
<polygon fill="white" stroke="#bfbfbf" points="0,-73 0,-92 50,-92 50,-73 0,-73"/>
<text text-anchor="middle" x="25" y="-80" font-family="Helvetica,sans-Serif" font-size="10.00">cstdint</text>
</a>
</g>
</g>
<!-- Node1&#45;&gt;Node2 -->
<g id="edge1" class="edge">
<title>Node1&#45;&gt;Node2</title>
<path fill="none" stroke="midnightblue" d="M145.9,-203.43C119.4,-195.92 89.92,-183.93 68,-165 48.47,-148.13 36.48,-120.15 30.28,-101.77"/>
<polygon fill="midnightblue" stroke="midnightblue" points="33.61,-100.71 27.29,-92.21 26.93,-102.8 33.61,-100.71"/>
</g>
<!-- Node3 -->
<g id="node3" class="node">
<title>Node3</title>
<g id="a_node3"><a xlink:title=" ">
<polygon fill="white" stroke="#bfbfbf" points="77.5,-134.5 77.5,-164.5 210.5,-164.5 210.5,-134.5 77.5,-134.5"/>
<text text-anchor="start" x="85.5" y="-152.5" font-family="Helvetica,sans-Serif" font-size="10.00">drake/lcmt_viewer_load</text>
<text text-anchor="middle" x="144" y="-141.5" font-family="Helvetica,sans-Serif" font-size="10.00">_robot.hpp</text>
</a>
</g>
</g>
<!-- Node1&#45;&gt;Node3 -->
<g id="edge2" class="edge">
<title>Node1&#45;&gt;Node3</title>
<path fill="none" stroke="midnightblue" d="M196.46,-201.4C187.51,-192.71 175.86,-181.4 165.81,-171.66"/>
<polygon fill="midnightblue" stroke="midnightblue" points="168.12,-169.03 158.51,-164.58 163.25,-174.05 168.12,-169.03"/>
</g>
<!-- Node4 -->
<g id="node4" class="node">
<title>Node4</title>
<g id="a_node4"><a xlink:title=" ">
<polygon fill="white" stroke="#bfbfbf" points="229,-140 229,-159 327,-159 327,-140 229,-140"/>
<text text-anchor="middle" x="278" y="-147" font-family="Helvetica,sans-Serif" font-size="10.00">ignition/msgs.hh</text>
</a>
</g>
</g>
<!-- Node1&#45;&gt;Node4 -->
<g id="edge3" class="edge">
<title>Node1&#45;&gt;Node4</title>
<path fill="none" stroke="midnightblue" d="M225.54,-201.4C236.19,-191.06 250.66,-177.02 261.7,-166.31"/>
<polygon fill="midnightblue" stroke="midnightblue" points="264.3,-168.67 269.04,-159.19 259.42,-163.65 264.3,-168.67"/>
</g>
<!-- Node5 -->
<g id="node5" class="node">
<title>Node5</title>
<g id="a_node5"><a xlink:href="drake__to__ign_8h.html" target="_top" xlink:title=" ">
<polygon fill="white" stroke="black" points="349,-134.5 349,-164.5 453,-164.5 453,-134.5 349,-134.5"/>
<text text-anchor="start" x="357" y="-152.5" font-family="Helvetica,sans-Serif" font-size="10.00">translations/drake</text>
<text text-anchor="middle" x="401" y="-141.5" font-family="Helvetica,sans-Serif" font-size="10.00">_to_ign.h</text>
</a>
</g>
</g>
<!-- Node1&#45;&gt;Node5 -->
<g id="edge4" class="edge">
<title>Node1&#45;&gt;Node5</title>
<path fill="none" stroke="midnightblue" d="M252.23,-201.4C280.98,-191.56 319.54,-178.37 350.2,-167.88"/>
<polygon fill="midnightblue" stroke="midnightblue" points="351.52,-171.13 359.85,-164.58 349.26,-164.5 351.52,-171.13"/>
</g>
<!-- Node5&#45;&gt;Node2 -->
<g id="edge5" class="edge">
<title>Node5&#45;&gt;Node2</title>
<path fill="none" stroke="midnightblue" d="M348.93,-136.45C344.57,-135.57 340.21,-134.74 336,-134 213.74,-112.46 178.77,-130.66 59,-98 56.7,-97.37 54.35,-96.62 52.02,-95.8"/>
<polygon fill="midnightblue" stroke="midnightblue" points="53.26,-92.52 42.67,-92.12 50.69,-99.04 53.26,-92.52"/>
</g>
<!-- Node6 -->
<g id="node6" class="node">
<title>Node6</title>
<g id="a_node6"><a xlink:title=" ">
<polygon fill="white" stroke="#bfbfbf" points="68.5,-73 68.5,-92 137.5,-92 137.5,-73 68.5,-73"/>
<text text-anchor="middle" x="103" y="-80" font-family="Helvetica,sans-Serif" font-size="10.00">type_traits</text>
</a>
</g>
</g>
<!-- Node5&#45;&gt;Node6 -->
<g id="edge6" class="edge">
<title>Node5&#45;&gt;Node6</title>
<path fill="none" stroke="midnightblue" d="M348.88,-136.72C344.53,-135.78 340.19,-134.86 336,-134 251.82,-116.64 229.14,-119.78 146,-98 142.8,-97.16 139.49,-96.21 136.2,-95.2"/>
<polygon fill="midnightblue" stroke="midnightblue" points="137.07,-91.8 126.48,-92.07 134.93,-98.47 137.07,-91.8"/>
</g>
<!-- Node7 -->
<g id="node7" class="node">
<title>Node7</title>
<g id="a_node7"><a xlink:title=" ">
<polygon fill="white" stroke="#bfbfbf" points="155.5,-67.5 155.5,-97.5 314.5,-97.5 314.5,-67.5 155.5,-67.5"/>
<text text-anchor="start" x="163.5" y="-85.5" font-family="Helvetica,sans-Serif" font-size="10.00">drake/lcmt_viewer_geometry</text>
<text text-anchor="middle" x="235" y="-74.5" font-family="Helvetica,sans-Serif" font-size="10.00">_data.hpp</text>
</a>
</g>
</g>
<!-- Node5&#45;&gt;Node7 -->
<g id="edge7" class="edge">
<title>Node5&#45;&gt;Node7</title>
<path fill="none" stroke="midnightblue" d="M364.98,-134.4C340.18,-124.69 307.04,-111.71 280.43,-101.29"/>
<polygon fill="midnightblue" stroke="midnightblue" points="281.54,-97.96 270.95,-97.58 278.98,-104.48 281.54,-97.96"/>
</g>
<!-- Node8 -->
<g id="node8" class="node">
<title>Node8</title>
<g id="a_node8"><a xlink:title=" ">
<polygon fill="white" stroke="#bfbfbf" points="333,-67.5 333,-97.5 477,-97.5 477,-67.5 333,-67.5"/>
<text text-anchor="start" x="341" y="-85.5" font-family="Helvetica,sans-Serif" font-size="10.00">drake/systems/framework</text>
<text text-anchor="middle" x="405" y="-74.5" font-family="Helvetica,sans-Serif" font-size="10.00">/leaf_system.h</text>
</a>
</g>
</g>
<!-- Node5&#45;&gt;Node8 -->
<g id="edge8" class="edge">
<title>Node5&#45;&gt;Node8</title>
<path fill="none" stroke="midnightblue" d="M401.87,-134.4C402.35,-126.56 402.96,-116.6 403.52,-107.57"/>
<polygon fill="midnightblue" stroke="midnightblue" points="407.01,-107.77 404.13,-97.58 400.03,-107.34 407.01,-107.77"/>
</g>
<!-- Node9 -->
<g id="node9" class="node">
<title>Node9</title>
<g id="a_node9"><a xlink:title=" ">
<polygon fill="white" stroke="#bfbfbf" points="495,-67.5 495,-97.5 639,-97.5 639,-67.5 495,-67.5"/>
<text text-anchor="start" x="503" y="-85.5" font-family="Helvetica,sans-Serif" font-size="10.00">drake/systems/framework</text>
<text text-anchor="middle" x="567" y="-74.5" font-family="Helvetica,sans-Serif" font-size="10.00">/vector_base.h</text>
</a>
</g>
</g>
<!-- Node5&#45;&gt;Node9 -->
<g id="edge9" class="edge">
<title>Node5&#45;&gt;Node9</title>
<path fill="none" stroke="midnightblue" d="M437.02,-134.4C461.82,-124.69 494.96,-111.71 521.57,-101.29"/>
<polygon fill="midnightblue" stroke="midnightblue" points="523.02,-104.48 531.05,-97.58 520.46,-97.96 523.02,-104.48"/>
</g>
<!-- Node10 -->
<g id="node10" class="node">
<title>Node10</title>
<g id="a_node10"><a xlink:href="translate__exception_8h.html" target="_top" xlink:title=" ">
<polygon fill="white" stroke="black" points="657,-73 657,-92 823,-92 823,-73 657,-73"/>
<text text-anchor="middle" x="740" y="-80" font-family="Helvetica,sans-Serif" font-size="10.00">backend/translate_exception.h</text>
</a>
</g>
</g>
<!-- Node5&#45;&gt;Node10 -->
<g id="edge10" class="edge">
<title>Node5&#45;&gt;Node10</title>
<path fill="none" stroke="midnightblue" d="M453.23,-138.49C516.25,-126.4 621.71,-106.18 685.66,-93.92"/>
<polygon fill="midnightblue" stroke="midnightblue" points="686.4,-97.34 695.56,-92.02 685.08,-90.47 686.4,-97.34"/>
</g>
<!-- Node13 -->
<g id="node13" class="node">
<title>Node13</title>
<g id="a_node13"><a xlink:href="macros_8h.html" target="_top" xlink:title=" ">
<polygon fill="white" stroke="black" points="841,-73 841,-92 951,-92 951,-73 841,-73"/>
<text text-anchor="middle" x="896" y="-80" font-family="Helvetica,sans-Serif" font-size="10.00">delphyne/macros.h</text>
</a>
</g>
</g>
<!-- Node5&#45;&gt;Node13 -->
<g id="edge13" class="edge">
<title>Node5&#45;&gt;Node13</title>
<path fill="none" stroke="midnightblue" d="M453,-144.2C534.26,-137.09 696.11,-121.29 832,-98 838.34,-96.91 844.99,-95.6 851.51,-94.22"/>
<polygon fill="midnightblue" stroke="midnightblue" points="852.58,-97.57 861.59,-92 851.07,-90.73 852.58,-97.57"/>
</g>
<!-- Node11 -->
<g id="node11" class="node">
<title>Node11</title>
<g id="a_node11"><a xlink:title=" ">
<polygon fill="white" stroke="#bfbfbf" points="690.5,-6 690.5,-25 755.5,-25 755.5,-6 690.5,-6"/>
<text text-anchor="middle" x="723" y="-13" font-family="Helvetica,sans-Serif" font-size="10.00">stdexcept</text>
</a>
</g>
</g>
<!-- Node10&#45;&gt;Node11 -->
<g id="edge11" class="edge">
<title>Node10&#45;&gt;Node11</title>
<path fill="none" stroke="midnightblue" d="M737.71,-72.73C735.18,-63.09 731.06,-47.3 727.81,-34.91"/>
<polygon fill="midnightblue" stroke="midnightblue" points="731.17,-33.92 725.26,-25.13 724.4,-35.69 731.17,-33.92"/>
</g>
<!-- Node12 -->
<g id="node12" class="node">
<title>Node12</title>
<g id="a_node12"><a xlink:title=" ">
<polygon fill="white" stroke="#bfbfbf" points="774,-6 774,-25 818,-25 818,-6 774,-6"/>
<text text-anchor="middle" x="796" y="-13" font-family="Helvetica,sans-Serif" font-size="10.00">string</text>
</a>
</g>
</g>
<!-- Node10&#45;&gt;Node12 -->
<g id="edge12" class="edge">
<title>Node10&#45;&gt;Node12</title>
<path fill="none" stroke="midnightblue" d="M747.55,-72.73C756.28,-62.6 770.85,-45.69 781.74,-33.06"/>
<polygon fill="midnightblue" stroke="midnightblue" points="784.69,-34.99 788.57,-25.13 779.39,-30.42 784.69,-34.99"/>
</g>
<!-- Node13&#45;&gt;Node12 -->
<g id="edge14" class="edge">
<title>Node13&#45;&gt;Node12</title>
<path fill="none" stroke="midnightblue" d="M882.51,-72.73C865.95,-61.96 837.62,-43.55 817.91,-30.74"/>
<polygon fill="midnightblue" stroke="midnightblue" points="819.56,-27.64 809.27,-25.13 815.75,-33.51 819.56,-27.64"/>
</g>
<!-- Node14 -->
<g id="node14" class="node">
<title>Node14</title>
<g id="a_node14"><a xlink:title=" ">
<polygon fill="white" stroke="#bfbfbf" points="836.5,-0.5 836.5,-30.5 955.5,-30.5 955.5,-0.5 836.5,-0.5"/>
<text text-anchor="start" x="844.5" y="-18.5" font-family="Helvetica,sans-Serif" font-size="10.00">drake/common/drake</text>
<text text-anchor="middle" x="896" y="-7.5" font-family="Helvetica,sans-Serif" font-size="10.00">_assert.h</text>
</a>
</g>
</g>
<!-- Node13&#45;&gt;Node14 -->
<g id="edge15" class="edge">
<title>Node13&#45;&gt;Node14</title>
<path fill="none" stroke="midnightblue" d="M896,-72.73C896,-64.54 896,-51.92 896,-40.71"/>
<polygon fill="midnightblue" stroke="midnightblue" points="899.5,-40.59 896,-30.59 892.5,-40.59 899.5,-40.59"/>
</g>
<!-- Node15 -->
<g id="node15" class="node">
<title>Node15</title>
<g id="a_node15"><a xlink:title=" ">
<polygon fill="white" stroke="#bfbfbf" points="973.5,-0.5 973.5,-30.5 1092.5,-30.5 1092.5,-0.5 973.5,-0.5"/>
<text text-anchor="start" x="981.5" y="-18.5" font-family="Helvetica,sans-Serif" font-size="10.00">drake/common/drake</text>
<text text-anchor="middle" x="1033" y="-7.5" font-family="Helvetica,sans-Serif" font-size="10.00">_copyable.h</text>
</a>
</g>
</g>
<!-- Node13&#45;&gt;Node15 -->
<g id="edge16" class="edge">
<title>Node13&#45;&gt;Node15</title>
<path fill="none" stroke="midnightblue" d="M914.19,-72.87C934.48,-63.24 967.9,-47.39 994.13,-34.94"/>
<polygon fill="midnightblue" stroke="midnightblue" points="995.9,-37.98 1003.43,-30.53 992.9,-31.65 995.9,-37.98"/>
</g>
</g>
</svg>
