<?xml version="1.0" encoding="UTF-8" standalone="no"?>
<!DOCTYPE svg PUBLIC "-//W3C//DTD SVG 1.1//EN"
 "http://www.w3.org/Graphics/SVG/1.1/DTD/svg11.dtd">
<!-- Generated by graphviz version 2.43.0 (0)
 -->
<!-- Title: pure_pursuit_params.h Pages: 1 -->
<svg width="1249pt" height="95pt"
 viewBox="0.00 0.00 1248.50 95.00" xmlns="http://www.w3.org/2000/svg" xmlns:xlink="http://www.w3.org/1999/xlink">
<g id="graph0" class="graph" transform="scale(1 1) rotate(0) translate(4 91)">
<title>pure_pursuit_params.h</title>
<polygon fill="white" stroke="transparent" points="-4,4 -4,-91 1244.5,-91 1244.5,4 -4,4"/>
<!-- Node1 -->
<g id="node1" class="node">
<title>Node1</title>
<g id="a_node1"><a xlink:title=" ">
<polygon fill="#bfbfbf" stroke="black" points="334.5,-67.5 334.5,-86.5 462.5,-86.5 462.5,-67.5 334.5,-67.5"/>
<text text-anchor="middle" x="398.5" y="-74.5" font-family="Helvetica,sans-Serif" font-size="10.00">pure_pursuit_params.h</text>
</a>
</g>
</g>
<!-- Node2 -->
<g id="node2" class="node">
<title>Node2</title>
<g id="a_node2"><a xlink:title=" ">
<polygon fill="white" stroke="#bfbfbf" points="0,-6 0,-25 47,-25 47,-6 0,-6"/>
<text text-anchor="middle" x="23.5" y="-13" font-family="Helvetica,sans-Serif" font-size="10.00">cmath</text>
</a>
</g>
</g>
<!-- Node1&#45;&gt;Node2 -->
<g id="edge1" class="edge">
<title>Node1&#45;&gt;Node2</title>
<path fill="none" stroke="midnightblue" d="M334.39,-72.98C264.85,-68.46 151.09,-57.43 56.5,-31 54.35,-30.4 52.15,-29.68 49.96,-28.89"/>
<polygon fill="midnightblue" stroke="midnightblue" points="51.21,-25.62 40.63,-25.12 48.59,-32.11 51.21,-25.62"/>
</g>
<!-- Node3 -->
<g id="node3" class="node">
<title>Node3</title>
<g id="a_node3"><a xlink:title=" ">
<polygon fill="white" stroke="#bfbfbf" points="65.5,-6 65.5,-25 109.5,-25 109.5,-6 65.5,-6"/>
<text text-anchor="middle" x="87.5" y="-13" font-family="Helvetica,sans-Serif" font-size="10.00">limits</text>
</a>
</g>
</g>
<!-- Node1&#45;&gt;Node3 -->
<g id="edge2" class="edge">
<title>Node1&#45;&gt;Node3</title>
<path fill="none" stroke="midnightblue" d="M334.24,-70.79C276.73,-64.93 190.62,-53.18 118.5,-31 116.63,-30.42 114.72,-29.75 112.82,-29.03"/>
<polygon fill="midnightblue" stroke="midnightblue" points="114.14,-25.78 103.57,-25.05 111.38,-32.22 114.14,-25.78"/>
</g>
<!-- Node4 -->
<g id="node4" class="node">
<title>Node4</title>
<g id="a_node4"><a xlink:title=" ">
<polygon fill="white" stroke="#bfbfbf" points="128,-6 128,-25 193,-25 193,-6 128,-6"/>
<text text-anchor="middle" x="160.5" y="-13" font-family="Helvetica,sans-Serif" font-size="10.00">stdexcept</text>
</a>
</g>
</g>
<!-- Node1&#45;&gt;Node4 -->
<g id="edge3" class="edge">
<title>Node1&#45;&gt;Node4</title>
<path fill="none" stroke="midnightblue" d="M355.34,-67.47C315.4,-59.26 254.52,-45.91 202.5,-31 199.55,-30.16 196.51,-29.22 193.47,-28.25"/>
<polygon fill="midnightblue" stroke="midnightblue" points="194.5,-24.91 183.91,-25.08 192.29,-31.55 194.5,-24.91"/>
</g>
<!-- Node5 -->
<g id="node5" class="node">
<title>Node5</title>
<g id="a_node5"><a xlink:title=" ">
<polygon fill="white" stroke="#bfbfbf" points="211.5,-6 211.5,-25 255.5,-25 255.5,-6 211.5,-6"/>
<text text-anchor="middle" x="233.5" y="-13" font-family="Helvetica,sans-Serif" font-size="10.00">string</text>
</a>
</g>
</g>
<!-- Node1&#45;&gt;Node5 -->
<g id="edge4" class="edge">
<title>Node1&#45;&gt;Node5</title>
<path fill="none" stroke="midnightblue" d="M369.93,-67.44C342.56,-59 300.27,-45.32 264.5,-31 263.12,-30.45 261.72,-29.87 260.3,-29.26"/>
<polygon fill="midnightblue" stroke="midnightblue" points="261.61,-26.02 251.05,-25.13 258.76,-32.41 261.61,-26.02"/>
</g>
<!-- Node6 -->
<g id="node6" class="node">
<title>Node6</title>
<g id="a_node6"><a xlink:title=" ">
<polygon fill="white" stroke="#bfbfbf" points="274,-6 274,-25 319,-25 319,-6 274,-6"/>
<text text-anchor="middle" x="296.5" y="-13" font-family="Helvetica,sans-Serif" font-size="10.00">utility</text>
</a>
</g>
</g>
<!-- Node1&#45;&gt;Node6 -->
<g id="edge5" class="edge">
<title>Node1&#45;&gt;Node6</title>
<path fill="none" stroke="midnightblue" d="M383.89,-67.48C367.15,-57.71 339.5,-41.58 319.78,-30.08"/>
<polygon fill="midnightblue" stroke="midnightblue" points="321.49,-27.02 311.09,-25.01 317.96,-33.07 321.49,-27.02"/>
</g>
<!-- Node7 -->
<g id="node7" class="node">
<title>Node7</title>
<g id="a_node7"><a xlink:title=" ">
<polygon fill="white" stroke="#bfbfbf" points="337,-6 337,-25 384,-25 384,-6 337,-6"/>
<text text-anchor="middle" x="360.5" y="-13" font-family="Helvetica,sans-Serif" font-size="10.00">vector</text>
</a>
</g>
</g>
<!-- Node1&#45;&gt;Node7 -->
<g id="edge6" class="edge">
<title>Node1&#45;&gt;Node7</title>
<path fill="none" stroke="midnightblue" d="M393.06,-67.48C387.41,-58.64 378.44,-44.59 371.34,-33.48"/>
<polygon fill="midnightblue" stroke="midnightblue" points="374.27,-31.55 365.93,-25.01 368.37,-35.32 374.27,-31.55"/>
</g>
<!-- Node8 -->
<g id="node8" class="node">
<title>Node8</title>
<g id="a_node8"><a xlink:title=" ">
<polygon fill="white" stroke="#bfbfbf" points="402,-6 402,-25 471,-25 471,-6 402,-6"/>
<text text-anchor="middle" x="436.5" y="-13" font-family="Helvetica,sans-Serif" font-size="10.00">Eigen/Core</text>
</a>
</g>
</g>
<!-- Node1&#45;&gt;Node8 -->
<g id="edge7" class="edge">
<title>Node1&#45;&gt;Node8</title>
<path fill="none" stroke="midnightblue" d="M403.94,-67.48C409.59,-58.64 418.56,-44.59 425.66,-33.48"/>
<polygon fill="midnightblue" stroke="midnightblue" points="428.63,-35.32 431.07,-25.01 422.73,-31.55 428.63,-35.32"/>
</g>
<!-- Node9 -->
<g id="node9" class="node">
<title>Node9</title>
<g id="a_node9"><a xlink:title=" ">
<polygon fill="white" stroke="#bfbfbf" points="489,-0.5 489,-30.5 608,-30.5 608,-0.5 489,-0.5"/>
<text text-anchor="start" x="497" y="-18.5" font-family="Helvetica,sans-Serif" font-size="10.00">drake/common/drake</text>
<text text-anchor="middle" x="548.5" y="-7.5" font-family="Helvetica,sans-Serif" font-size="10.00">_bool.h</text>
</a>
</g>
</g>
<!-- Node1&#45;&gt;Node9 -->
<g id="edge8" class="edge">
<title>Node1&#45;&gt;Node9</title>
<path fill="none" stroke="midnightblue" d="M419.99,-67.48C441.73,-58.85 475.99,-45.26 503.66,-34.29"/>
<polygon fill="midnightblue" stroke="midnightblue" points="505.14,-37.46 513.15,-30.52 502.56,-30.96 505.14,-37.46"/>
</g>
<!-- Node10 -->
<g id="node10" class="node">
<title>Node10</title>
<g id="a_node10"><a xlink:title=" ">
<polygon fill="white" stroke="#bfbfbf" points="626.5,-0.5 626.5,-30.5 756.5,-30.5 756.5,-0.5 626.5,-0.5"/>
<text text-anchor="start" x="634.5" y="-18.5" font-family="Helvetica,sans-Serif" font-size="10.00">drake/common/dummy</text>
<text text-anchor="middle" x="691.5" y="-7.5" font-family="Helvetica,sans-Serif" font-size="10.00">_value.h</text>
</a>
</g>
</g>
<!-- Node1&#45;&gt;Node10 -->
<g id="edge9" class="edge">
<title>Node1&#45;&gt;Node10</title>
<path fill="none" stroke="midnightblue" d="M440.48,-67.48C486.31,-58.17 560.61,-43.08 616.5,-31.73"/>
<polygon fill="midnightblue" stroke="midnightblue" points="617.26,-35.15 626.36,-29.73 615.87,-28.29 617.26,-35.15"/>
</g>
<!-- Node11 -->
<g id="node11" class="node">
<title>Node11</title>
<g id="a_node11"><a xlink:title=" ">
<polygon fill="white" stroke="#bfbfbf" points="774.5,-6 774.5,-25 920.5,-25 920.5,-6 774.5,-6"/>
<text text-anchor="middle" x="847.5" y="-13" font-family="Helvetica,sans-Serif" font-size="10.00">drake/common/symbolic.h</text>
</a>
</g>
</g>
<!-- Node1&#45;&gt;Node11 -->
<g id="edge10" class="edge">
<title>Node1&#45;&gt;Node11</title>
<path fill="none" stroke="midnightblue" d="M462.62,-69.18C535.98,-61.14 659.64,-46.84 765.5,-31 773.93,-29.74 782.82,-28.29 791.52,-26.81"/>
<polygon fill="midnightblue" stroke="midnightblue" points="792.34,-30.22 801.6,-25.06 791.15,-23.32 792.34,-30.22"/>
</g>
<!-- Node12 -->
<g id="node12" class="node">
<title>Node12</title>
<g id="a_node12"><a xlink:title=" ">
<polygon fill="white" stroke="#bfbfbf" points="938.5,-0.5 938.5,-30.5 1082.5,-30.5 1082.5,-0.5 938.5,-0.5"/>
<text text-anchor="start" x="946.5" y="-18.5" font-family="Helvetica,sans-Serif" font-size="10.00">drake/systems/framework</text>
<text text-anchor="middle" x="1010.5" y="-7.5" font-family="Helvetica,sans-Serif" font-size="10.00">/basic_vector.h</text>
</a>
</g>
</g>
<!-- Node1&#45;&gt;Node12 -->
<g id="edge11" class="edge">
<title>Node1&#45;&gt;Node12</title>
<path fill="none" stroke="midnightblue" d="M462.87,-72.47C561.06,-66.67 754.33,-53.57 928.03,-31.12"/>
<polygon fill="midnightblue" stroke="midnightblue" points="928.67,-34.56 938.13,-29.8 927.76,-27.62 928.67,-34.56"/>
</g>
<!-- Node13 -->
<g id="node13" class="node">
<title>Node13</title>
<g id="a_node13"><a xlink:href="../../maliput/html/maliput__never__destroyed_8h.html.html" xlink:title=" ">
<polygon fill="white" stroke="black" points="1100.5,-0.5 1100.5,-30.5 1240.5,-30.5 1240.5,-0.5 1100.5,-0.5"/>
<text text-anchor="start" x="1108.5" y="-18.5" font-family="Helvetica,sans-Serif" font-size="10.00">maliput/common/maliput</text>
<text text-anchor="middle" x="1170.5" y="-7.5" font-family="Helvetica,sans-Serif" font-size="10.00">_never_destroyed.h</text>
</a>
</g>
</g>
<!-- Node1&#45;&gt;Node13 -->
<g id="edge12" class="edge">
<title>Node1&#45;&gt;Node13</title>
<path fill="none" stroke="midnightblue" d="M462.75,-74.33C583.65,-70.64 853.39,-59.83 1090.17,-31.06"/>
<polygon fill="midnightblue" stroke="midnightblue" points="1090.86,-34.51 1100.35,-29.81 1090,-27.56 1090.86,-34.51"/>
</g>
</g>
</svg>
