<?xml version="1.0" encoding="UTF-8" standalone="no"?>
<!DOCTYPE svg PUBLIC "-//W3C//DTD SVG 1.1//EN"
 "http://www.w3.org/Graphics/SVG/1.1/DTD/svg11.dtd">
<!-- Generated by graphviz version 2.43.0 (0)
 -->
<!-- Title: rail_follower_state.h Pages: 1 -->
<svg width="998pt" height="162pt"
 viewBox="0.00 0.00 998.00 162.00" xmlns="http://www.w3.org/2000/svg" xmlns:xlink="http://www.w3.org/1999/xlink">
<g id="graph0" class="graph" transform="scale(1 1) rotate(0) translate(4 158)">
<title>rail_follower_state.h</title>
<polygon fill="white" stroke="transparent" points="-4,4 -4,-158 994,-158 994,4 -4,4"/>
<!-- Node1 -->
<g id="node1" class="node">
<title>Node1</title>
<g id="a_node1"><a xlink:title=" ">
<polygon fill="#bfbfbf" stroke="black" points="193,-134.5 193,-153.5 309,-153.5 309,-134.5 193,-134.5"/>
<text text-anchor="middle" x="251" y="-141.5" font-family="Helvetica,sans-Serif" font-size="10.00">rail_follower_state.h</text>
</a>
</g>
</g>
<!-- Node2 -->
<g id="node2" class="node">
<title>Node2</title>
<g id="a_node2"><a xlink:title=" ">
<polygon fill="white" stroke="#bfbfbf" points="0,-73 0,-92 42,-92 42,-73 0,-73"/>
<text text-anchor="middle" x="21" y="-80" font-family="Helvetica,sans-Serif" font-size="10.00">array</text>
</a>
</g>
</g>
<!-- Node1&#45;&gt;Node2 -->
<g id="edge1" class="edge">
<title>Node1&#45;&gt;Node2</title>
<path fill="none" stroke="midnightblue" d="M197.86,-134.47C157.02,-127.1 99.56,-114.95 51,-98 49.39,-97.44 47.74,-96.81 46.1,-96.14"/>
<polygon fill="midnightblue" stroke="midnightblue" points="47.46,-92.92 36.9,-92.02 44.6,-99.3 47.46,-92.92"/>
</g>
<!-- Node3 -->
<g id="node3" class="node">
<title>Node3</title>
<g id="a_node3"><a xlink:title=" ">
<polygon fill="white" stroke="#bfbfbf" points="60,-73 60,-92 116,-92 116,-73 60,-73"/>
<text text-anchor="middle" x="88" y="-80" font-family="Helvetica,sans-Serif" font-size="10.00">sstream</text>
</a>
</g>
</g>
<!-- Node1&#45;&gt;Node3 -->
<g id="edge2" class="edge">
<title>Node1&#45;&gt;Node3</title>
<path fill="none" stroke="midnightblue" d="M226.29,-134.43C200.83,-125.53 160.02,-111.11 125,-98 123.11,-97.29 121.17,-96.56 119.21,-95.81"/>
<polygon fill="midnightblue" stroke="midnightblue" points="120.07,-92.39 109.48,-92.05 117.54,-98.92 120.07,-92.39"/>
</g>
<!-- Node4 -->
<g id="node4" class="node">
<title>Node4</title>
<g id="a_node4"><a xlink:title=" ">
<polygon fill="white" stroke="#bfbfbf" points="134,-73 134,-92 178,-92 178,-73 134,-73"/>
<text text-anchor="middle" x="156" y="-80" font-family="Helvetica,sans-Serif" font-size="10.00">string</text>
</a>
</g>
</g>
<!-- Node1&#45;&gt;Node4 -->
<g id="edge3" class="edge">
<title>Node1&#45;&gt;Node4</title>
<path fill="none" stroke="midnightblue" d="M237.39,-134.48C221.94,-124.8 196.51,-108.87 178.18,-97.39"/>
<polygon fill="midnightblue" stroke="midnightblue" points="179.92,-94.35 169.59,-92.01 176.2,-100.28 179.92,-94.35"/>
</g>
<!-- Node5 -->
<g id="node5" class="node">
<title>Node5</title>
<g id="a_node5"><a xlink:title=" ">
<polygon fill="white" stroke="#bfbfbf" points="196.5,-73 196.5,-92 241.5,-92 241.5,-73 196.5,-73"/>
<text text-anchor="middle" x="219" y="-80" font-family="Helvetica,sans-Serif" font-size="10.00">utility</text>
</a>
</g>
</g>
<!-- Node1&#45;&gt;Node5 -->
<g id="edge4" class="edge">
<title>Node1&#45;&gt;Node5</title>
<path fill="none" stroke="midnightblue" d="M246.42,-134.48C241.76,-125.82 234.41,-112.15 228.49,-101.15"/>
<polygon fill="midnightblue" stroke="midnightblue" points="231.4,-99.16 223.58,-92.01 225.23,-102.47 231.4,-99.16"/>
</g>
<!-- Node6 -->
<g id="node6" class="node">
<title>Node6</title>
<g id="a_node6"><a xlink:title=" ">
<polygon fill="white" stroke="#bfbfbf" points="259.5,-73 259.5,-92 306.5,-92 306.5,-73 259.5,-73"/>
<text text-anchor="middle" x="283" y="-80" font-family="Helvetica,sans-Serif" font-size="10.00">vector</text>
</a>
</g>
</g>
<!-- Node1&#45;&gt;Node6 -->
<g id="edge5" class="edge">
<title>Node1&#45;&gt;Node6</title>
<path fill="none" stroke="midnightblue" d="M255.58,-134.48C260.24,-125.82 267.59,-112.15 273.51,-101.15"/>
<polygon fill="midnightblue" stroke="midnightblue" points="276.77,-102.47 278.42,-92.01 270.6,-99.16 276.77,-102.47"/>
</g>
<!-- Node7 -->
<g id="node7" class="node">
<title>Node7</title>
<g id="a_node7"><a xlink:title=" ">
<polygon fill="white" stroke="#bfbfbf" points="324.5,-67.5 324.5,-97.5 461.5,-97.5 461.5,-67.5 324.5,-67.5"/>
<text text-anchor="start" x="332.5" y="-85.5" font-family="Helvetica,sans-Serif" font-size="10.00">drake/common/symbolic</text>
<text text-anchor="middle" x="393" y="-74.5" font-family="Helvetica,sans-Serif" font-size="10.00">_variable.h</text>
</a>
</g>
</g>
<!-- Node1&#45;&gt;Node7 -->
<g id="edge6" class="edge">
<title>Node1&#45;&gt;Node7</title>
<path fill="none" stroke="midnightblue" d="M271.35,-134.48C291.84,-125.89 324.07,-112.38 350.21,-101.43"/>
<polygon fill="midnightblue" stroke="midnightblue" points="351.66,-104.62 359.53,-97.52 348.96,-98.16 351.66,-104.62"/>
</g>
<!-- Node8 -->
<g id="node8" class="node">
<title>Node8</title>
<g id="a_node8"><a xlink:title=" ">
<polygon fill="white" stroke="#bfbfbf" points="480,-67.5 480,-97.5 624,-97.5 624,-67.5 480,-67.5"/>
<text text-anchor="start" x="488" y="-85.5" font-family="Helvetica,sans-Serif" font-size="10.00">drake/systems/framework</text>
<text text-anchor="middle" x="552" y="-74.5" font-family="Helvetica,sans-Serif" font-size="10.00">/basic_vector.h</text>
</a>
</g>
</g>
<!-- Node1&#45;&gt;Node8 -->
<g id="edge7" class="edge">
<title>Node1&#45;&gt;Node8</title>
<path fill="none" stroke="midnightblue" d="M294.13,-134.48C340.13,-125.38 414.07,-110.77 471,-99.51"/>
<polygon fill="midnightblue" stroke="midnightblue" points="471.93,-102.9 481.06,-97.52 470.57,-96.03 471.93,-102.9"/>
</g>
<!-- Node9 -->
<g id="node9" class="node">
<title>Node9</title>
<g id="a_node9"><a xlink:href="types_8h.html" target="_top" xlink:title=" ">
<polygon fill="white" stroke="black" points="642.5,-73 642.5,-92 743.5,-92 743.5,-73 642.5,-73"/>
<text text-anchor="middle" x="693" y="-80" font-family="Helvetica,sans-Serif" font-size="10.00">delphyne/types.h</text>
</a>
</g>
</g>
<!-- Node1&#45;&gt;Node9 -->
<g id="edge8" class="edge">
<title>Node1&#45;&gt;Node9</title>
<path fill="none" stroke="midnightblue" d="M309.24,-138.33C384.42,-131.79 519.12,-118.39 633,-98 638.81,-96.96 644.9,-95.69 650.88,-94.35"/>
<polygon fill="midnightblue" stroke="midnightblue" points="651.82,-97.72 660.77,-92.04 650.23,-90.91 651.82,-97.72"/>
</g>
<!-- Node10 -->
<g id="node10" class="node">
<title>Node10</title>
<g id="a_node10"><a xlink:title=" ">
<polygon fill="white" stroke="#bfbfbf" points="481,-6 481,-25 531,-25 531,-6 481,-6"/>
<text text-anchor="middle" x="506" y="-13" font-family="Helvetica,sans-Serif" font-size="10.00">chrono</text>
</a>
</g>
</g>
<!-- Node9&#45;&gt;Node10 -->
<g id="edge9" class="edge">
<title>Node9&#45;&gt;Node10</title>
<path fill="none" stroke="midnightblue" d="M664.83,-72.99C633.95,-63.47 583.05,-47.25 540,-31 538.35,-30.38 536.66,-29.72 534.96,-29.04"/>
<polygon fill="midnightblue" stroke="midnightblue" points="535.88,-25.64 525.3,-25.07 533.22,-32.11 535.88,-25.64"/>
</g>
<!-- Node11 -->
<g id="node11" class="node">
<title>Node11</title>
<g id="a_node11"><a xlink:title=" ">
<polygon fill="white" stroke="#bfbfbf" points="549.5,-6 549.5,-25 688.5,-25 688.5,-6 549.5,-6"/>
<text text-anchor="middle" x="619" y="-13" font-family="Helvetica,sans-Serif" font-size="10.00">drake/common/autodiff.h</text>
</a>
</g>
</g>
<!-- Node9&#45;&gt;Node11 -->
<g id="edge10" class="edge">
<title>Node9&#45;&gt;Node11</title>
<path fill="none" stroke="midnightblue" d="M683.02,-72.73C671.15,-62.31 651.11,-44.71 636.62,-31.97"/>
<polygon fill="midnightblue" stroke="midnightblue" points="638.64,-29.1 628.82,-25.13 634.03,-34.36 638.64,-29.1"/>
</g>
<!-- Node12 -->
<g id="node12" class="node">
<title>Node12</title>
<g id="a_node12"><a xlink:title=" ">
<polygon fill="white" stroke="#bfbfbf" points="706.5,-0.5 706.5,-30.5 825.5,-30.5 825.5,-0.5 706.5,-0.5"/>
<text text-anchor="start" x="714.5" y="-18.5" font-family="Helvetica,sans-Serif" font-size="10.00">drake/common/eigen</text>
<text text-anchor="middle" x="766" y="-7.5" font-family="Helvetica,sans-Serif" font-size="10.00">_types.h</text>
</a>
</g>
</g>
<!-- Node9&#45;&gt;Node12 -->
<g id="edge11" class="edge">
<title>Node9&#45;&gt;Node12</title>
<path fill="none" stroke="midnightblue" d="M702.85,-72.73C713,-63.7 729.19,-49.27 742.64,-37.3"/>
<polygon fill="midnightblue" stroke="midnightblue" points="745.04,-39.85 750.18,-30.59 740.38,-34.63 745.04,-39.85"/>
</g>
<!-- Node13 -->
<g id="node13" class="node">
<title>Node13</title>
<g id="a_node13"><a xlink:title=" ">
<polygon fill="white" stroke="#bfbfbf" points="844,-6 844,-25 990,-25 990,-6 844,-6"/>
<text text-anchor="middle" x="917" y="-13" font-family="Helvetica,sans-Serif" font-size="10.00">drake/common/symbolic.h</text>
</a>
</g>
</g>
<!-- Node9&#45;&gt;Node13 -->
<g id="edge12" class="edge">
<title>Node9&#45;&gt;Node13</title>
<path fill="none" stroke="midnightblue" d="M722.75,-72.87C762.6,-61.3 833.43,-40.75 877.66,-27.91"/>
<polygon fill="midnightblue" stroke="midnightblue" points="878.86,-31.21 887.49,-25.06 876.91,-24.49 878.86,-31.21"/>
</g>
</g>
</svg>
