<?xml version="1.0" encoding="UTF-8" standalone="no"?>
<!DOCTYPE svg PUBLIC "-//W3C//DTD SVG 1.1//EN"
 "http://www.w3.org/Graphics/SVG/1.1/DTD/svg11.dtd">
<!-- Generated by graphviz version 2.43.0 (0)
 -->
<!-- Title: simulation_run_stats.cc Pages: 1 -->
<svg width="854pt" height="218pt"
 viewBox="0.00 0.00 853.50 218.00" xmlns="http://www.w3.org/2000/svg" xmlns:xlink="http://www.w3.org/1999/xlink">
<g id="graph0" class="graph" transform="scale(1 1) rotate(0) translate(4 214)">
<title>simulation_run_stats.cc</title>
<polygon fill="white" stroke="transparent" points="-4,4 -4,-214 849.5,-214 849.5,4 -4,4"/>
<!-- Node1 -->
<g id="node1" class="node">
<title>Node1</title>
<g id="a_node1"><a xlink:title=" ">
<polygon fill="#bfbfbf" stroke="black" points="261,-190.5 261,-209.5 393,-209.5 393,-190.5 261,-190.5"/>
<text text-anchor="middle" x="327" y="-197.5" font-family="Helvetica,sans-Serif" font-size="10.00">simulation_run_stats.cc</text>
</a>
</g>
</g>
<!-- Node2 -->
<g id="node2" class="node">
<title>Node2</title>
<g id="a_node2"><a xlink:href="simulation__run__stats_8h.html" target="_top" xlink:title=" ">
<polygon fill="white" stroke="black" points="229,-123.5 229,-153.5 341,-153.5 341,-123.5 229,-123.5"/>
<text text-anchor="start" x="237" y="-141.5" font-family="Helvetica,sans-Serif" font-size="10.00">backend/simulation</text>
<text text-anchor="middle" x="285" y="-130.5" font-family="Helvetica,sans-Serif" font-size="10.00">_run_stats.h</text>
</a>
</g>
</g>
<!-- Node1&#45;&gt;Node2 -->
<g id="edge1" class="edge">
<title>Node1&#45;&gt;Node2</title>
<path fill="none" stroke="midnightblue" d="M320.98,-190.48C315.72,-183.02 307.84,-171.85 300.79,-161.87"/>
<polygon fill="midnightblue" stroke="midnightblue" points="303.52,-159.67 294.9,-153.52 297.81,-163.71 303.52,-159.67"/>
</g>
<!-- Node9 -->
<g id="node9" class="node">
<title>Node9</title>
<g id="a_node9"><a xlink:href="macros_8h.html" target="_top" xlink:title=" ">
<polygon fill="white" stroke="black" points="494,-67.5 494,-86.5 604,-86.5 604,-67.5 494,-67.5"/>
<text text-anchor="middle" x="549" y="-74.5" font-family="Helvetica,sans-Serif" font-size="10.00">delphyne/macros.h</text>
</a>
</g>
</g>
<!-- Node1&#45;&gt;Node9 -->
<g id="edge13" class="edge">
<title>Node1&#45;&gt;Node9</title>
<path fill="none" stroke="midnightblue" d="M342.61,-190.49C380.57,-169.8 477.98,-116.71 524.09,-91.58"/>
<polygon fill="midnightblue" stroke="midnightblue" points="526,-94.52 533.11,-86.66 522.65,-88.37 526,-94.52"/>
</g>
<!-- Node3 -->
<g id="node3" class="node">
<title>Node3</title>
<g id="a_node3"><a xlink:title=" ">
<polygon fill="white" stroke="#bfbfbf" points="0,-6 0,-25 50,-25 50,-6 0,-6"/>
<text text-anchor="middle" x="25" y="-13" font-family="Helvetica,sans-Serif" font-size="10.00">chrono</text>
</a>
</g>
</g>
<!-- Node2&#45;&gt;Node3 -->
<g id="edge2" class="edge">
<title>Node2&#45;&gt;Node3</title>
<path fill="none" stroke="midnightblue" d="M248.91,-123.44C224.45,-113.7 191.51,-100.16 163,-87 122.79,-68.44 77.24,-44.61 49.84,-29.95"/>
<polygon fill="midnightblue" stroke="midnightblue" points="51.41,-26.82 40.94,-25.17 48.1,-32.99 51.41,-26.82"/>
</g>
<!-- Node4 -->
<g id="node4" class="node">
<title>Node4</title>
<g id="a_node4"><a xlink:title=" ">
<polygon fill="white" stroke="#bfbfbf" points="172,-67.5 172,-86.5 216,-86.5 216,-67.5 172,-67.5"/>
<text text-anchor="middle" x="194" y="-74.5" font-family="Helvetica,sans-Serif" font-size="10.00">limits</text>
</a>
</g>
</g>
<!-- Node2&#45;&gt;Node4 -->
<g id="edge3" class="edge">
<title>Node2&#45;&gt;Node4</title>
<path fill="none" stroke="midnightblue" d="M263.43,-123.4C249.12,-114.04 230.39,-101.79 215.99,-92.38"/>
<polygon fill="midnightblue" stroke="midnightblue" points="217.53,-89.2 207.24,-86.66 213.7,-95.06 217.53,-89.2"/>
</g>
<!-- Node5 -->
<g id="node5" class="node">
<title>Node5</title>
<g id="a_node5"><a xlink:href="types_8h.html" target="_top" xlink:title=" ">
<polygon fill="white" stroke="black" points="234.5,-67.5 234.5,-86.5 335.5,-86.5 335.5,-67.5 234.5,-67.5"/>
<text text-anchor="middle" x="285" y="-74.5" font-family="Helvetica,sans-Serif" font-size="10.00">delphyne/types.h</text>
</a>
</g>
</g>
<!-- Node2&#45;&gt;Node5 -->
<g id="edge4" class="edge">
<title>Node2&#45;&gt;Node5</title>
<path fill="none" stroke="midnightblue" d="M285,-123.4C285,-115.47 285,-105.46 285,-96.86"/>
<polygon fill="midnightblue" stroke="midnightblue" points="288.5,-96.66 285,-86.66 281.5,-96.66 288.5,-96.66"/>
</g>
<!-- Node2&#45;&gt;Node9 -->
<g id="edge9" class="edge">
<title>Node2&#45;&gt;Node9</title>
<path fill="none" stroke="midnightblue" d="M341.31,-124.81C388.9,-114.08 456.3,-98.89 501.28,-88.76"/>
<polygon fill="midnightblue" stroke="midnightblue" points="502.09,-92.16 511.08,-86.55 500.55,-85.33 502.09,-92.16"/>
</g>
<!-- Node5&#45;&gt;Node3 -->
<g id="edge5" class="edge">
<title>Node5&#45;&gt;Node3</title>
<path fill="none" stroke="midnightblue" d="M236.12,-67.49C179.97,-57.49 91.39,-41.01 59,-31 56.86,-30.34 54.67,-29.59 52.48,-28.78"/>
<polygon fill="midnightblue" stroke="midnightblue" points="53.68,-25.49 43.09,-25.03 51.08,-31.99 53.68,-25.49"/>
</g>
<!-- Node6 -->
<g id="node6" class="node">
<title>Node6</title>
<g id="a_node6"><a xlink:title=" ">
<polygon fill="white" stroke="#bfbfbf" points="68.5,-6 68.5,-25 207.5,-25 207.5,-6 68.5,-6"/>
<text text-anchor="middle" x="138" y="-13" font-family="Helvetica,sans-Serif" font-size="10.00">drake/common/autodiff.h</text>
</a>
</g>
</g>
<!-- Node5&#45;&gt;Node6 -->
<g id="edge6" class="edge">
<title>Node5&#45;&gt;Node6</title>
<path fill="none" stroke="midnightblue" d="M263.94,-67.48C238.94,-57.36 197.06,-40.4 168.51,-28.85"/>
<polygon fill="midnightblue" stroke="midnightblue" points="169.61,-25.52 159.02,-25.01 166.98,-32.01 169.61,-25.52"/>
</g>
<!-- Node7 -->
<g id="node7" class="node">
<title>Node7</title>
<g id="a_node7"><a xlink:title=" ">
<polygon fill="white" stroke="#bfbfbf" points="225.5,-0.5 225.5,-30.5 344.5,-30.5 344.5,-0.5 225.5,-0.5"/>
<text text-anchor="start" x="233.5" y="-18.5" font-family="Helvetica,sans-Serif" font-size="10.00">drake/common/eigen</text>
<text text-anchor="middle" x="285" y="-7.5" font-family="Helvetica,sans-Serif" font-size="10.00">_types.h</text>
</a>
</g>
</g>
<!-- Node5&#45;&gt;Node7 -->
<g id="edge7" class="edge">
<title>Node5&#45;&gt;Node7</title>
<path fill="none" stroke="midnightblue" d="M285,-67.48C285,-60.47 285,-50.19 285,-40.7"/>
<polygon fill="midnightblue" stroke="midnightblue" points="288.5,-40.52 285,-30.52 281.5,-40.52 288.5,-40.52"/>
</g>
<!-- Node8 -->
<g id="node8" class="node">
<title>Node8</title>
<g id="a_node8"><a xlink:title=" ">
<polygon fill="white" stroke="#bfbfbf" points="363,-6 363,-25 509,-25 509,-6 363,-6"/>
<text text-anchor="middle" x="436" y="-13" font-family="Helvetica,sans-Serif" font-size="10.00">drake/common/symbolic.h</text>
</a>
</g>
</g>
<!-- Node5&#45;&gt;Node8 -->
<g id="edge8" class="edge">
<title>Node5&#45;&gt;Node8</title>
<path fill="none" stroke="midnightblue" d="M306.63,-67.48C332.42,-57.31 375.71,-40.26 405.04,-28.7"/>
<polygon fill="midnightblue" stroke="midnightblue" points="406.38,-31.93 414.41,-25.01 403.82,-25.42 406.38,-31.93"/>
</g>
<!-- Node10 -->
<g id="node10" class="node">
<title>Node10</title>
<g id="a_node10"><a xlink:title=" ">
<polygon fill="white" stroke="#bfbfbf" points="527,-6 527,-25 571,-25 571,-6 527,-6"/>
<text text-anchor="middle" x="549" y="-13" font-family="Helvetica,sans-Serif" font-size="10.00">string</text>
</a>
</g>
</g>
<!-- Node9&#45;&gt;Node10 -->
<g id="edge10" class="edge">
<title>Node9&#45;&gt;Node10</title>
<path fill="none" stroke="midnightblue" d="M549,-67.48C549,-59.08 549,-45.98 549,-35.16"/>
<polygon fill="midnightblue" stroke="midnightblue" points="552.5,-35.01 549,-25.01 545.5,-35.01 552.5,-35.01"/>
</g>
<!-- Node11 -->
<g id="node11" class="node">
<title>Node11</title>
<g id="a_node11"><a xlink:title=" ">
<polygon fill="white" stroke="#bfbfbf" points="589.5,-0.5 589.5,-30.5 708.5,-30.5 708.5,-0.5 589.5,-0.5"/>
<text text-anchor="start" x="597.5" y="-18.5" font-family="Helvetica,sans-Serif" font-size="10.00">drake/common/drake</text>
<text text-anchor="middle" x="649" y="-7.5" font-family="Helvetica,sans-Serif" font-size="10.00">_assert.h</text>
</a>
</g>
</g>
<!-- Node9&#45;&gt;Node11 -->
<g id="edge11" class="edge">
<title>Node9&#45;&gt;Node11</title>
<path fill="none" stroke="midnightblue" d="M563.33,-67.48C577.12,-59.27 598.48,-46.56 616.42,-35.88"/>
<polygon fill="midnightblue" stroke="midnightblue" points="618.63,-38.64 625.43,-30.52 615.05,-32.63 618.63,-38.64"/>
</g>
<!-- Node12 -->
<g id="node12" class="node">
<title>Node12</title>
<g id="a_node12"><a xlink:title=" ">
<polygon fill="white" stroke="#bfbfbf" points="726.5,-0.5 726.5,-30.5 845.5,-30.5 845.5,-0.5 726.5,-0.5"/>
<text text-anchor="start" x="734.5" y="-18.5" font-family="Helvetica,sans-Serif" font-size="10.00">drake/common/drake</text>
<text text-anchor="middle" x="786" y="-7.5" font-family="Helvetica,sans-Serif" font-size="10.00">_copyable.h</text>
</a>
</g>
</g>
<!-- Node9&#45;&gt;Node12 -->
<g id="edge12" class="edge">
<title>Node9&#45;&gt;Node12</title>
<path fill="none" stroke="midnightblue" d="M582.96,-67.48C618.65,-58.51 675.71,-44.19 720.26,-33"/>
<polygon fill="midnightblue" stroke="midnightblue" points="721.3,-36.35 730.14,-30.52 719.59,-29.56 721.3,-36.35"/>
</g>
</g>
</svg>
