<?xml version="1.0" encoding="UTF-8" standalone="no"?>
<!DOCTYPE svg PUBLIC "-//W3C//DTD SVG 1.1//EN"
 "http://www.w3.org/Graphics/SVG/1.1/DTD/svg11.dtd">
<!-- Generated by graphviz version 2.43.0 (0)
 -->
<!-- Title: maliput_to_dot.cc Pages: 1 -->
<svg width="1396pt" height="151pt"
 viewBox="0.00 0.00 1396.00 151.00" xmlns="http://www.w3.org/2000/svg" xmlns:xlink="http://www.w3.org/1999/xlink">
<g id="graph0" class="graph" transform="scale(1 1) rotate(0) translate(4 147)">
<title>maliput_to_dot.cc</title>
<polygon fill="white" stroke="transparent" points="-4,4 -4,-147 1392,-147 1392,4 -4,4"/>
<!-- Node1 -->
<g id="node1" class="node">
<title>Node1</title>
<g id="a_node1"><a xlink:title=" ">
<polygon fill="#bfbfbf" stroke="black" points="534,-123.5 534,-142.5 638,-142.5 638,-123.5 534,-123.5"/>
<text text-anchor="middle" x="586" y="-130.5" font-family="Helvetica,sans-Serif" font-size="10.00">maliput_to_dot.cc</text>
</a>
</g>
</g>
<!-- Node2 -->
<g id="node2" class="node">
<title>Node2</title>
<g id="a_node2"><a xlink:title=" ">
<polygon fill="white" stroke="#bfbfbf" points="162.5,-62 162.5,-81 217.5,-81 217.5,-62 162.5,-62"/>
<text text-anchor="middle" x="190" y="-69" font-family="Helvetica,sans-Serif" font-size="10.00">fstream</text>
</a>
</g>
</g>
<!-- Node1&#45;&gt;Node2 -->
<g id="edge1" class="edge">
<title>Node1&#45;&gt;Node2</title>
<path fill="none" stroke="midnightblue" d="M533.82,-129.53C463.28,-125.27 333.99,-114.22 227,-87 224.33,-86.32 221.6,-85.5 218.89,-84.6"/>
<polygon fill="midnightblue" stroke="midnightblue" points="219.88,-81.24 209.29,-81.1 217.48,-87.82 219.88,-81.24"/>
</g>
<!-- Node3 -->
<g id="node3" class="node">
<title>Node3</title>
<g id="a_node3"><a xlink:title=" ">
<polygon fill="white" stroke="#bfbfbf" points="236,-62 236,-81 280,-81 280,-62 236,-62"/>
<text text-anchor="middle" x="258" y="-69" font-family="Helvetica,sans-Serif" font-size="10.00">limits</text>
</a>
</g>
</g>
<!-- Node1&#45;&gt;Node3 -->
<g id="edge2" class="edge">
<title>Node1&#45;&gt;Node3</title>
<path fill="none" stroke="midnightblue" d="M533.82,-127.61C474.81,-121.81 376.23,-109.57 294,-87 291.5,-86.31 288.94,-85.51 286.39,-84.63"/>
<polygon fill="midnightblue" stroke="midnightblue" points="287.37,-81.26 276.78,-81.01 284.9,-87.81 287.37,-81.26"/>
</g>
<!-- Node4 -->
<g id="node4" class="node">
<title>Node4</title>
<g id="a_node4"><a xlink:title=" ">
<polygon fill="white" stroke="#bfbfbf" points="0,-0.5 0,-19.5 44,-19.5 44,-0.5 0,-0.5"/>
<text text-anchor="middle" x="22" y="-7.5" font-family="Helvetica,sans-Serif" font-size="10.00">string</text>
</a>
</g>
</g>
<!-- Node1&#45;&gt;Node4 -->
<g id="edge3" class="edge">
<title>Node1&#45;&gt;Node4</title>
<path fill="none" stroke="midnightblue" d="M533.84,-130.66C479.85,-127.53 394.16,-117.65 327,-87 307.17,-77.95 308.92,-64.84 289,-56 194.96,-14.25 158.82,-41.1 54.26,-19.96"/>
<polygon fill="midnightblue" stroke="midnightblue" points="54.77,-16.5 44.26,-17.84 53.32,-23.34 54.77,-16.5"/>
</g>
<!-- Node5 -->
<g id="node5" class="node">
<title>Node5</title>
<g id="a_node5"><a xlink:title=" ">
<polygon fill="white" stroke="#bfbfbf" points="557.5,-0.5 557.5,-19.5 646.5,-19.5 646.5,-0.5 557.5,-0.5"/>
<text text-anchor="middle" x="602" y="-7.5" font-family="Helvetica,sans-Serif" font-size="10.00">gflags/gflags.h</text>
</a>
</g>
</g>
<!-- Node1&#45;&gt;Node5 -->
<g id="edge4" class="edge">
<title>Node1&#45;&gt;Node5</title>
<path fill="none" stroke="midnightblue" d="M587.15,-123.3C589.73,-103.76 596.04,-56.06 599.55,-29.55"/>
<polygon fill="midnightblue" stroke="midnightblue" points="603.02,-30 600.86,-19.62 596.08,-29.08 603.02,-30"/>
</g>
<!-- Node6 -->
<g id="node6" class="node">
<title>Node6</title>
<g id="a_node6"><a xlink:href="../../maliput/html/filesystem_8h.html.html" xlink:title=" ">
<polygon fill="white" stroke="black" points="614,-62 614,-81 778,-81 778,-62 614,-62"/>
<text text-anchor="middle" x="696" y="-69" font-family="Helvetica,sans-Serif" font-size="10.00">maliput/common/filesystem.h</text>
</a>
</g>
</g>
<!-- Node1&#45;&gt;Node6 -->
<g id="edge5" class="edge">
<title>Node1&#45;&gt;Node6</title>
<path fill="none" stroke="midnightblue" d="M601.76,-123.48C619.98,-113.62 650.17,-97.29 671.47,-85.77"/>
<polygon fill="midnightblue" stroke="midnightblue" points="673.14,-88.85 680.27,-81.01 669.81,-82.69 673.14,-88.85"/>
</g>
<!-- Node7 -->
<g id="node7" class="node">
<title>Node7</title>
<g id="a_node7"><a xlink:href="../../maliput/html/logger_8h.html.html" xlink:title=" ">
<polygon fill="white" stroke="black" points="796.5,-62 796.5,-81 939.5,-81 939.5,-62 796.5,-62"/>
<text text-anchor="middle" x="868" y="-69" font-family="Helvetica,sans-Serif" font-size="10.00">maliput/common/logger.h</text>
</a>
</g>
</g>
<!-- Node1&#45;&gt;Node7 -->
<g id="edge6" class="edge">
<title>Node1&#45;&gt;Node7</title>
<path fill="none" stroke="midnightblue" d="M626.4,-123.48C676.87,-112.83 763.21,-94.61 817.85,-83.08"/>
<polygon fill="midnightblue" stroke="midnightblue" points="818.61,-86.5 827.67,-81.01 817.16,-79.65 818.61,-86.5"/>
</g>
<!-- Node8 -->
<g id="node8" class="node">
<title>Node8</title>
<g id="a_node8"><a xlink:href="../../maliput/html/maliput__abort_8h.html.html" xlink:title=" ">
<polygon fill="white" stroke="black" points="958,-56.5 958,-86.5 1098,-86.5 1098,-56.5 958,-56.5"/>
<text text-anchor="start" x="966" y="-74.5" font-family="Helvetica,sans-Serif" font-size="10.00">maliput/common/maliput</text>
<text text-anchor="middle" x="1028" y="-63.5" font-family="Helvetica,sans-Serif" font-size="10.00">_abort.h</text>
</a>
</g>
</g>
<!-- Node1&#45;&gt;Node8 -->
<g id="edge7" class="edge">
<title>Node1&#45;&gt;Node8</title>
<path fill="none" stroke="midnightblue" d="M638.13,-126.5C706.75,-119.05 831.38,-104.78 947.68,-87.15"/>
<polygon fill="midnightblue" stroke="midnightblue" points="948.47,-90.57 957.82,-85.6 947.41,-83.65 948.47,-90.57"/>
</g>
<!-- Node9 -->
<g id="node9" class="node">
<title>Node9</title>
<g id="a_node9"><a xlink:href="../../maliput/html/graph_8h.html.html" xlink:title=" ">
<polygon fill="white" stroke="black" points="1116,-56.5 1116,-86.5 1238,-86.5 1238,-56.5 1116,-56.5"/>
<text text-anchor="start" x="1124" y="-74.5" font-family="Helvetica,sans-Serif" font-size="10.00">maliput/routing/graph</text>
<text text-anchor="middle" x="1177" y="-63.5" font-family="Helvetica,sans-Serif" font-size="10.00">/graph.h</text>
</a>
</g>
</g>
<!-- Node1&#45;&gt;Node9 -->
<g id="edge8" class="edge">
<title>Node1&#45;&gt;Node9</title>
<path fill="none" stroke="midnightblue" d="M638.37,-129.53C730.79,-124.72 929.01,-112.4 1105.98,-87.03"/>
<polygon fill="midnightblue" stroke="midnightblue" points="1106.6,-90.48 1115.99,-85.58 1105.59,-83.55 1106.6,-90.48"/>
</g>
<!-- Node10 -->
<g id="node10" class="node">
<title>Node10</title>
<g id="a_node10"><a xlink:href="../../maliput/html/generate__dot_8h.html.html" xlink:title=" ">
<polygon fill="white" stroke="black" points="1256,-56.5 1256,-86.5 1388,-86.5 1388,-56.5 1256,-56.5"/>
<text text-anchor="start" x="1264" y="-74.5" font-family="Helvetica,sans-Serif" font-size="10.00">maliput/utility/generate</text>
<text text-anchor="middle" x="1322" y="-63.5" font-family="Helvetica,sans-Serif" font-size="10.00">_dot.h</text>
</a>
</g>
</g>
<!-- Node1&#45;&gt;Node10 -->
<g id="edge9" class="edge">
<title>Node1&#45;&gt;Node10</title>
<path fill="none" stroke="midnightblue" d="M638.06,-130.63C748.36,-127.26 1013.79,-116.67 1245.84,-87.04"/>
<polygon fill="midnightblue" stroke="midnightblue" points="1246.35,-90.51 1255.82,-85.75 1245.45,-83.56 1246.35,-90.51"/>
</g>
<!-- Node11 -->
<g id="node11" class="node">
<title>Node11</title>
<g id="a_node11"><a xlink:href="tools_8h.html" target="_top" xlink:title=" ">
<polygon fill="white" stroke="black" points="336,-62 336,-81 442,-81 442,-62 336,-62"/>
<text text-anchor="middle" x="389" y="-69" font-family="Helvetica,sans-Serif" font-size="10.00">integration/tools.h</text>
</a>
</g>
</g>
<!-- Node1&#45;&gt;Node11 -->
<g id="edge10" class="edge">
<title>Node1&#45;&gt;Node11</title>
<path fill="none" stroke="midnightblue" d="M557.77,-123.48C523.4,-113.09 465.19,-95.51 426.92,-83.95"/>
<polygon fill="midnightblue" stroke="midnightblue" points="427.76,-80.55 417.17,-81.01 425.73,-87.25 427.76,-80.55"/>
</g>
<!-- Node16 -->
<g id="node16" class="node">
<title>Node16</title>
<g id="a_node16"><a xlink:href="maliput__gflags_8h.html" target="_top" xlink:title=" ">
<polygon fill="white" stroke="black" points="460,-62 460,-81 558,-81 558,-62 460,-62"/>
<text text-anchor="middle" x="509" y="-69" font-family="Helvetica,sans-Serif" font-size="10.00">maliput_gflags.h</text>
</a>
</g>
</g>
<!-- Node1&#45;&gt;Node16 -->
<g id="edge16" class="edge">
<title>Node1&#45;&gt;Node16</title>
<path fill="none" stroke="midnightblue" d="M574.97,-123.48C562.73,-114.02 542.77,-98.6 528.01,-87.19"/>
<polygon fill="midnightblue" stroke="midnightblue" points="530.06,-84.35 520.01,-81.01 525.78,-89.89 530.06,-84.35"/>
</g>
<!-- Node11&#45;&gt;Node4 -->
<g id="edge13" class="edge">
<title>Node11&#45;&gt;Node4</title>
<path fill="none" stroke="midnightblue" d="M352.24,-61.99C342.45,-59.87 331.85,-57.72 322,-56 206.31,-35.77 172.78,-44.4 54.08,-19.95"/>
<polygon fill="midnightblue" stroke="midnightblue" points="54.76,-16.52 44.25,-17.89 53.32,-23.37 54.76,-16.52"/>
</g>
<!-- Node12 -->
<g id="node12" class="node">
<title>Node12</title>
<g id="a_node12"><a xlink:title=" ">
<polygon fill="white" stroke="#bfbfbf" points="62,-0.5 62,-19.5 120,-19.5 120,-0.5 62,-0.5"/>
<text text-anchor="middle" x="91" y="-7.5" font-family="Helvetica,sans-Serif" font-size="10.00">memory</text>
</a>
</g>
</g>
<!-- Node11&#45;&gt;Node12 -->
<g id="edge11" class="edge">
<title>Node11&#45;&gt;Node12</title>
<path fill="none" stroke="midnightblue" d="M350.42,-61.95C341.13,-59.95 331.22,-57.86 322,-56 239.55,-39.39 216.05,-38.13 129.96,-20.12"/>
<polygon fill="midnightblue" stroke="midnightblue" points="130.52,-16.66 120.01,-18.02 129.08,-23.51 130.52,-16.66"/>
</g>
<!-- Node13 -->
<g id="node13" class="node">
<title>Node13</title>
<g id="a_node13"><a xlink:title=" ">
<polygon fill="white" stroke="#bfbfbf" points="483,-0.5 483,-19.5 539,-19.5 539,-0.5 483,-0.5"/>
<text text-anchor="middle" x="511" y="-7.5" font-family="Helvetica,sans-Serif" font-size="10.00">optional</text>
</a>
</g>
</g>
<!-- Node11&#45;&gt;Node13 -->
<g id="edge12" class="edge">
<title>Node11&#45;&gt;Node13</title>
<path fill="none" stroke="midnightblue" d="M406.48,-61.98C426.86,-52.03 460.78,-35.49 484.42,-23.96"/>
<polygon fill="midnightblue" stroke="midnightblue" points="486.1,-27.04 493.55,-19.51 483.03,-20.75 486.1,-27.04"/>
</g>
<!-- Node14 -->
<g id="node14" class="node">
<title>Node14</title>
<g id="a_node14"><a xlink:title=" ">
<polygon fill="white" stroke="#bfbfbf" points="138.5,-0.5 138.5,-19.5 295.5,-19.5 295.5,-0.5 138.5,-0.5"/>
<text text-anchor="middle" x="217" y="-7.5" font-family="Helvetica,sans-Serif" font-size="10.00">maliput/api/road_geometry.h</text>
</a>
</g>
</g>
<!-- Node11&#45;&gt;Node14 -->
<g id="edge14" class="edge">
<title>Node11&#45;&gt;Node14</title>
<path fill="none" stroke="midnightblue" d="M364.36,-61.98C334.72,-51.72 284.82,-34.46 251.4,-22.9"/>
<polygon fill="midnightblue" stroke="midnightblue" points="252.19,-19.47 241.6,-19.51 249.9,-26.09 252.19,-19.47"/>
</g>
<!-- Node15 -->
<g id="node15" class="node">
<title>Node15</title>
<g id="a_node15"><a xlink:href="../../maliput/html/road__network_8h.html.html" xlink:title=" ">
<polygon fill="white" stroke="black" points="313.5,-0.5 313.5,-19.5 464.5,-19.5 464.5,-0.5 313.5,-0.5"/>
<text text-anchor="middle" x="389" y="-7.5" font-family="Helvetica,sans-Serif" font-size="10.00">maliput/api/road_network.h</text>
</a>
</g>
</g>
<!-- Node11&#45;&gt;Node15 -->
<g id="edge15" class="edge">
<title>Node11&#45;&gt;Node15</title>
<path fill="none" stroke="midnightblue" d="M389,-61.98C389,-53.58 389,-40.48 389,-29.66"/>
<polygon fill="midnightblue" stroke="midnightblue" points="392.5,-29.51 389,-19.51 385.5,-29.51 392.5,-29.51"/>
</g>
<!-- Node16&#45;&gt;Node5 -->
<g id="edge18" class="edge">
<title>Node16&#45;&gt;Node5</title>
<path fill="none" stroke="midnightblue" d="M522.32,-61.98C537.38,-52.34 562.12,-36.52 580.04,-25.05"/>
<polygon fill="midnightblue" stroke="midnightblue" points="582.16,-27.85 588.7,-19.51 578.39,-21.95 582.16,-27.85"/>
</g>
<!-- Node16&#45;&gt;Node13 -->
<g id="edge17" class="edge">
<title>Node16&#45;&gt;Node13</title>
<path fill="none" stroke="midnightblue" d="M509.29,-61.98C509.57,-53.58 510.01,-40.48 510.37,-29.66"/>
<polygon fill="midnightblue" stroke="midnightblue" points="513.88,-29.62 510.71,-19.51 506.88,-29.39 513.88,-29.62"/>
</g>
</g>
</svg>
