<?xml version="1.0" encoding="UTF-8" standalone="no"?>
<!DOCTYPE svg PUBLIC "-//W3C//DTD SVG 1.1//EN"
 "http://www.w3.org/Graphics/SVG/1.1/DTD/svg11.dtd">
<!-- Generated by graphviz version 2.43.0 (0)
 -->
<!-- Title: api_py.cc Pages: 1 -->
<svg width="1149pt" height="95pt"
 viewBox="0.00 0.00 1148.50 95.00" xmlns="http://www.w3.org/2000/svg" xmlns:xlink="http://www.w3.org/1999/xlink">
<g id="graph0" class="graph" transform="scale(1 1) rotate(0) translate(4 91)">
<title>api_py.cc</title>
<polygon fill="white" stroke="transparent" points="-4,4 -4,-91 1144.5,-91 1144.5,4 -4,4"/>
<!-- Node1 -->
<g id="node1" class="node">
<title>Node1</title>
<g id="a_node1"><a xlink:title=" ">
<polygon fill="#bfbfbf" stroke="black" points="545,-67.5 545,-86.5 606,-86.5 606,-67.5 545,-67.5"/>
<text text-anchor="middle" x="575.5" y="-74.5" font-family="Helvetica,sans-Serif" font-size="10.00">api_py.cc</text>
</a>
</g>
</g>
<!-- Node2 -->
<g id="node2" class="node">
<title>Node2</title>
<g id="a_node2"><a xlink:title=" ">
<polygon fill="white" stroke="#bfbfbf" points="0,-6 0,-25 125,-25 125,-6 0,-6"/>
<text text-anchor="middle" x="62.5" y="-13" font-family="Helvetica,sans-Serif" font-size="10.00">maliput/math/vector.h</text>
</a>
</g>
</g>
<!-- Node1&#45;&gt;Node2 -->
<g id="edge1" class="edge">
<title>Node1&#45;&gt;Node2</title>
<path fill="none" stroke="midnightblue" d="M544.9,-73.91C473,-68.76 287.83,-54.21 134.5,-31 126.96,-29.86 119.02,-28.46 111.27,-26.99"/>
<polygon fill="midnightblue" stroke="midnightblue" points="111.73,-23.51 101.24,-25.02 110.38,-30.38 111.73,-23.51"/>
</g>
<!-- Node3 -->
<g id="node3" class="node">
<title>Node3</title>
<g id="a_node3"><a xlink:href="../../maliput_object/html/bounding__region_8h.html.html" xlink:title=" ">
<polygon fill="white" stroke="black" points="143.5,-0.5 143.5,-30.5 253.5,-30.5 253.5,-0.5 143.5,-0.5"/>
<text text-anchor="start" x="151.5" y="-18.5" font-family="Helvetica,sans-Serif" font-size="10.00">maliput_object/api</text>
<text text-anchor="middle" x="198.5" y="-7.5" font-family="Helvetica,sans-Serif" font-size="10.00">/bounding_region.h</text>
</a>
</g>
</g>
<!-- Node1&#45;&gt;Node3 -->
<g id="edge2" class="edge">
<title>Node1&#45;&gt;Node3</title>
<path fill="none" stroke="midnightblue" d="M544.71,-72.4C490.1,-65.84 372.5,-50.92 263.45,-31.09"/>
<polygon fill="midnightblue" stroke="midnightblue" points="264.07,-27.64 253.6,-29.28 262.8,-34.53 264.07,-27.64"/>
</g>
<!-- Node4 -->
<g id="node4" class="node">
<title>Node4</title>
<g id="a_node4"><a xlink:href="../../maliput_object/html/object_8h.html.html" xlink:title=" ">
<polygon fill="white" stroke="black" points="272,-0.5 272,-30.5 379,-30.5 379,-0.5 272,-0.5"/>
<text text-anchor="start" x="280" y="-18.5" font-family="Helvetica,sans-Serif" font-size="10.00">maliput_object/api</text>
<text text-anchor="middle" x="325.5" y="-7.5" font-family="Helvetica,sans-Serif" font-size="10.00">/object.h</text>
</a>
</g>
</g>
<!-- Node1&#45;&gt;Node4 -->
<g id="edge3" class="edge">
<title>Node1&#45;&gt;Node4</title>
<path fill="none" stroke="midnightblue" d="M544.85,-68.7C506.22,-59.51 438.86,-43.48 388.94,-31.6"/>
<polygon fill="midnightblue" stroke="midnightblue" points="389.75,-28.19 379.21,-29.28 388.13,-35 389.75,-28.19"/>
</g>
<!-- Node5 -->
<g id="node5" class="node">
<title>Node5</title>
<g id="a_node5"><a xlink:href="../../maliput_object/html/object__book_8h.html.html" xlink:title=" ">
<polygon fill="white" stroke="black" points="397,-0.5 397,-30.5 504,-30.5 504,-0.5 397,-0.5"/>
<text text-anchor="start" x="405" y="-18.5" font-family="Helvetica,sans-Serif" font-size="10.00">maliput_object/api</text>
<text text-anchor="middle" x="450.5" y="-7.5" font-family="Helvetica,sans-Serif" font-size="10.00">/object_book.h</text>
</a>
</g>
</g>
<!-- Node1&#45;&gt;Node5 -->
<g id="edge4" class="edge">
<title>Node1&#45;&gt;Node5</title>
<path fill="none" stroke="midnightblue" d="M557.59,-67.48C539.79,-59 511.92,-45.74 489.08,-34.86"/>
<polygon fill="midnightblue" stroke="midnightblue" points="490.49,-31.66 479.96,-30.52 487.49,-37.98 490.49,-31.66"/>
</g>
<!-- Node6 -->
<g id="node6" class="node">
<title>Node6</title>
<g id="a_node6"><a xlink:href="../../maliput_object/html/object__query_8h.html.html" xlink:title=" ">
<polygon fill="white" stroke="black" points="522,-0.5 522,-30.5 629,-30.5 629,-0.5 522,-0.5"/>
<text text-anchor="start" x="530" y="-18.5" font-family="Helvetica,sans-Serif" font-size="10.00">maliput_object/api</text>
<text text-anchor="middle" x="575.5" y="-7.5" font-family="Helvetica,sans-Serif" font-size="10.00">/object_query.h</text>
</a>
</g>
</g>
<!-- Node1&#45;&gt;Node6 -->
<g id="edge5" class="edge">
<title>Node1&#45;&gt;Node6</title>
<path fill="none" stroke="midnightblue" d="M575.5,-67.48C575.5,-60.47 575.5,-50.19 575.5,-40.7"/>
<polygon fill="midnightblue" stroke="midnightblue" points="579,-40.52 575.5,-30.52 572,-40.52 579,-40.52"/>
</g>
<!-- Node7 -->
<g id="node7" class="node">
<title>Node7</title>
<g id="a_node7"><a xlink:href="../../maliput_object/html/overlapping__type_8h.html.html" xlink:title=" ">
<polygon fill="white" stroke="black" points="647,-0.5 647,-30.5 760,-30.5 760,-0.5 647,-0.5"/>
<text text-anchor="start" x="655" y="-18.5" font-family="Helvetica,sans-Serif" font-size="10.00">maliput_object/api</text>
<text text-anchor="middle" x="703.5" y="-7.5" font-family="Helvetica,sans-Serif" font-size="10.00">/overlapping_type.h</text>
</a>
</g>
</g>
<!-- Node1&#45;&gt;Node7 -->
<g id="edge6" class="edge">
<title>Node1&#45;&gt;Node7</title>
<path fill="none" stroke="midnightblue" d="M593.84,-67.48C612.07,-59 640.6,-45.74 664,-34.86"/>
<polygon fill="midnightblue" stroke="midnightblue" points="665.74,-37.91 673.33,-30.52 662.79,-31.56 665.74,-37.91"/>
</g>
<!-- Node8 -->
<g id="node8" class="node">
<title>Node8</title>
<g id="a_node8"><a xlink:title=" ">
<polygon fill="white" stroke="#bfbfbf" points="778.5,-6 778.5,-25 898.5,-25 898.5,-6 778.5,-6"/>
<text text-anchor="middle" x="838.5" y="-13" font-family="Helvetica,sans-Serif" font-size="10.00">pybind11/operators.h</text>
</a>
</g>
</g>
<!-- Node1&#45;&gt;Node8 -->
<g id="edge7" class="edge">
<title>Node1&#45;&gt;Node8</title>
<path fill="none" stroke="midnightblue" d="M606.18,-69.06C651.63,-58.78 737.22,-39.41 790.86,-27.28"/>
<polygon fill="midnightblue" stroke="midnightblue" points="791.84,-30.65 800.82,-25.03 790.29,-23.82 791.84,-30.65"/>
</g>
<!-- Node9 -->
<g id="node9" class="node">
<title>Node9</title>
<g id="a_node9"><a xlink:title=" ">
<polygon fill="white" stroke="#bfbfbf" points="917,-6 917,-25 1036,-25 1036,-6 917,-6"/>
<text text-anchor="middle" x="976.5" y="-13" font-family="Helvetica,sans-Serif" font-size="10.00">pybind11/pybind11.h</text>
</a>
</g>
</g>
<!-- Node1&#45;&gt;Node9 -->
<g id="edge8" class="edge">
<title>Node1&#45;&gt;Node9</title>
<path fill="none" stroke="midnightblue" d="M606.28,-72.58C665.04,-65.89 797.16,-50.05 907.5,-31 914.23,-29.84 921.3,-28.5 928.24,-27.1"/>
<polygon fill="midnightblue" stroke="midnightblue" points="929.18,-30.49 938.27,-25.05 927.77,-23.63 929.18,-30.49"/>
</g>
<!-- Node10 -->
<g id="node10" class="node">
<title>Node10</title>
<g id="a_node10"><a xlink:title=" ">
<polygon fill="white" stroke="#bfbfbf" points="1054.5,-6 1054.5,-25 1140.5,-25 1140.5,-6 1054.5,-6"/>
<text text-anchor="middle" x="1097.5" y="-13" font-family="Helvetica,sans-Serif" font-size="10.00">pybind11/stl.h</text>
</a>
</g>
</g>
<!-- Node1&#45;&gt;Node10 -->
<g id="edge9" class="edge">
<title>Node1&#45;&gt;Node10</title>
<path fill="none" stroke="midnightblue" d="M606,-74.94C681.24,-71.93 881.5,-61.47 1045.5,-31 1050.37,-30.1 1055.44,-28.95 1060.43,-27.69"/>
<polygon fill="midnightblue" stroke="midnightblue" points="1061.7,-30.98 1070.45,-25.02 1059.89,-24.21 1061.7,-30.98"/>
</g>
</g>
</svg>
