<?xml version="1.0" encoding="UTF-8" standalone="no"?>
<!DOCTYPE svg PUBLIC "-//W3C//DTD SVG 1.1//EN"
 "http://www.w3.org/Graphics/SVG/1.1/DTD/svg11.dtd">
<!-- Generated by graphviz version 2.43.0 (0)
 -->
<!-- Title: maliput_viewer_model.cc Pages: 1 -->
<!--zoomable 162 -->
<svg id="main" version="1.1" xmlns="http://www.w3.org/2000/svg" xmlns:xlink="http://www.w3.org/1999/xlink" xml:space="preserve" onload="init(evt)">
<style type="text/css"><![CDATA[
.edge:hover path { stroke: red; }
.edge:hover polygon { stroke: red; fill: red; }
]]></style>
<script type="text/javascript"><![CDATA[
var edges = document.getElementsByTagName('g');
if (edges && edges.length) {
  for (var i=0;i<edges.length;i++) {
    if (edges[i].id.substr(0,4)=='edge') {
      edges[i].setAttribute('class','edge');
    }
  }
}
]]></script>
        <defs>
                <circle id="rim" cx="0" cy="0" r="7"/>
                <circle id="rim2" cx="0" cy="0" r="3.5"/>
                <g id="zoomPlus">
                        <use xlink:href="#rim" fill="#404040">
                                <set attributeName="fill" to="#808080" begin="zoomplus.mouseover" end="zoomplus.mouseout"/>
                        </use>
                        <path d="M-4,0h8M0,-4v8" fill="none" stroke="white" stroke-width="1.5" pointer-events="none"/>
                </g>
                <g id="zoomMin">
                        <use xlink:href="#rim" fill="#404040">
                                <set attributeName="fill" to="#808080" begin="zoomminus.mouseover" end="zoomminus.mouseout"/>
                        </use>
                        <path d="M-4,0h8" fill="none" stroke="white" stroke-width="1.5" pointer-events="none"/>
                </g>
                <g id="dirArrow">
                        <path fill="none" stroke="white" stroke-width="1.5" d="M0,-3.0v7 M-2.5,-0.5L0,-3.0L2.5,-0.5"/>
                </g>
               <g id="resetDef">
                       <use xlink:href="#rim2" fill="#404040">
                               <set attributeName="fill" to="#808080" begin="reset.mouseover" end="reset.mouseout"/>
                       </use>
               </g>
        </defs>

<script type="text/javascript">
var viewWidth = 2195;
var viewHeight = 162;
var sectionId = 'dynsection-0';
</script>
<script xlink:href="svgpan.js"/>
<svg id="graph" class="graph">
<g id="viewport">
<title>maliput_viewer_model.cc</title>
<polygon fill="white" stroke="transparent" points="-4,4 -4,-158 2190.5,-158 2190.5,4 -4,4"/>
<!-- Node1 -->
<g id="node1" class="node">
<title>Node1</title>
<g id="a_node1"><a xlink:title=" ">
<polygon fill="#bfbfbf" stroke="black" points="884.5,-134.5 884.5,-153.5 1026.5,-153.5 1026.5,-134.5 884.5,-134.5"/>
<text text-anchor="middle" x="955.5" y="-141.5" font-family="Helvetica,sans-Serif" font-size="10.00">maliput_viewer_model.cc</text>
</a>
</g>
</g>
<!-- Node2 -->
<g id="node2" class="node">
<title>Node2</title>
<g id="a_node2"><a xlink:href="maliput__viewer__model_8hh.html" target="_top" xlink:title=" ">
<polygon fill="white" stroke="black" points="746,-73 746,-92 889,-92 889,-73 746,-73"/>
<text text-anchor="middle" x="817.5" y="-80" font-family="Helvetica,sans-Serif" font-size="10.00">maliput_viewer_model.hh</text>
</a>
</g>
</g>
<!-- Node1&#45;&gt;Node2 -->
<g id="edge1" class="edge">
<title>Node1&#45;&gt;Node2</title>
<path fill="none" stroke="midnightblue" d="M935.73,-134.48C912.36,-124.4 873.29,-107.55 846.5,-96"/>
<polygon fill="midnightblue" stroke="midnightblue" points="847.8,-92.75 837.24,-92.01 845.03,-99.18 847.8,-92.75"/>
</g>
<!-- Node3 -->
<g id="node3" class="node">
<title>Node3</title>
<g id="a_node3"><a xlink:title=" ">
<polygon fill="white" stroke="#bfbfbf" points="65.5,-6 65.5,-25 103.5,-25 103.5,-6 65.5,-6"/>
<text text-anchor="middle" x="84.5" y="-13" font-family="Helvetica,sans-Serif" font-size="10.00">map</text>
</a>
</g>
</g>
<!-- Node1&#45;&gt;Node3 -->
<g id="edge20" class="edge">
<title>Node1&#45;&gt;Node3</title>
<path fill="none" stroke="midnightblue" d="M884.22,-142.92C696.02,-142.17 195.84,-136.54 132.5,-98 109.41,-83.95 96.17,-54.27 89.66,-34.87"/>
<polygon fill="midnightblue" stroke="midnightblue" points="92.93,-33.61 86.64,-25.08 86.24,-35.66 92.93,-33.61"/>
</g>
<!-- Node7 -->
<g id="node7" class="node">
<title>Node7</title>
<g id="a_node7"><a xlink:title=" ">
<polygon fill="white" stroke="#bfbfbf" points="121.5,-6 121.5,-25 165.5,-25 165.5,-6 121.5,-6"/>
<text text-anchor="middle" x="143.5" y="-13" font-family="Helvetica,sans-Serif" font-size="10.00">string</text>
</a>
</g>
</g>
<!-- Node1&#45;&gt;Node7 -->
<g id="edge21" class="edge">
<title>Node1&#45;&gt;Node7</title>
<path fill="none" stroke="midnightblue" d="M884.47,-140.88C745.05,-134.96 427.14,-112.85 174.5,-31 172.83,-30.46 171.13,-29.85 169.43,-29.19"/>
<polygon fill="midnightblue" stroke="midnightblue" points="170.49,-25.84 159.92,-25.11 167.73,-32.27 170.49,-25.84"/>
</g>
<!-- Node15 -->
<g id="node15" class="node">
<title>Node15</title>
<g id="a_node15"><a xlink:href="../../maliput/html/phase_8h.html.html" xlink:title=" ">
<polygon fill="white" stroke="black" points="1896.5,-6 1896.5,-25 2036.5,-25 2036.5,-6 1896.5,-6"/>
<text text-anchor="middle" x="1966.5" y="-13" font-family="Helvetica,sans-Serif" font-size="10.00">maliput/api/rules/phase.h</text>
</a>
</g>
</g>
<!-- Node1&#45;&gt;Node15 -->
<g id="edge26" class="edge">
<title>Node1&#45;&gt;Node15</title>
<path fill="none" stroke="midnightblue" d="M949.81,-134.36C940.27,-118.68 923.73,-85.46 941.5,-67 977.98,-29.11 1835.22,-36.76 1887.5,-31 1896.76,-29.98 1906.57,-28.5 1916.01,-26.88"/>
<polygon fill="midnightblue" stroke="midnightblue" points="1916.85,-30.29 1926.07,-25.07 1915.61,-23.4 1916.85,-30.29"/>
</g>
<!-- Node18 -->
<g id="node18" class="node">
<title>Node18</title>
<g id="a_node18"><a xlink:href="../../maliput/html/generate__obj_8h.html.html" xlink:title=" ">
<polygon fill="white" stroke="black" points="2054.5,-0.5 2054.5,-30.5 2186.5,-30.5 2186.5,-0.5 2054.5,-0.5"/>
<text text-anchor="start" x="2062.5" y="-18.5" font-family="Helvetica,sans-Serif" font-size="10.00">maliput/utility/generate</text>
<text text-anchor="middle" x="2120.5" y="-7.5" font-family="Helvetica,sans-Serif" font-size="10.00">_obj.h</text>
</a>
</g>
</g>
<!-- Node1&#45;&gt;Node18 -->
<g id="edge28" class="edge">
<title>Node1&#45;&gt;Node18</title>
<path fill="none" stroke="midnightblue" d="M954.66,-134.2C953.66,-117.96 954.19,-83.41 974.5,-67 1019.22,-30.86 1921.41,-37.17 2044.29,-30.62"/>
<polygon fill="midnightblue" stroke="midnightblue" points="2044.62,-34.11 2054.33,-29.88 2044.1,-27.13 2044.62,-34.11"/>
</g>
<!-- Node19 -->
<g id="node19" class="node">
<title>Node19</title>
<g id="a_node19"><a xlink:href="../../maliput/html/mesh_8h.html.html" xlink:title=" ">
<polygon fill="white" stroke="black" points="184,-6 184,-25 309,-25 309,-6 184,-6"/>
<text text-anchor="middle" x="246.5" y="-13" font-family="Helvetica,sans-Serif" font-size="10.00">maliput/utility/mesh.h</text>
</a>
</g>
</g>
<!-- Node1&#45;&gt;Node19 -->
<g id="edge29" class="edge">
<title>Node1&#45;&gt;Node19</title>
<path fill="none" stroke="midnightblue" d="M904.14,-134.48C795.63,-116.37 535.15,-72.32 317.5,-31 310.94,-29.75 304.05,-28.4 297.24,-27.04"/>
<polygon fill="midnightblue" stroke="midnightblue" points="297.88,-23.6 287.39,-25.05 296.5,-30.46 297.88,-23.6"/>
</g>
<!-- Node20 -->
<g id="node20" class="node">
<title>Node20</title>
<g id="a_node20"><a xlink:title=" ">
<polygon fill="white" stroke="#bfbfbf" points="983.5,-73 983.5,-92 1043.5,-92 1043.5,-73 983.5,-73"/>
<text text-anchor="middle" x="1013.5" y="-80" font-family="Helvetica,sans-Serif" font-size="10.00">iostream</text>
</a>
</g>
</g>
<!-- Node1&#45;&gt;Node20 -->
<g id="edge19" class="edge">
<title>Node1&#45;&gt;Node20</title>
<path fill="none" stroke="midnightblue" d="M963.81,-134.48C972.68,-125.37 986.95,-110.74 997.92,-99.48"/>
<polygon fill="midnightblue" stroke="midnightblue" points="1000.73,-101.61 1005.21,-92.01 995.72,-96.73 1000.73,-101.61"/>
</g>
<!-- Node21 -->
<g id="node21" class="node">
<title>Node21</title>
<g id="a_node21"><a xlink:href="../../delphyne/html/road__builder_8h.html.html" xlink:title=" ">
<polygon fill="white" stroke="black" points="1061.5,-67.5 1061.5,-97.5 1177.5,-97.5 1177.5,-67.5 1061.5,-67.5"/>
<text text-anchor="start" x="1069.5" y="-85.5" font-family="Helvetica,sans-Serif" font-size="10.00">delphyne/roads/road</text>
<text text-anchor="middle" x="1119.5" y="-74.5" font-family="Helvetica,sans-Serif" font-size="10.00">_builder.h</text>
</a>
</g>
</g>
<!-- Node1&#45;&gt;Node21 -->
<g id="edge22" class="edge">
<title>Node1&#45;&gt;Node21</title>
<path fill="none" stroke="midnightblue" d="M979,-134.48C1002.97,-125.78 1040.87,-112.03 1071.27,-101"/>
<polygon fill="midnightblue" stroke="midnightblue" points="1072.64,-104.22 1080.85,-97.52 1070.25,-97.64 1072.64,-104.22"/>
</g>
<!-- Node22 -->
<g id="node22" class="node">
<title>Node22</title>
<g id="a_node22"><a xlink:title=" ">
<polygon fill="white" stroke="#bfbfbf" points="1195.5,-73 1195.5,-92 1351.5,-92 1351.5,-73 1195.5,-73"/>
<text text-anchor="middle" x="1273.5" y="-80" font-family="Helvetica,sans-Serif" font-size="10.00">ignition/common/Console.hh</text>
</a>
</g>
</g>
<!-- Node1&#45;&gt;Node22 -->
<g id="edge23" class="edge">
<title>Node1&#45;&gt;Node22</title>
<path fill="none" stroke="midnightblue" d="M1001.06,-134.48C1058.33,-123.76 1156.55,-105.38 1218.1,-93.87"/>
<polygon fill="midnightblue" stroke="midnightblue" points="1218.84,-97.29 1228.02,-92.01 1217.55,-90.41 1218.84,-97.29"/>
</g>
<!-- Node23 -->
<g id="node23" class="node">
<title>Node23</title>
<g id="a_node23"><a xlink:title=" ">
<polygon fill="white" stroke="#bfbfbf" points="1370,-67.5 1370,-97.5 1473,-97.5 1473,-67.5 1370,-67.5"/>
<text text-anchor="start" x="1378" y="-85.5" font-family="Helvetica,sans-Serif" font-size="10.00">ignition/rendering</text>
<text text-anchor="middle" x="1421.5" y="-74.5" font-family="Helvetica,sans-Serif" font-size="10.00">/RayQuery.hh</text>
</a>
</g>
</g>
<!-- Node1&#45;&gt;Node23 -->
<g id="edge24" class="edge">
<title>Node1&#45;&gt;Node23</title>
<path fill="none" stroke="midnightblue" d="M1026.84,-137.74C1105.89,-131.31 1237.29,-118.84 1359.75,-97.99"/>
<polygon fill="midnightblue" stroke="midnightblue" points="1360.42,-101.43 1369.68,-96.28 1359.23,-94.53 1360.42,-101.43"/>
</g>
<!-- Node24 -->
<g id="node24" class="node">
<title>Node24</title>
<g id="a_node24"><a xlink:href="../../maliput/html/lane__data_8h.html.html" xlink:title=" ">
<polygon fill="white" stroke="black" points="1491.5,-73 1491.5,-92 1623.5,-92 1623.5,-73 1491.5,-73"/>
<text text-anchor="middle" x="1557.5" y="-80" font-family="Helvetica,sans-Serif" font-size="10.00">maliput/api/lane_data.h</text>
</a>
</g>
</g>
<!-- Node1&#45;&gt;Node24 -->
<g id="edge25" class="edge">
<title>Node1&#45;&gt;Node24</title>
<path fill="none" stroke="midnightblue" d="M1026.52,-139.33C1127.99,-133.54 1320.15,-120.56 1482.5,-98 1490.62,-96.87 1499.2,-95.44 1507.54,-93.92"/>
<polygon fill="midnightblue" stroke="midnightblue" points="1508.36,-97.33 1517.54,-92.04 1507.06,-90.45 1508.36,-97.33"/>
</g>
<!-- Node25 -->
<g id="node25" class="node">
<title>Node25</title>
<g id="a_node25"><a xlink:title=" ">
<polygon fill="white" stroke="#bfbfbf" points="1642,-67.5 1642,-97.5 1773,-97.5 1773,-67.5 1642,-67.5"/>
<text text-anchor="start" x="1650" y="-85.5" font-family="Helvetica,sans-Serif" font-size="10.00">maliput/api/rules/traffic</text>
<text text-anchor="middle" x="1707.5" y="-74.5" font-family="Helvetica,sans-Serif" font-size="10.00">_light_book.h</text>
</a>
</g>
</g>
<!-- Node1&#45;&gt;Node25 -->
<g id="edge27" class="edge">
<title>Node1&#45;&gt;Node25</title>
<path fill="none" stroke="midnightblue" d="M1026.94,-141.18C1148.9,-137.42 1405.23,-126.74 1631.65,-97.99"/>
<polygon fill="midnightblue" stroke="midnightblue" points="1632.25,-101.44 1641.73,-96.7 1631.36,-94.5 1632.25,-101.44"/>
</g>
<!-- Node26 -->
<g id="node26" class="node">
<title>Node26</title>
<g id="a_node26"><a xlink:href="maliput__mesh__converter_8hh.html" target="_top" xlink:title=" ">
<polygon fill="white" stroke="black" points="142,-73 142,-92 295,-92 295,-73 142,-73"/>
<text text-anchor="middle" x="218.5" y="-80" font-family="Helvetica,sans-Serif" font-size="10.00">maliput_mesh_converter.hh</text>
</a>
</g>
</g>
<!-- Node1&#45;&gt;Node26 -->
<g id="edge30" class="edge">
<title>Node1&#45;&gt;Node26</title>
<path fill="none" stroke="midnightblue" d="M884.5,-137.27C748.77,-126.31 452.91,-102.42 305.54,-90.53"/>
<polygon fill="midnightblue" stroke="midnightblue" points="305.44,-87.01 295.19,-89.69 304.87,-93.98 305.44,-87.01"/>
</g>
<!-- Node2&#45;&gt;Node3 -->
<g id="edge2" class="edge">
<title>Node2&#45;&gt;Node3</title>
<path fill="none" stroke="midnightblue" d="M745.98,-80.04C591.29,-76.28 230.09,-64.14 112.5,-31 110.83,-30.53 109.15,-29.96 107.48,-29.31"/>
<polygon fill="midnightblue" stroke="midnightblue" points="108.83,-26.07 98.28,-25.05 105.88,-32.43 108.83,-26.07"/>
</g>
<!-- Node4 -->
<g id="node4" class="node">
<title>Node4</title>
<g id="a_node4"><a xlink:title=" ">
<polygon fill="white" stroke="#bfbfbf" points="637.5,-6 637.5,-25 695.5,-25 695.5,-6 637.5,-6"/>
<text text-anchor="middle" x="666.5" y="-13" font-family="Helvetica,sans-Serif" font-size="10.00">memory</text>
</a>
</g>
</g>
<!-- Node2&#45;&gt;Node4 -->
<g id="edge3" class="edge">
<title>Node2&#45;&gt;Node4</title>
<path fill="none" stroke="midnightblue" d="M797.45,-72.87C771.5,-61.7 726.08,-42.15 696.14,-29.26"/>
<polygon fill="midnightblue" stroke="midnightblue" points="697.2,-25.91 686.63,-25.17 694.44,-32.34 697.2,-25.91"/>
</g>
<!-- Node5 -->
<g id="node5" class="node">
<title>Node5</title>
<g id="a_node5"><a xlink:title=" ">
<polygon fill="white" stroke="#bfbfbf" points="714,-6 714,-25 771,-25 771,-6 714,-6"/>
<text text-anchor="middle" x="742.5" y="-13" font-family="Helvetica,sans-Serif" font-size="10.00">ostream</text>
</a>
</g>
</g>
<!-- Node2&#45;&gt;Node5 -->
<g id="edge4" class="edge">
<title>Node2&#45;&gt;Node5</title>
<path fill="none" stroke="midnightblue" d="M807.39,-72.73C795.35,-62.31 775.05,-44.71 760.35,-31.97"/>
<polygon fill="midnightblue" stroke="midnightblue" points="762.3,-29.03 752.45,-25.13 757.72,-34.32 762.3,-29.03"/>
</g>
<!-- Node6 -->
<g id="node6" class="node">
<title>Node6</title>
<g id="a_node6"><a xlink:title=" ">
<polygon fill="white" stroke="#bfbfbf" points="789.5,-6 789.5,-25 845.5,-25 845.5,-6 789.5,-6"/>
<text text-anchor="middle" x="817.5" y="-13" font-family="Helvetica,sans-Serif" font-size="10.00">sstream</text>
</a>
</g>
</g>
<!-- Node2&#45;&gt;Node6 -->
<g id="edge5" class="edge">
<title>Node2&#45;&gt;Node6</title>
<path fill="none" stroke="midnightblue" d="M817.5,-72.73C817.5,-63.18 817.5,-47.62 817.5,-35.28"/>
<polygon fill="midnightblue" stroke="midnightblue" points="821,-35.13 817.5,-25.13 814,-35.13 821,-35.13"/>
</g>
<!-- Node2&#45;&gt;Node7 -->
<g id="edge6" class="edge">
<title>Node2&#45;&gt;Node7</title>
<path fill="none" stroke="midnightblue" d="M745.86,-79.1C601.56,-73.74 280.67,-59.01 174.5,-31 172.52,-30.48 170.51,-29.83 168.51,-29.11"/>
<polygon fill="midnightblue" stroke="midnightblue" points="169.43,-25.7 158.86,-25.01 166.7,-32.14 169.43,-25.7"/>
</g>
<!-- Node8 -->
<g id="node8" class="node">
<title>Node8</title>
<g id="a_node8"><a xlink:href="../../delphyne/html/macros_8h.html.html" xlink:title=" ">
<polygon fill="white" stroke="black" points="863.5,-6 863.5,-25 973.5,-25 973.5,-6 863.5,-6"/>
<text text-anchor="middle" x="918.5" y="-13" font-family="Helvetica,sans-Serif" font-size="10.00">delphyne/macros.h</text>
</a>
</g>
</g>
<!-- Node2&#45;&gt;Node8 -->
<g id="edge7" class="edge">
<title>Node2&#45;&gt;Node8</title>
<path fill="none" stroke="midnightblue" d="M831.12,-72.73C847.93,-61.92 876.73,-43.38 896.64,-30.57"/>
<polygon fill="midnightblue" stroke="midnightblue" points="898.58,-33.48 905.09,-25.13 894.79,-27.6 898.58,-33.48"/>
</g>
<!-- Node9 -->
<g id="node9" class="node">
<title>Node9</title>
<g id="a_node9"><a xlink:title=" ">
<polygon fill="white" stroke="#bfbfbf" points="327,-6 327,-25 470,-25 470,-6 327,-6"/>
<text text-anchor="middle" x="398.5" y="-13" font-family="Helvetica,sans-Serif" font-size="10.00">ignition/common/Mesh.hh</text>
</a>
</g>
</g>
<!-- Node2&#45;&gt;Node9 -->
<g id="edge8" class="edge">
<title>Node2&#45;&gt;Node9</title>
<path fill="none" stroke="midnightblue" d="M756.48,-73C688.54,-63.4 575.52,-47.01 478.5,-31 470.58,-29.69 462.23,-28.25 454.03,-26.8"/>
<polygon fill="midnightblue" stroke="midnightblue" points="454.61,-23.35 444.15,-25.03 453.37,-30.24 454.61,-23.35"/>
</g>
<!-- Node10 -->
<g id="node10" class="node">
<title>Node10</title>
<g id="a_node10"><a xlink:title=" ">
<polygon fill="white" stroke="#bfbfbf" points="992,-6 992,-25 1129,-25 1129,-6 992,-6"/>
<text text-anchor="middle" x="1060.5" y="-13" font-family="Helvetica,sans-Serif" font-size="10.00">ignition/math/Vector3.hh</text>
</a>
</g>
</g>
<!-- Node2&#45;&gt;Node10 -->
<g id="edge9" class="edge">
<title>Node2&#45;&gt;Node10</title>
<path fill="none" stroke="midnightblue" d="M849.52,-72.94C892.95,-61.32 970.62,-40.54 1018.64,-27.7"/>
<polygon fill="midnightblue" stroke="midnightblue" points="1019.66,-31.05 1028.41,-25.08 1017.85,-24.29 1019.66,-31.05"/>
</g>
<!-- Node11 -->
<g id="node11" class="node">
<title>Node11</title>
<g id="a_node11"><a xlink:title=" ">
<polygon fill="white" stroke="#bfbfbf" points="1147,-6 1147,-25 1252,-25 1252,-6 1147,-6"/>
<text text-anchor="middle" x="1199.5" y="-13" font-family="Helvetica,sans-Serif" font-size="10.00">maliput/api/lane.h</text>
</a>
</g>
</g>
<!-- Node2&#45;&gt;Node11 -->
<g id="edge10" class="edge">
<title>Node2&#45;&gt;Node11</title>
<path fill="none" stroke="midnightblue" d="M867.5,-72.94C879.3,-70.95 891.84,-68.88 903.5,-67 1007.82,-50.22 1034.79,-51.23 1138.5,-31 1144.04,-29.92 1149.84,-28.68 1155.57,-27.39"/>
<polygon fill="midnightblue" stroke="midnightblue" points="1156.77,-30.71 1165.73,-25.05 1155.2,-23.89 1156.77,-30.71"/>
</g>
<!-- Node12 -->
<g id="node12" class="node">
<title>Node12</title>
<g id="a_node12"><a xlink:href="../../maliput/html/regions_8h.html.html" xlink:title=" ">
<polygon fill="white" stroke="black" points="1270.5,-6 1270.5,-25 1390.5,-25 1390.5,-6 1270.5,-6"/>
<text text-anchor="middle" x="1330.5" y="-13" font-family="Helvetica,sans-Serif" font-size="10.00">maliput/api/regions.h</text>
</a>
</g>
</g>
<!-- Node2&#45;&gt;Node12 -->
<g id="edge11" class="edge">
<title>Node2&#45;&gt;Node12</title>
<path fill="none" stroke="midnightblue" d="M864.73,-72.95C877.3,-70.84 890.89,-68.69 903.5,-67 1061.99,-45.69 1103.47,-55.48 1261.5,-31 1268.65,-29.89 1276.18,-28.52 1283.53,-27.07"/>
<polygon fill="midnightblue" stroke="midnightblue" points="1284.29,-30.49 1293.39,-25.06 1282.89,-23.63 1284.29,-30.49"/>
</g>
<!-- Node13 -->
<g id="node13" class="node">
<title>Node13</title>
<g id="a_node13"><a xlink:title=" ">
<polygon fill="white" stroke="#bfbfbf" points="1409,-6 1409,-25 1566,-25 1566,-6 1409,-6"/>
<text text-anchor="middle" x="1487.5" y="-13" font-family="Helvetica,sans-Serif" font-size="10.00">maliput/api/road_geometry.h</text>
</a>
</g>
</g>
<!-- Node2&#45;&gt;Node13 -->
<g id="edge12" class="edge">
<title>Node2&#45;&gt;Node13</title>
<path fill="none" stroke="midnightblue" d="M863.35,-72.94C876.3,-70.75 890.42,-68.57 903.5,-67 1122.94,-40.6 1180.01,-56.99 1399.5,-31 1409.53,-29.81 1420.17,-28.29 1430.45,-26.68"/>
<polygon fill="midnightblue" stroke="midnightblue" points="1431.26,-30.09 1440.57,-25.04 1430.14,-23.18 1431.26,-30.09"/>
</g>
<!-- Node14 -->
<g id="node14" class="node">
<title>Node14</title>
<g id="a_node14"><a xlink:href="../../maliput/html/road__network_8h.html.html" xlink:title=" ">
<polygon fill="white" stroke="black" points="1584,-6 1584,-25 1735,-25 1735,-6 1584,-6"/>
<text text-anchor="middle" x="1659.5" y="-13" font-family="Helvetica,sans-Serif" font-size="10.00">maliput/api/road_network.h</text>
</a>
</g>
</g>
<!-- Node2&#45;&gt;Node14 -->
<g id="edge13" class="edge">
<title>Node2&#45;&gt;Node14</title>
<path fill="none" stroke="midnightblue" d="M862.44,-72.93C875.63,-70.69 890.11,-68.48 903.5,-67 1200.78,-34.08 1278.29,-64.5 1575.5,-31 1585.43,-29.88 1595.96,-28.34 1606.09,-26.69"/>
<polygon fill="midnightblue" stroke="midnightblue" points="1606.77,-30.12 1616.04,-25 1605.6,-23.22 1606.77,-30.12"/>
</g>
<!-- Node2&#45;&gt;Node15 -->
<g id="edge14" class="edge">
<title>Node2&#45;&gt;Node15</title>
<path fill="none" stroke="midnightblue" d="M861.54,-72.94C874.96,-70.64 889.79,-68.4 903.5,-67 1338.86,-22.53 1452.47,-78.63 1887.5,-31 1896.96,-29.96 1907,-28.45 1916.63,-26.78"/>
<polygon fill="midnightblue" stroke="midnightblue" points="1917.26,-30.23 1926.48,-25.01 1916.01,-23.34 1917.26,-30.23"/>
</g>
<!-- Node16 -->
<g id="node16" class="node">
<title>Node16</title>
<g id="a_node16"><a xlink:href="../../maliput/html/right__of__way__rule_8h.html.html" xlink:title=" ">
<polygon fill="white" stroke="black" points="1753,-0.5 1753,-30.5 1878,-30.5 1878,-0.5 1753,-0.5"/>
<text text-anchor="start" x="1761" y="-18.5" font-family="Helvetica,sans-Serif" font-size="10.00">maliput/api/rules/right</text>
<text text-anchor="middle" x="1815.5" y="-7.5" font-family="Helvetica,sans-Serif" font-size="10.00">_of_way_rule.h</text>
</a>
</g>
</g>
<!-- Node2&#45;&gt;Node16 -->
<g id="edge15" class="edge">
<title>Node2&#45;&gt;Node16</title>
<path fill="none" stroke="midnightblue" d="M861.55,-72.99C874.97,-70.69 889.8,-68.44 903.5,-67 1272.29,-28.17 1371.43,-75.72 1742.92,-31.06"/>
<polygon fill="midnightblue" stroke="midnightblue" points="1743.36,-34.53 1752.87,-29.85 1742.52,-27.59 1743.36,-34.53"/>
</g>
<!-- Node17 -->
<g id="node17" class="node">
<title>Node17</title>
<g id="a_node17"><a xlink:href="../../maliput/html/traffic__lights_8h.html.html" xlink:title=" ">
<polygon fill="white" stroke="black" points="488,-0.5 488,-30.5 619,-30.5 619,-0.5 488,-0.5"/>
<text text-anchor="start" x="496" y="-18.5" font-family="Helvetica,sans-Serif" font-size="10.00">maliput/api/rules/traffic</text>
<text text-anchor="middle" x="553.5" y="-7.5" font-family="Helvetica,sans-Serif" font-size="10.00">_lights.h</text>
</a>
</g>
</g>
<!-- Node2&#45;&gt;Node17 -->
<g id="edge16" class="edge">
<title>Node2&#45;&gt;Node17</title>
<path fill="none" stroke="midnightblue" d="M782.72,-72.94C741.54,-62.8 672.06,-45.69 620.36,-32.96"/>
<polygon fill="midnightblue" stroke="midnightblue" points="621.15,-29.55 610.6,-30.56 619.48,-36.35 621.15,-29.55"/>
</g>
<!-- Node2&#45;&gt;Node18 -->
<g id="edge17" class="edge">
<title>Node2&#45;&gt;Node18</title>
<path fill="none" stroke="midnightblue" d="M881.44,-72.99C900.71,-70.7 921.94,-68.46 941.5,-67 1427.72,-30.71 1555.89,-85.01 2044.2,-31.01"/>
<polygon fill="midnightblue" stroke="midnightblue" points="2044.78,-34.47 2054.33,-29.88 2044.01,-27.51 2044.78,-34.47"/>
</g>
<!-- Node2&#45;&gt;Node19 -->
<g id="edge18" class="edge">
<title>Node2&#45;&gt;Node19</title>
<path fill="none" stroke="midnightblue" d="M745.69,-75.15C627.77,-64.56 398.15,-43.28 317.5,-31 310.06,-29.87 302.23,-28.47 294.58,-27"/>
<polygon fill="midnightblue" stroke="midnightblue" points="295.19,-23.55 284.7,-25.04 293.82,-30.42 295.19,-23.55"/>
</g>
<!-- Node26&#45;&gt;Node3 -->
<g id="edge31" class="edge">
<title>Node26&#45;&gt;Node3</title>
<path fill="none" stroke="midnightblue" d="M200.03,-72.93C178.81,-63.02 142.99,-46.15 112.5,-31 111.66,-30.58 110.81,-30.16 109.96,-29.73"/>
<polygon fill="midnightblue" stroke="midnightblue" points="111.24,-26.45 100.74,-25.03 108.06,-32.69 111.24,-26.45"/>
</g>
<!-- Node26&#45;&gt;Node7 -->
<g id="edge32" class="edge">
<title>Node26&#45;&gt;Node7</title>
<path fill="none" stroke="midnightblue" d="M208.39,-72.73C196.35,-62.31 176.05,-44.71 161.35,-31.97"/>
<polygon fill="midnightblue" stroke="midnightblue" points="163.3,-29.03 153.45,-25.13 158.72,-34.32 163.3,-29.03"/>
</g>
<!-- Node26&#45;&gt;Node9 -->
<g id="edge34" class="edge">
<title>Node26&#45;&gt;Node9</title>
<path fill="none" stroke="midnightblue" d="M242.4,-72.87C273.96,-61.47 329.68,-41.35 365.31,-28.49"/>
<polygon fill="midnightblue" stroke="midnightblue" points="366.57,-31.75 374.79,-25.06 364.19,-25.17 366.57,-31.75"/>
</g>
<!-- Node26&#45;&gt;Node19 -->
<g id="edge35" class="edge">
<title>Node26&#45;&gt;Node19</title>
<path fill="none" stroke="midnightblue" d="M222.28,-72.73C226.47,-62.99 233.37,-46.98 238.73,-34.53"/>
<polygon fill="midnightblue" stroke="midnightblue" points="242.04,-35.7 242.78,-25.13 235.61,-32.93 242.04,-35.7"/>
</g>
<!-- Node27 -->
<g id="node27" class="node">
<title>Node27</title>
<g id="a_node27"><a xlink:title=" ">
<polygon fill="white" stroke="#bfbfbf" points="0,-6 0,-25 47,-25 47,-6 0,-6"/>
<text text-anchor="middle" x="23.5" y="-13" font-family="Helvetica,sans-Serif" font-size="10.00">vector</text>
</a>
</g>
</g>
<!-- Node26&#45;&gt;Node27 -->
<g id="edge33" class="edge">
<title>Node26&#45;&gt;Node27</title>
<path fill="none" stroke="midnightblue" d="M187.4,-72.93C154.53,-63.6 101.34,-47.78 56.5,-31 54.89,-30.4 53.24,-29.76 51.59,-29.09"/>
<polygon fill="midnightblue" stroke="midnightblue" points="52.77,-25.79 42.2,-25.15 50.06,-32.25 52.77,-25.79"/>
</g>
</g>
</svg>
        <g id="navigator" transform="translate(0 0)" fill="#404254">
                <rect fill="#f2f5e9" fill-opacity="0.5" stroke="#606060" stroke-width=".5" x="0" y="0" width="60" height="60"/>
                <use id="zoomplus" xlink:href="#zoomPlus" x="17" y="9" onmousedown="handleZoom(evt,'in')"/>
                <use id="zoomminus" xlink:href="#zoomMin" x="42" y="9" onmousedown="handleZoom(evt,'out')"/>
                <use id="reset" xlink:href="#resetDef" x="30" y="36" onmousedown="handleReset()"/>
                <g id="arrowUp" xlink:href="#dirArrow" transform="translate(30 24)" onmousedown="handlePan(0,-1)">
                  <use xlink:href="#rim" fill="#404040">
                        <set attributeName="fill" to="#808080" begin="arrowUp.mouseover" end="arrowUp.mouseout"/>
                  </use>
                  <path fill="none" stroke="white" stroke-width="1.5" d="M0,-3.0v7 M-2.5,-0.5L0,-3.0L2.5,-0.5"/>
                </g>
                <g id="arrowRight" xlink:href="#dirArrow" transform="rotate(90) translate(36 -43)" onmousedown="handlePan(1,0)">
                  <use xlink:href="#rim" fill="#404040">
                        <set attributeName="fill" to="#808080" begin="arrowRight.mouseover" end="arrowRight.mouseout"/>
                  </use>
                  <path fill="none" stroke="white" stroke-width="1.5" d="M0,-3.0v7 M-2.5,-0.5L0,-3.0L2.5,-0.5"/>
                </g>
                <g id="arrowDown" xlink:href="#dirArrow" transform="rotate(180) translate(-30 -48)" onmousedown="handlePan(0,1)">
                  <use xlink:href="#rim" fill="#404040">
                        <set attributeName="fill" to="#808080" begin="arrowDown.mouseover" end="arrowDown.mouseout"/>
                  </use>
                  <path fill="none" stroke="white" stroke-width="1.5" d="M0,-3.0v7 M-2.5,-0.5L0,-3.0L2.5,-0.5"/>
                </g>
                <g id="arrowLeft" xlink:href="#dirArrow" transform="rotate(270) translate(-36 17)" onmousedown="handlePan(-1,0)">
                  <use xlink:href="#rim" fill="#404040">
                        <set attributeName="fill" to="#808080" begin="arrowLeft.mouseover" end="arrowLeft.mouseout"/>
                  </use>
                  <path fill="none" stroke="white" stroke-width="1.5" d="M0,-3.0v7 M-2.5,-0.5L0,-3.0L2.5,-0.5"/>
                </g>
        </g>
        <svg viewBox="0 0 15 15" width="100%" height="30px" preserveAspectRatio="xMaxYMin meet">
         <g id="arrow_out" transform="scale(0.3 0.3)">
          <a xlink:href="maliput__viewer__model_8cc__incl_org.svg" target="_base">
           <rect id="button" ry="5" rx="5" y="6" x="6" height="38" width="38"
                fill="#f2f5e9" fill-opacity="0.5" stroke="#606060" stroke-width="1.0"/>
           <path id="arrow"
             d="M 11.500037,31.436501 C 11.940474,20.09759 22.043105,11.32322 32.158766,21.979434 L 37.068811,17.246167 C 37.068811,17.246167 37.088388,32 37.088388,32 L 22.160133,31.978069 C 22.160133,31.978069 26.997745,27.140456 26.997745,27.140456 C 18.528582,18.264221 13.291696,25.230495 11.500037,31.436501 z"
             style="fill:#404040;"/>
          </a>
         </g>
        </svg>
</svg>
