<?xml version="1.0" encoding="UTF-8" standalone="no"?>
<!DOCTYPE svg PUBLIC "-//W3C//DTD SVG 1.1//EN"
 "http://www.w3.org/Graphics/SVG/1.1/DTD/svg11.dtd">
<!-- Generated by graphviz version 2.43.0 (0)
 -->
<!-- Title: maliput_mesh_converter.cc Pages: 1 -->
<!--zoomable 151 -->
<svg id="main" version="1.1" xmlns="http://www.w3.org/2000/svg" xmlns:xlink="http://www.w3.org/1999/xlink" xml:space="preserve" onload="init(evt)">
<style type="text/css"><![CDATA[
.edge:hover path { stroke: red; }
.edge:hover polygon { stroke: red; fill: red; }
]]></style>
<script type="text/javascript"><![CDATA[
var edges = document.getElementsByTagName('g');
if (edges && edges.length) {
  for (var i=0;i<edges.length;i++) {
    if (edges[i].id.substr(0,4)=='edge') {
      edges[i].setAttribute('class','edge');
    }
  }
}
]]></script>
        <defs>
                <circle id="rim" cx="0" cy="0" r="7"/>
                <circle id="rim2" cx="0" cy="0" r="3.5"/>
                <g id="zoomPlus">
                        <use xlink:href="#rim" fill="#404040">
                                <set attributeName="fill" to="#808080" begin="zoomplus.mouseover" end="zoomplus.mouseout"/>
                        </use>
                        <path d="M-4,0h8M0,-4v8" fill="none" stroke="white" stroke-width="1.5" pointer-events="none"/>
                </g>
                <g id="zoomMin">
                        <use xlink:href="#rim" fill="#404040">
                                <set attributeName="fill" to="#808080" begin="zoomminus.mouseover" end="zoomminus.mouseout"/>
                        </use>
                        <path d="M-4,0h8" fill="none" stroke="white" stroke-width="1.5" pointer-events="none"/>
                </g>
                <g id="dirArrow">
                        <path fill="none" stroke="white" stroke-width="1.5" d="M0,-3.0v7 M-2.5,-0.5L0,-3.0L2.5,-0.5"/>
                </g>
               <g id="resetDef">
                       <use xlink:href="#rim2" fill="#404040">
                               <set attributeName="fill" to="#808080" begin="reset.mouseover" end="reset.mouseout"/>
                       </use>
               </g>
        </defs>

<script type="text/javascript">
var viewWidth = 2330;
var viewHeight = 151;
var sectionId = 'dynsection-0';
</script>
<script xlink:href="svgpan.js"/>
<svg id="graph" class="graph">
<g id="viewport">
<title>maliput_mesh_converter.cc</title>
<polygon fill="white" stroke="transparent" points="-4,4 -4,-147 2325.5,-147 2325.5,4 -4,4"/>
<!-- Node1 -->
<g id="node1" class="node">
<title>Node1</title>
<g id="a_node1"><a xlink:title=" ">
<polygon fill="#bfbfbf" stroke="black" points="831,-123.5 831,-142.5 983,-142.5 983,-123.5 831,-123.5"/>
<text text-anchor="middle" x="907" y="-130.5" font-family="Helvetica,sans-Serif" font-size="10.00">maliput_mesh_converter.cc</text>
</a>
</g>
</g>
<!-- Node2 -->
<g id="node2" class="node">
<title>Node2</title>
<g id="a_node2"><a xlink:href="maliput__mesh__converter_8hh.html" target="_top" xlink:title=" ">
<polygon fill="white" stroke="black" points="117.5,-62 117.5,-81 270.5,-81 270.5,-62 117.5,-62"/>
<text text-anchor="middle" x="194" y="-69" font-family="Helvetica,sans-Serif" font-size="10.00">maliput_mesh_converter.hh</text>
</a>
</g>
</g>
<!-- Node1&#45;&gt;Node2 -->
<g id="edge1" class="edge">
<title>Node1&#45;&gt;Node2</title>
<path fill="none" stroke="midnightblue" d="M830.71,-128.38C713.84,-122.4 483.56,-108.9 289,-87 278.08,-85.77 266.5,-84.22 255.31,-82.58"/>
<polygon fill="midnightblue" stroke="midnightblue" points="255.58,-79.08 245.18,-81.07 254.55,-86.01 255.58,-79.08"/>
</g>
<!-- Node5 -->
<g id="node5" class="node">
<title>Node5</title>
<g id="a_node5"><a xlink:title=" ">
<polygon fill="white" stroke="#bfbfbf" points="279.5,-0.5 279.5,-19.5 326.5,-19.5 326.5,-0.5 279.5,-0.5"/>
<text text-anchor="middle" x="303" y="-7.5" font-family="Helvetica,sans-Serif" font-size="10.00">vector</text>
</a>
</g>
</g>
<!-- Node1&#45;&gt;Node5 -->
<g id="edge15" class="edge">
<title>Node1&#45;&gt;Node5</title>
<path fill="none" stroke="midnightblue" d="M830.77,-129.64C687.78,-124.66 390.04,-111.48 350,-87 328.76,-74.01 315.68,-47.44 308.87,-29.42"/>
<polygon fill="midnightblue" stroke="midnightblue" points="312.17,-28.25 305.58,-19.96 305.56,-30.56 312.17,-28.25"/>
</g>
<!-- Node7 -->
<g id="node7" class="node">
<title>Node7</title>
<g id="a_node7"><a xlink:href="../../maliput/html/mesh_8h.html.html" xlink:title=" ">
<polygon fill="white" stroke="black" points="344.5,-0.5 344.5,-19.5 469.5,-19.5 469.5,-0.5 344.5,-0.5"/>
<text text-anchor="middle" x="407" y="-7.5" font-family="Helvetica,sans-Serif" font-size="10.00">maliput/utility/mesh.h</text>
</a>
</g>
</g>
<!-- Node1&#45;&gt;Node7 -->
<g id="edge25" class="edge">
<title>Node1&#45;&gt;Node7</title>
<path fill="none" stroke="midnightblue" d="M830.97,-131.33C688.15,-129.27 391.25,-120.93 360,-87 342.71,-68.23 367.05,-42.2 386.65,-25.99"/>
<polygon fill="midnightblue" stroke="midnightblue" points="388.95,-28.64 394.63,-19.7 384.61,-23.14 388.95,-28.64"/>
</g>
<!-- Node8 -->
<g id="node8" class="node">
<title>Node8</title>
<g id="a_node8"><a xlink:title=" ">
<polygon fill="white" stroke="#bfbfbf" points="369,-62 369,-81 433,-81 433,-62 369,-62"/>
<text text-anchor="middle" x="401" y="-69" font-family="Helvetica,sans-Serif" font-size="10.00">algorithm</text>
</a>
</g>
</g>
<!-- Node1&#45;&gt;Node8 -->
<g id="edge7" class="edge">
<title>Node1&#45;&gt;Node8</title>
<path fill="none" stroke="midnightblue" d="M830.6,-130.09C737.94,-126.53 577.43,-116.29 443,-87 439.5,-86.24 435.89,-85.28 432.33,-84.21"/>
<polygon fill="midnightblue" stroke="midnightblue" points="433.11,-80.79 422.52,-81.02 430.95,-87.44 433.11,-80.79"/>
</g>
<!-- Node9 -->
<g id="node9" class="node">
<title>Node9</title>
<g id="a_node9"><a xlink:title=" ">
<polygon fill="white" stroke="#bfbfbf" points="451.5,-62 451.5,-81 498.5,-81 498.5,-62 451.5,-62"/>
<text text-anchor="middle" x="475" y="-69" font-family="Helvetica,sans-Serif" font-size="10.00">cmath</text>
</a>
</g>
</g>
<!-- Node1&#45;&gt;Node9 -->
<g id="edge8" class="edge">
<title>Node1&#45;&gt;Node9</title>
<path fill="none" stroke="midnightblue" d="M830.73,-130.2C749.47,-126.72 617.72,-116.56 508,-87 505.71,-86.38 503.37,-85.63 501.05,-84.79"/>
<polygon fill="midnightblue" stroke="midnightblue" points="502.35,-81.55 491.77,-81.04 499.73,-88.03 502.35,-81.55"/>
</g>
<!-- Node10 -->
<g id="node10" class="node">
<title>Node10</title>
<g id="a_node10"><a xlink:title=" ">
<polygon fill="white" stroke="#bfbfbf" points="516.5,-62 516.5,-81 569.5,-81 569.5,-62 516.5,-62"/>
<text text-anchor="middle" x="543" y="-69" font-family="Helvetica,sans-Serif" font-size="10.00">cstddef</text>
</a>
</g>
</g>
<!-- Node1&#45;&gt;Node10 -->
<g id="edge9" class="edge">
<title>Node1&#45;&gt;Node10</title>
<path fill="none" stroke="midnightblue" d="M830.72,-126.89C763.57,-121.13 663.58,-109.47 579,-87 576.49,-86.33 573.93,-85.54 571.37,-84.67"/>
<polygon fill="midnightblue" stroke="midnightblue" points="572.35,-81.3 561.76,-81.07 569.9,-87.86 572.35,-81.3"/>
</g>
<!-- Node11 -->
<g id="node11" class="node">
<title>Node11</title>
<g id="a_node11"><a xlink:title=" ">
<polygon fill="white" stroke="#bfbfbf" points="587.5,-62 587.5,-81 642.5,-81 642.5,-62 587.5,-62"/>
<text text-anchor="middle" x="615" y="-69" font-family="Helvetica,sans-Serif" font-size="10.00">fstream</text>
</a>
</g>
</g>
<!-- Node1&#45;&gt;Node11 -->
<g id="edge10" class="edge">
<title>Node1&#45;&gt;Node11</title>
<path fill="none" stroke="midnightblue" d="M837.17,-123.49C785.44,-116.28 713.56,-104.31 652,-87 649.41,-86.27 646.75,-85.43 644.11,-84.53"/>
<polygon fill="midnightblue" stroke="midnightblue" points="645.32,-81.24 634.72,-81.07 642.89,-87.81 645.32,-81.24"/>
</g>
<!-- Node12 -->
<g id="node12" class="node">
<title>Node12</title>
<g id="a_node12"><a xlink:title=" ">
<polygon fill="white" stroke="#bfbfbf" points="660.5,-62 660.5,-81 725.5,-81 725.5,-62 660.5,-62"/>
<text text-anchor="middle" x="693" y="-69" font-family="Helvetica,sans-Serif" font-size="10.00">functional</text>
</a>
</g>
</g>
<!-- Node1&#45;&gt;Node12 -->
<g id="edge11" class="edge">
<title>Node1&#45;&gt;Node12</title>
<path fill="none" stroke="midnightblue" d="M871.2,-123.48C836.25,-114.97 781.67,-101.14 735,-87 732.23,-86.16 729.37,-85.26 726.51,-84.32"/>
<polygon fill="midnightblue" stroke="midnightblue" points="727.48,-80.96 716.88,-81.1 725.25,-87.6 727.48,-80.96"/>
</g>
<!-- Node13 -->
<g id="node13" class="node">
<title>Node13</title>
<g id="a_node13"><a xlink:title=" ">
<polygon fill="white" stroke="#bfbfbf" points="743.5,-62 743.5,-81 826.5,-81 826.5,-62 743.5,-62"/>
<text text-anchor="middle" x="785" y="-69" font-family="Helvetica,sans-Serif" font-size="10.00">initializer_list</text>
</a>
</g>
</g>
<!-- Node1&#45;&gt;Node13 -->
<g id="edge12" class="edge">
<title>Node1&#45;&gt;Node13</title>
<path fill="none" stroke="midnightblue" d="M889.52,-123.48C869.14,-113.53 835.22,-96.99 811.58,-85.46"/>
<polygon fill="midnightblue" stroke="midnightblue" points="812.97,-82.25 802.45,-81.01 809.9,-88.54 812.97,-82.25"/>
</g>
<!-- Node14 -->
<g id="node14" class="node">
<title>Node14</title>
<g id="a_node14"><a xlink:title=" ">
<polygon fill="white" stroke="#bfbfbf" points="844.5,-62 844.5,-81 885.5,-81 885.5,-62 844.5,-62"/>
<text text-anchor="middle" x="865" y="-69" font-family="Helvetica,sans-Serif" font-size="10.00">tuple</text>
</a>
</g>
</g>
<!-- Node1&#45;&gt;Node14 -->
<g id="edge13" class="edge">
<title>Node1&#45;&gt;Node14</title>
<path fill="none" stroke="midnightblue" d="M900.98,-123.48C894.74,-114.64 884.83,-100.59 876.98,-89.48"/>
<polygon fill="midnightblue" stroke="midnightblue" points="879.63,-87.16 871.01,-81.01 873.91,-91.2 879.63,-87.16"/>
</g>
<!-- Node15 -->
<g id="node15" class="node">
<title>Node15</title>
<g id="a_node15"><a xlink:title=" ">
<polygon fill="white" stroke="#bfbfbf" points="903.5,-62 903.5,-81 996.5,-81 996.5,-62 903.5,-62"/>
<text text-anchor="middle" x="950" y="-69" font-family="Helvetica,sans-Serif" font-size="10.00">unordered_map</text>
</a>
</g>
</g>
<!-- Node1&#45;&gt;Node15 -->
<g id="edge14" class="edge">
<title>Node1&#45;&gt;Node15</title>
<path fill="none" stroke="midnightblue" d="M913.16,-123.48C919.61,-114.55 929.9,-100.31 937.97,-89.14"/>
<polygon fill="midnightblue" stroke="midnightblue" points="940.83,-91.16 943.85,-81.01 935.16,-87.06 940.83,-91.16"/>
</g>
<!-- Node16 -->
<g id="node16" class="node">
<title>Node16</title>
<g id="a_node16"><a xlink:href="../../delphyne/html/macros_8h.html.html" xlink:title=" ">
<polygon fill="white" stroke="black" points="1015,-62 1015,-81 1125,-81 1125,-62 1015,-62"/>
<text text-anchor="middle" x="1070" y="-69" font-family="Helvetica,sans-Serif" font-size="10.00">delphyne/macros.h</text>
</a>
</g>
</g>
<!-- Node1&#45;&gt;Node16 -->
<g id="edge16" class="edge">
<title>Node1&#45;&gt;Node16</title>
<path fill="none" stroke="midnightblue" d="M930.35,-123.48C958.31,-113.27 1005.33,-96.11 1036.99,-84.55"/>
<polygon fill="midnightblue" stroke="midnightblue" points="1038.5,-87.73 1046.69,-81.01 1036.1,-81.15 1038.5,-87.73"/>
</g>
<!-- Node17 -->
<g id="node17" class="node">
<title>Node17</title>
<g id="a_node17"><a xlink:title=" ">
<polygon fill="white" stroke="#bfbfbf" points="1143.5,-62 1143.5,-81 1304.5,-81 1304.5,-62 1143.5,-62"/>
<text text-anchor="middle" x="1224" y="-69" font-family="Helvetica,sans-Serif" font-size="10.00">ignition/common/SubMesh.hh</text>
</a>
</g>
</g>
<!-- Node1&#45;&gt;Node17 -->
<g id="edge17" class="edge">
<title>Node1&#45;&gt;Node17</title>
<path fill="none" stroke="midnightblue" d="M952.42,-123.48C1009.5,-112.76 1107.42,-94.38 1168.77,-82.87"/>
<polygon fill="midnightblue" stroke="midnightblue" points="1169.48,-86.29 1178.67,-81.01 1168.19,-79.41 1169.48,-86.29"/>
</g>
<!-- Node18 -->
<g id="node18" class="node">
<title>Node18</title>
<g id="a_node18"><a xlink:title=" ">
<polygon fill="white" stroke="#bfbfbf" points="1322.5,-62 1322.5,-81 1459.5,-81 1459.5,-62 1322.5,-62"/>
<text text-anchor="middle" x="1391" y="-69" font-family="Helvetica,sans-Serif" font-size="10.00">ignition/math/Vector3.hh</text>
</a>
</g>
</g>
<!-- Node1&#45;&gt;Node18 -->
<g id="edge18" class="edge">
<title>Node1&#45;&gt;Node18</title>
<path fill="none" stroke="midnightblue" d="M983.36,-125.3C1065.32,-117.71 1199.22,-104.13 1314,-87 1322.03,-85.8 1330.51,-84.37 1338.79,-82.89"/>
<polygon fill="midnightblue" stroke="midnightblue" points="1339.53,-86.31 1348.74,-81.06 1338.27,-79.42 1339.53,-86.31"/>
</g>
<!-- Node19 -->
<g id="node19" class="node">
<title>Node19</title>
<g id="a_node19"><a xlink:title=" ">
<polygon fill="white" stroke="#bfbfbf" points="1478,-56.5 1478,-86.5 1586,-86.5 1586,-56.5 1478,-56.5"/>
<text text-anchor="start" x="1486" y="-74.5" font-family="Helvetica,sans-Serif" font-size="10.00">maliput/api/branch</text>
<text text-anchor="middle" x="1532" y="-63.5" font-family="Helvetica,sans-Serif" font-size="10.00">_point.h</text>
</a>
</g>
</g>
<!-- Node1&#45;&gt;Node19 -->
<g id="edge19" class="edge">
<title>Node1&#45;&gt;Node19</title>
<path fill="none" stroke="midnightblue" d="M983.31,-129.43C1089.78,-125.06 1289,-114.02 1467.69,-87.05"/>
<polygon fill="midnightblue" stroke="midnightblue" points="1468.45,-90.48 1477.8,-85.5 1467.39,-83.56 1468.45,-90.48"/>
</g>
<!-- Node20 -->
<g id="node20" class="node">
<title>Node20</title>
<g id="a_node20"><a xlink:title=" ">
<polygon fill="white" stroke="#bfbfbf" points="1604.5,-62 1604.5,-81 1727.5,-81 1727.5,-62 1604.5,-62"/>
<text text-anchor="middle" x="1666" y="-69" font-family="Helvetica,sans-Serif" font-size="10.00">maliput/api/junction.h</text>
</a>
</g>
</g>
<!-- Node1&#45;&gt;Node20 -->
<g id="edge20" class="edge">
<title>Node1&#45;&gt;Node20</title>
<path fill="none" stroke="midnightblue" d="M983.18,-130.4C1110.43,-126.98 1374.04,-116.65 1595,-87 1602.8,-85.95 1611.03,-84.55 1619.02,-83.03"/>
<polygon fill="midnightblue" stroke="midnightblue" points="1619.82,-86.44 1628.95,-81.06 1618.45,-79.57 1619.82,-86.44"/>
</g>
<!-- Node21 -->
<g id="node21" class="node">
<title>Node21</title>
<g id="a_node21"><a xlink:title=" ">
<polygon fill="white" stroke="#bfbfbf" points="1745.5,-62 1745.5,-81 1850.5,-81 1850.5,-62 1745.5,-62"/>
<text text-anchor="middle" x="1798" y="-69" font-family="Helvetica,sans-Serif" font-size="10.00">maliput/api/lane.h</text>
</a>
</g>
</g>
<!-- Node1&#45;&gt;Node21 -->
<g id="edge21" class="edge">
<title>Node1&#45;&gt;Node21</title>
<path fill="none" stroke="midnightblue" d="M983.26,-132.42C1130.01,-132.21 1461.54,-126.88 1737,-87 1743.43,-86.07 1750.18,-84.78 1756.76,-83.36"/>
<polygon fill="midnightblue" stroke="midnightblue" points="1757.9,-86.69 1766.86,-81.04 1756.33,-79.86 1757.9,-86.69"/>
</g>
<!-- Node22 -->
<g id="node22" class="node">
<title>Node22</title>
<g id="a_node22"><a xlink:href="../../maliput/html/lane__data_8h.html.html" xlink:title=" ">
<polygon fill="white" stroke="black" points="1869,-62 1869,-81 2001,-81 2001,-62 1869,-62"/>
<text text-anchor="middle" x="1935" y="-69" font-family="Helvetica,sans-Serif" font-size="10.00">maliput/api/lane_data.h</text>
</a>
</g>
</g>
<!-- Node1&#45;&gt;Node22 -->
<g id="edge22" class="edge">
<title>Node1&#45;&gt;Node22</title>
<path fill="none" stroke="midnightblue" d="M983.28,-132.11C1145.32,-131.53 1535.6,-125.81 1860,-87 1868.71,-85.96 1877.92,-84.49 1886.79,-82.88"/>
<polygon fill="midnightblue" stroke="midnightblue" points="1887.45,-86.32 1896.63,-81.02 1886.15,-79.44 1887.45,-86.32"/>
</g>
<!-- Node23 -->
<g id="node23" class="node">
<title>Node23</title>
<g id="a_node23"><a xlink:title=" ">
<polygon fill="white" stroke="#bfbfbf" points="2019.5,-62 2019.5,-81 2176.5,-81 2176.5,-62 2019.5,-62"/>
<text text-anchor="middle" x="2098" y="-69" font-family="Helvetica,sans-Serif" font-size="10.00">maliput/api/road_geometry.h</text>
</a>
</g>
</g>
<!-- Node1&#45;&gt;Node23 -->
<g id="edge23" class="edge">
<title>Node1&#45;&gt;Node23</title>
<path fill="none" stroke="midnightblue" d="M983.12,-132.1C1162.5,-131.64 1625.59,-126.36 2010,-87 2020.62,-85.91 2031.91,-84.36 2042.73,-82.67"/>
<polygon fill="midnightblue" stroke="midnightblue" points="2043.61,-86.07 2052.92,-81.02 2042.49,-79.16 2043.61,-86.07"/>
</g>
<!-- Node24 -->
<g id="node24" class="node">
<title>Node24</title>
<g id="a_node24"><a xlink:title=" ">
<polygon fill="white" stroke="#bfbfbf" points="2194.5,-62 2194.5,-81 2321.5,-81 2321.5,-62 2194.5,-62"/>
<text text-anchor="middle" x="2258" y="-69" font-family="Helvetica,sans-Serif" font-size="10.00">maliput/api/segment.h</text>
</a>
</g>
</g>
<!-- Node1&#45;&gt;Node24 -->
<g id="edge24" class="edge">
<title>Node1&#45;&gt;Node24</title>
<path fill="none" stroke="midnightblue" d="M983.24,-130.95C1221.63,-127.43 1950.99,-114.61 2186,-87 2194.28,-86.03 2203.03,-84.6 2211.47,-83.03"/>
<polygon fill="midnightblue" stroke="midnightblue" points="2212.42,-86.41 2221.56,-81.04 2211.07,-79.54 2212.42,-86.41"/>
</g>
<!-- Node3 -->
<g id="node3" class="node">
<title>Node3</title>
<g id="a_node3"><a xlink:title=" ">
<polygon fill="white" stroke="#bfbfbf" points="0,-0.5 0,-19.5 38,-19.5 38,-0.5 0,-0.5"/>
<text text-anchor="middle" x="19" y="-7.5" font-family="Helvetica,sans-Serif" font-size="10.00">map</text>
</a>
</g>
</g>
<!-- Node2&#45;&gt;Node3 -->
<g id="edge2" class="edge">
<title>Node2&#45;&gt;Node3</title>
<path fill="none" stroke="midnightblue" d="M168.93,-61.98C136.89,-51.08 81.57,-32.27 47.83,-20.8"/>
<polygon fill="midnightblue" stroke="midnightblue" points="48.69,-17.4 38.1,-17.49 46.44,-24.03 48.69,-17.4"/>
</g>
<!-- Node4 -->
<g id="node4" class="node">
<title>Node4</title>
<g id="a_node4"><a xlink:title=" ">
<polygon fill="white" stroke="#bfbfbf" points="56,-0.5 56,-19.5 100,-19.5 100,-0.5 56,-0.5"/>
<text text-anchor="middle" x="78" y="-7.5" font-family="Helvetica,sans-Serif" font-size="10.00">string</text>
</a>
</g>
</g>
<!-- Node2&#45;&gt;Node4 -->
<g id="edge3" class="edge">
<title>Node2&#45;&gt;Node4</title>
<path fill="none" stroke="midnightblue" d="M177.38,-61.98C158.08,-52.08 126.04,-35.64 103.57,-24.12"/>
<polygon fill="midnightblue" stroke="midnightblue" points="105.08,-20.96 94.59,-19.51 101.89,-27.19 105.08,-20.96"/>
</g>
<!-- Node2&#45;&gt;Node5 -->
<g id="edge4" class="edge">
<title>Node2&#45;&gt;Node5</title>
<path fill="none" stroke="midnightblue" d="M209.62,-61.98C227.59,-52.17 257.32,-35.93 278.41,-24.42"/>
<polygon fill="midnightblue" stroke="midnightblue" points="280.31,-27.37 287.41,-19.51 276.96,-21.23 280.31,-27.37"/>
</g>
<!-- Node6 -->
<g id="node6" class="node">
<title>Node6</title>
<g id="a_node6"><a xlink:title=" ">
<polygon fill="white" stroke="#bfbfbf" points="118.5,-0.5 118.5,-19.5 261.5,-19.5 261.5,-0.5 118.5,-0.5"/>
<text text-anchor="middle" x="190" y="-7.5" font-family="Helvetica,sans-Serif" font-size="10.00">ignition/common/Mesh.hh</text>
</a>
</g>
</g>
<!-- Node2&#45;&gt;Node6 -->
<g id="edge5" class="edge">
<title>Node2&#45;&gt;Node6</title>
<path fill="none" stroke="midnightblue" d="M193.43,-61.98C192.86,-53.58 191.98,-40.48 191.25,-29.66"/>
<polygon fill="midnightblue" stroke="midnightblue" points="194.74,-29.25 190.57,-19.51 187.75,-29.72 194.74,-29.25"/>
</g>
<!-- Node2&#45;&gt;Node7 -->
<g id="edge6" class="edge">
<title>Node2&#45;&gt;Node7</title>
<path fill="none" stroke="midnightblue" d="M224.52,-61.98C261.92,-51.53 325.43,-33.79 366.79,-22.23"/>
<polygon fill="midnightblue" stroke="midnightblue" points="367.85,-25.57 376.54,-19.51 365.97,-18.83 367.85,-25.57"/>
</g>
</g>
</svg>
        <g id="navigator" transform="translate(0 0)" fill="#404254">
                <rect fill="#f2f5e9" fill-opacity="0.5" stroke="#606060" stroke-width=".5" x="0" y="0" width="60" height="60"/>
                <use id="zoomplus" xlink:href="#zoomPlus" x="17" y="9" onmousedown="handleZoom(evt,'in')"/>
                <use id="zoomminus" xlink:href="#zoomMin" x="42" y="9" onmousedown="handleZoom(evt,'out')"/>
                <use id="reset" xlink:href="#resetDef" x="30" y="36" onmousedown="handleReset()"/>
                <g id="arrowUp" xlink:href="#dirArrow" transform="translate(30 24)" onmousedown="handlePan(0,-1)">
                  <use xlink:href="#rim" fill="#404040">
                        <set attributeName="fill" to="#808080" begin="arrowUp.mouseover" end="arrowUp.mouseout"/>
                  </use>
                  <path fill="none" stroke="white" stroke-width="1.5" d="M0,-3.0v7 M-2.5,-0.5L0,-3.0L2.5,-0.5"/>
                </g>
                <g id="arrowRight" xlink:href="#dirArrow" transform="rotate(90) translate(36 -43)" onmousedown="handlePan(1,0)">
                  <use xlink:href="#rim" fill="#404040">
                        <set attributeName="fill" to="#808080" begin="arrowRight.mouseover" end="arrowRight.mouseout"/>
                  </use>
                  <path fill="none" stroke="white" stroke-width="1.5" d="M0,-3.0v7 M-2.5,-0.5L0,-3.0L2.5,-0.5"/>
                </g>
                <g id="arrowDown" xlink:href="#dirArrow" transform="rotate(180) translate(-30 -48)" onmousedown="handlePan(0,1)">
                  <use xlink:href="#rim" fill="#404040">
                        <set attributeName="fill" to="#808080" begin="arrowDown.mouseover" end="arrowDown.mouseout"/>
                  </use>
                  <path fill="none" stroke="white" stroke-width="1.5" d="M0,-3.0v7 M-2.5,-0.5L0,-3.0L2.5,-0.5"/>
                </g>
                <g id="arrowLeft" xlink:href="#dirArrow" transform="rotate(270) translate(-36 17)" onmousedown="handlePan(-1,0)">
                  <use xlink:href="#rim" fill="#404040">
                        <set attributeName="fill" to="#808080" begin="arrowLeft.mouseover" end="arrowLeft.mouseout"/>
                  </use>
                  <path fill="none" stroke="white" stroke-width="1.5" d="M0,-3.0v7 M-2.5,-0.5L0,-3.0L2.5,-0.5"/>
                </g>
        </g>
        <svg viewBox="0 0 15 15" width="100%" height="30px" preserveAspectRatio="xMaxYMin meet">
         <g id="arrow_out" transform="scale(0.3 0.3)">
          <a xlink:href="maliput__mesh__converter_8cc__incl_org.svg" target="_base">
           <rect id="button" ry="5" rx="5" y="6" x="6" height="38" width="38"
                fill="#f2f5e9" fill-opacity="0.5" stroke="#606060" stroke-width="1.0"/>
           <path id="arrow"
             d="M 11.500037,31.436501 C 11.940474,20.09759 22.043105,11.32322 32.158766,21.979434 L 37.068811,17.246167 C 37.068811,17.246167 37.088388,32 37.088388,32 L 22.160133,31.978069 C 22.160133,31.978069 26.997745,27.140456 26.997745,27.140456 C 18.528582,18.264221 13.291696,25.230495 11.500037,31.436501 z"
             style="fill:#404040;"/>
          </a>
         </g>
        </svg>
</svg>
