<?xml version="1.0" encoding="UTF-8" standalone="no"?>
<!DOCTYPE svg PUBLIC "-//W3C//DTD SVG 1.1//EN"
 "http://www.w3.org/Graphics/SVG/1.1/DTD/svg11.dtd">
<!-- Generated by graphviz version 2.43.0 (0)
 -->
<!-- Title: maliput_backend_selection.hh Pages: 1 -->
<svg width="332pt" height="140pt"
 viewBox="0.00 0.00 332.00 140.00" xmlns="http://www.w3.org/2000/svg" xmlns:xlink="http://www.w3.org/1999/xlink">
<g id="graph0" class="graph" transform="scale(1 1) rotate(0) translate(4 136)">
<title>maliput_backend_selection.hh</title>
<polygon fill="white" stroke="transparent" points="-4,4 -4,-136 328,-136 328,4 -4,4"/>
<!-- Node1 -->
<g id="node1" class="node">
<title>Node1</title>
<g id="a_node1"><a xlink:title=" ">
<polygon fill="#bfbfbf" stroke="black" points="84.5,-112.5 84.5,-131.5 248.5,-131.5 248.5,-112.5 84.5,-112.5"/>
<text text-anchor="middle" x="166.5" y="-119.5" font-family="Helvetica,sans-Serif" font-size="10.00">maliput_backend_selection.hh</text>
</a>
</g>
</g>
<!-- Node2 -->
<g id="node2" class="node">
<title>Node2</title>
<g id="a_node2"><a xlink:href="maliput__backend__selection_8cc.html" target="_top" xlink:title=" ">
<polygon fill="white" stroke="black" points="0,-56.5 0,-75.5 163,-75.5 163,-56.5 0,-56.5"/>
<text text-anchor="middle" x="81.5" y="-63.5" font-family="Helvetica,sans-Serif" font-size="10.00">maliput_backend_selection.cc</text>
</a>
</g>
</g>
<!-- Node1&#45;&gt;Node2 -->
<g id="edge1" class="edge">
<title>Node1&#45;&gt;Node2</title>
<path fill="none" stroke="midnightblue" d="M144.31,-106.9C128.72,-97 108.37,-84.07 95.12,-75.65"/>
<polygon fill="midnightblue" stroke="midnightblue" points="142.53,-109.92 152.84,-112.32 146.28,-104.01 142.53,-109.92"/>
</g>
<!-- Node3 -->
<g id="node3" class="node">
<title>Node3</title>
<g id="a_node3"><a xlink:href="maliput__viewer__plugin_8hh.html" target="_top" xlink:title=" ">
<polygon fill="white" stroke="black" points="181,-56.5 181,-75.5 324,-75.5 324,-56.5 181,-56.5"/>
<text text-anchor="middle" x="252.5" y="-63.5" font-family="Helvetica,sans-Serif" font-size="10.00">maliput_viewer_plugin.hh</text>
</a>
</g>
</g>
<!-- Node1&#45;&gt;Node3 -->
<g id="edge2" class="edge">
<title>Node1&#45;&gt;Node3</title>
<path fill="none" stroke="midnightblue" d="M188.95,-106.9C204.72,-97 225.31,-84.07 238.72,-75.65"/>
<polygon fill="midnightblue" stroke="midnightblue" points="186.93,-104.04 180.32,-112.32 190.65,-109.97 186.93,-104.04"/>
</g>
<!-- Node4 -->
<g id="node4" class="node">
<title>Node4</title>
<g id="a_node4"><a xlink:href="maliput__viewer__plugin_8cc.html" target="_top" xlink:title=" ">
<polygon fill="white" stroke="black" points="182,-0.5 182,-19.5 323,-19.5 323,-0.5 182,-0.5"/>
<text text-anchor="middle" x="252.5" y="-7.5" font-family="Helvetica,sans-Serif" font-size="10.00">maliput_viewer_plugin.cc</text>
</a>
</g>
</g>
<!-- Node3&#45;&gt;Node4 -->
<g id="edge3" class="edge">
<title>Node3&#45;&gt;Node4</title>
<path fill="none" stroke="midnightblue" d="M252.5,-45.8C252.5,-36.91 252.5,-26.78 252.5,-19.75"/>
<polygon fill="midnightblue" stroke="midnightblue" points="249,-46.08 252.5,-56.08 256,-46.08 249,-46.08"/>
</g>
</g>
</svg>
