<?xml version="1.0" encoding="UTF-8" standalone="no"?>
<!DOCTYPE svg PUBLIC "-//W3C//DTD SVG 1.1//EN"
 "http://www.w3.org/Graphics/SVG/1.1/DTD/svg11.dtd">
<!-- Generated by graphviz version 2.43.0 (0)
 -->
<!-- Title: arc_ground_curve.h Pages: 1 -->
<svg width="854pt" height="229pt"
 viewBox="0.00 0.00 854.00 229.00" xmlns="http://www.w3.org/2000/svg" xmlns:xlink="http://www.w3.org/1999/xlink">
<g id="graph0" class="graph" transform="scale(1 1) rotate(0) translate(4 225)">
<title>arc_ground_curve.h</title>
<polygon fill="white" stroke="transparent" points="-4,4 -4,-225 850,-225 850,4 -4,4"/>
<!-- Node1 -->
<g id="node1" class="node">
<title>Node1</title>
<g id="a_node1"><a xlink:title=" ">
<polygon fill="#bfbfbf" stroke="black" points="268,-201.5 268,-220.5 380,-220.5 380,-201.5 268,-201.5"/>
<text text-anchor="middle" x="324" y="-208.5" font-family="Helvetica,sans-Serif" font-size="10.00">arc_ground_curve.h</text>
</a>
</g>
</g>
<!-- Node2 -->
<g id="node2" class="node">
<title>Node2</title>
<g id="a_node2"><a xlink:title=" ">
<polygon fill="white" stroke="#bfbfbf" points="193.5,-140 193.5,-159 240.5,-159 240.5,-140 193.5,-140"/>
<text text-anchor="middle" x="217" y="-147" font-family="Helvetica,sans-Serif" font-size="10.00">cmath</text>
</a>
</g>
</g>
<!-- Node1&#45;&gt;Node2 -->
<g id="edge1" class="edge">
<title>Node1&#45;&gt;Node2</title>
<path fill="none" stroke="midnightblue" d="M308.67,-201.48C291.03,-191.67 261.84,-175.43 241.14,-163.92"/>
<polygon fill="midnightblue" stroke="midnightblue" points="242.74,-160.81 232.3,-159.01 239.34,-166.93 242.74,-160.81"/>
</g>
<!-- Node3 -->
<g id="node3" class="node">
<title>Node3</title>
<g id="a_node3"><a xlink:href="macros_8h.html" target="_top" xlink:title=" ">
<polygon fill="white" stroke="black" points="304,-67.5 304,-97.5 456,-97.5 456,-67.5 304,-67.5"/>
<text text-anchor="start" x="312" y="-85.5" font-family="Helvetica,sans-Serif" font-size="10.00">maliput_malidrive/common</text>
<text text-anchor="middle" x="380" y="-74.5" font-family="Helvetica,sans-Serif" font-size="10.00">/macros.h</text>
</a>
</g>
</g>
<!-- Node1&#45;&gt;Node3 -->
<g id="edge2" class="edge">
<title>Node1&#45;&gt;Node3</title>
<path fill="none" stroke="midnightblue" d="M314.08,-201.32C298.9,-186.95 273.04,-157.46 287,-134 295.4,-119.88 309.28,-109.46 323.79,-101.88"/>
<polygon fill="midnightblue" stroke="midnightblue" points="325.37,-105.01 332.86,-97.52 322.33,-98.7 325.37,-105.01"/>
</g>
<!-- Node10 -->
<g id="node10" class="node">
<title>Node10</title>
<g id="a_node10"><a xlink:href="ground__curve_8h.html" target="_top" xlink:title=" ">
<polygon fill="white" stroke="black" points="481.5,-134.5 481.5,-164.5 612.5,-164.5 612.5,-134.5 481.5,-134.5"/>
<text text-anchor="start" x="489.5" y="-152.5" font-family="Helvetica,sans-Serif" font-size="10.00">maliput_malidrive/road</text>
<text text-anchor="middle" x="547" y="-141.5" font-family="Helvetica,sans-Serif" font-size="10.00">_curve/ground_curve.h</text>
</a>
</g>
</g>
<!-- Node1&#45;&gt;Node10 -->
<g id="edge9" class="edge">
<title>Node1&#45;&gt;Node10</title>
<path fill="none" stroke="midnightblue" d="M355.95,-201.48C389.4,-192.55 442.78,-178.31 484.62,-167.14"/>
<polygon fill="midnightblue" stroke="midnightblue" points="485.68,-170.48 494.44,-164.52 483.88,-163.72 485.68,-170.48"/>
</g>
<!-- Node12 -->
<g id="node12" class="node">
<title>Node12</title>
<g id="a_node12"><a xlink:href="open__range__validator_8h.html" target="_top" xlink:title=" ">
<polygon fill="white" stroke="black" points="296.5,-134.5 296.5,-164.5 463.5,-164.5 463.5,-134.5 296.5,-134.5"/>
<text text-anchor="start" x="304.5" y="-152.5" font-family="Helvetica,sans-Serif" font-size="10.00">maliput_malidrive/road</text>
<text text-anchor="middle" x="380" y="-141.5" font-family="Helvetica,sans-Serif" font-size="10.00">_curve/open_range_validator.h</text>
</a>
</g>
</g>
<!-- Node1&#45;&gt;Node12 -->
<g id="edge12" class="edge">
<title>Node1&#45;&gt;Node12</title>
<path fill="none" stroke="midnightblue" d="M332.02,-201.48C339.25,-193.79 350.19,-182.17 359.8,-171.96"/>
<polygon fill="midnightblue" stroke="midnightblue" points="362.5,-174.2 366.8,-164.52 357.4,-169.41 362.5,-174.2"/>
</g>
<!-- Node4 -->
<g id="node4" class="node">
<title>Node4</title>
<g id="a_node4"><a xlink:title=" ">
<polygon fill="white" stroke="#bfbfbf" points="0,-6 0,-25 44,-25 44,-6 0,-6"/>
<text text-anchor="middle" x="22" y="-13" font-family="Helvetica,sans-Serif" font-size="10.00">string</text>
</a>
</g>
</g>
<!-- Node3&#45;&gt;Node4 -->
<g id="edge3" class="edge">
<title>Node3&#45;&gt;Node4</title>
<path fill="none" stroke="midnightblue" d="M303.97,-75.92C236.81,-69.54 136.81,-56.5 53,-31 51.12,-30.43 49.22,-29.76 47.32,-29.04"/>
<polygon fill="midnightblue" stroke="midnightblue" points="48.64,-25.8 38.07,-25.07 45.88,-32.23 48.64,-25.8"/>
</g>
<!-- Node5 -->
<g id="node5" class="node">
<title>Node5</title>
<g id="a_node5"><a xlink:href="../../maliput/html/assertion__error_8h.html.html" xlink:title=" ">
<polygon fill="white" stroke="black" points="62,-0.5 62,-30.5 210,-30.5 210,-0.5 62,-0.5"/>
<text text-anchor="start" x="70" y="-18.5" font-family="Helvetica,sans-Serif" font-size="10.00">maliput/common/assertion</text>
<text text-anchor="middle" x="136" y="-7.5" font-family="Helvetica,sans-Serif" font-size="10.00">_error.h</text>
</a>
</g>
</g>
<!-- Node3&#45;&gt;Node5 -->
<g id="edge4" class="edge">
<title>Node3&#45;&gt;Node5</title>
<path fill="none" stroke="midnightblue" d="M327.36,-67.48C289.64,-57.43 238.69,-43.86 198.85,-33.24"/>
<polygon fill="midnightblue" stroke="midnightblue" points="199.53,-29.8 188.97,-30.61 197.73,-36.57 199.53,-29.8"/>
</g>
<!-- Node6 -->
<g id="node6" class="node">
<title>Node6</title>
<g id="a_node6"><a xlink:href="../../maliput/html/logger_8h.html.html" xlink:title=" ">
<polygon fill="white" stroke="black" points="228.5,-6 228.5,-25 371.5,-25 371.5,-6 228.5,-6"/>
<text text-anchor="middle" x="300" y="-13" font-family="Helvetica,sans-Serif" font-size="10.00">maliput/common/logger.h</text>
</a>
</g>
</g>
<!-- Node3&#45;&gt;Node6 -->
<g id="edge5" class="edge">
<title>Node3&#45;&gt;Node6</title>
<path fill="none" stroke="midnightblue" d="M362.64,-67.4C349.67,-56.86 331.97,-42.48 318.69,-31.69"/>
<polygon fill="midnightblue" stroke="midnightblue" points="320.67,-28.78 310.7,-25.19 316.26,-34.22 320.67,-28.78"/>
</g>
<!-- Node7 -->
<g id="node7" class="node">
<title>Node7</title>
<g id="a_node7"><a xlink:href="../../maliput/html/maliput__abort_8h.html.html" xlink:title=" ">
<polygon fill="white" stroke="black" points="390,-0.5 390,-30.5 530,-30.5 530,-0.5 390,-0.5"/>
<text text-anchor="start" x="398" y="-18.5" font-family="Helvetica,sans-Serif" font-size="10.00">maliput/common/maliput</text>
<text text-anchor="middle" x="460" y="-7.5" font-family="Helvetica,sans-Serif" font-size="10.00">_abort.h</text>
</a>
</g>
</g>
<!-- Node3&#45;&gt;Node7 -->
<g id="edge6" class="edge">
<title>Node3&#45;&gt;Node7</title>
<path fill="none" stroke="midnightblue" d="M397.36,-67.4C408.26,-58.54 422.51,-46.96 434.66,-37.09"/>
<polygon fill="midnightblue" stroke="midnightblue" points="437.12,-39.6 442.68,-30.58 432.71,-34.17 437.12,-39.6"/>
</g>
<!-- Node8 -->
<g id="node8" class="node">
<title>Node8</title>
<g id="a_node8"><a xlink:href="../../maliput/html/maliput__copyable_8h.html.html" xlink:title=" ">
<polygon fill="white" stroke="black" points="548,-0.5 548,-30.5 688,-30.5 688,-0.5 548,-0.5"/>
<text text-anchor="start" x="556" y="-18.5" font-family="Helvetica,sans-Serif" font-size="10.00">maliput/common/maliput</text>
<text text-anchor="middle" x="618" y="-7.5" font-family="Helvetica,sans-Serif" font-size="10.00">_copyable.h</text>
</a>
</g>
</g>
<!-- Node3&#45;&gt;Node8 -->
<g id="edge7" class="edge">
<title>Node3&#45;&gt;Node8</title>
<path fill="none" stroke="midnightblue" d="M431.35,-67.48C467.98,-57.47 517.41,-43.97 556.2,-33.38"/>
<polygon fill="midnightblue" stroke="midnightblue" points="557.61,-36.62 566.33,-30.61 555.76,-29.87 557.61,-36.62"/>
</g>
<!-- Node9 -->
<g id="node9" class="node">
<title>Node9</title>
<g id="a_node9"><a xlink:href="../../maliput/html/maliput__throw_8h.html.html" xlink:title=" ">
<polygon fill="white" stroke="black" points="706,-0.5 706,-30.5 846,-30.5 846,-0.5 706,-0.5"/>
<text text-anchor="start" x="714" y="-18.5" font-family="Helvetica,sans-Serif" font-size="10.00">maliput/common/maliput</text>
<text text-anchor="middle" x="776" y="-7.5" font-family="Helvetica,sans-Serif" font-size="10.00">_throw.h</text>
</a>
</g>
</g>
<!-- Node3&#45;&gt;Node9 -->
<g id="edge8" class="edge">
<title>Node3&#45;&gt;Node9</title>
<path fill="none" stroke="midnightblue" d="M456.31,-69.86C518.25,-60.29 608.11,-46.14 695.94,-31.16"/>
<polygon fill="midnightblue" stroke="midnightblue" points="696.54,-34.61 705.8,-29.47 695.36,-27.71 696.54,-34.61"/>
</g>
<!-- Node10&#45;&gt;Node3 -->
<g id="edge11" class="edge">
<title>Node10&#45;&gt;Node3</title>
<path fill="none" stroke="midnightblue" d="M510.76,-134.4C485.82,-124.69 452.47,-111.71 425.7,-101.29"/>
<polygon fill="midnightblue" stroke="midnightblue" points="426.75,-97.94 416.17,-97.58 424.22,-104.47 426.75,-97.94"/>
</g>
<!-- Node11 -->
<g id="node11" class="node">
<title>Node11</title>
<g id="a_node11"><a xlink:href="../../maliput/html/vector_8h.html.html" xlink:title=" ">
<polygon fill="white" stroke="black" points="484.5,-73 484.5,-92 609.5,-92 609.5,-73 484.5,-73"/>
<text text-anchor="middle" x="547" y="-80" font-family="Helvetica,sans-Serif" font-size="10.00">maliput/math/vector.h</text>
</a>
</g>
</g>
<!-- Node10&#45;&gt;Node11 -->
<g id="edge10" class="edge">
<title>Node10&#45;&gt;Node11</title>
<path fill="none" stroke="midnightblue" d="M547,-134.4C547,-125.06 547,-112.71 547,-102.52"/>
<polygon fill="midnightblue" stroke="midnightblue" points="550.5,-102.19 547,-92.19 543.5,-102.19 550.5,-102.19"/>
</g>
<!-- Node12&#45;&gt;Node3 -->
<g id="edge13" class="edge">
<title>Node12&#45;&gt;Node3</title>
<path fill="none" stroke="midnightblue" d="M380,-134.4C380,-126.64 380,-116.81 380,-107.86"/>
<polygon fill="midnightblue" stroke="midnightblue" points="383.5,-107.58 380,-97.58 376.5,-107.58 383.5,-107.58"/>
</g>
</g>
</svg>
