<?xml version="1.0" encoding="UTF-8" standalone="no"?>
<!DOCTYPE svg PUBLIC "-//W3C//DTD SVG 1.1//EN"
 "http://www.w3.org/Graphics/SVG/1.1/DTD/svg11.dtd">
<!-- Generated by graphviz version 2.43.0 (0)
 -->
<!-- Title: constants.h Pages: 1 -->
<!--zoomable 330 -->
<svg id="main" version="1.1" xmlns="http://www.w3.org/2000/svg" xmlns:xlink="http://www.w3.org/1999/xlink" xml:space="preserve" onload="init(evt)">
<style type="text/css"><![CDATA[
.edge:hover path { stroke: red; }
.edge:hover polygon { stroke: red; fill: red; }
]]></style>
<script type="text/javascript"><![CDATA[
var edges = document.getElementsByTagName('g');
if (edges && edges.length) {
  for (var i=0;i<edges.length;i++) {
    if (edges[i].id.substr(0,4)=='edge') {
      edges[i].setAttribute('class','edge');
    }
  }
}
]]></script>
        <defs>
                <circle id="rim" cx="0" cy="0" r="7"/>
                <circle id="rim2" cx="0" cy="0" r="3.5"/>
                <g id="zoomPlus">
                        <use xlink:href="#rim" fill="#404040">
                                <set attributeName="fill" to="#808080" begin="zoomplus.mouseover" end="zoomplus.mouseout"/>
                        </use>
                        <path d="M-4,0h8M0,-4v8" fill="none" stroke="white" stroke-width="1.5" pointer-events="none"/>
                </g>
                <g id="zoomMin">
                        <use xlink:href="#rim" fill="#404040">
                                <set attributeName="fill" to="#808080" begin="zoomminus.mouseover" end="zoomminus.mouseout"/>
                        </use>
                        <path d="M-4,0h8" fill="none" stroke="white" stroke-width="1.5" pointer-events="none"/>
                </g>
                <g id="dirArrow">
                        <path fill="none" stroke="white" stroke-width="1.5" d="M0,-3.0v7 M-2.5,-0.5L0,-3.0L2.5,-0.5"/>
                </g>
               <g id="resetDef">
                       <use xlink:href="#rim2" fill="#404040">
                               <set attributeName="fill" to="#808080" begin="reset.mouseover" end="reset.mouseout"/>
                       </use>
               </g>
        </defs>

<script type="text/javascript">
var viewWidth = 1781;
var viewHeight = 330;
var sectionId = 'dynsection-0';
</script>
<script xlink:href="svgpan.js"/>
<svg id="graph" class="graph">
<g id="viewport">
<title>constants.h</title>
<polygon fill="white" stroke="transparent" points="-4,4 -4,-326 1777,-326 1777,4 -4,4"/>
<!-- Node1 -->
<g id="node1" class="node">
<title>Node1</title>
<g id="a_node1"><a xlink:title=" ">
<polygon fill="#bfbfbf" stroke="black" points="1106.5,-302.5 1106.5,-321.5 1179.5,-321.5 1179.5,-302.5 1106.5,-302.5"/>
<text text-anchor="middle" x="1143" y="-309.5" font-family="Helvetica,sans-Serif" font-size="10.00">constants.h</text>
</a>
</g>
</g>
<!-- Node2 -->
<g id="node2" class="node">
<title>Node2</title>
<g id="a_node2"><a xlink:href="road__geometry__configuration_8h.html" target="_top" xlink:title=" ">
<polygon fill="white" stroke="black" points="409,-246.5 409,-265.5 579,-265.5 579,-246.5 409,-246.5"/>
<text text-anchor="middle" x="494" y="-253.5" font-family="Helvetica,sans-Serif" font-size="10.00">road_geometry_configuration.h</text>
</a>
</g>
</g>
<!-- Node1&#45;&gt;Node2 -->
<g id="edge1" class="edge">
<title>Node1&#45;&gt;Node2</title>
<path fill="none" stroke="midnightblue" d="M1096.26,-307.11C987.79,-298.09 717.65,-275.61 579.02,-264.07"/>
<polygon fill="midnightblue" stroke="midnightblue" points="1095.99,-310.6 1106.25,-307.94 1096.57,-303.62 1095.99,-310.6"/>
</g>
<!-- Node6 -->
<g id="node6" class="node">
<title>Node6</title>
<g id="a_node6"><a xlink:href="road__network__builder_8cc.html" target="_top" xlink:title=" ">
<polygon fill="white" stroke="black" points="209,-0.5 209,-19.5 345,-19.5 345,-0.5 209,-0.5"/>
<text text-anchor="middle" x="277" y="-7.5" font-family="Helvetica,sans-Serif" font-size="10.00">road_network_builder.cc</text>
</a>
</g>
</g>
<!-- Node1&#45;&gt;Node6 -->
<g id="edge28" class="edge">
<title>Node1&#45;&gt;Node6</title>
<path fill="none" stroke="midnightblue" d="M1096.26,-311.27C881.51,-311.89 0,-307.6 0,-195.5 0,-195.5 0,-195.5 0,-126.5 0,-36.23 126.87,-15.24 208.88,-11.11"/>
<polygon fill="midnightblue" stroke="midnightblue" points="1096.28,-314.77 1106.26,-311.23 1096.25,-307.77 1096.28,-314.77"/>
</g>
<!-- Node11 -->
<g id="node11" class="node">
<title>Node11</title>
<g id="a_node11"><a xlink:href="road__network_8cc.html" target="_top" xlink:title=" ">
<polygon fill="white" stroke="black" points="840.5,-0.5 840.5,-19.5 937.5,-19.5 937.5,-0.5 840.5,-0.5"/>
<text text-anchor="middle" x="889" y="-7.5" font-family="Helvetica,sans-Serif" font-size="10.00">road_network.cc</text>
</a>
</g>
</g>
<!-- Node1&#45;&gt;Node11 -->
<g id="edge32" class="edge">
<title>Node1&#45;&gt;Node11</title>
<path fill="none" stroke="midnightblue" d="M1119.07,-296.84C1107.82,-289.05 1095.13,-278.44 1087,-266 1069.25,-238.83 1068,-227.95 1068,-195.5 1068,-195.5 1068,-195.5 1068,-126.5 1068,-62.89 987.2,-32.62 934.17,-19.6"/>
<polygon fill="midnightblue" stroke="midnightblue" points="1117.38,-299.91 1127.66,-302.46 1121.21,-294.06 1117.38,-299.91"/>
</g>
<!-- Node18 -->
<g id="node18" class="node">
<title>Node18</title>
<g id="a_node18"><a xlink:href="road__geometry__configuration__for__xodrs_8cc.html" target="_top" xlink:title=" ">
<polygon fill="white" stroke="black" points="826.5,-112.5 826.5,-142.5 987.5,-142.5 987.5,-112.5 826.5,-112.5"/>
<text text-anchor="start" x="834.5" y="-130.5" font-family="Helvetica,sans-Serif" font-size="10.00">road_geometry_configuration</text>
<text text-anchor="middle" x="907" y="-119.5" font-family="Helvetica,sans-Serif" font-size="10.00">_for_xodrs.cc</text>
</a>
</g>
</g>
<!-- Node1&#45;&gt;Node18 -->
<g id="edge31" class="edge">
<title>Node1&#45;&gt;Node18</title>
<path fill="none" stroke="midnightblue" d="M1106.26,-298.7C1088.74,-291.38 1068.5,-280.63 1054,-266 1023.64,-235.36 1041.61,-209.39 1011,-179 994.48,-162.59 971.58,-150.69 951.47,-142.57"/>
<polygon fill="midnightblue" stroke="midnightblue" points="1105.07,-301.99 1115.66,-302.41 1107.65,-295.48 1105.07,-301.99"/>
</g>
<!-- Node19 -->
<g id="node19" class="node">
<title>Node19</title>
<g id="a_node19"><a xlink:href="builder__tools_8cc.html" target="_top" xlink:title=" ">
<polygon fill="white" stroke="black" points="1096.5,-246.5 1096.5,-265.5 1189.5,-265.5 1189.5,-246.5 1096.5,-246.5"/>
<text text-anchor="middle" x="1143" y="-253.5" font-family="Helvetica,sans-Serif" font-size="10.00">builder_tools.cc</text>
</a>
</g>
</g>
<!-- Node1&#45;&gt;Node19 -->
<g id="edge25" class="edge">
<title>Node1&#45;&gt;Node19</title>
<path fill="none" stroke="midnightblue" d="M1143,-291.8C1143,-282.91 1143,-272.78 1143,-265.75"/>
<polygon fill="midnightblue" stroke="midnightblue" points="1139.5,-292.08 1143,-302.08 1146.5,-292.08 1139.5,-292.08"/>
</g>
<!-- Node20 -->
<g id="node20" class="node">
<title>Node20</title>
<g id="a_node20"><a xlink:href="determine__tolerance_8cc.html" target="_top" xlink:title=" ">
<polygon fill="white" stroke="black" points="1207.5,-246.5 1207.5,-265.5 1338.5,-265.5 1338.5,-246.5 1207.5,-246.5"/>
<text text-anchor="middle" x="1273" y="-253.5" font-family="Helvetica,sans-Serif" font-size="10.00">determine_tolerance.cc</text>
</a>
</g>
</g>
<!-- Node1&#45;&gt;Node20 -->
<g id="edge26" class="edge">
<title>Node1&#45;&gt;Node20</title>
<path fill="none" stroke="midnightblue" d="M1173.09,-298.5C1197.46,-288.38 1231.14,-274.39 1252.5,-265.52"/>
<polygon fill="midnightblue" stroke="midnightblue" points="1171.49,-295.38 1163.6,-302.44 1174.18,-301.84 1171.49,-295.38"/>
</g>
<!-- Node21 -->
<g id="node21" class="node">
<title>Node21</title>
<g id="a_node21"><a xlink:href="road__curve__factory_8cc.html" target="_top" xlink:title=" ">
<polygon fill="white" stroke="black" points="1357,-246.5 1357,-265.5 1479,-265.5 1479,-246.5 1357,-246.5"/>
<text text-anchor="middle" x="1418" y="-253.5" font-family="Helvetica,sans-Serif" font-size="10.00">road_curve_factory.cc</text>
</a>
</g>
</g>
<!-- Node1&#45;&gt;Node21 -->
<g id="edge27" class="edge">
<title>Node1&#45;&gt;Node21</title>
<path fill="none" stroke="midnightblue" d="M1189.42,-301.88C1241.12,-291.73 1324.05,-275.45 1374.52,-265.54"/>
<polygon fill="midnightblue" stroke="midnightblue" points="1188.66,-298.47 1179.52,-303.83 1190,-305.34 1188.66,-298.47"/>
</g>
<!-- Node22 -->
<g id="node22" class="node">
<title>Node22</title>
<g id="a_node22"><a xlink:href="rule__registry__builder_8cc.html" target="_top" xlink:title=" ">
<polygon fill="white" stroke="black" points="1497.5,-246.5 1497.5,-265.5 1628.5,-265.5 1628.5,-246.5 1497.5,-246.5"/>
<text text-anchor="middle" x="1563" y="-253.5" font-family="Helvetica,sans-Serif" font-size="10.00">rule_registry_builder.cc</text>
</a>
</g>
</g>
<!-- Node1&#45;&gt;Node22 -->
<g id="edge29" class="edge">
<title>Node1&#45;&gt;Node22</title>
<path fill="none" stroke="midnightblue" d="M1189.61,-305.01C1264.48,-295.38 1411.8,-276.44 1497.31,-265.45"/>
<polygon fill="midnightblue" stroke="midnightblue" points="1189.01,-301.56 1179.54,-306.3 1189.9,-308.5 1189.01,-301.56"/>
</g>
<!-- Node23 -->
<g id="node23" class="node">
<title>Node23</title>
<g id="a_node23"><a xlink:href="speed__limit__builder_8cc.html" target="_top" xlink:title=" ">
<polygon fill="white" stroke="black" points="1647,-246.5 1647,-265.5 1773,-265.5 1773,-246.5 1647,-246.5"/>
<text text-anchor="middle" x="1710" y="-253.5" font-family="Helvetica,sans-Serif" font-size="10.00">speed_limit_builder.cc</text>
</a>
</g>
</g>
<!-- Node1&#45;&gt;Node23 -->
<g id="edge30" class="edge">
<title>Node1&#45;&gt;Node23</title>
<path fill="none" stroke="midnightblue" d="M1189.76,-307.24C1277.52,-300.07 1472.84,-283.59 1637,-266 1640.17,-265.66 1643.42,-265.3 1646.71,-264.93"/>
<polygon fill="midnightblue" stroke="midnightblue" points="1189.29,-303.77 1179.6,-308.07 1189.85,-310.74 1189.29,-303.77"/>
</g>
<!-- Node3 -->
<g id="node3" class="node">
<title>Node3</title>
<g id="a_node3"><a xlink:href="road__geometry__builder__base_8h.html" target="_top" xlink:title=" ">
<polygon fill="white" stroke="black" points="244,-179.5 244,-209.5 374,-209.5 374,-179.5 244,-179.5"/>
<text text-anchor="start" x="252" y="-197.5" font-family="Helvetica,sans-Serif" font-size="10.00">road_geometry_builder</text>
<text text-anchor="middle" x="309" y="-186.5" font-family="Helvetica,sans-Serif" font-size="10.00">_base.h</text>
</a>
</g>
</g>
<!-- Node2&#45;&gt;Node3 -->
<g id="edge2" class="edge">
<title>Node2&#45;&gt;Node3</title>
<path fill="none" stroke="midnightblue" d="M457.8,-243.36C427.65,-233.66 384.64,-219.83 352.6,-209.52"/>
<polygon fill="midnightblue" stroke="midnightblue" points="456.9,-246.75 467.49,-246.48 459.05,-240.08 456.9,-246.75"/>
</g>
<!-- Node4 -->
<g id="node4" class="node">
<title>Node4</title>
<g id="a_node4"><a xlink:href="road__geometry__builder_8h.html" target="_top" xlink:title=" ">
<polygon fill="white" stroke="black" points="348.5,-118 348.5,-137 487.5,-137 487.5,-118 348.5,-118"/>
<text text-anchor="middle" x="418" y="-125" font-family="Helvetica,sans-Serif" font-size="10.00">road_geometry_builder.h</text>
</a>
</g>
</g>
<!-- Node2&#45;&gt;Node4 -->
<g id="edge17" class="edge">
<title>Node2&#45;&gt;Node4</title>
<path fill="none" stroke="midnightblue" d="M476.55,-239.15C468.33,-231.02 458.85,-220.62 452,-210 436.21,-185.52 425.13,-152.49 420.46,-137.08"/>
<polygon fill="midnightblue" stroke="midnightblue" points="474.27,-241.81 483.92,-246.18 479.1,-236.74 474.27,-241.81"/>
</g>
<!-- Node8 -->
<g id="node8" class="node">
<title>Node8</title>
<g id="a_node8"><a xlink:href="road__network__configuration_8h.html" target="_top" xlink:title=" ">
<polygon fill="white" stroke="black" points="468,-185 468,-204 630,-204 630,-185 468,-185"/>
<text text-anchor="middle" x="549" y="-192" font-family="Helvetica,sans-Serif" font-size="10.00">road_network_configuration.h</text>
</a>
</g>
</g>
<!-- Node2&#45;&gt;Node8 -->
<g id="edge7" class="edge">
<title>Node2&#45;&gt;Node8</title>
<path fill="none" stroke="midnightblue" d="M508.79,-239C519.2,-227.74 532.73,-213.1 541.13,-204.01"/>
<polygon fill="midnightblue" stroke="midnightblue" points="506.1,-236.76 501.88,-246.48 511.24,-241.51 506.1,-236.76"/>
</g>
<!-- Node13 -->
<g id="node13" class="node">
<title>Node13</title>
<g id="a_node13"><a xlink:href="loader_8h.html" target="_top" xlink:title=" ">
<polygon fill="white" stroke="black" points="506,-118 506,-137 562,-137 562,-118 506,-118"/>
<text text-anchor="middle" x="534" y="-125" font-family="Helvetica,sans-Serif" font-size="10.00">loader.h</text>
</a>
</g>
</g>
<!-- Node2&#45;&gt;Node13 -->
<g id="edge16" class="edge">
<title>Node2&#45;&gt;Node13</title>
<path fill="none" stroke="midnightblue" d="M477.52,-238.71C463.86,-223.14 448.29,-199.12 459,-179 469.84,-158.63 492.96,-145 510.68,-137.09"/>
<polygon fill="midnightblue" stroke="midnightblue" points="475.34,-241.5 484.73,-246.41 480.45,-236.72 475.34,-241.5"/>
</g>
<!-- Node14 -->
<g id="node14" class="node">
<title>Node14</title>
<g id="a_node14"><a xlink:href="road__geometry__configuration_8cc.html" target="_top" xlink:title=" ">
<polygon fill="white" stroke="black" points="828,-185 828,-204 1002,-204 1002,-185 828,-185"/>
<text text-anchor="middle" x="915" y="-192" font-family="Helvetica,sans-Serif" font-size="10.00">road_geometry_configuration.cc</text>
</a>
</g>
</g>
<!-- Node2&#45;&gt;Node14 -->
<g id="edge18" class="edge">
<title>Node2&#45;&gt;Node14</title>
<path fill="none" stroke="midnightblue" d="M566.99,-245.08C632.68,-236.1 731.83,-222.42 818,-210 831.15,-208.1 845.29,-206.02 858.59,-204.03"/>
<polygon fill="midnightblue" stroke="midnightblue" points="566.18,-241.66 556.75,-246.48 567.13,-248.6 566.18,-241.66"/>
</g>
<!-- Node15 -->
<g id="node15" class="node">
<title>Node15</title>
<g id="a_node15"><a xlink:href="xodr__parser__configuration_8h.html" target="_top" xlink:title=" ">
<polygon fill="white" stroke="black" points="28.5,-118 28.5,-137 181.5,-137 181.5,-118 28.5,-118"/>
<text text-anchor="middle" x="105" y="-125" font-family="Helvetica,sans-Serif" font-size="10.00">xodr_parser_configuration.h</text>
</a>
</g>
</g>
<!-- Node2&#45;&gt;Node15 -->
<g id="edge19" class="edge">
<title>Node2&#45;&gt;Node15</title>
<path fill="none" stroke="midnightblue" d="M398.82,-247.38C348.81,-241.18 287.23,-230.02 235,-210 186.5,-191.41 136.46,-153.85 115.36,-137.01"/>
<polygon fill="midnightblue" stroke="midnightblue" points="398.64,-250.89 408.98,-248.6 399.47,-243.94 398.64,-250.89"/>
</g>
<!-- Node17 -->
<g id="node17" class="node">
<title>Node17</title>
<g id="a_node17"><a xlink:href="road__geometry__configuration__for__xodrs_8h.html" target="_top" xlink:title=" ">
<polygon fill="white" stroke="black" points="648.5,-179.5 648.5,-209.5 809.5,-209.5 809.5,-179.5 648.5,-179.5"/>
<text text-anchor="start" x="656.5" y="-197.5" font-family="Helvetica,sans-Serif" font-size="10.00">road_geometry_configuration</text>
<text text-anchor="middle" x="729" y="-186.5" font-family="Helvetica,sans-Serif" font-size="10.00">_for_xodrs.h</text>
</a>
</g>
</g>
<!-- Node2&#45;&gt;Node17 -->
<g id="edge23" class="edge">
<title>Node2&#45;&gt;Node17</title>
<path fill="none" stroke="midnightblue" d="M537.51,-243.98C575.89,-234.27 632.04,-220.05 673.62,-209.52"/>
<polygon fill="midnightblue" stroke="midnightblue" points="536.5,-240.63 527.67,-246.48 538.22,-247.41 536.5,-240.63"/>
</g>
<!-- Node3&#45;&gt;Node4 -->
<g id="edge3" class="edge">
<title>Node3&#45;&gt;Node4</title>
<path fill="none" stroke="midnightblue" d="M341.46,-174.14C362.18,-161.79 388,-146.39 403.73,-137.01"/>
<polygon fill="midnightblue" stroke="midnightblue" points="339.45,-171.27 332.65,-179.4 343.03,-177.28 339.45,-171.27"/>
</g>
<!-- Node7 -->
<g id="node7" class="node">
<title>Node7</title>
<g id="a_node7"><a xlink:href="road__geometry__builder__base_8cc.html" target="_top" xlink:title=" ">
<polygon fill="white" stroke="black" points="200,-112.5 200,-142.5 330,-142.5 330,-112.5 200,-112.5"/>
<text text-anchor="start" x="208" y="-130.5" font-family="Helvetica,sans-Serif" font-size="10.00">road_geometry_builder</text>
<text text-anchor="middle" x="265" y="-119.5" font-family="Helvetica,sans-Serif" font-size="10.00">_base.cc</text>
</a>
</g>
</g>
<!-- Node3&#45;&gt;Node7 -->
<g id="edge6" class="edge">
<title>Node3&#45;&gt;Node7</title>
<path fill="none" stroke="midnightblue" d="M293.68,-170.87C287.31,-161.46 280.12,-150.83 274.53,-142.58"/>
<polygon fill="midnightblue" stroke="midnightblue" points="290.95,-173.08 299.45,-179.4 296.75,-169.15 290.95,-173.08"/>
</g>
<!-- Node5 -->
<g id="node5" class="node">
<title>Node5</title>
<g id="a_node5"><a xlink:href="road__geometry__builder_8cc.html" target="_top" xlink:title=" ">
<polygon fill="white" stroke="black" points="246.5,-56.5 246.5,-75.5 389.5,-75.5 389.5,-56.5 246.5,-56.5"/>
<text text-anchor="middle" x="318" y="-63.5" font-family="Helvetica,sans-Serif" font-size="10.00">road_geometry_builder.cc</text>
</a>
</g>
</g>
<!-- Node4&#45;&gt;Node5 -->
<g id="edge4" class="edge">
<title>Node4&#45;&gt;Node5</title>
<path fill="none" stroke="midnightblue" d="M394.88,-112.74C375.56,-101.25 348.63,-85.22 332.3,-75.51"/>
<polygon fill="midnightblue" stroke="midnightblue" points="393.29,-115.87 403.67,-117.98 396.87,-109.85 393.29,-115.87"/>
</g>
<!-- Node4&#45;&gt;Node6 -->
<g id="edge5" class="edge">
<title>Node4&#45;&gt;Node6</title>
<path fill="none" stroke="midnightblue" d="M417.25,-107.86C415.67,-92.19 411.06,-70.14 398,-56 380.36,-36.9 353.86,-25.87 330.16,-19.52"/>
<polygon fill="midnightblue" stroke="midnightblue" points="413.77,-108.21 417.95,-117.94 420.75,-107.72 413.77,-108.21"/>
</g>
<!-- Node9 -->
<g id="node9" class="node">
<title>Node9</title>
<g id="a_node9"><a xlink:href="road__network__builder_8h.html" target="_top" xlink:title=" ">
<polygon fill="white" stroke="black" points="562.5,-56.5 562.5,-75.5 693.5,-75.5 693.5,-56.5 562.5,-56.5"/>
<text text-anchor="middle" x="628" y="-63.5" font-family="Helvetica,sans-Serif" font-size="10.00">road_network_builder.h</text>
</a>
</g>
</g>
<!-- Node8&#45;&gt;Node9 -->
<g id="edge8" class="edge">
<title>Node8&#45;&gt;Node9</title>
<path fill="none" stroke="midnightblue" d="M559.76,-176.26C576.85,-148.9 609.58,-96.49 622.53,-75.76"/>
<polygon fill="midnightblue" stroke="midnightblue" points="556.76,-174.47 554.43,-184.81 562.7,-178.18 556.76,-174.47"/>
</g>
<!-- Node12 -->
<g id="node12" class="node">
<title>Node12</title>
<g id="a_node12"><a xlink:href="road__network__builder__base_8h.html" target="_top" xlink:title=" ">
<polygon fill="white" stroke="black" points="618,-112.5 618,-142.5 740,-142.5 740,-112.5 618,-112.5"/>
<text text-anchor="start" x="626" y="-130.5" font-family="Helvetica,sans-Serif" font-size="10.00">road_network_builder</text>
<text text-anchor="middle" x="679" y="-119.5" font-family="Helvetica,sans-Serif" font-size="10.00">_base.h</text>
</a>
</g>
</g>
<!-- Node8&#45;&gt;Node12 -->
<g id="edge12" class="edge">
<title>Node8&#45;&gt;Node12</title>
<path fill="none" stroke="midnightblue" d="M575.32,-180.34C597.2,-169.4 628.28,-153.86 650.7,-142.65"/>
<polygon fill="midnightblue" stroke="midnightblue" points="573.64,-177.27 566.26,-184.87 576.77,-183.53 573.64,-177.27"/>
</g>
<!-- Node8&#45;&gt;Node13 -->
<g id="edge14" class="edge">
<title>Node8&#45;&gt;Node13</title>
<path fill="none" stroke="midnightblue" d="M544.71,-174.91C541.84,-162.49 538.2,-146.72 535.99,-137.13"/>
<polygon fill="midnightblue" stroke="midnightblue" points="541.32,-175.78 546.98,-184.73 548.14,-174.2 541.32,-175.78"/>
</g>
<!-- Node9&#45;&gt;Node6 -->
<g id="edge9" class="edge">
<title>Node9&#45;&gt;Node6</title>
<path fill="none" stroke="midnightblue" d="M562.46,-54.92C496.15,-44.71 394.76,-29.12 332.36,-19.52"/>
<polygon fill="midnightblue" stroke="midnightblue" points="561.97,-58.38 572.38,-56.44 563.03,-51.46 561.97,-58.38"/>
</g>
<!-- Node10 -->
<g id="node10" class="node">
<title>Node10</title>
<g id="a_node10"><a xlink:href="loader_8cc.html" target="_top" xlink:title=" ">
<polygon fill="white" stroke="black" points="550.5,-0.5 550.5,-19.5 611.5,-19.5 611.5,-0.5 550.5,-0.5"/>
<text text-anchor="middle" x="581" y="-7.5" font-family="Helvetica,sans-Serif" font-size="10.00">loader.cc</text>
</a>
</g>
</g>
<!-- Node9&#45;&gt;Node10 -->
<g id="edge10" class="edge">
<title>Node9&#45;&gt;Node10</title>
<path fill="none" stroke="midnightblue" d="M613.58,-48.43C605.34,-38.97 595.35,-27.48 588.62,-19.75"/>
<polygon fill="midnightblue" stroke="midnightblue" points="611.03,-50.84 620.24,-56.08 616.31,-46.24 611.03,-50.84"/>
</g>
<!-- Node9&#45;&gt;Node11 -->
<g id="edge11" class="edge">
<title>Node9&#45;&gt;Node11</title>
<path fill="none" stroke="midnightblue" d="M679.19,-54.41C728.51,-44.2 802.19,-28.96 847.84,-19.52"/>
<polygon fill="midnightblue" stroke="midnightblue" points="678.44,-50.99 669.36,-56.44 679.86,-57.84 678.44,-50.99"/>
</g>
<!-- Node12&#45;&gt;Node9 -->
<g id="edge13" class="edge">
<title>Node12&#45;&gt;Node9</title>
<path fill="none" stroke="midnightblue" d="M660.32,-104.7C651.69,-94.64 641.93,-83.26 635.42,-75.66"/>
<polygon fill="midnightblue" stroke="midnightblue" points="657.75,-107.08 666.91,-112.4 663.06,-102.53 657.75,-107.08"/>
</g>
<!-- Node13&#45;&gt;Node10 -->
<g id="edge15" class="edge">
<title>Node13&#45;&gt;Node10</title>
<path fill="none" stroke="midnightblue" d="M537.48,-107.8C540.54,-93.29 545.67,-72.88 553,-56 558.87,-42.5 568.34,-28.29 574.62,-19.54"/>
<polygon fill="midnightblue" stroke="midnightblue" points="533.97,-107.49 535.46,-117.98 540.83,-108.85 533.97,-107.49"/>
</g>
<!-- Node15&#45;&gt;Node5 -->
<g id="edge20" class="edge">
<title>Node15&#45;&gt;Node5</title>
<path fill="none" stroke="midnightblue" d="M145.28,-115.25C186.66,-103.69 250.16,-85.95 287.54,-75.51"/>
<polygon fill="midnightblue" stroke="midnightblue" points="144.21,-111.91 135.52,-117.98 146.09,-118.66 144.21,-111.91"/>
</g>
<!-- Node15&#45;&gt;Node6 -->
<g id="edge21" class="edge">
<title>Node15&#45;&gt;Node6</title>
<path fill="none" stroke="midnightblue" d="M84.31,-111.23C66.78,-96.43 46.61,-73.7 61,-56 79.46,-33.3 152.79,-21.67 208.94,-15.98"/>
<polygon fill="midnightblue" stroke="midnightblue" points="82.54,-114.29 92.54,-117.79 86.91,-108.82 82.54,-114.29"/>
</g>
<!-- Node16 -->
<g id="node16" class="node">
<title>Node16</title>
<g id="a_node16"><a xlink:href="xodr__parser__configuration_8cc.html" target="_top" xlink:title=" ">
<polygon fill="white" stroke="black" points="70,-56.5 70,-75.5 228,-75.5 228,-56.5 70,-56.5"/>
<text text-anchor="middle" x="149" y="-63.5" font-family="Helvetica,sans-Serif" font-size="10.00">xodr_parser_configuration.cc</text>
</a>
</g>
</g>
<!-- Node15&#45;&gt;Node16 -->
<g id="edge22" class="edge">
<title>Node15&#45;&gt;Node16</title>
<path fill="none" stroke="midnightblue" d="M117.32,-109.84C125.58,-98.67 136.11,-84.43 142.71,-75.51"/>
<polygon fill="midnightblue" stroke="midnightblue" points="114.44,-107.85 111.3,-117.98 120.06,-112.02 114.44,-107.85"/>
</g>
<!-- Node17&#45;&gt;Node18 -->
<g id="edge24" class="edge">
<title>Node17&#45;&gt;Node18</title>
<path fill="none" stroke="midnightblue" d="M777.05,-175.96C805.72,-165.48 841.64,-152.37 868.45,-142.58"/>
<polygon fill="midnightblue" stroke="midnightblue" points="775.82,-172.68 767.62,-179.4 778.22,-179.25 775.82,-172.68"/>
</g>
</g>
</svg>
        <g id="navigator" transform="translate(0 0)" fill="#404254">
                <rect fill="#f2f5e9" fill-opacity="0.5" stroke="#606060" stroke-width=".5" x="0" y="0" width="60" height="60"/>
                <use id="zoomplus" xlink:href="#zoomPlus" x="17" y="9" onmousedown="handleZoom(evt,'in')"/>
                <use id="zoomminus" xlink:href="#zoomMin" x="42" y="9" onmousedown="handleZoom(evt,'out')"/>
                <use id="reset" xlink:href="#resetDef" x="30" y="36" onmousedown="handleReset()"/>
                <g id="arrowUp" xlink:href="#dirArrow" transform="translate(30 24)" onmousedown="handlePan(0,-1)">
                  <use xlink:href="#rim" fill="#404040">
                        <set attributeName="fill" to="#808080" begin="arrowUp.mouseover" end="arrowUp.mouseout"/>
                  </use>
                  <path fill="none" stroke="white" stroke-width="1.5" d="M0,-3.0v7 M-2.5,-0.5L0,-3.0L2.5,-0.5"/>
                </g>
                <g id="arrowRight" xlink:href="#dirArrow" transform="rotate(90) translate(36 -43)" onmousedown="handlePan(1,0)">
                  <use xlink:href="#rim" fill="#404040">
                        <set attributeName="fill" to="#808080" begin="arrowRight.mouseover" end="arrowRight.mouseout"/>
                  </use>
                  <path fill="none" stroke="white" stroke-width="1.5" d="M0,-3.0v7 M-2.5,-0.5L0,-3.0L2.5,-0.5"/>
                </g>
                <g id="arrowDown" xlink:href="#dirArrow" transform="rotate(180) translate(-30 -48)" onmousedown="handlePan(0,1)">
                  <use xlink:href="#rim" fill="#404040">
                        <set attributeName="fill" to="#808080" begin="arrowDown.mouseover" end="arrowDown.mouseout"/>
                  </use>
                  <path fill="none" stroke="white" stroke-width="1.5" d="M0,-3.0v7 M-2.5,-0.5L0,-3.0L2.5,-0.5"/>
                </g>
                <g id="arrowLeft" xlink:href="#dirArrow" transform="rotate(270) translate(-36 17)" onmousedown="handlePan(-1,0)">
                  <use xlink:href="#rim" fill="#404040">
                        <set attributeName="fill" to="#808080" begin="arrowLeft.mouseover" end="arrowLeft.mouseout"/>
                  </use>
                  <path fill="none" stroke="white" stroke-width="1.5" d="M0,-3.0v7 M-2.5,-0.5L0,-3.0L2.5,-0.5"/>
                </g>
        </g>
        <svg viewBox="0 0 15 15" width="100%" height="30px" preserveAspectRatio="xMaxYMin meet">
         <g id="arrow_out" transform="scale(0.3 0.3)">
          <a xlink:href="constants_8h__dep__incl_org.svg" target="_base">
           <rect id="button" ry="5" rx="5" y="6" x="6" height="38" width="38"
                fill="#f2f5e9" fill-opacity="0.5" stroke="#606060" stroke-width="1.0"/>
           <path id="arrow"
             d="M 11.500037,31.436501 C 11.940474,20.09759 22.043105,11.32322 32.158766,21.979434 L 37.068811,17.246167 C 37.068811,17.246167 37.088388,32 37.088388,32 L 22.160133,31.978069 C 22.160133,31.978069 26.997745,27.140456 26.997745,27.140456 C 18.528582,18.264221 13.291696,25.230495 11.500037,31.436501 z"
             style="fill:#404040;"/>
          </a>
         </g>
        </svg>
</svg>
