<?xml version="1.0" encoding="UTF-8" standalone="no"?>
<!DOCTYPE svg PUBLIC "-//W3C//DTD SVG 1.1//EN"
 "http://www.w3.org/Graphics/SVG/1.1/DTD/svg11.dtd">
<!-- Generated by graphviz version 2.40.1 (20161225.0304)
 -->
<!-- Title: cubic_polynomial.h Pages: 1 -->
<svg width="396pt" height="84pt"
 viewBox="0.00 0.00 396.00 84.00" xmlns="http://www.w3.org/2000/svg" xmlns:xlink="http://www.w3.org/1999/xlink">
<g id="graph0" class="graph" transform="scale(1 1) rotate(0) translate(4 80)">
<title>cubic_polynomial.h</title>
<polygon fill="#ffffff" stroke="transparent" points="-4,4 -4,-80 392,-80 392,4 -4,4"/>
<!-- Node10 -->
<g id="node1" class="node">
<title>Node10</title>
<polygon fill="#bfbfbf" stroke="#000000" points="158.5,-56.5 158.5,-75.5 269.5,-75.5 269.5,-56.5 158.5,-56.5"/>
<text text-anchor="middle" x="214" y="-63.5" font-family="Helvetica,sans-Serif" font-size="10.00" fill="#000000">cubic_polynomial.h</text>
</g>
<!-- Node11 -->
<g id="node2" class="node">
<title>Node11</title>
<g id="a_node2"><a xlink:href="road__curve__factory_8cc.html" target="_top" xlink:title="road_curve_factory.cc">
<polygon fill="#ffffff" stroke="#000000" points="0,-.5 0,-19.5 124,-19.5 124,-.5 0,-.5"/>
<text text-anchor="middle" x="62" y="-7.5" font-family="Helvetica,sans-Serif" font-size="10.00" fill="#000000">road_curve_factory.cc</text>
</a>
</g>
</g>
<!-- Node10&#45;&gt;Node11 -->
<g id="edge1" class="edge">
<title>Node10&#45;&gt;Node11</title>
<path fill="none" stroke="#191970" d="M178.141,-52.7888C150.3877,-42.5639 112.6181,-28.6488 87.7888,-19.5011"/>
<polygon fill="#191970" stroke="#191970" points="177.2768,-56.2003 187.8703,-56.3733 179.6968,-49.6319 177.2768,-56.2003"/>
</g>
<!-- Node12 -->
<g id="node3" class="node">
<title>Node12</title>
<g id="a_node3"><a xlink:href="road__geometry__builder_8cc.html" target="_top" xlink:title="road_geometry_builder.cc">
<polygon fill="#ffffff" stroke="#000000" points="142.5,-.5 142.5,-19.5 285.5,-19.5 285.5,-.5 142.5,-.5"/>
<text text-anchor="middle" x="214" y="-7.5" font-family="Helvetica,sans-Serif" font-size="10.00" fill="#000000">road_geometry_builder.cc</text>
</a>
</g>
</g>
<!-- Node10&#45;&gt;Node12 -->
<g id="edge2" class="edge">
<title>Node10&#45;&gt;Node12</title>
<path fill="none" stroke="#191970" d="M214,-46.1575C214,-37.155 214,-26.9199 214,-19.6427"/>
<polygon fill="#191970" stroke="#191970" points="210.5001,-46.2455 214,-56.2455 217.5001,-46.2456 210.5001,-46.2455"/>
</g>
<!-- Node13 -->
<g id="node4" class="node">
<title>Node13</title>
<g id="a_node4"><a xlink:href="road__curve_8cc.html" target="_top" xlink:title="road_curve.cc">
<polygon fill="#ffffff" stroke="#000000" points="304,-.5 304,-19.5 388,-19.5 388,-.5 304,-.5"/>
<text text-anchor="middle" x="346" y="-7.5" font-family="Helvetica,sans-Serif" font-size="10.00" fill="#000000">road_curve.cc</text>
</a>
</g>
</g>
<!-- Node10&#45;&gt;Node13 -->
<g id="edge3" class="edge">
<title>Node10&#45;&gt;Node13</title>
<path fill="none" stroke="#191970" d="M246.0965,-52.3833C270.1035,-42.1985 302.3259,-28.5284 323.6045,-19.5011"/>
<polygon fill="#191970" stroke="#191970" points="244.5305,-49.2457 236.6916,-56.3733 247.2644,-55.6897 244.5305,-49.2457"/>
</g>
</g>
</svg>
