<?xml version="1.0" encoding="UTF-8" standalone="no"?>
<!DOCTYPE svg PUBLIC "-//W3C//DTD SVG 1.1//EN"
 "http://www.w3.org/Graphics/SVG/1.1/DTD/svg11.dtd">
<!-- Generated by graphviz version 2.40.1 (20161225.0304)
 -->
<!-- Title: db_manager.h Pages: 1 -->
<!--zoomable 196 -->
<svg id="main" version="1.1" xmlns="http://www.w3.org/2000/svg" xmlns:xlink="http://www.w3.org/1999/xlink" xml:space="preserve" onload="init(evt)">
<style type="text/css"><![CDATA[
.edge:hover path { stroke: red; }
.edge:hover polygon { stroke: red; fill: red; }
]]></style>
<script type="text/javascript"><![CDATA[
var edges = document.getElementsByTagName('g');
if (edges && edges.length) {
  for (var i=0;i<edges.length;i++) {
    if (edges[i].id.substr(0,4)=='edge') {
      edges[i].setAttribute('class','edge');
    }
  }
}
]]></script>
        <defs>
                <circle id="rim" cx="0" cy="0" r="7"/>
                <circle id="rim2" cx="0" cy="0" r="3.5"/>
                <g id="zoomPlus">
                        <use xlink:href="#rim" fill="#404040">
                                <set attributeName="fill" to="#808080" begin="zoomplus.mouseover" end="zoomplus.mouseout"/>
                        </use>
                        <path d="M-4,0h8M0,-4v8" fill="none" stroke="white" stroke-width="1.5" pointer-events="none"/>
                </g>
                <g id="zoomMin">
                        <use xlink:href="#rim" fill="#404040">
                                <set attributeName="fill" to="#808080" begin="zoomminus.mouseover" end="zoomminus.mouseout"/>
                        </use>
                        <path d="M-4,0h8" fill="none" stroke="white" stroke-width="1.5" pointer-events="none"/>
                </g>
                <g id="dirArrow">
                        <path fill="none" stroke="white" stroke-width="1.5" d="M0,-3.0v7 M-2.5,-0.5L0,-3.0L2.5,-0.5"/>
                </g>
               <g id="resetDef">
                       <use xlink:href="#rim2" fill="#404040">
                               <set attributeName="fill" to="#808080" begin="reset.mouseover" end="reset.mouseout"/>
                       </use>
               </g>
        </defs>

<script type="text/javascript">
var viewWidth = 884;
var viewHeight = 196;
var sectionId = 'dynsection-1';
</script>
<script xlink:href="svgpan.js"/>
<svg id="graph" class="graph">
<g id="viewport">
<title>db_manager.h</title>
<polygon fill="#ffffff" stroke="transparent" points="-4,4 -4,-192 880,-192 880,4 -4,4"/>
<!-- Node40 -->
<g id="node1" class="node">
<title>Node40</title>
<polygon fill="#bfbfbf" stroke="#000000" points="341.5,-168.5 341.5,-187.5 427.5,-187.5 427.5,-168.5 341.5,-168.5"/>
<text text-anchor="middle" x="384.5" y="-175.5" font-family="Helvetica,sans-Serif" font-size="10.00" fill="#000000">db_manager.h</text>
</g>
<!-- Node41 -->
<g id="node2" class="node">
<title>Node41</title>
<g id="a_node2"><a xlink:href="xodr__query_8cc.html" target="_top" xlink:title="xodr_query.cc">
<polygon fill="#ffffff" stroke="#000000" points="0,-112.5 0,-131.5 85,-131.5 85,-112.5 0,-112.5"/>
<text text-anchor="middle" x="42.5" y="-119.5" font-family="Helvetica,sans-Serif" font-size="10.00" fill="#000000">xodr_query.cc</text>
</a>
</g>
</g>
<!-- Node40&#45;&gt;Node41 -->
<g id="edge1" class="edge">
<title>Node40&#45;&gt;Node41</title>
<path fill="none" stroke="#191970" d="M330.9218,-170.1354C272.464,-161.4135 176.1716,-146.6341 93.5,-132 90.7458,-131.5125 87.9107,-130.9964 85.0548,-130.4658"/>
<polygon fill="#191970" stroke="#191970" points="330.625,-173.6296 341.0312,-171.6395 331.6552,-166.7059 330.625,-173.6296"/>
</g>
<!-- Node42 -->
<g id="node3" class="node">
<title>Node42</title>
<g id="a_node3"><a xlink:href="xodr__validate_8cc.html" target="_top" xlink:title="xodr_validate.cc">
<polygon fill="#ffffff" stroke="#000000" points="103,-112.5 103,-131.5 200,-131.5 200,-112.5 103,-112.5"/>
<text text-anchor="middle" x="151.5" y="-119.5" font-family="Helvetica,sans-Serif" font-size="10.00" fill="#000000">xodr_validate.cc</text>
</a>
</g>
</g>
<!-- Node40&#45;&gt;Node42 -->
<g id="edge2" class="edge">
<title>Node40&#45;&gt;Node42</title>
<path fill="none" stroke="#191970" d="M334.7682,-166.0473C291.8828,-155.7401 230.7748,-141.0532 191.1253,-131.5237"/>
<polygon fill="#191970" stroke="#191970" points="334.1696,-169.503 344.7106,-168.4369 335.8054,-162.6968 334.1696,-169.503"/>
</g>
<!-- Node43 -->
<g id="node4" class="node">
<title>Node43</title>
<g id="a_node4"><a xlink:href="road__geometry_8h.html" target="_top" xlink:title="road_geometry.h">
<polygon fill="#ffffff" stroke="#000000" points="218.5,-112.5 218.5,-131.5 318.5,-131.5 318.5,-112.5 218.5,-112.5"/>
<text text-anchor="middle" x="268.5" y="-119.5" font-family="Helvetica,sans-Serif" font-size="10.00" fill="#000000">road_geometry.h</text>
</a>
</g>
</g>
<!-- Node40&#45;&gt;Node43 -->
<g id="edge3" class="edge">
<title>Node40&#45;&gt;Node43</title>
<path fill="none" stroke="#191970" d="M355.4463,-163.9741C334.4435,-153.8348 306.6309,-140.408 288.1809,-131.5011"/>
<polygon fill="#191970" stroke="#191970" points="354.0317,-167.1776 364.5589,-168.3733 357.075,-160.8738 354.0317,-167.1776"/>
</g>
<!-- Node46 -->
<g id="node7" class="node">
<title>Node46</title>
<g id="a_node7"><a xlink:href="builder__tools_8cc.html" target="_top" xlink:title="builder_tools.cc">
<polygon fill="#ffffff" stroke="#000000" points="203,-56.5 203,-75.5 296,-75.5 296,-56.5 203,-56.5"/>
<text text-anchor="middle" x="249.5" y="-63.5" font-family="Helvetica,sans-Serif" font-size="10.00" fill="#000000">builder_tools.cc</text>
</a>
</g>
</g>
<!-- Node40&#45;&gt;Node46 -->
<g id="edge10" class="edge">
<title>Node40&#45;&gt;Node46</title>
<path fill="none" stroke="#191970" d="M371.3742,-159.7662C360.6252,-145.6452 344.4701,-126.1678 327.5,-112 309.5183,-96.9877 286.0451,-83.8677 269.5644,-75.5228"/>
<polygon fill="#191970" stroke="#191970" points="368.8385,-162.2222 377.6114,-168.1625 374.4578,-158.0479 368.8385,-162.2222"/>
</g>
<!-- Node47 -->
<g id="node8" class="node">
<title>Node47</title>
<g id="a_node8"><a xlink:href="road__geometry__builder_8h.html" target="_top" xlink:title="road_geometry_builder.h">
<polygon fill="#ffffff" stroke="#000000" points="314,-56.5 314,-75.5 453,-75.5 453,-56.5 314,-56.5"/>
<text text-anchor="middle" x="383.5" y="-63.5" font-family="Helvetica,sans-Serif" font-size="10.00" fill="#000000">road_geometry_builder.h</text>
</a>
</g>
</g>
<!-- Node40&#45;&gt;Node47 -->
<g id="edge14" class="edge">
<title>Node40&#45;&gt;Node47</title>
<path fill="none" stroke="#191970" d="M384.3238,-158.2702C384.1071,-133.9985 383.748,-93.7725 383.585,-75.5249"/>
<polygon fill="#191970" stroke="#191970" points="380.8255,-158.4826 384.4147,-168.4509 387.8252,-158.4201 380.8255,-158.4826"/>
</g>
<!-- Node50 -->
<g id="node11" class="node">
<title>Node50</title>
<g id="a_node11"><a xlink:href="determine__tolerance_8h.html" target="_top" xlink:title="determine_tolerance.h">
<polygon fill="#ffffff" stroke="#000000" points="416,-112.5 416,-131.5 543,-131.5 543,-112.5 416,-112.5"/>
<text text-anchor="middle" x="479.5" y="-119.5" font-family="Helvetica,sans-Serif" font-size="10.00" fill="#000000">determine_tolerance.h</text>
</a>
</g>
</g>
<!-- Node40&#45;&gt;Node50 -->
<g id="edge11" class="edge">
<title>Node40&#45;&gt;Node50</title>
<path fill="none" stroke="#191970" d="M409.8676,-163.0465C426.771,-153.0824 448.4904,-140.2794 463.1419,-131.6427"/>
<polygon fill="#191970" stroke="#191970" points="407.8851,-160.1522 401.0477,-168.2455 411.4398,-166.1825 407.8851,-160.1522"/>
</g>
<!-- Node52 -->
<g id="node13" class="node">
<title>Node52</title>
<g id="a_node13"><a xlink:href="simplify__geometries_8h.html" target="_top" xlink:title="simplify_geometries.h">
<polygon fill="#ffffff" stroke="#000000" points="561.5,-112.5 561.5,-131.5 687.5,-131.5 687.5,-112.5 561.5,-112.5"/>
<text text-anchor="middle" x="624.5" y="-119.5" font-family="Helvetica,sans-Serif" font-size="10.00" fill="#000000">simplify_geometries.h</text>
</a>
</g>
</g>
<!-- Node40&#45;&gt;Node52 -->
<g id="edge15" class="edge">
<title>Node40&#45;&gt;Node52</title>
<path fill="none" stroke="#191970" d="M435.4466,-166.1125C479.634,-155.8021 542.7574,-141.0733 583.6843,-131.5237"/>
<polygon fill="#191970" stroke="#191970" points="434.4279,-162.7561 425.4848,-168.4369 436.0185,-169.573 434.4279,-162.7561"/>
</g>
<!-- Node54 -->
<g id="node15" class="node">
<title>Node54</title>
<g id="a_node15"><a xlink:href="loader_8cc.html" target="_top" xlink:title="loader.cc">
<polygon fill="#ffffff" stroke="#000000" points="706,-112.5 706,-131.5 767,-131.5 767,-112.5 706,-112.5"/>
<text text-anchor="middle" x="736.5" y="-119.5" font-family="Helvetica,sans-Serif" font-size="10.00" fill="#000000">loader.cc</text>
</a>
</g>
</g>
<!-- Node40&#45;&gt;Node54 -->
<g id="edge18" class="edge">
<title>Node40&#45;&gt;Node54</title>
<path fill="none" stroke="#191970" d="M437.6148,-171.7894C499.9243,-164.1299 606.1967,-149.8996 696.5,-132 699.5895,-131.3876 702.7986,-130.6903 705.995,-129.9554"/>
<polygon fill="#191970" stroke="#191970" points="437.1304,-168.3224 427.6276,-173.007 437.9777,-175.271 437.1304,-168.3224"/>
</g>
<!-- Node55 -->
<g id="node16" class="node">
<title>Node55</title>
<g id="a_node16"><a xlink:href="db__manager_8cc.html" target="_top" xlink:title="db_manager.cc">
<polygon fill="#ffffff" stroke="#000000" points="785,-112.5 785,-131.5 876,-131.5 876,-112.5 785,-112.5"/>
<text text-anchor="middle" x="830.5" y="-119.5" font-family="Helvetica,sans-Serif" font-size="10.00" fill="#000000">db_manager.cc</text>
</a>
</g>
</g>
<!-- Node40&#45;&gt;Node55 -->
<g id="edge19" class="edge">
<title>Node40&#45;&gt;Node55</title>
<path fill="none" stroke="#191970" d="M437.7543,-172.8816C513.2972,-165.3641 655.8161,-150.2349 776.5,-132 779.2339,-131.5869 782.0414,-131.1391 784.8707,-130.6697"/>
<polygon fill="#191970" stroke="#191970" points="437.1553,-169.4236 427.5486,-173.8913 437.8446,-176.3896 437.1553,-169.4236"/>
</g>
<!-- Node44 -->
<g id="node5" class="node">
<title>Node44</title>
<g id="a_node5"><a xlink:href="base_2lane_8cc.html" target="_top" xlink:title="lane.cc">
<polygon fill="#ffffff" stroke="#000000" points="11,-56.5 11,-75.5 62,-75.5 62,-56.5 11,-56.5"/>
<text text-anchor="middle" x="36.5" y="-63.5" font-family="Helvetica,sans-Serif" font-size="10.00" fill="#000000">lane.cc</text>
</a>
</g>
</g>
<!-- Node43&#45;&gt;Node44 -->
<g id="edge4" class="edge">
<title>Node43&#45;&gt;Node44</title>
<path fill="none" stroke="#191970" d="M214.9218,-110.2333C175.2065,-101.3308 119.8177,-88.5357 71.5,-76 68.4415,-75.2065 65.2426,-74.3415 62.0747,-73.4632"/>
<polygon fill="#191970" stroke="#191970" points="214.3995,-113.7028 224.922,-112.467 215.9254,-106.8712 214.3995,-113.7028"/>
</g>
<!-- Node45 -->
<g id="node6" class="node">
<title>Node45</title>
<g id="a_node6"><a xlink:href="road__geometry_8cc.html" target="_top" xlink:title="road_geometry.cc">
<polygon fill="#ffffff" stroke="#000000" points="80.5,-56.5 80.5,-75.5 184.5,-75.5 184.5,-56.5 80.5,-56.5"/>
<text text-anchor="middle" x="132.5" y="-63.5" font-family="Helvetica,sans-Serif" font-size="10.00" fill="#000000">road_geometry.cc</text>
</a>
</g>
</g>
<!-- Node43&#45;&gt;Node45 -->
<g id="edge5" class="edge">
<title>Node43&#45;&gt;Node45</title>
<path fill="none" stroke="#191970" d="M235.7601,-108.5189C210.9917,-98.3201 177.595,-84.5685 155.5742,-75.5011"/>
<polygon fill="#191970" stroke="#191970" points="234.5413,-111.8021 245.1208,-112.3733 237.2066,-105.3293 234.5413,-111.8021"/>
</g>
<!-- Node43&#45;&gt;Node46 -->
<g id="edge6" class="edge">
<title>Node43&#45;&gt;Node46</title>
<path fill="none" stroke="#191970" d="M261.9685,-102.7493C258.8664,-93.6064 255.2949,-83.0798 252.7716,-75.6427"/>
<polygon fill="#191970" stroke="#191970" points="258.663,-103.9003 265.1905,-112.2455 265.2918,-101.6512 258.663,-103.9003"/>
</g>
<!-- Node43&#45;&gt;Node47 -->
<g id="edge7" class="edge">
<title>Node43&#45;&gt;Node47</title>
<path fill="none" stroke="#191970" d="M297.3033,-107.9741C318.125,-97.8348 345.6978,-84.408 363.9888,-75.5011"/>
<polygon fill="#191970" stroke="#191970" points="295.7276,-104.8484 288.2692,-112.3733 298.7922,-111.1419 295.7276,-104.8484"/>
</g>
<!-- Node48 -->
<g id="node9" class="node">
<title>Node48</title>
<g id="a_node9"><a xlink:href="road__geometry__builder_8cc.html" target="_top" xlink:title="road_geometry_builder.cc">
<polygon fill="#ffffff" stroke="#000000" points="440,-.5 440,-19.5 583,-19.5 583,-.5 440,-.5"/>
<text text-anchor="middle" x="511.5" y="-7.5" font-family="Helvetica,sans-Serif" font-size="10.00" fill="#000000">road_geometry_builder.cc</text>
</a>
</g>
</g>
<!-- Node47&#45;&gt;Node48 -->
<g id="edge8" class="edge">
<title>Node47&#45;&gt;Node48</title>
<path fill="none" stroke="#191970" d="M414.9348,-52.2473C438.1809,-42.0771 469.2411,-28.4883 489.7831,-19.5011"/>
<polygon fill="#191970" stroke="#191970" points="413.2627,-49.1585 405.504,-56.3733 416.0685,-55.5716 413.2627,-49.1585"/>
</g>
<!-- Node49 -->
<g id="node10" class="node">
<title>Node49</title>
<g id="a_node10"><a xlink:href="road__network__builder_8cc.html" target="_top" xlink:title="road_network_builder.cc">
<polygon fill="#ffffff" stroke="#000000" points="285.5,-.5 285.5,-19.5 421.5,-19.5 421.5,-.5 285.5,-.5"/>
<text text-anchor="middle" x="353.5" y="-7.5" font-family="Helvetica,sans-Serif" font-size="10.00" fill="#000000">road_network_builder.cc</text>
</a>
</g>
</g>
<!-- Node47&#45;&gt;Node49 -->
<g id="edge9" class="edge">
<title>Node47&#45;&gt;Node49</title>
<path fill="none" stroke="#191970" d="M373.502,-47.3372C368.5324,-38.0605 362.7356,-27.2398 358.6657,-19.6427"/>
<polygon fill="#191970" stroke="#191970" points="370.4669,-49.0835 378.2744,-56.2455 376.6373,-45.7779 370.4669,-49.0835"/>
</g>
<!-- Node50&#45;&gt;Node48 -->
<g id="edge13" class="edge">
<title>Node50&#45;&gt;Node48</title>
<path fill="none" stroke="#191970" d="M485.0432,-102.5987C491.9677,-78.363 503.5414,-37.8551 508.7786,-19.5249"/>
<polygon fill="#191970" stroke="#191970" points="481.6102,-101.8742 482.2283,-112.4509 488.3409,-103.7972 481.6102,-101.8742"/>
</g>
<!-- Node51 -->
<g id="node12" class="node">
<title>Node51</title>
<g id="a_node12"><a xlink:href="determine__tolerance_8cc.html" target="_top" xlink:title="determine_tolerance.cc">
<polygon fill="#ffffff" stroke="#000000" points="510,-56.5 510,-75.5 641,-75.5 641,-56.5 510,-56.5"/>
<text text-anchor="middle" x="575.5" y="-63.5" font-family="Helvetica,sans-Serif" font-size="10.00" fill="#000000">determine_tolerance.cc</text>
</a>
</g>
</g>
<!-- Node50&#45;&gt;Node51 -->
<g id="edge12" class="edge">
<title>Node50&#45;&gt;Node51</title>
<path fill="none" stroke="#191970" d="M505.1346,-107.0465C522.2159,-97.0824 544.164,-84.2794 558.9697,-75.6427"/>
<polygon fill="#191970" stroke="#191970" points="503.0962,-104.1836 496.2219,-112.2455 506.6233,-110.23 503.0962,-104.1836"/>
</g>
<!-- Node52&#45;&gt;Node48 -->
<g id="edge16" class="edge">
<title>Node52&#45;&gt;Node48</title>
<path fill="none" stroke="#191970" d="M640.3048,-104.391C650.8985,-90.3669 661.1305,-70.7155 650.5,-56 639.4851,-40.7523 594.7484,-27.7603 558.9622,-19.512"/>
<polygon fill="#191970" stroke="#191970" points="637.4594,-102.342 633.8453,-112.3014 642.8813,-106.7695 637.4594,-102.342"/>
</g>
<!-- Node53 -->
<g id="node14" class="node">
<title>Node53</title>
<g id="a_node14"><a xlink:href="simplify__geometries_8cc.html" target="_top" xlink:title="simplify_geometries.cc">
<polygon fill="#ffffff" stroke="#000000" points="698,-56.5 698,-75.5 829,-75.5 829,-56.5 698,-56.5"/>
<text text-anchor="middle" x="763.5" y="-63.5" font-family="Helvetica,sans-Serif" font-size="10.00" fill="#000000">simplify_geometries.cc</text>
</a>
</g>
</g>
<!-- Node52&#45;&gt;Node53 -->
<g id="edge17" class="edge">
<title>Node52&#45;&gt;Node53</title>
<path fill="none" stroke="#191970" d="M657.9621,-108.5189C683.2769,-98.3201 717.4103,-84.5685 739.9169,-75.5011"/>
<polygon fill="#191970" stroke="#191970" points="656.3626,-105.3899 648.395,-112.3733 658.9784,-111.8827 656.3626,-105.3899"/>
</g>
</g>
</svg>
        <g id="navigator" transform="translate(0 0)" fill="#404254">
                <rect fill="#f2f5e9" fill-opacity="0.5" stroke="#606060" stroke-width=".5" x="0" y="0" width="60" height="60"/>
                <use id="zoomplus" xlink:href="#zoomPlus" x="17" y="9" onmousedown="handleZoom(evt,'in')"/>
                <use id="zoomminus" xlink:href="#zoomMin" x="42" y="9" onmousedown="handleZoom(evt,'out')"/>
                <use id="reset" xlink:href="#resetDef" x="30" y="36" onmousedown="handleReset()"/>
                <g id="arrowUp" xlink:href="#dirArrow" transform="translate(30 24)" onmousedown="handlePan(0,-1)">
                  <use xlink:href="#rim" fill="#404040">
                        <set attributeName="fill" to="#808080" begin="arrowUp.mouseover" end="arrowUp.mouseout"/>
                  </use>
                  <path fill="none" stroke="white" stroke-width="1.5" d="M0,-3.0v7 M-2.5,-0.5L0,-3.0L2.5,-0.5"/>
                </g>
                <g id="arrowRight" xlink:href="#dirArrow" transform="rotate(90) translate(36 -43)" onmousedown="handlePan(1,0)">
                  <use xlink:href="#rim" fill="#404040">
                        <set attributeName="fill" to="#808080" begin="arrowRight.mouseover" end="arrowRight.mouseout"/>
                  </use>
                  <path fill="none" stroke="white" stroke-width="1.5" d="M0,-3.0v7 M-2.5,-0.5L0,-3.0L2.5,-0.5"/>
                </g>
                <g id="arrowDown" xlink:href="#dirArrow" transform="rotate(180) translate(-30 -48)" onmousedown="handlePan(0,1)">
                  <use xlink:href="#rim" fill="#404040">
                        <set attributeName="fill" to="#808080" begin="arrowDown.mouseover" end="arrowDown.mouseout"/>
                  </use>
                  <path fill="none" stroke="white" stroke-width="1.5" d="M0,-3.0v7 M-2.5,-0.5L0,-3.0L2.5,-0.5"/>
                </g>
                <g id="arrowLeft" xlink:href="#dirArrow" transform="rotate(270) translate(-36 17)" onmousedown="handlePan(-1,0)">
                  <use xlink:href="#rim" fill="#404040">
                        <set attributeName="fill" to="#808080" begin="arrowLeft.mouseover" end="arrowLeft.mouseout"/>
                  </use>
                  <path fill="none" stroke="white" stroke-width="1.5" d="M0,-3.0v7 M-2.5,-0.5L0,-3.0L2.5,-0.5"/>
                </g>
        </g>
        <svg viewBox="0 0 15 15" width="100%" height="30px" preserveAspectRatio="xMaxYMin meet">
         <g id="arrow_out" transform="scale(0.3 0.3)">
          <a xlink:href="db__manager_8h__dep__incl_org.svg" target="_base">
           <rect id="button" ry="5" rx="5" y="6" x="6" height="38" width="38"
                fill="#f2f5e9" fill-opacity="0.5" stroke="#606060" stroke-width="1.0"/>
           <path id="arrow"
             d="M 11.500037,31.436501 C 11.940474,20.09759 22.043105,11.32322 32.158766,21.979434 L 37.068811,17.246167 C 37.068811,17.246167 37.088388,32 37.088388,32 L 22.160133,31.978069 C 22.160133,31.978069 26.997745,27.140456 26.997745,27.140456 C 18.528582,18.264221 13.291696,25.230495 11.500037,31.436501 z"
             style="fill:#404040;"/>
          </a>
         </g>
        </svg>
</svg>
