<?xml version="1.0" encoding="UTF-8" standalone="no"?>
<!DOCTYPE svg PUBLIC "-//W3C//DTD SVG 1.1//EN"
 "http://www.w3.org/Graphics/SVG/1.1/DTD/svg11.dtd">
<!-- Generated by graphviz version 2.43.0 (0)
 -->
<!-- Title: test_utilities Pages: 1 -->
<svg width="137pt" height="223pt"
 viewBox="0.00 0.00 136.50 223.00" xmlns="http://www.w3.org/2000/svg" xmlns:xlink="http://www.w3.org/1999/xlink">
<g id="graph0" class="graph" transform="scale(1 1) rotate(0) translate(4 219)">
<title>test_utilities</title>
<polygon fill="white" stroke="transparent" points="-4,4 -4,-219 132.5,-219 132.5,4 -4,4"/>
<g id="clust1" class="cluster">
<title>clusterdir_6999865786191093171eaf56dfb05f4a</title>
<g id="a_clust1"><a xlink:href="dir_6999865786191093171eaf56dfb05f4a.html" target="_top" xlink:title="maliput_malidrive">
<polygon fill="#ddddee" stroke="black" points="14.5,-136 14.5,-207 120.5,-207 120.5,-136 14.5,-136"/>
<text text-anchor="middle" x="67.5" y="-195" font-family="Helvetica,sans-Serif" font-size="10.00">maliput_malidrive</text>
</a>
</g>
</g>
<!-- dir_f258adedcad150ae68b73b0229cee4ac -->
<g id="node1" class="node">
<title>dir_f258adedcad150ae68b73b0229cee4ac</title>
<g id="a_node1"><a xlink:href="dir_f258adedcad150ae68b73b0229cee4ac.html" target="_top" xlink:title="test_utilities">
<polygon fill="#eeeeff" stroke="black" points="106,-180 29,-180 29,-144 106,-144 106,-180"/>
<text text-anchor="middle" x="67.5" y="-159.5" font-family="Helvetica,sans-Serif" font-size="10.00">test_utilities</text>
</a>
</g>
</g>
<!-- dir_75b848219d2d898998d8867f19e6d54f -->
<g id="node2" class="node">
<title>dir_75b848219d2d898998d8867f19e6d54f</title>
<g id="a_node2"><a xlink:href="dir_75b848219d2d898998d8867f19e6d54f.html" target="_top" xlink:title="road_curve">
<polygon fill="none" stroke="black" points="71,-108 0,-108 0,-72 71,-72 71,-108"/>
<text text-anchor="middle" x="35.5" y="-87.5" font-family="Helvetica,sans-Serif" font-size="10.00">road_curve</text>
</a>
</g>
</g>
<!-- dir_f258adedcad150ae68b73b0229cee4ac&#45;&gt;dir_75b848219d2d898998d8867f19e6d54f -->
<g id="edge2" class="edge">
<title>dir_f258adedcad150ae68b73b0229cee4ac&#45;&gt;dir_75b848219d2d898998d8867f19e6d54f</title>
<path fill="none" stroke="black" d="M59.59,-143.7C55.95,-135.73 51.55,-126.1 47.51,-117.26"/>
<polygon fill="black" stroke="black" points="50.66,-115.74 43.32,-108.1 44.29,-118.65 50.66,-115.74"/>
<g id="a_edge2&#45;headlabel"><a xlink:href="dir_000009_000002.html" target="_top" xlink:title="2">
<text text-anchor="middle" x="54.74" y="-115.33" font-family="Helvetica,sans-Serif" font-size="10.00">2</text>
</a>
</g>
</g>
<!-- dir_d44c64559bbebec7f509842c48db8b23 -->
<g id="node3" class="node">
<title>dir_d44c64559bbebec7f509842c48db8b23</title>
<g id="a_node3"><a xlink:href="dir_d44c64559bbebec7f509842c48db8b23.html" target="_top" xlink:title="include">
<polygon fill="white" stroke="red" points="94.5,-36 40.5,-36 40.5,0 94.5,0 94.5,-36"/>
<text text-anchor="middle" x="67.5" y="-15.5" font-family="Helvetica,sans-Serif" font-size="10.00">include</text>
</a>
</g>
</g>
<!-- dir_f258adedcad150ae68b73b0229cee4ac&#45;&gt;dir_d44c64559bbebec7f509842c48db8b23 -->
<g id="edge3" class="edge">
<title>dir_f258adedcad150ae68b73b0229cee4ac&#45;&gt;dir_d44c64559bbebec7f509842c48db8b23</title>
<path fill="none" stroke="black" d="M72.91,-143.53C75.8,-133.29 79.05,-120.04 80.5,-108 82.42,-92.12 82.42,-87.88 80.5,-72 79.48,-63.53 77.57,-54.47 75.52,-46.28"/>
<polygon fill="black" stroke="black" points="78.86,-45.23 72.91,-36.47 72.1,-47.03 78.86,-45.23"/>
<g id="a_edge3&#45;headlabel"><a xlink:href="dir_000009_000006.html" target="_top" xlink:title="4">
<text text-anchor="middle" x="82.53" y="-45.48" font-family="Helvetica,sans-Serif" font-size="10.00">4</text>
</a>
</g>
</g>
<!-- dir_75b848219d2d898998d8867f19e6d54f&#45;&gt;dir_d44c64559bbebec7f509842c48db8b23 -->
<g id="edge1" class="edge">
<title>dir_75b848219d2d898998d8867f19e6d54f&#45;&gt;dir_d44c64559bbebec7f509842c48db8b23</title>
<path fill="none" stroke="black" d="M43.41,-71.7C47.05,-63.73 51.45,-54.1 55.49,-45.26"/>
<polygon fill="black" stroke="black" points="58.71,-46.65 59.68,-36.1 52.34,-43.74 58.71,-46.65"/>
<g id="a_edge1&#45;headlabel"><a xlink:href="dir_000002_000006.html" target="_top" xlink:title="19">
<text text-anchor="middle" x="59.79" y="-48.6" font-family="Helvetica,sans-Serif" font-size="10.00">19</text>
</a>
</g>
</g>
</g>
</svg>
