<?xml version="1.0" encoding="UTF-8" standalone="no"?>
<!DOCTYPE svg PUBLIC "-//W3C//DTD SVG 1.1//EN"
 "http://www.w3.org/Graphics/SVG/1.1/DTD/svg11.dtd">
<!-- Generated by graphviz version 2.40.1 (20161225.0304)
 -->
<!-- Title: maliput_malidrive Pages: 1 -->
<svg width="234pt" height="327pt"
 viewBox="0.00 0.00 234.00 327.00" xmlns="http://www.w3.org/2000/svg" xmlns:xlink="http://www.w3.org/1999/xlink">
<g id="graph0" class="graph" transform="scale(1 1) rotate(0) translate(4 323)">
<title>maliput_malidrive</title>
<polygon fill="#ffffff" stroke="transparent" points="-4,4 -4,-323 230,-323 230,4 -4,4"/>
<g id="clust1" class="cluster">
<title>clusterdir_d44c64559bbebec7f509842c48db8b23</title>
<g id="a_clust1"><a xlink:href="dir_d44c64559bbebec7f509842c48db8b23.html" target="_top" xlink:title="include">
<polygon fill="#ddddee" stroke="#000000" points="8,-8 8,-311 218,-311 218,-8 8,-8"/>
<text text-anchor="middle" x="113" y="-299" font-family="Helvetica,sans-Serif" font-size="10.00" fill="#000000">include</text>
</a>
</g>
</g>
<g id="clust2" class="cluster">
<title>clusterdir_5a82c8036f1ef46304bba692ed74458c</title>
<g id="a_clust2"><a xlink:href="dir_5a82c8036f1ef46304bba692ed74458c.html" target="_top">
<polygon fill="#eeeeff" stroke="#000000" points="16,-16 16,-284 210,-284 210,-16 16,-16"/>
</a>
</g>
</g>
<!-- dir_5a82c8036f1ef46304bba692ed74458c -->
<g id="node1" class="node">
<title>dir_5a82c8036f1ef46304bba692ed74458c</title>
<text text-anchor="middle" x="149" y="-255.5" font-family="Helvetica,sans-Serif" font-size="10.00" fill="#000000">maliput_malidrive</text>
</g>
<!-- dir_c829cf1fa264f00894b47963f22d3114 -->
<g id="node2" class="node">
<title>dir_c829cf1fa264f00894b47963f22d3114</title>
<g id="a_node2"><a xlink:href="dir_c829cf1fa264f00894b47963f22d3114.html" target="_top" xlink:title="base">
<polygon fill="#ffffff" stroke="#000000" points="168,-132 114,-132 114,-96 168,-96 168,-132"/>
<text text-anchor="middle" x="141" y="-111.5" font-family="Helvetica,sans-Serif" font-size="10.00" fill="#000000">base</text>
</a>
</g>
</g>
<!-- dir_d441fccfc78c650ef7b949479760f3cc -->
<g id="node4" class="node">
<title>dir_d441fccfc78c650ef7b949479760f3cc</title>
<g id="a_node4"><a xlink:href="dir_d441fccfc78c650ef7b949479760f3cc.html" target="_top" xlink:title="common">
<polygon fill="#ffffff" stroke="#000000" points="170.5,-60 111.5,-60 111.5,-24 170.5,-24 170.5,-60"/>
<text text-anchor="middle" x="141" y="-39.5" font-family="Helvetica,sans-Serif" font-size="10.00" fill="#000000">common</text>
</a>
</g>
</g>
<!-- dir_c829cf1fa264f00894b47963f22d3114&#45;&gt;dir_d441fccfc78c650ef7b949479760f3cc -->
<g id="edge1" class="edge">
<title>dir_c829cf1fa264f00894b47963f22d3114&#45;&gt;dir_d441fccfc78c650ef7b949479760f3cc</title>
<path fill="none" stroke="#000000" d="M141,-95.8314C141,-88.131 141,-78.9743 141,-70.4166"/>
<polygon fill="#000000" stroke="#000000" points="144.5001,-70.4132 141,-60.4133 137.5001,-70.4133 144.5001,-70.4132"/>
<g id="a_edge1&#45;headlabel"><a xlink:href="dir_000011_000016.html" target="_top" xlink:title="1">
<text text-anchor="middle" x="147.3393" y="-71.5079" font-family="Helvetica,sans-Serif" font-size="10.00" fill="#000000">1</text>
</a>
</g>
</g>
<!-- dir_fea9de7b0f3c0e351f62db9031e33a2c -->
<g id="node3" class="node">
<title>dir_fea9de7b0f3c0e351f62db9031e33a2c</title>
<g id="a_node3"><a xlink:href="dir_fea9de7b0f3c0e351f62db9031e33a2c.html" target="_top" xlink:title="builder">
<polygon fill="#ffffff" stroke="#000000" points="168,-204 114,-204 114,-168 168,-168 168,-204"/>
<text text-anchor="middle" x="141" y="-183.5" font-family="Helvetica,sans-Serif" font-size="10.00" fill="#000000">builder</text>
</a>
</g>
</g>
<!-- dir_fea9de7b0f3c0e351f62db9031e33a2c&#45;&gt;dir_c829cf1fa264f00894b47963f22d3114 -->
<g id="edge2" class="edge">
<title>dir_fea9de7b0f3c0e351f62db9031e33a2c&#45;&gt;dir_c829cf1fa264f00894b47963f22d3114</title>
<path fill="none" stroke="#000000" d="M141,-167.8314C141,-160.131 141,-150.9743 141,-142.4166"/>
<polygon fill="#000000" stroke="#000000" points="144.5001,-142.4132 141,-132.4133 137.5001,-142.4133 144.5001,-142.4132"/>
<g id="a_edge2&#45;headlabel"><a xlink:href="dir_000010_000011.html" target="_top" xlink:title="2">
<text text-anchor="middle" x="147.3393" y="-143.5079" font-family="Helvetica,sans-Serif" font-size="10.00" fill="#000000">2</text>
</a>
</g>
</g>
<!-- dir_fea9de7b0f3c0e351f62db9031e33a2c&#45;&gt;dir_d441fccfc78c650ef7b949479760f3cc -->
<g id="edge3" class="edge">
<title>dir_fea9de7b0f3c0e351f62db9031e33a2c&#45;&gt;dir_d441fccfc78c650ef7b949479760f3cc</title>
<path fill="none" stroke="#000000" d="M156.9905,-167.9169C164.6538,-158.0371 173.0166,-145.1563 177,-132 181.6365,-116.6865 181.6365,-111.3135 177,-96 174.0436,-86.2355 168.6748,-76.6229 162.97,-68.2762"/>
<polygon fill="#000000" stroke="#000000" points="165.7129,-66.0973 156.9905,-60.0831 160.0586,-70.2239 165.7129,-66.0973"/>
<g id="a_edge3&#45;headlabel"><a xlink:href="dir_000010_000016.html" target="_top" xlink:title="2">
<text text-anchor="middle" x="170.1253" y="-64.827" font-family="Helvetica,sans-Serif" font-size="10.00" fill="#000000">2</text>
</a>
</g>
</g>
<!-- dir_010690897e50831fd729205a781cd9cb -->
<g id="node5" class="node">
<title>dir_010690897e50831fd729205a781cd9cb</title>
<g id="a_node5"><a xlink:href="dir_010690897e50831fd729205a781cd9cb.html" target="_top" xlink:title="loader">
<polygon fill="#ffffff" stroke="#000000" points="78,-276 24,-276 24,-240 78,-240 78,-276"/>
<text text-anchor="middle" x="51" y="-255.5" font-family="Helvetica,sans-Serif" font-size="10.00" fill="#000000">loader</text>
</a>
</g>
</g>
<!-- dir_010690897e50831fd729205a781cd9cb&#45;&gt;dir_c829cf1fa264f00894b47963f22d3114 -->
<g id="edge4" class="edge">
<title>dir_010690897e50831fd729205a781cd9cb&#45;&gt;dir_c829cf1fa264f00894b47963f22d3114</title>
<path fill="none" stroke="#000000" d="M61.5087,-239.9168C72.2134,-221.6333 89.4095,-192.6361 105,-168 110.6345,-159.0963 116.9564,-149.4918 122.7115,-140.8866"/>
<polygon fill="#000000" stroke="#000000" points="125.7749,-142.6033 128.4513,-132.352 119.9663,-138.6968 125.7749,-142.6033"/>
<g id="a_edge4&#45;headlabel"><a xlink:href="dir_000014_000011.html" target="_top" xlink:title="1">
<text text-anchor="middle" x="126.1249" y="-144.6705" font-family="Helvetica,sans-Serif" font-size="10.00" fill="#000000">1</text>
</a>
</g>
</g>
<!-- dir_010690897e50831fd729205a781cd9cb&#45;&gt;dir_fea9de7b0f3c0e351f62db9031e33a2c -->
<g id="edge5" class="edge">
<title>dir_010690897e50831fd729205a781cd9cb&#45;&gt;dir_fea9de7b0f3c0e351f62db9031e33a2c</title>
<path fill="none" stroke="#000000" d="M73.7108,-239.8314C84.796,-230.9632 98.2954,-220.1637 110.2852,-210.5718"/>
<polygon fill="#000000" stroke="#000000" points="112.6742,-213.1429 118.2965,-204.1628 108.3013,-207.6768 112.6742,-213.1429"/>
<g id="a_edge5&#45;headlabel"><a xlink:href="dir_000014_000010.html" target="_top" xlink:title="2">
<text text-anchor="middle" x="111.641" y="-215.1055" font-family="Helvetica,sans-Serif" font-size="10.00" fill="#000000">2</text>
</a>
</g>
</g>
<!-- dir_2c2a71c93a42a340c434ec4501274b26 -->
<g id="node6" class="node">
<title>dir_2c2a71c93a42a340c434ec4501274b26</title>
<g id="a_node6"><a xlink:href="dir_2c2a71c93a42a340c434ec4501274b26.html" target="_top" xlink:title="road_curve">
<polygon fill="#ffffff" stroke="#000000" points="95.5,-132 24.5,-132 24.5,-96 95.5,-96 95.5,-132"/>
<text text-anchor="middle" x="60" y="-111.5" font-family="Helvetica,sans-Serif" font-size="10.00" fill="#000000">road_curve</text>
</a>
</g>
</g>
<!-- dir_2c2a71c93a42a340c434ec4501274b26&#45;&gt;dir_d441fccfc78c650ef7b949479760f3cc -->
<g id="edge6" class="edge">
<title>dir_2c2a71c93a42a340c434ec4501274b26&#45;&gt;dir_d441fccfc78c650ef7b949479760f3cc</title>
<path fill="none" stroke="#000000" d="M80.4397,-95.8314C90.3205,-87.0485 102.3324,-76.3712 113.045,-66.8489"/>
<polygon fill="#000000" stroke="#000000" points="115.418,-69.4224 120.5668,-60.1628 110.7674,-64.1906 115.418,-69.4224"/>
<g id="a_edge6&#45;headlabel"><a xlink:href="dir_000017_000016.html" target="_top" xlink:title="1">
<text text-anchor="middle" x="114.6177" y="-71.4326" font-family="Helvetica,sans-Serif" font-size="10.00" fill="#000000">1</text>
</a>
</g>
</g>
</g>
</svg>
