<?xml version="1.0" encoding="UTF-8" standalone="no"?>
<!DOCTYPE svg PUBLIC "-//W3C//DTD SVG 1.1//EN"
 "http://www.w3.org/Graphics/SVG/1.1/DTD/svg11.dtd">
<!-- Generated by graphviz version 2.40.1 (20161225.0304)
 -->
<!-- Title: builder Pages: 1 -->
<svg width="203pt" height="295pt"
 viewBox="0.00 0.00 202.79 295.00" xmlns="http://www.w3.org/2000/svg" xmlns:xlink="http://www.w3.org/1999/xlink">
<g id="graph0" class="graph" transform="scale(1 1) rotate(0) translate(4 291)">
<title>builder</title>
<polygon fill="#ffffff" stroke="transparent" points="-4,4 -4,-291 198.7901,-291 198.7901,4 -4,4"/>
<g id="clust1" class="cluster">
<title>clusterdir_6999865786191093171eaf56dfb05f4a</title>
<g id="a_clust1"><a xlink:href="dir_6999865786191093171eaf56dfb05f4a.html" target="_top" xlink:title="maliput_malidrive">
<polygon fill="#ddddee" stroke="#000000" points="73.5,-208 73.5,-279 179.5,-279 179.5,-208 73.5,-208"/>
<text text-anchor="middle" x="126.5" y="-267" font-family="Helvetica,sans-Serif" font-size="10.00" fill="#000000">maliput_malidrive</text>
</a>
</g>
</g>
<!-- dir_4760e0277592796f2906f7edd6f834c1 -->
<g id="node1" class="node">
<title>dir_4760e0277592796f2906f7edd6f834c1</title>
<g id="a_node1"><a xlink:href="dir_4760e0277592796f2906f7edd6f834c1.html" target="_top" xlink:title="builder">
<polygon fill="#eeeeff" stroke="#000000" points="153.5,-252 99.5,-252 99.5,-216 153.5,-216 153.5,-252"/>
<text text-anchor="middle" x="126.5" y="-231.5" font-family="Helvetica,sans-Serif" font-size="10.00" fill="#000000">builder</text>
</a>
</g>
</g>
<!-- dir_f25c280267bbf00751ea0ccdfab0b809 -->
<g id="node2" class="node">
<title>dir_f25c280267bbf00751ea0ccdfab0b809</title>
<g id="a_node2"><a xlink:href="dir_f25c280267bbf00751ea0ccdfab0b809.html" target="_top" xlink:title="base">
<polygon fill="none" stroke="#000000" points="126.5,-180 72.5,-180 72.5,-144 126.5,-144 126.5,-180"/>
<text text-anchor="middle" x="99.5" y="-159.5" font-family="Helvetica,sans-Serif" font-size="10.00" fill="#000000">base</text>
</a>
</g>
</g>
<!-- dir_4760e0277592796f2906f7edd6f834c1&#45;&gt;dir_f25c280267bbf00751ea0ccdfab0b809 -->
<g id="edge5" class="edge">
<title>dir_4760e0277592796f2906f7edd6f834c1&#45;&gt;dir_f25c280267bbf00751ea0ccdfab0b809</title>
<path fill="none" stroke="#000000" d="M119.6868,-215.8314C116.7356,-207.9617 113.2142,-198.5712 109.945,-189.8533"/>
<polygon fill="#000000" stroke="#000000" points="113.1934,-188.5476 106.405,-180.4133 106.6391,-191.0055 113.1934,-188.5476"/>
<g id="a_edge5&#45;headlabel"><a xlink:href="dir_000003_000012.html" target="_top" xlink:title="9">
<text text-anchor="middle" x="117.114" y="-188.4164" font-family="Helvetica,sans-Serif" font-size="10.00" fill="#000000">9</text>
</a>
</g>
</g>
<!-- dir_75b848219d2d898998d8867f19e6d54f -->
<g id="node3" class="node">
<title>dir_75b848219d2d898998d8867f19e6d54f</title>
<g id="a_node3"><a xlink:href="dir_75b848219d2d898998d8867f19e6d54f.html" target="_top" xlink:title="road_curve">
<polygon fill="none" stroke="#000000" points="71,-108 0,-108 0,-72 71,-72 71,-108"/>
<text text-anchor="middle" x="35.5" y="-87.5" font-family="Helvetica,sans-Serif" font-size="10.00" fill="#000000">road_curve</text>
</a>
</g>
</g>
<!-- dir_4760e0277592796f2906f7edd6f834c1&#45;&gt;dir_75b848219d2d898998d8867f19e6d54f -->
<g id="edge6" class="edge">
<title>dir_4760e0277592796f2906f7edd6f834c1&#45;&gt;dir_75b848219d2d898998d8867f19e6d54f</title>
<path fill="none" stroke="#000000" d="M99.4606,-216.2223C86.9576,-206.7834 72.8425,-194.201 63.5,-180 51.1882,-161.2857 44.0371,-136.8505 40.048,-118.1642"/>
<polygon fill="#000000" stroke="#000000" points="43.45,-117.3237 38.0969,-108.1806 36.58,-118.6663 43.45,-117.3237"/>
<g id="a_edge6&#45;headlabel"><a xlink:href="dir_000003_000002.html" target="_top" xlink:title="14">
<text text-anchor="middle" x="46.9259" y="-117.807" font-family="Helvetica,sans-Serif" font-size="10.00" fill="#000000">14</text>
</a>
</g>
</g>
<!-- dir_d44c64559bbebec7f509842c48db8b23 -->
<g id="node4" class="node">
<title>dir_d44c64559bbebec7f509842c48db8b23</title>
<g id="a_node4"><a xlink:href="dir_d44c64559bbebec7f509842c48db8b23.html" target="_top" xlink:title="include">
<polygon fill="#ffffff" stroke="#ff0000" points="153.5,-36 99.5,-36 99.5,0 153.5,0 153.5,-36"/>
<text text-anchor="middle" x="126.5" y="-15.5" font-family="Helvetica,sans-Serif" font-size="10.00" fill="#000000">include</text>
</a>
</g>
</g>
<!-- dir_4760e0277592796f2906f7edd6f834c1&#45;&gt;dir_d44c64559bbebec7f509842c48db8b23 -->
<g id="edge7" class="edge">
<title>dir_4760e0277592796f2906f7edd6f834c1&#45;&gt;dir_d44c64559bbebec7f509842c48db8b23</title>
<path fill="none" stroke="#000000" d="M139.2449,-215.8813C154.9489,-192.3289 180.748,-149.3103 190.5,-108 194.176,-92.428 197.2421,-86.5101 190.5,-72 184.3381,-58.7387 173.138,-47.5619 161.8101,-38.8788"/>
<polygon fill="#000000" stroke="#000000" points="163.7766,-35.9822 153.6093,-33.0028 159.6995,-41.6723 163.7766,-35.9822"/>
<g id="a_edge7&#45;headlabel"><a xlink:href="dir_000003_000006.html" target="_top" xlink:title="34">
<text text-anchor="middle" x="168.3523" y="-33.2678" font-family="Helvetica,sans-Serif" font-size="10.00" fill="#000000">34</text>
</a>
</g>
</g>
<!-- dir_b3770ee9ccff99a2e84e4a506f0c1cb6 -->
<g id="node5" class="node">
<title>dir_b3770ee9ccff99a2e84e4a506f0c1cb6</title>
<g id="a_node5"><a xlink:href="dir_b3770ee9ccff99a2e84e4a506f0c1cb6.html" target="_top" xlink:title="xodr">
<polygon fill="none" stroke="#000000" points="181.5,-108 127.5,-108 127.5,-72 181.5,-72 181.5,-108"/>
<text text-anchor="middle" x="154.5" y="-87.5" font-family="Helvetica,sans-Serif" font-size="10.00" fill="#000000">xodr</text>
</a>
</g>
</g>
<!-- dir_4760e0277592796f2906f7edd6f834c1&#45;&gt;dir_b3770ee9ccff99a2e84e4a506f0c1cb6 -->
<g id="edge8" class="edge">
<title>dir_4760e0277592796f2906f7edd6f834c1&#45;&gt;dir_b3770ee9ccff99a2e84e4a506f0c1cb6</title>
<path fill="none" stroke="#000000" d="M130.0462,-215.7623C134.8431,-191.0928 143.4439,-146.8598 149.0608,-117.9731"/>
<polygon fill="#000000" stroke="#000000" points="152.5095,-118.5738 150.9826,-108.0896 145.6381,-117.2377 152.5095,-118.5738"/>
<g id="a_edge8&#45;headlabel"><a xlink:href="dir_000003_000005.html" target="_top" xlink:title="18">
<text text-anchor="middle" x="154.6105" y="-120.1443" font-family="Helvetica,sans-Serif" font-size="10.00" fill="#000000">18</text>
</a>
</g>
</g>
<!-- dir_f25c280267bbf00751ea0ccdfab0b809&#45;&gt;dir_75b848219d2d898998d8867f19e6d54f -->
<g id="edge1" class="edge">
<title>dir_f25c280267bbf00751ea0ccdfab0b809&#45;&gt;dir_75b848219d2d898998d8867f19e6d54f</title>
<path fill="none" stroke="#000000" d="M83.3501,-143.8314C75.8283,-135.3694 66.7435,-125.1489 58.5196,-115.8971"/>
<polygon fill="#000000" stroke="#000000" points="61.127,-113.5621 51.8673,-108.4133 55.8951,-118.2127 61.127,-113.5621"/>
<g id="a_edge1&#45;headlabel"><a xlink:href="dir_000012_000002.html" target="_top" xlink:title="6">
<text text-anchor="middle" x="65.6372" y="-111.8624" font-family="Helvetica,sans-Serif" font-size="10.00" fill="#000000">6</text>
</a>
</g>
</g>
<!-- dir_f25c280267bbf00751ea0ccdfab0b809&#45;&gt;dir_d44c64559bbebec7f509842c48db8b23 -->
<g id="edge2" class="edge">
<title>dir_f25c280267bbf00751ea0ccdfab0b809&#45;&gt;dir_d44c64559bbebec7f509842c48db8b23</title>
<path fill="none" stroke="#000000" d="M102.9196,-143.7623C107.5451,-119.0928 115.8388,-74.8598 121.255,-45.9731"/>
<polygon fill="#000000" stroke="#000000" points="124.7053,-46.5634 123.1082,-36.0896 117.8252,-45.2733 124.7053,-46.5634"/>
<g id="a_edge2&#45;headlabel"><a xlink:href="dir_000012_000006.html" target="_top" xlink:title="4">
<text text-anchor="middle" x="126.8336" y="-48.1196" font-family="Helvetica,sans-Serif" font-size="10.00" fill="#000000">4</text>
</a>
</g>
</g>
<!-- dir_f25c280267bbf00751ea0ccdfab0b809&#45;&gt;dir_b3770ee9ccff99a2e84e4a506f0c1cb6 -->
<g id="edge3" class="edge">
<title>dir_f25c280267bbf00751ea0ccdfab0b809&#45;&gt;dir_b3770ee9ccff99a2e84e4a506f0c1cb6</title>
<path fill="none" stroke="#000000" d="M113.3788,-143.8314C119.7136,-135.5386 127.3384,-125.557 134.2926,-116.4533"/>
<polygon fill="#000000" stroke="#000000" points="137.1452,-118.4847 140.4343,-108.4133 131.5825,-114.2353 137.1452,-118.4847"/>
<g id="a_edge3&#45;headlabel"><a xlink:href="dir_000012_000005.html" target="_top" xlink:title="1">
<text text-anchor="middle" x="137.2195" y="-120.5647" font-family="Helvetica,sans-Serif" font-size="10.00" fill="#000000">1</text>
</a>
</g>
</g>
<!-- dir_75b848219d2d898998d8867f19e6d54f&#45;&gt;dir_d44c64559bbebec7f509842c48db8b23 -->
<g id="edge4" class="edge">
<title>dir_75b848219d2d898998d8867f19e6d54f&#45;&gt;dir_d44c64559bbebec7f509842c48db8b23</title>
<path fill="none" stroke="#000000" d="M58.4631,-71.8314C69.6715,-62.9632 83.3209,-52.1637 95.4439,-42.5718"/>
<polygon fill="#000000" stroke="#000000" points="97.8737,-45.1125 103.5442,-36.1628 93.5303,-39.6229 97.8737,-45.1125"/>
<g id="a_edge4&#45;headlabel"><a xlink:href="dir_000002_000006.html" target="_top" xlink:title="19">
<text text-anchor="middle" x="96.8164" y="-47.0694" font-family="Helvetica,sans-Serif" font-size="10.00" fill="#000000">19</text>
</a>
</g>
</g>
<!-- dir_b3770ee9ccff99a2e84e4a506f0c1cb6&#45;&gt;dir_d44c64559bbebec7f509842c48db8b23 -->
<g id="edge9" class="edge">
<title>dir_b3770ee9ccff99a2e84e4a506f0c1cb6&#45;&gt;dir_d44c64559bbebec7f509842c48db8b23</title>
<path fill="none" stroke="#000000" d="M147.4344,-71.8314C144.374,-63.9617 140.7221,-54.5712 137.3318,-45.8533"/>
<polygon fill="#000000" stroke="#000000" points="140.5473,-44.4647 133.6607,-36.4133 134.0232,-47.0019 140.5473,-44.4647"/>
<g id="a_edge9&#45;headlabel"><a xlink:href="dir_000005_000006.html" target="_top" xlink:title="16">
<text text-anchor="middle" x="144.4963" y="-44.2859" font-family="Helvetica,sans-Serif" font-size="10.00" fill="#000000">16</text>
</a>
</g>
</g>
</g>
</svg>
