<?xml version="1.0" encoding="UTF-8" standalone="no"?>
<!DOCTYPE svg PUBLIC "-//W3C//DTD SVG 1.1//EN"
 "http://www.w3.org/Graphics/SVG/1.1/DTD/svg11.dtd">
<!-- Generated by graphviz version 2.43.0 (0)
 -->
<!-- Title: loader Pages: 1 -->
<svg width="130pt" height="223pt"
 viewBox="0.00 0.00 130.00 223.00" xmlns="http://www.w3.org/2000/svg" xmlns:xlink="http://www.w3.org/1999/xlink">
<g id="graph0" class="graph" transform="scale(1 1) rotate(0) translate(4 219)">
<title>loader</title>
<polygon fill="white" stroke="transparent" points="-4,4 -4,-219 126,-219 126,4 -4,4"/>
<g id="clust1" class="cluster">
<title>clusterdir_5a82c8036f1ef46304bba692ed74458c</title>
<g id="a_clust1"><a xlink:href="dir_5a82c8036f1ef46304bba692ed74458c.html" target="_top" xlink:title="maliput_malidrive">
<polygon fill="#ddddee" stroke="black" points="8,-136 8,-207 114,-207 114,-136 8,-136"/>
<text text-anchor="middle" x="61" y="-195" font-family="Helvetica,sans-Serif" font-size="10.00">maliput_malidrive</text>
</a>
</g>
</g>
<!-- dir_010690897e50831fd729205a781cd9cb -->
<g id="node1" class="node">
<title>dir_010690897e50831fd729205a781cd9cb</title>
<g id="a_node1"><a xlink:href="dir_010690897e50831fd729205a781cd9cb.html" target="_top" xlink:title="loader">
<polygon fill="#eeeeff" stroke="black" points="88,-180 34,-180 34,-144 88,-144 88,-180"/>
<text text-anchor="middle" x="61" y="-159.5" font-family="Helvetica,sans-Serif" font-size="10.00">loader</text>
</a>
</g>
</g>
<!-- dir_c829cf1fa264f00894b47963f22d3114 -->
<g id="node2" class="node">
<title>dir_c829cf1fa264f00894b47963f22d3114</title>
<g id="a_node2"><a xlink:href="dir_c829cf1fa264f00894b47963f22d3114.html" target="_top" xlink:title="base">
<polygon fill="none" stroke="black" points="87,-36 33,-36 33,0 87,0 87,-36"/>
<text text-anchor="middle" x="60" y="-15.5" font-family="Helvetica,sans-Serif" font-size="10.00">base</text>
</a>
</g>
</g>
<!-- dir_010690897e50831fd729205a781cd9cb&#45;&gt;dir_c829cf1fa264f00894b47963f22d3114 -->
<g id="edge2" class="edge">
<title>dir_010690897e50831fd729205a781cd9cb&#45;&gt;dir_c829cf1fa264f00894b47963f22d3114</title>
<path fill="none" stroke="black" d="M57.35,-143.91C55.32,-133.57 53.02,-120.09 52,-108 50.66,-92.06 50.8,-87.96 52,-72 52.64,-63.52 53.84,-54.34 55.12,-46.04"/>
<polygon fill="black" stroke="black" points="58.58,-46.55 56.75,-36.11 51.68,-45.41 58.58,-46.55"/>
<g id="a_edge2&#45;headlabel"><a xlink:href="dir_000014_000011.html" target="_top" xlink:title="1">
<text text-anchor="middle" x="60.8" y="-48.05" font-family="Helvetica,sans-Serif" font-size="10.00">1</text>
</a>
</g>
</g>
<!-- dir_fea9de7b0f3c0e351f62db9031e33a2c -->
<g id="node3" class="node">
<title>dir_fea9de7b0f3c0e351f62db9031e33a2c</title>
<g id="a_node3"><a xlink:href="dir_fea9de7b0f3c0e351f62db9031e33a2c.html" target="_top" xlink:title="builder">
<polygon fill="none" stroke="black" points="115,-108 61,-108 61,-72 115,-72 115,-108"/>
<text text-anchor="middle" x="88" y="-87.5" font-family="Helvetica,sans-Serif" font-size="10.00">builder</text>
</a>
</g>
</g>
<!-- dir_010690897e50831fd729205a781cd9cb&#45;&gt;dir_fea9de7b0f3c0e351f62db9031e33a2c -->
<g id="edge3" class="edge">
<title>dir_010690897e50831fd729205a781cd9cb&#45;&gt;dir_fea9de7b0f3c0e351f62db9031e33a2c</title>
<path fill="none" stroke="black" d="M67.67,-143.7C70.71,-135.81 74.38,-126.3 77.76,-117.55"/>
<polygon fill="black" stroke="black" points="81.07,-118.69 81.4,-108.1 74.54,-116.17 81.07,-118.69"/>
<g id="a_edge3&#45;headlabel"><a xlink:href="dir_000014_000010.html" target="_top" xlink:title="2">
<text text-anchor="middle" x="82.42" y="-120.57" font-family="Helvetica,sans-Serif" font-size="10.00">2</text>
</a>
</g>
</g>
<!-- dir_fea9de7b0f3c0e351f62db9031e33a2c&#45;&gt;dir_c829cf1fa264f00894b47963f22d3114 -->
<g id="edge1" class="edge">
<title>dir_fea9de7b0f3c0e351f62db9031e33a2c&#45;&gt;dir_c829cf1fa264f00894b47963f22d3114</title>
<path fill="none" stroke="black" d="M81.08,-71.7C77.93,-63.81 74.12,-54.3 70.62,-45.55"/>
<polygon fill="black" stroke="black" points="73.81,-44.09 66.84,-36.1 67.31,-46.69 73.81,-44.09"/>
<g id="a_edge1&#45;headlabel"><a xlink:href="dir_000010_000011.html" target="_top" xlink:title="2">
<text text-anchor="middle" x="77.78" y="-43.87" font-family="Helvetica,sans-Serif" font-size="10.00">2</text>
</a>
</g>
</g>
</g>
</svg>
