<?xml version="1.0" encoding="UTF-8" standalone="no"?>
<!DOCTYPE svg PUBLIC "-//W3C//DTD SVG 1.1//EN"
 "http://www.w3.org/Graphics/SVG/1.1/DTD/svg11.dtd">
<!-- Generated by graphviz version 2.43.0 (0)
 -->
<!-- Title: function.h Pages: 1 -->
<!--zoomable 442 -->
<svg id="main" version="1.1" xmlns="http://www.w3.org/2000/svg" xmlns:xlink="http://www.w3.org/1999/xlink" xml:space="preserve" onload="init(evt)">
<style type="text/css"><![CDATA[
.edge:hover path { stroke: red; }
.edge:hover polygon { stroke: red; fill: red; }
]]></style>
<script type="text/javascript"><![CDATA[
var edges = document.getElementsByTagName('g');
if (edges && edges.length) {
  for (var i=0;i<edges.length;i++) {
    if (edges[i].id.substr(0,4)=='edge') {
      edges[i].setAttribute('class','edge');
    }
  }
}
]]></script>
        <defs>
                <circle id="rim" cx="0" cy="0" r="7"/>
                <circle id="rim2" cx="0" cy="0" r="3.5"/>
                <g id="zoomPlus">
                        <use xlink:href="#rim" fill="#404040">
                                <set attributeName="fill" to="#808080" begin="zoomplus.mouseover" end="zoomplus.mouseout"/>
                        </use>
                        <path d="M-4,0h8M0,-4v8" fill="none" stroke="white" stroke-width="1.5" pointer-events="none"/>
                </g>
                <g id="zoomMin">
                        <use xlink:href="#rim" fill="#404040">
                                <set attributeName="fill" to="#808080" begin="zoomminus.mouseover" end="zoomminus.mouseout"/>
                        </use>
                        <path d="M-4,0h8" fill="none" stroke="white" stroke-width="1.5" pointer-events="none"/>
                </g>
                <g id="dirArrow">
                        <path fill="none" stroke="white" stroke-width="1.5" d="M0,-3.0v7 M-2.5,-0.5L0,-3.0L2.5,-0.5"/>
                </g>
               <g id="resetDef">
                       <use xlink:href="#rim2" fill="#404040">
                               <set attributeName="fill" to="#808080" begin="reset.mouseover" end="reset.mouseout"/>
                       </use>
               </g>
        </defs>

<script type="text/javascript">
var viewWidth = 1785;
var viewHeight = 442;
var sectionId = 'dynsection-1';
</script>
<script xlink:href="svgpan.js"/>
<svg id="graph" class="graph">
<g id="viewport">
<title>function.h</title>
<polygon fill="white" stroke="transparent" points="-4,4 -4,-438 1780.92,-438 1780.92,4 -4,4"/>
<!-- Node1 -->
<g id="node1" class="node">
<title>Node1</title>
<g id="a_node1"><a xlink:title=" ">
<polygon fill="#bfbfbf" stroke="black" points="1326.42,-414.5 1326.42,-433.5 1391.42,-433.5 1391.42,-414.5 1326.42,-414.5"/>
<text text-anchor="middle" x="1358.92" y="-421.5" font-family="Helvetica,sans-Serif" font-size="10.00">function.h</text>
</a>
</g>
</g>
<!-- Node2 -->
<g id="node2" class="node">
<title>Node2</title>
<g id="a_node2"><a xlink:href="base_2lane_8h.html" target="_top" xlink:title=" ">
<polygon fill="white" stroke="black" points="752.42,-190.5 752.42,-209.5 799.42,-209.5 799.42,-190.5 752.42,-190.5"/>
<text text-anchor="middle" x="775.92" y="-197.5" font-family="Helvetica,sans-Serif" font-size="10.00">lane.h</text>
</a>
</g>
</g>
<!-- Node1&#45;&gt;Node2 -->
<g id="edge1" class="edge">
<title>Node1&#45;&gt;Node2</title>
<path fill="none" stroke="midnightblue" d="M1316.18,-417.88C1265.43,-411.23 1178.53,-398.05 1105.92,-378 970.73,-340.67 916.36,-358.46 810.92,-266 793.18,-250.45 782.86,-223.68 778.46,-209.84"/>
<polygon fill="midnightblue" stroke="midnightblue" points="1315.77,-421.35 1326.13,-419.16 1316.66,-414.41 1315.77,-421.35"/>
</g>
<!-- Node6 -->
<g id="node6" class="node">
<title>Node6</title>
<g id="a_node6"><a xlink:href="road__geometry__builder_8cc.html" target="_top" xlink:title=" ">
<polygon fill="white" stroke="black" points="1462.42,-0.5 1462.42,-19.5 1605.42,-19.5 1605.42,-0.5 1462.42,-0.5"/>
<text text-anchor="middle" x="1533.92" y="-7.5" font-family="Helvetica,sans-Serif" font-size="10.00">road_geometry_builder.cc</text>
</a>
</g>
</g>
<!-- Node1&#45;&gt;Node6 -->
<g id="edge37" class="edge">
<title>Node1&#45;&gt;Node6</title>
<path fill="none" stroke="midnightblue" d="M1401.93,-421.54C1471.32,-418.31 1603.63,-408.27 1637.92,-378 1660.48,-358.08 1656.92,-343.1 1656.92,-313 1656.92,-313 1656.92,-313 1656.92,-137.5 1656.92,-78.53 1587.37,-36.72 1552.87,-19.6"/>
<polygon fill="midnightblue" stroke="midnightblue" points="1401.61,-418.05 1391.77,-421.99 1401.91,-425.05 1401.61,-418.05"/>
</g>
<!-- Node20 -->
<g id="node20" class="node">
<title>Node20</title>
<g id="a_node20"><a xlink:href="road__curve__factory_8h.html" target="_top" xlink:title=" ">
<polygon fill="white" stroke="black" points="1067.92,-246.5 1067.92,-265.5 1185.92,-265.5 1185.92,-246.5 1067.92,-246.5"/>
<text text-anchor="middle" x="1126.92" y="-253.5" font-family="Helvetica,sans-Serif" font-size="10.00">road_curve_factory.h</text>
</a>
</g>
</g>
<!-- Node1&#45;&gt;Node20 -->
<g id="edge33" class="edge">
<title>Node1&#45;&gt;Node20</title>
<path fill="none" stroke="midnightblue" d="M1332.68,-409.69C1298.68,-391.89 1238.28,-358.33 1191.92,-322 1169.05,-304.08 1145.85,-278.79 1134.34,-265.66"/>
<polygon fill="midnightblue" stroke="midnightblue" points="1331.45,-413 1341.94,-414.49 1334.67,-406.78 1331.45,-413"/>
</g>
<!-- Node22 -->
<g id="node22" class="node">
<title>Node22</title>
<g id="a_node22"><a xlink:href="cubic__polynomial_8h.html" target="_top" xlink:title=" ">
<polygon fill="white" stroke="black" points="1337.42,-302.5 1337.42,-321.5 1448.42,-321.5 1448.42,-302.5 1337.42,-302.5"/>
<text text-anchor="middle" x="1392.92" y="-309.5" font-family="Helvetica,sans-Serif" font-size="10.00">cubic_polynomial.h</text>
</a>
</g>
</g>
<!-- Node1&#45;&gt;Node22 -->
<g id="edge38" class="edge">
<title>Node1&#45;&gt;Node22</title>
<path fill="none" stroke="midnightblue" d="M1364.13,-404.47C1367.85,-391.44 1373.04,-373.6 1377.92,-358 1381.9,-345.27 1386.85,-330.63 1389.94,-321.6"/>
<polygon fill="midnightblue" stroke="midnightblue" points="1360.75,-403.56 1361.39,-414.14 1367.49,-405.47 1360.75,-403.56"/>
</g>
<!-- Node24 -->
<g id="node24" class="node">
<title>Node24</title>
<g id="a_node24"><a xlink:href="road__curve_2lane__offset_8h.html" target="_top" xlink:title=" ">
<polygon fill="white" stroke="black" points="1386.92,-358.5 1386.92,-377.5 1466.92,-377.5 1466.92,-358.5 1386.92,-358.5"/>
<text text-anchor="middle" x="1426.92" y="-365.5" font-family="Helvetica,sans-Serif" font-size="10.00">lane_offset.h</text>
</a>
</g>
</g>
<!-- Node1&#45;&gt;Node24 -->
<g id="edge42" class="edge">
<title>Node1&#45;&gt;Node24</title>
<path fill="none" stroke="midnightblue" d="M1377.68,-408.1C1389.92,-398.38 1405.47,-386.03 1415.79,-377.83"/>
<polygon fill="midnightblue" stroke="midnightblue" points="1375.5,-405.36 1369.84,-414.32 1379.85,-410.85 1375.5,-405.36"/>
</g>
<!-- Node26 -->
<g id="node26" class="node">
<title>Node26</title>
<g id="a_node26"><a xlink:href="road__curve_8h.html" target="_top" xlink:title=" ">
<polygon fill="white" stroke="black" points="1019.92,-302.5 1019.92,-321.5 1099.92,-321.5 1099.92,-302.5 1019.92,-302.5"/>
<text text-anchor="middle" x="1059.92" y="-309.5" font-family="Helvetica,sans-Serif" font-size="10.00">road_curve.h</text>
</a>
</g>
</g>
<!-- Node1&#45;&gt;Node26 -->
<g id="edge63" class="edge">
<title>Node1&#45;&gt;Node26</title>
<path fill="none" stroke="midnightblue" d="M1316.38,-419.9C1271.47,-415.33 1199.48,-404.28 1142.92,-378 1112.04,-363.66 1082.22,-335.84 1068.21,-321.7"/>
<polygon fill="midnightblue" stroke="midnightblue" points="1316.07,-423.38 1326.36,-420.85 1316.74,-416.42 1316.07,-423.38"/>
</g>
<!-- Node31 -->
<g id="node31" class="node">
<title>Node31</title>
<g id="a_node31"><a xlink:href="piecewise__function_8h.html" target="_top" xlink:title=" ">
<polygon fill="white" stroke="black" points="1200.42,-302.5 1200.42,-321.5 1319.42,-321.5 1319.42,-302.5 1200.42,-302.5"/>
<text text-anchor="middle" x="1259.92" y="-309.5" font-family="Helvetica,sans-Serif" font-size="10.00">piecewise_function.h</text>
</a>
</g>
</g>
<!-- Node1&#45;&gt;Node31 -->
<g id="edge59" class="edge">
<title>Node1&#45;&gt;Node31</title>
<path fill="none" stroke="midnightblue" d="M1344.42,-406.9C1323.14,-383.25 1284.17,-339.95 1267.65,-321.59"/>
<polygon fill="midnightblue" stroke="midnightblue" points="1341.86,-409.28 1351.15,-414.37 1347.06,-404.59 1341.86,-409.28"/>
</g>
<!-- Node33 -->
<g id="node33" class="node">
<title>Node33</title>
<g id="a_node33"><a xlink:href="scaled__domain__function_8h.html" target="_top" xlink:title=" ">
<polygon fill="white" stroke="black" points="1484.92,-358.5 1484.92,-377.5 1628.92,-377.5 1628.92,-358.5 1484.92,-358.5"/>
<text text-anchor="middle" x="1556.92" y="-365.5" font-family="Helvetica,sans-Serif" font-size="10.00">scaled_domain_function.h</text>
</a>
</g>
</g>
<!-- Node1&#45;&gt;Node33 -->
<g id="edge64" class="edge">
<title>Node1&#45;&gt;Node33</title>
<path fill="none" stroke="midnightblue" d="M1400.35,-411.7C1437.72,-401.51 1491.86,-386.74 1525.69,-377.52"/>
<polygon fill="midnightblue" stroke="midnightblue" points="1399.02,-408.44 1390.29,-414.44 1400.86,-415.19 1399.02,-408.44"/>
</g>
<!-- Node34 -->
<g id="node34" class="node">
<title>Node34</title>
<g id="a_node34"><a xlink:href="function__stub_8h.html" target="_top" xlink:title=" ">
<polygon fill="white" stroke="black" points="1684.92,-358.5 1684.92,-377.5 1776.92,-377.5 1776.92,-358.5 1684.92,-358.5"/>
<text text-anchor="middle" x="1730.92" y="-365.5" font-family="Helvetica,sans-Serif" font-size="10.00">function_stub.h</text>
</a>
</g>
</g>
<!-- Node1&#45;&gt;Node34 -->
<g id="edge66" class="edge">
<title>Node1&#45;&gt;Node34</title>
<path fill="none" stroke="midnightblue" d="M1401.98,-416.87C1462.17,-408.28 1574.89,-392.13 1670.92,-378 1675.4,-377.34 1680.07,-376.65 1684.73,-375.95"/>
<polygon fill="midnightblue" stroke="midnightblue" points="1401.12,-413.45 1391.72,-418.33 1402.11,-420.38 1401.12,-413.45"/>
</g>
<!-- Node3 -->
<g id="node3" class="node">
<title>Node3</title>
<g id="a_node3"><a xlink:href="base_2lane_8cc.html" target="_top" xlink:title=" ">
<polygon fill="white" stroke="black" points="1000.42,-129 1000.42,-148 1051.42,-148 1051.42,-129 1000.42,-129"/>
<text text-anchor="middle" x="1025.92" y="-136" font-family="Helvetica,sans-Serif" font-size="10.00">lane.cc</text>
</a>
</g>
</g>
<!-- Node2&#45;&gt;Node3 -->
<g id="edge2" class="edge">
<title>Node2&#45;&gt;Node3</title>
<path fill="none" stroke="midnightblue" d="M809.64,-193.94C852.39,-187.08 928.1,-173.4 990.92,-154 996.19,-152.37 1001.78,-150.25 1006.9,-148.13"/>
<polygon fill="midnightblue" stroke="midnightblue" points="808.84,-190.53 799.5,-195.54 809.93,-197.44 808.84,-190.53"/>
</g>
<!-- Node4 -->
<g id="node4" class="node">
<title>Node4</title>
<g id="a_node4"><a xlink:href="segment_8h.html" target="_top" xlink:title=" ">
<polygon fill="white" stroke="black" points="913.92,-129 913.92,-148 981.92,-148 981.92,-129 913.92,-129"/>
<text text-anchor="middle" x="947.92" y="-136" font-family="Helvetica,sans-Serif" font-size="10.00">segment.h</text>
</a>
</g>
</g>
<!-- Node2&#45;&gt;Node4 -->
<g id="edge3" class="edge">
<title>Node2&#45;&gt;Node4</title>
<path fill="none" stroke="midnightblue" d="M809.24,-187.47C842.65,-175.91 893.3,-158.39 923.26,-148.03"/>
<polygon fill="midnightblue" stroke="midnightblue" points="807.78,-184.27 799.47,-190.85 810.07,-190.89 807.78,-184.27"/>
</g>
<!-- Node5 -->
<g id="node5" class="node">
<title>Node5</title>
<g id="a_node5"><a xlink:href="road__geometry__builder_8h.html" target="_top" xlink:title=" ">
<polygon fill="white" stroke="black" points="1049.42,-62 1049.42,-81 1188.42,-81 1188.42,-62 1049.42,-62"/>
<text text-anchor="middle" x="1118.92" y="-69" font-family="Helvetica,sans-Serif" font-size="10.00">road_geometry_builder.h</text>
</a>
</g>
</g>
<!-- Node2&#45;&gt;Node5 -->
<g id="edge19" class="edge">
<title>Node2&#45;&gt;Node5</title>
<path fill="none" stroke="midnightblue" d="M805.77,-186.3C823.99,-178.05 847.44,-166.53 866.92,-154 885.25,-142.21 885.37,-132.64 904.92,-123 933.93,-108.69 1018.34,-91.19 1072.07,-81"/>
<polygon fill="midnightblue" stroke="midnightblue" points="804.22,-183.16 796.51,-190.42 807.06,-189.55 804.22,-183.16"/>
</g>
<!-- Node8 -->
<g id="node8" class="node">
<title>Node8</title>
<g id="a_node8"><a xlink:href="builder__tools_8h.html" target="_top" xlink:title=" ">
<polygon fill="white" stroke="black" points="616.42,-129 616.42,-148 705.42,-148 705.42,-129 616.42,-129"/>
<text text-anchor="middle" x="660.92" y="-136" font-family="Helvetica,sans-Serif" font-size="10.00">builder_tools.h</text>
</a>
</g>
</g>
<!-- Node2&#45;&gt;Node8 -->
<g id="edge7" class="edge">
<title>Node2&#45;&gt;Node8</title>
<path fill="none" stroke="midnightblue" d="M750.53,-185.87C728.24,-174.33 696.48,-157.9 677.36,-148.01"/>
<polygon fill="midnightblue" stroke="midnightblue" points="748.95,-188.99 759.44,-190.48 752.17,-182.77 748.95,-188.99"/>
</g>
<!-- Node15 -->
<g id="node15" class="node">
<title>Node15</title>
<g id="a_node15"><a xlink:href="direction__usage__builder_8h.html" target="_top" xlink:title=" ">
<polygon fill="white" stroke="black" points="312.92,-129 312.92,-148 454.92,-148 454.92,-129 312.92,-129"/>
<text text-anchor="middle" x="383.92" y="-136" font-family="Helvetica,sans-Serif" font-size="10.00">direction_usage_builder.h</text>
</a>
</g>
</g>
<!-- Node2&#45;&gt;Node15 -->
<g id="edge16" class="edge">
<title>Node2&#45;&gt;Node15</title>
<path fill="none" stroke="midnightblue" d="M742.14,-194.49C684.98,-186.77 565.55,-170.28 464.92,-154 453.63,-152.17 441.49,-150.07 430.13,-148.05"/>
<polygon fill="midnightblue" stroke="midnightblue" points="741.7,-197.96 752.07,-195.83 742.63,-191.02 741.7,-197.96"/>
</g>
<!-- Node16 -->
<g id="node16" class="node">
<title>Node16</title>
<g id="a_node16"><a xlink:href="road__rulebook__builder_8h.html" target="_top" xlink:title=" ">
<polygon fill="white" stroke="black" points="723.92,-129 723.92,-148 857.92,-148 857.92,-129 723.92,-129"/>
<text text-anchor="middle" x="790.92" y="-136" font-family="Helvetica,sans-Serif" font-size="10.00">road_rulebook_builder.h</text>
</a>
</g>
</g>
<!-- Node2&#45;&gt;Node16 -->
<g id="edge20" class="edge">
<title>Node2&#45;&gt;Node16</title>
<path fill="none" stroke="midnightblue" d="M780.54,-180.66C783.28,-169.77 786.63,-156.49 788.77,-148.01"/>
<polygon fill="midnightblue" stroke="midnightblue" points="777.12,-179.92 778.07,-190.48 783.9,-181.63 777.12,-179.92"/>
</g>
<!-- Node17 -->
<g id="node17" class="node">
<title>Node17</title>
<g id="a_node17"><a xlink:href="road__rulebook__builder__old__rules_8h.html" target="_top" xlink:title=" ">
<polygon fill="white" stroke="black" points="473.42,-123.5 473.42,-153.5 598.42,-153.5 598.42,-123.5 473.42,-123.5"/>
<text text-anchor="start" x="481.42" y="-141.5" font-family="Helvetica,sans-Serif" font-size="10.00">road_rulebook_builder</text>
<text text-anchor="middle" x="535.92" y="-130.5" font-family="Helvetica,sans-Serif" font-size="10.00">_old_rules.h</text>
</a>
</g>
</g>
<!-- Node2&#45;&gt;Node17 -->
<g id="edge24" class="edge">
<title>Node2&#45;&gt;Node17</title>
<path fill="none" stroke="midnightblue" d="M742.28,-190.66C703.51,-181.05 639.18,-165.1 592.64,-153.56"/>
<polygon fill="midnightblue" stroke="midnightblue" points="741.48,-194.07 752.03,-193.08 743.16,-187.27 741.48,-194.07"/>
</g>
<!-- Node18 -->
<g id="node18" class="node">
<title>Node18</title>
<g id="a_node18"><a xlink:href="rule__registry__builder_8h.html" target="_top" xlink:title=" ">
<polygon fill="white" stroke="black" points="168.92,-129 168.92,-148 294.92,-148 294.92,-129 168.92,-129"/>
<text text-anchor="middle" x="231.92" y="-136" font-family="Helvetica,sans-Serif" font-size="10.00">rule_registry_builder.h</text>
</a>
</g>
</g>
<!-- Node2&#45;&gt;Node18 -->
<g id="edge27" class="edge">
<title>Node2&#45;&gt;Node18</title>
<path fill="none" stroke="midnightblue" d="M742.08,-196.98C664.37,-192.09 467.24,-178.16 303.92,-154 293.07,-152.4 281.38,-150.23 270.65,-148.07"/>
<polygon fill="midnightblue" stroke="midnightblue" points="742.04,-200.49 752.24,-197.61 742.47,-193.5 742.04,-200.49"/>
</g>
<!-- Node19 -->
<g id="node19" class="node">
<title>Node19</title>
<g id="a_node19"><a xlink:href="speed__limit__builder_8h.html" target="_top" xlink:title=" ">
<polygon fill="white" stroke="black" points="28.92,-129 28.92,-148 150.92,-148 150.92,-129 28.92,-129"/>
<text text-anchor="middle" x="89.92" y="-136" font-family="Helvetica,sans-Serif" font-size="10.00">speed_limit_builder.h</text>
</a>
</g>
</g>
<!-- Node2&#45;&gt;Node19 -->
<g id="edge30" class="edge">
<title>Node2&#45;&gt;Node19</title>
<path fill="none" stroke="midnightblue" d="M742.06,-198.09C648.82,-195.24 380.57,-184.78 159.92,-154 148.98,-152.47 137.18,-150.26 126.45,-148.01"/>
<polygon fill="midnightblue" stroke="midnightblue" points="742.2,-201.59 752.3,-198.39 742.41,-194.6 742.2,-201.59"/>
</g>
<!-- Node4&#45;&gt;Node5 -->
<g id="edge4" class="edge">
<title>Node4&#45;&gt;Node5</title>
<path fill="none" stroke="midnightblue" d="M980.09,-125.27C1014.03,-112.37 1066.63,-92.38 1096.39,-81.06"/>
<polygon fill="midnightblue" stroke="midnightblue" points="978.73,-122.04 970.62,-128.87 981.21,-128.59 978.73,-122.04"/>
</g>
<!-- Node5&#45;&gt;Node6 -->
<g id="edge5" class="edge">
<title>Node5&#45;&gt;Node6</title>
<path fill="none" stroke="midnightblue" d="M1188.38,-60.54C1268.52,-49.05 1398.96,-30.35 1474.57,-19.51"/>
<polygon fill="midnightblue" stroke="midnightblue" points="1187.78,-57.09 1178.38,-61.98 1188.77,-64.02 1187.78,-57.09"/>
</g>
<!-- Node7 -->
<g id="node7" class="node">
<title>Node7</title>
<g id="a_node7"><a xlink:href="road__network__builder_8cc.html" target="_top" xlink:title=" ">
<polygon fill="white" stroke="black" points="150.92,-0.5 150.92,-19.5 286.92,-19.5 286.92,-0.5 150.92,-0.5"/>
<text text-anchor="middle" x="218.92" y="-7.5" font-family="Helvetica,sans-Serif" font-size="10.00">road_network_builder.cc</text>
</a>
</g>
</g>
<!-- Node5&#45;&gt;Node7 -->
<g id="edge6" class="edge">
<title>Node5&#45;&gt;Node7</title>
<path fill="none" stroke="midnightblue" d="M1064.85,-60.22C1054.92,-58.6 1044.63,-57.1 1034.92,-56 758.78,-24.66 427.49,-14.93 287.11,-12.09"/>
<polygon fill="midnightblue" stroke="midnightblue" points="1064.58,-63.72 1075.02,-61.94 1065.74,-56.82 1064.58,-63.72"/>
</g>
<!-- Node8&#45;&gt;Node5 -->
<g id="edge10" class="edge">
<title>Node8&#45;&gt;Node5</title>
<path fill="none" stroke="midnightblue" d="M699.58,-126.43C704.71,-125.16 709.92,-123.98 714.92,-123 719,-122.2 936.11,-95.2 1050.32,-81.01"/>
<polygon fill="midnightblue" stroke="midnightblue" points="698.7,-123.04 689.89,-128.93 700.45,-129.82 698.7,-123.04"/>
</g>
<!-- Node8&#45;&gt;Node7 -->
<g id="edge11" class="edge">
<title>Node8&#45;&gt;Node7</title>
<path fill="none" stroke="midnightblue" d="M640.21,-122.94C626.18,-112.99 607.28,-99.4 590.92,-87 573.27,-73.63 572.28,-64.68 551.92,-56 505.56,-36.24 370.13,-22.66 286.95,-15.91"/>
<polygon fill="midnightblue" stroke="midnightblue" points="638.46,-126 648.65,-128.91 642.51,-120.28 638.46,-126"/>
</g>
<!-- Node9 -->
<g id="node9" class="node">
<title>Node9</title>
<g id="a_node9"><a xlink:href="builder__tools_8cc.html" target="_top" xlink:title=" ">
<polygon fill="white" stroke="black" points="899.42,-62 899.42,-81 992.42,-81 992.42,-62 899.42,-62"/>
<text text-anchor="middle" x="945.92" y="-69" font-family="Helvetica,sans-Serif" font-size="10.00">builder_tools.cc</text>
</a>
</g>
</g>
<!-- Node8&#45;&gt;Node9 -->
<g id="edge8" class="edge">
<title>Node8&#45;&gt;Node9</title>
<path fill="none" stroke="midnightblue" d="M701.3,-126.37C705.88,-125.19 710.49,-124.05 714.92,-123 792.62,-104.64 813.17,-105.18 890.92,-87 898.7,-85.18 907.07,-83.06 914.87,-81.01"/>
<polygon fill="midnightblue" stroke="midnightblue" points="700.18,-123.05 691.39,-128.97 701.95,-129.82 700.18,-123.05"/>
</g>
<!-- Node10 -->
<g id="node10" class="node">
<title>Node10</title>
<g id="a_node10"><a xlink:href="direction__usage__builder_8cc.html" target="_top" xlink:title=" ">
<polygon fill="white" stroke="black" points="396.92,-62 396.92,-81 542.92,-81 542.92,-62 396.92,-62"/>
<text text-anchor="middle" x="469.92" y="-69" font-family="Helvetica,sans-Serif" font-size="10.00">direction_usage_builder.cc</text>
</a>
</g>
</g>
<!-- Node8&#45;&gt;Node10 -->
<g id="edge9" class="edge">
<title>Node8&#45;&gt;Node10</title>
<path fill="none" stroke="midnightblue" d="M625.95,-125.6C588.08,-112.71 528.61,-92.47 495.08,-81.06"/>
<polygon fill="midnightblue" stroke="midnightblue" points="624.96,-128.96 635.55,-128.87 627.21,-122.33 624.96,-128.96"/>
</g>
<!-- Node11 -->
<g id="node11" class="node">
<title>Node11</title>
<g id="a_node11"><a xlink:href="road__rulebook__builder_8cc.html" target="_top" xlink:title=" ">
<polygon fill="white" stroke="black" points="742.42,-62 742.42,-81 881.42,-81 881.42,-62 742.42,-62"/>
<text text-anchor="middle" x="811.92" y="-69" font-family="Helvetica,sans-Serif" font-size="10.00">road_rulebook_builder.cc</text>
</a>
</g>
</g>
<!-- Node8&#45;&gt;Node11 -->
<g id="edge12" class="edge">
<title>Node8&#45;&gt;Node11</title>
<path fill="none" stroke="midnightblue" d="M690.46,-124.78C720.37,-111.91 765.79,-92.35 791.78,-81.17"/>
<polygon fill="midnightblue" stroke="midnightblue" points="688.77,-121.7 680.97,-128.87 691.54,-128.13 688.77,-121.7"/>
</g>
<!-- Node12 -->
<g id="node12" class="node">
<title>Node12</title>
<g id="a_node12"><a xlink:href="road__rulebook__builder__old__rules_8cc.html" target="_top" xlink:title=" ">
<polygon fill="white" stroke="black" points="599.42,-56.5 599.42,-86.5 724.42,-86.5 724.42,-56.5 599.42,-56.5"/>
<text text-anchor="start" x="607.42" y="-74.5" font-family="Helvetica,sans-Serif" font-size="10.00">road_rulebook_builder</text>
<text text-anchor="middle" x="661.92" y="-63.5" font-family="Helvetica,sans-Serif" font-size="10.00">_old_rules.cc</text>
</a>
</g>
</g>
<!-- Node8&#45;&gt;Node12 -->
<g id="edge13" class="edge">
<title>Node8&#45;&gt;Node12</title>
<path fill="none" stroke="midnightblue" d="M661.21,-118.41C661.37,-108.22 661.56,-95.9 661.7,-86.59"/>
<polygon fill="midnightblue" stroke="midnightblue" points="657.71,-118.68 661.05,-128.73 664.7,-118.79 657.71,-118.68"/>
</g>
<!-- Node13 -->
<g id="node13" class="node">
<title>Node13</title>
<g id="a_node13"><a xlink:href="rule__registry__builder_8cc.html" target="_top" xlink:title=" ">
<polygon fill="white" stroke="black" points="247.42,-62 247.42,-81 378.42,-81 378.42,-62 247.42,-62"/>
<text text-anchor="middle" x="312.92" y="-69" font-family="Helvetica,sans-Serif" font-size="10.00">rule_registry_builder.cc</text>
</a>
</g>
</g>
<!-- Node8&#45;&gt;Node13 -->
<g id="edge14" class="edge">
<title>Node8&#45;&gt;Node13</title>
<path fill="none" stroke="midnightblue" d="M622.21,-126.41C617.41,-125.18 612.56,-124.01 607.92,-123 511.11,-101.9 485.45,-104.41 387.92,-87 377.6,-85.16 366.51,-83.07 356.11,-81.07"/>
<polygon fill="midnightblue" stroke="midnightblue" points="621.33,-129.8 631.89,-128.97 623.12,-123.03 621.33,-129.8"/>
</g>
<!-- Node14 -->
<g id="node14" class="node">
<title>Node14</title>
<g id="a_node14"><a xlink:href="speed__limit__builder_8cc.html" target="_top" xlink:title=" ">
<polygon fill="white" stroke="black" points="26.92,-62 26.92,-81 152.92,-81 152.92,-62 26.92,-62"/>
<text text-anchor="middle" x="89.92" y="-69" font-family="Helvetica,sans-Serif" font-size="10.00">speed_limit_builder.cc</text>
</a>
</g>
</g>
<!-- Node8&#45;&gt;Node14 -->
<g id="edge15" class="edge">
<title>Node8&#45;&gt;Node14</title>
<path fill="none" stroke="midnightblue" d="M623.35,-126.38C618.2,-125.1 612.95,-123.93 607.92,-123 607.22,-122.87 291.06,-92.08 153.07,-78.65"/>
<polygon fill="midnightblue" stroke="midnightblue" points="622.5,-129.78 633.07,-128.93 624.28,-123 622.5,-129.78"/>
</g>
<!-- Node15&#45;&gt;Node7 -->
<g id="edge18" class="edge">
<title>Node15&#45;&gt;Node7</title>
<path fill="none" stroke="midnightblue" d="M334.02,-126.65C283.88,-115.25 212.89,-97.54 204.92,-87 189.69,-66.89 204.38,-35.33 213.26,-19.98"/>
<polygon fill="midnightblue" stroke="midnightblue" points="333.53,-130.13 344.06,-128.92 335.07,-123.3 333.53,-130.13"/>
</g>
<!-- Node15&#45;&gt;Node10 -->
<g id="edge17" class="edge">
<title>Node15&#45;&gt;Node10</title>
<path fill="none" stroke="midnightblue" d="M403.67,-122.57C420.65,-109.74 444.53,-91.69 458.5,-81.13"/>
<polygon fill="midnightblue" stroke="midnightblue" points="401.38,-119.91 395.51,-128.73 405.6,-125.5 401.38,-119.91"/>
</g>
<!-- Node16&#45;&gt;Node7 -->
<g id="edge21" class="edge">
<title>Node16&#45;&gt;Node7</title>
<path fill="none" stroke="midnightblue" d="M842.11,-126.9C902.94,-114.07 996.89,-93.37 1001.92,-87 1010.45,-76.18 1011.37,-66.02 1001.92,-56 977.54,-30.18 472.88,-16.56 286.93,-12.4"/>
<polygon fill="midnightblue" stroke="midnightblue" points="841.35,-123.48 832.28,-128.97 842.79,-130.33 841.35,-123.48"/>
</g>
<!-- Node16&#45;&gt;Node11 -->
<g id="edge22" class="edge">
<title>Node16&#45;&gt;Node11</title>
<path fill="none" stroke="midnightblue" d="M796.92,-118.91C800.94,-106.49 806.03,-90.72 809.13,-81.13"/>
<polygon fill="midnightblue" stroke="midnightblue" points="793.49,-118.14 793.75,-128.73 800.15,-120.29 793.49,-118.14"/>
</g>
<!-- Node16&#45;&gt;Node12 -->
<g id="edge23" class="edge">
<title>Node16&#45;&gt;Node12</title>
<path fill="none" stroke="midnightblue" d="M764.8,-124.34C743.09,-113.4 712.25,-97.86 690,-86.65"/>
<polygon fill="midnightblue" stroke="midnightblue" points="763.28,-127.49 773.79,-128.87 766.43,-121.24 763.28,-127.49"/>
</g>
<!-- Node17&#45;&gt;Node7 -->
<g id="edge25" class="edge">
<title>Node17&#45;&gt;Node7</title>
<path fill="none" stroke="midnightblue" d="M463.15,-123.15C399.85,-114.62 274.46,-119.2 238.92,-87 219.5,-69.41 217.96,-35.46 218.4,-19.58"/>
<polygon fill="midnightblue" stroke="midnightblue" points="462.7,-126.62 473.12,-124.7 463.77,-119.7 462.7,-126.62"/>
</g>
<!-- Node17&#45;&gt;Node12 -->
<g id="edge26" class="edge">
<title>Node17&#45;&gt;Node12</title>
<path fill="none" stroke="midnightblue" d="M572.33,-118.71C592.2,-108.46 616.4,-95.98 634.63,-86.58"/>
<polygon fill="midnightblue" stroke="midnightblue" points="570.54,-115.7 563.26,-123.4 573.75,-121.92 570.54,-115.7"/>
</g>
<!-- Node18&#45;&gt;Node7 -->
<g id="edge28" class="edge">
<title>Node18&#45;&gt;Node7</title>
<path fill="none" stroke="midnightblue" d="M179.99,-126.93C118.31,-114.12 23.02,-93.45 17.92,-87 -21.1,-37.71 78.33,-20.38 150.85,-14.29"/>
<polygon fill="midnightblue" stroke="midnightblue" points="179.46,-130.39 189.96,-128.99 180.88,-123.53 179.46,-130.39"/>
</g>
<!-- Node18&#45;&gt;Node13 -->
<g id="edge29" class="edge">
<title>Node18&#45;&gt;Node13</title>
<path fill="none" stroke="midnightblue" d="M250.97,-122.21C266.92,-109.41 289.13,-91.59 302.17,-81.13"/>
<polygon fill="midnightblue" stroke="midnightblue" points="248.45,-119.75 242.84,-128.73 252.83,-125.2 248.45,-119.75"/>
</g>
<!-- Node19&#45;&gt;Node7 -->
<g id="edge31" class="edge">
<title>Node19&#45;&gt;Node7</title>
<path fill="none" stroke="midnightblue" d="M52.41,-124.9C34.99,-116.94 15.95,-104.75 5.92,-87 -0.87,-75.01 -2.76,-66.7 5.92,-56 23.98,-33.72 95.47,-22.05 150.7,-16.23"/>
<polygon fill="midnightblue" stroke="midnightblue" points="51.28,-128.22 61.86,-128.89 54.01,-121.77 51.28,-128.22"/>
</g>
<!-- Node19&#45;&gt;Node14 -->
<g id="edge32" class="edge">
<title>Node19&#45;&gt;Node14</title>
<path fill="none" stroke="midnightblue" d="M89.92,-118.54C89.92,-106.17 89.92,-90.62 89.92,-81.13"/>
<polygon fill="midnightblue" stroke="midnightblue" points="86.42,-118.73 89.92,-128.73 93.42,-118.73 86.42,-118.73"/>
</g>
<!-- Node20&#45;&gt;Node5 -->
<g id="edge36" class="edge">
<title>Node20&#45;&gt;Node5</title>
<path fill="none" stroke="midnightblue" d="M1157.71,-242.39C1206.8,-220.42 1293.84,-172.73 1258.92,-123 1242.8,-100.06 1215.2,-87.49 1188.74,-80.63"/>
<polygon fill="midnightblue" stroke="midnightblue" points="1156.22,-239.22 1148.45,-246.43 1159.02,-245.64 1156.22,-239.22"/>
</g>
<!-- Node20&#45;&gt;Node6 -->
<g id="edge35" class="edge">
<title>Node20&#45;&gt;Node6</title>
<path fill="none" stroke="midnightblue" d="M1164.58,-243.21C1188.26,-235.18 1219.1,-223.56 1244.92,-210 1361.41,-148.81 1487.06,-49.21 1523.49,-19.58"/>
<polygon fill="midnightblue" stroke="midnightblue" points="1163.29,-239.95 1154.91,-246.43 1165.5,-246.59 1163.29,-239.95"/>
</g>
<!-- Node21 -->
<g id="node21" class="node">
<title>Node21</title>
<g id="a_node21"><a xlink:href="road__curve__factory_8cc.html" target="_top" xlink:title=" ">
<polygon fill="white" stroke="black" points="1344.92,-190.5 1344.92,-209.5 1466.92,-209.5 1466.92,-190.5 1344.92,-190.5"/>
<text text-anchor="middle" x="1405.92" y="-197.5" font-family="Helvetica,sans-Serif" font-size="10.00">road_curve_factory.cc</text>
</a>
</g>
</g>
<!-- Node20&#45;&gt;Node21 -->
<g id="edge34" class="edge">
<title>Node20&#45;&gt;Node21</title>
<path fill="none" stroke="midnightblue" d="M1180.97,-244.54C1233.7,-234.33 1312.92,-219 1361.91,-209.52"/>
<polygon fill="midnightblue" stroke="midnightblue" points="1180.28,-241.11 1171.12,-246.44 1181.61,-247.98 1180.28,-241.11"/>
</g>
<!-- Node22&#45;&gt;Node6 -->
<g id="edge40" class="edge">
<title>Node22&#45;&gt;Node6</title>
<path fill="none" stroke="midnightblue" d="M1450.07,-299.54C1471.16,-292.82 1493.82,-282.32 1509.92,-266 1531.54,-244.08 1533.92,-231.8 1533.92,-201 1533.92,-201 1533.92,-201 1533.92,-137.5 1533.92,-93.14 1533.92,-40.02 1533.92,-19.59"/>
<polygon fill="midnightblue" stroke="midnightblue" points="1448.8,-296.27 1440.2,-302.45 1450.78,-302.98 1448.8,-296.27"/>
</g>
<!-- Node22&#45;&gt;Node21 -->
<g id="edge39" class="edge">
<title>Node22&#45;&gt;Node21</title>
<path fill="none" stroke="midnightblue" d="M1414.63,-296.07C1423.97,-288.31 1433.89,-277.95 1438.92,-266 1447.65,-245.24 1428.28,-221.92 1415.67,-209.64"/>
<polygon fill="midnightblue" stroke="midnightblue" points="1412.48,-293.31 1406.7,-302.19 1416.76,-298.85 1412.48,-293.31"/>
</g>
<!-- Node23 -->
<g id="node23" class="node">
<title>Node23</title>
<g id="a_node23"><a xlink:href="road__curve_8cc.html" target="_top" xlink:title=" ">
<polygon fill="white" stroke="black" points="1345.92,-246.5 1345.92,-265.5 1429.92,-265.5 1429.92,-246.5 1345.92,-246.5"/>
<text text-anchor="middle" x="1387.92" y="-253.5" font-family="Helvetica,sans-Serif" font-size="10.00">road_curve.cc</text>
</a>
</g>
</g>
<!-- Node22&#45;&gt;Node23 -->
<g id="edge41" class="edge">
<title>Node22&#45;&gt;Node23</title>
<path fill="none" stroke="midnightblue" d="M1391.17,-292.1C1390.34,-283.14 1389.38,-272.86 1388.73,-265.75"/>
<polygon fill="midnightblue" stroke="midnightblue" points="1387.68,-292.45 1392.09,-302.08 1394.65,-291.8 1387.68,-292.45"/>
</g>
<!-- Node24&#45;&gt;Node6 -->
<g id="edge43" class="edge">
<title>Node24&#45;&gt;Node6</title>
<path fill="none" stroke="midnightblue" d="M1443.85,-351.48C1469.41,-327.9 1516.4,-283.9 1530.92,-266 1552.43,-239.47 1571.92,-235.16 1571.92,-201 1571.92,-201 1571.92,-201 1571.92,-137.5 1571.92,-91.41 1548.49,-39.71 1538.42,-19.63"/>
<polygon fill="midnightblue" stroke="midnightblue" points="1441.36,-349.01 1436.37,-358.36 1446.1,-354.16 1441.36,-349.01"/>
</g>
<!-- Node25 -->
<g id="node25" class="node">
<title>Node25</title>
<g id="a_node25"><a xlink:href="road__curve_2lane__offset_8cc.html" target="_top" xlink:title=" ">
<polygon fill="white" stroke="black" points="1505.42,-302.5 1505.42,-321.5 1590.42,-321.5 1590.42,-302.5 1505.42,-302.5"/>
<text text-anchor="middle" x="1547.92" y="-309.5" font-family="Helvetica,sans-Serif" font-size="10.00">lane_offset.cc</text>
</a>
</g>
</g>
<!-- Node24&#45;&gt;Node25 -->
<g id="edge44" class="edge">
<title>Node24&#45;&gt;Node25</title>
<path fill="none" stroke="midnightblue" d="M1455.22,-354.37C1477.88,-344.26 1509.04,-330.35 1528.83,-321.52"/>
<polygon fill="midnightblue" stroke="midnightblue" points="1453.79,-351.17 1446.09,-358.44 1456.65,-357.56 1453.79,-351.17"/>
</g>
<!-- Node24&#45;&gt;Node26 -->
<g id="edge45" class="edge">
<title>Node24&#45;&gt;Node26</title>
<path fill="none" stroke="midnightblue" d="M1376.63,-359.6C1303.02,-348.77 1167.38,-328.81 1100.03,-318.9"/>
<polygon fill="midnightblue" stroke="midnightblue" points="1376.19,-363.07 1386.59,-361.07 1377.21,-356.15 1376.19,-363.07"/>
</g>
<!-- Node26&#45;&gt;Node2 -->
<g id="edge46" class="edge">
<title>Node26&#45;&gt;Node2</title>
<path fill="none" stroke="midnightblue" d="M1009.79,-308.71C963.75,-304.8 894.84,-294.27 841.92,-266 815.53,-251.9 792.65,-223.98 782.1,-209.76"/>
<polygon fill="midnightblue" stroke="midnightblue" points="1009.59,-312.21 1019.83,-309.49 1010.13,-305.23 1009.59,-312.21"/>
</g>
<!-- Node26&#45;&gt;Node4 -->
<g id="edge52" class="edge">
<title>Node26&#45;&gt;Node4</title>
<path fill="none" stroke="midnightblue" d="M1049.33,-293.9C1034.67,-270.33 1007.26,-226.64 982.92,-190 973,-175.07 961.03,-157.99 953.96,-148.01"/>
<polygon fill="midnightblue" stroke="midnightblue" points="1046.37,-295.77 1054.62,-302.42 1052.32,-292.07 1046.37,-295.77"/>
</g>
<!-- Node26&#45;&gt;Node20 -->
<g id="edge53" class="edge">
<title>Node26&#45;&gt;Node20</title>
<path fill="none" stroke="midnightblue" d="M1078.75,-295.82C1090.75,-286.15 1105.89,-273.95 1115.96,-265.83"/>
<polygon fill="midnightblue" stroke="midnightblue" points="1076.27,-293.32 1070.68,-302.32 1080.66,-298.77 1076.27,-293.32"/>
</g>
<!-- Node26&#45;&gt;Node23 -->
<g id="edge54" class="edge">
<title>Node26&#45;&gt;Node23</title>
<path fill="none" stroke="midnightblue" d="M1110.25,-303.03C1165.78,-294.2 1257.78,-279.41 1336.92,-266 1339.84,-265.5 1342.86,-264.99 1345.9,-264.46"/>
<polygon fill="midnightblue" stroke="midnightblue" points="1109.64,-299.59 1100.31,-304.61 1110.74,-306.5 1109.64,-299.59"/>
</g>
<!-- Node27 -->
<g id="node27" class="node">
<title>Node27</title>
<g id="a_node27"><a xlink:href="road__geometry_8h.html" target="_top" xlink:title=" ">
<polygon fill="white" stroke="black" points="1030.92,-190.5 1030.92,-209.5 1128.92,-209.5 1128.92,-190.5 1030.92,-190.5"/>
<text text-anchor="middle" x="1079.92" y="-197.5" font-family="Helvetica,sans-Serif" font-size="10.00">road_geometry.h</text>
</a>
</g>
</g>
<!-- Node26&#45;&gt;Node27 -->
<g id="edge47" class="edge">
<title>Node26&#45;&gt;Node27</title>
<path fill="none" stroke="midnightblue" d="M1057.36,-292.34C1056.11,-279.22 1055.51,-261.34 1058.92,-246 1061.9,-232.53 1069.36,-218.32 1074.53,-209.56"/>
<polygon fill="midnightblue" stroke="midnightblue" points="1053.9,-292.93 1058.54,-302.46 1060.86,-292.12 1053.9,-292.93"/>
</g>
<!-- Node29 -->
<g id="node29" class="node">
<title>Node29</title>
<g id="a_node29"><a xlink:href="road__curve__offset_8h.html" target="_top" xlink:title=" ">
<polygon fill="white" stroke="black" points="850.42,-246.5 850.42,-265.5 963.42,-265.5 963.42,-246.5 850.42,-246.5"/>
<text text-anchor="middle" x="906.92" y="-253.5" font-family="Helvetica,sans-Serif" font-size="10.00">road_curve_offset.h</text>
</a>
</g>
</g>
<!-- Node26&#45;&gt;Node29 -->
<g id="edge55" class="edge">
<title>Node26&#45;&gt;Node29</title>
<path fill="none" stroke="midnightblue" d="M1026.03,-299.04C997.24,-288.88 956.63,-274.55 931.05,-265.52"/>
<polygon fill="midnightblue" stroke="midnightblue" points="1025.08,-302.42 1035.67,-302.44 1027.41,-295.81 1025.08,-302.42"/>
</g>
<!-- Node27&#45;&gt;Node3 -->
<g id="edge48" class="edge">
<title>Node27&#45;&gt;Node3</title>
<path fill="none" stroke="midnightblue" d="M1065.39,-183C1055.17,-171.74 1041.89,-157.1 1033.64,-148.01"/>
<polygon fill="midnightblue" stroke="midnightblue" points="1062.87,-185.42 1072.18,-190.48 1068.05,-180.72 1062.87,-185.42"/>
</g>
<!-- Node27&#45;&gt;Node5 -->
<g id="edge51" class="edge">
<title>Node27&#45;&gt;Node5</title>
<path fill="none" stroke="midnightblue" d="M1085.61,-180.75C1088.16,-172.57 1091.2,-162.81 1093.92,-154 1102.13,-127.42 1111.76,-95.92 1116.3,-81.07"/>
<polygon fill="midnightblue" stroke="midnightblue" points="1082.25,-179.79 1082.61,-190.38 1088.93,-181.87 1082.25,-179.79"/>
</g>
<!-- Node27&#45;&gt;Node9 -->
<g id="edge50" class="edge">
<title>Node27&#45;&gt;Node9</title>
<path fill="none" stroke="midnightblue" d="M1079.71,-180.16C1078.58,-163.38 1074.46,-139.04 1060.92,-123 1042.28,-100.92 1012.13,-88.17 987.37,-81"/>
<polygon fill="midnightblue" stroke="midnightblue" points="1076.22,-180.53 1080.1,-190.39 1083.22,-180.26 1076.22,-180.53"/>
</g>
<!-- Node28 -->
<g id="node28" class="node">
<title>Node28</title>
<g id="a_node28"><a xlink:href="road__geometry_8cc.html" target="_top" xlink:title=" ">
<polygon fill="white" stroke="black" points="1146.42,-129 1146.42,-148 1249.42,-148 1249.42,-129 1146.42,-129"/>
<text text-anchor="middle" x="1197.92" y="-136" font-family="Helvetica,sans-Serif" font-size="10.00">road_geometry.cc</text>
</a>
</g>
</g>
<!-- Node27&#45;&gt;Node28 -->
<g id="edge49" class="edge">
<title>Node27&#45;&gt;Node28</title>
<path fill="none" stroke="midnightblue" d="M1105.96,-185.87C1128.83,-174.33 1161.43,-157.9 1181.04,-148.01"/>
<polygon fill="midnightblue" stroke="midnightblue" points="1104.18,-182.85 1096.82,-190.48 1107.33,-189.1 1104.18,-182.85"/>
</g>
<!-- Node29&#45;&gt;Node2 -->
<g id="edge56" class="edge">
<title>Node29&#45;&gt;Node2</title>
<path fill="none" stroke="midnightblue" d="M876.6,-242.5C852.04,-232.38 818.1,-218.39 796.58,-209.52"/>
<polygon fill="midnightblue" stroke="midnightblue" points="875.58,-245.87 886.16,-246.44 878.25,-239.4 875.58,-245.87"/>
</g>
<!-- Node29&#45;&gt;Node4 -->
<g id="edge57" class="edge">
<title>Node29&#45;&gt;Node4</title>
<path fill="none" stroke="midnightblue" d="M879.65,-241.64C858.45,-229.33 834.55,-210 846.92,-190 855.63,-175.91 896.85,-158.41 923.87,-148.15"/>
<polygon fill="midnightblue" stroke="midnightblue" points="878,-244.73 888.45,-246.46 881.36,-238.59 878,-244.73"/>
</g>
<!-- Node30 -->
<g id="node30" class="node">
<title>Node30</title>
<g id="a_node30"><a xlink:href="road__curve__offset_8cc.html" target="_top" xlink:title=" ">
<polygon fill="white" stroke="black" points="855.92,-190.5 855.92,-209.5 973.92,-209.5 973.92,-190.5 855.92,-190.5"/>
<text text-anchor="middle" x="914.92" y="-197.5" font-family="Helvetica,sans-Serif" font-size="10.00">road_curve_offset.cc</text>
</a>
</g>
</g>
<!-- Node29&#45;&gt;Node30 -->
<g id="edge58" class="edge">
<title>Node29&#45;&gt;Node30</title>
<path fill="none" stroke="midnightblue" d="M909.72,-236.1C911.04,-227.14 912.57,-216.86 913.62,-209.75"/>
<polygon fill="midnightblue" stroke="midnightblue" points="906.24,-235.68 908.24,-246.08 913.16,-236.7 906.24,-235.68"/>
</g>
<!-- Node31&#45;&gt;Node6 -->
<g id="edge61" class="edge">
<title>Node31&#45;&gt;Node6</title>
<path fill="none" stroke="midnightblue" d="M1316.72,-300.55C1361.09,-291.69 1418.52,-278.47 1438.92,-266 1471.7,-245.96 1495.92,-239.42 1495.92,-201 1495.92,-201 1495.92,-201 1495.92,-137.5 1495.92,-91.41 1519.34,-39.71 1529.41,-19.63"/>
<polygon fill="midnightblue" stroke="midnightblue" points="1316.04,-297.12 1306.9,-302.48 1317.39,-303.99 1316.04,-297.12"/>
</g>
<!-- Node31&#45;&gt;Node20 -->
<g id="edge60" class="edge">
<title>Node31&#45;&gt;Node20</title>
<path fill="none" stroke="midnightblue" d="M1229.47,-298.64C1204.51,-288.5 1169.84,-274.43 1147.89,-265.52"/>
<polygon fill="midnightblue" stroke="midnightblue" points="1228.26,-301.92 1238.84,-302.44 1230.89,-295.44 1228.26,-301.92"/>
</g>
<!-- Node32 -->
<g id="node32" class="node">
<title>Node32</title>
<g id="a_node32"><a xlink:href="piecewise__function_8cc.html" target="_top" xlink:title=" ">
<polygon fill="white" stroke="black" points="1203.92,-246.5 1203.92,-265.5 1327.92,-265.5 1327.92,-246.5 1203.92,-246.5"/>
<text text-anchor="middle" x="1265.92" y="-253.5" font-family="Helvetica,sans-Serif" font-size="10.00">piecewise_function.cc</text>
</a>
</g>
</g>
<!-- Node31&#45;&gt;Node32 -->
<g id="edge62" class="edge">
<title>Node31&#45;&gt;Node32</title>
<path fill="none" stroke="midnightblue" d="M1262.02,-292.1C1263.01,-283.14 1264.15,-272.86 1264.94,-265.75"/>
<polygon fill="midnightblue" stroke="midnightblue" points="1258.53,-291.76 1260.91,-302.08 1265.49,-292.53 1258.53,-291.76"/>
</g>
<!-- Node33&#45;&gt;Node6 -->
<g id="edge65" class="edge">
<title>Node33&#45;&gt;Node6</title>
<path fill="none" stroke="midnightblue" d="M1575.33,-351.54C1583.87,-343.51 1593.53,-333.06 1599.92,-322 1614.96,-295.93 1618.92,-287.1 1618.92,-257 1618.92,-257 1618.92,-257 1618.92,-137.5 1618.92,-98.42 1608.66,-87.78 1585.92,-56 1575.22,-41.05 1558.57,-27.8 1547.01,-19.62"/>
<polygon fill="midnightblue" stroke="midnightblue" points="1572.73,-349.17 1567.62,-358.45 1577.4,-354.38 1572.73,-349.17"/>
</g>
</g>
</svg>
        <g id="navigator" transform="translate(0 0)" fill="#404254">
                <rect fill="#f2f5e9" fill-opacity="0.5" stroke="#606060" stroke-width=".5" x="0" y="0" width="60" height="60"/>
                <use id="zoomplus" xlink:href="#zoomPlus" x="17" y="9" onmousedown="handleZoom(evt,'in')"/>
                <use id="zoomminus" xlink:href="#zoomMin" x="42" y="9" onmousedown="handleZoom(evt,'out')"/>
                <use id="reset" xlink:href="#resetDef" x="30" y="36" onmousedown="handleReset()"/>
                <g id="arrowUp" xlink:href="#dirArrow" transform="translate(30 24)" onmousedown="handlePan(0,-1)">
                  <use xlink:href="#rim" fill="#404040">
                        <set attributeName="fill" to="#808080" begin="arrowUp.mouseover" end="arrowUp.mouseout"/>
                  </use>
                  <path fill="none" stroke="white" stroke-width="1.5" d="M0,-3.0v7 M-2.5,-0.5L0,-3.0L2.5,-0.5"/>
                </g>
                <g id="arrowRight" xlink:href="#dirArrow" transform="rotate(90) translate(36 -43)" onmousedown="handlePan(1,0)">
                  <use xlink:href="#rim" fill="#404040">
                        <set attributeName="fill" to="#808080" begin="arrowRight.mouseover" end="arrowRight.mouseout"/>
                  </use>
                  <path fill="none" stroke="white" stroke-width="1.5" d="M0,-3.0v7 M-2.5,-0.5L0,-3.0L2.5,-0.5"/>
                </g>
                <g id="arrowDown" xlink:href="#dirArrow" transform="rotate(180) translate(-30 -48)" onmousedown="handlePan(0,1)">
                  <use xlink:href="#rim" fill="#404040">
                        <set attributeName="fill" to="#808080" begin="arrowDown.mouseover" end="arrowDown.mouseout"/>
                  </use>
                  <path fill="none" stroke="white" stroke-width="1.5" d="M0,-3.0v7 M-2.5,-0.5L0,-3.0L2.5,-0.5"/>
                </g>
                <g id="arrowLeft" xlink:href="#dirArrow" transform="rotate(270) translate(-36 17)" onmousedown="handlePan(-1,0)">
                  <use xlink:href="#rim" fill="#404040">
                        <set attributeName="fill" to="#808080" begin="arrowLeft.mouseover" end="arrowLeft.mouseout"/>
                  </use>
                  <path fill="none" stroke="white" stroke-width="1.5" d="M0,-3.0v7 M-2.5,-0.5L0,-3.0L2.5,-0.5"/>
                </g>
        </g>
        <svg viewBox="0 0 15 15" width="100%" height="30px" preserveAspectRatio="xMaxYMin meet">
         <g id="arrow_out" transform="scale(0.3 0.3)">
          <a xlink:href="function_8h__dep__incl_org.svg" target="_base">
           <rect id="button" ry="5" rx="5" y="6" x="6" height="38" width="38"
                fill="#f2f5e9" fill-opacity="0.5" stroke="#606060" stroke-width="1.0"/>
           <path id="arrow"
             d="M 11.500037,31.436501 C 11.940474,20.09759 22.043105,11.32322 32.158766,21.979434 L 37.068811,17.246167 C 37.068811,17.246167 37.088388,32 37.088388,32 L 22.160133,31.978069 C 22.160133,31.978069 26.997745,27.140456 26.997745,27.140456 C 18.528582,18.264221 13.291696,25.230495 11.500037,31.436501 z"
             style="fill:#404040;"/>
          </a>
         </g>
        </svg>
</svg>
