<?xml version="1.0" encoding="UTF-8" standalone="no"?>
<!DOCTYPE svg PUBLIC "-//W3C//DTD SVG 1.1//EN"
 "http://www.w3.org/Graphics/SVG/1.1/DTD/svg11.dtd">
<!-- Generated by graphviz version 2.43.0 (0)
 -->
<!-- Title: function.h Pages: 1 -->
<!--zoomable 420 -->
<svg id="main" version="1.1" xmlns="http://www.w3.org/2000/svg" xmlns:xlink="http://www.w3.org/1999/xlink" xml:space="preserve" onload="init(evt)">
<style type="text/css"><![CDATA[
.edge:hover path { stroke: red; }
.edge:hover polygon { stroke: red; fill: red; }
]]></style>
<script type="text/javascript"><![CDATA[
var edges = document.getElementsByTagName('g');
if (edges && edges.length) {
  for (var i=0;i<edges.length;i++) {
    if (edges[i].id.substr(0,4)=='edge') {
      edges[i].setAttribute('class','edge');
    }
  }
}
]]></script>
        <defs>
                <circle id="rim" cx="0" cy="0" r="7"/>
                <circle id="rim2" cx="0" cy="0" r="3.5"/>
                <g id="zoomPlus">
                        <use xlink:href="#rim" fill="#404040">
                                <set attributeName="fill" to="#808080" begin="zoomplus.mouseover" end="zoomplus.mouseout"/>
                        </use>
                        <path d="M-4,0h8M0,-4v8" fill="none" stroke="white" stroke-width="1.5" pointer-events="none"/>
                </g>
                <g id="zoomMin">
                        <use xlink:href="#rim" fill="#404040">
                                <set attributeName="fill" to="#808080" begin="zoomminus.mouseover" end="zoomminus.mouseout"/>
                        </use>
                        <path d="M-4,0h8" fill="none" stroke="white" stroke-width="1.5" pointer-events="none"/>
                </g>
                <g id="dirArrow">
                        <path fill="none" stroke="white" stroke-width="1.5" d="M0,-3.0v7 M-2.5,-0.5L0,-3.0L2.5,-0.5"/>
                </g>
               <g id="resetDef">
                       <use xlink:href="#rim2" fill="#404040">
                               <set attributeName="fill" to="#808080" begin="reset.mouseover" end="reset.mouseout"/>
                       </use>
               </g>
        </defs>

<script type="text/javascript">
var viewWidth = 1796;
var viewHeight = 420;
var sectionId = 'dynsection-1';
</script>
<script xlink:href="svgpan.js"/>
<svg id="graph" class="graph">
<g id="viewport">
<title>function.h</title>
<polygon fill="white" stroke="transparent" points="-4,4 -4,-416 1792,-416 1792,4 -4,4"/>
<!-- Node1 -->
<g id="node1" class="node">
<title>Node1</title>
<g id="a_node1"><a xlink:title=" ">
<polygon fill="#bfbfbf" stroke="black" points="451.5,-392.5 451.5,-411.5 516.5,-411.5 516.5,-392.5 451.5,-392.5"/>
<text text-anchor="middle" x="484" y="-399.5" font-family="Helvetica,sans-Serif" font-size="10.00">function.h</text>
</a>
</g>
</g>
<!-- Node2 -->
<g id="node2" class="node">
<title>Node2</title>
<g id="a_node2"><a xlink:href="base_2lane_8h.html" target="_top" xlink:title=" ">
<polygon fill="white" stroke="black" points="1050.5,-168.5 1050.5,-187.5 1097.5,-187.5 1097.5,-168.5 1050.5,-168.5"/>
<text text-anchor="middle" x="1074" y="-175.5" font-family="Helvetica,sans-Serif" font-size="10.00">lane.h</text>
</a>
</g>
</g>
<!-- Node1&#45;&gt;Node2 -->
<g id="edge1" class="edge">
<title>Node1&#45;&gt;Node2</title>
<path fill="none" stroke="midnightblue" d="M522.72,-389.62C602.3,-365.8 789.5,-307.63 941,-244 984.13,-225.89 1033.15,-200.68 1057.9,-187.61"/>
<polygon fill="midnightblue" stroke="midnightblue" points="521.69,-386.27 513.11,-392.48 523.69,-392.98 521.69,-386.27"/>
</g>
<!-- Node6 -->
<g id="node6" class="node">
<title>Node6</title>
<g id="a_node6"><a xlink:href="road__geometry__builder_8cc.html" target="_top" xlink:title=" ">
<polygon fill="white" stroke="black" points="176.5,-0.5 176.5,-19.5 319.5,-19.5 319.5,-0.5 176.5,-0.5"/>
<text text-anchor="middle" x="248" y="-7.5" font-family="Helvetica,sans-Serif" font-size="10.00">road_geometry_builder.cc</text>
</a>
</g>
</g>
<!-- Node1&#45;&gt;Node6 -->
<g id="edge33" class="edge">
<title>Node1&#45;&gt;Node6</title>
<path fill="none" stroke="midnightblue" d="M441.6,-395.13C356.29,-382.13 172,-347.5 172,-291 172,-291 172,-291 172,-121 172,-76.2 215.2,-36.43 236.46,-19.57"/>
<polygon fill="midnightblue" stroke="midnightblue" points="441.09,-398.59 451.49,-396.61 442.12,-391.67 441.09,-398.59"/>
</g>
<!-- Node18 -->
<g id="node18" class="node">
<title>Node18</title>
<g id="a_node18"><a xlink:href="road__curve__factory_8h.html" target="_top" xlink:title=" ">
<polygon fill="white" stroke="black" points="574,-224.5 574,-243.5 692,-243.5 692,-224.5 574,-224.5"/>
<text text-anchor="middle" x="633" y="-231.5" font-family="Helvetica,sans-Serif" font-size="10.00">road_curve_factory.h</text>
</a>
</g>
</g>
<!-- Node1&#45;&gt;Node18 -->
<g id="edge28" class="edge">
<title>Node1&#45;&gt;Node18</title>
<path fill="none" stroke="midnightblue" d="M499.07,-384.21C530.44,-349.26 601.78,-269.79 625.31,-243.57"/>
<polygon fill="midnightblue" stroke="midnightblue" points="496.09,-382.3 492.01,-392.08 501.3,-386.97 496.09,-382.3"/>
</g>
<!-- Node20 -->
<g id="node20" class="node">
<title>Node20</title>
<g id="a_node20"><a xlink:href="cubic__polynomial_8h.html" target="_top" xlink:title=" ">
<polygon fill="white" stroke="black" points="428.5,-280.5 428.5,-299.5 539.5,-299.5 539.5,-280.5 428.5,-280.5"/>
<text text-anchor="middle" x="484" y="-287.5" font-family="Helvetica,sans-Serif" font-size="10.00">cubic_polynomial.h</text>
</a>
</g>
</g>
<!-- Node1&#45;&gt;Node20 -->
<g id="edge34" class="edge">
<title>Node1&#45;&gt;Node20</title>
<path fill="none" stroke="midnightblue" d="M484,-382.35C484,-358.25 484,-317.31 484,-299.59"/>
<polygon fill="midnightblue" stroke="midnightblue" points="480.5,-382.37 484,-392.37 487.5,-382.37 480.5,-382.37"/>
</g>
<!-- Node22 -->
<g id="node22" class="node">
<title>Node22</title>
<g id="a_node22"><a xlink:href="road__curve_2lane__offset_8h.html" target="_top" xlink:title=" ">
<polygon fill="white" stroke="black" points="291,-336.5 291,-355.5 371,-355.5 371,-336.5 291,-336.5"/>
<text text-anchor="middle" x="331" y="-343.5" font-family="Helvetica,sans-Serif" font-size="10.00">lane_offset.h</text>
</a>
</g>
</g>
<!-- Node1&#45;&gt;Node22 -->
<g id="edge38" class="edge">
<title>Node1&#45;&gt;Node22</title>
<path fill="none" stroke="midnightblue" d="M450.11,-389.04C421.32,-378.88 380.71,-364.55 355.13,-355.52"/>
<polygon fill="midnightblue" stroke="midnightblue" points="449.16,-392.42 459.76,-392.44 451.49,-385.81 449.16,-392.42"/>
</g>
<!-- Node24 -->
<g id="node24" class="node">
<title>Node24</title>
<g id="a_node24"><a xlink:href="road__curve_8h.html" target="_top" xlink:title=" ">
<polygon fill="white" stroke="black" points="623,-280.5 623,-299.5 703,-299.5 703,-280.5 623,-280.5"/>
<text text-anchor="middle" x="663" y="-287.5" font-family="Helvetica,sans-Serif" font-size="10.00">road_curve.h</text>
</a>
</g>
</g>
<!-- Node1&#45;&gt;Node24 -->
<g id="edge59" class="edge">
<title>Node1&#45;&gt;Node24</title>
<path fill="none" stroke="midnightblue" d="M526.36,-389.43C549.31,-382 577.5,-370.92 600,-356 624.1,-340.02 646.1,-313.43 656.57,-299.74"/>
<polygon fill="midnightblue" stroke="midnightblue" points="525.05,-386.17 516.55,-392.49 527.14,-392.86 525.05,-386.17"/>
</g>
<!-- Node29 -->
<g id="node29" class="node">
<title>Node29</title>
<g id="a_node29"><a xlink:href="piecewise__function_8h.html" target="_top" xlink:title=" ">
<polygon fill="white" stroke="black" points="296.5,-224.5 296.5,-243.5 415.5,-243.5 415.5,-224.5 296.5,-224.5"/>
<text text-anchor="middle" x="356" y="-231.5" font-family="Helvetica,sans-Serif" font-size="10.00">piecewise_function.h</text>
</a>
</g>
</g>
<!-- Node1&#45;&gt;Node29 -->
<g id="edge55" class="edge">
<title>Node1&#45;&gt;Node29</title>
<path fill="none" stroke="midnightblue" d="M470.71,-383.76C443.59,-348.59 382.74,-269.68 362.61,-243.57"/>
<polygon fill="midnightblue" stroke="midnightblue" points="468.24,-386.29 477.12,-392.08 473.78,-382.02 468.24,-386.29"/>
</g>
<!-- Node31 -->
<g id="node31" class="node">
<title>Node31</title>
<g id="a_node31"><a xlink:href="scaled__domain__function_8h.html" target="_top" xlink:title=" ">
<polygon fill="white" stroke="black" points="0,-336.5 0,-355.5 144,-355.5 144,-336.5 0,-336.5"/>
<text text-anchor="middle" x="72" y="-343.5" font-family="Helvetica,sans-Serif" font-size="10.00">scaled_domain_function.h</text>
</a>
</g>
</g>
<!-- Node1&#45;&gt;Node31 -->
<g id="edge60" class="edge">
<title>Node1&#45;&gt;Node31</title>
<path fill="none" stroke="midnightblue" d="M441.21,-395.39C368.88,-385.91 222.02,-366.66 136.94,-355.51"/>
<polygon fill="midnightblue" stroke="midnightblue" points="440.96,-398.89 451.33,-396.72 441.87,-391.95 440.96,-398.89"/>
</g>
<!-- Node32 -->
<g id="node32" class="node">
<title>Node32</title>
<g id="a_node32"><a xlink:href="function__stub_8h.html" target="_top" xlink:title=" ">
<polygon fill="white" stroke="black" points="994,-336.5 994,-355.5 1086,-355.5 1086,-336.5 994,-336.5"/>
<text text-anchor="middle" x="1040" y="-343.5" font-family="Helvetica,sans-Serif" font-size="10.00">function_stub.h</text>
</a>
</g>
</g>
<!-- Node1&#45;&gt;Node32 -->
<g id="edge62" class="edge">
<title>Node1&#45;&gt;Node32</title>
<path fill="none" stroke="midnightblue" d="M526.72,-397.97C612.7,-391.68 812.71,-376.12 980,-356 984.5,-355.46 989.18,-354.85 993.85,-354.2"/>
<polygon fill="midnightblue" stroke="midnightblue" points="526.29,-394.49 516.57,-398.71 526.79,-401.47 526.29,-394.49"/>
</g>
<!-- Node3 -->
<g id="node3" class="node">
<title>Node3</title>
<g id="a_node3"><a xlink:href="base_2lane_8cc.html" target="_top" xlink:title=" ">
<polygon fill="white" stroke="black" points="994.5,-112.5 994.5,-131.5 1045.5,-131.5 1045.5,-112.5 994.5,-112.5"/>
<text text-anchor="middle" x="1020" y="-119.5" font-family="Helvetica,sans-Serif" font-size="10.00">lane.cc</text>
</a>
</g>
</g>
<!-- Node2&#45;&gt;Node3 -->
<g id="edge2" class="edge">
<title>Node2&#45;&gt;Node3</title>
<path fill="none" stroke="midnightblue" d="M1058,-161C1048.43,-151.43 1036.64,-139.64 1028.75,-131.75"/>
<polygon fill="midnightblue" stroke="midnightblue" points="1055.54,-163.49 1065.08,-168.08 1060.49,-158.54 1055.54,-163.49"/>
</g>
<!-- Node4 -->
<g id="node4" class="node">
<title>Node4</title>
<g id="a_node4"><a xlink:href="segment_8h.html" target="_top" xlink:title=" ">
<polygon fill="white" stroke="black" points="710,-112.5 710,-131.5 778,-131.5 778,-112.5 710,-112.5"/>
<text text-anchor="middle" x="744" y="-119.5" font-family="Helvetica,sans-Serif" font-size="10.00">segment.h</text>
</a>
</g>
</g>
<!-- Node2&#45;&gt;Node4 -->
<g id="edge3" class="edge">
<title>Node2&#45;&gt;Node4</title>
<path fill="none" stroke="midnightblue" d="M1040.31,-170.07C1036.5,-169.35 1032.67,-168.64 1029,-168 922.31,-149.37 894.65,-150.86 788,-132 784.78,-131.43 781.42,-130.8 778.08,-130.16"/>
<polygon fill="midnightblue" stroke="midnightblue" points="1039.73,-173.53 1050.22,-172.02 1041.08,-166.66 1039.73,-173.53"/>
</g>
<!-- Node5 -->
<g id="node5" class="node">
<title>Node5</title>
<g id="a_node5"><a xlink:href="road__geometry__builder_8h.html" target="_top" xlink:title=" ">
<polygon fill="white" stroke="black" points="741.5,-56.5 741.5,-75.5 880.5,-75.5 880.5,-56.5 741.5,-56.5"/>
<text text-anchor="middle" x="811" y="-63.5" font-family="Helvetica,sans-Serif" font-size="10.00">road_geometry_builder.h</text>
</a>
</g>
</g>
<!-- Node2&#45;&gt;Node5 -->
<g id="edge18" class="edge">
<title>Node2&#45;&gt;Node5</title>
<path fill="none" stroke="midnightblue" d="M1073.61,-158.35C1072.26,-143.62 1067.93,-123.68 1055,-112 1041.81,-100.09 944.26,-84.84 876.58,-75.5"/>
<polygon fill="midnightblue" stroke="midnightblue" points="1070.12,-158.57 1074.16,-168.37 1077.11,-158.19 1070.12,-158.57"/>
</g>
<!-- Node8 -->
<g id="node8" class="node">
<title>Node8</title>
<g id="a_node8"><a xlink:href="builder__tools_8h.html" target="_top" xlink:title=" ">
<polygon fill="white" stroke="black" points="1102.5,-112.5 1102.5,-131.5 1191.5,-131.5 1191.5,-112.5 1102.5,-112.5"/>
<text text-anchor="middle" x="1147" y="-119.5" font-family="Helvetica,sans-Serif" font-size="10.00">builder_tools.h</text>
</a>
</g>
</g>
<!-- Node2&#45;&gt;Node8 -->
<g id="edge7" class="edge">
<title>Node2&#45;&gt;Node8</title>
<path fill="none" stroke="midnightblue" d="M1094.14,-162.1C1107.28,-152.38 1123.98,-140.03 1135.06,-131.83"/>
<polygon fill="midnightblue" stroke="midnightblue" points="1091.69,-159.56 1085.73,-168.32 1095.85,-165.19 1091.69,-159.56"/>
</g>
<!-- Node14 -->
<g id="node14" class="node">
<title>Node14</title>
<g id="a_node14"><a xlink:href="direction__usage__builder_8h.html" target="_top" xlink:title=" ">
<polygon fill="white" stroke="black" points="1210,-112.5 1210,-131.5 1352,-131.5 1352,-112.5 1210,-112.5"/>
<text text-anchor="middle" x="1281" y="-119.5" font-family="Helvetica,sans-Serif" font-size="10.00">direction_usage_builder.h</text>
</a>
</g>
</g>
<!-- Node2&#45;&gt;Node14 -->
<g id="edge15" class="edge">
<title>Node2&#45;&gt;Node14</title>
<path fill="none" stroke="midnightblue" d="M1107.53,-168.25C1146.37,-158.12 1209.93,-141.54 1248.38,-131.51"/>
<polygon fill="midnightblue" stroke="midnightblue" points="1106.54,-164.89 1097.75,-170.81 1108.31,-171.67 1106.54,-164.89"/>
</g>
<!-- Node15 -->
<g id="node15" class="node">
<title>Node15</title>
<g id="a_node15"><a xlink:href="road__rulebook__builder_8h.html" target="_top" xlink:title=" ">
<polygon fill="white" stroke="black" points="1370,-112.5 1370,-131.5 1504,-131.5 1504,-112.5 1370,-112.5"/>
<text text-anchor="middle" x="1437" y="-119.5" font-family="Helvetica,sans-Serif" font-size="10.00">road_rulebook_builder.h</text>
</a>
</g>
</g>
<!-- Node2&#45;&gt;Node15 -->
<g id="edge19" class="edge">
<title>Node2&#45;&gt;Node15</title>
<path fill="none" stroke="midnightblue" d="M1107.57,-172.01C1169.64,-162.77 1302.98,-142.94 1379.63,-131.54"/>
<polygon fill="midnightblue" stroke="midnightblue" points="1106.91,-168.57 1097.54,-173.5 1107.94,-175.49 1106.91,-168.57"/>
</g>
<!-- Node16 -->
<g id="node16" class="node">
<title>Node16</title>
<g id="a_node16"><a xlink:href="rule__registry__builder_8h.html" target="_top" xlink:title=" ">
<polygon fill="white" stroke="black" points="1522,-112.5 1522,-131.5 1648,-131.5 1648,-112.5 1522,-112.5"/>
<text text-anchor="middle" x="1585" y="-119.5" font-family="Helvetica,sans-Serif" font-size="10.00">rule_registry_builder.h</text>
</a>
</g>
</g>
<!-- Node2&#45;&gt;Node16 -->
<g id="edge22" class="edge">
<title>Node2&#45;&gt;Node16</title>
<path fill="none" stroke="midnightblue" d="M1107.9,-173.78C1181.64,-166.73 1362.08,-149.16 1513,-132 1515.88,-131.67 1518.82,-131.33 1521.79,-130.98"/>
<polygon fill="midnightblue" stroke="midnightblue" points="1107.44,-170.31 1097.81,-174.75 1108.1,-177.28 1107.44,-170.31"/>
</g>
<!-- Node17 -->
<g id="node17" class="node">
<title>Node17</title>
<g id="a_node17"><a xlink:href="speed__limit__builder_8h.html" target="_top" xlink:title=" ">
<polygon fill="white" stroke="black" points="1666,-112.5 1666,-131.5 1788,-131.5 1788,-112.5 1666,-112.5"/>
<text text-anchor="middle" x="1727" y="-119.5" font-family="Helvetica,sans-Serif" font-size="10.00">speed_limit_builder.h</text>
</a>
</g>
</g>
<!-- Node2&#45;&gt;Node17 -->
<g id="edge25" class="edge">
<title>Node2&#45;&gt;Node17</title>
<path fill="none" stroke="midnightblue" d="M1107.75,-175C1197.35,-169.55 1448.61,-153.43 1657,-132 1659.93,-131.7 1662.92,-131.38 1665.94,-131.04"/>
<polygon fill="midnightblue" stroke="midnightblue" points="1107.41,-171.51 1097.64,-175.61 1107.83,-178.5 1107.41,-171.51"/>
</g>
<!-- Node4&#45;&gt;Node5 -->
<g id="edge4" class="edge">
<title>Node4&#45;&gt;Node5</title>
<path fill="none" stroke="midnightblue" d="M762.83,-105.82C774.84,-96.15 789.97,-83.95 800.04,-75.83"/>
<polygon fill="midnightblue" stroke="midnightblue" points="760.35,-103.32 754.76,-112.32 764.75,-108.77 760.35,-103.32"/>
</g>
<!-- Node5&#45;&gt;Node6 -->
<g id="edge5" class="edge">
<title>Node5&#45;&gt;Node6</title>
<path fill="none" stroke="midnightblue" d="M731.37,-57.36C621.52,-46.83 425.13,-27.99 319.66,-17.87"/>
<polygon fill="midnightblue" stroke="midnightblue" points="731.11,-60.85 741.4,-58.32 731.78,-53.89 731.11,-60.85"/>
</g>
<!-- Node7 -->
<g id="node7" class="node">
<title>Node7</title>
<g id="a_node7"><a xlink:href="road__network__builder_8cc.html" target="_top" xlink:title=" ">
<polygon fill="white" stroke="black" points="1461,-0.5 1461,-19.5 1597,-19.5 1597,-0.5 1461,-0.5"/>
<text text-anchor="middle" x="1529" y="-7.5" font-family="Helvetica,sans-Serif" font-size="10.00">road_network_builder.cc</text>
</a>
</g>
</g>
<!-- Node5&#45;&gt;Node7 -->
<g id="edge6" class="edge">
<title>Node5&#45;&gt;Node7</title>
<path fill="none" stroke="midnightblue" d="M890.96,-55.95C1105.31,-36.4 1345.74,-21.52 1460.83,-14.83"/>
<polygon fill="midnightblue" stroke="midnightblue" points="890.41,-52.49 880.77,-56.89 891.05,-59.46 890.41,-52.49"/>
</g>
<!-- Node8&#45;&gt;Node5 -->
<g id="edge10" class="edge">
<title>Node8&#45;&gt;Node5</title>
<path fill="none" stroke="midnightblue" d="M1092.24,-112.2C1029.22,-102.07 926.44,-85.55 864.12,-75.54"/>
<polygon fill="midnightblue" stroke="midnightblue" points="1091.95,-115.7 1102.38,-113.83 1093.06,-108.79 1091.95,-115.7"/>
</g>
<!-- Node8&#45;&gt;Node7 -->
<g id="edge11" class="edge">
<title>Node8&#45;&gt;Node7</title>
<path fill="none" stroke="midnightblue" d="M1097.2,-109.78C1059.07,-98.97 1016.52,-80.63 1039,-56 1066.85,-25.47 1332.55,-15.38 1460.62,-12.28"/>
<polygon fill="midnightblue" stroke="midnightblue" points="1096.7,-113.27 1107.26,-112.5 1098.52,-106.51 1096.7,-113.27"/>
</g>
<!-- Node9 -->
<g id="node9" class="node">
<title>Node9</title>
<g id="a_node9"><a xlink:href="builder__tools_8cc.html" target="_top" xlink:title=" ">
<polygon fill="white" stroke="black" points="898.5,-56.5 898.5,-75.5 991.5,-75.5 991.5,-56.5 898.5,-56.5"/>
<text text-anchor="middle" x="945" y="-63.5" font-family="Helvetica,sans-Serif" font-size="10.00">builder_tools.cc</text>
</a>
</g>
</g>
<!-- Node8&#45;&gt;Node9 -->
<g id="edge8" class="edge">
<title>Node8&#45;&gt;Node9</title>
<path fill="none" stroke="midnightblue" d="M1105.21,-109.83C1067.07,-99.63 1011.52,-84.78 976.86,-75.52"/>
<polygon fill="midnightblue" stroke="midnightblue" points="1104.43,-113.24 1114.99,-112.44 1106.24,-106.48 1104.43,-113.24"/>
</g>
<!-- Node10 -->
<g id="node10" class="node">
<title>Node10</title>
<g id="a_node10"><a xlink:href="direction__usage__builder_8cc.html" target="_top" xlink:title=" ">
<polygon fill="white" stroke="black" points="1048,-56.5 1048,-75.5 1194,-75.5 1194,-56.5 1048,-56.5"/>
<text text-anchor="middle" x="1121" y="-63.5" font-family="Helvetica,sans-Serif" font-size="10.00">direction_usage_builder.cc</text>
</a>
</g>
</g>
<!-- Node8&#45;&gt;Node10 -->
<g id="edge9" class="edge">
<title>Node8&#45;&gt;Node10</title>
<path fill="none" stroke="midnightblue" d="M1138.33,-102.98C1133.91,-93.82 1128.75,-83.09 1125.21,-75.75"/>
<polygon fill="midnightblue" stroke="midnightblue" points="1135.21,-104.59 1142.71,-112.08 1141.52,-101.55 1135.21,-104.59"/>
</g>
<!-- Node11 -->
<g id="node11" class="node">
<title>Node11</title>
<g id="a_node11"><a xlink:href="road__rulebook__builder_8cc.html" target="_top" xlink:title=" ">
<polygon fill="white" stroke="black" points="1212.5,-56.5 1212.5,-75.5 1351.5,-75.5 1351.5,-56.5 1212.5,-56.5"/>
<text text-anchor="middle" x="1282" y="-63.5" font-family="Helvetica,sans-Serif" font-size="10.00">road_rulebook_builder.cc</text>
</a>
</g>
</g>
<!-- Node8&#45;&gt;Node11 -->
<g id="edge12" class="edge">
<title>Node8&#45;&gt;Node11</title>
<path fill="none" stroke="midnightblue" d="M1177.91,-108.64C1203.24,-98.5 1238.43,-84.43 1260.71,-75.52"/>
<polygon fill="midnightblue" stroke="midnightblue" points="1176.38,-105.48 1168.39,-112.44 1178.98,-111.98 1176.38,-105.48"/>
</g>
<!-- Node12 -->
<g id="node12" class="node">
<title>Node12</title>
<g id="a_node12"><a xlink:href="rule__registry__builder_8cc.html" target="_top" xlink:title=" ">
<polygon fill="white" stroke="black" points="1369.5,-56.5 1369.5,-75.5 1500.5,-75.5 1500.5,-56.5 1369.5,-56.5"/>
<text text-anchor="middle" x="1435" y="-63.5" font-family="Helvetica,sans-Serif" font-size="10.00">rule_registry_builder.cc</text>
</a>
</g>
</g>
<!-- Node8&#45;&gt;Node12 -->
<g id="edge13" class="edge">
<title>Node8&#45;&gt;Node12</title>
<path fill="none" stroke="midnightblue" d="M1201.82,-110.72C1256.13,-100.54 1338.35,-85.12 1389.26,-75.58"/>
<polygon fill="midnightblue" stroke="midnightblue" points="1200.87,-107.34 1191.68,-112.62 1202.16,-114.22 1200.87,-107.34"/>
</g>
<!-- Node13 -->
<g id="node13" class="node">
<title>Node13</title>
<g id="a_node13"><a xlink:href="speed__limit__builder_8cc.html" target="_top" xlink:title=" ">
<polygon fill="white" stroke="black" points="1633,-56.5 1633,-75.5 1759,-75.5 1759,-56.5 1633,-56.5"/>
<text text-anchor="middle" x="1696" y="-63.5" font-family="Helvetica,sans-Serif" font-size="10.00">speed_limit_builder.cc</text>
</a>
</g>
</g>
<!-- Node8&#45;&gt;Node13 -->
<g id="edge14" class="edge">
<title>Node8&#45;&gt;Node13</title>
<path fill="none" stroke="midnightblue" d="M1201.86,-111.98C1363.17,-91.52 1540.64,-77.73 1632.93,-71.22"/>
<polygon fill="midnightblue" stroke="midnightblue" points="1201.23,-108.54 1191.75,-113.28 1202.11,-115.48 1201.23,-108.54"/>
</g>
<!-- Node14&#45;&gt;Node7 -->
<g id="edge17" class="edge">
<title>Node14&#45;&gt;Node7</title>
<path fill="none" stroke="midnightblue" d="M1351.02,-110.98C1413.93,-101.37 1498.2,-86.78 1510,-76 1526.15,-61.25 1528.86,-33.62 1529.14,-19.61"/>
<polygon fill="midnightblue" stroke="midnightblue" points="1350.48,-107.52 1341.12,-112.47 1351.53,-114.44 1350.48,-107.52"/>
</g>
<!-- Node14&#45;&gt;Node10 -->
<g id="edge16" class="edge">
<title>Node14&#45;&gt;Node10</title>
<path fill="none" stroke="midnightblue" d="M1245.95,-109.17C1215.83,-99 1173.1,-84.59 1146.23,-75.52"/>
<polygon fill="midnightblue" stroke="midnightblue" points="1245.05,-112.56 1255.65,-112.44 1247.29,-105.93 1245.05,-112.56"/>
</g>
<!-- Node15&#45;&gt;Node7 -->
<g id="edge20" class="edge">
<title>Node15&#45;&gt;Node7</title>
<path fill="none" stroke="midnightblue" d="M1496.71,-109.12C1514.63,-102.47 1532.34,-92.11 1543,-76 1554.6,-58.48 1542.63,-33.02 1534.74,-19.76"/>
<polygon fill="midnightblue" stroke="midnightblue" points="1495.14,-105.95 1486.77,-112.45 1497.37,-112.59 1495.14,-105.95"/>
</g>
<!-- Node15&#45;&gt;Node11 -->
<g id="edge21" class="edge">
<title>Node15&#45;&gt;Node11</title>
<path fill="none" stroke="midnightblue" d="M1402.67,-109.04C1373.5,-98.88 1332.36,-84.55 1306.45,-75.52"/>
<polygon fill="midnightblue" stroke="midnightblue" points="1401.84,-112.46 1412.44,-112.44 1404.15,-105.85 1401.84,-112.46"/>
</g>
<!-- Node16&#45;&gt;Node7 -->
<g id="edge23" class="edge">
<title>Node16&#45;&gt;Node7</title>
<path fill="none" stroke="midnightblue" d="M1587.56,-102.43C1588.57,-88.86 1588.13,-70.41 1581,-56 1573.06,-39.95 1556.57,-27.26 1544.28,-19.5"/>
<polygon fill="midnightblue" stroke="midnightblue" points="1584.07,-102.15 1586.48,-112.47 1591.03,-102.9 1584.07,-102.15"/>
</g>
<!-- Node16&#45;&gt;Node12 -->
<g id="edge24" class="edge">
<title>Node16&#45;&gt;Node12</title>
<path fill="none" stroke="midnightblue" d="M1551.78,-109.04C1523.55,-98.88 1483.74,-84.55 1458.66,-75.52"/>
<polygon fill="midnightblue" stroke="midnightblue" points="1550.64,-112.35 1561.23,-112.44 1553.01,-105.76 1550.64,-112.35"/>
</g>
<!-- Node17&#45;&gt;Node7 -->
<g id="edge26" class="edge">
<title>Node17&#45;&gt;Node7</title>
<path fill="none" stroke="midnightblue" d="M1747.54,-105.83C1763.58,-92.16 1781.13,-71.83 1768,-56 1746.61,-30.2 1659.84,-19.1 1597,-14.38"/>
<polygon fill="midnightblue" stroke="midnightblue" points="1745.07,-103.33 1739.46,-112.32 1749.45,-108.79 1745.07,-103.33"/>
</g>
<!-- Node17&#45;&gt;Node13 -->
<g id="edge27" class="edge">
<title>Node17&#45;&gt;Node13</title>
<path fill="none" stroke="midnightblue" d="M1716.82,-103.27C1711.53,-94.05 1705.28,-83.17 1701.02,-75.75"/>
<polygon fill="midnightblue" stroke="midnightblue" points="1713.87,-105.15 1721.88,-112.08 1719.94,-101.67 1713.87,-105.15"/>
</g>
<!-- Node18&#45;&gt;Node5 -->
<g id="edge31" class="edge">
<title>Node18&#45;&gt;Node5</title>
<path fill="none" stroke="midnightblue" d="M642.86,-215.28C661.44,-181.91 699.91,-112.97 701,-112 721.64,-93.76 750.67,-82.31 773.72,-75.52"/>
<polygon fill="midnightblue" stroke="midnightblue" points="639.6,-213.94 637.79,-224.38 645.72,-217.35 639.6,-213.94"/>
</g>
<!-- Node18&#45;&gt;Node6 -->
<g id="edge30" class="edge">
<title>Node18&#45;&gt;Node6</title>
<path fill="none" stroke="midnightblue" d="M623.99,-215.48C615.9,-201.17 602.88,-181.22 587,-168 489.56,-86.87 343.24,-38.09 279.52,-19.57"/>
<polygon fill="midnightblue" stroke="midnightblue" points="620.94,-217.2 628.77,-224.33 627.1,-213.87 620.94,-217.2"/>
</g>
<!-- Node18&#45;&gt;Node7 -->
<g id="edge32" class="edge">
<title>Node18&#45;&gt;Node7</title>
<path fill="none" stroke="midnightblue" d="M636.52,-214.39C645,-175.62 670.68,-87.23 733,-56 797.16,-23.85 1279.7,-14.26 1460.7,-11.77"/>
<polygon fill="midnightblue" stroke="midnightblue" points="633.06,-213.82 634.49,-224.32 639.92,-215.22 633.06,-213.82"/>
</g>
<!-- Node19 -->
<g id="node19" class="node">
<title>Node19</title>
<g id="a_node19"><a xlink:href="road__curve__factory_8cc.html" target="_top" xlink:title=" ">
<polygon fill="white" stroke="black" points="456,-168.5 456,-187.5 578,-187.5 578,-168.5 456,-168.5"/>
<text text-anchor="middle" x="517" y="-175.5" font-family="Helvetica,sans-Serif" font-size="10.00">road_curve_factory.cc</text>
</a>
</g>
</g>
<!-- Node18&#45;&gt;Node19 -->
<g id="edge29" class="edge">
<title>Node18&#45;&gt;Node19</title>
<path fill="none" stroke="midnightblue" d="M605.28,-220.1C583.61,-210.01 554.1,-196.27 535.29,-187.52"/>
<polygon fill="midnightblue" stroke="midnightblue" points="604.08,-223.4 614.62,-224.44 607.03,-217.05 604.08,-223.4"/>
</g>
<!-- Node20&#45;&gt;Node6 -->
<g id="edge36" class="edge">
<title>Node20&#45;&gt;Node6</title>
<path fill="none" stroke="midnightblue" d="M418.5,-279.69C369.63,-271.71 307.86,-259.13 287,-244 259.73,-224.22 248,-212.69 248,-179 248,-179 248,-179 248,-121 248,-83.19 248,-38.06 248,-19.56"/>
<polygon fill="midnightblue" stroke="midnightblue" points="417.98,-283.15 428.4,-281.27 419.08,-276.23 417.98,-283.15"/>
</g>
<!-- Node20&#45;&gt;Node19 -->
<g id="edge35" class="edge">
<title>Node20&#45;&gt;Node19</title>
<path fill="none" stroke="midnightblue" d="M471.44,-271.68C463.4,-258.32 455.71,-239.56 463,-224 470.66,-207.64 487.51,-195.16 500.37,-187.54"/>
<polygon fill="midnightblue" stroke="midnightblue" points="468.72,-273.91 477.15,-280.33 474.56,-270.05 468.72,-273.91"/>
</g>
<!-- Node21 -->
<g id="node21" class="node">
<title>Node21</title>
<g id="a_node21"><a xlink:href="road__curve_8cc.html" target="_top" xlink:title=" ">
<polygon fill="white" stroke="black" points="472,-224.5 472,-243.5 556,-243.5 556,-224.5 472,-224.5"/>
<text text-anchor="middle" x="514" y="-231.5" font-family="Helvetica,sans-Serif" font-size="10.00">road_curve.cc</text>
</a>
</g>
</g>
<!-- Node20&#45;&gt;Node21 -->
<g id="edge37" class="edge">
<title>Node20&#45;&gt;Node21</title>
<path fill="none" stroke="midnightblue" d="M493.85,-271.27C498.97,-262.05 505.02,-251.17 509.14,-243.75"/>
<polygon fill="midnightblue" stroke="midnightblue" points="490.75,-269.64 488.95,-280.08 496.87,-273.04 490.75,-269.64"/>
</g>
<!-- Node22&#45;&gt;Node6 -->
<g id="edge39" class="edge">
<title>Node22&#45;&gt;Node6</title>
<path fill="none" stroke="midnightblue" d="M298.64,-332.18C262.8,-315.59 210,-283.01 210,-235 210,-235 210,-235 210,-121 210,-81.4 232.27,-37.96 242.72,-19.77"/>
<polygon fill="midnightblue" stroke="midnightblue" points="297.68,-335.58 308.24,-336.43 300.52,-329.18 297.68,-335.58"/>
</g>
<!-- Node23 -->
<g id="node23" class="node">
<title>Node23</title>
<g id="a_node23"><a xlink:href="road__curve_2lane__offset_8cc.html" target="_top" xlink:title=" ">
<polygon fill="white" stroke="black" points="286.5,-280.5 286.5,-299.5 371.5,-299.5 371.5,-280.5 286.5,-280.5"/>
<text text-anchor="middle" x="329" y="-287.5" font-family="Helvetica,sans-Serif" font-size="10.00">lane_offset.cc</text>
</a>
</g>
</g>
<!-- Node22&#45;&gt;Node23 -->
<g id="edge40" class="edge">
<title>Node22&#45;&gt;Node23</title>
<path fill="none" stroke="midnightblue" d="M330.29,-325.8C329.96,-316.91 329.58,-306.78 329.32,-299.75"/>
<polygon fill="midnightblue" stroke="midnightblue" points="326.8,-326.22 330.67,-336.08 333.8,-325.96 326.8,-326.22"/>
</g>
<!-- Node22&#45;&gt;Node24 -->
<g id="edge41" class="edge">
<title>Node22&#45;&gt;Node24</title>
<path fill="none" stroke="midnightblue" d="M381.22,-336.83C447.3,-326.08 562.15,-307.4 622.81,-297.54"/>
<polygon fill="midnightblue" stroke="midnightblue" points="380.36,-333.43 371.05,-338.49 381.48,-340.34 380.36,-333.43"/>
</g>
<!-- Node24&#45;&gt;Node2 -->
<g id="edge42" class="edge">
<title>Node24&#45;&gt;Node2</title>
<path fill="none" stroke="midnightblue" d="M713.11,-282.62C762.15,-275.67 838.65,-262.95 903,-244 925.56,-237.35 930.07,-232.52 952,-224 985.88,-210.84 1025.4,-196.44 1050.06,-187.56"/>
<polygon fill="midnightblue" stroke="midnightblue" points="712.5,-279.17 703.08,-284.01 713.46,-286.1 712.5,-279.17"/>
</g>
<!-- Node24&#45;&gt;Node4 -->
<g id="edge48" class="edge">
<title>Node24&#45;&gt;Node4</title>
<path fill="none" stroke="midnightblue" d="M678.89,-273.09C686.37,-264.93 694.97,-254.51 701,-244 723.43,-204.95 737.24,-152.19 742.06,-131.67"/>
<polygon fill="midnightblue" stroke="midnightblue" points="676.27,-270.77 671.91,-280.42 681.34,-275.6 676.27,-270.77"/>
</g>
<!-- Node24&#45;&gt;Node18 -->
<g id="edge49" class="edge">
<title>Node24&#45;&gt;Node18</title>
<path fill="none" stroke="midnightblue" d="M653.15,-271.27C648.03,-262.05 641.98,-251.17 637.86,-243.75"/>
<polygon fill="midnightblue" stroke="midnightblue" points="650.13,-273.04 658.05,-280.08 656.25,-269.64 650.13,-273.04"/>
</g>
<!-- Node24&#45;&gt;Node21 -->
<g id="edge50" class="edge">
<title>Node24&#45;&gt;Node21</title>
<path fill="none" stroke="midnightblue" d="M629.63,-276.91C601.62,-266.75 562.3,-252.51 537.5,-243.52"/>
<polygon fill="midnightblue" stroke="midnightblue" points="628.8,-280.33 639.39,-280.44 631.18,-273.75 628.8,-280.33"/>
</g>
<!-- Node25 -->
<g id="node25" class="node">
<title>Node25</title>
<g id="a_node25"><a xlink:href="road__geometry_8h.html" target="_top" xlink:title=" ">
<polygon fill="white" stroke="black" points="922,-168.5 922,-187.5 1020,-187.5 1020,-168.5 922,-168.5"/>
<text text-anchor="middle" x="971" y="-175.5" font-family="Helvetica,sans-Serif" font-size="10.00">road_geometry.h</text>
</a>
</g>
</g>
<!-- Node24&#45;&gt;Node25 -->
<g id="edge43" class="edge">
<title>Node24&#45;&gt;Node25</title>
<path fill="none" stroke="midnightblue" d="M712.97,-283.37C756.08,-277.31 819.38,-265.51 871,-244 906.55,-229.19 943.23,-201.59 960.63,-187.6"/>
<polygon fill="midnightblue" stroke="midnightblue" points="712.44,-279.91 703,-284.72 713.38,-286.85 712.44,-279.91"/>
</g>
<!-- Node27 -->
<g id="node27" class="node">
<title>Node27</title>
<g id="a_node27"><a xlink:href="road__curve__offset_8h.html" target="_top" xlink:title=" ">
<polygon fill="white" stroke="black" points="748.5,-224.5 748.5,-243.5 861.5,-243.5 861.5,-224.5 748.5,-224.5"/>
<text text-anchor="middle" x="805" y="-231.5" font-family="Helvetica,sans-Serif" font-size="10.00">road_curve_offset.h</text>
</a>
</g>
</g>
<!-- Node24&#45;&gt;Node27 -->
<g id="edge51" class="edge">
<title>Node24&#45;&gt;Node27</title>
<path fill="none" stroke="midnightblue" d="M695.16,-276.77C721.83,-266.63 759.07,-252.47 782.6,-243.52"/>
<polygon fill="midnightblue" stroke="midnightblue" points="693.6,-273.62 685.5,-280.44 696.09,-280.16 693.6,-273.62"/>
</g>
<!-- Node25&#45;&gt;Node3 -->
<g id="edge44" class="edge">
<title>Node25&#45;&gt;Node3</title>
<path fill="none" stroke="midnightblue" d="M986.03,-160.43C994.62,-150.97 1005.04,-139.48 1012.06,-131.75"/>
<polygon fill="midnightblue" stroke="midnightblue" points="983.22,-158.33 979.09,-168.08 988.4,-163.03 983.22,-158.33"/>
</g>
<!-- Node25&#45;&gt;Node5 -->
<g id="edge47" class="edge">
<title>Node25&#45;&gt;Node5</title>
<path fill="none" stroke="midnightblue" d="M958.26,-160.46C946.63,-146.2 928.34,-125.8 909,-112 886.29,-95.8 856.82,-83.21 836.15,-75.52"/>
<polygon fill="midnightblue" stroke="midnightblue" points="955.63,-162.77 964.59,-168.42 961.11,-158.42 955.63,-162.77"/>
</g>
<!-- Node25&#45;&gt;Node9 -->
<g id="edge46" class="edge">
<title>Node25&#45;&gt;Node9</title>
<path fill="none" stroke="midnightblue" d="M966.59,-158.35C960.9,-134.25 951.22,-93.31 947.03,-75.59"/>
<polygon fill="midnightblue" stroke="midnightblue" points="963.25,-159.44 968.96,-168.37 970.07,-157.83 963.25,-159.44"/>
</g>
<!-- Node26 -->
<g id="node26" class="node">
<title>Node26</title>
<g id="a_node26"><a xlink:href="road__geometry_8cc.html" target="_top" xlink:title=" ">
<polygon fill="white" stroke="black" points="796.5,-112.5 796.5,-131.5 899.5,-131.5 899.5,-112.5 796.5,-112.5"/>
<text text-anchor="middle" x="848" y="-119.5" font-family="Helvetica,sans-Serif" font-size="10.00">road_geometry.cc</text>
</a>
</g>
</g>
<!-- Node25&#45;&gt;Node26 -->
<g id="edge45" class="edge">
<title>Node25&#45;&gt;Node26</title>
<path fill="none" stroke="midnightblue" d="M942.23,-164.37C919.19,-154.26 887.52,-140.35 867.4,-131.52"/>
<polygon fill="midnightblue" stroke="midnightblue" points="940.95,-167.63 951.51,-168.44 943.76,-161.22 940.95,-167.63"/>
</g>
<!-- Node27&#45;&gt;Node2 -->
<g id="edge52" class="edge">
<title>Node27&#45;&gt;Node2</title>
<path fill="none" stroke="midnightblue" d="M857.76,-222.41C916.11,-210.7 1007.52,-192.34 1050.36,-183.75"/>
<polygon fill="midnightblue" stroke="midnightblue" points="856.74,-219.04 847.62,-224.44 858.12,-225.91 856.74,-219.04"/>
</g>
<!-- Node27&#45;&gt;Node4 -->
<g id="edge53" class="edge">
<title>Node27&#45;&gt;Node4</title>
<path fill="none" stroke="midnightblue" d="M793.77,-215.74C788.51,-207.45 782.25,-197.32 777,-188 765.82,-168.15 754.04,-144.08 748.04,-131.54"/>
<polygon fill="midnightblue" stroke="midnightblue" points="790.84,-217.65 799.19,-224.17 796.73,-213.87 790.84,-217.65"/>
</g>
<!-- Node28 -->
<g id="node28" class="node">
<title>Node28</title>
<g id="a_node28"><a xlink:href="road__curve__offset_8cc.html" target="_top" xlink:title=" ">
<polygon fill="white" stroke="black" points="786,-168.5 786,-187.5 904,-187.5 904,-168.5 786,-168.5"/>
<text text-anchor="middle" x="845" y="-175.5" font-family="Helvetica,sans-Serif" font-size="10.00">road_curve_offset.cc</text>
</a>
</g>
</g>
<!-- Node27&#45;&gt;Node28 -->
<g id="edge54" class="edge">
<title>Node27&#45;&gt;Node28</title>
<path fill="none" stroke="midnightblue" d="M817.7,-215.86C824.63,-206.5 832.91,-195.33 838.52,-187.75"/>
<polygon fill="midnightblue" stroke="midnightblue" points="814.75,-213.96 811.61,-224.08 820.37,-218.13 814.75,-213.96"/>
</g>
<!-- Node29&#45;&gt;Node6 -->
<g id="edge57" class="edge">
<title>Node29&#45;&gt;Node6</title>
<path fill="none" stroke="midnightblue" d="M334.36,-218.18C324.21,-210.26 312.68,-199.73 305,-188 302.56,-184.27 261.85,-55.07 250.77,-19.81"/>
<polygon fill="midnightblue" stroke="midnightblue" points="332.34,-221.04 342.46,-224.19 336.51,-215.42 332.34,-221.04"/>
</g>
<!-- Node29&#45;&gt;Node19 -->
<g id="edge56" class="edge">
<title>Node29&#45;&gt;Node19</title>
<path fill="none" stroke="midnightblue" d="M391.26,-221.17C421.58,-211 464.57,-196.59 491.61,-187.52"/>
<polygon fill="midnightblue" stroke="midnightblue" points="389.88,-217.95 381.51,-224.44 392.1,-224.58 389.88,-217.95"/>
</g>
<!-- Node30 -->
<g id="node30" class="node">
<title>Node30</title>
<g id="a_node30"><a xlink:href="piecewise__function_8cc.html" target="_top" xlink:title=" ">
<polygon fill="white" stroke="black" points="314,-168.5 314,-187.5 438,-187.5 438,-168.5 314,-168.5"/>
<text text-anchor="middle" x="376" y="-175.5" font-family="Helvetica,sans-Serif" font-size="10.00">piecewise_function.cc</text>
</a>
</g>
</g>
<!-- Node29&#45;&gt;Node30 -->
<g id="edge58" class="edge">
<title>Node29&#45;&gt;Node30</title>
<path fill="none" stroke="midnightblue" d="M362.78,-214.69C366.15,-205.59 370.07,-195.01 372.76,-187.75"/>
<polygon fill="midnightblue" stroke="midnightblue" points="359.49,-213.49 359.3,-224.08 366.06,-215.92 359.49,-213.49"/>
</g>
<!-- Node31&#45;&gt;Node6 -->
<g id="edge61" class="edge">
<title>Node31&#45;&gt;Node6</title>
<path fill="none" stroke="midnightblue" d="M80.26,-327.25C89.44,-305.86 103,-268.59 103,-235 103,-235 103,-235 103,-121 103,-64.44 173.89,-33.2 216.54,-19.52"/>
<polygon fill="midnightblue" stroke="midnightblue" points="77.06,-325.83 76.18,-336.39 83.45,-328.69 77.06,-325.83"/>
</g>
</g>
</svg>
        <g id="navigator" transform="translate(0 0)" fill="#404254">
                <rect fill="#f2f5e9" fill-opacity="0.5" stroke="#606060" stroke-width=".5" x="0" y="0" width="60" height="60"/>
                <use id="zoomplus" xlink:href="#zoomPlus" x="17" y="9" onmousedown="handleZoom(evt,'in')"/>
                <use id="zoomminus" xlink:href="#zoomMin" x="42" y="9" onmousedown="handleZoom(evt,'out')"/>
                <use id="reset" xlink:href="#resetDef" x="30" y="36" onmousedown="handleReset()"/>
                <g id="arrowUp" xlink:href="#dirArrow" transform="translate(30 24)" onmousedown="handlePan(0,-1)">
                  <use xlink:href="#rim" fill="#404040">
                        <set attributeName="fill" to="#808080" begin="arrowUp.mouseover" end="arrowUp.mouseout"/>
                  </use>
                  <path fill="none" stroke="white" stroke-width="1.5" d="M0,-3.0v7 M-2.5,-0.5L0,-3.0L2.5,-0.5"/>
                </g>
                <g id="arrowRight" xlink:href="#dirArrow" transform="rotate(90) translate(36 -43)" onmousedown="handlePan(1,0)">
                  <use xlink:href="#rim" fill="#404040">
                        <set attributeName="fill" to="#808080" begin="arrowRight.mouseover" end="arrowRight.mouseout"/>
                  </use>
                  <path fill="none" stroke="white" stroke-width="1.5" d="M0,-3.0v7 M-2.5,-0.5L0,-3.0L2.5,-0.5"/>
                </g>
                <g id="arrowDown" xlink:href="#dirArrow" transform="rotate(180) translate(-30 -48)" onmousedown="handlePan(0,1)">
                  <use xlink:href="#rim" fill="#404040">
                        <set attributeName="fill" to="#808080" begin="arrowDown.mouseover" end="arrowDown.mouseout"/>
                  </use>
                  <path fill="none" stroke="white" stroke-width="1.5" d="M0,-3.0v7 M-2.5,-0.5L0,-3.0L2.5,-0.5"/>
                </g>
                <g id="arrowLeft" xlink:href="#dirArrow" transform="rotate(270) translate(-36 17)" onmousedown="handlePan(-1,0)">
                  <use xlink:href="#rim" fill="#404040">
                        <set attributeName="fill" to="#808080" begin="arrowLeft.mouseover" end="arrowLeft.mouseout"/>
                  </use>
                  <path fill="none" stroke="white" stroke-width="1.5" d="M0,-3.0v7 M-2.5,-0.5L0,-3.0L2.5,-0.5"/>
                </g>
        </g>
        <svg viewBox="0 0 15 15" width="100%" height="30px" preserveAspectRatio="xMaxYMin meet">
         <g id="arrow_out" transform="scale(0.3 0.3)">
          <a xlink:href="function_8h__dep__incl_org.svg" target="_base">
           <rect id="button" ry="5" rx="5" y="6" x="6" height="38" width="38"
                fill="#f2f5e9" fill-opacity="0.5" stroke="#606060" stroke-width="1.0"/>
           <path id="arrow"
             d="M 11.500037,31.436501 C 11.940474,20.09759 22.043105,11.32322 32.158766,21.979434 L 37.068811,17.246167 C 37.068811,17.246167 37.088388,32 37.088388,32 L 22.160133,31.978069 C 22.160133,31.978069 26.997745,27.140456 26.997745,27.140456 C 18.528582,18.264221 13.291696,25.230495 11.500037,31.436501 z"
             style="fill:#404040;"/>
          </a>
         </g>
        </svg>
</svg>
