<?xml version="1.0" encoding="UTF-8" standalone="no"?>
<!DOCTYPE svg PUBLIC "-//W3C//DTD SVG 1.1//EN"
 "http://www.w3.org/Graphics/SVG/1.1/DTD/svg11.dtd">
<!-- Generated by graphviz version 2.43.0 (0)
 -->
<!-- Title: geometry.h Pages: 1 -->
<!--zoomable 162 -->
<svg id="main" version="1.1" xmlns="http://www.w3.org/2000/svg" xmlns:xlink="http://www.w3.org/1999/xlink" xml:space="preserve" onload="init(evt)">
<style type="text/css"><![CDATA[
.edge:hover path { stroke: red; }
.edge:hover polygon { stroke: red; fill: red; }
]]></style>
<script type="text/javascript"><![CDATA[
var edges = document.getElementsByTagName('g');
if (edges && edges.length) {
  for (var i=0;i<edges.length;i++) {
    if (edges[i].id.substr(0,4)=='edge') {
      edges[i].setAttribute('class','edge');
    }
  }
}
]]></script>
        <defs>
                <circle id="rim" cx="0" cy="0" r="7"/>
                <circle id="rim2" cx="0" cy="0" r="3.5"/>
                <g id="zoomPlus">
                        <use xlink:href="#rim" fill="#404040">
                                <set attributeName="fill" to="#808080" begin="zoomplus.mouseover" end="zoomplus.mouseout"/>
                        </use>
                        <path d="M-4,0h8M0,-4v8" fill="none" stroke="white" stroke-width="1.5" pointer-events="none"/>
                </g>
                <g id="zoomMin">
                        <use xlink:href="#rim" fill="#404040">
                                <set attributeName="fill" to="#808080" begin="zoomminus.mouseover" end="zoomminus.mouseout"/>
                        </use>
                        <path d="M-4,0h8" fill="none" stroke="white" stroke-width="1.5" pointer-events="none"/>
                </g>
                <g id="dirArrow">
                        <path fill="none" stroke="white" stroke-width="1.5" d="M0,-3.0v7 M-2.5,-0.5L0,-3.0L2.5,-0.5"/>
                </g>
               <g id="resetDef">
                       <use xlink:href="#rim2" fill="#404040">
                               <set attributeName="fill" to="#808080" begin="reset.mouseover" end="reset.mouseout"/>
                       </use>
               </g>
        </defs>

<script type="text/javascript">
var viewWidth = 972;
var viewHeight = 162;
var sectionId = 'dynsection-0';
</script>
<script xlink:href="svgpan.js"/>
<svg id="graph" class="graph">
<g id="viewport">
<title>geometry.h</title>
<polygon fill="white" stroke="transparent" points="-4,4 -4,-158 968,-158 968,4 -4,4"/>
<!-- Node1 -->
<g id="node1" class="node">
<title>Node1</title>
<g id="a_node1"><a xlink:title=" ">
<polygon fill="#bfbfbf" stroke="black" points="131.5,-134.5 131.5,-153.5 202.5,-153.5 202.5,-134.5 131.5,-134.5"/>
<text text-anchor="middle" x="167" y="-141.5" font-family="Helvetica,sans-Serif" font-size="10.00">geometry.h</text>
</a>
</g>
</g>
<!-- Node2 -->
<g id="node2" class="node">
<title>Node2</title>
<g id="a_node2"><a xlink:title=" ">
<polygon fill="white" stroke="#bfbfbf" points="0,-73 0,-92 38,-92 38,-73 0,-73"/>
<text text-anchor="middle" x="19" y="-80" font-family="Helvetica,sans-Serif" font-size="10.00">map</text>
</a>
</g>
</g>
<!-- Node1&#45;&gt;Node2 -->
<g id="edge1" class="edge">
<title>Node1&#45;&gt;Node2</title>
<path fill="none" stroke="midnightblue" d="M141.36,-134.38C116.82,-125.9 78.92,-112.19 47,-98 46,-97.56 44.98,-97.09 43.96,-96.61"/>
<polygon fill="midnightblue" stroke="midnightblue" points="45.35,-93.4 34.83,-92.11 42.25,-99.67 45.35,-93.4"/>
</g>
<!-- Node3 -->
<g id="node3" class="node">
<title>Node3</title>
<g id="a_node3"><a xlink:title=" ">
<polygon fill="white" stroke="#bfbfbf" points="56,-73 56,-92 112,-92 112,-73 56,-73"/>
<text text-anchor="middle" x="84" y="-80" font-family="Helvetica,sans-Serif" font-size="10.00">optional</text>
</a>
</g>
</g>
<!-- Node1&#45;&gt;Node3 -->
<g id="edge2" class="edge">
<title>Node1&#45;&gt;Node3</title>
<path fill="none" stroke="midnightblue" d="M155.11,-134.48C141.8,-124.93 120,-109.31 104.04,-97.87"/>
<polygon fill="midnightblue" stroke="midnightblue" points="106.04,-94.99 95.87,-92.01 101.96,-100.68 106.04,-94.99"/>
</g>
<!-- Node4 -->
<g id="node4" class="node">
<title>Node4</title>
<g id="a_node4"><a xlink:title=" ">
<polygon fill="white" stroke="#bfbfbf" points="118,-6 118,-25 162,-25 162,-6 118,-6"/>
<text text-anchor="middle" x="140" y="-13" font-family="Helvetica,sans-Serif" font-size="10.00">string</text>
</a>
</g>
</g>
<!-- Node1&#45;&gt;Node4 -->
<g id="edge3" class="edge">
<title>Node1&#45;&gt;Node4</title>
<path fill="none" stroke="midnightblue" d="M165.14,-134.31C160.81,-113.99 149.94,-63.05 144.01,-35.28"/>
<polygon fill="midnightblue" stroke="midnightblue" points="147.38,-34.3 141.87,-25.26 140.53,-35.77 147.38,-34.3"/>
</g>
<!-- Node5 -->
<g id="node5" class="node">
<title>Node5</title>
<g id="a_node5"><a xlink:title=" ">
<polygon fill="white" stroke="#bfbfbf" points="168.5,-73 168.5,-92 219.5,-92 219.5,-73 168.5,-73"/>
<text text-anchor="middle" x="194" y="-80" font-family="Helvetica,sans-Serif" font-size="10.00">variant</text>
</a>
</g>
</g>
<!-- Node1&#45;&gt;Node5 -->
<g id="edge4" class="edge">
<title>Node1&#45;&gt;Node5</title>
<path fill="none" stroke="midnightblue" d="M170.87,-134.48C174.8,-125.82 181,-112.15 185.99,-101.15"/>
<polygon fill="midnightblue" stroke="midnightblue" points="189.19,-102.56 190.14,-92.01 182.82,-99.67 189.19,-102.56"/>
</g>
<!-- Node6 -->
<g id="node6" class="node">
<title>Node6</title>
<g id="a_node6"><a xlink:href="../../maliput/html/vector_8h.html.html" xlink:title=" ">
<polygon fill="white" stroke="black" points="237.5,-73 237.5,-92 362.5,-92 362.5,-73 237.5,-73"/>
<text text-anchor="middle" x="300" y="-80" font-family="Helvetica,sans-Serif" font-size="10.00">maliput/math/vector.h</text>
</a>
</g>
</g>
<!-- Node1&#45;&gt;Node6 -->
<g id="edge5" class="edge">
<title>Node1&#45;&gt;Node6</title>
<path fill="none" stroke="midnightblue" d="M186.06,-134.48C208.47,-124.45 245.91,-107.7 271.71,-96.15"/>
<polygon fill="midnightblue" stroke="midnightblue" points="273.28,-99.29 280.98,-92.01 270.42,-92.9 273.28,-99.29"/>
</g>
<!-- Node7 -->
<g id="node7" class="node">
<title>Node7</title>
<g id="a_node7"><a xlink:href="macros_8h.html" target="_top" xlink:title=" ">
<polygon fill="white" stroke="black" points="381,-67.5 381,-97.5 533,-97.5 533,-67.5 381,-67.5"/>
<text text-anchor="start" x="389" y="-85.5" font-family="Helvetica,sans-Serif" font-size="10.00">maliput_malidrive/common</text>
<text text-anchor="middle" x="457" y="-74.5" font-family="Helvetica,sans-Serif" font-size="10.00">/macros.h</text>
</a>
</g>
</g>
<!-- Node1&#45;&gt;Node7 -->
<g id="edge6" class="edge">
<title>Node1&#45;&gt;Node7</title>
<path fill="none" stroke="midnightblue" d="M202.56,-135.7C246.08,-126.78 321.04,-111.4 378.36,-99.64"/>
<polygon fill="midnightblue" stroke="midnightblue" points="379.39,-103 388.48,-97.56 377.98,-96.14 379.39,-103"/>
</g>
<!-- Node7&#45;&gt;Node4 -->
<g id="edge7" class="edge">
<title>Node7&#45;&gt;Node4</title>
<path fill="none" stroke="midnightblue" d="M380.97,-68.58C299.69,-54.7 181.04,-34.17 171,-31 169.13,-30.41 167.23,-29.73 165.33,-28.99"/>
<polygon fill="midnightblue" stroke="midnightblue" points="166.66,-25.75 156.09,-25 163.88,-32.18 166.66,-25.75"/>
</g>
<!-- Node8 -->
<g id="node8" class="node">
<title>Node8</title>
<g id="a_node8"><a xlink:href="../../maliput/html/assertion__error_8h.html.html" xlink:title=" ">
<polygon fill="white" stroke="black" points="180,-0.5 180,-30.5 328,-30.5 328,-0.5 180,-0.5"/>
<text text-anchor="start" x="188" y="-18.5" font-family="Helvetica,sans-Serif" font-size="10.00">maliput/common/assertion</text>
<text text-anchor="middle" x="254" y="-7.5" font-family="Helvetica,sans-Serif" font-size="10.00">_error.h</text>
</a>
</g>
</g>
<!-- Node7&#45;&gt;Node8 -->
<g id="edge8" class="edge">
<title>Node7&#45;&gt;Node8</title>
<path fill="none" stroke="midnightblue" d="M412.95,-67.4C382.09,-57.52 340.67,-44.25 307.85,-33.74"/>
<polygon fill="midnightblue" stroke="midnightblue" points="308.55,-30.29 297.96,-30.58 306.42,-36.96 308.55,-30.29"/>
</g>
<!-- Node9 -->
<g id="node9" class="node">
<title>Node9</title>
<g id="a_node9"><a xlink:href="../../maliput/html/logger_8h.html.html" xlink:title=" ">
<polygon fill="white" stroke="black" points="346.5,-6 346.5,-25 489.5,-25 489.5,-6 346.5,-6"/>
<text text-anchor="middle" x="418" y="-13" font-family="Helvetica,sans-Serif" font-size="10.00">maliput/common/logger.h</text>
</a>
</g>
</g>
<!-- Node7&#45;&gt;Node9 -->
<g id="edge9" class="edge">
<title>Node7&#45;&gt;Node9</title>
<path fill="none" stroke="midnightblue" d="M448.54,-67.4C442.64,-57.56 434.73,-44.38 428.44,-33.89"/>
<polygon fill="midnightblue" stroke="midnightblue" points="431.36,-31.97 423.22,-25.19 425.36,-35.57 431.36,-31.97"/>
</g>
<!-- Node10 -->
<g id="node10" class="node">
<title>Node10</title>
<g id="a_node10"><a xlink:href="../../maliput/html/maliput__abort_8h.html.html" xlink:title=" ">
<polygon fill="white" stroke="black" points="508,-0.5 508,-30.5 648,-30.5 648,-0.5 508,-0.5"/>
<text text-anchor="start" x="516" y="-18.5" font-family="Helvetica,sans-Serif" font-size="10.00">maliput/common/maliput</text>
<text text-anchor="middle" x="578" y="-7.5" font-family="Helvetica,sans-Serif" font-size="10.00">_abort.h</text>
</a>
</g>
</g>
<!-- Node7&#45;&gt;Node10 -->
<g id="edge10" class="edge">
<title>Node7&#45;&gt;Node10</title>
<path fill="none" stroke="midnightblue" d="M483.26,-67.4C500.7,-58.03 523.8,-45.62 542.83,-35.39"/>
<polygon fill="midnightblue" stroke="midnightblue" points="544.64,-38.39 551.8,-30.58 541.33,-32.23 544.64,-38.39"/>
</g>
<!-- Node11 -->
<g id="node11" class="node">
<title>Node11</title>
<g id="a_node11"><a xlink:href="../../maliput/html/maliput__copyable_8h.html.html" xlink:title=" ">
<polygon fill="white" stroke="black" points="666,-0.5 666,-30.5 806,-30.5 806,-0.5 666,-0.5"/>
<text text-anchor="start" x="674" y="-18.5" font-family="Helvetica,sans-Serif" font-size="10.00">maliput/common/maliput</text>
<text text-anchor="middle" x="736" y="-7.5" font-family="Helvetica,sans-Serif" font-size="10.00">_copyable.h</text>
</a>
</g>
</g>
<!-- Node7&#45;&gt;Node11 -->
<g id="edge11" class="edge">
<title>Node7&#45;&gt;Node11</title>
<path fill="none" stroke="midnightblue" d="M517.2,-67.48C560.77,-57.32 619.81,-43.57 665.58,-32.91"/>
<polygon fill="midnightblue" stroke="midnightblue" points="666.49,-36.29 675.43,-30.61 664.9,-29.47 666.49,-36.29"/>
</g>
<!-- Node12 -->
<g id="node12" class="node">
<title>Node12</title>
<g id="a_node12"><a xlink:href="../../maliput/html/maliput__throw_8h.html.html" xlink:title=" ">
<polygon fill="white" stroke="black" points="824,-0.5 824,-30.5 964,-30.5 964,-0.5 824,-0.5"/>
<text text-anchor="start" x="832" y="-18.5" font-family="Helvetica,sans-Serif" font-size="10.00">maliput/common/maliput</text>
<text text-anchor="middle" x="894" y="-7.5" font-family="Helvetica,sans-Serif" font-size="10.00">_throw.h</text>
</a>
</g>
</g>
<!-- Node7&#45;&gt;Node12 -->
<g id="edge12" class="edge">
<title>Node7&#45;&gt;Node12</title>
<path fill="none" stroke="midnightblue" d="M533.26,-71.67C603.56,-62.4 711.06,-47.69 813.88,-31.14"/>
<polygon fill="midnightblue" stroke="midnightblue" points="814.5,-34.59 823.81,-29.54 813.38,-27.68 814.5,-34.59"/>
</g>
</g>
</svg>
        <g id="navigator" transform="translate(0 0)" fill="#404254">
                <rect fill="#f2f5e9" fill-opacity="0.5" stroke="#606060" stroke-width=".5" x="0" y="0" width="60" height="60"/>
                <use id="zoomplus" xlink:href="#zoomPlus" x="17" y="9" onmousedown="handleZoom(evt,'in')"/>
                <use id="zoomminus" xlink:href="#zoomMin" x="42" y="9" onmousedown="handleZoom(evt,'out')"/>
                <use id="reset" xlink:href="#resetDef" x="30" y="36" onmousedown="handleReset()"/>
                <g id="arrowUp" xlink:href="#dirArrow" transform="translate(30 24)" onmousedown="handlePan(0,-1)">
                  <use xlink:href="#rim" fill="#404040">
                        <set attributeName="fill" to="#808080" begin="arrowUp.mouseover" end="arrowUp.mouseout"/>
                  </use>
                  <path fill="none" stroke="white" stroke-width="1.5" d="M0,-3.0v7 M-2.5,-0.5L0,-3.0L2.5,-0.5"/>
                </g>
                <g id="arrowRight" xlink:href="#dirArrow" transform="rotate(90) translate(36 -43)" onmousedown="handlePan(1,0)">
                  <use xlink:href="#rim" fill="#404040">
                        <set attributeName="fill" to="#808080" begin="arrowRight.mouseover" end="arrowRight.mouseout"/>
                  </use>
                  <path fill="none" stroke="white" stroke-width="1.5" d="M0,-3.0v7 M-2.5,-0.5L0,-3.0L2.5,-0.5"/>
                </g>
                <g id="arrowDown" xlink:href="#dirArrow" transform="rotate(180) translate(-30 -48)" onmousedown="handlePan(0,1)">
                  <use xlink:href="#rim" fill="#404040">
                        <set attributeName="fill" to="#808080" begin="arrowDown.mouseover" end="arrowDown.mouseout"/>
                  </use>
                  <path fill="none" stroke="white" stroke-width="1.5" d="M0,-3.0v7 M-2.5,-0.5L0,-3.0L2.5,-0.5"/>
                </g>
                <g id="arrowLeft" xlink:href="#dirArrow" transform="rotate(270) translate(-36 17)" onmousedown="handlePan(-1,0)">
                  <use xlink:href="#rim" fill="#404040">
                        <set attributeName="fill" to="#808080" begin="arrowLeft.mouseover" end="arrowLeft.mouseout"/>
                  </use>
                  <path fill="none" stroke="white" stroke-width="1.5" d="M0,-3.0v7 M-2.5,-0.5L0,-3.0L2.5,-0.5"/>
                </g>
        </g>
        <svg viewBox="0 0 15 15" width="100%" height="30px" preserveAspectRatio="xMaxYMin meet">
         <g id="arrow_out" transform="scale(0.3 0.3)">
          <a xlink:href="geometry_8h__incl_org.svg" target="_base">
           <rect id="button" ry="5" rx="5" y="6" x="6" height="38" width="38"
                fill="#f2f5e9" fill-opacity="0.5" stroke="#606060" stroke-width="1.0"/>
           <path id="arrow"
             d="M 11.500037,31.436501 C 11.940474,20.09759 22.043105,11.32322 32.158766,21.979434 L 37.068811,17.246167 C 37.068811,17.246167 37.088388,32 37.088388,32 L 22.160133,31.978069 C 22.160133,31.978069 26.997745,27.140456 26.997745,27.140456 C 18.528582,18.264221 13.291696,25.230495 11.500037,31.436501 z"
             style="fill:#404040;"/>
          </a>
         </g>
        </svg>
</svg>
