<?xml version="1.0" encoding="UTF-8" standalone="no"?>
<!DOCTYPE svg PUBLIC "-//W3C//DTD SVG 1.1//EN"
 "http://www.w3.org/Graphics/SVG/1.1/DTD/svg11.dtd">
<!-- Generated by graphviz version 2.43.0 (0)
 -->
<!-- Title: geometry.h Pages: 1 -->
<svg width="1692pt" height="420pt"
 viewBox="0.00 0.00 1691.76 420.00" xmlns="http://www.w3.org/2000/svg" xmlns:xlink="http://www.w3.org/1999/xlink">
<g id="graph0" class="graph" transform="scale(1 1) rotate(0) translate(4 416)">
<title>geometry.h</title>
<polygon fill="white" stroke="transparent" points="-4,4 -4,-416 1687.76,-416 1687.76,4 -4,4"/>
<!-- Node1 -->
<g id="node1" class="node">
<title>Node1</title>
<g id="a_node1"><a xlink:title=" ">
<polygon fill="#bfbfbf" stroke="black" points="950.26,-392.5 950.26,-411.5 1021.26,-411.5 1021.26,-392.5 950.26,-392.5"/>
<text text-anchor="middle" x="985.76" y="-399.5" font-family="Helvetica,sans-Serif" font-size="10.00">geometry.h</text>
</a>
</g>
</g>
<!-- Node2 -->
<g id="node2" class="node">
<title>Node2</title>
<g id="a_node2"><a xlink:href="road__curve__factory_8h.html" target="_top" xlink:title=" ">
<polygon fill="white" stroke="black" points="67.76,-112.5 67.76,-131.5 185.76,-131.5 185.76,-112.5 67.76,-112.5"/>
<text text-anchor="middle" x="126.76" y="-119.5" font-family="Helvetica,sans-Serif" font-size="10.00">road_curve_factory.h</text>
</a>
</g>
</g>
<!-- Node1&#45;&gt;Node2 -->
<g id="edge1" class="edge">
<title>Node1&#45;&gt;Node2</title>
<path fill="none" stroke="midnightblue" d="M940.04,-399.52C771.09,-393.45 191.76,-367.08 191.76,-291 191.76,-291 191.76,-291 191.76,-233 191.76,-189.97 154.43,-148.98 136.35,-131.66"/>
<polygon fill="midnightblue" stroke="midnightblue" points="939.99,-403.02 950.1,-399.87 940.23,-396.02 939.99,-403.02"/>
</g>
<!-- Node7 -->
<g id="node7" class="node">
<title>Node7</title>
<g id="a_node7"><a xlink:href="simplify__geometries_8h.html" target="_top" xlink:title=" ">
<polygon fill="white" stroke="black" points="216.76,-112.5 216.76,-131.5 342.76,-131.5 342.76,-112.5 216.76,-112.5"/>
<text text-anchor="middle" x="279.76" y="-119.5" font-family="Helvetica,sans-Serif" font-size="10.00">simplify_geometries.h</text>
</a>
</g>
</g>
<!-- Node1&#45;&gt;Node7 -->
<g id="edge7" class="edge">
<title>Node1&#45;&gt;Node7</title>
<path fill="none" stroke="midnightblue" d="M939.8,-398.42C787.17,-389.25 306.76,-355.29 306.76,-291 306.76,-291 306.76,-291 306.76,-233 306.76,-194.26 290.77,-150 283.4,-131.66"/>
<polygon fill="midnightblue" stroke="midnightblue" points="940.02,-401.94 950.21,-399.04 940.44,-394.95 940.02,-401.94"/>
</g>
<!-- Node9 -->
<g id="node9" class="node">
<title>Node9</title>
<g id="a_node9"><a xlink:href="geometry_8cc.html" target="_top" xlink:title=" ">
<polygon fill="white" stroke="black" points="901.76,-336.5 901.76,-355.5 977.76,-355.5 977.76,-336.5 901.76,-336.5"/>
<text text-anchor="middle" x="939.76" y="-343.5" font-family="Helvetica,sans-Serif" font-size="10.00">geometry.cc</text>
</a>
</g>
</g>
<!-- Node1&#45;&gt;Node9 -->
<g id="edge10" class="edge">
<title>Node1&#45;&gt;Node9</title>
<path fill="none" stroke="midnightblue" d="M971.65,-384.43C963.59,-374.97 953.8,-363.48 947.22,-355.75"/>
<polygon fill="midnightblue" stroke="midnightblue" points="969.02,-386.74 978.17,-392.08 974.35,-382.2 969.02,-386.74"/>
</g>
<!-- Node10 -->
<g id="node10" class="node">
<title>Node10</title>
<g id="a_node10"><a xlink:href="parser_8cc.html" target="_top" xlink:title=" ">
<polygon fill="white" stroke="black" points="1148.26,-168.5 1148.26,-187.5 1209.26,-187.5 1209.26,-168.5 1148.26,-168.5"/>
<text text-anchor="middle" x="1178.76" y="-175.5" font-family="Helvetica,sans-Serif" font-size="10.00">parser.cc</text>
</a>
</g>
</g>
<!-- Node1&#45;&gt;Node10 -->
<g id="edge11" class="edge">
<title>Node1&#45;&gt;Node10</title>
<path fill="none" stroke="midnightblue" d="M1023.55,-388.78C1041.82,-381.45 1063.13,-370.67 1078.76,-356 1133.84,-304.32 1166.71,-215.36 1176.02,-187.56"/>
<polygon fill="midnightblue" stroke="midnightblue" points="1022.14,-385.57 1014.04,-392.39 1024.63,-392.11 1022.14,-385.57"/>
</g>
<!-- Node11 -->
<g id="node11" class="node">
<title>Node11</title>
<g id="a_node11"><a xlink:href="plan__view_8h.html" target="_top" xlink:title=" ">
<polygon fill="white" stroke="black" points="995.76,-336.5 995.76,-355.5 1069.76,-355.5 1069.76,-336.5 995.76,-336.5"/>
<text text-anchor="middle" x="1032.76" y="-343.5" font-family="Helvetica,sans-Serif" font-size="10.00">plan_view.h</text>
</a>
</g>
</g>
<!-- Node1&#45;&gt;Node11 -->
<g id="edge12" class="edge">
<title>Node1&#45;&gt;Node11</title>
<path fill="none" stroke="midnightblue" d="M1000.18,-384.43C1008.42,-374.97 1018.42,-363.48 1025.15,-355.75"/>
<polygon fill="midnightblue" stroke="midnightblue" points="997.45,-382.24 993.52,-392.08 1002.73,-386.84 997.45,-382.24"/>
</g>
<!-- Node31 -->
<g id="node31" class="node">
<title>Node31</title>
<g id="a_node31"><a xlink:href="tools_8h.html" target="_top" xlink:title=" ">
<polygon fill="white" stroke="black" points="1159.76,-336.5 1159.76,-355.5 1209.76,-355.5 1209.76,-336.5 1159.76,-336.5"/>
<text text-anchor="middle" x="1184.76" y="-343.5" font-family="Helvetica,sans-Serif" font-size="10.00">tools.h</text>
</a>
</g>
</g>
<!-- Node1&#45;&gt;Node31 -->
<g id="edge44" class="edge">
<title>Node1&#45;&gt;Node31</title>
<path fill="none" stroke="midnightblue" d="M1027.01,-389.81C1066.99,-378.96 1126.34,-362.85 1159.68,-353.81"/>
<polygon fill="midnightblue" stroke="midnightblue" points="1026.03,-386.45 1017.29,-392.44 1027.86,-393.2 1026.03,-386.45"/>
</g>
<!-- Node3 -->
<g id="node3" class="node">
<title>Node3</title>
<g id="a_node3"><a xlink:href="road__curve__factory_8cc.html" target="_top" xlink:title=" ">
<polygon fill="white" stroke="black" points="15.76,-56.5 15.76,-75.5 137.76,-75.5 137.76,-56.5 15.76,-56.5"/>
<text text-anchor="middle" x="76.76" y="-63.5" font-family="Helvetica,sans-Serif" font-size="10.00">road_curve_factory.cc</text>
</a>
</g>
</g>
<!-- Node2&#45;&gt;Node3 -->
<g id="edge2" class="edge">
<title>Node2&#45;&gt;Node3</title>
<path fill="none" stroke="midnightblue" d="M111.69,-104.72C102.87,-95.2 92.1,-83.56 84.87,-75.75"/>
<polygon fill="midnightblue" stroke="midnightblue" points="109.14,-107.12 118.51,-112.08 114.28,-102.37 109.14,-107.12"/>
</g>
<!-- Node4 -->
<g id="node4" class="node">
<title>Node4</title>
<g id="a_node4"><a xlink:href="road__geometry__builder_8cc.html" target="_top" xlink:title=" ">
<polygon fill="white" stroke="black" points="338.26,-0.5 338.26,-19.5 481.26,-19.5 481.26,-0.5 338.26,-0.5"/>
<text text-anchor="middle" x="409.76" y="-7.5" font-family="Helvetica,sans-Serif" font-size="10.00">road_geometry_builder.cc</text>
</a>
</g>
</g>
<!-- Node2&#45;&gt;Node4 -->
<g id="edge3" class="edge">
<title>Node2&#45;&gt;Node4</title>
<path fill="none" stroke="midnightblue" d="M68.72,-110.13C27.49,-99.92 -16.71,-82.24 6.76,-56 28.41,-31.8 228.18,-19.11 338.08,-13.91"/>
<polygon fill="midnightblue" stroke="midnightblue" points="68,-113.56 78.54,-112.44 69.61,-106.74 68,-113.56"/>
</g>
<!-- Node5 -->
<g id="node5" class="node">
<title>Node5</title>
<g id="a_node5"><a xlink:href="road__geometry__builder_8h.html" target="_top" xlink:title=" ">
<polygon fill="white" stroke="black" points="722.26,-56.5 722.26,-75.5 861.26,-75.5 861.26,-56.5 722.26,-56.5"/>
<text text-anchor="middle" x="791.76" y="-63.5" font-family="Helvetica,sans-Serif" font-size="10.00">road_geometry_builder.h</text>
</a>
</g>
</g>
<!-- Node2&#45;&gt;Node5 -->
<g id="edge4" class="edge">
<title>Node2&#45;&gt;Node5</title>
<path fill="none" stroke="midnightblue" d="M195.97,-113.13C199.96,-112.73 203.91,-112.35 207.76,-112 431.85,-91.57 488.71,-96.74 712.76,-76 715.79,-75.72 718.87,-75.42 721.99,-75.11"/>
<polygon fill="midnightblue" stroke="midnightblue" points="195.61,-109.65 186.01,-114.14 196.32,-116.61 195.61,-109.65"/>
</g>
<!-- Node5&#45;&gt;Node4 -->
<g id="edge5" class="edge">
<title>Node5&#45;&gt;Node4</title>
<path fill="none" stroke="midnightblue" d="M721.32,-55.04C649.17,-44.84 538.21,-29.16 470.01,-19.52"/>
<polygon fill="midnightblue" stroke="midnightblue" points="720.84,-58.51 731.23,-56.44 721.82,-51.58 720.84,-58.51"/>
</g>
<!-- Node6 -->
<g id="node6" class="node">
<title>Node6</title>
<g id="a_node6"><a xlink:href="road__network__builder_8cc.html" target="_top" xlink:title=" ">
<polygon fill="white" stroke="black" points="849.76,-0.5 849.76,-19.5 985.76,-19.5 985.76,-0.5 849.76,-0.5"/>
<text text-anchor="middle" x="917.76" y="-7.5" font-family="Helvetica,sans-Serif" font-size="10.00">road_network_builder.cc</text>
</a>
</g>
</g>
<!-- Node5&#45;&gt;Node6 -->
<g id="edge6" class="edge">
<title>Node5&#45;&gt;Node6</title>
<path fill="none" stroke="midnightblue" d="M820.92,-52.5C844.54,-42.38 877.19,-28.39 897.89,-19.52"/>
<polygon fill="midnightblue" stroke="midnightblue" points="819.54,-49.29 811.73,-56.44 822.3,-55.72 819.54,-49.29"/>
</g>
<!-- Node7&#45;&gt;Node4 -->
<g id="edge8" class="edge">
<title>Node7&#45;&gt;Node4</title>
<path fill="none" stroke="midnightblue" d="M291.7,-103.99C302.04,-90.02 317.95,-70.29 334.76,-56 352.58,-40.86 376.1,-27.65 392.02,-19.53"/>
<polygon fill="midnightblue" stroke="midnightblue" points="288.77,-102.06 285.75,-112.21 294.45,-106.16 288.77,-102.06"/>
</g>
<!-- Node8 -->
<g id="node8" class="node">
<title>Node8</title>
<g id="a_node8"><a xlink:href="simplify__geometries_8cc.html" target="_top" xlink:title=" ">
<polygon fill="white" stroke="black" points="156.26,-56.5 156.26,-75.5 287.26,-75.5 287.26,-56.5 156.26,-56.5"/>
<text text-anchor="middle" x="221.76" y="-63.5" font-family="Helvetica,sans-Serif" font-size="10.00">simplify_geometries.cc</text>
</a>
</g>
</g>
<!-- Node7&#45;&gt;Node8 -->
<g id="edge9" class="edge">
<title>Node7&#45;&gt;Node8</title>
<path fill="none" stroke="midnightblue" d="M262.85,-105.25C252.56,-95.67 239.8,-83.79 231.25,-75.83"/>
<polygon fill="midnightblue" stroke="midnightblue" points="260.74,-108.07 270.44,-112.32 265.51,-102.95 260.74,-108.07"/>
</g>
<!-- Node11&#45;&gt;Node10 -->
<g id="edge13" class="edge">
<title>Node11&#45;&gt;Node10</title>
<path fill="none" stroke="midnightblue" d="M1047.99,-328.95C1055.54,-320.62 1064.56,-310.1 1071.76,-300 1094.42,-268.22 1089.51,-252.88 1115.76,-224 1129.59,-208.78 1149.4,-195.68 1163.09,-187.6"/>
<polygon fill="midnightblue" stroke="midnightblue" points="1045.27,-326.73 1041.05,-336.44 1050.41,-331.48 1045.27,-326.73"/>
</g>
<!-- Node12 -->
<g id="node12" class="node">
<title>Node12</title>
<g id="a_node12"><a xlink:href="reference__geometry_8h.html" target="_top" xlink:title=" ">
<polygon fill="white" stroke="black" points="940.26,-280.5 940.26,-299.5 1063.26,-299.5 1063.26,-280.5 940.26,-280.5"/>
<text text-anchor="middle" x="1001.76" y="-287.5" font-family="Helvetica,sans-Serif" font-size="10.00">reference_geometry.h</text>
</a>
</g>
</g>
<!-- Node11&#45;&gt;Node12 -->
<g id="edge14" class="edge">
<title>Node11&#45;&gt;Node12</title>
<path fill="none" stroke="midnightblue" d="M1022.59,-327.27C1017.29,-318.05 1011.05,-307.17 1006.79,-299.75"/>
<polygon fill="midnightblue" stroke="midnightblue" points="1019.63,-329.15 1027.64,-336.08 1025.7,-325.67 1019.63,-329.15"/>
</g>
<!-- Node13 -->
<g id="node13" class="node">
<title>Node13</title>
<g id="a_node13"><a xlink:href="road__header_8h.html" target="_top" xlink:title=" ">
<polygon fill="white" stroke="black" points="960.76,-224.5 960.76,-243.5 1046.76,-243.5 1046.76,-224.5 960.76,-224.5"/>
<text text-anchor="middle" x="1003.76" y="-231.5" font-family="Helvetica,sans-Serif" font-size="10.00">road_header.h</text>
</a>
</g>
</g>
<!-- Node12&#45;&gt;Node13 -->
<g id="edge15" class="edge">
<title>Node12&#45;&gt;Node13</title>
<path fill="none" stroke="midnightblue" d="M1002.47,-269.8C1002.8,-260.91 1003.18,-250.78 1003.44,-243.75"/>
<polygon fill="midnightblue" stroke="midnightblue" points="998.97,-269.96 1002.09,-280.08 1005.96,-270.22 998.97,-269.96"/>
</g>
<!-- Node13&#45;&gt;Node10 -->
<g id="edge42" class="edge">
<title>Node13&#45;&gt;Node10</title>
<path fill="none" stroke="midnightblue" d="M1041.24,-221.44C1074.23,-211.26 1121.52,-196.66 1151.16,-187.52"/>
<polygon fill="midnightblue" stroke="midnightblue" points="1040.02,-218.15 1031.49,-224.44 1042.08,-224.84 1040.02,-218.15"/>
</g>
<!-- Node14 -->
<g id="node14" class="node">
<title>Node14</title>
<g id="a_node14"><a xlink:href="builder__tools_8cc.html" target="_top" xlink:title=" ">
<polygon fill="white" stroke="black" points="937.26,-56.5 937.26,-75.5 1030.26,-75.5 1030.26,-56.5 937.26,-56.5"/>
<text text-anchor="middle" x="983.76" y="-63.5" font-family="Helvetica,sans-Serif" font-size="10.00">builder_tools.cc</text>
</a>
</g>
</g>
<!-- Node13&#45;&gt;Node14 -->
<g id="edge16" class="edge">
<title>Node13&#45;&gt;Node14</title>
<path fill="none" stroke="midnightblue" d="M1024.54,-218.4C1059.72,-193.45 1127.82,-144.14 1133.76,-132 1137.67,-124.02 1139.07,-119.13 1133.76,-112 1126.82,-102.67 1062.23,-85.73 1020.1,-75.5"/>
<polygon fill="midnightblue" stroke="midnightblue" points="1022.11,-215.83 1015.96,-224.46 1026.15,-221.55 1022.11,-215.83"/>
</g>
<!-- Node15 -->
<g id="node15" class="node">
<title>Node15</title>
<g id="a_node15"><a xlink:href="builder__tools_8h.html" target="_top" xlink:title=" ">
<polygon fill="white" stroke="black" points="1182.26,-112.5 1182.26,-131.5 1271.26,-131.5 1271.26,-112.5 1182.26,-112.5"/>
<text text-anchor="middle" x="1226.76" y="-119.5" font-family="Helvetica,sans-Serif" font-size="10.00">builder_tools.h</text>
</a>
</g>
</g>
<!-- Node13&#45;&gt;Node15 -->
<g id="edge17" class="edge">
<title>Node13&#45;&gt;Node15</title>
<path fill="none" stroke="midnightblue" d="M1030.63,-219.91C1048.98,-210.95 1073.86,-198.79 1095.76,-188 1136.53,-167.92 1184.33,-144.14 1209.4,-131.65"/>
<polygon fill="midnightblue" stroke="midnightblue" points="1028.87,-216.87 1021.41,-224.4 1031.94,-223.16 1028.87,-216.87"/>
</g>
<!-- Node20 -->
<g id="node20" class="node">
<title>Node20</title>
<g id="a_node20"><a xlink:href="determine__tolerance_8cc.html" target="_top" xlink:title=" ">
<polygon fill="white" stroke="black" points="344.26,-56.5 344.26,-75.5 475.26,-75.5 475.26,-56.5 344.26,-56.5"/>
<text text-anchor="middle" x="409.76" y="-63.5" font-family="Helvetica,sans-Serif" font-size="10.00">determine_tolerance.cc</text>
</a>
</g>
</g>
<!-- Node13&#45;&gt;Node20 -->
<g id="edge25" class="edge">
<title>Node13&#45;&gt;Node20</title>
<path fill="none" stroke="midnightblue" d="M950.18,-232.64C814.24,-230.49 461.65,-216.68 389.76,-132 375.7,-115.44 392.19,-89.11 402.57,-75.6"/>
<polygon fill="midnightblue" stroke="midnightblue" points="950.3,-236.14 960.35,-232.79 950.41,-229.15 950.3,-236.14"/>
</g>
<!-- Node21 -->
<g id="node21" class="node">
<title>Node21</title>
<g id="a_node21"><a xlink:href="db__manager_8h.html" target="_top" xlink:title=" ">
<polygon fill="white" stroke="black" points="742.76,-168.5 742.76,-187.5 828.76,-187.5 828.76,-168.5 742.76,-168.5"/>
<text text-anchor="middle" x="785.76" y="-175.5" font-family="Helvetica,sans-Serif" font-size="10.00">db_manager.h</text>
</a>
</g>
</g>
<!-- Node13&#45;&gt;Node21 -->
<g id="edge26" class="edge">
<title>Node13&#45;&gt;Node21</title>
<path fill="none" stroke="midnightblue" d="M959.45,-222.02C918.27,-211.82 857.79,-196.84 820.14,-187.52"/>
<polygon fill="midnightblue" stroke="midnightblue" points="958.67,-225.44 969.22,-224.44 960.35,-218.64 958.67,-225.44"/>
</g>
<!-- Node30 -->
<g id="node30" class="node">
<title>Node30</title>
<g id="a_node30"><a xlink:href="road__header_8cc.html" target="_top" xlink:title=" ">
<polygon fill="white" stroke="black" points="958.26,-168.5 958.26,-187.5 1049.26,-187.5 1049.26,-168.5 958.26,-168.5"/>
<text text-anchor="middle" x="1003.76" y="-175.5" font-family="Helvetica,sans-Serif" font-size="10.00">road_header.cc</text>
</a>
</g>
</g>
<!-- Node13&#45;&gt;Node30 -->
<g id="edge43" class="edge">
<title>Node13&#45;&gt;Node30</title>
<path fill="none" stroke="midnightblue" d="M1003.76,-213.8C1003.76,-204.91 1003.76,-194.78 1003.76,-187.75"/>
<polygon fill="midnightblue" stroke="midnightblue" points="1000.26,-214.08 1003.76,-224.08 1007.26,-214.08 1000.26,-214.08"/>
</g>
<!-- Node15&#45;&gt;Node5 -->
<g id="edge20" class="edge">
<title>Node15&#45;&gt;Node5</title>
<path fill="none" stroke="midnightblue" d="M1172.01,-114.2C1092.89,-104.38 946.62,-86.22 860.38,-75.52"/>
<polygon fill="midnightblue" stroke="midnightblue" points="1171.9,-117.72 1182.25,-115.47 1172.76,-110.77 1171.9,-117.72"/>
</g>
<!-- Node15&#45;&gt;Node6 -->
<g id="edge21" class="edge">
<title>Node15&#45;&gt;Node6</title>
<path fill="none" stroke="midnightblue" d="M1182.37,-109.85C1152.36,-101.77 1112.1,-89.86 1077.76,-76 1059.7,-68.71 1056.59,-63.85 1038.76,-56 1006.56,-41.81 968.35,-28.1 943.61,-19.62"/>
<polygon fill="midnightblue" stroke="midnightblue" points="1181.57,-113.26 1192.13,-112.44 1183.36,-106.49 1181.57,-113.26"/>
</g>
<!-- Node15&#45;&gt;Node14 -->
<g id="edge18" class="edge">
<title>Node15&#45;&gt;Node14</title>
<path fill="none" stroke="midnightblue" d="M1178.24,-110.22C1132.32,-100.01 1064.32,-84.9 1022.09,-75.52"/>
<polygon fill="midnightblue" stroke="midnightblue" points="1177.74,-113.69 1188.26,-112.44 1179.26,-106.86 1177.74,-113.69"/>
</g>
<!-- Node16 -->
<g id="node16" class="node">
<title>Node16</title>
<g id="a_node16"><a xlink:href="direction__usage__builder_8cc.html" target="_top" xlink:title=" ">
<polygon fill="white" stroke="black" points="1086.76,-56.5 1086.76,-75.5 1232.76,-75.5 1232.76,-56.5 1086.76,-56.5"/>
<text text-anchor="middle" x="1159.76" y="-63.5" font-family="Helvetica,sans-Serif" font-size="10.00">direction_usage_builder.cc</text>
</a>
</g>
</g>
<!-- Node15&#45;&gt;Node16 -->
<g id="edge19" class="edge">
<title>Node15&#45;&gt;Node16</title>
<path fill="none" stroke="midnightblue" d="M1207.93,-105.82C1195.92,-96.15 1180.79,-83.95 1170.72,-75.83"/>
<polygon fill="midnightblue" stroke="midnightblue" points="1206.02,-108.77 1216,-112.32 1210.41,-103.32 1206.02,-108.77"/>
</g>
<!-- Node17 -->
<g id="node17" class="node">
<title>Node17</title>
<g id="a_node17"><a xlink:href="road__rulebook__builder_8cc.html" target="_top" xlink:title=" ">
<polygon fill="white" stroke="black" points="1251.26,-56.5 1251.26,-75.5 1390.26,-75.5 1390.26,-56.5 1251.26,-56.5"/>
<text text-anchor="middle" x="1320.76" y="-63.5" font-family="Helvetica,sans-Serif" font-size="10.00">road_rulebook_builder.cc</text>
</a>
</g>
</g>
<!-- Node15&#45;&gt;Node17 -->
<g id="edge22" class="edge">
<title>Node15&#45;&gt;Node17</title>
<path fill="none" stroke="midnightblue" d="M1250.82,-107.18C1268.12,-97.24 1290.91,-84.15 1305.7,-75.65"/>
<polygon fill="midnightblue" stroke="midnightblue" points="1248.79,-104.31 1241.87,-112.32 1252.28,-110.38 1248.79,-104.31"/>
</g>
<!-- Node18 -->
<g id="node18" class="node">
<title>Node18</title>
<g id="a_node18"><a xlink:href="rule__registry__builder_8cc.html" target="_top" xlink:title=" ">
<polygon fill="white" stroke="black" points="1408.26,-56.5 1408.26,-75.5 1539.26,-75.5 1539.26,-56.5 1408.26,-56.5"/>
<text text-anchor="middle" x="1473.76" y="-63.5" font-family="Helvetica,sans-Serif" font-size="10.00">rule_registry_builder.cc</text>
</a>
</g>
</g>
<!-- Node15&#45;&gt;Node18 -->
<g id="edge23" class="edge">
<title>Node15&#45;&gt;Node18</title>
<path fill="none" stroke="midnightblue" d="M1275.79,-110.28C1322.47,-100.08 1391.79,-84.92 1434.81,-75.52"/>
<polygon fill="midnightblue" stroke="midnightblue" points="1274.92,-106.89 1265.9,-112.44 1276.42,-113.73 1274.92,-106.89"/>
</g>
<!-- Node19 -->
<g id="node19" class="node">
<title>Node19</title>
<g id="a_node19"><a xlink:href="speed__limit__builder_8cc.html" target="_top" xlink:title=" ">
<polygon fill="white" stroke="black" points="1557.76,-56.5 1557.76,-75.5 1683.76,-75.5 1683.76,-56.5 1557.76,-56.5"/>
<text text-anchor="middle" x="1620.76" y="-63.5" font-family="Helvetica,sans-Serif" font-size="10.00">speed_limit_builder.cc</text>
</a>
</g>
</g>
<!-- Node15&#45;&gt;Node19 -->
<g id="edge24" class="edge">
<title>Node15&#45;&gt;Node19</title>
<path fill="none" stroke="midnightblue" d="M1281.9,-113.44C1354.66,-103.47 1482.38,-85.97 1558.53,-75.53"/>
<polygon fill="midnightblue" stroke="midnightblue" points="1281.01,-110.03 1271.58,-114.86 1281.96,-116.97 1281.01,-110.03"/>
</g>
<!-- Node21&#45;&gt;Node5 -->
<g id="edge38" class="edge">
<title>Node21&#45;&gt;Node5</title>
<path fill="none" stroke="midnightblue" d="M776.68,-158.95C771.26,-145.92 766.08,-127.9 769.76,-112 772.9,-98.44 780.71,-84.26 786.12,-75.52"/>
<polygon fill="midnightblue" stroke="midnightblue" points="773.56,-160.56 780.91,-168.19 779.93,-157.64 773.56,-160.56"/>
</g>
<!-- Node21&#45;&gt;Node7 -->
<g id="edge39" class="edge">
<title>Node21&#45;&gt;Node7</title>
<path fill="none" stroke="midnightblue" d="M732.49,-171.31C638.5,-161.28 443.69,-140.49 343.03,-129.75"/>
<polygon fill="midnightblue" stroke="midnightblue" points="732.31,-174.81 742.62,-172.4 733.05,-167.85 732.31,-174.81"/>
</g>
<!-- Node21&#45;&gt;Node14 -->
<g id="edge34" class="edge">
<title>Node21&#45;&gt;Node14</title>
<path fill="none" stroke="midnightblue" d="M839.39,-172.38C892.27,-166.58 967.73,-154.54 985.76,-132 998.74,-115.78 992.03,-89.3 987.23,-75.68"/>
<polygon fill="midnightblue" stroke="midnightblue" points="838.72,-168.93 829.14,-173.46 839.45,-175.89 838.72,-168.93"/>
</g>
<!-- Node22 -->
<g id="node22" class="node">
<title>Node22</title>
<g id="a_node22"><a xlink:href="xodr__query_8cc.html" target="_top" xlink:title=" ">
<polygon fill="white" stroke="black" points="779.26,-112.5 779.26,-131.5 862.26,-131.5 862.26,-112.5 779.26,-112.5"/>
<text text-anchor="middle" x="820.76" y="-119.5" font-family="Helvetica,sans-Serif" font-size="10.00">xodr_query.cc</text>
</a>
</g>
</g>
<!-- Node21&#45;&gt;Node22 -->
<g id="edge27" class="edge">
<title>Node21&#45;&gt;Node22</title>
<path fill="none" stroke="midnightblue" d="M797.06,-159.57C803.08,-150.27 810.23,-139.25 815.09,-131.75"/>
<polygon fill="midnightblue" stroke="midnightblue" points="794.04,-157.79 791.54,-168.08 799.92,-161.6 794.04,-157.79"/>
</g>
<!-- Node23 -->
<g id="node23" class="node">
<title>Node23</title>
<g id="a_node23"><a xlink:href="xodr__validate_8cc.html" target="_top" xlink:title=" ">
<polygon fill="white" stroke="black" points="880.26,-112.5 880.26,-131.5 977.26,-131.5 977.26,-112.5 880.26,-112.5"/>
<text text-anchor="middle" x="928.76" y="-119.5" font-family="Helvetica,sans-Serif" font-size="10.00">xodr_validate.cc</text>
</a>
</g>
</g>
<!-- Node21&#45;&gt;Node23 -->
<g id="edge28" class="edge">
<title>Node21&#45;&gt;Node23</title>
<path fill="none" stroke="midnightblue" d="M817.79,-164.91C844.67,-154.75 882.4,-140.51 906.21,-131.52"/>
<polygon fill="midnightblue" stroke="midnightblue" points="816.54,-161.64 808.42,-168.44 819.01,-168.19 816.54,-161.64"/>
</g>
<!-- Node24 -->
<g id="node24" class="node">
<title>Node24</title>
<g id="a_node24"><a xlink:href="road__geometry_8h.html" target="_top" xlink:title=" ">
<polygon fill="white" stroke="black" points="544.76,-112.5 544.76,-131.5 642.76,-131.5 642.76,-112.5 544.76,-112.5"/>
<text text-anchor="middle" x="593.76" y="-119.5" font-family="Helvetica,sans-Serif" font-size="10.00">road_geometry.h</text>
</a>
</g>
</g>
<!-- Node21&#45;&gt;Node24 -->
<g id="edge29" class="edge">
<title>Node21&#45;&gt;Node24</title>
<path fill="none" stroke="midnightblue" d="M745.58,-165.7C709.34,-155.51 656.85,-140.74 624.04,-131.52"/>
<polygon fill="midnightblue" stroke="midnightblue" points="744.77,-169.11 755.34,-168.44 746.66,-162.37 744.77,-169.11"/>
</g>
<!-- Node27 -->
<g id="node27" class="node">
<title>Node27</title>
<g id="a_node27"><a xlink:href="determine__tolerance_8h.html" target="_top" xlink:title=" ">
<polygon fill="white" stroke="black" points="399.26,-112.5 399.26,-131.5 526.26,-131.5 526.26,-112.5 399.26,-112.5"/>
<text text-anchor="middle" x="462.76" y="-119.5" font-family="Helvetica,sans-Serif" font-size="10.00">determine_tolerance.h</text>
</a>
</g>
</g>
<!-- Node21&#45;&gt;Node27 -->
<g id="edge35" class="edge">
<title>Node21&#45;&gt;Node27</title>
<path fill="none" stroke="midnightblue" d="M732.4,-168.08C671.72,-157.93 573.37,-141.49 513.71,-131.52"/>
<polygon fill="midnightblue" stroke="midnightblue" points="732.1,-171.58 742.54,-169.77 733.25,-164.67 732.1,-171.58"/>
</g>
<!-- Node28 -->
<g id="node28" class="node">
<title>Node28</title>
<g id="a_node28"><a xlink:href="loader_8cc.html" target="_top" xlink:title=" ">
<polygon fill="white" stroke="black" points="661.26,-112.5 661.26,-131.5 722.26,-131.5 722.26,-112.5 661.26,-112.5"/>
<text text-anchor="middle" x="691.76" y="-119.5" font-family="Helvetica,sans-Serif" font-size="10.00">loader.cc</text>
</a>
</g>
</g>
<!-- Node21&#45;&gt;Node28 -->
<g id="edge40" class="edge">
<title>Node21&#45;&gt;Node28</title>
<path fill="none" stroke="midnightblue" d="M761.7,-163.18C744.4,-153.24 721.62,-140.15 706.83,-131.65"/>
<polygon fill="midnightblue" stroke="midnightblue" points="760.25,-166.38 770.66,-168.32 763.73,-160.31 760.25,-166.38"/>
</g>
<!-- Node29 -->
<g id="node29" class="node">
<title>Node29</title>
<g id="a_node29"><a xlink:href="db__manager_8cc.html" target="_top" xlink:title=" ">
<polygon fill="white" stroke="black" points="1034.26,-112.5 1034.26,-131.5 1125.26,-131.5 1125.26,-112.5 1034.26,-112.5"/>
<text text-anchor="middle" x="1079.76" y="-119.5" font-family="Helvetica,sans-Serif" font-size="10.00">db_manager.cc</text>
</a>
</g>
</g>
<!-- Node21&#45;&gt;Node29 -->
<g id="edge41" class="edge">
<title>Node21&#45;&gt;Node29</title>
<path fill="none" stroke="midnightblue" d="M838.86,-167.25C894.63,-157 981.39,-141.07 1034.16,-131.38"/>
<polygon fill="midnightblue" stroke="midnightblue" points="838.03,-163.84 828.83,-169.09 839.3,-170.73 838.03,-163.84"/>
</g>
<!-- Node24&#45;&gt;Node5 -->
<g id="edge33" class="edge">
<title>Node24&#45;&gt;Node5</title>
<path fill="none" stroke="midnightblue" d="M635.2,-109.7C672.57,-99.51 726.71,-84.74 760.54,-75.52"/>
<polygon fill="midnightblue" stroke="midnightblue" points="633.86,-106.44 625.14,-112.44 635.71,-113.19 633.86,-106.44"/>
</g>
<!-- Node24&#45;&gt;Node14 -->
<g id="edge32" class="edge">
<title>Node24&#45;&gt;Node14</title>
<path fill="none" stroke="midnightblue" d="M652.88,-111.86C760.69,-96.26 874.96,-81.14 937.26,-73.02"/>
<polygon fill="midnightblue" stroke="midnightblue" points="652.19,-108.42 642.8,-113.32 653.2,-115.35 652.19,-108.42"/>
</g>
<!-- Node25 -->
<g id="node25" class="node">
<title>Node25</title>
<g id="a_node25"><a xlink:href="base_2lane_8cc.html" target="_top" xlink:title=" ">
<polygon fill="white" stroke="black" points="532.26,-56.5 532.26,-75.5 583.26,-75.5 583.26,-56.5 532.26,-56.5"/>
<text text-anchor="middle" x="557.76" y="-63.5" font-family="Helvetica,sans-Serif" font-size="10.00">lane.cc</text>
</a>
</g>
</g>
<!-- Node24&#45;&gt;Node25 -->
<g id="edge30" class="edge">
<title>Node24&#45;&gt;Node25</title>
<path fill="none" stroke="midnightblue" d="M582.14,-103.57C575.95,-94.27 568.6,-83.25 563.6,-75.75"/>
<polygon fill="midnightblue" stroke="midnightblue" points="579.36,-105.7 587.82,-112.08 585.18,-101.82 579.36,-105.7"/>
</g>
<!-- Node26 -->
<g id="node26" class="node">
<title>Node26</title>
<g id="a_node26"><a xlink:href="road__geometry_8cc.html" target="_top" xlink:title=" ">
<polygon fill="white" stroke="black" points="601.26,-56.5 601.26,-75.5 704.26,-75.5 704.26,-56.5 601.26,-56.5"/>
<text text-anchor="middle" x="652.76" y="-63.5" font-family="Helvetica,sans-Serif" font-size="10.00">road_geometry.cc</text>
</a>
</g>
</g>
<!-- Node24&#45;&gt;Node26 -->
<g id="edge31" class="edge">
<title>Node24&#45;&gt;Node26</title>
<path fill="none" stroke="midnightblue" d="M610.66,-105.54C621.18,-95.91 634.33,-83.87 643.11,-75.83"/>
<polygon fill="midnightblue" stroke="midnightblue" points="608.26,-102.99 603.24,-112.32 612.98,-108.15 608.26,-102.99"/>
</g>
<!-- Node27&#45;&gt;Node4 -->
<g id="edge37" class="edge">
<title>Node27&#45;&gt;Node4</title>
<path fill="none" stroke="midnightblue" d="M475.72,-103.74C484.2,-90.18 492.26,-71.12 483.76,-56 473.74,-38.18 453.48,-26.59 436.69,-19.64"/>
<polygon fill="midnightblue" stroke="midnightblue" points="472.73,-101.9 469.98,-112.13 478.51,-105.85 472.73,-101.9"/>
</g>
<!-- Node27&#45;&gt;Node20 -->
<g id="edge36" class="edge">
<title>Node27&#45;&gt;Node20</title>
<path fill="none" stroke="midnightblue" d="M446.78,-104.72C437.44,-95.2 426.02,-83.56 418.35,-75.75"/>
<polygon fill="midnightblue" stroke="midnightblue" points="444.51,-107.4 454.01,-112.08 449.5,-102.49 444.51,-107.4"/>
</g>
<!-- Node31&#45;&gt;Node29 -->
<g id="edge45" class="edge">
<title>Node31&#45;&gt;Node29</title>
<path fill="none" stroke="midnightblue" d="M1202.16,-328.82C1209.4,-320.92 1216.98,-310.79 1220.76,-300 1232.4,-266.82 1281.12,-252.15 1218.76,-168 1197.39,-139.16 1157.18,-128.46 1125.48,-124.65"/>
<polygon fill="midnightblue" stroke="midnightblue" points="1199.44,-326.6 1194.92,-336.19 1204.43,-331.51 1199.44,-326.6"/>
</g>
<!-- Node32 -->
<g id="node32" class="node">
<title>Node32</title>
<g id="a_node32"><a xlink:href="tools_8cc.html" target="_top" xlink:title=" ">
<polygon fill="white" stroke="black" points="1157.76,-280.5 1157.76,-299.5 1211.76,-299.5 1211.76,-280.5 1157.76,-280.5"/>
<text text-anchor="middle" x="1184.76" y="-287.5" font-family="Helvetica,sans-Serif" font-size="10.00">tools.cc</text>
</a>
</g>
</g>
<!-- Node31&#45;&gt;Node32 -->
<g id="edge46" class="edge">
<title>Node31&#45;&gt;Node32</title>
<path fill="none" stroke="midnightblue" d="M1184.76,-325.8C1184.76,-316.91 1184.76,-306.78 1184.76,-299.75"/>
<polygon fill="midnightblue" stroke="midnightblue" points="1181.26,-326.08 1184.76,-336.08 1188.26,-326.08 1181.26,-326.08"/>
</g>
</g>
</svg>
