<?xml version="1.0" encoding="UTF-8" standalone="no"?>
<!DOCTYPE svg PUBLIC "-//W3C//DTD SVG 1.1//EN"
 "http://www.w3.org/Graphics/SVG/1.1/DTD/svg11.dtd">
<!-- Generated by graphviz version 2.40.1 (20161225.0304)
 -->
<!-- Title: junction.h Pages: 1 -->
<!--zoomable 296 -->
<svg id="main" version="1.1" xmlns="http://www.w3.org/2000/svg" xmlns:xlink="http://www.w3.org/1999/xlink" xml:space="preserve" onload="init(evt)">
<style type="text/css"><![CDATA[
.edge:hover path { stroke: red; }
.edge:hover polygon { stroke: red; fill: red; }
]]></style>
<script type="text/javascript"><![CDATA[
var edges = document.getElementsByTagName('g');
if (edges && edges.length) {
  for (var i=0;i<edges.length;i++) {
    if (edges[i].id.substr(0,4)=='edge') {
      edges[i].setAttribute('class','edge');
    }
  }
}
]]></script>
        <defs>
                <circle id="rim" cx="0" cy="0" r="7"/>
                <circle id="rim2" cx="0" cy="0" r="3.5"/>
                <g id="zoomPlus">
                        <use xlink:href="#rim" fill="#404040">
                                <set attributeName="fill" to="#808080" begin="zoomplus.mouseover" end="zoomplus.mouseout"/>
                        </use>
                        <path d="M-4,0h8M0,-4v8" fill="none" stroke="white" stroke-width="1.5" pointer-events="none"/>
                </g>
                <g id="zoomMin">
                        <use xlink:href="#rim" fill="#404040">
                                <set attributeName="fill" to="#808080" begin="zoomminus.mouseover" end="zoomminus.mouseout"/>
                        </use>
                        <path d="M-4,0h8" fill="none" stroke="white" stroke-width="1.5" pointer-events="none"/>
                </g>
                <g id="dirArrow">
                        <path fill="none" stroke="white" stroke-width="1.5" d="M0,-3.0v7 M-2.5,-0.5L0,-3.0L2.5,-0.5"/>
                </g>
               <g id="resetDef">
                       <use xlink:href="#rim2" fill="#404040">
                               <set attributeName="fill" to="#808080" begin="reset.mouseover" end="reset.mouseout"/>
                       </use>
               </g>
        </defs>

<script type="text/javascript">
var viewWidth = 848;
var viewHeight = 296;
var sectionId = 'dynsection-0';
</script>
<script xlink:href="svgpan.js"/>
<svg id="graph" class="graph">
<g id="viewport">
<title>junction.h</title>
<polygon fill="#ffffff" stroke="transparent" points="-4,4 -4,-292 844,-292 844,4 -4,4"/>
<!-- Node0 -->
<g id="node1" class="node">
<title>Node0</title>
<polygon fill="#bfbfbf" stroke="#000000" points="318.5,-268.5 318.5,-287.5 383.5,-287.5 383.5,-268.5 318.5,-268.5"/>
<text text-anchor="middle" x="351" y="-275.5" font-family="Helvetica,sans-Serif" font-size="10.00" fill="#000000">junction.h</text>
</g>
<!-- Node1 -->
<g id="node2" class="node">
<title>Node1</title>
<polygon fill="#ffffff" stroke="#bfbfbf" points="100,-140 100,-159 156,-159 156,-140 100,-140"/>
<text text-anchor="middle" x="128" y="-147" font-family="Helvetica,sans-Serif" font-size="10.00" fill="#000000">optional</text>
</g>
<!-- Node0&#45;&gt;Node1 -->
<g id="edge1" class="edge">
<title>Node0&#45;&gt;Node1</title>
<path fill="none" stroke="#191970" d="M318.4035,-273.5995C271.0198,-266.6206 186.2288,-251.7554 163,-232 144.0767,-215.9063 135.1434,-187.7961 131.0996,-168.9187"/>
<polygon fill="#191970" stroke="#191970" points="134.5287,-168.215 129.2452,-159.0316 127.6487,-169.5054 134.5287,-168.215"/>
</g>
<!-- Node2 -->
<g id="node3" class="node">
<title>Node2</title>
<polygon fill="#ffffff" stroke="#bfbfbf" points="398.5,-207 398.5,-226 455.5,-226 455.5,-207 398.5,-207"/>
<text text-anchor="middle" x="427" y="-214" font-family="Helvetica,sans-Serif" font-size="10.00" fill="#000000">ostream</text>
</g>
<!-- Node0&#45;&gt;Node2 -->
<g id="edge2" class="edge">
<title>Node0&#45;&gt;Node2</title>
<path fill="none" stroke="#191970" d="M362.875,-268.3906C374.6297,-258.8786 392.8486,-244.1357 406.8672,-232.7917"/>
<polygon fill="#191970" stroke="#191970" points="409.3856,-235.2562 414.9576,-226.2449 404.9822,-229.8146 409.3856,-235.2562"/>
</g>
<!-- Node3 -->
<g id="node4" class="node">
<title>Node3</title>
<polygon fill="#ffffff" stroke="#bfbfbf" points="473.5,-207 473.5,-226 566.5,-226 566.5,-207 473.5,-207"/>
<text text-anchor="middle" x="520" y="-214" font-family="Helvetica,sans-Serif" font-size="10.00" fill="#000000">unordered_map</text>
</g>
<!-- Node0&#45;&gt;Node3 -->
<g id="edge3" class="edge">
<title>Node0&#45;&gt;Node3</title>
<path fill="none" stroke="#191970" d="M377.4063,-268.3906C406.1791,-257.92 452.3696,-241.1111 484.3466,-229.4745"/>
<polygon fill="#191970" stroke="#191970" points="485.579,-232.7506 493.7792,-226.0419 483.1851,-226.1726 485.579,-232.7506"/>
</g>
<!-- Node4 -->
<g id="node5" class="node">
<title>Node4</title>
<g id="a_node5"><a doxygen="/__w/maliput-documentation/maliput-documentation/maliput_ws/build/maliput_documentation/docs/docs/sphinx/from_doxygen/html/deps/maliput/maliput.tag:../../maliput/html/" xlink:href="../../maliput/html/type__specific__identifier_8h.html" target="_top" xlink:title="maliput/api/type_specific\l_identifier.h">
<polygon fill="#ffffff" stroke="#000000" points="174,-134.5 174,-164.5 314,-164.5 314,-134.5 174,-134.5"/>
<text text-anchor="start" x="182" y="-152.5" font-family="Helvetica,sans-Serif" font-size="10.00" fill="#000000">maliput/api/type_specific</text>
<text text-anchor="middle" x="244" y="-141.5" font-family="Helvetica,sans-Serif" font-size="10.00" fill="#000000">_identifier.h</text>
</a>
</g>
</g>
<!-- Node0&#45;&gt;Node4 -->
<g id="edge4" class="edge">
<title>Node0&#45;&gt;Node4</title>
<path fill="none" stroke="#191970" d="M347.6741,-268.176C342.088,-252.6833 329.6721,-222.1644 312,-201 302.2999,-189.383 289.5078,-178.8339 277.6382,-170.3515"/>
<polygon fill="#191970" stroke="#191970" points="279.4375,-167.341 269.2157,-164.5544 275.4688,-173.1072 279.4375,-167.341"/>
</g>
<!-- Node8 -->
<g id="node9" class="node">
<title>Node8</title>
<g id="a_node9"><a xlink:href="macros_8h.html" target="_top" xlink:title="maliput_malidrive/common\l/macros.h">
<polygon fill="#ffffff" stroke="#000000" points="380,-134.5 380,-164.5 532,-164.5 532,-134.5 380,-134.5"/>
<text text-anchor="start" x="388" y="-152.5" font-family="Helvetica,sans-Serif" font-size="10.00" fill="#000000">maliput_malidrive/common</text>
<text text-anchor="middle" x="456" y="-141.5" font-family="Helvetica,sans-Serif" font-size="10.00" fill="#000000">/macros.h</text>
</a>
</g>
</g>
<!-- Node0&#45;&gt;Node8 -->
<g id="edge9" class="edge">
<title>Node0&#45;&gt;Node8</title>
<path fill="none" stroke="#191970" d="M354.3622,-268.2061C359.9981,-252.7547 372.481,-222.2913 390,-201 399.4373,-189.5306 411.8577,-179.0113 423.3755,-170.5113"/>
<polygon fill="#191970" stroke="#191970" points="425.4303,-173.3448 431.5472,-164.6941 421.3708,-167.6422 425.4303,-173.3448"/>
</g>
<!-- Node13 -->
<g id="node14" class="node">
<title>Node13</title>
<g id="a_node14"><a xlink:href="connection_8h.html" target="_top" xlink:title="maliput_malidrive/xodr\l/connection.h">
<polygon fill="#ffffff" stroke="#000000" points="172.5,-201.5 172.5,-231.5 303.5,-231.5 303.5,-201.5 172.5,-201.5"/>
<text text-anchor="start" x="180.5" y="-219.5" font-family="Helvetica,sans-Serif" font-size="10.00" fill="#000000">maliput_malidrive/xodr</text>
<text text-anchor="middle" x="238" y="-208.5" font-family="Helvetica,sans-Serif" font-size="10.00" fill="#000000">/connection.h</text>
</a>
</g>
</g>
<!-- Node0&#45;&gt;Node13 -->
<g id="edge18" class="edge">
<title>Node0&#45;&gt;Node13</title>
<path fill="none" stroke="#191970" d="M333.3438,-268.3906C317.6966,-259.8747 294.3456,-247.166 274.6696,-236.4573"/>
<polygon fill="#191970" stroke="#191970" points="276.0995,-233.2508 265.6429,-231.5446 272.7532,-239.3992 276.0995,-233.2508"/>
</g>
<!-- Node5 -->
<g id="node6" class="node">
<title>Node5</title>
<g id="a_node6"><a doxygen="/__w/maliput-documentation/maliput-documentation/maliput_ws/build/maliput_documentation/docs/docs/sphinx/from_doxygen/html/deps/maliput/maliput.tag:../../maliput/html/" xlink:href="../../maliput/html/maliput__copyable_8h.html" target="_top" xlink:title="maliput/common/maliput\l_copyable.h">
<polygon fill="#ffffff" stroke="#000000" points="274,-.5 274,-30.5 414,-30.5 414,-.5 274,-.5"/>
<text text-anchor="start" x="282" y="-18.5" font-family="Helvetica,sans-Serif" font-size="10.00" fill="#000000">maliput/common/maliput</text>
<text text-anchor="middle" x="344" y="-7.5" font-family="Helvetica,sans-Serif" font-size="10.00" fill="#000000">_copyable.h</text>
</a>
</g>
</g>
<!-- Node4&#45;&gt;Node5 -->
<g id="edge5" class="edge">
<title>Node4&#45;&gt;Node5</title>
<path fill="none" stroke="#191970" d="M244.1232,-134.4189C244.9732,-116.7396 248.6604,-87.2822 263,-67 272.1542,-54.0522 285.6943,-43.6144 299.0951,-35.6097"/>
<polygon fill="#191970" stroke="#191970" points="300.8307,-38.6492 307.8337,-30.6988 297.4013,-32.5468 300.8307,-38.6492"/>
</g>
<!-- Node6 -->
<g id="node7" class="node">
<title>Node6</title>
<g id="a_node7"><a doxygen="/__w/maliput-documentation/maliput-documentation/maliput_ws/build/maliput_documentation/docs/docs/sphinx/from_doxygen/html/deps/maliput/maliput.tag:../../maliput/html/" xlink:href="../../maliput/html/maliput__hash_8h.html" target="_top" xlink:title="maliput/common/maliput\l_hash.h">
<polygon fill="#ffffff" stroke="#000000" points="0,-67.5 0,-97.5 140,-97.5 140,-67.5 0,-67.5"/>
<text text-anchor="start" x="8" y="-85.5" font-family="Helvetica,sans-Serif" font-size="10.00" fill="#000000">maliput/common/maliput</text>
<text text-anchor="middle" x="70" y="-74.5" font-family="Helvetica,sans-Serif" font-size="10.00" fill="#000000">_hash.h</text>
</a>
</g>
</g>
<!-- Node4&#45;&gt;Node6 -->
<g id="edge6" class="edge">
<title>Node4&#45;&gt;Node6</title>
<path fill="none" stroke="#191970" d="M204.951,-134.4639C179.4066,-124.6278 145.8416,-111.7034 118.5769,-101.2049"/>
<polygon fill="#191970" stroke="#191970" points="119.8091,-97.9289 109.2193,-97.6017 117.2937,-104.4614 119.8091,-97.9289"/>
</g>
<!-- Node7 -->
<g id="node8" class="node">
<title>Node7</title>
<g id="a_node8"><a doxygen="/__w/maliput-documentation/maliput-documentation/maliput_ws/build/maliput_documentation/docs/docs/sphinx/from_doxygen/html/deps/maliput/maliput.tag:../../maliput/html/" xlink:href="../../maliput/html/maliput__throw_8h.html" target="_top" xlink:title="maliput/common/maliput\l_throw.h">
<polygon fill="#ffffff" stroke="#000000" points="107,-.5 107,-30.5 247,-30.5 247,-.5 107,-.5"/>
<text text-anchor="start" x="115" y="-18.5" font-family="Helvetica,sans-Serif" font-size="10.00" fill="#000000">maliput/common/maliput</text>
<text text-anchor="middle" x="177" y="-7.5" font-family="Helvetica,sans-Serif" font-size="10.00" fill="#000000">_throw.h</text>
</a>
</g>
</g>
<!-- Node4&#45;&gt;Node7 -->
<g id="edge8" class="edge">
<title>Node4&#45;&gt;Node7</title>
<path fill="none" stroke="#191970" d="M223.4265,-134.3227C212.38,-125.0615 199.5236,-112.2753 192,-98 182.7017,-80.3573 179.0595,-57.9721 177.6827,-40.9722"/>
<polygon fill="#191970" stroke="#191970" points="181.1582,-40.456 177.0683,-30.6824 174.1706,-40.8733 181.1582,-40.456"/>
</g>
<!-- Node6&#45;&gt;Node7 -->
<g id="edge7" class="edge">
<title>Node6&#45;&gt;Node7</title>
<path fill="none" stroke="#191970" d="M94.0129,-67.4639C108.7775,-58.2188 127.8995,-46.2452 144.0661,-36.1222"/>
<polygon fill="#191970" stroke="#191970" points="146.079,-38.9913 152.697,-30.7177 142.364,-33.0584 146.079,-38.9913"/>
</g>
<!-- Node8&#45;&gt;Node5 -->
<g id="edge16" class="edge">
<title>Node8&#45;&gt;Node5</title>
<path fill="none" stroke="#191970" d="M532.0149,-141.7774C599.3892,-131.9345 681.8171,-110.6514 645,-67 630.8146,-50.1814 508.4613,-33.5199 424.1867,-23.8837"/>
<polygon fill="#191970" stroke="#191970" points="424.4379,-20.3899 414.1079,-22.7438 423.6512,-27.3455 424.4379,-20.3899"/>
</g>
<!-- Node8&#45;&gt;Node7 -->
<g id="edge17" class="edge">
<title>Node8&#45;&gt;Node7</title>
<path fill="none" stroke="#191970" d="M379.7697,-138.3347C342.8228,-130.6892 298.8112,-118.1583 263,-98 235.9866,-82.794 211.1351,-57.1279 195.168,-38.4541"/>
<polygon fill="#191970" stroke="#191970" points="197.7775,-36.1184 188.685,-30.6799 192.4015,-40.6015 197.7775,-36.1184"/>
</g>
<!-- Node9 -->
<g id="node10" class="node">
<title>Node9</title>
<polygon fill="#ffffff" stroke="#bfbfbf" points="592,-73 592,-92 636,-92 636,-73 592,-73"/>
<text text-anchor="middle" x="614" y="-80" font-family="Helvetica,sans-Serif" font-size="10.00" fill="#000000">string</text>
</g>
<!-- Node8&#45;&gt;Node9 -->
<g id="edge10" class="edge">
<title>Node8&#45;&gt;Node9</title>
<path fill="none" stroke="#191970" d="M495.5268,-134.3941C520.7621,-124.5237 554.0555,-111.0806 583,-98 584.0144,-97.5416 585.0441,-97.0685 586.0815,-96.5852"/>
<polygon fill="#191970" stroke="#191970" points="587.9363,-99.5767 595.4259,-92.0829 584.8978,-93.2705 587.9363,-99.5767"/>
</g>
<!-- Node10 -->
<g id="node11" class="node">
<title>Node10</title>
<g id="a_node11"><a doxygen="/__w/maliput-documentation/maliput-documentation/maliput_ws/build/maliput_documentation/docs/docs/sphinx/from_doxygen/html/deps/maliput/maliput.tag:../../maliput/html/" xlink:href="../../maliput/html/assertion__error_8h.html" target="_top" xlink:title="maliput/common/assertion\l_error.h">
<polygon fill="#ffffff" stroke="#000000" points="692,-67.5 692,-97.5 840,-97.5 840,-67.5 692,-67.5"/>
<text text-anchor="start" x="700" y="-85.5" font-family="Helvetica,sans-Serif" font-size="10.00" fill="#000000">maliput/common/assertion</text>
<text text-anchor="middle" x="766" y="-74.5" font-family="Helvetica,sans-Serif" font-size="10.00" fill="#000000">_error.h</text>
</a>
</g>
</g>
<!-- Node8&#45;&gt;Node10 -->
<g id="edge11" class="edge">
<title>Node8&#45;&gt;Node10</title>
<path fill="none" stroke="#191970" d="M525.5701,-134.4639C573.2504,-124.1588 636.6156,-110.4637 686.3246,-99.7202"/>
<polygon fill="#191970" stroke="#191970" points="687.3596,-103.0774 696.3945,-97.5438 685.8808,-96.2353 687.3596,-103.0774"/>
</g>
<!-- Node11 -->
<g id="node12" class="node">
<title>Node11</title>
<g id="a_node12"><a doxygen="/__w/maliput-documentation/maliput-documentation/maliput_ws/build/maliput_documentation/docs/docs/sphinx/from_doxygen/html/deps/maliput/maliput.tag:../../maliput/html/" xlink:href="../../maliput/html/logger_8h.html" target="_top" xlink:title="maliput/common/logger.h">
<polygon fill="#ffffff" stroke="#000000" points="272.5,-73 272.5,-92 415.5,-92 415.5,-73 272.5,-73"/>
<text text-anchor="middle" x="344" y="-80" font-family="Helvetica,sans-Serif" font-size="10.00" fill="#000000">maliput/common/logger.h</text>
</a>
</g>
</g>
<!-- Node8&#45;&gt;Node11 -->
<g id="edge12" class="edge">
<title>Node8&#45;&gt;Node11</title>
<path fill="none" stroke="#191970" d="M430.865,-134.4639C412.3268,-123.3741 387.226,-108.3584 368.7738,-97.32"/>
<polygon fill="#191970" stroke="#191970" points="370.4328,-94.2341 360.0543,-92.1039 366.8392,-100.2412 370.4328,-94.2341"/>
</g>
<!-- Node12 -->
<g id="node13" class="node">
<title>Node12</title>
<g id="a_node13"><a doxygen="/__w/maliput-documentation/maliput-documentation/maliput_ws/build/maliput_documentation/docs/docs/sphinx/from_doxygen/html/deps/maliput/maliput.tag:../../maliput/html/" xlink:href="../../maliput/html/maliput__abort_8h.html" target="_top" xlink:title="maliput/common/maliput\l_abort.h">
<polygon fill="#ffffff" stroke="#000000" points="434,-67.5 434,-97.5 574,-97.5 574,-67.5 434,-67.5"/>
<text text-anchor="start" x="442" y="-85.5" font-family="Helvetica,sans-Serif" font-size="10.00" fill="#000000">maliput/common/maliput</text>
<text text-anchor="middle" x="504" y="-74.5" font-family="Helvetica,sans-Serif" font-size="10.00" fill="#000000">_abort.h</text>
</a>
</g>
</g>
<!-- Node8&#45;&gt;Node12 -->
<g id="edge15" class="edge">
<title>Node8&#45;&gt;Node12</title>
<path fill="none" stroke="#191970" d="M466.8919,-134.2967C472.9063,-125.9016 480.5049,-115.2952 487.2574,-105.8698"/>
<polygon fill="#191970" stroke="#191970" points="490.1725,-107.8107 493.1512,-97.6432 484.4821,-103.734 490.1725,-107.8107"/>
</g>
<!-- Node11&#45;&gt;Node5 -->
<g id="edge13" class="edge">
<title>Node11&#45;&gt;Node5</title>
<path fill="none" stroke="#191970" d="M344,-72.9005C344,-64.5099 344,-51.9451 344,-40.7085"/>
<polygon fill="#191970" stroke="#191970" points="347.5001,-40.5217 344,-30.5218 340.5001,-40.5218 347.5001,-40.5217"/>
</g>
<!-- Node11&#45;&gt;Node7 -->
<g id="edge14" class="edge">
<title>Node11&#45;&gt;Node7</title>
<path fill="none" stroke="#191970" d="M320.073,-72.9005C295.0623,-62.8663 255.1728,-46.8627 223.8591,-34.2997"/>
<polygon fill="#191970" stroke="#191970" points="225.0265,-30.997 214.4423,-30.5218 222.42,-37.4936 225.0265,-30.997"/>
</g>
<!-- Node13&#45;&gt;Node1 -->
<g id="edge19" class="edge">
<title>Node13&#45;&gt;Node1</title>
<path fill="none" stroke="#191970" d="M213.3139,-201.4639C195.1898,-190.4247 170.6791,-175.4954 152.58,-164.4715"/>
<polygon fill="#191970" stroke="#191970" points="154.1288,-161.3167 143.7676,-159.1039 150.4874,-167.2951 154.1288,-161.3167"/>
</g>
<!-- Node13&#45;&gt;Node4 -->
<g id="edge20" class="edge">
<title>Node13&#45;&gt;Node4</title>
<path fill="none" stroke="#191970" d="M239.3615,-201.2967C240.0673,-193.4156 240.9476,-183.5857 241.751,-174.6135"/>
<polygon fill="#191970" stroke="#191970" points="245.2379,-174.9155 242.6439,-164.6432 238.2658,-174.2911 245.2379,-174.9155"/>
</g>
<!-- Node13&#45;&gt;Node8 -->
<g id="edge21" class="edge">
<title>Node13&#45;&gt;Node8</title>
<path fill="none" stroke="#191970" d="M286.9235,-201.4639C319.4864,-191.456 362.4522,-178.2509 396.9219,-167.657"/>
<polygon fill="#191970" stroke="#191970" points="398.3327,-170.8851 406.8632,-164.6017 396.2762,-164.194 398.3327,-170.8851"/>
</g>
</g>
</svg>
        <g id="navigator" transform="translate(0 0)" fill="#404254">
                <rect fill="#f2f5e9" fill-opacity="0.5" stroke="#606060" stroke-width=".5" x="0" y="0" width="60" height="60"/>
                <use id="zoomplus" xlink:href="#zoomPlus" x="17" y="9" onmousedown="handleZoom(evt,'in')"/>
                <use id="zoomminus" xlink:href="#zoomMin" x="42" y="9" onmousedown="handleZoom(evt,'out')"/>
                <use id="reset" xlink:href="#resetDef" x="30" y="36" onmousedown="handleReset()"/>
                <g id="arrowUp" xlink:href="#dirArrow" transform="translate(30 24)" onmousedown="handlePan(0,-1)">
                  <use xlink:href="#rim" fill="#404040">
                        <set attributeName="fill" to="#808080" begin="arrowUp.mouseover" end="arrowUp.mouseout"/>
                  </use>
                  <path fill="none" stroke="white" stroke-width="1.5" d="M0,-3.0v7 M-2.5,-0.5L0,-3.0L2.5,-0.5"/>
                </g>
                <g id="arrowRight" xlink:href="#dirArrow" transform="rotate(90) translate(36 -43)" onmousedown="handlePan(1,0)">
                  <use xlink:href="#rim" fill="#404040">
                        <set attributeName="fill" to="#808080" begin="arrowRight.mouseover" end="arrowRight.mouseout"/>
                  </use>
                  <path fill="none" stroke="white" stroke-width="1.5" d="M0,-3.0v7 M-2.5,-0.5L0,-3.0L2.5,-0.5"/>
                </g>
                <g id="arrowDown" xlink:href="#dirArrow" transform="rotate(180) translate(-30 -48)" onmousedown="handlePan(0,1)">
                  <use xlink:href="#rim" fill="#404040">
                        <set attributeName="fill" to="#808080" begin="arrowDown.mouseover" end="arrowDown.mouseout"/>
                  </use>
                  <path fill="none" stroke="white" stroke-width="1.5" d="M0,-3.0v7 M-2.5,-0.5L0,-3.0L2.5,-0.5"/>
                </g>
                <g id="arrowLeft" xlink:href="#dirArrow" transform="rotate(270) translate(-36 17)" onmousedown="handlePan(-1,0)">
                  <use xlink:href="#rim" fill="#404040">
                        <set attributeName="fill" to="#808080" begin="arrowLeft.mouseover" end="arrowLeft.mouseout"/>
                  </use>
                  <path fill="none" stroke="white" stroke-width="1.5" d="M0,-3.0v7 M-2.5,-0.5L0,-3.0L2.5,-0.5"/>
                </g>
        </g>
        <svg viewBox="0 0 15 15" width="100%" height="30px" preserveAspectRatio="xMaxYMin meet">
         <g id="arrow_out" transform="scale(0.3 0.3)">
          <a xlink:href="junction_8h__incl_org.svg" target="_base">
           <rect id="button" ry="5" rx="5" y="6" x="6" height="38" width="38"
                fill="#f2f5e9" fill-opacity="0.5" stroke="#606060" stroke-width="1.0"/>
           <path id="arrow"
             d="M 11.500037,31.436501 C 11.940474,20.09759 22.043105,11.32322 32.158766,21.979434 L 37.068811,17.246167 C 37.068811,17.246167 37.088388,32 37.088388,32 L 22.160133,31.978069 C 22.160133,31.978069 26.997745,27.140456 26.997745,27.140456 C 18.528582,18.264221 13.291696,25.230495 11.500037,31.436501 z"
             style="fill:#404040;"/>
          </a>
         </g>
        </svg>
</svg>
