<?xml version="1.0" encoding="UTF-8" standalone="no"?>
<!DOCTYPE svg PUBLIC "-//W3C//DTD SVG 1.1//EN"
 "http://www.w3.org/Graphics/SVG/1.1/DTD/svg11.dtd">
<!-- Generated by graphviz version 2.40.1 (20161225.0304)
 -->
<!-- Title: lane_width.h Pages: 1 -->
<svg width="1650pt" height="476pt"
 viewBox="0.00 0.00 1649.82 476.00" xmlns="http://www.w3.org/2000/svg" xmlns:xlink="http://www.w3.org/1999/xlink">
<g id="graph0" class="graph" transform="scale(1 1) rotate(0) translate(4 472)">
<title>lane_width.h</title>
<polygon fill="#ffffff" stroke="transparent" points="-4,4 -4,-472 1645.8245,-472 1645.8245,4 -4,4"/>
<!-- Node1 -->
<g id="node1" class="node">
<title>Node1</title>
<polygon fill="#bfbfbf" stroke="#000000" points="1247.6633,-448.5 1247.6633,-467.5 1326.6633,-467.5 1326.6633,-448.5 1247.6633,-448.5"/>
<text text-anchor="middle" x="1287.1633" y="-455.5" font-family="Helvetica,sans-Serif" font-size="10.00" fill="#000000">lane_width.h</text>
</g>
<!-- Node2 -->
<g id="node2" class="node">
<title>Node2</title>
<g id="a_node2"><a xlink:href="road__curve__factory_8h.html" target="_top" xlink:title="road_curve_factory.h">
<polygon fill="#ffffff" stroke="#000000" points="361.6633,-112.5 361.6633,-131.5 480.6633,-131.5 480.6633,-112.5 361.6633,-112.5"/>
<text text-anchor="middle" x="421.1633" y="-119.5" font-family="Helvetica,sans-Serif" font-size="10.00" fill="#000000">road_curve_factory.h</text>
</a>
</g>
</g>
<!-- Node1&#45;&gt;Node2 -->
<g id="edge1" class="edge">
<title>Node1&#45;&gt;Node2</title>
<path fill="none" stroke="#191970" d="M1237.2197,-455.7216C1071.0364,-447.4844 547.1633,-415.9688 547.1633,-346 547.1633,-346 547.1633,-346 547.1633,-234 547.1633,-181.0253 484.1768,-146.9721 447.2706,-131.5659"/>
<polygon fill="#191970" stroke="#191970" points="1237.4804,-459.2385 1247.6393,-456.2307 1237.8221,-452.2468 1237.4804,-459.2385"/>
</g>
<!-- Node7 -->
<g id="node7" class="node">
<title>Node7</title>
<g id="a_node7"><a xlink:href="xodr_2lane_8h.html" target="_top" xlink:title="lane.h">
<polygon fill="#ffffff" stroke="#000000" points="1295.6633,-392.5 1295.6633,-411.5 1342.6633,-411.5 1342.6633,-392.5 1295.6633,-392.5"/>
<text text-anchor="middle" x="1319.1633" y="-399.5" font-family="Helvetica,sans-Serif" font-size="10.00" fill="#000000">lane.h</text>
</a>
</g>
</g>
<!-- Node1&#45;&gt;Node7 -->
<g id="edge8" class="edge">
<title>Node1&#45;&gt;Node7</title>
<path fill="none" stroke="#191970" d="M1297.8278,-439.3372C1303.1287,-430.0605 1309.312,-419.2398 1313.6532,-411.6427"/>
<polygon fill="#191970" stroke="#191970" points="1294.6599,-437.8266 1292.7373,-448.2455 1300.7376,-441.2996 1294.6599,-437.8266"/>
</g>
<!-- Node19 -->
<g id="node19" class="node">
<title>Node19</title>
<g id="a_node19"><a xlink:href="parser_8cc.html" target="_top" xlink:title="parser.cc">
<polygon fill="#ffffff" stroke="#000000" points="1287.6633,-168.5 1287.6633,-187.5 1348.6633,-187.5 1348.6633,-168.5 1287.6633,-168.5"/>
<text text-anchor="middle" x="1318.1633" y="-175.5" font-family="Helvetica,sans-Serif" font-size="10.00" fill="#000000">parser.cc</text>
</a>
</g>
</g>
<!-- Node1&#45;&gt;Node19 -->
<g id="edge50" class="edge">
<title>Node1&#45;&gt;Node19</title>
<path fill="none" stroke="#191970" d="M1279.882,-438.7776C1272.1905,-416.7143 1261.1633,-379.2796 1261.1633,-346 1261.1633,-346 1261.1633,-346 1261.1633,-290 1261.1633,-248.1099 1293.2258,-206.055 1309.2571,-187.6456"/>
<polygon fill="#191970" stroke="#191970" points="1276.6304,-440.0781 1283.3269,-448.2883 1283.212,-437.6941 1276.6304,-440.0781"/>
</g>
<!-- Node34 -->
<g id="node34" class="node">
<title>Node34</title>
<g id="a_node34"><a xlink:href="lane__width_8cc.html" target="_top" xlink:title="lane_width.cc">
<polygon fill="#ffffff" stroke="#000000" points="1360.6633,-392.5 1360.6633,-411.5 1443.6633,-411.5 1443.6633,-392.5 1360.6633,-392.5"/>
<text text-anchor="middle" x="1402.1633" y="-399.5" font-family="Helvetica,sans-Serif" font-size="10.00" fill="#000000">lane_width.cc</text>
</a>
</g>
</g>
<!-- Node1&#45;&gt;Node34 -->
<g id="edge49" class="edge">
<title>Node1&#45;&gt;Node34</title>
<path fill="none" stroke="#191970" d="M1315.9666,-443.9741C1336.7883,-433.8348 1364.3611,-420.408 1382.6521,-411.5011"/>
<polygon fill="#191970" stroke="#191970" points="1314.3909,-440.8484 1306.9325,-448.3733 1317.4556,-447.1419 1314.3909,-440.8484"/>
</g>
<!-- Node3 -->
<g id="node3" class="node">
<title>Node3</title>
<g id="a_node3"><a xlink:href="road__curve__factory_8cc.html" target="_top" xlink:title="road_curve_factory.cc">
<polygon fill="#ffffff" stroke="#000000" points="390.1633,-56.5 390.1633,-75.5 514.1633,-75.5 514.1633,-56.5 390.1633,-56.5"/>
<text text-anchor="middle" x="452.1633" y="-63.5" font-family="Helvetica,sans-Serif" font-size="10.00" fill="#000000">road_curve_factory.cc</text>
</a>
</g>
</g>
<!-- Node2&#45;&gt;Node3 -->
<g id="edge2" class="edge">
<title>Node2&#45;&gt;Node3</title>
<path fill="none" stroke="#191970" d="M431.4945,-103.3372C436.6298,-94.0605 442.6199,-83.2398 446.8254,-75.6427"/>
<polygon fill="#191970" stroke="#191970" points="428.3442,-101.8015 426.5631,-112.2455 434.4685,-105.1917 428.3442,-101.8015"/>
</g>
<!-- Node4 -->
<g id="node4" class="node">
<title>Node4</title>
<g id="a_node4"><a xlink:href="road__geometry__builder_8cc.html" target="_top" xlink:title="road_geometry_builder.cc">
<polygon fill="#ffffff" stroke="#000000" points="196.6633,-.5 196.6633,-19.5 339.6633,-19.5 339.6633,-.5 196.6633,-.5"/>
<text text-anchor="middle" x="268.1633" y="-7.5" font-family="Helvetica,sans-Serif" font-size="10.00" fill="#000000">road_geometry_builder.cc</text>
</a>
</g>
</g>
<!-- Node2&#45;&gt;Node4 -->
<g id="edge3" class="edge">
<title>Node2&#45;&gt;Node4</title>
<path fill="none" stroke="#191970" d="M402.4482,-105.0867C386.8078,-91.2691 363.6693,-71.5514 342.1633,-56 323.286,-42.3494 300.3415,-28.4759 285.0545,-19.5874"/>
<polygon fill="#191970" stroke="#191970" points="400.514,-108.0512 410.3079,-112.0922 405.1716,-102.8256 400.514,-108.0512"/>
</g>
<!-- Node5 -->
<g id="node5" class="node">
<title>Node5</title>
<g id="a_node5"><a xlink:href="road__geometry__builder_8h.html" target="_top" xlink:title="road_geometry_builder.h">
<polygon fill="#ffffff" stroke="#000000" points="761.6633,-56.5 761.6633,-75.5 900.6633,-75.5 900.6633,-56.5 761.6633,-56.5"/>
<text text-anchor="middle" x="831.1633" y="-63.5" font-family="Helvetica,sans-Serif" font-size="10.00" fill="#000000">road_geometry_builder.h</text>
</a>
</g>
</g>
<!-- Node2&#45;&gt;Node5 -->
<g id="edge4" class="edge">
<title>Node2&#45;&gt;Node5</title>
<path fill="none" stroke="#191970" d="M490.9791,-111.8963C591.0384,-97.9289 694.8709,-84.0328 761.5818,-75.1826"/>
<polygon fill="#191970" stroke="#191970" points="490.4164,-108.4408 480.9973,-113.2917 491.3856,-115.3734 490.4164,-108.4408"/>
</g>
<!-- Node6 -->
<g id="node6" class="node">
<title>Node6</title>
<g id="a_node6"><a xlink:href="road__network__builder_8cc.html" target="_top" xlink:title="road_network_builder.cc">
<polygon fill="#ffffff" stroke="#000000" points="763.1633,-.5 763.1633,-19.5 899.1633,-19.5 899.1633,-.5 763.1633,-.5"/>
<text text-anchor="middle" x="831.1633" y="-7.5" font-family="Helvetica,sans-Serif" font-size="10.00" fill="#000000">road_network_builder.cc</text>
</a>
</g>
</g>
<!-- Node2&#45;&gt;Node6 -->
<g id="edge7" class="edge">
<title>Node2&#45;&gt;Node6</title>
<path fill="none" stroke="#191970" d="M453.0041,-108.2361C473.2396,-99.3425 499.9096,-87.3499 523.1633,-76 540.3146,-67.6286 543.087,-62.1233 561.1633,-56 627.8175,-33.4211 707.6445,-21.5746 763.1355,-15.5976"/>
<polygon fill="#191970" stroke="#191970" points="451.3893,-105.1222 443.6304,-112.3367 454.1949,-111.5354 451.3893,-105.1222"/>
</g>
<!-- Node5&#45;&gt;Node4 -->
<g id="edge5" class="edge">
<title>Node5&#45;&gt;Node4</title>
<path fill="none" stroke="#191970" d="M751.4258,-55.8326C599.1239,-38.986 432.3864,-24.0383 339.7331,-16.0455"/>
<polygon fill="#191970" stroke="#191970" points="751.1105,-59.319 761.4359,-56.945 751.8836,-52.3619 751.1105,-59.319"/>
</g>
<!-- Node5&#45;&gt;Node6 -->
<g id="edge6" class="edge">
<title>Node5&#45;&gt;Node6</title>
<path fill="none" stroke="#191970" d="M831.1633,-46.1575C831.1633,-37.155 831.1633,-26.9199 831.1633,-19.6427"/>
<polygon fill="#191970" stroke="#191970" points="827.6634,-46.2455 831.1633,-56.2455 834.6634,-46.2456 827.6634,-46.2455"/>
</g>
<!-- Node8 -->
<g id="node8" class="node">
<title>Node8</title>
<g id="a_node8"><a xlink:href="builder__tools_8h.html" target="_top" xlink:title="builder_tools.h">
<polygon fill="#ffffff" stroke="#000000" points="1219.6633,-112.5 1219.6633,-131.5 1308.6633,-131.5 1308.6633,-112.5 1219.6633,-112.5"/>
<text text-anchor="middle" x="1264.1633" y="-119.5" font-family="Helvetica,sans-Serif" font-size="10.00" fill="#000000">builder_tools.h</text>
</a>
</g>
</g>
<!-- Node7&#45;&gt;Node8 -->
<g id="edge9" class="edge">
<title>Node7&#45;&gt;Node8</title>
<path fill="none" stroke="#191970" d="M1352.4488,-390.2994C1378.1237,-380.6625 1410.7883,-366.8661 1420.1633,-356 1440.1034,-332.8884 1439.1633,-320.5246 1439.1633,-290 1439.1633,-290 1439.1633,-290 1439.1633,-234 1439.1633,-172.1375 1360.6241,-142.896 1308.776,-130.3321"/>
<polygon fill="#191970" stroke="#191970" points="1351.1882,-387.0338 1343.0141,-393.7744 1353.6075,-393.6024 1351.1882,-387.0338"/>
</g>
<!-- Node14 -->
<g id="node14" class="node">
<title>Node14</title>
<g id="a_node14"><a xlink:href="xodr_2lane_8cc.html" target="_top" xlink:title="lane.cc">
<polygon fill="#ffffff" stroke="#000000" points="1359.6633,-336.5 1359.6633,-355.5 1410.6633,-355.5 1410.6633,-336.5 1359.6633,-336.5"/>
<text text-anchor="middle" x="1385.1633" y="-343.5" font-family="Helvetica,sans-Serif" font-size="10.00" fill="#000000">lane.cc</text>
</a>
</g>
</g>
<!-- Node7&#45;&gt;Node14 -->
<g id="edge17" class="edge">
<title>Node7&#45;&gt;Node14</title>
<path fill="none" stroke="#191970" d="M1338.4388,-385.645C1349.9172,-375.9058 1364.0911,-363.8795 1373.7987,-355.6427"/>
<polygon fill="#191970" stroke="#191970" points="1336.0203,-383.1069 1330.6596,-392.2455 1340.5492,-388.4445 1336.0203,-383.1069"/>
</g>
<!-- Node15 -->
<g id="node15" class="node">
<title>Node15</title>
<g id="a_node15"><a xlink:href="lane__section_8h.html" target="_top" xlink:title="lane_section.h">
<polygon fill="#ffffff" stroke="#000000" points="1145.6633,-336.5 1145.6633,-355.5 1232.6633,-355.5 1232.6633,-336.5 1145.6633,-336.5"/>
<text text-anchor="middle" x="1189.1633" y="-343.5" font-family="Helvetica,sans-Serif" font-size="10.00" fill="#000000">lane_section.h</text>
</a>
</g>
</g>
<!-- Node7&#45;&gt;Node15 -->
<g id="edge18" class="edge">
<title>Node7&#45;&gt;Node15</title>
<path fill="none" stroke="#191970" d="M1287.5531,-388.3833C1263.9099,-378.1985 1232.1757,-364.5284 1211.2195,-355.5011"/>
<polygon fill="#191970" stroke="#191970" points="1286.2467,-391.6314 1296.8155,-392.3733 1289.0161,-385.2025 1286.2467,-391.6314"/>
</g>
<!-- Node7&#45;&gt;Node19 -->
<g id="edge48" class="edge">
<title>Node7&#45;&gt;Node19</title>
<path fill="none" stroke="#191970" d="M1319.0746,-382.1177C1318.8672,-335.6713 1318.3572,-221.4223 1318.2061,-187.5891"/>
<polygon fill="#191970" stroke="#191970" points="1315.5757,-382.3908 1319.1204,-392.375 1322.5756,-382.3594 1315.5757,-382.3908"/>
</g>
<!-- Node8&#45;&gt;Node5 -->
<g id="edge12" class="edge">
<title>Node8&#45;&gt;Node5</title>
<path fill="none" stroke="#191970" d="M1209.3009,-114.9046C1130.8762,-104.7619 986.7323,-86.1198 900.8543,-75.0132"/>
<polygon fill="#191970" stroke="#191970" points="1209.0892,-118.4063 1219.4556,-116.2179 1209.9871,-111.4641 1209.0892,-118.4063"/>
</g>
<!-- Node8&#45;&gt;Node6 -->
<g id="edge13" class="edge">
<title>Node8&#45;&gt;Node6</title>
<path fill="none" stroke="#191970" d="M1319.1283,-120.6589C1433.0631,-116.9154 1680.8206,-103.282 1636.1633,-56 1611.0221,-29.3811 1089.1486,-15.5446 899.3809,-11.3787"/>
<polygon fill="#191970" stroke="#191970" points="1318.747,-117.1691 1308.8619,-120.9813 1318.9668,-124.1656 1318.747,-117.1691"/>
</g>
<!-- Node9 -->
<g id="node9" class="node">
<title>Node9</title>
<g id="a_node9"><a xlink:href="builder__tools_8cc.html" target="_top" xlink:title="builder_tools.cc">
<polygon fill="#ffffff" stroke="#000000" points="918.6633,-56.5 918.6633,-75.5 1011.6633,-75.5 1011.6633,-56.5 918.6633,-56.5"/>
<text text-anchor="middle" x="965.1633" y="-63.5" font-family="Helvetica,sans-Serif" font-size="10.00" fill="#000000">builder_tools.cc</text>
</a>
</g>
</g>
<!-- Node8&#45;&gt;Node9 -->
<g id="edge10" class="edge">
<title>Node8&#45;&gt;Node9</title>
<path fill="none" stroke="#191970" d="M1209.5415,-111.7698C1152.8702,-101.1558 1065.1995,-84.7359 1011.7115,-74.7181"/>
<polygon fill="#191970" stroke="#191970" points="1208.9266,-115.2154 1219.4,-113.6162 1210.2153,-108.3351 1208.9266,-115.2154"/>
</g>
<!-- Node10 -->
<g id="node10" class="node">
<title>Node10</title>
<g id="a_node10"><a xlink:href="direction__usage__builder_8cc.html" target="_top" xlink:title="direction_usage_builder.cc">
<polygon fill="#ffffff" stroke="#000000" points="1030.1633,-56.5 1030.1633,-75.5 1176.1633,-75.5 1176.1633,-56.5 1030.1633,-56.5"/>
<text text-anchor="middle" x="1103.1633" y="-63.5" font-family="Helvetica,sans-Serif" font-size="10.00" fill="#000000">direction_usage_builder.cc</text>
</a>
</g>
</g>
<!-- Node8&#45;&gt;Node10 -->
<g id="edge11" class="edge">
<title>Node8&#45;&gt;Node10</title>
<path fill="none" stroke="#191970" d="M1226.9523,-109.057C1197.4874,-98.8084 1157.0092,-84.729 1130.4791,-75.5011"/>
<polygon fill="#191970" stroke="#191970" points="1225.8916,-112.3937 1236.4864,-112.3733 1228.1913,-105.7822 1225.8916,-112.3937"/>
</g>
<!-- Node11 -->
<g id="node11" class="node">
<title>Node11</title>
<g id="a_node11"><a xlink:href="road__rulebook__builder_8cc.html" target="_top" xlink:title="road_rulebook_builder.cc">
<polygon fill="#ffffff" stroke="#000000" points="1194.6633,-56.5 1194.6633,-75.5 1333.6633,-75.5 1333.6633,-56.5 1194.6633,-56.5"/>
<text text-anchor="middle" x="1264.1633" y="-63.5" font-family="Helvetica,sans-Serif" font-size="10.00" fill="#000000">road_rulebook_builder.cc</text>
</a>
</g>
</g>
<!-- Node8&#45;&gt;Node11 -->
<g id="edge14" class="edge">
<title>Node8&#45;&gt;Node11</title>
<path fill="none" stroke="#191970" d="M1264.1633,-102.1575C1264.1633,-93.155 1264.1633,-82.9199 1264.1633,-75.6427"/>
<polygon fill="#191970" stroke="#191970" points="1260.6634,-102.2455 1264.1633,-112.2455 1267.6634,-102.2456 1260.6634,-102.2455"/>
</g>
<!-- Node12 -->
<g id="node12" class="node">
<title>Node12</title>
<g id="a_node12"><a xlink:href="rule__registry__builder_8cc.html" target="_top" xlink:title="rule_registry_builder.cc">
<polygon fill="#ffffff" stroke="#000000" points="1351.6633,-56.5 1351.6633,-75.5 1482.6633,-75.5 1482.6633,-56.5 1351.6633,-56.5"/>
<text text-anchor="middle" x="1417.1633" y="-63.5" font-family="Helvetica,sans-Serif" font-size="10.00" fill="#000000">rule_registry_builder.cc</text>
</a>
</g>
</g>
<!-- Node8&#45;&gt;Node12 -->
<g id="edge15" class="edge">
<title>Node8&#45;&gt;Node12</title>
<path fill="none" stroke="#191970" d="M1299.8912,-108.9231C1327.8604,-98.686 1366.1026,-84.6889 1391.2049,-75.5011"/>
<polygon fill="#191970" stroke="#191970" points="1298.6527,-105.6493 1290.465,-112.3733 1301.0587,-112.2228 1298.6527,-105.6493"/>
</g>
<!-- Node13 -->
<g id="node13" class="node">
<title>Node13</title>
<g id="a_node13"><a xlink:href="speed__limit__builder_8cc.html" target="_top" xlink:title="speed_limit_builder.cc">
<polygon fill="#ffffff" stroke="#000000" points="1501.1633,-56.5 1501.1633,-75.5 1627.1633,-75.5 1627.1633,-56.5 1501.1633,-56.5"/>
<text text-anchor="middle" x="1564.1633" y="-63.5" font-family="Helvetica,sans-Serif" font-size="10.00" fill="#000000">speed_limit_builder.cc</text>
</a>
</g>
</g>
<!-- Node8&#45;&gt;Node13 -->
<g id="edge16" class="edge">
<title>Node8&#45;&gt;Node13</title>
<path fill="none" stroke="#191970" d="M1318.7233,-111.8155C1374.0446,-101.4888 1458.9894,-85.6325 1513.0424,-75.5426"/>
<polygon fill="#191970" stroke="#191970" points="1317.9404,-108.4011 1308.7524,-113.6767 1319.2249,-115.2822 1317.9404,-108.4011"/>
</g>
<!-- Node16 -->
<g id="node16" class="node">
<title>Node16</title>
<g id="a_node16"><a xlink:href="lane__section_8cc.html" target="_top" xlink:title="lane_section.cc">
<polygon fill="#ffffff" stroke="#000000" points="1053.1633,-280.5 1053.1633,-299.5 1145.1633,-299.5 1145.1633,-280.5 1053.1633,-280.5"/>
<text text-anchor="middle" x="1099.1633" y="-287.5" font-family="Helvetica,sans-Serif" font-size="10.00" fill="#000000">lane_section.cc</text>
</a>
</g>
</g>
<!-- Node15&#45;&gt;Node16 -->
<g id="edge19" class="edge">
<title>Node15&#45;&gt;Node16</title>
<path fill="none" stroke="#191970" d="M1164.6849,-330.769C1148.7367,-320.8456 1128.4123,-308.1994 1114.6605,-299.6427"/>
<polygon fill="#191970" stroke="#191970" points="1163.1469,-333.9342 1173.4865,-336.2455 1166.845,-327.9908 1163.1469,-333.9342"/>
</g>
<!-- Node17 -->
<g id="node17" class="node">
<title>Node17</title>
<g id="a_node17"><a xlink:href="lanes_8h.html" target="_top" xlink:title="lanes.h">
<polygon fill="#ffffff" stroke="#000000" points="1163.1633,-280.5 1163.1633,-299.5 1215.1633,-299.5 1215.1633,-280.5 1163.1633,-280.5"/>
<text text-anchor="middle" x="1189.1633" y="-287.5" font-family="Helvetica,sans-Serif" font-size="10.00" fill="#000000">lanes.h</text>
</a>
</g>
</g>
<!-- Node15&#45;&gt;Node17 -->
<g id="edge20" class="edge">
<title>Node15&#45;&gt;Node17</title>
<path fill="none" stroke="#191970" d="M1189.1633,-326.1575C1189.1633,-317.155 1189.1633,-306.9199 1189.1633,-299.6427"/>
<polygon fill="#191970" stroke="#191970" points="1185.6634,-326.2455 1189.1633,-336.2455 1192.6634,-326.2456 1185.6634,-326.2455"/>
</g>
<!-- Node15&#45;&gt;Node19 -->
<g id="edge47" class="edge">
<title>Node15&#45;&gt;Node19</title>
<path fill="none" stroke="#191970" d="M1202.5642,-328.5477C1229.5113,-293.4538 1289.4849,-215.3486 1310.6169,-187.8279"/>
<polygon fill="#191970" stroke="#191970" points="1199.7828,-326.4231 1196.4685,-336.4862 1205.3349,-330.6863 1199.7828,-326.4231"/>
</g>
<!-- Node18 -->
<g id="node18" class="node">
<title>Node18</title>
<g id="a_node18"><a xlink:href="lanes_8cc.html" target="_top" xlink:title="lanes.cc">
<polygon fill="#ffffff" stroke="#000000" points="1035.1633,-224.5 1035.1633,-243.5 1091.1633,-243.5 1091.1633,-224.5 1035.1633,-224.5"/>
<text text-anchor="middle" x="1063.1633" y="-231.5" font-family="Helvetica,sans-Serif" font-size="10.00" fill="#000000">lanes.cc</text>
</a>
</g>
</g>
<!-- Node17&#45;&gt;Node18 -->
<g id="edge21" class="edge">
<title>Node17&#45;&gt;Node18</title>
<path fill="none" stroke="#191970" d="M1158.2197,-276.2473C1135.3368,-266.0771 1104.762,-252.4883 1084.5409,-243.5011"/>
<polygon fill="#191970" stroke="#191970" points="1156.9435,-279.5102 1167.5032,-280.3733 1159.7865,-273.1135 1156.9435,-279.5102"/>
</g>
<!-- Node17&#45;&gt;Node19 -->
<g id="edge22" class="edge">
<title>Node17&#45;&gt;Node19</title>
<path fill="none" stroke="#191970" d="M1202.4323,-272.381C1213.4958,-258.3512 1230.1458,-238.6969 1247.1633,-224 1263.9481,-209.5041 1285.6341,-196.1047 1300.5997,-187.5517"/>
<polygon fill="#191970" stroke="#191970" points="1199.6609,-270.2434 1196.3123,-280.2951 1205.1984,-274.5255 1199.6609,-270.2434"/>
</g>
<!-- Node20 -->
<g id="node20" class="node">
<title>Node20</title>
<g id="a_node20"><a xlink:href="road__header_8h.html" target="_top" xlink:title="road_header.h">
<polygon fill="#ffffff" stroke="#000000" points="1109.1633,-224.5 1109.1633,-243.5 1195.1633,-243.5 1195.1633,-224.5 1109.1633,-224.5"/>
<text text-anchor="middle" x="1152.1633" y="-231.5" font-family="Helvetica,sans-Serif" font-size="10.00" fill="#000000">road_header.h</text>
</a>
</g>
</g>
<!-- Node17&#45;&gt;Node20 -->
<g id="edge23" class="edge">
<title>Node17&#45;&gt;Node20</title>
<path fill="none" stroke="#191970" d="M1177.0257,-271.6296C1170.8541,-262.2887 1163.6067,-251.3197 1158.5344,-243.6427"/>
<polygon fill="#191970" stroke="#191970" points="1174.2856,-273.8316 1182.7184,-280.2455 1180.126,-269.9728 1174.2856,-273.8316"/>
</g>
<!-- Node20&#45;&gt;Node8 -->
<g id="edge25" class="edge">
<title>Node20&#45;&gt;Node8</title>
<path fill="none" stroke="#191970" d="M1192.293,-220.5043C1209.0088,-213.1529 1227.4455,-202.5311 1240.1633,-188 1254.6171,-171.4855 1260.6105,-145.5651 1262.8952,-131.6304"/>
<polygon fill="#191970" stroke="#191970" points="1190.6153,-217.4102 1182.7061,-224.4597 1193.2851,-223.8811 1190.6153,-217.4102"/>
</g>
<!-- Node20&#45;&gt;Node9 -->
<g id="edge24" class="edge">
<title>Node20&#45;&gt;Node9</title>
<path fill="none" stroke="#191970" d="M1143.3887,-215.2402C1127.7658,-181.9731 1096.3651,-115.7649 1092.1633,-112 1069.8082,-91.9691 1038.0582,-80.4691 1011.897,-73.9769"/>
<polygon fill="#191970" stroke="#191970" points="1140.2695,-216.8323 1147.6831,-224.4013 1146.6077,-213.8612 1140.2695,-216.8323"/>
</g>
<!-- Node20&#45;&gt;Node19 -->
<g id="edge45" class="edge">
<title>Node20&#45;&gt;Node19</title>
<path fill="none" stroke="#191970" d="M1190.53,-221.057C1220.91,-210.8084 1262.6452,-196.729 1289.9993,-187.5011"/>
<polygon fill="#191970" stroke="#191970" points="1189.0563,-217.8603 1180.6997,-224.3733 1191.2939,-224.4931 1189.0563,-217.8603"/>
</g>
<!-- Node21 -->
<g id="node21" class="node">
<title>Node21</title>
<g id="a_node21"><a xlink:href="determine__tolerance_8cc.html" target="_top" xlink:title="determine_tolerance.cc">
<polygon fill="#ffffff" stroke="#000000" points="14.6633,-56.5 14.6633,-75.5 145.6633,-75.5 145.6633,-56.5 14.6633,-56.5"/>
<text text-anchor="middle" x="80.1633" y="-63.5" font-family="Helvetica,sans-Serif" font-size="10.00" fill="#000000">determine_tolerance.cc</text>
</a>
</g>
</g>
<!-- Node20&#45;&gt;Node21 -->
<g id="edge26" class="edge">
<title>Node20&#45;&gt;Node21</title>
<path fill="none" stroke="#191970" d="M1099.1265,-223.9673C930.5373,-200.1388 885.7388,-204.69 720.1633,-188 487.1292,-164.5102 419.0797,-203.8678 196.1633,-132 175.2133,-125.2458 121.4633,-92.1617 95.1409,-75.5517"/>
<polygon fill="#191970" stroke="#191970" points="1098.6925,-227.4407 1109.0865,-225.3874 1099.6807,-220.5108 1098.6925,-227.4407"/>
</g>
<!-- Node22 -->
<g id="node22" class="node">
<title>Node22</title>
<g id="a_node22"><a xlink:href="db__manager_8h.html" target="_top" xlink:title="db_manager.h">
<polygon fill="#ffffff" stroke="#000000" points="729.1633,-168.5 729.1633,-187.5 815.1633,-187.5 815.1633,-168.5 729.1633,-168.5"/>
<text text-anchor="middle" x="772.1633" y="-175.5" font-family="Helvetica,sans-Serif" font-size="10.00" fill="#000000">db_manager.h</text>
</a>
</g>
</g>
<!-- Node20&#45;&gt;Node22 -->
<g id="edge27" class="edge">
<title>Node20&#45;&gt;Node22</title>
<path fill="none" stroke="#191970" d="M1098.9833,-223.8685C991.1132,-206.1311 876.1505,-191.0325 815.2507,-183.3357"/>
<polygon fill="#191970" stroke="#191970" points="1098.6259,-227.3569 1109.0633,-225.5373 1099.7693,-220.4509 1098.6259,-227.3569"/>
</g>
<!-- Node33 -->
<g id="node33" class="node">
<title>Node33</title>
<g id="a_node33"><a xlink:href="road__header_8cc.html" target="_top" xlink:title="road_header.cc">
<polygon fill="#ffffff" stroke="#000000" points="1139.6633,-168.5 1139.6633,-187.5 1230.6633,-187.5 1230.6633,-168.5 1139.6633,-168.5"/>
<text text-anchor="middle" x="1185.1633" y="-175.5" font-family="Helvetica,sans-Serif" font-size="10.00" fill="#000000">road_header.cc</text>
</a>
</g>
</g>
<!-- Node20&#45;&gt;Node33 -->
<g id="edge46" class="edge">
<title>Node20&#45;&gt;Node33</title>
<path fill="none" stroke="#191970" d="M1162.9888,-215.6296C1168.4932,-206.2887 1174.9571,-195.3197 1179.481,-187.6427"/>
<polygon fill="#191970" stroke="#191970" points="1159.9731,-213.8532 1157.9115,-224.2455 1166.0038,-217.4071 1159.9731,-213.8532"/>
</g>
<!-- Node22&#45;&gt;Node5 -->
<g id="edge39" class="edge">
<title>Node22&#45;&gt;Node5</title>
<path fill="none" stroke="#191970" d="M763.3442,-158.9786C758.3156,-145.1879 754.4067,-126.4933 762.1633,-112 771.3344,-94.8636 790.0212,-83.0086 805.6372,-75.6302"/>
<polygon fill="#191970" stroke="#191970" points="760.1876,-160.5051 767.2331,-168.4178 766.6598,-157.8385 760.1876,-160.5051"/>
</g>
<!-- Node22&#45;&gt;Node9 -->
<g id="edge35" class="edge">
<title>Node22&#45;&gt;Node9</title>
<path fill="none" stroke="#191970" d="M825.5582,-170.426C871.4772,-162.8314 932.9542,-149.723 950.1633,-132 965.0614,-116.657 966.3578,-89.7713 965.8624,-75.51"/>
<polygon fill="#191970" stroke="#191970" points="824.75,-167.011 815.4324,-172.0542 825.8613,-173.9222 824.75,-167.011"/>
</g>
<!-- Node23 -->
<g id="node23" class="node">
<title>Node23</title>
<g id="a_node23"><a xlink:href="xodr__query_8cc.html" target="_top" xlink:title="xodr_query.cc">
<polygon fill="#ffffff" stroke="#000000" points="997.6633,-112.5 997.6633,-131.5 1082.6633,-131.5 1082.6633,-112.5 997.6633,-112.5"/>
<text text-anchor="middle" x="1040.1633" y="-119.5" font-family="Helvetica,sans-Serif" font-size="10.00" fill="#000000">xodr_query.cc</text>
</a>
</g>
</g>
<!-- Node22&#45;&gt;Node23 -->
<g id="edge28" class="edge">
<title>Node22&#45;&gt;Node23</title>
<path fill="none" stroke="#191970" d="M825.3049,-166.8958C875.8624,-156.3315 950.9485,-140.6419 997.654,-130.8825"/>
<polygon fill="#191970" stroke="#191970" points="824.2948,-163.5312 815.2222,-169.0026 825.7267,-170.3832 824.2948,-163.5312"/>
</g>
<!-- Node24 -->
<g id="node24" class="node">
<title>Node24</title>
<g id="a_node24"><a xlink:href="xodr__validate_8cc.html" target="_top" xlink:title="xodr_validate.cc">
<polygon fill="#ffffff" stroke="#000000" points="498.6633,-112.5 498.6633,-131.5 595.6633,-131.5 595.6633,-112.5 498.6633,-112.5"/>
<text text-anchor="middle" x="547.1633" y="-119.5" font-family="Helvetica,sans-Serif" font-size="10.00" fill="#000000">xodr_validate.cc</text>
</a>
</g>
</g>
<!-- Node22&#45;&gt;Node24 -->
<g id="edge29" class="edge">
<title>Node22&#45;&gt;Node24</title>
<path fill="none" stroke="#191970" d="M723.8767,-165.982C682.4772,-155.6781 623.6354,-141.0331 585.4281,-131.5237"/>
<polygon fill="#191970" stroke="#191970" points="723.1908,-169.418 733.7401,-168.4369 724.8815,-162.6252 723.1908,-169.418"/>
</g>
<!-- Node25 -->
<g id="node25" class="node">
<title>Node25</title>
<g id="a_node25"><a xlink:href="road__geometry_8h.html" target="_top" xlink:title="road_geometry.h">
<polygon fill="#ffffff" stroke="#000000" points="614.1633,-112.5 614.1633,-131.5 714.1633,-131.5 714.1633,-112.5 614.1633,-112.5"/>
<text text-anchor="middle" x="664.1633" y="-119.5" font-family="Helvetica,sans-Serif" font-size="10.00" fill="#000000">road_geometry.h</text>
</a>
</g>
</g>
<!-- Node22&#45;&gt;Node25 -->
<g id="edge30" class="edge">
<title>Node22&#45;&gt;Node25</title>
<path fill="none" stroke="#191970" d="M744.3863,-163.5971C725.0252,-153.558 699.7248,-140.4393 682.7599,-131.6427"/>
<polygon fill="#191970" stroke="#191970" points="742.8625,-166.7495 753.3512,-168.2455 746.0847,-160.5352 742.8625,-166.7495"/>
</g>
<!-- Node28 -->
<g id="node28" class="node">
<title>Node28</title>
<g id="a_node28"><a xlink:href="determine__tolerance_8h.html" target="_top" xlink:title="determine_tolerance.h">
<polygon fill="#ffffff" stroke="#000000" points="16.6633,-112.5 16.6633,-131.5 143.6633,-131.5 143.6633,-112.5 16.6633,-112.5"/>
<text text-anchor="middle" x="80.1633" y="-119.5" font-family="Helvetica,sans-Serif" font-size="10.00" fill="#000000">determine_tolerance.h</text>
</a>
</g>
</g>
<!-- Node22&#45;&gt;Node28 -->
<g id="edge36" class="edge">
<title>Node22&#45;&gt;Node28</title>
<path fill="none" stroke="#191970" d="M719.161,-173.8795C617.6457,-165.9625 388.7482,-147.9909 196.1633,-132 179.1414,-130.5866 160.7183,-129.0168 143.6734,-127.5477"/>
<polygon fill="#191970" stroke="#191970" points="718.921,-177.3713 729.1628,-174.6591 719.4651,-170.3924 718.921,-177.3713"/>
</g>
<!-- Node29 -->
<g id="node29" class="node">
<title>Node29</title>
<g id="a_node29"><a xlink:href="simplify__geometries_8h.html" target="_top" xlink:title="simplify_geometries.h">
<polygon fill="#ffffff" stroke="#000000" points="205.1633,-112.5 205.1633,-131.5 331.1633,-131.5 331.1633,-112.5 205.1633,-112.5"/>
<text text-anchor="middle" x="268.1633" y="-119.5" font-family="Helvetica,sans-Serif" font-size="10.00" fill="#000000">simplify_geometries.h</text>
</a>
</g>
</g>
<!-- Node22&#45;&gt;Node29 -->
<g id="edge40" class="edge">
<title>Node22&#45;&gt;Node29</title>
<path fill="none" stroke="#191970" d="M718.6279,-172.2995C638.7909,-163.7614 483.8105,-147.0451 352.1633,-132 345.4513,-131.2329 338.4393,-130.4186 331.4517,-129.5989"/>
<polygon fill="#191970" stroke="#191970" points="718.6028,-175.8166 728.9181,-173.3992 719.3466,-168.8563 718.6028,-175.8166"/>
</g>
<!-- Node31 -->
<g id="node31" class="node">
<title>Node31</title>
<g id="a_node31"><a xlink:href="loader_8cc.html" target="_top" xlink:title="loader.cc">
<polygon fill="#ffffff" stroke="#000000" points="770.6633,-112.5 770.6633,-131.5 831.6633,-131.5 831.6633,-112.5 770.6633,-112.5"/>
<text text-anchor="middle" x="801.1633" y="-119.5" font-family="Helvetica,sans-Serif" font-size="10.00" fill="#000000">loader.cc</text>
</a>
</g>
</g>
<!-- Node22&#45;&gt;Node31 -->
<g id="edge43" class="edge">
<title>Node22&#45;&gt;Node31</title>
<path fill="none" stroke="#191970" d="M781.828,-159.3372C786.632,-150.0605 792.2356,-139.2398 796.1698,-131.6427"/>
<polygon fill="#191970" stroke="#191970" points="778.7054,-157.7561 777.2147,-168.2455 784.9213,-160.9751 778.7054,-157.7561"/>
</g>
<!-- Node32 -->
<g id="node32" class="node">
<title>Node32</title>
<g id="a_node32"><a xlink:href="db__manager_8cc.html" target="_top" xlink:title="db_manager.cc">
<polygon fill="#ffffff" stroke="#000000" points="849.6633,-112.5 849.6633,-131.5 940.6633,-131.5 940.6633,-112.5 849.6633,-112.5"/>
<text text-anchor="middle" x="895.1633" y="-119.5" font-family="Helvetica,sans-Serif" font-size="10.00" fill="#000000">db_manager.cc</text>
</a>
</g>
</g>
<!-- Node22&#45;&gt;Node32 -->
<g id="edge44" class="edge">
<title>Node22&#45;&gt;Node32</title>
<path fill="none" stroke="#191970" d="M802.6698,-164.1109C824.9746,-153.9559 854.6432,-140.4482 874.2948,-131.5011"/>
<polygon fill="#191970" stroke="#191970" points="800.9586,-161.0442 793.3078,-168.3733 803.8592,-167.415 800.9586,-161.0442"/>
</g>
<!-- Node25&#45;&gt;Node5 -->
<g id="edge34" class="edge">
<title>Node25&#45;&gt;Node5</title>
<path fill="none" stroke="#191970" d="M702.3631,-109.1905C732.9587,-98.9309 775.1911,-84.7691 802.8296,-75.5011"/>
<polygon fill="#191970" stroke="#191970" points="701.24,-105.8755 692.8716,-112.3733 703.4656,-112.5123 701.24,-105.8755"/>
</g>
<!-- Node25&#45;&gt;Node9 -->
<g id="edge33" class="edge">
<title>Node25&#45;&gt;Node9</title>
<path fill="none" stroke="#191970" d="M724.1887,-110.8325C781.3492,-100.198 866.1986,-84.412 918.4701,-74.6871"/>
<polygon fill="#191970" stroke="#191970" points="723.3963,-107.4198 714.2052,-112.6899 724.6767,-114.3017 723.3963,-107.4198"/>
</g>
<!-- Node26 -->
<g id="node26" class="node">
<title>Node26</title>
<g id="a_node26"><a xlink:href="base_2lane_8cc.html" target="_top" xlink:title="lane.cc">
<polygon fill="#ffffff" stroke="#000000" points="692.6633,-56.5 692.6633,-75.5 743.6633,-75.5 743.6633,-56.5 692.6633,-56.5"/>
<text text-anchor="middle" x="718.1633" y="-63.5" font-family="Helvetica,sans-Serif" font-size="10.00" fill="#000000">lane.cc</text>
</a>
</g>
</g>
<!-- Node25&#45;&gt;Node26 -->
<g id="edge31" class="edge">
<title>Node25&#45;&gt;Node26</title>
<path fill="none" stroke="#191970" d="M680.7603,-104.7884C689.998,-95.2085 701.1537,-83.6396 708.865,-75.6427"/>
<polygon fill="#191970" stroke="#191970" points="677.9913,-102.6176 673.5694,-112.2455 683.0303,-107.4766 677.9913,-102.6176"/>
</g>
<!-- Node27 -->
<g id="node27" class="node">
<title>Node27</title>
<g id="a_node27"><a xlink:href="road__geometry_8cc.html" target="_top" xlink:title="road_geometry.cc">
<polygon fill="#ffffff" stroke="#000000" points="570.1633,-56.5 570.1633,-75.5 674.1633,-75.5 674.1633,-56.5 570.1633,-56.5"/>
<text text-anchor="middle" x="622.1633" y="-63.5" font-family="Helvetica,sans-Serif" font-size="10.00" fill="#000000">road_geometry.cc</text>
</a>
</g>
</g>
<!-- Node25&#45;&gt;Node27 -->
<g id="edge32" class="edge">
<title>Node25&#45;&gt;Node27</title>
<path fill="none" stroke="#191970" d="M650.8217,-104.2112C643.7237,-94.7472 635.2731,-83.4797 629.3953,-75.6427"/>
<polygon fill="#191970" stroke="#191970" points="648.0474,-106.3455 656.8475,-112.2455 653.6475,-102.1455 648.0474,-106.3455"/>
</g>
<!-- Node28&#45;&gt;Node4 -->
<g id="edge38" class="edge">
<title>Node28&#45;&gt;Node4</title>
<path fill="none" stroke="#191970" d="M44.9636,-108.2934C18.0258,-95.7999 -11.8547,-76.2529 5.1633,-56 29.2053,-27.388 127.3059,-16.5698 196.6299,-12.4813"/>
<polygon fill="#191970" stroke="#191970" points="43.7256,-111.5727 54.2875,-112.408 46.5517,-105.1686 43.7256,-111.5727"/>
</g>
<!-- Node28&#45;&gt;Node21 -->
<g id="edge37" class="edge">
<title>Node28&#45;&gt;Node21</title>
<path fill="none" stroke="#191970" d="M80.1633,-102.1575C80.1633,-93.155 80.1633,-82.9199 80.1633,-75.6427"/>
<polygon fill="#191970" stroke="#191970" points="76.6634,-102.2455 80.1633,-112.2455 83.6634,-102.2456 76.6634,-102.2455"/>
</g>
<!-- Node29&#45;&gt;Node4 -->
<g id="edge41" class="edge">
<title>Node29&#45;&gt;Node4</title>
<path fill="none" stroke="#191970" d="M230.1362,-108.1435C215.9048,-100.8855 201.2422,-90.4324 193.1633,-76 179.1845,-51.0277 214.3818,-30.8285 241.1712,-19.6236"/>
<polygon fill="#191970" stroke="#191970" points="228.8122,-111.3882 239.3525,-112.4613 231.782,-105.0494 228.8122,-111.3882"/>
</g>
<!-- Node30 -->
<g id="node30" class="node">
<title>Node30</title>
<g id="a_node30"><a xlink:href="simplify__geometries_8cc.html" target="_top" xlink:title="simplify_geometries.cc">
<polygon fill="#ffffff" stroke="#000000" points="202.6633,-56.5 202.6633,-75.5 333.6633,-75.5 333.6633,-56.5 202.6633,-56.5"/>
<text text-anchor="middle" x="268.1633" y="-63.5" font-family="Helvetica,sans-Serif" font-size="10.00" fill="#000000">simplify_geometries.cc</text>
</a>
</g>
</g>
<!-- Node29&#45;&gt;Node30 -->
<g id="edge42" class="edge">
<title>Node29&#45;&gt;Node30</title>
<path fill="none" stroke="#191970" d="M268.1633,-102.1575C268.1633,-93.155 268.1633,-82.9199 268.1633,-75.6427"/>
<polygon fill="#191970" stroke="#191970" points="264.6634,-102.2455 268.1633,-112.2455 271.6634,-102.2456 264.6634,-102.2455"/>
</g>
</g>
</svg>
