<?xml version="1.0" encoding="UTF-8" standalone="no"?>
<!DOCTYPE svg PUBLIC "-//W3C//DTD SVG 1.1//EN"
 "http://www.w3.org/Graphics/SVG/1.1/DTD/svg11.dtd">
<!-- Generated by graphviz version 2.43.0 (0)
 -->
<!-- Title: lanes.cc Pages: 1 -->
<svg width="898pt" height="430pt"
 viewBox="0.00 0.00 897.50 430.00" xmlns="http://www.w3.org/2000/svg" xmlns:xlink="http://www.w3.org/1999/xlink">
<g id="graph0" class="graph" transform="scale(1 1) rotate(0) translate(4 426)">
<title>lanes.cc</title>
<polygon fill="white" stroke="transparent" points="-4,4 -4,-426 893.5,-426 893.5,4 -4,4"/>
<!-- Node1 -->
<g id="node1" class="node">
<title>Node1</title>
<g id="a_node1"><a xlink:title=" ">
<polygon fill="#bfbfbf" stroke="black" points="588,-402.5 588,-421.5 644,-421.5 644,-402.5 588,-402.5"/>
<text text-anchor="middle" x="616" y="-409.5" font-family="Helvetica,sans-Serif" font-size="10.00">lanes.cc</text>
</a>
</g>
</g>
<!-- Node2 -->
<g id="node2" class="node">
<title>Node2</title>
<g id="a_node2"><a xlink:href="lanes_8h.html" target="_top" xlink:title=" ">
<polygon fill="white" stroke="black" points="550.5,-335.5 550.5,-365.5 681.5,-365.5 681.5,-335.5 550.5,-335.5"/>
<text text-anchor="start" x="558.5" y="-353.5" font-family="Helvetica,sans-Serif" font-size="10.00">maliput_malidrive/xodr</text>
<text text-anchor="middle" x="616" y="-342.5" font-family="Helvetica,sans-Serif" font-size="10.00">/lanes.h</text>
</a>
</g>
</g>
<!-- Node1&#45;&gt;Node2 -->
<g id="edge1" class="edge">
<title>Node1&#45;&gt;Node2</title>
<path fill="none" stroke="midnightblue" d="M616,-402.48C616,-395.47 616,-385.19 616,-375.7"/>
<polygon fill="midnightblue" stroke="midnightblue" points="619.5,-375.52 616,-365.52 612.5,-375.52 619.5,-375.52"/>
</g>
<!-- Node3 -->
<g id="node3" class="node">
<title>Node3</title>
<g id="a_node3"><a xlink:title=" ">
<polygon fill="white" stroke="#bfbfbf" points="356,-73 356,-92 412,-92 412,-73 356,-73"/>
<text text-anchor="middle" x="384" y="-80" font-family="Helvetica,sans-Serif" font-size="10.00">optional</text>
</a>
</g>
</g>
<!-- Node2&#45;&gt;Node3 -->
<g id="edge2" class="edge">
<title>Node2&#45;&gt;Node3</title>
<path fill="none" stroke="midnightblue" d="M566.75,-335.43C543.27,-327.2 515.66,-315.21 494,-299 434.29,-254.32 419.33,-234.77 393,-165 385.32,-144.66 383.6,-119.57 383.46,-102.65"/>
<polygon fill="midnightblue" stroke="midnightblue" points="386.97,-102.43 383.57,-92.4 379.97,-102.36 386.97,-102.43"/>
</g>
<!-- Node4 -->
<g id="node4" class="node">
<title>Node4</title>
<g id="a_node4"><a xlink:title=" ">
<polygon fill="white" stroke="#bfbfbf" points="652.5,-207 652.5,-226 699.5,-226 699.5,-207 652.5,-207"/>
<text text-anchor="middle" x="676" y="-214" font-family="Helvetica,sans-Serif" font-size="10.00">vector</text>
</a>
</g>
</g>
<!-- Node2&#45;&gt;Node4 -->
<g id="edge3" class="edge">
<title>Node2&#45;&gt;Node4</title>
<path fill="none" stroke="midnightblue" d="M624.21,-335.12C629.79,-325.13 637.18,-311.43 643,-299 652.98,-277.68 662.91,-252.47 669.23,-235.79"/>
<polygon fill="midnightblue" stroke="midnightblue" points="672.6,-236.79 672.83,-226.19 666.04,-234.33 672.6,-236.79"/>
</g>
<!-- Node5 -->
<g id="node5" class="node">
<title>Node5</title>
<g id="a_node5"><a xlink:href="xodr_2lane__offset_8h.html" target="_top" xlink:title=" ">
<polygon fill="white" stroke="black" points="691.5,-268.5 691.5,-298.5 822.5,-298.5 822.5,-268.5 691.5,-268.5"/>
<text text-anchor="start" x="699.5" y="-286.5" font-family="Helvetica,sans-Serif" font-size="10.00">maliput_malidrive/xodr</text>
<text text-anchor="middle" x="757" y="-275.5" font-family="Helvetica,sans-Serif" font-size="10.00">/lane_offset.h</text>
</a>
</g>
</g>
<!-- Node2&#45;&gt;Node5 -->
<g id="edge4" class="edge">
<title>Node2&#45;&gt;Node5</title>
<path fill="none" stroke="midnightblue" d="M646.59,-335.4C667.29,-325.86 694.82,-313.16 717.22,-302.84"/>
<polygon fill="midnightblue" stroke="midnightblue" points="718.85,-305.94 726.46,-298.58 715.92,-299.58 718.85,-305.94"/>
</g>
<!-- Node6 -->
<g id="node6" class="node">
<title>Node6</title>
<g id="a_node6"><a xlink:href="lane__section_8h.html" target="_top" xlink:title=" ">
<polygon fill="white" stroke="black" points="503.5,-268.5 503.5,-298.5 634.5,-298.5 634.5,-268.5 503.5,-268.5"/>
<text text-anchor="start" x="511.5" y="-286.5" font-family="Helvetica,sans-Serif" font-size="10.00">maliput_malidrive/xodr</text>
<text text-anchor="middle" x="569" y="-275.5" font-family="Helvetica,sans-Serif" font-size="10.00">/lane_section.h</text>
</a>
</g>
</g>
<!-- Node2&#45;&gt;Node6 -->
<g id="edge5" class="edge">
<title>Node2&#45;&gt;Node6</title>
<path fill="none" stroke="midnightblue" d="M605.8,-335.4C599.77,-327.05 591.98,-316.29 585.13,-306.81"/>
<polygon fill="midnightblue" stroke="midnightblue" points="587.87,-304.63 579.18,-298.58 582.2,-308.73 587.87,-304.63"/>
</g>
<!-- Node6&#45;&gt;Node3 -->
<g id="edge6" class="edge">
<title>Node6&#45;&gt;Node3</title>
<path fill="none" stroke="midnightblue" d="M539.94,-268.46C504.29,-249.76 444.48,-213.33 411,-165 397.7,-145.8 390.57,-119.57 387.03,-102.11"/>
<polygon fill="midnightblue" stroke="midnightblue" points="390.44,-101.28 385.2,-92.07 383.55,-102.53 390.44,-101.28"/>
</g>
<!-- Node6&#45;&gt;Node4 -->
<g id="edge7" class="edge">
<title>Node6&#45;&gt;Node4</title>
<path fill="none" stroke="midnightblue" d="M592.22,-268.4C610.33,-257.39 635.34,-242.2 653.31,-231.28"/>
<polygon fill="midnightblue" stroke="midnightblue" points="655.27,-234.19 662,-226.01 651.63,-228.21 655.27,-234.19"/>
</g>
<!-- Node7 -->
<g id="node7" class="node">
<title>Node7</title>
<g id="a_node7"><a xlink:href="xodr_2lane_8h.html" target="_top" xlink:title=" ">
<polygon fill="white" stroke="black" points="503.5,-201.5 503.5,-231.5 634.5,-231.5 634.5,-201.5 503.5,-201.5"/>
<text text-anchor="start" x="511.5" y="-219.5" font-family="Helvetica,sans-Serif" font-size="10.00">maliput_malidrive/xodr</text>
<text text-anchor="middle" x="569" y="-208.5" font-family="Helvetica,sans-Serif" font-size="10.00">/lane.h</text>
</a>
</g>
</g>
<!-- Node6&#45;&gt;Node7 -->
<g id="edge8" class="edge">
<title>Node6&#45;&gt;Node7</title>
<path fill="none" stroke="midnightblue" d="M569,-268.4C569,-260.64 569,-250.81 569,-241.86"/>
<polygon fill="midnightblue" stroke="midnightblue" points="572.5,-241.58 569,-231.58 565.5,-241.58 572.5,-241.58"/>
</g>
<!-- Node7&#45;&gt;Node3 -->
<g id="edge10" class="edge">
<title>Node7&#45;&gt;Node3</title>
<path fill="none" stroke="midnightblue" d="M515.57,-201.49C491.72,-193.45 464.27,-181.6 443,-165 420.69,-147.59 402.99,-119.58 393,-101.35"/>
<polygon fill="midnightblue" stroke="midnightblue" points="396.02,-99.58 388.26,-92.37 389.83,-102.84 396.02,-99.58"/>
</g>
<!-- Node8 -->
<g id="node8" class="node">
<title>Node8</title>
<g id="a_node8"><a xlink:title=" ">
<polygon fill="white" stroke="#bfbfbf" points="602,-140 602,-159 640,-159 640,-140 602,-140"/>
<text text-anchor="middle" x="621" y="-147" font-family="Helvetica,sans-Serif" font-size="10.00">map</text>
</a>
</g>
</g>
<!-- Node7&#45;&gt;Node8 -->
<g id="edge9" class="edge">
<title>Node7&#45;&gt;Node8</title>
<path fill="none" stroke="midnightblue" d="M580.28,-201.4C588.31,-191.36 599.13,-177.84 607.6,-167.25"/>
<polygon fill="midnightblue" stroke="midnightblue" points="610.53,-169.19 614.04,-159.19 605.06,-164.82 610.53,-169.19"/>
</g>
<!-- Node9 -->
<g id="node9" class="node">
<title>Node9</title>
<g id="a_node9"><a xlink:href="../../maliput/html/type__specific__identifier_8h.html.html" xlink:title=" ">
<polygon fill="white" stroke="black" points="600,-67.5 600,-97.5 740,-97.5 740,-67.5 600,-67.5"/>
<text text-anchor="start" x="608" y="-85.5" font-family="Helvetica,sans-Serif" font-size="10.00">maliput/api/type_specific</text>
<text text-anchor="middle" x="670" y="-74.5" font-family="Helvetica,sans-Serif" font-size="10.00">_identifier.h</text>
</a>
</g>
</g>
<!-- Node7&#45;&gt;Node9 -->
<g id="edge11" class="edge">
<title>Node7&#45;&gt;Node9</title>
<path fill="none" stroke="midnightblue" d="M602.91,-201.37C619.09,-193.02 637.39,-180.93 649,-165 661.14,-148.34 666.28,-125.29 668.45,-107.95"/>
<polygon fill="midnightblue" stroke="midnightblue" points="671.98,-107.8 669.48,-97.51 665.01,-107.11 671.98,-107.8"/>
</g>
<!-- Node10 -->
<g id="node10" class="node">
<title>Node10</title>
<g id="a_node10"><a xlink:href="lane__link_8h.html" target="_top" xlink:title=" ">
<polygon fill="white" stroke="black" points="452.5,-134.5 452.5,-164.5 583.5,-164.5 583.5,-134.5 452.5,-134.5"/>
<text text-anchor="start" x="460.5" y="-152.5" font-family="Helvetica,sans-Serif" font-size="10.00">maliput_malidrive/xodr</text>
<text text-anchor="middle" x="518" y="-141.5" font-family="Helvetica,sans-Serif" font-size="10.00">/lane_link.h</text>
</a>
</g>
</g>
<!-- Node7&#45;&gt;Node10 -->
<g id="edge12" class="edge">
<title>Node7&#45;&gt;Node10</title>
<path fill="none" stroke="midnightblue" d="M557.93,-201.4C551.32,-192.96 542.77,-182.07 535.28,-172.52"/>
<polygon fill="midnightblue" stroke="midnightblue" points="537.97,-170.28 529.04,-164.58 532.46,-174.6 537.97,-170.28"/>
</g>
<!-- Node18 -->
<g id="node18" class="node">
<title>Node18</title>
<g id="a_node18"><a xlink:href="lane__width_8h.html" target="_top" xlink:title=" ">
<polygon fill="white" stroke="black" points="734.5,-134.5 734.5,-164.5 865.5,-164.5 865.5,-134.5 734.5,-134.5"/>
<text text-anchor="start" x="742.5" y="-152.5" font-family="Helvetica,sans-Serif" font-size="10.00">maliput_malidrive/xodr</text>
<text text-anchor="middle" x="800" y="-141.5" font-family="Helvetica,sans-Serif" font-size="10.00">/lane_width.h</text>
</a>
</g>
</g>
<!-- Node7&#45;&gt;Node18 -->
<g id="edge22" class="edge">
<title>Node7&#45;&gt;Node18</title>
<path fill="none" stroke="midnightblue" d="M618.84,-201.48C654.39,-191.47 702.37,-177.97 740.02,-167.38"/>
<polygon fill="midnightblue" stroke="midnightblue" points="741.17,-170.69 749.85,-164.61 739.28,-163.95 741.17,-170.69"/>
</g>
<!-- Node19 -->
<g id="node19" class="node">
<title>Node19</title>
<g id="a_node19"><a xlink:href="unit_8h.html" target="_top" xlink:title=" ">
<polygon fill="white" stroke="black" points="758.5,-67.5 758.5,-97.5 889.5,-97.5 889.5,-67.5 758.5,-67.5"/>
<text text-anchor="start" x="766.5" y="-85.5" font-family="Helvetica,sans-Serif" font-size="10.00">maliput_malidrive/xodr</text>
<text text-anchor="middle" x="824" y="-74.5" font-family="Helvetica,sans-Serif" font-size="10.00">/unit.h</text>
</a>
</g>
</g>
<!-- Node7&#45;&gt;Node19 -->
<g id="edge23" class="edge">
<title>Node7&#45;&gt;Node19</title>
<path fill="none" stroke="midnightblue" d="M598.7,-201.39C619.18,-191.51 646.95,-177.84 671,-165 695.41,-151.97 700.67,-147.18 725,-134 745.03,-123.15 767.64,-111.57 786.19,-102.24"/>
<polygon fill="midnightblue" stroke="midnightblue" points="787.84,-105.32 795.21,-97.71 784.7,-99.07 787.84,-105.32"/>
</g>
<!-- Node10&#45;&gt;Node3 -->
<g id="edge13" class="edge">
<title>Node10&#45;&gt;Node3</title>
<path fill="none" stroke="midnightblue" d="M488.92,-134.4C465.62,-123.09 433.19,-107.36 410.57,-96.39"/>
<polygon fill="midnightblue" stroke="midnightblue" points="412.06,-93.22 401.54,-92.01 409.01,-99.52 412.06,-93.22"/>
</g>
<!-- Node10&#45;&gt;Node9 -->
<g id="edge14" class="edge">
<title>Node10&#45;&gt;Node9</title>
<path fill="none" stroke="midnightblue" d="M550.98,-134.4C573.49,-124.77 603.5,-111.94 627.76,-101.56"/>
<polygon fill="midnightblue" stroke="midnightblue" points="629.26,-104.73 637.08,-97.58 626.51,-98.29 629.26,-104.73"/>
</g>
<!-- Node11 -->
<g id="node11" class="node">
<title>Node11</title>
<g id="a_node11"><a xlink:href="macros_8h.html" target="_top" xlink:title=" ">
<polygon fill="white" stroke="black" points="430,-67.5 430,-97.5 582,-97.5 582,-67.5 430,-67.5"/>
<text text-anchor="start" x="438" y="-85.5" font-family="Helvetica,sans-Serif" font-size="10.00">maliput_malidrive/common</text>
<text text-anchor="middle" x="506" y="-74.5" font-family="Helvetica,sans-Serif" font-size="10.00">/macros.h</text>
</a>
</g>
</g>
<!-- Node10&#45;&gt;Node11 -->
<g id="edge15" class="edge">
<title>Node10&#45;&gt;Node11</title>
<path fill="none" stroke="midnightblue" d="M515.4,-134.4C513.95,-126.56 512.11,-116.6 510.44,-107.57"/>
<polygon fill="midnightblue" stroke="midnightblue" points="513.86,-106.77 508.6,-97.58 506.97,-108.05 513.86,-106.77"/>
</g>
<!-- Node12 -->
<g id="node12" class="node">
<title>Node12</title>
<g id="a_node12"><a xlink:title=" ">
<polygon fill="white" stroke="#bfbfbf" points="802,-6 802,-25 846,-25 846,-6 802,-6"/>
<text text-anchor="middle" x="824" y="-13" font-family="Helvetica,sans-Serif" font-size="10.00">string</text>
</a>
</g>
</g>
<!-- Node11&#45;&gt;Node12 -->
<g id="edge16" class="edge">
<title>Node11&#45;&gt;Node12</title>
<path fill="none" stroke="midnightblue" d="M582.26,-68.33C665.55,-53.91 787.93,-32.6 793,-31 794.87,-30.41 796.77,-29.73 798.67,-29"/>
<polygon fill="midnightblue" stroke="midnightblue" points="800.12,-32.18 807.91,-25 797.34,-25.75 800.12,-32.18"/>
</g>
<!-- Node13 -->
<g id="node13" class="node">
<title>Node13</title>
<g id="a_node13"><a xlink:href="../../maliput/html/assertion__error_8h.html.html" xlink:title=" ">
<polygon fill="white" stroke="black" points="0,-0.5 0,-30.5 148,-30.5 148,-0.5 0,-0.5"/>
<text text-anchor="start" x="8" y="-18.5" font-family="Helvetica,sans-Serif" font-size="10.00">maliput/common/assertion</text>
<text text-anchor="middle" x="74" y="-7.5" font-family="Helvetica,sans-Serif" font-size="10.00">_error.h</text>
</a>
</g>
</g>
<!-- Node11&#45;&gt;Node13 -->
<g id="edge17" class="edge">
<title>Node11&#45;&gt;Node13</title>
<path fill="none" stroke="midnightblue" d="M429.56,-68.34C426.67,-67.88 423.81,-67.43 421,-67 307.15,-49.53 275.72,-49.2 158.3,-31.17"/>
<polygon fill="midnightblue" stroke="midnightblue" points="158.61,-27.67 148.19,-29.6 157.54,-34.59 158.61,-27.67"/>
</g>
<!-- Node14 -->
<g id="node14" class="node">
<title>Node14</title>
<g id="a_node14"><a xlink:href="../../maliput/html/logger_8h.html.html" xlink:title=" ">
<polygon fill="white" stroke="black" points="166.5,-6 166.5,-25 309.5,-25 309.5,-6 166.5,-6"/>
<text text-anchor="middle" x="238" y="-13" font-family="Helvetica,sans-Serif" font-size="10.00">maliput/common/logger.h</text>
</a>
</g>
</g>
<!-- Node11&#45;&gt;Node14 -->
<g id="edge18" class="edge">
<title>Node11&#45;&gt;Node14</title>
<path fill="none" stroke="midnightblue" d="M448.18,-67.48C398.68,-55.47 328.42,-38.43 283.02,-27.42"/>
<polygon fill="midnightblue" stroke="midnightblue" points="283.71,-23.98 273.16,-25.03 282.06,-30.79 283.71,-23.98"/>
</g>
<!-- Node15 -->
<g id="node15" class="node">
<title>Node15</title>
<g id="a_node15"><a xlink:href="../../maliput/html/maliput__abort_8h.html.html" xlink:title=" ">
<polygon fill="white" stroke="black" points="328,-0.5 328,-30.5 468,-30.5 468,-0.5 328,-0.5"/>
<text text-anchor="start" x="336" y="-18.5" font-family="Helvetica,sans-Serif" font-size="10.00">maliput/common/maliput</text>
<text text-anchor="middle" x="398" y="-7.5" font-family="Helvetica,sans-Serif" font-size="10.00">_abort.h</text>
</a>
</g>
</g>
<!-- Node11&#45;&gt;Node15 -->
<g id="edge19" class="edge">
<title>Node11&#45;&gt;Node15</title>
<path fill="none" stroke="midnightblue" d="M482.57,-67.4C467.28,-58.2 447.12,-46.07 430.32,-35.95"/>
<polygon fill="midnightblue" stroke="midnightblue" points="431.76,-32.73 421.39,-30.58 428.15,-38.73 431.76,-32.73"/>
</g>
<!-- Node16 -->
<g id="node16" class="node">
<title>Node16</title>
<g id="a_node16"><a xlink:href="../../maliput/html/maliput__copyable_8h.html.html" xlink:title=" ">
<polygon fill="white" stroke="black" points="486,-0.5 486,-30.5 626,-30.5 626,-0.5 486,-0.5"/>
<text text-anchor="start" x="494" y="-18.5" font-family="Helvetica,sans-Serif" font-size="10.00">maliput/common/maliput</text>
<text text-anchor="middle" x="556" y="-7.5" font-family="Helvetica,sans-Serif" font-size="10.00">_copyable.h</text>
</a>
</g>
</g>
<!-- Node11&#45;&gt;Node16 -->
<g id="edge20" class="edge">
<title>Node11&#45;&gt;Node16</title>
<path fill="none" stroke="midnightblue" d="M516.85,-67.4C523.34,-58.96 531.72,-48.07 539.06,-38.52"/>
<polygon fill="midnightblue" stroke="midnightblue" points="541.85,-40.64 545.17,-30.58 536.3,-36.37 541.85,-40.64"/>
</g>
<!-- Node17 -->
<g id="node17" class="node">
<title>Node17</title>
<g id="a_node17"><a xlink:href="../../maliput/html/maliput__throw_8h.html.html" xlink:title=" ">
<polygon fill="white" stroke="black" points="644,-0.5 644,-30.5 784,-30.5 784,-0.5 644,-0.5"/>
<text text-anchor="start" x="652" y="-18.5" font-family="Helvetica,sans-Serif" font-size="10.00">maliput/common/maliput</text>
<text text-anchor="middle" x="714" y="-7.5" font-family="Helvetica,sans-Serif" font-size="10.00">_throw.h</text>
</a>
</g>
</g>
<!-- Node11&#45;&gt;Node17 -->
<g id="edge21" class="edge">
<title>Node11&#45;&gt;Node17</title>
<path fill="none" stroke="midnightblue" d="M550.88,-67.48C582.62,-57.56 625.36,-44.2 659.13,-33.65"/>
<polygon fill="midnightblue" stroke="midnightblue" points="660.34,-36.93 668.85,-30.61 658.26,-30.25 660.34,-36.93"/>
</g>
<!-- Node19&#45;&gt;Node12 -->
<g id="edge24" class="edge">
<title>Node19&#45;&gt;Node12</title>
<path fill="none" stroke="midnightblue" d="M824,-67.4C824,-58.06 824,-45.71 824,-35.52"/>
<polygon fill="midnightblue" stroke="midnightblue" points="827.5,-35.19 824,-25.19 820.5,-35.19 827.5,-35.19"/>
</g>
</g>
</svg>
