<?xml version="1.0" encoding="UTF-8" standalone="no"?>
<!DOCTYPE svg PUBLIC "-//W3C//DTD SVG 1.1//EN"
 "http://www.w3.org/Graphics/SVG/1.1/DTD/svg11.dtd">
<!-- Generated by graphviz version 2.43.0 (0)
 -->
<!-- Title: lateral_profile.cc Pages: 1 -->
<svg width="854pt" height="229pt"
 viewBox="0.00 0.00 854.00 229.00" xmlns="http://www.w3.org/2000/svg" xmlns:xlink="http://www.w3.org/1999/xlink">
<g id="graph0" class="graph" transform="scale(1 1) rotate(0) translate(4 225)">
<title>lateral_profile.cc</title>
<polygon fill="white" stroke="transparent" points="-4,4 -4,-225 850,-225 850,4 -4,4"/>
<!-- Node1 -->
<g id="node1" class="node">
<title>Node1</title>
<g id="a_node1"><a xlink:title=" ">
<polygon fill="#bfbfbf" stroke="black" points="272,-201.5 272,-220.5 370,-220.5 370,-201.5 272,-201.5"/>
<text text-anchor="middle" x="321" y="-208.5" font-family="Helvetica,sans-Serif" font-size="10.00">lateral_profile.cc</text>
</a>
</g>
</g>
<!-- Node2 -->
<g id="node2" class="node">
<title>Node2</title>
<g id="a_node2"><a xlink:href="lateral__profile_8h.html" target="_top" xlink:title=" ">
<polygon fill="white" stroke="black" points="255.5,-134.5 255.5,-164.5 386.5,-164.5 386.5,-134.5 255.5,-134.5"/>
<text text-anchor="start" x="263.5" y="-152.5" font-family="Helvetica,sans-Serif" font-size="10.00">maliput_malidrive/xodr</text>
<text text-anchor="middle" x="321" y="-141.5" font-family="Helvetica,sans-Serif" font-size="10.00">/lateral_profile.h</text>
</a>
</g>
</g>
<!-- Node1&#45;&gt;Node2 -->
<g id="edge1" class="edge">
<title>Node1&#45;&gt;Node2</title>
<path fill="none" stroke="midnightblue" d="M321,-201.48C321,-194.47 321,-184.19 321,-174.7"/>
<polygon fill="midnightblue" stroke="midnightblue" points="324.5,-174.52 321,-164.52 317.5,-174.52 324.5,-174.52"/>
</g>
<!-- Node3 -->
<g id="node3" class="node">
<title>Node3</title>
<g id="a_node3"><a xlink:title=" ">
<polygon fill="white" stroke="#bfbfbf" points="238.5,-73 238.5,-92 285.5,-92 285.5,-73 238.5,-73"/>
<text text-anchor="middle" x="262" y="-80" font-family="Helvetica,sans-Serif" font-size="10.00">vector</text>
</a>
</g>
</g>
<!-- Node2&#45;&gt;Node3 -->
<g id="edge2" class="edge">
<title>Node2&#45;&gt;Node3</title>
<path fill="none" stroke="midnightblue" d="M308.2,-134.4C298.91,-124.16 286.32,-110.3 276.63,-99.62"/>
<polygon fill="midnightblue" stroke="midnightblue" points="279.2,-97.25 269.89,-92.19 274.02,-101.95 279.2,-97.25"/>
</g>
<!-- Node4 -->
<g id="node4" class="node">
<title>Node4</title>
<g id="a_node4"><a xlink:href="macros_8h.html" target="_top" xlink:title=" ">
<polygon fill="white" stroke="black" points="304,-67.5 304,-97.5 456,-97.5 456,-67.5 304,-67.5"/>
<text text-anchor="start" x="312" y="-85.5" font-family="Helvetica,sans-Serif" font-size="10.00">maliput_malidrive/common</text>
<text text-anchor="middle" x="380" y="-74.5" font-family="Helvetica,sans-Serif" font-size="10.00">/macros.h</text>
</a>
</g>
</g>
<!-- Node2&#45;&gt;Node4 -->
<g id="edge3" class="edge">
<title>Node2&#45;&gt;Node4</title>
<path fill="none" stroke="midnightblue" d="M333.8,-134.4C341.53,-125.88 351.55,-114.85 360.27,-105.23"/>
<polygon fill="midnightblue" stroke="midnightblue" points="363.09,-107.33 367.22,-97.58 357.91,-102.63 363.09,-107.33"/>
</g>
<!-- Node5 -->
<g id="node5" class="node">
<title>Node5</title>
<g id="a_node5"><a xlink:title=" ">
<polygon fill="white" stroke="#bfbfbf" points="0,-6 0,-25 44,-25 44,-6 0,-6"/>
<text text-anchor="middle" x="22" y="-13" font-family="Helvetica,sans-Serif" font-size="10.00">string</text>
</a>
</g>
</g>
<!-- Node4&#45;&gt;Node5 -->
<g id="edge4" class="edge">
<title>Node4&#45;&gt;Node5</title>
<path fill="none" stroke="midnightblue" d="M303.58,-68.54C300.34,-68.01 297.14,-67.5 294,-67 187.04,-50 156.69,-62.27 53,-31 51.12,-30.43 49.21,-29.77 47.31,-29.05"/>
<polygon fill="midnightblue" stroke="midnightblue" points="48.63,-25.81 38.06,-25.09 45.88,-32.24 48.63,-25.81"/>
</g>
<!-- Node6 -->
<g id="node6" class="node">
<title>Node6</title>
<g id="a_node6"><a xlink:href="../../maliput/html/assertion__error_8h.html.html" xlink:title=" ">
<polygon fill="white" stroke="black" points="62,-0.5 62,-30.5 210,-30.5 210,-0.5 62,-0.5"/>
<text text-anchor="start" x="70" y="-18.5" font-family="Helvetica,sans-Serif" font-size="10.00">maliput/common/assertion</text>
<text text-anchor="middle" x="136" y="-7.5" font-family="Helvetica,sans-Serif" font-size="10.00">_error.h</text>
</a>
</g>
</g>
<!-- Node4&#45;&gt;Node6 -->
<g id="edge5" class="edge">
<title>Node4&#45;&gt;Node6</title>
<path fill="none" stroke="midnightblue" d="M327.36,-67.48C289.64,-57.43 238.69,-43.86 198.85,-33.24"/>
<polygon fill="midnightblue" stroke="midnightblue" points="199.53,-29.8 188.97,-30.61 197.73,-36.57 199.53,-29.8"/>
</g>
<!-- Node7 -->
<g id="node7" class="node">
<title>Node7</title>
<g id="a_node7"><a xlink:href="../../maliput/html/logger_8h.html.html" xlink:title=" ">
<polygon fill="white" stroke="black" points="228.5,-6 228.5,-25 371.5,-25 371.5,-6 228.5,-6"/>
<text text-anchor="middle" x="300" y="-13" font-family="Helvetica,sans-Serif" font-size="10.00">maliput/common/logger.h</text>
</a>
</g>
</g>
<!-- Node4&#45;&gt;Node7 -->
<g id="edge6" class="edge">
<title>Node4&#45;&gt;Node7</title>
<path fill="none" stroke="midnightblue" d="M362.64,-67.4C349.67,-56.86 331.97,-42.48 318.69,-31.69"/>
<polygon fill="midnightblue" stroke="midnightblue" points="320.67,-28.78 310.7,-25.19 316.26,-34.22 320.67,-28.78"/>
</g>
<!-- Node8 -->
<g id="node8" class="node">
<title>Node8</title>
<g id="a_node8"><a xlink:href="../../maliput/html/maliput__abort_8h.html.html" xlink:title=" ">
<polygon fill="white" stroke="black" points="390,-0.5 390,-30.5 530,-30.5 530,-0.5 390,-0.5"/>
<text text-anchor="start" x="398" y="-18.5" font-family="Helvetica,sans-Serif" font-size="10.00">maliput/common/maliput</text>
<text text-anchor="middle" x="460" y="-7.5" font-family="Helvetica,sans-Serif" font-size="10.00">_abort.h</text>
</a>
</g>
</g>
<!-- Node4&#45;&gt;Node8 -->
<g id="edge7" class="edge">
<title>Node4&#45;&gt;Node8</title>
<path fill="none" stroke="midnightblue" d="M397.36,-67.4C408.26,-58.54 422.51,-46.96 434.66,-37.09"/>
<polygon fill="midnightblue" stroke="midnightblue" points="437.12,-39.6 442.68,-30.58 432.71,-34.17 437.12,-39.6"/>
</g>
<!-- Node9 -->
<g id="node9" class="node">
<title>Node9</title>
<g id="a_node9"><a xlink:href="../../maliput/html/maliput__copyable_8h.html.html" xlink:title=" ">
<polygon fill="white" stroke="black" points="548,-0.5 548,-30.5 688,-30.5 688,-0.5 548,-0.5"/>
<text text-anchor="start" x="556" y="-18.5" font-family="Helvetica,sans-Serif" font-size="10.00">maliput/common/maliput</text>
<text text-anchor="middle" x="618" y="-7.5" font-family="Helvetica,sans-Serif" font-size="10.00">_copyable.h</text>
</a>
</g>
</g>
<!-- Node4&#45;&gt;Node9 -->
<g id="edge8" class="edge">
<title>Node4&#45;&gt;Node9</title>
<path fill="none" stroke="midnightblue" d="M431.35,-67.48C467.98,-57.47 517.41,-43.97 556.2,-33.38"/>
<polygon fill="midnightblue" stroke="midnightblue" points="557.61,-36.62 566.33,-30.61 555.76,-29.87 557.61,-36.62"/>
</g>
<!-- Node10 -->
<g id="node10" class="node">
<title>Node10</title>
<g id="a_node10"><a xlink:href="../../maliput/html/maliput__throw_8h.html.html" xlink:title=" ">
<polygon fill="white" stroke="black" points="706,-0.5 706,-30.5 846,-30.5 846,-0.5 706,-0.5"/>
<text text-anchor="start" x="714" y="-18.5" font-family="Helvetica,sans-Serif" font-size="10.00">maliput/common/maliput</text>
<text text-anchor="middle" x="776" y="-7.5" font-family="Helvetica,sans-Serif" font-size="10.00">_throw.h</text>
</a>
</g>
</g>
<!-- Node4&#45;&gt;Node10 -->
<g id="edge9" class="edge">
<title>Node4&#45;&gt;Node10</title>
<path fill="none" stroke="midnightblue" d="M456.31,-69.86C518.25,-60.29 608.11,-46.14 695.94,-31.16"/>
<polygon fill="midnightblue" stroke="midnightblue" points="696.54,-34.61 705.8,-29.47 695.36,-27.71 696.54,-34.61"/>
</g>
</g>
</svg>
