<?xml version="1.0" encoding="UTF-8" standalone="no"?>
<!DOCTYPE svg PUBLIC "-//W3C//DTD SVG 1.1//EN"
 "http://www.w3.org/Graphics/SVG/1.1/DTD/svg11.dtd">
<!-- Generated by graphviz version 2.40.1 (20161225.0304)
 -->
<!-- Title: piecewise_ground_curve.h Pages: 1 -->
<svg width="300pt" height="84pt"
 viewBox="0.00 0.00 300.00 84.00" xmlns="http://www.w3.org/2000/svg" xmlns:xlink="http://www.w3.org/1999/xlink">
<g id="graph0" class="graph" transform="scale(1 1) rotate(0) translate(4 80)">
<title>piecewise_ground_curve.h</title>
<polygon fill="#ffffff" stroke="transparent" points="-4,4 -4,-80 296,-80 296,4 -4,4"/>
<!-- Node14 -->
<g id="node1" class="node">
<title>Node14</title>
<polygon fill="#bfbfbf" stroke="#000000" points="66,-56.5 66,-75.5 212,-75.5 212,-56.5 66,-56.5"/>
<text text-anchor="middle" x="139" y="-63.5" font-family="Helvetica,sans-Serif" font-size="10.00" fill="#000000">piecewise_ground_curve.h</text>
</g>
<!-- Node15 -->
<g id="node2" class="node">
<title>Node15</title>
<g id="a_node2"><a xlink:href="road__curve__factory_8cc.html" target="_top" xlink:title="road_curve_factory.cc">
<polygon fill="#ffffff" stroke="#000000" points="0,-.5 0,-19.5 124,-19.5 124,-.5 0,-.5"/>
<text text-anchor="middle" x="62" y="-7.5" font-family="Helvetica,sans-Serif" font-size="10.00" fill="#000000">road_curve_factory.cc</text>
</a>
</g>
</g>
<!-- Node14&#45;&gt;Node15 -->
<g id="edge1" class="edge">
<title>Node14&#45;&gt;Node15</title>
<path fill="none" stroke="#191970" d="M117.2884,-50.2097C103.7647,-40.3743 86.8042,-28.0394 75.2587,-19.6427"/>
<polygon fill="#191970" stroke="#191970" points="115.4416,-53.1944 125.5876,-56.2455 119.5589,-47.5332 115.4416,-53.1944"/>
</g>
<!-- Node16 -->
<g id="node3" class="node">
<title>Node16</title>
<g id="a_node3"><a xlink:href="piecewise__ground__curve_8cc.html" target="_top" xlink:title="piecewise_ground_curve.cc">
<polygon fill="#ffffff" stroke="#000000" points="142,-.5 142,-19.5 292,-19.5 292,-.5 142,-.5"/>
<text text-anchor="middle" x="217" y="-7.5" font-family="Helvetica,sans-Serif" font-size="10.00" fill="#000000">piecewise_ground_curve.cc</text>
</a>
</g>
</g>
<!-- Node14&#45;&gt;Node16 -->
<g id="edge2" class="edge">
<title>Node14&#45;&gt;Node16</title>
<path fill="none" stroke="#191970" d="M160.9936,-50.2097C174.6929,-40.3743 191.8736,-28.0394 203.5691,-19.6427"/>
<polygon fill="#191970" stroke="#191970" points="158.6686,-47.5703 152.5866,-56.2455 162.7511,-53.2566 158.6686,-47.5703"/>
</g>
</g>
</svg>
