<?xml version="1.0" encoding="UTF-8" standalone="no"?>
<!DOCTYPE svg PUBLIC "-//W3C//DTD SVG 1.1//EN"
 "http://www.w3.org/Graphics/SVG/1.1/DTD/svg11.dtd">
<!-- Generated by graphviz version 2.40.1 (20161225.0304)
 -->
<!-- Title: range_value_rule_state_provider_builder.h Pages: 1 -->
<svg width="294pt" height="106pt"
 viewBox="0.00 0.00 293.50 106.00" xmlns="http://www.w3.org/2000/svg" xmlns:xlink="http://www.w3.org/1999/xlink">
<g id="graph0" class="graph" transform="scale(1 1) rotate(0) translate(4 102)">
<title>range_value_rule_state_provider_builder.h</title>
<polygon fill="#ffffff" stroke="transparent" points="-4,4 -4,-102 289.5,-102 289.5,4 -4,4"/>
<!-- Node30 -->
<g id="node1" class="node">
<title>Node30</title>
<polygon fill="#bfbfbf" stroke="#000000" points="76,-67.5 76,-97.5 207,-97.5 207,-67.5 76,-67.5"/>
<text text-anchor="start" x="84" y="-85.5" font-family="Helvetica,sans-Serif" font-size="10.00" fill="#000000">range_value_rule_state</text>
<text text-anchor="middle" x="141.5" y="-74.5" font-family="Helvetica,sans-Serif" font-size="10.00" fill="#000000">_provider_builder.h</text>
</g>
<!-- Node31 -->
<g id="node2" class="node">
<title>Node31</title>
<g id="a_node2"><a xlink:href="range__value__rule__state__provider__builder_8cc.html" target="_top" xlink:title="range_value_rule_state\l_provider_builder.cc">
<polygon fill="#ffffff" stroke="#000000" points="0,-.5 0,-30.5 131,-30.5 131,-.5 0,-.5"/>
<text text-anchor="start" x="8" y="-18.5" font-family="Helvetica,sans-Serif" font-size="10.00" fill="#000000">range_value_rule_state</text>
<text text-anchor="middle" x="65.5" y="-7.5" font-family="Helvetica,sans-Serif" font-size="10.00" fill="#000000">_provider_builder.cc</text>
</a>
</g>
</g>
<!-- Node30&#45;&gt;Node31 -->
<g id="edge1" class="edge">
<title>Node30&#45;&gt;Node31</title>
<path fill="none" stroke="#191970" d="M116.5408,-60.4965C105.4503,-50.7193 92.6733,-39.4554 82.6773,-30.6432"/>
<polygon fill="#191970" stroke="#191970" points="114.4386,-63.3091 124.2544,-67.2967 119.0677,-58.0582 114.4386,-63.3091"/>
</g>
<!-- Node32 -->
<g id="node3" class="node">
<title>Node32</title>
<g id="a_node3"><a xlink:href="road__network__builder_8cc.html" target="_top" xlink:title="road_network_builder.cc">
<polygon fill="#ffffff" stroke="#000000" points="149.5,-6 149.5,-25 285.5,-25 285.5,-6 149.5,-6"/>
<text text-anchor="middle" x="217.5" y="-13" font-family="Helvetica,sans-Serif" font-size="10.00" fill="#000000">road_network_builder.cc</text>
</a>
</g>
</g>
<!-- Node30&#45;&gt;Node32 -->
<g id="edge2" class="edge">
<title>Node30&#45;&gt;Node32</title>
<path fill="none" stroke="#191970" d="M166.4092,-60.5406C180.0336,-48.5296 196.2158,-34.2637 206.6615,-25.055"/>
<polygon fill="#191970" stroke="#191970" points="163.9323,-58.0582 158.7456,-67.2967 168.5614,-63.3091 163.9323,-58.0582"/>
</g>
</g>
</svg>
