<?xml version="1.0" encoding="UTF-8" standalone="no"?>
<!DOCTYPE svg PUBLIC "-//W3C//DTD SVG 1.1//EN"
 "http://www.w3.org/Graphics/SVG/1.1/DTD/svg11.dtd">
<!-- Generated by graphviz version 2.40.1 (20161225.0304)
 -->
<!-- Title: road_header.h Pages: 1 -->
<svg width="1527pt" height="497pt"
 viewBox="0.00 0.00 1527.35 497.00" xmlns="http://www.w3.org/2000/svg" xmlns:xlink="http://www.w3.org/1999/xlink">
<g id="graph0" class="graph" transform="scale(1 1) rotate(0) translate(4 493)">
<title>road_header.h</title>
<polygon fill="#ffffff" stroke="transparent" points="-4,4 -4,-493 1523.3547,-493 1523.3547,4 -4,4"/>
<!-- Node0 -->
<g id="node1" class="node">
<title>Node0</title>
<polygon fill="#bfbfbf" stroke="#000000" points="223.0357,-469.5 223.0357,-488.5 309.0357,-488.5 309.0357,-469.5 223.0357,-469.5"/>
<text text-anchor="middle" x="266.0357" y="-476.5" font-family="Helvetica,sans-Serif" font-size="10.00" fill="#000000">road_header.h</text>
</g>
<!-- Node1 -->
<g id="node2" class="node">
<title>Node1</title>
<polygon fill="#ffffff" stroke="#bfbfbf" points="464.0357,-140 464.0357,-159 520.0357,-159 520.0357,-140 464.0357,-140"/>
<text text-anchor="middle" x="492.0357" y="-147" font-family="Helvetica,sans-Serif" font-size="10.00" fill="#000000">optional</text>
</g>
<!-- Node0&#45;&gt;Node1 -->
<g id="edge1" class="edge">
<title>Node0&#45;&gt;Node1</title>
<path fill="none" stroke="#191970" d="M266.0357,-469.3281C266.0357,-447.9175 266.0357,-394.895 266.0357,-350.5 266.0357,-350.5 266.0357,-350.5 266.0357,-283.5 266.0357,-245.7713 259.4529,-227.7733 286.0357,-201 309.2904,-177.5785 400.7987,-161.7257 453.7015,-154.3124"/>
<polygon fill="#191970" stroke="#191970" points="454.301,-157.7631 463.7356,-152.9425 453.3541,-150.8274 454.301,-157.7631"/>
</g>
<!-- Node2 -->
<g id="node3" class="node">
<title>Node2</title>
<polygon fill="#ffffff" stroke="#bfbfbf" points="30.5357,-408 30.5357,-427 87.5357,-427 87.5357,-408 30.5357,-408"/>
<text text-anchor="middle" x="59.0357" y="-415" font-family="Helvetica,sans-Serif" font-size="10.00" fill="#000000">ostream</text>
</g>
<!-- Node0&#45;&gt;Node2 -->
<g id="edge2" class="edge">
<title>Node0&#45;&gt;Node2</title>
<path fill="none" stroke="#191970" d="M229.0072,-469.4358C195.618,-460.617 145.2675,-446.8347 102.0357,-433 99.5888,-432.217 97.0731,-431.3841 94.5451,-430.5265"/>
<polygon fill="#191970" stroke="#191970" points="95.4484,-427.1349 84.8535,-427.1495 93.145,-433.7451 95.4484,-427.1349"/>
</g>
<!-- Node3 -->
<g id="node4" class="node">
<title>Node3</title>
<polygon fill="#ffffff" stroke="#bfbfbf" points="626.0357,-73 626.0357,-92 670.0357,-92 670.0357,-73 626.0357,-73"/>
<text text-anchor="middle" x="648.0357" y="-80" font-family="Helvetica,sans-Serif" font-size="10.00" fill="#000000">string</text>
</g>
<!-- Node0&#45;&gt;Node3 -->
<g id="edge3" class="edge">
<title>Node0&#45;&gt;Node3</title>
<path fill="none" stroke="#191970" d="M251.6597,-469.2784C198.5549,-432.2223 20.4481,-297.0845 98.0357,-201 114.7349,-180.3196 500.7854,-109.1148 615.9144,-88.2738"/>
<polygon fill="#191970" stroke="#191970" points="616.6669,-91.6946 625.8853,-86.4723 615.4223,-84.8061 616.6669,-91.6946"/>
</g>
<!-- Node4 -->
<g id="node5" class="node">
<title>Node4</title>
<g id="a_node5"><a doxygen="/__w/maliput_documentation/maliput_documentation/maliput_ws/build/maliput_documentation/docs/docs/sphinx/from_doxygen/html/deps/maliput/maliput.tag:../../maliput/html/" xlink:href="../../maliput/html/type__specific__identifier_8h.html" target="_top" xlink:title="maliput/api/type_specific\l_identifier.h">
<polygon fill="#ffffff" stroke="#000000" points="55.0357,-134.5 55.0357,-164.5 195.0357,-164.5 195.0357,-134.5 55.0357,-134.5"/>
<text text-anchor="start" x="63.0357" y="-152.5" font-family="Helvetica,sans-Serif" font-size="10.00" fill="#000000">maliput/api/type_specific</text>
<text text-anchor="middle" x="125.0357" y="-141.5" font-family="Helvetica,sans-Serif" font-size="10.00" fill="#000000">_identifier.h</text>
</a>
</g>
</g>
<!-- Node0&#45;&gt;Node4 -->
<g id="edge4" class="edge">
<title>Node0&#45;&gt;Node4</title>
<path fill="none" stroke="#191970" d="M222.8052,-476.4721C160.3705,-471.921 49.3283,-460.1622 21.0357,-433 -6.107,-406.9418 2.0357,-388.1265 2.0357,-350.5 2.0357,-350.5 2.0357,-350.5 2.0357,-283.5 2.0357,-245.3133 1.8137,-230.5215 26.0357,-201 37.3358,-187.2275 53.2909,-176.7045 69.0991,-168.8735"/>
<polygon fill="#191970" stroke="#191970" points="70.762,-171.9602 78.3534,-164.5696 67.8101,-165.613 70.762,-171.9602"/>
</g>
<!-- Node8 -->
<g id="node9" class="node">
<title>Node8</title>
<g id="a_node9"><a xlink:href="macros_8h.html" target="_top" xlink:title="maliput_malidrive/common\l/macros.h">
<polygon fill="#ffffff" stroke="#000000" points="1031.0357,-134.5 1031.0357,-164.5 1183.0357,-164.5 1183.0357,-134.5 1031.0357,-134.5"/>
<text text-anchor="start" x="1039.0357" y="-152.5" font-family="Helvetica,sans-Serif" font-size="10.00" fill="#000000">maliput_malidrive/common</text>
<text text-anchor="middle" x="1107.0357" y="-141.5" font-family="Helvetica,sans-Serif" font-size="10.00" fill="#000000">/macros.h</text>
</a>
</g>
</g>
<!-- Node0&#45;&gt;Node8 -->
<g id="edge9" class="edge">
<title>Node0&#45;&gt;Node8</title>
<path fill="none" stroke="#191970" d="M309.0665,-477.471C437.9658,-472.6448 815.1395,-456.6409 865.0357,-433 902.25,-415.3678 903.9198,-398.6343 929.0357,-366 960.1837,-325.5278 950.3398,-301.3291 989.0357,-268 1020.1211,-241.2258 1045.3189,-261.3003 1074.0357,-232 1089.4705,-216.2515 1097.9574,-192.3677 1102.443,-174.3441"/>
<polygon fill="#191970" stroke="#191970" points="1105.8742,-175.0381 1104.6441,-164.515 1099.0434,-173.5085 1105.8742,-175.0381"/>
</g>
<!-- Node12 -->
<g id="node13" class="node">
<title>Node12</title>
<g id="a_node13"><a xlink:href="lanes_8h.html" target="_top" xlink:title="maliput_malidrive/xodr\l/lanes.h">
<polygon fill="#ffffff" stroke="#000000" points="677.5357,-402.5 677.5357,-432.5 808.5357,-432.5 808.5357,-402.5 677.5357,-402.5"/>
<text text-anchor="start" x="685.5357" y="-420.5" font-family="Helvetica,sans-Serif" font-size="10.00" fill="#000000">maliput_malidrive/xodr</text>
<text text-anchor="middle" x="743.0357" y="-409.5" font-family="Helvetica,sans-Serif" font-size="10.00" fill="#000000">/lanes.h</text>
</a>
</g>
</g>
<!-- Node0&#45;&gt;Node12 -->
<g id="edge18" class="edge">
<title>Node0&#45;&gt;Node12</title>
<path fill="none" stroke="#191970" d="M309.2075,-473.4338C390.2452,-462.9856 566.0683,-440.3165 667.2413,-427.2722"/>
<polygon fill="#191970" stroke="#191970" points="667.9239,-430.7133 677.3942,-425.9632 667.0287,-423.7707 667.9239,-430.7133"/>
</g>
<!-- Node21 -->
<g id="node22" class="node">
<title>Node21</title>
<g id="a_node22"><a xlink:href="reference__geometry_8h.html" target="_top" xlink:title="maliput_malidrive/xodr\l/reference_geometry.h">
<polygon fill="#ffffff" stroke="#000000" points="1223.5357,-335.5 1223.5357,-365.5 1354.5357,-365.5 1354.5357,-335.5 1223.5357,-335.5"/>
<text text-anchor="start" x="1231.5357" y="-353.5" font-family="Helvetica,sans-Serif" font-size="10.00" fill="#000000">maliput_malidrive/xodr</text>
<text text-anchor="middle" x="1289.0357" y="-342.5" font-family="Helvetica,sans-Serif" font-size="10.00" fill="#000000">/reference_geometry.h</text>
</a>
</g>
</g>
<!-- Node0&#45;&gt;Node21 -->
<g id="edge36" class="edge">
<title>Node0&#45;&gt;Node21</title>
<path fill="none" stroke="#191970" d="M309.1699,-477.7202C448.0854,-473.3869 882.7875,-458.12 1021.0357,-433 1099.7206,-418.7028 1187.7781,-388.7828 1240.7786,-369.1776"/>
<polygon fill="#191970" stroke="#191970" points="1242.1101,-372.4166 1250.2569,-365.6431 1239.6642,-365.8578 1242.1101,-372.4166"/>
</g>
<!-- Node28 -->
<g id="node29" class="node">
<title>Node28</title>
<g id="a_node29"><a xlink:href="road__link_8h.html" target="_top" xlink:title="maliput_malidrive/xodr\l/road_link.h">
<polygon fill="#ffffff" stroke="#000000" points="106.5357,-201.5 106.5357,-231.5 237.5357,-231.5 237.5357,-201.5 106.5357,-201.5"/>
<text text-anchor="start" x="114.5357" y="-219.5" font-family="Helvetica,sans-Serif" font-size="10.00" fill="#000000">maliput_malidrive/xodr</text>
<text text-anchor="middle" x="172.0357" y="-208.5" font-family="Helvetica,sans-Serif" font-size="10.00" fill="#000000">/road_link.h</text>
</a>
</g>
</g>
<!-- Node0&#45;&gt;Node28 -->
<g id="edge55" class="edge">
<title>Node0&#45;&gt;Node28</title>
<path fill="none" stroke="#191970" d="M262.5787,-469.3462C249.264,-432.1642 201.0448,-297.5097 180.9368,-241.3569"/>
<polygon fill="#191970" stroke="#191970" points="184.1906,-240.0613 177.5241,-231.8267 177.6004,-242.4213 184.1906,-240.0613"/>
</g>
<!-- Node29 -->
<g id="node30" class="node">
<title>Node29</title>
<g id="a_node30"><a xlink:href="road__type_8h.html" target="_top" xlink:title="maliput_malidrive/xodr\l/road_type.h">
<polygon fill="#ffffff" stroke="#000000" points="784.5357,-201.5 784.5357,-231.5 915.5357,-231.5 915.5357,-201.5 784.5357,-201.5"/>
<text text-anchor="start" x="792.5357" y="-219.5" font-family="Helvetica,sans-Serif" font-size="10.00" fill="#000000">maliput_malidrive/xodr</text>
<text text-anchor="middle" x="850.0357" y="-208.5" font-family="Helvetica,sans-Serif" font-size="10.00" fill="#000000">/road_type.h</text>
</a>
</g>
</g>
<!-- Node0&#45;&gt;Node29 -->
<g id="edge59" class="edge">
<title>Node0&#45;&gt;Node29</title>
<path fill="none" stroke="#191970" d="M309.1011,-478.3448C422.0808,-476.1619 724.6923,-467.1991 818.0357,-433 866.2082,-415.3506 888.5369,-411.606 912.0357,-366 934.387,-322.6208 897.8772,-269.294 872.083,-239.4812"/>
<polygon fill="#191970" stroke="#191970" points="874.4232,-236.8474 865.1496,-231.7238 869.204,-241.5122 874.4232,-236.8474"/>
</g>
<!-- Node5 -->
<g id="node6" class="node">
<title>Node5</title>
<g id="a_node6"><a doxygen="/__w/maliput_documentation/maliput_documentation/maliput_ws/build/maliput_documentation/docs/docs/sphinx/from_doxygen/html/deps/maliput/maliput.tag:../../maliput/html/" xlink:href="../../maliput/html/maliput__copyable_8h.html" target="_top" xlink:title="maliput/common/maliput\l_copyable.h">
<polygon fill="#ffffff" stroke="#000000" points="872.0357,-.5 872.0357,-30.5 1012.0357,-30.5 1012.0357,-.5 872.0357,-.5"/>
<text text-anchor="start" x="880.0357" y="-18.5" font-family="Helvetica,sans-Serif" font-size="10.00" fill="#000000">maliput/common/maliput</text>
<text text-anchor="middle" x="942.0357" y="-7.5" font-family="Helvetica,sans-Serif" font-size="10.00" fill="#000000">_copyable.h</text>
</a>
</g>
</g>
<!-- Node4&#45;&gt;Node5 -->
<g id="edge5" class="edge">
<title>Node4&#45;&gt;Node5</title>
<path fill="none" stroke="#191970" d="M195.1294,-136.3743C199.8324,-135.5528 204.5008,-134.7541 209.0357,-134 316.7356,-116.0914 344.3649,-116.0832 452.0357,-98 525.6214,-85.6413 543.5131,-79.7292 617.0357,-67 700.4268,-52.5622 796.1397,-37.5879 861.987,-27.5331"/>
<polygon fill="#191970" stroke="#191970" points="862.5276,-30.9912 871.8859,-26.0242 861.4727,-24.0711 862.5276,-30.9912"/>
</g>
<!-- Node6 -->
<g id="node7" class="node">
<title>Node6</title>
<g id="a_node7"><a doxygen="/__w/maliput_documentation/maliput_documentation/maliput_ws/build/maliput_documentation/docs/docs/sphinx/from_doxygen/html/deps/maliput/maliput.tag:../../maliput/html/" xlink:href="../../maliput/html/maliput__hash_8h.html" target="_top" xlink:title="maliput/common/maliput\l_hash.h">
<polygon fill="#ffffff" stroke="#000000" points="143.0357,-67.5 143.0357,-97.5 283.0357,-97.5 283.0357,-67.5 143.0357,-67.5"/>
<text text-anchor="start" x="151.0357" y="-85.5" font-family="Helvetica,sans-Serif" font-size="10.00" fill="#000000">maliput/common/maliput</text>
<text text-anchor="middle" x="213.0357" y="-74.5" font-family="Helvetica,sans-Serif" font-size="10.00" fill="#000000">_hash.h</text>
</a>
</g>
</g>
<!-- Node4&#45;&gt;Node6 -->
<g id="edge6" class="edge">
<title>Node4&#45;&gt;Node6</title>
<path fill="none" stroke="#191970" d="M145.0042,-134.2967C156.8181,-125.302 171.9663,-113.7687 184.9684,-103.8694"/>
<polygon fill="#191970" stroke="#191970" points="187.3099,-106.4857 193.1461,-97.6432 183.0695,-100.9162 187.3099,-106.4857"/>
</g>
<!-- Node7 -->
<g id="node8" class="node">
<title>Node7</title>
<g id="a_node8"><a doxygen="/__w/maliput_documentation/maliput_documentation/maliput_ws/build/maliput_documentation/docs/docs/sphinx/from_doxygen/html/deps/maliput/maliput.tag:../../maliput/html/" xlink:href="../../maliput/html/maliput__throw_8h.html" target="_top" xlink:title="maliput/common/maliput\l_throw.h">
<polygon fill="#ffffff" stroke="#000000" points="681.0357,-.5 681.0357,-30.5 821.0357,-30.5 821.0357,-.5 681.0357,-.5"/>
<text text-anchor="start" x="689.0357" y="-18.5" font-family="Helvetica,sans-Serif" font-size="10.00" fill="#000000">maliput/common/maliput</text>
<text text-anchor="middle" x="751.0357" y="-7.5" font-family="Helvetica,sans-Serif" font-size="10.00" fill="#000000">_throw.h</text>
</a>
</g>
</g>
<!-- Node4&#45;&gt;Node7 -->
<g id="edge8" class="edge">
<title>Node4&#45;&gt;Node7</title>
<path fill="none" stroke="#191970" d="M195.326,-134.4538C312.5658,-109.3578 547.3192,-59.107 670.8349,-32.6676"/>
<polygon fill="#191970" stroke="#191970" points="671.5747,-36.0886 680.6205,-30.5729 670.1094,-29.2437 671.5747,-36.0886"/>
</g>
<!-- Node6&#45;&gt;Node7 -->
<g id="edge7" class="edge">
<title>Node6&#45;&gt;Node7</title>
<path fill="none" stroke="#191970" d="M283.0938,-73.7753C382.9267,-61.3426 565.6429,-38.5879 670.7904,-25.4934"/>
<polygon fill="#191970" stroke="#191970" points="671.5398,-28.9272 681.0306,-24.2181 670.6747,-21.9808 671.5398,-28.9272"/>
</g>
<!-- Node8&#45;&gt;Node3 -->
<g id="edge10" class="edge">
<title>Node8&#45;&gt;Node3</title>
<path fill="none" stroke="#191970" d="M1030.9807,-136.0488C1026.2667,-135.3245 1021.5896,-134.6347 1017.0357,-134 867.8478,-113.2066 824.8515,-139.4458 680.0357,-98 678.322,-97.5096 676.5878,-96.9326 674.8595,-96.2948"/>
<polygon fill="#191970" stroke="#191970" points="675.7796,-92.8811 665.2096,-92.1565 673.0207,-99.3145 675.7796,-92.8811"/>
</g>
<!-- Node8&#45;&gt;Node5 -->
<g id="edge16" class="edge">
<title>Node8&#45;&gt;Node5</title>
<path fill="none" stroke="#191970" d="M1140.7179,-134.419C1171.5902,-118.5165 1209.6094,-92.3059 1189.0357,-67 1168.1831,-41.3512 1086.0672,-28.045 1022.1719,-21.4431"/>
<polygon fill="#191970" stroke="#191970" points="1022.383,-17.9469 1012.0857,-20.4402 1021.6903,-24.9126 1022.383,-17.9469"/>
</g>
<!-- Node8&#45;&gt;Node7 -->
<g id="edge17" class="edge">
<title>Node8&#45;&gt;Node7</title>
<path fill="none" stroke="#191970" d="M1030.9807,-137.4557C970.5808,-127.1648 891.5373,-111.8671 862.0357,-98 841.9969,-88.5809 840.7127,-80.334 823.0357,-67 809.3477,-56.675 793.9161,-45.5685 780.8601,-36.3225"/>
<polygon fill="#191970" stroke="#191970" points="782.8548,-33.4464 772.6658,-30.5422 778.8198,-39.1665 782.8548,-33.4464"/>
</g>
<!-- Node9 -->
<g id="node10" class="node">
<title>Node9</title>
<g id="a_node10"><a doxygen="/__w/maliput_documentation/maliput_documentation/maliput_ws/build/maliput_documentation/docs/docs/sphinx/from_doxygen/html/deps/maliput/maliput.tag:../../maliput/html/" xlink:href="../../maliput/html/assertion__error_8h.html" target="_top" xlink:title="maliput/common/assertion\l_error.h">
<polygon fill="#ffffff" stroke="#000000" points="1032.0357,-67.5 1032.0357,-97.5 1180.0357,-97.5 1180.0357,-67.5 1032.0357,-67.5"/>
<text text-anchor="start" x="1040.0357" y="-85.5" font-family="Helvetica,sans-Serif" font-size="10.00" fill="#000000">maliput/common/assertion</text>
<text text-anchor="middle" x="1106.0357" y="-74.5" font-family="Helvetica,sans-Serif" font-size="10.00" fill="#000000">_error.h</text>
</a>
</g>
</g>
<!-- Node8&#45;&gt;Node9 -->
<g id="edge11" class="edge">
<title>Node8&#45;&gt;Node9</title>
<path fill="none" stroke="#191970" d="M1106.8087,-134.2967C1106.6924,-126.5013 1106.5476,-116.7991 1106.4149,-107.9064"/>
<polygon fill="#191970" stroke="#191970" points="1109.9106,-107.5898 1106.2617,-97.6432 1102.9114,-107.6943 1109.9106,-107.5898"/>
</g>
<!-- Node10 -->
<g id="node11" class="node">
<title>Node10</title>
<g id="a_node11"><a doxygen="/__w/maliput_documentation/maliput_documentation/maliput_ws/build/maliput_documentation/docs/docs/sphinx/from_doxygen/html/deps/maliput/maliput.tag:../../maliput/html/" xlink:href="../../maliput/html/logger_8h.html" target="_top" xlink:title="maliput/common/logger.h">
<polygon fill="#ffffff" stroke="#000000" points="870.5357,-73 870.5357,-92 1013.5357,-92 1013.5357,-73 870.5357,-73"/>
<text text-anchor="middle" x="942.0357" y="-80" font-family="Helvetica,sans-Serif" font-size="10.00" fill="#000000">maliput/common/logger.h</text>
</a>
</g>
</g>
<!-- Node8&#45;&gt;Node10 -->
<g id="edge12" class="edge">
<title>Node8&#45;&gt;Node10</title>
<path fill="none" stroke="#191970" d="M1070.0064,-134.4639C1041.5733,-122.9183 1002.6611,-107.1176 975.2322,-95.9798"/>
<polygon fill="#191970" stroke="#191970" points="976.2692,-92.6234 965.6871,-92.1039 973.6356,-99.1091 976.2692,-92.6234"/>
</g>
<!-- Node11 -->
<g id="node12" class="node">
<title>Node11</title>
<g id="a_node12"><a doxygen="/__w/maliput_documentation/maliput_documentation/maliput_ws/build/maliput_documentation/docs/docs/sphinx/from_doxygen/html/deps/maliput/maliput.tag:../../maliput/html/" xlink:href="../../maliput/html/maliput__abort_8h.html" target="_top" xlink:title="maliput/common/maliput\l_abort.h">
<polygon fill="#ffffff" stroke="#000000" points="1236.0357,-67.5 1236.0357,-97.5 1376.0357,-97.5 1376.0357,-67.5 1236.0357,-67.5"/>
<text text-anchor="start" x="1244.0357" y="-85.5" font-family="Helvetica,sans-Serif" font-size="10.00" fill="#000000">maliput/common/maliput</text>
<text text-anchor="middle" x="1306.0357" y="-74.5" font-family="Helvetica,sans-Serif" font-size="10.00" fill="#000000">_abort.h</text>
</a>
</g>
</g>
<!-- Node8&#45;&gt;Node11 -->
<g id="edge15" class="edge">
<title>Node8&#45;&gt;Node11</title>
<path fill="none" stroke="#191970" d="M1151.6951,-134.4639C1181.2925,-124.499 1220.3046,-111.3642 1251.701,-100.7936"/>
<polygon fill="#191970" stroke="#191970" points="1252.8209,-104.1096 1261.1814,-97.6017 1250.5873,-97.4755 1252.8209,-104.1096"/>
</g>
<!-- Node10&#45;&gt;Node5 -->
<g id="edge13" class="edge">
<title>Node10&#45;&gt;Node5</title>
<path fill="none" stroke="#191970" d="M942.0357,-72.9005C942.0357,-64.5099 942.0357,-51.9451 942.0357,-40.7085"/>
<polygon fill="#191970" stroke="#191970" points="945.5358,-40.5217 942.0357,-30.5218 938.5358,-40.5218 945.5358,-40.5217"/>
</g>
<!-- Node10&#45;&gt;Node7 -->
<g id="edge14" class="edge">
<title>Node10&#45;&gt;Node7</title>
<path fill="none" stroke="#191970" d="M914.67,-72.9005C885.8184,-62.7798 839.655,-46.5864 803.705,-33.9756"/>
<polygon fill="#191970" stroke="#191970" points="804.4537,-30.5292 793.8589,-30.5218 802.1366,-37.1346 804.4537,-30.5292"/>
</g>
<!-- Node12&#45;&gt;Node1 -->
<g id="edge19" class="edge">
<title>Node12&#45;&gt;Node1</title>
<path fill="none" stroke="#191970" d="M743.5251,-402.3206C743.9179,-362.9348 739.2395,-256.6705 681.0357,-201 670.0337,-190.4769 581.9547,-169.4786 530.0065,-157.8075"/>
<polygon fill="#191970" stroke="#191970" points="530.6544,-154.366 520.1321,-155.6035 529.1295,-161.1979 530.6544,-154.366"/>
</g>
<!-- Node13 -->
<g id="node14" class="node">
<title>Node13</title>
<polygon fill="#ffffff" stroke="#bfbfbf" points="1171.5357,-207 1171.5357,-226 1218.5357,-226 1218.5357,-207 1171.5357,-207"/>
<text text-anchor="middle" x="1195.0357" y="-214" font-family="Helvetica,sans-Serif" font-size="10.00" fill="#000000">vector</text>
</g>
<!-- Node12&#45;&gt;Node13 -->
<g id="edge20" class="edge">
<title>Node12&#45;&gt;Node13</title>
<path fill="none" stroke="#191970" d="M808.7999,-406.8013C914.4417,-388.3897 1115.349,-347.9356 1167.0357,-299 1184.3991,-282.5607 1190.9953,-254.9646 1193.501,-236.2597"/>
<polygon fill="#191970" stroke="#191970" points="1196.9953,-236.4977 1194.5733,-226.1834 1190.0346,-235.7568 1196.9953,-236.4977"/>
</g>
<!-- Node14 -->
<g id="node15" class="node">
<title>Node14</title>
<g id="a_node15"><a xlink:href="xodr_2lane__offset_8h.html" target="_top" xlink:title="maliput_malidrive/xodr\l/lane_offset.h">
<polygon fill="#ffffff" stroke="#000000" points="771.5357,-335.5 771.5357,-365.5 902.5357,-365.5 902.5357,-335.5 771.5357,-335.5"/>
<text text-anchor="start" x="779.5357" y="-353.5" font-family="Helvetica,sans-Serif" font-size="10.00" fill="#000000">maliput_malidrive/xodr</text>
<text text-anchor="middle" x="837.0357" y="-342.5" font-family="Helvetica,sans-Serif" font-size="10.00" fill="#000000">/lane_offset.h</text>
</a>
</g>
</g>
<!-- Node12&#45;&gt;Node14 -->
<g id="edge21" class="edge">
<title>Node12&#45;&gt;Node14</title>
<path fill="none" stroke="#191970" d="M764.3657,-402.2967C777.1053,-393.2163 793.4746,-381.5488 807.4509,-371.587"/>
<polygon fill="#191970" stroke="#191970" points="809.6783,-374.2975 815.79,-365.6432 805.6153,-368.5973 809.6783,-374.2975"/>
</g>
<!-- Node15 -->
<g id="node16" class="node">
<title>Node15</title>
<g id="a_node16"><a xlink:href="lane__section_8h.html" target="_top" xlink:title="maliput_malidrive/xodr\l/lane_section.h">
<polygon fill="#ffffff" stroke="#000000" points="583.5357,-335.5 583.5357,-365.5 714.5357,-365.5 714.5357,-335.5 583.5357,-335.5"/>
<text text-anchor="start" x="591.5357" y="-353.5" font-family="Helvetica,sans-Serif" font-size="10.00" fill="#000000">maliput_malidrive/xodr</text>
<text text-anchor="middle" x="649.0357" y="-342.5" font-family="Helvetica,sans-Serif" font-size="10.00" fill="#000000">/lane_section.h</text>
</a>
</g>
</g>
<!-- Node12&#45;&gt;Node15 -->
<g id="edge22" class="edge">
<title>Node12&#45;&gt;Node15</title>
<path fill="none" stroke="#191970" d="M721.7056,-402.2967C708.966,-393.2163 692.5967,-381.5488 678.6204,-371.587"/>
<polygon fill="#191970" stroke="#191970" points="680.456,-368.5973 670.2813,-365.6432 676.393,-374.2975 680.456,-368.5973"/>
</g>
<!-- Node15&#45;&gt;Node1 -->
<g id="edge23" class="edge">
<title>Node15&#45;&gt;Node1</title>
<path fill="none" stroke="#191970" d="M656.2926,-335.1313C668.9368,-305.8482 690.9463,-241.3834 661.0357,-201 653.0845,-190.2648 577.6869,-170.2899 530.3246,-158.6229"/>
<polygon fill="#191970" stroke="#191970" points="530.9344,-155.1691 520.3894,-156.1959 529.2731,-161.9691 530.9344,-155.1691"/>
</g>
<!-- Node15&#45;&gt;Node13 -->
<g id="edge24" class="edge">
<title>Node15&#45;&gt;Node13</title>
<path fill="none" stroke="#191970" d="M714.6884,-341.1233C730.5048,-338.9889 747.3614,-336.8172 763.0357,-335 846.1951,-325.3588 1065.8448,-341.3902 1138.0357,-299 1162.4681,-284.6534 1178.8726,-255.2044 1187.5818,-235.6539"/>
<polygon fill="#191970" stroke="#191970" points="1190.8993,-236.793 1191.5338,-226.2172 1184.4426,-234.089 1190.8993,-236.793"/>
</g>
<!-- Node16 -->
<g id="node17" class="node">
<title>Node16</title>
<g id="a_node17"><a xlink:href="xodr_2lane_8h.html" target="_top" xlink:title="maliput_malidrive/xodr\l/lane.h">
<polygon fill="#ffffff" stroke="#000000" points="426.5357,-268.5 426.5357,-298.5 557.5357,-298.5 557.5357,-268.5 426.5357,-268.5"/>
<text text-anchor="start" x="434.5357" y="-286.5" font-family="Helvetica,sans-Serif" font-size="10.00" fill="#000000">maliput_malidrive/xodr</text>
<text text-anchor="middle" x="492.0357" y="-275.5" font-family="Helvetica,sans-Serif" font-size="10.00" fill="#000000">/lane.h</text>
</a>
</g>
</g>
<!-- Node15&#45;&gt;Node16 -->
<g id="edge25" class="edge">
<title>Node15&#45;&gt;Node16</title>
<path fill="none" stroke="#191970" d="M613.8018,-335.4639C591.055,-325.7567 561.2598,-313.0415 536.8363,-302.6188"/>
<polygon fill="#191970" stroke="#191970" points="537.9945,-299.3077 527.4232,-298.6017 535.2469,-305.7459 537.9945,-299.3077"/>
</g>
<!-- Node16&#45;&gt;Node1 -->
<g id="edge27" class="edge">
<title>Node16&#45;&gt;Node1</title>
<path fill="none" stroke="#191970" d="M486.7902,-268.3942C483.5501,-258.2442 479.7031,-244.4902 478.0357,-232 476.2125,-218.3434 476.2125,-214.6566 478.0357,-201 479.4788,-190.1902 482.5544,-178.4337 485.4563,-168.8862"/>
<polygon fill="#191970" stroke="#191970" points="488.8373,-169.8049 488.5625,-159.2137 482.1725,-167.6646 488.8373,-169.8049"/>
</g>
<!-- Node16&#45;&gt;Node4 -->
<g id="edge28" class="edge">
<title>Node16&#45;&gt;Node4</title>
<path fill="none" stroke="#191970" d="M426.2331,-279.5751C319.7367,-272.545 119.311,-256.2372 98.0357,-232 83.5112,-215.4535 94.3575,-190.9243 106.3478,-172.9124"/>
<polygon fill="#191970" stroke="#191970" points="109.2755,-174.8347 112.2196,-164.6572 103.5713,-170.7774 109.2755,-174.8347"/>
</g>
<!-- Node17 -->
<g id="node18" class="node">
<title>Node17</title>
<polygon fill="#ffffff" stroke="#bfbfbf" points="769.0357,-140 769.0357,-159 807.0357,-159 807.0357,-140 769.0357,-140"/>
<text text-anchor="middle" x="788.0357" y="-147" font-family="Helvetica,sans-Serif" font-size="10.00" fill="#000000">map</text>
</g>
<!-- Node16&#45;&gt;Node17 -->
<g id="edge26" class="edge">
<title>Node16&#45;&gt;Node17</title>
<path fill="none" stroke="#191970" d="M491.0993,-268.271C490.851,-249.5977 493.5118,-218.3042 512.0357,-201 581.2344,-136.3575 629.2326,-183.8337 722.0357,-165 734.1347,-162.5446 747.3991,-159.4992 758.8426,-156.7595"/>
<polygon fill="#191970" stroke="#191970" points="759.8614,-160.1139 768.7544,-154.355 758.2111,-153.3112 759.8614,-160.1139"/>
</g>
<!-- Node18 -->
<g id="node19" class="node">
<title>Node18</title>
<g id="a_node19"><a xlink:href="lane__link_8h.html" target="_top" xlink:title="maliput_malidrive/xodr\l/lane_link.h">
<polygon fill="#ffffff" stroke="#000000" points="294.5357,-201.5 294.5357,-231.5 425.5357,-231.5 425.5357,-201.5 294.5357,-201.5"/>
<text text-anchor="start" x="302.5357" y="-219.5" font-family="Helvetica,sans-Serif" font-size="10.00" fill="#000000">maliput_malidrive/xodr</text>
<text text-anchor="middle" x="360.0357" y="-208.5" font-family="Helvetica,sans-Serif" font-size="10.00" fill="#000000">/lane_link.h</text>
</a>
</g>
</g>
<!-- Node16&#45;&gt;Node18 -->
<g id="edge29" class="edge">
<title>Node16&#45;&gt;Node18</title>
<path fill="none" stroke="#191970" d="M462.4123,-268.4639C443.692,-258.9619 419.2936,-246.5779 399.0111,-236.283"/>
<polygon fill="#191970" stroke="#191970" points="400.5181,-233.1229 390.0169,-231.7177 397.3498,-239.3649 400.5181,-233.1229"/>
</g>
<!-- Node19 -->
<g id="node20" class="node">
<title>Node19</title>
<g id="a_node20"><a xlink:href="lane__width_8h.html" target="_top" xlink:title="maliput_malidrive/xodr\l/lane_width.h">
<polygon fill="#ffffff" stroke="#000000" points="520.5357,-201.5 520.5357,-231.5 651.5357,-231.5 651.5357,-201.5 520.5357,-201.5"/>
<text text-anchor="start" x="528.5357" y="-219.5" font-family="Helvetica,sans-Serif" font-size="10.00" fill="#000000">maliput_malidrive/xodr</text>
<text text-anchor="middle" x="586.0357" y="-208.5" font-family="Helvetica,sans-Serif" font-size="10.00" fill="#000000">/lane_width.h</text>
</a>
</g>
</g>
<!-- Node16&#45;&gt;Node19 -->
<g id="edge33" class="edge">
<title>Node16&#45;&gt;Node19</title>
<path fill="none" stroke="#191970" d="M513.3657,-268.2967C526.1053,-259.2163 542.4746,-247.5488 556.4509,-237.587"/>
<polygon fill="#191970" stroke="#191970" points="558.6783,-240.2975 564.79,-231.6432 554.6153,-234.5973 558.6783,-240.2975"/>
</g>
<!-- Node20 -->
<g id="node21" class="node">
<title>Node20</title>
<g id="a_node21"><a xlink:href="unit_8h.html" target="_top" xlink:title="maliput_malidrive/xodr\l/unit.h">
<polygon fill="#ffffff" stroke="#000000" points="581.5357,-134.5 581.5357,-164.5 712.5357,-164.5 712.5357,-134.5 581.5357,-134.5"/>
<text text-anchor="start" x="589.5357" y="-152.5" font-family="Helvetica,sans-Serif" font-size="10.00" fill="#000000">maliput_malidrive/xodr</text>
<text text-anchor="middle" x="647.0357" y="-141.5" font-family="Helvetica,sans-Serif" font-size="10.00" fill="#000000">/unit.h</text>
</a>
</g>
</g>
<!-- Node16&#45;&gt;Node20 -->
<g id="edge34" class="edge">
<title>Node16&#45;&gt;Node20</title>
<path fill="none" stroke="#191970" d="M557.7193,-271.7955C599.6145,-262.8411 648.3478,-249.1303 661.0357,-232 673.3653,-215.3533 667.616,-191.6551 660.1025,-173.9256"/>
<polygon fill="#191970" stroke="#191970" points="663.2379,-172.3672 655.8505,-164.7726 656.8895,-175.3164 663.2379,-172.3672"/>
</g>
<!-- Node18&#45;&gt;Node1 -->
<g id="edge30" class="edge">
<title>Node18&#45;&gt;Node1</title>
<path fill="none" stroke="#191970" d="M389.659,-201.4639C411.9067,-190.1715 442.174,-174.8086 464.0217,-163.7192"/>
<polygon fill="#191970" stroke="#191970" points="465.7816,-166.7511 473.1145,-159.1039 462.6133,-160.5091 465.7816,-166.7511"/>
</g>
<!-- Node18&#45;&gt;Node4 -->
<g id="edge31" class="edge">
<title>Node18&#45;&gt;Node4</title>
<path fill="none" stroke="#191970" d="M307.2971,-201.4639C271.8935,-191.3701 225.0826,-178.024 187.7659,-167.3848"/>
<polygon fill="#191970" stroke="#191970" points="188.5807,-163.9777 178.0043,-164.6017 186.6614,-170.7094 188.5807,-163.9777"/>
</g>
<!-- Node18&#45;&gt;Node8 -->
<g id="edge32" class="edge">
<title>Node18&#45;&gt;Node8</title>
<path fill="none" stroke="#191970" d="M425.8402,-209.42C452.5729,-206.6402 483.7651,-203.5191 512.0357,-201 721.5924,-182.3269 774.7152,-186.1585 984.0357,-165 995.9137,-163.7993 1008.419,-162.3913 1020.7221,-160.9221"/>
<polygon fill="#191970" stroke="#191970" points="1021.485,-164.3553 1030.9909,-159.6768 1020.6422,-157.4062 1021.485,-164.3553"/>
</g>
<!-- Node20&#45;&gt;Node3 -->
<g id="edge35" class="edge">
<title>Node20&#45;&gt;Node3</title>
<path fill="none" stroke="#191970" d="M647.2626,-134.2967C647.4048,-124.7699 647.5895,-112.3954 647.7427,-102.1306"/>
<polygon fill="#191970" stroke="#191970" points="651.2433,-102.1061 647.893,-92.055 644.2441,-102.0016 651.2433,-102.1061"/>
</g>
<!-- Node21&#45;&gt;Node8 -->
<g id="edge37" class="edge">
<title>Node21&#45;&gt;Node8</title>
<path fill="none" stroke="#191970" d="M1354.5899,-344.3793C1413.4413,-337.3675 1493.4937,-323.5447 1513.0357,-299 1521.6174,-288.2213 1521.1482,-279.1362 1513.0357,-268 1475.3548,-216.2749 1300.7599,-180.05 1193.1677,-162.1978"/>
<polygon fill="#191970" stroke="#191970" points="1193.7276,-158.743 1183.2931,-160.5797 1192.5955,-165.6508 1193.7276,-158.743"/>
</g>
<!-- Node22 -->
<g id="node23" class="node">
<title>Node22</title>
<g id="a_node23"><a xlink:href="elevation__profile_8h.html" target="_top" xlink:title="maliput_malidrive/xodr\l/elevation_profile.h">
<polygon fill="#ffffff" stroke="#000000" points="1223.5357,-268.5 1223.5357,-298.5 1354.5357,-298.5 1354.5357,-268.5 1223.5357,-268.5"/>
<text text-anchor="start" x="1231.5357" y="-286.5" font-family="Helvetica,sans-Serif" font-size="10.00" fill="#000000">maliput_malidrive/xodr</text>
<text text-anchor="middle" x="1289.0357" y="-275.5" font-family="Helvetica,sans-Serif" font-size="10.00" fill="#000000">/elevation_profile.h</text>
</a>
</g>
</g>
<!-- Node21&#45;&gt;Node22 -->
<g id="edge38" class="edge">
<title>Node21&#45;&gt;Node22</title>
<path fill="none" stroke="#191970" d="M1289.0357,-335.2967C1289.0357,-327.5013 1289.0357,-317.7991 1289.0357,-308.9064"/>
<polygon fill="#191970" stroke="#191970" points="1292.5358,-308.6431 1289.0357,-298.6432 1285.5358,-308.6432 1292.5358,-308.6431"/>
</g>
<!-- Node23 -->
<g id="node24" class="node">
<title>Node23</title>
<g id="a_node24"><a xlink:href="lateral__profile_8h.html" target="_top" xlink:title="maliput_malidrive/xodr\l/lateral_profile.h">
<polygon fill="#ffffff" stroke="#000000" points="1372.5357,-268.5 1372.5357,-298.5 1503.5357,-298.5 1503.5357,-268.5 1372.5357,-268.5"/>
<text text-anchor="start" x="1380.5357" y="-286.5" font-family="Helvetica,sans-Serif" font-size="10.00" fill="#000000">maliput_malidrive/xodr</text>
<text text-anchor="middle" x="1438.0357" y="-275.5" font-family="Helvetica,sans-Serif" font-size="10.00" fill="#000000">/lateral_profile.h</text>
</a>
</g>
</g>
<!-- Node21&#45;&gt;Node23 -->
<g id="edge41" class="edge">
<title>Node21&#45;&gt;Node23</title>
<path fill="none" stroke="#191970" d="M1322.4742,-335.4639C1343.9663,-325.7996 1372.0888,-313.154 1395.2099,-302.7572"/>
<polygon fill="#191970" stroke="#191970" points="1396.7663,-305.895 1404.4513,-298.6017 1393.8955,-299.5107 1396.7663,-305.895"/>
</g>
<!-- Node24 -->
<g id="node25" class="node">
<title>Node24</title>
<g id="a_node25"><a xlink:href="plan__view_8h.html" target="_top" xlink:title="maliput_malidrive/xodr\l/plan_view.h">
<polygon fill="#ffffff" stroke="#000000" points="997.5357,-268.5 997.5357,-298.5 1128.5357,-298.5 1128.5357,-268.5 997.5357,-268.5"/>
<text text-anchor="start" x="1005.5357" y="-286.5" font-family="Helvetica,sans-Serif" font-size="10.00" fill="#000000">maliput_malidrive/xodr</text>
<text text-anchor="middle" x="1063.0357" y="-275.5" font-family="Helvetica,sans-Serif" font-size="10.00" fill="#000000">/plan_view.h</text>
</a>
</g>
</g>
<!-- Node21&#45;&gt;Node24 -->
<g id="edge44" class="edge">
<title>Node21&#45;&gt;Node24</title>
<path fill="none" stroke="#191970" d="M1238.3168,-335.4639C1204.414,-325.4131 1159.6339,-312.1375 1123.8221,-301.5208"/>
<polygon fill="#191970" stroke="#191970" points="1124.5581,-298.0884 1113.9757,-298.6017 1122.5684,-304.7997 1124.5581,-298.0884"/>
</g>
<!-- Node22&#45;&gt;Node8 -->
<g id="edge40" class="edge">
<title>Node22&#45;&gt;Node8</title>
<path fill="none" stroke="#191970" d="M1281.2339,-268.4964C1271.1293,-250.3433 1251.9439,-219.8736 1228.0357,-201 1210.4001,-187.0781 1188.4417,-176.2492 1168.0903,-168.1927"/>
<polygon fill="#191970" stroke="#191970" points="1169.1567,-164.8538 1158.5656,-164.5723 1166.6695,-171.397 1169.1567,-164.8538"/>
</g>
<!-- Node22&#45;&gt;Node13 -->
<g id="edge39" class="edge">
<title>Node22&#45;&gt;Node13</title>
<path fill="none" stroke="#191970" d="M1267.7056,-268.2967C1252.4912,-257.4524 1232.0999,-242.9182 1216.7904,-232.006"/>
<polygon fill="#191970" stroke="#191970" points="1218.6158,-229.0091 1208.4411,-226.055 1214.5529,-234.7093 1218.6158,-229.0091"/>
</g>
<!-- Node23&#45;&gt;Node8 -->
<g id="edge43" class="edge">
<title>Node23&#45;&gt;Node8</title>
<path fill="none" stroke="#191970" d="M1407.1756,-268.4501C1371.2736,-251.1907 1310.0169,-222.51 1256.0357,-201 1225.9,-188.9918 1191.7298,-177.0635 1163.7208,-167.7151"/>
<polygon fill="#191970" stroke="#191970" points="1164.6808,-164.346 1154.0873,-164.5201 1162.4772,-170.9902 1164.6808,-164.346"/>
</g>
<!-- Node23&#45;&gt;Node13 -->
<g id="edge42" class="edge">
<title>Node23&#45;&gt;Node13</title>
<path fill="none" stroke="#191970" d="M1383.5017,-268.4639C1335.8734,-255.3318 1268.2794,-236.6948 1228.3145,-225.6757"/>
<polygon fill="#191970" stroke="#191970" points="1229.1079,-222.2639 1218.5373,-222.9799 1227.2473,-229.0121 1229.1079,-222.2639"/>
</g>
<!-- Node24&#45;&gt;Node8 -->
<g id="edge46" class="edge">
<title>Node24&#45;&gt;Node8</title>
<path fill="none" stroke="#191970" d="M1081.1273,-268.3413C1090.8245,-258.9968 1101.8245,-246.1218 1107.0357,-232 1113.7878,-213.7023 1113.3567,-191.5279 1111.4738,-174.7781"/>
<polygon fill="#191970" stroke="#191970" points="1114.9113,-174.0828 1110.0877,-164.6498 1107.976,-175.032 1114.9113,-174.0828"/>
</g>
<!-- Node24&#45;&gt;Node13 -->
<g id="edge45" class="edge">
<title>Node24&#45;&gt;Node13</title>
<path fill="none" stroke="#191970" d="M1092.659,-268.4639C1114.9067,-257.1715 1145.174,-241.8086 1167.0217,-230.7192"/>
<polygon fill="#191970" stroke="#191970" points="1168.7816,-233.7511 1176.1145,-226.1039 1165.6133,-227.5091 1168.7816,-233.7511"/>
</g>
<!-- Node25 -->
<g id="node26" class="node">
<title>Node25</title>
<g id="a_node26"><a xlink:href="geometry_8h.html" target="_top" xlink:title="maliput_malidrive/xodr\l/geometry.h">
<polygon fill="#ffffff" stroke="#000000" points="933.5357,-201.5 933.5357,-231.5 1064.5357,-231.5 1064.5357,-201.5 933.5357,-201.5"/>
<text text-anchor="start" x="941.5357" y="-219.5" font-family="Helvetica,sans-Serif" font-size="10.00" fill="#000000">maliput_malidrive/xodr</text>
<text text-anchor="middle" x="999.0357" y="-208.5" font-family="Helvetica,sans-Serif" font-size="10.00" fill="#000000">/geometry.h</text>
</a>
</g>
</g>
<!-- Node24&#45;&gt;Node25 -->
<g id="edge47" class="edge">
<title>Node24&#45;&gt;Node25</title>
<path fill="none" stroke="#191970" d="M1048.5131,-268.2967C1040.2484,-259.6446 1029.7402,-248.6438 1020.5355,-239.0076"/>
<polygon fill="#191970" stroke="#191970" points="1022.939,-236.4567 1013.5008,-231.6432 1017.8772,-241.2919 1022.939,-236.4567"/>
</g>
<!-- Node25&#45;&gt;Node1 -->
<g id="edge49" class="edge">
<title>Node25&#45;&gt;Node1</title>
<path fill="none" stroke="#191970" d="M933.3335,-202.366C930.5343,-201.8816 927.7594,-201.4234 925.0357,-201 769.641,-176.847 728.6346,-187.8 573.0357,-165 558.9246,-162.9323 543.5315,-160.127 529.9904,-157.4712"/>
<polygon fill="#191970" stroke="#191970" points="530.5405,-154.0119 520.0484,-155.484 529.1685,-160.8762 530.5405,-154.0119"/>
</g>
<!-- Node25&#45;&gt;Node3 -->
<g id="edge50" class="edge">
<title>Node25&#45;&gt;Node3</title>
<path fill="none" stroke="#191970" d="M1001.1438,-201.2206C1002.7806,-182.4954 1002.2812,-151.1483 984.0357,-134 934.4655,-87.4108 745.3292,-117.0919 680.0357,-98 678.3249,-97.4998 676.5929,-96.9152 674.8662,-96.2716"/>
<polygon fill="#191970" stroke="#191970" points="675.7897,-92.8586 665.2208,-92.1179 673.021,-99.2878 675.7897,-92.8586"/>
</g>
<!-- Node25&#45;&gt;Node8 -->
<g id="edge54" class="edge">
<title>Node25&#45;&gt;Node8</title>
<path fill="none" stroke="#191970" d="M1023.273,-201.4639C1038.1756,-192.2188 1057.4762,-180.2452 1073.7939,-170.1222"/>
<polygon fill="#191970" stroke="#191970" points="1075.853,-172.9636 1082.5056,-164.7177 1072.1628,-167.0153 1075.853,-172.9636"/>
</g>
<!-- Node25&#45;&gt;Node17 -->
<g id="edge48" class="edge">
<title>Node25&#45;&gt;Node17</title>
<path fill="none" stroke="#191970" d="M933.4404,-201.9524C898.0076,-193.1269 853.8893,-180.5579 816.0357,-165 815.0078,-164.5776 813.9697,-164.1265 812.9292,-163.6539"/>
<polygon fill="#191970" stroke="#191970" points="814.2171,-160.3837 803.7118,-159.009 811.0669,-166.6349 814.2171,-160.3837"/>
</g>
<!-- Node26 -->
<g id="node27" class="node">
<title>Node26</title>
<polygon fill="#ffffff" stroke="#bfbfbf" points="923.5357,-140 923.5357,-159 974.5357,-159 974.5357,-140 923.5357,-140"/>
<text text-anchor="middle" x="949.0357" y="-147" font-family="Helvetica,sans-Serif" font-size="10.00" fill="#000000">variant</text>
</g>
<!-- Node25&#45;&gt;Node26 -->
<g id="edge51" class="edge">
<title>Node25&#45;&gt;Node26</title>
<path fill="none" stroke="#191970" d="M987.6899,-201.2967C980.1266,-191.1618 970.1581,-177.804 962.2387,-167.1921"/>
<polygon fill="#191970" stroke="#191970" points="964.9521,-164.976 956.1662,-159.055 959.3421,-169.1626 964.9521,-164.976"/>
</g>
<!-- Node27 -->
<g id="node28" class="node">
<title>Node27</title>
<g id="a_node28"><a doxygen="/__w/maliput_documentation/maliput_documentation/maliput_ws/build/maliput_documentation/docs/docs/sphinx/from_doxygen/html/deps/maliput/maliput.tag:../../maliput/html/" xlink:href="../../maliput/html/vector_8h.html" target="_top" xlink:title="maliput/math/vector.h">
<polygon fill="#ffffff" stroke="#000000" points="688.5357,-73 688.5357,-92 813.5357,-92 813.5357,-73 688.5357,-73"/>
<text text-anchor="middle" x="751.0357" y="-80" font-family="Helvetica,sans-Serif" font-size="10.00" fill="#000000">maliput/math/vector.h</text>
</a>
</g>
</g>
<!-- Node25&#45;&gt;Node27 -->
<g id="edge52" class="edge">
<title>Node25&#45;&gt;Node27</title>
<path fill="none" stroke="#191970" d="M972.4027,-201.2946C955.6177,-191.439 933.673,-178.0482 915.0357,-165 896.8971,-152.301 895.1265,-145.2166 876.0357,-134 848.7913,-117.9928 815.6316,-104.5787 790.3132,-95.4574"/>
<polygon fill="#191970" stroke="#191970" points="791.2721,-92.0842 780.6773,-92.0559 788.9419,-98.6851 791.2721,-92.0842"/>
</g>
<!-- Node27&#45;&gt;Node7 -->
<g id="edge53" class="edge">
<title>Node27&#45;&gt;Node7</title>
<path fill="none" stroke="#191970" d="M751.0357,-72.9005C751.0357,-64.5099 751.0357,-51.9451 751.0357,-40.7085"/>
<polygon fill="#191970" stroke="#191970" points="754.5358,-40.5217 751.0357,-30.5218 747.5358,-40.5218 754.5358,-40.5217"/>
</g>
<!-- Node28&#45;&gt;Node1 -->
<g id="edge56" class="edge">
<title>Node28&#45;&gt;Node1</title>
<path fill="none" stroke="#191970" d="M237.5646,-202.7799C302.7056,-189.141 400.3956,-168.6871 453.8021,-157.5052"/>
<polygon fill="#191970" stroke="#191970" points="454.7997,-160.8723 463.8701,-155.3972 453.3651,-154.0208 454.7997,-160.8723"/>
</g>
<!-- Node28&#45;&gt;Node4 -->
<g id="edge57" class="edge">
<title>Node28&#45;&gt;Node4</title>
<path fill="none" stroke="#191970" d="M161.3706,-201.2967C155.4816,-192.9016 148.0413,-182.2952 141.4294,-172.8698"/>
<polygon fill="#191970" stroke="#191970" points="144.2667,-170.8198 135.6585,-164.6432 138.536,-174.8398 144.2667,-170.8198"/>
</g>
<!-- Node28&#45;&gt;Node8 -->
<g id="edge58" class="edge">
<title>Node28&#45;&gt;Node8</title>
<path fill="none" stroke="#191970" d="M237.6363,-206.6262C253.4546,-204.5096 270.3251,-202.4706 286.0357,-201 595.3182,-172.0495 674.6152,-192.4376 984.0357,-165 995.9276,-163.9455 1008.4407,-162.6203 1020.7476,-161.1911"/>
<polygon fill="#191970" stroke="#191970" points="1021.5019,-164.6262 1031.0187,-159.9699 1020.6754,-157.6752 1021.5019,-164.6262"/>
</g>
<!-- Node29&#45;&gt;Node1 -->
<g id="edge61" class="edge">
<title>Node29&#45;&gt;Node1</title>
<path fill="none" stroke="#191970" d="M784.1251,-203.6723C779.3581,-202.7622 774.6236,-201.8636 770.0357,-201 682.5664,-184.5348 660.5239,-181.3643 573.0357,-165 559.0171,-162.3779 543.6445,-159.4496 530.0939,-156.8504"/>
<polygon fill="#191970" stroke="#191970" points="530.6204,-153.3876 520.1395,-154.9375 529.2993,-160.2619 530.6204,-153.3876"/>
</g>
<!-- Node29&#45;&gt;Node3 -->
<g id="edge62" class="edge">
<title>Node29&#45;&gt;Node3</title>
<path fill="none" stroke="#191970" d="M820.9296,-201.4286C802.9371,-191.7289 779.621,-178.4572 760.0357,-165 742.0716,-152.6568 739.4377,-147.1236 722.0357,-134 705.2703,-121.3565 685.7543,-107.8214 670.9748,-97.8013"/>
<polygon fill="#191970" stroke="#191970" points="672.6999,-94.7433 662.4515,-92.0561 668.7873,-100.5478 672.6999,-94.7433"/>
</g>
<!-- Node29&#45;&gt;Node8 -->
<g id="edge63" class="edge">
<title>Node29&#45;&gt;Node8</title>
<path fill="none" stroke="#191970" d="M907.7115,-201.4639C946.6766,-191.3057 998.2767,-177.8535 1039.213,-167.1814"/>
<polygon fill="#191970" stroke="#191970" points="1040.3147,-170.5112 1049.1083,-164.6017 1038.5487,-163.7376 1040.3147,-170.5112"/>
</g>
<!-- Node29&#45;&gt;Node20 -->
<g id="edge64" class="edge">
<title>Node29&#45;&gt;Node20</title>
<path fill="none" stroke="#191970" d="M804.4785,-201.4639C774.2863,-191.499 734.49,-178.3642 702.4624,-167.7936"/>
<polygon fill="#191970" stroke="#191970" points="703.3847,-164.4123 692.7915,-164.6017 701.1907,-171.0596 703.3847,-164.4123"/>
</g>
<!-- Node30 -->
<g id="node31" class="node">
<title>Node30</title>
<polygon fill="#ffffff" stroke="#bfbfbf" points="825.0357,-140 825.0357,-159 867.0357,-159 867.0357,-140 825.0357,-140"/>
<text text-anchor="middle" x="846.0357" y="-147" font-family="Helvetica,sans-Serif" font-size="10.00" fill="#000000">array</text>
</g>
<!-- Node29&#45;&gt;Node30 -->
<g id="edge60" class="edge">
<title>Node29&#45;&gt;Node30</title>
<path fill="none" stroke="#191970" d="M849.128,-201.2967C848.5592,-191.7699 847.8205,-179.3954 847.2076,-169.1306"/>
<polygon fill="#191970" stroke="#191970" points="850.6959,-168.8286 846.6061,-159.055 843.7084,-169.2458 850.6959,-168.8286"/>
</g>
</g>
</svg>
