<?xml version="1.0" encoding="UTF-8" standalone="no"?>
<!DOCTYPE svg PUBLIC "-//W3C//DTD SVG 1.1//EN"
 "http://www.w3.org/Graphics/SVG/1.1/DTD/svg11.dtd">
<!-- Generated by graphviz version 2.43.0 (0)
 -->
<!-- Title: road_geometry_configuration.h Pages: 1 -->
<!--zoomable 274 -->
<svg id="main" version="1.1" xmlns="http://www.w3.org/2000/svg" xmlns:xlink="http://www.w3.org/1999/xlink" xml:space="preserve" onload="init(evt)">
<style type="text/css"><![CDATA[
.edge:hover path { stroke: red; }
.edge:hover polygon { stroke: red; fill: red; }
]]></style>
<script type="text/javascript"><![CDATA[
var edges = document.getElementsByTagName('g');
if (edges && edges.length) {
  for (var i=0;i<edges.length;i++) {
    if (edges[i].id.substr(0,4)=='edge') {
      edges[i].setAttribute('class','edge');
    }
  }
}
]]></script>
        <defs>
                <circle id="rim" cx="0" cy="0" r="7"/>
                <circle id="rim2" cx="0" cy="0" r="3.5"/>
                <g id="zoomPlus">
                        <use xlink:href="#rim" fill="#404040">
                                <set attributeName="fill" to="#808080" begin="zoomplus.mouseover" end="zoomplus.mouseout"/>
                        </use>
                        <path d="M-4,0h8M0,-4v8" fill="none" stroke="white" stroke-width="1.5" pointer-events="none"/>
                </g>
                <g id="zoomMin">
                        <use xlink:href="#rim" fill="#404040">
                                <set attributeName="fill" to="#808080" begin="zoomminus.mouseover" end="zoomminus.mouseout"/>
                        </use>
                        <path d="M-4,0h8" fill="none" stroke="white" stroke-width="1.5" pointer-events="none"/>
                </g>
                <g id="dirArrow">
                        <path fill="none" stroke="white" stroke-width="1.5" d="M0,-3.0v7 M-2.5,-0.5L0,-3.0L2.5,-0.5"/>
                </g>
               <g id="resetDef">
                       <use xlink:href="#rim2" fill="#404040">
                               <set attributeName="fill" to="#808080" begin="reset.mouseover" end="reset.mouseout"/>
                       </use>
               </g>
        </defs>

<script type="text/javascript">
var viewWidth = 1017;
var viewHeight = 274;
var sectionId = 'dynsection-1';
</script>
<script xlink:href="svgpan.js"/>
<svg id="graph" class="graph">
<g id="viewport">
<title>road_geometry_configuration.h</title>
<polygon fill="white" stroke="transparent" points="-4,4 -4,-270 1013,-270 1013,4 -4,4"/>
<!-- Node1 -->
<g id="node1" class="node">
<title>Node1</title>
<g id="a_node1"><a xlink:title=" ">
<polygon fill="#bfbfbf" stroke="black" points="433.5,-246.5 433.5,-265.5 603.5,-265.5 603.5,-246.5 433.5,-246.5"/>
<text text-anchor="middle" x="518.5" y="-253.5" font-family="Helvetica,sans-Serif" font-size="10.00">road_geometry_configuration.h</text>
</a>
</g>
</g>
<!-- Node2 -->
<g id="node2" class="node">
<title>Node2</title>
<g id="a_node2"><a xlink:href="road__geometry__builder__base_8h.html" target="_top" xlink:title=" ">
<polygon fill="white" stroke="black" points="251.5,-179.5 251.5,-209.5 381.5,-209.5 381.5,-179.5 251.5,-179.5"/>
<text text-anchor="start" x="259.5" y="-197.5" font-family="Helvetica,sans-Serif" font-size="10.00">road_geometry_builder</text>
<text text-anchor="middle" x="316.5" y="-186.5" font-family="Helvetica,sans-Serif" font-size="10.00">_base.h</text>
</a>
</g>
</g>
<!-- Node1&#45;&gt;Node2 -->
<g id="edge1" class="edge">
<title>Node1&#45;&gt;Node2</title>
<path fill="none" stroke="midnightblue" d="M479.83,-243.61C446.88,-233.9 399.39,-219.92 364.11,-209.52"/>
<polygon fill="midnightblue" stroke="midnightblue" points="478.98,-247.01 489.56,-246.48 480.95,-240.29 478.98,-247.01"/>
</g>
<!-- Node3 -->
<g id="node3" class="node">
<title>Node3</title>
<g id="a_node3"><a xlink:href="road__geometry__builder_8h.html" target="_top" xlink:title=" ">
<polygon fill="white" stroke="black" points="320,-118 320,-137 459,-137 459,-118 320,-118"/>
<text text-anchor="middle" x="389.5" y="-125" font-family="Helvetica,sans-Serif" font-size="10.00">road_geometry_builder.h</text>
</a>
</g>
</g>
<!-- Node1&#45;&gt;Node3 -->
<g id="edge16" class="edge">
<title>Node1&#45;&gt;Node3</title>
<path fill="none" stroke="midnightblue" d="M480.89,-242.71C463.24,-235.43 442.96,-224.72 428.5,-210 407.39,-188.52 396.01,-153.42 391.64,-137.21"/>
<polygon fill="midnightblue" stroke="midnightblue" points="479.78,-246.03 490.37,-246.4 482.32,-239.51 479.78,-246.03"/>
</g>
<!-- Node7 -->
<g id="node7" class="node">
<title>Node7</title>
<g id="a_node7"><a xlink:href="road__network__configuration_8h.html" target="_top" xlink:title=" ">
<polygon fill="white" stroke="black" points="437.5,-185 437.5,-204 599.5,-204 599.5,-185 437.5,-185"/>
<text text-anchor="middle" x="518.5" y="-192" font-family="Helvetica,sans-Serif" font-size="10.00">road_network_configuration.h</text>
</a>
</g>
</g>
<!-- Node1&#45;&gt;Node7 -->
<g id="edge6" class="edge">
<title>Node1&#45;&gt;Node7</title>
<path fill="none" stroke="midnightblue" d="M518.5,-236.32C518.5,-225.5 518.5,-212.4 518.5,-204.01"/>
<polygon fill="midnightblue" stroke="midnightblue" points="515,-236.48 518.5,-246.48 522,-236.48 515,-236.48"/>
</g>
<!-- Node12 -->
<g id="node12" class="node">
<title>Node12</title>
<g id="a_node12"><a xlink:href="loader_8h.html" target="_top" xlink:title=" ">
<polygon fill="white" stroke="black" points="655.5,-118 655.5,-137 711.5,-137 711.5,-118 655.5,-118"/>
<text text-anchor="middle" x="683.5" y="-125" font-family="Helvetica,sans-Serif" font-size="10.00">loader.h</text>
</a>
</g>
</g>
<!-- Node1&#45;&gt;Node12 -->
<g id="edge15" class="edge">
<title>Node1&#45;&gt;Node12</title>
<path fill="none" stroke="midnightblue" d="M613.61,-252.66C685.82,-248.63 776.65,-237.96 800.5,-210 830.38,-174.97 755.08,-147.82 711.66,-135.59"/>
<polygon fill="midnightblue" stroke="midnightblue" points="613.35,-249.16 603.55,-253.18 613.72,-256.15 613.35,-249.16"/>
</g>
<!-- Node13 -->
<g id="node13" class="node">
<title>Node13</title>
<g id="a_node13"><a xlink:href="road__geometry__configuration_8cc.html" target="_top" xlink:title=" ">
<polygon fill="white" stroke="black" points="617.5,-185 617.5,-204 791.5,-204 791.5,-185 617.5,-185"/>
<text text-anchor="middle" x="704.5" y="-192" font-family="Helvetica,sans-Serif" font-size="10.00">road_geometry_configuration.cc</text>
</a>
</g>
</g>
<!-- Node1&#45;&gt;Node13 -->
<g id="edge17" class="edge">
<title>Node1&#45;&gt;Node13</title>
<path fill="none" stroke="midnightblue" d="M554.82,-243.38C590.98,-231.82 645.6,-214.34 677.9,-204.01"/>
<polygon fill="midnightblue" stroke="midnightblue" points="553.61,-240.09 545.15,-246.48 555.74,-246.76 553.61,-240.09"/>
</g>
<!-- Node14 -->
<g id="node14" class="node">
<title>Node14</title>
<g id="a_node14"><a xlink:href="xodr__parser__configuration_8h.html" target="_top" xlink:title=" ">
<polygon fill="white" stroke="black" points="0,-118 0,-137 153,-137 153,-118 0,-118"/>
<text text-anchor="middle" x="76.5" y="-125" font-family="Helvetica,sans-Serif" font-size="10.00">xodr_parser_configuration.h</text>
</a>
</g>
</g>
<!-- Node1&#45;&gt;Node14 -->
<g id="edge18" class="edge">
<title>Node1&#45;&gt;Node14</title>
<path fill="none" stroke="midnightblue" d="M423.11,-246.46C369.18,-239.9 301.05,-228.69 242.5,-210 183.17,-191.06 118.43,-154.02 90.55,-137.19"/>
<polygon fill="midnightblue" stroke="midnightblue" points="423.01,-249.97 433.35,-247.67 423.83,-243.02 423.01,-249.97"/>
</g>
<!-- Node16 -->
<g id="node16" class="node">
<title>Node16</title>
<g id="a_node16"><a xlink:href="road__geometry__configuration__for__xodrs_8h.html" target="_top" xlink:title=" ">
<polygon fill="white" stroke="black" points="848,-179.5 848,-209.5 1009,-209.5 1009,-179.5 848,-179.5"/>
<text text-anchor="start" x="856" y="-197.5" font-family="Helvetica,sans-Serif" font-size="10.00">road_geometry_configuration</text>
<text text-anchor="middle" x="928.5" y="-186.5" font-family="Helvetica,sans-Serif" font-size="10.00">_for_xodrs.h</text>
</a>
</g>
</g>
<!-- Node1&#45;&gt;Node16 -->
<g id="edge22" class="edge">
<title>Node1&#45;&gt;Node16</title>
<path fill="none" stroke="midnightblue" d="M589.46,-245.06C653.33,-236.07 749.72,-222.38 833.5,-210 838.2,-209.31 843.04,-208.59 847.91,-207.85"/>
<polygon fill="midnightblue" stroke="midnightblue" points="588.92,-241.6 579.5,-246.46 589.89,-248.53 588.92,-241.6"/>
</g>
<!-- Node2&#45;&gt;Node3 -->
<g id="edge2" class="edge">
<title>Node2&#45;&gt;Node3</title>
<path fill="none" stroke="midnightblue" d="M339.89,-172.67C353.37,-160.67 369.6,-146.22 379.74,-137.19"/>
<polygon fill="midnightblue" stroke="midnightblue" points="337.48,-170.13 332.34,-179.4 342.14,-175.36 337.48,-170.13"/>
</g>
<!-- Node6 -->
<g id="node6" class="node">
<title>Node6</title>
<g id="a_node6"><a xlink:href="road__geometry__builder__base_8cc.html" target="_top" xlink:title=" ">
<polygon fill="white" stroke="black" points="171.5,-112.5 171.5,-142.5 301.5,-142.5 301.5,-112.5 171.5,-112.5"/>
<text text-anchor="start" x="179.5" y="-130.5" font-family="Helvetica,sans-Serif" font-size="10.00">road_geometry_builder</text>
<text text-anchor="middle" x="236.5" y="-119.5" font-family="Helvetica,sans-Serif" font-size="10.00">_base.cc</text>
</a>
</g>
</g>
<!-- Node2&#45;&gt;Node6 -->
<g id="edge5" class="edge">
<title>Node2&#45;&gt;Node6</title>
<path fill="none" stroke="midnightblue" d="M291.13,-172.88C278.97,-163.01 264.72,-151.43 253.82,-142.58"/>
<polygon fill="midnightblue" stroke="midnightblue" points="289.17,-175.81 299.14,-179.4 293.59,-170.37 289.17,-175.81"/>
</g>
<!-- Node4 -->
<g id="node4" class="node">
<title>Node4</title>
<g id="a_node4"><a xlink:href="road__geometry__builder_8cc.html" target="_top" xlink:title=" ">
<polygon fill="white" stroke="black" points="222,-56.5 222,-75.5 365,-75.5 365,-56.5 222,-56.5"/>
<text text-anchor="middle" x="293.5" y="-63.5" font-family="Helvetica,sans-Serif" font-size="10.00">road_geometry_builder.cc</text>
</a>
</g>
</g>
<!-- Node3&#45;&gt;Node4 -->
<g id="edge3" class="edge">
<title>Node3&#45;&gt;Node4</title>
<path fill="none" stroke="midnightblue" d="M367.05,-112.59C348.53,-101.1 322.83,-85.18 307.23,-75.51"/>
<polygon fill="midnightblue" stroke="midnightblue" points="365.4,-115.68 375.75,-117.98 369.09,-109.73 365.4,-115.68"/>
</g>
<!-- Node5 -->
<g id="node5" class="node">
<title>Node5</title>
<g id="a_node5"><a xlink:href="road__network__builder_8cc.html" target="_top" xlink:title=" ">
<polygon fill="white" stroke="black" points="325.5,-0.5 325.5,-19.5 461.5,-19.5 461.5,-0.5 325.5,-0.5"/>
<text text-anchor="middle" x="393.5" y="-7.5" font-family="Helvetica,sans-Serif" font-size="10.00">road_network_builder.cc</text>
</a>
</g>
</g>
<!-- Node3&#45;&gt;Node5 -->
<g id="edge4" class="edge">
<title>Node3&#45;&gt;Node5</title>
<path fill="none" stroke="midnightblue" d="M390.15,-107.66C391.03,-82.37 392.55,-38.44 393.2,-19.78"/>
<polygon fill="midnightblue" stroke="midnightblue" points="386.65,-107.7 389.8,-117.82 393.64,-107.95 386.65,-107.7"/>
</g>
<!-- Node8 -->
<g id="node8" class="node">
<title>Node8</title>
<g id="a_node8"><a xlink:href="road__network__builder_8h.html" target="_top" xlink:title=" ">
<polygon fill="white" stroke="black" points="494,-56.5 494,-75.5 625,-75.5 625,-56.5 494,-56.5"/>
<text text-anchor="middle" x="559.5" y="-63.5" font-family="Helvetica,sans-Serif" font-size="10.00">road_network_builder.h</text>
</a>
</g>
</g>
<!-- Node7&#45;&gt;Node8 -->
<g id="edge7" class="edge">
<title>Node7&#45;&gt;Node8</title>
<path fill="none" stroke="midnightblue" d="M559.28,-181.27C577.74,-173.47 597.78,-161.3 608.5,-143 615.46,-131.11 614.04,-124.61 608.5,-112 601.53,-96.14 585.91,-83.42 574.16,-75.6"/>
<polygon fill="midnightblue" stroke="midnightblue" points="557.87,-178.07 549.83,-184.96 560.42,-184.59 557.87,-178.07"/>
</g>
<!-- Node11 -->
<g id="node11" class="node">
<title>Node11</title>
<g id="a_node11"><a xlink:href="road__network__builder__base_8h.html" target="_top" xlink:title=" ">
<polygon fill="white" stroke="black" points="477.5,-112.5 477.5,-142.5 599.5,-142.5 599.5,-112.5 477.5,-112.5"/>
<text text-anchor="start" x="485.5" y="-130.5" font-family="Helvetica,sans-Serif" font-size="10.00">road_network_builder</text>
<text text-anchor="middle" x="538.5" y="-119.5" font-family="Helvetica,sans-Serif" font-size="10.00">_base.h</text>
</a>
</g>
</g>
<!-- Node7&#45;&gt;Node11 -->
<g id="edge11" class="edge">
<title>Node7&#45;&gt;Node11</title>
<path fill="none" stroke="midnightblue" d="M524.17,-175.06C527.35,-164.75 531.24,-152.1 534.16,-142.59"/>
<polygon fill="midnightblue" stroke="midnightblue" points="520.79,-174.15 521.2,-184.73 527.48,-176.21 520.79,-174.15"/>
</g>
<!-- Node7&#45;&gt;Node12 -->
<g id="edge13" class="edge">
<title>Node7&#45;&gt;Node12</title>
<path fill="none" stroke="midnightblue" d="M549.97,-181.1C582.73,-168.2 633.17,-148.33 661.76,-137.06"/>
<polygon fill="midnightblue" stroke="midnightblue" points="548.43,-177.95 540.41,-184.87 551,-184.46 548.43,-177.95"/>
</g>
<!-- Node8&#45;&gt;Node5 -->
<g id="edge8" class="edge">
<title>Node8&#45;&gt;Node5</title>
<path fill="none" stroke="midnightblue" d="M523.55,-53.3C492.27,-43.13 447.68,-28.62 419.68,-19.52"/>
<polygon fill="midnightblue" stroke="midnightblue" points="522.6,-56.68 533.2,-56.44 524.77,-50.02 522.6,-56.68"/>
</g>
<!-- Node9 -->
<g id="node9" class="node">
<title>Node9</title>
<g id="a_node9"><a xlink:href="loader_8cc.html" target="_top" xlink:title=" ">
<polygon fill="white" stroke="black" points="641,-0.5 641,-19.5 702,-19.5 702,-0.5 641,-0.5"/>
<text text-anchor="middle" x="671.5" y="-7.5" font-family="Helvetica,sans-Serif" font-size="10.00">loader.cc</text>
</a>
</g>
</g>
<!-- Node8&#45;&gt;Node9 -->
<g id="edge9" class="edge">
<title>Node8&#45;&gt;Node9</title>
<path fill="none" stroke="midnightblue" d="M586.75,-51.86C607.52,-41.85 635.52,-28.35 653.55,-19.65"/>
<polygon fill="midnightblue" stroke="midnightblue" points="584.98,-48.83 577.49,-56.32 588.02,-55.13 584.98,-48.83"/>
</g>
<!-- Node10 -->
<g id="node10" class="node">
<title>Node10</title>
<g id="a_node10"><a xlink:href="road__network_8cc.html" target="_top" xlink:title=" ">
<polygon fill="white" stroke="black" points="511,-0.5 511,-19.5 608,-19.5 608,-0.5 511,-0.5"/>
<text text-anchor="middle" x="559.5" y="-7.5" font-family="Helvetica,sans-Serif" font-size="10.00">road_network.cc</text>
</a>
</g>
</g>
<!-- Node8&#45;&gt;Node10 -->
<g id="edge10" class="edge">
<title>Node8&#45;&gt;Node10</title>
<path fill="none" stroke="midnightblue" d="M559.5,-45.8C559.5,-36.91 559.5,-26.78 559.5,-19.75"/>
<polygon fill="midnightblue" stroke="midnightblue" points="556,-46.08 559.5,-56.08 563,-46.08 556,-46.08"/>
</g>
<!-- Node11&#45;&gt;Node8 -->
<g id="edge12" class="edge">
<title>Node11&#45;&gt;Node8</title>
<path fill="none" stroke="midnightblue" d="M546.83,-102.9C550.22,-93.3 553.92,-82.81 556.44,-75.66"/>
<polygon fill="midnightblue" stroke="midnightblue" points="543.5,-101.8 543.48,-112.4 550.11,-104.13 543.5,-101.8"/>
</g>
<!-- Node12&#45;&gt;Node9 -->
<g id="edge14" class="edge">
<title>Node12&#45;&gt;Node9</title>
<path fill="none" stroke="midnightblue" d="M681.54,-107.66C678.91,-82.37 674.35,-38.44 672.41,-19.78"/>
<polygon fill="midnightblue" stroke="midnightblue" points="678.08,-108.23 682.6,-117.82 685.05,-107.51 678.08,-108.23"/>
</g>
<!-- Node14&#45;&gt;Node4 -->
<g id="edge19" class="edge">
<title>Node14&#45;&gt;Node4</title>
<path fill="none" stroke="midnightblue" d="M117.27,-115.32C159.42,-103.76 224.3,-85.97 262.47,-75.51"/>
<polygon fill="midnightblue" stroke="midnightblue" points="116.31,-111.96 107.59,-117.98 118.16,-118.71 116.31,-111.96"/>
</g>
<!-- Node14&#45;&gt;Node5 -->
<g id="edge20" class="edge">
<title>Node14&#45;&gt;Node5</title>
<path fill="none" stroke="midnightblue" d="M57.51,-111.27C40.92,-96.16 21.62,-72.87 36.5,-56 55.25,-34.74 226.86,-21.01 325.16,-14.81"/>
<polygon fill="midnightblue" stroke="midnightblue" points="55.42,-114.09 65.28,-117.97 59.99,-108.79 55.42,-114.09"/>
</g>
<!-- Node15 -->
<g id="node15" class="node">
<title>Node15</title>
<g id="a_node15"><a xlink:href="xodr__parser__configuration_8cc.html" target="_top" xlink:title=" ">
<polygon fill="white" stroke="black" points="45.5,-56.5 45.5,-75.5 203.5,-75.5 203.5,-56.5 45.5,-56.5"/>
<text text-anchor="middle" x="124.5" y="-63.5" font-family="Helvetica,sans-Serif" font-size="10.00">xodr_parser_configuration.cc</text>
</a>
</g>
</g>
<!-- Node14&#45;&gt;Node15 -->
<g id="edge21" class="edge">
<title>Node14&#45;&gt;Node15</title>
<path fill="none" stroke="midnightblue" d="M89.67,-110.17C98.72,-98.95 110.37,-84.52 117.64,-75.51"/>
<polygon fill="midnightblue" stroke="midnightblue" points="86.93,-107.99 83.38,-117.98 92.38,-112.39 86.93,-107.99"/>
</g>
<!-- Node17 -->
<g id="node17" class="node">
<title>Node17</title>
<g id="a_node17"><a xlink:href="road__geometry__configuration__for__xodrs_8cc.html" target="_top" xlink:title=" ">
<polygon fill="white" stroke="black" points="848,-112.5 848,-142.5 1009,-142.5 1009,-112.5 848,-112.5"/>
<text text-anchor="start" x="856" y="-130.5" font-family="Helvetica,sans-Serif" font-size="10.00">road_geometry_configuration</text>
<text text-anchor="middle" x="928.5" y="-119.5" font-family="Helvetica,sans-Serif" font-size="10.00">_for_xodrs.cc</text>
</a>
</g>
</g>
<!-- Node16&#45;&gt;Node17 -->
<g id="edge23" class="edge">
<title>Node16&#45;&gt;Node17</title>
<path fill="none" stroke="midnightblue" d="M928.5,-169.11C928.5,-160.15 928.5,-150.32 928.5,-142.58"/>
<polygon fill="midnightblue" stroke="midnightblue" points="925,-169.4 928.5,-179.4 932,-169.4 925,-169.4"/>
</g>
</g>
</svg>
        <g id="navigator" transform="translate(0 0)" fill="#404254">
                <rect fill="#f2f5e9" fill-opacity="0.5" stroke="#606060" stroke-width=".5" x="0" y="0" width="60" height="60"/>
                <use id="zoomplus" xlink:href="#zoomPlus" x="17" y="9" onmousedown="handleZoom(evt,'in')"/>
                <use id="zoomminus" xlink:href="#zoomMin" x="42" y="9" onmousedown="handleZoom(evt,'out')"/>
                <use id="reset" xlink:href="#resetDef" x="30" y="36" onmousedown="handleReset()"/>
                <g id="arrowUp" xlink:href="#dirArrow" transform="translate(30 24)" onmousedown="handlePan(0,-1)">
                  <use xlink:href="#rim" fill="#404040">
                        <set attributeName="fill" to="#808080" begin="arrowUp.mouseover" end="arrowUp.mouseout"/>
                  </use>
                  <path fill="none" stroke="white" stroke-width="1.5" d="M0,-3.0v7 M-2.5,-0.5L0,-3.0L2.5,-0.5"/>
                </g>
                <g id="arrowRight" xlink:href="#dirArrow" transform="rotate(90) translate(36 -43)" onmousedown="handlePan(1,0)">
                  <use xlink:href="#rim" fill="#404040">
                        <set attributeName="fill" to="#808080" begin="arrowRight.mouseover" end="arrowRight.mouseout"/>
                  </use>
                  <path fill="none" stroke="white" stroke-width="1.5" d="M0,-3.0v7 M-2.5,-0.5L0,-3.0L2.5,-0.5"/>
                </g>
                <g id="arrowDown" xlink:href="#dirArrow" transform="rotate(180) translate(-30 -48)" onmousedown="handlePan(0,1)">
                  <use xlink:href="#rim" fill="#404040">
                        <set attributeName="fill" to="#808080" begin="arrowDown.mouseover" end="arrowDown.mouseout"/>
                  </use>
                  <path fill="none" stroke="white" stroke-width="1.5" d="M0,-3.0v7 M-2.5,-0.5L0,-3.0L2.5,-0.5"/>
                </g>
                <g id="arrowLeft" xlink:href="#dirArrow" transform="rotate(270) translate(-36 17)" onmousedown="handlePan(-1,0)">
                  <use xlink:href="#rim" fill="#404040">
                        <set attributeName="fill" to="#808080" begin="arrowLeft.mouseover" end="arrowLeft.mouseout"/>
                  </use>
                  <path fill="none" stroke="white" stroke-width="1.5" d="M0,-3.0v7 M-2.5,-0.5L0,-3.0L2.5,-0.5"/>
                </g>
        </g>
        <svg viewBox="0 0 15 15" width="100%" height="30px" preserveAspectRatio="xMaxYMin meet">
         <g id="arrow_out" transform="scale(0.3 0.3)">
          <a xlink:href="road__geometry__configuration_8h__dep__incl_org.svg" target="_base">
           <rect id="button" ry="5" rx="5" y="6" x="6" height="38" width="38"
                fill="#f2f5e9" fill-opacity="0.5" stroke="#606060" stroke-width="1.0"/>
           <path id="arrow"
             d="M 11.500037,31.436501 C 11.940474,20.09759 22.043105,11.32322 32.158766,21.979434 L 37.068811,17.246167 C 37.068811,17.246167 37.088388,32 37.088388,32 L 22.160133,31.978069 C 22.160133,31.978069 26.997745,27.140456 26.997745,27.140456 C 18.528582,18.264221 13.291696,25.230495 11.500037,31.436501 z"
             style="fill:#404040;"/>
          </a>
         </g>
        </svg>
</svg>
