<?xml version="1.0" encoding="UTF-8" standalone="no"?>
<!DOCTYPE svg PUBLIC "-//W3C//DTD SVG 1.1//EN"
 "http://www.w3.org/Graphics/SVG/1.1/DTD/svg11.dtd">
<!-- Generated by graphviz version 2.43.0 (0)
 -->
<!-- Title: road_geometry_builder_base.h Pages: 1 -->
<!--zoomable 251 -->
<svg id="main" version="1.1" xmlns="http://www.w3.org/2000/svg" xmlns:xlink="http://www.w3.org/1999/xlink" xml:space="preserve" onload="init(evt)">
<style type="text/css"><![CDATA[
.edge:hover path { stroke: red; }
.edge:hover polygon { stroke: red; fill: red; }
]]></style>
<script type="text/javascript"><![CDATA[
var edges = document.getElementsByTagName('g');
if (edges && edges.length) {
  for (var i=0;i<edges.length;i++) {
    if (edges[i].id.substr(0,4)=='edge') {
      edges[i].setAttribute('class','edge');
    }
  }
}
]]></script>
        <defs>
                <circle id="rim" cx="0" cy="0" r="7"/>
                <circle id="rim2" cx="0" cy="0" r="3.5"/>
                <g id="zoomPlus">
                        <use xlink:href="#rim" fill="#404040">
                                <set attributeName="fill" to="#808080" begin="zoomplus.mouseover" end="zoomplus.mouseout"/>
                        </use>
                        <path d="M-4,0h8M0,-4v8" fill="none" stroke="white" stroke-width="1.5" pointer-events="none"/>
                </g>
                <g id="zoomMin">
                        <use xlink:href="#rim" fill="#404040">
                                <set attributeName="fill" to="#808080" begin="zoomminus.mouseover" end="zoomminus.mouseout"/>
                        </use>
                        <path d="M-4,0h8" fill="none" stroke="white" stroke-width="1.5" pointer-events="none"/>
                </g>
                <g id="dirArrow">
                        <path fill="none" stroke="white" stroke-width="1.5" d="M0,-3.0v7 M-2.5,-0.5L0,-3.0L2.5,-0.5"/>
                </g>
               <g id="resetDef">
                       <use xlink:href="#rim2" fill="#404040">
                               <set attributeName="fill" to="#808080" begin="reset.mouseover" end="reset.mouseout"/>
                       </use>
               </g>
        </defs>

<script type="text/javascript">
var viewWidth = 1516;
var viewHeight = 251;
var sectionId = 'dynsection-0';
</script>
<script xlink:href="svgpan.js"/>
<svg id="graph" class="graph">
<g id="viewport">
<title>road_geometry_builder_base.h</title>
<polygon fill="white" stroke="transparent" points="-4,4 -4,-247 1512,-247 1512,4 -4,4"/>
<!-- Node1 -->
<g id="node1" class="node">
<title>Node1</title>
<g id="a_node1"><a xlink:title=" ">
<polygon fill="#bfbfbf" stroke="black" points="363,-212.5 363,-242.5 493,-242.5 493,-212.5 363,-212.5"/>
<text text-anchor="start" x="371" y="-230.5" font-family="Helvetica,sans-Serif" font-size="10.00">road_geometry_builder</text>
<text text-anchor="middle" x="428" y="-219.5" font-family="Helvetica,sans-Serif" font-size="10.00">_base.h</text>
</a>
</g>
</g>
<!-- Node2 -->
<g id="node2" class="node">
<title>Node2</title>
<g id="a_node2"><a xlink:title=" ">
<polygon fill="white" stroke="#bfbfbf" points="0,-145.5 0,-164.5 38,-164.5 38,-145.5 0,-145.5"/>
<text text-anchor="middle" x="19" y="-152.5" font-family="Helvetica,sans-Serif" font-size="10.00">map</text>
</a>
</g>
</g>
<!-- Node1&#45;&gt;Node2 -->
<g id="edge1" class="edge">
<title>Node1&#45;&gt;Node2</title>
<path fill="none" stroke="midnightblue" d="M362.93,-227.32C285.12,-226.2 152.2,-217.53 47,-176 43.4,-174.58 39.83,-172.59 36.5,-170.42"/>
<polygon fill="midnightblue" stroke="midnightblue" points="38.55,-167.59 28.41,-164.5 34.41,-173.23 38.55,-167.59"/>
</g>
<!-- Node3 -->
<g id="node3" class="node">
<title>Node3</title>
<g id="a_node3"><a xlink:title=" ">
<polygon fill="white" stroke="#bfbfbf" points="56,-145.5 56,-164.5 114,-164.5 114,-145.5 56,-145.5"/>
<text text-anchor="middle" x="85" y="-152.5" font-family="Helvetica,sans-Serif" font-size="10.00">memory</text>
</a>
</g>
</g>
<!-- Node1&#45;&gt;Node3 -->
<g id="edge2" class="edge">
<title>Node1&#45;&gt;Node3</title>
<path fill="none" stroke="midnightblue" d="M362.75,-220.62C301.18,-213.88 206.81,-200.47 128,-176 122.06,-174.15 115.87,-171.65 110.11,-169.05"/>
<polygon fill="midnightblue" stroke="midnightblue" points="111.46,-165.81 100.93,-164.66 108.44,-172.13 111.46,-165.81"/>
</g>
<!-- Node4 -->
<g id="node4" class="node">
<title>Node4</title>
<g id="a_node4"><a xlink:title=" ">
<polygon fill="white" stroke="#bfbfbf" points="21,-6 21,-25 65,-25 65,-6 21,-6"/>
<text text-anchor="middle" x="43" y="-13" font-family="Helvetica,sans-Serif" font-size="10.00">string</text>
</a>
</g>
</g>
<!-- Node1&#45;&gt;Node4 -->
<g id="edge3" class="edge">
<title>Node1&#45;&gt;Node4</title>
<path fill="none" stroke="midnightblue" d="M362.53,-221.54C315.71,-215.74 252.48,-203.18 203,-176 136.35,-139.39 78.89,-66.76 54.92,-33.66"/>
<polygon fill="midnightblue" stroke="midnightblue" points="57.48,-31.21 48.83,-25.08 51.77,-35.26 57.48,-31.21"/>
</g>
<!-- Node5 -->
<g id="node5" class="node">
<title>Node5</title>
<g id="a_node5"><a xlink:title=" ">
<polygon fill="white" stroke="#bfbfbf" points="661.5,-145.5 661.5,-164.5 708.5,-164.5 708.5,-145.5 661.5,-145.5"/>
<text text-anchor="middle" x="685" y="-152.5" font-family="Helvetica,sans-Serif" font-size="10.00">vector</text>
</a>
</g>
</g>
<!-- Node1&#45;&gt;Node5 -->
<g id="edge4" class="edge">
<title>Node1&#45;&gt;Node5</title>
<path fill="none" stroke="midnightblue" d="M493.28,-217.83C539.17,-210.31 601.34,-197.22 653,-176 656.91,-174.39 660.88,-172.33 664.64,-170.13"/>
<polygon fill="midnightblue" stroke="midnightblue" points="666.79,-172.92 673.36,-164.61 663.04,-167 666.79,-172.92"/>
</g>
<!-- Node6 -->
<g id="node6" class="node">
<title>Node6</title>
<g id="a_node6"><a xlink:title=" ">
<polygon fill="white" stroke="#bfbfbf" points="726.5,-140 726.5,-170 859.5,-170 859.5,-140 726.5,-140"/>
<text text-anchor="start" x="734.5" y="-158" font-family="Helvetica,sans-Serif" font-size="10.00">maliput/geometry_base</text>
<text text-anchor="middle" x="793" y="-147" font-family="Helvetica,sans-Serif" font-size="10.00">/junction.h</text>
</a>
</g>
</g>
<!-- Node1&#45;&gt;Node6 -->
<g id="edge5" class="edge">
<title>Node1&#45;&gt;Node6</title>
<path fill="none" stroke="midnightblue" d="M493.11,-216.84C552.09,-207.7 641.26,-192.88 718,-176 722.89,-174.92 727.95,-173.74 733.01,-172.5"/>
<polygon fill="midnightblue" stroke="midnightblue" points="733.87,-175.89 742.72,-170.06 732.17,-169.1 733.87,-175.89"/>
</g>
<!-- Node7 -->
<g id="node7" class="node">
<title>Node7</title>
<g id="a_node7"><a xlink:href="../../maliput/html/vector_8h.html.html" xlink:title=" ">
<polygon fill="white" stroke="black" points="877.5,-145.5 877.5,-164.5 1002.5,-164.5 1002.5,-145.5 877.5,-145.5"/>
<text text-anchor="middle" x="940" y="-152.5" font-family="Helvetica,sans-Serif" font-size="10.00">maliput/math/vector.h</text>
</a>
</g>
</g>
<!-- Node1&#45;&gt;Node7 -->
<g id="edge6" class="edge">
<title>Node1&#45;&gt;Node7</title>
<path fill="none" stroke="midnightblue" d="M493.14,-222.33C579.64,-216.04 736.87,-202 869,-176 880.45,-173.75 892.74,-170.56 903.83,-167.4"/>
<polygon fill="midnightblue" stroke="midnightblue" points="905,-170.7 913.61,-164.52 903.03,-163.99 905,-170.7"/>
</g>
<!-- Node8 -->
<g id="node8" class="node">
<title>Node8</title>
<g id="a_node8"><a xlink:href="inertial__to__lane__mapping__config_8h.html" target="_top" xlink:title=" ">
<polygon fill="white" stroke="black" points="212.5,-134.5 212.5,-175.5 355.5,-175.5 355.5,-134.5 212.5,-134.5"/>
<text text-anchor="start" x="220.5" y="-163.5" font-family="Helvetica,sans-Serif" font-size="10.00">maliput_malidrive/base</text>
<text text-anchor="start" x="220.5" y="-152.5" font-family="Helvetica,sans-Serif" font-size="10.00">/inertial_to_lane_mapping</text>
<text text-anchor="middle" x="284" y="-141.5" font-family="Helvetica,sans-Serif" font-size="10.00">_config.h</text>
</a>
</g>
</g>
<!-- Node1&#45;&gt;Node8 -->
<g id="edge7" class="edge">
<title>Node1&#45;&gt;Node8</title>
<path fill="none" stroke="midnightblue" d="M399.21,-212.4C380.32,-203.16 355.14,-190.83 333.13,-180.05"/>
<polygon fill="midnightblue" stroke="midnightblue" points="334.44,-176.8 323.92,-175.55 331.37,-183.09 334.44,-176.8"/>
</g>
<!-- Node15 -->
<g id="node15" class="node">
<title>Node15</title>
<g id="a_node15"><a xlink:href="id__providers_8h.html" target="_top" xlink:title=" ">
<polygon fill="white" stroke="black" points="500.5,-140 500.5,-170 643.5,-170 643.5,-140 500.5,-140"/>
<text text-anchor="start" x="508.5" y="-158" font-family="Helvetica,sans-Serif" font-size="10.00">maliput_malidrive/builder</text>
<text text-anchor="middle" x="572" y="-147" font-family="Helvetica,sans-Serif" font-size="10.00">/id_providers.h</text>
</a>
</g>
</g>
<!-- Node1&#45;&gt;Node15 -->
<g id="edge16" class="edge">
<title>Node1&#45;&gt;Node15</title>
<path fill="none" stroke="midnightblue" d="M456.79,-212.4C478.97,-201.55 509.81,-186.45 534.01,-174.6"/>
<polygon fill="midnightblue" stroke="midnightblue" points="535.81,-177.61 543.26,-170.07 532.74,-171.33 535.81,-177.61"/>
</g>
<!-- Node9 -->
<g id="node9" class="node">
<title>Node9</title>
<g id="a_node9"><a xlink:href="../../maliput/html/maliput__abort_8h.html.html" xlink:title=" ">
<polygon fill="white" stroke="black" points="83,-0.5 83,-30.5 223,-30.5 223,-0.5 83,-0.5"/>
<text text-anchor="start" x="91" y="-18.5" font-family="Helvetica,sans-Serif" font-size="10.00">maliput/common/maliput</text>
<text text-anchor="middle" x="153" y="-7.5" font-family="Helvetica,sans-Serif" font-size="10.00">_abort.h</text>
</a>
</g>
</g>
<!-- Node8&#45;&gt;Node9 -->
<g id="edge8" class="edge">
<title>Node8&#45;&gt;Node9</title>
<path fill="none" stroke="midnightblue" d="M245.97,-134.25C230.14,-124.77 212.39,-112.34 199,-98 183.15,-81.02 170.66,-57.59 162.72,-40.21"/>
<polygon fill="midnightblue" stroke="midnightblue" points="165.8,-38.52 158.58,-30.77 159.39,-41.34 165.8,-38.52"/>
</g>
<!-- Node10 -->
<g id="node10" class="node">
<title>Node10</title>
<g id="a_node10"><a xlink:href="macros_8h.html" target="_top" xlink:title=" ">
<polygon fill="white" stroke="black" points="208,-67.5 208,-97.5 360,-97.5 360,-67.5 208,-67.5"/>
<text text-anchor="start" x="216" y="-85.5" font-family="Helvetica,sans-Serif" font-size="10.00">maliput_malidrive/common</text>
<text text-anchor="middle" x="284" y="-74.5" font-family="Helvetica,sans-Serif" font-size="10.00">/macros.h</text>
</a>
</g>
</g>
<!-- Node8&#45;&gt;Node10 -->
<g id="edge9" class="edge">
<title>Node8&#45;&gt;Node10</title>
<path fill="none" stroke="midnightblue" d="M284,-134.36C284,-126.23 284,-116.7 284,-108.11"/>
<polygon fill="midnightblue" stroke="midnightblue" points="287.5,-107.89 284,-97.89 280.5,-107.89 287.5,-107.89"/>
</g>
<!-- Node10&#45;&gt;Node4 -->
<g id="edge10" class="edge">
<title>Node10&#45;&gt;Node4</title>
<path fill="none" stroke="midnightblue" d="M209.57,-67.43C168.94,-58.79 118.06,-46.43 74,-31 72.38,-30.43 70.73,-29.81 69.08,-29.15"/>
<polygon fill="midnightblue" stroke="midnightblue" points="70.36,-25.89 59.8,-25.11 67.57,-32.31 70.36,-25.89"/>
</g>
<!-- Node10&#45;&gt;Node9 -->
<g id="edge13" class="edge">
<title>Node10&#45;&gt;Node9</title>
<path fill="none" stroke="midnightblue" d="M255.57,-67.4C236.52,-57.94 211.22,-45.39 190.52,-35.12"/>
<polygon fill="midnightblue" stroke="midnightblue" points="191.88,-31.89 181.37,-30.58 188.77,-38.16 191.88,-31.89"/>
</g>
<!-- Node11 -->
<g id="node11" class="node">
<title>Node11</title>
<g id="a_node11"><a xlink:href="../../maliput/html/assertion__error_8h.html.html" xlink:title=" ">
<polygon fill="white" stroke="black" points="557,-0.5 557,-30.5 705,-30.5 705,-0.5 557,-0.5"/>
<text text-anchor="start" x="565" y="-18.5" font-family="Helvetica,sans-Serif" font-size="10.00">maliput/common/assertion</text>
<text text-anchor="middle" x="631" y="-7.5" font-family="Helvetica,sans-Serif" font-size="10.00">_error.h</text>
</a>
</g>
</g>
<!-- Node10&#45;&gt;Node11 -->
<g id="edge11" class="edge">
<title>Node10&#45;&gt;Node11</title>
<path fill="none" stroke="midnightblue" d="M358.87,-67.48C414.12,-57.13 489.37,-43.03 546.73,-32.28"/>
<polygon fill="midnightblue" stroke="midnightblue" points="547.68,-35.67 556.86,-30.39 546.39,-28.79 547.68,-35.67"/>
</g>
<!-- Node12 -->
<g id="node12" class="node">
<title>Node12</title>
<g id="a_node12"><a xlink:href="../../maliput/html/logger_8h.html.html" xlink:title=" ">
<polygon fill="white" stroke="black" points="723.5,-6 723.5,-25 866.5,-25 866.5,-6 723.5,-6"/>
<text text-anchor="middle" x="795" y="-13" font-family="Helvetica,sans-Serif" font-size="10.00">maliput/common/logger.h</text>
</a>
</g>
</g>
<!-- Node10&#45;&gt;Node12 -->
<g id="edge12" class="edge">
<title>Node10&#45;&gt;Node12</title>
<path fill="none" stroke="midnightblue" d="M360.42,-68.22C363.31,-67.8 366.18,-67.39 369,-67 521.73,-46.03 561.35,-52.6 714,-31 722.63,-29.78 731.75,-28.32 740.64,-26.8"/>
<polygon fill="midnightblue" stroke="midnightblue" points="741.28,-30.24 750.53,-25.06 740.08,-23.34 741.28,-30.24"/>
</g>
<!-- Node13 -->
<g id="node13" class="node">
<title>Node13</title>
<g id="a_node13"><a xlink:href="../../maliput/html/maliput__copyable_8h.html.html" xlink:title=" ">
<polygon fill="white" stroke="black" points="241,-0.5 241,-30.5 381,-30.5 381,-0.5 241,-0.5"/>
<text text-anchor="start" x="249" y="-18.5" font-family="Helvetica,sans-Serif" font-size="10.00">maliput/common/maliput</text>
<text text-anchor="middle" x="311" y="-7.5" font-family="Helvetica,sans-Serif" font-size="10.00">_copyable.h</text>
</a>
</g>
</g>
<!-- Node10&#45;&gt;Node13 -->
<g id="edge14" class="edge">
<title>Node10&#45;&gt;Node13</title>
<path fill="none" stroke="midnightblue" d="M289.86,-67.4C293.18,-59.39 297.43,-49.16 301.25,-39.98"/>
<polygon fill="midnightblue" stroke="midnightblue" points="304.55,-41.15 305.15,-30.58 298.08,-38.47 304.55,-41.15"/>
</g>
<!-- Node14 -->
<g id="node14" class="node">
<title>Node14</title>
<g id="a_node14"><a xlink:href="../../maliput/html/maliput__throw_8h.html.html" xlink:title=" ">
<polygon fill="white" stroke="black" points="399,-0.5 399,-30.5 539,-30.5 539,-0.5 399,-0.5"/>
<text text-anchor="start" x="407" y="-18.5" font-family="Helvetica,sans-Serif" font-size="10.00">maliput/common/maliput</text>
<text text-anchor="middle" x="469" y="-7.5" font-family="Helvetica,sans-Serif" font-size="10.00">_throw.h</text>
</a>
</g>
</g>
<!-- Node10&#45;&gt;Node14 -->
<g id="edge15" class="edge">
<title>Node10&#45;&gt;Node14</title>
<path fill="none" stroke="midnightblue" d="M324.14,-67.4C352.02,-57.6 389.36,-44.48 419.15,-34.02"/>
<polygon fill="midnightblue" stroke="midnightblue" points="420.66,-37.19 428.94,-30.58 418.34,-30.59 420.66,-37.19"/>
</g>
<!-- Node15&#45;&gt;Node10 -->
<g id="edge25" class="edge">
<title>Node15&#45;&gt;Node10</title>
<path fill="none" stroke="midnightblue" d="M514.76,-139.99C467.79,-128.49 401.21,-112.19 351.62,-100.05"/>
<polygon fill="midnightblue" stroke="midnightblue" points="352.17,-96.59 341.63,-97.61 350.51,-103.38 352.17,-96.59"/>
</g>
<!-- Node16 -->
<g id="node16" class="node">
<title>Node16</title>
<g id="a_node16"><a xlink:title=" ">
<polygon fill="white" stroke="#bfbfbf" points="1400,-67.5 1400,-97.5 1508,-97.5 1508,-67.5 1400,-67.5"/>
<text text-anchor="start" x="1408" y="-85.5" font-family="Helvetica,sans-Serif" font-size="10.00">maliput/api/branch</text>
<text text-anchor="middle" x="1454" y="-74.5" font-family="Helvetica,sans-Serif" font-size="10.00">_point.h</text>
</a>
</g>
</g>
<!-- Node15&#45;&gt;Node16 -->
<g id="edge17" class="edge">
<title>Node15&#45;&gt;Node16</title>
<path fill="none" stroke="midnightblue" d="M622.26,-139.99C632.37,-137.63 642.97,-135.47 653,-134 974.59,-86.91 1063.88,-141.86 1389.62,-98.01"/>
<polygon fill="midnightblue" stroke="midnightblue" points="1390.38,-101.44 1399.82,-96.61 1389.44,-94.5 1390.38,-101.44"/>
</g>
<!-- Node17 -->
<g id="node17" class="node">
<title>Node17</title>
<g id="a_node17"><a xlink:title=" ">
<polygon fill="white" stroke="#bfbfbf" points="378.5,-73 378.5,-92 501.5,-92 501.5,-73 378.5,-73"/>
<text text-anchor="middle" x="440" y="-80" font-family="Helvetica,sans-Serif" font-size="10.00">maliput/api/junction.h</text>
</a>
</g>
</g>
<!-- Node15&#45;&gt;Node17 -->
<g id="edge18" class="edge">
<title>Node15&#45;&gt;Node17</title>
<path fill="none" stroke="midnightblue" d="M545.61,-139.9C522.06,-127.33 487.86,-109.06 464.81,-96.75"/>
<polygon fill="midnightblue" stroke="midnightblue" points="466.45,-93.66 455.98,-92.03 463.15,-99.83 466.45,-93.66"/>
</g>
<!-- Node18 -->
<g id="node18" class="node">
<title>Node18</title>
<g id="a_node18"><a xlink:title=" ">
<polygon fill="white" stroke="#bfbfbf" points="519.5,-73 519.5,-92 624.5,-92 624.5,-73 519.5,-73"/>
<text text-anchor="middle" x="572" y="-80" font-family="Helvetica,sans-Serif" font-size="10.00">maliput/api/lane.h</text>
</a>
</g>
</g>
<!-- Node15&#45;&gt;Node18 -->
<g id="edge19" class="edge">
<title>Node15&#45;&gt;Node18</title>
<path fill="none" stroke="midnightblue" d="M572,-139.73C572,-129 572,-114.19 572,-102.46"/>
<polygon fill="midnightblue" stroke="midnightblue" points="575.5,-102.39 572,-92.39 568.5,-102.39 575.5,-102.39"/>
</g>
<!-- Node19 -->
<g id="node19" class="node">
<title>Node19</title>
<g id="a_node19"><a xlink:href="../../maliput/html/lane__data_8h.html.html" xlink:title=" ">
<polygon fill="white" stroke="black" points="643,-73 643,-92 775,-92 775,-73 643,-73"/>
<text text-anchor="middle" x="709" y="-80" font-family="Helvetica,sans-Serif" font-size="10.00">maliput/api/lane_data.h</text>
</a>
</g>
</g>
<!-- Node15&#45;&gt;Node19 -->
<g id="edge20" class="edge">
<title>Node15&#45;&gt;Node19</title>
<path fill="none" stroke="midnightblue" d="M599.39,-139.9C623.83,-127.33 659.33,-109.06 683.25,-96.75"/>
<polygon fill="midnightblue" stroke="midnightblue" points="685.13,-99.72 692.42,-92.03 681.92,-93.5 685.13,-99.72"/>
</g>
<!-- Node20 -->
<g id="node20" class="node">
<title>Node20</title>
<g id="a_node20"><a xlink:href="../../maliput/html/direction__usage__rule_8h.html.html" xlink:title=" ">
<polygon fill="white" stroke="black" points="793.5,-67.5 793.5,-97.5 938.5,-97.5 938.5,-67.5 793.5,-67.5"/>
<text text-anchor="start" x="801.5" y="-85.5" font-family="Helvetica,sans-Serif" font-size="10.00">maliput/api/rules/direction</text>
<text text-anchor="middle" x="866" y="-74.5" font-family="Helvetica,sans-Serif" font-size="10.00">_usage_rule.h</text>
</a>
</g>
</g>
<!-- Node15&#45;&gt;Node20 -->
<g id="edge21" class="edge">
<title>Node15&#45;&gt;Node20</title>
<path fill="none" stroke="midnightblue" d="M628.63,-139.95C636.81,-137.94 645.12,-135.91 653,-134 700.88,-122.41 754.87,-109.62 796.52,-99.8"/>
<polygon fill="midnightblue" stroke="midnightblue" points="797.35,-103.2 806.29,-97.5 795.75,-96.39 797.35,-103.2"/>
</g>
<!-- Node21 -->
<g id="node21" class="node">
<title>Node21</title>
<g id="a_node21"><a xlink:href="../../maliput/html/rule_8h.html.html" xlink:title=" ">
<polygon fill="white" stroke="black" points="957,-73 957,-92 1087,-92 1087,-73 957,-73"/>
<text text-anchor="middle" x="1022" y="-80" font-family="Helvetica,sans-Serif" font-size="10.00">maliput/api/rules/rule.h</text>
</a>
</g>
</g>
<!-- Node15&#45;&gt;Node21 -->
<g id="edge22" class="edge">
<title>Node15&#45;&gt;Node21</title>
<path fill="none" stroke="midnightblue" d="M624.96,-139.95C634.26,-137.76 643.88,-135.68 653,-134 782.91,-110.13 817.55,-118.71 948,-98 955.64,-96.79 963.69,-95.36 971.56,-93.89"/>
<polygon fill="midnightblue" stroke="midnightblue" points="972.22,-97.32 981.38,-92.01 970.9,-90.45 972.22,-97.32"/>
</g>
<!-- Node22 -->
<g id="node22" class="node">
<title>Node22</title>
<g id="a_node22"><a xlink:href="../../maliput/html/speed__limit__rule_8h.html.html" xlink:title=" ">
<polygon fill="white" stroke="black" points="1105.5,-67.5 1105.5,-97.5 1236.5,-97.5 1236.5,-67.5 1105.5,-67.5"/>
<text text-anchor="start" x="1113.5" y="-85.5" font-family="Helvetica,sans-Serif" font-size="10.00">maliput/api/rules/speed</text>
<text text-anchor="middle" x="1171" y="-74.5" font-family="Helvetica,sans-Serif" font-size="10.00">_limit_rule.h</text>
</a>
</g>
</g>
<!-- Node15&#45;&gt;Node22 -->
<g id="edge23" class="edge">
<title>Node15&#45;&gt;Node22</title>
<path fill="none" stroke="midnightblue" d="M623.6,-139.95C633.31,-137.68 643.42,-135.56 653,-134 844.73,-102.75 898.51,-124.05 1095.14,-98"/>
<polygon fill="midnightblue" stroke="midnightblue" points="1095.78,-101.45 1105.22,-96.64 1094.84,-94.51 1095.78,-101.45"/>
</g>
<!-- Node23 -->
<g id="node23" class="node">
<title>Node23</title>
<g id="a_node23"><a xlink:title=" ">
<polygon fill="white" stroke="#bfbfbf" points="1254.5,-73 1254.5,-92 1381.5,-92 1381.5,-73 1254.5,-73"/>
<text text-anchor="middle" x="1318" y="-80" font-family="Helvetica,sans-Serif" font-size="10.00">maliput/api/segment.h</text>
</a>
</g>
</g>
<!-- Node15&#45;&gt;Node23 -->
<g id="edge24" class="edge">
<title>Node15&#45;&gt;Node23</title>
<path fill="none" stroke="midnightblue" d="M622.7,-139.99C632.68,-137.65 643.12,-135.51 653,-134 914.02,-94.19 984.18,-132.15 1246,-98 1254.09,-96.94 1262.63,-95.51 1270.9,-93.95"/>
<polygon fill="midnightblue" stroke="midnightblue" points="1271.66,-97.37 1280.79,-92.01 1270.31,-90.5 1271.66,-97.37"/>
</g>
</g>
</svg>
        <g id="navigator" transform="translate(0 0)" fill="#404254">
                <rect fill="#f2f5e9" fill-opacity="0.5" stroke="#606060" stroke-width=".5" x="0" y="0" width="60" height="60"/>
                <use id="zoomplus" xlink:href="#zoomPlus" x="17" y="9" onmousedown="handleZoom(evt,'in')"/>
                <use id="zoomminus" xlink:href="#zoomMin" x="42" y="9" onmousedown="handleZoom(evt,'out')"/>
                <use id="reset" xlink:href="#resetDef" x="30" y="36" onmousedown="handleReset()"/>
                <g id="arrowUp" xlink:href="#dirArrow" transform="translate(30 24)" onmousedown="handlePan(0,-1)">
                  <use xlink:href="#rim" fill="#404040">
                        <set attributeName="fill" to="#808080" begin="arrowUp.mouseover" end="arrowUp.mouseout"/>
                  </use>
                  <path fill="none" stroke="white" stroke-width="1.5" d="M0,-3.0v7 M-2.5,-0.5L0,-3.0L2.5,-0.5"/>
                </g>
                <g id="arrowRight" xlink:href="#dirArrow" transform="rotate(90) translate(36 -43)" onmousedown="handlePan(1,0)">
                  <use xlink:href="#rim" fill="#404040">
                        <set attributeName="fill" to="#808080" begin="arrowRight.mouseover" end="arrowRight.mouseout"/>
                  </use>
                  <path fill="none" stroke="white" stroke-width="1.5" d="M0,-3.0v7 M-2.5,-0.5L0,-3.0L2.5,-0.5"/>
                </g>
                <g id="arrowDown" xlink:href="#dirArrow" transform="rotate(180) translate(-30 -48)" onmousedown="handlePan(0,1)">
                  <use xlink:href="#rim" fill="#404040">
                        <set attributeName="fill" to="#808080" begin="arrowDown.mouseover" end="arrowDown.mouseout"/>
                  </use>
                  <path fill="none" stroke="white" stroke-width="1.5" d="M0,-3.0v7 M-2.5,-0.5L0,-3.0L2.5,-0.5"/>
                </g>
                <g id="arrowLeft" xlink:href="#dirArrow" transform="rotate(270) translate(-36 17)" onmousedown="handlePan(-1,0)">
                  <use xlink:href="#rim" fill="#404040">
                        <set attributeName="fill" to="#808080" begin="arrowLeft.mouseover" end="arrowLeft.mouseout"/>
                  </use>
                  <path fill="none" stroke="white" stroke-width="1.5" d="M0,-3.0v7 M-2.5,-0.5L0,-3.0L2.5,-0.5"/>
                </g>
        </g>
        <svg viewBox="0 0 15 15" width="100%" height="30px" preserveAspectRatio="xMaxYMin meet">
         <g id="arrow_out" transform="scale(0.3 0.3)">
          <a xlink:href="road__geometry__builder__base_8h__incl_org.svg" target="_base">
           <rect id="button" ry="5" rx="5" y="6" x="6" height="38" width="38"
                fill="#f2f5e9" fill-opacity="0.5" stroke="#606060" stroke-width="1.0"/>
           <path id="arrow"
             d="M 11.500037,31.436501 C 11.940474,20.09759 22.043105,11.32322 32.158766,21.979434 L 37.068811,17.246167 C 37.068811,17.246167 37.088388,32 37.088388,32 L 22.160133,31.978069 C 22.160133,31.978069 26.997745,27.140456 26.997745,27.140456 C 18.528582,18.264221 13.291696,25.230495 11.500037,31.436501 z"
             style="fill:#404040;"/>
          </a>
         </g>
        </svg>
</svg>
