<?xml version="1.0" encoding="UTF-8" standalone="no"?>
<!DOCTYPE svg PUBLIC "-//W3C//DTD SVG 1.1//EN"
 "http://www.w3.org/Graphics/SVG/1.1/DTD/svg11.dtd">
<!-- Generated by graphviz version 2.43.0 (0)
 -->
<!-- Title: road_curve_factory.h Pages: 1 -->
<!--zoomable 363 -->
<svg id="main" version="1.1" xmlns="http://www.w3.org/2000/svg" xmlns:xlink="http://www.w3.org/1999/xlink" xml:space="preserve" onload="init(evt)">
<style type="text/css"><![CDATA[
.edge:hover path { stroke: red; }
.edge:hover polygon { stroke: red; fill: red; }
]]></style>
<script type="text/javascript"><![CDATA[
var edges = document.getElementsByTagName('g');
if (edges && edges.length) {
  for (var i=0;i<edges.length;i++) {
    if (edges[i].id.substr(0,4)=='edge') {
      edges[i].setAttribute('class','edge');
    }
  }
}
]]></script>
        <defs>
                <circle id="rim" cx="0" cy="0" r="7"/>
                <circle id="rim2" cx="0" cy="0" r="3.5"/>
                <g id="zoomPlus">
                        <use xlink:href="#rim" fill="#404040">
                                <set attributeName="fill" to="#808080" begin="zoomplus.mouseover" end="zoomplus.mouseout"/>
                        </use>
                        <path d="M-4,0h8M0,-4v8" fill="none" stroke="white" stroke-width="1.5" pointer-events="none"/>
                </g>
                <g id="zoomMin">
                        <use xlink:href="#rim" fill="#404040">
                                <set attributeName="fill" to="#808080" begin="zoomminus.mouseover" end="zoomminus.mouseout"/>
                        </use>
                        <path d="M-4,0h8" fill="none" stroke="white" stroke-width="1.5" pointer-events="none"/>
                </g>
                <g id="dirArrow">
                        <path fill="none" stroke="white" stroke-width="1.5" d="M0,-3.0v7 M-2.5,-0.5L0,-3.0L2.5,-0.5"/>
                </g>
               <g id="resetDef">
                       <use xlink:href="#rim2" fill="#404040">
                               <set attributeName="fill" to="#808080" begin="reset.mouseover" end="reset.mouseout"/>
                       </use>
               </g>
        </defs>

<script type="text/javascript">
var viewWidth = 1394;
var viewHeight = 363;
var sectionId = 'dynsection-0';
</script>
<script xlink:href="svgpan.js"/>
<svg id="graph" class="graph">
<g id="viewport">
<title>road_curve_factory.h</title>
<polygon fill="white" stroke="transparent" points="-4,4 -4,-359 1390,-359 1390,4 -4,4"/>
<!-- Node1 -->
<g id="node1" class="node">
<title>Node1</title>
<g id="a_node1"><a xlink:title=" ">
<polygon fill="#bfbfbf" stroke="black" points="519.5,-335.5 519.5,-354.5 637.5,-354.5 637.5,-335.5 519.5,-335.5"/>
<text text-anchor="middle" x="578.5" y="-342.5" font-family="Helvetica,sans-Serif" font-size="10.00">road_curve_factory.h</text>
</a>
</g>
</g>
<!-- Node2 -->
<g id="node2" class="node">
<title>Node2</title>
<g id="a_node2"><a xlink:title=" ">
<polygon fill="white" stroke="#bfbfbf" points="511.5,-207 511.5,-226 569.5,-226 569.5,-207 511.5,-207"/>
<text text-anchor="middle" x="540.5" y="-214" font-family="Helvetica,sans-Serif" font-size="10.00">memory</text>
</a>
</g>
</g>
<!-- Node1&#45;&gt;Node2 -->
<g id="edge1" class="edge">
<title>Node1&#45;&gt;Node2</title>
<path fill="none" stroke="midnightblue" d="M575.89,-335.31C569.76,-314.9 554.35,-263.6 546.03,-235.91"/>
<polygon fill="midnightblue" stroke="midnightblue" points="549.36,-234.83 543.13,-226.26 542.66,-236.84 549.36,-234.83"/>
</g>
<!-- Node3 -->
<g id="node3" class="node">
<title>Node3</title>
<g id="a_node3"><a xlink:title=" ">
<polygon fill="white" stroke="#bfbfbf" points="164,-207 164,-226 211,-226 211,-207 164,-207"/>
<text text-anchor="middle" x="187.5" y="-214" font-family="Helvetica,sans-Serif" font-size="10.00">vector</text>
</a>
</g>
</g>
<!-- Node1&#45;&gt;Node3 -->
<g id="edge2" class="edge">
<title>Node1&#45;&gt;Node3</title>
<path fill="none" stroke="midnightblue" d="M519.36,-341.62C413.56,-336.75 200.8,-323.94 178.5,-299 163.2,-281.89 170.75,-254 178.43,-235.7"/>
<polygon fill="midnightblue" stroke="midnightblue" points="181.7,-236.96 182.68,-226.41 175.33,-234.05 181.7,-236.96"/>
</g>
<!-- Node4 -->
<g id="node4" class="node">
<title>Node4</title>
<g id="a_node4"><a xlink:href="macros_8h.html" target="_top" xlink:title=" ">
<polygon fill="white" stroke="black" points="674.5,-67.5 674.5,-97.5 826.5,-97.5 826.5,-67.5 674.5,-67.5"/>
<text text-anchor="start" x="682.5" y="-85.5" font-family="Helvetica,sans-Serif" font-size="10.00">maliput_malidrive/common</text>
<text text-anchor="middle" x="750.5" y="-74.5" font-family="Helvetica,sans-Serif" font-size="10.00">/macros.h</text>
</a>
</g>
</g>
<!-- Node1&#45;&gt;Node4 -->
<g id="edge3" class="edge">
<title>Node1&#45;&gt;Node4</title>
<path fill="none" stroke="midnightblue" d="M519.43,-339.56C463.82,-334.01 386.32,-322.26 367.5,-299 320.16,-240.5 348.58,-183.22 405.5,-134 443.14,-101.45 574.74,-89.88 664.08,-85.77"/>
<polygon fill="midnightblue" stroke="midnightblue" points="664.37,-89.26 674.21,-85.32 664.07,-82.26 664.37,-89.26"/>
</g>
<!-- Node11 -->
<g id="node11" class="node">
<title>Node11</title>
<g id="a_node11"><a xlink:href="function_8h.html" target="_top" xlink:title=" ">
<polygon fill="white" stroke="black" points="462,-134.5 462,-164.5 593,-164.5 593,-134.5 462,-134.5"/>
<text text-anchor="start" x="470" y="-152.5" font-family="Helvetica,sans-Serif" font-size="10.00">maliput_malidrive/road</text>
<text text-anchor="middle" x="527.5" y="-141.5" font-family="Helvetica,sans-Serif" font-size="10.00">_curve/function.h</text>
</a>
</g>
</g>
<!-- Node1&#45;&gt;Node11 -->
<g id="edge10" class="edge">
<title>Node1&#45;&gt;Node11</title>
<path fill="none" stroke="midnightblue" d="M580.75,-335.17C586.19,-312.03 598.19,-248.2 578.5,-201 573.71,-189.53 564.91,-179.32 555.95,-171.15"/>
<polygon fill="midnightblue" stroke="midnightblue" points="558.02,-168.31 548.13,-164.5 553.48,-173.64 558.02,-168.31"/>
</g>
<!-- Node12 -->
<g id="node12" class="node">
<title>Node12</title>
<g id="a_node12"><a xlink:href="ground__curve_8h.html" target="_top" xlink:title=" ">
<polygon fill="white" stroke="black" points="1040,-201.5 1040,-231.5 1171,-231.5 1171,-201.5 1040,-201.5"/>
<text text-anchor="start" x="1048" y="-219.5" font-family="Helvetica,sans-Serif" font-size="10.00">maliput_malidrive/road</text>
<text text-anchor="middle" x="1105.5" y="-208.5" font-family="Helvetica,sans-Serif" font-size="10.00">_curve/ground_curve.h</text>
</a>
</g>
</g>
<!-- Node1&#45;&gt;Node12 -->
<g id="edge12" class="edge">
<title>Node1&#45;&gt;Node12</title>
<path fill="none" stroke="midnightblue" d="M637.55,-339.83C686.38,-334.72 756.66,-323.5 813.5,-299 835.14,-289.68 834.92,-277.44 856.5,-268 872.36,-261.06 962.36,-243.65 1029.63,-231.22"/>
<polygon fill="midnightblue" stroke="midnightblue" points="1030.6,-234.6 1039.8,-229.34 1029.33,-227.71 1030.6,-234.6"/>
</g>
<!-- Node14 -->
<g id="node14" class="node">
<title>Node14</title>
<g id="a_node14"><a xlink:href="piecewise__function_8h.html" target="_top" xlink:title=" ">
<polygon fill="white" stroke="black" points="376,-268.5 376,-298.5 531,-298.5 531,-268.5 376,-268.5"/>
<text text-anchor="start" x="384" y="-286.5" font-family="Helvetica,sans-Serif" font-size="10.00">maliput_malidrive/road</text>
<text text-anchor="middle" x="453.5" y="-275.5" font-family="Helvetica,sans-Serif" font-size="10.00">_curve/piecewise_function.h</text>
</a>
</g>
</g>
<!-- Node1&#45;&gt;Node14 -->
<g id="edge15" class="edge">
<title>Node1&#45;&gt;Node14</title>
<path fill="none" stroke="midnightblue" d="M560.59,-335.48C542.79,-327 514.92,-313.74 492.08,-302.86"/>
<polygon fill="midnightblue" stroke="midnightblue" points="493.49,-299.66 482.96,-298.52 490.49,-305.98 493.49,-299.66"/>
</g>
<!-- Node17 -->
<g id="node17" class="node">
<title>Node17</title>
<g id="a_node17"><a xlink:href="road__curve_8h.html" target="_top" xlink:title=" ">
<polygon fill="white" stroke="black" points="673,-268.5 673,-298.5 804,-298.5 804,-268.5 673,-268.5"/>
<text text-anchor="start" x="681" y="-286.5" font-family="Helvetica,sans-Serif" font-size="10.00">maliput_malidrive/road</text>
<text text-anchor="middle" x="738.5" y="-275.5" font-family="Helvetica,sans-Serif" font-size="10.00">_curve/road_curve.h</text>
</a>
</g>
</g>
<!-- Node1&#45;&gt;Node17 -->
<g id="edge22" class="edge">
<title>Node1&#45;&gt;Node17</title>
<path fill="none" stroke="midnightblue" d="M601.42,-335.48C624.71,-326.81 661.47,-313.15 691.06,-302.14"/>
<polygon fill="midnightblue" stroke="midnightblue" points="692.64,-305.29 700.79,-298.52 690.2,-298.73 692.64,-305.29"/>
</g>
<!-- Node22 -->
<g id="node22" class="node">
<title>Node22</title>
<g id="a_node22"><a xlink:href="elevation__profile_8h.html" target="_top" xlink:title=" ">
<polygon fill="white" stroke="black" points="0,-268.5 0,-298.5 131,-298.5 131,-268.5 0,-268.5"/>
<text text-anchor="start" x="8" y="-286.5" font-family="Helvetica,sans-Serif" font-size="10.00">maliput_malidrive/xodr</text>
<text text-anchor="middle" x="65.5" y="-275.5" font-family="Helvetica,sans-Serif" font-size="10.00">/elevation_profile.h</text>
</a>
</g>
</g>
<!-- Node1&#45;&gt;Node22 -->
<g id="edge35" class="edge">
<title>Node1&#45;&gt;Node22</title>
<path fill="none" stroke="midnightblue" d="M519.5,-339.29C436,-332.31 278.69,-317.96 145.5,-299 144.2,-298.82 142.89,-298.63 141.58,-298.43"/>
<polygon fill="midnightblue" stroke="midnightblue" points="141.78,-294.92 131.36,-296.84 140.7,-301.84 141.78,-294.92"/>
</g>
<!-- Node23 -->
<g id="node23" class="node">
<title>Node23</title>
<g id="a_node23"><a xlink:href="geometry_8h.html" target="_top" xlink:title=" ">
<polygon fill="white" stroke="black" points="1189,-201.5 1189,-231.5 1320,-231.5 1320,-201.5 1189,-201.5"/>
<text text-anchor="start" x="1197" y="-219.5" font-family="Helvetica,sans-Serif" font-size="10.00">maliput_malidrive/xodr</text>
<text text-anchor="middle" x="1254.5" y="-208.5" font-family="Helvetica,sans-Serif" font-size="10.00">/geometry.h</text>
</a>
</g>
</g>
<!-- Node1&#45;&gt;Node23 -->
<g id="edge38" class="edge">
<title>Node1&#45;&gt;Node23</title>
<path fill="none" stroke="midnightblue" d="M637.58,-342.07C693.81,-338.42 779.8,-328.09 848.5,-299 869.86,-289.95 868.95,-276.6 890.5,-268 1008.07,-221.09 1050.11,-250.89 1178.56,-232.19"/>
<polygon fill="midnightblue" stroke="midnightblue" points="1179.42,-235.6 1188.78,-230.63 1178.36,-228.68 1179.42,-235.6"/>
</g>
<!-- Node26 -->
<g id="node26" class="node">
<title>Node26</title>
<g id="a_node26"><a xlink:href="xodr_2lane__offset_8h.html" target="_top" xlink:title=" ">
<polygon fill="white" stroke="black" points="899,-268.5 899,-298.5 1030,-298.5 1030,-268.5 899,-268.5"/>
<text text-anchor="start" x="907" y="-286.5" font-family="Helvetica,sans-Serif" font-size="10.00">maliput_malidrive/xodr</text>
<text text-anchor="middle" x="964.5" y="-275.5" font-family="Helvetica,sans-Serif" font-size="10.00">/lane_offset.h</text>
</a>
</g>
</g>
<!-- Node1&#45;&gt;Node26 -->
<g id="edge46" class="edge">
<title>Node1&#45;&gt;Node26</title>
<path fill="none" stroke="midnightblue" d="M637.54,-335.91C699.23,-327.32 798.79,-313.07 884.5,-299 885.79,-298.79 887.1,-298.57 888.41,-298.35"/>
<polygon fill="midnightblue" stroke="midnightblue" points="889.34,-301.75 898.61,-296.62 888.16,-294.84 889.34,-301.75"/>
</g>
<!-- Node27 -->
<g id="node27" class="node">
<title>Node27</title>
<g id="a_node27"><a xlink:href="lane__width_8h.html" target="_top" xlink:title=" ">
<polygon fill="white" stroke="black" points="1048,-268.5 1048,-298.5 1179,-298.5 1179,-268.5 1048,-268.5"/>
<text text-anchor="start" x="1056" y="-286.5" font-family="Helvetica,sans-Serif" font-size="10.00">maliput_malidrive/xodr</text>
<text text-anchor="middle" x="1113.5" y="-275.5" font-family="Helvetica,sans-Serif" font-size="10.00">/lane_width.h</text>
</a>
</g>
</g>
<!-- Node1&#45;&gt;Node27 -->
<g id="edge47" class="edge">
<title>Node1&#45;&gt;Node27</title>
<path fill="none" stroke="midnightblue" d="M637.67,-340.05C723.63,-333.92 888.27,-320.64 1037.53,-299.21"/>
<polygon fill="midnightblue" stroke="midnightblue" points="1038.4,-302.62 1047.79,-297.72 1037.39,-295.69 1038.4,-302.62"/>
</g>
<!-- Node28 -->
<g id="node28" class="node">
<title>Node28</title>
<g id="a_node28"><a xlink:href="lateral__profile_8h.html" target="_top" xlink:title=" ">
<polygon fill="white" stroke="black" points="188,-268.5 188,-298.5 319,-298.5 319,-268.5 188,-268.5"/>
<text text-anchor="start" x="196" y="-286.5" font-family="Helvetica,sans-Serif" font-size="10.00">maliput_malidrive/xodr</text>
<text text-anchor="middle" x="253.5" y="-275.5" font-family="Helvetica,sans-Serif" font-size="10.00">/lateral_profile.h</text>
</a>
</g>
</g>
<!-- Node1&#45;&gt;Node28 -->
<g id="edge48" class="edge">
<title>Node1&#45;&gt;Node28</title>
<path fill="none" stroke="midnightblue" d="M531.94,-335.48C478.95,-325.78 391.67,-309.8 328.94,-298.31"/>
<polygon fill="midnightblue" stroke="midnightblue" points="329.56,-294.87 319.09,-296.51 328.3,-301.75 329.56,-294.87"/>
</g>
<!-- Node5 -->
<g id="node5" class="node">
<title>Node5</title>
<g id="a_node5"><a xlink:title=" ">
<polygon fill="white" stroke="#bfbfbf" points="1188.5,-6 1188.5,-25 1232.5,-25 1232.5,-6 1188.5,-6"/>
<text text-anchor="middle" x="1210.5" y="-13" font-family="Helvetica,sans-Serif" font-size="10.00">string</text>
</a>
</g>
</g>
<!-- Node4&#45;&gt;Node5 -->
<g id="edge4" class="edge">
<title>Node4&#45;&gt;Node5</title>
<path fill="none" stroke="midnightblue" d="M826.78,-75.33C908.95,-67.92 1043.3,-53.59 1157.5,-31 1164.42,-29.63 1171.76,-27.85 1178.7,-26"/>
<polygon fill="midnightblue" stroke="midnightblue" points="1179.79,-29.33 1188.49,-23.28 1177.92,-22.58 1179.79,-29.33"/>
</g>
<!-- Node6 -->
<g id="node6" class="node">
<title>Node6</title>
<g id="a_node6"><a xlink:href="../../maliput/html/assertion__error_8h.html.html" xlink:title=" ">
<polygon fill="white" stroke="black" points="838.5,-0.5 838.5,-30.5 986.5,-30.5 986.5,-0.5 838.5,-0.5"/>
<text text-anchor="start" x="846.5" y="-18.5" font-family="Helvetica,sans-Serif" font-size="10.00">maliput/common/assertion</text>
<text text-anchor="middle" x="912.5" y="-7.5" font-family="Helvetica,sans-Serif" font-size="10.00">_error.h</text>
</a>
</g>
</g>
<!-- Node4&#45;&gt;Node6 -->
<g id="edge5" class="edge">
<title>Node4&#45;&gt;Node6</title>
<path fill="none" stroke="midnightblue" d="M785.65,-67.4C809.75,-57.73 841.91,-44.82 867.82,-34.43"/>
<polygon fill="midnightblue" stroke="midnightblue" points="869.44,-37.55 877.42,-30.58 866.83,-31.05 869.44,-37.55"/>
</g>
<!-- Node7 -->
<g id="node7" class="node">
<title>Node7</title>
<g id="a_node7"><a xlink:href="../../maliput/html/logger_8h.html.html" xlink:title=" ">
<polygon fill="white" stroke="black" points="1005,-6 1005,-25 1148,-25 1148,-6 1005,-6"/>
<text text-anchor="middle" x="1076.5" y="-13" font-family="Helvetica,sans-Serif" font-size="10.00">maliput/common/logger.h</text>
</a>
</g>
</g>
<!-- Node4&#45;&gt;Node7 -->
<g id="edge6" class="edge">
<title>Node4&#45;&gt;Node7</title>
<path fill="none" stroke="midnightblue" d="M820.84,-67.48C881.8,-55.32 968.67,-38 1023.81,-27.01"/>
<polygon fill="midnightblue" stroke="midnightblue" points="1024.6,-30.42 1033.73,-25.03 1023.23,-23.55 1024.6,-30.42"/>
</g>
<!-- Node8 -->
<g id="node8" class="node">
<title>Node8</title>
<g id="a_node8"><a xlink:href="../../maliput/html/maliput__abort_8h.html.html" xlink:title=" ">
<polygon fill="white" stroke="black" points="364.5,-0.5 364.5,-30.5 504.5,-30.5 504.5,-0.5 364.5,-0.5"/>
<text text-anchor="start" x="372.5" y="-18.5" font-family="Helvetica,sans-Serif" font-size="10.00">maliput/common/maliput</text>
<text text-anchor="middle" x="434.5" y="-7.5" font-family="Helvetica,sans-Serif" font-size="10.00">_abort.h</text>
</a>
</g>
</g>
<!-- Node4&#45;&gt;Node8 -->
<g id="edge7" class="edge">
<title>Node4&#45;&gt;Node8</title>
<path fill="none" stroke="midnightblue" d="M682.32,-67.48C632.46,-57.22 564.74,-43.29 512.69,-32.58"/>
<polygon fill="midnightblue" stroke="midnightblue" points="513.33,-29.14 502.83,-30.55 511.92,-36 513.33,-29.14"/>
</g>
<!-- Node9 -->
<g id="node9" class="node">
<title>Node9</title>
<g id="a_node9"><a xlink:href="../../maliput/html/maliput__copyable_8h.html.html" xlink:title=" ">
<polygon fill="white" stroke="black" points="522.5,-0.5 522.5,-30.5 662.5,-30.5 662.5,-0.5 522.5,-0.5"/>
<text text-anchor="start" x="530.5" y="-18.5" font-family="Helvetica,sans-Serif" font-size="10.00">maliput/common/maliput</text>
<text text-anchor="middle" x="592.5" y="-7.5" font-family="Helvetica,sans-Serif" font-size="10.00">_copyable.h</text>
</a>
</g>
</g>
<!-- Node4&#45;&gt;Node9 -->
<g id="edge8" class="edge">
<title>Node4&#45;&gt;Node9</title>
<path fill="none" stroke="midnightblue" d="M716.22,-67.4C692.72,-57.73 661.35,-44.82 636.07,-34.43"/>
<polygon fill="midnightblue" stroke="midnightblue" points="637.3,-31.14 626.72,-30.58 634.63,-37.62 637.3,-31.14"/>
</g>
<!-- Node10 -->
<g id="node10" class="node">
<title>Node10</title>
<g id="a_node10"><a xlink:href="../../maliput/html/maliput__throw_8h.html.html" xlink:title=" ">
<polygon fill="white" stroke="black" points="680.5,-0.5 680.5,-30.5 820.5,-30.5 820.5,-0.5 680.5,-0.5"/>
<text text-anchor="start" x="688.5" y="-18.5" font-family="Helvetica,sans-Serif" font-size="10.00">maliput/common/maliput</text>
<text text-anchor="middle" x="750.5" y="-7.5" font-family="Helvetica,sans-Serif" font-size="10.00">_throw.h</text>
</a>
</g>
</g>
<!-- Node4&#45;&gt;Node10 -->
<g id="edge9" class="edge">
<title>Node4&#45;&gt;Node10</title>
<path fill="none" stroke="midnightblue" d="M750.5,-67.4C750.5,-59.64 750.5,-49.81 750.5,-40.86"/>
<polygon fill="midnightblue" stroke="midnightblue" points="754,-40.58 750.5,-30.58 747,-40.58 754,-40.58"/>
</g>
<!-- Node11&#45;&gt;Node4 -->
<g id="edge11" class="edge">
<title>Node11&#45;&gt;Node4</title>
<path fill="none" stroke="midnightblue" d="M575.61,-134.48C609.79,-124.51 655.86,-111.09 692.13,-100.51"/>
<polygon fill="midnightblue" stroke="midnightblue" points="693.47,-103.77 702.09,-97.61 691.51,-97.05 693.47,-103.77"/>
</g>
<!-- Node12&#45;&gt;Node4 -->
<g id="edge14" class="edge">
<title>Node12&#45;&gt;Node4</title>
<path fill="none" stroke="midnightblue" d="M1084.71,-201.43C1069.85,-191.35 1049.39,-177.41 1031.5,-165 1011.84,-151.37 1009.42,-143.58 987.5,-134 939.73,-113.13 882.68,-100.63 836.53,-93.29"/>
<polygon fill="midnightblue" stroke="midnightblue" points="836.97,-89.82 826.55,-91.76 835.9,-96.74 836.97,-89.82"/>
</g>
<!-- Node13 -->
<g id="node13" class="node">
<title>Node13</title>
<g id="a_node13"><a xlink:href="../../maliput/html/vector_8h.html.html" xlink:title=" ">
<polygon fill="white" stroke="black" points="1040,-140 1040,-159 1165,-159 1165,-140 1040,-140"/>
<text text-anchor="middle" x="1102.5" y="-147" font-family="Helvetica,sans-Serif" font-size="10.00">maliput/math/vector.h</text>
</a>
</g>
</g>
<!-- Node12&#45;&gt;Node13 -->
<g id="edge13" class="edge">
<title>Node12&#45;&gt;Node13</title>
<path fill="none" stroke="midnightblue" d="M1104.85,-201.4C1104.41,-191.96 1103.84,-179.45 1103.36,-169.19"/>
<polygon fill="midnightblue" stroke="midnightblue" points="1106.86,-169.02 1102.9,-159.19 1099.87,-169.35 1106.86,-169.02"/>
</g>
<!-- Node14&#45;&gt;Node2 -->
<g id="edge17" class="edge">
<title>Node14&#45;&gt;Node2</title>
<path fill="none" stroke="midnightblue" d="M472.38,-268.4C486.61,-257.76 506.1,-243.2 520.58,-232.38"/>
<polygon fill="midnightblue" stroke="midnightblue" points="522.95,-234.98 528.86,-226.19 518.76,-229.38 522.95,-234.98"/>
</g>
<!-- Node14&#45;&gt;Node3 -->
<g id="edge19" class="edge">
<title>Node14&#45;&gt;Node3</title>
<path fill="none" stroke="midnightblue" d="M396.11,-268.48C342.66,-255.42 264.82,-236.39 220.9,-225.66"/>
<polygon fill="midnightblue" stroke="midnightblue" points="221.57,-222.22 211.02,-223.25 219.91,-229.02 221.57,-222.22"/>
</g>
<!-- Node14&#45;&gt;Node4 -->
<g id="edge20" class="edge">
<title>Node14&#45;&gt;Node4</title>
<path fill="none" stroke="midnightblue" d="M429.62,-268.41C417.25,-259.66 403.34,-247.19 396.5,-232 375.82,-186.05 409.7,-158.91 453.5,-134 488.62,-114.03 589.5,-99.77 664,-91.6"/>
<polygon fill="midnightblue" stroke="midnightblue" points="664.76,-95.04 674.32,-90.49 664.01,-88.08 664.76,-95.04"/>
</g>
<!-- Node14&#45;&gt;Node11 -->
<g id="edge21" class="edge">
<title>Node14&#45;&gt;Node11</title>
<path fill="none" stroke="midnightblue" d="M434.95,-268.36C415.63,-251.87 390.17,-223.94 405.5,-201 416.56,-184.45 434.15,-173.32 452.57,-165.83"/>
<polygon fill="midnightblue" stroke="midnightblue" points="453.8,-169.11 461.95,-162.34 451.36,-162.55 453.8,-169.11"/>
</g>
<!-- Node15 -->
<g id="node15" class="node">
<title>Node15</title>
<g id="a_node15"><a xlink:title=" ">
<polygon fill="white" stroke="#bfbfbf" points="611.5,-140 611.5,-159 649.5,-159 649.5,-140 611.5,-140"/>
<text text-anchor="middle" x="630.5" y="-147" font-family="Helvetica,sans-Serif" font-size="10.00">map</text>
</a>
</g>
</g>
<!-- Node14&#45;&gt;Node15 -->
<g id="edge16" class="edge">
<title>Node14&#45;&gt;Node15</title>
<path fill="none" stroke="midnightblue" d="M445.13,-268.46C435.81,-250.78 423.95,-220.36 439.5,-201 485.96,-143.16 532.75,-190.27 602.5,-165 603.74,-164.55 605,-164.05 606.26,-163.53"/>
<polygon fill="midnightblue" stroke="midnightblue" points="608.16,-166.5 615.71,-159.07 605.18,-160.17 608.16,-166.5"/>
</g>
<!-- Node16 -->
<g id="node16" class="node">
<title>Node16</title>
<g id="a_node16"><a xlink:title=" ">
<polygon fill="white" stroke="#bfbfbf" points="448,-207 448,-226 493,-226 493,-207 448,-207"/>
<text text-anchor="middle" x="470.5" y="-214" font-family="Helvetica,sans-Serif" font-size="10.00">utility</text>
</a>
</g>
</g>
<!-- Node14&#45;&gt;Node16 -->
<g id="edge18" class="edge">
<title>Node14&#45;&gt;Node16</title>
<path fill="none" stroke="midnightblue" d="M457.19,-268.4C459.66,-258.96 462.93,-246.45 465.61,-236.19"/>
<polygon fill="midnightblue" stroke="midnightblue" points="469.08,-236.75 468.23,-226.19 462.31,-234.98 469.08,-236.75"/>
</g>
<!-- Node17&#45;&gt;Node2 -->
<g id="edge23" class="edge">
<title>Node17&#45;&gt;Node2</title>
<path fill="none" stroke="midnightblue" d="M695.54,-268.4C659.87,-256.69 609.74,-240.23 576.24,-229.23"/>
<polygon fill="midnightblue" stroke="midnightblue" points="577.01,-225.8 566.41,-226.01 574.82,-232.45 577.01,-225.8"/>
</g>
<!-- Node17&#45;&gt;Node4 -->
<g id="edge26" class="edge">
<title>Node17&#45;&gt;Node4</title>
<path fill="none" stroke="midnightblue" d="M802.92,-268.44C865.69,-254.59 952.07,-235.06 954.5,-232 981.57,-197.88 981.34,-168.3 954.5,-134 939.59,-114.95 885.38,-102.08 836.6,-94.11"/>
<polygon fill="midnightblue" stroke="midnightblue" points="837.03,-90.63 826.6,-92.53 835.94,-97.55 837.03,-90.63"/>
</g>
<!-- Node17&#45;&gt;Node11 -->
<g id="edge27" class="edge">
<title>Node17&#45;&gt;Node11</title>
<path fill="none" stroke="midnightblue" d="M750.8,-268.39C764.5,-250.91 782.71,-220.99 766.5,-201 763.84,-197.72 672.09,-179 603.07,-165.3"/>
<polygon fill="midnightblue" stroke="midnightblue" points="603.55,-161.83 593.06,-163.32 602.19,-168.7 603.55,-161.83"/>
</g>
<!-- Node17&#45;&gt;Node12 -->
<g id="edge28" class="edge">
<title>Node17&#45;&gt;Node12</title>
<path fill="none" stroke="midnightblue" d="M804.41,-270.51C809.18,-269.66 813.91,-268.81 818.5,-268 910.44,-251.67 933.56,-248.33 1025.5,-232 1026.79,-231.77 1028.09,-231.54 1029.4,-231.31"/>
<polygon fill="midnightblue" stroke="midnightblue" points="1030.36,-234.69 1039.59,-229.49 1029.13,-227.8 1030.36,-234.69"/>
</g>
<!-- Node17&#45;&gt;Node13 -->
<g id="edge25" class="edge">
<title>Node17&#45;&gt;Node13</title>
<path fill="none" stroke="midnightblue" d="M804.19,-270.63C872.19,-258.12 970.8,-239.22 987.5,-232 988.15,-231.72 1048.87,-188.61 1081.8,-165.21"/>
<polygon fill="midnightblue" stroke="midnightblue" points="1084.16,-167.83 1090.28,-159.18 1080.1,-162.12 1084.16,-167.83"/>
</g>
<!-- Node18 -->
<g id="node18" class="node">
<title>Node18</title>
<g id="a_node18"><a xlink:href="../../maliput/html/roll__pitch__yaw_8h.html.html" xlink:title=" ">
<polygon fill="white" stroke="black" points="626,-201.5 626,-231.5 757,-231.5 757,-201.5 626,-201.5"/>
<text text-anchor="start" x="634" y="-219.5" font-family="Helvetica,sans-Serif" font-size="10.00">maliput/math/roll_pitch</text>
<text text-anchor="middle" x="691.5" y="-208.5" font-family="Helvetica,sans-Serif" font-size="10.00">_yaw.h</text>
</a>
</g>
</g>
<!-- Node17&#45;&gt;Node18 -->
<g id="edge24" class="edge">
<title>Node17&#45;&gt;Node18</title>
<path fill="none" stroke="midnightblue" d="M728.3,-268.4C722.27,-260.05 714.48,-249.29 707.63,-239.81"/>
<polygon fill="midnightblue" stroke="midnightblue" points="710.37,-237.63 701.68,-231.58 704.7,-241.73 710.37,-237.63"/>
</g>
<!-- Node19 -->
<g id="node19" class="node">
<title>Node19</title>
<g id="a_node19"><a xlink:href="road__curve_2lane__offset_8h.html" target="_top" xlink:title=" ">
<polygon fill="white" stroke="black" points="814,-201.5 814,-231.5 945,-231.5 945,-201.5 814,-201.5"/>
<text text-anchor="start" x="822" y="-219.5" font-family="Helvetica,sans-Serif" font-size="10.00">maliput_malidrive/road</text>
<text text-anchor="middle" x="879.5" y="-208.5" font-family="Helvetica,sans-Serif" font-size="10.00">_curve/lane_offset.h</text>
</a>
</g>
</g>
<!-- Node17&#45;&gt;Node19 -->
<g id="edge29" class="edge">
<title>Node17&#45;&gt;Node19</title>
<path fill="none" stroke="midnightblue" d="M769.09,-268.4C789.79,-258.86 817.32,-246.16 839.72,-235.84"/>
<polygon fill="midnightblue" stroke="midnightblue" points="841.35,-238.94 848.96,-231.58 838.42,-232.58 841.35,-238.94"/>
</g>
<!-- Node19&#45;&gt;Node4 -->
<g id="edge31" class="edge">
<title>Node19&#45;&gt;Node4</title>
<path fill="none" stroke="midnightblue" d="M876.24,-201.25C871.58,-183.63 861.53,-153.56 843.5,-134 831.11,-120.56 814.31,-109.94 798.39,-101.98"/>
<polygon fill="midnightblue" stroke="midnightblue" points="799.7,-98.72 789.17,-97.6 796.7,-105.05 799.7,-98.72"/>
</g>
<!-- Node19&#45;&gt;Node11 -->
<g id="edge32" class="edge">
<title>Node19&#45;&gt;Node11</title>
<path fill="none" stroke="midnightblue" d="M813.97,-203.59C745.47,-191.14 643.42,-172.57 603.32,-165.13"/>
<polygon fill="midnightblue" stroke="midnightblue" points="603.81,-161.66 593.34,-163.27 602.53,-168.54 603.81,-161.66"/>
</g>
<!-- Node20 -->
<g id="node20" class="node">
<title>Node20</title>
<g id="a_node20"><a xlink:title=" ">
<polygon fill="white" stroke="#bfbfbf" points="889.5,-140 889.5,-159 945.5,-159 945.5,-140 889.5,-140"/>
<text text-anchor="middle" x="917.5" y="-147" font-family="Helvetica,sans-Serif" font-size="10.00">optional</text>
</a>
</g>
</g>
<!-- Node19&#45;&gt;Node20 -->
<g id="edge30" class="edge">
<title>Node19&#45;&gt;Node20</title>
<path fill="none" stroke="midnightblue" d="M887.75,-201.4C893.49,-191.56 901.2,-178.38 907.33,-167.89"/>
<polygon fill="midnightblue" stroke="midnightblue" points="910.39,-169.59 912.42,-159.19 904.35,-166.06 910.39,-169.59"/>
</g>
<!-- Node21 -->
<g id="node21" class="node">
<title>Node21</title>
<g id="a_node21"><a xlink:href="open__range__validator_8h.html" target="_top" xlink:title=" ">
<polygon fill="white" stroke="black" points="667,-134.5 667,-164.5 834,-164.5 834,-134.5 667,-134.5"/>
<text text-anchor="start" x="675" y="-152.5" font-family="Helvetica,sans-Serif" font-size="10.00">maliput_malidrive/road</text>
<text text-anchor="middle" x="750.5" y="-141.5" font-family="Helvetica,sans-Serif" font-size="10.00">_curve/open_range_validator.h</text>
</a>
</g>
</g>
<!-- Node19&#45;&gt;Node21 -->
<g id="edge33" class="edge">
<title>Node19&#45;&gt;Node21</title>
<path fill="none" stroke="midnightblue" d="M851.51,-201.4C832.75,-191.94 807.83,-179.39 787.45,-169.12"/>
<polygon fill="midnightblue" stroke="midnightblue" points="788.94,-165.95 778.44,-164.58 785.79,-172.2 788.94,-165.95"/>
</g>
<!-- Node21&#45;&gt;Node4 -->
<g id="edge34" class="edge">
<title>Node21&#45;&gt;Node4</title>
<path fill="none" stroke="midnightblue" d="M750.5,-134.4C750.5,-126.64 750.5,-116.81 750.5,-107.86"/>
<polygon fill="midnightblue" stroke="midnightblue" points="754,-107.58 750.5,-97.58 747,-107.58 754,-107.58"/>
</g>
<!-- Node22&#45;&gt;Node3 -->
<g id="edge36" class="edge">
<title>Node22&#45;&gt;Node3</title>
<path fill="none" stroke="midnightblue" d="M91.97,-268.4C112.9,-257.24 141.93,-241.78 162.47,-230.83"/>
<polygon fill="midnightblue" stroke="midnightblue" points="164.35,-233.8 171.53,-226.01 161.06,-227.62 164.35,-233.8"/>
</g>
<!-- Node22&#45;&gt;Node4 -->
<g id="edge37" class="edge">
<title>Node22&#45;&gt;Node4</title>
<path fill="none" stroke="midnightblue" d="M78.17,-268.25C107.3,-236.69 182.81,-161.55 264.5,-134 336.36,-109.76 544.89,-94.75 664.15,-87.9"/>
<polygon fill="midnightblue" stroke="midnightblue" points="664.56,-91.38 674.34,-87.32 664.16,-84.39 664.56,-91.38"/>
</g>
<!-- Node23&#45;&gt;Node4 -->
<g id="edge45" class="edge">
<title>Node23&#45;&gt;Node4</title>
<path fill="none" stroke="midnightblue" d="M1245.35,-201.43C1232.18,-182.51 1206,-149.47 1174.5,-134 1116.89,-105.7 943.22,-92.58 836.86,-87.05"/>
<polygon fill="midnightblue" stroke="midnightblue" points="836.94,-83.55 826.78,-86.54 836.59,-90.54 836.94,-83.55"/>
</g>
<!-- Node23&#45;&gt;Node5 -->
<g id="edge42" class="edge">
<title>Node23&#45;&gt;Node5</title>
<path fill="none" stroke="midnightblue" d="M1251.34,-201.19C1243.54,-165.91 1223.39,-74.78 1214.65,-35.25"/>
<polygon fill="midnightblue" stroke="midnightblue" points="1218.04,-34.37 1212.46,-25.36 1211.2,-35.88 1218.04,-34.37"/>
</g>
<!-- Node23&#45;&gt;Node13 -->
<g id="edge44" class="edge">
<title>Node23&#45;&gt;Node13</title>
<path fill="none" stroke="midnightblue" d="M1221.52,-201.4C1194.73,-189.94 1157.31,-173.94 1131.62,-162.95"/>
<polygon fill="midnightblue" stroke="midnightblue" points="1132.96,-159.72 1122.39,-159.01 1130.21,-166.16 1132.96,-159.72"/>
</g>
<!-- Node23&#45;&gt;Node15 -->
<g id="edge39" class="edge">
<title>Node23&#45;&gt;Node15</title>
<path fill="none" stroke="midnightblue" d="M1188.8,-202.19C1186,-201.76 1183.23,-201.36 1180.5,-201 949.95,-170.58 882.42,-227.78 658.5,-165 656.83,-164.53 655.15,-163.96 653.48,-163.31"/>
<polygon fill="midnightblue" stroke="midnightblue" points="654.83,-160.08 644.28,-159.05 651.88,-166.43 654.83,-160.08"/>
</g>
<!-- Node23&#45;&gt;Node20 -->
<g id="edge40" class="edge">
<title>Node23&#45;&gt;Node20</title>
<path fill="none" stroke="midnightblue" d="M1188.74,-202.6C1185.95,-202.06 1183.2,-201.52 1180.5,-201 1100.44,-185.47 1006.61,-167.51 955.47,-157.74"/>
<polygon fill="midnightblue" stroke="midnightblue" points="956.01,-154.28 945.53,-155.85 954.7,-161.16 956.01,-154.28"/>
</g>
<!-- Node24 -->
<g id="node24" class="node">
<title>Node24</title>
<g id="a_node24"><a xlink:title=" ">
<polygon fill="white" stroke="#bfbfbf" points="1260,-140 1260,-159 1317,-159 1317,-140 1260,-140"/>
<text text-anchor="middle" x="1288.5" y="-147" font-family="Helvetica,sans-Serif" font-size="10.00">ostream</text>
</a>
</g>
</g>
<!-- Node23&#45;&gt;Node24 -->
<g id="edge41" class="edge">
<title>Node23&#45;&gt;Node24</title>
<path fill="none" stroke="midnightblue" d="M1261.88,-201.4C1266.97,-191.66 1273.78,-178.65 1279.23,-168.21"/>
<polygon fill="midnightblue" stroke="midnightblue" points="1282.42,-169.68 1283.95,-159.19 1276.22,-166.43 1282.42,-169.68"/>
</g>
<!-- Node25 -->
<g id="node25" class="node">
<title>Node25</title>
<g id="a_node25"><a xlink:title=" ">
<polygon fill="white" stroke="#bfbfbf" points="1335,-140 1335,-159 1386,-159 1386,-140 1335,-140"/>
<text text-anchor="middle" x="1360.5" y="-147" font-family="Helvetica,sans-Serif" font-size="10.00">variant</text>
</a>
</g>
</g>
<!-- Node23&#45;&gt;Node25 -->
<g id="edge43" class="edge">
<title>Node23&#45;&gt;Node25</title>
<path fill="none" stroke="midnightblue" d="M1277.5,-201.4C1295.44,-190.39 1320.22,-175.2 1338.02,-164.28"/>
<polygon fill="midnightblue" stroke="midnightblue" points="1339.93,-167.22 1346.63,-159.01 1336.27,-161.25 1339.93,-167.22"/>
</g>
<!-- Node28&#45;&gt;Node3 -->
<g id="edge49" class="edge">
<title>Node28&#45;&gt;Node3</title>
<path fill="none" stroke="midnightblue" d="M239.18,-268.4C228.68,-258.06 214.43,-244.02 203.55,-233.31"/>
<polygon fill="midnightblue" stroke="midnightblue" points="205.91,-230.72 196.33,-226.19 201,-235.71 205.91,-230.72"/>
</g>
<!-- Node28&#45;&gt;Node4 -->
<g id="edge50" class="edge">
<title>Node28&#45;&gt;Node4</title>
<path fill="none" stroke="midnightblue" d="M252.34,-268.41C250.74,-238.49 251.71,-168.54 291.5,-134 318.99,-110.13 538.56,-94.71 663.78,-87.77"/>
<polygon fill="midnightblue" stroke="midnightblue" points="664.32,-91.24 674.11,-87.2 663.94,-84.25 664.32,-91.24"/>
</g>
</g>
</svg>
        <g id="navigator" transform="translate(0 0)" fill="#404254">
                <rect fill="#f2f5e9" fill-opacity="0.5" stroke="#606060" stroke-width=".5" x="0" y="0" width="60" height="60"/>
                <use id="zoomplus" xlink:href="#zoomPlus" x="17" y="9" onmousedown="handleZoom(evt,'in')"/>
                <use id="zoomminus" xlink:href="#zoomMin" x="42" y="9" onmousedown="handleZoom(evt,'out')"/>
                <use id="reset" xlink:href="#resetDef" x="30" y="36" onmousedown="handleReset()"/>
                <g id="arrowUp" xlink:href="#dirArrow" transform="translate(30 24)" onmousedown="handlePan(0,-1)">
                  <use xlink:href="#rim" fill="#404040">
                        <set attributeName="fill" to="#808080" begin="arrowUp.mouseover" end="arrowUp.mouseout"/>
                  </use>
                  <path fill="none" stroke="white" stroke-width="1.5" d="M0,-3.0v7 M-2.5,-0.5L0,-3.0L2.5,-0.5"/>
                </g>
                <g id="arrowRight" xlink:href="#dirArrow" transform="rotate(90) translate(36 -43)" onmousedown="handlePan(1,0)">
                  <use xlink:href="#rim" fill="#404040">
                        <set attributeName="fill" to="#808080" begin="arrowRight.mouseover" end="arrowRight.mouseout"/>
                  </use>
                  <path fill="none" stroke="white" stroke-width="1.5" d="M0,-3.0v7 M-2.5,-0.5L0,-3.0L2.5,-0.5"/>
                </g>
                <g id="arrowDown" xlink:href="#dirArrow" transform="rotate(180) translate(-30 -48)" onmousedown="handlePan(0,1)">
                  <use xlink:href="#rim" fill="#404040">
                        <set attributeName="fill" to="#808080" begin="arrowDown.mouseover" end="arrowDown.mouseout"/>
                  </use>
                  <path fill="none" stroke="white" stroke-width="1.5" d="M0,-3.0v7 M-2.5,-0.5L0,-3.0L2.5,-0.5"/>
                </g>
                <g id="arrowLeft" xlink:href="#dirArrow" transform="rotate(270) translate(-36 17)" onmousedown="handlePan(-1,0)">
                  <use xlink:href="#rim" fill="#404040">
                        <set attributeName="fill" to="#808080" begin="arrowLeft.mouseover" end="arrowLeft.mouseout"/>
                  </use>
                  <path fill="none" stroke="white" stroke-width="1.5" d="M0,-3.0v7 M-2.5,-0.5L0,-3.0L2.5,-0.5"/>
                </g>
        </g>
        <svg viewBox="0 0 15 15" width="100%" height="30px" preserveAspectRatio="xMaxYMin meet">
         <g id="arrow_out" transform="scale(0.3 0.3)">
          <a xlink:href="road__curve__factory_8h__incl_org.svg" target="_base">
           <rect id="button" ry="5" rx="5" y="6" x="6" height="38" width="38"
                fill="#f2f5e9" fill-opacity="0.5" stroke="#606060" stroke-width="1.0"/>
           <path id="arrow"
             d="M 11.500037,31.436501 C 11.940474,20.09759 22.043105,11.32322 32.158766,21.979434 L 37.068811,17.246167 C 37.068811,17.246167 37.088388,32 37.088388,32 L 22.160133,31.978069 C 22.160133,31.978069 26.997745,27.140456 26.997745,27.140456 C 18.528582,18.264221 13.291696,25.230495 11.500037,31.436501 z"
             style="fill:#404040;"/>
          </a>
         </g>
        </svg>
</svg>
