<?xml version="1.0" encoding="UTF-8" standalone="no"?>
<!DOCTYPE svg PUBLIC "-//W3C//DTD SVG 1.1//EN"
 "http://www.w3.org/Graphics/SVG/1.1/DTD/svg11.dtd">
<!-- Generated by graphviz version 2.43.0 (0)
 -->
<!-- Title: road_network_builder.h Pages: 1 -->
<!--zoomable 218 -->
<svg id="main" version="1.1" xmlns="http://www.w3.org/2000/svg" xmlns:xlink="http://www.w3.org/1999/xlink" xml:space="preserve" onload="init(evt)">
<style type="text/css"><![CDATA[
.edge:hover path { stroke: red; }
.edge:hover polygon { stroke: red; fill: red; }
]]></style>
<script type="text/javascript"><![CDATA[
var edges = document.getElementsByTagName('g');
if (edges && edges.length) {
  for (var i=0;i<edges.length;i++) {
    if (edges[i].id.substr(0,4)=='edge') {
      edges[i].setAttribute('class','edge');
    }
  }
}
]]></script>
        <defs>
                <circle id="rim" cx="0" cy="0" r="7"/>
                <circle id="rim2" cx="0" cy="0" r="3.5"/>
                <g id="zoomPlus">
                        <use xlink:href="#rim" fill="#404040">
                                <set attributeName="fill" to="#808080" begin="zoomplus.mouseover" end="zoomplus.mouseout"/>
                        </use>
                        <path d="M-4,0h8M0,-4v8" fill="none" stroke="white" stroke-width="1.5" pointer-events="none"/>
                </g>
                <g id="zoomMin">
                        <use xlink:href="#rim" fill="#404040">
                                <set attributeName="fill" to="#808080" begin="zoomminus.mouseover" end="zoomminus.mouseout"/>
                        </use>
                        <path d="M-4,0h8" fill="none" stroke="white" stroke-width="1.5" pointer-events="none"/>
                </g>
                <g id="dirArrow">
                        <path fill="none" stroke="white" stroke-width="1.5" d="M0,-3.0v7 M-2.5,-0.5L0,-3.0L2.5,-0.5"/>
                </g>
               <g id="resetDef">
                       <use xlink:href="#rim2" fill="#404040">
                               <set attributeName="fill" to="#808080" begin="reset.mouseover" end="reset.mouseout"/>
                       </use>
               </g>
        </defs>

<script type="text/javascript">
var viewWidth = 1456;
var viewHeight = 218;
var sectionId = 'dynsection-0';
</script>
<script xlink:href="svgpan.js"/>
<svg id="graph" class="graph">
<g id="viewport">
<title>road_network_builder.h</title>
<polygon fill="white" stroke="transparent" points="-4,4 -4,-214 1451.5,-214 1451.5,4 -4,4"/>
<!-- Node1 -->
<g id="node1" class="node">
<title>Node1</title>
<g id="a_node1"><a xlink:title=" ">
<polygon fill="#bfbfbf" stroke="black" points="319,-190.5 319,-209.5 450,-209.5 450,-190.5 319,-190.5"/>
<text text-anchor="middle" x="384.5" y="-197.5" font-family="Helvetica,sans-Serif" font-size="10.00">road_network_builder.h</text>
</a>
</g>
</g>
<!-- Node2 -->
<g id="node2" class="node">
<title>Node2</title>
<g id="a_node2"><a xlink:title=" ">
<polygon fill="white" stroke="#bfbfbf" points="263.5,-62 263.5,-81 301.5,-81 301.5,-62 263.5,-62"/>
<text text-anchor="middle" x="282.5" y="-69" font-family="Helvetica,sans-Serif" font-size="10.00">map</text>
</a>
</g>
</g>
<!-- Node1&#45;&gt;Node2 -->
<g id="edge1" class="edge">
<title>Node1&#45;&gt;Node2</title>
<path fill="none" stroke="midnightblue" d="M377.49,-190.31C360.68,-169.45 317.83,-116.31 295.89,-89.11"/>
<polygon fill="midnightblue" stroke="midnightblue" points="298.56,-86.84 289.56,-81.26 293.11,-91.24 298.56,-86.84"/>
</g>
<!-- Node3 -->
<g id="node3" class="node">
<title>Node3</title>
<g id="a_node3"><a xlink:title=" ">
<polygon fill="white" stroke="#bfbfbf" points="243.5,-129 243.5,-148 301.5,-148 301.5,-129 243.5,-129"/>
<text text-anchor="middle" x="272.5" y="-136" font-family="Helvetica,sans-Serif" font-size="10.00">memory</text>
</a>
</g>
</g>
<!-- Node1&#45;&gt;Node3 -->
<g id="edge2" class="edge">
<title>Node1&#45;&gt;Node3</title>
<path fill="none" stroke="midnightblue" d="M368.45,-190.48C349.91,-180.62 319.16,-164.29 297.48,-152.77"/>
<polygon fill="midnightblue" stroke="midnightblue" points="298.99,-149.61 288.52,-148.01 295.71,-155.79 298.99,-149.61"/>
</g>
<!-- Node4 -->
<g id="node4" class="node">
<title>Node4</title>
<g id="a_node4"><a xlink:title=" ">
<polygon fill="white" stroke="#bfbfbf" points="573.5,-0.5 573.5,-19.5 617.5,-19.5 617.5,-0.5 573.5,-0.5"/>
<text text-anchor="middle" x="595.5" y="-7.5" font-family="Helvetica,sans-Serif" font-size="10.00">string</text>
</a>
</g>
</g>
<!-- Node1&#45;&gt;Node4 -->
<g id="edge3" class="edge">
<title>Node1&#45;&gt;Node4</title>
<path fill="none" stroke="midnightblue" d="M450.07,-191.17C477.88,-184.98 509,-173.88 531.5,-154 569.46,-120.47 586.06,-60.06 592.29,-29.61"/>
<polygon fill="midnightblue" stroke="midnightblue" points="595.78,-30 594.19,-19.53 588.9,-28.71 595.78,-30"/>
</g>
<!-- Node5 -->
<g id="node5" class="node">
<title>Node5</title>
<g id="a_node5"><a xlink:href="../../maliput/html/road__network_8h.html.html" xlink:title=" ">
<polygon fill="white" stroke="black" points="0,-0.5 0,-19.5 151,-19.5 151,-0.5 0,-0.5"/>
<text text-anchor="middle" x="75.5" y="-7.5" font-family="Helvetica,sans-Serif" font-size="10.00">maliput/api/road_network.h</text>
</a>
</g>
</g>
<!-- Node1&#45;&gt;Node5 -->
<g id="edge4" class="edge">
<title>Node1&#45;&gt;Node5</title>
<path fill="none" stroke="midnightblue" d="M337.43,-190.47C306.76,-183.6 266.62,-172.05 234.5,-154 172.93,-119.4 115.07,-57.27 89.4,-27.62"/>
<polygon fill="midnightblue" stroke="midnightblue" points="91.92,-25.18 82.77,-19.85 86.6,-29.73 91.92,-25.18"/>
</g>
<!-- Node6 -->
<g id="node6" class="node">
<title>Node6</title>
<g id="a_node6"><a xlink:href="road__network__configuration_8h.html" target="_top" xlink:title=" ">
<polygon fill="white" stroke="black" points="358,-123.5 358,-153.5 523,-153.5 523,-123.5 358,-123.5"/>
<text text-anchor="start" x="366" y="-141.5" font-family="Helvetica,sans-Serif" font-size="10.00">maliput_malidrive/builder</text>
<text text-anchor="middle" x="440.5" y="-130.5" font-family="Helvetica,sans-Serif" font-size="10.00">/road_network_configuration.h</text>
</a>
</g>
</g>
<!-- Node1&#45;&gt;Node6 -->
<g id="edge5" class="edge">
<title>Node1&#45;&gt;Node6</title>
<path fill="none" stroke="midnightblue" d="M392.52,-190.48C399.75,-182.79 410.69,-171.17 420.3,-160.96"/>
<polygon fill="midnightblue" stroke="midnightblue" points="423,-163.2 427.3,-153.52 417.9,-158.41 423,-163.2"/>
</g>
<!-- Node11 -->
<g id="node11" class="node">
<title>Node11</title>
<g id="a_node11"><a xlink:href="macros_8h.html" target="_top" xlink:title=" ">
<polygon fill="white" stroke="black" points="825.5,-123.5 825.5,-153.5 977.5,-153.5 977.5,-123.5 825.5,-123.5"/>
<text text-anchor="start" x="833.5" y="-141.5" font-family="Helvetica,sans-Serif" font-size="10.00">maliput_malidrive/common</text>
<text text-anchor="middle" x="901.5" y="-130.5" font-family="Helvetica,sans-Serif" font-size="10.00">/macros.h</text>
</a>
</g>
</g>
<!-- Node1&#45;&gt;Node11 -->
<g id="edge15" class="edge">
<title>Node1&#45;&gt;Node11</title>
<path fill="none" stroke="midnightblue" d="M450.24,-191.43C543.02,-180.76 712.5,-161.25 815.28,-149.42"/>
<polygon fill="midnightblue" stroke="midnightblue" points="815.78,-152.89 825.32,-148.27 814.98,-145.93 815.78,-152.89"/>
</g>
<!-- Node6&#45;&gt;Node2 -->
<g id="edge6" class="edge">
<title>Node6&#45;&gt;Node2</title>
<path fill="none" stroke="midnightblue" d="M401.08,-123.44C375.07,-113.86 340.4,-100.5 310.5,-87 309.5,-86.55 308.49,-86.08 307.47,-85.6"/>
<polygon fill="midnightblue" stroke="midnightblue" points="308.86,-82.38 298.35,-81.08 305.75,-88.66 308.86,-82.38"/>
</g>
<!-- Node6&#45;&gt;Node4 -->
<g id="edge8" class="edge">
<title>Node6&#45;&gt;Node4</title>
<path fill="none" stroke="midnightblue" d="M467.11,-123.4C483.74,-114.05 505.19,-100.96 522.5,-87 545.09,-68.78 567.71,-43.96 581.65,-27.71"/>
<polygon fill="midnightblue" stroke="midnightblue" points="584.67,-29.57 588.45,-19.67 579.32,-25.05 584.67,-29.57"/>
</g>
<!-- Node7 -->
<g id="node7" class="node">
<title>Node7</title>
<g id="a_node7"><a xlink:title=" ">
<polygon fill="white" stroke="#bfbfbf" points="495.5,-0.5 495.5,-19.5 551.5,-19.5 551.5,-0.5 495.5,-0.5"/>
<text text-anchor="middle" x="523.5" y="-7.5" font-family="Helvetica,sans-Serif" font-size="10.00">optional</text>
</a>
</g>
</g>
<!-- Node6&#45;&gt;Node7 -->
<g id="edge7" class="edge">
<title>Node6&#45;&gt;Node7</title>
<path fill="none" stroke="midnightblue" d="M463.46,-123.5C476.36,-114.54 491.77,-101.83 501.5,-87 512.9,-69.62 518.51,-46.24 521.19,-30.02"/>
<polygon fill="midnightblue" stroke="midnightblue" points="524.72,-30.06 522.67,-19.67 517.79,-29.07 524.72,-30.06"/>
</g>
<!-- Node8 -->
<g id="node8" class="node">
<title>Node8</title>
<g id="a_node8"><a xlink:href="road__geometry__configuration_8h.html" target="_top" xlink:title=" ">
<polygon fill="white" stroke="black" points="320,-56.5 320,-86.5 493,-86.5 493,-56.5 320,-56.5"/>
<text text-anchor="start" x="328" y="-74.5" font-family="Helvetica,sans-Serif" font-size="10.00">maliput_malidrive/builder</text>
<text text-anchor="middle" x="406.5" y="-63.5" font-family="Helvetica,sans-Serif" font-size="10.00">/road_geometry_configuration.h</text>
</a>
</g>
</g>
<!-- Node6&#45;&gt;Node8 -->
<g id="edge9" class="edge">
<title>Node6&#45;&gt;Node8</title>
<path fill="none" stroke="midnightblue" d="M433.12,-123.4C428.89,-115.3 423.47,-104.94 418.63,-95.69"/>
<polygon fill="midnightblue" stroke="midnightblue" points="421.6,-93.82 413.86,-86.58 415.4,-97.06 421.6,-93.82"/>
</g>
<!-- Node8&#45;&gt;Node4 -->
<g id="edge11" class="edge">
<title>Node8&#45;&gt;Node4</title>
<path fill="none" stroke="midnightblue" d="M451.29,-56.4C485.81,-45.53 532.71,-30.77 563.52,-21.07"/>
<polygon fill="midnightblue" stroke="midnightblue" points="564.82,-24.33 573.31,-17.99 562.72,-17.65 564.82,-24.33"/>
</g>
<!-- Node8&#45;&gt;Node5 -->
<g id="edge12" class="edge">
<title>Node8&#45;&gt;Node5</title>
<path fill="none" stroke="midnightblue" d="M328.48,-56.47C268.5,-45.69 187.03,-31.05 132.93,-21.32"/>
<polygon fill="midnightblue" stroke="midnightblue" points="133.28,-17.83 122.82,-19.51 132.04,-24.72 133.28,-17.83"/>
</g>
<!-- Node8&#45;&gt;Node7 -->
<g id="edge10" class="edge">
<title>Node8&#45;&gt;Node7</title>
<path fill="none" stroke="midnightblue" d="M434.23,-56.4C453.33,-46.68 478.56,-33.86 497.32,-24.31"/>
<polygon fill="midnightblue" stroke="midnightblue" points="499.15,-27.31 506.48,-19.66 495.98,-21.07 499.15,-27.31"/>
</g>
<!-- Node9 -->
<g id="node9" class="node">
<title>Node9</title>
<g id="a_node9"><a xlink:href="../../maliput/html/vector_8h.html.html" xlink:title=" ">
<polygon fill="white" stroke="black" points="352,-0.5 352,-19.5 477,-19.5 477,-0.5 352,-0.5"/>
<text text-anchor="middle" x="414.5" y="-7.5" font-family="Helvetica,sans-Serif" font-size="10.00">maliput/math/vector.h</text>
</a>
</g>
</g>
<!-- Node8&#45;&gt;Node9 -->
<g id="edge13" class="edge">
<title>Node8&#45;&gt;Node9</title>
<path fill="none" stroke="midnightblue" d="M408.4,-56.4C409.47,-48.38 410.84,-38.23 412,-29.57"/>
<polygon fill="midnightblue" stroke="midnightblue" points="415.47,-30.04 413.34,-19.66 408.53,-29.1 415.47,-30.04"/>
</g>
<!-- Node10 -->
<g id="node10" class="node">
<title>Node10</title>
<g id="a_node10"><a xlink:href="constants_8h.html" target="_top" xlink:title=" ">
<polygon fill="white" stroke="black" points="169,-0.5 169,-19.5 334,-19.5 334,-0.5 169,-0.5"/>
<text text-anchor="middle" x="251.5" y="-7.5" font-family="Helvetica,sans-Serif" font-size="10.00">maliput_malidrive/constants.h</text>
</a>
</g>
</g>
<!-- Node8&#45;&gt;Node10 -->
<g id="edge14" class="edge">
<title>Node8&#45;&gt;Node10</title>
<path fill="none" stroke="midnightblue" d="M369.77,-56.4C343.53,-46.33 308.57,-32.91 283.48,-23.28"/>
<polygon fill="midnightblue" stroke="midnightblue" points="284.64,-19.97 274.05,-19.66 282.14,-26.51 284.64,-19.97"/>
</g>
<!-- Node11&#45;&gt;Node4 -->
<g id="edge16" class="edge">
<title>Node11&#45;&gt;Node4</title>
<path fill="none" stroke="midnightblue" d="M825.42,-135.55C773.81,-131.12 705.89,-118.95 654.5,-87 631.73,-72.85 614.32,-46.57 604.5,-28.93"/>
<polygon fill="midnightblue" stroke="midnightblue" points="607.39,-26.9 599.61,-19.7 601.2,-30.18 607.39,-26.9"/>
</g>
<!-- Node12 -->
<g id="node12" class="node">
<title>Node12</title>
<g id="a_node12"><a xlink:href="../../maliput/html/assertion__error_8h.html.html" xlink:title=" ">
<polygon fill="white" stroke="black" points="663.5,-56.5 663.5,-86.5 811.5,-86.5 811.5,-56.5 663.5,-56.5"/>
<text text-anchor="start" x="671.5" y="-74.5" font-family="Helvetica,sans-Serif" font-size="10.00">maliput/common/assertion</text>
<text text-anchor="middle" x="737.5" y="-63.5" font-family="Helvetica,sans-Serif" font-size="10.00">_error.h</text>
</a>
</g>
</g>
<!-- Node11&#45;&gt;Node12 -->
<g id="edge17" class="edge">
<title>Node11&#45;&gt;Node12</title>
<path fill="none" stroke="midnightblue" d="M865.91,-123.4C841.41,-113.69 808.67,-100.71 782.38,-90.29"/>
<polygon fill="midnightblue" stroke="midnightblue" points="783.6,-87.01 773.02,-86.58 781.02,-93.51 783.6,-87.01"/>
</g>
<!-- Node13 -->
<g id="node13" class="node">
<title>Node13</title>
<g id="a_node13"><a xlink:href="../../maliput/html/logger_8h.html.html" xlink:title=" ">
<polygon fill="white" stroke="black" points="830,-62 830,-81 973,-81 973,-62 830,-62"/>
<text text-anchor="middle" x="901.5" y="-69" font-family="Helvetica,sans-Serif" font-size="10.00">maliput/common/logger.h</text>
</a>
</g>
</g>
<!-- Node11&#45;&gt;Node13 -->
<g id="edge18" class="edge">
<title>Node11&#45;&gt;Node13</title>
<path fill="none" stroke="midnightblue" d="M901.5,-123.4C901.5,-114.06 901.5,-101.71 901.5,-91.52"/>
<polygon fill="midnightblue" stroke="midnightblue" points="905,-91.19 901.5,-81.19 898,-91.19 905,-91.19"/>
</g>
<!-- Node14 -->
<g id="node14" class="node">
<title>Node14</title>
<g id="a_node14"><a xlink:href="../../maliput/html/maliput__abort_8h.html.html" xlink:title=" ">
<polygon fill="white" stroke="black" points="991.5,-56.5 991.5,-86.5 1131.5,-86.5 1131.5,-56.5 991.5,-56.5"/>
<text text-anchor="start" x="999.5" y="-74.5" font-family="Helvetica,sans-Serif" font-size="10.00">maliput/common/maliput</text>
<text text-anchor="middle" x="1061.5" y="-63.5" font-family="Helvetica,sans-Serif" font-size="10.00">_abort.h</text>
</a>
</g>
</g>
<!-- Node11&#45;&gt;Node14 -->
<g id="edge19" class="edge">
<title>Node11&#45;&gt;Node14</title>
<path fill="none" stroke="midnightblue" d="M936.22,-123.4C960.01,-113.73 991.78,-100.82 1017.37,-90.43"/>
<polygon fill="midnightblue" stroke="midnightblue" points="1018.9,-93.58 1026.85,-86.58 1016.27,-87.1 1018.9,-93.58"/>
</g>
<!-- Node15 -->
<g id="node15" class="node">
<title>Node15</title>
<g id="a_node15"><a xlink:href="../../maliput/html/maliput__copyable_8h.html.html" xlink:title=" ">
<polygon fill="white" stroke="black" points="1149.5,-56.5 1149.5,-86.5 1289.5,-86.5 1289.5,-56.5 1149.5,-56.5"/>
<text text-anchor="start" x="1157.5" y="-74.5" font-family="Helvetica,sans-Serif" font-size="10.00">maliput/common/maliput</text>
<text text-anchor="middle" x="1219.5" y="-63.5" font-family="Helvetica,sans-Serif" font-size="10.00">_copyable.h</text>
</a>
</g>
</g>
<!-- Node11&#45;&gt;Node15 -->
<g id="edge20" class="edge">
<title>Node11&#45;&gt;Node15</title>
<path fill="none" stroke="midnightblue" d="M970.11,-123.48C1020.28,-113.22 1088.44,-99.29 1140.82,-88.58"/>
<polygon fill="midnightblue" stroke="midnightblue" points="1141.64,-91.99 1150.74,-86.55 1140.24,-85.13 1141.64,-91.99"/>
</g>
<!-- Node16 -->
<g id="node16" class="node">
<title>Node16</title>
<g id="a_node16"><a xlink:href="../../maliput/html/maliput__throw_8h.html.html" xlink:title=" ">
<polygon fill="white" stroke="black" points="1307.5,-56.5 1307.5,-86.5 1447.5,-86.5 1447.5,-56.5 1307.5,-56.5"/>
<text text-anchor="start" x="1315.5" y="-74.5" font-family="Helvetica,sans-Serif" font-size="10.00">maliput/common/maliput</text>
<text text-anchor="middle" x="1377.5" y="-63.5" font-family="Helvetica,sans-Serif" font-size="10.00">_throw.h</text>
</a>
</g>
</g>
<!-- Node11&#45;&gt;Node16 -->
<g id="edge21" class="edge">
<title>Node11&#45;&gt;Node16</title>
<path fill="none" stroke="midnightblue" d="M977.78,-129.06C1055.57,-120.16 1179.98,-105.15 1297.1,-87.17"/>
<polygon fill="midnightblue" stroke="midnightblue" points="1297.97,-90.57 1307.32,-85.59 1296.91,-83.66 1297.97,-90.57"/>
</g>
</g>
</svg>
        <g id="navigator" transform="translate(0 0)" fill="#404254">
                <rect fill="#f2f5e9" fill-opacity="0.5" stroke="#606060" stroke-width=".5" x="0" y="0" width="60" height="60"/>
                <use id="zoomplus" xlink:href="#zoomPlus" x="17" y="9" onmousedown="handleZoom(evt,'in')"/>
                <use id="zoomminus" xlink:href="#zoomMin" x="42" y="9" onmousedown="handleZoom(evt,'out')"/>
                <use id="reset" xlink:href="#resetDef" x="30" y="36" onmousedown="handleReset()"/>
                <g id="arrowUp" xlink:href="#dirArrow" transform="translate(30 24)" onmousedown="handlePan(0,-1)">
                  <use xlink:href="#rim" fill="#404040">
                        <set attributeName="fill" to="#808080" begin="arrowUp.mouseover" end="arrowUp.mouseout"/>
                  </use>
                  <path fill="none" stroke="white" stroke-width="1.5" d="M0,-3.0v7 M-2.5,-0.5L0,-3.0L2.5,-0.5"/>
                </g>
                <g id="arrowRight" xlink:href="#dirArrow" transform="rotate(90) translate(36 -43)" onmousedown="handlePan(1,0)">
                  <use xlink:href="#rim" fill="#404040">
                        <set attributeName="fill" to="#808080" begin="arrowRight.mouseover" end="arrowRight.mouseout"/>
                  </use>
                  <path fill="none" stroke="white" stroke-width="1.5" d="M0,-3.0v7 M-2.5,-0.5L0,-3.0L2.5,-0.5"/>
                </g>
                <g id="arrowDown" xlink:href="#dirArrow" transform="rotate(180) translate(-30 -48)" onmousedown="handlePan(0,1)">
                  <use xlink:href="#rim" fill="#404040">
                        <set attributeName="fill" to="#808080" begin="arrowDown.mouseover" end="arrowDown.mouseout"/>
                  </use>
                  <path fill="none" stroke="white" stroke-width="1.5" d="M0,-3.0v7 M-2.5,-0.5L0,-3.0L2.5,-0.5"/>
                </g>
                <g id="arrowLeft" xlink:href="#dirArrow" transform="rotate(270) translate(-36 17)" onmousedown="handlePan(-1,0)">
                  <use xlink:href="#rim" fill="#404040">
                        <set attributeName="fill" to="#808080" begin="arrowLeft.mouseover" end="arrowLeft.mouseout"/>
                  </use>
                  <path fill="none" stroke="white" stroke-width="1.5" d="M0,-3.0v7 M-2.5,-0.5L0,-3.0L2.5,-0.5"/>
                </g>
        </g>
        <svg viewBox="0 0 15 15" width="100%" height="30px" preserveAspectRatio="xMaxYMin meet">
         <g id="arrow_out" transform="scale(0.3 0.3)">
          <a xlink:href="road__network__builder_8h__incl_org.svg" target="_base">
           <rect id="button" ry="5" rx="5" y="6" x="6" height="38" width="38"
                fill="#f2f5e9" fill-opacity="0.5" stroke="#606060" stroke-width="1.0"/>
           <path id="arrow"
             d="M 11.500037,31.436501 C 11.940474,20.09759 22.043105,11.32322 32.158766,21.979434 L 37.068811,17.246167 C 37.068811,17.246167 37.088388,32 37.088388,32 L 22.160133,31.978069 C 22.160133,31.978069 26.997745,27.140456 26.997745,27.140456 C 18.528582,18.264221 13.291696,25.230495 11.500037,31.436501 z"
             style="fill:#404040;"/>
          </a>
         </g>
        </svg>
</svg>
