<?xml version="1.0" encoding="UTF-8" standalone="no"?>
<!DOCTYPE svg PUBLIC "-//W3C//DTD SVG 1.1//EN"
 "http://www.w3.org/Graphics/SVG/1.1/DTD/svg11.dtd">
<!-- Generated by graphviz version 2.43.0 (0)
 -->
<!-- Title: xodr_parser_configuration.h Pages: 1 -->
<svg width="482pt" height="84pt"
 viewBox="0.00 0.00 481.50 84.00" xmlns="http://www.w3.org/2000/svg" xmlns:xlink="http://www.w3.org/1999/xlink">
<g id="graph0" class="graph" transform="scale(1 1) rotate(0) translate(4 80)">
<title>xodr_parser_configuration.h</title>
<polygon fill="white" stroke="transparent" points="-4,4 -4,-80 477.5,-80 477.5,4 -4,4"/>
<!-- Node1 -->
<g id="node1" class="node">
<title>Node1</title>
<g id="a_node1"><a xlink:title=" ">
<polygon fill="#bfbfbf" stroke="black" points="153,-56.5 153,-75.5 306,-75.5 306,-56.5 153,-56.5"/>
<text text-anchor="middle" x="229.5" y="-63.5" font-family="Helvetica,sans-Serif" font-size="10.00">xodr_parser_configuration.h</text>
</a>
</g>
</g>
<!-- Node2 -->
<g id="node2" class="node">
<title>Node2</title>
<g id="a_node2"><a xlink:href="road__geometry__builder_8cc.html" target="_top" xlink:title=" ">
<polygon fill="white" stroke="black" points="0,-0.5 0,-19.5 143,-19.5 143,-0.5 0,-0.5"/>
<text text-anchor="middle" x="71.5" y="-7.5" font-family="Helvetica,sans-Serif" font-size="10.00">road_geometry_builder.cc</text>
</a>
</g>
</g>
<!-- Node1&#45;&gt;Node2 -->
<g id="edge1" class="edge">
<title>Node1&#45;&gt;Node2</title>
<path fill="none" stroke="midnightblue" d="M194.89,-53.17C165.14,-43 122.95,-28.59 96.42,-19.52"/>
<polygon fill="midnightblue" stroke="midnightblue" points="193.87,-56.52 204.46,-56.44 196.13,-49.9 193.87,-56.52"/>
</g>
<!-- Node3 -->
<g id="node3" class="node">
<title>Node3</title>
<g id="a_node3"><a xlink:href="road__network__builder_8cc.html" target="_top" xlink:title=" ">
<polygon fill="white" stroke="black" points="161.5,-0.5 161.5,-19.5 297.5,-19.5 297.5,-0.5 161.5,-0.5"/>
<text text-anchor="middle" x="229.5" y="-7.5" font-family="Helvetica,sans-Serif" font-size="10.00">road_network_builder.cc</text>
</a>
</g>
</g>
<!-- Node1&#45;&gt;Node3 -->
<g id="edge2" class="edge">
<title>Node1&#45;&gt;Node3</title>
<path fill="none" stroke="midnightblue" d="M229.5,-45.8C229.5,-36.91 229.5,-26.78 229.5,-19.75"/>
<polygon fill="midnightblue" stroke="midnightblue" points="226,-46.08 229.5,-56.08 233,-46.08 226,-46.08"/>
</g>
<!-- Node4 -->
<g id="node4" class="node">
<title>Node4</title>
<g id="a_node4"><a xlink:href="xodr__parser__configuration_8cc.html" target="_top" xlink:title=" ">
<polygon fill="white" stroke="black" points="315.5,-0.5 315.5,-19.5 473.5,-19.5 473.5,-0.5 315.5,-0.5"/>
<text text-anchor="middle" x="394.5" y="-7.5" font-family="Helvetica,sans-Serif" font-size="10.00">xodr_parser_configuration.cc</text>
</a>
</g>
</g>
<!-- Node1&#45;&gt;Node4 -->
<g id="edge3" class="edge">
<title>Node1&#45;&gt;Node4</title>
<path fill="none" stroke="midnightblue" d="M265.24,-53.3C296.33,-43.13 340.65,-28.62 368.48,-19.52"/>
<polygon fill="midnightblue" stroke="midnightblue" points="264.06,-50.01 255.64,-56.44 266.24,-56.66 264.06,-50.01"/>
</g>
</g>
</svg>
