<?xml version="1.0" encoding="UTF-8" standalone="no"?>
<!DOCTYPE svg PUBLIC "-//W3C//DTD SVG 1.1//EN"
 "http://www.w3.org/Graphics/SVG/1.1/DTD/svg11.dtd">
<!-- Generated by graphviz version 2.43.0 (0)
 -->
<!-- Title: lane_offset.h Pages: 1 -->
<svg width="1647pt" height="364pt"
 viewBox="0.00 0.00 1646.79 364.00" xmlns="http://www.w3.org/2000/svg" xmlns:xlink="http://www.w3.org/1999/xlink">
<g id="graph0" class="graph" transform="scale(1 1) rotate(0) translate(4 360)">
<title>lane_offset.h</title>
<polygon fill="white" stroke="transparent" points="-4,4 -4,-360 1642.79,-360 1642.79,4 -4,4"/>
<!-- Node1 -->
<g id="node1" class="node">
<title>Node1</title>
<g id="a_node1"><a xlink:title=" ">
<polygon fill="#bfbfbf" stroke="black" points="1103.13,-336.5 1103.13,-355.5 1183.13,-355.5 1183.13,-336.5 1103.13,-336.5"/>
<text text-anchor="middle" x="1143.13" y="-343.5" font-family="Helvetica,sans-Serif" font-size="10.00">lane_offset.h</text>
</a>
</g>
</g>
<!-- Node2 -->
<g id="node2" class="node">
<title>Node2</title>
<g id="a_node2"><a xlink:href="road__curve__factory_8h.html" target="_top" xlink:title=" ">
<polygon fill="white" stroke="black" points="368.13,-112.5 368.13,-131.5 486.13,-131.5 486.13,-112.5 368.13,-112.5"/>
<text text-anchor="middle" x="427.13" y="-119.5" font-family="Helvetica,sans-Serif" font-size="10.00">road_curve_factory.h</text>
</a>
</g>
</g>
<!-- Node1&#45;&gt;Node2 -->
<g id="edge1" class="edge">
<title>Node1&#45;&gt;Node2</title>
<path fill="none" stroke="midnightblue" d="M1105.83,-333.44C978.9,-294.08 565.5,-165.9 454.67,-131.54"/>
<polygon fill="midnightblue" stroke="midnightblue" points="1104.91,-336.81 1115.5,-336.43 1106.98,-330.13 1104.91,-336.81"/>
</g>
<!-- Node7 -->
<g id="node7" class="node">
<title>Node7</title>
<g id="a_node7"><a xlink:href="xodr_2lane__offset_8cc.html" target="_top" xlink:title=" ">
<polygon fill="white" stroke="black" points="1057.63,-280.5 1057.63,-299.5 1142.63,-299.5 1142.63,-280.5 1057.63,-280.5"/>
<text text-anchor="middle" x="1100.13" y="-287.5" font-family="Helvetica,sans-Serif" font-size="10.00">lane_offset.cc</text>
</a>
</g>
</g>
<!-- Node1&#45;&gt;Node7 -->
<g id="edge8" class="edge">
<title>Node1&#45;&gt;Node7</title>
<path fill="none" stroke="midnightblue" d="M1129.7,-328.14C1122.21,-318.74 1113.19,-307.4 1107.09,-299.75"/>
<polygon fill="midnightblue" stroke="midnightblue" points="1127.06,-330.44 1136.03,-336.08 1132.53,-326.08 1127.06,-330.44"/>
</g>
<!-- Node8 -->
<g id="node8" class="node">
<title>Node8</title>
<g id="a_node8"><a xlink:href="lanes_8h.html" target="_top" xlink:title=" ">
<polygon fill="white" stroke="black" points="1161.13,-280.5 1161.13,-299.5 1213.13,-299.5 1213.13,-280.5 1161.13,-280.5"/>
<text text-anchor="middle" x="1187.13" y="-287.5" font-family="Helvetica,sans-Serif" font-size="10.00">lanes.h</text>
</a>
</g>
</g>
<!-- Node1&#45;&gt;Node8 -->
<g id="edge9" class="edge">
<title>Node1&#45;&gt;Node8</title>
<path fill="none" stroke="midnightblue" d="M1156.86,-328.14C1164.53,-318.74 1173.76,-307.4 1180,-299.75"/>
<polygon fill="midnightblue" stroke="midnightblue" points="1154,-326.12 1150.39,-336.08 1159.42,-330.54 1154,-326.12"/>
</g>
<!-- Node10 -->
<g id="node10" class="node">
<title>Node10</title>
<g id="a_node10"><a xlink:href="parser_8cc.html" target="_top" xlink:title=" ">
<polygon fill="white" stroke="black" points="1289.63,-168.5 1289.63,-187.5 1350.63,-187.5 1350.63,-168.5 1289.63,-168.5"/>
<text text-anchor="middle" x="1320.13" y="-175.5" font-family="Helvetica,sans-Serif" font-size="10.00">parser.cc</text>
</a>
</g>
</g>
<!-- Node1&#45;&gt;Node10 -->
<g id="edge43" class="edge">
<title>Node1&#45;&gt;Node10</title>
<path fill="none" stroke="midnightblue" d="M1171.87,-331.91C1187.63,-323.95 1206.98,-312.86 1222.13,-300 1264.17,-264.31 1301.44,-208.66 1314.84,-187.53"/>
<polygon fill="midnightblue" stroke="midnightblue" points="1170.04,-328.91 1162.59,-336.44 1173.11,-335.2 1170.04,-328.91"/>
</g>
<!-- Node3 -->
<g id="node3" class="node">
<title>Node3</title>
<g id="a_node3"><a xlink:href="road__curve__factory_8cc.html" target="_top" xlink:title=" ">
<polygon fill="white" stroke="black" points="390.13,-56.5 390.13,-75.5 512.13,-75.5 512.13,-56.5 390.13,-56.5"/>
<text text-anchor="middle" x="451.13" y="-63.5" font-family="Helvetica,sans-Serif" font-size="10.00">road_curve_factory.cc</text>
</a>
</g>
</g>
<!-- Node2&#45;&gt;Node3 -->
<g id="edge2" class="edge">
<title>Node2&#45;&gt;Node3</title>
<path fill="none" stroke="midnightblue" d="M435.26,-102.69C439.31,-93.59 444.01,-83.01 447.24,-75.75"/>
<polygon fill="midnightblue" stroke="midnightblue" points="431.95,-101.52 431.09,-112.08 438.35,-104.37 431.95,-101.52"/>
</g>
<!-- Node4 -->
<g id="node4" class="node">
<title>Node4</title>
<g id="a_node4"><a xlink:href="road__geometry__builder_8cc.html" target="_top" xlink:title=" ">
<polygon fill="white" stroke="black" points="196.63,-0.5 196.63,-19.5 339.63,-19.5 339.63,-0.5 196.63,-0.5"/>
<text text-anchor="middle" x="268.13" y="-7.5" font-family="Helvetica,sans-Serif" font-size="10.00">road_geometry_builder.cc</text>
</a>
</g>
</g>
<!-- Node2&#45;&gt;Node4 -->
<g id="edge3" class="edge">
<title>Node2&#45;&gt;Node4</title>
<path fill="none" stroke="midnightblue" d="M408.69,-105.99C391.75,-92.42 365.76,-72.16 342.13,-56 322.26,-42.42 298.32,-28.24 283.16,-19.51"/>
<polygon fill="midnightblue" stroke="midnightblue" points="406.68,-108.87 416.66,-112.42 411.07,-103.42 406.68,-108.87"/>
</g>
<!-- Node5 -->
<g id="node5" class="node">
<title>Node5</title>
<g id="a_node5"><a xlink:href="road__geometry__builder_8h.html" target="_top" xlink:title=" ">
<polygon fill="white" stroke="black" points="758.63,-56.5 758.63,-75.5 897.63,-75.5 897.63,-56.5 758.63,-56.5"/>
<text text-anchor="middle" x="828.13" y="-63.5" font-family="Helvetica,sans-Serif" font-size="10.00">road_geometry_builder.h</text>
</a>
</g>
</g>
<!-- Node2&#45;&gt;Node5 -->
<g id="edge4" class="edge">
<title>Node2&#45;&gt;Node5</title>
<path fill="none" stroke="midnightblue" d="M496.65,-111.64C572.15,-101.47 691.73,-85.37 764.74,-75.54"/>
<polygon fill="midnightblue" stroke="midnightblue" points="495.74,-108.23 486.3,-113.03 496.67,-115.17 495.74,-108.23"/>
</g>
<!-- Node6 -->
<g id="node6" class="node">
<title>Node6</title>
<g id="a_node6"><a xlink:href="road__network__builder_8cc.html" target="_top" xlink:title=" ">
<polygon fill="white" stroke="black" points="760.13,-0.5 760.13,-19.5 896.13,-19.5 896.13,-0.5 760.13,-0.5"/>
<text text-anchor="middle" x="828.13" y="-7.5" font-family="Helvetica,sans-Serif" font-size="10.00">road_network_builder.cc</text>
</a>
</g>
</g>
<!-- Node2&#45;&gt;Node6 -->
<g id="edge7" class="edge">
<title>Node2&#45;&gt;Node6</title>
<path fill="none" stroke="midnightblue" d="M454.74,-108.02C473.52,-99.14 498.9,-87.02 521.13,-76 538.58,-67.35 541.64,-62.13 560.13,-56 626.18,-34.1 705.09,-22.5 760.11,-16.6"/>
<polygon fill="midnightblue" stroke="midnightblue" points="453.12,-104.92 445.57,-112.35 456.11,-111.25 453.12,-104.92"/>
</g>
<!-- Node5&#45;&gt;Node4 -->
<g id="edge5" class="edge">
<title>Node5&#45;&gt;Node4</title>
<path fill="none" stroke="midnightblue" d="M748,-55.8C596.84,-40.11 431.67,-25.26 339.63,-17.19"/>
<polygon fill="midnightblue" stroke="midnightblue" points="748.08,-59.32 758.39,-56.88 748.81,-52.36 748.08,-59.32"/>
</g>
<!-- Node5&#45;&gt;Node6 -->
<g id="edge6" class="edge">
<title>Node5&#45;&gt;Node6</title>
<path fill="none" stroke="midnightblue" d="M828.13,-45.8C828.13,-36.91 828.13,-26.78 828.13,-19.75"/>
<polygon fill="midnightblue" stroke="midnightblue" points="824.63,-46.08 828.13,-56.08 831.63,-46.08 824.63,-46.08"/>
</g>
<!-- Node9 -->
<g id="node9" class="node">
<title>Node9</title>
<g id="a_node9"><a xlink:href="lanes_8cc.html" target="_top" xlink:title=" ">
<polygon fill="white" stroke="black" points="1070.13,-224.5 1070.13,-243.5 1126.13,-243.5 1126.13,-224.5 1070.13,-224.5"/>
<text text-anchor="middle" x="1098.13" y="-231.5" font-family="Helvetica,sans-Serif" font-size="10.00">lanes.cc</text>
</a>
</g>
</g>
<!-- Node8&#45;&gt;Node9 -->
<g id="edge10" class="edge">
<title>Node8&#45;&gt;Node9</title>
<path fill="none" stroke="midnightblue" d="M1163.89,-274.9C1147.57,-265 1126.26,-252.07 1112.39,-243.65"/>
<polygon fill="midnightblue" stroke="midnightblue" points="1162.46,-278.13 1172.83,-280.32 1166.09,-272.14 1162.46,-278.13"/>
</g>
<!-- Node8&#45;&gt;Node10 -->
<g id="edge11" class="edge">
<title>Node8&#45;&gt;Node10</title>
<path fill="none" stroke="midnightblue" d="M1205.49,-273.82C1233.81,-250.39 1287.25,-206.19 1309.74,-187.59"/>
<polygon fill="midnightblue" stroke="midnightblue" points="1203.04,-271.3 1197.56,-280.37 1207.5,-276.69 1203.04,-271.3"/>
</g>
<!-- Node11 -->
<g id="node11" class="node">
<title>Node11</title>
<g id="a_node11"><a xlink:href="road__header_8h.html" target="_top" xlink:title=" ">
<polygon fill="white" stroke="black" points="1144.13,-224.5 1144.13,-243.5 1230.13,-243.5 1230.13,-224.5 1144.13,-224.5"/>
<text text-anchor="middle" x="1187.13" y="-231.5" font-family="Helvetica,sans-Serif" font-size="10.00">road_header.h</text>
</a>
</g>
</g>
<!-- Node8&#45;&gt;Node11 -->
<g id="edge12" class="edge">
<title>Node8&#45;&gt;Node11</title>
<path fill="none" stroke="midnightblue" d="M1187.13,-269.8C1187.13,-260.91 1187.13,-250.78 1187.13,-243.75"/>
<polygon fill="midnightblue" stroke="midnightblue" points="1183.63,-270.08 1187.13,-280.08 1190.63,-270.08 1183.63,-270.08"/>
</g>
<!-- Node11&#45;&gt;Node10 -->
<g id="edge41" class="edge">
<title>Node11&#45;&gt;Node10</title>
<path fill="none" stroke="midnightblue" d="M1217.57,-220.64C1242.53,-210.5 1277.2,-196.43 1299.15,-187.52"/>
<polygon fill="midnightblue" stroke="midnightblue" points="1216.15,-217.44 1208.2,-224.44 1218.78,-223.92 1216.15,-217.44"/>
</g>
<!-- Node12 -->
<g id="node12" class="node">
<title>Node12</title>
<g id="a_node12"><a xlink:href="builder__tools_8cc.html" target="_top" xlink:title=" ">
<polygon fill="white" stroke="black" points="915.63,-56.5 915.63,-75.5 1008.63,-75.5 1008.63,-56.5 915.63,-56.5"/>
<text text-anchor="middle" x="962.13" y="-63.5" font-family="Helvetica,sans-Serif" font-size="10.00">builder_tools.cc</text>
</a>
</g>
</g>
<!-- Node11&#45;&gt;Node12 -->
<g id="edge13" class="edge">
<title>Node11&#45;&gt;Node12</title>
<path fill="none" stroke="midnightblue" d="M1165.43,-218.14C1154.78,-210.09 1142.3,-199.46 1133.13,-188 1109.4,-158.36 1122.85,-136.82 1094.13,-112 1070.13,-91.26 1036.12,-79.97 1008.64,-73.88"/>
<polygon fill="midnightblue" stroke="midnightblue" points="1163.69,-221.2 1173.83,-224.25 1167.81,-215.54 1163.69,-221.2"/>
</g>
<!-- Node13 -->
<g id="node13" class="node">
<title>Node13</title>
<g id="a_node13"><a xlink:href="builder__tools_8h.html" target="_top" xlink:title=" ">
<polygon fill="white" stroke="black" points="1216.63,-112.5 1216.63,-131.5 1305.63,-131.5 1305.63,-112.5 1216.63,-112.5"/>
<text text-anchor="middle" x="1261.13" y="-119.5" font-family="Helvetica,sans-Serif" font-size="10.00">builder_tools.h</text>
</a>
</g>
</g>
<!-- Node11&#45;&gt;Node13 -->
<g id="edge14" class="edge">
<title>Node11&#45;&gt;Node13</title>
<path fill="none" stroke="midnightblue" d="M1210.3,-218.83C1221.37,-210.99 1233.96,-200.34 1242.13,-188 1253.94,-170.16 1258.56,-144.83 1260.24,-131.68"/>
<polygon fill="midnightblue" stroke="midnightblue" points="1208.21,-216.02 1201.86,-224.5 1212.11,-221.83 1208.21,-216.02"/>
</g>
<!-- Node18 -->
<g id="node18" class="node">
<title>Node18</title>
<g id="a_node18"><a xlink:href="determine__tolerance_8cc.html" target="_top" xlink:title=" ">
<polygon fill="white" stroke="black" points="14.63,-56.5 14.63,-75.5 145.63,-75.5 145.63,-56.5 14.63,-56.5"/>
<text text-anchor="middle" x="80.13" y="-63.5" font-family="Helvetica,sans-Serif" font-size="10.00">determine_tolerance.cc</text>
</a>
</g>
</g>
<!-- Node11&#45;&gt;Node18 -->
<g id="edge22" class="edge">
<title>Node11&#45;&gt;Node18</title>
<path fill="none" stroke="midnightblue" d="M1134.11,-223.97C951.61,-200.52 903.43,-205.36 724.13,-188 489.24,-165.26 420.99,-203.59 196.13,-132 174.9,-125.24 119.75,-91.73 93.89,-75.64"/>
<polygon fill="midnightblue" stroke="midnightblue" points="1133.67,-227.44 1144.04,-225.26 1134.57,-220.5 1133.67,-227.44"/>
</g>
<!-- Node19 -->
<g id="node19" class="node">
<title>Node19</title>
<g id="a_node19"><a xlink:href="db__manager_8h.html" target="_top" xlink:title=" ">
<polygon fill="white" stroke="black" points="733.13,-168.5 733.13,-187.5 819.13,-187.5 819.13,-168.5 733.13,-168.5"/>
<text text-anchor="middle" x="776.13" y="-175.5" font-family="Helvetica,sans-Serif" font-size="10.00">db_manager.h</text>
</a>
</g>
</g>
<!-- Node11&#45;&gt;Node19 -->
<g id="edge23" class="edge">
<title>Node11&#45;&gt;Node19</title>
<path fill="none" stroke="midnightblue" d="M1133.94,-223.88C1014.12,-206.19 884.99,-191.13 819.32,-183.75"/>
<polygon fill="midnightblue" stroke="midnightblue" points="1133.62,-227.37 1144.02,-225.38 1134.64,-220.45 1133.62,-227.37"/>
</g>
<!-- Node30 -->
<g id="node30" class="node">
<title>Node30</title>
<g id="a_node30"><a xlink:href="road__header_8cc.html" target="_top" xlink:title=" ">
<polygon fill="white" stroke="black" points="1141.63,-168.5 1141.63,-187.5 1232.63,-187.5 1232.63,-168.5 1141.63,-168.5"/>
<text text-anchor="middle" x="1187.13" y="-175.5" font-family="Helvetica,sans-Serif" font-size="10.00">road_header.cc</text>
</a>
</g>
</g>
<!-- Node11&#45;&gt;Node30 -->
<g id="edge42" class="edge">
<title>Node11&#45;&gt;Node30</title>
<path fill="none" stroke="midnightblue" d="M1187.13,-213.8C1187.13,-204.91 1187.13,-194.78 1187.13,-187.75"/>
<polygon fill="midnightblue" stroke="midnightblue" points="1183.63,-214.08 1187.13,-224.08 1190.63,-214.08 1183.63,-214.08"/>
</g>
<!-- Node13&#45;&gt;Node5 -->
<g id="edge17" class="edge">
<title>Node13&#45;&gt;Node5</title>
<path fill="none" stroke="midnightblue" d="M1206.22,-114.15C1127.43,-104.33 982.38,-86.24 896.67,-75.55"/>
<polygon fill="midnightblue" stroke="midnightblue" points="1206.06,-117.66 1216.42,-115.42 1206.93,-110.71 1206.06,-117.66"/>
</g>
<!-- Node13&#45;&gt;Node6 -->
<g id="edge18" class="edge">
<title>Node13&#45;&gt;Node6</title>
<path fill="none" stroke="midnightblue" d="M1316.09,-119.78C1430.03,-116.29 1677.79,-103.23 1633.13,-56 1607.97,-29.4 1086.11,-16.22 896.34,-12.29"/>
<polygon fill="midnightblue" stroke="midnightblue" points="1315.72,-116.29 1305.83,-120.08 1315.92,-123.29 1315.72,-116.29"/>
</g>
<!-- Node13&#45;&gt;Node12 -->
<g id="edge15" class="edge">
<title>Node13&#45;&gt;Node12</title>
<path fill="none" stroke="midnightblue" d="M1206.5,-111.14C1149.83,-100.9 1062.16,-85.07 1008.67,-75.41"/>
<polygon fill="midnightblue" stroke="midnightblue" points="1205.9,-114.58 1216.36,-112.92 1207.14,-107.69 1205.9,-114.58"/>
</g>
<!-- Node14 -->
<g id="node14" class="node">
<title>Node14</title>
<g id="a_node14"><a xlink:href="direction__usage__builder_8cc.html" target="_top" xlink:title=" ">
<polygon fill="white" stroke="black" points="1027.13,-56.5 1027.13,-75.5 1173.13,-75.5 1173.13,-56.5 1027.13,-56.5"/>
<text text-anchor="middle" x="1100.13" y="-63.5" font-family="Helvetica,sans-Serif" font-size="10.00">direction_usage_builder.cc</text>
</a>
</g>
</g>
<!-- Node13&#45;&gt;Node14 -->
<g id="edge16" class="edge">
<title>Node13&#45;&gt;Node14</title>
<path fill="none" stroke="midnightblue" d="M1225.86,-109.17C1195.55,-99 1152.56,-84.59 1125.52,-75.52"/>
<polygon fill="midnightblue" stroke="midnightblue" points="1225.02,-112.58 1235.62,-112.44 1227.25,-105.95 1225.02,-112.58"/>
</g>
<!-- Node15 -->
<g id="node15" class="node">
<title>Node15</title>
<g id="a_node15"><a xlink:href="road__rulebook__builder_8cc.html" target="_top" xlink:title=" ">
<polygon fill="white" stroke="black" points="1191.63,-56.5 1191.63,-75.5 1330.63,-75.5 1330.63,-56.5 1191.63,-56.5"/>
<text text-anchor="middle" x="1261.13" y="-63.5" font-family="Helvetica,sans-Serif" font-size="10.00">road_rulebook_builder.cc</text>
</a>
</g>
</g>
<!-- Node13&#45;&gt;Node15 -->
<g id="edge19" class="edge">
<title>Node13&#45;&gt;Node15</title>
<path fill="none" stroke="midnightblue" d="M1261.13,-101.8C1261.13,-92.91 1261.13,-82.78 1261.13,-75.75"/>
<polygon fill="midnightblue" stroke="midnightblue" points="1257.63,-102.08 1261.13,-112.08 1264.63,-102.08 1257.63,-102.08"/>
</g>
<!-- Node16 -->
<g id="node16" class="node">
<title>Node16</title>
<g id="a_node16"><a xlink:href="rule__registry__builder_8cc.html" target="_top" xlink:title=" ">
<polygon fill="white" stroke="black" points="1348.63,-56.5 1348.63,-75.5 1479.63,-75.5 1479.63,-56.5 1348.63,-56.5"/>
<text text-anchor="middle" x="1414.13" y="-63.5" font-family="Helvetica,sans-Serif" font-size="10.00">rule_registry_builder.cc</text>
</a>
</g>
</g>
<!-- Node13&#45;&gt;Node16 -->
<g id="edge20" class="edge">
<title>Node13&#45;&gt;Node16</title>
<path fill="none" stroke="midnightblue" d="M1295.02,-109.04C1323.8,-98.88 1364.41,-84.55 1390,-75.52"/>
<polygon fill="midnightblue" stroke="midnightblue" points="1293.63,-105.81 1285.37,-112.44 1295.96,-112.42 1293.63,-105.81"/>
</g>
<!-- Node17 -->
<g id="node17" class="node">
<title>Node17</title>
<g id="a_node17"><a xlink:href="speed__limit__builder_8cc.html" target="_top" xlink:title=" ">
<polygon fill="white" stroke="black" points="1498.13,-56.5 1498.13,-75.5 1624.13,-75.5 1624.13,-56.5 1498.13,-56.5"/>
<text text-anchor="middle" x="1561.13" y="-63.5" font-family="Helvetica,sans-Serif" font-size="10.00">speed_limit_builder.cc</text>
</a>
</g>
</g>
<!-- Node13&#45;&gt;Node17 -->
<g id="edge21" class="edge">
<title>Node13&#45;&gt;Node17</title>
<path fill="none" stroke="midnightblue" d="M1315.57,-111.2C1372.2,-101.01 1459.98,-85.21 1513.81,-75.52"/>
<polygon fill="midnightblue" stroke="midnightblue" points="1314.94,-107.76 1305.72,-112.97 1316.18,-114.65 1314.94,-107.76"/>
</g>
<!-- Node19&#45;&gt;Node5 -->
<g id="edge35" class="edge">
<title>Node19&#45;&gt;Node5</title>
<path fill="none" stroke="midnightblue" d="M767.73,-158.86C762.73,-145.28 758.68,-126.61 766.13,-112 774.83,-94.94 793.36,-82.83 807.9,-75.51"/>
<polygon fill="midnightblue" stroke="midnightblue" points="764.66,-160.6 771.74,-168.49 771.12,-157.91 764.66,-160.6"/>
</g>
<!-- Node19&#45;&gt;Node12 -->
<g id="edge31" class="edge">
<title>Node19&#45;&gt;Node12</title>
<path fill="none" stroke="midnightblue" d="M829.23,-170.24C875.51,-163.21 937.72,-150.6 954.13,-132 967.97,-116.31 966.04,-89.6 963.87,-75.81"/>
<polygon fill="midnightblue" stroke="midnightblue" points="828.71,-166.78 819.33,-171.7 829.73,-173.71 828.71,-166.78"/>
</g>
<!-- Node20 -->
<g id="node20" class="node">
<title>Node20</title>
<g id="a_node20"><a xlink:href="xodr__query_8cc.html" target="_top" xlink:title=" ">
<polygon fill="white" stroke="black" points="1001.63,-112.5 1001.63,-131.5 1084.63,-131.5 1084.63,-112.5 1001.63,-112.5"/>
<text text-anchor="middle" x="1043.13" y="-119.5" font-family="Helvetica,sans-Serif" font-size="10.00">xodr_query.cc</text>
</a>
</g>
</g>
<!-- Node19&#45;&gt;Node20 -->
<g id="edge24" class="edge">
<title>Node19&#45;&gt;Node20</title>
<path fill="none" stroke="midnightblue" d="M828.52,-166.4C879.14,-156.17 954.81,-140.86 1001.46,-131.43"/>
<polygon fill="midnightblue" stroke="midnightblue" points="827.54,-163.03 818.43,-168.44 828.93,-169.89 827.54,-163.03"/>
</g>
<!-- Node21 -->
<g id="node21" class="node">
<title>Node21</title>
<g id="a_node21"><a xlink:href="xodr__validate_8cc.html" target="_top" xlink:title=" ">
<polygon fill="white" stroke="black" points="504.63,-112.5 504.63,-131.5 601.63,-131.5 601.63,-112.5 504.63,-112.5"/>
<text text-anchor="middle" x="553.13" y="-119.5" font-family="Helvetica,sans-Serif" font-size="10.00">xodr_validate.cc</text>
</a>
</g>
</g>
<!-- Node19&#45;&gt;Node21 -->
<g id="edge25" class="edge">
<title>Node19&#45;&gt;Node21</title>
<path fill="none" stroke="midnightblue" d="M731.07,-166.09C688.94,-155.89 626.89,-140.86 588.3,-131.52"/>
<polygon fill="midnightblue" stroke="midnightblue" points="730.25,-169.49 740.79,-168.44 731.9,-162.69 730.25,-169.49"/>
</g>
<!-- Node22 -->
<g id="node22" class="node">
<title>Node22</title>
<g id="a_node22"><a xlink:href="road__geometry_8h.html" target="_top" xlink:title=" ">
<polygon fill="white" stroke="black" points="620.13,-112.5 620.13,-131.5 718.13,-131.5 718.13,-112.5 620.13,-112.5"/>
<text text-anchor="middle" x="669.13" y="-119.5" font-family="Helvetica,sans-Serif" font-size="10.00">road_geometry.h</text>
</a>
</g>
</g>
<!-- Node19&#45;&gt;Node22 -->
<g id="edge26" class="edge">
<title>Node19&#45;&gt;Node22</title>
<path fill="none" stroke="midnightblue" d="M749.82,-163.73C730.01,-153.73 703.42,-140.31 686.27,-131.65"/>
<polygon fill="midnightblue" stroke="midnightblue" points="748.43,-166.94 758.93,-168.32 751.58,-160.69 748.43,-166.94"/>
</g>
<!-- Node25 -->
<g id="node25" class="node">
<title>Node25</title>
<g id="a_node25"><a xlink:href="determine__tolerance_8h.html" target="_top" xlink:title=" ">
<polygon fill="white" stroke="black" points="16.63,-112.5 16.63,-131.5 143.63,-131.5 143.63,-112.5 16.63,-112.5"/>
<text text-anchor="middle" x="80.13" y="-119.5" font-family="Helvetica,sans-Serif" font-size="10.00">determine_tolerance.h</text>
</a>
</g>
</g>
<!-- Node19&#45;&gt;Node25 -->
<g id="edge32" class="edge">
<title>Node19&#45;&gt;Node25</title>
<path fill="none" stroke="midnightblue" d="M722.93,-172.87C596.74,-163.08 279.7,-138.48 143.7,-127.93"/>
<polygon fill="midnightblue" stroke="midnightblue" points="722.87,-176.38 733.11,-173.66 723.41,-169.4 722.87,-176.38"/>
</g>
<!-- Node26 -->
<g id="node26" class="node">
<title>Node26</title>
<g id="a_node26"><a xlink:href="simplify__geometries_8h.html" target="_top" xlink:title=" ">
<polygon fill="white" stroke="black" points="205.13,-112.5 205.13,-131.5 331.13,-131.5 331.13,-112.5 205.13,-112.5"/>
<text text-anchor="middle" x="268.13" y="-119.5" font-family="Helvetica,sans-Serif" font-size="10.00">simplify_geometries.h</text>
</a>
</g>
</g>
<!-- Node19&#45;&gt;Node26 -->
<g id="edge36" class="edge">
<title>Node19&#45;&gt;Node26</title>
<path fill="none" stroke="midnightblue" d="M722.63,-171.31C628.13,-161.27 432.15,-140.44 331.23,-129.71"/>
<polygon fill="midnightblue" stroke="midnightblue" points="722.5,-174.82 732.81,-172.4 723.24,-167.86 722.5,-174.82"/>
</g>
<!-- Node28 -->
<g id="node28" class="node">
<title>Node28</title>
<g id="a_node28"><a xlink:href="loader_8cc.html" target="_top" xlink:title=" ">
<polygon fill="white" stroke="black" points="774.63,-112.5 774.63,-131.5 835.63,-131.5 835.63,-112.5 774.63,-112.5"/>
<text text-anchor="middle" x="805.13" y="-119.5" font-family="Helvetica,sans-Serif" font-size="10.00">loader.cc</text>
</a>
</g>
</g>
<!-- Node19&#45;&gt;Node28 -->
<g id="edge39" class="edge">
<title>Node19&#45;&gt;Node28</title>
<path fill="none" stroke="midnightblue" d="M785.8,-158.98C790.72,-149.82 796.48,-139.09 800.43,-131.75"/>
<polygon fill="midnightblue" stroke="midnightblue" points="782.56,-157.62 780.91,-168.08 788.73,-160.93 782.56,-157.62"/>
</g>
<!-- Node29 -->
<g id="node29" class="node">
<title>Node29</title>
<g id="a_node29"><a xlink:href="db__manager_8cc.html" target="_top" xlink:title=" ">
<polygon fill="white" stroke="black" points="853.63,-112.5 853.63,-131.5 944.63,-131.5 944.63,-112.5 853.63,-112.5"/>
<text text-anchor="middle" x="899.13" y="-119.5" font-family="Helvetica,sans-Serif" font-size="10.00">db_manager.cc</text>
</a>
</g>
</g>
<!-- Node19&#45;&gt;Node29 -->
<g id="edge40" class="edge">
<title>Node19&#45;&gt;Node29</title>
<path fill="none" stroke="midnightblue" d="M804.9,-164.37C827.93,-154.26 859.61,-140.35 879.73,-131.52"/>
<polygon fill="midnightblue" stroke="midnightblue" points="803.37,-161.22 795.62,-168.44 806.18,-167.63 803.37,-161.22"/>
</g>
<!-- Node22&#45;&gt;Node5 -->
<g id="edge30" class="edge">
<title>Node22&#45;&gt;Node5</title>
<path fill="none" stroke="midnightblue" d="M703.95,-109.17C733.89,-99 776.35,-84.59 803.05,-75.52"/>
<polygon fill="midnightblue" stroke="midnightblue" points="702.66,-105.91 694.32,-112.44 704.91,-112.54 702.66,-105.91"/>
</g>
<!-- Node22&#45;&gt;Node12 -->
<g id="edge29" class="edge">
<title>Node22&#45;&gt;Node12</title>
<path fill="none" stroke="midnightblue" d="M725.55,-110.6C780.93,-100.4 864.36,-85.02 915.92,-75.52"/>
<polygon fill="midnightblue" stroke="midnightblue" points="724.75,-107.19 715.55,-112.44 726.02,-114.07 724.75,-107.19"/>
</g>
<!-- Node23 -->
<g id="node23" class="node">
<title>Node23</title>
<g id="a_node23"><a xlink:href="base_2lane_8cc.html" target="_top" xlink:title=" ">
<polygon fill="white" stroke="black" points="689.63,-56.5 689.63,-75.5 740.63,-75.5 740.63,-56.5 689.63,-56.5"/>
<text text-anchor="middle" x="715.13" y="-63.5" font-family="Helvetica,sans-Serif" font-size="10.00">lane.cc</text>
</a>
</g>
</g>
<!-- Node22&#45;&gt;Node23 -->
<g id="edge27" class="edge">
<title>Node22&#45;&gt;Node23</title>
<path fill="none" stroke="midnightblue" d="M683.24,-104.43C691.3,-94.97 701.09,-83.48 707.67,-75.75"/>
<polygon fill="midnightblue" stroke="midnightblue" points="680.54,-102.2 676.72,-112.08 685.87,-106.74 680.54,-102.2"/>
</g>
<!-- Node24 -->
<g id="node24" class="node">
<title>Node24</title>
<g id="a_node24"><a xlink:href="road__geometry_8cc.html" target="_top" xlink:title=" ">
<polygon fill="white" stroke="black" points="568.63,-56.5 568.63,-75.5 671.63,-75.5 671.63,-56.5 568.63,-56.5"/>
<text text-anchor="middle" x="620.13" y="-63.5" font-family="Helvetica,sans-Serif" font-size="10.00">road_geometry.cc</text>
</a>
</g>
</g>
<!-- Node22&#45;&gt;Node24 -->
<g id="edge28" class="edge">
<title>Node22&#45;&gt;Node24</title>
<path fill="none" stroke="midnightblue" d="M654.09,-104.43C645.5,-94.97 635.08,-83.48 628.07,-75.75"/>
<polygon fill="midnightblue" stroke="midnightblue" points="651.72,-107.03 661.03,-112.08 656.91,-102.33 651.72,-107.03"/>
</g>
<!-- Node25&#45;&gt;Node4 -->
<g id="edge34" class="edge">
<title>Node25&#45;&gt;Node4</title>
<path fill="none" stroke="midnightblue" d="M46.62,-108.32C19.3,-96.1 -12.16,-76.5 5.13,-56 29.21,-27.45 127.3,-17.01 196.61,-13.2"/>
<polygon fill="midnightblue" stroke="midnightblue" points="45.45,-111.62 56.02,-112.32 48.19,-105.18 45.45,-111.62"/>
</g>
<!-- Node25&#45;&gt;Node18 -->
<g id="edge33" class="edge">
<title>Node25&#45;&gt;Node18</title>
<path fill="none" stroke="midnightblue" d="M80.13,-101.8C80.13,-92.91 80.13,-82.78 80.13,-75.75"/>
<polygon fill="midnightblue" stroke="midnightblue" points="76.63,-102.08 80.13,-112.08 83.63,-102.08 76.63,-102.08"/>
</g>
<!-- Node26&#45;&gt;Node4 -->
<g id="edge37" class="edge">
<title>Node26&#45;&gt;Node4</title>
<path fill="none" stroke="midnightblue" d="M231.41,-108.27C216.79,-101.18 201.47,-90.74 193.13,-76 178.78,-50.66 216.06,-30.45 243.06,-19.64"/>
<polygon fill="midnightblue" stroke="midnightblue" points="230.28,-111.6 240.84,-112.45 233.12,-105.2 230.28,-111.6"/>
</g>
<!-- Node27 -->
<g id="node27" class="node">
<title>Node27</title>
<g id="a_node27"><a xlink:href="simplify__geometries_8cc.html" target="_top" xlink:title=" ">
<polygon fill="white" stroke="black" points="202.63,-56.5 202.63,-75.5 333.63,-75.5 333.63,-56.5 202.63,-56.5"/>
<text text-anchor="middle" x="268.13" y="-63.5" font-family="Helvetica,sans-Serif" font-size="10.00">simplify_geometries.cc</text>
</a>
</g>
</g>
<!-- Node26&#45;&gt;Node27 -->
<g id="edge38" class="edge">
<title>Node26&#45;&gt;Node27</title>
<path fill="none" stroke="midnightblue" d="M268.13,-101.8C268.13,-92.91 268.13,-82.78 268.13,-75.75"/>
<polygon fill="midnightblue" stroke="midnightblue" points="264.63,-102.08 268.13,-112.08 271.63,-102.08 264.63,-102.08"/>
</g>
</g>
</svg>
