<?xml version="1.0" encoding="UTF-8" standalone="no"?>
<!DOCTYPE svg PUBLIC "-//W3C//DTD SVG 1.1//EN"
 "http://www.w3.org/Graphics/SVG/1.1/DTD/svg11.dtd">
<!-- Generated by graphviz version 2.43.0 (0)
 -->
<!-- Title: manual_object_book.cc Pages: 1 -->
<svg width="703pt" height="363pt"
 viewBox="0.00 0.00 702.72 363.00" xmlns="http://www.w3.org/2000/svg" xmlns:xlink="http://www.w3.org/1999/xlink">
<g id="graph0" class="graph" transform="scale(1 1) rotate(0) translate(4 359)">
<title>manual_object_book.cc</title>
<polygon fill="white" stroke="transparent" points="-4,4 -4,-359 698.72,-359 698.72,4 -4,4"/>
<!-- Node1 -->
<g id="node1" class="node">
<title>Node1</title>
<g id="a_node1"><a xlink:title=" ">
<polygon fill="#bfbfbf" stroke="black" points="251.72,-335.5 251.72,-354.5 382.72,-354.5 382.72,-335.5 251.72,-335.5"/>
<text text-anchor="middle" x="317.22" y="-342.5" font-family="Helvetica,sans-Serif" font-size="10.00">manual_object_book.cc</text>
</a>
</g>
</g>
<!-- Node2 -->
<g id="node2" class="node">
<title>Node2</title>
<g id="a_node2"><a xlink:href="manual__object__book_8h.html" target="_top" xlink:title=" ">
<polygon fill="white" stroke="black" points="179.22,-268.5 179.22,-298.5 309.22,-298.5 309.22,-268.5 179.22,-268.5"/>
<text text-anchor="start" x="187.22" y="-286.5" font-family="Helvetica,sans-Serif" font-size="10.00">maliput_object/base</text>
<text text-anchor="middle" x="244.22" y="-275.5" font-family="Helvetica,sans-Serif" font-size="10.00">/manual_object_book.h</text>
</a>
</g>
</g>
<!-- Node1&#45;&gt;Node2 -->
<g id="edge1" class="edge">
<title>Node1&#45;&gt;Node2</title>
<path fill="none" stroke="midnightblue" d="M306.76,-335.48C297.06,-327.57 282.23,-315.48 269.45,-305.07"/>
<polygon fill="midnightblue" stroke="midnightblue" points="271.39,-302.13 261.42,-298.52 266.96,-307.55 271.39,-302.13"/>
</g>
<!-- Node15 -->
<g id="node15" class="node">
<title>Node15</title>
<g id="a_node15"><a xlink:title=" ">
<polygon fill="white" stroke="#bfbfbf" points="327.72,-274 327.72,-293 452.72,-293 452.72,-274 327.72,-274"/>
<text text-anchor="middle" x="390.22" y="-281" font-family="Helvetica,sans-Serif" font-size="10.00">maliput/math/vector.h</text>
</a>
</g>
</g>
<!-- Node1&#45;&gt;Node15 -->
<g id="edge28" class="edge">
<title>Node1&#45;&gt;Node15</title>
<path fill="none" stroke="midnightblue" d="M327.68,-335.48C339.17,-326.11 357.85,-310.88 371.8,-299.51"/>
<polygon fill="midnightblue" stroke="midnightblue" points="374.24,-302.04 379.78,-293.01 369.82,-296.61 374.24,-302.04"/>
</g>
<!-- Node3 -->
<g id="node3" class="node">
<title>Node3</title>
<g id="a_node3"><a xlink:title=" ">
<polygon fill="white" stroke="#bfbfbf" points="74.72,-140 74.72,-159 139.72,-159 139.72,-140 74.72,-140"/>
<text text-anchor="middle" x="107.22" y="-147" font-family="Helvetica,sans-Serif" font-size="10.00">functional</text>
</a>
</g>
</g>
<!-- Node2&#45;&gt;Node3 -->
<g id="edge2" class="edge">
<title>Node2&#45;&gt;Node3</title>
<path fill="none" stroke="midnightblue" d="M225.1,-268.44C212.27,-258.69 195.21,-245.16 181.22,-232 158.93,-211.04 135.58,-184.42 121.21,-167.42"/>
<polygon fill="midnightblue" stroke="midnightblue" points="123.67,-164.91 114.57,-159.49 118.3,-169.4 123.67,-164.91"/>
</g>
<!-- Node4 -->
<g id="node4" class="node">
<title>Node4</title>
<g id="a_node4"><a xlink:title=" ">
<polygon fill="white" stroke="#bfbfbf" points="36.22,-73 36.22,-92 94.22,-92 94.22,-73 36.22,-73"/>
<text text-anchor="middle" x="65.22" y="-80" font-family="Helvetica,sans-Serif" font-size="10.00">memory</text>
</a>
</g>
</g>
<!-- Node2&#45;&gt;Node4 -->
<g id="edge3" class="edge">
<title>Node2&#45;&gt;Node4</title>
<path fill="none" stroke="midnightblue" d="M178.87,-274.04C148.01,-267.14 112.49,-254.64 87.22,-232 53.29,-201.61 53.64,-179.41 57.22,-134 58.06,-123.31 59.89,-111.47 61.58,-101.95"/>
<polygon fill="midnightblue" stroke="midnightblue" points="65.04,-102.5 63.45,-92.03 58.16,-101.21 65.04,-102.5"/>
</g>
<!-- Node5 -->
<g id="node5" class="node">
<title>Node5</title>
<g id="a_node5"><a xlink:title=" ">
<polygon fill="white" stroke="#bfbfbf" points="112.22,-73 112.22,-92 168.22,-92 168.22,-73 112.22,-73"/>
<text text-anchor="middle" x="140.22" y="-80" font-family="Helvetica,sans-Serif" font-size="10.00">optional</text>
</a>
</g>
</g>
<!-- Node2&#45;&gt;Node5 -->
<g id="edge4" class="edge">
<title>Node2&#45;&gt;Node5</title>
<path fill="none" stroke="midnightblue" d="M199.63,-268.43C155.57,-251.75 91.11,-219.17 65.22,-165 59.28,-152.57 58.74,-146.16 65.22,-134 74.28,-116.97 91.92,-104.66 107.82,-96.45"/>
<polygon fill="midnightblue" stroke="midnightblue" points="109.4,-99.57 116.9,-92.09 106.37,-93.26 109.4,-99.57"/>
</g>
<!-- Node6 -->
<g id="node6" class="node">
<title>Node6</title>
<g id="a_node6"><a xlink:title=" ">
<polygon fill="white" stroke="#bfbfbf" points="474.72,-140 474.72,-159 567.72,-159 567.72,-140 474.72,-140"/>
<text text-anchor="middle" x="521.22" y="-147" font-family="Helvetica,sans-Serif" font-size="10.00">unordered_map</text>
</a>
</g>
</g>
<!-- Node2&#45;&gt;Node6 -->
<g id="edge5" class="edge">
<title>Node2&#45;&gt;Node6</title>
<path fill="none" stroke="midnightblue" d="M273.6,-268.5C327.49,-242.82 441.41,-188.53 493.8,-163.56"/>
<polygon fill="midnightblue" stroke="midnightblue" points="495.61,-166.58 503.13,-159.12 492.6,-160.26 495.61,-166.58"/>
</g>
<!-- Node7 -->
<g id="node7" class="node">
<title>Node7</title>
<g id="a_node7"><a xlink:title=" ">
<polygon fill="white" stroke="#bfbfbf" points="32.22,-0.5 32.22,-30.5 172.22,-30.5 172.22,-0.5 32.22,-0.5"/>
<text text-anchor="start" x="40.22" y="-18.5" font-family="Helvetica,sans-Serif" font-size="10.00">maliput/common/maliput</text>
<text text-anchor="middle" x="102.22" y="-7.5" font-family="Helvetica,sans-Serif" font-size="10.00">_copyable.h</text>
</a>
</g>
</g>
<!-- Node2&#45;&gt;Node7 -->
<g id="edge6" class="edge">
<title>Node2&#45;&gt;Node7</title>
<path fill="none" stroke="midnightblue" d="M179.15,-280.08C139.69,-275.26 91,-262.83 59.22,-232 4.98,-179.39 -18.98,-132.77 18.22,-67 25.98,-53.27 39.14,-42.86 52.76,-35.17"/>
<polygon fill="midnightblue" stroke="midnightblue" points="54.48,-38.22 61.73,-30.5 51.24,-32.02 54.48,-38.22"/>
</g>
<!-- Node8 -->
<g id="node8" class="node">
<title>Node8</title>
<g id="a_node8"><a xlink:href="bounding__region_8h.html" target="_top" xlink:title=" ">
<polygon fill="white" stroke="black" points="500.22,-67.5 500.22,-97.5 610.22,-97.5 610.22,-67.5 500.22,-67.5"/>
<text text-anchor="start" x="508.22" y="-85.5" font-family="Helvetica,sans-Serif" font-size="10.00">maliput_object/api</text>
<text text-anchor="middle" x="555.22" y="-74.5" font-family="Helvetica,sans-Serif" font-size="10.00">/bounding_region.h</text>
</a>
</g>
</g>
<!-- Node2&#45;&gt;Node8 -->
<g id="edge7" class="edge">
<title>Node2&#45;&gt;Node8</title>
<path fill="none" stroke="midnightblue" d="M309.45,-268.9C397.25,-249.11 546.08,-209.81 577.22,-165 589.28,-147.63 580.76,-123.96 571.02,-106.6"/>
<polygon fill="midnightblue" stroke="midnightblue" points="573.79,-104.41 565.61,-97.68 567.81,-108.05 573.79,-104.41"/>
</g>
<!-- Node9 -->
<g id="node9" class="node">
<title>Node9</title>
<g id="a_node9"><a xlink:href="overlapping__type_8h.html" target="_top" xlink:title=" ">
<polygon fill="white" stroke="black" points="581.72,-0.5 581.72,-30.5 694.72,-30.5 694.72,-0.5 581.72,-0.5"/>
<text text-anchor="start" x="589.72" y="-18.5" font-family="Helvetica,sans-Serif" font-size="10.00">maliput_object/api</text>
<text text-anchor="middle" x="638.22" y="-7.5" font-family="Helvetica,sans-Serif" font-size="10.00">/overlapping_type.h</text>
</a>
</g>
</g>
<!-- Node2&#45;&gt;Node9 -->
<g id="edge27" class="edge">
<title>Node2&#45;&gt;Node9</title>
<path fill="none" stroke="midnightblue" d="M309.59,-269.69C312.5,-269.12 315.39,-268.55 318.22,-268 400.43,-251.95 426.6,-265.85 503.22,-232 581.41,-197.45 615.07,-179.39 641.22,-98 647.19,-79.42 645.86,-57.23 643.36,-40.69"/>
<polygon fill="midnightblue" stroke="midnightblue" points="646.79,-39.99 641.62,-30.74 639.9,-41.2 646.79,-39.99"/>
</g>
<!-- Node10 -->
<g id="node10" class="node">
<title>Node10</title>
<g id="a_node10"><a xlink:href="object_8h.html" target="_top" xlink:title=" ">
<polygon fill="white" stroke="black" points="272.72,-134.5 272.72,-164.5 379.72,-164.5 379.72,-134.5 272.72,-134.5"/>
<text text-anchor="start" x="280.72" y="-152.5" font-family="Helvetica,sans-Serif" font-size="10.00">maliput_object/api</text>
<text text-anchor="middle" x="326.22" y="-141.5" font-family="Helvetica,sans-Serif" font-size="10.00">/object.h</text>
</a>
</g>
</g>
<!-- Node2&#45;&gt;Node10 -->
<g id="edge10" class="edge">
<title>Node2&#45;&gt;Node10</title>
<path fill="none" stroke="midnightblue" d="M268.4,-268.3C281.46,-259.45 296.79,-246.9 306.22,-232 317.14,-214.73 322.1,-191.91 324.35,-174.82"/>
<polygon fill="midnightblue" stroke="midnightblue" points="327.87,-174.85 325.47,-164.52 320.91,-174.09 327.87,-174.85"/>
</g>
<!-- Node14 -->
<g id="node14" class="node">
<title>Node14</title>
<g id="a_node14"><a xlink:href="object__book_8h.html" target="_top" xlink:title=" ">
<polygon fill="white" stroke="black" points="190.72,-201.5 190.72,-231.5 297.72,-231.5 297.72,-201.5 190.72,-201.5"/>
<text text-anchor="start" x="198.72" y="-219.5" font-family="Helvetica,sans-Serif" font-size="10.00">maliput_object/api</text>
<text text-anchor="middle" x="244.22" y="-208.5" font-family="Helvetica,sans-Serif" font-size="10.00">/object_book.h</text>
</a>
</g>
</g>
<!-- Node2&#45;&gt;Node14 -->
<g id="edge18" class="edge">
<title>Node2&#45;&gt;Node14</title>
<path fill="none" stroke="midnightblue" d="M244.22,-268.4C244.22,-260.64 244.22,-250.81 244.22,-241.86"/>
<polygon fill="midnightblue" stroke="midnightblue" points="247.72,-241.58 244.22,-231.58 240.72,-241.58 247.72,-241.58"/>
</g>
<!-- Node8&#45;&gt;Node7 -->
<g id="edge8" class="edge">
<title>Node8&#45;&gt;Node7</title>
<path fill="none" stroke="midnightblue" d="M500.13,-68.67C497.12,-68.08 494.13,-67.52 491.22,-67 385.18,-48.15 261.7,-33.32 182.79,-24.73"/>
<polygon fill="midnightblue" stroke="midnightblue" points="182.76,-21.21 172.44,-23.61 182.01,-28.17 182.76,-21.21"/>
</g>
<!-- Node8&#45;&gt;Node9 -->
<g id="edge9" class="edge">
<title>Node8&#45;&gt;Node9</title>
<path fill="none" stroke="midnightblue" d="M573.23,-67.4C584.65,-58.45 599.61,-46.74 612.29,-36.8"/>
<polygon fill="midnightblue" stroke="midnightblue" points="614.53,-39.5 620.24,-30.58 610.21,-33.99 614.53,-39.5"/>
</g>
<!-- Node10&#45;&gt;Node4 -->
<g id="edge12" class="edge">
<title>Node10&#45;&gt;Node4</title>
<path fill="none" stroke="midnightblue" d="M272.5,-138.56C226.98,-129.61 160.21,-115.23 103.22,-98 100.65,-97.22 98,-96.36 95.35,-95.44"/>
<polygon fill="midnightblue" stroke="midnightblue" points="96.53,-92.15 85.94,-92.02 94.14,-98.73 96.53,-92.15"/>
</g>
<!-- Node10&#45;&gt;Node5 -->
<g id="edge13" class="edge">
<title>Node10&#45;&gt;Node5</title>
<path fill="none" stroke="midnightblue" d="M285.86,-134.4C252.5,-122.74 205.67,-106.37 174.2,-95.38"/>
<polygon fill="midnightblue" stroke="midnightblue" points="175.16,-92 164.56,-92.01 172.85,-98.61 175.16,-92"/>
</g>
<!-- Node10&#45;&gt;Node7 -->
<g id="edge16" class="edge">
<title>Node10&#45;&gt;Node7</title>
<path fill="none" stroke="midnightblue" d="M289.27,-134.5C267.08,-125.41 238.69,-112.57 215.22,-98 196.7,-86.5 194.72,-79.99 177.22,-67 162.95,-56.41 146.63,-45.31 132.87,-36.22"/>
<polygon fill="midnightblue" stroke="midnightblue" points="134.53,-33.12 124.24,-30.57 130.69,-38.98 134.53,-33.12"/>
</g>
<!-- Node10&#45;&gt;Node8 -->
<g id="edge17" class="edge">
<title>Node10&#45;&gt;Node8</title>
<path fill="none" stroke="midnightblue" d="M375.63,-134.48C410.87,-124.47 458.43,-110.97 495.76,-100.38"/>
<polygon fill="midnightblue" stroke="midnightblue" points="496.84,-103.71 505.5,-97.61 494.93,-96.97 496.84,-103.71"/>
</g>
<!-- Node11 -->
<g id="node11" class="node">
<title>Node11</title>
<g id="a_node11"><a xlink:title=" ">
<polygon fill="white" stroke="#bfbfbf" points="382.22,-73 382.22,-92 420.22,-92 420.22,-73 382.22,-73"/>
<text text-anchor="middle" x="401.22" y="-80" font-family="Helvetica,sans-Serif" font-size="10.00">map</text>
</a>
</g>
</g>
<!-- Node10&#45;&gt;Node11 -->
<g id="edge11" class="edge">
<title>Node10&#45;&gt;Node11</title>
<path fill="none" stroke="midnightblue" d="M342.49,-134.4C354.53,-123.96 370.93,-109.75 383.34,-99"/>
<polygon fill="midnightblue" stroke="midnightblue" points="385.92,-101.39 391.19,-92.19 381.34,-96.1 385.92,-101.39"/>
</g>
<!-- Node12 -->
<g id="node12" class="node">
<title>Node12</title>
<g id="a_node12"><a xlink:title=" ">
<polygon fill="white" stroke="#bfbfbf" points="438.22,-73 438.22,-92 482.22,-92 482.22,-73 438.22,-73"/>
<text text-anchor="middle" x="460.22" y="-80" font-family="Helvetica,sans-Serif" font-size="10.00">string</text>
</a>
</g>
</g>
<!-- Node10&#45;&gt;Node12 -->
<g id="edge14" class="edge">
<title>Node10&#45;&gt;Node12</title>
<path fill="none" stroke="midnightblue" d="M355.29,-134.4C378.6,-123.09 411.03,-107.36 433.64,-96.39"/>
<polygon fill="midnightblue" stroke="midnightblue" points="435.21,-99.52 442.68,-92.01 432.16,-93.22 435.21,-99.52"/>
</g>
<!-- Node13 -->
<g id="node13" class="node">
<title>Node13</title>
<g id="a_node13"><a xlink:title=" ">
<polygon fill="white" stroke="#bfbfbf" points="224.22,-67.5 224.22,-97.5 364.22,-97.5 364.22,-67.5 224.22,-67.5"/>
<text text-anchor="start" x="232.22" y="-85.5" font-family="Helvetica,sans-Serif" font-size="10.00">maliput/api/type_specific</text>
<text text-anchor="middle" x="294.22" y="-74.5" font-family="Helvetica,sans-Serif" font-size="10.00">_identifier.h</text>
</a>
</g>
</g>
<!-- Node10&#45;&gt;Node13 -->
<g id="edge15" class="edge">
<title>Node10&#45;&gt;Node13</title>
<path fill="none" stroke="midnightblue" d="M319.27,-134.4C315.29,-126.3 310.19,-115.94 305.63,-106.69"/>
<polygon fill="midnightblue" stroke="midnightblue" points="308.7,-105 301.15,-97.58 302.42,-108.09 308.7,-105"/>
</g>
<!-- Node14&#45;&gt;Node3 -->
<g id="edge19" class="edge">
<title>Node14&#45;&gt;Node3</title>
<path fill="none" stroke="midnightblue" d="M214.49,-201.4C190.67,-190.09 157.51,-174.36 134.39,-163.39"/>
<polygon fill="midnightblue" stroke="midnightblue" points="135.68,-160.13 125.15,-159.01 132.68,-166.46 135.68,-160.13"/>
</g>
<!-- Node14&#45;&gt;Node4 -->
<g id="edge20" class="edge">
<title>Node14&#45;&gt;Node4</title>
<path fill="none" stroke="midnightblue" d="M236.53,-201.33C226.24,-183.51 206.44,-152.95 182.22,-134 175.01,-128.36 128.28,-108.93 96.11,-95.88"/>
<polygon fill="midnightblue" stroke="midnightblue" points="97.23,-92.56 86.65,-92.06 94.61,-99.05 97.23,-92.56"/>
</g>
<!-- Node14&#45;&gt;Node5 -->
<g id="edge21" class="edge">
<title>Node14&#45;&gt;Node5</title>
<path fill="none" stroke="midnightblue" d="M243.1,-201.47C241.09,-184.07 235.51,-154.24 220.22,-134 207.72,-117.46 188.1,-104.95 171.41,-96.52"/>
<polygon fill="midnightblue" stroke="midnightblue" points="172.54,-93.18 162.01,-92.03 169.52,-99.5 172.54,-93.18"/>
</g>
<!-- Node14&#45;&gt;Node6 -->
<g id="edge22" class="edge">
<title>Node14&#45;&gt;Node6</title>
<path fill="none" stroke="midnightblue" d="M297.93,-203C341.65,-192.81 404.93,-178.03 460.22,-165 465.19,-163.83 470.39,-162.6 475.56,-161.37"/>
<polygon fill="midnightblue" stroke="midnightblue" points="476.5,-164.75 485.42,-159.03 474.88,-157.94 476.5,-164.75"/>
</g>
<!-- Node14&#45;&gt;Node7 -->
<g id="edge23" class="edge">
<title>Node14&#45;&gt;Node7</title>
<path fill="none" stroke="midnightblue" d="M226.36,-201.39C213.86,-191.4 196.83,-177.6 182.22,-165 166.73,-151.65 166.02,-144.06 148.22,-134 99.37,-106.4 60.76,-142.98 27.22,-98 18.98,-86.96 20.74,-79.16 27.22,-67 34.16,-53.95 46.14,-43.67 58.51,-35.89"/>
<polygon fill="midnightblue" stroke="midnightblue" points="60.64,-38.7 67.53,-30.66 57.12,-32.65 60.64,-38.7"/>
</g>
<!-- Node14&#45;&gt;Node8 -->
<g id="edge24" class="edge">
<title>Node14&#45;&gt;Node8</title>
<path fill="none" stroke="midnightblue" d="M294.95,-201.48C323.19,-192.75 358.54,-180.28 388.22,-165 409.49,-154.05 411.24,-145.5 432.22,-134 455.33,-121.32 482.29,-109.91 505.08,-101.15"/>
<polygon fill="midnightblue" stroke="midnightblue" points="506.45,-104.38 514.56,-97.57 503.97,-97.83 506.45,-104.38"/>
</g>
<!-- Node14&#45;&gt;Node9 -->
<g id="edge26" class="edge">
<title>Node14&#45;&gt;Node9</title>
<path fill="none" stroke="midnightblue" d="M298.04,-205.74C334.82,-197.81 383.98,-184.67 424.22,-165 445.06,-154.81 445.16,-143.74 466.22,-134 529.61,-104.66 569.87,-147.45 619.22,-98 634.08,-83.11 638.21,-59 638.99,-40.85"/>
<polygon fill="midnightblue" stroke="midnightblue" points="642.49,-40.76 639.11,-30.72 635.49,-40.68 642.49,-40.76"/>
</g>
<!-- Node14&#45;&gt;Node10 -->
<g id="edge25" class="edge">
<title>Node14&#45;&gt;Node10</title>
<path fill="none" stroke="midnightblue" d="M262.01,-201.4C273.29,-192.45 288.07,-180.74 300.61,-170.8"/>
<polygon fill="midnightblue" stroke="midnightblue" points="302.8,-173.53 308.46,-164.58 298.45,-168.05 302.8,-173.53"/>
</g>
</g>
</svg>
