<?xml version="1.0" encoding="UTF-8" standalone="no"?>
<!DOCTYPE svg PUBLIC "-//W3C//DTD SVG 1.1//EN"
 "http://www.w3.org/Graphics/SVG/1.1/DTD/svg11.dtd">
<!-- Generated by graphviz version 2.43.0 (0)
 -->
<!-- Title: object.h Pages: 1 -->
<svg width="379pt" height="252pt"
 viewBox="0.00 0.00 378.50 252.00" xmlns="http://www.w3.org/2000/svg" xmlns:xlink="http://www.w3.org/1999/xlink">
<g id="graph0" class="graph" transform="scale(1 1) rotate(0) translate(4 248)">
<title>object.h</title>
<polygon fill="white" stroke="transparent" points="-4,4 -4,-248 374.5,-248 374.5,4 -4,4"/>
<!-- Node1 -->
<g id="node1" class="node">
<title>Node1</title>
<g id="a_node1"><a xlink:title=" ">
<polygon fill="#bfbfbf" stroke="black" points="149,-224.5 149,-243.5 205,-243.5 205,-224.5 149,-224.5"/>
<text text-anchor="middle" x="177" y="-231.5" font-family="Helvetica,sans-Serif" font-size="10.00">object.h</text>
</a>
</g>
</g>
<!-- Node2 -->
<g id="node2" class="node">
<title>Node2</title>
<g id="a_node2"><a xlink:href="object__book_8h.html" target="_top" xlink:title=" ">
<polygon fill="white" stroke="black" points="99.5,-168.5 99.5,-187.5 184.5,-187.5 184.5,-168.5 99.5,-168.5"/>
<text text-anchor="middle" x="142" y="-175.5" font-family="Helvetica,sans-Serif" font-size="10.00">object_book.h</text>
</a>
</g>
</g>
<!-- Node1&#45;&gt;Node2 -->
<g id="edge1" class="edge">
<title>Node1&#45;&gt;Node2</title>
<path fill="none" stroke="midnightblue" d="M165.7,-215.57C159.68,-206.27 152.53,-195.25 147.67,-187.75"/>
<polygon fill="midnightblue" stroke="midnightblue" points="162.84,-217.6 171.22,-224.08 168.72,-213.79 162.84,-217.6"/>
</g>
<!-- Node3 -->
<g id="node3" class="node">
<title>Node3</title>
<g id="a_node3"><a xlink:href="object__query_8h.html" target="_top" xlink:title=" ">
<polygon fill="white" stroke="black" points="21.5,-112.5 21.5,-131.5 108.5,-131.5 108.5,-112.5 21.5,-112.5"/>
<text text-anchor="middle" x="65" y="-119.5" font-family="Helvetica,sans-Serif" font-size="10.00">object_query.h</text>
</a>
</g>
</g>
<!-- Node1&#45;&gt;Node3 -->
<g id="edge10" class="edge">
<title>Node1&#45;&gt;Node3</title>
<path fill="none" stroke="midnightblue" d="M139.29,-220.57C122.32,-213.35 103.18,-202.72 90,-188 75.16,-171.43 68.74,-145.1 66.3,-131.6"/>
<polygon fill="midnightblue" stroke="midnightblue" points="138.39,-223.97 148.97,-224.43 140.98,-217.47 138.39,-223.97"/>
</g>
<!-- Node4 -->
<g id="node4" class="node">
<title>Node4</title>
<g id="a_node4"><a xlink:href="simple__object__query_8h.html" target="_top" xlink:title=" ">
<polygon fill="white" stroke="black" points="2.5,-56.5 2.5,-75.5 127.5,-75.5 127.5,-56.5 2.5,-56.5"/>
<text text-anchor="middle" x="65" y="-63.5" font-family="Helvetica,sans-Serif" font-size="10.00">simple_object_query.h</text>
</a>
</g>
</g>
<!-- Node1&#45;&gt;Node4 -->
<g id="edge12" class="edge">
<title>Node1&#45;&gt;Node4</title>
<path fill="none" stroke="midnightblue" d="M139.11,-223.39C97.86,-210.54 34.74,-183.18 12,-132 1.71,-108.85 29.89,-87.14 49,-75.61"/>
<polygon fill="midnightblue" stroke="midnightblue" points="138.25,-226.79 148.83,-226.28 140.24,-220.08 138.25,-226.79"/>
</g>
<!-- Node6 -->
<g id="node6" class="node">
<title>Node6</title>
<g id="a_node6"><a xlink:href="mock_8h.html" target="_top" xlink:title=" ">
<polygon fill="white" stroke="black" points="148.5,-56.5 148.5,-75.5 201.5,-75.5 201.5,-56.5 148.5,-56.5"/>
<text text-anchor="middle" x="175" y="-63.5" font-family="Helvetica,sans-Serif" font-size="10.00">mock.h</text>
</a>
</g>
</g>
<!-- Node1&#45;&gt;Node6 -->
<g id="edge13" class="edge">
<title>Node1&#45;&gt;Node6</title>
<path fill="none" stroke="midnightblue" d="M185.06,-214.83C188.21,-206.78 191.43,-197.09 193,-188 200.26,-145.93 185.02,-95.33 178.14,-75.53"/>
<polygon fill="midnightblue" stroke="midnightblue" points="181.74,-213.7 181.11,-224.28 188.19,-216.4 181.74,-213.7"/>
</g>
<!-- Node7 -->
<g id="node7" class="node">
<title>Node7</title>
<g id="a_node7"><a xlink:href="manual__object__book_8h.html" target="_top" xlink:title=" ">
<polygon fill="white" stroke="black" points="241.5,-112.5 241.5,-131.5 368.5,-131.5 368.5,-112.5 241.5,-112.5"/>
<text text-anchor="middle" x="305" y="-119.5" font-family="Helvetica,sans-Serif" font-size="10.00">manual_object_book.h</text>
</a>
</g>
</g>
<!-- Node1&#45;&gt;Node7 -->
<g id="edge11" class="edge">
<title>Node1&#45;&gt;Node7</title>
<path fill="none" stroke="midnightblue" d="M194.67,-217.82C221.93,-194.39 273.36,-150.19 295,-131.59"/>
<polygon fill="midnightblue" stroke="midnightblue" points="192.35,-215.2 187.04,-224.37 196.91,-220.51 192.35,-215.2"/>
</g>
<!-- Node9 -->
<g id="node9" class="node">
<title>Node9</title>
<g id="a_node9"><a xlink:href="object_8cc.html" target="_top" xlink:title=" ">
<polygon fill="white" stroke="black" points="279,-168.5 279,-187.5 339,-187.5 339,-168.5 279,-168.5"/>
<text text-anchor="middle" x="309" y="-175.5" font-family="Helvetica,sans-Serif" font-size="10.00">object.cc</text>
</a>
</g>
</g>
<!-- Node1&#45;&gt;Node9 -->
<g id="edge14" class="edge">
<title>Node1&#45;&gt;Node9</title>
<path fill="none" stroke="midnightblue" d="M207.22,-220.64C231.99,-210.5 266.4,-196.43 288.18,-187.52"/>
<polygon fill="midnightblue" stroke="midnightblue" points="205.85,-217.42 197.92,-224.44 208.5,-223.9 205.85,-217.42"/>
</g>
<!-- Node2&#45;&gt;Node3 -->
<g id="edge2" class="edge">
<title>Node2&#45;&gt;Node3</title>
<path fill="none" stroke="midnightblue" d="M121.1,-162.34C107.09,-152.52 89.12,-139.91 77.34,-131.65"/>
<polygon fill="midnightblue" stroke="midnightblue" points="119.43,-165.45 129.63,-168.32 123.45,-159.72 119.43,-165.45"/>
</g>
<!-- Node2&#45;&gt;Node4 -->
<g id="edge8" class="edge">
<title>Node2&#45;&gt;Node4</title>
<path fill="none" stroke="midnightblue" d="M137.55,-158.63C133.63,-144.93 126.98,-126.21 117,-112 106.43,-96.95 89.76,-83.73 78.15,-75.57"/>
<polygon fill="midnightblue" stroke="midnightblue" points="134.18,-159.58 140.11,-168.36 140.95,-157.8 134.18,-159.58"/>
</g>
<!-- Node2&#45;&gt;Node6 -->
<g id="edge9" class="edge">
<title>Node2&#45;&gt;Node6</title>
<path fill="none" stroke="midnightblue" d="M147.5,-158.67C154.71,-134.62 167.08,-93.39 172.42,-75.59"/>
<polygon fill="midnightblue" stroke="midnightblue" points="144.11,-157.78 144.59,-168.37 150.82,-159.8 144.11,-157.78"/>
</g>
<!-- Node2&#45;&gt;Node7 -->
<g id="edge6" class="edge">
<title>Node2&#45;&gt;Node7</title>
<path fill="none" stroke="midnightblue" d="M177.7,-165.17C208.4,-155 251.92,-140.59 279.29,-131.52"/>
<polygon fill="midnightblue" stroke="midnightblue" points="176.22,-161.98 167.83,-168.44 178.42,-168.62 176.22,-161.98"/>
</g>
<!-- Node3&#45;&gt;Node4 -->
<g id="edge3" class="edge">
<title>Node3&#45;&gt;Node4</title>
<path fill="none" stroke="midnightblue" d="M65,-101.8C65,-92.91 65,-82.78 65,-75.75"/>
<polygon fill="midnightblue" stroke="midnightblue" points="61.5,-102.08 65,-112.08 68.5,-102.08 61.5,-102.08"/>
</g>
<!-- Node3&#45;&gt;Node6 -->
<g id="edge5" class="edge">
<title>Node3&#45;&gt;Node6</title>
<path fill="none" stroke="midnightblue" d="M91.76,-107.86C112.16,-97.85 139.67,-84.35 157.37,-75.65"/>
<polygon fill="midnightblue" stroke="midnightblue" points="90.11,-104.78 82.67,-112.32 93.19,-111.06 90.11,-104.78"/>
</g>
<!-- Node5 -->
<g id="node5" class="node">
<title>Node5</title>
<g id="a_node5"><a xlink:href="simple__object__query_8cc.html" target="_top" xlink:title=" ">
<polygon fill="white" stroke="black" points="0,-0.5 0,-19.5 130,-19.5 130,-0.5 0,-0.5"/>
<text text-anchor="middle" x="65" y="-7.5" font-family="Helvetica,sans-Serif" font-size="10.00">simple_object_query.cc</text>
</a>
</g>
</g>
<!-- Node4&#45;&gt;Node5 -->
<g id="edge4" class="edge">
<title>Node4&#45;&gt;Node5</title>
<path fill="none" stroke="midnightblue" d="M65,-45.8C65,-36.91 65,-26.78 65,-19.75"/>
<polygon fill="midnightblue" stroke="midnightblue" points="61.5,-46.08 65,-56.08 68.5,-46.08 61.5,-46.08"/>
</g>
<!-- Node8 -->
<g id="node8" class="node">
<title>Node8</title>
<g id="a_node8"><a xlink:href="manual__object__book_8cc.html" target="_top" xlink:title=" ">
<polygon fill="white" stroke="black" points="239.5,-56.5 239.5,-75.5 370.5,-75.5 370.5,-56.5 239.5,-56.5"/>
<text text-anchor="middle" x="305" y="-63.5" font-family="Helvetica,sans-Serif" font-size="10.00">manual_object_book.cc</text>
</a>
</g>
</g>
<!-- Node7&#45;&gt;Node8 -->
<g id="edge7" class="edge">
<title>Node7&#45;&gt;Node8</title>
<path fill="none" stroke="midnightblue" d="M305,-101.8C305,-92.91 305,-82.78 305,-75.75"/>
<polygon fill="midnightblue" stroke="midnightblue" points="301.5,-102.08 305,-112.08 308.5,-102.08 301.5,-102.08"/>
</g>
</g>
</svg>
