<?xml version="1.0" encoding="UTF-8" standalone="no"?>
<!DOCTYPE svg PUBLIC "-//W3C//DTD SVG 1.1//EN"
 "http://www.w3.org/Graphics/SVG/1.1/DTD/svg11.dtd">
<!-- Generated by graphviz version 2.43.0 (0)
 -->
<!-- Title: object_query.h Pages: 1 -->
<svg width="1131pt" height="296pt"
 viewBox="0.00 0.00 1130.74 296.00" xmlns="http://www.w3.org/2000/svg" xmlns:xlink="http://www.w3.org/1999/xlink">
<g id="graph0" class="graph" transform="scale(1 1) rotate(0) translate(4 292)">
<title>object_query.h</title>
<polygon fill="white" stroke="transparent" points="-4,4 -4,-292 1126.74,-292 1126.74,4 -4,4"/>
<!-- Node1 -->
<g id="node1" class="node">
<title>Node1</title>
<g id="a_node1"><a xlink:title=" ">
<polygon fill="#bfbfbf" stroke="black" points="568.74,-268.5 568.74,-287.5 655.74,-287.5 655.74,-268.5 568.74,-268.5"/>
<text text-anchor="middle" x="612.24" y="-275.5" font-family="Helvetica,sans-Serif" font-size="10.00">object_query.h</text>
</a>
</g>
</g>
<!-- Node2 -->
<g id="node2" class="node">
<title>Node2</title>
<g id="a_node2"><a xlink:title=" ">
<polygon fill="white" stroke="#bfbfbf" points="14.24,-73 14.24,-92 70.24,-92 70.24,-73 14.24,-73"/>
<text text-anchor="middle" x="42.24" y="-80" font-family="Helvetica,sans-Serif" font-size="10.00">optional</text>
</a>
</g>
</g>
<!-- Node1&#45;&gt;Node2 -->
<g id="edge1" class="edge">
<title>Node1&#45;&gt;Node2</title>
<path fill="none" stroke="midnightblue" d="M568.39,-273.72C452.93,-264.22 144.41,-232.91 72.24,-165 54.69,-148.49 47.36,-120.82 44.33,-102.37"/>
<polygon fill="midnightblue" stroke="midnightblue" points="47.77,-101.69 42.94,-92.26 40.83,-102.64 47.77,-101.69"/>
</g>
<!-- Node3 -->
<g id="node3" class="node">
<title>Node3</title>
<g id="a_node3"><a xlink:title=" ">
<polygon fill="white" stroke="#bfbfbf" points="640.74,-207 640.74,-226 687.74,-226 687.74,-207 640.74,-207"/>
<text text-anchor="middle" x="664.24" y="-214" font-family="Helvetica,sans-Serif" font-size="10.00">vector</text>
</a>
</g>
</g>
<!-- Node1&#45;&gt;Node3 -->
<g id="edge2" class="edge">
<title>Node1&#45;&gt;Node3</title>
<path fill="none" stroke="midnightblue" d="M619.69,-268.48C627.56,-259.46 640.18,-245.02 649.98,-233.81"/>
<polygon fill="midnightblue" stroke="midnightblue" points="652.86,-235.84 656.8,-226.01 647.58,-231.24 652.86,-235.84"/>
</g>
<!-- Node4 -->
<g id="node4" class="node">
<title>Node4</title>
<g id="a_node4"><a xlink:title=" ">
<polygon fill="white" stroke="#bfbfbf" points="705.74,-207 705.74,-226 810.74,-226 810.74,-207 705.74,-207"/>
<text text-anchor="middle" x="758.24" y="-214" font-family="Helvetica,sans-Serif" font-size="10.00">maliput/api/lane.h</text>
</a>
</g>
</g>
<!-- Node1&#45;&gt;Node4 -->
<g id="edge3" class="edge">
<title>Node1&#45;&gt;Node4</title>
<path fill="none" stroke="midnightblue" d="M633.16,-268.48C657.98,-258.36 699.58,-241.4 727.93,-229.85"/>
<polygon fill="midnightblue" stroke="midnightblue" points="729.42,-233.02 737.36,-226.01 726.78,-226.54 729.42,-233.02"/>
</g>
<!-- Node5 -->
<g id="node5" class="node">
<title>Node5</title>
<g id="a_node5"><a xlink:title=" ">
<polygon fill="white" stroke="#bfbfbf" points="828.74,-207 828.74,-226 979.74,-226 979.74,-207 828.74,-207"/>
<text text-anchor="middle" x="904.24" y="-214" font-family="Helvetica,sans-Serif" font-size="10.00">maliput/api/road_network.h</text>
</a>
</g>
</g>
<!-- Node1&#45;&gt;Node5 -->
<g id="edge4" class="edge">
<title>Node1&#45;&gt;Node5</title>
<path fill="none" stroke="midnightblue" d="M654.07,-268.48C706.44,-257.8 796.11,-239.53 852.66,-228.01"/>
<polygon fill="midnightblue" stroke="midnightblue" points="853.38,-231.44 862.48,-226.01 851.98,-224.58 853.38,-231.44"/>
</g>
<!-- Node6 -->
<g id="node6" class="node">
<title>Node6</title>
<g id="a_node6"><a xlink:title=" ">
<polygon fill="white" stroke="#bfbfbf" points="361.24,-0.5 361.24,-30.5 501.24,-30.5 501.24,-0.5 361.24,-0.5"/>
<text text-anchor="start" x="369.24" y="-18.5" font-family="Helvetica,sans-Serif" font-size="10.00">maliput/common/maliput</text>
<text text-anchor="middle" x="431.24" y="-7.5" font-family="Helvetica,sans-Serif" font-size="10.00">_copyable.h</text>
</a>
</g>
</g>
<!-- Node1&#45;&gt;Node6 -->
<g id="edge5" class="edge">
<title>Node1&#45;&gt;Node6</title>
<path fill="none" stroke="midnightblue" d="M568.67,-275.73C467.56,-272.32 219.72,-261.16 142.24,-232 62.52,-202.01 29.64,-179.6 5.24,-98 1.29,-84.8 -3.91,-77.3 5.24,-67 27.77,-41.64 233.99,-26.8 351.04,-20.35"/>
<polygon fill="midnightblue" stroke="midnightblue" points="351.24,-23.84 361.04,-19.81 350.86,-16.85 351.24,-23.84"/>
</g>
<!-- Node7 -->
<g id="node7" class="node">
<title>Node7</title>
<g id="a_node7"><a xlink:title=" ">
<polygon fill="white" stroke="#bfbfbf" points="997.74,-207 997.74,-226 1122.74,-226 1122.74,-207 997.74,-207"/>
<text text-anchor="middle" x="1060.24" y="-214" font-family="Helvetica,sans-Serif" font-size="10.00">maliput/math/vector.h</text>
</a>
</g>
</g>
<!-- Node1&#45;&gt;Node7 -->
<g id="edge6" class="edge">
<title>Node1&#45;&gt;Node7</title>
<path fill="none" stroke="midnightblue" d="M655.94,-272.97C726.35,-266.21 869.18,-251.39 989.24,-232 996.41,-230.84 1003.96,-229.47 1011.35,-228.04"/>
<polygon fill="midnightblue" stroke="midnightblue" points="1012.16,-231.44 1021.28,-226.06 1010.79,-224.58 1012.16,-231.44"/>
</g>
<!-- Node8 -->
<g id="node8" class="node">
<title>Node8</title>
<g id="a_node8"><a xlink:href="object_8h.html" target="_top" xlink:title=" ">
<polygon fill="white" stroke="black" points="120.74,-134.5 120.74,-164.5 227.74,-164.5 227.74,-134.5 120.74,-134.5"/>
<text text-anchor="start" x="128.74" y="-152.5" font-family="Helvetica,sans-Serif" font-size="10.00">maliput_object/api</text>
<text text-anchor="middle" x="174.24" y="-141.5" font-family="Helvetica,sans-Serif" font-size="10.00">/object.h</text>
</a>
</g>
</g>
<!-- Node1&#45;&gt;Node8 -->
<g id="edge7" class="edge">
<title>Node1&#45;&gt;Node8</title>
<path fill="none" stroke="midnightblue" d="M568.58,-270.5C522.87,-263.18 449.23,-249.92 387.24,-232 326.19,-214.35 257.97,-186.8 215.56,-168.7"/>
<polygon fill="midnightblue" stroke="midnightblue" points="216.71,-165.38 206.14,-164.65 213.94,-171.81 216.71,-165.38"/>
</g>
<!-- Node14 -->
<g id="node14" class="node">
<title>Node14</title>
<g id="a_node14"><a xlink:href="overlapping__type_8h.html" target="_top" xlink:title=" ">
<polygon fill="white" stroke="black" points="597.74,-0.5 597.74,-30.5 710.74,-30.5 710.74,-0.5 597.74,-0.5"/>
<text text-anchor="start" x="605.74" y="-18.5" font-family="Helvetica,sans-Serif" font-size="10.00">maliput_object/api</text>
<text text-anchor="middle" x="654.24" y="-7.5" font-family="Helvetica,sans-Serif" font-size="10.00">/overlapping_type.h</text>
</a>
</g>
</g>
<!-- Node1&#45;&gt;Node14 -->
<g id="edge26" class="edge">
<title>Node1&#45;&gt;Node14</title>
<path fill="none" stroke="midnightblue" d="M614.43,-268.41C622.9,-235.11 653.17,-115.46 655.24,-98 656.86,-84.32 655.37,-80.78 655.24,-67 655.15,-58.46 654.99,-49.12 654.82,-40.81"/>
<polygon fill="midnightblue" stroke="midnightblue" points="658.31,-40.57 654.59,-30.65 651.31,-40.72 658.31,-40.57"/>
</g>
<!-- Node15 -->
<g id="node15" class="node">
<title>Node15</title>
<g id="a_node15"><a xlink:href="object__book_8h.html" target="_top" xlink:title=" ">
<polygon fill="white" stroke="black" points="396.74,-201.5 396.74,-231.5 503.74,-231.5 503.74,-201.5 396.74,-201.5"/>
<text text-anchor="start" x="404.74" y="-219.5" font-family="Helvetica,sans-Serif" font-size="10.00">maliput_object/api</text>
<text text-anchor="middle" x="450.24" y="-208.5" font-family="Helvetica,sans-Serif" font-size="10.00">/object_book.h</text>
</a>
</g>
</g>
<!-- Node1&#45;&gt;Node15 -->
<g id="edge17" class="edge">
<title>Node1&#45;&gt;Node15</title>
<path fill="none" stroke="midnightblue" d="M589.03,-268.48C565.34,-259.78 527.91,-246.03 497.88,-235"/>
<polygon fill="midnightblue" stroke="midnightblue" points="499.01,-231.69 488.42,-231.52 496.6,-238.26 499.01,-231.69"/>
</g>
<!-- Node8&#45;&gt;Node2 -->
<g id="edge10" class="edge">
<title>Node8&#45;&gt;Node2</title>
<path fill="none" stroke="midnightblue" d="M145.59,-134.4C122.74,-123.14 90.98,-107.5 68.71,-96.54"/>
<polygon fill="midnightblue" stroke="midnightblue" points="70.03,-93.28 59.51,-92.01 66.94,-99.56 70.03,-93.28"/>
</g>
<!-- Node8&#45;&gt;Node6 -->
<g id="edge13" class="edge">
<title>Node8&#45;&gt;Node6</title>
<path fill="none" stroke="midnightblue" d="M228.2,-135.03C277.44,-122.47 344.19,-104.71 355.24,-98 380.21,-82.82 402.18,-57.17 415.99,-38.7"/>
<polygon fill="midnightblue" stroke="midnightblue" points="418.87,-40.68 421.92,-30.53 413.21,-36.57 418.87,-40.68"/>
</g>
<!-- Node9 -->
<g id="node9" class="node">
<title>Node9</title>
<g id="a_node9"><a xlink:title=" ">
<polygon fill="white" stroke="#bfbfbf" points="88.24,-73 88.24,-92 126.24,-92 126.24,-73 88.24,-73"/>
<text text-anchor="middle" x="107.24" y="-80" font-family="Helvetica,sans-Serif" font-size="10.00">map</text>
</a>
</g>
</g>
<!-- Node8&#45;&gt;Node9 -->
<g id="edge8" class="edge">
<title>Node8&#45;&gt;Node9</title>
<path fill="none" stroke="midnightblue" d="M159.7,-134.4C149.05,-124.06 134.58,-110.02 123.53,-99.31"/>
<polygon fill="midnightblue" stroke="midnightblue" points="125.81,-96.65 116.2,-92.19 120.94,-101.67 125.81,-96.65"/>
</g>
<!-- Node10 -->
<g id="node10" class="node">
<title>Node10</title>
<g id="a_node10"><a xlink:title=" ">
<polygon fill="white" stroke="#bfbfbf" points="402.24,-73 402.24,-92 460.24,-92 460.24,-73 402.24,-73"/>
<text text-anchor="middle" x="431.24" y="-80" font-family="Helvetica,sans-Serif" font-size="10.00">memory</text>
</a>
</g>
</g>
<!-- Node8&#45;&gt;Node10 -->
<g id="edge9" class="edge">
<title>Node8&#45;&gt;Node10</title>
<path fill="none" stroke="midnightblue" d="M227.78,-135.93C289.87,-121.34 384.31,-99.12 388.24,-98 391.25,-97.14 394.36,-96.2 397.46,-95.22"/>
<polygon fill="midnightblue" stroke="midnightblue" points="398.83,-98.45 407.25,-92.03 396.66,-91.8 398.83,-98.45"/>
</g>
<!-- Node11 -->
<g id="node11" class="node">
<title>Node11</title>
<g id="a_node11"><a xlink:title=" ">
<polygon fill="white" stroke="#bfbfbf" points="144.24,-73 144.24,-92 188.24,-92 188.24,-73 144.24,-73"/>
<text text-anchor="middle" x="166.24" y="-80" font-family="Helvetica,sans-Serif" font-size="10.00">string</text>
</a>
</g>
</g>
<!-- Node8&#45;&gt;Node11 -->
<g id="edge11" class="edge">
<title>Node8&#45;&gt;Node11</title>
<path fill="none" stroke="midnightblue" d="M172.5,-134.4C171.34,-124.96 169.8,-112.45 168.54,-102.19"/>
<polygon fill="midnightblue" stroke="midnightblue" points="172,-101.69 167.31,-92.19 165.05,-102.55 172,-101.69"/>
</g>
<!-- Node12 -->
<g id="node12" class="node">
<title>Node12</title>
<g id="a_node12"><a xlink:title=" ">
<polygon fill="white" stroke="#bfbfbf" points="206.24,-67.5 206.24,-97.5 346.24,-97.5 346.24,-67.5 206.24,-67.5"/>
<text text-anchor="start" x="214.24" y="-85.5" font-family="Helvetica,sans-Serif" font-size="10.00">maliput/api/type_specific</text>
<text text-anchor="middle" x="276.24" y="-74.5" font-family="Helvetica,sans-Serif" font-size="10.00">_identifier.h</text>
</a>
</g>
</g>
<!-- Node8&#45;&gt;Node12 -->
<g id="edge12" class="edge">
<title>Node8&#45;&gt;Node12</title>
<path fill="none" stroke="midnightblue" d="M196.37,-134.4C210.81,-125.2 229.84,-113.07 245.71,-102.95"/>
<polygon fill="midnightblue" stroke="midnightblue" points="247.6,-105.9 254.15,-97.58 243.83,-100 247.6,-105.9"/>
</g>
<!-- Node13 -->
<g id="node13" class="node">
<title>Node13</title>
<g id="a_node13"><a xlink:href="bounding__region_8h.html" target="_top" xlink:title=" ">
<polygon fill="white" stroke="black" points="516.24,-67.5 516.24,-97.5 626.24,-97.5 626.24,-67.5 516.24,-67.5"/>
<text text-anchor="start" x="524.24" y="-85.5" font-family="Helvetica,sans-Serif" font-size="10.00">maliput_object/api</text>
<text text-anchor="middle" x="571.24" y="-74.5" font-family="Helvetica,sans-Serif" font-size="10.00">/bounding_region.h</text>
</a>
</g>
</g>
<!-- Node8&#45;&gt;Node13 -->
<g id="edge14" class="edge">
<title>Node8&#45;&gt;Node13</title>
<path fill="none" stroke="midnightblue" d="M227.95,-135.66C230.75,-135.08 233.52,-134.52 236.24,-134 262.13,-129.03 416.15,-106.24 506.07,-93.04"/>
<polygon fill="midnightblue" stroke="midnightblue" points="506.79,-96.47 516.17,-91.55 505.77,-89.54 506.79,-96.47"/>
</g>
<!-- Node13&#45;&gt;Node6 -->
<g id="edge15" class="edge">
<title>Node13&#45;&gt;Node6</title>
<path fill="none" stroke="midnightblue" d="M540.86,-67.4C520.31,-57.86 492.97,-45.16 470.74,-34.84"/>
<polygon fill="midnightblue" stroke="midnightblue" points="472.1,-31.61 461.56,-30.58 469.15,-37.96 472.1,-31.61"/>
</g>
<!-- Node13&#45;&gt;Node14 -->
<g id="edge16" class="edge">
<title>Node13&#45;&gt;Node14</title>
<path fill="none" stroke="midnightblue" d="M589.25,-67.4C600.67,-58.45 615.63,-46.74 628.31,-36.8"/>
<polygon fill="midnightblue" stroke="midnightblue" points="630.55,-39.5 636.26,-30.58 626.23,-33.99 630.55,-39.5"/>
</g>
<!-- Node15&#45;&gt;Node2 -->
<g id="edge20" class="edge">
<title>Node15&#45;&gt;Node2</title>
<path fill="none" stroke="midnightblue" d="M396.56,-212.11C313.69,-206.11 159.13,-191.67 111.24,-165 84.34,-150.02 63.31,-120.18 51.84,-101.07"/>
<polygon fill="midnightblue" stroke="midnightblue" points="54.76,-99.11 46.74,-92.18 48.69,-102.6 54.76,-99.11"/>
</g>
<!-- Node15&#45;&gt;Node6 -->
<g id="edge22" class="edge">
<title>Node15&#45;&gt;Node6</title>
<path fill="none" stroke="midnightblue" d="M456.17,-201.17C466.46,-174.2 485.06,-114.33 469.24,-67 465.79,-56.7 459.33,-46.81 452.7,-38.56"/>
<polygon fill="midnightblue" stroke="midnightblue" points="455.29,-36.2 446.12,-30.9 449.98,-40.76 455.29,-36.2"/>
</g>
<!-- Node15&#45;&gt;Node8 -->
<g id="edge24" class="edge">
<title>Node15&#45;&gt;Node8</title>
<path fill="none" stroke="midnightblue" d="M396.69,-202.89C351.32,-192.21 286.17,-176.86 238.09,-165.54"/>
<polygon fill="midnightblue" stroke="midnightblue" points="238.64,-162.07 228.1,-163.19 237.03,-168.88 238.64,-162.07"/>
</g>
<!-- Node15&#45;&gt;Node10 -->
<g id="edge19" class="edge">
<title>Node15&#45;&gt;Node10</title>
<path fill="none" stroke="midnightblue" d="M448.2,-201.37C444.75,-177.4 437.75,-128.75 433.91,-102.06"/>
<polygon fill="midnightblue" stroke="midnightblue" points="437.36,-101.5 432.47,-92.1 430.43,-102.49 437.36,-101.5"/>
</g>
<!-- Node15&#45;&gt;Node13 -->
<g id="edge23" class="edge">
<title>Node15&#45;&gt;Node13</title>
<path fill="none" stroke="midnightblue" d="M465.64,-201.29C476.2,-191.37 490.38,-177.69 502.24,-165 520.34,-145.62 539.76,-122.45 553.37,-105.77"/>
<polygon fill="midnightblue" stroke="midnightblue" points="556.34,-107.67 559.92,-97.7 550.9,-103.26 556.34,-107.67"/>
</g>
<!-- Node15&#45;&gt;Node14 -->
<g id="edge25" class="edge">
<title>Node15&#45;&gt;Node14</title>
<path fill="none" stroke="midnightblue" d="M488.84,-201.42C531.39,-183.86 598.64,-149.71 635.24,-98 647.01,-81.37 651.59,-58.49 653.32,-41.21"/>
<polygon fill="midnightblue" stroke="midnightblue" points="656.84,-41.01 654.09,-30.78 649.86,-40.5 656.84,-41.01"/>
</g>
<!-- Node16 -->
<g id="node16" class="node">
<title>Node16</title>
<g id="a_node16"><a xlink:title=" ">
<polygon fill="white" stroke="#bfbfbf" points="245.74,-140 245.74,-159 310.74,-159 310.74,-140 245.74,-140"/>
<text text-anchor="middle" x="278.24" y="-147" font-family="Helvetica,sans-Serif" font-size="10.00">functional</text>
</a>
</g>
</g>
<!-- Node15&#45;&gt;Node16 -->
<g id="edge18" class="edge">
<title>Node15&#45;&gt;Node16</title>
<path fill="none" stroke="midnightblue" d="M412.92,-201.4C382.34,-189.84 339.51,-173.66 310.42,-162.66"/>
<polygon fill="midnightblue" stroke="midnightblue" points="311.34,-159.27 300.75,-159.01 308.86,-165.82 311.34,-159.27"/>
</g>
<!-- Node17 -->
<g id="node17" class="node">
<title>Node17</title>
<g id="a_node17"><a xlink:title=" ">
<polygon fill="white" stroke="#bfbfbf" points="328.74,-140 328.74,-159 421.74,-159 421.74,-140 328.74,-140"/>
<text text-anchor="middle" x="375.24" y="-147" font-family="Helvetica,sans-Serif" font-size="10.00">unordered_map</text>
</a>
</g>
</g>
<!-- Node15&#45;&gt;Node17 -->
<g id="edge21" class="edge">
<title>Node15&#45;&gt;Node17</title>
<path fill="none" stroke="midnightblue" d="M433.96,-201.4C421.92,-190.96 405.53,-176.75 393.12,-166"/>
<polygon fill="midnightblue" stroke="midnightblue" points="395.12,-163.1 385.27,-159.19 390.53,-168.39 395.12,-163.1"/>
</g>
</g>
</svg>
