<?xml version="1.0" encoding="UTF-8" standalone="no"?>
<!DOCTYPE svg PUBLIC "-//W3C//DTD SVG 1.1//EN"
 "http://www.w3.org/Graphics/SVG/1.1/DTD/svg11.dtd">
<!-- Generated by graphviz version 2.43.0 (0)
 -->
<!-- Title: simple_object_query.h Pages: 1 -->
<!--zoomable 363 -->
<svg id="main" version="1.1" xmlns="http://www.w3.org/2000/svg" xmlns:xlink="http://www.w3.org/1999/xlink" xml:space="preserve" onload="init(evt)">
<style type="text/css"><![CDATA[
.edge:hover path { stroke: red; }
.edge:hover polygon { stroke: red; fill: red; }
]]></style>
<script type="text/javascript"><![CDATA[
var edges = document.getElementsByTagName('g');
if (edges && edges.length) {
  for (var i=0;i<edges.length;i++) {
    if (edges[i].id.substr(0,4)=='edge') {
      edges[i].setAttribute('class','edge');
    }
  }
}
]]></script>
        <defs>
                <circle id="rim" cx="0" cy="0" r="7"/>
                <circle id="rim2" cx="0" cy="0" r="3.5"/>
                <g id="zoomPlus">
                        <use xlink:href="#rim" fill="#404040">
                                <set attributeName="fill" to="#808080" begin="zoomplus.mouseover" end="zoomplus.mouseout"/>
                        </use>
                        <path d="M-4,0h8M0,-4v8" fill="none" stroke="white" stroke-width="1.5" pointer-events="none"/>
                </g>
                <g id="zoomMin">
                        <use xlink:href="#rim" fill="#404040">
                                <set attributeName="fill" to="#808080" begin="zoomminus.mouseover" end="zoomminus.mouseout"/>
                        </use>
                        <path d="M-4,0h8" fill="none" stroke="white" stroke-width="1.5" pointer-events="none"/>
                </g>
                <g id="dirArrow">
                        <path fill="none" stroke="white" stroke-width="1.5" d="M0,-3.0v7 M-2.5,-0.5L0,-3.0L2.5,-0.5"/>
                </g>
               <g id="resetDef">
                       <use xlink:href="#rim2" fill="#404040">
                               <set attributeName="fill" to="#808080" begin="reset.mouseover" end="reset.mouseout"/>
                       </use>
               </g>
        </defs>

<script type="text/javascript">
var viewWidth = 1420;
var viewHeight = 363;
var sectionId = 'dynsection-0';
</script>
<script xlink:href="svgpan.js"/>
<svg id="graph" class="graph">
<g id="viewport">
<title>simple_object_query.h</title>
<polygon fill="white" stroke="transparent" points="-4,4 -4,-359 1416.16,-359 1416.16,4 -4,4"/>
<!-- Node1 -->
<g id="node1" class="node">
<title>Node1</title>
<g id="a_node1"><a xlink:title=" ">
<polygon fill="#bfbfbf" stroke="black" points="852.66,-335.5 852.66,-354.5 977.66,-354.5 977.66,-335.5 852.66,-335.5"/>
<text text-anchor="middle" x="915.16" y="-342.5" font-family="Helvetica,sans-Serif" font-size="10.00">simple_object_query.h</text>
</a>
</g>
</g>
<!-- Node2 -->
<g id="node2" class="node">
<title>Node2</title>
<g id="a_node2"><a xlink:title=" ">
<polygon fill="white" stroke="#bfbfbf" points="720.16,-73 720.16,-92 776.16,-92 776.16,-73 720.16,-73"/>
<text text-anchor="middle" x="748.16" y="-80" font-family="Helvetica,sans-Serif" font-size="10.00">optional</text>
</a>
</g>
</g>
<!-- Node1&#45;&gt;Node2 -->
<g id="edge1" class="edge">
<title>Node1&#45;&gt;Node2</title>
<path fill="none" stroke="midnightblue" d="M901.03,-335.34C887.88,-326.93 868.14,-313.36 853.16,-299 802.95,-250.82 795.45,-230.58 772.16,-165 764.63,-143.77 757.54,-118.86 753.05,-102.22"/>
<polygon fill="midnightblue" stroke="midnightblue" points="756.33,-100.93 750.38,-92.16 749.56,-102.73 756.33,-100.93"/>
</g>
<!-- Node3 -->
<g id="node3" class="node">
<title>Node3</title>
<g id="a_node3"><a xlink:title=" ">
<polygon fill="white" stroke="#bfbfbf" points="1024.66,-207 1024.66,-226 1071.66,-226 1071.66,-207 1024.66,-207"/>
<text text-anchor="middle" x="1048.16" y="-214" font-family="Helvetica,sans-Serif" font-size="10.00">vector</text>
</a>
</g>
</g>
<!-- Node1&#45;&gt;Node3 -->
<g id="edge2" class="edge">
<title>Node1&#45;&gt;Node3</title>
<path fill="none" stroke="midnightblue" d="M929.16,-335.4C942.42,-326.94 962.59,-313.24 978.16,-299 1000.44,-278.64 1022.52,-251.46 1035.75,-234.21"/>
<polygon fill="midnightblue" stroke="midnightblue" points="1038.58,-236.28 1041.82,-226.19 1033,-232.05 1038.58,-236.28"/>
</g>
<!-- Node4 -->
<g id="node4" class="node">
<title>Node4</title>
<g id="a_node4"><a xlink:title=" ">
<polygon fill="white" stroke="#bfbfbf" points="1089.66,-207 1089.66,-226 1240.66,-226 1240.66,-207 1089.66,-207"/>
<text text-anchor="middle" x="1165.16" y="-214" font-family="Helvetica,sans-Serif" font-size="10.00">maliput/api/road_network.h</text>
</a>
</g>
</g>
<!-- Node1&#45;&gt;Node4 -->
<g id="edge3" class="edge">
<title>Node1&#45;&gt;Node4</title>
<path fill="none" stroke="midnightblue" d="M932.65,-335.45C951,-326.45 980.66,-311.84 1006.16,-299 1053.37,-275.23 1108.17,-247 1139.54,-230.78"/>
<polygon fill="midnightblue" stroke="midnightblue" points="1141.22,-233.85 1148.49,-226.14 1138,-227.63 1141.22,-233.85"/>
</g>
<!-- Node5 -->
<g id="node5" class="node">
<title>Node5</title>
<g id="a_node5"><a xlink:title=" ">
<polygon fill="white" stroke="#bfbfbf" points="360.16,-0.5 360.16,-30.5 500.16,-30.5 500.16,-0.5 360.16,-0.5"/>
<text text-anchor="start" x="368.16" y="-18.5" font-family="Helvetica,sans-Serif" font-size="10.00">maliput/common/maliput</text>
<text text-anchor="middle" x="430.16" y="-7.5" font-family="Helvetica,sans-Serif" font-size="10.00">_copyable.h</text>
</a>
</g>
</g>
<!-- Node1&#45;&gt;Node5 -->
<g id="edge4" class="edge">
<title>Node1&#45;&gt;Node5</title>
<path fill="none" stroke="midnightblue" d="M852.41,-341.92C646.14,-334.28 2.16,-303.51 2.16,-217.5 2.16,-217.5 2.16,-217.5 2.16,-148.5 2.16,-111.31 -6.49,-91.87 21.16,-67 68.08,-24.82 244.5,-16.79 349.7,-15.87"/>
<polygon fill="midnightblue" stroke="midnightblue" points="349.98,-19.37 359.96,-15.81 349.94,-12.37 349.98,-19.37"/>
</g>
<!-- Node6 -->
<g id="node6" class="node">
<title>Node6</title>
<g id="a_node6"><a xlink:title=" ">
<polygon fill="white" stroke="#bfbfbf" points="1258.66,-207 1258.66,-226 1383.66,-226 1383.66,-207 1258.66,-207"/>
<text text-anchor="middle" x="1321.16" y="-214" font-family="Helvetica,sans-Serif" font-size="10.00">maliput/math/vector.h</text>
</a>
</g>
</g>
<!-- Node1&#45;&gt;Node6 -->
<g id="edge5" class="edge">
<title>Node1&#45;&gt;Node6</title>
<path fill="none" stroke="midnightblue" d="M942.75,-335.4C1013.87,-313.25 1203.48,-254.17 1284.08,-229.05"/>
<polygon fill="midnightblue" stroke="midnightblue" points="1285.3,-232.34 1293.81,-226.02 1283.22,-225.66 1285.3,-232.34"/>
</g>
<!-- Node7 -->
<g id="node7" class="node">
<title>Node7</title>
<g id="a_node7"><a xlink:href="object_8h.html" target="_top" xlink:title=" ">
<polygon fill="white" stroke="black" points="237.66,-134.5 237.66,-164.5 344.66,-164.5 344.66,-134.5 237.66,-134.5"/>
<text text-anchor="start" x="245.66" y="-152.5" font-family="Helvetica,sans-Serif" font-size="10.00">maliput_object/api</text>
<text text-anchor="middle" x="291.16" y="-141.5" font-family="Helvetica,sans-Serif" font-size="10.00">/object.h</text>
</a>
</g>
</g>
<!-- Node1&#45;&gt;Node7 -->
<g id="edge6" class="edge">
<title>Node1&#45;&gt;Node7</title>
<path fill="none" stroke="midnightblue" d="M852.66,-335.68C759.68,-321.91 580.57,-289.97 438.16,-232 395.97,-214.83 350.58,-188.29 321.57,-170.2"/>
<polygon fill="midnightblue" stroke="midnightblue" points="323.08,-167.01 312.76,-164.64 319.35,-172.94 323.08,-167.01"/>
</g>
<!-- Node13 -->
<g id="node13" class="node">
<title>Node13</title>
<g id="a_node13"><a xlink:href="overlapping__type_8h.html" target="_top" xlink:title=" ">
<polygon fill="white" stroke="black" points="782.66,-0.5 782.66,-30.5 895.66,-30.5 895.66,-0.5 782.66,-0.5"/>
<text text-anchor="start" x="790.66" y="-18.5" font-family="Helvetica,sans-Serif" font-size="10.00">maliput_object/api</text>
<text text-anchor="middle" x="839.16" y="-7.5" font-family="Helvetica,sans-Serif" font-size="10.00">/overlapping_type.h</text>
</a>
</g>
</g>
<!-- Node1&#45;&gt;Node13 -->
<g id="edge35" class="edge">
<title>Node1&#45;&gt;Node13</title>
<path fill="none" stroke="midnightblue" d="M977.86,-341.17C1111.47,-333.42 1412.16,-306.15 1412.16,-217.5 1412.16,-217.5 1412.16,-217.5 1412.16,-148.5 1412.16,-45.59 1056.75,-22.9 905.75,-17.91"/>
<polygon fill="midnightblue" stroke="midnightblue" points="905.78,-14.41 895.67,-17.59 905.56,-21.4 905.78,-14.41"/>
</g>
<!-- Node14 -->
<g id="node14" class="node">
<title>Node14</title>
<g id="a_node14"><a xlink:href="object__book_8h.html" target="_top" xlink:title=" ">
<polygon fill="white" stroke="black" points="559.66,-201.5 559.66,-231.5 666.66,-231.5 666.66,-201.5 559.66,-201.5"/>
<text text-anchor="start" x="567.66" y="-219.5" font-family="Helvetica,sans-Serif" font-size="10.00">maliput_object/api</text>
<text text-anchor="middle" x="613.16" y="-208.5" font-family="Helvetica,sans-Serif" font-size="10.00">/object_book.h</text>
</a>
</g>
</g>
<!-- Node1&#45;&gt;Node14 -->
<g id="edge16" class="edge">
<title>Node1&#45;&gt;Node14</title>
<path fill="none" stroke="midnightblue" d="M867.45,-335.44C832.43,-328.21 784.2,-316.25 744.16,-299 705.88,-282.5 665.72,-255.94 640.12,-237.65"/>
<polygon fill="midnightblue" stroke="midnightblue" points="641.86,-234.58 631.7,-231.55 637.75,-240.25 641.86,-234.58"/>
</g>
<!-- Node17 -->
<g id="node17" class="node">
<title>Node17</title>
<g id="a_node17"><a xlink:href="object__query_8h.html" target="_top" xlink:title=" ">
<polygon fill="white" stroke="black" points="861.66,-268.5 861.66,-298.5 968.66,-298.5 968.66,-268.5 861.66,-268.5"/>
<text text-anchor="start" x="869.66" y="-286.5" font-family="Helvetica,sans-Serif" font-size="10.00">maliput_object/api</text>
<text text-anchor="middle" x="915.16" y="-275.5" font-family="Helvetica,sans-Serif" font-size="10.00">/object_query.h</text>
</a>
</g>
</g>
<!-- Node1&#45;&gt;Node17 -->
<g id="edge25" class="edge">
<title>Node1&#45;&gt;Node17</title>
<path fill="none" stroke="midnightblue" d="M915.16,-335.48C915.16,-328.47 915.16,-318.19 915.16,-308.7"/>
<polygon fill="midnightblue" stroke="midnightblue" points="918.66,-308.52 915.16,-298.52 911.66,-308.52 918.66,-308.52"/>
</g>
<!-- Node7&#45;&gt;Node2 -->
<g id="edge9" class="edge">
<title>Node7&#45;&gt;Node2</title>
<path fill="none" stroke="midnightblue" d="M344.93,-140.85C438.3,-127.57 628.23,-100.56 709.67,-88.97"/>
<polygon fill="midnightblue" stroke="midnightblue" points="710.56,-92.38 719.97,-87.51 709.57,-85.45 710.56,-92.38"/>
</g>
<!-- Node7&#45;&gt;Node5 -->
<g id="edge12" class="edge">
<title>Node7&#45;&gt;Node5</title>
<path fill="none" stroke="midnightblue" d="M295.93,-134.23C302.43,-116.58 315.55,-86.49 335.16,-67 348.57,-53.68 366.21,-43.01 382.65,-34.96"/>
<polygon fill="midnightblue" stroke="midnightblue" points="384.57,-37.93 392.15,-30.53 381.61,-31.59 384.57,-37.93"/>
</g>
<!-- Node8 -->
<g id="node8" class="node">
<title>Node8</title>
<g id="a_node8"><a xlink:title=" ">
<polygon fill="white" stroke="#bfbfbf" points="250.16,-73 250.16,-92 288.16,-92 288.16,-73 250.16,-73"/>
<text text-anchor="middle" x="269.16" y="-80" font-family="Helvetica,sans-Serif" font-size="10.00">map</text>
</a>
</g>
</g>
<!-- Node7&#45;&gt;Node8 -->
<g id="edge7" class="edge">
<title>Node7&#45;&gt;Node8</title>
<path fill="none" stroke="midnightblue" d="M286.39,-134.4C283.16,-124.86 278.87,-112.18 275.38,-101.86"/>
<polygon fill="midnightblue" stroke="midnightblue" points="278.63,-100.54 272.11,-92.19 272,-102.79 278.63,-100.54"/>
</g>
<!-- Node9 -->
<g id="node9" class="node">
<title>Node9</title>
<g id="a_node9"><a xlink:title=" ">
<polygon fill="white" stroke="#bfbfbf" points="344.16,-73 344.16,-92 402.16,-92 402.16,-73 344.16,-73"/>
<text text-anchor="middle" x="373.16" y="-80" font-family="Helvetica,sans-Serif" font-size="10.00">memory</text>
</a>
</g>
</g>
<!-- Node7&#45;&gt;Node9 -->
<g id="edge8" class="edge">
<title>Node7&#45;&gt;Node9</title>
<path fill="none" stroke="midnightblue" d="M308.96,-134.4C322.25,-123.86 340.39,-109.48 354,-98.69"/>
<polygon fill="midnightblue" stroke="midnightblue" points="356.53,-101.15 362.2,-92.19 352.19,-95.66 356.53,-101.15"/>
</g>
<!-- Node10 -->
<g id="node10" class="node">
<title>Node10</title>
<g id="a_node10"><a xlink:title=" ">
<polygon fill="white" stroke="#bfbfbf" points="30.16,-73 30.16,-92 74.16,-92 74.16,-73 30.16,-73"/>
<text text-anchor="middle" x="52.16" y="-80" font-family="Helvetica,sans-Serif" font-size="10.00">string</text>
</a>
</g>
</g>
<!-- Node7&#45;&gt;Node10 -->
<g id="edge10" class="edge">
<title>Node7&#45;&gt;Node10</title>
<path fill="none" stroke="midnightblue" d="M237.31,-138.5C194.81,-129.88 134.35,-115.98 83.16,-98 81.55,-97.43 79.9,-96.81 78.25,-96.15"/>
<polygon fill="midnightblue" stroke="midnightblue" points="79.53,-92.89 68.97,-92.1 76.73,-99.3 79.53,-92.89"/>
</g>
<!-- Node11 -->
<g id="node11" class="node">
<title>Node11</title>
<g id="a_node11"><a xlink:title=" ">
<polygon fill="white" stroke="#bfbfbf" points="92.16,-67.5 92.16,-97.5 232.16,-97.5 232.16,-67.5 92.16,-67.5"/>
<text text-anchor="start" x="100.16" y="-85.5" font-family="Helvetica,sans-Serif" font-size="10.00">maliput/api/type_specific</text>
<text text-anchor="middle" x="162.16" y="-74.5" font-family="Helvetica,sans-Serif" font-size="10.00">_identifier.h</text>
</a>
</g>
</g>
<!-- Node7&#45;&gt;Node11 -->
<g id="edge11" class="edge">
<title>Node7&#45;&gt;Node11</title>
<path fill="none" stroke="midnightblue" d="M263.17,-134.4C244.41,-124.94 219.5,-112.39 199.11,-102.12"/>
<polygon fill="midnightblue" stroke="midnightblue" points="200.61,-98.95 190.1,-97.58 197.46,-105.2 200.61,-98.95"/>
</g>
<!-- Node12 -->
<g id="node12" class="node">
<title>Node12</title>
<g id="a_node12"><a xlink:href="bounding__region_8h.html" target="_top" xlink:title=" ">
<polygon fill="white" stroke="black" points="501.16,-67.5 501.16,-97.5 611.16,-97.5 611.16,-67.5 501.16,-67.5"/>
<text text-anchor="start" x="509.16" y="-85.5" font-family="Helvetica,sans-Serif" font-size="10.00">maliput_object/api</text>
<text text-anchor="middle" x="556.16" y="-74.5" font-family="Helvetica,sans-Serif" font-size="10.00">/bounding_region.h</text>
</a>
</g>
</g>
<!-- Node7&#45;&gt;Node12 -->
<g id="edge13" class="edge">
<title>Node7&#45;&gt;Node12</title>
<path fill="none" stroke="midnightblue" d="M344.79,-135.35C386.97,-125 445.92,-110.54 490.85,-99.52"/>
<polygon fill="midnightblue" stroke="midnightblue" points="491.92,-102.86 500.79,-97.08 490.25,-96.06 491.92,-102.86"/>
</g>
<!-- Node12&#45;&gt;Node5 -->
<g id="edge14" class="edge">
<title>Node12&#45;&gt;Node5</title>
<path fill="none" stroke="midnightblue" d="M528.82,-67.4C510.58,-57.98 486.38,-45.5 466.52,-35.26"/>
<polygon fill="midnightblue" stroke="midnightblue" points="467.94,-32.05 457.45,-30.58 464.73,-38.27 467.94,-32.05"/>
</g>
<!-- Node12&#45;&gt;Node13 -->
<g id="edge15" class="edge">
<title>Node12&#45;&gt;Node13</title>
<path fill="none" stroke="midnightblue" d="M611.4,-68.81C657.6,-58.2 723.64,-43.03 772.72,-31.76"/>
<polygon fill="midnightblue" stroke="midnightblue" points="773.65,-35.14 782.61,-29.49 772.08,-28.32 773.65,-35.14"/>
</g>
<!-- Node14&#45;&gt;Node2 -->
<g id="edge19" class="edge">
<title>Node14&#45;&gt;Node2</title>
<path fill="none" stroke="midnightblue" d="M643.49,-201.37C660.31,-192.53 680.86,-179.98 696.16,-165 715.41,-146.16 730.97,-118.91 739.89,-101.2"/>
<polygon fill="midnightblue" stroke="midnightblue" points="743.13,-102.53 744.36,-92.01 736.84,-99.47 743.13,-102.53"/>
</g>
<!-- Node14&#45;&gt;Node5 -->
<g id="edge21" class="edge">
<title>Node14&#45;&gt;Node5</title>
<path fill="none" stroke="midnightblue" d="M559.58,-207.85C511.72,-199.8 446.81,-185.44 431.16,-165 403.57,-128.95 413.46,-72.23 422.33,-40.34"/>
<polygon fill="midnightblue" stroke="midnightblue" points="425.75,-41.12 425.24,-30.54 419.04,-39.13 425.75,-41.12"/>
</g>
<!-- Node14&#45;&gt;Node7 -->
<g id="edge23" class="edge">
<title>Node14&#45;&gt;Node7</title>
<path fill="none" stroke="midnightblue" d="M559.6,-205.07C508.17,-195.01 428.3,-179.24 359.16,-165 357.72,-164.7 356.27,-164.4 354.8,-164.1"/>
<polygon fill="midnightblue" stroke="midnightblue" points="355.48,-160.66 344.97,-162.05 354.05,-167.52 355.48,-160.66"/>
</g>
<!-- Node14&#45;&gt;Node9 -->
<g id="edge18" class="edge">
<title>Node14&#45;&gt;Node9</title>
<path fill="none" stroke="midnightblue" d="M559.44,-209.16C503.31,-201.49 420.26,-186.82 397.16,-165 379.94,-148.73 374.88,-120.78 373.5,-102.22"/>
<polygon fill="midnightblue" stroke="midnightblue" points="376.99,-101.9 373.05,-92.07 370,-102.22 376.99,-101.9"/>
</g>
<!-- Node14&#45;&gt;Node12 -->
<g id="edge22" class="edge">
<title>Node14&#45;&gt;Node12</title>
<path fill="none" stroke="midnightblue" d="M620.04,-201.43C627.26,-184.51 636.16,-155.68 625.16,-134 618.68,-121.22 607.27,-110.89 595.57,-102.99"/>
<polygon fill="midnightblue" stroke="midnightblue" points="597.4,-100.01 587.07,-97.66 593.69,-105.94 597.4,-100.01"/>
</g>
<!-- Node14&#45;&gt;Node13 -->
<g id="edge24" class="edge">
<title>Node14&#45;&gt;Node13</title>
<path fill="none" stroke="midnightblue" d="M621.17,-201.09C639.93,-167.75 686.94,-86.66 711.16,-67 729.1,-52.45 751.75,-41.68 772.99,-33.92"/>
<polygon fill="midnightblue" stroke="midnightblue" points="774.34,-37.16 782.63,-30.56 772.03,-30.55 774.34,-37.16"/>
</g>
<!-- Node15 -->
<g id="node15" class="node">
<title>Node15</title>
<g id="a_node15"><a xlink:title=" ">
<polygon fill="white" stroke="#bfbfbf" points="550.66,-140 550.66,-159 615.66,-159 615.66,-140 550.66,-140"/>
<text text-anchor="middle" x="583.16" y="-147" font-family="Helvetica,sans-Serif" font-size="10.00">functional</text>
</a>
</g>
</g>
<!-- Node14&#45;&gt;Node15 -->
<g id="edge17" class="edge">
<title>Node14&#45;&gt;Node15</title>
<path fill="none" stroke="midnightblue" d="M606.66,-201.4C602.21,-191.76 596.28,-178.91 591.49,-168.54"/>
<polygon fill="midnightblue" stroke="midnightblue" points="594.55,-166.81 587.18,-159.19 588.19,-169.74 594.55,-166.81"/>
</g>
<!-- Node16 -->
<g id="node16" class="node">
<title>Node16</title>
<g id="a_node16"><a xlink:title=" ">
<polygon fill="white" stroke="#bfbfbf" points="439.66,-140 439.66,-159 532.66,-159 532.66,-140 439.66,-140"/>
<text text-anchor="middle" x="486.16" y="-147" font-family="Helvetica,sans-Serif" font-size="10.00">unordered_map</text>
</a>
</g>
</g>
<!-- Node14&#45;&gt;Node16 -->
<g id="edge20" class="edge">
<title>Node14&#45;&gt;Node16</title>
<path fill="none" stroke="midnightblue" d="M585.61,-201.4C563.72,-190.19 533.33,-174.64 511.93,-163.69"/>
<polygon fill="midnightblue" stroke="midnightblue" points="513.28,-160.45 502.79,-159.01 510.09,-166.68 513.28,-160.45"/>
</g>
<!-- Node17&#45;&gt;Node2 -->
<g id="edge26" class="edge">
<title>Node17&#45;&gt;Node2</title>
<path fill="none" stroke="midnightblue" d="M875.91,-268.34C857.2,-260.04 835.59,-248.01 820.16,-232 817.68,-229.42 775.08,-140.13 756.6,-101.27"/>
<polygon fill="midnightblue" stroke="midnightblue" points="759.73,-99.69 752.27,-92.16 753.4,-102.69 759.73,-99.69"/>
</g>
<!-- Node17&#45;&gt;Node3 -->
<g id="edge27" class="edge">
<title>Node17&#45;&gt;Node3</title>
<path fill="none" stroke="midnightblue" d="M944.02,-268.4C967.05,-257.14 999.05,-241.5 1021.49,-230.54"/>
<polygon fill="midnightblue" stroke="midnightblue" points="1023.31,-233.54 1030.76,-226.01 1020.24,-227.25 1023.31,-233.54"/>
</g>
<!-- Node17&#45;&gt;Node4 -->
<g id="edge29" class="edge">
<title>Node17&#45;&gt;Node4</title>
<path fill="none" stroke="midnightblue" d="M968.8,-268.56C1014.75,-256.61 1080.07,-239.63 1122.53,-228.59"/>
<polygon fill="midnightblue" stroke="midnightblue" points="1123.48,-231.95 1132.28,-226.05 1121.72,-225.18 1123.48,-231.95"/>
</g>
<!-- Node17&#45;&gt;Node5 -->
<g id="edge30" class="edge">
<title>Node17&#45;&gt;Node5</title>
<path fill="none" stroke="midnightblue" d="M893.41,-268.49C880.61,-259.36 864.89,-246.47 854.16,-232 806.84,-168.13 848.06,-115.61 785.16,-67 743.45,-34.75 601.5,-23.07 510.23,-18.86"/>
<polygon fill="midnightblue" stroke="midnightblue" points="510.33,-15.36 500.19,-18.41 510.02,-22.35 510.33,-15.36"/>
</g>
<!-- Node17&#45;&gt;Node6 -->
<g id="edge31" class="edge">
<title>Node17&#45;&gt;Node6</title>
<path fill="none" stroke="midnightblue" d="M968.68,-275.3C1034.93,-266.2 1151.13,-249.56 1250.16,-232 1256.91,-230.8 1263.99,-229.46 1270.97,-228.09"/>
<polygon fill="midnightblue" stroke="midnightblue" points="1271.94,-231.46 1281.06,-226.07 1270.56,-224.6 1271.94,-231.46"/>
</g>
<!-- Node17&#45;&gt;Node7 -->
<g id="edge32" class="edge">
<title>Node17&#45;&gt;Node7</title>
<path fill="none" stroke="midnightblue" d="M861.62,-277.88C790.2,-271.07 660.1,-256.45 551.16,-232 475.5,-215.02 390.12,-186.36 338.5,-167.95"/>
<polygon fill="midnightblue" stroke="midnightblue" points="339.55,-164.61 328.95,-164.52 337.18,-171.2 339.55,-164.61"/>
</g>
<!-- Node17&#45;&gt;Node13 -->
<g id="edge34" class="edge">
<title>Node17&#45;&gt;Node13</title>
<path fill="none" stroke="midnightblue" d="M941.72,-268.47C955,-259.88 969.78,-247.55 977.16,-232 983.08,-219.56 981.51,-214.07 977.16,-201 954.49,-132.83 895.71,-69.5 862.64,-37.77"/>
<polygon fill="midnightblue" stroke="midnightblue" points="864.89,-35.09 855.22,-30.77 860.09,-40.18 864.89,-35.09"/>
</g>
<!-- Node17&#45;&gt;Node14 -->
<g id="edge33" class="edge">
<title>Node17&#45;&gt;Node14</title>
<path fill="none" stroke="midnightblue" d="M861.52,-270.95C809.82,-259.83 731.58,-242.99 676.77,-231.19"/>
<polygon fill="midnightblue" stroke="midnightblue" points="677.33,-227.73 666.82,-229.05 675.86,-234.57 677.33,-227.73"/>
</g>
<!-- Node18 -->
<g id="node18" class="node">
<title>Node18</title>
<g id="a_node18"><a xlink:title=" ">
<polygon fill="white" stroke="#bfbfbf" points="862.66,-207 862.66,-226 967.66,-226 967.66,-207 862.66,-207"/>
<text text-anchor="middle" x="915.16" y="-214" font-family="Helvetica,sans-Serif" font-size="10.00">maliput/api/lane.h</text>
</a>
</g>
</g>
<!-- Node17&#45;&gt;Node18 -->
<g id="edge28" class="edge">
<title>Node17&#45;&gt;Node18</title>
<path fill="none" stroke="midnightblue" d="M915.16,-268.4C915.16,-259.06 915.16,-246.71 915.16,-236.52"/>
<polygon fill="midnightblue" stroke="midnightblue" points="918.66,-236.19 915.16,-226.19 911.66,-236.19 918.66,-236.19"/>
</g>
</g>
</svg>
        <g id="navigator" transform="translate(0 0)" fill="#404254">
                <rect fill="#f2f5e9" fill-opacity="0.5" stroke="#606060" stroke-width=".5" x="0" y="0" width="60" height="60"/>
                <use id="zoomplus" xlink:href="#zoomPlus" x="17" y="9" onmousedown="handleZoom(evt,'in')"/>
                <use id="zoomminus" xlink:href="#zoomMin" x="42" y="9" onmousedown="handleZoom(evt,'out')"/>
                <use id="reset" xlink:href="#resetDef" x="30" y="36" onmousedown="handleReset()"/>
                <g id="arrowUp" xlink:href="#dirArrow" transform="translate(30 24)" onmousedown="handlePan(0,-1)">
                  <use xlink:href="#rim" fill="#404040">
                        <set attributeName="fill" to="#808080" begin="arrowUp.mouseover" end="arrowUp.mouseout"/>
                  </use>
                  <path fill="none" stroke="white" stroke-width="1.5" d="M0,-3.0v7 M-2.5,-0.5L0,-3.0L2.5,-0.5"/>
                </g>
                <g id="arrowRight" xlink:href="#dirArrow" transform="rotate(90) translate(36 -43)" onmousedown="handlePan(1,0)">
                  <use xlink:href="#rim" fill="#404040">
                        <set attributeName="fill" to="#808080" begin="arrowRight.mouseover" end="arrowRight.mouseout"/>
                  </use>
                  <path fill="none" stroke="white" stroke-width="1.5" d="M0,-3.0v7 M-2.5,-0.5L0,-3.0L2.5,-0.5"/>
                </g>
                <g id="arrowDown" xlink:href="#dirArrow" transform="rotate(180) translate(-30 -48)" onmousedown="handlePan(0,1)">
                  <use xlink:href="#rim" fill="#404040">
                        <set attributeName="fill" to="#808080" begin="arrowDown.mouseover" end="arrowDown.mouseout"/>
                  </use>
                  <path fill="none" stroke="white" stroke-width="1.5" d="M0,-3.0v7 M-2.5,-0.5L0,-3.0L2.5,-0.5"/>
                </g>
                <g id="arrowLeft" xlink:href="#dirArrow" transform="rotate(270) translate(-36 17)" onmousedown="handlePan(-1,0)">
                  <use xlink:href="#rim" fill="#404040">
                        <set attributeName="fill" to="#808080" begin="arrowLeft.mouseover" end="arrowLeft.mouseout"/>
                  </use>
                  <path fill="none" stroke="white" stroke-width="1.5" d="M0,-3.0v7 M-2.5,-0.5L0,-3.0L2.5,-0.5"/>
                </g>
        </g>
        <svg viewBox="0 0 15 15" width="100%" height="30px" preserveAspectRatio="xMaxYMin meet">
         <g id="arrow_out" transform="scale(0.3 0.3)">
          <a xlink:href="simple__object__query_8h__incl_org.svg" target="_base">
           <rect id="button" ry="5" rx="5" y="6" x="6" height="38" width="38"
                fill="#f2f5e9" fill-opacity="0.5" stroke="#606060" stroke-width="1.0"/>
           <path id="arrow"
             d="M 11.500037,31.436501 C 11.940474,20.09759 22.043105,11.32322 32.158766,21.979434 L 37.068811,17.246167 C 37.068811,17.246167 37.088388,32 37.088388,32 L 22.160133,31.978069 C 22.160133,31.978069 26.997745,27.140456 26.997745,27.140456 C 18.528582,18.264221 13.291696,25.230495 11.500037,31.436501 z"
             style="fill:#404040;"/>
          </a>
         </g>
        </svg>
</svg>
