<?xml version="1.0" encoding="UTF-8" standalone="no"?>
<!DOCTYPE svg PUBLIC "-//W3C//DTD SVG 1.1//EN"
 "http://www.w3.org/Graphics/SVG/1.1/DTD/svg11.dtd">
<!-- Generated by graphviz version 2.43.0 (0)
 -->
<!-- Title: src Pages: 1 -->
<svg width="488pt" height="204pt"
 viewBox="0.00 0.00 488.00 204.00" xmlns="http://www.w3.org/2000/svg" xmlns:xlink="http://www.w3.org/1999/xlink">
<g id="graph0" class="graph" transform="scale(1 1) rotate(0) translate(4 200)">
<title>src</title>
<polygon fill="white" stroke="transparent" points="-4,4 -4,-200 484,-200 484,4 -4,4"/>
<g id="clust1" class="cluster">
<title>clusterdir_68267d1309a1af8e8297ef4c3efbcdba</title>
<g id="a_clust1"><a xlink:href="dir_68267d1309a1af8e8297ef4c3efbcdba.html" target="_top">
<polygon fill="#eeeeff" stroke="black" points="8,-64 8,-188 472,-188 472,-64 8,-64"/>
</a>
</g>
</g>
<!-- dir_68267d1309a1af8e8297ef4c3efbcdba -->
<g id="node1" class="node">
<title>dir_68267d1309a1af8e8297ef4c3efbcdba</title>
<text text-anchor="middle" x="437" y="-159.5" font-family="Helvetica,sans-Serif" font-size="10.00">src</text>
</g>
<!-- dir_0af1587c8378955de40f48b4bd1869f0 -->
<g id="node2" class="node">
<title>dir_0af1587c8378955de40f48b4bd1869f0</title>
<g id="a_node2"><a xlink:href="dir_0af1587c8378955de40f48b4bd1869f0.html" target="_top" xlink:title="base">
<polygon fill="white" stroke="black" points="81,-108 27,-108 27,-72 81,-72 81,-108"/>
<text text-anchor="middle" x="54" y="-87.5" font-family="Helvetica,sans-Serif" font-size="10.00">base</text>
</a>
</g>
</g>
<!-- dir_d44c64559bbebec7f509842c48db8b23 -->
<g id="node8" class="node">
<title>dir_d44c64559bbebec7f509842c48db8b23</title>
<g id="a_node8"><a xlink:href="dir_d44c64559bbebec7f509842c48db8b23.html" target="_top" xlink:title="include">
<polygon fill="white" stroke="red" points="202,-36 148,-36 148,0 202,0 202,-36"/>
<text text-anchor="middle" x="175" y="-15.5" font-family="Helvetica,sans-Serif" font-size="10.00">include</text>
</a>
</g>
</g>
<!-- dir_0af1587c8378955de40f48b4bd1869f0&#45;&gt;dir_d44c64559bbebec7f509842c48db8b23 -->
<g id="edge4" class="edge">
<title>dir_0af1587c8378955de40f48b4bd1869f0&#45;&gt;dir_d44c64559bbebec7f509842c48db8b23</title>
<path fill="none" stroke="black" d="M81.15,-73.29C98.28,-63.38 120.59,-50.48 139.16,-39.73"/>
<polygon fill="black" stroke="black" points="141.03,-42.69 147.94,-34.66 137.53,-36.63 141.03,-42.69"/>
<g id="a_edge4&#45;headlabel"><a xlink:href="dir_000013_000002.html" target="_top" xlink:title="1">
<text text-anchor="middle" x="139.34" y="-44.45" font-family="Helvetica,sans-Serif" font-size="10.00">1</text>
</a>
</g>
</g>
<!-- dir_3614a4769bf2e5108078b7811e118005 -->
<g id="node3" class="node">
<title>dir_3614a4769bf2e5108078b7811e118005</title>
<g id="a_node3"><a xlink:href="dir_3614a4769bf2e5108078b7811e118005.html" target="_top" xlink:title="builder">
<polygon fill="white" stroke="black" points="70,-180 16,-180 16,-144 70,-144 70,-180"/>
<text text-anchor="middle" x="43" y="-159.5" font-family="Helvetica,sans-Serif" font-size="10.00">builder</text>
</a>
</g>
</g>
<!-- dir_3614a4769bf2e5108078b7811e118005&#45;&gt;dir_0af1587c8378955de40f48b4bd1869f0 -->
<g id="edge1" class="edge">
<title>dir_3614a4769bf2e5108078b7811e118005&#45;&gt;dir_0af1587c8378955de40f48b4bd1869f0</title>
<path fill="none" stroke="black" d="M45.72,-143.7C46.93,-135.98 48.39,-126.71 49.74,-118.11"/>
<polygon fill="black" stroke="black" points="53.22,-118.53 51.31,-108.1 46.3,-117.44 53.22,-118.53"/>
<g id="a_edge1&#45;headlabel"><a xlink:href="dir_000001_000013.html" target="_top" xlink:title="2">
<text text-anchor="middle" x="55.46" y="-120.02" font-family="Helvetica,sans-Serif" font-size="10.00">2</text>
</a>
</g>
</g>
<!-- dir_3614a4769bf2e5108078b7811e118005&#45;&gt;dir_d44c64559bbebec7f509842c48db8b23 -->
<g id="edge2" class="edge">
<title>dir_3614a4769bf2e5108078b7811e118005&#45;&gt;dir_d44c64559bbebec7f509842c48db8b23</title>
<path fill="none" stroke="black" d="M58.92,-143.87C82.11,-118.92 125.31,-72.45 151.97,-43.77"/>
<polygon fill="black" stroke="black" points="154.78,-45.9 159.02,-36.19 149.65,-41.13 154.78,-45.9"/>
<g id="a_edge2&#45;headlabel"><a xlink:href="dir_000001_000002.html" target="_top" xlink:title="1">
<text text-anchor="middle" x="154.41" y="-47.96" font-family="Helvetica,sans-Serif" font-size="10.00">1</text>
</a>
</g>
</g>
<!-- dir_405fd32de3649961a5f009c7a3fe84df -->
<g id="node4" class="node">
<title>dir_405fd32de3649961a5f009c7a3fe84df</title>
<g id="a_node4"><a xlink:href="dir_405fd32de3649961a5f009c7a3fe84df.html" target="_top" xlink:title="geometry">
<polygon fill="white" stroke="red" points="152,-180 88,-180 88,-144 152,-144 152,-180"/>
<text text-anchor="middle" x="120" y="-159.5" font-family="Helvetica,sans-Serif" font-size="10.00">geometry</text>
</a>
</g>
</g>
<!-- dir_405fd32de3649961a5f009c7a3fe84df&#45;&gt;dir_d44c64559bbebec7f509842c48db8b23 -->
<g id="edge3" class="edge">
<title>dir_405fd32de3649961a5f009c7a3fe84df&#45;&gt;dir_d44c64559bbebec7f509842c48db8b23</title>
<path fill="none" stroke="black" d="M126.63,-143.87C136.09,-119.46 153.53,-74.43 164.68,-45.64"/>
<polygon fill="black" stroke="black" points="167.99,-46.78 168.34,-36.19 161.47,-44.25 167.99,-46.78"/>
<g id="a_edge3&#45;headlabel"><a xlink:href="dir_000009_000002.html" target="_top" xlink:title="4">
<text text-anchor="middle" x="169.34" y="-48.66" font-family="Helvetica,sans-Serif" font-size="10.00">4</text>
</a>
</g>
</g>
<!-- dir_1f6e0c4656fa8537bb95d4658659e347 -->
<g id="node5" class="node">
<title>dir_1f6e0c4656fa8537bb95d4658659e347</title>
<g id="a_node5"><a xlink:href="dir_1f6e0c4656fa8537bb95d4658659e347.html" target="_top" xlink:title="loader">
<polygon fill="white" stroke="black" points="224,-180 170,-180 170,-144 224,-144 224,-180"/>
<text text-anchor="middle" x="197" y="-159.5" font-family="Helvetica,sans-Serif" font-size="10.00">loader</text>
</a>
</g>
</g>
<!-- dir_1f6e0c4656fa8537bb95d4658659e347&#45;&gt;dir_d44c64559bbebec7f509842c48db8b23 -->
<g id="edge5" class="edge">
<title>dir_1f6e0c4656fa8537bb95d4658659e347&#45;&gt;dir_d44c64559bbebec7f509842c48db8b23</title>
<path fill="none" stroke="black" d="M194.35,-143.87C190.6,-119.67 183.71,-75.21 179.24,-46.39"/>
<polygon fill="black" stroke="black" points="182.65,-45.54 177.66,-36.19 175.74,-46.61 182.65,-45.54"/>
<g id="a_edge5&#45;headlabel"><a xlink:href="dir_000005_000002.html" target="_top" xlink:title="5">
<text text-anchor="middle" x="186.01" y="-46.15" font-family="Helvetica,sans-Serif" font-size="10.00">5</text>
</a>
</g>
</g>
<!-- dir_6cd8491d143eb218b70983dbdb3c58bc -->
<g id="node6" class="node">
<title>dir_6cd8491d143eb218b70983dbdb3c58bc</title>
<g id="a_node6"><a xlink:href="dir_6cd8491d143eb218b70983dbdb3c58bc.html" target="_top" xlink:title="parser">
<polygon fill="white" stroke="black" points="296,-180 242,-180 242,-144 296,-144 296,-180"/>
<text text-anchor="middle" x="269" y="-159.5" font-family="Helvetica,sans-Serif" font-size="10.00">parser</text>
</a>
</g>
</g>
<!-- dir_6cd8491d143eb218b70983dbdb3c58bc&#45;&gt;dir_d44c64559bbebec7f509842c48db8b23 -->
<g id="edge7" class="edge">
<title>dir_6cd8491d143eb218b70983dbdb3c58bc&#45;&gt;dir_d44c64559bbebec7f509842c48db8b23</title>
<path fill="none" stroke="black" d="M257.66,-143.87C241.36,-119.24 211.17,-73.64 192.13,-44.88"/>
<polygon fill="black" stroke="black" points="194.82,-42.6 186.38,-36.19 188.98,-46.46 194.82,-42.6"/>
<g id="a_edge7&#45;headlabel"><a xlink:href="dir_000007_000002.html" target="_top" xlink:title="2">
<text text-anchor="middle" x="199.17" y="-41.53" font-family="Helvetica,sans-Serif" font-size="10.00">2</text>
</a>
</g>
</g>
<!-- dir_3e68055c34864a2b4cbb34a51e24c6d2 -->
<g id="node7" class="node">
<title>dir_3e68055c34864a2b4cbb34a51e24c6d2</title>
<g id="a_node7"><a xlink:href="dir_3e68055c34864a2b4cbb34a51e24c6d2.html" target="_top" xlink:title="test_utilities">
<polygon fill="white" stroke="black" points="391.5,-180 314.5,-180 314.5,-144 391.5,-144 391.5,-180"/>
<text text-anchor="middle" x="353" y="-159.5" font-family="Helvetica,sans-Serif" font-size="10.00">test_utilities</text>
</a>
</g>
</g>
<!-- dir_3e68055c34864a2b4cbb34a51e24c6d2&#45;&gt;dir_d44c64559bbebec7f509842c48db8b23 -->
<g id="edge6" class="edge">
<title>dir_3e68055c34864a2b4cbb34a51e24c6d2&#45;&gt;dir_d44c64559bbebec7f509842c48db8b23</title>
<path fill="none" stroke="black" d="M331.86,-143.7C307.97,-124.2 267.86,-91.61 233,-64 224.05,-56.91 214.26,-49.27 205.32,-42.34"/>
<polygon fill="black" stroke="black" points="207.44,-39.56 197.39,-36.21 203.16,-45.09 207.44,-39.56"/>
<g id="a_edge6&#45;headlabel"><a xlink:href="dir_000014_000002.html" target="_top" xlink:title="1">
<text text-anchor="middle" x="212.02" y="-37.01" font-family="Helvetica,sans-Serif" font-size="10.00">1</text>
</a>
</g>
</g>
</g>
</svg>
