<?xml version="1.0" encoding="UTF-8" standalone="no"?>
<!DOCTYPE svg PUBLIC "-//W3C//DTD SVG 1.1//EN"
 "http://www.w3.org/Graphics/SVG/1.1/DTD/svg11.dtd">
<!-- Generated by graphviz version 2.43.0 (0)
 -->
<!-- Title: geometry.cc Pages: 1 -->
<!--zoomable 229 -->
<svg id="main" version="1.1" xmlns="http://www.w3.org/2000/svg" xmlns:xlink="http://www.w3.org/1999/xlink" xml:space="preserve" onload="init(evt)">
<style type="text/css"><![CDATA[
.edge:hover path { stroke: red; }
.edge:hover polygon { stroke: red; fill: red; }
]]></style>
<script type="text/javascript"><![CDATA[
var edges = document.getElementsByTagName('g');
if (edges && edges.length) {
  for (var i=0;i<edges.length;i++) {
    if (edges[i].id.substr(0,4)=='edge') {
      edges[i].setAttribute('class','edge');
    }
  }
}
]]></script>
        <defs>
                <circle id="rim" cx="0" cy="0" r="7"/>
                <circle id="rim2" cx="0" cy="0" r="3.5"/>
                <g id="zoomPlus">
                        <use xlink:href="#rim" fill="#404040">
                                <set attributeName="fill" to="#808080" begin="zoomplus.mouseover" end="zoomplus.mouseout"/>
                        </use>
                        <path d="M-4,0h8M0,-4v8" fill="none" stroke="white" stroke-width="1.5" pointer-events="none"/>
                </g>
                <g id="zoomMin">
                        <use xlink:href="#rim" fill="#404040">
                                <set attributeName="fill" to="#808080" begin="zoomminus.mouseover" end="zoomminus.mouseout"/>
                        </use>
                        <path d="M-4,0h8" fill="none" stroke="white" stroke-width="1.5" pointer-events="none"/>
                </g>
                <g id="dirArrow">
                        <path fill="none" stroke="white" stroke-width="1.5" d="M0,-3.0v7 M-2.5,-0.5L0,-3.0L2.5,-0.5"/>
                </g>
               <g id="resetDef">
                       <use xlink:href="#rim2" fill="#404040">
                               <set attributeName="fill" to="#808080" begin="reset.mouseover" end="reset.mouseout"/>
                       </use>
               </g>
        </defs>

<script type="text/javascript">
var viewWidth = 1100;
var viewHeight = 229;
var sectionId = 'dynsection-0';
</script>
<script xlink:href="svgpan.js"/>
<svg id="graph" class="graph">
<g id="viewport">
<title>geometry.cc</title>
<polygon fill="white" stroke="transparent" points="-4,4 -4,-225 1096,-225 1096,4 -4,4"/>
<!-- Node1 -->
<g id="node1" class="node">
<title>Node1</title>
<g id="a_node1"><a xlink:title=" ">
<polygon fill="#bfbfbf" stroke="black" points="798.5,-201.5 798.5,-220.5 874.5,-220.5 874.5,-201.5 798.5,-201.5"/>
<text text-anchor="middle" x="836.5" y="-208.5" font-family="Helvetica,sans-Serif" font-size="10.00">geometry.cc</text>
</a>
</g>
</g>
<!-- Node2 -->
<g id="node2" class="node">
<title>Node2</title>
<g id="a_node2"><a xlink:href="geometry_8h.html" target="_top" xlink:title=" ">
<polygon fill="white" stroke="black" points="374.5,-134.5 374.5,-164.5 516.5,-164.5 516.5,-134.5 374.5,-134.5"/>
<text text-anchor="start" x="382.5" y="-152.5" font-family="Helvetica,sans-Serif" font-size="10.00">maliput_sparse/geometry</text>
<text text-anchor="middle" x="445.5" y="-141.5" font-family="Helvetica,sans-Serif" font-size="10.00">/utility/geometry.h</text>
</a>
</g>
</g>
<!-- Node1&#45;&gt;Node2 -->
<g id="edge1" class="edge">
<title>Node1&#45;&gt;Node2</title>
<path fill="none" stroke="midnightblue" d="M798.3,-204.19C735.7,-194.66 609.94,-175.52 526.73,-162.86"/>
<polygon fill="midnightblue" stroke="midnightblue" points="527.22,-159.4 516.81,-161.35 526.16,-166.32 527.22,-159.4"/>
</g>
<!-- Node5 -->
<g id="node5" class="node">
<title>Node5</title>
<g id="a_node5"><a xlink:title=" ">
<polygon fill="white" stroke="#bfbfbf" points="906,-6 906,-25 953,-25 953,-6 906,-6"/>
<text text-anchor="middle" x="929.5" y="-13" font-family="Helvetica,sans-Serif" font-size="10.00">cmath</text>
</a>
</g>
</g>
<!-- Node1&#45;&gt;Node5 -->
<g id="edge14" class="edge">
<title>Node1&#45;&gt;Node5</title>
<path fill="none" stroke="midnightblue" d="M824.96,-201.49C815.02,-193.38 801.38,-180.18 795.5,-165 790.52,-152.15 789.81,-146.55 795.5,-134 817.58,-85.26 870.98,-48.75 903.3,-30.19"/>
<polygon fill="midnightblue" stroke="midnightblue" points="905.18,-33.15 912.21,-25.23 901.77,-27.04 905.18,-33.15"/>
</g>
<!-- Node14 -->
<g id="node14" class="node">
<title>Node14</title>
<g id="a_node14"><a xlink:title=" ">
<polygon fill="white" stroke="#bfbfbf" points="804.5,-140 804.5,-159 868.5,-159 868.5,-140 804.5,-140"/>
<text text-anchor="middle" x="836.5" y="-147" font-family="Helvetica,sans-Serif" font-size="10.00">algorithm</text>
</a>
</g>
</g>
<!-- Node1&#45;&gt;Node14 -->
<g id="edge13" class="edge">
<title>Node1&#45;&gt;Node14</title>
<path fill="none" stroke="midnightblue" d="M836.5,-201.48C836.5,-193.08 836.5,-179.98 836.5,-169.16"/>
<polygon fill="midnightblue" stroke="midnightblue" points="840,-169.01 836.5,-159.01 833,-169.01 840,-169.01"/>
</g>
<!-- Node15 -->
<g id="node15" class="node">
<title>Node15</title>
<g id="a_node15"><a xlink:title=" ">
<polygon fill="white" stroke="#bfbfbf" points="886.5,-140 886.5,-159 942.5,-159 942.5,-140 886.5,-140"/>
<text text-anchor="middle" x="914.5" y="-147" font-family="Helvetica,sans-Serif" font-size="10.00">numeric</text>
</a>
</g>
</g>
<!-- Node1&#45;&gt;Node15 -->
<g id="edge15" class="edge">
<title>Node1&#45;&gt;Node15</title>
<path fill="none" stroke="midnightblue" d="M847.68,-201.48C860.07,-192.02 880.29,-176.6 895.25,-165.19"/>
<polygon fill="midnightblue" stroke="midnightblue" points="897.52,-167.86 903.35,-159.01 893.27,-162.29 897.52,-167.86"/>
</g>
<!-- Node16 -->
<g id="node16" class="node">
<title>Node16</title>
<g id="a_node16"><a xlink:title=" ">
<polygon fill="white" stroke="#bfbfbf" points="961,-134.5 961,-164.5 1092,-164.5 1092,-134.5 961,-134.5"/>
<text text-anchor="start" x="969" y="-152.5" font-family="Helvetica,sans-Serif" font-size="10.00">maliput/common/range</text>
<text text-anchor="middle" x="1026.5" y="-141.5" font-family="Helvetica,sans-Serif" font-size="10.00">_validator.h</text>
</a>
</g>
</g>
<!-- Node1&#45;&gt;Node16 -->
<g id="edge16" class="edge">
<title>Node1&#45;&gt;Node16</title>
<path fill="none" stroke="midnightblue" d="M863.72,-201.48C891.86,-192.66 936.55,-178.67 971.99,-167.57"/>
<polygon fill="midnightblue" stroke="midnightblue" points="973.22,-170.85 981.72,-164.52 971.13,-164.17 973.22,-170.85"/>
</g>
<!-- Node3 -->
<g id="node3" class="node">
<title>Node3</title>
<g id="a_node3"><a xlink:title=" ">
<polygon fill="white" stroke="#bfbfbf" points="300.5,-73 300.5,-92 356.5,-92 356.5,-73 300.5,-73"/>
<text text-anchor="middle" x="328.5" y="-80" font-family="Helvetica,sans-Serif" font-size="10.00">optional</text>
</a>
</g>
</g>
<!-- Node2&#45;&gt;Node3 -->
<g id="edge2" class="edge">
<title>Node2&#45;&gt;Node3</title>
<path fill="none" stroke="midnightblue" d="M420.11,-134.4C400.13,-123.29 372.46,-107.92 352.77,-96.98"/>
<polygon fill="midnightblue" stroke="midnightblue" points="354.25,-93.8 343.81,-92.01 350.85,-99.92 354.25,-93.8"/>
</g>
<!-- Node4 -->
<g id="node4" class="node">
<title>Node4</title>
<g id="a_node4"><a xlink:href="line__string_8h.html" target="_top" xlink:title=" ">
<polygon fill="white" stroke="black" points="374.5,-67.5 374.5,-97.5 516.5,-97.5 516.5,-67.5 374.5,-67.5"/>
<text text-anchor="start" x="382.5" y="-85.5" font-family="Helvetica,sans-Serif" font-size="10.00">maliput_sparse/geometry</text>
<text text-anchor="middle" x="445.5" y="-74.5" font-family="Helvetica,sans-Serif" font-size="10.00">/line_string.h</text>
</a>
</g>
</g>
<!-- Node2&#45;&gt;Node4 -->
<g id="edge3" class="edge">
<title>Node2&#45;&gt;Node4</title>
<path fill="none" stroke="midnightblue" d="M445.5,-134.4C445.5,-126.64 445.5,-116.81 445.5,-107.86"/>
<polygon fill="midnightblue" stroke="midnightblue" points="449,-107.58 445.5,-97.58 442,-107.58 449,-107.58"/>
</g>
<!-- Node4&#45;&gt;Node5 -->
<g id="edge4" class="edge">
<title>Node4&#45;&gt;Node5</title>
<path fill="none" stroke="midnightblue" d="M516.65,-80.14C606.57,-76.93 765.45,-66.25 896.5,-31 898.79,-30.38 901.13,-29.63 903.46,-28.79"/>
<polygon fill="midnightblue" stroke="midnightblue" points="904.77,-32.04 912.73,-25.04 902.15,-25.55 904.77,-32.04"/>
</g>
<!-- Node6 -->
<g id="node6" class="node">
<title>Node6</title>
<g id="a_node6"><a xlink:title=" ">
<polygon fill="white" stroke="#bfbfbf" points="0,-6 0,-25 83,-25 83,-6 0,-6"/>
<text text-anchor="middle" x="41.5" y="-13" font-family="Helvetica,sans-Serif" font-size="10.00">initializer_list</text>
</a>
</g>
</g>
<!-- Node4&#45;&gt;Node6 -->
<g id="edge5" class="edge">
<title>Node4&#45;&gt;Node6</title>
<path fill="none" stroke="midnightblue" d="M374.43,-68.43C371.42,-67.94 368.43,-67.46 365.5,-67 244.15,-48.04 211.72,-56.18 91.5,-31 87.05,-30.07 82.42,-28.94 77.85,-27.74"/>
<polygon fill="midnightblue" stroke="midnightblue" points="78.61,-24.31 68.04,-25.01 76.74,-31.06 78.61,-24.31"/>
</g>
<!-- Node7 -->
<g id="node7" class="node">
<title>Node7</title>
<g id="a_node7"><a xlink:title=" ">
<polygon fill="white" stroke="#bfbfbf" points="101,-6 101,-25 154,-25 154,-6 101,-6"/>
<text text-anchor="middle" x="127.5" y="-13" font-family="Helvetica,sans-Serif" font-size="10.00">iterator</text>
</a>
</g>
</g>
<!-- Node4&#45;&gt;Node7 -->
<g id="edge6" class="edge">
<title>Node4&#45;&gt;Node7</title>
<path fill="none" stroke="midnightblue" d="M374.4,-68.6C371.39,-68.06 368.42,-67.52 365.5,-67 275.75,-50.87 251.15,-56.17 163.5,-31 161.06,-30.3 158.57,-29.49 156.08,-28.62"/>
<polygon fill="midnightblue" stroke="midnightblue" points="157.26,-25.33 146.67,-25.07 154.79,-31.88 157.26,-25.33"/>
</g>
<!-- Node8 -->
<g id="node8" class="node">
<title>Node8</title>
<g id="a_node8"><a xlink:title=" ">
<polygon fill="white" stroke="#bfbfbf" points="172.5,-6 172.5,-25 210.5,-25 210.5,-6 172.5,-6"/>
<text text-anchor="middle" x="191.5" y="-13" font-family="Helvetica,sans-Serif" font-size="10.00">map</text>
</a>
</g>
</g>
<!-- Node4&#45;&gt;Node8 -->
<g id="edge7" class="edge">
<title>Node4&#45;&gt;Node8</title>
<path fill="none" stroke="midnightblue" d="M374.25,-67.66C319.11,-56.56 247.55,-41.2 219.5,-31 218.26,-30.55 217,-30.05 215.74,-29.52"/>
<polygon fill="midnightblue" stroke="midnightblue" points="216.83,-26.17 206.29,-25.06 213.84,-32.5 216.83,-26.17"/>
</g>
<!-- Node9 -->
<g id="node9" class="node">
<title>Node9</title>
<g id="a_node9"><a xlink:title=" ">
<polygon fill="white" stroke="#bfbfbf" points="229,-6 229,-25 276,-25 276,-6 229,-6"/>
<text text-anchor="middle" x="252.5" y="-13" font-family="Helvetica,sans-Serif" font-size="10.00">vector</text>
</a>
</g>
</g>
<!-- Node4&#45;&gt;Node9 -->
<g id="edge8" class="edge">
<title>Node4&#45;&gt;Node9</title>
<path fill="none" stroke="midnightblue" d="M395.28,-67.46C363.25,-58.08 321.04,-44.95 284.5,-31 282.89,-30.39 281.25,-29.73 279.61,-29.05"/>
<polygon fill="midnightblue" stroke="midnightblue" points="280.85,-25.78 270.28,-25.02 278.07,-32.2 280.85,-25.78"/>
</g>
<!-- Node10 -->
<g id="node10" class="node">
<title>Node10</title>
<g id="a_node10"><a xlink:title=" ">
<polygon fill="white" stroke="#bfbfbf" points="294,-6 294,-25 437,-25 437,-6 294,-6"/>
<text text-anchor="middle" x="365.5" y="-13" font-family="Helvetica,sans-Serif" font-size="10.00">maliput/common/logger.h</text>
</a>
</g>
</g>
<!-- Node4&#45;&gt;Node10 -->
<g id="edge9" class="edge">
<title>Node4&#45;&gt;Node10</title>
<path fill="none" stroke="midnightblue" d="M428.14,-67.4C415.17,-56.86 397.47,-42.48 384.19,-31.69"/>
<polygon fill="midnightblue" stroke="midnightblue" points="386.17,-28.78 376.2,-25.19 381.76,-34.22 386.17,-28.78"/>
</g>
<!-- Node11 -->
<g id="node11" class="node">
<title>Node11</title>
<g id="a_node11"><a xlink:title=" ">
<polygon fill="white" stroke="#bfbfbf" points="455.5,-0.5 455.5,-30.5 595.5,-30.5 595.5,-0.5 455.5,-0.5"/>
<text text-anchor="start" x="463.5" y="-18.5" font-family="Helvetica,sans-Serif" font-size="10.00">maliput/common/maliput</text>
<text text-anchor="middle" x="525.5" y="-7.5" font-family="Helvetica,sans-Serif" font-size="10.00">_throw.h</text>
</a>
</g>
</g>
<!-- Node4&#45;&gt;Node11 -->
<g id="edge10" class="edge">
<title>Node4&#45;&gt;Node11</title>
<path fill="none" stroke="midnightblue" d="M462.86,-67.4C473.76,-58.54 488.01,-46.96 500.16,-37.09"/>
<polygon fill="midnightblue" stroke="midnightblue" points="502.62,-39.6 508.18,-30.58 498.21,-34.17 502.62,-39.6"/>
</g>
<!-- Node12 -->
<g id="node12" class="node">
<title>Node12</title>
<g id="a_node12"><a xlink:title=" ">
<polygon fill="white" stroke="#bfbfbf" points="614,-6 614,-25 745,-25 745,-6 614,-6"/>
<text text-anchor="middle" x="679.5" y="-13" font-family="Helvetica,sans-Serif" font-size="10.00">maliput/math/kd_tree.h</text>
</a>
</g>
</g>
<!-- Node4&#45;&gt;Node12 -->
<g id="edge11" class="edge">
<title>Node4&#45;&gt;Node12</title>
<path fill="none" stroke="midnightblue" d="M495.99,-67.48C538.75,-55.6 599.27,-38.79 638.94,-27.77"/>
<polygon fill="midnightblue" stroke="midnightblue" points="640.1,-31.08 648.8,-25.03 638.22,-24.33 640.1,-31.08"/>
</g>
<!-- Node13 -->
<g id="node13" class="node">
<title>Node13</title>
<g id="a_node13"><a xlink:title=" ">
<polygon fill="white" stroke="#bfbfbf" points="763,-6 763,-25 888,-25 888,-6 763,-6"/>
<text text-anchor="middle" x="825.5" y="-13" font-family="Helvetica,sans-Serif" font-size="10.00">maliput/math/vector.h</text>
</a>
</g>
</g>
<!-- Node4&#45;&gt;Node13 -->
<g id="edge12" class="edge">
<title>Node4&#45;&gt;Node13</title>
<path fill="none" stroke="midnightblue" d="M516.58,-70.59C579.09,-60.82 672.48,-45.8 753.5,-31 760.24,-29.77 767.33,-28.42 774.31,-27.05"/>
<polygon fill="midnightblue" stroke="midnightblue" points="775.3,-30.42 784.43,-25.04 773.94,-23.55 775.3,-30.42"/>
</g>
</g>
</svg>
        <g id="navigator" transform="translate(0 0)" fill="#404254">
                <rect fill="#f2f5e9" fill-opacity="0.5" stroke="#606060" stroke-width=".5" x="0" y="0" width="60" height="60"/>
                <use id="zoomplus" xlink:href="#zoomPlus" x="17" y="9" onmousedown="handleZoom(evt,'in')"/>
                <use id="zoomminus" xlink:href="#zoomMin" x="42" y="9" onmousedown="handleZoom(evt,'out')"/>
                <use id="reset" xlink:href="#resetDef" x="30" y="36" onmousedown="handleReset()"/>
                <g id="arrowUp" xlink:href="#dirArrow" transform="translate(30 24)" onmousedown="handlePan(0,-1)">
                  <use xlink:href="#rim" fill="#404040">
                        <set attributeName="fill" to="#808080" begin="arrowUp.mouseover" end="arrowUp.mouseout"/>
                  </use>
                  <path fill="none" stroke="white" stroke-width="1.5" d="M0,-3.0v7 M-2.5,-0.5L0,-3.0L2.5,-0.5"/>
                </g>
                <g id="arrowRight" xlink:href="#dirArrow" transform="rotate(90) translate(36 -43)" onmousedown="handlePan(1,0)">
                  <use xlink:href="#rim" fill="#404040">
                        <set attributeName="fill" to="#808080" begin="arrowRight.mouseover" end="arrowRight.mouseout"/>
                  </use>
                  <path fill="none" stroke="white" stroke-width="1.5" d="M0,-3.0v7 M-2.5,-0.5L0,-3.0L2.5,-0.5"/>
                </g>
                <g id="arrowDown" xlink:href="#dirArrow" transform="rotate(180) translate(-30 -48)" onmousedown="handlePan(0,1)">
                  <use xlink:href="#rim" fill="#404040">
                        <set attributeName="fill" to="#808080" begin="arrowDown.mouseover" end="arrowDown.mouseout"/>
                  </use>
                  <path fill="none" stroke="white" stroke-width="1.5" d="M0,-3.0v7 M-2.5,-0.5L0,-3.0L2.5,-0.5"/>
                </g>
                <g id="arrowLeft" xlink:href="#dirArrow" transform="rotate(270) translate(-36 17)" onmousedown="handlePan(-1,0)">
                  <use xlink:href="#rim" fill="#404040">
                        <set attributeName="fill" to="#808080" begin="arrowLeft.mouseover" end="arrowLeft.mouseout"/>
                  </use>
                  <path fill="none" stroke="white" stroke-width="1.5" d="M0,-3.0v7 M-2.5,-0.5L0,-3.0L2.5,-0.5"/>
                </g>
        </g>
        <svg viewBox="0 0 15 15" width="100%" height="30px" preserveAspectRatio="xMaxYMin meet">
         <g id="arrow_out" transform="scale(0.3 0.3)">
          <a xlink:href="geometry_8cc__incl_org.svg" target="_base">
           <rect id="button" ry="5" rx="5" y="6" x="6" height="38" width="38"
                fill="#f2f5e9" fill-opacity="0.5" stroke="#606060" stroke-width="1.0"/>
           <path id="arrow"
             d="M 11.500037,31.436501 C 11.940474,20.09759 22.043105,11.32322 32.158766,21.979434 L 37.068811,17.246167 C 37.068811,17.246167 37.088388,32 37.088388,32 L 22.160133,31.978069 C 22.160133,31.978069 26.997745,27.140456 26.997745,27.140456 C 18.528582,18.264221 13.291696,25.230495 11.500037,31.436501 z"
             style="fill:#404040;"/>
          </a>
         </g>
        </svg>
</svg>
