<?xml version="1.0" encoding="UTF-8" standalone="no"?>
<!DOCTYPE svg PUBLIC "-//W3C//DTD SVG 1.1//EN"
 "http://www.w3.org/Graphics/SVG/1.1/DTD/svg11.dtd">
<!-- Generated by graphviz version 2.43.0 (0)
 -->
<!-- Title: lane_geometry.cc Pages: 1 -->
<!--zoomable 229 -->
<svg id="main" version="1.1" xmlns="http://www.w3.org/2000/svg" xmlns:xlink="http://www.w3.org/1999/xlink" xml:space="preserve" onload="init(evt)">
<style type="text/css"><![CDATA[
.edge:hover path { stroke: red; }
.edge:hover polygon { stroke: red; fill: red; }
]]></style>
<script type="text/javascript"><![CDATA[
var edges = document.getElementsByTagName('g');
if (edges && edges.length) {
  for (var i=0;i<edges.length;i++) {
    if (edges[i].id.substr(0,4)=='edge') {
      edges[i].setAttribute('class','edge');
    }
  }
}
]]></script>
        <defs>
                <circle id="rim" cx="0" cy="0" r="7"/>
                <circle id="rim2" cx="0" cy="0" r="3.5"/>
                <g id="zoomPlus">
                        <use xlink:href="#rim" fill="#404040">
                                <set attributeName="fill" to="#808080" begin="zoomplus.mouseover" end="zoomplus.mouseout"/>
                        </use>
                        <path d="M-4,0h8M0,-4v8" fill="none" stroke="white" stroke-width="1.5" pointer-events="none"/>
                </g>
                <g id="zoomMin">
                        <use xlink:href="#rim" fill="#404040">
                                <set attributeName="fill" to="#808080" begin="zoomminus.mouseover" end="zoomminus.mouseout"/>
                        </use>
                        <path d="M-4,0h8" fill="none" stroke="white" stroke-width="1.5" pointer-events="none"/>
                </g>
                <g id="dirArrow">
                        <path fill="none" stroke="white" stroke-width="1.5" d="M0,-3.0v7 M-2.5,-0.5L0,-3.0L2.5,-0.5"/>
                </g>
               <g id="resetDef">
                       <use xlink:href="#rim2" fill="#404040">
                               <set attributeName="fill" to="#808080" begin="reset.mouseover" end="reset.mouseout"/>
                       </use>
               </g>
        </defs>

<script type="text/javascript">
var viewWidth = 1268;
var viewHeight = 229;
var sectionId = 'dynsection-0';
</script>
<script xlink:href="svgpan.js"/>
<svg id="graph" class="graph">
<g id="viewport">
<title>lane_geometry.cc</title>
<polygon fill="white" stroke="transparent" points="-4,4 -4,-225 1264,-225 1264,4 -4,4"/>
<!-- Node1 -->
<g id="node1" class="node">
<title>Node1</title>
<g id="a_node1"><a xlink:title=" ">
<polygon fill="#bfbfbf" stroke="black" points="595,-201.5 595,-220.5 697,-220.5 697,-201.5 595,-201.5"/>
<text text-anchor="middle" x="646" y="-208.5" font-family="Helvetica,sans-Serif" font-size="10.00">lane_geometry.cc</text>
</a>
</g>
</g>
<!-- Node2 -->
<g id="node2" class="node">
<title>Node2</title>
<g id="a_node2"><a xlink:href="lane__geometry_8h.html" target="_top" xlink:title=" ">
<polygon fill="white" stroke="black" points="404,-134.5 404,-164.5 546,-164.5 546,-134.5 404,-134.5"/>
<text text-anchor="start" x="412" y="-152.5" font-family="Helvetica,sans-Serif" font-size="10.00">maliput_sparse/geometry</text>
<text text-anchor="middle" x="475" y="-141.5" font-family="Helvetica,sans-Serif" font-size="10.00">/lane_geometry.h</text>
</a>
</g>
</g>
<!-- Node1&#45;&gt;Node2 -->
<g id="edge1" class="edge">
<title>Node1&#45;&gt;Node2</title>
<path fill="none" stroke="midnightblue" d="M621.5,-201.48C596.39,-192.74 556.64,-178.91 524.88,-167.86"/>
<polygon fill="midnightblue" stroke="midnightblue" points="525.9,-164.5 515.3,-164.52 523.6,-171.11 525.9,-164.5"/>
</g>
<!-- Node17 -->
<g id="node17" class="node">
<title>Node17</title>
<g id="a_node17"><a xlink:title=" ">
<polygon fill="white" stroke="#bfbfbf" points="614,-140 614,-159 678,-159 678,-140 614,-140"/>
<text text-anchor="middle" x="646" y="-147" font-family="Helvetica,sans-Serif" font-size="10.00">algorithm</text>
</a>
</g>
</g>
<!-- Node1&#45;&gt;Node17 -->
<g id="edge17" class="edge">
<title>Node1&#45;&gt;Node17</title>
<path fill="none" stroke="midnightblue" d="M646,-201.48C646,-193.08 646,-179.98 646,-169.16"/>
<polygon fill="midnightblue" stroke="midnightblue" points="649.5,-169.01 646,-159.01 642.5,-169.01 649.5,-169.01"/>
</g>
<!-- Node18 -->
<g id="node18" class="node">
<title>Node18</title>
<g id="a_node18"><a xlink:href="geometry_8h.html" target="_top" xlink:title=" ">
<polygon fill="white" stroke="black" points="721,-134.5 721,-164.5 863,-164.5 863,-134.5 721,-134.5"/>
<text text-anchor="start" x="729" y="-152.5" font-family="Helvetica,sans-Serif" font-size="10.00">maliput_sparse/geometry</text>
<text text-anchor="middle" x="792" y="-141.5" font-family="Helvetica,sans-Serif" font-size="10.00">/utility/geometry.h</text>
</a>
</g>
</g>
<!-- Node1&#45;&gt;Node18 -->
<g id="edge18" class="edge">
<title>Node1&#45;&gt;Node18</title>
<path fill="none" stroke="midnightblue" d="M666.92,-201.48C687.99,-192.89 721.13,-179.38 748.01,-168.43"/>
<polygon fill="midnightblue" stroke="midnightblue" points="749.65,-171.54 757.59,-164.52 747.01,-165.06 749.65,-171.54"/>
</g>
<!-- Node3 -->
<g id="node3" class="node">
<title>Node3</title>
<g id="a_node3"><a xlink:title=" ">
<polygon fill="white" stroke="#bfbfbf" points="0,-73 0,-92 58,-92 58,-73 0,-73"/>
<text text-anchor="middle" x="29" y="-80" font-family="Helvetica,sans-Serif" font-size="10.00">memory</text>
</a>
</g>
</g>
<!-- Node2&#45;&gt;Node3 -->
<g id="edge2" class="edge">
<title>Node2&#45;&gt;Node3</title>
<path fill="none" stroke="midnightblue" d="M403.66,-144.89C321.47,-139.54 182.84,-126.82 67,-98 64.17,-97.3 61.27,-96.44 58.39,-95.51"/>
<polygon fill="midnightblue" stroke="midnightblue" points="59.42,-92.16 48.83,-92.1 57.07,-98.75 59.42,-92.16"/>
</g>
<!-- Node4 -->
<g id="node4" class="node">
<title>Node4</title>
<g id="a_node4"><a xlink:title=" ">
<polygon fill="white" stroke="#bfbfbf" points="76,-73 76,-92 208,-92 208,-73 76,-73"/>
<text text-anchor="middle" x="142" y="-80" font-family="Helvetica,sans-Serif" font-size="10.00">maliput/api/lane_data.h</text>
</a>
</g>
</g>
<!-- Node2&#45;&gt;Node4 -->
<g id="edge3" class="edge">
<title>Node2&#45;&gt;Node4</title>
<path fill="none" stroke="midnightblue" d="M403.97,-134.64C341.62,-122.47 252.3,-105.03 195.74,-93.99"/>
<polygon fill="midnightblue" stroke="midnightblue" points="196.4,-90.55 185.92,-92.07 195.06,-97.42 196.4,-90.55"/>
</g>
<!-- Node5 -->
<g id="node5" class="node">
<title>Node5</title>
<g id="a_node5"><a xlink:title=" ">
<polygon fill="white" stroke="#bfbfbf" points="226,-67.5 226,-97.5 366,-97.5 366,-67.5 226,-67.5"/>
<text text-anchor="start" x="234" y="-85.5" font-family="Helvetica,sans-Serif" font-size="10.00">maliput/common/maliput</text>
<text text-anchor="middle" x="296" y="-74.5" font-family="Helvetica,sans-Serif" font-size="10.00">_copyable.h</text>
</a>
</g>
</g>
<!-- Node2&#45;&gt;Node5 -->
<g id="edge4" class="edge">
<title>Node2&#45;&gt;Node5</title>
<path fill="none" stroke="midnightblue" d="M436.16,-134.4C409.18,-124.6 373.06,-111.48 344.23,-101.02"/>
<polygon fill="midnightblue" stroke="midnightblue" points="345.36,-97.7 334.76,-97.58 342.97,-104.28 345.36,-97.7"/>
</g>
<!-- Node6 -->
<g id="node6" class="node">
<title>Node6</title>
<g id="a_node6"><a xlink:title=" ">
<polygon fill="white" stroke="#bfbfbf" points="384.5,-67.5 384.5,-97.5 515.5,-97.5 515.5,-67.5 384.5,-67.5"/>
<text text-anchor="start" x="392.5" y="-85.5" font-family="Helvetica,sans-Serif" font-size="10.00">maliput/common/range</text>
<text text-anchor="middle" x="450" y="-74.5" font-family="Helvetica,sans-Serif" font-size="10.00">_validator.h</text>
</a>
</g>
</g>
<!-- Node2&#45;&gt;Node6 -->
<g id="edge5" class="edge">
<title>Node2&#45;&gt;Node6</title>
<path fill="none" stroke="midnightblue" d="M469.58,-134.4C466.5,-126.39 462.56,-116.16 459.03,-106.98"/>
<polygon fill="midnightblue" stroke="midnightblue" points="462.27,-105.65 455.41,-97.58 455.74,-108.17 462.27,-105.65"/>
</g>
<!-- Node7 -->
<g id="node7" class="node">
<title>Node7</title>
<g id="a_node7"><a xlink:title=" ">
<polygon fill="white" stroke="#bfbfbf" points="533.5,-67.5 533.5,-97.5 664.5,-97.5 664.5,-67.5 533.5,-67.5"/>
<text text-anchor="start" x="541.5" y="-85.5" font-family="Helvetica,sans-Serif" font-size="10.00">maliput/math/roll_pitch</text>
<text text-anchor="middle" x="599" y="-74.5" font-family="Helvetica,sans-Serif" font-size="10.00">_yaw.h</text>
</a>
</g>
</g>
<!-- Node2&#45;&gt;Node7 -->
<g id="edge6" class="edge">
<title>Node2&#45;&gt;Node7</title>
<path fill="none" stroke="midnightblue" d="M501.91,-134.4C519.86,-124.98 543.67,-112.5 563.22,-102.26"/>
<polygon fill="midnightblue" stroke="midnightblue" points="564.91,-105.32 572.15,-97.58 561.66,-99.12 564.91,-105.32"/>
</g>
<!-- Node8 -->
<g id="node8" class="node">
<title>Node8</title>
<g id="a_node8"><a xlink:title=" ">
<polygon fill="white" stroke="#bfbfbf" points="456.5,-6 456.5,-25 581.5,-25 581.5,-6 456.5,-6"/>
<text text-anchor="middle" x="519" y="-13" font-family="Helvetica,sans-Serif" font-size="10.00">maliput/math/vector.h</text>
</a>
</g>
</g>
<!-- Node2&#45;&gt;Node8 -->
<g id="edge7" class="edge">
<title>Node2&#45;&gt;Node8</title>
<path fill="none" stroke="midnightblue" d="M546.01,-139.62C596.22,-131.72 657.27,-118.24 673,-98 681.45,-87.12 681.08,-78.16 673,-67 660.94,-50.35 612.48,-36.26 573.1,-27.22"/>
<polygon fill="midnightblue" stroke="midnightblue" points="573.83,-23.8 563.31,-25.04 572.3,-30.63 573.83,-23.8"/>
</g>
<!-- Node9 -->
<g id="node9" class="node">
<title>Node9</title>
<g id="a_node9"><a xlink:href="line__string_8h.html" target="_top" xlink:title=" ">
<polygon fill="white" stroke="black" points="721,-67.5 721,-97.5 863,-97.5 863,-67.5 721,-67.5"/>
<text text-anchor="start" x="729" y="-85.5" font-family="Helvetica,sans-Serif" font-size="10.00">maliput_sparse/geometry</text>
<text text-anchor="middle" x="792" y="-74.5" font-family="Helvetica,sans-Serif" font-size="10.00">/line_string.h</text>
</a>
</g>
</g>
<!-- Node2&#45;&gt;Node9 -->
<g id="edge8" class="edge">
<title>Node2&#45;&gt;Node9</title>
<path fill="none" stroke="midnightblue" d="M543.39,-134.48C593.41,-124.22 661.35,-110.29 713.56,-99.58"/>
<polygon fill="midnightblue" stroke="midnightblue" points="714.36,-102.99 723.46,-97.55 712.96,-96.13 714.36,-102.99"/>
</g>
<!-- Node9&#45;&gt;Node8 -->
<g id="edge16" class="edge">
<title>Node9&#45;&gt;Node8</title>
<path fill="none" stroke="midnightblue" d="M733.1,-67.48C682.57,-55.45 610.8,-38.36 564.57,-27.35"/>
<polygon fill="midnightblue" stroke="midnightblue" points="565.36,-23.94 554.82,-25.03 563.74,-30.75 565.36,-23.94"/>
</g>
<!-- Node10 -->
<g id="node10" class="node">
<title>Node10</title>
<g id="a_node10"><a xlink:title=" ">
<polygon fill="white" stroke="#bfbfbf" points="599.5,-6 599.5,-25 646.5,-25 646.5,-6 599.5,-6"/>
<text text-anchor="middle" x="623" y="-13" font-family="Helvetica,sans-Serif" font-size="10.00">cmath</text>
</a>
</g>
</g>
<!-- Node9&#45;&gt;Node10 -->
<g id="edge9" class="edge">
<title>Node9&#45;&gt;Node10</title>
<path fill="none" stroke="midnightblue" d="M751.54,-67.45C724.11,-57.72 687.13,-44.18 655,-31 653.59,-30.42 652.15,-29.82 650.7,-29.2"/>
<polygon fill="midnightblue" stroke="midnightblue" points="651.74,-25.83 641.18,-25.01 648.92,-32.24 651.74,-25.83"/>
</g>
<!-- Node11 -->
<g id="node11" class="node">
<title>Node11</title>
<g id="a_node11"><a xlink:title=" ">
<polygon fill="white" stroke="#bfbfbf" points="664.5,-6 664.5,-25 747.5,-25 747.5,-6 664.5,-6"/>
<text text-anchor="middle" x="706" y="-13" font-family="Helvetica,sans-Serif" font-size="10.00">initializer_list</text>
</a>
</g>
</g>
<!-- Node9&#45;&gt;Node11 -->
<g id="edge10" class="edge">
<title>Node9&#45;&gt;Node11</title>
<path fill="none" stroke="midnightblue" d="M773.34,-67.4C759.27,-56.76 740.01,-42.2 725.69,-31.38"/>
<polygon fill="midnightblue" stroke="midnightblue" points="727.59,-28.43 717.5,-25.19 723.37,-34.02 727.59,-28.43"/>
</g>
<!-- Node12 -->
<g id="node12" class="node">
<title>Node12</title>
<g id="a_node12"><a xlink:title=" ">
<polygon fill="white" stroke="#bfbfbf" points="765.5,-6 765.5,-25 818.5,-25 818.5,-6 765.5,-6"/>
<text text-anchor="middle" x="792" y="-13" font-family="Helvetica,sans-Serif" font-size="10.00">iterator</text>
</a>
</g>
</g>
<!-- Node9&#45;&gt;Node12 -->
<g id="edge11" class="edge">
<title>Node9&#45;&gt;Node12</title>
<path fill="none" stroke="midnightblue" d="M792,-67.4C792,-58.06 792,-45.71 792,-35.52"/>
<polygon fill="midnightblue" stroke="midnightblue" points="795.5,-35.19 792,-25.19 788.5,-35.19 795.5,-35.19"/>
</g>
<!-- Node13 -->
<g id="node13" class="node">
<title>Node13</title>
<g id="a_node13"><a xlink:title=" ">
<polygon fill="white" stroke="#bfbfbf" points="837,-6 837,-25 875,-25 875,-6 837,-6"/>
<text text-anchor="middle" x="856" y="-13" font-family="Helvetica,sans-Serif" font-size="10.00">map</text>
</a>
</g>
</g>
<!-- Node9&#45;&gt;Node13 -->
<g id="edge12" class="edge">
<title>Node9&#45;&gt;Node13</title>
<path fill="none" stroke="midnightblue" d="M805.89,-67.4C815.96,-57.16 829.62,-43.3 840.13,-32.62"/>
<polygon fill="midnightblue" stroke="midnightblue" points="842.92,-34.78 847.44,-25.19 837.93,-29.86 842.92,-34.78"/>
</g>
<!-- Node14 -->
<g id="node14" class="node">
<title>Node14</title>
<g id="a_node14"><a xlink:title=" ">
<polygon fill="white" stroke="#bfbfbf" points="893.5,-6 893.5,-25 940.5,-25 940.5,-6 893.5,-6"/>
<text text-anchor="middle" x="917" y="-13" font-family="Helvetica,sans-Serif" font-size="10.00">vector</text>
</a>
</g>
</g>
<!-- Node9&#45;&gt;Node14 -->
<g id="edge13" class="edge">
<title>Node9&#45;&gt;Node14</title>
<path fill="none" stroke="midnightblue" d="M819.12,-67.4C840.67,-56.19 870.57,-40.64 891.64,-29.69"/>
<polygon fill="midnightblue" stroke="midnightblue" points="893.38,-32.73 900.64,-25.01 890.15,-26.52 893.38,-32.73"/>
</g>
<!-- Node15 -->
<g id="node15" class="node">
<title>Node15</title>
<g id="a_node15"><a xlink:title=" ">
<polygon fill="white" stroke="#bfbfbf" points="958.5,-6 958.5,-25 1101.5,-25 1101.5,-6 958.5,-6"/>
<text text-anchor="middle" x="1030" y="-13" font-family="Helvetica,sans-Serif" font-size="10.00">maliput/common/logger.h</text>
</a>
</g>
</g>
<!-- Node9&#45;&gt;Node15 -->
<g id="edge14" class="edge">
<title>Node9&#45;&gt;Node15</title>
<path fill="none" stroke="midnightblue" d="M843.35,-67.48C886.94,-55.57 948.66,-38.72 989,-27.7"/>
<polygon fill="midnightblue" stroke="midnightblue" points="990.05,-31.04 998.77,-25.03 988.2,-24.29 990.05,-31.04"/>
</g>
<!-- Node16 -->
<g id="node16" class="node">
<title>Node16</title>
<g id="a_node16"><a xlink:title=" ">
<polygon fill="white" stroke="#bfbfbf" points="1120,-0.5 1120,-30.5 1260,-30.5 1260,-0.5 1120,-0.5"/>
<text text-anchor="start" x="1128" y="-18.5" font-family="Helvetica,sans-Serif" font-size="10.00">maliput/common/maliput</text>
<text text-anchor="middle" x="1190" y="-7.5" font-family="Helvetica,sans-Serif" font-size="10.00">_throw.h</text>
</a>
</g>
</g>
<!-- Node9&#45;&gt;Node16 -->
<g id="edge15" class="edge">
<title>Node9&#45;&gt;Node16</title>
<path fill="none" stroke="midnightblue" d="M863.08,-68.5C866.09,-67.99 869.08,-67.49 872,-67 974.87,-49.93 1003.39,-48.76 1109.94,-31.14"/>
<polygon fill="midnightblue" stroke="midnightblue" points="1110.52,-34.6 1119.81,-29.5 1109.37,-27.69 1110.52,-34.6"/>
</g>
<!-- Node18&#45;&gt;Node9 -->
<g id="edge20" class="edge">
<title>Node18&#45;&gt;Node9</title>
<path fill="none" stroke="midnightblue" d="M792,-134.4C792,-126.64 792,-116.81 792,-107.86"/>
<polygon fill="midnightblue" stroke="midnightblue" points="795.5,-107.58 792,-97.58 788.5,-107.58 795.5,-107.58"/>
</g>
<!-- Node19 -->
<g id="node19" class="node">
<title>Node19</title>
<g id="a_node19"><a xlink:title=" ">
<polygon fill="white" stroke="#bfbfbf" points="881,-73 881,-92 937,-92 937,-73 881,-73"/>
<text text-anchor="middle" x="909" y="-80" font-family="Helvetica,sans-Serif" font-size="10.00">optional</text>
</a>
</g>
</g>
<!-- Node18&#45;&gt;Node19 -->
<g id="edge19" class="edge">
<title>Node18&#45;&gt;Node19</title>
<path fill="none" stroke="midnightblue" d="M817.39,-134.4C837.37,-123.29 865.04,-107.92 884.73,-96.98"/>
<polygon fill="midnightblue" stroke="midnightblue" points="886.65,-99.92 893.69,-92.01 883.25,-93.8 886.65,-99.92"/>
</g>
</g>
</svg>
        <g id="navigator" transform="translate(0 0)" fill="#404254">
                <rect fill="#f2f5e9" fill-opacity="0.5" stroke="#606060" stroke-width=".5" x="0" y="0" width="60" height="60"/>
                <use id="zoomplus" xlink:href="#zoomPlus" x="17" y="9" onmousedown="handleZoom(evt,'in')"/>
                <use id="zoomminus" xlink:href="#zoomMin" x="42" y="9" onmousedown="handleZoom(evt,'out')"/>
                <use id="reset" xlink:href="#resetDef" x="30" y="36" onmousedown="handleReset()"/>
                <g id="arrowUp" xlink:href="#dirArrow" transform="translate(30 24)" onmousedown="handlePan(0,-1)">
                  <use xlink:href="#rim" fill="#404040">
                        <set attributeName="fill" to="#808080" begin="arrowUp.mouseover" end="arrowUp.mouseout"/>
                  </use>
                  <path fill="none" stroke="white" stroke-width="1.5" d="M0,-3.0v7 M-2.5,-0.5L0,-3.0L2.5,-0.5"/>
                </g>
                <g id="arrowRight" xlink:href="#dirArrow" transform="rotate(90) translate(36 -43)" onmousedown="handlePan(1,0)">
                  <use xlink:href="#rim" fill="#404040">
                        <set attributeName="fill" to="#808080" begin="arrowRight.mouseover" end="arrowRight.mouseout"/>
                  </use>
                  <path fill="none" stroke="white" stroke-width="1.5" d="M0,-3.0v7 M-2.5,-0.5L0,-3.0L2.5,-0.5"/>
                </g>
                <g id="arrowDown" xlink:href="#dirArrow" transform="rotate(180) translate(-30 -48)" onmousedown="handlePan(0,1)">
                  <use xlink:href="#rim" fill="#404040">
                        <set attributeName="fill" to="#808080" begin="arrowDown.mouseover" end="arrowDown.mouseout"/>
                  </use>
                  <path fill="none" stroke="white" stroke-width="1.5" d="M0,-3.0v7 M-2.5,-0.5L0,-3.0L2.5,-0.5"/>
                </g>
                <g id="arrowLeft" xlink:href="#dirArrow" transform="rotate(270) translate(-36 17)" onmousedown="handlePan(-1,0)">
                  <use xlink:href="#rim" fill="#404040">
                        <set attributeName="fill" to="#808080" begin="arrowLeft.mouseover" end="arrowLeft.mouseout"/>
                  </use>
                  <path fill="none" stroke="white" stroke-width="1.5" d="M0,-3.0v7 M-2.5,-0.5L0,-3.0L2.5,-0.5"/>
                </g>
        </g>
        <svg viewBox="0 0 15 15" width="100%" height="30px" preserveAspectRatio="xMaxYMin meet">
         <g id="arrow_out" transform="scale(0.3 0.3)">
          <a xlink:href="lane__geometry_8cc__incl_org.svg" target="_base">
           <rect id="button" ry="5" rx="5" y="6" x="6" height="38" width="38"
                fill="#f2f5e9" fill-opacity="0.5" stroke="#606060" stroke-width="1.0"/>
           <path id="arrow"
             d="M 11.500037,31.436501 C 11.940474,20.09759 22.043105,11.32322 32.158766,21.979434 L 37.068811,17.246167 C 37.068811,17.246167 37.088388,32 37.088388,32 L 22.160133,31.978069 C 22.160133,31.978069 26.997745,27.140456 26.997745,27.140456 C 18.528582,18.264221 13.291696,25.230495 11.500037,31.436501 z"
             style="fill:#404040;"/>
          </a>
         </g>
        </svg>
</svg>
