<?xml version="1.0" encoding="UTF-8" standalone="no"?>
<!DOCTYPE svg PUBLIC "-//W3C//DTD SVG 1.1//EN"
 "http://www.w3.org/Graphics/SVG/1.1/DTD/svg11.dtd">
<!-- Generated by graphviz version 2.40.1 (20161225.0304)
 -->
<!-- Title: builder.h Pages: 1 -->
<svg width="707pt" height="140pt"
 viewBox="0.00 0.00 706.50 140.00" xmlns="http://www.w3.org/2000/svg" xmlns:xlink="http://www.w3.org/1999/xlink">
<g id="graph0" class="graph" transform="scale(1 1) rotate(0) translate(4 136)">
<title>builder.h</title>
<polygon fill="#ffffff" stroke="transparent" points="-4,4 -4,-136 702.5,-136 702.5,4 -4,4"/>
<!-- Node38 -->
<g id="node1" class="node">
<title>Node38</title>
<polygon fill="#bfbfbf" stroke="#000000" points="237,-112.5 237,-131.5 296,-131.5 296,-112.5 237,-112.5"/>
<text text-anchor="middle" x="266.5" y="-119.5" font-family="Helvetica,sans-Serif" font-size="10.00" fill="#000000">builder.h</text>
</g>
<!-- Node39 -->
<g id="node2" class="node">
<title>Node39</title>
<g id="a_node2"><a xlink:href="loader_8h.html" target="_top" xlink:title="loader.h">
<polygon fill="#ffffff" stroke="#000000" points="180.5,-56.5 180.5,-75.5 236.5,-75.5 236.5,-56.5 180.5,-56.5"/>
<text text-anchor="middle" x="208.5" y="-63.5" font-family="Helvetica,sans-Serif" font-size="10.00" fill="#000000">loader.h</text>
</a>
</g>
</g>
<!-- Node38&#45;&gt;Node39 -->
<g id="edge1" class="edge">
<title>Node38&#45;&gt;Node39</title>
<path fill="none" stroke="#191970" d="M248.9707,-105.0751C238.9917,-95.4402 226.8524,-83.7196 218.4871,-75.6427"/>
<polygon fill="#191970" stroke="#191970" points="246.772,-107.8175 256.3972,-112.2455 251.6342,-102.7817 246.772,-107.8175"/>
</g>
<!-- Node40 -->
<g id="node3" class="node">
<title>Node40</title>
<g id="a_node3"><a xlink:href="loader_8cc.html" target="_top" xlink:title="loader.cc">
<polygon fill="#ffffff" stroke="#000000" points="0,-.5 0,-19.5 61,-19.5 61,-.5 0,-.5"/>
<text text-anchor="middle" x="30.5" y="-7.5" font-family="Helvetica,sans-Serif" font-size="10.00" fill="#000000">loader.cc</text>
</a>
</g>
</g>
<!-- Node38&#45;&gt;Node40 -->
<g id="edge10" class="edge">
<title>Node38&#45;&gt;Node40</title>
<path fill="none" stroke="#191970" d="M232.2094,-108.7457C210.0895,-99.962 180.826,-87.9024 155.5,-76 116.188,-57.5247 71.4818,-33.0465 47.6334,-19.6982"/>
<polygon fill="#191970" stroke="#191970" points="230.9374,-112.0064 241.5242,-112.4189 233.5053,-105.4944 230.9374,-112.0064"/>
</g>
<!-- Node41 -->
<g id="node4" class="node">
<title>Node41</title>
<g id="a_node4"><a xlink:href="road__network__builder_8cc.html" target="_top" xlink:title="road_network_builder.cc">
<polygon fill="#ffffff" stroke="#000000" points="79.5,-.5 79.5,-19.5 215.5,-19.5 215.5,-.5 79.5,-.5"/>
<text text-anchor="middle" x="147.5" y="-7.5" font-family="Helvetica,sans-Serif" font-size="10.00" fill="#000000">road_network_builder.cc</text>
</a>
</g>
</g>
<!-- Node38&#45;&gt;Node41 -->
<g id="edge11" class="edge">
<title>Node38&#45;&gt;Node41</title>
<path fill="none" stroke="#191970" d="M227.0618,-110.6794C208.0554,-103.4634 186.2435,-92.3323 171.5,-76 156.7942,-59.7095 150.9032,-33.6981 148.7015,-19.6896"/>
<polygon fill="#191970" stroke="#191970" points="226.0982,-114.0514 236.6929,-114.1028 228.4427,-107.4557 226.0982,-114.0514"/>
</g>
<!-- Node42 -->
<g id="node5" class="node">
<title>Node42</title>
<g id="a_node5"><a xlink:href="fixtures_8cc.html" target="_top" xlink:title="fixtures.cc">
<polygon fill="#ffffff" stroke="#000000" points="233.5,-.5 233.5,-19.5 301.5,-19.5 301.5,-.5 233.5,-.5"/>
<text text-anchor="middle" x="267.5" y="-7.5" font-family="Helvetica,sans-Serif" font-size="10.00" fill="#000000">fixtures.cc</text>
</a>
</g>
</g>
<!-- Node38&#45;&gt;Node42 -->
<g id="edge12" class="edge">
<title>Node38&#45;&gt;Node42</title>
<path fill="none" stroke="#191970" d="M266.6762,-102.2702C266.8929,-77.9985 267.252,-37.7725 267.415,-19.5249"/>
<polygon fill="#191970" stroke="#191970" points="263.1748,-102.4201 266.5853,-112.4509 270.1745,-102.4826 263.1748,-102.4201"/>
</g>
<!-- Node43 -->
<g id="node6" class="node">
<title>Node43</title>
<g id="a_node6"><a xlink:href="multilane__onramp__merge_8h.html" target="_top" xlink:title="multilane_onramp_merge.h">
<polygon fill="#ffffff" stroke="#000000" points="294.5,-56.5 294.5,-75.5 446.5,-75.5 446.5,-56.5 294.5,-56.5"/>
<text text-anchor="middle" x="370.5" y="-63.5" font-family="Helvetica,sans-Serif" font-size="10.00" fill="#000000">multilane_onramp_merge.h</text>
</a>
</g>
</g>
<!-- Node38&#45;&gt;Node43 -->
<g id="edge5" class="edge">
<title>Node38&#45;&gt;Node43</title>
<path fill="none" stroke="#191970" d="M293.5029,-107.46C312.1136,-97.4388 336.3299,-84.3993 352.5922,-75.6427"/>
<polygon fill="#191970" stroke="#191970" points="291.7608,-104.4228 284.6154,-112.2455 295.0795,-110.5861 291.7608,-104.4228"/>
</g>
<!-- Node45 -->
<g id="node8" class="node">
<title>Node45</title>
<g id="a_node8"><a xlink:href="multilane__types__compare_8h.html" target="_top" xlink:title="multilane_types_compare.h">
<polygon fill="#ffffff" stroke="#000000" points="464.5,-56.5 464.5,-75.5 616.5,-75.5 616.5,-56.5 464.5,-56.5"/>
<text text-anchor="middle" x="540.5" y="-63.5" font-family="Helvetica,sans-Serif" font-size="10.00" fill="#000000">multilane_types_compare.h</text>
</a>
</g>
</g>
<!-- Node38&#45;&gt;Node45 -->
<g id="edge7" class="edge">
<title>Node38&#45;&gt;Node45</title>
<path fill="none" stroke="#191970" d="M306.1244,-113.9016C355.8106,-103.7467 440.8683,-86.3627 493.7048,-75.564"/>
<polygon fill="#191970" stroke="#191970" points="305.1797,-110.5222 296.0831,-115.9538 306.5815,-117.3804 305.1797,-110.5222"/>
</g>
<!-- Node47 -->
<g id="node10" class="node">
<title>Node47</title>
<g id="a_node10"><a xlink:href="builder_8cc.html" target="_top" xlink:title="builder.cc">
<polygon fill="#ffffff" stroke="#000000" points="634.5,-56.5 634.5,-75.5 698.5,-75.5 698.5,-56.5 634.5,-56.5"/>
<text text-anchor="middle" x="666.5" y="-63.5" font-family="Helvetica,sans-Serif" font-size="10.00" fill="#000000">builder.cc</text>
</a>
</g>
</g>
<!-- Node38&#45;&gt;Node47 -->
<g id="edge9" class="edge">
<title>Node38&#45;&gt;Node47</title>
<path fill="none" stroke="#191970" d="M306.5196,-118.3471C373.0723,-111.943 510.5549,-97.3128 625.5,-76 628.3816,-75.4657 631.3636,-74.8542 634.3444,-74.2028"/>
<polygon fill="#191970" stroke="#191970" points="306.0852,-114.8725 296.4617,-119.304 306.7482,-121.8411 306.0852,-114.8725"/>
</g>
<!-- Node39&#45;&gt;Node40 -->
<g id="edge2" class="edge">
<title>Node39&#45;&gt;Node40</title>
<path fill="none" stroke="#191970" d="M170.6275,-54.0851C137.926,-43.797 91.2891,-29.1247 60.957,-19.582"/>
<polygon fill="#191970" stroke="#191970" points="169.7059,-57.4642 180.2954,-57.1266 171.8067,-50.7868 169.7059,-57.4642"/>
</g>
<!-- Node39&#45;&gt;Node41 -->
<g id="edge3" class="edge">
<title>Node39&#45;&gt;Node41</title>
<path fill="none" stroke="#191970" d="M190.3751,-49.3607C179.822,-39.6727 166.8888,-27.7995 158.0036,-19.6427"/>
<polygon fill="#191970" stroke="#191970" points="188.1411,-52.0611 197.8746,-56.2455 192.875,-46.9045 188.1411,-52.0611"/>
</g>
<!-- Node39&#45;&gt;Node42 -->
<g id="edge4" class="edge">
<title>Node39&#45;&gt;Node42</title>
<path fill="none" stroke="#191970" d="M226.0307,-49.3607C236.2377,-39.6727 248.7469,-27.7995 257.3408,-19.6427"/>
<polygon fill="#191970" stroke="#191970" points="223.6206,-46.8227 218.777,-56.2455 228.4396,-51.8998 223.6206,-46.8227"/>
</g>
<!-- Node44 -->
<g id="node7" class="node">
<title>Node44</title>
<g id="a_node7"><a xlink:href="multilane__onramp__merge_8cc.html" target="_top" xlink:title="multilane_onramp_merge.cc">
<polygon fill="#ffffff" stroke="#000000" points="319.5,-.5 319.5,-19.5 475.5,-19.5 475.5,-.5 319.5,-.5"/>
<text text-anchor="middle" x="397.5" y="-7.5" font-family="Helvetica,sans-Serif" font-size="10.00" fill="#000000">multilane_onramp_merge.cc</text>
</a>
</g>
</g>
<!-- Node43&#45;&gt;Node44 -->
<g id="edge6" class="edge">
<title>Node43&#45;&gt;Node44</title>
<path fill="none" stroke="#191970" d="M379.6396,-47.0437C384.0805,-37.8331 389.2265,-27.1598 392.8509,-19.6427"/>
<polygon fill="#191970" stroke="#191970" points="376.3934,-45.7178 375.203,-56.2455 382.6988,-48.7579 376.3934,-45.7178"/>
</g>
<!-- Node46 -->
<g id="node9" class="node">
<title>Node46</title>
<g id="a_node9"><a xlink:href="multilane__types__compare_8cc.html" target="_top" xlink:title="multilane_types_compare.cc">
<polygon fill="#ffffff" stroke="#000000" points="494,-.5 494,-19.5 651,-19.5 651,-.5 494,-.5"/>
<text text-anchor="middle" x="572.5" y="-7.5" font-family="Helvetica,sans-Serif" font-size="10.00" fill="#000000">multilane_types_compare.cc</text>
</a>
</g>
</g>
<!-- Node45&#45;&gt;Node46 -->
<g id="edge8" class="edge">
<title>Node45&#45;&gt;Node46</title>
<path fill="none" stroke="#191970" d="M551.1645,-47.3372C556.4654,-38.0605 562.6487,-27.2398 566.9899,-19.6427"/>
<polygon fill="#191970" stroke="#191970" points="547.9966,-45.8266 546.074,-56.2455 554.0743,-49.2996 547.9966,-45.8266"/>
</g>
</g>
</svg>
