<?xml version="1.0" encoding="UTF-8" standalone="no"?>
<!DOCTYPE svg PUBLIC "-//W3C//DTD SVG 1.1//EN"
 "http://www.w3.org/Graphics/SVG/1.1/DTD/svg11.dtd">
<!-- Generated by graphviz version 2.43.0 (0)
 -->
<!-- Title: cubic_polynomial.h Pages: 1 -->
<svg width="1101pt" height="442pt"
 viewBox="0.00 0.00 1100.76 442.00" xmlns="http://www.w3.org/2000/svg" xmlns:xlink="http://www.w3.org/1999/xlink">
<g id="graph0" class="graph" transform="scale(1 1) rotate(0) translate(4 438)">
<title>cubic_polynomial.h</title>
<polygon fill="white" stroke="transparent" points="-4,4 -4,-438 1096.76,-438 1096.76,4 -4,4"/>
<!-- Node1 -->
<g id="node1" class="node">
<title>Node1</title>
<g id="a_node1"><a xlink:title=" ">
<polygon fill="#bfbfbf" stroke="black" points="96.26,-414.5 96.26,-433.5 207.26,-433.5 207.26,-414.5 96.26,-414.5"/>
<text text-anchor="middle" x="151.76" y="-421.5" font-family="Helvetica,sans-Serif" font-size="10.00">cubic_polynomial.h</text>
</a>
</g>
</g>
<!-- Node2 -->
<g id="node2" class="node">
<title>Node2</title>
<g id="a_node2"><a xlink:href="lane_8h.html" target="_top" xlink:title=" ">
<polygon fill="white" stroke="black" points="76.26,-297 76.26,-316 123.26,-316 123.26,-297 76.26,-297"/>
<text text-anchor="middle" x="99.76" y="-304" font-family="Helvetica,sans-Serif" font-size="10.00">lane.h</text>
</a>
</g>
</g>
<!-- Node1&#45;&gt;Node2 -->
<g id="edge1" class="edge">
<title>Node1&#45;&gt;Node2</title>
<path fill="none" stroke="midnightblue" d="M143.74,-405.18C132.43,-380.06 112.23,-335.19 103.72,-316.28"/>
<polygon fill="midnightblue" stroke="midnightblue" points="140.56,-406.64 147.86,-414.32 146.94,-403.76 140.56,-406.64"/>
</g>
<!-- Node3 -->
<g id="node3" class="node">
<title>Node3</title>
<g id="a_node3"><a xlink:href="segment_8h.html" target="_top" xlink:title=" ">
<polygon fill="white" stroke="black" points="124.76,-230 124.76,-249 192.76,-249 192.76,-230 124.76,-230"/>
<text text-anchor="middle" x="158.76" y="-237" font-family="Helvetica,sans-Serif" font-size="10.00">segment.h</text>
</a>
</g>
</g>
<!-- Node1&#45;&gt;Node3 -->
<g id="edge45" class="edge">
<title>Node1&#45;&gt;Node3</title>
<path fill="none" stroke="midnightblue" d="M152.5,-403.72C154.01,-364.56 157.36,-277.09 158.43,-249.21"/>
<polygon fill="midnightblue" stroke="midnightblue" points="148.99,-404.07 152.1,-414.2 155.98,-404.34 148.99,-404.07"/>
</g>
<!-- Node14 -->
<g id="node14" class="node">
<title>Node14</title>
<g id="a_node14"><a xlink:href="builder_8cc.html" target="_top" xlink:title=" ">
<polygon fill="white" stroke="black" points="198.76,-56.5 198.76,-75.5 262.76,-75.5 262.76,-56.5 198.76,-56.5"/>
<text text-anchor="middle" x="230.76" y="-63.5" font-family="Helvetica,sans-Serif" font-size="10.00">builder.cc</text>
</a>
</g>
</g>
<!-- Node1&#45;&gt;Node14 -->
<g id="edge46" class="edge">
<title>Node1&#45;&gt;Node14</title>
<path fill="none" stroke="midnightblue" d="M110.72,-411.17C66.01,-395.47 0.76,-363.04 0.76,-307.5 0.76,-307.5 0.76,-307.5 0.76,-177 0.76,-146.9 -2.29,-132.48 19.76,-112 45.43,-88.17 146.19,-75.14 198.64,-69.85"/>
<polygon fill="midnightblue" stroke="midnightblue" points="109.88,-414.58 120.48,-414.45 112.11,-407.95 109.88,-414.58"/>
</g>
<!-- Node20 -->
<g id="node20" class="node">
<title>Node20</title>
<g id="a_node20"><a xlink:href="road__curve_8h.html" target="_top" xlink:title=" ">
<polygon fill="white" stroke="black" points="225.76,-358.5 225.76,-377.5 305.76,-377.5 305.76,-358.5 225.76,-358.5"/>
<text text-anchor="middle" x="265.76" y="-365.5" font-family="Helvetica,sans-Serif" font-size="10.00">road_curve.h</text>
</a>
</g>
</g>
<!-- Node1&#45;&gt;Node20 -->
<g id="edge24" class="edge">
<title>Node1&#45;&gt;Node20</title>
<path fill="none" stroke="midnightblue" d="M179.01,-410.1C200.3,-400.01 229.31,-386.27 247.79,-377.52"/>
<polygon fill="midnightblue" stroke="midnightblue" points="177.37,-407 169.83,-414.44 180.36,-413.33 177.37,-407"/>
</g>
<!-- Node30 -->
<g id="node30" class="node">
<title>Node30</title>
<g id="a_node30"><a xlink:href="cubic__polynomial_8cc.html" target="_top" xlink:title=" ">
<polygon fill="white" stroke="black" points="323.76,-358.5 323.76,-377.5 439.76,-377.5 439.76,-358.5 323.76,-358.5"/>
<text text-anchor="middle" x="381.76" y="-365.5" font-family="Helvetica,sans-Serif" font-size="10.00">cubic_polynomial.cc</text>
</a>
</g>
</g>
<!-- Node1&#45;&gt;Node30 -->
<g id="edge47" class="edge">
<title>Node1&#45;&gt;Node30</title>
<path fill="none" stroke="midnightblue" d="M197.97,-412.15C241.42,-401.95 305.61,-386.88 345.49,-377.52"/>
<polygon fill="midnightblue" stroke="midnightblue" points="197.14,-408.75 188.21,-414.44 198.74,-415.57 197.14,-408.75"/>
</g>
<!-- Node2&#45;&gt;Node3 -->
<g id="edge2" class="edge">
<title>Node2&#45;&gt;Node3</title>
<path fill="none" stroke="midnightblue" d="M114.62,-289.13C126.16,-276.42 141.7,-259.3 150.93,-249.13"/>
<polygon fill="midnightblue" stroke="midnightblue" points="111.85,-286.98 107.72,-296.73 117.03,-291.68 111.85,-286.98"/>
</g>
<!-- Node19 -->
<g id="node19" class="node">
<title>Node19</title>
<g id="a_node19"><a xlink:href="lane_8cc.html" target="_top" xlink:title=" ">
<polygon fill="white" stroke="black" points="55.26,-230 55.26,-249 106.26,-249 106.26,-230 55.26,-230"/>
<text text-anchor="middle" x="80.76" y="-237" font-family="Helvetica,sans-Serif" font-size="10.00">lane.cc</text>
</a>
</g>
</g>
<!-- Node2&#45;&gt;Node19 -->
<g id="edge23" class="edge">
<title>Node2&#45;&gt;Node19</title>
<path fill="none" stroke="midnightblue" d="M94.33,-286.91C90.7,-274.49 86.09,-258.72 83.29,-249.13"/>
<polygon fill="midnightblue" stroke="midnightblue" points="91.04,-288.12 97.2,-296.73 97.76,-286.15 91.04,-288.12"/>
</g>
<!-- Node4 -->
<g id="node4" class="node">
<title>Node4</title>
<g id="a_node4"><a xlink:href="junction_8h.html" target="_top" xlink:title=" ">
<polygon fill="white" stroke="black" points="239.26,-168.5 239.26,-187.5 304.26,-187.5 304.26,-168.5 239.26,-168.5"/>
<text text-anchor="middle" x="271.76" y="-175.5" font-family="Helvetica,sans-Serif" font-size="10.00">junction.h</text>
</a>
</g>
</g>
<!-- Node3&#45;&gt;Node4 -->
<g id="edge3" class="edge">
<title>Node3&#45;&gt;Node4</title>
<path fill="none" stroke="midnightblue" d="M184,-225.21C205.89,-213.69 236.91,-197.36 255.6,-187.51"/>
<polygon fill="midnightblue" stroke="midnightblue" points="182.17,-222.22 174.95,-229.98 185.43,-228.41 182.17,-222.22"/>
</g>
<!-- Node18 -->
<g id="node18" class="node">
<title>Node18</title>
<g id="a_node18"><a xlink:href="segment_8cc.html" target="_top" xlink:title=" ">
<polygon fill="white" stroke="black" points="29.26,-168.5 29.26,-187.5 102.26,-187.5 102.26,-168.5 29.26,-168.5"/>
<text text-anchor="middle" x="65.76" y="-175.5" font-family="Helvetica,sans-Serif" font-size="10.00">segment.cc</text>
</a>
</g>
</g>
<!-- Node3&#45;&gt;Node18 -->
<g id="edge22" class="edge">
<title>Node3&#45;&gt;Node18</title>
<path fill="none" stroke="midnightblue" d="M136.77,-224.43C118.84,-212.96 94.11,-197.13 79.06,-187.51"/>
<polygon fill="midnightblue" stroke="midnightblue" points="135.13,-227.53 145.44,-229.98 138.9,-221.64 135.13,-227.53"/>
</g>
<!-- Node5 -->
<g id="node5" class="node">
<title>Node5</title>
<g id="a_node5"><a xlink:href="builder_8h.html" target="_top" xlink:title=" ">
<polygon fill="white" stroke="black" points="571.26,-112.5 571.26,-131.5 630.26,-131.5 630.26,-112.5 571.26,-112.5"/>
<text text-anchor="middle" x="600.76" y="-119.5" font-family="Helvetica,sans-Serif" font-size="10.00">builder.h</text>
</a>
</g>
</g>
<!-- Node4&#45;&gt;Node5 -->
<g id="edge4" class="edge">
<title>Node4&#45;&gt;Node5</title>
<path fill="none" stroke="midnightblue" d="M314.43,-170C382.12,-158.89 512.47,-137.49 571.01,-127.88"/>
<polygon fill="midnightblue" stroke="midnightblue" points="313.81,-166.55 304.51,-171.62 314.95,-173.46 313.81,-166.55"/>
</g>
<!-- Node4&#45;&gt;Node14 -->
<g id="edge20" class="edge">
<title>Node4&#45;&gt;Node14</title>
<path fill="none" stroke="midnightblue" d="M247.04,-162.9C236.23,-155.28 224.68,-144.79 218.76,-132 210.09,-113.25 219.55,-88.73 225.93,-75.83"/>
<polygon fill="midnightblue" stroke="midnightblue" points="245.15,-165.84 255.43,-168.39 248.98,-159.98 245.15,-165.84"/>
</g>
<!-- Node15 -->
<g id="node15" class="node">
<title>Node15</title>
<g id="a_node15"><a xlink:href="road__geometry_8h.html" target="_top" xlink:title=" ">
<polygon fill="white" stroke="black" points="314.76,-112.5 314.76,-131.5 412.76,-131.5 412.76,-112.5 314.76,-112.5"/>
<text text-anchor="middle" x="363.76" y="-119.5" font-family="Helvetica,sans-Serif" font-size="10.00">road_geometry.h</text>
</a>
</g>
</g>
<!-- Node4&#45;&gt;Node15 -->
<g id="edge17" class="edge">
<title>Node4&#45;&gt;Node15</title>
<path fill="none" stroke="midnightblue" d="M295.31,-163.18C312.24,-153.24 334.55,-140.15 349.02,-131.65"/>
<polygon fill="midnightblue" stroke="midnightblue" points="293.4,-160.24 286.55,-168.32 296.94,-166.28 293.4,-160.24"/>
</g>
<!-- Node17 -->
<g id="node17" class="node">
<title>Node17</title>
<g id="a_node17"><a xlink:href="junction_8cc.html" target="_top" xlink:title=" ">
<polygon fill="white" stroke="black" points="227.26,-112.5 227.26,-131.5 296.26,-131.5 296.26,-112.5 227.26,-112.5"/>
<text text-anchor="middle" x="261.76" y="-119.5" font-family="Helvetica,sans-Serif" font-size="10.00">junction.cc</text>
</a>
</g>
</g>
<!-- Node4&#45;&gt;Node17 -->
<g id="edge21" class="edge">
<title>Node4&#45;&gt;Node17</title>
<path fill="none" stroke="midnightblue" d="M268.26,-158.1C266.6,-149.14 264.7,-138.86 263.39,-131.75"/>
<polygon fill="midnightblue" stroke="midnightblue" points="264.85,-158.89 270.11,-168.08 271.73,-157.61 264.85,-158.89"/>
</g>
<!-- Node6 -->
<g id="node6" class="node">
<title>Node6</title>
<g id="a_node6"><a xlink:href="loader_8h.html" target="_top" xlink:title=" ">
<polygon fill="white" stroke="black" points="561.76,-56.5 561.76,-75.5 617.76,-75.5 617.76,-56.5 561.76,-56.5"/>
<text text-anchor="middle" x="589.76" y="-63.5" font-family="Helvetica,sans-Serif" font-size="10.00">loader.h</text>
</a>
</g>
</g>
<!-- Node5&#45;&gt;Node6 -->
<g id="edge5" class="edge">
<title>Node5&#45;&gt;Node6</title>
<path fill="none" stroke="midnightblue" d="M596.91,-102.1C595.09,-93.14 592.99,-82.86 591.55,-75.75"/>
<polygon fill="midnightblue" stroke="midnightblue" points="593.52,-102.98 598.95,-112.08 600.38,-101.59 593.52,-102.98"/>
</g>
<!-- Node7 -->
<g id="node7" class="node">
<title>Node7</title>
<g id="a_node7"><a xlink:href="loader_8cc.html" target="_top" xlink:title=" ">
<polygon fill="white" stroke="black" points="682.26,-0.5 682.26,-19.5 743.26,-19.5 743.26,-0.5 682.26,-0.5"/>
<text text-anchor="middle" x="712.76" y="-7.5" font-family="Helvetica,sans-Serif" font-size="10.00">loader.cc</text>
</a>
</g>
</g>
<!-- Node5&#45;&gt;Node7 -->
<g id="edge14" class="edge">
<title>Node5&#45;&gt;Node7</title>
<path fill="none" stroke="midnightblue" d="M616.85,-105.21C640.85,-81.63 685.24,-38.03 704.02,-19.59"/>
<polygon fill="midnightblue" stroke="midnightblue" points="614.23,-102.86 609.55,-112.37 619.14,-107.86 614.23,-102.86"/>
</g>
<!-- Node8 -->
<g id="node8" class="node">
<title>Node8</title>
<g id="a_node8"><a xlink:href="road__network__builder_8cc.html" target="_top" xlink:title=" ">
<polygon fill="white" stroke="black" points="441.76,-0.5 441.76,-19.5 577.76,-19.5 577.76,-0.5 441.76,-0.5"/>
<text text-anchor="middle" x="509.76" y="-7.5" font-family="Helvetica,sans-Serif" font-size="10.00">road_network_builder.cc</text>
</a>
</g>
</g>
<!-- Node5&#45;&gt;Node8 -->
<g id="edge15" class="edge">
<title>Node5&#45;&gt;Node8</title>
<path fill="none" stroke="midnightblue" d="M582.51,-105.71C573.11,-97.4 561.77,-86.67 552.76,-76 537.06,-57.39 522.18,-32.81 514.73,-19.86"/>
<polygon fill="midnightblue" stroke="midnightblue" points="580.31,-108.44 590.17,-112.33 584.89,-103.14 580.31,-108.44"/>
</g>
<!-- Node9 -->
<g id="node9" class="node">
<title>Node9</title>
<g id="a_node9"><a xlink:href="fixtures_8cc.html" target="_top" xlink:title=" ">
<polygon fill="white" stroke="black" points="595.76,-0.5 595.76,-19.5 663.76,-19.5 663.76,-0.5 595.76,-0.5"/>
<text text-anchor="middle" x="629.76" y="-7.5" font-family="Helvetica,sans-Serif" font-size="10.00">fixtures.cc</text>
</a>
</g>
</g>
<!-- Node5&#45;&gt;Node9 -->
<g id="edge16" class="edge">
<title>Node5&#45;&gt;Node9</title>
<path fill="none" stroke="midnightblue" d="M613.28,-103.84C618.44,-95.8 623.88,-85.83 626.76,-76 632.48,-56.49 631.64,-32.28 630.64,-19.63"/>
<polygon fill="midnightblue" stroke="midnightblue" points="610.27,-102.05 607.52,-112.28 616.05,-106 610.27,-102.05"/>
</g>
<!-- Node10 -->
<g id="node10" class="node">
<title>Node10</title>
<g id="a_node10"><a xlink:href="multilane__onramp__merge_8h.html" target="_top" xlink:title=" ">
<polygon fill="white" stroke="black" points="933.76,-56.5 933.76,-75.5 1085.76,-75.5 1085.76,-56.5 933.76,-56.5"/>
<text text-anchor="middle" x="1009.76" y="-63.5" font-family="Helvetica,sans-Serif" font-size="10.00">multilane_onramp_merge.h</text>
</a>
</g>
</g>
<!-- Node5&#45;&gt;Node10 -->
<g id="edge9" class="edge">
<title>Node5&#45;&gt;Node10</title>
<path fill="none" stroke="midnightblue" d="M640.47,-112.08C708.8,-100.74 846.79,-84.92 933.7,-75.29"/>
<polygon fill="midnightblue" stroke="midnightblue" points="639.77,-108.65 630.51,-113.79 640.96,-115.55 639.77,-108.65"/>
</g>
<!-- Node12 -->
<g id="node12" class="node">
<title>Node12</title>
<g id="a_node12"><a xlink:href="multilane__types__compare_8h.html" target="_top" xlink:title=" ">
<polygon fill="white" stroke="black" points="763.76,-56.5 763.76,-75.5 915.76,-75.5 915.76,-56.5 763.76,-56.5"/>
<text text-anchor="middle" x="839.76" y="-63.5" font-family="Helvetica,sans-Serif" font-size="10.00">multilane_types_compare.h</text>
</a>
</g>
</g>
<!-- Node5&#45;&gt;Node12 -->
<g id="edge11" class="edge">
<title>Node5&#45;&gt;Node12</title>
<path fill="none" stroke="midnightblue" d="M640.53,-111.83C702.53,-97.72 763.18,-84.11 801.41,-75.56"/>
<polygon fill="midnightblue" stroke="midnightblue" points="639.54,-108.47 630.57,-114.1 641.1,-115.29 639.54,-108.47"/>
</g>
<!-- Node5&#45;&gt;Node14 -->
<g id="edge13" class="edge">
<title>Node5&#45;&gt;Node14</title>
<path fill="none" stroke="midnightblue" d="M561.15,-112.77C559.67,-112.51 558.21,-112.25 556.76,-112 500.52,-102.38 333.57,-80.37 262.92,-71.17"/>
<polygon fill="midnightblue" stroke="midnightblue" points="560.51,-116.21 570.99,-114.64 561.82,-109.34 560.51,-116.21"/>
</g>
<!-- Node6&#45;&gt;Node7 -->
<g id="edge6" class="edge">
<title>Node6&#45;&gt;Node7</title>
<path fill="none" stroke="midnightblue" d="M618.54,-52.37C641.57,-42.26 673.25,-28.35 693.37,-19.52"/>
<polygon fill="midnightblue" stroke="midnightblue" points="617,-49.22 609.25,-56.44 619.82,-55.63 617,-49.22"/>
</g>
<!-- Node6&#45;&gt;Node8 -->
<g id="edge7" class="edge">
<title>Node6&#45;&gt;Node8</title>
<path fill="none" stroke="midnightblue" d="M568.46,-50.62C553.85,-40.76 534.94,-27.99 522.59,-19.65"/>
<polygon fill="midnightblue" stroke="midnightblue" points="566.66,-53.63 576.91,-56.32 570.58,-47.83 566.66,-53.63"/>
</g>
<!-- Node6&#45;&gt;Node9 -->
<g id="edge8" class="edge">
<title>Node6&#45;&gt;Node9</title>
<path fill="none" stroke="midnightblue" d="M602.46,-47.86C609.39,-38.5 617.67,-27.33 623.28,-19.75"/>
<polygon fill="midnightblue" stroke="midnightblue" points="599.51,-45.96 596.37,-56.08 605.13,-50.13 599.51,-45.96"/>
</g>
<!-- Node11 -->
<g id="node11" class="node">
<title>Node11</title>
<g id="a_node11"><a xlink:href="multilane__onramp__merge_8cc.html" target="_top" xlink:title=" ">
<polygon fill="white" stroke="black" points="936.76,-0.5 936.76,-19.5 1092.76,-19.5 1092.76,-0.5 936.76,-0.5"/>
<text text-anchor="middle" x="1014.76" y="-7.5" font-family="Helvetica,sans-Serif" font-size="10.00">multilane_onramp_merge.cc</text>
</a>
</g>
</g>
<!-- Node10&#45;&gt;Node11 -->
<g id="edge10" class="edge">
<title>Node10&#45;&gt;Node11</title>
<path fill="none" stroke="midnightblue" d="M1011.51,-46.1C1012.34,-37.14 1013.3,-26.86 1013.95,-19.75"/>
<polygon fill="midnightblue" stroke="midnightblue" points="1008.03,-45.8 1010.59,-56.08 1015,-46.45 1008.03,-45.8"/>
</g>
<!-- Node13 -->
<g id="node13" class="node">
<title>Node13</title>
<g id="a_node13"><a xlink:href="multilane__types__compare_8cc.html" target="_top" xlink:title=" ">
<polygon fill="white" stroke="black" points="761.26,-0.5 761.26,-19.5 918.26,-19.5 918.26,-0.5 761.26,-0.5"/>
<text text-anchor="middle" x="839.76" y="-7.5" font-family="Helvetica,sans-Serif" font-size="10.00">multilane_types_compare.cc</text>
</a>
</g>
</g>
<!-- Node12&#45;&gt;Node13 -->
<g id="edge12" class="edge">
<title>Node12&#45;&gt;Node13</title>
<path fill="none" stroke="midnightblue" d="M839.76,-45.8C839.76,-36.91 839.76,-26.78 839.76,-19.75"/>
<polygon fill="midnightblue" stroke="midnightblue" points="836.26,-46.08 839.76,-56.08 843.26,-46.08 836.26,-46.08"/>
</g>
<!-- Node15&#45;&gt;Node14 -->
<g id="edge18" class="edge">
<title>Node15&#45;&gt;Node14</title>
<path fill="none" stroke="midnightblue" d="M333.32,-108.64C308.36,-98.5 273.69,-84.43 251.74,-75.52"/>
<polygon fill="midnightblue" stroke="midnightblue" points="332.11,-111.92 342.69,-112.44 334.74,-105.44 332.11,-111.92"/>
</g>
<!-- Node16 -->
<g id="node16" class="node">
<title>Node16</title>
<g id="a_node16"><a xlink:href="road__geometry_8cc.html" target="_top" xlink:title=" ">
<polygon fill="white" stroke="black" points="312.26,-56.5 312.26,-75.5 415.26,-75.5 415.26,-56.5 312.26,-56.5"/>
<text text-anchor="middle" x="363.76" y="-63.5" font-family="Helvetica,sans-Serif" font-size="10.00">road_geometry.cc</text>
</a>
</g>
</g>
<!-- Node15&#45;&gt;Node16 -->
<g id="edge19" class="edge">
<title>Node15&#45;&gt;Node16</title>
<path fill="none" stroke="midnightblue" d="M363.76,-101.8C363.76,-92.91 363.76,-82.78 363.76,-75.75"/>
<polygon fill="midnightblue" stroke="midnightblue" points="360.26,-102.08 363.76,-112.08 367.26,-102.08 360.26,-102.08"/>
</g>
<!-- Node20&#45;&gt;Node2 -->
<g id="edge35" class="edge">
<title>Node20&#45;&gt;Node2</title>
<path fill="none" stroke="midnightblue" d="M232.52,-355.08C200.25,-343.52 152.08,-326.25 123.5,-316.01"/>
<polygon fill="midnightblue" stroke="midnightblue" points="231.39,-358.4 241.98,-358.48 233.75,-351.81 231.39,-358.4"/>
</g>
<!-- Node20&#45;&gt;Node3 -->
<g id="edge41" class="edge">
<title>Node20&#45;&gt;Node3</title>
<path fill="none" stroke="midnightblue" d="M246.24,-352.17C235.98,-343.88 223.54,-333.03 213.76,-322 192.24,-297.74 172.37,-264.6 163.56,-249.12"/>
<polygon fill="midnightblue" stroke="midnightblue" points="244.22,-355.03 254.24,-358.47 248.55,-349.53 244.22,-355.03"/>
</g>
<!-- Node20&#45;&gt;Node4 -->
<g id="edge34" class="edge">
<title>Node20&#45;&gt;Node4</title>
<path fill="none" stroke="midnightblue" d="M266.36,-348.24C267.64,-308.31 270.58,-216.2 271.49,-187.62"/>
<polygon fill="midnightblue" stroke="midnightblue" points="262.86,-348.33 266.04,-358.43 269.86,-348.55 262.86,-348.33"/>
</g>
<!-- Node20&#45;&gt;Node10 -->
<g id="edge40" class="edge">
<title>Node20&#45;&gt;Node10</title>
<path fill="none" stroke="midnightblue" d="M315.77,-358.06C473.22,-337.84 932.76,-377.29 932.76,-240.5 932.76,-240.5 932.76,-240.5 932.76,-177 932.76,-132.01 976.53,-92.34 998.07,-75.53"/>
<polygon fill="midnightblue" stroke="midnightblue" points="315.25,-354.6 305.85,-359.48 316.24,-361.53 315.25,-354.6"/>
</g>
<!-- Node21 -->
<g id="node21" class="node">
<title>Node21</title>
<g id="a_node21"><a xlink:href="arc__road__curve_8h.html" target="_top" xlink:title=" ">
<polygon fill="white" stroke="black" points="120.76,-168.5 120.76,-187.5 220.76,-187.5 220.76,-168.5 120.76,-168.5"/>
<text text-anchor="middle" x="170.76" y="-175.5" font-family="Helvetica,sans-Serif" font-size="10.00">arc_road_curve.h</text>
</a>
</g>
</g>
<!-- Node20&#45;&gt;Node21 -->
<g id="edge25" class="edge">
<title>Node20&#45;&gt;Node21</title>
<path fill="none" stroke="midnightblue" d="M258.87,-348.82C248.1,-321.14 226,-267.12 201.76,-224 194.33,-210.77 184.08,-196.5 177.44,-187.66"/>
<polygon fill="midnightblue" stroke="midnightblue" points="255.68,-350.28 262.54,-358.36 262.21,-347.77 255.68,-350.28"/>
</g>
<!-- Node24 -->
<g id="node24" class="node">
<title>Node24</title>
<g id="a_node24"><a xlink:href="connection_8h.html" target="_top" xlink:title=" ">
<polygon fill="white" stroke="black" points="612.26,-168.5 612.26,-187.5 691.26,-187.5 691.26,-168.5 612.26,-168.5"/>
<text text-anchor="middle" x="651.76" y="-175.5" font-family="Helvetica,sans-Serif" font-size="10.00">connection.h</text>
</a>
</g>
</g>
<!-- Node20&#45;&gt;Node24 -->
<g id="edge29" class="edge">
<title>Node20&#45;&gt;Node24</title>
<path fill="none" stroke="midnightblue" d="M315.97,-357.95C421.93,-342.59 463.24,-376.1 550.76,-322 605.32,-288.28 638.56,-213 648.56,-187.58"/>
<polygon fill="midnightblue" stroke="midnightblue" points="315.2,-354.53 305.86,-359.53 316.28,-361.44 315.2,-354.53"/>
</g>
<!-- Node25 -->
<g id="node25" class="node">
<title>Node25</title>
<g id="a_node25"><a xlink:href="line__road__curve_8h.html" target="_top" xlink:title=" ">
<polygon fill="white" stroke="black" points="491.26,-168.5 491.26,-187.5 594.26,-187.5 594.26,-168.5 491.26,-168.5"/>
<text text-anchor="middle" x="542.76" y="-175.5" font-family="Helvetica,sans-Serif" font-size="10.00">line_road_curve.h</text>
</a>
</g>
</g>
<!-- Node20&#45;&gt;Node25 -->
<g id="edge36" class="edge">
<title>Node20&#45;&gt;Node25</title>
<path fill="none" stroke="midnightblue" d="M315.78,-358.1C376.57,-350.35 497.66,-355.33 528.76,-322 564.33,-283.88 551.16,-212.69 545.12,-187.84"/>
<polygon fill="midnightblue" stroke="midnightblue" points="315.24,-354.64 305.87,-359.58 316.27,-361.57 315.24,-354.64"/>
</g>
<!-- Node27 -->
<g id="node27" class="node">
<title>Node27</title>
<g id="a_node27"><a xlink:href="multilane__brute__force__integral_8h.html" target="_top" xlink:title=" ">
<polygon fill="white" stroke="black" points="293.76,-291.5 293.76,-321.5 417.76,-321.5 417.76,-291.5 293.76,-291.5"/>
<text text-anchor="start" x="301.76" y="-309.5" font-family="Helvetica,sans-Serif" font-size="10.00">multilane_brute_force</text>
<text text-anchor="middle" x="355.76" y="-298.5" font-family="Helvetica,sans-Serif" font-size="10.00">_integral.h</text>
</a>
</g>
</g>
<!-- Node20&#45;&gt;Node27 -->
<g id="edge42" class="edge">
<title>Node20&#45;&gt;Node27</title>
<path fill="none" stroke="midnightblue" d="M287.34,-352.74C301.64,-343.28 320.32,-330.93 334.55,-321.52"/>
<polygon fill="midnightblue" stroke="midnightblue" points="285.07,-350.04 278.66,-358.48 288.93,-355.88 285.07,-350.04"/>
</g>
<!-- Node29 -->
<g id="node29" class="node">
<title>Node29</title>
<g id="a_node29"><a xlink:href="road__curve_8cc.html" target="_top" xlink:title=" ">
<polygon fill="white" stroke="black" points="435.76,-297 435.76,-316 519.76,-316 519.76,-297 435.76,-297"/>
<text text-anchor="middle" x="477.76" y="-304" font-family="Helvetica,sans-Serif" font-size="10.00">road_curve.cc</text>
</a>
</g>
</g>
<!-- Node20&#45;&gt;Node29 -->
<g id="edge44" class="edge">
<title>Node20&#45;&gt;Node29</title>
<path fill="none" stroke="midnightblue" d="M306.39,-355.7C338.95,-346.63 385.8,-333.55 426.76,-322 433.59,-320.08 440.92,-318 447.84,-316.03"/>
<polygon fill="midnightblue" stroke="midnightblue" points="305.04,-352.44 296.34,-358.5 306.91,-359.19 305.04,-352.44"/>
</g>
<!-- Node21&#45;&gt;Node14 -->
<g id="edge27" class="edge">
<title>Node21&#45;&gt;Node14</title>
<path fill="none" stroke="midnightblue" d="M180.41,-159.32C193.47,-135.37 216.28,-93.55 226.08,-75.59"/>
<polygon fill="midnightblue" stroke="midnightblue" points="177.19,-157.91 175.47,-168.37 183.33,-161.27 177.19,-157.91"/>
</g>
<!-- Node22 -->
<g id="node22" class="node">
<title>Node22</title>
<g id="a_node22"><a xlink:href="arc__road__curve_8cc.html" target="_top" xlink:title=" ">
<polygon fill="white" stroke="black" points="28.76,-112.5 28.76,-131.5 132.76,-131.5 132.76,-112.5 28.76,-112.5"/>
<text text-anchor="middle" x="80.76" y="-119.5" font-family="Helvetica,sans-Serif" font-size="10.00">arc_road_curve.cc</text>
</a>
</g>
</g>
<!-- Node21&#45;&gt;Node22 -->
<g id="edge26" class="edge">
<title>Node21&#45;&gt;Node22</title>
<path fill="none" stroke="midnightblue" d="M147.73,-163.18C131.17,-153.24 109.35,-140.15 95.19,-131.65"/>
<polygon fill="midnightblue" stroke="midnightblue" points="145.93,-166.18 156.3,-168.32 149.53,-160.18 145.93,-166.18"/>
</g>
<!-- Node23 -->
<g id="node23" class="node">
<title>Node23</title>
<g id="a_node23"><a xlink:href="connection_8cc.html" target="_top" xlink:title=" ">
<polygon fill="white" stroke="black" points="431.26,-112.5 431.26,-131.5 514.26,-131.5 514.26,-112.5 431.26,-112.5"/>
<text text-anchor="middle" x="472.76" y="-119.5" font-family="Helvetica,sans-Serif" font-size="10.00">connection.cc</text>
</a>
</g>
</g>
<!-- Node21&#45;&gt;Node23 -->
<g id="edge28" class="edge">
<title>Node21&#45;&gt;Node23</title>
<path fill="none" stroke="midnightblue" d="M228.56,-166.66C287.77,-156.08 378.37,-139.88 430.97,-130.47"/>
<polygon fill="midnightblue" stroke="midnightblue" points="227.85,-163.24 218.62,-168.44 229.08,-170.13 227.85,-163.24"/>
</g>
<!-- Node24&#45;&gt;Node5 -->
<g id="edge30" class="edge">
<title>Node24&#45;&gt;Node5</title>
<path fill="none" stroke="midnightblue" d="M636.39,-160.72C627.4,-151.2 616.41,-139.56 609.03,-131.75"/>
<polygon fill="midnightblue" stroke="midnightblue" points="633.93,-163.22 643.34,-168.08 639.02,-158.41 633.93,-163.22"/>
</g>
<!-- Node24&#45;&gt;Node7 -->
<g id="edge33" class="edge">
<title>Node24&#45;&gt;Node7</title>
<path fill="none" stroke="midnightblue" d="M701.33,-170.2C724.69,-164.23 750.51,-153.03 764.76,-132 778.17,-112.22 735.03,-44.09 718.74,-19.74"/>
<polygon fill="midnightblue" stroke="midnightblue" points="700.48,-166.8 691.51,-172.45 702.04,-173.62 700.48,-166.8"/>
</g>
<!-- Node24&#45;&gt;Node12 -->
<g id="edge31" class="edge">
<title>Node24&#45;&gt;Node12</title>
<path fill="none" stroke="midnightblue" d="M701.34,-170.5C731.61,-164.53 769.74,-153.22 797.76,-132 817.69,-116.92 830.83,-89.44 836.53,-75.54"/>
<polygon fill="midnightblue" stroke="midnightblue" points="700.61,-167.08 691.4,-172.33 701.87,-173.96 700.61,-167.08"/>
</g>
<!-- Node24&#45;&gt;Node23 -->
<g id="edge32" class="edge">
<title>Node24&#45;&gt;Node23</title>
<path fill="none" stroke="midnightblue" d="M613.43,-165.44C579.68,-155.26 531.32,-140.66 500.99,-131.52"/>
<polygon fill="midnightblue" stroke="midnightblue" points="612.82,-168.91 623.4,-168.44 614.84,-162.2 612.82,-168.91"/>
</g>
<!-- Node25&#45;&gt;Node14 -->
<g id="edge37" class="edge">
<title>Node25&#45;&gt;Node14</title>
<path fill="none" stroke="midnightblue" d="M542.47,-158.24C541.17,-143.46 536.87,-123.48 523.76,-112 513.98,-103.43 336.78,-80.31 262.8,-70.98"/>
<polygon fill="midnightblue" stroke="midnightblue" points="538.98,-158.5 542.97,-168.31 545.97,-158.15 538.98,-158.5"/>
</g>
<!-- Node25&#45;&gt;Node23 -->
<g id="edge38" class="edge">
<title>Node25&#45;&gt;Node23</title>
<path fill="none" stroke="midnightblue" d="M523.45,-162.1C510.85,-152.38 494.84,-140.03 484.22,-131.83"/>
<polygon fill="midnightblue" stroke="midnightblue" points="521.46,-164.99 531.52,-168.32 525.74,-159.44 521.46,-164.99"/>
</g>
<!-- Node26 -->
<g id="node26" class="node">
<title>Node26</title>
<g id="a_node26"><a xlink:href="line__road__curve_8cc.html" target="_top" xlink:title=" ">
<polygon fill="white" stroke="black" points="648.26,-112.5 648.26,-131.5 755.26,-131.5 755.26,-112.5 648.26,-112.5"/>
<text text-anchor="middle" x="701.76" y="-119.5" font-family="Helvetica,sans-Serif" font-size="10.00">line_road_curve.cc</text>
</a>
</g>
</g>
<!-- Node25&#45;&gt;Node26 -->
<g id="edge39" class="edge">
<title>Node25&#45;&gt;Node26</title>
<path fill="none" stroke="midnightblue" d="M577.59,-165.17C607.53,-155 649.99,-140.59 676.69,-131.52"/>
<polygon fill="midnightblue" stroke="midnightblue" points="576.3,-161.91 567.96,-168.44 578.55,-168.54 576.3,-161.91"/>
</g>
<!-- Node28 -->
<g id="node28" class="node">
<title>Node28</title>
<g id="a_node28"><a xlink:href="multilane__brute__force__integral_8cc.html" target="_top" xlink:title=" ">
<polygon fill="white" stroke="black" points="293.76,-224.5 293.76,-254.5 417.76,-254.5 417.76,-224.5 293.76,-224.5"/>
<text text-anchor="start" x="301.76" y="-242.5" font-family="Helvetica,sans-Serif" font-size="10.00">multilane_brute_force</text>
<text text-anchor="middle" x="355.76" y="-231.5" font-family="Helvetica,sans-Serif" font-size="10.00">_integral.cc</text>
</a>
</g>
</g>
<!-- Node27&#45;&gt;Node28 -->
<g id="edge43" class="edge">
<title>Node27&#45;&gt;Node28</title>
<path fill="none" stroke="midnightblue" d="M355.76,-281.11C355.76,-272.15 355.76,-262.32 355.76,-254.58"/>
<polygon fill="midnightblue" stroke="midnightblue" points="352.26,-281.4 355.76,-291.4 359.26,-281.4 352.26,-281.4"/>
</g>
</g>
</svg>
