<?xml version="1.0" encoding="UTF-8" standalone="no"?>
<!DOCTYPE svg PUBLIC "-//W3C//DTD SVG 1.1//EN"
 "http://www.w3.org/Graphics/SVG/1.1/DTD/svg11.dtd">
<!-- Generated by graphviz version 2.40.1 (20161225.0304)
 -->
<!-- Title: maliput_multilane_test_utilities Pages: 1 -->
<svg width="212pt" height="151pt"
 viewBox="0.00 0.00 212.00 151.00" xmlns="http://www.w3.org/2000/svg" xmlns:xlink="http://www.w3.org/1999/xlink">
<g id="graph0" class="graph" transform="scale(1 1) rotate(0) translate(4 147)">
<title>maliput_multilane_test_utilities</title>
<polygon fill="#ffffff" stroke="transparent" points="-4,4 -4,-147 208,-147 208,4 -4,4"/>
<g id="clust1" class="cluster">
<title>clusterdir_68267d1309a1af8e8297ef4c3efbcdba</title>
<g id="a_clust1"><a xlink:href="dir_68267d1309a1af8e8297ef4c3efbcdba.html" target="_top" xlink:title="src">
<polygon fill="#ddddee" stroke="#000000" points="8,-64 8,-135 196,-135 196,-64 8,-64"/>
<text text-anchor="middle" x="102" y="-123" font-family="Helvetica,sans-Serif" font-size="10.00" fill="#000000">src</text>
</a>
</g>
</g>
<!-- dir_4f5f20ecd2d6b1e5aa62410e6b024005 -->
<g id="node1" class="node">
<title>dir_4f5f20ecd2d6b1e5aa62410e6b024005</title>
<g id="a_node1"><a xlink:href="dir_4f5f20ecd2d6b1e5aa62410e6b024005.html" target="_top" xlink:title="maliput_multilane_test_utilities">
<polygon fill="#eeeeff" stroke="#000000" points="188,-108 16,-108 16,-72 188,-72 188,-108"/>
<text text-anchor="middle" x="102" y="-87.5" font-family="Helvetica,sans-Serif" font-size="10.00" fill="#000000">maliput_multilane_test_utilities</text>
</a>
</g>
</g>
<!-- dir_d44c64559bbebec7f509842c48db8b23 -->
<g id="node2" class="node">
<title>dir_d44c64559bbebec7f509842c48db8b23</title>
<g id="a_node2"><a xlink:href="dir_d44c64559bbebec7f509842c48db8b23.html" target="_top" xlink:title="include">
<polygon fill="#ffffff" stroke="#ff0000" points="129,-36 75,-36 75,0 129,0 129,-36"/>
<text text-anchor="middle" x="102" y="-15.5" font-family="Helvetica,sans-Serif" font-size="10.00" fill="#000000">include</text>
</a>
</g>
</g>
<!-- dir_4f5f20ecd2d6b1e5aa62410e6b024005&#45;&gt;dir_d44c64559bbebec7f509842c48db8b23 -->
<g id="edge1" class="edge">
<title>dir_4f5f20ecd2d6b1e5aa62410e6b024005&#45;&gt;dir_d44c64559bbebec7f509842c48db8b23</title>
<path fill="none" stroke="#000000" d="M102,-71.8314C102,-64.131 102,-54.9743 102,-46.4166"/>
<polygon fill="#000000" stroke="#000000" points="105.5001,-46.4132 102,-36.4133 98.5001,-46.4133 105.5001,-46.4132"/>
<g id="a_edge1&#45;headlabel"><a xlink:href="dir_000005_000002.html" target="_top" xlink:title="5">
<text text-anchor="middle" x="108.3393" y="-47.5079" font-family="Helvetica,sans-Serif" font-size="10.00" fill="#000000">5</text>
</a>
</g>
</g>
</g>
</svg>
