<?xml version="1.0" encoding="UTF-8" standalone="no"?>
<!DOCTYPE svg PUBLIC "-//W3C//DTD SVG 1.1//EN"
 "http://www.w3.org/Graphics/SVG/1.1/DTD/svg11.dtd">
<!-- Generated by graphviz version 2.43.0 (0)
 -->
<!-- Title: Graphical Class Hierarchy Pages: 1 -->
<svg width="204pt" height="66pt"
 viewBox="0.00 0.00 204.00 66.00" xmlns="http://www.w3.org/2000/svg" xmlns:xlink="http://www.w3.org/1999/xlink">
<g id="graph0" class="graph" transform="scale(1 1) rotate(0) translate(4 62)">
<title>Graphical Class Hierarchy</title>
<polygon fill="white" stroke="transparent" points="-4,4 -4,-62 200,-62 200,4 -4,4"/>
<!-- Node0 -->
<g id="node1" class="node">
<title>Node0</title>
<g id="a_node1"><a xlink:href="classmaliput_1_1multilane_1_1_road_curve.html" target="_top" xlink:title="Defines an interface for a path in a Segment object surface.">
<polygon fill="white" stroke="black" points="0,-19.5 0,-38.5 70,-38.5 70,-19.5 0,-19.5"/>
<text text-anchor="middle" x="35" y="-26.5" font-family="Helvetica,sans-Serif" font-size="10.00">RoadCurve</text>
</a>
</g>
</g>
<!-- Node1 -->
<g id="node2" class="node">
<title>Node1</title>
<g id="a_node2"><a xlink:href="classmaliput_1_1multilane_1_1_arc_road_curve.html" target="_top" xlink:title="RoadCurve specification for a reference curve that describes a piece of an arc.">
<polygon fill="white" stroke="black" points="108,-38.5 108,-57.5 194,-57.5 194,-38.5 108,-38.5"/>
<text text-anchor="middle" x="151" y="-45.5" font-family="Helvetica,sans-Serif" font-size="10.00">ArcRoadCurve</text>
</a>
</g>
</g>
<!-- Node0&#45;&gt;Node1 -->
<g id="edge1" class="edge">
<title>Node0&#45;&gt;Node1</title>
<path fill="none" stroke="midnightblue" d="M80.19,-36.36C89.24,-37.87 98.76,-39.46 107.75,-40.96"/>
<polygon fill="midnightblue" stroke="midnightblue" points="80.64,-32.89 70.2,-34.7 79.49,-39.8 80.64,-32.89"/>
</g>
<!-- Node2 -->
<g id="node3" class="node">
<title>Node2</title>
<g id="a_node3"><a xlink:href="classmaliput_1_1multilane_1_1_line_road_curve.html" target="_top" xlink:title="RoadCurve specification for a reference curve that describes a line.">
<polygon fill="white" stroke="black" points="106,-0.5 106,-19.5 196,-19.5 196,-0.5 106,-0.5"/>
<text text-anchor="middle" x="151" y="-7.5" font-family="Helvetica,sans-Serif" font-size="10.00">LineRoadCurve</text>
</a>
</g>
</g>
<!-- Node0&#45;&gt;Node2 -->
<g id="edge2" class="edge">
<title>Node0&#45;&gt;Node2</title>
<path fill="none" stroke="midnightblue" d="M80.17,-21.64C88.54,-20.24 97.3,-18.78 105.68,-17.39"/>
<polygon fill="midnightblue" stroke="midnightblue" points="79.49,-18.2 70.2,-23.3 80.64,-25.11 79.49,-18.2"/>
</g>
</g>
</svg>
