<?xml version="1.0" encoding="UTF-8" standalone="no"?>
<!DOCTYPE svg PUBLIC "-//W3C//DTD SVG 1.1//EN"
 "http://www.w3.org/Graphics/SVG/1.1/DTD/svg11.dtd">
<!-- Generated by graphviz version 2.43.0 (0)
 -->
<!-- Title: junction.cc Pages: 1 -->
<svg width="1536pt" height="408pt"
 viewBox="0.00 0.00 1535.50 408.00" xmlns="http://www.w3.org/2000/svg" xmlns:xlink="http://www.w3.org/1999/xlink">
<g id="graph0" class="graph" transform="scale(1 1) rotate(0) translate(4 404)">
<title>junction.cc</title>
<polygon fill="white" stroke="transparent" points="-4,4 -4,-404 1531.5,-404 1531.5,4 -4,4"/>
<!-- Node1 -->
<g id="node1" class="node">
<title>Node1</title>
<g id="a_node1"><a xlink:title=" ">
<polygon fill="#bfbfbf" stroke="black" points="928.5,-380.5 928.5,-399.5 997.5,-399.5 997.5,-380.5 928.5,-380.5"/>
<text text-anchor="middle" x="963" y="-387.5" font-family="Helvetica,sans-Serif" font-size="10.00">junction.cc</text>
</a>
</g>
</g>
<!-- Node2 -->
<g id="node2" class="node">
<title>Node2</title>
<g id="a_node2"><a xlink:href="junction_8h.html" target="_top" xlink:title=" ">
<polygon fill="white" stroke="black" points="668.5,-324.5 668.5,-343.5 825.5,-343.5 825.5,-324.5 668.5,-324.5"/>
<text text-anchor="middle" x="747" y="-331.5" font-family="Helvetica,sans-Serif" font-size="10.00">maliput_multilane/junction.h</text>
</a>
</g>
</g>
<!-- Node1&#45;&gt;Node2 -->
<g id="edge1" class="edge">
<title>Node1&#45;&gt;Node2</title>
<path fill="none" stroke="midnightblue" d="M928.77,-380.44C891.49,-371.12 831.73,-356.18 790.99,-346"/>
<polygon fill="midnightblue" stroke="midnightblue" points="791.62,-342.55 781.07,-343.52 789.92,-349.34 791.62,-342.55"/>
</g>
<!-- Node11 -->
<g id="node11" class="node">
<title>Node11</title>
<g id="a_node11"><a xlink:title=" ">
<polygon fill="white" stroke="#bfbfbf" points="1482.5,-78.5 1482.5,-97.5 1527.5,-97.5 1527.5,-78.5 1482.5,-78.5"/>
<text text-anchor="middle" x="1505" y="-85.5" font-family="Helvetica,sans-Serif" font-size="10.00">utility</text>
</a>
</g>
</g>
<!-- Node1&#45;&gt;Node11 -->
<g id="edge49" class="edge">
<title>Node1&#45;&gt;Node11</title>
<path fill="none" stroke="midnightblue" d="M997.58,-389.18C1114.82,-388.85 1490,-379.94 1490,-279 1490,-279 1490,-279 1490,-221 1490,-180.4 1497.09,-133.22 1501.52,-107.71"/>
<polygon fill="midnightblue" stroke="midnightblue" points="1505.01,-108.07 1503.34,-97.61 1498.12,-106.83 1505.01,-108.07"/>
</g>
<!-- Node3 -->
<g id="node3" class="node">
<title>Node3</title>
<g id="a_node3"><a xlink:title=" ">
<polygon fill="white" stroke="#bfbfbf" points="1399.5,-78.5 1399.5,-97.5 1464.5,-97.5 1464.5,-78.5 1399.5,-78.5"/>
<text text-anchor="middle" x="1432" y="-85.5" font-family="Helvetica,sans-Serif" font-size="10.00">functional</text>
</a>
</g>
</g>
<!-- Node2&#45;&gt;Node3 -->
<g id="edge2" class="edge">
<title>Node2&#45;&gt;Node3</title>
<path fill="none" stroke="midnightblue" d="M825.74,-325.45C879.4,-318.91 951.58,-307.37 1013,-288 1171.56,-238 1346.89,-139.22 1408.81,-102.86"/>
<polygon fill="midnightblue" stroke="midnightblue" points="1410.92,-105.67 1417.75,-97.57 1407.36,-99.65 1410.92,-105.67"/>
</g>
<!-- Node4 -->
<g id="node4" class="node">
<title>Node4</title>
<g id="a_node4"><a xlink:title=" ">
<polygon fill="white" stroke="#bfbfbf" points="308,-78.5 308,-97.5 366,-97.5 366,-78.5 308,-78.5"/>
<text text-anchor="middle" x="337" y="-85.5" font-family="Helvetica,sans-Serif" font-size="10.00">memory</text>
</a>
</g>
</g>
<!-- Node2&#45;&gt;Node4 -->
<g id="edge3" class="edge">
<title>Node2&#45;&gt;Node4</title>
<path fill="none" stroke="midnightblue" d="M765.5,-324.46C821.21,-297.68 979.72,-213.1 916,-145 874.84,-101.01 432.97,-125.39 375,-109 369.67,-107.49 364.23,-105.17 359.19,-102.64"/>
<polygon fill="midnightblue" stroke="midnightblue" points="360.59,-99.42 350.14,-97.67 357.22,-105.55 360.59,-99.42"/>
</g>
<!-- Node5 -->
<g id="node5" class="node">
<title>Node5</title>
<g id="a_node5"><a xlink:title=" ">
<polygon fill="white" stroke="#bfbfbf" points="28.5,-212.5 28.5,-231.5 75.5,-231.5 75.5,-212.5 28.5,-212.5"/>
<text text-anchor="middle" x="52" y="-219.5" font-family="Helvetica,sans-Serif" font-size="10.00">vector</text>
</a>
</g>
</g>
<!-- Node2&#45;&gt;Node5 -->
<g id="edge4" class="edge">
<title>Node2&#45;&gt;Node5</title>
<path fill="none" stroke="midnightblue" d="M668.42,-325.06C545.41,-311.74 300.05,-281.6 85.57,-232.21"/>
<polygon fill="midnightblue" stroke="midnightblue" points="86.24,-228.77 75.7,-229.92 84.65,-235.59 86.24,-228.77"/>
</g>
<!-- Node6 -->
<g id="node6" class="node">
<title>Node6</title>
<g id="a_node6"><a xlink:title=" ">
<polygon fill="white" stroke="#bfbfbf" points="93.5,-212.5 93.5,-231.5 216.5,-231.5 216.5,-212.5 93.5,-212.5"/>
<text text-anchor="middle" x="155" y="-219.5" font-family="Helvetica,sans-Serif" font-size="10.00">maliput/api/junction.h</text>
</a>
</g>
</g>
<!-- Node2&#45;&gt;Node6 -->
<g id="edge5" class="edge">
<title>Node2&#45;&gt;Node6</title>
<path fill="none" stroke="midnightblue" d="M695.84,-324.43C643.55,-315.6 560.04,-301.29 488,-288 388.61,-269.67 272.87,-246.71 207.34,-233.56"/>
<polygon fill="midnightblue" stroke="midnightblue" points="207.76,-230.08 197.26,-231.54 206.38,-236.94 207.76,-230.08"/>
</g>
<!-- Node7 -->
<g id="node7" class="node">
<title>Node7</title>
<g id="a_node7"><a xlink:title=" ">
<polygon fill="white" stroke="#bfbfbf" points="234.5,-212.5 234.5,-231.5 391.5,-231.5 391.5,-212.5 234.5,-212.5"/>
<text text-anchor="middle" x="313" y="-219.5" font-family="Helvetica,sans-Serif" font-size="10.00">maliput/api/road_geometry.h</text>
</a>
</g>
</g>
<!-- Node2&#45;&gt;Node7 -->
<g id="edge6" class="edge">
<title>Node2&#45;&gt;Node7</title>
<path fill="none" stroke="midnightblue" d="M713.31,-324.46C635.43,-304.72 443.03,-255.96 356.45,-234.01"/>
<polygon fill="midnightblue" stroke="midnightblue" points="357.23,-230.6 346.67,-231.53 355.51,-237.38 357.23,-230.6"/>
</g>
<!-- Node8 -->
<g id="node8" class="node">
<title>Node8</title>
<g id="a_node8"><a xlink:title=" ">
<polygon fill="white" stroke="#bfbfbf" points="780.5,-151 780.5,-170 907.5,-170 907.5,-151 780.5,-151"/>
<text text-anchor="middle" x="844" y="-158" font-family="Helvetica,sans-Serif" font-size="10.00">maliput/api/segment.h</text>
</a>
</g>
</g>
<!-- Node2&#45;&gt;Node8 -->
<g id="edge7" class="edge">
<title>Node2&#45;&gt;Node8</title>
<path fill="none" stroke="midnightblue" d="M751.94,-324.26C767.19,-297.31 813.67,-215.12 834.15,-178.92"/>
<polygon fill="midnightblue" stroke="midnightblue" points="837.3,-180.45 839.18,-170.02 831.21,-177 837.3,-180.45"/>
</g>
<!-- Node9 -->
<g id="node9" class="node">
<title>Node9</title>
<g id="a_node9"><a xlink:href="../../maliput/html/maliput__copyable_8h.html.html" xlink:title=" ">
<polygon fill="white" stroke="black" points="210,-0.5 210,-30.5 350,-30.5 350,-0.5 210,-0.5"/>
<text text-anchor="start" x="218" y="-18.5" font-family="Helvetica,sans-Serif" font-size="10.00">maliput/common/maliput</text>
<text text-anchor="middle" x="280" y="-7.5" font-family="Helvetica,sans-Serif" font-size="10.00">_copyable.h</text>
</a>
</g>
</g>
<!-- Node2&#45;&gt;Node9 -->
<g id="edge8" class="edge">
<title>Node2&#45;&gt;Node9</title>
<path fill="none" stroke="midnightblue" d="M668.47,-329.57C476.68,-320.16 0,-290.02 0,-223 0,-223 0,-223 0,-159.5 0,-69.15 117.05,-35.86 199.8,-23.6"/>
<polygon fill="midnightblue" stroke="midnightblue" points="200.29,-27.07 209.71,-22.21 199.32,-20.14 200.29,-27.07"/>
</g>
<!-- Node10 -->
<g id="node10" class="node">
<title>Node10</title>
<g id="a_node10"><a xlink:href="road__curve_8h.html" target="_top" xlink:title=" ">
<polygon fill="white" stroke="black" points="1002.5,-145.5 1002.5,-175.5 1133.5,-175.5 1133.5,-145.5 1002.5,-145.5"/>
<text text-anchor="start" x="1010.5" y="-163.5" font-family="Helvetica,sans-Serif" font-size="10.00">maliput_multilane/road</text>
<text text-anchor="middle" x="1068" y="-152.5" font-family="Helvetica,sans-Serif" font-size="10.00">_curve.h</text>
</a>
</g>
</g>
<!-- Node2&#45;&gt;Node10 -->
<g id="edge9" class="edge">
<title>Node2&#45;&gt;Node10</title>
<path fill="none" stroke="midnightblue" d="M825.57,-325.17C885.45,-317.95 961.93,-305.67 988,-288 1025.13,-262.83 1048.57,-214.07 1059.89,-184.99"/>
<polygon fill="midnightblue" stroke="midnightblue" points="1063.18,-186.19 1063.39,-175.6 1056.62,-183.75 1063.18,-186.19"/>
</g>
<!-- Node22 -->
<g id="node22" class="node">
<title>Node22</title>
<g id="a_node22"><a xlink:href="segment_8h.html" target="_top" xlink:title=" ">
<polygon fill="white" stroke="black" points="583.5,-268.5 583.5,-287.5 744.5,-287.5 744.5,-268.5 583.5,-268.5"/>
<text text-anchor="middle" x="664" y="-275.5" font-family="Helvetica,sans-Serif" font-size="10.00">maliput_multilane/segment.h</text>
</a>
</g>
</g>
<!-- Node2&#45;&gt;Node22 -->
<g id="edge25" class="edge">
<title>Node2&#45;&gt;Node22</title>
<path fill="none" stroke="midnightblue" d="M733.66,-324.32C720.84,-315.98 701.22,-303.21 686.06,-293.35"/>
<polygon fill="midnightblue" stroke="midnightblue" points="687.59,-290.17 677.3,-287.65 683.78,-296.04 687.59,-290.17"/>
</g>
<!-- Node10&#45;&gt;Node3 -->
<g id="edge10" class="edge">
<title>Node10&#45;&gt;Node3</title>
<path fill="none" stroke="midnightblue" d="M1133.54,-151.49C1213.38,-141.34 1343.37,-123.42 1390,-109 1395.93,-107.17 1402.09,-104.63 1407.8,-101.98"/>
<polygon fill="midnightblue" stroke="midnightblue" points="1409.45,-105.07 1416.87,-97.51 1406.36,-98.79 1409.45,-105.07"/>
</g>
<!-- Node10&#45;&gt;Node4 -->
<g id="edge11" class="edge">
<title>Node10&#45;&gt;Node4</title>
<path fill="none" stroke="midnightblue" d="M1002.17,-146.92C997.39,-146.2 992.63,-145.55 988,-145 717.02,-112.6 637.91,-182.21 375,-109 369.66,-107.51 364.22,-105.2 359.18,-102.67"/>
<polygon fill="midnightblue" stroke="midnightblue" points="360.58,-99.45 350.13,-97.7 357.21,-105.58 360.58,-99.45"/>
</g>
<!-- Node10&#45;&gt;Node9 -->
<g id="edge19" class="edge">
<title>Node10&#45;&gt;Node9</title>
<path fill="none" stroke="midnightblue" d="M1002.16,-147.04C997.38,-146.3 992.62,-145.61 988,-145 891.39,-132.3 638.64,-151.59 551,-109 528.09,-97.87 534.13,-79.62 512,-67 465.72,-40.6 407.02,-27.98 360.25,-21.96"/>
<polygon fill="midnightblue" stroke="midnightblue" points="360.5,-18.47 350.16,-20.74 359.66,-25.42 360.5,-18.47"/>
</g>
<!-- Node10&#45;&gt;Node11 -->
<g id="edge12" class="edge">
<title>Node10&#45;&gt;Node11</title>
<path fill="none" stroke="midnightblue" d="M1133.51,-154.79C1231.7,-147.14 1411.99,-130.67 1473,-109 1477.24,-107.5 1481.5,-105.36 1485.47,-103.04"/>
<polygon fill="midnightblue" stroke="midnightblue" points="1487.56,-105.86 1494.07,-97.5 1483.76,-99.98 1487.56,-105.86"/>
</g>
<!-- Node12 -->
<g id="node12" class="node">
<title>Node12</title>
<g id="a_node12"><a xlink:title=" ">
<polygon fill="white" stroke="#bfbfbf" points="1304.5,-78.5 1304.5,-97.5 1381.5,-97.5 1381.5,-78.5 1304.5,-78.5"/>
<text text-anchor="middle" x="1343" y="-85.5" font-family="Helvetica,sans-Serif" font-size="10.00">Eigen/Dense</text>
</a>
</g>
</g>
<!-- Node10&#45;&gt;Node12 -->
<g id="edge13" class="edge">
<title>Node10&#45;&gt;Node12</title>
<path fill="none" stroke="midnightblue" d="M1133.88,-148.02C1179.63,-139.29 1241.69,-125.89 1295,-109 1301.71,-106.87 1308.78,-104.19 1315.37,-101.48"/>
<polygon fill="midnightblue" stroke="midnightblue" points="1316.76,-104.7 1324.59,-97.56 1314.02,-98.26 1316.76,-104.7"/>
</g>
<!-- Node13 -->
<g id="node13" class="node">
<title>Node13</title>
<g id="a_node13"><a xlink:title=" ">
<polygon fill="white" stroke="#bfbfbf" points="384.5,-73 384.5,-103 503.5,-103 503.5,-73 384.5,-73"/>
<text text-anchor="start" x="392.5" y="-91" font-family="Helvetica,sans-Serif" font-size="10.00">drake/common/eigen</text>
<text text-anchor="middle" x="444" y="-80" font-family="Helvetica,sans-Serif" font-size="10.00">_types.h</text>
</a>
</g>
</g>
<!-- Node10&#45;&gt;Node13 -->
<g id="edge14" class="edge">
<title>Node10&#45;&gt;Node13</title>
<path fill="none" stroke="midnightblue" d="M1002.16,-147.01C997.38,-146.28 992.62,-145.59 988,-145 780.21,-118.28 724.47,-144.49 518,-109 512.29,-108.02 506.37,-106.79 500.5,-105.43"/>
<polygon fill="midnightblue" stroke="midnightblue" points="501.22,-102.01 490.68,-103.04 499.57,-108.81 501.22,-102.01"/>
</g>
<!-- Node14 -->
<g id="node14" class="node">
<title>Node14</title>
<g id="a_node14"><a xlink:title=" ">
<polygon fill="white" stroke="#bfbfbf" points="712.5,-73 712.5,-103 825.5,-103 825.5,-73 712.5,-73"/>
<text text-anchor="start" x="720.5" y="-91" font-family="Helvetica,sans-Serif" font-size="10.00">drake/math/rotation</text>
<text text-anchor="middle" x="769" y="-80" font-family="Helvetica,sans-Serif" font-size="10.00">_matrix.h</text>
</a>
</g>
</g>
<!-- Node10&#45;&gt;Node14 -->
<g id="edge15" class="edge">
<title>Node10&#45;&gt;Node14</title>
<path fill="none" stroke="midnightblue" d="M1002.38,-146.75C955.52,-137.29 891.09,-123.55 835,-109 831.2,-108.01 827.29,-106.95 823.35,-105.85"/>
<polygon fill="midnightblue" stroke="midnightblue" points="824.17,-102.44 813.59,-103.05 822.24,-109.17 824.17,-102.44"/>
</g>
<!-- Node15 -->
<g id="node15" class="node">
<title>Node15</title>
<g id="a_node15"><a xlink:title=" ">
<polygon fill="white" stroke="#bfbfbf" points="844,-73 844,-103 986,-103 986,-73 844,-73"/>
<text text-anchor="start" x="852" y="-91" font-family="Helvetica,sans-Serif" font-size="10.00">drake/systems/analysis</text>
<text text-anchor="middle" x="915" y="-80" font-family="Helvetica,sans-Serif" font-size="10.00">/antiderivative_function.h</text>
</a>
</g>
</g>
<!-- Node10&#45;&gt;Node15 -->
<g id="edge16" class="edge">
<title>Node10&#45;&gt;Node15</title>
<path fill="none" stroke="midnightblue" d="M1037.41,-145.4C1013.64,-134.45 980.49,-119.18 954.69,-107.29"/>
<polygon fill="midnightblue" stroke="midnightblue" points="956.09,-104.08 945.54,-103.07 953.16,-110.44 956.09,-104.08"/>
</g>
<!-- Node16 -->
<g id="node16" class="node">
<title>Node16</title>
<g id="a_node16"><a xlink:title=" ">
<polygon fill="white" stroke="#bfbfbf" points="1004.5,-67.5 1004.5,-108.5 1135.5,-108.5 1135.5,-67.5 1004.5,-67.5"/>
<text text-anchor="start" x="1012.5" y="-96.5" font-family="Helvetica,sans-Serif" font-size="10.00">drake/systems/analysis</text>
<text text-anchor="start" x="1012.5" y="-85.5" font-family="Helvetica,sans-Serif" font-size="10.00">/scalar_initial_value</text>
<text text-anchor="middle" x="1070" y="-74.5" font-family="Helvetica,sans-Serif" font-size="10.00">_problem.h</text>
</a>
</g>
</g>
<!-- Node10&#45;&gt;Node16 -->
<g id="edge17" class="edge">
<title>Node10&#45;&gt;Node16</title>
<path fill="none" stroke="midnightblue" d="M1068.4,-145.23C1068.62,-137.57 1068.9,-127.84 1069.16,-118.63"/>
<polygon fill="midnightblue" stroke="midnightblue" points="1072.66,-118.68 1069.44,-108.59 1065.66,-118.49 1072.66,-118.68"/>
</g>
<!-- Node17 -->
<g id="node17" class="node">
<title>Node17</title>
<g id="a_node17"><a xlink:href="../../maliput/html/lane__data_8h.html.html" xlink:title=" ">
<polygon fill="white" stroke="black" points="1154,-78.5 1154,-97.5 1286,-97.5 1286,-78.5 1154,-78.5"/>
<text text-anchor="middle" x="1220" y="-85.5" font-family="Helvetica,sans-Serif" font-size="10.00">maliput/api/lane_data.h</text>
</a>
</g>
</g>
<!-- Node10&#45;&gt;Node17 -->
<g id="edge18" class="edge">
<title>Node10&#45;&gt;Node17</title>
<path fill="none" stroke="midnightblue" d="M1098.39,-145.4C1125.86,-132.66 1165.95,-114.07 1192.48,-101.76"/>
<polygon fill="midnightblue" stroke="midnightblue" points="1194,-104.92 1201.6,-97.53 1191.06,-98.57 1194,-104.92"/>
</g>
<!-- Node18 -->
<g id="node18" class="node">
<title>Node18</title>
<g id="a_node18"><a xlink:href="cubic__polynomial_8h.html" target="_top" xlink:title=" ">
<polygon fill="white" stroke="black" points="560,-73 560,-103 694,-103 694,-73 560,-73"/>
<text text-anchor="start" x="568" y="-91" font-family="Helvetica,sans-Serif" font-size="10.00">maliput_multilane/cubic</text>
<text text-anchor="middle" x="627" y="-80" font-family="Helvetica,sans-Serif" font-size="10.00">_polynomial.h</text>
</a>
</g>
</g>
<!-- Node10&#45;&gt;Node18 -->
<g id="edge20" class="edge">
<title>Node10&#45;&gt;Node18</title>
<path fill="none" stroke="midnightblue" d="M1002.13,-147.27C997.35,-146.47 992.6,-145.71 988,-145 861.81,-125.61 828.34,-133.3 703,-109 697.64,-107.96 692.1,-106.76 686.57,-105.47"/>
<polygon fill="midnightblue" stroke="midnightblue" points="687.2,-102.02 676.66,-103.07 685.56,-108.82 687.2,-102.02"/>
</g>
<!-- Node18&#45;&gt;Node9 -->
<g id="edge23" class="edge">
<title>Node18&#45;&gt;Node9</title>
<path fill="none" stroke="midnightblue" d="M571.76,-72.93C563.15,-70.87 554.35,-68.82 546,-67 483.87,-53.44 413.13,-40.11 360.22,-30.55"/>
<polygon fill="midnightblue" stroke="midnightblue" points="360.68,-27.08 350.22,-28.75 359.44,-33.97 360.68,-27.08"/>
</g>
<!-- Node19 -->
<g id="node19" class="node">
<title>Node19</title>
<g id="a_node19"><a xlink:title=" ">
<polygon fill="white" stroke="#bfbfbf" points="603.5,-6 603.5,-25 650.5,-25 650.5,-6 603.5,-6"/>
<text text-anchor="middle" x="627" y="-13" font-family="Helvetica,sans-Serif" font-size="10.00">cmath</text>
</a>
</g>
</g>
<!-- Node18&#45;&gt;Node19 -->
<g id="edge21" class="edge">
<title>Node18&#45;&gt;Node19</title>
<path fill="none" stroke="midnightblue" d="M627,-72.73C627,-62 627,-47.19 627,-35.46"/>
<polygon fill="midnightblue" stroke="midnightblue" points="630.5,-35.39 627,-25.39 623.5,-35.39 630.5,-35.39"/>
</g>
<!-- Node20 -->
<g id="node20" class="node">
<title>Node20</title>
<g id="a_node20"><a xlink:title=" ">
<polygon fill="white" stroke="#bfbfbf" points="668.5,-6 668.5,-25 725.5,-25 725.5,-6 668.5,-6"/>
<text text-anchor="middle" x="697" y="-13" font-family="Helvetica,sans-Serif" font-size="10.00">ostream</text>
</a>
</g>
</g>
<!-- Node18&#45;&gt;Node20 -->
<g id="edge22" class="edge">
<title>Node18&#45;&gt;Node20</title>
<path fill="none" stroke="midnightblue" d="M641.17,-72.73C652.7,-61.12 668.98,-44.72 680.99,-32.62"/>
<polygon fill="midnightblue" stroke="midnightblue" points="683.61,-34.96 688.17,-25.39 678.64,-30.02 683.61,-34.96"/>
</g>
<!-- Node21 -->
<g id="node21" class="node">
<title>Node21</title>
<g id="a_node21"><a xlink:href="../../maliput/html/maliput__unused_8h.html.html" xlink:title=" ">
<polygon fill="white" stroke="black" points="445,-0.5 445,-30.5 585,-30.5 585,-0.5 445,-0.5"/>
<text text-anchor="start" x="453" y="-18.5" font-family="Helvetica,sans-Serif" font-size="10.00">maliput/common/maliput</text>
<text text-anchor="middle" x="515" y="-7.5" font-family="Helvetica,sans-Serif" font-size="10.00">_unused.h</text>
</a>
</g>
</g>
<!-- Node18&#45;&gt;Node21 -->
<g id="edge24" class="edge">
<title>Node18&#45;&gt;Node21</title>
<path fill="none" stroke="midnightblue" d="M604.6,-72.9C587.82,-62.34 564.64,-47.74 546.06,-36.05"/>
<polygon fill="midnightblue" stroke="midnightblue" points="547.68,-32.94 537.36,-30.57 543.96,-38.86 547.68,-32.94"/>
</g>
<!-- Node22&#45;&gt;Node3 -->
<g id="edge26" class="edge">
<title>Node22&#45;&gt;Node3</title>
<path fill="none" stroke="midnightblue" d="M744.76,-269.2C810.05,-262.05 904.08,-249.85 985,-232 987.87,-231.37 1387.26,-110.06 1390,-109 1395.37,-106.92 1401,-104.45 1406.33,-101.97"/>
<polygon fill="midnightblue" stroke="midnightblue" points="1408,-105.05 1415.49,-97.56 1404.96,-98.74 1408,-105.05"/>
</g>
<!-- Node22&#45;&gt;Node4 -->
<g id="edge27" class="edge">
<title>Node22&#45;&gt;Node4</title>
<path fill="none" stroke="midnightblue" d="M611.61,-268.45C572.4,-261.16 517.87,-249.13 472,-232 454.12,-225.32 452.22,-217.69 434,-212 370.54,-192.19 181.09,-225.76 137,-176 88.53,-121.3 226.83,-99.63 297.83,-92.28"/>
<polygon fill="midnightblue" stroke="midnightblue" points="298.18,-95.76 307.78,-91.29 297.49,-88.79 298.18,-95.76"/>
</g>
<!-- Node22&#45;&gt;Node5 -->
<g id="edge29" class="edge">
<title>Node22&#45;&gt;Node5</title>
<path fill="none" stroke="midnightblue" d="M583.15,-275.73C472.52,-272.89 267.82,-263.65 85.68,-231.98"/>
<polygon fill="midnightblue" stroke="midnightblue" points="86.1,-228.5 75.65,-230.21 84.88,-235.4 86.1,-228.5"/>
</g>
<!-- Node22&#45;&gt;Node6 -->
<g id="edge30" class="edge">
<title>Node22&#45;&gt;Node6</title>
<path fill="none" stroke="midnightblue" d="M583.42,-269.37C497.56,-261.09 357.35,-247.17 226.99,-232.21"/>
<polygon fill="midnightblue" stroke="midnightblue" points="227.16,-228.7 216.83,-231.04 226.36,-235.66 227.16,-228.7"/>
</g>
<!-- Node22&#45;&gt;Node7 -->
<g id="edge32" class="edge">
<title>Node22&#45;&gt;Node7</title>
<path fill="none" stroke="midnightblue" d="M608.38,-268.44C545.87,-258.83 444.48,-243.23 378.27,-233.04"/>
<polygon fill="midnightblue" stroke="midnightblue" points="378.77,-229.58 368.36,-231.52 377.71,-236.5 378.77,-229.58"/>
</g>
<!-- Node22&#45;&gt;Node8 -->
<g id="edge33" class="edge">
<title>Node22&#45;&gt;Node8</title>
<path fill="none" stroke="midnightblue" d="M677.53,-268.32C708.28,-248.59 783.69,-200.2 821.55,-175.91"/>
<polygon fill="midnightblue" stroke="midnightblue" points="823.79,-178.63 830.31,-170.28 820.01,-172.74 823.79,-178.63"/>
</g>
<!-- Node22&#45;&gt;Node9 -->
<g id="edge35" class="edge">
<title>Node22&#45;&gt;Node9</title>
<path fill="none" stroke="midnightblue" d="M586.32,-268.47C540.87,-261.85 482.98,-250.57 434,-232 417.61,-225.78 416.58,-217.69 400,-212 341.29,-191.86 163.97,-222.64 123,-176 76.05,-122.55 176.57,-63.96 237.63,-34.93"/>
<polygon fill="midnightblue" stroke="midnightblue" points="239.12,-38.1 246.7,-30.7 236.16,-31.76 239.12,-38.1"/>
</g>
<!-- Node22&#45;&gt;Node10 -->
<g id="edge48" class="edge">
<title>Node22&#45;&gt;Node10</title>
<path fill="none" stroke="midnightblue" d="M744.64,-272.55C803.08,-267.36 883.24,-256.17 950,-232 983.63,-219.83 1018.32,-197.75 1041.31,-181.53"/>
<polygon fill="midnightblue" stroke="midnightblue" points="1043.44,-184.31 1049.52,-175.64 1039.35,-178.63 1043.44,-184.31"/>
</g>
<!-- Node22&#45;&gt;Node11 -->
<g id="edge28" class="edge">
<title>Node22&#45;&gt;Node11</title>
<path fill="none" stroke="midnightblue" d="M744.85,-270.44C819.37,-263.59 932.8,-251.15 1030,-232 1122.67,-213.75 1143.99,-201.24 1235,-176 1340.89,-146.63 1372.51,-153.46 1473,-109 1476.8,-107.32 1480.68,-105.24 1484.37,-103.07"/>
<polygon fill="midnightblue" stroke="midnightblue" points="1486.39,-105.93 1492.99,-97.64 1482.66,-100.01 1486.39,-105.93"/>
</g>
<!-- Node22&#45;&gt;Node18 -->
<g id="edge36" class="edge">
<title>Node22&#45;&gt;Node18</title>
<path fill="none" stroke="midnightblue" d="M723.89,-268.46C815.83,-252.95 975.22,-215.07 916,-145 885.01,-108.34 749.93,-119.12 703,-109 698.04,-107.93 692.92,-106.75 687.79,-105.51"/>
<polygon fill="midnightblue" stroke="midnightblue" points="688.5,-102.08 677.95,-103.08 686.82,-108.88 688.5,-102.08"/>
</g>
<!-- Node23 -->
<g id="node23" class="node">
<title>Node23</title>
<g id="a_node23"><a xlink:title=" ">
<polygon fill="white" stroke="#bfbfbf" points="146.5,-151 146.5,-170 251.5,-170 251.5,-151 146.5,-151"/>
<text text-anchor="middle" x="199" y="-158" font-family="Helvetica,sans-Serif" font-size="10.00">maliput/api/lane.h</text>
</a>
</g>
</g>
<!-- Node22&#45;&gt;Node23 -->
<g id="edge31" class="edge">
<title>Node22&#45;&gt;Node23</title>
<path fill="none" stroke="midnightblue" d="M631,-268.48C600.5,-260.27 554.14,-246.92 515,-232 495.31,-224.49 492.11,-218.31 472,-212 383.32,-184.16 357.22,-193.83 266,-176 259.87,-174.8 253.43,-173.48 247.08,-172.15"/>
<polygon fill="midnightblue" stroke="midnightblue" points="247.72,-168.71 237.21,-170.05 246.26,-175.55 247.72,-168.71"/>
</g>
<!-- Node24 -->
<g id="node24" class="node">
<title>Node24</title>
<g id="a_node24"><a xlink:href="../../maliput/html/maliput__abort_8h.html.html" xlink:title=" ">
<polygon fill="white" stroke="black" points="622,-145.5 622,-175.5 762,-175.5 762,-145.5 622,-145.5"/>
<text text-anchor="start" x="630" y="-163.5" font-family="Helvetica,sans-Serif" font-size="10.00">maliput/common/maliput</text>
<text text-anchor="middle" x="692" y="-152.5" font-family="Helvetica,sans-Serif" font-size="10.00">_abort.h</text>
</a>
</g>
</g>
<!-- Node22&#45;&gt;Node24 -->
<g id="edge34" class="edge">
<title>Node22&#45;&gt;Node24</title>
<path fill="none" stroke="midnightblue" d="M666.1,-268.32C670.33,-250.89 679.97,-211.1 686.23,-185.31"/>
<polygon fill="midnightblue" stroke="midnightblue" points="689.64,-186.09 688.6,-175.55 682.84,-184.44 689.64,-186.09"/>
</g>
<!-- Node25 -->
<g id="node25" class="node">
<title>Node25</title>
<g id="a_node25"><a xlink:href="lane_8h.html" target="_top" xlink:title=" ">
<polygon fill="white" stroke="black" points="524.5,-212.5 524.5,-231.5 663.5,-231.5 663.5,-212.5 524.5,-212.5"/>
<text text-anchor="middle" x="594" y="-219.5" font-family="Helvetica,sans-Serif" font-size="10.00">maliput_multilane/lane.h</text>
</a>
</g>
</g>
<!-- Node22&#45;&gt;Node25 -->
<g id="edge37" class="edge">
<title>Node22&#45;&gt;Node25</title>
<path fill="none" stroke="midnightblue" d="M652.75,-268.32C642.2,-260.18 626.2,-247.84 613.56,-238.09"/>
<polygon fill="midnightblue" stroke="midnightblue" points="615.51,-235.17 605.45,-231.83 611.23,-240.71 615.51,-235.17"/>
</g>
<!-- Node25&#45;&gt;Node4 -->
<g id="edge38" class="edge">
<title>Node25&#45;&gt;Node4</title>
<path fill="none" stroke="midnightblue" d="M581.3,-212.48C568.52,-203.75 548.4,-189.56 532,-176 516.49,-163.18 516.48,-154.97 499,-145 449.15,-116.57 428.22,-130.47 375,-109 370.32,-107.11 365.46,-104.82 360.84,-102.48"/>
<polygon fill="midnightblue" stroke="midnightblue" points="362.3,-99.29 351.83,-97.7 359.02,-105.48 362.3,-99.29"/>
</g>
<!-- Node25&#45;&gt;Node8 -->
<g id="edge43" class="edge">
<title>Node25&#45;&gt;Node8</title>
<path fill="none" stroke="midnightblue" d="M629.82,-212.48C674.19,-201.92 749.84,-183.91 798.33,-172.37"/>
<polygon fill="midnightblue" stroke="midnightblue" points="799.33,-175.73 808.25,-170.01 797.71,-168.92 799.33,-175.73"/>
</g>
<!-- Node25&#45;&gt;Node9 -->
<g id="edge45" class="edge">
<title>Node25&#45;&gt;Node9</title>
<path fill="none" stroke="midnightblue" d="M524.27,-212.51C439.54,-201.87 306.81,-184.07 299,-176 264.18,-140.02 268.86,-76.04 274.76,-41.04"/>
<polygon fill="midnightblue" stroke="midnightblue" points="278.28,-41.24 276.67,-30.77 271.4,-39.96 278.28,-41.24"/>
</g>
<!-- Node25&#45;&gt;Node10 -->
<g id="edge47" class="edge">
<title>Node25&#45;&gt;Node10</title>
<path fill="none" stroke="midnightblue" d="M661.91,-212.48C749.38,-201.5 900.96,-182.47 992.13,-171.02"/>
<polygon fill="midnightblue" stroke="midnightblue" points="992.64,-174.49 1002.12,-169.77 991.76,-167.54 992.64,-174.49"/>
</g>
<!-- Node25&#45;&gt;Node13 -->
<g id="edge40" class="edge">
<title>Node25&#45;&gt;Node13</title>
<path fill="none" stroke="midnightblue" d="M588.27,-212.26C578.15,-197.29 555.93,-166.27 532,-145 516.24,-130.99 496.61,-118.14 479.89,-108.29"/>
<polygon fill="midnightblue" stroke="midnightblue" points="481.36,-105.1 470.95,-103.14 477.87,-111.17 481.36,-105.1"/>
</g>
<!-- Node25&#45;&gt;Node18 -->
<g id="edge46" class="edge">
<title>Node25&#45;&gt;Node18</title>
<path fill="none" stroke="midnightblue" d="M596.17,-212.34C601.12,-192.52 613.43,-143.27 620.91,-113.34"/>
<polygon fill="midnightblue" stroke="midnightblue" points="624.4,-113.83 623.43,-103.28 617.61,-112.14 624.4,-113.83"/>
</g>
<!-- Node25&#45;&gt;Node23 -->
<g id="edge42" class="edge">
<title>Node25&#45;&gt;Node23</title>
<path fill="none" stroke="midnightblue" d="M524.33,-213.02C457.77,-205.02 354.72,-191.66 266,-176 259.62,-174.87 252.92,-173.57 246.32,-172.21"/>
<polygon fill="midnightblue" stroke="midnightblue" points="246.62,-168.7 236.11,-170.06 245.17,-175.55 246.62,-168.7"/>
</g>
<!-- Node25&#45;&gt;Node24 -->
<g id="edge44" class="edge">
<title>Node25&#45;&gt;Node24</title>
<path fill="none" stroke="midnightblue" d="M608.04,-212.48C621.56,-204.27 642.49,-191.56 660.07,-180.88"/>
<polygon fill="midnightblue" stroke="midnightblue" points="662.17,-183.7 668.9,-175.52 658.54,-177.72 662.17,-183.7"/>
</g>
<!-- Node26 -->
<g id="node26" class="node">
<title>Node26</title>
<g id="a_node26"><a xlink:title=" ">
<polygon fill="white" stroke="#bfbfbf" points="308,-151 308,-170 364,-170 364,-151 308,-151"/>
<text text-anchor="middle" x="336" y="-158" font-family="Helvetica,sans-Serif" font-size="10.00">optional</text>
</a>
</g>
</g>
<!-- Node25&#45;&gt;Node26 -->
<g id="edge39" class="edge">
<title>Node25&#45;&gt;Node26</title>
<path fill="none" stroke="midnightblue" d="M538.86,-212.49C493.76,-204.89 428.58,-192.41 373,-176 370.57,-175.28 368.07,-174.47 365.58,-173.61"/>
<polygon fill="midnightblue" stroke="midnightblue" points="366.73,-170.3 356.14,-170.12 364.3,-176.87 366.73,-170.3"/>
</g>
<!-- Node27 -->
<g id="node27" class="node">
<title>Node27</title>
<g id="a_node27"><a xlink:title=" ">
<polygon fill="white" stroke="#bfbfbf" points="382,-145.5 382,-175.5 490,-175.5 490,-145.5 382,-145.5"/>
<text text-anchor="start" x="390" y="-163.5" font-family="Helvetica,sans-Serif" font-size="10.00">maliput/api/branch</text>
<text text-anchor="middle" x="436" y="-152.5" font-family="Helvetica,sans-Serif" font-size="10.00">_point.h</text>
</a>
</g>
</g>
<!-- Node25&#45;&gt;Node27 -->
<g id="edge41" class="edge">
<title>Node25&#45;&gt;Node27</title>
<path fill="none" stroke="midnightblue" d="M571.36,-212.48C548.36,-203.81 512.07,-190.15 482.85,-179.14"/>
<polygon fill="midnightblue" stroke="midnightblue" points="483.83,-175.77 473.24,-175.52 481.36,-182.32 483.83,-175.77"/>
</g>
</g>
</svg>
