<?xml version="1.0" encoding="UTF-8" standalone="no"?>
<!DOCTYPE svg PUBLIC "-//W3C//DTD SVG 1.1//EN"
 "http://www.w3.org/Graphics/SVG/1.1/DTD/svg11.dtd">
<!-- Generated by graphviz version 2.43.0 (0)
 -->
<!-- Title: line_road_curve.h Pages: 1 -->
<svg width="1542pt" height="240pt"
 viewBox="0.00 0.00 1542.06 240.00" xmlns="http://www.w3.org/2000/svg" xmlns:xlink="http://www.w3.org/1999/xlink">
<g id="graph0" class="graph" transform="scale(1 1) rotate(0) translate(4 236)">
<title>line_road_curve.h</title>
<polygon fill="white" stroke="transparent" points="-4,4 -4,-236 1538.06,-236 1538.06,4 -4,4"/>
<!-- Node1 -->
<g id="node1" class="node">
<title>Node1</title>
<g id="a_node1"><a xlink:title=" ">
<polygon fill="#bfbfbf" stroke="black" points="488.56,-212.5 488.56,-231.5 591.56,-231.5 591.56,-212.5 488.56,-212.5"/>
<text text-anchor="middle" x="540.06" y="-219.5" font-family="Helvetica,sans-Serif" font-size="10.00">line_road_curve.h</text>
</a>
</g>
</g>
<!-- Node2 -->
<g id="node2" class="node">
<title>Node2</title>
<g id="a_node2"><a xlink:title=" ">
<polygon fill="white" stroke="#bfbfbf" points="275.56,-6 275.56,-25 322.56,-25 322.56,-6 275.56,-6"/>
<text text-anchor="middle" x="299.06" y="-13" font-family="Helvetica,sans-Serif" font-size="10.00">cmath</text>
</a>
</g>
</g>
<!-- Node1&#45;&gt;Node2 -->
<g id="edge1" class="edge">
<title>Node1&#45;&gt;Node2</title>
<path fill="none" stroke="midnightblue" d="M488.3,-219.81C366.17,-216.51 67.72,-205.5 34.06,-176 -2.72,-143.77 -12.3,-104.52 19.06,-67 50.1,-29.85 197.76,-19.99 265.25,-17.4"/>
<polygon fill="midnightblue" stroke="midnightblue" points="265.5,-20.89 275.37,-17.04 265.25,-13.9 265.5,-20.89"/>
</g>
<!-- Node3 -->
<g id="node3" class="node">
<title>Node3</title>
<g id="a_node3"><a xlink:title=" ">
<polygon fill="white" stroke="#bfbfbf" points="1332.06,-151 1332.06,-170 1376.06,-170 1376.06,-151 1332.06,-151"/>
<text text-anchor="middle" x="1354.06" y="-158" font-family="Helvetica,sans-Serif" font-size="10.00">limits</text>
</a>
</g>
</g>
<!-- Node1&#45;&gt;Node3 -->
<g id="edge2" class="edge">
<title>Node1&#45;&gt;Node3</title>
<path fill="none" stroke="midnightblue" d="M591.61,-220.19C742.12,-217.5 1179.02,-207.14 1318.06,-176 1320.89,-175.36 1323.79,-174.53 1326.66,-173.59"/>
<polygon fill="midnightblue" stroke="midnightblue" points="1327.96,-176.84 1336.11,-170.06 1325.52,-170.28 1327.96,-176.84"/>
</g>
<!-- Node4 -->
<g id="node4" class="node">
<title>Node4</title>
<g id="a_node4"><a xlink:title=" ">
<polygon fill="white" stroke="#bfbfbf" points="55.56,-78.5 55.56,-97.5 100.56,-97.5 100.56,-78.5 55.56,-78.5"/>
<text text-anchor="middle" x="78.06" y="-85.5" font-family="Helvetica,sans-Serif" font-size="10.00">utility</text>
</a>
</g>
</g>
<!-- Node1&#45;&gt;Node4 -->
<g id="edge3" class="edge">
<title>Node1&#45;&gt;Node4</title>
<path fill="none" stroke="midnightblue" d="M488.55,-213.32C405.93,-199.75 239.89,-167.32 110.06,-109 106.26,-107.3 102.39,-105.21 98.7,-103.03"/>
<polygon fill="midnightblue" stroke="midnightblue" points="100.41,-99.97 90.08,-97.61 96.68,-105.9 100.41,-99.97"/>
</g>
<!-- Node5 -->
<g id="node5" class="node">
<title>Node5</title>
<g id="a_node5"><a xlink:href="../../maliput/html/lane__data_8h.html.html" xlink:title=" ">
<polygon fill="white" stroke="black" points="119.06,-78.5 119.06,-97.5 251.06,-97.5 251.06,-78.5 119.06,-78.5"/>
<text text-anchor="middle" x="185.06" y="-85.5" font-family="Helvetica,sans-Serif" font-size="10.00">maliput/api/lane_data.h</text>
</a>
</g>
</g>
<!-- Node1&#45;&gt;Node5 -->
<g id="edge4" class="edge">
<title>Node1&#45;&gt;Node5</title>
<path fill="none" stroke="midnightblue" d="M517.04,-212.44C455.82,-189.68 288.86,-127.6 217.79,-101.17"/>
<polygon fill="midnightblue" stroke="midnightblue" points="218.61,-97.74 208.02,-97.54 216.18,-104.31 218.61,-97.74"/>
</g>
<!-- Node6 -->
<g id="node6" class="node">
<title>Node6</title>
<g id="a_node6"><a xlink:href="../../maliput/html/maliput__abort_8h.html.html" xlink:title=" ">
<polygon fill="white" stroke="black" points="1394.06,-145.5 1394.06,-175.5 1534.06,-175.5 1534.06,-145.5 1394.06,-145.5"/>
<text text-anchor="start" x="1402.06" y="-163.5" font-family="Helvetica,sans-Serif" font-size="10.00">maliput/common/maliput</text>
<text text-anchor="middle" x="1464.06" y="-152.5" font-family="Helvetica,sans-Serif" font-size="10.00">_abort.h</text>
</a>
</g>
</g>
<!-- Node1&#45;&gt;Node6 -->
<g id="edge5" class="edge">
<title>Node1&#45;&gt;Node6</title>
<path fill="none" stroke="midnightblue" d="M591.69,-220.55C722.61,-218.92 1078.21,-211.43 1383.97,-176.02"/>
<polygon fill="midnightblue" stroke="midnightblue" points="1384.39,-179.5 1393.91,-174.86 1383.58,-172.54 1384.39,-179.5"/>
</g>
<!-- Node7 -->
<g id="node7" class="node">
<title>Node7</title>
<g id="a_node7"><a xlink:href="../../maliput/html/maliput__copyable_8h.html.html" xlink:title=" ">
<polygon fill="white" stroke="black" points="640.06,-0.5 640.06,-30.5 780.06,-30.5 780.06,-0.5 640.06,-0.5"/>
<text text-anchor="start" x="648.06" y="-18.5" font-family="Helvetica,sans-Serif" font-size="10.00">maliput/common/maliput</text>
<text text-anchor="middle" x="710.06" y="-7.5" font-family="Helvetica,sans-Serif" font-size="10.00">_copyable.h</text>
</a>
</g>
</g>
<!-- Node1&#45;&gt;Node7 -->
<g id="edge6" class="edge">
<title>Node1&#45;&gt;Node7</title>
<path fill="none" stroke="midnightblue" d="M488.49,-221.29C337.84,-220.54 -83.02,-206.27 46.06,-67 65.64,-45.87 457.57,-27.02 629.91,-19.71"/>
<polygon fill="midnightblue" stroke="midnightblue" points="630.1,-23.21 639.95,-19.29 629.81,-16.22 630.1,-23.21"/>
</g>
<!-- Node8 -->
<g id="node8" class="node">
<title>Node8</title>
<g id="a_node8"><a xlink:href="../../maliput/html/maliput__unused_8h.html.html" xlink:title=" ">
<polygon fill="white" stroke="black" points="1059.06,-0.5 1059.06,-30.5 1199.06,-30.5 1199.06,-0.5 1059.06,-0.5"/>
<text text-anchor="start" x="1067.06" y="-18.5" font-family="Helvetica,sans-Serif" font-size="10.00">maliput/common/maliput</text>
<text text-anchor="middle" x="1129.06" y="-7.5" font-family="Helvetica,sans-Serif" font-size="10.00">_unused.h</text>
</a>
</g>
</g>
<!-- Node1&#45;&gt;Node8 -->
<g id="edge7" class="edge">
<title>Node1&#45;&gt;Node8</title>
<path fill="none" stroke="midnightblue" d="M591.79,-221.51C745.43,-221.83 1194,-213.63 1284.06,-109 1296.23,-94.85 1295.02,-82.11 1284.06,-67 1266.65,-43.03 1237.57,-30.22 1209.27,-23.45"/>
<polygon fill="midnightblue" stroke="midnightblue" points="1209.83,-19.99 1199.32,-21.3 1208.35,-26.83 1209.83,-19.99"/>
</g>
<!-- Node9 -->
<g id="node9" class="node">
<title>Node9</title>
<g id="a_node9"><a xlink:href="road__curve_8h.html" target="_top" xlink:title=" ">
<polygon fill="white" stroke="black" points="608.56,-145.5 608.56,-175.5 739.56,-175.5 739.56,-145.5 608.56,-145.5"/>
<text text-anchor="start" x="616.56" y="-163.5" font-family="Helvetica,sans-Serif" font-size="10.00">maliput_multilane/road</text>
<text text-anchor="middle" x="674.06" y="-152.5" font-family="Helvetica,sans-Serif" font-size="10.00">_curve.h</text>
</a>
</g>
</g>
<!-- Node1&#45;&gt;Node9 -->
<g id="edge8" class="edge">
<title>Node1&#45;&gt;Node9</title>
<path fill="none" stroke="midnightblue" d="M559.25,-212.48C578.42,-203.96 608.48,-190.62 633.03,-179.72"/>
<polygon fill="midnightblue" stroke="midnightblue" points="634.75,-182.78 642.47,-175.52 631.91,-176.38 634.75,-182.78"/>
</g>
<!-- Node9&#45;&gt;Node4 -->
<g id="edge11" class="edge">
<title>Node9&#45;&gt;Node4</title>
<path fill="none" stroke="midnightblue" d="M608.23,-157.44C479.88,-152.81 200.8,-139.47 110.06,-109 105.79,-107.57 101.52,-105.47 97.54,-103.16"/>
<polygon fill="midnightblue" stroke="midnightblue" points="99.25,-100.1 88.95,-97.61 95.45,-105.98 99.25,-100.1"/>
</g>
<!-- Node9&#45;&gt;Node5 -->
<g id="edge17" class="edge">
<title>Node9&#45;&gt;Node5</title>
<path fill="none" stroke="midnightblue" d="M608.36,-154.33C526.34,-147.23 381.98,-132.57 260.06,-109 247.98,-106.67 234.98,-103.45 223.25,-100.29"/>
<polygon fill="midnightblue" stroke="midnightblue" points="223.9,-96.83 213.33,-97.54 222.03,-103.58 223.9,-96.83"/>
</g>
<!-- Node9&#45;&gt;Node7 -->
<g id="edge18" class="edge">
<title>Node9&#45;&gt;Node7</title>
<path fill="none" stroke="midnightblue" d="M683.71,-145.14C689.76,-135.38 697.14,-121.94 701.06,-109 707.86,-86.54 709.83,-59.74 710.27,-40.78"/>
<polygon fill="midnightblue" stroke="midnightblue" points="713.78,-40.66 710.38,-30.62 706.78,-40.58 713.78,-40.66"/>
</g>
<!-- Node10 -->
<g id="node10" class="node">
<title>Node10</title>
<g id="a_node10"><a xlink:title=" ">
<polygon fill="white" stroke="#bfbfbf" points="901.56,-78.5 901.56,-97.5 966.56,-97.5 966.56,-78.5 901.56,-78.5"/>
<text text-anchor="middle" x="934.06" y="-85.5" font-family="Helvetica,sans-Serif" font-size="10.00">functional</text>
</a>
</g>
</g>
<!-- Node9&#45;&gt;Node10 -->
<g id="edge9" class="edge">
<title>Node9&#45;&gt;Node10</title>
<path fill="none" stroke="midnightblue" d="M739.97,-148.1C783.77,-139.59 842.17,-126.42 892.06,-109 897.58,-107.07 903.35,-104.63 908.77,-102.12"/>
<polygon fill="midnightblue" stroke="midnightblue" points="910.57,-105.14 918.05,-97.63 907.52,-98.84 910.57,-105.14"/>
</g>
<!-- Node11 -->
<g id="node11" class="node">
<title>Node11</title>
<g id="a_node11"><a xlink:title=" ">
<polygon fill="white" stroke="#bfbfbf" points="985.06,-78.5 985.06,-97.5 1043.06,-97.5 1043.06,-78.5 985.06,-78.5"/>
<text text-anchor="middle" x="1014.06" y="-85.5" font-family="Helvetica,sans-Serif" font-size="10.00">memory</text>
</a>
</g>
</g>
<!-- Node9&#45;&gt;Node11 -->
<g id="edge10" class="edge">
<title>Node9&#45;&gt;Node11</title>
<path fill="none" stroke="midnightblue" d="M739.74,-154.34C801.68,-148.11 896.47,-135.05 975.06,-109 980.34,-107.25 985.78,-104.87 990.87,-102.36"/>
<polygon fill="midnightblue" stroke="midnightblue" points="992.86,-105.27 1000.07,-97.5 989.59,-99.07 992.86,-105.27"/>
</g>
<!-- Node12 -->
<g id="node12" class="node">
<title>Node12</title>
<g id="a_node12"><a xlink:title=" ">
<polygon fill="white" stroke="#bfbfbf" points="1061.56,-78.5 1061.56,-97.5 1138.56,-97.5 1138.56,-78.5 1061.56,-78.5"/>
<text text-anchor="middle" x="1100.06" y="-85.5" font-family="Helvetica,sans-Serif" font-size="10.00">Eigen/Dense</text>
</a>
</g>
</g>
<!-- Node9&#45;&gt;Node12 -->
<g id="edge12" class="edge">
<title>Node9&#45;&gt;Node12</title>
<path fill="none" stroke="midnightblue" d="M739.62,-155.96C815.82,-150.65 944.83,-137.96 1052.06,-109 1059.08,-107.1 1066.44,-104.42 1073.23,-101.63"/>
<polygon fill="midnightblue" stroke="midnightblue" points="1074.88,-104.73 1082.66,-97.54 1072.1,-98.3 1074.88,-104.73"/>
</g>
<!-- Node13 -->
<g id="node13" class="node">
<title>Node13</title>
<g id="a_node13"><a xlink:title=" ">
<polygon fill="white" stroke="#bfbfbf" points="1156.56,-73 1156.56,-103 1275.56,-103 1275.56,-73 1156.56,-73"/>
<text text-anchor="start" x="1164.56" y="-91" font-family="Helvetica,sans-Serif" font-size="10.00">drake/common/eigen</text>
<text text-anchor="middle" x="1216.06" y="-80" font-family="Helvetica,sans-Serif" font-size="10.00">_types.h</text>
</a>
</g>
</g>
<!-- Node9&#45;&gt;Node13 -->
<g id="edge13" class="edge">
<title>Node9&#45;&gt;Node13</title>
<path fill="none" stroke="midnightblue" d="M739.63,-156.15C831.45,-150.63 1003.22,-137.29 1147.06,-109 1151.98,-108.03 1157.06,-106.87 1162.12,-105.61"/>
<polygon fill="midnightblue" stroke="midnightblue" points="1163.01,-108.99 1171.8,-103.07 1161.24,-102.22 1163.01,-108.99"/>
</g>
<!-- Node14 -->
<g id="node14" class="node">
<title>Node14</title>
<g id="a_node14"><a xlink:title=" ">
<polygon fill="white" stroke="#bfbfbf" points="269.56,-73 269.56,-103 382.56,-103 382.56,-73 269.56,-73"/>
<text text-anchor="start" x="277.56" y="-91" font-family="Helvetica,sans-Serif" font-size="10.00">drake/math/rotation</text>
<text text-anchor="middle" x="326.06" y="-80" font-family="Helvetica,sans-Serif" font-size="10.00">_matrix.h</text>
</a>
</g>
</g>
<!-- Node9&#45;&gt;Node14 -->
<g id="edge14" class="edge">
<title>Node9&#45;&gt;Node14</title>
<path fill="none" stroke="midnightblue" d="M608.36,-149.97C550.92,-141.1 465.44,-126.63 392.06,-109 388,-108.02 383.82,-106.94 379.63,-105.8"/>
<polygon fill="midnightblue" stroke="midnightblue" points="380.46,-102.4 369.88,-103.06 378.56,-109.14 380.46,-102.4"/>
</g>
<!-- Node15 -->
<g id="node15" class="node">
<title>Node15</title>
<g id="a_node15"><a xlink:title=" ">
<polygon fill="white" stroke="#bfbfbf" points="401.06,-73 401.06,-103 543.06,-103 543.06,-73 401.06,-73"/>
<text text-anchor="start" x="409.06" y="-91" font-family="Helvetica,sans-Serif" font-size="10.00">drake/systems/analysis</text>
<text text-anchor="middle" x="472.06" y="-80" font-family="Helvetica,sans-Serif" font-size="10.00">/antiderivative_function.h</text>
</a>
</g>
</g>
<!-- Node9&#45;&gt;Node15 -->
<g id="edge15" class="edge">
<title>Node9&#45;&gt;Node15</title>
<path fill="none" stroke="midnightblue" d="M633.66,-145.4C601.6,-134.21 556.6,-118.51 522.22,-106.51"/>
<polygon fill="midnightblue" stroke="midnightblue" points="522.97,-103.06 512.38,-103.07 520.67,-109.67 522.97,-103.06"/>
</g>
<!-- Node16 -->
<g id="node16" class="node">
<title>Node16</title>
<g id="a_node16"><a xlink:title=" ">
<polygon fill="white" stroke="#bfbfbf" points="561.56,-67.5 561.56,-108.5 692.56,-108.5 692.56,-67.5 561.56,-67.5"/>
<text text-anchor="start" x="569.56" y="-96.5" font-family="Helvetica,sans-Serif" font-size="10.00">drake/systems/analysis</text>
<text text-anchor="start" x="569.56" y="-85.5" font-family="Helvetica,sans-Serif" font-size="10.00">/scalar_initial_value</text>
<text text-anchor="middle" x="627.06" y="-74.5" font-family="Helvetica,sans-Serif" font-size="10.00">_problem.h</text>
</a>
</g>
</g>
<!-- Node9&#45;&gt;Node16 -->
<g id="edge16" class="edge">
<title>Node9&#45;&gt;Node16</title>
<path fill="none" stroke="midnightblue" d="M664.54,-145.23C659.16,-137.16 652.24,-126.78 645.82,-117.15"/>
<polygon fill="midnightblue" stroke="midnightblue" points="648.57,-114.97 640.11,-108.59 642.75,-118.85 648.57,-114.97"/>
</g>
<!-- Node17 -->
<g id="node17" class="node">
<title>Node17</title>
<g id="a_node17"><a xlink:href="cubic__polynomial_8h.html" target="_top" xlink:title=" ">
<polygon fill="white" stroke="black" points="749.06,-73 749.06,-103 883.06,-103 883.06,-73 749.06,-73"/>
<text text-anchor="start" x="757.06" y="-91" font-family="Helvetica,sans-Serif" font-size="10.00">maliput_multilane/cubic</text>
<text text-anchor="middle" x="816.06" y="-80" font-family="Helvetica,sans-Serif" font-size="10.00">_polynomial.h</text>
</a>
</g>
</g>
<!-- Node9&#45;&gt;Node17 -->
<g id="edge19" class="edge">
<title>Node9&#45;&gt;Node17</title>
<path fill="none" stroke="midnightblue" d="M702.45,-145.4C724.31,-134.55 754.73,-119.45 778.59,-107.6"/>
<polygon fill="midnightblue" stroke="midnightblue" points="780.31,-110.65 787.71,-103.07 777.2,-104.38 780.31,-110.65"/>
</g>
<!-- Node17&#45;&gt;Node2 -->
<g id="edge20" class="edge">
<title>Node17&#45;&gt;Node2</title>
<path fill="none" stroke="midnightblue" d="M748.95,-74.78C733.25,-72.08 716.59,-69.32 701.06,-67 565.03,-46.64 402.26,-27.92 332.97,-20.21"/>
<polygon fill="midnightblue" stroke="midnightblue" points="332.99,-16.69 322.67,-19.07 332.22,-23.65 332.99,-16.69"/>
</g>
<!-- Node17&#45;&gt;Node7 -->
<g id="edge22" class="edge">
<title>Node17&#45;&gt;Node7</title>
<path fill="none" stroke="midnightblue" d="M794.86,-72.9C779.12,-62.43 757.43,-48.01 739.93,-36.37"/>
<polygon fill="midnightblue" stroke="midnightblue" points="741.48,-33.2 731.21,-30.57 737.6,-39.03 741.48,-33.2"/>
</g>
<!-- Node17&#45;&gt;Node8 -->
<g id="edge23" class="edge">
<title>Node17&#45;&gt;Node8</title>
<path fill="none" stroke="midnightblue" d="M868.3,-72.9C876.25,-70.86 884.36,-68.83 892.06,-67 944.1,-54.61 1002.92,-42.07 1048.94,-32.59"/>
<polygon fill="midnightblue" stroke="midnightblue" points="1049.77,-35.99 1058.86,-30.55 1048.36,-29.13 1049.77,-35.99"/>
</g>
<!-- Node18 -->
<g id="node18" class="node">
<title>Node18</title>
<g id="a_node18"><a xlink:title=" ">
<polygon fill="white" stroke="#bfbfbf" points="798.56,-6 798.56,-25 855.56,-25 855.56,-6 798.56,-6"/>
<text text-anchor="middle" x="827.06" y="-13" font-family="Helvetica,sans-Serif" font-size="10.00">ostream</text>
</a>
</g>
</g>
<!-- Node17&#45;&gt;Node18 -->
<g id="edge21" class="edge">
<title>Node17&#45;&gt;Node18</title>
<path fill="none" stroke="midnightblue" d="M818.28,-72.73C819.96,-62 822.27,-47.19 824.1,-35.46"/>
<polygon fill="midnightblue" stroke="midnightblue" points="827.58,-35.81 825.67,-25.39 820.67,-34.73 827.58,-35.81"/>
</g>
</g>
</svg>
