<?xml version="1.0" encoding="UTF-8" standalone="no"?>
<!DOCTYPE svg PUBLIC "-//W3C//DTD SVG 1.1//EN"
 "http://www.w3.org/Graphics/SVG/1.1/DTD/svg11.dtd">
<!-- Generated by graphviz version 2.43.0 (0)
 -->
<!-- Title: line_road_curve.h Pages: 1 -->
<svg width="338pt" height="95pt"
 viewBox="0.00 0.00 338.00 95.00" xmlns="http://www.w3.org/2000/svg" xmlns:xlink="http://www.w3.org/1999/xlink">
<g id="graph0" class="graph" transform="scale(1 1) rotate(0) translate(4 91)">
<title>line_road_curve.h</title>
<polygon fill="white" stroke="transparent" points="-4,4 -4,-91 334,-91 334,4 -4,4"/>
<!-- Node1 -->
<g id="node1" class="node">
<title>Node1</title>
<g id="a_node1"><a xlink:title=" ">
<polygon fill="#bfbfbf" stroke="black" points="84.5,-67.5 84.5,-86.5 187.5,-86.5 187.5,-67.5 84.5,-67.5"/>
<text text-anchor="middle" x="136" y="-74.5" font-family="Helvetica,sans-Serif" font-size="10.00">line_road_curve.h</text>
</a>
</g>
</g>
<!-- Node2 -->
<g id="node2" class="node">
<title>Node2</title>
<g id="a_node2"><a xlink:href="builder_8cc.html" target="_top" xlink:title=" ">
<polygon fill="white" stroke="black" points="0,-6 0,-25 64,-25 64,-6 0,-6"/>
<text text-anchor="middle" x="32" y="-13" font-family="Helvetica,sans-Serif" font-size="10.00">builder.cc</text>
</a>
</g>
</g>
<!-- Node1&#45;&gt;Node2 -->
<g id="edge1" class="edge">
<title>Node1&#45;&gt;Node2</title>
<path fill="none" stroke="midnightblue" d="M112.23,-62.4C92.12,-50.9 63.93,-34.77 46.87,-25.01"/>
<polygon fill="midnightblue" stroke="midnightblue" points="110.68,-65.55 121.1,-67.48 114.16,-59.47 110.68,-65.55"/>
</g>
<!-- Node3 -->
<g id="node3" class="node">
<title>Node3</title>
<g id="a_node3"><a xlink:href="line__road__curve_8cc.html" target="_top" xlink:title=" ">
<polygon fill="white" stroke="black" points="82.5,-6 82.5,-25 189.5,-25 189.5,-6 82.5,-6"/>
<text text-anchor="middle" x="136" y="-13" font-family="Helvetica,sans-Serif" font-size="10.00">line_road_curve.cc</text>
</a>
</g>
</g>
<!-- Node1&#45;&gt;Node3 -->
<g id="edge2" class="edge">
<title>Node1&#45;&gt;Node3</title>
<path fill="none" stroke="midnightblue" d="M136,-57.32C136,-46.5 136,-33.4 136,-25.01"/>
<polygon fill="midnightblue" stroke="midnightblue" points="132.5,-57.48 136,-67.48 139.5,-57.48 132.5,-57.48"/>
</g>
<!-- Node4 -->
<g id="node4" class="node">
<title>Node4</title>
<g id="a_node4"><a xlink:href="make__road__curve__for__connection_8cc.html" target="_top" xlink:title=" ">
<polygon fill="white" stroke="black" points="208,-0.5 208,-30.5 330,-30.5 330,-0.5 208,-0.5"/>
<text text-anchor="start" x="216" y="-18.5" font-family="Helvetica,sans-Serif" font-size="10.00">make_road_curve_for</text>
<text text-anchor="middle" x="269" y="-7.5" font-family="Helvetica,sans-Serif" font-size="10.00">_connection.cc</text>
</a>
</g>
</g>
<!-- Node1&#45;&gt;Node4 -->
<g id="edge3" class="edge">
<title>Node1&#45;&gt;Node4</title>
<path fill="none" stroke="midnightblue" d="M164.32,-63.33C185.84,-53.7 215.42,-40.47 237.65,-30.52"/>
<polygon fill="midnightblue" stroke="midnightblue" points="162.75,-60.2 155.06,-67.48 165.61,-66.59 162.75,-60.2"/>
</g>
</g>
</svg>
