<?xml version="1.0" encoding="UTF-8" standalone="no"?>
<!DOCTYPE svg PUBLIC "-//W3C//DTD SVG 1.1//EN"
 "http://www.w3.org/Graphics/SVG/1.1/DTD/svg11.dtd">
<!-- Generated by graphviz version 2.43.0 (0)
 -->
<!-- Title: loader.h Pages: 1 -->
<svg width="1565pt" height="352pt"
 viewBox="0.00 0.00 1565.34 352.00" xmlns="http://www.w3.org/2000/svg" xmlns:xlink="http://www.w3.org/1999/xlink">
<g id="graph0" class="graph" transform="scale(1 1) rotate(0) translate(4 348)">
<title>loader.h</title>
<polygon fill="white" stroke="transparent" points="-4,4 -4,-348 1561.34,-348 1561.34,4 -4,4"/>
<!-- Node1 -->
<g id="node1" class="node">
<title>Node1</title>
<g id="a_node1"><a xlink:title=" ">
<polygon fill="#bfbfbf" stroke="black" points="1414.51,-324.5 1414.51,-343.5 1470.51,-343.5 1470.51,-324.5 1414.51,-324.5"/>
<text text-anchor="middle" x="1442.51" y="-331.5" font-family="Helvetica,sans-Serif" font-size="10.00">loader.h</text>
</a>
</g>
</g>
<!-- Node2 -->
<g id="node2" class="node">
<title>Node2</title>
<g id="a_node2"><a xlink:title=" ">
<polygon fill="white" stroke="#bfbfbf" points="1442.51,-78.5 1442.51,-97.5 1500.51,-97.5 1500.51,-78.5 1442.51,-78.5"/>
<text text-anchor="middle" x="1471.51" y="-85.5" font-family="Helvetica,sans-Serif" font-size="10.00">memory</text>
</a>
</g>
</g>
<!-- Node1&#45;&gt;Node2 -->
<g id="edge1" class="edge">
<title>Node1&#45;&gt;Node2</title>
<path fill="none" stroke="midnightblue" d="M1443.56,-324.49C1446.46,-300.91 1454.82,-232.71 1461.51,-176 1464.29,-152.47 1467.39,-125.34 1469.39,-107.72"/>
<polygon fill="midnightblue" stroke="midnightblue" points="1472.88,-107.98 1470.53,-97.65 1465.93,-107.19 1472.88,-107.98"/>
</g>
<!-- Node3 -->
<g id="node3" class="node">
<title>Node3</title>
<g id="a_node3"><a xlink:title=" ">
<polygon fill="white" stroke="#bfbfbf" points="1370.51,-151 1370.51,-170 1414.51,-170 1414.51,-151 1370.51,-151"/>
<text text-anchor="middle" x="1392.51" y="-158" font-family="Helvetica,sans-Serif" font-size="10.00">string</text>
</a>
</g>
</g>
<!-- Node1&#45;&gt;Node3 -->
<g id="edge2" class="edge">
<title>Node1&#45;&gt;Node3</title>
<path fill="none" stroke="midnightblue" d="M1439.96,-324.26C1432.17,-297.54 1408.55,-216.52 1397.86,-179.86"/>
<polygon fill="midnightblue" stroke="midnightblue" points="1401.15,-178.64 1394.99,-170.02 1394.43,-180.6 1401.15,-178.64"/>
</g>
<!-- Node4 -->
<g id="node4" class="node">
<title>Node4</title>
<g id="a_node4"><a xlink:href="builder_8h.html" target="_top" xlink:title=" ">
<polygon fill="white" stroke="black" points="846.51,-268.5 846.51,-287.5 998.51,-287.5 998.51,-268.5 846.51,-268.5"/>
<text text-anchor="middle" x="922.51" y="-275.5" font-family="Helvetica,sans-Serif" font-size="10.00">maliput_multilane/builder.h</text>
</a>
</g>
</g>
<!-- Node1&#45;&gt;Node4 -->
<g id="edge3" class="edge">
<title>Node1&#45;&gt;Node4</title>
<path fill="none" stroke="midnightblue" d="M1414.18,-330.06C1338.4,-322.19 1128.65,-300.41 1009.03,-287.98"/>
<polygon fill="midnightblue" stroke="midnightblue" points="1009.11,-284.47 998.8,-286.92 1008.39,-291.44 1009.11,-284.47"/>
</g>
<!-- Node4&#45;&gt;Node2 -->
<g id="edge6" class="edge">
<title>Node4&#45;&gt;Node2</title>
<path fill="none" stroke="midnightblue" d="M998.63,-273.77C1105.8,-268.44 1295.28,-255.93 1359.51,-232 1400.18,-216.85 1413.03,-210.39 1439.51,-176 1455.28,-155.52 1463.86,-126.5 1468.06,-107.72"/>
<polygon fill="midnightblue" stroke="midnightblue" points="1471.52,-108.24 1470.09,-97.74 1464.67,-106.84 1471.52,-108.24"/>
</g>
<!-- Node4&#45;&gt;Node3 -->
<g id="edge8" class="edge">
<title>Node4&#45;&gt;Node3</title>
<path fill="none" stroke="midnightblue" d="M998.75,-273.75C1066.65,-269.18 1168.02,-258.23 1252.51,-232 1296.68,-218.29 1343.91,-191.71 1370.67,-175.39"/>
<polygon fill="midnightblue" stroke="midnightblue" points="1372.58,-178.32 1379.24,-170.08 1368.89,-172.37 1372.58,-178.32"/>
</g>
<!-- Node5 -->
<g id="node5" class="node">
<title>Node5</title>
<g id="a_node5"><a xlink:title=" ">
<polygon fill="white" stroke="#bfbfbf" points="154.01,-6 154.01,-25 201.01,-25 201.01,-6 154.01,-6"/>
<text text-anchor="middle" x="177.51" y="-13" font-family="Helvetica,sans-Serif" font-size="10.00">cmath</text>
</a>
</g>
</g>
<!-- Node4&#45;&gt;Node5 -->
<g id="edge4" class="edge">
<title>Node4&#45;&gt;Node5</title>
<path fill="none" stroke="midnightblue" d="M846.17,-275.36C645.45,-269.23 111.28,-240.62 8.51,-109 -2.98,-94.29 -2.64,-81.97 8.51,-67 39.66,-25.18 104.14,-16.65 143.83,-15.63"/>
<polygon fill="midnightblue" stroke="midnightblue" points="143.88,-19.13 153.84,-15.52 143.8,-12.13 143.88,-19.13"/>
</g>
<!-- Node6 -->
<g id="node6" class="node">
<title>Node6</title>
<g id="a_node6"><a xlink:title=" ">
<polygon fill="white" stroke="#bfbfbf" points="659.51,-212.5 659.51,-231.5 697.51,-231.5 697.51,-212.5 659.51,-212.5"/>
<text text-anchor="middle" x="678.51" y="-219.5" font-family="Helvetica,sans-Serif" font-size="10.00">map</text>
</a>
</g>
</g>
<!-- Node4&#45;&gt;Node6 -->
<g id="edge5" class="edge">
<title>Node4&#45;&gt;Node6</title>
<path fill="none" stroke="midnightblue" d="M875.24,-268.44C831.48,-260.2 764.73,-246.83 707.51,-232 707.41,-231.97 707.31,-231.95 707.21,-231.92"/>
<polygon fill="midnightblue" stroke="midnightblue" points="708.36,-228.61 697.78,-229.26 706.45,-235.35 708.36,-228.61"/>
</g>
<!-- Node7 -->
<g id="node7" class="node">
<title>Node7</title>
<g id="a_node7"><a xlink:title=" ">
<polygon fill="white" stroke="#bfbfbf" points="716.01,-212.5 716.01,-231.5 781.01,-231.5 781.01,-212.5 716.01,-212.5"/>
<text text-anchor="middle" x="748.51" y="-219.5" font-family="Helvetica,sans-Serif" font-size="10.00">stdexcept</text>
</a>
</g>
</g>
<!-- Node4&#45;&gt;Node7 -->
<g id="edge7" class="edge">
<title>Node4&#45;&gt;Node7</title>
<path fill="none" stroke="midnightblue" d="M894.94,-268.44C865.41,-259.28 818.39,-244.69 785.63,-234.52"/>
<polygon fill="midnightblue" stroke="midnightblue" points="786.54,-231.14 775.95,-231.52 784.47,-237.82 786.54,-231.14"/>
</g>
<!-- Node8 -->
<g id="node8" class="node">
<title>Node8</title>
<g id="a_node8"><a xlink:title=" ">
<polygon fill="white" stroke="#bfbfbf" points="799.01,-212.5 799.01,-231.5 840.01,-231.5 840.01,-212.5 799.01,-212.5"/>
<text text-anchor="middle" x="819.51" y="-219.5" font-family="Helvetica,sans-Serif" font-size="10.00">tuple</text>
</a>
</g>
</g>
<!-- Node4&#45;&gt;Node8 -->
<g id="edge9" class="edge">
<title>Node4&#45;&gt;Node8</title>
<path fill="none" stroke="midnightblue" d="M905.96,-268.32C889.52,-259.7 864.08,-246.36 845.04,-236.39"/>
<polygon fill="midnightblue" stroke="midnightblue" points="846.5,-233.2 836.02,-231.65 843.25,-239.4 846.5,-233.2"/>
</g>
<!-- Node9 -->
<g id="node9" class="node">
<title>Node9</title>
<g id="a_node9"><a xlink:title=" ">
<polygon fill="white" stroke="#bfbfbf" points="569.01,-151 569.01,-170 616.01,-170 616.01,-151 569.01,-151"/>
<text text-anchor="middle" x="592.51" y="-158" font-family="Helvetica,sans-Serif" font-size="10.00">vector</text>
</a>
</g>
</g>
<!-- Node4&#45;&gt;Node9 -->
<g id="edge10" class="edge">
<title>Node4&#45;&gt;Node9</title>
<path fill="none" stroke="midnightblue" d="M846.21,-270.4C777.68,-263.4 683.01,-250.74 650.51,-232 628.91,-219.54 611.95,-195.76 602.09,-179.29"/>
<polygon fill="midnightblue" stroke="midnightblue" points="604.87,-177.1 596.89,-170.14 598.79,-180.56 604.87,-177.1"/>
</g>
<!-- Node10 -->
<g id="node10" class="node">
<title>Node10</title>
<g id="a_node10"><a xlink:href="../../maliput/html/lane__data_8h.html.html" xlink:title=" ">
<polygon fill="white" stroke="black" points="17.51,-78.5 17.51,-97.5 149.51,-97.5 149.51,-78.5 17.51,-78.5"/>
<text text-anchor="middle" x="83.51" y="-85.5" font-family="Helvetica,sans-Serif" font-size="10.00">maliput/api/lane_data.h</text>
</a>
</g>
</g>
<!-- Node4&#45;&gt;Node10 -->
<g id="edge11" class="edge">
<title>Node4&#45;&gt;Node10</title>
<path fill="none" stroke="midnightblue" d="M850.59,-268.48C789.57,-260.71 699.87,-248.01 622.51,-232 431.92,-192.55 208.26,-126.87 121.02,-100.49"/>
<polygon fill="midnightblue" stroke="midnightblue" points="121.89,-97.1 111.31,-97.54 119.86,-103.79 121.89,-97.1"/>
</g>
<!-- Node11 -->
<g id="node11" class="node">
<title>Node11</title>
<g id="a_node11"><a xlink:title=" ">
<polygon fill="white" stroke="#bfbfbf" points="897.01,-212.5 897.01,-231.5 1054.01,-231.5 1054.01,-212.5 897.01,-212.5"/>
<text text-anchor="middle" x="975.51" y="-219.5" font-family="Helvetica,sans-Serif" font-size="10.00">maliput/api/road_geometry.h</text>
</a>
</g>
</g>
<!-- Node4&#45;&gt;Node11 -->
<g id="edge12" class="edge">
<title>Node4&#45;&gt;Node11</title>
<path fill="none" stroke="midnightblue" d="M931.26,-268.08C938.98,-260.22 950.42,-248.57 959.73,-239.08"/>
<polygon fill="midnightblue" stroke="midnightblue" points="962.41,-241.34 966.92,-231.75 957.42,-236.44 962.41,-241.34"/>
</g>
<!-- Node12 -->
<g id="node12" class="node">
<title>Node12</title>
<g id="a_node12"><a xlink:href="../../maliput/html/maliput__abort_8h.html.html" xlink:title=" ">
<polygon fill="white" stroke="black" points="634.51,-145.5 634.51,-175.5 774.51,-175.5 774.51,-145.5 634.51,-145.5"/>
<text text-anchor="start" x="642.51" y="-163.5" font-family="Helvetica,sans-Serif" font-size="10.00">maliput/common/maliput</text>
<text text-anchor="middle" x="704.51" y="-152.5" font-family="Helvetica,sans-Serif" font-size="10.00">_abort.h</text>
</a>
</g>
</g>
<!-- Node4&#45;&gt;Node12 -->
<g id="edge13" class="edge">
<title>Node4&#45;&gt;Node12</title>
<path fill="none" stroke="midnightblue" d="M914.82,-268.22C902.36,-254.48 876.43,-227.82 849.51,-212 825.26,-197.75 796.37,-186.67 770.78,-178.56"/>
<polygon fill="midnightblue" stroke="midnightblue" points="771.73,-175.19 761.15,-175.6 769.68,-181.88 771.73,-175.19"/>
</g>
<!-- Node13 -->
<g id="node13" class="node">
<title>Node13</title>
<g id="a_node13"><a xlink:href="../../maliput/html/maliput__copyable_8h.html.html" xlink:title=" ">
<polygon fill="white" stroke="black" points="1301.51,-0.5 1301.51,-30.5 1441.51,-30.5 1441.51,-0.5 1301.51,-0.5"/>
<text text-anchor="start" x="1309.51" y="-18.5" font-family="Helvetica,sans-Serif" font-size="10.00">maliput/common/maliput</text>
<text text-anchor="middle" x="1371.51" y="-7.5" font-family="Helvetica,sans-Serif" font-size="10.00">_copyable.h</text>
</a>
</g>
</g>
<!-- Node4&#45;&gt;Node13 -->
<g id="edge14" class="edge">
<title>Node4&#45;&gt;Node13</title>
<path fill="none" stroke="midnightblue" d="M998.81,-275.19C1113.68,-271.55 1325.01,-261.03 1394.51,-232 1484.6,-194.38 1597.77,-145.34 1539.51,-67 1519.17,-39.65 1484.5,-26.56 1451.93,-20.49"/>
<polygon fill="midnightblue" stroke="midnightblue" points="1452.34,-17.01 1441.9,-18.82 1451.19,-23.92 1452.34,-17.01"/>
</g>
<!-- Node14 -->
<g id="node14" class="node">
<title>Node14</title>
<g id="a_node14"><a xlink:href="computation__policy_8h.html" target="_top" xlink:title=" ">
<polygon fill="white" stroke="black" points="1216.51,-73 1216.51,-103 1386.51,-103 1386.51,-73 1216.51,-73"/>
<text text-anchor="start" x="1224.51" y="-91" font-family="Helvetica,sans-Serif" font-size="10.00">maliput_multilane/computation</text>
<text text-anchor="middle" x="1301.51" y="-80" font-family="Helvetica,sans-Serif" font-size="10.00">_policy.h</text>
</a>
</g>
</g>
<!-- Node4&#45;&gt;Node14 -->
<g id="edge15" class="edge">
<title>Node4&#45;&gt;Node14</title>
<path fill="none" stroke="midnightblue" d="M998.71,-274.17C1127.1,-267.5 1377.13,-245.65 1423.51,-176 1444.27,-144.83 1403.1,-121.2 1363.09,-106.49"/>
<polygon fill="midnightblue" stroke="midnightblue" points="1364.12,-103.15 1353.52,-103.13 1361.79,-109.75 1364.12,-103.15"/>
</g>
<!-- Node15 -->
<g id="node15" class="node">
<title>Node15</title>
<g id="a_node15"><a xlink:href="connection_8h.html" target="_top" xlink:title=" ">
<polygon fill="white" stroke="black" points="1072.01,-212.5 1072.01,-231.5 1243.01,-231.5 1243.01,-212.5 1072.01,-212.5"/>
<text text-anchor="middle" x="1157.51" y="-219.5" font-family="Helvetica,sans-Serif" font-size="10.00">maliput_multilane/connection.h</text>
</a>
</g>
</g>
<!-- Node4&#45;&gt;Node15 -->
<g id="edge16" class="edge">
<title>Node4&#45;&gt;Node15</title>
<path fill="none" stroke="midnightblue" d="M959.75,-268.44C1000.57,-259.06 1066.15,-243.99 1110.49,-233.8"/>
<polygon fill="midnightblue" stroke="midnightblue" points="1111.49,-237.17 1120.45,-231.52 1109.92,-230.34 1111.49,-237.17"/>
</g>
<!-- Node15&#45;&gt;Node2 -->
<g id="edge18" class="edge">
<title>Node15&#45;&gt;Node2</title>
<path fill="none" stroke="midnightblue" d="M1166.69,-212.42C1186.08,-194.46 1230.99,-153.82 1249.51,-145 1322.77,-110.11 1351.4,-134.29 1428.51,-109 1434.42,-107.06 1440.6,-104.52 1446.36,-101.91"/>
<polygon fill="midnightblue" stroke="midnightblue" points="1448.02,-104.99 1455.54,-97.53 1445.01,-98.67 1448.02,-104.99"/>
</g>
<!-- Node15&#45;&gt;Node3 -->
<g id="edge21" class="edge">
<title>Node15&#45;&gt;Node3</title>
<path fill="none" stroke="midnightblue" d="M1205.12,-212.47C1245.79,-204.65 1305.62,-191.89 1356.51,-176 1358.79,-175.29 1361.13,-174.5 1363.46,-173.66"/>
<polygon fill="midnightblue" stroke="midnightblue" points="1364.81,-176.89 1372.91,-170.06 1362.32,-170.35 1364.81,-176.89"/>
</g>
<!-- Node15&#45;&gt;Node5 -->
<g id="edge17" class="edge">
<title>Node15&#45;&gt;Node5</title>
<path fill="none" stroke="midnightblue" d="M1077.26,-212.48C985.66,-202.41 845.46,-185.77 822.51,-176 802.14,-167.33 804.18,-152.93 783.51,-145 722.5,-121.59 245.86,-151.83 196.51,-109 175.62,-90.87 174.01,-56.47 175.34,-35.12"/>
<polygon fill="midnightblue" stroke="midnightblue" points="178.84,-35.31 176.25,-25.04 171.87,-34.68 178.84,-35.31"/>
</g>
<!-- Node15&#45;&gt;Node9 -->
<g id="edge23" class="edge">
<title>Node15&#45;&gt;Node9</title>
<path fill="none" stroke="midnightblue" d="M1071.96,-212.76C1069.11,-212.5 1066.29,-212.25 1063.51,-212 868.96,-194.69 814.86,-223.95 625.51,-176 623.21,-175.42 620.86,-174.69 618.54,-173.87"/>
<polygon fill="midnightblue" stroke="midnightblue" points="619.84,-170.62 609.26,-170.14 617.23,-177.12 619.84,-170.62"/>
</g>
<!-- Node15&#45;&gt;Node12 -->
<g id="edge24" class="edge">
<title>Node15&#45;&gt;Node12</title>
<path fill="none" stroke="midnightblue" d="M1078.18,-212.48C1003.35,-204.16 888.12,-190.66 788.51,-176 787.23,-175.81 785.95,-175.62 784.65,-175.42"/>
<polygon fill="midnightblue" stroke="midnightblue" points="785.01,-171.94 774.6,-173.87 783.94,-178.86 785.01,-171.94"/>
</g>
<!-- Node15&#45;&gt;Node13 -->
<g id="edge25" class="edge">
<title>Node15&#45;&gt;Node13</title>
<path fill="none" stroke="midnightblue" d="M1160.48,-212.28C1166.45,-196.17 1181.52,-161.85 1206.51,-145 1277.41,-97.2 1341,-174.88 1395.51,-109 1411.84,-89.27 1399.75,-59.7 1387.58,-39.33"/>
<polygon fill="midnightblue" stroke="midnightblue" points="1390.4,-37.25 1382.08,-30.69 1384.49,-41.01 1390.4,-37.25"/>
</g>
<!-- Node15&#45;&gt;Node14 -->
<g id="edge26" class="edge">
<title>Node15&#45;&gt;Node14</title>
<path fill="none" stroke="midnightblue" d="M1121.66,-212.4C1102.63,-205.81 1080.88,-194.59 1069.51,-176 1062.32,-164.25 1060.99,-155.83 1069.51,-145 1074.49,-138.67 1159.04,-119.37 1224.64,-105.19"/>
<polygon fill="midnightblue" stroke="midnightblue" points="1225.54,-108.57 1234.58,-103.04 1224.07,-101.73 1225.54,-108.57"/>
</g>
<!-- Node16 -->
<g id="node16" class="node">
<title>Node16</title>
<g id="a_node16"><a xlink:title=" ">
<polygon fill="white" stroke="#bfbfbf" points="1258.51,-151 1258.51,-170 1314.51,-170 1314.51,-151 1258.51,-151"/>
<text text-anchor="middle" x="1286.51" y="-158" font-family="Helvetica,sans-Serif" font-size="10.00">optional</text>
</a>
</g>
</g>
<!-- Node15&#45;&gt;Node16 -->
<g id="edge19" class="edge">
<title>Node15&#45;&gt;Node16</title>
<path fill="none" stroke="midnightblue" d="M1175.99,-212.48C1197.64,-202.49 1233.72,-185.85 1258.74,-174.31"/>
<polygon fill="midnightblue" stroke="midnightblue" points="1260.45,-177.38 1268.06,-170.01 1257.52,-171.02 1260.45,-177.38"/>
</g>
<!-- Node17 -->
<g id="node17" class="node">
<title>Node17</title>
<g id="a_node17"><a xlink:title=" ">
<polygon fill="white" stroke="#bfbfbf" points="1183.01,-6 1183.01,-25 1240.01,-25 1240.01,-6 1183.01,-6"/>
<text text-anchor="middle" x="1211.51" y="-13" font-family="Helvetica,sans-Serif" font-size="10.00">ostream</text>
</a>
</g>
</g>
<!-- Node15&#45;&gt;Node17 -->
<g id="edge20" class="edge">
<title>Node15&#45;&gt;Node17</title>
<path fill="none" stroke="midnightblue" d="M1210.81,-212.46C1244.43,-205.67 1288.05,-194.21 1323.51,-176 1342.9,-166.04 1341.99,-154.7 1361.51,-145 1422.13,-114.86 1467.68,-162.23 1509.51,-109 1616.2,26.75 1543.52,-74.29 1292.51,-31 1278.71,-28.62 1263.61,-25.94 1250.22,-23.53"/>
<polygon fill="midnightblue" stroke="midnightblue" points="1250.82,-20.09 1240.36,-21.76 1249.58,-26.97 1250.82,-20.09"/>
</g>
<!-- Node18 -->
<g id="node18" class="node">
<title>Node18</title>
<g id="a_node18"><a xlink:title=" ">
<polygon fill="white" stroke="#bfbfbf" points="1078.51,-151 1078.51,-170 1164.51,-170 1164.51,-151 1078.51,-151"/>
<text text-anchor="middle" x="1121.51" y="-158" font-family="Helvetica,sans-Serif" font-size="10.00">unordered_set</text>
</a>
</g>
</g>
<!-- Node15&#45;&gt;Node18 -->
<g id="edge22" class="edge">
<title>Node15&#45;&gt;Node18</title>
<path fill="none" stroke="midnightblue" d="M1152.35,-212.48C1147.06,-203.73 1138.68,-189.87 1131.98,-178.81"/>
<polygon fill="midnightblue" stroke="midnightblue" points="1134.83,-176.75 1126.66,-170.01 1128.84,-180.38 1134.83,-176.75"/>
</g>
<!-- Node19 -->
<g id="node19" class="node">
<title>Node19</title>
<g id="a_node19"><a xlink:href="road__curve_8h.html" target="_top" xlink:title=" ">
<polygon fill="white" stroke="black" points="831.01,-145.5 831.01,-175.5 962.01,-175.5 962.01,-145.5 831.01,-145.5"/>
<text text-anchor="start" x="839.01" y="-163.5" font-family="Helvetica,sans-Serif" font-size="10.00">maliput_multilane/road</text>
<text text-anchor="middle" x="896.51" y="-152.5" font-family="Helvetica,sans-Serif" font-size="10.00">_curve.h</text>
</a>
</g>
</g>
<!-- Node15&#45;&gt;Node19 -->
<g id="edge27" class="edge">
<title>Node15&#45;&gt;Node19</title>
<path fill="none" stroke="midnightblue" d="M1120.12,-212.48C1080.55,-203.46 1017.17,-189.01 967.98,-177.79"/>
<polygon fill="midnightblue" stroke="midnightblue" points="968.55,-174.33 958.02,-175.52 966.99,-181.16 968.55,-174.33"/>
</g>
<!-- Node19&#45;&gt;Node2 -->
<g id="edge29" class="edge">
<title>Node19&#45;&gt;Node2</title>
<path fill="none" stroke="midnightblue" d="M962.22,-154.14C1078.05,-144.47 1314.01,-123.75 1395.51,-109 1407.99,-106.74 1421.43,-103.48 1433.49,-100.25"/>
<polygon fill="midnightblue" stroke="midnightblue" points="1434.52,-103.6 1443.24,-97.57 1432.67,-96.85 1434.52,-103.6"/>
</g>
<!-- Node19&#45;&gt;Node10 -->
<g id="edge36" class="edge">
<title>Node19&#45;&gt;Node10</title>
<path fill="none" stroke="midnightblue" d="M830.86,-150.33C815.36,-148.37 798.87,-146.45 783.51,-145 523.3,-120.35 456.07,-139.83 196.51,-109 176.39,-106.61 154.41,-102.96 135.24,-99.43"/>
<polygon fill="midnightblue" stroke="midnightblue" points="135.67,-95.95 125.2,-97.55 134.38,-102.83 135.67,-95.95"/>
</g>
<!-- Node19&#45;&gt;Node13 -->
<g id="edge37" class="edge">
<title>Node19&#45;&gt;Node13</title>
<path fill="none" stroke="midnightblue" d="M962.31,-152.24C1031.42,-143.76 1134.79,-128.38 1169.51,-109 1191.49,-96.73 1186.28,-80.52 1207.51,-67 1232.8,-50.9 1263.55,-39.65 1291.56,-31.93"/>
<polygon fill="midnightblue" stroke="midnightblue" points="1292.56,-35.28 1301.34,-29.34 1290.77,-28.52 1292.56,-35.28"/>
</g>
<!-- Node19&#45;&gt;Node14 -->
<g id="edge38" class="edge">
<title>Node19&#45;&gt;Node14</title>
<path fill="none" stroke="midnightblue" d="M962.29,-149.34C1024.34,-139.59 1119.89,-124.16 1202.51,-109 1209.45,-107.73 1216.65,-106.36 1223.86,-104.96"/>
<polygon fill="midnightblue" stroke="midnightblue" points="1224.53,-108.4 1233.67,-103.04 1223.19,-101.53 1224.53,-108.4"/>
</g>
<!-- Node20 -->
<g id="node20" class="node">
<title>Node20</title>
<g id="a_node20"><a xlink:title=" ">
<polygon fill="white" stroke="#bfbfbf" points="1095.01,-78.5 1095.01,-97.5 1160.01,-97.5 1160.01,-78.5 1095.01,-78.5"/>
<text text-anchor="middle" x="1127.51" y="-85.5" font-family="Helvetica,sans-Serif" font-size="10.00">functional</text>
</a>
</g>
</g>
<!-- Node19&#45;&gt;Node20 -->
<g id="edge28" class="edge">
<title>Node19&#45;&gt;Node20</title>
<path fill="none" stroke="midnightblue" d="M960.85,-145.41C997.83,-136.55 1044.87,-123.96 1085.51,-109 1090.91,-107.01 1096.56,-104.58 1101.9,-102.11"/>
<polygon fill="midnightblue" stroke="midnightblue" points="1103.56,-105.19 1111.05,-97.7 1100.53,-98.88 1103.56,-105.19"/>
</g>
<!-- Node21 -->
<g id="node21" class="node">
<title>Node21</title>
<g id="a_node21"><a xlink:title=" ">
<polygon fill="white" stroke="#bfbfbf" points="206.01,-78.5 206.01,-97.5 251.01,-97.5 251.01,-78.5 206.01,-78.5"/>
<text text-anchor="middle" x="228.51" y="-85.5" font-family="Helvetica,sans-Serif" font-size="10.00">utility</text>
</a>
</g>
</g>
<!-- Node19&#45;&gt;Node21 -->
<g id="edge30" class="edge">
<title>Node19&#45;&gt;Node21</title>
<path fill="none" stroke="midnightblue" d="M830.68,-146.95C825.89,-146.23 821.13,-145.57 816.51,-145 693.4,-129.91 377.3,-147.87 259.51,-109 255.45,-107.66 251.4,-105.66 247.64,-103.44"/>
<polygon fill="midnightblue" stroke="midnightblue" points="249.26,-100.32 239,-97.69 245.39,-106.14 249.26,-100.32"/>
</g>
<!-- Node22 -->
<g id="node22" class="node">
<title>Node22</title>
<g id="a_node22"><a xlink:title=" ">
<polygon fill="white" stroke="#bfbfbf" points="269.01,-78.5 269.01,-97.5 346.01,-97.5 346.01,-78.5 269.01,-78.5"/>
<text text-anchor="middle" x="307.51" y="-85.5" font-family="Helvetica,sans-Serif" font-size="10.00">Eigen/Dense</text>
</a>
</g>
</g>
<!-- Node19&#45;&gt;Node22 -->
<g id="edge31" class="edge">
<title>Node19&#45;&gt;Node22</title>
<path fill="none" stroke="midnightblue" d="M830.67,-147.02C825.89,-146.28 821.13,-145.6 816.51,-145 612.25,-118.6 554.56,-157.96 354.51,-109 347.45,-107.27 340.09,-104.6 333.35,-101.77"/>
<polygon fill="midnightblue" stroke="midnightblue" points="334.58,-98.48 324.02,-97.59 331.72,-104.87 334.58,-98.48"/>
</g>
<!-- Node23 -->
<g id="node23" class="node">
<title>Node23</title>
<g id="a_node23"><a xlink:title=" ">
<polygon fill="white" stroke="#bfbfbf" points="364.01,-73 364.01,-103 483.01,-103 483.01,-73 364.01,-73"/>
<text text-anchor="start" x="372.01" y="-91" font-family="Helvetica,sans-Serif" font-size="10.00">drake/common/eigen</text>
<text text-anchor="middle" x="423.51" y="-80" font-family="Helvetica,sans-Serif" font-size="10.00">_types.h</text>
</a>
</g>
</g>
<!-- Node19&#45;&gt;Node23 -->
<g id="edge32" class="edge">
<title>Node19&#45;&gt;Node23</title>
<path fill="none" stroke="midnightblue" d="M830.65,-147.19C825.87,-146.41 821.12,-145.67 816.51,-145 672.7,-124.03 633.99,-137.61 491.51,-109 486.78,-108.05 481.91,-106.92 477.04,-105.69"/>
<polygon fill="midnightblue" stroke="midnightblue" points="477.69,-102.24 467.12,-103.05 475.89,-109.01 477.69,-102.24"/>
</g>
<!-- Node24 -->
<g id="node24" class="node">
<title>Node24</title>
<g id="a_node24"><a xlink:title=" ">
<polygon fill="white" stroke="#bfbfbf" points="501.01,-73 501.01,-103 614.01,-103 614.01,-73 501.01,-73"/>
<text text-anchor="start" x="509.01" y="-91" font-family="Helvetica,sans-Serif" font-size="10.00">drake/math/rotation</text>
<text text-anchor="middle" x="557.51" y="-80" font-family="Helvetica,sans-Serif" font-size="10.00">_matrix.h</text>
</a>
</g>
</g>
<!-- Node19&#45;&gt;Node24 -->
<g id="edge33" class="edge">
<title>Node19&#45;&gt;Node24</title>
<path fill="none" stroke="midnightblue" d="M830.87,-147.55C753.36,-133.4 633.58,-111.45 623.51,-109 619.45,-108.01 615.28,-106.92 611.09,-105.78"/>
<polygon fill="midnightblue" stroke="midnightblue" points="611.92,-102.38 601.35,-103.03 610.02,-109.11 611.92,-102.38"/>
</g>
<!-- Node25 -->
<g id="node25" class="node">
<title>Node25</title>
<g id="a_node25"><a xlink:title=" ">
<polygon fill="white" stroke="#bfbfbf" points="632.51,-73 632.51,-103 774.51,-103 774.51,-73 632.51,-73"/>
<text text-anchor="start" x="640.51" y="-91" font-family="Helvetica,sans-Serif" font-size="10.00">drake/systems/analysis</text>
<text text-anchor="middle" x="703.51" y="-80" font-family="Helvetica,sans-Serif" font-size="10.00">/antiderivative_function.h</text>
</a>
</g>
</g>
<!-- Node19&#45;&gt;Node25 -->
<g id="edge34" class="edge">
<title>Node19&#45;&gt;Node25</title>
<path fill="none" stroke="midnightblue" d="M857.92,-145.4C827.28,-134.21 784.29,-118.51 751.44,-106.51"/>
<polygon fill="midnightblue" stroke="midnightblue" points="752.63,-103.22 742.04,-103.07 750.23,-109.79 752.63,-103.22"/>
</g>
<!-- Node26 -->
<g id="node26" class="node">
<title>Node26</title>
<g id="a_node26"><a xlink:title=" ">
<polygon fill="white" stroke="#bfbfbf" points="793.01,-67.5 793.01,-108.5 924.01,-108.5 924.01,-67.5 793.01,-67.5"/>
<text text-anchor="start" x="801.01" y="-96.5" font-family="Helvetica,sans-Serif" font-size="10.00">drake/systems/analysis</text>
<text text-anchor="start" x="801.01" y="-85.5" font-family="Helvetica,sans-Serif" font-size="10.00">/scalar_initial_value</text>
<text text-anchor="middle" x="858.51" y="-74.5" font-family="Helvetica,sans-Serif" font-size="10.00">_problem.h</text>
</a>
</g>
</g>
<!-- Node19&#45;&gt;Node26 -->
<g id="edge35" class="edge">
<title>Node19&#45;&gt;Node26</title>
<path fill="none" stroke="midnightblue" d="M888.82,-145.23C884.51,-137.24 878.99,-127 873.84,-117.44"/>
<polygon fill="midnightblue" stroke="midnightblue" points="876.89,-115.73 869.07,-108.59 870.73,-119.05 876.89,-115.73"/>
</g>
<!-- Node27 -->
<g id="node27" class="node">
<title>Node27</title>
<g id="a_node27"><a xlink:href="cubic__polynomial_8h.html" target="_top" xlink:title=" ">
<polygon fill="white" stroke="black" points="942.51,-73 942.51,-103 1076.51,-103 1076.51,-73 942.51,-73"/>
<text text-anchor="start" x="950.51" y="-91" font-family="Helvetica,sans-Serif" font-size="10.00">maliput_multilane/cubic</text>
<text text-anchor="middle" x="1009.51" y="-80" font-family="Helvetica,sans-Serif" font-size="10.00">_polynomial.h</text>
</a>
</g>
</g>
<!-- Node19&#45;&gt;Node27 -->
<g id="edge39" class="edge">
<title>Node19&#45;&gt;Node27</title>
<path fill="none" stroke="midnightblue" d="M919.11,-145.4C936.12,-134.79 959.64,-120.11 978.43,-108.39"/>
<polygon fill="midnightblue" stroke="midnightblue" points="980.32,-111.34 986.95,-103.07 976.62,-105.4 980.32,-111.34"/>
</g>
<!-- Node27&#45;&gt;Node5 -->
<g id="edge40" class="edge">
<title>Node27&#45;&gt;Node5</title>
<path fill="none" stroke="midnightblue" d="M961.56,-72.9C952.32,-70.61 942.67,-68.5 933.51,-67 657.39,-21.87 318.23,-16.87 211.39,-16.47"/>
<polygon fill="midnightblue" stroke="midnightblue" points="211.22,-12.97 201.21,-16.45 211.2,-19.97 211.22,-12.97"/>
</g>
<!-- Node27&#45;&gt;Node13 -->
<g id="edge42" class="edge">
<title>Node27&#45;&gt;Node13</title>
<path fill="none" stroke="midnightblue" d="M1061.15,-72.99C1069.6,-70.87 1078.28,-68.8 1086.51,-67 1155.17,-52.02 1233.87,-38.34 1291.15,-29"/>
<polygon fill="midnightblue" stroke="midnightblue" points="1291.92,-32.43 1301.23,-27.37 1290.8,-25.52 1291.92,-32.43"/>
</g>
<!-- Node27&#45;&gt;Node17 -->
<g id="edge41" class="edge">
<title>Node27&#45;&gt;Node17</title>
<path fill="none" stroke="midnightblue" d="M1049.9,-72.9C1087.21,-59.88 1142.02,-40.75 1177.24,-28.46"/>
<polygon fill="midnightblue" stroke="midnightblue" points="1178.77,-31.63 1187.06,-25.03 1176.46,-25.02 1178.77,-31.63"/>
</g>
<!-- Node28 -->
<g id="node28" class="node">
<title>Node28</title>
<g id="a_node28"><a xlink:href="../../maliput/html/maliput__unused_8h.html.html" xlink:title=" ">
<polygon fill="white" stroke="black" points="939.51,-0.5 939.51,-30.5 1079.51,-30.5 1079.51,-0.5 939.51,-0.5"/>
<text text-anchor="start" x="947.51" y="-18.5" font-family="Helvetica,sans-Serif" font-size="10.00">maliput/common/maliput</text>
<text text-anchor="middle" x="1009.51" y="-7.5" font-family="Helvetica,sans-Serif" font-size="10.00">_unused.h</text>
</a>
</g>
</g>
<!-- Node27&#45;&gt;Node28 -->
<g id="edge43" class="edge">
<title>Node27&#45;&gt;Node28</title>
<path fill="none" stroke="midnightblue" d="M1009.51,-72.73C1009.51,-63.66 1009.51,-51.66 1009.51,-41.08"/>
<polygon fill="midnightblue" stroke="midnightblue" points="1013.01,-40.75 1009.51,-30.75 1006.01,-40.75 1013.01,-40.75"/>
</g>
</g>
</svg>
