<?xml version="1.0" encoding="UTF-8" standalone="no"?>
<!DOCTYPE svg PUBLIC "-//W3C//DTD SVG 1.1//EN"
 "http://www.w3.org/Graphics/SVG/1.1/DTD/svg11.dtd">
<!-- Generated by graphviz version 2.43.0 (0)
 -->
<!-- Title: multilane_onramp_merge.h Pages: 1 -->
<svg width="1140pt" height="207pt"
 viewBox="0.00 0.00 1140.40 207.00" xmlns="http://www.w3.org/2000/svg" xmlns:xlink="http://www.w3.org/1999/xlink">
<g id="graph0" class="graph" transform="scale(1 1) rotate(0) translate(4 203)">
<title>multilane_onramp_merge.h</title>
<polygon fill="white" stroke="transparent" points="-4,4 -4,-203 1136.4,-203 1136.4,4 -4,4"/>
<!-- Node1 -->
<g id="node1" class="node">
<title>Node1</title>
<g id="a_node1"><a xlink:title=" ">
<polygon fill="#bfbfbf" stroke="black" points="94.5,-179.5 94.5,-198.5 246.5,-198.5 246.5,-179.5 94.5,-179.5"/>
<text text-anchor="middle" x="170.5" y="-186.5" font-family="Helvetica,sans-Serif" font-size="10.00">multilane_onramp_merge.h</text>
</a>
</g>
</g>
<!-- Node2 -->
<g id="node2" class="node">
<title>Node2</title>
<g id="a_node2"><a xlink:title=" ">
<polygon fill="white" stroke="#bfbfbf" points="0,-6 0,-25 47,-25 47,-6 0,-6"/>
<text text-anchor="middle" x="23.5" y="-13" font-family="Helvetica,sans-Serif" font-size="10.00">cmath</text>
</a>
</g>
</g>
<!-- Node1&#45;&gt;Node2 -->
<g id="edge1" class="edge">
<title>Node1&#45;&gt;Node2</title>
<path fill="none" stroke="midnightblue" d="M145.48,-179.36C127.26,-172.03 102.98,-159.98 86.5,-143 55.71,-111.28 37.05,-61.55 28.7,-34.87"/>
<polygon fill="midnightblue" stroke="midnightblue" points="32.05,-33.84 25.83,-25.26 25.34,-35.85 32.05,-33.84"/>
</g>
<!-- Node3 -->
<g id="node3" class="node">
<title>Node3</title>
<g id="a_node3"><a xlink:title=" ">
<polygon fill="white" stroke="#bfbfbf" points="151.5,-67.5 151.5,-86.5 189.5,-86.5 189.5,-67.5 151.5,-67.5"/>
<text text-anchor="middle" x="170.5" y="-74.5" font-family="Helvetica,sans-Serif" font-size="10.00">map</text>
</a>
</g>
</g>
<!-- Node1&#45;&gt;Node3 -->
<g id="edge2" class="edge">
<title>Node1&#45;&gt;Node3</title>
<path fill="none" stroke="midnightblue" d="M170.5,-179.37C170.5,-161.62 170.5,-120.67 170.5,-96.6"/>
<polygon fill="midnightblue" stroke="midnightblue" points="174,-96.59 170.5,-86.59 167,-96.59 174,-96.59"/>
</g>
<!-- Node4 -->
<g id="node4" class="node">
<title>Node4</title>
<g id="a_node4"><a xlink:title=" ">
<polygon fill="white" stroke="#bfbfbf" points="65.5,-6 65.5,-25 123.5,-25 123.5,-6 65.5,-6"/>
<text text-anchor="middle" x="94.5" y="-13" font-family="Helvetica,sans-Serif" font-size="10.00">memory</text>
</a>
</g>
</g>
<!-- Node1&#45;&gt;Node4 -->
<g id="edge3" class="edge">
<title>Node1&#45;&gt;Node4</title>
<path fill="none" stroke="midnightblue" d="M144.79,-179.49C128.14,-172.5 107.73,-160.82 97.5,-143 78.07,-109.14 84.17,-61.34 89.72,-35.26"/>
<polygon fill="midnightblue" stroke="midnightblue" points="93.19,-35.76 92.06,-25.23 86.38,-34.17 93.19,-35.76"/>
</g>
<!-- Node5 -->
<g id="node5" class="node">
<title>Node5</title>
<g id="a_node5"><a xlink:title=" ">
<polygon fill="white" stroke="#bfbfbf" points="141.5,-6 141.5,-25 185.5,-25 185.5,-6 141.5,-6"/>
<text text-anchor="middle" x="163.5" y="-13" font-family="Helvetica,sans-Serif" font-size="10.00">string</text>
</a>
</g>
</g>
<!-- Node1&#45;&gt;Node5 -->
<g id="edge4" class="edge">
<title>Node1&#45;&gt;Node5</title>
<path fill="none" stroke="midnightblue" d="M150.59,-179.41C136.28,-172.04 118.04,-159.92 109.5,-143 94.27,-112.85 96.05,-97.99 109.5,-67 115.96,-52.12 129.19,-39.63 140.94,-30.79"/>
<polygon fill="midnightblue" stroke="midnightblue" points="142.97,-33.65 149.12,-25.02 138.93,-27.93 142.97,-33.65"/>
</g>
<!-- Node6 -->
<g id="node6" class="node">
<title>Node6</title>
<g id="a_node6"><a xlink:href="../../maliput/html/lane__data_8h.html.html" xlink:title=" ">
<polygon fill="white" stroke="black" points="805.5,-67.5 805.5,-86.5 937.5,-86.5 937.5,-67.5 805.5,-67.5"/>
<text text-anchor="middle" x="871.5" y="-74.5" font-family="Helvetica,sans-Serif" font-size="10.00">maliput/api/lane_data.h</text>
</a>
</g>
</g>
<!-- Node1&#45;&gt;Node6 -->
<g id="edge5" class="edge">
<title>Node1&#45;&gt;Node6</title>
<path fill="none" stroke="midnightblue" d="M242.82,-179.47C311.94,-171.07 419.02,-157.44 511.5,-143 620.8,-125.93 748.03,-102 818.18,-88.44"/>
<polygon fill="midnightblue" stroke="midnightblue" points="818.96,-91.86 828.11,-86.52 817.63,-84.99 818.96,-91.86"/>
</g>
<!-- Node7 -->
<g id="node7" class="node">
<title>Node7</title>
<g id="a_node7"><a xlink:title=" ">
<polygon fill="white" stroke="#bfbfbf" points="956,-67.5 956,-86.5 1113,-86.5 1113,-67.5 956,-67.5"/>
<text text-anchor="middle" x="1034.5" y="-74.5" font-family="Helvetica,sans-Serif" font-size="10.00">maliput/api/road_geometry.h</text>
</a>
</g>
</g>
<!-- Node1&#45;&gt;Node7 -->
<g id="edge6" class="edge">
<title>Node1&#45;&gt;Node7</title>
<path fill="none" stroke="midnightblue" d="M246.7,-180.56C330.02,-172.24 467.41,-157.95 585.5,-143 722.68,-125.64 882.85,-101.52 969.98,-88.08"/>
<polygon fill="midnightblue" stroke="midnightblue" points="970.64,-91.52 979.98,-86.53 969.57,-84.6 970.64,-91.52"/>
</g>
<!-- Node8 -->
<g id="node8" class="node">
<title>Node8</title>
<g id="a_node8"><a xlink:href="../../maliput/html/maliput__copyable_8h.html.html" xlink:title=" ">
<polygon fill="white" stroke="black" points="203.5,-0.5 203.5,-30.5 343.5,-30.5 343.5,-0.5 203.5,-0.5"/>
<text text-anchor="start" x="211.5" y="-18.5" font-family="Helvetica,sans-Serif" font-size="10.00">maliput/common/maliput</text>
<text text-anchor="middle" x="273.5" y="-7.5" font-family="Helvetica,sans-Serif" font-size="10.00">_copyable.h</text>
</a>
</g>
</g>
<!-- Node1&#45;&gt;Node8 -->
<g id="edge7" class="edge">
<title>Node1&#45;&gt;Node8</title>
<path fill="none" stroke="midnightblue" d="M164.21,-179.23C149.85,-158.03 117.73,-103.09 142.5,-67 150.86,-54.81 180.71,-42.84 209.8,-33.61"/>
<polygon fill="midnightblue" stroke="midnightblue" points="211.08,-36.88 219.61,-30.59 209.02,-30.19 211.08,-36.88"/>
</g>
<!-- Node9 -->
<g id="node9" class="node">
<title>Node9</title>
<g id="a_node9"><a xlink:href="builder_8h.html" target="_top" xlink:title=" ">
<polygon fill="white" stroke="black" points="350.5,-123.5 350.5,-142.5 502.5,-142.5 502.5,-123.5 350.5,-123.5"/>
<text text-anchor="middle" x="426.5" y="-130.5" font-family="Helvetica,sans-Serif" font-size="10.00">maliput_multilane/builder.h</text>
</a>
</g>
</g>
<!-- Node1&#45;&gt;Node9 -->
<g id="edge8" class="edge">
<title>Node1&#45;&gt;Node9</title>
<path fill="none" stroke="midnightblue" d="M211.06,-179.44C255.82,-170 327.88,-154.8 376.2,-144.61"/>
<polygon fill="midnightblue" stroke="midnightblue" points="377.06,-148.01 386.13,-142.52 375.62,-141.16 377.06,-148.01"/>
</g>
<!-- Node14 -->
<g id="node14" class="node">
<title>Node14</title>
<g id="a_node14"><a xlink:href="computation__policy_8h.html" target="_top" xlink:title=" ">
<polygon fill="white" stroke="black" points="839.5,-0.5 839.5,-30.5 1009.5,-30.5 1009.5,-0.5 839.5,-0.5"/>
<text text-anchor="start" x="847.5" y="-18.5" font-family="Helvetica,sans-Serif" font-size="10.00">maliput_multilane/computation</text>
<text text-anchor="middle" x="924.5" y="-7.5" font-family="Helvetica,sans-Serif" font-size="10.00">_policy.h</text>
</a>
</g>
</g>
<!-- Node1&#45;&gt;Node14 -->
<g id="edge32" class="edge">
<title>Node1&#45;&gt;Node14</title>
<path fill="none" stroke="midnightblue" d="M246.84,-185.7C462.57,-178.41 1064.82,-152.34 1122.5,-87 1158.16,-46.61 1086.8,-29.35 1020.02,-21.99"/>
<polygon fill="midnightblue" stroke="midnightblue" points="1020.09,-18.48 1009.78,-20.93 1019.37,-25.44 1020.09,-18.48"/>
</g>
<!-- Node9&#45;&gt;Node2 -->
<g id="edge9" class="edge">
<title>Node9&#45;&gt;Node2</title>
<path fill="none" stroke="midnightblue" d="M367.85,-123.48C328.35,-116.54 275.6,-104.91 231.5,-87 215.61,-80.55 214.32,-73.62 198.5,-67 138.45,-41.85 118.07,-52.17 56.5,-31 54.64,-30.36 52.73,-29.66 50.82,-28.92"/>
<polygon fill="midnightblue" stroke="midnightblue" points="52.02,-25.62 41.44,-25.03 49.34,-32.09 52.02,-25.62"/>
</g>
<!-- Node9&#45;&gt;Node3 -->
<g id="edge10" class="edge">
<title>Node9&#45;&gt;Node3</title>
<path fill="none" stroke="midnightblue" d="M379.31,-123.43C334.04,-114.98 263.84,-101.3 203.5,-87 202.23,-86.7 200.94,-86.38 199.64,-86.06"/>
<polygon fill="midnightblue" stroke="midnightblue" points="200.2,-82.59 189.64,-83.45 198.43,-89.36 200.2,-82.59"/>
</g>
<!-- Node9&#45;&gt;Node4 -->
<g id="edge11" class="edge">
<title>Node9&#45;&gt;Node4</title>
<path fill="none" stroke="midnightblue" d="M391.65,-123.44C360.3,-115.33 313.2,-102.18 273.5,-87 254.19,-79.62 250.57,-74.99 231.5,-67 188.32,-48.91 176.37,-47.35 132.5,-31 130.61,-30.3 128.68,-29.57 126.72,-28.84"/>
<polygon fill="midnightblue" stroke="midnightblue" points="127.57,-25.42 116.98,-25.15 125.09,-31.96 127.57,-25.42"/>
</g>
<!-- Node9&#45;&gt;Node5 -->
<g id="edge13" class="edge">
<title>Node9&#45;&gt;Node5</title>
<path fill="none" stroke="midnightblue" d="M406.25,-123.4C365.84,-106.19 272.37,-66.16 194.5,-31 193.31,-30.46 192.1,-29.91 190.88,-29.35"/>
<polygon fill="midnightblue" stroke="midnightblue" points="192.04,-26.04 181.49,-25.02 189.1,-32.39 192.04,-26.04"/>
</g>
<!-- Node9&#45;&gt;Node6 -->
<g id="edge16" class="edge">
<title>Node9&#45;&gt;Node6</title>
<path fill="none" stroke="midnightblue" d="M497.01,-123.44C578.38,-113.57 711.69,-97.39 795.36,-87.24"/>
<polygon fill="midnightblue" stroke="midnightblue" points="795.81,-90.71 805.31,-86.03 794.96,-83.76 795.81,-90.71"/>
</g>
<!-- Node9&#45;&gt;Node7 -->
<g id="edge17" class="edge">
<title>Node9&#45;&gt;Node7</title>
<path fill="none" stroke="midnightblue" d="M502.75,-125.78C602.05,-117.59 781.31,-102.52 945.53,-87.08"/>
<polygon fill="midnightblue" stroke="midnightblue" points="946.2,-90.53 955.82,-86.11 945.54,-83.56 946.2,-90.53"/>
</g>
<!-- Node9&#45;&gt;Node8 -->
<g id="edge19" class="edge">
<title>Node9&#45;&gt;Node8</title>
<path fill="none" stroke="midnightblue" d="M415,-123.32C390.78,-105.04 333.98,-62.16 300.17,-36.64"/>
<polygon fill="midnightblue" stroke="midnightblue" points="302.2,-33.78 292.11,-30.55 297.98,-39.36 302.2,-33.78"/>
</g>
<!-- Node10 -->
<g id="node10" class="node">
<title>Node10</title>
<g id="a_node10"><a xlink:title=" ">
<polygon fill="white" stroke="#bfbfbf" points="587,-67.5 587,-86.5 652,-86.5 652,-67.5 587,-67.5"/>
<text text-anchor="middle" x="619.5" y="-74.5" font-family="Helvetica,sans-Serif" font-size="10.00">stdexcept</text>
</a>
</g>
</g>
<!-- Node9&#45;&gt;Node10 -->
<g id="edge12" class="edge">
<title>Node9&#45;&gt;Node10</title>
<path fill="none" stroke="midnightblue" d="M457.08,-123.44C490.11,-114.2 542.89,-99.44 579.27,-89.26"/>
<polygon fill="midnightblue" stroke="midnightblue" points="580.37,-92.58 589.06,-86.52 578.49,-85.84 580.37,-92.58"/>
</g>
<!-- Node11 -->
<g id="node11" class="node">
<title>Node11</title>
<g id="a_node11"><a xlink:title=" ">
<polygon fill="white" stroke="#bfbfbf" points="670,-67.5 670,-86.5 711,-86.5 711,-67.5 670,-67.5"/>
<text text-anchor="middle" x="690.5" y="-74.5" font-family="Helvetica,sans-Serif" font-size="10.00">tuple</text>
</a>
</g>
</g>
<!-- Node9&#45;&gt;Node11 -->
<g id="edge14" class="edge">
<title>Node9&#45;&gt;Node11</title>
<path fill="none" stroke="midnightblue" d="M478.87,-123.49C524.28,-115.77 591.92,-103.41 659.89,-86.94"/>
<polygon fill="midnightblue" stroke="midnightblue" points="661.04,-90.26 669.92,-84.47 659.37,-83.46 661.04,-90.26"/>
</g>
<!-- Node12 -->
<g id="node12" class="node">
<title>Node12</title>
<g id="a_node12"><a xlink:title=" ">
<polygon fill="white" stroke="#bfbfbf" points="362,-6 362,-25 409,-25 409,-6 362,-6"/>
<text text-anchor="middle" x="385.5" y="-13" font-family="Helvetica,sans-Serif" font-size="10.00">vector</text>
</a>
</g>
</g>
<!-- Node9&#45;&gt;Node12 -->
<g id="edge15" class="edge">
<title>Node9&#45;&gt;Node12</title>
<path fill="none" stroke="midnightblue" d="M415.93,-123.25C406.81,-114.98 394.22,-101.67 388.5,-87 382.04,-70.43 381.94,-49.98 383.07,-35.38"/>
<polygon fill="midnightblue" stroke="midnightblue" points="386.58,-35.42 384.13,-25.11 379.62,-34.69 386.58,-35.42"/>
</g>
<!-- Node13 -->
<g id="node13" class="node">
<title>Node13</title>
<g id="a_node13"><a xlink:href="../../maliput/html/maliput__abort_8h.html.html" xlink:title=" ">
<polygon fill="white" stroke="black" points="681.5,-0.5 681.5,-30.5 821.5,-30.5 821.5,-0.5 681.5,-0.5"/>
<text text-anchor="start" x="689.5" y="-18.5" font-family="Helvetica,sans-Serif" font-size="10.00">maliput/common/maliput</text>
<text text-anchor="middle" x="751.5" y="-7.5" font-family="Helvetica,sans-Serif" font-size="10.00">_abort.h</text>
</a>
</g>
</g>
<!-- Node9&#45;&gt;Node13 -->
<g id="edge18" class="edge">
<title>Node9&#45;&gt;Node13</title>
<path fill="none" stroke="midnightblue" d="M502.56,-128.44C577.77,-123.51 686.28,-112.18 719.5,-87 734.21,-75.85 742.35,-56.38 746.73,-40.72"/>
<polygon fill="midnightblue" stroke="midnightblue" points="750.22,-41.18 749.2,-30.64 743.42,-39.52 750.22,-41.18"/>
</g>
<!-- Node9&#45;&gt;Node14 -->
<g id="edge20" class="edge">
<title>Node9&#45;&gt;Node14</title>
<path fill="none" stroke="midnightblue" d="M502.8,-126.05C567.41,-119.85 662.08,-108.01 742.5,-87 749.47,-85.18 827.48,-54.67 879.08,-34.39"/>
<polygon fill="midnightblue" stroke="midnightblue" points="880.67,-37.53 888.7,-30.61 878.11,-31.01 880.67,-37.53"/>
</g>
<!-- Node15 -->
<g id="node15" class="node">
<title>Node15</title>
<g id="a_node15"><a xlink:href="connection_8h.html" target="_top" xlink:title=" ">
<polygon fill="white" stroke="black" points="398,-67.5 398,-86.5 569,-86.5 569,-67.5 398,-67.5"/>
<text text-anchor="middle" x="483.5" y="-74.5" font-family="Helvetica,sans-Serif" font-size="10.00">maliput_multilane/connection.h</text>
</a>
</g>
</g>
<!-- Node9&#45;&gt;Node15 -->
<g id="edge21" class="edge">
<title>Node9&#45;&gt;Node15</title>
<path fill="none" stroke="midnightblue" d="M435.66,-123.32C444,-115.42 456.53,-103.55 466.68,-93.94"/>
<polygon fill="midnightblue" stroke="midnightblue" points="469.32,-96.25 474.18,-86.83 464.51,-91.17 469.32,-96.25"/>
</g>
<!-- Node15&#45;&gt;Node2 -->
<g id="edge22" class="edge">
<title>Node15&#45;&gt;Node2</title>
<path fill="none" stroke="midnightblue" d="M397.84,-74.7C310.62,-71.59 172.13,-61.7 56.5,-31 54.2,-30.39 51.86,-29.64 49.54,-28.81"/>
<polygon fill="midnightblue" stroke="midnightblue" points="50.85,-25.56 40.27,-25.06 48.22,-32.05 50.85,-25.56"/>
</g>
<!-- Node15&#45;&gt;Node4 -->
<g id="edge23" class="edge">
<title>Node15&#45;&gt;Node4</title>
<path fill="none" stroke="midnightblue" d="M397.69,-70.7C325.97,-64.92 221.43,-53.33 132.5,-31 129.67,-30.29 126.77,-29.43 123.89,-28.49"/>
<polygon fill="midnightblue" stroke="midnightblue" points="124.92,-25.15 114.33,-25.08 122.57,-31.74 124.92,-25.15"/>
</g>
<!-- Node15&#45;&gt;Node5 -->
<g id="edge26" class="edge">
<title>Node15&#45;&gt;Node5</title>
<path fill="none" stroke="midnightblue" d="M397.99,-69.09C339.7,-62.84 261.28,-51.37 194.5,-31 192.62,-30.43 190.72,-29.76 188.82,-29.04"/>
<polygon fill="midnightblue" stroke="midnightblue" points="190.14,-25.79 179.57,-25.07 187.38,-32.23 190.14,-25.79"/>
</g>
<!-- Node15&#45;&gt;Node8 -->
<g id="edge30" class="edge">
<title>Node15&#45;&gt;Node8</title>
<path fill="none" stroke="midnightblue" d="M453.41,-67.48C422.05,-58.59 372.07,-44.43 332.74,-33.29"/>
<polygon fill="midnightblue" stroke="midnightblue" points="333.57,-29.88 322.99,-30.52 331.66,-36.62 333.57,-29.88"/>
</g>
<!-- Node15&#45;&gt;Node12 -->
<g id="edge28" class="edge">
<title>Node15&#45;&gt;Node12</title>
<path fill="none" stroke="midnightblue" d="M469.46,-67.48C453.45,-57.75 427.05,-41.73 408.13,-30.24"/>
<polygon fill="midnightblue" stroke="midnightblue" points="409.88,-27.21 399.51,-25.01 406.25,-33.19 409.88,-27.21"/>
</g>
<!-- Node15&#45;&gt;Node13 -->
<g id="edge29" class="edge">
<title>Node15&#45;&gt;Node13</title>
<path fill="none" stroke="midnightblue" d="M521.9,-67.48C562.6,-58.44 627.87,-43.95 678.43,-32.72"/>
<polygon fill="midnightblue" stroke="midnightblue" points="679.33,-36.11 688.34,-30.52 677.82,-29.27 679.33,-36.11"/>
</g>
<!-- Node15&#45;&gt;Node14 -->
<g id="edge31" class="edge">
<title>Node15&#45;&gt;Node14</title>
<path fill="none" stroke="midnightblue" d="M553.02,-67.48C620.87,-59.06 727.29,-45.54 829.29,-31.15"/>
<polygon fill="midnightblue" stroke="midnightblue" points="830.05,-34.58 839.46,-29.71 829.07,-27.65 830.05,-34.58"/>
</g>
<!-- Node16 -->
<g id="node16" class="node">
<title>Node16</title>
<g id="a_node16"><a xlink:title=" ">
<polygon fill="white" stroke="#bfbfbf" points="531.5,-6 531.5,-25 587.5,-25 587.5,-6 531.5,-6"/>
<text text-anchor="middle" x="559.5" y="-13" font-family="Helvetica,sans-Serif" font-size="10.00">optional</text>
</a>
</g>
</g>
<!-- Node15&#45;&gt;Node16 -->
<g id="edge24" class="edge">
<title>Node15&#45;&gt;Node16</title>
<path fill="none" stroke="midnightblue" d="M494.39,-67.48C506.47,-58.02 526.17,-42.6 540.74,-31.19"/>
<polygon fill="midnightblue" stroke="midnightblue" points="542.91,-33.93 548.63,-25.01 538.6,-28.42 542.91,-33.93"/>
</g>
<!-- Node17 -->
<g id="node17" class="node">
<title>Node17</title>
<g id="a_node17"><a xlink:title=" ">
<polygon fill="white" stroke="#bfbfbf" points="606,-6 606,-25 663,-25 663,-6 606,-6"/>
<text text-anchor="middle" x="634.5" y="-13" font-family="Helvetica,sans-Serif" font-size="10.00">ostream</text>
</a>
</g>
</g>
<!-- Node15&#45;&gt;Node17 -->
<g id="edge25" class="edge">
<title>Node15&#45;&gt;Node17</title>
<path fill="none" stroke="midnightblue" d="M505.13,-67.48C530.92,-57.31 574.21,-40.26 603.54,-28.7"/>
<polygon fill="midnightblue" stroke="midnightblue" points="604.88,-31.93 612.91,-25.01 602.32,-25.42 604.88,-31.93"/>
</g>
<!-- Node18 -->
<g id="node18" class="node">
<title>Node18</title>
<g id="a_node18"><a xlink:title=" ">
<polygon fill="white" stroke="#bfbfbf" points="427.5,-6 427.5,-25 513.5,-25 513.5,-6 427.5,-6"/>
<text text-anchor="middle" x="470.5" y="-13" font-family="Helvetica,sans-Serif" font-size="10.00">unordered_set</text>
</a>
</g>
</g>
<!-- Node15&#45;&gt;Node18 -->
<g id="edge27" class="edge">
<title>Node15&#45;&gt;Node18</title>
<path fill="none" stroke="midnightblue" d="M481.64,-67.48C479.78,-58.99 476.88,-45.7 474.5,-34.82"/>
<polygon fill="midnightblue" stroke="midnightblue" points="477.91,-34.03 472.36,-25.01 471.07,-35.53 477.91,-34.03"/>
</g>
</g>
</svg>
