<?xml version="1.0" encoding="UTF-8" standalone="no"?>
<!DOCTYPE svg PUBLIC "-//W3C//DTD SVG 1.1//EN"
 "http://www.w3.org/Graphics/SVG/1.1/DTD/svg11.dtd">
<!-- Generated by graphviz version 2.40.1 (20161225.0304)
 -->
<!-- Title: multilane_onramp_merge.cc Pages: 1 -->
<!--zoomable 777 -->
<svg id="main" version="1.1" xmlns="http://www.w3.org/2000/svg" xmlns:xlink="http://www.w3.org/1999/xlink" xml:space="preserve" onload="init(evt)">
<style type="text/css"><![CDATA[
.edge:hover path { stroke: red; }
.edge:hover polygon { stroke: red; fill: red; }
]]></style>
<script type="text/javascript"><![CDATA[
var edges = document.getElementsByTagName('g');
if (edges && edges.length) {
  for (var i=0;i<edges.length;i++) {
    if (edges[i].id.substr(0,4)=='edge') {
      edges[i].setAttribute('class','edge');
    }
  }
}
]]></script>
        <defs>
                <circle id="rim" cx="0" cy="0" r="7"/>
                <circle id="rim2" cx="0" cy="0" r="3.5"/>
                <g id="zoomPlus">
                        <use xlink:href="#rim" fill="#404040">
                                <set attributeName="fill" to="#808080" begin="zoomplus.mouseover" end="zoomplus.mouseout"/>
                        </use>
                        <path d="M-4,0h8M0,-4v8" fill="none" stroke="white" stroke-width="1.5" pointer-events="none"/>
                </g>
                <g id="zoomMin">
                        <use xlink:href="#rim" fill="#404040">
                                <set attributeName="fill" to="#808080" begin="zoomminus.mouseover" end="zoomminus.mouseout"/>
                        </use>
                        <path d="M-4,0h8" fill="none" stroke="white" stroke-width="1.5" pointer-events="none"/>
                </g>
                <g id="dirArrow">
                        <path fill="none" stroke="white" stroke-width="1.5" d="M0,-3.0v7 M-2.5,-0.5L0,-3.0L2.5,-0.5"/>
                </g>
               <g id="resetDef">
                       <use xlink:href="#rim2" fill="#404040">
                               <set attributeName="fill" to="#808080" begin="reset.mouseover" end="reset.mouseout"/>
                       </use>
               </g>
        </defs>

<script type="text/javascript">
var viewWidth = 2220;
var viewHeight = 777;
var sectionId = 'dynsection-0';
</script>
<script xlink:href="svgpan.js"/>
<svg id="graph" class="graph">
<g id="viewport">
<title>multilane_onramp_merge.cc</title>
<polygon fill="#ffffff" stroke="transparent" points="-4,4 -4,-773 2215.5616,-773 2215.5616,4 -4,4"/>
<!-- Node0 -->
<g id="node1" class="node">
<title>Node0</title>
<polygon fill="#bfbfbf" stroke="#000000" points="1185.0616,-749.5 1185.0616,-768.5 1341.0616,-768.5 1341.0616,-749.5 1185.0616,-749.5"/>
<text text-anchor="middle" x="1263.0616" y="-756.5" font-family="Helvetica,sans-Serif" font-size="10.00" fill="#000000">multilane_onramp_merge.cc</text>
</g>
<!-- Node1 -->
<g id="node2" class="node">
<title>Node1</title>
<g id="a_node2"><a xlink:href="multilane__onramp__merge_8h.html" target="_top" xlink:title="maliput_multilane/multilane\l_onramp_merge.h">
<polygon fill="#ffffff" stroke="#000000" points="1238.5616,-682.5 1238.5616,-712.5 1393.5616,-712.5 1393.5616,-682.5 1238.5616,-682.5"/>
<text text-anchor="start" x="1246.5616" y="-700.5" font-family="Helvetica,sans-Serif" font-size="10.00" fill="#000000">maliput_multilane/multilane</text>
<text text-anchor="middle" x="1316.0616" y="-689.5" font-family="Helvetica,sans-Serif" font-size="10.00" fill="#000000">_onramp_merge.h</text>
</a>
</g>
</g>
<!-- Node0&#45;&gt;Node1 -->
<g id="edge1" class="edge">
<title>Node0&#45;&gt;Node1</title>
<path fill="none" stroke="#191970" d="M1271.3428,-749.3906C1278.0508,-741.6068 1287.7775,-730.3202 1296.4475,-720.2597"/>
<polygon fill="#191970" stroke="#191970" points="1299.2194,-722.4046 1303.0963,-712.5446 1293.9168,-717.8349 1299.2194,-722.4046"/>
</g>
<!-- Node4 -->
<g id="node5" class="node">
<title>Node4</title>
<polygon fill="#ffffff" stroke="#bfbfbf" points="1162.0616,-458.5 1162.0616,-477.5 1320.0616,-477.5 1320.0616,-458.5 1162.0616,-458.5"/>
<text text-anchor="middle" x="1241.0616" y="-465.5" font-family="Helvetica,sans-Serif" font-size="10.00" fill="#000000">maliput/api/road_geometry.h</text>
</g>
<!-- Node0&#45;&gt;Node4 -->
<g id="edge92" class="edge">
<title>Node0&#45;&gt;Node4</title>
<path fill="none" stroke="#191970" d="M1253.9648,-749.1573C1246.2631,-740.3173 1235.4803,-726.6621 1229.0616,-713 1214.0728,-681.0969 1210.0616,-671.2487 1210.0616,-636 1210.0616,-636 1210.0616,-636 1210.0616,-580 1210.0616,-546.3636 1223.2093,-509.0368 1232.38,-487.0922"/>
<polygon fill="#191970" stroke="#191970" points="1235.7125,-488.2051 1236.4874,-477.6387 1229.2923,-485.4156 1235.7125,-488.2051"/>
</g>
<!-- Node2 -->
<g id="node3" class="node">
<title>Node2</title>
<polygon fill="#ffffff" stroke="#bfbfbf" points="2164.5616,-252 2164.5616,-271 2211.5616,-271 2211.5616,-252 2164.5616,-252"/>
<text text-anchor="middle" x="2188.0616" y="-259" font-family="Helvetica,sans-Serif" font-size="10.00" fill="#000000">cmath</text>
</g>
<!-- Node1&#45;&gt;Node2 -->
<g id="edge2" class="edge">
<title>Node1&#45;&gt;Node2</title>
<path fill="none" stroke="#191970" d="M1393.8666,-694.6005C1600.448,-685.8719 2147.0616,-655.6305 2147.0616,-580 2147.0616,-580 2147.0616,-580 2147.0616,-406.5 2147.0616,-359.6419 2167.133,-307.3704 2179.1889,-280.2001"/>
<polygon fill="#191970" stroke="#191970" points="2182.3838,-281.6294 2183.3584,-271.0795 2176.0175,-278.719 2182.3838,-281.6294"/>
</g>
<!-- Node3 -->
<g id="node4" class="node">
<title>Node3</title>
<polygon fill="#ffffff" stroke="#bfbfbf" points="1321.0616,-324.5 1321.0616,-343.5 1379.0616,-343.5 1379.0616,-324.5 1321.0616,-324.5"/>
<text text-anchor="middle" x="1350.0616" y="-331.5" font-family="Helvetica,sans-Serif" font-size="10.00" fill="#000000">memory</text>
</g>
<!-- Node1&#45;&gt;Node3 -->
<g id="edge3" class="edge">
<title>Node1&#45;&gt;Node3</title>
<path fill="none" stroke="#191970" d="M1322.7405,-682.3712C1340.3988,-641.442 1388.0582,-524.6965 1404.0616,-422 1406.183,-408.3865 1409.1617,-403.7991 1404.0616,-391 1397.5429,-374.6407 1383.8517,-360.2769 1371.8871,-350.0606"/>
<polygon fill="#191970" stroke="#191970" points="1373.9665,-347.2409 1363.9892,-343.6768 1369.5662,-352.685 1373.9665,-347.2409"/>
</g>
<!-- Node1&#45;&gt;Node4 -->
<g id="edge4" class="edge">
<title>Node1&#45;&gt;Node4</title>
<path fill="none" stroke="#191970" d="M1311.1406,-682.4419C1298.0142,-642.275 1262.1694,-532.5899 1247.4751,-487.6252"/>
<polygon fill="#191970" stroke="#191970" points="1250.7295,-486.3162 1244.2963,-477.8981 1244.0758,-488.4907 1250.7295,-486.3162"/>
</g>
<!-- Node5 -->
<g id="node6" class="node">
<title>Node5</title>
<g id="a_node6"><a doxygen="/__w/maliput_documentation/maliput_documentation/maliput_ws/build/maliput_documentation/docs/docs/sphinx/from_doxygen/html/deps/maliput/maliput.tag:../../maliput/html/" xlink:href="../../maliput/html/maliput__copyable_8h.html" target="_top" xlink:title="maliput/common/maliput\l_copyable.h">
<polygon fill="#ffffff" stroke="#000000" points="1558.0616,-123.5 1558.0616,-153.5 1698.0616,-153.5 1698.0616,-123.5 1558.0616,-123.5"/>
<text text-anchor="start" x="1566.0616" y="-141.5" font-family="Helvetica,sans-Serif" font-size="10.00" fill="#000000">maliput/common/maliput</text>
<text text-anchor="middle" x="1628.0616" y="-130.5" font-family="Helvetica,sans-Serif" font-size="10.00" fill="#000000">_copyable.h</text>
</a>
</g>
</g>
<!-- Node1&#45;&gt;Node5 -->
<g id="edge5" class="edge">
<title>Node1&#45;&gt;Node5</title>
<path fill="none" stroke="#191970" d="M1238.3762,-693.9214C973.9329,-681.2331 125.0616,-636.1316 125.0616,-580 125.0616,-580 125.0616,-580 125.0616,-261.5 125.0616,-206.5242 -266.6506,-282.294 372.0616,-190 600.4364,-156.9998 1308.5167,-143.3782 1547.9796,-139.6374"/>
<polygon fill="#191970" stroke="#191970" points="1548.0608,-143.1367 1558.0054,-139.4823 1547.9524,-136.1375 1548.0608,-143.1367"/>
</g>
<!-- Node6 -->
<g id="node7" class="node">
<title>Node6</title>
<g id="a_node7"><a xlink:href="builder_8h.html" target="_top" xlink:title="maliput_multilane/builder.h">
<polygon fill="#ffffff" stroke="#000000" points="1503.0616,-626.5 1503.0616,-645.5 1655.0616,-645.5 1655.0616,-626.5 1503.0616,-626.5"/>
<text text-anchor="middle" x="1579.0616" y="-633.5" font-family="Helvetica,sans-Serif" font-size="10.00" fill="#000000">maliput_multilane/builder.h</text>
</a>
</g>
</g>
<!-- Node1&#45;&gt;Node6 -->
<g id="edge6" class="edge">
<title>Node1&#45;&gt;Node6</title>
<path fill="none" stroke="#191970" d="M1380.3986,-682.4554C1426.013,-671.7889 1486.3656,-657.6761 1528.5322,-647.8158"/>
<polygon fill="#191970" stroke="#191970" points="1529.3656,-651.2154 1538.3059,-645.5303 1527.7716,-644.3993 1529.3656,-651.2154"/>
</g>
<!-- Node23 -->
<g id="node24" class="node">
<title>Node23</title>
<g id="a_node24"><a xlink:href="road__curve_8h.html" target="_top" xlink:title="maliput_multilane/road\l_curve.h">
<polygon fill="#ffffff" stroke="#000000" points="814.5616,-391.5 814.5616,-421.5 945.5616,-421.5 945.5616,-391.5 814.5616,-391.5"/>
<text text-anchor="start" x="822.5616" y="-409.5" font-family="Helvetica,sans-Serif" font-size="10.00" fill="#000000">maliput_multilane/road</text>
<text text-anchor="middle" x="880.0616" y="-398.5" font-family="Helvetica,sans-Serif" font-size="10.00" fill="#000000">_curve.h</text>
</a>
</g>
</g>
<!-- Node1&#45;&gt;Node23 -->
<g id="edge91" class="edge">
<title>Node1&#45;&gt;Node23</title>
<path fill="none" stroke="#191970" d="M1238.4163,-692.7391C1140.035,-683.9505 967.6924,-659.1879 838.0616,-590 770.9405,-554.1755 684.7894,-519.8758 729.0616,-458 738.6333,-444.6224 771.8281,-432.5722 804.6648,-423.4973"/>
<polygon fill="#191970" stroke="#191970" points="805.6034,-426.8694 814.3555,-420.8985 803.7902,-420.1083 805.6034,-426.8694"/>
</g>
<!-- Node6&#45;&gt;Node2 -->
<g id="edge7" class="edge">
<title>Node6&#45;&gt;Node2</title>
<path fill="none" stroke="#191970" d="M1655.2563,-632.0238C1780.2365,-623.3949 2015.0616,-597.414 2015.0616,-524 2015.0616,-524 2015.0616,-524 2015.0616,-406.5 2015.0616,-334.3061 2104.6463,-290.9289 2154.8846,-272.2793"/>
<polygon fill="#191970" stroke="#191970" points="2156.1379,-275.5482 2164.3694,-268.8779 2153.7749,-268.9591 2156.1379,-275.5482"/>
</g>
<!-- Node6&#45;&gt;Node3 -->
<g id="edge9" class="edge">
<title>Node6&#45;&gt;Node3</title>
<path fill="none" stroke="#191970" d="M1540.8012,-626.4009C1520.4087,-619.444 1496.4282,-608.019 1481.0616,-590 1461.2546,-566.7742 1462.0616,-554.5246 1462.0616,-524 1462.0616,-524 1462.0616,-524 1462.0616,-468 1462.0616,-432.154 1459.7289,-419.5563 1438.0616,-391 1435.7832,-387.9973 1399.6051,-365.0129 1374.354,-349.1643"/>
<polygon fill="#191970" stroke="#191970" points="1375.961,-346.041 1365.6283,-343.6984 1372.2449,-351.9732 1375.961,-346.041"/>
</g>
<!-- Node6&#45;&gt;Node5 -->
<g id="edge31" class="edge">
<title>Node6&#45;&gt;Node5</title>
<path fill="none" stroke="#191970" d="M1628.9035,-626.4801C1708.6536,-609.8064 1856.0616,-572.436 1856.0616,-524 1856.0616,-524 1856.0616,-524 1856.0616,-468 1856.0616,-429.8373 1846.3131,-416.6563 1818.0616,-391 1784.6358,-360.6449 1754.6871,-387.2264 1723.0616,-355 1668.5123,-299.4144 1699.7999,-259.1965 1664.0616,-190 1659.0306,-180.2591 1652.4015,-170.2292 1646.2044,-161.6386"/>
<polygon fill="#191970" stroke="#191970" points="1648.9995,-159.5318 1640.2265,-153.5916 1643.3803,-163.7062 1648.9995,-159.5318"/>
</g>
<!-- Node7 -->
<g id="node8" class="node">
<title>Node7</title>
<polygon fill="#ffffff" stroke="#bfbfbf" points="1490.0616,-570.5 1490.0616,-589.5 1528.0616,-589.5 1528.0616,-570.5 1490.0616,-570.5"/>
<text text-anchor="middle" x="1509.0616" y="-577.5" font-family="Helvetica,sans-Serif" font-size="10.00" fill="#000000">map</text>
</g>
<!-- Node6&#45;&gt;Node7 -->
<g id="edge8" class="edge">
<title>Node6&#45;&gt;Node7</title>
<path fill="none" stroke="#191970" d="M1566.8685,-626.2455C1556.4295,-617.8943 1541.1961,-605.7076 1528.9876,-595.9408"/>
<polygon fill="#191970" stroke="#191970" points="1531.1101,-593.1566 1521.1149,-589.6427 1526.7372,-598.6227 1531.1101,-593.1566"/>
</g>
<!-- Node8 -->
<g id="node9" class="node">
<title>Node8</title>
<polygon fill="#ffffff" stroke="#bfbfbf" points="1546.5616,-570.5 1546.5616,-589.5 1611.5616,-589.5 1611.5616,-570.5 1546.5616,-570.5"/>
<text text-anchor="middle" x="1579.0616" y="-577.5" font-family="Helvetica,sans-Serif" font-size="10.00" fill="#000000">stdexcept</text>
</g>
<!-- Node6&#45;&gt;Node8 -->
<g id="edge10" class="edge">
<title>Node6&#45;&gt;Node8</title>
<path fill="none" stroke="#191970" d="M1579.0616,-626.2455C1579.0616,-618.9382 1579.0616,-608.6944 1579.0616,-599.7046"/>
<polygon fill="#191970" stroke="#191970" points="1582.5617,-599.6426 1579.0616,-589.6427 1575.5617,-599.6427 1582.5617,-599.6426"/>
</g>
<!-- Node9 -->
<g id="node10" class="node">
<title>Node9</title>
<polygon fill="#ffffff" stroke="#bfbfbf" points="1746.0616,-397 1746.0616,-416 1790.0616,-416 1790.0616,-397 1746.0616,-397"/>
<text text-anchor="middle" x="1768.0616" y="-404" font-family="Helvetica,sans-Serif" font-size="10.00" fill="#000000">string</text>
</g>
<!-- Node6&#45;&gt;Node9 -->
<g id="edge11" class="edge">
<title>Node6&#45;&gt;Node9</title>
<path fill="none" stroke="#191970" d="M1626.6303,-626.487C1649.8086,-619.7223 1676.5919,-608.4495 1695.0616,-590 1741.6656,-543.447 1759.4341,-463.4158 1765.3996,-426.3765"/>
<polygon fill="#191970" stroke="#191970" points="1768.882,-426.7525 1766.8908,-416.3465 1761.9582,-425.723 1768.882,-426.7525"/>
</g>
<!-- Node10 -->
<g id="node11" class="node">
<title>Node10</title>
<polygon fill="#ffffff" stroke="#bfbfbf" points="1629.5616,-570.5 1629.5616,-589.5 1670.5616,-589.5 1670.5616,-570.5 1629.5616,-570.5"/>
<text text-anchor="middle" x="1650.0616" y="-577.5" font-family="Helvetica,sans-Serif" font-size="10.00" fill="#000000">tuple</text>
</g>
<!-- Node6&#45;&gt;Node10 -->
<g id="edge12" class="edge">
<title>Node6&#45;&gt;Node10</title>
<path fill="none" stroke="#191970" d="M1591.4288,-626.2455C1602.017,-617.8943 1617.468,-605.7076 1629.8509,-595.9408"/>
<polygon fill="#191970" stroke="#191970" points="1632.1519,-598.5837 1637.836,-589.6427 1627.8168,-593.0875 1632.1519,-598.5837"/>
</g>
<!-- Node11 -->
<g id="node12" class="node">
<title>Node11</title>
<polygon fill="#ffffff" stroke="#bfbfbf" points="1348.5616,-397 1348.5616,-416 1395.5616,-416 1395.5616,-397 1348.5616,-397"/>
<text text-anchor="middle" x="1372.0616" y="-404" font-family="Helvetica,sans-Serif" font-size="10.00" fill="#000000">vector</text>
</g>
<!-- Node6&#45;&gt;Node11 -->
<g id="edge13" class="edge">
<title>Node6&#45;&gt;Node11</title>
<path fill="none" stroke="#191970" d="M1520.2872,-626.4142C1495.4397,-619.7816 1467.7562,-608.6408 1448.0616,-590 1399.7204,-544.2455 1381.07,-463.1608 1374.8198,-426.04"/>
<polygon fill="#191970" stroke="#191970" points="1378.2563,-425.3612 1373.259,-416.019 1371.3397,-426.4385 1378.2563,-425.3612"/>
</g>
<!-- Node12 -->
<g id="node13" class="node">
<title>Node12</title>
<g id="a_node13"><a doxygen="/__w/maliput_documentation/maliput_documentation/maliput_ws/build/maliput_documentation/docs/docs/sphinx/from_doxygen/html/deps/maliput/maliput.tag:../../maliput/html/" xlink:href="../../maliput/html/lane__data_8h.html" target="_top" xlink:title="maliput/api/lane_data.h">
<polygon fill="#ffffff" stroke="#000000" points="1732.0616,-324.5 1732.0616,-343.5 1864.0616,-343.5 1864.0616,-324.5 1732.0616,-324.5"/>
<text text-anchor="middle" x="1798.0616" y="-331.5" font-family="Helvetica,sans-Serif" font-size="10.00" fill="#000000">maliput/api/lane_data.h</text>
</a>
</g>
</g>
<!-- Node6&#45;&gt;Node12 -->
<g id="edge14" class="edge">
<title>Node6&#45;&gt;Node12</title>
<path fill="none" stroke="#191970" d="M1655.3694,-632.5852C1730.3866,-627.7382 1838.1424,-616.3119 1870.0616,-590 1894.146,-570.1465 1894.0616,-555.2125 1894.0616,-524 1894.0616,-524 1894.0616,-524 1894.0616,-468 1894.0616,-432.154 1890.3506,-420.5515 1870.0616,-391 1858.1431,-373.6404 1839.3576,-359.021 1823.9634,-348.9352"/>
<polygon fill="#191970" stroke="#191970" points="1825.6982,-345.8916 1815.3689,-343.5342 1821.9736,-351.8185 1825.6982,-345.8916"/>
</g>
<!-- Node18 -->
<g id="node19" class="node">
<title>Node18</title>
<g id="a_node19"><a doxygen="/__w/maliput_documentation/maliput_documentation/maliput_ws/build/maliput_documentation/docs/docs/sphinx/from_doxygen/html/deps/maliput/maliput.tag:../../maliput/html/" xlink:href="../../maliput/html/maliput__abort_8h.html" target="_top" xlink:title="maliput/common/maliput\l_abort.h">
<polygon fill="#ffffff" stroke="#000000" points="1190.0616,-391.5 1190.0616,-421.5 1330.0616,-421.5 1330.0616,-391.5 1190.0616,-391.5"/>
<text text-anchor="start" x="1198.0616" y="-409.5" font-family="Helvetica,sans-Serif" font-size="10.00" fill="#000000">maliput/common/maliput</text>
<text text-anchor="middle" x="1260.0616" y="-398.5" font-family="Helvetica,sans-Serif" font-size="10.00" fill="#000000">_abort.h</text>
</a>
</g>
</g>
<!-- Node6&#45;&gt;Node18 -->
<g id="edge30" class="edge">
<title>Node6&#45;&gt;Node18</title>
<path fill="none" stroke="#191970" d="M1516.6243,-626.457C1487.4626,-619.7624 1453.4458,-608.5591 1427.0616,-590 1367.2984,-547.9616 1380.6624,-509.7322 1329.0616,-458 1318.0186,-446.9289 1304.4791,-436.3064 1292.3273,-427.6145"/>
<polygon fill="#191970" stroke="#191970" points="1293.9829,-424.5018 1283.7797,-421.6478 1289.9762,-430.2417 1293.9829,-424.5018"/>
</g>
<!-- Node19 -->
<g id="node20" class="node">
<title>Node19</title>
<g id="a_node20"><a xlink:href="connection_8h.html" target="_top" xlink:title="maliput_multilane/connection.h">
<polygon fill="#ffffff" stroke="#000000" points="1490.5616,-458.5 1490.5616,-477.5 1661.5616,-477.5 1661.5616,-458.5 1490.5616,-458.5"/>
<text text-anchor="middle" x="1576.0616" y="-465.5" font-family="Helvetica,sans-Serif" font-size="10.00" fill="#000000">maliput_multilane/connection.h</text>
</a>
</g>
</g>
<!-- Node6&#45;&gt;Node19 -->
<g id="edge32" class="edge">
<title>Node6&#45;&gt;Node19</title>
<path fill="none" stroke="#191970" d="M1621.8322,-626.4295C1654.1883,-616.7432 1691.1525,-598.9899 1679.0616,-570 1663.1863,-531.9364 1625.4289,-500.8076 1600.3097,-483.3326"/>
<polygon fill="#191970" stroke="#191970" points="1601.9398,-480.2106 1591.6911,-477.5247 1598.028,-486.0156 1601.9398,-480.2106"/>
</g>
<!-- Node33 -->
<g id="node34" class="node">
<title>Node33</title>
<g id="a_node34"><a xlink:href="junction_8h.html" target="_top" xlink:title="maliput_multilane/junction.h">
<polygon fill="#ffffff" stroke="#000000" points="847.5616,-570.5 847.5616,-589.5 1004.5616,-589.5 1004.5616,-570.5 847.5616,-570.5"/>
<text text-anchor="middle" x="926.0616" y="-577.5" font-family="Helvetica,sans-Serif" font-size="10.00" fill="#000000">maliput_multilane/junction.h</text>
</a>
</g>
</g>
<!-- Node6&#45;&gt;Node33 -->
<g id="edge58" class="edge">
<title>Node6&#45;&gt;Node33</title>
<path fill="none" stroke="#191970" d="M1502.8762,-629.4665C1381.3502,-619.0447 1144.1973,-598.7069 1015.0557,-587.632"/>
<polygon fill="#191970" stroke="#191970" points="1015.0683,-584.1203 1004.8058,-586.7529 1014.4701,-591.0947 1015.0683,-584.1203"/>
</g>
<!-- Node12&#45;&gt;Node5 -->
<g id="edge15" class="edge">
<title>Node12&#45;&gt;Node5</title>
<path fill="none" stroke="#191970" d="M1792.6042,-324.3301C1786.2172,-313.0012 1775.3334,-293.6594 1766.0616,-277 1744.5855,-238.4124 1749.0442,-221.469 1718.0616,-190 1705.3921,-177.1316 1688.8327,-166.4406 1673.3772,-158.1964"/>
<polygon fill="#191970" stroke="#191970" points="1674.9395,-155.0643 1664.4426,-153.6272 1671.7522,-161.2966 1674.9395,-155.0643"/>
</g>
<!-- Node13 -->
<g id="node14" class="node">
<title>Node13</title>
<g id="a_node14"><a doxygen="/__w/maliput_documentation/maliput_documentation/maliput_ws/build/maliput_documentation/docs/docs/sphinx/from_doxygen/html/deps/maliput/maliput.tag:../../maliput/html/" xlink:href="../../maliput/html/maliput__throw_8h.html" target="_top" xlink:title="maliput/common/maliput\l_throw.h">
<polygon fill="#ffffff" stroke="#000000" points="1804.0616,-.5 1804.0616,-30.5 1944.0616,-30.5 1944.0616,-.5 1804.0616,-.5"/>
<text text-anchor="start" x="1812.0616" y="-18.5" font-family="Helvetica,sans-Serif" font-size="10.00" fill="#000000">maliput/common/maliput</text>
<text text-anchor="middle" x="1874.0616" y="-7.5" font-family="Helvetica,sans-Serif" font-size="10.00" fill="#000000">_throw.h</text>
</a>
</g>
</g>
<!-- Node12&#45;&gt;Node13 -->
<g id="edge16" class="edge">
<title>Node12&#45;&gt;Node13</title>
<path fill="none" stroke="#191970" d="M1795.8544,-324.3082C1791.0479,-302.3258 1780.0616,-246.9457 1780.0616,-200 1780.0616,-200 1780.0616,-200 1780.0616,-138.5 1780.0616,-95.8762 1816.1377,-58.8578 1843.5912,-36.8583"/>
<polygon fill="#191970" stroke="#191970" points="1846.0144,-39.4089 1851.7849,-30.5234 1841.7328,-33.871 1846.0144,-39.4089"/>
</g>
<!-- Node14 -->
<g id="node15" class="node">
<title>Node14</title>
<g id="a_node15"><a doxygen="/__w/maliput_documentation/maliput_documentation/maliput_ws/build/maliput_documentation/docs/docs/sphinx/from_doxygen/html/deps/maliput/maliput.tag:../../maliput/html/" xlink:href="../../maliput/html/matrix_8h.html" target="_top" xlink:title="maliput/math/matrix.h">
<polygon fill="#ffffff" stroke="#000000" points="1904.5616,-129 1904.5616,-148 2031.5616,-148 2031.5616,-129 1904.5616,-129"/>
<text text-anchor="middle" x="1968.0616" y="-136" font-family="Helvetica,sans-Serif" font-size="10.00" fill="#000000">maliput/math/matrix.h</text>
</a>
</g>
</g>
<!-- Node12&#45;&gt;Node14 -->
<g id="edge17" class="edge">
<title>Node12&#45;&gt;Node14</title>
<path fill="none" stroke="#191970" d="M1834.1878,-324.4696C1889.4154,-309.7694 1989.1148,-282.6621 1995.0616,-277 2024.0271,-249.421 2033.0936,-227.0627 2018.0616,-190 2012.3138,-175.8284 2000.5869,-163.4093 1989.9341,-154.3189"/>
<polygon fill="#191970" stroke="#191970" points="1992.1035,-151.5723 1982.114,-148.0425 1987.722,-157.0314 1992.1035,-151.5723"/>
</g>
<!-- Node15 -->
<g id="node16" class="node">
<title>Node15</title>
<g id="a_node16"><a doxygen="/__w/maliput_documentation/maliput_documentation/maliput_ws/build/maliput_documentation/docs/docs/sphinx/from_doxygen/html/deps/maliput/maliput.tag:../../maliput/html/" xlink:href="../../maliput/html/vector_8h.html" target="_top" xlink:title="maliput/math/vector.h">
<polygon fill="#ffffff" stroke="#000000" points="1905.5616,-67.5 1905.5616,-86.5 2030.5616,-86.5 2030.5616,-67.5 1905.5616,-67.5"/>
<text text-anchor="middle" x="1968.0616" y="-74.5" font-family="Helvetica,sans-Serif" font-size="10.00" fill="#000000">maliput/math/vector.h</text>
</a>
</g>
</g>
<!-- Node12&#45;&gt;Node15 -->
<g id="edge29" class="edge">
<title>Node12&#45;&gt;Node15</title>
<path fill="none" stroke="#191970" d="M1829.0619,-324.4284C1841.4583,-320.7063 1855.8942,-316.5037 1869.0616,-313 1936.1515,-295.1479 1970.887,-324.9819 2021.0616,-277 2071.7893,-228.489 2092.4232,-183.037 2056.0616,-123 2046.879,-107.8386 2030.8768,-97.4355 2015.0144,-90.4143"/>
<polygon fill="#191970" stroke="#191970" points="2016.3262,-87.1695 2005.7436,-86.6607 2013.6992,-93.6579 2016.3262,-87.1695"/>
</g>
<!-- Node16 -->
<g id="node17" class="node">
<title>Node16</title>
<g id="a_node17"><a doxygen="/__w/maliput_documentation/maliput_documentation/maliput_ws/build/maliput_documentation/docs/docs/sphinx/from_doxygen/html/deps/maliput/maliput.tag:../../maliput/html/" xlink:href="../../maliput/html/quaternion_8h.html" target="_top" xlink:title="maliput/math/quaternion.h">
<polygon fill="#ffffff" stroke="#000000" points="1846.5616,-190.5 1846.5616,-209.5 1993.5616,-209.5 1993.5616,-190.5 1846.5616,-190.5"/>
<text text-anchor="middle" x="1920.0616" y="-197.5" font-family="Helvetica,sans-Serif" font-size="10.00" fill="#000000">maliput/math/quaternion.h</text>
</a>
</g>
</g>
<!-- Node12&#45;&gt;Node16 -->
<g id="edge20" class="edge">
<title>Node12&#45;&gt;Node16</title>
<path fill="none" stroke="#191970" d="M1801.46,-324.2613C1807.9128,-306.8673 1823.3545,-270.0353 1846.0616,-246 1858.3328,-233.011 1875.0351,-222.2149 1889.4666,-214.3535"/>
<polygon fill="#191970" stroke="#191970" points="1891.3027,-217.3434 1898.5528,-209.6176 1888.0673,-211.1359 1891.3027,-217.3434"/>
</g>
<!-- Node17 -->
<g id="node18" class="node">
<title>Node17</title>
<g id="a_node18"><a doxygen="/__w/maliput_documentation/maliput_documentation/maliput_ws/build/maliput_documentation/docs/docs/sphinx/from_doxygen/html/deps/maliput/maliput.tag:../../maliput/html/" xlink:href="../../maliput/html/roll__pitch__yaw_8h.html" target="_top" xlink:title="maliput/math/roll_pitch\l_yaw.h">
<polygon fill="#ffffff" stroke="#000000" points="1854.5616,-246.5 1854.5616,-276.5 1985.5616,-276.5 1985.5616,-246.5 1854.5616,-246.5"/>
<text text-anchor="start" x="1862.5616" y="-264.5" font-family="Helvetica,sans-Serif" font-size="10.00" fill="#000000">maliput/math/roll_pitch</text>
<text text-anchor="middle" x="1920.0616" y="-253.5" font-family="Helvetica,sans-Serif" font-size="10.00" fill="#000000">_yaw.h</text>
</a>
</g>
</g>
<!-- Node12&#45;&gt;Node17 -->
<g id="edge24" class="edge">
<title>Node12&#45;&gt;Node17</title>
<path fill="none" stroke="#191970" d="M1814.2622,-324.3726C1832.4242,-313.5796 1862.3947,-295.7693 1885.8091,-281.8549"/>
<polygon fill="#191970" stroke="#191970" points="1887.6151,-284.8532 1894.4236,-276.7357 1884.039,-278.8355 1887.6151,-284.8532"/>
</g>
<!-- Node14&#45;&gt;Node15 -->
<g id="edge18" class="edge">
<title>Node14&#45;&gt;Node15</title>
<path fill="none" stroke="#191970" d="M1968.0616,-128.8906C1968.0616,-120.3657 1968.0616,-107.6392 1968.0616,-96.9235"/>
<polygon fill="#191970" stroke="#191970" points="1971.5617,-96.7448 1968.0616,-86.7449 1964.5617,-96.7449 1971.5617,-96.7448"/>
</g>
<!-- Node15&#45;&gt;Node13 -->
<g id="edge19" class="edge">
<title>Node15&#45;&gt;Node13</title>
<path fill="none" stroke="#191970" d="M1953.3741,-67.3906C1940.6523,-59.0673 1921.8088,-46.7389 1905.681,-36.1872"/>
<polygon fill="#191970" stroke="#191970" points="1907.3409,-33.0907 1897.0566,-30.5446 1903.5085,-38.9484 1907.3409,-33.0907"/>
</g>
<!-- Node16&#45;&gt;Node5 -->
<g id="edge21" class="edge">
<title>Node16&#45;&gt;Node5</title>
<path fill="none" stroke="#191970" d="M1874.757,-190.4581C1830.3452,-181.1043 1761.6961,-166.6456 1708.0806,-155.3533"/>
<polygon fill="#191970" stroke="#191970" points="1708.7602,-151.9197 1698.2535,-153.2836 1707.3175,-158.7695 1708.7602,-151.9197"/>
</g>
<!-- Node16&#45;&gt;Node14 -->
<g id="edge22" class="edge">
<title>Node16&#45;&gt;Node14</title>
<path fill="none" stroke="#191970" d="M1927.5616,-190.3906C1934.6354,-181.3273 1945.4158,-167.5149 1954.0762,-156.4188"/>
<polygon fill="#191970" stroke="#191970" points="1957.0622,-158.2815 1960.4558,-148.2449 1951.544,-153.9746 1957.0622,-158.2815"/>
</g>
<!-- Node16&#45;&gt;Node15 -->
<g id="edge23" class="edge">
<title>Node16&#45;&gt;Node15</title>
<path fill="none" stroke="#191970" d="M1912.3169,-190.2695C1901.3048,-175.164 1883.7511,-145.4735 1896.0616,-123 1903.8203,-108.836 1918.0025,-98.3995 1931.7411,-91.0818"/>
<polygon fill="#191970" stroke="#191970" points="1933.6514,-94.0438 1941.0972,-86.5066 1930.5762,-87.7555 1933.6514,-94.0438"/>
</g>
<!-- Node17&#45;&gt;Node5 -->
<g id="edge25" class="edge">
<title>Node17&#45;&gt;Node5</title>
<path fill="none" stroke="#191970" d="M1886.2607,-246.427C1853.1863,-231.7578 1801.3236,-208.9674 1756.0616,-190 1729.5373,-178.8848 1699.7382,-166.8678 1675.5701,-157.2397"/>
<polygon fill="#191970" stroke="#191970" points="1676.8498,-153.9821 1666.2642,-153.5395 1674.2634,-160.4867 1676.8498,-153.9821"/>
</g>
<!-- Node17&#45;&gt;Node14 -->
<g id="edge26" class="edge">
<title>Node17&#45;&gt;Node14</title>
<path fill="none" stroke="#191970" d="M1960.9723,-246.4816C1977.0899,-238.3159 1993.9097,-226.4491 2003.0616,-210 2013.1534,-191.8616 1999.3577,-170.3967 1986.2293,-155.7513"/>
<polygon fill="#191970" stroke="#191970" points="1988.6083,-153.1754 1979.1603,-148.3811 1983.5564,-158.0209 1988.6083,-153.1754"/>
</g>
<!-- Node17&#45;&gt;Node15 -->
<g id="edge28" class="edge">
<title>Node17&#45;&gt;Node15</title>
<path fill="none" stroke="#191970" d="M1963.9519,-246.2807C1982.6364,-237.9797 2003.4437,-226.0631 2018.0616,-210 2036.171,-190.1002 2035.8519,-180.3972 2041.0616,-154 2043.7293,-140.483 2047.7184,-135.0629 2041.0616,-123 2033.1652,-108.6908 2018.7405,-98.2233 2004.7862,-90.9219"/>
<polygon fill="#191970" stroke="#191970" points="2006.2856,-87.7593 1995.7575,-86.5725 2003.2476,-94.0657 2006.2856,-87.7593"/>
</g>
<!-- Node17&#45;&gt;Node16 -->
<g id="edge27" class="edge">
<title>Node17&#45;&gt;Node16</title>
<path fill="none" stroke="#191970" d="M1920.0616,-246.2977C1920.0616,-238.3834 1920.0616,-228.6043 1920.0616,-220.0759"/>
<polygon fill="#191970" stroke="#191970" points="1923.5617,-219.8469 1920.0616,-209.8469 1916.5617,-219.847 1923.5617,-219.8469"/>
</g>
<!-- Node19&#45;&gt;Node2 -->
<g id="edge33" class="edge">
<title>Node19&#45;&gt;Node2</title>
<path fill="none" stroke="#191970" d="M1606.579,-458.483C1630.975,-450.319 1665.6682,-437.4441 1694.0616,-422 1714.7578,-410.7427 1715.763,-401.0713 1737.0616,-391 1793.5869,-364.2713 1813.109,-372.7545 1873.0616,-355 1930.4702,-337.9989 1943.4718,-329.3771 2001.0616,-313 2066.5911,-294.365 2085.2268,-297.9244 2150.0616,-277 2152.2102,-276.3066 2154.4091,-275.5473 2156.6129,-274.7492"/>
<polygon fill="#191970" stroke="#191970" points="2158.0829,-277.934 2166.1658,-271.0844 2155.5756,-271.3985 2158.0829,-277.934"/>
</g>
<!-- Node19&#45;&gt;Node3 -->
<g id="edge34" class="edge">
<title>Node19&#45;&gt;Node3</title>
<path fill="none" stroke="#191970" d="M1565.273,-458.3302C1547.5645,-442.7819 1510.8193,-411.8587 1476.0616,-391 1446.6717,-373.3626 1410.8766,-357.6704 1384.9601,-347.2388"/>
<polygon fill="#191970" stroke="#191970" points="1386.131,-343.938 1375.545,-343.5053 1383.5506,-350.4451 1386.131,-343.938"/>
</g>
<!-- Node19&#45;&gt;Node5 -->
<g id="edge41" class="edge">
<title>Node19&#45;&gt;Node5</title>
<path fill="none" stroke="#191970" d="M1611.6213,-458.3459C1629.808,-451.4075 1650.3252,-440.0179 1661.0616,-422 1676.4412,-396.1895 1657.3723,-384.5722 1652.0616,-355 1639.7236,-286.2974 1632.7008,-204.1176 1629.7424,-163.6097"/>
<polygon fill="#191970" stroke="#191970" points="1633.2286,-163.2888 1629.0303,-153.5613 1626.2461,-163.7837 1633.2286,-163.2888"/>
</g>
<!-- Node19&#45;&gt;Node9 -->
<g id="edge37" class="edge">
<title>Node19&#45;&gt;Node9</title>
<path fill="none" stroke="#191970" d="M1613.0263,-458.4434C1644.8918,-449.8872 1691.9611,-436.486 1732.0616,-422 1733.8855,-421.3411 1735.7496,-420.6368 1737.6222,-419.9054"/>
<polygon fill="#191970" stroke="#191970" points="1738.9792,-423.1318 1746.9102,-416.1069 1736.3294,-416.6527 1738.9792,-423.1318"/>
</g>
<!-- Node19&#45;&gt;Node11 -->
<g id="edge39" class="edge">
<title>Node19&#45;&gt;Node11</title>
<path fill="none" stroke="#191970" d="M1544.1866,-458.3906C1506.434,-447.0093 1443.8403,-428.1392 1405.4416,-416.5631"/>
<polygon fill="#191970" stroke="#191970" points="1406.3468,-413.1805 1395.7622,-413.645 1404.3263,-419.8825 1406.3468,-413.1805"/>
</g>
<!-- Node19&#45;&gt;Node18 -->
<g id="edge40" class="edge">
<title>Node19&#45;&gt;Node18</title>
<path fill="none" stroke="#191970" d="M1526.5783,-458.426C1480.7826,-449.5586 1410.5174,-435.936 1340.1924,-422.2187"/>
<polygon fill="#191970" stroke="#191970" points="1340.7566,-418.7629 1330.2714,-420.283 1339.416,-425.6333 1340.7566,-418.7629"/>
</g>
<!-- Node20 -->
<g id="node21" class="node">
<title>Node20</title>
<polygon fill="#ffffff" stroke="#bfbfbf" points="1040.0616,-397 1040.0616,-416 1096.0616,-416 1096.0616,-397 1040.0616,-397"/>
<text text-anchor="middle" x="1068.0616" y="-404" font-family="Helvetica,sans-Serif" font-size="10.00" fill="#000000">optional</text>
</g>
<!-- Node19&#45;&gt;Node20 -->
<g id="edge35" class="edge">
<title>Node19&#45;&gt;Node20</title>
<path fill="none" stroke="#191970" d="M1490.4723,-458.5419C1410.4237,-449.5754 1287.5658,-435.5046 1181.0616,-422 1156.2451,-418.8533 1128.4041,-415.0378 1106.5667,-411.9798"/>
<polygon fill="#191970" stroke="#191970" points="1106.7584,-408.4724 1096.3684,-410.5457 1105.7836,-415.4042 1106.7584,-408.4724"/>
</g>
<!-- Node21 -->
<g id="node22" class="node">
<title>Node21</title>
<polygon fill="#ffffff" stroke="#bfbfbf" points="1029.5616,-252 1029.5616,-271 1086.5616,-271 1086.5616,-252 1029.5616,-252"/>
<text text-anchor="middle" x="1058.0616" y="-259" font-family="Helvetica,sans-Serif" font-size="10.00" fill="#000000">ostream</text>
</g>
<!-- Node19&#45;&gt;Node21 -->
<g id="edge36" class="edge">
<title>Node19&#45;&gt;Node21</title>
<path fill="none" stroke="#191970" d="M1569.4309,-458.155C1558.6569,-442.6335 1536.1199,-412.0759 1512.0616,-391 1463.0881,-348.0976 1449.0379,-335.8232 1388.0616,-313 1335.2229,-293.2227 1172.0335,-273.7549 1096.7898,-265.5538"/>
<polygon fill="#191970" stroke="#191970" points="1097.0949,-262.0665 1086.7769,-264.4725 1096.3433,-269.026 1097.0949,-262.0665"/>
</g>
<!-- Node22 -->
<g id="node23" class="node">
<title>Node22</title>
<polygon fill="#ffffff" stroke="#bfbfbf" points="1566.0616,-397 1566.0616,-416 1652.0616,-416 1652.0616,-397 1566.0616,-397"/>
<text text-anchor="middle" x="1609.0616" y="-404" font-family="Helvetica,sans-Serif" font-size="10.00" fill="#000000">unordered_set</text>
</g>
<!-- Node19&#45;&gt;Node22 -->
<g id="edge38" class="edge">
<title>Node19&#45;&gt;Node22</title>
<path fill="none" stroke="#191970" d="M1581.2178,-458.3906C1585.9848,-449.5068 1593.2001,-436.0601 1599.0912,-425.0811"/>
<polygon fill="#191970" stroke="#191970" points="1602.1885,-426.7114 1603.8326,-416.2449 1596.0203,-423.4016 1602.1885,-426.7114"/>
</g>
<!-- Node19&#45;&gt;Node23 -->
<g id="edge42" class="edge">
<title>Node19&#45;&gt;Node23</title>
<path fill="none" stroke="#191970" d="M1490.121,-461.2294C1382.6924,-452.6546 1193.201,-437.1631 1031.0616,-422 1006.6105,-419.7134 979.9521,-417.0376 955.9333,-414.5591"/>
<polygon fill="#191970" stroke="#191970" points="956.1227,-411.06 945.8152,-413.5106 955.4012,-418.0227 956.1227,-411.06"/>
</g>
<!-- Node23&#45;&gt;Node3 -->
<g id="edge44" class="edge">
<title>Node23&#45;&gt;Node3</title>
<path fill="none" stroke="#191970" d="M945.6746,-397.8646C1055.522,-383.4005 1265.1177,-355.7693 1269.0616,-355 1282.9237,-352.2959 1297.9389,-348.6171 1311.2322,-345.0938"/>
<polygon fill="#191970" stroke="#191970" points="1312.2748,-348.4376 1321.0145,-342.4486 1310.4475,-341.6803 1312.2748,-348.4376"/>
</g>
<!-- Node23&#45;&gt;Node5 -->
<g id="edge52" class="edge">
<title>Node23&#45;&gt;Node5</title>
<path fill="none" stroke="#191970" d="M945.9257,-393.4076C950.7036,-392.5596 955.4532,-391.7474 960.0616,-391 1020.8993,-381.1337 1188.7333,-395.6479 1235.0616,-355 1292.1115,-304.945 1222.4224,-240.5194 1279.0616,-190 1298.8162,-172.3799 1451.0532,-155.0713 1547.8275,-145.6892"/>
<polygon fill="#191970" stroke="#191970" points="1548.2655,-149.1633 1557.8851,-144.7232 1547.5962,-142.1954 1548.2655,-149.1633"/>
</g>
<!-- Node23&#45;&gt;Node12 -->
<g id="edge51" class="edge">
<title>Node23&#45;&gt;Node12</title>
<path fill="none" stroke="#191970" d="M945.8022,-399.3461C972.2755,-396.5712 1003.1048,-393.4732 1031.0616,-391 1283.7696,-368.6443 1583.8487,-348.0755 1721.7887,-338.9552"/>
<polygon fill="#191970" stroke="#191970" points="1722.0888,-342.4431 1731.8367,-338.2921 1721.6279,-335.4583 1722.0888,-342.4431"/>
</g>
<!-- Node24 -->
<g id="node25" class="node">
<title>Node24</title>
<polygon fill="#ffffff" stroke="#bfbfbf" points="206.5616,-324.5 206.5616,-343.5 271.5616,-343.5 271.5616,-324.5 206.5616,-324.5"/>
<text text-anchor="middle" x="239.0616" y="-331.5" font-family="Helvetica,sans-Serif" font-size="10.00" fill="#000000">functional</text>
</g>
<!-- Node23&#45;&gt;Node24 -->
<g id="edge43" class="edge">
<title>Node23&#45;&gt;Node24</title>
<path fill="none" stroke="#191970" d="M814.295,-392.4095C811.1796,-391.8991 808.09,-391.4252 805.0616,-391 594.0846,-361.3796 537.563,-387.8298 327.0616,-355 312.2008,-352.6823 296.1448,-349.1603 281.8671,-345.6591"/>
<polygon fill="#191970" stroke="#191970" points="282.3794,-342.1789 271.8274,-343.131 280.67,-348.967 282.3794,-342.1789"/>
</g>
<!-- Node25 -->
<g id="node26" class="node">
<title>Node25</title>
<polygon fill="#ffffff" stroke="#bfbfbf" points="336.5616,-324.5 336.5616,-343.5 381.5616,-343.5 381.5616,-324.5 336.5616,-324.5"/>
<text text-anchor="middle" x="359.0616" y="-331.5" font-family="Helvetica,sans-Serif" font-size="10.00" fill="#000000">utility</text>
</g>
<!-- Node23&#45;&gt;Node25 -->
<g id="edge45" class="edge">
<title>Node23&#45;&gt;Node25</title>
<path fill="none" stroke="#191970" d="M814.2867,-392.4669C811.1735,-391.9411 808.0866,-391.4483 805.0616,-391 629.8069,-365.0298 579.8242,-398.4307 408.0616,-355 401.0683,-353.2317 393.7916,-350.5937 387.0521,-347.7795"/>
<polygon fill="#191970" stroke="#191970" points="388.2182,-344.4678 377.6581,-343.6109 385.3789,-350.8662 388.2182,-344.4678"/>
</g>
<!-- Node26 -->
<g id="node27" class="node">
<title>Node26</title>
<polygon fill="#ffffff" stroke="#bfbfbf" points="1149.5616,-324.5 1149.5616,-343.5 1226.5616,-343.5 1226.5616,-324.5 1149.5616,-324.5"/>
<text text-anchor="middle" x="1188.0616" y="-331.5" font-family="Helvetica,sans-Serif" font-size="10.00" fill="#000000">Eigen/Dense</text>
</g>
<!-- Node23&#45;&gt;Node26 -->
<g id="edge46" class="edge">
<title>Node23&#45;&gt;Node26</title>
<path fill="none" stroke="#191970" d="M945.7973,-393.6595C1021.2725,-378.8902 1135.376,-356.4699 1140.0616,-355 1146.4406,-352.9989 1153.1134,-350.4158 1159.3854,-347.7498"/>
<polygon fill="#191970" stroke="#191970" points="1161.0928,-350.8213 1168.8118,-343.564 1158.2519,-344.4237 1161.0928,-350.8213"/>
</g>
<!-- Node27 -->
<g id="node28" class="node">
<title>Node27</title>
<polygon fill="#ffffff" stroke="#bfbfbf" points="569.0616,-319 569.0616,-349 689.0616,-349 689.0616,-319 569.0616,-319"/>
<text text-anchor="start" x="577.0616" y="-337" font-family="Helvetica,sans-Serif" font-size="10.00" fill="#000000">drake/common/eigen</text>
<text text-anchor="middle" x="629.0616" y="-326" font-family="Helvetica,sans-Serif" font-size="10.00" fill="#000000">_types.h</text>
</g>
<!-- Node23&#45;&gt;Node27 -->
<g id="edge47" class="edge">
<title>Node23&#45;&gt;Node27</title>
<path fill="none" stroke="#191970" d="M825.8279,-391.4547C789.5991,-381.3303 740.912,-367.582 698.0616,-355 694.7163,-354.0177 691.2825,-353.0007 687.8189,-351.9681"/>
<polygon fill="#191970" stroke="#191970" points="688.612,-348.5521 678.0281,-349.0328 686.6017,-355.2572 688.612,-348.5521"/>
</g>
<!-- Node28 -->
<g id="node29" class="node">
<title>Node28</title>
<polygon fill="#ffffff" stroke="#bfbfbf" points="707.0616,-319 707.0616,-349 821.0616,-349 821.0616,-319 707.0616,-319"/>
<text text-anchor="start" x="715.0616" y="-337" font-family="Helvetica,sans-Serif" font-size="10.00" fill="#000000">drake/math/rotation</text>
<text text-anchor="middle" x="764.0616" y="-326" font-family="Helvetica,sans-Serif" font-size="10.00" fill="#000000">_matrix.h</text>
</g>
<!-- Node23&#45;&gt;Node28 -->
<g id="edge48" class="edge">
<title>Node23&#45;&gt;Node28</title>
<path fill="none" stroke="#191970" d="M856.0263,-391.478C838.8397,-380.7363 815.5097,-366.1551 796.6487,-354.367"/>
<polygon fill="#191970" stroke="#191970" points="798.4011,-351.3348 788.0661,-349.0028 794.691,-357.2708 798.4011,-351.3348"/>
</g>
<!-- Node29 -->
<g id="node30" class="node">
<title>Node29</title>
<polygon fill="#ffffff" stroke="#bfbfbf" points="839.0616,-319 839.0616,-349 981.0616,-349 981.0616,-319 839.0616,-319"/>
<text text-anchor="start" x="847.0616" y="-337" font-family="Helvetica,sans-Serif" font-size="10.00" fill="#000000">drake/systems/analysis</text>
<text text-anchor="middle" x="910.0616" y="-326" font-family="Helvetica,sans-Serif" font-size="10.00" fill="#000000">/antiderivative_function.h</text>
</g>
<!-- Node23&#45;&gt;Node29 -->
<g id="edge49" class="edge">
<title>Node23&#45;&gt;Node29</title>
<path fill="none" stroke="#191970" d="M886.2776,-391.478C890.2196,-381.9514 895.4113,-369.4049 899.9381,-358.4651"/>
<polygon fill="#191970" stroke="#191970" points="903.264,-359.5812 903.8535,-349.0028 896.7959,-356.9047 903.264,-359.5812"/>
</g>
<!-- Node30 -->
<g id="node31" class="node">
<title>Node30</title>
<polygon fill="#ffffff" stroke="#bfbfbf" points="999.0616,-313.5 999.0616,-354.5 1131.0616,-354.5 1131.0616,-313.5 999.0616,-313.5"/>
<text text-anchor="start" x="1007.0616" y="-342.5" font-family="Helvetica,sans-Serif" font-size="10.00" fill="#000000">drake/systems/analysis</text>
<text text-anchor="start" x="1007.0616" y="-331.5" font-family="Helvetica,sans-Serif" font-size="10.00" fill="#000000">/scalar_initial_value</text>
<text text-anchor="middle" x="1065.0616" y="-320.5" font-family="Helvetica,sans-Serif" font-size="10.00" fill="#000000">_problem.h</text>
</g>
<!-- Node23&#45;&gt;Node30 -->
<g id="edge50" class="edge">
<title>Node23&#45;&gt;Node30</title>
<path fill="none" stroke="#191970" d="M918.3937,-391.478C942.926,-381.864 975.3068,-369.1742 1003.4015,-358.1641"/>
<polygon fill="#191970" stroke="#191970" points="1004.7139,-361.409 1012.7474,-354.5015 1002.1597,-354.8916 1004.7139,-361.409"/>
</g>
<!-- Node31 -->
<g id="node32" class="node">
<title>Node31</title>
<g id="a_node32"><a xlink:href="cubic__polynomial_8h.html" target="_top" xlink:title="maliput_multilane/cubic\l_polynomial.h">
<polygon fill="#ffffff" stroke="#000000" points="417.0616,-319 417.0616,-349 551.0616,-349 551.0616,-319 417.0616,-319"/>
<text text-anchor="start" x="425.0616" y="-337" font-family="Helvetica,sans-Serif" font-size="10.00" fill="#000000">maliput_multilane/cubic</text>
<text text-anchor="middle" x="484.0616" y="-326" font-family="Helvetica,sans-Serif" font-size="10.00" fill="#000000">_polynomial.h</text>
</a>
</g>
</g>
<!-- Node23&#45;&gt;Node31 -->
<g id="edge53" class="edge">
<title>Node23&#45;&gt;Node31</title>
<path fill="none" stroke="#191970" d="M814.2529,-392.6749C811.1488,-392.0935 808.073,-391.532 805.0616,-391 696.6815,-371.8547 667.7534,-377.6996 560.0616,-355 555.1642,-353.9677 550.1155,-352.8019 545.0585,-351.5618"/>
<polygon fill="#191970" stroke="#191970" points="545.9148,-348.1683 535.3611,-349.1011 544.193,-354.9532 545.9148,-348.1683"/>
</g>
<!-- Node31&#45;&gt;Node2 -->
<g id="edge54" class="edge">
<title>Node31&#45;&gt;Node2</title>
<path fill="none" stroke="#191970" d="M531.5185,-318.974C540.8909,-316.5513 550.7186,-314.3866 560.0616,-313 875.5948,-266.1714 1676.5137,-293.7744 1995.0616,-277 2050.9056,-274.0593 2115.6728,-268.395 2154.1833,-264.7888"/>
<polygon fill="#191970" stroke="#191970" points="2154.6937,-268.2562 2164.3197,-263.8302 2154.0346,-261.2873 2154.6937,-268.2562"/>
</g>
<!-- Node31&#45;&gt;Node5 -->
<g id="edge56" class="edge">
<title>Node31&#45;&gt;Node5</title>
<path fill="none" stroke="#191970" d="M536.2339,-318.9124C544.1862,-316.8077 552.3206,-314.7647 560.0616,-313 859.932,-244.6385 937.2084,-237.6318 1241.0616,-190 1346.8014,-173.4243 1469.3415,-157.7025 1547.7231,-148.088"/>
<polygon fill="#191970" stroke="#191970" points="1548.5068,-151.5183 1558.008,-146.8304 1547.6571,-144.5701 1548.5068,-151.5183"/>
</g>
<!-- Node31&#45;&gt;Node21 -->
<g id="edge55" class="edge">
<title>Node31&#45;&gt;Node21</title>
<path fill="none" stroke="#191970" d="M534.0683,-318.9134C542.6805,-316.6806 551.5868,-314.5975 560.0616,-313 729.4141,-281.0763 935.1616,-267.7102 1019.3448,-263.3054"/>
<polygon fill="#191970" stroke="#191970" points="1019.6583,-266.794 1029.4668,-262.7886 1019.3013,-259.8031 1019.6583,-266.794"/>
</g>
<!-- Node32 -->
<g id="node33" class="node">
<title>Node32</title>
<g id="a_node33"><a doxygen="/__w/maliput_documentation/maliput_documentation/maliput_ws/build/maliput_documentation/docs/docs/sphinx/from_doxygen/html/deps/maliput/maliput.tag:../../maliput/html/" xlink:href="../../maliput/html/maliput__unused_8h.html" target="_top" xlink:title="maliput/common/maliput\l_unused.h">
<polygon fill="#ffffff" stroke="#000000" points="414.0616,-246.5 414.0616,-276.5 554.0616,-276.5 554.0616,-246.5 414.0616,-246.5"/>
<text text-anchor="start" x="422.0616" y="-264.5" font-family="Helvetica,sans-Serif" font-size="10.00" fill="#000000">maliput/common/maliput</text>
<text text-anchor="middle" x="484.0616" y="-253.5" font-family="Helvetica,sans-Serif" font-size="10.00" fill="#000000">_unused.h</text>
</a>
</g>
</g>
<!-- Node31&#45;&gt;Node32 -->
<g id="edge57" class="edge">
<title>Node31&#45;&gt;Node32</title>
<path fill="none" stroke="#191970" d="M484.0616,-318.978C484.0616,-309.6459 484.0616,-297.4157 484.0616,-286.6368"/>
<polygon fill="#191970" stroke="#191970" points="487.5617,-286.5028 484.0616,-276.5028 480.5617,-286.5028 487.5617,-286.5028"/>
</g>
<!-- Node33&#45;&gt;Node3 -->
<g id="edge60" class="edge">
<title>Node33&#45;&gt;Node3</title>
<path fill="none" stroke="#191970" d="M939.2362,-570.4975C972.9934,-546.1105 1065.2672,-479.2057 1141.0616,-422 1159.0139,-408.4505 1160.9965,-401.1622 1181.0616,-391 1233.0188,-364.6856 1252.6845,-375.8598 1307.0616,-355 1312.3944,-352.9543 1317.9641,-350.4928 1323.2589,-347.9863"/>
<polygon fill="#191970" stroke="#191970" points="1324.9486,-351.0559 1332.3821,-343.5064 1321.8631,-344.7726 1324.9486,-351.0559"/>
</g>
<!-- Node33&#45;&gt;Node4 -->
<g id="edge63" class="edge">
<title>Node33&#45;&gt;Node4</title>
<path fill="none" stroke="#191970" d="M1004.747,-571.742C1048.3193,-565.2103 1102.683,-553.7636 1148.0616,-534 1176.6079,-521.5673 1205.1782,-499.5023 1222.97,-484.3315"/>
<polygon fill="#191970" stroke="#191970" points="1225.5551,-486.721 1230.7909,-477.5103 1220.954,-481.4456 1225.5551,-486.721"/>
</g>
<!-- Node33&#45;&gt;Node5 -->
<g id="edge65" class="edge">
<title>Node33&#45;&gt;Node5</title>
<path fill="none" stroke="#191970" d="M847.5094,-578.5772C699.9119,-575.2129 386.7073,-564.6056 283.0616,-534 224.6857,-516.7622 163.0616,-528.8678 163.0616,-468 163.0616,-468 163.0616,-468 163.0616,-261.5 163.0616,-191.4282 1241.3693,-151.0563 1547.7567,-140.9994"/>
<polygon fill="#191970" stroke="#191970" points="1548.0147,-144.493 1557.8951,-140.6685 1547.7862,-137.4967 1548.0147,-144.493"/>
</g>
<!-- Node33&#45;&gt;Node11 -->
<g id="edge61" class="edge">
<title>Node33&#45;&gt;Node11</title>
<path fill="none" stroke="#191970" d="M974.6661,-570.4655C1004.1999,-563.3034 1041.8985,-551.6485 1072.0616,-534 1114.6695,-509.07 1109.1022,-480.4613 1153.0616,-458 1228.0416,-419.6886 1259.0076,-448.0987 1339.0616,-422 1340.9121,-421.3967 1342.7942,-420.7147 1344.6735,-419.9816"/>
<polygon fill="#191970" stroke="#191970" points="1346.0855,-423.1844 1353.8891,-416.0182 1343.3198,-416.7539 1346.0855,-423.1844"/>
</g>
<!-- Node33&#45;&gt;Node23 -->
<g id="edge66" class="edge">
<title>Node33&#45;&gt;Node23</title>
<path fill="none" stroke="#191970" d="M936.3206,-570.0744C948.0537,-557.465 964.8233,-534.8328 958.0616,-514 947.3153,-480.8911 922.1196,-449.4486 903.2528,-429.2204"/>
<polygon fill="#191970" stroke="#191970" points="905.5686,-426.5784 896.1226,-421.7801 900.5146,-431.4217 905.5686,-426.5784"/>
</g>
<!-- Node33&#45;&gt;Node24 -->
<g id="edge59" class="edge">
<title>Node33&#45;&gt;Node24</title>
<path fill="none" stroke="#191970" d="M847.3522,-577.1317C714.6435,-571.7007 452.1311,-558.2333 363.0616,-534 307.8208,-518.9705 278.8302,-525.6255 247.0616,-478 221.8047,-440.1364 228.3824,-383.44 234.3197,-353.7466"/>
<polygon fill="#191970" stroke="#191970" points="237.7812,-354.3006 236.4962,-343.784 230.9425,-352.8066 237.7812,-354.3006"/>
</g>
<!-- Node34 -->
<g id="node35" class="node">
<title>Node34</title>
<polygon fill="#ffffff" stroke="#bfbfbf" points="267.5616,-458.5 267.5616,-477.5 390.5616,-477.5 390.5616,-458.5 267.5616,-458.5"/>
<text text-anchor="middle" x="329.0616" y="-465.5" font-family="Helvetica,sans-Serif" font-size="10.00" fill="#000000">maliput/api/junction.h</text>
</g>
<!-- Node33&#45;&gt;Node34 -->
<g id="edge62" class="edge">
<title>Node33&#45;&gt;Node34</title>
<path fill="none" stroke="#191970" d="M894.0967,-570.4556C864.2279,-561.4289 818.4537,-547.3179 779.0616,-534 754.4213,-525.6695 749.3837,-519.9443 724.0616,-514 585.1597,-481.3929 546.6857,-495.3072 405.0616,-478 403.7612,-477.8411 402.4485,-477.6796 401.1263,-477.516"/>
<polygon fill="#191970" stroke="#191970" points="401.2092,-473.9991 390.8513,-476.2271 400.3379,-480.9446 401.2092,-473.9991"/>
</g>
<!-- Node35 -->
<g id="node36" class="node">
<title>Node35</title>
<polygon fill="#ffffff" stroke="#bfbfbf" points="343.5616,-397 343.5616,-416 470.5616,-416 470.5616,-397 343.5616,-397"/>
<text text-anchor="middle" x="407.0616" y="-404" font-family="Helvetica,sans-Serif" font-size="10.00" fill="#000000">maliput/api/segment.h</text>
</g>
<!-- Node33&#45;&gt;Node35 -->
<g id="edge64" class="edge">
<title>Node33&#45;&gt;Node35</title>
<path fill="none" stroke="#191970" d="M847.432,-573.6936C679.1246,-559.3979 296.1136,-522.3034 258.0616,-478 230.6768,-446.1164 283.4167,-427.3103 333.5522,-417.0549"/>
<polygon fill="#191970" stroke="#191970" points="334.372,-420.4611 343.52,-415.1165 333.0358,-413.5899 334.372,-420.4611"/>
</g>
<!-- Node36 -->
<g id="node37" class="node">
<title>Node36</title>
<g id="a_node37"><a xlink:href="segment_8h.html" target="_top" xlink:title="maliput_multilane/segment.h">
<polygon fill="#ffffff" stroke="#000000" points="788.5616,-514.5 788.5616,-533.5 949.5616,-533.5 949.5616,-514.5 788.5616,-514.5"/>
<text text-anchor="middle" x="869.0616" y="-521.5" font-family="Helvetica,sans-Serif" font-size="10.00" fill="#000000">maliput_multilane/segment.h</text>
</a>
</g>
</g>
<!-- Node33&#45;&gt;Node36 -->
<g id="edge67" class="edge">
<title>Node33&#45;&gt;Node36</title>
<path fill="none" stroke="#191970" d="M916.1329,-570.2455C907.8778,-562.1352 895.9406,-550.4075 886.1533,-540.7919"/>
<polygon fill="#191970" stroke="#191970" points="888.4627,-538.1542 878.8764,-533.6427 883.5569,-543.1476 888.4627,-538.1542"/>
</g>
<!-- Node36&#45;&gt;Node3 -->
<g id="edge69" class="edge">
<title>Node36&#45;&gt;Node3</title>
<path fill="none" stroke="#191970" d="M889.0927,-514.4949C916.9383,-501.3707 969.0071,-477.1513 1014.0616,-458 1054.0897,-440.9853 1066.9058,-442.878 1105.0616,-422 1125.7296,-410.6909 1126.5846,-400.6851 1148.0616,-391 1214.1115,-361.2144 1238.7173,-379.0592 1307.0616,-355 1312.5472,-353.0689 1318.2479,-350.6237 1323.6359,-348.09"/>
<polygon fill="#191970" stroke="#191970" points="1325.4648,-351.0905 1332.8826,-343.5256 1322.3663,-344.8136 1325.4648,-351.0905"/>
</g>
<!-- Node36&#45;&gt;Node4 -->
<g id="edge74" class="edge">
<title>Node36&#45;&gt;Node4</title>
<path fill="none" stroke="#191970" d="M932.588,-514.4369C997.7241,-504.6314 1098.9331,-489.3957 1167.5043,-479.0731"/>
<polygon fill="#191970" stroke="#191970" points="1168.4296,-482.4734 1177.7972,-477.5237 1167.3876,-475.5514 1168.4296,-482.4734"/>
</g>
<!-- Node36&#45;&gt;Node5 -->
<g id="edge77" class="edge">
<title>Node36&#45;&gt;Node5</title>
<path fill="none" stroke="#191970" d="M949.7946,-522.9536C1124.9742,-520.0996 1535.0569,-510.104 1670.0616,-478 1730.8685,-463.5402 1764.7764,-474.2599 1799.0616,-422 1846.8658,-349.1335 1708.6616,-374.8314 1690.0616,-355 1638.2187,-299.725 1669.7599,-262.3035 1647.0616,-190 1644.3017,-181.2087 1640.9163,-171.7118 1637.7715,-163.2963"/>
<polygon fill="#191970" stroke="#191970" points="1640.9424,-161.7879 1634.1132,-153.6878 1634.4005,-164.2787 1640.9424,-161.7879"/>
</g>
<!-- Node36&#45;&gt;Node11 -->
<g id="edge71" class="edge">
<title>Node36&#45;&gt;Node11</title>
<path fill="none" stroke="#191970" d="M915.9368,-514.4767C955.6777,-506.0381 1014.0257,-492.7867 1064.0616,-478 1089.4066,-470.51 1094.4742,-464.6147 1120.0616,-458 1215.5617,-433.3119 1244.8573,-451.2461 1339.0616,-422 1340.9204,-421.4229 1342.8088,-420.7608 1344.6929,-420.0425"/>
<polygon fill="#191970" stroke="#191970" points="1346.0895,-423.252 1353.9199,-416.1151 1343.348,-416.8111 1346.0895,-423.252"/>
</g>
<!-- Node36&#45;&gt;Node18 -->
<g id="edge76" class="edge">
<title>Node36&#45;&gt;Node18</title>
<path fill="none" stroke="#191970" d="M899.3412,-514.4207C940.5918,-501.4157 1016.7911,-477.5526 1082.0616,-458 1120.2075,-446.5729 1163.0797,-434.156 1197.1895,-424.378"/>
<polygon fill="#191970" stroke="#191970" points="1198.3712,-427.6804 1207.0216,-421.563 1196.4444,-420.9507 1198.3712,-427.6804"/>
</g>
<!-- Node36&#45;&gt;Node23 -->
<g id="edge90" class="edge">
<title>Node36&#45;&gt;Node23</title>
<path fill="none" stroke="#191970" d="M873.7465,-514.4115C877.9218,-505.2959 883.723,-491.0744 886.0616,-478 888.7788,-462.8092 887.4611,-445.577 885.3774,-431.8365"/>
<polygon fill="#191970" stroke="#191970" points="888.7706,-430.921 883.6045,-421.6711 881.8747,-432.1238 888.7706,-430.921"/>
</g>
<!-- Node36&#45;&gt;Node24 -->
<g id="edge68" class="edge">
<title>Node36&#45;&gt;Node24</title>
<path fill="none" stroke="#191970" d="M788.4805,-515.9331C664.7861,-503.4894 441.4086,-480.7515 433.0616,-478 416.4112,-472.5114 414.7225,-465.88 399.0616,-458 362.413,-439.5598 347.1441,-446.2633 314.0616,-422 287.4924,-402.5136 264.1613,-371.8384 250.8387,-352.3332"/>
<polygon fill="#191970" stroke="#191970" points="253.5844,-350.1415 245.1321,-343.7533 247.7559,-354.0181 253.5844,-350.1415"/>
</g>
<!-- Node36&#45;&gt;Node25 -->
<g id="edge70" class="edge">
<title>Node36&#45;&gt;Node25</title>
<path fill="none" stroke="#191970" d="M788.2583,-516.0603C681.4856,-505.3421 503.4217,-486.5983 474.0616,-478 454.6041,-472.3018 451.8516,-465.6156 433.0616,-458 385.3879,-438.678 353.2533,-463.6484 323.0616,-422 307.1112,-399.997 326.5659,-369.8986 342.4838,-351.2176"/>
<polygon fill="#191970" stroke="#191970" points="345.1211,-353.5191 349.192,-343.7375 339.9098,-348.8455 345.1211,-353.5191"/>
</g>
<!-- Node36&#45;&gt;Node31 -->
<g id="edge78" class="edge">
<title>Node36&#45;&gt;Node31</title>
<path fill="none" stroke="#191970" d="M807.915,-514.496C670.6957,-492.8794 349.0183,-440.4767 334.0616,-422 306.7689,-388.2842 357.3554,-364.6952 407.003,-350.4857"/>
<polygon fill="#191970" stroke="#191970" points="408.1805,-353.792 416.8966,-347.7686 406.3267,-347.0419 408.1805,-353.792"/>
</g>
<!-- Node36&#45;&gt;Node34 -->
<g id="edge72" class="edge">
<title>Node36&#45;&gt;Node34</title>
<path fill="none" stroke="#191970" d="M788.5582,-515.8523C782.2997,-515.2238 776.0779,-514.6006 770.0616,-514 607.8583,-497.8089 567.0022,-496.6351 405.0616,-478 403.7601,-477.8502 402.4464,-477.6972 401.1233,-477.5414"/>
<polygon fill="#191970" stroke="#191970" points="401.1902,-474.0241 390.8426,-476.2998 400.3508,-480.9736 401.1902,-474.0241"/>
</g>
<!-- Node36&#45;&gt;Node35 -->
<g id="edge75" class="edge">
<title>Node36&#45;&gt;Node35</title>
<path fill="none" stroke="#191970" d="M827.1309,-514.4913C787.5817,-505.4322 726.6813,-491.2488 674.0616,-478 595.37,-458.1868 504.1382,-433.3513 451.2686,-418.7736"/>
<polygon fill="#191970" stroke="#191970" points="452.1089,-415.3747 441.5381,-416.087 450.2459,-422.1223 452.1089,-415.3747"/>
</g>
<!-- Node37 -->
<g id="node38" class="node">
<title>Node37</title>
<polygon fill="#ffffff" stroke="#bfbfbf" points="488.5616,-397 488.5616,-416 593.5616,-416 593.5616,-397 488.5616,-397"/>
<text text-anchor="middle" x="541.0616" y="-404" font-family="Helvetica,sans-Serif" font-size="10.00" fill="#000000">maliput/api/lane.h</text>
</g>
<!-- Node36&#45;&gt;Node37 -->
<g id="edge73" class="edge">
<title>Node36&#45;&gt;Node37</title>
<path fill="none" stroke="#191970" d="M838.6112,-514.4398C810.1593,-505.402 766.5613,-491.2837 729.0616,-478 674.6738,-458.734 612.1738,-434.5513 574.6916,-419.8251"/>
<polygon fill="#191970" stroke="#191970" points="575.8531,-416.521 565.2661,-416.1141 573.2886,-423.0344 575.8531,-416.521"/>
</g>
<!-- Node38 -->
<g id="node39" class="node">
<title>Node38</title>
<g id="a_node39"><a xlink:href="lane_8h.html" target="_top" xlink:title="maliput_multilane/lane.h">
<polygon fill="#ffffff" stroke="#000000" points="738.5616,-458.5 738.5616,-477.5 877.5616,-477.5 877.5616,-458.5 738.5616,-458.5"/>
<text text-anchor="middle" x="808.0616" y="-465.5" font-family="Helvetica,sans-Serif" font-size="10.00" fill="#000000">maliput_multilane/lane.h</text>
</a>
</g>
</g>
<!-- Node36&#45;&gt;Node38 -->
<g id="edge79" class="edge">
<title>Node36&#45;&gt;Node38</title>
<path fill="none" stroke="#191970" d="M858.4362,-514.2455C849.5143,-506.0549 836.5735,-494.1749 826.0423,-484.5069"/>
<polygon fill="#191970" stroke="#191970" points="828.2987,-481.8271 818.5652,-477.6427 823.5648,-486.9837 828.2987,-481.8271"/>
</g>
<!-- Node38&#45;&gt;Node3 -->
<g id="edge80" class="edge">
<title>Node38&#45;&gt;Node3</title>
<path fill="none" stroke="#191970" d="M868.3486,-458.4474C904.255,-451.3465 950.0788,-439.7619 988.0616,-422 1009.4031,-412.02 1009.1578,-399.6768 1031.0616,-391 1146.0722,-345.4404 1188.5924,-390.6112 1307.0616,-355 1312.8722,-353.2534 1318.867,-350.7942 1324.468,-348.1713"/>
<polygon fill="#191970" stroke="#191970" points="1326.0386,-351.2992 1333.4204,-343.6992 1322.9103,-345.037 1326.0386,-351.2992"/>
</g>
<!-- Node38&#45;&gt;Node5 -->
<g id="edge87" class="edge">
<title>Node38&#45;&gt;Node5</title>
<path fill="none" stroke="#191970" d="M855.9056,-458.4763C885.5043,-451.2704 923.5429,-439.5652 954.0616,-422 971.7849,-411.7993 969.5184,-399.6211 988.0616,-391 1099.0377,-339.4047 1148.8218,-403.7853 1261.0616,-355 1287.9914,-343.2949 1287.7727,-329.5007 1312.0616,-313 1406.2397,-249.0199 1525.8929,-187.9664 1587.4335,-157.9075"/>
<polygon fill="#191970" stroke="#191970" points="1588.9782,-161.0483 1596.4403,-153.5271 1585.9166,-154.7533 1588.9782,-161.0483"/>
</g>
<!-- Node38&#45;&gt;Node18 -->
<g id="edge86" class="edge">
<title>Node38&#45;&gt;Node18</title>
<path fill="none" stroke="#191970" d="M877.696,-458.5254C959.2811,-447.4248 1094.1902,-429.0688 1180.0184,-417.3908"/>
<polygon fill="#191970" stroke="#191970" points="1180.5392,-420.8523 1189.976,-416.036 1179.5954,-413.9162 1180.5392,-420.8523"/>
</g>
<!-- Node38&#45;&gt;Node20 -->
<g id="edge81" class="edge">
<title>Node38&#45;&gt;Node20</title>
<path fill="none" stroke="#191970" d="M864.1652,-458.4867C908.5237,-450.4089 971.7989,-437.6475 1026.0616,-422 1028.7011,-421.2389 1031.4123,-420.3924 1034.1251,-419.4988"/>
<polygon fill="#191970" stroke="#191970" points="1035.5356,-422.714 1043.8313,-416.1238 1033.2365,-416.1023 1035.5356,-422.714"/>
</g>
<!-- Node38&#45;&gt;Node23 -->
<g id="edge89" class="edge">
<title>Node38&#45;&gt;Node23</title>
<path fill="none" stroke="#191970" d="M819.3116,-458.3906C828.7852,-450.2986 842.691,-438.4207 854.8083,-428.0705"/>
<polygon fill="#191970" stroke="#191970" points="857.1178,-430.7008 862.4484,-421.5446 852.5714,-425.3782 857.1178,-430.7008"/>
</g>
<!-- Node38&#45;&gt;Node27 -->
<g id="edge82" class="edge">
<title>Node38&#45;&gt;Node27</title>
<path fill="none" stroke="#191970" d="M756.343,-458.4629C730.8737,-451.692 701.0064,-440.4208 679.0616,-422 659.1198,-405.2605 645.5122,-378.4181 637.587,-358.7756"/>
<polygon fill="#191970" stroke="#191970" points="640.7892,-357.3496 633.9571,-349.2518 634.2481,-359.8427 640.7892,-357.3496"/>
</g>
<!-- Node38&#45;&gt;Node31 -->
<g id="edge88" class="edge">
<title>Node38&#45;&gt;Node31</title>
<path fill="none" stroke="#191970" d="M763.5718,-458.4785C731.4755,-450.7754 687.5542,-438.4962 651.0616,-422 627.5792,-411.385 624.5894,-403.5138 602.0616,-391 577.785,-377.5149 549.8323,-363.9307 527.2281,-353.4077"/>
<polygon fill="#191970" stroke="#191970" points="528.4402,-350.1123 517.8944,-349.0945 525.5038,-356.4666 528.4402,-350.1123"/>
</g>
<!-- Node38&#45;&gt;Node35 -->
<g id="edge85" class="edge">
<title>Node38&#45;&gt;Node35</title>
<path fill="none" stroke="#191970" d="M738.51,-459.7749C671.7605,-451.5276 568.2187,-437.8078 479.0616,-422 472.4636,-420.8302 465.5497,-419.4897 458.7257,-418.0976"/>
<polygon fill="#191970" stroke="#191970" points="459.3435,-414.6512 448.8394,-416.0347 457.9137,-421.5036 459.3435,-414.6512"/>
</g>
<!-- Node38&#45;&gt;Node37 -->
<g id="edge84" class="edge">
<title>Node38&#45;&gt;Node37</title>
<path fill="none" stroke="#191970" d="M766.3048,-458.4123C725.8418,-449.1177 662.741,-434.613 608.0616,-422 602.8264,-420.7924 597.3615,-419.5304 591.9094,-418.2705"/>
<polygon fill="#191970" stroke="#191970" points="592.6932,-414.8594 582.1618,-416.017 591.1164,-421.6795 592.6932,-414.8594"/>
</g>
<!-- Node39 -->
<g id="node40" class="node">
<title>Node39</title>
<polygon fill="#ffffff" stroke="#bfbfbf" points="688.0616,-391.5 688.0616,-421.5 796.0616,-421.5 796.0616,-391.5 688.0616,-391.5"/>
<text text-anchor="start" x="696.0616" y="-409.5" font-family="Helvetica,sans-Serif" font-size="10.00" fill="#000000">maliput/api/branch</text>
<text text-anchor="middle" x="742.0616" y="-398.5" font-family="Helvetica,sans-Serif" font-size="10.00" fill="#000000">_point.h</text>
</g>
<!-- Node38&#45;&gt;Node39 -->
<g id="edge83" class="edge">
<title>Node38&#45;&gt;Node39</title>
<path fill="none" stroke="#191970" d="M797.7491,-458.3906C789.1476,-450.3756 776.5604,-438.6466 765.5282,-428.3666"/>
<polygon fill="#191970" stroke="#191970" points="767.9091,-425.8012 758.207,-421.5446 763.137,-430.9225 767.9091,-425.8012"/>
</g>
</g>
</svg>
        <g id="navigator" transform="translate(0 0)" fill="#404254">
                <rect fill="#f2f5e9" fill-opacity="0.5" stroke="#606060" stroke-width=".5" x="0" y="0" width="60" height="60"/>
                <use id="zoomplus" xlink:href="#zoomPlus" x="17" y="9" onmousedown="handleZoom(evt,'in')"/>
                <use id="zoomminus" xlink:href="#zoomMin" x="42" y="9" onmousedown="handleZoom(evt,'out')"/>
                <use id="reset" xlink:href="#resetDef" x="30" y="36" onmousedown="handleReset()"/>
                <g id="arrowUp" xlink:href="#dirArrow" transform="translate(30 24)" onmousedown="handlePan(0,-1)">
                  <use xlink:href="#rim" fill="#404040">
                        <set attributeName="fill" to="#808080" begin="arrowUp.mouseover" end="arrowUp.mouseout"/>
                  </use>
                  <path fill="none" stroke="white" stroke-width="1.5" d="M0,-3.0v7 M-2.5,-0.5L0,-3.0L2.5,-0.5"/>
                </g>
                <g id="arrowRight" xlink:href="#dirArrow" transform="rotate(90) translate(36 -43)" onmousedown="handlePan(1,0)">
                  <use xlink:href="#rim" fill="#404040">
                        <set attributeName="fill" to="#808080" begin="arrowRight.mouseover" end="arrowRight.mouseout"/>
                  </use>
                  <path fill="none" stroke="white" stroke-width="1.5" d="M0,-3.0v7 M-2.5,-0.5L0,-3.0L2.5,-0.5"/>
                </g>
                <g id="arrowDown" xlink:href="#dirArrow" transform="rotate(180) translate(-30 -48)" onmousedown="handlePan(0,1)">
                  <use xlink:href="#rim" fill="#404040">
                        <set attributeName="fill" to="#808080" begin="arrowDown.mouseover" end="arrowDown.mouseout"/>
                  </use>
                  <path fill="none" stroke="white" stroke-width="1.5" d="M0,-3.0v7 M-2.5,-0.5L0,-3.0L2.5,-0.5"/>
                </g>
                <g id="arrowLeft" xlink:href="#dirArrow" transform="rotate(270) translate(-36 17)" onmousedown="handlePan(-1,0)">
                  <use xlink:href="#rim" fill="#404040">
                        <set attributeName="fill" to="#808080" begin="arrowLeft.mouseover" end="arrowLeft.mouseout"/>
                  </use>
                  <path fill="none" stroke="white" stroke-width="1.5" d="M0,-3.0v7 M-2.5,-0.5L0,-3.0L2.5,-0.5"/>
                </g>
        </g>
        <svg viewBox="0 0 15 15" width="100%" height="30px" preserveAspectRatio="xMaxYMin meet">
         <g id="arrow_out" transform="scale(0.3 0.3)">
          <a xlink:href="multilane__onramp__merge_8cc__incl_org.svg" target="_base">
           <rect id="button" ry="5" rx="5" y="6" x="6" height="38" width="38"
                fill="#f2f5e9" fill-opacity="0.5" stroke="#606060" stroke-width="1.0"/>
           <path id="arrow"
             d="M 11.500037,31.436501 C 11.940474,20.09759 22.043105,11.32322 32.158766,21.979434 L 37.068811,17.246167 C 37.068811,17.246167 37.088388,32 37.088388,32 L 22.160133,31.978069 C 22.160133,31.978069 26.997745,27.140456 26.997745,27.140456 C 18.528582,18.264221 13.291696,25.230495 11.500037,31.436501 z"
             style="fill:#404040;"/>
          </a>
         </g>
        </svg>
</svg>
