<?xml version="1.0" encoding="UTF-8" standalone="no"?>
<!DOCTYPE svg PUBLIC "-//W3C//DTD SVG 1.1//EN"
 "http://www.w3.org/Graphics/SVG/1.1/DTD/svg11.dtd">
<!-- Generated by graphviz version 2.43.0 (0)
 -->
<!-- Title: road_curve.h Pages: 1 -->
<svg width="1146pt" height="386pt"
 viewBox="0.00 0.00 1146.00 386.00" xmlns="http://www.w3.org/2000/svg" xmlns:xlink="http://www.w3.org/1999/xlink">
<g id="graph0" class="graph" transform="scale(1 1) rotate(0) translate(4 382)">
<title>road_curve.h</title>
<polygon fill="white" stroke="transparent" points="-4,4 -4,-382 1142,-382 1142,4 -4,4"/>
<!-- Node1 -->
<g id="node1" class="node">
<title>Node1</title>
<g id="a_node1"><a xlink:title=" ">
<polygon fill="#bfbfbf" stroke="black" points="700,-358.5 700,-377.5 780,-377.5 780,-358.5 700,-358.5"/>
<text text-anchor="middle" x="740" y="-365.5" font-family="Helvetica,sans-Serif" font-size="10.00">road_curve.h</text>
</a>
</g>
</g>
<!-- Node2 -->
<g id="node2" class="node">
<title>Node2</title>
<g id="a_node2"><a xlink:href="arc__road__curve_8h.html" target="_top" xlink:title=" ">
<polygon fill="white" stroke="black" points="521,-168.5 521,-187.5 621,-187.5 621,-168.5 521,-168.5"/>
<text text-anchor="middle" x="571" y="-175.5" font-family="Helvetica,sans-Serif" font-size="10.00">arc_road_curve.h</text>
</a>
</g>
</g>
<!-- Node1&#45;&gt;Node2 -->
<g id="edge1" class="edge">
<title>Node1&#45;&gt;Node2</title>
<path fill="none" stroke="midnightblue" d="M725.38,-350.74C690.82,-312.29 604.99,-216.81 578.75,-187.62"/>
<polygon fill="midnightblue" stroke="midnightblue" points="723.01,-353.34 732.3,-358.43 728.22,-348.66 723.01,-353.34"/>
</g>
<!-- Node6 -->
<g id="node6" class="node">
<title>Node6</title>
<g id="a_node6"><a xlink:href="connection_8h.html" target="_top" xlink:title=" ">
<polygon fill="white" stroke="black" points="359.5,-168.5 359.5,-187.5 438.5,-187.5 438.5,-168.5 359.5,-168.5"/>
<text text-anchor="middle" x="399" y="-175.5" font-family="Helvetica,sans-Serif" font-size="10.00">connection.h</text>
</a>
</g>
</g>
<!-- Node1&#45;&gt;Node6 -->
<g id="edge5" class="edge">
<title>Node1&#45;&gt;Node6</title>
<path fill="none" stroke="midnightblue" d="M715.58,-353.54C649.58,-317.15 468.92,-217.55 414.63,-187.62"/>
<polygon fill="midnightblue" stroke="midnightblue" points="714.01,-356.67 724.46,-358.43 717.39,-350.54 714.01,-356.67"/>
</g>
<!-- Node12 -->
<g id="node12" class="node">
<title>Node12</title>
<g id="a_node12"><a xlink:href="multilane__onramp__merge_8h.html" target="_top" xlink:title=" ">
<polygon fill="white" stroke="black" points="7,-56.5 7,-75.5 159,-75.5 159,-56.5 7,-56.5"/>
<text text-anchor="middle" x="83" y="-63.5" font-family="Helvetica,sans-Serif" font-size="10.00">multilane_onramp_merge.h</text>
</a>
</g>
</g>
<!-- Node1&#45;&gt;Node12 -->
<g id="edge38" class="edge">
<title>Node1&#45;&gt;Node12</title>
<path fill="none" stroke="midnightblue" d="M689.77,-366.53C550.21,-363.88 168,-346.92 168,-240.5 168,-240.5 168,-240.5 168,-177 168,-130.9 120.68,-92.36 96.66,-75.76"/>
<polygon fill="midnightblue" stroke="midnightblue" points="689.72,-370.03 699.78,-366.7 689.84,-363.03 689.72,-370.03"/>
</g>
<!-- Node16 -->
<g id="node16" class="node">
<title>Node16</title>
<g id="a_node16"><a xlink:href="junction_8h.html" target="_top" xlink:title=" ">
<polygon fill="white" stroke="black" points="851.5,-168.5 851.5,-187.5 916.5,-187.5 916.5,-168.5 851.5,-168.5"/>
<text text-anchor="middle" x="884" y="-175.5" font-family="Helvetica,sans-Serif" font-size="10.00">junction.h</text>
</a>
</g>
</g>
<!-- Node1&#45;&gt;Node16 -->
<g id="edge22" class="edge">
<title>Node1&#45;&gt;Node16</title>
<path fill="none" stroke="midnightblue" d="M772.87,-354.32C789.54,-346.74 809.32,-335.86 824,-322 864.91,-283.37 879.01,-212.5 882.81,-187.78"/>
<polygon fill="midnightblue" stroke="midnightblue" points="771.25,-351.21 763.47,-358.4 774.04,-357.63 771.25,-351.21"/>
</g>
<!-- Node20 -->
<g id="node20" class="node">
<title>Node20</title>
<g id="a_node20"><a xlink:href="lane_8h.html" target="_top" xlink:title=" ">
<polygon fill="white" stroke="black" points="768.5,-297 768.5,-316 815.5,-316 815.5,-297 768.5,-297"/>
<text text-anchor="middle" x="792" y="-304" font-family="Helvetica,sans-Serif" font-size="10.00">lane.h</text>
</a>
</g>
</g>
<!-- Node1&#45;&gt;Node20 -->
<g id="edge29" class="edge">
<title>Node1&#45;&gt;Node20</title>
<path fill="none" stroke="midnightblue" d="M754.27,-350.67C764.08,-339.45 776.69,-325.02 784.56,-316.01"/>
<polygon fill="midnightblue" stroke="midnightblue" points="751.4,-348.64 747.45,-358.48 756.67,-353.25 751.4,-348.64"/>
</g>
<!-- Node21 -->
<g id="node21" class="node">
<title>Node21</title>
<g id="a_node21"><a xlink:href="segment_8h.html" target="_top" xlink:title=" ">
<polygon fill="white" stroke="black" points="718,-230 718,-249 786,-249 786,-230 718,-230"/>
<text text-anchor="middle" x="752" y="-237" font-family="Helvetica,sans-Serif" font-size="10.00">segment.h</text>
</a>
</g>
</g>
<!-- Node1&#45;&gt;Node21 -->
<g id="edge39" class="edge">
<title>Node1&#45;&gt;Node21</title>
<path fill="none" stroke="midnightblue" d="M741.77,-348.31C744.4,-320.58 749.24,-269.63 751.17,-249.26"/>
<polygon fill="midnightblue" stroke="midnightblue" points="738.28,-348.02 740.82,-358.31 745.25,-348.68 738.28,-348.02"/>
</g>
<!-- Node24 -->
<g id="node24" class="node">
<title>Node24</title>
<g id="a_node24"><a xlink:href="line__road__curve_8h.html" target="_top" xlink:title=" ">
<polygon fill="white" stroke="black" points="639.5,-168.5 639.5,-187.5 742.5,-187.5 742.5,-168.5 639.5,-168.5"/>
<text text-anchor="middle" x="691" y="-175.5" font-family="Helvetica,sans-Serif" font-size="10.00">line_road_curve.h</text>
</a>
</g>
</g>
<!-- Node1&#45;&gt;Node24 -->
<g id="edge34" class="edge">
<title>Node1&#45;&gt;Node24</title>
<path fill="none" stroke="midnightblue" d="M734.67,-348.58C728.32,-326.43 717.5,-288.1 709,-255 702.8,-230.83 696.21,-202.15 693,-187.92"/>
<polygon fill="midnightblue" stroke="midnightblue" points="731.35,-349.68 737.48,-358.32 738.07,-347.74 731.35,-349.68"/>
</g>
<!-- Node26 -->
<g id="node26" class="node">
<title>Node26</title>
<g id="a_node26"><a xlink:href="multilane__brute__force__integral_8h.html" target="_top" xlink:title=" ">
<polygon fill="white" stroke="black" points="912,-291.5 912,-321.5 1036,-321.5 1036,-291.5 912,-291.5"/>
<text text-anchor="start" x="920" y="-309.5" font-family="Helvetica,sans-Serif" font-size="10.00">multilane_brute_force</text>
<text text-anchor="middle" x="974" y="-298.5" font-family="Helvetica,sans-Serif" font-size="10.00">_integral.h</text>
</a>
</g>
</g>
<!-- Node1&#45;&gt;Node26 -->
<g id="edge40" class="edge">
<title>Node1&#45;&gt;Node26</title>
<path fill="none" stroke="midnightblue" d="M783.33,-355.98C821.55,-346.27 877.45,-332.05 918.85,-321.52"/>
<polygon fill="midnightblue" stroke="midnightblue" points="782.36,-352.62 773.53,-358.48 784.08,-359.4 782.36,-352.62"/>
</g>
<!-- Node28 -->
<g id="node28" class="node">
<title>Node28</title>
<g id="a_node28"><a xlink:href="road__curve_8cc.html" target="_top" xlink:title=" ">
<polygon fill="white" stroke="black" points="1054,-297 1054,-316 1138,-316 1138,-297 1054,-297"/>
<text text-anchor="middle" x="1096" y="-304" font-family="Helvetica,sans-Serif" font-size="10.00">road_curve.cc</text>
</a>
</g>
</g>
<!-- Node1&#45;&gt;Node28 -->
<g id="edge42" class="edge">
<title>Node1&#45;&gt;Node28</title>
<path fill="none" stroke="midnightblue" d="M790.36,-361.61C851.12,-354.64 956.21,-341.09 1045,-322 1052.65,-320.36 1060.84,-318.2 1068.37,-316.06"/>
<polygon fill="midnightblue" stroke="midnightblue" points="789.81,-358.15 780.27,-362.76 790.6,-365.11 789.81,-358.15"/>
</g>
<!-- Node3 -->
<g id="node3" class="node">
<title>Node3</title>
<g id="a_node3"><a xlink:href="arc__road__curve_8cc.html" target="_top" xlink:title=" ">
<polygon fill="white" stroke="black" points="536,-112.5 536,-131.5 640,-131.5 640,-112.5 536,-112.5"/>
<text text-anchor="middle" x="588" y="-119.5" font-family="Helvetica,sans-Serif" font-size="10.00">arc_road_curve.cc</text>
</a>
</g>
</g>
<!-- Node2&#45;&gt;Node3 -->
<g id="edge2" class="edge">
<title>Node2&#45;&gt;Node3</title>
<path fill="none" stroke="midnightblue" d="M576.86,-158.4C579.7,-149.36 582.98,-138.94 585.25,-131.75"/>
<polygon fill="midnightblue" stroke="midnightblue" points="573.47,-157.49 573.81,-168.08 580.15,-159.6 573.47,-157.49"/>
</g>
<!-- Node4 -->
<g id="node4" class="node">
<title>Node4</title>
<g id="a_node4"><a xlink:href="builder_8cc.html" target="_top" xlink:title=" ">
<polygon fill="white" stroke="black" points="674,-56.5 674,-75.5 738,-75.5 738,-56.5 674,-56.5"/>
<text text-anchor="middle" x="706" y="-63.5" font-family="Helvetica,sans-Serif" font-size="10.00">builder.cc</text>
</a>
</g>
</g>
<!-- Node2&#45;&gt;Node4 -->
<g id="edge3" class="edge">
<title>Node2&#45;&gt;Node4</title>
<path fill="none" stroke="midnightblue" d="M598.87,-163.77C614.42,-155.71 633.69,-144.56 649,-132 670.12,-114.67 690.02,-89.13 699.76,-75.81"/>
<polygon fill="midnightblue" stroke="midnightblue" points="597.09,-160.75 589.74,-168.38 600.24,-167 597.09,-160.75"/>
</g>
<!-- Node5 -->
<g id="node5" class="node">
<title>Node5</title>
<g id="a_node5"><a xlink:href="connection_8cc.html" target="_top" xlink:title=" ">
<polygon fill="white" stroke="black" points="357.5,-112.5 357.5,-131.5 440.5,-131.5 440.5,-112.5 357.5,-112.5"/>
<text text-anchor="middle" x="399" y="-119.5" font-family="Helvetica,sans-Serif" font-size="10.00">connection.cc</text>
</a>
</g>
</g>
<!-- Node2&#45;&gt;Node5 -->
<g id="edge4" class="edge">
<title>Node2&#45;&gt;Node5</title>
<path fill="none" stroke="midnightblue" d="M534.17,-165.44C501.74,-155.26 455.26,-140.66 426.13,-131.52"/>
<polygon fill="midnightblue" stroke="midnightblue" points="533.16,-168.79 543.75,-168.44 535.25,-162.11 533.16,-168.79"/>
</g>
<!-- Node6&#45;&gt;Node5 -->
<g id="edge20" class="edge">
<title>Node6&#45;&gt;Node5</title>
<path fill="none" stroke="midnightblue" d="M399,-157.8C399,-148.91 399,-138.78 399,-131.75"/>
<polygon fill="midnightblue" stroke="midnightblue" points="395.5,-158.08 399,-168.08 402.5,-158.08 395.5,-158.08"/>
</g>
<!-- Node7 -->
<g id="node7" class="node">
<title>Node7</title>
<g id="a_node7"><a xlink:href="builder_8h.html" target="_top" xlink:title=" ">
<polygon fill="white" stroke="black" points="458.5,-112.5 458.5,-131.5 517.5,-131.5 517.5,-112.5 458.5,-112.5"/>
<text text-anchor="middle" x="488" y="-119.5" font-family="Helvetica,sans-Serif" font-size="10.00">builder.h</text>
</a>
</g>
</g>
<!-- Node6&#45;&gt;Node7 -->
<g id="edge6" class="edge">
<title>Node6&#45;&gt;Node7</title>
<path fill="none" stroke="midnightblue" d="M422.24,-162.9C438.56,-153 459.87,-140.07 473.74,-131.65"/>
<polygon fill="midnightblue" stroke="midnightblue" points="420.03,-160.14 413.3,-168.32 423.66,-166.13 420.03,-160.14"/>
</g>
<!-- Node9 -->
<g id="node9" class="node">
<title>Node9</title>
<g id="a_node9"><a xlink:href="loader_8cc.html" target="_top" xlink:title=" ">
<polygon fill="white" stroke="black" points="349.5,-0.5 349.5,-19.5 410.5,-19.5 410.5,-0.5 349.5,-0.5"/>
<text text-anchor="middle" x="380" y="-7.5" font-family="Helvetica,sans-Serif" font-size="10.00">loader.cc</text>
</a>
</g>
</g>
<!-- Node6&#45;&gt;Node9 -->
<g id="edge21" class="edge">
<title>Node6&#45;&gt;Node9</title>
<path fill="none" stroke="midnightblue" d="M374.88,-162.47C364.56,-154.83 353.62,-144.44 348,-132 329.95,-91.99 360.31,-39.78 373.92,-19.54"/>
<polygon fill="midnightblue" stroke="midnightblue" points="373.04,-165.46 383.27,-168.24 377.01,-159.69 373.04,-165.46"/>
</g>
<!-- Node14 -->
<g id="node14" class="node">
<title>Node14</title>
<g id="a_node14"><a xlink:href="multilane__types__compare_8h.html" target="_top" xlink:title=" ">
<polygon fill="white" stroke="black" points="177,-56.5 177,-75.5 329,-75.5 329,-56.5 177,-56.5"/>
<text text-anchor="middle" x="253" y="-63.5" font-family="Helvetica,sans-Serif" font-size="10.00">multilane_types_compare.h</text>
</a>
</g>
</g>
<!-- Node6&#45;&gt;Node14 -->
<g id="edge19" class="edge">
<title>Node6&#45;&gt;Node14</title>
<path fill="none" stroke="midnightblue" d="M369.6,-164.1C352.82,-156.05 331.84,-144.81 315,-132 292.41,-114.81 270.6,-89.21 259.88,-75.85"/>
<polygon fill="midnightblue" stroke="midnightblue" points="368.39,-167.4 378.93,-168.45 371.35,-161.05 368.39,-167.4"/>
</g>
<!-- Node7&#45;&gt;Node4 -->
<g id="edge15" class="edge">
<title>Node7&#45;&gt;Node4</title>
<path fill="none" stroke="midnightblue" d="M527.71,-111.16C569.6,-100.79 634.81,-84.63 673.67,-75.01"/>
<polygon fill="midnightblue" stroke="midnightblue" points="526.72,-107.8 517.85,-113.6 528.4,-114.6 526.72,-107.8"/>
</g>
<!-- Node8 -->
<g id="node8" class="node">
<title>Node8</title>
<g id="a_node8"><a xlink:href="loader_8h.html" target="_top" xlink:title=" ">
<polygon fill="white" stroke="black" points="432,-56.5 432,-75.5 488,-75.5 488,-56.5 432,-56.5"/>
<text text-anchor="middle" x="460" y="-63.5" font-family="Helvetica,sans-Serif" font-size="10.00">loader.h</text>
</a>
</g>
</g>
<!-- Node7&#45;&gt;Node8 -->
<g id="edge7" class="edge">
<title>Node7&#45;&gt;Node8</title>
<path fill="none" stroke="midnightblue" d="M478.66,-102.98C473.91,-93.82 468.34,-83.09 464.54,-75.75"/>
<polygon fill="midnightblue" stroke="midnightblue" points="475.67,-104.82 483.38,-112.08 481.88,-101.59 475.67,-104.82"/>
</g>
<!-- Node7&#45;&gt;Node9 -->
<g id="edge16" class="edge">
<title>Node7&#45;&gt;Node9</title>
<path fill="none" stroke="midnightblue" d="M463.45,-107.13C450.51,-99.08 434.9,-88.15 423,-76 405.77,-58.4 391.31,-32.97 384.38,-19.74"/>
<polygon fill="midnightblue" stroke="midnightblue" points="461.93,-110.3 472.31,-112.45 465.54,-104.3 461.93,-110.3"/>
</g>
<!-- Node10 -->
<g id="node10" class="node">
<title>Node10</title>
<g id="a_node10"><a xlink:href="road__network__builder_8cc.html" target="_top" xlink:title=" ">
<polygon fill="white" stroke="black" points="515,-0.5 515,-19.5 651,-19.5 651,-0.5 515,-0.5"/>
<text text-anchor="middle" x="583" y="-7.5" font-family="Helvetica,sans-Serif" font-size="10.00">road_network_builder.cc</text>
</a>
</g>
</g>
<!-- Node7&#45;&gt;Node10 -->
<g id="edge17" class="edge">
<title>Node7&#45;&gt;Node10</title>
<path fill="none" stroke="midnightblue" d="M502.18,-104.59C522.66,-80.87 559.79,-37.87 575.58,-19.59"/>
<polygon fill="midnightblue" stroke="midnightblue" points="499.34,-102.51 495.45,-112.37 504.64,-107.09 499.34,-102.51"/>
</g>
<!-- Node11 -->
<g id="node11" class="node">
<title>Node11</title>
<g id="a_node11"><a xlink:href="fixtures_8cc.html" target="_top" xlink:title=" ">
<polygon fill="white" stroke="black" points="429,-0.5 429,-19.5 497,-19.5 497,-0.5 429,-0.5"/>
<text text-anchor="middle" x="463" y="-7.5" font-family="Helvetica,sans-Serif" font-size="10.00">fixtures.cc</text>
</a>
</g>
</g>
<!-- Node7&#45;&gt;Node11 -->
<g id="edge18" class="edge">
<title>Node7&#45;&gt;Node11</title>
<path fill="none" stroke="midnightblue" d="M494.94,-102.55C498.87,-89.3 502.09,-71.19 497,-56 492.14,-41.52 480.58,-27.98 472.29,-19.61"/>
<polygon fill="midnightblue" stroke="midnightblue" points="491.51,-101.76 491.63,-112.36 498.14,-104 491.51,-101.76"/>
</g>
<!-- Node7&#45;&gt;Node12 -->
<g id="edge11" class="edge">
<title>Node7&#45;&gt;Node12</title>
<path fill="none" stroke="midnightblue" d="M448,-112.03C380.38,-100.78 244.88,-85.04 159.03,-75.4"/>
<polygon fill="midnightblue" stroke="midnightblue" points="447.81,-115.55 458.26,-113.8 448.99,-108.65 447.81,-115.55"/>
</g>
<!-- Node7&#45;&gt;Node14 -->
<g id="edge13" class="edge">
<title>Node7&#45;&gt;Node14</title>
<path fill="none" stroke="midnightblue" d="M448.37,-111.86C387.27,-97.8 327.64,-84.11 290.21,-75.53"/>
<polygon fill="midnightblue" stroke="midnightblue" points="447.66,-115.28 458.19,-114.12 449.23,-108.46 447.66,-115.28"/>
</g>
<!-- Node8&#45;&gt;Node9 -->
<g id="edge8" class="edge">
<title>Node8&#45;&gt;Node9</title>
<path fill="none" stroke="midnightblue" d="M438.7,-50.62C424.08,-40.76 405.17,-27.99 392.82,-19.65"/>
<polygon fill="midnightblue" stroke="midnightblue" points="436.9,-53.63 447.15,-56.32 440.82,-47.83 436.9,-53.63"/>
</g>
<!-- Node8&#45;&gt;Node10 -->
<g id="edge9" class="edge">
<title>Node8&#45;&gt;Node10</title>
<path fill="none" stroke="midnightblue" d="M488.77,-52.37C511.81,-42.26 543.48,-28.35 563.6,-19.52"/>
<polygon fill="midnightblue" stroke="midnightblue" points="487.24,-49.22 479.49,-56.44 490.05,-55.63 487.24,-49.22"/>
</g>
<!-- Node8&#45;&gt;Node11 -->
<g id="edge10" class="edge">
<title>Node8&#45;&gt;Node11</title>
<path fill="none" stroke="midnightblue" d="M461.07,-45.8C461.56,-36.91 462.12,-26.78 462.51,-19.75"/>
<polygon fill="midnightblue" stroke="midnightblue" points="457.56,-45.9 460.5,-56.08 464.54,-46.29 457.56,-45.9"/>
</g>
<!-- Node13 -->
<g id="node13" class="node">
<title>Node13</title>
<g id="a_node13"><a xlink:href="multilane__onramp__merge_8cc.html" target="_top" xlink:title=" ">
<polygon fill="white" stroke="black" points="0,-0.5 0,-19.5 156,-19.5 156,-0.5 0,-0.5"/>
<text text-anchor="middle" x="78" y="-7.5" font-family="Helvetica,sans-Serif" font-size="10.00">multilane_onramp_merge.cc</text>
</a>
</g>
</g>
<!-- Node12&#45;&gt;Node13 -->
<g id="edge12" class="edge">
<title>Node12&#45;&gt;Node13</title>
<path fill="none" stroke="midnightblue" d="M81.25,-46.1C80.42,-37.14 79.47,-26.86 78.81,-19.75"/>
<polygon fill="midnightblue" stroke="midnightblue" points="77.77,-46.45 82.17,-56.08 84.74,-45.8 77.77,-46.45"/>
</g>
<!-- Node15 -->
<g id="node15" class="node">
<title>Node15</title>
<g id="a_node15"><a xlink:href="multilane__types__compare_8cc.html" target="_top" xlink:title=" ">
<polygon fill="white" stroke="black" points="174.5,-0.5 174.5,-19.5 331.5,-19.5 331.5,-0.5 174.5,-0.5"/>
<text text-anchor="middle" x="253" y="-7.5" font-family="Helvetica,sans-Serif" font-size="10.00">multilane_types_compare.cc</text>
</a>
</g>
</g>
<!-- Node14&#45;&gt;Node15 -->
<g id="edge14" class="edge">
<title>Node14&#45;&gt;Node15</title>
<path fill="none" stroke="midnightblue" d="M253,-45.8C253,-36.91 253,-26.78 253,-19.75"/>
<polygon fill="midnightblue" stroke="midnightblue" points="249.5,-46.08 253,-56.08 256.5,-46.08 249.5,-46.08"/>
</g>
<!-- Node16&#45;&gt;Node4 -->
<g id="edge27" class="edge">
<title>Node16&#45;&gt;Node4</title>
<path fill="none" stroke="midnightblue" d="M878.7,-158.57C873.6,-143.98 864.49,-124.1 850,-112 817.94,-85.22 769.93,-74.34 738.29,-69.95"/>
<polygon fill="midnightblue" stroke="midnightblue" points="875.48,-160.01 881.84,-168.48 882.16,-157.89 875.48,-160.01"/>
</g>
<!-- Node16&#45;&gt;Node7 -->
<g id="edge23" class="edge">
<title>Node16&#45;&gt;Node7</title>
<path fill="none" stroke="midnightblue" d="M841.17,-167.84C701.76,-145.32 663.05,-155.37 527,-132 523.99,-131.48 520.86,-130.88 517.74,-130.23"/>
<polygon fill="midnightblue" stroke="midnightblue" points="840.95,-171.36 851.38,-169.52 842.09,-164.45 840.95,-171.36"/>
</g>
<!-- Node17 -->
<g id="node17" class="node">
<title>Node17</title>
<g id="a_node17"><a xlink:href="road__geometry_8h.html" target="_top" xlink:title=" ">
<polygon fill="white" stroke="black" points="986,-112.5 986,-131.5 1084,-131.5 1084,-112.5 986,-112.5"/>
<text text-anchor="middle" x="1035" y="-119.5" font-family="Helvetica,sans-Serif" font-size="10.00">road_geometry.h</text>
</a>
</g>
</g>
<!-- Node16&#45;&gt;Node17 -->
<g id="edge24" class="edge">
<title>Node16&#45;&gt;Node17</title>
<path fill="none" stroke="midnightblue" d="M917.45,-165.04C945.86,-154.88 985.94,-140.55 1011.19,-131.52"/>
<polygon fill="midnightblue" stroke="midnightblue" points="916.16,-161.78 907.93,-168.44 918.52,-168.37 916.16,-161.78"/>
</g>
<!-- Node19 -->
<g id="node19" class="node">
<title>Node19</title>
<g id="a_node19"><a xlink:href="junction_8cc.html" target="_top" xlink:title=" ">
<polygon fill="white" stroke="black" points="898.5,-112.5 898.5,-131.5 967.5,-131.5 967.5,-112.5 898.5,-112.5"/>
<text text-anchor="middle" x="933" y="-119.5" font-family="Helvetica,sans-Serif" font-size="10.00">junction.cc</text>
</a>
</g>
</g>
<!-- Node16&#45;&gt;Node19 -->
<g id="edge28" class="edge">
<title>Node16&#45;&gt;Node19</title>
<path fill="none" stroke="midnightblue" d="M899.03,-160.43C907.62,-150.97 918.04,-139.48 925.06,-131.75"/>
<polygon fill="midnightblue" stroke="midnightblue" points="896.22,-158.33 892.09,-168.08 901.4,-163.03 896.22,-158.33"/>
</g>
<!-- Node17&#45;&gt;Node4 -->
<g id="edge25" class="edge">
<title>Node17&#45;&gt;Node4</title>
<path fill="none" stroke="midnightblue" d="M975.8,-111.28C906.19,-99.86 793.18,-81.31 738.16,-72.28"/>
<polygon fill="midnightblue" stroke="midnightblue" points="975.31,-114.75 985.75,-112.92 976.44,-107.84 975.31,-114.75"/>
</g>
<!-- Node18 -->
<g id="node18" class="node">
<title>Node18</title>
<g id="a_node18"><a xlink:href="road__geometry_8cc.html" target="_top" xlink:title=" ">
<polygon fill="white" stroke="black" points="983.5,-56.5 983.5,-75.5 1086.5,-75.5 1086.5,-56.5 983.5,-56.5"/>
<text text-anchor="middle" x="1035" y="-63.5" font-family="Helvetica,sans-Serif" font-size="10.00">road_geometry.cc</text>
</a>
</g>
</g>
<!-- Node17&#45;&gt;Node18 -->
<g id="edge26" class="edge">
<title>Node17&#45;&gt;Node18</title>
<path fill="none" stroke="midnightblue" d="M1035,-101.8C1035,-92.91 1035,-82.78 1035,-75.75"/>
<polygon fill="midnightblue" stroke="midnightblue" points="1031.5,-102.08 1035,-112.08 1038.5,-102.08 1031.5,-102.08"/>
</g>
<!-- Node20&#45;&gt;Node21 -->
<g id="edge30" class="edge">
<title>Node20&#45;&gt;Node21</title>
<path fill="none" stroke="midnightblue" d="M781.25,-288.03C773.51,-275.45 763.39,-259.01 757.31,-249.13"/>
<polygon fill="midnightblue" stroke="midnightblue" points="778.38,-290.05 786.61,-296.73 784.35,-286.38 778.38,-290.05"/>
</g>
<!-- Node23 -->
<g id="node23" class="node">
<title>Node23</title>
<g id="a_node23"><a xlink:href="lane_8cc.html" target="_top" xlink:title=" ">
<polygon fill="white" stroke="black" points="804.5,-230 804.5,-249 855.5,-249 855.5,-230 804.5,-230"/>
<text text-anchor="middle" x="830" y="-237" font-family="Helvetica,sans-Serif" font-size="10.00">lane.cc</text>
</a>
</g>
</g>
<!-- Node20&#45;&gt;Node23 -->
<g id="edge33" class="edge">
<title>Node20&#45;&gt;Node23</title>
<path fill="none" stroke="midnightblue" d="M802.21,-288.03C809.57,-275.45 819.18,-259.01 824.96,-249.13"/>
<polygon fill="midnightblue" stroke="midnightblue" points="799.15,-286.33 797.12,-296.73 805.19,-289.87 799.15,-286.33"/>
</g>
<!-- Node21&#45;&gt;Node16 -->
<g id="edge31" class="edge">
<title>Node21&#45;&gt;Node16</title>
<path fill="none" stroke="midnightblue" d="M780.11,-225.83C805.74,-214.28 842.89,-197.53 865.12,-187.51"/>
<polygon fill="midnightblue" stroke="midnightblue" points="778.59,-222.67 770.91,-229.98 781.47,-229.06 778.59,-222.67"/>
</g>
<!-- Node22 -->
<g id="node22" class="node">
<title>Node22</title>
<g id="a_node22"><a xlink:href="segment_8cc.html" target="_top" xlink:title=" ">
<polygon fill="white" stroke="black" points="760.5,-168.5 760.5,-187.5 833.5,-187.5 833.5,-168.5 760.5,-168.5"/>
<text text-anchor="middle" x="797" y="-175.5" font-family="Helvetica,sans-Serif" font-size="10.00">segment.cc</text>
</a>
</g>
</g>
<!-- Node21&#45;&gt;Node22 -->
<g id="edge32" class="edge">
<title>Node21&#45;&gt;Node22</title>
<path fill="none" stroke="midnightblue" d="M764.6,-221.84C773.05,-210.67 783.82,-196.43 790.56,-187.51"/>
<polygon fill="midnightblue" stroke="midnightblue" points="761.69,-219.89 758.45,-229.98 767.27,-224.11 761.69,-219.89"/>
</g>
<!-- Node24&#45;&gt;Node4 -->
<g id="edge35" class="edge">
<title>Node24&#45;&gt;Node4</title>
<path fill="none" stroke="midnightblue" d="M693.54,-158.35C696.83,-134.25 702.41,-93.31 704.83,-75.59"/>
<polygon fill="midnightblue" stroke="midnightblue" points="690.06,-157.99 692.18,-168.37 697,-158.93 690.06,-157.99"/>
</g>
<!-- Node24&#45;&gt;Node5 -->
<g id="edge36" class="edge">
<title>Node24&#45;&gt;Node5</title>
<path fill="none" stroke="midnightblue" d="M634.85,-166.62C578.11,-156.12 491.76,-140.15 440.79,-130.73"/>
<polygon fill="midnightblue" stroke="midnightblue" points="634.26,-170.07 644.73,-168.44 635.53,-163.18 634.26,-170.07"/>
</g>
<!-- Node25 -->
<g id="node25" class="node">
<title>Node25</title>
<g id="a_node25"><a xlink:href="line__road__curve_8cc.html" target="_top" xlink:title=" ">
<polygon fill="white" stroke="black" points="734.5,-112.5 734.5,-131.5 841.5,-131.5 841.5,-112.5 734.5,-112.5"/>
<text text-anchor="middle" x="788" y="-119.5" font-family="Helvetica,sans-Serif" font-size="10.00">line_road_curve.cc</text>
</a>
</g>
</g>
<!-- Node24&#45;&gt;Node25 -->
<g id="edge37" class="edge">
<title>Node24&#45;&gt;Node25</title>
<path fill="none" stroke="midnightblue" d="M715.34,-163.45C733.24,-153.48 757.05,-140.23 772.45,-131.65"/>
<polygon fill="midnightblue" stroke="midnightblue" points="713.62,-160.4 706.58,-168.32 717.02,-166.52 713.62,-160.4"/>
</g>
<!-- Node27 -->
<g id="node27" class="node">
<title>Node27</title>
<g id="a_node27"><a xlink:href="multilane__brute__force__integral_8cc.html" target="_top" xlink:title=" ">
<polygon fill="white" stroke="black" points="912,-224.5 912,-254.5 1036,-254.5 1036,-224.5 912,-224.5"/>
<text text-anchor="start" x="920" y="-242.5" font-family="Helvetica,sans-Serif" font-size="10.00">multilane_brute_force</text>
<text text-anchor="middle" x="974" y="-231.5" font-family="Helvetica,sans-Serif" font-size="10.00">_integral.cc</text>
</a>
</g>
</g>
<!-- Node26&#45;&gt;Node27 -->
<g id="edge41" class="edge">
<title>Node26&#45;&gt;Node27</title>
<path fill="none" stroke="midnightblue" d="M974,-281.11C974,-272.15 974,-262.32 974,-254.58"/>
<polygon fill="midnightblue" stroke="midnightblue" points="970.5,-281.4 974,-291.4 977.5,-281.4 970.5,-281.4"/>
</g>
</g>
</svg>
