<?xml version="1.0" encoding="UTF-8" standalone="no"?>
<!DOCTYPE svg PUBLIC "-//W3C//DTD SVG 1.1//EN"
 "http://www.w3.org/Graphics/SVG/1.1/DTD/svg11.dtd">
<!-- Generated by graphviz version 2.43.0 (0)
 -->
<!-- Title: road_network.cc Pages: 1 -->
<svg width="439pt" height="151pt"
 viewBox="0.00 0.00 439.17 151.00" xmlns="http://www.w3.org/2000/svg" xmlns:xlink="http://www.w3.org/1999/xlink">
<g id="graph0" class="graph" transform="scale(1 1) rotate(0) translate(4 147)">
<title>road_network.cc</title>
<polygon fill="white" stroke="transparent" points="-4,4 -4,-147 435.17,-147 435.17,4 -4,4"/>
<!-- Node1 -->
<g id="node1" class="node">
<title>Node1</title>
<g id="a_node1"><a xlink:title=" ">
<polygon fill="#bfbfbf" stroke="black" points="20.17,-123.5 20.17,-142.5 117.17,-142.5 117.17,-123.5 20.17,-123.5"/>
<text text-anchor="middle" x="68.67" y="-130.5" font-family="Helvetica,sans-Serif" font-size="10.00">road_network.cc</text>
</a>
</g>
</g>
<!-- Node2 -->
<g id="node2" class="node">
<title>Node2</title>
<g id="a_node2"><a xlink:title=" ">
<polygon fill="white" stroke="#bfbfbf" points="4.67,-0.5 4.67,-19.5 62.67,-19.5 62.67,-0.5 4.67,-0.5"/>
<text text-anchor="middle" x="33.67" y="-7.5" font-family="Helvetica,sans-Serif" font-size="10.00">memory</text>
</a>
</g>
</g>
<!-- Node1&#45;&gt;Node2 -->
<g id="edge1" class="edge">
<title>Node1&#45;&gt;Node2</title>
<path fill="none" stroke="midnightblue" d="M46.86,-123.45C31.72,-116.22 12.71,-104.26 3.67,-87 -6.66,-67.28 6.95,-43.18 19.03,-27.48"/>
<polygon fill="midnightblue" stroke="midnightblue" points="21.77,-29.65 25.42,-19.7 16.37,-25.2 21.77,-29.65"/>
</g>
<!-- Node3 -->
<g id="node3" class="node">
<title>Node3</title>
<g id="a_node3"><a xlink:href="../../maliput/html/road__network__loader_8h.html.html" xlink:title=" ">
<polygon fill="white" stroke="black" points="12.67,-56.5 12.67,-86.5 124.67,-86.5 124.67,-56.5 12.67,-56.5"/>
<text text-anchor="start" x="20.67" y="-74.5" font-family="Helvetica,sans-Serif" font-size="10.00">maliput/plugin/road</text>
<text text-anchor="middle" x="68.67" y="-63.5" font-family="Helvetica,sans-Serif" font-size="10.00">_network_loader.h</text>
</a>
</g>
</g>
<!-- Node1&#45;&gt;Node3 -->
<g id="edge2" class="edge">
<title>Node1&#45;&gt;Node3</title>
<path fill="none" stroke="midnightblue" d="M68.67,-123.48C68.67,-116.47 68.67,-106.19 68.67,-96.7"/>
<polygon fill="midnightblue" stroke="midnightblue" points="72.17,-96.52 68.67,-86.52 65.17,-96.52 72.17,-96.52"/>
</g>
<!-- Node4 -->
<g id="node4" class="node">
<title>Node4</title>
<g id="a_node4"><a xlink:href="road__network__builder_8h.html" target="_top" xlink:title=" ">
<polygon fill="white" stroke="black" points="143.17,-56.5 143.17,-86.5 274.17,-86.5 274.17,-56.5 143.17,-56.5"/>
<text text-anchor="start" x="151.17" y="-74.5" font-family="Helvetica,sans-Serif" font-size="10.00">maliput_multilane/road</text>
<text text-anchor="middle" x="208.67" y="-63.5" font-family="Helvetica,sans-Serif" font-size="10.00">_network_builder.h</text>
</a>
</g>
</g>
<!-- Node1&#45;&gt;Node4 -->
<g id="edge3" class="edge">
<title>Node1&#45;&gt;Node4</title>
<path fill="none" stroke="midnightblue" d="M88.73,-123.48C108.84,-114.93 140.43,-101.5 166.14,-90.57"/>
<polygon fill="midnightblue" stroke="midnightblue" points="167.84,-93.66 175.67,-86.52 165.1,-87.21 167.84,-93.66"/>
</g>
<!-- Node4&#45;&gt;Node2 -->
<g id="edge4" class="edge">
<title>Node4&#45;&gt;Node2</title>
<path fill="none" stroke="midnightblue" d="M167.2,-56.4C137.09,-46.16 96.82,-32.47 68.4,-22.81"/>
<polygon fill="midnightblue" stroke="midnightblue" points="69.47,-19.48 58.88,-19.57 67.22,-26.1 69.47,-19.48"/>
</g>
<!-- Node5 -->
<g id="node5" class="node">
<title>Node5</title>
<g id="a_node5"><a xlink:title=" ">
<polygon fill="white" stroke="#bfbfbf" points="105.17,-0.5 105.17,-19.5 262.17,-19.5 262.17,-0.5 105.17,-0.5"/>
<text text-anchor="middle" x="183.67" y="-7.5" font-family="Helvetica,sans-Serif" font-size="10.00">maliput/api/road_geometry.h</text>
</a>
</g>
</g>
<!-- Node4&#45;&gt;Node5 -->
<g id="edge5" class="edge">
<title>Node4&#45;&gt;Node5</title>
<path fill="none" stroke="midnightblue" d="M202.74,-56.4C199.3,-48.2 194.92,-37.78 191.23,-28.99"/>
<polygon fill="midnightblue" stroke="midnightblue" points="194.41,-27.52 187.31,-19.66 187.95,-30.23 194.41,-27.52"/>
</g>
<!-- Node6 -->
<g id="node6" class="node">
<title>Node6</title>
<g id="a_node6"><a xlink:href="../../maliput/html/road__network_8h.html.html" xlink:title=" ">
<polygon fill="white" stroke="black" points="280.17,-0.5 280.17,-19.5 431.17,-19.5 431.17,-0.5 280.17,-0.5"/>
<text text-anchor="middle" x="355.67" y="-7.5" font-family="Helvetica,sans-Serif" font-size="10.00">maliput/api/road_network.h</text>
</a>
</g>
</g>
<!-- Node4&#45;&gt;Node6 -->
<g id="edge6" class="edge">
<title>Node4&#45;&gt;Node6</title>
<path fill="none" stroke="midnightblue" d="M243.51,-56.4C268.17,-46.42 300.95,-33.15 324.7,-23.53"/>
<polygon fill="midnightblue" stroke="midnightblue" points="326.32,-26.65 334.28,-19.66 323.7,-20.17 326.32,-26.65"/>
</g>
</g>
</svg>
