<?xml version="1.0" encoding="UTF-8" standalone="no"?>
<!DOCTYPE svg PUBLIC "-//W3C//DTD SVG 1.1//EN"
 "http://www.w3.org/Graphics/SVG/1.1/DTD/svg11.dtd">
<!-- Generated by graphviz version 2.43.0 (0)
 -->
<!-- Title: segment.cc Pages: 1 -->
<!--zoomable 352 -->
<svg id="main" version="1.1" xmlns="http://www.w3.org/2000/svg" xmlns:xlink="http://www.w3.org/1999/xlink" xml:space="preserve" onload="init(evt)">
<style type="text/css"><![CDATA[
.edge:hover path { stroke: red; }
.edge:hover polygon { stroke: red; fill: red; }
]]></style>
<script type="text/javascript"><![CDATA[
var edges = document.getElementsByTagName('g');
if (edges && edges.length) {
  for (var i=0;i<edges.length;i++) {
    if (edges[i].id.substr(0,4)=='edge') {
      edges[i].setAttribute('class','edge');
    }
  }
}
]]></script>
        <defs>
                <circle id="rim" cx="0" cy="0" r="7"/>
                <circle id="rim2" cx="0" cy="0" r="3.5"/>
                <g id="zoomPlus">
                        <use xlink:href="#rim" fill="#404040">
                                <set attributeName="fill" to="#808080" begin="zoomplus.mouseover" end="zoomplus.mouseout"/>
                        </use>
                        <path d="M-4,0h8M0,-4v8" fill="none" stroke="white" stroke-width="1.5" pointer-events="none"/>
                </g>
                <g id="zoomMin">
                        <use xlink:href="#rim" fill="#404040">
                                <set attributeName="fill" to="#808080" begin="zoomminus.mouseover" end="zoomminus.mouseout"/>
                        </use>
                        <path d="M-4,0h8" fill="none" stroke="white" stroke-width="1.5" pointer-events="none"/>
                </g>
                <g id="dirArrow">
                        <path fill="none" stroke="white" stroke-width="1.5" d="M0,-3.0v7 M-2.5,-0.5L0,-3.0L2.5,-0.5"/>
                </g>
               <g id="resetDef">
                       <use xlink:href="#rim2" fill="#404040">
                               <set attributeName="fill" to="#808080" begin="reset.mouseover" end="reset.mouseout"/>
                       </use>
               </g>
        </defs>

<script type="text/javascript">
var viewWidth = 1691;
var viewHeight = 352;
var sectionId = 'dynsection-0';
</script>
<script xlink:href="svgpan.js"/>
<svg id="graph" class="graph">
<g id="viewport">
<title>segment.cc</title>
<polygon fill="white" stroke="transparent" points="-4,4 -4,-348 1687,-348 1687,4 -4,4"/>
<!-- Node1 -->
<g id="node1" class="node">
<title>Node1</title>
<g id="a_node1"><a xlink:title=" ">
<polygon fill="#bfbfbf" stroke="black" points="843,-324.5 843,-343.5 916,-343.5 916,-324.5 843,-324.5"/>
<text text-anchor="middle" x="879.5" y="-331.5" font-family="Helvetica,sans-Serif" font-size="10.00">segment.cc</text>
</a>
</g>
</g>
<!-- Node2 -->
<g id="node2" class="node">
<title>Node2</title>
<g id="a_node2"><a xlink:href="segment_8h.html" target="_top" xlink:title=" ">
<polygon fill="white" stroke="black" points="799,-268.5 799,-287.5 960,-287.5 960,-268.5 799,-268.5"/>
<text text-anchor="middle" x="879.5" y="-275.5" font-family="Helvetica,sans-Serif" font-size="10.00">maliput_multilane/segment.h</text>
</a>
</g>
</g>
<!-- Node1&#45;&gt;Node2 -->
<g id="edge1" class="edge">
<title>Node1&#45;&gt;Node2</title>
<path fill="none" stroke="midnightblue" d="M879.5,-324.08C879.5,-317.01 879.5,-306.86 879.5,-297.99"/>
<polygon fill="midnightblue" stroke="midnightblue" points="883,-297.75 879.5,-287.75 876,-297.75 883,-297.75"/>
</g>
<!-- Node3 -->
<g id="node3" class="node">
<title>Node3</title>
<g id="a_node3"><a xlink:title=" ">
<polygon fill="white" stroke="#bfbfbf" points="0,-78.5 0,-97.5 65,-97.5 65,-78.5 0,-78.5"/>
<text text-anchor="middle" x="32.5" y="-85.5" font-family="Helvetica,sans-Serif" font-size="10.00">functional</text>
</a>
</g>
</g>
<!-- Node2&#45;&gt;Node3 -->
<g id="edge2" class="edge">
<title>Node2&#45;&gt;Node3</title>
<path fill="none" stroke="midnightblue" d="M798.87,-273.9C672.99,-267.02 423.55,-245.1 224.5,-176 163.04,-154.66 94.34,-121 58.1,-102.43"/>
<polygon fill="midnightblue" stroke="midnightblue" points="59.27,-99.09 48.78,-97.61 56.06,-105.31 59.27,-99.09"/>
</g>
<!-- Node4 -->
<g id="node4" class="node">
<title>Node4</title>
<g id="a_node4"><a xlink:title=" ">
<polygon fill="white" stroke="#bfbfbf" points="83.5,-78.5 83.5,-97.5 141.5,-97.5 141.5,-78.5 83.5,-78.5"/>
<text text-anchor="middle" x="112.5" y="-85.5" font-family="Helvetica,sans-Serif" font-size="10.00">memory</text>
</a>
</g>
</g>
<!-- Node2&#45;&gt;Node4 -->
<g id="edge3" class="edge">
<title>Node2&#45;&gt;Node4</title>
<path fill="none" stroke="midnightblue" d="M798.98,-269.63C686.46,-257.8 476.72,-230.21 305.5,-176 242.72,-156.12 173.29,-121.46 137.26,-102.44"/>
<polygon fill="midnightblue" stroke="midnightblue" points="138.49,-99.13 128.02,-97.51 135.2,-105.3 138.49,-99.13"/>
</g>
<!-- Node5 -->
<g id="node5" class="node">
<title>Node5</title>
<g id="a_node5"><a xlink:title=" ">
<polygon fill="white" stroke="#bfbfbf" points="1139,-78.5 1139,-97.5 1184,-97.5 1184,-78.5 1139,-78.5"/>
<text text-anchor="middle" x="1161.5" y="-85.5" font-family="Helvetica,sans-Serif" font-size="10.00">utility</text>
</a>
</g>
</g>
<!-- Node2&#45;&gt;Node5 -->
<g id="edge4" class="edge">
<title>Node2&#45;&gt;Node5</title>
<path fill="none" stroke="midnightblue" d="M849.62,-268.39C831.96,-261.59 811.05,-250.15 800.5,-232 781.07,-198.57 774.71,-173.81 800.5,-145 848.81,-91.02 1055.36,-130.62 1124.5,-109 1129.68,-107.38 1134.97,-105.01 1139.88,-102.47"/>
<polygon fill="midnightblue" stroke="midnightblue" points="1141.69,-105.47 1148.69,-97.52 1138.26,-99.37 1141.69,-105.47"/>
</g>
<!-- Node6 -->
<g id="node6" class="node">
<title>Node6</title>
<g id="a_node6"><a xlink:title=" ">
<polygon fill="white" stroke="#bfbfbf" points="1320,-212.5 1320,-231.5 1367,-231.5 1367,-212.5 1320,-212.5"/>
<text text-anchor="middle" x="1343.5" y="-219.5" font-family="Helvetica,sans-Serif" font-size="10.00">vector</text>
</a>
</g>
</g>
<!-- Node2&#45;&gt;Node6 -->
<g id="edge5" class="edge">
<title>Node2&#45;&gt;Node6</title>
<path fill="none" stroke="midnightblue" d="M960,-271.57C1045.97,-265.05 1186,-252.38 1305.5,-232 1306.96,-231.75 1308.45,-231.48 1309.95,-231.19"/>
<polygon fill="midnightblue" stroke="midnightblue" points="1310.82,-234.58 1319.88,-229.09 1309.37,-227.73 1310.82,-234.58"/>
</g>
<!-- Node7 -->
<g id="node7" class="node">
<title>Node7</title>
<g id="a_node7"><a xlink:title=" ">
<polygon fill="white" stroke="#bfbfbf" points="1385,-212.5 1385,-231.5 1508,-231.5 1508,-212.5 1385,-212.5"/>
<text text-anchor="middle" x="1446.5" y="-219.5" font-family="Helvetica,sans-Serif" font-size="10.00">maliput/api/junction.h</text>
</a>
</g>
</g>
<!-- Node2&#45;&gt;Node7 -->
<g id="edge6" class="edge">
<title>Node2&#45;&gt;Node7</title>
<path fill="none" stroke="midnightblue" d="M960.08,-270.64C1056.35,-262.83 1222.54,-248.68 1374.68,-232.17"/>
<polygon fill="midnightblue" stroke="midnightblue" points="1375.12,-235.64 1384.68,-231.08 1374.36,-228.68 1375.12,-235.64"/>
</g>
<!-- Node8 -->
<g id="node8" class="node">
<title>Node8</title>
<g id="a_node8"><a xlink:title=" ">
<polygon fill="white" stroke="#bfbfbf" points="315,-151 315,-170 420,-170 420,-151 315,-151"/>
<text text-anchor="middle" x="367.5" y="-158" font-family="Helvetica,sans-Serif" font-size="10.00">maliput/api/lane.h</text>
</a>
</g>
</g>
<!-- Node2&#45;&gt;Node8 -->
<g id="edge7" class="edge">
<title>Node2&#45;&gt;Node8</title>
<path fill="none" stroke="midnightblue" d="M837,-268.45C793.58,-259.64 724.24,-245.34 664.5,-232 559.29,-208.51 533.38,-200.91 428.5,-176 423.53,-174.82 418.33,-173.59 413.16,-172.36"/>
<polygon fill="midnightblue" stroke="midnightblue" points="413.84,-168.92 403.3,-170.01 412.22,-175.73 413.84,-168.92"/>
</g>
<!-- Node9 -->
<g id="node9" class="node">
<title>Node9</title>
<g id="a_node9"><a xlink:title=" ">
<polygon fill="white" stroke="#bfbfbf" points="1526,-212.5 1526,-231.5 1683,-231.5 1683,-212.5 1526,-212.5"/>
<text text-anchor="middle" x="1604.5" y="-219.5" font-family="Helvetica,sans-Serif" font-size="10.00">maliput/api/road_geometry.h</text>
</a>
</g>
</g>
<!-- Node2&#45;&gt;Node9 -->
<g id="edge8" class="edge">
<title>Node2&#45;&gt;Node9</title>
<path fill="none" stroke="midnightblue" d="M960.14,-272.16C1079.3,-264.82 1309.7,-249.9 1515.69,-232.13"/>
<polygon fill="midnightblue" stroke="midnightblue" points="1516.13,-235.61 1525.79,-231.26 1515.53,-228.64 1516.13,-235.61"/>
</g>
<!-- Node10 -->
<g id="node10" class="node">
<title>Node10</title>
<g id="a_node10"><a xlink:title=" ">
<polygon fill="white" stroke="#bfbfbf" points="438,-151 438,-170 565,-170 565,-151 438,-151"/>
<text text-anchor="middle" x="501.5" y="-158" font-family="Helvetica,sans-Serif" font-size="10.00">maliput/api/segment.h</text>
</a>
</g>
</g>
<!-- Node2&#45;&gt;Node10 -->
<g id="edge9" class="edge">
<title>Node2&#45;&gt;Node10</title>
<path fill="none" stroke="midnightblue" d="M851.4,-268.41C784.34,-247.92 614.94,-196.16 539.15,-173.01"/>
<polygon fill="midnightblue" stroke="midnightblue" points="540.12,-169.64 529.53,-170.06 538.07,-176.33 540.12,-169.64"/>
</g>
<!-- Node11 -->
<g id="node11" class="node">
<title>Node11</title>
<g id="a_node11"><a xlink:href="../../maliput/html/maliput__abort_8h.html.html" xlink:title=" ">
<polygon fill="white" stroke="black" points="1085.5,-145.5 1085.5,-175.5 1225.5,-175.5 1225.5,-145.5 1085.5,-145.5"/>
<text text-anchor="start" x="1093.5" y="-163.5" font-family="Helvetica,sans-Serif" font-size="10.00">maliput/common/maliput</text>
<text text-anchor="middle" x="1155.5" y="-152.5" font-family="Helvetica,sans-Serif" font-size="10.00">_abort.h</text>
</a>
</g>
</g>
<!-- Node2&#45;&gt;Node11 -->
<g id="edge10" class="edge">
<title>Node2&#45;&gt;Node11</title>
<path fill="none" stroke="midnightblue" d="M900.24,-268.32C945.23,-249.49 1052.52,-204.59 1112.7,-179.41"/>
<polygon fill="midnightblue" stroke="midnightblue" points="1114.06,-182.63 1121.94,-175.55 1111.36,-176.18 1114.06,-182.63"/>
</g>
<!-- Node12 -->
<g id="node12" class="node">
<title>Node12</title>
<g id="a_node12"><a xlink:href="../../maliput/html/maliput__copyable_8h.html.html" xlink:title=" ">
<polygon fill="white" stroke="black" points="1142.5,-0.5 1142.5,-30.5 1282.5,-30.5 1282.5,-0.5 1142.5,-0.5"/>
<text text-anchor="start" x="1150.5" y="-18.5" font-family="Helvetica,sans-Serif" font-size="10.00">maliput/common/maliput</text>
<text text-anchor="middle" x="1212.5" y="-7.5" font-family="Helvetica,sans-Serif" font-size="10.00">_copyable.h</text>
</a>
</g>
</g>
<!-- Node2&#45;&gt;Node12 -->
<g id="edge11" class="edge">
<title>Node2&#45;&gt;Node12</title>
<path fill="none" stroke="midnightblue" d="M941.02,-268.46C1032.94,-254.3 1199.17,-222.79 1234.5,-176 1264.86,-135.8 1241.57,-73.16 1225.13,-39.59"/>
<polygon fill="midnightblue" stroke="midnightblue" points="1228.17,-37.87 1220.51,-30.55 1221.94,-41.05 1228.17,-37.87"/>
</g>
<!-- Node13 -->
<g id="node13" class="node">
<title>Node13</title>
<g id="a_node13"><a xlink:href="cubic__polynomial_8h.html" target="_top" xlink:title=" ">
<polygon fill="white" stroke="black" points="1280.5,-73 1280.5,-103 1414.5,-103 1414.5,-73 1280.5,-73"/>
<text text-anchor="start" x="1288.5" y="-91" font-family="Helvetica,sans-Serif" font-size="10.00">maliput_multilane/cubic</text>
<text text-anchor="middle" x="1347.5" y="-80" font-family="Helvetica,sans-Serif" font-size="10.00">_polynomial.h</text>
</a>
</g>
</g>
<!-- Node2&#45;&gt;Node13 -->
<g id="edge12" class="edge">
<title>Node2&#45;&gt;Node13</title>
<path fill="none" stroke="midnightblue" d="M960.02,-276.14C1058.66,-273.65 1218.7,-264.54 1267.5,-232 1309.57,-203.95 1331.79,-145.9 1341.44,-113.04"/>
<polygon fill="midnightblue" stroke="midnightblue" points="1344.83,-113.9 1344.14,-103.33 1338.09,-112.03 1344.83,-113.9"/>
</g>
<!-- Node17 -->
<g id="node17" class="node">
<title>Node17</title>
<g id="a_node17"><a xlink:href="lane_8h.html" target="_top" xlink:title=" ">
<polygon fill="white" stroke="black" points="810,-212.5 810,-231.5 949,-231.5 949,-212.5 810,-212.5"/>
<text text-anchor="middle" x="879.5" y="-219.5" font-family="Helvetica,sans-Serif" font-size="10.00">maliput_multilane/lane.h</text>
</a>
</g>
</g>
<!-- Node2&#45;&gt;Node17 -->
<g id="edge17" class="edge">
<title>Node2&#45;&gt;Node17</title>
<path fill="none" stroke="midnightblue" d="M879.5,-268.08C879.5,-261.01 879.5,-250.86 879.5,-241.99"/>
<polygon fill="midnightblue" stroke="midnightblue" points="883,-241.75 879.5,-231.75 876,-241.75 883,-241.75"/>
</g>
<!-- Node20 -->
<g id="node20" class="node">
<title>Node20</title>
<g id="a_node20"><a xlink:href="road__curve_8h.html" target="_top" xlink:title=" ">
<polygon fill="white" stroke="black" points="622,-145.5 622,-175.5 753,-175.5 753,-145.5 622,-145.5"/>
<text text-anchor="start" x="630" y="-163.5" font-family="Helvetica,sans-Serif" font-size="10.00">maliput_multilane/road</text>
<text text-anchor="middle" x="687.5" y="-152.5" font-family="Helvetica,sans-Serif" font-size="10.00">_curve.h</text>
</a>
</g>
</g>
<!-- Node2&#45;&gt;Node20 -->
<g id="edge38" class="edge">
<title>Node2&#45;&gt;Node20</title>
<path fill="none" stroke="midnightblue" d="M850.62,-268.42C827.21,-260.77 793.9,-248.27 767.5,-232 745.22,-218.27 723.15,-198.21 707.86,-182.99"/>
<polygon fill="midnightblue" stroke="midnightblue" points="710.02,-180.2 700.51,-175.54 705.04,-185.12 710.02,-180.2"/>
</g>
<!-- Node13&#45;&gt;Node12 -->
<g id="edge15" class="edge">
<title>Node13&#45;&gt;Node12</title>
<path fill="none" stroke="midnightblue" d="M1320.51,-72.9C1299.81,-62.1 1271.06,-47.08 1248.42,-35.26"/>
<polygon fill="midnightblue" stroke="midnightblue" points="1249.93,-32.1 1239.45,-30.57 1246.69,-38.3 1249.93,-32.1"/>
</g>
<!-- Node14 -->
<g id="node14" class="node">
<title>Node14</title>
<g id="a_node14"><a xlink:title=" ">
<polygon fill="white" stroke="#bfbfbf" points="1535,-6 1535,-25 1582,-25 1582,-6 1535,-6"/>
<text text-anchor="middle" x="1558.5" y="-13" font-family="Helvetica,sans-Serif" font-size="10.00">cmath</text>
</a>
</g>
</g>
<!-- Node13&#45;&gt;Node14 -->
<g id="edge13" class="edge">
<title>Node13&#45;&gt;Node14</title>
<path fill="none" stroke="midnightblue" d="M1397.1,-72.98C1433.08,-62.42 1482.74,-47.07 1525.5,-31 1527.11,-30.39 1528.76,-29.75 1530.41,-29.09"/>
<polygon fill="midnightblue" stroke="midnightblue" points="1531.94,-32.24 1539.8,-25.14 1529.22,-25.79 1531.94,-32.24"/>
</g>
<!-- Node15 -->
<g id="node15" class="node">
<title>Node15</title>
<g id="a_node15"><a xlink:title=" ">
<polygon fill="white" stroke="#bfbfbf" points="1301,-6 1301,-25 1358,-25 1358,-6 1301,-6"/>
<text text-anchor="middle" x="1329.5" y="-13" font-family="Helvetica,sans-Serif" font-size="10.00">ostream</text>
</a>
</g>
</g>
<!-- Node13&#45;&gt;Node15 -->
<g id="edge14" class="edge">
<title>Node13&#45;&gt;Node15</title>
<path fill="none" stroke="midnightblue" d="M1343.86,-72.73C1341.09,-61.89 1337.26,-46.88 1334.25,-35.1"/>
<polygon fill="midnightblue" stroke="midnightblue" points="1337.64,-34.22 1331.77,-25.39 1330.85,-35.95 1337.64,-34.22"/>
</g>
<!-- Node16 -->
<g id="node16" class="node">
<title>Node16</title>
<g id="a_node16"><a xlink:href="../../maliput/html/maliput__unused_8h.html.html" xlink:title=" ">
<polygon fill="white" stroke="black" points="1376.5,-0.5 1376.5,-30.5 1516.5,-30.5 1516.5,-0.5 1376.5,-0.5"/>
<text text-anchor="start" x="1384.5" y="-18.5" font-family="Helvetica,sans-Serif" font-size="10.00">maliput/common/maliput</text>
<text text-anchor="middle" x="1446.5" y="-7.5" font-family="Helvetica,sans-Serif" font-size="10.00">_unused.h</text>
</a>
</g>
</g>
<!-- Node13&#45;&gt;Node16 -->
<g id="edge16" class="edge">
<title>Node13&#45;&gt;Node16</title>
<path fill="none" stroke="midnightblue" d="M1367.53,-72.73C1382.12,-62.35 1402.08,-48.13 1418.28,-36.6"/>
<polygon fill="midnightblue" stroke="midnightblue" points="1420.72,-39.16 1426.83,-30.5 1416.66,-33.45 1420.72,-39.16"/>
</g>
<!-- Node17&#45;&gt;Node4 -->
<g id="edge18" class="edge">
<title>Node17&#45;&gt;Node4</title>
<path fill="none" stroke="midnightblue" d="M809.83,-218.77C754.28,-214.79 675.62,-204.13 612.5,-176 592.28,-166.99 594.08,-153.18 573.5,-145 398.16,-75.32 331.59,-161.99 150.5,-109 145.18,-107.44 139.75,-105.1 134.71,-102.57"/>
<polygon fill="midnightblue" stroke="midnightblue" points="136.11,-99.34 125.66,-97.6 132.74,-105.48 136.11,-99.34"/>
</g>
<!-- Node17&#45;&gt;Node8 -->
<g id="edge21" class="edge">
<title>Node17&#45;&gt;Node8</title>
<path fill="none" stroke="midnightblue" d="M809.97,-216.96C721.06,-211.14 562.55,-198.52 428.5,-176 422.52,-175 416.25,-173.74 410.1,-172.39"/>
<polygon fill="midnightblue" stroke="midnightblue" points="410.47,-168.89 399.94,-170.06 408.91,-175.71 410.47,-168.89"/>
</g>
<!-- Node17&#45;&gt;Node10 -->
<g id="edge22" class="edge">
<title>Node17&#45;&gt;Node10</title>
<path fill="none" stroke="midnightblue" d="M818.5,-212.49C757.81,-203.87 662.08,-189.87 579.5,-176 571.86,-174.72 563.81,-173.3 555.9,-171.86"/>
<polygon fill="midnightblue" stroke="midnightblue" points="556.47,-168.41 546,-170.05 555.21,-175.3 556.47,-168.41"/>
</g>
<!-- Node17&#45;&gt;Node11 -->
<g id="edge23" class="edge">
<title>Node17&#45;&gt;Node11</title>
<path fill="none" stroke="midnightblue" d="M919.04,-212.48C961.05,-203.42 1028.46,-188.89 1080.58,-177.65"/>
<polygon fill="midnightblue" stroke="midnightblue" points="1081.41,-181.05 1090.45,-175.52 1079.94,-174.21 1081.41,-181.05"/>
</g>
<!-- Node17&#45;&gt;Node12 -->
<g id="edge24" class="edge">
<title>Node17&#45;&gt;Node12</title>
<path fill="none" stroke="midnightblue" d="M912.97,-212.46C938.22,-205.12 973.07,-193.01 1000.5,-176 1017.6,-165.39 1015.73,-154.44 1033.5,-145 1097.48,-111 1141.52,-160.48 1192.5,-109 1210.22,-91.11 1213.89,-61.48 1213.98,-40.58"/>
<polygon fill="midnightblue" stroke="midnightblue" points="1217.48,-40.48 1213.76,-30.56 1210.48,-40.64 1217.48,-40.48"/>
</g>
<!-- Node17&#45;&gt;Node13 -->
<g id="edge25" class="edge">
<title>Node17&#45;&gt;Node13</title>
<path fill="none" stroke="midnightblue" d="M923.11,-212.43C954.77,-205.23 998.09,-193.3 1033.5,-176 1054.67,-165.66 1054.93,-154.48 1076.5,-145 1094.17,-137.23 1196.43,-117.15 1270.13,-103.28"/>
<polygon fill="midnightblue" stroke="midnightblue" points="1271.14,-106.65 1280.33,-101.36 1269.85,-99.77 1271.14,-106.65"/>
</g>
<!-- Node18 -->
<g id="node18" class="node">
<title>Node18</title>
<g id="a_node18"><a xlink:title=" ">
<polygon fill="white" stroke="#bfbfbf" points="809.5,-151 809.5,-170 865.5,-170 865.5,-151 809.5,-151"/>
<text text-anchor="middle" x="837.5" y="-158" font-family="Helvetica,sans-Serif" font-size="10.00">optional</text>
</a>
</g>
</g>
<!-- Node17&#45;&gt;Node18 -->
<g id="edge19" class="edge">
<title>Node17&#45;&gt;Node18</title>
<path fill="none" stroke="midnightblue" d="M873.48,-212.48C867.24,-203.64 857.33,-189.59 849.48,-178.48"/>
<polygon fill="midnightblue" stroke="midnightblue" points="852.13,-176.16 843.51,-170.01 846.41,-180.2 852.13,-176.16"/>
</g>
<!-- Node19 -->
<g id="node19" class="node">
<title>Node19</title>
<g id="a_node19"><a xlink:title=" ">
<polygon fill="white" stroke="#bfbfbf" points="883.5,-145.5 883.5,-175.5 991.5,-175.5 991.5,-145.5 883.5,-145.5"/>
<text text-anchor="start" x="891.5" y="-163.5" font-family="Helvetica,sans-Serif" font-size="10.00">maliput/api/branch</text>
<text text-anchor="middle" x="937.5" y="-152.5" font-family="Helvetica,sans-Serif" font-size="10.00">_point.h</text>
</a>
</g>
</g>
<!-- Node17&#45;&gt;Node19 -->
<g id="edge20" class="edge">
<title>Node17&#45;&gt;Node19</title>
<path fill="none" stroke="midnightblue" d="M887.81,-212.48C895.3,-204.79 906.63,-193.17 916.58,-182.96"/>
<polygon fill="midnightblue" stroke="midnightblue" points="919.36,-185.13 923.83,-175.52 914.34,-180.24 919.36,-185.13"/>
</g>
<!-- Node17&#45;&gt;Node20 -->
<g id="edge26" class="edge">
<title>Node17&#45;&gt;Node20</title>
<path fill="none" stroke="midnightblue" d="M851.99,-212.48C823.56,-203.66 778.4,-189.67 742.58,-178.57"/>
<polygon fill="midnightblue" stroke="midnightblue" points="743.34,-175.14 732.75,-175.52 741.27,-181.83 743.34,-175.14"/>
</g>
<!-- Node20&#45;&gt;Node3 -->
<g id="edge27" class="edge">
<title>Node20&#45;&gt;Node3</title>
<path fill="none" stroke="midnightblue" d="M621.86,-150.53C606.04,-148.54 589.18,-146.56 573.5,-145 352.24,-122.96 289.48,-165.78 74.5,-109 68.4,-107.39 62.11,-104.9 56.31,-102.21"/>
<polygon fill="midnightblue" stroke="midnightblue" points="57.66,-98.97 47.15,-97.63 54.53,-105.23 57.66,-98.97"/>
</g>
<!-- Node20&#45;&gt;Node4 -->
<g id="edge28" class="edge">
<title>Node20&#45;&gt;Node4</title>
<path fill="none" stroke="midnightblue" d="M621.66,-147.02C616.88,-146.28 612.12,-145.6 607.5,-145 405.45,-118.8 346.22,-165.61 150.5,-109 145.18,-107.46 139.74,-105.13 134.7,-102.59"/>
<polygon fill="midnightblue" stroke="midnightblue" points="136.1,-99.37 125.65,-97.63 132.74,-105.51 136.1,-99.37"/>
</g>
<!-- Node20&#45;&gt;Node5 -->
<g id="edge29" class="edge">
<title>Node20&#45;&gt;Node5</title>
<path fill="none" stroke="midnightblue" d="M753.35,-147.14C758.13,-146.37 762.89,-145.65 767.5,-145 925.41,-122.76 972.06,-155.83 1124.5,-109 1129.69,-107.41 1134.98,-105.05 1139.89,-102.51"/>
<polygon fill="midnightblue" stroke="midnightblue" points="1141.7,-105.51 1148.7,-97.55 1138.27,-99.41 1141.7,-105.51"/>
</g>
<!-- Node20&#45;&gt;Node12 -->
<g id="edge33" class="edge">
<title>Node20&#45;&gt;Node12</title>
<path fill="none" stroke="midnightblue" d="M753.36,-147.19C758.14,-146.41 762.89,-145.67 767.5,-145 910.43,-124.11 961.5,-173.99 1090.5,-109 1113.25,-97.54 1109.77,-83.11 1129.5,-67 1143.78,-55.34 1161,-44.43 1176.05,-35.76"/>
<polygon fill="midnightblue" stroke="midnightblue" points="1178.1,-38.62 1185.09,-30.66 1174.66,-32.52 1178.1,-38.62"/>
</g>
<!-- Node20&#45;&gt;Node13 -->
<g id="edge37" class="edge">
<title>Node20&#45;&gt;Node13</title>
<path fill="none" stroke="midnightblue" d="M753.18,-150.67C768.68,-148.69 785.17,-146.69 800.5,-145 974.41,-125.86 1018.6,-128.2 1192.5,-109 1217.86,-106.2 1245.51,-102.76 1270.34,-99.52"/>
<polygon fill="midnightblue" stroke="midnightblue" points="1270.97,-102.97 1280.43,-98.2 1270.06,-96.03 1270.97,-102.97"/>
</g>
<!-- Node21 -->
<g id="node21" class="node">
<title>Node21</title>
<g id="a_node21"><a xlink:title=" ">
<polygon fill="white" stroke="#bfbfbf" points="790.5,-73 790.5,-103 932.5,-103 932.5,-73 790.5,-73"/>
<text text-anchor="start" x="798.5" y="-91" font-family="Helvetica,sans-Serif" font-size="10.00">drake/systems/analysis</text>
<text text-anchor="middle" x="861.5" y="-80" font-family="Helvetica,sans-Serif" font-size="10.00">/antiderivative_function.h</text>
</a>
</g>
</g>
<!-- Node20&#45;&gt;Node21 -->
<g id="edge30" class="edge">
<title>Node20&#45;&gt;Node21</title>
<path fill="none" stroke="midnightblue" d="M722.29,-145.4C749.56,-134.36 787.68,-118.91 817.14,-106.97"/>
<polygon fill="midnightblue" stroke="midnightblue" points="818.81,-110.07 826.77,-103.07 816.18,-103.58 818.81,-110.07"/>
</g>
<!-- Node22 -->
<g id="node22" class="node">
<title>Node22</title>
<g id="a_node22"><a xlink:title=" ">
<polygon fill="white" stroke="#bfbfbf" points="951,-67.5 951,-108.5 1082,-108.5 1082,-67.5 951,-67.5"/>
<text text-anchor="start" x="959" y="-96.5" font-family="Helvetica,sans-Serif" font-size="10.00">drake/systems/analysis</text>
<text text-anchor="start" x="959" y="-85.5" font-family="Helvetica,sans-Serif" font-size="10.00">/scalar_initial_value</text>
<text text-anchor="middle" x="1016.5" y="-74.5" font-family="Helvetica,sans-Serif" font-size="10.00">_problem.h</text>
</a>
</g>
</g>
<!-- Node20&#45;&gt;Node22 -->
<g id="edge31" class="edge">
<title>Node20&#45;&gt;Node22</title>
<path fill="none" stroke="midnightblue" d="M753,-147.68C802.13,-138.53 871.24,-125.09 940.88,-109.08"/>
<polygon fill="midnightblue" stroke="midnightblue" points="941.76,-112.47 950.71,-106.8 940.18,-105.65 941.76,-112.47"/>
</g>
<!-- Node23 -->
<g id="node23" class="node">
<title>Node23</title>
<g id="a_node23"><a xlink:href="../../maliput/html/lane__data_8h.html.html" xlink:title=" ">
<polygon fill="white" stroke="black" points="159.5,-78.5 159.5,-97.5 291.5,-97.5 291.5,-78.5 159.5,-78.5"/>
<text text-anchor="middle" x="225.5" y="-85.5" font-family="Helvetica,sans-Serif" font-size="10.00">maliput/api/lane_data.h</text>
</a>
</g>
</g>
<!-- Node20&#45;&gt;Node23 -->
<g id="edge32" class="edge">
<title>Node20&#45;&gt;Node23</title>
<path fill="none" stroke="midnightblue" d="M621.63,-147.22C616.86,-146.44 612.11,-145.69 607.5,-145 471.62,-124.74 435.44,-134.77 300.5,-109 288.42,-106.69 275.42,-103.49 263.69,-100.32"/>
<polygon fill="midnightblue" stroke="midnightblue" points="264.34,-96.87 253.77,-97.57 262.47,-103.61 264.34,-96.87"/>
</g>
<!-- Node24 -->
<g id="node24" class="node">
<title>Node24</title>
<g id="a_node24"><a xlink:href="../../maliput/html/roll__pitch__yaw_8h.html.html" xlink:title=" ">
<polygon fill="white" stroke="black" points="310,-73 310,-103 441,-103 441,-73 310,-73"/>
<text text-anchor="start" x="318" y="-91" font-family="Helvetica,sans-Serif" font-size="10.00">maliput/math/roll_pitch</text>
<text text-anchor="middle" x="375.5" y="-80" font-family="Helvetica,sans-Serif" font-size="10.00">_yaw.h</text>
</a>
</g>
</g>
<!-- Node20&#45;&gt;Node24 -->
<g id="edge34" class="edge">
<title>Node20&#45;&gt;Node24</title>
<path fill="none" stroke="midnightblue" d="M621.87,-146.58C573.95,-136.91 507.5,-122.98 449.5,-109 445.09,-107.94 440.54,-106.8 435.96,-105.63"/>
<polygon fill="midnightblue" stroke="midnightblue" points="436.52,-102.16 425.96,-103.03 434.76,-108.94 436.52,-102.16"/>
</g>
<!-- Node25 -->
<g id="node25" class="node">
<title>Node25</title>
<g id="a_node25"><a xlink:href="../../maliput/html/vector_8h.html.html" xlink:title=" ">
<polygon fill="white" stroke="black" points="459,-78.5 459,-97.5 584,-97.5 584,-78.5 459,-78.5"/>
<text text-anchor="middle" x="521.5" y="-85.5" font-family="Helvetica,sans-Serif" font-size="10.00">maliput/math/vector.h</text>
</a>
</g>
</g>
<!-- Node20&#45;&gt;Node25 -->
<g id="edge35" class="edge">
<title>Node20&#45;&gt;Node25</title>
<path fill="none" stroke="midnightblue" d="M654.31,-145.4C624.18,-132.61 580.15,-113.91 551.17,-101.6"/>
<polygon fill="midnightblue" stroke="midnightblue" points="552.17,-98.22 541.59,-97.53 549.43,-104.66 552.17,-98.22"/>
</g>
<!-- Node26 -->
<g id="node26" class="node">
<title>Node26</title>
<g id="a_node26"><a xlink:href="computation__policy_8h.html" target="_top" xlink:title=" ">
<polygon fill="white" stroke="black" points="602.5,-73 602.5,-103 772.5,-103 772.5,-73 602.5,-73"/>
<text text-anchor="start" x="610.5" y="-91" font-family="Helvetica,sans-Serif" font-size="10.00">maliput_multilane/computation</text>
<text text-anchor="middle" x="687.5" y="-80" font-family="Helvetica,sans-Serif" font-size="10.00">_policy.h</text>
</a>
</g>
</g>
<!-- Node20&#45;&gt;Node26 -->
<g id="edge36" class="edge">
<title>Node20&#45;&gt;Node26</title>
<path fill="none" stroke="midnightblue" d="M687.5,-145.23C687.5,-136.16 687.5,-124.16 687.5,-113.58"/>
<polygon fill="midnightblue" stroke="midnightblue" points="691,-113.25 687.5,-103.25 684,-113.25 691,-113.25"/>
</g>
</g>
</svg>
        <g id="navigator" transform="translate(0 0)" fill="#404254">
                <rect fill="#f2f5e9" fill-opacity="0.5" stroke="#606060" stroke-width=".5" x="0" y="0" width="60" height="60"/>
                <use id="zoomplus" xlink:href="#zoomPlus" x="17" y="9" onmousedown="handleZoom(evt,'in')"/>
                <use id="zoomminus" xlink:href="#zoomMin" x="42" y="9" onmousedown="handleZoom(evt,'out')"/>
                <use id="reset" xlink:href="#resetDef" x="30" y="36" onmousedown="handleReset()"/>
                <g id="arrowUp" xlink:href="#dirArrow" transform="translate(30 24)" onmousedown="handlePan(0,-1)">
                  <use xlink:href="#rim" fill="#404040">
                        <set attributeName="fill" to="#808080" begin="arrowUp.mouseover" end="arrowUp.mouseout"/>
                  </use>
                  <path fill="none" stroke="white" stroke-width="1.5" d="M0,-3.0v7 M-2.5,-0.5L0,-3.0L2.5,-0.5"/>
                </g>
                <g id="arrowRight" xlink:href="#dirArrow" transform="rotate(90) translate(36 -43)" onmousedown="handlePan(1,0)">
                  <use xlink:href="#rim" fill="#404040">
                        <set attributeName="fill" to="#808080" begin="arrowRight.mouseover" end="arrowRight.mouseout"/>
                  </use>
                  <path fill="none" stroke="white" stroke-width="1.5" d="M0,-3.0v7 M-2.5,-0.5L0,-3.0L2.5,-0.5"/>
                </g>
                <g id="arrowDown" xlink:href="#dirArrow" transform="rotate(180) translate(-30 -48)" onmousedown="handlePan(0,1)">
                  <use xlink:href="#rim" fill="#404040">
                        <set attributeName="fill" to="#808080" begin="arrowDown.mouseover" end="arrowDown.mouseout"/>
                  </use>
                  <path fill="none" stroke="white" stroke-width="1.5" d="M0,-3.0v7 M-2.5,-0.5L0,-3.0L2.5,-0.5"/>
                </g>
                <g id="arrowLeft" xlink:href="#dirArrow" transform="rotate(270) translate(-36 17)" onmousedown="handlePan(-1,0)">
                  <use xlink:href="#rim" fill="#404040">
                        <set attributeName="fill" to="#808080" begin="arrowLeft.mouseover" end="arrowLeft.mouseout"/>
                  </use>
                  <path fill="none" stroke="white" stroke-width="1.5" d="M0,-3.0v7 M-2.5,-0.5L0,-3.0L2.5,-0.5"/>
                </g>
        </g>
        <svg viewBox="0 0 15 15" width="100%" height="30px" preserveAspectRatio="xMaxYMin meet">
         <g id="arrow_out" transform="scale(0.3 0.3)">
          <a xlink:href="segment_8cc__incl_org.svg" target="_base">
           <rect id="button" ry="5" rx="5" y="6" x="6" height="38" width="38"
                fill="#f2f5e9" fill-opacity="0.5" stroke="#606060" stroke-width="1.0"/>
           <path id="arrow"
             d="M 11.500037,31.436501 C 11.940474,20.09759 22.043105,11.32322 32.158766,21.979434 L 37.068811,17.246167 C 37.068811,17.246167 37.088388,32 37.088388,32 L 22.160133,31.978069 C 22.160133,31.978069 26.997745,27.140456 26.997745,27.140456 C 18.528582,18.264221 13.291696,25.230495 11.500037,31.436501 z"
             style="fill:#404040;"/>
          </a>
         </g>
        </svg>
</svg>
