<?xml version="1.0" encoding="UTF-8" standalone="no"?>
<!DOCTYPE svg PUBLIC "-//W3C//DTD SVG 1.1//EN"
 "http://www.w3.org/Graphics/SVG/1.1/DTD/svg11.dtd">
<!-- Generated by graphviz version 2.40.1 (20161225.0304)
 -->
<!-- Title: lane.h Pages: 1 -->
<!--zoomable 408 -->
<svg id="main" version="1.1" xmlns="http://www.w3.org/2000/svg" xmlns:xlink="http://www.w3.org/1999/xlink" xml:space="preserve" onload="init(evt)">
<style type="text/css"><![CDATA[
.edge:hover path { stroke: red; }
.edge:hover polygon { stroke: red; fill: red; }
]]></style>
<script type="text/javascript"><![CDATA[
var edges = document.getElementsByTagName('g');
if (edges && edges.length) {
  for (var i=0;i<edges.length;i++) {
    if (edges[i].id.substr(0,4)=='edge') {
      edges[i].setAttribute('class','edge');
    }
  }
}
]]></script>
        <defs>
                <circle id="rim" cx="0" cy="0" r="7"/>
                <circle id="rim2" cx="0" cy="0" r="3.5"/>
                <g id="zoomPlus">
                        <use xlink:href="#rim" fill="#404040">
                                <set attributeName="fill" to="#808080" begin="zoomplus.mouseover" end="zoomplus.mouseout"/>
                        </use>
                        <path d="M-4,0h8M0,-4v8" fill="none" stroke="white" stroke-width="1.5" pointer-events="none"/>
                </g>
                <g id="zoomMin">
                        <use xlink:href="#rim" fill="#404040">
                                <set attributeName="fill" to="#808080" begin="zoomminus.mouseover" end="zoomminus.mouseout"/>
                        </use>
                        <path d="M-4,0h8" fill="none" stroke="white" stroke-width="1.5" pointer-events="none"/>
                </g>
                <g id="dirArrow">
                        <path fill="none" stroke="white" stroke-width="1.5" d="M0,-3.0v7 M-2.5,-0.5L0,-3.0L2.5,-0.5"/>
                </g>
               <g id="resetDef">
                       <use xlink:href="#rim2" fill="#404040">
                               <set attributeName="fill" to="#808080" begin="reset.mouseover" end="reset.mouseout"/>
                       </use>
               </g>
        </defs>

<script type="text/javascript">
var viewWidth = 1349;
var viewHeight = 408;
var sectionId = 'dynsection-0';
</script>
<script xlink:href="svgpan.js"/>
<svg id="graph" class="graph">
<g id="viewport">
<title>lane.h</title>
<polygon fill="#ffffff" stroke="transparent" points="-4,4 -4,-404 1344.5,-404 1344.5,4 -4,4"/>
<!-- Node0 -->
<g id="node1" class="node">
<title>Node0</title>
<polygon fill="#bfbfbf" stroke="#000000" points="636,-380.5 636,-399.5 683,-399.5 683,-380.5 636,-380.5"/>
<text text-anchor="middle" x="659.5" y="-387.5" font-family="Helvetica,sans-Serif" font-size="10.00" fill="#000000">lane.h</text>
</g>
<!-- Node1 -->
<g id="node2" class="node">
<title>Node1</title>
<polygon fill="#ffffff" stroke="#bfbfbf" points="365.5,-324.5 365.5,-343.5 423.5,-343.5 423.5,-324.5 365.5,-324.5"/>
<text text-anchor="middle" x="394.5" y="-331.5" font-family="Helvetica,sans-Serif" font-size="10.00" fill="#000000">memory</text>
</g>
<!-- Node0&#45;&gt;Node1 -->
<g id="edge1" class="edge">
<title>Node0&#45;&gt;Node1</title>
<path fill="none" stroke="#191970" d="M635.8749,-385.6753C596.2025,-378.3143 513.4797,-362.5434 433.7178,-344.185"/>
<polygon fill="#191970" stroke="#191970" points="434.0357,-340.6659 423.5035,-341.8157 432.454,-347.4848 434.0357,-340.6659"/>
</g>
<!-- Node2 -->
<g id="node3" class="node">
<title>Node2</title>
<polygon fill="#ffffff" stroke="#bfbfbf" points="698.5,-129 698.5,-148 754.5,-148 754.5,-129 698.5,-129"/>
<text text-anchor="middle" x="726.5" y="-136" font-family="Helvetica,sans-Serif" font-size="10.00" fill="#000000">optional</text>
</g>
<!-- Node0&#45;&gt;Node2 -->
<g id="edge2" class="edge">
<title>Node0&#45;&gt;Node2</title>
<path fill="none" stroke="#191970" d="M662.6272,-380.1655C665.5491,-370.8761 669.9773,-356.537 673.5,-344 692.5585,-276.1731 712.716,-195.0176 721.6973,-158.2878"/>
<polygon fill="#191970" stroke="#191970" points="725.1447,-158.9235 724.1122,-148.3791 718.3438,-157.266 725.1447,-158.9235"/>
</g>
<!-- Node3 -->
<g id="node4" class="node">
<title>Node3</title>
<polygon fill="#ffffff" stroke="#bfbfbf" points="636.5,-129 636.5,-148 680.5,-148 680.5,-129 636.5,-129"/>
<text text-anchor="middle" x="658.5" y="-136" font-family="Helvetica,sans-Serif" font-size="10.00" fill="#000000">string</text>
</g>
<!-- Node0&#45;&gt;Node3 -->
<g id="edge3" class="edge">
<title>Node0&#45;&gt;Node3</title>
<path fill="none" stroke="#191970" d="M659.462,-380.448C659.3148,-343.411 658.7797,-208.8321 658.5778,-158.0638"/>
<polygon fill="#191970" stroke="#191970" points="662.0779,-158.0475 658.538,-148.0615 655.0779,-158.0754 662.0779,-158.0475"/>
</g>
<!-- Node4 -->
<g id="node5" class="node">
<title>Node4</title>
<g id="a_node5"><a xlink:href="lane__data_8h.html" target="_top" xlink:title="maliput/api/lane_data.h">
<polygon fill="#ffffff" stroke="#000000" points="441.5,-324.5 441.5,-343.5 573.5,-343.5 573.5,-324.5 441.5,-324.5"/>
<text text-anchor="middle" x="507.5" y="-331.5" font-family="Helvetica,sans-Serif" font-size="10.00" fill="#000000">maliput/api/lane_data.h</text>
</a>
</g>
</g>
<!-- Node0&#45;&gt;Node4 -->
<g id="edge4" class="edge">
<title>Node0&#45;&gt;Node4</title>
<path fill="none" stroke="#191970" d="M635.75,-381.25C610.8783,-372.0867 571.5363,-357.5923 542.9802,-347.0717"/>
<polygon fill="#191970" stroke="#191970" points="543.9643,-343.7043 533.3708,-343.5314 541.5443,-350.2727 543.9643,-343.7043"/>
</g>
<!-- Node7 -->
<g id="node8" class="node">
<title>Node7</title>
<g id="a_node8"><a xlink:href="maliput__copyable_8h.html" target="_top" xlink:title="Code in this file is inspired by: https://github.com/RobotLocomotion/drake/blob/master/common/drake_c...">
<polygon fill="#ffffff" stroke="#000000" points="374.5,-123.5 374.5,-153.5 514.5,-153.5 514.5,-123.5 374.5,-123.5"/>
<text text-anchor="start" x="382.5" y="-141.5" font-family="Helvetica,sans-Serif" font-size="10.00" fill="#000000">maliput/common/maliput</text>
<text text-anchor="middle" x="444.5" y="-130.5" font-family="Helvetica,sans-Serif" font-size="10.00" fill="#000000">_copyable.h</text>
</a>
</g>
</g>
<!-- Node0&#45;&gt;Node7 -->
<g id="edge54" class="edge">
<title>Node0&#45;&gt;Node7</title>
<path fill="none" stroke="#191970" d="M651.3343,-380.448C620.3906,-344.2511 509.8013,-214.8873 464.2867,-161.6458"/>
<polygon fill="#191970" stroke="#191970" points="466.7211,-159.1072 457.5628,-153.7804 461.4004,-163.6558 466.7211,-159.1072"/>
</g>
<!-- Node8 -->
<g id="node9" class="node">
<title>Node8</title>
<g id="a_node9"><a xlink:href="maliput__throw_8h.html" target="_top" xlink:title="Code in this file is inspired by: https://github.com/RobotLocomotion/drake/blob/master/common/drake_t...">
<polygon fill="#ffffff" stroke="#000000" points="1047.5,-.5 1047.5,-30.5 1187.5,-30.5 1187.5,-.5 1047.5,-.5"/>
<text text-anchor="start" x="1055.5" y="-18.5" font-family="Helvetica,sans-Serif" font-size="10.00" fill="#000000">maliput/common/maliput</text>
<text text-anchor="middle" x="1117.5" y="-7.5" font-family="Helvetica,sans-Serif" font-size="10.00" fill="#000000">_throw.h</text>
</a>
</g>
</g>
<!-- Node0&#45;&gt;Node8 -->
<g id="edge55" class="edge">
<title>Node0&#45;&gt;Node8</title>
<path fill="none" stroke="#191970" d="M683.3378,-388.466C803.87,-380.4 1340.5,-340.6614 1340.5,-272.5 1340.5,-272.5 1340.5,-272.5 1340.5,-138.5 1340.5,-71.2451 1261.7676,-40.488 1197.8666,-26.6006"/>
<polygon fill="#191970" stroke="#191970" points="1198.2535,-23.1068 1187.7525,-24.5136 1196.8388,-29.9623 1198.2535,-23.1068"/>
</g>
<!-- Node19 -->
<g id="node20" class="node">
<title>Node19</title>
<g id="a_node20"><a xlink:href="type__specific__identifier_8h.html" target="_top" xlink:title="maliput/api/type_specific\l_identifier.h">
<polygon fill="#ffffff" stroke="#000000" points="835.5,-257.5 835.5,-287.5 975.5,-287.5 975.5,-257.5 835.5,-257.5"/>
<text text-anchor="start" x="843.5" y="-275.5" font-family="Helvetica,sans-Serif" font-size="10.00" fill="#000000">maliput/api/type_specific</text>
<text text-anchor="middle" x="905.5" y="-264.5" font-family="Helvetica,sans-Serif" font-size="10.00" fill="#000000">_identifier.h</text>
</a>
</g>
</g>
<!-- Node0&#45;&gt;Node19 -->
<g id="edge35" class="edge">
<title>Node0&#45;&gt;Node19</title>
<path fill="none" stroke="#191970" d="M679.6312,-380.3845C720.0086,-361.0985 811.5684,-317.3657 864.8893,-291.8974"/>
<polygon fill="#191970" stroke="#191970" points="866.5458,-294.985 874.0608,-287.5167 863.5288,-288.6685 866.5458,-294.985"/>
</g>
<!-- Node4&#45;&gt;Node3 -->
<g id="edge7" class="edge">
<title>Node4&#45;&gt;Node3</title>
<path fill="none" stroke="#191970" d="M520.3211,-324.238C531.4005,-315.4498 547.4785,-301.8252 559.5,-288 597.1212,-244.7343 631.8526,-186.3409 648.3792,-156.9819"/>
<polygon fill="#191970" stroke="#191970" points="651.4605,-158.6425 653.2638,-148.2023 645.3435,-155.2393 651.4605,-158.6425"/>
</g>
<!-- Node5 -->
<g id="node6" class="node">
<title>Node5</title>
<polygon fill="#ffffff" stroke="#bfbfbf" points="1146,-129 1146,-148 1211,-148 1211,-129 1146,-129"/>
<text text-anchor="middle" x="1178.5" y="-136" font-family="Helvetica,sans-Serif" font-size="10.00" fill="#000000">functional</text>
</g>
<!-- Node4&#45;&gt;Node5 -->
<g id="edge5" class="edge">
<title>Node4&#45;&gt;Node5</title>
<path fill="none" stroke="#191970" d="M546.2549,-324.4758C606.2539,-309.769 725.2736,-280.7481 826.5,-257 896.6182,-240.55 920.9219,-254.8376 984.5,-221 1002.2639,-211.5457 1000.1568,-200.2054 1017.5,-190 1037.7271,-178.0976 1095.5266,-160.9647 1136.0533,-149.7833"/>
<polygon fill="#191970" stroke="#191970" points="1137.2291,-153.0904 1145.9511,-147.0757 1135.382,-146.3384 1137.2291,-153.0904"/>
</g>
<!-- Node6 -->
<g id="node7" class="node">
<title>Node6</title>
<polygon fill="#ffffff" stroke="#bfbfbf" points="259,-129 259,-148 316,-148 316,-129 259,-129"/>
<text text-anchor="middle" x="287.5" y="-136" font-family="Helvetica,sans-Serif" font-size="10.00" fill="#000000">ostream</text>
</g>
<!-- Node4&#45;&gt;Node6 -->
<g id="edge6" class="edge">
<title>Node4&#45;&gt;Node6</title>
<path fill="none" stroke="#191970" d="M480.5777,-324.413C426.2621,-304.4665 306.8211,-257.3339 284.5,-221 272.82,-201.9874 276.456,-175.5872 281.0989,-157.8169"/>
<polygon fill="#191970" stroke="#191970" points="284.5192,-158.5925 283.992,-148.0108 277.8053,-156.6116 284.5192,-158.5925"/>
</g>
<!-- Node4&#45;&gt;Node7 -->
<g id="edge8" class="edge">
<title>Node4&#45;&gt;Node7</title>
<path fill="none" stroke="#191970" d="M505.4974,-324.3895C500.4943,-300.9958 486.5434,-239.3854 468.5,-190 465.1551,-180.8449 460.8167,-171.0845 456.7501,-162.5501"/>
<polygon fill="#191970" stroke="#191970" points="459.8783,-160.9796 452.3418,-153.533 453.5896,-164.0541 459.8783,-160.9796"/>
</g>
<!-- Node4&#45;&gt;Node8 -->
<g id="edge9" class="edge">
<title>Node4&#45;&gt;Node8</title>
<path fill="none" stroke="#191970" d="M508.6072,-324.3479C513.1051,-286.8508 531.2261,-151.5225 561.5,-123 629.1736,-59.2415 900.3555,-31.0152 1037.3863,-20.6206"/>
<polygon fill="#191970" stroke="#191970" points="1037.7042,-24.1067 1047.4165,-19.8734 1037.1841,-17.126 1037.7042,-24.1067"/>
</g>
<!-- Node9 -->
<g id="node10" class="node">
<title>Node9</title>
<g id="a_node10"><a xlink:href="matrix_8h.html" target="_top" xlink:title="maliput/math/matrix.h">
<polygon fill="#ffffff" stroke="#000000" points="34,-129 34,-148 161,-148 161,-129 34,-129"/>
<text text-anchor="middle" x="97.5" y="-136" font-family="Helvetica,sans-Serif" font-size="10.00" fill="#000000">maliput/math/matrix.h</text>
</a>
</g>
</g>
<!-- Node4&#45;&gt;Node9 -->
<g id="edge10" class="edge">
<title>Node4&#45;&gt;Node9</title>
<path fill="none" stroke="#191970" d="M441.2519,-325.1263C438.2945,-324.743 435.3667,-324.366 432.5,-324 366.9899,-315.6357 187.3506,-331.318 137.5,-288 99.5838,-255.0524 95.7145,-190.4939 96.3853,-158.0677"/>
<polygon fill="#191970" stroke="#191970" points="99.884,-158.1675 96.7636,-148.0427 92.8889,-157.9035 99.884,-158.1675"/>
</g>
<!-- Node15 -->
<g id="node16" class="node">
<title>Node15</title>
<g id="a_node16"><a xlink:href="vector_8h.html" target="_top" xlink:title="maliput/math/vector.h">
<polygon fill="#ffffff" stroke="#000000" points="221,-67.5 221,-86.5 346,-86.5 346,-67.5 221,-67.5"/>
<text text-anchor="middle" x="283.5" y="-74.5" font-family="Helvetica,sans-Serif" font-size="10.00" fill="#000000">maliput/math/vector.h</text>
</a>
</g>
</g>
<!-- Node4&#45;&gt;Node15 -->
<g id="edge34" class="edge">
<title>Node4&#45;&gt;Node15</title>
<path fill="none" stroke="#191970" d="M441.4564,-325.1211C343.4943,-311.9323 171.0559,-288.6369 170.5,-288 115.3236,-224.7805 217.5014,-130.0117 263.1235,-92.8005"/>
<polygon fill="#191970" stroke="#191970" points="265.318,-95.5272 270.9333,-86.5428 260.9409,-90.0644 265.318,-95.5272"/>
</g>
<!-- Node16 -->
<g id="node17" class="node">
<title>Node16</title>
<g id="a_node17"><a xlink:href="quaternion_8h.html" target="_top" xlink:title="Code in this file is inspired by: https://gitlab.com/libeigen/eigen/&#45;/blob/master/Eigen/src/Geometry/...">
<polygon fill="#ffffff" stroke="#000000" points="294,-196 294,-215 441,-215 441,-196 294,-196"/>
<text text-anchor="middle" x="367.5" y="-203" font-family="Helvetica,sans-Serif" font-size="10.00" fill="#000000">maliput/math/quaternion.h</text>
</a>
</g>
</g>
<!-- Node4&#45;&gt;Node16 -->
<g id="edge23" class="edge">
<title>Node4&#45;&gt;Node16</title>
<path fill="none" stroke="#191970" d="M496.9772,-324.3416C473.2618,-302.5742 415.3996,-249.465 385.7176,-222.2212"/>
<polygon fill="#191970" stroke="#191970" points="387.8788,-219.454 378.1449,-215.2705 383.1453,-224.611 387.8788,-219.454"/>
</g>
<!-- Node18 -->
<g id="node19" class="node">
<title>Node18</title>
<g id="a_node19"><a xlink:href="roll__pitch__yaw_8h.html" target="_top" xlink:title="Code in this file is inspired by: https://github.com/RobotLocomotion/drake/blob/master/math/roll_pitc...">
<polygon fill="#ffffff" stroke="#000000" points="180,-257.5 180,-287.5 311,-287.5 311,-257.5 180,-257.5"/>
<text text-anchor="start" x="188" y="-275.5" font-family="Helvetica,sans-Serif" font-size="10.00" fill="#000000">maliput/math/roll_pitch</text>
<text text-anchor="middle" x="245.5" y="-264.5" font-family="Helvetica,sans-Serif" font-size="10.00" fill="#000000">_yaw.h</text>
</a>
</g>
</g>
<!-- Node4&#45;&gt;Node18 -->
<g id="edge29" class="edge">
<title>Node4&#45;&gt;Node18</title>
<path fill="none" stroke="#191970" d="M466.85,-324.4581C427.6001,-315.2449 367.2521,-301.0792 319.4765,-289.8647"/>
<polygon fill="#191970" stroke="#191970" points="320.02,-286.3972 309.4847,-287.5193 318.4203,-293.212 320.02,-286.3972"/>
</g>
<!-- Node10 -->
<g id="node11" class="node">
<title>Node10</title>
<polygon fill="#ffffff" stroke="#bfbfbf" points="165.5,-6 165.5,-25 229.5,-25 229.5,-6 165.5,-6"/>
<text text-anchor="middle" x="197.5" y="-13" font-family="Helvetica,sans-Serif" font-size="10.00" fill="#000000">algorithm</text>
</g>
<!-- Node9&#45;&gt;Node10 -->
<g id="edge11" class="edge">
<title>Node9&#45;&gt;Node10</title>
<path fill="none" stroke="#191970" d="M102.2377,-128.659C109.4022,-114.3005 123.9287,-87.1296 140.5,-67 151.277,-53.9089 165.4086,-41.1183 176.9046,-31.5587"/>
<polygon fill="#191970" stroke="#191970" points="179.1662,-34.2309 184.724,-25.2108 174.7543,-28.7963 179.1662,-34.2309"/>
</g>
<!-- Node11 -->
<g id="node12" class="node">
<title>Node11</title>
<polygon fill="#ffffff" stroke="#bfbfbf" points="104.5,-6 104.5,-25 146.5,-25 146.5,-6 104.5,-6"/>
<text text-anchor="middle" x="125.5" y="-13" font-family="Helvetica,sans-Serif" font-size="10.00" fill="#000000">array</text>
</g>
<!-- Node9&#45;&gt;Node11 -->
<g id="edge12" class="edge">
<title>Node9&#45;&gt;Node11</title>
<path fill="none" stroke="#191970" d="M97.1139,-128.6164C96.8099,-114.6619 97.1292,-88.4884 102.5,-67 105.3548,-55.5779 110.6015,-43.5247 115.3635,-33.9529"/>
<polygon fill="#191970" stroke="#191970" points="118.5084,-35.4917 120.0301,-25.0067 112.302,-32.2542 118.5084,-35.4917"/>
</g>
<!-- Node12 -->
<g id="node13" class="node">
<title>Node12</title>
<polygon fill="#ffffff" stroke="#bfbfbf" points="327,-6 327,-25 380,-25 380,-6 327,-6"/>
<text text-anchor="middle" x="353.5" y="-13" font-family="Helvetica,sans-Serif" font-size="10.00" fill="#000000">cstddef</text>
</g>
<!-- Node9&#45;&gt;Node12 -->
<g id="edge13" class="edge">
<title>Node9&#45;&gt;Node12</title>
<path fill="none" stroke="#191970" d="M112.4993,-128.9632C142.2522,-110.064 206.3307,-69.4576 211.5,-67 256.4344,-45.6375 271.059,-48.8518 317.5,-31 319.1157,-30.3789 320.7657,-29.7283 322.4274,-29.06"/>
<polygon fill="#191970" stroke="#191970" points="324.0174,-32.1896 331.912,-25.1238 321.3342,-25.7243 324.0174,-32.1896"/>
</g>
<!-- Node13 -->
<g id="node14" class="node">
<title>Node13</title>
<polygon fill="#ffffff" stroke="#bfbfbf" points="0,-6 0,-25 83,-25 83,-6 0,-6"/>
<text text-anchor="middle" x="41.5" y="-13" font-family="Helvetica,sans-Serif" font-size="10.00" fill="#000000">initializer_list</text>
</g>
<!-- Node9&#45;&gt;Node13 -->
<g id="edge14" class="edge">
<title>Node9&#45;&gt;Node13</title>
<path fill="none" stroke="#191970" d="M93.1058,-128.8484C83.8642,-108.5499 62.2717,-61.1235 50.1495,-34.4981"/>
<polygon fill="#191970" stroke="#191970" points="53.2029,-32.7576 45.8738,-25.1068 46.8321,-35.6582 53.2029,-32.7576"/>
</g>
<!-- Node14 -->
<g id="node15" class="node">
<title>Node14</title>
<polygon fill="#ffffff" stroke="#bfbfbf" points="248.5,-6 248.5,-25 308.5,-25 308.5,-6 248.5,-6"/>
<text text-anchor="middle" x="278.5" y="-13" font-family="Helvetica,sans-Serif" font-size="10.00" fill="#000000">iostream</text>
</g>
<!-- Node9&#45;&gt;Node14 -->
<g id="edge15" class="edge">
<title>Node9&#45;&gt;Node14</title>
<path fill="none" stroke="#191970" d="M106.8257,-128.8585C121.264,-114.2723 150.3123,-86.2586 178.5,-67 200.2147,-52.164 226.7569,-38.6851 247.0382,-29.2413"/>
<polygon fill="#191970" stroke="#191970" points="248.5215,-32.4116 256.159,-25.0686 245.6093,-26.0461 248.5215,-32.4116"/>
</g>
<!-- Node9&#45;&gt;Node15 -->
<g id="edge16" class="edge">
<title>Node9&#45;&gt;Node15</title>
<path fill="none" stroke="#191970" d="M126.5625,-128.8906C158.3662,-118.3749 209.5051,-101.466 244.7144,-89.8243"/>
<polygon fill="#191970" stroke="#191970" points="246.2459,-93.0043 254.6416,-86.5419 244.0483,-86.3582 246.2459,-93.0043"/>
</g>
<!-- Node15&#45;&gt;Node8 -->
<g id="edge22" class="edge">
<title>Node15&#45;&gt;Node8</title>
<path fill="none" stroke="#191970" d="M346.1855,-72.3775C495.4412,-61.3712 871.7401,-33.6226 1037.2615,-21.4169"/>
<polygon fill="#191970" stroke="#191970" points="1037.6615,-24.897 1047.377,-20.6709 1037.1466,-17.9159 1037.6615,-24.897"/>
</g>
<!-- Node15&#45;&gt;Node10 -->
<g id="edge17" class="edge">
<title>Node15&#45;&gt;Node10</title>
<path fill="none" stroke="#191970" d="M270.0625,-67.3906C256.4305,-57.6421 235.1154,-42.3994 219.1078,-30.9521"/>
<polygon fill="#191970" stroke="#191970" points="221.0132,-28.0118 210.8431,-25.0419 216.9414,-33.7057 221.0132,-28.0118"/>
</g>
<!-- Node15&#45;&gt;Node11 -->
<g id="edge18" class="edge">
<title>Node15&#45;&gt;Node11</title>
<path fill="none" stroke="#191970" d="M254.1226,-67.4419C228.1384,-58.7327 189.3606,-45.1098 156.5,-31 155.3182,-30.4925 154.1176,-29.9618 152.9096,-29.4151"/>
<polygon fill="#191970" stroke="#191970" points="154.2278,-26.1665 143.6934,-25.0368 151.224,-32.4893 154.2278,-26.1665"/>
</g>
<!-- Node15&#45;&gt;Node12 -->
<g id="edge19" class="edge">
<title>Node15&#45;&gt;Node12</title>
<path fill="none" stroke="#191970" d="M294.4375,-67.3906C305.162,-57.9683 321.7287,-43.4134 334.5901,-32.1137"/>
<polygon fill="#191970" stroke="#191970" points="337.2059,-34.4745 342.4083,-25.2449 332.5857,-29.2158 337.2059,-34.4745"/>
</g>
<!-- Node15&#45;&gt;Node13 -->
<g id="edge20" class="edge">
<title>Node15&#45;&gt;Node13</title>
<path fill="none" stroke="#191970" d="M242.306,-67.4158C204.1373,-58.4182 145.8356,-44.3766 95.5,-31 91.6853,-29.9862 87.7272,-28.9057 83.7663,-27.8047"/>
<polygon fill="#191970" stroke="#191970" points="84.5697,-24.3949 73.9953,-25.0525 82.6719,-31.1327 84.5697,-24.3949"/>
</g>
<!-- Node15&#45;&gt;Node14 -->
<g id="edge21" class="edge">
<title>Node15&#45;&gt;Node14</title>
<path fill="none" stroke="#191970" d="M282.7188,-67.3906C282.0257,-58.8657 280.991,-46.1392 280.1198,-35.4235"/>
<polygon fill="#191970" stroke="#191970" points="283.5912,-34.9283 279.2923,-25.2449 276.6142,-35.4956 283.5912,-34.9283"/>
</g>
<!-- Node16&#45;&gt;Node6 -->
<g id="edge25" class="edge">
<title>Node16&#45;&gt;Node6</title>
<path fill="none" stroke="#191970" d="M356.038,-195.9005C343.2062,-185.1539 322.1989,-167.5603 306.8187,-154.6794"/>
<polygon fill="#191970" stroke="#191970" points="308.8545,-151.8191 298.9408,-148.0817 304.36,-157.1856 308.8545,-151.8191"/>
</g>
<!-- Node16&#45;&gt;Node7 -->
<g id="edge26" class="edge">
<title>Node16&#45;&gt;Node7</title>
<path fill="none" stroke="#191970" d="M378.5322,-195.9005C389.1694,-186.6448 405.6436,-172.3101 419.4674,-160.2816"/>
<polygon fill="#191970" stroke="#191970" points="421.9897,-162.7264 427.2362,-153.5218 417.3947,-157.4456 421.9897,-162.7264"/>
</g>
<!-- Node16&#45;&gt;Node9 -->
<g id="edge27" class="edge">
<title>Node16&#45;&gt;Node9</title>
<path fill="none" stroke="#191970" d="M329.1023,-195.9717C280.9574,-184.0246 198.39,-163.5357 145.949,-150.5225"/>
<polygon fill="#191970" stroke="#191970" points="146.751,-147.1155 136.2024,-148.1039 145.065,-153.9094 146.751,-147.1155"/>
</g>
<!-- Node16&#45;&gt;Node15 -->
<g id="edge28" class="edge">
<title>Node16&#45;&gt;Node15</title>
<path fill="none" stroke="#191970" d="M363.4415,-195.9137C356.5334,-180.0715 341.5678,-147.7228 324.5,-123 317.407,-112.7258 308.2605,-102.2594 300.4067,-93.9111"/>
<polygon fill="#191970" stroke="#191970" points="302.8447,-91.3972 293.3821,-86.6316 297.8075,-96.258 302.8447,-91.3972"/>
</g>
<!-- Node17 -->
<g id="node18" class="node">
<title>Node17</title>
<polygon fill="#ffffff" stroke="#bfbfbf" points="571,-129 571,-148 618,-148 618,-129 571,-129"/>
<text text-anchor="middle" x="594.5" y="-136" font-family="Helvetica,sans-Serif" font-size="10.00" fill="#000000">cmath</text>
</g>
<!-- Node16&#45;&gt;Node17 -->
<g id="edge24" class="edge">
<title>Node16&#45;&gt;Node17</title>
<path fill="none" stroke="#191970" d="M400.0236,-195.9005C442.8109,-183.2717 517.6342,-161.1873 560.9344,-148.407"/>
<polygon fill="#191970" stroke="#191970" points="562.1077,-151.7101 570.7078,-145.5224 560.1261,-144.9964 562.1077,-151.7101"/>
</g>
<!-- Node18&#45;&gt;Node7 -->
<g id="edge30" class="edge">
<title>Node18&#45;&gt;Node7</title>
<path fill="none" stroke="#191970" d="M311.226,-264.6738C364.1729,-256.8579 432.4968,-242.8291 449.5,-221 462.0307,-204.9128 459.1087,-181.2635 454.0286,-163.4051"/>
<polygon fill="#191970" stroke="#191970" points="457.287,-162.1051 450.8887,-153.6605 450.6244,-164.252 457.287,-162.1051"/>
</g>
<!-- Node18&#45;&gt;Node9 -->
<g id="edge31" class="edge">
<title>Node18&#45;&gt;Node9</title>
<path fill="none" stroke="#191970" d="M228.8102,-257.389C200.8753,-232.0965 144.8652,-181.3847 115.856,-155.1196"/>
<polygon fill="#191970" stroke="#191970" points="117.8697,-152.2214 108.1076,-148.1042 113.1715,-157.4105 117.8697,-152.2214"/>
</g>
<!-- Node18&#45;&gt;Node15 -->
<g id="edge33" class="edge">
<title>Node18&#45;&gt;Node15</title>
<path fill="none" stroke="#191970" d="M242.9578,-257.114C239.0148,-229.4017 233.4383,-169.644 249.5,-123 253.1476,-112.4072 260.1829,-102.2175 266.9119,-94.1326"/>
<polygon fill="#191970" stroke="#191970" points="269.6322,-96.3405 273.6585,-86.5406 264.3996,-91.6907 269.6322,-96.3405"/>
</g>
<!-- Node18&#45;&gt;Node16 -->
<g id="edge32" class="edge">
<title>Node18&#45;&gt;Node16</title>
<path fill="none" stroke="#191970" d="M272.8792,-257.4639C293.257,-246.2728 320.9146,-231.0838 341.0632,-220.0186"/>
<polygon fill="#191970" stroke="#191970" points="342.9319,-222.9855 350.0123,-215.1039 339.5623,-216.8498 342.9319,-222.9855"/>
</g>
<!-- Node19&#45;&gt;Node3 -->
<g id="edge37" class="edge">
<title>Node19&#45;&gt;Node3</title>
<path fill="none" stroke="#191970" d="M881.8024,-257.4626C866.0106,-247.3415 844.8624,-233.594 826.5,-221 807.0709,-207.6744 804.2297,-201.1956 783.5,-190 744.1371,-168.7411 730.4448,-172.025 689.5,-154 688.4812,-153.5515 687.4477,-153.0868 686.407,-152.6108"/>
<polygon fill="#191970" stroke="#191970" points="687.5796,-149.2922 677.0473,-148.143 684.5642,-155.6094 687.5796,-149.2922"/>
</g>
<!-- Node19&#45;&gt;Node5 -->
<g id="edge36" class="edge">
<title>Node19&#45;&gt;Node5</title>
<path fill="none" stroke="#191970" d="M939.4938,-257.3223C961.7876,-247.2572 991.5127,-233.6259 1017.5,-221 1064.8624,-197.989 1119.2423,-169.7336 1151.1342,-152.9725"/>
<polygon fill="#191970" stroke="#191970" points="1153.0594,-155.9144 1160.277,-148.1583 1149.798,-149.7205 1153.0594,-155.9144"/>
</g>
<!-- Node19&#45;&gt;Node7 -->
<g id="edge39" class="edge">
<title>Node19&#45;&gt;Node7</title>
<path fill="none" stroke="#191970" d="M853.5136,-257.389C767.8604,-232.492 597.4701,-182.9642 505.9757,-156.3693"/>
<polygon fill="#191970" stroke="#191970" points="506.876,-152.9862 496.2965,-153.5558 504.9221,-159.708 506.876,-152.9862"/>
</g>
<!-- Node19&#45;&gt;Node8 -->
<g id="edge53" class="edge">
<title>Node19&#45;&gt;Node8</title>
<path fill="none" stroke="#191970" d="M975.8652,-260.9492C1075.0375,-243.0173 1247.756,-205.1491 1282.5,-154 1318.2064,-101.4341 1233.8307,-57.6343 1173.0434,-34.1203"/>
<polygon fill="#191970" stroke="#191970" points="1174.1037,-30.7795 1163.512,-30.5224 1171.6316,-37.3285 1174.1037,-30.7795"/>
</g>
<!-- Node20 -->
<g id="node21" class="node">
<title>Node20</title>
<polygon fill="#ffffff" stroke="#bfbfbf" points="1229,-129 1229,-148 1274,-148 1274,-129 1229,-129"/>
<text text-anchor="middle" x="1251.5" y="-136" font-family="Helvetica,sans-Serif" font-size="10.00" fill="#000000">utility</text>
</g>
<!-- Node19&#45;&gt;Node20 -->
<g id="edge38" class="edge">
<title>Node19&#45;&gt;Node20</title>
<path fill="none" stroke="#191970" d="M954.015,-257.4539C984.7435,-247.6601 1025.2011,-234.2783 1060.5,-221 1132.2743,-194.0009 1149.6356,-185.6141 1219.5,-154 1220.6705,-153.4703 1221.8622,-152.9244 1223.0638,-152.3682"/>
<polygon fill="#191970" stroke="#191970" points="1224.7417,-155.4465 1232.2861,-148.0078 1221.7496,-149.1181 1224.7417,-155.4465"/>
</g>
<!-- Node21 -->
<g id="node22" class="node">
<title>Node21</title>
<g id="a_node22"><a xlink:href="maliput__hash_8h.html" target="_top" xlink:title="Code in this file is inspired by: https://github.com/RobotLocomotion/drake/blob/master/common/hash.h. ">
<polygon fill="#ffffff" stroke="#000000" points="835.5,-190.5 835.5,-220.5 975.5,-220.5 975.5,-190.5 835.5,-190.5"/>
<text text-anchor="start" x="843.5" y="-208.5" font-family="Helvetica,sans-Serif" font-size="10.00" fill="#000000">maliput/common/maliput</text>
<text text-anchor="middle" x="905.5" y="-197.5" font-family="Helvetica,sans-Serif" font-size="10.00" fill="#000000">_hash.h</text>
</a>
</g>
</g>
<!-- Node19&#45;&gt;Node21 -->
<g id="edge40" class="edge">
<title>Node19&#45;&gt;Node21</title>
<path fill="none" stroke="#191970" d="M905.5,-257.2967C905.5,-249.5013 905.5,-239.7991 905.5,-230.9064"/>
<polygon fill="#191970" stroke="#191970" points="909.0001,-230.6431 905.5,-220.6432 902.0001,-230.6432 909.0001,-230.6431"/>
</g>
<!-- Node21&#45;&gt;Node2 -->
<g id="edge46" class="edge">
<title>Node21&#45;&gt;Node2</title>
<path fill="none" stroke="#191970" d="M865.3289,-190.4639C834.1201,-178.7824 791.2737,-162.7449 761.4674,-151.5884"/>
<polygon fill="#191970" stroke="#191970" points="762.4871,-148.2329 751.8947,-148.0053 760.0332,-154.7888 762.4871,-148.2329"/>
</g>
<!-- Node21&#45;&gt;Node3 -->
<g id="edge48" class="edge">
<title>Node21&#45;&gt;Node3</title>
<path fill="none" stroke="#191970" d="M835.3168,-190.5916C782.9396,-179.1231 716.0378,-163.6525 689.5,-154 688.0863,-153.4858 686.6531,-152.9242 685.2176,-152.3294"/>
<polygon fill="#191970" stroke="#191970" points="686.4457,-149.0426 675.8954,-148.0719 683.5376,-155.4099 686.4457,-149.0426"/>
</g>
<!-- Node21&#45;&gt;Node5 -->
<g id="edge43" class="edge">
<title>Node21&#45;&gt;Node5</title>
<path fill="none" stroke="#191970" d="M975.6671,-191.2984C1020.5063,-181.7837 1079.7421,-168.3971 1131.5,-154 1134.6455,-153.125 1137.8928,-152.1683 1141.1423,-151.1734"/>
<polygon fill="#191970" stroke="#191970" points="1142.3203,-154.4717 1150.7981,-148.1174 1140.2081,-147.798 1142.3203,-154.4717"/>
</g>
<!-- Node21&#45;&gt;Node8 -->
<g id="edge52" class="edge">
<title>Node21&#45;&gt;Node8</title>
<path fill="none" stroke="#191970" d="M975.7022,-190.5994C1027.0216,-179.0573 1089.0792,-163.4842 1097.5,-154 1125.0825,-122.9342 1124.7401,-71.5741 1121.472,-40.8927"/>
<polygon fill="#191970" stroke="#191970" points="1124.8985,-40.0875 1120.1818,-30.6005 1117.9529,-40.9582 1124.8985,-40.0875"/>
</g>
<!-- Node21&#45;&gt;Node12 -->
<g id="edge42" class="edge">
<title>Node21&#45;&gt;Node12</title>
<path fill="none" stroke="#191970" d="M880.994,-190.3495C867.4923,-181.0969 851.158,-168.3105 839.5,-154 812.2582,-120.5601 831.76,-91.841 796.5,-67 763.5213,-43.7663 490.645,-24.2301 390.3222,-17.7691"/>
<polygon fill="#191970" stroke="#191970" points="390.2654,-14.2585 380.063,-17.1154 389.8202,-21.2443 390.2654,-14.2585"/>
</g>
<!-- Node21&#45;&gt;Node14 -->
<g id="edge44" class="edge">
<title>Node21&#45;&gt;Node14</title>
<path fill="none" stroke="#191970" d="M880.4179,-190.3361C843.0117,-167.8122 775.6853,-127.6545 763.5,-123 574.4284,-50.7791 511.3945,-89.0421 317.5,-31 315.057,-30.2687 312.553,-29.4476 310.0504,-28.575"/>
<polygon fill="#191970" stroke="#191970" points="311.1295,-25.2421 300.5367,-25.0348 308.6882,-31.8027 311.1295,-25.2421"/>
</g>
<!-- Node21&#45;&gt;Node17 -->
<g id="edge41" class="edge">
<title>Node21&#45;&gt;Node17</title>
<path fill="none" stroke="#191970" d="M835.4499,-197.5722C778.49,-189.9317 696.5409,-176.2028 627.5,-154 625.6471,-153.4041 623.7632,-152.7278 621.8824,-151.9988"/>
<polygon fill="#191970" stroke="#191970" points="623.2337,-148.7701 612.6636,-148.0456 620.4748,-155.2035 623.2337,-148.7701"/>
</g>
<!-- Node21&#45;&gt;Node20 -->
<g id="edge50" class="edge">
<title>Node21&#45;&gt;Node20</title>
<path fill="none" stroke="#191970" d="M975.7567,-199.821C1040.2971,-193.2422 1138.0049,-179.8194 1219.5,-154 1221.1587,-153.4745 1222.8402,-152.8768 1224.5192,-152.2291"/>
<polygon fill="#191970" stroke="#191970" points="1226.1631,-155.3307 1233.934,-148.1291 1223.3682,-148.9129 1226.1631,-155.3307"/>
</g>
<!-- Node22 -->
<g id="node23" class="node">
<title>Node22</title>
<polygon fill="#ffffff" stroke="#bfbfbf" points="848.5,-129 848.5,-148 886.5,-148 886.5,-129 848.5,-129"/>
<text text-anchor="middle" x="867.5" y="-136" font-family="Helvetica,sans-Serif" font-size="10.00" fill="#000000">map</text>
</g>
<!-- Node21&#45;&gt;Node22 -->
<g id="edge45" class="edge">
<title>Node21&#45;&gt;Node22</title>
<path fill="none" stroke="#191970" d="M896.8772,-190.2967C891.244,-180.3645 883.8553,-167.3371 877.8973,-156.8321"/>
<polygon fill="#191970" stroke="#191970" points="880.8971,-155.0266 872.9192,-148.055 874.8083,-158.4801 880.8971,-155.0266"/>
</g>
<!-- Node23 -->
<g id="node24" class="node">
<title>Node23</title>
<polygon fill="#ffffff" stroke="#bfbfbf" points="904.5,-129 904.5,-148 936.5,-148 936.5,-129 904.5,-129"/>
<text text-anchor="middle" x="920.5" y="-136" font-family="Helvetica,sans-Serif" font-size="10.00" fill="#000000">set</text>
</g>
<!-- Node21&#45;&gt;Node23 -->
<g id="edge47" class="edge">
<title>Node21&#45;&gt;Node23</title>
<path fill="none" stroke="#191970" d="M908.9037,-190.2967C911.0366,-180.7699 913.807,-168.3954 916.1051,-158.1306"/>
<polygon fill="#191970" stroke="#191970" points="919.5915,-158.5781 918.3608,-148.055 912.7606,-157.0487 919.5915,-158.5781"/>
</g>
<!-- Node24 -->
<g id="node25" class="node">
<title>Node24</title>
<polygon fill="#ffffff" stroke="#bfbfbf" points="955,-129 955,-148 1024,-148 1024,-129 955,-129"/>
<text text-anchor="middle" x="989.5" y="-136" font-family="Helvetica,sans-Serif" font-size="10.00" fill="#000000">type_traits</text>
</g>
<!-- Node21&#45;&gt;Node24 -->
<g id="edge49" class="edge">
<title>Node21&#45;&gt;Node24</title>
<path fill="none" stroke="#191970" d="M924.5609,-190.2967C938.0297,-179.5537 956.0385,-165.1895 969.6748,-154.3129"/>
<polygon fill="#191970" stroke="#191970" points="971.8853,-157.0268 977.5206,-148.055 967.5204,-151.5544 971.8853,-157.0268"/>
</g>
<!-- Node25 -->
<g id="node26" class="node">
<title>Node25</title>
<polygon fill="#ffffff" stroke="#bfbfbf" points="1042,-129 1042,-148 1089,-148 1089,-129 1042,-129"/>
<text text-anchor="middle" x="1065.5" y="-136" font-family="Helvetica,sans-Serif" font-size="10.00" fill="#000000">vector</text>
</g>
<!-- Node21&#45;&gt;Node25 -->
<g id="edge51" class="edge">
<title>Node21&#45;&gt;Node25</title>
<path fill="none" stroke="#191970" d="M944.072,-190.4841C969.362,-180.4855 1003.0702,-166.8675 1032.5,-154 1033.8411,-153.4136 1035.2093,-152.8067 1036.5886,-152.1877"/>
<polygon fill="#191970" stroke="#191970" points="1038.0533,-155.3666 1045.6855,-148.0181 1035.1365,-149.0032 1038.0533,-155.3666"/>
</g>
</g>
</svg>
        <g id="navigator" transform="translate(0 0)" fill="#404254">
                <rect fill="#f2f5e9" fill-opacity="0.5" stroke="#606060" stroke-width=".5" x="0" y="0" width="60" height="60"/>
                <use id="zoomplus" xlink:href="#zoomPlus" x="17" y="9" onmousedown="handleZoom(evt,'in')"/>
                <use id="zoomminus" xlink:href="#zoomMin" x="42" y="9" onmousedown="handleZoom(evt,'out')"/>
                <use id="reset" xlink:href="#resetDef" x="30" y="36" onmousedown="handleReset()"/>
                <g id="arrowUp" xlink:href="#dirArrow" transform="translate(30 24)" onmousedown="handlePan(0,-1)">
                  <use xlink:href="#rim" fill="#404040">
                        <set attributeName="fill" to="#808080" begin="arrowUp.mouseover" end="arrowUp.mouseout"/>
                  </use>
                  <path fill="none" stroke="white" stroke-width="1.5" d="M0,-3.0v7 M-2.5,-0.5L0,-3.0L2.5,-0.5"/>
                </g>
                <g id="arrowRight" xlink:href="#dirArrow" transform="rotate(90) translate(36 -43)" onmousedown="handlePan(1,0)">
                  <use xlink:href="#rim" fill="#404040">
                        <set attributeName="fill" to="#808080" begin="arrowRight.mouseover" end="arrowRight.mouseout"/>
                  </use>
                  <path fill="none" stroke="white" stroke-width="1.5" d="M0,-3.0v7 M-2.5,-0.5L0,-3.0L2.5,-0.5"/>
                </g>
                <g id="arrowDown" xlink:href="#dirArrow" transform="rotate(180) translate(-30 -48)" onmousedown="handlePan(0,1)">
                  <use xlink:href="#rim" fill="#404040">
                        <set attributeName="fill" to="#808080" begin="arrowDown.mouseover" end="arrowDown.mouseout"/>
                  </use>
                  <path fill="none" stroke="white" stroke-width="1.5" d="M0,-3.0v7 M-2.5,-0.5L0,-3.0L2.5,-0.5"/>
                </g>
                <g id="arrowLeft" xlink:href="#dirArrow" transform="rotate(270) translate(-36 17)" onmousedown="handlePan(-1,0)">
                  <use xlink:href="#rim" fill="#404040">
                        <set attributeName="fill" to="#808080" begin="arrowLeft.mouseover" end="arrowLeft.mouseout"/>
                  </use>
                  <path fill="none" stroke="white" stroke-width="1.5" d="M0,-3.0v7 M-2.5,-0.5L0,-3.0L2.5,-0.5"/>
                </g>
        </g>
        <svg viewBox="0 0 15 15" width="100%" height="30px" preserveAspectRatio="xMaxYMin meet">
         <g id="arrow_out" transform="scale(0.3 0.3)">
          <a xlink:href="api_2lane_8h__incl_org.svg" target="_base">
           <rect id="button" ry="5" rx="5" y="6" x="6" height="38" width="38"
                fill="#f2f5e9" fill-opacity="0.5" stroke="#606060" stroke-width="1.0"/>
           <path id="arrow"
             d="M 11.500037,31.436501 C 11.940474,20.09759 22.043105,11.32322 32.158766,21.979434 L 37.068811,17.246167 C 37.068811,17.246167 37.088388,32 37.088388,32 L 22.160133,31.978069 C 22.160133,31.978069 26.997745,27.140456 26.997745,27.140456 C 18.528582,18.264221 13.291696,25.230495 11.500037,31.436501 z"
             style="fill:#404040;"/>
          </a>
         </g>
        </svg>
</svg>
