<?xml version="1.0" encoding="UTF-8" standalone="no"?>
<!DOCTYPE svg PUBLIC "-//W3C//DTD SVG 1.1//EN"
 "http://www.w3.org/Graphics/SVG/1.1/DTD/svg11.dtd">
<!-- Generated by graphviz version 2.43.0 (0)
 -->
<!-- Title: segment.h Pages: 1 -->
<svg width="2732pt" height="386pt"
 viewBox="0.00 0.00 2732.00 386.00" xmlns="http://www.w3.org/2000/svg" xmlns:xlink="http://www.w3.org/1999/xlink">
<g id="graph0" class="graph" transform="scale(1 1) rotate(0) translate(4 382)">
<title>segment.h</title>
<polygon fill="white" stroke="transparent" points="-4,4 -4,-382 2728,-382 2728,4 -4,4"/>
<!-- Node1 -->
<g id="node1" class="node">
<title>Node1</title>
<g id="a_node1"><a xlink:title=" ">
<polygon fill="#bfbfbf" stroke="black" points="758.5,-358.5 758.5,-377.5 826.5,-377.5 826.5,-358.5 758.5,-358.5"/>
<text text-anchor="middle" x="792.5" y="-365.5" font-family="Helvetica,sans-Serif" font-size="10.00">segment.h</text>
</a>
</g>
</g>
<!-- Node2 -->
<g id="node2" class="node">
<title>Node2</title>
<g id="a_node2"><a xlink:href="basic__id__index_8h.html" target="_top" xlink:title=" ">
<polygon fill="white" stroke="black" points="383.5,-241 383.5,-260 481.5,-260 481.5,-241 383.5,-241"/>
<text text-anchor="middle" x="432.5" y="-248" font-family="Helvetica,sans-Serif" font-size="10.00">basic_id_index.h</text>
</a>
</g>
</g>
<!-- Node1&#45;&gt;Node2 -->
<g id="edge1" class="edge">
<title>Node1&#45;&gt;Node2</title>
<path fill="none" stroke="midnightblue" d="M756.13,-355.33C683.78,-332.12 523.27,-280.62 459.44,-260.14"/>
<polygon fill="midnightblue" stroke="midnightblue" points="755.14,-358.69 765.74,-358.41 757.28,-352.03 755.14,-358.69"/>
</g>
<!-- Node6 -->
<g id="node6" class="node">
<title>Node6</title>
<g id="a_node6"><a xlink:href="geometry__base_2road__geometry_8cc.html" target="_top" xlink:title=" ">
<polygon fill="white" stroke="black" points="590,-56.5 590,-75.5 693,-75.5 693,-56.5 590,-56.5"/>
<text text-anchor="middle" x="641.5" y="-63.5" font-family="Helvetica,sans-Serif" font-size="10.00">road_geometry.cc</text>
</a>
</g>
</g>
<!-- Node1&#45;&gt;Node6 -->
<g id="edge74" class="edge">
<title>Node1&#45;&gt;Node6</title>
<path fill="none" stroke="midnightblue" d="M769.14,-352.7C741.01,-333.48 697.5,-296.48 697.5,-251.5 697.5,-251.5 697.5,-251.5 697.5,-182.5 697.5,-138.6 664.34,-93.87 649.05,-75.58"/>
<polygon fill="midnightblue" stroke="midnightblue" points="767.38,-355.73 777.66,-358.3 771.22,-349.88 767.38,-355.73"/>
</g>
<!-- Node8 -->
<g id="node8" class="node">
<title>Node8</title>
<g id="a_node8"><a xlink:href="api_2road__geometry_8h.html" target="_top" xlink:title=" ">
<polygon fill="white" stroke="black" points="1233.5,-302.5 1233.5,-321.5 1331.5,-321.5 1331.5,-302.5 1233.5,-302.5"/>
<text text-anchor="middle" x="1282.5" y="-309.5" font-family="Helvetica,sans-Serif" font-size="10.00">road_geometry.h</text>
</a>
</g>
</g>
<!-- Node1&#45;&gt;Node8 -->
<g id="edge7" class="edge">
<title>Node1&#45;&gt;Node8</title>
<path fill="none" stroke="midnightblue" d="M836.59,-362.14C927.96,-352.07 1137.4,-328.99 1233.12,-318.44"/>
<polygon fill="midnightblue" stroke="midnightblue" points="836.12,-358.67 826.57,-363.25 836.89,-365.63 836.12,-358.67"/>
</g>
<!-- Node16 -->
<g id="node16" class="node">
<title>Node16</title>
<g id="a_node16"><a xlink:href="mock_8cc.html" target="_top" xlink:title=" ">
<polygon fill="white" stroke="black" points="825,-112.5 825,-131.5 882,-131.5 882,-112.5 825,-112.5"/>
<text text-anchor="middle" x="853.5" y="-119.5" font-family="Helvetica,sans-Serif" font-size="10.00">mock.cc</text>
</a>
</g>
</g>
<!-- Node1&#45;&gt;Node16 -->
<g id="edge75" class="edge">
<title>Node1&#45;&gt;Node16</title>
<path fill="none" stroke="midnightblue" d="M776.79,-350.88C770.07,-342.88 762.99,-332.66 759.5,-322 738.21,-256.95 723.02,-225.91 759.5,-168 773.68,-145.5 802.57,-134 824.6,-128.29"/>
<polygon fill="midnightblue" stroke="midnightblue" points="774.2,-353.24 783.48,-358.34 779.4,-348.56 774.2,-353.24"/>
</g>
<!-- Node17 -->
<g id="node17" class="node">
<title>Node17</title>
<g id="a_node17"><a xlink:href="generate__obj_8h.html" target="_top" xlink:title=" ">
<polygon fill="white" stroke="black" points="2180,-174 2180,-193 2269,-193 2269,-174 2180,-174"/>
<text text-anchor="middle" x="2224.5" y="-181" font-family="Helvetica,sans-Serif" font-size="10.00">generate_obj.h</text>
</a>
</g>
</g>
<!-- Node1&#45;&gt;Node17 -->
<g id="edge69" class="edge">
<title>Node1&#45;&gt;Node17</title>
<path fill="none" stroke="midnightblue" d="M837.08,-366.8C991.34,-365.76 1516.66,-359.53 1948.5,-322 2133.48,-305.93 2240.32,-405.82 2362.5,-266 2371.57,-255.63 2370.39,-246.29 2362.5,-235 2355.98,-225.67 2291.46,-204.8 2252.99,-193.02"/>
<polygon fill="midnightblue" stroke="midnightblue" points="836.6,-363.3 826.62,-366.86 836.64,-370.3 836.6,-363.3"/>
</g>
<!-- Node20 -->
<g id="node20" class="node">
<title>Node20</title>
<g id="a_node20"><a xlink:href="generate__obj_8cc.html" target="_top" xlink:title=" ">
<polygon fill="white" stroke="black" points="999.5,-112.5 999.5,-131.5 1093.5,-131.5 1093.5,-112.5 999.5,-112.5"/>
<text text-anchor="middle" x="1046.5" y="-119.5" font-family="Helvetica,sans-Serif" font-size="10.00">generate_obj.cc</text>
</a>
</g>
</g>
<!-- Node1&#45;&gt;Node20 -->
<g id="edge76" class="edge">
<title>Node1&#45;&gt;Node20</title>
<path fill="none" stroke="midnightblue" d="M785.45,-348.23C772.25,-309.51 748.86,-220.05 792.5,-168 818.4,-137.11 933.45,-127.41 999.48,-124.38"/>
<polygon fill="midnightblue" stroke="midnightblue" points="782.33,-349.89 788.99,-358.13 788.92,-347.54 782.33,-349.89"/>
</g>
<!-- Node33 -->
<g id="node33" class="node">
<title>Node33</title>
<g id="a_node33"><a xlink:href="brute__force__find__road__positions__strategy_8cc.html" target="_top" xlink:title=" ">
<polygon fill="white" stroke="black" points="2462.5,-168.5 2462.5,-198.5 2586.5,-198.5 2586.5,-168.5 2462.5,-168.5"/>
<text text-anchor="start" x="2470.5" y="-186.5" font-family="Helvetica,sans-Serif" font-size="10.00">brute_force_find_road</text>
<text text-anchor="middle" x="2524.5" y="-175.5" font-family="Helvetica,sans-Serif" font-size="10.00">_positions_strategy.cc</text>
</a>
</g>
</g>
<!-- Node1&#45;&gt;Node33 -->
<g id="edge73" class="edge">
<title>Node1&#45;&gt;Node33</title>
<path fill="none" stroke="midnightblue" d="M836.85,-366.75C1040.4,-365.4 1886.4,-357.73 2148.5,-322 2253.17,-307.73 2281.2,-304.69 2379.5,-266 2391.96,-261.1 2462.5,-220.51 2500.4,-198.52"/>
<polygon fill="midnightblue" stroke="midnightblue" points="836.53,-363.25 826.55,-366.81 836.57,-370.25 836.53,-363.25"/>
</g>
<!-- Node34 -->
<g id="node34" class="node">
<title>Node34</title>
<g id="a_node34"><a xlink:href="geometry__base_2junction_8h.html" target="_top" xlink:title=" ">
<polygon fill="white" stroke="black" points="150,-174 150,-193 215,-193 215,-174 150,-174"/>
<text text-anchor="middle" x="182.5" y="-181" font-family="Helvetica,sans-Serif" font-size="10.00">junction.h</text>
</a>
</g>
</g>
<!-- Node1&#45;&gt;Node34 -->
<g id="edge62" class="edge">
<title>Node1&#45;&gt;Node34</title>
<path fill="none" stroke="midnightblue" d="M748,-365.52C628.19,-361.22 305.05,-347.37 264.5,-322 215.02,-291.04 191.54,-218.35 184.7,-193.22"/>
<polygon fill="midnightblue" stroke="midnightblue" points="748.17,-369.03 758.28,-365.89 748.41,-362.03 748.17,-369.03"/>
</g>
<!-- Node36 -->
<g id="node36" class="node">
<title>Node36</title>
<g id="a_node36"><a xlink:href="geometry__base_2segment_8h.html" target="_top" xlink:title=" ">
<polygon fill="white" stroke="black" points="86.5,-241 86.5,-260 154.5,-260 154.5,-241 86.5,-241"/>
<text text-anchor="middle" x="120.5" y="-248" font-family="Helvetica,sans-Serif" font-size="10.00">segment.h</text>
</a>
</g>
</g>
<!-- Node1&#45;&gt;Node36 -->
<g id="edge68" class="edge">
<title>Node1&#45;&gt;Node36</title>
<path fill="none" stroke="midnightblue" d="M747.97,-366.02C613.61,-362.74 218.39,-350.73 168.5,-322 144.12,-307.96 129.49,-275.93 123.56,-260.34"/>
<polygon fill="midnightblue" stroke="midnightblue" points="748.22,-369.52 758.3,-366.26 748.39,-362.52 748.22,-369.52"/>
</g>
<!-- Node41 -->
<g id="node41" class="node">
<title>Node41</title>
<g id="a_node41"><a xlink:href="generate__string_8cc.html" target="_top" xlink:title=" ">
<polygon fill="white" stroke="black" points="802,-174 802,-193 909,-193 909,-174 802,-174"/>
<text text-anchor="middle" x="855.5" y="-181" font-family="Helvetica,sans-Serif" font-size="10.00">generate_string.cc</text>
</a>
</g>
</g>
<!-- Node1&#45;&gt;Node41 -->
<g id="edge77" class="edge">
<title>Node1&#45;&gt;Node41</title>
<path fill="none" stroke="midnightblue" d="M796.69,-348.6C802.82,-322.77 815.18,-274.51 830.5,-235 836.37,-219.86 845.14,-203.12 850.58,-193.22"/>
<polygon fill="midnightblue" stroke="midnightblue" points="793.25,-347.95 794.39,-358.49 800.06,-349.54 793.25,-347.95"/>
</g>
<!-- Node42 -->
<g id="node42" class="node">
<title>Node42</title>
<g id="a_node42"><a xlink:href="segment__analysis_8h.html" target="_top" xlink:title=" ">
<polygon fill="white" stroke="black" points="2447.5,-241 2447.5,-260 2561.5,-260 2561.5,-241 2447.5,-241"/>
<text text-anchor="middle" x="2504.5" y="-248" font-family="Helvetica,sans-Serif" font-size="10.00">segment_analysis.h</text>
</a>
</g>
</g>
<!-- Node1&#45;&gt;Node42 -->
<g id="edge70" class="edge">
<title>Node1&#45;&gt;Node42</title>
<path fill="none" stroke="midnightblue" d="M836.87,-366.7C1091.47,-364.89 2358.12,-354.29 2433.5,-322 2464.16,-308.87 2488.77,-275.78 2499.15,-260.05"/>
<polygon fill="midnightblue" stroke="midnightblue" points="836.5,-363.21 826.53,-366.78 836.55,-370.21 836.5,-363.21"/>
</g>
<!-- Node44 -->
<g id="node44" class="node">
<title>Node44</title>
<g id="a_node44"><a xlink:href="api_2lane_8cc.html" target="_top" xlink:title=" ">
<polygon fill="white" stroke="black" points="2181,-241 2181,-260 2232,-260 2232,-241 2181,-241"/>
<text text-anchor="middle" x="2206.5" y="-248" font-family="Helvetica,sans-Serif" font-size="10.00">lane.cc</text>
</a>
</g>
</g>
<!-- Node1&#45;&gt;Node44 -->
<g id="edge71" class="edge">
<title>Node1&#45;&gt;Node44</title>
<path fill="none" stroke="midnightblue" d="M836.85,-365.72C1043.16,-359.45 1909.91,-329.73 2172.5,-266 2178.24,-264.61 2184.24,-262.34 2189.58,-260.01"/>
<polygon fill="midnightblue" stroke="midnightblue" points="836.59,-362.22 826.7,-366.02 836.8,-369.22 836.59,-362.22"/>
</g>
<!-- Node46 -->
<g id="node46" class="node">
<title>Node46</title>
<g id="a_node46"><a xlink:href="api_2road__geometry_8cc.html" target="_top" xlink:title=" ">
<polygon fill="white" stroke="black" points="2250,-241 2250,-260 2353,-260 2353,-241 2250,-241"/>
<text text-anchor="middle" x="2301.5" y="-248" font-family="Helvetica,sans-Serif" font-size="10.00">road_geometry.cc</text>
</a>
</g>
</g>
<!-- Node1&#45;&gt;Node46 -->
<g id="edge72" class="edge">
<title>Node1&#45;&gt;Node46</title>
<path fill="none" stroke="midnightblue" d="M836.78,-366.62C981.45,-365.07 1453.21,-357.43 1841.5,-322 2020.27,-305.69 2065.16,-299.57 2241.5,-266 2250.34,-264.32 2259.84,-262.18 2268.62,-260.06"/>
<polygon fill="midnightblue" stroke="midnightblue" points="836.5,-363.13 826.54,-366.73 836.58,-370.13 836.5,-363.13"/>
</g>
<!-- Node47 -->
<g id="node47" class="node">
<title>Node47</title>
<g id="a_node47"><a xlink:href="geometry__base_2lane_8h.html" target="_top" xlink:title=" ">
<polygon fill="white" stroke="black" points="274,-302.5 274,-321.5 321,-321.5 321,-302.5 274,-302.5"/>
<text text-anchor="middle" x="297.5" y="-309.5" font-family="Helvetica,sans-Serif" font-size="10.00">lane.h</text>
</a>
</g>
</g>
<!-- Node1&#45;&gt;Node47 -->
<g id="edge63" class="edge">
<title>Node1&#45;&gt;Node47</title>
<path fill="none" stroke="midnightblue" d="M748.24,-362.17C646.47,-351.07 398.68,-324.04 321.11,-315.58"/>
<polygon fill="midnightblue" stroke="midnightblue" points="748.16,-365.68 758.48,-363.29 748.92,-358.72 748.16,-365.68"/>
</g>
<!-- Node3 -->
<g id="node3" class="node">
<title>Node3</title>
<g id="a_node3"><a xlink:href="geometry__base_2road__geometry_8h.html" target="_top" xlink:title=" ">
<polygon fill="white" stroke="black" points="537.5,-112.5 537.5,-131.5 635.5,-131.5 635.5,-112.5 537.5,-112.5"/>
<text text-anchor="middle" x="586.5" y="-119.5" font-family="Helvetica,sans-Serif" font-size="10.00">road_geometry.h</text>
</a>
</g>
</g>
<!-- Node2&#45;&gt;Node3 -->
<g id="edge2" class="edge">
<title>Node2&#45;&gt;Node3</title>
<path fill="none" stroke="midnightblue" d="M408.63,-235.28C384.03,-218.84 351.72,-191.1 370.5,-168 391.13,-142.63 480.34,-131.08 537.46,-126.21"/>
<polygon fill="midnightblue" stroke="midnightblue" points="406.93,-238.35 417.24,-240.79 410.7,-232.45 406.93,-238.35"/>
</g>
<!-- Node7 -->
<g id="node7" class="node">
<title>Node7</title>
<g id="a_node7"><a xlink:href="basic__id__index_8cc.html" target="_top" xlink:title=" ">
<polygon fill="white" stroke="black" points="379.5,-174 379.5,-193 481.5,-193 481.5,-174 379.5,-174"/>
<text text-anchor="middle" x="430.5" y="-181" font-family="Helvetica,sans-Serif" font-size="10.00">basic_id_index.cc</text>
</a>
</g>
</g>
<!-- Node2&#45;&gt;Node7 -->
<g id="edge6" class="edge">
<title>Node2&#45;&gt;Node7</title>
<path fill="none" stroke="midnightblue" d="M431.92,-230.54C431.54,-218.17 431.06,-202.62 430.77,-193.13"/>
<polygon fill="midnightblue" stroke="midnightblue" points="428.42,-230.85 432.23,-240.73 435.42,-230.63 428.42,-230.85"/>
</g>
<!-- Node4 -->
<g id="node4" class="node">
<title>Node4</title>
<g id="a_node4"><a xlink:href="mock__geometry_8h.html" target="_top" xlink:title=" ">
<polygon fill="white" stroke="black" points="213.5,-56.5 213.5,-75.5 317.5,-75.5 317.5,-56.5 213.5,-56.5"/>
<text text-anchor="middle" x="265.5" y="-63.5" font-family="Helvetica,sans-Serif" font-size="10.00">mock_geometry.h</text>
</a>
</g>
</g>
<!-- Node3&#45;&gt;Node4 -->
<g id="edge3" class="edge">
<title>Node3&#45;&gt;Node4</title>
<path fill="none" stroke="midnightblue" d="M527.22,-111.03C466.61,-100.83 373.47,-85.16 316.19,-75.53"/>
<polygon fill="midnightblue" stroke="midnightblue" points="526.96,-114.53 537.4,-112.74 528.12,-107.63 526.96,-114.53"/>
</g>
<!-- Node3&#45;&gt;Node6 -->
<g id="edge5" class="edge">
<title>Node3&#45;&gt;Node6</title>
<path fill="none" stroke="midnightblue" d="M602.79,-105C612.54,-95.43 624.55,-83.64 632.59,-75.75"/>
<polygon fill="midnightblue" stroke="midnightblue" points="600.27,-102.58 595.58,-112.08 605.17,-107.57 600.27,-102.58"/>
</g>
<!-- Node5 -->
<g id="node5" class="node">
<title>Node5</title>
<g id="a_node5"><a xlink:href="mock__geometry_8cc.html" target="_top" xlink:title=" ">
<polygon fill="white" stroke="black" points="211.5,-0.5 211.5,-19.5 319.5,-19.5 319.5,-0.5 211.5,-0.5"/>
<text text-anchor="middle" x="265.5" y="-7.5" font-family="Helvetica,sans-Serif" font-size="10.00">mock_geometry.cc</text>
</a>
</g>
</g>
<!-- Node4&#45;&gt;Node5 -->
<g id="edge4" class="edge">
<title>Node4&#45;&gt;Node5</title>
<path fill="none" stroke="midnightblue" d="M265.5,-45.8C265.5,-36.91 265.5,-26.78 265.5,-19.75"/>
<polygon fill="midnightblue" stroke="midnightblue" points="262,-46.08 265.5,-56.08 269,-46.08 262,-46.08"/>
</g>
<!-- Node8&#45;&gt;Node2 -->
<g id="edge8" class="edge">
<title>Node8&#45;&gt;Node2</title>
<path fill="none" stroke="midnightblue" d="M1222.97,-311.18C1090.92,-310.79 763.81,-305.52 493.5,-266 483.7,-264.57 473.16,-262.32 463.64,-260.02"/>
<polygon fill="midnightblue" stroke="midnightblue" points="1223.25,-314.68 1233.26,-311.2 1223.27,-307.68 1223.25,-314.68"/>
</g>
<!-- Node8&#45;&gt;Node3 -->
<g id="edge43" class="edge">
<title>Node8&#45;&gt;Node3</title>
<path fill="none" stroke="midnightblue" d="M1223.42,-306.11C1153.29,-299.5 1041.2,-286.18 1004.5,-266 953.46,-237.94 968.89,-195.41 917.5,-168 869.72,-142.52 715.51,-130.27 635.57,-125.5"/>
<polygon fill="midnightblue" stroke="midnightblue" points="1223.17,-309.6 1233.45,-307.04 1223.82,-302.63 1223.17,-309.6"/>
</g>
<!-- Node9 -->
<g id="node9" class="node">
<title>Node9</title>
<g id="a_node9"><a xlink:href="road__network_8h.html" target="_top" xlink:title=" ">
<polygon fill="white" stroke="black" points="1187.5,-241 1187.5,-260 1279.5,-260 1279.5,-241 1187.5,-241"/>
<text text-anchor="middle" x="1233.5" y="-248" font-family="Helvetica,sans-Serif" font-size="10.00">road_network.h</text>
</a>
</g>
</g>
<!-- Node8&#45;&gt;Node9 -->
<g id="edge9" class="edge">
<title>Node8&#45;&gt;Node9</title>
<path fill="none" stroke="midnightblue" d="M1269.05,-294.67C1259.81,-283.45 1247.93,-269.02 1240.51,-260.01"/>
<polygon fill="midnightblue" stroke="midnightblue" points="1266.42,-296.98 1275.48,-302.48 1271.82,-292.53 1266.42,-296.98"/>
</g>
<!-- Node11 -->
<g id="node11" class="node">
<title>Node11</title>
<g id="a_node11"><a xlink:href="road__network__validator_8cc.html" target="_top" xlink:title=" ">
<polygon fill="white" stroke="black" points="1111.5,-112.5 1111.5,-131.5 1257.5,-131.5 1257.5,-112.5 1111.5,-112.5"/>
<text text-anchor="middle" x="1184.5" y="-119.5" font-family="Helvetica,sans-Serif" font-size="10.00">road_network_validator.cc</text>
</a>
</g>
</g>
<!-- Node8&#45;&gt;Node11 -->
<g id="edge60" class="edge">
<title>Node8&#45;&gt;Node11</title>
<path fill="none" stroke="midnightblue" d="M1240.1,-299.31C1195.83,-284.41 1129.58,-253.78 1105.5,-199 1099.96,-186.39 1098.58,-179.91 1105.5,-168 1116.05,-149.85 1136.96,-138.41 1154.62,-131.61"/>
<polygon fill="midnightblue" stroke="midnightblue" points="1239.14,-302.68 1249.74,-302.42 1241.29,-296.02 1239.14,-302.68"/>
</g>
<!-- Node15 -->
<g id="node15" class="node">
<title>Node15</title>
<g id="a_node15"><a xlink:href="mock_8h.html" target="_top" xlink:title=" ">
<polygon fill="white" stroke="black" points="966,-174 966,-193 1019,-193 1019,-174 966,-174"/>
<text text-anchor="middle" x="992.5" y="-181" font-family="Helvetica,sans-Serif" font-size="10.00">mock.h</text>
</a>
</g>
</g>
<!-- Node8&#45;&gt;Node15 -->
<g id="edge50" class="edge">
<title>Node8&#45;&gt;Node15</title>
<path fill="none" stroke="midnightblue" d="M1223.32,-306.38C1159.41,-300.36 1062.81,-287.9 1033.5,-266 1008.76,-247.51 997.92,-209.9 994.16,-193.03"/>
<polygon fill="midnightblue" stroke="midnightblue" points="1223,-309.87 1233.28,-307.29 1223.64,-302.9 1223,-309.87"/>
</g>
<!-- Node8&#45;&gt;Node17 -->
<g id="edge51" class="edge">
<title>Node8&#45;&gt;Node17</title>
<path fill="none" stroke="midnightblue" d="M1341.85,-310.43C1463.1,-308.57 1735,-300.53 1820.5,-266 1840.71,-257.84 1838.42,-243.48 1858.5,-235 1987.09,-180.7 2033.39,-225.17 2170.5,-199 2178.8,-197.42 2187.69,-195.23 2195.82,-193.04"/>
<polygon fill="midnightblue" stroke="midnightblue" points="1341.59,-306.94 1331.64,-310.58 1341.69,-313.94 1341.59,-306.94"/>
</g>
<!-- Node18 -->
<g id="node18" class="node">
<title>Node18</title>
<g id="a_node18"><a xlink:href="generate__urdf_8h.html" target="_top" xlink:title=" ">
<polygon fill="white" stroke="black" points="2253,-112.5 2253,-131.5 2346,-131.5 2346,-112.5 2253,-112.5"/>
<text text-anchor="middle" x="2299.5" y="-119.5" font-family="Helvetica,sans-Serif" font-size="10.00">generate_urdf.h</text>
</a>
</g>
</g>
<!-- Node8&#45;&gt;Node18 -->
<g id="edge54" class="edge">
<title>Node8&#45;&gt;Node18</title>
<path fill="none" stroke="midnightblue" d="M1341.85,-309.28C1501.58,-304.35 1932.58,-289.07 1992.5,-266 2013.16,-258.05 2010.96,-243.27 2031.5,-235 2111.01,-203.01 2357.79,-262.37 2415.5,-199 2424.78,-188.81 2423.28,-179.37 2415.5,-168 2399.94,-145.27 2371.11,-134.02 2346.08,-128.45"/>
<polygon fill="midnightblue" stroke="midnightblue" points="1341.62,-305.78 1331.73,-309.59 1341.83,-312.78 1341.62,-305.78"/>
</g>
<!-- Node8&#45;&gt;Node20 -->
<g id="edge61" class="edge">
<title>Node8&#45;&gt;Node20</title>
<path fill="none" stroke="midnightblue" d="M1223.18,-304.43C1192.33,-298.51 1155.53,-287.29 1128.5,-266 1081.29,-228.81 1056.35,-156.41 1048.92,-131.59"/>
<polygon fill="midnightblue" stroke="midnightblue" points="1222.94,-307.94 1233.4,-306.23 1224.16,-301.04 1222.94,-307.94"/>
</g>
<!-- Node22 -->
<g id="node22" class="node">
<title>Node22</title>
<g id="a_node22"><a xlink:href="base_2intersection__book_8h.html" target="_top" xlink:title=" ">
<polygon fill="white" stroke="black" points="1382,-241 1382,-260 1495,-260 1495,-241 1382,-241"/>
<text text-anchor="middle" x="1438.5" y="-248" font-family="Helvetica,sans-Serif" font-size="10.00">intersection_book.h</text>
</a>
</g>
</g>
<!-- Node8&#45;&gt;Node22 -->
<g id="edge24" class="edge">
<title>Node8&#45;&gt;Node22</title>
<path fill="none" stroke="midnightblue" d="M1314.53,-298.78C1344.85,-287.22 1389.57,-270.16 1416.19,-260.01"/>
<polygon fill="midnightblue" stroke="midnightblue" points="1312.95,-295.64 1304.85,-302.48 1315.44,-302.18 1312.95,-295.64"/>
</g>
<!-- Node25 -->
<g id="node25" class="node">
<title>Node25</title>
<g id="a_node25"><a xlink:href="intersection__book__loader_8h.html" target="_top" xlink:title=" ">
<polygon fill="white" stroke="black" points="1513,-241 1513,-260 1662,-260 1662,-241 1513,-241"/>
<text text-anchor="middle" x="1587.5" y="-248" font-family="Helvetica,sans-Serif" font-size="10.00">intersection_book_loader.h</text>
</a>
</g>
</g>
<!-- Node8&#45;&gt;Node25 -->
<g id="edge27" class="edge">
<title>Node8&#45;&gt;Node25</title>
<path fill="none" stroke="midnightblue" d="M1336.09,-300.55C1395.18,-289.02 1489.11,-270.69 1543.88,-260.01"/>
<polygon fill="midnightblue" stroke="midnightblue" points="1335.34,-297.13 1326.2,-302.48 1336.68,-304 1335.34,-297.13"/>
</g>
<!-- Node26 -->
<g id="node26" class="node">
<title>Node26</title>
<g id="a_node26"><a xlink:href="road__rulebook__loader_8h.html" target="_top" xlink:title=" ">
<polygon fill="white" stroke="black" points="1680,-241 1680,-260 1811,-260 1811,-241 1680,-241"/>
<text text-anchor="middle" x="1745.5" y="-248" font-family="Helvetica,sans-Serif" font-size="10.00">road_rulebook_loader.h</text>
</a>
</g>
</g>
<!-- Node8&#45;&gt;Node26 -->
<g id="edge29" class="edge">
<title>Node8&#45;&gt;Node26</title>
<path fill="none" stroke="midnightblue" d="M1342.18,-305.56C1418.7,-298.25 1555.37,-284.07 1671.5,-266 1682.37,-264.31 1694.07,-262.17 1704.89,-260.05"/>
<polygon fill="midnightblue" stroke="midnightblue" points="1341.42,-302.12 1331.79,-306.55 1342.08,-309.09 1341.42,-302.12"/>
</g>
<!-- Node29 -->
<g id="node29" class="node">
<title>Node29</title>
<g id="a_node29"><a xlink:href="geometry__base_2branch__point_8h.html" target="_top" xlink:title=" ">
<polygon fill="white" stroke="black" points="503,-241 503,-260 592,-260 592,-241 503,-241"/>
<text text-anchor="middle" x="547.5" y="-248" font-family="Helvetica,sans-Serif" font-size="10.00">branch_point.h</text>
</a>
</g>
</g>
<!-- Node8&#45;&gt;Node29 -->
<g id="edge32" class="edge">
<title>Node8&#45;&gt;Node29</title>
<path fill="none" stroke="midnightblue" d="M1223.1,-306.19C1080.13,-294.62 719.3,-265.41 592.45,-255.14"/>
<polygon fill="midnightblue" stroke="midnightblue" points="1223.17,-309.71 1233.42,-307.03 1223.73,-302.73 1223.17,-309.71"/>
</g>
<!-- Node32 -->
<g id="node32" class="node">
<title>Node32</title>
<g id="a_node32"><a xlink:href="brute__force__find__road__positions__strategy_8h.html" target="_top" xlink:title=" ">
<polygon fill="white" stroke="black" points="2040,-235.5 2040,-265.5 2163,-265.5 2163,-235.5 2040,-235.5"/>
<text text-anchor="start" x="2048" y="-253.5" font-family="Helvetica,sans-Serif" font-size="10.00">brute_force_find_road</text>
<text text-anchor="middle" x="2101.5" y="-242.5" font-family="Helvetica,sans-Serif" font-size="10.00">_positions_strategy.h</text>
</a>
</g>
</g>
<!-- Node8&#45;&gt;Node32 -->
<g id="edge37" class="edge">
<title>Node8&#45;&gt;Node32</title>
<path fill="none" stroke="midnightblue" d="M1342.05,-309.98C1468.44,-307.24 1772.62,-297.65 2025.5,-266 2030.16,-265.42 2034.97,-264.72 2039.8,-263.96"/>
<polygon fill="midnightblue" stroke="midnightblue" points="1341.75,-306.48 1331.82,-310.19 1341.89,-313.48 1341.75,-306.48"/>
</g>
<!-- Node8&#45;&gt;Node34 -->
<g id="edge39" class="edge">
<title>Node8&#45;&gt;Node34</title>
<path fill="none" stroke="midnightblue" d="M1223.35,-310.77C1048.62,-309.66 536.83,-303.24 374.5,-266 305.32,-250.13 229.53,-210.79 197.8,-193.22"/>
<polygon fill="midnightblue" stroke="midnightblue" points="1223.37,-314.27 1233.39,-310.83 1223.41,-307.27 1223.37,-314.27"/>
</g>
<!-- Node8&#45;&gt;Node36 -->
<g id="edge44" class="edge">
<title>Node8&#45;&gt;Node36</title>
<path fill="none" stroke="midnightblue" d="M1222.98,-311.12C1059.92,-310.89 592.47,-306.45 206.5,-266 189.33,-264.2 170.4,-261.13 154.68,-258.27"/>
<polygon fill="midnightblue" stroke="midnightblue" points="1223.27,-314.62 1233.28,-311.13 1223.28,-307.62 1223.27,-314.62"/>
</g>
<!-- Node38 -->
<g id="node38" class="node">
<title>Node38</title>
<g id="a_node38"><a xlink:href="check__id__indexing_8h.html" target="_top" xlink:title=" ">
<polygon fill="white" stroke="black" points="1867.5,-241 1867.5,-260 1983.5,-260 1983.5,-241 1867.5,-241"/>
<text text-anchor="middle" x="1925.5" y="-248" font-family="Helvetica,sans-Serif" font-size="10.00">check_id_indexing.h</text>
</a>
</g>
</g>
<!-- Node8&#45;&gt;Node38 -->
<g id="edge48" class="edge">
<title>Node8&#45;&gt;Node38</title>
<path fill="none" stroke="midnightblue" d="M1341.9,-308.67C1445.96,-304.07 1667.83,-291.92 1853.5,-266 1864.61,-264.45 1876.59,-262.25 1887.53,-260.03"/>
<polygon fill="midnightblue" stroke="midnightblue" points="1341.44,-305.19 1331.6,-309.12 1341.74,-312.18 1341.44,-305.19"/>
</g>
<!-- Node40 -->
<g id="node40" class="node">
<title>Node40</title>
<g id="a_node40"><a xlink:href="generate__string_8h.html" target="_top" xlink:title=" ">
<polygon fill="white" stroke="black" points="839.5,-241 839.5,-260 941.5,-260 941.5,-241 839.5,-241"/>
<text text-anchor="middle" x="890.5" y="-248" font-family="Helvetica,sans-Serif" font-size="10.00">generate_string.h</text>
</a>
</g>
</g>
<!-- Node8&#45;&gt;Node40 -->
<g id="edge52" class="edge">
<title>Node8&#45;&gt;Node40</title>
<path fill="none" stroke="midnightblue" d="M1223.11,-304.32C1157.4,-296.59 1048.52,-282.75 955.5,-266 945.94,-264.28 935.66,-262.13 926.15,-260.01"/>
<polygon fill="midnightblue" stroke="midnightblue" points="1222.93,-307.83 1233.27,-305.51 1223.75,-300.88 1222.93,-307.83"/>
</g>
<!-- Node8&#45;&gt;Node42 -->
<g id="edge55" class="edge">
<title>Node8&#45;&gt;Node42</title>
<path fill="none" stroke="midnightblue" d="M1341.83,-309.78C1504.93,-306.16 1973.74,-293.92 2362.5,-266 2390.43,-263.99 2421.37,-260.93 2447.22,-258.14"/>
<polygon fill="midnightblue" stroke="midnightblue" points="1341.46,-306.29 1331.54,-310.01 1341.61,-313.29 1341.46,-306.29"/>
</g>
<!-- Node8&#45;&gt;Node44 -->
<g id="edge57" class="edge">
<title>Node8&#45;&gt;Node44</title>
<path fill="none" stroke="midnightblue" d="M1341.93,-310.71C1514.59,-309.44 2013.87,-302.61 2172.5,-266 2178.25,-264.67 2184.26,-262.43 2189.6,-260.09"/>
<polygon fill="midnightblue" stroke="midnightblue" points="1341.74,-307.21 1331.77,-310.78 1341.79,-314.21 1341.74,-307.21"/>
</g>
<!-- Node45 -->
<g id="node45" class="node">
<title>Node45</title>
<g id="a_node45"><a xlink:href="regions_8cc.html" target="_top" xlink:title=" ">
<polygon fill="white" stroke="black" points="1297.5,-241 1297.5,-260 1363.5,-260 1363.5,-241 1297.5,-241"/>
<text text-anchor="middle" x="1330.5" y="-248" font-family="Helvetica,sans-Serif" font-size="10.00">regions.cc</text>
</a>
</g>
</g>
<!-- Node8&#45;&gt;Node45 -->
<g id="edge58" class="edge">
<title>Node8&#45;&gt;Node45</title>
<path fill="none" stroke="midnightblue" d="M1295.67,-294.67C1304.72,-283.45 1316.37,-269.02 1323.64,-260.01"/>
<polygon fill="midnightblue" stroke="midnightblue" points="1292.93,-292.49 1289.38,-302.48 1298.38,-296.89 1292.93,-292.49"/>
</g>
<!-- Node8&#45;&gt;Node46 -->
<g id="edge59" class="edge">
<title>Node8&#45;&gt;Node46</title>
<path fill="none" stroke="midnightblue" d="M1341.91,-309.69C1523.03,-305.47 2066.49,-291.02 2241.5,-266 2251.26,-264.6 2261.75,-262.34 2271.19,-260.01"/>
<polygon fill="midnightblue" stroke="midnightblue" points="1341.7,-306.2 1331.78,-309.93 1341.86,-313.19 1341.7,-306.2"/>
</g>
<!-- Node10 -->
<g id="node10" class="node">
<title>Node10</title>
<g id="a_node10"><a xlink:href="road__network__validator_8h.html" target="_top" xlink:title=" ">
<polygon fill="white" stroke="black" points="1114,-174 1114,-193 1255,-193 1255,-174 1114,-174"/>
<text text-anchor="middle" x="1184.5" y="-181" font-family="Helvetica,sans-Serif" font-size="10.00">road_network_validator.h</text>
</a>
</g>
</g>
<!-- Node9&#45;&gt;Node10 -->
<g id="edge10" class="edge">
<title>Node9&#45;&gt;Node10</title>
<path fill="none" stroke="midnightblue" d="M1220.61,-232.4C1211.09,-219.77 1198.52,-203.1 1191,-193.13"/>
<polygon fill="midnightblue" stroke="midnightblue" points="1218.08,-234.86 1226.89,-240.73 1223.67,-230.64 1218.08,-234.86"/>
</g>
<!-- Node12 -->
<g id="node12" class="node">
<title>Node12</title>
<g id="a_node12"><a xlink:href="create__road__network_8h.html" target="_top" xlink:title=" ">
<polygon fill="white" stroke="black" points="1351.5,-112.5 1351.5,-131.5 1479.5,-131.5 1479.5,-112.5 1351.5,-112.5"/>
<text text-anchor="middle" x="1415.5" y="-119.5" font-family="Helvetica,sans-Serif" font-size="10.00">create_road_network.h</text>
</a>
</g>
</g>
<!-- Node9&#45;&gt;Node12 -->
<g id="edge12" class="edge">
<title>Node9&#45;&gt;Node12</title>
<path fill="none" stroke="midnightblue" d="M1244.6,-232.22C1257.03,-214.08 1278.71,-185.76 1303.5,-168 1327.69,-150.67 1359.5,-138.72 1383.04,-131.51"/>
<polygon fill="midnightblue" stroke="midnightblue" points="1241.6,-230.41 1238.98,-240.68 1247.43,-234.29 1241.6,-230.41"/>
</g>
<!-- Node14 -->
<g id="node14" class="node">
<title>Node14</title>
<g id="a_node14"><a xlink:href="road__network__loader_8h.html" target="_top" xlink:title=" ">
<polygon fill="white" stroke="black" points="1427.5,-174 1427.5,-193 1555.5,-193 1555.5,-174 1427.5,-174"/>
<text text-anchor="middle" x="1491.5" y="-181" font-family="Helvetica,sans-Serif" font-size="10.00">road_network_loader.h</text>
</a>
</g>
</g>
<!-- Node9&#45;&gt;Node14 -->
<g id="edge14" class="edge">
<title>Node9&#45;&gt;Node14</title>
<path fill="none" stroke="midnightblue" d="M1275.2,-238.44C1279.69,-237.27 1284.19,-236.11 1288.5,-235 1347.43,-219.9 1416.15,-202.94 1456.62,-193.02"/>
<polygon fill="midnightblue" stroke="midnightblue" points="1274.26,-235.07 1265.47,-240.99 1276.03,-241.84 1274.26,-235.07"/>
</g>
<!-- Node9&#45;&gt;Node15 -->
<g id="edge16" class="edge">
<title>Node9&#45;&gt;Node15</title>
<path fill="none" stroke="midnightblue" d="M1191.72,-238.23C1142.09,-224.85 1060.81,-202.92 1019.07,-191.67"/>
<polygon fill="midnightblue" stroke="midnightblue" points="1190.93,-241.64 1201.5,-240.87 1192.75,-234.89 1190.93,-241.64"/>
</g>
<!-- Node9&#45;&gt;Node17 -->
<g id="edge18" class="edge">
<title>Node9&#45;&gt;Node17</title>
<path fill="none" stroke="midnightblue" d="M1271.29,-238.39C1277.02,-237.04 1282.89,-235.84 1288.5,-235 1676.46,-176.65 1782.67,-258.23 2170.5,-199 2179.33,-197.65 2188.79,-195.4 2197.28,-193.07"/>
<polygon fill="midnightblue" stroke="midnightblue" points="1270.07,-235.09 1261.23,-240.94 1271.79,-241.87 1270.07,-235.09"/>
</g>
<!-- Node21 -->
<g id="node21" class="node">
<title>Node21</title>
<g id="a_node21"><a xlink:href="road__network_8cc.html" target="_top" xlink:title=" ">
<polygon fill="white" stroke="black" points="1312,-174 1312,-193 1409,-193 1409,-174 1312,-174"/>
<text text-anchor="middle" x="1360.5" y="-181" font-family="Helvetica,sans-Serif" font-size="10.00">road_network.cc</text>
</a>
</g>
</g>
<!-- Node9&#45;&gt;Node21 -->
<g id="edge23" class="edge">
<title>Node9&#45;&gt;Node21</title>
<path fill="none" stroke="midnightblue" d="M1259.34,-236.27C1284.5,-223.4 1321.99,-204.21 1343.57,-193.17"/>
<polygon fill="midnightblue" stroke="midnightblue" points="1257.67,-233.2 1250.36,-240.87 1260.86,-239.43 1257.67,-233.2"/>
</g>
<!-- Node10&#45;&gt;Node11 -->
<g id="edge11" class="edge">
<title>Node10&#45;&gt;Node11</title>
<path fill="none" stroke="midnightblue" d="M1184.5,-163.82C1184.5,-153 1184.5,-139.9 1184.5,-131.51"/>
<polygon fill="midnightblue" stroke="midnightblue" points="1181,-163.98 1184.5,-173.98 1188,-163.98 1181,-163.98"/>
</g>
<!-- Node13 -->
<g id="node13" class="node">
<title>Node13</title>
<g id="a_node13"><a xlink:href="create__road__network_8cc.html" target="_top" xlink:title=" ">
<polygon fill="white" stroke="black" points="1349,-56.5 1349,-75.5 1482,-75.5 1482,-56.5 1349,-56.5"/>
<text text-anchor="middle" x="1415.5" y="-63.5" font-family="Helvetica,sans-Serif" font-size="10.00">create_road_network.cc</text>
</a>
</g>
</g>
<!-- Node12&#45;&gt;Node13 -->
<g id="edge13" class="edge">
<title>Node12&#45;&gt;Node13</title>
<path fill="none" stroke="midnightblue" d="M1415.5,-101.8C1415.5,-92.91 1415.5,-82.78 1415.5,-75.75"/>
<polygon fill="midnightblue" stroke="midnightblue" points="1412,-102.08 1415.5,-112.08 1419,-102.08 1412,-102.08"/>
</g>
<!-- Node14&#45;&gt;Node12 -->
<g id="edge15" class="edge">
<title>Node14&#45;&gt;Node12</title>
<path fill="none" stroke="midnightblue" d="M1472.72,-167.79C1458.14,-156.38 1438.44,-140.96 1426.37,-131.51"/>
<polygon fill="midnightblue" stroke="midnightblue" points="1470.58,-170.57 1480.61,-173.98 1474.89,-165.05 1470.58,-170.57"/>
</g>
<!-- Node15&#45;&gt;Node16 -->
<g id="edge17" class="edge">
<title>Node15&#45;&gt;Node16</title>
<path fill="none" stroke="midnightblue" d="M963.25,-169.98C936.25,-158.42 896.9,-141.58 873.38,-131.51"/>
<polygon fill="midnightblue" stroke="midnightblue" points="962.01,-173.26 972.58,-173.98 964.77,-166.82 962.01,-173.26"/>
</g>
<!-- Node17&#45;&gt;Node18 -->
<g id="edge19" class="edge">
<title>Node17&#45;&gt;Node18</title>
<path fill="none" stroke="midnightblue" d="M2243.44,-167.47C2257.79,-156.09 2276.98,-140.87 2288.77,-131.51"/>
<polygon fill="midnightblue" stroke="midnightblue" points="2240.9,-165.02 2235.25,-173.98 2245.26,-170.5 2240.9,-165.02"/>
</g>
<!-- Node19 -->
<g id="node19" class="node">
<title>Node19</title>
<g id="a_node19"><a xlink:href="generate__urdf_8cc.html" target="_top" xlink:title=" ">
<polygon fill="white" stroke="black" points="2212.5,-56.5 2212.5,-75.5 2310.5,-75.5 2310.5,-56.5 2212.5,-56.5"/>
<text text-anchor="middle" x="2261.5" y="-63.5" font-family="Helvetica,sans-Serif" font-size="10.00">generate_urdf.cc</text>
</a>
</g>
</g>
<!-- Node17&#45;&gt;Node19 -->
<g id="edge22" class="edge">
<title>Node17&#45;&gt;Node19</title>
<path fill="none" stroke="midnightblue" d="M2229.37,-163.7C2233.18,-149.42 2238.77,-129.35 2244.5,-112 2248.74,-99.15 2254.42,-84.54 2258.02,-75.55"/>
<polygon fill="midnightblue" stroke="midnightblue" points="2225.88,-163.18 2226.73,-173.75 2232.65,-164.96 2225.88,-163.18"/>
</g>
<!-- Node17&#45;&gt;Node20 -->
<g id="edge21" class="edge">
<title>Node17&#45;&gt;Node20</title>
<path fill="none" stroke="midnightblue" d="M2187.59,-171.39C2181.91,-170.03 2176.08,-168.83 2170.5,-168 1700.76,-97.96 1575.23,-177.77 1102.5,-132 1099.66,-131.72 1096.74,-131.4 1093.8,-131.03"/>
<polygon fill="midnightblue" stroke="midnightblue" points="2187,-174.86 2197.56,-173.97 2188.75,-168.08 2187,-174.86"/>
</g>
<!-- Node18&#45;&gt;Node19 -->
<g id="edge20" class="edge">
<title>Node18&#45;&gt;Node19</title>
<path fill="none" stroke="midnightblue" d="M2287.44,-103.86C2280.86,-94.5 2272.99,-83.33 2267.66,-75.75"/>
<polygon fill="midnightblue" stroke="midnightblue" points="2284.61,-105.92 2293.23,-112.08 2290.33,-101.89 2284.61,-105.92"/>
</g>
<!-- Node23 -->
<g id="node23" class="node">
<title>Node23</title>
<g id="a_node23"><a xlink:href="intersection__book_8cc.html" target="_top" xlink:title=" ">
<polygon fill="white" stroke="black" points="1574,-174 1574,-193 1691,-193 1691,-174 1574,-174"/>
<text text-anchor="middle" x="1632.5" y="-181" font-family="Helvetica,sans-Serif" font-size="10.00">intersection_book.cc</text>
</a>
</g>
</g>
<!-- Node22&#45;&gt;Node23 -->
<g id="edge25" class="edge">
<title>Node22&#45;&gt;Node23</title>
<path fill="none" stroke="midnightblue" d="M1474.01,-237.6C1512.48,-224.71 1572.89,-204.47 1606.94,-193.06"/>
<polygon fill="midnightblue" stroke="midnightblue" points="1472.63,-234.37 1464.26,-240.87 1474.86,-241.01 1472.63,-234.37"/>
</g>
<!-- Node24 -->
<g id="node24" class="node">
<title>Node24</title>
<g id="a_node24"><a xlink:href="intersection__book__loader_8cc.html" target="_top" xlink:title=" ">
<polygon fill="white" stroke="black" points="1709,-174 1709,-193 1862,-193 1862,-174 1709,-174"/>
<text text-anchor="middle" x="1785.5" y="-181" font-family="Helvetica,sans-Serif" font-size="10.00">intersection_book_loader.cc</text>
</a>
</g>
</g>
<!-- Node22&#45;&gt;Node24 -->
<g id="edge26" class="edge">
<title>Node22&#45;&gt;Node24</title>
<path fill="none" stroke="midnightblue" d="M1486.31,-238.77C1492.42,-237.46 1498.6,-236.18 1504.5,-235 1548.12,-226.29 1668.72,-204.97 1736.91,-193"/>
<polygon fill="midnightblue" stroke="midnightblue" points="1485.18,-235.43 1476.14,-240.97 1486.66,-242.28 1485.18,-235.43"/>
</g>
<!-- Node25&#45;&gt;Node24 -->
<g id="edge28" class="edge">
<title>Node25&#45;&gt;Node24</title>
<path fill="none" stroke="midnightblue" d="M1623.5,-237.68C1662.74,-224.8 1724.59,-204.5 1759.41,-193.06"/>
<polygon fill="midnightblue" stroke="midnightblue" points="1622.2,-234.42 1613.79,-240.87 1624.39,-241.07 1622.2,-234.42"/>
</g>
<!-- Node27 -->
<g id="node27" class="node">
<title>Node27</title>
<g id="a_node27"><a xlink:href="road__rulebook__loader_8cc.html" target="_top" xlink:title=" ">
<polygon fill="white" stroke="black" points="2025.5,-174 2025.5,-193 2161.5,-193 2161.5,-174 2025.5,-174"/>
<text text-anchor="middle" x="2093.5" y="-181" font-family="Helvetica,sans-Serif" font-size="10.00">road_rulebook_loader.cc</text>
</a>
</g>
</g>
<!-- Node26&#45;&gt;Node27 -->
<g id="edge30" class="edge">
<title>Node26&#45;&gt;Node27</title>
<path fill="none" stroke="midnightblue" d="M1801.4,-239.12C1856.2,-228.93 1942.1,-212.94 2016.5,-199 2026.8,-197.07 2037.86,-194.99 2048.31,-193.03"/>
<polygon fill="midnightblue" stroke="midnightblue" points="1800.73,-235.68 1791.54,-240.95 1802.01,-242.56 1800.73,-235.68"/>
</g>
<!-- Node28 -->
<g id="node28" class="node">
<title>Node28</title>
<g id="a_node28"><a xlink:href="road__rulebook__loader__using__rule__registry_8cc.html" target="_top" xlink:title=" ">
<polygon fill="white" stroke="black" points="1880,-168.5 1880,-198.5 2007,-198.5 2007,-168.5 1880,-168.5"/>
<text text-anchor="start" x="1888" y="-186.5" font-family="Helvetica,sans-Serif" font-size="10.00">road_rulebook_loader</text>
<text text-anchor="middle" x="1943.5" y="-175.5" font-family="Helvetica,sans-Serif" font-size="10.00">_using_rule_registry.cc</text>
</a>
</g>
</g>
<!-- Node26&#45;&gt;Node28 -->
<g id="edge31" class="edge">
<title>Node26&#45;&gt;Node28</title>
<path fill="none" stroke="midnightblue" d="M1781.65,-237.63C1815.22,-226.61 1865.23,-210.19 1900.77,-198.53"/>
<polygon fill="midnightblue" stroke="midnightblue" points="1780.2,-234.42 1771.79,-240.87 1782.39,-241.07 1780.2,-234.42"/>
</g>
<!-- Node29&#45;&gt;Node3 -->
<g id="edge33" class="edge">
<title>Node29&#45;&gt;Node3</title>
<path fill="none" stroke="midnightblue" d="M550.83,-230.69C554.04,-213.99 559.44,-189.04 566.5,-168 570.85,-155.03 577.58,-140.7 582.01,-131.77"/>
<polygon fill="midnightblue" stroke="midnightblue" points="547.34,-230.32 548.97,-240.79 554.23,-231.59 547.34,-230.32"/>
</g>
<!-- Node29&#45;&gt;Node4 -->
<g id="edge34" class="edge">
<title>Node29&#45;&gt;Node4</title>
<path fill="none" stroke="midnightblue" d="M538.81,-231.82C529.15,-213.73 512.05,-185.83 490.5,-168 431.28,-119.01 344.49,-89.06 297.9,-75.54"/>
<polygon fill="midnightblue" stroke="midnightblue" points="535.7,-233.43 543.38,-240.73 541.93,-230.23 535.7,-233.43"/>
</g>
<!-- Node30 -->
<g id="node30" class="node">
<title>Node30</title>
<g id="a_node30"><a xlink:href="branch__point_8cc.html" target="_top" xlink:title=" ">
<polygon fill="white" stroke="black" points="576,-174 576,-193 669,-193 669,-174 576,-174"/>
<text text-anchor="middle" x="622.5" y="-181" font-family="Helvetica,sans-Serif" font-size="10.00">branch_point.cc</text>
</a>
</g>
</g>
<!-- Node29&#45;&gt;Node30 -->
<g id="edge35" class="edge">
<title>Node29&#45;&gt;Node30</title>
<path fill="none" stroke="midnightblue" d="M565.55,-233.86C580.29,-221.08 600.59,-203.49 612.55,-193.13"/>
<polygon fill="midnightblue" stroke="midnightblue" points="562.88,-231.54 557.61,-240.73 567.46,-236.83 562.88,-231.54"/>
</g>
<!-- Node31 -->
<g id="node31" class="node">
<title>Node31</title>
<g id="a_node31"><a xlink:href="geometry__base_2lane_8cc.html" target="_top" xlink:title=" ">
<polygon fill="white" stroke="black" points="272,-174 272,-193 323,-193 323,-174 272,-174"/>
<text text-anchor="middle" x="297.5" y="-181" font-family="Helvetica,sans-Serif" font-size="10.00">lane.cc</text>
</a>
</g>
</g>
<!-- Node29&#45;&gt;Node31 -->
<g id="edge36" class="edge">
<title>Node29&#45;&gt;Node31</title>
<path fill="none" stroke="midnightblue" d="M504.61,-238.35C452.47,-224.79 366.16,-202.35 323.3,-191.21"/>
<polygon fill="midnightblue" stroke="midnightblue" points="504,-241.81 514.56,-240.94 505.76,-235.03 504,-241.81"/>
</g>
<!-- Node32&#45;&gt;Node33 -->
<g id="edge38" class="edge">
<title>Node32&#45;&gt;Node33</title>
<path fill="none" stroke="midnightblue" d="M2173.22,-234.96C2296.26,-214.8 2329.58,-218.08 2448.5,-199 2453.01,-198.28 2457.66,-197.49 2462.34,-196.67"/>
<polygon fill="midnightblue" stroke="midnightblue" points="2172.32,-231.57 2163.02,-236.65 2173.46,-238.47 2172.32,-231.57"/>
</g>
<!-- Node34&#45;&gt;Node3 -->
<g id="edge40" class="edge">
<title>Node34&#45;&gt;Node3</title>
<path fill="none" stroke="midnightblue" d="M225,-174.46C237.1,-172.26 250.3,-169.95 262.5,-168 359.65,-152.46 473.7,-137.34 537.28,-129.19"/>
<polygon fill="midnightblue" stroke="midnightblue" points="224.35,-171.02 215.14,-176.27 225.61,-177.91 224.35,-171.02"/>
</g>
<!-- Node34&#45;&gt;Node4 -->
<g id="edge41" class="edge">
<title>Node34&#45;&gt;Node4</title>
<path fill="none" stroke="midnightblue" d="M168.53,-165.26C158.18,-150.26 147.6,-128.41 158.5,-112 171.21,-92.86 193.82,-81.85 214.99,-75.51"/>
<polygon fill="midnightblue" stroke="midnightblue" points="165.97,-167.68 174.75,-173.61 171.58,-163.5 165.97,-167.68"/>
</g>
<!-- Node35 -->
<g id="node35" class="node">
<title>Node35</title>
<g id="a_node35"><a xlink:href="junction_8cc.html" target="_top" xlink:title=" ">
<polygon fill="white" stroke="black" points="168,-112.5 168,-131.5 237,-131.5 237,-112.5 168,-112.5"/>
<text text-anchor="middle" x="202.5" y="-119.5" font-family="Helvetica,sans-Serif" font-size="10.00">junction.cc</text>
</a>
</g>
</g>
<!-- Node34&#45;&gt;Node35 -->
<g id="edge42" class="edge">
<title>Node34&#45;&gt;Node35</title>
<path fill="none" stroke="midnightblue" d="M188.67,-164.16C192.32,-153.27 196.79,-139.99 199.64,-131.51"/>
<polygon fill="midnightblue" stroke="midnightblue" points="185.23,-163.38 185.37,-173.98 191.87,-165.61 185.23,-163.38"/>
</g>
<!-- Node36&#45;&gt;Node4 -->
<g id="edge46" class="edge">
<title>Node36&#45;&gt;Node4</title>
<path fill="none" stroke="midnightblue" d="M119.35,-230.54C118.63,-201.55 121.51,-145.98 150.5,-112 166.78,-92.92 192.2,-81.88 215.01,-75.52"/>
<polygon fill="midnightblue" stroke="midnightblue" points="115.86,-231.05 119.79,-240.89 122.86,-230.75 115.86,-231.05"/>
</g>
<!-- Node36&#45;&gt;Node34 -->
<g id="edge45" class="edge">
<title>Node36&#45;&gt;Node34</title>
<path fill="none" stroke="midnightblue" d="M135.76,-233.5C147.92,-220.75 164.48,-203.39 174.27,-193.13"/>
<polygon fill="midnightblue" stroke="midnightblue" points="133.23,-231.08 128.86,-240.73 138.3,-235.91 133.23,-231.08"/>
</g>
<!-- Node37 -->
<g id="node37" class="node">
<title>Node37</title>
<g id="a_node37"><a xlink:href="segment_8cc.html" target="_top" xlink:title=" ">
<polygon fill="white" stroke="black" points="0,-174 0,-193 73,-193 73,-174 0,-174"/>
<text text-anchor="middle" x="36.5" y="-181" font-family="Helvetica,sans-Serif" font-size="10.00">segment.cc</text>
</a>
</g>
</g>
<!-- Node36&#45;&gt;Node37 -->
<g id="edge47" class="edge">
<title>Node36&#45;&gt;Node37</title>
<path fill="none" stroke="midnightblue" d="M101.2,-234.57C84.62,-221.74 61.29,-203.69 47.65,-193.13"/>
<polygon fill="midnightblue" stroke="midnightblue" points="99.12,-237.38 109.17,-240.73 103.4,-231.85 99.12,-237.38"/>
</g>
<!-- Node39 -->
<g id="node39" class="node">
<title>Node39</title>
<g id="a_node39"><a xlink:href="check__id__indexing_8cc.html" target="_top" xlink:title=" ">
<polygon fill="white" stroke="black" points="2286.5,-174 2286.5,-193 2406.5,-193 2406.5,-174 2286.5,-174"/>
<text text-anchor="middle" x="2346.5" y="-181" font-family="Helvetica,sans-Serif" font-size="10.00">check_id_indexing.cc</text>
</a>
</g>
</g>
<!-- Node38&#45;&gt;Node39 -->
<g id="edge49" class="edge">
<title>Node38&#45;&gt;Node39</title>
<path fill="none" stroke="midnightblue" d="M1975.36,-238.98C1982.76,-237.56 1990.32,-236.18 1997.5,-235 2121.74,-214.56 2154.38,-220.15 2278.5,-199 2288.5,-197.3 2299.25,-195.15 2309.2,-193.03"/>
<polygon fill="midnightblue" stroke="midnightblue" points="1974.53,-235.58 1965.4,-240.94 1975.88,-242.44 1974.53,-235.58"/>
</g>
<!-- Node40&#45;&gt;Node41 -->
<g id="edge53" class="edge">
<title>Node40&#45;&gt;Node41</title>
<path fill="none" stroke="midnightblue" d="M880.9,-231.66C874.15,-219.13 865.41,-202.91 860.15,-193.13"/>
<polygon fill="midnightblue" stroke="midnightblue" points="877.96,-233.59 885.78,-240.73 884.12,-230.27 877.96,-233.59"/>
</g>
<!-- Node43 -->
<g id="node43" class="node">
<title>Node43</title>
<g id="a_node43"><a xlink:href="segment__analysis_8cc.html" target="_top" xlink:title=" ">
<polygon fill="white" stroke="black" points="2605,-174 2605,-193 2724,-193 2724,-174 2605,-174"/>
<text text-anchor="middle" x="2664.5" y="-181" font-family="Helvetica,sans-Serif" font-size="10.00">segment_analysis.cc</text>
</a>
</g>
</g>
<!-- Node42&#45;&gt;Node43 -->
<g id="edge56" class="edge">
<title>Node42&#45;&gt;Node43</title>
<path fill="none" stroke="midnightblue" d="M2535.01,-237.1C2566.78,-224.2 2615.69,-204.33 2643.42,-193.06"/>
<polygon fill="midnightblue" stroke="midnightblue" points="2533.69,-233.86 2525.75,-240.87 2536.33,-240.35 2533.69,-233.86"/>
</g>
<!-- Node47&#45;&gt;Node4 -->
<g id="edge65" class="edge">
<title>Node47&#45;&gt;Node4</title>
<path fill="none" stroke="midnightblue" d="M290.1,-293.22C281.47,-271.46 267.73,-233.27 262.5,-199 255.48,-153 261.48,-96.95 264.26,-75.72"/>
<polygon fill="midnightblue" stroke="midnightblue" points="286.86,-294.55 293.86,-302.5 293.34,-291.92 286.86,-294.55"/>
</g>
<!-- Node47&#45;&gt;Node30 -->
<g id="edge66" class="edge">
<title>Node47&#45;&gt;Node30</title>
<path fill="none" stroke="midnightblue" d="M331.22,-310.5C401.68,-308.77 561.2,-300.98 600.5,-266 621.74,-247.1 623.42,-210.04 622.99,-193.2"/>
<polygon fill="midnightblue" stroke="midnightblue" points="331.03,-307.01 321.11,-310.73 331.18,-314 331.03,-307.01"/>
</g>
<!-- Node47&#45;&gt;Node31 -->
<g id="edge67" class="edge">
<title>Node47&#45;&gt;Node31</title>
<path fill="none" stroke="midnightblue" d="M297.5,-291.94C297.5,-264.12 297.5,-213.54 297.5,-193.26"/>
<polygon fill="midnightblue" stroke="midnightblue" points="294,-292.31 297.5,-302.31 301,-292.31 294,-292.31"/>
</g>
<!-- Node47&#45;&gt;Node36 -->
<g id="edge64" class="edge">
<title>Node47&#45;&gt;Node36</title>
<path fill="none" stroke="midnightblue" d="M264.4,-299.87C230.02,-288.32 177,-270.49 145.82,-260.01"/>
<polygon fill="midnightblue" stroke="midnightblue" points="263.4,-303.23 274,-303.1 265.63,-296.59 263.4,-303.23"/>
</g>
</g>
</svg>
