<?xml version="1.0" encoding="UTF-8" standalone="no"?>
<!DOCTYPE svg PUBLIC "-//W3C//DTD SVG 1.1//EN"
 "http://www.w3.org/Graphics/SVG/1.1/DTD/svg11.dtd">
<!-- Generated by graphviz version 2.40.1 (20161225.0304)
 -->
<!-- Title: rule_registry.h Pages: 1 -->
<svg width="2084pt" height="766pt"
 viewBox="0.00 0.00 2084.17 766.00" xmlns="http://www.w3.org/2000/svg" xmlns:xlink="http://www.w3.org/1999/xlink">
<g id="graph0" class="graph" transform="scale(1 1) rotate(0) translate(4 762)">
<title>rule_registry.h</title>
<polygon fill="#ffffff" stroke="transparent" points="-4,4 -4,-762 2080.1655,-762 2080.1655,4 -4,4"/>
<!-- Node0 -->
<g id="node1" class="node">
<title>Node0</title>
<polygon fill="#bfbfbf" stroke="#000000" points="1864.5,-738.5 1864.5,-757.5 1951.5,-757.5 1951.5,-738.5 1864.5,-738.5"/>
<text text-anchor="middle" x="1908" y="-745.5" font-family="Helvetica,sans-Serif" font-size="10.00" fill="#000000">rule_registry.h</text>
</g>
<!-- Node1 -->
<g id="node2" class="node">
<title>Node1</title>
<polygon fill="#ffffff" stroke="#bfbfbf" points="1933.5,-246.5 1933.5,-265.5 1978.5,-265.5 1978.5,-246.5 1933.5,-246.5"/>
<text text-anchor="middle" x="1956" y="-253.5" font-family="Helvetica,sans-Serif" font-size="10.00" fill="#000000">utility</text>
</g>
<!-- Node0&#45;&gt;Node1 -->
<g id="edge1" class="edge">
<title>Node0&#45;&gt;Node1</title>
<path fill="none" stroke="#191970" d="M1951.6482,-738.8051C1988.6523,-730.1809 2037.8983,-716.4747 2052,-702 2078.6473,-674.6478 2076,-657.6867 2076,-619.5 2076,-619.5 2076,-619.5 2076,-446 2076,-371.9095 2009.9641,-303.186 1975.866,-272.6388"/>
<polygon fill="#191970" stroke="#191970" points="1977.7774,-269.6609 1967.9448,-265.715 1973.1706,-274.9314 1977.7774,-269.6609"/>
</g>
<!-- Node2 -->
<g id="node3" class="node">
<title>Node2</title>
<polygon fill="#ffffff" stroke="#bfbfbf" points="1824.5,-246.5 1824.5,-265.5 1871.5,-265.5 1871.5,-246.5 1824.5,-246.5"/>
<text text-anchor="middle" x="1848" y="-253.5" font-family="Helvetica,sans-Serif" font-size="10.00" fill="#000000">vector</text>
</g>
<!-- Node0&#45;&gt;Node2 -->
<g id="edge2" class="edge">
<title>Node0&#45;&gt;Node2</title>
<path fill="none" stroke="#191970" d="M1930.3478,-738.3865C1967.5167,-720.7154 2038,-679.3194 2038,-619.5 2038,-619.5 2038,-619.5 2038,-502 2038,-397.6464 1986.9111,-377.6206 1915,-302 1903.308,-289.7049 1887.817,-278.8109 1874.6758,-270.7145"/>
<polygon fill="#191970" stroke="#191970" points="1876.4132,-267.6756 1866.0289,-265.5735 1872.8358,-273.6925 1876.4132,-267.6756"/>
</g>
<!-- Node3 -->
<g id="node4" class="node">
<title>Node3</title>
<g id="a_node4"><a xlink:href="discrete__value__rule_8h.html" target="_top" xlink:title="maliput/api/rules/discrete\l_value_rule.h">
<polygon fill="#ffffff" stroke="#000000" points="1358.5,-604.5 1358.5,-634.5 1499.5,-634.5 1499.5,-604.5 1358.5,-604.5"/>
<text text-anchor="start" x="1366.5" y="-622.5" font-family="Helvetica,sans-Serif" font-size="10.00" fill="#000000">maliput/api/rules/discrete</text>
<text text-anchor="middle" x="1429" y="-611.5" font-family="Helvetica,sans-Serif" font-size="10.00" fill="#000000">_value_rule.h</text>
</a>
</g>
</g>
<!-- Node0&#45;&gt;Node3 -->
<g id="edge3" class="edge">
<title>Node0&#45;&gt;Node3</title>
<path fill="none" stroke="#191970" d="M1864.1137,-738.7189C1823.4654,-729.9304 1761.4139,-716.0256 1708,-702 1630.8036,-681.7294 1542.6103,-655.0514 1486.4059,-637.5984"/>
<polygon fill="#191970" stroke="#191970" points="1487.2257,-634.188 1476.6374,-634.5579 1485.1453,-640.8718 1487.2257,-634.188"/>
</g>
<!-- Node32 -->
<g id="node33" class="node">
<title>Node32</title>
<g id="a_node33"><a xlink:href="api_2rules_2rule__registry_8h.html" target="_top" xlink:title="maliput/api/rules/rule\l_registry.h">
<polygon fill="#ffffff" stroke="#000000" points="1717.5,-671.5 1717.5,-701.5 1838.5,-701.5 1838.5,-671.5 1717.5,-671.5"/>
<text text-anchor="start" x="1725.5" y="-689.5" font-family="Helvetica,sans-Serif" font-size="10.00" fill="#000000">maliput/api/rules/rule</text>
<text text-anchor="middle" x="1778" y="-678.5" font-family="Helvetica,sans-Serif" font-size="10.00" fill="#000000">_registry.h</text>
</a>
</g>
</g>
<!-- Node0&#45;&gt;Node32 -->
<g id="edge84" class="edge">
<title>Node0&#45;&gt;Node32</title>
<path fill="none" stroke="#191970" d="M1887.6875,-738.3906C1869.3605,-729.7205 1841.8471,-716.7046 1818.9613,-705.8779"/>
<polygon fill="#191970" stroke="#191970" points="1820.3378,-702.6572 1809.8016,-701.5446 1817.3443,-708.9849 1820.3378,-702.6572"/>
</g>
<!-- Node3&#45;&gt;Node2 -->
<g id="edge5" class="edge">
<title>Node3&#45;&gt;Node2</title>
<path fill="none" stroke="#191970" d="M1460.5114,-604.425C1524.2588,-572.888 1670.9513,-494.9458 1771,-400 1798.9453,-373.48 1808.113,-367.1219 1826,-333 1835.5977,-314.6911 1841.468,-291.6749 1844.703,-275.5959"/>
<polygon fill="#191970" stroke="#191970" points="1848.1532,-276.1863 1846.5351,-265.7157 1841.2705,-274.91 1848.1532,-276.1863"/>
</g>
<!-- Node4 -->
<g id="node5" class="node">
<title>Node4</title>
<polygon fill="#ffffff" stroke="#bfbfbf" points="1428,-.5 1428,-19.5 1472,-19.5 1472,-.5 1428,-.5"/>
<text text-anchor="middle" x="1450" y="-7.5" font-family="Helvetica,sans-Serif" font-size="10.00" fill="#000000">string</text>
</g>
<!-- Node3&#45;&gt;Node4 -->
<g id="edge4" class="edge">
<title>Node3&#45;&gt;Node4</title>
<path fill="none" stroke="#191970" d="M1358.1941,-618.7316C1089.9542,-615.5678 148.65,-602.0734 95,-568 17.4766,-518.7644 0,-476.3369 0,-384.5 0,-384.5 0,-384.5 0,-133 0,-64.6971 67.3544,-74.8664 133,-56 259.8569,-19.5417 1228.2049,-11.434 1417.8421,-10.19"/>
<polygon fill="#191970" stroke="#191970" points="1418.0166,-13.689 1427.994,-10.1251 1417.9718,-6.6892 1418.0166,-13.689"/>
</g>
<!-- Node5 -->
<g id="node6" class="node">
<title>Node5</title>
<g id="a_node6"><a xlink:href="regions_8h.html" target="_top" xlink:title="maliput/api/regions.h">
<polygon fill="#ffffff" stroke="#000000" points="1369,-492.5 1369,-511.5 1489,-511.5 1489,-492.5 1369,-492.5"/>
<text text-anchor="middle" x="1429" y="-499.5" font-family="Helvetica,sans-Serif" font-size="10.00" fill="#000000">maliput/api/regions.h</text>
</a>
</g>
</g>
<!-- Node3&#45;&gt;Node5 -->
<g id="edge6" class="edge">
<title>Node3&#45;&gt;Node5</title>
<path fill="none" stroke="#191970" d="M1429,-604.1389C1429,-582.9692 1429,-544.8174 1429,-521.6112"/>
<polygon fill="#191970" stroke="#191970" points="1432.5001,-521.5594 1429,-511.5595 1425.5001,-521.5595 1432.5001,-521.5594"/>
</g>
<!-- Node14 -->
<g id="node15" class="node">
<title>Node14</title>
<g id="a_node15"><a xlink:href="maliput__copyable_8h.html" target="_top" xlink:title="Code in this file is inspired by: https://github.com/RobotLocomotion/drake/blob/master/common/drake_c...">
<polygon fill="#ffffff" stroke="#000000" points="272,-179.5 272,-209.5 412,-209.5 412,-179.5 272,-179.5"/>
<text text-anchor="start" x="280" y="-197.5" font-family="Helvetica,sans-Serif" font-size="10.00" fill="#000000">maliput/common/maliput</text>
<text text-anchor="middle" x="342" y="-186.5" font-family="Helvetica,sans-Serif" font-size="10.00" fill="#000000">_copyable.h</text>
</a>
</g>
</g>
<!-- Node3&#45;&gt;Node14 -->
<g id="edge83" class="edge">
<title>Node3&#45;&gt;Node14</title>
<path fill="none" stroke="#191970" d="M1358.4974,-618.164C1096.87,-613.0156 193.7958,-593.4713 138,-568 101.3884,-551.2864 76,-542.2462 76,-502 76,-502 76,-502 76,-317.5 76,-275.4389 102.1829,-268.0515 138,-246 175.2777,-223.0492 222.3606,-210.3003 261.8988,-203.2313"/>
<polygon fill="#191970" stroke="#191970" points="262.5049,-206.6785 271.7777,-201.5537 261.3329,-199.7773 262.5049,-206.6785"/>
</g>
<!-- Node30 -->
<g id="node31" class="node">
<title>Node30</title>
<g id="a_node31"><a xlink:href="rule_8h.html" target="_top" xlink:title="maliput/api/rules/rule.h">
<polygon fill="#ffffff" stroke="#000000" points="348,-548.5 348,-567.5 478,-567.5 478,-548.5 348,-548.5"/>
<text text-anchor="middle" x="413" y="-555.5" font-family="Helvetica,sans-Serif" font-size="10.00" fill="#000000">maliput/api/rules/rule.h</text>
</a>
</g>
</g>
<!-- Node3&#45;&gt;Node30 -->
<g id="edge70" class="edge">
<title>Node3&#45;&gt;Node30</title>
<path fill="none" stroke="#191970" d="M1358.3635,-615.2243C1173.7673,-604.0504 678.145,-574.0496 488.3602,-562.5617"/>
<polygon fill="#191970" stroke="#191970" points="488.3924,-559.0573 478.1992,-561.9466 487.9694,-566.0445 488.3924,-559.0573"/>
</g>
<!-- Node5&#45;&gt;Node2 -->
<g id="edge10" class="edge">
<title>Node5&#45;&gt;Node2</title>
<path fill="none" stroke="#191970" d="M1479.3855,-492.4932C1538.8811,-479.3927 1638.7409,-451.3607 1710,-400 1757.0102,-366.1169 1755.1058,-343.0572 1796,-302 1806.2337,-291.7255 1818.3337,-280.9483 1828.2854,-272.4103"/>
<polygon fill="#191970" stroke="#191970" points="1830.6879,-274.9621 1836.0515,-265.8252 1826.1607,-269.623 1830.6879,-274.9621"/>
</g>
<!-- Node6 -->
<g id="node7" class="node">
<title>Node6</title>
<polygon fill="#ffffff" stroke="#bfbfbf" points="893.5,-185 893.5,-204 940.5,-204 940.5,-185 893.5,-185"/>
<text text-anchor="middle" x="917" y="-192" font-family="Helvetica,sans-Serif" font-size="10.00" fill="#000000">cmath</text>
</g>
<!-- Node5&#45;&gt;Node6 -->
<g id="edge7" class="edge">
<title>Node5&#45;&gt;Node6</title>
<path fill="none" stroke="#191970" d="M1368.8719,-496.4905C1181.0918,-477.8626 612.1833,-410.177 513,-266 465.7438,-197.3064 803.5963,-232.0726 884,-210 885.9685,-209.4596 887.9647,-208.8094 889.9505,-208.0856"/>
<polygon fill="#191970" stroke="#191970" points="891.7537,-211.1242 899.6149,-204.0211 889.04,-204.6716 891.7537,-211.1242"/>
</g>
<!-- Node7 -->
<g id="node8" class="node">
<title>Node7</title>
<polygon fill="#ffffff" stroke="#bfbfbf" points="1512,-436.5 1512,-455.5 1568,-455.5 1568,-436.5 1512,-436.5"/>
<text text-anchor="middle" x="1540" y="-443.5" font-family="Helvetica,sans-Serif" font-size="10.00" fill="#000000">numeric</text>
</g>
<!-- Node5&#45;&gt;Node7 -->
<g id="edge8" class="edge">
<title>Node5&#45;&gt;Node7</title>
<path fill="none" stroke="#191970" d="M1448.0816,-492.3733C1465.7402,-483.4644 1492.2053,-470.1127 1512.2098,-460.0203"/>
<polygon fill="#191970" stroke="#191970" points="1513.8158,-463.1303 1521.1674,-455.5011 1510.6628,-456.8806 1513.8158,-463.1303"/>
</g>
<!-- Node8 -->
<g id="node9" class="node">
<title>Node8</title>
<polygon fill="#ffffff" stroke="#bfbfbf" points="522,-246.5 522,-265.5 578,-265.5 578,-246.5 522,-246.5"/>
<text text-anchor="middle" x="550" y="-253.5" font-family="Helvetica,sans-Serif" font-size="10.00" fill="#000000">optional</text>
</g>
<!-- Node5&#45;&gt;Node8 -->
<g id="edge9" class="edge">
<title>Node5&#45;&gt;Node8</title>
<path fill="none" stroke="#191970" d="M1368.9202,-501.2192C1170.3967,-498.349 546.3756,-486.8946 517,-456 468.9369,-405.4515 515.079,-313.2887 538.3638,-274.2503"/>
<polygon fill="#191970" stroke="#191970" points="541.4698,-275.8806 543.7199,-265.5275 535.5046,-272.2177 541.4698,-275.8806"/>
</g>
<!-- Node9 -->
<g id="node10" class="node">
<title>Node9</title>
<g id="a_node10"><a xlink:href="api_2lane_8h.html" target="_top" xlink:title="maliput/api/lane.h">
<polygon fill="#ffffff" stroke="#000000" points="1350.5,-436.5 1350.5,-455.5 1455.5,-455.5 1455.5,-436.5 1350.5,-436.5"/>
<text text-anchor="middle" x="1403" y="-443.5" font-family="Helvetica,sans-Serif" font-size="10.00" fill="#000000">maliput/api/lane.h</text>
</a>
</g>
</g>
<!-- Node5&#45;&gt;Node9 -->
<g id="edge11" class="edge">
<title>Node5&#45;&gt;Node9</title>
<path fill="none" stroke="#191970" d="M1424.4711,-492.2455C1420.9666,-484.6973 1416.0073,-474.0158 1411.7377,-464.8197"/>
<polygon fill="#191970" stroke="#191970" points="1414.8627,-463.2389 1407.477,-455.6427 1408.5136,-466.1867 1414.8627,-463.2389"/>
</g>
<!-- Node5&#45;&gt;Node14 -->
<g id="edge69" class="edge">
<title>Node5&#45;&gt;Node14</title>
<path fill="none" stroke="#191970" d="M1368.7409,-500.5184C1168.7802,-495.4063 537.6836,-477.6275 500,-456 408.3504,-403.4002 363.6603,-274.3041 348.3444,-219.6243"/>
<polygon fill="#191970" stroke="#191970" points="351.6567,-218.465 345.6677,-209.7253 344.8994,-220.2922 351.6567,-218.465"/>
</g>
<!-- Node25 -->
<g id="node26" class="node">
<title>Node25</title>
<g id="a_node26"><a xlink:href="type__specific__identifier_8h.html" target="_top" xlink:title="maliput/api/type_specific\l_identifier.h">
<polygon fill="#ffffff" stroke="#000000" points="1414,-369.5 1414,-399.5 1554,-399.5 1554,-369.5 1414,-369.5"/>
<text text-anchor="start" x="1422" y="-387.5" font-family="Helvetica,sans-Serif" font-size="10.00" fill="#000000">maliput/api/type_specific</text>
<text text-anchor="middle" x="1484" y="-376.5" font-family="Helvetica,sans-Serif" font-size="10.00" fill="#000000">_identifier.h</text>
</a>
</g>
</g>
<!-- Node5&#45;&gt;Node25 -->
<g id="edge68" class="edge">
<title>Node5&#45;&gt;Node25</title>
<path fill="none" stroke="#191970" d="M1438.2723,-492.1547C1446.1416,-483.313 1457.2067,-469.6569 1464,-456 1471.2736,-441.3775 1476.2465,-423.7147 1479.4143,-409.6031"/>
<polygon fill="#191970" stroke="#191970" points="1482.8824,-410.1165 1481.4931,-399.6132 1476.0292,-408.6904 1482.8824,-410.1165"/>
</g>
<!-- Node9&#45;&gt;Node4 -->
<g id="edge14" class="edge">
<title>Node9&#45;&gt;Node4</title>
<path fill="none" stroke="#191970" d="M1455.7131,-439.9659C1530.4446,-430.9899 1660.0533,-413.7072 1677,-400 1730.5168,-356.7134 1734,-324.8315 1734,-256 1734,-256 1734,-256 1734,-133 1734,-79.338 1688.9895,-80.0127 1641,-56 1588.8906,-29.9258 1521.2714,-18.1666 1482.0487,-13.2284"/>
<polygon fill="#191970" stroke="#191970" points="1482.3533,-9.7401 1472.0103,-12.0364 1481.5278,-16.6912 1482.3533,-9.7401"/>
</g>
<!-- Node9&#45;&gt;Node8 -->
<g id="edge13" class="edge">
<title>Node9&#45;&gt;Node8</title>
<path fill="none" stroke="#191970" d="M1350.1408,-438.1648C1244.712,-422.0829 1001.1243,-382.648 800,-333 723.4361,-314.1 635.7134,-285.4118 587.1981,-268.9104"/>
<polygon fill="#191970" stroke="#191970" points="588.0533,-265.504 577.4587,-265.5821 585.7896,-272.1279 588.0533,-265.504"/>
</g>
<!-- Node10 -->
<g id="node11" class="node">
<title>Node10</title>
<polygon fill="#ffffff" stroke="#bfbfbf" points="1610,-375 1610,-394 1668,-394 1668,-375 1610,-375"/>
<text text-anchor="middle" x="1639" y="-382" font-family="Helvetica,sans-Serif" font-size="10.00" fill="#000000">memory</text>
</g>
<!-- Node9&#45;&gt;Node10 -->
<g id="edge12" class="edge">
<title>Node9&#45;&gt;Node10</title>
<path fill="none" stroke="#191970" d="M1449.4003,-436.4698C1488.7372,-428.027 1546.4888,-414.7733 1596,-400 1598.6187,-399.2186 1601.311,-398.367 1604.0097,-397.4781"/>
<polygon fill="#191970" stroke="#191970" points="1605.3685,-400.7122 1613.6906,-394.1553 1603.096,-394.0914 1605.3685,-400.7122"/>
</g>
<!-- Node11 -->
<g id="node12" class="node">
<title>Node11</title>
<g id="a_node12"><a xlink:href="lane__data_8h.html" target="_top" xlink:title="maliput/api/lane_data.h">
<polygon fill="#ffffff" stroke="#000000" points="1168,-375 1168,-394 1300,-394 1300,-375 1168,-375"/>
<text text-anchor="middle" x="1234" y="-382" font-family="Helvetica,sans-Serif" font-size="10.00" fill="#000000">maliput/api/lane_data.h</text>
</a>
</g>
</g>
<!-- Node9&#45;&gt;Node11 -->
<g id="edge15" class="edge">
<title>Node9&#45;&gt;Node11</title>
<path fill="none" stroke="#191970" d="M1376.5938,-436.3906C1347.8209,-425.92 1301.6304,-409.1111 1269.6534,-397.4745"/>
<polygon fill="#191970" stroke="#191970" points="1270.8149,-394.1726 1260.2208,-394.0419 1268.421,-400.7506 1270.8149,-394.1726"/>
</g>
<!-- Node9&#45;&gt;Node14 -->
<g id="edge66" class="edge">
<title>Node9&#45;&gt;Node14</title>
<path fill="none" stroke="#191970" d="M1350.2334,-443.47C1179.1518,-434.6559 641.7728,-402.0061 484,-333 427.7621,-308.4029 380.9982,-250.9162 357.7784,-218.2633"/>
<polygon fill="#191970" stroke="#191970" points="360.4481,-215.9719 351.8653,-209.76 354.701,-219.9683 360.4481,-215.9719"/>
</g>
<!-- Node15 -->
<g id="node16" class="node">
<title>Node15</title>
<g id="a_node16"><a xlink:href="maliput__throw_8h.html" target="_top" xlink:title="Code in this file is inspired by: https://github.com/RobotLocomotion/drake/blob/master/common/drake_t...">
<polygon fill="#ffffff" stroke="#000000" points="1380,-56.5 1380,-86.5 1520,-86.5 1520,-56.5 1380,-56.5"/>
<text text-anchor="start" x="1388" y="-74.5" font-family="Helvetica,sans-Serif" font-size="10.00" fill="#000000">maliput/common/maliput</text>
<text text-anchor="middle" x="1450" y="-63.5" font-family="Helvetica,sans-Serif" font-size="10.00" fill="#000000">_throw.h</text>
</a>
</g>
</g>
<!-- Node9&#45;&gt;Node15 -->
<g id="edge67" class="edge">
<title>Node9&#45;&gt;Node15</title>
<path fill="none" stroke="#191970" d="M1455.531,-441.1314C1489.2174,-435.7072 1532.2399,-424.2404 1563,-400 1616.7763,-357.6217 1621.5332,-332.2021 1639,-266 1660.6506,-183.9407 1558.1179,-121.0137 1495.5412,-90.9576"/>
<polygon fill="#191970" stroke="#191970" points="1496.7815,-87.6734 1486.2422,-86.5905 1493.8059,-94.0095 1496.7815,-87.6734"/>
</g>
<!-- Node9&#45;&gt;Node25 -->
<g id="edge47" class="edge">
<title>Node9&#45;&gt;Node25</title>
<path fill="none" stroke="#191970" d="M1415.6563,-436.3906C1426.4156,-428.2215 1442.2565,-416.1941 1455.9791,-405.7752"/>
<polygon fill="#191970" stroke="#191970" points="1458.3372,-408.3793 1464.1852,-399.5446 1454.1042,-402.8042 1458.3372,-408.3793"/>
</g>
<!-- Node11&#45;&gt;Node4 -->
<g id="edge18" class="edge">
<title>Node11&#45;&gt;Node4</title>
<path fill="none" stroke="#191970" d="M1296.2023,-374.9746C1329.3292,-367.6079 1369.4266,-354.8305 1400,-333 1430.0234,-311.5622 1430.4816,-297.907 1449,-266 1499.135,-179.6183 1578.7786,-142.5875 1529,-56 1518.8831,-38.4021 1499.1564,-26.9064 1481.9473,-19.808"/>
<polygon fill="#191970" stroke="#191970" points="1482.7891,-16.3846 1472.1974,-16.1238 1480.3147,-22.9327 1482.7891,-16.3846"/>
</g>
<!-- Node12 -->
<g id="node13" class="node">
<title>Node12</title>
<polygon fill="#ffffff" stroke="#bfbfbf" points="1356.5,-246.5 1356.5,-265.5 1421.5,-265.5 1421.5,-246.5 1356.5,-246.5"/>
<text text-anchor="middle" x="1389" y="-253.5" font-family="Helvetica,sans-Serif" font-size="10.00" fill="#000000">functional</text>
</g>
<!-- Node11&#45;&gt;Node12 -->
<g id="edge16" class="edge">
<title>Node11&#45;&gt;Node12</title>
<path fill="none" stroke="#191970" d="M1258.2214,-374.9527C1278.7526,-366.0939 1308.2431,-351.5006 1330,-333 1349.9484,-316.0372 1367.4294,-291.2752 1378.0815,-274.4452"/>
<polygon fill="#191970" stroke="#191970" points="1381.2803,-275.9244 1383.5312,-265.5714 1375.3154,-272.2611 1381.2803,-275.9244"/>
</g>
<!-- Node13 -->
<g id="node14" class="node">
<title>Node13</title>
<polygon fill="#ffffff" stroke="#bfbfbf" points="1101.5,-185 1101.5,-204 1158.5,-204 1158.5,-185 1101.5,-185"/>
<text text-anchor="middle" x="1130" y="-192" font-family="Helvetica,sans-Serif" font-size="10.00" fill="#000000">ostream</text>
</g>
<!-- Node11&#45;&gt;Node13 -->
<g id="edge17" class="edge">
<title>Node11&#45;&gt;Node13</title>
<path fill="none" stroke="#191970" d="M1230.8544,-374.9767C1222.9993,-351.8551 1201.1179,-291.3226 1173,-246 1165.4011,-233.7515 1155.1008,-221.3106 1146.4865,-211.7255"/>
<polygon fill="#191970" stroke="#191970" points="1148.8152,-209.0881 1139.4606,-204.1139 1143.6715,-213.836 1148.8152,-209.0881"/>
</g>
<!-- Node11&#45;&gt;Node14 -->
<g id="edge19" class="edge">
<title>Node11&#45;&gt;Node14</title>
<path fill="none" stroke="#191970" d="M1167.8652,-383.2698C1020.4176,-379.9152 668.8607,-368.3547 556,-333 479.243,-308.9551 403.6071,-249.2397 366.191,-216.6244"/>
<polygon fill="#191970" stroke="#191970" points="368.1847,-213.7154 358.3736,-209.7164 363.5495,-218.9609 368.1847,-213.7154"/>
</g>
<!-- Node11&#45;&gt;Node15 -->
<g id="edge20" class="edge">
<title>Node11&#45;&gt;Node15</title>
<path fill="none" stroke="#191970" d="M1271.9553,-374.8789C1319.6995,-360.4229 1399.1655,-327.9377 1430,-266 1457.5379,-210.6843 1456.0257,-135.6938 1452.8528,-96.9764"/>
<polygon fill="#191970" stroke="#191970" points="1456.3013,-96.2581 1451.891,-86.6248 1449.3313,-96.9058 1456.3013,-96.2581"/>
</g>
<!-- Node16 -->
<g id="node17" class="node">
<title>Node16</title>
<g id="a_node17"><a xlink:href="matrix_8h.html" target="_top" xlink:title="maliput/math/matrix.h">
<polygon fill="#ffffff" stroke="#000000" points="748.5,-185 748.5,-204 875.5,-204 875.5,-185 748.5,-185"/>
<text text-anchor="middle" x="812" y="-192" font-family="Helvetica,sans-Serif" font-size="10.00" fill="#000000">maliput/math/matrix.h</text>
</a>
</g>
</g>
<!-- Node11&#45;&gt;Node16 -->
<g id="edge22" class="edge">
<title>Node11&#45;&gt;Node16</title>
<path fill="none" stroke="#191970" d="M1167.8043,-380.2279C1058.1955,-372.5665 848.488,-355.1972 823,-333 789.4654,-303.7951 798.5261,-244.8252 806.2235,-214.1073"/>
<polygon fill="#191970" stroke="#191970" points="809.6774,-214.7433 808.9163,-204.1759 802.9213,-212.9115 809.6774,-214.7433"/>
</g>
<!-- Node22 -->
<g id="node23" class="node">
<title>Node22</title>
<g id="a_node23"><a xlink:href="vector_8h.html" target="_top" xlink:title="maliput/math/vector.h">
<polygon fill="#ffffff" stroke="#000000" points="874.5,-123.5 874.5,-142.5 999.5,-142.5 999.5,-123.5 874.5,-123.5"/>
<text text-anchor="middle" x="937" y="-130.5" font-family="Helvetica,sans-Serif" font-size="10.00" fill="#000000">maliput/math/vector.h</text>
</a>
</g>
</g>
<!-- Node11&#45;&gt;Node22 -->
<g id="edge46" class="edge">
<title>Node11&#45;&gt;Node22</title>
<path fill="none" stroke="#191970" d="M1251.0613,-374.9761C1264.9837,-366.132 1283.6652,-351.547 1292,-333 1297.6475,-320.4329 1297.3238,-314.7076 1292,-302 1261.883,-230.1124 1235.8667,-215.4999 1167,-179 1140.1432,-164.7657 1066.3946,-151.4899 1009.5773,-142.8953"/>
<polygon fill="#191970" stroke="#191970" points="1009.9469,-139.4118 999.54,-141.3986 1008.9144,-146.3352 1009.9469,-139.4118"/>
</g>
<!-- Node23 -->
<g id="node24" class="node">
<title>Node23</title>
<g id="a_node24"><a xlink:href="quaternion_8h.html" target="_top" xlink:title="Code in this file is inspired by: https://gitlab.com/libeigen/eigen/&#45;/blob/master/Eigen/src/Geometry/...">
<polygon fill="#ffffff" stroke="#000000" points="824.5,-246.5 824.5,-265.5 971.5,-265.5 971.5,-246.5 824.5,-246.5"/>
<text text-anchor="middle" x="898" y="-253.5" font-family="Helvetica,sans-Serif" font-size="10.00" fill="#000000">maliput/math/quaternion.h</text>
</a>
</g>
</g>
<!-- Node11&#45;&gt;Node23 -->
<g id="edge35" class="edge">
<title>Node11&#45;&gt;Node23</title>
<path fill="none" stroke="#191970" d="M1182.1223,-374.9211C1141.2637,-366.4687 1083.3348,-352.4537 1035,-333 1012.5583,-323.9677 955.4719,-290.5027 922.5047,-270.7873"/>
<polygon fill="#191970" stroke="#191970" points="924.2706,-267.7652 913.8946,-265.6228 920.6699,-273.7681 924.2706,-267.7652"/>
</g>
<!-- Node24 -->
<g id="node25" class="node">
<title>Node24</title>
<g id="a_node25"><a xlink:href="roll__pitch__yaw_8h.html" target="_top" xlink:title="Code in this file is inspired by: https://github.com/RobotLocomotion/drake/blob/master/math/roll_pitc...">
<polygon fill="#ffffff" stroke="#000000" points="832.5,-302.5 832.5,-332.5 963.5,-332.5 963.5,-302.5 832.5,-302.5"/>
<text text-anchor="start" x="840.5" y="-320.5" font-family="Helvetica,sans-Serif" font-size="10.00" fill="#000000">maliput/math/roll_pitch</text>
<text text-anchor="middle" x="898" y="-309.5" font-family="Helvetica,sans-Serif" font-size="10.00" fill="#000000">_yaw.h</text>
</a>
</g>
</g>
<!-- Node11&#45;&gt;Node24 -->
<g id="edge41" class="edge">
<title>Node11&#45;&gt;Node24</title>
<path fill="none" stroke="#191970" d="M1186.2162,-374.9717C1130.7252,-363.9065 1038.4879,-345.514 973.3244,-332.52"/>
<polygon fill="#191970" stroke="#191970" points="974.003,-329.0865 963.5116,-330.5633 972.634,-335.9514 974.003,-329.0865"/>
</g>
<!-- Node15&#45;&gt;Node4 -->
<g id="edge21" class="edge">
<title>Node15&#45;&gt;Node4</title>
<path fill="none" stroke="#191970" d="M1450,-56.2977C1450,-48.3834 1450,-38.6043 1450,-30.0759"/>
<polygon fill="#191970" stroke="#191970" points="1453.5001,-29.8469 1450,-19.8469 1446.5001,-29.847 1453.5001,-29.8469"/>
</g>
<!-- Node17 -->
<g id="node18" class="node">
<title>Node17</title>
<polygon fill="#ffffff" stroke="#bfbfbf" points="638,-62 638,-81 702,-81 702,-62 638,-62"/>
<text text-anchor="middle" x="670" y="-69" font-family="Helvetica,sans-Serif" font-size="10.00" fill="#000000">algorithm</text>
</g>
<!-- Node16&#45;&gt;Node17 -->
<g id="edge23" class="edge">
<title>Node16&#45;&gt;Node17</title>
<path fill="none" stroke="#191970" d="M800.8575,-184.8484C776.5939,-163.8314 718.7556,-113.7319 688.7613,-87.751"/>
<polygon fill="#191970" stroke="#191970" points="690.941,-85.0085 681.0907,-81.1068 686.3579,-90.2996 690.941,-85.0085"/>
</g>
<!-- Node18 -->
<g id="node19" class="node">
<title>Node18</title>
<polygon fill="#ffffff" stroke="#bfbfbf" points="893,-62 893,-81 935,-81 935,-62 893,-62"/>
<text text-anchor="middle" x="914" y="-69" font-family="Helvetica,sans-Serif" font-size="10.00" fill="#000000">array</text>
</g>
<!-- Node16&#45;&gt;Node18 -->
<g id="edge24" class="edge">
<title>Node16&#45;&gt;Node18</title>
<path fill="none" stroke="#191970" d="M818.5069,-184.965C828.1691,-170.9875 847.0993,-144.2867 865,-123 875.1534,-110.926 887.3842,-98.0693 897.0862,-88.222"/>
<polygon fill="#191970" stroke="#191970" points="899.66,-90.5976 904.2369,-81.0423 894.7002,-85.6578 899.66,-90.5976"/>
</g>
<!-- Node19 -->
<g id="node20" class="node">
<title>Node19</title>
<polygon fill="#ffffff" stroke="#bfbfbf" points="720.5,-62 720.5,-81 773.5,-81 773.5,-62 720.5,-62"/>
<text text-anchor="middle" x="747" y="-69" font-family="Helvetica,sans-Serif" font-size="10.00" fill="#000000">cstddef</text>
</g>
<!-- Node16&#45;&gt;Node19 -->
<g id="edge25" class="edge">
<title>Node16&#45;&gt;Node19</title>
<path fill="none" stroke="#191970" d="M806.8996,-184.8484C796.1252,-164.4601 770.8879,-116.7033 756.8535,-90.1459"/>
<polygon fill="#191970" stroke="#191970" points="759.8436,-88.3128 752.0767,-81.1068 753.6546,-91.5835 759.8436,-88.3128"/>
</g>
<!-- Node20 -->
<g id="node21" class="node">
<title>Node20</title>
<polygon fill="#ffffff" stroke="#bfbfbf" points="970.5,-62 970.5,-81 1053.5,-81 1053.5,-62 970.5,-62"/>
<text text-anchor="middle" x="1012" y="-69" font-family="Helvetica,sans-Serif" font-size="10.00" fill="#000000">initializer_list</text>
</g>
<!-- Node16&#45;&gt;Node20 -->
<g id="edge26" class="edge">
<title>Node16&#45;&gt;Node20</title>
<path fill="none" stroke="#191970" d="M853.1776,-184.98C909.1787,-171.8464 1003.0203,-149.097 1008,-143 1019.6444,-128.7429 1019.1573,-107.06 1016.6765,-91.3102"/>
<polygon fill="#191970" stroke="#191970" points="1020.0286,-90.217 1014.6627,-81.0815 1013.1604,-91.5692 1020.0286,-90.217"/>
</g>
<!-- Node21 -->
<g id="node22" class="node">
<title>Node21</title>
<polygon fill="#ffffff" stroke="#bfbfbf" points="792,-62 792,-81 852,-81 852,-62 792,-62"/>
<text text-anchor="middle" x="822" y="-69" font-family="Helvetica,sans-Serif" font-size="10.00" fill="#000000">iostream</text>
</g>
<!-- Node16&#45;&gt;Node21 -->
<g id="edge27" class="edge">
<title>Node16&#45;&gt;Node21</title>
<path fill="none" stroke="#191970" d="M812.7847,-184.8484C814.4204,-164.7295 818.2227,-117.9608 820.3976,-91.2098"/>
<polygon fill="#191970" stroke="#191970" points="823.897,-91.3575 821.219,-81.1068 816.92,-90.7902 823.897,-91.3575"/>
</g>
<!-- Node16&#45;&gt;Node22 -->
<g id="edge28" class="edge">
<title>Node16&#45;&gt;Node22</title>
<path fill="none" stroke="#191970" d="M831.5313,-184.8906C852.1708,-174.7359 884.9276,-158.6196 908.4602,-147.0416"/>
<polygon fill="#191970" stroke="#191970" points="910.1782,-150.0971 917.6059,-142.5419 907.088,-143.8161 910.1782,-150.0971"/>
</g>
<!-- Node22&#45;&gt;Node15 -->
<g id="edge34" class="edge">
<title>Node22&#45;&gt;Node15</title>
<path fill="none" stroke="#191970" d="M999.6472,-125.4897C1092.7696,-114.3259 1267.6872,-93.3562 1369.9636,-81.095"/>
<polygon fill="#191970" stroke="#191970" points="1370.4213,-84.5653 1379.9336,-79.8998 1369.5881,-77.615 1370.4213,-84.5653"/>
</g>
<!-- Node22&#45;&gt;Node17 -->
<g id="edge29" class="edge">
<title>Node22&#45;&gt;Node17</title>
<path fill="none" stroke="#191970" d="M876.8861,-123.4754C830.9786,-115.5514 766.3951,-102.9962 711,-87 708.2584,-86.2083 705.4402,-85.316 702.6267,-84.3694"/>
<polygon fill="#191970" stroke="#191970" points="703.792,-81.0692 693.1973,-81.0102 701.4428,-87.6632 703.792,-81.0692"/>
</g>
<!-- Node22&#45;&gt;Node18 -->
<g id="edge30" class="edge">
<title>Node22&#45;&gt;Node18</title>
<path fill="none" stroke="#191970" d="M933.4063,-123.3906C930.1509,-114.6862 925.2575,-101.6015 921.199,-90.7494"/>
<polygon fill="#191970" stroke="#191970" points="924.4256,-89.3852 917.6444,-81.2449 917.8691,-91.8373 924.4256,-89.3852"/>
</g>
<!-- Node22&#45;&gt;Node19 -->
<g id="edge31" class="edge">
<title>Node22&#45;&gt;Node19</title>
<path fill="none" stroke="#191970" d="M900.8292,-123.4775C869.3732,-114.8931 822.7336,-101.4326 783,-87 781.1772,-86.3379 779.3141,-85.6311 777.4422,-84.8978"/>
<polygon fill="#191970" stroke="#191970" points="778.7364,-81.6457 768.156,-81.0942 776.0831,-88.1234 778.7364,-81.6457"/>
</g>
<!-- Node22&#45;&gt;Node20 -->
<g id="edge32" class="edge">
<title>Node22&#45;&gt;Node20</title>
<path fill="none" stroke="#191970" d="M948.7188,-123.3906C960.3188,-113.8786 978.2979,-99.1357 992.1321,-87.7917"/>
<polygon fill="#191970" stroke="#191970" points="994.6026,-90.2921 1000.116,-81.2449 990.164,-84.8792 994.6026,-90.2921"/>
</g>
<!-- Node22&#45;&gt;Node21 -->
<g id="edge33" class="edge">
<title>Node22&#45;&gt;Node21</title>
<path fill="none" stroke="#191970" d="M919.0313,-123.3906C900.2116,-113.3262 870.4415,-97.4057 848.8359,-85.8514"/>
<polygon fill="#191970" stroke="#191970" points="850.3114,-82.6714 839.8426,-81.0419 847.0102,-88.8442 850.3114,-82.6714"/>
</g>
<!-- Node23&#45;&gt;Node6 -->
<g id="edge36" class="edge">
<title>Node23&#45;&gt;Node6</title>
<path fill="none" stroke="#191970" d="M900.9688,-246.3906C903.6302,-237.776 907.6171,-224.8708 910.9491,-214.0858"/>
<polygon fill="#191970" stroke="#191970" points="914.3816,-214.8324 913.9894,-204.2449 907.6935,-212.7661 914.3816,-214.8324"/>
</g>
<!-- Node23&#45;&gt;Node13 -->
<g id="edge37" class="edge">
<title>Node23&#45;&gt;Node13</title>
<path fill="none" stroke="#191970" d="M933.9954,-246.4581C976.7393,-235.1273 1047.7402,-216.3059 1091.5378,-204.6958"/>
<polygon fill="#191970" stroke="#191970" points="1092.482,-208.0665 1101.2512,-202.1209 1090.6882,-201.3002 1092.482,-208.0665"/>
</g>
<!-- Node23&#45;&gt;Node14 -->
<g id="edge38" class="edge">
<title>Node23&#45;&gt;Node14</title>
<path fill="none" stroke="#191970" d="M824.4544,-247.865C720.2383,-236.3375 530.2963,-215.3277 422.4423,-203.3978"/>
<polygon fill="#191970" stroke="#191970" points="422.5909,-199.893 412.2667,-202.2723 421.8213,-206.8506 422.5909,-199.893"/>
</g>
<!-- Node23&#45;&gt;Node16 -->
<g id="edge39" class="edge">
<title>Node23&#45;&gt;Node16</title>
<path fill="none" stroke="#191970" d="M884.5625,-246.3906C870.9305,-236.6421 849.6154,-221.3994 833.6078,-209.9521"/>
<polygon fill="#191970" stroke="#191970" points="835.5132,-207.0118 825.3431,-204.0419 831.4414,-212.7057 835.5132,-207.0118"/>
</g>
<!-- Node23&#45;&gt;Node22 -->
<g id="edge40" class="edge">
<title>Node23&#45;&gt;Node22</title>
<path fill="none" stroke="#191970" d="M914.7373,-246.2988C926.7584,-238.2823 942.023,-225.6887 949,-210 957.2528,-191.4424 951.7005,-168.1718 945.6958,-152.0968"/>
<polygon fill="#191970" stroke="#191970" points="948.8683,-150.6088 941.825,-142.6941 942.3953,-153.2736 948.8683,-150.6088"/>
</g>
<!-- Node24&#45;&gt;Node14 -->
<g id="edge42" class="edge">
<title>Node24&#45;&gt;Node14</title>
<path fill="none" stroke="#191970" d="M832.4382,-309.4868C777.4762,-301.6878 697.399,-287.7832 630,-266 609.9443,-259.518 606.9988,-252.6556 587,-246 533.1937,-228.0933 470.5955,-215.0621 422.1426,-206.588"/>
<polygon fill="#191970" stroke="#191970" points="422.4747,-203.0939 412.0262,-204.8488 421.2886,-209.9927 422.4747,-203.0939"/>
</g>
<!-- Node24&#45;&gt;Node16 -->
<g id="edge43" class="edge">
<title>Node24&#45;&gt;Node16</title>
<path fill="none" stroke="#191970" d="M857.4192,-302.2935C841.36,-294.0944 824.4947,-282.2536 815,-266 805.9112,-250.4413 806.1577,-229.5633 808.0791,-214.3866"/>
<polygon fill="#191970" stroke="#191970" points="811.6053,-214.5056 809.748,-204.0748 804.6952,-213.3871 811.6053,-214.5056"/>
</g>
<!-- Node24&#45;&gt;Node22 -->
<g id="edge45" class="edge">
<title>Node24&#45;&gt;Node22</title>
<path fill="none" stroke="#191970" d="M938.431,-302.3679C954.3567,-294.182 970.972,-282.3309 980,-266 1001.3075,-227.4566 970.7936,-176.7197 951.2246,-150.4487"/>
<polygon fill="#191970" stroke="#191970" points="953.9858,-148.2978 945.0984,-142.5303 948.4493,-152.5812 953.9858,-148.2978"/>
</g>
<!-- Node24&#45;&gt;Node23 -->
<g id="edge44" class="edge">
<title>Node24&#45;&gt;Node23</title>
<path fill="none" stroke="#191970" d="M898,-302.2977C898,-294.3834 898,-284.6043 898,-276.0759"/>
<polygon fill="#191970" stroke="#191970" points="901.5001,-275.8469 898,-265.8469 894.5001,-275.847 901.5001,-275.8469"/>
</g>
<!-- Node25&#45;&gt;Node1 -->
<g id="edge50" class="edge">
<title>Node25&#45;&gt;Node1</title>
<path fill="none" stroke="#191970" d="M1539.5324,-369.3816C1638.8837,-342.3336 1844.0783,-286.4702 1923.5595,-264.8318"/>
<polygon fill="#191970" stroke="#191970" points="1924.7545,-268.1339 1933.4839,-262.1299 1922.9157,-261.3797 1924.7545,-268.1339"/>
</g>
<!-- Node25&#45;&gt;Node4 -->
<g id="edge49" class="edge">
<title>Node25&#45;&gt;Node4</title>
<path fill="none" stroke="#191970" d="M1514.2073,-369.4079C1549.4985,-350.2131 1607.1092,-313.7433 1639,-266 1657.2635,-238.6581 1658,-227.3806 1658,-194.5 1658,-194.5 1658,-194.5 1658,-133 1658,-52.4315 1540.9429,-23.524 1482.4572,-14.109"/>
<polygon fill="#191970" stroke="#191970" points="1482.67,-10.6015 1472.2596,-12.5697 1481.6252,-17.5231 1482.67,-10.6015"/>
</g>
<!-- Node25&#45;&gt;Node12 -->
<g id="edge48" class="edge">
<title>Node25&#45;&gt;Node12</title>
<path fill="none" stroke="#191970" d="M1472.7292,-369.2548C1455.1322,-345.4524 1421.2027,-299.5584 1402.3875,-274.1084"/>
<polygon fill="#191970" stroke="#191970" points="1404.9569,-271.6962 1396.1977,-265.7358 1399.3281,-275.8576 1404.9569,-271.6962"/>
</g>
<!-- Node25&#45;&gt;Node14 -->
<g id="edge51" class="edge">
<title>Node25&#45;&gt;Node14</title>
<path fill="none" stroke="#191970" d="M1413.7691,-378.0469C1381.8126,-375.1705 1343.5046,-371.8059 1309,-369 953.4464,-340.0869 853.3225,-372.9341 513,-266 467.1215,-251.5843 416.5316,-229.6324 382.3669,-213.8562"/>
<polygon fill="#191970" stroke="#191970" points="383.7268,-210.6287 373.1838,-209.5817 380.7727,-216.9748 383.7268,-210.6287"/>
</g>
<!-- Node25&#45;&gt;Node15 -->
<g id="edge65" class="edge">
<title>Node25&#45;&gt;Node15</title>
<path fill="none" stroke="#191970" d="M1489.607,-369.2829C1503.946,-327.824 1538.3461,-210.1511 1502,-123 1497.2717,-111.6624 1488.6983,-101.5431 1479.8584,-93.3389"/>
<polygon fill="#191970" stroke="#191970" points="1481.9649,-90.5333 1472.1114,-86.6396 1477.3861,-95.8281 1481.9649,-90.5333"/>
</g>
<!-- Node26 -->
<g id="node27" class="node">
<title>Node26</title>
<g id="a_node27"><a xlink:href="maliput__hash_8h.html" target="_top" xlink:title="Code in this file is inspired by: https://github.com/RobotLocomotion/drake/blob/master/common/hash.h. ">
<polygon fill="#ffffff" stroke="#000000" points="1044,-302.5 1044,-332.5 1184,-332.5 1184,-302.5 1044,-302.5"/>
<text text-anchor="start" x="1052" y="-320.5" font-family="Helvetica,sans-Serif" font-size="10.00" fill="#000000">maliput/common/maliput</text>
<text text-anchor="middle" x="1114" y="-309.5" font-family="Helvetica,sans-Serif" font-size="10.00" fill="#000000">_hash.h</text>
</a>
</g>
</g>
<!-- Node25&#45;&gt;Node26 -->
<g id="edge52" class="edge">
<title>Node25&#45;&gt;Node26</title>
<path fill="none" stroke="#191970" d="M1413.9708,-371.819C1351.2986,-360.4703 1259.4611,-343.8402 1193.9329,-331.9743"/>
<polygon fill="#191970" stroke="#191970" points="1194.5204,-328.5239 1184.0568,-330.186 1193.2731,-335.4119 1194.5204,-328.5239"/>
</g>
<!-- Node26&#45;&gt;Node1 -->
<g id="edge62" class="edge">
<title>Node26&#45;&gt;Node1</title>
<path fill="none" stroke="#191970" d="M1184.1879,-314.3283C1319.3074,-307.8812 1624.8707,-291.6463 1881,-266 1894.9234,-264.6058 1910.2454,-262.6405 1923.3913,-260.8207"/>
<polygon fill="#191970" stroke="#191970" points="1923.9876,-264.2713 1933.3993,-259.4061 1923.0078,-257.3402 1923.9876,-264.2713"/>
</g>
<!-- Node26&#45;&gt;Node2 -->
<g id="edge63" class="edge">
<title>Node26&#45;&gt;Node2</title>
<path fill="none" stroke="#191970" d="M1184.0465,-311.631C1338.1749,-298.717 1701.9241,-268.2393 1814.3186,-258.8221"/>
<polygon fill="#191970" stroke="#191970" points="1814.7225,-262.3006 1824.3953,-257.9778 1814.138,-255.325 1814.7225,-262.3006"/>
</g>
<!-- Node26&#45;&gt;Node4 -->
<g id="edge60" class="edge">
<title>Node26&#45;&gt;Node4</title>
<path fill="none" stroke="#191970" d="M1043.7978,-309.358C939.2694,-297.013 753.5706,-274.1365 741,-266 652.2004,-208.5233 556.326,-132.8598 629,-56 656.5398,-26.874 1267.861,-13.4448 1417.2753,-10.5909"/>
<polygon fill="#191970" stroke="#191970" points="1417.676,-14.0841 1427.6084,-10.3964 1417.5443,-7.0853 1417.676,-14.0841"/>
</g>
<!-- Node26&#45;&gt;Node6 -->
<g id="edge53" class="edge">
<title>Node26&#45;&gt;Node6</title>
<path fill="none" stroke="#191970" d="M1133.394,-302.4375C1150.4469,-287.3706 1170.4709,-263.9212 1156,-246 1130.5932,-214.5353 1010.5839,-201.3779 950.8882,-196.7072"/>
<polygon fill="#191970" stroke="#191970" points="951.0542,-193.2099 940.8213,-195.9555 950.5329,-200.1905 951.0542,-193.2099"/>
</g>
<!-- Node26&#45;&gt;Node8 -->
<g id="edge58" class="edge">
<title>Node26&#45;&gt;Node8</title>
<path fill="none" stroke="#191970" d="M1043.9467,-309.7992C1021.0192,-307.2933 995.425,-304.5114 972,-302 820.0311,-285.7076 781.837,-283.4796 630,-266 616.3947,-264.4337 601.5031,-262.604 588.2958,-260.9409"/>
<polygon fill="#191970" stroke="#191970" points="588.4826,-257.4366 578.1217,-259.6511 587.6021,-264.381 588.4826,-257.4366"/>
</g>
<!-- Node26&#45;&gt;Node12 -->
<g id="edge55" class="edge">
<title>Node26&#45;&gt;Node12</title>
<path fill="none" stroke="#191970" d="M1181.2726,-302.4554C1232.9044,-290.9087 1302.5953,-275.3232 1346.6731,-265.4658"/>
<polygon fill="#191970" stroke="#191970" points="1347.4914,-268.8694 1356.4865,-263.2712 1345.9636,-262.0381 1347.4914,-268.8694"/>
</g>
<!-- Node26&#45;&gt;Node15 -->
<g id="edge64" class="edge">
<title>Node26&#45;&gt;Node15</title>
<path fill="none" stroke="#191970" d="M1133.6121,-302.2963C1145.6072,-292.5469 1160.9158,-279.2693 1173,-266 1225.7381,-208.0897 1212.1241,-168.3297 1276,-123 1303.4717,-103.5046 1338.3506,-91.3104 1369.6563,-83.7193"/>
<polygon fill="#191970" stroke="#191970" points="1370.7203,-87.066 1379.681,-81.413 1369.1508,-80.2442 1370.7203,-87.066"/>
</g>
<!-- Node26&#45;&gt;Node19 -->
<g id="edge54" class="edge">
<title>Node26&#45;&gt;Node19</title>
<path fill="none" stroke="#191970" d="M1043.7542,-310.1689C949.1365,-299.8243 789.891,-280.58 767,-266 741.8394,-249.9744 738.5855,-238.5686 730,-210 717.5665,-168.6268 730.7043,-117.6881 739.8211,-90.5864"/>
<polygon fill="#191970" stroke="#191970" points="743.1302,-91.7267 743.1699,-81.132 736.5319,-89.3895 743.1302,-91.7267"/>
</g>
<!-- Node26&#45;&gt;Node21 -->
<g id="edge56" class="edge">
<title>Node26&#45;&gt;Node21</title>
<path fill="none" stroke="#191970" d="M1043.6924,-309.1913C968.6584,-299.6543 855.16,-283.1119 815,-266 776.4008,-249.5531 757.9226,-247.4477 739,-210 715.7891,-164.0658 768.559,-112.7825 800.2663,-87.4475"/>
<polygon fill="#191970" stroke="#191970" points="802.4361,-90.194 808.1928,-81.2995 798.1459,-84.6627 802.4361,-90.194"/>
</g>
<!-- Node27 -->
<g id="node28" class="node">
<title>Node27</title>
<polygon fill="#ffffff" stroke="#bfbfbf" points="1592,-246.5 1592,-265.5 1630,-265.5 1630,-246.5 1592,-246.5"/>
<text text-anchor="middle" x="1611" y="-253.5" font-family="Helvetica,sans-Serif" font-size="10.00" fill="#000000">map</text>
</g>
<!-- Node26&#45;&gt;Node27 -->
<g id="edge57" class="edge">
<title>Node26&#45;&gt;Node27</title>
<path fill="none" stroke="#191970" d="M1184.1539,-308.819C1294.8092,-295.1262 1505.1833,-269.094 1581.9966,-259.589"/>
<polygon fill="#191970" stroke="#191970" points="1582.4301,-263.0621 1591.9245,-258.3604 1581.5704,-256.1151 1582.4301,-263.0621"/>
</g>
<!-- Node28 -->
<g id="node29" class="node">
<title>Node28</title>
<polygon fill="#ffffff" stroke="#bfbfbf" points="1028,-246.5 1028,-265.5 1060,-265.5 1060,-246.5 1028,-246.5"/>
<text text-anchor="middle" x="1044" y="-253.5" font-family="Helvetica,sans-Serif" font-size="10.00" fill="#000000">set</text>
</g>
<!-- Node26&#45;&gt;Node28 -->
<g id="edge59" class="edge">
<title>Node26&#45;&gt;Node28</title>
<path fill="none" stroke="#191970" d="M1096.6966,-302.2977C1086.4738,-293.3163 1073.5177,-281.9334 1063.0104,-272.702"/>
<polygon fill="#191970" stroke="#191970" points="1065.0305,-269.8178 1055.2079,-265.8469 1060.4103,-275.0766 1065.0305,-269.8178"/>
</g>
<!-- Node29 -->
<g id="node30" class="node">
<title>Node29</title>
<polygon fill="#ffffff" stroke="#bfbfbf" points="1078.5,-246.5 1078.5,-265.5 1147.5,-265.5 1147.5,-246.5 1078.5,-246.5"/>
<text text-anchor="middle" x="1113" y="-253.5" font-family="Helvetica,sans-Serif" font-size="10.00" fill="#000000">type_traits</text>
</g>
<!-- Node26&#45;&gt;Node29 -->
<g id="edge61" class="edge">
<title>Node26&#45;&gt;Node29</title>
<path fill="none" stroke="#191970" d="M1113.7528,-302.2977C1113.6241,-294.3834 1113.4651,-284.6043 1113.3264,-276.0759"/>
<polygon fill="#191970" stroke="#191970" points="1116.8223,-275.7887 1113.1601,-265.8469 1109.8233,-275.9025 1116.8223,-275.7887"/>
</g>
<!-- Node30&#45;&gt;Node2 -->
<g id="edge73" class="edge">
<title>Node30&#45;&gt;Node2</title>
<path fill="none" stroke="#191970" d="M478.031,-556.493C696.8845,-551.2486 1398.5533,-532.9689 1498,-512 1614.3608,-487.4647 1649.8134,-476.3337 1741,-400 1785.2016,-362.9982 1821.4171,-304.2332 1838.0908,-274.5128"/>
<polygon fill="#191970" stroke="#191970" points="1841.2289,-276.0697 1842.9795,-265.6205 1835.0948,-272.6973 1841.2289,-276.0697"/>
</g>
<!-- Node30&#45;&gt;Node4 -->
<g id="edge72" class="edge">
<title>Node30&#45;&gt;Node4</title>
<path fill="none" stroke="#191970" d="M347.9227,-550.4091C306.0457,-543.8835 251.2018,-532.2122 206,-512 160.0611,-491.4582 114,-496.3224 114,-446 114,-446 114,-446 114,-133 114,-70.0048 172.932,-74.9797 233,-56 348.7047,-19.4409 1235.4987,-11.4594 1417.4399,-10.2008"/>
<polygon fill="#191970" stroke="#191970" points="1417.719,-13.6991 1427.6953,-10.1318 1417.6719,-6.6992 1417.719,-13.6991"/>
</g>
<!-- Node30&#45;&gt;Node5 -->
<g id="edge74" class="edge">
<title>Node30&#45;&gt;Node5</title>
<path fill="none" stroke="#191970" d="M478.1009,-554.4118C659.8012,-544.3968 1171.3698,-516.2001 1358.9327,-505.862"/>
<polygon fill="#191970" stroke="#191970" points="1359.1601,-509.3548 1368.9523,-505.3097 1358.7748,-502.3655 1359.1601,-509.3548"/>
</g>
<!-- Node30&#45;&gt;Node14 -->
<g id="edge81" class="edge">
<title>Node30&#45;&gt;Node14</title>
<path fill="none" stroke="#191970" d="M356.7404,-548.4491C302.3124,-535.6063 228,-506.9174 228,-446 228,-446 228,-446 228,-384.5 228,-315.7668 283.5337,-250.4225 317.0813,-217.219"/>
<polygon fill="#191970" stroke="#191970" points="319.9286,-219.3346 324.6859,-209.8679 315.0634,-214.3017 319.9286,-219.3346"/>
</g>
<!-- Node30&#45;&gt;Node15 -->
<g id="edge82" class="edge">
<title>Node30&#45;&gt;Node15</title>
<path fill="none" stroke="#191970" d="M451.0205,-548.3909C505.9556,-534.7116 610.8361,-509.3611 701,-492 859.1411,-461.5499 899.7406,-459.9218 1059,-436 1170.0119,-419.3253 1205.1226,-442.5578 1309,-400 1410.1049,-358.578 1446.6264,-317.7051 1465,-210 1471.5091,-171.8437 1475.8048,-161.1047 1469,-123 1467.4039,-114.0625 1464.3646,-104.6451 1461.1772,-96.3426"/>
<polygon fill="#191970" stroke="#191970" points="1464.3297,-94.8048 1457.3029,-86.8755 1457.8512,-97.4561 1464.3297,-94.8048"/>
</g>
<!-- Node30&#45;&gt;Node17 -->
<g id="edge71" class="edge">
<title>Node30&#45;&gt;Node17</title>
<path fill="none" stroke="#191970" d="M347.8997,-552.6173C282.0782,-543.1909 190,-517.2678 190,-446 190,-446 190,-446 190,-256 190,-208.8428 222.4356,-203.0485 263,-179 382.9329,-107.8979 550.1424,-83.0688 627.5599,-75.0323"/>
<polygon fill="#191970" stroke="#191970" points="628.2691,-78.4791 637.8736,-74.0067 627.5764,-71.5135 628.2691,-78.4791"/>
</g>
<!-- Node30&#45;&gt;Node25 -->
<g id="edge75" class="edge">
<title>Node30&#45;&gt;Node25</title>
<path fill="none" stroke="#191970" d="M471.7241,-548.4868C651.8933,-519.2997 1197.0734,-430.9816 1403.5637,-397.5305"/>
<polygon fill="#191970" stroke="#191970" points="1404.4169,-400.938 1413.7285,-395.8839 1403.2975,-394.0281 1404.4169,-400.938"/>
</g>
<!-- Node31 -->
<g id="node32" class="node">
<title>Node31</title>
<g id="a_node32"><a xlink:href="unique__id_8h.html" target="_top" xlink:title="maliput/api/unique_id.h">
<polygon fill="#ffffff" stroke="#000000" points="257.5,-375 257.5,-394 388.5,-394 388.5,-375 257.5,-375"/>
<text text-anchor="middle" x="323" y="-382" font-family="Helvetica,sans-Serif" font-size="10.00" fill="#000000">maliput/api/unique_id.h</text>
</a>
</g>
</g>
<!-- Node30&#45;&gt;Node31 -->
<g id="edge76" class="edge">
<title>Node30&#45;&gt;Node31</title>
<path fill="none" stroke="#191970" d="M398.1688,-548.3754C386.478,-540.0617 370.5978,-527.0367 361,-512 339.2411,-477.9108 329.4703,-430.8099 325.4676,-404.4421"/>
<polygon fill="#191970" stroke="#191970" points="328.889,-403.6325 324.0494,-394.2076 321.9552,-404.5934 328.889,-403.6325"/>
</g>
<!-- Node31&#45;&gt;Node4 -->
<g id="edge77" class="edge">
<title>Node31&#45;&gt;Node4</title>
<path fill="none" stroke="#191970" d="M313.891,-374.6725C290.1133,-347.9507 228,-270.8408 228,-194.5 228,-194.5 228,-194.5 228,-133 228,38.4502 435.9459,-77.835 606,-56 767.5523,-35.2567 1283.5601,-15.8992 1417.8203,-11.1217"/>
<polygon fill="#191970" stroke="#191970" points="1418.0036,-14.6175 1427.8735,-10.7659 1417.756,-7.6219 1418.0036,-14.6175"/>
</g>
<!-- Node31&#45;&gt;Node14 -->
<g id="edge78" class="edge">
<title>Node31&#45;&gt;Node14</title>
<path fill="none" stroke="#191970" d="M322.5874,-374.6893C321.7967,-351.9261 320.7366,-293.8137 328,-246 329.3455,-237.1431 331.6716,-227.6301 334.0458,-219.2201"/>
<polygon fill="#191970" stroke="#191970" points="337.4029,-220.21 336.9029,-209.627 330.6941,-218.2119 337.4029,-220.21"/>
</g>
<!-- Node31&#45;&gt;Node15 -->
<g id="edge80" class="edge">
<title>Node31&#45;&gt;Node15</title>
<path fill="none" stroke="#191970" d="M388.8097,-383.3201C579.0075,-379.5319 1120.5114,-365.9471 1193,-333 1309.4081,-280.0908 1401.3713,-149.2027 1435.5769,-95.2909"/>
<polygon fill="#191970" stroke="#191970" points="1438.5915,-97.0713 1440.927,-86.7371 1432.6567,-93.3593 1438.5915,-97.0713"/>
</g>
<!-- Node31&#45;&gt;Node26 -->
<g id="edge79" class="edge">
<title>Node31&#45;&gt;Node26</title>
<path fill="none" stroke="#191970" d="M388.9246,-379.915C506.2639,-371.61 759.0383,-353.068 972,-333 992.0653,-331.1092 1013.7016,-328.8568 1033.8892,-326.6629"/>
<polygon fill="#191970" stroke="#191970" points="1034.423,-330.1255 1043.9827,-325.558 1033.6612,-323.1671 1034.423,-330.1255"/>
</g>
<!-- Node32&#45;&gt;Node1 -->
<g id="edge86" class="edge">
<title>Node32&#45;&gt;Node1</title>
<path fill="none" stroke="#191970" d="M1838.6625,-677.9081C1904.3926,-664.7755 2000,-632.8148 2000,-558 2000,-558 2000,-558 2000,-384.5 2000,-343.4642 1979.6676,-298.8392 1966.6459,-274.4673"/>
<polygon fill="#191970" stroke="#191970" points="1969.6516,-272.6699 1961.7522,-265.6093 1963.5244,-276.0549 1969.6516,-272.6699"/>
</g>
<!-- Node32&#45;&gt;Node2 -->
<g id="edge88" class="edge">
<title>Node32&#45;&gt;Node2</title>
<path fill="none" stroke="#191970" d="M1838.6502,-672.4342C1860.5656,-664.6425 1883.858,-652.7942 1900,-635 1924.0844,-608.4505 1924,-593.846 1924,-558 1924,-558 1924,-558 1924,-384.5 1924,-339.2888 1888.7147,-296.0297 1866.2296,-273.0531"/>
<polygon fill="#191970" stroke="#191970" points="1868.4629,-270.3396 1858.8889,-265.8019 1863.5436,-275.3196 1868.4629,-270.3396"/>
</g>
<!-- Node32&#45;&gt;Node3 -->
<g id="edge90" class="edge">
<title>Node32&#45;&gt;Node3</title>
<path fill="none" stroke="#191970" d="M1717.2088,-674.8295C1659.6492,-663.7794 1572.8535,-647.1166 1509.5549,-634.9647"/>
<polygon fill="#191970" stroke="#191970" points="1510.0862,-631.5029 1499.6057,-633.0547 1508.7664,-638.3773 1510.0862,-631.5029"/>
</g>
<!-- Node32&#45;&gt;Node5 -->
<g id="edge89" class="edge">
<title>Node32&#45;&gt;Node5</title>
<path fill="none" stroke="#191970" d="M1769.8183,-671.2722C1759.2206,-652.8932 1739.0954,-622.1958 1714,-604 1646.2924,-554.9075 1552.6293,-527.4341 1491.4457,-513.6724"/>
<polygon fill="#191970" stroke="#191970" points="1492.0571,-510.2234 1481.5395,-511.5002 1490.5577,-517.061 1492.0571,-510.2234"/>
</g>
<!-- Node32&#45;&gt;Node14 -->
<g id="edge99" class="edge">
<title>Node32&#45;&gt;Node14</title>
<path fill="none" stroke="#191970" d="M1717.2493,-685.9679C1431.4207,-682.9693 228.7722,-664.6551 95,-568 66.0312,-547.069 38,-423.8741 38,-384.5 38,-384.5 38,-384.5 38,-317.5 38,-274.8513 65.1172,-267.4143 102,-246 128.8691,-230.3997 202.9928,-215.8627 261.8227,-206.239"/>
<polygon fill="#191970" stroke="#191970" points="262.5522,-209.6666 271.8672,-204.6188 261.4374,-202.756 262.5522,-209.6666"/>
</g>
<!-- Node32&#45;&gt;Node25 -->
<g id="edge98" class="edge">
<title>Node32&#45;&gt;Node25</title>
<path fill="none" stroke="#191970" d="M1773.7221,-671.3313C1768.4269,-654.0887 1758.3217,-625.5451 1744,-604 1685.7182,-516.3229 1660.9996,-499.4675 1577,-436 1561.0965,-423.9838 1542.0596,-412.9404 1525.3635,-404.1876"/>
<polygon fill="#191970" stroke="#191970" points="1526.8585,-401.0208 1516.3636,-399.569 1523.6624,-407.2486 1526.8585,-401.0208"/>
</g>
<!-- Node32&#45;&gt;Node27 -->
<g id="edge85" class="edge">
<title>Node32&#45;&gt;Node27</title>
<path fill="none" stroke="#191970" d="M1823.6549,-671.2863C1840.3437,-663.2586 1857.4574,-651.547 1867,-635 1873.8831,-623.0647 1871.2964,-617.0908 1867,-604 1818.3696,-455.8258 1679.8572,-318.7793 1629.5487,-272.532"/>
<polygon fill="#191970" stroke="#191970" points="1631.7509,-269.8039 1621.9975,-265.6661 1627.0418,-274.9831 1631.7509,-269.8039"/>
</g>
<!-- Node32&#45;&gt;Node30 -->
<g id="edge97" class="edge">
<title>Node32&#45;&gt;Node30</title>
<path fill="none" stroke="#191970" d="M1717.3783,-676.0065C1674.3,-667.5366 1615.5411,-653.9069 1566,-635 1538.6923,-624.5783 1536.1976,-611.6953 1508,-604 1410.4431,-577.3762 719.7903,-563.2486 488.3649,-559.2229"/>
<polygon fill="#191970" stroke="#191970" points="488.4105,-555.7232 478.3516,-559.05 488.2897,-562.7222 488.4105,-555.7232"/>
</g>
<!-- Node33 -->
<g id="node34" class="node">
<title>Node33</title>
<polygon fill="#ffffff" stroke="#bfbfbf" points="1806.5,-610 1806.5,-629 1857.5,-629 1857.5,-610 1806.5,-610"/>
<text text-anchor="middle" x="1832" y="-617" font-family="Helvetica,sans-Serif" font-size="10.00" fill="#000000">variant</text>
</g>
<!-- Node32&#45;&gt;Node33 -->
<g id="edge87" class="edge">
<title>Node32&#45;&gt;Node33</title>
<path fill="none" stroke="#191970" d="M1790.2534,-671.2967C1798.5035,-661.0605 1809.4034,-647.5366 1817.9966,-636.8746"/>
<polygon fill="#191970" stroke="#191970" points="1820.7488,-639.0373 1824.299,-629.055 1815.2986,-634.6446 1820.7488,-639.0373"/>
</g>
<!-- Node34 -->
<g id="node35" class="node">
<title>Node34</title>
<g id="a_node35"><a xlink:href="range__value__rule_8h.html" target="_top" xlink:title="maliput/api/rules/range\l_value_rule.h">
<polygon fill="#ffffff" stroke="#000000" points="1575,-604.5 1575,-634.5 1705,-634.5 1705,-604.5 1575,-604.5"/>
<text text-anchor="start" x="1583" y="-622.5" font-family="Helvetica,sans-Serif" font-size="10.00" fill="#000000">maliput/api/rules/range</text>
<text text-anchor="middle" x="1640" y="-611.5" font-family="Helvetica,sans-Serif" font-size="10.00" fill="#000000">_value_rule.h</text>
</a>
</g>
</g>
<!-- Node32&#45;&gt;Node34 -->
<g id="edge91" class="edge">
<title>Node32&#45;&gt;Node34</title>
<path fill="none" stroke="#191970" d="M1747.0301,-671.4639C1727.3708,-661.9191 1701.7216,-649.4663 1680.4607,-639.144"/>
<polygon fill="#191970" stroke="#191970" points="1681.8685,-635.9368 1671.344,-634.7177 1678.8112,-642.2339 1681.8685,-635.9368"/>
</g>
<!-- Node34&#45;&gt;Node2 -->
<g id="edge93" class="edge">
<title>Node34&#45;&gt;Node2</title>
<path fill="none" stroke="#191970" d="M1687.2314,-604.3666C1729.6597,-588.2783 1790.3106,-558.634 1824,-512 1871.6257,-446.0749 1853.5092,-413.884 1862,-333 1863.4384,-319.2975 1864.0279,-315.6277 1862,-302 1860.6673,-293.0439 1857.9506,-283.419 1855.2619,-275.3"/>
<polygon fill="#191970" stroke="#191970" points="1858.4936,-273.9402 1851.8624,-265.6772 1851.8933,-276.272 1858.4936,-273.9402"/>
</g>
<!-- Node34&#45;&gt;Node4 -->
<g id="edge92" class="edge">
<title>Node34&#45;&gt;Node4</title>
<path fill="none" stroke="#191970" d="M1705.0441,-604.4528C1732.5984,-596.282 1764.2225,-584.4191 1790,-568 1893.7016,-501.9467 2076,-418.1673 2076,-256 2076,-256 2076,-256 2076,-133 2076,-71.8632 1610.3443,-24.6894 1482.2635,-12.8703"/>
<polygon fill="#191970" stroke="#191970" points="1482.5568,-9.3826 1472.2797,-11.9578 1481.9196,-16.3536 1482.5568,-9.3826"/>
</g>
<!-- Node34&#45;&gt;Node5 -->
<g id="edge94" class="edge">
<title>Node34&#45;&gt;Node5</title>
<path fill="none" stroke="#191970" d="M1612.8474,-604.3795C1572.0422,-581.6562 1495.4134,-538.9838 1455.1839,-516.5811"/>
<polygon fill="#191970" stroke="#191970" points="1456.687,-513.412 1446.2474,-511.6046 1453.2813,-519.5277 1456.687,-513.412"/>
</g>
<!-- Node34&#45;&gt;Node14 -->
<g id="edge96" class="edge">
<title>Node34&#45;&gt;Node14</title>
<path fill="none" stroke="#191970" d="M1574.9813,-610.7381C1553.6744,-608.1685 1529.8607,-605.6171 1508,-604 1248.8072,-584.827 594.662,-614.7486 339,-568 252.3018,-552.147 152,-590.1357 152,-502 152,-502 152,-502 152,-317.5 152,-261.549 210.7785,-229.7867 262.9501,-212.6146"/>
<polygon fill="#191970" stroke="#191970" points="264.1126,-215.9181 272.5991,-209.5755 262.0096,-209.2414 264.1126,-215.9181"/>
</g>
<!-- Node34&#45;&gt;Node30 -->
<g id="edge95" class="edge">
<title>Node34&#45;&gt;Node30</title>
<path fill="none" stroke="#191970" d="M1574.7032,-606.6398C1568.0663,-605.619 1561.4109,-604.7101 1555,-604 1347.2734,-580.9913 708.1367,-564.7015 488.2407,-559.6527"/>
<polygon fill="#191970" stroke="#191970" points="488.1671,-556.1502 478.0898,-559.4208 488.0072,-563.1484 488.1671,-556.1502"/>
</g>
</g>
</svg>
