<?xml version="1.0" encoding="UTF-8" standalone="no"?>
<!DOCTYPE svg PUBLIC "-//W3C//DTD SVG 1.1//EN"
 "http://www.w3.org/Graphics/SVG/1.1/DTD/svg11.dtd">
<!-- Generated by graphviz version 2.43.0 (0)
 -->
<!-- Title: Rule Pages: 1 -->
<svg width="230pt" height="84pt"
 viewBox="0.00 0.00 230.00 84.00" xmlns="http://www.w3.org/2000/svg" xmlns:xlink="http://www.w3.org/1999/xlink">
<g id="graph0" class="graph" transform="scale(1 1) rotate(0) translate(4 80)">
<title>Rule</title>
<polygon fill="white" stroke="transparent" points="-4,4 -4,-80 226,-80 226,4 -4,4"/>
<!-- Node1 -->
<g id="node1" class="node">
<title>Node1</title>
<g id="a_node1"><a xlink:title="Describes a generic rule type.">
<polygon fill="#bfbfbf" stroke="black" points="94.5,-56.5 94.5,-75.5 132.5,-75.5 132.5,-56.5 94.5,-56.5"/>
<text text-anchor="middle" x="113.5" y="-63.5" font-family="Helvetica,sans-Serif" font-size="10.00">Rule</text>
</a>
</g>
</g>
<!-- Node2 -->
<g id="node2" class="node">
<title>Node2</title>
<g id="a_node2"><a xlink:href="classmaliput_1_1api_1_1rules_1_1_discrete_value_rule.html" target="_top" xlink:title="Describes a discrete value rule.">
<polygon fill="white" stroke="black" points="0,-0.5 0,-19.5 107,-19.5 107,-0.5 0,-0.5"/>
<text text-anchor="middle" x="53.5" y="-7.5" font-family="Helvetica,sans-Serif" font-size="10.00">DiscreteValueRule</text>
</a>
</g>
</g>
<!-- Node1&#45;&gt;Node2 -->
<g id="edge1" class="edge">
<title>Node1&#45;&gt;Node2</title>
<path fill="none" stroke="midnightblue" d="M96.32,-49.54C85.62,-39.91 72.24,-27.87 63.32,-19.83"/>
<polygon fill="midnightblue" stroke="midnightblue" points="94.09,-52.24 103.86,-56.32 98.77,-47.03 94.09,-52.24"/>
</g>
<!-- Node3 -->
<g id="node3" class="node">
<title>Node3</title>
<g id="a_node3"><a xlink:href="classmaliput_1_1api_1_1rules_1_1_range_value_rule.html" target="_top" xlink:title="Describes a numeric range based rule.">
<polygon fill="white" stroke="black" points="125,-0.5 125,-19.5 222,-19.5 222,-0.5 125,-0.5"/>
<text text-anchor="middle" x="173.5" y="-7.5" font-family="Helvetica,sans-Serif" font-size="10.00">RangeValueRule</text>
</a>
</g>
</g>
<!-- Node1&#45;&gt;Node3 -->
<g id="edge2" class="edge">
<title>Node1&#45;&gt;Node3</title>
<path fill="none" stroke="midnightblue" d="M130.68,-49.54C141.38,-39.91 154.76,-27.87 163.68,-19.83"/>
<polygon fill="midnightblue" stroke="midnightblue" points="128.23,-47.03 123.14,-56.32 132.91,-52.24 128.23,-47.03"/>
</g>
</g>
</svg>
