<?xml version="1.0" encoding="UTF-8" standalone="no"?>
<!DOCTYPE svg PUBLIC "-//W3C//DTD SVG 1.1//EN"
 "http://www.w3.org/Graphics/SVG/1.1/DTD/svg11.dtd">
<!-- Generated by graphviz version 2.43.0 (0)
 -->
<!-- Title: Lane Pages: 1 -->
<svg width="97pt" height="85pt"
 viewBox="0.00 0.00 97.00 84.84" xmlns="http://www.w3.org/2000/svg" xmlns:xlink="http://www.w3.org/1999/xlink">
<g id="graph0" class="graph" transform="scale(1 1) rotate(0) translate(4 80.84)">
<title>Lane</title>
<polygon fill="white" stroke="transparent" points="-4,4 -4,-80.84 93,-80.84 93,4 -4,4"/>
<!-- Node1 -->
<g id="node1" class="node">
<title>Node1</title>
<g id="a_node1"><a xlink:title="geometry_base&#39;s implementation of api::Lane.">
<polygon fill="#bfbfbf" stroke="black" points="13,-56.5 13,-75.5 53,-75.5 53,-56.5 13,-56.5"/>
<text text-anchor="middle" x="33" y="-63.5" font-family="Helvetica,sans-Serif" font-size="10.00">Lane</text>
</a>
</g>
</g>
<!-- Node1&#45;&gt;Node1 -->
<g id="edge1" class="edge">
<title>Node1&#45;&gt;Node1</title>
<path fill="none" stroke="midnightblue" d="M63.42,-70.76C67.94,-70.02 71,-68.43 71,-66 71,-62.01 62.76,-60.29 53.33,-60.85"/>
<polygon fill="midnightblue" stroke="midnightblue" points="63.19,-67.27 53.33,-71.15 63.46,-74.26 63.19,-67.27"/>
</g>
<!-- Node1&#45;&gt;Node1 -->
<g id="edge2" class="edge">
<title>Node1&#45;&gt;Node1</title>
<path fill="none" stroke="midnightblue" d="M63.29,-76.32C77.05,-77.36 89,-73.92 89,-66 89,-56.16 70.54,-53.23 53.1,-57.23"/>
<polygon fill="midnightblue" stroke="midnightblue" points="63.51,-72.81 53.1,-74.77 62.45,-79.73 63.51,-72.81"/>
</g>
<!-- Node2 -->
<g id="node2" class="node">
<title>Node2</title>
<g id="a_node2"><a xlink:href="classmaliput_1_1geometry__base_1_1test_1_1_mock_lane.html" target="_top" xlink:title="Mock api::Lane implementation; see mock_geometry.h.">
<polygon fill="white" stroke="black" points="0,-0.5 0,-19.5 66,-19.5 66,-0.5 0,-0.5"/>
<text text-anchor="middle" x="33" y="-7.5" font-family="Helvetica,sans-Serif" font-size="10.00">MockLane</text>
</a>
</g>
</g>
<!-- Node1&#45;&gt;Node2 -->
<g id="edge3" class="edge">
<title>Node1&#45;&gt;Node2</title>
<path fill="none" stroke="midnightblue" d="M33,-45.8C33,-36.91 33,-26.78 33,-19.75"/>
<polygon fill="midnightblue" stroke="midnightblue" points="29.5,-46.08 33,-56.08 36.5,-46.08 29.5,-46.08"/>
</g>
</g>
</svg>
