<?xml version="1.0" encoding="UTF-8" standalone="no"?>
<!DOCTYPE svg PUBLIC "-//W3C//DTD SVG 1.1//EN"
 "http://www.w3.org/Graphics/SVG/1.1/DTD/svg11.dtd">
<!-- Generated by graphviz version 2.40.1 (20161225.0304)
 -->
<!-- Title: derive_lane_s_routes.h Pages: 1 -->
<svg width="1500pt" height="576pt"
 viewBox="0.00 0.00 1500.00 576.00" xmlns="http://www.w3.org/2000/svg" xmlns:xlink="http://www.w3.org/1999/xlink">
<g id="graph0" class="graph" transform="scale(1 1) rotate(0) translate(4 572)">
<title>derive_lane_s_routes.h</title>
<polygon fill="#ffffff" stroke="transparent" points="-4,4 -4,-572 1496,-572 1496,4 -4,4"/>
<!-- Node0 -->
<g id="node1" class="node">
<title>Node0</title>
<polygon fill="#bfbfbf" stroke="#000000" points="1239.5,-548.5 1239.5,-567.5 1368.5,-567.5 1368.5,-548.5 1239.5,-548.5"/>
<text text-anchor="middle" x="1304" y="-555.5" font-family="Helvetica,sans-Serif" font-size="10.00" fill="#000000">derive_lane_s_routes.h</text>
</g>
<!-- Node1 -->
<g id="node2" class="node">
<title>Node1</title>
<polygon fill="#ffffff" stroke="#bfbfbf" points="1430.5,-185 1430.5,-204 1477.5,-204 1477.5,-185 1430.5,-185"/>
<text text-anchor="middle" x="1454" y="-192" font-family="Helvetica,sans-Serif" font-size="10.00" fill="#000000">vector</text>
</g>
<!-- Node0&#45;&gt;Node1 -->
<g id="edge1" class="edge">
<title>Node0&#45;&gt;Node1</title>
<path fill="none" stroke="#191970" d="M1362.4538,-548.4464C1417.6417,-535.6959 1492,-507.1669 1492,-446 1492,-446 1492,-446 1492,-328.5 1492,-286.2065 1474.2624,-239.1555 1463.0243,-213.5895"/>
<polygon fill="#191970" stroke="#191970" points="1466.1341,-211.9726 1458.8127,-204.3143 1459.7604,-214.8667 1466.1341,-211.9726"/>
</g>
<!-- Node2 -->
<g id="node3" class="node">
<title>Node2</title>
<g id="a_node3"><a xlink:href="lane__data_8h.html" target="_top" xlink:title="maliput/api/lane_data.h">
<polygon fill="#ffffff" stroke="#000000" points="432,-380.5 432,-399.5 564,-399.5 564,-380.5 432,-380.5"/>
<text text-anchor="middle" x="498" y="-387.5" font-family="Helvetica,sans-Serif" font-size="10.00" fill="#000000">maliput/api/lane_data.h</text>
</a>
</g>
</g>
<!-- Node0&#45;&gt;Node2 -->
<g id="edge2" class="edge">
<title>Node0&#45;&gt;Node2</title>
<path fill="none" stroke="#191970" d="M1239.0421,-554.4331C1117.9869,-546.4036 850.7053,-522.1374 636,-456 594.4523,-443.2017 549.6122,-419.784 522.6791,-404.5612"/>
<polygon fill="#191970" stroke="#191970" points="524.3506,-401.4851 513.9341,-399.5493 520.8699,-407.5584 524.3506,-401.4851"/>
</g>
<!-- Node18 -->
<g id="node19" class="node">
<title>Node18</title>
<g id="a_node19"><a xlink:href="regions_8h.html" target="_top" xlink:title="maliput/api/regions.h">
<polygon fill="#ffffff" stroke="#000000" points="1244,-492.5 1244,-511.5 1364,-511.5 1364,-492.5 1244,-492.5"/>
<text text-anchor="middle" x="1304" y="-499.5" font-family="Helvetica,sans-Serif" font-size="10.00" fill="#000000">maliput/api/regions.h</text>
</a>
</g>
</g>
<!-- Node0&#45;&gt;Node18 -->
<g id="edge34" class="edge">
<title>Node0&#45;&gt;Node18</title>
<path fill="none" stroke="#191970" d="M1304,-548.2455C1304,-540.9382 1304,-530.6944 1304,-521.7046"/>
<polygon fill="#191970" stroke="#191970" points="1307.5001,-521.6426 1304,-511.6427 1300.5001,-521.6427 1307.5001,-521.6426"/>
</g>
<!-- Node3 -->
<g id="node4" class="node">
<title>Node3</title>
<polygon fill="#ffffff" stroke="#bfbfbf" points="744.5,-185 744.5,-204 809.5,-204 809.5,-185 744.5,-185"/>
<text text-anchor="middle" x="777" y="-192" font-family="Helvetica,sans-Serif" font-size="10.00" fill="#000000">functional</text>
</g>
<!-- Node2&#45;&gt;Node3 -->
<g id="edge3" class="edge">
<title>Node2&#45;&gt;Node3</title>
<path fill="none" stroke="#191970" d="M519.7495,-380.3585C538.3984,-371.7492 565.7046,-358.3179 588,-344 654.5692,-301.25 725.9189,-240.083 758.6635,-211.0338"/>
<polygon fill="#191970" stroke="#191970" points="761.3562,-213.3218 766.486,-204.0517 756.6949,-208.0995 761.3562,-213.3218"/>
</g>
<!-- Node4 -->
<g id="node5" class="node">
<title>Node4</title>
<polygon fill="#ffffff" stroke="#bfbfbf" points="253.5,-185 253.5,-204 310.5,-204 310.5,-185 253.5,-185"/>
<text text-anchor="middle" x="282" y="-192" font-family="Helvetica,sans-Serif" font-size="10.00" fill="#000000">ostream</text>
</g>
<!-- Node2&#45;&gt;Node4 -->
<g id="edge4" class="edge">
<title>Node2&#45;&gt;Node4</title>
<path fill="none" stroke="#191970" d="M431.9651,-384.2232C376.3473,-377.9117 302.774,-365.6809 283,-344 250.4567,-308.3183 264.6905,-245.531 274.8966,-213.8878"/>
<polygon fill="#191970" stroke="#191970" points="278.3234,-214.6842 278.2553,-204.0896 271.7017,-212.4143 278.3234,-214.6842"/>
</g>
<!-- Node5 -->
<g id="node6" class="node">
<title>Node5</title>
<polygon fill="#ffffff" stroke="#bfbfbf" points="1226,-.5 1226,-19.5 1270,-19.5 1270,-.5 1226,-.5"/>
<text text-anchor="middle" x="1248" y="-7.5" font-family="Helvetica,sans-Serif" font-size="10.00" fill="#000000">string</text>
</g>
<!-- Node2&#45;&gt;Node5 -->
<g id="edge5" class="edge">
<title>Node2&#45;&gt;Node5</title>
<path fill="none" stroke="#191970" d="M493.2213,-380.167C480.5866,-353.5536 446.4826,-277.5664 435,-210 432.6916,-196.417 427.6038,-190.6242 435,-179 504.2721,-70.1293 573.3115,-89.23 698,-56 796.8127,-29.666 1113.1994,-15.267 1215.6521,-11.2076"/>
<polygon fill="#191970" stroke="#191970" points="1215.8505,-14.7026 1225.7064,-10.8154 1215.5775,-7.708 1215.8505,-14.7026"/>
</g>
<!-- Node6 -->
<g id="node7" class="node">
<title>Node6</title>
<g id="a_node7"><a xlink:href="maliput__copyable_8h.html" target="_top" xlink:title="Code in this file is inspired by: https://github.com/RobotLocomotion/drake/blob/master/common/drake_c...">
<polygon fill="#ffffff" stroke="#000000" points="444,-179.5 444,-209.5 584,-209.5 584,-179.5 444,-179.5"/>
<text text-anchor="start" x="452" y="-197.5" font-family="Helvetica,sans-Serif" font-size="10.00" fill="#000000">maliput/common/maliput</text>
<text text-anchor="middle" x="514" y="-186.5" font-family="Helvetica,sans-Serif" font-size="10.00" fill="#000000">_copyable.h</text>
</a>
</g>
</g>
<!-- Node2&#45;&gt;Node6 -->
<g id="edge6" class="edge">
<title>Node2&#45;&gt;Node6</title>
<path fill="none" stroke="#191970" d="M501.8229,-380.3168C505.2366,-371.1344 509.9972,-356.8676 512,-344 518.7199,-300.8266 517.4674,-249.7929 515.8214,-219.9017"/>
<polygon fill="#191970" stroke="#191970" points="519.3137,-219.6677 515.2112,-209.8994 512.3267,-220.094 519.3137,-219.6677"/>
</g>
<!-- Node7 -->
<g id="node8" class="node">
<title>Node7</title>
<g id="a_node8"><a xlink:href="maliput__throw_8h.html" target="_top" xlink:title="Code in this file is inspired by: https://github.com/RobotLocomotion/drake/blob/master/common/drake_t...">
<polygon fill="#ffffff" stroke="#000000" points="707,-56.5 707,-86.5 847,-86.5 847,-56.5 707,-56.5"/>
<text text-anchor="start" x="715" y="-74.5" font-family="Helvetica,sans-Serif" font-size="10.00" fill="#000000">maliput/common/maliput</text>
<text text-anchor="middle" x="777" y="-63.5" font-family="Helvetica,sans-Serif" font-size="10.00" fill="#000000">_throw.h</text>
</a>
</g>
</g>
<!-- Node2&#45;&gt;Node7 -->
<g id="edge7" class="edge">
<title>Node2&#45;&gt;Node7</title>
<path fill="none" stroke="#191970" d="M504.4941,-380.1661C510.6091,-370.8771 519.999,-356.5383 528,-344 574.5033,-271.1246 573.3172,-243.39 631,-179 657.8165,-149.0653 669.6391,-146.8324 702,-123 716.0844,-112.6274 732.0182,-101.5917 745.5657,-92.4075"/>
<polygon fill="#191970" stroke="#191970" points="747.7466,-95.1584 754.0804,-86.6652 743.8326,-89.3548 747.7466,-95.1584"/>
</g>
<!-- Node8 -->
<g id="node9" class="node">
<title>Node8</title>
<g id="a_node9"><a xlink:href="matrix_8h.html" target="_top" xlink:title="maliput/math/matrix.h">
<polygon fill="#ffffff" stroke="#000000" points="24.5,-185 24.5,-204 151.5,-204 151.5,-185 24.5,-185"/>
<text text-anchor="middle" x="88" y="-192" font-family="Helvetica,sans-Serif" font-size="10.00" fill="#000000">maliput/math/matrix.h</text>
</a>
</g>
</g>
<!-- Node2&#45;&gt;Node8 -->
<g id="edge9" class="edge">
<title>Node2&#45;&gt;Node8</title>
<path fill="none" stroke="#191970" d="M431.8214,-387.9064C347.4827,-384.0538 207.6221,-373.3261 166,-344 121.2584,-312.476 100.266,-247.2617 92.1971,-214.3783"/>
<polygon fill="#191970" stroke="#191970" points="95.5106,-213.1685 89.8643,-204.2036 88.6877,-214.7329 95.5106,-213.1685"/>
</g>
<!-- Node14 -->
<g id="node15" class="node">
<title>Node14</title>
<g id="a_node15"><a xlink:href="vector_8h.html" target="_top" xlink:title="maliput/math/vector.h">
<polygon fill="#ffffff" stroke="#000000" points="211.5,-123.5 211.5,-142.5 336.5,-142.5 336.5,-123.5 211.5,-123.5"/>
<text text-anchor="middle" x="274" y="-130.5" font-family="Helvetica,sans-Serif" font-size="10.00" fill="#000000">maliput/math/vector.h</text>
</a>
</g>
</g>
<!-- Node2&#45;&gt;Node14 -->
<g id="edge33" class="edge">
<title>Node2&#45;&gt;Node14</title>
<path fill="none" stroke="#191970" d="M431.8956,-385.0733C371.2127,-379.1626 287.3019,-367.0266 264,-344 211.1946,-291.8186 213.8016,-249.1837 238,-179 241.7187,-168.2144 249.1213,-158.0249 256.2519,-149.9904"/>
<polygon fill="#191970" stroke="#191970" points="258.7967,-152.3934 263.1452,-142.7321 253.7209,-147.5729 258.7967,-152.3934"/>
</g>
<!-- Node15 -->
<g id="node16" class="node">
<title>Node15</title>
<g id="a_node16"><a xlink:href="quaternion_8h.html" target="_top" xlink:title="Code in this file is inspired by: https://gitlab.com/libeigen/eigen/&#45;/blob/master/Eigen/src/Geometry/...">
<polygon fill="#ffffff" stroke="#000000" points="284.5,-252 284.5,-271 431.5,-271 431.5,-252 284.5,-252"/>
<text text-anchor="middle" x="358" y="-259" font-family="Helvetica,sans-Serif" font-size="10.00" fill="#000000">maliput/math/quaternion.h</text>
</a>
</g>
</g>
<!-- Node2&#45;&gt;Node15 -->
<g id="edge22" class="edge">
<title>Node2&#45;&gt;Node15</title>
<path fill="none" stroke="#191970" d="M490.9772,-380.3095C479.6131,-364.9996 456.0308,-334.7267 432,-313 416.8085,-299.2651 397.8149,-286.1168 382.8742,-276.5435"/>
<polygon fill="#191970" stroke="#191970" points="384.4949,-273.4283 374.1655,-271.0714 380.7706,-279.3553 384.4949,-273.4283"/>
</g>
<!-- Node17 -->
<g id="node18" class="node">
<title>Node17</title>
<g id="a_node18"><a xlink:href="roll__pitch__yaw_8h.html" target="_top" xlink:title="Code in this file is inspired by: https://github.com/RobotLocomotion/drake/blob/master/math/roll_pitc...">
<polygon fill="#ffffff" stroke="#000000" points="292.5,-313.5 292.5,-343.5 423.5,-343.5 423.5,-313.5 292.5,-313.5"/>
<text text-anchor="start" x="300.5" y="-331.5" font-family="Helvetica,sans-Serif" font-size="10.00" fill="#000000">maliput/math/roll_pitch</text>
<text text-anchor="middle" x="358" y="-320.5" font-family="Helvetica,sans-Serif" font-size="10.00" fill="#000000">_yaw.h</text>
</a>
</g>
</g>
<!-- Node2&#45;&gt;Node17 -->
<g id="edge28" class="edge">
<title>Node2&#45;&gt;Node17</title>
<path fill="none" stroke="#191970" d="M476.125,-380.3906C456.2128,-371.6435 426.2309,-358.4728 401.4562,-347.5897"/>
<polygon fill="#191970" stroke="#191970" points="402.8111,-344.3621 392.2479,-343.5446 399.9957,-350.771 402.8111,-344.3621"/>
</g>
<!-- Node7&#45;&gt;Node5 -->
<g id="edge8" class="edge">
<title>Node7&#45;&gt;Node5</title>
<path fill="none" stroke="#191970" d="M847.0049,-62.3592C950.3224,-48.8687 1139.5711,-24.1579 1215.3548,-14.2626"/>
<polygon fill="#191970" stroke="#191970" points="1216.2263,-17.6786 1225.6889,-12.9132 1215.3199,-10.7375 1216.2263,-17.6786"/>
</g>
<!-- Node9 -->
<g id="node10" class="node">
<title>Node9</title>
<polygon fill="#ffffff" stroke="#bfbfbf" points="0,-62 0,-81 64,-81 64,-62 0,-62"/>
<text text-anchor="middle" x="32" y="-69" font-family="Helvetica,sans-Serif" font-size="10.00" fill="#000000">algorithm</text>
</g>
<!-- Node8&#45;&gt;Node9 -->
<g id="edge10" class="edge">
<title>Node8&#45;&gt;Node9</title>
<path fill="none" stroke="#191970" d="M83.6058,-184.8484C74.3642,-164.5499 52.7717,-117.1235 40.6495,-90.4981"/>
<polygon fill="#191970" stroke="#191970" points="43.7029,-88.7576 36.3738,-81.1068 37.3321,-91.6582 43.7029,-88.7576"/>
</g>
<!-- Node10 -->
<g id="node11" class="node">
<title>Node10</title>
<polygon fill="#ffffff" stroke="#bfbfbf" points="82,-62 82,-81 124,-81 124,-62 82,-62"/>
<text text-anchor="middle" x="103" y="-69" font-family="Helvetica,sans-Serif" font-size="10.00" fill="#000000">array</text>
</g>
<!-- Node8&#45;&gt;Node10 -->
<g id="edge11" class="edge">
<title>Node8&#45;&gt;Node10</title>
<path fill="none" stroke="#191970" d="M88.3051,-184.7478C88.8223,-170.9494 90.1111,-144.9602 93,-123 94.3832,-112.4855 96.5769,-100.8817 98.5577,-91.3547"/>
<polygon fill="#191970" stroke="#191970" points="102.0361,-91.8277 100.7237,-81.3144 95.1935,-90.3514 102.0361,-91.8277"/>
</g>
<!-- Node11 -->
<g id="node12" class="node">
<title>Node11</title>
<polygon fill="#ffffff" stroke="#bfbfbf" points="322.5,-62 322.5,-81 375.5,-81 375.5,-62 322.5,-62"/>
<text text-anchor="middle" x="349" y="-69" font-family="Helvetica,sans-Serif" font-size="10.00" fill="#000000">cstddef</text>
</g>
<!-- Node8&#45;&gt;Node11 -->
<g id="edge12" class="edge">
<title>Node8&#45;&gt;Node11</title>
<path fill="none" stroke="#191970" d="M102.9966,-184.9573C132.7443,-166.0473 196.8139,-125.4219 202,-123 248.9915,-101.0551 264.4632,-105.2746 313,-87 314.815,-86.3167 316.672,-85.5933 318.5392,-84.8475"/>
<polygon fill="#191970" stroke="#191970" points="319.911,-88.0677 327.813,-81.0102 317.2345,-81.5996 319.911,-88.0677"/>
</g>
<!-- Node12 -->
<g id="node13" class="node">
<title>Node12</title>
<polygon fill="#ffffff" stroke="#bfbfbf" points="142.5,-62 142.5,-81 225.5,-81 225.5,-62 142.5,-62"/>
<text text-anchor="middle" x="184" y="-69" font-family="Helvetica,sans-Serif" font-size="10.00" fill="#000000">initializer_list</text>
</g>
<!-- Node8&#45;&gt;Node12 -->
<g id="edge13" class="edge">
<title>Node8&#45;&gt;Node12</title>
<path fill="none" stroke="#191970" d="M92.835,-184.7377C100.1207,-170.477 114.7967,-143.427 131,-123 141.1659,-110.1842 154.3522,-97.3596 165.0288,-87.7138"/>
<polygon fill="#191970" stroke="#191970" points="167.4381,-90.2555 172.6124,-81.0101 162.8019,-85.0109 167.4381,-90.2555"/>
</g>
<!-- Node13 -->
<g id="node14" class="node">
<title>Node13</title>
<polygon fill="#ffffff" stroke="#bfbfbf" points="244,-62 244,-81 304,-81 304,-62 244,-62"/>
<text text-anchor="middle" x="274" y="-69" font-family="Helvetica,sans-Serif" font-size="10.00" fill="#000000">iostream</text>
</g>
<!-- Node8&#45;&gt;Node13 -->
<g id="edge14" class="edge">
<title>Node8&#45;&gt;Node13</title>
<path fill="none" stroke="#191970" d="M97.2788,-184.7891C111.6558,-170.1122 140.6252,-141.9818 169,-123 191.6835,-107.8255 219.4935,-94.3883 240.7932,-85.0473"/>
<polygon fill="#191970" stroke="#191970" points="242.2768,-88.2193 250.0796,-81.0522 239.5104,-81.789 242.2768,-88.2193"/>
</g>
<!-- Node8&#45;&gt;Node14 -->
<g id="edge15" class="edge">
<title>Node8&#45;&gt;Node14</title>
<path fill="none" stroke="#191970" d="M117.0625,-184.8906C148.8662,-174.3749 200.0051,-157.466 235.2144,-145.8243"/>
<polygon fill="#191970" stroke="#191970" points="236.7459,-149.0043 245.1416,-142.5419 234.5483,-142.3582 236.7459,-149.0043"/>
</g>
<!-- Node14&#45;&gt;Node7 -->
<g id="edge21" class="edge">
<title>Node14&#45;&gt;Node7</title>
<path fill="none" stroke="#191970" d="M336.6883,-125.3353C427.7118,-114.2062 596.4947,-93.5697 696.5729,-81.3335"/>
<polygon fill="#191970" stroke="#191970" points="697.1337,-84.7911 706.635,-80.1033 696.2841,-77.8429 697.1337,-84.7911"/>
</g>
<!-- Node14&#45;&gt;Node9 -->
<g id="edge16" class="edge">
<title>Node14&#45;&gt;Node9</title>
<path fill="none" stroke="#191970" d="M223.5283,-123.4394C182.5745,-115.2071 123.5485,-102.2613 73,-87 70.4252,-86.2226 67.7799,-85.3645 65.1326,-84.4627"/>
<polygon fill="#191970" stroke="#191970" points="66.2539,-81.1466 55.6593,-81.0718 63.8949,-87.7372 66.2539,-81.1466"/>
</g>
<!-- Node14&#45;&gt;Node10 -->
<g id="edge17" class="edge">
<title>Node14&#45;&gt;Node10</title>
<path fill="none" stroke="#191970" d="M239.5346,-123.4522C210.6349,-115.0459 168.5138,-101.8529 133,-87 131.8135,-86.5038 130.6101,-85.9788 129.4013,-85.4336"/>
<polygon fill="#191970" stroke="#191970" points="130.7504,-82.1984 120.2235,-81.0011 127.7061,-88.5018 130.7504,-82.1984"/>
</g>
<!-- Node14&#45;&gt;Node11 -->
<g id="edge18" class="edge">
<title>Node14&#45;&gt;Node11</title>
<path fill="none" stroke="#191970" d="M285.7188,-123.3906C297.3188,-113.8786 315.2979,-99.1357 329.1321,-87.7917"/>
<polygon fill="#191970" stroke="#191970" points="331.6026,-90.2921 337.116,-81.2449 327.164,-84.8792 331.6026,-90.2921"/>
</g>
<!-- Node14&#45;&gt;Node12 -->
<g id="edge19" class="edge">
<title>Node14&#45;&gt;Node12</title>
<path fill="none" stroke="#191970" d="M259.9375,-123.3906C245.6714,-113.6421 223.365,-98.3994 206.6128,-86.9521"/>
<polygon fill="#191970" stroke="#191970" points="208.1949,-83.7941 197.9638,-81.0419 204.2455,-89.5736 208.1949,-83.7941"/>
</g>
<!-- Node14&#45;&gt;Node13 -->
<g id="edge20" class="edge">
<title>Node14&#45;&gt;Node13</title>
<path fill="none" stroke="#191970" d="M274,-123.3906C274,-114.8657 274,-102.1392 274,-91.4235"/>
<polygon fill="#191970" stroke="#191970" points="277.5001,-91.2448 274,-81.2449 270.5001,-91.2449 277.5001,-91.2448"/>
</g>
<!-- Node15&#45;&gt;Node4 -->
<g id="edge24" class="edge">
<title>Node15&#45;&gt;Node4</title>
<path fill="none" stroke="#191970" d="M347.1111,-251.9005C335.0338,-241.2535 315.3329,-223.8856 300.76,-211.0385"/>
<polygon fill="#191970" stroke="#191970" points="302.6846,-208.0692 292.8687,-204.0817 298.0555,-213.3201 302.6846,-208.0692"/>
</g>
<!-- Node15&#45;&gt;Node6 -->
<g id="edge25" class="edge">
<title>Node15&#45;&gt;Node6</title>
<path fill="none" stroke="#191970" d="M380.351,-251.9005C403.5128,-241.9528 440.3349,-226.1382 469.4692,-213.6254"/>
<polygon fill="#191970" stroke="#191970" points="471.2168,-216.6841 479.024,-209.5218 468.4543,-210.2522 471.2168,-216.6841"/>
</g>
<!-- Node15&#45;&gt;Node8 -->
<g id="edge26" class="edge">
<title>Node15&#45;&gt;Node8</title>
<path fill="none" stroke="#191970" d="M319.6023,-251.9717C271.4574,-240.0246 188.89,-219.5357 136.449,-206.5225"/>
<polygon fill="#191970" stroke="#191970" points="137.251,-203.1155 126.7024,-204.1039 135.565,-209.9094 137.251,-203.1155"/>
</g>
<!-- Node15&#45;&gt;Node14 -->
<g id="edge27" class="edge">
<title>Node15&#45;&gt;Node14</title>
<path fill="none" stroke="#191970" d="M354.6224,-251.7934C348.7931,-235.7782 335.8326,-203.1866 319,-179 311.5732,-168.3286 301.5994,-157.8534 292.929,-149.6013"/>
<polygon fill="#191970" stroke="#191970" points="295.1698,-146.9068 285.4433,-142.706 290.4272,-152.0554 295.1698,-146.9068"/>
</g>
<!-- Node16 -->
<g id="node17" class="node">
<title>Node16</title>
<polygon fill="#ffffff" stroke="#bfbfbf" points="640.5,-185 640.5,-204 687.5,-204 687.5,-185 640.5,-185"/>
<text text-anchor="middle" x="664" y="-192" font-family="Helvetica,sans-Serif" font-size="10.00" fill="#000000">cmath</text>
</g>
<!-- Node15&#45;&gt;Node16 -->
<g id="edge23" class="edge">
<title>Node15&#45;&gt;Node16</title>
<path fill="none" stroke="#191970" d="M401.5174,-251.9717C463.0571,-238.4973 574.2214,-214.1574 630.0582,-201.9317"/>
<polygon fill="#191970" stroke="#191970" points="631.1166,-205.283 640.1365,-199.725 629.6193,-198.445 631.1166,-205.283"/>
</g>
<!-- Node17&#45;&gt;Node6 -->
<g id="edge29" class="edge">
<title>Node17&#45;&gt;Node6</title>
<path fill="none" stroke="#191970" d="M386.2756,-313.3693C402.7247,-303.9421 423.4167,-290.9743 440,-277 461.2422,-259.0999 482.0608,-235.1502 496.1775,-217.6677"/>
<polygon fill="#191970" stroke="#191970" points="499.0599,-219.6661 502.5416,-209.6597 493.5797,-215.3109 499.0599,-219.6661"/>
</g>
<!-- Node17&#45;&gt;Node8 -->
<g id="edge30" class="edge">
<title>Node17&#45;&gt;Node8</title>
<path fill="none" stroke="#191970" d="M299.6895,-313.4317C270.1748,-304.7117 234.2801,-292.399 204,-277 167.2461,-258.3087 129.1256,-228.9364 107.0328,-210.746"/>
<polygon fill="#191970" stroke="#191970" points="109.0428,-207.8648 99.1227,-204.1443 104.5575,-213.239 109.0428,-207.8648"/>
</g>
<!-- Node17&#45;&gt;Node14 -->
<g id="edge32" class="edge">
<title>Node17&#45;&gt;Node14</title>
<path fill="none" stroke="#191970" d="M324.4436,-313.46C307.8842,-304.7126 288.598,-292.3669 275,-277 253.2567,-252.4282 251.0538,-242.0435 244,-210 241.038,-196.5444 240.0741,-192.2066 244,-179 247.0326,-168.7984 253.1244,-158.7475 259.0309,-150.6555"/>
<polygon fill="#191970" stroke="#191970" points="261.823,-152.7667 265.2139,-142.7291 256.3036,-148.4613 261.823,-152.7667"/>
</g>
<!-- Node17&#45;&gt;Node15 -->
<g id="edge31" class="edge">
<title>Node17&#45;&gt;Node15</title>
<path fill="none" stroke="#191970" d="M358,-313.2967C358,-303.7699 358,-291.3954 358,-281.1306"/>
<polygon fill="#191970" stroke="#191970" points="361.5001,-281.0549 358,-271.055 354.5001,-281.055 361.5001,-281.0549"/>
</g>
<!-- Node18&#45;&gt;Node1 -->
<g id="edge38" class="edge">
<title>Node18&#45;&gt;Node1</title>
<path fill="none" stroke="#191970" d="M1364.1243,-493.3428C1389.0749,-486.888 1416.4659,-475.6296 1435,-456 1455.956,-433.8054 1454,-420.5246 1454,-390 1454,-390 1454,-390 1454,-328.5 1454,-287.9699 1454,-240.5443 1454,-214.3795"/>
<polygon fill="#191970" stroke="#191970" points="1457.5001,-214.2517 1454,-204.2517 1450.5001,-214.2518 1457.5001,-214.2517"/>
</g>
<!-- Node18&#45;&gt;Node6 -->
<g id="edge66" class="edge">
<title>Node18&#45;&gt;Node6</title>
<path fill="none" stroke="#191970" d="M1243.7456,-499.4169C1110.0965,-493.3359 797.1799,-477.0317 754,-456 642.9441,-401.9078 558.6509,-272.1825 527.3046,-218.4435"/>
<polygon fill="#191970" stroke="#191970" points="530.2517,-216.5473 522.2366,-209.6185 524.1814,-220.0333 530.2517,-216.5473"/>
</g>
<!-- Node18&#45;&gt;Node16 -->
<g id="edge35" class="edge">
<title>Node18&#45;&gt;Node16</title>
<path fill="none" stroke="#191970" d="M1243.8941,-499.8301C1133.2083,-495.2399 901.5605,-482.6993 826,-456 775.7905,-438.2585 726,-443.2518 726,-390 726,-390 726,-390 726,-328.5 726,-283.2971 696.5807,-236.786 678.2727,-212.218"/>
<polygon fill="#191970" stroke="#191970" points="680.9774,-209.9937 672.1054,-204.2025 675.4295,-214.2623 680.9774,-209.9937"/>
</g>
<!-- Node19 -->
<g id="node20" class="node">
<title>Node19</title>
<polygon fill="#ffffff" stroke="#bfbfbf" points="1370,-436.5 1370,-455.5 1426,-455.5 1426,-436.5 1370,-436.5"/>
<text text-anchor="middle" x="1398" y="-443.5" font-family="Helvetica,sans-Serif" font-size="10.00" fill="#000000">numeric</text>
</g>
<!-- Node18&#45;&gt;Node19 -->
<g id="edge36" class="edge">
<title>Node18&#45;&gt;Node19</title>
<path fill="none" stroke="#191970" d="M1320.3736,-492.2455C1334.9308,-483.5731 1356.431,-470.7645 1373.1152,-460.825"/>
<polygon fill="#191970" stroke="#191970" points="1375.0144,-463.7676 1381.8141,-455.6427 1371.4317,-457.7539 1375.0144,-463.7676"/>
</g>
<!-- Node20 -->
<g id="node21" class="node">
<title>Node20</title>
<polygon fill="#ffffff" stroke="#bfbfbf" points="1314,-185 1314,-204 1370,-204 1370,-185 1314,-185"/>
<text text-anchor="middle" x="1342" y="-192" font-family="Helvetica,sans-Serif" font-size="10.00" fill="#000000">optional</text>
</g>
<!-- Node18&#45;&gt;Node20 -->
<g id="edge37" class="edge">
<title>Node18&#45;&gt;Node20</title>
<path fill="none" stroke="#191970" d="M1309.607,-492.4834C1320.1774,-473.6141 1342,-429.8343 1342,-390 1342,-390 1342,-390 1342,-328.5 1342,-287.9699 1342,-240.5443 1342,-214.3795"/>
<polygon fill="#191970" stroke="#191970" points="1345.5001,-214.2517 1342,-204.2517 1338.5001,-214.2518 1345.5001,-214.2517"/>
</g>
<!-- Node21 -->
<g id="node22" class="node">
<title>Node21</title>
<g id="a_node22"><a xlink:href="api_2lane_8h.html" target="_top" xlink:title="maliput/api/lane.h">
<polygon fill="#ffffff" stroke="#000000" points="834.5,-436.5 834.5,-455.5 939.5,-455.5 939.5,-436.5 834.5,-436.5"/>
<text text-anchor="middle" x="887" y="-443.5" font-family="Helvetica,sans-Serif" font-size="10.00" fill="#000000">maliput/api/lane.h</text>
</a>
</g>
</g>
<!-- Node18&#45;&gt;Node21 -->
<g id="edge39" class="edge">
<title>Node18&#45;&gt;Node21</title>
<path fill="none" stroke="#191970" d="M1243.81,-493.9169C1165.5623,-483.4088 1029.5342,-465.1413 949.9533,-454.4542"/>
<polygon fill="#191970" stroke="#191970" points="949.9629,-450.9241 939.586,-453.0619 949.0311,-457.8618 949.9629,-450.9241"/>
</g>
<!-- Node23 -->
<g id="node24" class="node">
<title>Node23</title>
<g id="a_node24"><a xlink:href="type__specific__identifier_8h.html" target="_top" xlink:title="maliput/api/type_specific\l_identifier.h">
<polygon fill="#ffffff" stroke="#000000" points="846,-313.5 846,-343.5 986,-343.5 986,-313.5 846,-313.5"/>
<text text-anchor="start" x="854" y="-331.5" font-family="Helvetica,sans-Serif" font-size="10.00" fill="#000000">maliput/api/type_specific</text>
<text text-anchor="middle" x="916" y="-320.5" font-family="Helvetica,sans-Serif" font-size="10.00" fill="#000000">_identifier.h</text>
</a>
</g>
</g>
<!-- Node18&#45;&gt;Node23 -->
<g id="edge65" class="edge">
<title>Node18&#45;&gt;Node23</title>
<path fill="none" stroke="#191970" d="M1282.5868,-492.4248C1220.8627,-464.8239 1041.7211,-384.7181 958.9075,-347.6867"/>
<polygon fill="#191970" stroke="#191970" points="960.3318,-344.4897 949.7742,-343.6026 957.4743,-350.8799 960.3318,-344.4897"/>
</g>
<!-- Node21&#45;&gt;Node2 -->
<g id="edge43" class="edge">
<title>Node21&#45;&gt;Node2</title>
<path fill="none" stroke="#191970" d="M834.1329,-438.3893C767.0352,-428.73 650.8217,-412 574.1658,-400.9647"/>
<polygon fill="#191970" stroke="#191970" points="574.4846,-397.4746 564.0879,-399.5139 573.4871,-404.4032 574.4846,-397.4746"/>
</g>
<!-- Node21&#45;&gt;Node5 -->
<g id="edge42" class="edge">
<title>Node21&#45;&gt;Node5</title>
<path fill="none" stroke="#191970" d="M939.8818,-440.9445C1049.257,-427.1709 1296.9682,-377.8966 1379,-210 1414.8626,-136.5992 1318.152,-57.8471 1271.5183,-25.357"/>
<polygon fill="#191970" stroke="#191970" points="1273.408,-22.4093 1263.1747,-19.6654 1269.4633,-28.192 1273.408,-22.4093"/>
</g>
<!-- Node21&#45;&gt;Node6 -->
<g id="edge63" class="edge">
<title>Node21&#45;&gt;Node6</title>
<path fill="none" stroke="#191970" d="M841.8061,-436.4935C813.9178,-429.2942 778.209,-417.5898 750,-400 703.8647,-371.2322 703.5264,-350.3325 664,-313 631.2638,-282.0808 623.4269,-273.7955 588,-246 574.4638,-235.3797 558.9087,-224.3847 545.5641,-215.2949"/>
<polygon fill="#191970" stroke="#191970" points="547.404,-212.3141 537.1575,-209.6198 543.4874,-218.1158 547.404,-212.3141"/>
</g>
<!-- Node21&#45;&gt;Node7 -->
<g id="edge64" class="edge">
<title>Node21&#45;&gt;Node7</title>
<path fill="none" stroke="#191970" d="M867.8377,-436.3384C853.4012,-428.2622 833.9468,-415.573 821,-400 761.743,-328.723 754.551,-300.6066 735,-210 726.1821,-169.1345 746.5676,-122.8845 761.9208,-95.5112"/>
<polygon fill="#191970" stroke="#191970" points="765.0707,-97.0575 767.0855,-86.656 759.024,-93.5309 765.0707,-97.0575"/>
</g>
<!-- Node21&#45;&gt;Node20 -->
<g id="edge41" class="edge">
<title>Node21&#45;&gt;Node20</title>
<path fill="none" stroke="#191970" d="M917.8283,-436.4245C984.4501,-414.8351 1145.1779,-357.8625 1261,-277 1287.7316,-258.337 1313.1487,-230.1463 1328.1587,-212.0304"/>
<polygon fill="#191970" stroke="#191970" points="1331.0661,-214.0022 1334.6514,-204.0324 1325.6314,-209.5903 1331.0661,-214.0022"/>
</g>
<!-- Node22 -->
<g id="node23" class="node">
<title>Node22</title>
<polygon fill="#ffffff" stroke="#bfbfbf" points="830,-380.5 830,-399.5 888,-399.5 888,-380.5 830,-380.5"/>
<text text-anchor="middle" x="859" y="-387.5" font-family="Helvetica,sans-Serif" font-size="10.00" fill="#000000">memory</text>
</g>
<!-- Node21&#45;&gt;Node22 -->
<g id="edge40" class="edge">
<title>Node21&#45;&gt;Node22</title>
<path fill="none" stroke="#191970" d="M882.1228,-436.2455C878.3487,-428.6973 873.0079,-418.0158 868.4099,-408.8197"/>
<polygon fill="#191970" stroke="#191970" points="871.424,-407.0217 863.8213,-399.6427 865.163,-410.1522 871.424,-407.0217"/>
</g>
<!-- Node21&#45;&gt;Node23 -->
<g id="edge44" class="edge">
<title>Node21&#45;&gt;Node23</title>
<path fill="none" stroke="#191970" d="M889.3732,-436.3845C893.796,-418.4644 903.4282,-379.4375 909.813,-353.5681"/>
<polygon fill="#191970" stroke="#191970" points="913.2468,-354.2617 912.245,-343.7143 906.4507,-352.5843 913.2468,-354.2617"/>
</g>
<!-- Node23&#45;&gt;Node3 -->
<g id="edge45" class="edge">
<title>Node23&#45;&gt;Node3</title>
<path fill="none" stroke="#191970" d="M900.3251,-313.389C874.0889,-288.0965 821.4849,-237.3847 794.2398,-211.1196"/>
<polygon fill="#191970" stroke="#191970" points="796.5911,-208.5248 786.9625,-204.1042 791.7328,-213.5644 796.5911,-208.5248"/>
</g>
<!-- Node23&#45;&gt;Node5 -->
<g id="edge46" class="edge">
<title>Node23&#45;&gt;Node5</title>
<path fill="none" stroke="#191970" d="M986.0312,-323.2614C1062.6427,-313.684 1183.621,-286.5983 1252,-210 1297.9633,-158.5118 1288.4358,-123.0337 1272,-56 1269.6257,-46.3164 1264.8179,-36.4071 1260.1247,-28.2776"/>
<polygon fill="#191970" stroke="#191970" points="1263.0472,-26.3486 1254.8208,-19.672 1257.0881,-30.0214 1263.0472,-26.3486"/>
</g>
<!-- Node23&#45;&gt;Node6 -->
<g id="edge48" class="edge">
<title>Node23&#45;&gt;Node6</title>
<path fill="none" stroke="#191970" d="M880.0506,-313.3634C837.8509,-295.8947 765.5473,-266.8945 702,-246 663.652,-233.3911 620.2232,-221.3511 584.7744,-212.0875"/>
<polygon fill="#191970" stroke="#191970" points="585.5571,-208.6747 574.9985,-209.5501 583.7985,-215.4502 585.5571,-208.6747"/>
</g>
<!-- Node23&#45;&gt;Node7 -->
<g id="edge62" class="edge">
<title>Node23&#45;&gt;Node7</title>
<path fill="none" stroke="#191970" d="M907.7212,-313.1931C884.4473,-270.1615 818.3012,-147.8627 790.0506,-95.6295"/>
<polygon fill="#191970" stroke="#191970" points="793.0714,-93.8575 785.2354,-86.7267 786.9142,-97.1877 793.0714,-93.8575"/>
</g>
<!-- Node24 -->
<g id="node25" class="node">
<title>Node24</title>
<polygon fill="#ffffff" stroke="#bfbfbf" points="866.5,-185 866.5,-204 911.5,-204 911.5,-185 866.5,-185"/>
<text text-anchor="middle" x="889" y="-192" font-family="Helvetica,sans-Serif" font-size="10.00" fill="#000000">utility</text>
</g>
<!-- Node23&#45;&gt;Node24 -->
<g id="edge47" class="edge">
<title>Node23&#45;&gt;Node24</title>
<path fill="none" stroke="#191970" d="M912.9552,-313.389C908.034,-288.9649 898.3366,-240.8371 892.9109,-213.9095"/>
<polygon fill="#191970" stroke="#191970" points="896.3415,-213.2158 890.9352,-204.1042 889.4794,-214.5985 896.3415,-213.2158"/>
</g>
<!-- Node25 -->
<g id="node26" class="node">
<title>Node25</title>
<g id="a_node26"><a xlink:href="maliput__hash_8h.html" target="_top" xlink:title="Code in this file is inspired by: https://github.com/RobotLocomotion/drake/blob/master/common/hash.h. ">
<polygon fill="#ffffff" stroke="#000000" points="946,-246.5 946,-276.5 1086,-276.5 1086,-246.5 946,-246.5"/>
<text text-anchor="start" x="954" y="-264.5" font-family="Helvetica,sans-Serif" font-size="10.00" fill="#000000">maliput/common/maliput</text>
<text text-anchor="middle" x="1016" y="-253.5" font-family="Helvetica,sans-Serif" font-size="10.00" fill="#000000">_hash.h</text>
</a>
</g>
</g>
<!-- Node23&#45;&gt;Node25 -->
<g id="edge49" class="edge">
<title>Node23&#45;&gt;Node25</title>
<path fill="none" stroke="#191970" d="M938.6915,-313.2967C952.3722,-304.1306 969.9874,-292.3285 984.947,-282.3055"/>
<polygon fill="#191970" stroke="#191970" points="987.0387,-285.1171 993.3983,-276.6432 983.1424,-279.3017 987.0387,-285.1171"/>
</g>
<!-- Node25&#45;&gt;Node1 -->
<g id="edge60" class="edge">
<title>Node25&#45;&gt;Node1</title>
<path fill="none" stroke="#191970" d="M1086.1334,-252.8788C1159.3976,-243.5621 1277.5687,-227.6585 1379,-210 1392.6434,-207.6248 1407.6,-204.6165 1420.5428,-201.8835"/>
<polygon fill="#191970" stroke="#191970" points="1421.3813,-205.2834 1430.4274,-199.7681 1419.9163,-198.4384 1421.3813,-205.2834"/>
</g>
<!-- Node25&#45;&gt;Node3 -->
<g id="edge52" class="edge">
<title>Node25&#45;&gt;Node3</title>
<path fill="none" stroke="#191970" d="M962.3637,-246.4639C919.0993,-234.3354 859.0846,-217.5112 819.198,-206.3296"/>
<polygon fill="#191970" stroke="#191970" points="820.087,-202.9439 809.5135,-203.6146 818.1975,-209.6841 820.087,-202.9439"/>
</g>
<!-- Node25&#45;&gt;Node5 -->
<g id="edge57" class="edge">
<title>Node25&#45;&gt;Node5</title>
<path fill="none" stroke="#191970" d="M1086.2485,-253.3344C1140.8613,-245.4435 1210.3737,-231.4897 1229,-210 1273.5902,-158.555 1261.2291,-69.2891 1252.8408,-29.7845"/>
<polygon fill="#191970" stroke="#191970" points="1256.2079,-28.8063 1250.5812,-19.8291 1249.3815,-30.3557 1256.2079,-28.8063"/>
</g>
<!-- Node25&#45;&gt;Node7 -->
<g id="edge61" class="edge">
<title>Node25&#45;&gt;Node7</title>
<path fill="none" stroke="#191970" d="M1015.193,-246.4174C1013.4957,-228.4653 1008.2415,-198.4746 992,-179 954.3662,-133.8747 893.0922,-105.8685 845.5664,-89.8008"/>
<polygon fill="#191970" stroke="#191970" points="846.5445,-86.4382 835.9517,-86.6482 844.3634,-93.0897 846.5445,-86.4382"/>
</g>
<!-- Node25&#45;&gt;Node11 -->
<g id="edge51" class="edge">
<title>Node25&#45;&gt;Node11</title>
<path fill="none" stroke="#191970" d="M1009.0017,-246.2249C999.4375,-227.2002 980.4071,-195.2299 954,-179 857.0514,-119.415 501.5242,-84.484 385.7254,-74.4968"/>
<polygon fill="#191970" stroke="#191970" points="385.8572,-70.9954 375.5963,-73.6344 385.2633,-77.9702 385.8572,-70.9954"/>
</g>
<!-- Node25&#45;&gt;Node13 -->
<g id="edge53" class="edge">
<title>Node25&#45;&gt;Node13</title>
<path fill="none" stroke="#191970" d="M997.3032,-246.4669C984.8679,-236.3477 968.2612,-222.6005 954,-210 938.9199,-196.676 939.1008,-187.7921 921,-179 859.5419,-149.1479 378.9532,-104.8444 313,-87 310.3868,-86.293 307.7105,-85.4646 305.0446,-84.5651"/>
<polygon fill="#191970" stroke="#191970" points="306.16,-81.2462 295.5664,-81.0853 303.7474,-87.8174 306.16,-81.2462"/>
</g>
<!-- Node25&#45;&gt;Node16 -->
<g id="edge50" class="edge">
<title>Node25&#45;&gt;Node16</title>
<path fill="none" stroke="#191970" d="M945.7204,-249.2964C888.8039,-239.2504 806.6037,-224.3732 735,-210 722.7538,-207.5418 709.3611,-204.6668 697.5401,-202.065"/>
<polygon fill="#191970" stroke="#191970" points="698.1454,-198.6143 687.6248,-199.8663 696.6299,-205.4483 698.1454,-198.6143"/>
</g>
<!-- Node25&#45;&gt;Node20 -->
<g id="edge55" class="edge">
<title>Node25&#45;&gt;Node20</title>
<path fill="none" stroke="#191970" d="M1086.3358,-247.0445C1153.0179,-233.3399 1250.682,-213.2678 1303.9302,-202.3242"/>
<polygon fill="#191970" stroke="#191970" points="1304.8746,-205.7033 1313.9652,-200.2617 1303.4653,-198.8466 1304.8746,-205.7033"/>
</g>
<!-- Node25&#45;&gt;Node24 -->
<g id="edge59" class="edge">
<title>Node25&#45;&gt;Node24</title>
<path fill="none" stroke="#191970" d="M987.4987,-246.4639C966.1897,-235.2222 937.234,-219.9463 916.2361,-208.8686"/>
<polygon fill="#191970" stroke="#191970" points="917.6822,-205.6744 907.2044,-204.1039 914.416,-211.8657 917.6822,-205.6744"/>
</g>
<!-- Node26 -->
<g id="node27" class="node">
<title>Node26</title>
<polygon fill="#ffffff" stroke="#bfbfbf" points="1044,-185 1044,-204 1082,-204 1082,-185 1044,-185"/>
<text text-anchor="middle" x="1063" y="-192" font-family="Helvetica,sans-Serif" font-size="10.00" fill="#000000">map</text>
</g>
<!-- Node25&#45;&gt;Node26 -->
<g id="edge54" class="edge">
<title>Node25&#45;&gt;Node26</title>
<path fill="none" stroke="#191970" d="M1026.665,-246.2967C1033.7035,-236.2631 1042.9577,-223.0709 1050.3652,-212.5113"/>
<polygon fill="#191970" stroke="#191970" points="1053.4197,-214.2516 1056.2973,-204.055 1047.6891,-210.2316 1053.4197,-214.2516"/>
</g>
<!-- Node27 -->
<g id="node28" class="node">
<title>Node27</title>
<polygon fill="#ffffff" stroke="#bfbfbf" points="1100,-185 1100,-204 1132,-204 1132,-185 1100,-185"/>
<text text-anchor="middle" x="1116" y="-192" font-family="Helvetica,sans-Serif" font-size="10.00" fill="#000000">set</text>
</g>
<!-- Node25&#45;&gt;Node27 -->
<g id="edge56" class="edge">
<title>Node25&#45;&gt;Node27</title>
<path fill="none" stroke="#191970" d="M1038.6915,-246.2967C1055.0283,-235.351 1076.9759,-220.6462 1093.3119,-209.701"/>
<polygon fill="#191970" stroke="#191970" points="1095.3793,-212.5289 1101.7388,-204.055 1091.483,-206.7135 1095.3793,-212.5289"/>
</g>
<!-- Node28 -->
<g id="node29" class="node">
<title>Node28</title>
<polygon fill="#ffffff" stroke="#bfbfbf" points="1150.5,-185 1150.5,-204 1219.5,-204 1219.5,-185 1150.5,-185"/>
<text text-anchor="middle" x="1185" y="-192" font-family="Helvetica,sans-Serif" font-size="10.00" fill="#000000">type_traits</text>
</g>
<!-- Node25&#45;&gt;Node28 -->
<g id="edge58" class="edge">
<title>Node25&#45;&gt;Node28</title>
<path fill="none" stroke="#191970" d="M1053.9269,-246.4639C1083.177,-234.8677 1123.2547,-218.9789 1151.3676,-207.8335"/>
<polygon fill="#191970" stroke="#191970" points="1152.769,-211.0431 1160.7752,-204.1039 1150.1892,-204.5358 1152.769,-211.0431"/>
</g>
</g>
</svg>
