<?xml version="1.0" encoding="UTF-8" standalone="no"?>
<!DOCTYPE svg PUBLIC "-//W3C//DTD SVG 1.1//EN"
 "http://www.w3.org/Graphics/SVG/1.1/DTD/svg11.dtd">
<!-- Generated by graphviz version 2.43.0 (0)
 -->
<!-- Title: geometry_base Pages: 1 -->
<svg width="152pt" height="295pt"
 viewBox="0.00 0.00 152.00 295.00" xmlns="http://www.w3.org/2000/svg" xmlns:xlink="http://www.w3.org/1999/xlink">
<g id="graph0" class="graph" transform="scale(1 1) rotate(0) translate(4 291)">
<title>geometry_base</title>
<polygon fill="white" stroke="transparent" points="-4,4 -4,-291 148,-291 148,4 -4,4"/>
<g id="clust1" class="cluster">
<title>clusterdir_3a9e9a7cbac7463b19223206dfc8a5c3</title>
<g id="a_clust1"><a xlink:href="dir_3a9e9a7cbac7463b19223206dfc8a5c3.html" target="_top" xlink:title="maliput">
<polygon fill="#ddddee" stroke="black" points="8,-208 8,-279 116,-279 116,-208 8,-208"/>
<text text-anchor="middle" x="62" y="-267" font-family="Helvetica,sans-Serif" font-size="10.00">maliput</text>
</a>
</g>
</g>
<!-- dir_35c25056fb95143144a9580c751c87b6 -->
<g id="node1" class="node">
<title>dir_35c25056fb95143144a9580c751c87b6</title>
<g id="a_node1"><a xlink:href="dir_35c25056fb95143144a9580c751c87b6.html" target="_top" xlink:title="geometry_base">
<polygon fill="#eeeeff" stroke="black" points="108,-252 16,-252 16,-216 108,-216 108,-252"/>
<text text-anchor="middle" x="62" y="-231.5" font-family="Helvetica,sans-Serif" font-size="10.00">geometry_base</text>
</a>
</g>
</g>
<!-- dir_e37e446e438ba0eaa2502dac691157d1 -->
<g id="node2" class="node">
<title>dir_e37e446e438ba0eaa2502dac691157d1</title>
<g id="a_node2"><a xlink:href="dir_e37e446e438ba0eaa2502dac691157d1.html" target="_top" xlink:title="math">
<polygon fill="none" stroke="black" points="98,-108 44,-108 44,-72 98,-72 98,-108"/>
<text text-anchor="middle" x="71" y="-87.5" font-family="Helvetica,sans-Serif" font-size="10.00">math</text>
</a>
</g>
</g>
<!-- dir_35c25056fb95143144a9580c751c87b6&#45;&gt;dir_e37e446e438ba0eaa2502dac691157d1 -->
<g id="edge2" class="edge">
<title>dir_35c25056fb95143144a9580c751c87b6&#45;&gt;dir_e37e446e438ba0eaa2502dac691157d1</title>
<path fill="none" stroke="black" d="M63.09,-215.87C64.62,-191.67 67.44,-147.21 69.26,-118.39"/>
<polygon fill="black" stroke="black" points="72.77,-118.39 69.91,-108.19 65.78,-117.95 72.77,-118.39"/>
<g id="a_edge2&#45;headlabel"><a xlink:href="dir_000009_000005.html" target="_top" xlink:title="1">
<text text-anchor="middle" x="75.38" y="-119.66" font-family="Helvetica,sans-Serif" font-size="10.00">1</text>
</a>
</g>
</g>
<!-- dir_65831712c373917dbbb63459633e48fd -->
<g id="node3" class="node">
<title>dir_65831712c373917dbbb63459633e48fd</title>
<g id="a_node3"><a xlink:href="dir_65831712c373917dbbb63459633e48fd.html" target="_top" xlink:title="common">
<polygon fill="none" stroke="black" points="100.5,-36 41.5,-36 41.5,0 100.5,0 100.5,-36"/>
<text text-anchor="middle" x="71" y="-15.5" font-family="Helvetica,sans-Serif" font-size="10.00">common</text>
</a>
</g>
</g>
<!-- dir_35c25056fb95143144a9580c751c87b6&#45;&gt;dir_65831712c373917dbbb63459633e48fd -->
<g id="edge3" class="edge">
<title>dir_35c25056fb95143144a9580c751c87b6&#45;&gt;dir_65831712c373917dbbb63459633e48fd</title>
<path fill="none" stroke="black" d="M53.98,-215.74C41.24,-185.88 19.34,-122.93 35,-72 38.01,-62.22 43.51,-52.62 49.32,-44.33"/>
<polygon fill="black" stroke="black" points="52.19,-46.33 55.39,-36.23 46.59,-42.13 52.19,-46.33"/>
<g id="a_edge3&#45;headlabel"><a xlink:href="dir_000009_000002.html" target="_top" xlink:title="12">
<text text-anchor="middle" x="52.31" y="-48.41" font-family="Helvetica,sans-Serif" font-size="10.00">12</text>
</a>
</g>
</g>
<!-- dir_136b70ad760cd231f6f635bc47cd70fb -->
<g id="node4" class="node">
<title>dir_136b70ad760cd231f6f635bc47cd70fb</title>
<g id="a_node4"><a xlink:href="dir_136b70ad760cd231f6f635bc47cd70fb.html" target="_top" xlink:title="api">
<polygon fill="white" stroke="red" points="144,-180 90,-180 90,-144 144,-144 144,-180"/>
<text text-anchor="middle" x="117" y="-159.5" font-family="Helvetica,sans-Serif" font-size="10.00">api</text>
</a>
</g>
</g>
<!-- dir_35c25056fb95143144a9580c751c87b6&#45;&gt;dir_136b70ad760cd231f6f635bc47cd70fb -->
<g id="edge4" class="edge">
<title>dir_35c25056fb95143144a9580c751c87b6&#45;&gt;dir_136b70ad760cd231f6f635bc47cd70fb</title>
<path fill="none" stroke="black" d="M75.6,-215.7C82.12,-207.39 90.07,-197.28 97.25,-188.14"/>
<polygon fill="black" stroke="black" points="100.13,-190.13 103.56,-180.1 94.63,-185.81 100.13,-190.13"/>
<g id="a_edge4&#45;headlabel"><a xlink:href="dir_000009_000007.html" target="_top" xlink:title="22">
<text text-anchor="middle" x="100.15" y="-192.21" font-family="Helvetica,sans-Serif" font-size="10.00">22</text>
</a>
</g>
</g>
<!-- dir_e37e446e438ba0eaa2502dac691157d1&#45;&gt;dir_65831712c373917dbbb63459633e48fd -->
<g id="edge1" class="edge">
<title>dir_e37e446e438ba0eaa2502dac691157d1&#45;&gt;dir_65831712c373917dbbb63459633e48fd</title>
<path fill="none" stroke="black" d="M71,-71.7C71,-63.98 71,-54.71 71,-46.11"/>
<polygon fill="black" stroke="black" points="74.5,-46.1 71,-36.1 67.5,-46.1 74.5,-46.1"/>
<g id="a_edge1&#45;headlabel"><a xlink:href="dir_000005_000002.html" target="_top" xlink:title="8">
<text text-anchor="middle" x="77.34" y="-47.2" font-family="Helvetica,sans-Serif" font-size="10.00">8</text>
</a>
</g>
</g>
<!-- dir_136b70ad760cd231f6f635bc47cd70fb&#45;&gt;dir_e37e446e438ba0eaa2502dac691157d1 -->
<g id="edge5" class="edge">
<title>dir_136b70ad760cd231f6f635bc47cd70fb&#45;&gt;dir_e37e446e438ba0eaa2502dac691157d1</title>
<path fill="none" stroke="black" d="M105.63,-143.7C100.28,-135.56 93.8,-125.69 87.89,-116.7"/>
<polygon fill="black" stroke="black" points="90.66,-114.54 82.24,-108.1 84.81,-118.38 90.66,-114.54"/>
<g id="a_edge5&#45;headlabel"><a xlink:href="dir_000007_000005.html" target="_top" xlink:title="6">
<text text-anchor="middle" x="95" y="-113.48" font-family="Helvetica,sans-Serif" font-size="10.00">6</text>
</a>
</g>
</g>
<!-- dir_136b70ad760cd231f6f635bc47cd70fb&#45;&gt;dir_65831712c373917dbbb63459633e48fd -->
<g id="edge6" class="edge">
<title>dir_136b70ad760cd231f6f635bc47cd70fb&#45;&gt;dir_65831712c373917dbbb63459633e48fd</title>
<path fill="none" stroke="black" d="M117.48,-143.71C117.44,-125.35 115.79,-95.77 107,-72 103.45,-62.4 97.8,-52.85 92.02,-44.56"/>
<polygon fill="black" stroke="black" points="94.77,-42.4 86.03,-36.42 89.14,-46.55 94.77,-42.4"/>
<g id="a_edge6&#45;headlabel"><a xlink:href="dir_000007_000002.html" target="_top" xlink:title="51">
<text text-anchor="middle" x="99.19" y="-41.11" font-family="Helvetica,sans-Serif" font-size="10.00">51</text>
</a>
</g>
</g>
</g>
</svg>
