<?xml version="1.0" encoding="UTF-8" standalone="no"?>
<!DOCTYPE svg PUBLIC "-//W3C//DTD SVG 1.1//EN"
 "http://www.w3.org/Graphics/SVG/1.1/DTD/svg11.dtd">
<!-- Generated by graphviz version 2.40.1 (20161225.0304)
 -->
<!-- Title: branch_point.h Pages: 1 -->
<!--zoomable 643 -->
<svg id="main" version="1.1" xmlns="http://www.w3.org/2000/svg" xmlns:xlink="http://www.w3.org/1999/xlink" xml:space="preserve" onload="init(evt)">
<style type="text/css"><![CDATA[
.edge:hover path { stroke: red; }
.edge:hover polygon { stroke: red; fill: red; }
]]></style>
<script type="text/javascript"><![CDATA[
var edges = document.getElementsByTagName('g');
if (edges && edges.length) {
  for (var i=0;i<edges.length;i++) {
    if (edges[i].id.substr(0,4)=='edge') {
      edges[i].setAttribute('class','edge');
    }
  }
}
]]></script>
        <defs>
                <circle id="rim" cx="0" cy="0" r="7"/>
                <circle id="rim2" cx="0" cy="0" r="3.5"/>
                <g id="zoomPlus">
                        <use xlink:href="#rim" fill="#404040">
                                <set attributeName="fill" to="#808080" begin="zoomplus.mouseover" end="zoomplus.mouseout"/>
                        </use>
                        <path d="M-4,0h8M0,-4v8" fill="none" stroke="white" stroke-width="1.5" pointer-events="none"/>
                </g>
                <g id="zoomMin">
                        <use xlink:href="#rim" fill="#404040">
                                <set attributeName="fill" to="#808080" begin="zoomminus.mouseover" end="zoomminus.mouseout"/>
                        </use>
                        <path d="M-4,0h8" fill="none" stroke="white" stroke-width="1.5" pointer-events="none"/>
                </g>
                <g id="dirArrow">
                        <path fill="none" stroke="white" stroke-width="1.5" d="M0,-3.0v7 M-2.5,-0.5L0,-3.0L2.5,-0.5"/>
                </g>
               <g id="resetDef">
                       <use xlink:href="#rim2" fill="#404040">
                               <set attributeName="fill" to="#808080" begin="reset.mouseover" end="reset.mouseout"/>
                       </use>
               </g>
        </defs>

<script type="text/javascript">
var viewWidth = 2089;
var viewHeight = 643;
var sectionId = 'dynsection-0';
</script>
<script xlink:href="svgpan.js"/>
<svg id="graph" class="graph">
<g id="viewport">
<title>branch_point.h</title>
<polygon fill="#ffffff" stroke="transparent" points="-4,4 -4,-639 2084.7099,-639 2084.7099,4 -4,4"/>
<!-- Node0 -->
<g id="node1" class="node">
<title>Node0</title>
<polygon fill="#bfbfbf" stroke="#000000" points="1414.0424,-615.5 1414.0424,-634.5 1503.0424,-634.5 1503.0424,-615.5 1414.0424,-615.5"/>
<text text-anchor="middle" x="1458.5424" y="-622.5" font-family="Helvetica,sans-Serif" font-size="10.00" fill="#000000">branch_point.h</text>
</g>
<!-- Node1 -->
<g id="node2" class="node">
<title>Node1</title>
<polygon fill="#ffffff" stroke="#bfbfbf" points="606.5424,-246.5 606.5424,-265.5 644.5424,-265.5 644.5424,-246.5 606.5424,-246.5"/>
<text text-anchor="middle" x="625.5424" y="-253.5" font-family="Helvetica,sans-Serif" font-size="10.00" fill="#000000">map</text>
</g>
<!-- Node0&#45;&gt;Node1 -->
<g id="edge1" class="edge">
<title>Node0&#45;&gt;Node1</title>
<path fill="none" stroke="#191970" d="M1413.7352,-622.8629C1206.446,-612.6868 350.5424,-567.3773 350.5424,-513 350.5424,-513 350.5424,-513 350.5424,-451.5 350.5424,-331.9853 525.2152,-278.7953 596.1401,-262.1239"/>
<polygon fill="#191970" stroke="#191970" points="597.2268,-265.4664 606.2049,-259.8411 595.6784,-258.6398 597.2268,-265.4664"/>
</g>
<!-- Node2 -->
<g id="node3" class="node">
<title>Node2</title>
<polygon fill="#ffffff" stroke="#bfbfbf" points="1709.5424,-375 1709.5424,-394 1767.5424,-394 1767.5424,-375 1709.5424,-375"/>
<text text-anchor="middle" x="1738.5424" y="-382" font-family="Helvetica,sans-Serif" font-size="10.00" fill="#000000">memory</text>
</g>
<!-- Node0&#45;&gt;Node2 -->
<g id="edge2" class="edge">
<title>Node0&#45;&gt;Node2</title>
<path fill="none" stroke="#191970" d="M1503.295,-619.1891C1577.6322,-606.7515 1723.6201,-569.7619 1776.5424,-467 1787.9589,-444.8319 1770.7741,-418.5735 1755.965,-401.7355"/>
<polygon fill="#191970" stroke="#191970" points="1758.4001,-399.2146 1749.0217,-394.2854 1753.2792,-403.9872 1758.4001,-399.2146"/>
</g>
<!-- Node3 -->
<g id="node4" class="node">
<title>Node3</title>
<polygon fill="#ffffff" stroke="#bfbfbf" points="1863.5424,-246.5 1863.5424,-265.5 1919.5424,-265.5 1919.5424,-246.5 1863.5424,-246.5"/>
<text text-anchor="middle" x="1891.5424" y="-253.5" font-family="Helvetica,sans-Serif" font-size="10.00" fill="#000000">optional</text>
</g>
<!-- Node0&#45;&gt;Node3 -->
<g id="edge3" class="edge">
<title>Node0&#45;&gt;Node3</title>
<path fill="none" stroke="#191970" d="M1503.3616,-624.4788C1635.6046,-622.5437 2017.616,-613.9536 2060.5424,-579 2084.2125,-559.7262 2079.5424,-543.5246 2079.5424,-513 2079.5424,-513 2079.5424,-513 2079.5424,-451.5 2079.5424,-361.5475 1974.8579,-296.9816 1921.7226,-270.0031"/>
<polygon fill="#191970" stroke="#191970" points="1923.2571,-266.8574 1912.7429,-265.5528 1920.1487,-273.1294 1923.2571,-266.8574"/>
</g>
<!-- Node4 -->
<g id="node5" class="node">
<title>Node4</title>
<polygon fill="#ffffff" stroke="#bfbfbf" points="1798.0424,-246.5 1798.0424,-265.5 1845.0424,-265.5 1845.0424,-246.5 1798.0424,-246.5"/>
<text text-anchor="middle" x="1821.5424" y="-253.5" font-family="Helvetica,sans-Serif" font-size="10.00" fill="#000000">vector</text>
</g>
<!-- Node0&#45;&gt;Node4 -->
<g id="edge4" class="edge">
<title>Node0&#45;&gt;Node4</title>
<path fill="none" stroke="#191970" d="M1503.133,-622.366C1609.9258,-614.8414 1871.5424,-588.6841 1871.5424,-513 1871.5424,-513 1871.5424,-513 1871.5424,-384.5 1871.5424,-342.6565 1848.2316,-298.0457 1833.4432,-273.9548"/>
<polygon fill="#191970" stroke="#191970" points="1836.3918,-272.069 1828.079,-265.5002 1830.4811,-275.8192 1836.3918,-272.069"/>
</g>
<!-- Node5 -->
<g id="node6" class="node">
<title>Node5</title>
<g id="a_node6"><a xlink:href="api_2branch__point_8h.html" target="_top" xlink:title="maliput/api/branch\l_point.h">
<polygon fill="#ffffff" stroke="#000000" points="1659.5424,-436.5 1659.5424,-466.5 1767.5424,-466.5 1767.5424,-436.5 1659.5424,-436.5"/>
<text text-anchor="start" x="1667.5424" y="-454.5" font-family="Helvetica,sans-Serif" font-size="10.00" fill="#000000">maliput/api/branch</text>
<text text-anchor="middle" x="1713.5424" y="-443.5" font-family="Helvetica,sans-Serif" font-size="10.00" fill="#000000">_point.h</text>
</a>
</g>
</g>
<!-- Node0&#45;&gt;Node5 -->
<g id="edge5" class="edge">
<title>Node0&#45;&gt;Node5</title>
<path fill="none" stroke="#191970" d="M1494.4261,-615.421C1540.5801,-601.5748 1621.0349,-572.0979 1673.5424,-523 1687.434,-510.0104 1697.7265,-491.0843 1704.3898,-475.9668"/>
<polygon fill="#191970" stroke="#191970" points="1707.6422,-477.2606 1708.2458,-466.683 1701.1777,-474.5755 1707.6422,-477.2606"/>
</g>
<!-- Node10 -->
<g id="node11" class="node">
<title>Node10</title>
<g id="a_node11"><a xlink:href="maliput__copyable_8h.html" target="_top" xlink:title="Code in this file is inspired by: https://github.com/RobotLocomotion/drake/blob/master/common/drake_c...">
<polygon fill="#ffffff" stroke="#000000" points="413.5424,-179.5 413.5424,-209.5 553.5424,-209.5 553.5424,-179.5 413.5424,-179.5"/>
<text text-anchor="start" x="421.5424" y="-197.5" font-family="Helvetica,sans-Serif" font-size="10.00" fill="#000000">maliput/common/maliput</text>
<text text-anchor="middle" x="483.5424" y="-186.5" font-family="Helvetica,sans-Serif" font-size="10.00" fill="#000000">_copyable.h</text>
</a>
</g>
</g>
<!-- Node0&#45;&gt;Node10 -->
<g id="edge97" class="edge">
<title>Node0&#45;&gt;Node10</title>
<path fill="none" stroke="#191970" d="M1413.9929,-624.0434C1208.5993,-619.5283 360.7542,-599.7015 308.5424,-579 237.9607,-551.015 211.0499,-536.0812 179.5424,-467 155.668,-414.6546 193.0223,-354.2492 230.5424,-302 270.6064,-246.2083 345.5883,-219.1714 403.5632,-206.1914"/>
<polygon fill="#191970" stroke="#191970" points="404.398,-209.5921 413.4442,-204.0769 402.9331,-202.747 404.398,-209.5921"/>
</g>
<!-- Node27 -->
<g id="node28" class="node">
<title>Node27</title>
<g id="a_node28"><a xlink:href="api_2lane_8h.html" target="_top" xlink:title="maliput/api/lane.h">
<polygon fill="#ffffff" stroke="#000000" points="895.0424,-442 895.0424,-461 1000.0424,-461 1000.0424,-442 895.0424,-442"/>
<text text-anchor="middle" x="947.5424" y="-449" font-family="Helvetica,sans-Serif" font-size="10.00" fill="#000000">maliput/api/lane.h</text>
</a>
</g>
</g>
<!-- Node0&#45;&gt;Node27 -->
<g id="edge61" class="edge">
<title>Node0&#45;&gt;Node27</title>
<path fill="none" stroke="#191970" d="M1413.9376,-622.5361C1348.74,-618.1249 1224.0304,-606.6082 1121.5424,-579 1058.4243,-561.9973 1033.9709,-566.9052 985.5424,-523 969.9726,-508.8845 959.6284,-486.8712 953.7164,-470.9985"/>
<polygon fill="#191970" stroke="#191970" points="956.8929,-469.4741 950.3218,-461.1632 950.276,-471.758 956.8929,-469.4741"/>
</g>
<!-- Node28 -->
<g id="node29" class="node">
<title>Node28</title>
<g id="a_node29"><a xlink:href="api_2road__geometry_8h.html" target="_top" xlink:title="maliput/api/road_geometry.h">
<polygon fill="#ffffff" stroke="#000000" points="1130.5424,-559.5 1130.5424,-578.5 1288.5424,-578.5 1288.5424,-559.5 1130.5424,-559.5"/>
<text text-anchor="middle" x="1209.5424" y="-566.5" font-family="Helvetica,sans-Serif" font-size="10.00" fill="#000000">maliput/api/road_geometry.h</text>
</a>
</g>
</g>
<!-- Node0&#45;&gt;Node28 -->
<g id="edge69" class="edge">
<title>Node0&#45;&gt;Node28</title>
<path fill="none" stroke="#191970" d="M1416.0207,-615.4369C1373.4063,-605.8529 1307.7248,-591.0812 1261.9214,-580.78"/>
<polygon fill="#191970" stroke="#191970" points="1262.413,-577.3032 1251.8887,-578.5237 1260.877,-584.1326 1262.413,-577.3032"/>
</g>
<!-- Node34 -->
<g id="node35" class="node">
<title>Node34</title>
<g id="a_node35"><a xlink:href="passkey_8h.html" target="_top" xlink:title="maliput/common/passkey.h">
<polygon fill="#ffffff" stroke="#000000" points="1899.5424,-559.5 1899.5424,-578.5 2051.5424,-578.5 2051.5424,-559.5 1899.5424,-559.5"/>
<text text-anchor="middle" x="1975.5424" y="-566.5" font-family="Helvetica,sans-Serif" font-size="10.00" fill="#000000">maliput/common/passkey.h</text>
</a>
</g>
</g>
<!-- Node0&#45;&gt;Node34 -->
<g id="edge98" class="edge">
<title>Node0&#45;&gt;Node34</title>
<path fill="none" stroke="#191970" d="M1503.1155,-620.2478C1580.7938,-611.9549 1746.0143,-594.2671 1885.5424,-579 1886.817,-578.8605 1888.1018,-578.7198 1889.3948,-578.578"/>
<polygon fill="#191970" stroke="#191970" points="1889.8782,-582.0461 1899.4359,-577.4744 1889.1133,-575.088 1889.8782,-582.0461"/>
</g>
<!-- Node35 -->
<g id="node36" class="node">
<title>Node35</title>
<g id="a_node36"><a xlink:href="lane__end__set_8h.html" target="_top" xlink:title="maliput/geometry_base\l/lane_end_set.h">
<polygon fill="#ffffff" stroke="#000000" points="189.0424,-436.5 189.0424,-466.5 322.0424,-466.5 322.0424,-436.5 189.0424,-436.5"/>
<text text-anchor="start" x="197.0424" y="-454.5" font-family="Helvetica,sans-Serif" font-size="10.00" fill="#000000">maliput/geometry_base</text>
<text text-anchor="middle" x="255.5424" y="-443.5" font-family="Helvetica,sans-Serif" font-size="10.00" fill="#000000">/lane_end_set.h</text>
</a>
</g>
</g>
<!-- Node0&#45;&gt;Node35 -->
<g id="edge99" class="edge">
<title>Node0&#45;&gt;Node35</title>
<path fill="none" stroke="#191970" d="M1413.9128,-624.323C1211.0774,-621.0998 383.9411,-606.3216 336.5424,-579 297.5202,-556.5068 274.3994,-506.8066 263.4076,-476.5299"/>
<polygon fill="#191970" stroke="#191970" points="266.589,-475.0192 260.0193,-466.7071 259.9716,-477.3019 266.589,-475.0192"/>
</g>
<!-- Node5&#45;&gt;Node2 -->
<g id="edge6" class="edge">
<title>Node5&#45;&gt;Node2</title>
<path fill="none" stroke="#191970" d="M1719.2153,-436.2967C1722.8457,-426.5672 1727.5844,-413.8675 1731.4609,-403.4784"/>
<polygon fill="#191970" stroke="#191970" points="1734.7603,-404.6476 1734.9771,-394.055 1728.202,-402.2004 1734.7603,-404.6476"/>
</g>
<!-- Node5&#45;&gt;Node3 -->
<g id="edge7" class="edge">
<title>Node5&#45;&gt;Node3</title>
<path fill="none" stroke="#191970" d="M1737.146,-436.3325C1750.1023,-427.0745 1765.6919,-414.2882 1776.5424,-400 1805.3081,-362.1205 1788.6153,-338.1364 1819.5424,-302 1830.8564,-288.7803 1846.9194,-278.0172 1861.0036,-270.2351"/>
<polygon fill="#191970" stroke="#191970" points="1862.6811,-273.3075 1869.9034,-265.5558 1859.4234,-267.1117 1862.6811,-273.3075"/>
</g>
<!-- Node6 -->
<g id="node7" class="node">
<title>Node6</title>
<polygon fill="#ffffff" stroke="#bfbfbf" points="1671.5424,-.5 1671.5424,-19.5 1715.5424,-19.5 1715.5424,-.5 1671.5424,-.5"/>
<text text-anchor="middle" x="1693.5424" y="-7.5" font-family="Helvetica,sans-Serif" font-size="10.00" fill="#000000">string</text>
</g>
<!-- Node5&#45;&gt;Node6 -->
<g id="edge8" class="edge">
<title>Node5&#45;&gt;Node6</title>
<path fill="none" stroke="#191970" d="M1767.8149,-444.5596C1836.9408,-432.3319 1947.5424,-399.8936 1947.5424,-317.5 1947.5424,-317.5 1947.5424,-317.5 1947.5424,-133 1947.5424,-84.1831 1793.642,-36.8378 1725.4334,-18.2516"/>
<polygon fill="#191970" stroke="#191970" points="1726.2046,-14.8348 1715.6389,-15.6203 1724.3884,-21.5951 1726.2046,-14.8348"/>
</g>
<!-- Node7 -->
<g id="node8" class="node">
<title>Node7</title>
<g id="a_node8"><a xlink:href="lane__data_8h.html" target="_top" xlink:title="maliput/api/lane_data.h">
<polygon fill="#ffffff" stroke="#000000" points="881.5424,-375 881.5424,-394 1013.5424,-394 1013.5424,-375 881.5424,-375"/>
<text text-anchor="middle" x="947.5424" y="-382" font-family="Helvetica,sans-Serif" font-size="10.00" fill="#000000">maliput/api/lane_data.h</text>
</a>
</g>
</g>
<!-- Node5&#45;&gt;Node7 -->
<g id="edge9" class="edge">
<title>Node5&#45;&gt;Node7</title>
<path fill="none" stroke="#191970" d="M1659.3736,-446.762C1525.4703,-435.0498 1178.5695,-404.7073 1023.9094,-391.1796"/>
<polygon fill="#191970" stroke="#191970" points="1023.8249,-387.6589 1013.5579,-390.2742 1023.2149,-394.6323 1023.8249,-387.6589"/>
</g>
<!-- Node5&#45;&gt;Node10 -->
<g id="edge60" class="edge">
<title>Node5&#45;&gt;Node10</title>
<path fill="none" stroke="#191970" d="M1659.3313,-448.5905C1479.3958,-438.8798 911.1285,-407.7597 872.5424,-400 722.9865,-369.9243 679.3379,-356.5139 556.5424,-266 537.1441,-251.7013 517.7776,-232.4447 503.8713,-217.518"/>
<polygon fill="#191970" stroke="#191970" points="506.0757,-214.7427 496.7417,-209.7299 500.9125,-219.4693 506.0757,-214.7427"/>
</g>
<!-- Node22 -->
<g id="node23" class="node">
<title>Node22</title>
<g id="a_node23"><a xlink:href="type__specific__identifier_8h.html" target="_top" xlink:title="maliput/api/type_specific\l_identifier.h">
<polygon fill="#ffffff" stroke="#000000" points="1160.5424,-369.5 1160.5424,-399.5 1300.5424,-399.5 1300.5424,-369.5 1160.5424,-369.5"/>
<text text-anchor="start" x="1168.5424" y="-387.5" font-family="Helvetica,sans-Serif" font-size="10.00" fill="#000000">maliput/api/type_specific</text>
<text text-anchor="middle" x="1230.5424" y="-376.5" font-family="Helvetica,sans-Serif" font-size="10.00" fill="#000000">_identifier.h</text>
</a>
</g>
</g>
<!-- Node5&#45;&gt;Node22 -->
<g id="edge41" class="edge">
<title>Node5&#45;&gt;Node22</title>
<path fill="none" stroke="#191970" d="M1659.5421,-444.0093C1574.6976,-432.24 1409.678,-409.349 1310.8743,-395.6433"/>
<polygon fill="#191970" stroke="#191970" points="1311.3208,-392.1719 1300.9347,-394.2646 1310.3589,-399.1055 1311.3208,-392.1719"/>
</g>
<!-- Node7&#45;&gt;Node6 -->
<g id="edge12" class="edge">
<title>Node7&#45;&gt;Node6</title>
<path fill="none" stroke="#191970" d="M1013.6136,-378.6366C1142.2998,-367.061 1415.6791,-341.6456 1434.5424,-333 1452.8356,-324.6157 1449.9727,-311.8105 1467.5424,-302 1521.0101,-272.145 1545.6667,-293.1805 1600.5424,-266 1647.2625,-242.859 1693.5424,-246.637 1693.5424,-194.5 1693.5424,-194.5 1693.5424,-194.5 1693.5424,-133 1693.5424,-96.4994 1693.5424,-53.906 1693.5424,-29.6285"/>
<polygon fill="#191970" stroke="#191970" points="1697.0425,-29.5691 1693.5424,-19.5691 1690.0425,-29.5692 1697.0425,-29.5691"/>
</g>
<!-- Node8 -->
<g id="node9" class="node">
<title>Node8</title>
<polygon fill="#ffffff" stroke="#bfbfbf" points="1171.0424,-246.5 1171.0424,-265.5 1236.0424,-265.5 1236.0424,-246.5 1171.0424,-246.5"/>
<text text-anchor="middle" x="1203.5424" y="-253.5" font-family="Helvetica,sans-Serif" font-size="10.00" fill="#000000">functional</text>
</g>
<!-- Node7&#45;&gt;Node8 -->
<g id="edge10" class="edge">
<title>Node7&#45;&gt;Node8</title>
<path fill="none" stroke="#191970" d="M966.784,-374.8416C1011.5562,-352.3681 1122.8846,-296.4864 1175.3455,-270.1535"/>
<polygon fill="#191970" stroke="#191970" points="1177.0596,-273.2094 1184.4267,-265.5952 1173.9193,-266.9533 1177.0596,-273.2094"/>
</g>
<!-- Node9 -->
<g id="node10" class="node">
<title>Node9</title>
<polygon fill="#ffffff" stroke="#bfbfbf" points="914.0424,-185 914.0424,-204 971.0424,-204 971.0424,-185 914.0424,-185"/>
<text text-anchor="middle" x="942.5424" y="-192" font-family="Helvetica,sans-Serif" font-size="10.00" fill="#000000">ostream</text>
</g>
<!-- Node7&#45;&gt;Node9 -->
<g id="edge11" class="edge">
<title>Node7&#45;&gt;Node9</title>
<path fill="none" stroke="#191970" d="M905.5603,-374.9139C868.0904,-365.4071 817.3596,-349.8562 805.5424,-333 769.3371,-281.3564 858.575,-231.4595 909.7113,-208.1681"/>
<polygon fill="#191970" stroke="#191970" points="911.364,-211.2637 919.0797,-204.003 908.5202,-204.8674 911.364,-211.2637"/>
</g>
<!-- Node7&#45;&gt;Node10 -->
<g id="edge13" class="edge">
<title>Node7&#45;&gt;Node10</title>
<path fill="none" stroke="#191970" d="M910.1429,-374.9809C844.8706,-357.6858 706.7037,-318.0298 597.5424,-266 567.3814,-251.6243 535.3407,-230.9959 512.9337,-215.5876"/>
<polygon fill="#191970" stroke="#191970" points="514.7547,-212.5909 504.5467,-209.7543 510.7578,-218.3376 514.7547,-212.5909"/>
</g>
<!-- Node11 -->
<g id="node12" class="node">
<title>Node11</title>
<g id="a_node12"><a xlink:href="maliput__throw_8h.html" target="_top" xlink:title="Code in this file is inspired by: https://github.com/RobotLocomotion/drake/blob/master/common/drake_t...">
<polygon fill="#ffffff" stroke="#000000" points="452.5424,-56.5 452.5424,-86.5 592.5424,-86.5 592.5424,-56.5 452.5424,-56.5"/>
<text text-anchor="start" x="460.5424" y="-74.5" font-family="Helvetica,sans-Serif" font-size="10.00" fill="#000000">maliput/common/maliput</text>
<text text-anchor="middle" x="522.5424" y="-63.5" font-family="Helvetica,sans-Serif" font-size="10.00" fill="#000000">_throw.h</text>
</a>
</g>
</g>
<!-- Node7&#45;&gt;Node11 -->
<g id="edge14" class="edge">
<title>Node7&#45;&gt;Node11</title>
<path fill="none" stroke="#191970" d="M881.4906,-376.0562C826.8135,-368.0503 747.5265,-354.0799 680.5424,-333 552.4396,-292.686 477.6656,-322.6435 404.5424,-210 374.9346,-164.3903 438.499,-117.4954 483.3204,-91.6662"/>
<polygon fill="#191970" stroke="#191970" points="485.2748,-94.583 492.2807,-86.6351 481.8476,-88.4793 485.2748,-94.583"/>
</g>
<!-- Node12 -->
<g id="node13" class="node">
<title>Node12</title>
<g id="a_node13"><a xlink:href="matrix_8h.html" target="_top" xlink:title="maliput/math/matrix.h">
<polygon fill="#ffffff" stroke="#000000" points="1133.0424,-185 1133.0424,-204 1260.0424,-204 1260.0424,-185 1133.0424,-185"/>
<text text-anchor="middle" x="1196.5424" y="-192" font-family="Helvetica,sans-Serif" font-size="10.00" fill="#000000">maliput/math/matrix.h</text>
</a>
</g>
</g>
<!-- Node7&#45;&gt;Node12 -->
<g id="edge16" class="edge">
<title>Node7&#45;&gt;Node12</title>
<path fill="none" stroke="#191970" d="M959.0215,-374.9111C977.7506,-359.3353 1016.1468,-327.6923 1049.5424,-302 1093.3723,-268.2803 1145.9302,-230.456 1174.8299,-209.8763"/>
<polygon fill="#191970" stroke="#191970" points="1176.8802,-212.713 1183.0033,-204.0668 1172.8248,-207.0074 1176.8802,-212.713"/>
</g>
<!-- Node18 -->
<g id="node19" class="node">
<title>Node18</title>
<g id="a_node19"><a xlink:href="vector_8h.html" target="_top" xlink:title="maliput/math/vector.h">
<polygon fill="#ffffff" stroke="#000000" points="1005.0424,-123.5 1005.0424,-142.5 1130.0424,-142.5 1130.0424,-123.5 1005.0424,-123.5"/>
<text text-anchor="middle" x="1067.5424" y="-130.5" font-family="Helvetica,sans-Serif" font-size="10.00" fill="#000000">maliput/math/vector.h</text>
</a>
</g>
</g>
<!-- Node7&#45;&gt;Node18 -->
<g id="edge40" class="edge">
<title>Node7&#45;&gt;Node18</title>
<path fill="none" stroke="#191970" d="M905.5603,-374.9139C868.0904,-365.4071 817.3596,-349.8562 805.5424,-333 797.6333,-321.7184 801.7781,-315.2536 805.5424,-302 823.0993,-240.1846 829.6141,-216.8528 881.5424,-179 900.2855,-165.3373 953.8021,-152.9098 998.6454,-144.426"/>
<polygon fill="#191970" stroke="#191970" points="999.4584,-147.835 1008.6523,-142.5699 998.1817,-140.9524 999.4584,-147.835"/>
</g>
<!-- Node19 -->
<g id="node20" class="node">
<title>Node19</title>
<g id="a_node20"><a xlink:href="quaternion_8h.html" target="_top" xlink:title="Code in this file is inspired by: https://gitlab.com/libeigen/eigen/&#45;/blob/master/Eigen/src/Geometry/...">
<polygon fill="#ffffff" stroke="#000000" points="891.0424,-246.5 891.0424,-265.5 1038.0424,-265.5 1038.0424,-246.5 891.0424,-246.5"/>
<text text-anchor="middle" x="964.5424" y="-253.5" font-family="Helvetica,sans-Serif" font-size="10.00" fill="#000000">maliput/math/quaternion.h</text>
</a>
</g>
</g>
<!-- Node7&#45;&gt;Node19 -->
<g id="edge29" class="edge">
<title>Node7&#45;&gt;Node19</title>
<path fill="none" stroke="#191970" d="M948.9018,-374.6294C950.3251,-364.2645 952.6167,-347.4902 954.5424,-333 957.1146,-313.6448 959.9774,-291.5421 961.9785,-275.9971"/>
<polygon fill="#191970" stroke="#191970" points="965.4638,-276.3345 963.2668,-265.97 958.5209,-275.4424 965.4638,-276.3345"/>
</g>
<!-- Node21 -->
<g id="node22" class="node">
<title>Node21</title>
<g id="a_node22"><a xlink:href="roll__pitch__yaw_8h.html" target="_top" xlink:title="Code in this file is inspired by: https://github.com/RobotLocomotion/drake/blob/master/math/roll_pitc...">
<polygon fill="#ffffff" stroke="#000000" points="815.0424,-302.5 815.0424,-332.5 946.0424,-332.5 946.0424,-302.5 815.0424,-302.5"/>
<text text-anchor="start" x="823.0424" y="-320.5" font-family="Helvetica,sans-Serif" font-size="10.00" fill="#000000">maliput/math/roll_pitch</text>
<text text-anchor="middle" x="880.5424" y="-309.5" font-family="Helvetica,sans-Serif" font-size="10.00" fill="#000000">_yaw.h</text>
</a>
</g>
</g>
<!-- Node7&#45;&gt;Node21 -->
<g id="edge35" class="edge">
<title>Node7&#45;&gt;Node21</title>
<path fill="none" stroke="#191970" d="M937.9429,-374.9005C928.7737,-365.7313 914.62,-351.5776 902.6619,-339.6195"/>
<polygon fill="#191970" stroke="#191970" points="905.1101,-337.118 895.5642,-332.5218 900.1604,-342.0677 905.1101,-337.118"/>
</g>
<!-- Node11&#45;&gt;Node6 -->
<g id="edge15" class="edge">
<title>Node11&#45;&gt;Node6</title>
<path fill="none" stroke="#191970" d="M592.7212,-67.8143C815.8228,-56.0971 1503.3786,-19.9873 1661.0771,-11.7051"/>
<polygon fill="#191970" stroke="#191970" points="1661.6994,-15.1773 1671.502,-11.1575 1661.3322,-8.1869 1661.6994,-15.1773"/>
</g>
<!-- Node13 -->
<g id="node14" class="node">
<title>Node13</title>
<polygon fill="#ffffff" stroke="#bfbfbf" points="1035.5424,-62 1035.5424,-81 1099.5424,-81 1099.5424,-62 1035.5424,-62"/>
<text text-anchor="middle" x="1067.5424" y="-69" font-family="Helvetica,sans-Serif" font-size="10.00" fill="#000000">algorithm</text>
</g>
<!-- Node12&#45;&gt;Node13 -->
<g id="edge17" class="edge">
<title>Node12&#45;&gt;Node13</title>
<path fill="none" stroke="#191970" d="M1189.7644,-184.5686C1179.6176,-170.0974 1159.4281,-142.7875 1138.5424,-123 1124.0786,-109.2967 1105.8525,-96.1477 1091.4883,-86.5661"/>
<polygon fill="#191970" stroke="#191970" points="1093.3968,-83.6322 1083.1119,-81.0882 1089.5655,-89.4907 1093.3968,-83.6322"/>
</g>
<!-- Node14 -->
<g id="node15" class="node">
<title>Node14</title>
<polygon fill="#ffffff" stroke="#bfbfbf" points="1117.5424,-62 1117.5424,-81 1159.5424,-81 1159.5424,-62 1117.5424,-62"/>
<text text-anchor="middle" x="1138.5424" y="-69" font-family="Helvetica,sans-Serif" font-size="10.00" fill="#000000">array</text>
</g>
<!-- Node12&#45;&gt;Node14 -->
<g id="edge18" class="edge">
<title>Node12&#45;&gt;Node14</title>
<path fill="none" stroke="#191970" d="M1194.1838,-184.938C1190.5408,-170.9269 1182.872,-144.1847 1172.5424,-123 1166.849,-111.3237 1158.9217,-99.1551 1152.1536,-89.5798"/>
<polygon fill="#191970" stroke="#191970" points="1154.8418,-87.3253 1146.1307,-81.2947 1149.1798,-91.4413 1154.8418,-87.3253"/>
</g>
<!-- Node15 -->
<g id="node16" class="node">
<title>Node15</title>
<polygon fill="#ffffff" stroke="#bfbfbf" points="1377.0424,-62 1377.0424,-81 1430.0424,-81 1430.0424,-62 1377.0424,-62"/>
<text text-anchor="middle" x="1403.5424" y="-69" font-family="Helvetica,sans-Serif" font-size="10.00" fill="#000000">cstddef</text>
</g>
<!-- Node12&#45;&gt;Node15 -->
<g id="edge19" class="edge">
<title>Node12&#45;&gt;Node15</title>
<path fill="none" stroke="#191970" d="M1212.7853,-184.8484C1248.8357,-163.4272 1335.7301,-111.7943 1378.6701,-86.2792"/>
<polygon fill="#191970" stroke="#191970" points="1380.566,-89.224 1387.3749,-81.1068 1376.9901,-83.2062 1380.566,-89.224"/>
</g>
<!-- Node16 -->
<g id="node17" class="node">
<title>Node16</title>
<polygon fill="#ffffff" stroke="#bfbfbf" points="1178.0424,-62 1178.0424,-81 1261.0424,-81 1261.0424,-62 1178.0424,-62"/>
<text text-anchor="middle" x="1219.5424" y="-69" font-family="Helvetica,sans-Serif" font-size="10.00" fill="#000000">initializer_list</text>
</g>
<!-- Node12&#45;&gt;Node16 -->
<g id="edge20" class="edge">
<title>Node12&#45;&gt;Node16</title>
<path fill="none" stroke="#191970" d="M1199.6406,-184.7243C1202.7967,-174.4367 1207.6292,-157.7246 1210.5424,-143 1213.9529,-125.7618 1216.3302,-105.9166 1217.7814,-91.5139"/>
<polygon fill="#191970" stroke="#191970" points="1221.2917,-91.569 1218.7487,-81.2839 1214.3228,-90.9099 1221.2917,-91.569"/>
</g>
<!-- Node17 -->
<g id="node18" class="node">
<title>Node17</title>
<polygon fill="#ffffff" stroke="#bfbfbf" points="1279.5424,-62 1279.5424,-81 1339.5424,-81 1339.5424,-62 1279.5424,-62"/>
<text text-anchor="middle" x="1309.5424" y="-69" font-family="Helvetica,sans-Serif" font-size="10.00" fill="#000000">iostream</text>
</g>
<!-- Node12&#45;&gt;Node17 -->
<g id="edge21" class="edge">
<title>Node12&#45;&gt;Node17</title>
<path fill="none" stroke="#191970" d="M1205.4093,-184.8484C1224.4701,-164.1008 1269.5682,-115.0117 1293.6838,-88.762"/>
<polygon fill="#191970" stroke="#191970" points="1296.5287,-90.8388 1300.7167,-81.1068 1291.3738,-86.103 1296.5287,-90.8388"/>
</g>
<!-- Node12&#45;&gt;Node18 -->
<g id="edge22" class="edge">
<title>Node12&#45;&gt;Node18</title>
<path fill="none" stroke="#191970" d="M1176.3861,-184.8906C1154.9914,-174.6908 1120.9804,-158.4763 1096.6722,-146.8875"/>
<polygon fill="#191970" stroke="#191970" points="1098.09,-143.686 1087.5571,-142.5419 1095.0776,-150.0047 1098.09,-143.686"/>
</g>
<!-- Node18&#45;&gt;Node11 -->
<g id="edge28" class="edge">
<title>Node18&#45;&gt;Node11</title>
<path fill="none" stroke="#191970" d="M1004.9402,-124.7659C1000.0698,-124.1571 995.2269,-123.5619 990.5424,-123 854.6243,-106.6973 696.2522,-89.6847 602.9721,-79.8679"/>
<polygon fill="#191970" stroke="#191970" points="603.0717,-76.3591 592.7606,-78.7946 602.34,-83.3208 603.0717,-76.3591"/>
</g>
<!-- Node18&#45;&gt;Node13 -->
<g id="edge23" class="edge">
<title>Node18&#45;&gt;Node13</title>
<path fill="none" stroke="#191970" d="M1067.5424,-123.3906C1067.5424,-114.8657 1067.5424,-102.1392 1067.5424,-91.4235"/>
<polygon fill="#191970" stroke="#191970" points="1071.0425,-91.2448 1067.5424,-81.2449 1064.0425,-91.2449 1071.0425,-91.2448"/>
</g>
<!-- Node18&#45;&gt;Node14 -->
<g id="edge24" class="edge">
<title>Node18&#45;&gt;Node14</title>
<path fill="none" stroke="#191970" d="M1078.6361,-123.3906C1089.5139,-113.9683 1106.3172,-99.4134 1119.3624,-88.1137"/>
<polygon fill="#191970" stroke="#191970" points="1122.0251,-90.4377 1127.2922,-81.2449 1117.442,-85.1466 1122.0251,-90.4377"/>
</g>
<!-- Node18&#45;&gt;Node15 -->
<g id="edge25" class="edge">
<title>Node18&#45;&gt;Node15</title>
<path fill="none" stroke="#191970" d="M1130.1493,-124.8087C1187.3509,-116.8383 1274.103,-103.5272 1348.5424,-87 1354.4985,-85.6776 1360.7671,-84.0961 1366.8542,-82.4562"/>
<polygon fill="#191970" stroke="#191970" points="1368.1448,-85.7301 1376.84,-79.6767 1366.2677,-78.9864 1368.1448,-85.7301"/>
</g>
<!-- Node18&#45;&gt;Node16 -->
<g id="edge26" class="edge">
<title>Node18&#45;&gt;Node16</title>
<path fill="none" stroke="#191970" d="M1091.2924,-123.3906C1116.8363,-113.0554 1157.6432,-96.5447 1186.3534,-84.9284"/>
<polygon fill="#191970" stroke="#191970" points="1188.0019,-88.0371 1195.9592,-81.0419 1185.3764,-81.5481 1188.0019,-88.0371"/>
</g>
<!-- Node18&#45;&gt;Node17 -->
<g id="edge27" class="edge">
<title>Node18&#45;&gt;Node17</title>
<path fill="none" stroke="#191970" d="M1118.7211,-123.4932C1159.8823,-115.3349 1218.9821,-102.4627 1269.5424,-87 1271.9728,-86.2567 1274.466,-85.4362 1276.962,-84.5722"/>
<polygon fill="#191970" stroke="#191970" points="1278.2851,-87.8152 1286.4767,-81.096 1275.8829,-81.2402 1278.2851,-87.8152"/>
</g>
<!-- Node19&#45;&gt;Node9 -->
<g id="edge31" class="edge">
<title>Node19&#45;&gt;Node9</title>
<path fill="none" stroke="#191970" d="M961.1049,-246.3906C957.9911,-237.6862 953.3104,-224.6015 949.4284,-213.7494"/>
<polygon fill="#191970" stroke="#191970" points="952.6921,-212.4817 946.0284,-204.2449 946.1011,-214.8394 952.6921,-212.4817"/>
</g>
<!-- Node19&#45;&gt;Node10 -->
<g id="edge32" class="edge">
<title>Node19&#45;&gt;Node10</title>
<path fill="none" stroke="#191970" d="M890.9653,-246.5925C802.5648,-235.2898 654.7921,-216.3957 563.6017,-204.7363"/>
<polygon fill="#191970" stroke="#191970" points="563.9541,-201.2529 553.591,-203.4563 563.0663,-208.1964 563.9541,-201.2529"/>
</g>
<!-- Node19&#45;&gt;Node12 -->
<g id="edge33" class="edge">
<title>Node19&#45;&gt;Node12</title>
<path fill="none" stroke="#191970" d="M1000.5378,-246.4581C1040.9201,-235.7533 1106.5235,-218.3628 1150.5812,-206.6837"/>
<polygon fill="#191970" stroke="#191970" points="1151.6932,-210.0099 1160.4625,-204.0643 1149.8995,-203.2436 1151.6932,-210.0099"/>
</g>
<!-- Node19&#45;&gt;Node18 -->
<g id="edge34" class="edge">
<title>Node19&#45;&gt;Node18</title>
<path fill="none" stroke="#191970" d="M972.6246,-246.3484C989.9234,-225.6906 1030.7503,-176.9362 1052.8007,-150.6042"/>
<polygon fill="#191970" stroke="#191970" points="1055.7609,-152.5207 1059.4977,-142.6068 1050.394,-148.0266 1055.7609,-152.5207"/>
</g>
<!-- Node20 -->
<g id="node21" class="node">
<title>Node20</title>
<polygon fill="#ffffff" stroke="#bfbfbf" points="1556.0424,-185 1556.0424,-204 1603.0424,-204 1603.0424,-185 1556.0424,-185"/>
<text text-anchor="middle" x="1579.5424" y="-192" font-family="Helvetica,sans-Serif" font-size="10.00" fill="#000000">cmath</text>
</g>
<!-- Node19&#45;&gt;Node20 -->
<g id="edge30" class="edge">
<title>Node19&#45;&gt;Node20</title>
<path fill="none" stroke="#191970" d="M1038.1149,-248.6427C1171.7945,-235.2748 1449.62,-207.4922 1545.8587,-197.8684"/>
<polygon fill="#191970" stroke="#191970" points="1546.2971,-201.3421 1555.8992,-196.8643 1545.6005,-194.3768 1546.2971,-201.3421"/>
</g>
<!-- Node21&#45;&gt;Node10 -->
<g id="edge36" class="edge">
<title>Node21&#45;&gt;Node10</title>
<path fill="none" stroke="#191970" d="M852.5499,-302.3919C821.8984,-286.3954 770.9196,-261.3763 724.5424,-246 672.0312,-228.5899 611.083,-215.6287 563.6171,-207.0638"/>
<polygon fill="#191970" stroke="#191970" points="564.1588,-203.6053 553.7009,-205.3028 562.9348,-210.4975 564.1588,-203.6053"/>
</g>
<!-- Node21&#45;&gt;Node12 -->
<g id="edge37" class="edge">
<title>Node21&#45;&gt;Node12</title>
<path fill="none" stroke="#191970" d="M936.1842,-302.4106C968.7479,-293.0437 1010.4317,-280.1231 1046.5424,-266 1090.6653,-248.7432 1139.9079,-224.2025 1169.5434,-208.825"/>
<polygon fill="#191970" stroke="#191970" points="1171.2019,-211.9075 1178.445,-204.1752 1167.9609,-205.7029 1171.2019,-211.9075"/>
</g>
<!-- Node21&#45;&gt;Node18 -->
<g id="edge39" class="edge">
<title>Node21&#45;&gt;Node18</title>
<path fill="none" stroke="#191970" d="M877.9707,-302.3451C874.0602,-273.6494 870.3253,-211.3648 904.5424,-179 919.2136,-165.1229 965.068,-152.8944 1004.4185,-144.5404"/>
<polygon fill="#191970" stroke="#191970" points="1005.1779,-147.9575 1014.2598,-142.5014 1003.7577,-141.1031 1005.1779,-147.9575"/>
</g>
<!-- Node21&#45;&gt;Node19 -->
<g id="edge38" class="edge">
<title>Node21&#45;&gt;Node19</title>
<path fill="none" stroke="#191970" d="M901.3064,-302.2977C913.9382,-293.0495 930.0477,-281.2551 942.8455,-271.8853"/>
<polygon fill="#191970" stroke="#191970" points="945.0919,-274.5784 951.0929,-265.8469 940.9567,-268.9303 945.0919,-274.5784"/>
</g>
<!-- Node22&#45;&gt;Node6 -->
<g id="edge43" class="edge">
<title>Node22&#45;&gt;Node6</title>
<path fill="none" stroke="#191970" d="M1300.7191,-376.0096C1348.97,-368.5622 1413.7843,-355.3308 1467.5424,-333 1490.9951,-323.2579 1491.9527,-311.4055 1515.5424,-302 1596.1889,-269.8454 1642.0503,-322.9962 1707.5424,-266 1732.828,-243.9945 1731.5424,-228.0202 1731.5424,-194.5 1731.5424,-194.5 1731.5424,-194.5 1731.5424,-133 1731.5424,-94.6461 1714.4672,-52.4423 1703.209,-28.7843"/>
<polygon fill="#191970" stroke="#191970" points="1706.2285,-26.9938 1698.6672,-19.5723 1699.9501,-30.0892 1706.2285,-26.9938"/>
</g>
<!-- Node22&#45;&gt;Node8 -->
<g id="edge42" class="edge">
<title>Node22&#45;&gt;Node8</title>
<path fill="none" stroke="#191970" d="M1227.3391,-369.2548C1222.4475,-345.9744 1213.1154,-301.5607 1207.7052,-275.8117"/>
<polygon fill="#191970" stroke="#191970" points="1211.0696,-274.8024 1205.588,-265.7358 1204.2192,-276.2418 1211.0696,-274.8024"/>
</g>
<!-- Node22&#45;&gt;Node10 -->
<g id="edge45" class="edge">
<title>Node22&#45;&gt;Node10</title>
<path fill="none" stroke="#191970" d="M1160.4067,-378.5265C1028.1324,-367.0788 753.3209,-342.3571 734.5424,-333 687.2566,-309.438 698.3702,-273.9567 653.5424,-246 626.3891,-229.066 593.3166,-217.3985 563.585,-209.5103"/>
<polygon fill="#191970" stroke="#191970" points="564.1981,-206.0548 553.6436,-206.978 562.4702,-212.8382 564.1981,-206.0548"/>
</g>
<!-- Node22&#45;&gt;Node11 -->
<g id="edge59" class="edge">
<title>Node22&#45;&gt;Node11</title>
<path fill="none" stroke="#191970" d="M1160.2005,-379.0279C1047.3671,-369.7974 835.4931,-350.4311 805.5424,-333 768.7424,-311.5827 748.5424,-298.5786 748.5424,-256 748.5424,-256 748.5424,-256 748.5424,-194.5 748.5424,-126.0919 667.6704,-95.5125 602.6813,-81.983"/>
<polygon fill="#191970" stroke="#191970" points="603.3004,-78.5377 592.8114,-80.0314 601.9425,-85.4047 603.3004,-78.5377"/>
</g>
<!-- Node23 -->
<g id="node24" class="node">
<title>Node23</title>
<polygon fill="#ffffff" stroke="#bfbfbf" points="1254.0424,-246.5 1254.0424,-265.5 1299.0424,-265.5 1299.0424,-246.5 1254.0424,-246.5"/>
<text text-anchor="middle" x="1276.5424" y="-253.5" font-family="Helvetica,sans-Serif" font-size="10.00" fill="#000000">utility</text>
</g>
<!-- Node22&#45;&gt;Node23 -->
<g id="edge44" class="edge">
<title>Node22&#45;&gt;Node23</title>
<path fill="none" stroke="#191970" d="M1235.9998,-369.2548C1244.371,-345.87 1260.3755,-301.1619 1269.5738,-275.4665"/>
<polygon fill="#191970" stroke="#191970" points="1272.982,-276.3304 1273.0572,-265.7358 1266.3916,-273.9711 1272.982,-276.3304"/>
</g>
<!-- Node24 -->
<g id="node25" class="node">
<title>Node24</title>
<g id="a_node25"><a xlink:href="maliput__hash_8h.html" target="_top" xlink:title="Code in this file is inspired by: https://github.com/RobotLocomotion/drake/blob/master/common/hash.h. ">
<polygon fill="#ffffff" stroke="#000000" points="1285.5424,-302.5 1285.5424,-332.5 1425.5424,-332.5 1425.5424,-302.5 1285.5424,-302.5"/>
<text text-anchor="start" x="1293.5424" y="-320.5" font-family="Helvetica,sans-Serif" font-size="10.00" fill="#000000">maliput/common/maliput</text>
<text text-anchor="middle" x="1355.5424" y="-309.5" font-family="Helvetica,sans-Serif" font-size="10.00" fill="#000000">_hash.h</text>
</a>
</g>
</g>
<!-- Node22&#45;&gt;Node24 -->
<g id="edge46" class="edge">
<title>Node22&#45;&gt;Node24</title>
<path fill="none" stroke="#191970" d="M1258.5948,-369.4639C1276.1626,-360.0475 1299.0111,-347.8008 1318.1138,-337.5617"/>
<polygon fill="#191970" stroke="#191970" points="1319.9908,-340.5268 1327.1511,-332.7177 1316.6839,-334.3571 1319.9908,-340.5268"/>
</g>
<!-- Node24&#45;&gt;Node1 -->
<g id="edge51" class="edge">
<title>Node24&#45;&gt;Node1</title>
<path fill="none" stroke="#191970" d="M1285.2156,-311.5752C1129.579,-298.4634 761.3693,-267.443 654.869,-258.4707"/>
<polygon fill="#191970" stroke="#191970" points="655.1,-254.9778 644.8414,-257.6259 654.5123,-261.9531 655.1,-254.9778"/>
</g>
<!-- Node24&#45;&gt;Node3 -->
<g id="edge52" class="edge">
<title>Node24&#45;&gt;Node3</title>
<path fill="none" stroke="#191970" d="M1425.7157,-313.665C1522.5705,-307.5961 1702.3995,-293.5324 1853.5424,-266 1853.6431,-265.9817 1853.7439,-265.9632 1853.8448,-265.9446"/>
<polygon fill="#191970" stroke="#191970" points="1854.3713,-269.4108 1863.4292,-263.915 1852.9211,-262.5627 1854.3713,-269.4108"/>
</g>
<!-- Node24&#45;&gt;Node4 -->
<g id="edge57" class="edge">
<title>Node24&#45;&gt;Node4</title>
<path fill="none" stroke="#191970" d="M1425.5594,-308.2596C1527.2375,-294.8407 1711.8766,-270.4731 1787.6781,-260.4692"/>
<polygon fill="#191970" stroke="#191970" points="1788.1756,-263.934 1797.6317,-259.1556 1787.2597,-256.9942 1788.1756,-263.934"/>
</g>
<!-- Node24&#45;&gt;Node6 -->
<g id="edge54" class="edge">
<title>Node24&#45;&gt;Node6</title>
<path fill="none" stroke="#191970" d="M1425.7986,-303.9219C1485.7256,-291.8841 1564.1228,-274.8772 1576.5424,-266 1618.1981,-236.2257 1670.0579,-83.6495 1687.5015,-29.2756"/>
<polygon fill="#191970" stroke="#191970" points="1690.9124,-30.0985 1690.6022,-19.5082 1684.2405,-27.9805 1690.9124,-30.0985"/>
</g>
<!-- Node24&#45;&gt;Node8 -->
<g id="edge49" class="edge">
<title>Node24&#45;&gt;Node8</title>
<path fill="none" stroke="#191970" d="M1318.359,-302.4554C1293.3311,-292.329 1260.6261,-279.0964 1236.5258,-269.3453"/>
<polygon fill="#191970" stroke="#191970" points="1237.6797,-266.0366 1227.097,-265.5303 1235.0542,-272.5256 1237.6797,-266.0366"/>
</g>
<!-- Node24&#45;&gt;Node11 -->
<g id="edge58" class="edge">
<title>Node24&#45;&gt;Node11</title>
<path fill="none" stroke="#191970" d="M1349.581,-302.2945C1342.2604,-285.7201 1328.2149,-259.7336 1307.5424,-246 1238.1347,-199.8895 1204.9548,-227.7656 1123.5424,-210 962.2989,-174.8138 923.4596,-159.6493 762.5424,-123 709.4119,-110.8994 649.481,-98.0385 602.7982,-88.1957"/>
<polygon fill="#191970" stroke="#191970" points="603.2505,-84.7143 592.744,-86.0793 601.8086,-91.5642 603.2505,-84.7143"/>
</g>
<!-- Node24&#45;&gt;Node15 -->
<g id="edge48" class="edge">
<title>Node24&#45;&gt;Node15</title>
<path fill="none" stroke="#191970" d="M1425.8882,-304.3441C1465.6323,-295.3244 1509.6846,-282.0941 1521.5424,-266 1567.9815,-202.97 1471.7551,-120.935 1425.9561,-87.1172"/>
<polygon fill="#191970" stroke="#191970" points="1427.9333,-84.2277 1417.781,-81.1975 1423.8278,-89.8974 1427.9333,-84.2277"/>
</g>
<!-- Node24&#45;&gt;Node17 -->
<g id="edge50" class="edge">
<title>Node24&#45;&gt;Node17</title>
<path fill="none" stroke="#191970" d="M1352.7341,-302.4819C1344.7883,-259.9891 1322.1468,-138.906 1313.2226,-91.181"/>
<polygon fill="#191970" stroke="#191970" points="1316.6339,-90.3818 1311.3554,-81.1956 1309.7532,-91.6685 1316.6339,-90.3818"/>
</g>
<!-- Node24&#45;&gt;Node20 -->
<g id="edge47" class="edge">
<title>Node24&#45;&gt;Node20</title>
<path fill="none" stroke="#191970" d="M1425.7601,-302.8578C1479.3952,-291.1058 1545.7489,-275.1142 1555.5424,-266 1569.8722,-252.6641 1575.6502,-230.5199 1577.9776,-214.4033"/>
<polygon fill="#191970" stroke="#191970" points="1581.464,-214.7187 1579.1002,-204.3909 1574.5076,-213.9386 1581.464,-214.7187"/>
</g>
<!-- Node24&#45;&gt;Node23 -->
<g id="edge56" class="edge">
<title>Node24&#45;&gt;Node23</title>
<path fill="none" stroke="#191970" d="M1336.0143,-302.2977C1324.2487,-293.1384 1309.2749,-281.4816 1297.2959,-272.1562"/>
<polygon fill="#191970" stroke="#191970" points="1299.2322,-269.228 1289.1913,-265.8469 1294.9321,-274.7516 1299.2322,-269.228"/>
</g>
<!-- Node25 -->
<g id="node26" class="node">
<title>Node25</title>
<polygon fill="#ffffff" stroke="#bfbfbf" points="1393.5424,-246.5 1393.5424,-265.5 1425.5424,-265.5 1425.5424,-246.5 1393.5424,-246.5"/>
<text text-anchor="middle" x="1409.5424" y="-253.5" font-family="Helvetica,sans-Serif" font-size="10.00" fill="#000000">set</text>
</g>
<!-- Node24&#45;&gt;Node25 -->
<g id="edge53" class="edge">
<title>Node24&#45;&gt;Node25</title>
<path fill="none" stroke="#191970" d="M1368.8907,-302.2977C1376.5426,-293.5831 1386.1797,-282.6075 1394.15,-273.5302"/>
<polygon fill="#191970" stroke="#191970" points="1396.9283,-275.6707 1400.8963,-265.8469 1391.6682,-271.052 1396.9283,-275.6707"/>
</g>
<!-- Node26 -->
<g id="node27" class="node">
<title>Node26</title>
<polygon fill="#ffffff" stroke="#bfbfbf" points="1444.0424,-246.5 1444.0424,-265.5 1513.0424,-265.5 1513.0424,-246.5 1444.0424,-246.5"/>
<text text-anchor="middle" x="1478.5424" y="-253.5" font-family="Helvetica,sans-Serif" font-size="10.00" fill="#000000">type_traits</text>
</g>
<!-- Node24&#45;&gt;Node26 -->
<g id="edge55" class="edge">
<title>Node24&#45;&gt;Node26</title>
<path fill="none" stroke="#191970" d="M1385.6316,-302.4554C1405.3443,-292.599 1430.9426,-279.7999 1450.2771,-270.1327"/>
<polygon fill="#191970" stroke="#191970" points="1452.1027,-273.133 1459.4818,-265.5303 1448.9722,-266.872 1452.1027,-273.133"/>
</g>
<!-- Node27&#45;&gt;Node2 -->
<g id="edge62" class="edge">
<title>Node27&#45;&gt;Node2</title>
<path fill="none" stroke="#191970" d="M1000.2793,-446.6422C1035.233,-443.475 1082.1128,-439.3276 1123.5424,-436 1343.8572,-418.3044 1399.6442,-422.2829 1619.5424,-400 1646.1456,-397.3042 1675.9842,-393.4156 1699.1275,-390.2078"/>
<polygon fill="#191970" stroke="#191970" points="1699.8366,-393.6427 1709.2541,-388.7886 1698.865,-386.7104 1699.8366,-393.6427"/>
</g>
<!-- Node27&#45;&gt;Node3 -->
<g id="edge63" class="edge">
<title>Node27&#45;&gt;Node3</title>
<path fill="none" stroke="#191970" d="M1000.2943,-446.8218C1035.2543,-443.7295 1082.1354,-439.5979 1123.5424,-436 1310.1902,-419.782 1361.5133,-444.3378 1543.5424,-400 1608.0082,-384.2977 1788.9816,-302.9865 1861.2129,-269.9636"/>
<polygon fill="#191970" stroke="#191970" points="1863.026,-272.9829 1870.6599,-265.6362 1860.1108,-266.6188 1863.026,-272.9829"/>
</g>
<!-- Node27&#45;&gt;Node6 -->
<g id="edge64" class="edge">
<title>Node27&#45;&gt;Node6</title>
<path fill="none" stroke="#191970" d="M894.8139,-447.3129C764.8583,-436.8685 438.1259,-409.8018 416.5424,-400 295.3073,-344.9429 198.5424,-327.6512 198.5424,-194.5 198.5424,-194.5 198.5424,-194.5 198.5424,-133 198.5424,-18.86 331.0602,-75.3833 443.5424,-56 566.6189,-34.7911 1477.8616,-14.5545 1661.39,-10.6687"/>
<polygon fill="#191970" stroke="#191970" points="1661.5555,-14.1661 1671.4795,-10.4561 1661.408,-7.1677 1661.5555,-14.1661"/>
</g>
<!-- Node27&#45;&gt;Node7 -->
<g id="edge65" class="edge">
<title>Node27&#45;&gt;Node7</title>
<path fill="none" stroke="#191970" d="M947.5424,-441.9005C947.5424,-432.149 947.5424,-416.7597 947.5424,-404.3695"/>
<polygon fill="#191970" stroke="#191970" points="951.0425,-404.0816 947.5424,-394.0817 944.0425,-404.0817 951.0425,-404.0816"/>
</g>
<!-- Node27&#45;&gt;Node10 -->
<g id="edge67" class="edge">
<title>Node27&#45;&gt;Node10</title>
<path fill="none" stroke="#191970" d="M894.7895,-448.273C781.3776,-440.9518 521.8811,-422.0001 488.5424,-400 429.7019,-361.1713 430.7261,-313.655 450.5424,-246 453.4667,-236.0161 458.9857,-226.1314 464.6852,-217.7322"/>
<polygon fill="#191970" stroke="#191970" points="467.5611,-219.7281 470.5889,-209.5751 461.8905,-215.624 467.5611,-219.7281"/>
</g>
<!-- Node27&#45;&gt;Node11 -->
<g id="edge68" class="edge">
<title>Node27&#45;&gt;Node11</title>
<path fill="none" stroke="#191970" d="M894.747,-447.5877C770.4482,-438.1661 468.4994,-413.9664 451.5424,-400 373.1582,-335.4398 376.2109,-279.0586 393.5424,-179 398.053,-152.9592 395.7959,-142.584 413.5424,-123 426.2897,-108.9328 443.6874,-98.3688 460.8398,-90.5915"/>
<polygon fill="#191970" stroke="#191970" points="462.4864,-93.6944 470.3126,-86.553 459.7411,-87.2552 462.4864,-93.6944"/>
</g>
<!-- Node27&#45;&gt;Node22 -->
<g id="edge66" class="edge">
<title>Node27&#45;&gt;Node22</title>
<path fill="none" stroke="#191970" d="M987.7888,-441.9717C1031.7484,-431.5643 1103.0876,-414.6748 1157.081,-401.8919"/>
<polygon fill="#191970" stroke="#191970" points="1158.0257,-405.2651 1166.9504,-399.5553 1156.413,-398.4534 1158.0257,-405.2651"/>
</g>
<!-- Node28&#45;&gt;Node3 -->
<g id="edge70" class="edge">
<title>Node28&#45;&gt;Node3</title>
<path fill="none" stroke="#191970" d="M1288.7915,-563.9678C1401.6347,-556.3199 1602.7824,-540.7678 1673.5424,-523 1736.5439,-507.1803 1756.9096,-506.4146 1808.5424,-467 1863.1405,-425.3218 1870.7237,-400.0703 1885.5424,-333 1889.7789,-313.8252 1891.1318,-291.3891 1891.5139,-275.6986"/>
<polygon fill="#191970" stroke="#191970" points="1895.0147,-275.6545 1891.6479,-265.6089 1888.0154,-275.5615 1895.0147,-275.6545"/>
</g>
<!-- Node28&#45;&gt;Node4 -->
<g id="edge73" class="edge">
<title>Node28&#45;&gt;Node4</title>
<path fill="none" stroke="#191970" d="M1288.6017,-562.7212C1372.2128,-552.9836 1505.2292,-528.4189 1602.5424,-467 1654.632,-434.1238 1656.249,-411.805 1700.5424,-369 1736.5955,-334.1584 1779.6947,-294.3339 1803.4991,-272.4934"/>
<polygon fill="#191970" stroke="#191970" points="1806.0624,-274.8918 1811.0712,-265.5557 1801.3335,-269.7306 1806.0624,-274.8918"/>
</g>
<!-- Node28&#45;&gt;Node5 -->
<g id="edge74" class="edge">
<title>Node28&#45;&gt;Node5</title>
<path fill="none" stroke="#191970" d="M1288.9252,-567.1449C1397.1989,-563.5136 1584.6906,-552.9823 1645.5424,-523 1667.3246,-512.2677 1685.8332,-491.499 1698.0152,-475.0989"/>
<polygon fill="#191970" stroke="#191970" points="1701.1673,-476.7058 1704.1126,-466.5286 1695.4636,-472.6478 1701.1673,-476.7058"/>
</g>
<!-- Node28&#45;&gt;Node6 -->
<g id="edge71" class="edge">
<title>Node28&#45;&gt;Node6</title>
<path fill="none" stroke="#191970" d="M1288.565,-566.0627C1496.2462,-557.2964 2041.5424,-527.0829 2041.5424,-451.5 2041.5424,-451.5 2041.5424,-451.5 2041.5424,-133 2041.5424,-66.3345 1811.65,-26.7826 1725.5688,-14.3095"/>
<polygon fill="#191970" stroke="#191970" points="1725.9682,-10.8312 1715.5754,-12.8901 1724.9838,-17.7616 1725.9682,-10.8312"/>
</g>
<!-- Node28&#45;&gt;Node7 -->
<g id="edge80" class="edge">
<title>Node28&#45;&gt;Node7</title>
<path fill="none" stroke="#191970" d="M1162.2505,-559.4862C1122.4098,-550.701 1069.3022,-536.9396 1052.5424,-523 1019.2287,-495.2921 1035.414,-469.9919 1008.5424,-436 997.6479,-422.2188 982.5879,-409.4594 970.1579,-400.0884"/>
<polygon fill="#191970" stroke="#191970" points="972.1961,-397.2429 962.0563,-394.1712 968.0674,-402.8957 972.1961,-397.2429"/>
</g>
<!-- Node28&#45;&gt;Node10 -->
<g id="edge94" class="edge">
<title>Node28&#45;&gt;Node10</title>
<path fill="none" stroke="#191970" d="M1130.4225,-563.4184C949.2688,-548.9395 512.5286,-503.8291 415.5424,-400 368.6,-349.7456 362.9319,-303.5721 400.5424,-246 409.2157,-232.7234 422.6279,-222.2743 436.1595,-214.3587"/>
<polygon fill="#191970" stroke="#191970" points="437.9221,-217.3841 445.0203,-209.5186 434.5664,-211.2409 437.9221,-217.3841"/>
</g>
<!-- Node28&#45;&gt;Node11 -->
<g id="edge95" class="edge">
<title>Node28&#45;&gt;Node11</title>
<path fill="none" stroke="#191970" d="M1130.2609,-567.4596C919.5389,-562.3744 350.0261,-541.8916 179.5424,-467 98.1198,-431.232 46.5424,-406.4325 46.5424,-317.5 46.5424,-317.5 46.5424,-317.5 46.5424,-194.5 46.5424,-146.8133 83.1836,-142.8505 126.5424,-123 181.108,-98.0187 342.9755,-83.2727 442.0617,-76.3432"/>
<polygon fill="#191970" stroke="#191970" points="442.6017,-79.8144 452.3381,-75.6368 442.1216,-72.8309 442.6017,-79.8144"/>
</g>
<!-- Node28&#45;&gt;Node18 -->
<g id="edge96" class="edge">
<title>Node28&#45;&gt;Node18</title>
<path fill="none" stroke="#191970" d="M1179.2158,-559.3739C1137.2394,-543.9315 1066.5424,-509.338 1066.5424,-451.5 1066.5424,-451.5 1066.5424,-451.5 1066.5424,-256 1066.5424,-219.4982 1066.9882,-176.9052 1067.2845,-152.6281"/>
<polygon fill="#191970" stroke="#191970" points="1070.7849,-152.6124 1067.4117,-142.5689 1063.7854,-152.5239 1070.7849,-152.6124"/>
</g>
<!-- Node28&#45;&gt;Node22 -->
<g id="edge93" class="edge">
<title>Node28&#45;&gt;Node22</title>
<path fill="none" stroke="#191970" d="M1227.8257,-559.4509C1240.7281,-551.5902 1257.0065,-539.1269 1264.5424,-523 1280.9118,-487.9692 1275.6642,-473.0326 1264.5424,-436 1261.5234,-425.9475 1255.8357,-416.0467 1249.964,-407.6537"/>
<polygon fill="#191970" stroke="#191970" points="1252.6704,-405.4283 1243.8827,-399.51 1247.0617,-409.6167 1252.6704,-405.4283"/>
</g>
<!-- Node28&#45;&gt;Node27 -->
<g id="edge79" class="edge">
<title>Node28&#45;&gt;Node27</title>
<path fill="none" stroke="#191970" d="M1130.179,-560.9945C1093.1468,-554.6529 1049.6123,-543.3024 1014.5424,-523 991.4375,-509.6243 971.4813,-485.7774 959.4965,-469.3246"/>
<polygon fill="#191970" stroke="#191970" points="962.3015,-467.2288 953.689,-461.0584 956.5738,-471.2529 962.3015,-467.2288"/>
</g>
<!-- Node29 -->
<g id="node30" class="node">
<title>Node29</title>
<polygon fill="#ffffff" stroke="#bfbfbf" points="1163.0424,-503.5 1163.0424,-522.5 1256.0424,-522.5 1256.0424,-503.5 1163.0424,-503.5"/>
<text text-anchor="middle" x="1209.5424" y="-510.5" font-family="Helvetica,sans-Serif" font-size="10.00" fill="#000000">unordered_map</text>
</g>
<!-- Node28&#45;&gt;Node29 -->
<g id="edge72" class="edge">
<title>Node28&#45;&gt;Node29</title>
<path fill="none" stroke="#191970" d="M1209.5424,-559.2455C1209.5424,-551.9382 1209.5424,-541.6944 1209.5424,-532.7046"/>
<polygon fill="#191970" stroke="#191970" points="1213.0425,-532.6426 1209.5424,-522.6427 1206.0425,-532.6427 1213.0425,-532.6426"/>
</g>
<!-- Node30 -->
<g id="node31" class="node">
<title>Node30</title>
<g id="a_node31"><a xlink:href="api_2junction_8h.html" target="_top" xlink:title="maliput/api/junction.h">
<polygon fill="#ffffff" stroke="#000000" points="1133.0424,-442 1133.0424,-461 1256.0424,-461 1256.0424,-442 1133.0424,-442"/>
<text text-anchor="middle" x="1194.5424" y="-449" font-family="Helvetica,sans-Serif" font-size="10.00" fill="#000000">maliput/api/junction.h</text>
</a>
</g>
</g>
<!-- Node28&#45;&gt;Node30 -->
<g id="edge75" class="edge">
<title>Node28&#45;&gt;Node30</title>
<path fill="none" stroke="#191970" d="M1190.66,-559.3676C1177.5724,-551.5389 1161.1775,-539.1524 1153.5424,-523 1144.3253,-503.5009 1160.1748,-482.177 1174.7688,-467.9366"/>
<polygon fill="#191970" stroke="#191970" points="1177.1338,-470.5167 1182.1466,-461.1827 1172.4072,-465.3534 1177.1338,-470.5167"/>
</g>
<!-- Node31 -->
<g id="node32" class="node">
<title>Node31</title>
<g id="a_node32"><a xlink:href="regions_8h.html" target="_top" xlink:title="maliput/api/regions.h">
<polygon fill="#ffffff" stroke="#000000" points="1315.5424,-503.5 1315.5424,-522.5 1435.5424,-522.5 1435.5424,-503.5 1315.5424,-503.5"/>
<text text-anchor="middle" x="1375.5424" y="-510.5" font-family="Helvetica,sans-Serif" font-size="10.00" fill="#000000">maliput/api/regions.h</text>
</a>
</g>
</g>
<!-- Node28&#45;&gt;Node31 -->
<g id="edge81" class="edge">
<title>Node28&#45;&gt;Node31</title>
<path fill="none" stroke="#191970" d="M1238.0788,-559.3733C1265.5626,-550.1016 1307.311,-536.0178 1337.5876,-525.804"/>
<polygon fill="#191970" stroke="#191970" points="1339.0218,-529.0141 1347.3783,-522.5011 1336.7842,-522.3813 1339.0218,-529.0141"/>
</g>
<!-- Node33 -->
<g id="node34" class="node">
<title>Node33</title>
<g id="a_node34"><a xlink:href="api_2segment_8h.html" target="_top" xlink:title="maliput/api/segment.h">
<polygon fill="#ffffff" stroke="#000000" points="584.0424,-442 584.0424,-461 711.0424,-461 711.0424,-442 584.0424,-442"/>
<text text-anchor="middle" x="647.5424" y="-449" font-family="Helvetica,sans-Serif" font-size="10.00" fill="#000000">maliput/api/segment.h</text>
</a>
</g>
</g>
<!-- Node28&#45;&gt;Node33 -->
<g id="edge89" class="edge">
<title>Node28&#45;&gt;Node33</title>
<path fill="none" stroke="#191970" d="M1162.7621,-559.4773C1117.4343,-550.2304 1046.7549,-535.7595 985.5424,-523 885.4312,-502.1322 768.7447,-477.3458 701.9671,-463.1165"/>
<polygon fill="#191970" stroke="#191970" points="702.5966,-459.6721 692.0866,-461.0106 701.1373,-466.5184 702.5966,-459.6721"/>
</g>
<!-- Node30&#45;&gt;Node6 -->
<g id="edge76" class="edge">
<title>Node30&#45;&gt;Node6</title>
<path fill="none" stroke="#191970" d="M1226.3586,-441.9591C1335.4528,-409.0455 1689.9049,-300.3896 1730.5424,-266 1758.1738,-242.6168 1769.5424,-230.6977 1769.5424,-194.5 1769.5424,-194.5 1769.5424,-194.5 1769.5424,-133 1769.5424,-89.4388 1734.6181,-48.4145 1712.1189,-26.5053"/>
<polygon fill="#191970" stroke="#191970" points="1714.4386,-23.8822 1704.7565,-19.5801 1709.6425,-28.981 1714.4386,-23.8822"/>
</g>
<!-- Node30&#45;&gt;Node10 -->
<g id="edge78" class="edge">
<title>Node30&#45;&gt;Node10</title>
<path fill="none" stroke="#191970" d="M1152.9036,-441.9433C1141.7905,-439.685 1129.7539,-437.5004 1118.5424,-436 1057.4021,-427.8176 614.3818,-436.3472 564.5424,-400 505.577,-356.9973 489.5172,-264.3643 485.1578,-219.6554"/>
<polygon fill="#191970" stroke="#191970" points="488.6398,-219.2939 484.3007,-209.6284 481.6652,-219.8902 488.6398,-219.2939"/>
</g>
<!-- Node30&#45;&gt;Node22 -->
<g id="edge77" class="edge">
<title>Node30&#45;&gt;Node22</title>
<path fill="none" stroke="#191970" d="M1199.7003,-441.9005C1204.3482,-433.2503 1211.3797,-420.164 1217.5556,-408.6699"/>
<polygon fill="#191970" stroke="#191970" points="1220.8209,-409.9873 1222.471,-399.5218 1214.6547,-406.6741 1220.8209,-409.9873"/>
</g>
<!-- Node31&#45;&gt;Node3 -->
<g id="edge84" class="edge">
<title>Node31&#45;&gt;Node3</title>
<path fill="none" stroke="#191970" d="M1435.8408,-509.1415C1540.8756,-501.9731 1748.9035,-485.626 1776.5424,-467 1845.6053,-420.4581 1876.8869,-318.2017 1887.3153,-275.4205"/>
<polygon fill="#191970" stroke="#191970" points="1890.7253,-276.2087 1889.5758,-265.6764 1883.9064,-274.6268 1890.7253,-276.2087"/>
</g>
<!-- Node31&#45;&gt;Node4 -->
<g id="edge85" class="edge">
<title>Node31&#45;&gt;Node4</title>
<path fill="none" stroke="#191970" d="M1433.5707,-503.4523C1482.1611,-494.6976 1547.0668,-481.0014 1569.5424,-467 1650.2043,-416.7509 1628.7243,-357.949 1705.5424,-302 1719.1319,-292.1024 1758.8792,-277.2986 1788.0729,-267.1753"/>
<polygon fill="#191970" stroke="#191970" points="1789.5751,-270.3604 1797.8988,-263.8055 1787.3042,-263.7389 1789.5751,-270.3604"/>
</g>
<!-- Node31&#45;&gt;Node10 -->
<g id="edge88" class="edge">
<title>Node31&#45;&gt;Node10</title>
<path fill="none" stroke="#191970" d="M1315.4328,-503.466C1264.1997,-494.9969 1188.7242,-481.708 1123.5424,-467 1071.9051,-455.3483 1060.721,-444.9202 1008.5424,-436 903.761,-418.0872 619.6215,-459.5153 531.5424,-400 473.3673,-360.6909 475.3918,-265.0772 480.0872,-219.4837"/>
<polygon fill="#191970" stroke="#191970" points="483.5653,-219.8735 481.2383,-209.5374 476.6117,-219.0687 483.5653,-219.8735"/>
</g>
<!-- Node31&#45;&gt;Node20 -->
<g id="edge82" class="edge">
<title>Node31&#45;&gt;Node20</title>
<path fill="none" stroke="#191970" d="M1387.6686,-503.3447C1424.5566,-473.1169 1535.4025,-375.7497 1576.5424,-266 1582.7975,-249.313 1582.9849,-228.8789 1581.9404,-214.1354"/>
<polygon fill="#191970" stroke="#191970" points="1585.4194,-213.7472 1580.9816,-204.1265 1578.4512,-214.4148 1585.4194,-213.7472"/>
</g>
<!-- Node31&#45;&gt;Node22 -->
<g id="edge87" class="edge">
<title>Node31&#45;&gt;Node22</title>
<path fill="none" stroke="#191970" d="M1366.6924,-503.3318C1352.765,-488.3098 1324.6254,-458.729 1298.5424,-436 1286.3866,-425.4073 1272.2709,-414.5096 1260.0611,-405.4823"/>
<polygon fill="#191970" stroke="#191970" points="1262.0981,-402.6359 1251.9601,-399.5581 1257.966,-408.2862 1262.0981,-402.6359"/>
</g>
<!-- Node31&#45;&gt;Node27 -->
<g id="edge86" class="edge">
<title>Node31&#45;&gt;Node27</title>
<path fill="none" stroke="#191970" d="M1315.1282,-504.319C1234.39,-492.7176 1092.0059,-472.2582 1010.1624,-460.498"/>
<polygon fill="#191970" stroke="#191970" points="1010.6426,-457.0311 1000.2464,-459.0731 1009.6469,-463.9599 1010.6426,-457.0311"/>
</g>
<!-- Node32 -->
<g id="node33" class="node">
<title>Node32</title>
<polygon fill="#ffffff" stroke="#bfbfbf" points="1350.5424,-442 1350.5424,-461 1406.5424,-461 1406.5424,-442 1350.5424,-442"/>
<text text-anchor="middle" x="1378.5424" y="-449" font-family="Helvetica,sans-Serif" font-size="10.00" fill="#000000">numeric</text>
</g>
<!-- Node31&#45;&gt;Node32 -->
<g id="edge83" class="edge">
<title>Node31&#45;&gt;Node32</title>
<path fill="none" stroke="#191970" d="M1376.0111,-503.3906C1376.427,-494.8657 1377.0478,-482.1392 1377.5705,-471.4235"/>
<polygon fill="#191970" stroke="#191970" points="1381.0756,-471.4035 1378.067,-461.2449 1374.0839,-471.0624 1381.0756,-471.4035"/>
</g>
<!-- Node33&#45;&gt;Node6 -->
<g id="edge90" class="edge">
<title>Node33&#45;&gt;Node6</title>
<path fill="none" stroke="#191970" d="M594.1607,-441.9571C440.5836,-412.9993 8.5424,-320.3515 8.5424,-194.5 8.5424,-194.5 8.5424,-194.5 8.5424,-133 8.5424,-124.4507 -61.0866,-110.0399 206.5424,-56 353.5223,-26.3217 1457.4223,-12.6353 1661.2383,-10.3488"/>
<polygon fill="#191970" stroke="#191970" points="1661.3431,-13.8479 1671.3036,-10.2369 1661.2653,-6.8483 1661.3431,-13.8479"/>
</g>
<!-- Node33&#45;&gt;Node10 -->
<g id="edge92" class="edge">
<title>Node33&#45;&gt;Node10</title>
<path fill="none" stroke="#191970" d="M591.8158,-441.9383C541.6544,-432.4492 472.5449,-416.9106 450.5424,-400 394.6468,-357.04 380.5128,-308.8011 412.5424,-246 419.056,-233.2286 430.3816,-222.8854 442.0988,-214.9119"/>
<polygon fill="#191970" stroke="#191970" points="444.0478,-217.8206 450.6367,-209.5239 440.312,-211.9009 444.0478,-217.8206"/>
</g>
<!-- Node33&#45;&gt;Node22 -->
<g id="edge91" class="edge">
<title>Node33&#45;&gt;Node22</title>
<path fill="none" stroke="#191970" d="M711.0434,-444.2023C817.8619,-431.9264 1033.2762,-407.1704 1150.3627,-393.7145"/>
<polygon fill="#191970" stroke="#191970" points="1150.8097,-397.1862 1160.3447,-392.5673 1150.0104,-390.232 1150.8097,-397.1862"/>
</g>
<!-- Node35&#45;&gt;Node4 -->
<g id="edge100" class="edge">
<title>Node35&#45;&gt;Node4</title>
<path fill="none" stroke="#191970" d="M322.1667,-448.2582C553.4966,-437.0005 1308.0144,-400.267 1309.5424,-400 1456.0643,-374.3955 1485.9307,-340.7289 1629.5424,-302 1697.4076,-283.6982 1715.3259,-282.9458 1783.5424,-266 1784.9907,-265.6402 1786.4689,-265.2689 1787.9613,-264.8907"/>
<polygon fill="#191970" stroke="#191970" points="1789.0411,-268.2269 1797.8516,-262.3426 1787.2946,-261.4483 1789.0411,-268.2269"/>
</g>
<!-- Node35&#45;&gt;Node7 -->
<g id="edge101" class="edge">
<title>Node35&#45;&gt;Node7</title>
<path fill="none" stroke="#191970" d="M322.2083,-445.0453C451.2923,-432.5473 734.6337,-405.114 871.1038,-391.9008"/>
<polygon fill="#191970" stroke="#191970" points="871.8493,-395.3451 881.4654,-390.8976 871.1747,-388.3777 871.8493,-395.3451"/>
</g>
<!-- Node35&#45;&gt;Node10 -->
<g id="edge102" class="edge">
<title>Node35&#45;&gt;Node10</title>
<path fill="none" stroke="#191970" d="M242.5889,-436.4249C235.1331,-426.7239 226.4825,-413.452 222.5424,-400 209.4111,-355.1682 229.5342,-336.9401 260.5424,-302 300.7938,-256.6447 364.4155,-228.6297 413.4197,-212.6182"/>
<polygon fill="#191970" stroke="#191970" points="414.5409,-215.9345 423.0144,-209.5744 412.4241,-209.2622 414.5409,-215.9345"/>
</g>
<!-- Node35&#45;&gt;Node11 -->
<g id="edge103" class="edge">
<title>Node35&#45;&gt;Node11</title>
<path fill="none" stroke="#191970" d="M206.0821,-436.3325C155.5793,-417.4099 84.5424,-379.7327 84.5424,-317.5 84.5424,-317.5 84.5424,-317.5 84.5424,-194.5 84.5424,-121.06 315.6697,-89.4111 442.1327,-77.5909"/>
<polygon fill="#191970" stroke="#191970" points="442.5301,-81.0692 452.1701,-76.6737 441.8931,-74.0983 442.5301,-81.0692"/>
</g>
</g>
</svg>
        <g id="navigator" transform="translate(0 0)" fill="#404254">
                <rect fill="#f2f5e9" fill-opacity="0.5" stroke="#606060" stroke-width=".5" x="0" y="0" width="60" height="60"/>
                <use id="zoomplus" xlink:href="#zoomPlus" x="17" y="9" onmousedown="handleZoom(evt,'in')"/>
                <use id="zoomminus" xlink:href="#zoomMin" x="42" y="9" onmousedown="handleZoom(evt,'out')"/>
                <use id="reset" xlink:href="#resetDef" x="30" y="36" onmousedown="handleReset()"/>
                <g id="arrowUp" xlink:href="#dirArrow" transform="translate(30 24)" onmousedown="handlePan(0,-1)">
                  <use xlink:href="#rim" fill="#404040">
                        <set attributeName="fill" to="#808080" begin="arrowUp.mouseover" end="arrowUp.mouseout"/>
                  </use>
                  <path fill="none" stroke="white" stroke-width="1.5" d="M0,-3.0v7 M-2.5,-0.5L0,-3.0L2.5,-0.5"/>
                </g>
                <g id="arrowRight" xlink:href="#dirArrow" transform="rotate(90) translate(36 -43)" onmousedown="handlePan(1,0)">
                  <use xlink:href="#rim" fill="#404040">
                        <set attributeName="fill" to="#808080" begin="arrowRight.mouseover" end="arrowRight.mouseout"/>
                  </use>
                  <path fill="none" stroke="white" stroke-width="1.5" d="M0,-3.0v7 M-2.5,-0.5L0,-3.0L2.5,-0.5"/>
                </g>
                <g id="arrowDown" xlink:href="#dirArrow" transform="rotate(180) translate(-30 -48)" onmousedown="handlePan(0,1)">
                  <use xlink:href="#rim" fill="#404040">
                        <set attributeName="fill" to="#808080" begin="arrowDown.mouseover" end="arrowDown.mouseout"/>
                  </use>
                  <path fill="none" stroke="white" stroke-width="1.5" d="M0,-3.0v7 M-2.5,-0.5L0,-3.0L2.5,-0.5"/>
                </g>
                <g id="arrowLeft" xlink:href="#dirArrow" transform="rotate(270) translate(-36 17)" onmousedown="handlePan(-1,0)">
                  <use xlink:href="#rim" fill="#404040">
                        <set attributeName="fill" to="#808080" begin="arrowLeft.mouseover" end="arrowLeft.mouseout"/>
                  </use>
                  <path fill="none" stroke="white" stroke-width="1.5" d="M0,-3.0v7 M-2.5,-0.5L0,-3.0L2.5,-0.5"/>
                </g>
        </g>
        <svg viewBox="0 0 15 15" width="100%" height="30px" preserveAspectRatio="xMaxYMin meet">
         <g id="arrow_out" transform="scale(0.3 0.3)">
          <a xlink:href="geometry__base_2branch__point_8h__incl_org.svg" target="_base">
           <rect id="button" ry="5" rx="5" y="6" x="6" height="38" width="38"
                fill="#f2f5e9" fill-opacity="0.5" stroke="#606060" stroke-width="1.0"/>
           <path id="arrow"
             d="M 11.500037,31.436501 C 11.940474,20.09759 22.043105,11.32322 32.158766,21.979434 L 37.068811,17.246167 C 37.068811,17.246167 37.088388,32 37.088388,32 L 22.160133,31.978069 C 22.160133,31.978069 26.997745,27.140456 26.997745,27.140456 C 18.528582,18.264221 13.291696,25.230495 11.500037,31.436501 z"
             style="fill:#404040;"/>
          </a>
         </g>
        </svg>
</svg>
