<?xml version="1.0" encoding="UTF-8" standalone="no"?>
<!DOCTYPE svg PUBLIC "-//W3C//DTD SVG 1.1//EN"
 "http://www.w3.org/Graphics/SVG/1.1/DTD/svg11.dtd">
<!-- Generated by graphviz version 2.40.1 (20161225.0304)
 -->
<!-- Title: Graphical Class Hierarchy Pages: 1 -->
<svg width="229pt" height="66pt"
 viewBox="0.00 0.00 229.00 66.00" xmlns="http://www.w3.org/2000/svg" xmlns:xlink="http://www.w3.org/1999/xlink">
<g id="graph0" class="graph" transform="scale(1 1) rotate(0) translate(4 62)">
<title>Graphical Class Hierarchy</title>
<polygon fill="#ffffff" stroke="transparent" points="-4,4 -4,-62 225,-62 225,4 -4,4"/>
<!-- Node0 -->
<g id="node1" class="node">
<title>Node0</title>
<g id="a_node1"><a xlink:href="classmaliput_1_1api_1_1rules_1_1_road_rulebook.html" target="_top" xlink:title="Abstract interface for querying &quot;rules of the road&quot;. ">
<polygon fill="#ffffff" stroke="#000000" points="0,-19.5 0,-38.5 87,-38.5 87,-19.5 0,-19.5"/>
<text text-anchor="middle" x="43.5" y="-26.5" font-family="Helvetica,sans-Serif" font-size="10.00" fill="#000000">RoadRulebook</text>
</a>
</g>
</g>
<!-- Node1 -->
<g id="node2" class="node">
<title>Node1</title>
<g id="a_node2"><a xlink:href="classmaliput_1_1_manual_rulebook.html" target="_top" xlink:title="ManualRulebook is a simple concrete implementation of the api::rules::RoadRulebook abstract interface...">
<polygon fill="#ffffff" stroke="#000000" points="123,-38.5 123,-57.5 221,-57.5 221,-38.5 123,-38.5"/>
<text text-anchor="middle" x="172" y="-45.5" font-family="Helvetica,sans-Serif" font-size="10.00" fill="#000000">ManualRulebook</text>
</a>
</g>
</g>
<!-- Node0&#45;&gt;Node1 -->
<g id="edge1" class="edge">
<title>Node0&#45;&gt;Node1</title>
<path fill="none" stroke="#191970" d="M96.9086,-36.897C105.4818,-38.1646 114.3203,-39.4715 122.7893,-40.7237"/>
<polygon fill="#191970" stroke="#191970" points="97.4087,-33.433 87.0042,-35.4325 96.3847,-40.3577 97.4087,-33.433"/>
</g>
<!-- Node2 -->
<g id="node3" class="node">
<title>Node2</title>
<g id="a_node3"><a xlink:href="classmaliput_1_1_simple_rulebook.html" target="_top" xlink:title="SimpleRulebook is a simple concrete implementation of the api::rules::RoadRulebook abstract interface...">
<polygon fill="#ffffff" stroke="#000000" points="124,-.5 124,-19.5 220,-19.5 220,-.5 124,-.5"/>
<text text-anchor="middle" x="172" y="-7.5" font-family="Helvetica,sans-Serif" font-size="10.00" fill="#000000">SimpleRulebook</text>
</a>
</g>
</g>
<!-- Node0&#45;&gt;Node2 -->
<g id="edge2" class="edge">
<title>Node0&#45;&gt;Node2</title>
<path fill="none" stroke="#191970" d="M97.1635,-21.0653C105.9591,-19.7648 115.0269,-18.424 123.6828,-17.1442"/>
<polygon fill="#191970" stroke="#191970" points="96.3847,-17.6423 87.0042,-22.5675 97.4087,-24.567 96.3847,-17.6423"/>
</g>
</g>
</svg>
