<?xml version="1.0" encoding="UTF-8" standalone="no"?>
<!DOCTYPE svg PUBLIC "-//W3C//DTD SVG 1.1//EN"
 "http://www.w3.org/Graphics/SVG/1.1/DTD/svg11.dtd">
<!-- Generated by graphviz version 2.43.0 (0)
 -->
<!-- Title: Graphical Class Hierarchy Pages: 1 -->
<svg width="252pt" height="66pt"
 viewBox="0.00 0.00 252.00 66.00" xmlns="http://www.w3.org/2000/svg" xmlns:xlink="http://www.w3.org/1999/xlink">
<g id="graph0" class="graph" transform="scale(1 1) rotate(0) translate(4 62)">
<title>Graphical Class Hierarchy</title>
<polygon fill="white" stroke="transparent" points="-4,4 -4,-62 248,-62 248,4 -4,4"/>
<!-- Node0 -->
<g id="node1" class="node">
<title>Node0</title>
<g id="a_node1"><a xlink:href="classmaliput_1_1api_1_1_lane.html" target="_top" xlink:title="A Lane represents a lane of travel in a road network.">
<polygon fill="white" stroke="black" points="0,-19.5 0,-38.5 40,-38.5 40,-19.5 0,-19.5"/>
<text text-anchor="middle" x="20" y="-26.5" font-family="Helvetica,sans-Serif" font-size="10.00">Lane</text>
</a>
</g>
</g>
<!-- Node1 -->
<g id="node2" class="node">
<title>Node1</title>
<g id="a_node2"><a xlink:href="classmaliput_1_1api_1_1test_1_1_mock_lane.html" target="_top" xlink:title=" ">
<polygon fill="white" stroke="black" points="76,-38.5 76,-57.5 142,-57.5 142,-38.5 76,-38.5"/>
<text text-anchor="middle" x="109" y="-45.5" font-family="Helvetica,sans-Serif" font-size="10.00">MockLane</text>
</a>
</g>
</g>
<!-- Node0&#45;&gt;Node1 -->
<g id="edge1" class="edge">
<title>Node0&#45;&gt;Node1</title>
<path fill="none" stroke="midnightblue" d="M50.2,-35.38C58.41,-37.17 67.38,-39.13 75.76,-40.96"/>
<polygon fill="midnightblue" stroke="midnightblue" points="50.82,-31.93 40.31,-33.22 49.33,-38.77 50.82,-31.93"/>
</g>
<!-- Node2 -->
<g id="node3" class="node">
<title>Node2</title>
<g id="a_node3"><a xlink:href="classmaliput_1_1geometry__base_1_1_lane.html" target="_top" xlink:title="geometry_base&#39;s implementation of api::Lane.">
<polygon fill="white" stroke="black" points="89,-0.5 89,-19.5 129,-19.5 129,-0.5 89,-0.5"/>
<text text-anchor="middle" x="109" y="-7.5" font-family="Helvetica,sans-Serif" font-size="10.00">Lane</text>
</a>
</g>
</g>
<!-- Node0&#45;&gt;Node2 -->
<g id="edge2" class="edge">
<title>Node0&#45;&gt;Node2</title>
<path fill="none" stroke="midnightblue" d="M50.41,-22.58C63.06,-19.81 77.49,-16.66 88.75,-14.2"/>
<polygon fill="midnightblue" stroke="midnightblue" points="49.33,-19.23 40.31,-24.78 50.82,-26.07 49.33,-19.23"/>
</g>
<!-- Node3 -->
<g id="node4" class="node">
<title>Node3</title>
<g id="a_node4"><a xlink:href="classmaliput_1_1geometry__base_1_1test_1_1_mock_lane.html" target="_top" xlink:title="Mock api::Lane implementation; see mock_geometry.h.">
<polygon fill="white" stroke="black" points="178,-0.5 178,-19.5 244,-19.5 244,-0.5 178,-0.5"/>
<text text-anchor="middle" x="211" y="-7.5" font-family="Helvetica,sans-Serif" font-size="10.00">MockLane</text>
</a>
</g>
</g>
<!-- Node2&#45;&gt;Node3 -->
<g id="edge3" class="edge">
<title>Node2&#45;&gt;Node3</title>
<path fill="none" stroke="midnightblue" d="M139.3,-10C151.38,-10 165.42,-10 177.79,-10"/>
<polygon fill="midnightblue" stroke="midnightblue" points="139.28,-6.5 129.28,-10 139.28,-13.5 139.28,-6.5"/>
</g>
</g>
</svg>
