<?xml version="1.0" encoding="UTF-8" standalone="no"?>
<!DOCTYPE svg PUBLIC "-//W3C//DTD SVG 1.1//EN"
 "http://www.w3.org/Graphics/SVG/1.1/DTD/svg11.dtd">
<!-- Generated by graphviz version 2.43.0 (0)
 -->
<!-- Title: lane_data.cc Pages: 1 -->
<svg width="642pt" height="453pt"
 viewBox="0.00 0.00 642.00 453.00" xmlns="http://www.w3.org/2000/svg" xmlns:xlink="http://www.w3.org/1999/xlink">
<g id="graph0" class="graph" transform="scale(1 1) rotate(0) translate(4 449)">
<title>lane_data.cc</title>
<polygon fill="white" stroke="transparent" points="-4,4 -4,-449 638,-449 638,4 -4,4"/>
<!-- Node1 -->
<g id="node1" class="node">
<title>Node1</title>
<g id="a_node1"><a xlink:title=" ">
<polygon fill="#bfbfbf" stroke="black" points="543,-425.5 543,-444.5 621,-444.5 621,-425.5 543,-425.5"/>
<text text-anchor="middle" x="582" y="-432.5" font-family="Helvetica,sans-Serif" font-size="10.00">lane_data.cc</text>
</a>
</g>
</g>
<!-- Node2 -->
<g id="node2" class="node">
<title>Node2</title>
<g id="a_node2"><a xlink:href="lane__data_8h.html" target="_top" xlink:title=" ">
<polygon fill="white" stroke="black" points="271,-369.5 271,-388.5 403,-388.5 403,-369.5 271,-369.5"/>
<text text-anchor="middle" x="337" y="-376.5" font-family="Helvetica,sans-Serif" font-size="10.00">maliput/api/lane_data.h</text>
</a>
</g>
</g>
<!-- Node1&#45;&gt;Node2 -->
<g id="edge1" class="edge">
<title>Node1&#45;&gt;Node2</title>
<path fill="none" stroke="midnightblue" d="M543.18,-425.44C500.44,-416.02 431.67,-400.87 385.43,-390.68"/>
<polygon fill="midnightblue" stroke="midnightblue" points="386.16,-387.25 375.64,-388.52 384.65,-394.09 386.16,-387.25"/>
</g>
<!-- Node13 -->
<g id="node13" class="node">
<title>Node13</title>
<g id="a_node13"><a xlink:title=" ">
<polygon fill="white" stroke="#bfbfbf" points="537,-62 537,-81 597,-81 597,-62 537,-62"/>
<text text-anchor="middle" x="567" y="-69" font-family="Helvetica,sans-Serif" font-size="10.00">iostream</text>
</a>
</g>
</g>
<!-- Node1&#45;&gt;Node13 -->
<g id="edge34" class="edge">
<title>Node1&#45;&gt;Node13</title>
<path fill="none" stroke="midnightblue" d="M589.01,-425.33C603.21,-406.87 634,-361.82 634,-318.5 634,-318.5 634,-318.5 634,-193.5 634,-151.55 602.8,-110.51 582.99,-88.67"/>
<polygon fill="midnightblue" stroke="midnightblue" points="585.44,-86.17 576.04,-81.28 580.34,-90.96 585.44,-86.17"/>
</g>
<!-- Node16 -->
<g id="node16" class="node">
<title>Node16</title>
<g id="a_node16"><a xlink:title=" ">
<polygon fill="white" stroke="#bfbfbf" points="558.5,-185 558.5,-204 605.5,-204 605.5,-185 558.5,-185"/>
<text text-anchor="middle" x="582" y="-192" font-family="Helvetica,sans-Serif" font-size="10.00">cmath</text>
</a>
</g>
</g>
<!-- Node1&#45;&gt;Node16 -->
<g id="edge33" class="edge">
<title>Node1&#45;&gt;Node16</title>
<path fill="none" stroke="midnightblue" d="M582,-425.23C582,-390.6 582,-262.93 582,-214.4"/>
<polygon fill="midnightblue" stroke="midnightblue" points="585.5,-214.1 582,-204.1 578.5,-214.1 585.5,-214.1"/>
</g>
<!-- Node3 -->
<g id="node3" class="node">
<title>Node3</title>
<g id="a_node3"><a xlink:title=" ">
<polygon fill="white" stroke="#bfbfbf" points="450.5,-308 450.5,-327 515.5,-327 515.5,-308 450.5,-308"/>
<text text-anchor="middle" x="483" y="-315" font-family="Helvetica,sans-Serif" font-size="10.00">functional</text>
</a>
</g>
</g>
<!-- Node2&#45;&gt;Node3 -->
<g id="edge2" class="edge">
<title>Node2&#45;&gt;Node3</title>
<path fill="none" stroke="midnightblue" d="M357.92,-369.48C382.75,-359.36 424.34,-342.4 452.69,-330.85"/>
<polygon fill="midnightblue" stroke="midnightblue" points="454.18,-334.02 462.12,-327.01 451.54,-327.54 454.18,-334.02"/>
</g>
<!-- Node4 -->
<g id="node4" class="node">
<title>Node4</title>
<g id="a_node4"><a xlink:title=" ">
<polygon fill="white" stroke="#bfbfbf" points="483.5,-185 483.5,-204 540.5,-204 540.5,-185 483.5,-185"/>
<text text-anchor="middle" x="512" y="-192" font-family="Helvetica,sans-Serif" font-size="10.00">ostream</text>
</a>
</g>
</g>
<!-- Node2&#45;&gt;Node4 -->
<g id="edge3" class="edge">
<title>Node2&#45;&gt;Node4</title>
<path fill="none" stroke="midnightblue" d="M403.39,-370.8C451.22,-364.08 509.88,-352.17 525,-333 552.51,-298.13 533.4,-241.72 520.73,-213.21"/>
<polygon fill="midnightblue" stroke="midnightblue" points="523.86,-211.64 516.46,-204.06 517.52,-214.6 523.86,-211.64"/>
</g>
<!-- Node5 -->
<g id="node5" class="node">
<title>Node5</title>
<g id="a_node5"><a xlink:title=" ">
<polygon fill="white" stroke="#bfbfbf" points="27,-0.5 27,-19.5 71,-19.5 71,-0.5 27,-0.5"/>
<text text-anchor="middle" x="49" y="-7.5" font-family="Helvetica,sans-Serif" font-size="10.00">string</text>
</a>
</g>
</g>
<!-- Node2&#45;&gt;Node5 -->
<g id="edge4" class="edge">
<title>Node2&#45;&gt;Node5</title>
<path fill="none" stroke="midnightblue" d="M270.8,-373.09C199.65,-366.81 92.03,-354.16 57,-333 20.86,-311.17 0,-299.22 0,-257 0,-257 0,-257 0,-132 0,-97.18 4.91,-87.84 19,-56 23.36,-46.14 29.84,-36.08 35.67,-27.97"/>
<polygon fill="midnightblue" stroke="midnightblue" points="38.62,-29.87 41.82,-19.77 33.02,-25.67 38.62,-29.87"/>
</g>
<!-- Node6 -->
<g id="node6" class="node">
<title>Node6</title>
<g id="a_node6"><a xlink:href="maliput__copyable_8h.html" target="_top" xlink:title=" ">
<polygon fill="white" stroke="black" points="104,-179.5 104,-209.5 244,-209.5 244,-179.5 104,-179.5"/>
<text text-anchor="start" x="112" y="-197.5" font-family="Helvetica,sans-Serif" font-size="10.00">maliput/common/maliput</text>
<text text-anchor="middle" x="174" y="-186.5" font-family="Helvetica,sans-Serif" font-size="10.00">_copyable.h</text>
</a>
</g>
</g>
<!-- Node2&#45;&gt;Node6 -->
<g id="edge5" class="edge">
<title>Node2&#45;&gt;Node6</title>
<path fill="none" stroke="midnightblue" d="M283.52,-369.48C259.65,-363.13 232.92,-352.1 215,-333 185.55,-301.61 177.18,-249.96 174.84,-219.69"/>
<polygon fill="midnightblue" stroke="midnightblue" points="178.33,-219.36 174.23,-209.59 171.34,-219.78 178.33,-219.36"/>
</g>
<!-- Node7 -->
<g id="node7" class="node">
<title>Node7</title>
<g id="a_node7"><a xlink:href="maliput__throw_8h.html" target="_top" xlink:title=" ">
<polygon fill="white" stroke="black" points="28,-56.5 28,-86.5 168,-86.5 168,-56.5 28,-56.5"/>
<text text-anchor="start" x="36" y="-74.5" font-family="Helvetica,sans-Serif" font-size="10.00">maliput/common/maliput</text>
<text text-anchor="middle" x="98" y="-63.5" font-family="Helvetica,sans-Serif" font-size="10.00">_throw.h</text>
</a>
</g>
</g>
<!-- Node2&#45;&gt;Node7 -->
<g id="edge6" class="edge">
<title>Node2&#45;&gt;Node7</title>
<path fill="none" stroke="midnightblue" d="M275.63,-369.49C237.46,-362.75 188,-351.34 147,-333 93.09,-308.88 38,-316.06 38,-257 38,-257 38,-257 38,-193.5 38,-155.87 61.58,-117.86 79.18,-94.74"/>
<polygon fill="midnightblue" stroke="midnightblue" points="82.12,-96.66 85.57,-86.64 76.63,-92.33 82.12,-96.66"/>
</g>
<!-- Node8 -->
<g id="node8" class="node">
<title>Node8</title>
<g id="a_node8"><a xlink:href="matrix_8h.html" target="_top" xlink:title=" ">
<polygon fill="white" stroke="black" points="338.5,-185 338.5,-204 465.5,-204 465.5,-185 338.5,-185"/>
<text text-anchor="middle" x="402" y="-192" font-family="Helvetica,sans-Serif" font-size="10.00">maliput/math/matrix.h</text>
</a>
</g>
</g>
<!-- Node2&#45;&gt;Node8 -->
<g id="edge8" class="edge">
<title>Node2&#45;&gt;Node8</title>
<path fill="none" stroke="midnightblue" d="M350.47,-369.21C382.32,-348.09 460.64,-294.18 474,-266 485.56,-241.61 457.04,-221.01 432.54,-208.49"/>
<polygon fill="midnightblue" stroke="midnightblue" points="433.97,-205.3 423.44,-204.1 430.93,-211.6 433.97,-205.3"/>
</g>
<!-- Node14 -->
<g id="node14" class="node">
<title>Node14</title>
<g id="a_node14"><a xlink:href="vector_8h.html" target="_top" xlink:title=" ">
<polygon fill="white" stroke="black" points="209.5,-123.5 209.5,-142.5 334.5,-142.5 334.5,-123.5 209.5,-123.5"/>
<text text-anchor="middle" x="272" y="-130.5" font-family="Helvetica,sans-Serif" font-size="10.00">maliput/math/vector.h</text>
</a>
</g>
</g>
<!-- Node2&#45;&gt;Node14 -->
<g id="edge32" class="edge">
<title>Node2&#45;&gt;Node14</title>
<path fill="none" stroke="midnightblue" d="M282.88,-369.49C253.75,-362.99 218.3,-351.82 191,-333 133.9,-293.64 117.56,-275.57 95,-210 90.52,-196.97 86.54,-189.88 95,-179 108.14,-162.11 156.63,-150.52 199.54,-143.33"/>
<polygon fill="midnightblue" stroke="midnightblue" points="200.14,-146.78 209.45,-141.74 199.02,-139.87 200.14,-146.78"/>
</g>
<!-- Node15 -->
<g id="node15" class="node">
<title>Node15</title>
<g id="a_node15"><a xlink:href="quaternion_8h.html" target="_top" xlink:title=" ">
<polygon fill="white" stroke="black" points="317.5,-246.5 317.5,-265.5 464.5,-265.5 464.5,-246.5 317.5,-246.5"/>
<text text-anchor="middle" x="391" y="-253.5" font-family="Helvetica,sans-Serif" font-size="10.00">maliput/math/quaternion.h</text>
</a>
</g>
</g>
<!-- Node2&#45;&gt;Node15 -->
<g id="edge21" class="edge">
<title>Node2&#45;&gt;Node15</title>
<path fill="none" stroke="midnightblue" d="M342.92,-369.32C348.79,-360.47 357.78,-346.18 364,-333 372.94,-314.05 380.66,-291.28 385.52,-275.63"/>
<polygon fill="midnightblue" stroke="midnightblue" points="389,-276.24 388.54,-265.66 382.3,-274.22 389,-276.24"/>
</g>
<!-- Node17 -->
<g id="node17" class="node">
<title>Node17</title>
<g id="a_node17"><a xlink:href="roll__pitch__yaw_8h.html" target="_top" xlink:title=" ">
<polygon fill="white" stroke="black" points="223.5,-302.5 223.5,-332.5 354.5,-332.5 354.5,-302.5 223.5,-302.5"/>
<text text-anchor="start" x="231.5" y="-320.5" font-family="Helvetica,sans-Serif" font-size="10.00">maliput/math/roll_pitch</text>
<text text-anchor="middle" x="289" y="-309.5" font-family="Helvetica,sans-Serif" font-size="10.00">_yaw.h</text>
</a>
</g>
</g>
<!-- Node2&#45;&gt;Node17 -->
<g id="edge27" class="edge">
<title>Node2&#45;&gt;Node17</title>
<path fill="none" stroke="midnightblue" d="M330.12,-369.48C324.05,-361.94 314.92,-350.63 306.8,-340.57"/>
<polygon fill="midnightblue" stroke="midnightblue" points="309.32,-338.11 300.31,-332.52 303.87,-342.5 309.32,-338.11"/>
</g>
<!-- Node7&#45;&gt;Node5 -->
<g id="edge7" class="edge">
<title>Node7&#45;&gt;Node5</title>
<path fill="none" stroke="midnightblue" d="M86.39,-56.4C79.27,-47.75 70.12,-36.64 62.65,-27.58"/>
<polygon fill="midnightblue" stroke="midnightblue" points="65.19,-25.15 56.13,-19.66 59.79,-29.6 65.19,-25.15"/>
</g>
<!-- Node9 -->
<g id="node9" class="node">
<title>Node9</title>
<g id="a_node9"><a xlink:title=" ">
<polygon fill="white" stroke="#bfbfbf" points="222,-62 222,-81 286,-81 286,-62 222,-62"/>
<text text-anchor="middle" x="254" y="-69" font-family="Helvetica,sans-Serif" font-size="10.00">algorithm</text>
</a>
</g>
</g>
<!-- Node8&#45;&gt;Node9 -->
<g id="edge9" class="edge">
<title>Node8&#45;&gt;Node9</title>
<path fill="none" stroke="midnightblue" d="M396.43,-184.81C386.98,-170.56 366.61,-141.92 344,-123 325.51,-107.53 301.6,-94.37 283.07,-85.37"/>
<polygon fill="midnightblue" stroke="midnightblue" points="284.46,-82.16 273.93,-81.05 281.47,-88.48 284.46,-82.16"/>
</g>
<!-- Node10 -->
<g id="node10" class="node">
<title>Node10</title>
<g id="a_node10"><a xlink:title=" ">
<polygon fill="white" stroke="#bfbfbf" points="304,-62 304,-81 346,-81 346,-62 304,-62"/>
<text text-anchor="middle" x="325" y="-69" font-family="Helvetica,sans-Serif" font-size="10.00">array</text>
</a>
</g>
</g>
<!-- Node8&#45;&gt;Node10 -->
<g id="edge10" class="edge">
<title>Node8&#45;&gt;Node10</title>
<path fill="none" stroke="midnightblue" d="M400.24,-184.68C397.17,-170.73 389.9,-143.11 377,-123 368.34,-109.5 355.4,-96.92 344.6,-87.69"/>
<polygon fill="midnightblue" stroke="midnightblue" points="346.81,-84.98 336.87,-81.33 342.37,-90.38 346.81,-84.98"/>
</g>
<!-- Node11 -->
<g id="node11" class="node">
<title>Node11</title>
<g id="a_node11"><a xlink:title=" ">
<polygon fill="white" stroke="#bfbfbf" points="364.5,-62 364.5,-81 417.5,-81 417.5,-62 364.5,-62"/>
<text text-anchor="middle" x="391" y="-69" font-family="Helvetica,sans-Serif" font-size="10.00">cstddef</text>
</a>
</g>
</g>
<!-- Node8&#45;&gt;Node11 -->
<g id="edge11" class="edge">
<title>Node8&#45;&gt;Node11</title>
<path fill="none" stroke="midnightblue" d="M405.88,-184.77C411.31,-171.41 419.98,-145.1 415,-123 412.37,-111.33 406.71,-99.2 401.55,-89.75"/>
<polygon fill="midnightblue" stroke="midnightblue" points="404.53,-87.92 396.5,-81.01 398.47,-91.42 404.53,-87.92"/>
</g>
<!-- Node12 -->
<g id="node12" class="node">
<title>Node12</title>
<g id="a_node12"><a xlink:title=" ">
<polygon fill="white" stroke="#bfbfbf" points="435.5,-62 435.5,-81 518.5,-81 518.5,-62 435.5,-62"/>
<text text-anchor="middle" x="477" y="-69" font-family="Helvetica,sans-Serif" font-size="10.00">initializer_list</text>
</a>
</g>
</g>
<!-- Node8&#45;&gt;Node12 -->
<g id="edge12" class="edge">
<title>Node8&#45;&gt;Node12</title>
<path fill="none" stroke="midnightblue" d="M407.39,-184.8C419.72,-164.91 450.13,-115.85 466.37,-89.65"/>
<polygon fill="midnightblue" stroke="midnightblue" points="469.36,-91.47 471.66,-81.12 463.41,-87.78 469.36,-91.47"/>
</g>
<!-- Node8&#45;&gt;Node13 -->
<g id="edge13" class="edge">
<title>Node8&#45;&gt;Node13</title>
<path fill="none" stroke="midnightblue" d="M413.6,-184.99C441.35,-164.65 511.8,-112.98 546.73,-87.36"/>
<polygon fill="midnightblue" stroke="midnightblue" points="549.2,-89.9 555.19,-81.16 545.06,-84.25 549.2,-89.9"/>
</g>
<!-- Node8&#45;&gt;Node14 -->
<g id="edge14" class="edge">
<title>Node8&#45;&gt;Node14</title>
<path fill="none" stroke="midnightblue" d="M383.37,-184.98C361.56,-174.99 325.2,-158.35 299.98,-146.81"/>
<polygon fill="midnightblue" stroke="midnightblue" points="301.14,-143.49 290.59,-142.51 298.23,-149.85 301.14,-143.49"/>
</g>
<!-- Node14&#45;&gt;Node7 -->
<g id="edge20" class="edge">
<title>Node14&#45;&gt;Node7</title>
<path fill="none" stroke="midnightblue" d="M247.07,-123.48C221.52,-114.74 181.07,-100.91 148.75,-89.86"/>
<polygon fill="midnightblue" stroke="midnightblue" points="149.6,-86.45 139.01,-86.52 147.34,-93.07 149.6,-86.45"/>
</g>
<!-- Node14&#45;&gt;Node9 -->
<g id="edge15" class="edge">
<title>Node14&#45;&gt;Node9</title>
<path fill="none" stroke="midnightblue" d="M269.42,-123.48C266.85,-114.99 262.83,-101.7 259.54,-90.82"/>
<polygon fill="midnightblue" stroke="midnightblue" points="262.82,-89.57 256.57,-81.01 256.12,-91.59 262.82,-89.57"/>
</g>
<!-- Node14&#45;&gt;Node10 -->
<g id="edge16" class="edge">
<title>Node14&#45;&gt;Node10</title>
<path fill="none" stroke="midnightblue" d="M279.59,-123.48C287.7,-114.37 300.73,-99.74 310.76,-88.48"/>
<polygon fill="midnightblue" stroke="midnightblue" points="313.38,-90.8 317.42,-81.01 308.16,-86.15 313.38,-90.8"/>
</g>
<!-- Node14&#45;&gt;Node11 -->
<g id="edge17" class="edge">
<title>Node14&#45;&gt;Node11</title>
<path fill="none" stroke="midnightblue" d="M289.05,-123.48C308.84,-113.58 341.72,-97.14 364.77,-85.62"/>
<polygon fill="midnightblue" stroke="midnightblue" points="366.6,-88.61 373.98,-81.01 363.47,-82.35 366.6,-88.61"/>
</g>
<!-- Node14&#45;&gt;Node12 -->
<g id="edge18" class="edge">
<title>Node14&#45;&gt;Node12</title>
<path fill="none" stroke="midnightblue" d="M301.37,-123.48C337.3,-113.05 398.23,-95.36 438.04,-83.81"/>
<polygon fill="midnightblue" stroke="midnightblue" points="439.05,-87.16 447.68,-81.01 437.1,-80.44 439.05,-87.16"/>
</g>
<!-- Node14&#45;&gt;Node13 -->
<g id="edge19" class="edge">
<title>Node14&#45;&gt;Node13</title>
<path fill="none" stroke="midnightblue" d="M334.51,-124.25C386.78,-117.01 463,-104.64 528,-87 530.81,-86.24 533.7,-85.36 536.58,-84.41"/>
<polygon fill="midnightblue" stroke="midnightblue" points="537.9,-87.66 546.18,-81.04 535.58,-81.05 537.9,-87.66"/>
</g>
<!-- Node15&#45;&gt;Node4 -->
<g id="edge23" class="edge">
<title>Node15&#45;&gt;Node4</title>
<path fill="none" stroke="midnightblue" d="M408.34,-246.48C428.55,-236.53 462.19,-219.99 485.64,-208.46"/>
<polygon fill="midnightblue" stroke="midnightblue" points="487.27,-211.56 494.7,-204.01 484.18,-205.28 487.27,-211.56"/>
</g>
<!-- Node15&#45;&gt;Node6 -->
<g id="edge24" class="edge">
<title>Node15&#45;&gt;Node6</title>
<path fill="none" stroke="midnightblue" d="M359.91,-246.48C327.43,-237.57 275.64,-223.37 234.96,-212.22"/>
<polygon fill="midnightblue" stroke="midnightblue" points="235.71,-208.79 225.14,-209.52 233.86,-215.54 235.71,-208.79"/>
</g>
<!-- Node15&#45;&gt;Node8 -->
<g id="edge25" class="edge">
<title>Node15&#45;&gt;Node8</title>
<path fill="none" stroke="midnightblue" d="M392.58,-246.48C394.13,-238.08 396.55,-224.98 398.55,-214.16"/>
<polygon fill="midnightblue" stroke="midnightblue" points="402.05,-214.48 400.43,-204.01 395.17,-213.21 402.05,-214.48"/>
</g>
<!-- Node15&#45;&gt;Node14 -->
<g id="edge26" class="edge">
<title>Node15&#45;&gt;Node14</title>
<path fill="none" stroke="midnightblue" d="M377.05,-246.36C364.08,-237.96 344.63,-224.4 330,-210 311.41,-191.71 293.78,-167.23 282.95,-151.06"/>
<polygon fill="midnightblue" stroke="midnightblue" points="285.81,-149.04 277.39,-142.61 279.96,-152.89 285.81,-149.04"/>
</g>
<!-- Node15&#45;&gt;Node16 -->
<g id="edge22" class="edge">
<title>Node15&#45;&gt;Node16</title>
<path fill="none" stroke="midnightblue" d="M426.85,-246.49C459.4,-238.38 508.51,-225.18 550,-210 551.61,-209.41 553.26,-208.77 554.91,-208.11"/>
<polygon fill="midnightblue" stroke="midnightblue" points="556.44,-211.26 564.26,-204.11 553.69,-204.83 556.44,-211.26"/>
</g>
<!-- Node17&#45;&gt;Node6 -->
<g id="edge28" class="edge">
<title>Node17&#45;&gt;Node6</title>
<path fill="none" stroke="midnightblue" d="M273.7,-302.19C263.19,-292.23 249.02,-278.53 237,-266 221.71,-250.06 205.08,-231.39 192.75,-217.27"/>
<polygon fill="midnightblue" stroke="midnightblue" points="195.23,-214.79 186.03,-209.54 189.95,-219.39 195.23,-214.79"/>
</g>
<!-- Node17&#45;&gt;Node8 -->
<g id="edge29" class="edge">
<title>Node17&#45;&gt;Node8</title>
<path fill="none" stroke="midnightblue" d="M289.81,-302.32C291.37,-286.94 295.88,-262.39 309,-246 323.24,-228.21 345.51,-215.8 364.69,-207.74"/>
<polygon fill="midnightblue" stroke="midnightblue" points="366.09,-210.95 374.1,-204.02 363.51,-204.44 366.09,-210.95"/>
</g>
<!-- Node17&#45;&gt;Node14 -->
<g id="edge31" class="edge">
<title>Node17&#45;&gt;Node14</title>
<path fill="none" stroke="midnightblue" d="M287.69,-302.48C284.68,-270.1 277.22,-190.04 273.78,-153.16"/>
<polygon fill="midnightblue" stroke="midnightblue" points="277.23,-152.45 272.82,-142.82 270.26,-153.1 277.23,-152.45"/>
</g>
<!-- Node17&#45;&gt;Node15 -->
<g id="edge30" class="edge">
<title>Node17&#45;&gt;Node15</title>
<path fill="none" stroke="midnightblue" d="M313.17,-302.4C329.52,-292.86 351.01,-280.32 367.27,-270.84"/>
<polygon fill="midnightblue" stroke="midnightblue" points="369.28,-273.72 376.16,-265.66 365.76,-267.67 369.28,-273.72"/>
</g>
</g>
</svg>
