<?xml version="1.0" encoding="UTF-8" standalone="no"?>
<!DOCTYPE svg PUBLIC "-//W3C//DTD SVG 1.1//EN"
 "http://www.w3.org/Graphics/SVG/1.1/DTD/svg11.dtd">
<!-- Generated by graphviz version 2.43.0 (0)
 -->
<!-- Title: maliput_never_destroyed.h Pages: 1 -->
<svg width="354pt" height="95pt"
 viewBox="0.00 0.00 353.50 95.00" xmlns="http://www.w3.org/2000/svg" xmlns:xlink="http://www.w3.org/1999/xlink">
<g id="graph0" class="graph" transform="scale(1 1) rotate(0) translate(4 91)">
<title>maliput_never_destroyed.h</title>
<polygon fill="white" stroke="transparent" points="-4,4 -4,-91 349.5,-91 349.5,4 -4,4"/>
<!-- Node1 -->
<g id="node1" class="node">
<title>Node1</title>
<g id="a_node1"><a xlink:title=" ">
<polygon fill="#bfbfbf" stroke="black" points="51.5,-67.5 51.5,-86.5 201.5,-86.5 201.5,-67.5 51.5,-67.5"/>
<text text-anchor="middle" x="126.5" y="-74.5" font-family="Helvetica,sans-Serif" font-size="10.00">maliput_never_destroyed.h</text>
</a>
</g>
</g>
<!-- Node2 -->
<g id="node2" class="node">
<title>Node2</title>
<g id="a_node2"><a xlink:title=" ">
<polygon fill="white" stroke="#bfbfbf" points="0,-6 0,-25 37,-25 37,-6 0,-6"/>
<text text-anchor="middle" x="18.5" y="-13" font-family="Helvetica,sans-Serif" font-size="10.00">new</text>
</a>
</g>
</g>
<!-- Node1&#45;&gt;Node2 -->
<g id="edge1" class="edge">
<title>Node1&#45;&gt;Node2</title>
<path fill="none" stroke="midnightblue" d="M111.03,-67.48C93.22,-57.67 63.76,-41.43 42.87,-29.92"/>
<polygon fill="midnightblue" stroke="midnightblue" points="44.39,-26.77 33.95,-25.01 41.01,-32.9 44.39,-26.77"/>
</g>
<!-- Node3 -->
<g id="node3" class="node">
<title>Node3</title>
<g id="a_node3"><a xlink:title=" ">
<polygon fill="white" stroke="#bfbfbf" points="55,-6 55,-25 124,-25 124,-6 55,-6"/>
<text text-anchor="middle" x="89.5" y="-13" font-family="Helvetica,sans-Serif" font-size="10.00">type_traits</text>
</a>
</g>
</g>
<!-- Node1&#45;&gt;Node3 -->
<g id="edge2" class="edge">
<title>Node1&#45;&gt;Node3</title>
<path fill="none" stroke="midnightblue" d="M121.2,-67.48C115.76,-58.73 107.14,-44.87 100.26,-33.81"/>
<polygon fill="midnightblue" stroke="midnightblue" points="103.04,-31.65 94.79,-25.01 97.1,-35.35 103.04,-31.65"/>
</g>
<!-- Node4 -->
<g id="node4" class="node">
<title>Node4</title>
<g id="a_node4"><a xlink:title=" ">
<polygon fill="white" stroke="#bfbfbf" points="142,-6 142,-25 187,-25 187,-6 142,-6"/>
<text text-anchor="middle" x="164.5" y="-13" font-family="Helvetica,sans-Serif" font-size="10.00">utility</text>
</a>
</g>
</g>
<!-- Node1&#45;&gt;Node4 -->
<g id="edge3" class="edge">
<title>Node1&#45;&gt;Node4</title>
<path fill="none" stroke="midnightblue" d="M131.94,-67.48C137.59,-58.64 146.56,-44.59 153.66,-33.48"/>
<polygon fill="midnightblue" stroke="midnightblue" points="156.63,-35.32 159.07,-25.01 150.73,-31.55 156.63,-35.32"/>
</g>
<!-- Node5 -->
<g id="node5" class="node">
<title>Node5</title>
<g id="a_node5"><a xlink:href="maliput__copyable_8h.html" target="_top" xlink:title=" ">
<polygon fill="white" stroke="black" points="205.5,-0.5 205.5,-30.5 345.5,-30.5 345.5,-0.5 205.5,-0.5"/>
<text text-anchor="start" x="213.5" y="-18.5" font-family="Helvetica,sans-Serif" font-size="10.00">maliput/common/maliput</text>
<text text-anchor="middle" x="275.5" y="-7.5" font-family="Helvetica,sans-Serif" font-size="10.00">_copyable.h</text>
</a>
</g>
</g>
<!-- Node1&#45;&gt;Node5 -->
<g id="edge4" class="edge">
<title>Node1&#45;&gt;Node5</title>
<path fill="none" stroke="midnightblue" d="M147.85,-67.48C169.44,-58.85 203.47,-45.26 230.96,-34.29"/>
<polygon fill="midnightblue" stroke="midnightblue" points="232.39,-37.48 240.38,-30.52 229.8,-30.98 232.39,-37.48"/>
</g>
</g>
</svg>
