<?xml version="1.0" encoding="UTF-8" standalone="no"?>
<!DOCTYPE svg PUBLIC "-//W3C//DTD SVG 1.1//EN"
 "http://www.w3.org/Graphics/SVG/1.1/DTD/svg11.dtd">
<!-- Generated by graphviz version 2.43.0 (0)
 -->
<!-- Title: maliput_plugin_manager.cc Pages: 1 -->
<!--zoomable 419 -->
<svg id="main" version="1.1" xmlns="http://www.w3.org/2000/svg" xmlns:xlink="http://www.w3.org/1999/xlink" xml:space="preserve" onload="init(evt)">
<style type="text/css"><![CDATA[
.edge:hover path { stroke: red; }
.edge:hover polygon { stroke: red; fill: red; }
]]></style>
<script type="text/javascript"><![CDATA[
var edges = document.getElementsByTagName('g');
if (edges && edges.length) {
  for (var i=0;i<edges.length;i++) {
    if (edges[i].id.substr(0,4)=='edge') {
      edges[i].setAttribute('class','edge');
    }
  }
}
]]></script>
        <defs>
                <circle id="rim" cx="0" cy="0" r="7"/>
                <circle id="rim2" cx="0" cy="0" r="3.5"/>
                <g id="zoomPlus">
                        <use xlink:href="#rim" fill="#404040">
                                <set attributeName="fill" to="#808080" begin="zoomplus.mouseover" end="zoomplus.mouseout"/>
                        </use>
                        <path d="M-4,0h8M0,-4v8" fill="none" stroke="white" stroke-width="1.5" pointer-events="none"/>
                </g>
                <g id="zoomMin">
                        <use xlink:href="#rim" fill="#404040">
                                <set attributeName="fill" to="#808080" begin="zoomminus.mouseover" end="zoomminus.mouseout"/>
                        </use>
                        <path d="M-4,0h8" fill="none" stroke="white" stroke-width="1.5" pointer-events="none"/>
                </g>
                <g id="dirArrow">
                        <path fill="none" stroke="white" stroke-width="1.5" d="M0,-3.0v7 M-2.5,-0.5L0,-3.0L2.5,-0.5"/>
                </g>
               <g id="resetDef">
                       <use xlink:href="#rim2" fill="#404040">
                               <set attributeName="fill" to="#808080" begin="reset.mouseover" end="reset.mouseout"/>
                       </use>
               </g>
        </defs>

<script type="text/javascript">
var viewWidth = 1100;
var viewHeight = 419;
var sectionId = 'dynsection-0';
</script>
<script xlink:href="svgpan.js"/>
<svg id="graph" class="graph">
<g id="viewport">
<title>maliput_plugin_manager.cc</title>
<polygon fill="white" stroke="transparent" points="-4,4 -4,-415 1096.38,-415 1096.38,4 -4,4"/>
<!-- Node1 -->
<g id="node1" class="node">
<title>Node1</title>
<g id="a_node1"><a xlink:title=" ">
<polygon fill="#bfbfbf" stroke="black" points="708.38,-391.5 708.38,-410.5 860.38,-410.5 860.38,-391.5 708.38,-391.5"/>
<text text-anchor="middle" x="784.38" y="-398.5" font-family="Helvetica,sans-Serif" font-size="10.00">maliput_plugin_manager.cc</text>
</a>
</g>
</g>
<!-- Node2 -->
<g id="node2" class="node">
<title>Node2</title>
<g id="a_node2"><a xlink:href="maliput__plugin__manager_8h.html" target="_top" xlink:title=" ">
<polygon fill="white" stroke="black" points="601.38,-324.5 601.38,-354.5 729.38,-354.5 729.38,-324.5 601.38,-324.5"/>
<text text-anchor="start" x="609.38" y="-342.5" font-family="Helvetica,sans-Serif" font-size="10.00">maliput/plugin/maliput</text>
<text text-anchor="middle" x="665.38" y="-331.5" font-family="Helvetica,sans-Serif" font-size="10.00">_plugin_manager.h</text>
</a>
</g>
</g>
<!-- Node1&#45;&gt;Node2 -->
<g id="edge1" class="edge">
<title>Node1&#45;&gt;Node2</title>
<path fill="none" stroke="midnightblue" d="M767.33,-391.48C750.46,-383.04 724.09,-369.86 702.39,-359.01"/>
<polygon fill="midnightblue" stroke="midnightblue" points="703.93,-355.86 693.42,-354.52 700.8,-362.13 703.93,-355.86"/>
</g>
<!-- Node23 -->
<g id="node23" class="node">
<title>Node23</title>
<g id="a_node23"><a xlink:href="logger_8h.html" target="_top" xlink:title=" ">
<polygon fill="white" stroke="black" points="712.88,-196 712.88,-215 855.88,-215 855.88,-196 712.88,-196"/>
<text text-anchor="middle" x="784.38" y="-203" font-family="Helvetica,sans-Serif" font-size="10.00">maliput/common/logger.h</text>
</a>
</g>
</g>
<!-- Node1&#45;&gt;Node23 -->
<g id="edge33" class="edge">
<title>Node1&#45;&gt;Node23</title>
<path fill="none" stroke="midnightblue" d="M784.38,-391.44C784.38,-362.29 784.38,-266.47 784.38,-225.43"/>
<polygon fill="midnightblue" stroke="midnightblue" points="787.88,-225.41 784.38,-215.41 780.88,-225.41 787.88,-225.41"/>
</g>
<!-- Node25 -->
<g id="node25" class="node">
<title>Node25</title>
<g id="a_node25"><a xlink:href="file__utils_8h.html" target="_top" xlink:title=" ">
<polygon fill="white" stroke="black" points="960.38,-123.5 960.38,-153.5 1064.38,-153.5 1064.38,-123.5 960.38,-123.5"/>
<text text-anchor="start" x="968.38" y="-141.5" font-family="Helvetica,sans-Serif" font-size="10.00">maliput/utility/file</text>
<text text-anchor="middle" x="1012.38" y="-130.5" font-family="Helvetica,sans-Serif" font-size="10.00">_utils.h</text>
</a>
</g>
</g>
<!-- Node1&#45;&gt;Node25 -->
<g id="edge42" class="edge">
<title>Node1&#45;&gt;Node25</title>
<path fill="none" stroke="midnightblue" d="M791.96,-391.33C823.64,-355.14 945.9,-215.45 993.37,-161.21"/>
<polygon fill="midnightblue" stroke="midnightblue" points="996.12,-163.39 1000.07,-153.56 990.85,-158.78 996.12,-163.39"/>
</g>
<!-- Node3 -->
<g id="node3" class="node">
<title>Node3</title>
<g id="a_node3"><a xlink:title=" ">
<polygon fill="white" stroke="#bfbfbf" points="658.38,-129 658.38,-148 716.38,-148 716.38,-129 658.38,-129"/>
<text text-anchor="middle" x="687.38" y="-136" font-family="Helvetica,sans-Serif" font-size="10.00">memory</text>
</a>
</g>
</g>
<!-- Node2&#45;&gt;Node3 -->
<g id="edge2" class="edge">
<title>Node2&#45;&gt;Node3</title>
<path fill="none" stroke="midnightblue" d="M666.96,-324.19C670.85,-288.99 680.89,-198.17 685.27,-158.51"/>
<polygon fill="midnightblue" stroke="midnightblue" points="688.78,-158.68 686.4,-148.36 681.82,-157.91 688.78,-158.68"/>
</g>
<!-- Node4 -->
<g id="node4" class="node">
<title>Node4</title>
<g id="a_node4"><a xlink:title=" ">
<polygon fill="white" stroke="#bfbfbf" points="786.38,-0.5 786.38,-19.5 830.38,-19.5 830.38,-0.5 786.38,-0.5"/>
<text text-anchor="middle" x="808.38" y="-7.5" font-family="Helvetica,sans-Serif" font-size="10.00">string</text>
</a>
</g>
</g>
<!-- Node2&#45;&gt;Node4 -->
<g id="edge3" class="edge">
<title>Node2&#45;&gt;Node4</title>
<path fill="none" stroke="midnightblue" d="M729.76,-332.11C849.05,-318.48 1092.38,-281.47 1092.38,-206.5 1092.38,-206.5 1092.38,-206.5 1092.38,-137.5 1092.38,-97.15 1084.53,-80.37 1052.38,-56 1019.49,-31.08 899.18,-18.26 840.71,-13.38"/>
<polygon fill="midnightblue" stroke="midnightblue" points="840.79,-9.88 830.54,-12.56 840.23,-16.85 840.79,-9.88"/>
</g>
<!-- Node5 -->
<g id="node5" class="node">
<title>Node5</title>
<g id="a_node5"><a xlink:title=" ">
<polygon fill="white" stroke="#bfbfbf" points="302.88,-263 302.88,-282 395.88,-282 395.88,-263 302.88,-263"/>
<text text-anchor="middle" x="349.38" y="-270" font-family="Helvetica,sans-Serif" font-size="10.00">unordered_map</text>
</a>
</g>
</g>
<!-- Node2&#45;&gt;Node5 -->
<g id="edge4" class="edge">
<title>Node2&#45;&gt;Node5</title>
<path fill="none" stroke="midnightblue" d="M601.3,-327.19C548.54,-317.6 471.86,-303.05 405.38,-288 400.66,-286.93 395.75,-285.76 390.87,-284.55"/>
<polygon fill="midnightblue" stroke="midnightblue" points="391.53,-281.11 380.98,-282.05 389.82,-287.89 391.53,-281.11"/>
</g>
<!-- Node6 -->
<g id="node6" class="node">
<title>Node6</title>
<g id="a_node6"><a xlink:href="maliput__copyable_8h.html" target="_top" xlink:title=" ">
<polygon fill="white" stroke="black" points="500.38,-123.5 500.38,-153.5 640.38,-153.5 640.38,-123.5 500.38,-123.5"/>
<text text-anchor="start" x="508.38" y="-141.5" font-family="Helvetica,sans-Serif" font-size="10.00">maliput/common/maliput</text>
<text text-anchor="middle" x="570.38" y="-130.5" font-family="Helvetica,sans-Serif" font-size="10.00">_copyable.h</text>
</a>
</g>
</g>
<!-- Node2&#45;&gt;Node6 -->
<g id="edge5" class="edge">
<title>Node2&#45;&gt;Node6</title>
<path fill="none" stroke="midnightblue" d="M658.54,-324.19C642.32,-290.2 601.34,-204.35 581.49,-162.78"/>
<polygon fill="midnightblue" stroke="midnightblue" points="584.61,-161.2 577.15,-153.68 578.3,-164.21 584.61,-161.2"/>
</g>
<!-- Node7 -->
<g id="node7" class="node">
<title>Node7</title>
<g id="a_node7"><a xlink:href="maliput__plugin_8h.html" target="_top" xlink:title=" ">
<polygon fill="white" stroke="black" points="414.38,-257.5 414.38,-287.5 542.38,-287.5 542.38,-257.5 414.38,-257.5"/>
<text text-anchor="start" x="422.38" y="-275.5" font-family="Helvetica,sans-Serif" font-size="10.00">maliput/plugin/maliput</text>
<text text-anchor="middle" x="478.38" y="-264.5" font-family="Helvetica,sans-Serif" font-size="10.00">_plugin.h</text>
</a>
</g>
</g>
<!-- Node2&#45;&gt;Node7 -->
<g id="edge6" class="edge">
<title>Node2&#45;&gt;Node7</title>
<path fill="none" stroke="midnightblue" d="M624.8,-324.4C596.5,-314.56 558.55,-301.37 528.37,-290.88"/>
<polygon fill="midnightblue" stroke="midnightblue" points="529.47,-287.55 518.87,-287.58 527.17,-294.17 529.47,-287.55"/>
</g>
<!-- Node7&#45;&gt;Node3 -->
<g id="edge9" class="edge">
<title>Node7&#45;&gt;Node3</title>
<path fill="none" stroke="midnightblue" d="M506.86,-257.36C525.77,-247.69 550.96,-234.27 572.38,-221 607.27,-199.38 645.8,-171.1 668.23,-154.17"/>
<polygon fill="midnightblue" stroke="midnightblue" points="670.42,-156.91 676.27,-148.07 666.19,-151.33 670.42,-156.91"/>
</g>
<!-- Node7&#45;&gt;Node4 -->
<g id="edge10" class="edge">
<title>Node7&#45;&gt;Node4</title>
<path fill="none" stroke="midnightblue" d="M414.26,-258.55C410.93,-258 407.61,-257.47 404.38,-257 363.84,-251.05 64.9,-251.35 37.38,-221 -11.88,-166.67 -12.95,-109.34 37.38,-56 63.1,-28.73 632.45,-14.76 775.83,-11.67"/>
<polygon fill="midnightblue" stroke="midnightblue" points="776.23,-15.16 786.15,-11.45 776.08,-8.16 776.23,-15.16"/>
</g>
<!-- Node7&#45;&gt;Node6 -->
<g id="edge31" class="edge">
<title>Node7&#45;&gt;Node6</title>
<path fill="none" stroke="midnightblue" d="M508.38,-257.46C523.45,-248.94 540.71,-236.67 551.38,-221 562.84,-204.15 567.44,-181.3 569.26,-164.08"/>
<polygon fill="midnightblue" stroke="midnightblue" points="572.79,-163.94 570.1,-153.69 565.81,-163.38 572.79,-163.94"/>
</g>
<!-- Node8 -->
<g id="node8" class="node">
<title>Node8</title>
<g id="a_node8"><a xlink:title=" ">
<polygon fill="white" stroke="#bfbfbf" points="46.38,-196 46.38,-215 96.38,-215 96.38,-196 46.38,-196"/>
<text text-anchor="middle" x="71.38" y="-203" font-family="Helvetica,sans-Serif" font-size="10.00">dlfcn.h</text>
</a>
</g>
</g>
<!-- Node7&#45;&gt;Node8 -->
<g id="edge7" class="edge">
<title>Node7&#45;&gt;Node8</title>
<path fill="none" stroke="midnightblue" d="M414.25,-258.64C410.91,-258.07 407.61,-257.51 404.38,-257 274.37,-236.33 238.28,-252.15 110.38,-221 107.38,-220.27 104.31,-219.38 101.26,-218.41"/>
<polygon fill="midnightblue" stroke="midnightblue" points="102.33,-215.08 91.74,-215.09 100.03,-221.69 102.33,-215.08"/>
</g>
<!-- Node9 -->
<g id="node9" class="node">
<title>Node9</title>
<g id="a_node9"><a xlink:title=" ">
<polygon fill="white" stroke="#bfbfbf" points="46.88,-62 46.88,-81 111.88,-81 111.88,-62 46.88,-62"/>
<text text-anchor="middle" x="79.38" y="-69" font-family="Helvetica,sans-Serif" font-size="10.00">functional</text>
</a>
</g>
</g>
<!-- Node7&#45;&gt;Node9 -->
<g id="edge8" class="edge">
<title>Node7&#45;&gt;Node9</title>
<path fill="none" stroke="midnightblue" d="M414.34,-258.65C351.48,-245.85 262.82,-227.23 247.38,-221 194.63,-199.74 180.07,-192.66 138.38,-154 117.73,-134.86 99.7,-107.52 89.17,-89.89"/>
<polygon fill="midnightblue" stroke="midnightblue" points="92.17,-88.09 84.12,-81.21 86.12,-91.61 92.17,-88.09"/>
</g>
<!-- Node10 -->
<g id="node10" class="node">
<title>Node10</title>
<g id="a_node10"><a xlink:href="type__specific__identifier_8h.html" target="_top" xlink:title=" ">
<polygon fill="white" stroke="black" points="256.38,-190.5 256.38,-220.5 396.38,-220.5 396.38,-190.5 256.38,-190.5"/>
<text text-anchor="start" x="264.38" y="-208.5" font-family="Helvetica,sans-Serif" font-size="10.00">maliput/api/type_specific</text>
<text text-anchor="middle" x="326.38" y="-197.5" font-family="Helvetica,sans-Serif" font-size="10.00">_identifier.h</text>
</a>
</g>
</g>
<!-- Node7&#45;&gt;Node10 -->
<g id="edge11" class="edge">
<title>Node7&#45;&gt;Node10</title>
<path fill="none" stroke="midnightblue" d="M445.39,-257.4C422.89,-247.77 392.87,-234.94 368.62,-224.56"/>
<polygon fill="midnightblue" stroke="midnightblue" points="369.86,-221.29 359.29,-220.58 367.11,-227.73 369.86,-221.29"/>
</g>
<!-- Node22 -->
<g id="node22" class="node">
<title>Node22</title>
<g id="a_node22"><a xlink:href="maliput__plugin__type_8h.html" target="_top" xlink:title=" ">
<polygon fill="white" stroke="black" points="414.38,-190.5 414.38,-220.5 542.38,-220.5 542.38,-190.5 414.38,-190.5"/>
<text text-anchor="start" x="422.38" y="-208.5" font-family="Helvetica,sans-Serif" font-size="10.00">maliput/plugin/maliput</text>
<text text-anchor="middle" x="478.38" y="-197.5" font-family="Helvetica,sans-Serif" font-size="10.00">_plugin_type.h</text>
</a>
</g>
</g>
<!-- Node7&#45;&gt;Node22 -->
<g id="edge32" class="edge">
<title>Node7&#45;&gt;Node22</title>
<path fill="none" stroke="midnightblue" d="M478.38,-257.4C478.38,-249.64 478.38,-239.81 478.38,-230.86"/>
<polygon fill="midnightblue" stroke="midnightblue" points="481.88,-230.58 478.38,-220.58 474.88,-230.58 481.88,-230.58"/>
</g>
<!-- Node10&#45;&gt;Node4 -->
<g id="edge13" class="edge">
<title>Node10&#45;&gt;Node4</title>
<path fill="none" stroke="midnightblue" d="M368.4,-190.49C393.03,-181.53 424.31,-168.82 450.38,-154 470.23,-142.71 470.19,-131.55 491.38,-123 553.23,-98.02 739.36,-131.13 789.38,-87 805.44,-72.83 808.93,-47.33 809.24,-29.8"/>
<polygon fill="midnightblue" stroke="midnightblue" points="812.73,-29.58 809.08,-19.64 805.73,-29.69 812.73,-29.58"/>
</g>
<!-- Node10&#45;&gt;Node6 -->
<g id="edge15" class="edge">
<title>Node10&#45;&gt;Node6</title>
<path fill="none" stroke="midnightblue" d="M379.02,-190.48C416.73,-180.43 467.68,-166.86 507.53,-156.24"/>
<polygon fill="midnightblue" stroke="midnightblue" points="508.64,-159.57 517.41,-153.61 506.84,-152.8 508.64,-159.57"/>
</g>
<!-- Node10&#45;&gt;Node9 -->
<g id="edge12" class="edge">
<title>Node10&#45;&gt;Node9</title>
<path fill="none" stroke="midnightblue" d="M276.2,-190.49C248.79,-181.85 214.74,-169.44 186.38,-154 151.92,-135.24 116.61,-106 96.4,-88.12"/>
<polygon fill="midnightblue" stroke="midnightblue" points="98.49,-85.29 88.71,-81.21 93.81,-90.5 98.49,-85.29"/>
</g>
<!-- Node11 -->
<g id="node11" class="node">
<title>Node11</title>
<g id="a_node11"><a xlink:title=" ">
<polygon fill="white" stroke="#bfbfbf" points="520.88,-62 520.88,-81 565.88,-81 565.88,-62 520.88,-62"/>
<text text-anchor="middle" x="543.38" y="-69" font-family="Helvetica,sans-Serif" font-size="10.00">utility</text>
</a>
</g>
</g>
<!-- Node10&#45;&gt;Node11 -->
<g id="edge14" class="edge">
<title>Node10&#45;&gt;Node11</title>
<path fill="none" stroke="midnightblue" d="M339.88,-190.23C357.18,-172.57 388.74,-142.48 420.38,-123 428.58,-117.95 478.43,-97.99 512.1,-84.73"/>
<polygon fill="midnightblue" stroke="midnightblue" points="513.51,-87.94 521.54,-81.02 510.95,-81.42 513.51,-87.94"/>
</g>
<!-- Node12 -->
<g id="node12" class="node">
<title>Node12</title>
<g id="a_node12"><a xlink:href="maliput__hash_8h.html" target="_top" xlink:title=" ">
<polygon fill="white" stroke="black" points="228.38,-123.5 228.38,-153.5 368.38,-153.5 368.38,-123.5 228.38,-123.5"/>
<text text-anchor="start" x="236.38" y="-141.5" font-family="Helvetica,sans-Serif" font-size="10.00">maliput/common/maliput</text>
<text text-anchor="middle" x="298.38" y="-130.5" font-family="Helvetica,sans-Serif" font-size="10.00">_hash.h</text>
</a>
</g>
</g>
<!-- Node10&#45;&gt;Node12 -->
<g id="edge16" class="edge">
<title>Node10&#45;&gt;Node12</title>
<path fill="none" stroke="midnightblue" d="M320.3,-190.4C316.85,-182.39 312.45,-172.16 308.49,-162.98"/>
<polygon fill="midnightblue" stroke="midnightblue" points="311.61,-161.38 304.44,-153.58 305.18,-164.15 311.61,-161.38"/>
</g>
<!-- Node21 -->
<g id="node21" class="node">
<title>Node21</title>
<g id="a_node21"><a xlink:href="maliput__throw_8h.html" target="_top" xlink:title=" ">
<polygon fill="white" stroke="black" points="584.38,-56.5 584.38,-86.5 724.38,-86.5 724.38,-56.5 584.38,-56.5"/>
<text text-anchor="start" x="592.38" y="-74.5" font-family="Helvetica,sans-Serif" font-size="10.00">maliput/common/maliput</text>
<text text-anchor="middle" x="654.38" y="-63.5" font-family="Helvetica,sans-Serif" font-size="10.00">_throw.h</text>
</a>
</g>
</g>
<!-- Node10&#45;&gt;Node21 -->
<g id="edge30" class="edge">
<title>Node10&#45;&gt;Node21</title>
<path fill="none" stroke="midnightblue" d="M352.55,-190.32C370.25,-180.52 394.02,-166.97 414.38,-154 434.55,-141.14 436.66,-133.04 458.38,-123 479.99,-113.01 533.67,-99.44 579.4,-88.88"/>
<polygon fill="midnightblue" stroke="midnightblue" points="580.35,-92.25 589.32,-86.61 578.79,-85.43 580.35,-92.25"/>
</g>
<!-- Node12&#45;&gt;Node4 -->
<g id="edge24" class="edge">
<title>Node12&#45;&gt;Node4</title>
<path fill="none" stroke="midnightblue" d="M368.49,-123.74C401.2,-115.69 439.96,-103.75 472.38,-87 492.05,-76.83 491.08,-64.85 511.38,-56 601.43,-16.75 719.75,-10.9 775.99,-10.55"/>
<polygon fill="midnightblue" stroke="midnightblue" points="776.07,-14.05 786.07,-10.54 776.06,-7.05 776.07,-14.05"/>
</g>
<!-- Node12&#45;&gt;Node9 -->
<g id="edge19" class="edge">
<title>Node12&#45;&gt;Node9</title>
<path fill="none" stroke="midnightblue" d="M245.54,-123.46C209.99,-113.77 162.16,-100.3 120.38,-87 117.77,-86.17 115.08,-85.28 112.38,-84.37"/>
<polygon fill="midnightblue" stroke="midnightblue" points="113.3,-80.99 102.71,-81.04 111.02,-87.61 113.3,-80.99"/>
</g>
<!-- Node12&#45;&gt;Node11 -->
<g id="edge26" class="edge">
<title>Node12&#45;&gt;Node11</title>
<path fill="none" stroke="midnightblue" d="M366.46,-123.41C407.39,-114.34 460.31,-101.55 506.38,-87 508.65,-86.28 510.99,-85.49 513.33,-84.66"/>
<polygon fill="midnightblue" stroke="midnightblue" points="514.66,-87.9 522.81,-81.13 512.22,-81.34 514.66,-87.9"/>
</g>
<!-- Node13 -->
<g id="node13" class="node">
<title>Node13</title>
<g id="a_node13"><a xlink:title=" ">
<polygon fill="white" stroke="#bfbfbf" points="129.88,-62 129.88,-81 176.88,-81 176.88,-62 129.88,-62"/>
<text text-anchor="middle" x="153.38" y="-69" font-family="Helvetica,sans-Serif" font-size="10.00">cmath</text>
</a>
</g>
</g>
<!-- Node12&#45;&gt;Node13 -->
<g id="edge17" class="edge">
<title>Node12&#45;&gt;Node13</title>
<path fill="none" stroke="midnightblue" d="M266.7,-123.39C244.03,-113.29 212.81,-99.35 185.38,-87 184.19,-86.46 182.97,-85.92 181.75,-85.37"/>
<polygon fill="midnightblue" stroke="midnightblue" points="182.87,-82.03 172.32,-81.1 179.99,-88.41 182.87,-82.03"/>
</g>
<!-- Node14 -->
<g id="node14" class="node">
<title>Node14</title>
<g id="a_node14"><a xlink:title=" ">
<polygon fill="white" stroke="#bfbfbf" points="194.88,-62 194.88,-81 247.88,-81 247.88,-62 194.88,-62"/>
<text text-anchor="middle" x="221.38" y="-69" font-family="Helvetica,sans-Serif" font-size="10.00">cstddef</text>
</a>
</g>
</g>
<!-- Node12&#45;&gt;Node14 -->
<g id="edge18" class="edge">
<title>Node12&#45;&gt;Node14</title>
<path fill="none" stroke="midnightblue" d="M281.67,-123.4C269.19,-112.86 252.15,-98.48 239.37,-87.69"/>
<polygon fill="midnightblue" stroke="midnightblue" points="241.57,-84.97 231.68,-81.19 237.06,-90.32 241.57,-84.97"/>
</g>
<!-- Node15 -->
<g id="node15" class="node">
<title>Node15</title>
<g id="a_node15"><a xlink:title=" ">
<polygon fill="white" stroke="#bfbfbf" points="266.38,-62 266.38,-81 326.38,-81 326.38,-62 266.38,-62"/>
<text text-anchor="middle" x="296.38" y="-69" font-family="Helvetica,sans-Serif" font-size="10.00">iostream</text>
</a>
</g>
</g>
<!-- Node12&#45;&gt;Node15 -->
<g id="edge20" class="edge">
<title>Node12&#45;&gt;Node15</title>
<path fill="none" stroke="midnightblue" d="M297.94,-123.4C297.65,-114.06 297.27,-101.71 296.96,-91.52"/>
<polygon fill="midnightblue" stroke="midnightblue" points="300.45,-91.08 296.64,-81.19 293.45,-91.3 300.45,-91.08"/>
</g>
<!-- Node16 -->
<g id="node16" class="node">
<title>Node16</title>
<g id="a_node16"><a xlink:title=" ">
<polygon fill="white" stroke="#bfbfbf" points="742.38,-62 742.38,-81 780.38,-81 780.38,-62 742.38,-62"/>
<text text-anchor="middle" x="761.38" y="-69" font-family="Helvetica,sans-Serif" font-size="10.00">map</text>
</a>
</g>
</g>
<!-- Node12&#45;&gt;Node16 -->
<g id="edge21" class="edge">
<title>Node12&#45;&gt;Node16</title>
<path fill="none" stroke="midnightblue" d="M368.74,-130.74C482.94,-119.55 699.39,-97.39 733.38,-87 734.85,-86.55 736.33,-86.02 737.81,-85.44"/>
<polygon fill="midnightblue" stroke="midnightblue" points="739.66,-88.44 747.27,-81.07 736.72,-82.09 739.66,-88.44"/>
</g>
<!-- Node17 -->
<g id="node17" class="node">
<title>Node17</title>
<g id="a_node17"><a xlink:title=" ">
<polygon fill="white" stroke="#bfbfbf" points="970.38,-62 970.38,-81 1026.38,-81 1026.38,-62 970.38,-62"/>
<text text-anchor="middle" x="998.38" y="-69" font-family="Helvetica,sans-Serif" font-size="10.00">optional</text>
</a>
</g>
</g>
<!-- Node12&#45;&gt;Node17 -->
<g id="edge22" class="edge">
<title>Node12&#45;&gt;Node17</title>
<path fill="none" stroke="midnightblue" d="M368.47,-132.22C538.03,-119.43 956.79,-87.8 960.38,-87 963.38,-86.33 966.46,-85.46 969.51,-84.49"/>
<polygon fill="midnightblue" stroke="midnightblue" points="970.73,-87.77 978.99,-81.13 968.39,-81.18 970.73,-87.77"/>
</g>
<!-- Node18 -->
<g id="node18" class="node">
<title>Node18</title>
<g id="a_node18"><a xlink:title=" ">
<polygon fill="white" stroke="#bfbfbf" points="344.38,-62 344.38,-81 376.38,-81 376.38,-62 344.38,-62"/>
<text text-anchor="middle" x="360.38" y="-69" font-family="Helvetica,sans-Serif" font-size="10.00">set</text>
</a>
</g>
</g>
<!-- Node12&#45;&gt;Node18 -->
<g id="edge23" class="edge">
<title>Node12&#45;&gt;Node18</title>
<path fill="none" stroke="midnightblue" d="M311.83,-123.4C321.59,-113.16 334.82,-99.3 345,-88.62"/>
<polygon fill="midnightblue" stroke="midnightblue" points="347.71,-90.85 352.08,-81.19 342.65,-86.01 347.71,-90.85"/>
</g>
<!-- Node19 -->
<g id="node19" class="node">
<title>Node19</title>
<g id="a_node19"><a xlink:title=" ">
<polygon fill="white" stroke="#bfbfbf" points="394.88,-62 394.88,-81 463.88,-81 463.88,-62 394.88,-62"/>
<text text-anchor="middle" x="429.38" y="-69" font-family="Helvetica,sans-Serif" font-size="10.00">type_traits</text>
</a>
</g>
</g>
<!-- Node12&#45;&gt;Node19 -->
<g id="edge25" class="edge">
<title>Node12&#45;&gt;Node19</title>
<path fill="none" stroke="midnightblue" d="M326.8,-123.4C349.48,-112.14 381,-96.5 403.1,-85.54"/>
<polygon fill="midnightblue" stroke="midnightblue" points="404.83,-88.59 412.23,-81.01 401.72,-82.32 404.83,-88.59"/>
</g>
<!-- Node20 -->
<g id="node20" class="node">
<title>Node20</title>
<g id="a_node20"><a xlink:title=" ">
<polygon fill="white" stroke="#bfbfbf" points="904.88,-62 904.88,-81 951.88,-81 951.88,-62 904.88,-62"/>
<text text-anchor="middle" x="928.38" y="-69" font-family="Helvetica,sans-Serif" font-size="10.00">vector</text>
</a>
</g>
</g>
<!-- Node12&#45;&gt;Node20 -->
<g id="edge27" class="edge">
<title>Node12&#45;&gt;Node20</title>
<path fill="none" stroke="midnightblue" d="M368.71,-130.3C464.04,-120.53 639.57,-102.52 789.38,-87 825.33,-83.28 866.51,-78.98 894.65,-76.03"/>
<polygon fill="midnightblue" stroke="midnightblue" points="895.18,-79.5 904.77,-74.97 894.46,-72.53 895.18,-79.5"/>
</g>
<!-- Node12&#45;&gt;Node21 -->
<g id="edge28" class="edge">
<title>Node12&#45;&gt;Node21</title>
<path fill="none" stroke="midnightblue" d="M368.71,-124.66C427.83,-113.86 512.33,-98.43 574.09,-87.16"/>
<polygon fill="midnightblue" stroke="midnightblue" points="574.98,-90.55 584.19,-85.32 573.72,-83.67 574.98,-90.55"/>
</g>
<!-- Node21&#45;&gt;Node4 -->
<g id="edge29" class="edge">
<title>Node21&#45;&gt;Node4</title>
<path fill="none" stroke="midnightblue" d="M690.87,-56.4C716.94,-46.33 751.67,-32.91 776.6,-23.28"/>
<polygon fill="midnightblue" stroke="midnightblue" points="777.9,-26.53 785.97,-19.66 775.38,-20 777.9,-26.53"/>
</g>
<!-- Node23&#45;&gt;Node3 -->
<g id="edge36" class="edge">
<title>Node23&#45;&gt;Node3</title>
<path fill="none" stroke="midnightblue" d="M771.29,-195.73C755.22,-184.96 727.74,-166.55 708.63,-153.74"/>
<polygon fill="midnightblue" stroke="midnightblue" points="710.51,-150.79 700.25,-148.13 706.61,-156.6 710.51,-150.79"/>
</g>
<!-- Node23&#45;&gt;Node4 -->
<g id="edge38" class="edge">
<title>Node23&#45;&gt;Node4</title>
<path fill="none" stroke="midnightblue" d="M816.49,-195.9C837.27,-188.48 862.73,-175.49 875.38,-154 901.45,-109.7 853.39,-53.59 825.8,-26.72"/>
<polygon fill="midnightblue" stroke="midnightblue" points="828,-23.98 818.32,-19.66 823.19,-29.07 828,-23.98"/>
</g>
<!-- Node23&#45;&gt;Node6 -->
<g id="edge40" class="edge">
<title>Node23&#45;&gt;Node6</title>
<path fill="none" stroke="midnightblue" d="M755.96,-195.87C723.01,-185.86 667.92,-169.13 626.29,-156.48"/>
<polygon fill="midnightblue" stroke="midnightblue" points="627.15,-153.09 616.56,-153.53 625.11,-159.78 627.15,-153.09"/>
</g>
<!-- Node23&#45;&gt;Node9 -->
<g id="edge34" class="edge">
<title>Node23&#45;&gt;Node9</title>
<path fill="none" stroke="midnightblue" d="M712.71,-200.26C570.93,-191.57 264.44,-171.09 219.38,-154 197.68,-145.77 197.08,-135.24 177.38,-123 154.6,-108.85 127.41,-95.07 107.45,-85.48"/>
<polygon fill="midnightblue" stroke="midnightblue" points="108.82,-82.26 98.29,-81.13 105.82,-88.58 108.82,-82.26"/>
</g>
<!-- Node23&#45;&gt;Node16 -->
<g id="edge35" class="edge">
<title>Node23&#45;&gt;Node16</title>
<path fill="none" stroke="midnightblue" d="M782.87,-195.84C779.18,-174.67 769.64,-119.95 764.6,-91.03"/>
<polygon fill="midnightblue" stroke="midnightblue" points="768.02,-90.27 762.86,-81.02 761.13,-91.47 768.02,-90.27"/>
</g>
<!-- Node23&#45;&gt;Node20 -->
<g id="edge39" class="edge">
<title>Node23&#45;&gt;Node20</title>
<path fill="none" stroke="midnightblue" d="M832.4,-195.97C858.41,-188.95 889.08,-176.34 908.38,-154 923.44,-136.55 927.53,-109.53 928.45,-91.44"/>
<polygon fill="midnightblue" stroke="midnightblue" points="931.95,-91.34 928.68,-81.26 924.95,-91.18 931.95,-91.34"/>
</g>
<!-- Node23&#45;&gt;Node21 -->
<g id="edge41" class="edge">
<title>Node23&#45;&gt;Node21</title>
<path fill="none" stroke="midnightblue" d="M779.48,-195.95C770.25,-180.3 749.07,-146.49 725.38,-123 713.86,-111.58 699.53,-100.86 686.76,-92.27"/>
<polygon fill="midnightblue" stroke="midnightblue" points="688.51,-89.23 678.23,-86.67 684.68,-95.08 688.51,-89.23"/>
</g>
<!-- Node24 -->
<g id="node24" class="node">
<title>Node24</title>
<g id="a_node24"><a xlink:title=" ">
<polygon fill="white" stroke="#bfbfbf" points="810.38,-129 810.38,-148 866.38,-148 866.38,-129 810.38,-129"/>
<text text-anchor="middle" x="838.38" y="-136" font-family="Helvetica,sans-Serif" font-size="10.00">sstream</text>
</a>
</g>
</g>
<!-- Node23&#45;&gt;Node24 -->
<g id="edge37" class="edge">
<title>Node23&#45;&gt;Node24</title>
<path fill="none" stroke="midnightblue" d="M791.66,-195.73C800.08,-185.6 814.13,-168.69 824.62,-156.06"/>
<polygon fill="midnightblue" stroke="midnightblue" points="827.51,-158.06 831.21,-148.13 822.13,-153.58 827.51,-158.06"/>
</g>
<!-- Node25&#45;&gt;Node4 -->
<g id="edge44" class="edge">
<title>Node25&#45;&gt;Node4</title>
<path fill="none" stroke="midnightblue" d="M1023.36,-123.25C1035.52,-105.61 1051.42,-75.54 1035.38,-56 1011.12,-26.47 897.56,-15.98 840.82,-12.54"/>
<polygon fill="midnightblue" stroke="midnightblue" points="840.77,-9.03 830.59,-11.96 840.38,-16.02 840.77,-9.03"/>
</g>
<!-- Node25&#45;&gt;Node17 -->
<g id="edge43" class="edge">
<title>Node25&#45;&gt;Node17</title>
<path fill="none" stroke="midnightblue" d="M1009.34,-123.4C1007.31,-113.96 1004.61,-101.45 1002.4,-91.19"/>
<polygon fill="midnightblue" stroke="midnightblue" points="1005.78,-90.23 1000.25,-81.19 998.93,-91.71 1005.78,-90.23"/>
</g>
<!-- Node25&#45;&gt;Node20 -->
<g id="edge45" class="edge">
<title>Node25&#45;&gt;Node20</title>
<path fill="none" stroke="midnightblue" d="M994.15,-123.4C980.4,-112.76 961.59,-98.2 947.61,-87.38"/>
<polygon fill="midnightblue" stroke="midnightblue" points="949.66,-84.55 939.61,-81.19 945.38,-90.08 949.66,-84.55"/>
</g>
</g>
</svg>
        <g id="navigator" transform="translate(0 0)" fill="#404254">
                <rect fill="#f2f5e9" fill-opacity="0.5" stroke="#606060" stroke-width=".5" x="0" y="0" width="60" height="60"/>
                <use id="zoomplus" xlink:href="#zoomPlus" x="17" y="9" onmousedown="handleZoom(evt,'in')"/>
                <use id="zoomminus" xlink:href="#zoomMin" x="42" y="9" onmousedown="handleZoom(evt,'out')"/>
                <use id="reset" xlink:href="#resetDef" x="30" y="36" onmousedown="handleReset()"/>
                <g id="arrowUp" xlink:href="#dirArrow" transform="translate(30 24)" onmousedown="handlePan(0,-1)">
                  <use xlink:href="#rim" fill="#404040">
                        <set attributeName="fill" to="#808080" begin="arrowUp.mouseover" end="arrowUp.mouseout"/>
                  </use>
                  <path fill="none" stroke="white" stroke-width="1.5" d="M0,-3.0v7 M-2.5,-0.5L0,-3.0L2.5,-0.5"/>
                </g>
                <g id="arrowRight" xlink:href="#dirArrow" transform="rotate(90) translate(36 -43)" onmousedown="handlePan(1,0)">
                  <use xlink:href="#rim" fill="#404040">
                        <set attributeName="fill" to="#808080" begin="arrowRight.mouseover" end="arrowRight.mouseout"/>
                  </use>
                  <path fill="none" stroke="white" stroke-width="1.5" d="M0,-3.0v7 M-2.5,-0.5L0,-3.0L2.5,-0.5"/>
                </g>
                <g id="arrowDown" xlink:href="#dirArrow" transform="rotate(180) translate(-30 -48)" onmousedown="handlePan(0,1)">
                  <use xlink:href="#rim" fill="#404040">
                        <set attributeName="fill" to="#808080" begin="arrowDown.mouseover" end="arrowDown.mouseout"/>
                  </use>
                  <path fill="none" stroke="white" stroke-width="1.5" d="M0,-3.0v7 M-2.5,-0.5L0,-3.0L2.5,-0.5"/>
                </g>
                <g id="arrowLeft" xlink:href="#dirArrow" transform="rotate(270) translate(-36 17)" onmousedown="handlePan(-1,0)">
                  <use xlink:href="#rim" fill="#404040">
                        <set attributeName="fill" to="#808080" begin="arrowLeft.mouseover" end="arrowLeft.mouseout"/>
                  </use>
                  <path fill="none" stroke="white" stroke-width="1.5" d="M0,-3.0v7 M-2.5,-0.5L0,-3.0L2.5,-0.5"/>
                </g>
        </g>
        <svg viewBox="0 0 15 15" width="100%" height="30px" preserveAspectRatio="xMaxYMin meet">
         <g id="arrow_out" transform="scale(0.3 0.3)">
          <a xlink:href="maliput__plugin__manager_8cc__incl_org.svg" target="_base">
           <rect id="button" ry="5" rx="5" y="6" x="6" height="38" width="38"
                fill="#f2f5e9" fill-opacity="0.5" stroke="#606060" stroke-width="1.0"/>
           <path id="arrow"
             d="M 11.500037,31.436501 C 11.940474,20.09759 22.043105,11.32322 32.158766,21.979434 L 37.068811,17.246167 C 37.068811,17.246167 37.088388,32 37.088388,32 L 22.160133,31.978069 C 22.160133,31.978069 26.997745,27.140456 26.997745,27.140456 C 18.528582,18.264221 13.291696,25.230495 11.500037,31.436501 z"
             style="fill:#404040;"/>
          </a>
         </g>
        </svg>
</svg>
