<?xml version="1.0" encoding="UTF-8" standalone="no"?>
<!DOCTYPE svg PUBLIC "-//W3C//DTD SVG 1.1//EN"
 "http://www.w3.org/Graphics/SVG/1.1/DTD/svg11.dtd">
<!-- Generated by graphviz version 2.40.1 (20161225.0304)
 -->
<!-- Title: maliput_types_compare.cc Pages: 1 -->
<svg width="761pt" height="520pt"
 viewBox="0.00 0.00 761.00 520.00" xmlns="http://www.w3.org/2000/svg" xmlns:xlink="http://www.w3.org/1999/xlink">
<g id="graph0" class="graph" transform="scale(1 1) rotate(0) translate(4 516)">
<title>maliput_types_compare.cc</title>
<polygon fill="#ffffff" stroke="transparent" points="-4,4 -4,-516 757,-516 757,4 -4,4"/>
<!-- Node0 -->
<g id="node1" class="node">
<title>Node0</title>
<polygon fill="#bfbfbf" stroke="#000000" points="605,-492.5 605,-511.5 753,-511.5 753,-492.5 605,-492.5"/>
<text text-anchor="middle" x="679" y="-499.5" font-family="Helvetica,sans-Serif" font-size="10.00" fill="#000000">maliput_types_compare.cc</text>
</g>
<!-- Node1 -->
<g id="node2" class="node">
<title>Node1</title>
<g id="a_node2"><a xlink:href="maliput__types__compare_8h.html" target="_top" xlink:title="maliput/test_utilities\l/maliput_types_compare.h">
<polygon fill="#ffffff" stroke="#000000" points="354,-425.5 354,-455.5 500,-455.5 500,-425.5 354,-425.5"/>
<text text-anchor="start" x="362" y="-443.5" font-family="Helvetica,sans-Serif" font-size="10.00" fill="#000000">maliput/test_utilities</text>
<text text-anchor="middle" x="427" y="-432.5" font-family="Helvetica,sans-Serif" font-size="10.00" fill="#000000">/maliput_types_compare.h</text>
</a>
</g>
</g>
<!-- Node0&#45;&gt;Node1 -->
<g id="edge1" class="edge">
<title>Node0&#45;&gt;Node1</title>
<path fill="none" stroke="#191970" d="M639.9015,-492.4581C602.2931,-483.2799 544.5456,-469.1867 498.6771,-457.9926"/>
<polygon fill="#191970" stroke="#191970" points="499.3295,-454.5492 488.7848,-455.5784 497.6698,-461.3496 499.3295,-454.5492"/>
</g>
<!-- Node6 -->
<g id="node7" class="node">
<title>Node6</title>
<polygon fill="#ffffff" stroke="#bfbfbf" points="638,-.5 638,-19.5 682,-19.5 682,-.5 638,-.5"/>
<text text-anchor="middle" x="660" y="-7.5" font-family="Helvetica,sans-Serif" font-size="10.00" fill="#000000">string</text>
</g>
<!-- Node0&#45;&gt;Node6 -->
<g id="edge36" class="edge">
<title>Node0&#45;&gt;Node6</title>
<path fill="none" stroke="#191970" d="M684.1248,-492.4277C694.4972,-472.1328 717,-423.0296 717,-379 717,-379 717,-379 717,-133 717,-92.2759 690.9598,-50.411 674.0807,-27.552"/>
<polygon fill="#191970" stroke="#191970" points="676.7796,-25.3194 667.9256,-19.5006 671.2185,-29.5708 676.7796,-25.3194"/>
</g>
<!-- Node17 -->
<g id="node18" class="node">
<title>Node17</title>
<polygon fill="#ffffff" stroke="#bfbfbf" points="584.5,-185 584.5,-204 631.5,-204 631.5,-185 584.5,-185"/>
<text text-anchor="middle" x="608" y="-192" font-family="Helvetica,sans-Serif" font-size="10.00" fill="#000000">cmath</text>
</g>
<!-- Node0&#45;&gt;Node17 -->
<g id="edge35" class="edge">
<title>Node0&#45;&gt;Node17</title>
<path fill="none" stroke="#191970" d="M679,-492.4309C679,-471.738 679,-421.2813 679,-379 679,-379 679,-379 679,-317.5 679,-274.8983 646.6576,-233.7729 625.6304,-211.5373"/>
<polygon fill="#191970" stroke="#191970" points="627.9737,-208.9278 618.4763,-204.2321 622.9725,-213.8256 627.9737,-208.9278"/>
</g>
<!-- Node2 -->
<g id="node3" class="node">
<title>Node2</title>
<polygon fill="#ffffff" stroke="#bfbfbf" points="265,-369.5 265,-388.5 343,-388.5 343,-369.5 265,-369.5"/>
<text text-anchor="middle" x="304" y="-376.5" font-family="Helvetica,sans-Serif" font-size="10.00" fill="#000000">gtest/gtest.h</text>
</g>
<!-- Node1&#45;&gt;Node2 -->
<g id="edge2" class="edge">
<title>Node1&#45;&gt;Node2</title>
<path fill="none" stroke="#191970" d="M396.9108,-425.4554C377.1981,-415.599 351.5998,-402.7999 332.2653,-393.1327"/>
<polygon fill="#191970" stroke="#191970" points="333.5702,-389.872 323.0606,-388.5303 330.4397,-396.133 333.5702,-389.872"/>
</g>
<!-- Node3 -->
<g id="node4" class="node">
<title>Node3</title>
<g id="a_node4"><a xlink:href="lane__data_8h.html" target="_top" xlink:title="maliput/api/lane_data.h">
<polygon fill="#ffffff" stroke="#000000" points="361,-369.5 361,-388.5 493,-388.5 493,-369.5 361,-369.5"/>
<text text-anchor="middle" x="427" y="-376.5" font-family="Helvetica,sans-Serif" font-size="10.00" fill="#000000">maliput/api/lane_data.h</text>
</a>
</g>
</g>
<!-- Node1&#45;&gt;Node3 -->
<g id="edge3" class="edge">
<title>Node1&#45;&gt;Node3</title>
<path fill="none" stroke="#191970" d="M427,-425.2977C427,-417.3834 427,-407.6043 427,-399.0759"/>
<polygon fill="#191970" stroke="#191970" points="430.5001,-398.8469 427,-388.8469 423.5001,-398.847 430.5001,-398.8469"/>
</g>
<!-- Node4 -->
<g id="node5" class="node">
<title>Node4</title>
<polygon fill="#ffffff" stroke="#bfbfbf" points="424.5,-308 424.5,-327 489.5,-327 489.5,-308 424.5,-308"/>
<text text-anchor="middle" x="457" y="-315" font-family="Helvetica,sans-Serif" font-size="10.00" fill="#000000">functional</text>
</g>
<!-- Node3&#45;&gt;Node4 -->
<g id="edge4" class="edge">
<title>Node3&#45;&gt;Node4</title>
<path fill="none" stroke="#191970" d="M431.6875,-369.3906C435.9773,-360.5965 442.4482,-347.3312 447.7734,-336.4145"/>
<polygon fill="#191970" stroke="#191970" points="451.0078,-337.7671 452.2464,-327.2449 444.7164,-334.6981 451.0078,-337.7671"/>
</g>
<!-- Node5 -->
<g id="node6" class="node">
<title>Node5</title>
<polygon fill="#ffffff" stroke="#bfbfbf" points="407.5,-185 407.5,-204 464.5,-204 464.5,-185 407.5,-185"/>
<text text-anchor="middle" x="436" y="-192" font-family="Helvetica,sans-Serif" font-size="10.00" fill="#000000">ostream</text>
</g>
<!-- Node3&#45;&gt;Node5 -->
<g id="edge5" class="edge">
<title>Node3&#45;&gt;Node5</title>
<path fill="none" stroke="#191970" d="M423.9625,-369.2499C421.2565,-360.0202 417.4999,-345.7215 416,-333 414.3867,-319.317 411.8824,-315.1481 416,-302 421.8216,-283.4106 435.1784,-284.5894 441,-266 443.6565,-257.5173 441.43,-254.8785 441,-246 440.494,-235.5527 439.414,-223.9549 438.3867,-214.4145"/>
<polygon fill="#191970" stroke="#191970" points="441.85,-213.8928 437.2426,-204.3522 434.8948,-214.6837 441.85,-213.8928"/>
</g>
<!-- Node3&#45;&gt;Node6 -->
<g id="edge6" class="edge">
<title>Node3&#45;&gt;Node6</title>
<path fill="none" stroke="#191970" d="M466.2988,-369.44C490.6085,-362.1954 521.5418,-350.4615 545,-333 600.6269,-291.593 615.3604,-274.4321 641,-210 665.6692,-148.0065 664.0795,-66.9852 661.7,-29.9896"/>
<polygon fill="#191970" stroke="#191970" points="665.1601,-29.3196 660.932,-19.605 658.1792,-29.836 665.1601,-29.3196"/>
</g>
<!-- Node7 -->
<g id="node8" class="node">
<title>Node7</title>
<g id="a_node8"><a xlink:href="maliput__copyable_8h.html" target="_top" xlink:title="Code in this file is inspired by: https://github.com/RobotLocomotion/drake/blob/master/common/drake_c...">
<polygon fill="#ffffff" stroke="#000000" points="0,-179.5 0,-209.5 140,-209.5 140,-179.5 0,-179.5"/>
<text text-anchor="start" x="8" y="-197.5" font-family="Helvetica,sans-Serif" font-size="10.00" fill="#000000">maliput/common/maliput</text>
<text text-anchor="middle" x="70" y="-186.5" font-family="Helvetica,sans-Serif" font-size="10.00" fill="#000000">_copyable.h</text>
</a>
</g>
</g>
<!-- Node3&#45;&gt;Node7 -->
<g id="edge7" class="edge">
<title>Node3&#45;&gt;Node7</title>
<path fill="none" stroke="#191970" d="M360.7073,-369.5043C291.1564,-359.1376 189.7392,-342.7211 174,-333 129.0216,-305.2198 96.771,-250.2732 80.9802,-218.5767"/>
<polygon fill="#191970" stroke="#191970" points="84.1161,-217.0216 76.6122,-209.5421 77.814,-220.0686 84.1161,-217.0216"/>
</g>
<!-- Node8 -->
<g id="node9" class="node">
<title>Node8</title>
<g id="a_node9"><a xlink:href="maliput__throw_8h.html" target="_top" xlink:title="Code in this file is inspired by: https://github.com/RobotLocomotion/drake/blob/master/common/drake_t...">
<polygon fill="#ffffff" stroke="#000000" points="489,-56.5 489,-86.5 629,-86.5 629,-56.5 489,-56.5"/>
<text text-anchor="start" x="497" y="-74.5" font-family="Helvetica,sans-Serif" font-size="10.00" fill="#000000">maliput/common/maliput</text>
<text text-anchor="middle" x="559" y="-63.5" font-family="Helvetica,sans-Serif" font-size="10.00" fill="#000000">_throw.h</text>
</a>
</g>
</g>
<!-- Node3&#45;&gt;Node8 -->
<g id="edge8" class="edge">
<title>Node3&#45;&gt;Node8</title>
<path fill="none" stroke="#191970" d="M457.0722,-369.4289C476.4344,-362.0186 501.0581,-350.1052 518,-333 544.8554,-305.8857 556,-294.1627 556,-256 556,-256 556,-256 556,-194.5 556,-160.6352 557.1506,-121.5414 558.0266,-96.6832"/>
<polygon fill="#191970" stroke="#191970" points="561.5258,-96.7668 558.3929,-86.6457 554.5305,-96.5114 561.5258,-96.7668"/>
</g>
<!-- Node9 -->
<g id="node10" class="node">
<title>Node9</title>
<g id="a_node10"><a xlink:href="matrix_8h.html" target="_top" xlink:title="maliput/math/matrix.h">
<polygon fill="#ffffff" stroke="#000000" points="158.5,-185 158.5,-204 285.5,-204 285.5,-185 158.5,-185"/>
<text text-anchor="middle" x="222" y="-192" font-family="Helvetica,sans-Serif" font-size="10.00" fill="#000000">maliput/math/matrix.h</text>
</a>
</g>
</g>
<!-- Node3&#45;&gt;Node9 -->
<g id="edge10" class="edge">
<title>Node3&#45;&gt;Node9</title>
<path fill="none" stroke="#191970" d="M368.1511,-369.4896C299.8339,-358.1678 195.7079,-339.9223 190,-333 161.0835,-297.9314 190.3386,-241.634 209.0295,-212.8059"/>
<polygon fill="#191970" stroke="#191970" points="212.1753,-214.4009 214.8638,-204.1529 206.3713,-210.4875 212.1753,-214.4009"/>
</g>
<!-- Node15 -->
<g id="node16" class="node">
<title>Node15</title>
<g id="a_node16"><a xlink:href="vector_8h.html" target="_top" xlink:title="maliput/math/vector.h">
<polygon fill="#ffffff" stroke="#000000" points="288.5,-123.5 288.5,-142.5 413.5,-142.5 413.5,-123.5 288.5,-123.5"/>
<text text-anchor="middle" x="351" y="-130.5" font-family="Helvetica,sans-Serif" font-size="10.00" fill="#000000">maliput/math/vector.h</text>
</a>
</g>
</g>
<!-- Node3&#45;&gt;Node15 -->
<g id="edge34" class="edge">
<title>Node3&#45;&gt;Node15</title>
<path fill="none" stroke="#191970" d="M453.9644,-369.4934C470.1714,-362.2188 489.4508,-350.4326 499,-333 520.2611,-294.1868 524.0056,-237.5656 474,-179 460.2599,-162.9079 440.3154,-152.4378 420.4713,-145.6284"/>
<polygon fill="#191970" stroke="#191970" points="421.355,-142.2373 410.7654,-142.5711 419.2518,-148.9139 421.355,-142.2373"/>
</g>
<!-- Node16 -->
<g id="node17" class="node">
<title>Node16</title>
<g id="a_node17"><a xlink:href="quaternion_8h.html" target="_top" xlink:title="Code in this file is inspired by: https://gitlab.com/libeigen/eigen/&#45;/blob/master/Eigen/src/Geometry/...">
<polygon fill="#ffffff" stroke="#000000" points="284.5,-246.5 284.5,-265.5 431.5,-265.5 431.5,-246.5 284.5,-246.5"/>
<text text-anchor="middle" x="358" y="-253.5" font-family="Helvetica,sans-Serif" font-size="10.00" fill="#000000">maliput/math/quaternion.h</text>
</a>
</g>
</g>
<!-- Node3&#45;&gt;Node16 -->
<g id="edge23" class="edge">
<title>Node3&#45;&gt;Node16</title>
<path fill="none" stroke="#191970" d="M414.6624,-369.2718C404.564,-360.7081 390.5911,-347.3883 382,-333 371.2683,-315.0266 364.886,-291.7857 361.433,-275.5591"/>
<polygon fill="#191970" stroke="#191970" points="364.84,-274.7435 359.4931,-265.5969 357.9691,-276.0816 364.84,-274.7435"/>
</g>
<!-- Node18 -->
<g id="node19" class="node">
<title>Node18</title>
<g id="a_node19"><a xlink:href="roll__pitch__yaw_8h.html" target="_top" xlink:title="Code in this file is inspired by: https://github.com/RobotLocomotion/drake/blob/master/math/roll_pitc...">
<polygon fill="#ffffff" stroke="#000000" points="198.5,-302.5 198.5,-332.5 329.5,-332.5 329.5,-302.5 198.5,-302.5"/>
<text text-anchor="start" x="206.5" y="-320.5" font-family="Helvetica,sans-Serif" font-size="10.00" fill="#000000">maliput/math/roll_pitch</text>
<text text-anchor="middle" x="264" y="-309.5" font-family="Helvetica,sans-Serif" font-size="10.00" fill="#000000">_yaw.h</text>
</a>
</g>
</g>
<!-- Node3&#45;&gt;Node18 -->
<g id="edge29" class="edge">
<title>Node3&#45;&gt;Node18</title>
<path fill="none" stroke="#191970" d="M401.5313,-369.3906C378.0414,-360.5279 342.5155,-347.1239 313.455,-336.1594"/>
<polygon fill="#191970" stroke="#191970" points="314.466,-332.8001 303.8743,-332.5446 311.9949,-339.3494 314.466,-332.8001"/>
</g>
<!-- Node8&#45;&gt;Node6 -->
<g id="edge9" class="edge">
<title>Node8&#45;&gt;Node6</title>
<path fill="none" stroke="#191970" d="M583.7074,-56.4554C599.5247,-46.8241 619.9567,-34.3828 635.6949,-24.7996"/>
<polygon fill="#191970" stroke="#191970" points="637.6277,-27.7206 644.3486,-19.5303 633.9871,-21.7418 637.6277,-27.7206"/>
</g>
<!-- Node10 -->
<g id="node11" class="node">
<title>Node10</title>
<polygon fill="#ffffff" stroke="#bfbfbf" points="96,-62 96,-81 160,-81 160,-62 96,-62"/>
<text text-anchor="middle" x="128" y="-69" font-family="Helvetica,sans-Serif" font-size="10.00" fill="#000000">algorithm</text>
</g>
<!-- Node9&#45;&gt;Node10 -->
<g id="edge11" class="edge">
<title>Node9&#45;&gt;Node10</title>
<path fill="none" stroke="#191970" d="M214.624,-184.8484C198.8367,-164.1906 161.5773,-115.4362 141.4536,-89.1042"/>
<polygon fill="#191970" stroke="#191970" points="144.1948,-86.927 135.3418,-81.1068 138.633,-91.1775 144.1948,-86.927"/>
</g>
<!-- Node11 -->
<g id="node12" class="node">
<title>Node11</title>
<polygon fill="#ffffff" stroke="#bfbfbf" points="178,-62 178,-81 220,-81 220,-62 178,-62"/>
<text text-anchor="middle" x="199" y="-69" font-family="Helvetica,sans-Serif" font-size="10.00" fill="#000000">array</text>
</g>
<!-- Node9&#45;&gt;Node11 -->
<g id="edge12" class="edge">
<title>Node9&#45;&gt;Node11</title>
<path fill="none" stroke="#191970" d="M218.9018,-184.7243C215.7457,-174.4367 210.9132,-157.7246 208,-143 204.5895,-125.7618 202.2122,-105.9166 200.761,-91.5139"/>
<polygon fill="#191970" stroke="#191970" points="204.2196,-90.9099 199.7936,-81.2839 197.2507,-91.569 204.2196,-90.9099"/>
</g>
<!-- Node12 -->
<g id="node13" class="node">
<title>Node12</title>
<polygon fill="#ffffff" stroke="#bfbfbf" points="238.5,-62 238.5,-81 291.5,-81 291.5,-62 238.5,-62"/>
<text text-anchor="middle" x="265" y="-69" font-family="Helvetica,sans-Serif" font-size="10.00" fill="#000000">cstddef</text>
</g>
<!-- Node9&#45;&gt;Node12 -->
<g id="edge13" class="edge">
<title>Node9&#45;&gt;Node12</title>
<path fill="none" stroke="#191970" d="M225.17,-184.7543C229.6787,-170.9634 238.2572,-144.9833 246,-123 249.7665,-112.3061 254.1356,-100.4294 257.7338,-90.7786"/>
<polygon fill="#191970" stroke="#191970" points="261.0385,-91.9339 261.2707,-81.3416 254.4837,-89.4772 261.0385,-91.9339"/>
</g>
<!-- Node13 -->
<g id="node14" class="node">
<title>Node13</title>
<polygon fill="#ffffff" stroke="#bfbfbf" points="309.5,-62 309.5,-81 392.5,-81 392.5,-62 309.5,-62"/>
<text text-anchor="middle" x="351" y="-69" font-family="Helvetica,sans-Serif" font-size="10.00" fill="#000000">initializer_list</text>
</g>
<!-- Node9&#45;&gt;Node13 -->
<g id="edge14" class="edge">
<title>Node9&#45;&gt;Node13</title>
<path fill="none" stroke="#191970" d="M228.778,-184.5686C238.9248,-170.0974 259.1143,-142.7875 280,-123 294.4638,-109.2967 312.6899,-96.1477 327.0541,-86.5661"/>
<polygon fill="#191970" stroke="#191970" points="328.9769,-89.4907 335.4305,-81.0882 325.1456,-83.6322 328.9769,-89.4907"/>
</g>
<!-- Node14 -->
<g id="node15" class="node">
<title>Node14</title>
<polygon fill="#ffffff" stroke="#bfbfbf" points="411,-62 411,-81 471,-81 471,-62 411,-62"/>
<text text-anchor="middle" x="441" y="-69" font-family="Helvetica,sans-Serif" font-size="10.00" fill="#000000">iostream</text>
</g>
<!-- Node9&#45;&gt;Node14 -->
<g id="edge15" class="edge">
<title>Node9&#45;&gt;Node14</title>
<path fill="none" stroke="#191970" d="M285.509,-185.4273C336.8855,-176.8222 403.7454,-162.3356 423,-143 436.3734,-129.5703 440.2985,-107.7577 441.2309,-91.7514"/>
<polygon fill="#191970" stroke="#191970" points="444.7399,-91.4041 441.4733,-81.3255 437.7418,-91.2414 444.7399,-91.4041"/>
</g>
<!-- Node9&#45;&gt;Node15 -->
<g id="edge16" class="edge">
<title>Node9&#45;&gt;Node15</title>
<path fill="none" stroke="#191970" d="M242.1563,-184.8906C263.551,-174.6908 297.562,-158.4763 321.8702,-146.8875"/>
<polygon fill="#191970" stroke="#191970" points="323.4648,-150.0047 330.9853,-142.5419 320.4524,-143.686 323.4648,-150.0047"/>
</g>
<!-- Node15&#45;&gt;Node8 -->
<g id="edge22" class="edge">
<title>Node15&#45;&gt;Node8</title>
<path fill="none" stroke="#191970" d="M383.5,-123.3906C414.1264,-114.3352 460.7867,-100.539 498.2983,-89.4479"/>
<polygon fill="#191970" stroke="#191970" points="499.5203,-92.7364 508.1175,-86.5446 497.5355,-86.0237 499.5203,-92.7364"/>
</g>
<!-- Node15&#45;&gt;Node10 -->
<g id="edge17" class="edge">
<title>Node15&#45;&gt;Node10</title>
<path fill="none" stroke="#191970" d="M307.588,-123.4946C270.4695,-115.0191 215.7928,-101.7058 169,-87 166.5862,-86.2414 164.1077,-85.4184 161.6221,-84.5604"/>
<polygon fill="#191970" stroke="#191970" points="162.7163,-81.2345 152.1219,-81.1411 160.3457,-87.8209 162.7163,-81.2345"/>
</g>
<!-- Node15&#45;&gt;Node11 -->
<g id="edge18" class="edge">
<title>Node15&#45;&gt;Node11</title>
<path fill="none" stroke="#191970" d="M323.2908,-123.362C298.5578,-114.548 261.4873,-100.8154 230,-87 228.9806,-86.5527 227.9467,-86.0892 226.9056,-85.614"/>
<polygon fill="#191970" stroke="#191970" points="228.0768,-82.295 217.544,-81.1506 225.0643,-88.6136 228.0768,-82.295"/>
</g>
<!-- Node15&#45;&gt;Node12 -->
<g id="edge19" class="edge">
<title>Node15&#45;&gt;Node12</title>
<path fill="none" stroke="#191970" d="M337.5625,-123.3906C323.9305,-113.6421 302.6154,-98.3994 286.6078,-86.9521"/>
<polygon fill="#191970" stroke="#191970" points="288.5132,-84.0118 278.3431,-81.0419 284.4414,-89.7057 288.5132,-84.0118"/>
</g>
<!-- Node15&#45;&gt;Node13 -->
<g id="edge20" class="edge">
<title>Node15&#45;&gt;Node13</title>
<path fill="none" stroke="#191970" d="M351,-123.3906C351,-114.8657 351,-102.1392 351,-91.4235"/>
<polygon fill="#191970" stroke="#191970" points="354.5001,-91.2448 351,-81.2449 347.5001,-91.2449 354.5001,-91.2448"/>
</g>
<!-- Node15&#45;&gt;Node14 -->
<g id="edge21" class="edge">
<title>Node15&#45;&gt;Node14</title>
<path fill="none" stroke="#191970" d="M365.0625,-123.3906C379.3286,-113.6421 401.635,-98.3994 418.3872,-86.9521"/>
<polygon fill="#191970" stroke="#191970" points="420.7545,-89.5736 427.0362,-81.0419 416.8051,-83.7941 420.7545,-89.5736"/>
</g>
<!-- Node16&#45;&gt;Node5 -->
<g id="edge25" class="edge">
<title>Node16&#45;&gt;Node5</title>
<path fill="none" stroke="#191970" d="M370.1875,-246.3906C382.437,-236.7324 401.5263,-221.6812 415.9977,-210.271"/>
<polygon fill="#191970" stroke="#191970" points="418.2124,-212.9819 423.8981,-204.0419 413.8783,-207.485 418.2124,-212.9819"/>
</g>
<!-- Node16&#45;&gt;Node7 -->
<g id="edge26" class="edge">
<title>Node16&#45;&gt;Node7</title>
<path fill="none" stroke="#191970" d="M313.316,-246.4581C269.8261,-237.1712 202.772,-222.8523 150.0606,-211.5963"/>
<polygon fill="#191970" stroke="#191970" points="150.5683,-208.1259 140.0579,-209.4603 149.1064,-214.9715 150.5683,-208.1259"/>
</g>
<!-- Node16&#45;&gt;Node9 -->
<g id="edge27" class="edge">
<title>Node16&#45;&gt;Node9</title>
<path fill="none" stroke="#191970" d="M336.75,-246.3906C314.0945,-236.1457 278.0202,-219.8326 252.3709,-208.2339"/>
<polygon fill="#191970" stroke="#191970" points="253.6546,-204.9732 243.1008,-204.0419 250.7703,-211.3514 253.6546,-204.9732"/>
</g>
<!-- Node16&#45;&gt;Node15 -->
<g id="edge28" class="edge">
<title>Node16&#45;&gt;Node15</title>
<path fill="none" stroke="#191970" d="M357.4507,-246.3484C356.3057,-226.2295 353.6441,-179.4608 352.1217,-152.7098"/>
<polygon fill="#191970" stroke="#191970" points="355.6094,-152.3917 351.5467,-142.6068 348.6207,-152.7895 355.6094,-152.3917"/>
</g>
<!-- Node16&#45;&gt;Node17 -->
<g id="edge24" class="edge">
<title>Node16&#45;&gt;Node17</title>
<path fill="none" stroke="#191970" d="M396.7882,-246.4581C445.4954,-234.4761 528.2526,-214.1179 574.3889,-202.7683"/>
<polygon fill="#191970" stroke="#191970" points="575.3235,-206.1429 584.1979,-200.3553 573.6513,-199.3455 575.3235,-206.1429"/>
</g>
<!-- Node18&#45;&gt;Node7 -->
<g id="edge30" class="edge">
<title>Node18&#45;&gt;Node7</title>
<path fill="none" stroke="#191970" d="M240.2118,-302.4178C205.6477,-280.5035 141.4331,-239.79 102.5214,-215.1192"/>
<polygon fill="#191970" stroke="#191970" points="103.9988,-211.9117 93.679,-209.513 100.2505,-217.8237 103.9988,-211.9117"/>
</g>
<!-- Node18&#45;&gt;Node9 -->
<g id="edge31" class="edge">
<title>Node18&#45;&gt;Node9</title>
<path fill="none" stroke="#191970" d="M256.9221,-302.3832C252.3224,-292.2286 246.3876,-278.4736 242,-266 235.9332,-248.7527 230.4493,-228.6675 226.7649,-214.1841"/>
<polygon fill="#191970" stroke="#191970" points="230.1271,-213.2008 224.3183,-204.3403 223.3338,-214.8893 230.1271,-213.2008"/>
</g>
<!-- Node18&#45;&gt;Node15 -->
<g id="edge33" class="edge">
<title>Node18&#45;&gt;Node15</title>
<path fill="none" stroke="#191970" d="M264.7178,-302.2202C265.8362,-287.3976 268.6952,-264.497 276,-246 283.8526,-226.1159 318.3017,-177.5841 337.6645,-151.0511"/>
<polygon fill="#191970" stroke="#191970" points="340.7226,-152.7997 343.8159,-142.6665 335.0786,-148.6589 340.7226,-152.7997"/>
</g>
<!-- Node18&#45;&gt;Node16 -->
<g id="edge32" class="edge">
<title>Node18&#45;&gt;Node16</title>
<path fill="none" stroke="#191970" d="M287.236,-302.2977C301.7334,-292.8127 320.3244,-280.6495 334.8126,-271.1705"/>
<polygon fill="#191970" stroke="#191970" points="336.7782,-274.0671 343.2301,-265.6633 332.9457,-268.2094 336.7782,-274.0671"/>
</g>
</g>
</svg>
