<?xml version="1.0" encoding="UTF-8" standalone="no"?>
<!DOCTYPE svg PUBLIC "-//W3C//DTD SVG 1.1//EN"
 "http://www.w3.org/Graphics/SVG/1.1/DTD/svg11.dtd">
<!-- Generated by graphviz version 2.40.1 (20161225.0304)
 -->
<!-- Title: manual_phase_ring_book.cc Pages: 1 -->
<svg width="2630pt" height="978pt"
 viewBox="0.00 0.00 2629.50 978.00" xmlns="http://www.w3.org/2000/svg" xmlns:xlink="http://www.w3.org/1999/xlink">
<g id="graph0" class="graph" transform="scale(1 1) rotate(0) translate(4 974)">
<title>manual_phase_ring_book.cc</title>
<polygon fill="#ffffff" stroke="transparent" points="-4,4 -4,-974 2625.5,-974 2625.5,4 -4,4"/>
<!-- Node0 -->
<g id="node1" class="node">
<title>Node0</title>
<polygon fill="#bfbfbf" stroke="#000000" points="2364.5,-950.5 2364.5,-969.5 2519.5,-969.5 2519.5,-950.5 2364.5,-950.5"/>
<text text-anchor="middle" x="2442" y="-957.5" font-family="Helvetica,sans-Serif" font-size="10.00" fill="#000000">manual_phase_ring_book.cc</text>
</g>
<!-- Node1 -->
<g id="node2" class="node">
<title>Node1</title>
<g id="a_node2"><a xlink:href="manual__phase__ring__book_8h.html" target="_top" xlink:title="maliput/base/manual\l_phase_ring_book.h">
<polygon fill="#ffffff" stroke="#000000" points="387,-883.5 387,-913.5 507,-913.5 507,-883.5 387,-883.5"/>
<text text-anchor="start" x="395" y="-901.5" font-family="Helvetica,sans-Serif" font-size="10.00" fill="#000000">maliput/base/manual</text>
<text text-anchor="middle" x="447" y="-890.5" font-family="Helvetica,sans-Serif" font-size="10.00" fill="#000000">_phase_ring_book.h</text>
</a>
</g>
</g>
<!-- Node0&#45;&gt;Node1 -->
<g id="edge1" class="edge">
<title>Node0&#45;&gt;Node1</title>
<path fill="none" stroke="#191970" d="M2364.4059,-957.608C2043.7594,-947.7234 824.538,-910.1384 517.5118,-900.6737"/>
<polygon fill="#191970" stroke="#191970" points="517.509,-897.172 507.4058,-900.3621 517.2932,-904.1687 517.509,-897.172"/>
</g>
<!-- Node6 -->
<g id="node7" class="node">
<title>Node6</title>
<polygon fill="#ffffff" stroke="#bfbfbf" points="484.5,-375 484.5,-394 577.5,-394 577.5,-375 484.5,-375"/>
<text text-anchor="middle" x="531" y="-382" font-family="Helvetica,sans-Serif" font-size="10.00" fill="#000000">unordered_map</text>
</g>
<!-- Node0&#45;&gt;Node6 -->
<g id="edge133" class="edge">
<title>Node0&#45;&gt;Node6</title>
<path fill="none" stroke="#191970" d="M2364.3607,-959.6134C2012.514,-957.6795 576.1967,-947.7666 378,-914 261.4083,-894.1364 125,-949.7717 125,-831.5 125,-831.5 125,-831.5 125,-703 125,-606.5246 412.3747,-446.9421 503.5759,-398.7262"/>
<polygon fill="#191970" stroke="#191970" points="505.2782,-401.7855 512.5,-394.0334 502.0201,-395.5899 505.2782,-401.7855"/>
</g>
<!-- Node9 -->
<g id="node10" class="node">
<title>Node9</title>
<polygon fill="#ffffff" stroke="#bfbfbf" points="1999,-.5 1999,-19.5 2043,-19.5 2043,-.5 1999,-.5"/>
<text text-anchor="middle" x="2021" y="-7.5" font-family="Helvetica,sans-Serif" font-size="10.00" fill="#000000">string</text>
</g>
<!-- Node0&#45;&gt;Node9 -->
<g id="edge132" class="edge">
<title>Node0&#45;&gt;Node9</title>
<path fill="none" stroke="#191970" d="M2454.6896,-950.2032C2478.6119,-930.5202 2528,-883.5779 2528,-831.5 2528,-831.5 2528,-831.5 2528,-133 2528,-78.6504 2483.1402,-76.9723 2433,-56 2364.311,-27.2693 2137.5343,-14.9322 2053.0724,-11.2567"/>
<polygon fill="#191970" stroke="#191970" points="2053.1788,-7.7581 2043.0397,-10.832 2052.8827,-14.7519 2053.1788,-7.7581"/>
</g>
<!-- Node18 -->
<g id="node19" class="node">
<title>Node18</title>
<g id="a_node19"><a xlink:href="maliput__throw_8h.html" target="_top" xlink:title="Code in this file is inspired by: https://github.com/RobotLocomotion/drake/blob/master/common/drake_t...">
<polygon fill="#ffffff" stroke="#000000" points="1902,-56.5 1902,-86.5 2042,-86.5 2042,-56.5 1902,-56.5"/>
<text text-anchor="start" x="1910" y="-74.5" font-family="Helvetica,sans-Serif" font-size="10.00" fill="#000000">maliput/common/maliput</text>
<text text-anchor="middle" x="1972" y="-63.5" font-family="Helvetica,sans-Serif" font-size="10.00" fill="#000000">_throw.h</text>
</a>
</g>
</g>
<!-- Node0&#45;&gt;Node18 -->
<g id="edge135" class="edge">
<title>Node0&#45;&gt;Node18</title>
<path fill="none" stroke="#191970" d="M2448.2752,-950.462C2461.2861,-929.7356 2490,-878.653 2490,-831.5 2490,-831.5 2490,-831.5 2490,-451.5 2490,-258.7928 2382.0213,-203.6448 2207,-123 2158.1417,-100.4875 2098.9608,-87.5918 2052.2119,-80.3347"/>
<polygon fill="#191970" stroke="#191970" points="2052.5389,-76.8447 2042.1311,-78.8267 2051.5032,-83.7677 2052.5389,-76.8447"/>
</g>
<!-- Node29 -->
<g id="node30" class="node">
<title>Node29</title>
<polygon fill="#ffffff" stroke="#bfbfbf" points="1920.5,-246.5 1920.5,-265.5 1965.5,-265.5 1965.5,-246.5 1920.5,-246.5"/>
<text text-anchor="middle" x="1943" y="-253.5" font-family="Helvetica,sans-Serif" font-size="10.00" fill="#000000">utility</text>
</g>
<!-- Node0&#45;&gt;Node29 -->
<g id="edge134" class="edge">
<title>Node0&#45;&gt;Node29</title>
<path fill="none" stroke="#191970" d="M2435.1359,-950.3159C2381.3297,-874.405 2027.4895,-375.1996 1955.695,-273.9103"/>
<polygon fill="#191970" stroke="#191970" points="1958.4516,-271.7469 1949.8134,-265.6124 1952.7407,-275.7949 1958.4516,-271.7469"/>
</g>
<!-- Node40 -->
<g id="node41" class="node">
<title>Node40</title>
<polygon fill="#ffffff" stroke="#bfbfbf" points="2556.5,-889 2556.5,-908 2621.5,-908 2621.5,-889 2556.5,-889"/>
<text text-anchor="middle" x="2589" y="-896" font-family="Helvetica,sans-Serif" font-size="10.00" fill="#000000">stdexcept</text>
</g>
<!-- Node0&#45;&gt;Node40 -->
<g id="edge131" class="edge">
<title>Node0&#45;&gt;Node40</title>
<path fill="none" stroke="#191970" d="M2464.9688,-950.3906C2489.6724,-940.0554 2529.137,-923.5447 2556.9027,-911.9284"/>
<polygon fill="#191970" stroke="#191970" points="2558.3182,-915.1303 2566.1925,-908.0419 2555.6165,-908.6727 2558.3182,-915.1303"/>
</g>
<!-- Node2 -->
<g id="node3" class="node">
<title>Node2</title>
<polygon fill="#ffffff" stroke="#bfbfbf" points="786,-375 786,-394 844,-394 844,-375 786,-375"/>
<text text-anchor="middle" x="815" y="-382" font-family="Helvetica,sans-Serif" font-size="10.00" fill="#000000">memory</text>
</g>
<!-- Node1&#45;&gt;Node2 -->
<g id="edge2" class="edge">
<title>Node1&#45;&gt;Node2</title>
<path fill="none" stroke="#191970" d="M425.257,-883.4372C413.8996,-874.2984 400.9518,-861.5946 394,-847 375.2345,-807.6039 378.5906,-791.6106 388,-749 409.4344,-651.9338 432.7008,-626.1455 506,-559 591.8522,-480.3554 719.3388,-422.7297 780.2062,-397.9472"/>
<polygon fill="#191970" stroke="#191970" points="781.7617,-401.0941 789.7337,-394.1156 779.1499,-394.5996 781.7617,-401.0941"/>
</g>
<!-- Node3 -->
<g id="node4" class="node">
<title>Node3</title>
<polygon fill="#ffffff" stroke="#bfbfbf" points="2212,-246.5 2212,-265.5 2268,-265.5 2268,-246.5 2212,-246.5"/>
<text text-anchor="middle" x="2240" y="-253.5" font-family="Helvetica,sans-Serif" font-size="10.00" fill="#000000">optional</text>
</g>
<!-- Node1&#45;&gt;Node3 -->
<g id="edge3" class="edge">
<title>Node1&#45;&gt;Node3</title>
<path fill="none" stroke="#191970" d="M507.009,-897.545C817.2569,-891.9773 2229.6236,-858.7107 2350,-713 2376.159,-681.3356 2449.2604,-838.5561 2352,-369 2345.4188,-337.2269 2344.7975,-326.0356 2323,-302 2310.2327,-287.9218 2292.1179,-277.1908 2276.0674,-269.6489"/>
<polygon fill="#191970" stroke="#191970" points="2277.4711,-266.4427 2266.9118,-265.5758 2274.6258,-272.8384 2277.4711,-266.4427"/>
</g>
<!-- Node4 -->
<g id="node5" class="node">
<title>Node4</title>
<polygon fill="#ffffff" stroke="#bfbfbf" points="432.5,-246.5 432.5,-265.5 479.5,-265.5 479.5,-246.5 432.5,-246.5"/>
<text text-anchor="middle" x="456" y="-253.5" font-family="Helvetica,sans-Serif" font-size="10.00" fill="#000000">vector</text>
</g>
<!-- Node1&#45;&gt;Node4 -->
<g id="edge4" class="edge">
<title>Node1&#45;&gt;Node4</title>
<path fill="none" stroke="#191970" d="M386.7441,-888.8629C284.2609,-870.7531 87,-827.6881 87,-764.5 87,-764.5 87,-764.5 87,-703 87,-645.1251 -20.3511,-659.9433 377,-302 391.2572,-289.1568 409.6689,-278.1843 425.1307,-270.1804"/>
<polygon fill="#191970" stroke="#191970" points="426.9334,-273.1922 434.3131,-265.5902 423.8034,-266.9309 426.9334,-273.1922"/>
</g>
<!-- Node5 -->
<g id="node6" class="node">
<title>Node5</title>
<g id="a_node6"><a xlink:href="phase__ring_8h.html" target="_top" xlink:title="maliput/api/rules/phase\l_ring.h">
<polygon fill="#ffffff" stroke="#000000" points="406.5,-749.5 406.5,-779.5 537.5,-779.5 537.5,-749.5 406.5,-749.5"/>
<text text-anchor="start" x="414.5" y="-767.5" font-family="Helvetica,sans-Serif" font-size="10.00" fill="#000000">maliput/api/rules/phase</text>
<text text-anchor="middle" x="472" y="-756.5" font-family="Helvetica,sans-Serif" font-size="10.00" fill="#000000">_ring.h</text>
</a>
</g>
</g>
<!-- Node1&#45;&gt;Node5 -->
<g id="edge5" class="edge">
<title>Node1&#45;&gt;Node5</title>
<path fill="none" stroke="#191970" d="M449.8192,-883.389C454.058,-860.6691 462.1235,-817.438 467.2723,-789.8405"/>
<polygon fill="#191970" stroke="#191970" points="470.7593,-790.2337 469.1527,-779.7614 463.878,-788.9498 470.7593,-790.2337"/>
</g>
<!-- Node17 -->
<g id="node18" class="node">
<title>Node17</title>
<g id="a_node18"><a xlink:href="maliput__copyable_8h.html" target="_top" xlink:title="Code in this file is inspired by: https://github.com/RobotLocomotion/drake/blob/master/common/drake_c...">
<polygon fill="#ffffff" stroke="#000000" points="580,-179.5 580,-209.5 720,-209.5 720,-179.5 580,-179.5"/>
<text text-anchor="start" x="588" y="-197.5" font-family="Helvetica,sans-Serif" font-size="10.00" fill="#000000">maliput/common/maliput</text>
<text text-anchor="middle" x="650" y="-186.5" font-family="Helvetica,sans-Serif" font-size="10.00" fill="#000000">_copyable.h</text>
</a>
</g>
</g>
<!-- Node1&#45;&gt;Node17 -->
<g id="edge130" class="edge">
<title>Node1&#45;&gt;Node17</title>
<path fill="none" stroke="#191970" d="M386.7156,-893.1442C264.7037,-880.6351 0,-844.3009 0,-764.5 0,-764.5 0,-764.5 0,-384.5 0,-275.2794 100.655,-284.1397 203,-246 268.3052,-221.6635 459.7271,-206.2331 569.7363,-199.1165"/>
<polygon fill="#191970" stroke="#191970" points="570.0383,-202.6044 579.7949,-198.4743 569.5922,-195.6187 570.0383,-202.6044"/>
</g>
<!-- Node34 -->
<g id="node35" class="node">
<title>Node34</title>
<g id="a_node35"><a xlink:href="rule_8h.html" target="_top" xlink:title="maliput/api/rules/rule.h">
<polygon fill="#ffffff" stroke="#000000" points="1616,-565 1616,-584 1746,-584 1746,-565 1616,-565"/>
<text text-anchor="middle" x="1681" y="-572" font-family="Helvetica,sans-Serif" font-size="10.00" fill="#000000">maliput/api/rules/rule.h</text>
</a>
</g>
</g>
<!-- Node1&#45;&gt;Node34 -->
<g id="edge129" class="edge">
<title>Node1&#45;&gt;Node34</title>
<path fill="none" stroke="#191970" d="M507.1237,-895.5491C764.0804,-882.5484 1757,-828.1913 1757,-764.5 1757,-764.5 1757,-764.5 1757,-703 1757,-657.7888 1721.7147,-614.5297 1699.2296,-591.5531"/>
<polygon fill="#191970" stroke="#191970" points="1701.4629,-588.8396 1691.8889,-584.3019 1696.5436,-593.8196 1701.4629,-588.8396"/>
</g>
<!-- Node36 -->
<g id="node37" class="node">
<title>Node36</title>
<g id="a_node37"><a xlink:href="right__of__way__rule_8h.html" target="_top" xlink:title="maliput/api/rules/right\l_of_way_rule.h">
<polygon fill="#ffffff" stroke="#000000" points="515.5,-559.5 515.5,-589.5 640.5,-589.5 640.5,-559.5 515.5,-559.5"/>
<text text-anchor="start" x="523.5" y="-577.5" font-family="Helvetica,sans-Serif" font-size="10.00" fill="#000000">maliput/api/rules/right</text>
<text text-anchor="middle" x="578" y="-566.5" font-family="Helvetica,sans-Serif" font-size="10.00" fill="#000000">_of_way_rule.h</text>
</a>
</g>
</g>
<!-- Node1&#45;&gt;Node36 -->
<g id="edge128" class="edge">
<title>Node1&#45;&gt;Node36</title>
<path fill="none" stroke="#191970" d="M434.6882,-883.3559C414.0556,-856.0272 376.6625,-796.8571 397,-749 426.7866,-678.908 500.0494,-623.3003 543.6885,-594.9925"/>
<polygon fill="#191970" stroke="#191970" points="545.7059,-597.8574 552.2622,-589.5348 541.9468,-591.9523 545.7059,-597.8574"/>
</g>
<!-- Node39 -->
<g id="node40" class="node">
<title>Node39</title>
<g id="a_node40"><a xlink:href="phase__ring__book_8h.html" target="_top" xlink:title="maliput/api/rules/phase\l_ring_book.h">
<polygon fill="#ffffff" stroke="#000000" points="475.5,-816.5 475.5,-846.5 606.5,-846.5 606.5,-816.5 475.5,-816.5"/>
<text text-anchor="start" x="483.5" y="-834.5" font-family="Helvetica,sans-Serif" font-size="10.00" fill="#000000">maliput/api/rules/phase</text>
<text text-anchor="middle" x="541" y="-823.5" font-family="Helvetica,sans-Serif" font-size="10.00" fill="#000000">_ring_book.h</text>
</a>
</g>
</g>
<!-- Node1&#45;&gt;Node39 -->
<g id="edge121" class="edge">
<title>Node1&#45;&gt;Node39</title>
<path fill="none" stroke="#191970" d="M468.3301,-883.2967C481.0697,-874.2163 497.4389,-862.5488 511.4152,-852.587"/>
<polygon fill="#191970" stroke="#191970" points="513.6426,-855.2975 519.7544,-846.6432 509.5797,-849.5973 513.6426,-855.2975"/>
</g>
<!-- Node5&#45;&gt;Node3 -->
<g id="edge6" class="edge">
<title>Node5&#45;&gt;Node3</title>
<path fill="none" stroke="#191970" d="M537.8434,-763.1813C742.1705,-758.3178 1383.1597,-737.2522 1907,-657 2090.8774,-628.83 2300,-699.0227 2300,-513 2300,-513 2300,-513 2300,-384.5 2300,-341.4909 2272.0633,-297.3459 2254.3155,-273.6406"/>
<polygon fill="#191970" stroke="#191970" points="2256.981,-271.3661 2248.0919,-265.6012 2251.4457,-275.6512 2256.981,-271.3661"/>
</g>
<!-- Node5&#45;&gt;Node4 -->
<g id="edge8" class="edge">
<title>Node5&#45;&gt;Node4</title>
<path fill="none" stroke="#191970" d="M461.2099,-749.4305C429.55,-703.3968 340.6838,-560.1912 366,-436 378.9272,-372.5845 391.2786,-358.4127 423,-302 428.4481,-292.3112 435.5229,-282.2054 441.724,-273.9419"/>
<polygon fill="#191970" stroke="#191970" points="444.6619,-275.8633 447.9914,-265.8052 439.1163,-271.5917 444.6619,-275.8633"/>
</g>
<!-- Node5&#45;&gt;Node6 -->
<g id="edge7" class="edge">
<title>Node5&#45;&gt;Node6</title>
<path fill="none" stroke="#191970" d="M474.3859,-749.1329C483.6994,-689.148 517.6019,-470.7928 527.9681,-404.0276"/>
<polygon fill="#191970" stroke="#191970" points="531.4458,-404.4409 529.5215,-394.0223 524.5286,-403.3669 531.4458,-404.4409"/>
</g>
<!-- Node7 -->
<g id="node8" class="node">
<title>Node7</title>
<g id="a_node8"><a xlink:href="phase_8h.html" target="_top" xlink:title="maliput/api/rules/phase.h">
<polygon fill="#ffffff" stroke="#000000" points="690,-693.5 690,-712.5 830,-712.5 830,-693.5 690,-693.5"/>
<text text-anchor="middle" x="760" y="-700.5" font-family="Helvetica,sans-Serif" font-size="10.00" fill="#000000">maliput/api/rules/phase.h</text>
</a>
</g>
</g>
<!-- Node5&#45;&gt;Node7 -->
<g id="edge9" class="edge">
<title>Node5&#45;&gt;Node7</title>
<path fill="none" stroke="#191970" d="M537.712,-750.4677C588.3943,-739.645 657.6661,-724.8525 705.3402,-714.6721"/>
<polygon fill="#191970" stroke="#191970" points="706.1225,-718.0841 715.1711,-712.5728 704.6606,-711.2384 706.1225,-718.0841"/>
</g>
<!-- Node5&#45;&gt;Node17 -->
<g id="edge120" class="edge">
<title>Node5&#45;&gt;Node17</title>
<path fill="none" stroke="#191970" d="M450.7619,-749.4121C372.8098,-692.1083 111.7332,-482.0961 205,-302 223.3218,-266.621 238.391,-261.7207 275,-246 326.4876,-223.8901 475.7894,-208.3836 569.7378,-200.4943"/>
<polygon fill="#191970" stroke="#191970" points="570.1028,-203.9762 579.7796,-199.6623 569.5247,-197.0001 570.1028,-203.9762"/>
</g>
<!-- Node28 -->
<g id="node29" class="node">
<title>Node28</title>
<g id="a_node29"><a xlink:href="type__specific__identifier_8h.html" target="_top" xlink:title="maliput/api/type_specific\l_identifier.h">
<polygon fill="#ffffff" stroke="#000000" points="1480,-369.5 1480,-399.5 1620,-399.5 1620,-369.5 1480,-369.5"/>
<text text-anchor="start" x="1488" y="-387.5" font-family="Helvetica,sans-Serif" font-size="10.00" fill="#000000">maliput/api/type_specific</text>
<text text-anchor="middle" x="1550" y="-376.5" font-family="Helvetica,sans-Serif" font-size="10.00" fill="#000000">_identifier.h</text>
</a>
</g>
</g>
<!-- Node5&#45;&gt;Node28 -->
<g id="edge119" class="edge">
<title>Node5&#45;&gt;Node28</title>
<path fill="none" stroke="#191970" d="M537.7783,-762.0037C751.9466,-753.3177 1427.4075,-721.374 1635,-657 1693.3425,-638.9081 1724.0788,-642.6787 1755,-590 1802.7041,-508.7291 1671.3277,-436.5372 1597.0442,-403.5262"/>
<polygon fill="#191970" stroke="#191970" points="1598.4096,-400.3033 1587.8447,-399.5079 1595.6076,-406.7181 1598.4096,-400.3033"/>
</g>
<!-- Node7&#45;&gt;Node3 -->
<g id="edge10" class="edge">
<title>Node7&#45;&gt;Node3</title>
<path fill="none" stroke="#191970" d="M830.1045,-701.5973C1009.3373,-697.6451 1481.0042,-684.8449 1635,-657 1923.5728,-604.8213 2262,-744.7523 2262,-451.5 2262,-451.5 2262,-451.5 2262,-384.5 2262,-345.2651 2251.9126,-300.2457 2245.399,-275.2655"/>
<polygon fill="#191970" stroke="#191970" points="2248.7691,-274.3198 2242.7863,-265.5758 2242.0104,-276.1422 2248.7691,-274.3198"/>
</g>
<!-- Node7&#45;&gt;Node6 -->
<g id="edge11" class="edge">
<title>Node7&#45;&gt;Node6</title>
<path fill="none" stroke="#191970" d="M753.1465,-693.4679C721.217,-649.0595 586.8058,-462.1164 544.0899,-402.7058"/>
<polygon fill="#191970" stroke="#191970" points="546.7308,-400.3832 538.0513,-394.3072 541.0473,-404.4696 546.7308,-400.3832"/>
</g>
<!-- Node8 -->
<g id="node9" class="node">
<title>Node8</title>
<g id="a_node9"><a xlink:href="discrete__value__rule_8h.html" target="_top" xlink:title="maliput/api/rules/discrete\l_value_rule.h">
<polygon fill="#ffffff" stroke="#000000" points="914.5,-626.5 914.5,-656.5 1055.5,-656.5 1055.5,-626.5 914.5,-626.5"/>
<text text-anchor="start" x="922.5" y="-644.5" font-family="Helvetica,sans-Serif" font-size="10.00" fill="#000000">maliput/api/rules/discrete</text>
<text text-anchor="middle" x="985" y="-633.5" font-family="Helvetica,sans-Serif" font-size="10.00" fill="#000000">_value_rule.h</text>
</a>
</g>
</g>
<!-- Node7&#45;&gt;Node8 -->
<g id="edge12" class="edge">
<title>Node7&#45;&gt;Node8</title>
<path fill="none" stroke="#191970" d="M795.1563,-693.3906C828.4973,-684.2774 879.4047,-670.3627 920.1129,-659.2358"/>
<polygon fill="#191970" stroke="#191970" points="921.2355,-662.5574 929.9588,-656.5446 919.3898,-655.8051 921.2355,-662.5574"/>
</g>
<!-- Node7&#45;&gt;Node17 -->
<g id="edge118" class="edge">
<title>Node7&#45;&gt;Node17</title>
<path fill="none" stroke="#191970" d="M702.9668,-693.4731C582.1898,-669.7056 304.3076,-595.0284 214,-400 146.3979,-254.0064 426.2532,-211.3927 569.8016,-199.223"/>
<polygon fill="#191970" stroke="#191970" points="570.2131,-202.7011 579.8948,-198.3984 569.643,-195.7244 570.2131,-202.7011"/>
</g>
<!-- Node7&#45;&gt;Node28 -->
<g id="edge117" class="edge">
<title>Node7&#45;&gt;Node28</title>
<path fill="none" stroke="#191970" d="M830.2376,-699.4614C1030.1649,-688.4602 1588,-650.9176 1588,-574.5 1588,-574.5 1588,-574.5 1588,-513 1588,-475.4158 1572.8664,-434.0928 1561.7,-408.718"/>
<polygon fill="#191970" stroke="#191970" points="1564.8343,-407.1552 1557.5076,-399.5021 1558.4626,-410.0538 1564.8343,-407.1552"/>
</g>
<!-- Node7&#45;&gt;Node34 -->
<g id="edge115" class="edge">
<title>Node7&#45;&gt;Node34</title>
<path fill="none" stroke="#191970" d="M830.0669,-702.113C1019.593,-699.3018 1532.7875,-688.8112 1602,-657 1632.0214,-643.2017 1656.428,-612.4185 1669.8119,-592.6038"/>
<polygon fill="#191970" stroke="#191970" points="1672.8068,-594.4185 1675.3199,-584.126 1666.9368,-590.6048 1672.8068,-594.4185"/>
</g>
<!-- Node7&#45;&gt;Node36 -->
<g id="edge93" class="edge">
<title>Node7&#45;&gt;Node36</title>
<path fill="none" stroke="#191970" d="M745.8248,-693.3923C732.2234,-684.1441 711.1317,-669.7261 693,-657 663.5743,-636.347 630.2205,-612.354 607.0399,-595.5846"/>
<polygon fill="#191970" stroke="#191970" points="608.8355,-592.5635 598.6832,-589.5332 604.7299,-598.2332 608.8355,-592.5635"/>
</g>
<!-- Node37 -->
<g id="node38" class="node">
<title>Node37</title>
<g id="a_node38"><a xlink:href="traffic__lights_8h.html" target="_top" xlink:title="maliput/api/rules/traffic\l_lights.h">
<polygon fill="#ffffff" stroke="#000000" points="882.5,-436.5 882.5,-466.5 1013.5,-466.5 1013.5,-436.5 882.5,-436.5"/>
<text text-anchor="start" x="890.5" y="-454.5" font-family="Helvetica,sans-Serif" font-size="10.00" fill="#000000">maliput/api/rules/traffic</text>
<text text-anchor="middle" x="948" y="-443.5" font-family="Helvetica,sans-Serif" font-size="10.00" fill="#000000">_lights.h</text>
</a>
</g>
</g>
<!-- Node7&#45;&gt;Node37 -->
<g id="edge116" class="edge">
<title>Node7&#45;&gt;Node37</title>
<path fill="none" stroke="#191970" d="M767.1403,-693.448C794.1423,-657.3256 890.5017,-528.4193 930.4518,-474.9754"/>
<polygon fill="#191970" stroke="#191970" points="933.3937,-476.8855 936.5777,-466.7804 927.787,-472.6944 933.3937,-476.8855"/>
</g>
<!-- Node8&#45;&gt;Node4 -->
<g id="edge14" class="edge">
<title>Node8&#45;&gt;Node4</title>
<path fill="none" stroke="#191970" d="M914.222,-632.6462C797.5855,-613.7526 568.602,-557.4807 475,-400 451.6829,-360.7701 451.8379,-305.0406 453.9313,-275.7456"/>
<polygon fill="#191970" stroke="#191970" points="457.4359,-275.8433 454.817,-265.5773 450.4623,-275.2358 457.4359,-275.8433"/>
</g>
<!-- Node8&#45;&gt;Node9 -->
<g id="edge13" class="edge">
<title>Node8&#45;&gt;Node9</title>
<path fill="none" stroke="#191970" d="M1055.5486,-639.475C1302.4547,-631.3276 2124.9074,-594.9491 2350,-467 2447.8407,-411.3846 2490,-368.5428 2490,-256 2490,-256 2490,-256 2490,-133 2490,-42.5639 2159.5948,-17.2887 2053.4278,-11.5015"/>
<polygon fill="#191970" stroke="#191970" points="2053.4744,-7.9992 2043.3053,-10.9723 2053.109,-14.9897 2053.4744,-7.9992"/>
</g>
<!-- Node10 -->
<g id="node11" class="node">
<title>Node10</title>
<g id="a_node11"><a xlink:href="regions_8h.html" target="_top" xlink:title="maliput/api/regions.h">
<polygon fill="#ffffff" stroke="#000000" points="1300,-503.5 1300,-522.5 1420,-522.5 1420,-503.5 1300,-503.5"/>
<text text-anchor="middle" x="1360" y="-510.5" font-family="Helvetica,sans-Serif" font-size="10.00" fill="#000000">maliput/api/regions.h</text>
</a>
</g>
</g>
<!-- Node8&#45;&gt;Node10 -->
<g id="edge15" class="edge">
<title>Node8&#45;&gt;Node10</title>
<path fill="none" stroke="#191970" d="M1029.12,-626.3816C1103.4873,-600.8983 1252.4979,-549.8374 1322.2996,-525.9187"/>
<polygon fill="#191970" stroke="#191970" points="1323.6797,-529.1456 1332.0051,-522.5929 1321.4105,-522.5236 1323.6797,-529.1456"/>
</g>
<!-- Node8&#45;&gt;Node17 -->
<g id="edge92" class="edge">
<title>Node8&#45;&gt;Node17</title>
<path fill="none" stroke="#191970" d="M961.8232,-626.4021C902.6131,-586.4746 745.3056,-471.6014 672,-333 657.4101,-305.4144 655.9366,-296.8133 651,-266 648.5671,-250.8143 648.2547,-233.5823 648.5802,-219.8406"/>
<polygon fill="#191970" stroke="#191970" points="652.0841,-219.7946 648.9497,-209.674 645.0887,-219.5403 652.0841,-219.7946"/>
</g>
<!-- Node8&#45;&gt;Node34 -->
<g id="edge79" class="edge">
<title>Node8&#45;&gt;Node34</title>
<path fill="none" stroke="#191970" d="M1055.5664,-634.707C1187.4306,-622.0132 1470.1045,-594.8017 1605.5774,-581.7605"/>
<polygon fill="#191970" stroke="#191970" points="1606.2419,-585.2128 1615.8605,-580.7706 1605.5711,-578.245 1606.2419,-585.2128"/>
</g>
<!-- Node10&#45;&gt;Node3 -->
<g id="edge18" class="edge">
<title>Node10&#45;&gt;Node3</title>
<path fill="none" stroke="#191970" d="M1420.013,-507.8024C1571.7921,-494.0048 1967.3777,-453.7995 2087,-400 2150.2819,-371.5393 2203.9962,-305.8671 2227.4213,-273.9981"/>
<polygon fill="#191970" stroke="#191970" points="2230.4525,-275.7781 2233.453,-265.617 2224.7708,-271.6891 2230.4525,-275.7781"/>
</g>
<!-- Node10&#45;&gt;Node4 -->
<g id="edge19" class="edge">
<title>Node10&#45;&gt;Node4</title>
<path fill="none" stroke="#191970" d="M1299.5654,-512.1952C1171.6289,-509.8414 877.5162,-500.8106 784,-467 769.0408,-461.5915 563.6872,-310.1049 550,-302 529.7645,-290.0175 505.961,-278.3923 487.3706,-269.8264"/>
<polygon fill="#191970" stroke="#191970" points="488.7224,-266.5962 478.1708,-265.6402 485.8232,-272.9676 488.7224,-266.5962"/>
</g>
<!-- Node11 -->
<g id="node12" class="node">
<title>Node11</title>
<polygon fill="#ffffff" stroke="#bfbfbf" points="1370.5,-185 1370.5,-204 1417.5,-204 1417.5,-185 1370.5,-185"/>
<text text-anchor="middle" x="1394" y="-192" font-family="Helvetica,sans-Serif" font-size="10.00" fill="#000000">cmath</text>
</g>
<!-- Node10&#45;&gt;Node11 -->
<g id="edge16" class="edge">
<title>Node10&#45;&gt;Node11</title>
<path fill="none" stroke="#191970" d="M1362.2226,-503.1788C1364.251,-493.8988 1367.199,-479.5661 1369,-467 1382.4543,-373.1229 1390.1272,-259.9579 1392.8542,-214.6677"/>
<polygon fill="#191970" stroke="#191970" points="1396.3624,-214.6288 1393.4545,-204.4408 1389.3744,-214.2186 1396.3624,-214.6288"/>
</g>
<!-- Node12 -->
<g id="node13" class="node">
<title>Node12</title>
<polygon fill="#ffffff" stroke="#bfbfbf" points="1304,-442 1304,-461 1360,-461 1360,-442 1304,-442"/>
<text text-anchor="middle" x="1332" y="-449" font-family="Helvetica,sans-Serif" font-size="10.00" fill="#000000">numeric</text>
</g>
<!-- Node10&#45;&gt;Node12 -->
<g id="edge17" class="edge">
<title>Node10&#45;&gt;Node12</title>
<path fill="none" stroke="#191970" d="M1355.625,-503.3906C1351.6212,-494.5965 1345.5817,-481.3312 1340.6115,-470.4145"/>
<polygon fill="#191970" stroke="#191970" points="1343.7657,-468.8957 1336.4367,-461.2449 1337.3949,-471.7963 1343.7657,-468.8957"/>
</g>
<!-- Node13 -->
<g id="node14" class="node">
<title>Node13</title>
<g id="a_node14"><a xlink:href="api_2lane_8h.html" target="_top" xlink:title="maliput/api/lane.h">
<polygon fill="#ffffff" stroke="#000000" points="1416.5,-442 1416.5,-461 1521.5,-461 1521.5,-442 1416.5,-442"/>
<text text-anchor="middle" x="1469" y="-449" font-family="Helvetica,sans-Serif" font-size="10.00" fill="#000000">maliput/api/lane.h</text>
</a>
</g>
</g>
<!-- Node10&#45;&gt;Node13 -->
<g id="edge20" class="edge">
<title>Node10&#45;&gt;Node13</title>
<path fill="none" stroke="#191970" d="M1377.0313,-503.3906C1394.789,-493.3713 1422.833,-477.5483 1443.2882,-466.0071"/>
<polygon fill="#191970" stroke="#191970" points="1445.0989,-469.0042 1452.0883,-461.0419 1441.6591,-462.9077 1445.0989,-469.0042"/>
</g>
<!-- Node10&#45;&gt;Node17 -->
<g id="edge78" class="edge">
<title>Node10&#45;&gt;Node17</title>
<path fill="none" stroke="#191970" d="M1299.7123,-511.0845C1187.4373,-506.8954 950.744,-494.9634 874,-467 781.6273,-433.342 760.7065,-408.7197 698,-333 676.165,-306.6337 671.0103,-298.4149 660,-266 654.9742,-251.2039 652.4718,-233.8616 651.2271,-219.9623"/>
<polygon fill="#191970" stroke="#191970" points="654.6943,-219.386 650.4742,-209.6679 647.713,-219.8966 654.6943,-219.386"/>
</g>
<!-- Node10&#45;&gt;Node28 -->
<g id="edge77" class="edge">
<title>Node10&#45;&gt;Node28</title>
<path fill="none" stroke="#191970" d="M1420.2852,-503.5223C1463.0881,-495.5843 1515.5826,-482.9895 1531,-467 1545.515,-451.9463 1549.7648,-428.1427 1550.6761,-409.9649"/>
<polygon fill="#191970" stroke="#191970" points="1554.1793,-409.8289 1550.8768,-399.7619 1547.1807,-409.6911 1554.1793,-409.8289"/>
</g>
<!-- Node13&#45;&gt;Node2 -->
<g id="edge21" class="edge">
<title>Node13&#45;&gt;Node2</title>
<path fill="none" stroke="#191970" d="M1416.4342,-442.5026C1401.1703,-440.1207 1384.4511,-437.7333 1369,-436 1140.5423,-410.371 1076.9167,-452.0683 853,-400 850.2024,-399.3495 847.3436,-398.5195 844.5122,-397.5826"/>
<polygon fill="#191970" stroke="#191970" points="845.7133,-394.2951 835.1204,-394.0916 843.2743,-400.8565 845.7133,-394.2951"/>
</g>
<!-- Node13&#45;&gt;Node3 -->
<g id="edge22" class="edge">
<title>Node13&#45;&gt;Node3</title>
<path fill="none" stroke="#191970" d="M1521.8542,-450.6428C1646.0357,-448.0159 1953.063,-437.7829 2048,-400 2113.266,-374.0255 2115.3143,-343.4856 2172,-302 2186.5786,-291.3306 2203.3905,-279.9499 2216.6505,-271.1778"/>
<polygon fill="#191970" stroke="#191970" points="2218.7587,-273.9805 2225.1919,-265.5624 2214.9132,-268.1313 2218.7587,-273.9805"/>
</g>
<!-- Node13&#45;&gt;Node9 -->
<g id="edge23" class="edge">
<title>Node13&#45;&gt;Node9</title>
<path fill="none" stroke="#191970" d="M1521.6647,-448.7346C1623.1482,-442.8582 1841.9581,-427.3754 1912,-400 1959.1122,-381.5865 1966.4745,-366.9183 2004,-333 2033.6544,-306.1962 2048.9985,-303.0511 2064,-266 2093.8793,-192.203 2069.4441,-166.6012 2071,-87 2071.2692,-73.2249 2076.5364,-68.6165 2071,-56 2065.6677,-43.8487 2055.3661,-33.4938 2045.4924,-25.7031"/>
<polygon fill="#191970" stroke="#191970" points="2047.5509,-22.8723 2037.4177,-19.7788 2043.41,-28.5162 2047.5509,-22.8723"/>
</g>
<!-- Node14 -->
<g id="node15" class="node">
<title>Node14</title>
<g id="a_node15"><a xlink:href="lane__data_8h.html" target="_top" xlink:title="maliput/api/lane_data.h">
<polygon fill="#ffffff" stroke="#000000" points="1184,-375 1184,-394 1316,-394 1316,-375 1184,-375"/>
<text text-anchor="middle" x="1250" y="-382" font-family="Helvetica,sans-Serif" font-size="10.00" fill="#000000">maliput/api/lane_data.h</text>
</a>
</g>
</g>
<!-- Node13&#45;&gt;Node14 -->
<g id="edge24" class="edge">
<title>Node13&#45;&gt;Node14</title>
<path fill="none" stroke="#191970" d="M1437.6226,-441.9005C1399.0806,-430.1091 1333.5947,-410.0746 1291.0765,-397.0668"/>
<polygon fill="#191970" stroke="#191970" points="1291.9056,-393.6604 1281.3192,-394.0817 1289.8577,-400.3541 1291.9056,-393.6604"/>
</g>
<!-- Node13&#45;&gt;Node17 -->
<g id="edge75" class="edge">
<title>Node13&#45;&gt;Node17</title>
<path fill="none" stroke="#191970" d="M1416.4895,-442.8648C1338.267,-429.9159 1197.8516,-406.3112 1175,-400 1137.8446,-389.7384 1131.2844,-378.7827 1094,-369 988.8211,-341.403 953.9334,-370.8654 852,-333 780.1093,-306.2946 709.2519,-248.4727 673.6555,-216.6347"/>
<polygon fill="#191970" stroke="#191970" points="675.9604,-214.0002 666.1989,-209.8816 671.2614,-219.1886 675.9604,-214.0002"/>
</g>
<!-- Node13&#45;&gt;Node18 -->
<g id="edge76" class="edge">
<title>Node13&#45;&gt;Node18</title>
<path fill="none" stroke="#191970" d="M1521.583,-447.8855C1615.7243,-440.9029 1809.0962,-424.0937 1872,-400 1920.9291,-381.259 1927.2185,-364.6163 1969,-333 1987.6277,-318.9043 2040.0532,-287.1362 2050,-266 2053.785,-257.9572 2050.6579,-254.8645 2050,-246 2045.8646,-190.2786 2052.4518,-171.0881 2024,-123 2017.5447,-112.0895 2008.2225,-101.8608 1999.2486,-93.4397"/>
<polygon fill="#191970" stroke="#191970" points="2001.3183,-90.5949 1991.533,-86.533 1996.6495,-95.8105 2001.3183,-90.5949"/>
</g>
<!-- Node13&#45;&gt;Node28 -->
<g id="edge56" class="edge">
<title>Node13&#45;&gt;Node28</title>
<path fill="none" stroke="#191970" d="M1480.6053,-441.9005C1491.8996,-432.5583 1509.4495,-418.0417 1524.074,-405.945"/>
<polygon fill="#191970" stroke="#191970" points="1526.3646,-408.5925 1531.8394,-399.5218 1521.903,-403.1986 1526.3646,-408.5925"/>
</g>
<!-- Node14&#45;&gt;Node9 -->
<g id="edge27" class="edge">
<title>Node14&#45;&gt;Node9</title>
<path fill="none" stroke="#191970" d="M1251.9524,-374.6567C1257.3366,-346.622 1272,-263.9016 1272,-194.5 1272,-194.5 1272,-194.5 1272,-133 1272,-59.2327 1845.0257,-20.4084 1988.6559,-11.8356"/>
<polygon fill="#191970" stroke="#191970" points="1989.2126,-15.309 1998.9895,-11.2271 1988.801,-8.3211 1989.2126,-15.309"/>
</g>
<!-- Node15 -->
<g id="node16" class="node">
<title>Node15</title>
<polygon fill="#ffffff" stroke="#bfbfbf" points="1300.5,-246.5 1300.5,-265.5 1365.5,-265.5 1365.5,-246.5 1300.5,-246.5"/>
<text text-anchor="middle" x="1333" y="-253.5" font-family="Helvetica,sans-Serif" font-size="10.00" fill="#000000">functional</text>
</g>
<!-- Node14&#45;&gt;Node15 -->
<g id="edge25" class="edge">
<title>Node14&#45;&gt;Node15</title>
<path fill="none" stroke="#191970" d="M1256.2385,-374.8416C1269.998,-353.5393 1303.1456,-302.2203 1321.049,-274.5025"/>
<polygon fill="#191970" stroke="#191970" points="1324.2034,-276.0696 1326.6891,-265.7705 1318.3233,-272.2715 1324.2034,-276.0696"/>
</g>
<!-- Node16 -->
<g id="node17" class="node">
<title>Node16</title>
<polygon fill="#ffffff" stroke="#bfbfbf" points="1106.5,-185 1106.5,-204 1163.5,-204 1163.5,-185 1106.5,-185"/>
<text text-anchor="middle" x="1135" y="-192" font-family="Helvetica,sans-Serif" font-size="10.00" fill="#000000">ostream</text>
</g>
<!-- Node14&#45;&gt;Node16 -->
<g id="edge26" class="edge">
<title>Node14&#45;&gt;Node16</title>
<path fill="none" stroke="#191970" d="M1242.995,-374.921C1235.7536,-364.7938 1224.3585,-348.211 1216,-333 1195.5933,-295.8635 1199.2487,-282.0632 1177,-246 1169.5036,-233.8489 1159.4404,-221.4113 1151.0436,-211.8035"/>
<polygon fill="#191970" stroke="#191970" points="1153.4805,-209.2783 1144.2001,-204.1671 1148.2675,-213.9501 1153.4805,-209.2783"/>
</g>
<!-- Node14&#45;&gt;Node17 -->
<g id="edge28" class="edge">
<title>Node14&#45;&gt;Node17</title>
<path fill="none" stroke="#191970" d="M1183.9167,-375.9738C1104.9811,-365.4092 977.8439,-347.0818 932,-333 864.5232,-312.2732 851.3521,-297.1325 788,-266 753.5145,-249.0531 714.6942,-228.8361 687.0323,-214.2308"/>
<polygon fill="#191970" stroke="#191970" points="688.5774,-211.0887 678.1014,-209.5057 685.3037,-217.276 688.5774,-211.0887"/>
</g>
<!-- Node14&#45;&gt;Node18 -->
<g id="edge29" class="edge">
<title>Node14&#45;&gt;Node18</title>
<path fill="none" stroke="#191970" d="M1316.053,-379.8124C1425.0303,-371.6253 1637.6421,-353.6144 1710,-333 1726.6817,-328.2475 1838.0623,-277.5534 1851,-266 1906.2373,-216.6729 1945.1389,-136.1917 1962.2425,-95.9811"/>
<polygon fill="#191970" stroke="#191970" points="1965.5069,-97.2465 1966.1179,-86.6692 1959.0442,-94.5568 1965.5069,-97.2465"/>
</g>
<!-- Node19 -->
<g id="node20" class="node">
<title>Node19</title>
<g id="a_node20"><a xlink:href="matrix_8h.html" target="_top" xlink:title="maliput/math/matrix.h">
<polygon fill="#ffffff" stroke="#000000" points="798.5,-185 798.5,-204 925.5,-204 925.5,-185 798.5,-185"/>
<text text-anchor="middle" x="862" y="-192" font-family="Helvetica,sans-Serif" font-size="10.00" fill="#000000">maliput/math/matrix.h</text>
</a>
</g>
</g>
<!-- Node14&#45;&gt;Node19 -->
<g id="edge31" class="edge">
<title>Node14&#45;&gt;Node19</title>
<path fill="none" stroke="#191970" d="M1201.3629,-374.9981C1191.0141,-372.9983 1180.1483,-370.9151 1170,-369 1082.9678,-352.5764 1050.1373,-378.2488 974,-333 924.5616,-303.6185 887.8452,-243.8318 871.4581,-213.3233"/>
<polygon fill="#191970" stroke="#191970" points="874.4195,-211.4328 866.6911,-204.1856 868.2133,-214.6705 874.4195,-211.4328"/>
</g>
<!-- Node25 -->
<g id="node26" class="node">
<title>Node25</title>
<g id="a_node26"><a xlink:href="vector_8h.html" target="_top" xlink:title="maliput/math/vector.h">
<polygon fill="#ffffff" stroke="#000000" points="966.5,-123.5 966.5,-142.5 1091.5,-142.5 1091.5,-123.5 966.5,-123.5"/>
<text text-anchor="middle" x="1029" y="-130.5" font-family="Helvetica,sans-Serif" font-size="10.00" fill="#000000">maliput/math/vector.h</text>
</a>
</g>
</g>
<!-- Node14&#45;&gt;Node25 -->
<g id="edge55" class="edge">
<title>Node14&#45;&gt;Node25</title>
<path fill="none" stroke="#191970" d="M1249.2731,-374.721C1246.3157,-342.0369 1232.3318,-235.4763 1173,-179 1159.664,-166.3058 1117.6899,-153.7085 1082.4757,-144.915"/>
<polygon fill="#191970" stroke="#191970" points="1083.2973,-141.5129 1072.7522,-142.5388 1081.6354,-148.3128 1083.2973,-141.5129"/>
</g>
<!-- Node26 -->
<g id="node27" class="node">
<title>Node26</title>
<g id="a_node27"><a xlink:href="quaternion_8h.html" target="_top" xlink:title="Code in this file is inspired by: https://gitlab.com/libeigen/eigen/&#45;/blob/master/Eigen/src/Geometry/...">
<polygon fill="#ffffff" stroke="#000000" points="1020.5,-246.5 1020.5,-265.5 1167.5,-265.5 1167.5,-246.5 1020.5,-246.5"/>
<text text-anchor="middle" x="1094" y="-253.5" font-family="Helvetica,sans-Serif" font-size="10.00" fill="#000000">maliput/math/quaternion.h</text>
</a>
</g>
</g>
<!-- Node14&#45;&gt;Node26 -->
<g id="edge44" class="edge">
<title>Node14&#45;&gt;Node26</title>
<path fill="none" stroke="#191970" d="M1235.5528,-374.9264C1220.7406,-364.9371 1197.2175,-348.5858 1178,-333 1153.8358,-313.4023 1127.6601,-288.8242 1111.0636,-272.7808"/>
<polygon fill="#191970" stroke="#191970" points="1113.3439,-270.1161 1103.7365,-265.6497 1108.4617,-275.1325 1113.3439,-270.1161"/>
</g>
<!-- Node27 -->
<g id="node28" class="node">
<title>Node27</title>
<g id="a_node28"><a xlink:href="roll__pitch__yaw_8h.html" target="_top" xlink:title="Code in this file is inspired by: https://github.com/RobotLocomotion/drake/blob/master/math/roll_pitc...">
<polygon fill="#ffffff" stroke="#000000" points="982.5,-302.5 982.5,-332.5 1113.5,-332.5 1113.5,-302.5 982.5,-302.5"/>
<text text-anchor="start" x="990.5" y="-320.5" font-family="Helvetica,sans-Serif" font-size="10.00" fill="#000000">maliput/math/roll_pitch</text>
<text text-anchor="middle" x="1048" y="-309.5" font-family="Helvetica,sans-Serif" font-size="10.00" fill="#000000">_yaw.h</text>
</a>
</g>
</g>
<!-- Node14&#45;&gt;Node27 -->
<g id="edge50" class="edge">
<title>Node14&#45;&gt;Node27</title>
<path fill="none" stroke="#191970" d="M1221.0583,-374.9005C1190.4147,-364.7366 1141.3055,-348.4479 1103.2158,-335.8141"/>
<polygon fill="#191970" stroke="#191970" points="1103.8829,-332.348 1093.2895,-332.5218 1101.6791,-338.992 1103.8829,-332.348"/>
</g>
<!-- Node18&#45;&gt;Node9 -->
<g id="edge30" class="edge">
<title>Node18&#45;&gt;Node9</title>
<path fill="none" stroke="#191970" d="M1984.1124,-56.2977C1990.9849,-47.672 1999.6223,-36.8312 2006.811,-27.8087"/>
<polygon fill="#191970" stroke="#191970" points="2009.6604,-29.849 2013.1545,-19.8469 2004.1856,-25.487 2009.6604,-29.849"/>
</g>
<!-- Node20 -->
<g id="node21" class="node">
<title>Node20</title>
<polygon fill="#ffffff" stroke="#bfbfbf" points="372,-62 372,-81 436,-81 436,-62 372,-62"/>
<text text-anchor="middle" x="404" y="-69" font-family="Helvetica,sans-Serif" font-size="10.00" fill="#000000">algorithm</text>
</g>
<!-- Node19&#45;&gt;Node20 -->
<g id="edge32" class="edge">
<title>Node19&#45;&gt;Node20</title>
<path fill="none" stroke="#191970" d="M826.4426,-184.9507C743.0643,-162.5587 535.2776,-106.7558 445.9289,-82.7604"/>
<polygon fill="#191970" stroke="#191970" points="446.7058,-79.3451 436.1402,-80.1315 444.8902,-86.1055 446.7058,-79.3451"/>
</g>
<!-- Node21 -->
<g id="node22" class="node">
<title>Node21</title>
<polygon fill="#ffffff" stroke="#bfbfbf" points="807,-62 807,-81 849,-81 849,-62 807,-62"/>
<text text-anchor="middle" x="828" y="-69" font-family="Helvetica,sans-Serif" font-size="10.00" fill="#000000">array</text>
</g>
<!-- Node19&#45;&gt;Node21 -->
<g id="edge33" class="edge">
<title>Node19&#45;&gt;Node21</title>
<path fill="none" stroke="#191970" d="M859.3321,-184.8484C853.7459,-164.6397 840.7273,-117.5427 833.3495,-90.8528"/>
<polygon fill="#191970" stroke="#191970" points="836.6934,-89.8128 830.6555,-81.1068 829.9464,-91.6778 836.6934,-89.8128"/>
</g>
<!-- Node22 -->
<g id="node23" class="node">
<title>Node22</title>
<polygon fill="#ffffff" stroke="#bfbfbf" points="1060.5,-62 1060.5,-81 1113.5,-81 1113.5,-62 1060.5,-62"/>
<text text-anchor="middle" x="1087" y="-69" font-family="Helvetica,sans-Serif" font-size="10.00" fill="#000000">cstddef</text>
</g>
<!-- Node19&#45;&gt;Node22 -->
<g id="edge34" class="edge">
<title>Node19&#45;&gt;Node22</title>
<path fill="none" stroke="#191970" d="M872.8463,-184.8602C889.9596,-170.0251 924.7125,-141.3907 958,-123 996.795,-101.5665 1009.9717,-103.7667 1051,-87 1052.4173,-86.4208 1053.8635,-85.8237 1055.3227,-85.2163"/>
<polygon fill="#191970" stroke="#191970" points="1057.1214,-88.2559 1064.97,-81.139 1054.3963,-81.8081 1057.1214,-88.2559"/>
</g>
<!-- Node23 -->
<g id="node24" class="node">
<title>Node23</title>
<polygon fill="#ffffff" stroke="#bfbfbf" points="872.5,-62 872.5,-81 955.5,-81 955.5,-62 872.5,-62"/>
<text text-anchor="middle" x="914" y="-69" font-family="Helvetica,sans-Serif" font-size="10.00" fill="#000000">initializer_list</text>
</g>
<!-- Node19&#45;&gt;Node23 -->
<g id="edge35" class="edge">
<title>Node19&#45;&gt;Node23</title>
<path fill="none" stroke="#191970" d="M864.7335,-184.5826C868.7237,-170.5878 876.69,-144.3668 886,-123 890.9392,-111.6643 897.4971,-99.488 903.0247,-89.8226"/>
<polygon fill="#191970" stroke="#191970" points="906.0877,-91.518 908.1107,-81.1181 900.0438,-87.9865 906.0877,-91.518"/>
</g>
<!-- Node24 -->
<g id="node25" class="node">
<title>Node24</title>
<polygon fill="#ffffff" stroke="#bfbfbf" points="982,-62 982,-81 1042,-81 1042,-62 982,-62"/>
<text text-anchor="middle" x="1012" y="-69" font-family="Helvetica,sans-Serif" font-size="10.00" fill="#000000">iostream</text>
</g>
<!-- Node19&#45;&gt;Node24 -->
<g id="edge36" class="edge">
<title>Node19&#45;&gt;Node24</title>
<path fill="none" stroke="#191970" d="M868.7797,-184.8194C879.3629,-170.182 900.9941,-142.1025 924,-123 941.811,-108.211 964.3905,-95.0917 982.2179,-85.7959"/>
<polygon fill="#191970" stroke="#191970" points="984.2457,-88.6913 991.5727,-81.0385 981.0726,-82.4518 984.2457,-88.6913"/>
</g>
<!-- Node19&#45;&gt;Node25 -->
<g id="edge37" class="edge">
<title>Node19&#45;&gt;Node25</title>
<path fill="none" stroke="#191970" d="M888.0938,-184.8906C916.4036,-174.4652 961.7768,-157.7559 993.3592,-146.1252"/>
<polygon fill="#191970" stroke="#191970" points="994.9151,-149.2821 1003.0895,-142.5419 992.496,-142.7133 994.9151,-149.2821"/>
</g>
<!-- Node25&#45;&gt;Node18 -->
<g id="edge43" class="edge">
<title>Node25&#45;&gt;Node18</title>
<path fill="none" stroke="#191970" d="M1091.6032,-128.9172C1257.3322,-118.1088 1707.3693,-88.7585 1891.6644,-76.7393"/>
<polygon fill="#191970" stroke="#191970" points="1892.0773,-80.2199 1901.8283,-76.0764 1891.6217,-73.2347 1892.0773,-80.2199"/>
</g>
<!-- Node25&#45;&gt;Node20 -->
<g id="edge38" class="edge">
<title>Node25&#45;&gt;Node20</title>
<path fill="none" stroke="#191970" d="M966.4996,-126.85C839.491,-114.3523 554.1542,-86.2752 446.3391,-75.6662"/>
<polygon fill="#191970" stroke="#191970" points="446.4661,-72.1618 436.1714,-74.6657 445.7806,-79.1282 446.4661,-72.1618"/>
</g>
<!-- Node25&#45;&gt;Node21 -->
<g id="edge39" class="edge">
<title>Node25&#45;&gt;Node21</title>
<path fill="none" stroke="#191970" d="M988.8584,-123.4215C955.1542,-114.9967 905.9251,-101.7939 864,-87 862.1712,-86.3547 860.3034,-85.6609 858.4279,-84.9375"/>
<polygon fill="#191970" stroke="#191970" points="859.7142,-81.6823 849.1322,-81.1605 857.0791,-88.1674 859.7142,-81.6823"/>
</g>
<!-- Node25&#45;&gt;Node22 -->
<g id="edge40" class="edge">
<title>Node25&#45;&gt;Node22</title>
<path fill="none" stroke="#191970" d="M1038.0625,-123.3906C1046.7793,-114.1478 1060.154,-99.966 1070.7196,-88.7628"/>
<polygon fill="#191970" stroke="#191970" points="1073.495,-90.9213 1077.8097,-81.2449 1068.4024,-86.1186 1073.495,-90.9213"/>
</g>
<!-- Node25&#45;&gt;Node23 -->
<g id="edge41" class="edge">
<title>Node25&#45;&gt;Node23</title>
<path fill="none" stroke="#191970" d="M1011.0313,-123.3906C992.2116,-113.3262 962.4415,-97.4057 940.8359,-85.8514"/>
<polygon fill="#191970" stroke="#191970" points="942.3114,-82.6714 931.8426,-81.0419 939.0102,-88.8442 942.3114,-82.6714"/>
</g>
<!-- Node25&#45;&gt;Node24 -->
<g id="edge42" class="edge">
<title>Node25&#45;&gt;Node24</title>
<path fill="none" stroke="#191970" d="M1026.3438,-123.3906C1023.9625,-114.776 1020.3952,-101.8708 1017.414,-91.0858"/>
<polygon fill="#191970" stroke="#191970" points="1020.7316,-89.9509 1014.6937,-81.2449 1013.9846,-91.8159 1020.7316,-89.9509"/>
</g>
<!-- Node26&#45;&gt;Node11 -->
<g id="edge45" class="edge">
<title>Node26&#45;&gt;Node11</title>
<path fill="none" stroke="#191970" d="M1140.5458,-246.4581C1201.3372,-233.9959 1306.3296,-212.4724 1360.1065,-201.4482"/>
<polygon fill="#191970" stroke="#191970" points="1361.0574,-204.8261 1370.1508,-199.3891 1359.6516,-197.9687 1361.0574,-204.8261"/>
</g>
<!-- Node26&#45;&gt;Node16 -->
<g id="edge46" class="edge">
<title>Node26&#45;&gt;Node16</title>
<path fill="none" stroke="#191970" d="M1100.4063,-246.3906C1106.3886,-237.417 1115.4747,-223.7879 1122.8339,-212.7491"/>
<polygon fill="#191970" stroke="#191970" points="1125.8686,-214.5068 1128.5034,-204.2449 1120.0442,-210.6239 1125.8686,-214.5068"/>
</g>
<!-- Node26&#45;&gt;Node17 -->
<g id="edge47" class="edge">
<title>Node26&#45;&gt;Node17</title>
<path fill="none" stroke="#191970" d="M1025.1122,-246.4581C945.414,-235.4188 814.3844,-217.2695 730.1799,-205.606"/>
<polygon fill="#191970" stroke="#191970" points="730.5354,-202.1219 720.1497,-204.2167 729.5749,-209.0557 730.5354,-202.1219"/>
</g>
<!-- Node26&#45;&gt;Node19 -->
<g id="edge48" class="edge">
<title>Node26&#45;&gt;Node19</title>
<path fill="none" stroke="#191970" d="M1058.0046,-246.4581C1017.6223,-235.7533 952.0189,-218.3628 907.9612,-206.6837"/>
<polygon fill="#191970" stroke="#191970" points="908.6429,-203.2436 898.0799,-204.0643 906.8492,-210.0099 908.6429,-203.2436"/>
</g>
<!-- Node26&#45;&gt;Node25 -->
<g id="edge49" class="edge">
<title>Node26&#45;&gt;Node25</title>
<path fill="none" stroke="#191970" d="M1088.8996,-246.3484C1078.1252,-225.9601 1052.8879,-178.2033 1038.8535,-151.6459"/>
<polygon fill="#191970" stroke="#191970" points="1041.8436,-149.8128 1034.0767,-142.6068 1035.6546,-153.0835 1041.8436,-149.8128"/>
</g>
<!-- Node27&#45;&gt;Node17 -->
<g id="edge51" class="edge">
<title>Node27&#45;&gt;Node17</title>
<path fill="none" stroke="#191970" d="M999.1974,-302.4178C925.7445,-279.7175 787.0203,-236.8455 708.3354,-212.5283"/>
<polygon fill="#191970" stroke="#191970" points="709.1662,-209.1218 698.5786,-209.513 707.0993,-215.8097 709.1662,-209.1218"/>
</g>
<!-- Node27&#45;&gt;Node19 -->
<g id="edge52" class="edge">
<title>Node27&#45;&gt;Node19</title>
<path fill="none" stroke="#191970" d="M1025.1927,-302.4178C989.5732,-278.8629 921.1099,-233.5888 885.2315,-209.8628"/>
<polygon fill="#191970" stroke="#191970" points="886.7121,-206.6458 876.4403,-204.0493 882.8509,-212.4846 886.7121,-206.6458"/>
</g>
<!-- Node27&#45;&gt;Node25 -->
<g id="edge54" class="edge">
<title>Node27&#45;&gt;Node25</title>
<path fill="none" stroke="#191970" d="M1033.5171,-302.184C1025.476,-292.596 1016.2591,-279.5269 1012,-266 999.6495,-226.7752 1012.4402,-178.3511 1021.5547,-152.1033"/>
<polygon fill="#191970" stroke="#191970" points="1024.8829,-153.1929 1025.0373,-142.5992 1018.3103,-150.7844 1024.8829,-153.1929"/>
</g>
<!-- Node27&#45;&gt;Node26 -->
<g id="edge53" class="edge">
<title>Node27&#45;&gt;Node26</title>
<path fill="none" stroke="#191970" d="M1059.3708,-302.2977C1065.7561,-293.7609 1073.7641,-283.0545 1080.4705,-274.0883"/>
<polygon fill="#191970" stroke="#191970" points="1083.4479,-275.9511 1086.6348,-265.8469 1077.8425,-271.7584 1083.4479,-275.9511"/>
</g>
<!-- Node28&#45;&gt;Node9 -->
<g id="edge58" class="edge">
<title>Node28&#45;&gt;Node9</title>
<path fill="none" stroke="#191970" d="M1548.116,-369.2538C1546.5509,-352.4316 1545.504,-324.7297 1552,-302 1559.9384,-274.2232 1565.9328,-267.7027 1585,-246 1675.7163,-142.7449 1705.1416,-115.5832 1829,-56 1881.7688,-30.6151 1949.6127,-18.6252 1988.9119,-13.4572"/>
<polygon fill="#191970" stroke="#191970" points="1989.478,-16.9138 1998.9678,-12.2027 1988.6114,-9.9677 1989.478,-16.9138"/>
</g>
<!-- Node28&#45;&gt;Node15 -->
<g id="edge57" class="edge">
<title>Node28&#45;&gt;Node15</title>
<path fill="none" stroke="#191970" d="M1515.4095,-369.3361C1494.3483,-359.7033 1467.1337,-346.5349 1444,-333 1411.2627,-313.8463 1375.5907,-288.1641 1353.756,-271.8452"/>
<polygon fill="#191970" stroke="#191970" points="1355.6565,-268.895 1345.5628,-265.6749 1351.4453,-274.4866 1355.6565,-268.895"/>
</g>
<!-- Node28&#45;&gt;Node17 -->
<g id="edge60" class="edge">
<title>Node28&#45;&gt;Node17</title>
<path fill="none" stroke="#191970" d="M1479.924,-379.6116C1337.096,-369.4477 1021.7315,-345.9096 974,-333 942.7161,-324.5389 937.6206,-315.1488 908,-302 870.1278,-285.1882 859.5745,-283.467 822,-266 804.3357,-257.7885 800.7736,-253.9723 783,-246 756.5732,-234.1463 726.5288,-222.373 701.6901,-213.0813"/>
<polygon fill="#191970" stroke="#191970" points="702.6873,-209.7182 692.0944,-209.5179 700.2504,-216.2803 702.6873,-209.7182"/>
</g>
<!-- Node28&#45;&gt;Node18 -->
<g id="edge74" class="edge">
<title>Node28&#45;&gt;Node18</title>
<path fill="none" stroke="#191970" d="M1620.005,-376.0576C1675.2307,-368.232 1753.7308,-354.5055 1820,-333 1850.8254,-322.9966 1856.3006,-314.9699 1886,-302 1925.1029,-284.9235 1951.1469,-301.379 1975,-266 2009.9208,-214.2054 1992.8119,-135.7163 1980.6296,-96.1488"/>
<polygon fill="#191970" stroke="#191970" points="1983.9245,-94.9623 1977.5224,-86.5206 1977.2628,-97.1122 1983.9245,-94.9623"/>
</g>
<!-- Node28&#45;&gt;Node29 -->
<g id="edge59" class="edge">
<title>Node28&#45;&gt;Node29</title>
<path fill="none" stroke="#191970" d="M1620.2376,-375.5513C1667.3022,-367.968 1729.9444,-354.7601 1782,-333 1805.4309,-323.2055 1807.4744,-313.7276 1830,-302 1856.3487,-288.282 1887.742,-275.7887 1910.7447,-267.2953"/>
<polygon fill="#191970" stroke="#191970" points="1912.1611,-270.5045 1920.3619,-263.7965 1909.7678,-263.9263 1912.1611,-270.5045"/>
</g>
<!-- Node30 -->
<g id="node31" class="node">
<title>Node30</title>
<g id="a_node31"><a xlink:href="maliput__hash_8h.html" target="_top" xlink:title="Code in this file is inspired by: https://github.com/RobotLocomotion/drake/blob/master/common/hash.h. ">
<polygon fill="#ffffff" stroke="#000000" points="1561,-302.5 1561,-332.5 1701,-332.5 1701,-302.5 1561,-302.5"/>
<text text-anchor="start" x="1569" y="-320.5" font-family="Helvetica,sans-Serif" font-size="10.00" fill="#000000">maliput/common/maliput</text>
<text text-anchor="middle" x="1631" y="-309.5" font-family="Helvetica,sans-Serif" font-size="10.00" fill="#000000">_hash.h</text>
</a>
</g>
</g>
<!-- Node28&#45;&gt;Node30 -->
<g id="edge61" class="edge">
<title>Node28&#45;&gt;Node30</title>
<path fill="none" stroke="#191970" d="M1568.3802,-369.2967C1579.1508,-360.3876 1592.9322,-348.9882 1604.8229,-339.1527"/>
<polygon fill="#191970" stroke="#191970" points="1607.2178,-341.7139 1612.6926,-332.6432 1602.7562,-336.32 1607.2178,-341.7139"/>
</g>
<!-- Node30&#45;&gt;Node3 -->
<g id="edge67" class="edge">
<title>Node30&#45;&gt;Node3</title>
<path fill="none" stroke="#191970" d="M1701.1573,-310.4152C1830.2949,-297.3742 2101.5721,-269.9792 2201.7595,-259.8617"/>
<polygon fill="#191970" stroke="#191970" points="2202.1418,-263.341 2211.7395,-258.8539 2201.4384,-256.3764 2202.1418,-263.341"/>
</g>
<!-- Node30&#45;&gt;Node4 -->
<g id="edge72" class="edge">
<title>Node30&#45;&gt;Node4</title>
<path fill="none" stroke="#191970" d="M1560.5815,-313.8143C1337.4619,-302.1361 651.3947,-266.227 490.1717,-257.7886"/>
<polygon fill="#191970" stroke="#191970" points="490.071,-254.2786 479.9017,-257.251 489.7051,-261.269 490.071,-254.2786"/>
</g>
<!-- Node30&#45;&gt;Node9 -->
<g id="edge69" class="edge">
<title>Node30&#45;&gt;Node9</title>
<path fill="none" stroke="#191970" d="M1701.294,-302.8544C1740.1672,-293.411 1783.3146,-280.2597 1797,-266 1819.7675,-242.2771 1816,-227.3806 1816,-194.5 1816,-194.5 1816,-194.5 1816,-133 1816,-53.4862 1930.804,-24.0975 1988.5861,-14.3414"/>
<polygon fill="#191970" stroke="#191970" points="1989.3435,-17.7651 1998.6712,-12.7405 1988.2461,-10.8516 1989.3435,-17.7651"/>
</g>
<!-- Node30&#45;&gt;Node11 -->
<g id="edge62" class="edge">
<title>Node30&#45;&gt;Node11</title>
<path fill="none" stroke="#191970" d="M1601.9391,-302.4178C1555.7804,-278.462 1466.3356,-232.0413 1421.3035,-208.6702"/>
<polygon fill="#191970" stroke="#191970" points="1422.8879,-205.5492 1412.3998,-204.0493 1419.6634,-211.7623 1422.8879,-205.5492"/>
</g>
<!-- Node30&#45;&gt;Node15 -->
<g id="edge64" class="edge">
<title>Node30&#45;&gt;Node15</title>
<path fill="none" stroke="#191970" d="M1560.7555,-303.0032C1503.2438,-291.1342 1423.7644,-274.7316 1375.5051,-264.772"/>
<polygon fill="#191970" stroke="#191970" points="1376.2012,-261.342 1365.7002,-262.7485 1374.7863,-268.1975 1376.2012,-261.342"/>
</g>
<!-- Node30&#45;&gt;Node18 -->
<g id="edge73" class="edge">
<title>Node30&#45;&gt;Node18</title>
<path fill="none" stroke="#191970" d="M1701.1463,-306.6111C1750.5863,-297.6215 1811.2013,-283.5161 1830,-266 1879.0485,-220.298 1834.9799,-174.4168 1878,-123 1889.1741,-109.6449 1904.7393,-99.172 1919.9922,-91.2588"/>
<polygon fill="#191970" stroke="#191970" points="1921.958,-94.1938 1929.4069,-86.6595 1918.8854,-87.9042 1921.958,-94.1938"/>
</g>
<!-- Node30&#45;&gt;Node22 -->
<g id="edge63" class="edge">
<title>Node30&#45;&gt;Node22</title>
<path fill="none" stroke="#191970" d="M1622.3539,-302.4879C1598.0313,-260.8027 1528.3612,-145.2358 1491,-123 1429.3192,-86.2903 1211.3612,-75.4157 1123.8076,-72.4872"/>
<polygon fill="#191970" stroke="#191970" points="1123.6599,-68.9808 1113.5536,-72.1609 1123.4372,-75.9773 1123.6599,-68.9808"/>
</g>
<!-- Node30&#45;&gt;Node24 -->
<g id="edge65" class="edge">
<title>Node30&#45;&gt;Node24</title>
<path fill="none" stroke="#191970" d="M1608.8894,-302.4168C1587.6491,-287.9337 1554.6477,-265.4477 1526,-246 1482.0427,-216.1592 1475.5599,-200.5559 1427,-179 1270.1502,-109.3738 1215.682,-138.5548 1052,-87 1049.5759,-86.2365 1047.0873,-85.4011 1044.5945,-84.5266"/>
<polygon fill="#191970" stroke="#191970" points="1045.68,-81.1966 1035.0865,-81.0289 1043.2632,-87.7662 1045.68,-81.1966"/>
</g>
<!-- Node30&#45;&gt;Node29 -->
<g id="edge71" class="edge">
<title>Node30&#45;&gt;Node29</title>
<path fill="none" stroke="#191970" d="M1701.0189,-303.6982C1766.298,-290.8307 1860.7885,-272.2052 1910.1562,-262.474"/>
<polygon fill="#191970" stroke="#191970" points="1911.1308,-265.8493 1920.2651,-260.4814 1909.777,-258.9815 1911.1308,-265.8493"/>
</g>
<!-- Node31 -->
<g id="node32" class="node">
<title>Node31</title>
<polygon fill="#ffffff" stroke="#bfbfbf" points="1612,-246.5 1612,-265.5 1650,-265.5 1650,-246.5 1612,-246.5"/>
<text text-anchor="middle" x="1631" y="-253.5" font-family="Helvetica,sans-Serif" font-size="10.00" fill="#000000">map</text>
</g>
<!-- Node30&#45;&gt;Node31 -->
<g id="edge66" class="edge">
<title>Node30&#45;&gt;Node31</title>
<path fill="none" stroke="#191970" d="M1631,-302.2977C1631,-294.3834 1631,-284.6043 1631,-276.0759"/>
<polygon fill="#191970" stroke="#191970" points="1634.5001,-275.8469 1631,-265.8469 1627.5001,-275.847 1634.5001,-275.8469"/>
</g>
<!-- Node32 -->
<g id="node33" class="node">
<title>Node32</title>
<polygon fill="#ffffff" stroke="#bfbfbf" points="1668,-246.5 1668,-265.5 1700,-265.5 1700,-246.5 1668,-246.5"/>
<text text-anchor="middle" x="1684" y="-253.5" font-family="Helvetica,sans-Serif" font-size="10.00" fill="#000000">set</text>
</g>
<!-- Node30&#45;&gt;Node32 -->
<g id="edge68" class="edge">
<title>Node30&#45;&gt;Node32</title>
<path fill="none" stroke="#191970" d="M1644.1011,-302.2977C1651.6113,-293.5831 1661.07,-282.6075 1668.8927,-273.5302"/>
<polygon fill="#191970" stroke="#191970" points="1671.6371,-275.707 1675.514,-265.8469 1666.3345,-271.1372 1671.6371,-275.707"/>
</g>
<!-- Node33 -->
<g id="node34" class="node">
<title>Node33</title>
<polygon fill="#ffffff" stroke="#bfbfbf" points="1718.5,-246.5 1718.5,-265.5 1787.5,-265.5 1787.5,-246.5 1718.5,-246.5"/>
<text text-anchor="middle" x="1753" y="-253.5" font-family="Helvetica,sans-Serif" font-size="10.00" fill="#000000">type_traits</text>
</g>
<!-- Node30&#45;&gt;Node33 -->
<g id="edge70" class="edge">
<title>Node30&#45;&gt;Node33</title>
<path fill="none" stroke="#191970" d="M1660.8446,-302.4554C1680.397,-292.599 1705.7872,-279.7999 1724.9645,-270.1327"/>
<polygon fill="#191970" stroke="#191970" points="1726.7402,-273.1571 1734.0943,-265.5303 1723.5892,-266.9064 1726.7402,-273.1571"/>
</g>
<!-- Node34&#45;&gt;Node4 -->
<g id="edge82" class="edge">
<title>Node34&#45;&gt;Node4</title>
<path fill="none" stroke="#191970" d="M1615.955,-571.7376C1429.5031,-563.0942 896.2802,-533.1038 736,-467 677.2334,-442.7631 527.966,-317.6129 474.9992,-272.3556"/>
<polygon fill="#191970" stroke="#191970" points="476.952,-269.4197 467.0808,-265.5711 472.3975,-274.7354 476.952,-269.4197"/>
</g>
<!-- Node34&#45;&gt;Node9 -->
<g id="edge81" class="edge">
<title>Node34&#45;&gt;Node9</title>
<path fill="none" stroke="#191970" d="M1746.2658,-572.4774C1824.537,-568.5494 1958.9523,-556.9938 2069,-523 2239.5235,-470.3251 2414,-495.9738 2414,-317.5 2414,-317.5 2414,-317.5 2414,-133 2414,-57.6205 2147.3419,-22.9667 2053.3304,-13.0917"/>
<polygon fill="#191970" stroke="#191970" points="2053.5601,-9.597 2043.2554,-12.0595 2052.8466,-16.5606 2053.5601,-9.597"/>
</g>
<!-- Node34&#45;&gt;Node10 -->
<g id="edge83" class="edge">
<title>Node34&#45;&gt;Node10</title>
<path fill="none" stroke="#191970" d="M1631.196,-564.9581C1574.0625,-554.012 1480.4414,-536.0752 1419.516,-524.4026"/>
<polygon fill="#191970" stroke="#191970" points="1420.1368,-520.9579 1409.6568,-522.5137 1418.8195,-527.8329 1420.1368,-520.9579"/>
</g>
<!-- Node34&#45;&gt;Node17 -->
<g id="edge90" class="edge">
<title>Node34&#45;&gt;Node17</title>
<path fill="none" stroke="#191970" d="M1615.9779,-569.2173C1521.0358,-560.9444 1349.4141,-543.7162 1291,-523 1260.1621,-512.0635 1070.7886,-380.0745 1040,-369 932.2982,-330.2603 889.2766,-380.1895 785,-333 764.1824,-323.5792 722.8586,-282.4507 707,-266 692.4927,-250.9511 677.8296,-232.4675 667.0088,-218.0637"/>
<polygon fill="#191970" stroke="#191970" points="669.5694,-215.6404 660.8036,-209.6896 663.9452,-219.808 669.5694,-215.6404"/>
</g>
<!-- Node34&#45;&gt;Node18 -->
<g id="edge91" class="edge">
<title>Node34&#45;&gt;Node18</title>
<path fill="none" stroke="#191970" d="M1746.3351,-567.9277C1832.4773,-558.7355 1979.0784,-541.1215 2030,-523 2179.2537,-469.8849 2226.3671,-416.1139 2277,-266 2312.4507,-160.8977 2153.8099,-108.24 2052.0176,-85.6892"/>
<polygon fill="#191970" stroke="#191970" points="2052.5605,-82.2258 2042.047,-83.5357 2051.0827,-89.068 2052.5605,-82.2258"/>
</g>
<!-- Node34&#45;&gt;Node20 -->
<g id="edge80" class="edge">
<title>Node34&#45;&gt;Node20</title>
<path fill="none" stroke="#191970" d="M1615.9314,-572.1611C1450.6564,-565.9276 1017.7594,-547.6923 876,-523 787.5886,-507.6001 768.1016,-492.3032 682,-467 582.3024,-437.7013 550.7835,-446.7893 458,-400 362.7582,-351.971 266,-362.6667 266,-256 266,-256 266,-256 266,-194.5 266,-139.6819 327.434,-103.2582 368.3228,-85.0865"/>
<polygon fill="#191970" stroke="#191970" points="369.9005,-88.2184 377.7184,-81.0679 367.1477,-81.7824 369.9005,-88.2184"/>
</g>
<!-- Node34&#45;&gt;Node28 -->
<g id="edge84" class="edge">
<title>Node34&#45;&gt;Node28</title>
<path fill="none" stroke="#191970" d="M1676.6414,-564.8823C1665.836,-541.5511 1636.1998,-480.5884 1602,-436 1594.0255,-425.6031 1584.0375,-415.2255 1574.9523,-406.5388"/>
<polygon fill="#191970" stroke="#191970" points="1577.2965,-403.9392 1567.5971,-399.6764 1572.5212,-409.0574 1577.2965,-403.9392"/>
</g>
<!-- Node35 -->
<g id="node36" class="node">
<title>Node35</title>
<g id="a_node36"><a xlink:href="unique__id_8h.html" target="_top" xlink:title="maliput/api/unique_id.h">
<polygon fill="#ffffff" stroke="#000000" points="1731.5,-375 1731.5,-394 1862.5,-394 1862.5,-375 1731.5,-375"/>
<text text-anchor="middle" x="1797" y="-382" font-family="Helvetica,sans-Serif" font-size="10.00" fill="#000000">maliput/api/unique_id.h</text>
</a>
</g>
</g>
<!-- Node34&#45;&gt;Node35 -->
<g id="edge85" class="edge">
<title>Node34&#45;&gt;Node35</title>
<path fill="none" stroke="#191970" d="M1746.3003,-568.8048C1837.3047,-560.1978 1993.086,-542.7676 2010,-523 2035.1385,-493.6203 2033.9138,-466.3849 2010,-436 1992.9164,-414.2936 1926.6799,-400.6421 1872.5496,-392.8916"/>
<polygon fill="#191970" stroke="#191970" points="1872.9836,-389.4183 1862.5978,-391.5124 1872.0227,-396.3521 1872.9836,-389.4183"/>
</g>
<!-- Node35&#45;&gt;Node9 -->
<g id="edge86" class="edge">
<title>Node35&#45;&gt;Node9</title>
<path fill="none" stroke="#191970" d="M1827.4674,-374.9858C1855.0161,-365.8556 1896.3006,-350.8433 1930,-333 1953.1525,-320.7411 2009.0683,-285.099 2027,-266 2052.3817,-238.9661 2070,-231.5818 2070,-194.5 2070,-194.5 2070,-194.5 2070,-133 2070,-97.7513 2065.0476,-88.3285 2051,-56 2046.7485,-46.2157 2040.4824,-36.1968 2034.775,-28.0175"/>
<polygon fill="#191970" stroke="#191970" points="2037.419,-25.7024 2028.7057,-19.675 2031.7585,-29.8205 2037.419,-25.7024"/>
</g>
<!-- Node35&#45;&gt;Node17 -->
<g id="edge87" class="edge">
<title>Node35&#45;&gt;Node17</title>
<path fill="none" stroke="#191970" d="M1731.3259,-375.2675C1681.2936,-367.1456 1611.1704,-353.4007 1552,-333 1469.1313,-304.4286 1459.73,-268.4584 1375,-246 1122.7744,-179.1454 1048.9665,-232.4659 789,-210 770.032,-208.3608 749.6437,-206.2717 730.4845,-204.162"/>
<polygon fill="#191970" stroke="#191970" points="730.6152,-200.655 720.2889,-203.0251 729.8394,-207.6119 730.6152,-200.655"/>
</g>
<!-- Node35&#45;&gt;Node18 -->
<g id="edge89" class="edge">
<title>Node35&#45;&gt;Node18</title>
<path fill="none" stroke="#191970" d="M1814.2589,-374.8165C1864.6292,-346.5539 2007.9125,-266.1494 2008,-266 2040.1043,-211.1491 2027.0875,-183.6216 2008,-123 2004.8389,-112.9605 1998.9469,-103.1732 1992.8315,-94.874"/>
<polygon fill="#191970" stroke="#191970" points="1995.4208,-92.5049 1986.4829,-86.816 1989.9223,-96.837 1995.4208,-92.5049"/>
</g>
<!-- Node35&#45;&gt;Node30 -->
<g id="edge88" class="edge">
<title>Node35&#45;&gt;Node30</title>
<path fill="none" stroke="#191970" d="M1773.2162,-374.9005C1748.3554,-364.8663 1708.7047,-348.8627 1677.5785,-336.2997"/>
<polygon fill="#191970" stroke="#191970" points="1678.8013,-333.019 1668.2181,-332.5218 1676.1813,-339.5102 1678.8013,-333.019"/>
</g>
<!-- Node36&#45;&gt;Node4 -->
<g id="edge96" class="edge">
<title>Node36&#45;&gt;Node4</title>
<path fill="none" stroke="#191970" d="M527.814,-559.397C480.8912,-541.804 418,-507.7347 418,-451.5 418,-451.5 418,-451.5 418,-384.5 418,-344.195 435.404,-299.5903 446.6555,-274.9654"/>
<polygon fill="#191970" stroke="#191970" points="449.9231,-276.2425 451.0322,-265.7058 443.5944,-273.2511 449.9231,-276.2425"/>
</g>
<!-- Node36&#45;&gt;Node6 -->
<g id="edge95" class="edge">
<title>Node36&#45;&gt;Node6</title>
<path fill="none" stroke="#191970" d="M574.8184,-559.4709C569.3557,-533.9727 557.6517,-480.6538 546,-436 543.2325,-425.394 539.839,-413.6539 536.9801,-404.0647"/>
<polygon fill="#191970" stroke="#191970" points="540.2814,-402.8894 534.0413,-394.3271 533.5799,-404.9119 540.2814,-402.8894"/>
</g>
<!-- Node36&#45;&gt;Node10 -->
<g id="edge97" class="edge">
<title>Node36&#45;&gt;Node10</title>
<path fill="none" stroke="#191970" d="M640.6724,-569.5712C784.7809,-558.2378 1138.8836,-530.3896 1289.9111,-518.5121"/>
<polygon fill="#191970" stroke="#191970" points="1290.3002,-521.9924 1299.9949,-517.7191 1289.7513,-515.014 1290.3002,-521.9924"/>
</g>
<!-- Node36&#45;&gt;Node17 -->
<g id="edge113" class="edge">
<title>Node36&#45;&gt;Node17</title>
<path fill="none" stroke="#191970" d="M515.2693,-563.0001C488.7302,-555.4291 459.1343,-543.0549 438,-523 348.5659,-438.1334 338.9164,-336.1706 423,-246 442.9218,-224.636 512.7366,-210.9775 569.7394,-203.1348"/>
<polygon fill="#191970" stroke="#191970" points="570.4058,-206.577 579.8548,-201.7846 569.4797,-199.6385 570.4058,-206.577"/>
</g>
<!-- Node36&#45;&gt;Node18 -->
<g id="edge114" class="edge">
<title>Node36&#45;&gt;Node18</title>
<path fill="none" stroke="#191970" d="M640.5388,-573.3106C878.7953,-567.7669 1727.5301,-538.4862 1952,-400 2018.0586,-359.2453 2037.5231,-338.9634 2064,-266 2085.9122,-205.6156 2080.2715,-175.3188 2043,-123 2034.3262,-110.8244 2021.8637,-100.4135 2009.7938,-92.2044"/>
<polygon fill="#191970" stroke="#191970" points="2011.4357,-89.0986 2001.1343,-86.6223 2007.643,-94.9821 2011.4357,-89.0986"/>
</g>
<!-- Node36&#45;&gt;Node20 -->
<g id="edge94" class="edge">
<title>Node36&#45;&gt;Node20</title>
<path fill="none" stroke="#191970" d="M515.3339,-564.2953C389.6343,-539.7499 114.255,-464.0547 62,-266 26.5731,-131.7265 263.112,-88.053 361.9909,-75.7627"/>
<polygon fill="#191970" stroke="#191970" points="362.4389,-79.2342 371.9533,-74.5732 361.6089,-72.2836 362.4389,-79.2342"/>
</g>
<!-- Node36&#45;&gt;Node28 -->
<g id="edge112" class="edge">
<title>Node36&#45;&gt;Node28</title>
<path fill="none" stroke="#191970" d="M640.6537,-562.2529C810.7958,-528.9947 1281.2854,-437.0265 1470.0813,-400.122"/>
<polygon fill="#191970" stroke="#191970" points="1470.7988,-403.548 1479.9416,-398.1945 1469.4559,-396.6781 1470.7988,-403.548"/>
</g>
<!-- Node36&#45;&gt;Node37 -->
<g id="edge98" class="edge">
<title>Node36&#45;&gt;Node37</title>
<path fill="none" stroke="#191970" d="M609.3336,-559.4553C642.6637,-543.8595 697.2033,-519.4965 746,-503 787.0718,-489.115 833.9377,-476.9477 872.1814,-467.931"/>
<polygon fill="#191970" stroke="#191970" points="873.2735,-471.2703 882.2171,-465.5902 871.6835,-464.4532 873.2735,-471.2703"/>
</g>
<!-- Node37&#45;&gt;Node2 -->
<g id="edge100" class="edge">
<title>Node37&#45;&gt;Node2</title>
<path fill="none" stroke="#191970" d="M918.1522,-436.4639C895.736,-425.1715 865.2394,-409.8086 843.2262,-398.7192"/>
<polygon fill="#191970" stroke="#191970" points="844.57,-395.4772 834.0645,-394.1039 841.4207,-401.7287 844.57,-395.4772"/>
</g>
<!-- Node37&#45;&gt;Node3 -->
<g id="edge101" class="edge">
<title>Node37&#45;&gt;Node3</title>
<path fill="none" stroke="#191970" d="M1013.5529,-448.4163C1217.5769,-438.7435 1830.1771,-409.1039 1872,-400 1906.544,-392.4806 2124.0294,-303.717 2207.4675,-269.4132"/>
<polygon fill="#191970" stroke="#191970" points="2209.0409,-272.5506 2216.9571,-265.5089 2206.3775,-266.077 2209.0409,-272.5506"/>
</g>
<!-- Node37&#45;&gt;Node4 -->
<g id="edge104" class="edge">
<title>Node37&#45;&gt;Node4</title>
<path fill="none" stroke="#191970" d="M888.1041,-436.4004C854.8567,-427.2919 813.0561,-414.6292 777,-400 689.3213,-364.4256 674.8975,-339.4422 588,-302 555.1939,-287.8646 516.4739,-274.7766 489.4866,-266.2048"/>
<polygon fill="#191970" stroke="#191970" points="490.344,-262.8055 479.7547,-263.1479 488.2462,-269.4838 490.344,-262.8055"/>
</g>
<!-- Node37&#45;&gt;Node6 -->
<g id="edge103" class="edge">
<title>Node37&#45;&gt;Node6</title>
<path fill="none" stroke="#191970" d="M882.385,-440.9575C801.1678,-427.9083 664.2176,-405.9043 587.4723,-393.5735"/>
<polygon fill="#191970" stroke="#191970" points="587.9384,-390.1036 577.5098,-391.9728 586.8279,-397.0149 587.9384,-390.1036"/>
</g>
<!-- Node37&#45;&gt;Node9 -->
<g id="edge102" class="edge">
<title>Node37&#45;&gt;Node9</title>
<path fill="none" stroke="#191970" d="M882.4919,-449.1144C770.334,-444.2473 546.6818,-430.9048 475,-400 329.8656,-337.427 174.3116,-260.6368 252,-123 280.3248,-72.8183 307.7072,-72.2235 363,-56 443.8776,-32.2696 1764.0273,-13.4642 1988.6375,-10.4289"/>
<polygon fill="#191970" stroke="#191970" points="1988.8292,-13.9268 1998.7812,-10.2925 1988.735,-6.9274 1988.8292,-13.9268"/>
</g>
<!-- Node37&#45;&gt;Node14 -->
<g id="edge105" class="edge">
<title>Node37&#45;&gt;Node14</title>
<path fill="none" stroke="#191970" d="M1013.5295,-436.962C1068.5003,-424.7665 1146.0046,-407.5718 1197.095,-396.2372"/>
<polygon fill="#191970" stroke="#191970" points="1197.9418,-399.6345 1206.9463,-394.0516 1196.4256,-392.8007 1197.9418,-399.6345"/>
</g>
<!-- Node37&#45;&gt;Node15 -->
<g id="edge99" class="edge">
<title>Node37&#45;&gt;Node15</title>
<path fill="none" stroke="#191970" d="M1013.8562,-438.3575C1018.6359,-437.5213 1023.3881,-436.7254 1028,-436 1093.6757,-425.6706 1279.5448,-448.5162 1325,-400 1356.5607,-366.3139 1346.8133,-306.4647 1338.886,-275.6056"/>
<polygon fill="#191970" stroke="#191970" points="1342.1708,-274.3526 1336.1277,-265.6502 1335.425,-276.2217 1342.1708,-274.3526"/>
</g>
<!-- Node37&#45;&gt;Node17 -->
<g id="edge108" class="edge">
<title>Node37&#45;&gt;Node17</title>
<path fill="none" stroke="#191970" d="M978.2056,-436.4418C1007.2624,-420.0143 1043.9286,-392.8696 1023,-369 982.6583,-322.9892 805.7019,-358.3325 750,-333 709.0104,-314.3585 698.9046,-303.5155 674,-266 664.6761,-251.9548 658.6602,-233.952 654.9833,-219.525"/>
<polygon fill="#191970" stroke="#191970" points="658.3856,-218.7031 652.7055,-209.7595 651.5686,-220.2932 658.3856,-218.7031"/>
</g>
<!-- Node37&#45;&gt;Node25 -->
<g id="edge111" class="edge">
<title>Node37&#45;&gt;Node25</title>
<path fill="none" stroke="#191970" d="M995.6358,-436.4168C1012.7276,-428.445 1030.1873,-416.7385 1040,-400 1046.9679,-388.1141 1047.0331,-380.8475 1040,-369 1022.9437,-340.268 991.0563,-361.732 974,-333 938.0738,-272.4808 989.0569,-187.8013 1015.19,-151.1227"/>
<polygon fill="#191970" stroke="#191970" points="1018.145,-153.0114 1021.2305,-142.8757 1012.4978,-148.875 1018.145,-153.0114"/>
</g>
<!-- Node37&#45;&gt;Node28 -->
<g id="edge106" class="edge">
<title>Node37&#45;&gt;Node28</title>
<path fill="none" stroke="#191970" d="M1013.8378,-438.2361C1018.6218,-437.4283 1023.3801,-436.672 1028,-436 1190.6248,-412.3445 1232.467,-416.2286 1396,-400 1419.9823,-397.6201 1446.0625,-395.0052 1469.827,-392.6122"/>
<polygon fill="#191970" stroke="#191970" points="1470.2584,-396.0866 1479.8571,-391.6016 1469.5566,-389.1218 1470.2584,-396.0866"/>
</g>
<!-- Node37&#45;&gt;Node30 -->
<g id="edge109" class="edge">
<title>Node37&#45;&gt;Node30</title>
<path fill="none" stroke="#191970" d="M1013.8465,-438.2947C1018.6285,-437.4732 1023.3839,-436.6978 1028,-436 1173.8797,-413.9495 1213.4354,-429.4652 1358,-400 1399.6748,-391.5058 1508.3652,-357.2569 1575.3542,-335.6466"/>
<polygon fill="#191970" stroke="#191970" points="1576.4832,-338.96 1584.9223,-332.5544 1574.3305,-332.2992 1576.4832,-338.96"/>
</g>
<!-- Node37&#45;&gt;Node35 -->
<g id="edge107" class="edge">
<title>Node37&#45;&gt;Node35</title>
<path fill="none" stroke="#191970" d="M1013.7689,-446.8891C1135.3198,-438.2868 1403.3311,-418.942 1629,-400 1659.1565,-397.4688 1692.3357,-394.456 1721.1858,-391.7627"/>
<polygon fill="#191970" stroke="#191970" points="1721.568,-395.2423 1731.1979,-390.8246 1720.9149,-388.2728 1721.568,-395.2423"/>
</g>
<!-- Node38 -->
<g id="node39" class="node">
<title>Node38</title>
<g id="a_node39"><a xlink:href="passkey_8h.html" target="_top" xlink:title="maliput/common/passkey.h">
<polygon fill="#ffffff" stroke="#000000" points="862,-375 862,-394 1014,-394 1014,-375 862,-375"/>
<text text-anchor="middle" x="938" y="-382" font-family="Helvetica,sans-Serif" font-size="10.00" fill="#000000">maliput/common/passkey.h</text>
</a>
</g>
</g>
<!-- Node37&#45;&gt;Node38 -->
<g id="edge110" class="edge">
<title>Node37&#45;&gt;Node38</title>
<path fill="none" stroke="#191970" d="M945.7308,-436.2967C944.3089,-426.7699 942.462,-414.3954 940.9299,-404.1306"/>
<polygon fill="#191970" stroke="#191970" points="944.364,-403.4287 939.4261,-394.055 937.4407,-404.4621 944.364,-403.4287"/>
</g>
<!-- Node39&#45;&gt;Node3 -->
<g id="edge122" class="edge">
<title>Node39&#45;&gt;Node3</title>
<path fill="none" stroke="#191970" d="M606.5516,-830.3124C929.737,-824.036 2338,-791.6035 2338,-703 2338,-703 2338,-703 2338,-384.5 2338,-335.4275 2292.2536,-293.4266 2263.2712,-271.7413"/>
<polygon fill="#191970" stroke="#191970" points="2265.0388,-268.7003 2254.8841,-265.6783 2260.9378,-274.3733 2265.0388,-268.7003"/>
</g>
<!-- Node39&#45;&gt;Node4 -->
<g id="edge123" class="edge">
<title>Node39&#45;&gt;Node4</title>
<path fill="none" stroke="#191970" d="M480.2192,-816.4739C446.083,-806.7913 408.1462,-793.5216 397,-780 323.5565,-690.9045 366.7032,-638.2068 359,-523 352.3242,-423.1588 341.499,-381.7024 402,-302 410.8132,-290.3897 423.02,-279.6823 433.5985,-271.5247"/>
<polygon fill="#191970" stroke="#191970" points="435.6916,-274.3299 441.6372,-265.5606 431.5207,-268.7082 435.6916,-274.3299"/>
</g>
<!-- Node39&#45;&gt;Node5 -->
<g id="edge124" class="edge">
<title>Node39&#45;&gt;Node5</title>
<path fill="none" stroke="#191970" d="M525.3428,-816.2967C516.3443,-807.559 504.8787,-796.4257 494.8852,-786.7218"/>
<polygon fill="#191970" stroke="#191970" points="497.2077,-784.0985 487.5952,-779.6432 492.3313,-789.1205 497.2077,-784.0985"/>
</g>
<!-- Node39&#45;&gt;Node17 -->
<g id="edge127" class="edge">
<title>Node39&#45;&gt;Node17</title>
<path fill="none" stroke="#191970" d="M475.3947,-822.7286C441.8104,-815.6182 401.8315,-802.8443 372,-780 191.3919,-641.6943 105.9338,-513.7729 189,-302 200.3604,-273.0372 204.0756,-261.5878 231,-246 286.8589,-213.6606 464.1994,-201.4428 569.4139,-196.9671"/>
<polygon fill="#191970" stroke="#191970" points="569.8298,-200.4531 579.6776,-196.5453 569.5423,-193.459 569.8298,-200.4531"/>
</g>
<!-- Node39&#45;&gt;Node34 -->
<g id="edge126" class="edge">
<title>Node39&#45;&gt;Node34</title>
<path fill="none" stroke="#191970" d="M606.7933,-828.4343C816.7013,-817.532 1466.5372,-774.7831 1635,-657 1656.6716,-641.848 1669.2927,-613.0519 1675.6665,-593.8116"/>
<polygon fill="#191970" stroke="#191970" points="1679.087,-594.5937 1678.6508,-584.0078 1672.3903,-592.5552 1679.087,-594.5937"/>
</g>
<!-- Node39&#45;&gt;Node36 -->
<g id="edge125" class="edge">
<title>Node39&#45;&gt;Node36</title>
<path fill="none" stroke="#191970" d="M543.2037,-816.1931C549.3475,-773.5187 566.7147,-652.8871 574.3368,-599.9443"/>
<polygon fill="#191970" stroke="#191970" points="577.847,-600.1234 575.8078,-589.7267 570.9185,-599.1258 577.847,-600.1234"/>
</g>
</g>
</svg>
