<?xml version="1.0" encoding="UTF-8" standalone="no"?>
<!DOCTYPE svg PUBLIC "-//W3C//DTD SVG 1.1//EN"
 "http://www.w3.org/Graphics/SVG/1.1/DTD/svg11.dtd">
<!-- Generated by graphviz version 2.40.1 (20161225.0304)
 -->
<!-- Title: manual_discrete_value_rule_state_provider.cc Pages: 1 -->
<!--zoomable 888 -->
<svg id="main" version="1.1" xmlns="http://www.w3.org/2000/svg" xmlns:xlink="http://www.w3.org/1999/xlink" xml:space="preserve" onload="init(evt)">
<style type="text/css"><![CDATA[
.edge:hover path { stroke: red; }
.edge:hover polygon { stroke: red; fill: red; }
]]></style>
<script type="text/javascript"><![CDATA[
var edges = document.getElementsByTagName('g');
if (edges && edges.length) {
  for (var i=0;i<edges.length;i++) {
    if (edges[i].id.substr(0,4)=='edge') {
      edges[i].setAttribute('class','edge');
    }
  }
}
]]></script>
        <defs>
                <circle id="rim" cx="0" cy="0" r="7"/>
                <circle id="rim2" cx="0" cy="0" r="3.5"/>
                <g id="zoomPlus">
                        <use xlink:href="#rim" fill="#404040">
                                <set attributeName="fill" to="#808080" begin="zoomplus.mouseover" end="zoomplus.mouseout"/>
                        </use>
                        <path d="M-4,0h8M0,-4v8" fill="none" stroke="white" stroke-width="1.5" pointer-events="none"/>
                </g>
                <g id="zoomMin">
                        <use xlink:href="#rim" fill="#404040">
                                <set attributeName="fill" to="#808080" begin="zoomminus.mouseover" end="zoomminus.mouseout"/>
                        </use>
                        <path d="M-4,0h8" fill="none" stroke="white" stroke-width="1.5" pointer-events="none"/>
                </g>
                <g id="dirArrow">
                        <path fill="none" stroke="white" stroke-width="1.5" d="M0,-3.0v7 M-2.5,-0.5L0,-3.0L2.5,-0.5"/>
                </g>
               <g id="resetDef">
                       <use xlink:href="#rim2" fill="#404040">
                               <set attributeName="fill" to="#808080" begin="reset.mouseover" end="reset.mouseout"/>
                       </use>
               </g>
        </defs>

<script type="text/javascript">
var viewWidth = 2869;
var viewHeight = 888;
var sectionId = 'dynsection-0';
</script>
<script xlink:href="svgpan.js"/>
<svg id="graph" class="graph">
<g id="viewport">
<title>manual_discrete_value_rule_state_provider.cc</title>
<polygon fill="#ffffff" stroke="transparent" points="-4,4 -4,-884 2864.5,-884 2864.5,4 -4,4"/>
<!-- Node0 -->
<g id="node1" class="node">
<title>Node0</title>
<polygon fill="#bfbfbf" stroke="#000000" points="2683,-849.5 2683,-879.5 2813,-879.5 2813,-849.5 2683,-849.5"/>
<text text-anchor="start" x="2691" y="-867.5" font-family="Helvetica,sans-Serif" font-size="10.00" fill="#000000">manual_discrete_value</text>
<text text-anchor="middle" x="2748" y="-856.5" font-family="Helvetica,sans-Serif" font-size="10.00" fill="#000000">_rule_state_provider.cc</text>
</g>
<!-- Node1 -->
<g id="node2" class="node">
<title>Node1</title>
<g id="a_node2"><a xlink:href="manual__discrete__value__rule__state__provider_8h.html" target="_top" xlink:title="maliput/base/manual\l_discrete_value_rule\l_state_provider.h">
<polygon fill="#ffffff" stroke="#000000" points="2254,-771.5 2254,-812.5 2374,-812.5 2374,-771.5 2254,-771.5"/>
<text text-anchor="start" x="2262" y="-800.5" font-family="Helvetica,sans-Serif" font-size="10.00" fill="#000000">maliput/base/manual</text>
<text text-anchor="start" x="2262" y="-789.5" font-family="Helvetica,sans-Serif" font-size="10.00" fill="#000000">_discrete_value_rule</text>
<text text-anchor="middle" x="2314" y="-778.5" font-family="Helvetica,sans-Serif" font-size="10.00" fill="#000000">_state_provider.h</text>
</a>
</g>
</g>
<!-- Node0&#45;&gt;Node1 -->
<g id="edge1" class="edge">
<title>Node0&#45;&gt;Node1</title>
<path fill="none" stroke="#191970" d="M2682.5559,-853.5675C2602.1986,-840.1438 2466.4596,-817.4685 2384.0511,-803.7021"/>
<polygon fill="#191970" stroke="#191970" points="2384.4658,-800.2229 2374.0258,-802.0273 2383.3124,-807.1273 2384.4658,-800.2229"/>
</g>
<!-- Node5 -->
<g id="node6" class="node">
<title>Node5</title>
<polygon fill="#ffffff" stroke="#bfbfbf" points="1871,-.5 1871,-19.5 1915,-19.5 1915,-.5 1871,-.5"/>
<text text-anchor="middle" x="1893" y="-7.5" font-family="Helvetica,sans-Serif" font-size="10.00" fill="#000000">string</text>
</g>
<!-- Node0&#45;&gt;Node5 -->
<g id="edge143" class="edge">
<title>Node0&#45;&gt;Node5</title>
<path fill="none" stroke="#191970" d="M2751.3095,-849.3461C2756.7532,-823.0565 2767,-767.231 2767,-719.5 2767,-719.5 2767,-719.5 2767,-133 2767,-75.13 2716.4356,-75.6394 2662,-56 2592.027,-30.755 2062.8964,-14.6471 1925.5101,-10.8612"/>
<polygon fill="#191970" stroke="#191970" points="1925.3188,-7.3548 1915.2271,-10.5808 1925.1279,-14.3522 1925.3188,-7.3548"/>
</g>
<!-- Node18 -->
<g id="node19" class="node">
<title>Node18</title>
<polygon fill="#ffffff" stroke="#bfbfbf" points="2415,-62 2415,-81 2479,-81 2479,-62 2415,-62"/>
<text text-anchor="middle" x="2447" y="-69" font-family="Helvetica,sans-Serif" font-size="10.00" fill="#000000">algorithm</text>
</g>
<!-- Node0&#45;&gt;Node18 -->
<g id="edge141" class="edge">
<title>Node0&#45;&gt;Node18</title>
<path fill="none" stroke="#191970" d="M2744.6905,-849.3461C2739.2468,-823.0565 2729,-767.231 2729,-719.5 2729,-719.5 2729,-719.5 2729,-451.5 2729,-278.5277 2538.249,-133.0368 2470.5129,-86.8254"/>
<polygon fill="#191970" stroke="#191970" points="2472.4126,-83.8851 2462.1615,-81.2079 2468.5056,-89.6934 2472.4126,-83.8851"/>
</g>
<!-- Node43 -->
<g id="node44" class="node">
<title>Node43</title>
<polygon fill="#ffffff" stroke="#bfbfbf" points="2795.5,-782.5 2795.5,-801.5 2860.5,-801.5 2860.5,-782.5 2795.5,-782.5"/>
<text text-anchor="middle" x="2828" y="-789.5" font-family="Helvetica,sans-Serif" font-size="10.00" fill="#000000">stdexcept</text>
</g>
<!-- Node0&#45;&gt;Node43 -->
<g id="edge142" class="edge">
<title>Node0&#45;&gt;Node43</title>
<path fill="none" stroke="#191970" d="M2764.5761,-849.478C2777.6138,-837.6625 2795.7778,-821.2013 2809.3275,-808.922"/>
<polygon fill="#191970" stroke="#191970" points="2812.0211,-811.2044 2817.0806,-801.8957 2807.3204,-806.0174 2812.0211,-811.2044"/>
</g>
<!-- Node2 -->
<g id="node3" class="node">
<title>Node2</title>
<polygon fill="#ffffff" stroke="#bfbfbf" points="1713,-246.5 1713,-265.5 1769,-265.5 1769,-246.5 1713,-246.5"/>
<text text-anchor="middle" x="1741" y="-253.5" font-family="Helvetica,sans-Serif" font-size="10.00" fill="#000000">optional</text>
</g>
<!-- Node1&#45;&gt;Node2 -->
<g id="edge2" class="edge">
<title>Node1&#45;&gt;Node2</title>
<path fill="none" stroke="#191970" d="M2260.4192,-771.3965C2146.892,-724.6665 1882.6787,-598.9957 1762,-400 1738.291,-360.9046 1737.6086,-305.1194 1739.2449,-275.7802"/>
<polygon fill="#191970" stroke="#191970" points="1742.7509,-275.8189 1739.9707,-265.5954 1735.7686,-275.3213 1742.7509,-275.8189"/>
</g>
<!-- Node3 -->
<g id="node4" class="node">
<title>Node3</title>
<polygon fill="#ffffff" stroke="#bfbfbf" points="1583.5,-375 1583.5,-394 1676.5,-394 1676.5,-375 1583.5,-375"/>
<text text-anchor="middle" x="1630" y="-382" font-family="Helvetica,sans-Serif" font-size="10.00" fill="#000000">unordered_map</text>
</g>
<!-- Node1&#45;&gt;Node3 -->
<g id="edge3" class="edge">
<title>Node1&#45;&gt;Node3</title>
<path fill="none" stroke="#191970" d="M2253.9432,-788.3965C2159.2242,-781.8561 1980.2281,-765.7714 1925,-735 1849.3418,-692.8456 1688.9063,-468.7394 1642.6982,-402.7778"/>
<polygon fill="#191970" stroke="#191970" points="1645.3274,-400.4296 1636.7331,-394.2337 1639.5878,-404.4367 1645.3274,-400.4296"/>
</g>
<!-- Node4 -->
<g id="node5" class="node">
<title>Node4</title>
<g id="a_node5"><a xlink:href="discrete__value__rule_8h.html" target="_top" xlink:title="maliput/api/rules/discrete\l_value_rule.h">
<polygon fill="#ffffff" stroke="#000000" points="2449.5,-637.5 2449.5,-667.5 2590.5,-667.5 2590.5,-637.5 2449.5,-637.5"/>
<text text-anchor="start" x="2457.5" y="-655.5" font-family="Helvetica,sans-Serif" font-size="10.00" fill="#000000">maliput/api/rules/discrete</text>
<text text-anchor="middle" x="2520" y="-644.5" font-family="Helvetica,sans-Serif" font-size="10.00" fill="#000000">_value_rule.h</text>
</a>
</g>
</g>
<!-- Node1&#45;&gt;Node4 -->
<g id="edge4" class="edge">
<title>Node1&#45;&gt;Node4</title>
<path fill="none" stroke="#191970" d="M2367.2837,-771.4484C2389.1613,-761.8749 2414.1868,-749.4034 2435,-735 2459.7831,-717.8494 2484.0478,-693.2976 2500.2655,-675.4394"/>
<polygon fill="#191970" stroke="#191970" points="2503.0757,-677.5471 2507.1235,-667.756 2497.8534,-672.8858 2503.0757,-677.5471"/>
</g>
<!-- Node15 -->
<g id="node16" class="node">
<title>Node15</title>
<g id="a_node16"><a xlink:href="maliput__copyable_8h.html" target="_top" xlink:title="Code in this file is inspired by: https://github.com/RobotLocomotion/drake/blob/master/common/drake_c...">
<polygon fill="#ffffff" stroke="#000000" points="1615,-179.5 1615,-209.5 1755,-209.5 1755,-179.5 1615,-179.5"/>
<text text-anchor="start" x="1623" y="-197.5" font-family="Helvetica,sans-Serif" font-size="10.00" fill="#000000">maliput/common/maliput</text>
<text text-anchor="middle" x="1685" y="-186.5" font-family="Helvetica,sans-Serif" font-size="10.00" fill="#000000">_copyable.h</text>
</a>
</g>
</g>
<!-- Node1&#45;&gt;Node15 -->
<g id="edge139" class="edge">
<title>Node1&#45;&gt;Node15</title>
<path fill="none" stroke="#191970" d="M2374.1536,-782.5494C2480.591,-764.1156 2691,-719.2352 2691,-652.5 2691,-652.5 2691,-652.5 2691,-518.5 2691,-337.7142 2556.3258,-314.4514 2389,-246 2332.4917,-222.883 1937.3594,-204.549 1765.0412,-197.5597"/>
<polygon fill="#191970" stroke="#191970" points="1765.1458,-194.0611 1755.013,-197.1555 1764.8639,-201.0554 1765.1458,-194.0611"/>
</g>
<!-- Node16 -->
<g id="node17" class="node">
<title>Node16</title>
<g id="a_node17"><a xlink:href="maliput__throw_8h.html" target="_top" xlink:title="Code in this file is inspired by: https://github.com/RobotLocomotion/drake/blob/master/common/drake_t...">
<polygon fill="#ffffff" stroke="#000000" points="139,-56.5 139,-86.5 279,-86.5 279,-56.5 139,-56.5"/>
<text text-anchor="start" x="147" y="-74.5" font-family="Helvetica,sans-Serif" font-size="10.00" fill="#000000">maliput/common/maliput</text>
<text text-anchor="middle" x="209" y="-63.5" font-family="Helvetica,sans-Serif" font-size="10.00" fill="#000000">_throw.h</text>
</a>
</g>
</g>
<!-- Node1&#45;&gt;Node16 -->
<g id="edge140" class="edge">
<title>Node1&#45;&gt;Node16</title>
<path fill="none" stroke="#191970" d="M2253.8863,-791.6071C1890.2371,-788.8468 0,-768.9006 0,-652.5 0,-652.5 0,-652.5 0,-194.5 0,-132.085 70.0872,-100.7103 129.088,-85.3563"/>
<polygon fill="#191970" stroke="#191970" points="129.963,-88.7454 138.8246,-82.9384 128.2758,-81.9517 129.963,-88.7454"/>
</g>
<!-- Node32 -->
<g id="node33" class="node">
<title>Node32</title>
<g id="a_node33"><a xlink:href="rule_8h.html" target="_top" xlink:title="maliput/api/rules/rule.h">
<polygon fill="#ffffff" stroke="#000000" points="2339,-576 2339,-595 2469,-595 2469,-576 2339,-576"/>
<text text-anchor="middle" x="2404" y="-583" font-family="Helvetica,sans-Serif" font-size="10.00" fill="#000000">maliput/api/rules/rule.h</text>
</a>
</g>
</g>
<!-- Node1&#45;&gt;Node32 -->
<g id="edge138" class="edge">
<title>Node1&#45;&gt;Node32</title>
<path fill="none" stroke="#191970" d="M2363.7914,-771.2348C2378.7604,-762.3817 2393.4623,-750.4552 2402,-735 2424.927,-693.4972 2416.154,-635.107 2409.2461,-605.059"/>
<polygon fill="#191970" stroke="#191970" points="2412.5623,-603.8895 2406.7599,-595.0248 2405.7677,-605.5731 2412.5623,-603.8895"/>
</g>
<!-- Node34 -->
<g id="node35" class="node">
<title>Node34</title>
<g id="a_node35"><a xlink:href="discrete__value__rule__state__provider_8h.html" target="_top" xlink:title="maliput/api/rules/discrete\l_value_rule_state_provider.h">
<polygon fill="#ffffff" stroke="#000000" points="2235,-704.5 2235,-734.5 2393,-734.5 2393,-704.5 2235,-704.5"/>
<text text-anchor="start" x="2243" y="-722.5" font-family="Helvetica,sans-Serif" font-size="10.00" fill="#000000">maliput/api/rules/discrete</text>
<text text-anchor="middle" x="2314" y="-711.5" font-family="Helvetica,sans-Serif" font-size="10.00" fill="#000000">_value_rule_state_provider.h</text>
</a>
</g>
</g>
<!-- Node1&#45;&gt;Node34 -->
<g id="edge84" class="edge">
<title>Node1&#45;&gt;Node34</title>
<path fill="none" stroke="#191970" d="M2314,-771.4183C2314,-763.0849 2314,-753.3834 2314,-744.6373"/>
<polygon fill="#191970" stroke="#191970" points="2317.5001,-744.5991 2314,-734.5991 2310.5001,-744.5991 2317.5001,-744.5991"/>
</g>
<!-- Node36 -->
<g id="node37" class="node">
<title>Node36</title>
<g id="a_node37"><a xlink:href="road__rulebook_8h.html" target="_top" xlink:title="maliput/api/rules/road\l_rulebook.h">
<polygon fill="#ffffff" stroke="#000000" points="1627,-704.5 1627,-734.5 1751,-734.5 1751,-704.5 1627,-704.5"/>
<text text-anchor="start" x="1635" y="-722.5" font-family="Helvetica,sans-Serif" font-size="10.00" fill="#000000">maliput/api/rules/road</text>
<text text-anchor="middle" x="1689" y="-711.5" font-family="Helvetica,sans-Serif" font-size="10.00" fill="#000000">_rulebook.h</text>
</a>
</g>
</g>
<!-- Node1&#45;&gt;Node36 -->
<g id="edge91" class="edge">
<title>Node1&#45;&gt;Node36</title>
<path fill="none" stroke="#191970" d="M2253.7887,-785.0155C2138.3292,-771.6222 1886.2265,-742.3783 1761.6471,-727.9271"/>
<polygon fill="#191970" stroke="#191970" points="1761.7853,-724.4197 1751.4486,-726.744 1760.9787,-731.3731 1761.7853,-724.4197"/>
</g>
<!-- Node4&#45;&gt;Node5 -->
<g id="edge5" class="edge">
<title>Node4&#45;&gt;Node5</title>
<path fill="none" stroke="#191970" d="M2535.0308,-637.4313C2582.9526,-587.7112 2729,-422.5229 2729,-256 2729,-256 2729,-256 2729,-133 2729,-62.3767 2657.7568,-75.9165 2590,-56 2462.93,-18.6489 2045.2682,-11.5478 1925.4175,-10.268"/>
<polygon fill="#191970" stroke="#191970" points="1925.1161,-6.7649 1915.0815,-10.1644 1925.0459,-13.7646 1925.1161,-6.7649"/>
</g>
<!-- Node6 -->
<g id="node7" class="node">
<title>Node6</title>
<polygon fill="#ffffff" stroke="#bfbfbf" points="2021.5,-246.5 2021.5,-265.5 2068.5,-265.5 2068.5,-246.5 2021.5,-246.5"/>
<text text-anchor="middle" x="2045" y="-253.5" font-family="Helvetica,sans-Serif" font-size="10.00" fill="#000000">vector</text>
</g>
<!-- Node4&#45;&gt;Node6 -->
<g id="edge6" class="edge">
<title>Node4&#45;&gt;Node6</title>
<path fill="none" stroke="#191970" d="M2514.0561,-637.3672C2506.9098,-620.1574 2493.8729,-591.644 2478,-570 2377.4496,-432.8911 2351.8677,-387.6686 2205,-302 2165.1254,-278.741 2112.7278,-266.5992 2078.9536,-260.756"/>
<polygon fill="#191970" stroke="#191970" points="2079.116,-257.2361 2068.6818,-259.0741 2077.9848,-264.1441 2079.116,-257.2361"/>
</g>
<!-- Node7 -->
<g id="node8" class="node">
<title>Node7</title>
<g id="a_node8"><a xlink:href="regions_8h.html" target="_top" xlink:title="maliput/api/regions.h">
<polygon fill="#ffffff" stroke="#000000" points="1346,-509 1346,-528 1466,-528 1466,-509 1346,-509"/>
<text text-anchor="middle" x="1406" y="-516" font-family="Helvetica,sans-Serif" font-size="10.00" fill="#000000">maliput/api/regions.h</text>
</a>
</g>
</g>
<!-- Node4&#45;&gt;Node7 -->
<g id="edge7" class="edge">
<title>Node4&#45;&gt;Node7</title>
<path fill="none" stroke="#191970" d="M2449.3975,-644.7171C2422.6711,-641.973 2391.9573,-639.0612 2364,-637 2198.2572,-624.7801 1777.4986,-644.1301 1617,-601 1588.0128,-593.2104 1584.6135,-581.7657 1557,-570 1521.0573,-554.6853 1478.8802,-540.6121 1448.251,-531.0617"/>
<polygon fill="#191970" stroke="#191970" points="1448.9195,-527.6052 1438.332,-528.001 1446.8555,-534.294 1448.9195,-527.6052"/>
</g>
<!-- Node4&#45;&gt;Node15 -->
<g id="edge83" class="edge">
<title>Node4&#45;&gt;Node15</title>
<path fill="none" stroke="#191970" d="M2519.0514,-637.4614C2514.0085,-572.4731 2484.1275,-315.8926 2324,-246 2274.0002,-224.176 1925.7521,-205.572 1765.4415,-198.0576"/>
<polygon fill="#191970" stroke="#191970" points="1765.3111,-194.5478 1755.1591,-197.5788 1764.9854,-201.5402 1765.3111,-194.5478"/>
</g>
<!-- Node4&#45;&gt;Node32 -->
<g id="edge71" class="edge">
<title>Node4&#45;&gt;Node32</title>
<path fill="none" stroke="#191970" d="M2493.9673,-637.4639C2474.6794,-626.3234 2448.5322,-611.2212 2429.3972,-600.1691"/>
<polygon fill="#191970" stroke="#191970" points="2431.0376,-597.0747 2420.6277,-595.1039 2427.5365,-603.1363 2431.0376,-597.0747"/>
</g>
<!-- Node7&#45;&gt;Node2 -->
<g id="edge10" class="edge">
<title>Node7&#45;&gt;Node2</title>
<path fill="none" stroke="#191970" d="M1416.4701,-508.9297C1427.3914,-498.8097 1444.8592,-482.2326 1459,-467 1497.6384,-425.3784 1497.3509,-405.3323 1541,-369 1548.5206,-362.7401 1662.084,-299.6494 1714.6564,-270.5559"/>
<polygon fill="#191970" stroke="#191970" points="1716.6672,-273.4435 1723.7237,-265.5405 1713.279,-267.318 1716.6672,-273.4435"/>
</g>
<!-- Node7&#45;&gt;Node6 -->
<g id="edge11" class="edge">
<title>Node7&#45;&gt;Node6</title>
<path fill="none" stroke="#191970" d="M1423.7815,-508.8959C1440.6417,-499.3762 1466.2581,-483.8162 1486,-467 1530.5632,-429.041 1523.5801,-398.7423 1574,-369 1635.287,-332.8473 1660.7717,-349.4484 1730,-333 1832.6114,-308.6199 1953.7321,-278.6869 2011.321,-264.3843"/>
<polygon fill="#191970" stroke="#191970" points="2012.4553,-267.7089 2021.316,-261.9004 2010.7671,-260.9156 2012.4553,-267.7089"/>
</g>
<!-- Node8 -->
<g id="node9" class="node">
<title>Node8</title>
<polygon fill="#ffffff" stroke="#bfbfbf" points="622.5,-185 622.5,-204 669.5,-204 669.5,-185 622.5,-185"/>
<text text-anchor="middle" x="646" y="-192" font-family="Helvetica,sans-Serif" font-size="10.00" fill="#000000">cmath</text>
</g>
<!-- Node7&#45;&gt;Node8 -->
<g id="edge8" class="edge">
<title>Node7&#45;&gt;Node8</title>
<path fill="none" stroke="#191970" d="M1345.8404,-516.4286C1174.9854,-510.2783 694.8304,-491.0447 628,-467 605.8314,-459.024 604.6258,-449.0342 585,-436 559.4111,-419.0055 542.3124,-426.029 526,-400 489.5243,-341.7974 474.1774,-302.6642 513,-246 524.5912,-229.0819 576.8679,-212.4953 612.3248,-202.8947"/>
<polygon fill="#191970" stroke="#191970" points="613.5052,-206.203 622.2779,-200.2623 611.7153,-199.4356 613.5052,-206.203"/>
</g>
<!-- Node9 -->
<g id="node10" class="node">
<title>Node9</title>
<polygon fill="#ffffff" stroke="#bfbfbf" points="1131,-442 1131,-461 1187,-461 1187,-442 1131,-442"/>
<text text-anchor="middle" x="1159" y="-449" font-family="Helvetica,sans-Serif" font-size="10.00" fill="#000000">numeric</text>
</g>
<!-- Node7&#45;&gt;Node9 -->
<g id="edge9" class="edge">
<title>Node7&#45;&gt;Node9</title>
<path fill="none" stroke="#191970" d="M1362.4331,-508.9858C1320.6754,-499.5312 1256.0426,-484.0167 1201,-467 1198.4428,-466.2094 1195.8136,-465.3511 1193.178,-464.4575"/>
<polygon fill="#191970" stroke="#191970" points="1194.3176,-461.1482 1183.7228,-461.1252 1191.9908,-467.7501 1194.3176,-461.1482"/>
</g>
<!-- Node10 -->
<g id="node11" class="node">
<title>Node10</title>
<g id="a_node11"><a xlink:href="api_2lane_8h.html" target="_top" xlink:title="maliput/api/lane.h">
<polygon fill="#ffffff" stroke="#000000" points="637.5,-442 637.5,-461 742.5,-461 742.5,-442 637.5,-442"/>
<text text-anchor="middle" x="690" y="-449" font-family="Helvetica,sans-Serif" font-size="10.00" fill="#000000">maliput/api/lane.h</text>
</a>
</g>
</g>
<!-- Node7&#45;&gt;Node10 -->
<g id="edge12" class="edge">
<title>Node7&#45;&gt;Node10</title>
<path fill="none" stroke="#191970" d="M1345.8789,-512.8741C1211.8597,-500.3332 889.6871,-470.1858 753.0098,-457.3962"/>
<polygon fill="#191970" stroke="#191970" points="752.9945,-453.8795 742.7119,-456.4325 752.3423,-460.8491 752.9945,-453.8795"/>
</g>
<!-- Node7&#45;&gt;Node15 -->
<g id="edge70" class="edge">
<title>Node7&#45;&gt;Node15</title>
<path fill="none" stroke="#191970" d="M1379.1872,-508.9332C1320.9636,-486.7392 1191.9943,-429.0443 1241,-369 1291.4839,-307.1446 1340.8844,-357.1067 1417,-333 1449.8253,-322.6039 1455.4444,-313.2123 1488,-302 1548.7448,-281.0793 1574.0753,-300.9247 1628,-266 1646.3785,-254.097 1661.4994,-234.2645 1671.5379,-218.5025"/>
<polygon fill="#191970" stroke="#191970" points="1674.6358,-220.1446 1676.8474,-209.7831 1668.657,-216.5039 1674.6358,-220.1446"/>
</g>
<!-- Node26 -->
<g id="node27" class="node">
<title>Node26</title>
<g id="a_node27"><a xlink:href="type__specific__identifier_8h.html" target="_top" xlink:title="maliput/api/type_specific\l_identifier.h">
<polygon fill="#ffffff" stroke="#000000" points="799,-369.5 799,-399.5 939,-399.5 939,-369.5 799,-369.5"/>
<text text-anchor="start" x="807" y="-387.5" font-family="Helvetica,sans-Serif" font-size="10.00" fill="#000000">maliput/api/type_specific</text>
<text text-anchor="middle" x="869" y="-376.5" font-family="Helvetica,sans-Serif" font-size="10.00" fill="#000000">_identifier.h</text>
</a>
</g>
</g>
<!-- Node7&#45;&gt;Node26 -->
<g id="edge69" class="edge">
<title>Node7&#45;&gt;Node26</title>
<path fill="none" stroke="#191970" d="M1345.9309,-510.0331C1288.0983,-501.3125 1198.4002,-486.2887 1122,-467 1050.3991,-448.9229 969.5767,-421.2565 918.963,-403.0232"/>
<polygon fill="#191970" stroke="#191970" points="919.8489,-399.6217 909.2547,-399.508 917.4657,-406.2035 919.8489,-399.6217"/>
</g>
<!-- Node10&#45;&gt;Node2 -->
<g id="edge14" class="edge">
<title>Node10&#45;&gt;Node2</title>
<path fill="none" stroke="#191970" d="M742.7402,-448.4458C796.5904,-443.6491 881.4877,-431.3662 948,-400 967.7138,-390.7033 965.7899,-377.1617 986,-369 1164.2371,-297.0204 1227.1817,-363.3075 1417,-333 1472.3467,-324.163 1629.6983,-284.5461 1702.803,-265.8401"/>
<polygon fill="#191970" stroke="#191970" points="1703.7219,-269.2178 1712.5399,-263.3448 1701.9841,-262.437 1703.7219,-269.2178"/>
</g>
<!-- Node10&#45;&gt;Node5 -->
<g id="edge15" class="edge">
<title>Node10&#45;&gt;Node5</title>
<path fill="none" stroke="#191970" d="M653.5537,-441.9264C608.1384,-429.7123 535.3266,-409.0835 526,-400 480.8917,-356.0673 492.0217,-327.8087 480,-266 472.6134,-228.022 464.1538,-215.4947 477,-179 503.7334,-103.0533 534.1833,-83.0998 610,-56 670.6375,-34.3258 1667.6107,-14.2922 1860.7443,-10.6044"/>
<polygon fill="#191970" stroke="#191970" points="1860.8928,-14.1023 1870.8245,-10.4128 1860.7598,-7.1036 1860.8928,-14.1023"/>
</g>
<!-- Node11 -->
<g id="node12" class="node">
<title>Node11</title>
<polygon fill="#ffffff" stroke="#bfbfbf" points="995,-375 995,-394 1053,-394 1053,-375 995,-375"/>
<text text-anchor="middle" x="1024" y="-382" font-family="Helvetica,sans-Serif" font-size="10.00" fill="#000000">memory</text>
</g>
<!-- Node10&#45;&gt;Node11 -->
<g id="edge13" class="edge">
<title>Node10&#45;&gt;Node11</title>
<path fill="none" stroke="#191970" d="M742.6286,-444.9437C801.3704,-436.9906 898.9549,-421.8754 981,-400 983.9712,-399.2078 987.0281,-398.3003 990.0768,-397.3305"/>
<polygon fill="#191970" stroke="#191970" points="991.3194,-400.6051 999.6711,-394.0859 989.0768,-393.974 991.3194,-400.6051"/>
</g>
<!-- Node12 -->
<g id="node13" class="node">
<title>Node12</title>
<g id="a_node13"><a xlink:href="lane__data_8h.html" target="_top" xlink:title="maliput/api/lane_data.h">
<polygon fill="#ffffff" stroke="#000000" points="535,-375 535,-394 667,-394 667,-375 535,-375"/>
<text text-anchor="middle" x="601" y="-382" font-family="Helvetica,sans-Serif" font-size="10.00" fill="#000000">maliput/api/lane_data.h</text>
</a>
</g>
</g>
<!-- Node10&#45;&gt;Node12 -->
<g id="edge16" class="edge">
<title>Node10&#45;&gt;Node12</title>
<path fill="none" stroke="#191970" d="M677.2485,-441.9005C662.841,-431.0544 639.169,-413.2339 622.0184,-400.3229"/>
<polygon fill="#191970" stroke="#191970" points="623.8221,-397.2998 613.7279,-394.0817 619.6121,-402.8923 623.8221,-397.2998"/>
</g>
<!-- Node10&#45;&gt;Node15 -->
<g id="edge67" class="edge">
<title>Node10&#45;&gt;Node15</title>
<path fill="none" stroke="#191970" d="M694.7098,-441.9194C703.9552,-424.233 726.2855,-386.6535 757,-369 847.086,-317.2221 896.9984,-383.1514 988,-333 1032.9661,-308.219 1018.1727,-269.1498 1064,-246 1111.155,-222.1796 1447.9057,-204.7264 1604.8561,-197.7924"/>
<polygon fill="#191970" stroke="#191970" points="1605.092,-201.2855 1614.9291,-197.3509 1604.7854,-194.2922 1605.092,-201.2855"/>
</g>
<!-- Node10&#45;&gt;Node16 -->
<g id="edge68" class="edge">
<title>Node10&#45;&gt;Node16</title>
<path fill="none" stroke="#191970" d="M637.4278,-443.4749C620.6833,-440.9898 602.0745,-438.3017 585,-436 454.1002,-418.3541 411.3664,-452.1183 290,-400 237.0578,-377.265 190,-375.1173 190,-317.5 190,-317.5 190,-317.5 190,-194.5 190,-160.2438 197.287,-121.2434 202.8353,-96.513"/>
<polygon fill="#191970" stroke="#191970" points="206.3001,-97.0659 205.1551,-86.5331 199.4818,-95.481 206.3001,-97.0659"/>
</g>
<!-- Node10&#45;&gt;Node26 -->
<g id="edge48" class="edge">
<title>Node10&#45;&gt;Node26</title>
<path fill="none" stroke="#191970" d="M715.6463,-441.9005C742.5697,-431.8231 785.5789,-415.7247 819.2073,-403.1375"/>
<polygon fill="#191970" stroke="#191970" points="820.7287,-406.3052 828.8672,-399.5218 818.2748,-399.7494 820.7287,-406.3052"/>
</g>
<!-- Node12&#45;&gt;Node5 -->
<g id="edge19" class="edge">
<title>Node12&#45;&gt;Node5</title>
<path fill="none" stroke="#191970" d="M644.5973,-374.9751C710.0908,-360.6332 826.7242,-334.9496 831,-333 845.8215,-326.242 934.2805,-252.9773 949,-246 1007.4435,-218.2967 1027.7325,-227.4893 1090,-210 1314.6793,-146.8935 1364.4909,-107.9886 1592,-56 1688.6286,-33.9192 1805.1804,-19.507 1860.6354,-13.3752"/>
<polygon fill="#191970" stroke="#191970" points="1861.3252,-16.8209 1870.8877,-12.2594 1860.5677,-9.8619 1861.3252,-16.8209"/>
</g>
<!-- Node13 -->
<g id="node14" class="node">
<title>Node13</title>
<polygon fill="#ffffff" stroke="#bfbfbf" points="1144.5,-246.5 1144.5,-265.5 1209.5,-265.5 1209.5,-246.5 1144.5,-246.5"/>
<text text-anchor="middle" x="1177" y="-253.5" font-family="Helvetica,sans-Serif" font-size="10.00" fill="#000000">functional</text>
</g>
<!-- Node12&#45;&gt;Node13 -->
<g id="edge17" class="edge">
<title>Node12&#45;&gt;Node13</title>
<path fill="none" stroke="#191970" d="M667.2693,-375.8514C730.5362,-367.0479 828.346,-352.0093 912,-333 993.6848,-314.4382 1087.4044,-285.3133 1138.6165,-268.7126"/>
<polygon fill="#191970" stroke="#191970" points="1139.8517,-271.9913 1148.276,-265.5663 1137.6837,-265.3355 1139.8517,-271.9913"/>
</g>
<!-- Node14 -->
<g id="node15" class="node">
<title>Node14</title>
<polygon fill="#ffffff" stroke="#bfbfbf" points="504.5,-185 504.5,-204 561.5,-204 561.5,-185 504.5,-185"/>
<text text-anchor="middle" x="533" y="-192" font-family="Helvetica,sans-Serif" font-size="10.00" fill="#000000">ostream</text>
</g>
<!-- Node12&#45;&gt;Node14 -->
<g id="edge18" class="edge">
<title>Node12&#45;&gt;Node14</title>
<path fill="none" stroke="#191970" d="M590.1465,-374.743C570.2239,-356.0125 528.4479,-312.7125 513,-266 507.1469,-248.301 514.2903,-227.7799 521.6138,-213.2742"/>
<polygon fill="#191970" stroke="#191970" points="524.797,-214.7494 526.5551,-204.3014 518.6653,-211.3726 524.797,-214.7494"/>
</g>
<!-- Node12&#45;&gt;Node15 -->
<g id="edge20" class="edge">
<title>Node12&#45;&gt;Node15</title>
<path fill="none" stroke="#191970" d="M650.0668,-374.9373C660.2873,-372.9611 670.9933,-370.9026 681,-369 766.7215,-352.7012 794.8452,-369.7198 874,-333 893.772,-323.8278 894.7769,-315.3576 912,-302 945.1545,-276.2867 948.6502,-260.5599 988,-246 1044.5608,-225.0718 1433.6523,-205.5887 1604.6639,-197.9285"/>
<polygon fill="#191970" stroke="#191970" points="1605.0325,-201.4157 1614.8667,-197.474 1604.7208,-194.4226 1605.0325,-201.4157"/>
</g>
<!-- Node12&#45;&gt;Node16 -->
<g id="edge21" class="edge">
<title>Node12&#45;&gt;Node16</title>
<path fill="none" stroke="#191970" d="M555.8095,-374.9316C471.1018,-356.1028 293.2555,-312.0511 252,-266 209.1962,-218.2205 205.8463,-137.565 207.248,-96.7615"/>
<polygon fill="#191970" stroke="#191970" points="210.7521,-96.753 207.7266,-86.5993 203.7599,-96.4236 210.7521,-96.753"/>
</g>
<!-- Node17 -->
<g id="node18" class="node">
<title>Node17</title>
<g id="a_node18"><a xlink:href="matrix_8h.html" target="_top" xlink:title="maliput/math/matrix.h">
<polygon fill="#ffffff" stroke="#000000" points="954.5,-185 954.5,-204 1081.5,-204 1081.5,-185 954.5,-185"/>
<text text-anchor="middle" x="1018" y="-192" font-family="Helvetica,sans-Serif" font-size="10.00" fill="#000000">maliput/math/matrix.h</text>
</a>
</g>
</g>
<!-- Node12&#45;&gt;Node17 -->
<g id="edge23" class="edge">
<title>Node12&#45;&gt;Node17</title>
<path fill="none" stroke="#191970" d="M644.1661,-374.9364C699.1407,-362.5269 788.6524,-341.4642 802,-333 844.3867,-306.1211 832.9033,-274.8127 874,-246 900.6425,-227.321 934.7768,-214.7237 963.1245,-206.6659"/>
<polygon fill="#191970" stroke="#191970" points="964.1618,-210.0109 972.8883,-204.0026 962.3196,-203.2576 964.1618,-210.0109"/>
</g>
<!-- Node23 -->
<g id="node24" class="node">
<title>Node23</title>
<g id="a_node24"><a xlink:href="vector_8h.html" target="_top" xlink:title="maliput/math/vector.h">
<polygon fill="#ffffff" stroke="#000000" points="826.5,-123.5 826.5,-142.5 951.5,-142.5 951.5,-123.5 826.5,-123.5"/>
<text text-anchor="middle" x="889" y="-130.5" font-family="Helvetica,sans-Serif" font-size="10.00" fill="#000000">maliput/math/vector.h</text>
</a>
</g>
</g>
<!-- Node12&#45;&gt;Node23 -->
<g id="edge47" class="edge">
<title>Node12&#45;&gt;Node23</title>
<path fill="none" stroke="#191970" d="M605.7824,-374.9692C614.0882,-358.9285 632.2873,-325.9449 653,-302 708.0648,-238.3422 726.8401,-225.4976 797,-179 815.9264,-166.4568 838.7473,-155.0258 856.9252,-146.6965"/>
<polygon fill="#191970" stroke="#191970" points="858.5394,-149.8084 866.2268,-142.5177 855.6707,-143.4232 858.5394,-149.8084"/>
</g>
<!-- Node24 -->
<g id="node25" class="node">
<title>Node24</title>
<g id="a_node25"><a xlink:href="quaternion_8h.html" target="_top" xlink:title="Code in this file is inspired by: https://gitlab.com/libeigen/eigen/&#45;/blob/master/Eigen/src/Geometry/...">
<polygon fill="#ffffff" stroke="#000000" points="522.5,-246.5 522.5,-265.5 669.5,-265.5 669.5,-246.5 522.5,-246.5"/>
<text text-anchor="middle" x="596" y="-253.5" font-family="Helvetica,sans-Serif" font-size="10.00" fill="#000000">maliput/math/quaternion.h</text>
</a>
</g>
</g>
<!-- Node12&#45;&gt;Node24 -->
<g id="edge36" class="edge">
<title>Node12&#45;&gt;Node24</title>
<path fill="none" stroke="#191970" d="M600.6242,-374.8416C599.8098,-353.9114 597.8679,-304.004 596.7773,-275.9762"/>
<polygon fill="#191970" stroke="#191970" points="600.2664,-275.6268 596.3802,-265.7705 593.2717,-275.899 600.2664,-275.6268"/>
</g>
<!-- Node25 -->
<g id="node26" class="node">
<title>Node25</title>
<g id="a_node26"><a xlink:href="roll__pitch__yaw_8h.html" target="_top" xlink:title="Code in this file is inspired by: https://github.com/RobotLocomotion/drake/blob/master/math/roll_pitc...">
<polygon fill="#ffffff" stroke="#000000" points="662.5,-302.5 662.5,-332.5 793.5,-332.5 793.5,-302.5 662.5,-302.5"/>
<text text-anchor="start" x="670.5" y="-320.5" font-family="Helvetica,sans-Serif" font-size="10.00" fill="#000000">maliput/math/roll_pitch</text>
<text text-anchor="middle" x="728" y="-309.5" font-family="Helvetica,sans-Serif" font-size="10.00" fill="#000000">_yaw.h</text>
</a>
</g>
</g>
<!-- Node12&#45;&gt;Node25 -->
<g id="edge42" class="edge">
<title>Node12&#45;&gt;Node25</title>
<path fill="none" stroke="#191970" d="M619.196,-374.9005C637.7242,-365.1258 666.9897,-349.6865 690.5043,-337.2812"/>
<polygon fill="#191970" stroke="#191970" points="692.3144,-340.2835 699.5259,-332.5218 689.0481,-334.0923 692.3144,-340.2835"/>
</g>
<!-- Node16&#45;&gt;Node5 -->
<g id="edge22" class="edge">
<title>Node16&#45;&gt;Node5</title>
<path fill="none" stroke="#191970" d="M279.2556,-62.0312C298.8822,-59.701 320.2438,-57.4585 340,-56 650.8752,-33.0493 1666.3191,-14.0442 1860.6799,-10.5682"/>
<polygon fill="#191970" stroke="#191970" points="1860.8765,-14.0654 1870.8126,-10.3878 1860.7518,-7.0665 1860.8765,-14.0654"/>
</g>
<!-- Node17&#45;&gt;Node18 -->
<g id="edge24" class="edge">
<title>Node17&#45;&gt;Node18</title>
<path fill="none" stroke="#191970" d="M1081.711,-189.0161C1326.3306,-167.9607 2201.7693,-92.608 2404.7577,-75.136"/>
<polygon fill="#191970" stroke="#191970" points="2405.0661,-78.6225 2414.729,-74.2777 2404.4657,-71.6483 2405.0661,-78.6225"/>
</g>
<!-- Node19 -->
<g id="node20" class="node">
<title>Node19</title>
<polygon fill="#ffffff" stroke="#bfbfbf" points="959,-62 959,-81 1001,-81 1001,-62 959,-62"/>
<text text-anchor="middle" x="980" y="-69" font-family="Helvetica,sans-Serif" font-size="10.00" fill="#000000">array</text>
</g>
<!-- Node17&#45;&gt;Node19 -->
<g id="edge25" class="edge">
<title>Node17&#45;&gt;Node19</title>
<path fill="none" stroke="#191970" d="M1015.0182,-184.8484C1008.7749,-164.6397 994.2246,-117.5427 985.9789,-90.8528"/>
<polygon fill="#191970" stroke="#191970" points="989.2638,-89.6281 982.9679,-81.1068 982.5757,-91.6943 989.2638,-89.6281"/>
</g>
<!-- Node20 -->
<g id="node21" class="node">
<title>Node20</title>
<polygon fill="#ffffff" stroke="#bfbfbf" points="1101.5,-62 1101.5,-81 1154.5,-81 1154.5,-62 1101.5,-62"/>
<text text-anchor="middle" x="1128" y="-69" font-family="Helvetica,sans-Serif" font-size="10.00" fill="#000000">cstddef</text>
</g>
<!-- Node17&#45;&gt;Node20 -->
<g id="edge26" class="edge">
<title>Node17&#45;&gt;Node20</title>
<path fill="none" stroke="#191970" d="M1026.6315,-184.8484C1045.1863,-164.1008 1089.0871,-115.0117 1112.5624,-88.762"/>
<polygon fill="#191970" stroke="#191970" points="1115.3513,-90.894 1119.4086,-81.1068 1110.1335,-86.2276 1115.3513,-90.894"/>
</g>
<!-- Node21 -->
<g id="node22" class="node">
<title>Node21</title>
<polygon fill="#ffffff" stroke="#bfbfbf" points="849.5,-62 849.5,-81 932.5,-81 932.5,-62 849.5,-62"/>
<text text-anchor="middle" x="891" y="-69" font-family="Helvetica,sans-Serif" font-size="10.00" fill="#000000">initializer_list</text>
</g>
<!-- Node17&#45;&gt;Node21 -->
<g id="edge27" class="edge">
<title>Node17&#45;&gt;Node21</title>
<path fill="none" stroke="#191970" d="M1011.1862,-184.6061C1000.9948,-170.1816 980.7503,-142.9295 960,-123 946.027,-109.5797 928.5162,-96.5476 914.6315,-86.9507"/>
<polygon fill="#191970" stroke="#191970" points="916.3459,-83.8845 906.1045,-81.1706 912.4182,-89.6787 916.3459,-83.8845"/>
</g>
<!-- Node22 -->
<g id="node23" class="node">
<title>Node22</title>
<polygon fill="#ffffff" stroke="#bfbfbf" points="1023,-62 1023,-81 1083,-81 1083,-62 1023,-62"/>
<text text-anchor="middle" x="1053" y="-69" font-family="Helvetica,sans-Serif" font-size="10.00" fill="#000000">iostream</text>
</g>
<!-- Node17&#45;&gt;Node22 -->
<g id="edge28" class="edge">
<title>Node17&#45;&gt;Node22</title>
<path fill="none" stroke="#191970" d="M1020.7464,-184.8484C1026.4968,-164.6397 1039.8984,-117.5427 1047.4931,-90.8528"/>
<polygon fill="#191970" stroke="#191970" points="1050.8958,-91.6829 1050.2664,-81.1068 1044.163,-89.767 1050.8958,-91.6829"/>
</g>
<!-- Node17&#45;&gt;Node23 -->
<g id="edge29" class="edge">
<title>Node17&#45;&gt;Node23</title>
<path fill="none" stroke="#191970" d="M997.8438,-184.8906C976.449,-174.6908 942.438,-158.4763 918.1298,-146.8875"/>
<polygon fill="#191970" stroke="#191970" points="919.5476,-143.686 909.0147,-142.5419 916.5352,-150.0047 919.5476,-143.686"/>
</g>
<!-- Node23&#45;&gt;Node16 -->
<g id="edge35" class="edge">
<title>Node23&#45;&gt;Node16</title>
<path fill="none" stroke="#191970" d="M826.2461,-127.3245C702.2717,-116.1121 426.1284,-91.1374 289.1859,-78.7521"/>
<polygon fill="#191970" stroke="#191970" points="289.4457,-75.2614 279.171,-77.8464 288.8151,-82.2329 289.4457,-75.2614"/>
</g>
<!-- Node23&#45;&gt;Node18 -->
<g id="edge30" class="edge">
<title>Node23&#45;&gt;Node18</title>
<path fill="none" stroke="#191970" d="M951.5201,-130.5321C1209.5491,-120.3467 2188.2357,-81.7144 2404.5218,-73.1768"/>
<polygon fill="#191970" stroke="#191970" points="2404.9626,-76.6622 2414.8168,-72.7704 2404.6865,-69.6676 2404.9626,-76.6622"/>
</g>
<!-- Node23&#45;&gt;Node19 -->
<g id="edge31" class="edge">
<title>Node23&#45;&gt;Node19</title>
<path fill="none" stroke="#191970" d="M903.2188,-123.3906C917.6434,-113.6421 940.1976,-98.3994 957.136,-86.9521"/>
<polygon fill="#191970" stroke="#191970" points="959.5556,-89.5412 965.8811,-81.0419 955.6359,-83.7415 959.5556,-89.5412"/>
</g>
<!-- Node23&#45;&gt;Node20 -->
<g id="edge32" class="edge">
<title>Node23&#45;&gt;Node20</title>
<path fill="none" stroke="#191970" d="M943.5859,-123.4567C984.8766,-115.5612 1042.6908,-103.0512 1092,-87 1094.1029,-86.3155 1096.2521,-85.5549 1098.4019,-84.7487"/>
<polygon fill="#191970" stroke="#191970" points="1099.7163,-87.9926 1107.6896,-81.0157 1097.1057,-81.4976 1099.7163,-87.9926"/>
</g>
<!-- Node23&#45;&gt;Node21 -->
<g id="edge33" class="edge">
<title>Node23&#45;&gt;Node21</title>
<path fill="none" stroke="#191970" d="M889.3125,-123.3906C889.5897,-114.8657 890.0036,-102.1392 890.3521,-91.4235"/>
<polygon fill="#191970" stroke="#191970" points="893.8561,-91.3534 890.6831,-81.2449 886.8598,-91.1258 893.8561,-91.3534"/>
</g>
<!-- Node23&#45;&gt;Node22 -->
<g id="edge34" class="edge">
<title>Node23&#45;&gt;Node22</title>
<path fill="none" stroke="#191970" d="M914.625,-123.3906C942.4263,-112.9652 986.9844,-96.2559 1017.9994,-84.6252"/>
<polygon fill="#191970" stroke="#191970" points="1019.4206,-87.8303 1027.5549,-81.0419 1016.9627,-81.276 1019.4206,-87.8303"/>
</g>
<!-- Node24&#45;&gt;Node8 -->
<g id="edge37" class="edge">
<title>Node24&#45;&gt;Node8</title>
<path fill="none" stroke="#191970" d="M603.8125,-246.3906C611.254,-237.2376 622.6334,-223.2409 631.6992,-212.09"/>
<polygon fill="#191970" stroke="#191970" points="634.4847,-214.212 638.0774,-204.2449 629.0533,-209.7962 634.4847,-214.212"/>
</g>
<!-- Node24&#45;&gt;Node14 -->
<g id="edge38" class="edge">
<title>Node24&#45;&gt;Node14</title>
<path fill="none" stroke="#191970" d="M586.1563,-246.3906C576.5961,-237.0581 561.8777,-222.6902 550.3505,-211.4374"/>
<polygon fill="#191970" stroke="#191970" points="552.5832,-208.7257 542.9825,-204.2449 547.6934,-213.7348 552.5832,-208.7257"/>
</g>
<!-- Node24&#45;&gt;Node15 -->
<g id="edge39" class="edge">
<title>Node24&#45;&gt;Node15</title>
<path fill="none" stroke="#191970" d="M669.5688,-251.8453C865.8587,-240.76 1400.8896,-210.5448 1604.6968,-199.035"/>
<polygon fill="#191970" stroke="#191970" points="1604.9456,-202.5267 1614.7323,-198.4683 1604.5508,-195.5378 1604.9456,-202.5267"/>
</g>
<!-- Node24&#45;&gt;Node17 -->
<g id="edge40" class="edge">
<title>Node24&#45;&gt;Node17</title>
<path fill="none" stroke="#191970" d="M661.4745,-246.4581C738.0687,-235.2957 864.5456,-216.8636 944.4549,-205.2181"/>
<polygon fill="#191970" stroke="#191970" points="945.0542,-208.6678 954.4449,-203.7622 944.0447,-201.741 945.0542,-208.6678"/>
</g>
<!-- Node24&#45;&gt;Node23 -->
<g id="edge41" class="edge">
<title>Node24&#45;&gt;Node23</title>
<path fill="none" stroke="#191970" d="M595.0099,-246.3381C593.9149,-229.9395 594.3328,-196.7183 613,-179 641.5026,-151.9463 744.22,-140.7149 815.9594,-136.1124"/>
<polygon fill="#191970" stroke="#191970" points="816.5387,-139.5836 826.3066,-135.4803 816.1118,-132.5967 816.5387,-139.5836"/>
</g>
<!-- Node25&#45;&gt;Node15 -->
<g id="edge43" class="edge">
<title>Node25&#45;&gt;Node15</title>
<path fill="none" stroke="#191970" d="M765.3746,-302.3838C808.9183,-285.501 883.4074,-258.8601 950,-246 1073.559,-222.1388 1441.3603,-204.5344 1604.9789,-197.6641"/>
<polygon fill="#191970" stroke="#191970" points="1605.138,-201.1606 1614.9834,-197.2468 1604.8462,-194.1667 1605.138,-201.1606"/>
</g>
<!-- Node25&#45;&gt;Node17 -->
<g id="edge44" class="edge">
<title>Node25&#45;&gt;Node17</title>
<path fill="none" stroke="#191970" d="M738.5557,-302.4498C750.9007,-286.0146 772.8746,-260.1524 798,-246 842.9615,-220.6745 899.808,-207.7779 944.4522,-201.2239"/>
<polygon fill="#191970" stroke="#191970" points="944.9405,-204.6898 954.3617,-199.8431 943.9743,-197.7568 944.9405,-204.6898"/>
</g>
<!-- Node25&#45;&gt;Node23 -->
<g id="edge46" class="edge">
<title>Node25&#45;&gt;Node23</title>
<path fill="none" stroke="#191970" d="M734.7333,-302.4332C741.8452,-287.363 753.9603,-263.9111 768,-246 798.5877,-206.9778 842.8931,-169.2371 868.5412,-148.7687"/>
<polygon fill="#191970" stroke="#191970" points="870.7909,-151.452 876.4773,-142.5125 866.4572,-145.9548 870.7909,-151.452"/>
</g>
<!-- Node25&#45;&gt;Node24 -->
<g id="edge45" class="edge">
<title>Node25&#45;&gt;Node24</title>
<path fill="none" stroke="#191970" d="M695.7092,-302.4554C674.3608,-292.509 646.5804,-279.5659 625.7667,-269.8686"/>
<polygon fill="#191970" stroke="#191970" points="626.9979,-266.581 616.4553,-265.5303 624.0416,-272.9262 626.9979,-266.581"/>
</g>
<!-- Node26&#45;&gt;Node5 -->
<g id="edge50" class="edge">
<title>Node26&#45;&gt;Node5</title>
<path fill="none" stroke="#191970" d="M798.9898,-374.8065C669.3298,-353.8365 412.2267,-296.3871 495,-179 588.8098,-45.9613 680.2376,-87.2336 840,-56 1042.5616,-16.3992 1705.7901,-10.8712 1860.5207,-10.1167"/>
<polygon fill="#191970" stroke="#191970" points="1860.7852,-13.6156 1870.7692,-10.0702 1860.7534,-6.6157 1860.7852,-13.6156"/>
</g>
<!-- Node26&#45;&gt;Node13 -->
<g id="edge49" class="edge">
<title>Node26&#45;&gt;Node13</title>
<path fill="none" stroke="#191970" d="M939.1681,-371.5589C1018.7896,-356.8175 1137.9799,-334.5528 1140,-333 1158.4047,-318.8534 1168.135,-293.2226 1172.9182,-275.4382"/>
<polygon fill="#191970" stroke="#191970" points="1176.3605,-276.0923 1175.2904,-265.5517 1169.5537,-274.459 1176.3605,-276.0923"/>
</g>
<!-- Node26&#45;&gt;Node15 -->
<g id="edge52" class="edge">
<title>Node26&#45;&gt;Node15</title>
<path fill="none" stroke="#191970" d="M939.1341,-370.7523C986.1999,-360.6334 1043.2474,-346.3681 1064,-333 1105.957,-305.9727 1090.9603,-269.4813 1135,-246 1175.4433,-224.4362 1462.1671,-206.3605 1604.8115,-198.5876"/>
<polygon fill="#191970" stroke="#191970" points="1605.0312,-202.0809 1614.8275,-198.0458 1604.6531,-195.0911 1605.0312,-202.0809"/>
</g>
<!-- Node26&#45;&gt;Node16 -->
<g id="edge66" class="edge">
<title>Node26&#45;&gt;Node16</title>
<path fill="none" stroke="#191970" d="M798.7724,-379.0693C677.7061,-369.3603 439.2373,-348.5851 404,-333 398.8523,-330.7232 331.6203,-270.3099 328,-266 281.2543,-210.3505 240.3528,-134.4847 220.9553,-96.0212"/>
<polygon fill="#191970" stroke="#191970" points="223.8758,-94.0346 216.2815,-86.6469 217.6112,-97.1579 223.8758,-94.0346"/>
</g>
<!-- Node27 -->
<g id="node28" class="node">
<title>Node27</title>
<polygon fill="#ffffff" stroke="#bfbfbf" points="1227.5,-246.5 1227.5,-265.5 1272.5,-265.5 1272.5,-246.5 1227.5,-246.5"/>
<text text-anchor="middle" x="1250" y="-253.5" font-family="Helvetica,sans-Serif" font-size="10.00" fill="#000000">utility</text>
</g>
<!-- Node26&#45;&gt;Node27 -->
<g id="edge51" class="edge">
<title>Node26&#45;&gt;Node27</title>
<path fill="none" stroke="#191970" d="M939.1121,-371.4812C943.8107,-370.6339 948.473,-369.8002 953,-369 1047.5437,-352.2886 1079.7455,-375.1657 1166,-333 1194.8677,-318.888 1220.9179,-291.6874 1236.1054,-273.6873"/>
<polygon fill="#191970" stroke="#191970" points="1239.0277,-275.6428 1242.6533,-265.6876 1233.6109,-271.2091 1239.0277,-275.6428"/>
</g>
<!-- Node28 -->
<g id="node29" class="node">
<title>Node28</title>
<g id="a_node29"><a xlink:href="maliput__hash_8h.html" target="_top" xlink:title="Code in this file is inspired by: https://github.com/RobotLocomotion/drake/blob/master/common/hash.h. ">
<polygon fill="#ffffff" stroke="#000000" points="1268,-302.5 1268,-332.5 1408,-332.5 1408,-302.5 1268,-302.5"/>
<text text-anchor="start" x="1276" y="-320.5" font-family="Helvetica,sans-Serif" font-size="10.00" fill="#000000">maliput/common/maliput</text>
<text text-anchor="middle" x="1338" y="-309.5" font-family="Helvetica,sans-Serif" font-size="10.00" fill="#000000">_hash.h</text>
</a>
</g>
</g>
<!-- Node26&#45;&gt;Node28 -->
<g id="edge53" class="edge">
<title>Node26&#45;&gt;Node28</title>
<path fill="none" stroke="#191970" d="M939.0817,-371.3002C943.7876,-370.4966 948.4599,-369.7221 953,-369 1009.948,-359.9427 1162.6262,-340.0033 1257.7165,-327.7633"/>
<polygon fill="#191970" stroke="#191970" points="1258.4024,-331.204 1267.8742,-326.4569 1257.5094,-324.2612 1258.4024,-331.204"/>
</g>
<!-- Node28&#45;&gt;Node2 -->
<g id="edge59" class="edge">
<title>Node28&#45;&gt;Node2</title>
<path fill="none" stroke="#191970" d="M1408.1972,-306.7875C1493.6073,-293.7535 1634.7642,-272.2122 1702.458,-261.8817"/>
<polygon fill="#191970" stroke="#191970" points="1703.3143,-265.2916 1712.6718,-260.323 1702.2583,-258.3718 1703.3143,-265.2916"/>
</g>
<!-- Node28&#45;&gt;Node5 -->
<g id="edge61" class="edge">
<title>Node28&#45;&gt;Node5</title>
<path fill="none" stroke="#191970" d="M1408.1719,-302.5323C1460.2551,-290.8326 1523.7883,-275.0787 1533,-266 1556.5018,-242.8375 1553,-227.4976 1553,-194.5 1553,-194.5 1553,-194.5 1553,-133 1553,-67.912 1776.1178,-27.5607 1860.8671,-14.5814"/>
<polygon fill="#191970" stroke="#191970" points="1861.5844,-18.013 1870.9536,-13.0665 1860.5447,-11.0907 1861.5844,-18.013"/>
</g>
<!-- Node28&#45;&gt;Node6 -->
<g id="edge64" class="edge">
<title>Node28&#45;&gt;Node6</title>
<path fill="none" stroke="#191970" d="M1408.0494,-311.4066C1557.26,-298.4272 1901.7395,-268.4618 2011.0607,-258.9523"/>
<polygon fill="#191970" stroke="#191970" points="2011.5246,-262.4252 2021.1836,-258.0717 2010.9179,-255.4516 2011.5246,-262.4252"/>
</g>
<!-- Node28&#45;&gt;Node8 -->
<g id="edge54" class="edge">
<title>Node28&#45;&gt;Node8</title>
<path fill="none" stroke="#191970" d="M1330.7692,-302.4063C1321.7316,-285.4111 1304.54,-258.5361 1281,-246 1254.2614,-231.7605 808.1017,-204.1683 680.0853,-196.5126"/>
<polygon fill="#191970" stroke="#191970" points="679.9115,-192.9961 669.7209,-195.8948 679.4949,-199.9837 679.9115,-192.9961"/>
</g>
<!-- Node28&#45;&gt;Node13 -->
<g id="edge56" class="edge">
<title>Node28&#45;&gt;Node13</title>
<path fill="none" stroke="#191970" d="M1298.615,-302.4554C1271.9873,-292.284 1237.1556,-278.9787 1211.5966,-269.2155"/>
<polygon fill="#191970" stroke="#191970" points="1212.5399,-265.8292 1201.9493,-265.5303 1210.042,-272.3684 1212.5399,-265.8292"/>
</g>
<!-- Node28&#45;&gt;Node16 -->
<g id="edge65" class="edge">
<title>Node28&#45;&gt;Node16</title>
<path fill="none" stroke="#191970" d="M1267.8802,-315.5C1081.3848,-309.8462 582.5982,-292.4218 513,-266 416.4996,-229.3653 418.91,-175.4351 330,-123 308.4158,-110.2706 283.0975,-98.9897 261.2147,-90.2552"/>
<polygon fill="#191970" stroke="#191970" points="262.3366,-86.9358 251.7488,-86.5484 259.7841,-93.4539 262.3366,-86.9358"/>
</g>
<!-- Node28&#45;&gt;Node20 -->
<g id="edge55" class="edge">
<title>Node28&#45;&gt;Node20</title>
<path fill="none" stroke="#191970" d="M1343.6187,-302.4257C1347.0896,-292.2891 1351.2112,-278.538 1353,-266 1362.2879,-200.8979 1362.2131,-168.7762 1315,-123 1293.659,-102.3085 1212.817,-85.663 1164.6913,-77.3238"/>
<polygon fill="#191970" stroke="#191970" points="1165.1068,-73.8443 1154.6625,-75.6239 1163.9369,-80.7459 1165.1068,-73.8443"/>
</g>
<!-- Node28&#45;&gt;Node22 -->
<g id="edge57" class="edge">
<title>Node28&#45;&gt;Node22</title>
<path fill="none" stroke="#191970" d="M1334.0825,-302.2153C1329.5393,-286.7591 1320.8483,-262.8141 1307,-246 1242.9598,-168.2448 1135.7253,-110.4726 1083.4738,-85.3489"/>
<polygon fill="#191970" stroke="#191970" points="1084.9155,-82.1591 1074.3799,-81.0403 1081.9183,-88.485 1084.9155,-82.1591"/>
</g>
<!-- Node28&#45;&gt;Node27 -->
<g id="edge63" class="edge">
<title>Node28&#45;&gt;Node27</title>
<path fill="none" stroke="#191970" d="M1316.2472,-302.2977C1302.8032,-292.9022 1285.5989,-280.8787 1272.0922,-271.4395"/>
<polygon fill="#191970" stroke="#191970" points="1274.0288,-268.5228 1263.8271,-265.6633 1270.0189,-274.2605 1274.0288,-268.5228"/>
</g>
<!-- Node29 -->
<g id="node30" class="node">
<title>Node29</title>
<polygon fill="#ffffff" stroke="#bfbfbf" points="1581,-246.5 1581,-265.5 1619,-265.5 1619,-246.5 1581,-246.5"/>
<text text-anchor="middle" x="1600" y="-253.5" font-family="Helvetica,sans-Serif" font-size="10.00" fill="#000000">map</text>
</g>
<!-- Node28&#45;&gt;Node29 -->
<g id="edge58" class="edge">
<title>Node28&#45;&gt;Node29</title>
<path fill="none" stroke="#191970" d="M1408.2254,-303.0959C1453.7057,-293.4258 1514.1,-279.9436 1567,-266 1568.2699,-265.6653 1569.5645,-265.3145 1570.8702,-264.9528"/>
<polygon fill="#191970" stroke="#191970" points="1572.2417,-268.1995 1580.8725,-262.0545 1570.2935,-261.476 1572.2417,-268.1995"/>
</g>
<!-- Node30 -->
<g id="node31" class="node">
<title>Node30</title>
<polygon fill="#ffffff" stroke="#bfbfbf" points="1405,-246.5 1405,-265.5 1437,-265.5 1437,-246.5 1405,-246.5"/>
<text text-anchor="middle" x="1421" y="-253.5" font-family="Helvetica,sans-Serif" font-size="10.00" fill="#000000">set</text>
</g>
<!-- Node28&#45;&gt;Node30 -->
<g id="edge60" class="edge">
<title>Node28&#45;&gt;Node30</title>
<path fill="none" stroke="#191970" d="M1358.5169,-302.2977C1370.9982,-293.0495 1386.9159,-281.2551 1399.5614,-271.8853"/>
<polygon fill="#191970" stroke="#191970" points="1401.7596,-274.6126 1407.7106,-265.8469 1397.5922,-268.9882 1401.7596,-274.6126"/>
</g>
<!-- Node31 -->
<g id="node32" class="node">
<title>Node31</title>
<polygon fill="#ffffff" stroke="#bfbfbf" points="1455.5,-246.5 1455.5,-265.5 1524.5,-265.5 1524.5,-246.5 1455.5,-246.5"/>
<text text-anchor="middle" x="1490" y="-253.5" font-family="Helvetica,sans-Serif" font-size="10.00" fill="#000000">type_traits</text>
</g>
<!-- Node28&#45;&gt;Node31 -->
<g id="edge62" class="edge">
<title>Node28&#45;&gt;Node31</title>
<path fill="none" stroke="#191970" d="M1375.1834,-302.4554C1400.2113,-292.329 1432.9163,-279.0964 1457.0166,-269.3453"/>
<polygon fill="#191970" stroke="#191970" points="1458.4882,-272.5256 1466.4454,-265.5303 1455.8627,-266.0366 1458.4882,-272.5256"/>
</g>
<!-- Node32&#45;&gt;Node5 -->
<g id="edge73" class="edge">
<title>Node32&#45;&gt;Node5</title>
<path fill="none" stroke="#191970" d="M2412.4613,-575.89C2420.7766,-566.0015 2433.3063,-549.8458 2441,-534 2509.5952,-392.7228 2539,-351.5495 2539,-194.5 2539,-194.5 2539,-194.5 2539,-133 2539,-91.952 2523.3858,-76.8034 2488,-56 2439.3352,-27.3898 2042.2763,-14.1535 1925.3073,-10.8506"/>
<polygon fill="#191970" stroke="#191970" points="1925.2838,-7.3487 1915.1906,-10.5701 1925.0897,-14.346 1925.2838,-7.3487"/>
</g>
<!-- Node32&#45;&gt;Node6 -->
<g id="edge74" class="edge">
<title>Node32&#45;&gt;Node6</title>
<path fill="none" stroke="#191970" d="M2397.242,-575.8235C2365.6655,-530.8418 2231.7294,-342.6494 2173,-302 2144.2477,-282.0992 2105.93,-269.8299 2078.7335,-263.0221"/>
<polygon fill="#191970" stroke="#191970" points="2079.4371,-259.5918 2068.8978,-260.6758 2077.8128,-266.4007 2079.4371,-259.5918"/>
</g>
<!-- Node32&#45;&gt;Node7 -->
<g id="edge75" class="edge">
<title>Node32&#45;&gt;Node7</title>
<path fill="none" stroke="#191970" d="M2338.9034,-581.1298C2159.8655,-569.1102 1661.1315,-535.6281 1476.1872,-523.212"/>
<polygon fill="#191970" stroke="#191970" points="1476.2506,-519.7084 1466.0386,-522.5306 1475.7817,-526.6927 1476.2506,-519.7084"/>
</g>
<!-- Node32&#45;&gt;Node15 -->
<g id="edge82" class="edge">
<title>Node32&#45;&gt;Node15</title>
<path fill="none" stroke="#191970" d="M2405.1311,-575.826C2409.092,-537.7692 2419.2221,-395.857 2363,-302 2341.4393,-266.0065 2326.2648,-260.7876 2287,-246 2193.686,-210.8568 1906.9538,-199.5081 1765.5506,-195.9944"/>
<polygon fill="#191970" stroke="#191970" points="1765.2946,-192.4873 1755.2131,-195.745 1765.1258,-199.4852 1765.2946,-192.4873"/>
</g>
<!-- Node32&#45;&gt;Node18 -->
<g id="edge72" class="edge">
<title>Node32&#45;&gt;Node18</title>
<path fill="none" stroke="#191970" d="M2407.6907,-575.9335C2420.6073,-541.5632 2463,-420.883 2463,-317.5 2463,-317.5 2463,-317.5 2463,-194.5 2463,-157.6919 2455.867,-115.2016 2451.1262,-91.0267"/>
<polygon fill="#191970" stroke="#191970" points="2454.513,-90.117 2449.0917,-81.0143 2447.6532,-91.511 2454.513,-90.117"/>
</g>
<!-- Node32&#45;&gt;Node26 -->
<g id="edge76" class="edge">
<title>Node32&#45;&gt;Node26</title>
<path fill="none" stroke="#191970" d="M2338.6821,-579.861C2118.0268,-560.6132 1408.5666,-497.0413 1310,-467 1281.6653,-458.3641 1279.2195,-445.0051 1251,-436 1247.4162,-434.8564 1060.2567,-409.8919 949.2783,-395.1477"/>
<polygon fill="#191970" stroke="#191970" points="949.489,-391.645 939.1152,-393.7977 948.5672,-398.5841 949.489,-391.645"/>
</g>
<!-- Node33 -->
<g id="node34" class="node">
<title>Node33</title>
<g id="a_node34"><a xlink:href="unique__id_8h.html" target="_top" xlink:title="maliput/api/unique_id.h">
<polygon fill="#ffffff" stroke="#000000" points="1771.5,-375 1771.5,-394 1902.5,-394 1902.5,-375 1771.5,-375"/>
<text text-anchor="middle" x="1837" y="-382" font-family="Helvetica,sans-Serif" font-size="10.00" fill="#000000">maliput/api/unique_id.h</text>
</a>
</g>
</g>
<!-- Node32&#45;&gt;Node33 -->
<g id="edge77" class="edge">
<title>Node32&#45;&gt;Node33</title>
<path fill="none" stroke="#191970" d="M2377.0339,-575.9406C2284.3974,-543.1012 1979.0836,-434.8683 1873.3923,-397.401"/>
<polygon fill="#191970" stroke="#191970" points="1874.3959,-394.0434 1863.8011,-394.0009 1872.057,-400.6411 1874.3959,-394.0434"/>
</g>
<!-- Node33&#45;&gt;Node5 -->
<g id="edge78" class="edge">
<title>Node33&#45;&gt;Node5</title>
<path fill="none" stroke="#191970" d="M1844.5524,-374.8092C1859.838,-354.1927 1893,-303.9408 1893,-256 1893,-256 1893,-256 1893,-133 1893,-96.4994 1893,-53.906 1893,-29.6285"/>
<polygon fill="#191970" stroke="#191970" points="1896.5001,-29.5691 1893,-19.5691 1889.5001,-29.5692 1896.5001,-29.5691"/>
</g>
<!-- Node33&#45;&gt;Node15 -->
<g id="edge79" class="edge">
<title>Node33&#45;&gt;Node15</title>
<path fill="none" stroke="#191970" d="M1835.1808,-374.9368C1830.1317,-350.6655 1813.8851,-285.7862 1778,-246 1766.0135,-232.7104 1749.7641,-222.0995 1734.2012,-214.0447"/>
<polygon fill="#191970" stroke="#191970" points="1735.6729,-210.8682 1725.1547,-209.5966 1732.5843,-217.1499 1735.6729,-210.8682"/>
</g>
<!-- Node33&#45;&gt;Node16 -->
<g id="edge81" class="edge">
<title>Node33&#45;&gt;Node16</title>
<path fill="none" stroke="#191970" d="M1771.2422,-376.8269C1744.5162,-373.9609 1713.3165,-370.9355 1685,-369 1456.0614,-353.3516 878.2545,-376.7972 653,-333 567.5693,-316.3893 545.5536,-307.3988 469,-266 374.7063,-215.0077 277.0342,-132.4485 233.0336,-93.3573"/>
<polygon fill="#191970" stroke="#191970" points="235.2429,-90.6376 225.4552,-86.5813 230.5771,-95.8559 235.2429,-90.6376"/>
</g>
<!-- Node33&#45;&gt;Node28 -->
<g id="edge80" class="edge">
<title>Node33&#45;&gt;Node28</title>
<path fill="none" stroke="#191970" d="M1771.2513,-375.672C1680.3845,-363.4715 1516.5517,-341.4739 1418.4792,-328.3058"/>
<polygon fill="#191970" stroke="#191970" points="1418.6971,-324.8038 1408.3203,-326.9418 1417.7655,-331.7415 1418.6971,-324.8038"/>
</g>
<!-- Node34&#45;&gt;Node2 -->
<g id="edge85" class="edge">
<title>Node34&#45;&gt;Node2</title>
<path fill="none" stroke="#191970" d="M2266.8209,-704.4724C2248.4541,-696.3927 2228.7893,-684.5932 2216,-668 2193.0302,-638.1983 2197,-623.1265 2197,-585.5 2197,-585.5 2197,-585.5 2197,-518.5 2197,-326.2505 1888.8034,-272.6868 1779.155,-259.7137"/>
<polygon fill="#191970" stroke="#191970" points="1779.5117,-256.2318 1769.1807,-258.5817 1778.7222,-263.1872 1779.5117,-256.2318"/>
</g>
<!-- Node34&#45;&gt;Node4 -->
<g id="edge86" class="edge">
<title>Node34&#45;&gt;Node4</title>
<path fill="none" stroke="#191970" d="M2360.2304,-704.4639C2390.8689,-694.499 2431.2533,-681.3642 2463.7541,-670.7936"/>
<polygon fill="#191970" stroke="#191970" points="2465.1408,-674.0231 2473.5679,-667.6017 2462.9757,-667.3663 2465.1408,-674.0231"/>
</g>
<!-- Node34&#45;&gt;Node15 -->
<g id="edge90" class="edge">
<title>Node34&#45;&gt;Node15</title>
<path fill="none" stroke="#191970" d="M2393.2182,-716.2916C2468.5365,-711.3799 2574.0721,-699.0138 2600,-668 2715.4022,-529.9613 2546.4559,-436.546 2427,-302 2400.317,-271.9463 2393.4376,-260.6162 2356,-246 2302.232,-225.0081 1931.6471,-205.7374 1765.401,-198.039"/>
<polygon fill="#191970" stroke="#191970" points="1765.3827,-194.5345 1755.2323,-197.5707 1765.0607,-201.5271 1765.3827,-194.5345"/>
</g>
<!-- Node34&#45;&gt;Node32 -->
<g id="edge87" class="edge">
<title>Node34&#45;&gt;Node32</title>
<path fill="none" stroke="#191970" d="M2331.186,-704.4397C2341.5642,-694.7442 2354.5627,-681.4729 2364,-668 2378.0665,-647.9183 2389.6868,-622.1353 2396.7121,-604.7818"/>
<polygon fill="#191970" stroke="#191970" points="2400.0802,-605.78 2400.4734,-595.1925 2393.5635,-603.2239 2400.0802,-605.78"/>
</g>
<!-- Node35 -->
<g id="node36" class="node">
<title>Node35</title>
<g id="a_node36"><a xlink:href="state__provider__result_8h.html" target="_top" xlink:title="maliput/api/rules/state\l_provider_result.h">
<polygon fill="#ffffff" stroke="#000000" points="2003.5,-503.5 2003.5,-533.5 2130.5,-533.5 2130.5,-503.5 2003.5,-503.5"/>
<text text-anchor="start" x="2011.5" y="-521.5" font-family="Helvetica,sans-Serif" font-size="10.00" fill="#000000">maliput/api/rules/state</text>
<text text-anchor="middle" x="2067" y="-510.5" font-family="Helvetica,sans-Serif" font-size="10.00" fill="#000000">_provider_result.h</text>
</a>
</g>
</g>
<!-- Node34&#45;&gt;Node35 -->
<g id="edge88" class="edge">
<title>Node34&#45;&gt;Node35</title>
<path fill="none" stroke="#191970" d="M2256.7522,-704.4091C2232.473,-696.207 2204.8106,-684.3321 2183,-668 2136.5686,-633.2316 2099.0032,-575.3038 2080.1621,-542.7042"/>
<polygon fill="#191970" stroke="#191970" points="2083.1136,-540.8133 2075.1394,-533.8373 2077.0228,-544.2634 2083.1136,-540.8133"/>
</g>
<!-- Node35&#45;&gt;Node2 -->
<g id="edge89" class="edge">
<title>Node35&#45;&gt;Node2</title>
<path fill="none" stroke="#191970" d="M2054.9457,-503.0568C2030.7683,-473.0667 1973.3083,-406.5987 1911,-369 1867.6796,-342.8592 1844.5487,-361.8739 1803,-333 1780.6437,-317.4636 1762.1883,-291.6175 1751.3831,-274.203"/>
<polygon fill="#191970" stroke="#191970" points="1754.3253,-272.3034 1746.1911,-265.5148 1748.3165,-275.8943 1754.3253,-272.3034"/>
</g>
<!-- Node36&#45;&gt;Node4 -->
<g id="edge102" class="edge">
<title>Node36&#45;&gt;Node4</title>
<path fill="none" stroke="#191970" d="M1751.3895,-715.2191C1870.5256,-706.9383 2138.6258,-687.7915 2364,-668 2388.435,-665.8542 2414.9999,-663.2982 2439.1665,-660.8868"/>
<polygon fill="#191970" stroke="#191970" points="2439.763,-664.3446 2449.3636,-659.8638 2439.0642,-657.3796 2439.763,-664.3446"/>
</g>
<!-- Node36&#45;&gt;Node6 -->
<g id="edge93" class="edge">
<title>Node36&#45;&gt;Node6</title>
<path fill="none" stroke="#191970" d="M1708.9969,-704.3859C1763.8384,-662.017 1918.4754,-536.2589 2008,-400 2026.2269,-372.2582 2032.6341,-365.1222 2041,-333 2045.9409,-314.0285 2046.5377,-291.5631 2046.1438,-275.8104"/>
<polygon fill="#191970" stroke="#191970" points="2049.635,-275.521 2045.7297,-265.6722 2042.6408,-275.8067 2049.635,-275.521"/>
</g>
<!-- Node36&#45;&gt;Node7 -->
<g id="edge94" class="edge">
<title>Node36&#45;&gt;Node7</title>
<path fill="none" stroke="#191970" d="M1626.947,-705.5586C1599.6023,-697.4839 1568.0641,-685.3906 1543,-668 1496.34,-635.6252 1500.0218,-611.2624 1461,-570 1449.3969,-557.7306 1435.51,-544.7395 1424.5933,-534.8745"/>
<polygon fill="#191970" stroke="#191970" points="1426.6982,-532.0615 1416.9111,-528.0038 1422.0316,-537.2791 1426.6982,-532.0615"/>
</g>
<!-- Node36&#45;&gt;Node15 -->
<g id="edge136" class="edge">
<title>Node36&#45;&gt;Node15</title>
<path fill="none" stroke="#191970" d="M1751.1073,-714.8647C1852.5684,-703.56 2051.3323,-664.9627 2139,-534 2146.6643,-522.5507 2140.6269,-516.6814 2139,-503 2125.1251,-386.323 2164.3727,-324.5623 2077,-246 2054.2547,-225.5483 1873.1352,-208.6091 1765.2173,-200.2062"/>
<polygon fill="#191970" stroke="#191970" points="1765.2492,-196.6984 1755.0099,-199.4199 1764.7115,-203.6777 1765.2492,-196.6984"/>
</g>
<!-- Node36&#45;&gt;Node16 -->
<g id="edge137" class="edge">
<title>Node36&#45;&gt;Node16</title>
<path fill="none" stroke="#191970" d="M1626.7944,-717.7722C1326.1437,-709.0212 38,-666.7847 38,-585.5 38,-585.5 38,-585.5 38,-194.5 38,-140.5024 94.8879,-107.8752 143.0398,-89.93"/>
<polygon fill="#191970" stroke="#191970" points="144.2968,-93.1976 152.5343,-86.5347 141.9397,-86.6064 144.2968,-93.1976"/>
</g>
<!-- Node36&#45;&gt;Node29 -->
<g id="edge92" class="edge">
<title>Node36&#45;&gt;Node29</title>
<path fill="none" stroke="#191970" d="M1675.9441,-704.3326C1658.5093,-682.9718 1628.4879,-642.0308 1617,-601 1588.0302,-497.53 1719.0504,-470.911 1685,-369 1671.8245,-329.5665 1638.8792,-292.8514 1618.0892,-272.5172"/>
<polygon fill="#191970" stroke="#191970" points="1620.4368,-269.9196 1610.783,-265.5544 1615.6076,-274.987 1620.4368,-269.9196"/>
</g>
<!-- Node37 -->
<g id="node38" class="node">
<title>Node37</title>
<g id="a_node38"><a xlink:href="direction__usage__rule_8h.html" target="_top" xlink:title="maliput/api/rules/direction\l_usage_rule.h">
<polygon fill="#ffffff" stroke="#000000" points="1307.5,-570.5 1307.5,-600.5 1452.5,-600.5 1452.5,-570.5 1307.5,-570.5"/>
<text text-anchor="start" x="1315.5" y="-588.5" font-family="Helvetica,sans-Serif" font-size="10.00" fill="#000000">maliput/api/rules/direction</text>
<text text-anchor="middle" x="1380" y="-577.5" font-family="Helvetica,sans-Serif" font-size="10.00" fill="#000000">_usage_rule.h</text>
</a>
</g>
</g>
<!-- Node36&#45;&gt;Node37 -->
<g id="edge95" class="edge">
<title>Node36&#45;&gt;Node37</title>
<path fill="none" stroke="#191970" d="M1626.5489,-713.9189C1580.2604,-707.726 1516.8299,-694.7969 1467,-668 1439.3728,-653.143 1414.1239,-627.1889 1398.027,-608.3511"/>
<polygon fill="#191970" stroke="#191970" points="1400.5917,-605.9613 1391.504,-600.5147 1395.2116,-610.4397 1400.5917,-605.9613"/>
</g>
<!-- Node38 -->
<g id="node39" class="node">
<title>Node38</title>
<g id="a_node39"><a xlink:href="range__value__rule_8h.html" target="_top" xlink:title="maliput/api/rules/range\l_value_rule.h">
<polygon fill="#ffffff" stroke="#000000" points="2225,-637.5 2225,-667.5 2355,-667.5 2355,-637.5 2225,-637.5"/>
<text text-anchor="start" x="2233" y="-655.5" font-family="Helvetica,sans-Serif" font-size="10.00" fill="#000000">maliput/api/rules/range</text>
<text text-anchor="middle" x="2290" y="-644.5" font-family="Helvetica,sans-Serif" font-size="10.00" fill="#000000">_value_rule.h</text>
</a>
</g>
</g>
<!-- Node36&#45;&gt;Node38 -->
<g id="edge103" class="edge">
<title>Node36&#45;&gt;Node38</title>
<path fill="none" stroke="#191970" d="M1751.0539,-712.5822C1862.084,-700.2044 2094.3243,-674.3141 2214.4395,-660.9236"/>
<polygon fill="#191970" stroke="#191970" points="2215.0998,-664.3717 2224.6505,-659.7852 2214.3242,-657.4148 2215.0998,-664.3717"/>
</g>
<!-- Node39 -->
<g id="node40" class="node">
<title>Node39</title>
<g id="a_node40"><a xlink:href="right__of__way__rule_8h.html" target="_top" xlink:title="maliput/api/rules/right\l_of_way_rule.h">
<polygon fill="#ffffff" stroke="#000000" points="1626.5,-570.5 1626.5,-600.5 1751.5,-600.5 1751.5,-570.5 1626.5,-570.5"/>
<text text-anchor="start" x="1634.5" y="-588.5" font-family="Helvetica,sans-Serif" font-size="10.00" fill="#000000">maliput/api/rules/right</text>
<text text-anchor="middle" x="1689" y="-577.5" font-family="Helvetica,sans-Serif" font-size="10.00" fill="#000000">_of_way_rule.h</text>
</a>
</g>
</g>
<!-- Node36&#45;&gt;Node39 -->
<g id="edge109" class="edge">
<title>Node36&#45;&gt;Node39</title>
<path fill="none" stroke="#191970" d="M1689,-704.389C1689,-681.6691 1689,-638.438 1689,-610.8405"/>
<polygon fill="#191970" stroke="#191970" points="1692.5001,-610.7614 1689,-600.7614 1685.5001,-610.7614 1692.5001,-610.7614"/>
</g>
<!-- Node42 -->
<g id="node43" class="node">
<title>Node42</title>
<g id="a_node43"><a xlink:href="speed__limit__rule_8h.html" target="_top" xlink:title="maliput/api/rules/speed\l_limit_rule.h">
<polygon fill="#ffffff" stroke="#000000" points="629.5,-570.5 629.5,-600.5 760.5,-600.5 760.5,-570.5 629.5,-570.5"/>
<text text-anchor="start" x="637.5" y="-588.5" font-family="Helvetica,sans-Serif" font-size="10.00" fill="#000000">maliput/api/rules/speed</text>
<text text-anchor="middle" x="695" y="-577.5" font-family="Helvetica,sans-Serif" font-size="10.00" fill="#000000">_limit_rule.h</text>
</a>
</g>
</g>
<!-- Node36&#45;&gt;Node42 -->
<g id="edge131" class="edge">
<title>Node36&#45;&gt;Node42</title>
<path fill="none" stroke="#191970" d="M1626.8208,-711.1177C1452.6846,-687.6426 960.5515,-621.2987 770.8634,-595.7271"/>
<polygon fill="#191970" stroke="#191970" points="771.0823,-592.225 760.7043,-594.3575 770.147,-599.1622 771.0823,-592.225"/>
</g>
<!-- Node37&#45;&gt;Node3 -->
<g id="edge96" class="edge">
<title>Node37&#45;&gt;Node3</title>
<path fill="none" stroke="#191970" d="M1412.3277,-570.331C1431.2365,-560.8906 1455.2044,-547.9224 1475,-534 1532.3371,-493.6745 1588.8294,-432.2257 1614.9588,-402.2252"/>
<polygon fill="#191970" stroke="#191970" points="1617.9029,-404.1704 1621.7808,-394.3108 1612.6007,-399.6001 1617.9029,-404.1704"/>
</g>
<!-- Node37&#45;&gt;Node6 -->
<g id="edge97" class="edge">
<title>Node37&#45;&gt;Node6</title>
<path fill="none" stroke="#191970" d="M1452.8117,-571.769C1559.985,-549.083 1763.4418,-496.4059 1911,-400 1964.6311,-364.9606 2011.6168,-303.9492 2032.8978,-273.8452"/>
<polygon fill="#191970" stroke="#191970" points="2035.8242,-275.7672 2038.6558,-265.5578 2030.0755,-271.773 2035.8242,-275.7672"/>
</g>
<!-- Node37&#45;&gt;Node7 -->
<g id="edge98" class="edge">
<title>Node37&#45;&gt;Node7</title>
<path fill="none" stroke="#191970" d="M1385.8998,-570.2967C1389.6754,-560.5672 1394.6037,-547.8675 1398.6353,-537.4784"/>
<polygon fill="#191970" stroke="#191970" points="1401.9372,-538.6439 1402.2921,-528.055 1395.4114,-536.1114 1401.9372,-538.6439"/>
</g>
<!-- Node37&#45;&gt;Node15 -->
<g id="edge100" class="edge">
<title>Node37&#45;&gt;Node15</title>
<path fill="none" stroke="#191970" d="M1307.3022,-583.6132C1119.5888,-576.2845 643.2774,-540.707 790,-369 856.6447,-291.0068 926.1905,-378.7761 1018,-333 1067.7882,-308.1757 1057.4015,-269.1281 1108,-246 1152.0486,-225.8658 1456.4942,-206.8733 1604.5264,-198.7039"/>
<polygon fill="#191970" stroke="#191970" points="1605.1153,-202.1769 1614.9086,-198.1345 1604.732,-195.1874 1605.1153,-202.1769"/>
</g>
<!-- Node37&#45;&gt;Node16 -->
<g id="edge101" class="edge">
<title>Node37&#45;&gt;Node16</title>
<path fill="none" stroke="#191970" d="M1307.1797,-581.1219C1200.5383,-574.1777 995.7881,-558.8237 823,-534 515.9378,-489.8857 366.9917,-609.2751 138,-400 109.8117,-374.2388 114,-355.6867 114,-317.5 114,-317.5 114,-317.5 114,-194.5 114,-160.9798 118.1557,-150.0149 138,-123 146.9227,-110.8532 159.559,-100.4007 171.7035,-92.1481"/>
<polygon fill="#191970" stroke="#191970" points="173.896,-94.8988 180.3997,-86.535 170.0998,-89.0175 173.896,-94.8988"/>
</g>
<!-- Node37&#45;&gt;Node26 -->
<g id="edge99" class="edge">
<title>Node37&#45;&gt;Node26</title>
<path fill="none" stroke="#191970" d="M1320.767,-570.4676C1247.0373,-550.8352 1118.0198,-513.4329 1013,-467 972.815,-449.2328 929.4079,-423.3584 900.8768,-405.3401"/>
<polygon fill="#191970" stroke="#191970" points="902.4736,-402.2075 892.1591,-399.7863 898.7125,-408.1112 902.4736,-402.2075"/>
</g>
<!-- Node38&#45;&gt;Node5 -->
<g id="edge104" class="edge">
<title>Node38&#45;&gt;Node5</title>
<path fill="none" stroke="#191970" d="M2355.4255,-640.8329C2402.0309,-631.3853 2459.5509,-617.0453 2478,-601 2552.2092,-536.4597 2653,-292.8486 2653,-194.5 2653,-194.5 2653,-194.5 2653,-133 2653,-65.0814 2585.8732,-76.11 2521,-56 2408.0733,-20.9939 2037.6589,-12.3036 1925.4811,-10.4501"/>
<polygon fill="#191970" stroke="#191970" points="1925.2068,-6.9454 1915.1527,-10.287 1925.0962,-13.9446 1925.2068,-6.9454"/>
</g>
<!-- Node38&#45;&gt;Node6 -->
<g id="edge105" class="edge">
<title>Node38&#45;&gt;Node6</title>
<path fill="none" stroke="#191970" d="M2286.988,-637.3865C2277.3715,-592.2607 2243.7957,-456.2355 2173,-369 2140.8067,-329.3309 2093.9455,-291.8585 2066.7576,-271.6047"/>
<polygon fill="#191970" stroke="#191970" points="2068.7947,-268.7583 2058.6652,-265.6529 2064.6473,-274.3973 2068.7947,-268.7583"/>
</g>
<!-- Node38&#45;&gt;Node7 -->
<g id="edge106" class="edge">
<title>Node38&#45;&gt;Node7</title>
<path fill="none" stroke="#191970" d="M2224.8594,-650.791C2073.6227,-646.335 1702.4339,-632.4551 1582,-601 1524.6458,-586.0201 1463.1348,-552.7541 1430.1758,-533.3499"/>
<polygon fill="#191970" stroke="#191970" points="1431.6619,-530.1608 1421.2815,-528.0397 1428.0735,-536.1711 1431.6619,-530.1608"/>
</g>
<!-- Node38&#45;&gt;Node15 -->
<g id="edge108" class="edge">
<title>Node38&#45;&gt;Node15</title>
<path fill="none" stroke="#191970" d="M2293.9499,-637.3483C2300.0331,-612.6432 2311,-562.0635 2311,-518.5 2311,-518.5 2311,-518.5 2311,-451.5 2311,-425.7522 2258.9544,-254.068 2249,-246 2212.2618,-216.2239 1912.2244,-202.1166 1765.3718,-196.944"/>
<polygon fill="#191970" stroke="#191970" points="1765.1842,-193.4355 1755.0689,-196.5869 1764.9416,-200.4313 1765.1842,-193.4355"/>
</g>
<!-- Node38&#45;&gt;Node32 -->
<g id="edge107" class="edge">
<title>Node38&#45;&gt;Node32</title>
<path fill="none" stroke="#191970" d="M2315.5838,-637.4639C2334.4531,-626.3741 2360.0021,-611.3584 2378.7839,-600.32"/>
<polygon fill="#191970" stroke="#191970" points="2380.8111,-603.1883 2387.659,-595.1039 2377.2643,-597.1534 2380.8111,-603.1883"/>
</g>
<!-- Node39&#45;&gt;Node3 -->
<g id="edge111" class="edge">
<title>Node39&#45;&gt;Node3</title>
<path fill="none" stroke="#191970" d="M1684.5654,-570.3923C1674.0096,-534.431 1647.4013,-443.7824 1635.6865,-403.8727"/>
<polygon fill="#191970" stroke="#191970" points="1639.0386,-402.8656 1632.8638,-394.2562 1632.322,-404.8372 1639.0386,-402.8656"/>
</g>
<!-- Node39&#45;&gt;Node6 -->
<g id="edge112" class="edge">
<title>Node39&#45;&gt;Node6</title>
<path fill="none" stroke="#191970" d="M1724.283,-570.4463C1746.1643,-560.7534 1774.6489,-547.4824 1799,-534 1821.2176,-521.6988 1824.9428,-515.5865 1847,-503 1878.0739,-485.2683 1890.2175,-488.2501 1919,-467 1952.1292,-442.5407 1958.4334,-433.0497 1983,-400 2003.4226,-372.5252 2007.3844,-364.4096 2021,-333 2029.2353,-314.0022 2035.9645,-291.2599 2040.1798,-275.4379"/>
<polygon fill="#191970" stroke="#191970" points="2043.5775,-276.278 2042.684,-265.7209 2036.799,-274.531 2043.5775,-276.278"/>
</g>
<!-- Node39&#45;&gt;Node7 -->
<g id="edge113" class="edge">
<title>Node39&#45;&gt;Node7</title>
<path fill="none" stroke="#191970" d="M1626.1931,-570.6305C1574.9602,-558.5012 1503.5463,-541.594 1456.0994,-530.361"/>
<polygon fill="#191970" stroke="#191970" points="1456.8917,-526.9519 1446.3544,-528.0539 1455.279,-533.7636 1456.8917,-526.9519"/>
</g>
<!-- Node39&#45;&gt;Node15 -->
<g id="edge129" class="edge">
<title>Node39&#45;&gt;Node15</title>
<path fill="none" stroke="#191970" d="M1709.0763,-570.3013C1761.6368,-530.2977 1899.9911,-423.5452 1911,-400 1916.8356,-387.5191 1915.9447,-381.8599 1911,-369 1884.5727,-300.2699 1859.55,-289.3131 1800,-246 1781.673,-232.67 1759.347,-221.6951 1739.2596,-213.3521"/>
<polygon fill="#191970" stroke="#191970" points="1740.4926,-210.0755 1729.909,-209.5873 1737.8782,-216.569 1740.4926,-210.0755"/>
</g>
<!-- Node39&#45;&gt;Node16 -->
<g id="edge130" class="edge">
<title>Node39&#45;&gt;Node16</title>
<path fill="none" stroke="#191970" d="M1626.2516,-580.333C1457.4529,-566.0945 979.7556,-523.5674 585,-467 418.2721,-443.1083 354.7161,-489.4489 212,-400 173.5837,-375.9222 152,-362.8382 152,-317.5 152,-317.5 152,-317.5 152,-194.5 152,-157.1436 173.9115,-118.8271 190.5638,-95.1014"/>
<polygon fill="#191970" stroke="#191970" points="193.5823,-96.9015 196.6318,-86.7551 187.9205,-92.7852 193.5823,-96.9015"/>
</g>
<!-- Node39&#45;&gt;Node18 -->
<g id="edge110" class="edge">
<title>Node39&#45;&gt;Node18</title>
<path fill="none" stroke="#191970" d="M1734.2081,-570.4566C1894.3391,-516.5295 2425,-332.0804 2425,-256 2425,-256 2425,-256 2425,-194.5 2425,-157.4405 2434.7972,-115.0675 2441.3157,-90.9763"/>
<polygon fill="#191970" stroke="#191970" points="2444.705,-91.8521 2444.033,-81.2786 2437.9646,-89.9634 2444.705,-91.8521"/>
</g>
<!-- Node39&#45;&gt;Node26 -->
<g id="edge128" class="edge">
<title>Node39&#45;&gt;Node26</title>
<path fill="none" stroke="#191970" d="M1655.5695,-570.3455C1614.0127,-552.0404 1540.5506,-521.4175 1475,-503 1388.8915,-478.8064 1363.1379,-491.0886 1277,-467 1239.8778,-456.6187 1233.2423,-445.9417 1196,-436 1150.8051,-423.9354 1030.864,-406.39 949.5121,-395.2126"/>
<polygon fill="#191970" stroke="#191970" points="949.6768,-391.7026 939.2945,-393.8143 948.7276,-398.6379 949.6768,-391.7026"/>
</g>
<!-- Node40 -->
<g id="node41" class="node">
<title>Node40</title>
<g id="a_node41"><a xlink:href="traffic__lights_8h.html" target="_top" xlink:title="maliput/api/rules/traffic\l_lights.h">
<polygon fill="#ffffff" stroke="#000000" points="1319.5,-436.5 1319.5,-466.5 1450.5,-466.5 1450.5,-436.5 1319.5,-436.5"/>
<text text-anchor="start" x="1327.5" y="-454.5" font-family="Helvetica,sans-Serif" font-size="10.00" fill="#000000">maliput/api/rules/traffic</text>
<text text-anchor="middle" x="1385" y="-443.5" font-family="Helvetica,sans-Serif" font-size="10.00" fill="#000000">_lights.h</text>
</a>
</g>
</g>
<!-- Node39&#45;&gt;Node40 -->
<g id="edge114" class="edge">
<title>Node39&#45;&gt;Node40</title>
<path fill="none" stroke="#191970" d="M1678.7061,-570.4524C1665.0303,-551.6681 1639.066,-519.9514 1609,-503 1563.5968,-477.4013 1506.2096,-464.5178 1460.8882,-458.0384"/>
<polygon fill="#191970" stroke="#191970" points="1461.2019,-454.549 1450.8227,-456.6755 1460.2626,-461.4857 1461.2019,-454.549"/>
</g>
<!-- Node40&#45;&gt;Node2 -->
<g id="edge117" class="edge">
<title>Node40&#45;&gt;Node2</title>
<path fill="none" stroke="#191970" d="M1396.1316,-436.3884C1410.2904,-418.1266 1436.3656,-387.5473 1465,-369 1504.2957,-343.5471 1522.0709,-353.8315 1564,-333 1586.7433,-321.7005 1589.2215,-313.2285 1612,-302 1641.5955,-287.4111 1677.0111,-275.1219 1703.2405,-266.926"/>
<polygon fill="#191970" stroke="#191970" points="1704.2788,-270.2685 1712.8121,-263.989 1702.2253,-263.5765 1704.2788,-270.2685"/>
</g>
<!-- Node40&#45;&gt;Node3 -->
<g id="edge119" class="edge">
<title>Node40&#45;&gt;Node3</title>
<path fill="none" stroke="#191970" d="M1439.9828,-436.4639C1483.906,-424.4522 1544.6706,-407.835 1585.5549,-396.6544"/>
<polygon fill="#191970" stroke="#191970" points="1586.5193,-400.0192 1595.2419,-394.0053 1584.6728,-393.2672 1586.5193,-400.0192"/>
</g>
<!-- Node40&#45;&gt;Node5 -->
<g id="edge118" class="edge">
<title>Node40&#45;&gt;Node5</title>
<path fill="none" stroke="#191970" d="M1450.744,-448.8433C1673.6621,-438.0733 2387,-388.4563 2387,-194.5 2387,-194.5 2387,-194.5 2387,-133 2387,-37.5225 2035.134,-15.5943 1925.3282,-11.0757"/>
<polygon fill="#191970" stroke="#191970" points="1925.3147,-7.5726 1915.1858,-10.6802 1925.0418,-14.5673 1925.3147,-7.5726"/>
</g>
<!-- Node40&#45;&gt;Node6 -->
<g id="edge120" class="edge">
<title>Node40&#45;&gt;Node6</title>
<path fill="none" stroke="#191970" d="M1408.657,-436.4138C1438.4461,-418.0339 1491.7058,-387.19 1541,-369 1711.8606,-305.9509 1928.8365,-271.8191 2011.2161,-260.4049"/>
<polygon fill="#191970" stroke="#191970" points="2011.8231,-263.8546 2021.2579,-259.0344 2010.8764,-256.9189 2011.8231,-263.8546"/>
</g>
<!-- Node40&#45;&gt;Node11 -->
<g id="edge116" class="edge">
<title>Node40&#45;&gt;Node11</title>
<path fill="none" stroke="#191970" d="M1319.0921,-438.6584C1314.3245,-437.7516 1309.5891,-436.8576 1305,-436 1216.2194,-419.4099 1193.7997,-416.4877 1105,-400 1091.4486,-397.4839 1076.6352,-394.6683 1063.425,-392.1343"/>
<polygon fill="#191970" stroke="#191970" points="1063.7103,-388.6251 1053.2292,-390.1735 1062.3883,-395.4991 1063.7103,-388.6251"/>
</g>
<!-- Node40&#45;&gt;Node12 -->
<g id="edge121" class="edge">
<title>Node40&#45;&gt;Node12</title>
<path fill="none" stroke="#191970" d="M1319.169,-445.8741C1174.7731,-433.5342 830.9036,-404.1474 677.3425,-391.0242"/>
<polygon fill="#191970" stroke="#191970" points="677.3253,-387.51 667.0636,-390.1457 676.7292,-394.4846 677.3253,-387.51"/>
</g>
<!-- Node40&#45;&gt;Node13 -->
<g id="edge115" class="edge">
<title>Node40&#45;&gt;Node13</title>
<path fill="none" stroke="#191970" d="M1322.6028,-436.4131C1275.6523,-424.5211 1218.0568,-408.5632 1210,-400 1177.7408,-365.7128 1174.7763,-306.5653 1175.682,-275.8334"/>
<polygon fill="#191970" stroke="#191970" points="1179.1916,-275.7109 1176.1656,-265.5574 1172.1993,-275.3818 1179.1916,-275.7109"/>
</g>
<!-- Node40&#45;&gt;Node15 -->
<g id="edge124" class="edge">
<title>Node40&#45;&gt;Node15</title>
<path fill="none" stroke="#191970" d="M1320.8922,-436.4056C1275.0021,-422.6199 1225.6188,-399.7107 1252,-369 1286.5689,-328.7581 1436.8615,-347.1164 1488,-333 1523.1645,-323.2931 1530.0067,-315.237 1564,-302 1606.8503,-285.3141 1629.0007,-299.0245 1661,-266 1673.0245,-253.5903 1679.0295,-234.9744 1682.0257,-219.8488"/>
<polygon fill="#191970" stroke="#191970" points="1685.5436,-220.0269 1683.7187,-209.5904 1678.637,-218.887 1685.5436,-220.0269"/>
</g>
<!-- Node40&#45;&gt;Node23 -->
<g id="edge127" class="edge">
<title>Node40&#45;&gt;Node23</title>
<path fill="none" stroke="#191970" d="M1319.1177,-437.4102C1270.9484,-426.54 1210.1535,-411.4723 1187,-400 1064.4718,-339.2884 1039.8972,-308.456 945,-210 927.356,-191.6943 910.6983,-167.5891 900.2111,-151.2617"/>
<polygon fill="#191970" stroke="#191970" points="903.0787,-149.2472 894.7886,-142.6498 897.1551,-152.977 903.0787,-149.2472"/>
</g>
<!-- Node40&#45;&gt;Node26 -->
<g id="edge122" class="edge">
<title>Node40&#45;&gt;Node26</title>
<path fill="none" stroke="#191970" d="M1319.1506,-438.3142C1314.3692,-437.4881 1309.6148,-436.7063 1305,-436 1163.9647,-414.4136 1127.6165,-417.3698 986,-400 974.1629,-398.5481 961.6605,-396.9552 949.4071,-395.3605"/>
<polygon fill="#191970" stroke="#191970" points="949.5626,-391.8511 939.1929,-394.0235 948.654,-398.7919 949.5626,-391.8511"/>
</g>
<!-- Node40&#45;&gt;Node28 -->
<g id="edge125" class="edge">
<title>Node40&#45;&gt;Node28</title>
<path fill="none" stroke="#191970" d="M1324.3768,-436.4161C1279.7023,-424.69 1225.6001,-408.958 1219,-400 1198.38,-372.0134 1234.7574,-350.19 1272.573,-336.0373"/>
<polygon fill="#191970" stroke="#191970" points="1273.9436,-339.2644 1282.1843,-332.6053 1271.5896,-332.672 1273.9436,-339.2644"/>
</g>
<!-- Node40&#45;&gt;Node33 -->
<g id="edge123" class="edge">
<title>Node40&#45;&gt;Node33</title>
<path fill="none" stroke="#191970" d="M1450.7247,-441.7576C1533.628,-429.4689 1675.8139,-408.3926 1762.6165,-395.5259"/>
<polygon fill="#191970" stroke="#191970" points="1763.2808,-398.9657 1772.6595,-394.0372 1762.2544,-392.0414 1763.2808,-398.9657"/>
</g>
<!-- Node41 -->
<g id="node42" class="node">
<title>Node41</title>
<g id="a_node42"><a xlink:href="passkey_8h.html" target="_top" xlink:title="maliput/common/passkey.h">
<polygon fill="#ffffff" stroke="#000000" points="1261,-375 1261,-394 1413,-394 1413,-375 1261,-375"/>
<text text-anchor="middle" x="1337" y="-382" font-family="Helvetica,sans-Serif" font-size="10.00" fill="#000000">maliput/common/passkey.h</text>
</a>
</g>
</g>
<!-- Node40&#45;&gt;Node41 -->
<g id="edge126" class="edge">
<title>Node40&#45;&gt;Node41</title>
<path fill="none" stroke="#191970" d="M1374.1081,-436.2967C1366.8473,-426.1618 1357.2775,-412.804 1349.675,-402.1921"/>
<polygon fill="#191970" stroke="#191970" points="1352.5144,-400.1458 1343.8454,-394.055 1346.824,-404.2225 1352.5144,-400.1458"/>
</g>
<!-- Node42&#45;&gt;Node7 -->
<g id="edge132" class="edge">
<title>Node42&#45;&gt;Node7</title>
<path fill="none" stroke="#191970" d="M760.6147,-579.3169C894.4332,-566.7067 1197.8156,-538.1179 1335.5841,-525.1355"/>
<polygon fill="#191970" stroke="#191970" points="1335.9831,-528.6135 1345.6106,-524.1907 1335.3263,-521.6444 1335.9831,-528.6135"/>
</g>
<!-- Node42&#45;&gt;Node15 -->
<g id="edge134" class="edge">
<title>Node42&#45;&gt;Node15</title>
<path fill="none" stroke="#191970" d="M679.0747,-570.4298C652.3349,-543.2183 603.6189,-484.2275 628,-436 628.7081,-434.5993 717.5618,-369.6284 719,-369 796.9574,-334.9387 828.3559,-365.4443 907,-333 970.9272,-306.6271 970.7195,-268.8184 1036,-246 1088.3983,-227.6845 1442.513,-207.154 1604.4588,-198.5919"/>
<polygon fill="#191970" stroke="#191970" points="1605.0405,-202.0663 1614.8427,-198.0454 1604.6726,-195.0759 1605.0405,-202.0663"/>
</g>
<!-- Node42&#45;&gt;Node16 -->
<g id="edge135" class="edge">
<title>Node42&#45;&gt;Node16</title>
<path fill="none" stroke="#191970" d="M629.3422,-578.1695C470.035,-559.4995 76,-507.6455 76,-451.5 76,-451.5 76,-451.5 76,-194.5 76,-160.9798 77.7307,-148.0536 100,-123 112.5532,-108.8772 129.8087,-98.3105 146.8886,-90.5481"/>
<polygon fill="#191970" stroke="#191970" points="148.5048,-93.6638 156.3284,-86.5194 145.7571,-87.2256 148.5048,-93.6638"/>
</g>
<!-- Node42&#45;&gt;Node26 -->
<g id="edge133" class="edge">
<title>Node42&#45;&gt;Node26</title>
<path fill="none" stroke="#191970" d="M708.0783,-570.3923C738.3831,-535.385 813.5507,-448.5534 849.389,-407.1541"/>
<polygon fill="#191970" stroke="#191970" points="852.1085,-409.3602 856.0073,-399.5088 846.816,-404.7787 852.1085,-409.3602"/>
</g>
</g>
</svg>
        <g id="navigator" transform="translate(0 0)" fill="#404254">
                <rect fill="#f2f5e9" fill-opacity="0.5" stroke="#606060" stroke-width=".5" x="0" y="0" width="60" height="60"/>
                <use id="zoomplus" xlink:href="#zoomPlus" x="17" y="9" onmousedown="handleZoom(evt,'in')"/>
                <use id="zoomminus" xlink:href="#zoomMin" x="42" y="9" onmousedown="handleZoom(evt,'out')"/>
                <use id="reset" xlink:href="#resetDef" x="30" y="36" onmousedown="handleReset()"/>
                <g id="arrowUp" xlink:href="#dirArrow" transform="translate(30 24)" onmousedown="handlePan(0,-1)">
                  <use xlink:href="#rim" fill="#404040">
                        <set attributeName="fill" to="#808080" begin="arrowUp.mouseover" end="arrowUp.mouseout"/>
                  </use>
                  <path fill="none" stroke="white" stroke-width="1.5" d="M0,-3.0v7 M-2.5,-0.5L0,-3.0L2.5,-0.5"/>
                </g>
                <g id="arrowRight" xlink:href="#dirArrow" transform="rotate(90) translate(36 -43)" onmousedown="handlePan(1,0)">
                  <use xlink:href="#rim" fill="#404040">
                        <set attributeName="fill" to="#808080" begin="arrowRight.mouseover" end="arrowRight.mouseout"/>
                  </use>
                  <path fill="none" stroke="white" stroke-width="1.5" d="M0,-3.0v7 M-2.5,-0.5L0,-3.0L2.5,-0.5"/>
                </g>
                <g id="arrowDown" xlink:href="#dirArrow" transform="rotate(180) translate(-30 -48)" onmousedown="handlePan(0,1)">
                  <use xlink:href="#rim" fill="#404040">
                        <set attributeName="fill" to="#808080" begin="arrowDown.mouseover" end="arrowDown.mouseout"/>
                  </use>
                  <path fill="none" stroke="white" stroke-width="1.5" d="M0,-3.0v7 M-2.5,-0.5L0,-3.0L2.5,-0.5"/>
                </g>
                <g id="arrowLeft" xlink:href="#dirArrow" transform="rotate(270) translate(-36 17)" onmousedown="handlePan(-1,0)">
                  <use xlink:href="#rim" fill="#404040">
                        <set attributeName="fill" to="#808080" begin="arrowLeft.mouseover" end="arrowLeft.mouseout"/>
                  </use>
                  <path fill="none" stroke="white" stroke-width="1.5" d="M0,-3.0v7 M-2.5,-0.5L0,-3.0L2.5,-0.5"/>
                </g>
        </g>
        <svg viewBox="0 0 15 15" width="100%" height="30px" preserveAspectRatio="xMaxYMin meet">
         <g id="arrow_out" transform="scale(0.3 0.3)">
          <a xlink:href="manual__discrete__value__rule__state__provider_8cc__incl_org.svg" target="_base">
           <rect id="button" ry="5" rx="5" y="6" x="6" height="38" width="38"
                fill="#f2f5e9" fill-opacity="0.5" stroke="#606060" stroke-width="1.0"/>
           <path id="arrow"
             d="M 11.500037,31.436501 C 11.940474,20.09759 22.043105,11.32322 32.158766,21.979434 L 37.068811,17.246167 C 37.068811,17.246167 37.088388,32 37.088388,32 L 22.160133,31.978069 C 22.160133,31.978069 26.997745,27.140456 26.997745,27.140456 C 18.528582,18.264221 13.291696,25.230495 11.500037,31.436501 z"
             style="fill:#404040;"/>
          </a>
         </g>
        </svg>
</svg>
