<?xml version="1.0" encoding="UTF-8" standalone="no"?>
<!DOCTYPE svg PUBLIC "-//W3C//DTD SVG 1.1//EN"
 "http://www.w3.org/Graphics/SVG/1.1/DTD/svg11.dtd">
<!-- Generated by graphviz version 2.43.0 (0)
 -->
<!-- Title: manual_discrete_value_rule_state_provider.h Pages: 1 -->
<svg width="300pt" height="195pt"
 viewBox="0.00 0.00 299.50 195.00" xmlns="http://www.w3.org/2000/svg" xmlns:xlink="http://www.w3.org/1999/xlink">
<g id="graph0" class="graph" transform="scale(1 1) rotate(0) translate(4 191)">
<title>manual_discrete_value_rule_state_provider.h</title>
<polygon fill="white" stroke="transparent" points="-4,4 -4,-191 295.5,-191 295.5,4 -4,4"/>
<!-- Node1 -->
<g id="node1" class="node">
<title>Node1</title>
<g id="a_node1"><a xlink:title=" ">
<polygon fill="#bfbfbf" stroke="black" points="83.5,-156.5 83.5,-186.5 213.5,-186.5 213.5,-156.5 83.5,-156.5"/>
<text text-anchor="start" x="91.5" y="-174.5" font-family="Helvetica,sans-Serif" font-size="10.00">manual_discrete_value</text>
<text text-anchor="middle" x="148.5" y="-163.5" font-family="Helvetica,sans-Serif" font-size="10.00">_rule_state_provider.h</text>
</a>
</g>
</g>
<!-- Node2 -->
<g id="node2" class="node">
<title>Node2</title>
<g id="a_node2"><a xlink:href="phase__based__right__of__way__discrete__value__rule__state__provider_8h.html" target="_top" xlink:title=" ">
<polygon fill="white" stroke="black" points="0,-78.5 0,-119.5 143,-119.5 143,-78.5 0,-78.5"/>
<text text-anchor="start" x="8" y="-107.5" font-family="Helvetica,sans-Serif" font-size="10.00">phase_based_right_of</text>
<text text-anchor="start" x="8" y="-96.5" font-family="Helvetica,sans-Serif" font-size="10.00">_way_discrete_value_rule</text>
<text text-anchor="middle" x="71.5" y="-85.5" font-family="Helvetica,sans-Serif" font-size="10.00">_state_provider.h</text>
</a>
</g>
</g>
<!-- Node1&#45;&gt;Node2 -->
<g id="edge1" class="edge">
<title>Node1&#45;&gt;Node2</title>
<path fill="none" stroke="midnightblue" d="M125.43,-149.38C115.11,-139.93 103.01,-128.85 92.89,-119.59"/>
<polygon fill="midnightblue" stroke="midnightblue" points="123.18,-152.06 132.92,-156.23 127.91,-146.9 123.18,-152.06"/>
</g>
<!-- Node4 -->
<g id="node4" class="node">
<title>Node4</title>
<g id="a_node4"><a xlink:href="manual__discrete__value__rule__state__provider_8cc.html" target="_top" xlink:title=" ">
<polygon fill="white" stroke="black" points="161.5,-84 161.5,-114 291.5,-114 291.5,-84 161.5,-84"/>
<text text-anchor="start" x="169.5" y="-102" font-family="Helvetica,sans-Serif" font-size="10.00">manual_discrete_value</text>
<text text-anchor="middle" x="226.5" y="-91" font-family="Helvetica,sans-Serif" font-size="10.00">_rule_state_provider.cc</text>
</a>
</g>
</g>
<!-- Node1&#45;&gt;Node4 -->
<g id="edge3" class="edge">
<title>Node1&#45;&gt;Node4</title>
<path fill="none" stroke="midnightblue" d="M171.77,-149.46C184.45,-138 199.8,-124.14 211.01,-114"/>
<polygon fill="midnightblue" stroke="midnightblue" points="169.36,-146.93 164.28,-156.23 174.05,-152.12 169.36,-146.93"/>
</g>
<!-- Node3 -->
<g id="node3" class="node">
<title>Node3</title>
<g id="a_node3"><a xlink:href="phase__based__right__of__way__discrete__value__rule__state__provider_8cc.html" target="_top" xlink:title=" ">
<polygon fill="white" stroke="black" points="0,-0.5 0,-41.5 143,-41.5 143,-0.5 0,-0.5"/>
<text text-anchor="start" x="8" y="-29.5" font-family="Helvetica,sans-Serif" font-size="10.00">phase_based_right_of</text>
<text text-anchor="start" x="8" y="-18.5" font-family="Helvetica,sans-Serif" font-size="10.00">_way_discrete_value_rule</text>
<text text-anchor="middle" x="71.5" y="-7.5" font-family="Helvetica,sans-Serif" font-size="10.00">_state_provider.cc</text>
</a>
</g>
</g>
<!-- Node2&#45;&gt;Node3 -->
<g id="edge2" class="edge">
<title>Node2&#45;&gt;Node3</title>
<path fill="none" stroke="midnightblue" d="M71.5,-68.3C71.5,-59.3 71.5,-49.65 71.5,-41.51"/>
<polygon fill="midnightblue" stroke="midnightblue" points="68,-68.43 71.5,-78.43 75,-68.43 68,-68.43"/>
</g>
</g>
</svg>
