<?xml version="1.0" encoding="UTF-8" standalone="no"?>
<!DOCTYPE svg PUBLIC "-//W3C//DTD SVG 1.1//EN"
 "http://www.w3.org/Graphics/SVG/1.1/DTD/svg11.dtd">
<!-- Generated by graphviz version 2.40.1 (20161225.0304)
 -->
<!-- Title: manual_phase_provider.cc Pages: 1 -->
<!--zoomable 989 -->
<svg id="main" version="1.1" xmlns="http://www.w3.org/2000/svg" xmlns:xlink="http://www.w3.org/1999/xlink" xml:space="preserve" onload="init(evt)">
<style type="text/css"><![CDATA[
.edge:hover path { stroke: red; }
.edge:hover polygon { stroke: red; fill: red; }
]]></style>
<script type="text/javascript"><![CDATA[
var edges = document.getElementsByTagName('g');
if (edges && edges.length) {
  for (var i=0;i<edges.length;i++) {
    if (edges[i].id.substr(0,4)=='edge') {
      edges[i].setAttribute('class','edge');
    }
  }
}
]]></script>
        <defs>
                <circle id="rim" cx="0" cy="0" r="7"/>
                <circle id="rim2" cx="0" cy="0" r="3.5"/>
                <g id="zoomPlus">
                        <use xlink:href="#rim" fill="#404040">
                                <set attributeName="fill" to="#808080" begin="zoomplus.mouseover" end="zoomplus.mouseout"/>
                        </use>
                        <path d="M-4,0h8M0,-4v8" fill="none" stroke="white" stroke-width="1.5" pointer-events="none"/>
                </g>
                <g id="zoomMin">
                        <use xlink:href="#rim" fill="#404040">
                                <set attributeName="fill" to="#808080" begin="zoomminus.mouseover" end="zoomminus.mouseout"/>
                        </use>
                        <path d="M-4,0h8" fill="none" stroke="white" stroke-width="1.5" pointer-events="none"/>
                </g>
                <g id="dirArrow">
                        <path fill="none" stroke="white" stroke-width="1.5" d="M0,-3.0v7 M-2.5,-0.5L0,-3.0L2.5,-0.5"/>
                </g>
               <g id="resetDef">
                       <use xlink:href="#rim2" fill="#404040">
                               <set attributeName="fill" to="#808080" begin="reset.mouseover" end="reset.mouseout"/>
                       </use>
               </g>
        </defs>

<script type="text/javascript">
var viewWidth = 2667;
var viewHeight = 989;
var sectionId = 'dynsection-0';
</script>
<script xlink:href="svgpan.js"/>
<svg id="graph" class="graph">
<g id="viewport">
<title>manual_phase_provider.cc</title>
<polygon fill="#ffffff" stroke="transparent" points="-4,4 -4,-985 2662.5,-985 2662.5,4 -4,4"/>
<!-- Node0 -->
<g id="node1" class="node">
<title>Node0</title>
<polygon fill="#bfbfbf" stroke="#000000" points="445.5,-961.5 445.5,-980.5 592.5,-980.5 592.5,-961.5 445.5,-961.5"/>
<text text-anchor="middle" x="519" y="-968.5" font-family="Helvetica,sans-Serif" font-size="10.00" fill="#000000">manual_phase_provider.cc</text>
</g>
<!-- Node1 -->
<g id="node2" class="node">
<title>Node1</title>
<g id="a_node2"><a xlink:href="manual__phase__provider_8h.html" target="_top" xlink:title="maliput/base/manual\l_phase_provider.h">
<polygon fill="#ffffff" stroke="#000000" points="459,-894.5 459,-924.5 579,-924.5 579,-894.5 459,-894.5"/>
<text text-anchor="start" x="467" y="-912.5" font-family="Helvetica,sans-Serif" font-size="10.00" fill="#000000">maliput/base/manual</text>
<text text-anchor="middle" x="519" y="-901.5" font-family="Helvetica,sans-Serif" font-size="10.00" fill="#000000">_phase_provider.h</text>
</a>
</g>
</g>
<!-- Node0&#45;&gt;Node1 -->
<g id="edge1" class="edge">
<title>Node0&#45;&gt;Node1</title>
<path fill="none" stroke="#191970" d="M519,-961.3906C519,-954.2234 519,-944.0862 519,-934.671"/>
<polygon fill="#191970" stroke="#191970" points="522.5001,-934.5446 519,-924.5446 515.5001,-934.5446 522.5001,-934.5446"/>
</g>
<!-- Node5 -->
<g id="node6" class="node">
<title>Node5</title>
<polygon fill="#ffffff" stroke="#bfbfbf" points="368.5,-375 368.5,-394 461.5,-394 461.5,-375 368.5,-375"/>
<text text-anchor="middle" x="415" y="-382" font-family="Helvetica,sans-Serif" font-size="10.00" fill="#000000">unordered_map</text>
</g>
<!-- Node0&#45;&gt;Node5 -->
<g id="edge131" class="edge">
<title>Node0&#45;&gt;Node5</title>
<path fill="none" stroke="#191970" d="M445.4229,-966.599C310.6804,-956.5101 38,-925.8023 38,-842.5 38,-842.5 38,-842.5 38,-574.5 38,-432.8139 252.9722,-396.7686 358.2537,-387.6115"/>
<polygon fill="#191970" stroke="#191970" points="358.7124,-391.0857 368.3943,-386.7832 358.1425,-384.109 358.7124,-391.0857"/>
</g>
<!-- Node7 -->
<g id="node8" class="node">
<title>Node7</title>
<polygon fill="#ffffff" stroke="#bfbfbf" points="2287,-.5 2287,-19.5 2331,-19.5 2331,-.5 2287,-.5"/>
<text text-anchor="middle" x="2309" y="-7.5" font-family="Helvetica,sans-Serif" font-size="10.00" fill="#000000">string</text>
</g>
<!-- Node0&#45;&gt;Node7 -->
<g id="edge130" class="edge">
<title>Node0&#45;&gt;Node7</title>
<path fill="none" stroke="#191970" d="M592.7239,-970.3048C958.9478,-966.3781 2565,-943.4055 2565,-842.5 2565,-842.5 2565,-842.5 2565,-133 2565,-90.6843 2544.3016,-79.3326 2509,-56 2481.7241,-37.972 2390.7611,-22.1502 2341.4483,-14.6374"/>
<polygon fill="#191970" stroke="#191970" points="2341.7155,-11.1385 2331.3076,-13.1203 2340.6797,-18.0615 2341.7155,-11.1385"/>
</g>
<!-- Node17 -->
<g id="node18" class="node">
<title>Node17</title>
<g id="a_node18"><a xlink:href="maliput__throw_8h.html" target="_top" xlink:title="Code in this file is inspired by: https://github.com/RobotLocomotion/drake/blob/master/common/drake_t...">
<polygon fill="#ffffff" stroke="#000000" points="1092,-56.5 1092,-86.5 1232,-86.5 1232,-56.5 1092,-56.5"/>
<text text-anchor="start" x="1100" y="-74.5" font-family="Helvetica,sans-Serif" font-size="10.00" fill="#000000">maliput/common/maliput</text>
<text text-anchor="middle" x="1162" y="-63.5" font-family="Helvetica,sans-Serif" font-size="10.00" fill="#000000">_throw.h</text>
</a>
</g>
</g>
<!-- Node0&#45;&gt;Node17 -->
<g id="edge132" class="edge">
<title>Node0&#45;&gt;Node17</title>
<path fill="none" stroke="#191970" d="M445.0644,-968.958C338.3387,-965.0372 147.0972,-954.0852 85,-925 37.3244,-902.6696 0,-895.146 0,-842.5 0,-842.5 0,-842.5 0,-574.5 0,-401.4557 49.6887,-313.5592 209,-246 513.8344,-116.7287 913.3657,-83.0846 1081.7097,-74.4387"/>
<polygon fill="#191970" stroke="#191970" points="1081.921,-77.9326 1091.7345,-73.9395 1081.5728,-70.9413 1081.921,-77.9326"/>
</g>
<!-- Node41 -->
<g id="node42" class="node">
<title>Node41</title>
<polygon fill="#ffffff" stroke="#bfbfbf" points="2593.5,-900 2593.5,-919 2658.5,-919 2658.5,-900 2593.5,-900"/>
<text text-anchor="middle" x="2626" y="-907" font-family="Helvetica,sans-Serif" font-size="10.00" fill="#000000">stdexcept</text>
</g>
<!-- Node0&#45;&gt;Node41 -->
<g id="edge129" class="edge">
<title>Node0&#45;&gt;Node41</title>
<path fill="none" stroke="#191970" d="M592.7192,-970.6458C937.2692,-968.816 2380.5284,-959.1591 2579,-925 2583.1914,-924.2786 2587.5192,-923.2567 2591.7738,-922.0774"/>
<polygon fill="#191970" stroke="#191970" points="2592.9335,-925.3828 2601.4701,-919.1076 2590.8835,-918.6897 2592.9335,-925.3828"/>
</g>
<!-- Node2 -->
<g id="node3" class="node">
<title>Node2</title>
<polygon fill="#ffffff" stroke="#bfbfbf" points="1754,-375 1754,-394 1812,-394 1812,-375 1754,-375"/>
<text text-anchor="middle" x="1783" y="-382" font-family="Helvetica,sans-Serif" font-size="10.00" fill="#000000">memory</text>
</g>
<!-- Node1&#45;&gt;Node2 -->
<g id="edge2" class="edge">
<title>Node1&#45;&gt;Node2</title>
<path fill="none" stroke="#191970" d="M579.0247,-908.8458C898.856,-905.2422 2389.5375,-886.9156 2427,-858 2457.2293,-834.6673 2451,-813.6867 2451,-775.5 2451,-775.5 2451,-775.5 2451,-513 2451,-448.5515 1965.3161,-400.5828 1822.2191,-387.8485"/>
<polygon fill="#191970" stroke="#191970" points="1822.4015,-384.351 1812.1327,-386.9589 1821.7865,-391.324 1822.4015,-384.351"/>
</g>
<!-- Node3 -->
<g id="node4" class="node">
<title>Node3</title>
<polygon fill="#ffffff" stroke="#bfbfbf" points="218,-246.5 218,-265.5 274,-265.5 274,-246.5 218,-246.5"/>
<text text-anchor="middle" x="246" y="-253.5" font-family="Helvetica,sans-Serif" font-size="10.00" fill="#000000">optional</text>
</g>
<!-- Node1&#45;&gt;Node3 -->
<g id="edge3" class="edge">
<title>Node1&#45;&gt;Node3</title>
<path fill="none" stroke="#191970" d="M458.794,-903.9914C337.6696,-891.24 76,-854.5455 76,-775.5 76,-775.5 76,-775.5 76,-574.5 76,-448.6467 72.5578,-398.789 153,-302 167.1183,-285.0127 189.0495,-273.7449 208.0695,-266.6149"/>
<polygon fill="#191970" stroke="#191970" points="209.4058,-269.8556 217.6935,-263.2552 207.0987,-263.2467 209.4058,-269.8556"/>
</g>
<!-- Node4 -->
<g id="node5" class="node">
<title>Node4</title>
<g id="a_node5"><a xlink:href="phase_8h.html" target="_top" xlink:title="maliput/api/rules/phase.h">
<polygon fill="#ffffff" stroke="#000000" points="494,-699 494,-718 634,-718 634,-699 494,-699"/>
<text text-anchor="middle" x="564" y="-706" font-family="Helvetica,sans-Serif" font-size="10.00" fill="#000000">maliput/api/rules/phase.h</text>
</a>
</g>
</g>
<!-- Node1&#45;&gt;Node4 -->
<g id="edge4" class="edge">
<title>Node1&#45;&gt;Node4</title>
<path fill="none" stroke="#191970" d="M522.3823,-894.3923C530.4162,-858.5077 550.6413,-768.1687 559.6055,-728.1287"/>
<polygon fill="#191970" stroke="#191970" points="563.0464,-728.7793 561.8158,-718.2562 556.2155,-727.25 563.0464,-728.7793"/>
</g>
<!-- Node16 -->
<g id="node17" class="node">
<title>Node16</title>
<g id="a_node17"><a xlink:href="maliput__copyable_8h.html" target="_top" xlink:title="Code in this file is inspired by: https://github.com/RobotLocomotion/drake/blob/master/common/drake_c...">
<polygon fill="#ffffff" stroke="#000000" points="819,-179.5 819,-209.5 959,-209.5 959,-179.5 819,-179.5"/>
<text text-anchor="start" x="827" y="-197.5" font-family="Helvetica,sans-Serif" font-size="10.00" fill="#000000">maliput/common/maliput</text>
<text text-anchor="middle" x="889" y="-186.5" font-family="Helvetica,sans-Serif" font-size="10.00" fill="#000000">_copyable.h</text>
</a>
</g>
</g>
<!-- Node1&#45;&gt;Node16 -->
<g id="edge128" class="edge">
<title>Node1&#45;&gt;Node16</title>
<path fill="none" stroke="#191970" d="M579.076,-908.4674C901.5809,-902.5394 2413,-869.7311 2413,-775.5 2413,-775.5 2413,-775.5 2413,-708.5 2413,-474.4854 1614.4731,-525.9303 1388,-467 1282.8936,-439.6504 1249.8504,-449.1464 1153,-400 1053.2852,-349.4001 954.2441,-258.6868 911.2558,-216.8086"/>
<polygon fill="#191970" stroke="#191970" points="913.4807,-214.088 903.8937,-209.578 908.5758,-219.0822 913.4807,-214.088"/>
</g>
<!-- Node38 -->
<g id="node39" class="node">
<title>Node38</title>
<g id="a_node39"><a xlink:href="phase__provider_8h.html" target="_top" xlink:title="maliput/api/rules/phase\l_provider.h">
<polygon fill="#ffffff" stroke="#000000" points="242.5,-827.5 242.5,-857.5 373.5,-857.5 373.5,-827.5 242.5,-827.5"/>
<text text-anchor="start" x="250.5" y="-845.5" font-family="Helvetica,sans-Serif" font-size="10.00" fill="#000000">maliput/api/rules/phase</text>
<text text-anchor="middle" x="308" y="-834.5" font-family="Helvetica,sans-Serif" font-size="10.00" fill="#000000">_provider.h</text>
</a>
</g>
</g>
<!-- Node1&#45;&gt;Node38 -->
<g id="edge114" class="edge">
<title>Node1&#45;&gt;Node38</title>
<path fill="none" stroke="#191970" d="M471.6475,-894.4639C440.1301,-884.456 398.544,-871.2509 365.1811,-860.657"/>
<polygon fill="#191970" stroke="#191970" points="366.1494,-857.2923 355.559,-857.6017 364.0308,-863.9641 366.1494,-857.2923"/>
</g>
<!-- Node39 -->
<g id="node40" class="node">
<title>Node39</title>
<g id="a_node40"><a xlink:href="phase__ring_8h.html" target="_top" xlink:title="maliput/api/rules/phase\l_ring.h">
<polygon fill="#ffffff" stroke="#000000" points="348.5,-760.5 348.5,-790.5 479.5,-790.5 479.5,-760.5 348.5,-760.5"/>
<text text-anchor="start" x="356.5" y="-778.5" font-family="Helvetica,sans-Serif" font-size="10.00" fill="#000000">maliput/api/rules/phase</text>
<text text-anchor="middle" x="414" y="-767.5" font-family="Helvetica,sans-Serif" font-size="10.00" fill="#000000">_ring.h</text>
</a>
</g>
</g>
<!-- Node1&#45;&gt;Node39 -->
<g id="edge127" class="edge">
<title>Node1&#45;&gt;Node39</title>
<path fill="none" stroke="#191970" d="M507.1593,-894.389C488.8838,-871.066 453.6712,-826.1281 432.1605,-798.6763"/>
<polygon fill="#191970" stroke="#191970" points="434.8814,-796.474 425.9586,-790.7614 429.3715,-800.7915 434.8814,-796.474"/>
</g>
<!-- Node4&#45;&gt;Node3 -->
<g id="edge5" class="edge">
<title>Node4&#45;&gt;Node3</title>
<path fill="none" stroke="#191970" d="M555.9386,-698.782C547.5211,-688.5414 534.0332,-671.8672 523,-657 415.767,-512.5041 295.5417,-331.3558 257.9086,-274.1629"/>
<polygon fill="#191970" stroke="#191970" points="260.8243,-272.2267 252.4078,-265.7913 254.9742,-276.0707 260.8243,-272.2267"/>
</g>
<!-- Node4&#45;&gt;Node5 -->
<g id="edge6" class="edge">
<title>Node4&#45;&gt;Node5</title>
<path fill="none" stroke="#191970" d="M559.5407,-698.8033C538.8054,-653.7144 451.6445,-464.1833 423.6771,-403.3683"/>
<polygon fill="#191970" stroke="#191970" points="426.7999,-401.7818 419.4419,-394.1589 420.4402,-404.7066 426.7999,-401.7818"/>
</g>
<!-- Node6 -->
<g id="node7" class="node">
<title>Node6</title>
<g id="a_node7"><a xlink:href="discrete__value__rule_8h.html" target="_top" xlink:title="maliput/api/rules/discrete\l_value_rule.h">
<polygon fill="#ffffff" stroke="#000000" points="1099.5,-626.5 1099.5,-656.5 1240.5,-656.5 1240.5,-626.5 1099.5,-626.5"/>
<text text-anchor="start" x="1107.5" y="-644.5" font-family="Helvetica,sans-Serif" font-size="10.00" fill="#000000">maliput/api/rules/discrete</text>
<text text-anchor="middle" x="1170" y="-633.5" font-family="Helvetica,sans-Serif" font-size="10.00" fill="#000000">_value_rule.h</text>
</a>
</g>
</g>
<!-- Node4&#45;&gt;Node6 -->
<g id="edge7" class="edge">
<title>Node4&#45;&gt;Node6</title>
<path fill="none" stroke="#191970" d="M634.1403,-701.0307C726.5077,-691.156 893.9692,-673.1208 1037,-657 1053.8966,-655.0956 1071.9954,-653.0141 1089.2301,-651.0122"/>
<polygon fill="#191970" stroke="#191970" points="1089.7338,-654.4772 1099.2621,-649.8446 1088.9245,-647.5242 1089.7338,-654.4772"/>
</g>
<!-- Node4&#45;&gt;Node16 -->
<g id="edge113" class="edge">
<title>Node4&#45;&gt;Node16</title>
<path fill="none" stroke="#191970" d="M567.9117,-698.9842C586.8442,-653.33 671.9041,-452.7515 766,-302 782.6155,-275.3802 785.9111,-267.2508 809,-246 821.8829,-234.1427 837.813,-223.2752 852.058,-214.6106"/>
<polygon fill="#191970" stroke="#191970" points="853.8471,-217.6189 860.6676,-209.5113 850.2798,-211.596 853.8471,-217.6189"/>
</g>
<!-- Node27 -->
<g id="node28" class="node">
<title>Node27</title>
<g id="a_node28"><a xlink:href="type__specific__identifier_8h.html" target="_top" xlink:title="maliput/api/type_specific\l_identifier.h">
<polygon fill="#ffffff" stroke="#000000" points="898,-369.5 898,-399.5 1038,-399.5 1038,-369.5 898,-369.5"/>
<text text-anchor="start" x="906" y="-387.5" font-family="Helvetica,sans-Serif" font-size="10.00" fill="#000000">maliput/api/type_specific</text>
<text text-anchor="middle" x="968" y="-376.5" font-family="Helvetica,sans-Serif" font-size="10.00" fill="#000000">_identifier.h</text>
</a>
</g>
</g>
<!-- Node4&#45;&gt;Node27 -->
<g id="edge112" class="edge">
<title>Node4&#45;&gt;Node27</title>
<path fill="none" stroke="#191970" d="M634.0817,-699.1994C746.8348,-682.2507 956,-641.747 956,-574.5 956,-574.5 956,-574.5 956,-513 956,-477.1222 960.6948,-435.8529 964.2114,-409.9735"/>
<polygon fill="#191970" stroke="#191970" points="967.7033,-410.2749 965.6292,-399.8851 960.7714,-409.3006 967.7033,-410.2749"/>
</g>
<!-- Node33 -->
<g id="node34" class="node">
<title>Node33</title>
<g id="a_node34"><a xlink:href="rule_8h.html" target="_top" xlink:title="maliput/api/rules/rule.h">
<polygon fill="#ffffff" stroke="#000000" points="1200,-565 1200,-584 1330,-584 1330,-565 1200,-565"/>
<text text-anchor="middle" x="1265" y="-572" font-family="Helvetica,sans-Serif" font-size="10.00" fill="#000000">maliput/api/rules/rule.h</text>
</a>
</g>
</g>
<!-- Node4&#45;&gt;Node33 -->
<g id="edge110" class="edge">
<title>Node4&#45;&gt;Node33</title>
<path fill="none" stroke="#191970" d="M634.1928,-702.7444C715.5361,-695.3491 853.3486,-680.5777 970,-657 1018.8134,-647.1338 1154.0977,-607.5469 1223.2024,-587.0072"/>
<polygon fill="#191970" stroke="#191970" points="1224.3139,-590.3282 1232.8998,-584.1207 1222.3168,-583.6191 1224.3139,-590.3282"/>
</g>
<!-- Node35 -->
<g id="node36" class="node">
<title>Node35</title>
<g id="a_node36"><a xlink:href="right__of__way__rule_8h.html" target="_top" xlink:title="maliput/api/rules/right\l_of_way_rule.h">
<polygon fill="#ffffff" stroke="#000000" points="802.5,-559.5 802.5,-589.5 927.5,-589.5 927.5,-559.5 802.5,-559.5"/>
<text text-anchor="start" x="810.5" y="-577.5" font-family="Helvetica,sans-Serif" font-size="10.00" fill="#000000">maliput/api/rules/right</text>
<text text-anchor="middle" x="865" y="-566.5" font-family="Helvetica,sans-Serif" font-size="10.00" fill="#000000">_of_way_rule.h</text>
</a>
</g>
</g>
<!-- Node4&#45;&gt;Node35 -->
<g id="edge88" class="edge">
<title>Node4&#45;&gt;Node35</title>
<path fill="none" stroke="#191970" d="M585.6472,-698.8631C634.9832,-676.8995 756.5339,-622.7872 821.844,-593.7123"/>
<polygon fill="#191970" stroke="#191970" points="823.3444,-596.8756 831.0566,-589.611 820.4975,-590.4806 823.3444,-596.8756"/>
</g>
<!-- Node36 -->
<g id="node37" class="node">
<title>Node36</title>
<g id="a_node37"><a xlink:href="traffic__lights_8h.html" target="_top" xlink:title="maliput/api/rules/traffic\l_lights.h">
<polygon fill="#ffffff" stroke="#000000" points="1396.5,-436.5 1396.5,-466.5 1527.5,-466.5 1527.5,-436.5 1396.5,-436.5"/>
<text text-anchor="start" x="1404.5" y="-454.5" font-family="Helvetica,sans-Serif" font-size="10.00" fill="#000000">maliput/api/rules/traffic</text>
<text text-anchor="middle" x="1462" y="-443.5" font-family="Helvetica,sans-Serif" font-size="10.00" fill="#000000">_lights.h</text>
</a>
</g>
</g>
<!-- Node4&#45;&gt;Node36 -->
<g id="edge111" class="edge">
<title>Node4&#45;&gt;Node36</title>
<path fill="none" stroke="#191970" d="M634.248,-705.4703C797.6045,-698.1046 1193.4506,-678.2927 1250,-657 1343.5439,-621.7776 1417.5852,-520.98 1447.5593,-474.9436"/>
<polygon fill="#191970" stroke="#191970" points="1450.5188,-476.812 1452.9592,-466.5021 1444.6221,-473.0399 1450.5188,-476.812"/>
</g>
<!-- Node6&#45;&gt;Node7 -->
<g id="edge8" class="edge">
<title>Node6&#45;&gt;Node7</title>
<path fill="none" stroke="#191970" d="M1240.5151,-640.5392C1434.5714,-637.4567 1973.5899,-625.8265 2147,-590 2335.0322,-551.1525 2527,-576.5032 2527,-384.5 2527,-384.5 2527,-384.5 2527,-133 2527,-48.7563 2401.9872,-21.5678 2341.2977,-13.3323"/>
<polygon fill="#191970" stroke="#191970" points="2341.4623,-9.8254 2331.1027,-12.0456 2340.5857,-16.7703 2341.4623,-9.8254"/>
</g>
<!-- Node8 -->
<g id="node9" class="node">
<title>Node8</title>
<polygon fill="#ffffff" stroke="#bfbfbf" points="2413.5,-246.5 2413.5,-265.5 2460.5,-265.5 2460.5,-246.5 2413.5,-246.5"/>
<text text-anchor="middle" x="2437" y="-253.5" font-family="Helvetica,sans-Serif" font-size="10.00" fill="#000000">vector</text>
</g>
<!-- Node6&#45;&gt;Node8 -->
<g id="edge9" class="edge">
<title>Node6&#45;&gt;Node8</title>
<path fill="none" stroke="#191970" d="M1240.7536,-626.8259C1242.5183,-626.5387 1244.2692,-626.2627 1246,-626 1699.1033,-557.2321 1853.0401,-708.7531 2272,-523 2375.5629,-477.0836 2341.4513,-399.5793 2399,-302 2405.0778,-291.6945 2413.4065,-281.3245 2420.7178,-273.046"/>
<polygon fill="#191970" stroke="#191970" points="2423.4095,-275.2887 2427.5689,-265.5445 2418.2408,-270.5681 2423.4095,-275.2887"/>
</g>
<!-- Node9 -->
<g id="node10" class="node">
<title>Node9</title>
<g id="a_node10"><a xlink:href="regions_8h.html" target="_top" xlink:title="maliput/api/regions.h">
<polygon fill="#ffffff" stroke="#000000" points="984,-503.5 984,-522.5 1104,-522.5 1104,-503.5 984,-503.5"/>
<text text-anchor="middle" x="1044" y="-510.5" font-family="Helvetica,sans-Serif" font-size="10.00" fill="#000000">maliput/api/regions.h</text>
</a>
</g>
</g>
<!-- Node6&#45;&gt;Node9 -->
<g id="edge10" class="edge">
<title>Node6&#45;&gt;Node9</title>
<path fill="none" stroke="#191970" d="M1155.0514,-626.2548C1131.405,-602.1393 1085.523,-555.3468 1060.7815,-530.1145"/>
<polygon fill="#191970" stroke="#191970" points="1063.0468,-527.4255 1053.5464,-522.7358 1058.0486,-532.3265 1063.0468,-527.4255"/>
</g>
<!-- Node6&#45;&gt;Node16 -->
<g id="edge87" class="edge">
<title>Node6&#45;&gt;Node16</title>
<path fill="none" stroke="#191970" d="M1099.3909,-636.8512C971.1674,-626.6344 709.0848,-596.9563 664,-523 643.3314,-489.0955 432.8848,-543.7945 685,-246 701.2634,-226.7899 759.1357,-213.3379 809.1051,-205.0115"/>
<polygon fill="#191970" stroke="#191970" points="809.6662,-208.4664 818.979,-203.4144 808.5484,-201.5562 809.6662,-208.4664"/>
</g>
<!-- Node6&#45;&gt;Node33 -->
<g id="edge74" class="edge">
<title>Node6&#45;&gt;Node33</title>
<path fill="none" stroke="#191970" d="M1191.557,-626.2967C1206.9332,-615.4524 1227.5414,-600.9182 1243.0138,-590.006"/>
<polygon fill="#191970" stroke="#191970" points="1245.297,-592.6787 1251.4519,-584.055 1241.2626,-586.9582 1245.297,-592.6787"/>
</g>
<!-- Node9&#45;&gt;Node3 -->
<g id="edge13" class="edge">
<title>Node9&#45;&gt;Node3</title>
<path fill="none" stroke="#191970" d="M983.8944,-508.2148C921.5504,-502.2686 821.6639,-489.9741 738,-467 585.7505,-425.1923 553.544,-396.5204 409,-333 361.4815,-312.1178 307.1227,-285.9764 274.7288,-270.1537"/>
<polygon fill="#191970" stroke="#191970" points="275.9329,-266.8462 265.4126,-265.5917 272.8544,-273.133 275.9329,-266.8462"/>
</g>
<!-- Node9&#45;&gt;Node8 -->
<g id="edge14" class="edge">
<title>Node9&#45;&gt;Node8</title>
<path fill="none" stroke="#191970" d="M1104.1751,-512.5617C1312.2584,-510.7413 1993.6045,-502.1317 2085,-467 2192.5617,-425.6541 2183.4244,-356.4188 2285,-302 2295.5803,-296.3316 2362.1009,-277.0895 2403.5602,-265.3634"/>
<polygon fill="#191970" stroke="#191970" points="2404.5845,-268.7111 2413.2589,-262.628 2402.6843,-261.9739 2404.5845,-268.7111"/>
</g>
<!-- Node10 -->
<g id="node11" class="node">
<title>Node10</title>
<polygon fill="#ffffff" stroke="#bfbfbf" points="1783.5,-185 1783.5,-204 1830.5,-204 1830.5,-185 1783.5,-185"/>
<text text-anchor="middle" x="1807" y="-192" font-family="Helvetica,sans-Serif" font-size="10.00" fill="#000000">cmath</text>
</g>
<!-- Node9&#45;&gt;Node10 -->
<g id="edge11" class="edge">
<title>Node9&#45;&gt;Node10</title>
<path fill="none" stroke="#191970" d="M1104.2458,-507.5344C1231.107,-496.004 1515.8826,-469.9994 1537,-467 1693.8063,-444.7284 1752.3639,-483.4109 1887,-400 1949.5816,-361.2289 1990.1917,-306.3284 1948,-246 1935.4057,-227.9919 1878.2144,-211.3604 1840.6498,-202.1069"/>
<polygon fill="#191970" stroke="#191970" points="1841.1696,-198.6322 1830.6285,-199.6975 1839.5333,-205.4382 1841.1696,-198.6322"/>
</g>
<!-- Node11 -->
<g id="node12" class="node">
<title>Node11</title>
<polygon fill="#ffffff" stroke="#bfbfbf" points="1022,-442 1022,-461 1078,-461 1078,-442 1022,-442"/>
<text text-anchor="middle" x="1050" y="-449" font-family="Helvetica,sans-Serif" font-size="10.00" fill="#000000">numeric</text>
</g>
<!-- Node9&#45;&gt;Node11 -->
<g id="edge12" class="edge">
<title>Node9&#45;&gt;Node11</title>
<path fill="none" stroke="#191970" d="M1044.9375,-503.3906C1045.7692,-494.8657 1047.0108,-482.1392 1048.0562,-471.4235"/>
<polygon fill="#191970" stroke="#191970" points="1051.5617,-471.5375 1049.0493,-461.2449 1044.5947,-470.8577 1051.5617,-471.5375"/>
</g>
<!-- Node12 -->
<g id="node13" class="node">
<title>Node12</title>
<g id="a_node13"><a xlink:href="api_2lane_8h.html" target="_top" xlink:title="maliput/api/lane.h">
<polygon fill="#ffffff" stroke="#000000" points="746.5,-442 746.5,-461 851.5,-461 851.5,-442 746.5,-442"/>
<text text-anchor="middle" x="799" y="-449" font-family="Helvetica,sans-Serif" font-size="10.00" fill="#000000">maliput/api/lane.h</text>
</a>
</g>
</g>
<!-- Node9&#45;&gt;Node12 -->
<g id="edge15" class="edge">
<title>Node9&#45;&gt;Node12</title>
<path fill="none" stroke="#191970" d="M1005.9876,-503.4581C963.1629,-492.7082 893.4792,-475.2162 846.9501,-463.5365"/>
<polygon fill="#191970" stroke="#191970" points="847.6529,-460.1043 837.1016,-461.0643 845.9485,-466.8937 847.6529,-460.1043"/>
</g>
<!-- Node9&#45;&gt;Node16 -->
<g id="edge73" class="edge">
<title>Node9&#45;&gt;Node16</title>
<path fill="none" stroke="#191970" d="M1018.9188,-503.421C982.4919,-487.9695 916.321,-453.7286 889,-400 859.0881,-341.1762 872.4014,-260.073 882.0919,-219.596"/>
<polygon fill="#191970" stroke="#191970" points="885.52,-220.3149 884.5695,-209.7628 878.7322,-218.6045 885.52,-220.3149"/>
</g>
<!-- Node9&#45;&gt;Node27 -->
<g id="edge72" class="edge">
<title>Node9&#45;&gt;Node27</title>
<path fill="none" stroke="#191970" d="M1056.5367,-503.2564C1074.1112,-488.3835 1102.299,-459.2913 1087,-436 1077.4951,-421.5298 1062.9614,-411.1059 1047.2782,-403.603"/>
<polygon fill="#191970" stroke="#191970" points="1048.5048,-400.3194 1037.9406,-399.5145 1045.6971,-406.7316 1048.5048,-400.3194"/>
</g>
<!-- Node12&#45;&gt;Node2 -->
<g id="edge16" class="edge">
<title>Node12&#45;&gt;Node2</title>
<path fill="none" stroke="#191970" d="M851.7467,-447.3774C895.0486,-444.0657 957.976,-439.4195 1013,-436 1321.2645,-416.8429 1400.6091,-438.9689 1707,-400 1719.0883,-398.4625 1732.1269,-396.0752 1743.9335,-393.6311"/>
<polygon fill="#191970" stroke="#191970" points="1744.8918,-397.0053 1753.937,-391.4884 1743.4257,-390.1605 1744.8918,-397.0053"/>
</g>
<!-- Node12&#45;&gt;Node3 -->
<g id="edge17" class="edge">
<title>Node12&#45;&gt;Node3</title>
<path fill="none" stroke="#191970" d="M774.1973,-441.9209C691.2281,-409.8864 427.5381,-308.1548 409,-302 366.6394,-287.936 317.2044,-274.3772 283.9785,-265.6693"/>
<polygon fill="#191970" stroke="#191970" points="284.7724,-262.2594 274.2132,-263.1275 283.009,-269.0337 284.7724,-262.2594"/>
</g>
<!-- Node12&#45;&gt;Node7 -->
<g id="edge18" class="edge">
<title>Node12&#45;&gt;Node7</title>
<path fill="none" stroke="#191970" d="M780.4255,-441.9104C711.0392,-405.4776 471,-273.7151 471,-194.5 471,-194.5 471,-194.5 471,-133 471,50.661 694.4444,-76.1201 877,-56 1161.3811,-24.6574 2090.9935,-12.4995 2276.5888,-10.3562"/>
<polygon fill="#191970" stroke="#191970" points="2276.824,-13.8538 2286.7834,-10.2399 2276.7441,-6.8543 2276.824,-13.8538"/>
</g>
<!-- Node13 -->
<g id="node14" class="node">
<title>Node13</title>
<g id="a_node14"><a xlink:href="lane__data_8h.html" target="_top" xlink:title="maliput/api/lane_data.h">
<polygon fill="#ffffff" stroke="#000000" points="1396,-375 1396,-394 1528,-394 1528,-375 1396,-375"/>
<text text-anchor="middle" x="1462" y="-382" font-family="Helvetica,sans-Serif" font-size="10.00" fill="#000000">maliput/api/lane_data.h</text>
</a>
</g>
</g>
<!-- Node12&#45;&gt;Node13 -->
<g id="edge19" class="edge">
<title>Node12&#45;&gt;Node13</title>
<path fill="none" stroke="#191970" d="M851.7879,-447.3164C949.8657,-439.3747 1166.7921,-421.0174 1349,-400 1360.9104,-398.6262 1373.5078,-397.0351 1385.8011,-395.4065"/>
<polygon fill="#191970" stroke="#191970" points="1386.5884,-398.8324 1396.0341,-394.0336 1385.6575,-391.8945 1386.5884,-398.8324"/>
</g>
<!-- Node12&#45;&gt;Node16 -->
<g id="edge70" class="edge">
<title>Node12&#45;&gt;Node16</title>
<path fill="none" stroke="#191970" d="M800.7083,-441.8238C807.7982,-401.7209 834.6462,-250.4499 837,-246 842.8356,-234.9677 851.8486,-224.8195 860.7416,-216.5011"/>
<polygon fill="#191970" stroke="#191970" points="863.2736,-218.9342 868.4428,-209.6859 858.6346,-213.692 863.2736,-218.9342"/>
</g>
<!-- Node12&#45;&gt;Node17 -->
<g id="edge71" class="edge">
<title>Node12&#45;&gt;Node17</title>
<path fill="none" stroke="#191970" d="M795.8885,-441.9417C784.6061,-405.5137 748.7714,-272.7198 793,-179 809.7093,-143.5932 825.3994,-139.2923 861,-123 899.3509,-105.449 1006.2994,-89.8211 1081.7634,-80.5054"/>
<polygon fill="#191970" stroke="#191970" points="1082.2262,-83.975 1091.7285,-79.2892 1081.3781,-77.0265 1082.2262,-83.975"/>
</g>
<!-- Node12&#45;&gt;Node27 -->
<g id="edge51" class="edge">
<title>Node12&#45;&gt;Node27</title>
<path fill="none" stroke="#191970" d="M823.2136,-441.9005C848.5238,-431.8663 888.891,-415.8627 920.5797,-403.2997"/>
<polygon fill="#191970" stroke="#191970" points="922.1031,-406.4609 930.1093,-399.5218 919.5232,-399.9536 922.1031,-406.4609"/>
</g>
<!-- Node13&#45;&gt;Node7 -->
<g id="edge22" class="edge">
<title>Node13&#45;&gt;Node7</title>
<path fill="none" stroke="#191970" d="M1503.4904,-374.9492C1514.3478,-372.7185 1526.0731,-370.5458 1537,-369 1742.2416,-339.9657 1800.1503,-380.1575 2002,-333 2082.4476,-314.2053 2347,-277.1139 2347,-194.5 2347,-194.5 2347,-194.5 2347,-133 2347,-94.6461 2329.9248,-52.4423 2318.6666,-28.7843"/>
<polygon fill="#191970" stroke="#191970" points="2321.6861,-26.9938 2314.1248,-19.5723 2315.4077,-30.0892 2321.6861,-26.9938"/>
</g>
<!-- Node14 -->
<g id="node15" class="node">
<title>Node14</title>
<polygon fill="#ffffff" stroke="#bfbfbf" points="1209.5,-246.5 1209.5,-265.5 1274.5,-265.5 1274.5,-246.5 1209.5,-246.5"/>
<text text-anchor="middle" x="1242" y="-253.5" font-family="Helvetica,sans-Serif" font-size="10.00" fill="#000000">functional</text>
</g>
<!-- Node13&#45;&gt;Node14 -->
<g id="edge20" class="edge">
<title>Node13&#45;&gt;Node14</title>
<path fill="none" stroke="#191970" d="M1429.0791,-374.9927C1401.6869,-366.2935 1362.2619,-351.9055 1331,-333 1303.0541,-316.0998 1275.3087,-290.2848 1258.4085,-273.2764"/>
<polygon fill="#191970" stroke="#191970" points="1260.5179,-270.4265 1251.0299,-265.7119 1255.507,-275.3143 1260.5179,-270.4265"/>
</g>
<!-- Node15 -->
<g id="node16" class="node">
<title>Node15</title>
<polygon fill="#ffffff" stroke="#bfbfbf" points="1483.5,-185 1483.5,-204 1540.5,-204 1540.5,-185 1483.5,-185"/>
<text text-anchor="middle" x="1512" y="-192" font-family="Helvetica,sans-Serif" font-size="10.00" fill="#000000">ostream</text>
</g>
<!-- Node13&#45;&gt;Node15 -->
<g id="edge21" class="edge">
<title>Node13&#45;&gt;Node15</title>
<path fill="none" stroke="#191970" d="M1456.7882,-374.8041C1444.9172,-351.2991 1418.5696,-289.9798 1441,-246 1449.3076,-229.7111 1465.4427,-217.3724 1480.2344,-208.8618"/>
<polygon fill="#191970" stroke="#191970" points="1482.0324,-211.8691 1489.1887,-204.0564 1478.7223,-205.7012 1482.0324,-211.8691"/>
</g>
<!-- Node13&#45;&gt;Node16 -->
<g id="edge23" class="edge">
<title>Node13&#45;&gt;Node16</title>
<path fill="none" stroke="#191970" d="M1440.618,-374.8756C1421.044,-365.5649 1391.7497,-350.3439 1369,-333 1326.0104,-300.2256 1332.3585,-270.1605 1284,-246 1230.3942,-219.2179 1068.3535,-205.0957 969.2524,-198.7663"/>
<polygon fill="#191970" stroke="#191970" points="969.4708,-195.2732 959.2717,-198.1416 969.0334,-202.2595 969.4708,-195.2732"/>
</g>
<!-- Node13&#45;&gt;Node17 -->
<g id="edge24" class="edge">
<title>Node13&#45;&gt;Node17</title>
<path fill="none" stroke="#191970" d="M1452.6926,-374.7893C1411.3409,-331.6456 1243.6668,-156.7057 1183.5662,-94.0007"/>
<polygon fill="#191970" stroke="#191970" points="1185.9097,-91.3876 1176.4633,-86.59 1180.8561,-96.2313 1185.9097,-91.3876"/>
</g>
<!-- Node18 -->
<g id="node19" class="node">
<title>Node18</title>
<g id="a_node19"><a xlink:href="matrix_8h.html" target="_top" xlink:title="maliput/math/matrix.h">
<polygon fill="#ffffff" stroke="#000000" points="2001.5,-185 2001.5,-204 2128.5,-204 2128.5,-185 2001.5,-185"/>
<text text-anchor="middle" x="2065" y="-192" font-family="Helvetica,sans-Serif" font-size="10.00" fill="#000000">maliput/math/matrix.h</text>
</a>
</g>
</g>
<!-- Node13&#45;&gt;Node18 -->
<g id="edge26" class="edge">
<title>Node13&#45;&gt;Node18</title>
<path fill="none" stroke="#191970" d="M1503.4963,-374.9903C1514.3536,-372.7591 1526.0774,-370.5758 1537,-369 1632.784,-355.1815 1887.4345,-381.8093 1971,-333 2017.6893,-305.7295 2046.1657,-244.9374 2058.2402,-213.7568"/>
<polygon fill="#191970" stroke="#191970" points="2061.6383,-214.6593 2061.83,-204.0662 2055.0742,-212.2276 2061.6383,-214.6593"/>
</g>
<!-- Node24 -->
<g id="node25" class="node">
<title>Node24</title>
<g id="a_node25"><a xlink:href="vector_8h.html" target="_top" xlink:title="maliput/math/vector.h">
<polygon fill="#ffffff" stroke="#000000" points="1813.5,-123.5 1813.5,-142.5 1938.5,-142.5 1938.5,-123.5 1813.5,-123.5"/>
<text text-anchor="middle" x="1876" y="-130.5" font-family="Helvetica,sans-Serif" font-size="10.00" fill="#000000">maliput/math/vector.h</text>
</a>
</g>
</g>
<!-- Node13&#45;&gt;Node24 -->
<g id="edge50" class="edge">
<title>Node13&#45;&gt;Node24</title>
<path fill="none" stroke="#191970" d="M1503.8965,-374.9604C1514.6432,-372.7562 1526.2143,-370.5933 1537,-369 1625.5089,-355.9248 1866.8615,-387.2595 1938,-333 1969.9886,-308.6013 1974.117,-284.665 1963,-246 1951.4736,-205.9112 1917.4379,-169.6467 1895.5123,-149.5357"/>
<polygon fill="#191970" stroke="#191970" points="1897.5699,-146.6814 1887.7743,-142.6446 1892.9145,-151.909 1897.5699,-146.6814"/>
</g>
<!-- Node25 -->
<g id="node26" class="node">
<title>Node25</title>
<g id="a_node26"><a xlink:href="quaternion_8h.html" target="_top" xlink:title="Code in this file is inspired by: https://gitlab.com/libeigen/eigen/&#45;/blob/master/Eigen/src/Geometry/...">
<polygon fill="#ffffff" stroke="#000000" points="1791.5,-246.5 1791.5,-265.5 1938.5,-265.5 1938.5,-246.5 1791.5,-246.5"/>
<text text-anchor="middle" x="1865" y="-253.5" font-family="Helvetica,sans-Serif" font-size="10.00" fill="#000000">maliput/math/quaternion.h</text>
</a>
</g>
</g>
<!-- Node13&#45;&gt;Node25 -->
<g id="edge39" class="edge">
<title>Node13&#45;&gt;Node25</title>
<path fill="none" stroke="#191970" d="M1504.5676,-374.929C1556.9568,-363.0153 1642.8066,-343.0183 1674,-333 1732.1214,-314.3334 1797.6773,-286.3141 1834.8961,-269.7215"/>
<polygon fill="#191970" stroke="#191970" points="1836.4778,-272.848 1844.1695,-265.5618 1833.6129,-266.4611 1836.4778,-272.848"/>
</g>
<!-- Node26 -->
<g id="node27" class="node">
<title>Node26</title>
<g id="a_node27"><a xlink:href="roll__pitch__yaw_8h.html" target="_top" xlink:title="Code in this file is inspired by: https://github.com/RobotLocomotion/drake/blob/master/math/roll_pitc...">
<polygon fill="#ffffff" stroke="#000000" points="1797.5,-302.5 1797.5,-332.5 1928.5,-332.5 1928.5,-302.5 1797.5,-302.5"/>
<text text-anchor="start" x="1805.5" y="-320.5" font-family="Helvetica,sans-Serif" font-size="10.00" fill="#000000">maliput/math/roll_pitch</text>
<text text-anchor="middle" x="1863" y="-309.5" font-family="Helvetica,sans-Serif" font-size="10.00" fill="#000000">_yaw.h</text>
</a>
</g>
</g>
<!-- Node13&#45;&gt;Node26 -->
<g id="edge45" class="edge">
<title>Node13&#45;&gt;Node26</title>
<path fill="none" stroke="#191970" d="M1506.35,-374.9738C1516.41,-372.9135 1527.0587,-370.8115 1537,-369 1622.5214,-353.4166 1721.1711,-338.2164 1787.3534,-328.4182"/>
<polygon fill="#191970" stroke="#191970" points="1787.9011,-331.8753 1797.2828,-326.9526 1786.8789,-324.9504 1787.9011,-331.8753"/>
</g>
<!-- Node17&#45;&gt;Node7 -->
<g id="edge25" class="edge">
<title>Node17&#45;&gt;Node7</title>
<path fill="none" stroke="#191970" d="M1232.0234,-67.7455C1451.4679,-55.9793 2120.443,-20.1101 2276.3007,-11.7533"/>
<polygon fill="#191970" stroke="#191970" points="2276.8243,-15.2303 2286.6225,-11.1998 2276.4494,-8.2404 2276.8243,-15.2303"/>
</g>
<!-- Node19 -->
<g id="node20" class="node">
<title>Node19</title>
<polygon fill="#ffffff" stroke="#bfbfbf" points="1659,-62 1659,-81 1723,-81 1723,-62 1659,-62"/>
<text text-anchor="middle" x="1691" y="-69" font-family="Helvetica,sans-Serif" font-size="10.00" fill="#000000">algorithm</text>
</g>
<!-- Node18&#45;&gt;Node19 -->
<g id="edge27" class="edge">
<title>Node18&#45;&gt;Node19</title>
<path fill="none" stroke="#191970" d="M2049.4383,-184.9423C2017.9139,-165.587 1949.3646,-123.5343 1948,-123 1875.6528,-94.6759 1785.4916,-81.225 1733.4593,-75.4072"/>
<polygon fill="#191970" stroke="#191970" points="1733.5833,-71.9004 1723.2664,-74.311 1732.8348,-78.8603 1733.5833,-71.9004"/>
</g>
<!-- Node20 -->
<g id="node21" class="node">
<title>Node20</title>
<polygon fill="#ffffff" stroke="#bfbfbf" points="1864,-62 1864,-81 1906,-81 1906,-62 1864,-62"/>
<text text-anchor="middle" x="1885" y="-69" font-family="Helvetica,sans-Serif" font-size="10.00" fill="#000000">array</text>
</g>
<!-- Node18&#45;&gt;Node20 -->
<g id="edge28" class="edge">
<title>Node18&#45;&gt;Node20</title>
<path fill="none" stroke="#191970" d="M2055.2184,-184.9555C2040.101,-170.496 2009.7908,-142.6456 1981,-123 1959.9213,-108.6168 1934.3953,-95.0895 1914.9648,-85.5111"/>
<polygon fill="#191970" stroke="#191970" points="1916.4865,-82.3592 1905.962,-81.1397 1913.4289,-88.6562 1916.4865,-82.3592"/>
</g>
<!-- Node21 -->
<g id="node22" class="node">
<title>Node21</title>
<polygon fill="#ffffff" stroke="#bfbfbf" points="2054.5,-62 2054.5,-81 2107.5,-81 2107.5,-62 2054.5,-62"/>
<text text-anchor="middle" x="2081" y="-69" font-family="Helvetica,sans-Serif" font-size="10.00" fill="#000000">cstddef</text>
</g>
<!-- Node18&#45;&gt;Node21 -->
<g id="edge29" class="edge">
<title>Node18&#45;&gt;Node21</title>
<path fill="none" stroke="#191970" d="M2066.2555,-184.8484C2068.8726,-164.7295 2074.9563,-117.9608 2078.4361,-91.2098"/>
<polygon fill="#191970" stroke="#191970" points="2081.9311,-91.4747 2079.7503,-81.1068 2074.9895,-90.5717 2081.9311,-91.4747"/>
</g>
<!-- Node22 -->
<g id="node23" class="node">
<title>Node22</title>
<polygon fill="#ffffff" stroke="#bfbfbf" points="1934.5,-62 1934.5,-81 2017.5,-81 2017.5,-62 1934.5,-62"/>
<text text-anchor="middle" x="1976" y="-69" font-family="Helvetica,sans-Serif" font-size="10.00" fill="#000000">initializer_list</text>
</g>
<!-- Node18&#45;&gt;Node22 -->
<g id="edge30" class="edge">
<title>Node18&#45;&gt;Node22</title>
<path fill="none" stroke="#191970" d="M2059.4041,-184.9976C2051.0825,-171.0608 2034.7318,-144.4101 2019,-123 2010.3583,-111.2392 1999.8751,-98.6539 1991.4231,-88.8685"/>
<polygon fill="#191970" stroke="#191970" points="1993.8324,-86.3066 1984.6158,-81.0811 1988.562,-90.9136 1993.8324,-86.3066"/>
</g>
<!-- Node23 -->
<g id="node24" class="node">
<title>Node23</title>
<polygon fill="#ffffff" stroke="#bfbfbf" points="2127,-62 2127,-81 2187,-81 2187,-62 2127,-62"/>
<text text-anchor="middle" x="2157" y="-69" font-family="Helvetica,sans-Serif" font-size="10.00" fill="#000000">iostream</text>
</g>
<!-- Node18&#45;&gt;Node23 -->
<g id="edge31" class="edge">
<title>Node18&#45;&gt;Node23</title>
<path fill="none" stroke="#191970" d="M2072.2191,-184.8484C2087.6033,-164.2804 2123.8204,-115.8596 2143.5748,-89.4489"/>
<polygon fill="#191970" stroke="#191970" points="2146.6276,-91.211 2149.8144,-81.1068 2141.0221,-87.0182 2146.6276,-91.211"/>
</g>
<!-- Node18&#45;&gt;Node24 -->
<g id="edge32" class="edge">
<title>Node18&#45;&gt;Node24</title>
<path fill="none" stroke="#191970" d="M2035.4688,-184.8906C2003.0134,-174.3298 1950.7419,-157.3208 1914.9514,-145.6747"/>
<polygon fill="#191970" stroke="#191970" points="1915.9161,-142.308 1905.3239,-142.5419 1913.7501,-148.9645 1915.9161,-142.308"/>
</g>
<!-- Node24&#45;&gt;Node17 -->
<g id="edge38" class="edge">
<title>Node24&#45;&gt;Node17</title>
<path fill="none" stroke="#191970" d="M1813.263,-127.5962C1683.4937,-116.4186 1385.7416,-90.7719 1242.2308,-78.4106"/>
<polygon fill="#191970" stroke="#191970" points="1242.4325,-74.9151 1232.169,-77.544 1241.8317,-81.8893 1242.4325,-74.9151"/>
</g>
<!-- Node24&#45;&gt;Node19 -->
<g id="edge33" class="edge">
<title>Node24&#45;&gt;Node19</title>
<path fill="none" stroke="#191970" d="M1847.0938,-123.3906C1815.461,-112.8749 1764.597,-95.966 1729.5771,-84.3243"/>
<polygon fill="#191970" stroke="#191970" points="1730.2968,-80.8753 1719.7033,-81.0419 1728.0885,-87.5178 1730.2968,-80.8753"/>
</g>
<!-- Node24&#45;&gt;Node20 -->
<g id="edge34" class="edge">
<title>Node24&#45;&gt;Node20</title>
<path fill="none" stroke="#191970" d="M1877.4063,-123.3906C1878.6538,-114.8657 1880.5162,-102.1392 1882.0844,-91.4235"/>
<polygon fill="#191970" stroke="#191970" points="1885.589,-91.6463 1883.5739,-81.2449 1878.6627,-90.6326 1885.589,-91.6463"/>
</g>
<!-- Node24&#45;&gt;Node21 -->
<g id="edge35" class="edge">
<title>Node24&#45;&gt;Node21</title>
<path fill="none" stroke="#191970" d="M1908.0313,-123.3906C1945.0385,-112.2884 2005.7994,-94.0602 2044.5743,-82.4277"/>
<polygon fill="#191970" stroke="#191970" points="2045.8375,-85.7029 2054.41,-79.477 2043.826,-78.9982 2045.8375,-85.7029"/>
</g>
<!-- Node24&#45;&gt;Node22 -->
<g id="edge36" class="edge">
<title>Node24&#45;&gt;Node22</title>
<path fill="none" stroke="#191970" d="M1891.625,-123.3906C1907.7698,-113.4616 1933.1822,-97.833 1951.9023,-86.3201"/>
<polygon fill="#191970" stroke="#191970" points="1953.8002,-89.2619 1960.4847,-81.0419 1950.1331,-83.2992 1953.8002,-89.2619"/>
</g>
<!-- Node24&#45;&gt;Node23 -->
<g id="edge37" class="edge">
<title>Node24&#45;&gt;Node23</title>
<path fill="none" stroke="#191970" d="M1938.6417,-124.2322C1987.717,-116.6014 2057.4224,-104.0766 2117,-87 2119.5952,-86.2561 2122.2576,-85.4121 2124.9159,-84.5113"/>
<polygon fill="#191970" stroke="#191970" points="2126.188,-87.7731 2134.3987,-81.0772 2123.8045,-81.1914 2126.188,-87.7731"/>
</g>
<!-- Node25&#45;&gt;Node10 -->
<g id="edge40" class="edge">
<title>Node25&#45;&gt;Node10</title>
<path fill="none" stroke="#191970" d="M1855.9375,-246.3906C1847.2207,-237.1478 1833.846,-222.966 1823.2804,-211.7628"/>
<polygon fill="#191970" stroke="#191970" points="1825.5976,-209.1186 1816.1903,-204.2449 1820.505,-213.9213 1825.5976,-209.1186"/>
</g>
<!-- Node25&#45;&gt;Node15 -->
<g id="edge41" class="edge">
<title>Node25&#45;&gt;Node15</title>
<path fill="none" stroke="#191970" d="M1810.2311,-246.4581C1738.1382,-233.898 1613.2156,-212.1339 1550.4019,-201.1904"/>
<polygon fill="#191970" stroke="#191970" points="1550.961,-197.7352 1540.5087,-199.4668 1549.7595,-204.6313 1550.961,-197.7352"/>
</g>
<!-- Node25&#45;&gt;Node16 -->
<g id="edge42" class="edge">
<title>Node25&#45;&gt;Node16</title>
<path fill="none" stroke="#191970" d="M1791.3953,-249.9259C1774.2058,-248.5719 1755.965,-247.187 1739,-246 1456.2526,-226.216 1120.2767,-207.1804 969.3802,-198.8683"/>
<polygon fill="#191970" stroke="#191970" points="969.4519,-195.3671 959.2748,-198.3125 969.0674,-202.3565 969.4519,-195.3671"/>
</g>
<!-- Node25&#45;&gt;Node18 -->
<g id="edge43" class="edge">
<title>Node25&#45;&gt;Node18</title>
<path fill="none" stroke="#191970" d="M1896.25,-246.3906C1930.7411,-235.7846 1986.3812,-218.6753 2024.2662,-207.0257"/>
<polygon fill="#191970" stroke="#191970" points="2025.4399,-210.3266 2033.9694,-204.0419 2023.3824,-203.6357 2025.4399,-210.3266"/>
</g>
<!-- Node25&#45;&gt;Node24 -->
<g id="edge44" class="edge">
<title>Node25&#45;&gt;Node24</title>
<path fill="none" stroke="#191970" d="M1865.8632,-246.3484C1867.6624,-226.2295 1871.845,-179.4608 1874.2373,-152.7098"/>
<polygon fill="#191970" stroke="#191970" points="1877.7361,-152.8788 1875.1409,-142.6068 1870.7639,-152.2552 1877.7361,-152.8788"/>
</g>
<!-- Node26&#45;&gt;Node16 -->
<g id="edge46" class="edge">
<title>Node26&#45;&gt;Node16</title>
<path fill="none" stroke="#191970" d="M1837.672,-302.4438C1807.4844,-285.3489 1754.9576,-258.2483 1706,-246 1568.0481,-211.487 1146.5382,-199.4623 969.0812,-195.857"/>
<polygon fill="#191970" stroke="#191970" points="969.0941,-192.3567 959.0262,-195.6565 968.9544,-199.3553 969.0941,-192.3567"/>
</g>
<!-- Node26&#45;&gt;Node18 -->
<g id="edge47" class="edge">
<title>Node26&#45;&gt;Node18</title>
<path fill="none" stroke="#191970" d="M1905.4583,-302.4732C1928.6143,-293.428 1957.303,-280.8025 1981,-266 2006.1734,-250.2753 2031.654,-227.3842 2047.8433,-211.7673"/>
<polygon fill="#191970" stroke="#191970" points="2050.7257,-213.8426 2055.4115,-204.3403 2045.8227,-208.8464 2050.7257,-213.8426"/>
</g>
<!-- Node26&#45;&gt;Node24 -->
<g id="edge49" class="edge">
<title>Node26&#45;&gt;Node24</title>
<path fill="none" stroke="#191970" d="M1905.3159,-302.4897C1921.6807,-294.3701 1938.6844,-282.5362 1948,-266 1952.3629,-258.2555 1950.8109,-254.4327 1948,-246 1941.6754,-227.0263 1932.0638,-226.6611 1921,-210 1908.0904,-190.5594 1894.7838,-167.3201 1886.0224,-151.4936"/>
<polygon fill="#191970" stroke="#191970" points="1889.0759,-149.7827 1881.1987,-142.6975 1882.9382,-153.1485 1889.0759,-149.7827"/>
</g>
<!-- Node26&#45;&gt;Node25 -->
<g id="edge48" class="edge">
<title>Node26&#45;&gt;Node25</title>
<path fill="none" stroke="#191970" d="M1863.4944,-302.2977C1863.7518,-294.3834 1864.0698,-284.6043 1864.3471,-276.0759"/>
<polygon fill="#191970" stroke="#191970" points="1867.8528,-275.9554 1864.6798,-265.8469 1860.8565,-275.7279 1867.8528,-275.9554"/>
</g>
<!-- Node27&#45;&gt;Node7 -->
<g id="edge53" class="edge">
<title>Node27&#45;&gt;Node7</title>
<path fill="none" stroke="#191970" d="M911.8288,-369.3953C888.7863,-361.2597 862.9079,-349.4394 843,-333 770.4831,-273.1173 739.6261,-176.4595 817,-123 917.3022,-53.6987 962.3145,-73.2688 1083,-56 1323.224,-21.6264 2107.1179,-12 2276.5307,-10.2992"/>
<polygon fill="#191970" stroke="#191970" points="2276.6062,-13.7987 2286.5713,-10.2005 2276.5374,-6.7991 2276.6062,-13.7987"/>
</g>
<!-- Node27&#45;&gt;Node14 -->
<g id="edge52" class="edge">
<title>Node27&#45;&gt;Node14</title>
<path fill="none" stroke="#191970" d="M1000.237,-369.3816C1053.7953,-344.2639 1160.3395,-294.297 1212.2234,-269.9646"/>
<polygon fill="#191970" stroke="#191970" points="1213.9774,-273.0078 1221.5451,-265.5929 1211.0051,-266.6702 1213.9774,-273.0078"/>
</g>
<!-- Node27&#45;&gt;Node16 -->
<g id="edge55" class="edge">
<title>Node27&#45;&gt;Node16</title>
<path fill="none" stroke="#191970" d="M960.3317,-369.3968C949.1642,-347.1028 928.1126,-303.9254 913,-266 906.9359,-250.7821 901.0669,-233.3617 896.6506,-219.5261"/>
<polygon fill="#191970" stroke="#191970" points="899.913,-218.2324 893.5775,-209.7405 893.2346,-220.3298 899.913,-218.2324"/>
</g>
<!-- Node27&#45;&gt;Node17 -->
<g id="edge69" class="edge">
<title>Node27&#45;&gt;Node17</title>
<path fill="none" stroke="#191970" d="M940.5031,-369.434C882.3762,-335.6542 756.585,-251.1633 810,-179 842.4609,-135.1456 988.26,-101.9619 1081.7358,-84.7282"/>
<polygon fill="#191970" stroke="#191970" points="1082.5257,-88.142 1091.7374,-82.9081 1081.2723,-81.2551 1082.5257,-88.142"/>
</g>
<!-- Node28 -->
<g id="node29" class="node">
<title>Node28</title>
<polygon fill="#ffffff" stroke="#bfbfbf" points="993.5,-246.5 993.5,-265.5 1038.5,-265.5 1038.5,-246.5 993.5,-246.5"/>
<text text-anchor="middle" x="1016" y="-253.5" font-family="Helvetica,sans-Serif" font-size="10.00" fill="#000000">utility</text>
</g>
<!-- Node27&#45;&gt;Node28 -->
<g id="edge54" class="edge">
<title>Node27&#45;&gt;Node28</title>
<path fill="none" stroke="#191970" d="M973.6947,-369.2548C982.4689,-345.7656 999.2795,-300.7623 1008.8566,-275.1235"/>
<polygon fill="#191970" stroke="#191970" points="1012.1427,-276.3283 1012.3633,-265.7358 1005.5852,-273.8788 1012.1427,-276.3283"/>
</g>
<!-- Node29 -->
<g id="node30" class="node">
<title>Node29</title>
<g id="a_node30"><a xlink:href="maliput__hash_8h.html" target="_top" xlink:title="Code in this file is inspired by: https://github.com/RobotLocomotion/drake/blob/master/common/hash.h. ">
<polygon fill="#ffffff" stroke="#000000" points="1525,-302.5 1525,-332.5 1665,-332.5 1665,-302.5 1525,-302.5"/>
<text text-anchor="start" x="1533" y="-320.5" font-family="Helvetica,sans-Serif" font-size="10.00" fill="#000000">maliput/common/maliput</text>
<text text-anchor="middle" x="1595" y="-309.5" font-family="Helvetica,sans-Serif" font-size="10.00" fill="#000000">_hash.h</text>
</a>
</g>
</g>
<!-- Node27&#45;&gt;Node29 -->
<g id="edge56" class="edge">
<title>Node27&#45;&gt;Node29</title>
<path fill="none" stroke="#191970" d="M1038.0998,-377.0093C1155.4342,-364.4711 1390.8886,-339.311 1514.7003,-326.0807"/>
<polygon fill="#191970" stroke="#191970" points="1515.301,-329.5365 1524.8724,-324.9937 1514.5571,-322.5761 1515.301,-329.5365"/>
</g>
<!-- Node29&#45;&gt;Node3 -->
<g id="edge62" class="edge">
<title>Node29&#45;&gt;Node3</title>
<path fill="none" stroke="#191970" d="M1524.8426,-314.3016C1280.2694,-303.1516 470.0803,-266.2157 284.2262,-257.7427"/>
<polygon fill="#191970" stroke="#191970" points="284.266,-254.241 274.117,-257.2818 283.9472,-261.2337 284.266,-254.241"/>
</g>
<!-- Node29&#45;&gt;Node7 -->
<g id="edge64" class="edge">
<title>Node29&#45;&gt;Node7</title>
<path fill="none" stroke="#191970" d="M1665.1072,-311.4001C1788.0581,-300.4823 2033.1684,-277.6557 2071,-266 2121.5444,-250.4276 2138.7095,-247.5054 2176,-210 2230.5265,-155.1593 2209.257,-116.8378 2257,-56 2265.72,-44.8883 2277.3531,-34.3104 2287.405,-26.1061"/>
<polygon fill="#191970" stroke="#191970" points="2289.6969,-28.7561 2295.378,-19.8132 2285.36,-23.2614 2289.6969,-28.7561"/>
</g>
<!-- Node29&#45;&gt;Node8 -->
<g id="edge67" class="edge">
<title>Node29&#45;&gt;Node8</title>
<path fill="none" stroke="#191970" d="M1665.0291,-311.7543C1701.9091,-308.7665 1747.8956,-305.1009 1789,-302 2023.9895,-284.2722 2307.0685,-264.8389 2403.1897,-258.2941"/>
<polygon fill="#191970" stroke="#191970" points="2403.7172,-261.7664 2413.4566,-257.5956 2403.2421,-254.7825 2403.7172,-261.7664"/>
</g>
<!-- Node29&#45;&gt;Node10 -->
<g id="edge57" class="edge">
<title>Node29&#45;&gt;Node10</title>
<path fill="none" stroke="#191970" d="M1631.8339,-302.4168C1653.8546,-292.9113 1682.1052,-279.8472 1706,-266 1735.4695,-248.9223 1767.1744,-225.5748 1787.0437,-210.2729"/>
<polygon fill="#191970" stroke="#191970" points="1789.2952,-212.9559 1795.0415,-204.0547 1784.9985,-207.4297 1789.2952,-212.9559"/>
</g>
<!-- Node29&#45;&gt;Node14 -->
<g id="edge59" class="edge">
<title>Node29&#45;&gt;Node14</title>
<path fill="none" stroke="#191970" d="M1524.8365,-305.276C1453.3283,-292.8178 1344.6939,-273.8914 1285.0133,-263.4938"/>
<polygon fill="#191970" stroke="#191970" points="1285.2638,-259.9848 1274.8115,-261.7164 1284.0623,-266.8809 1285.2638,-259.9848"/>
</g>
<!-- Node29&#45;&gt;Node17 -->
<g id="edge68" class="edge">
<title>Node29&#45;&gt;Node17</title>
<path fill="none" stroke="#191970" d="M1568.0156,-302.4548C1551.369,-292.765 1529.86,-279.4945 1512,-266 1436.6949,-209.1019 1437.84,-168.2304 1355,-123 1320.2223,-104.0115 1278.0427,-91.714 1241.9962,-83.9174"/>
<polygon fill="#191970" stroke="#191970" points="1242.5068,-80.4487 1232.0032,-81.8359 1241.0793,-87.3016 1242.5068,-80.4487"/>
</g>
<!-- Node29&#45;&gt;Node21 -->
<g id="edge58" class="edge">
<title>Node29&#45;&gt;Node21</title>
<path fill="none" stroke="#191970" d="M1665.1849,-310.2305C1736.8014,-302.1199 1850.9012,-287.2798 1948,-266 1958.7494,-263.6442 2131.4098,-218.8129 2138,-210 2166.9122,-171.3366 2123.9017,-115.9014 2098.088,-88.3611"/>
<polygon fill="#191970" stroke="#191970" points="2100.4994,-85.8198 2091.032,-81.0638 2095.4671,-90.6857 2100.4994,-85.8198"/>
</g>
<!-- Node29&#45;&gt;Node23 -->
<g id="edge60" class="edge">
<title>Node29&#45;&gt;Node23</title>
<path fill="none" stroke="#191970" d="M1665.1663,-313.1659C1746.4053,-307.0904 1883.8138,-293.5425 1999,-266 2071.0525,-248.7713 2113.0937,-270.3941 2156,-210 2181.3149,-174.3672 2171.1834,-119.5066 2163.1805,-90.6903"/>
<polygon fill="#191970" stroke="#191970" points="2166.5074,-89.5987 2160.2959,-81.0157 2159.7992,-91.5989 2166.5074,-89.5987"/>
</g>
<!-- Node29&#45;&gt;Node28 -->
<g id="edge66" class="edge">
<title>Node29&#45;&gt;Node28</title>
<path fill="none" stroke="#191970" d="M1524.8708,-310.051C1399.1805,-296.7005 1140.1453,-269.1864 1048.7797,-259.4818"/>
<polygon fill="#191970" stroke="#191970" points="1049.0481,-255.9907 1038.7344,-258.4148 1048.3087,-262.9515 1049.0481,-255.9907"/>
</g>
<!-- Node30 -->
<g id="node31" class="node">
<title>Node30</title>
<polygon fill="#ffffff" stroke="#bfbfbf" points="1521,-246.5 1521,-265.5 1559,-265.5 1559,-246.5 1521,-246.5"/>
<text text-anchor="middle" x="1540" y="-253.5" font-family="Helvetica,sans-Serif" font-size="10.00" fill="#000000">map</text>
</g>
<!-- Node29&#45;&gt;Node30 -->
<g id="edge61" class="edge">
<title>Node29&#45;&gt;Node30</title>
<path fill="none" stroke="#191970" d="M1581.4045,-302.2977C1573.6109,-293.5831 1563.7953,-282.6075 1555.6774,-273.5302"/>
<polygon fill="#191970" stroke="#191970" points="1558.0813,-270.9678 1548.8062,-265.8469 1552.8635,-275.6341 1558.0813,-270.9678"/>
</g>
<!-- Node31 -->
<g id="node32" class="node">
<title>Node31</title>
<polygon fill="#ffffff" stroke="#bfbfbf" points="1577,-246.5 1577,-265.5 1609,-265.5 1609,-246.5 1577,-246.5"/>
<text text-anchor="middle" x="1593" y="-253.5" font-family="Helvetica,sans-Serif" font-size="10.00" fill="#000000">set</text>
</g>
<!-- Node29&#45;&gt;Node31 -->
<g id="edge63" class="edge">
<title>Node29&#45;&gt;Node31</title>
<path fill="none" stroke="#191970" d="M1594.5056,-302.2977C1594.2482,-294.3834 1593.9302,-284.6043 1593.6529,-276.0759"/>
<polygon fill="#191970" stroke="#191970" points="1597.1435,-275.7279 1593.3202,-265.8469 1590.1472,-275.9554 1597.1435,-275.7279"/>
</g>
<!-- Node32 -->
<g id="node33" class="node">
<title>Node32</title>
<polygon fill="#ffffff" stroke="#bfbfbf" points="1627.5,-246.5 1627.5,-265.5 1696.5,-265.5 1696.5,-246.5 1627.5,-246.5"/>
<text text-anchor="middle" x="1662" y="-253.5" font-family="Helvetica,sans-Serif" font-size="10.00" fill="#000000">type_traits</text>
</g>
<!-- Node29&#45;&gt;Node32 -->
<g id="edge65" class="edge">
<title>Node29&#45;&gt;Node32</title>
<path fill="none" stroke="#191970" d="M1611.5618,-302.2977C1621.3465,-293.3163 1633.7474,-281.9334 1643.8043,-272.702"/>
<polygon fill="#191970" stroke="#191970" points="1646.2722,-275.1876 1651.2725,-265.8469 1641.5387,-270.0307 1646.2722,-275.1876"/>
</g>
<!-- Node33&#45;&gt;Node7 -->
<g id="edge76" class="edge">
<title>Node33&#45;&gt;Node7</title>
<path fill="none" stroke="#191970" d="M1330.2179,-573.1003C1539.0475,-568.3501 2182.7979,-551.5329 2272,-523 2380.975,-488.1423 2489,-498.9142 2489,-384.5 2489,-384.5 2489,-384.5 2489,-133 2489,-62.1806 2392.8424,-29.1767 2341.0896,-16.5423"/>
<polygon fill="#191970" stroke="#191970" points="2341.6041,-13.0687 2331.0715,-14.2154 2340.0203,-19.8872 2341.6041,-13.0687"/>
</g>
<!-- Node33&#45;&gt;Node8 -->
<g id="edge77" class="edge">
<title>Node33&#45;&gt;Node8</title>
<path fill="none" stroke="#191970" d="M1330.1685,-573.2129C1534.2009,-568.8831 2152.1865,-553.382 2237,-523 2276.4992,-508.8505 2288.9837,-501.4037 2313,-467 2356.7163,-404.3759 2314.4882,-362.5768 2361,-302 2372.0453,-287.6147 2388.9795,-276.739 2404.0618,-269.1841"/>
<polygon fill="#191970" stroke="#191970" points="2405.588,-272.3341 2413.1442,-264.9075 2402.606,-266.001 2405.588,-272.3341"/>
</g>
<!-- Node33&#45;&gt;Node9 -->
<g id="edge78" class="edge">
<title>Node33&#45;&gt;Node9</title>
<path fill="none" stroke="#191970" d="M1230.4688,-564.8906C1192.0318,-554.1944 1129.8256,-536.8836 1087.9464,-525.2294"/>
<polygon fill="#191970" stroke="#191970" points="1088.8611,-521.851 1078.2888,-522.5419 1086.9843,-528.5948 1088.8611,-521.851"/>
</g>
<!-- Node33&#45;&gt;Node16 -->
<g id="edge85" class="edge">
<title>Node33&#45;&gt;Node16</title>
<path fill="none" stroke="#191970" d="M1259.3725,-564.6843C1250.9233,-550.3571 1234.0185,-523.225 1216,-503 1185.8238,-469.1286 1174.4794,-464.2681 1139,-436 1134.0548,-432.06 1052.2452,-372.5307 1047,-369 1021.8313,-352.058 1011.1895,-353.6911 989,-333 951.8123,-298.3235 919.5835,-247.9748 902.3506,-218.4982"/>
<polygon fill="#191970" stroke="#191970" points="905.3146,-216.6314 897.2951,-209.7076 899.2465,-220.1212 905.3146,-216.6314"/>
</g>
<!-- Node33&#45;&gt;Node17 -->
<g id="edge86" class="edge">
<title>Node33&#45;&gt;Node17</title>
<path fill="none" stroke="#191970" d="M1261.3881,-564.8867C1247.887,-528.9426 1201.1009,-404.2858 1200,-400 1178.7631,-317.3276 1183.9043,-294.5223 1172,-210 1167.8097,-180.2484 1165.214,-172.9635 1163,-143 1161.8667,-127.6625 1161.5961,-110.4256 1161.6186,-96.7192"/>
<polygon fill="#191970" stroke="#191970" points="1165.1193,-96.6117 1161.6886,-86.5877 1158.1195,-96.5632 1165.1193,-96.6117"/>
</g>
<!-- Node33&#45;&gt;Node19 -->
<g id="edge75" class="edge">
<title>Node33&#45;&gt;Node19</title>
<path fill="none" stroke="#191970" d="M1330.0168,-571.225C1521.057,-560.9434 2070.5694,-526.4096 2123,-467 2151.8205,-434.3432 2152.8728,-400.697 2123,-369 2030.3231,-270.6638 1611.5672,-428.5297 1516,-333 1488.6243,-305.635 1496.7055,-281.5577 1512,-246 1521.1925,-224.6287 1533.2564,-226.152 1550,-210 1594.9844,-166.6051 1647.34,-114.8427 1673.8013,-88.5914"/>
<polygon fill="#191970" stroke="#191970" points="1676.5142,-90.8301 1681.1453,-81.301 1671.5826,-85.8622 1676.5142,-90.8301"/>
</g>
<!-- Node33&#45;&gt;Node27 -->
<g id="edge79" class="edge">
<title>Node33&#45;&gt;Node27</title>
<path fill="none" stroke="#191970" d="M1256.0388,-564.8114C1232.8691,-540.2457 1168.221,-474.7326 1103,-436 1080.1573,-422.4345 1053.1095,-411.2789 1029.2454,-402.861"/>
<polygon fill="#191970" stroke="#191970" points="1030.1769,-399.4803 1019.5822,-399.5384 1027.9008,-406.0999 1030.1769,-399.4803"/>
</g>
<!-- Node34 -->
<g id="node35" class="node">
<title>Node34</title>
<g id="a_node35"><a xlink:href="unique__id_8h.html" target="_top" xlink:title="maliput/api/unique_id.h">
<polygon fill="#ffffff" stroke="#000000" points="1208.5,-375 1208.5,-394 1339.5,-394 1339.5,-375 1208.5,-375"/>
<text text-anchor="middle" x="1274" y="-382" font-family="Helvetica,sans-Serif" font-size="10.00" fill="#000000">maliput/api/unique_id.h</text>
</a>
</g>
</g>
<!-- Node33&#45;&gt;Node34 -->
<g id="edge80" class="edge">
<title>Node33&#45;&gt;Node34</title>
<path fill="none" stroke="#191970" d="M1273.732,-564.7158C1281.8188,-554.9452 1293.2838,-539.1016 1298,-523 1308.8689,-485.8923 1306.3645,-473.7511 1298,-436 1295.466,-424.5636 1290.1188,-412.6558 1285.1134,-403.1747"/>
<polygon fill="#191970" stroke="#191970" points="1288.0854,-401.318 1280.1534,-394.2943 1281.9741,-404.7315 1288.0854,-401.318"/>
</g>
<!-- Node34&#45;&gt;Node7 -->
<g id="edge81" class="edge">
<title>Node34&#45;&gt;Node7</title>
<path fill="none" stroke="#191970" d="M1337.5524,-374.9759C1353.6576,-372.7845 1370.9435,-370.6237 1387,-369 1631.1658,-344.3093 1698.2624,-385.4638 1938,-333 2019.3579,-315.1958 2036.1394,-298.0711 2113,-266 2184.1337,-236.3185 2271,-271.5778 2271,-194.5 2271,-194.5 2271,-194.5 2271,-133 2271,-94.6461 2288.0752,-52.4423 2299.3334,-28.7843"/>
<polygon fill="#191970" stroke="#191970" points="2302.5923,-30.0892 2303.8752,-19.5723 2296.3139,-26.9938 2302.5923,-30.0892"/>
</g>
<!-- Node34&#45;&gt;Node16 -->
<g id="edge82" class="edge">
<title>Node34&#45;&gt;Node16</title>
<path fill="none" stroke="#191970" d="M1262.6337,-374.9593C1243.6711,-359.1826 1204.1859,-326.9261 1169,-302 1131.1715,-275.2018 1123.435,-264.6657 1081,-246 1045.4828,-230.3772 1004.1299,-218.5436 968.9175,-210.1842"/>
<polygon fill="#191970" stroke="#191970" points="969.6911,-206.7708 959.1586,-207.9183 968.1079,-213.5894 969.6911,-206.7708"/>
</g>
<!-- Node34&#45;&gt;Node17 -->
<g id="edge84" class="edge">
<title>Node34&#45;&gt;Node17</title>
<path fill="none" stroke="#191970" d="M1266.4806,-374.9899C1251.5805,-355.6499 1218.2585,-309.8439 1201,-266 1178.1525,-207.9577 1168.1125,-134.6864 1164.1938,-96.789"/>
<polygon fill="#191970" stroke="#191970" points="1167.6592,-96.2624 1163.2059,-86.6489 1160.6922,-96.9412 1167.6592,-96.2624"/>
</g>
<!-- Node34&#45;&gt;Node29 -->
<g id="edge83" class="edge">
<title>Node34&#45;&gt;Node29</title>
<path fill="none" stroke="#191970" d="M1319.6506,-374.9717C1370.3971,-364.3797 1453.3108,-347.0738 1514.9138,-334.2158"/>
<polygon fill="#191970" stroke="#191970" points="1515.9209,-337.5811 1524.9948,-332.1117 1514.4906,-330.7288 1515.9209,-337.5811"/>
</g>
<!-- Node35&#45;&gt;Node5 -->
<g id="edge90" class="edge">
<title>Node35&#45;&gt;Node5</title>
<path fill="none" stroke="#191970" d="M802.1133,-562.7344C761.8109,-554.1422 708.8415,-540.8695 664,-523 618.2664,-504.775 493.1163,-431.1596 439.6965,-399.3078"/>
<polygon fill="#191970" stroke="#191970" points="441.2627,-396.1665 430.8828,-394.0432 437.6731,-402.176 441.2627,-396.1665"/>
</g>
<!-- Node35&#45;&gt;Node8 -->
<g id="edge91" class="edge">
<title>Node35&#45;&gt;Node8</title>
<path fill="none" stroke="#191970" d="M927.7431,-571.2403C1166.9189,-558.5301 2013.6796,-510.8323 2126,-467 2237.5545,-423.4666 2236.8479,-364.486 2339,-302 2359.711,-289.3312 2384.473,-277.7353 2403.9244,-269.3552"/>
<polygon fill="#191970" stroke="#191970" points="2405.4388,-272.5149 2413.2834,-265.3935 2402.7101,-266.0686 2405.4388,-272.5149"/>
</g>
<!-- Node35&#45;&gt;Node9 -->
<g id="edge92" class="edge">
<title>Node35&#45;&gt;Node9</title>
<path fill="none" stroke="#191970" d="M908.7883,-559.4554C938.7859,-549.149 978.1487,-535.6249 1006.6616,-525.8286"/>
<polygon fill="#191970" stroke="#191970" points="1007.9413,-529.0898 1016.2614,-522.5303 1005.6667,-522.4696 1007.9413,-529.0898"/>
</g>
<!-- Node35&#45;&gt;Node16 -->
<g id="edge108" class="edge">
<title>Node35&#45;&gt;Node16</title>
<path fill="none" stroke="#191970" d="M835.3042,-559.4801C804.4448,-542.0092 757.929,-509.9789 738,-467 732.2041,-454.5006 734.9773,-449.4421 738,-436 758.4994,-344.8373 771.006,-320.0442 828,-246 836.623,-234.7973 848.0585,-224.3461 858.6963,-215.8258"/>
<polygon fill="#191970" stroke="#191970" points="860.8429,-218.5903 866.6158,-209.7063 856.5628,-213.0512 860.8429,-218.5903"/>
</g>
<!-- Node35&#45;&gt;Node17 -->
<g id="edge109" class="edge">
<title>Node35&#45;&gt;Node17</title>
<path fill="none" stroke="#191970" d="M818.49,-559.4603C798.3488,-551.1685 775.6289,-539.2091 759,-523 738.9293,-503.436 736.6328,-494.2321 730,-467 709.3453,-382.1992 670.3343,-436.1706 778,-179 789.7127,-151.023 791.2278,-138.9905 817,-123 839.0943,-109.2914 986.8159,-90.7979 1081.6623,-80.1092"/>
<polygon fill="#191970" stroke="#191970" points="1082.2626,-83.564 1091.8109,-78.9725 1081.4834,-76.6075 1082.2626,-83.564"/>
</g>
<!-- Node35&#45;&gt;Node19 -->
<g id="edge89" class="edge">
<title>Node35&#45;&gt;Node19</title>
<path fill="none" stroke="#191970" d="M927.7972,-567.8223C1131.6247,-545.5095 1764.8488,-470.9396 1821,-400 1829.551,-389.1969 1830.1939,-379.2616 1821,-369 1772.2168,-314.5514 1546.8083,-383.5542 1494,-333 1444.1839,-285.3103 1438.6894,-237.6301 1475,-179 1513.0442,-117.5706 1597.8915,-90.1172 1649.1936,-78.7434"/>
<polygon fill="#191970" stroke="#191970" points="1649.9211,-82.1671 1658.983,-76.6778 1648.4758,-75.3179 1649.9211,-82.1671"/>
</g>
<!-- Node35&#45;&gt;Node27 -->
<g id="edge107" class="edge">
<title>Node35&#45;&gt;Node27</title>
<path fill="none" stroke="#191970" d="M873.2548,-559.2727C891.078,-526.395 933.2888,-448.5305 954.8418,-408.7725"/>
<polygon fill="#191970" stroke="#191970" points="958.1599,-409.9955 959.8489,-399.5361 952.006,-406.6594 958.1599,-409.9955"/>
</g>
<!-- Node35&#45;&gt;Node36 -->
<g id="edge93" class="edge">
<title>Node35&#45;&gt;Node36</title>
<path fill="none" stroke="#191970" d="M927.7048,-565.5857C978.4819,-557.3944 1051.4319,-543.4066 1113,-523 1133.0068,-516.3688 1135.8707,-509.2498 1156,-503 1232.5158,-479.2432 1323.4018,-465.7081 1386.1381,-458.5361"/>
<polygon fill="#191970" stroke="#191970" points="1386.7966,-461.9844 1396.3467,-457.3968 1386.0201,-455.0276 1386.7966,-461.9844"/>
</g>
<!-- Node36&#45;&gt;Node2 -->
<g id="edge95" class="edge">
<title>Node36&#45;&gt;Node2</title>
<path fill="none" stroke="#191970" d="M1527.5518,-442.4399C1584.317,-433.8644 1668.3421,-419.4137 1740,-400 1742.968,-399.1959 1746.0227,-398.2801 1749.0699,-397.3048"/>
<polygon fill="#191970" stroke="#191970" points="1750.3161,-400.578 1758.6617,-394.0511 1748.0674,-393.949 1750.3161,-400.578"/>
</g>
<!-- Node36&#45;&gt;Node3 -->
<g id="edge96" class="edge">
<title>Node36&#45;&gt;Node3</title>
<path fill="none" stroke="#191970" d="M1396.3303,-448.5278C1289.4544,-443.0351 1071.4728,-429.0977 889,-400 697.573,-369.4744 653.2872,-343.7906 464,-302 401.0581,-288.1038 327.6874,-272.8075 284.1349,-263.8221"/>
<polygon fill="#191970" stroke="#191970" points="284.7565,-260.3767 274.2559,-261.7866 283.3439,-267.2327 284.7565,-260.3767"/>
</g>
<!-- Node36&#45;&gt;Node5 -->
<g id="edge98" class="edge">
<title>Node36&#45;&gt;Node5</title>
<path fill="none" stroke="#191970" d="M1396.1088,-447.2835C1204.6835,-435.0337 650.8534,-399.5928 471.6619,-388.1259"/>
<polygon fill="#191970" stroke="#191970" points="471.8583,-384.6314 461.6551,-387.4856 471.4112,-391.6171 471.8583,-384.6314"/>
</g>
<!-- Node36&#45;&gt;Node7 -->
<g id="edge97" class="edge">
<title>Node36&#45;&gt;Node7</title>
<path fill="none" stroke="#191970" d="M1527.8155,-447.438C1611.9065,-441.3573 1761.5909,-427.5314 1887,-400 1898.8579,-397.3968 2292.4306,-271.9727 2303,-266 2345.0966,-242.2113 2385,-242.8531 2385,-194.5 2385,-194.5 2385,-194.5 2385,-133 2385,-89.4388 2350.0757,-48.4145 2327.5765,-26.5053"/>
<polygon fill="#191970" stroke="#191970" points="2329.8962,-23.8822 2320.2141,-19.5801 2325.1001,-28.981 2329.8962,-23.8822"/>
</g>
<!-- Node36&#45;&gt;Node8 -->
<g id="edge99" class="edge">
<title>Node36&#45;&gt;Node8</title>
<path fill="none" stroke="#191970" d="M1527.6455,-448.4239C1659.0931,-441.8215 1950.2886,-424.8478 2047,-400 2118.5049,-381.6284 2134.0099,-368.0251 2199,-333 2221.3558,-320.9518 2223.6388,-311.9596 2247,-302 2310.8628,-274.7732 2331.6478,-282.8353 2399,-266 2400.4477,-265.6381 2401.9255,-265.2651 2403.4176,-264.8854"/>
<polygon fill="#191970" stroke="#191970" points="2404.4992,-268.221 2413.3066,-262.3319 2402.7491,-261.4433 2404.4992,-268.221"/>
</g>
<!-- Node36&#45;&gt;Node13 -->
<g id="edge100" class="edge">
<title>Node36&#45;&gt;Node13</title>
<path fill="none" stroke="#191970" d="M1462,-436.2967C1462,-426.7699 1462,-414.3954 1462,-404.1306"/>
<polygon fill="#191970" stroke="#191970" points="1465.5001,-404.0549 1462,-394.055 1458.5001,-404.055 1465.5001,-404.0549"/>
</g>
<!-- Node36&#45;&gt;Node14 -->
<g id="edge94" class="edge">
<title>Node36&#45;&gt;Node14</title>
<path fill="none" stroke="#191970" d="M1439.0102,-436.4292C1423.9886,-426.4081 1404.0649,-412.7856 1387,-400 1369.5568,-386.9311 1367.0093,-381.2771 1349,-369 1322.0341,-350.6172 1308.0412,-356.1125 1285,-333 1268.3493,-316.2978 1256.1685,-291.8186 1249.1066,-274.9677"/>
<polygon fill="#191970" stroke="#191970" points="1252.3275,-273.5953 1245.3769,-265.5991 1245.8239,-276.1845 1252.3275,-273.5953"/>
</g>
<!-- Node36&#45;&gt;Node16 -->
<g id="edge103" class="edge">
<title>Node36&#45;&gt;Node16</title>
<path fill="none" stroke="#191970" d="M1396.2634,-443.085C1330.1008,-433.8212 1233.2303,-417.8534 1200,-400 1115.284,-354.4852 1129.8559,-296.4779 1048,-246 1023.914,-231.147 995.1046,-220.1366 968.6659,-212.1967"/>
<polygon fill="#191970" stroke="#191970" points="969.6247,-208.8307 959.0457,-209.409 967.6764,-215.5541 969.6247,-208.8307"/>
</g>
<!-- Node36&#45;&gt;Node24 -->
<g id="edge106" class="edge">
<title>Node36&#45;&gt;Node24</title>
<path fill="none" stroke="#191970" d="M1527.7568,-447.8517C1600.7017,-442.4816 1721.2658,-429.6516 1821,-400 1888.6613,-379.8838 1921.1296,-388.3001 1965,-333 2007.7669,-279.0908 1994.102,-230.9714 1949,-179 1937.4827,-165.7285 1921.1928,-154.9611 1906.9223,-147.1895"/>
<polygon fill="#191970" stroke="#191970" points="1908.3959,-144.0111 1897.9066,-142.5189 1905.1758,-150.2266 1908.3959,-144.0111"/>
</g>
<!-- Node36&#45;&gt;Node27 -->
<g id="edge101" class="edge">
<title>Node36&#45;&gt;Node27</title>
<path fill="none" stroke="#191970" d="M1396.4006,-442.6029C1306.5399,-430.4153 1145.2886,-408.5452 1048.3111,-395.3924"/>
<polygon fill="#191970" stroke="#191970" points="1048.6424,-391.9054 1038.2627,-394.0296 1047.7016,-398.8419 1048.6424,-391.9054"/>
</g>
<!-- Node36&#45;&gt;Node29 -->
<g id="edge104" class="edge">
<title>Node36&#45;&gt;Node29</title>
<path fill="none" stroke="#191970" d="M1527.5658,-446.8534C1592.3112,-440.7388 1684.7791,-427.3775 1707,-400 1728.6067,-373.3793 1691.804,-350.9121 1654.7305,-336.1787"/>
<polygon fill="#191970" stroke="#191970" points="1655.9255,-332.8887 1645.3346,-332.6018 1653.435,-339.4307 1655.9255,-332.8887"/>
</g>
<!-- Node36&#45;&gt;Node34 -->
<g id="edge102" class="edge">
<title>Node36&#45;&gt;Node34</title>
<path fill="none" stroke="#191970" d="M1419.8091,-436.4639C1386.8886,-424.7316 1341.639,-408.6054 1310.318,-397.4431"/>
<polygon fill="#191970" stroke="#191970" points="1311.2662,-394.0655 1300.6716,-394.0053 1308.9163,-400.6593 1311.2662,-394.0655"/>
</g>
<!-- Node37 -->
<g id="node38" class="node">
<title>Node37</title>
<g id="a_node38"><a xlink:href="passkey_8h.html" target="_top" xlink:title="maliput/common/passkey.h">
<polygon fill="#ffffff" stroke="#000000" points="1546,-375 1546,-394 1698,-394 1698,-375 1546,-375"/>
<text text-anchor="middle" x="1622" y="-382" font-family="Helvetica,sans-Serif" font-size="10.00" fill="#000000">maliput/common/passkey.h</text>
</a>
</g>
</g>
<!-- Node36&#45;&gt;Node37 -->
<g id="edge105" class="edge">
<title>Node36&#45;&gt;Node37</title>
<path fill="none" stroke="#191970" d="M1497.9071,-436.4639C1525.4786,-424.9183 1563.2117,-409.1176 1589.8094,-397.9798"/>
<polygon fill="#191970" stroke="#191970" points="1591.1932,-401.1949 1599.0653,-394.1039 1588.4894,-394.7381 1591.1932,-401.1949"/>
</g>
<!-- Node38&#45;&gt;Node3 -->
<g id="edge115" class="edge">
<title>Node38&#45;&gt;Node3</title>
<path fill="none" stroke="#191970" d="M299.1629,-827.2612C293.8208,-817.2836 287.4048,-803.772 284,-791 231.3775,-593.6015 253.6745,-537.108 245,-333 244.1778,-313.653 244.6061,-291.5493 245.1331,-276.0018"/>
<polygon fill="#191970" stroke="#191970" points="248.6318,-276.0995 245.5178,-265.9727 241.6369,-275.8312 248.6318,-276.0995"/>
</g>
<!-- Node38&#45;&gt;Node4 -->
<g id="edge116" class="edge">
<title>Node38&#45;&gt;Node4</title>
<path fill="none" stroke="#191970" d="M373.5673,-832.6861C409.3399,-825.2046 453.2774,-812.4094 488,-791 515.0661,-774.3114 538.5234,-745.3495 551.9646,-726.5596"/>
<polygon fill="#191970" stroke="#191970" points="554.9046,-728.462 557.7303,-718.2509 549.1536,-724.4711 554.9046,-728.462"/>
</g>
<!-- Node38&#45;&gt;Node16 -->
<g id="edge126" class="edge">
<title>Node38&#45;&gt;Node16</title>
<path fill="none" stroke="#191970" d="M306.1191,-827.2547C303.2223,-802.4182 298,-751.6579 298,-708.5 298,-708.5 298,-708.5 298,-513 298,-409.413 311.606,-360.6356 397,-302 463.0742,-256.6302 686.8681,-221.1072 808.5741,-204.5982"/>
<polygon fill="#191970" stroke="#191970" points="809.1463,-208.0529 818.5906,-203.2512 808.2133,-201.1153 809.1463,-208.0529"/>
</g>
<!-- Node38&#45;&gt;Node39 -->
<g id="edge117" class="edge">
<title>Node38&#45;&gt;Node39</title>
<path fill="none" stroke="#191970" d="M331.7885,-827.4639C346.4151,-818.2188 365.3583,-806.2452 381.3739,-796.1222"/>
<polygon fill="#191970" stroke="#191970" points="383.3412,-799.0193 389.9242,-790.7177 379.6011,-793.1022 383.3412,-799.0193"/>
</g>
<!-- Node40 -->
<g id="node41" class="node">
<title>Node40</title>
<g id="a_node41"><a xlink:href="state__provider__result_8h.html" target="_top" xlink:title="maliput/api/rules/state\l_provider_result.h">
<polygon fill="#ffffff" stroke="#000000" points="104.5,-693.5 104.5,-723.5 231.5,-723.5 231.5,-693.5 104.5,-693.5"/>
<text text-anchor="start" x="112.5" y="-711.5" font-family="Helvetica,sans-Serif" font-size="10.00" fill="#000000">maliput/api/rules/state</text>
<text text-anchor="middle" x="168" y="-700.5" font-family="Helvetica,sans-Serif" font-size="10.00" fill="#000000">_provider_result.h</text>
</a>
</g>
</g>
<!-- Node38&#45;&gt;Node40 -->
<g id="edge124" class="edge">
<title>Node38&#45;&gt;Node40</title>
<path fill="none" stroke="#191970" d="M288.497,-827.2981C276.0235,-817.3352 259.6774,-803.8261 246,-791 225.4888,-771.7655 203.6162,-748.3493 188.2687,-731.3847"/>
<polygon fill="#191970" stroke="#191970" points="190.5803,-728.7206 181.2932,-723.6215 185.3734,-733.3992 190.5803,-728.7206"/>
</g>
<!-- Node39&#45;&gt;Node3 -->
<g id="edge118" class="edge">
<title>Node39&#45;&gt;Node3</title>
<path fill="none" stroke="#191970" d="M402.2459,-760.1838C394.8318,-750.1753 385.311,-736.6583 378,-724 328.6765,-638.6008 312.1446,-617.5183 284,-523 257.3262,-433.4209 249.1456,-321.1952 246.8362,-276.1103"/>
<polygon fill="#191970" stroke="#191970" points="250.3231,-275.7471 246.3582,-265.9221 243.3308,-276.0752 250.3231,-275.7471"/>
</g>
<!-- Node39&#45;&gt;Node4 -->
<g id="edge121" class="edge">
<title>Node39&#45;&gt;Node4</title>
<path fill="none" stroke="#191970" d="M447.6629,-760.4639C473.2845,-749.0196 508.2661,-733.3945 533.1627,-722.274"/>
<polygon fill="#191970" stroke="#191970" points="534.7955,-725.378 542.4987,-718.1039 531.9407,-718.9866 534.7955,-725.378"/>
</g>
<!-- Node39&#45;&gt;Node5 -->
<g id="edge119" class="edge">
<title>Node39&#45;&gt;Node5</title>
<path fill="none" stroke="#191970" d="M406.2876,-760.2643C394.6641,-735.8526 374,-686.172 374,-641.5 374,-641.5 374,-641.5 374,-574.5 374,-510.8597 396.2505,-437.8721 407.9686,-403.8465"/>
<polygon fill="#191970" stroke="#191970" points="411.335,-404.8243 411.3615,-394.2295 404.7338,-402.4953 411.335,-404.8243"/>
</g>
<!-- Node39&#45;&gt;Node8 -->
<g id="edge120" class="edge">
<title>Node39&#45;&gt;Node8</title>
<path fill="none" stroke="#191970" d="M479.6571,-773.9488C824.7584,-764.9485 2413,-712.6801 2413,-513 2413,-513 2413,-513 2413,-384.5 2413,-345.1591 2424.0044,-300.1772 2431.1102,-275.2323"/>
<polygon fill="#191970" stroke="#191970" points="2434.4917,-276.1392 2433.9604,-265.5577 2427.777,-274.161 2434.4917,-276.1392"/>
</g>
<!-- Node39&#45;&gt;Node16 -->
<g id="edge123" class="edge">
<title>Node39&#45;&gt;Node16</title>
<path fill="none" stroke="#191970" d="M413.6238,-760.2282C413.0445,-735.3545 412,-684.543 412,-641.5 412,-641.5 412,-641.5 412,-574.5 412,-480.178 306.1423,-447.1198 359,-369 410.2075,-293.3191 673.7668,-234.4163 808.8923,-208.6627"/>
<polygon fill="#191970" stroke="#191970" points="809.6143,-212.0883 818.7902,-206.7918 808.3142,-205.2101 809.6143,-212.0883"/>
</g>
<!-- Node39&#45;&gt;Node27 -->
<g id="edge122" class="edge">
<title>Node39&#45;&gt;Node27</title>
<path fill="none" stroke="#191970" d="M424.7617,-760.108C445.8989,-730.7853 495.5448,-666.2555 550,-626 674.833,-533.7184 729.8634,-550.0803 861,-467 890.3882,-448.3814 921.6381,-423.6456 942.7288,-406.1297"/>
<polygon fill="#191970" stroke="#191970" points="945.1445,-408.6719 950.5626,-399.5672 940.6493,-403.3059 945.1445,-408.6719"/>
</g>
<!-- Node40&#45;&gt;Node3 -->
<g id="edge125" class="edge">
<title>Node40&#45;&gt;Node3</title>
<path fill="none" stroke="#191970" d="M164.6143,-693.3163C159.4002,-668.5663 150,-617.9248 150,-574.5 150,-574.5 150,-574.5 150,-384.5 150,-346.3133 151.113,-332.5681 174,-302 184.21,-288.3635 199.7493,-277.7044 213.7817,-270.0957"/>
<polygon fill="#191970" stroke="#191970" points="215.3992,-273.1998 222.7143,-265.5356 212.2163,-266.9652 215.3992,-273.1998"/>
</g>
</g>
</svg>
        <g id="navigator" transform="translate(0 0)" fill="#404254">
                <rect fill="#f2f5e9" fill-opacity="0.5" stroke="#606060" stroke-width=".5" x="0" y="0" width="60" height="60"/>
                <use id="zoomplus" xlink:href="#zoomPlus" x="17" y="9" onmousedown="handleZoom(evt,'in')"/>
                <use id="zoomminus" xlink:href="#zoomMin" x="42" y="9" onmousedown="handleZoom(evt,'out')"/>
                <use id="reset" xlink:href="#resetDef" x="30" y="36" onmousedown="handleReset()"/>
                <g id="arrowUp" xlink:href="#dirArrow" transform="translate(30 24)" onmousedown="handlePan(0,-1)">
                  <use xlink:href="#rim" fill="#404040">
                        <set attributeName="fill" to="#808080" begin="arrowUp.mouseover" end="arrowUp.mouseout"/>
                  </use>
                  <path fill="none" stroke="white" stroke-width="1.5" d="M0,-3.0v7 M-2.5,-0.5L0,-3.0L2.5,-0.5"/>
                </g>
                <g id="arrowRight" xlink:href="#dirArrow" transform="rotate(90) translate(36 -43)" onmousedown="handlePan(1,0)">
                  <use xlink:href="#rim" fill="#404040">
                        <set attributeName="fill" to="#808080" begin="arrowRight.mouseover" end="arrowRight.mouseout"/>
                  </use>
                  <path fill="none" stroke="white" stroke-width="1.5" d="M0,-3.0v7 M-2.5,-0.5L0,-3.0L2.5,-0.5"/>
                </g>
                <g id="arrowDown" xlink:href="#dirArrow" transform="rotate(180) translate(-30 -48)" onmousedown="handlePan(0,1)">
                  <use xlink:href="#rim" fill="#404040">
                        <set attributeName="fill" to="#808080" begin="arrowDown.mouseover" end="arrowDown.mouseout"/>
                  </use>
                  <path fill="none" stroke="white" stroke-width="1.5" d="M0,-3.0v7 M-2.5,-0.5L0,-3.0L2.5,-0.5"/>
                </g>
                <g id="arrowLeft" xlink:href="#dirArrow" transform="rotate(270) translate(-36 17)" onmousedown="handlePan(-1,0)">
                  <use xlink:href="#rim" fill="#404040">
                        <set attributeName="fill" to="#808080" begin="arrowLeft.mouseover" end="arrowLeft.mouseout"/>
                  </use>
                  <path fill="none" stroke="white" stroke-width="1.5" d="M0,-3.0v7 M-2.5,-0.5L0,-3.0L2.5,-0.5"/>
                </g>
        </g>
        <svg viewBox="0 0 15 15" width="100%" height="30px" preserveAspectRatio="xMaxYMin meet">
         <g id="arrow_out" transform="scale(0.3 0.3)">
          <a xlink:href="manual__phase__provider_8cc__incl_org.svg" target="_base">
           <rect id="button" ry="5" rx="5" y="6" x="6" height="38" width="38"
                fill="#f2f5e9" fill-opacity="0.5" stroke="#606060" stroke-width="1.0"/>
           <path id="arrow"
             d="M 11.500037,31.436501 C 11.940474,20.09759 22.043105,11.32322 32.158766,21.979434 L 37.068811,17.246167 C 37.068811,17.246167 37.088388,32 37.088388,32 L 22.160133,31.978069 C 22.160133,31.978069 26.997745,27.140456 26.997745,27.140456 C 18.528582,18.264221 13.291696,25.230495 11.500037,31.436501 z"
             style="fill:#404040;"/>
          </a>
         </g>
        </svg>
</svg>
