<?xml version="1.0" encoding="UTF-8" standalone="no"?>
<!DOCTYPE svg PUBLIC "-//W3C//DTD SVG 1.1//EN"
 "http://www.w3.org/Graphics/SVG/1.1/DTD/svg11.dtd">
<!-- Generated by graphviz version 2.43.0 (0)
 -->
<!-- Title: phase_provider.h Pages: 1 -->
<svg width="1657pt" height="386pt"
 viewBox="0.00 0.00 1656.50 386.00" xmlns="http://www.w3.org/2000/svg" xmlns:xlink="http://www.w3.org/1999/xlink">
<g id="graph0" class="graph" transform="scale(1 1) rotate(0) translate(4 382)">
<title>phase_provider.h</title>
<polygon fill="white" stroke="transparent" points="-4,4 -4,-382 1652.5,-382 1652.5,4 -4,4"/>
<!-- Node1 -->
<g id="node1" class="node">
<title>Node1</title>
<g id="a_node1"><a xlink:title=" ">
<polygon fill="#bfbfbf" stroke="black" points="980,-358.5 980,-377.5 1081,-377.5 1081,-358.5 980,-358.5"/>
<text text-anchor="middle" x="1030.5" y="-365.5" font-family="Helvetica,sans-Serif" font-size="10.00">phase_provider.h</text>
</a>
</g>
</g>
<!-- Node2 -->
<g id="node2" class="node">
<title>Node2</title>
<g id="a_node2"><a xlink:href="api_2intersection_8h.html" target="_top" xlink:title=" ">
<polygon fill="white" stroke="black" points="907,-297 907,-316 990,-316 990,-297 907,-297"/>
<text text-anchor="middle" x="948.5" y="-304" font-family="Helvetica,sans-Serif" font-size="10.00">intersection.h</text>
</a>
</g>
</g>
<!-- Node1&#45;&gt;Node2 -->
<g id="edge1" class="edge">
<title>Node1&#45;&gt;Node2</title>
<path fill="none" stroke="midnightblue" d="M1010.23,-352.29C994.5,-340.88 973.25,-325.46 960.23,-316.01"/>
<polygon fill="midnightblue" stroke="midnightblue" points="1008.6,-355.43 1018.75,-358.48 1012.71,-349.77 1008.6,-355.43"/>
</g>
<!-- Node4 -->
<g id="node4" class="node">
<title>Node4</title>
<g id="a_node4"><a xlink:href="road__network_8h.html" target="_top" xlink:title=" ">
<polygon fill="white" stroke="black" points="463.5,-168.5 463.5,-187.5 555.5,-187.5 555.5,-168.5 463.5,-168.5"/>
<text text-anchor="middle" x="509.5" y="-175.5" font-family="Helvetica,sans-Serif" font-size="10.00">road_network.h</text>
</a>
</g>
</g>
<!-- Node1&#45;&gt;Node4 -->
<g id="edge30" class="edge">
<title>Node1&#45;&gt;Node4</title>
<path fill="none" stroke="midnightblue" d="M969.75,-362.85C885.91,-356.46 739.52,-342.73 690.5,-322 612.67,-289.08 540.18,-213.28 517.1,-187.65"/>
<polygon fill="midnightblue" stroke="midnightblue" points="969.67,-366.35 979.91,-363.61 970.2,-359.37 969.67,-366.35"/>
</g>
<!-- Node10 -->
<g id="node10" class="node">
<title>Node10</title>
<g id="a_node10"><a xlink:href="mock_8h.html" target="_top" xlink:title=" ">
<polygon fill="white" stroke="black" points="674,-112.5 674,-131.5 727,-131.5 727,-112.5 674,-112.5"/>
<text text-anchor="middle" x="700.5" y="-119.5" font-family="Helvetica,sans-Serif" font-size="10.00">mock.h</text>
</a>
</g>
</g>
<!-- Node1&#45;&gt;Node10 -->
<g id="edge40" class="edge">
<title>Node1&#45;&gt;Node10</title>
<path fill="none" stroke="midnightblue" d="M969.78,-357.92C906.87,-345.41 809.75,-316.95 751.5,-255 716.66,-217.95 704.82,-154.51 701.56,-131.58"/>
<polygon fill="midnightblue" stroke="midnightblue" points="969.48,-361.43 979.96,-359.86 970.79,-354.55 969.48,-361.43"/>
</g>
<!-- Node21 -->
<g id="node21" class="node">
<title>Node21</title>
<g id="a_node21"><a xlink:href="base_2intersection_8h.html" target="_top" xlink:title=" ">
<polygon fill="white" stroke="black" points="1089,-230 1089,-249 1172,-249 1172,-230 1089,-230"/>
<text text-anchor="middle" x="1130.5" y="-237" font-family="Helvetica,sans-Serif" font-size="10.00">intersection.h</text>
</a>
</g>
</g>
<!-- Node1&#45;&gt;Node21 -->
<g id="edge31" class="edge">
<title>Node1&#45;&gt;Node21</title>
<path fill="none" stroke="midnightblue" d="M1031.31,-348.08C1032.87,-331.61 1037.28,-307.8 1049.5,-291 1064.03,-271.04 1089.09,-257.2 1107.49,-249.13"/>
<polygon fill="midnightblue" stroke="midnightblue" points="1027.82,-347.92 1030.62,-358.14 1034.8,-348.4 1027.82,-347.92"/>
</g>
<!-- Node24 -->
<g id="node24" class="node">
<title>Node24</title>
<g id="a_node24"><a xlink:href="manual__phase__provider_8h.html" target="_top" xlink:title=" ">
<polygon fill="white" stroke="black" points="1059,-297 1059,-316 1202,-316 1202,-297 1059,-297"/>
<text text-anchor="middle" x="1130.5" y="-304" font-family="Helvetica,sans-Serif" font-size="10.00">manual_phase_provider.h</text>
</a>
</g>
</g>
<!-- Node1&#45;&gt;Node24 -->
<g id="edge32" class="edge">
<title>Node1&#45;&gt;Node24</title>
<path fill="none" stroke="midnightblue" d="M1053.62,-353.24C1072.94,-341.75 1099.87,-325.72 1116.2,-316.01"/>
<polygon fill="midnightblue" stroke="midnightblue" points="1051.63,-350.35 1044.83,-358.48 1055.21,-356.37 1051.63,-350.35"/>
</g>
<!-- Node26 -->
<g id="node26" class="node">
<title>Node26</title>
<g id="a_node26"><a xlink:href="phase__based__right__of__way__rule__state__provider_8h.html" target="_top" xlink:title=" ">
<polygon fill="white" stroke="black" points="1288,-291.5 1288,-321.5 1439,-321.5 1439,-291.5 1288,-291.5"/>
<text text-anchor="start" x="1296" y="-309.5" font-family="Helvetica,sans-Serif" font-size="10.00">phase_based_right_of</text>
<text text-anchor="middle" x="1363.5" y="-298.5" font-family="Helvetica,sans-Serif" font-size="10.00">_way_rule_state_provider.h</text>
</a>
</g>
</g>
<!-- Node1&#45;&gt;Node26 -->
<g id="edge36" class="edge">
<title>Node1&#45;&gt;Node26</title>
<path fill="none" stroke="midnightblue" d="M1088.19,-356.69C1143.49,-346.81 1227.28,-331.84 1287.89,-321.01"/>
<polygon fill="midnightblue" stroke="midnightblue" points="1087.44,-353.27 1078.21,-358.48 1088.67,-360.16 1087.44,-353.27"/>
</g>
<!-- Node28 -->
<g id="node28" class="node">
<title>Node28</title>
<g id="a_node28"><a xlink:href="phased__discrete__rule__state__provider_8h.html" target="_top" xlink:title=" ">
<polygon fill="white" stroke="black" points="1492.5,-291.5 1492.5,-321.5 1612.5,-321.5 1612.5,-291.5 1492.5,-291.5"/>
<text text-anchor="start" x="1500.5" y="-309.5" font-family="Helvetica,sans-Serif" font-size="10.00">phased_discrete_rule</text>
<text text-anchor="middle" x="1552.5" y="-298.5" font-family="Helvetica,sans-Serif" font-size="10.00">_state_provider.h</text>
</a>
</g>
</g>
<!-- Node1&#45;&gt;Node28 -->
<g id="edge38" class="edge">
<title>Node1&#45;&gt;Node28</title>
<path fill="none" stroke="midnightblue" d="M1091.13,-361.07C1172.52,-352.98 1321.55,-337.68 1448.5,-322 1462.7,-320.25 1477.97,-318.2 1492.32,-316.22"/>
<polygon fill="midnightblue" stroke="midnightblue" points="1090.67,-357.6 1081.07,-362.07 1091.36,-364.57 1090.67,-357.6"/>
</g>
<!-- Node3 -->
<g id="node3" class="node">
<title>Node3</title>
<g id="a_node3"><a xlink:href="api_2intersection__book_8h.html" target="_top" xlink:title=" ">
<polygon fill="white" stroke="black" points="881,-230 881,-249 994,-249 994,-230 881,-230"/>
<text text-anchor="middle" x="937.5" y="-237" font-family="Helvetica,sans-Serif" font-size="10.00">intersection_book.h</text>
</a>
</g>
</g>
<!-- Node2&#45;&gt;Node3 -->
<g id="edge2" class="edge">
<title>Node2&#45;&gt;Node3</title>
<path fill="none" stroke="midnightblue" d="M945.29,-286.54C943.2,-274.17 940.57,-258.62 938.96,-249.13"/>
<polygon fill="midnightblue" stroke="midnightblue" points="941.9,-287.46 947.02,-296.73 948.8,-286.29 941.9,-287.46"/>
</g>
<!-- Node11 -->
<g id="node11" class="node">
<title>Node11</title>
<g id="a_node11"><a xlink:href="mock_8cc.html" target="_top" xlink:title=" ">
<polygon fill="white" stroke="black" points="702,-56.5 702,-75.5 759,-75.5 759,-56.5 702,-56.5"/>
<text text-anchor="middle" x="730.5" y="-63.5" font-family="Helvetica,sans-Serif" font-size="10.00">mock.cc</text>
</a>
</g>
</g>
<!-- Node2&#45;&gt;Node11 -->
<g id="edge29" class="edge">
<title>Node2&#45;&gt;Node11</title>
<path fill="none" stroke="midnightblue" d="M896.63,-305.36C855.17,-302.33 798.69,-291.14 765.5,-255 753.09,-241.49 736.02,-111.2 731.59,-75.82"/>
<polygon fill="midnightblue" stroke="midnightblue" points="896.63,-308.86 906.82,-305.96 897.04,-301.88 896.63,-308.86"/>
</g>
<!-- Node17 -->
<g id="node17" class="node">
<title>Node17</title>
<g id="a_node17"><a xlink:href="base_2intersection__book_8h.html" target="_top" xlink:title=" ">
<polygon fill="white" stroke="black" points="842,-168.5 842,-187.5 955,-187.5 955,-168.5 842,-168.5"/>
<text text-anchor="middle" x="898.5" y="-175.5" font-family="Helvetica,sans-Serif" font-size="10.00">intersection_book.h</text>
</a>
</g>
</g>
<!-- Node2&#45;&gt;Node17 -->
<g id="edge27" class="edge">
<title>Node2&#45;&gt;Node17</title>
<path fill="none" stroke="midnightblue" d="M969.86,-290.87C990.92,-274.57 1017.9,-247.44 1002.5,-224 989.97,-204.93 967.44,-193.9 946.55,-187.54"/>
<polygon fill="midnightblue" stroke="midnightblue" points="967.59,-288.2 961.61,-296.95 971.74,-293.83 967.59,-288.2"/>
</g>
<!-- Node2&#45;&gt;Node21 -->
<g id="edge24" class="edge">
<title>Node2&#45;&gt;Node21</title>
<path fill="none" stroke="midnightblue" d="M982.28,-293.44C1018.38,-280.54 1074.71,-260.42 1106.52,-249.06"/>
<polygon fill="midnightblue" stroke="midnightblue" points="980.91,-290.21 972.67,-296.87 983.26,-296.8 980.91,-290.21"/>
</g>
<!-- Node23 -->
<g id="node23" class="node">
<title>Node23</title>
<g id="a_node23"><a xlink:href="api_2intersection_8cc.html" target="_top" xlink:title=" ">
<polygon fill="white" stroke="black" points="774.5,-230 774.5,-249 862.5,-249 862.5,-230 774.5,-230"/>
<text text-anchor="middle" x="818.5" y="-237" font-family="Helvetica,sans-Serif" font-size="10.00">intersection.cc</text>
</a>
</g>
</g>
<!-- Node2&#45;&gt;Node23 -->
<g id="edge28" class="edge">
<title>Node2&#45;&gt;Node23</title>
<path fill="none" stroke="midnightblue" d="M922.05,-292.27C896.3,-279.4 857.92,-260.21 835.83,-249.17"/>
<polygon fill="midnightblue" stroke="midnightblue" points="920.73,-295.53 931.24,-296.87 923.86,-289.27 920.73,-295.53"/>
</g>
<!-- Node3&#45;&gt;Node4 -->
<g id="edge3" class="edge">
<title>Node3&#45;&gt;Node4</title>
<path fill="none" stroke="midnightblue" d="M891.85,-227.9C885.05,-226.48 878.1,-225.13 871.5,-224 758.68,-204.64 624.71,-190.18 555.7,-183.36"/>
<polygon fill="midnightblue" stroke="midnightblue" points="891.14,-231.32 901.65,-229.99 892.61,-224.48 891.14,-231.32"/>
</g>
<!-- Node3&#45;&gt;Node10 -->
<g id="edge23" class="edge">
<title>Node3&#45;&gt;Node10</title>
<path fill="none" stroke="midnightblue" d="M910.57,-225.63C889.34,-215.47 859,-200.9 832.5,-188 791.39,-167.99 743.23,-144.18 717.98,-131.67"/>
<polygon fill="midnightblue" stroke="midnightblue" points="909.11,-228.81 919.64,-229.97 912.13,-222.5 909.11,-228.81"/>
</g>
<!-- Node3&#45;&gt;Node17 -->
<g id="edge18" class="edge">
<title>Node3&#45;&gt;Node17</title>
<path fill="none" stroke="midnightblue" d="M926.36,-221.51C919.07,-210.39 909.87,-196.34 904.08,-187.51"/>
<polygon fill="midnightblue" stroke="midnightblue" points="923.5,-223.53 931.91,-229.98 929.36,-219.69 923.5,-223.53"/>
</g>
<!-- Node20 -->
<g id="node20" class="node">
<title>Node20</title>
<g id="a_node20"><a xlink:href="intersection__book__loader_8h.html" target="_top" xlink:title=" ">
<polygon fill="white" stroke="black" points="973,-168.5 973,-187.5 1122,-187.5 1122,-168.5 973,-168.5"/>
<text text-anchor="middle" x="1047.5" y="-175.5" font-family="Helvetica,sans-Serif" font-size="10.00">intersection_book_loader.h</text>
</a>
</g>
</g>
<!-- Node3&#45;&gt;Node20 -->
<g id="edge21" class="edge">
<title>Node3&#45;&gt;Node20</title>
<path fill="none" stroke="midnightblue" d="M962.07,-225.21C983.37,-213.69 1013.57,-197.36 1031.77,-187.51"/>
<polygon fill="midnightblue" stroke="midnightblue" points="960.39,-222.14 953.26,-229.98 963.72,-228.3 960.39,-222.14"/>
</g>
<!-- Node5 -->
<g id="node5" class="node">
<title>Node5</title>
<g id="a_node5"><a xlink:href="road__network__validator_8h.html" target="_top" xlink:title=" ">
<polygon fill="white" stroke="black" points="515,-112.5 515,-131.5 656,-131.5 656,-112.5 515,-112.5"/>
<text text-anchor="middle" x="585.5" y="-119.5" font-family="Helvetica,sans-Serif" font-size="10.00">road_network_validator.h</text>
</a>
</g>
</g>
<!-- Node4&#45;&gt;Node5 -->
<g id="edge4" class="edge">
<title>Node4&#45;&gt;Node5</title>
<path fill="none" stroke="midnightblue" d="M530.08,-162.38C543.81,-152.62 561.43,-140.11 573.07,-131.83"/>
<polygon fill="midnightblue" stroke="midnightblue" points="527.84,-159.68 521.71,-168.32 531.89,-165.38 527.84,-159.68"/>
</g>
<!-- Node7 -->
<g id="node7" class="node">
<title>Node7</title>
<g id="a_node7"><a xlink:href="create__road__network_8h.html" target="_top" xlink:title=" ">
<polygon fill="white" stroke="black" points="222.5,-112.5 222.5,-131.5 350.5,-131.5 350.5,-112.5 222.5,-112.5"/>
<text text-anchor="middle" x="286.5" y="-119.5" font-family="Helvetica,sans-Serif" font-size="10.00">create_road_network.h</text>
</a>
</g>
</g>
<!-- Node4&#45;&gt;Node7 -->
<g id="edge6" class="edge">
<title>Node4&#45;&gt;Node7</title>
<path fill="none" stroke="midnightblue" d="M464.44,-166.09C422.31,-155.89 360.26,-140.86 321.67,-131.52"/>
<polygon fill="midnightblue" stroke="midnightblue" points="463.62,-169.49 474.16,-168.44 465.27,-162.69 463.62,-169.49"/>
</g>
<!-- Node9 -->
<g id="node9" class="node">
<title>Node9</title>
<g id="a_node9"><a xlink:href="road__network__loader_8h.html" target="_top" xlink:title=" ">
<polygon fill="white" stroke="black" points="368.5,-112.5 368.5,-131.5 496.5,-131.5 496.5,-112.5 368.5,-112.5"/>
<text text-anchor="middle" x="432.5" y="-119.5" font-family="Helvetica,sans-Serif" font-size="10.00">road_network_loader.h</text>
</a>
</g>
</g>
<!-- Node4&#45;&gt;Node9 -->
<g id="edge8" class="edge">
<title>Node4&#45;&gt;Node9</title>
<path fill="none" stroke="midnightblue" d="M488.6,-162.34C474.59,-152.52 456.62,-139.91 444.84,-131.65"/>
<polygon fill="midnightblue" stroke="midnightblue" points="486.93,-165.45 497.13,-168.32 490.95,-159.72 486.93,-165.45"/>
</g>
<!-- Node4&#45;&gt;Node10 -->
<g id="edge10" class="edge">
<title>Node4&#45;&gt;Node10</title>
<path fill="none" stroke="midnightblue" d="M549.8,-165.61C587.12,-155.06 641.55,-139.67 673.77,-130.56"/>
<polygon fill="midnightblue" stroke="midnightblue" points="548.44,-162.35 539.76,-168.44 550.34,-169.09 548.44,-162.35"/>
</g>
<!-- Node12 -->
<g id="node12" class="node">
<title>Node12</title>
<g id="a_node12"><a xlink:href="generate__obj_8h.html" target="_top" xlink:title=" ">
<polygon fill="white" stroke="black" points="115,-112.5 115,-131.5 204,-131.5 204,-112.5 115,-112.5"/>
<text text-anchor="middle" x="159.5" y="-119.5" font-family="Helvetica,sans-Serif" font-size="10.00">generate_obj.h</text>
</a>
</g>
</g>
<!-- Node4&#45;&gt;Node12 -->
<g id="edge12" class="edge">
<title>Node4&#45;&gt;Node12</title>
<path fill="none" stroke="midnightblue" d="M453.37,-168.71C393.81,-159.86 296.96,-145.3 213.5,-132 210.5,-131.52 207.4,-131.02 204.28,-130.51"/>
<polygon fill="midnightblue" stroke="midnightblue" points="452.92,-172.18 463.32,-170.19 453.95,-165.26 452.92,-172.18"/>
</g>
<!-- Node16 -->
<g id="node16" class="node">
<title>Node16</title>
<g id="a_node16"><a xlink:href="road__network_8cc.html" target="_top" xlink:title=" ">
<polygon fill="white" stroke="black" points="0,-112.5 0,-131.5 97,-131.5 97,-112.5 0,-112.5"/>
<text text-anchor="middle" x="48.5" y="-119.5" font-family="Helvetica,sans-Serif" font-size="10.00">road_network.cc</text>
</a>
</g>
</g>
<!-- Node4&#45;&gt;Node16 -->
<g id="edge17" class="edge">
<title>Node4&#45;&gt;Node16</title>
<path fill="none" stroke="midnightblue" d="M453.26,-171.55C375.12,-163.8 229.33,-148.66 105.5,-132 102.82,-131.64 100.07,-131.25 97.3,-130.85"/>
<polygon fill="midnightblue" stroke="midnightblue" points="453.07,-175.05 463.37,-172.55 453.76,-168.09 453.07,-175.05"/>
</g>
<!-- Node6 -->
<g id="node6" class="node">
<title>Node6</title>
<g id="a_node6"><a xlink:href="road__network__validator_8cc.html" target="_top" xlink:title=" ">
<polygon fill="white" stroke="black" points="512.5,-56.5 512.5,-75.5 658.5,-75.5 658.5,-56.5 512.5,-56.5"/>
<text text-anchor="middle" x="585.5" y="-63.5" font-family="Helvetica,sans-Serif" font-size="10.00">road_network_validator.cc</text>
</a>
</g>
</g>
<!-- Node5&#45;&gt;Node6 -->
<g id="edge5" class="edge">
<title>Node5&#45;&gt;Node6</title>
<path fill="none" stroke="midnightblue" d="M585.5,-101.8C585.5,-92.91 585.5,-82.78 585.5,-75.75"/>
<polygon fill="midnightblue" stroke="midnightblue" points="582,-102.08 585.5,-112.08 589,-102.08 582,-102.08"/>
</g>
<!-- Node8 -->
<g id="node8" class="node">
<title>Node8</title>
<g id="a_node8"><a xlink:href="create__road__network_8cc.html" target="_top" xlink:title=" ">
<polygon fill="white" stroke="black" points="312,-56.5 312,-75.5 445,-75.5 445,-56.5 312,-56.5"/>
<text text-anchor="middle" x="378.5" y="-63.5" font-family="Helvetica,sans-Serif" font-size="10.00">create_road_network.cc</text>
</a>
</g>
</g>
<!-- Node7&#45;&gt;Node8 -->
<g id="edge7" class="edge">
<title>Node7&#45;&gt;Node8</title>
<path fill="none" stroke="midnightblue" d="M310.05,-107.18C326.98,-97.24 349.28,-84.15 363.76,-75.65"/>
<polygon fill="midnightblue" stroke="midnightblue" points="308.13,-104.24 301.28,-112.32 311.68,-110.28 308.13,-104.24"/>
</g>
<!-- Node9&#45;&gt;Node8 -->
<g id="edge9" class="edge">
<title>Node9&#45;&gt;Node8</title>
<path fill="none" stroke="midnightblue" d="M416.5,-105C406.93,-95.43 395.14,-83.64 387.25,-75.75"/>
<polygon fill="midnightblue" stroke="midnightblue" points="414.04,-107.49 423.58,-112.08 418.99,-102.54 414.04,-107.49"/>
</g>
<!-- Node10&#45;&gt;Node11 -->
<g id="edge11" class="edge">
<title>Node10&#45;&gt;Node11</title>
<path fill="none" stroke="midnightblue" d="M710.35,-103.27C715.47,-94.05 721.52,-83.17 725.64,-75.75"/>
<polygon fill="midnightblue" stroke="midnightblue" points="707.25,-101.64 705.45,-112.08 713.37,-105.04 707.25,-101.64"/>
</g>
<!-- Node13 -->
<g id="node13" class="node">
<title>Node13</title>
<g id="a_node13"><a xlink:href="generate__urdf_8h.html" target="_top" xlink:title=" ">
<polygon fill="white" stroke="black" points="1,-56.5 1,-75.5 94,-75.5 94,-56.5 1,-56.5"/>
<text text-anchor="middle" x="47.5" y="-63.5" font-family="Helvetica,sans-Serif" font-size="10.00">generate_urdf.h</text>
</a>
</g>
</g>
<!-- Node12&#45;&gt;Node13 -->
<g id="edge13" class="edge">
<title>Node12&#45;&gt;Node13</title>
<path fill="none" stroke="midnightblue" d="M132.25,-107.86C111.48,-97.85 83.48,-84.35 65.45,-75.65"/>
<polygon fill="midnightblue" stroke="midnightblue" points="130.98,-111.13 141.51,-112.32 134.02,-104.83 130.98,-111.13"/>
</g>
<!-- Node14 -->
<g id="node14" class="node">
<title>Node14</title>
<g id="a_node14"><a xlink:href="generate__urdf_8cc.html" target="_top" xlink:title=" ">
<polygon fill="white" stroke="black" points="91.5,-0.5 91.5,-19.5 189.5,-19.5 189.5,-0.5 91.5,-0.5"/>
<text text-anchor="middle" x="140.5" y="-7.5" font-family="Helvetica,sans-Serif" font-size="10.00">generate_urdf.cc</text>
</a>
</g>
</g>
<!-- Node12&#45;&gt;Node14 -->
<g id="edge16" class="edge">
<title>Node12&#45;&gt;Node14</title>
<path fill="none" stroke="midnightblue" d="M185.33,-107.23C204.89,-94.86 226.64,-75.67 215.5,-56 205.33,-38.03 184.79,-26.45 167.78,-19.55"/>
<polygon fill="midnightblue" stroke="midnightblue" points="183.43,-104.29 176.63,-112.41 187.01,-110.3 183.43,-104.29"/>
</g>
<!-- Node15 -->
<g id="node15" class="node">
<title>Node15</title>
<g id="a_node15"><a xlink:href="generate__obj_8cc.html" target="_top" xlink:title=" ">
<polygon fill="white" stroke="black" points="112.5,-56.5 112.5,-75.5 206.5,-75.5 206.5,-56.5 112.5,-56.5"/>
<text text-anchor="middle" x="159.5" y="-63.5" font-family="Helvetica,sans-Serif" font-size="10.00">generate_obj.cc</text>
</a>
</g>
</g>
<!-- Node12&#45;&gt;Node15 -->
<g id="edge15" class="edge">
<title>Node12&#45;&gt;Node15</title>
<path fill="none" stroke="midnightblue" d="M159.5,-101.8C159.5,-92.91 159.5,-82.78 159.5,-75.75"/>
<polygon fill="midnightblue" stroke="midnightblue" points="156,-102.08 159.5,-112.08 163,-102.08 156,-102.08"/>
</g>
<!-- Node13&#45;&gt;Node14 -->
<g id="edge14" class="edge">
<title>Node13&#45;&gt;Node14</title>
<path fill="none" stroke="midnightblue" d="M71.31,-51.18C88.42,-41.24 110.97,-28.15 125.6,-19.65"/>
<polygon fill="midnightblue" stroke="midnightblue" points="69.33,-48.28 62.44,-56.32 72.85,-54.33 69.33,-48.28"/>
</g>
<!-- Node18 -->
<g id="node18" class="node">
<title>Node18</title>
<g id="a_node18"><a xlink:href="intersection__book_8cc.html" target="_top" xlink:title=" ">
<polygon fill="white" stroke="black" points="838,-112.5 838,-131.5 955,-131.5 955,-112.5 838,-112.5"/>
<text text-anchor="middle" x="896.5" y="-119.5" font-family="Helvetica,sans-Serif" font-size="10.00">intersection_book.cc</text>
</a>
</g>
</g>
<!-- Node17&#45;&gt;Node18 -->
<g id="edge19" class="edge">
<title>Node17&#45;&gt;Node18</title>
<path fill="none" stroke="midnightblue" d="M897.79,-157.8C897.46,-148.91 897.08,-138.78 896.82,-131.75"/>
<polygon fill="midnightblue" stroke="midnightblue" points="894.3,-158.22 898.17,-168.08 901.3,-157.96 894.3,-158.22"/>
</g>
<!-- Node19 -->
<g id="node19" class="node">
<title>Node19</title>
<g id="a_node19"><a xlink:href="intersection__book__loader_8cc.html" target="_top" xlink:title=" ">
<polygon fill="white" stroke="black" points="973,-112.5 973,-131.5 1126,-131.5 1126,-112.5 973,-112.5"/>
<text text-anchor="middle" x="1049.5" y="-119.5" font-family="Helvetica,sans-Serif" font-size="10.00">intersection_book_loader.cc</text>
</a>
</g>
</g>
<!-- Node17&#45;&gt;Node19 -->
<g id="edge20" class="edge">
<title>Node17&#45;&gt;Node19</title>
<path fill="none" stroke="midnightblue" d="M931.95,-165.04C960.36,-154.88 1000.44,-140.55 1025.69,-131.52"/>
<polygon fill="midnightblue" stroke="midnightblue" points="930.66,-161.78 922.43,-168.44 933.02,-168.37 930.66,-161.78"/>
</g>
<!-- Node20&#45;&gt;Node19 -->
<g id="edge22" class="edge">
<title>Node20&#45;&gt;Node19</title>
<path fill="none" stroke="midnightblue" d="M1048.21,-157.8C1048.54,-148.91 1048.92,-138.78 1049.18,-131.75"/>
<polygon fill="midnightblue" stroke="midnightblue" points="1044.7,-157.96 1047.83,-168.08 1051.7,-158.22 1044.7,-157.96"/>
</g>
<!-- Node21&#45;&gt;Node19 -->
<g id="edge26" class="edge">
<title>Node21&#45;&gt;Node19</title>
<path fill="none" stroke="midnightblue" d="M1165.37,-226.49C1193.01,-216.19 1228.3,-200.99 1236.5,-188 1241.24,-180.48 1242,-174.98 1236.5,-168 1222.37,-150.07 1169.98,-138.45 1124.23,-131.52"/>
<polygon fill="midnightblue" stroke="midnightblue" points="1164.17,-223.21 1155.97,-229.92 1166.57,-229.78 1164.17,-223.21"/>
</g>
<!-- Node22 -->
<g id="node22" class="node">
<title>Node22</title>
<g id="a_node22"><a xlink:href="base_2intersection_8cc.html" target="_top" xlink:title=" ">
<polygon fill="white" stroke="black" points="1139.5,-168.5 1139.5,-187.5 1227.5,-187.5 1227.5,-168.5 1139.5,-168.5"/>
<text text-anchor="middle" x="1183.5" y="-175.5" font-family="Helvetica,sans-Serif" font-size="10.00">intersection.cc</text>
</a>
</g>
</g>
<!-- Node21&#45;&gt;Node22 -->
<g id="edge25" class="edge">
<title>Node21&#45;&gt;Node22</title>
<path fill="none" stroke="midnightblue" d="M1144.75,-222.5C1154.79,-211.24 1167.82,-196.6 1175.92,-187.51"/>
<polygon fill="midnightblue" stroke="midnightblue" points="1142.13,-220.18 1138.09,-229.98 1147.36,-224.84 1142.13,-220.18"/>
</g>
<!-- Node24&#45;&gt;Node20 -->
<g id="edge34" class="edge">
<title>Node24&#45;&gt;Node20</title>
<path fill="none" stroke="midnightblue" d="M1111.66,-290.12C1101.15,-280.8 1088.42,-268.2 1079.5,-255 1064.43,-232.7 1054.23,-202.17 1049.88,-187.52"/>
<polygon fill="midnightblue" stroke="midnightblue" points="1109.62,-292.99 1119.49,-296.84 1114.18,-287.67 1109.62,-292.99"/>
</g>
<!-- Node24&#45;&gt;Node21 -->
<g id="edge33" class="edge">
<title>Node24&#45;&gt;Node21</title>
<path fill="none" stroke="midnightblue" d="M1130.5,-286.54C1130.5,-274.17 1130.5,-258.62 1130.5,-249.13"/>
<polygon fill="midnightblue" stroke="midnightblue" points="1127,-286.73 1130.5,-296.73 1134,-286.73 1127,-286.73"/>
</g>
<!-- Node25 -->
<g id="node25" class="node">
<title>Node25</title>
<g id="a_node25"><a xlink:href="manual__phase__provider_8cc.html" target="_top" xlink:title=" ">
<polygon fill="white" stroke="black" points="1190,-230 1190,-249 1337,-249 1337,-230 1190,-230"/>
<text text-anchor="middle" x="1263.5" y="-237" font-family="Helvetica,sans-Serif" font-size="10.00">manual_phase_provider.cc</text>
</a>
</g>
</g>
<!-- Node24&#45;&gt;Node25 -->
<g id="edge35" class="edge">
<title>Node24&#45;&gt;Node25</title>
<path fill="none" stroke="midnightblue" d="M1157.22,-292.44C1183.56,-279.57 1223.07,-260.26 1245.77,-249.17"/>
<polygon fill="midnightblue" stroke="midnightblue" points="1155.61,-289.33 1148.16,-296.87 1158.68,-295.62 1155.61,-289.33"/>
</g>
<!-- Node27 -->
<g id="node27" class="node">
<title>Node27</title>
<g id="a_node27"><a xlink:href="phase__based__right__of__way__rule__state__provider_8cc.html" target="_top" xlink:title=" ">
<polygon fill="white" stroke="black" points="1355,-224.5 1355,-254.5 1510,-254.5 1510,-224.5 1355,-224.5"/>
<text text-anchor="start" x="1363" y="-242.5" font-family="Helvetica,sans-Serif" font-size="10.00">phase_based_right_of</text>
<text text-anchor="middle" x="1432.5" y="-231.5" font-family="Helvetica,sans-Serif" font-size="10.00">_way_rule_state_provider.cc</text>
</a>
</g>
</g>
<!-- Node26&#45;&gt;Node27 -->
<g id="edge37" class="edge">
<title>Node26&#45;&gt;Node27</title>
<path fill="none" stroke="midnightblue" d="M1385.99,-284.31C1396.34,-274.56 1408.34,-263.26 1417.56,-254.58"/>
<polygon fill="midnightblue" stroke="midnightblue" points="1383.35,-281.99 1378.47,-291.4 1388.15,-287.09 1383.35,-281.99"/>
</g>
<!-- Node29 -->
<g id="node29" class="node">
<title>Node29</title>
<g id="a_node29"><a xlink:href="phased__discrete__rule__state__provider_8cc.html" target="_top" xlink:title=" ">
<polygon fill="white" stroke="black" points="1528.5,-224.5 1528.5,-254.5 1648.5,-254.5 1648.5,-224.5 1528.5,-224.5"/>
<text text-anchor="start" x="1536.5" y="-242.5" font-family="Helvetica,sans-Serif" font-size="10.00">phased_discrete_rule</text>
<text text-anchor="middle" x="1588.5" y="-231.5" font-family="Helvetica,sans-Serif" font-size="10.00">_state_provider.cc</text>
</a>
</g>
</g>
<!-- Node28&#45;&gt;Node29 -->
<g id="edge39" class="edge">
<title>Node28&#45;&gt;Node29</title>
<path fill="none" stroke="midnightblue" d="M1565.2,-282.58C1570.37,-273.24 1576.18,-262.75 1580.7,-254.58"/>
<polygon fill="midnightblue" stroke="midnightblue" points="1562.09,-280.95 1560.31,-291.4 1568.22,-284.34 1562.09,-280.95"/>
</g>
</g>
</svg>
