<?xml version="1.0" encoding="UTF-8" standalone="no"?>
<!DOCTYPE svg PUBLIC "-//W3C//DTD SVG 1.1//EN"
 "http://www.w3.org/Graphics/SVG/1.1/DTD/svg11.dtd">
<!-- Generated by graphviz version 2.43.0 (0)
 -->
<!-- Title: phase_based_right_of_way_discrete_value_rule_state_provider.h Pages: 1 -->
<svg width="3235pt" height="966pt"
 viewBox="0.00 0.00 3234.66 966.00" xmlns="http://www.w3.org/2000/svg" xmlns:xlink="http://www.w3.org/1999/xlink">
<g id="graph0" class="graph" transform="scale(1 1) rotate(0) translate(4 962)">
<title>phase_based_right_of_way_discrete_value_rule_state_provider.h</title>
<polygon fill="white" stroke="transparent" points="-4,4 -4,-962 3230.66,-962 3230.66,4 -4,4"/>
<!-- Node1 -->
<g id="node1" class="node">
<title>Node1</title>
<g id="a_node1"><a xlink:title=" ">
<polygon fill="#bfbfbf" stroke="black" points="437.16,-916.5 437.16,-957.5 580.16,-957.5 580.16,-916.5 437.16,-916.5"/>
<text text-anchor="start" x="445.16" y="-945.5" font-family="Helvetica,sans-Serif" font-size="10.00">phase_based_right_of</text>
<text text-anchor="start" x="445.16" y="-934.5" font-family="Helvetica,sans-Serif" font-size="10.00">_way_discrete_value_rule</text>
<text text-anchor="middle" x="508.66" y="-923.5" font-family="Helvetica,sans-Serif" font-size="10.00">_state_provider.h</text>
</a>
</g>
</g>
<!-- Node2 -->
<g id="node2" class="node">
<title>Node2</title>
<g id="a_node2"><a xlink:title=" ">
<polygon fill="white" stroke="#bfbfbf" points="237.66,-246.5 237.66,-265.5 293.66,-265.5 293.66,-246.5 237.66,-246.5"/>
<text text-anchor="middle" x="265.66" y="-253.5" font-family="Helvetica,sans-Serif" font-size="10.00">optional</text>
</a>
</g>
</g>
<!-- Node1&#45;&gt;Node2 -->
<g id="edge1" class="edge">
<title>Node1&#45;&gt;Node2</title>
<path fill="none" stroke="midnightblue" d="M436.83,-932.09C309.66,-924.52 55.34,-906.28 24.66,-880 -5.8,-853.9 0.66,-833.11 0.66,-793 0.66,-793 0.66,-793 0.66,-383.5 0.66,-284.38 153.53,-262.85 227.06,-258.23"/>
<polygon fill="midnightblue" stroke="midnightblue" points="227.51,-261.71 237.3,-257.66 227.13,-254.72 227.51,-261.71"/>
</g>
<!-- Node3 -->
<g id="node3" class="node">
<title>Node3</title>
<g id="a_node3"><a xlink:href="discrete__value__rule__state__provider_8h.html" target="_top" xlink:title=" ">
<polygon fill="white" stroke="black" points="402.66,-704.5 402.66,-734.5 560.66,-734.5 560.66,-704.5 402.66,-704.5"/>
<text text-anchor="start" x="410.66" y="-722.5" font-family="Helvetica,sans-Serif" font-size="10.00">maliput/api/rules/discrete</text>
<text text-anchor="middle" x="481.66" y="-711.5" font-family="Helvetica,sans-Serif" font-size="10.00">_value_rule_state_provider.h</text>
</a>
</g>
</g>
<!-- Node1&#45;&gt;Node3 -->
<g id="edge2" class="edge">
<title>Node1&#45;&gt;Node3</title>
<path fill="none" stroke="midnightblue" d="M506.22,-916.5C501.28,-877.04 490.1,-787.84 484.7,-744.73"/>
<polygon fill="midnightblue" stroke="midnightblue" points="488.14,-744.07 483.43,-734.58 481.2,-744.94 488.14,-744.07"/>
</g>
<!-- Node15 -->
<g id="node15" class="node">
<title>Node15</title>
<g id="a_node15"><a xlink:href="maliput__copyable_8h.html" target="_top" xlink:title=" ">
<polygon fill="white" stroke="black" points="1662.66,-179.5 1662.66,-209.5 1802.66,-209.5 1802.66,-179.5 1662.66,-179.5"/>
<text text-anchor="start" x="1670.66" y="-197.5" font-family="Helvetica,sans-Serif" font-size="10.00">maliput/common/maliput</text>
<text text-anchor="middle" x="1732.66" y="-186.5" font-family="Helvetica,sans-Serif" font-size="10.00">_copyable.h</text>
</a>
</g>
</g>
<!-- Node1&#45;&gt;Node15 -->
<g id="edge177" class="edge">
<title>Node1&#45;&gt;Node15</title>
<path fill="none" stroke="midnightblue" d="M437.02,-929.21C305.45,-914.74 38.66,-875.25 38.66,-793 38.66,-793 38.66,-793 38.66,-718.5 38.66,-489.69 213.63,-474.5 416.66,-369 497.23,-327.13 523.3,-330.05 609.66,-302 691.37,-275.46 710.05,-260.86 794.66,-246 958.38,-217.25 1456.14,-202.26 1652.14,-197.35"/>
<polygon fill="midnightblue" stroke="midnightblue" points="1652.45,-200.85 1662.36,-197.1 1652.28,-193.85 1652.45,-200.85"/>
</g>
<!-- Node32 -->
<g id="node32" class="node">
<title>Node32</title>
<g id="a_node32"><a xlink:href="rule_8h.html" target="_top" xlink:title=" ">
<polygon fill="white" stroke="black" points="1227.66,-576 1227.66,-595 1357.66,-595 1357.66,-576 1227.66,-576"/>
<text text-anchor="middle" x="1292.66" y="-583" font-family="Helvetica,sans-Serif" font-size="10.00">maliput/api/rules/rule.h</text>
</a>
</g>
</g>
<!-- Node1&#45;&gt;Node32 -->
<g id="edge167" class="edge">
<title>Node1&#45;&gt;Node32</title>
<path fill="none" stroke="midnightblue" d="M580.19,-930.88C778.14,-915.77 1318.66,-867.66 1318.66,-793 1318.66,-793 1318.66,-793 1318.66,-718.5 1318.66,-677.2 1306.26,-629.97 1298.58,-604.71"/>
<polygon fill="midnightblue" stroke="midnightblue" points="1301.88,-603.53 1295.54,-595.03 1295.2,-605.62 1301.88,-603.53"/>
</g>
<!-- Node35 -->
<g id="node35" class="node">
<title>Node35</title>
<g id="a_node35"><a xlink:href="phase__provider_8h.html" target="_top" xlink:title=" ">
<polygon fill="white" stroke="black" points="305.16,-849.5 305.16,-879.5 436.16,-879.5 436.16,-849.5 305.16,-849.5"/>
<text text-anchor="start" x="313.16" y="-867.5" font-family="Helvetica,sans-Serif" font-size="10.00">maliput/api/rules/phase</text>
<text text-anchor="middle" x="370.66" y="-856.5" font-family="Helvetica,sans-Serif" font-size="10.00">_provider.h</text>
</a>
</g>
</g>
<!-- Node1&#45;&gt;Node35 -->
<g id="edge88" class="edge">
<title>Node1&#45;&gt;Node35</title>
<path fill="none" stroke="midnightblue" d="M470.22,-916.36C450.62,-906.35 426.9,-894.23 407.52,-884.33"/>
<polygon fill="midnightblue" stroke="midnightblue" points="408.9,-881.1 398.4,-879.67 405.71,-887.34 408.9,-881.1"/>
</g>
<!-- Node43 -->
<g id="node43" class="node">
<title>Node43</title>
<g id="a_node43"><a xlink:href="phase__ring__book_8h.html" target="_top" xlink:title=" ">
<polygon fill="white" stroke="black" points="1386.16,-849.5 1386.16,-879.5 1517.16,-879.5 1517.16,-849.5 1386.16,-849.5"/>
<text text-anchor="start" x="1394.16" y="-867.5" font-family="Helvetica,sans-Serif" font-size="10.00">maliput/api/rules/phase</text>
<text text-anchor="middle" x="1451.66" y="-856.5" font-family="Helvetica,sans-Serif" font-size="10.00">_ring_book.h</text>
</a>
</g>
</g>
<!-- Node1&#45;&gt;Node43 -->
<g id="edge131" class="edge">
<title>Node1&#45;&gt;Node43</title>
<path fill="none" stroke="midnightblue" d="M580.41,-932.42C723.62,-924.98 1055.02,-906.33 1332.66,-880 1346.58,-878.68 1361.4,-877.05 1375.67,-875.37"/>
<polygon fill="midnightblue" stroke="midnightblue" points="1376.44,-878.81 1385.95,-874.14 1375.61,-871.86 1376.44,-878.81"/>
</g>
<!-- Node44 -->
<g id="node44" class="node">
<title>Node44</title>
<g id="a_node44"><a xlink:href="road__rulebook_8h.html" target="_top" xlink:title=" ">
<polygon fill="white" stroke="black" points="2039.66,-704.5 2039.66,-734.5 2163.66,-734.5 2163.66,-704.5 2039.66,-704.5"/>
<text text-anchor="start" x="2047.66" y="-722.5" font-family="Helvetica,sans-Serif" font-size="10.00">maliput/api/rules/road</text>
<text text-anchor="middle" x="2101.66" y="-711.5" font-family="Helvetica,sans-Serif" font-size="10.00">_rulebook.h</text>
</a>
</g>
</g>
<!-- Node1&#45;&gt;Node44 -->
<g id="edge139" class="edge">
<title>Node1&#45;&gt;Node44</title>
<path fill="none" stroke="midnightblue" d="M580.4,-934.08C746.93,-929.19 1172.53,-914.14 1526.66,-880 1743.26,-859.12 1817.48,-911.2 2011.66,-813 2043.65,-796.83 2070.8,-764.75 2086.67,-742.96"/>
<polygon fill="midnightblue" stroke="midnightblue" points="2089.66,-744.79 2092.57,-734.61 2083.94,-740.75 2089.66,-744.79"/>
</g>
<!-- Node48 -->
<g id="node48" class="node">
<title>Node48</title>
<g id="a_node48"><a xlink:href="manual__discrete__value__rule__state__provider_8h.html" target="_top" xlink:title=" ">
<polygon fill="white" stroke="black" points="680.66,-771.5 680.66,-812.5 800.66,-812.5 800.66,-771.5 680.66,-771.5"/>
<text text-anchor="start" x="688.66" y="-800.5" font-family="Helvetica,sans-Serif" font-size="10.00">maliput/base/manual</text>
<text text-anchor="start" x="688.66" y="-789.5" font-family="Helvetica,sans-Serif" font-size="10.00">_discrete_value_rule</text>
<text text-anchor="middle" x="740.66" y="-778.5" font-family="Helvetica,sans-Serif" font-size="10.00">_state_provider.h</text>
</a>
</g>
</g>
<!-- Node1&#45;&gt;Node48 -->
<g id="edge168" class="edge">
<title>Node1&#45;&gt;Node48</title>
<path fill="none" stroke="midnightblue" d="M540.44,-916.42C581.97,-890.82 654.76,-845.95 700.2,-817.94"/>
<polygon fill="midnightblue" stroke="midnightblue" points="702.23,-820.8 708.9,-812.58 698.55,-814.84 702.23,-820.8"/>
</g>
<!-- Node3&#45;&gt;Node2 -->
<g id="edge3" class="edge">
<title>Node3&#45;&gt;Node2</title>
<path fill="none" stroke="midnightblue" d="M468.07,-704.49C428.47,-662.61 313.26,-532.96 270.66,-400 257,-357.36 260.1,-303.87 263.13,-275.95"/>
<polygon fill="midnightblue" stroke="midnightblue" points="266.65,-276 264.37,-265.66 259.7,-275.16 266.65,-276"/>
</g>
<!-- Node4 -->
<g id="node4" class="node">
<title>Node4</title>
<g id="a_node4"><a xlink:href="discrete__value__rule_8h.html" target="_top" xlink:title=" ">
<polygon fill="white" stroke="black" points="1111.16,-637.5 1111.16,-667.5 1252.16,-667.5 1252.16,-637.5 1111.16,-637.5"/>
<text text-anchor="start" x="1119.16" y="-655.5" font-family="Helvetica,sans-Serif" font-size="10.00">maliput/api/rules/discrete</text>
<text text-anchor="middle" x="1181.66" y="-644.5" font-family="Helvetica,sans-Serif" font-size="10.00">_value_rule.h</text>
</a>
</g>
</g>
<!-- Node3&#45;&gt;Node4 -->
<g id="edge4" class="edge">
<title>Node3&#45;&gt;Node4</title>
<path fill="none" stroke="midnightblue" d="M560.94,-711.14C695.08,-698.68 965.38,-673.58 1100.67,-661.02"/>
<polygon fill="midnightblue" stroke="midnightblue" points="1101.33,-664.47 1110.96,-660.07 1100.68,-657.5 1101.33,-664.47"/>
</g>
<!-- Node3&#45;&gt;Node15 -->
<g id="edge87" class="edge">
<title>Node3&#45;&gt;Node15</title>
<path fill="none" stroke="midnightblue" d="M489.92,-704.39C502.91,-680.81 526.66,-631.53 526.66,-586.5 526.66,-586.5 526.66,-586.5 526.66,-517.5 526.66,-399.9 645.45,-430.55 745.66,-369 867.76,-294.01 902.95,-273.03 1043.66,-246 1260.98,-204.25 1522.94,-196.45 1652.31,-195.35"/>
<polygon fill="midnightblue" stroke="midnightblue" points="1652.55,-198.85 1662.52,-195.27 1652.5,-191.85 1652.55,-198.85"/>
</g>
<!-- Node3&#45;&gt;Node32 -->
<g id="edge84" class="edge">
<title>Node3&#45;&gt;Node32</title>
<path fill="none" stroke="midnightblue" d="M560.9,-705.6C721.95,-679.39 1084.54,-620.38 1230.27,-596.65"/>
<polygon fill="midnightblue" stroke="midnightblue" points="1231.08,-600.07 1240.38,-595.01 1229.95,-593.16 1231.08,-600.07"/>
</g>
<!-- Node34 -->
<g id="node34" class="node">
<title>Node34</title>
<g id="a_node34"><a xlink:href="state__provider__result_8h.html" target="_top" xlink:title=" ">
<polygon fill="white" stroke="black" points="105.16,-637.5 105.16,-667.5 232.16,-667.5 232.16,-637.5 105.16,-637.5"/>
<text text-anchor="start" x="113.16" y="-655.5" font-family="Helvetica,sans-Serif" font-size="10.00">maliput/api/rules/state</text>
<text text-anchor="middle" x="168.66" y="-644.5" font-family="Helvetica,sans-Serif" font-size="10.00">_provider_result.h</text>
</a>
</g>
</g>
<!-- Node3&#45;&gt;Node34 -->
<g id="edge85" class="edge">
<title>Node3&#45;&gt;Node34</title>
<path fill="none" stroke="midnightblue" d="M414.13,-704.48C363.48,-693.96 294.22,-679.57 242.17,-668.77"/>
<polygon fill="midnightblue" stroke="midnightblue" points="242.84,-665.33 232.34,-666.72 241.42,-672.18 242.84,-665.33"/>
</g>
<!-- Node5 -->
<g id="node5" class="node">
<title>Node5</title>
<g id="a_node5"><a xlink:title=" ">
<polygon fill="white" stroke="#bfbfbf" points="799.66,-0.5 799.66,-19.5 843.66,-19.5 843.66,-0.5 799.66,-0.5"/>
<text text-anchor="middle" x="821.66" y="-7.5" font-family="Helvetica,sans-Serif" font-size="10.00">string</text>
</a>
</g>
</g>
<!-- Node4&#45;&gt;Node5 -->
<g id="edge5" class="edge">
<title>Node4&#45;&gt;Node5</title>
<path fill="none" stroke="midnightblue" d="M1110.92,-638.08C939.83,-601.11 517.66,-480.96 517.66,-195.5 517.66,-195.5 517.66,-195.5 517.66,-132 517.66,-92.05 532.48,-78.25 565.66,-56 601.81,-31.76 728.86,-18.5 789.28,-13.43"/>
<polygon fill="midnightblue" stroke="midnightblue" points="789.72,-16.91 799.4,-12.61 789.15,-9.93 789.72,-16.91"/>
</g>
<!-- Node6 -->
<g id="node6" class="node">
<title>Node6</title>
<g id="a_node6"><a xlink:title=" ">
<polygon fill="white" stroke="#bfbfbf" points="2027.16,-246.5 2027.16,-265.5 2074.16,-265.5 2074.16,-246.5 2027.16,-246.5"/>
<text text-anchor="middle" x="2050.66" y="-253.5" font-family="Helvetica,sans-Serif" font-size="10.00">vector</text>
</a>
</g>
</g>
<!-- Node4&#45;&gt;Node6 -->
<g id="edge6" class="edge">
<title>Node4&#45;&gt;Node6</title>
<path fill="none" stroke="midnightblue" d="M1252.22,-650.7C1480.07,-647.76 2183.42,-635.91 2216.66,-601 2246.69,-569.48 2270.52,-670.43 2074.66,-302 2069.88,-293 2064.54,-282.99 2060.12,-274.7"/>
<polygon fill="midnightblue" stroke="midnightblue" points="2063.07,-272.8 2055.27,-265.62 2056.89,-276.09 2063.07,-272.8"/>
</g>
<!-- Node7 -->
<g id="node7" class="node">
<title>Node7</title>
<g id="a_node7"><a xlink:href="regions_8h.html" target="_top" xlink:title=" ">
<polygon fill="white" stroke="black" points="1630.66,-509 1630.66,-528 1750.66,-528 1750.66,-509 1630.66,-509"/>
<text text-anchor="middle" x="1690.66" y="-516" font-family="Helvetica,sans-Serif" font-size="10.00">maliput/api/regions.h</text>
</a>
</g>
</g>
<!-- Node4&#45;&gt;Node7 -->
<g id="edge7" class="edge">
<title>Node4&#45;&gt;Node7</title>
<path fill="none" stroke="midnightblue" d="M1240.1,-637.4C1276.76,-628.1 1324.85,-615.07 1366.66,-601 1401.63,-589.23 1408.34,-580.63 1443.66,-570 1503.66,-551.95 1573.78,-538.3 1623.95,-529.77"/>
<polygon fill="midnightblue" stroke="midnightblue" points="1624.74,-533.18 1634.03,-528.08 1623.59,-526.28 1624.74,-533.18"/>
</g>
<!-- Node4&#45;&gt;Node15 -->
<g id="edge83" class="edge">
<title>Node4&#45;&gt;Node15</title>
<path fill="none" stroke="midnightblue" d="M1162.39,-637.26C1105.37,-593.48 946.22,-458.42 1024.66,-369 1065.16,-322.83 1240.21,-351.84 1298.66,-333 1337.56,-320.47 1422.12,-259.56 1460.66,-246 1523.26,-223.98 1597.51,-211.02 1652.6,-203.76"/>
<polygon fill="midnightblue" stroke="midnightblue" points="1653.19,-207.21 1662.66,-202.46 1652.3,-200.27 1653.19,-207.21"/>
</g>
<!-- Node4&#45;&gt;Node32 -->
<g id="edge71" class="edge">
<title>Node4&#45;&gt;Node32</title>
<path fill="none" stroke="midnightblue" d="M1205.75,-637.4C1224.62,-626.34 1250.72,-611.06 1269.38,-600.13"/>
<polygon fill="midnightblue" stroke="midnightblue" points="1271.28,-603.08 1278.14,-595.01 1267.74,-597.04 1271.28,-603.08"/>
</g>
<!-- Node7&#45;&gt;Node2 -->
<g id="edge10" class="edge">
<title>Node7&#45;&gt;Node2</title>
<path fill="none" stroke="midnightblue" d="M1630.53,-514.79C1468.88,-506.64 1012.04,-477.93 640.66,-400 537.71,-378.4 511.32,-372.09 413.66,-333 368.13,-314.78 317.88,-287.29 289.21,-270.85"/>
<polygon fill="midnightblue" stroke="midnightblue" points="290.76,-267.7 280.35,-265.72 287.26,-273.76 290.76,-267.7"/>
</g>
<!-- Node7&#45;&gt;Node6 -->
<g id="edge11" class="edge">
<title>Node7&#45;&gt;Node6</title>
<path fill="none" stroke="midnightblue" d="M1734.09,-508.95C1744.13,-506.99 1754.77,-504.91 1764.66,-503 1806.64,-494.89 1925.71,-499.35 1953.66,-467 2001.65,-411.46 1920.76,-363.61 1960.66,-302 1973.34,-282.43 1997.26,-271.04 2017.25,-264.61"/>
<polygon fill="midnightblue" stroke="midnightblue" points="2018.36,-267.93 2026.98,-261.76 2016.39,-261.21 2018.36,-267.93"/>
</g>
<!-- Node8 -->
<g id="node8" class="node">
<title>Node8</title>
<g id="a_node8"><a xlink:title=" ">
<polygon fill="white" stroke="#bfbfbf" points="2378.16,-185 2378.16,-204 2425.16,-204 2425.16,-185 2378.16,-185"/>
<text text-anchor="middle" x="2401.66" y="-192" font-family="Helvetica,sans-Serif" font-size="10.00">cmath</text>
</a>
</g>
</g>
<!-- Node7&#45;&gt;Node8 -->
<g id="edge8" class="edge">
<title>Node7&#45;&gt;Node8</title>
<path fill="none" stroke="midnightblue" d="M1750.97,-511.9C1949.47,-493.17 2571.43,-432.12 2599.66,-400 2628,-367.76 2568.61,-312.42 2558.66,-302 2537.34,-279.65 2462.95,-232.86 2424.73,-209.46"/>
<polygon fill="midnightblue" stroke="midnightblue" points="2426.2,-206.26 2415.84,-204.04 2422.56,-212.24 2426.2,-206.26"/>
</g>
<!-- Node9 -->
<g id="node9" class="node">
<title>Node9</title>
<g id="a_node9"><a xlink:title=" ">
<polygon fill="white" stroke="#bfbfbf" points="1888.66,-442 1888.66,-461 1944.66,-461 1944.66,-442 1888.66,-442"/>
<text text-anchor="middle" x="1916.66" y="-449" font-family="Helvetica,sans-Serif" font-size="10.00">numeric</text>
</a>
</g>
</g>
<!-- Node7&#45;&gt;Node9 -->
<g id="edge9" class="edge">
<title>Node7&#45;&gt;Node9</title>
<path fill="none" stroke="midnightblue" d="M1724.43,-508.93C1761.48,-499.37 1822.61,-483.11 1874.66,-467 1877.43,-466.14 1880.28,-465.23 1883.14,-464.29"/>
<polygon fill="midnightblue" stroke="midnightblue" points="1884.4,-467.56 1892.76,-461.05 1882.17,-460.92 1884.4,-467.56"/>
</g>
<!-- Node10 -->
<g id="node10" class="node">
<title>Node10</title>
<g id="a_node10"><a xlink:href="api_2lane_8h.html" target="_top" xlink:title=" ">
<polygon fill="white" stroke="black" points="1727.16,-442 1727.16,-461 1832.16,-461 1832.16,-442 1727.16,-442"/>
<text text-anchor="middle" x="1779.66" y="-449" font-family="Helvetica,sans-Serif" font-size="10.00">maliput/api/lane.h</text>
</a>
</g>
</g>
<!-- Node7&#45;&gt;Node10 -->
<g id="edge12" class="edge">
<title>Node7&#45;&gt;Node10</title>
<path fill="none" stroke="midnightblue" d="M1702.67,-508.73C1717.21,-498.11 1741.94,-480.05 1759.45,-467.26"/>
<polygon fill="midnightblue" stroke="midnightblue" points="1761.84,-469.85 1767.85,-461.13 1757.71,-464.2 1761.84,-469.85"/>
</g>
<!-- Node7&#45;&gt;Node15 -->
<g id="edge70" class="edge">
<title>Node7&#45;&gt;Node15</title>
<path fill="none" stroke="midnightblue" d="M1733.74,-508.92C1773.68,-500 1828.82,-484.83 1841.66,-467 1858.5,-443.62 1879.02,-365.83 1801.66,-246 1793.63,-233.56 1781.38,-223.14 1769.41,-215.06"/>
<polygon fill="midnightblue" stroke="midnightblue" points="1771.13,-212.01 1760.82,-209.6 1767.38,-217.92 1771.13,-212.01"/>
</g>
<!-- Node26 -->
<g id="node26" class="node">
<title>Node26</title>
<g id="a_node26"><a xlink:href="type__specific__identifier_8h.html" target="_top" xlink:title=" ">
<polygon fill="white" stroke="black" points="1464.66,-369.5 1464.66,-399.5 1604.66,-399.5 1604.66,-369.5 1464.66,-369.5"/>
<text text-anchor="start" x="1472.66" y="-387.5" font-family="Helvetica,sans-Serif" font-size="10.00">maliput/api/type_specific</text>
<text text-anchor="middle" x="1534.66" y="-376.5" font-family="Helvetica,sans-Serif" font-size="10.00">_identifier.h</text>
</a>
</g>
</g>
<!-- Node7&#45;&gt;Node26 -->
<g id="edge69" class="edge">
<title>Node7&#45;&gt;Node26</title>
<path fill="none" stroke="midnightblue" d="M1680.43,-508.84C1656.08,-488.24 1594.15,-435.83 1559.36,-406.39"/>
<polygon fill="midnightblue" stroke="midnightblue" points="1561.44,-403.57 1551.54,-399.78 1556.92,-408.91 1561.44,-403.57"/>
</g>
<!-- Node10&#45;&gt;Node2 -->
<g id="edge14" class="edge">
<title>Node10&#45;&gt;Node2</title>
<path fill="none" stroke="midnightblue" d="M1773.43,-441.79C1760.29,-424.23 1727.79,-384.92 1689.66,-369 1555.34,-312.93 1180.79,-344.15 1035.66,-333 754.43,-311.39 416.52,-274.1 304.11,-261.39"/>
<polygon fill="midnightblue" stroke="midnightblue" points="304.27,-257.89 293.94,-260.24 303.48,-264.84 304.27,-257.89"/>
</g>
<!-- Node10&#45;&gt;Node5 -->
<g id="edge15" class="edge">
<title>Node10&#45;&gt;Node5</title>
<path fill="none" stroke="midnightblue" d="M1831.71,-441.97C1847.11,-439.71 1864.03,-437.49 1879.66,-436 2222.47,-403.25 2312.81,-449.13 2653.66,-400 2777.75,-382.12 2812.73,-383.07 2927.66,-333 3064.76,-273.28 3238.92,-144.89 3118.66,-56 3070.99,-20.76 1129.51,-12.16 854.04,-11.12"/>
<polygon fill="midnightblue" stroke="midnightblue" points="853.91,-7.61 843.9,-11.08 853.89,-14.61 853.91,-7.61"/>
</g>
<!-- Node11 -->
<g id="node11" class="node">
<title>Node11</title>
<g id="a_node11"><a xlink:title=" ">
<polygon fill="white" stroke="#bfbfbf" points="1622.66,-375 1622.66,-394 1680.66,-394 1680.66,-375 1622.66,-375"/>
<text text-anchor="middle" x="1651.66" y="-382" font-family="Helvetica,sans-Serif" font-size="10.00">memory</text>
</a>
</g>
</g>
<!-- Node10&#45;&gt;Node11 -->
<g id="edge13" class="edge">
<title>Node10&#45;&gt;Node11</title>
<path fill="none" stroke="midnightblue" d="M1762.67,-441.87C1740.96,-430.84 1703.17,-411.66 1677.79,-398.77"/>
<polygon fill="midnightblue" stroke="midnightblue" points="1679.23,-395.57 1668.73,-394.17 1676.06,-401.82 1679.23,-395.57"/>
</g>
<!-- Node12 -->
<g id="node12" class="node">
<title>Node12</title>
<g id="a_node12"><a xlink:href="lane__data_8h.html" target="_top" xlink:title=" ">
<polygon fill="white" stroke="black" points="2458.66,-375 2458.66,-394 2590.66,-394 2590.66,-375 2458.66,-375"/>
<text text-anchor="middle" x="2524.66" y="-382" font-family="Helvetica,sans-Serif" font-size="10.00">maliput/api/lane_data.h</text>
</a>
</g>
</g>
<!-- Node10&#45;&gt;Node12 -->
<g id="edge16" class="edge">
<title>Node10&#45;&gt;Node12</title>
<path fill="none" stroke="midnightblue" d="M1832.26,-442.21C1847.52,-439.98 1864.23,-437.72 1879.66,-436 2084.67,-413.14 2327.48,-397.09 2448.35,-389.84"/>
<polygon fill="midnightblue" stroke="midnightblue" points="2448.83,-393.32 2458.6,-389.23 2448.41,-386.33 2448.83,-393.32"/>
</g>
<!-- Node10&#45;&gt;Node15 -->
<g id="edge67" class="edge">
<title>Node10&#45;&gt;Node15</title>
<path fill="none" stroke="midnightblue" d="M1782.29,-441.86C1790.66,-412.77 1814.4,-316.33 1784.66,-246 1779.81,-234.52 1770.94,-224.37 1761.87,-216.24"/>
<polygon fill="midnightblue" stroke="midnightblue" points="1763.88,-213.35 1753.96,-209.62 1759.39,-218.72 1763.88,-213.35"/>
</g>
<!-- Node16 -->
<g id="node16" class="node">
<title>Node16</title>
<g id="a_node16"><a xlink:href="maliput__throw_8h.html" target="_top" xlink:title=" ">
<polygon fill="white" stroke="black" points="1278.66,-56.5 1278.66,-86.5 1418.66,-86.5 1418.66,-56.5 1278.66,-56.5"/>
<text text-anchor="start" x="1286.66" y="-74.5" font-family="Helvetica,sans-Serif" font-size="10.00">maliput/common/maliput</text>
<text text-anchor="middle" x="1348.66" y="-63.5" font-family="Helvetica,sans-Serif" font-size="10.00">_throw.h</text>
</a>
</g>
</g>
<!-- Node10&#45;&gt;Node16 -->
<g id="edge68" class="edge">
<title>Node10&#45;&gt;Node16</title>
<path fill="none" stroke="midnightblue" d="M1819.17,-441.95C1918.39,-418.71 2164.48,-349.14 2083.66,-246 2003.09,-143.17 1602.57,-95.3 1429.05,-79.13"/>
<polygon fill="midnightblue" stroke="midnightblue" points="1429.23,-75.64 1418.96,-78.2 1428.59,-82.61 1429.23,-75.64"/>
</g>
<!-- Node10&#45;&gt;Node26 -->
<g id="edge48" class="edge">
<title>Node10&#45;&gt;Node26</title>
<path fill="none" stroke="midnightblue" d="M1747.38,-441.94C1709.41,-431.86 1645.49,-414.9 1597.61,-402.2"/>
<polygon fill="midnightblue" stroke="midnightblue" points="1598.22,-398.74 1587.66,-399.56 1596.42,-405.51 1598.22,-398.74"/>
</g>
<!-- Node12&#45;&gt;Node5 -->
<g id="edge19" class="edge">
<title>Node12&#45;&gt;Node5</title>
<path fill="none" stroke="midnightblue" d="M2458.32,-382.33C2186.77,-377.41 1171.34,-357.42 1107.66,-333 960.63,-276.62 935.5,-220.93 852.66,-87 841.34,-68.69 832.58,-45.51 827.3,-29.59"/>
<polygon fill="midnightblue" stroke="midnightblue" points="830.58,-28.36 824.22,-19.88 823.91,-30.47 830.58,-28.36"/>
</g>
<!-- Node13 -->
<g id="node13" class="node">
<title>Node13</title>
<g id="a_node13"><a xlink:title=" ">
<polygon fill="white" stroke="#bfbfbf" points="1507.16,-246.5 1507.16,-265.5 1572.16,-265.5 1572.16,-246.5 1507.16,-246.5"/>
<text text-anchor="middle" x="1539.66" y="-253.5" font-family="Helvetica,sans-Serif" font-size="10.00">functional</text>
</a>
</g>
</g>
<!-- Node12&#45;&gt;Node13 -->
<g id="edge17" class="edge">
<title>Node12&#45;&gt;Node13</title>
<path fill="none" stroke="midnightblue" d="M2458.64,-377.27C2305.98,-362.44 1916.74,-322.16 1582.05,-265.93"/>
<polygon fill="midnightblue" stroke="midnightblue" points="1582.61,-262.47 1572.17,-264.26 1581.45,-269.37 1582.61,-262.47"/>
</g>
<!-- Node14 -->
<g id="node14" class="node">
<title>Node14</title>
<g id="a_node14"><a xlink:title=" ">
<polygon fill="white" stroke="#bfbfbf" points="2443.16,-185 2443.16,-204 2500.16,-204 2500.16,-185 2443.16,-185"/>
<text text-anchor="middle" x="2471.66" y="-192" font-family="Helvetica,sans-Serif" font-size="10.00">ostream</text>
</a>
</g>
</g>
<!-- Node12&#45;&gt;Node14 -->
<g id="edge18" class="edge">
<title>Node12&#45;&gt;Node14</title>
<path fill="none" stroke="midnightblue" d="M2533.2,-374.82C2546.88,-359.79 2571.01,-328.05 2558.66,-302 2547.84,-279.17 2531.25,-285.06 2514.66,-266 2500.59,-249.84 2488.29,-228.51 2480.49,-213.56"/>
<polygon fill="midnightblue" stroke="midnightblue" points="2483.48,-211.72 2475.84,-204.37 2477.23,-214.88 2483.48,-211.72"/>
</g>
<!-- Node12&#45;&gt;Node15 -->
<g id="edge20" class="edge">
<title>Node12&#45;&gt;Node15</title>
<path fill="none" stroke="midnightblue" d="M2518,-374.93C2497.12,-348.9 2429.75,-271.04 2352.66,-246 2254.49,-214.11 1957.22,-201.69 1812.94,-197.44"/>
<polygon fill="midnightblue" stroke="midnightblue" points="1812.92,-193.94 1802.82,-197.15 1812.71,-200.94 1812.92,-193.94"/>
</g>
<!-- Node12&#45;&gt;Node16 -->
<g id="edge21" class="edge">
<title>Node12&#45;&gt;Node16</title>
<path fill="none" stroke="midnightblue" d="M2521.18,-374.76C2514.48,-358.79 2498.51,-324.5 2476.66,-302 2444.11,-268.47 2430.99,-263.51 2387.66,-246 2049.59,-109.4 1607.89,-80.33 1429.04,-74.16"/>
<polygon fill="midnightblue" stroke="midnightblue" points="1429.04,-70.66 1418.93,-73.83 1428.81,-77.65 1429.04,-70.66"/>
</g>
<!-- Node17 -->
<g id="node17" class="node">
<title>Node17</title>
<g id="a_node17"><a xlink:href="matrix_8h.html" target="_top" xlink:title=" ">
<polygon fill="white" stroke="black" points="2919.16,-185 2919.16,-204 3046.16,-204 3046.16,-185 2919.16,-185"/>
<text text-anchor="middle" x="2982.66" y="-192" font-family="Helvetica,sans-Serif" font-size="10.00">maliput/math/matrix.h</text>
</a>
</g>
</g>
<!-- Node12&#45;&gt;Node17 -->
<g id="edge23" class="edge">
<title>Node12&#45;&gt;Node17</title>
<path fill="none" stroke="midnightblue" d="M2590.78,-377.67C2691.26,-368.36 2873.42,-349.47 2898.66,-333 2942.47,-304.4 2967.11,-244.2 2977.2,-213.84"/>
<polygon fill="midnightblue" stroke="midnightblue" points="2980.59,-214.7 2980.27,-204.11 2973.92,-212.6 2980.59,-214.7"/>
</g>
<!-- Node23 -->
<g id="node23" class="node">
<title>Node23</title>
<g id="a_node23"><a xlink:href="vector_8h.html" target="_top" xlink:title=" ">
<polygon fill="white" stroke="black" points="2731.16,-123.5 2731.16,-142.5 2856.16,-142.5 2856.16,-123.5 2731.16,-123.5"/>
<text text-anchor="middle" x="2793.66" y="-130.5" font-family="Helvetica,sans-Serif" font-size="10.00">maliput/math/vector.h</text>
</a>
</g>
</g>
<!-- Node12&#45;&gt;Node23 -->
<g id="edge47" class="edge">
<title>Node12&#45;&gt;Node23</title>
<path fill="none" stroke="midnightblue" d="M2569.88,-374.96C2581.22,-372.91 2593.37,-370.8 2604.66,-369 2662.48,-359.78 2827.19,-377.14 2865.66,-333 2914.14,-277.38 2842.26,-186.57 2809.02,-150"/>
<polygon fill="midnightblue" stroke="midnightblue" points="2811.58,-147.62 2802.21,-142.68 2806.45,-152.38 2811.58,-147.62"/>
</g>
<!-- Node24 -->
<g id="node24" class="node">
<title>Node24</title>
<g id="a_node24"><a xlink:href="quaternion_8h.html" target="_top" xlink:title=" ">
<polygon fill="white" stroke="black" points="2595.16,-246.5 2595.16,-265.5 2742.16,-265.5 2742.16,-246.5 2595.16,-246.5"/>
<text text-anchor="middle" x="2668.66" y="-253.5" font-family="Helvetica,sans-Serif" font-size="10.00">maliput/math/quaternion.h</text>
</a>
</g>
</g>
<!-- Node12&#45;&gt;Node24 -->
<g id="edge36" class="edge">
<title>Node12&#45;&gt;Node24</title>
<path fill="none" stroke="midnightblue" d="M2538.53,-374.96C2553.49,-365.48 2577.71,-349.36 2596.66,-333 2618.49,-314.16 2640.91,-289.49 2654.81,-273.45"/>
<polygon fill="midnightblue" stroke="midnightblue" points="2657.76,-275.39 2661.6,-265.51 2652.44,-270.84 2657.76,-275.39"/>
</g>
<!-- Node25 -->
<g id="node25" class="node">
<title>Node25</title>
<g id="a_node25"><a xlink:href="roll__pitch__yaw_8h.html" target="_top" xlink:title=" ">
<polygon fill="white" stroke="black" points="2725.16,-302.5 2725.16,-332.5 2856.16,-332.5 2856.16,-302.5 2725.16,-302.5"/>
<text text-anchor="start" x="2733.16" y="-320.5" font-family="Helvetica,sans-Serif" font-size="10.00">maliput/math/roll_pitch</text>
<text text-anchor="middle" x="2790.66" y="-309.5" font-family="Helvetica,sans-Serif" font-size="10.00">_yaw.h</text>
</a>
</g>
</g>
<!-- Node12&#45;&gt;Node25 -->
<g id="edge42" class="edge">
<title>Node12&#45;&gt;Node25</title>
<path fill="none" stroke="midnightblue" d="M2559.71,-374.94C2601.19,-364.8 2671.21,-347.69 2723.29,-334.96"/>
<polygon fill="midnightblue" stroke="midnightblue" points="2724.25,-338.33 2733.13,-332.56 2722.58,-331.53 2724.25,-338.33"/>
</g>
<!-- Node16&#45;&gt;Node5 -->
<g id="edge22" class="edge">
<title>Node16&#45;&gt;Node5</title>
<path fill="none" stroke="midnightblue" d="M1278.41,-62.57C1162.97,-49.53 937.62,-24.09 853.95,-14.65"/>
<polygon fill="midnightblue" stroke="midnightblue" points="854.11,-11.14 843.78,-13.5 853.33,-18.1 854.11,-11.14"/>
</g>
<!-- Node18 -->
<g id="node18" class="node">
<title>Node18</title>
<g id="a_node18"><a xlink:title=" ">
<polygon fill="white" stroke="#bfbfbf" points="3020.66,-62 3020.66,-81 3084.66,-81 3084.66,-62 3020.66,-62"/>
<text text-anchor="middle" x="3052.66" y="-69" font-family="Helvetica,sans-Serif" font-size="10.00">algorithm</text>
</a>
</g>
</g>
<!-- Node17&#45;&gt;Node18 -->
<g id="edge24" class="edge">
<title>Node17&#45;&gt;Node18</title>
<path fill="none" stroke="midnightblue" d="M2987.7,-184.8C2999.15,-165 3027.33,-116.28 3042.54,-89.99"/>
<polygon fill="midnightblue" stroke="midnightblue" points="3045.7,-91.53 3047.67,-81.12 3039.64,-88.03 3045.7,-91.53"/>
</g>
<!-- Node19 -->
<g id="node19" class="node">
<title>Node19</title>
<g id="a_node19"><a xlink:title=" ">
<polygon fill="white" stroke="#bfbfbf" points="2960.66,-62 2960.66,-81 3002.66,-81 3002.66,-62 2960.66,-62"/>
<text text-anchor="middle" x="2981.66" y="-69" font-family="Helvetica,sans-Serif" font-size="10.00">array</text>
</a>
</g>
</g>
<!-- Node17&#45;&gt;Node19 -->
<g id="edge25" class="edge">
<title>Node17&#45;&gt;Node19</title>
<path fill="none" stroke="midnightblue" d="M2982.59,-184.8C2982.43,-165.35 2982.04,-117.99 2981.82,-91.4"/>
<polygon fill="midnightblue" stroke="midnightblue" points="2985.32,-91.09 2981.73,-81.12 2978.32,-91.15 2985.32,-91.09"/>
</g>
<!-- Node20 -->
<g id="node20" class="node">
<title>Node20</title>
<g id="a_node20"><a xlink:title=" ">
<polygon fill="white" stroke="#bfbfbf" points="2700.16,-62 2700.16,-81 2753.16,-81 2753.16,-62 2700.16,-62"/>
<text text-anchor="middle" x="2726.66" y="-69" font-family="Helvetica,sans-Serif" font-size="10.00">cstddef</text>
</a>
</g>
</g>
<!-- Node17&#45;&gt;Node20 -->
<g id="edge26" class="edge">
<title>Node17&#45;&gt;Node20</title>
<path fill="none" stroke="midnightblue" d="M2968.39,-184.94C2951.66,-174.9 2923.14,-157.77 2898.66,-143 2883.98,-134.14 2881.18,-130.31 2865.66,-123 2821.8,-102.32 2808.06,-104.06 2762.66,-87 2760.82,-86.31 2758.93,-85.58 2757.02,-84.84"/>
<polygon fill="midnightblue" stroke="midnightblue" points="2758.13,-81.52 2747.54,-81.1 2755.55,-88.03 2758.13,-81.52"/>
</g>
<!-- Node21 -->
<g id="node21" class="node">
<title>Node21</title>
<g id="a_node21"><a xlink:title=" ">
<polygon fill="white" stroke="#bfbfbf" points="2850.16,-62 2850.16,-81 2933.16,-81 2933.16,-62 2850.16,-62"/>
<text text-anchor="middle" x="2891.66" y="-69" font-family="Helvetica,sans-Serif" font-size="10.00">initializer_list</text>
</a>
</g>
</g>
<!-- Node17&#45;&gt;Node21 -->
<g id="edge27" class="edge">
<title>Node17&#45;&gt;Node21</title>
<path fill="none" stroke="midnightblue" d="M2977.67,-184.98C2969.62,-171.43 2953,-144.36 2936.66,-123 2927.41,-110.9 2915.98,-98.1 2906.96,-88.42"/>
<polygon fill="midnightblue" stroke="midnightblue" points="2909.46,-85.96 2900.05,-81.1 2904.37,-90.77 2909.46,-85.96"/>
</g>
<!-- Node22 -->
<g id="node22" class="node">
<title>Node22</title>
<g id="a_node22"><a xlink:title=" ">
<polygon fill="white" stroke="#bfbfbf" points="2771.66,-62 2771.66,-81 2831.66,-81 2831.66,-62 2771.66,-62"/>
<text text-anchor="middle" x="2801.66" y="-69" font-family="Helvetica,sans-Serif" font-size="10.00">iostream</text>
</a>
</g>
</g>
<!-- Node17&#45;&gt;Node22 -->
<g id="edge28" class="edge">
<title>Node17&#45;&gt;Node22</title>
<path fill="none" stroke="midnightblue" d="M2973.86,-184.98C2959.11,-170.98 2928.11,-142.68 2898.66,-123 2876.69,-108.31 2849.93,-94.67 2830.08,-85.27"/>
<polygon fill="midnightblue" stroke="midnightblue" points="2831.49,-82.07 2820.95,-81.01 2828.54,-88.41 2831.49,-82.07"/>
</g>
<!-- Node17&#45;&gt;Node23 -->
<g id="edge29" class="edge">
<title>Node17&#45;&gt;Node23</title>
<path fill="none" stroke="midnightblue" d="M2955.58,-184.98C2922.74,-174.64 2867.23,-157.16 2830.52,-145.6"/>
<polygon fill="midnightblue" stroke="midnightblue" points="2831.28,-142.17 2820.69,-142.51 2829.18,-148.85 2831.28,-142.17"/>
</g>
<!-- Node23&#45;&gt;Node16 -->
<g id="edge35" class="edge">
<title>Node23&#45;&gt;Node16</title>
<path fill="none" stroke="midnightblue" d="M2731.09,-124.26C2726.21,-123.79 2721.36,-123.36 2716.66,-123 2228.51,-85.52 1640.16,-75.66 1428.97,-73.24"/>
<polygon fill="midnightblue" stroke="midnightblue" points="1428.93,-69.74 1418.89,-73.12 1428.85,-76.74 1428.93,-69.74"/>
</g>
<!-- Node23&#45;&gt;Node18 -->
<g id="edge30" class="edge">
<title>Node23&#45;&gt;Node18</title>
<path fill="none" stroke="midnightblue" d="M2844.79,-123.48C2889.27,-115.59 2955.26,-102.71 3011.66,-87 3014.62,-86.18 3017.68,-85.25 3020.72,-84.27"/>
<polygon fill="midnightblue" stroke="midnightblue" points="3021.93,-87.55 3030.28,-81.04 3019.69,-80.92 3021.93,-87.55"/>
</g>
<!-- Node23&#45;&gt;Node19 -->
<g id="edge31" class="edge">
<title>Node23&#45;&gt;Node19</title>
<path fill="none" stroke="midnightblue" d="M2823.8,-123.5C2854.03,-114.83 2901.81,-100.75 2942.66,-87 2945.27,-86.12 2947.96,-85.19 2950.66,-84.23"/>
<polygon fill="midnightblue" stroke="midnightblue" points="2952.09,-87.43 2960.29,-80.72 2949.7,-80.85 2952.09,-87.43"/>
</g>
<!-- Node23&#45;&gt;Node20 -->
<g id="edge32" class="edge">
<title>Node23&#45;&gt;Node20</title>
<path fill="none" stroke="midnightblue" d="M2784.06,-123.48C2773.62,-114.2 2756.7,-99.17 2743.93,-87.83"/>
<polygon fill="midnightblue" stroke="midnightblue" points="2746.05,-85.03 2736.24,-81.01 2741.4,-90.27 2746.05,-85.03"/>
</g>
<!-- Node23&#45;&gt;Node21 -->
<g id="edge33" class="edge">
<title>Node23&#45;&gt;Node21</title>
<path fill="none" stroke="midnightblue" d="M2807.7,-123.48C2823.71,-113.75 2850.11,-97.73 2869.04,-86.24"/>
<polygon fill="midnightblue" stroke="midnightblue" points="2870.92,-89.19 2877.65,-81.01 2867.28,-83.21 2870.92,-89.19"/>
</g>
<!-- Node23&#45;&gt;Node22 -->
<g id="edge34" class="edge">
<title>Node23&#45;&gt;Node22</title>
<path fill="none" stroke="midnightblue" d="M2794.81,-123.48C2795.94,-115.08 2797.7,-101.98 2799.15,-91.16"/>
<polygon fill="midnightblue" stroke="midnightblue" points="2802.66,-91.39 2800.52,-81.01 2795.72,-90.45 2802.66,-91.39"/>
</g>
<!-- Node24&#45;&gt;Node8 -->
<g id="edge37" class="edge">
<title>Node24&#45;&gt;Node8</title>
<path fill="none" stroke="midnightblue" d="M2603.65,-246.5C2556.15,-239.32 2490.55,-227.41 2434.66,-210 2432.74,-209.4 2430.77,-208.72 2428.81,-207.99"/>
<polygon fill="midnightblue" stroke="midnightblue" points="2429.78,-204.61 2419.2,-204.07 2427.13,-211.09 2429.78,-204.61"/>
</g>
<!-- Node24&#45;&gt;Node14 -->
<g id="edge38" class="edge">
<title>Node24&#45;&gt;Node14</title>
<path fill="none" stroke="midnightblue" d="M2640.44,-246.48C2606.06,-236.09 2547.85,-218.51 2509.59,-206.95"/>
<polygon fill="midnightblue" stroke="midnightblue" points="2510.42,-203.55 2499.84,-204.01 2508.4,-210.25 2510.42,-203.55"/>
</g>
<!-- Node24&#45;&gt;Node15 -->
<g id="edge39" class="edge">
<title>Node24&#45;&gt;Node15</title>
<path fill="none" stroke="midnightblue" d="M2594.74,-247.21C2589.98,-246.78 2585.26,-246.37 2580.66,-246 2298.83,-223.21 1963.52,-206.23 1812.9,-199.14"/>
<polygon fill="midnightblue" stroke="midnightblue" points="1812.97,-195.64 1802.81,-198.67 1812.64,-202.63 1812.97,-195.64"/>
</g>
<!-- Node24&#45;&gt;Node17 -->
<g id="edge40" class="edge">
<title>Node24&#45;&gt;Node17</title>
<path fill="none" stroke="midnightblue" d="M2713.65,-246.48C2770.08,-235.78 2866.78,-217.46 2927.58,-205.94"/>
<polygon fill="midnightblue" stroke="midnightblue" points="2928.58,-209.31 2937.76,-204.01 2927.28,-202.43 2928.58,-209.31"/>
</g>
<!-- Node24&#45;&gt;Node23 -->
<g id="edge41" class="edge">
<title>Node24&#45;&gt;Node23</title>
<path fill="none" stroke="midnightblue" d="M2673.68,-246.24C2682.56,-231.23 2702.26,-200.16 2724.66,-179 2737.67,-166.71 2754.45,-155.69 2768.2,-147.62"/>
<polygon fill="midnightblue" stroke="midnightblue" points="2770.19,-150.52 2777.16,-142.54 2766.73,-144.43 2770.19,-150.52"/>
</g>
<!-- Node25&#45;&gt;Node15 -->
<g id="edge43" class="edge">
<title>Node25&#45;&gt;Node15</title>
<path fill="none" stroke="midnightblue" d="M2725.14,-302.92C2646.15,-287.02 2509.25,-260.96 2390.66,-246 2183.36,-219.84 1937.48,-205.32 1813.2,-199.14"/>
<polygon fill="midnightblue" stroke="midnightblue" points="1813.17,-195.63 1803.01,-198.64 1812.82,-202.62 1813.17,-195.63"/>
</g>
<!-- Node25&#45;&gt;Node17 -->
<g id="edge44" class="edge">
<title>Node25&#45;&gt;Node17</title>
<path fill="none" stroke="midnightblue" d="M2813.06,-302.38C2850.09,-279.05 2923.61,-232.71 2960.49,-209.47"/>
<polygon fill="midnightblue" stroke="midnightblue" points="2962.44,-212.38 2969.03,-204.09 2958.7,-206.46 2962.44,-212.38"/>
</g>
<!-- Node25&#45;&gt;Node23 -->
<g id="edge46" class="edge">
<title>Node25&#45;&gt;Node23</title>
<path fill="none" stroke="midnightblue" d="M2790.89,-302.48C2791.43,-270.1 2792.74,-190.04 2793.35,-153.16"/>
<polygon fill="midnightblue" stroke="midnightblue" points="2796.85,-152.87 2793.52,-142.82 2789.85,-152.76 2796.85,-152.87"/>
</g>
<!-- Node25&#45;&gt;Node24 -->
<g id="edge45" class="edge">
<title>Node25&#45;&gt;Node24</title>
<path fill="none" stroke="midnightblue" d="M2761.75,-302.4C2741.65,-292.59 2715.04,-279.62 2695.43,-270.05"/>
<polygon fill="midnightblue" stroke="midnightblue" points="2696.94,-266.9 2686.42,-265.66 2693.87,-273.19 2696.94,-266.9"/>
</g>
<!-- Node26&#45;&gt;Node5 -->
<g id="edge50" class="edge">
<title>Node26&#45;&gt;Node5</title>
<path fill="none" stroke="midnightblue" d="M1604.79,-370.05C1607.79,-369.66 1610.75,-369.31 1613.66,-369 1752.06,-354.4 2732.78,-374.34 2865.66,-333 3017.92,-285.63 3205.29,-169.86 3093.66,-56 3052.61,-14.13 1127.02,-11.22 853.78,-11.02"/>
<polygon fill="midnightblue" stroke="midnightblue" points="853.72,-7.52 843.72,-11.01 853.72,-14.52 853.72,-7.52"/>
</g>
<!-- Node26&#45;&gt;Node13 -->
<g id="edge49" class="edge">
<title>Node26&#45;&gt;Node13</title>
<path fill="none" stroke="midnightblue" d="M1535.22,-369.48C1536.12,-346.72 1537.9,-301.7 1538.91,-276.06"/>
<polygon fill="midnightblue" stroke="midnightblue" points="1542.42,-275.92 1539.32,-265.79 1535.42,-275.64 1542.42,-275.92"/>
</g>
<!-- Node26&#45;&gt;Node15 -->
<g id="edge52" class="edge">
<title>Node26&#45;&gt;Node15</title>
<path fill="none" stroke="midnightblue" d="M1549.55,-369.37C1584.1,-336.56 1669.92,-255.07 1710.6,-216.45"/>
<polygon fill="midnightblue" stroke="midnightblue" points="1713.04,-218.96 1717.88,-209.54 1708.22,-213.89 1713.04,-218.96"/>
</g>
<!-- Node26&#45;&gt;Node16 -->
<g id="edge66" class="edge">
<title>Node26&#45;&gt;Node16</title>
<path fill="none" stroke="midnightblue" d="M1464.41,-379.84C1360.27,-373.63 1170.48,-359.09 1107.66,-333 1057.41,-312.13 1011.66,-311.42 1011.66,-257 1011.66,-257 1011.66,-257 1011.66,-193.5 1011.66,-139.18 1168.69,-102.64 1268.37,-84.92"/>
<polygon fill="midnightblue" stroke="midnightblue" points="1269.18,-88.33 1278.43,-83.16 1267.97,-81.43 1269.18,-88.33"/>
</g>
<!-- Node27 -->
<g id="node27" class="node">
<title>Node27</title>
<g id="a_node27"><a xlink:title=" ">
<polygon fill="white" stroke="#bfbfbf" points="1329.16,-246.5 1329.16,-265.5 1374.16,-265.5 1374.16,-246.5 1329.16,-246.5"/>
<text text-anchor="middle" x="1351.66" y="-253.5" font-family="Helvetica,sans-Serif" font-size="10.00">utility</text>
</a>
</g>
</g>
<!-- Node26&#45;&gt;Node27 -->
<g id="edge51" class="edge">
<title>Node26&#45;&gt;Node27</title>
<path fill="none" stroke="midnightblue" d="M1514.38,-369.48C1479.53,-345.39 1408.59,-296.35 1373.02,-271.76"/>
<polygon fill="midnightblue" stroke="midnightblue" points="1374.59,-268.6 1364.38,-265.79 1370.61,-274.35 1374.59,-268.6"/>
</g>
<!-- Node28 -->
<g id="node28" class="node">
<title>Node28</title>
<g id="a_node28"><a xlink:href="maliput__hash_8h.html" target="_top" xlink:title=" ">
<polygon fill="white" stroke="black" points="1116.66,-302.5 1116.66,-332.5 1256.66,-332.5 1256.66,-302.5 1116.66,-302.5"/>
<text text-anchor="start" x="1124.66" y="-320.5" font-family="Helvetica,sans-Serif" font-size="10.00">maliput/common/maliput</text>
<text text-anchor="middle" x="1186.66" y="-309.5" font-family="Helvetica,sans-Serif" font-size="10.00">_hash.h</text>
</a>
</g>
</g>
<!-- Node26&#45;&gt;Node28 -->
<g id="edge53" class="edge">
<title>Node26&#45;&gt;Node28</title>
<path fill="none" stroke="midnightblue" d="M1464.66,-370.42C1407.53,-359.75 1326.77,-344.67 1267.01,-333.51"/>
<polygon fill="midnightblue" stroke="midnightblue" points="1267.33,-330.01 1256.85,-331.61 1266.04,-336.89 1267.33,-330.01"/>
</g>
<!-- Node28&#45;&gt;Node2 -->
<g id="edge59" class="edge">
<title>Node28&#45;&gt;Node2</title>
<path fill="none" stroke="midnightblue" d="M1116.3,-311.95C932.91,-300.11 444.72,-268.57 304.07,-259.48"/>
<polygon fill="midnightblue" stroke="midnightblue" points="304.01,-255.97 293.8,-258.82 303.56,-262.96 304.01,-255.97"/>
</g>
<!-- Node28&#45;&gt;Node5 -->
<g id="edge61" class="edge">
<title>Node28&#45;&gt;Node5</title>
<path fill="none" stroke="midnightblue" d="M1141.02,-302.5C1117.35,-294.02 1088.66,-281.78 1065.66,-266 961.42,-194.47 866.72,-72.6 833.89,-28"/>
<polygon fill="midnightblue" stroke="midnightblue" points="836.56,-25.72 827.84,-19.7 830.9,-29.84 836.56,-25.72"/>
</g>
<!-- Node28&#45;&gt;Node6 -->
<g id="edge64" class="edge">
<title>Node28&#45;&gt;Node6</title>
<path fill="none" stroke="midnightblue" d="M1257,-311.66C1433.32,-299.51 1889.15,-268.12 2016.92,-259.32"/>
<polygon fill="midnightblue" stroke="midnightblue" points="2017.17,-262.81 2026.91,-258.64 2016.69,-255.83 2017.17,-262.81"/>
</g>
<!-- Node28&#45;&gt;Node8 -->
<g id="edge54" class="edge">
<title>Node28&#45;&gt;Node8</title>
<path fill="none" stroke="midnightblue" d="M1256.79,-309.52C1485.25,-286.76 2202.83,-215.3 2367.67,-198.89"/>
<polygon fill="midnightblue" stroke="midnightblue" points="2368.12,-202.36 2377.72,-197.88 2367.42,-195.39 2368.12,-202.36"/>
</g>
<!-- Node28&#45;&gt;Node13 -->
<g id="edge56" class="edge">
<title>Node28&#45;&gt;Node13</title>
<path fill="none" stroke="midnightblue" d="M1256.83,-304.67C1328.33,-292.62 1436.97,-274.31 1496.65,-264.25"/>
<polygon fill="midnightblue" stroke="midnightblue" points="1497.57,-267.64 1506.85,-262.53 1496.41,-260.74 1497.57,-267.64"/>
</g>
<!-- Node28&#45;&gt;Node16 -->
<g id="edge65" class="edge">
<title>Node28&#45;&gt;Node16</title>
<path fill="none" stroke="midnightblue" d="M1124.69,-302.46C1090.84,-291.45 1058.59,-273.33 1073.66,-246 1119.85,-162.25 1225.34,-113.36 1291.42,-89.88"/>
<polygon fill="midnightblue" stroke="midnightblue" points="1292.57,-93.18 1300.87,-86.59 1290.28,-86.57 1292.57,-93.18"/>
</g>
<!-- Node28&#45;&gt;Node20 -->
<g id="edge55" class="edge">
<title>Node28&#45;&gt;Node20</title>
<path fill="none" stroke="midnightblue" d="M1152.87,-302.41C1125.66,-289.04 1094.56,-267.79 1111.66,-246 1198.76,-135.04 1731.6,-147.28 2036.66,-123 2286.16,-103.14 2586.65,-82.15 2689.81,-75.03"/>
<polygon fill="midnightblue" stroke="midnightblue" points="2690.28,-78.51 2700.01,-74.33 2689.8,-71.52 2690.28,-78.51"/>
</g>
<!-- Node28&#45;&gt;Node22 -->
<g id="edge57" class="edge">
<title>Node28&#45;&gt;Node22</title>
<path fill="none" stroke="midnightblue" d="M1180.68,-302.47C1175.04,-286.75 1169.24,-261.46 1182.66,-246 1251.96,-166.15 1548.61,-190.82 1653.66,-179 2145.14,-123.71 2279.93,-194.62 2762.66,-87 2765.74,-86.31 2768.89,-85.44 2772.02,-84.47"/>
<polygon fill="midnightblue" stroke="midnightblue" points="2773.44,-87.68 2781.74,-81.1 2771.14,-81.07 2773.44,-87.68"/>
</g>
<!-- Node28&#45;&gt;Node27 -->
<g id="edge63" class="edge">
<title>Node28&#45;&gt;Node27</title>
<path fill="none" stroke="midnightblue" d="M1225.77,-302.4C1254.33,-292.1 1292.59,-278.3 1319.41,-268.63"/>
<polygon fill="midnightblue" stroke="midnightblue" points="1320.87,-271.83 1329.09,-265.14 1318.49,-265.24 1320.87,-271.83"/>
</g>
<!-- Node29 -->
<g id="node29" class="node">
<title>Node29</title>
<g id="a_node29"><a xlink:title=" ">
<polygon fill="white" stroke="#bfbfbf" points="1590.66,-246.5 1590.66,-265.5 1628.66,-265.5 1628.66,-246.5 1590.66,-246.5"/>
<text text-anchor="middle" x="1609.66" y="-253.5" font-family="Helvetica,sans-Serif" font-size="10.00">map</text>
</a>
</g>
</g>
<!-- Node28&#45;&gt;Node29 -->
<g id="edge58" class="edge">
<title>Node28&#45;&gt;Node29</title>
<path fill="none" stroke="midnightblue" d="M1256.9,-311.44C1334.24,-304.99 1462.24,-291.73 1580.56,-265.88"/>
<polygon fill="midnightblue" stroke="midnightblue" points="1581.51,-269.25 1590.51,-263.67 1579.99,-262.42 1581.51,-269.25"/>
</g>
<!-- Node30 -->
<g id="node30" class="node">
<title>Node30</title>
<g id="a_node30"><a xlink:title=" ">
<polygon fill="white" stroke="#bfbfbf" points="1191.66,-246.5 1191.66,-265.5 1223.66,-265.5 1223.66,-246.5 1191.66,-246.5"/>
<text text-anchor="middle" x="1207.66" y="-253.5" font-family="Helvetica,sans-Serif" font-size="10.00">set</text>
</a>
</g>
</g>
<!-- Node28&#45;&gt;Node30 -->
<g id="edge60" class="edge">
<title>Node28&#45;&gt;Node30</title>
<path fill="none" stroke="midnightblue" d="M1191.64,-302.4C1194.5,-294.29 1198.13,-284.01 1201.21,-275.28"/>
<polygon fill="midnightblue" stroke="midnightblue" points="1204.58,-276.25 1204.61,-265.66 1197.98,-273.92 1204.58,-276.25"/>
</g>
<!-- Node31 -->
<g id="node31" class="node">
<title>Node31</title>
<g id="a_node31"><a xlink:title=" ">
<polygon fill="white" stroke="#bfbfbf" points="1242.16,-246.5 1242.16,-265.5 1311.16,-265.5 1311.16,-246.5 1242.16,-246.5"/>
<text text-anchor="middle" x="1276.66" y="-253.5" font-family="Helvetica,sans-Serif" font-size="10.00">type_traits</text>
</a>
</g>
</g>
<!-- Node28&#45;&gt;Node31 -->
<g id="edge62" class="edge">
<title>Node28&#45;&gt;Node31</title>
<path fill="none" stroke="midnightblue" d="M1207.99,-302.4C1222.15,-293.04 1240.67,-280.79 1254.92,-271.38"/>
<polygon fill="midnightblue" stroke="midnightblue" points="1257.16,-274.09 1263.57,-265.66 1253.3,-268.25 1257.16,-274.09"/>
</g>
<!-- Node32&#45;&gt;Node5 -->
<g id="edge73" class="edge">
<title>Node32&#45;&gt;Node5</title>
<path fill="none" stroke="midnightblue" d="M1262.45,-575.95C1228.36,-566.2 1171.33,-549.6 1122.66,-534 948.53,-478.17 885.29,-502.21 733.66,-400 683.71,-366.32 555.66,-255.75 555.66,-195.5 555.66,-195.5 555.66,-195.5 555.66,-132 555.66,-30.42 718.38,-13.72 789.28,-11.26"/>
<polygon fill="midnightblue" stroke="midnightblue" points="789.54,-14.76 799.44,-10.99 789.35,-7.76 789.54,-14.76"/>
</g>
<!-- Node32&#45;&gt;Node6 -->
<g id="edge74" class="edge">
<title>Node32&#45;&gt;Node6</title>
<path fill="none" stroke="midnightblue" d="M1317.18,-575.95C1387.38,-551.24 1594.74,-476.59 1760.66,-400 1844.79,-361.17 1861.05,-341.92 1944.66,-302 1969.43,-290.18 1998.11,-278.1 2019.39,-269.43"/>
<polygon fill="midnightblue" stroke="midnightblue" points="2020.94,-272.58 2028.9,-265.59 2018.31,-266.09 2020.94,-272.58"/>
</g>
<!-- Node32&#45;&gt;Node7 -->
<g id="edge75" class="edge">
<title>Node32&#45;&gt;Node7</title>
<path fill="none" stroke="midnightblue" d="M1345.1,-575.94C1418.13,-564.01 1550.25,-542.43 1628.25,-529.69"/>
<polygon fill="midnightblue" stroke="midnightblue" points="1629.12,-533.1 1638.42,-528.03 1627.99,-526.19 1629.12,-533.1"/>
</g>
<!-- Node32&#45;&gt;Node15 -->
<g id="edge82" class="edge">
<title>Node32&#45;&gt;Node15</title>
<path fill="none" stroke="midnightblue" d="M1318.24,-576C1397.91,-549.01 1639.3,-463.37 1689.66,-400 1732.14,-346.55 1735.4,-261.18 1734.15,-219.7"/>
<polygon fill="midnightblue" stroke="midnightblue" points="1737.65,-219.53 1733.73,-209.68 1730.65,-219.82 1737.65,-219.53"/>
</g>
<!-- Node32&#45;&gt;Node18 -->
<g id="edge72" class="edge">
<title>Node32&#45;&gt;Node18</title>
<path fill="none" stroke="midnightblue" d="M1357.98,-578.25C1467.59,-567.63 1683.96,-546.04 1759.66,-534 1825.6,-523.51 1840.61,-512.77 1906.66,-503 2091.12,-475.71 2140.36,-495.29 2324.66,-467 2392.5,-456.59 2867.17,-365.43 2927.66,-333 2997.2,-295.72 3024.75,-282.59 3055.66,-210 3072.6,-170.23 3064.08,-117.94 3057.64,-90.73"/>
<polygon fill="midnightblue" stroke="midnightblue" points="3061.02,-89.84 3055.17,-81.01 3054.24,-91.56 3061.02,-89.84"/>
</g>
<!-- Node32&#45;&gt;Node26 -->
<g id="edge76" class="edge">
<title>Node32&#45;&gt;Node26</title>
<path fill="none" stroke="midnightblue" d="M1301.65,-575.64C1317.29,-560.34 1350.71,-528.2 1380.66,-503 1423.24,-467.18 1475.1,-428.58 1506.47,-405.76"/>
<polygon fill="midnightblue" stroke="midnightblue" points="1508.71,-408.46 1514.75,-399.76 1504.6,-402.79 1508.71,-408.46"/>
</g>
<!-- Node33 -->
<g id="node33" class="node">
<title>Node33</title>
<g id="a_node33"><a xlink:href="unique__id_8h.html" target="_top" xlink:title=" ">
<polygon fill="white" stroke="black" points="807.16,-375 807.16,-394 938.16,-394 938.16,-375 807.16,-375"/>
<text text-anchor="middle" x="872.66" y="-382" font-family="Helvetica,sans-Serif" font-size="10.00">maliput/api/unique_id.h</text>
</a>
</g>
</g>
<!-- Node32&#45;&gt;Node33 -->
<g id="edge77" class="edge">
<title>Node32&#45;&gt;Node33</title>
<path fill="none" stroke="midnightblue" d="M1274.62,-575.95C1208.51,-544.63 979.36,-436.05 899.98,-398.44"/>
<polygon fill="midnightblue" stroke="midnightblue" points="901.18,-395.14 890.64,-394.02 898.18,-401.46 901.18,-395.14"/>
</g>
<!-- Node33&#45;&gt;Node5 -->
<g id="edge78" class="edge">
<title>Node33&#45;&gt;Node5</title>
<path fill="none" stroke="midnightblue" d="M864.72,-374.72C836.92,-343.6 745.66,-238.24 745.66,-195.5 745.66,-195.5 745.66,-195.5 745.66,-132 745.66,-96.58 750.2,-85.6 769.66,-56 777.45,-44.15 789.2,-33.62 799.57,-25.72"/>
<polygon fill="midnightblue" stroke="midnightblue" points="801.78,-28.44 807.83,-19.74 797.67,-22.77 801.78,-28.44"/>
</g>
<!-- Node33&#45;&gt;Node15 -->
<g id="edge79" class="edge">
<title>Node33&#45;&gt;Node15</title>
<path fill="none" stroke="midnightblue" d="M887.19,-374.97C930.43,-350.06 1062.72,-277.2 1182.66,-246 1345.6,-203.61 1543.77,-195.61 1652.18,-194.77"/>
<polygon fill="midnightblue" stroke="midnightblue" points="1652.41,-198.27 1662.39,-194.71 1652.37,-191.27 1652.41,-198.27"/>
</g>
<!-- Node33&#45;&gt;Node16 -->
<g id="edge81" class="edge">
<title>Node33&#45;&gt;Node16</title>
<path fill="none" stroke="midnightblue" d="M875.35,-374.93C887.95,-336.44 945.24,-178.99 1055.66,-123 1122.28,-89.22 1207.19,-77.5 1268.44,-73.68"/>
<polygon fill="midnightblue" stroke="midnightblue" points="1268.66,-77.18 1278.44,-73.12 1268.26,-70.19 1268.66,-77.18"/>
</g>
<!-- Node33&#45;&gt;Node28 -->
<g id="edge80" class="edge">
<title>Node33&#45;&gt;Node28</title>
<path fill="none" stroke="midnightblue" d="M914.04,-374.94C963.41,-364.71 1047.03,-347.41 1108.67,-334.65"/>
<polygon fill="midnightblue" stroke="midnightblue" points="1109.66,-338.01 1118.75,-332.56 1108.24,-331.16 1109.66,-338.01"/>
</g>
<!-- Node34&#45;&gt;Node2 -->
<g id="edge86" class="edge">
<title>Node34&#45;&gt;Node2</title>
<path fill="none" stroke="midnightblue" d="M162.81,-637.26C142.96,-586.49 83.4,-411.5 156.66,-302 172.37,-278.52 202.81,-267.28 227.54,-261.9"/>
<polygon fill="midnightblue" stroke="midnightblue" points="228.23,-265.33 237.39,-260 226.9,-258.46 228.23,-265.33"/>
</g>
<!-- Node35&#45;&gt;Node2 -->
<g id="edge89" class="edge">
<title>Node35&#45;&gt;Node2</title>
<path fill="none" stroke="midnightblue" d="M305.05,-859.86C218.4,-851.12 76.66,-821.39 76.66,-720.5 76.66,-720.5 76.66,-720.5 76.66,-383.5 76.66,-311.58 172.36,-277.96 227.56,-264.55"/>
<polygon fill="midnightblue" stroke="midnightblue" points="228.42,-267.94 237.37,-262.28 226.84,-261.13 228.42,-267.94"/>
</g>
<!-- Node35&#45;&gt;Node15 -->
<g id="edge130" class="edge">
<title>Node35&#45;&gt;Node15</title>
<path fill="none" stroke="midnightblue" d="M364.9,-849.15C355.2,-823.69 336.66,-768.73 336.66,-720.5 336.66,-720.5 336.66,-720.5 336.66,-517.5 336.66,-369.5 581.2,-353.8 712.66,-302 781.59,-274.84 797.06,-260.76 869.66,-246 1017.89,-215.87 1467.71,-201.88 1652.3,-197.29"/>
<polygon fill="midnightblue" stroke="midnightblue" points="1652.57,-200.79 1662.48,-197.04 1652.4,-193.79 1652.57,-200.79"/>
</g>
<!-- Node35&#45;&gt;Node34 -->
<g id="edge129" class="edge">
<title>Node35&#45;&gt;Node34</title>
<path fill="none" stroke="midnightblue" d="M356.88,-849.26C333.97,-825.57 286.62,-776.58 246.66,-735 227.19,-714.73 205.03,-691.58 189.33,-675.14"/>
<polygon fill="midnightblue" stroke="midnightblue" points="191.61,-672.46 182.17,-667.65 186.55,-677.3 191.61,-672.46"/>
</g>
<!-- Node36 -->
<g id="node36" class="node">
<title>Node36</title>
<g id="a_node36"><a xlink:href="phase_8h.html" target="_top" xlink:title=" ">
<polygon fill="white" stroke="black" points="920.66,-710 920.66,-729 1060.66,-729 1060.66,-710 920.66,-710"/>
<text text-anchor="middle" x="990.66" y="-717" font-family="Helvetica,sans-Serif" font-size="10.00">maliput/api/rules/phase.h</text>
</a>
</g>
</g>
<!-- Node35&#45;&gt;Node36 -->
<g id="edge90" class="edge">
<title>Node35&#45;&gt;Node36</title>
<path fill="none" stroke="midnightblue" d="M436.48,-863.19C523.64,-861.15 681.33,-851.78 809.66,-813 870.85,-794.51 936.06,-755.88 968.97,-734.87"/>
<polygon fill="midnightblue" stroke="midnightblue" points="971.24,-737.56 977.74,-729.19 967.44,-731.69 971.24,-737.56"/>
</g>
<!-- Node42 -->
<g id="node42" class="node">
<title>Node42</title>
<g id="a_node42"><a xlink:href="phase__ring_8h.html" target="_top" xlink:title=" ">
<polygon fill="white" stroke="black" points="527.16,-777 527.16,-807 658.16,-807 658.16,-777 527.16,-777"/>
<text text-anchor="start" x="535.16" y="-795" font-family="Helvetica,sans-Serif" font-size="10.00">maliput/api/rules/phase</text>
<text text-anchor="middle" x="592.66" y="-784" font-family="Helvetica,sans-Serif" font-size="10.00">_ring.h</text>
</a>
</g>
</g>
<!-- Node35&#45;&gt;Node42 -->
<g id="edge122" class="edge">
<title>Node35&#45;&gt;Node42</title>
<path fill="none" stroke="midnightblue" d="M414.79,-849.49C450.31,-838.21 500.39,-822.3 538.37,-810.24"/>
<polygon fill="midnightblue" stroke="midnightblue" points="539.77,-813.47 548.24,-807.11 537.65,-806.8 539.77,-813.47"/>
</g>
<!-- Node36&#45;&gt;Node2 -->
<g id="edge91" class="edge">
<title>Node36&#45;&gt;Node2</title>
<path fill="none" stroke="midnightblue" d="M945.48,-709.94C906.68,-701.75 849.73,-687.73 802.66,-668 686.2,-619.19 438.9,-415.93 343.66,-333 321.08,-313.33 296.58,-288.91 281.18,-273.14"/>
<polygon fill="midnightblue" stroke="midnightblue" points="283.5,-270.5 274.02,-265.76 278.47,-275.37 283.5,-270.5"/>
</g>
<!-- Node36&#45;&gt;Node4 -->
<g id="edge93" class="edge">
<title>Node36&#45;&gt;Node4</title>
<path fill="none" stroke="midnightblue" d="M1016.03,-709.87C1045.18,-699.95 1093.78,-683.41 1130.81,-670.81"/>
<polygon fill="midnightblue" stroke="midnightblue" points="1132.1,-674.06 1140.44,-667.53 1129.85,-667.44 1132.1,-674.06"/>
</g>
<!-- Node36&#45;&gt;Node15 -->
<g id="edge120" class="edge">
<title>Node36&#45;&gt;Node15</title>
<path fill="none" stroke="midnightblue" d="M974.98,-709.89C926.57,-682.31 779.64,-590.64 726.66,-467 705.38,-417.32 753.09,-398.06 798.66,-369 865.4,-326.45 889.88,-330.65 963.66,-302 1030.39,-276.09 1044.78,-261.5 1114.66,-246 1304.09,-203.97 1533.14,-196.09 1652.11,-195.11"/>
<polygon fill="midnightblue" stroke="midnightblue" points="1652.25,-198.61 1662.23,-195.04 1652.2,-191.61 1652.25,-198.61"/>
</g>
<!-- Node36&#45;&gt;Node26 -->
<g id="edge119" class="edge">
<title>Node36&#45;&gt;Node26</title>
<path fill="none" stroke="midnightblue" d="M996.17,-709.99C1006.76,-694.1 1031.36,-659.51 1058.66,-637 1201.56,-519.2 1258.15,-519.07 1423.66,-436 1446.14,-424.72 1471.66,-413.03 1492.56,-403.74"/>
<polygon fill="midnightblue" stroke="midnightblue" points="1494.08,-406.9 1501.81,-399.66 1491.25,-400.5 1494.08,-406.9"/>
</g>
<!-- Node36&#45;&gt;Node32 -->
<g id="edge117" class="edge">
<title>Node36&#45;&gt;Node32</title>
<path fill="none" stroke="midnightblue" d="M1002.37,-709.8C1029.96,-689.33 1097.15,-639.62 1102.66,-637 1143.11,-617.74 1192.04,-604.95 1230.11,-597.06"/>
<polygon fill="midnightblue" stroke="midnightblue" points="1230.93,-600.47 1240.04,-595.07 1229.55,-593.61 1230.93,-600.47"/>
</g>
<!-- Node37 -->
<g id="node37" class="node">
<title>Node37</title>
<g id="a_node37"><a xlink:title=" ">
<polygon fill="white" stroke="#bfbfbf" points="1033.16,-375 1033.16,-394 1126.16,-394 1126.16,-375 1033.16,-375"/>
<text text-anchor="middle" x="1079.66" y="-382" font-family="Helvetica,sans-Serif" font-size="10.00">unordered_map</text>
</a>
</g>
</g>
<!-- Node36&#45;&gt;Node37 -->
<g id="edge92" class="edge">
<title>Node36&#45;&gt;Node37</title>
<path fill="none" stroke="midnightblue" d="M990.17,-709.87C989.47,-694.93 988.68,-663.31 992.66,-637 1006.49,-545.81 1051.65,-443.91 1070.87,-403.45"/>
<polygon fill="midnightblue" stroke="midnightblue" points="1074.08,-404.86 1075.27,-394.33 1067.77,-401.82 1074.08,-404.86"/>
</g>
<!-- Node38 -->
<g id="node38" class="node">
<title>Node38</title>
<g id="a_node38"><a xlink:href="right__of__way__rule_8h.html" target="_top" xlink:title=" ">
<polygon fill="white" stroke="black" points="1452.16,-570.5 1452.16,-600.5 1577.16,-600.5 1577.16,-570.5 1452.16,-570.5"/>
<text text-anchor="start" x="1460.16" y="-588.5" font-family="Helvetica,sans-Serif" font-size="10.00">maliput/api/rules/right</text>
<text text-anchor="middle" x="1514.66" y="-577.5" font-family="Helvetica,sans-Serif" font-size="10.00">_of_way_rule.h</text>
</a>
</g>
</g>
<!-- Node36&#45;&gt;Node38 -->
<g id="edge94" class="edge">
<title>Node36&#45;&gt;Node38</title>
<path fill="none" stroke="midnightblue" d="M1047.96,-710C1103.13,-701.3 1188.71,-686.47 1261.66,-668 1334.01,-649.69 1415.91,-621.99 1466.43,-604.07"/>
<polygon fill="midnightblue" stroke="midnightblue" points="1467.86,-607.28 1476.1,-600.62 1465.51,-600.68 1467.86,-607.28"/>
</g>
<!-- Node39 -->
<g id="node39" class="node">
<title>Node39</title>
<g id="a_node39"><a xlink:href="traffic__lights_8h.html" target="_top" xlink:title=" ">
<polygon fill="white" stroke="black" points="1175.16,-436.5 1175.16,-466.5 1306.16,-466.5 1306.16,-436.5 1175.16,-436.5"/>
<text text-anchor="start" x="1183.16" y="-454.5" font-family="Helvetica,sans-Serif" font-size="10.00">maliput/api/rules/traffic</text>
<text text-anchor="middle" x="1240.66" y="-443.5" font-family="Helvetica,sans-Serif" font-size="10.00">_lights.h</text>
</a>
</g>
</g>
<!-- Node36&#45;&gt;Node39 -->
<g id="edge118" class="edge">
<title>Node36&#45;&gt;Node39</title>
<path fill="none" stroke="midnightblue" d="M991.26,-709.77C993.27,-685.73 1001.37,-617.18 1030.66,-570 1063.1,-517.76 1127.66,-486.75 1176.68,-469.83"/>
<polygon fill="midnightblue" stroke="midnightblue" points="1177.88,-473.11 1186.26,-466.63 1175.67,-466.47 1177.88,-473.11"/>
</g>
<!-- Node41 -->
<g id="node41" class="node">
<title>Node41</title>
<g id="a_node41"><a xlink:href="maliput__deprecated_8h.html" target="_top" xlink:title=" ">
<polygon fill="white" stroke="black" points="1996.66,-503.5 1996.66,-533.5 2136.66,-533.5 2136.66,-503.5 1996.66,-503.5"/>
<text text-anchor="start" x="2004.66" y="-521.5" font-family="Helvetica,sans-Serif" font-size="10.00">maliput/common/maliput</text>
<text text-anchor="middle" x="2066.66" y="-510.5" font-family="Helvetica,sans-Serif" font-size="10.00">_deprecated.h</text>
</a>
</g>
</g>
<!-- Node36&#45;&gt;Node41 -->
<g id="edge121" class="edge">
<title>Node36&#45;&gt;Node41</title>
<path fill="none" stroke="midnightblue" d="M1060.7,-718.75C1218.55,-717.38 1612.45,-703.06 1921.66,-601 1944.7,-593.4 1999.94,-560.68 2035.2,-539.08"/>
<polygon fill="midnightblue" stroke="midnightblue" points="2037.45,-541.8 2044.14,-533.58 2033.79,-535.84 2037.45,-541.8"/>
</g>
<!-- Node38&#45;&gt;Node6 -->
<g id="edge97" class="edge">
<title>Node38&#45;&gt;Node6</title>
<path fill="none" stroke="midnightblue" d="M1577.23,-573.37C1626.97,-564.1 1698.17,-549.88 1759.66,-534 1808.12,-521.49 1938.49,-501.58 1974.66,-467 2030.39,-413.73 2045.4,-316.52 2049.32,-275.77"/>
<polygon fill="midnightblue" stroke="midnightblue" points="2052.82,-275.91 2050.18,-265.65 2045.85,-275.32 2052.82,-275.91"/>
</g>
<!-- Node38&#45;&gt;Node7 -->
<g id="edge98" class="edge">
<title>Node38&#45;&gt;Node7</title>
<path fill="none" stroke="midnightblue" d="M1552.85,-570.4C1584.28,-558.79 1628.35,-542.51 1658.12,-531.52"/>
<polygon fill="midnightblue" stroke="midnightblue" points="1659.46,-534.75 1667.63,-528.01 1657.04,-528.19 1659.46,-534.75"/>
</g>
<!-- Node38&#45;&gt;Node15 -->
<g id="edge114" class="edge">
<title>Node38&#45;&gt;Node15</title>
<path fill="none" stroke="midnightblue" d="M1534.29,-570.25C1581.93,-535.2 1701.38,-444.4 1722.66,-400 1751.25,-340.38 1743.57,-259.43 1737.24,-219.63"/>
<polygon fill="midnightblue" stroke="midnightblue" points="1740.65,-218.81 1735.52,-209.54 1733.75,-219.99 1740.65,-218.81"/>
</g>
<!-- Node38&#45;&gt;Node16 -->
<g id="edge116" class="edge">
<title>Node38&#45;&gt;Node16</title>
<path fill="none" stroke="midnightblue" d="M1451.87,-577.64C1385.46,-569.72 1277.89,-555.05 1186.66,-534 1088.72,-511.4 814.29,-480.92 754.66,-400 673.24,-289.49 860.03,-194.82 1021.66,-123 1100.68,-87.89 1199.83,-76.61 1268.11,-73.27"/>
<polygon fill="midnightblue" stroke="midnightblue" points="1268.54,-76.76 1278.38,-72.82 1268.24,-69.77 1268.54,-76.76"/>
</g>
<!-- Node38&#45;&gt;Node18 -->
<g id="edge95" class="edge">
<title>Node38&#45;&gt;Node18</title>
<path fill="none" stroke="midnightblue" d="M1577.3,-581.02C1655.4,-575.64 1792.55,-562.75 1906.66,-534 1944.04,-524.58 1950.02,-511.28 1987.66,-503 2219.55,-452 2286.52,-506.34 2520.66,-467 2572.44,-458.3 2583.03,-445.54 2634.66,-436 2792.35,-406.86 2839.7,-444.82 2993.66,-400 3057.21,-381.5 3091.95,-389.35 3126.66,-333 3177.31,-250.78 3099.05,-132.81 3066.13,-89.38"/>
<polygon fill="midnightblue" stroke="midnightblue" points="3068.75,-87.04 3059.86,-81.28 3063.22,-91.33 3068.75,-87.04"/>
</g>
<!-- Node38&#45;&gt;Node26 -->
<g id="edge113" class="edge">
<title>Node38&#45;&gt;Node26</title>
<path fill="none" stroke="midnightblue" d="M1513.95,-570.36C1513.48,-560.23 1512.91,-546.28 1512.66,-534 1512.39,-520.22 1511.39,-516.72 1512.66,-503 1515.69,-470.38 1523.35,-433.32 1528.77,-409.7"/>
<polygon fill="midnightblue" stroke="midnightblue" points="1532.21,-410.39 1531.09,-399.85 1525.39,-408.79 1532.21,-410.39"/>
</g>
<!-- Node38&#45;&gt;Node37 -->
<g id="edge96" class="edge">
<title>Node38&#45;&gt;Node37</title>
<path fill="none" stroke="midnightblue" d="M1451.83,-578.47C1370.83,-567.93 1228.96,-539.82 1132.66,-467 1110.73,-450.41 1095.25,-421.93 1086.89,-403.41"/>
<polygon fill="midnightblue" stroke="midnightblue" points="1090.04,-401.87 1082.89,-394.05 1083.6,-404.62 1090.04,-401.87"/>
</g>
<!-- Node38&#45;&gt;Node39 -->
<g id="edge99" class="edge">
<title>Node38&#45;&gt;Node39</title>
<path fill="none" stroke="midnightblue" d="M1485.6,-570.5C1435.86,-546.54 1334.44,-497.68 1278.99,-470.96"/>
<polygon fill="midnightblue" stroke="midnightblue" points="1280.37,-467.74 1269.84,-466.56 1277.33,-474.05 1280.37,-467.74"/>
</g>
<!-- Node38&#45;&gt;Node41 -->
<g id="edge115" class="edge">
<title>Node38&#45;&gt;Node41</title>
<path fill="none" stroke="midnightblue" d="M1577.33,-577.17C1661.06,-567.37 1814.03,-549.43 1944.66,-534 1958.13,-532.41 1972.43,-530.71 1986.32,-529.06"/>
<polygon fill="midnightblue" stroke="midnightblue" points="1986.83,-532.53 1996.35,-527.87 1986,-525.58 1986.83,-532.53"/>
</g>
<!-- Node39&#45;&gt;Node2 -->
<g id="edge102" class="edge">
<title>Node39&#45;&gt;Node2</title>
<path fill="none" stroke="midnightblue" d="M1175.07,-447.15C1082.78,-441.61 909.65,-428.24 764.66,-400 672.84,-382.11 401.74,-299.18 302.55,-268.47"/>
<polygon fill="midnightblue" stroke="midnightblue" points="303.55,-265.12 292.96,-265.5 301.47,-271.8 303.55,-265.12"/>
</g>
<!-- Node39&#45;&gt;Node5 -->
<g id="edge103" class="edge">
<title>Node39&#45;&gt;Node5</title>
<path fill="none" stroke="midnightblue" d="M1175.03,-449C1068.12,-445.58 861.96,-434.57 798.66,-400 747.17,-371.88 631.66,-254.17 631.66,-195.5 631.66,-195.5 631.66,-195.5 631.66,-132 631.66,-58.12 735.12,-27.39 789.35,-16.35"/>
<polygon fill="midnightblue" stroke="midnightblue" points="790.34,-19.73 799.5,-14.4 789.01,-12.85 790.34,-19.73"/>
</g>
<!-- Node39&#45;&gt;Node6 -->
<g id="edge105" class="edge">
<title>Node39&#45;&gt;Node6</title>
<path fill="none" stroke="midnightblue" d="M1303.74,-436.5C1336.25,-428.09 1376.03,-415.9 1409.66,-400 1431.95,-389.46 1432.86,-378.36 1455.66,-369 1657.7,-286.06 1923.72,-263.98 2016.78,-258.6"/>
<polygon fill="midnightblue" stroke="midnightblue" points="2017.21,-262.08 2027.01,-258.03 2016.83,-255.09 2017.21,-262.08"/>
</g>
<!-- Node39&#45;&gt;Node11 -->
<g id="edge101" class="edge">
<title>Node39&#45;&gt;Node11</title>
<path fill="none" stroke="midnightblue" d="M1306.22,-446.21C1381.4,-440.23 1507.91,-426.95 1613.66,-400 1616.49,-399.28 1619.39,-398.42 1622.26,-397.47"/>
<polygon fill="midnightblue" stroke="midnightblue" points="1623.59,-400.72 1631.83,-394.06 1621.23,-394.13 1623.59,-400.72"/>
</g>
<!-- Node39&#45;&gt;Node12 -->
<g id="edge106" class="edge">
<title>Node39&#45;&gt;Node12</title>
<path fill="none" stroke="midnightblue" d="M1306.55,-447.16C1523.86,-436.16 2217.22,-401.06 2448.65,-389.35"/>
<polygon fill="midnightblue" stroke="midnightblue" points="2448.85,-392.84 2458.66,-388.84 2448.49,-385.85 2448.85,-392.84"/>
</g>
<!-- Node39&#45;&gt;Node13 -->
<g id="edge100" class="edge">
<title>Node39&#45;&gt;Node13</title>
<path fill="none" stroke="midnightblue" d="M1290.31,-436.44C1316.43,-427.92 1348.39,-415.65 1374.66,-400 1436.61,-363.1 1497.6,-302.08 1524.85,-273.16"/>
<polygon fill="midnightblue" stroke="midnightblue" points="1527.65,-275.29 1531.9,-265.59 1522.53,-270.52 1527.65,-275.29"/>
</g>
<!-- Node39&#45;&gt;Node15 -->
<g id="edge109" class="edge">
<title>Node39&#45;&gt;Node15</title>
<path fill="none" stroke="midnightblue" d="M1264.76,-436.32C1280.72,-426.64 1301.9,-413.21 1319.66,-400 1403.86,-337.36 1404.7,-292.73 1498.66,-246 1546.68,-222.12 1605.74,-209.48 1652.51,-202.82"/>
<polygon fill="midnightblue" stroke="midnightblue" points="1653.16,-206.27 1662.6,-201.45 1652.22,-199.33 1653.16,-206.27"/>
</g>
<!-- Node39&#45;&gt;Node23 -->
<g id="edge112" class="edge">
<title>Node39&#45;&gt;Node23</title>
<path fill="none" stroke="midnightblue" d="M1306.31,-448.35C1573.64,-439.57 2567.64,-406.54 2599.66,-400 2637.43,-392.29 2643.51,-379.25 2680.66,-369 2770.26,-344.28 2825.29,-402.8 2886.66,-333 2932.6,-280.76 2903.44,-232.24 2858.66,-179 2848,-166.32 2832.94,-155.59 2820,-147.8"/>
<polygon fill="midnightblue" stroke="midnightblue" points="2821.46,-144.6 2811.05,-142.65 2817.98,-150.67 2821.46,-144.6"/>
</g>
<!-- Node39&#45;&gt;Node26 -->
<g id="edge107" class="edge">
<title>Node39&#45;&gt;Node26</title>
<path fill="none" stroke="midnightblue" d="M1304.09,-436.48C1350.29,-426.26 1412.97,-412.41 1461.31,-401.72"/>
<polygon fill="midnightblue" stroke="midnightblue" points="1462.08,-405.13 1471.09,-399.55 1460.57,-398.3 1462.08,-405.13"/>
</g>
<!-- Node39&#45;&gt;Node28 -->
<g id="edge110" class="edge">
<title>Node39&#45;&gt;Node28</title>
<path fill="none" stroke="midnightblue" d="M1267.97,-436.36C1281.37,-427.81 1296.2,-415.54 1303.66,-400 1309.63,-387.58 1311.23,-380.51 1303.66,-369 1294.06,-354.4 1279.24,-344 1263.35,-336.6"/>
<polygon fill="midnightblue" stroke="midnightblue" points="1264.46,-333.27 1253.89,-332.58 1261.72,-339.71 1264.46,-333.27"/>
</g>
<!-- Node39&#45;&gt;Node33 -->
<g id="edge108" class="edge">
<title>Node39&#45;&gt;Node33</title>
<path fill="none" stroke="midnightblue" d="M1174.87,-438.88C1105.46,-426.62 997.12,-407.48 930.76,-395.76"/>
<polygon fill="midnightblue" stroke="midnightblue" points="931.34,-392.31 920.88,-394.02 930.12,-399.2 931.34,-392.31"/>
</g>
<!-- Node39&#45;&gt;Node37 -->
<g id="edge104" class="edge">
<title>Node39&#45;&gt;Node37</title>
<path fill="none" stroke="midnightblue" d="M1205.73,-436.4C1177.23,-424.89 1137.37,-408.8 1110.15,-397.81"/>
<polygon fill="midnightblue" stroke="midnightblue" points="1111.32,-394.51 1100.73,-394.01 1108.7,-401 1111.32,-394.51"/>
</g>
<!-- Node40 -->
<g id="node40" class="node">
<title>Node40</title>
<g id="a_node40"><a xlink:href="passkey_8h.html" target="_top" xlink:title=" ">
<polygon fill="white" stroke="black" points="1144.66,-375 1144.66,-394 1294.66,-394 1294.66,-375 1144.66,-375"/>
<text text-anchor="middle" x="1219.66" y="-382" font-family="Helvetica,sans-Serif" font-size="10.00">maliput/common/passkey.h</text>
</a>
</g>
</g>
<!-- Node39&#45;&gt;Node40 -->
<g id="edge111" class="edge">
<title>Node39&#45;&gt;Node40</title>
<path fill="none" stroke="midnightblue" d="M1236.11,-436.4C1233.03,-426.86 1228.93,-414.18 1225.6,-403.86"/>
<polygon fill="midnightblue" stroke="midnightblue" points="1228.88,-402.63 1222.47,-394.19 1222.22,-404.79 1228.88,-402.63"/>
</g>
<!-- Node42&#45;&gt;Node2 -->
<g id="edge123" class="edge">
<title>Node42&#45;&gt;Node2</title>
<path fill="none" stroke="midnightblue" d="M527.09,-789.51C476.81,-785.23 408.2,-772.25 360.66,-735 229.86,-632.52 226.3,-563.13 194.66,-400 186.37,-357.24 173.67,-340.16 194.66,-302 202.55,-287.66 217.15,-277.25 231.07,-270.08"/>
<polygon fill="midnightblue" stroke="midnightblue" points="232.96,-273.06 240.5,-265.62 229.97,-266.73 232.96,-273.06"/>
</g>
<!-- Node42&#45;&gt;Node6 -->
<g id="edge125" class="edge">
<title>Node42&#45;&gt;Node6</title>
<path fill="none" stroke="midnightblue" d="M640.79,-777C650.91,-774.57 661.57,-772.38 671.66,-771 1332.81,-680.55 1509.4,-808.32 2172.66,-735 2357.33,-714.59 2582.66,-839.29 2582.66,-653.5 2582.66,-653.5 2582.66,-653.5 2582.66,-517.5 2582.66,-415.55 2270.97,-343.08 2177.66,-302 2146.67,-288.35 2110.11,-275.75 2084.2,-267.37"/>
<polygon fill="midnightblue" stroke="midnightblue" points="2085.07,-263.98 2074.48,-264.27 2082.94,-270.65 2085.07,-263.98"/>
</g>
<!-- Node42&#45;&gt;Node15 -->
<g id="edge128" class="edge">
<title>Node42&#45;&gt;Node15</title>
<path fill="none" stroke="midnightblue" d="M527.08,-789.15C483.44,-784.38 428.01,-770.94 393.66,-735 367.97,-708.11 374.66,-690.69 374.66,-653.5 374.66,-653.5 374.66,-653.5 374.66,-517.5 374.66,-438.49 462.16,-471.68 532.66,-436 715.11,-343.68 751.77,-289.03 951.66,-246 1083.54,-217.61 1480.72,-202.88 1652.29,-197.7"/>
<polygon fill="midnightblue" stroke="midnightblue" points="1652.63,-201.19 1662.52,-197.39 1652.42,-194.19 1652.63,-201.19"/>
</g>
<!-- Node42&#45;&gt;Node26 -->
<g id="edge127" class="edge">
<title>Node42&#45;&gt;Node26</title>
<path fill="none" stroke="midnightblue" d="M617.95,-776.87C668.5,-748.84 785.94,-684.75 887.66,-637 1027.24,-571.49 1063.31,-557.19 1207.66,-503 1255.03,-485.22 1270.89,-490.57 1315.66,-467 1335.88,-456.36 1336.21,-446.18 1356.66,-436 1387.15,-420.82 1422.92,-409.55 1454.36,-401.56"/>
<polygon fill="midnightblue" stroke="midnightblue" points="1455.54,-404.88 1464.41,-399.08 1453.86,-398.08 1455.54,-404.88"/>
</g>
<!-- Node42&#45;&gt;Node36 -->
<g id="edge126" class="edge">
<title>Node42&#45;&gt;Node36</title>
<path fill="none" stroke="midnightblue" d="M645.2,-776.99C654.01,-774.85 663.07,-772.76 671.66,-771 754.56,-753.98 850.59,-739.48 915.45,-730.44"/>
<polygon fill="midnightblue" stroke="midnightblue" points="916.16,-733.87 925.59,-729.03 915.2,-726.94 916.16,-733.87"/>
</g>
<!-- Node42&#45;&gt;Node37 -->
<g id="edge124" class="edge">
<title>Node42&#45;&gt;Node37</title>
<path fill="none" stroke="midnightblue" d="M595.36,-776.59C601.3,-747.76 617.7,-681.91 650.66,-637 752.01,-498.92 953.93,-423.81 1039.67,-397"/>
<polygon fill="midnightblue" stroke="midnightblue" points="1040.76,-400.32 1049.29,-394.04 1038.71,-393.63 1040.76,-400.32"/>
</g>
<!-- Node43&#45;&gt;Node2 -->
<g id="edge132" class="edge">
<title>Node43&#45;&gt;Node2</title>
<path fill="none" stroke="midnightblue" d="M1386.04,-863.63C1201.72,-863.42 682.13,-858.66 518.66,-813 447.81,-793.21 421.1,-790.38 372.66,-735 344.09,-702.33 263.34,-414.79 260.66,-400 252.88,-357.11 252.37,-345.38 256.66,-302 257.54,-293.17 259.35,-283.51 261.13,-275.4"/>
<polygon fill="midnightblue" stroke="midnightblue" points="264.56,-276.08 263.43,-265.55 257.75,-274.49 264.56,-276.08"/>
</g>
<!-- Node43&#45;&gt;Node6 -->
<g id="edge133" class="edge">
<title>Node43&#45;&gt;Node6</title>
<path fill="none" stroke="midnightblue" d="M1517.28,-863.12C1740.62,-861.48 2462.81,-853.08 2558.66,-813 2614.52,-789.65 2658.66,-781.04 2658.66,-720.5 2658.66,-720.5 2658.66,-720.5 2658.66,-517.5 2658.66,-446.48 2654.12,-414.58 2599.66,-369 2520.07,-302.37 2191.62,-268.99 2084.57,-259.73"/>
<polygon fill="midnightblue" stroke="midnightblue" points="2084.6,-256.23 2074.34,-258.87 2084.01,-263.2 2084.6,-256.23"/>
</g>
<!-- Node43&#45;&gt;Node15 -->
<g id="edge137" class="edge">
<title>Node43&#45;&gt;Node15</title>
<path fill="none" stroke="midnightblue" d="M1517.17,-861.87C1752.97,-855.13 2544.66,-824.74 2544.66,-720.5 2544.66,-720.5 2544.66,-720.5 2544.66,-584.5 2544.66,-473.71 2284.77,-277.87 2178.66,-246 2054.7,-208.76 1903.85,-198.59 1813.18,-196.03"/>
<polygon fill="midnightblue" stroke="midnightblue" points="1813.06,-192.53 1802.97,-195.77 1812.88,-199.53 1813.06,-192.53"/>
</g>
<!-- Node43&#45;&gt;Node32 -->
<g id="edge136" class="edge">
<title>Node43&#45;&gt;Node32</title>
<path fill="none" stroke="midnightblue" d="M1445.41,-849.47C1428.99,-813.14 1382.45,-713.51 1332.66,-637 1324.91,-625.09 1315,-612.55 1306.98,-602.96"/>
<polygon fill="midnightblue" stroke="midnightblue" points="1309.41,-600.41 1300.26,-595.07 1304.08,-604.95 1309.41,-600.41"/>
</g>
<!-- Node43&#45;&gt;Node38 -->
<g id="edge135" class="edge">
<title>Node43&#45;&gt;Node38</title>
<path fill="none" stroke="midnightblue" d="M1454.87,-849.38C1465.01,-804.84 1496.38,-666.87 1509.16,-610.68"/>
<polygon fill="midnightblue" stroke="midnightblue" points="1512.65,-611.12 1511.46,-600.59 1505.83,-609.56 1512.65,-611.12"/>
</g>
<!-- Node43&#45;&gt;Node41 -->
<g id="edge138" class="edge">
<title>Node43&#45;&gt;Node41</title>
<path fill="none" stroke="midnightblue" d="M1517.25,-849.77C1662.33,-818.96 1997.66,-745.07 1997.66,-720.5 1997.66,-720.5 1997.66,-720.5 1997.66,-651.5 1997.66,-608.75 2026.44,-566.17 2046.82,-541.37"/>
<polygon fill="midnightblue" stroke="midnightblue" points="2049.56,-543.55 2053.36,-533.66 2044.22,-539.02 2049.56,-543.55"/>
</g>
<!-- Node43&#45;&gt;Node42 -->
<g id="edge134" class="edge">
<title>Node43&#45;&gt;Node42</title>
<path fill="none" stroke="midnightblue" d="M1385.99,-863.3C1251.23,-861.99 934.06,-854.35 671.66,-813 665.43,-812.02 658.96,-810.77 652.54,-809.38"/>
<polygon fill="midnightblue" stroke="midnightblue" points="653.05,-805.91 642.53,-807.09 651.5,-812.73 653.05,-805.91"/>
</g>
<!-- Node44&#45;&gt;Node4 -->
<g id="edge151" class="edge">
<title>Node44&#45;&gt;Node4</title>
<path fill="none" stroke="midnightblue" d="M2039.51,-714.11C1877.68,-702.67 1443.29,-671.98 1262.42,-659.21"/>
<polygon fill="midnightblue" stroke="midnightblue" points="1262.66,-655.71 1252.44,-658.5 1262.17,-662.7 1262.66,-655.71"/>
</g>
<!-- Node44&#45;&gt;Node6 -->
<g id="edge141" class="edge">
<title>Node44&#45;&gt;Node6</title>
<path fill="none" stroke="midnightblue" d="M2163.78,-715.64C2234.37,-710.94 2343.15,-698.79 2368.66,-668 2396.45,-634.46 2381.57,-611.6 2368.66,-570 2322.41,-420.91 2271.85,-388.13 2141.66,-302 2122.47,-289.31 2099.19,-277.86 2080.98,-269.68"/>
<polygon fill="midnightblue" stroke="midnightblue" points="2082.27,-266.43 2071.71,-265.61 2079.46,-272.84 2082.27,-266.43"/>
</g>
<!-- Node44&#45;&gt;Node7 -->
<g id="edge142" class="edge">
<title>Node44&#45;&gt;Node7</title>
<path fill="none" stroke="midnightblue" d="M2051.73,-704.43C1951.01,-675.87 1731.99,-612.8 1719.66,-601 1702.33,-584.4 1695.33,-556.76 1692.53,-538.34"/>
<polygon fill="midnightblue" stroke="midnightblue" points="1695.98,-537.72 1691.26,-528.24 1689.03,-538.59 1695.98,-537.72"/>
</g>
<!-- Node44&#45;&gt;Node15 -->
<g id="edge165" class="edge">
<title>Node44&#45;&gt;Node15</title>
<path fill="none" stroke="midnightblue" d="M2163.81,-716.19C2208.09,-711.69 2266.93,-699.6 2308.66,-668 2341.82,-642.89 2354.66,-628.09 2354.66,-586.5 2354.66,-586.5 2354.66,-586.5 2354.66,-517.5 2354.66,-363.58 2285.49,-295.26 2139.66,-246 2030.55,-209.14 1896.83,-198.7 1813.17,-196.01"/>
<polygon fill="midnightblue" stroke="midnightblue" points="1813.06,-192.5 1802.97,-195.71 1812.86,-199.5 1813.06,-192.5"/>
</g>
<!-- Node44&#45;&gt;Node16 -->
<g id="edge166" class="edge">
<title>Node44&#45;&gt;Node16</title>
<path fill="none" stroke="midnightblue" d="M2163.88,-716.86C2228.38,-713.24 2331.01,-702.06 2412.66,-668 2545.53,-612.58 2610.12,-599.39 2666.66,-467 2672.07,-454.33 2670.36,-449.27 2666.66,-436 2648.69,-371.53 2566.28,-214.69 2509.66,-179 2418.57,-121.57 1676.69,-86.03 1428.91,-75.67"/>
<polygon fill="midnightblue" stroke="midnightblue" points="1429.03,-72.17 1418.89,-75.25 1428.74,-79.16 1429.03,-72.17"/>
</g>
<!-- Node44&#45;&gt;Node29 -->
<g id="edge140" class="edge">
<title>Node44&#45;&gt;Node29</title>
<path fill="none" stroke="midnightblue" d="M2163.95,-716.62C2239.83,-712.87 2361.42,-701.62 2389.66,-668 2437.41,-611.15 2416.42,-555.24 2363.66,-503 2149.43,-290.86 1750.08,-261.65 1639,-257.64"/>
<polygon fill="midnightblue" stroke="midnightblue" points="1638.98,-254.13 1628.88,-257.31 1638.76,-261.13 1638.98,-254.13"/>
</g>
<!-- Node44&#45;&gt;Node38 -->
<g id="edge158" class="edge">
<title>Node44&#45;&gt;Node38</title>
<path fill="none" stroke="midnightblue" d="M2039.31,-705.21C1992.36,-695.15 1926.43,-680.91 1868.66,-668 1769.76,-645.9 1655.54,-619.43 1584.2,-602.79"/>
<polygon fill="midnightblue" stroke="midnightblue" points="1584.96,-599.37 1574.43,-600.51 1583.37,-606.19 1584.96,-599.37"/>
</g>
<!-- Node45 -->
<g id="node45" class="node">
<title>Node45</title>
<g id="a_node45"><a xlink:href="direction__usage__rule_8h.html" target="_top" xlink:title=" ">
<polygon fill="white" stroke="black" points="1767.16,-570.5 1767.16,-600.5 1912.16,-600.5 1912.16,-570.5 1767.16,-570.5"/>
<text text-anchor="start" x="1775.16" y="-588.5" font-family="Helvetica,sans-Serif" font-size="10.00">maliput/api/rules/direction</text>
<text text-anchor="middle" x="1839.66" y="-577.5" font-family="Helvetica,sans-Serif" font-size="10.00">_usage_rule.h</text>
</a>
</g>
</g>
<!-- Node44&#45;&gt;Node45 -->
<g id="edge143" class="edge">
<title>Node44&#45;&gt;Node45</title>
<path fill="none" stroke="midnightblue" d="M2073.62,-704.37C2026.05,-680.41 1929.55,-631.78 1876.55,-605.09"/>
<polygon fill="midnightblue" stroke="midnightblue" points="1878.01,-601.9 1867.5,-600.52 1874.86,-608.15 1878.01,-601.9"/>
</g>
<!-- Node46 -->
<g id="node46" class="node">
<title>Node46</title>
<g id="a_node46"><a xlink:href="range__value__rule_8h.html" target="_top" xlink:title=" ">
<polygon fill="white" stroke="black" points="2169.66,-637.5 2169.66,-667.5 2299.66,-667.5 2299.66,-637.5 2169.66,-637.5"/>
<text text-anchor="start" x="2177.66" y="-655.5" font-family="Helvetica,sans-Serif" font-size="10.00">maliput/api/rules/range</text>
<text text-anchor="middle" x="2234.66" y="-644.5" font-family="Helvetica,sans-Serif" font-size="10.00">_value_rule.h</text>
</a>
</g>
</g>
<!-- Node44&#45;&gt;Node46 -->
<g id="edge152" class="edge">
<title>Node44&#45;&gt;Node46</title>
<path fill="none" stroke="midnightblue" d="M2130.52,-704.4C2149.96,-694.9 2175.78,-682.28 2196.85,-671.98"/>
<polygon fill="midnightblue" stroke="midnightblue" points="2198.41,-675.11 2205.86,-667.58 2195.34,-668.82 2198.41,-675.11"/>
</g>
<!-- Node47 -->
<g id="node47" class="node">
<title>Node47</title>
<g id="a_node47"><a xlink:href="speed__limit__rule_8h.html" target="_top" xlink:title=" ">
<polygon fill="white" stroke="black" points="2076.16,-570.5 2076.16,-600.5 2207.16,-600.5 2207.16,-570.5 2076.16,-570.5"/>
<text text-anchor="start" x="2084.16" y="-588.5" font-family="Helvetica,sans-Serif" font-size="10.00">maliput/api/rules/speed</text>
<text text-anchor="middle" x="2141.66" y="-577.5" font-family="Helvetica,sans-Serif" font-size="10.00">_limit_rule.h</text>
</a>
</g>
</g>
<!-- Node44&#45;&gt;Node47 -->
<g id="edge159" class="edge">
<title>Node44&#45;&gt;Node47</title>
<path fill="none" stroke="midnightblue" d="M2105.94,-704.37C2112.77,-681.85 2126.2,-637.53 2134.5,-610.12"/>
<polygon fill="midnightblue" stroke="midnightblue" points="2137.86,-611.11 2137.41,-600.52 2131.16,-609.08 2137.86,-611.11"/>
</g>
<!-- Node45&#45;&gt;Node6 -->
<g id="edge145" class="edge">
<title>Node45&#45;&gt;Node6</title>
<path fill="none" stroke="midnightblue" d="M1856.18,-570.39C1877.66,-552.63 1916.9,-522.14 1954.66,-503 1999.79,-480.12 2032.47,-507.6 2062.66,-467 2084.86,-437.15 2064.13,-321.81 2054.74,-275.95"/>
<polygon fill="midnightblue" stroke="midnightblue" points="2058.1,-274.96 2052.63,-265.89 2051.25,-276.39 2058.1,-274.96"/>
</g>
<!-- Node45&#45;&gt;Node7 -->
<g id="edge146" class="edge">
<title>Node45&#45;&gt;Node7</title>
<path fill="none" stroke="midnightblue" d="M1807.33,-570.4C1781.19,-558.99 1744.71,-543.08 1719.54,-532.1"/>
<polygon fill="midnightblue" stroke="midnightblue" points="1720.73,-528.8 1710.16,-528.01 1717.93,-535.21 1720.73,-528.8"/>
</g>
<!-- Node45&#45;&gt;Node15 -->
<g id="edge148" class="edge">
<title>Node45&#45;&gt;Node15</title>
<path fill="none" stroke="midnightblue" d="M1848.14,-570.42C1858.93,-553.23 1878.81,-523.87 1900.66,-503 1921.25,-483.33 1940.34,-492.16 1953.66,-467 1960.11,-454.82 1957.81,-449.14 1953.66,-436 1922.67,-337.69 1896.75,-315.54 1820.66,-246 1806.86,-233.38 1789.37,-222.55 1773.63,-214.18"/>
<polygon fill="midnightblue" stroke="midnightblue" points="1775.1,-211 1764.6,-209.55 1771.9,-217.23 1775.1,-211"/>
</g>
<!-- Node45&#45;&gt;Node16 -->
<g id="edge150" class="edge">
<title>Node45&#45;&gt;Node16</title>
<path fill="none" stroke="midnightblue" d="M1872.23,-570.33C1893.09,-560.86 1920.5,-547.66 1943.66,-534 1964.27,-521.85 1965.28,-511.43 1987.66,-503 2128.63,-449.92 2176.1,-491.89 2324.66,-467 2455.98,-445 2487.46,-432.19 2616.66,-400 2732.06,-371.25 2926.03,-404.47 2865.66,-302 2782.36,-160.59 2700.66,-167.43 2542.66,-123 2436.22,-93.06 1679.15,-77.97 1428.8,-73.75"/>
<polygon fill="midnightblue" stroke="midnightblue" points="1428.75,-70.25 1418.69,-73.58 1428.63,-77.25 1428.75,-70.25"/>
</g>
<!-- Node45&#45;&gt;Node26 -->
<g id="edge147" class="edge">
<title>Node45&#45;&gt;Node26</title>
<path fill="none" stroke="midnightblue" d="M1767.15,-582.07C1721.58,-577.28 1663.68,-564.91 1621.66,-534 1578.66,-502.37 1553.31,-442.56 1541.91,-409.31"/>
<polygon fill="midnightblue" stroke="midnightblue" points="1545.14,-407.93 1538.7,-399.52 1538.49,-410.11 1545.14,-407.93"/>
</g>
<!-- Node45&#45;&gt;Node37 -->
<g id="edge144" class="edge">
<title>Node45&#45;&gt;Node37</title>
<path fill="none" stroke="midnightblue" d="M1767,-577.12C1615.56,-560.89 1271.53,-519.33 1166.66,-467 1164.54,-465.94 1120.86,-424.62 1096.22,-401.24"/>
<polygon fill="midnightblue" stroke="midnightblue" points="1098.34,-398.42 1088.68,-394.08 1093.52,-403.5 1098.34,-398.42"/>
</g>
<!-- Node45&#45;&gt;Node41 -->
<g id="edge149" class="edge">
<title>Node45&#45;&gt;Node41</title>
<path fill="none" stroke="midnightblue" d="M1888.64,-570.48C1923.58,-560.47 1970.72,-546.97 2007.72,-536.38"/>
<polygon fill="midnightblue" stroke="midnightblue" points="2008.73,-539.73 2017.38,-533.61 2006.81,-533 2008.73,-539.73"/>
</g>
<!-- Node46&#45;&gt;Node5 -->
<g id="edge153" class="edge">
<title>Node46&#45;&gt;Node5</title>
<path fill="none" stroke="midnightblue" d="M2284.2,-637.43C2484.86,-579.75 3226.66,-359.57 3226.66,-257 3226.66,-257 3226.66,-257 3226.66,-132 3226.66,-82.96 3192.03,-74.63 3146.66,-56 3035.7,-10.44 1126.33,-10.69 853.91,-10.96"/>
<polygon fill="midnightblue" stroke="midnightblue" points="853.87,-7.46 843.87,-10.97 853.88,-14.46 853.87,-7.46"/>
</g>
<!-- Node46&#45;&gt;Node6 -->
<g id="edge154" class="edge">
<title>Node46&#45;&gt;Node6</title>
<path fill="none" stroke="midnightblue" d="M2259.25,-637.29C2271.76,-628.59 2285.75,-616.19 2292.66,-601 2313.74,-554.7 2294.94,-499.91 2254.66,-436 2229.18,-395.55 2115.92,-306.76 2070.05,-271.68"/>
<polygon fill="midnightblue" stroke="midnightblue" points="2072.14,-268.87 2062.06,-265.59 2067.89,-274.44 2072.14,-268.87"/>
</g>
<!-- Node46&#45;&gt;Node7 -->
<g id="edge155" class="edge">
<title>Node46&#45;&gt;Node7</title>
<path fill="none" stroke="midnightblue" d="M2169.5,-650.57C2056.17,-647.97 1828.21,-638.15 1758.66,-601 1731.53,-586.51 1710.87,-556.27 1699.78,-536.98"/>
<polygon fill="midnightblue" stroke="midnightblue" points="1702.75,-535.11 1694.87,-528.03 1696.61,-538.48 1702.75,-535.11"/>
</g>
<!-- Node46&#45;&gt;Node15 -->
<g id="edge157" class="edge">
<title>Node46&#45;&gt;Node15</title>
<path fill="none" stroke="midnightblue" d="M2242.73,-637.37C2255.44,-613.75 2278.66,-564.43 2278.66,-519.5 2278.66,-519.5 2278.66,-519.5 2278.66,-450.5 2278.66,-332.02 2211.4,-303.23 2107.66,-246 2058.48,-218.87 1907.65,-205.45 1812.94,-199.53"/>
<polygon fill="midnightblue" stroke="midnightblue" points="1813.01,-196.03 1802.82,-198.91 1812.58,-203.02 1813.01,-196.03"/>
</g>
<!-- Node46&#45;&gt;Node32 -->
<g id="edge156" class="edge">
<title>Node46&#45;&gt;Node32</title>
<path fill="none" stroke="midnightblue" d="M2169.5,-648.05C2034.18,-640.72 1712.86,-622.51 1443.66,-601 1419.08,-599.04 1392.29,-596.57 1368.18,-594.23"/>
<polygon fill="midnightblue" stroke="midnightblue" points="1368.32,-590.73 1358.03,-593.24 1367.64,-597.69 1368.32,-590.73"/>
</g>
<!-- Node47&#45;&gt;Node7 -->
<g id="edge160" class="edge">
<title>Node47&#45;&gt;Node7</title>
<path fill="none" stroke="midnightblue" d="M2076.08,-575.05C1991.72,-562.89 1845.83,-541.86 1759.78,-529.46"/>
<polygon fill="midnightblue" stroke="midnightblue" points="1760.25,-525.99 1749.85,-528.03 1759.25,-532.92 1760.25,-525.99"/>
</g>
<!-- Node47&#45;&gt;Node15 -->
<g id="edge162" class="edge">
<title>Node47&#45;&gt;Node15</title>
<path fill="none" stroke="midnightblue" d="M2149.66,-570.44C2154.79,-560.59 2160.97,-546.92 2163.66,-534 2166.47,-520.51 2165.73,-516.62 2163.66,-503 2145.68,-384.73 2174.7,-323.61 2083.66,-246 2044.08,-212.25 1903.81,-201.05 1813.03,-197.34"/>
<polygon fill="midnightblue" stroke="midnightblue" points="1812.89,-193.83 1802.76,-196.94 1812.62,-200.83 1812.89,-193.83"/>
</g>
<!-- Node47&#45;&gt;Node16 -->
<g id="edge164" class="edge">
<title>Node47&#45;&gt;Node16</title>
<path fill="none" stroke="midnightblue" d="M2191.86,-570.48C2253.5,-553.49 2361.36,-524.46 2454.66,-503 2534.17,-484.71 2557.88,-494.57 2634.66,-467 2753.31,-424.4 2819.92,-441.17 2884.66,-333 2906.16,-297.09 2875.39,-278.2 2848.66,-246 2768.55,-149.49 2718.31,-144.06 2594.66,-123 2369.38,-84.62 1668.31,-75.2 1429.38,-73.07"/>
<polygon fill="midnightblue" stroke="midnightblue" points="1429.06,-69.57 1419.03,-72.98 1429,-76.57 1429.06,-69.57"/>
</g>
<!-- Node47&#45;&gt;Node26 -->
<g id="edge161" class="edge">
<title>Node47&#45;&gt;Node26</title>
<path fill="none" stroke="midnightblue" d="M2147.77,-570.36C2154.5,-552.28 2162.34,-521.15 2145.66,-503 2113.44,-467.95 1764.79,-478.8 1718.66,-467 1663.67,-452.93 1604.36,-423.89 1568.37,-404.55"/>
<polygon fill="midnightblue" stroke="midnightblue" points="1569.76,-401.32 1559.3,-399.61 1566.41,-407.47 1569.76,-401.32"/>
</g>
<!-- Node47&#45;&gt;Node41 -->
<g id="edge163" class="edge">
<title>Node47&#45;&gt;Node41</title>
<path fill="none" stroke="midnightblue" d="M2125.39,-570.4C2115.27,-561.62 2102.07,-550.18 2090.75,-540.37"/>
<polygon fill="midnightblue" stroke="midnightblue" points="2092.75,-537.48 2082.91,-533.58 2088.17,-542.77 2092.75,-537.48"/>
</g>
<!-- Node48&#45;&gt;Node2 -->
<g id="edge169" class="edge">
<title>Node48&#45;&gt;Node2</title>
<path fill="none" stroke="midnightblue" d="M712.42,-771.28C655.89,-730.96 526.56,-634.4 436.66,-534 388.81,-480.55 384.73,-460.81 346.66,-400 319.01,-355.82 289.58,-301.88 274.99,-274.61"/>
<polygon fill="midnightblue" stroke="midnightblue" points="277.95,-272.71 270.16,-265.53 271.77,-276 277.95,-272.71"/>
</g>
<!-- Node48&#45;&gt;Node3 -->
<g id="edge172" class="edge">
<title>Node48&#45;&gt;Node3</title>
<path fill="none" stroke="midnightblue" d="M680.51,-774.51C676.16,-773.32 671.85,-772.14 667.66,-771 626.21,-759.69 579.53,-747.02 543.31,-737.2"/>
<polygon fill="midnightblue" stroke="midnightblue" points="543.95,-733.75 533.39,-734.51 542.12,-740.5 543.95,-733.75"/>
</g>
<!-- Node48&#45;&gt;Node4 -->
<g id="edge171" class="edge">
<title>Node48&#45;&gt;Node4</title>
<path fill="none" stroke="midnightblue" d="M800.89,-788.97C868.67,-784.85 980.9,-772.41 1069.66,-735 1104.25,-720.43 1138.29,-693.33 1159.6,-674.4"/>
<polygon fill="midnightblue" stroke="midnightblue" points="1162.05,-676.9 1167.11,-667.59 1157.35,-671.71 1162.05,-676.9"/>
</g>
<!-- Node48&#45;&gt;Node15 -->
<g id="edge175" class="edge">
<title>Node48&#45;&gt;Node15</title>
<path fill="none" stroke="midnightblue" d="M740.66,-771.42C740.66,-744.75 740.66,-695.51 740.66,-653.5 740.66,-653.5 740.66,-653.5 740.66,-517.5 740.66,-516.98 1002.17,-369.17 1002.66,-369 1114.43,-331.23 1159.18,-383.8 1265.66,-333 1283.83,-324.34 1281.8,-312.98 1298.66,-302 1333.04,-279.61 1347.14,-284.68 1383.66,-266 1398.93,-258.19 1400.56,-251.91 1416.66,-246 1493.77,-217.71 1587.21,-205.25 1652.4,-199.77"/>
<polygon fill="midnightblue" stroke="midnightblue" points="1652.92,-203.24 1662.61,-198.95 1652.36,-196.27 1652.92,-203.24"/>
</g>
<!-- Node48&#45;&gt;Node16 -->
<g id="edge176" class="edge">
<title>Node48&#45;&gt;Node16</title>
<path fill="none" stroke="midnightblue" d="M721.5,-771.38C668.94,-716.53 527.8,-561.76 549.66,-503 637.91,-265.84 730.09,-191.61 973.66,-123 1072.91,-95.04 1191.42,-82.38 1268.26,-76.77"/>
<polygon fill="midnightblue" stroke="midnightblue" points="1268.63,-80.26 1278.36,-76.06 1268.14,-73.27 1268.63,-80.26"/>
</g>
<!-- Node48&#45;&gt;Node32 -->
<g id="edge174" class="edge">
<title>Node48&#45;&gt;Node32</title>
<path fill="none" stroke="midnightblue" d="M800.82,-786.78C874.74,-780.48 1003.42,-765.88 1109.66,-735 1180.56,-714.39 1210.83,-721.54 1261.66,-668 1278.24,-650.55 1286.18,-623.33 1289.82,-605.22"/>
<polygon fill="midnightblue" stroke="midnightblue" points="1293.28,-605.74 1291.57,-595.28 1286.39,-604.52 1293.28,-605.74"/>
</g>
<!-- Node48&#45;&gt;Node37 -->
<g id="edge170" class="edge">
<title>Node48&#45;&gt;Node37</title>
<path fill="none" stroke="midnightblue" d="M789.17,-771.31C833.66,-749.66 892.66,-710.26 892.66,-653.5 892.66,-653.5 892.66,-653.5 892.66,-584.5 892.66,-492.56 999.98,-425.72 1052.01,-398.71"/>
<polygon fill="midnightblue" stroke="midnightblue" points="1053.71,-401.77 1061.05,-394.13 1050.55,-395.53 1053.71,-401.77"/>
</g>
<!-- Node48&#45;&gt;Node44 -->
<g id="edge173" class="edge">
<title>Node48&#45;&gt;Node44</title>
<path fill="none" stroke="midnightblue" d="M800.9,-787.88C1022.15,-776.42 1789.49,-736.67 2029.4,-724.24"/>
<polygon fill="midnightblue" stroke="midnightblue" points="2029.6,-727.74 2039.41,-723.72 2029.24,-720.75 2029.6,-727.74"/>
</g>
</g>
</svg>
