<?xml version="1.0" encoding="UTF-8" standalone="no"?>
<!DOCTYPE svg PUBLIC "-//W3C//DTD SVG 1.1//EN"
 "http://www.w3.org/Graphics/SVG/1.1/DTD/svg11.dtd">
<!-- Generated by graphviz version 2.40.1 (20161225.0304)
 -->
<!-- Title: phase_provider.h Pages: 1 -->
<svg width="2288pt" height="855pt"
 viewBox="0.00 0.00 2288.00 855.00" xmlns="http://www.w3.org/2000/svg" xmlns:xlink="http://www.w3.org/1999/xlink">
<g id="graph0" class="graph" transform="scale(1 1) rotate(0) translate(4 851)">
<title>phase_provider.h</title>
<polygon fill="#ffffff" stroke="transparent" points="-4,4 -4,-851 2284,-851 2284,4 -4,4"/>
<!-- Node0 -->
<g id="node1" class="node">
<title>Node0</title>
<polygon fill="#bfbfbf" stroke="#000000" points="1962.5,-827.5 1962.5,-846.5 2063.5,-846.5 2063.5,-827.5 1962.5,-827.5"/>
<text text-anchor="middle" x="2013" y="-834.5" font-family="Helvetica,sans-Serif" font-size="10.00" fill="#000000">phase_provider.h</text>
</g>
<!-- Node1 -->
<g id="node2" class="node">
<title>Node1</title>
<polygon fill="#ffffff" stroke="#bfbfbf" points="1795,-246.5 1795,-265.5 1851,-265.5 1851,-246.5 1795,-246.5"/>
<text text-anchor="middle" x="1823" y="-253.5" font-family="Helvetica,sans-Serif" font-size="10.00" fill="#000000">optional</text>
</g>
<!-- Node0&#45;&gt;Node1 -->
<g id="edge1" class="edge">
<title>Node0&#45;&gt;Node1</title>
<path fill="none" stroke="#191970" d="M2013,-827.3281C2013,-805.9175 2013,-752.895 2013,-708.5 2013,-708.5 2013,-708.5 2013,-641.5 2013,-478.2852 1970.7785,-432.6844 1873,-302 1864.8019,-291.043 1853.7655,-280.5698 1844.147,-272.3921"/>
<polygon fill="#191970" stroke="#191970" points="1846.1168,-269.4809 1836.1664,-265.8422 1841.6758,-274.8919 1846.1168,-269.4809"/>
</g>
<!-- Node2 -->
<g id="node3" class="node">
<title>Node2</title>
<g id="a_node3"><a xlink:href="phase_8h.html" target="_top" xlink:title="maliput/api/rules/phase.h">
<polygon fill="#ffffff" stroke="#000000" points="1199,-699 1199,-718 1339,-718 1339,-699 1199,-699"/>
<text text-anchor="middle" x="1269" y="-706" font-family="Helvetica,sans-Serif" font-size="10.00" fill="#000000">maliput/api/rules/phase.h</text>
</a>
</g>
</g>
<!-- Node0&#45;&gt;Node2 -->
<g id="edge2" class="edge">
<title>Node0&#45;&gt;Node2</title>
<path fill="none" stroke="#191970" d="M1962.4468,-828.2687C1831.3355,-805.6238 1480.4274,-745.0167 1334.2856,-719.7758"/>
<polygon fill="#191970" stroke="#191970" points="1334.573,-716.2737 1324.1231,-718.0206 1333.3815,-723.1716 1334.573,-716.2737"/>
</g>
<!-- Node15 -->
<g id="node16" class="node">
<title>Node15</title>
<g id="a_node16"><a xlink:href="maliput__copyable_8h.html" target="_top" xlink:title="Code in this file is inspired by: https://github.com/RobotLocomotion/drake/blob/master/common/drake_c...">
<polygon fill="#ffffff" stroke="#000000" points="1514,-179.5 1514,-209.5 1654,-209.5 1654,-179.5 1514,-179.5"/>
<text text-anchor="start" x="1522" y="-197.5" font-family="Helvetica,sans-Serif" font-size="10.00" fill="#000000">maliput/common/maliput</text>
<text text-anchor="middle" x="1584" y="-186.5" font-family="Helvetica,sans-Serif" font-size="10.00" fill="#000000">_copyable.h</text>
</a>
</g>
</g>
<!-- Node0&#45;&gt;Node15 -->
<g id="edge121" class="edge">
<title>Node0&#45;&gt;Node15</title>
<path fill="none" stroke="#191970" d="M2063.5385,-831.1278C2130.9766,-820.1591 2242,-789.7614 2242,-708.5 2242,-708.5 2242,-708.5 2242,-317.5 2242,-259.3524 1839.8335,-216.9462 1664.3198,-201.208"/>
<polygon fill="#191970" stroke="#191970" points="1664.3766,-197.6993 1654.1058,-200.2993 1663.7562,-204.6718 1664.3766,-197.6993"/>
</g>
<!-- Node37 -->
<g id="node38" class="node">
<title>Node37</title>
<g id="a_node38"><a xlink:href="phase__ring_8h.html" target="_top" xlink:title="maliput/api/rules/phase\l_ring.h">
<polygon fill="#ffffff" stroke="#000000" points="1203.5,-760.5 1203.5,-790.5 1334.5,-790.5 1334.5,-760.5 1203.5,-760.5"/>
<text text-anchor="start" x="1211.5" y="-778.5" font-family="Helvetica,sans-Serif" font-size="10.00" fill="#000000">maliput/api/rules/phase</text>
<text text-anchor="middle" x="1269" y="-767.5" font-family="Helvetica,sans-Serif" font-size="10.00" fill="#000000">_ring.h</text>
</a>
</g>
</g>
<!-- Node0&#45;&gt;Node37 -->
<g id="edge112" class="edge">
<title>Node0&#45;&gt;Node37</title>
<path fill="none" stroke="#191970" d="M1962.4468,-832.8212C1834.4015,-822.2368 1496.7191,-794.3236 1344.8687,-781.7714"/>
<polygon fill="#191970" stroke="#191970" points="1344.9549,-778.2667 1334.7006,-780.9309 1344.3782,-785.2429 1344.9549,-778.2667"/>
</g>
<!-- Node38 -->
<g id="node39" class="node">
<title>Node38</title>
<g id="a_node39"><a xlink:href="state__provider__result_8h.html" target="_top" xlink:title="maliput/api/rules/state\l_provider_result.h">
<polygon fill="#ffffff" stroke="#000000" points="2086.5,-693.5 2086.5,-723.5 2213.5,-723.5 2213.5,-693.5 2086.5,-693.5"/>
<text text-anchor="start" x="2094.5" y="-711.5" font-family="Helvetica,sans-Serif" font-size="10.00" fill="#000000">maliput/api/rules/state</text>
<text text-anchor="middle" x="2150" y="-700.5" font-family="Helvetica,sans-Serif" font-size="10.00" fill="#000000">_provider_result.h</text>
</a>
</g>
</g>
<!-- Node0&#45;&gt;Node38 -->
<g id="edge119" class="edge">
<title>Node0&#45;&gt;Node38</title>
<path fill="none" stroke="#191970" d="M2023.2973,-827.3416C2045.0043,-806.9814 2095.9455,-759.2007 2126.2103,-730.8137"/>
<polygon fill="#191970" stroke="#191970" points="2128.8935,-733.0956 2133.7928,-723.7016 2124.1047,-727.99 2128.8935,-733.0956"/>
</g>
<!-- Node2&#45;&gt;Node1 -->
<g id="edge3" class="edge">
<title>Node2&#45;&gt;Node1</title>
<path fill="none" stroke="#191970" d="M1339.1645,-706.1724C1488.2381,-699.3164 1823,-672.9593 1823,-574.5 1823,-574.5 1823,-574.5 1823,-451.5 1823,-387.4629 1823,-311.627 1823,-276.1667"/>
<polygon fill="#191970" stroke="#191970" points="1826.5001,-275.7642 1823,-265.7642 1819.5001,-275.7643 1826.5001,-275.7642"/>
</g>
<!-- Node3 -->
<g id="node4" class="node">
<title>Node3</title>
<polygon fill="#ffffff" stroke="#bfbfbf" points="44.5,-375 44.5,-394 137.5,-394 137.5,-375 44.5,-375"/>
<text text-anchor="middle" x="91" y="-382" font-family="Helvetica,sans-Serif" font-size="10.00" fill="#000000">unordered_map</text>
</g>
<!-- Node2&#45;&gt;Node3 -->
<g id="edge4" class="edge">
<title>Node2&#45;&gt;Node3</title>
<path fill="none" stroke="#191970" d="M1198.6569,-705.8816C980.1965,-696.8246 328,-662.4227 328,-574.5 328,-574.5 328,-574.5 328,-513 328,-468.8147 199.0838,-419.9077 131.4105,-397.2785"/>
<polygon fill="#191970" stroke="#191970" points="132.0916,-393.8175 121.4984,-394.0054 129.8966,-400.4645 132.0916,-393.8175"/>
</g>
<!-- Node4 -->
<g id="node5" class="node">
<title>Node4</title>
<g id="a_node5"><a xlink:href="discrete__value__rule_8h.html" target="_top" xlink:title="maliput/api/rules/discrete\l_value_rule.h">
<polygon fill="#ffffff" stroke="#000000" points="1198.5,-626.5 1198.5,-656.5 1339.5,-656.5 1339.5,-626.5 1198.5,-626.5"/>
<text text-anchor="start" x="1206.5" y="-644.5" font-family="Helvetica,sans-Serif" font-size="10.00" fill="#000000">maliput/api/rules/discrete</text>
<text text-anchor="middle" x="1269" y="-633.5" font-family="Helvetica,sans-Serif" font-size="10.00" fill="#000000">_value_rule.h</text>
</a>
</g>
</g>
<!-- Node2&#45;&gt;Node4 -->
<g id="edge5" class="edge">
<title>Node2&#45;&gt;Node4</title>
<path fill="none" stroke="#191970" d="M1269,-698.9005C1269,-690.5099 1269,-677.9451 1269,-666.7085"/>
<polygon fill="#191970" stroke="#191970" points="1272.5001,-666.5217 1269,-656.5218 1265.5001,-666.5218 1272.5001,-666.5217"/>
</g>
<!-- Node2&#45;&gt;Node15 -->
<g id="edge111" class="edge">
<title>Node2&#45;&gt;Node15</title>
<path fill="none" stroke="#191970" d="M1339.4482,-705.6913C1457.5001,-700.2394 1689.8315,-686.1108 1766,-657 1860.8349,-620.7551 1891.8628,-605.5236 1951,-523 1992.0639,-465.697 2006.597,-437.2658 1989,-369 1970.8409,-298.5536 1947.4335,-275.6485 1881,-246 1843.2312,-229.1442 1738.8755,-213.4698 1664.559,-203.9439"/>
<polygon fill="#191970" stroke="#191970" points="1664.6428,-200.4266 1654.282,-202.641 1663.7624,-207.371 1664.6428,-200.4266"/>
</g>
<!-- Node26 -->
<g id="node27" class="node">
<title>Node26</title>
<g id="a_node27"><a xlink:href="type__specific__identifier_8h.html" target="_top" xlink:title="maliput/api/type_specific\l_identifier.h">
<polygon fill="#ffffff" stroke="#000000" points="1122,-369.5 1122,-399.5 1262,-399.5 1262,-369.5 1122,-369.5"/>
<text text-anchor="start" x="1130" y="-387.5" font-family="Helvetica,sans-Serif" font-size="10.00" fill="#000000">maliput/api/type_specific</text>
<text text-anchor="middle" x="1192" y="-376.5" font-family="Helvetica,sans-Serif" font-size="10.00" fill="#000000">_identifier.h</text>
</a>
</g>
</g>
<!-- Node2&#45;&gt;Node26 -->
<g id="edge110" class="edge">
<title>Node2&#45;&gt;Node26</title>
<path fill="none" stroke="#191970" d="M1244.6892,-698.9019C1226.6078,-690.5152 1202.7716,-676.5958 1189,-657 1167.3651,-626.2155 1170,-612.1265 1170,-574.5 1170,-574.5 1170,-574.5 1170,-513 1170,-476.5961 1178.6842,-435.2123 1185.1404,-409.4761"/>
<polygon fill="#191970" stroke="#191970" points="1188.5316,-410.3419 1187.6535,-399.7835 1181.7556,-408.5849 1188.5316,-410.3419"/>
</g>
<!-- Node32 -->
<g id="node33" class="node">
<title>Node32</title>
<g id="a_node33"><a xlink:href="rule_8h.html" target="_top" xlink:title="maliput/api/rules/rule.h">
<polygon fill="#ffffff" stroke="#000000" points="1587,-565 1587,-584 1717,-584 1717,-565 1587,-565"/>
<text text-anchor="middle" x="1652" y="-572" font-family="Helvetica,sans-Serif" font-size="10.00" fill="#000000">maliput/api/rules/rule.h</text>
</a>
</g>
</g>
<!-- Node2&#45;&gt;Node32 -->
<g id="edge108" class="edge">
<title>Node2&#45;&gt;Node32</title>
<path fill="none" stroke="#191970" d="M1296.2374,-698.9705C1363.6219,-675.3947 1538.2118,-614.311 1614.9232,-587.472"/>
<polygon fill="#191970" stroke="#191970" points="1616.3622,-590.6767 1624.6453,-584.0706 1614.0504,-584.0694 1616.3622,-590.6767"/>
</g>
<!-- Node34 -->
<g id="node35" class="node">
<title>Node34</title>
<g id="a_node35"><a xlink:href="right__of__way__rule_8h.html" target="_top" xlink:title="maliput/api/rules/right\l_of_way_rule.h">
<polygon fill="#ffffff" stroke="#000000" points="900.5,-559.5 900.5,-589.5 1025.5,-589.5 1025.5,-559.5 900.5,-559.5"/>
<text text-anchor="start" x="908.5" y="-577.5" font-family="Helvetica,sans-Serif" font-size="10.00" fill="#000000">maliput/api/rules/right</text>
<text text-anchor="middle" x="963" y="-566.5" font-family="Helvetica,sans-Serif" font-size="10.00" fill="#000000">_of_way_rule.h</text>
</a>
</g>
</g>
<!-- Node2&#45;&gt;Node34 -->
<g id="edge86" class="edge">
<title>Node2&#45;&gt;Node34</title>
<path fill="none" stroke="#191970" d="M1245.6422,-698.8872C1222.4953,-689.1222 1186.2247,-673.1725 1156,-657 1132.946,-644.6644 1129.54,-637.3809 1106,-626 1079.3523,-613.1166 1048.6026,-601.6359 1022.4615,-592.8022"/>
<polygon fill="#191970" stroke="#191970" points="1023.28,-589.3859 1012.6864,-589.5488 1021.0694,-596.0277 1023.28,-589.3859"/>
</g>
<!-- Node35 -->
<g id="node36" class="node">
<title>Node35</title>
<g id="a_node36"><a xlink:href="traffic__lights_8h.html" target="_top" xlink:title="maliput/api/rules/traffic\l_lights.h">
<polygon fill="#ffffff" stroke="#000000" points="818.5,-436.5 818.5,-466.5 949.5,-466.5 949.5,-436.5 818.5,-436.5"/>
<text text-anchor="start" x="826.5" y="-454.5" font-family="Helvetica,sans-Serif" font-size="10.00" fill="#000000">maliput/api/rules/traffic</text>
<text text-anchor="middle" x="884" y="-443.5" font-family="Helvetica,sans-Serif" font-size="10.00" fill="#000000">_lights.h</text>
</a>
</g>
</g>
<!-- Node2&#45;&gt;Node35 -->
<g id="edge109" class="edge">
<title>Node2&#45;&gt;Node35</title>
<path fill="none" stroke="#191970" d="M1213.0525,-698.9587C1117.8565,-681.4903 930.7834,-641.3925 891,-590 865.8201,-557.4724 871.1325,-506.6711 877.4517,-476.4767"/>
<polygon fill="#191970" stroke="#191970" points="880.8656,-477.248 879.6806,-466.7197 874.0414,-475.6891 880.8656,-477.248"/>
</g>
<!-- Node5 -->
<g id="node6" class="node">
<title>Node5</title>
<polygon fill="#ffffff" stroke="#bfbfbf" points="955,-.5 955,-19.5 999,-19.5 999,-.5 955,-.5"/>
<text text-anchor="middle" x="977" y="-7.5" font-family="Helvetica,sans-Serif" font-size="10.00" fill="#000000">string</text>
</g>
<!-- Node4&#45;&gt;Node5 -->
<g id="edge6" class="edge">
<title>Node4&#45;&gt;Node5</title>
<path fill="none" stroke="#191970" d="M1198.3074,-638.7967C1080.4978,-633.5201 849.4882,-619.669 774,-590 662.6184,-546.2239 600,-504.1755 600,-384.5 600,-384.5 600,-384.5 600,-133 600,-60.7323 853.5377,-24.2745 944.7761,-13.4944"/>
<polygon fill="#191970" stroke="#191970" points="945.292,-16.9581 954.8244,-12.334 944.4889,-10.0044 945.292,-16.9581"/>
</g>
<!-- Node6 -->
<g id="node7" class="node">
<title>Node6</title>
<polygon fill="#ffffff" stroke="#bfbfbf" points="704.5,-246.5 704.5,-265.5 751.5,-265.5 751.5,-246.5 704.5,-246.5"/>
<text text-anchor="middle" x="728" y="-253.5" font-family="Helvetica,sans-Serif" font-size="10.00" fill="#000000">vector</text>
</g>
<!-- Node4&#45;&gt;Node6 -->
<g id="edge7" class="edge">
<title>Node4&#45;&gt;Node6</title>
<path fill="none" stroke="#191970" d="M1198.1419,-635.5444C1104.734,-627.0593 945.8281,-610.2529 891,-590 784.3759,-550.6141 676,-565.166 676,-451.5 676,-451.5 676,-451.5 676,-384.5 676,-342.6451 699.999,-298.3534 715.3894,-274.2527"/>
<polygon fill="#191970" stroke="#191970" points="718.3976,-276.0488 720.987,-265.7753 712.5561,-272.1917 718.3976,-276.0488"/>
</g>
<!-- Node7 -->
<g id="node8" class="node">
<title>Node7</title>
<g id="a_node8"><a xlink:href="regions_8h.html" target="_top" xlink:title="maliput/api/regions.h">
<polygon fill="#ffffff" stroke="#000000" points="1206,-503.5 1206,-522.5 1326,-522.5 1326,-503.5 1206,-503.5"/>
<text text-anchor="middle" x="1266" y="-510.5" font-family="Helvetica,sans-Serif" font-size="10.00" fill="#000000">maliput/api/regions.h</text>
</a>
</g>
</g>
<!-- Node4&#45;&gt;Node7 -->
<g id="edge8" class="edge">
<title>Node4&#45;&gt;Node7</title>
<path fill="none" stroke="#191970" d="M1268.6441,-626.2548C1268.1006,-602.9744 1267.0637,-558.5607 1266.4625,-532.8117"/>
<polygon fill="#191970" stroke="#191970" points="1269.9598,-532.6513 1266.2273,-522.7358 1262.9617,-532.8148 1269.9598,-532.6513"/>
</g>
<!-- Node4&#45;&gt;Node15 -->
<g id="edge85" class="edge">
<title>Node4&#45;&gt;Node15</title>
<path fill="none" stroke="#191970" d="M1334.0817,-626.4485C1419.5833,-604.7491 1559,-561.8733 1559,-513 1559,-513 1559,-513 1559,-451.5 1559,-368.0542 1581.5361,-349.1951 1588,-266 1589.1931,-250.6444 1588.2947,-233.4069 1587.0497,-219.7048"/>
<polygon fill="#191970" stroke="#191970" points="1590.5131,-219.1678 1586.0103,-209.5774 1583.5497,-219.8825 1590.5131,-219.1678"/>
</g>
<!-- Node4&#45;&gt;Node32 -->
<g id="edge72" class="edge">
<title>Node4&#45;&gt;Node32</title>
<path fill="none" stroke="#191970" d="M1339.7318,-630.0505C1401.4024,-619.9405 1493.224,-604.5809 1573,-590 1579.9948,-588.7215 1587.3295,-587.3391 1594.5926,-585.9444"/>
<polygon fill="#191970" stroke="#191970" points="1595.2612,-589.38 1604.414,-584.0437 1593.9312,-582.5075 1595.2612,-589.38"/>
</g>
<!-- Node7&#45;&gt;Node1 -->
<g id="edge11" class="edge">
<title>Node7&#45;&gt;Node1</title>
<path fill="none" stroke="#191970" d="M1326.4015,-505.7184C1441.7881,-490.7468 1687.8901,-453.3743 1753,-400 1773.6509,-383.0713 1802.7315,-310.4467 1815.9579,-275.2592"/>
<polygon fill="#191970" stroke="#191970" points="1819.3282,-276.2369 1819.5267,-265.644 1812.7657,-273.8011 1819.3282,-276.2369"/>
</g>
<!-- Node7&#45;&gt;Node6 -->
<g id="edge12" class="edge">
<title>Node7&#45;&gt;Node6</title>
<path fill="none" stroke="#191970" d="M1246.4144,-503.4115C1184.943,-473.3502 990.2746,-378.4024 828,-302 804.6728,-291.0171 778.1573,-278.8336 758.2938,-269.7658"/>
<polygon fill="#191970" stroke="#191970" points="759.6711,-266.5471 749.1201,-265.5835 756.7673,-272.9164 759.6711,-266.5471"/>
</g>
<!-- Node8 -->
<g id="node9" class="node">
<title>Node8</title>
<polygon fill="#ffffff" stroke="#bfbfbf" points="666.5,-185 666.5,-204 713.5,-204 713.5,-185 666.5,-185"/>
<text text-anchor="middle" x="690" y="-192" font-family="Helvetica,sans-Serif" font-size="10.00" fill="#000000">cmath</text>
</g>
<!-- Node7&#45;&gt;Node8 -->
<g id="edge9" class="edge">
<title>Node7&#45;&gt;Node8</title>
<path fill="none" stroke="#191970" d="M1205.6141,-508.3977C1085.2188,-499.0189 825.3882,-477.6808 809,-467 722.9591,-410.924 724.6501,-364.3282 695,-266 689.9543,-249.2669 688.9401,-229.3726 689.0525,-214.8226"/>
<polygon fill="#191970" stroke="#191970" points="692.5609,-214.5519 689.3287,-204.4621 685.5634,-214.3653 692.5609,-214.5519"/>
</g>
<!-- Node9 -->
<g id="node10" class="node">
<title>Node9</title>
<polygon fill="#ffffff" stroke="#bfbfbf" points="1236,-442 1236,-461 1292,-461 1292,-442 1236,-442"/>
<text text-anchor="middle" x="1264" y="-449" font-family="Helvetica,sans-Serif" font-size="10.00" fill="#000000">numeric</text>
</g>
<!-- Node7&#45;&gt;Node9 -->
<g id="edge10" class="edge">
<title>Node7&#45;&gt;Node9</title>
<path fill="none" stroke="#191970" d="M1265.6875,-503.3906C1265.4103,-494.8657 1264.9964,-482.1392 1264.6479,-471.4235"/>
<polygon fill="#191970" stroke="#191970" points="1268.1402,-471.1258 1264.3169,-461.2449 1261.1439,-471.3534 1268.1402,-471.1258"/>
</g>
<!-- Node10 -->
<g id="node11" class="node">
<title>Node10</title>
<g id="a_node11"><a xlink:href="api_2lane_8h.html" target="_top" xlink:title="maliput/api/lane.h">
<polygon fill="#ffffff" stroke="#000000" points="1348.5,-442 1348.5,-461 1453.5,-461 1453.5,-442 1348.5,-442"/>
<text text-anchor="middle" x="1401" y="-449" font-family="Helvetica,sans-Serif" font-size="10.00" fill="#000000">maliput/api/lane.h</text>
</a>
</g>
</g>
<!-- Node7&#45;&gt;Node10 -->
<g id="edge13" class="edge">
<title>Node7&#45;&gt;Node10</title>
<path fill="none" stroke="#191970" d="M1287.0938,-503.3906C1309.5827,-493.1457 1345.3918,-476.8326 1370.8524,-465.2339"/>
<polygon fill="#191970" stroke="#191970" points="1372.4052,-468.3727 1380.0544,-461.0419 1369.5032,-462.0025 1372.4052,-468.3727"/>
</g>
<!-- Node7&#45;&gt;Node15 -->
<g id="edge71" class="edge">
<title>Node7&#45;&gt;Node15</title>
<path fill="none" stroke="#191970" d="M1326.1291,-504.8436C1375.8292,-497.0441 1441.4486,-483.9683 1462,-467 1462.326,-466.7309 1543.2662,-285.6525 1573.1131,-218.8639"/>
<polygon fill="#191970" stroke="#191970" points="1576.4034,-220.0795 1577.2879,-209.5217 1570.0125,-217.2236 1576.4034,-220.0795"/>
</g>
<!-- Node7&#45;&gt;Node26 -->
<g id="edge70" class="edge">
<title>Node7&#45;&gt;Node26</title>
<path fill="none" stroke="#191970" d="M1256.3881,-503.4491C1247.8535,-494.5852 1235.4584,-480.7272 1227,-467 1215.7801,-448.7911 1206.5176,-426.3487 1200.3457,-409.4702"/>
<polygon fill="#191970" stroke="#191970" points="1203.5478,-408.0272 1196.9123,-399.7676 1196.9488,-410.3623 1203.5478,-408.0272"/>
</g>
<!-- Node10&#45;&gt;Node1 -->
<g id="edge15" class="edge">
<title>Node10&#45;&gt;Node1</title>
<path fill="none" stroke="#191970" d="M1453.5561,-449.1448C1534.5475,-444.5493 1684.9296,-431.883 1727,-400 1765.1979,-371.0517 1743.6211,-340.6229 1772,-302 1780.2737,-290.7398 1791.6595,-280.1494 1801.5745,-271.9752"/>
<polygon fill="#191970" stroke="#191970" points="1803.8023,-274.6754 1809.4565,-265.7154 1799.4489,-269.1938 1803.8023,-274.6754"/>
</g>
<!-- Node10&#45;&gt;Node5 -->
<g id="edge16" class="edge">
<title>Node10&#45;&gt;Node5</title>
<path fill="none" stroke="#191970" d="M1397.7443,-441.945C1391.1932,-424.3012 1374.6364,-386.7898 1347,-369 1258.5225,-312.0462 1197.2057,-396.0983 1113,-333 1010.5205,-256.2085 984.6216,-87.3621 978.6507,-29.7304"/>
<polygon fill="#191970" stroke="#191970" points="982.1326,-29.3727 977.7055,-19.7472 975.1638,-30.0326 982.1326,-29.3727"/>
</g>
<!-- Node11 -->
<g id="node12" class="node">
<title>Node11</title>
<polygon fill="#ffffff" stroke="#bfbfbf" points="1280,-375 1280,-394 1338,-394 1338,-375 1280,-375"/>
<text text-anchor="middle" x="1309" y="-382" font-family="Helvetica,sans-Serif" font-size="10.00" fill="#000000">memory</text>
</g>
<!-- Node10&#45;&gt;Node11 -->
<g id="edge14" class="edge">
<title>Node10&#45;&gt;Node11</title>
<path fill="none" stroke="#191970" d="M1387.8186,-441.9005C1372.7889,-430.9549 1348.0058,-412.9064 1330.2407,-399.9688"/>
<polygon fill="#191970" stroke="#191970" points="1332.3009,-397.1394 1322.1569,-394.0817 1328.18,-402.7979 1332.3009,-397.1394"/>
</g>
<!-- Node12 -->
<g id="node13" class="node">
<title>Node12</title>
<g id="a_node13"><a xlink:href="lane__data_8h.html" target="_top" xlink:title="maliput/api/lane_data.h">
<polygon fill="#ffffff" stroke="#000000" points="440,-375 440,-394 572,-394 572,-375 440,-375"/>
<text text-anchor="middle" x="506" y="-382" font-family="Helvetica,sans-Serif" font-size="10.00" fill="#000000">maliput/api/lane_data.h</text>
</a>
</g>
</g>
<!-- Node10&#45;&gt;Node12 -->
<g id="edge17" class="edge">
<title>Node10&#45;&gt;Node12</title>
<path fill="none" stroke="#191970" d="M1348.4397,-442.4534C1333.1759,-440.0705 1316.4554,-437.695 1301,-436 1038.1067,-407.1686 724.4032,-392.6752 582.4636,-387.186"/>
<polygon fill="#191970" stroke="#191970" points="582.2602,-383.6757 572.1337,-386.7907 581.9925,-390.6706 582.2602,-383.6757"/>
</g>
<!-- Node10&#45;&gt;Node15 -->
<g id="edge68" class="edge">
<title>Node10&#45;&gt;Node15</title>
<path fill="none" stroke="#191970" d="M1403.8652,-441.7005C1411.4746,-416.7292 1433.9631,-349.3406 1468,-302 1481.7703,-282.8474 1489.6904,-282.0256 1507,-266 1524.897,-249.4306 1545.1018,-230.6668 1560.3227,-216.5198"/>
<polygon fill="#191970" stroke="#191970" points="1562.8482,-218.9508 1567.7893,-209.5787 1558.0821,-213.8239 1562.8482,-218.9508"/>
</g>
<!-- Node16 -->
<g id="node17" class="node">
<title>Node16</title>
<g id="a_node17"><a xlink:href="maliput__throw_8h.html" target="_top" xlink:title="Code in this file is inspired by: https://github.com/RobotLocomotion/drake/blob/master/common/drake_t...">
<polygon fill="#ffffff" stroke="#000000" points="1081,-56.5 1081,-86.5 1221,-86.5 1221,-56.5 1081,-56.5"/>
<text text-anchor="start" x="1089" y="-74.5" font-family="Helvetica,sans-Serif" font-size="10.00" fill="#000000">maliput/common/maliput</text>
<text text-anchor="middle" x="1151" y="-63.5" font-family="Helvetica,sans-Serif" font-size="10.00" fill="#000000">_throw.h</text>
</a>
</g>
</g>
<!-- Node10&#45;&gt;Node16 -->
<g id="edge69" class="edge">
<title>Node10&#45;&gt;Node16</title>
<path fill="none" stroke="#191970" d="M1453.5156,-446.0301C1580.713,-431.9879 1901.3617,-391.607 1990,-333 2026.6502,-308.7671 2052,-299.9371 2052,-256 2052,-256 2052,-256 2052,-194.5 2052,-112.0854 1452.5545,-82.2831 1231.5583,-74.0963"/>
<polygon fill="#191970" stroke="#191970" points="1231.4457,-70.59 1221.3247,-73.7227 1231.1903,-77.5853 1231.4457,-70.59"/>
</g>
<!-- Node10&#45;&gt;Node26 -->
<g id="edge49" class="edge">
<title>Node10&#45;&gt;Node26</title>
<path fill="none" stroke="#191970" d="M1371.0554,-441.9005C1339.215,-431.6933 1288.1061,-415.3091 1248.6267,-402.6531"/>
<polygon fill="#191970" stroke="#191970" points="1249.4501,-399.2416 1238.8589,-399.5218 1247.3131,-405.9075 1249.4501,-399.2416"/>
</g>
<!-- Node12&#45;&gt;Node5 -->
<g id="edge20" class="edge">
<title>Node12&#45;&gt;Node5</title>
<path fill="none" stroke="#191970" d="M509.6743,-374.7538C522.1328,-341.37 562,-231.6401 562,-194.5 562,-194.5 562,-194.5 562,-133 562,-97.154 558.4197,-78.8969 586,-56 613.4468,-33.214 856.1488,-17.0006 944.7795,-11.7931"/>
<polygon fill="#191970" stroke="#191970" points="945.0186,-15.2852 954.7995,-11.2129 944.6139,-8.2969 945.0186,-15.2852"/>
</g>
<!-- Node13 -->
<g id="node14" class="node">
<title>Node13</title>
<polygon fill="#ffffff" stroke="#bfbfbf" points="769.5,-246.5 769.5,-265.5 834.5,-265.5 834.5,-246.5 769.5,-246.5"/>
<text text-anchor="middle" x="802" y="-253.5" font-family="Helvetica,sans-Serif" font-size="10.00" fill="#000000">functional</text>
</g>
<!-- Node12&#45;&gt;Node13 -->
<g id="edge18" class="edge">
<title>Node12&#45;&gt;Node13</title>
<path fill="none" stroke="#191970" d="M528.2481,-374.8416C580.3381,-352.2282 710.3448,-295.7895 770.522,-269.6653"/>
<polygon fill="#191970" stroke="#191970" points="772.1184,-272.7879 779.8975,-265.5952 769.3308,-266.3669 772.1184,-272.7879"/>
</g>
<!-- Node14 -->
<g id="node15" class="node">
<title>Node14</title>
<polygon fill="#ffffff" stroke="#bfbfbf" points="380.5,-185 380.5,-204 437.5,-204 437.5,-185 380.5,-185"/>
<text text-anchor="middle" x="409" y="-192" font-family="Helvetica,sans-Serif" font-size="10.00" fill="#000000">ostream</text>
</g>
<!-- Node12&#45;&gt;Node14 -->
<g id="edge19" class="edge">
<title>Node12&#45;&gt;Node14</title>
<path fill="none" stroke="#191970" d="M459.7808,-374.9582C406.7144,-363.5387 325.8004,-344.5193 317,-333 292.7872,-301.3068 314.6912,-277.6196 339,-246 350.4658,-231.0858 367.3685,-218.4826 381.6919,-209.4773"/>
<polygon fill="#191970" stroke="#191970" points="383.8828,-212.2439 390.6488,-204.0909 380.2753,-206.2451 383.8828,-212.2439"/>
</g>
<!-- Node12&#45;&gt;Node15 -->
<g id="edge21" class="edge">
<title>Node12&#45;&gt;Node15</title>
<path fill="none" stroke="#191970" d="M572.2017,-382.0527C745.9222,-375.3473 1205.9484,-355.6622 1271,-333 1293.9345,-325.0102 1294.6377,-313.5533 1316,-302 1353.1695,-281.8977 1365.2025,-282.7462 1404,-266 1423.7222,-257.4873 1428.1674,-254.2523 1448,-246 1475.6969,-234.4753 1506.9813,-222.5543 1532.5564,-213.0876"/>
<polygon fill="#191970" stroke="#191970" points="1533.8866,-216.3275 1542.0594,-209.5855 1531.466,-209.7594 1533.8866,-216.3275"/>
</g>
<!-- Node12&#45;&gt;Node16 -->
<g id="edge22" class="edge">
<title>Node12&#45;&gt;Node16</title>
<path fill="none" stroke="#191970" d="M512.5451,-374.7735C538.8561,-335.7911 636.4818,-192.3167 657,-179 724.4933,-135.1956 948.6994,-98.9957 1070.5251,-81.9765"/>
<polygon fill="#191970" stroke="#191970" points="1071.1263,-85.4267 1080.5511,-80.5868 1070.1652,-78.493 1071.1263,-85.4267"/>
</g>
<!-- Node17 -->
<g id="node18" class="node">
<title>Node17</title>
<g id="a_node18"><a xlink:href="matrix_8h.html" target="_top" xlink:title="maliput/math/matrix.h">
<polygon fill="#ffffff" stroke="#000000" points="196.5,-185 196.5,-204 323.5,-204 323.5,-185 196.5,-185"/>
<text text-anchor="middle" x="260" y="-192" font-family="Helvetica,sans-Serif" font-size="10.00" fill="#000000">maliput/math/matrix.h</text>
</a>
</g>
</g>
<!-- Node12&#45;&gt;Node17 -->
<g id="edge24" class="edge">
<title>Node12&#45;&gt;Node17</title>
<path fill="none" stroke="#191970" d="M464.0369,-374.9562C406.3405,-361.6754 308.9183,-338.6151 303,-333 269.6366,-301.3463 261.9924,-244.3503 260.3507,-214.2928"/>
<polygon fill="#191970" stroke="#191970" points="263.8447,-214.0636 259.9743,-204.201 256.8495,-214.3245 263.8447,-214.0636"/>
</g>
<!-- Node23 -->
<g id="node24" class="node">
<title>Node23</title>
<g id="a_node24"><a xlink:href="vector_8h.html" target="_top" xlink:title="maliput/math/vector.h">
<polygon fill="#ffffff" stroke="#000000" points="288.5,-123.5 288.5,-142.5 413.5,-142.5 413.5,-123.5 288.5,-123.5"/>
<text text-anchor="middle" x="351" y="-130.5" font-family="Helvetica,sans-Serif" font-size="10.00" fill="#000000">maliput/math/vector.h</text>
</a>
</g>
</g>
<!-- Node12&#45;&gt;Node23 -->
<g id="edge48" class="edge">
<title>Node12&#45;&gt;Node23</title>
<path fill="none" stroke="#191970" d="M459.9372,-374.9532C395.5651,-361.4878 285.6581,-337.9954 278,-333 221.0445,-295.848 208.293,-274.5818 187,-210 182.6858,-196.9151 178.6765,-189.9794 187,-179 198.5204,-163.8037 240.0594,-152.2436 278.4457,-144.513"/>
<polygon fill="#191970" stroke="#191970" points="279.4887,-147.8759 288.6373,-142.5324 278.1533,-141.0044 279.4887,-147.8759"/>
</g>
<!-- Node24 -->
<g id="node25" class="node">
<title>Node24</title>
<g id="a_node25"><a xlink:href="quaternion_8h.html" target="_top" xlink:title="Code in this file is inspired by: https://gitlab.com/libeigen/eigen/&#45;/blob/master/Eigen/src/Geometry/...">
<polygon fill="#ffffff" stroke="#000000" points="348.5,-246.5 348.5,-265.5 495.5,-265.5 495.5,-246.5 348.5,-246.5"/>
<text text-anchor="middle" x="422" y="-253.5" font-family="Helvetica,sans-Serif" font-size="10.00" fill="#000000">maliput/math/quaternion.h</text>
</a>
</g>
</g>
<!-- Node12&#45;&gt;Node24 -->
<g id="edge37" class="edge">
<title>Node12&#45;&gt;Node24</title>
<path fill="none" stroke="#191970" d="M502.4531,-374.8216C496.3555,-358.8471 482.8956,-326.3126 466,-302 458.6607,-291.4388 448.9015,-280.9737 440.4391,-272.6997"/>
<polygon fill="#191970" stroke="#191970" points="442.8035,-270.1184 433.1388,-265.7773 437.987,-275.1979 442.8035,-270.1184"/>
</g>
<!-- Node25 -->
<g id="node26" class="node">
<title>Node25</title>
<g id="a_node26"><a xlink:href="roll__pitch__yaw_8h.html" target="_top" xlink:title="Code in this file is inspired by: https://github.com/RobotLocomotion/drake/blob/master/math/roll_pitc...">
<polygon fill="#ffffff" stroke="#000000" points="326.5,-302.5 326.5,-332.5 457.5,-332.5 457.5,-302.5 326.5,-302.5"/>
<text text-anchor="start" x="334.5" y="-320.5" font-family="Helvetica,sans-Serif" font-size="10.00" fill="#000000">maliput/math/roll_pitch</text>
<text text-anchor="middle" x="392" y="-309.5" font-family="Helvetica,sans-Serif" font-size="10.00" fill="#000000">_yaw.h</text>
</a>
</g>
</g>
<!-- Node12&#45;&gt;Node25 -->
<g id="edge43" class="edge">
<title>Node12&#45;&gt;Node25</title>
<path fill="none" stroke="#191970" d="M489.6666,-374.9005C473.1822,-365.2123 447.2293,-349.9593 426.2192,-337.6113"/>
<polygon fill="#191970" stroke="#191970" points="427.9541,-334.5713 417.5594,-332.5218 424.4073,-340.6062 427.9541,-334.5713"/>
</g>
<!-- Node16&#45;&gt;Node5 -->
<g id="edge23" class="edge">
<title>Node16&#45;&gt;Node5</title>
<path fill="none" stroke="#191970" d="M1108.4348,-56.4554C1077.7896,-45.6239 1037.0895,-31.2385 1009.144,-21.3612"/>
<polygon fill="#191970" stroke="#191970" points="1010.0624,-17.9737 999.4676,-17.9411 1007.7296,-24.5736 1010.0624,-17.9737"/>
</g>
<!-- Node18 -->
<g id="node19" class="node">
<title>Node18</title>
<polygon fill="#ffffff" stroke="#bfbfbf" points="0,-62 0,-81 64,-81 64,-62 0,-62"/>
<text text-anchor="middle" x="32" y="-69" font-family="Helvetica,sans-Serif" font-size="10.00" fill="#000000">algorithm</text>
</g>
<!-- Node17&#45;&gt;Node18 -->
<g id="edge25" class="edge">
<title>Node17&#45;&gt;Node18</title>
<path fill="none" stroke="#191970" d="M242.1092,-184.8484C202.2351,-163.3374 105.8882,-111.3608 58.8032,-85.9596"/>
<polygon fill="#191970" stroke="#191970" points="60.2705,-82.7744 49.8077,-81.1068 56.9469,-88.9351 60.2705,-82.7744"/>
</g>
<!-- Node19 -->
<g id="node20" class="node">
<title>Node19</title>
<polygon fill="#ffffff" stroke="#bfbfbf" points="211,-62 211,-81 253,-81 253,-62 211,-62"/>
<text text-anchor="middle" x="232" y="-69" font-family="Helvetica,sans-Serif" font-size="10.00" fill="#000000">array</text>
</g>
<!-- Node17&#45;&gt;Node19 -->
<g id="edge26" class="edge">
<title>Node17&#45;&gt;Node19</title>
<path fill="none" stroke="#191970" d="M257.104,-184.6807C254.1128,-174.3575 249.4131,-157.6168 246,-143 241.9603,-125.6996 238.1391,-105.8604 235.5127,-91.4759"/>
<polygon fill="#191970" stroke="#191970" points="238.8914,-90.4871 233.6812,-81.2619 232.0012,-91.7227 238.8914,-90.4871"/>
</g>
<!-- Node20 -->
<g id="node21" class="node">
<title>Node20</title>
<polygon fill="#ffffff" stroke="#bfbfbf" points="402.5,-62 402.5,-81 455.5,-81 455.5,-62 402.5,-62"/>
<text text-anchor="middle" x="429" y="-69" font-family="Helvetica,sans-Serif" font-size="10.00" fill="#000000">cstddef</text>
</g>
<!-- Node17&#45;&gt;Node20 -->
<g id="edge27" class="edge">
<title>Node17&#45;&gt;Node20</title>
<path fill="none" stroke="#191970" d="M309.4421,-184.9904C351.623,-175.8116 407.6596,-160.7229 422,-143 433.6163,-128.6439 434.1371,-106.9765 432.5113,-91.2574"/>
<polygon fill="#191970" stroke="#191970" points="435.9347,-90.4673 431.076,-81.0523 429.0029,-91.4423 435.9347,-90.4673"/>
</g>
<!-- Node21 -->
<g id="node22" class="node">
<title>Node21</title>
<polygon fill="#ffffff" stroke="#bfbfbf" points="281.5,-62 281.5,-81 364.5,-81 364.5,-62 281.5,-62"/>
<text text-anchor="middle" x="323" y="-69" font-family="Helvetica,sans-Serif" font-size="10.00" fill="#000000">initializer_list</text>
</g>
<!-- Node17&#45;&gt;Node21 -->
<g id="edge28" class="edge">
<title>Node17&#45;&gt;Node21</title>
<path fill="none" stroke="#191970" d="M261.1883,-184.7492C263.2267,-170.5028 268.2548,-143.4704 279,-123 285.7467,-110.1471 296.2169,-97.7154 305.2514,-88.287"/>
<polygon fill="#191970" stroke="#191970" points="307.8057,-90.6823 312.3893,-81.1302 302.8494,-85.739 307.8057,-90.6823"/>
</g>
<!-- Node22 -->
<g id="node23" class="node">
<title>Node22</title>
<polygon fill="#ffffff" stroke="#bfbfbf" points="474,-62 474,-81 534,-81 534,-62 474,-62"/>
<text text-anchor="middle" x="504" y="-69" font-family="Helvetica,sans-Serif" font-size="10.00" fill="#000000">iostream</text>
</g>
<!-- Node17&#45;&gt;Node22 -->
<g id="edge29" class="edge">
<title>Node17&#45;&gt;Node22</title>
<path fill="none" stroke="#191970" d="M323.5482,-185.5713C360.0289,-178.2901 405.4944,-165.4018 441,-143 462.5216,-129.4212 480.9244,-106.3482 492.1868,-90.0918"/>
<polygon fill="#191970" stroke="#191970" points="495.326,-91.6928 497.9625,-81.4312 489.5023,-87.8089 495.326,-91.6928"/>
</g>
<!-- Node17&#45;&gt;Node23 -->
<g id="edge30" class="edge">
<title>Node17&#45;&gt;Node23</title>
<path fill="none" stroke="#191970" d="M274.2188,-184.8906C288.6434,-175.1421 311.1976,-159.8994 328.136,-148.4521"/>
<polygon fill="#191970" stroke="#191970" points="330.5556,-151.0412 336.8811,-142.5419 326.6359,-145.2415 330.5556,-151.0412"/>
</g>
<!-- Node23&#45;&gt;Node16 -->
<g id="edge36" class="edge">
<title>Node23&#45;&gt;Node16</title>
<path fill="none" stroke="#191970" d="M413.7747,-128.1742C557.6768,-117.1117 911.2008,-89.9346 1070.6679,-77.6755"/>
<polygon fill="#191970" stroke="#191970" points="1071.1845,-81.1462 1080.8868,-76.89 1070.6479,-74.1668 1071.1845,-81.1462"/>
</g>
<!-- Node23&#45;&gt;Node18 -->
<g id="edge31" class="edge">
<title>Node23&#45;&gt;Node18</title>
<path fill="none" stroke="#191970" d="M301.5063,-123.4581C239.1022,-111.4272 132.8951,-90.9516 74.1694,-79.6298"/>
<polygon fill="#191970" stroke="#191970" points="74.6065,-76.1497 64.1247,-77.6933 73.2813,-83.0232 74.6065,-76.1497"/>
</g>
<!-- Node23&#45;&gt;Node19 -->
<g id="edge32" class="edge">
<title>Node23&#45;&gt;Node19</title>
<path fill="none" stroke="#191970" d="M332.4063,-123.3906C312.8447,-113.2811 281.8499,-97.2628 259.4691,-85.6962"/>
<polygon fill="#191970" stroke="#191970" points="260.9539,-82.5238 250.4632,-81.0419 257.74,-88.7425 260.9539,-82.5238"/>
</g>
<!-- Node23&#45;&gt;Node20 -->
<g id="edge33" class="edge">
<title>Node23&#45;&gt;Node20</title>
<path fill="none" stroke="#191970" d="M363.1875,-123.3906C375.437,-113.7324 394.5263,-98.6812 408.9977,-87.271"/>
<polygon fill="#191970" stroke="#191970" points="411.2124,-89.9819 416.8981,-81.0419 406.8783,-84.485 411.2124,-89.9819"/>
</g>
<!-- Node23&#45;&gt;Node21 -->
<g id="edge34" class="edge">
<title>Node23&#45;&gt;Node21</title>
<path fill="none" stroke="#191970" d="M346.625,-123.3906C342.6212,-114.5965 336.5817,-101.3312 331.6115,-90.4145"/>
<polygon fill="#191970" stroke="#191970" points="334.7657,-88.8957 327.4367,-81.2449 328.3949,-91.7963 334.7657,-88.8957"/>
</g>
<!-- Node23&#45;&gt;Node22 -->
<g id="edge35" class="edge">
<title>Node23&#45;&gt;Node22</title>
<path fill="none" stroke="#191970" d="M374.9063,-123.3906C400.7305,-113.0103 442.0527,-96.4004 470.9705,-84.7766"/>
<polygon fill="#191970" stroke="#191970" points="472.2885,-88.019 480.2616,-81.0419 469.6778,-81.5241 472.2885,-88.019"/>
</g>
<!-- Node24&#45;&gt;Node8 -->
<g id="edge38" class="edge">
<title>Node24&#45;&gt;Node8</title>
<path fill="none" stroke="#191970" d="M463.581,-246.4581C516.7008,-234.2683 607.5995,-213.4091 656.5068,-202.1859"/>
<polygon fill="#191970" stroke="#191970" points="657.3132,-205.592 666.277,-199.9439 655.7475,-198.7693 657.3132,-205.592"/>
</g>
<!-- Node24&#45;&gt;Node14 -->
<g id="edge39" class="edge">
<title>Node24&#45;&gt;Node14</title>
<path fill="none" stroke="#191970" d="M419.9688,-246.3906C418.1478,-237.776 415.4198,-224.8708 413.1401,-214.0858"/>
<polygon fill="#191970" stroke="#191970" points="416.5524,-213.3048 411.0599,-204.2449 409.7038,-214.7525 416.5524,-213.3048"/>
</g>
<!-- Node24&#45;&gt;Node15 -->
<g id="edge40" class="edge">
<title>Node24&#45;&gt;Node15</title>
<path fill="none" stroke="#191970" d="M495.9076,-247.2474C500.6734,-246.7925 505.4021,-246.3711 510,-246 880.7525,-216.0775 1325.0121,-201.5352 1503.7397,-196.5587"/>
<polygon fill="#191970" stroke="#191970" points="1503.9462,-200.0544 1513.8458,-196.2796 1503.753,-193.0571 1503.9462,-200.0544"/>
</g>
<!-- Node24&#45;&gt;Node17 -->
<g id="edge41" class="edge">
<title>Node24&#45;&gt;Node17</title>
<path fill="none" stroke="#191970" d="M396.6875,-246.3906C369.2253,-235.9652 325.2105,-219.2559 294.5737,-207.6252"/>
<polygon fill="#191970" stroke="#191970" points="295.726,-204.319 285.1348,-204.0419 293.2415,-210.8633 295.726,-204.319"/>
</g>
<!-- Node24&#45;&gt;Node23 -->
<g id="edge42" class="edge">
<title>Node24&#45;&gt;Node23</title>
<path fill="none" stroke="#191970" d="M429.8747,-246.334C441.2989,-231.0577 459.6841,-200.8299 446,-179 436.3181,-163.5548 419.8162,-153.1672 403.2563,-146.2389"/>
<polygon fill="#191970" stroke="#191970" points="404.1415,-142.831 393.5505,-142.5472 401.6529,-149.3737 404.1415,-142.831"/>
</g>
<!-- Node25&#45;&gt;Node15 -->
<g id="edge44" class="edge">
<title>Node25&#45;&gt;Node15</title>
<path fill="none" stroke="#191970" d="M443.4793,-302.4566C503.3451,-285.6415 605.4155,-259.0633 695,-246 849.8177,-223.4244 1315.5376,-204.3543 1503.7673,-197.3585"/>
<polygon fill="#191970" stroke="#191970" points="1504.0077,-200.8521 1513.8715,-196.9846 1503.7489,-193.8568 1504.0077,-200.8521"/>
</g>
<!-- Node25&#45;&gt;Node17 -->
<g id="edge45" class="edge">
<title>Node25&#45;&gt;Node17</title>
<path fill="none" stroke="#191970" d="M358.9333,-302.2998C341.831,-293.3614 321.3772,-280.891 306,-266 290.1695,-250.6701 277.1583,-228.9027 269.0621,-213.4203"/>
<polygon fill="#191970" stroke="#191970" points="272.0888,-211.6483 264.4713,-204.2846 265.8341,-214.7914 272.0888,-211.6483"/>
</g>
<!-- Node25&#45;&gt;Node23 -->
<g id="edge47" class="edge">
<title>Node25&#45;&gt;Node23</title>
<path fill="none" stroke="#191970" d="M369.4732,-302.4495C358.0259,-293.397 345.2434,-280.7722 339,-266 330.563,-246.0376 340.8491,-184.2982 347.0112,-152.4481"/>
<polygon fill="#191970" stroke="#191970" points="350.4625,-153.037 348.9813,-142.5463 343.5971,-151.671 350.4625,-153.037"/>
</g>
<!-- Node25&#45;&gt;Node24 -->
<g id="edge46" class="edge">
<title>Node25&#45;&gt;Node24</title>
<path fill="none" stroke="#191970" d="M399.4157,-302.2977C403.4499,-294.0277 408.4773,-283.7215 412.764,-274.9339"/>
<polygon fill="#191970" stroke="#191970" points="415.958,-276.3691 417.1966,-265.8469 409.6666,-273.3001 415.958,-276.3691"/>
</g>
<!-- Node26&#45;&gt;Node5 -->
<g id="edge51" class="edge">
<title>Node26&#45;&gt;Node5</title>
<path fill="none" stroke="#191970" d="M1152.5447,-369.4636C1130.4489,-360.2908 1102.8337,-347.5454 1080,-333 1042.9565,-309.4028 939,-238.4209 939,-194.5 939,-194.5 939,-194.5 939,-133 939,-94.6461 956.0752,-52.4423 967.3334,-28.7843"/>
<polygon fill="#191970" stroke="#191970" points="970.5923,-30.0892 971.8752,-19.5723 964.3139,-26.9938 970.5923,-30.0892"/>
</g>
<!-- Node26&#45;&gt;Node13 -->
<g id="edge50" class="edge">
<title>Node26&#45;&gt;Node13</title>
<path fill="none" stroke="#191970" d="M1137.9816,-369.4393C1108.8646,-360.4635 1072.712,-347.9145 1042,-333 1019.1556,-321.9062 1017.3482,-311.9899 994,-302 944.8624,-280.9757 884.3532,-268.4972 844.5545,-261.954"/>
<polygon fill="#191970" stroke="#191970" points="845.079,-258.4935 834.6532,-260.3785 843.9789,-265.4066 845.079,-258.4935"/>
</g>
<!-- Node26&#45;&gt;Node15 -->
<g id="edge53" class="edge">
<title>Node26&#45;&gt;Node15</title>
<path fill="none" stroke="#191970" d="M1235.0145,-369.4579C1291.6701,-348.9975 1393.7441,-309.8786 1476,-266 1504.0748,-251.0238 1534.1104,-230.7582 1555.3614,-215.6264"/>
<polygon fill="#191970" stroke="#191970" points="1557.5402,-218.3706 1563.6167,-209.6915 1553.4542,-212.6869 1557.5402,-218.3706"/>
</g>
<!-- Node26&#45;&gt;Node16 -->
<g id="edge67" class="edge">
<title>Node26&#45;&gt;Node16</title>
<path fill="none" stroke="#191970" d="M1257.0275,-369.4383C1398.9275,-335.0543 1719.3364,-248.3932 1663,-179 1609.5617,-113.1765 1361.7635,-86.1869 1231.5092,-76.3977"/>
<polygon fill="#191970" stroke="#191970" points="1231.4212,-72.8819 1221.1916,-75.6398 1230.9083,-79.8631 1231.4212,-72.8819"/>
</g>
<!-- Node27 -->
<g id="node28" class="node">
<title>Node27</title>
<polygon fill="#ffffff" stroke="#bfbfbf" points="1350.5,-246.5 1350.5,-265.5 1395.5,-265.5 1395.5,-246.5 1350.5,-246.5"/>
<text text-anchor="middle" x="1373" y="-253.5" font-family="Helvetica,sans-Serif" font-size="10.00" fill="#000000">utility</text>
</g>
<!-- Node26&#45;&gt;Node27 -->
<g id="edge52" class="edge">
<title>Node26&#45;&gt;Node27</title>
<path fill="none" stroke="#191970" d="M1216.1397,-369.3726C1231.9312,-359.3282 1252.9112,-345.7011 1271,-333 1300.0761,-312.5841 1332.6847,-287.5829 1353.0312,-271.7199"/>
<polygon fill="#191970" stroke="#191970" points="1355.235,-274.4396 1360.9543,-265.5209 1350.9216,-268.9264 1355.235,-274.4396"/>
</g>
<!-- Node28 -->
<g id="node29" class="node">
<title>Node28</title>
<g id="a_node29"><a xlink:href="maliput__hash_8h.html" target="_top" xlink:title="Code in this file is inspired by: https://github.com/RobotLocomotion/drake/blob/master/common/hash.h. ">
<polygon fill="#ffffff" stroke="#000000" points="1122,-302.5 1122,-332.5 1262,-332.5 1262,-302.5 1122,-302.5"/>
<text text-anchor="start" x="1130" y="-320.5" font-family="Helvetica,sans-Serif" font-size="10.00" fill="#000000">maliput/common/maliput</text>
<text text-anchor="middle" x="1192" y="-309.5" font-family="Helvetica,sans-Serif" font-size="10.00" fill="#000000">_hash.h</text>
</a>
</g>
</g>
<!-- Node26&#45;&gt;Node28 -->
<g id="edge54" class="edge">
<title>Node26&#45;&gt;Node28</title>
<path fill="none" stroke="#191970" d="M1192,-369.2967C1192,-361.5013 1192,-351.7991 1192,-342.9064"/>
<polygon fill="#191970" stroke="#191970" points="1195.5001,-342.6431 1192,-332.6432 1188.5001,-342.6432 1195.5001,-342.6431"/>
</g>
<!-- Node28&#45;&gt;Node1 -->
<g id="edge60" class="edge">
<title>Node28&#45;&gt;Node1</title>
<path fill="none" stroke="#191970" d="M1262.2427,-310.6538C1395.6329,-297.6531 1681.4952,-269.7917 1784.7789,-259.7252"/>
<polygon fill="#191970" stroke="#191970" points="1785.1473,-263.206 1794.7606,-258.7523 1784.4682,-256.239 1785.1473,-263.206"/>
</g>
<!-- Node28&#45;&gt;Node5 -->
<g id="edge62" class="edge">
<title>Node28&#45;&gt;Node5</title>
<path fill="none" stroke="#191970" d="M1174.2554,-302.2106C1163.4324,-292.4289 1149.6749,-279.1475 1139,-266 1072.2577,-183.7982 1010.3029,-72.5667 986.8809,-28.7989"/>
<polygon fill="#191970" stroke="#191970" points="989.9068,-27.0345 982.1249,-19.8448 983.7247,-30.3181 989.9068,-27.0345"/>
</g>
<!-- Node28&#45;&gt;Node6 -->
<g id="edge65" class="edge">
<title>Node28&#45;&gt;Node6</title>
<path fill="none" stroke="#191970" d="M1121.7658,-313.1193C1037.8431,-306.9942 893.2076,-293.6165 761.4988,-266.0183"/>
<polygon fill="#191970" stroke="#191970" points="762.1457,-262.5777 751.6362,-263.9196 760.6887,-269.4244 762.1457,-262.5777"/>
</g>
<!-- Node28&#45;&gt;Node8 -->
<g id="edge55" class="edge">
<title>Node28&#45;&gt;Node8</title>
<path fill="none" stroke="#191970" d="M1122.2018,-302.4662C1076.7626,-292.5157 1016.2548,-278.9579 963,-266 876.3753,-244.9225 774.9674,-217.6846 723.5576,-203.6929"/>
<polygon fill="#191970" stroke="#191970" points="724.2338,-200.2495 713.6653,-200.996 722.3926,-207.0031 724.2338,-200.2495"/>
</g>
<!-- Node28&#45;&gt;Node13 -->
<g id="edge57" class="edge">
<title>Node28&#45;&gt;Node13</title>
<path fill="none" stroke="#191970" d="M1121.8254,-306.434C1041.2647,-293.7302 911.6677,-273.2938 844.8695,-262.7602"/>
<polygon fill="#191970" stroke="#191970" points="845.1282,-259.2578 834.7051,-261.1573 844.0378,-266.1724 845.1282,-259.2578"/>
</g>
<!-- Node28&#45;&gt;Node16 -->
<g id="edge66" class="edge">
<title>Node28&#45;&gt;Node16</title>
<path fill="none" stroke="#191970" d="M1173.9083,-302.3413C1164.2111,-292.9968 1153.2111,-280.1218 1148,-266 1126.771,-208.4711 1137.166,-134.7014 1145.0041,-96.6712"/>
<polygon fill="#191970" stroke="#191970" points="1148.5102,-97.0195 1147.2177,-86.5038 1141.6705,-95.5303 1148.5102,-97.0195"/>
</g>
<!-- Node28&#45;&gt;Node20 -->
<g id="edge56" class="edge">
<title>Node28&#45;&gt;Node20</title>
<path fill="none" stroke="#191970" d="M1137.925,-302.4759C1102.1187,-292.4176 1054.1612,-278.7358 1012,-266 767.1312,-192.0312 704.0964,-177.9121 465,-87 463.3821,-86.3848 461.7302,-85.7388 460.0672,-85.0743"/>
<polygon fill="#191970" stroke="#191970" points="461.1566,-81.7374 450.5781,-81.1497 458.4813,-88.206 461.1566,-81.7374"/>
</g>
<!-- Node28&#45;&gt;Node22 -->
<g id="edge58" class="edge">
<title>Node28&#45;&gt;Node22</title>
<path fill="none" stroke="#191970" d="M1155.3638,-302.4373C1091.1191,-276.2058 953.7663,-220.9347 836,-179 731.6548,-141.8444 607.0226,-102.9321 544.2963,-83.7219"/>
<polygon fill="#191970" stroke="#191970" points="544.9965,-80.2761 534.4102,-80.7005 542.9505,-86.9704 544.9965,-80.2761"/>
</g>
<!-- Node28&#45;&gt;Node27 -->
<g id="edge64" class="edge">
<title>Node28&#45;&gt;Node27</title>
<path fill="none" stroke="#191970" d="M1236.2776,-302.4554C1268.4828,-291.5128 1311.3629,-276.943 1340.4534,-267.0587"/>
<polygon fill="#191970" stroke="#191970" points="1341.7855,-270.3026 1350.1278,-263.7715 1339.5334,-263.6748 1341.7855,-270.3026"/>
</g>
<!-- Node29 -->
<g id="node30" class="node">
<title>Node29</title>
<polygon fill="#ffffff" stroke="#bfbfbf" points="1157,-246.5 1157,-265.5 1195,-265.5 1195,-246.5 1157,-246.5"/>
<text text-anchor="middle" x="1176" y="-253.5" font-family="Helvetica,sans-Serif" font-size="10.00" fill="#000000">map</text>
</g>
<!-- Node28&#45;&gt;Node29 -->
<g id="edge59" class="edge">
<title>Node28&#45;&gt;Node29</title>
<path fill="none" stroke="#191970" d="M1188.0449,-302.2977C1185.9628,-294.2945 1183.3845,-284.3843 1181.1483,-275.7889"/>
<polygon fill="#191970" stroke="#191970" points="1184.4669,-274.6435 1178.5618,-265.8469 1177.6924,-276.406 1184.4669,-274.6435"/>
</g>
<!-- Node30 -->
<g id="node31" class="node">
<title>Node30</title>
<polygon fill="#ffffff" stroke="#bfbfbf" points="1213,-246.5 1213,-265.5 1245,-265.5 1245,-246.5 1213,-246.5"/>
<text text-anchor="middle" x="1229" y="-253.5" font-family="Helvetica,sans-Serif" font-size="10.00" fill="#000000">set</text>
</g>
<!-- Node28&#45;&gt;Node30 -->
<g id="edge61" class="edge">
<title>Node28&#45;&gt;Node30</title>
<path fill="none" stroke="#191970" d="M1201.1461,-302.2977C1206.1751,-293.9388 1212.4555,-283.4997 1217.7791,-274.6509"/>
<polygon fill="#191970" stroke="#191970" points="1220.9197,-276.2201 1223.0758,-265.8469 1214.9215,-272.6114 1220.9197,-276.2201"/>
</g>
<!-- Node31 -->
<g id="node32" class="node">
<title>Node31</title>
<polygon fill="#ffffff" stroke="#bfbfbf" points="1263.5,-246.5 1263.5,-265.5 1332.5,-265.5 1332.5,-246.5 1263.5,-246.5"/>
<text text-anchor="middle" x="1298" y="-253.5" font-family="Helvetica,sans-Serif" font-size="10.00" fill="#000000">type_traits</text>
</g>
<!-- Node28&#45;&gt;Node31 -->
<g id="edge63" class="edge">
<title>Node28&#45;&gt;Node31</title>
<path fill="none" stroke="#191970" d="M1217.9305,-302.4554C1234.5309,-292.8241 1255.9744,-280.3828 1272.4917,-270.7996"/>
<polygon fill="#191970" stroke="#191970" points="1274.6806,-273.5761 1281.5738,-265.5303 1271.1677,-267.5214 1274.6806,-273.5761"/>
</g>
<!-- Node32&#45;&gt;Node5 -->
<g id="edge74" class="edge">
<title>Node32&#45;&gt;Node5</title>
<path fill="none" stroke="#191970" d="M1717.1355,-566.3247C1877.7856,-542.1572 2280,-455.5801 2280,-194.5 2280,-194.5 2280,-194.5 2280,-133 2280,62.0261 2041.7473,-78.2965 1848,-56 1522.2887,-18.5171 1124.4862,-11.533 1009.5236,-10.2703"/>
<polygon fill="#191970" stroke="#191970" points="1009.3285,-6.7682 999.2931,-10.1651 1009.2565,-13.7678 1009.3285,-6.7682"/>
</g>
<!-- Node32&#45;&gt;Node6 -->
<g id="edge75" class="edge">
<title>Node32&#45;&gt;Node6</title>
<path fill="none" stroke="#191970" d="M1586.713,-570.9749C1478.4795,-564.4881 1266.8832,-548.9015 1197,-523 1033.2119,-462.2937 1029.0437,-378.4792 872,-302 869.4183,-300.7427 803.026,-279.6931 761.3041,-266.5091"/>
<polygon fill="#191970" stroke="#191970" points="762.1265,-263.0985 751.5366,-263.4239 760.018,-269.7734 762.1265,-263.0985"/>
</g>
<!-- Node32&#45;&gt;Node7 -->
<g id="edge76" class="edge">
<title>Node32&#45;&gt;Node7</title>
<path fill="none" stroke="#191970" d="M1592.111,-564.9581C1522.8419,-553.9217 1408.9699,-535.7789 1335.7629,-524.1151"/>
<polygon fill="#191970" stroke="#191970" points="1336.138,-520.6308 1325.7119,-522.5137 1335.0366,-527.5436 1336.138,-520.6308"/>
</g>
<!-- Node32&#45;&gt;Node15 -->
<g id="edge83" class="edge">
<title>Node32&#45;&gt;Node15</title>
<path fill="none" stroke="#191970" d="M1667.0993,-564.7557C1729.0156,-523.6561 1955.7535,-361.2732 1860,-246 1835.4589,-216.4561 1736.5454,-203.7702 1664.123,-198.3826"/>
<polygon fill="#191970" stroke="#191970" points="1664.3131,-194.8874 1654.0902,-197.6699 1663.817,-201.8698 1664.3131,-194.8874"/>
</g>
<!-- Node32&#45;&gt;Node16 -->
<g id="edge84" class="edge">
<title>Node32&#45;&gt;Node16</title>
<path fill="none" stroke="#191970" d="M1695.5984,-564.9618C1806.3854,-537.893 2090,-449.6826 2090,-256 2090,-256 2090,-256 2090,-194.5 2090,-162.7973 2203.1767,-185.5207 1922,-123 1792.2237,-94.1437 1401.2453,-79.0997 1231.3128,-73.7774"/>
<polygon fill="#191970" stroke="#191970" points="1231.2829,-70.2749 1221.1792,-73.4633 1231.066,-77.2715 1231.2829,-70.2749"/>
</g>
<!-- Node32&#45;&gt;Node18 -->
<g id="edge73" class="edge">
<title>Node32&#45;&gt;Node18</title>
<path fill="none" stroke="#191970" d="M1586.8069,-568.5597C1490.8242,-559.6474 1305.882,-541.8405 1149,-523 867.9222,-489.2443 799.003,-470.3727 518,-436 443.2422,-426.8555 248.443,-433.5229 181,-400 171.4481,-395.2522 54,-266.6668 54,-256 54,-256 54,-256 54,-194.5 54,-157.4405 44.2028,-115.0675 37.6843,-90.9763"/>
<polygon fill="#191970" stroke="#191970" points="41.0354,-89.9634 34.967,-81.2786 34.295,-91.8521 41.0354,-89.9634"/>
</g>
<!-- Node32&#45;&gt;Node26 -->
<g id="edge77" class="edge">
<title>Node32&#45;&gt;Node26</title>
<path fill="none" stroke="#191970" d="M1609.5183,-564.9929C1547.4071,-549.9926 1429.3826,-517.2673 1339,-467 1319.9518,-456.4061 1319.4337,-447.6301 1301,-436 1281.5289,-423.7154 1258.666,-412.4794 1238.9211,-403.6589"/>
<polygon fill="#191970" stroke="#191970" points="1240.0707,-400.3413 1229.5071,-399.5289 1237.2584,-406.7516 1240.0707,-400.3413"/>
</g>
<!-- Node33 -->
<g id="node34" class="node">
<title>Node33</title>
<g id="a_node34"><a xlink:href="unique__id_8h.html" target="_top" xlink:title="maliput/api/unique_id.h">
<polygon fill="#ffffff" stroke="#000000" points="1587.5,-375 1587.5,-394 1718.5,-394 1718.5,-375 1587.5,-375"/>
<text text-anchor="middle" x="1653" y="-382" font-family="Helvetica,sans-Serif" font-size="10.00" fill="#000000">maliput/api/unique_id.h</text>
</a>
</g>
</g>
<!-- Node32&#45;&gt;Node33 -->
<g id="edge78" class="edge">
<title>Node32&#45;&gt;Node33</title>
<path fill="none" stroke="#191970" d="M1652.051,-564.8167C1652.2071,-535.1573 1652.6809,-445.1278 1652.8941,-404.6229"/>
<polygon fill="#191970" stroke="#191970" points="1656.3952,-404.41 1652.9479,-394.3917 1649.3953,-404.3731 1656.3952,-404.41"/>
</g>
<!-- Node33&#45;&gt;Node5 -->
<g id="edge79" class="edge">
<title>Node33&#45;&gt;Node5</title>
<path fill="none" stroke="#191970" d="M1705.2545,-374.9296C1796.6705,-356.6852 1976,-313.5599 1976,-256 1976,-256 1976,-256 1976,-133 1976,-33.2401 1181.1271,-13.5851 1009.4386,-10.5033"/>
<polygon fill="#191970" stroke="#191970" points="1009.3253,-7.0009 999.2662,-10.3273 1009.2041,-13.9999 1009.3253,-7.0009"/>
</g>
<!-- Node33&#45;&gt;Node15 -->
<g id="edge80" class="edge">
<title>Node33&#45;&gt;Node15</title>
<path fill="none" stroke="#191970" d="M1657.4909,-374.666C1667.6469,-350.8546 1689.7194,-288.9064 1666,-246 1658.6648,-232.7312 1646.3207,-222.4197 1633.4074,-214.6286"/>
<polygon fill="#191970" stroke="#191970" points="1634.8709,-211.4376 1624.431,-209.6321 1631.4663,-217.5539 1634.8709,-211.4376"/>
</g>
<!-- Node33&#45;&gt;Node16 -->
<g id="edge82" class="edge">
<title>Node33&#45;&gt;Node16</title>
<path fill="none" stroke="#191970" d="M1662.512,-374.8647C1671.3236,-365.2045 1683.8235,-349.4403 1689,-333 1700.5942,-296.1771 1715.5392,-237.006 1681,-179 1657.0901,-138.8451 1636.0755,-138.5385 1592,-123 1527.3845,-100.2203 1339.8621,-84.2442 1231.2819,-76.6071"/>
<polygon fill="#191970" stroke="#191970" points="1231.2461,-73.0962 1221.0273,-75.8941 1230.7605,-80.0794 1231.2461,-73.0962"/>
</g>
<!-- Node33&#45;&gt;Node28 -->
<g id="edge81" class="edge">
<title>Node33&#45;&gt;Node28</title>
<path fill="none" stroke="#191970" d="M1587.4395,-374.9717C1504.5023,-362.9179 1361.7368,-342.1689 1272.335,-329.1756"/>
<polygon fill="#191970" stroke="#191970" points="1272.6422,-325.6835 1262.2427,-327.7088 1271.6353,-332.6108 1272.6422,-325.6835"/>
</g>
<!-- Node34&#45;&gt;Node3 -->
<g id="edge88" class="edge">
<title>Node34&#45;&gt;Node3</title>
<path fill="none" stroke="#191970" d="M900.1901,-561.2098C854.9233,-551.3676 792.4699,-537.2465 738,-523 652.8291,-500.7238 631.7678,-494.079 548,-467 508.5434,-454.2452 500.3982,-445.3536 460,-436 325.7312,-404.912 287.5297,-425.0256 152,-400 146.5603,-398.9955 140.8865,-397.7822 135.2839,-396.4819"/>
<polygon fill="#191970" stroke="#191970" points="135.8852,-393.0264 125.3423,-394.0737 134.2372,-399.8296 135.8852,-393.0264"/>
</g>
<!-- Node34&#45;&gt;Node6 -->
<g id="edge89" class="edge">
<title>Node34&#45;&gt;Node6</title>
<path fill="none" stroke="#191970" d="M931.0244,-559.468C896.5447,-541.7803 842.1534,-509.3703 809,-467 761.8022,-406.6809 739.4881,-315.6784 731.5504,-275.8495"/>
<polygon fill="#191970" stroke="#191970" points="734.9527,-275.0051 729.6469,-265.8345 728.0758,-276.3122 734.9527,-275.0051"/>
</g>
<!-- Node34&#45;&gt;Node7 -->
<g id="edge90" class="edge">
<title>Node34&#45;&gt;Node7</title>
<path fill="none" stroke="#191970" d="M1025.7818,-561.7572C1079.7342,-550.8064 1156.8639,-535.1514 1209.0532,-524.5585"/>
<polygon fill="#191970" stroke="#191970" points="1210.0403,-527.9296 1219.1442,-522.5103 1208.6478,-521.0695 1210.0403,-527.9296"/>
</g>
<!-- Node34&#45;&gt;Node15 -->
<g id="edge106" class="edge">
<title>Node34&#45;&gt;Node15</title>
<path fill="none" stroke="#191970" d="M1025.8863,-569.6398C1149.4293,-558.8282 1417.5049,-528.7244 1483,-467 1518.4848,-433.5581 1557.1574,-312.7537 1571,-266 1575.4655,-250.9177 1578.6648,-233.568 1580.7721,-219.7364"/>
<polygon fill="#191970" stroke="#191970" points="1584.2837,-219.9026 1582.2313,-209.5085 1577.3539,-218.9139 1584.2837,-219.9026"/>
</g>
<!-- Node34&#45;&gt;Node16 -->
<g id="edge107" class="edge">
<title>Node34&#45;&gt;Node16</title>
<path fill="none" stroke="#191970" d="M968.6265,-559.4462C995.1899,-488.3749 1108.1523,-186.1403 1141.62,-96.5966"/>
<polygon fill="#191970" stroke="#191970" points="1144.9885,-97.5808 1145.2111,-86.9883 1138.4316,-95.13 1144.9885,-97.5808"/>
</g>
<!-- Node34&#45;&gt;Node18 -->
<g id="edge87" class="edge">
<title>Node34&#45;&gt;Node18</title>
<path fill="none" stroke="#191970" d="M900.3729,-564.2394C839.4341,-554.1482 744.2582,-538.1031 662,-523 365.6653,-468.5911 16,-618.7882 16,-317.5 16,-317.5 16,-317.5 16,-194.5 16,-157.6919 23.133,-115.2016 27.8738,-91.0267"/>
<polygon fill="#191970" stroke="#191970" points="31.3468,-91.511 29.9083,-81.0143 24.487,-90.117 31.3468,-91.511"/>
</g>
<!-- Node34&#45;&gt;Node26 -->
<g id="edge105" class="edge">
<title>Node34&#45;&gt;Node26</title>
<path fill="none" stroke="#191970" d="M978.644,-559.1667C1005.9087,-532.7591 1064.3553,-477.5343 1118,-436 1131.6042,-425.467 1147.1689,-414.4843 1160.5023,-405.3801"/>
<polygon fill="#191970" stroke="#191970" points="1162.5827,-408.1984 1168.899,-399.6922 1158.6568,-402.4029 1162.5827,-408.1984"/>
</g>
<!-- Node34&#45;&gt;Node35 -->
<g id="edge91" class="edge">
<title>Node34&#45;&gt;Node35</title>
<path fill="none" stroke="#191970" d="M953.313,-559.4178C939.8092,-538.3928 915.1912,-500.0635 899.2218,-475.1997"/>
<polygon fill="#191970" stroke="#191970" points="902.1153,-473.2281 893.7662,-466.7056 896.2254,-477.0111 902.1153,-473.2281"/>
</g>
<!-- Node35&#45;&gt;Node1 -->
<g id="edge94" class="edge">
<title>Node35&#45;&gt;Node1</title>
<path fill="none" stroke="#191970" d="M919.0405,-436.4944C963.4119,-418.0517 1042.5789,-386.996 1113,-369 1213.6708,-343.2737 1241.3719,-349.2457 1344,-333 1508.0107,-307.0376 1703.4895,-275.3966 1784.6986,-262.2208"/>
<polygon fill="#191970" stroke="#191970" points="1785.6225,-265.6168 1794.9327,-260.56 1784.5012,-258.7072 1785.6225,-265.6168"/>
</g>
<!-- Node35&#45;&gt;Node3 -->
<g id="edge96" class="edge">
<title>Node35&#45;&gt;Node3</title>
<path fill="none" stroke="#191970" d="M818.2891,-448.4063C694.8813,-442.2008 420.1454,-426.5113 190,-400 176.232,-398.414 161.4459,-396.3141 147.6086,-394.1737"/>
<polygon fill="#191970" stroke="#191970" points="148.1521,-390.7163 137.7288,-392.6148 147.061,-397.6307 148.1521,-390.7163"/>
</g>
<!-- Node35&#45;&gt;Node5 -->
<g id="edge95" class="edge">
<title>Node35&#45;&gt;Node5</title>
<path fill="none" stroke="#191970" d="M818.398,-447.7679C655.6585,-438.3294 244.5677,-413.3145 218,-400 198.993,-390.4746 92,-277.2603 92,-256 92,-256 92,-256 92,-133 92,-73.3235 145.641,-75.6201 202,-56 272.7985,-31.3531 805.8512,-14.8038 944.2507,-10.892"/>
<polygon fill="#191970" stroke="#191970" points="944.7113,-14.3805 954.6094,-10.6021 944.5154,-7.3833 944.7113,-14.3805"/>
</g>
<!-- Node35&#45;&gt;Node6 -->
<g id="edge97" class="edge">
<title>Node35&#45;&gt;Node6</title>
<path fill="none" stroke="#191970" d="M877.0984,-436.2345C861.6906,-402.5921 824.2572,-323.3589 804,-302 791.5501,-288.8729 774.5523,-278.1176 759.7886,-270.3167"/>
<polygon fill="#191970" stroke="#191970" points="760.9845,-266.9999 750.4796,-265.6218 757.8322,-273.25 760.9845,-266.9999"/>
</g>
<!-- Node35&#45;&gt;Node11 -->
<g id="edge93" class="edge">
<title>Node35&#45;&gt;Node11</title>
<path fill="none" stroke="#191970" d="M949.6975,-447.8701C1027.4929,-442.4055 1160.4598,-429.3819 1271,-400 1273.6209,-399.3034 1276.3025,-398.4712 1278.9688,-397.5593"/>
<polygon fill="#191970" stroke="#191970" points="1280.2926,-400.8009 1288.4221,-394.0066 1277.83,-394.2483 1280.2926,-400.8009"/>
</g>
<!-- Node35&#45;&gt;Node12 -->
<g id="edge98" class="edge">
<title>Node35&#45;&gt;Node12</title>
<path fill="none" stroke="#191970" d="M818.1574,-439.8295C748.3005,-427.4474 638.6845,-408.0182 569.6669,-395.7849"/>
<polygon fill="#191970" stroke="#191970" points="570.2455,-392.3329 559.7881,-394.0339 569.0237,-399.2255 570.2455,-392.3329"/>
</g>
<!-- Node35&#45;&gt;Node13 -->
<g id="edge92" class="edge">
<title>Node35&#45;&gt;Node13</title>
<path fill="none" stroke="#191970" d="M881.9812,-436.2447C877.7967,-408.2325 866.4522,-347.3168 842,-302 836.2112,-291.2717 827.5335,-280.8848 819.7386,-272.7041"/>
<polygon fill="#191970" stroke="#191970" points="822.1961,-270.2118 812.6588,-265.5977 817.2371,-275.1523 822.1961,-270.2118"/>
</g>
<!-- Node35&#45;&gt;Node15 -->
<g id="edge101" class="edge">
<title>Node35&#45;&gt;Node15</title>
<path fill="none" stroke="#191970" d="M906.5959,-436.3915C940.6668,-413.7286 1002.4544,-373.1318 1014,-369 1137.945,-324.6446 1187.6048,-386.2427 1308,-333 1327.3106,-324.4602 1325.834,-312.7622 1344,-302 1383.2045,-278.7738 1398.6362,-285.1174 1440,-266 1456.6146,-258.3211 1459.7316,-254.3876 1476,-246 1497.5176,-234.9061 1521.8264,-223.2398 1541.9257,-213.8215"/>
<polygon fill="#191970" stroke="#191970" points="1543.548,-216.9268 1551.1305,-209.527 1540.5884,-210.5832 1543.548,-216.9268"/>
</g>
<!-- Node35&#45;&gt;Node23 -->
<g id="edge104" class="edge">
<title>Node35&#45;&gt;Node23</title>
<path fill="none" stroke="#191970" d="M818.437,-447.8355C663.0612,-438.9151 283.6969,-415.6564 261,-400 174.7616,-340.5127 115.2032,-262.1009 179,-179 191.4767,-162.748 237.1562,-150.9924 278.3045,-143.4346"/>
<polygon fill="#191970" stroke="#191970" points="279.1336,-146.8423 288.3692,-141.6506 277.9118,-139.9497 279.1336,-146.8423"/>
</g>
<!-- Node35&#45;&gt;Node26 -->
<g id="edge99" class="edge">
<title>Node35&#45;&gt;Node26</title>
<path fill="none" stroke="#191970" d="M949.6959,-437.209C997.4803,-426.8144 1062.3964,-412.693 1113.0097,-401.6829"/>
<polygon fill="#191970" stroke="#191970" points="1113.9049,-405.0702 1122.9324,-399.5245 1112.4169,-398.2301 1113.9049,-405.0702"/>
</g>
<!-- Node35&#45;&gt;Node28 -->
<g id="edge102" class="edge">
<title>Node35&#45;&gt;Node28</title>
<path fill="none" stroke="#191970" d="M894.6343,-436.449C908.7397,-417.6609 935.4457,-385.9404 966,-369 1010.7444,-344.192 1066.7856,-331.3228 1111.8678,-324.6527"/>
<polygon fill="#191970" stroke="#191970" points="1112.4831,-328.1007 1121.8988,-323.2432 1111.5091,-321.1688 1112.4831,-328.1007"/>
</g>
<!-- Node35&#45;&gt;Node33 -->
<g id="edge100" class="edge">
<title>Node35&#45;&gt;Node33</title>
<path fill="none" stroke="#191970" d="M949.5645,-445.7876C1091.4982,-433.4215 1426.5372,-404.2308 1577.2377,-391.1009"/>
<polygon fill="#191970" stroke="#191970" points="1577.6706,-394.5765 1587.3291,-390.2217 1577.063,-387.6029 1577.6706,-394.5765"/>
</g>
<!-- Node36 -->
<g id="node37" class="node">
<title>Node36</title>
<g id="a_node37"><a xlink:href="passkey_8h.html" target="_top" xlink:title="maliput/common/passkey.h">
<polygon fill="#ffffff" stroke="#000000" points="270,-375 270,-394 422,-394 422,-375 270,-375"/>
<text text-anchor="middle" x="346" y="-382" font-family="Helvetica,sans-Serif" font-size="10.00" fill="#000000">maliput/common/passkey.h</text>
</a>
</g>
</g>
<!-- Node35&#45;&gt;Node36 -->
<g id="edge103" class="edge">
<title>Node35&#45;&gt;Node36</title>
<path fill="none" stroke="#191970" d="M818.1783,-445.4162C729.8607,-436.9338 568.2229,-420.2883 431,-400 422.6809,-398.77 413.929,-397.3354 405.3328,-395.8448"/>
<polygon fill="#191970" stroke="#191970" points="405.8054,-392.3741 395.3485,-394.0781 404.5856,-399.267 405.8054,-392.3741"/>
</g>
<!-- Node37&#45;&gt;Node1 -->
<g id="edge113" class="edge">
<title>Node37&#45;&gt;Node1</title>
<path fill="none" stroke="#191970" d="M1334.5724,-769.2258C1502.8791,-752.2438 1937,-702.5264 1937,-641.5 1937,-641.5 1937,-641.5 1937,-574.5 1937,-453.8956 1863.6458,-321.8375 1834.6207,-274.3049"/>
<polygon fill="#191970" stroke="#191970" points="1837.5379,-272.3678 1829.2915,-265.7158 1831.5898,-276.0584 1837.5379,-272.3678"/>
</g>
<!-- Node37&#45;&gt;Node2 -->
<g id="edge116" class="edge">
<title>Node37&#45;&gt;Node2</title>
<path fill="none" stroke="#191970" d="M1269,-760.2967C1269,-750.7699 1269,-738.3954 1269,-728.1306"/>
<polygon fill="#191970" stroke="#191970" points="1272.5001,-728.0549 1269,-718.055 1265.5001,-728.055 1272.5001,-728.0549"/>
</g>
<!-- Node37&#45;&gt;Node3 -->
<g id="edge114" class="edge">
<title>Node37&#45;&gt;Node3</title>
<path fill="none" stroke="#191970" d="M1203.3137,-774.7181C960.9692,-770.9776 131,-750.2301 131,-641.5 131,-641.5 131,-641.5 131,-513 131,-472.5203 112.68,-427.9774 100.8363,-403.4106"/>
<polygon fill="#191970" stroke="#191970" points="103.8251,-401.5612 96.2293,-394.1751 97.5612,-404.6859 103.8251,-401.5612"/>
</g>
<!-- Node37&#45;&gt;Node6 -->
<g id="edge115" class="edge">
<title>Node37&#45;&gt;Node6</title>
<path fill="none" stroke="#191970" d="M1203.2576,-768.4314C1041.6428,-750.1708 638,-698.8257 638,-641.5 638,-641.5 638,-641.5 638,-384.5 638,-336.821 680.0833,-294.2629 706.6962,-272.1166"/>
<polygon fill="#191970" stroke="#191970" points="709.1215,-274.6576 714.7202,-265.6628 704.7343,-269.2029 709.1215,-274.6576"/>
</g>
<!-- Node37&#45;&gt;Node15 -->
<g id="edge118" class="edge">
<title>Node37&#45;&gt;Node15</title>
<path fill="none" stroke="#191970" d="M1334.6421,-772.0968C1452.8721,-765.4318 1696.8552,-749.0838 1778,-724 1967.2036,-665.5126 2068.1161,-650.7388 2142,-467 2222.4003,-267.0557 1837.0302,-213.2143 1664.2469,-199.218"/>
<polygon fill="#191970" stroke="#191970" points="1664.4228,-195.7211 1654.1796,-198.4281 1663.8752,-202.6997 1664.4228,-195.7211"/>
</g>
<!-- Node37&#45;&gt;Node26 -->
<g id="edge117" class="edge">
<title>Node37&#45;&gt;Node26</title>
<path fill="none" stroke="#191970" d="M1203.3247,-763.3874C1140.0971,-747.4861 1054,-712.7518 1054,-641.5 1054,-641.5 1054,-641.5 1054,-574.5 1054,-535.4337 1131.341,-448.3756 1170.2239,-407.076"/>
<polygon fill="#191970" stroke="#191970" points="1172.8903,-409.3507 1177.2316,-399.6861 1167.8109,-404.534 1172.8903,-409.3507"/>
</g>
<!-- Node38&#45;&gt;Node1 -->
<g id="edge120" class="edge">
<title>Node38&#45;&gt;Node1</title>
<path fill="none" stroke="#191970" d="M2145.862,-693.36C2139.4891,-668.6714 2128,-618.1144 2128,-574.5 2128,-574.5 2128,-574.5 2128,-384.5 2128,-327.1936 1942.8304,-281.1765 1861.0502,-263.6476"/>
<polygon fill="#191970" stroke="#191970" points="1861.6544,-260.198 1851.147,-261.5561 1860.2079,-267.047 1861.6544,-260.198"/>
</g>
</g>
</svg>
