<?xml version="1.0" encoding="UTF-8" standalone="no"?>
<!DOCTYPE svg PUBLIC "-//W3C//DTD SVG 1.1//EN"
 "http://www.w3.org/Graphics/SVG/1.1/DTD/svg11.dtd">
<!-- Generated by graphviz version 2.40.1 (20161225.0304)
 -->
<!-- Title: phase_based_right_of_way_rule_state_provider.cc Pages: 1 -->
<svg width="2417pt" height="1000pt"
 viewBox="0.00 0.00 2417.00 1000.00" xmlns="http://www.w3.org/2000/svg" xmlns:xlink="http://www.w3.org/1999/xlink">
<g id="graph0" class="graph" transform="scale(1 1) rotate(0) translate(4 996)">
<title>phase_based_right_of_way_rule_state_provider.cc</title>
<polygon fill="#ffffff" stroke="transparent" points="-4,4 -4,-996 2413,-996 2413,4 -4,4"/>
<!-- Node0 -->
<g id="node1" class="node">
<title>Node0</title>
<polygon fill="#bfbfbf" stroke="#000000" points="1803.5,-961.5 1803.5,-991.5 1958.5,-991.5 1958.5,-961.5 1803.5,-961.5"/>
<text text-anchor="start" x="1811.5" y="-979.5" font-family="Helvetica,sans-Serif" font-size="10.00" fill="#000000">phase_based_right_of</text>
<text text-anchor="middle" x="1881" y="-968.5" font-family="Helvetica,sans-Serif" font-size="10.00" fill="#000000">_way_rule_state_provider.cc</text>
</g>
<!-- Node1 -->
<g id="node2" class="node">
<title>Node1</title>
<g id="a_node2"><a xlink:href="phase__based__right__of__way__rule__state__provider_8h.html" target="_top" xlink:title="maliput/base/phase\l_based_right_of_way\l_rule_state_provider.h">
<polygon fill="#ffffff" stroke="#000000" points="428.5,-883.5 428.5,-924.5 553.5,-924.5 553.5,-883.5 428.5,-883.5"/>
<text text-anchor="start" x="436.5" y="-912.5" font-family="Helvetica,sans-Serif" font-size="10.00" fill="#000000">maliput/base/phase</text>
<text text-anchor="start" x="436.5" y="-901.5" font-family="Helvetica,sans-Serif" font-size="10.00" fill="#000000">_based_right_of_way</text>
<text text-anchor="middle" x="491" y="-890.5" font-family="Helvetica,sans-Serif" font-size="10.00" fill="#000000">_rule_state_provider.h</text>
</a>
</g>
</g>
<!-- Node0&#45;&gt;Node1 -->
<g id="edge1" class="edge">
<title>Node0&#45;&gt;Node1</title>
<path fill="none" stroke="#191970" d="M1803.2891,-972.4467C1558.0885,-959.6575 802.9034,-920.2683 564.1506,-907.8154"/>
<polygon fill="#191970" stroke="#191970" points="564.0171,-904.3038 553.8483,-907.2781 563.6524,-911.2943 564.0171,-904.3038"/>
</g>
<!-- Node4 -->
<g id="node5" class="node">
<title>Node4</title>
<g id="a_node5"><a xlink:href="phase_8h.html" target="_top" xlink:title="maliput/api/rules/phase.h">
<polygon fill="#ffffff" stroke="#000000" points="1240,-693.5 1240,-712.5 1380,-712.5 1380,-693.5 1240,-693.5"/>
<text text-anchor="middle" x="1310" y="-700.5" font-family="Helvetica,sans-Serif" font-size="10.00" fill="#000000">maliput/api/rules/phase.h</text>
</a>
</g>
</g>
<!-- Node0&#45;&gt;Node4 -->
<g id="edge138" class="edge">
<title>Node0&#45;&gt;Node4</title>
<path fill="none" stroke="#191970" d="M1852.4984,-961.3967C1816.825,-942.5998 1753.7511,-909.7171 1699,-883 1567.0064,-818.5905 1407.3197,-746.5056 1341.0971,-716.8649"/>
<polygon fill="#191970" stroke="#191970" points="1342.2115,-713.5293 1331.6538,-712.6425 1339.3541,-719.9196 1342.2115,-713.5293"/>
</g>
<!-- Node39 -->
<g id="node40" class="node">
<title>Node39</title>
<g id="a_node40"><a xlink:href="phase__ring_8h.html" target="_top" xlink:title="maliput/api/rules/phase\l_ring.h">
<polygon fill="#ffffff" stroke="#000000" points="1244.5,-749.5 1244.5,-779.5 1375.5,-779.5 1375.5,-749.5 1244.5,-749.5"/>
<text text-anchor="start" x="1252.5" y="-767.5" font-family="Helvetica,sans-Serif" font-size="10.00" fill="#000000">maliput/api/rules/phase</text>
<text text-anchor="middle" x="1310" y="-756.5" font-family="Helvetica,sans-Serif" font-size="10.00" fill="#000000">_ring.h</text>
</a>
</g>
</g>
<!-- Node0&#45;&gt;Node39 -->
<g id="edge139" class="edge">
<title>Node0&#45;&gt;Node39</title>
<path fill="none" stroke="#191970" d="M1840.3928,-961.4234C1738.4966,-923.5916 1472.173,-824.7113 1360.4652,-783.2367"/>
<polygon fill="#191970" stroke="#191970" points="1361.3751,-779.8411 1350.7821,-779.6415 1358.9386,-786.4034 1361.3751,-779.8411"/>
</g>
<!-- Node43 -->
<g id="node44" class="node">
<title>Node43</title>
<g id="a_node44"><a xlink:href="maliput__abort_8h.html" target="_top" xlink:title="Code in this file is inspired by: https://github.com/RobotLocomotion/drake/blob/master/common/drake_a...">
<polygon fill="#ffffff" stroke="#000000" points="1975,-889 1975,-919 2115,-919 2115,-889 1975,-889"/>
<text text-anchor="start" x="1983" y="-907" font-family="Helvetica,sans-Serif" font-size="10.00" fill="#000000">maliput/common/maliput</text>
<text text-anchor="middle" x="2045" y="-896" font-family="Helvetica,sans-Serif" font-size="10.00" fill="#000000">_abort.h</text>
</a>
</g>
</g>
<!-- Node0&#45;&gt;Node43 -->
<g id="edge140" class="edge">
<title>Node0&#45;&gt;Node43</title>
<path fill="none" stroke="#191970" d="M1914.9809,-961.478C1940.1588,-950.3475 1974.6623,-935.0944 2001.7988,-923.0981"/>
<polygon fill="#191970" stroke="#191970" points="2003.3316,-926.2473 2011.0626,-919.0028 2000.5013,-919.845 2003.3316,-926.2473"/>
</g>
<!-- Node2 -->
<g id="node3" class="node">
<title>Node2</title>
<polygon fill="#ffffff" stroke="#bfbfbf" points="162,-246.5 162,-265.5 218,-265.5 218,-246.5 162,-246.5"/>
<text text-anchor="middle" x="190" y="-253.5" font-family="Helvetica,sans-Serif" font-size="10.00" fill="#000000">optional</text>
</g>
<!-- Node1&#45;&gt;Node2 -->
<g id="edge2" class="edge">
<title>Node1&#45;&gt;Node2</title>
<path fill="none" stroke="#191970" d="M428.3158,-899.403C295.9483,-887.9706 0,-852.5629 0,-764.5 0,-764.5 0,-764.5 0,-384.5 0,-342.3006 14.2424,-328.6032 47,-302 77.1923,-277.4801 120.7399,-265.9174 151.8345,-260.5368"/>
<polygon fill="#191970" stroke="#191970" points="152.5399,-263.9686 161.8649,-258.9392 151.4389,-257.0557 152.5399,-263.9686"/>
</g>
<!-- Node3 -->
<g id="node4" class="node">
<title>Node3</title>
<g id="a_node4"><a xlink:href="phase__provider_8h.html" target="_top" xlink:title="maliput/api/rules/phase\l_provider.h">
<polygon fill="#ffffff" stroke="#000000" points="322.5,-816.5 322.5,-846.5 453.5,-846.5 453.5,-816.5 322.5,-816.5"/>
<text text-anchor="start" x="330.5" y="-834.5" font-family="Helvetica,sans-Serif" font-size="10.00" fill="#000000">maliput/api/rules/phase</text>
<text text-anchor="middle" x="388" y="-823.5" font-family="Helvetica,sans-Serif" font-size="10.00" fill="#000000">_provider.h</text>
</a>
</g>
</g>
<!-- Node1&#45;&gt;Node3 -->
<g id="edge3" class="edge">
<title>Node1&#45;&gt;Node3</title>
<path fill="none" stroke="#191970" d="M461.7598,-883.4183C447.969,-873.7112 431.5412,-862.1479 417.6933,-852.4007"/>
<polygon fill="#191970" stroke="#191970" points="419.6431,-849.493 409.4511,-846.5991 415.6139,-855.2172 419.6431,-849.493"/>
</g>
<!-- Node17 -->
<g id="node18" class="node">
<title>Node17</title>
<g id="a_node18"><a xlink:href="maliput__copyable_8h.html" target="_top" xlink:title="Code in this file is inspired by: https://github.com/RobotLocomotion/drake/blob/master/common/drake_c...">
<polygon fill="#ffffff" stroke="#000000" points="916,-179.5 916,-209.5 1056,-209.5 1056,-179.5 916,-179.5"/>
<text text-anchor="start" x="924" y="-197.5" font-family="Helvetica,sans-Serif" font-size="10.00" fill="#000000">maliput/common/maliput</text>
<text text-anchor="middle" x="986" y="-186.5" font-family="Helvetica,sans-Serif" font-size="10.00" fill="#000000">_copyable.h</text>
</a>
</g>
</g>
<!-- Node1&#45;&gt;Node17 -->
<g id="edge137" class="edge">
<title>Node1&#45;&gt;Node17</title>
<path fill="none" stroke="#191970" d="M489.3011,-883.4787C483.773,-801.2625 475.635,-494.1055 649,-369 701.447,-331.1526 731.2804,-360.113 790,-333 799.0703,-328.8119 904.5927,-253.1388 956.9311,-215.4598"/>
<polygon fill="#191970" stroke="#191970" points="959.0828,-218.2235 965.1519,-209.5392 954.9919,-212.5433 959.0828,-218.2235"/>
</g>
<!-- Node36 -->
<g id="node37" class="node">
<title>Node36</title>
<g id="a_node37"><a xlink:href="right__of__way__rule_8h.html" target="_top" xlink:title="maliput/api/rules/right\l_of_way_rule.h">
<polygon fill="#ffffff" stroke="#000000" points="1074.5,-559.5 1074.5,-589.5 1199.5,-589.5 1199.5,-559.5 1074.5,-559.5"/>
<text text-anchor="start" x="1082.5" y="-577.5" font-family="Helvetica,sans-Serif" font-size="10.00" fill="#000000">maliput/api/rules/right</text>
<text text-anchor="middle" x="1137" y="-566.5" font-family="Helvetica,sans-Serif" font-size="10.00" fill="#000000">_of_way_rule.h</text>
</a>
</g>
</g>
<!-- Node1&#45;&gt;Node36 -->
<g id="edge131" class="edge">
<title>Node1&#45;&gt;Node36</title>
<path fill="none" stroke="#191970" d="M503.1695,-883.4668C535.87,-830.3785 631.453,-688.3806 753,-626 805.8309,-598.886 968.4556,-584.675 1064.29,-578.4665"/>
<polygon fill="#191970" stroke="#191970" points="1064.7329,-581.9456 1074.4912,-577.8195 1064.2897,-574.9596 1064.7329,-581.9456"/>
</g>
<!-- Node41 -->
<g id="node42" class="node">
<title>Node41</title>
<g id="a_node42"><a xlink:href="phase__ring__book_8h.html" target="_top" xlink:title="maliput/api/rules/phase\l_ring_book.h">
<polygon fill="#ffffff" stroke="#000000" points="653.5,-816.5 653.5,-846.5 784.5,-846.5 784.5,-816.5 653.5,-816.5"/>
<text text-anchor="start" x="661.5" y="-834.5" font-family="Helvetica,sans-Serif" font-size="10.00" fill="#000000">maliput/api/rules/phase</text>
<text text-anchor="middle" x="719" y="-823.5" font-family="Helvetica,sans-Serif" font-size="10.00" fill="#000000">_ring_book.h</text>
</a>
</g>
</g>
<!-- Node1&#45;&gt;Node41 -->
<g id="edge124" class="edge">
<title>Node1&#45;&gt;Node41</title>
<path fill="none" stroke="#191970" d="M553.6036,-884.0932C587.4139,-873.3421 628.8527,-860.1653 661.7939,-849.6905"/>
<polygon fill="#191970" stroke="#191970" points="663.2572,-852.898 671.7264,-846.5322 661.1359,-846.2271 663.2572,-852.898"/>
</g>
<!-- Node42 -->
<g id="node43" class="node">
<title>Node42</title>
<g id="a_node43"><a xlink:href="right__of__way__rule__state__provider_8h.html" target="_top" xlink:title="maliput/api/rules/right\l_of_way_rule_state_provider.h">
<polygon fill="#ffffff" stroke="#000000" points="150,-626.5 150,-656.5 316,-656.5 316,-626.5 150,-626.5"/>
<text text-anchor="start" x="158" y="-644.5" font-family="Helvetica,sans-Serif" font-size="10.00" fill="#000000">maliput/api/rules/right</text>
<text text-anchor="middle" x="233" y="-633.5" font-family="Helvetica,sans-Serif" font-size="10.00" fill="#000000">_of_way_rule_state_provider.h</text>
</a>
</g>
</g>
<!-- Node1&#45;&gt;Node42 -->
<g id="edge132" class="edge">
<title>Node1&#45;&gt;Node42</title>
<path fill="none" stroke="#191970" d="M428.1318,-897.4894C390.551,-890.5815 344.2013,-876.3439 313,-847 260.5339,-797.6572 241.9767,-709.8607 235.8246,-666.7726"/>
<polygon fill="#191970" stroke="#191970" points="239.2598,-666.0498 234.4858,-656.5915 232.3195,-666.9625 239.2598,-666.0498"/>
</g>
<!-- Node3&#45;&gt;Node2 -->
<g id="edge4" class="edge">
<title>Node3&#45;&gt;Node2</title>
<path fill="none" stroke="#191970" d="M322.2097,-817.8916C292.2893,-809.8207 257.3265,-797.6369 229,-780 105.1421,-702.8825 38,-658.9037 38,-513 38,-513 38,-513 38,-384.5 38,-343.7508 48.3103,-329.9109 78,-302 98.5036,-282.7248 128.1919,-271.0296 151.8513,-264.2578"/>
<polygon fill="#191970" stroke="#191970" points="152.8255,-267.6203 161.5775,-261.6493 151.0122,-260.8592 152.8255,-267.6203"/>
</g>
<!-- Node3&#45;&gt;Node4 -->
<g id="edge5" class="edge">
<title>Node3&#45;&gt;Node4</title>
<path fill="none" stroke="#191970" d="M453.5688,-822.3616C619.0326,-799.3008 1053.0121,-738.8166 1231.5507,-713.9335"/>
<polygon fill="#191970" stroke="#191970" points="1232.2347,-717.3721 1241.6558,-712.5252 1231.2684,-710.4391 1232.2347,-717.3721"/>
</g>
<!-- Node3&#45;&gt;Node17 -->
<g id="edge123" class="edge">
<title>Node3&#45;&gt;Node17</title>
<path fill="none" stroke="#191970" d="M386.4575,-816.4838C384.1328,-792.5178 380,-744.1281 380,-703 380,-703 380,-703 380,-451.5 380,-336.0068 731.4791,-353.1304 763,-333 801.9594,-308.1192 783.0829,-273.8212 820,-246 844.8979,-227.2366 876.738,-215.2301 905.8611,-207.5827"/>
<polygon fill="#191970" stroke="#191970" points="906.7614,-210.9654 915.6195,-205.1529 905.0701,-204.1728 906.7614,-210.9654"/>
</g>
<!-- Node3&#45;&gt;Node39 -->
<g id="edge114" class="edge">
<title>Node3&#45;&gt;Node39</title>
<path fill="none" stroke="#191970" d="M453.5688,-826.7352C619.9407,-814.6453 1057.7834,-782.8281 1234.4669,-769.9888"/>
<polygon fill="#191970" stroke="#191970" points="1234.7375,-773.4785 1244.4575,-769.2629 1234.23,-766.4969 1234.7375,-773.4785"/>
</g>
<!-- Node40 -->
<g id="node41" class="node">
<title>Node40</title>
<g id="a_node41"><a xlink:href="state__provider__result_8h.html" target="_top" xlink:title="maliput/api/rules/state\l_provider_result.h">
<polygon fill="#ffffff" stroke="#000000" points="66.5,-559.5 66.5,-589.5 193.5,-589.5 193.5,-559.5 66.5,-559.5"/>
<text text-anchor="start" x="74.5" y="-577.5" font-family="Helvetica,sans-Serif" font-size="10.00" fill="#000000">maliput/api/rules/state</text>
<text text-anchor="middle" x="130" y="-566.5" font-family="Helvetica,sans-Serif" font-size="10.00" fill="#000000">_provider_result.h</text>
</a>
</g>
</g>
<!-- Node3&#45;&gt;Node40 -->
<g id="edge121" class="edge">
<title>Node3&#45;&gt;Node40</title>
<path fill="none" stroke="#191970" d="M349.9538,-816.4809C293.8699,-792.1677 190.3326,-738.5312 141,-657 130.6911,-639.9626 128.2936,-617.3603 128.2771,-600.122"/>
<polygon fill="#191970" stroke="#191970" points="131.7875,-599.7693 128.5509,-589.6809 124.7899,-599.5857 131.7875,-599.7693"/>
</g>
<!-- Node4&#45;&gt;Node2 -->
<g id="edge6" class="edge">
<title>Node4&#45;&gt;Node2</title>
<path fill="none" stroke="#191970" d="M1255.9285,-693.4636C1103.5885,-665.1139 660.5773,-572.4042 332,-400 287.8424,-376.8306 276.4417,-369.0623 242,-333 225.0237,-315.2249 209.8339,-291.3302 200.3183,-274.8982"/>
<polygon fill="#191970" stroke="#191970" points="203.1219,-272.7444 195.1614,-265.7528 197.0244,-276.1826 203.1219,-272.7444"/>
</g>
<!-- Node5 -->
<g id="node6" class="node">
<title>Node5</title>
<polygon fill="#ffffff" stroke="#bfbfbf" points="2021.5,-375 2021.5,-394 2114.5,-394 2114.5,-375 2021.5,-375"/>
<text text-anchor="middle" x="2068" y="-382" font-family="Helvetica,sans-Serif" font-size="10.00" fill="#000000">unordered_map</text>
</g>
<!-- Node4&#45;&gt;Node5 -->
<g id="edge7" class="edge">
<title>Node4&#45;&gt;Node5</title>
<path fill="none" stroke="#191970" d="M1380.1981,-698.4285C1567.8622,-685.2744 2067,-643.7762 2067,-574.5 2067,-574.5 2067,-574.5 2067,-513 2067,-474.5001 2067.4544,-429.5137 2067.7506,-404.2809"/>
<polygon fill="#191970" stroke="#191970" points="2071.2516,-404.2135 2067.8733,-394.1717 2064.2521,-404.1284 2071.2516,-404.2135"/>
</g>
<!-- Node6 -->
<g id="node7" class="node">
<title>Node6</title>
<g id="a_node7"><a xlink:href="discrete__value__rule_8h.html" target="_top" xlink:title="maliput/api/rules/discrete\l_value_rule.h">
<polygon fill="#ffffff" stroke="#000000" points="1497.5,-626.5 1497.5,-656.5 1638.5,-656.5 1638.5,-626.5 1497.5,-626.5"/>
<text text-anchor="start" x="1505.5" y="-644.5" font-family="Helvetica,sans-Serif" font-size="10.00" fill="#000000">maliput/api/rules/discrete</text>
<text text-anchor="middle" x="1568" y="-633.5" font-family="Helvetica,sans-Serif" font-size="10.00" fill="#000000">_value_rule.h</text>
</a>
</g>
</g>
<!-- Node4&#45;&gt;Node6 -->
<g id="edge8" class="edge">
<title>Node4&#45;&gt;Node6</title>
<path fill="none" stroke="#191970" d="M1350.0294,-693.4581C1388.614,-684.2606 1447.9036,-670.1276 1494.9115,-658.9223"/>
<polygon fill="#191970" stroke="#191970" points="1495.8283,-662.3019 1504.7442,-656.5784 1494.2051,-655.4926 1495.8283,-662.3019"/>
</g>
<!-- Node4&#45;&gt;Node17 -->
<g id="edge113" class="edge">
<title>Node4&#45;&gt;Node17</title>
<path fill="none" stroke="#191970" d="M1298.3947,-693.3483C1275.9975,-673.5645 1229,-625.9241 1229,-574.5 1229,-574.5 1229,-574.5 1229,-451.5 1229,-335.2895 1096.1959,-250.4453 1026.9436,-214.1024"/>
<polygon fill="#191970" stroke="#191970" points="1028.5102,-210.9723 1018.0179,-209.5021 1025.3033,-217.1945 1028.5102,-210.9723"/>
</g>
<!-- Node28 -->
<g id="node29" class="node">
<title>Node28</title>
<g id="a_node29"><a xlink:href="type__specific__identifier_8h.html" target="_top" xlink:title="maliput/api/type_specific\l_identifier.h">
<polygon fill="#ffffff" stroke="#000000" points="1749,-369.5 1749,-399.5 1889,-399.5 1889,-369.5 1749,-369.5"/>
<text text-anchor="start" x="1757" y="-387.5" font-family="Helvetica,sans-Serif" font-size="10.00" fill="#000000">maliput/api/type_specific</text>
<text text-anchor="middle" x="1819" y="-376.5" font-family="Helvetica,sans-Serif" font-size="10.00" fill="#000000">_identifier.h</text>
</a>
</g>
</g>
<!-- Node4&#45;&gt;Node28 -->
<g id="edge112" class="edge">
<title>Node4&#45;&gt;Node28</title>
<path fill="none" stroke="#191970" d="M1380.1282,-700.3253C1465.6459,-695.8953 1604.1068,-684.5967 1647,-657 1741.1455,-596.4285 1793.2017,-464.056 1811.4458,-409.1377"/>
<polygon fill="#191970" stroke="#191970" points="1814.8077,-410.1164 1814.5541,-399.5246 1808.1472,-407.9627 1814.8077,-410.1164"/>
</g>
<!-- Node34 -->
<g id="node35" class="node">
<title>Node34</title>
<g id="a_node35"><a xlink:href="rule_8h.html" target="_top" xlink:title="maliput/api/rules/rule.h">
<polygon fill="#ffffff" stroke="#000000" points="1457,-565 1457,-584 1587,-584 1587,-565 1457,-565"/>
<text text-anchor="middle" x="1522" y="-572" font-family="Helvetica,sans-Serif" font-size="10.00" fill="#000000">maliput/api/rules/rule.h</text>
</a>
</g>
</g>
<!-- Node4&#45;&gt;Node34 -->
<g id="edge110" class="edge">
<title>Node4&#45;&gt;Node34</title>
<path fill="none" stroke="#191970" d="M1325.9345,-693.3416C1362.7037,-671.0546 1453.6789,-615.9116 1497.5578,-589.3152"/>
<polygon fill="#191970" stroke="#191970" points="1499.4323,-592.2718 1506.1698,-584.0952 1495.8039,-586.2856 1499.4323,-592.2718"/>
</g>
<!-- Node4&#45;&gt;Node36 -->
<g id="edge88" class="edge">
<title>Node4&#45;&gt;Node36</title>
<path fill="none" stroke="#191970" d="M1283.9973,-693.4106C1264.0664,-685.3732 1236.4359,-672.701 1215,-657 1191.9054,-640.084 1169.9103,-615.8087 1155.2003,-597.9687"/>
<polygon fill="#191970" stroke="#191970" points="1157.5982,-595.3674 1148.5913,-589.7883 1152.1532,-599.7665 1157.5982,-595.3674"/>
</g>
<!-- Node37 -->
<g id="node38" class="node">
<title>Node37</title>
<g id="a_node38"><a xlink:href="traffic__lights_8h.html" target="_top" xlink:title="maliput/api/rules/traffic\l_lights.h">
<polygon fill="#ffffff" stroke="#000000" points="1069.5,-436.5 1069.5,-466.5 1200.5,-466.5 1200.5,-436.5 1069.5,-436.5"/>
<text text-anchor="start" x="1077.5" y="-454.5" font-family="Helvetica,sans-Serif" font-size="10.00" fill="#000000">maliput/api/rules/traffic</text>
<text text-anchor="middle" x="1135" y="-443.5" font-family="Helvetica,sans-Serif" font-size="10.00" fill="#000000">_lights.h</text>
</a>
</g>
</g>
<!-- Node4&#45;&gt;Node37 -->
<g id="edge111" class="edge">
<title>Node4&#45;&gt;Node37</title>
<path fill="none" stroke="#191970" d="M1241.8334,-693.4835C1182.5437,-681.0773 1100.6976,-652.9522 1065,-590 1042.1871,-549.7697 1081.4428,-501.2178 1109.7847,-473.5932"/>
<polygon fill="#191970" stroke="#191970" points="1112.2048,-476.1218 1117.0692,-466.7097 1107.397,-471.034 1112.2048,-476.1218"/>
</g>
<!-- Node7 -->
<g id="node8" class="node">
<title>Node7</title>
<polygon fill="#ffffff" stroke="#bfbfbf" points="2006,-.5 2006,-19.5 2050,-19.5 2050,-.5 2006,-.5"/>
<text text-anchor="middle" x="2028" y="-7.5" font-family="Helvetica,sans-Serif" font-size="10.00" fill="#000000">string</text>
</g>
<!-- Node6&#45;&gt;Node7 -->
<g id="edge9" class="edge">
<title>Node6&#45;&gt;Node7</title>
<path fill="none" stroke="#191970" d="M1638.8125,-637.654C1714.5769,-632.1696 1837.6728,-619.2942 1940,-590 2186.0172,-519.5702 2409,-511.9001 2409,-256 2409,-256 2409,-256 2409,-133 2409,-76.9066 2360.4618,-78.3192 2309,-56 2264.7345,-36.8019 2124.5894,-20.1353 2060.5244,-13.3023"/>
<polygon fill="#191970" stroke="#191970" points="2060.5142,-9.782 2050.2029,-12.2165 2059.7818,-16.7436 2060.5142,-9.782"/>
</g>
<!-- Node8 -->
<g id="node9" class="node">
<title>Node8</title>
<polygon fill="#ffffff" stroke="#bfbfbf" points="2268.5,-246.5 2268.5,-265.5 2315.5,-265.5 2315.5,-246.5 2268.5,-246.5"/>
<text text-anchor="middle" x="2292" y="-253.5" font-family="Helvetica,sans-Serif" font-size="10.00" fill="#000000">vector</text>
</g>
<!-- Node6&#45;&gt;Node8 -->
<g id="edge10" class="edge">
<title>Node6&#45;&gt;Node8</title>
<path fill="none" stroke="#191970" d="M1638.8565,-635.5336C1755.8004,-622.5832 1992.0597,-583.0131 2151,-467 2221.7119,-415.3863 2267.6,-316.7766 2284.5988,-275.2213"/>
<polygon fill="#191970" stroke="#191970" points="2287.9285,-276.3202 2288.3785,-265.7349 2281.4256,-273.7292 2287.9285,-276.3202"/>
</g>
<!-- Node9 -->
<g id="node10" class="node">
<title>Node9</title>
<g id="a_node10"><a xlink:href="regions_8h.html" target="_top" xlink:title="maliput/api/regions.h">
<polygon fill="#ffffff" stroke="#000000" points="1488,-503.5 1488,-522.5 1608,-522.5 1608,-503.5 1488,-503.5"/>
<text text-anchor="middle" x="1548" y="-510.5" font-family="Helvetica,sans-Serif" font-size="10.00" fill="#000000">maliput/api/regions.h</text>
</a>
</g>
</g>
<!-- Node6&#45;&gt;Node9 -->
<g id="edge11" class="edge">
<title>Node6&#45;&gt;Node9</title>
<path fill="none" stroke="#191970" d="M1579.8119,-626.3389C1591.3321,-609.5912 1605.7953,-581.9542 1596,-559 1590.8844,-547.0122 1580.9425,-536.6498 1571.4273,-528.8114"/>
<polygon fill="#191970" stroke="#191970" points="1573.3754,-525.8949 1563.3074,-522.5954 1569.1203,-531.4532 1573.3754,-525.8949"/>
</g>
<!-- Node6&#45;&gt;Node17 -->
<g id="edge87" class="edge">
<title>Node6&#45;&gt;Node17</title>
<path fill="none" stroke="#191970" d="M1511.6321,-626.47C1489.7584,-618.4501 1465.7547,-606.6951 1448,-590 1385.88,-531.5875 1346.1181,-297.2917 1278,-246 1245.4015,-221.4539 1141.1855,-207.5586 1066.5616,-200.5363"/>
<polygon fill="#191970" stroke="#191970" points="1066.5164,-197.0175 1056.2388,-199.5906 1065.8777,-203.9884 1066.5164,-197.0175"/>
</g>
<!-- Node6&#45;&gt;Node34 -->
<g id="edge75" class="edge">
<title>Node6&#45;&gt;Node34</title>
<path fill="none" stroke="#191970" d="M1557.5619,-626.2967C1550.6732,-616.2631 1541.6158,-603.0709 1534.366,-592.5113"/>
<polygon fill="#191970" stroke="#191970" points="1537.1056,-590.318 1528.5601,-584.055 1531.3348,-594.28 1537.1056,-590.318"/>
</g>
<!-- Node9&#45;&gt;Node2 -->
<g id="edge14" class="edge">
<title>Node9&#45;&gt;Node2</title>
<path fill="none" stroke="#191970" d="M1487.7345,-510.003C1283.0955,-499.3611 616.1874,-460.7434 411,-400 348.2947,-381.4368 334.3309,-369.3963 280,-333 272.5117,-327.9836 233.0656,-293.7212 208.9484,-272.6255"/>
<polygon fill="#191970" stroke="#191970" points="210.9634,-269.7378 201.1346,-265.7824 206.3515,-275.0038 210.9634,-269.7378"/>
</g>
<!-- Node9&#45;&gt;Node8 -->
<g id="edge15" class="edge">
<title>Node9&#45;&gt;Node8</title>
<path fill="none" stroke="#191970" d="M1608.1839,-504.4917C1654.8859,-497.0354 1720.9023,-484.6177 1777,-467 1941.8412,-415.231 1967.7468,-364.0489 2129,-302 2172.5819,-285.23 2224.821,-271.5639 2258.2037,-263.6045"/>
<polygon fill="#191970" stroke="#191970" points="2259.4092,-266.9168 2268.3448,-261.2242 2257.8096,-260.102 2259.4092,-266.9168"/>
</g>
<!-- Node10 -->
<g id="node11" class="node">
<title>Node10</title>
<polygon fill="#ffffff" stroke="#bfbfbf" points="1786.5,-185 1786.5,-204 1833.5,-204 1833.5,-185 1786.5,-185"/>
<text text-anchor="middle" x="1810" y="-192" font-family="Helvetica,sans-Serif" font-size="10.00" fill="#000000">cmath</text>
</g>
<!-- Node9&#45;&gt;Node10 -->
<g id="edge12" class="edge">
<title>Node9&#45;&gt;Node10</title>
<path fill="none" stroke="#191970" d="M1575.3927,-503.4418C1618.2484,-488.5668 1703.8257,-459.1798 1777,-436 1830.488,-419.0564 1861.5307,-442.6384 1898,-400 1942.7911,-347.6321 1952.5614,-304.4115 1916,-246 1900.2578,-220.8498 1868.3353,-207.6674 1843.6159,-200.9645"/>
<polygon fill="#191970" stroke="#191970" points="1844.4183,-197.5575 1833.8699,-198.5486 1842.734,-204.3519 1844.4183,-197.5575"/>
</g>
<!-- Node11 -->
<g id="node12" class="node">
<title>Node11</title>
<polygon fill="#ffffff" stroke="#bfbfbf" points="1595,-442 1595,-461 1651,-461 1651,-442 1595,-442"/>
<text text-anchor="middle" x="1623" y="-449" font-family="Helvetica,sans-Serif" font-size="10.00" fill="#000000">numeric</text>
</g>
<!-- Node9&#45;&gt;Node11 -->
<g id="edge13" class="edge">
<title>Node9&#45;&gt;Node11</title>
<path fill="none" stroke="#191970" d="M1559.7188,-503.3906C1571.3188,-493.8786 1589.2979,-479.1357 1603.1321,-467.7917"/>
<polygon fill="#191970" stroke="#191970" points="1605.6026,-470.2921 1611.116,-461.2449 1601.164,-464.8792 1605.6026,-470.2921"/>
</g>
<!-- Node12 -->
<g id="node13" class="node">
<title>Node12</title>
<g id="a_node13"><a xlink:href="api_2lane_8h.html" target="_top" xlink:title="maliput/api/lane.h">
<polygon fill="#ffffff" stroke="#000000" points="1395.5,-442 1395.5,-461 1500.5,-461 1500.5,-442 1395.5,-442"/>
<text text-anchor="middle" x="1448" y="-449" font-family="Helvetica,sans-Serif" font-size="10.00" fill="#000000">maliput/api/lane.h</text>
</a>
</g>
</g>
<!-- Node9&#45;&gt;Node12 -->
<g id="edge16" class="edge">
<title>Node9&#45;&gt;Node12</title>
<path fill="none" stroke="#191970" d="M1532.375,-503.3906C1516.2302,-493.4616 1490.8178,-477.833 1472.0977,-466.3201"/>
<polygon fill="#191970" stroke="#191970" points="1473.8669,-463.2992 1463.5153,-461.0419 1470.1998,-469.2619 1473.8669,-463.2992"/>
</g>
<!-- Node9&#45;&gt;Node17 -->
<g id="edge74" class="edge">
<title>Node9&#45;&gt;Node17</title>
<path fill="none" stroke="#191970" d="M1492.4587,-503.4872C1460.0719,-496.4427 1419.196,-484.9022 1386,-467 1248.9035,-393.0657 1251.1605,-319.8154 1114,-246 1090.4559,-233.3293 1063.1086,-221.9171 1039.7508,-213.0748"/>
<polygon fill="#191970" stroke="#191970" points="1040.9366,-209.7816 1030.3438,-209.5698 1038.4925,-216.3411 1040.9366,-209.7816"/>
</g>
<!-- Node9&#45;&gt;Node28 -->
<g id="edge73" class="edge">
<title>Node9&#45;&gt;Node28</title>
<path fill="none" stroke="#191970" d="M1549.9507,-503.2479C1553.7897,-486.7132 1563.9451,-453.2923 1586,-436 1592.231,-431.1145 1674.137,-413.6933 1739.0985,-400.4536"/>
<polygon fill="#191970" stroke="#191970" points="1739.8539,-403.8717 1748.9564,-398.4499 1738.4596,-397.012 1739.8539,-403.8717"/>
</g>
<!-- Node12&#45;&gt;Node2 -->
<g id="edge18" class="edge">
<title>Node12&#45;&gt;Node2</title>
<path fill="none" stroke="#191970" d="M1395.3698,-447.5008C1290.8952,-439.2597 1060.7848,-419.5178 984,-400 948.6446,-391.0131 943.4784,-377.4883 908,-369 718.8997,-323.7573 663.4855,-366.751 472,-333 383.0221,-317.3168 281.4215,-286.2089 227.7841,-268.7139"/>
<polygon fill="#191970" stroke="#191970" points="228.6203,-265.3046 218.0274,-265.5086 226.4355,-271.9549 228.6203,-265.3046"/>
</g>
<!-- Node12&#45;&gt;Node7 -->
<g id="edge19" class="edge">
<title>Node12&#45;&gt;Node7</title>
<path fill="none" stroke="#191970" d="M1481.6708,-441.9825C1489.3182,-439.9217 1497.4209,-437.8173 1505,-436 1581.3712,-417.6877 1603.8145,-425.7762 1678,-400 1707.1014,-389.8885 1711.6203,-380.9886 1740,-369 1781.6279,-351.4148 1888.7684,-315.1586 1932,-302 1992.6392,-283.543 2017.0071,-300.7782 2070,-266 2103.7461,-243.8531 2126,-234.8644 2126,-194.5 2126,-194.5 2126,-194.5 2126,-133 2126,-97.7513 2128.127,-84.2156 2107,-56 2095.0721,-40.0701 2075.876,-28.7094 2059.3933,-21.2637"/>
<polygon fill="#191970" stroke="#191970" points="2060.6513,-17.9957 2050.0776,-17.3272 2057.9266,-24.4436 2060.6513,-17.9957"/>
</g>
<!-- Node13 -->
<g id="node14" class="node">
<title>Node13</title>
<polygon fill="#ffffff" stroke="#bfbfbf" points="1371,-375 1371,-394 1429,-394 1429,-375 1371,-375"/>
<text text-anchor="middle" x="1400" y="-382" font-family="Helvetica,sans-Serif" font-size="10.00" fill="#000000">memory</text>
</g>
<!-- Node12&#45;&gt;Node13 -->
<g id="edge17" class="edge">
<title>Node12&#45;&gt;Node13</title>
<path fill="none" stroke="#191970" d="M1441.1228,-441.9005C1433.7802,-431.6515 1421.9759,-415.1747 1412.8938,-402.4976"/>
<polygon fill="#191970" stroke="#191970" points="1415.5336,-400.1724 1406.8645,-394.0817 1409.8432,-404.2492 1415.5336,-400.1724"/>
</g>
<!-- Node14 -->
<g id="node15" class="node">
<title>Node14</title>
<g id="a_node15"><a xlink:href="lane__data_8h.html" target="_top" xlink:title="maliput/api/lane_data.h">
<polygon fill="#ffffff" stroke="#000000" points="993,-375 993,-394 1125,-394 1125,-375 993,-375"/>
<text text-anchor="middle" x="1059" y="-382" font-family="Helvetica,sans-Serif" font-size="10.00" fill="#000000">maliput/api/lane_data.h</text>
</a>
</g>
</g>
<!-- Node12&#45;&gt;Node14 -->
<g id="edge20" class="edge">
<title>Node12&#45;&gt;Node14</title>
<path fill="none" stroke="#191970" d="M1395.1329,-442.3944C1324.7549,-430.2727 1200.3412,-408.8441 1124.2169,-395.7327"/>
<polygon fill="#191970" stroke="#191970" points="1124.7137,-392.2668 1114.2647,-394.0186 1123.5255,-399.1653 1124.7137,-392.2668"/>
</g>
<!-- Node12&#45;&gt;Node17 -->
<g id="edge71" class="edge">
<title>Node12&#45;&gt;Node17</title>
<path fill="none" stroke="#191970" d="M1448.3471,-441.9784C1448.5971,-426.2294 1447.7247,-394.0116 1438,-369 1413.6419,-306.3517 1407.4734,-280.856 1350,-246 1303.7118,-217.9275 1158.9318,-204.4455 1066.5187,-198.544"/>
<polygon fill="#191970" stroke="#191970" points="1066.5525,-195.0394 1056.3545,-197.9119 1066.1179,-202.026 1066.5525,-195.0394"/>
</g>
<!-- Node18 -->
<g id="node19" class="node">
<title>Node18</title>
<g id="a_node19"><a xlink:href="maliput__throw_8h.html" target="_top" xlink:title="Code in this file is inspired by: https://github.com/RobotLocomotion/drake/blob/master/common/drake_t...">
<polygon fill="#ffffff" stroke="#000000" points="1958,-56.5 1958,-86.5 2098,-86.5 2098,-56.5 1958,-56.5"/>
<text text-anchor="start" x="1966" y="-74.5" font-family="Helvetica,sans-Serif" font-size="10.00" fill="#000000">maliput/common/maliput</text>
<text text-anchor="middle" x="2028" y="-63.5" font-family="Helvetica,sans-Serif" font-size="10.00" fill="#000000">_throw.h</text>
</a>
</g>
</g>
<!-- Node12&#45;&gt;Node18 -->
<g id="edge72" class="edge">
<title>Node12&#45;&gt;Node18</title>
<path fill="none" stroke="#191970" d="M1482.3829,-441.9708C1525.98,-429.8053 1598.6465,-409.2297 1625,-400 1732.9643,-362.1882 1753.4451,-334.9205 1863,-302 1942.8032,-278.0197 1984.712,-321.3517 2047,-266 2094.735,-223.5807 2081.1235,-183.6058 2061,-123 2057.7217,-113.1267 2052.1196,-103.2679 2046.4524,-94.8586"/>
<polygon fill="#191970" stroke="#191970" points="2049.2747,-92.788 2040.6178,-86.68 2043.5762,-96.8534 2049.2747,-92.788"/>
</g>
<!-- Node12&#45;&gt;Node28 -->
<g id="edge52" class="edge">
<title>Node12&#45;&gt;Node28</title>
<path fill="none" stroke="#191970" d="M1487.2332,-441.973C1496.3256,-439.8905 1505.9807,-437.7793 1515,-436 1612.2048,-416.8242 1637.3894,-416.9903 1735,-400 1736.2738,-399.7783 1737.5583,-399.5537 1738.8512,-399.3267"/>
<polygon fill="#191970" stroke="#191970" points="1739.6573,-402.7384 1748.8927,-397.5463 1738.4352,-395.8459 1739.6573,-402.7384"/>
</g>
<!-- Node14&#45;&gt;Node7 -->
<g id="edge23" class="edge">
<title>Node14&#45;&gt;Node7</title>
<path fill="none" stroke="#191970" d="M1078.8356,-374.9976C1180.843,-326.2396 1647.4717,-104.5537 1800,-56 1868.2173,-34.2847 1951.2974,-20.5849 1995.9379,-14.2133"/>
<polygon fill="#191970" stroke="#191970" points="1996.4856,-17.6709 2005.9056,-12.8218 1995.5177,-10.7381 1996.4856,-17.6709"/>
</g>
<!-- Node15 -->
<g id="node16" class="node">
<title>Node15</title>
<polygon fill="#ffffff" stroke="#bfbfbf" points="1204.5,-246.5 1204.5,-265.5 1269.5,-265.5 1269.5,-246.5 1204.5,-246.5"/>
<text text-anchor="middle" x="1237" y="-253.5" font-family="Helvetica,sans-Serif" font-size="10.00" fill="#000000">functional</text>
</g>
<!-- Node14&#45;&gt;Node15 -->
<g id="edge21" class="edge">
<title>Node14&#45;&gt;Node15</title>
<path fill="none" stroke="#191970" d="M1072.3789,-374.8416C1102.918,-352.7951 1177.9926,-298.5981 1215.2712,-271.6862"/>
<polygon fill="#191970" stroke="#191970" points="1217.4065,-274.4616 1223.4658,-265.7705 1213.3092,-268.7859 1217.4065,-274.4616"/>
</g>
<!-- Node16 -->
<g id="node17" class="node">
<title>Node16</title>
<polygon fill="#ffffff" stroke="#bfbfbf" points="538.5,-185 538.5,-204 595.5,-204 595.5,-185 538.5,-185"/>
<text text-anchor="middle" x="567" y="-192" font-family="Helvetica,sans-Serif" font-size="10.00" fill="#000000">ostream</text>
</g>
<!-- Node14&#45;&gt;Node16 -->
<g id="edge22" class="edge">
<title>Node14&#45;&gt;Node16</title>
<path fill="none" stroke="#191970" d="M1014.2866,-374.9925C1002.8238,-372.7877 990.4875,-370.6165 979,-369 889.0883,-356.3478 655.3204,-369.0821 572,-333 525.1529,-312.7128 473.9593,-291.556 497,-246 505.1765,-229.8334 521.0835,-217.5022 535.6699,-208.9652"/>
<polygon fill="#191970" stroke="#191970" points="537.4036,-212.0064 544.5005,-204.1397 534.0468,-205.8637 537.4036,-212.0064"/>
</g>
<!-- Node14&#45;&gt;Node17 -->
<g id="edge24" class="edge">
<title>Node14&#45;&gt;Node17</title>
<path fill="none" stroke="#191970" d="M1055.2796,-374.8167C1044.3014,-346.2433 1011.7959,-261.6401 995.5154,-219.2662"/>
<polygon fill="#191970" stroke="#191970" points="998.6941,-217.7805 991.8404,-209.7011 992.1598,-220.2911 998.6941,-217.7805"/>
</g>
<!-- Node14&#45;&gt;Node18 -->
<g id="edge25" class="edge">
<title>Node14&#45;&gt;Node18</title>
<path fill="none" stroke="#191970" d="M1125.0331,-381.8176C1260.7936,-375.8289 1566.9672,-359.7535 1668,-333 1699.7176,-324.6012 1703.8021,-312.1604 1735,-302 1812.9885,-276.601 1849.3569,-313.8123 1916,-266 1975.5413,-223.2828 2008.0447,-138.3625 2021.103,-96.2984"/>
<polygon fill="#191970" stroke="#191970" points="2024.4976,-97.1629 2024.0086,-86.5793 2017.7909,-95.1578 2024.4976,-97.1629"/>
</g>
<!-- Node19 -->
<g id="node20" class="node">
<title>Node19</title>
<g id="a_node20"><a xlink:href="matrix_8h.html" target="_top" xlink:title="maliput/math/matrix.h">
<polygon fill="#ffffff" stroke="#000000" points="354.5,-185 354.5,-204 481.5,-204 481.5,-185 354.5,-185"/>
<text text-anchor="middle" x="418" y="-192" font-family="Helvetica,sans-Serif" font-size="10.00" fill="#000000">maliput/math/matrix.h</text>
</a>
</g>
</g>
<!-- Node14&#45;&gt;Node19 -->
<g id="edge27" class="edge">
<title>Node14&#45;&gt;Node19</title>
<path fill="none" stroke="#191970" d="M1014.7185,-374.9793C1003.1376,-372.7482 990.637,-370.5677 979,-369 875.1874,-355.0145 599.2218,-386.2228 509,-333 462.8928,-305.8009 435.7371,-244.9765 424.3408,-213.7728"/>
<polygon fill="#191970" stroke="#191970" points="427.5571,-212.3663 420.9617,-204.0746 420.9469,-214.6694 427.5571,-212.3663"/>
</g>
<!-- Node25 -->
<g id="node26" class="node">
<title>Node25</title>
<g id="a_node26"><a xlink:href="vector_8h.html" target="_top" xlink:title="maliput/math/vector.h">
<polygon fill="#ffffff" stroke="#000000" points="560.5,-123.5 560.5,-142.5 685.5,-142.5 685.5,-123.5 560.5,-123.5"/>
<text text-anchor="middle" x="623" y="-130.5" font-family="Helvetica,sans-Serif" font-size="10.00" fill="#000000">maliput/math/vector.h</text>
</a>
</g>
</g>
<!-- Node14&#45;&gt;Node25 -->
<g id="edge51" class="edge">
<title>Node14&#45;&gt;Node25</title>
<path fill="none" stroke="#191970" d="M1063.3659,-374.7614C1077.2247,-342.2052 1116.3771,-236.0015 1065,-179 1040.7832,-152.1321 814.853,-139.9433 695.7375,-135.3455"/>
<polygon fill="#191970" stroke="#191970" points="695.7272,-131.8427 685.6022,-134.9626 695.4629,-138.8377 695.7272,-131.8427"/>
</g>
<!-- Node26 -->
<g id="node27" class="node">
<title>Node26</title>
<g id="a_node27"><a xlink:href="quaternion_8h.html" target="_top" xlink:title="Code in this file is inspired by: https://gitlab.com/libeigen/eigen/&#45;/blob/master/Eigen/src/Geometry/...">
<polygon fill="#ffffff" stroke="#000000" points="506.5,-246.5 506.5,-265.5 653.5,-265.5 653.5,-246.5 506.5,-246.5"/>
<text text-anchor="middle" x="580" y="-253.5" font-family="Helvetica,sans-Serif" font-size="10.00" fill="#000000">maliput/math/quaternion.h</text>
</a>
</g>
</g>
<!-- Node14&#45;&gt;Node26 -->
<g id="edge40" class="edge">
<title>Node14&#45;&gt;Node26</title>
<path fill="none" stroke="#191970" d="M1013.8625,-374.9422C1002.5189,-372.7645 990.3443,-370.6185 979,-369 935.9187,-362.8536 620.1433,-363.3953 589,-333 574.1457,-318.5025 573.9222,-293.5283 576.0926,-275.9613"/>
<polygon fill="#191970" stroke="#191970" points="579.6149,-276.0982 577.7347,-265.6715 572.7024,-274.9949 579.6149,-276.0982"/>
</g>
<!-- Node27 -->
<g id="node28" class="node">
<title>Node27</title>
<g id="a_node28"><a xlink:href="roll__pitch__yaw_8h.html" target="_top" xlink:title="Code in this file is inspired by: https://github.com/RobotLocomotion/drake/blob/master/math/roll_pitc...">
<polygon fill="#ffffff" stroke="#000000" points="598.5,-302.5 598.5,-332.5 729.5,-332.5 729.5,-302.5 598.5,-302.5"/>
<text text-anchor="start" x="606.5" y="-320.5" font-family="Helvetica,sans-Serif" font-size="10.00" fill="#000000">maliput/math/roll_pitch</text>
<text text-anchor="middle" x="664" y="-309.5" font-family="Helvetica,sans-Serif" font-size="10.00" fill="#000000">_yaw.h</text>
</a>
</g>
</g>
<!-- Node14&#45;&gt;Node27 -->
<g id="edge46" class="edge">
<title>Node14&#45;&gt;Node27</title>
<path fill="none" stroke="#191970" d="M1010.8159,-374.9273C1000.3382,-372.912 989.3059,-370.8404 979,-369 897.3164,-354.4128 803.4184,-339.2706 739.5412,-329.2133"/>
<polygon fill="#191970" stroke="#191970" points="739.9757,-325.7387 729.5536,-327.6437 738.8889,-332.6538 739.9757,-325.7387"/>
</g>
<!-- Node18&#45;&gt;Node7 -->
<g id="edge26" class="edge">
<title>Node18&#45;&gt;Node7</title>
<path fill="none" stroke="#191970" d="M2028,-56.2977C2028,-48.3834 2028,-38.6043 2028,-30.0759"/>
<polygon fill="#191970" stroke="#191970" points="2031.5001,-29.8469 2028,-19.8469 2024.5001,-29.847 2031.5001,-29.8469"/>
</g>
<!-- Node20 -->
<g id="node21" class="node">
<title>Node20</title>
<polygon fill="#ffffff" stroke="#bfbfbf" points="291,-62 291,-81 355,-81 355,-62 291,-62"/>
<text text-anchor="middle" x="323" y="-69" font-family="Helvetica,sans-Serif" font-size="10.00" fill="#000000">algorithm</text>
</g>
<!-- Node19&#45;&gt;Node20 -->
<g id="edge28" class="edge">
<title>Node19&#45;&gt;Node20</title>
<path fill="none" stroke="#191970" d="M410.5455,-184.8484C394.5903,-164.1906 356.9345,-115.4362 336.5967,-89.1042"/>
<polygon fill="#191970" stroke="#191970" points="339.3025,-86.8816 330.4199,-81.1068 333.7625,-91.1605 339.3025,-86.8816"/>
</g>
<!-- Node21 -->
<g id="node22" class="node">
<title>Node21</title>
<polygon fill="#ffffff" stroke="#bfbfbf" points="402,-62 402,-81 444,-81 444,-62 402,-62"/>
<text text-anchor="middle" x="423" y="-69" font-family="Helvetica,sans-Serif" font-size="10.00" fill="#000000">array</text>
</g>
<!-- Node19&#45;&gt;Node21 -->
<g id="edge29" class="edge">
<title>Node19&#45;&gt;Node21</title>
<path fill="none" stroke="#191970" d="M418.3923,-184.8484C419.2102,-164.7295 421.1113,-117.9608 422.1988,-91.2098"/>
<polygon fill="#191970" stroke="#191970" points="425.7003,-91.2407 422.6095,-81.1068 418.7061,-90.9563 425.7003,-91.2407"/>
</g>
<!-- Node22 -->
<g id="node23" class="node">
<title>Node22</title>
<polygon fill="#ffffff" stroke="#bfbfbf" points="577.5,-62 577.5,-81 630.5,-81 630.5,-62 577.5,-62"/>
<text text-anchor="middle" x="604" y="-69" font-family="Helvetica,sans-Serif" font-size="10.00" fill="#000000">cstddef</text>
</g>
<!-- Node19&#45;&gt;Node22 -->
<g id="edge30" class="edge">
<title>Node19&#45;&gt;Node22</title>
<path fill="none" stroke="#191970" d="M430.7119,-184.9044C449.4839,-170.8515 485.8693,-144.0576 518,-123 537.7728,-110.0414 560.7769,-96.3342 578.0154,-86.3218"/>
<polygon fill="#191970" stroke="#191970" points="580.032,-89.199 586.942,-81.1676 576.5318,-83.1369 580.032,-89.199"/>
</g>
<!-- Node23 -->
<g id="node24" class="node">
<title>Node23</title>
<polygon fill="#ffffff" stroke="#bfbfbf" points="471.5,-62 471.5,-81 554.5,-81 554.5,-62 471.5,-62"/>
<text text-anchor="middle" x="513" y="-69" font-family="Helvetica,sans-Serif" font-size="10.00" fill="#000000">initializer_list</text>
</g>
<!-- Node19&#45;&gt;Node23 -->
<g id="edge31" class="edge">
<title>Node19&#45;&gt;Node23</title>
<path fill="none" stroke="#191970" d="M425.4545,-184.8484C441.4097,-164.1906 479.0655,-115.4362 499.4033,-89.1042"/>
<polygon fill="#191970" stroke="#191970" points="502.2375,-91.1605 505.5801,-81.1068 496.6975,-86.8816 502.2375,-91.1605"/>
</g>
<!-- Node24 -->
<g id="node25" class="node">
<title>Node24</title>
<polygon fill="#ffffff" stroke="#bfbfbf" points="649,-62 649,-81 709,-81 709,-62 649,-62"/>
<text text-anchor="middle" x="679" y="-69" font-family="Helvetica,sans-Serif" font-size="10.00" fill="#000000">iostream</text>
</g>
<!-- Node19&#45;&gt;Node24 -->
<g id="edge32" class="edge">
<title>Node19&#45;&gt;Node24</title>
<path fill="none" stroke="#191970" d="M437.7578,-184.8308C458.085,-174.7653 490.564,-158.3545 518,-143 532.9658,-134.6245 535.6609,-130.6704 551,-123 559.8368,-118.5811 610.4495,-98.4669 645.3197,-84.7236"/>
<polygon fill="#191970" stroke="#191970" points="646.667,-87.9548 654.6896,-81.0346 644.1026,-81.4414 646.667,-87.9548"/>
</g>
<!-- Node19&#45;&gt;Node25 -->
<g id="edge33" class="edge">
<title>Node19&#45;&gt;Node25</title>
<path fill="none" stroke="#191970" d="M450.0313,-184.8906C485.3846,-174.2846 542.4157,-157.1753 581.2478,-145.5257"/>
<polygon fill="#191970" stroke="#191970" points="582.6212,-148.7678 591.1937,-142.5419 580.6097,-142.0631 582.6212,-148.7678"/>
</g>
<!-- Node25&#45;&gt;Node18 -->
<g id="edge39" class="edge">
<title>Node25&#45;&gt;Node18</title>
<path fill="none" stroke="#191970" d="M685.6409,-130.2581C912.8071,-120.3145 1693.2791,-86.1515 1947.3576,-75.0299"/>
<polygon fill="#191970" stroke="#191970" points="1947.7796,-78.5149 1957.6169,-74.5808 1947.4734,-71.5216 1947.7796,-78.5149"/>
</g>
<!-- Node25&#45;&gt;Node20 -->
<g id="edge34" class="edge">
<title>Node25&#45;&gt;Node20</title>
<path fill="none" stroke="#191970" d="M573.5874,-123.4217C526.9707,-114.3133 455.1606,-100.0967 393,-87 383.8766,-85.0778 374.0991,-82.9534 364.8315,-80.9097"/>
<polygon fill="#191970" stroke="#191970" points="365.5507,-77.4843 355.0302,-78.7372 364.0358,-84.3184 365.5507,-77.4843"/>
</g>
<!-- Node25&#45;&gt;Node21 -->
<g id="edge35" class="edge">
<title>Node25&#45;&gt;Node21</title>
<path fill="none" stroke="#191970" d="M585.5843,-123.4469C552.7427,-114.7925 503.8264,-101.247 462,-87 459.2844,-86.075 456.4815,-85.0678 453.6824,-84.0257"/>
<polygon fill="#191970" stroke="#191970" points="454.9027,-80.7451 444.313,-80.4163 452.3863,-87.2772 454.9027,-80.7451"/>
</g>
<!-- Node25&#45;&gt;Node22 -->
<g id="edge36" class="edge">
<title>Node25&#45;&gt;Node22</title>
<path fill="none" stroke="#191970" d="M620.0313,-123.3906C617.3698,-114.776 613.3829,-101.8708 610.0509,-91.0858"/>
<polygon fill="#191970" stroke="#191970" points="613.3065,-89.7661 607.0106,-81.2449 606.6184,-91.8324 613.3065,-89.7661"/>
</g>
<!-- Node25&#45;&gt;Node23 -->
<g id="edge37" class="edge">
<title>Node25&#45;&gt;Node23</title>
<path fill="none" stroke="#191970" d="M605.8125,-123.3906C587.8918,-113.3713 559.5905,-97.5483 538.9477,-86.0071"/>
<polygon fill="#191970" stroke="#191970" points="540.5033,-82.867 530.0668,-81.0419 537.0872,-88.9769 540.5033,-82.867"/>
</g>
<!-- Node25&#45;&gt;Node24 -->
<g id="edge38" class="edge">
<title>Node25&#45;&gt;Node24</title>
<path fill="none" stroke="#191970" d="M631.75,-123.3906C640.1662,-114.1478 653.0797,-99.966 663.281,-88.7628"/>
<polygon fill="#191970" stroke="#191970" points="665.9818,-90.9953 670.1266,-81.2449 660.806,-86.2824 665.9818,-90.9953"/>
</g>
<!-- Node26&#45;&gt;Node10 -->
<g id="edge41" class="edge">
<title>Node26&#45;&gt;Node10</title>
<path fill="none" stroke="#191970" d="M653.7147,-252.3143C888.2722,-240.5864 1611.5812,-204.4209 1776.3537,-196.1823"/>
<polygon fill="#191970" stroke="#191970" points="1776.5754,-199.6757 1786.3881,-195.6806 1776.2258,-192.6844 1776.5754,-199.6757"/>
</g>
<!-- Node26&#45;&gt;Node16 -->
<g id="edge42" class="edge">
<title>Node26&#45;&gt;Node16</title>
<path fill="none" stroke="#191970" d="M577.9688,-246.3906C576.1478,-237.776 573.4198,-224.8708 571.1401,-214.0858"/>
<polygon fill="#191970" stroke="#191970" points="574.5524,-213.3048 569.0599,-204.2449 567.7038,-214.7525 574.5524,-213.3048"/>
</g>
<!-- Node26&#45;&gt;Node17 -->
<g id="edge43" class="edge">
<title>Node26&#45;&gt;Node17</title>
<path fill="none" stroke="#191970" d="M642.992,-246.4581C713.6545,-235.7543 828.4457,-218.366 905.5465,-206.6869"/>
<polygon fill="#191970" stroke="#191970" points="906.3332,-210.1078 915.6962,-205.1495 905.2848,-203.1867 906.3332,-210.1078"/>
</g>
<!-- Node26&#45;&gt;Node19 -->
<g id="edge44" class="edge">
<title>Node26&#45;&gt;Node19</title>
<path fill="none" stroke="#191970" d="M554.6875,-246.3906C527.2253,-235.9652 483.2105,-219.2559 452.5737,-207.6252"/>
<polygon fill="#191970" stroke="#191970" points="453.726,-204.319 443.1348,-204.0419 451.2415,-210.8633 453.726,-204.319"/>
</g>
<!-- Node26&#45;&gt;Node25 -->
<g id="edge45" class="edge">
<title>Node26&#45;&gt;Node25</title>
<path fill="none" stroke="#191970" d="M585.8508,-246.4435C591.2061,-237.3505 599.0314,-223.1443 604,-210 611.1302,-191.1375 616.3205,-168.6564 619.457,-152.8702"/>
<polygon fill="#191970" stroke="#191970" points="622.9599,-153.182 621.3762,-142.7062 616.0815,-151.8831 622.9599,-153.182"/>
</g>
<!-- Node27&#45;&gt;Node17 -->
<g id="edge47" class="edge">
<title>Node27&#45;&gt;Node17</title>
<path fill="none" stroke="#191970" d="M676.486,-302.3898C690.9731,-285.9009 716.4243,-259.9908 744,-246 794.336,-220.4616 856.7576,-207.5719 905.5958,-201.0745"/>
<polygon fill="#191970" stroke="#191970" points="906.3206,-204.5108 915.8019,-199.7828 905.4416,-197.5662 906.3206,-204.5108"/>
</g>
<!-- Node27&#45;&gt;Node19 -->
<g id="edge48" class="edge">
<title>Node27&#45;&gt;Node19</title>
<path fill="none" stroke="#191970" d="M598.265,-304.2784C566.3498,-296.1369 528.2479,-283.7823 497,-266 471.8085,-251.6642 447.8596,-228.092 433.0694,-211.9603"/>
<polygon fill="#191970" stroke="#191970" points="435.4866,-209.4126 426.2119,-204.291 430.2684,-214.0785 435.4866,-209.4126"/>
</g>
<!-- Node27&#45;&gt;Node25 -->
<g id="edge50" class="edge">
<title>Node27&#45;&gt;Node25</title>
<path fill="none" stroke="#191970" d="M664.9013,-302.2971C665.4541,-287.7273 665.4933,-265.1808 662,-246 655.7723,-211.805 641.0016,-173.9889 631.531,-151.9244"/>
<polygon fill="#191970" stroke="#191970" points="634.7082,-150.4545 627.4852,-142.7035 628.2981,-153.2671 634.7082,-150.4545"/>
</g>
<!-- Node27&#45;&gt;Node26 -->
<g id="edge49" class="edge">
<title>Node27&#45;&gt;Node26</title>
<path fill="none" stroke="#191970" d="M643.2359,-302.2977C630.6042,-293.0495 614.4947,-281.2551 601.6969,-271.8853"/>
<polygon fill="#191970" stroke="#191970" points="603.5857,-268.9303 593.4495,-265.8469 599.4505,-274.5784 603.5857,-268.9303"/>
</g>
<!-- Node28&#45;&gt;Node7 -->
<g id="edge54" class="edge">
<title>Node28&#45;&gt;Node7</title>
<path fill="none" stroke="#191970" d="M1876.7366,-369.4792C1910.2321,-360.1806 1952.9821,-347.3056 1990,-333 2019.8544,-321.4627 2025.2382,-313.7741 2055,-302 2104.0132,-282.6098 2136.896,-308.5536 2168,-266 2223.5639,-189.9827 2200.2767,-128.3374 2140,-56 2120.0124,-32.0131 2085.5143,-20.3755 2060.0729,-14.8318"/>
<polygon fill="#191970" stroke="#191970" points="2060.6228,-11.3729 2050.1345,-12.8711 2059.2679,-18.2405 2060.6228,-11.3729"/>
</g>
<!-- Node28&#45;&gt;Node15 -->
<g id="edge53" class="edge">
<title>Node28&#45;&gt;Node15</title>
<path fill="none" stroke="#191970" d="M1748.9716,-377.497C1678.8093,-369.6755 1568.0232,-355.1299 1474,-333 1400.4372,-315.6858 1316.9173,-286.1487 1271.2802,-269.131"/>
<polygon fill="#191970" stroke="#191970" points="1272.4572,-265.8344 1261.865,-265.5969 1269.9973,-272.388 1272.4572,-265.8344"/>
</g>
<!-- Node28&#45;&gt;Node17 -->
<g id="edge56" class="edge">
<title>Node28&#45;&gt;Node17</title>
<path fill="none" stroke="#191970" d="M1748.7378,-377.5588C1670.8798,-369.0364 1550.9025,-353.1945 1510,-333 1484.6243,-320.4715 1442.6584,-257.9388 1417,-246 1356.5194,-217.8586 1173.5633,-204.01 1066.4548,-198.1443"/>
<polygon fill="#191970" stroke="#191970" points="1066.506,-194.6421 1056.3328,-197.6014 1066.131,-201.6321 1066.506,-194.6421"/>
</g>
<!-- Node28&#45;&gt;Node18 -->
<g id="edge70" class="edge">
<title>Node28&#45;&gt;Node18</title>
<path fill="none" stroke="#191970" d="M1851.4815,-369.4331C1889.987,-351.8997 1956.3399,-322.7113 2015,-302 2069.5155,-282.7521 2105.2336,-312.1922 2140,-266 2165.3686,-232.2941 2212.0025,-273.4857 2102,-123 2092.919,-110.5771 2079.8992,-100.1005 2067.3051,-91.9074"/>
<polygon fill="#191970" stroke="#191970" points="2069.0564,-88.8754 2058.7078,-86.6043 2065.3814,-94.8332 2069.0564,-88.8754"/>
</g>
<!-- Node29 -->
<g id="node30" class="node">
<title>Node29</title>
<polygon fill="#ffffff" stroke="#bfbfbf" points="1862.5,-246.5 1862.5,-265.5 1907.5,-265.5 1907.5,-246.5 1862.5,-246.5"/>
<text text-anchor="middle" x="1885" y="-253.5" font-family="Helvetica,sans-Serif" font-size="10.00" fill="#000000">utility</text>
</g>
<!-- Node28&#45;&gt;Node29 -->
<g id="edge55" class="edge">
<title>Node28&#45;&gt;Node29</title>
<path fill="none" stroke="#191970" d="M1826.8302,-369.2548C1838.9483,-345.6612 1862.2149,-300.3619 1875.3528,-274.7828"/>
<polygon fill="#191970" stroke="#191970" points="1878.544,-276.2302 1879.9995,-265.7358 1872.3173,-273.032 1878.544,-276.2302"/>
</g>
<!-- Node30 -->
<g id="node31" class="node">
<title>Node30</title>
<g id="a_node31"><a xlink:href="maliput__hash_8h.html" target="_top" xlink:title="Code in this file is inspired by: https://github.com/RobotLocomotion/drake/blob/master/common/hash.h. ">
<polygon fill="#ffffff" stroke="#000000" points="1519,-302.5 1519,-332.5 1659,-332.5 1659,-302.5 1519,-302.5"/>
<text text-anchor="start" x="1527" y="-320.5" font-family="Helvetica,sans-Serif" font-size="10.00" fill="#000000">maliput/common/maliput</text>
<text text-anchor="middle" x="1589" y="-309.5" font-family="Helvetica,sans-Serif" font-size="10.00" fill="#000000">_hash.h</text>
</a>
</g>
</g>
<!-- Node28&#45;&gt;Node30 -->
<g id="edge57" class="edge">
<title>Node28&#45;&gt;Node30</title>
<path fill="none" stroke="#191970" d="M1767.3835,-369.4639C1732.8807,-359.4131 1687.3079,-346.1375 1650.8623,-335.5208"/>
<polygon fill="#191970" stroke="#191970" points="1651.4215,-332.0382 1640.8416,-332.6017 1649.4637,-338.7589 1651.4215,-332.0382"/>
</g>
<!-- Node30&#45;&gt;Node2 -->
<g id="edge63" class="edge">
<title>Node30&#45;&gt;Node2</title>
<path fill="none" stroke="#191970" d="M1518.6646,-314.4081C1267.4255,-303.3636 419.1243,-266.0723 228.3228,-257.6847"/>
<polygon fill="#191970" stroke="#191970" points="228.3588,-254.183 218.2147,-257.2403 228.0513,-261.1762 228.3588,-254.183"/>
</g>
<!-- Node30&#45;&gt;Node7 -->
<g id="edge65" class="edge">
<title>Node30&#45;&gt;Node7</title>
<path fill="none" stroke="#191970" d="M1644.3369,-302.4321C1693.6245,-285.2509 1758,-251.8358 1758,-194.5 1758,-194.5 1758,-194.5 1758,-133 1758,-81.2044 1924.6282,-34.8799 1996.0839,-17.3958"/>
<polygon fill="#191970" stroke="#191970" points="1997.0036,-20.7744 2005.9048,-15.0282 1995.363,-13.9693 1997.0036,-20.7744"/>
</g>
<!-- Node30&#45;&gt;Node8 -->
<g id="edge68" class="edge">
<title>Node30&#45;&gt;Node8</title>
<path fill="none" stroke="#191970" d="M1659.3004,-311.35C1808.0491,-298.3371 2149.8713,-268.4337 2258.3306,-258.9455"/>
<polygon fill="#191970" stroke="#191970" points="2258.7166,-262.4252 2268.3735,-258.0669 2258.1065,-255.4518 2258.7166,-262.4252"/>
</g>
<!-- Node30&#45;&gt;Node10 -->
<g id="edge58" class="edge">
<title>Node30&#45;&gt;Node10</title>
<path fill="none" stroke="#191970" d="M1659.4541,-303.6574C1703.2243,-293.938 1754.3963,-280.1862 1772,-266 1788.521,-252.6863 1798.7703,-230.2167 1804.4003,-214.0161"/>
<polygon fill="#191970" stroke="#191970" points="1807.7522,-215.025 1807.4525,-204.4344 1801.0824,-212.9004 1807.7522,-215.025"/>
</g>
<!-- Node30&#45;&gt;Node15 -->
<g id="edge60" class="edge">
<title>Node30&#45;&gt;Node15</title>
<path fill="none" stroke="#191970" d="M1518.6136,-305.2024C1447.2602,-292.7358 1339.1556,-273.8482 1279.7842,-263.4751"/>
<polygon fill="#191970" stroke="#191970" points="1280.0887,-259.9753 1269.6355,-261.7019 1278.8839,-266.8709 1280.0887,-259.9753"/>
</g>
<!-- Node30&#45;&gt;Node18 -->
<g id="edge69" class="edge">
<title>Node30&#45;&gt;Node18</title>
<path fill="none" stroke="#191970" d="M1659.2015,-303.4593C1709.1169,-292.8189 1771.3389,-278.0274 1795,-266 1884.6151,-220.447 1970.0647,-134.768 2007.7868,-94.0693"/>
<polygon fill="#191970" stroke="#191970" points="2010.5001,-96.2891 2014.682,-86.5545 2005.3423,-91.5566 2010.5001,-96.2891"/>
</g>
<!-- Node30&#45;&gt;Node22 -->
<g id="edge59" class="edge">
<title>Node30&#45;&gt;Node22</title>
<path fill="none" stroke="#191970" d="M1563.4972,-302.4633C1535.0212,-286.2878 1487.1245,-260.8891 1443,-246 1098.2785,-129.6792 987.4583,-194.871 640,-87 637.8879,-86.3443 635.7319,-85.6053 633.5771,-84.8146"/>
<polygon fill="#191970" stroke="#191970" points="634.864,-81.5598 624.2784,-81.1163 632.277,-88.0643 634.864,-81.5598"/>
</g>
<!-- Node30&#45;&gt;Node24 -->
<g id="edge61" class="edge">
<title>Node30&#45;&gt;Node24</title>
<path fill="none" stroke="#191970" d="M1651.1406,-302.4251C1684.0463,-291.0403 1714.8713,-272.7454 1700,-246 1649.6556,-155.4578 1600.6852,-154.5227 1502,-123 1427.0964,-99.0738 874.5986,-78.284 719.4277,-72.8694"/>
<polygon fill="#191970" stroke="#191970" points="719.4868,-69.3695 709.3715,-72.5207 719.2442,-76.3653 719.4868,-69.3695"/>
</g>
<!-- Node30&#45;&gt;Node29 -->
<g id="edge67" class="edge">
<title>Node30&#45;&gt;Node29</title>
<path fill="none" stroke="#191970" d="M1659.217,-304.093C1723.2001,-291.7747 1812.9041,-274.222 1848,-266 1849.4577,-265.6585 1850.945,-265.2998 1852.4454,-264.9295"/>
<polygon fill="#191970" stroke="#191970" points="1853.5505,-268.2593 1862.3633,-262.3783 1851.8066,-261.48 1853.5505,-268.2593"/>
</g>
<!-- Node31 -->
<g id="node32" class="node">
<title>Node31</title>
<polygon fill="#ffffff" stroke="#bfbfbf" points="1516,-246.5 1516,-265.5 1554,-265.5 1554,-246.5 1516,-246.5"/>
<text text-anchor="middle" x="1535" y="-253.5" font-family="Helvetica,sans-Serif" font-size="10.00" fill="#000000">map</text>
</g>
<!-- Node30&#45;&gt;Node31 -->
<g id="edge62" class="edge">
<title>Node30&#45;&gt;Node31</title>
<path fill="none" stroke="#191970" d="M1575.6517,-302.2977C1567.9998,-293.5831 1558.3627,-282.6075 1550.3924,-273.5302"/>
<polygon fill="#191970" stroke="#191970" points="1552.8742,-271.052 1543.6461,-265.8469 1547.6141,-275.6707 1552.8742,-271.052"/>
</g>
<!-- Node32 -->
<g id="node33" class="node">
<title>Node32</title>
<polygon fill="#ffffff" stroke="#bfbfbf" points="1572,-246.5 1572,-265.5 1604,-265.5 1604,-246.5 1572,-246.5"/>
<text text-anchor="middle" x="1588" y="-253.5" font-family="Helvetica,sans-Serif" font-size="10.00" fill="#000000">set</text>
</g>
<!-- Node30&#45;&gt;Node32 -->
<g id="edge64" class="edge">
<title>Node30&#45;&gt;Node32</title>
<path fill="none" stroke="#191970" d="M1588.7528,-302.2977C1588.6241,-294.3834 1588.4651,-284.6043 1588.3264,-276.0759"/>
<polygon fill="#191970" stroke="#191970" points="1591.8223,-275.7887 1588.1601,-265.8469 1584.8233,-275.9025 1591.8223,-275.7887"/>
</g>
<!-- Node33 -->
<g id="node34" class="node">
<title>Node33</title>
<polygon fill="#ffffff" stroke="#bfbfbf" points="1622.5,-246.5 1622.5,-265.5 1691.5,-265.5 1691.5,-246.5 1622.5,-246.5"/>
<text text-anchor="middle" x="1657" y="-253.5" font-family="Helvetica,sans-Serif" font-size="10.00" fill="#000000">type_traits</text>
</g>
<!-- Node30&#45;&gt;Node33 -->
<g id="edge66" class="edge">
<title>Node30&#45;&gt;Node33</title>
<path fill="none" stroke="#191970" d="M1605.809,-302.2977C1615.7397,-293.3163 1628.3257,-281.9334 1638.5327,-272.702"/>
<polygon fill="#191970" stroke="#191970" points="1641.0434,-275.1505 1646.1123,-265.8469 1636.348,-269.9588 1641.0434,-275.1505"/>
</g>
<!-- Node34&#45;&gt;Node7 -->
<g id="edge77" class="edge">
<title>Node34&#45;&gt;Node7</title>
<path fill="none" stroke="#191970" d="M1584.5806,-564.9296C1705.8805,-545.8736 1968.4928,-502.0072 2053,-467 2102.7666,-446.3841 2109.1135,-429.7813 2154,-400 2250.4495,-336.0076 2371,-371.7477 2371,-256 2371,-256 2371,-256 2371,-133 2371,-67.3371 2145.4548,-27.2862 2060.1557,-14.4873"/>
<polygon fill="#191970" stroke="#191970" points="2060.644,-11.0215 2050.2409,-13.0281 2059.6247,-17.9469 2060.644,-11.0215"/>
</g>
<!-- Node34&#45;&gt;Node8 -->
<g id="edge78" class="edge">
<title>Node34&#45;&gt;Node8</title>
<path fill="none" stroke="#191970" d="M1587.1136,-569.5757C1723.4454,-558.194 2033.3878,-526.3877 2119,-467 2194.3739,-414.7144 2181.7767,-370.3134 2243,-302 2252.2755,-291.6503 2263.5271,-280.9735 2272.9081,-272.5144"/>
<polygon fill="#191970" stroke="#191970" points="2275.4148,-274.9695 2280.5737,-265.7156 2270.7699,-269.7326 2275.4148,-274.9695"/>
</g>
<!-- Node34&#45;&gt;Node9 -->
<g id="edge79" class="edge">
<title>Node34&#45;&gt;Node9</title>
<path fill="none" stroke="#191970" d="M1526.0625,-564.8906C1529.7424,-556.1862 1535.2742,-543.1015 1539.862,-532.2494"/>
<polygon fill="#191970" stroke="#191970" points="1543.21,-533.3185 1543.8802,-522.7449 1536.7625,-530.5927 1543.21,-533.3185"/>
</g>
<!-- Node34&#45;&gt;Node17 -->
<g id="edge86" class="edge">
<title>Node34&#45;&gt;Node17</title>
<path fill="none" stroke="#191970" d="M1502.9372,-564.8632C1468.2059,-547.0446 1392.6969,-507.0943 1333,-467 1206.3309,-381.925 1066.686,-264.252 1010.9571,-216.2251"/>
<polygon fill="#191970" stroke="#191970" points="1013.2102,-213.5464 1003.3552,-209.6567 1008.6336,-218.8431 1013.2102,-213.5464"/>
</g>
<!-- Node34&#45;&gt;Node20 -->
<g id="edge76" class="edge">
<title>Node34&#45;&gt;Node20</title>
<path fill="none" stroke="#191970" d="M1456.712,-570.6838C1291.3007,-559.48 843.9645,-519.5683 493,-400 432.9636,-379.5465 404.3425,-384.2665 367,-333 312.1609,-257.7129 316.5195,-138.0968 320.7588,-91.2418"/>
<polygon fill="#191970" stroke="#191970" points="324.2501,-91.5024 321.7717,-81.2015 317.2855,-90.7997 324.2501,-91.5024"/>
</g>
<!-- Node34&#45;&gt;Node28 -->
<g id="edge80" class="edge">
<title>Node34&#45;&gt;Node28</title>
<path fill="none" stroke="#191970" d="M1550.4035,-564.8404C1575.5926,-555.7155 1612.9424,-540.7958 1643,-523 1701.6033,-488.3035 1762.4052,-436.2493 1794.9628,-406.8324"/>
<polygon fill="#191970" stroke="#191970" points="1797.576,-409.1865 1802.6131,-399.8656 1792.8628,-404.0109 1797.576,-409.1865"/>
</g>
<!-- Node35 -->
<g id="node36" class="node">
<title>Node35</title>
<g id="a_node36"><a xlink:href="unique__id_8h.html" target="_top" xlink:title="maliput/api/unique_id.h">
<polygon fill="#ffffff" stroke="#000000" points="1485.5,-375 1485.5,-394 1616.5,-394 1616.5,-375 1485.5,-375"/>
<text text-anchor="middle" x="1551" y="-382" font-family="Helvetica,sans-Serif" font-size="10.00" fill="#000000">maliput/api/unique_id.h</text>
</a>
</g>
</g>
<!-- Node34&#45;&gt;Node35 -->
<g id="edge81" class="edge">
<title>Node34&#45;&gt;Node35</title>
<path fill="none" stroke="#191970" d="M1547.7849,-564.8978C1582.6887,-550.1635 1642.6151,-518.1863 1660,-467 1664.4309,-453.9541 1667.3734,-447.6387 1660,-436 1648.0583,-417.1503 1627.1578,-405.0687 1606.8319,-397.3873"/>
<polygon fill="#191970" stroke="#191970" points="1607.8507,-394.0361 1597.2558,-394.0594 1605.5528,-400.6482 1607.8507,-394.0361"/>
</g>
<!-- Node35&#45;&gt;Node7 -->
<g id="edge82" class="edge">
<title>Node35&#45;&gt;Node7</title>
<path fill="none" stroke="#191970" d="M1572.643,-374.967C1621.6153,-353.401 1736.8606,-302.6785 1739,-302 1815.5217,-277.7333 1860.5206,-324.0214 1916,-266 1981.2939,-197.7144 1895.6776,-133.9932 1949,-56 1960.3065,-39.4622 1979.6697,-28.0496 1996.3956,-20.7286"/>
<polygon fill="#191970" stroke="#191970" points="1997.9116,-23.8906 2005.858,-16.8831 1995.2761,-17.4056 1997.9116,-23.8906"/>
</g>
<!-- Node35&#45;&gt;Node17 -->
<g id="edge83" class="edge">
<title>Node35&#45;&gt;Node17</title>
<path fill="none" stroke="#191970" d="M1534.7048,-374.9351C1518.6444,-365.2065 1493.7161,-349.2837 1474,-333 1432.0794,-298.3775 1436.7349,-270.103 1388,-246 1333.1217,-218.8586 1167.0896,-204.8194 1066.383,-198.6112"/>
<polygon fill="#191970" stroke="#191970" points="1066.4383,-195.1083 1056.2455,-197.9991 1066.0163,-202.0955 1066.4383,-195.1083"/>
</g>
<!-- Node35&#45;&gt;Node18 -->
<g id="edge85" class="edge">
<title>Node35&#45;&gt;Node18</title>
<path fill="none" stroke="#191970" d="M1601.9209,-374.9736C1640.5885,-366.6978 1694.5119,-352.889 1739,-333 1762.1842,-322.6352 1763.2455,-310.9812 1787,-302 1837.2393,-283.0053 1990.7547,-306.5285 2026,-266 2067.28,-218.5322 2049.5424,-137.1572 2036.8201,-96.3563"/>
<polygon fill="#191970" stroke="#191970" points="2040.0884,-95.0899 2033.6539,-86.6728 2033.435,-97.2653 2040.0884,-95.0899"/>
</g>
<!-- Node35&#45;&gt;Node30 -->
<g id="edge84" class="edge">
<title>Node35&#45;&gt;Node30</title>
<path fill="none" stroke="#191970" d="M1556.4445,-374.9005C1561.3996,-366.1638 1568.9214,-352.9018 1575.487,-341.3256"/>
<polygon fill="#191970" stroke="#191970" points="1578.5912,-342.9468 1580.4802,-332.5218 1572.5023,-339.4934 1578.5912,-342.9468"/>
</g>
<!-- Node36&#45;&gt;Node5 -->
<g id="edge90" class="edge">
<title>Node36&#45;&gt;Node5</title>
<path fill="none" stroke="#191970" d="M1199.6651,-571.5944C1332.4037,-565.0395 1638.004,-547.7224 1739,-523 1761.4483,-517.505 1764.8946,-509.7435 1787,-503 1865.0341,-479.1949 1893.2267,-501.8354 1967,-467 2001.2159,-450.8434 2033.8025,-420.6212 2052.3046,-401.5842"/>
<polygon fill="#191970" stroke="#191970" points="2054.9851,-403.8444 2059.3355,-394.1839 2049.9103,-399.0229 2054.9851,-403.8444"/>
</g>
<!-- Node36&#45;&gt;Node8 -->
<g id="edge91" class="edge">
<title>Node36&#45;&gt;Node8</title>
<path fill="none" stroke="#191970" d="M1199.6803,-570.7435C1338.2341,-562.2303 1666.9637,-540.8221 1777,-523 1880.0028,-506.3171 1908.0453,-505.5705 2005,-467 2061.0372,-444.7073 2075.5044,-437.1659 2123,-400 2170.2888,-362.9959 2169.2316,-339.6596 2216,-302 2230.922,-289.9843 2249.2568,-278.7987 2264.1791,-270.4668"/>
<polygon fill="#191970" stroke="#191970" points="2265.8701,-273.5313 2272.9684,-265.6658 2262.5144,-267.388 2265.8701,-273.5313"/>
</g>
<!-- Node36&#45;&gt;Node9 -->
<g id="edge92" class="edge">
<title>Node36&#45;&gt;Node9</title>
<path fill="none" stroke="#191970" d="M1199.8694,-565.0925C1274.7617,-553.886 1399.5252,-535.217 1477.5904,-523.5357"/>
<polygon fill="#191970" stroke="#191970" points="1478.4422,-526.9473 1487.8141,-522.0059 1477.4062,-520.0244 1478.4422,-526.9473"/>
</g>
<!-- Node36&#45;&gt;Node17 -->
<g id="edge108" class="edge">
<title>Node36&#45;&gt;Node17</title>
<path fill="none" stroke="#191970" d="M1074.3786,-567.9434C982.2815,-554.5538 813.1173,-514.839 738,-400 730.458,-388.4698 729.232,-379.6278 738,-369 791.5843,-304.0501 858.0298,-385.3232 924,-333 942.6922,-318.1746 965.9696,-254.9994 977.9875,-219.3108"/>
<polygon fill="#191970" stroke="#191970" points="981.3761,-220.2119 981.2021,-209.6185 974.732,-218.0083 981.3761,-220.2119"/>
</g>
<!-- Node36&#45;&gt;Node18 -->
<g id="edge109" class="edge">
<title>Node36&#45;&gt;Node18</title>
<path fill="none" stroke="#191970" d="M1199.5361,-569.9317C1310.9626,-561.436 1539.4319,-542.3093 1617,-523 1682.5537,-506.6814 2133.5993,-324.1392 2168,-266 2201.8619,-208.7715 2174.435,-166.3364 2124,-123 2109.2334,-110.3118 2090.8204,-99.5007 2074.081,-91.1086"/>
<polygon fill="#191970" stroke="#191970" points="2075.5123,-87.9129 2064.9873,-86.6987 2072.4579,-94.2114 2075.5123,-87.9129"/>
</g>
<!-- Node36&#45;&gt;Node20 -->
<g id="edge89" class="edge">
<title>Node36&#45;&gt;Node20</title>
<path fill="none" stroke="#191970" d="M1074.1492,-570.2741C870.4485,-555.0449 235.6289,-495.0406 132,-333 69.6415,-235.4924 231.107,-125.6943 296.7278,-86.4354"/>
<polygon fill="#191970" stroke="#191970" points="298.8359,-89.2558 305.6761,-81.1648 295.2833,-83.2243 298.8359,-89.2558"/>
</g>
<!-- Node36&#45;&gt;Node28 -->
<g id="edge107" class="edge">
<title>Node36&#45;&gt;Node28</title>
<path fill="none" stroke="#191970" d="M1199.6438,-561.7383C1275.0315,-545.1804 1404.5128,-512.8789 1509,-467 1533.2874,-456.3357 1535.2813,-445.6223 1560,-436 1568.4667,-432.7041 1665.7841,-413.7381 1738.6528,-399.7754"/>
<polygon fill="#191970" stroke="#191970" points="1739.5972,-403.1582 1748.7608,-397.8405 1738.2811,-396.2831 1739.5972,-403.1582"/>
</g>
<!-- Node36&#45;&gt;Node37 -->
<g id="edge93" class="edge">
<title>Node36&#45;&gt;Node37</title>
<path fill="none" stroke="#191970" d="M1136.7548,-559.4178C1136.4204,-538.8539 1135.8169,-501.7363 1135.4123,-476.8546"/>
<polygon fill="#191970" stroke="#191970" points="1138.9095,-476.6473 1135.2472,-466.7056 1131.9104,-476.7612 1138.9095,-476.6473"/>
</g>
<!-- Node37&#45;&gt;Node2 -->
<g id="edge96" class="edge">
<title>Node37&#45;&gt;Node2</title>
<path fill="none" stroke="#191970" d="M1069.394,-449.5113C926.1923,-444.6566 589.6687,-430.3133 480,-400 466.093,-396.156 287.9128,-305.8304 217.9394,-270.233"/>
<polygon fill="#191970" stroke="#191970" points="219.3121,-267.0045 208.8124,-265.588 216.1371,-273.243 219.3121,-267.0045"/>
</g>
<!-- Node37&#45;&gt;Node5 -->
<g id="edge98" class="edge">
<title>Node37&#45;&gt;Node5</title>
<path fill="none" stroke="#191970" d="M1200.529,-447.2763C1359.6353,-436.9889 1763.1675,-410.6957 1898,-400 1935.7216,-397.0077 1978.1043,-393.1445 2011.115,-390.0235"/>
<polygon fill="#191970" stroke="#191970" points="2011.8615,-393.4684 2021.4857,-389.0383 2011.1995,-386.4998 2011.8615,-393.4684"/>
</g>
<!-- Node37&#45;&gt;Node7 -->
<g id="edge97" class="edge">
<title>Node37&#45;&gt;Node7</title>
<path fill="none" stroke="#191970" d="M1069.4922,-450.252C940.3239,-447.0272 657.5423,-435.9653 568,-400 383.4992,-325.894 143.2717,-198.4314 282,-56 313.0775,-24.093 1758.6344,-12.001 1995.3668,-10.2333"/>
<polygon fill="#191970" stroke="#191970" points="1995.7417,-13.7308 2005.7156,-10.1569 1995.69,-6.7309 1995.7417,-13.7308"/>
</g>
<!-- Node37&#45;&gt;Node8 -->
<g id="edge99" class="edge">
<title>Node37&#45;&gt;Node8</title>
<path fill="none" stroke="#191970" d="M1200.8643,-447.9043C1295.3852,-441.9928 1474.6821,-427.9768 1625,-400 1677.0419,-390.3141 1688.4901,-381.2028 1740,-369 1935.314,-322.7297 2172.1605,-278.0366 2258.4809,-262.1187"/>
<polygon fill="#191970" stroke="#191970" points="2259.2805,-265.5304 2268.4824,-260.2791 2258.0142,-258.6459 2259.2805,-265.5304"/>
</g>
<!-- Node37&#45;&gt;Node13 -->
<g id="edge95" class="edge">
<title>Node37&#45;&gt;Node13</title>
<path fill="none" stroke="#191970" d="M1194.4712,-436.4639C1245.4369,-423.5782 1317.3665,-405.3922 1361.2234,-394.3039"/>
<polygon fill="#191970" stroke="#191970" points="1362.1009,-397.6923 1370.9379,-391.8478 1360.385,-390.9058 1362.1009,-397.6923"/>
</g>
<!-- Node37&#45;&gt;Node14 -->
<g id="edge100" class="edge">
<title>Node37&#45;&gt;Node14</title>
<path fill="none" stroke="#191970" d="M1117.7544,-436.2967C1105.7983,-425.7564 1089.8881,-411.7303 1077.6396,-400.9323"/>
<polygon fill="#191970" stroke="#191970" points="1079.6543,-398.0425 1069.8385,-394.055 1075.0252,-403.2934 1079.6543,-398.0425"/>
</g>
<!-- Node37&#45;&gt;Node15 -->
<g id="edge94" class="edge">
<title>Node37&#45;&gt;Node15</title>
<path fill="none" stroke="#191970" d="M1142.8344,-436.4841C1161.1626,-401.3551 1206.8112,-313.8618 1227.0583,-275.0549"/>
<polygon fill="#191970" stroke="#191970" points="1230.3174,-276.3747 1231.8401,-265.8898 1224.1113,-273.1367 1230.3174,-276.3747"/>
</g>
<!-- Node37&#45;&gt;Node17 -->
<g id="edge103" class="edge">
<title>Node37&#45;&gt;Node17</title>
<path fill="none" stroke="#191970" d="M1069.2939,-437.1015C1033.5501,-427.7939 994.5165,-414.6981 984,-400 963.83,-371.81 975.4303,-268.0271 982.1931,-219.6415"/>
<polygon fill="#191970" stroke="#191970" points="985.6678,-220.0673 983.6287,-209.6706 978.7393,-219.0697 985.6678,-220.0673"/>
</g>
<!-- Node37&#45;&gt;Node25 -->
<g id="edge106" class="edge">
<title>Node37&#45;&gt;Node25</title>
<path fill="none" stroke="#191970" d="M1069.3046,-448.0731C925.2018,-439.1807 587.9076,-410.4145 509,-333 459.7321,-284.6644 477.9558,-225.4558 529,-179 544.7181,-164.6948 565.6984,-153.8583 583.85,-146.3074"/>
<polygon fill="#191970" stroke="#191970" points="585.3103,-149.4935 593.3157,-142.5535 582.7297,-142.9865 585.3103,-149.4935"/>
</g>
<!-- Node37&#45;&gt;Node28 -->
<g id="edge101" class="edge">
<title>Node37&#45;&gt;Node28</title>
<path fill="none" stroke="#191970" d="M1200.8313,-446.219C1305.8629,-437.6241 1517.7875,-419.5896 1697,-400 1710.4924,-398.5252 1724.8069,-396.827 1738.7031,-395.1074"/>
<polygon fill="#191970" stroke="#191970" points="1739.2413,-398.5674 1748.7301,-393.8543 1738.3732,-391.6215 1739.2413,-398.5674"/>
</g>
<!-- Node37&#45;&gt;Node30 -->
<g id="edge104" class="edge">
<title>Node37&#45;&gt;Node30</title>
<path fill="none" stroke="#191970" d="M1171.88,-436.4723C1216.4039,-418.7102 1293.8096,-389.0407 1362,-369 1410.1993,-354.8345 1465.1171,-342.2823 1508.8619,-333.1169"/>
<polygon fill="#191970" stroke="#191970" points="1509.7934,-336.4982 1518.8726,-331.0376 1508.3697,-329.6445 1509.7934,-336.4982"/>
</g>
<!-- Node37&#45;&gt;Node35 -->
<g id="edge102" class="edge">
<title>Node37&#45;&gt;Node35</title>
<path fill="none" stroke="#191970" d="M1200.9164,-440.8837C1277.5474,-428.5417 1403.464,-408.2618 1481.5663,-395.6828"/>
<polygon fill="#191970" stroke="#191970" points="1482.4721,-399.0821 1491.7883,-394.0365 1481.359,-392.1712 1482.4721,-399.0821"/>
</g>
<!-- Node38 -->
<g id="node39" class="node">
<title>Node38</title>
<g id="a_node39"><a xlink:href="passkey_8h.html" target="_top" xlink:title="maliput/common/passkey.h">
<polygon fill="#ffffff" stroke="#000000" points="747,-375 747,-394 899,-394 899,-375 747,-375"/>
<text text-anchor="middle" x="823" y="-382" font-family="Helvetica,sans-Serif" font-size="10.00" fill="#000000">maliput/common/passkey.h</text>
</a>
</g>
</g>
<!-- Node37&#45;&gt;Node38 -->
<g id="edge105" class="edge">
<title>Node37&#45;&gt;Node38</title>
<path fill="none" stroke="#191970" d="M1069.2141,-437.3729C1012.276,-425.1458 930.9086,-407.6727 877.5329,-396.2106"/>
<polygon fill="#191970" stroke="#191970" points="878.0877,-392.75 867.5757,-394.0723 876.6179,-399.594 878.0877,-392.75"/>
</g>
<!-- Node39&#45;&gt;Node2 -->
<g id="edge115" class="edge">
<title>Node39&#45;&gt;Node2</title>
<path fill="none" stroke="#191970" d="M1244.3932,-761.4347C1091.3515,-753.9718 719.6899,-733.9298 667,-713 460.4464,-630.9516 440.1899,-550.882 277,-400 246.9878,-372.2514 234.6066,-368.2999 214,-333 203.4465,-314.9214 197.0342,-291.6981 193.5255,-275.5045"/>
<polygon fill="#191970" stroke="#191970" points="196.932,-274.6894 191.5451,-265.5662 190.067,-276.0574 196.932,-274.6894"/>
</g>
<!-- Node39&#45;&gt;Node4 -->
<g id="edge118" class="edge">
<title>Node39&#45;&gt;Node4</title>
<path fill="none" stroke="#191970" d="M1310,-749.2977C1310,-741.3834 1310,-731.6043 1310,-723.0759"/>
<polygon fill="#191970" stroke="#191970" points="1313.5001,-722.8469 1310,-712.8469 1306.5001,-722.847 1313.5001,-722.8469"/>
</g>
<!-- Node39&#45;&gt;Node5 -->
<g id="edge116" class="edge">
<title>Node39&#45;&gt;Node5</title>
<path fill="none" stroke="#191970" d="M1375.8393,-762.8816C1590.5978,-756.7394 2257,-730.5089 2257,-641.5 2257,-641.5 2257,-641.5 2257,-574.5 2257,-486.2781 2153.312,-424.5088 2099.5363,-398.4058"/>
<polygon fill="#191970" stroke="#191970" points="2100.959,-395.207 2090.423,-394.0917 2097.9639,-401.5339 2100.959,-395.207"/>
</g>
<!-- Node39&#45;&gt;Node8 -->
<g id="edge117" class="edge">
<title>Node39&#45;&gt;Node8</title>
<path fill="none" stroke="#191970" d="M1375.6997,-763.1319C1544.2002,-759.1836 1988.5315,-745.8821 2132,-713 2209.1084,-695.3273 2295,-720.6077 2295,-641.5 2295,-641.5 2295,-641.5 2295,-384.5 2295,-345.9908 2293.6368,-301.0076 2292.7482,-275.7779"/>
<polygon fill="#191970" stroke="#191970" points="2296.2418,-275.536 2292.38,-265.6701 2289.2464,-275.7909 2296.2418,-275.536"/>
</g>
<!-- Node39&#45;&gt;Node17 -->
<g id="edge120" class="edge">
<title>Node39&#45;&gt;Node17</title>
<path fill="none" stroke="#191970" d="M1244.466,-758.533C1083.3635,-742.9863 681,-698.4562 681,-641.5 681,-641.5 681,-641.5 681,-451.5 681,-409.3006 694.114,-394.1502 728,-369 785.8334,-326.0761 825.9438,-372.7545 886,-333 908.5881,-318.0477 949.8588,-253.9115 971.6474,-218.398"/>
<polygon fill="#191970" stroke="#191970" points="974.782,-219.9798 976.9946,-209.6186 968.8036,-216.3385 974.782,-219.9798"/>
</g>
<!-- Node39&#45;&gt;Node28 -->
<g id="edge119" class="edge">
<title>Node39&#45;&gt;Node28</title>
<path fill="none" stroke="#191970" d="M1375.7125,-760.14C1553.206,-747.4902 2029,-707.4318 2029,-641.5 2029,-641.5 2029,-641.5 2029,-513 2029,-449.5346 1958.3523,-416.4613 1899.0104,-399.8753"/>
<polygon fill="#191970" stroke="#191970" points="1899.7837,-396.4591 1889.2189,-397.2561 1897.9748,-403.2214 1899.7837,-396.4591"/>
</g>
<!-- Node40&#45;&gt;Node2 -->
<g id="edge122" class="edge">
<title>Node40&#45;&gt;Node2</title>
<path fill="none" stroke="#191970" d="M118.2828,-559.1409C102.401,-536.748 76,-493.2454 76,-451.5 76,-451.5 76,-451.5 76,-384.5 76,-346.3133 75.6722,-331.4344 100,-302 113.456,-285.7195 134.155,-274.5793 152.3112,-267.3448"/>
<polygon fill="#191970" stroke="#191970" points="153.6453,-270.5829 161.7972,-263.8155 151.2044,-264.0222 153.6453,-270.5829"/>
</g>
<!-- Node41&#45;&gt;Node2 -->
<g id="edge125" class="edge">
<title>Node41&#45;&gt;Node2</title>
<path fill="none" stroke="#191970" d="M689.2898,-816.4844C671.2831,-806.9058 648.1652,-793.7423 629,-780 432.0682,-638.7909 387.0267,-591.0843 238,-400 216.5304,-372.4714 207.9787,-366.1396 197,-333 190.8178,-314.3387 189.4181,-291.8286 189.3522,-275.9808"/>
<polygon fill="#191970" stroke="#191970" points="192.8547,-275.8154 189.4907,-265.7688 185.8554,-275.7204 192.8547,-275.8154"/>
</g>
<!-- Node41&#45;&gt;Node8 -->
<g id="edge126" class="edge">
<title>Node41&#45;&gt;Node8</title>
<path fill="none" stroke="#191970" d="M784.8933,-830.2197C1037.2344,-824.7107 1941.5774,-799.2431 2214,-713 2260.7264,-698.2075 2284.6862,-699.556 2309,-657 2387.2701,-520.0051 2336.7809,-457.3127 2309,-302 2307.3557,-292.8071 2303.9995,-283.047 2300.7003,-274.8935"/>
<polygon fill="#191970" stroke="#191970" points="2303.8606,-273.3833 2296.6849,-265.5885 2297.4335,-276.1569 2303.8606,-273.3833"/>
</g>
<!-- Node41&#45;&gt;Node17 -->
<g id="edge130" class="edge">
<title>Node41&#45;&gt;Node17</title>
<path fill="none" stroke="#191970" d="M706.8,-816.3217C677.3911,-778.1493 605,-674.0738 605,-574.5 605,-574.5 605,-574.5 605,-513 605,-438.4551 630.718,-412.8522 691,-369 748.8915,-326.8868 785.3927,-367.7168 848,-333 861.9609,-325.2585 929.9224,-254.1058 964.9821,-216.9165"/>
<polygon fill="#191970" stroke="#191970" points="967.6279,-219.2122 971.9328,-209.5313 962.5305,-214.4146 967.6279,-219.2122"/>
</g>
<!-- Node41&#45;&gt;Node34 -->
<g id="edge129" class="edge">
<title>Node41&#45;&gt;Node34</title>
<path fill="none" stroke="#191970" d="M765.9381,-816.4775C910.6092,-770.1755 1347.9836,-630.1939 1482.3222,-587.1989"/>
<polygon fill="#191970" stroke="#191970" points="1483.7369,-590.4211 1492.1941,-584.0394 1481.6031,-583.7542 1483.7369,-590.4211"/>
</g>
<!-- Node41&#45;&gt;Node36 -->
<g id="edge128" class="edge">
<title>Node41&#45;&gt;Node36</title>
<path fill="none" stroke="#191970" d="M718.5105,-816.497C718.1498,-778.1313 722.9603,-675.9597 781,-626 802.0846,-607.8507 966.3031,-590.0154 1064.1774,-580.8504"/>
<polygon fill="#191970" stroke="#191970" points="1064.6761,-584.3193 1074.31,-579.9104 1064.0294,-577.3492 1064.6761,-584.3193"/>
</g>
<!-- Node41&#45;&gt;Node39 -->
<g id="edge127" class="edge">
<title>Node41&#45;&gt;Node39</title>
<path fill="none" stroke="#191970" d="M784.5054,-824.0738C894.8905,-811.5598 1117.3331,-786.3421 1234.2524,-773.0873"/>
<polygon fill="#191970" stroke="#191970" points="1234.6591,-776.5637 1244.2012,-771.9594 1233.8705,-769.6082 1234.6591,-776.5637"/>
</g>
<!-- Node42&#45;&gt;Node2 -->
<g id="edge133" class="edge">
<title>Node42&#45;&gt;Node2</title>
<path fill="none" stroke="#191970" d="M227.2498,-626.2579C216.0794,-596.6127 192.2523,-533.192 189,-523 162.4205,-439.7043 149.4315,-419.6831 138,-333 136.1986,-319.3405 132.3408,-314.5619 138,-302 143.5697,-289.6369 154.2863,-279.2563 164.5506,-271.5033"/>
<polygon fill="#191970" stroke="#191970" points="166.7618,-274.2277 172.9433,-265.623 162.7451,-268.4948 166.7618,-274.2277"/>
</g>
<!-- Node42&#45;&gt;Node17 -->
<g id="edge136" class="edge">
<title>Node42&#45;&gt;Node17</title>
<path fill="none" stroke="#191970" d="M235.1991,-626.4287C242.9792,-579.1194 273.8753,-432.9232 366,-369 502.4705,-274.3063 600.8618,-426.7242 738,-333 773.774,-308.551 748.1695,-273.0745 782,-246 801.3438,-230.5192 857.469,-216.984 905.963,-207.6795"/>
<polygon fill="#191970" stroke="#191970" points="906.682,-211.1057 915.8626,-205.8174 905.3879,-204.2264 906.682,-211.1057"/>
</g>
<!-- Node42&#45;&gt;Node36 -->
<g id="edge134" class="edge">
<title>Node42&#45;&gt;Node36</title>
<path fill="none" stroke="#191970" d="M316.0227,-635.3468C491.6308,-622.3316 898.1858,-592.1997 1064.3013,-579.8881"/>
<polygon fill="#191970" stroke="#191970" points="1064.7009,-583.3681 1074.4148,-579.1385 1064.1834,-576.3873 1064.7009,-583.3681"/>
</g>
<!-- Node42&#45;&gt;Node40 -->
<g id="edge135" class="edge">
<title>Node42&#45;&gt;Node40</title>
<path fill="none" stroke="#191970" d="M209.8848,-626.4639C195.8037,-617.3044 177.6055,-605.4667 162.1358,-595.4038"/>
<polygon fill="#191970" stroke="#191970" points="163.6855,-592.2366 153.3944,-589.7177 159.8685,-598.1044 163.6855,-592.2366"/>
</g>
</g>
</svg>
