<?xml version="1.0" encoding="UTF-8" standalone="no"?>
<!DOCTYPE svg PUBLIC "-//W3C//DTD SVG 1.1//EN"
 "http://www.w3.org/Graphics/SVG/1.1/DTD/svg11.dtd">
<!-- Generated by graphviz version 2.43.0 (0)
 -->
<!-- Title: phase_ring_book.h Pages: 1 -->
<!--zoomable 296 -->
<svg id="main" version="1.1" xmlns="http://www.w3.org/2000/svg" xmlns:xlink="http://www.w3.org/1999/xlink" xml:space="preserve" onload="init(evt)">
<style type="text/css"><![CDATA[
.edge:hover path { stroke: red; }
.edge:hover polygon { stroke: red; fill: red; }
]]></style>
<script type="text/javascript"><![CDATA[
var edges = document.getElementsByTagName('g');
if (edges && edges.length) {
  for (var i=0;i<edges.length;i++) {
    if (edges[i].id.substr(0,4)=='edge') {
      edges[i].setAttribute('class','edge');
    }
  }
}
]]></script>
        <defs>
                <circle id="rim" cx="0" cy="0" r="7"/>
                <circle id="rim2" cx="0" cy="0" r="3.5"/>
                <g id="zoomPlus">
                        <use xlink:href="#rim" fill="#404040">
                                <set attributeName="fill" to="#808080" begin="zoomplus.mouseover" end="zoomplus.mouseout"/>
                        </use>
                        <path d="M-4,0h8M0,-4v8" fill="none" stroke="white" stroke-width="1.5" pointer-events="none"/>
                </g>
                <g id="zoomMin">
                        <use xlink:href="#rim" fill="#404040">
                                <set attributeName="fill" to="#808080" begin="zoomminus.mouseover" end="zoomminus.mouseout"/>
                        </use>
                        <path d="M-4,0h8" fill="none" stroke="white" stroke-width="1.5" pointer-events="none"/>
                </g>
                <g id="dirArrow">
                        <path fill="none" stroke="white" stroke-width="1.5" d="M0,-3.0v7 M-2.5,-0.5L0,-3.0L2.5,-0.5"/>
                </g>
               <g id="resetDef">
                       <use xlink:href="#rim2" fill="#404040">
                               <set attributeName="fill" to="#808080" begin="reset.mouseover" end="reset.mouseout"/>
                       </use>
               </g>
        </defs>

<script type="text/javascript">
var viewWidth = 1598;
var viewHeight = 296;
var sectionId = 'dynsection-1';
</script>
<script xlink:href="svgpan.js"/>
<svg id="graph" class="graph">
<g id="viewport">
<title>phase_ring_book.h</title>
<polygon fill="white" stroke="transparent" points="-4,4 -4,-292 1593.5,-292 1593.5,4 -4,4"/>
<!-- Node1 -->
<g id="node1" class="node">
<title>Node1</title>
<g id="a_node1"><a xlink:title=" ">
<polygon fill="#bfbfbf" stroke="black" points="976,-268.5 976,-287.5 1084,-287.5 1084,-268.5 976,-268.5"/>
<text text-anchor="middle" x="1030" y="-275.5" font-family="Helvetica,sans-Serif" font-size="10.00">phase_ring_book.h</text>
</a>
</g>
</g>
<!-- Node2 -->
<g id="node2" class="node">
<title>Node2</title>
<g id="a_node2"><a xlink:href="road__network_8h.html" target="_top" xlink:title=" ">
<polygon fill="white" stroke="black" points="307,-201.5 307,-220.5 399,-220.5 399,-201.5 307,-201.5"/>
<text text-anchor="middle" x="353" y="-208.5" font-family="Helvetica,sans-Serif" font-size="10.00">road_network.h</text>
</a>
</g>
</g>
<!-- Node1&#45;&gt;Node2 -->
<g id="edge1" class="edge">
<title>Node1&#45;&gt;Node2</title>
<path fill="none" stroke="midnightblue" d="M965.65,-271.74C870.09,-263.81 685.06,-248.01 528,-232 484.19,-227.53 434.3,-221.76 399.02,-217.57"/>
<polygon fill="midnightblue" stroke="midnightblue" points="965.48,-275.23 975.73,-272.57 966.05,-268.26 965.48,-275.23"/>
</g>
<!-- Node11 -->
<g id="node11" class="node">
<title>Node11</title>
<g id="a_node11"><a xlink:href="intersection__book__loader_8h.html" target="_top" xlink:title=" ">
<polygon fill="white" stroke="black" points="537.5,-201.5 537.5,-220.5 686.5,-220.5 686.5,-201.5 537.5,-201.5"/>
<text text-anchor="middle" x="612" y="-208.5" font-family="Helvetica,sans-Serif" font-size="10.00">intersection_book_loader.h</text>
</a>
</g>
</g>
<!-- Node1&#45;&gt;Node11 -->
<g id="edge11" class="edge">
<title>Node1&#45;&gt;Node11</title>
<path fill="none" stroke="midnightblue" d="M965.81,-269.94C899.12,-262.21 791.86,-248.67 700,-232 682.27,-228.78 662.71,-224.42 646.55,-220.59"/>
<polygon fill="midnightblue" stroke="midnightblue" points="965.42,-273.42 975.75,-271.09 966.22,-266.47 965.42,-273.42"/>
</g>
<!-- Node13 -->
<g id="node13" class="node">
<title>Node13</title>
<g id="a_node13"><a xlink:href="manual__phase__ring__book_8h.html" target="_top" xlink:title=" ">
<polygon fill="white" stroke="black" points="709,-201.5 709,-220.5 859,-220.5 859,-201.5 709,-201.5"/>
<text text-anchor="middle" x="784" y="-208.5" font-family="Helvetica,sans-Serif" font-size="10.00">manual_phase_ring_book.h</text>
</a>
</g>
</g>
<!-- Node1&#45;&gt;Node13 -->
<g id="edge13" class="edge">
<title>Node1&#45;&gt;Node13</title>
<path fill="none" stroke="midnightblue" d="M987.7,-265.82C939.13,-252.99 860.49,-232.21 816.48,-220.58"/>
<polygon fill="midnightblue" stroke="midnightblue" points="987.02,-269.26 997.59,-268.44 988.81,-262.5 987.02,-269.26"/>
</g>
<!-- Node16 -->
<g id="node16" class="node">
<title>Node16</title>
<g id="a_node16"><a xlink:href="phase__based__right__of__way__discrete__value__rule__state__provider_8h.html" target="_top" xlink:title=" ">
<polygon fill="white" stroke="black" points="1039.5,-190.5 1039.5,-231.5 1182.5,-231.5 1182.5,-190.5 1039.5,-190.5"/>
<text text-anchor="start" x="1047.5" y="-219.5" font-family="Helvetica,sans-Serif" font-size="10.00">phase_based_right_of</text>
<text text-anchor="start" x="1047.5" y="-208.5" font-family="Helvetica,sans-Serif" font-size="10.00">_way_discrete_value_rule</text>
<text text-anchor="middle" x="1111" y="-197.5" font-family="Helvetica,sans-Serif" font-size="10.00">_state_provider.h</text>
</a>
</g>
</g>
<!-- Node1&#45;&gt;Node16 -->
<g id="edge16" class="edge">
<title>Node1&#45;&gt;Node16</title>
<path fill="none" stroke="midnightblue" d="M1048.83,-261.89C1060.09,-252.85 1074.52,-241.27 1086.65,-231.54"/>
<polygon fill="midnightblue" stroke="midnightblue" points="1046.53,-259.25 1040.92,-268.23 1050.91,-264.7 1046.53,-259.25"/>
</g>
<!-- Node18 -->
<g id="node18" class="node">
<title>Node18</title>
<g id="a_node18"><a xlink:href="phase__based__right__of__way__rule__state__provider_8h.html" target="_top" xlink:title=" ">
<polygon fill="white" stroke="black" points="1200.5,-196 1200.5,-226 1351.5,-226 1351.5,-196 1200.5,-196"/>
<text text-anchor="start" x="1208.5" y="-214" font-family="Helvetica,sans-Serif" font-size="10.00">phase_based_right_of</text>
<text text-anchor="middle" x="1276" y="-203" font-family="Helvetica,sans-Serif" font-size="10.00">_way_rule_state_provider.h</text>
</a>
</g>
</g>
<!-- Node1&#45;&gt;Node18 -->
<g id="edge18" class="edge">
<title>Node1&#45;&gt;Node18</title>
<path fill="none" stroke="midnightblue" d="M1072.24,-265.84C1113.9,-254.83 1177.7,-237.97 1222.79,-226.06"/>
<polygon fill="midnightblue" stroke="midnightblue" points="1071.19,-262.5 1062.41,-268.44 1072.98,-269.26 1071.19,-262.5"/>
</g>
<!-- Node20 -->
<g id="node20" class="node">
<title>Node20</title>
<g id="a_node20"><a xlink:href="phase__ring__book__loader_8h.html" target="_top" xlink:title=" ">
<polygon fill="white" stroke="black" points="877,-201.5 877,-220.5 1021,-220.5 1021,-201.5 877,-201.5"/>
<text text-anchor="middle" x="949" y="-208.5" font-family="Helvetica,sans-Serif" font-size="10.00">phase_ring_book_loader.h</text>
</a>
</g>
</g>
<!-- Node1&#45;&gt;Node20 -->
<g id="edge20" class="edge">
<title>Node1&#45;&gt;Node20</title>
<path fill="none" stroke="midnightblue" d="M1010.95,-261.71C994.99,-248.91 972.79,-231.09 959.75,-220.63"/>
<polygon fill="midnightblue" stroke="midnightblue" points="1009.09,-264.7 1019.08,-268.23 1013.47,-259.25 1009.09,-264.7"/>
</g>
<!-- Node21 -->
<g id="node21" class="node">
<title>Node21</title>
<g id="a_node21"><a xlink:href="simple__phase__ring__book_8h.html" target="_top" xlink:title=" ">
<polygon fill="white" stroke="black" points="1370,-201.5 1370,-220.5 1516,-220.5 1516,-201.5 1370,-201.5"/>
<text text-anchor="middle" x="1443" y="-208.5" font-family="Helvetica,sans-Serif" font-size="10.00">simple_phase_ring_book.h</text>
</a>
</g>
</g>
<!-- Node1&#45;&gt;Node21 -->
<g id="edge22" class="edge">
<title>Node1&#45;&gt;Node21</title>
<path fill="none" stroke="midnightblue" d="M1094.15,-270.28C1161.06,-262.81 1268.86,-249.45 1361,-232 1377.7,-228.84 1396.1,-224.43 1411.24,-220.56"/>
<polygon fill="midnightblue" stroke="midnightblue" points="1093.72,-266.81 1084.17,-271.39 1094.5,-273.77 1093.72,-266.81"/>
</g>
<!-- Node22 -->
<g id="node22" class="node">
<title>Node22</title>
<g id="a_node22"><a xlink:href="mock_8h.html" target="_top" xlink:title=" ">
<polygon fill="white" stroke="black" points="1534.5,-201.5 1534.5,-220.5 1587.5,-220.5 1587.5,-201.5 1534.5,-201.5"/>
<text text-anchor="middle" x="1561" y="-208.5" font-family="Helvetica,sans-Serif" font-size="10.00">mock.h</text>
</a>
</g>
</g>
<!-- Node1&#45;&gt;Node22 -->
<g id="edge23" class="edge">
<title>Node1&#45;&gt;Node22</title>
<path fill="none" stroke="midnightblue" d="M1094.32,-274.46C1209.5,-269.37 1446.25,-256.26 1525,-232 1533.34,-229.43 1541.9,-224.77 1548.59,-220.59"/>
<polygon fill="midnightblue" stroke="midnightblue" points="1094.07,-270.97 1084.24,-274.9 1094.38,-277.96 1094.07,-270.97"/>
</g>
<!-- Node3 -->
<g id="node3" class="node">
<title>Node3</title>
<g id="a_node3"><a xlink:href="road__network__validator_8h.html" target="_top" xlink:title=" ">
<polygon fill="white" stroke="black" points="2.5,-123.5 2.5,-142.5 143.5,-142.5 143.5,-123.5 2.5,-123.5"/>
<text text-anchor="middle" x="73" y="-130.5" font-family="Helvetica,sans-Serif" font-size="10.00">road_network_validator.h</text>
</a>
</g>
</g>
<!-- Node2&#45;&gt;Node3 -->
<g id="edge2" class="edge">
<title>Node2&#45;&gt;Node3</title>
<path fill="none" stroke="midnightblue" d="M311.75,-198.8C255.31,-183.48 155.25,-156.33 104.46,-142.54"/>
<polygon fill="midnightblue" stroke="midnightblue" points="310.86,-202.19 321.42,-201.43 312.69,-195.43 310.86,-202.19"/>
</g>
<!-- Node5 -->
<g id="node5" class="node">
<title>Node5</title>
<g id="a_node5"><a xlink:href="road__network__loader_8h.html" target="_top" xlink:title=" ">
<polygon fill="white" stroke="black" points="162,-123.5 162,-142.5 290,-142.5 290,-123.5 162,-123.5"/>
<text text-anchor="middle" x="226" y="-130.5" font-family="Helvetica,sans-Serif" font-size="10.00">road_network_loader.h</text>
</a>
</g>
</g>
<!-- Node2&#45;&gt;Node5 -->
<g id="edge4" class="edge">
<title>Node2&#45;&gt;Node5</title>
<path fill="none" stroke="midnightblue" d="M329.57,-195.98C303.48,-180.36 262.12,-155.61 240.4,-142.62"/>
<polygon fill="midnightblue" stroke="midnightblue" points="328.05,-199.15 338.43,-201.28 331.65,-193.14 328.05,-199.15"/>
</g>
<!-- Node6 -->
<g id="node6" class="node">
<title>Node6</title>
<g id="a_node6"><a xlink:href="generate__obj_8h.html" target="_top" xlink:title=" ">
<polygon fill="white" stroke="black" points="308.5,-123.5 308.5,-142.5 397.5,-142.5 397.5,-123.5 308.5,-123.5"/>
<text text-anchor="middle" x="353" y="-130.5" font-family="Helvetica,sans-Serif" font-size="10.00">generate_obj.h</text>
</a>
</g>
</g>
<!-- Node2&#45;&gt;Node6 -->
<g id="edge5" class="edge">
<title>Node2&#45;&gt;Node6</title>
<path fill="none" stroke="midnightblue" d="M353,-191.22C353,-175.7 353,-154.36 353,-142.62"/>
<polygon fill="midnightblue" stroke="midnightblue" points="349.5,-191.28 353,-201.28 356.5,-191.28 349.5,-191.28"/>
</g>
<!-- Node10 -->
<g id="node10" class="node">
<title>Node10</title>
<g id="a_node10"><a xlink:href="road__network_8cc.html" target="_top" xlink:title=" ">
<polygon fill="white" stroke="black" points="415.5,-123.5 415.5,-142.5 512.5,-142.5 512.5,-123.5 415.5,-123.5"/>
<text text-anchor="middle" x="464" y="-130.5" font-family="Helvetica,sans-Serif" font-size="10.00">road_network.cc</text>
</a>
</g>
</g>
<!-- Node2&#45;&gt;Node10 -->
<g id="edge10" class="edge">
<title>Node2&#45;&gt;Node10</title>
<path fill="none" stroke="midnightblue" d="M374.08,-195.57C396.92,-179.93 432.6,-155.5 451.42,-142.62"/>
<polygon fill="midnightblue" stroke="midnightblue" points="372.01,-192.74 365.73,-201.28 375.96,-198.52 372.01,-192.74"/>
</g>
<!-- Node4 -->
<g id="node4" class="node">
<title>Node4</title>
<g id="a_node4"><a xlink:href="road__network__validator_8cc.html" target="_top" xlink:title=" ">
<polygon fill="white" stroke="black" points="0,-56.5 0,-75.5 146,-75.5 146,-56.5 0,-56.5"/>
<text text-anchor="middle" x="73" y="-63.5" font-family="Helvetica,sans-Serif" font-size="10.00">road_network_validator.cc</text>
</a>
</g>
</g>
<!-- Node3&#45;&gt;Node4 -->
<g id="edge3" class="edge">
<title>Node3&#45;&gt;Node4</title>
<path fill="none" stroke="midnightblue" d="M73,-113.04C73,-100.67 73,-85.12 73,-75.63"/>
<polygon fill="midnightblue" stroke="midnightblue" points="69.5,-113.23 73,-123.23 76.5,-113.23 69.5,-113.23"/>
</g>
<!-- Node7 -->
<g id="node7" class="node">
<title>Node7</title>
<g id="a_node7"><a xlink:href="generate__urdf_8h.html" target="_top" xlink:title=" ">
<polygon fill="white" stroke="black" points="231.5,-56.5 231.5,-75.5 324.5,-75.5 324.5,-56.5 231.5,-56.5"/>
<text text-anchor="middle" x="278" y="-63.5" font-family="Helvetica,sans-Serif" font-size="10.00">generate_urdf.h</text>
</a>
</g>
</g>
<!-- Node6&#45;&gt;Node7 -->
<g id="edge6" class="edge">
<title>Node6&#45;&gt;Node7</title>
<path fill="none" stroke="midnightblue" d="M334.95,-116.36C320.21,-103.58 299.91,-85.99 287.95,-75.63"/>
<polygon fill="midnightblue" stroke="midnightblue" points="333.04,-119.33 342.89,-123.23 337.62,-114.04 333.04,-119.33"/>
</g>
<!-- Node8 -->
<g id="node8" class="node">
<title>Node8</title>
<g id="a_node8"><a xlink:href="generate__urdf_8cc.html" target="_top" xlink:title=" ">
<polygon fill="white" stroke="black" points="266,-0.5 266,-19.5 364,-19.5 364,-0.5 266,-0.5"/>
<text text-anchor="middle" x="315" y="-7.5" font-family="Helvetica,sans-Serif" font-size="10.00">generate_urdf.cc</text>
</a>
</g>
</g>
<!-- Node6&#45;&gt;Node8 -->
<g id="edge9" class="edge">
<title>Node6&#45;&gt;Node8</title>
<path fill="none" stroke="midnightblue" d="M348.83,-113.59C345.16,-98.09 339.4,-75.39 333,-56 328.73,-43.06 322.65,-28.47 318.77,-19.51"/>
<polygon fill="midnightblue" stroke="midnightblue" points="345.45,-114.51 351.12,-123.47 352.27,-112.93 345.45,-114.51"/>
</g>
<!-- Node9 -->
<g id="node9" class="node">
<title>Node9</title>
<g id="a_node9"><a xlink:href="generate__obj_8cc.html" target="_top" xlink:title=" ">
<polygon fill="white" stroke="black" points="381,-56.5 381,-75.5 475,-75.5 475,-56.5 381,-56.5"/>
<text text-anchor="middle" x="428" y="-63.5" font-family="Helvetica,sans-Serif" font-size="10.00">generate_obj.cc</text>
</a>
</g>
</g>
<!-- Node6&#45;&gt;Node9 -->
<g id="edge8" class="edge">
<title>Node6&#45;&gt;Node9</title>
<path fill="none" stroke="midnightblue" d="M371.05,-116.36C385.79,-103.58 406.09,-85.99 418.05,-75.63"/>
<polygon fill="midnightblue" stroke="midnightblue" points="368.38,-114.04 363.11,-123.23 372.96,-119.33 368.38,-114.04"/>
</g>
<!-- Node7&#45;&gt;Node8 -->
<g id="edge7" class="edge">
<title>Node7&#45;&gt;Node8</title>
<path fill="none" stroke="midnightblue" d="M289.95,-47.57C296.31,-38.27 303.87,-27.25 309,-19.75"/>
<polygon fill="midnightblue" stroke="midnightblue" points="286.87,-45.86 284.11,-56.08 292.65,-49.81 286.87,-45.86"/>
</g>
<!-- Node12 -->
<g id="node12" class="node">
<title>Node12</title>
<g id="a_node12"><a xlink:href="intersection__book__loader_8cc.html" target="_top" xlink:title=" ">
<polygon fill="white" stroke="black" points="530.5,-123.5 530.5,-142.5 683.5,-142.5 683.5,-123.5 530.5,-123.5"/>
<text text-anchor="middle" x="607" y="-130.5" font-family="Helvetica,sans-Serif" font-size="10.00">intersection_book_loader.cc</text>
</a>
</g>
</g>
<!-- Node11&#45;&gt;Node12 -->
<g id="edge12" class="edge">
<title>Node11&#45;&gt;Node12</title>
<path fill="none" stroke="midnightblue" d="M610.76,-191.22C609.74,-175.7 608.34,-154.36 607.57,-142.62"/>
<polygon fill="midnightblue" stroke="midnightblue" points="607.28,-191.53 611.43,-201.28 614.26,-191.07 607.28,-191.53"/>
</g>
<!-- Node14 -->
<g id="node14" class="node">
<title>Node14</title>
<g id="a_node14"><a xlink:href="manual__phase__ring__book_8cc.html" target="_top" xlink:title=" ">
<polygon fill="white" stroke="black" points="701.5,-123.5 701.5,-142.5 856.5,-142.5 856.5,-123.5 701.5,-123.5"/>
<text text-anchor="middle" x="779" y="-130.5" font-family="Helvetica,sans-Serif" font-size="10.00">manual_phase_ring_book.cc</text>
</a>
</g>
</g>
<!-- Node13&#45;&gt;Node14 -->
<g id="edge14" class="edge">
<title>Node13&#45;&gt;Node14</title>
<path fill="none" stroke="midnightblue" d="M782.76,-191.22C781.74,-175.7 780.34,-154.36 779.57,-142.62"/>
<polygon fill="midnightblue" stroke="midnightblue" points="779.28,-191.53 783.43,-201.28 786.26,-191.07 779.28,-191.53"/>
</g>
<!-- Node15 -->
<g id="node15" class="node">
<title>Node15</title>
<g id="a_node15"><a xlink:href="phase__ring__book__loader_8cc.html" target="_top" xlink:title=" ">
<polygon fill="white" stroke="black" points="874.5,-123.5 874.5,-142.5 1023.5,-142.5 1023.5,-123.5 874.5,-123.5"/>
<text text-anchor="middle" x="949" y="-130.5" font-family="Helvetica,sans-Serif" font-size="10.00">phase_ring_book_loader.cc</text>
</a>
</g>
</g>
<!-- Node13&#45;&gt;Node15 -->
<g id="edge15" class="edge">
<title>Node13&#45;&gt;Node15</title>
<path fill="none" stroke="midnightblue" d="M811.89,-197.16C845.55,-181.65 901.25,-155.99 930.21,-142.66"/>
<polygon fill="midnightblue" stroke="midnightblue" points="810.23,-194.07 802.61,-201.43 813.15,-200.42 810.23,-194.07"/>
</g>
<!-- Node17 -->
<g id="node17" class="node">
<title>Node17</title>
<g id="a_node17"><a xlink:href="phase__based__right__of__way__discrete__value__rule__state__provider_8cc.html" target="_top" xlink:title=" ">
<polygon fill="white" stroke="black" points="1041.5,-112.5 1041.5,-153.5 1184.5,-153.5 1184.5,-112.5 1041.5,-112.5"/>
<text text-anchor="start" x="1049.5" y="-141.5" font-family="Helvetica,sans-Serif" font-size="10.00">phase_based_right_of</text>
<text text-anchor="start" x="1049.5" y="-130.5" font-family="Helvetica,sans-Serif" font-size="10.00">_way_discrete_value_rule</text>
<text text-anchor="middle" x="1113" y="-119.5" font-family="Helvetica,sans-Serif" font-size="10.00">_state_provider.cc</text>
</a>
</g>
</g>
<!-- Node16&#45;&gt;Node17 -->
<g id="edge17" class="edge">
<title>Node16&#45;&gt;Node17</title>
<path fill="none" stroke="midnightblue" d="M1111.78,-180.3C1112.02,-171.3 1112.27,-161.65 1112.49,-153.51"/>
<polygon fill="midnightblue" stroke="midnightblue" points="1108.28,-180.34 1111.52,-190.43 1115.28,-180.52 1108.28,-180.34"/>
</g>
<!-- Node19 -->
<g id="node19" class="node">
<title>Node19</title>
<g id="a_node19"><a xlink:href="phase__based__right__of__way__rule__state__provider_8cc.html" target="_top" xlink:title=" ">
<polygon fill="white" stroke="black" points="1202.5,-118 1202.5,-148 1357.5,-148 1357.5,-118 1202.5,-118"/>
<text text-anchor="start" x="1210.5" y="-136" font-family="Helvetica,sans-Serif" font-size="10.00">phase_based_right_of</text>
<text text-anchor="middle" x="1280" y="-125" font-family="Helvetica,sans-Serif" font-size="10.00">_way_rule_state_provider.cc</text>
</a>
</g>
</g>
<!-- Node18&#45;&gt;Node19 -->
<g id="edge19" class="edge">
<title>Node18&#45;&gt;Node19</title>
<path fill="none" stroke="midnightblue" d="M1277.28,-185.59C1277.93,-173.26 1278.7,-158.72 1279.25,-148.23"/>
<polygon fill="midnightblue" stroke="midnightblue" points="1273.78,-185.53 1276.75,-195.7 1280.77,-185.9 1273.78,-185.53"/>
</g>
<!-- Node20&#45;&gt;Node15 -->
<g id="edge21" class="edge">
<title>Node20&#45;&gt;Node15</title>
<path fill="none" stroke="midnightblue" d="M949,-191.22C949,-175.7 949,-154.36 949,-142.62"/>
<polygon fill="midnightblue" stroke="midnightblue" points="945.5,-191.28 949,-201.28 952.5,-191.28 945.5,-191.28"/>
</g>
<!-- Node23 -->
<g id="node23" class="node">
<title>Node23</title>
<g id="a_node23"><a xlink:href="mock_8cc.html" target="_top" xlink:title=" ">
<polygon fill="white" stroke="black" points="1532.5,-123.5 1532.5,-142.5 1589.5,-142.5 1589.5,-123.5 1532.5,-123.5"/>
<text text-anchor="middle" x="1561" y="-130.5" font-family="Helvetica,sans-Serif" font-size="10.00">mock.cc</text>
</a>
</g>
</g>
<!-- Node22&#45;&gt;Node23 -->
<g id="edge24" class="edge">
<title>Node22&#45;&gt;Node23</title>
<path fill="none" stroke="midnightblue" d="M1561,-191.22C1561,-175.7 1561,-154.36 1561,-142.62"/>
<polygon fill="midnightblue" stroke="midnightblue" points="1557.5,-191.28 1561,-201.28 1564.5,-191.28 1557.5,-191.28"/>
</g>
</g>
</svg>
        <g id="navigator" transform="translate(0 0)" fill="#404254">
                <rect fill="#f2f5e9" fill-opacity="0.5" stroke="#606060" stroke-width=".5" x="0" y="0" width="60" height="60"/>
                <use id="zoomplus" xlink:href="#zoomPlus" x="17" y="9" onmousedown="handleZoom(evt,'in')"/>
                <use id="zoomminus" xlink:href="#zoomMin" x="42" y="9" onmousedown="handleZoom(evt,'out')"/>
                <use id="reset" xlink:href="#resetDef" x="30" y="36" onmousedown="handleReset()"/>
                <g id="arrowUp" xlink:href="#dirArrow" transform="translate(30 24)" onmousedown="handlePan(0,-1)">
                  <use xlink:href="#rim" fill="#404040">
                        <set attributeName="fill" to="#808080" begin="arrowUp.mouseover" end="arrowUp.mouseout"/>
                  </use>
                  <path fill="none" stroke="white" stroke-width="1.5" d="M0,-3.0v7 M-2.5,-0.5L0,-3.0L2.5,-0.5"/>
                </g>
                <g id="arrowRight" xlink:href="#dirArrow" transform="rotate(90) translate(36 -43)" onmousedown="handlePan(1,0)">
                  <use xlink:href="#rim" fill="#404040">
                        <set attributeName="fill" to="#808080" begin="arrowRight.mouseover" end="arrowRight.mouseout"/>
                  </use>
                  <path fill="none" stroke="white" stroke-width="1.5" d="M0,-3.0v7 M-2.5,-0.5L0,-3.0L2.5,-0.5"/>
                </g>
                <g id="arrowDown" xlink:href="#dirArrow" transform="rotate(180) translate(-30 -48)" onmousedown="handlePan(0,1)">
                  <use xlink:href="#rim" fill="#404040">
                        <set attributeName="fill" to="#808080" begin="arrowDown.mouseover" end="arrowDown.mouseout"/>
                  </use>
                  <path fill="none" stroke="white" stroke-width="1.5" d="M0,-3.0v7 M-2.5,-0.5L0,-3.0L2.5,-0.5"/>
                </g>
                <g id="arrowLeft" xlink:href="#dirArrow" transform="rotate(270) translate(-36 17)" onmousedown="handlePan(-1,0)">
                  <use xlink:href="#rim" fill="#404040">
                        <set attributeName="fill" to="#808080" begin="arrowLeft.mouseover" end="arrowLeft.mouseout"/>
                  </use>
                  <path fill="none" stroke="white" stroke-width="1.5" d="M0,-3.0v7 M-2.5,-0.5L0,-3.0L2.5,-0.5"/>
                </g>
        </g>
        <svg viewBox="0 0 15 15" width="100%" height="30px" preserveAspectRatio="xMaxYMin meet">
         <g id="arrow_out" transform="scale(0.3 0.3)">
          <a xlink:href="phase__ring__book_8h__dep__incl_org.svg" target="_base">
           <rect id="button" ry="5" rx="5" y="6" x="6" height="38" width="38"
                fill="#f2f5e9" fill-opacity="0.5" stroke="#606060" stroke-width="1.0"/>
           <path id="arrow"
             d="M 11.500037,31.436501 C 11.940474,20.09759 22.043105,11.32322 32.158766,21.979434 L 37.068811,17.246167 C 37.068811,17.246167 37.088388,32 37.088388,32 L 22.160133,31.978069 C 22.160133,31.978069 26.997745,27.140456 26.997745,27.140456 C 18.528582,18.264221 13.291696,25.230495 11.500037,31.436501 z"
             style="fill:#404040;"/>
          </a>
         </g>
        </svg>
</svg>
