<?xml version="1.0" encoding="UTF-8" standalone="no"?>
<!DOCTYPE svg PUBLIC "-//W3C//DTD SVG 1.1//EN"
 "http://www.w3.org/Graphics/SVG/1.1/DTD/svg11.dtd">
<!-- Generated by graphviz version 2.40.1 (20161225.0304)
 -->
<!-- Title: quaternion.h Pages: 1 -->
<svg width="572pt" height="274pt"
 viewBox="0.00 0.00 572.00 274.00" xmlns="http://www.w3.org/2000/svg" xmlns:xlink="http://www.w3.org/1999/xlink">
<g id="graph0" class="graph" transform="scale(1 1) rotate(0) translate(4 270)">
<title>quaternion.h</title>
<polygon fill="#ffffff" stroke="transparent" points="-4,4 -4,-270 568,-270 568,4 -4,4"/>
<!-- Node0 -->
<g id="node1" class="node">
<title>Node0</title>
<polygon fill="#bfbfbf" stroke="#000000" points="171.5,-246.5 171.5,-265.5 249.5,-265.5 249.5,-246.5 171.5,-246.5"/>
<text text-anchor="middle" x="210.5" y="-253.5" font-family="Helvetica,sans-Serif" font-size="10.00" fill="#000000">quaternion.h</text>
</g>
<!-- Node1 -->
<g id="node2" class="node">
<title>Node1</title>
<polygon fill="#ffffff" stroke="#bfbfbf" points="0,-185 0,-204 47,-204 47,-185 0,-185"/>
<text text-anchor="middle" x="23.5" y="-192" font-family="Helvetica,sans-Serif" font-size="10.00" fill="#000000">cmath</text>
</g>
<!-- Node0&#45;&gt;Node1 -->
<g id="edge1" class="edge">
<title>Node0&#45;&gt;Node1</title>
<path fill="none" stroke="#191970" d="M172.0192,-246.4476C140.2974,-238.1308 94.366,-225.065 55.5,-210 54.097,-209.4562 52.6711,-208.8754 51.2394,-208.2697"/>
<polygon fill="#191970" stroke="#191970" points="52.4402,-204.9714 41.8868,-204.0361 49.5536,-211.3485 52.4402,-204.9714"/>
</g>
<!-- Node2 -->
<g id="node3" class="node">
<title>Node2</title>
<polygon fill="#ffffff" stroke="#bfbfbf" points="65,-185 65,-204 122,-204 122,-185 65,-185"/>
<text text-anchor="middle" x="93.5" y="-192" font-family="Helvetica,sans-Serif" font-size="10.00" fill="#000000">ostream</text>
</g>
<!-- Node0&#45;&gt;Node2 -->
<g id="edge2" class="edge">
<title>Node0&#45;&gt;Node2</title>
<path fill="none" stroke="#191970" d="M192.2188,-246.3906C172.9859,-236.2811 142.5121,-220.2628 120.5075,-208.6962"/>
<polygon fill="#191970" stroke="#191970" points="122.133,-205.5967 111.6529,-204.0419 118.876,-211.7928 122.133,-205.5967"/>
</g>
<!-- Node3 -->
<g id="node4" class="node">
<title>Node3</title>
<g id="a_node4"><a xlink:href="maliput__copyable_8h.html" target="_top" xlink:title="Code in this file is inspired by: https://github.com/RobotLocomotion/drake/blob/master/common/drake_c...">
<polygon fill="#ffffff" stroke="#000000" points="140.5,-179.5 140.5,-209.5 280.5,-209.5 280.5,-179.5 140.5,-179.5"/>
<text text-anchor="start" x="148.5" y="-197.5" font-family="Helvetica,sans-Serif" font-size="10.00" fill="#000000">maliput/common/maliput</text>
<text text-anchor="middle" x="210.5" y="-186.5" font-family="Helvetica,sans-Serif" font-size="10.00" fill="#000000">_copyable.h</text>
</a>
</g>
</g>
<!-- Node0&#45;&gt;Node3 -->
<g id="edge3" class="edge">
<title>Node0&#45;&gt;Node3</title>
<path fill="none" stroke="#191970" d="M210.5,-246.3906C210.5,-239.2234 210.5,-229.0862 210.5,-219.671"/>
<polygon fill="#191970" stroke="#191970" points="214.0001,-219.5446 210.5,-209.5446 207.0001,-219.5446 214.0001,-219.5446"/>
</g>
<!-- Node4 -->
<g id="node5" class="node">
<title>Node4</title>
<g id="a_node5"><a xlink:href="matrix_8h.html" target="_top" xlink:title="maliput/math/matrix.h">
<polygon fill="#ffffff" stroke="#000000" points="337,-185 337,-204 464,-204 464,-185 337,-185"/>
<text text-anchor="middle" x="400.5" y="-192" font-family="Helvetica,sans-Serif" font-size="10.00" fill="#000000">maliput/math/matrix.h</text>
</a>
</g>
</g>
<!-- Node0&#45;&gt;Node4 -->
<g id="edge4" class="edge">
<title>Node0&#45;&gt;Node4</title>
<path fill="none" stroke="#191970" d="M240.1875,-246.3906C272.8146,-235.8298 325.3626,-218.8208 361.3425,-207.1747"/>
<polygon fill="#191970" stroke="#191970" points="362.5848,-210.4514 371.021,-204.0419 360.4291,-203.7916 362.5848,-210.4514"/>
</g>
<!-- Node10 -->
<g id="node11" class="node">
<title>Node10</title>
<g id="a_node11"><a xlink:href="vector_8h.html" target="_top" xlink:title="maliput/math/vector.h">
<polygon fill="#ffffff" stroke="#000000" points="246,-123.5 246,-142.5 371,-142.5 371,-123.5 246,-123.5"/>
<text text-anchor="middle" x="308.5" y="-130.5" font-family="Helvetica,sans-Serif" font-size="10.00" fill="#000000">maliput/math/vector.h</text>
</a>
</g>
</g>
<!-- Node0&#45;&gt;Node10 -->
<g id="edge18" class="edge">
<title>Node0&#45;&gt;Node10</title>
<path fill="none" stroke="#191970" d="M238.1561,-246.3795C255.3911,-239.005 276.658,-227.1507 289.5,-210 301.972,-193.3435 306.3401,-169.5188 307.8259,-152.7939"/>
<polygon fill="#191970" stroke="#191970" points="311.3369,-152.7209 308.4582,-142.5247 304.3501,-152.2906 311.3369,-152.7209"/>
</g>
<!-- Node5 -->
<g id="node6" class="node">
<title>Node5</title>
<polygon fill="#ffffff" stroke="#bfbfbf" points="368.5,-62 368.5,-81 432.5,-81 432.5,-62 368.5,-62"/>
<text text-anchor="middle" x="400.5" y="-69" font-family="Helvetica,sans-Serif" font-size="10.00" fill="#000000">algorithm</text>
</g>
<!-- Node4&#45;&gt;Node5 -->
<g id="edge5" class="edge">
<title>Node4&#45;&gt;Node5</title>
<path fill="none" stroke="#191970" d="M400.5,-184.8484C400.5,-164.7295 400.5,-117.9608 400.5,-91.2098"/>
<polygon fill="#191970" stroke="#191970" points="404.0001,-91.1067 400.5,-81.1068 397.0001,-91.1068 404.0001,-91.1067"/>
</g>
<!-- Node6 -->
<g id="node7" class="node">
<title>Node6</title>
<polygon fill="#ffffff" stroke="#bfbfbf" points="450.5,-62 450.5,-81 492.5,-81 492.5,-62 450.5,-62"/>
<text text-anchor="middle" x="471.5" y="-69" font-family="Helvetica,sans-Serif" font-size="10.00" fill="#000000">array</text>
</g>
<!-- Node4&#45;&gt;Node6 -->
<g id="edge6" class="edge">
<title>Node4&#45;&gt;Node6</title>
<path fill="none" stroke="#191970" d="M406.0713,-184.8484C417.892,-164.3703 445.6502,-116.282 460.9388,-89.7962"/>
<polygon fill="#191970" stroke="#191970" points="463.9866,-91.5172 465.9546,-81.1068 457.9241,-88.0177 463.9866,-91.5172"/>
</g>
<!-- Node7 -->
<g id="node8" class="node">
<title>Node7</title>
<polygon fill="#ffffff" stroke="#bfbfbf" points="511,-62 511,-81 564,-81 564,-62 511,-62"/>
<text text-anchor="middle" x="537.5" y="-69" font-family="Helvetica,sans-Serif" font-size="10.00" fill="#000000">cstddef</text>
</g>
<!-- Node4&#45;&gt;Node7 -->
<g id="edge7" class="edge">
<title>Node4&#45;&gt;Node7</title>
<path fill="none" stroke="#191970" d="M411.2502,-184.8484C434.5593,-163.9212 489.9848,-114.1596 519.0269,-88.0854"/>
<polygon fill="#191970" stroke="#191970" points="521.697,-90.3918 526.7998,-81.1068 517.0205,-85.1831 521.697,-90.3918"/>
</g>
<!-- Node8 -->
<g id="node9" class="node">
<title>Node8</title>
<polygon fill="#ffffff" stroke="#bfbfbf" points="31,-62 31,-81 114,-81 114,-62 31,-62"/>
<text text-anchor="middle" x="72.5" y="-69" font-family="Helvetica,sans-Serif" font-size="10.00" fill="#000000">initializer_list</text>
</g>
<!-- Node4&#45;&gt;Node8 -->
<g id="edge8" class="edge">
<title>Node4&#45;&gt;Node8</title>
<path fill="none" stroke="#191970" d="M353.406,-184.9398C313.9553,-176.2087 256.5463,-161.8037 208.5,-143 167.6138,-126.9985 123.0834,-102.0167 96.4962,-86.2169"/>
<polygon fill="#191970" stroke="#191970" points="98.2508,-83.1879 87.8757,-81.041 94.6474,-89.1893 98.2508,-83.1879"/>
</g>
<!-- Node9 -->
<g id="node10" class="node">
<title>Node9</title>
<polygon fill="#ffffff" stroke="#bfbfbf" points="132.5,-62 132.5,-81 192.5,-81 192.5,-62 132.5,-62"/>
<text text-anchor="middle" x="162.5" y="-69" font-family="Helvetica,sans-Serif" font-size="10.00" fill="#000000">iostream</text>
</g>
<!-- Node4&#45;&gt;Node9 -->
<g id="edge9" class="edge">
<title>Node4&#45;&gt;Node9</title>
<path fill="none" stroke="#191970" d="M349.547,-184.9162C315.8185,-177.0721 271.5178,-163.8124 236.5,-143 212.6585,-128.8301 190.5187,-105.5507 176.785,-89.4221"/>
<polygon fill="#191970" stroke="#191970" points="179.1351,-86.7723 170.0625,-81.3006 173.7427,-91.2358 179.1351,-86.7723"/>
</g>
<!-- Node4&#45;&gt;Node10 -->
<g id="edge10" class="edge">
<title>Node4&#45;&gt;Node10</title>
<path fill="none" stroke="#191970" d="M386.125,-184.8906C371.4069,-175.0519 348.3168,-159.6167 331.1411,-148.1351"/>
<polygon fill="#191970" stroke="#191970" points="333.0327,-145.1896 322.7741,-142.5419 329.1425,-151.0091 333.0327,-145.1896"/>
</g>
<!-- Node10&#45;&gt;Node5 -->
<g id="edge11" class="edge">
<title>Node10&#45;&gt;Node5</title>
<path fill="none" stroke="#191970" d="M322.875,-123.3906C337.5931,-113.5519 360.6832,-98.1167 377.8589,-86.6351"/>
<polygon fill="#191970" stroke="#191970" points="379.8575,-89.5091 386.2259,-81.0419 375.9673,-83.6896 379.8575,-89.5091"/>
</g>
<!-- Node10&#45;&gt;Node6 -->
<g id="edge12" class="edge">
<title>Node10&#45;&gt;Node6</title>
<path fill="none" stroke="#191970" d="M340.1556,-123.4678C367.4111,-114.9269 407.5908,-101.5344 441.5,-87 442.5238,-86.5612 443.5608,-86.1021 444.6036,-85.6282"/>
<polygon fill="#191970" stroke="#191970" points="446.4608,-88.6177 453.9359,-81.1095 443.4102,-82.3174 446.4608,-88.6177"/>
</g>
<!-- Node10&#45;&gt;Node7 -->
<g id="edge13" class="edge">
<title>Node10&#45;&gt;Node7</title>
<path fill="none" stroke="#191970" d="M359.1508,-123.4237C398.4724,-115.3934 454.0938,-102.7242 501.5,-87 503.3892,-86.3734 505.3166,-85.6876 507.2489,-84.9644"/>
<polygon fill="#191970" stroke="#191970" points="508.817,-88.1066 516.7962,-81.1365 506.2119,-81.6093 508.817,-88.1066"/>
</g>
<!-- Node10&#45;&gt;Node8 -->
<g id="edge14" class="edge">
<title>Node10&#45;&gt;Node8</title>
<path fill="none" stroke="#191970" d="M267.56,-123.4582C229.9676,-114.5455 172.7893,-100.6082 123.5,-87 119.9458,-86.0187 116.2626,-84.9674 112.5765,-83.8917"/>
<polygon fill="#191970" stroke="#191970" points="113.4822,-80.5096 102.8995,-81.0183 111.4896,-87.2201 113.4822,-80.5096"/>
</g>
<!-- Node10&#45;&gt;Node9 -->
<g id="edge15" class="edge">
<title>Node10&#45;&gt;Node9</title>
<path fill="none" stroke="#191970" d="M285.6875,-123.3906C261.1519,-113.0554 221.9558,-96.5447 194.3789,-84.9284"/>
<polygon fill="#191970" stroke="#191970" points="195.7268,-81.6984 185.1523,-81.0419 193.0094,-88.1495 195.7268,-81.6984"/>
</g>
<!-- Node11 -->
<g id="node12" class="node">
<title>Node11</title>
<g id="a_node12"><a xlink:href="maliput__throw_8h.html" target="_top" xlink:title="Code in this file is inspired by: https://github.com/RobotLocomotion/drake/blob/master/common/drake_t...">
<polygon fill="#ffffff" stroke="#000000" points="210.5,-56.5 210.5,-86.5 350.5,-86.5 350.5,-56.5 210.5,-56.5"/>
<text text-anchor="start" x="218.5" y="-74.5" font-family="Helvetica,sans-Serif" font-size="10.00" fill="#000000">maliput/common/maliput</text>
<text text-anchor="middle" x="280.5" y="-63.5" font-family="Helvetica,sans-Serif" font-size="10.00" fill="#000000">_throw.h</text>
</a>
</g>
</g>
<!-- Node10&#45;&gt;Node11 -->
<g id="edge16" class="edge">
<title>Node10&#45;&gt;Node11</title>
<path fill="none" stroke="#191970" d="M304.125,-123.3906C300.7566,-115.9922 295.9474,-105.4291 291.5462,-95.7623"/>
<polygon fill="#191970" stroke="#191970" points="294.6786,-94.1954 287.3496,-86.5446 288.3078,-97.096 294.6786,-94.1954"/>
</g>
<!-- Node12 -->
<g id="node13" class="node">
<title>Node12</title>
<polygon fill="#ffffff" stroke="#bfbfbf" points="258.5,-.5 258.5,-19.5 302.5,-19.5 302.5,-.5 258.5,-.5"/>
<text text-anchor="middle" x="280.5" y="-7.5" font-family="Helvetica,sans-Serif" font-size="10.00" fill="#000000">string</text>
</g>
<!-- Node11&#45;&gt;Node12 -->
<g id="edge17" class="edge">
<title>Node11&#45;&gt;Node12</title>
<path fill="none" stroke="#191970" d="M280.5,-56.2977C280.5,-48.3834 280.5,-38.6043 280.5,-30.0759"/>
<polygon fill="#191970" stroke="#191970" points="284.0001,-29.8469 280.5,-19.8469 277.0001,-29.847 284.0001,-29.8469"/>
</g>
</g>
</svg>
