<?xml version="1.0" encoding="UTF-8" standalone="no"?>
<!DOCTYPE svg PUBLIC "-//W3C//DTD SVG 1.1//EN"
 "http://www.w3.org/Graphics/SVG/1.1/DTD/svg11.dtd">
<!-- Generated by graphviz version 2.40.1 (20161225.0304)
 -->
<!-- Title: range_value_rule_state_provider.h Pages: 1 -->
<svg width="745pt" height="285pt"
 viewBox="0.00 0.00 744.50 285.00" xmlns="http://www.w3.org/2000/svg" xmlns:xlink="http://www.w3.org/1999/xlink">
<g id="graph0" class="graph" transform="scale(1 1) rotate(0) translate(4 281)">
<title>range_value_rule_state_provider.h</title>
<polygon fill="#ffffff" stroke="transparent" points="-4,4 -4,-281 740.5,-281 740.5,4 -4,4"/>
<!-- Node33 -->
<g id="node1" class="node">
<title>Node33</title>
<polygon fill="#bfbfbf" stroke="#000000" points="530.5,-246.5 530.5,-276.5 661.5,-276.5 661.5,-246.5 530.5,-246.5"/>
<text text-anchor="start" x="538.5" y="-264.5" font-family="Helvetica,sans-Serif" font-size="10.00" fill="#000000">range_value_rule_state</text>
<text text-anchor="middle" x="596" y="-253.5" font-family="Helvetica,sans-Serif" font-size="10.00" fill="#000000">_provider.h</text>
</g>
<!-- Node34 -->
<g id="node2" class="node">
<title>Node34</title>
<g id="a_node2"><a xlink:href="road__network_8h.html" target="_top" xlink:title="road_network.h">
<polygon fill="#ffffff" stroke="#000000" points="307,-185 307,-204 399,-204 399,-185 307,-185"/>
<text text-anchor="middle" x="353" y="-192" font-family="Helvetica,sans-Serif" font-size="10.00" fill="#000000">road_network.h</text>
</a>
</g>
</g>
<!-- Node33&#45;&gt;Node34 -->
<g id="edge1" class="edge">
<title>Node33&#45;&gt;Node34</title>
<path fill="none" stroke="#191970" d="M531.5356,-243.7259C485.3108,-230.9807 424.839,-214.3075 387.4744,-204.0053"/>
<polygon fill="#191970" stroke="#191970" points="530.8954,-247.1799 541.4661,-246.4639 532.7561,-240.4317 530.8954,-247.1799"/>
</g>
<!-- Node43 -->
<g id="node11" class="node">
<title>Node43</title>
<g id="a_node11"><a xlink:href="manual__range__value__rule__state__provider_8h.html" target="_top" xlink:title="manual_range_value\l_rule_state_provider.h">
<polygon fill="#ffffff" stroke="#000000" points="533.5,-179.5 533.5,-209.5 658.5,-209.5 658.5,-179.5 533.5,-179.5"/>
<text text-anchor="start" x="541.5" y="-197.5" font-family="Helvetica,sans-Serif" font-size="10.00" fill="#000000">manual_range_value</text>
<text text-anchor="middle" x="596" y="-186.5" font-family="Helvetica,sans-Serif" font-size="10.00" fill="#000000">_rule_state_provider.h</text>
</a>
</g>
</g>
<!-- Node33&#45;&gt;Node43 -->
<g id="edge11" class="edge">
<title>Node33&#45;&gt;Node43</title>
<path fill="none" stroke="#191970" d="M596,-236.0249C596,-227.128 596,-217.4287 596,-209.6432"/>
<polygon fill="#191970" stroke="#191970" points="592.5001,-236.2966 596,-246.2967 599.5001,-236.2967 592.5001,-236.2966"/>
</g>
<!-- Node45 -->
<g id="node13" class="node">
<title>Node45</title>
<g id="a_node13"><a xlink:href="mock_8h.html" target="_top" xlink:title="mock.h">
<polygon fill="#ffffff" stroke="#000000" points="678.5,-185 678.5,-204 731.5,-204 731.5,-185 678.5,-185"/>
<text text-anchor="middle" x="705" y="-192" font-family="Helvetica,sans-Serif" font-size="10.00" fill="#000000">mock.h</text>
</a>
</g>
</g>
<!-- Node33&#45;&gt;Node45 -->
<g id="edge13" class="edge">
<title>Node33&#45;&gt;Node45</title>
<path fill="none" stroke="#191970" d="M629.0086,-241.2103C649.0425,-228.8959 673.6898,-213.7457 689.3757,-204.1039"/>
<polygon fill="#191970" stroke="#191970" points="627.1482,-238.2455 620.4617,-246.4639 630.8138,-244.209 627.1482,-238.2455"/>
</g>
<!-- Node35 -->
<g id="node3" class="node">
<title>Node35</title>
<g id="a_node3"><a xlink:href="road__network__validator_8h.html" target="_top" xlink:title="road_network_validator.h">
<polygon fill="#ffffff" stroke="#000000" points="2.5,-118 2.5,-137 143.5,-137 143.5,-118 2.5,-118"/>
<text text-anchor="middle" x="73" y="-125" font-family="Helvetica,sans-Serif" font-size="10.00" fill="#000000">road_network_validator.h</text>
</a>
</g>
</g>
<!-- Node34&#45;&gt;Node35 -->
<g id="edge2" class="edge">
<title>Node34&#45;&gt;Node35</title>
<path fill="none" stroke="#191970" d="M303.4378,-182.6405C249.2047,-169.6633 163.318,-149.1118 113.1358,-137.1039"/>
<polygon fill="#191970" stroke="#191970" points="302.6402,-186.0484 313.1802,-184.9717 304.2693,-179.2405 302.6402,-186.0484"/>
</g>
<!-- Node37 -->
<g id="node5" class="node">
<title>Node37</title>
<g id="a_node5"><a xlink:href="road__network__loader_8h.html" target="_top" xlink:title="road_network_loader.h">
<polygon fill="#ffffff" stroke="#000000" points="162,-118 162,-137 290,-137 290,-118 162,-118"/>
<text text-anchor="middle" x="226" y="-125" font-family="Helvetica,sans-Serif" font-size="10.00" fill="#000000">road_network_loader.h</text>
</a>
</g>
</g>
<!-- Node34&#45;&gt;Node37 -->
<g id="edge4" class="edge">
<title>Node34&#45;&gt;Node37</title>
<path fill="none" stroke="#191970" d="M325.9504,-180.2298C301.2953,-167.2227 265.5549,-148.3676 244.1622,-137.0817"/>
<polygon fill="#191970" stroke="#191970" points="324.3262,-183.33 334.804,-184.9005 327.5925,-177.1388 324.3262,-183.33"/>
</g>
<!-- Node38 -->
<g id="node6" class="node">
<title>Node38</title>
<g id="a_node6"><a xlink:href="generate__obj_8h.html" target="_top" xlink:title="generate_obj.h">
<polygon fill="#ffffff" stroke="#000000" points="308.5,-118 308.5,-137 397.5,-137 397.5,-118 308.5,-118"/>
<text text-anchor="middle" x="353" y="-125" font-family="Helvetica,sans-Serif" font-size="10.00" fill="#000000">generate_obj.h</text>
</a>
</g>
</g>
<!-- Node34&#45;&gt;Node38 -->
<g id="edge5" class="edge">
<title>Node34&#45;&gt;Node38</title>
<path fill="none" stroke="#191970" d="M353,-174.6079C353,-162.214 353,-146.8263 353,-137.0817"/>
<polygon fill="#191970" stroke="#191970" points="349.5001,-174.9005 353,-184.9005 356.5001,-174.9006 349.5001,-174.9005"/>
</g>
<!-- Node42 -->
<g id="node10" class="node">
<title>Node42</title>
<g id="a_node10"><a xlink:href="road__network_8cc.html" target="_top" xlink:title="road_network.cc">
<polygon fill="#ffffff" stroke="#000000" points="415.5,-118 415.5,-137 512.5,-137 512.5,-118 415.5,-118"/>
<text text-anchor="middle" x="464" y="-125" font-family="Helvetica,sans-Serif" font-size="10.00" fill="#000000">road_network.cc</text>
</a>
</g>
</g>
<!-- Node34&#45;&gt;Node42 -->
<g id="edge10" class="edge">
<title>Node34&#45;&gt;Node42</title>
<path fill="none" stroke="#191970" d="M377.5011,-179.711C399.0142,-166.7256 429.6755,-148.2184 448.1259,-137.0817"/>
<polygon fill="#191970" stroke="#191970" points="375.6562,-176.7364 368.9036,-184.9005 379.2736,-182.7293 375.6562,-176.7364"/>
</g>
<!-- Node36 -->
<g id="node4" class="node">
<title>Node36</title>
<g id="a_node4"><a xlink:href="road__network__validator_8cc.html" target="_top" xlink:title="road_network_validator.cc">
<polygon fill="#ffffff" stroke="#000000" points="0,-56.5 0,-75.5 146,-75.5 146,-56.5 0,-56.5"/>
<text text-anchor="middle" x="73" y="-63.5" font-family="Helvetica,sans-Serif" font-size="10.00" fill="#000000">road_network_validator.cc</text>
</a>
</g>
</g>
<!-- Node35&#45;&gt;Node36 -->
<g id="edge3" class="edge">
<title>Node35&#45;&gt;Node36</title>
<path fill="none" stroke="#191970" d="M73,-107.7462C73,-97.0519 73,-84.314 73,-75.7449"/>
<polygon fill="#191970" stroke="#191970" points="69.5001,-107.8906 73,-117.8906 76.5001,-107.8907 69.5001,-107.8906"/>
</g>
<!-- Node39 -->
<g id="node7" class="node">
<title>Node39</title>
<g id="a_node7"><a xlink:href="generate__urdf_8h.html" target="_top" xlink:title="generate_urdf.h">
<polygon fill="#ffffff" stroke="#000000" points="231,-56.5 231,-75.5 325,-75.5 325,-56.5 231,-56.5"/>
<text text-anchor="middle" x="278" y="-63.5" font-family="Helvetica,sans-Serif" font-size="10.00" fill="#000000">generate_urdf.h</text>
</a>
</g>
</g>
<!-- Node38&#45;&gt;Node39 -->
<g id="edge6" class="edge">
<title>Node38&#45;&gt;Node39</title>
<path fill="none" stroke="#191970" d="M333.3283,-111.3692C319.5337,-100.0576 301.5442,-85.3062 289.884,-75.7449"/>
<polygon fill="#191970" stroke="#191970" points="331.3293,-114.2562 341.2813,-117.8906 335.7678,-108.8433 331.3293,-114.2562"/>
</g>
<!-- Node40 -->
<g id="node8" class="node">
<title>Node40</title>
<g id="a_node8"><a xlink:href="generate__urdf_8cc.html" target="_top" xlink:title="generate_urdf.cc">
<polygon fill="#ffffff" stroke="#000000" points="266,-.5 266,-19.5 364,-19.5 364,-.5 266,-.5"/>
<text text-anchor="middle" x="315" y="-7.5" font-family="Helvetica,sans-Serif" font-size="10.00" fill="#000000">generate_urdf.cc</text>
</a>
</g>
</g>
<!-- Node38&#45;&gt;Node40 -->
<g id="edge9" class="edge">
<title>Node38&#45;&gt;Node40</title>
<path fill="none" stroke="#191970" d="M348.5128,-107.8238C345.0322,-93.3443 339.8297,-73.2605 334,-56 329.6868,-43.2295 323.5749,-28.9415 319.4581,-19.7276"/>
<polygon fill="#191970" stroke="#191970" points="345.1298,-108.7277 350.8207,-117.6643 351.9448,-107.1293 345.1298,-108.7277"/>
</g>
<!-- Node41 -->
<g id="node9" class="node">
<title>Node41</title>
<g id="a_node9"><a xlink:href="generate__obj_8cc.html" target="_top" xlink:title="generate_obj.cc">
<polygon fill="#ffffff" stroke="#000000" points="381,-56.5 381,-75.5 475,-75.5 475,-56.5 381,-56.5"/>
<text text-anchor="middle" x="428" y="-63.5" font-family="Helvetica,sans-Serif" font-size="10.00" fill="#000000">generate_obj.cc</text>
</a>
</g>
</g>
<!-- Node38&#45;&gt;Node41 -->
<g id="edge8" class="edge">
<title>Node38&#45;&gt;Node41</title>
<path fill="none" stroke="#191970" d="M372.6717,-111.3692C386.4663,-100.0576 404.4558,-85.3062 416.116,-75.7449"/>
<polygon fill="#191970" stroke="#191970" points="370.2322,-108.8433 364.7188,-117.8906 374.6707,-114.2562 370.2322,-108.8433"/>
</g>
<!-- Node39&#45;&gt;Node40 -->
<g id="edge7" class="edge">
<title>Node39&#45;&gt;Node40</title>
<path fill="none" stroke="#191970" d="M290.1376,-47.6296C296.3093,-38.2887 303.5566,-27.3197 308.6289,-19.6427"/>
<polygon fill="#191970" stroke="#191970" points="287.0373,-45.9728 284.4449,-56.2455 292.8777,-49.8316 287.0373,-45.9728"/>
</g>
<!-- Node44 -->
<g id="node12" class="node">
<title>Node44</title>
<g id="a_node12"><a xlink:href="manual__range__value__rule__state__provider_8cc.html" target="_top" xlink:title="manual_range_value\l_rule_state_provider.cc">
<polygon fill="#ffffff" stroke="#000000" points="531,-112.5 531,-142.5 661,-142.5 661,-112.5 531,-112.5"/>
<text text-anchor="start" x="539" y="-130.5" font-family="Helvetica,sans-Serif" font-size="10.00" fill="#000000">manual_range_value</text>
<text text-anchor="middle" x="596" y="-119.5" font-family="Helvetica,sans-Serif" font-size="10.00" fill="#000000">_rule_state_provider.cc</text>
</a>
</g>
</g>
<!-- Node43&#45;&gt;Node44 -->
<g id="edge12" class="edge">
<title>Node43&#45;&gt;Node44</title>
<path fill="none" stroke="#191970" d="M596,-169.0249C596,-160.128 596,-150.4287 596,-142.6432"/>
<polygon fill="#191970" stroke="#191970" points="592.5001,-169.2966 596,-179.2967 599.5001,-169.2967 592.5001,-169.2966"/>
</g>
<!-- Node46 -->
<g id="node14" class="node">
<title>Node46</title>
<g id="a_node14"><a xlink:href="mock_8cc.html" target="_top" xlink:title="mock.cc">
<polygon fill="#ffffff" stroke="#000000" points="679.5,-118 679.5,-137 736.5,-137 736.5,-118 679.5,-118"/>
<text text-anchor="middle" x="708" y="-125" font-family="Helvetica,sans-Serif" font-size="10.00" fill="#000000">mock.cc</text>
</a>
</g>
</g>
<!-- Node45&#45;&gt;Node46 -->
<g id="edge14" class="edge">
<title>Node45&#45;&gt;Node46</title>
<path fill="none" stroke="#191970" d="M705.8907,-174.6079C706.4456,-162.214 707.1346,-146.8263 707.571,-137.0817"/>
<polygon fill="#191970" stroke="#191970" points="702.3807,-174.754 705.4298,-184.9005 709.3737,-175.0671 702.3807,-174.754"/>
</g>
</g>
</svg>
