<?xml version="1.0" encoding="UTF-8" standalone="no"?>
<!DOCTYPE svg PUBLIC "-//W3C//DTD SVG 1.1//EN"
 "http://www.w3.org/Graphics/SVG/1.1/DTD/svg11.dtd">
<!-- Generated by graphviz version 2.43.0 (0)
 -->
<!-- Title: range_value_rule_state_provider.h Pages: 1 -->
<svg width="929pt" height="285pt"
 viewBox="0.00 0.00 929.00 285.00" xmlns="http://www.w3.org/2000/svg" xmlns:xlink="http://www.w3.org/1999/xlink">
<g id="graph0" class="graph" transform="scale(1 1) rotate(0) translate(4 281)">
<title>range_value_rule_state_provider.h</title>
<polygon fill="white" stroke="transparent" points="-4,4 -4,-281 925,-281 925,4 -4,4"/>
<!-- Node1 -->
<g id="node1" class="node">
<title>Node1</title>
<g id="a_node1"><a xlink:title=" ">
<polygon fill="#bfbfbf" stroke="black" points="680.5,-246.5 680.5,-276.5 811.5,-276.5 811.5,-246.5 680.5,-246.5"/>
<text text-anchor="start" x="688.5" y="-264.5" font-family="Helvetica,sans-Serif" font-size="10.00">range_value_rule_state</text>
<text text-anchor="middle" x="746" y="-253.5" font-family="Helvetica,sans-Serif" font-size="10.00">_provider.h</text>
</a>
</g>
</g>
<!-- Node2 -->
<g id="node2" class="node">
<title>Node2</title>
<g id="a_node2"><a xlink:href="road__network_8h.html" target="_top" xlink:title=" ">
<polygon fill="white" stroke="black" points="460,-185 460,-204 552,-204 552,-185 460,-185"/>
<text text-anchor="middle" x="506" y="-192" font-family="Helvetica,sans-Serif" font-size="10.00">road_network.h</text>
</a>
</g>
</g>
<!-- Node1&#45;&gt;Node2 -->
<g id="edge1" class="edge">
<title>Node1&#45;&gt;Node2</title>
<path fill="none" stroke="midnightblue" d="M684.45,-243.83C637.48,-231.11 574.7,-214.11 537.49,-204.03"/>
<polygon fill="midnightblue" stroke="midnightblue" points="683.65,-247.24 694.22,-246.48 685.48,-240.48 683.65,-247.24"/>
</g>
<!-- Node8 -->
<g id="node8" class="node">
<title>Node8</title>
<g id="a_node8"><a xlink:href="mock_8h.html" target="_top" xlink:title=" ">
<polygon fill="white" stroke="black" points="719.5,-118 719.5,-137 772.5,-137 772.5,-118 719.5,-118"/>
<text text-anchor="middle" x="746" y="-125" font-family="Helvetica,sans-Serif" font-size="10.00">mock.h</text>
</a>
</g>
</g>
<!-- Node1&#45;&gt;Node8 -->
<g id="edge18" class="edge">
<title>Node1&#45;&gt;Node8</title>
<path fill="none" stroke="midnightblue" d="M746,-236.32C746,-206.38 746,-156.91 746,-137.1"/>
<polygon fill="midnightblue" stroke="midnightblue" points="742.5,-236.37 746,-246.37 749.5,-236.37 742.5,-236.37"/>
</g>
<!-- Node15 -->
<g id="node15" class="node">
<title>Node15</title>
<g id="a_node15"><a xlink:href="manual__range__value__rule__state__provider_8h.html" target="_top" xlink:title=" ">
<polygon fill="white" stroke="black" points="783.5,-179.5 783.5,-209.5 908.5,-209.5 908.5,-179.5 783.5,-179.5"/>
<text text-anchor="start" x="791.5" y="-197.5" font-family="Helvetica,sans-Serif" font-size="10.00">manual_range_value</text>
<text text-anchor="middle" x="846" y="-186.5" font-family="Helvetica,sans-Serif" font-size="10.00">_rule_state_provider.h</text>
</a>
</g>
</g>
<!-- Node1&#45;&gt;Node15 -->
<g id="edge16" class="edge">
<title>Node1&#45;&gt;Node15</title>
<path fill="none" stroke="midnightblue" d="M776.41,-240.73C791.88,-230.68 810.33,-218.68 824.34,-209.58"/>
<polygon fill="midnightblue" stroke="midnightblue" points="774.18,-238.01 767.7,-246.4 777.99,-243.88 774.18,-238.01"/>
</g>
<!-- Node3 -->
<g id="node3" class="node">
<title>Node3</title>
<g id="a_node3"><a xlink:href="road__network__validator_8h.html" target="_top" xlink:title=" ">
<polygon fill="white" stroke="black" points="42.5,-118 42.5,-137 183.5,-137 183.5,-118 42.5,-118"/>
<text text-anchor="middle" x="113" y="-125" font-family="Helvetica,sans-Serif" font-size="10.00">road_network_validator.h</text>
</a>
</g>
</g>
<!-- Node2&#45;&gt;Node3 -->
<g id="edge2" class="edge">
<title>Node2&#45;&gt;Node3</title>
<path fill="none" stroke="midnightblue" d="M449.93,-184.71C387.44,-174.85 283.41,-158.24 194,-143 183.02,-141.13 171.2,-139.05 160.09,-137.07"/>
<polygon fill="midnightblue" stroke="midnightblue" points="449.55,-188.2 459.97,-186.3 450.64,-181.28 449.55,-188.2"/>
</g>
<!-- Node5 -->
<g id="node5" class="node">
<title>Node5</title>
<g id="a_node5"><a xlink:href="create__road__network_8h.html" target="_top" xlink:title=" ">
<polygon fill="white" stroke="black" points="573,-118 573,-137 701,-137 701,-118 573,-118"/>
<text text-anchor="middle" x="637" y="-125" font-family="Helvetica,sans-Serif" font-size="10.00">create_road_network.h</text>
</a>
</g>
</g>
<!-- Node2&#45;&gt;Node5 -->
<g id="edge4" class="edge">
<title>Node2&#45;&gt;Node5</title>
<path fill="none" stroke="midnightblue" d="M532.66,-180.27C558.6,-167.4 597.28,-148.21 619.53,-137.17"/>
<polygon fill="midnightblue" stroke="midnightblue" points="530.8,-177.29 523.4,-184.87 533.91,-183.56 530.8,-177.29"/>
</g>
<!-- Node7 -->
<g id="node7" class="node">
<title>Node7</title>
<g id="a_node7"><a xlink:href="road__network__loader_8h.html" target="_top" xlink:title=" ">
<polygon fill="white" stroke="black" points="311,-118 311,-137 439,-137 439,-118 311,-118"/>
<text text-anchor="middle" x="375" y="-125" font-family="Helvetica,sans-Serif" font-size="10.00">road_network_loader.h</text>
</a>
</g>
</g>
<!-- Node2&#45;&gt;Node7 -->
<g id="edge6" class="edge">
<title>Node2&#45;&gt;Node7</title>
<path fill="none" stroke="midnightblue" d="M479.34,-180.27C453.4,-167.4 414.72,-148.21 392.47,-137.17"/>
<polygon fill="midnightblue" stroke="midnightblue" points="478.09,-183.56 488.6,-184.87 481.2,-177.29 478.09,-183.56"/>
</g>
<!-- Node2&#45;&gt;Node8 -->
<g id="edge8" class="edge">
<title>Node2&#45;&gt;Node8</title>
<path fill="none" stroke="midnightblue" d="M557.8,-182.79C599.37,-173.68 659.01,-159.49 710,-143 715.26,-141.3 720.84,-139.2 726,-137.13"/>
<polygon fill="midnightblue" stroke="midnightblue" points="556.93,-179.39 547.9,-184.93 558.41,-186.23 556.93,-179.39"/>
</g>
<!-- Node10 -->
<g id="node10" class="node">
<title>Node10</title>
<g id="a_node10"><a xlink:href="generate__obj_8h.html" target="_top" xlink:title=" ">
<polygon fill="white" stroke="black" points="203.5,-118 203.5,-137 292.5,-137 292.5,-118 203.5,-118"/>
<text text-anchor="middle" x="248" y="-125" font-family="Helvetica,sans-Serif" font-size="10.00">generate_obj.h</text>
</a>
</g>
</g>
<!-- Node2&#45;&gt;Node10 -->
<g id="edge10" class="edge">
<title>Node2&#45;&gt;Node10</title>
<path fill="none" stroke="midnightblue" d="M460.79,-182.58C419.41,-172.52 356.5,-157.06 302,-143 294.67,-141.11 286.79,-139.02 279.38,-137.04"/>
<polygon fill="midnightblue" stroke="midnightblue" points="460.02,-185.99 470.57,-184.95 461.68,-179.19 460.02,-185.99"/>
</g>
<!-- Node14 -->
<g id="node14" class="node">
<title>Node14</title>
<g id="a_node14"><a xlink:href="road__network_8cc.html" target="_top" xlink:title=" ">
<polygon fill="white" stroke="black" points="457.5,-118 457.5,-137 554.5,-137 554.5,-118 457.5,-118"/>
<text text-anchor="middle" x="506" y="-125" font-family="Helvetica,sans-Serif" font-size="10.00">road_network.cc</text>
</a>
</g>
</g>
<!-- Node2&#45;&gt;Node14 -->
<g id="edge15" class="edge">
<title>Node2&#45;&gt;Node14</title>
<path fill="none" stroke="midnightblue" d="M506,-174.54C506,-162.17 506,-146.62 506,-137.13"/>
<polygon fill="midnightblue" stroke="midnightblue" points="502.5,-174.73 506,-184.73 509.5,-174.73 502.5,-174.73"/>
</g>
<!-- Node4 -->
<g id="node4" class="node">
<title>Node4</title>
<g id="a_node4"><a xlink:href="road__network__validator_8cc.html" target="_top" xlink:title=" ">
<polygon fill="white" stroke="black" points="0,-56.5 0,-75.5 146,-75.5 146,-56.5 0,-56.5"/>
<text text-anchor="middle" x="73" y="-63.5" font-family="Helvetica,sans-Serif" font-size="10.00">road_network_validator.cc</text>
</a>
</g>
</g>
<!-- Node3&#45;&gt;Node4 -->
<g id="edge3" class="edge">
<title>Node3&#45;&gt;Node4</title>
<path fill="none" stroke="midnightblue" d="M101.57,-109.51C94.1,-98.39 84.66,-84.34 78.72,-75.51"/>
<polygon fill="midnightblue" stroke="midnightblue" points="98.79,-111.63 107.27,-117.98 104.59,-107.72 98.79,-111.63"/>
</g>
<!-- Node6 -->
<g id="node6" class="node">
<title>Node6</title>
<g id="a_node6"><a xlink:href="create__road__network_8cc.html" target="_top" xlink:title=" ">
<polygon fill="white" stroke="black" points="515.5,-56.5 515.5,-75.5 648.5,-75.5 648.5,-56.5 515.5,-56.5"/>
<text text-anchor="middle" x="582" y="-63.5" font-family="Helvetica,sans-Serif" font-size="10.00">create_road_network.cc</text>
</a>
</g>
</g>
<!-- Node5&#45;&gt;Node6 -->
<g id="edge5" class="edge">
<title>Node5&#45;&gt;Node6</title>
<path fill="none" stroke="midnightblue" d="M622.21,-110.5C611.8,-99.24 598.27,-84.6 589.87,-75.51"/>
<polygon fill="midnightblue" stroke="midnightblue" points="619.76,-113.01 629.12,-117.98 624.9,-108.26 619.76,-113.01"/>
</g>
<!-- Node7&#45;&gt;Node6 -->
<g id="edge7" class="edge">
<title>Node7&#45;&gt;Node6</title>
<path fill="none" stroke="midnightblue" d="M414.4,-115.18C454.62,-103.61 516.15,-85.93 552.4,-75.51"/>
<polygon fill="midnightblue" stroke="midnightblue" points="413.3,-111.85 404.66,-117.98 415.24,-118.58 413.3,-111.85"/>
</g>
<!-- Node9 -->
<g id="node9" class="node">
<title>Node9</title>
<g id="a_node9"><a xlink:href="mock_8cc.html" target="_top" xlink:title=" ">
<polygon fill="white" stroke="black" points="717.5,-56.5 717.5,-75.5 774.5,-75.5 774.5,-56.5 717.5,-56.5"/>
<text text-anchor="middle" x="746" y="-63.5" font-family="Helvetica,sans-Serif" font-size="10.00">mock.cc</text>
</a>
</g>
</g>
<!-- Node8&#45;&gt;Node9 -->
<g id="edge9" class="edge">
<title>Node8&#45;&gt;Node9</title>
<path fill="none" stroke="midnightblue" d="M746,-107.82C746,-97 746,-83.9 746,-75.51"/>
<polygon fill="midnightblue" stroke="midnightblue" points="742.5,-107.98 746,-117.98 749.5,-107.98 742.5,-107.98"/>
</g>
<!-- Node11 -->
<g id="node11" class="node">
<title>Node11</title>
<g id="a_node11"><a xlink:href="generate__urdf_8h.html" target="_top" xlink:title=" ">
<polygon fill="white" stroke="black" points="164.5,-56.5 164.5,-75.5 257.5,-75.5 257.5,-56.5 164.5,-56.5"/>
<text text-anchor="middle" x="211" y="-63.5" font-family="Helvetica,sans-Serif" font-size="10.00">generate_urdf.h</text>
</a>
</g>
</g>
<!-- Node10&#45;&gt;Node11 -->
<g id="edge11" class="edge">
<title>Node10&#45;&gt;Node11</title>
<path fill="none" stroke="midnightblue" d="M237.22,-109.17C230.34,-98.11 221.73,-84.25 216.29,-75.51"/>
<polygon fill="midnightblue" stroke="midnightblue" points="234.45,-111.33 242.7,-117.98 240.39,-107.63 234.45,-111.33"/>
</g>
<!-- Node12 -->
<g id="node12" class="node">
<title>Node12</title>
<g id="a_node12"><a xlink:href="generate__urdf_8cc.html" target="_top" xlink:title=" ">
<polygon fill="white" stroke="black" points="199,-0.5 199,-19.5 297,-19.5 297,-0.5 199,-0.5"/>
<text text-anchor="middle" x="248" y="-7.5" font-family="Helvetica,sans-Serif" font-size="10.00">generate_urdf.cc</text>
</a>
</g>
</g>
<!-- Node10&#45;&gt;Node12 -->
<g id="edge14" class="edge">
<title>Node10&#45;&gt;Node12</title>
<path fill="none" stroke="midnightblue" d="M256.99,-108.8C263.1,-94.62 269.5,-74.17 266,-56 263.45,-42.78 257.06,-28.51 252.62,-19.66"/>
<polygon fill="midnightblue" stroke="midnightblue" points="253.8,-107.35 252.73,-117.89 260.14,-110.32 253.8,-107.35"/>
</g>
<!-- Node13 -->
<g id="node13" class="node">
<title>Node13</title>
<g id="a_node13"><a xlink:href="generate__obj_8cc.html" target="_top" xlink:title=" ">
<polygon fill="white" stroke="black" points="314,-56.5 314,-75.5 408,-75.5 408,-56.5 314,-56.5"/>
<text text-anchor="middle" x="361" y="-63.5" font-family="Helvetica,sans-Serif" font-size="10.00">generate_obj.cc</text>
</a>
</g>
</g>
<!-- Node10&#45;&gt;Node13 -->
<g id="edge13" class="edge">
<title>Node10&#45;&gt;Node13</title>
<path fill="none" stroke="midnightblue" d="M273.24,-113.21C295.12,-101.69 326.14,-85.36 344.84,-75.51"/>
<polygon fill="midnightblue" stroke="midnightblue" points="271.41,-110.22 264.19,-117.98 274.67,-116.41 271.41,-110.22"/>
</g>
<!-- Node11&#45;&gt;Node12 -->
<g id="edge12" class="edge">
<title>Node11&#45;&gt;Node12</title>
<path fill="none" stroke="midnightblue" d="M222.95,-47.57C229.31,-38.27 236.87,-27.25 242,-19.75"/>
<polygon fill="midnightblue" stroke="midnightblue" points="219.87,-45.86 217.11,-56.08 225.65,-49.81 219.87,-45.86"/>
</g>
<!-- Node16 -->
<g id="node16" class="node">
<title>Node16</title>
<g id="a_node16"><a xlink:href="manual__range__value__rule__state__provider_8cc.html" target="_top" xlink:title=" ">
<polygon fill="white" stroke="black" points="791,-112.5 791,-142.5 921,-142.5 921,-112.5 791,-112.5"/>
<text text-anchor="start" x="799" y="-130.5" font-family="Helvetica,sans-Serif" font-size="10.00">manual_range_value</text>
<text text-anchor="middle" x="856" y="-119.5" font-family="Helvetica,sans-Serif" font-size="10.00">_rule_state_provider.cc</text>
</a>
</g>
</g>
<!-- Node15&#45;&gt;Node16 -->
<g id="edge17" class="edge">
<title>Node15&#45;&gt;Node16</title>
<path fill="none" stroke="midnightblue" d="M849.71,-169.4C851.1,-160.37 852.63,-150.41 853.83,-142.58"/>
<polygon fill="midnightblue" stroke="midnightblue" points="846.23,-168.98 848.17,-179.4 853.15,-170.04 846.23,-168.98"/>
</g>
</g>
</svg>
