<?xml version="1.0" encoding="UTF-8" standalone="no"?>
<!DOCTYPE svg PUBLIC "-//W3C//DTD SVG 1.1//EN"
 "http://www.w3.org/Graphics/SVG/1.1/DTD/svg11.dtd">
<!-- Generated by graphviz version 2.43.0 (0)
 -->
<!-- Title: regions.cc Pages: 1 -->
<svg width="1947pt" height="643pt"
 viewBox="0.00 0.00 1947.00 643.00" xmlns="http://www.w3.org/2000/svg" xmlns:xlink="http://www.w3.org/1999/xlink">
<g id="graph0" class="graph" transform="scale(1 1) rotate(0) translate(4 639)">
<title>regions.cc</title>
<polygon fill="white" stroke="transparent" points="-4,4 -4,-639 1943,-639 1943,4 -4,4"/>
<!-- Node1 -->
<g id="node1" class="node">
<title>Node1</title>
<g id="a_node1"><a xlink:title=" ">
<polygon fill="#bfbfbf" stroke="black" points="1336,-615.5 1336,-634.5 1402,-634.5 1402,-615.5 1336,-615.5"/>
<text text-anchor="middle" x="1369" y="-622.5" font-family="Helvetica,sans-Serif" font-size="10.00">regions.cc</text>
</a>
</g>
</g>
<!-- Node2 -->
<g id="node2" class="node">
<title>Node2</title>
<g id="a_node2"><a xlink:href="regions_8h.html" target="_top" xlink:title=" ">
<polygon fill="white" stroke="black" points="1256,-503.5 1256,-522.5 1376,-522.5 1376,-503.5 1256,-503.5"/>
<text text-anchor="middle" x="1316" y="-510.5" font-family="Helvetica,sans-Serif" font-size="10.00">maliput/api/regions.h</text>
</a>
</g>
</g>
<!-- Node1&#45;&gt;Node2 -->
<g id="edge1" class="edge">
<title>Node1&#45;&gt;Node2</title>
<path fill="none" stroke="midnightblue" d="M1361.22,-615.28C1353.83,-606.61 1342.87,-592.68 1336,-579 1328.55,-564.16 1323.25,-546.01 1319.98,-532.67"/>
<polygon fill="midnightblue" stroke="midnightblue" points="1323.36,-531.73 1317.72,-522.76 1316.54,-533.29 1323.36,-531.73"/>
</g>
<!-- Node7 -->
<g id="node7" class="node">
<title>Node7</title>
<g id="a_node7"><a xlink:href="api_2lane_8h.html" target="_top" xlink:title=" ">
<polygon fill="white" stroke="black" points="1432.5,-442 1432.5,-461 1537.5,-461 1537.5,-442 1432.5,-442"/>
<text text-anchor="middle" x="1485" y="-449" font-family="Helvetica,sans-Serif" font-size="10.00">maliput/api/lane.h</text>
</a>
</g>
</g>
<!-- Node1&#45;&gt;Node7 -->
<g id="edge65" class="edge">
<title>Node1&#45;&gt;Node7</title>
<path fill="none" stroke="midnightblue" d="M1402.19,-620.97C1454.42,-614.12 1553.51,-592.18 1589,-523 1603.82,-494.12 1566.27,-474.99 1532.22,-464.04"/>
<polygon fill="midnightblue" stroke="midnightblue" points="1532.88,-460.58 1522.3,-461.03 1530.85,-467.28 1532.88,-460.58"/>
</g>
<!-- Node10 -->
<g id="node10" class="node">
<title>Node10</title>
<g id="a_node10"><a xlink:href="lane__data_8h.html" target="_top" xlink:title=" ">
<polygon fill="white" stroke="black" points="461,-375 461,-394 593,-394 593,-375 461,-375"/>
<text text-anchor="middle" x="527" y="-382" font-family="Helvetica,sans-Serif" font-size="10.00">maliput/api/lane_data.h</text>
</a>
</g>
</g>
<!-- Node1&#45;&gt;Node10 -->
<g id="edge66" class="edge">
<title>Node1&#45;&gt;Node10</title>
<path fill="none" stroke="midnightblue" d="M1335.85,-623.64C1201.26,-621.6 696.71,-608.31 567,-523 528.14,-497.44 524.71,-435.8 525.69,-404.47"/>
<polygon fill="midnightblue" stroke="midnightblue" points="529.2,-404.24 526.21,-394.08 522.21,-403.89 529.2,-404.24"/>
</g>
<!-- Node30 -->
<g id="node30" class="node">
<title>Node30</title>
<g id="a_node30"><a xlink:href="api_2road__geometry_8h.html" target="_top" xlink:title=" ">
<polygon fill="white" stroke="black" points="1344.5,-559.5 1344.5,-578.5 1501.5,-578.5 1501.5,-559.5 1344.5,-559.5"/>
<text text-anchor="middle" x="1423" y="-566.5" font-family="Helvetica,sans-Serif" font-size="10.00">maliput/api/road_geometry.h</text>
</a>
</g>
</g>
<!-- Node1&#45;&gt;Node30 -->
<g id="edge67" class="edge">
<title>Node1&#45;&gt;Node30</title>
<path fill="none" stroke="midnightblue" d="M1377.92,-615.08C1385.78,-607.22 1397.43,-595.57 1406.92,-586.08"/>
<polygon fill="midnightblue" stroke="midnightblue" points="1409.65,-588.3 1414.25,-578.75 1404.7,-583.35 1409.65,-588.3"/>
</g>
<!-- Node3 -->
<g id="node3" class="node">
<title>Node3</title>
<g id="a_node3"><a xlink:title=" ">
<polygon fill="white" stroke="#bfbfbf" points="329.5,-185 329.5,-204 376.5,-204 376.5,-185 329.5,-185"/>
<text text-anchor="middle" x="353" y="-192" font-family="Helvetica,sans-Serif" font-size="10.00">cmath</text>
</a>
</g>
</g>
<!-- Node2&#45;&gt;Node3 -->
<g id="edge2" class="edge">
<title>Node2&#45;&gt;Node3</title>
<path fill="none" stroke="midnightblue" d="M1255.61,-512.58C1139.8,-512.66 878.87,-507.77 664,-467 566.92,-448.58 539.34,-446.23 452,-400 378.94,-361.33 346.68,-345.2 323,-266 317.37,-247.18 328.22,-226.62 338.4,-212.58"/>
<polygon fill="midnightblue" stroke="midnightblue" points="341.41,-214.42 344.82,-204.39 335.9,-210.1 341.41,-214.42"/>
</g>
<!-- Node4 -->
<g id="node4" class="node">
<title>Node4</title>
<g id="a_node4"><a xlink:title=" ">
<polygon fill="white" stroke="#bfbfbf" points="673,-442 673,-461 729,-461 729,-442 673,-442"/>
<text text-anchor="middle" x="701" y="-449" font-family="Helvetica,sans-Serif" font-size="10.00">numeric</text>
</a>
</g>
</g>
<!-- Node2&#45;&gt;Node4 -->
<g id="edge3" class="edge">
<title>Node2&#45;&gt;Node4</title>
<path fill="none" stroke="midnightblue" d="M1255.9,-512.27C1150.77,-511.63 927.14,-505.36 743,-467 739.5,-466.27 735.88,-465.33 732.31,-464.28"/>
<polygon fill="midnightblue" stroke="midnightblue" points="733.1,-460.85 722.5,-461.1 730.94,-467.51 733.1,-460.85"/>
</g>
<!-- Node5 -->
<g id="node5" class="node">
<title>Node5</title>
<g id="a_node5"><a xlink:title=" ">
<polygon fill="white" stroke="#bfbfbf" points="1637,-246.5 1637,-265.5 1693,-265.5 1693,-246.5 1637,-246.5"/>
<text text-anchor="middle" x="1665" y="-253.5" font-family="Helvetica,sans-Serif" font-size="10.00">optional</text>
</a>
</g>
</g>
<!-- Node2&#45;&gt;Node5 -->
<g id="edge4" class="edge">
<title>Node2&#45;&gt;Node5</title>
<path fill="none" stroke="midnightblue" d="M1326.57,-503.44C1362.84,-474.17 1485.93,-375.82 1593,-302 1608.93,-291.02 1627.45,-279.47 1641.72,-270.82"/>
<polygon fill="midnightblue" stroke="midnightblue" points="1643.65,-273.74 1650.41,-265.59 1640.04,-267.75 1643.65,-273.74"/>
</g>
<!-- Node6 -->
<g id="node6" class="node">
<title>Node6</title>
<g id="a_node6"><a xlink:title=" ">
<polygon fill="white" stroke="#bfbfbf" points="1825.5,-246.5 1825.5,-265.5 1872.5,-265.5 1872.5,-246.5 1825.5,-246.5"/>
<text text-anchor="middle" x="1849" y="-253.5" font-family="Helvetica,sans-Serif" font-size="10.00">vector</text>
</a>
</g>
</g>
<!-- Node2&#45;&gt;Node6 -->
<g id="edge5" class="edge">
<title>Node2&#45;&gt;Node6</title>
<path fill="none" stroke="midnightblue" d="M1376.05,-507.96C1467.01,-501.32 1635.11,-486.81 1692,-467 1745.7,-448.3 1765.61,-444.51 1801,-400 1830.93,-362.36 1842.62,-305.14 1846.84,-275.8"/>
<polygon fill="midnightblue" stroke="midnightblue" points="1850.33,-276.07 1848.15,-265.7 1843.39,-275.17 1850.33,-276.07"/>
</g>
<!-- Node2&#45;&gt;Node7 -->
<g id="edge6" class="edge">
<title>Node2&#45;&gt;Node7</title>
<path fill="none" stroke="midnightblue" d="M1340.21,-503.48C1369.33,-493.22 1418.37,-475.96 1451.2,-464.4"/>
<polygon fill="midnightblue" stroke="midnightblue" points="1452.56,-467.63 1460.83,-461.01 1450.24,-461.03 1452.56,-467.63"/>
</g>
<!-- Node13 -->
<g id="node13" class="node">
<title>Node13</title>
<g id="a_node13"><a xlink:href="maliput__copyable_8h.html" target="_top" xlink:title=" ">
<polygon fill="white" stroke="black" points="635,-179.5 635,-209.5 775,-209.5 775,-179.5 635,-179.5"/>
<text text-anchor="start" x="643" y="-197.5" font-family="Helvetica,sans-Serif" font-size="10.00">maliput/common/maliput</text>
<text text-anchor="middle" x="705" y="-186.5" font-family="Helvetica,sans-Serif" font-size="10.00">_copyable.h</text>
</a>
</g>
</g>
<!-- Node2&#45;&gt;Node13 -->
<g id="edge64" class="edge">
<title>Node2&#45;&gt;Node13</title>
<path fill="none" stroke="midnightblue" d="M1255.98,-509.2C1122.37,-501.64 806.78,-475.96 738,-400 692.26,-349.48 696.15,-261.7 701.26,-219.5"/>
<polygon fill="midnightblue" stroke="midnightblue" points="704.73,-219.95 702.59,-209.57 697.8,-219.02 704.73,-219.95"/>
</g>
<!-- Node24 -->
<g id="node24" class="node">
<title>Node24</title>
<g id="a_node24"><a xlink:href="type__specific__identifier_8h.html" target="_top" xlink:title=" ">
<polygon fill="white" stroke="black" points="1183,-369.5 1183,-399.5 1323,-399.5 1323,-369.5 1183,-369.5"/>
<text text-anchor="start" x="1191" y="-387.5" font-family="Helvetica,sans-Serif" font-size="10.00">maliput/api/type_specific</text>
<text text-anchor="middle" x="1253" y="-376.5" font-family="Helvetica,sans-Serif" font-size="10.00">_identifier.h</text>
</a>
</g>
</g>
<!-- Node2&#45;&gt;Node24 -->
<g id="edge63" class="edge">
<title>Node2&#45;&gt;Node24</title>
<path fill="none" stroke="midnightblue" d="M1314.1,-503.2C1310.74,-488.64 1302.96,-458.9 1291,-436 1285.82,-426.08 1278.73,-416.05 1272.08,-407.57"/>
<polygon fill="midnightblue" stroke="midnightblue" points="1274.69,-405.22 1265.67,-399.67 1269.25,-409.64 1274.69,-405.22"/>
</g>
<!-- Node7&#45;&gt;Node5 -->
<g id="edge8" class="edge">
<title>Node7&#45;&gt;Node5</title>
<path fill="none" stroke="midnightblue" d="M1492.97,-441.94C1520.66,-412.16 1613.05,-312.84 1649.77,-273.37"/>
<polygon fill="midnightblue" stroke="midnightblue" points="1652.47,-275.61 1656.71,-265.91 1647.34,-270.84 1652.47,-275.61"/>
</g>
<!-- Node8 -->
<g id="node8" class="node">
<title>Node8</title>
<g id="a_node8"><a xlink:title=" ">
<polygon fill="white" stroke="#bfbfbf" points="1379,-375 1379,-394 1437,-394 1437,-375 1379,-375"/>
<text text-anchor="middle" x="1408" y="-382" font-family="Helvetica,sans-Serif" font-size="10.00">memory</text>
</a>
</g>
</g>
<!-- Node7&#45;&gt;Node8 -->
<g id="edge7" class="edge">
<title>Node7&#45;&gt;Node8</title>
<path fill="none" stroke="midnightblue" d="M1474.62,-441.73C1462.15,-431.21 1441.03,-413.38 1425.91,-400.62"/>
<polygon fill="midnightblue" stroke="midnightblue" points="1428.12,-397.9 1418.22,-394.13 1423.6,-403.25 1428.12,-397.9"/>
</g>
<!-- Node9 -->
<g id="node9" class="node">
<title>Node9</title>
<g id="a_node9"><a xlink:title=" ">
<polygon fill="white" stroke="#bfbfbf" points="1519,-0.5 1519,-19.5 1563,-19.5 1563,-0.5 1519,-0.5"/>
<text text-anchor="middle" x="1541" y="-7.5" font-family="Helvetica,sans-Serif" font-size="10.00">string</text>
</a>
</g>
</g>
<!-- Node7&#45;&gt;Node9 -->
<g id="edge9" class="edge">
<title>Node7&#45;&gt;Node9</title>
<path fill="none" stroke="midnightblue" d="M1515.53,-441.95C1542.26,-433.65 1581.49,-419.45 1612,-400 1706.39,-339.84 1759,-307.43 1759,-195.5 1759,-195.5 1759,-195.5 1759,-132 1759,-48.09 1633.99,-21.87 1573.3,-14.09"/>
<polygon fill="midnightblue" stroke="midnightblue" points="1573.45,-10.59 1563.1,-12.88 1572.62,-17.54 1573.45,-10.59"/>
</g>
<!-- Node7&#45;&gt;Node10 -->
<g id="edge10" class="edge">
<title>Node7&#45;&gt;Node10</title>
<path fill="none" stroke="midnightblue" d="M1432.31,-446.44C1393.3,-443.46 1338.84,-439.37 1291,-436 1039.23,-418.27 740.65,-399.06 603.2,-390.32"/>
<polygon fill="midnightblue" stroke="midnightblue" points="603.39,-386.82 593.18,-389.68 602.94,-393.81 603.39,-386.82"/>
</g>
<!-- Node7&#45;&gt;Node13 -->
<g id="edge61" class="edge">
<title>Node7&#45;&gt;Node13</title>
<path fill="none" stroke="midnightblue" d="M1483.64,-441.87C1480.45,-424.81 1470.81,-386.89 1446,-369 1342.09,-294.06 1280.78,-375.74 1160,-333 1135.35,-324.28 1133,-314.44 1110,-302 1109.19,-301.56 990.88,-246.28 990,-246 922.54,-224.69 843.07,-211.54 785.22,-204.03"/>
<polygon fill="midnightblue" stroke="midnightblue" points="785.4,-200.52 775.04,-202.73 784.51,-207.47 785.4,-200.52"/>
</g>
<!-- Node14 -->
<g id="node14" class="node">
<title>Node14</title>
<g id="a_node14"><a xlink:href="maliput__throw_8h.html" target="_top" xlink:title=" ">
<polygon fill="white" stroke="black" points="1471,-56.5 1471,-86.5 1611,-86.5 1611,-56.5 1471,-56.5"/>
<text text-anchor="start" x="1479" y="-74.5" font-family="Helvetica,sans-Serif" font-size="10.00">maliput/common/maliput</text>
<text text-anchor="middle" x="1541" y="-63.5" font-family="Helvetica,sans-Serif" font-size="10.00">_throw.h</text>
</a>
</g>
</g>
<!-- Node7&#45;&gt;Node14 -->
<g id="edge62" class="edge">
<title>Node7&#45;&gt;Node14</title>
<path fill="none" stroke="midnightblue" d="M1503.94,-441.9C1549.09,-420.18 1662.25,-358.18 1702,-266 1734.05,-191.69 1635.48,-123.63 1578.5,-91.67"/>
<polygon fill="midnightblue" stroke="midnightblue" points="1579.85,-88.41 1569.4,-86.67 1576.48,-94.55 1579.85,-88.41"/>
</g>
<!-- Node7&#45;&gt;Node24 -->
<g id="edge42" class="edge">
<title>Node7&#45;&gt;Node24</title>
<path fill="none" stroke="midnightblue" d="M1454.19,-441.87C1418.25,-431.8 1357.99,-414.91 1312.77,-402.24"/>
<polygon fill="midnightblue" stroke="midnightblue" points="1313.64,-398.86 1303.07,-399.53 1311.75,-405.6 1313.64,-398.86"/>
</g>
<!-- Node10&#45;&gt;Node9 -->
<g id="edge13" class="edge">
<title>Node10&#45;&gt;Node9</title>
<path fill="none" stroke="midnightblue" d="M529.06,-374.97C533.79,-354.67 545,-301.81 545,-257 545,-257 545,-257 545,-132 545,-32.56 1337.49,-14.25 1508.66,-11.45"/>
<polygon fill="midnightblue" stroke="midnightblue" points="1508.86,-14.95 1518.8,-11.29 1508.75,-7.95 1508.86,-14.95"/>
</g>
<!-- Node11 -->
<g id="node11" class="node">
<title>Node11</title>
<g id="a_node11"><a xlink:title=" ">
<polygon fill="white" stroke="#bfbfbf" points="915.5,-246.5 915.5,-265.5 980.5,-265.5 980.5,-246.5 915.5,-246.5"/>
<text text-anchor="middle" x="948" y="-253.5" font-family="Helvetica,sans-Serif" font-size="10.00">functional</text>
</a>
</g>
</g>
<!-- Node10&#45;&gt;Node11 -->
<g id="edge11" class="edge">
<title>Node10&#45;&gt;Node11</title>
<path fill="none" stroke="midnightblue" d="M555.61,-374.9C629.42,-352.72 826.37,-293.55 909.8,-268.48"/>
<polygon fill="midnightblue" stroke="midnightblue" points="911.06,-271.75 919.63,-265.52 909.05,-265.05 911.06,-271.75"/>
</g>
<!-- Node12 -->
<g id="node12" class="node">
<title>Node12</title>
<g id="a_node12"><a xlink:title=" ">
<polygon fill="white" stroke="#bfbfbf" points="245.5,-185 245.5,-204 302.5,-204 302.5,-185 245.5,-185"/>
<text text-anchor="middle" x="274" y="-192" font-family="Helvetica,sans-Serif" font-size="10.00">ostream</text>
</a>
</g>
</g>
<!-- Node10&#45;&gt;Node12 -->
<g id="edge12" class="edge">
<title>Node10&#45;&gt;Node12</title>
<path fill="none" stroke="midnightblue" d="M469.41,-374.97C436.89,-367.92 396.89,-355.29 367,-333 324,-300.92 294.36,-242.8 281.39,-213.46"/>
<polygon fill="midnightblue" stroke="midnightblue" points="284.52,-211.88 277.37,-204.06 278.08,-214.63 284.52,-211.88"/>
</g>
<!-- Node10&#45;&gt;Node13 -->
<g id="edge14" class="edge">
<title>Node10&#45;&gt;Node13</title>
<path fill="none" stroke="midnightblue" d="M533.73,-374.71C551.08,-352.25 599.18,-291.38 645,-246 655.56,-235.54 668.03,-224.82 678.85,-215.96"/>
<polygon fill="midnightblue" stroke="midnightblue" points="681.17,-218.59 686.75,-209.58 676.77,-213.14 681.17,-218.59"/>
</g>
<!-- Node10&#45;&gt;Node14 -->
<g id="edge15" class="edge">
<title>Node10&#45;&gt;Node14</title>
<path fill="none" stroke="midnightblue" d="M593.24,-382.55C762.57,-379.63 1207.94,-368.68 1351,-333 1368.42,-328.66 1485.75,-279.12 1498,-266 1541.99,-218.87 1544.62,-137.11 1542.87,-96.63"/>
<polygon fill="midnightblue" stroke="midnightblue" points="1546.37,-96.38 1542.31,-86.6 1539.38,-96.78 1546.37,-96.38"/>
</g>
<!-- Node15 -->
<g id="node15" class="node">
<title>Node15</title>
<g id="a_node15"><a xlink:href="matrix_8h.html" target="_top" xlink:title=" ">
<polygon fill="white" stroke="black" points="5.5,-185 5.5,-204 132.5,-204 132.5,-185 5.5,-185"/>
<text text-anchor="middle" x="69" y="-192" font-family="Helvetica,sans-Serif" font-size="10.00">maliput/math/matrix.h</text>
</a>
</g>
</g>
<!-- Node10&#45;&gt;Node15 -->
<g id="edge17" class="edge">
<title>Node10&#45;&gt;Node15</title>
<path fill="none" stroke="midnightblue" d="M460.97,-378.28C407.06,-372.25 329.8,-359.51 267,-333 193.03,-301.78 118.72,-240.13 86.13,-211.19"/>
<polygon fill="midnightblue" stroke="midnightblue" points="88.2,-208.34 78.42,-204.26 83.52,-213.55 88.2,-208.34"/>
</g>
<!-- Node21 -->
<g id="node21" class="node">
<title>Node21</title>
<g id="a_node21"><a xlink:href="vector_8h.html" target="_top" xlink:title=" ">
<polygon fill="white" stroke="black" points="211.5,-123.5 211.5,-142.5 336.5,-142.5 336.5,-123.5 211.5,-123.5"/>
<text text-anchor="middle" x="274" y="-130.5" font-family="Helvetica,sans-Serif" font-size="10.00">maliput/math/vector.h</text>
</a>
</g>
</g>
<!-- Node10&#45;&gt;Node21 -->
<g id="edge41" class="edge">
<title>Node10&#45;&gt;Node21</title>
<path fill="none" stroke="midnightblue" d="M460.78,-377.19C420.85,-370.87 370.45,-358.23 332,-333 274.02,-294.95 258.56,-275.57 236,-210 231.52,-196.97 231.27,-191.94 236,-179 240.06,-167.91 248.19,-157.67 255.89,-149.76"/>
<polygon fill="midnightblue" stroke="midnightblue" points="258.47,-152.14 263.29,-142.7 253.64,-147.07 258.47,-152.14"/>
</g>
<!-- Node22 -->
<g id="node22" class="node">
<title>Node22</title>
<g id="a_node22"><a xlink:href="quaternion_8h.html" target="_top" xlink:title=" ">
<polygon fill="white" stroke="black" points="331.5,-246.5 331.5,-265.5 478.5,-265.5 478.5,-246.5 331.5,-246.5"/>
<text text-anchor="middle" x="405" y="-253.5" font-family="Helvetica,sans-Serif" font-size="10.00">maliput/math/quaternion.h</text>
</a>
</g>
</g>
<!-- Node10&#45;&gt;Node22 -->
<g id="edge30" class="edge">
<title>Node10&#45;&gt;Node22</title>
<path fill="none" stroke="midnightblue" d="M460.88,-378.48C430.12,-372.44 396.16,-359.67 377,-333 363.99,-314.89 377.85,-290.04 390.28,-273.76"/>
<polygon fill="midnightblue" stroke="midnightblue" points="393.25,-275.66 396.86,-265.69 387.83,-271.23 393.25,-275.66"/>
</g>
<!-- Node23 -->
<g id="node23" class="node">
<title>Node23</title>
<g id="a_node23"><a xlink:href="roll__pitch__yaw_8h.html" target="_top" xlink:title=" ">
<polygon fill="white" stroke="black" points="385.5,-302.5 385.5,-332.5 516.5,-332.5 516.5,-302.5 385.5,-302.5"/>
<text text-anchor="start" x="393.5" y="-320.5" font-family="Helvetica,sans-Serif" font-size="10.00">maliput/math/roll_pitch</text>
<text text-anchor="middle" x="451" y="-309.5" font-family="Helvetica,sans-Serif" font-size="10.00">_yaw.h</text>
</a>
</g>
</g>
<!-- Node10&#45;&gt;Node23 -->
<g id="edge36" class="edge">
<title>Node10&#45;&gt;Node23</title>
<path fill="none" stroke="midnightblue" d="M516.75,-374.73C506.18,-365.7 489.32,-351.27 475.32,-339.3"/>
<polygon fill="midnightblue" stroke="midnightblue" points="477.35,-336.43 467.47,-332.59 472.8,-341.75 477.35,-336.43"/>
</g>
<!-- Node14&#45;&gt;Node9 -->
<g id="edge16" class="edge">
<title>Node14&#45;&gt;Node9</title>
<path fill="none" stroke="midnightblue" d="M1541,-56.4C1541,-48.47 1541,-38.46 1541,-29.86"/>
<polygon fill="midnightblue" stroke="midnightblue" points="1544.5,-29.66 1541,-19.66 1537.5,-29.66 1544.5,-29.66"/>
</g>
<!-- Node16 -->
<g id="node16" class="node">
<title>Node16</title>
<g id="a_node16"><a xlink:title=" ">
<polygon fill="white" stroke="#bfbfbf" points="0,-62 0,-81 64,-81 64,-62 0,-62"/>
<text text-anchor="middle" x="32" y="-69" font-family="Helvetica,sans-Serif" font-size="10.00">algorithm</text>
</a>
</g>
</g>
<!-- Node15&#45;&gt;Node16 -->
<g id="edge18" class="edge">
<title>Node15&#45;&gt;Node16</title>
<path fill="none" stroke="midnightblue" d="M66.34,-184.8C60.34,-165.18 45.65,-117.14 37.56,-90.69"/>
<polygon fill="midnightblue" stroke="midnightblue" points="40.91,-89.66 34.64,-81.12 34.21,-91.71 40.91,-89.66"/>
</g>
<!-- Node17 -->
<g id="node17" class="node">
<title>Node17</title>
<g id="a_node17"><a xlink:title=" ">
<polygon fill="white" stroke="#bfbfbf" points="82,-62 82,-81 124,-81 124,-62 82,-62"/>
<text text-anchor="middle" x="103" y="-69" font-family="Helvetica,sans-Serif" font-size="10.00">array</text>
</a>
</g>
</g>
<!-- Node15&#45;&gt;Node17 -->
<g id="edge19" class="edge">
<title>Node15&#45;&gt;Node17</title>
<path fill="none" stroke="midnightblue" d="M71.45,-184.8C76.93,-165.26 90.34,-117.56 97.79,-91.05"/>
<polygon fill="midnightblue" stroke="midnightblue" points="101.24,-91.7 100.58,-81.12 94.5,-89.8 101.24,-91.7"/>
</g>
<!-- Node18 -->
<g id="node18" class="node">
<title>Node18</title>
<g id="a_node18"><a xlink:title=" ">
<polygon fill="white" stroke="#bfbfbf" points="322.5,-62 322.5,-81 375.5,-81 375.5,-62 322.5,-62"/>
<text text-anchor="middle" x="349" y="-69" font-family="Helvetica,sans-Serif" font-size="10.00">cstddef</text>
</a>
</g>
</g>
<!-- Node15&#45;&gt;Node18 -->
<g id="edge20" class="edge">
<title>Node15&#45;&gt;Node18</title>
<path fill="none" stroke="midnightblue" d="M86.3,-184.99C106.16,-175.14 139.65,-158.32 168,-143 183.76,-134.48 186.62,-130.27 203,-123 250.02,-102.13 264.67,-104.62 313,-87 314.9,-86.31 316.85,-85.58 318.81,-84.83"/>
<polygon fill="midnightblue" stroke="midnightblue" points="320.5,-87.93 328.53,-81.02 317.94,-81.41 320.5,-87.93"/>
</g>
<!-- Node19 -->
<g id="node19" class="node">
<title>Node19</title>
<g id="a_node19"><a xlink:title=" ">
<polygon fill="white" stroke="#bfbfbf" points="142.5,-62 142.5,-81 225.5,-81 225.5,-62 142.5,-62"/>
<text text-anchor="middle" x="184" y="-69" font-family="Helvetica,sans-Serif" font-size="10.00">initializer_list</text>
</a>
</g>
</g>
<!-- Node15&#45;&gt;Node19 -->
<g id="edge21" class="edge">
<title>Node15&#45;&gt;Node19</title>
<path fill="none" stroke="midnightblue" d="M76.39,-184.6C87.78,-171 110.45,-144.39 131,-123 142.65,-110.88 156.41,-97.8 166.99,-87.99"/>
<polygon fill="midnightblue" stroke="midnightblue" points="169.39,-90.54 174.37,-81.2 164.65,-85.39 169.39,-90.54"/>
</g>
<!-- Node20 -->
<g id="node20" class="node">
<title>Node20</title>
<g id="a_node20"><a xlink:title=" ">
<polygon fill="white" stroke="#bfbfbf" points="244,-62 244,-81 304,-81 304,-62 244,-62"/>
<text text-anchor="middle" x="274" y="-69" font-family="Helvetica,sans-Serif" font-size="10.00">iostream</text>
</a>
</g>
</g>
<!-- Node15&#45;&gt;Node20 -->
<g id="edge22" class="edge">
<title>Node15&#45;&gt;Node20</title>
<path fill="none" stroke="midnightblue" d="M79.99,-184.83C97.98,-170.86 135.12,-142.91 169,-123 193.65,-108.52 223.09,-94.63 244.52,-85.1"/>
<polygon fill="midnightblue" stroke="midnightblue" points="246.01,-88.27 253.75,-81.04 243.19,-81.86 246.01,-88.27"/>
</g>
<!-- Node15&#45;&gt;Node21 -->
<g id="edge23" class="edge">
<title>Node15&#45;&gt;Node21</title>
<path fill="none" stroke="midnightblue" d="M98.37,-184.98C134.3,-174.55 195.23,-156.86 235.04,-145.31"/>
<polygon fill="midnightblue" stroke="midnightblue" points="236.05,-148.66 244.68,-142.51 234.1,-141.94 236.05,-148.66"/>
</g>
<!-- Node21&#45;&gt;Node14 -->
<g id="edge29" class="edge">
<title>Node21&#45;&gt;Node14</title>
<path fill="none" stroke="midnightblue" d="M336.83,-129.05C547.17,-119.17 1226.49,-87.27 1460.72,-76.27"/>
<polygon fill="midnightblue" stroke="midnightblue" points="1461.05,-79.76 1470.87,-75.79 1460.72,-72.77 1461.05,-79.76"/>
</g>
<!-- Node21&#45;&gt;Node16 -->
<g id="edge24" class="edge">
<title>Node21&#45;&gt;Node16</title>
<path fill="none" stroke="midnightblue" d="M228.51,-123.43C187.51,-115.33 125.75,-102.17 73,-87 70.21,-86.2 67.34,-85.31 64.46,-84.38"/>
<polygon fill="midnightblue" stroke="midnightblue" points="65.42,-81.01 54.83,-81.12 63.18,-87.64 65.42,-81.01"/>
</g>
<!-- Node21&#45;&gt;Node17 -->
<g id="edge25" class="edge">
<title>Node21&#45;&gt;Node17</title>
<path fill="none" stroke="midnightblue" d="M243.03,-123.48C214.16,-115.23 170.11,-101.81 133,-87 131.62,-86.45 130.22,-85.87 128.81,-85.26"/>
<polygon fill="midnightblue" stroke="midnightblue" points="130.18,-82.04 119.63,-81.05 127.27,-88.4 130.18,-82.04"/>
</g>
<!-- Node21&#45;&gt;Node18 -->
<g id="edge26" class="edge">
<title>Node21&#45;&gt;Node18</title>
<path fill="none" stroke="midnightblue" d="M284.75,-123.48C296.55,-114.11 315.74,-98.88 330.08,-87.51"/>
<polygon fill="midnightblue" stroke="midnightblue" points="332.62,-89.97 338.27,-81.01 328.26,-84.48 332.62,-89.97"/>
</g>
<!-- Node21&#45;&gt;Node19 -->
<g id="edge27" class="edge">
<title>Node21&#45;&gt;Node19</title>
<path fill="none" stroke="midnightblue" d="M261.11,-123.48C246.54,-113.84 222.6,-98.02 205.25,-86.55"/>
<polygon fill="midnightblue" stroke="midnightblue" points="207.14,-83.6 196.87,-81.01 203.28,-89.44 207.14,-83.6"/>
</g>
<!-- Node21&#45;&gt;Node20 -->
<g id="edge28" class="edge">
<title>Node21&#45;&gt;Node20</title>
<path fill="none" stroke="midnightblue" d="M274,-123.48C274,-115.08 274,-101.98 274,-91.16"/>
<polygon fill="midnightblue" stroke="midnightblue" points="277.5,-91.01 274,-81.01 270.5,-91.01 277.5,-91.01"/>
</g>
<!-- Node22&#45;&gt;Node3 -->
<g id="edge31" class="edge">
<title>Node22&#45;&gt;Node3</title>
<path fill="none" stroke="midnightblue" d="M397.55,-246.48C389.67,-237.46 377.06,-223.02 367.26,-211.81"/>
<polygon fill="midnightblue" stroke="midnightblue" points="369.65,-209.24 360.44,-204.01 364.38,-213.84 369.65,-209.24"/>
</g>
<!-- Node22&#45;&gt;Node12 -->
<g id="edge32" class="edge">
<title>Node22&#45;&gt;Node12</title>
<path fill="none" stroke="midnightblue" d="M386.23,-246.48C364.15,-236.45 327.28,-219.7 301.86,-208.15"/>
<polygon fill="midnightblue" stroke="midnightblue" points="303.29,-204.96 292.73,-204.01 300.39,-211.33 303.29,-204.96"/>
</g>
<!-- Node22&#45;&gt;Node13 -->
<g id="edge33" class="edge">
<title>Node22&#45;&gt;Node13</title>
<path fill="none" stroke="midnightblue" d="M447.98,-246.48C493.99,-237.35 568.02,-222.67 624.83,-211.4"/>
<polygon fill="midnightblue" stroke="midnightblue" points="625.75,-214.79 634.87,-209.41 624.38,-207.92 625.75,-214.79"/>
</g>
<!-- Node22&#45;&gt;Node15 -->
<g id="edge34" class="edge">
<title>Node22&#45;&gt;Node15</title>
<path fill="none" stroke="midnightblue" d="M356.86,-246.48C296.23,-235.74 192.14,-217.31 127.14,-205.79"/>
<polygon fill="midnightblue" stroke="midnightblue" points="127.51,-202.31 117.05,-204.01 126.29,-209.2 127.51,-202.31"/>
</g>
<!-- Node22&#45;&gt;Node21 -->
<g id="edge35" class="edge">
<title>Node22&#45;&gt;Node21</title>
<path fill="none" stroke="midnightblue" d="M405.25,-246.33C405.22,-230.91 402.98,-198.48 386,-179 371.8,-162.71 350.87,-152.24 330.93,-145.55"/>
<polygon fill="midnightblue" stroke="midnightblue" points="331.84,-142.17 321.25,-142.56 329.77,-148.85 331.84,-142.17"/>
</g>
<!-- Node23&#45;&gt;Node13 -->
<g id="edge37" class="edge">
<title>Node23&#45;&gt;Node13</title>
<path fill="none" stroke="midnightblue" d="M480.63,-302.38C526.71,-280.43 615.52,-238.13 666.49,-213.84"/>
<polygon fill="midnightblue" stroke="midnightblue" points="668.03,-216.99 675.55,-209.53 665.02,-210.67 668.03,-216.99"/>
</g>
<!-- Node23&#45;&gt;Node15 -->
<g id="edge38" class="edge">
<title>Node23&#45;&gt;Node15</title>
<path fill="none" stroke="midnightblue" d="M406.43,-302.38C330.27,-278.26 176.48,-229.55 105.91,-207.19"/>
<polygon fill="midnightblue" stroke="midnightblue" points="106.72,-203.78 96.13,-204.09 104.6,-210.45 106.72,-203.78"/>
</g>
<!-- Node23&#45;&gt;Node21 -->
<g id="edge40" class="edge">
<title>Node23&#45;&gt;Node21</title>
<path fill="none" stroke="midnightblue" d="M466.94,-302.37C480.82,-288.27 497.36,-265.89 488,-246 460.24,-187.01 387.26,-158.36 334.23,-144.96"/>
<polygon fill="midnightblue" stroke="midnightblue" points="334.79,-141.49 324.24,-142.55 333.15,-148.3 334.79,-141.49"/>
</g>
<!-- Node23&#45;&gt;Node22 -->
<g id="edge39" class="edge">
<title>Node23&#45;&gt;Node22</title>
<path fill="none" stroke="midnightblue" d="M440.1,-302.4C433.41,-293.75 424.82,-282.64 417.82,-273.58"/>
<polygon fill="midnightblue" stroke="midnightblue" points="420.58,-271.43 411.69,-265.66 415.04,-275.71 420.58,-271.43"/>
</g>
<!-- Node24&#45;&gt;Node9 -->
<g id="edge44" class="edge">
<title>Node24&#45;&gt;Node9</title>
<path fill="none" stroke="midnightblue" d="M1319.68,-369.5C1378.01,-356.99 1455.5,-339.64 1469,-333 1488.56,-323.38 1489.26,-314.66 1507,-302 1531.69,-284.37 1546.48,-290.03 1565,-266 1623.9,-189.59 1668.48,-139.41 1620,-56 1609.86,-38.55 1590.13,-27.3 1572.93,-20.42"/>
<polygon fill="midnightblue" stroke="midnightblue" points="1573.78,-17 1563.18,-16.85 1571.37,-23.57 1573.78,-17"/>
</g>
<!-- Node24&#45;&gt;Node11 -->
<g id="edge43" class="edge">
<title>Node24&#45;&gt;Node11</title>
<path fill="none" stroke="midnightblue" d="M1219.19,-369.48C1159.35,-344.66 1035.69,-293.37 978.39,-269.6"/>
<polygon fill="midnightblue" stroke="midnightblue" points="979.39,-266.23 968.81,-265.63 976.7,-272.69 979.39,-266.23"/>
</g>
<!-- Node24&#45;&gt;Node13 -->
<g id="edge46" class="edge">
<title>Node24&#45;&gt;Node13</title>
<path fill="none" stroke="midnightblue" d="M1192.07,-369.44C1153.83,-360.15 1103.67,-347.12 1060,-333 944.92,-295.79 812.96,-241.52 747.06,-213.59"/>
<polygon fill="midnightblue" stroke="midnightblue" points="748.4,-210.35 737.83,-209.66 745.66,-216.8 748.4,-210.35"/>
</g>
<!-- Node24&#45;&gt;Node14 -->
<g id="edge60" class="edge">
<title>Node24&#45;&gt;Node14</title>
<path fill="none" stroke="midnightblue" d="M1320.17,-369.45C1354.23,-361.08 1395.74,-348.96 1431,-333 1454.14,-322.53 1457.09,-314.84 1479,-302 1508.5,-284.71 1529.36,-295.3 1547,-266 1579.09,-212.7 1561.64,-135.32 1549.51,-96.54"/>
<polygon fill="midnightblue" stroke="midnightblue" points="1552.72,-95.09 1546.28,-86.68 1546.07,-97.27 1552.72,-95.09"/>
</g>
<!-- Node25 -->
<g id="node25" class="node">
<title>Node25</title>
<g id="a_node25"><a xlink:title=" ">
<polygon fill="white" stroke="#bfbfbf" points="1075.5,-246.5 1075.5,-265.5 1120.5,-265.5 1120.5,-246.5 1075.5,-246.5"/>
<text text-anchor="middle" x="1098" y="-253.5" font-family="Helvetica,sans-Serif" font-size="10.00">utility</text>
</a>
</g>
</g>
<!-- Node24&#45;&gt;Node25 -->
<g id="edge45" class="edge">
<title>Node24&#45;&gt;Node25</title>
<path fill="none" stroke="midnightblue" d="M1235.82,-369.48C1206.55,-345.59 1147.24,-297.19 1116.86,-272.39"/>
<polygon fill="midnightblue" stroke="midnightblue" points="1118.73,-269.4 1108.77,-265.79 1114.3,-274.82 1118.73,-269.4"/>
</g>
<!-- Node26 -->
<g id="node26" class="node">
<title>Node26</title>
<g id="a_node26"><a xlink:href="maliput__hash_8h.html" target="_top" xlink:title=" ">
<polygon fill="white" stroke="black" points="1202,-302.5 1202,-332.5 1342,-332.5 1342,-302.5 1202,-302.5"/>
<text text-anchor="start" x="1210" y="-320.5" font-family="Helvetica,sans-Serif" font-size="10.00">maliput/common/maliput</text>
<text text-anchor="middle" x="1272" y="-309.5" font-family="Helvetica,sans-Serif" font-size="10.00">_hash.h</text>
</a>
</g>
</g>
<!-- Node24&#45;&gt;Node26 -->
<g id="edge47" class="edge">
<title>Node24&#45;&gt;Node26</title>
<path fill="none" stroke="midnightblue" d="M1257.12,-369.4C1259.44,-361.47 1262.39,-351.38 1265.05,-342.27"/>
<polygon fill="midnightblue" stroke="midnightblue" points="1268.44,-343.16 1267.89,-332.58 1261.72,-341.19 1268.44,-343.16"/>
</g>
<!-- Node26&#45;&gt;Node3 -->
<g id="edge48" class="edge">
<title>Node26&#45;&gt;Node3</title>
<path fill="none" stroke="midnightblue" d="M1244.45,-302.48C1204.89,-282.38 1136.03,-247.62 1130,-246 1093.63,-236.21 531.42,-205.18 386.74,-197.32"/>
<polygon fill="midnightblue" stroke="midnightblue" points="386.86,-193.82 376.68,-196.78 386.48,-200.81 386.86,-193.82"/>
</g>
<!-- Node26&#45;&gt;Node5 -->
<g id="edge53" class="edge">
<title>Node26&#45;&gt;Node5</title>
<path fill="none" stroke="midnightblue" d="M1342.26,-305.86C1425.46,-293.27 1561.02,-272.74 1626.8,-262.78"/>
<polygon fill="midnightblue" stroke="midnightblue" points="1627.37,-266.24 1636.73,-261.28 1626.32,-259.32 1627.37,-266.24"/>
</g>
<!-- Node26&#45;&gt;Node6 -->
<g id="edge58" class="edge">
<title>Node26&#45;&gt;Node6</title>
<path fill="none" stroke="midnightblue" d="M1342.17,-309.26C1466.98,-296.39 1723.05,-269.99 1815.1,-260.5"/>
<polygon fill="midnightblue" stroke="midnightblue" points="1815.66,-263.96 1825.25,-259.45 1814.94,-256.99 1815.66,-263.96"/>
</g>
<!-- Node26&#45;&gt;Node9 -->
<g id="edge55" class="edge">
<title>Node26&#45;&gt;Node9</title>
<path fill="none" stroke="midnightblue" d="M1270.26,-302.37C1267.65,-279.81 1263,-234.26 1263,-195.5 1263,-195.5 1263,-195.5 1263,-132 1263,-25.89 1435.38,-11.86 1508.66,-10.69"/>
<polygon fill="midnightblue" stroke="midnightblue" points="1508.75,-14.19 1518.72,-10.61 1508.69,-7.19 1508.75,-14.19"/>
</g>
<!-- Node26&#45;&gt;Node11 -->
<g id="edge50" class="edge">
<title>Node26&#45;&gt;Node11</title>
<path fill="none" stroke="midnightblue" d="M1201.7,-303.59C1137.35,-291.77 1044.23,-274.67 990.54,-264.81"/>
<polygon fill="midnightblue" stroke="midnightblue" points="991.13,-261.36 980.66,-263 989.87,-268.25 991.13,-261.36"/>
</g>
<!-- Node26&#45;&gt;Node14 -->
<g id="edge59" class="edge">
<title>Node26&#45;&gt;Node14</title>
<path fill="none" stroke="midnightblue" d="M1342.2,-306.67C1393.29,-298.16 1456.74,-284.33 1476,-266 1524.07,-220.25 1496.15,-185.31 1519,-123 1522.27,-114.09 1526.3,-104.51 1530.02,-96.11"/>
<polygon fill="midnightblue" stroke="midnightblue" points="1533.26,-97.45 1534.18,-86.9 1526.88,-94.57 1533.26,-97.45"/>
</g>
<!-- Node26&#45;&gt;Node18 -->
<g id="edge49" class="edge">
<title>Node26&#45;&gt;Node18</title>
<path fill="none" stroke="midnightblue" d="M1262.51,-302.34C1236.43,-264.82 1159.37,-162.98 1066,-123 941.73,-69.78 514.24,-70.47 385.79,-71.94"/>
<polygon fill="midnightblue" stroke="midnightblue" points="385.63,-68.44 375.68,-72.07 385.72,-75.44 385.63,-68.44"/>
</g>
<!-- Node26&#45;&gt;Node20 -->
<g id="edge51" class="edge">
<title>Node26&#45;&gt;Node20</title>
<path fill="none" stroke="midnightblue" d="M1255.23,-302.49C1234.94,-286.3 1199.12,-260.09 1164,-246 807.32,-102.86 684.78,-188.16 314,-87 311.19,-86.23 308.31,-85.36 305.42,-84.43"/>
<polygon fill="midnightblue" stroke="midnightblue" points="306.39,-81.06 295.8,-81.13 304.12,-87.69 306.39,-81.06"/>
</g>
<!-- Node26&#45;&gt;Node25 -->
<g id="edge57" class="edge">
<title>Node26&#45;&gt;Node25</title>
<path fill="none" stroke="midnightblue" d="M1230.76,-302.4C1200.15,-291.93 1158.98,-277.85 1130.64,-268.16"/>
<polygon fill="midnightblue" stroke="midnightblue" points="1131.42,-264.73 1120.82,-264.8 1129.15,-271.35 1131.42,-264.73"/>
</g>
<!-- Node27 -->
<g id="node27" class="node">
<title>Node27</title>
<g id="a_node27"><a xlink:title=" ">
<polygon fill="white" stroke="#bfbfbf" points="1291,-246.5 1291,-265.5 1329,-265.5 1329,-246.5 1291,-246.5"/>
<text text-anchor="middle" x="1310" y="-253.5" font-family="Helvetica,sans-Serif" font-size="10.00">map</text>
</a>
</g>
</g>
<!-- Node26&#45;&gt;Node27 -->
<g id="edge52" class="edge">
<title>Node26&#45;&gt;Node27</title>
<path fill="none" stroke="midnightblue" d="M1281.01,-302.4C1286.41,-293.93 1293.33,-283.1 1299.05,-274.14"/>
<polygon fill="midnightblue" stroke="midnightblue" points="1302.04,-275.97 1304.47,-265.66 1296.14,-272.2 1302.04,-275.97"/>
</g>
<!-- Node28 -->
<g id="node28" class="node">
<title>Node28</title>
<g id="a_node28"><a xlink:title=" ">
<polygon fill="white" stroke="#bfbfbf" points="1347,-246.5 1347,-265.5 1379,-265.5 1379,-246.5 1347,-246.5"/>
<text text-anchor="middle" x="1363" y="-253.5" font-family="Helvetica,sans-Serif" font-size="10.00">set</text>
</a>
</g>
</g>
<!-- Node26&#45;&gt;Node28 -->
<g id="edge54" class="edge">
<title>Node26&#45;&gt;Node28</title>
<path fill="none" stroke="midnightblue" d="M1293.57,-302.4C1307.88,-293.04 1326.61,-280.79 1341.01,-271.38"/>
<polygon fill="midnightblue" stroke="midnightblue" points="1343.3,-274.06 1349.76,-265.66 1339.47,-268.2 1343.3,-274.06"/>
</g>
<!-- Node29 -->
<g id="node29" class="node">
<title>Node29</title>
<g id="a_node29"><a xlink:title=" ">
<polygon fill="white" stroke="#bfbfbf" points="1397.5,-246.5 1397.5,-265.5 1466.5,-265.5 1466.5,-246.5 1397.5,-246.5"/>
<text text-anchor="middle" x="1432" y="-253.5" font-family="Helvetica,sans-Serif" font-size="10.00">type_traits</text>
</a>
</g>
</g>
<!-- Node26&#45;&gt;Node29 -->
<g id="edge56" class="edge">
<title>Node26&#45;&gt;Node29</title>
<path fill="none" stroke="midnightblue" d="M1309.92,-302.4C1337.12,-292.28 1373.4,-278.79 1399.33,-269.15"/>
<polygon fill="midnightblue" stroke="midnightblue" points="1400.57,-272.42 1408.72,-265.66 1398.13,-265.86 1400.57,-272.42"/>
</g>
<!-- Node30&#45;&gt;Node2 -->
<g id="edge85" class="edge">
<title>Node30&#45;&gt;Node2</title>
<path fill="none" stroke="midnightblue" d="M1405.81,-559.32C1388.65,-550.66 1362.05,-537.24 1342.25,-527.25"/>
<polygon fill="midnightblue" stroke="midnightblue" points="1343.65,-524.04 1333.15,-522.65 1340.5,-530.28 1343.65,-524.04"/>
</g>
<!-- Node30&#45;&gt;Node5 -->
<g id="edge68" class="edge">
<title>Node30&#45;&gt;Node5</title>
<path fill="none" stroke="midnightblue" d="M1482.04,-559.46C1575.98,-544.2 1749,-508.49 1749,-452.5 1749,-452.5 1749,-452.5 1749,-383.5 1749,-336.84 1708.85,-294.23 1684.06,-272.38"/>
<polygon fill="midnightblue" stroke="midnightblue" points="1686.21,-269.61 1676.33,-265.78 1681.67,-274.93 1686.21,-269.61"/>
</g>
<!-- Node30&#45;&gt;Node6 -->
<g id="edge71" class="edge">
<title>Node30&#45;&gt;Node6</title>
<path fill="none" stroke="midnightblue" d="M1501.66,-563.44C1628.22,-553.94 1863,-526.34 1863,-452.5 1863,-452.5 1863,-452.5 1863,-383.5 1863,-344.97 1856.5,-300.23 1852.36,-275.63"/>
<polygon fill="midnightblue" stroke="midnightblue" points="1855.77,-274.8 1850.61,-265.55 1848.88,-276.01 1855.77,-274.8"/>
</g>
<!-- Node30&#45;&gt;Node7 -->
<g id="edge83" class="edge">
<title>Node30&#45;&gt;Node7</title>
<path fill="none" stroke="midnightblue" d="M1501.78,-563.07C1528.74,-557.14 1556.28,-545.47 1573,-523 1591.48,-498.16 1553.55,-477.11 1521.85,-464.64"/>
<polygon fill="midnightblue" stroke="midnightblue" points="1522.87,-461.29 1512.28,-461.05 1520.41,-467.84 1522.87,-461.29"/>
</g>
<!-- Node30&#45;&gt;Node9 -->
<g id="edge69" class="edge">
<title>Node30&#45;&gt;Node9</title>
<path fill="none" stroke="midnightblue" d="M1501.65,-566.54C1646.1,-561.72 1939,-541.03 1939,-452.5 1939,-452.5 1939,-452.5 1939,-132 1939,-55.77 1668.33,-22.98 1573.42,-13.82"/>
<polygon fill="midnightblue" stroke="midnightblue" points="1573.53,-10.32 1563.25,-12.87 1572.88,-17.29 1573.53,-10.32"/>
</g>
<!-- Node30&#45;&gt;Node10 -->
<g id="edge84" class="edge">
<title>Node30&#45;&gt;Node10</title>
<path fill="none" stroke="midnightblue" d="M1344.27,-568.24C1149.14,-568.21 654.47,-564.04 593,-523 551.99,-495.62 535.72,-435.32 529.9,-404.48"/>
<polygon fill="midnightblue" stroke="midnightblue" points="533.28,-403.5 528.15,-394.23 526.38,-404.68 533.28,-403.5"/>
</g>
<!-- Node30&#45;&gt;Node13 -->
<g id="edge91" class="edge">
<title>Node30&#45;&gt;Node13</title>
<path fill="none" stroke="midnightblue" d="M1344.25,-563.31C1159.11,-551.48 708.42,-517.72 664,-467 601.17,-395.26 661.57,-269.85 690.98,-218.46"/>
<polygon fill="midnightblue" stroke="midnightblue" points="694.04,-220.15 696.07,-209.75 688,-216.62 694.04,-220.15"/>
</g>
<!-- Node30&#45;&gt;Node14 -->
<g id="edge92" class="edge">
<title>Node30&#45;&gt;Node14</title>
<path fill="none" stroke="midnightblue" d="M1501.66,-565.11C1637.35,-557.97 1901,-533.66 1901,-452.5 1901,-452.5 1901,-452.5 1901,-316.5 1901,-181.78 1726.11,-116.32 1620.13,-89.02"/>
<polygon fill="midnightblue" stroke="midnightblue" points="1620.96,-85.63 1610.41,-86.58 1619.25,-92.41 1620.96,-85.63"/>
</g>
<!-- Node30&#45;&gt;Node21 -->
<g id="edge93" class="edge">
<title>Node30&#45;&gt;Node21</title>
<path fill="none" stroke="midnightblue" d="M1344.18,-566.54C1161.73,-562.72 714.62,-550.76 567,-523 375.63,-487.01 151,-580.23 151,-385.5 151,-385.5 151,-385.5 151,-316.5 151,-243.59 219.35,-177.97 254.14,-149.28"/>
<polygon fill="midnightblue" stroke="midnightblue" points="256.6,-151.8 262.21,-142.81 252.22,-146.34 256.6,-151.8"/>
</g>
<!-- Node30&#45;&gt;Node24 -->
<g id="edge90" class="edge">
<title>Node30&#45;&gt;Node24</title>
<path fill="none" stroke="midnightblue" d="M1419.07,-559.48C1412.88,-546.53 1400,-521.47 1385,-503 1353.8,-464.58 1309.51,-427.92 1281.01,-406.06"/>
<polygon fill="midnightblue" stroke="midnightblue" points="1282.79,-403.02 1272.71,-399.77 1278.56,-408.6 1282.79,-403.02"/>
</g>
<!-- Node31 -->
<g id="node31" class="node">
<title>Node31</title>
<g id="a_node31"><a xlink:title=" ">
<polygon fill="white" stroke="#bfbfbf" points="1470.5,-503.5 1470.5,-522.5 1563.5,-522.5 1563.5,-503.5 1470.5,-503.5"/>
<text text-anchor="middle" x="1517" y="-510.5" font-family="Helvetica,sans-Serif" font-size="10.00">unordered_map</text>
</a>
</g>
</g>
<!-- Node30&#45;&gt;Node31 -->
<g id="edge70" class="edge">
<title>Node30&#45;&gt;Node31</title>
<path fill="none" stroke="midnightblue" d="M1438.1,-559.32C1452.9,-550.82 1475.69,-537.73 1492.98,-527.8"/>
<polygon fill="midnightblue" stroke="midnightblue" points="1495.01,-530.67 1501.93,-522.65 1491.52,-524.6 1495.01,-530.67"/>
</g>
<!-- Node32 -->
<g id="node32" class="node">
<title>Node32</title>
<g id="a_node32"><a xlink:href="api_2branch__point_8h.html" target="_top" xlink:title=" ">
<polygon fill="white" stroke="black" points="1174,-436.5 1174,-466.5 1282,-466.5 1282,-436.5 1174,-436.5"/>
<text text-anchor="start" x="1182" y="-454.5" font-family="Helvetica,sans-Serif" font-size="10.00">maliput/api/branch</text>
<text text-anchor="middle" x="1228" y="-443.5" font-family="Helvetica,sans-Serif" font-size="10.00">_point.h</text>
</a>
</g>
</g>
<!-- Node30&#45;&gt;Node32 -->
<g id="edge72" class="edge">
<title>Node30&#45;&gt;Node32</title>
<path fill="none" stroke="midnightblue" d="M1364.33,-559.48C1319.84,-551.87 1263.61,-539.4 1247,-523 1234.88,-511.03 1230.25,-492.2 1228.58,-477.01"/>
<polygon fill="midnightblue" stroke="midnightblue" points="1232.05,-476.46 1227.83,-466.75 1225.07,-476.97 1232.05,-476.46"/>
</g>
<!-- Node33 -->
<g id="node33" class="node">
<title>Node33</title>
<g id="a_node33"><a xlink:href="api_2junction_8h.html" target="_top" xlink:title=" ">
<polygon fill="white" stroke="black" points="916.5,-442 916.5,-461 1039.5,-461 1039.5,-442 916.5,-442"/>
<text text-anchor="middle" x="978" y="-449" font-family="Helvetica,sans-Serif" font-size="10.00">maliput/api/junction.h</text>
</a>
</g>
</g>
<!-- Node30&#45;&gt;Node33 -->
<g id="edge79" class="edge">
<title>Node30&#45;&gt;Node33</title>
<path fill="none" stroke="midnightblue" d="M1384.06,-559.45C1345,-550.74 1283.16,-536.63 1230,-523 1154.04,-503.53 1065.95,-478.26 1016.62,-463.87"/>
<polygon fill="midnightblue" stroke="midnightblue" points="1017.57,-460.5 1006.99,-461.06 1015.61,-467.22 1017.57,-460.5"/>
</g>
<!-- Node34 -->
<g id="node34" class="node">
<title>Node34</title>
<g id="a_node34"><a xlink:href="api_2segment_8h.html" target="_top" xlink:title=" ">
<polygon fill="white" stroke="black" points="1555.5,-442 1555.5,-461 1682.5,-461 1682.5,-442 1555.5,-442"/>
<text text-anchor="middle" x="1619" y="-449" font-family="Helvetica,sans-Serif" font-size="10.00">maliput/api/segment.h</text>
</a>
</g>
</g>
<!-- Node30&#45;&gt;Node34 -->
<g id="edge86" class="edge">
<title>Node30&#45;&gt;Node34</title>
<path fill="none" stroke="midnightblue" d="M1425.85,-559.49C1430.93,-545.63 1442.83,-518.22 1462,-503 1479.32,-489.26 1532.86,-473.72 1572.63,-463.55"/>
<polygon fill="midnightblue" stroke="midnightblue" points="1573.58,-466.93 1582.42,-461.09 1571.87,-460.14 1573.58,-466.93"/>
</g>
<!-- Node32&#45;&gt;Node5 -->
<g id="edge74" class="edge">
<title>Node32&#45;&gt;Node5</title>
<path fill="none" stroke="midnightblue" d="M1261.84,-436.47C1282.72,-427.24 1309.67,-414.26 1332,-400 1350.37,-388.27 1350.57,-378.88 1370,-369 1426.11,-340.45 1449.39,-358.39 1507,-333 1530.24,-322.76 1532.48,-313.75 1555,-302 1579.59,-289.17 1608.68,-277.41 1630.77,-269.13"/>
<polygon fill="midnightblue" stroke="midnightblue" points="1632.22,-272.33 1640.38,-265.58 1629.79,-265.76 1632.22,-272.33"/>
</g>
<!-- Node32&#45;&gt;Node8 -->
<g id="edge73" class="edge">
<title>Node32&#45;&gt;Node8</title>
<path fill="none" stroke="midnightblue" d="M1267.06,-436.4C1299.2,-424.79 1344.27,-408.51 1374.72,-397.52"/>
<polygon fill="midnightblue" stroke="midnightblue" points="1376.23,-400.7 1384.44,-394.01 1373.85,-394.11 1376.23,-400.7"/>
</g>
<!-- Node32&#45;&gt;Node9 -->
<g id="edge75" class="edge">
<title>Node32&#45;&gt;Node9</title>
<path fill="none" stroke="midnightblue" d="M1173.78,-440.37C1064.84,-417.49 835.7,-355.1 907,-246 969.39,-150.54 1041.91,-197.64 1142,-143 1203.35,-109.51 1208,-81.68 1273,-56 1353.9,-24.03 1457.29,-14.77 1508.81,-12.09"/>
<polygon fill="midnightblue" stroke="midnightblue" points="1509.16,-15.58 1518.99,-11.61 1508.83,-8.58 1509.16,-15.58"/>
</g>
<!-- Node32&#45;&gt;Node10 -->
<g id="edge76" class="edge">
<title>Node32&#45;&gt;Node10</title>
<path fill="none" stroke="midnightblue" d="M1173.87,-445.48C1049.99,-433.99 745.6,-405.77 603.01,-392.55"/>
<polygon fill="midnightblue" stroke="midnightblue" points="603.31,-389.06 593.03,-391.62 602.66,-396.03 603.31,-389.06"/>
</g>
<!-- Node32&#45;&gt;Node13 -->
<g id="edge78" class="edge">
<title>Node32&#45;&gt;Node13</title>
<path fill="none" stroke="midnightblue" d="M1173.79,-446.1C1072.7,-437.52 863.05,-417.83 835,-400 799.87,-377.67 741.38,-267.69 716.63,-218.89"/>
<polygon fill="midnightblue" stroke="midnightblue" points="719.64,-217.08 712.02,-209.73 713.39,-220.23 719.64,-217.08"/>
</g>
<!-- Node32&#45;&gt;Node24 -->
<g id="edge77" class="edge">
<title>Node32&#45;&gt;Node24</title>
<path fill="none" stroke="midnightblue" d="M1233.42,-436.4C1236.5,-428.39 1240.44,-418.16 1243.97,-408.98"/>
<polygon fill="midnightblue" stroke="midnightblue" points="1247.26,-410.17 1247.59,-399.58 1240.73,-407.65 1247.26,-410.17"/>
</g>
<!-- Node33&#45;&gt;Node9 -->
<g id="edge80" class="edge">
<title>Node33&#45;&gt;Node9</title>
<path fill="none" stroke="midnightblue" d="M968.58,-441.92C949.63,-423.95 907.39,-380.1 892,-333 869.92,-265.45 881.28,-225.52 935,-179 1109.81,-27.62 1410.19,-11.73 1508.69,-10.76"/>
<polygon fill="midnightblue" stroke="midnightblue" points="1508.92,-14.26 1518.9,-10.7 1508.88,-7.26 1508.92,-14.26"/>
</g>
<!-- Node33&#45;&gt;Node13 -->
<g id="edge82" class="edge">
<title>Node33&#45;&gt;Node13</title>
<path fill="none" stroke="midnightblue" d="M916.29,-443.43C859.62,-435.7 781.17,-421.48 759,-400 733.13,-374.94 715.2,-268.21 708.23,-219.69"/>
<polygon fill="midnightblue" stroke="midnightblue" points="711.69,-219.15 706.84,-209.74 704.76,-220.12 711.69,-219.15"/>
</g>
<!-- Node33&#45;&gt;Node24 -->
<g id="edge81" class="edge">
<title>Node33&#45;&gt;Node24</title>
<path fill="none" stroke="midnightblue" d="M1014.23,-441.94C1057.21,-431.78 1129.8,-414.62 1183.69,-401.88"/>
<polygon fill="midnightblue" stroke="midnightblue" points="1184.59,-405.27 1193.52,-399.56 1182.98,-398.45 1184.59,-405.27"/>
</g>
<!-- Node34&#45;&gt;Node9 -->
<g id="edge87" class="edge">
<title>Node34&#45;&gt;Node9</title>
<path fill="none" stroke="midnightblue" d="M1631.23,-441.91C1671.45,-412.54 1797,-311.58 1797,-195.5 1797,-195.5 1797,-195.5 1797,-132 1797,-34.24 1642.52,-15.35 1573.57,-11.78"/>
<polygon fill="midnightblue" stroke="midnightblue" points="1573.41,-8.27 1563.27,-11.33 1573.11,-15.27 1573.41,-8.27"/>
</g>
<!-- Node34&#45;&gt;Node13 -->
<g id="edge89" class="edge">
<title>Node34&#45;&gt;Node13</title>
<path fill="none" stroke="midnightblue" d="M1607.15,-441.85C1583.06,-424.75 1526.06,-386.75 1472,-369 1353.21,-329.99 1309.52,-378.33 1193,-333 1170.71,-324.33 1169.83,-313.76 1149,-302 1114.34,-282.44 1103.19,-282.56 1067,-266 1048.2,-257.4 1044.75,-252.12 1025,-246 945.58,-221.39 851.16,-208.36 785.56,-201.75"/>
<polygon fill="midnightblue" stroke="midnightblue" points="785.58,-198.23 775.29,-200.74 784.9,-205.2 785.58,-198.23"/>
</g>
<!-- Node34&#45;&gt;Node24 -->
<g id="edge88" class="edge">
<title>Node34&#45;&gt;Node24</title>
<path fill="none" stroke="midnightblue" d="M1577.54,-441.94C1567.55,-439.94 1556.9,-437.85 1547,-436 1474.81,-422.53 1392.39,-408.49 1333.22,-398.64"/>
<polygon fill="midnightblue" stroke="midnightblue" points="1333.63,-395.16 1323.2,-396.98 1332.49,-402.07 1333.63,-395.16"/>
</g>
</g>
</svg>
