<?xml version="1.0" encoding="UTF-8" standalone="no"?>
<!DOCTYPE svg PUBLIC "-//W3C//DTD SVG 1.1//EN"
 "http://www.w3.org/Graphics/SVG/1.1/DTD/svg11.dtd">
<!-- Generated by graphviz version 2.40.1 (20161225.0304)
 -->
<!-- Title: regions.cc Pages: 1 -->
<svg width="1947pt" height="643pt"
 viewBox="0.00 0.00 1947.00 643.00" xmlns="http://www.w3.org/2000/svg" xmlns:xlink="http://www.w3.org/1999/xlink">
<g id="graph0" class="graph" transform="scale(1 1) rotate(0) translate(4 639)">
<title>regions.cc</title>
<polygon fill="#ffffff" stroke="transparent" points="-4,4 -4,-639 1943,-639 1943,4 -4,4"/>
<!-- Node0 -->
<g id="node1" class="node">
<title>Node0</title>
<polygon fill="#bfbfbf" stroke="#000000" points="1336,-615.5 1336,-634.5 1402,-634.5 1402,-615.5 1336,-615.5"/>
<text text-anchor="middle" x="1369" y="-622.5" font-family="Helvetica,sans-Serif" font-size="10.00" fill="#000000">regions.cc</text>
</g>
<!-- Node1 -->
<g id="node2" class="node">
<title>Node1</title>
<g id="a_node2"><a xlink:href="regions_8h.html" target="_top" xlink:title="maliput/api/regions.h">
<polygon fill="#ffffff" stroke="#000000" points="1256,-503.5 1256,-522.5 1376,-522.5 1376,-503.5 1256,-503.5"/>
<text text-anchor="middle" x="1316" y="-510.5" font-family="Helvetica,sans-Serif" font-size="10.00" fill="#000000">maliput/api/regions.h</text>
</a>
</g>
</g>
<!-- Node0&#45;&gt;Node1 -->
<g id="edge1" class="edge">
<title>Node0&#45;&gt;Node1</title>
<path fill="none" stroke="#191970" d="M1360.3316,-615.4431C1352.6968,-606.5751 1341.7676,-592.7145 1335,-579 1327.7449,-564.2976 1322.8021,-546.3487 1319.7807,-532.8821"/>
<polygon fill="#191970" stroke="#191970" points="1323.1461,-531.8738 1317.6861,-522.7942 1316.2923,-533.297 1323.1461,-531.8738"/>
</g>
<!-- Node6 -->
<g id="node7" class="node">
<title>Node6</title>
<g id="a_node7"><a xlink:href="api_2lane_8h.html" target="_top" xlink:title="maliput/api/lane.h">
<polygon fill="#ffffff" stroke="#000000" points="1432.5,-442 1432.5,-461 1537.5,-461 1537.5,-442 1432.5,-442"/>
<text text-anchor="middle" x="1485" y="-449" font-family="Helvetica,sans-Serif" font-size="10.00" fill="#000000">maliput/api/lane.h</text>
</a>
</g>
</g>
<!-- Node0&#45;&gt;Node6 -->
<g id="edge65" class="edge">
<title>Node0&#45;&gt;Node6</title>
<path fill="none" stroke="#191970" d="M1402.1757,-621.8052C1454.3872,-614.7051 1553.4452,-592.2957 1589,-523 1603.5206,-494.6996 1568.1297,-475.5037 1534.7645,-464.187"/>
<polygon fill="#191970" stroke="#191970" points="1535.5839,-460.7746 1524.993,-461.0649 1533.4534,-467.4425 1535.5839,-460.7746"/>
</g>
<!-- Node9 -->
<g id="node10" class="node">
<title>Node9</title>
<g id="a_node10"><a xlink:href="lane__data_8h.html" target="_top" xlink:title="maliput/api/lane_data.h">
<polygon fill="#ffffff" stroke="#000000" points="461,-375 461,-394 593,-394 593,-375 461,-375"/>
<text text-anchor="middle" x="527" y="-382" font-family="Helvetica,sans-Serif" font-size="10.00" fill="#000000">maliput/api/lane_data.h</text>
</a>
</g>
</g>
<!-- Node0&#45;&gt;Node9 -->
<g id="edge66" class="edge">
<title>Node0&#45;&gt;Node9</title>
<path fill="none" stroke="#191970" d="M1335.878,-624.5456C1201.4032,-622.1417 697.2325,-607.5487 567,-523 528.1123,-497.7536 524.5597,-436.5207 525.5662,-404.6034"/>
<polygon fill="#191970" stroke="#191970" points="529.078,-404.4554 526.0863,-394.2918 522.0869,-404.1028 529.078,-404.4554"/>
</g>
<!-- Node29 -->
<g id="node30" class="node">
<title>Node29</title>
<g id="a_node30"><a xlink:href="api_2road__geometry_8h.html" target="_top" xlink:title="maliput/api/road_geometry.h">
<polygon fill="#ffffff" stroke="#000000" points="1344,-559.5 1344,-578.5 1502,-578.5 1502,-559.5 1344,-559.5"/>
<text text-anchor="middle" x="1423" y="-566.5" font-family="Helvetica,sans-Serif" font-size="10.00" fill="#000000">maliput/api/road_geometry.h</text>
</a>
</g>
</g>
<!-- Node0&#45;&gt;Node29 -->
<g id="edge67" class="edge">
<title>Node0&#45;&gt;Node29</title>
<path fill="none" stroke="#191970" d="M1378.4061,-615.2455C1386.1493,-607.2155 1397.312,-595.6394 1406.5318,-586.0781"/>
<polygon fill="#191970" stroke="#191970" points="1409.2798,-588.2706 1413.7017,-578.6427 1404.2409,-583.4117 1409.2798,-588.2706"/>
</g>
<!-- Node2 -->
<g id="node3" class="node">
<title>Node2</title>
<polygon fill="#ffffff" stroke="#bfbfbf" points="329.5,-185 329.5,-204 376.5,-204 376.5,-185 329.5,-185"/>
<text text-anchor="middle" x="353" y="-192" font-family="Helvetica,sans-Serif" font-size="10.00" fill="#000000">cmath</text>
</g>
<!-- Node1&#45;&gt;Node2 -->
<g id="edge2" class="edge">
<title>Node1&#45;&gt;Node2</title>
<path fill="none" stroke="#191970" d="M1255.9778,-510.5756C1117.0232,-504.6698 776.5157,-488.4372 664,-467 566.9304,-448.5057 539.336,-446.2273 452,-400 378.9359,-361.3269 346.6819,-345.2032 323,-266 317.3794,-247.2021 327.8831,-226.6325 337.9727,-212.4019"/>
<polygon fill="#191970" stroke="#191970" points="340.7697,-214.5061 344.0536,-204.433 335.2048,-210.2597 340.7697,-214.5061"/>
</g>
<!-- Node3 -->
<g id="node4" class="node">
<title>Node3</title>
<polygon fill="#ffffff" stroke="#bfbfbf" points="673,-442 673,-461 729,-461 729,-442 673,-442"/>
<text text-anchor="middle" x="701" y="-449" font-family="Helvetica,sans-Serif" font-size="10.00" fill="#000000">numeric</text>
</g>
<!-- Node1&#45;&gt;Node3 -->
<g id="edge3" class="edge">
<title>Node1&#45;&gt;Node3</title>
<path fill="none" stroke="#191970" d="M1255.9486,-510.2594C1129.4928,-504.1487 839.4878,-488.2551 743,-467 739.7361,-466.281 736.3838,-465.3662 733.0647,-464.3418"/>
<polygon fill="#191970" stroke="#191970" points="733.9237,-460.9369 723.3292,-461.0252 731.6664,-467.563 733.9237,-460.9369"/>
</g>
<!-- Node4 -->
<g id="node5" class="node">
<title>Node4</title>
<polygon fill="#ffffff" stroke="#bfbfbf" points="1637,-246.5 1637,-265.5 1693,-265.5 1693,-246.5 1637,-246.5"/>
<text text-anchor="middle" x="1665" y="-253.5" font-family="Helvetica,sans-Serif" font-size="10.00" fill="#000000">optional</text>
</g>
<!-- Node1&#45;&gt;Node4 -->
<g id="edge4" class="edge">
<title>Node1&#45;&gt;Node4</title>
<path fill="none" stroke="#191970" d="M1327.4195,-503.4971C1364.3744,-472.9008 1484.4366,-374.7161 1590,-302 1605.9943,-290.9825 1624.602,-279.5617 1639.2816,-270.8561"/>
<polygon fill="#191970" stroke="#191970" points="1641.4465,-273.6435 1648.294,-265.5589 1637.8994,-267.6088 1641.4465,-273.6435"/>
</g>
<!-- Node5 -->
<g id="node6" class="node">
<title>Node5</title>
<polygon fill="#ffffff" stroke="#bfbfbf" points="1825.5,-246.5 1825.5,-265.5 1872.5,-265.5 1872.5,-246.5 1825.5,-246.5"/>
<text text-anchor="middle" x="1849" y="-253.5" font-family="Helvetica,sans-Serif" font-size="10.00" fill="#000000">vector</text>
</g>
<!-- Node1&#45;&gt;Node5 -->
<g id="edge5" class="edge">
<title>Node1&#45;&gt;Node5</title>
<path fill="none" stroke="#191970" d="M1376.0567,-508.7862C1467.0107,-501.8764 1635.1215,-486.8924 1692,-467 1745.6765,-448.2274 1765.6566,-444.5469 1801,-400 1830.7732,-362.4738 1842.4658,-305.6357 1846.7432,-275.8317"/>
<polygon fill="#191970" stroke="#191970" points="1850.2251,-276.1967 1848.0417,-265.8293 1843.2834,-275.2955 1850.2251,-276.1967"/>
</g>
<!-- Node1&#45;&gt;Node6 -->
<g id="edge6" class="edge">
<title>Node1&#45;&gt;Node6</title>
<path fill="none" stroke="#191970" d="M1342.4063,-503.3906C1371.1791,-492.92 1417.3696,-476.1111 1449.3466,-464.4745"/>
<polygon fill="#191970" stroke="#191970" points="1450.579,-467.7506 1458.7792,-461.0419 1448.1851,-461.1726 1450.579,-467.7506"/>
</g>
<!-- Node12 -->
<g id="node13" class="node">
<title>Node12</title>
<g id="a_node13"><a xlink:href="maliput__copyable_8h.html" target="_top" xlink:title="Code in this file is inspired by: https://github.com/RobotLocomotion/drake/blob/master/common/drake_c...">
<polygon fill="#ffffff" stroke="#000000" points="635,-179.5 635,-209.5 775,-209.5 775,-179.5 635,-179.5"/>
<text text-anchor="start" x="643" y="-197.5" font-family="Helvetica,sans-Serif" font-size="10.00" fill="#000000">maliput/common/maliput</text>
<text text-anchor="middle" x="705" y="-186.5" font-family="Helvetica,sans-Serif" font-size="10.00" fill="#000000">_copyable.h</text>
</a>
</g>
</g>
<!-- Node1&#45;&gt;Node12 -->
<g id="edge64" class="edge">
<title>Node1&#45;&gt;Node12</title>
<path fill="none" stroke="#191970" d="M1255.9809,-510.0831C1122.3812,-502.26 806.8014,-475.9811 738,-400 692.4842,-349.7345 695.9667,-262.7327 701.0692,-219.8664"/>
<polygon fill="#191970" stroke="#191970" points="704.5685,-220.1007 702.4072,-209.7287 697.6287,-219.1847 704.5685,-220.1007"/>
</g>
<!-- Node23 -->
<g id="node24" class="node">
<title>Node23</title>
<g id="a_node24"><a xlink:href="type__specific__identifier_8h.html" target="_top" xlink:title="maliput/api/type_specific\l_identifier.h">
<polygon fill="#ffffff" stroke="#000000" points="1183,-369.5 1183,-399.5 1323,-399.5 1323,-369.5 1183,-369.5"/>
<text text-anchor="start" x="1191" y="-387.5" font-family="Helvetica,sans-Serif" font-size="10.00" fill="#000000">maliput/api/type_specific</text>
<text text-anchor="middle" x="1253" y="-376.5" font-family="Helvetica,sans-Serif" font-size="10.00" fill="#000000">_identifier.h</text>
</a>
</g>
</g>
<!-- Node1&#45;&gt;Node23 -->
<g id="edge63" class="edge">
<title>Node1&#45;&gt;Node23</title>
<path fill="none" stroke="#191970" d="M1313.9293,-503.3675C1310.4812,-488.3932 1302.7588,-458.8754 1291,-436 1285.9709,-426.2165 1279.1486,-416.2981 1272.6721,-407.8122"/>
<polygon fill="#191970" stroke="#191970" points="1275.336,-405.5381 1266.39,-399.8618 1269.8436,-409.878 1275.336,-405.5381"/>
</g>
<!-- Node6&#45;&gt;Node4 -->
<g id="edge8" class="edge">
<title>Node6&#45;&gt;Node4</title>
<path fill="none" stroke="#191970" d="M1493.9262,-441.8051C1522.5963,-410.6663 1612.6002,-312.912 1649.2437,-273.1131"/>
<polygon fill="#191970" stroke="#191970" points="1651.8213,-275.4808 1656.0199,-265.7534 1646.6716,-270.7394 1651.8213,-275.4808"/>
</g>
<!-- Node7 -->
<g id="node8" class="node">
<title>Node7</title>
<polygon fill="#ffffff" stroke="#bfbfbf" points="1379,-375 1379,-394 1437,-394 1437,-375 1379,-375"/>
<text text-anchor="middle" x="1408" y="-382" font-family="Helvetica,sans-Serif" font-size="10.00" fill="#000000">memory</text>
</g>
<!-- Node6&#45;&gt;Node7 -->
<g id="edge7" class="edge">
<title>Node6&#45;&gt;Node7</title>
<path fill="none" stroke="#191970" d="M1473.9678,-441.9005C1461.6172,-431.1539 1441.3977,-413.5603 1426.5943,-400.6794"/>
<polygon fill="#191970" stroke="#191970" points="1428.8532,-398.0055 1419.0118,-394.0817 1424.2582,-403.2863 1428.8532,-398.0055"/>
</g>
<!-- Node8 -->
<g id="node9" class="node">
<title>Node8</title>
<polygon fill="#ffffff" stroke="#bfbfbf" points="1519,-.5 1519,-19.5 1563,-19.5 1563,-.5 1519,-.5"/>
<text text-anchor="middle" x="1541" y="-7.5" font-family="Helvetica,sans-Serif" font-size="10.00" fill="#000000">string</text>
</g>
<!-- Node6&#45;&gt;Node8 -->
<g id="edge9" class="edge">
<title>Node6&#45;&gt;Node8</title>
<path fill="none" stroke="#191970" d="M1518.2169,-441.9985C1545.0847,-433.43 1583.2115,-419.2204 1613,-400 1707.1416,-339.257 1759,-306.5373 1759,-194.5 1759,-194.5 1759,-194.5 1759,-133 1759,-48.7563 1633.9872,-21.5678 1573.2977,-13.3323"/>
<polygon fill="#191970" stroke="#191970" points="1573.4623,-9.8254 1563.1027,-12.0456 1572.5857,-16.7703 1573.4623,-9.8254"/>
</g>
<!-- Node6&#45;&gt;Node9 -->
<g id="edge10" class="edge">
<title>Node6&#45;&gt;Node9</title>
<path fill="none" stroke="#191970" d="M1432.3166,-447.1129C1393.3053,-443.9076 1338.8492,-439.5241 1291,-436 1039.2643,-417.4597 740.6669,-398.0912 603.2038,-389.3223"/>
<polygon fill="#191970" stroke="#191970" points="603.3921,-385.8273 593.1897,-388.684 602.9468,-392.8131 603.3921,-385.8273"/>
</g>
<!-- Node6&#45;&gt;Node12 -->
<g id="edge61" class="edge">
<title>Node6&#45;&gt;Node12</title>
<path fill="none" stroke="#191970" d="M1483.5241,-441.9566C1480.2517,-424.3322 1470.6284,-386.8519 1446,-369 1342.27,-293.8114 1280.7757,-375.7372 1160,-333 1135.3509,-324.2778 1132.9983,-314.4392 1110,-302 1109.1911,-301.5625 990.8764,-246.2785 990,-246 922.5318,-224.5591 843.0687,-211.1246 785.2127,-203.3753"/>
<polygon fill="#191970" stroke="#191970" points="785.4026,-199.8703 775.0324,-202.0404 784.4925,-206.8109 785.4026,-199.8703"/>
</g>
<!-- Node13 -->
<g id="node14" class="node">
<title>Node13</title>
<g id="a_node14"><a xlink:href="maliput__throw_8h.html" target="_top" xlink:title="Code in this file is inspired by: https://github.com/RobotLocomotion/drake/blob/master/common/drake_t...">
<polygon fill="#ffffff" stroke="#000000" points="1471,-56.5 1471,-86.5 1611,-86.5 1611,-56.5 1471,-56.5"/>
<text text-anchor="start" x="1479" y="-74.5" font-family="Helvetica,sans-Serif" font-size="10.00" fill="#000000">maliput/common/maliput</text>
<text text-anchor="middle" x="1541" y="-63.5" font-family="Helvetica,sans-Serif" font-size="10.00" fill="#000000">_throw.h</text>
</a>
</g>
</g>
<!-- Node6&#45;&gt;Node13 -->
<g id="edge62" class="edge">
<title>Node6&#45;&gt;Node13</title>
<path fill="none" stroke="#191970" d="M1505.6262,-441.9906C1551.8268,-419.3516 1662.6454,-357.2481 1702,-266 1733.8857,-192.0694 1637.1387,-124.1025 1579.9269,-91.5991"/>
<polygon fill="#191970" stroke="#191970" points="1581.5499,-88.4969 1571.11,-86.6916 1578.1454,-94.6132 1581.5499,-88.4969"/>
</g>
<!-- Node6&#45;&gt;Node23 -->
<g id="edge42" class="edge">
<title>Node6&#45;&gt;Node23</title>
<path fill="none" stroke="#191970" d="M1451.7601,-441.9005C1416.1161,-431.6068 1358.7192,-415.031 1314.747,-402.3321"/>
<polygon fill="#191970" stroke="#191970" points="1315.5942,-398.9338 1305.0157,-399.5218 1313.6519,-405.659 1315.5942,-398.9338"/>
</g>
<!-- Node9&#45;&gt;Node8 -->
<g id="edge13" class="edge">
<title>Node9&#45;&gt;Node8</title>
<path fill="none" stroke="#191970" d="M529.2797,-374.8926C534.1233,-353.6105 545,-300.8284 545,-256 545,-256 545,-256 545,-133 545,-33.5352 1337.4859,-13.6489 1508.6588,-10.5136"/>
<polygon fill="#191970" stroke="#191970" points="1508.8641,-14.0107 1518.8007,-10.3344 1508.7403,-7.0117 1508.8641,-14.0107"/>
</g>
<!-- Node10 -->
<g id="node11" class="node">
<title>Node10</title>
<polygon fill="#ffffff" stroke="#bfbfbf" points="915.5,-246.5 915.5,-265.5 980.5,-265.5 980.5,-246.5 915.5,-246.5"/>
<text text-anchor="middle" x="948" y="-253.5" font-family="Helvetica,sans-Serif" font-size="10.00" fill="#000000">functional</text>
</g>
<!-- Node9&#45;&gt;Node10 -->
<g id="edge11" class="edge">
<title>Node9&#45;&gt;Node10</title>
<path fill="none" stroke="#191970" d="M558.2995,-374.9466C633.2864,-352.0587 823.2005,-294.092 907.0905,-268.4866"/>
<polygon fill="#191970" stroke="#191970" points="908.2379,-271.7959 916.7806,-265.529 906.1944,-265.1008 908.2379,-271.7959"/>
</g>
<!-- Node11 -->
<g id="node12" class="node">
<title>Node11</title>
<polygon fill="#ffffff" stroke="#bfbfbf" points="245.5,-185 245.5,-204 302.5,-204 302.5,-185 245.5,-185"/>
<text text-anchor="middle" x="274" y="-192" font-family="Helvetica,sans-Serif" font-size="10.00" fill="#000000">ostream</text>
</g>
<!-- Node9&#45;&gt;Node11 -->
<g id="edge12" class="edge">
<title>Node9&#45;&gt;Node11</title>
<path fill="none" stroke="#191970" d="M466.6929,-374.9937C434.6583,-367.6327 396.0223,-354.8546 367,-333 324.3651,-300.8948 294.9221,-243.2473 281.7702,-213.464"/>
<polygon fill="#191970" stroke="#191970" points="284.9506,-211.9993 277.8027,-204.1789 278.5136,-214.7499 284.9506,-211.9993"/>
</g>
<!-- Node9&#45;&gt;Node12 -->
<g id="edge14" class="edge">
<title>Node9&#45;&gt;Node12</title>
<path fill="none" stroke="#191970" d="M534.2591,-374.9901C552.0611,-351.8981 599.7399,-291.4264 645,-246 655.3461,-235.6159 667.5003,-224.9343 678.1541,-216.0101"/>
<polygon fill="#191970" stroke="#191970" points="680.4764,-218.6314 685.9539,-209.5622 676.0164,-213.2361 680.4764,-218.6314"/>
</g>
<!-- Node9&#45;&gt;Node13 -->
<g id="edge15" class="edge">
<title>Node9&#45;&gt;Node13</title>
<path fill="none" stroke="#191970" d="M593.246,-383.4609C762.5775,-380.3095 1207.9491,-368.7713 1351,-333 1368.4137,-328.6455 1485.7521,-279.122 1498,-266 1541.7711,-219.1051 1544.6865,-138.0523 1542.9722,-96.9627"/>
<polygon fill="#191970" stroke="#191970" points="1546.4532,-96.5196 1542.4118,-86.7259 1539.4637,-96.9023 1546.4532,-96.5196"/>
</g>
<!-- Node14 -->
<g id="node15" class="node">
<title>Node14</title>
<g id="a_node15"><a xlink:href="matrix_8h.html" target="_top" xlink:title="maliput/math/matrix.h">
<polygon fill="#ffffff" stroke="#000000" points="5.5,-185 5.5,-204 132.5,-204 132.5,-185 5.5,-185"/>
<text text-anchor="middle" x="69" y="-192" font-family="Helvetica,sans-Serif" font-size="10.00" fill="#000000">maliput/math/matrix.h</text>
</a>
</g>
</g>
<!-- Node9&#45;&gt;Node14 -->
<g id="edge17" class="edge">
<title>Node9&#45;&gt;Node14</title>
<path fill="none" stroke="#191970" d="M460.9441,-379.0273C407.0197,-372.7906 329.7543,-359.7518 267,-333 193.3595,-301.6075 119.486,-240.0582 86.6455,-210.7546"/>
<polygon fill="#191970" stroke="#191970" points="88.9733,-208.1408 79.2054,-204.0372 84.2823,-213.3365 88.9733,-208.1408"/>
</g>
<!-- Node20 -->
<g id="node21" class="node">
<title>Node20</title>
<g id="a_node21"><a xlink:href="vector_8h.html" target="_top" xlink:title="maliput/math/vector.h">
<polygon fill="#ffffff" stroke="#000000" points="211.5,-123.5 211.5,-142.5 336.5,-142.5 336.5,-123.5 211.5,-123.5"/>
<text text-anchor="middle" x="274" y="-130.5" font-family="Helvetica,sans-Serif" font-size="10.00" fill="#000000">maliput/math/vector.h</text>
</a>
</g>
</g>
<!-- Node9&#45;&gt;Node20 -->
<g id="edge41" class="edge">
<title>Node9&#45;&gt;Node20</title>
<path fill="none" stroke="#191970" d="M460.7696,-377.7959C420.8368,-371.2497 370.4353,-358.3543 332,-333 274.114,-294.8149 258.5607,-275.5737 236,-210 231.5176,-196.9717 231.3375,-191.9649 236,-179 239.9436,-168.0341 247.7597,-157.8227 255.2831,-149.8204"/>
<polygon fill="#191970" stroke="#191970" points="257.9193,-152.1354 262.5547,-142.6084 252.9899,-147.1653 257.9193,-152.1354"/>
</g>
<!-- Node21 -->
<g id="node22" class="node">
<title>Node21</title>
<g id="a_node22"><a xlink:href="quaternion_8h.html" target="_top" xlink:title="Code in this file is inspired by: https://gitlab.com/libeigen/eigen/&#45;/blob/master/Eigen/src/Geometry/...">
<polygon fill="#ffffff" stroke="#000000" points="331.5,-246.5 331.5,-265.5 478.5,-265.5 478.5,-246.5 331.5,-246.5"/>
<text text-anchor="middle" x="405" y="-253.5" font-family="Helvetica,sans-Serif" font-size="10.00" fill="#000000">maliput/math/quaternion.h</text>
</a>
</g>
</g>
<!-- Node9&#45;&gt;Node21 -->
<g id="edge30" class="edge">
<title>Node9&#45;&gt;Node21</title>
<path fill="none" stroke="#191970" d="M481.5493,-374.9761C442.1109,-365.681 389.4392,-350.4227 377,-333 364.1681,-315.0272 377.1976,-290.5347 389.4407,-274.0401"/>
<polygon fill="#191970" stroke="#191970" points="392.5135,-275.7989 395.9923,-265.7915 387.0321,-271.4452 392.5135,-275.7989"/>
</g>
<!-- Node22 -->
<g id="node23" class="node">
<title>Node22</title>
<g id="a_node23"><a xlink:href="roll__pitch__yaw_8h.html" target="_top" xlink:title="Code in this file is inspired by: https://github.com/RobotLocomotion/drake/blob/master/math/roll_pitc...">
<polygon fill="#ffffff" stroke="#000000" points="385.5,-302.5 385.5,-332.5 516.5,-332.5 516.5,-302.5 385.5,-302.5"/>
<text text-anchor="start" x="393.5" y="-320.5" font-family="Helvetica,sans-Serif" font-size="10.00" fill="#000000">maliput/math/roll_pitch</text>
<text text-anchor="middle" x="451" y="-309.5" font-family="Helvetica,sans-Serif" font-size="10.00" fill="#000000">_yaw.h</text>
</a>
</g>
</g>
<!-- Node9&#45;&gt;Node22 -->
<g id="edge36" class="edge">
<title>Node9&#45;&gt;Node22</title>
<path fill="none" stroke="#191970" d="M516.1111,-374.9005C505.6121,-365.6448 489.3518,-351.3101 475.7075,-339.2816"/>
<polygon fill="#191970" stroke="#191970" points="477.8554,-336.5093 468.0396,-332.5218 473.2264,-341.7602 477.8554,-336.5093"/>
</g>
<!-- Node13&#45;&gt;Node8 -->
<g id="edge16" class="edge">
<title>Node13&#45;&gt;Node8</title>
<path fill="none" stroke="#191970" d="M1541,-56.2977C1541,-48.3834 1541,-38.6043 1541,-30.0759"/>
<polygon fill="#191970" stroke="#191970" points="1544.5001,-29.8469 1541,-19.8469 1537.5001,-29.847 1544.5001,-29.8469"/>
</g>
<!-- Node15 -->
<g id="node16" class="node">
<title>Node15</title>
<polygon fill="#ffffff" stroke="#bfbfbf" points="0,-62 0,-81 64,-81 64,-62 0,-62"/>
<text text-anchor="middle" x="32" y="-69" font-family="Helvetica,sans-Serif" font-size="10.00" fill="#000000">algorithm</text>
</g>
<!-- Node14&#45;&gt;Node15 -->
<g id="edge18" class="edge">
<title>Node14&#45;&gt;Node15</title>
<path fill="none" stroke="#191970" d="M66.0967,-184.8484C60.0176,-164.6397 45.8502,-117.5427 37.8216,-90.8528"/>
<polygon fill="#191970" stroke="#191970" points="41.1222,-89.6746 34.8898,-81.1068 34.4189,-91.6911 41.1222,-89.6746"/>
</g>
<!-- Node16 -->
<g id="node17" class="node">
<title>Node16</title>
<polygon fill="#ffffff" stroke="#bfbfbf" points="82,-62 82,-81 124,-81 124,-62 82,-62"/>
<text text-anchor="middle" x="103" y="-69" font-family="Helvetica,sans-Serif" font-size="10.00" fill="#000000">array</text>
</g>
<!-- Node14&#45;&gt;Node16 -->
<g id="edge19" class="edge">
<title>Node14&#45;&gt;Node16</title>
<path fill="none" stroke="#191970" d="M71.6679,-184.8484C77.2541,-164.6397 90.2727,-117.5427 97.6505,-90.8528"/>
<polygon fill="#191970" stroke="#191970" points="101.0536,-91.6778 100.3445,-81.1068 94.3066,-89.8128 101.0536,-91.6778"/>
</g>
<!-- Node17 -->
<g id="node18" class="node">
<title>Node17</title>
<polygon fill="#ffffff" stroke="#bfbfbf" points="322.5,-62 322.5,-81 375.5,-81 375.5,-62 322.5,-62"/>
<text text-anchor="middle" x="349" y="-69" font-family="Helvetica,sans-Serif" font-size="10.00" fill="#000000">cstddef</text>
</g>
<!-- Node14&#45;&gt;Node17 -->
<g id="edge20" class="edge">
<title>Node14&#45;&gt;Node17</title>
<path fill="none" stroke="#191970" d="M88.3396,-184.9441C108.6073,-174.8358 141.2927,-158.2682 169,-143 184.3547,-134.5388 187.0208,-130.2128 203,-123 249.8854,-101.8367 264.8829,-105.1898 313,-87 314.814,-86.3142 316.6704,-85.5891 318.5371,-84.8417"/>
<polygon fill="#191970" stroke="#191970" points="319.9102,-88.0614 327.8094,-81.0006 317.2312,-81.5943 319.9102,-88.0614"/>
</g>
<!-- Node18 -->
<g id="node19" class="node">
<title>Node18</title>
<polygon fill="#ffffff" stroke="#bfbfbf" points="142.5,-62 142.5,-81 225.5,-81 225.5,-62 142.5,-62"/>
<text text-anchor="middle" x="184" y="-69" font-family="Helvetica,sans-Serif" font-size="10.00" fill="#000000">initializer_list</text>
</g>
<!-- Node14&#45;&gt;Node18 -->
<g id="edge21" class="edge">
<title>Node14&#45;&gt;Node18</title>
<path fill="none" stroke="#191970" d="M77.166,-184.5521C88.786,-170.5212 110.9146,-144.2575 131,-123 142.3749,-110.9613 155.7551,-97.9682 166.2257,-88.0446"/>
<polygon fill="#191970" stroke="#191970" points="168.6995,-90.5226 173.584,-81.1209 163.9026,-85.4246 168.6995,-90.5226"/>
</g>
<!-- Node19 -->
<g id="node20" class="node">
<title>Node19</title>
<polygon fill="#ffffff" stroke="#bfbfbf" points="244,-62 244,-81 304,-81 304,-62 244,-62"/>
<text text-anchor="middle" x="274" y="-69" font-family="Helvetica,sans-Serif" font-size="10.00" fill="#000000">iostream</text>
</g>
<!-- Node14&#45;&gt;Node19 -->
<g id="edge22" class="edge">
<title>Node14&#45;&gt;Node19</title>
<path fill="none" stroke="#191970" d="M81.1802,-184.7852C99.5778,-170.3478 135.8345,-142.8066 169,-123 192.8843,-108.7362 221.2801,-94.9883 242.5162,-85.29"/>
<polygon fill="#191970" stroke="#191970" points="244.0534,-88.4363 251.7277,-81.1317 241.1732,-82.0562 244.0534,-88.4363"/>
</g>
<!-- Node14&#45;&gt;Node20 -->
<g id="edge23" class="edge">
<title>Node14&#45;&gt;Node20</title>
<path fill="none" stroke="#191970" d="M101.0313,-184.8906C136.3846,-174.2846 193.4157,-157.1753 232.2478,-145.5257"/>
<polygon fill="#191970" stroke="#191970" points="233.6212,-148.7678 242.1937,-142.5419 231.6097,-142.0631 233.6212,-148.7678"/>
</g>
<!-- Node20&#45;&gt;Node13 -->
<g id="edge29" class="edge">
<title>Node20&#45;&gt;Node13</title>
<path fill="none" stroke="#191970" d="M336.8307,-129.9502C547.1653,-119.7406 1226.4865,-86.7664 1460.7233,-75.3966"/>
<polygon fill="#191970" stroke="#191970" points="1461.0533,-78.8848 1470.8719,-74.904 1460.7139,-71.893 1461.0533,-78.8848"/>
</g>
<!-- Node20&#45;&gt;Node15 -->
<g id="edge24" class="edge">
<title>Node20&#45;&gt;Node15</title>
<path fill="none" stroke="#191970" d="M223.5283,-123.4394C182.5745,-115.2071 123.5485,-102.2613 73,-87 70.4252,-86.2226 67.7799,-85.3645 65.1326,-84.4627"/>
<polygon fill="#191970" stroke="#191970" points="66.2539,-81.1466 55.6593,-81.0718 63.8949,-87.7372 66.2539,-81.1466"/>
</g>
<!-- Node20&#45;&gt;Node16 -->
<g id="edge25" class="edge">
<title>Node20&#45;&gt;Node16</title>
<path fill="none" stroke="#191970" d="M239.5346,-123.4522C210.6349,-115.0459 168.5138,-101.8529 133,-87 131.8135,-86.5038 130.6101,-85.9788 129.4013,-85.4336"/>
<polygon fill="#191970" stroke="#191970" points="130.7504,-82.1984 120.2235,-81.0011 127.7061,-88.5018 130.7504,-82.1984"/>
</g>
<!-- Node20&#45;&gt;Node17 -->
<g id="edge26" class="edge">
<title>Node20&#45;&gt;Node17</title>
<path fill="none" stroke="#191970" d="M285.7188,-123.3906C297.3188,-113.8786 315.2979,-99.1357 329.1321,-87.7917"/>
<polygon fill="#191970" stroke="#191970" points="331.6026,-90.2921 337.116,-81.2449 327.164,-84.8792 331.6026,-90.2921"/>
</g>
<!-- Node20&#45;&gt;Node18 -->
<g id="edge27" class="edge">
<title>Node20&#45;&gt;Node18</title>
<path fill="none" stroke="#191970" d="M259.9375,-123.3906C245.6714,-113.6421 223.365,-98.3994 206.6128,-86.9521"/>
<polygon fill="#191970" stroke="#191970" points="208.1949,-83.7941 197.9638,-81.0419 204.2455,-89.5736 208.1949,-83.7941"/>
</g>
<!-- Node20&#45;&gt;Node19 -->
<g id="edge28" class="edge">
<title>Node20&#45;&gt;Node19</title>
<path fill="none" stroke="#191970" d="M274,-123.3906C274,-114.8657 274,-102.1392 274,-91.4235"/>
<polygon fill="#191970" stroke="#191970" points="277.5001,-91.2448 274,-81.2449 270.5001,-91.2449 277.5001,-91.2448"/>
</g>
<!-- Node21&#45;&gt;Node2 -->
<g id="edge31" class="edge">
<title>Node21&#45;&gt;Node2</title>
<path fill="none" stroke="#191970" d="M396.875,-246.3906C389.1358,-237.2376 377.3013,-223.2409 367.8728,-212.09"/>
<polygon fill="#191970" stroke="#191970" points="370.3689,-209.6213 361.2396,-204.2449 365.0235,-214.1409 370.3689,-209.6213"/>
</g>
<!-- Node21&#45;&gt;Node11 -->
<g id="edge32" class="edge">
<title>Node21&#45;&gt;Node11</title>
<path fill="none" stroke="#191970" d="M384.5313,-246.3906C362.8048,-236.1908 328.2665,-219.9763 303.5815,-208.3875"/>
<polygon fill="#191970" stroke="#191970" points="304.8645,-205.1234 294.325,-204.0419 301.8897,-211.4598 304.8645,-205.1234"/>
</g>
<!-- Node21&#45;&gt;Node12 -->
<g id="edge33" class="edge">
<title>Node21&#45;&gt;Node12</title>
<path fill="none" stroke="#191970" d="M451.5458,-246.4581C497.7167,-236.9931 569.3842,-222.3012 624.7461,-210.9521"/>
<polygon fill="#191970" stroke="#191970" points="625.7904,-214.3108 634.8838,-208.8738 624.3846,-207.4534 625.7904,-214.3108"/>
</g>
<!-- Node21&#45;&gt;Node14 -->
<g id="edge34" class="edge">
<title>Node21&#45;&gt;Node14</title>
<path fill="none" stroke="#191970" d="M352.8687,-246.4581C292.9421,-235.4894 194.6653,-217.5012 130.9031,-205.8305"/>
<polygon fill="#191970" stroke="#191970" points="131.4439,-202.3714 120.9772,-204.0137 130.1836,-209.257 131.4439,-202.3714"/>
</g>
<!-- Node21&#45;&gt;Node20 -->
<g id="edge35" class="edge">
<title>Node21&#45;&gt;Node20</title>
<path fill="none" stroke="#191970" d="M405.2674,-246.484C405.2013,-230.5983 402.8128,-198.5011 386,-179 372.3205,-163.1332 352.3174,-152.6488 332.9877,-145.7607"/>
<polygon fill="#191970" stroke="#191970" points="333.8747,-142.3681 323.2818,-142.5688 331.6879,-149.0177 333.8747,-142.3681"/>
</g>
<!-- Node22&#45;&gt;Node12 -->
<g id="edge37" class="edge">
<title>Node22&#45;&gt;Node12</title>
<path fill="none" stroke="#191970" d="M482.1454,-302.4178C528.1631,-280.1336 614.3233,-238.4104 664.9714,-213.8839"/>
<polygon fill="#191970" stroke="#191970" points="666.5228,-217.0215 673.9976,-209.513 663.4718,-210.7213 666.5228,-217.0215"/>
</g>
<!-- Node22&#45;&gt;Node14 -->
<g id="edge38" class="edge">
<title>Node22&#45;&gt;Node14</title>
<path fill="none" stroke="#191970" d="M404.1593,-302.4178C328.2034,-277.9608 179.5289,-230.0892 108.548,-207.234"/>
<polygon fill="#191970" stroke="#191970" points="109.2485,-203.7827 98.657,-204.0493 107.103,-210.4458 109.2485,-203.7827"/>
</g>
<!-- Node22&#45;&gt;Node20 -->
<g id="edge40" class="edge">
<title>Node22&#45;&gt;Node20</title>
<path fill="none" stroke="#191970" d="M467.7765,-302.3243C481.5138,-287.9634 497.2842,-265.7283 488,-246 460.7729,-188.1444 390.2852,-159.1415 337.5964,-145.1334"/>
<polygon fill="#191970" stroke="#191970" points="338.201,-141.6759 327.6473,-142.6081 336.4788,-148.4608 338.201,-141.6759"/>
</g>
<!-- Node22&#45;&gt;Node21 -->
<g id="edge39" class="edge">
<title>Node22&#45;&gt;Node21</title>
<path fill="none" stroke="#191970" d="M439.6292,-302.2977C433.2439,-293.7609 425.2359,-283.0545 418.5295,-274.0883"/>
<polygon fill="#191970" stroke="#191970" points="421.1575,-271.7584 412.3652,-265.8469 415.5521,-275.9511 421.1575,-271.7584"/>
</g>
<!-- Node23&#45;&gt;Node8 -->
<g id="edge44" class="edge">
<title>Node23&#45;&gt;Node8</title>
<path fill="none" stroke="#191970" d="M1322.7755,-369.4965C1380.7216,-356.7665 1455.7384,-339.5568 1469,-333 1488.5383,-323.3399 1489.2594,-314.6623 1507,-302 1531.6946,-284.3742 1546.4773,-290.0293 1565,-266 1623.9028,-189.586 1668.0865,-139.6441 1620,-56 1609.8831,-38.4021 1590.1564,-26.9064 1572.9473,-19.808"/>
<polygon fill="#191970" stroke="#191970" points="1573.7891,-16.3846 1563.1974,-16.1238 1571.3147,-22.9327 1573.7891,-16.3846"/>
</g>
<!-- Node23&#45;&gt;Node10 -->
<g id="edge43" class="edge">
<title>Node23&#45;&gt;Node10</title>
<path fill="none" stroke="#191970" d="M1217.1157,-369.3816C1157.1261,-344.1072 1037.4177,-293.6727 980.072,-269.5123"/>
<polygon fill="#191970" stroke="#191970" points="981.3436,-266.2501 970.7692,-265.5929 978.6258,-272.701 981.3436,-266.2501"/>
</g>
<!-- Node23&#45;&gt;Node12 -->
<g id="edge46" class="edge">
<title>Node23&#45;&gt;Node12</title>
<path fill="none" stroke="#191970" d="M1189.461,-369.4377C1151.5682,-359.9871 1102.6809,-346.9723 1060,-333 946.1408,-295.7263 815.723,-241.8803 749.1501,-213.5606"/>
<polygon fill="#191970" stroke="#191970" points="750.3721,-210.2768 739.8007,-209.5725 747.6256,-216.7155 750.3721,-210.2768"/>
</g>
<!-- Node23&#45;&gt;Node13 -->
<g id="edge60" class="edge">
<title>Node23&#45;&gt;Node13</title>
<path fill="none" stroke="#191970" d="M1322.2942,-369.4599C1355.9388,-360.9113 1396.456,-348.7398 1431,-333 1454.1098,-322.4702 1457.0906,-314.8421 1479,-302 1508.5018,-284.7076 1529.3614,-295.2961 1547,-266 1579.1525,-212.5978 1561.8403,-135.1361 1549.6642,-96.0379"/>
<polygon fill="#191970" stroke="#191970" points="1552.9886,-94.943 1546.562,-86.5199 1546.3332,-97.1123 1552.9886,-94.943"/>
</g>
<!-- Node24 -->
<g id="node25" class="node">
<title>Node24</title>
<polygon fill="#ffffff" stroke="#bfbfbf" points="1075.5,-246.5 1075.5,-265.5 1120.5,-265.5 1120.5,-246.5 1075.5,-246.5"/>
<text text-anchor="middle" x="1098" y="-253.5" font-family="Helvetica,sans-Serif" font-size="10.00" fill="#000000">utility</text>
</g>
<!-- Node23&#45;&gt;Node24 -->
<g id="edge45" class="edge">
<title>Node23&#45;&gt;Node24</title>
<path fill="none" stroke="#191970" d="M1234.6108,-369.2548C1205.1443,-344.8261 1147.6092,-297.1276 1117.4714,-272.1424"/>
<polygon fill="#191970" stroke="#191970" points="1119.6759,-269.4236 1109.7436,-265.7358 1115.2082,-274.8126 1119.6759,-269.4236"/>
</g>
<!-- Node25 -->
<g id="node26" class="node">
<title>Node25</title>
<g id="a_node26"><a xlink:href="maliput__hash_8h.html" target="_top" xlink:title="Code in this file is inspired by: https://github.com/RobotLocomotion/drake/blob/master/common/hash.h. ">
<polygon fill="#ffffff" stroke="#000000" points="1202,-302.5 1202,-332.5 1342,-332.5 1342,-302.5 1202,-302.5"/>
<text text-anchor="start" x="1210" y="-320.5" font-family="Helvetica,sans-Serif" font-size="10.00" fill="#000000">maliput/common/maliput</text>
<text text-anchor="middle" x="1272" y="-309.5" font-family="Helvetica,sans-Serif" font-size="10.00" fill="#000000">_hash.h</text>
</a>
</g>
</g>
<!-- Node23&#45;&gt;Node25 -->
<g id="edge47" class="edge">
<title>Node23&#45;&gt;Node25</title>
<path fill="none" stroke="#191970" d="M1257.3114,-369.2967C1259.5706,-361.3299 1262.3946,-351.3718 1264.9611,-342.3213"/>
<polygon fill="#191970" stroke="#191970" points="1268.3446,-343.2187 1267.7057,-332.6432 1261.6101,-341.3089 1268.3446,-343.2187"/>
</g>
<!-- Node25&#45;&gt;Node2 -->
<g id="edge48" class="edge">
<title>Node25&#45;&gt;Node2</title>
<path fill="none" stroke="#191970" d="M1242.8052,-302.4267C1203.009,-281.9346 1135.9581,-247.6254 1130,-246 1093.6567,-236.0854 531.4326,-204.3869 386.7457,-196.3607"/>
<polygon fill="#191970" stroke="#191970" points="386.8608,-192.8618 376.6825,-195.8034 386.4736,-199.8511 386.8608,-192.8618"/>
</g>
<!-- Node25&#45;&gt;Node4 -->
<g id="edge53" class="edge">
<title>Node25&#45;&gt;Node4</title>
<path fill="none" stroke="#191970" d="M1342.2605,-306.505C1425.4602,-293.4852 1561.0214,-272.2715 1626.7955,-261.9786"/>
<polygon fill="#191970" stroke="#191970" points="1627.3953,-265.4274 1636.7339,-260.4233 1626.313,-258.5116 1627.3953,-265.4274"/>
</g>
<!-- Node25&#45;&gt;Node5 -->
<g id="edge58" class="edge">
<title>Node25&#45;&gt;Node5</title>
<path fill="none" stroke="#191970" d="M1342.1747,-310.0204C1466.9779,-296.7181 1723.0522,-269.4242 1815.1042,-259.6128"/>
<polygon fill="#191970" stroke="#191970" points="1815.6759,-263.0718 1825.2486,-258.5316 1814.9339,-256.1112 1815.6759,-263.0718"/>
</g>
<!-- Node25&#45;&gt;Node8 -->
<g id="edge55" class="edge">
<title>Node25&#45;&gt;Node8</title>
<path fill="none" stroke="#191970" d="M1270.1787,-302.3774C1267.5489,-279.1968 1263,-233.4685 1263,-194.5 1263,-194.5 1263,-194.5 1263,-133 1263,-79.8046 1435.3794,-34.1175 1508.6596,-17.0989"/>
<polygon fill="#191970" stroke="#191970" points="1509.7518,-20.4395 1518.72,-14.7984 1508.1914,-13.6156 1509.7518,-20.4395"/>
</g>
<!-- Node25&#45;&gt;Node10 -->
<g id="edge50" class="edge">
<title>Node25&#45;&gt;Node10</title>
<path fill="none" stroke="#191970" d="M1201.6968,-304.1554C1137.3533,-291.9421 1044.2333,-274.2665 990.5351,-264.0738"/>
<polygon fill="#191970" stroke="#191970" points="991.1395,-260.6261 980.6622,-262.1998 989.8341,-267.5033 991.1395,-260.6261"/>
</g>
<!-- Node25&#45;&gt;Node13 -->
<g id="edge59" class="edge">
<title>Node25&#45;&gt;Node13</title>
<path fill="none" stroke="#191970" d="M1342.2138,-307.3079C1393.3028,-298.5388 1456.7601,-284.3965 1476,-266 1523.968,-220.1349 1496.3734,-185.3905 1519,-123 1522.2402,-114.0655 1526.2135,-104.4455 1529.8877,-95.966"/>
<polygon fill="#191970" stroke="#191970" points="1533.1656,-97.2069 1534.0015,-86.6451 1526.7616,-94.3804 1533.1656,-97.2069"/>
</g>
<!-- Node25&#45;&gt;Node17 -->
<g id="edge49" class="edge">
<title>Node25&#45;&gt;Node17</title>
<path fill="none" stroke="#191970" d="M1261.9579,-302.4327C1235.3902,-264.0566 1158.8884,-162.8555 1066,-123 1003.1956,-96.0526 522.9389,-77.5156 385.5866,-72.7252"/>
<polygon fill="#191970" stroke="#191970" points="385.6782,-69.2263 375.5632,-72.3788 385.4364,-76.2222 385.6782,-69.2263"/>
</g>
<!-- Node25&#45;&gt;Node19 -->
<g id="edge51" class="edge">
<title>Node25&#45;&gt;Node19</title>
<path fill="none" stroke="#191970" d="M1253.9781,-302.4059C1233.3344,-285.9314 1197.8487,-260.0341 1163,-246 806.8983,-102.5923 683.2165,-192.135 314,-87 311.4035,-86.2606 308.7402,-85.4199 306.0813,-84.5212"/>
<polygon fill="#191970" stroke="#191970" points="307.1916,-81.201 296.5973,-81.0913 304.8108,-87.7837 307.1916,-81.201"/>
</g>
<!-- Node25&#45;&gt;Node24 -->
<g id="edge57" class="edge">
<title>Node25&#45;&gt;Node24</title>
<path fill="none" stroke="#191970" d="M1229.4348,-302.4554C1198.9688,-291.6872 1158.5652,-277.4067 1130.6356,-267.535"/>
<polygon fill="#191970" stroke="#191970" points="1131.5464,-264.1448 1120.9516,-264.1122 1129.2136,-270.7447 1131.5464,-264.1448"/>
</g>
<!-- Node26 -->
<g id="node27" class="node">
<title>Node26</title>
<polygon fill="#ffffff" stroke="#bfbfbf" points="1291,-246.5 1291,-265.5 1329,-265.5 1329,-246.5 1291,-246.5"/>
<text text-anchor="middle" x="1310" y="-253.5" font-family="Helvetica,sans-Serif" font-size="10.00" fill="#000000">map</text>
</g>
<!-- Node25&#45;&gt;Node26 -->
<g id="edge52" class="edge">
<title>Node25&#45;&gt;Node26</title>
<path fill="none" stroke="#191970" d="M1281.3933,-302.2977C1286.6131,-293.8498 1293.1457,-283.2773 1298.65,-274.369"/>
<polygon fill="#191970" stroke="#191970" points="1301.6368,-276.1938 1303.9157,-265.8469 1295.6818,-272.5143 1301.6368,-276.1938"/>
</g>
<!-- Node27 -->
<g id="node28" class="node">
<title>Node27</title>
<polygon fill="#ffffff" stroke="#bfbfbf" points="1347,-246.5 1347,-265.5 1379,-265.5 1379,-246.5 1347,-246.5"/>
<text text-anchor="middle" x="1363" y="-253.5" font-family="Helvetica,sans-Serif" font-size="10.00" fill="#000000">set</text>
</g>
<!-- Node25&#45;&gt;Node27 -->
<g id="edge54" class="edge">
<title>Node25&#45;&gt;Node27</title>
<path fill="none" stroke="#191970" d="M1294.4944,-302.2977C1308.3967,-292.9022 1326.1876,-280.8787 1340.1546,-271.4395"/>
<polygon fill="#191970" stroke="#191970" points="1342.376,-274.1626 1348.7015,-265.6633 1338.4564,-268.3629 1342.376,-274.1626"/>
</g>
<!-- Node28 -->
<g id="node29" class="node">
<title>Node28</title>
<polygon fill="#ffffff" stroke="#bfbfbf" points="1397.5,-246.5 1397.5,-265.5 1466.5,-265.5 1466.5,-246.5 1397.5,-246.5"/>
<text text-anchor="middle" x="1432" y="-253.5" font-family="Helvetica,sans-Serif" font-size="10.00" fill="#000000">type_traits</text>
</g>
<!-- Node25&#45;&gt;Node28 -->
<g id="edge56" class="edge">
<title>Node25&#45;&gt;Node28</title>
<path fill="none" stroke="#191970" d="M1311.1404,-302.4554C1337.6026,-292.284 1372.2181,-278.9787 1397.6183,-269.2155"/>
<polygon fill="#191970" stroke="#191970" points="1399.1272,-272.3852 1407.2057,-265.5303 1396.6157,-265.8512 1399.1272,-272.3852"/>
</g>
<!-- Node29&#45;&gt;Node1 -->
<g id="edge85" class="edge">
<title>Node29&#45;&gt;Node1</title>
<path fill="none" stroke="#191970" d="M1404.362,-559.2455C1387.5614,-550.4527 1362.6366,-537.4079 1343.5382,-527.4125"/>
<polygon fill="#191970" stroke="#191970" points="1344.9073,-524.1787 1334.4244,-522.6427 1341.6614,-530.3807 1344.9073,-524.1787"/>
</g>
<!-- Node29&#45;&gt;Node4 -->
<g id="edge68" class="edge">
<title>Node29&#45;&gt;Node4</title>
<path fill="none" stroke="#191970" d="M1485.8561,-559.4792C1580.5879,-543.3341 1749,-506.8484 1749,-451.5 1749,-451.5 1749,-451.5 1749,-384.5 1749,-337.8057 1709.6591,-294.8403 1684.8237,-272.369"/>
<polygon fill="#191970" stroke="#191970" points="1686.8669,-269.5063 1677.0352,-265.5582 1682.259,-274.7757 1686.8669,-269.5063"/>
</g>
<!-- Node29&#45;&gt;Node5 -->
<g id="edge71" class="edge">
<title>Node29&#45;&gt;Node5</title>
<path fill="none" stroke="#191970" d="M1502.1714,-564.0645C1628.8501,-553.9706 1863,-525.3277 1863,-451.5 1863,-451.5 1863,-451.5 1863,-384.5 1863,-345.7734 1856.6382,-300.866 1852.4916,-275.7086"/>
<polygon fill="#191970" stroke="#191970" points="1855.9047,-274.902 1850.7731,-265.6328 1849.0043,-276.0789 1855.9047,-274.902"/>
</g>
<!-- Node29&#45;&gt;Node6 -->
<g id="edge83" class="edge">
<title>Node29&#45;&gt;Node6</title>
<path fill="none" stroke="#191970" d="M1476.9203,-559.4286C1515.0177,-551.4409 1561.3007,-538.8249 1573,-523 1591.0819,-498.5419 1555.2773,-477.5607 1524.0482,-464.7694"/>
<polygon fill="#191970" stroke="#191970" points="1525.1562,-461.4447 1514.5681,-461.0679 1522.6102,-467.9653 1525.1562,-461.4447"/>
</g>
<!-- Node29&#45;&gt;Node8 -->
<g id="edge69" class="edge">
<title>Node29&#45;&gt;Node8</title>
<path fill="none" stroke="#191970" d="M1502.1316,-565.3577C1606.4094,-559.7021 1783.6709,-546.8871 1844,-523 1893.1333,-503.5458 1939,-504.3445 1939,-451.5 1939,-451.5 1939,-451.5 1939,-133 1939,-56.6595 1668.3324,-22.5809 1573.4164,-12.9773"/>
<polygon fill="#191970" stroke="#191970" points="1573.5462,-9.4732 1563.251,-11.975 1572.8593,-16.4395 1573.5462,-9.4732"/>
</g>
<!-- Node29&#45;&gt;Node9 -->
<g id="edge84" class="edge">
<title>Node29&#45;&gt;Node9</title>
<path fill="none" stroke="#191970" d="M1343.9141,-566.7899C1142.4996,-560.8712 623.8643,-543.698 593,-523 552.0192,-495.5177 535.788,-435.2848 529.9465,-404.0911"/>
<polygon fill="#191970" stroke="#191970" points="533.3624,-403.3001 528.2378,-394.027 526.4611,-404.4718 533.3624,-403.3001"/>
</g>
<!-- Node29&#45;&gt;Node12 -->
<g id="edge91" class="edge">
<title>Node29&#45;&gt;Node12</title>
<path fill="none" stroke="#191970" d="M1343.9012,-564.1807C1158.5411,-552.0831 708.3664,-517.7275 664,-467 601.4379,-395.4679 660.6472,-270.8817 690.3231,-218.64"/>
<polygon fill="#191970" stroke="#191970" points="693.4871,-220.1612 695.4845,-209.7563 687.4345,-216.6446 693.4871,-220.1612"/>
</g>
<!-- Node29&#45;&gt;Node13 -->
<g id="edge92" class="edge">
<title>Node29&#45;&gt;Node13</title>
<path fill="none" stroke="#191970" d="M1502.2001,-565.7702C1638.0437,-558.0509 1901,-532.6303 1901,-451.5 1901,-451.5 1901,-451.5 1901,-317.5 1901,-182.7986 1727.0625,-116.5009 1620.9943,-88.5949"/>
<polygon fill="#191970" stroke="#191970" points="1621.8229,-85.1941 1611.2662,-86.0927 1620.0791,-91.9735 1621.8229,-85.1941"/>
</g>
<!-- Node29&#45;&gt;Node20 -->
<g id="edge93" class="edge">
<title>Node29&#45;&gt;Node20</title>
<path fill="none" stroke="#191970" d="M1343.8407,-567.4492C1161.1567,-563.4326 714.4954,-550.99 567,-523 375.5502,-486.6689 151,-579.3666 151,-384.5 151,-384.5 151,-384.5 151,-317.5 151,-244.7471 218.0312,-178.8627 253.126,-149.354"/>
<polygon fill="#191970" stroke="#191970" points="255.7852,-151.6998 261.3001,-142.6535 251.3475,-146.2862 255.7852,-151.6998"/>
</g>
<!-- Node29&#45;&gt;Node23 -->
<g id="edge90" class="edge">
<title>Node29&#45;&gt;Node23</title>
<path fill="none" stroke="#191970" d="M1418.6814,-559.4544C1412.3749,-546.0716 1399.7748,-521.3192 1385,-503 1354.0302,-464.6006 1310.1346,-427.8591 1281.6153,-405.7356"/>
<polygon fill="#191970" stroke="#191970" points="1283.7114,-402.9324 1273.6464,-399.6238 1279.4513,-408.4868 1283.7114,-402.9324"/>
</g>
<!-- Node30 -->
<g id="node31" class="node">
<title>Node30</title>
<polygon fill="#ffffff" stroke="#bfbfbf" points="1470.5,-503.5 1470.5,-522.5 1563.5,-522.5 1563.5,-503.5 1470.5,-503.5"/>
<text text-anchor="middle" x="1517" y="-510.5" font-family="Helvetica,sans-Serif" font-size="10.00" fill="#000000">unordered_map</text>
</g>
<!-- Node29&#45;&gt;Node30 -->
<g id="edge70" class="edge">
<title>Node29&#45;&gt;Node30</title>
<path fill="none" stroke="#191970" d="M1439.3736,-559.2455C1453.9308,-550.5731 1475.431,-537.7645 1492.1152,-527.825"/>
<polygon fill="#191970" stroke="#191970" points="1494.0144,-530.7676 1500.8141,-522.6427 1490.4317,-524.7539 1494.0144,-530.7676"/>
</g>
<!-- Node31 -->
<g id="node32" class="node">
<title>Node31</title>
<g id="a_node32"><a xlink:href="api_2branch__point_8h.html" target="_top" xlink:title="maliput/api/branch\l_point.h">
<polygon fill="#ffffff" stroke="#000000" points="1174,-436.5 1174,-466.5 1282,-466.5 1282,-436.5 1174,-436.5"/>
<text text-anchor="start" x="1182" y="-454.5" font-family="Helvetica,sans-Serif" font-size="10.00" fill="#000000">maliput/api/branch</text>
<text text-anchor="middle" x="1228" y="-443.5" font-family="Helvetica,sans-Serif" font-size="10.00" fill="#000000">_point.h</text>
</a>
</g>
</g>
<!-- Node29&#45;&gt;Node31 -->
<g id="edge72" class="edge">
<title>Node29&#45;&gt;Node31</title>
<path fill="none" stroke="#191970" d="M1360.2083,-559.4214C1316.413,-551.5078 1263.0558,-538.9903 1247,-523 1234.9168,-510.9661 1230.2565,-492.1818 1228.5697,-476.8863"/>
<polygon fill="#191970" stroke="#191970" points="1232.0307,-476.2268 1227.8034,-466.5118 1225.0497,-476.7425 1232.0307,-476.2268"/>
</g>
<!-- Node32 -->
<g id="node33" class="node">
<title>Node32</title>
<g id="a_node33"><a xlink:href="api_2junction_8h.html" target="_top" xlink:title="maliput/api/junction.h">
<polygon fill="#ffffff" stroke="#000000" points="916.5,-442 916.5,-461 1039.5,-461 1039.5,-442 916.5,-442"/>
<text text-anchor="middle" x="978" y="-449" font-family="Helvetica,sans-Serif" font-size="10.00" fill="#000000">maliput/api/junction.h</text>
</a>
</g>
</g>
<!-- Node29&#45;&gt;Node32 -->
<g id="edge79" class="edge">
<title>Node29&#45;&gt;Node32</title>
<path fill="none" stroke="#191970" d="M1380.9297,-559.4344C1341.949,-550.4496 1282.4069,-536.4163 1231,-523 1156.4208,-503.5361 1070.147,-478.6395 1020.0576,-463.9464"/>
<polygon fill="#191970" stroke="#191970" points="1020.8171,-460.5216 1010.2359,-461.06 1018.8433,-467.2376 1020.8171,-460.5216"/>
</g>
<!-- Node33 -->
<g id="node34" class="node">
<title>Node33</title>
<g id="a_node34"><a xlink:href="api_2segment_8h.html" target="_top" xlink:title="maliput/api/segment.h">
<polygon fill="#ffffff" stroke="#000000" points="1555.5,-442 1555.5,-461 1682.5,-461 1682.5,-442 1555.5,-442"/>
<text text-anchor="middle" x="1619" y="-449" font-family="Helvetica,sans-Serif" font-size="10.00" fill="#000000">maliput/api/segment.h</text>
</a>
</g>
</g>
<!-- Node29&#45;&gt;Node33 -->
<g id="edge86" class="edge">
<title>Node29&#45;&gt;Node33</title>
<path fill="none" stroke="#191970" d="M1426.1595,-559.4479C1431.373,-545.1317 1443.1197,-518.1751 1462,-503 1478.8504,-489.4564 1530.2837,-474.0082 1569.7355,-463.5932"/>
<polygon fill="#191970" stroke="#191970" points="1570.6827,-466.9634 1579.4791,-461.058 1568.92,-460.189 1570.6827,-466.9634"/>
</g>
<!-- Node31&#45;&gt;Node4 -->
<g id="edge74" class="edge">
<title>Node31&#45;&gt;Node4</title>
<path fill="none" stroke="#191970" d="M1263.2559,-436.4402C1283.9098,-427.0373 1310.1469,-414.0703 1332,-400 1350.3259,-388.2007 1350.5737,-378.8833 1370,-369 1426.1116,-340.4528 1449.3931,-358.3949 1507,-333 1530.2379,-322.756 1532.5303,-313.8343 1555,-302 1578.9825,-289.369 1607.2108,-277.6243 1629.0667,-269.164"/>
<polygon fill="#191970" stroke="#191970" points="1630.5277,-272.3526 1638.622,-265.5165 1628.0313,-265.8129 1630.5277,-272.3526"/>
</g>
<!-- Node31&#45;&gt;Node7 -->
<g id="edge73" class="edge">
<title>Node31&#45;&gt;Node7</title>
<path fill="none" stroke="#191970" d="M1268.3955,-436.4639C1299.7787,-424.7824 1342.8644,-408.7449 1372.8372,-397.5884"/>
<polygon fill="#191970" stroke="#191970" points="1374.3125,-400.7739 1382.4634,-394.0053 1371.8706,-394.2136 1374.3125,-400.7739"/>
</g>
<!-- Node31&#45;&gt;Node8 -->
<g id="edge75" class="edge">
<title>Node31&#45;&gt;Node8</title>
<path fill="none" stroke="#191970" d="M1173.7597,-441.2614C1064.7984,-418.1497 835.5954,-355.2585 907,-246 969.3856,-150.5417 1039.3998,-192.774 1142,-143 1215.8826,-107.1576 1227.6213,-83.4927 1305,-56 1375.4291,-30.9765 1462.7885,-18.4542 1508.9417,-13.1871"/>
<polygon fill="#191970" stroke="#191970" points="1509.3923,-16.6587 1518.9494,-12.0858 1508.6266,-9.7007 1509.3923,-16.6587"/>
</g>
<!-- Node31&#45;&gt;Node9 -->
<g id="edge76" class="edge">
<title>Node31&#45;&gt;Node9</title>
<path fill="none" stroke="#191970" d="M1173.8677,-446.3262C1049.9887,-434.4861 745.599,-405.3932 603.0088,-391.7647"/>
<polygon fill="#191970" stroke="#191970" points="603.3143,-388.2781 593.0266,-390.8107 602.6482,-395.2463 603.3143,-388.2781"/>
</g>
<!-- Node31&#45;&gt;Node12 -->
<g id="edge78" class="edge">
<title>Node31&#45;&gt;Node12</title>
<path fill="none" stroke="#191970" d="M1173.7881,-446.9604C1072.6844,-438.1218 863.0155,-417.8988 835,-400 799.9802,-377.6262 741.9383,-268.127 716.996,-218.7412"/>
<polygon fill="#191970" stroke="#191970" points="720.0776,-217.0784 712.4655,-209.7091 713.8206,-220.217 720.0776,-217.0784"/>
</g>
<!-- Node31&#45;&gt;Node23 -->
<g id="edge77" class="edge">
<title>Node31&#45;&gt;Node23</title>
<path fill="none" stroke="#191970" d="M1233.6729,-436.2967C1236.6775,-428.2443 1240.4413,-418.1574 1243.8472,-409.0296"/>
<polygon fill="#191970" stroke="#191970" points="1247.1328,-410.2358 1247.3496,-399.6432 1240.5744,-407.7886 1247.1328,-410.2358"/>
</g>
<!-- Node32&#45;&gt;Node8 -->
<g id="edge80" class="edge">
<title>Node32&#45;&gt;Node8</title>
<path fill="none" stroke="#191970" d="M967.2672,-441.7156C947.5668,-422.9394 906.2586,-379.5664 891,-333 868.9091,-265.5828 879.2103,-225.2574 933,-179 1042.5718,-84.7718 1094.6553,-94.3145 1234,-56 1331.8815,-29.0863 1451.9264,-16.8746 1508.5292,-12.3003"/>
<polygon fill="#191970" stroke="#191970" points="1508.9626,-15.7772 1518.6597,-11.5092 1508.4175,-8.7985 1508.9626,-15.7772"/>
</g>
<!-- Node32&#45;&gt;Node12 -->
<g id="edge82" class="edge">
<title>Node32&#45;&gt;Node12</title>
<path fill="none" stroke="#191970" d="M916.276,-444.1415C859.5897,-436.1496 781.1351,-421.5669 759,-400 733.2701,-374.9306 715.4342,-269.0551 708.374,-219.8424"/>
<polygon fill="#191970" stroke="#191970" points="711.8083,-219.1278 706.9583,-209.7083 704.8756,-220.0963 711.8083,-219.1278"/>
</g>
<!-- Node32&#45;&gt;Node23 -->
<g id="edge81" class="edge">
<title>Node32&#45;&gt;Node23</title>
<path fill="none" stroke="#191970" d="M1017.1087,-441.9717C1059.737,-431.5859 1128.8607,-414.7449 1181.2885,-401.9715"/>
<polygon fill="#191970" stroke="#191970" points="1182.3184,-405.3231 1191.2057,-399.5553 1180.6613,-398.522 1182.3184,-405.3231"/>
</g>
<!-- Node33&#45;&gt;Node8 -->
<g id="edge87" class="edge">
<title>Node33&#45;&gt;Node8</title>
<path fill="none" stroke="#191970" d="M1632.3789,-441.9681C1673.7749,-411.2511 1797,-310.1053 1797,-194.5 1797,-194.5 1797,-194.5 1797,-133 1797,-90.6843 1776.3016,-79.3326 1741,-56 1713.7241,-37.972 1622.7611,-22.1502 1573.4483,-14.6374"/>
<polygon fill="#191970" stroke="#191970" points="1573.7155,-11.1385 1563.3076,-13.1203 1572.6797,-18.0615 1573.7155,-11.1385"/>
</g>
<!-- Node33&#45;&gt;Node12 -->
<g id="edge89" class="edge">
<title>Node33&#45;&gt;Node12</title>
<path fill="none" stroke="#191970" d="M1606.0324,-441.9222C1581.3571,-424.2405 1525.3392,-386.6685 1472,-369 1353.3139,-329.6856 1309.5196,-378.334 1193,-333 1170.7062,-324.3262 1169.8338,-313.7558 1149,-302 1114.3358,-282.4402 1103.1943,-282.5581 1067,-266 1048.199,-257.399 1044.7394,-252.1493 1025,-246 945.5741,-221.257 851.1625,-207.9166 785.563,-201.0607"/>
<polygon fill="#191970" stroke="#191970" points="785.5917,-197.5456 775.2888,-200.0153 784.8831,-204.5097 785.5917,-197.5456"/>
</g>
<!-- Node33&#45;&gt;Node23 -->
<g id="edge88" class="edge">
<title>Node33&#45;&gt;Node23</title>
<path fill="none" stroke="#191970" d="M1576.0338,-441.9662C1566.4893,-439.9277 1556.4122,-437.8368 1547,-436 1474.8829,-421.9265 1392.4575,-407.6433 1333.2686,-397.7005"/>
<polygon fill="#191970" stroke="#191970" points="1333.6769,-394.2202 1323.2359,-396.0193 1332.52,-401.1239 1333.6769,-394.2202"/>
</g>
</g>
</svg>
