<?xml version="1.0" encoding="UTF-8" standalone="no"?>
<!DOCTYPE svg PUBLIC "-//W3C//DTD SVG 1.1//EN"
 "http://www.w3.org/Graphics/SVG/1.1/DTD/svg11.dtd">
<!-- Generated by graphviz version 2.43.0 (0)
 -->
<!-- Title: road_network.h Pages: 1 -->
<svg width="738pt" height="196pt"
 viewBox="0.00 0.00 737.50 196.00" xmlns="http://www.w3.org/2000/svg" xmlns:xlink="http://www.w3.org/1999/xlink">
<g id="graph0" class="graph" transform="scale(1 1) rotate(0) translate(4 192)">
<title>road_network.h</title>
<polygon fill="white" stroke="transparent" points="-4,4 -4,-192 733.5,-192 733.5,4 -4,4"/>
<!-- Node1 -->
<g id="node1" class="node">
<title>Node1</title>
<g id="a_node1"><a xlink:title=" ">
<polygon fill="#bfbfbf" stroke="black" points="380,-168.5 380,-187.5 472,-187.5 472,-168.5 380,-168.5"/>
<text text-anchor="middle" x="426" y="-175.5" font-family="Helvetica,sans-Serif" font-size="10.00">road_network.h</text>
</a>
</g>
</g>
<!-- Node2 -->
<g id="node2" class="node">
<title>Node2</title>
<g id="a_node2"><a xlink:href="road__network__validator_8h.html" target="_top" xlink:title=" ">
<polygon fill="white" stroke="black" points="2.5,-112.5 2.5,-131.5 143.5,-131.5 143.5,-112.5 2.5,-112.5"/>
<text text-anchor="middle" x="73" y="-119.5" font-family="Helvetica,sans-Serif" font-size="10.00">road_network_validator.h</text>
</a>
</g>
</g>
<!-- Node1&#45;&gt;Node2 -->
<g id="edge1" class="edge">
<title>Node1&#45;&gt;Node2</title>
<path fill="none" stroke="midnightblue" d="M369.62,-168.38C303.51,-158.26 194.61,-141.6 128.76,-131.53"/>
<polygon fill="midnightblue" stroke="midnightblue" points="369.44,-171.89 379.85,-169.94 370.5,-164.97 369.44,-171.89"/>
</g>
<!-- Node4 -->
<g id="node4" class="node">
<title>Node4</title>
<g id="a_node4"><a xlink:href="create__road__network_8h.html" target="_top" xlink:title=" ">
<polygon fill="white" stroke="black" points="162,-112.5 162,-131.5 290,-131.5 290,-112.5 162,-112.5"/>
<text text-anchor="middle" x="226" y="-119.5" font-family="Helvetica,sans-Serif" font-size="10.00">create_road_network.h</text>
</a>
</g>
</g>
<!-- Node1&#45;&gt;Node4 -->
<g id="edge3" class="edge">
<title>Node1&#45;&gt;Node4</title>
<path fill="none" stroke="midnightblue" d="M384.63,-165.83C346.86,-155.63 291.86,-140.78 257.54,-131.52"/>
<polygon fill="midnightblue" stroke="midnightblue" points="383.74,-169.22 394.31,-168.44 385.57,-162.46 383.74,-169.22"/>
</g>
<!-- Node6 -->
<g id="node6" class="node">
<title>Node6</title>
<g id="a_node6"><a xlink:href="road__network__loader_8h.html" target="_top" xlink:title=" ">
<polygon fill="white" stroke="black" points="308,-112.5 308,-131.5 436,-131.5 436,-112.5 308,-112.5"/>
<text text-anchor="middle" x="372" y="-119.5" font-family="Helvetica,sans-Serif" font-size="10.00">road_network_loader.h</text>
</a>
</g>
</g>
<!-- Node1&#45;&gt;Node6 -->
<g id="edge5" class="edge">
<title>Node1&#45;&gt;Node6</title>
<path fill="none" stroke="midnightblue" d="M410,-161C400.43,-151.43 388.64,-139.64 380.75,-131.75"/>
<polygon fill="midnightblue" stroke="midnightblue" points="407.54,-163.49 417.08,-168.08 412.49,-158.54 407.54,-163.49"/>
</g>
<!-- Node7 -->
<g id="node7" class="node">
<title>Node7</title>
<g id="a_node7"><a xlink:href="mock_8h.html" target="_top" xlink:title=" ">
<polygon fill="white" stroke="black" points="454.5,-112.5 454.5,-131.5 507.5,-131.5 507.5,-112.5 454.5,-112.5"/>
<text text-anchor="middle" x="481" y="-119.5" font-family="Helvetica,sans-Serif" font-size="10.00">mock.h</text>
</a>
</g>
</g>
<!-- Node1&#45;&gt;Node7 -->
<g id="edge7" class="edge">
<title>Node1&#45;&gt;Node7</title>
<path fill="none" stroke="midnightblue" d="M442.29,-161C452.04,-151.43 464.05,-139.64 472.09,-131.75"/>
<polygon fill="midnightblue" stroke="midnightblue" points="439.77,-158.58 435.08,-168.08 444.67,-163.57 439.77,-158.58"/>
</g>
<!-- Node9 -->
<g id="node9" class="node">
<title>Node9</title>
<g id="a_node9"><a xlink:href="generate__obj_8h.html" target="_top" xlink:title=" ">
<polygon fill="white" stroke="black" points="525.5,-112.5 525.5,-131.5 614.5,-131.5 614.5,-112.5 525.5,-112.5"/>
<text text-anchor="middle" x="570" y="-119.5" font-family="Helvetica,sans-Serif" font-size="10.00">generate_obj.h</text>
</a>
</g>
</g>
<!-- Node1&#45;&gt;Node9 -->
<g id="edge9" class="edge">
<title>Node1&#45;&gt;Node9</title>
<path fill="none" stroke="midnightblue" d="M458.25,-164.91C485.32,-154.75 523.32,-140.51 547.29,-131.52"/>
<polygon fill="midnightblue" stroke="midnightblue" points="456.95,-161.66 448.82,-168.44 459.41,-168.21 456.95,-161.66"/>
</g>
<!-- Node13 -->
<g id="node13" class="node">
<title>Node13</title>
<g id="a_node13"><a xlink:href="road__network_8cc.html" target="_top" xlink:title=" ">
<polygon fill="white" stroke="black" points="632.5,-112.5 632.5,-131.5 729.5,-131.5 729.5,-112.5 632.5,-112.5"/>
<text text-anchor="middle" x="681" y="-119.5" font-family="Helvetica,sans-Serif" font-size="10.00">road_network.cc</text>
</a>
</g>
</g>
<!-- Node1&#45;&gt;Node13 -->
<g id="edge14" class="edge">
<title>Node1&#45;&gt;Node13</title>
<path fill="none" stroke="midnightblue" d="M476.31,-166.35C524.5,-156.14 596.28,-140.94 640.78,-131.52"/>
<polygon fill="midnightblue" stroke="midnightblue" points="475.46,-162.95 466.41,-168.44 476.91,-169.8 475.46,-162.95"/>
</g>
<!-- Node3 -->
<g id="node3" class="node">
<title>Node3</title>
<g id="a_node3"><a xlink:href="road__network__validator_8cc.html" target="_top" xlink:title=" ">
<polygon fill="white" stroke="black" points="0,-56.5 0,-75.5 146,-75.5 146,-56.5 0,-56.5"/>
<text text-anchor="middle" x="73" y="-63.5" font-family="Helvetica,sans-Serif" font-size="10.00">road_network_validator.cc</text>
</a>
</g>
</g>
<!-- Node2&#45;&gt;Node3 -->
<g id="edge2" class="edge">
<title>Node2&#45;&gt;Node3</title>
<path fill="none" stroke="midnightblue" d="M73,-101.8C73,-92.91 73,-82.78 73,-75.75"/>
<polygon fill="midnightblue" stroke="midnightblue" points="69.5,-102.08 73,-112.08 76.5,-102.08 69.5,-102.08"/>
</g>
<!-- Node5 -->
<g id="node5" class="node">
<title>Node5</title>
<g id="a_node5"><a xlink:href="create__road__network_8cc.html" target="_top" xlink:title=" ">
<polygon fill="white" stroke="black" points="230.5,-56.5 230.5,-75.5 363.5,-75.5 363.5,-56.5 230.5,-56.5"/>
<text text-anchor="middle" x="297" y="-63.5" font-family="Helvetica,sans-Serif" font-size="10.00">create_road_network.cc</text>
</a>
</g>
</g>
<!-- Node4&#45;&gt;Node5 -->
<g id="edge4" class="edge">
<title>Node4&#45;&gt;Node5</title>
<path fill="none" stroke="midnightblue" d="M245.59,-106.1C258.37,-96.38 274.61,-84.03 285.39,-75.83"/>
<polygon fill="midnightblue" stroke="midnightblue" points="243.25,-103.48 237.41,-112.32 247.49,-109.06 243.25,-103.48"/>
</g>
<!-- Node6&#45;&gt;Node5 -->
<g id="edge6" class="edge">
<title>Node6&#45;&gt;Node5</title>
<path fill="none" stroke="midnightblue" d="M351.69,-106.38C338.14,-96.62 320.76,-84.11 309.27,-75.83"/>
<polygon fill="midnightblue" stroke="midnightblue" points="349.79,-109.32 359.95,-112.32 353.88,-103.64 349.79,-109.32"/>
</g>
<!-- Node8 -->
<g id="node8" class="node">
<title>Node8</title>
<g id="a_node8"><a xlink:href="mock_8cc.html" target="_top" xlink:title=" ">
<polygon fill="white" stroke="black" points="410.5,-56.5 410.5,-75.5 467.5,-75.5 467.5,-56.5 410.5,-56.5"/>
<text text-anchor="middle" x="439" y="-63.5" font-family="Helvetica,sans-Serif" font-size="10.00">mock.cc</text>
</a>
</g>
</g>
<!-- Node7&#45;&gt;Node8 -->
<g id="edge8" class="edge">
<title>Node7&#45;&gt;Node8</title>
<path fill="none" stroke="midnightblue" d="M467.89,-104.14C460.57,-94.74 451.76,-83.4 445.81,-75.75"/>
<polygon fill="midnightblue" stroke="midnightblue" points="465.16,-106.34 474.06,-112.08 470.69,-102.04 465.16,-106.34"/>
</g>
<!-- Node10 -->
<g id="node10" class="node">
<title>Node10</title>
<g id="a_node10"><a xlink:href="generate__urdf_8h.html" target="_top" xlink:title=" ">
<polygon fill="white" stroke="black" points="485.5,-56.5 485.5,-75.5 578.5,-75.5 578.5,-56.5 485.5,-56.5"/>
<text text-anchor="middle" x="532" y="-63.5" font-family="Helvetica,sans-Serif" font-size="10.00">generate_urdf.h</text>
</a>
</g>
</g>
<!-- Node9&#45;&gt;Node10 -->
<g id="edge10" class="edge">
<title>Node9&#45;&gt;Node10</title>
<path fill="none" stroke="midnightblue" d="M557.94,-103.86C551.36,-94.5 543.49,-83.33 538.16,-75.75"/>
<polygon fill="midnightblue" stroke="midnightblue" points="555.11,-105.92 563.73,-112.08 560.83,-101.89 555.11,-105.92"/>
</g>
<!-- Node11 -->
<g id="node11" class="node">
<title>Node11</title>
<g id="a_node11"><a xlink:href="generate__urdf_8cc.html" target="_top" xlink:title=" ">
<polygon fill="white" stroke="black" points="520,-0.5 520,-19.5 618,-19.5 618,-0.5 520,-0.5"/>
<text text-anchor="middle" x="569" y="-7.5" font-family="Helvetica,sans-Serif" font-size="10.00">generate_urdf.cc</text>
</a>
</g>
</g>
<!-- Node9&#45;&gt;Node11 -->
<g id="edge13" class="edge">
<title>Node9&#45;&gt;Node11</title>
<path fill="none" stroke="midnightblue" d="M579.16,-103.06C584.68,-90.09 590.1,-72.09 587,-56 584.45,-42.78 578.06,-28.51 573.62,-19.66"/>
<polygon fill="midnightblue" stroke="midnightblue" points="575.92,-101.71 574.87,-112.25 582.27,-104.67 575.92,-101.71"/>
</g>
<!-- Node12 -->
<g id="node12" class="node">
<title>Node12</title>
<g id="a_node12"><a xlink:href="generate__obj_8cc.html" target="_top" xlink:title=" ">
<polygon fill="white" stroke="black" points="635,-56.5 635,-75.5 729,-75.5 729,-56.5 635,-56.5"/>
<text text-anchor="middle" x="682" y="-63.5" font-family="Helvetica,sans-Serif" font-size="10.00">generate_obj.cc</text>
</a>
</g>
</g>
<!-- Node9&#45;&gt;Node12 -->
<g id="edge12" class="edge">
<title>Node9&#45;&gt;Node12</title>
<path fill="none" stroke="midnightblue" d="M597.25,-107.86C618.02,-97.85 646.02,-84.35 664.05,-75.65"/>
<polygon fill="midnightblue" stroke="midnightblue" points="595.48,-104.83 587.99,-112.32 598.52,-111.13 595.48,-104.83"/>
</g>
<!-- Node10&#45;&gt;Node11 -->
<g id="edge11" class="edge">
<title>Node10&#45;&gt;Node11</title>
<path fill="none" stroke="midnightblue" d="M543.95,-47.57C550.31,-38.27 557.87,-27.25 563,-19.75"/>
<polygon fill="midnightblue" stroke="midnightblue" points="540.87,-45.86 538.11,-56.08 546.65,-49.81 540.87,-45.86"/>
</g>
</g>
</svg>
