<?xml version="1.0" encoding="UTF-8" standalone="no"?>
<!DOCTYPE svg PUBLIC "-//W3C//DTD SVG 1.1//EN"
 "http://www.w3.org/Graphics/SVG/1.1/DTD/svg11.dtd">
<!-- Generated by graphviz version 2.43.0 (0)
 -->
<!-- Title: rules_speed_limit_compare.h Pages: 1 -->
<svg width="1654pt" height="654pt"
 viewBox="0.00 0.00 1654.00 654.00" xmlns="http://www.w3.org/2000/svg" xmlns:xlink="http://www.w3.org/1999/xlink">
<g id="graph0" class="graph" transform="scale(1 1) rotate(0) translate(4 650)">
<title>rules_speed_limit_compare.h</title>
<polygon fill="white" stroke="transparent" points="-4,4 -4,-650 1650,-650 1650,4 -4,4"/>
<!-- Node1 -->
<g id="node1" class="node">
<title>Node1</title>
<g id="a_node1"><a xlink:title=" ">
<polygon fill="#bfbfbf" stroke="black" points="36,-626.5 36,-645.5 196,-645.5 196,-626.5 36,-626.5"/>
<text text-anchor="middle" x="116" y="-633.5" font-family="Helvetica,sans-Serif" font-size="10.00">rules_speed_limit_compare.h</text>
</a>
</g>
</g>
<!-- Node2 -->
<g id="node2" class="node">
<title>Node2</title>
<g id="a_node2"><a xlink:title=" ">
<polygon fill="white" stroke="#bfbfbf" points="0,-185 0,-204 78,-204 78,-185 0,-185"/>
<text text-anchor="middle" x="39" y="-192" font-family="Helvetica,sans-Serif" font-size="10.00">gtest/gtest.h</text>
</a>
</g>
</g>
<!-- Node1&#45;&gt;Node2 -->
<g id="edge1" class="edge">
<title>Node1&#45;&gt;Node2</title>
<path fill="none" stroke="midnightblue" d="M104.13,-626.34C80.11,-607.7 28,-561.2 28,-508.5 28,-508.5 28,-508.5 28,-327.5 28,-287.02 33.2,-239.79 36.45,-214.24"/>
<polygon fill="midnightblue" stroke="midnightblue" points="39.95,-214.5 37.78,-204.13 33.01,-213.59 39.95,-214.5"/>
</g>
<!-- Node3 -->
<g id="node3" class="node">
<title>Node3</title>
<g id="a_node3"><a xlink:href="speed__limit__rule_8h.html" target="_top" xlink:title=" ">
<polygon fill="white" stroke="black" points="470.5,-559.5 470.5,-589.5 601.5,-589.5 601.5,-559.5 470.5,-559.5"/>
<text text-anchor="start" x="478.5" y="-577.5" font-family="Helvetica,sans-Serif" font-size="10.00">maliput/api/rules/speed</text>
<text text-anchor="middle" x="536" y="-566.5" font-family="Helvetica,sans-Serif" font-size="10.00">_limit_rule.h</text>
</a>
</g>
</g>
<!-- Node1&#45;&gt;Node3 -->
<g id="edge2" class="edge">
<title>Node1&#45;&gt;Node3</title>
<path fill="none" stroke="midnightblue" d="M176.18,-626.48C251,-615.87 378.78,-597.77 460.22,-586.24"/>
<polygon fill="midnightblue" stroke="midnightblue" points="460.99,-589.66 470.4,-584.79 460.01,-582.73 460.99,-589.66"/>
</g>
<!-- Node33 -->
<g id="node33" class="node">
<title>Node33</title>
<g id="a_node33"><a xlink:href="rules__test__utilities_8h.html" target="_top" xlink:title=" ">
<polygon fill="white" stroke="black" points="56.5,-246.5 56.5,-276.5 175.5,-276.5 175.5,-246.5 56.5,-246.5"/>
<text text-anchor="start" x="64.5" y="-264.5" font-family="Helvetica,sans-Serif" font-size="10.00">maliput/test_utilities</text>
<text text-anchor="middle" x="116" y="-253.5" font-family="Helvetica,sans-Serif" font-size="10.00">/rules_test_utilities.h</text>
</a>
</g>
</g>
<!-- Node1&#45;&gt;Node33 -->
<g id="edge71" class="edge">
<title>Node1&#45;&gt;Node33</title>
<path fill="none" stroke="midnightblue" d="M116,-626.41C116,-605.98 116,-552.86 116,-508.5 116,-508.5 116,-508.5 116,-389 116,-353.42 116,-312.2 116,-286.74"/>
<polygon fill="midnightblue" stroke="midnightblue" points="119.5,-286.54 116,-276.54 112.5,-286.54 119.5,-286.54"/>
</g>
<!-- Node4 -->
<g id="node4" class="node">
<title>Node4</title>
<g id="a_node4"><a xlink:href="regions_8h.html" target="_top" xlink:title=" ">
<polygon fill="white" stroke="black" points="673,-498 673,-517 793,-517 793,-498 673,-498"/>
<text text-anchor="middle" x="733" y="-505" font-family="Helvetica,sans-Serif" font-size="10.00">maliput/api/regions.h</text>
</a>
</g>
</g>
<!-- Node3&#45;&gt;Node4 -->
<g id="edge3" class="edge">
<title>Node3&#45;&gt;Node4</title>
<path fill="none" stroke="midnightblue" d="M578.75,-559.4C614.23,-547.69 664.11,-531.23 697.44,-520.23"/>
<polygon fill="midnightblue" stroke="midnightblue" points="698.82,-523.46 707.22,-517.01 696.62,-516.82 698.82,-523.46"/>
</g>
<!-- Node15 -->
<g id="node15" class="node">
<title>Node15</title>
<g id="a_node15"><a xlink:href="maliput__copyable_8h.html" target="_top" xlink:title=" ">
<polygon fill="white" stroke="black" points="1169,-179.5 1169,-209.5 1309,-209.5 1309,-179.5 1169,-179.5"/>
<text text-anchor="start" x="1177" y="-197.5" font-family="Helvetica,sans-Serif" font-size="10.00">maliput/common/maliput</text>
<text text-anchor="middle" x="1239" y="-186.5" font-family="Helvetica,sans-Serif" font-size="10.00">_copyable.h</text>
</a>
</g>
</g>
<!-- Node3&#45;&gt;Node15 -->
<g id="edge68" class="edge">
<title>Node3&#45;&gt;Node15</title>
<path fill="none" stroke="midnightblue" d="M601.76,-568.77C778.76,-555.18 1252,-512.68 1252,-447 1252,-447 1252,-447 1252,-327.5 1252,-289.82 1246.69,-246.38 1242.86,-219.94"/>
<polygon fill="midnightblue" stroke="midnightblue" points="1246.27,-219.08 1241.32,-209.71 1239.34,-220.12 1246.27,-219.08"/>
</g>
<!-- Node16 -->
<g id="node16" class="node">
<title>Node16</title>
<g id="a_node16"><a xlink:href="maliput__throw_8h.html" target="_top" xlink:title=" ">
<polygon fill="white" stroke="black" points="346,-56.5 346,-86.5 486,-86.5 486,-56.5 346,-56.5"/>
<text text-anchor="start" x="354" y="-74.5" font-family="Helvetica,sans-Serif" font-size="10.00">maliput/common/maliput</text>
<text text-anchor="middle" x="416" y="-63.5" font-family="Helvetica,sans-Serif" font-size="10.00">_throw.h</text>
</a>
</g>
</g>
<!-- Node3&#45;&gt;Node16 -->
<g id="edge70" class="edge">
<title>Node3&#45;&gt;Node16</title>
<path fill="none" stroke="midnightblue" d="M470.41,-562.28C373.65,-543.83 204,-503.44 204,-447 204,-447 204,-447 204,-327.5 204,-261.4 160.89,-235 196,-179 226.59,-130.21 286.57,-103.22 336.18,-88.63"/>
<polygon fill="midnightblue" stroke="midnightblue" points="337.28,-91.96 345.95,-85.87 335.38,-85.22 337.28,-91.96"/>
</g>
<!-- Node26 -->
<g id="node26" class="node">
<title>Node26</title>
<g id="a_node26"><a xlink:href="type__specific__identifier_8h.html" target="_top" xlink:title=" ">
<polygon fill="white" stroke="black" points="551,-313.5 551,-343.5 691,-343.5 691,-313.5 551,-313.5"/>
<text text-anchor="start" x="559" y="-331.5" font-family="Helvetica,sans-Serif" font-size="10.00">maliput/api/type_specific</text>
<text text-anchor="middle" x="621" y="-320.5" font-family="Helvetica,sans-Serif" font-size="10.00">_identifier.h</text>
</a>
</g>
</g>
<!-- Node3&#45;&gt;Node26 -->
<g id="edge67" class="edge">
<title>Node3&#45;&gt;Node26</title>
<path fill="none" stroke="midnightblue" d="M524.83,-559.43C517.91,-549.79 509.67,-536.37 506,-523 502.35,-509.71 501.82,-505.13 506,-492 524.27,-434.55 571.03,-379.96 598.97,-350.99"/>
<polygon fill="midnightblue" stroke="midnightblue" points="601.47,-353.44 605.98,-343.86 596.47,-348.54 601.47,-353.44"/>
</g>
<!-- Node32 -->
<g id="node32" class="node">
<title>Node32</title>
<g id="a_node32"><a xlink:href="maliput__deprecated_8h.html" target="_top" xlink:title=" ">
<polygon fill="white" stroke="black" points="515,-492.5 515,-522.5 655,-522.5 655,-492.5 515,-492.5"/>
<text text-anchor="start" x="523" y="-510.5" font-family="Helvetica,sans-Serif" font-size="10.00">maliput/common/maliput</text>
<text text-anchor="middle" x="585" y="-499.5" font-family="Helvetica,sans-Serif" font-size="10.00">_deprecated.h</text>
</a>
</g>
</g>
<!-- Node3&#45;&gt;Node32 -->
<g id="edge69" class="edge">
<title>Node3&#45;&gt;Node32</title>
<path fill="none" stroke="midnightblue" d="M546.63,-559.4C552.92,-551.05 561.04,-540.29 568.18,-530.81"/>
<polygon fill="midnightblue" stroke="midnightblue" points="571.16,-532.67 574.39,-522.58 565.57,-528.45 571.16,-532.67"/>
</g>
<!-- Node5 -->
<g id="node5" class="node">
<title>Node5</title>
<g id="a_node5"><a xlink:title=" ">
<polygon fill="white" stroke="#bfbfbf" points="989.5,-185 989.5,-204 1036.5,-204 1036.5,-185 989.5,-185"/>
<text text-anchor="middle" x="1013" y="-192" font-family="Helvetica,sans-Serif" font-size="10.00">cmath</text>
</a>
</g>
</g>
<!-- Node4&#45;&gt;Node5 -->
<g id="edge4" class="edge">
<title>Node4&#45;&gt;Node5</title>
<path fill="none" stroke="midnightblue" d="M740.78,-497.86C779.01,-455.4 947.11,-268.69 998.21,-211.93"/>
<polygon fill="midnightblue" stroke="midnightblue" points="1001.03,-214.02 1005.12,-204.25 995.83,-209.34 1001.03,-214.02"/>
</g>
<!-- Node6 -->
<g id="node6" class="node">
<title>Node6</title>
<g id="a_node6"><a xlink:title=" ">
<polygon fill="white" stroke="#bfbfbf" points="649,-436.5 649,-455.5 705,-455.5 705,-436.5 649,-436.5"/>
<text text-anchor="middle" x="677" y="-443.5" font-family="Helvetica,sans-Serif" font-size="10.00">numeric</text>
</a>
</g>
</g>
<!-- Node4&#45;&gt;Node6 -->
<g id="edge5" class="edge">
<title>Node4&#45;&gt;Node6</title>
<path fill="none" stroke="midnightblue" d="M724.98,-497.98C716.41,-488.87 702.64,-474.24 692.04,-462.98"/>
<polygon fill="midnightblue" stroke="midnightblue" points="694.41,-460.39 685.01,-455.51 689.31,-465.19 694.41,-460.39"/>
</g>
<!-- Node7 -->
<g id="node7" class="node">
<title>Node7</title>
<g id="a_node7"><a xlink:title=" ">
<polygon fill="white" stroke="#bfbfbf" points="832,-185 832,-204 888,-204 888,-185 832,-185"/>
<text text-anchor="middle" x="860" y="-192" font-family="Helvetica,sans-Serif" font-size="10.00">optional</text>
</a>
</g>
</g>
<!-- Node4&#45;&gt;Node7 -->
<g id="edge6" class="edge">
<title>Node4&#45;&gt;Node7</title>
<path fill="none" stroke="midnightblue" d="M736.53,-497.86C753.69,-455.84 828.55,-272.5 852.56,-213.71"/>
<polygon fill="midnightblue" stroke="midnightblue" points="855.89,-214.83 856.43,-204.25 849.41,-212.18 855.89,-214.83"/>
</g>
<!-- Node8 -->
<g id="node8" class="node">
<title>Node8</title>
<g id="a_node8"><a xlink:title=" ">
<polygon fill="white" stroke="#bfbfbf" points="204.5,-185 204.5,-204 251.5,-204 251.5,-185 204.5,-185"/>
<text text-anchor="middle" x="228" y="-192" font-family="Helvetica,sans-Serif" font-size="10.00">vector</text>
</a>
</g>
</g>
<!-- Node4&#45;&gt;Node8 -->
<g id="edge7" class="edge">
<title>Node4&#45;&gt;Node8</title>
<path fill="none" stroke="midnightblue" d="M694.47,-497.95C578.72,-472.2 242,-396.8 242,-391 242,-391 242,-391 242,-327.5 242,-286.93 235.38,-239.74 231.24,-214.22"/>
<polygon fill="midnightblue" stroke="midnightblue" points="234.66,-213.4 229.55,-204.12 227.75,-214.56 234.66,-213.4"/>
</g>
<!-- Node9 -->
<g id="node9" class="node">
<title>Node9</title>
<g id="a_node9"><a xlink:href="api_2lane_8h.html" target="_top" xlink:title=" ">
<polygon fill="white" stroke="black" points="951.5,-436.5 951.5,-455.5 1056.5,-455.5 1056.5,-436.5 951.5,-436.5"/>
<text text-anchor="middle" x="1004" y="-443.5" font-family="Helvetica,sans-Serif" font-size="10.00">maliput/api/lane.h</text>
</a>
</g>
</g>
<!-- Node4&#45;&gt;Node9 -->
<g id="edge8" class="edge">
<title>Node4&#45;&gt;Node9</title>
<path fill="none" stroke="midnightblue" d="M771.83,-497.98C820.12,-487.37 902.61,-469.26 955.15,-457.72"/>
<polygon fill="midnightblue" stroke="midnightblue" points="956.23,-461.07 965.24,-455.51 954.73,-454.24 956.23,-461.07"/>
</g>
<!-- Node4&#45;&gt;Node15 -->
<g id="edge66" class="edge">
<title>Node4&#45;&gt;Node15</title>
<path fill="none" stroke="midnightblue" d="M747.06,-497.86C815.01,-456.09 1110.06,-274.75 1207.58,-214.81"/>
<polygon fill="midnightblue" stroke="midnightblue" points="1209.44,-217.78 1216.12,-209.56 1205.77,-211.81 1209.44,-217.78"/>
</g>
<!-- Node4&#45;&gt;Node26 -->
<g id="edge65" class="edge">
<title>Node4&#45;&gt;Node26</title>
<path fill="none" stroke="midnightblue" d="M702.56,-497.93C681.57,-490.38 654.87,-477.22 640,-456 618.83,-425.79 617.13,-381.52 618.55,-354.16"/>
<polygon fill="midnightblue" stroke="midnightblue" points="622.06,-354.12 619.27,-343.9 615.08,-353.63 622.06,-354.12"/>
</g>
<!-- Node9&#45;&gt;Node7 -->
<g id="edge10" class="edge">
<title>Node9&#45;&gt;Node7</title>
<path fill="none" stroke="midnightblue" d="M987.5,-436.49C973.7,-428.65 954.35,-415.84 942,-400 895.96,-340.95 872.39,-252.63 863.84,-214.34"/>
<polygon fill="midnightblue" stroke="midnightblue" points="867.17,-213.19 861.66,-204.15 860.33,-214.66 867.17,-213.19"/>
</g>
<!-- Node10 -->
<g id="node10" class="node">
<title>Node10</title>
<g id="a_node10"><a xlink:title=" ">
<polygon fill="white" stroke="#bfbfbf" points="951,-380.5 951,-399.5 1009,-399.5 1009,-380.5 951,-380.5"/>
<text text-anchor="middle" x="980" y="-387.5" font-family="Helvetica,sans-Serif" font-size="10.00">memory</text>
</a>
</g>
</g>
<!-- Node9&#45;&gt;Node10 -->
<g id="edge9" class="edge">
<title>Node9&#45;&gt;Node10</title>
<path fill="none" stroke="midnightblue" d="M1000.04,-436.08C996.79,-428.77 992.08,-418.18 988.05,-409.1"/>
<polygon fill="midnightblue" stroke="midnightblue" points="991.15,-407.47 983.89,-399.75 984.75,-410.31 991.15,-407.47"/>
</g>
<!-- Node11 -->
<g id="node11" class="node">
<title>Node11</title>
<g id="a_node11"><a xlink:title=" ">
<polygon fill="white" stroke="#bfbfbf" points="443,-0.5 443,-19.5 487,-19.5 487,-0.5 443,-0.5"/>
<text text-anchor="middle" x="465" y="-7.5" font-family="Helvetica,sans-Serif" font-size="10.00">string</text>
</a>
</g>
</g>
<!-- Node9&#45;&gt;Node11 -->
<g id="edge11" class="edge">
<title>Node9&#45;&gt;Node11</title>
<path fill="none" stroke="midnightblue" d="M1056.54,-441.09C1209.87,-428.97 1646,-389.24 1646,-329.5 1646,-329.5 1646,-329.5 1646,-132 1646,-84.86 1615.05,-75.21 1572,-56 1471.72,-11.26 669.54,-10.53 497.44,-10.9"/>
<polygon fill="midnightblue" stroke="midnightblue" points="497.24,-7.4 487.25,-10.92 497.26,-14.4 497.24,-7.4"/>
</g>
<!-- Node12 -->
<g id="node12" class="node">
<title>Node12</title>
<g id="a_node12"><a xlink:href="lane__data_8h.html" target="_top" xlink:title=" ">
<polygon fill="white" stroke="black" points="1082,-380.5 1082,-399.5 1214,-399.5 1214,-380.5 1082,-380.5"/>
<text text-anchor="middle" x="1148" y="-387.5" font-family="Helvetica,sans-Serif" font-size="10.00">maliput/api/lane_data.h</text>
</a>
</g>
</g>
<!-- Node9&#45;&gt;Node12 -->
<g id="edge12" class="edge">
<title>Node9&#45;&gt;Node12</title>
<path fill="none" stroke="midnightblue" d="M1026.82,-436.44C1050.83,-427.44 1088.83,-413.19 1115.87,-403.05"/>
<polygon fill="midnightblue" stroke="midnightblue" points="1117.16,-406.3 1125.29,-399.52 1114.7,-399.75 1117.16,-406.3"/>
</g>
<!-- Node9&#45;&gt;Node15 -->
<g id="edge63" class="edge">
<title>Node9&#45;&gt;Node15</title>
<path fill="none" stroke="midnightblue" d="M1012.09,-436.41C1045.02,-401.45 1169.59,-269.19 1218.81,-216.93"/>
<polygon fill="midnightblue" stroke="midnightblue" points="1221.47,-219.22 1225.77,-209.54 1216.37,-214.42 1221.47,-219.22"/>
</g>
<!-- Node9&#45;&gt;Node16 -->
<g id="edge64" class="edge">
<title>Node9&#45;&gt;Node16</title>
<path fill="none" stroke="midnightblue" d="M951.46,-440.35C806.1,-426.24 404.44,-378.59 330,-277 286.46,-217.58 355.97,-132.81 393.92,-93.73"/>
<polygon fill="midnightblue" stroke="midnightblue" points="396.49,-96.11 401.05,-86.54 391.52,-91.18 396.49,-96.11"/>
</g>
<!-- Node9&#45;&gt;Node26 -->
<g id="edge44" class="edge">
<title>Node9&#45;&gt;Node26</title>
<path fill="none" stroke="midnightblue" d="M975.53,-436.41C912.55,-417.42 760.5,-371.57 677.45,-346.52"/>
<polygon fill="midnightblue" stroke="midnightblue" points="678.26,-343.11 667.67,-343.58 676.24,-349.81 678.26,-343.11"/>
</g>
<!-- Node12&#45;&gt;Node11 -->
<g id="edge15" class="edge">
<title>Node12&#45;&gt;Node11</title>
<path fill="none" stroke="midnightblue" d="M1143.69,-380.5C1139.23,-371.54 1132.21,-356.96 1127,-344 1098.14,-272.14 1128.8,-230.54 1071,-179 926.42,-50.1 829.69,-145.37 645,-87 589.07,-69.32 526.56,-40.85 491.89,-24.23"/>
<polygon fill="midnightblue" stroke="midnightblue" points="493,-20.88 482.47,-19.68 489.95,-27.18 493,-20.88"/>
</g>
<!-- Node13 -->
<g id="node13" class="node">
<title>Node13</title>
<g id="a_node13"><a xlink:title=" ">
<polygon fill="white" stroke="#bfbfbf" points="906.5,-185 906.5,-204 971.5,-204 971.5,-185 906.5,-185"/>
<text text-anchor="middle" x="939" y="-192" font-family="Helvetica,sans-Serif" font-size="10.00">functional</text>
</a>
</g>
</g>
<!-- Node12&#45;&gt;Node13 -->
<g id="edge13" class="edge">
<title>Node12&#45;&gt;Node13</title>
<path fill="none" stroke="midnightblue" d="M1119.12,-380.45C1097.89,-373.16 1069.16,-361.12 1048,-344 1001.09,-306.05 964.12,-243.38 947.92,-213.04"/>
<polygon fill="midnightblue" stroke="midnightblue" points="950.97,-211.31 943.24,-204.07 944.76,-214.55 950.97,-211.31"/>
</g>
<!-- Node14 -->
<g id="node14" class="node">
<title>Node14</title>
<g id="a_node14"><a xlink:title=" ">
<polygon fill="white" stroke="#bfbfbf" points="1411.5,-185 1411.5,-204 1468.5,-204 1468.5,-185 1411.5,-185"/>
<text text-anchor="middle" x="1440" y="-192" font-family="Helvetica,sans-Serif" font-size="10.00">ostream</text>
</a>
</g>
</g>
<!-- Node12&#45;&gt;Node14 -->
<g id="edge14" class="edge">
<title>Node12&#45;&gt;Node14</title>
<path fill="none" stroke="midnightblue" d="M1214.31,-387.54C1296.23,-384.42 1429.38,-374.64 1467,-344 1501.77,-315.68 1508.26,-287.39 1491,-246 1484.96,-231.52 1472.53,-219.07 1461.45,-210.15"/>
<polygon fill="midnightblue" stroke="midnightblue" points="1463.46,-207.28 1453.37,-204.05 1459.24,-212.87 1463.46,-207.28"/>
</g>
<!-- Node12&#45;&gt;Node15 -->
<g id="edge16" class="edge">
<title>Node12&#45;&gt;Node15</title>
<path fill="none" stroke="midnightblue" d="M1152.03,-380.44C1165.27,-352.28 1207.78,-261.89 1228.05,-218.79"/>
<polygon fill="midnightblue" stroke="midnightblue" points="1231.27,-220.17 1232.35,-209.63 1224.93,-217.19 1231.27,-220.17"/>
</g>
<!-- Node12&#45;&gt;Node16 -->
<g id="edge17" class="edge">
<title>Node12&#45;&gt;Node16</title>
<path fill="none" stroke="midnightblue" d="M1130.06,-380.46C1115.97,-372.84 1096.96,-360.35 1086,-344 1043.99,-281.32 1103.33,-228.06 1046,-179 972.47,-116.08 706.57,-163.55 612,-143 556.62,-130.96 495.59,-107.24 456.58,-90.65"/>
<polygon fill="midnightblue" stroke="midnightblue" points="457.73,-87.34 447.16,-86.6 454.96,-93.77 457.73,-87.34"/>
</g>
<!-- Node17 -->
<g id="node17" class="node">
<title>Node17</title>
<g id="a_node17"><a xlink:href="matrix_8h.html" target="_top" xlink:title=" ">
<polygon fill="white" stroke="black" points="1486.5,-185 1486.5,-204 1613.5,-204 1613.5,-185 1486.5,-185"/>
<text text-anchor="middle" x="1550" y="-192" font-family="Helvetica,sans-Serif" font-size="10.00">maliput/math/matrix.h</text>
</a>
</g>
</g>
<!-- Node12&#45;&gt;Node17 -->
<g id="edge19" class="edge">
<title>Node12&#45;&gt;Node17</title>
<path fill="none" stroke="midnightblue" d="M1214.13,-387.25C1301.46,-383.79 1449.41,-373.63 1494,-344 1537.52,-315.08 1547.29,-247.52 1549.44,-214.43"/>
<polygon fill="midnightblue" stroke="midnightblue" points="1552.94,-214.44 1549.92,-204.29 1545.95,-214.11 1552.94,-214.44"/>
</g>
<!-- Node23 -->
<g id="node23" class="node">
<title>Node23</title>
<g id="a_node23"><a xlink:href="vector_8h.html" target="_top" xlink:title=" ">
<polygon fill="white" stroke="black" points="1282.5,-123.5 1282.5,-142.5 1407.5,-142.5 1407.5,-123.5 1282.5,-123.5"/>
<text text-anchor="middle" x="1345" y="-130.5" font-family="Helvetica,sans-Serif" font-size="10.00">maliput/math/vector.h</text>
</a>
</g>
</g>
<!-- Node12&#45;&gt;Node23 -->
<g id="edge43" class="edge">
<title>Node12&#45;&gt;Node23</title>
<path fill="none" stroke="midnightblue" d="M1145.22,-380.1C1135.92,-348.44 1109.28,-239.88 1160,-179 1174.56,-161.53 1226.91,-149.84 1272.22,-142.76"/>
<polygon fill="midnightblue" stroke="midnightblue" points="1273,-146.19 1282.36,-141.24 1271.95,-139.26 1273,-146.19"/>
</g>
<!-- Node24 -->
<g id="node24" class="node">
<title>Node24</title>
<g id="a_node24"><a xlink:href="quaternion_8h.html" target="_top" xlink:title=" ">
<polygon fill="white" stroke="black" points="1318.5,-252 1318.5,-271 1465.5,-271 1465.5,-252 1318.5,-252"/>
<text text-anchor="middle" x="1392" y="-259" font-family="Helvetica,sans-Serif" font-size="10.00">maliput/math/quaternion.h</text>
</a>
</g>
</g>
<!-- Node12&#45;&gt;Node24 -->
<g id="edge32" class="edge">
<title>Node12&#45;&gt;Node24</title>
<path fill="none" stroke="midnightblue" d="M1164.77,-380.31C1206.75,-358.54 1316.55,-301.62 1366.55,-275.7"/>
<polygon fill="midnightblue" stroke="midnightblue" points="1368.17,-278.8 1375.43,-271.09 1364.95,-272.58 1368.17,-278.8"/>
</g>
<!-- Node25 -->
<g id="node25" class="node">
<title>Node25</title>
<g id="a_node25"><a xlink:href="roll__pitch__yaw_8h.html" target="_top" xlink:title=" ">
<polygon fill="white" stroke="black" points="1326.5,-313.5 1326.5,-343.5 1457.5,-343.5 1457.5,-313.5 1326.5,-313.5"/>
<text text-anchor="start" x="1334.5" y="-331.5" font-family="Helvetica,sans-Serif" font-size="10.00">maliput/math/roll_pitch</text>
<text text-anchor="middle" x="1392" y="-320.5" font-family="Helvetica,sans-Serif" font-size="10.00">_yaw.h</text>
</a>
</g>
</g>
<!-- Node12&#45;&gt;Node25 -->
<g id="edge38" class="edge">
<title>Node12&#45;&gt;Node25</title>
<path fill="none" stroke="midnightblue" d="M1182.96,-380.48C1219.79,-371.49 1278.7,-357.13 1324.61,-345.93"/>
<polygon fill="midnightblue" stroke="midnightblue" points="1325.61,-349.29 1334.49,-343.52 1323.95,-342.49 1325.61,-349.29"/>
</g>
<!-- Node16&#45;&gt;Node11 -->
<g id="edge18" class="edge">
<title>Node16&#45;&gt;Node11</title>
<path fill="none" stroke="midnightblue" d="M427.61,-56.4C434.73,-47.75 443.88,-36.64 451.35,-27.58"/>
<polygon fill="midnightblue" stroke="midnightblue" points="454.21,-29.6 457.87,-19.66 448.81,-25.15 454.21,-29.6"/>
</g>
<!-- Node18 -->
<g id="node18" class="node">
<title>Node18</title>
<g id="a_node18"><a xlink:title=" ">
<polygon fill="white" stroke="#bfbfbf" points="654,-62 654,-81 718,-81 718,-62 654,-62"/>
<text text-anchor="middle" x="686" y="-69" font-family="Helvetica,sans-Serif" font-size="10.00">algorithm</text>
</a>
</g>
</g>
<!-- Node17&#45;&gt;Node18 -->
<g id="edge20" class="edge">
<title>Node17&#45;&gt;Node18</title>
<path fill="none" stroke="midnightblue" d="M1510.1,-184.98C1499.68,-182.89 1488.44,-180.75 1478,-179 1192.77,-131.15 846.91,-90.61 728.29,-77.2"/>
<polygon fill="midnightblue" stroke="midnightblue" points="728.51,-73.71 718.18,-76.07 727.72,-80.66 728.51,-73.71"/>
</g>
<!-- Node19 -->
<g id="node19" class="node">
<title>Node19</title>
<g id="a_node19"><a xlink:title=" ">
<polygon fill="white" stroke="#bfbfbf" points="1521,-62 1521,-81 1563,-81 1563,-62 1521,-62"/>
<text text-anchor="middle" x="1542" y="-69" font-family="Helvetica,sans-Serif" font-size="10.00">array</text>
</a>
</g>
</g>
<!-- Node17&#45;&gt;Node19 -->
<g id="edge21" class="edge">
<title>Node17&#45;&gt;Node19</title>
<path fill="none" stroke="midnightblue" d="M1549.42,-184.8C1548.14,-165.35 1545.01,-117.99 1543.25,-91.4"/>
<polygon fill="midnightblue" stroke="midnightblue" points="1546.72,-90.87 1542.57,-81.12 1539.74,-91.33 1546.72,-90.87"/>
</g>
<!-- Node20 -->
<g id="node20" class="node">
<title>Node20</title>
<g id="a_node20"><a xlink:title=" ">
<polygon fill="white" stroke="#bfbfbf" points="1247.5,-62 1247.5,-81 1300.5,-81 1300.5,-62 1247.5,-62"/>
<text text-anchor="middle" x="1274" y="-69" font-family="Helvetica,sans-Serif" font-size="10.00">cstddef</text>
</a>
</g>
</g>
<!-- Node17&#45;&gt;Node20 -->
<g id="edge22" class="edge">
<title>Node17&#45;&gt;Node20</title>
<path fill="none" stroke="midnightblue" d="M1532.08,-184.97C1511.9,-175.24 1478.24,-158.66 1450,-143 1435,-134.68 1432.55,-130.22 1417,-123 1371.49,-101.87 1357.07,-104.38 1310,-87 1308.15,-86.32 1306.25,-85.6 1304.35,-84.87"/>
<polygon fill="midnightblue" stroke="midnightblue" points="1305.45,-81.54 1294.86,-81.14 1302.89,-88.06 1305.45,-81.54"/>
</g>
<!-- Node21 -->
<g id="node21" class="node">
<title>Node21</title>
<g id="a_node21"><a xlink:title=" ">
<polygon fill="white" stroke="#bfbfbf" points="1402.5,-62 1402.5,-81 1485.5,-81 1485.5,-62 1402.5,-62"/>
<text text-anchor="middle" x="1444" y="-69" font-family="Helvetica,sans-Serif" font-size="10.00">initializer_list</text>
</a>
</g>
</g>
<!-- Node17&#45;&gt;Node21 -->
<g id="edge23" class="edge">
<title>Node17&#45;&gt;Node21</title>
<path fill="none" stroke="midnightblue" d="M1542.38,-184.8C1524.81,-164.74 1481.22,-114.99 1458.42,-88.96"/>
<polygon fill="midnightblue" stroke="midnightblue" points="1460.78,-86.34 1451.55,-81.12 1455.51,-90.95 1460.78,-86.34"/>
</g>
<!-- Node22 -->
<g id="node22" class="node">
<title>Node22</title>
<g id="a_node22"><a xlink:title=" ">
<polygon fill="white" stroke="#bfbfbf" points="1319,-62 1319,-81 1379,-81 1379,-62 1319,-62"/>
<text text-anchor="middle" x="1349" y="-69" font-family="Helvetica,sans-Serif" font-size="10.00">iostream</text>
</a>
</g>
</g>
<!-- Node17&#45;&gt;Node22 -->
<g id="edge24" class="edge">
<title>Node17&#45;&gt;Node22</title>
<path fill="none" stroke="midnightblue" d="M1538.97,-184.89C1520.93,-171 1483.73,-143.17 1450,-123 1426.32,-108.84 1398.16,-94.99 1377.59,-85.39"/>
<polygon fill="midnightblue" stroke="midnightblue" points="1378.99,-82.18 1368.44,-81.16 1376.05,-88.53 1378.99,-82.18"/>
</g>
<!-- Node17&#45;&gt;Node23 -->
<g id="edge25" class="edge">
<title>Node17&#45;&gt;Node23</title>
<path fill="none" stroke="midnightblue" d="M1520.63,-184.98C1484.7,-174.55 1423.77,-156.86 1383.96,-145.31"/>
<polygon fill="midnightblue" stroke="midnightblue" points="1384.9,-141.94 1374.32,-142.51 1382.95,-148.66 1384.9,-141.94"/>
</g>
<!-- Node23&#45;&gt;Node16 -->
<g id="edge31" class="edge">
<title>Node23&#45;&gt;Node16</title>
<path fill="none" stroke="midnightblue" d="M1282.24,-127.98C1118.42,-117.49 678.04,-89.28 496.21,-77.64"/>
<polygon fill="midnightblue" stroke="midnightblue" points="496.39,-74.14 486.18,-77 495.94,-81.13 496.39,-74.14"/>
</g>
<!-- Node23&#45;&gt;Node18 -->
<g id="edge26" class="edge">
<title>Node23&#45;&gt;Node18</title>
<path fill="none" stroke="midnightblue" d="M1282.41,-126.35C1149.22,-114.32 840.71,-86.47 728.11,-76.3"/>
<polygon fill="midnightblue" stroke="midnightblue" points="728.42,-72.82 718.15,-75.4 727.79,-79.79 728.42,-72.82"/>
</g>
<!-- Node23&#45;&gt;Node19 -->
<g id="edge27" class="edge">
<title>Node23&#45;&gt;Node19</title>
<path fill="none" stroke="midnightblue" d="M1373.78,-123.44C1403.99,-114.44 1452.86,-99.82 1495,-87 1500.18,-85.42 1505.67,-83.74 1511.01,-82.1"/>
<polygon fill="midnightblue" stroke="midnightblue" points="1512.43,-85.32 1520.95,-79.03 1510.37,-78.63 1512.43,-85.32"/>
</g>
<!-- Node23&#45;&gt;Node20 -->
<g id="edge28" class="edge">
<title>Node23&#45;&gt;Node20</title>
<path fill="none" stroke="midnightblue" d="M1334.83,-123.48C1323.65,-114.11 1305.48,-98.88 1291.91,-87.51"/>
<polygon fill="midnightblue" stroke="midnightblue" points="1294.07,-84.75 1284.15,-81.01 1289.57,-90.11 1294.07,-84.75"/>
</g>
<!-- Node23&#45;&gt;Node21 -->
<g id="edge29" class="edge">
<title>Node23&#45;&gt;Node21</title>
<path fill="none" stroke="midnightblue" d="M1359.18,-123.48C1375.36,-113.75 1402.03,-97.73 1421.14,-86.24"/>
<polygon fill="midnightblue" stroke="midnightblue" points="1423.07,-89.16 1429.84,-81.01 1419.47,-83.16 1423.07,-89.16"/>
</g>
<!-- Node23&#45;&gt;Node22 -->
<g id="edge30" class="edge">
<title>Node23&#45;&gt;Node22</title>
<path fill="none" stroke="midnightblue" d="M1345.57,-123.48C1346.14,-115.08 1347.02,-101.98 1347.75,-91.16"/>
<polygon fill="midnightblue" stroke="midnightblue" points="1351.25,-91.22 1348.43,-81.01 1344.26,-90.75 1351.25,-91.22"/>
</g>
<!-- Node24&#45;&gt;Node5 -->
<g id="edge33" class="edge">
<title>Node24&#45;&gt;Node5</title>
<path fill="none" stroke="midnightblue" d="M1342.06,-251.94C1263.64,-238.49 1113.68,-212.77 1046.73,-201.28"/>
<polygon fill="midnightblue" stroke="midnightblue" points="1047.17,-197.81 1036.72,-199.57 1045.98,-204.71 1047.17,-197.81"/>
</g>
<!-- Node24&#45;&gt;Node14 -->
<g id="edge34" class="edge">
<title>Node24&#45;&gt;Node14</title>
<path fill="none" stroke="midnightblue" d="M1398.47,-251.73C1405.89,-241.7 1418.2,-225.01 1427.5,-212.42"/>
<polygon fill="midnightblue" stroke="midnightblue" points="1430.5,-214.25 1433.63,-204.13 1424.87,-210.09 1430.5,-214.25"/>
</g>
<!-- Node24&#45;&gt;Node15 -->
<g id="edge35" class="edge">
<title>Node24&#45;&gt;Node15</title>
<path fill="none" stroke="midnightblue" d="M1371.68,-251.87C1348.72,-242.12 1310.72,-225.97 1281.26,-213.45"/>
<polygon fill="midnightblue" stroke="midnightblue" points="1282.59,-210.22 1272.02,-209.53 1279.86,-216.66 1282.59,-210.22"/>
</g>
<!-- Node24&#45;&gt;Node17 -->
<g id="edge36" class="edge">
<title>Node24&#45;&gt;Node17</title>
<path fill="none" stroke="midnightblue" d="M1412.98,-251.87C1440.25,-240.65 1488.07,-220.98 1519.39,-208.09"/>
<polygon fill="midnightblue" stroke="midnightblue" points="1521.02,-211.21 1528.93,-204.17 1518.35,-204.74 1521.02,-211.21"/>
</g>
<!-- Node24&#45;&gt;Node23 -->
<g id="edge37" class="edge">
<title>Node24&#45;&gt;Node23</title>
<path fill="none" stroke="midnightblue" d="M1387.6,-251.7C1382.7,-241.73 1374.73,-224.93 1369,-210 1361.58,-190.67 1354.63,-167.96 1350.14,-152.44"/>
<polygon fill="midnightblue" stroke="midnightblue" points="1353.43,-151.21 1347.33,-142.55 1346.7,-153.13 1353.43,-151.21"/>
</g>
<!-- Node25&#45;&gt;Node15 -->
<g id="edge39" class="edge">
<title>Node25&#45;&gt;Node15</title>
<path fill="none" stroke="midnightblue" d="M1364.77,-313.48C1348.11,-304.25 1326.84,-291.27 1310,-277 1289.15,-259.33 1269.05,-235.39 1255.59,-218.04"/>
<polygon fill="midnightblue" stroke="midnightblue" points="1258.03,-215.46 1249.19,-209.63 1252.46,-219.7 1258.03,-215.46"/>
</g>
<!-- Node25&#45;&gt;Node17 -->
<g id="edge40" class="edge">
<title>Node25&#45;&gt;Node17</title>
<path fill="none" stroke="midnightblue" d="M1444.07,-313.4C1465.82,-305.48 1490.13,-293.74 1508,-277 1526.56,-259.62 1538.31,-232.19 1544.52,-214.03"/>
<polygon fill="midnightblue" stroke="midnightblue" points="1547.92,-214.91 1547.62,-204.32 1541.25,-212.78 1547.92,-214.91"/>
</g>
<!-- Node25&#45;&gt;Node23 -->
<g id="edge42" class="edge">
<title>Node25&#45;&gt;Node23</title>
<path fill="none" stroke="midnightblue" d="M1432.02,-313.38C1448.39,-305.4 1465.66,-293.62 1475,-277 1481.75,-264.99 1482.24,-257.72 1475,-246 1456.19,-215.57 1430.56,-232.81 1403,-210 1382.69,-193.19 1365.26,-167.99 1354.95,-151.27"/>
<polygon fill="midnightblue" stroke="midnightblue" points="1357.86,-149.33 1349.73,-142.54 1351.85,-152.92 1357.86,-149.33"/>
</g>
<!-- Node25&#45;&gt;Node24 -->
<g id="edge41" class="edge">
<title>Node25&#45;&gt;Node24</title>
<path fill="none" stroke="midnightblue" d="M1392,-313.4C1392,-304.06 1392,-291.71 1392,-281.52"/>
<polygon fill="midnightblue" stroke="midnightblue" points="1395.5,-281.19 1392,-271.19 1388.5,-281.19 1395.5,-281.19"/>
</g>
<!-- Node26&#45;&gt;Node11 -->
<g id="edge46" class="edge">
<title>Node26&#45;&gt;Node11</title>
<path fill="none" stroke="midnightblue" d="M550.72,-326.47C461.21,-321.01 318,-296.49 318,-195.5 318,-195.5 318,-195.5 318,-132 318,-97.18 313.55,-81.74 337,-56 361.58,-29.01 403.31,-18.21 432.41,-13.89"/>
<polygon fill="midnightblue" stroke="midnightblue" points="433.05,-17.33 442.51,-12.57 432.14,-10.39 433.05,-17.33"/>
</g>
<!-- Node26&#45;&gt;Node13 -->
<g id="edge45" class="edge">
<title>Node26&#45;&gt;Node13</title>
<path fill="none" stroke="midnightblue" d="M654.73,-313.5C716.99,-287.66 849.02,-232.85 908.65,-208.1"/>
<polygon fill="midnightblue" stroke="midnightblue" points="910.35,-211.18 918.24,-204.12 907.66,-204.72 910.35,-211.18"/>
</g>
<!-- Node26&#45;&gt;Node15 -->
<g id="edge48" class="edge">
<title>Node26&#45;&gt;Node15</title>
<path fill="none" stroke="midnightblue" d="M686.55,-313.5C801.97,-288.85 1040.81,-237.83 1163.15,-211.7"/>
<polygon fill="midnightblue" stroke="midnightblue" points="1164.14,-215.07 1173.19,-209.56 1162.68,-208.22 1164.14,-215.07"/>
</g>
<!-- Node26&#45;&gt;Node16 -->
<g id="edge62" class="edge">
<title>Node26&#45;&gt;Node16</title>
<path fill="none" stroke="midnightblue" d="M580.03,-313.42C536.2,-296.15 468.13,-262.52 432,-210 408.81,-176.29 409.39,-126.6 412.38,-97.1"/>
<polygon fill="midnightblue" stroke="midnightblue" points="415.89,-97.2 413.6,-86.86 408.94,-96.37 415.89,-97.2"/>
</g>
<!-- Node27 -->
<g id="node27" class="node">
<title>Node27</title>
<g id="a_node27"><a xlink:title=" ">
<polygon fill="white" stroke="#bfbfbf" points="768.5,-185 768.5,-204 813.5,-204 813.5,-185 768.5,-185"/>
<text text-anchor="middle" x="791" y="-192" font-family="Helvetica,sans-Serif" font-size="10.00">utility</text>
</a>
</g>
</g>
<!-- Node26&#45;&gt;Node27 -->
<g id="edge47" class="edge">
<title>Node26&#45;&gt;Node27</title>
<path fill="none" stroke="midnightblue" d="M639.19,-313.37C671.59,-288.22 738.96,-235.91 771.95,-210.29"/>
<polygon fill="midnightblue" stroke="midnightblue" points="774.18,-212.99 779.93,-204.1 769.88,-207.47 774.18,-212.99"/>
</g>
<!-- Node28 -->
<g id="node28" class="node">
<title>Node28</title>
<g id="a_node28"><a xlink:href="maliput__hash_8h.html" target="_top" xlink:title=" ">
<polygon fill="white" stroke="black" points="536,-246.5 536,-276.5 676,-276.5 676,-246.5 536,-246.5"/>
<text text-anchor="start" x="544" y="-264.5" font-family="Helvetica,sans-Serif" font-size="10.00">maliput/common/maliput</text>
<text text-anchor="middle" x="606" y="-253.5" font-family="Helvetica,sans-Serif" font-size="10.00">_hash.h</text>
</a>
</g>
</g>
<!-- Node26&#45;&gt;Node28 -->
<g id="edge49" class="edge">
<title>Node26&#45;&gt;Node28</title>
<path fill="none" stroke="midnightblue" d="M617.75,-313.4C615.94,-305.56 613.64,-295.6 611.55,-286.57"/>
<polygon fill="midnightblue" stroke="midnightblue" points="614.91,-285.53 609.25,-276.58 608.09,-287.11 614.91,-285.53"/>
</g>
<!-- Node28&#45;&gt;Node5 -->
<g id="edge50" class="edge">
<title>Node28&#45;&gt;Node5</title>
<path fill="none" stroke="midnightblue" d="M676.02,-257.17C752.29,-252.14 877.29,-239.78 981,-210 982.93,-209.44 984.9,-208.79 986.86,-208.07"/>
<polygon fill="midnightblue" stroke="midnightblue" points="988.51,-211.18 996.41,-204.12 985.83,-204.71 988.51,-211.18"/>
</g>
<!-- Node28&#45;&gt;Node7 -->
<g id="edge55" class="edge">
<title>Node28&#45;&gt;Node7</title>
<path fill="none" stroke="midnightblue" d="M676.07,-246.89C718.92,-237.9 774.61,-225.03 823,-210 825.42,-209.25 827.91,-208.41 830.4,-207.53"/>
<polygon fill="midnightblue" stroke="midnightblue" points="831.69,-210.79 839.83,-204.01 829.24,-204.23 831.69,-210.79"/>
</g>
<!-- Node28&#45;&gt;Node8 -->
<g id="edge60" class="edge">
<title>Node28&#45;&gt;Node8</title>
<path fill="none" stroke="midnightblue" d="M535.79,-248.43C454.25,-234.41 323.1,-211.85 261.72,-201.3"/>
<polygon fill="midnightblue" stroke="midnightblue" points="262.24,-197.84 251.79,-199.59 261.06,-204.74 262.24,-197.84"/>
</g>
<!-- Node28&#45;&gt;Node11 -->
<g id="edge57" class="edge">
<title>Node28&#45;&gt;Node11</title>
<path fill="none" stroke="midnightblue" d="M538.77,-246.42C519.44,-238.92 500.49,-227.47 489,-210 451.37,-152.77 514.85,-121.56 495,-56 491.88,-45.7 485.55,-35.61 479.5,-27.6"/>
<polygon fill="midnightblue" stroke="midnightblue" points="482.22,-25.4 473.21,-19.82 476.77,-29.8 482.22,-25.4"/>
</g>
<!-- Node28&#45;&gt;Node13 -->
<g id="edge52" class="edge">
<title>Node28&#45;&gt;Node13</title>
<path fill="none" stroke="midnightblue" d="M676.05,-251.56C735.41,-243.23 822.52,-229.19 897,-210 900.21,-209.17 903.53,-208.21 906.83,-207.19"/>
<polygon fill="midnightblue" stroke="midnightblue" points="908.13,-210.45 916.53,-204 905.94,-203.8 908.13,-210.45"/>
</g>
<!-- Node28&#45;&gt;Node16 -->
<g id="edge61" class="edge">
<title>Node28&#45;&gt;Node16</title>
<path fill="none" stroke="midnightblue" d="M535.7,-251.24C507.56,-244.2 476.92,-231.81 456,-210 426.27,-179 418.45,-127.21 416.51,-96.82"/>
<polygon fill="midnightblue" stroke="midnightblue" points="419.99,-96.49 416.03,-86.66 413,-96.82 419.99,-96.49"/>
</g>
<!-- Node28&#45;&gt;Node20 -->
<g id="edge51" class="edge">
<title>Node28&#45;&gt;Node20</title>
<path fill="none" stroke="midnightblue" d="M635.07,-246.33C650.79,-237.55 669.65,-225.08 683,-210 711.59,-177.71 690.45,-147.42 726,-123 768.05,-94.12 1121.38,-78.28 1237.31,-73.82"/>
<polygon fill="midnightblue" stroke="midnightblue" points="1237.6,-77.31 1247.46,-73.44 1237.34,-70.32 1237.6,-77.31"/>
</g>
<!-- Node28&#45;&gt;Node22 -->
<g id="edge53" class="edge">
<title>Node28&#45;&gt;Node22</title>
<path fill="none" stroke="midnightblue" d="M633.99,-246.35C653.66,-236.35 680.53,-222.54 704,-210 729.09,-196.59 733.14,-188.37 760,-179 994.01,-97.36 1070.54,-150.92 1310,-87 1312.81,-86.25 1315.71,-85.37 1318.59,-84.44"/>
<polygon fill="midnightblue" stroke="midnightblue" points="1319.91,-87.68 1328.19,-81.07 1317.59,-81.08 1319.91,-87.68"/>
</g>
<!-- Node28&#45;&gt;Node27 -->
<g id="edge59" class="edge">
<title>Node28&#45;&gt;Node27</title>
<path fill="none" stroke="midnightblue" d="M648.92,-246.42C678.56,-236.56 718.82,-222.89 754,-210 755.89,-209.31 757.84,-208.58 759.8,-207.84"/>
<polygon fill="midnightblue" stroke="midnightblue" points="761.46,-210.95 769.54,-204.1 758.95,-204.42 761.46,-210.95"/>
</g>
<!-- Node29 -->
<g id="node29" class="node">
<title>Node29</title>
<g id="a_node29"><a xlink:title=" ">
<polygon fill="white" stroke="#bfbfbf" points="498,-185 498,-204 536,-204 536,-185 498,-185"/>
<text text-anchor="middle" x="517" y="-192" font-family="Helvetica,sans-Serif" font-size="10.00">map</text>
</a>
</g>
</g>
<!-- Node28&#45;&gt;Node29 -->
<g id="edge54" class="edge">
<title>Node28&#45;&gt;Node29</title>
<path fill="none" stroke="midnightblue" d="M586.69,-246.4C572.04,-235.7 551.96,-221.03 537.12,-210.19"/>
<polygon fill="midnightblue" stroke="midnightblue" points="538.79,-207.08 528.65,-204.01 534.66,-212.73 538.79,-207.08"/>
</g>
<!-- Node30 -->
<g id="node30" class="node">
<title>Node30</title>
<g id="a_node30"><a xlink:title=" ">
<polygon fill="white" stroke="#bfbfbf" points="554,-185 554,-204 586,-204 586,-185 554,-185"/>
<text text-anchor="middle" x="570" y="-192" font-family="Helvetica,sans-Serif" font-size="10.00">set</text>
</a>
</g>
</g>
<!-- Node28&#45;&gt;Node30 -->
<g id="edge56" class="edge">
<title>Node28&#45;&gt;Node30</title>
<path fill="none" stroke="midnightblue" d="M598.19,-246.4C592.8,-236.66 585.59,-223.65 579.81,-213.21"/>
<polygon fill="midnightblue" stroke="midnightblue" points="582.72,-211.25 574.82,-204.19 576.6,-214.64 582.72,-211.25"/>
</g>
<!-- Node31 -->
<g id="node31" class="node">
<title>Node31</title>
<g id="a_node31"><a xlink:title=" ">
<polygon fill="white" stroke="#bfbfbf" points="604.5,-185 604.5,-204 673.5,-204 673.5,-185 604.5,-185"/>
<text text-anchor="middle" x="639" y="-192" font-family="Helvetica,sans-Serif" font-size="10.00">type_traits</text>
</a>
</g>
</g>
<!-- Node28&#45;&gt;Node31 -->
<g id="edge58" class="edge">
<title>Node28&#45;&gt;Node31</title>
<path fill="none" stroke="midnightblue" d="M613.16,-246.4C618.1,-236.66 624.71,-223.65 630.01,-213.21"/>
<polygon fill="midnightblue" stroke="midnightblue" points="633.18,-214.7 634.59,-204.19 626.94,-211.53 633.18,-214.7"/>
</g>
<!-- Node33&#45;&gt;Node2 -->
<g id="edge75" class="edge">
<title>Node33&#45;&gt;Node2</title>
<path fill="none" stroke="midnightblue" d="M99.29,-246.4C86.81,-235.86 69.77,-221.48 56.99,-210.69"/>
<polygon fill="midnightblue" stroke="midnightblue" points="59.2,-207.97 49.3,-204.19 54.68,-213.32 59.2,-207.97"/>
</g>
<!-- Node33&#45;&gt;Node8 -->
<g id="edge74" class="edge">
<title>Node33&#45;&gt;Node8</title>
<path fill="none" stroke="midnightblue" d="M140.3,-246.4C159.35,-235.34 185.68,-220.06 204.51,-209.13"/>
<polygon fill="midnightblue" stroke="midnightblue" points="206.45,-212.05 213.34,-204.01 202.94,-206 206.45,-212.05"/>
</g>
<!-- Node33&#45;&gt;Node11 -->
<g id="edge73" class="edge">
<title>Node33&#45;&gt;Node11</title>
<path fill="none" stroke="midnightblue" d="M117.12,-246.22C119.97,-219.03 129.73,-159.32 162,-123 234.18,-41.75 370.71,-19.33 432.8,-13.23"/>
<polygon fill="midnightblue" stroke="midnightblue" points="433.16,-16.72 442.81,-12.33 432.53,-9.74 433.16,-16.72"/>
</g>
<!-- Node33&#45;&gt;Node18 -->
<g id="edge72" class="edge">
<title>Node33&#45;&gt;Node18</title>
<path fill="none" stroke="midnightblue" d="M158.84,-246.37C267.1,-210.66 550.13,-117.31 650.26,-84.29"/>
<polygon fill="midnightblue" stroke="midnightblue" points="651.52,-87.56 659.92,-81.1 649.32,-80.91 651.52,-87.56"/>
</g>
</g>
</svg>
