<?xml version="1.0" encoding="UTF-8" standalone="no"?>
<!DOCTYPE svg PUBLIC "-//W3C//DTD SVG 1.1//EN"
 "http://www.w3.org/Graphics/SVG/1.1/DTD/svg11.dtd">
<!-- Generated by graphviz version 2.40.1 (20161225.0304)
 -->
<!-- Title: rule.cc Pages: 1 -->
<!--zoomable 576 -->
<svg id="main" version="1.1" xmlns="http://www.w3.org/2000/svg" xmlns:xlink="http://www.w3.org/1999/xlink" xml:space="preserve" onload="init(evt)">
<style type="text/css"><![CDATA[
.edge:hover path { stroke: red; }
.edge:hover polygon { stroke: red; fill: red; }
]]></style>
<script type="text/javascript"><![CDATA[
var edges = document.getElementsByTagName('g');
if (edges && edges.length) {
  for (var i=0;i<edges.length;i++) {
    if (edges[i].id.substr(0,4)=='edge') {
      edges[i].setAttribute('class','edge');
    }
  }
}
]]></script>
        <defs>
                <circle id="rim" cx="0" cy="0" r="7"/>
                <circle id="rim2" cx="0" cy="0" r="3.5"/>
                <g id="zoomPlus">
                        <use xlink:href="#rim" fill="#404040">
                                <set attributeName="fill" to="#808080" begin="zoomplus.mouseover" end="zoomplus.mouseout"/>
                        </use>
                        <path d="M-4,0h8M0,-4v8" fill="none" stroke="white" stroke-width="1.5" pointer-events="none"/>
                </g>
                <g id="zoomMin">
                        <use xlink:href="#rim" fill="#404040">
                                <set attributeName="fill" to="#808080" begin="zoomminus.mouseover" end="zoomminus.mouseout"/>
                        </use>
                        <path d="M-4,0h8" fill="none" stroke="white" stroke-width="1.5" pointer-events="none"/>
                </g>
                <g id="dirArrow">
                        <path fill="none" stroke="white" stroke-width="1.5" d="M0,-3.0v7 M-2.5,-0.5L0,-3.0L2.5,-0.5"/>
                </g>
               <g id="resetDef">
                       <use xlink:href="#rim2" fill="#404040">
                               <set attributeName="fill" to="#808080" begin="reset.mouseover" end="reset.mouseout"/>
                       </use>
               </g>
        </defs>

<script type="text/javascript">
var viewWidth = 1565;
var viewHeight = 576;
var sectionId = 'dynsection-0';
</script>
<script xlink:href="svgpan.js"/>
<svg id="graph" class="graph">
<g id="viewport">
<title>rule.cc</title>
<polygon fill="#ffffff" stroke="transparent" points="-4,4 -4,-572 1561,-572 1561,4 -4,4"/>
<!-- Node0 -->
<g id="node1" class="node">
<title>Node0</title>
<polygon fill="#bfbfbf" stroke="#000000" points="537.5,-548.5 537.5,-567.5 586.5,-567.5 586.5,-548.5 537.5,-548.5"/>
<text text-anchor="middle" x="562" y="-555.5" font-family="Helvetica,sans-Serif" font-size="10.00" fill="#000000">rule.cc</text>
</g>
<!-- Node1 -->
<g id="node2" class="node">
<title>Node1</title>
<g id="a_node2"><a xlink:href="rule_8h.html" target="_top" xlink:title="maliput/api/rules/rule.h">
<polygon fill="#ffffff" stroke="#000000" points="497,-492.5 497,-511.5 627,-511.5 627,-492.5 497,-492.5"/>
<text text-anchor="middle" x="562" y="-499.5" font-family="Helvetica,sans-Serif" font-size="10.00" fill="#000000">maliput/api/rules/rule.h</text>
</a>
</g>
</g>
<!-- Node0&#45;&gt;Node1 -->
<g id="edge1" class="edge">
<title>Node0&#45;&gt;Node1</title>
<path fill="none" stroke="#191970" d="M562,-548.2455C562,-540.9382 562,-530.6944 562,-521.7046"/>
<polygon fill="#191970" stroke="#191970" points="565.5001,-521.6426 562,-511.6427 558.5001,-521.6427 565.5001,-521.6426"/>
</g>
<!-- Node2 -->
<g id="node3" class="node">
<title>Node2</title>
<polygon fill="#ffffff" stroke="#bfbfbf" points="466,-6 466,-25 530,-25 530,-6 466,-6"/>
<text text-anchor="middle" x="498" y="-13" font-family="Helvetica,sans-Serif" font-size="10.00" fill="#000000">algorithm</text>
</g>
<!-- Node1&#45;&gt;Node2 -->
<g id="edge2" class="edge">
<title>Node1&#45;&gt;Node2</title>
<path fill="none" stroke="#191970" d="M496.857,-499.2132C372.6052,-492.1119 114,-467.9668 114,-390 114,-390 114,-390 114,-261.5 114,-100.5361 356.1855,-40.0846 455.888,-22.018"/>
<polygon fill="#191970" stroke="#191970" points="456.6767,-25.4331 465.9209,-20.2566 455.4662,-18.5386 456.6767,-25.4331"/>
</g>
<!-- Node3 -->
<g id="node4" class="node">
<title>Node3</title>
<polygon fill="#ffffff" stroke="#bfbfbf" points="704,-190.5 704,-209.5 748,-209.5 748,-190.5 704,-190.5"/>
<text text-anchor="middle" x="726" y="-197.5" font-family="Helvetica,sans-Serif" font-size="10.00" fill="#000000">string</text>
</g>
<!-- Node1&#45;&gt;Node3 -->
<g id="edge3" class="edge">
<title>Node1&#45;&gt;Node3</title>
<path fill="none" stroke="#191970" d="M562.2391,-492.2398C563.3498,-463.0369 569.6188,-374.5604 605,-313 629.2971,-270.7251 674.5259,-234.8577 702.2761,-215.4694"/>
<polygon fill="#191970" stroke="#191970" points="704.3407,-218.2977 710.623,-209.7663 700.3917,-212.518 704.3407,-218.2977"/>
</g>
<!-- Node4 -->
<g id="node5" class="node">
<title>Node4</title>
<polygon fill="#ffffff" stroke="#bfbfbf" points="38.5,-190.5 38.5,-209.5 85.5,-209.5 85.5,-190.5 38.5,-190.5"/>
<text text-anchor="middle" x="62" y="-197.5" font-family="Helvetica,sans-Serif" font-size="10.00" fill="#000000">vector</text>
</g>
<!-- Node1&#45;&gt;Node4 -->
<g id="edge4" class="edge">
<title>Node1&#45;&gt;Node4</title>
<path fill="none" stroke="#191970" d="M496.7918,-501.0974C386.4213,-498.6518 168.1426,-489.5864 100,-456 63.9006,-438.2072 38,-430.2462 38,-390 38,-390 38,-390 38,-328.5 38,-289.1591 49.0044,-244.1772 56.1102,-219.2323"/>
<polygon fill="#191970" stroke="#191970" points="59.4917,-220.1392 58.9604,-209.5577 52.777,-218.161 59.4917,-220.1392"/>
</g>
<!-- Node5 -->
<g id="node6" class="node">
<title>Node5</title>
<g id="a_node6"><a xlink:href="regions_8h.html" target="_top" xlink:title="maliput/api/regions.h">
<polygon fill="#ffffff" stroke="#000000" points="840,-436.5 840,-455.5 960,-455.5 960,-436.5 840,-436.5"/>
<text text-anchor="middle" x="900" y="-443.5" font-family="Helvetica,sans-Serif" font-size="10.00" fill="#000000">maliput/api/regions.h</text>
</a>
</g>
</g>
<!-- Node1&#45;&gt;Node5 -->
<g id="edge5" class="edge">
<title>Node1&#45;&gt;Node5</title>
<path fill="none" stroke="#191970" d="M619.7202,-492.4369C678.66,-482.6717 770.107,-467.5207 832.3966,-457.2006"/>
<polygon fill="#191970" stroke="#191970" points="833.2244,-460.6112 842.5178,-455.5237 832.0802,-453.7053 833.2244,-460.6112"/>
</g>
<!-- Node14 -->
<g id="node15" class="node">
<title>Node14</title>
<g id="a_node15"><a xlink:href="maliput__copyable_8h.html" target="_top" xlink:title="Code in this file is inspired by: https://github.com/RobotLocomotion/drake/blob/master/common/drake_c...">
<polygon fill="#ffffff" stroke="#000000" points="1279,-123.5 1279,-153.5 1419,-153.5 1419,-123.5 1279,-123.5"/>
<text text-anchor="start" x="1287" y="-141.5" font-family="Helvetica,sans-Serif" font-size="10.00" fill="#000000">maliput/common/maliput</text>
<text text-anchor="middle" x="1349" y="-130.5" font-family="Helvetica,sans-Serif" font-size="10.00" fill="#000000">_copyable.h</text>
</a>
</g>
</g>
<!-- Node1&#45;&gt;Node14 -->
<g id="edge74" class="edge">
<title>Node1&#45;&gt;Node14</title>
<path fill="none" stroke="#191970" d="M627.2847,-501.5266C848.6455,-499.0689 1557,-483.8703 1557,-390 1557,-390 1557,-390 1557,-261.5 1557,-225.7195 1547.5295,-212.8554 1520,-190 1494.3848,-168.7339 1460.1728,-156.2471 1429.0826,-148.9162"/>
<polygon fill="#191970" stroke="#191970" points="1429.6326,-145.4533 1419.1129,-146.7126 1428.1218,-152.2884 1429.6326,-145.4533"/>
</g>
<!-- Node15 -->
<g id="node16" class="node">
<title>Node15</title>
<g id="a_node16"><a xlink:href="maliput__throw_8h.html" target="_top" xlink:title="Code in this file is inspired by: https://github.com/RobotLocomotion/drake/blob/master/common/drake_t...">
<polygon fill="#ffffff" stroke="#000000" points="158,-.5 158,-30.5 298,-30.5 298,-.5 158,-.5"/>
<text text-anchor="start" x="166" y="-18.5" font-family="Helvetica,sans-Serif" font-size="10.00" fill="#000000">maliput/common/maliput</text>
<text text-anchor="middle" x="228" y="-7.5" font-family="Helvetica,sans-Serif" font-size="10.00" fill="#000000">_throw.h</text>
</a>
</g>
</g>
<!-- Node1&#45;&gt;Node15 -->
<g id="edge75" class="edge">
<title>Node1&#45;&gt;Node15</title>
<path fill="none" stroke="#191970" d="M496.926,-498.7091C369.7438,-491.8912 97.2348,-475.2428 59,-456 23.8548,-438.3121 0,-429.3453 0,-390 0,-390 0,-390 0,-138.5 0,-69.4104 82.0952,-38.9478 147.7623,-25.6324"/>
<polygon fill="#191970" stroke="#191970" points="148.5734,-29.0406 157.7321,-23.7144 147.2509,-22.1667 148.5734,-29.0406"/>
</g>
<!-- Node24 -->
<g id="node25" class="node">
<title>Node24</title>
<g id="a_node25"><a xlink:href="type__specific__identifier_8h.html" target="_top" xlink:title="maliput/api/type_specific\l_identifier.h">
<polygon fill="#ffffff" stroke="#000000" points="614,-313.5 614,-343.5 754,-343.5 754,-313.5 614,-313.5"/>
<text text-anchor="start" x="622" y="-331.5" font-family="Helvetica,sans-Serif" font-size="10.00" fill="#000000">maliput/api/type_specific</text>
<text text-anchor="middle" x="684" y="-320.5" font-family="Helvetica,sans-Serif" font-size="10.00" fill="#000000">_identifier.h</text>
</a>
</g>
</g>
<!-- Node1&#45;&gt;Node24 -->
<g id="edge68" class="edge">
<title>Node1&#45;&gt;Node24</title>
<path fill="none" stroke="#191970" d="M568.733,-492.4248C587.37,-465.9205 640.0515,-391.0006 667.2655,-352.2986"/>
<polygon fill="#191970" stroke="#191970" points="670.4,-353.9258 673.289,-343.7325 664.6739,-349.8994 670.4,-353.9258"/>
</g>
<!-- Node30 -->
<g id="node31" class="node">
<title>Node30</title>
<g id="a_node31"><a xlink:href="unique__id_8h.html" target="_top" xlink:title="maliput/api/unique_id.h">
<polygon fill="#ffffff" stroke="#000000" points="426.5,-319 426.5,-338 557.5,-338 557.5,-319 426.5,-319"/>
<text text-anchor="middle" x="492" y="-326" font-family="Helvetica,sans-Serif" font-size="10.00" fill="#000000">maliput/api/unique_id.h</text>
</a>
</g>
</g>
<!-- Node1&#45;&gt;Node30 -->
<g id="edge69" class="edge">
<title>Node1&#45;&gt;Node30</title>
<path fill="none" stroke="#191970" d="M558.1368,-492.4248C547.0239,-464.8807 514.8146,-385.0477 499.8335,-347.916"/>
<polygon fill="#191970" stroke="#191970" points="502.9249,-346.2236 495.9376,-338.2595 496.4334,-348.8428 502.9249,-346.2236"/>
</g>
<!-- Node5&#45;&gt;Node4 -->
<g id="edge9" class="edge">
<title>Node5&#45;&gt;Node4</title>
<path fill="none" stroke="#191970" d="M839.9666,-444.9211C680.6207,-440.99 251.4351,-423.1336 138,-344 94.8628,-313.907 74.2836,-251.4899 66.2589,-219.632"/>
<polygon fill="#191970" stroke="#191970" points="69.6284,-218.6713 63.9276,-209.741 62.8151,-220.2772 69.6284,-218.6713"/>
</g>
<!-- Node6 -->
<g id="node7" class="node">
<title>Node6</title>
<polygon fill="#ffffff" stroke="#bfbfbf" points="822.5,-129 822.5,-148 869.5,-148 869.5,-129 822.5,-129"/>
<text text-anchor="middle" x="846" y="-136" font-family="Helvetica,sans-Serif" font-size="10.00" fill="#000000">cmath</text>
</g>
<!-- Node5&#45;&gt;Node6 -->
<g id="edge6" class="edge">
<title>Node5&#45;&gt;Node6</title>
<path fill="none" stroke="#191970" d="M895.1679,-436.3856C890.7868,-427.2518 884.4962,-413.0179 881,-400 857.3341,-311.8811 849.3065,-202.5653 846.9093,-158.3938"/>
<polygon fill="#191970" stroke="#191970" points="850.3933,-157.9855 846.3944,-148.1744 843.4022,-158.3379 850.3933,-157.9855"/>
</g>
<!-- Node7 -->
<g id="node8" class="node">
<title>Node7</title>
<polygon fill="#ffffff" stroke="#bfbfbf" points="1435,-380.5 1435,-399.5 1491,-399.5 1491,-380.5 1435,-380.5"/>
<text text-anchor="middle" x="1463" y="-387.5" font-family="Helvetica,sans-Serif" font-size="10.00" fill="#000000">numeric</text>
</g>
<!-- Node5&#45;&gt;Node7 -->
<g id="edge7" class="edge">
<title>Node5&#45;&gt;Node7</title>
<path fill="none" stroke="#191970" d="M960.1272,-443.5394C1057.4767,-438.9184 1255.4079,-426.8767 1421,-400 1422.2485,-399.7974 1423.515,-399.578 1424.7915,-399.3449"/>
<polygon fill="#191970" stroke="#191970" points="1425.5437,-402.7637 1434.6465,-397.3425 1424.1498,-395.9039 1425.5437,-402.7637"/>
</g>
<!-- Node8 -->
<g id="node9" class="node">
<title>Node8</title>
<polygon fill="#ffffff" stroke="#bfbfbf" points="1434,-190.5 1434,-209.5 1490,-209.5 1490,-190.5 1434,-190.5"/>
<text text-anchor="middle" x="1462" y="-197.5" font-family="Helvetica,sans-Serif" font-size="10.00" fill="#000000">optional</text>
</g>
<!-- Node5&#45;&gt;Node8 -->
<g id="edge8" class="edge">
<title>Node5&#45;&gt;Node8</title>
<path fill="none" stroke="#191970" d="M960.0353,-442.2444C1085.9635,-433.2038 1372.0272,-406.2054 1444,-344 1479.4666,-313.3466 1472.8869,-251.1837 1466.6449,-219.5065"/>
<polygon fill="#191970" stroke="#191970" points="1470.0536,-218.7101 1464.5205,-209.6749 1463.2115,-220.1886 1470.0536,-218.7101"/>
</g>
<!-- Node9 -->
<g id="node10" class="node">
<title>Node9</title>
<g id="a_node10"><a xlink:href="api_2lane_8h.html" target="_top" xlink:title="maliput/api/lane.h">
<polygon fill="#ffffff" stroke="#000000" points="890.5,-380.5 890.5,-399.5 995.5,-399.5 995.5,-380.5 890.5,-380.5"/>
<text text-anchor="middle" x="943" y="-387.5" font-family="Helvetica,sans-Serif" font-size="10.00" fill="#000000">maliput/api/lane.h</text>
</a>
</g>
</g>
<!-- Node5&#45;&gt;Node9 -->
<g id="edge10" class="edge">
<title>Node5&#45;&gt;Node9</title>
<path fill="none" stroke="#191970" d="M907.49,-436.2455C913.5326,-428.3761 922.1903,-417.101 929.4441,-407.6542"/>
<polygon fill="#191970" stroke="#191970" points="932.2815,-409.7058 935.5958,-399.6427 926.7295,-405.4426 932.2815,-409.7058"/>
</g>
<!-- Node5&#45;&gt;Node14 -->
<g id="edge67" class="edge">
<title>Node5&#45;&gt;Node14</title>
<path fill="none" stroke="#191970" d="M960.1969,-445.2778C1104.0991,-443.0075 1459.1366,-433.9873 1500,-400 1525.2795,-378.9743 1519,-361.3806 1519,-328.5 1519,-328.5 1519,-328.5 1519,-261.5 1519,-228.5024 1521.6467,-213.9993 1499,-190 1480.4844,-170.3786 1454.1683,-158.2328 1428.7354,-150.7144"/>
<polygon fill="#191970" stroke="#191970" points="1429.6192,-147.3276 1419.0493,-148.0536 1427.7649,-154.0776 1429.6192,-147.3276"/>
</g>
<!-- Node5&#45;&gt;Node24 -->
<g id="edge66" class="edge">
<title>Node5&#45;&gt;Node24</title>
<path fill="none" stroke="#191970" d="M882.3238,-436.3845C847.0907,-417.2183 767.4734,-373.908 720.5344,-348.374"/>
<polygon fill="#191970" stroke="#191970" points="722.062,-345.2207 711.6051,-343.5167 718.717,-351.3698 722.062,-345.2207"/>
</g>
<!-- Node9&#45;&gt;Node3 -->
<g id="edge13" class="edge">
<title>Node9&#45;&gt;Node3</title>
<path fill="none" stroke="#191970" d="M927.4628,-380.3368C913.4047,-371.3973 892.3139,-357.4913 875,-344 822.3125,-302.945 767.6727,-245.6942 741.6278,-217.3368"/>
<polygon fill="#191970" stroke="#191970" points="744.1043,-214.8582 734.7802,-209.8271 738.9318,-219.5747 744.1043,-214.8582"/>
</g>
<!-- Node9&#45;&gt;Node8 -->
<g id="edge12" class="edge">
<title>Node9&#45;&gt;Node8</title>
<path fill="none" stroke="#191970" d="M995.8854,-388.1796C1113.0841,-383.6814 1386.8637,-370.441 1419,-344 1456.3236,-313.2909 1462.1468,-251.6212 1462.5147,-219.8798"/>
<polygon fill="#191970" stroke="#191970" points="1466.0133,-219.6307 1462.4516,-209.6525 1459.0134,-219.6739 1466.0133,-219.6307"/>
</g>
<!-- Node10 -->
<g id="node11" class="node">
<title>Node10</title>
<polygon fill="#ffffff" stroke="#bfbfbf" points="1034,-319 1034,-338 1092,-338 1092,-319 1034,-319"/>
<text text-anchor="middle" x="1063" y="-326" font-family="Helvetica,sans-Serif" font-size="10.00" fill="#000000">memory</text>
</g>
<!-- Node9&#45;&gt;Node10 -->
<g id="edge11" class="edge">
<title>Node9&#45;&gt;Node10</title>
<path fill="none" stroke="#191970" d="M961.75,-380.3906C981.476,-370.2811 1012.7312,-354.2628 1035.3,-342.6962"/>
<polygon fill="#191970" stroke="#191970" points="1037.0787,-345.7176 1044.3817,-338.0419 1033.886,-339.4881 1037.0787,-345.7176"/>
</g>
<!-- Node11 -->
<g id="node12" class="node">
<title>Node11</title>
<g id="a_node12"><a xlink:href="lane__data_8h.html" target="_top" xlink:title="maliput/api/lane_data.h">
<polygon fill="#ffffff" stroke="#000000" points="884,-319 884,-338 1016,-338 1016,-319 884,-319"/>
<text text-anchor="middle" x="950" y="-326" font-family="Helvetica,sans-Serif" font-size="10.00" fill="#000000">maliput/api/lane_data.h</text>
</a>
</g>
</g>
<!-- Node9&#45;&gt;Node11 -->
<g id="edge14" class="edge">
<title>Node9&#45;&gt;Node11</title>
<path fill="none" stroke="#191970" d="M944.0938,-380.3906C945.0641,-371.8657 946.5126,-359.1392 947.7323,-348.4235"/>
<polygon fill="#191970" stroke="#191970" points="951.2374,-348.5766 948.8908,-338.2449 944.2823,-347.7849 951.2374,-348.5766"/>
</g>
<!-- Node9&#45;&gt;Node14 -->
<g id="edge64" class="edge">
<title>Node9&#45;&gt;Node14</title>
<path fill="none" stroke="#191970" d="M994.2027,-380.4892C1063.9457,-365.9501 1190.989,-333.7323 1286,-277 1324.3762,-254.0851 1342.7401,-250.7971 1361,-210 1367.579,-195.3009 1364.5844,-177.4349 1359.9423,-163.2392"/>
<polygon fill="#191970" stroke="#191970" points="1363.1442,-161.8071 1356.3843,-153.6489 1356.5813,-164.2419 1363.1442,-161.8071"/>
</g>
<!-- Node9&#45;&gt;Node15 -->
<g id="edge65" class="edge">
<title>Node9&#45;&gt;Node15</title>
<path fill="none" stroke="#191970" d="M890.2652,-388.8647C794.9814,-386.0452 588.129,-376.4003 417,-344 295.7998,-321.0528 152,-384.8534 152,-261.5 152,-261.5 152,-261.5 152,-138.5 152,-98.5825 181.3262,-60.7951 203.5446,-37.8946"/>
<polygon fill="#191970" stroke="#191970" points="206.1366,-40.2529 210.7544,-30.7174 201.198,-35.2919 206.1366,-40.2529"/>
</g>
<!-- Node9&#45;&gt;Node24 -->
<g id="edge45" class="edge">
<title>Node9&#45;&gt;Node24</title>
<path fill="none" stroke="#191970" d="M902.8154,-380.4581C864.0813,-371.2606 804.5619,-357.1276 757.3718,-345.9223"/>
<polygon fill="#191970" stroke="#191970" points="758.0391,-342.4835 747.501,-343.5784 756.4218,-349.2941 758.0391,-342.4835"/>
</g>
<!-- Node11&#45;&gt;Node3 -->
<g id="edge17" class="edge">
<title>Node11&#45;&gt;Node3</title>
<path fill="none" stroke="#191970" d="M931.2332,-318.9389C911.5675,-308.8264 879.8578,-292.2553 853,-277 816.4584,-256.2442 774.9685,-230.7065 749.6425,-214.8887"/>
<polygon fill="#191970" stroke="#191970" points="751.4152,-211.8692 741.0824,-209.5277 747.6998,-217.8018 751.4152,-211.8692"/>
</g>
<!-- Node12 -->
<g id="node13" class="node">
<title>Node12</title>
<polygon fill="#ffffff" stroke="#bfbfbf" points="766.5,-190.5 766.5,-209.5 831.5,-209.5 831.5,-190.5 766.5,-190.5"/>
<text text-anchor="middle" x="799" y="-197.5" font-family="Helvetica,sans-Serif" font-size="10.00" fill="#000000">functional</text>
</g>
<!-- Node11&#45;&gt;Node12 -->
<g id="edge15" class="edge">
<title>Node11&#45;&gt;Node12</title>
<path fill="none" stroke="#191970" d="M938.6505,-318.8416C912.9623,-296.9812 850.1291,-243.5105 818.2403,-216.3733"/>
<polygon fill="#191970" stroke="#191970" points="820.3652,-213.5859 810.4812,-209.7705 815.8286,-218.9169 820.3652,-213.5859"/>
</g>
<!-- Node13 -->
<g id="node14" class="node">
<title>Node13</title>
<polygon fill="#ffffff" stroke="#bfbfbf" points="933.5,-129 933.5,-148 990.5,-148 990.5,-129 933.5,-129"/>
<text text-anchor="middle" x="962" y="-136" font-family="Helvetica,sans-Serif" font-size="10.00" fill="#000000">ostream</text>
</g>
<!-- Node11&#45;&gt;Node13 -->
<g id="edge16" class="edge">
<title>Node11&#45;&gt;Node13</title>
<path fill="none" stroke="#191970" d="M950.0207,-318.7407C950.1412,-296.0857 950.8657,-238.1852 955,-190 955.8981,-179.5321 957.4274,-167.9325 958.8278,-158.3962"/>
<polygon fill="#191970" stroke="#191970" points="962.3136,-158.7552 960.3672,-148.3407 955.3942,-157.6959 962.3136,-158.7552"/>
</g>
<!-- Node11&#45;&gt;Node14 -->
<g id="edge18" class="edge">
<title>Node11&#45;&gt;Node14</title>
<path fill="none" stroke="#191970" d="M994.7664,-318.9946C1004.708,-316.9545 1015.2022,-314.8557 1025,-313 1117.6103,-295.4593 1145.7464,-310.1007 1234,-277 1287.5978,-256.8974 1314.2374,-258.8981 1344,-210 1352.3005,-196.3629 1353.537,-178.4365 1352.7052,-163.9452"/>
<polygon fill="#191970" stroke="#191970" points="1356.1598,-163.2939 1351.7487,-153.6611 1349.1899,-163.9423 1356.1598,-163.2939"/>
</g>
<!-- Node11&#45;&gt;Node15 -->
<g id="edge19" class="edge">
<title>Node11&#45;&gt;Node15</title>
<path fill="none" stroke="#191970" d="M883.7434,-322.8301C745.0851,-310.8703 435.2464,-283.6159 413,-277 342.3062,-255.9763 266,-273.7537 266,-200 266,-200 266,-200 266,-138.5 266,-102.9451 251.3261,-64.0817 240.2154,-39.7514"/>
<polygon fill="#191970" stroke="#191970" points="243.3125,-38.1134 235.8736,-30.5692 236.9843,-41.1057 243.3125,-38.1134"/>
</g>
<!-- Node16 -->
<g id="node17" class="node">
<title>Node16</title>
<g id="a_node17"><a xlink:href="matrix_8h.html" target="_top" xlink:title="maliput/math/matrix.h">
<polygon fill="#ffffff" stroke="#000000" points="1103.5,-129 1103.5,-148 1230.5,-148 1230.5,-129 1103.5,-129"/>
<text text-anchor="middle" x="1167" y="-136" font-family="Helvetica,sans-Serif" font-size="10.00" fill="#000000">maliput/math/matrix.h</text>
</a>
</g>
</g>
<!-- Node11&#45;&gt;Node16 -->
<g id="edge20" class="edge">
<title>Node11&#45;&gt;Node16</title>
<path fill="none" stroke="#191970" d="M995.5865,-318.9531C1005.2892,-316.9564 1015.4789,-314.8857 1025,-313 1067.1546,-304.651 1187.5872,-310.0946 1215,-277 1245.1588,-240.5903 1206.2653,-184.0849 1182.66,-155.8263"/>
<polygon fill="#191970" stroke="#191970" points="1185.1023,-153.2993 1175.9184,-148.0167 1179.8035,-157.8735 1185.1023,-153.2993"/>
</g>
<!-- Node21 -->
<g id="node22" class="node">
<title>Node21</title>
<g id="a_node22"><a xlink:href="vector_8h.html" target="_top" xlink:title="maliput/math/vector.h">
<polygon fill="#ffffff" stroke="#000000" points="918.5,-67.5 918.5,-86.5 1043.5,-86.5 1043.5,-67.5 918.5,-67.5"/>
<text text-anchor="middle" x="981" y="-74.5" font-family="Helvetica,sans-Serif" font-size="10.00" fill="#000000">maliput/math/vector.h</text>
</a>
</g>
</g>
<!-- Node11&#45;&gt;Node21 -->
<g id="edge44" class="edge">
<title>Node11&#45;&gt;Node21</title>
<path fill="none" stroke="#191970" d="M945.2498,-318.9035C930.9018,-288.4789 890.9659,-192.1086 924,-123 930.1448,-110.1449 941.8299,-99.7306 953.0285,-92.0832"/>
<polygon fill="#191970" stroke="#191970" points="955.2041,-94.8488 961.79,-86.5495 951.4661,-88.9304 955.2041,-94.8488"/>
</g>
<!-- Node22 -->
<g id="node23" class="node">
<title>Node22</title>
<g id="a_node23"><a xlink:href="quaternion_8h.html" target="_top" xlink:title="Code in this file is inspired by: https://gitlab.com/libeigen/eigen/&#45;/blob/master/Eigen/src/Geometry/...">
<polygon fill="#ffffff" stroke="#000000" points="964.5,-190.5 964.5,-209.5 1111.5,-209.5 1111.5,-190.5 964.5,-190.5"/>
<text text-anchor="middle" x="1038" y="-197.5" font-family="Helvetica,sans-Serif" font-size="10.00" fill="#000000">maliput/math/quaternion.h</text>
</a>
</g>
</g>
<!-- Node11&#45;&gt;Node22 -->
<g id="edge33" class="edge">
<title>Node11&#45;&gt;Node22</title>
<path fill="none" stroke="#191970" d="M956.6143,-318.8416C971.2664,-297.4463 1006.6545,-245.7715 1025.5768,-218.1407"/>
<polygon fill="#191970" stroke="#191970" points="1028.5464,-219.9988 1031.3089,-209.7705 1022.7709,-216.0436 1028.5464,-219.9988"/>
</g>
<!-- Node23 -->
<g id="node24" class="node">
<title>Node23</title>
<g id="a_node24"><a xlink:href="roll__pitch__yaw_8h.html" target="_top" xlink:title="Code in this file is inspired by: https://github.com/RobotLocomotion/drake/blob/master/math/roll_pitc...">
<polygon fill="#ffffff" stroke="#000000" points="1074.5,-246.5 1074.5,-276.5 1205.5,-276.5 1205.5,-246.5 1074.5,-246.5"/>
<text text-anchor="start" x="1082.5" y="-264.5" font-family="Helvetica,sans-Serif" font-size="10.00" fill="#000000">maliput/math/roll_pitch</text>
<text text-anchor="middle" x="1140" y="-253.5" font-family="Helvetica,sans-Serif" font-size="10.00" fill="#000000">_yaw.h</text>
</a>
</g>
</g>
<!-- Node11&#45;&gt;Node23 -->
<g id="edge39" class="edge">
<title>Node11&#45;&gt;Node23</title>
<path fill="none" stroke="#191970" d="M977.2224,-318.9005C1005.9229,-308.7798 1051.8446,-292.5864 1087.6065,-279.9756"/>
<polygon fill="#191970" stroke="#191970" points="1089.1341,-283.1482 1097.401,-276.5218 1086.8062,-276.5466 1089.1341,-283.1482"/>
</g>
<!-- Node16&#45;&gt;Node2 -->
<g id="edge21" class="edge">
<title>Node16&#45;&gt;Node2</title>
<path fill="none" stroke="#191970" d="M1115.0614,-128.9507C986.9185,-105.3908 657.6018,-44.8438 540.2863,-23.2746"/>
<polygon fill="#191970" stroke="#191970" points="540.723,-19.7963 530.2549,-21.4303 539.4572,-26.6809 540.723,-19.7963"/>
</g>
<!-- Node17 -->
<g id="node18" class="node">
<title>Node17</title>
<polygon fill="#ffffff" stroke="#bfbfbf" points="1160,-6 1160,-25 1202,-25 1202,-6 1160,-6"/>
<text text-anchor="middle" x="1181" y="-13" font-family="Helvetica,sans-Serif" font-size="10.00" fill="#000000">array</text>
</g>
<!-- Node16&#45;&gt;Node17 -->
<g id="edge22" class="edge">
<title>Node16&#45;&gt;Node17</title>
<path fill="none" stroke="#191970" d="M1168.0986,-128.8484C1170.3885,-108.7295 1175.7118,-61.9608 1178.7566,-35.2098"/>
<polygon fill="#191970" stroke="#191970" points="1182.2531,-35.4385 1179.9065,-25.1068 1175.298,-34.6468 1182.2531,-35.4385"/>
</g>
<!-- Node18 -->
<g id="node19" class="node">
<title>Node18</title>
<polygon fill="#ffffff" stroke="#bfbfbf" points="883.5,-6 883.5,-25 936.5,-25 936.5,-6 883.5,-6"/>
<text text-anchor="middle" x="910" y="-13" font-family="Helvetica,sans-Serif" font-size="10.00" fill="#000000">cstddef</text>
</g>
<!-- Node16&#45;&gt;Node18 -->
<g id="edge23" class="edge">
<title>Node16&#45;&gt;Node18</title>
<path fill="none" stroke="#191970" d="M1151.8451,-128.8078C1123.0347,-110.4225 1062.3072,-71.8754 1052,-67 1007.0238,-45.7257 992.441,-48.8518 946,-31 944.3843,-30.3789 942.7343,-29.7283 941.0726,-29.06"/>
<polygon fill="#191970" stroke="#191970" points="942.1658,-25.7243 931.588,-25.1238 939.4826,-32.1896 942.1658,-25.7243"/>
</g>
<!-- Node19 -->
<g id="node20" class="node">
<title>Node19</title>
<polygon fill="#ffffff" stroke="#bfbfbf" points="1050.5,-6 1050.5,-25 1133.5,-25 1133.5,-6 1050.5,-6"/>
<text text-anchor="middle" x="1092" y="-13" font-family="Helvetica,sans-Serif" font-size="10.00" fill="#000000">initializer_list</text>
</g>
<!-- Node16&#45;&gt;Node19 -->
<g id="edge24" class="edge">
<title>Node16&#45;&gt;Node19</title>
<path fill="none" stroke="#191970" d="M1161.2023,-128.7585C1152.9839,-114.9726 1137.4484,-88.9984 1124,-67 1117.2596,-55.9743 1109.6249,-43.6799 1103.5037,-33.8692"/>
<polygon fill="#191970" stroke="#191970" points="1106.4452,-31.9717 1098.1773,-25.3466 1100.5091,-35.6817 1106.4452,-31.9717"/>
</g>
<!-- Node20 -->
<g id="node21" class="node">
<title>Node20</title>
<polygon fill="#ffffff" stroke="#bfbfbf" points="955,-6 955,-25 1015,-25 1015,-6 955,-6"/>
<text text-anchor="middle" x="985" y="-13" font-family="Helvetica,sans-Serif" font-size="10.00" fill="#000000">iostream</text>
</g>
<!-- Node16&#45;&gt;Node20 -->
<g id="edge25" class="edge">
<title>Node16&#45;&gt;Node20</title>
<path fill="none" stroke="#191970" d="M1157.684,-128.8442C1143.2585,-114.2393 1114.2265,-86.2016 1086,-67 1064.0834,-52.0908 1037.2749,-38.6158 1016.7866,-29.192"/>
<polygon fill="#191970" stroke="#191970" points="1018.1267,-25.9568 1007.5725,-25.0298 1015.245,-32.3362 1018.1267,-25.9568"/>
</g>
<!-- Node16&#45;&gt;Node21 -->
<g id="edge26" class="edge">
<title>Node16&#45;&gt;Node21</title>
<path fill="none" stroke="#191970" d="M1137.9375,-128.8906C1106.1338,-118.3749 1054.9949,-101.466 1019.7856,-89.8243"/>
<polygon fill="#191970" stroke="#191970" points="1020.4517,-86.3582 1009.8584,-86.5419 1018.2541,-93.0043 1020.4517,-86.3582"/>
</g>
<!-- Node21&#45;&gt;Node2 -->
<g id="edge27" class="edge">
<title>Node21&#45;&gt;Node2</title>
<path fill="none" stroke="#191970" d="M918.3513,-69.023C818.3791,-56.2936 625.3781,-31.7189 540.178,-20.8705"/>
<polygon fill="#191970" stroke="#191970" points="540.4564,-17.3778 530.0943,-19.5865 539.5721,-24.3217 540.4564,-17.3778"/>
</g>
<!-- Node21&#45;&gt;Node15 -->
<g id="edge32" class="edge">
<title>Node21&#45;&gt;Node15</title>
<path fill="none" stroke="#191970" d="M918.4169,-71.8886C782.2323,-60.766 459.1479,-34.3786 308.2457,-22.0539"/>
<polygon fill="#191970" stroke="#191970" points="308.3727,-18.5527 298.1209,-21.227 307.8028,-25.5295 308.3727,-18.5527"/>
</g>
<!-- Node21&#45;&gt;Node17 -->
<g id="edge28" class="edge">
<title>Node21&#45;&gt;Node17</title>
<path fill="none" stroke="#191970" d="M1019.011,-67.4793C1052.0765,-58.896 1101.1247,-45.4361 1143,-31 1145.4165,-30.1669 1147.902,-29.263 1150.3896,-28.3243"/>
<polygon fill="#191970" stroke="#191970" points="1151.8244,-31.5212 1159.8538,-24.6089 1149.2664,-25.0053 1151.8244,-31.5212"/>
</g>
<!-- Node21&#45;&gt;Node18 -->
<g id="edge29" class="edge">
<title>Node21&#45;&gt;Node18</title>
<path fill="none" stroke="#191970" d="M969.9063,-67.3906C959.0285,-57.9683 942.2252,-43.4134 929.18,-32.1137"/>
<polygon fill="#191970" stroke="#191970" points="931.1004,-29.1466 921.2502,-25.2449 926.5173,-34.4377 931.1004,-29.1466"/>
</g>
<!-- Node21&#45;&gt;Node19 -->
<g id="edge30" class="edge">
<title>Node21&#45;&gt;Node19</title>
<path fill="none" stroke="#191970" d="M998.3438,-67.3906C1016.4273,-57.3713 1044.9859,-41.5483 1065.8165,-30.0071"/>
<polygon fill="#191970" stroke="#191970" points="1067.7271,-32.9498 1074.778,-25.0419 1064.3346,-26.8268 1067.7271,-32.9498"/>
</g>
<!-- Node21&#45;&gt;Node20 -->
<g id="edge31" class="edge">
<title>Node21&#45;&gt;Node20</title>
<path fill="none" stroke="#191970" d="M981.625,-67.3906C982.1795,-58.8657 983.0072,-46.1392 983.7042,-35.4235"/>
<polygon fill="#191970" stroke="#191970" points="987.2097,-35.451 984.3662,-25.2449 980.2244,-34.9966 987.2097,-35.451"/>
</g>
<!-- Node22&#45;&gt;Node6 -->
<g id="edge34" class="edge">
<title>Node22&#45;&gt;Node6</title>
<path fill="none" stroke="#191970" d="M1008,-190.3906C973.1014,-179.2122 915.6488,-160.8094 879.3702,-149.1889"/>
<polygon fill="#191970" stroke="#191970" points="880.3266,-145.8201 869.7355,-146.1028 878.1912,-152.4865 880.3266,-145.8201"/>
</g>
<!-- Node22&#45;&gt;Node13 -->
<g id="edge35" class="edge">
<title>Node22&#45;&gt;Node13</title>
<path fill="none" stroke="#191970" d="M1026.125,-190.3906C1014.3703,-180.8786 996.1514,-166.1357 982.1328,-154.7917"/>
<polygon fill="#191970" stroke="#191970" points="984.0178,-151.8146 974.0424,-148.2449 979.6144,-157.2562 984.0178,-151.8146"/>
</g>
<!-- Node22&#45;&gt;Node14 -->
<g id="edge36" class="edge">
<title>Node22&#45;&gt;Node14</title>
<path fill="none" stroke="#191970" d="M1086.2525,-190.4581C1135.0407,-180.8103 1211.2912,-165.7318 1269.1094,-154.2983"/>
<polygon fill="#191970" stroke="#191970" points="1269.819,-157.7259 1278.95,-152.3523 1268.461,-150.8588 1269.819,-157.7259"/>
</g>
<!-- Node22&#45;&gt;Node16 -->
<g id="edge37" class="edge">
<title>Node22&#45;&gt;Node16</title>
<path fill="none" stroke="#191970" d="M1058.1563,-190.3906C1079.551,-180.1908 1113.562,-163.9763 1137.8702,-152.3875"/>
<polygon fill="#191970" stroke="#191970" points="1139.4648,-155.5047 1146.9853,-148.0419 1136.4524,-149.186 1139.4648,-155.5047"/>
</g>
<!-- Node22&#45;&gt;Node21 -->
<g id="edge38" class="edge">
<title>Node22&#45;&gt;Node21</title>
<path fill="none" stroke="#191970" d="M1033.5273,-190.3484C1024.1207,-170.0499 1002.1426,-122.6235 989.804,-95.9981"/>
<polygon fill="#191970" stroke="#191970" points="992.8322,-94.2083 985.4519,-86.6068 986.481,-97.1515 992.8322,-94.2083"/>
</g>
<!-- Node23&#45;&gt;Node14 -->
<g id="edge40" class="edge">
<title>Node23&#45;&gt;Node14</title>
<path fill="none" stroke="#191970" d="M1158.8519,-246.4582C1178.4576,-231.1954 1210.3713,-207.402 1240,-190 1260.2535,-178.1044 1283.6971,-166.7412 1303.6415,-157.7297"/>
<polygon fill="#191970" stroke="#191970" points="1305.1205,-160.9024 1312.8274,-153.6323 1302.269,-154.5095 1305.1205,-160.9024"/>
</g>
<!-- Node23&#45;&gt;Node16 -->
<g id="edge41" class="edge">
<title>Node23&#45;&gt;Node16</title>
<path fill="none" stroke="#191970" d="M1144.5105,-246.2622C1147.4403,-236.0565 1151.2176,-222.29 1154,-210 1157.9128,-192.7168 1161.4453,-172.876 1163.837,-158.4864"/>
<polygon fill="#191970" stroke="#191970" points="1167.3481,-158.6997 1165.4959,-148.268 1160.4386,-157.5778 1167.3481,-158.6997"/>
</g>
<!-- Node23&#45;&gt;Node21 -->
<g id="edge43" class="edge">
<title>Node23&#45;&gt;Node21</title>
<path fill="none" stroke="#191970" d="M1138.4834,-246.438C1136.3574,-231.1592 1131.3811,-207.3531 1120,-190 1090.9707,-145.7381 1039.1013,-110.3829 1007.5932,-91.6557"/>
<polygon fill="#191970" stroke="#191970" points="1009.3039,-88.6018 998.8992,-86.6034 1005.7867,-94.6541 1009.3039,-88.6018"/>
</g>
<!-- Node23&#45;&gt;Node22 -->
<g id="edge42" class="edge">
<title>Node23&#45;&gt;Node22</title>
<path fill="none" stroke="#191970" d="M1115.048,-246.4554C1099.0741,-236.8241 1078.4398,-224.3828 1062.5457,-214.7996"/>
<polygon fill="#191970" stroke="#191970" points="1064.1774,-211.6965 1053.8064,-209.5303 1060.563,-217.6912 1064.1774,-211.6965"/>
</g>
<!-- Node24&#45;&gt;Node3 -->
<g id="edge47" class="edge">
<title>Node24&#45;&gt;Node3</title>
<path fill="none" stroke="#191970" d="M688.9829,-313.2548C696.6261,-289.87 711.2389,-245.1619 719.6374,-219.4665"/>
<polygon fill="#191970" stroke="#191970" points="723.0379,-220.3283 722.8179,-209.7358 716.3843,-218.1536 723.0379,-220.3283"/>
</g>
<!-- Node24&#45;&gt;Node12 -->
<g id="edge46" class="edge">
<title>Node24&#45;&gt;Node12</title>
<path fill="none" stroke="#191970" d="M697.6436,-313.2548C719.1321,-289.2437 760.7399,-242.7515 783.3892,-217.4434"/>
<polygon fill="#191970" stroke="#191970" points="786.2263,-219.5216 790.287,-209.7358 781.0101,-214.8534 786.2263,-219.5216"/>
</g>
<!-- Node24&#45;&gt;Node14 -->
<g id="edge49" class="edge">
<title>Node24&#45;&gt;Node14</title>
<path fill="none" stroke="#191970" d="M754.139,-322.7188C907.9317,-309.9879 1261.6201,-280.3893 1267,-277 1308.388,-250.9264 1331.5158,-195.7499 1342.0035,-163.4638"/>
<polygon fill="#191970" stroke="#191970" points="1345.3654,-164.4391 1344.9716,-153.8516 1338.677,-162.3738 1345.3654,-164.4391"/>
</g>
<!-- Node24&#45;&gt;Node15 -->
<g id="edge63" class="edge">
<title>Node24&#45;&gt;Node15</title>
<path fill="none" stroke="#191970" d="M613.8284,-319.0895C598.0973,-317.0336 581.4832,-314.9043 566,-313 496.2904,-304.4261 306.1057,-321.783 252,-277 224.3859,-254.144 228,-235.846 228,-200 228,-200 228,-200 228,-138.5 228,-104.6453 228,-65.5491 228,-40.6876"/>
<polygon fill="#191970" stroke="#191970" points="231.5001,-40.6486 228,-30.6486 224.5001,-40.6487 231.5001,-40.6486"/>
</g>
<!-- Node25 -->
<g id="node26" class="node">
<title>Node25</title>
<polygon fill="#ffffff" stroke="#bfbfbf" points="640.5,-190.5 640.5,-209.5 685.5,-209.5 685.5,-190.5 640.5,-190.5"/>
<text text-anchor="middle" x="663" y="-197.5" font-family="Helvetica,sans-Serif" font-size="10.00" fill="#000000">utility</text>
</g>
<!-- Node24&#45;&gt;Node25 -->
<g id="edge48" class="edge">
<title>Node24&#45;&gt;Node25</title>
<path fill="none" stroke="#191970" d="M681.5086,-313.2548C677.704,-289.9744 670.4457,-245.5607 666.2377,-219.8117"/>
<polygon fill="#191970" stroke="#191970" points="669.6582,-219.0403 664.5911,-209.7358 662.7498,-220.1694 669.6582,-219.0403"/>
</g>
<!-- Node26 -->
<g id="node27" class="node">
<title>Node26</title>
<g id="a_node27"><a xlink:href="maliput__hash_8h.html" target="_top" xlink:title="Code in this file is inspired by: https://github.com/RobotLocomotion/drake/blob/master/common/hash.h. ">
<polygon fill="#ffffff" stroke="#000000" points="422,-246.5 422,-276.5 562,-276.5 562,-246.5 422,-246.5"/>
<text text-anchor="start" x="430" y="-264.5" font-family="Helvetica,sans-Serif" font-size="10.00" fill="#000000">maliput/common/maliput</text>
<text text-anchor="middle" x="492" y="-253.5" font-family="Helvetica,sans-Serif" font-size="10.00" fill="#000000">_hash.h</text>
</a>
</g>
</g>
<!-- Node24&#45;&gt;Node26 -->
<g id="edge50" class="edge">
<title>Node24&#45;&gt;Node26</title>
<path fill="none" stroke="#191970" d="M640.9115,-313.4639C612.4783,-303.5419 575.0397,-290.4774 544.8155,-279.9304"/>
<polygon fill="#191970" stroke="#191970" points="545.8713,-276.5919 535.2765,-276.6017 543.5649,-283.2011 545.8713,-276.5919"/>
</g>
<!-- Node26&#45;&gt;Node3 -->
<g id="edge58" class="edge">
<title>Node26&#45;&gt;Node3</title>
<path fill="none" stroke="#191970" d="M554.5634,-246.4613C594.5809,-236.6174 647.5167,-223.1784 694,-210 694.098,-209.9722 694.1961,-209.9443 694.2944,-209.9164"/>
<polygon fill="#191970" stroke="#191970" points="695.0684,-213.3374 703.6658,-207.1459 693.0838,-206.6246 695.0684,-213.3374"/>
</g>
<!-- Node26&#45;&gt;Node4 -->
<g id="edge61" class="edge">
<title>Node26&#45;&gt;Node4</title>
<path fill="none" stroke="#191970" d="M421.9561,-251.4821C328.2432,-238.079 165.7559,-214.8395 95.7188,-204.8226"/>
<polygon fill="#191970" stroke="#191970" points="96.0803,-201.3387 85.6855,-203.3876 95.0892,-208.2682 96.0803,-201.3387"/>
</g>
<!-- Node26&#45;&gt;Node6 -->
<g id="edge51" class="edge">
<title>Node26&#45;&gt;Node6</title>
<path fill="none" stroke="#191970" d="M519.4188,-246.3996C553.2497,-227.9448 608.9906,-198.1615 631,-190 693.1709,-166.946 769.3418,-151.5542 812.3055,-143.982"/>
<polygon fill="#191970" stroke="#191970" points="812.9705,-147.419 822.2291,-142.2685 811.7794,-140.5211 812.9705,-147.419"/>
</g>
<!-- Node26&#45;&gt;Node8 -->
<g id="edge56" class="edge">
<title>Node26&#45;&gt;Node8</title>
<path fill="none" stroke="#191970" d="M562.1502,-257.0523C752.9892,-244.9527 1277.039,-211.7269 1423.5156,-202.44"/>
<polygon fill="#191970" stroke="#191970" points="1424.0334,-205.9143 1433.7919,-201.7885 1423.5904,-198.9283 1424.0334,-205.9143"/>
</g>
<!-- Node26&#45;&gt;Node12 -->
<g id="edge53" class="edge">
<title>Node26&#45;&gt;Node12</title>
<path fill="none" stroke="#191970" d="M562.1854,-248.6874C613.2904,-239.1668 684.4133,-225.5243 756.3215,-210.078"/>
<polygon fill="#191970" stroke="#191970" points="757.4351,-213.4183 766.4712,-207.8867 755.9578,-206.5759 757.4351,-213.4183"/>
</g>
<!-- Node26&#45;&gt;Node15 -->
<g id="edge62" class="edge">
<title>Node26&#45;&gt;Node15</title>
<path fill="none" stroke="#191970" d="M421.9678,-247.158C382.1108,-237.6853 337.3421,-224.3952 323,-210 276.1584,-162.985 314.1877,-123.8836 280,-67 273.4696,-56.1343 264.1308,-45.9154 255.1647,-37.4897"/>
<polygon fill="#191970" stroke="#191970" points="257.2413,-34.6505 247.4613,-30.5758 252.5656,-39.86 257.2413,-34.6505"/>
</g>
<!-- Node26&#45;&gt;Node18 -->
<g id="edge52" class="edge">
<title>Node26&#45;&gt;Node18</title>
<path fill="none" stroke="#191970" d="M500.091,-246.4614C505.3382,-236.3398 512.0868,-222.5921 517,-210 541.1238,-148.1729 509.7738,-110.3806 560,-67 606.3745,-26.9462 793.0988,-18.0438 873.2046,-16.0653"/>
<polygon fill="#191970" stroke="#191970" points="873.4082,-19.5617 883.3273,-15.8385 873.2513,-12.5635 873.4082,-19.5617"/>
</g>
<!-- Node26&#45;&gt;Node20 -->
<g id="edge54" class="edge">
<title>Node26&#45;&gt;Node20</title>
<path fill="none" stroke="#191970" d="M509.9026,-246.2226C528.5687,-230.7721 559.084,-206.8316 588,-190 654.668,-151.1935 868.9824,-62.7029 951.8531,-28.9346"/>
<polygon fill="#191970" stroke="#191970" points="953.3457,-32.106 961.2889,-25.0948 950.7072,-25.6223 953.3457,-32.106"/>
</g>
<!-- Node26&#45;&gt;Node25 -->
<g id="edge60" class="edge">
<title>Node26&#45;&gt;Node25</title>
<path fill="none" stroke="#191970" d="M533.8313,-246.4554C563.7721,-235.6872 603.479,-221.4067 630.9271,-211.535"/>
<polygon fill="#191970" stroke="#191970" points="632.2187,-214.79 640.4441,-208.1122 629.8497,-208.2031 632.2187,-214.79"/>
</g>
<!-- Node27 -->
<g id="node28" class="node">
<title>Node27</title>
<polygon fill="#ffffff" stroke="#bfbfbf" points="420,-190.5 420,-209.5 458,-209.5 458,-190.5 420,-190.5"/>
<text text-anchor="middle" x="439" y="-197.5" font-family="Helvetica,sans-Serif" font-size="10.00" fill="#000000">map</text>
</g>
<!-- Node26&#45;&gt;Node27 -->
<g id="edge55" class="edge">
<title>Node26&#45;&gt;Node27</title>
<path fill="none" stroke="#191970" d="M478.8989,-246.2977C471.3887,-237.5831 461.93,-226.6075 454.1073,-217.5302"/>
<polygon fill="#191970" stroke="#191970" points="456.6655,-215.1372 447.486,-209.8469 451.3629,-219.707 456.6655,-215.1372"/>
</g>
<!-- Node28 -->
<g id="node29" class="node">
<title>Node28</title>
<polygon fill="#ffffff" stroke="#bfbfbf" points="476,-190.5 476,-209.5 508,-209.5 508,-190.5 476,-190.5"/>
<text text-anchor="middle" x="492" y="-197.5" font-family="Helvetica,sans-Serif" font-size="10.00" fill="#000000">set</text>
</g>
<!-- Node26&#45;&gt;Node28 -->
<g id="edge57" class="edge">
<title>Node26&#45;&gt;Node28</title>
<path fill="none" stroke="#191970" d="M492,-246.2977C492,-238.3834 492,-228.6043 492,-220.0759"/>
<polygon fill="#191970" stroke="#191970" points="495.5001,-219.8469 492,-209.8469 488.5001,-219.847 495.5001,-219.8469"/>
</g>
<!-- Node29 -->
<g id="node30" class="node">
<title>Node29</title>
<polygon fill="#ffffff" stroke="#bfbfbf" points="332.5,-190.5 332.5,-209.5 401.5,-209.5 401.5,-190.5 332.5,-190.5"/>
<text text-anchor="middle" x="367" y="-197.5" font-family="Helvetica,sans-Serif" font-size="10.00" fill="#000000">type_traits</text>
</g>
<!-- Node26&#45;&gt;Node29 -->
<g id="edge59" class="edge">
<title>Node26&#45;&gt;Node29</title>
<path fill="none" stroke="#191970" d="M461.4216,-246.4554C441.2968,-236.554 415.1361,-223.683 395.4562,-214.0004"/>
<polygon fill="#191970" stroke="#191970" points="396.8885,-210.8045 386.3706,-209.5303 393.7982,-217.0855 396.8885,-210.8045"/>
</g>
<!-- Node30&#45;&gt;Node3 -->
<g id="edge70" class="edge">
<title>Node30&#45;&gt;Node3</title>
<path fill="none" stroke="#191970" d="M507.2847,-318.8363C523.3015,-308.6401 549.1272,-292.0017 571,-277 590.4291,-263.6744 593.4059,-257.4431 614,-246 639.9296,-231.5922 671.3052,-219.0909 694.2436,-210.7723"/>
<polygon fill="#191970" stroke="#191970" points="695.5801,-214.0117 703.8278,-207.3614 693.2331,-207.4169 695.5801,-214.0117"/>
</g>
<!-- Node30&#45;&gt;Node14 -->
<g id="edge71" class="edge">
<title>Node30&#45;&gt;Node14</title>
<path fill="none" stroke="#191970" d="M554.9531,-318.9861C571.2263,-316.7683 588.7414,-314.5924 605,-313 740.1447,-299.7634 1091.5946,-333.6605 1215,-277 1269.1952,-252.1168 1312.8826,-194.7424 1334.422,-162.1841"/>
<polygon fill="#191970" stroke="#191970" points="1337.4123,-164.0053 1339.9002,-153.7067 1331.533,-160.206 1337.4123,-164.0053"/>
</g>
<!-- Node30&#45;&gt;Node15 -->
<g id="edge73" class="edge">
<title>Node30&#45;&gt;Node15</title>
<path fill="none" stroke="#191970" d="M426.3224,-324.075C354.2703,-317.915 244.745,-304.2888 214,-277 187.191,-253.2047 190,-235.846 190,-200 190,-200 190,-200 190,-138.5 190,-102.9451 204.6739,-64.0817 215.7846,-39.7514"/>
<polygon fill="#191970" stroke="#191970" points="219.0157,-41.1057 220.1264,-30.5692 212.6875,-38.1134 219.0157,-41.1057"/>
</g>
<!-- Node30&#45;&gt;Node26 -->
<g id="edge72" class="edge">
<title>Node30&#45;&gt;Node26</title>
<path fill="none" stroke="#191970" d="M492,-318.9005C492,-310.5099 492,-297.9451 492,-286.7085"/>
<polygon fill="#191970" stroke="#191970" points="495.5001,-286.5217 492,-276.5218 488.5001,-286.5218 495.5001,-286.5217"/>
</g>
</g>
</svg>
        <g id="navigator" transform="translate(0 0)" fill="#404254">
                <rect fill="#f2f5e9" fill-opacity="0.5" stroke="#606060" stroke-width=".5" x="0" y="0" width="60" height="60"/>
                <use id="zoomplus" xlink:href="#zoomPlus" x="17" y="9" onmousedown="handleZoom(evt,'in')"/>
                <use id="zoomminus" xlink:href="#zoomMin" x="42" y="9" onmousedown="handleZoom(evt,'out')"/>
                <use id="reset" xlink:href="#resetDef" x="30" y="36" onmousedown="handleReset()"/>
                <g id="arrowUp" xlink:href="#dirArrow" transform="translate(30 24)" onmousedown="handlePan(0,-1)">
                  <use xlink:href="#rim" fill="#404040">
                        <set attributeName="fill" to="#808080" begin="arrowUp.mouseover" end="arrowUp.mouseout"/>
                  </use>
                  <path fill="none" stroke="white" stroke-width="1.5" d="M0,-3.0v7 M-2.5,-0.5L0,-3.0L2.5,-0.5"/>
                </g>
                <g id="arrowRight" xlink:href="#dirArrow" transform="rotate(90) translate(36 -43)" onmousedown="handlePan(1,0)">
                  <use xlink:href="#rim" fill="#404040">
                        <set attributeName="fill" to="#808080" begin="arrowRight.mouseover" end="arrowRight.mouseout"/>
                  </use>
                  <path fill="none" stroke="white" stroke-width="1.5" d="M0,-3.0v7 M-2.5,-0.5L0,-3.0L2.5,-0.5"/>
                </g>
                <g id="arrowDown" xlink:href="#dirArrow" transform="rotate(180) translate(-30 -48)" onmousedown="handlePan(0,1)">
                  <use xlink:href="#rim" fill="#404040">
                        <set attributeName="fill" to="#808080" begin="arrowDown.mouseover" end="arrowDown.mouseout"/>
                  </use>
                  <path fill="none" stroke="white" stroke-width="1.5" d="M0,-3.0v7 M-2.5,-0.5L0,-3.0L2.5,-0.5"/>
                </g>
                <g id="arrowLeft" xlink:href="#dirArrow" transform="rotate(270) translate(-36 17)" onmousedown="handlePan(-1,0)">
                  <use xlink:href="#rim" fill="#404040">
                        <set attributeName="fill" to="#808080" begin="arrowLeft.mouseover" end="arrowLeft.mouseout"/>
                  </use>
                  <path fill="none" stroke="white" stroke-width="1.5" d="M0,-3.0v7 M-2.5,-0.5L0,-3.0L2.5,-0.5"/>
                </g>
        </g>
        <svg viewBox="0 0 15 15" width="100%" height="30px" preserveAspectRatio="xMaxYMin meet">
         <g id="arrow_out" transform="scale(0.3 0.3)">
          <a xlink:href="rule_8cc__incl_org.svg" target="_base">
           <rect id="button" ry="5" rx="5" y="6" x="6" height="38" width="38"
                fill="#f2f5e9" fill-opacity="0.5" stroke="#606060" stroke-width="1.0"/>
           <path id="arrow"
             d="M 11.500037,31.436501 C 11.940474,20.09759 22.043105,11.32322 32.158766,21.979434 L 37.068811,17.246167 C 37.068811,17.246167 37.088388,32 37.088388,32 L 22.160133,31.978069 C 22.160133,31.978069 26.997745,27.140456 26.997745,27.140456 C 18.528582,18.264221 13.291696,25.230495 11.500037,31.436501 z"
             style="fill:#404040;"/>
          </a>
         </g>
        </svg>
</svg>
