<?xml version="1.0" encoding="UTF-8" standalone="no"?>
<!DOCTYPE svg PUBLIC "-//W3C//DTD SVG 1.1//EN"
 "http://www.w3.org/Graphics/SVG/1.1/DTD/svg11.dtd">
<!-- Generated by graphviz version 2.40.1 (20161225.0304)
 -->
<!-- Title: simple_phase_ring_book.h Pages: 1 -->
<!--zoomable 911 -->
<svg id="main" version="1.1" xmlns="http://www.w3.org/2000/svg" xmlns:xlink="http://www.w3.org/1999/xlink" xml:space="preserve" onload="init(evt)">
<style type="text/css"><![CDATA[
.edge:hover path { stroke: red; }
.edge:hover polygon { stroke: red; fill: red; }
]]></style>
<script type="text/javascript"><![CDATA[
var edges = document.getElementsByTagName('g');
if (edges && edges.length) {
  for (var i=0;i<edges.length;i++) {
    if (edges[i].id.substr(0,4)=='edge') {
      edges[i].setAttribute('class','edge');
    }
  }
}
]]></script>
        <defs>
                <circle id="rim" cx="0" cy="0" r="7"/>
                <circle id="rim2" cx="0" cy="0" r="3.5"/>
                <g id="zoomPlus">
                        <use xlink:href="#rim" fill="#404040">
                                <set attributeName="fill" to="#808080" begin="zoomplus.mouseover" end="zoomplus.mouseout"/>
                        </use>
                        <path d="M-4,0h8M0,-4v8" fill="none" stroke="white" stroke-width="1.5" pointer-events="none"/>
                </g>
                <g id="zoomMin">
                        <use xlink:href="#rim" fill="#404040">
                                <set attributeName="fill" to="#808080" begin="zoomminus.mouseover" end="zoomminus.mouseout"/>
                        </use>
                        <path d="M-4,0h8" fill="none" stroke="white" stroke-width="1.5" pointer-events="none"/>
                </g>
                <g id="dirArrow">
                        <path fill="none" stroke="white" stroke-width="1.5" d="M0,-3.0v7 M-2.5,-0.5L0,-3.0L2.5,-0.5"/>
                </g>
               <g id="resetDef">
                       <use xlink:href="#rim2" fill="#404040">
                               <set attributeName="fill" to="#808080" begin="reset.mouseover" end="reset.mouseout"/>
                       </use>
               </g>
        </defs>

<script type="text/javascript">
var viewWidth = 2436;
var viewHeight = 911;
var sectionId = 'dynsection-0';
</script>
<script xlink:href="svgpan.js"/>
<svg id="graph" class="graph">
<g id="viewport">
<title>simple_phase_ring_book.h</title>
<polygon fill="#ffffff" stroke="transparent" points="-4,4 -4,-907 2432,-907 2432,4 -4,4"/>
<!-- Node0 -->
<g id="node1" class="node">
<title>Node0</title>
<polygon fill="#bfbfbf" stroke="#000000" points="1083,-883.5 1083,-902.5 1229,-902.5 1229,-883.5 1083,-883.5"/>
<text text-anchor="middle" x="1156" y="-890.5" font-family="Helvetica,sans-Serif" font-size="10.00" fill="#000000">simple_phase_ring_book.h</text>
</g>
<!-- Node1 -->
<g id="node2" class="node">
<title>Node1</title>
<polygon fill="#ffffff" stroke="#bfbfbf" points="672,-375 672,-394 730,-394 730,-375 672,-375"/>
<text text-anchor="middle" x="701" y="-382" font-family="Helvetica,sans-Serif" font-size="10.00" fill="#000000">memory</text>
</g>
<!-- Node0&#45;&gt;Node1 -->
<g id="edge1" class="edge">
<title>Node0&#45;&gt;Node1</title>
<path fill="none" stroke="#191970" d="M1082.9638,-887.7111C898.6066,-873.3868 429,-830.4283 429,-764.5 429,-764.5 429,-764.5 429,-641.5 429,-603.8735 426.8577,-590.1249 448,-559 503.8601,-476.7648 612.4192,-421.8009 667.3824,-397.9708"/>
<polygon fill="#191970" stroke="#191970" points="668.8478,-401.151 676.6799,-394.0159 666.1078,-394.7095 668.8478,-401.151"/>
</g>
<!-- Node2 -->
<g id="node3" class="node">
<title>Node2</title>
<polygon fill="#ffffff" stroke="#bfbfbf" points="2020,-246.5 2020,-265.5 2076,-265.5 2076,-246.5 2020,-246.5"/>
<text text-anchor="middle" x="2048" y="-253.5" font-family="Helvetica,sans-Serif" font-size="10.00" fill="#000000">optional</text>
</g>
<!-- Node0&#45;&gt;Node2 -->
<g id="edge2" class="edge">
<title>Node0&#45;&gt;Node2</title>
<path fill="none" stroke="#191970" d="M1229.0405,-889.2506C1494.1277,-875.1675 2390,-823.2287 2390,-764.5 2390,-764.5 2390,-764.5 2390,-513 2390,-362.2827 2175.1006,-289.0215 2085.9999,-265.1236"/>
<polygon fill="#191970" stroke="#191970" points="2086.8387,-261.7253 2076.2783,-262.5789 2085.066,-268.4971 2086.8387,-261.7253"/>
</g>
<!-- Node3 -->
<g id="node4" class="node">
<title>Node3</title>
<g id="a_node4"><a xlink:href="phase__ring_8h.html" target="_top" xlink:title="maliput/api/rules/phase\l_ring.h">
<polygon fill="#ffffff" stroke="#000000" points="1137.5,-749.5 1137.5,-779.5 1268.5,-779.5 1268.5,-749.5 1137.5,-749.5"/>
<text text-anchor="start" x="1145.5" y="-767.5" font-family="Helvetica,sans-Serif" font-size="10.00" fill="#000000">maliput/api/rules/phase</text>
<text text-anchor="middle" x="1203" y="-756.5" font-family="Helvetica,sans-Serif" font-size="10.00" fill="#000000">_ring.h</text>
</a>
</g>
</g>
<!-- Node0&#45;&gt;Node3 -->
<g id="edge3" class="edge">
<title>Node0&#45;&gt;Node3</title>
<path fill="none" stroke="#191970" d="M1162.897,-883.2078C1168.9688,-874.1814 1177.6535,-860.2205 1183,-847 1190.5241,-828.3951 1195.7025,-806.2403 1198.9018,-789.5762"/>
<polygon fill="#191970" stroke="#191970" points="1202.3866,-789.9744 1200.7232,-779.5109 1195.4984,-788.7279 1202.3866,-789.9744"/>
</g>
<!-- Node16 -->
<g id="node17" class="node">
<title>Node16</title>
<g id="a_node17"><a xlink:href="maliput__copyable_8h.html" target="_top" xlink:title="Code in this file is inspired by: https://github.com/RobotLocomotion/drake/blob/master/common/drake_c...">
<polygon fill="#ffffff" stroke="#000000" points="1827,-179.5 1827,-209.5 1967,-209.5 1967,-179.5 1827,-179.5"/>
<text text-anchor="start" x="1835" y="-197.5" font-family="Helvetica,sans-Serif" font-size="10.00" fill="#000000">maliput/common/maliput</text>
<text text-anchor="middle" x="1897" y="-186.5" font-family="Helvetica,sans-Serif" font-size="10.00" fill="#000000">_copyable.h</text>
</a>
</g>
</g>
<!-- Node0&#45;&gt;Node16 -->
<g id="edge127" class="edge">
<title>Node0&#45;&gt;Node16</title>
<path fill="none" stroke="#191970" d="M1229.2384,-892.3422C1379.9965,-890.287 1735.7358,-881.8225 2032,-847 2210.5497,-826.0135 2428,-944.2789 2428,-764.5 2428,-764.5 2428,-764.5 2428,-317.5 2428,-226.1868 2126.2144,-202.6468 1977.6633,-196.5907"/>
<polygon fill="#191970" stroke="#191970" points="1977.3675,-193.0766 1967.2386,-196.1842 1977.0946,-200.0713 1977.3675,-193.0766"/>
</g>
<!-- Node35 -->
<g id="node36" class="node">
<title>Node35</title>
<g id="a_node36"><a xlink:href="right__of__way__rule_8h.html" target="_top" xlink:title="maliput/api/rules/right\l_of_way_rule.h">
<polygon fill="#ffffff" stroke="#000000" points="932.5,-559.5 932.5,-589.5 1057.5,-589.5 1057.5,-559.5 932.5,-559.5"/>
<text text-anchor="start" x="940.5" y="-577.5" font-family="Helvetica,sans-Serif" font-size="10.00" fill="#000000">maliput/api/rules/right</text>
<text text-anchor="middle" x="995" y="-566.5" font-family="Helvetica,sans-Serif" font-size="10.00" fill="#000000">_of_way_rule.h</text>
</a>
</g>
</g>
<!-- Node0&#45;&gt;Node35 -->
<g id="edge126" class="edge">
<title>Node0&#45;&gt;Node35</title>
<path fill="none" stroke="#191970" d="M1095.2112,-883.4971C1072.7357,-876.9224 1049.0871,-865.8029 1034,-847 975.0828,-773.5722 983.7453,-651.7983 990.8696,-599.5587"/>
<polygon fill="#191970" stroke="#191970" points="994.3553,-599.9108 992.3416,-589.5091 987.4292,-598.8963 994.3553,-599.9108"/>
</g>
<!-- Node38 -->
<g id="node39" class="node">
<title>Node38</title>
<g id="a_node39"><a xlink:href="phase__ring__book_8h.html" target="_top" xlink:title="maliput/api/rules/phase\l_ring_book.h">
<polygon fill="#ffffff" stroke="#000000" points="1043.5,-816.5 1043.5,-846.5 1174.5,-846.5 1174.5,-816.5 1043.5,-816.5"/>
<text text-anchor="start" x="1051.5" y="-834.5" font-family="Helvetica,sans-Serif" font-size="10.00" fill="#000000">maliput/api/rules/phase</text>
<text text-anchor="middle" x="1109" y="-823.5" font-family="Helvetica,sans-Serif" font-size="10.00" fill="#000000">_ring_book.h</text>
</a>
</g>
</g>
<!-- Node0&#45;&gt;Node38 -->
<g id="edge119" class="edge">
<title>Node0&#45;&gt;Node38</title>
<path fill="none" stroke="#191970" d="M1148.6563,-883.3906C1142.7665,-875.6839 1134.2527,-864.5434 1126.6222,-854.5589"/>
<polygon fill="#191970" stroke="#191970" points="1129.3505,-852.3648 1120.4975,-846.5446 1123.7887,-856.6153 1129.3505,-852.3648"/>
</g>
<!-- Node3&#45;&gt;Node2 -->
<g id="edge4" class="edge">
<title>Node3&#45;&gt;Node2</title>
<path fill="none" stroke="#191970" d="M1268.5522,-762.4319C1425.6448,-757.0801 1820.115,-741.1895 1949,-713 2017.7049,-697.973 2055.742,-713.9557 2097,-657 2124.1774,-619.4823 2093.3441,-447.3061 2085,-369 2081.8165,-339.1239 2086.0242,-330.3237 2076,-302 2072.5098,-292.1385 2066.7217,-282.1098 2061.311,-273.9441"/>
<polygon fill="#191970" stroke="#191970" points="2064.0982,-271.8221 2055.5053,-265.6244 2058.3578,-275.828 2064.0982,-271.8221"/>
</g>
<!-- Node4 -->
<g id="node5" class="node">
<title>Node4</title>
<polygon fill="#ffffff" stroke="#bfbfbf" points="1964.5,-375 1964.5,-394 2057.5,-394 2057.5,-375 1964.5,-375"/>
<text text-anchor="middle" x="2011" y="-382" font-family="Helvetica,sans-Serif" font-size="10.00" fill="#000000">unordered_map</text>
</g>
<!-- Node3&#45;&gt;Node4 -->
<g id="edge5" class="edge">
<title>Node3&#45;&gt;Node4</title>
<path fill="none" stroke="#191970" d="M1268.6471,-762.2588C1473.2845,-754.4091 2086,-724.0164 2086,-641.5 2086,-641.5 2086,-641.5 2086,-574.5 2086,-507.3641 2044.9853,-435.6184 2023.6167,-402.7951"/>
<polygon fill="#191970" stroke="#191970" points="2026.3815,-400.6324 2017.9214,-394.2545 2020.5576,-404.5161 2026.3815,-400.6324"/>
</g>
<!-- Node5 -->
<g id="node6" class="node">
<title>Node5</title>
<polygon fill="#ffffff" stroke="#bfbfbf" points="205.5,-246.5 205.5,-265.5 252.5,-265.5 252.5,-246.5 205.5,-246.5"/>
<text text-anchor="middle" x="229" y="-253.5" font-family="Helvetica,sans-Serif" font-size="10.00" fill="#000000">vector</text>
</g>
<!-- Node3&#45;&gt;Node5 -->
<g id="edge6" class="edge">
<title>Node3&#45;&gt;Node5</title>
<path fill="none" stroke="#191970" d="M1137.4047,-760.8149C919.7446,-747.0614 227.9292,-690.6112 100,-523 35.3374,-438.2798 159.6206,-315.9731 209.5417,-272.2758"/>
<polygon fill="#191970" stroke="#191970" points="212.113,-274.6805 217.4081,-265.5037 207.546,-269.3755 212.113,-274.6805"/>
</g>
<!-- Node6 -->
<g id="node7" class="node">
<title>Node6</title>
<g id="a_node7"><a xlink:href="phase_8h.html" target="_top" xlink:title="maliput/api/rules/phase.h">
<polygon fill="#ffffff" stroke="#000000" points="1133,-693.5 1133,-712.5 1273,-712.5 1273,-693.5 1133,-693.5"/>
<text text-anchor="middle" x="1203" y="-700.5" font-family="Helvetica,sans-Serif" font-size="10.00" fill="#000000">maliput/api/rules/phase.h</text>
</a>
</g>
</g>
<!-- Node3&#45;&gt;Node6 -->
<g id="edge7" class="edge">
<title>Node3&#45;&gt;Node6</title>
<path fill="none" stroke="#191970" d="M1203,-749.2977C1203,-741.3834 1203,-731.6043 1203,-723.0759"/>
<polygon fill="#191970" stroke="#191970" points="1206.5001,-722.8469 1203,-712.8469 1199.5001,-722.847 1206.5001,-722.8469"/>
</g>
<!-- Node3&#45;&gt;Node16 -->
<g id="edge118" class="edge">
<title>Node3&#45;&gt;Node16</title>
<path fill="none" stroke="#191970" d="M1268.6532,-761.8031C1435.423,-754.7177 1872.3001,-734.6257 2016,-713 2150.6867,-692.7307 2314,-777.7034 2314,-641.5 2314,-641.5 2314,-641.5 2314,-513 2314,-370.8716 2267.0444,-305.5653 2138,-246 2087.2267,-222.5637 2025.4774,-209.6341 1977.1949,-202.5918"/>
<polygon fill="#191970" stroke="#191970" points="1977.4944,-199.0996 1967.1051,-201.1767 1976.5221,-206.0317 1977.4944,-199.0996"/>
</g>
<!-- Node27 -->
<g id="node28" class="node">
<title>Node27</title>
<g id="a_node28"><a xlink:href="type__specific__identifier_8h.html" target="_top" xlink:title="maliput/api/type_specific\l_identifier.h">
<polygon fill="#ffffff" stroke="#000000" points="1032,-369.5 1032,-399.5 1172,-399.5 1172,-369.5 1032,-369.5"/>
<text text-anchor="start" x="1040" y="-387.5" font-family="Helvetica,sans-Serif" font-size="10.00" fill="#000000">maliput/api/type_specific</text>
<text text-anchor="middle" x="1102" y="-376.5" font-family="Helvetica,sans-Serif" font-size="10.00" fill="#000000">_identifier.h</text>
</a>
</g>
</g>
<!-- Node3&#45;&gt;Node27 -->
<g id="edge117" class="edge">
<title>Node3&#45;&gt;Node27</title>
<path fill="none" stroke="#191970" d="M1172.8696,-749.4925C1138.2033,-729.8472 1086,-691.8971 1086,-641.5 1086,-641.5 1086,-641.5 1086,-513 1086,-477.0018 1092.2598,-435.7627 1096.9485,-409.9228"/>
<polygon fill="#191970" stroke="#191970" points="1100.4339,-410.3256 1098.8389,-399.8515 1093.5541,-409.0341 1100.4339,-410.3256"/>
</g>
<!-- Node6&#45;&gt;Node2 -->
<g id="edge8" class="edge">
<title>Node6&#45;&gt;Node2</title>
<path fill="none" stroke="#191970" d="M1273.0459,-700.4943C1415.8147,-694.9728 1736.0025,-680.3605 1843,-657 1925.9909,-638.8808 1965.8223,-653.7171 2022,-590 2102.775,-498.3845 2068.5242,-332.3229 2053.6073,-275.6025"/>
<polygon fill="#191970" stroke="#191970" points="2056.9331,-274.495 2050.9216,-265.7708 2050.1805,-276.3397 2056.9331,-274.495"/>
</g>
<!-- Node6&#45;&gt;Node4 -->
<g id="edge9" class="edge">
<title>Node6&#45;&gt;Node4</title>
<path fill="none" stroke="#191970" d="M1273.2042,-699.1759C1469.5424,-687.5512 2010,-648.804 2010,-574.5 2010,-574.5 2010,-574.5 2010,-513 2010,-474.5001 2010.4544,-429.5137 2010.7506,-404.2809"/>
<polygon fill="#191970" stroke="#191970" points="2014.2516,-404.2135 2010.8733,-394.1717 2007.2521,-404.1284 2014.2516,-404.2135"/>
</g>
<!-- Node7 -->
<g id="node8" class="node">
<title>Node7</title>
<g id="a_node8"><a xlink:href="discrete__value__rule_8h.html" target="_top" xlink:title="maliput/api/rules/discrete\l_value_rule.h">
<polygon fill="#ffffff" stroke="#000000" points="1152.5,-626.5 1152.5,-656.5 1293.5,-656.5 1293.5,-626.5 1152.5,-626.5"/>
<text text-anchor="start" x="1160.5" y="-644.5" font-family="Helvetica,sans-Serif" font-size="10.00" fill="#000000">maliput/api/rules/discrete</text>
<text text-anchor="middle" x="1223" y="-633.5" font-family="Helvetica,sans-Serif" font-size="10.00" fill="#000000">_value_rule.h</text>
</a>
</g>
</g>
<!-- Node6&#45;&gt;Node7 -->
<g id="edge10" class="edge">
<title>Node6&#45;&gt;Node7</title>
<path fill="none" stroke="#191970" d="M1206.125,-693.3906C1208.5059,-686.0692 1211.8947,-675.6488 1215.0115,-666.0647"/>
<polygon fill="#191970" stroke="#191970" points="1218.3432,-667.1368 1218.1074,-656.5446 1211.6863,-664.9719 1218.3432,-667.1368"/>
</g>
<!-- Node6&#45;&gt;Node16 -->
<g id="edge116" class="edge">
<title>Node6&#45;&gt;Node16</title>
<path fill="none" stroke="#191970" d="M1273.0502,-702.4373C1429.721,-700.549 1804.1518,-692.361 1925,-657 2072.5308,-613.8316 2144.4645,-604.09 2214,-467 2263.1059,-370.1872 2202.8506,-302.2394 2110,-246 2069.9326,-221.7313 2019.1337,-208.894 1977.1952,-202.1059"/>
<polygon fill="#191970" stroke="#191970" points="1977.7046,-198.6432 1967.2897,-200.5872 1976.6437,-205.5624 1977.7046,-198.6432"/>
</g>
<!-- Node6&#45;&gt;Node27 -->
<g id="edge115" class="edge">
<title>Node6&#45;&gt;Node27</title>
<path fill="none" stroke="#191970" d="M1184.4665,-693.4185C1170.9304,-685.4647 1153.224,-672.8971 1143,-657 1122.6469,-625.3534 1124,-612.1265 1124,-574.5 1124,-574.5 1124,-574.5 1124,-513 1124,-476.5961 1115.3158,-435.2123 1108.8596,-409.4761"/>
<polygon fill="#191970" stroke="#191970" points="1112.2444,-408.5849 1106.3465,-399.7835 1105.4684,-410.3419 1112.2444,-408.5849"/>
</g>
<!-- Node33 -->
<g id="node34" class="node">
<title>Node33</title>
<g id="a_node34"><a xlink:href="rule_8h.html" target="_top" xlink:title="maliput/api/rules/rule.h">
<polygon fill="#ffffff" stroke="#000000" points="457,-565 457,-584 587,-584 587,-565 457,-565"/>
<text text-anchor="middle" x="522" y="-572" font-family="Helvetica,sans-Serif" font-size="10.00" fill="#000000">maliput/api/rules/rule.h</text>
</a>
</g>
</g>
<!-- Node6&#45;&gt;Node33 -->
<g id="edge113" class="edge">
<title>Node6&#45;&gt;Node33</title>
<path fill="none" stroke="#191970" d="M1132.8267,-694.2107C1069.2285,-685.8835 973.032,-672.3865 890,-657 774.4881,-635.5947 640.1219,-603.6677 570.0743,-586.4829"/>
<polygon fill="#191970" stroke="#191970" points="570.7626,-583.048 560.216,-584.0574 569.0902,-589.8452 570.7626,-583.048"/>
</g>
<!-- Node6&#45;&gt;Node35 -->
<g id="edge91" class="edge">
<title>Node6&#45;&gt;Node35</title>
<path fill="none" stroke="#191970" d="M1181.0464,-693.3722C1161.8573,-684.6699 1133.4722,-671.0961 1110,-657 1078.62,-638.1549 1044.8195,-613.3061 1022.0414,-595.822"/>
<polygon fill="#191970" stroke="#191970" points="1023.9308,-592.8587 1013.8792,-589.5096 1019.6484,-598.396 1023.9308,-592.8587"/>
</g>
<!-- Node36 -->
<g id="node37" class="node">
<title>Node36</title>
<g id="a_node37"><a xlink:href="traffic__lights_8h.html" target="_top" xlink:title="maliput/api/rules/traffic\l_lights.h">
<polygon fill="#ffffff" stroke="#000000" points="844.5,-436.5 844.5,-466.5 975.5,-466.5 975.5,-436.5 844.5,-436.5"/>
<text text-anchor="start" x="852.5" y="-454.5" font-family="Helvetica,sans-Serif" font-size="10.00" fill="#000000">maliput/api/rules/traffic</text>
<text text-anchor="middle" x="910" y="-443.5" font-family="Helvetica,sans-Serif" font-size="10.00" fill="#000000">_lights.h</text>
</a>
</g>
</g>
<!-- Node6&#45;&gt;Node36 -->
<g id="edge114" class="edge">
<title>Node6&#45;&gt;Node36</title>
<path fill="none" stroke="#191970" d="M1132.6919,-696.0259C1066.3924,-685.3286 970.3384,-658.2821 923,-590 899.7157,-556.4141 901.5336,-506.714 905.4418,-476.8778"/>
<polygon fill="#191970" stroke="#191970" points="908.9238,-477.2571 906.9336,-466.8509 902,-476.227 908.9238,-477.2571"/>
</g>
<!-- Node7&#45;&gt;Node5 -->
<g id="edge12" class="edge">
<title>Node7&#45;&gt;Node5</title>
<path fill="none" stroke="#191970" d="M1152.3215,-640.1202C987.1937,-636.3621 580.0921,-623.8581 448,-590 350.9165,-565.1154 306.1958,-555.4138 259,-467 225.0628,-403.4241 225.4007,-314.4484 227.5035,-275.525"/>
<polygon fill="#191970" stroke="#191970" points="230.997,-275.7383 228.1466,-265.5341 224.0114,-275.2886 230.997,-275.7383"/>
</g>
<!-- Node8 -->
<g id="node9" class="node">
<title>Node8</title>
<polygon fill="#ffffff" stroke="#bfbfbf" points="569,-.5 569,-19.5 613,-19.5 613,-.5 569,-.5"/>
<text text-anchor="middle" x="591" y="-7.5" font-family="Helvetica,sans-Serif" font-size="10.00" fill="#000000">string</text>
</g>
<!-- Node7&#45;&gt;Node8 -->
<g id="edge11" class="edge">
<title>Node7&#45;&gt;Node8</title>
<path fill="none" stroke="#191970" d="M1293.8763,-639.8595C1399.6455,-636.296 1604.6023,-625.079 1775,-590 2072.7331,-528.7071 2333,-498.4767 2333,-194.5 2333,-194.5 2333,-194.5 2333,-133 2333,-43.795 860.2945,-14.6457 623.0776,-10.5291"/>
<polygon fill="#191970" stroke="#191970" points="623.0838,-7.0288 613.0253,-10.3569 622.9639,-14.0278 623.0838,-7.0288"/>
</g>
<!-- Node9 -->
<g id="node10" class="node">
<title>Node9</title>
<g id="a_node10"><a xlink:href="regions_8h.html" target="_top" xlink:title="maliput/api/regions.h">
<polygon fill="#ffffff" stroke="#000000" points="1155,-503.5 1155,-522.5 1275,-522.5 1275,-503.5 1155,-503.5"/>
<text text-anchor="middle" x="1215" y="-510.5" font-family="Helvetica,sans-Serif" font-size="10.00" fill="#000000">maliput/api/regions.h</text>
</a>
</g>
</g>
<!-- Node7&#45;&gt;Node9 -->
<g id="edge13" class="edge">
<title>Node7&#45;&gt;Node9</title>
<path fill="none" stroke="#191970" d="M1222.0509,-626.2548C1220.6015,-602.9744 1217.8365,-558.5607 1216.2334,-532.8117"/>
<polygon fill="#191970" stroke="#191970" points="1219.7208,-532.499 1215.6061,-522.7358 1212.7343,-532.934 1219.7208,-532.499"/>
</g>
<!-- Node7&#45;&gt;Node16 -->
<g id="edge90" class="edge">
<title>Node7&#45;&gt;Node16</title>
<path fill="none" stroke="#191970" d="M1293.6854,-638.846C1424.8808,-631.974 1713.2307,-607.6751 1939,-523 2036.3535,-486.4875 2087.3696,-490.8153 2138,-400 2173.2474,-336.7771 2142.7875,-289.5902 2085,-246 2067.5801,-232.8599 2020.0061,-219.8901 1977.0773,-210.2532"/>
<polygon fill="#191970" stroke="#191970" points="1977.6656,-206.7989 1967.1465,-208.0634 1976.1582,-213.6347 1977.6656,-206.7989"/>
</g>
<!-- Node7&#45;&gt;Node33 -->
<g id="edge77" class="edge">
<title>Node7&#45;&gt;Node33</title>
<path fill="none" stroke="#191970" d="M1152.2516,-634.738C1019.4382,-622.044 733.9123,-594.7541 597.527,-581.7187"/>
<polygon fill="#191970" stroke="#191970" points="597.4643,-578.1968 587.1766,-580.7294 596.7982,-585.1651 597.4643,-578.1968"/>
</g>
<!-- Node9&#45;&gt;Node2 -->
<g id="edge16" class="edge">
<title>Node9&#45;&gt;Node2</title>
<path fill="none" stroke="#191970" d="M1275.0136,-510.3077C1414.1217,-503.7755 1750.3911,-486.2036 1798,-467 1905.1994,-423.7598 1999.9605,-315.9109 2034.3055,-273.5127"/>
<polygon fill="#191970" stroke="#191970" points="2037.1946,-275.5037 2040.7001,-265.5056 2031.7248,-271.1354 2037.1946,-275.5037"/>
</g>
<!-- Node9&#45;&gt;Node5 -->
<g id="edge17" class="edge">
<title>Node9&#45;&gt;Node5</title>
<path fill="none" stroke="#191970" d="M1154.8985,-507.521C995.618,-492.4949 565.7104,-448.5118 432,-400 376.7544,-379.9562 365.7528,-367.2563 318,-333 303.7942,-322.8092 268.8079,-291.8326 247.1733,-272.4151"/>
<polygon fill="#191970" stroke="#191970" points="249.3813,-269.6936 239.6065,-265.6066 244.6991,-274.8972 249.3813,-269.6936"/>
</g>
<!-- Node10 -->
<g id="node11" class="node">
<title>Node10</title>
<polygon fill="#ffffff" stroke="#bfbfbf" points="1161.5,-185 1161.5,-204 1208.5,-204 1208.5,-185 1161.5,-185"/>
<text text-anchor="middle" x="1185" y="-192" font-family="Helvetica,sans-Serif" font-size="10.00" fill="#000000">cmath</text>
</g>
<!-- Node9&#45;&gt;Node10 -->
<g id="edge14" class="edge">
<title>Node9&#45;&gt;Node10</title>
<path fill="none" stroke="#191970" d="M1214.1022,-503.4679C1209.9623,-459.5164 1192.6717,-275.9478 1186.8913,-214.5797"/>
<polygon fill="#191970" stroke="#191970" points="1190.3462,-213.9349 1185.9238,-204.3072 1183.377,-214.5914 1190.3462,-213.9349"/>
</g>
<!-- Node11 -->
<g id="node12" class="node">
<title>Node11</title>
<polygon fill="#ffffff" stroke="#bfbfbf" points="1352,-442 1352,-461 1408,-461 1408,-442 1352,-442"/>
<text text-anchor="middle" x="1380" y="-449" font-family="Helvetica,sans-Serif" font-size="10.00" fill="#000000">numeric</text>
</g>
<!-- Node9&#45;&gt;Node11 -->
<g id="edge15" class="edge">
<title>Node9&#45;&gt;Node11</title>
<path fill="none" stroke="#191970" d="M1242.3678,-503.4416C1268.1673,-494.3472 1307.8588,-480.1401 1342,-467 1343.6457,-466.3666 1345.3284,-465.7108 1347.0256,-465.0428"/>
<polygon fill="#191970" stroke="#191970" points="1348.7609,-468.1184 1356.7466,-461.1557 1346.1619,-461.6188 1348.7609,-468.1184"/>
</g>
<!-- Node12 -->
<g id="node13" class="node">
<title>Node12</title>
<g id="a_node13"><a xlink:href="api_2lane_8h.html" target="_top" xlink:title="maliput/api/lane.h">
<polygon fill="#ffffff" stroke="#000000" points="1228.5,-442 1228.5,-461 1333.5,-461 1333.5,-442 1228.5,-442"/>
<text text-anchor="middle" x="1281" y="-449" font-family="Helvetica,sans-Serif" font-size="10.00" fill="#000000">maliput/api/lane.h</text>
</a>
</g>
</g>
<!-- Node9&#45;&gt;Node12 -->
<g id="edge18" class="edge">
<title>Node9&#45;&gt;Node12</title>
<path fill="none" stroke="#191970" d="M1225.3125,-503.3906C1235.4242,-493.9683 1251.0442,-479.4134 1263.1707,-468.1137"/>
<polygon fill="#191970" stroke="#191970" points="1265.612,-470.6228 1270.5421,-461.2449 1260.8399,-465.5015 1265.612,-470.6228"/>
</g>
<!-- Node9&#45;&gt;Node16 -->
<g id="edge76" class="edge">
<title>Node9&#45;&gt;Node16</title>
<path fill="none" stroke="#191970" d="M1275.1722,-508.033C1373.0837,-498.1415 1571.2004,-470.5034 1723,-400 1802.2889,-363.1742 1821.5482,-340.6793 1867,-266 1875.9545,-251.2873 1883.452,-233.4213 1888.712,-219.2289"/>
<polygon fill="#191970" stroke="#191970" points="1892.0687,-220.2363 1892.1356,-209.6416 1885.4764,-217.8821 1892.0687,-220.2363"/>
</g>
<!-- Node9&#45;&gt;Node27 -->
<g id="edge75" class="edge">
<title>Node9&#45;&gt;Node27</title>
<path fill="none" stroke="#191970" d="M1206.5066,-503.3416C1188.7547,-483.1547 1147.2985,-436.012 1122.2632,-407.5427"/>
<polygon fill="#191970" stroke="#191970" points="1124.5999,-404.8998 1115.368,-399.7016 1119.3433,-409.5224 1124.5999,-404.8998"/>
</g>
<!-- Node12&#45;&gt;Node1 -->
<g id="edge19" class="edge">
<title>Node12&#45;&gt;Node1</title>
<path fill="none" stroke="#191970" d="M1228.1577,-448.4505C1110.6665,-441.3504 830.9038,-422.5892 739,-400 736.3665,-399.3527 733.676,-398.5552 731.0038,-397.6666"/>
<polygon fill="#191970" stroke="#191970" points="732.1331,-394.3525 721.5402,-394.1541 729.6974,-400.9151 732.1331,-394.3525"/>
</g>
<!-- Node12&#45;&gt;Node2 -->
<g id="edge20" class="edge">
<title>Node12&#45;&gt;Node2</title>
<path fill="none" stroke="#191970" d="M1314.9058,-441.9912C1323.9723,-439.7326 1333.8075,-437.5359 1343,-436 1526.4794,-405.3448 1580.9611,-450.4929 1760,-400 1865.4202,-370.2692 1978.1799,-301.6928 2025.288,-271.1508"/>
<polygon fill="#191970" stroke="#191970" points="2027.3616,-273.9767 2033.8127,-265.5722 2023.5286,-268.1193 2027.3616,-273.9767"/>
</g>
<!-- Node12&#45;&gt;Node8 -->
<g id="edge21" class="edge">
<title>Node12&#45;&gt;Node8</title>
<path fill="none" stroke="#191970" d="M1304.7596,-441.9926C1330.1447,-431.7871 1371.5268,-415.0138 1407,-400 1543.286,-342.3179 1669,-342.4902 1669,-194.5 1669,-194.5 1669,-194.5 1669,-133 1669,-94.6385 1662.2321,-76.8013 1630,-56 1586.696,-28.0534 793.9469,-13.3629 623.2222,-10.5158"/>
<polygon fill="#191970" stroke="#191970" points="623.1662,-7.0145 613.1098,-10.349 623.0506,-14.0136 623.1662,-7.0145"/>
</g>
<!-- Node13 -->
<g id="node14" class="node">
<title>Node13</title>
<g id="a_node14"><a xlink:href="lane__data_8h.html" target="_top" xlink:title="maliput/api/lane_data.h">
<polygon fill="#ffffff" stroke="#000000" points="1266,-375 1266,-394 1398,-394 1398,-375 1266,-375"/>
<text text-anchor="middle" x="1332" y="-382" font-family="Helvetica,sans-Serif" font-size="10.00" fill="#000000">maliput/api/lane_data.h</text>
</a>
</g>
</g>
<!-- Node12&#45;&gt;Node13 -->
<g id="edge22" class="edge">
<title>Node12&#45;&gt;Node13</title>
<path fill="none" stroke="#191970" d="M1288.3071,-441.9005C1296.1843,-431.552 1308.8946,-414.8542 1318.5806,-402.1295"/>
<polygon fill="#191970" stroke="#191970" points="1321.4346,-404.1586 1324.7065,-394.0817 1315.8646,-399.9188 1321.4346,-404.1586"/>
</g>
<!-- Node12&#45;&gt;Node16 -->
<g id="edge73" class="edge">
<title>Node12&#45;&gt;Node16</title>
<path fill="none" stroke="#191970" d="M1315.5751,-441.9485C1324.4602,-439.7446 1334.0411,-437.5848 1343,-436 1493.068,-409.4542 1544.5691,-461.5151 1684,-400 1775.0122,-359.8466 1850.1827,-262.9025 1881.4235,-218.0237"/>
<polygon fill="#191970" stroke="#191970" points="1884.311,-220.0016 1887.0776,-209.7744 1878.5371,-216.0441 1884.311,-220.0016"/>
</g>
<!-- Node17 -->
<g id="node18" class="node">
<title>Node17</title>
<g id="a_node18"><a xlink:href="maliput__throw_8h.html" target="_top" xlink:title="Code in this file is inspired by: https://github.com/RobotLocomotion/drake/blob/master/common/drake_t...">
<polygon fill="#ffffff" stroke="#000000" points="423,-56.5 423,-86.5 563,-86.5 563,-56.5 423,-56.5"/>
<text text-anchor="start" x="431" y="-74.5" font-family="Helvetica,sans-Serif" font-size="10.00" fill="#000000">maliput/common/maliput</text>
<text text-anchor="middle" x="493" y="-63.5" font-family="Helvetica,sans-Serif" font-size="10.00" fill="#000000">_throw.h</text>
</a>
</g>
</g>
<!-- Node12&#45;&gt;Node17 -->
<g id="edge74" class="edge">
<title>Node12&#45;&gt;Node17</title>
<path fill="none" stroke="#191970" d="M1273.1388,-441.9035C1257.6853,-423.8377 1221.3259,-385.1459 1181,-369 974.1652,-286.1865 883.6417,-425.6017 681,-333 578.7848,-286.2905 521.1865,-151.7346 501.1525,-96.0641"/>
<polygon fill="#191970" stroke="#191970" points="504.4557,-94.9069 497.8465,-86.6262 497.8493,-97.2211 504.4557,-94.9069"/>
</g>
<!-- Node12&#45;&gt;Node27 -->
<g id="edge54" class="edge">
<title>Node12&#45;&gt;Node27</title>
<path fill="none" stroke="#191970" d="M1255.3537,-441.9005C1228.4303,-431.8231 1185.4211,-415.7247 1151.7927,-403.1375"/>
<polygon fill="#191970" stroke="#191970" points="1152.7252,-399.7494 1142.1328,-399.5218 1150.2713,-406.3052 1152.7252,-399.7494"/>
</g>
<!-- Node13&#45;&gt;Node8 -->
<g id="edge25" class="edge">
<title>Node13&#45;&gt;Node8</title>
<path fill="none" stroke="#191970" d="M1317.5715,-374.7121C1290.9956,-355.3905 1237,-309.5454 1237,-256 1237,-256 1237,-256 1237,-133 1237,-27.3063 1115.1628,-78.9913 1012,-56 869.3355,-24.2052 694.3704,-14.0516 623.2995,-11.1014"/>
<polygon fill="#191970" stroke="#191970" points="623.3246,-7.5998 613.1941,-10.7021 623.0481,-14.5943 623.3246,-7.5998"/>
</g>
<!-- Node14 -->
<g id="node15" class="node">
<title>Node14</title>
<polygon fill="#ffffff" stroke="#bfbfbf" points="1105.5,-246.5 1105.5,-265.5 1170.5,-265.5 1170.5,-246.5 1105.5,-246.5"/>
<text text-anchor="middle" x="1138" y="-253.5" font-family="Helvetica,sans-Serif" font-size="10.00" fill="#000000">functional</text>
</g>
<!-- Node13&#45;&gt;Node14 -->
<g id="edge23" class="edge">
<title>Node13&#45;&gt;Node14</title>
<path fill="none" stroke="#191970" d="M1306.197,-374.8336C1283.3639,-365.7043 1249.6312,-350.7818 1223,-333 1196.5306,-315.3263 1169.9774,-289.7037 1153.7644,-272.949"/>
<polygon fill="#191970" stroke="#191970" points="1156.112,-270.3389 1146.6816,-265.51 1151.0423,-275.1658 1156.112,-270.3389"/>
</g>
<!-- Node15 -->
<g id="node16" class="node">
<title>Node15</title>
<polygon fill="#ffffff" stroke="#bfbfbf" points="1277.5,-185 1277.5,-204 1334.5,-204 1334.5,-185 1277.5,-185"/>
<text text-anchor="middle" x="1306" y="-192" font-family="Helvetica,sans-Serif" font-size="10.00" fill="#000000">ostream</text>
</g>
<!-- Node13&#45;&gt;Node15 -->
<g id="edge24" class="edge">
<title>Node13&#45;&gt;Node15</title>
<path fill="none" stroke="#191970" d="M1326.6991,-374.9628C1314.9663,-352.7748 1288.276,-295.7889 1294,-246 1295.2342,-235.265 1297.8702,-223.5145 1300.3581,-213.9517"/>
<polygon fill="#191970" stroke="#191970" points="1303.7477,-214.8252 1303.0215,-204.2553 1296.9977,-212.9711 1303.7477,-214.8252"/>
</g>
<!-- Node13&#45;&gt;Node16 -->
<g id="edge26" class="edge">
<title>Node13&#45;&gt;Node16</title>
<path fill="none" stroke="#191970" d="M1398.2851,-378.4631C1485.206,-369.9149 1632.5705,-353.0689 1683,-333 1698.6379,-326.7768 1792.792,-255.0224 1807,-246 1824.1821,-235.0889 1843.7422,-223.7703 1860.2284,-214.5323"/>
<polygon fill="#191970" stroke="#191970" points="1862.0008,-217.5515 1869.0365,-209.63 1858.5965,-211.435 1862.0008,-217.5515"/>
</g>
<!-- Node13&#45;&gt;Node17 -->
<g id="edge27" class="edge">
<title>Node13&#45;&gt;Node17</title>
<path fill="none" stroke="#191970" d="M1287.7173,-374.9885C1276.1364,-372.7573 1263.6361,-370.5744 1252,-369 1047.4649,-341.3254 989.5158,-381.9276 789,-333 714.8991,-314.9187 690.4343,-313.8063 631,-266 626.9769,-262.764 545.3997,-146.4273 509.5999,-95.2517"/>
<polygon fill="#191970" stroke="#191970" points="512.2725,-92.9661 503.6733,-86.777 506.5361,-96.9778 512.2725,-92.9661"/>
</g>
<!-- Node18 -->
<g id="node19" class="node">
<title>Node18</title>
<g id="a_node19"><a xlink:href="matrix_8h.html" target="_top" xlink:title="maliput/math/matrix.h">
<polygon fill="#ffffff" stroke="#000000" points="1513.5,-185 1513.5,-204 1640.5,-204 1640.5,-185 1513.5,-185"/>
<text text-anchor="middle" x="1577" y="-192" font-family="Helvetica,sans-Serif" font-size="10.00" fill="#000000">maliput/math/matrix.h</text>
</a>
</g>
</g>
<!-- Node13&#45;&gt;Node18 -->
<g id="edge29" class="edge">
<title>Node13&#45;&gt;Node18</title>
<path fill="none" stroke="#191970" d="M1397.7042,-374.9668C1449.1951,-366.23 1515.3121,-351.8028 1535,-333 1568.1915,-301.3006 1575.4,-244.3241 1576.8062,-214.2816"/>
<polygon fill="#191970" stroke="#191970" points="1580.3072,-214.2938 1577.1031,-204.1951 1573.3103,-214.0878 1580.3072,-214.2938"/>
</g>
<!-- Node24 -->
<g id="node25" class="node">
<title>Node24</title>
<g id="a_node25"><a xlink:href="vector_8h.html" target="_top" xlink:title="maliput/math/vector.h">
<polygon fill="#ffffff" stroke="#000000" points="1309.5,-123.5 1309.5,-142.5 1434.5,-142.5 1434.5,-123.5 1309.5,-123.5"/>
<text text-anchor="middle" x="1372" y="-130.5" font-family="Helvetica,sans-Serif" font-size="10.00" fill="#000000">maliput/math/vector.h</text>
</a>
</g>
</g>
<!-- Node13&#45;&gt;Node24 -->
<g id="edge53" class="edge">
<title>Node13&#45;&gt;Node24</title>
<path fill="none" stroke="#191970" d="M1336.1827,-374.9122C1343.8874,-358.1937 1361.7768,-323.4474 1386,-302 1413.0845,-278.0193 1439.8971,-296.7201 1459,-266 1485.75,-222.9824 1429.3857,-173.2611 1395.3619,-148.5764"/>
<polygon fill="#191970" stroke="#191970" points="1397.0421,-145.4787 1386.8511,-142.5812 1393.0109,-151.2014 1397.0421,-145.4787"/>
</g>
<!-- Node25 -->
<g id="node26" class="node">
<title>Node25</title>
<g id="a_node26"><a xlink:href="quaternion_8h.html" target="_top" xlink:title="Code in this file is inspired by: https://gitlab.com/libeigen/eigen/&#45;/blob/master/Eigen/src/Geometry/...">
<polygon fill="#ffffff" stroke="#000000" points="1303.5,-246.5 1303.5,-265.5 1450.5,-265.5 1450.5,-246.5 1303.5,-246.5"/>
<text text-anchor="middle" x="1377" y="-253.5" font-family="Helvetica,sans-Serif" font-size="10.00" fill="#000000">maliput/math/quaternion.h</text>
</a>
</g>
</g>
<!-- Node13&#45;&gt;Node25 -->
<g id="edge42" class="edge">
<title>Node13&#45;&gt;Node25</title>
<path fill="none" stroke="#191970" d="M1333.7451,-374.6213C1336.6901,-358.9085 1343.2912,-327.4024 1353,-302 1356.6058,-292.5657 1361.657,-282.5713 1366.1958,-274.3172"/>
<polygon fill="#191970" stroke="#191970" points="1369.2719,-275.9881 1371.1712,-265.5649 1363.1864,-272.5287 1369.2719,-275.9881"/>
</g>
<!-- Node26 -->
<g id="node27" class="node">
<title>Node26</title>
<g id="a_node27"><a xlink:href="roll__pitch__yaw_8h.html" target="_top" xlink:title="Code in this file is inspired by: https://github.com/RobotLocomotion/drake/blob/master/math/roll_pitc...">
<polygon fill="#ffffff" stroke="#000000" points="1395.5,-302.5 1395.5,-332.5 1526.5,-332.5 1526.5,-302.5 1395.5,-302.5"/>
<text text-anchor="start" x="1403.5" y="-320.5" font-family="Helvetica,sans-Serif" font-size="10.00" fill="#000000">maliput/math/roll_pitch</text>
<text text-anchor="middle" x="1461" y="-309.5" font-family="Helvetica,sans-Serif" font-size="10.00" fill="#000000">_yaw.h</text>
</a>
</g>
</g>
<!-- Node13&#45;&gt;Node26 -->
<g id="edge48" class="edge">
<title>Node13&#45;&gt;Node26</title>
<path fill="none" stroke="#191970" d="M1350.4826,-374.9005C1369.3025,-365.1258 1399.0289,-349.6865 1422.9138,-337.2812"/>
<polygon fill="#191970" stroke="#191970" points="1424.8163,-340.2371 1432.0775,-332.5218 1421.5898,-334.025 1424.8163,-340.2371"/>
</g>
<!-- Node17&#45;&gt;Node8 -->
<g id="edge28" class="edge">
<title>Node17&#45;&gt;Node8</title>
<path fill="none" stroke="#191970" d="M516.9735,-56.4554C532.1776,-46.9141 551.7759,-34.6151 566.9875,-25.0691"/>
<polygon fill="#191970" stroke="#191970" points="569.2037,-27.8105 575.8135,-19.5303 565.4828,-21.8813 569.2037,-27.8105"/>
</g>
<!-- Node19 -->
<g id="node20" class="node">
<title>Node19</title>
<polygon fill="#ffffff" stroke="#bfbfbf" points="939,-62 939,-81 1003,-81 1003,-62 939,-62"/>
<text text-anchor="middle" x="971" y="-69" font-family="Helvetica,sans-Serif" font-size="10.00" fill="#000000">algorithm</text>
</g>
<!-- Node18&#45;&gt;Node19 -->
<g id="edge30" class="edge">
<title>Node18&#45;&gt;Node19</title>
<path fill="none" stroke="#191970" d="M1557.6604,-184.9441C1537.3927,-174.8358 1504.7073,-158.2682 1477,-143 1461.6453,-134.5388 1459.6405,-128.5182 1443,-123 1363.6549,-96.6881 1113.7622,-79.7422 1013.3677,-73.8374"/>
<polygon fill="#191970" stroke="#191970" points="1013.471,-70.3376 1003.2849,-73.252 1013.0652,-77.3258 1013.471,-70.3376"/>
</g>
<!-- Node20 -->
<g id="node21" class="node">
<title>Node20</title>
<polygon fill="#ffffff" stroke="#bfbfbf" points="1467,-62 1467,-81 1509,-81 1509,-62 1467,-62"/>
<text text-anchor="middle" x="1488" y="-69" font-family="Helvetica,sans-Serif" font-size="10.00" fill="#000000">array</text>
</g>
<!-- Node18&#45;&gt;Node20 -->
<g id="edge31" class="edge">
<title>Node18&#45;&gt;Node20</title>
<path fill="none" stroke="#191970" d="M1575.5767,-184.9193C1573.0489,-170.4126 1566.6969,-142.5013 1553,-123 1542.6142,-108.2129 1526.7886,-95.5465 1513.3535,-86.4756"/>
<polygon fill="#191970" stroke="#191970" points="1515.25,-83.534 1504.951,-81.0477 1511.4517,-89.4139 1515.25,-83.534"/>
</g>
<!-- Node21 -->
<g id="node22" class="node">
<title>Node21</title>
<polygon fill="#ffffff" stroke="#bfbfbf" points="1307.5,-62 1307.5,-81 1360.5,-81 1360.5,-62 1307.5,-62"/>
<text text-anchor="middle" x="1334" y="-69" font-family="Helvetica,sans-Serif" font-size="10.00" fill="#000000">cstddef</text>
</g>
<!-- Node18&#45;&gt;Node21 -->
<g id="edge32" class="edge">
<title>Node18&#45;&gt;Node21</title>
<path fill="none" stroke="#191970" d="M1566.0163,-184.9564C1548.3278,-169.9929 1511.9648,-140.8771 1477,-123 1432.3256,-100.1585 1416.8596,-104.9361 1370,-87 1368.3834,-86.3812 1366.7327,-85.7324 1365.0705,-85.0656"/>
<polygon fill="#191970" stroke="#191970" points="1366.1622,-81.7294 1355.5841,-81.134 1363.4821,-88.196 1366.1622,-81.7294"/>
</g>
<!-- Node22 -->
<g id="node23" class="node">
<title>Node22</title>
<polygon fill="#ffffff" stroke="#bfbfbf" points="1537.5,-62 1537.5,-81 1620.5,-81 1620.5,-62 1537.5,-62"/>
<text text-anchor="middle" x="1579" y="-69" font-family="Helvetica,sans-Serif" font-size="10.00" fill="#000000">initializer_list</text>
</g>
<!-- Node18&#45;&gt;Node22 -->
<g id="edge33" class="edge">
<title>Node18&#45;&gt;Node22</title>
<path fill="none" stroke="#191970" d="M1580.4731,-184.7863C1583.935,-174.5493 1589.0138,-157.878 1591,-143 1593.3625,-125.3034 1589.423,-105.2668 1585.4397,-90.9161"/>
<polygon fill="#191970" stroke="#191970" points="1588.7398,-89.7376 1582.4889,-81.1833 1582.041,-91.7687 1588.7398,-89.7376"/>
</g>
<!-- Node23 -->
<g id="node24" class="node">
<title>Node23</title>
<polygon fill="#ffffff" stroke="#bfbfbf" points="1379,-62 1379,-81 1439,-81 1439,-62 1379,-62"/>
<text text-anchor="middle" x="1409" y="-69" font-family="Helvetica,sans-Serif" font-size="10.00" fill="#000000">iostream</text>
</g>
<!-- Node18&#45;&gt;Node23 -->
<g id="edge34" class="edge">
<title>Node18&#45;&gt;Node23</title>
<path fill="none" stroke="#191970" d="M1570.4008,-184.5932C1560.0535,-169.6604 1538.7262,-141.2002 1515,-123 1493.8835,-106.8017 1466.8589,-93.7682 1445.3821,-84.8655"/>
<polygon fill="#191970" stroke="#191970" points="1446.5297,-81.5546 1435.946,-81.0692 1443.917,-88.0488 1446.5297,-81.5546"/>
</g>
<!-- Node18&#45;&gt;Node24 -->
<g id="edge35" class="edge">
<title>Node18&#45;&gt;Node24</title>
<path fill="none" stroke="#191970" d="M1544.9688,-184.8906C1509.6154,-174.2846 1452.5843,-157.1753 1413.7522,-145.5257"/>
<polygon fill="#191970" stroke="#191970" points="1414.3903,-142.0631 1403.8063,-142.5419 1412.3788,-148.7678 1414.3903,-142.0631"/>
</g>
<!-- Node24&#45;&gt;Node17 -->
<g id="edge41" class="edge">
<title>Node24&#45;&gt;Node17</title>
<path fill="none" stroke="#191970" d="M1309.4892,-128.6264C1153.3589,-117.7026 746.4565,-89.2333 573.1003,-77.1043"/>
<polygon fill="#191970" stroke="#191970" points="573.2421,-73.6057 563.0222,-76.3992 572.7535,-80.5887 573.2421,-73.6057"/>
</g>
<!-- Node24&#45;&gt;Node19 -->
<g id="edge36" class="edge">
<title>Node24&#45;&gt;Node19</title>
<path fill="none" stroke="#191970" d="M1309.7837,-123.4581C1227.2765,-110.8043 1083.8563,-88.8084 1013.0374,-77.9471"/>
<polygon fill="#191970" stroke="#191970" points="1013.5464,-74.4844 1003.1314,-76.4279 1012.4852,-81.4035 1013.5464,-74.4844"/>
</g>
<!-- Node24&#45;&gt;Node20 -->
<g id="edge37" class="edge">
<title>Node24&#45;&gt;Node20</title>
<path fill="none" stroke="#191970" d="M1390.125,-123.3906C1409.1083,-113.3262 1439.1373,-97.4057 1460.9307,-85.8514"/>
<polygon fill="#191970" stroke="#191970" points="1462.8066,-88.8184 1470.0023,-81.0419 1459.5277,-82.6338 1462.8066,-88.8184"/>
</g>
<!-- Node24&#45;&gt;Node21 -->
<g id="edge38" class="edge">
<title>Node24&#45;&gt;Node21</title>
<path fill="none" stroke="#191970" d="M1366.0625,-123.3906C1360.5733,-114.5068 1352.2647,-101.0601 1345.481,-90.0811"/>
<polygon fill="#191970" stroke="#191970" points="1348.2551,-87.9122 1340.0212,-81.2449 1342.3002,-91.5917 1348.2551,-87.9122"/>
</g>
<!-- Node24&#45;&gt;Node22 -->
<g id="edge39" class="edge">
<title>Node24&#45;&gt;Node22</title>
<path fill="none" stroke="#191970" d="M1404.3438,-123.3906C1440.118,-112.7621 1497.8747,-95.6025 1537.0905,-83.9514"/>
<polygon fill="#191970" stroke="#191970" points="1538.2943,-87.245 1546.8834,-81.0419 1536.3007,-80.5349 1538.2943,-87.245"/>
</g>
<!-- Node24&#45;&gt;Node23 -->
<g id="edge40" class="edge">
<title>Node24&#45;&gt;Node23</title>
<path fill="none" stroke="#191970" d="M1377.7813,-123.3906C1383.126,-114.5068 1391.2159,-101.0601 1397.8211,-90.0811"/>
<polygon fill="#191970" stroke="#191970" points="1400.9811,-91.618 1403.1372,-81.2449 1394.9829,-88.0093 1400.9811,-91.618"/>
</g>
<!-- Node25&#45;&gt;Node10 -->
<g id="edge43" class="edge">
<title>Node25&#45;&gt;Node10</title>
<path fill="none" stroke="#191970" d="M1347,-246.3906C1312.1014,-235.2122 1254.6488,-216.8094 1218.3702,-205.1889"/>
<polygon fill="#191970" stroke="#191970" points="1219.3266,-201.8201 1208.7355,-202.1028 1217.1912,-208.4865 1219.3266,-201.8201"/>
</g>
<!-- Node25&#45;&gt;Node15 -->
<g id="edge44" class="edge">
<title>Node25&#45;&gt;Node15</title>
<path fill="none" stroke="#191970" d="M1365.9063,-246.3906C1355.0285,-236.9683 1338.2252,-222.4134 1325.18,-211.1137"/>
<polygon fill="#191970" stroke="#191970" points="1327.1004,-208.1466 1317.2502,-204.2449 1322.5173,-213.4377 1327.1004,-208.1466"/>
</g>
<!-- Node25&#45;&gt;Node16 -->
<g id="edge45" class="edge">
<title>Node25&#45;&gt;Node16</title>
<path fill="none" stroke="#191970" d="M1450.6756,-247.2864C1547.5133,-235.8335 1717.0005,-215.7884 1816.9226,-203.9707"/>
<polygon fill="#191970" stroke="#191970" points="1817.446,-207.4333 1826.9657,-202.7829 1816.6238,-200.4817 1817.446,-207.4333"/>
</g>
<!-- Node25&#45;&gt;Node18 -->
<g id="edge46" class="edge">
<title>Node25&#45;&gt;Node18</title>
<path fill="none" stroke="#191970" d="M1408.25,-246.3906C1442.7411,-235.7846 1498.3812,-218.6753 1536.2662,-207.0257"/>
<polygon fill="#191970" stroke="#191970" points="1537.4399,-210.3266 1545.9694,-204.0419 1535.3824,-203.6357 1537.4399,-210.3266"/>
</g>
<!-- Node25&#45;&gt;Node24 -->
<g id="edge47" class="edge">
<title>Node25&#45;&gt;Node24</title>
<path fill="none" stroke="#191970" d="M1376.6077,-246.3484C1375.7898,-226.2295 1373.8887,-179.4608 1372.8012,-152.7098"/>
<polygon fill="#191970" stroke="#191970" points="1376.2939,-152.4563 1372.3905,-142.6068 1369.2997,-152.7407 1376.2939,-152.4563"/>
</g>
<!-- Node26&#45;&gt;Node16 -->
<g id="edge49" class="edge">
<title>Node26&#45;&gt;Node16</title>
<path fill="none" stroke="#191970" d="M1507.4496,-302.4101C1554.1379,-287.4259 1628.2669,-264.1329 1693,-246 1736.1052,-233.9254 1784.6895,-221.6095 1823.6292,-212.0503"/>
<polygon fill="#191970" stroke="#191970" points="1824.9446,-215.3318 1833.8265,-209.5558 1823.2812,-208.5322 1824.9446,-215.3318"/>
</g>
<!-- Node26&#45;&gt;Node18 -->
<g id="edge50" class="edge">
<title>Node26&#45;&gt;Node18</title>
<path fill="none" stroke="#191970" d="M1486.0839,-302.3072C1500.2785,-292.9513 1517.7785,-280.0763 1531,-266 1546.0869,-249.9377 1559.2219,-228.2922 1567.5504,-213.0386"/>
<polygon fill="#191970" stroke="#191970" points="1570.7175,-214.5365 1572.3015,-204.0608 1564.5304,-211.2623 1570.7175,-214.5365"/>
</g>
<!-- Node26&#45;&gt;Node24 -->
<g id="edge52" class="edge">
<title>Node26&#45;&gt;Node24</title>
<path fill="none" stroke="#191970" d="M1473.5664,-302.3612C1480.7983,-292.6361 1489.1869,-279.3614 1493,-266 1504.306,-226.3824 1489.6704,-208.587 1461,-179 1447.2394,-164.7995 1428.1484,-154.1397 1411.1752,-146.6763"/>
<polygon fill="#191970" stroke="#191970" points="1412.0602,-143.254 1401.4826,-142.6488 1409.3741,-149.7181 1412.0602,-143.254"/>
</g>
<!-- Node26&#45;&gt;Node25 -->
<g id="edge51" class="edge">
<title>Node26&#45;&gt;Node25</title>
<path fill="none" stroke="#191970" d="M1440.2359,-302.2977C1427.6042,-293.0495 1411.4947,-281.2551 1398.6969,-271.8853"/>
<polygon fill="#191970" stroke="#191970" points="1400.5857,-268.9303 1390.4495,-265.8469 1396.4505,-274.5784 1400.5857,-268.9303"/>
</g>
<!-- Node27&#45;&gt;Node8 -->
<g id="edge56" class="edge">
<title>Node27&#45;&gt;Node8</title>
<path fill="none" stroke="#191970" d="M1031.6988,-377.2545C912.7557,-363.3865 679.9379,-328.7491 631,-266 575.0303,-194.2346 582.5436,-76.0091 588.1557,-29.5823"/>
<polygon fill="#191970" stroke="#191970" points="591.6308,-30.0008 589.4685,-19.629 584.6909,-29.0854 591.6308,-30.0008"/>
</g>
<!-- Node27&#45;&gt;Node14 -->
<g id="edge55" class="edge">
<title>Node27&#45;&gt;Node14</title>
<path fill="none" stroke="#191970" d="M1106.271,-369.2548C1112.8224,-345.87 1125.3476,-301.1619 1132.5464,-275.4665"/>
<polygon fill="#191970" stroke="#191970" points="1135.9449,-276.3093 1135.2725,-265.7358 1129.2045,-274.4208 1135.9449,-276.3093"/>
</g>
<!-- Node27&#45;&gt;Node16 -->
<g id="edge58" class="edge">
<title>Node27&#45;&gt;Node16</title>
<path fill="none" stroke="#191970" d="M1172.3991,-377.2765C1298.1573,-364.2969 1550.1045,-337.9193 1569,-333 1572.6659,-332.0456 1763.188,-251.2807 1852.1391,-213.5403"/>
<polygon fill="#191970" stroke="#191970" points="1853.6055,-216.7202 1861.444,-209.5921 1850.8712,-210.2762 1853.6055,-216.7202"/>
</g>
<!-- Node27&#45;&gt;Node17 -->
<g id="edge72" class="edge">
<title>Node27&#45;&gt;Node17</title>
<path fill="none" stroke="#191970" d="M1031.8807,-378.3583C897.285,-366.4349 614.1632,-340.651 594,-333 570.1855,-323.9635 513.0728,-288.4285 501,-266 471.6432,-211.4615 480.2192,-135.3281 487.4617,-96.4706"/>
<polygon fill="#191970" stroke="#191970" points="490.9171,-97.039 489.4364,-86.5482 484.0517,-95.6726 490.9171,-97.039"/>
</g>
<!-- Node28 -->
<g id="node29" class="node">
<title>Node28</title>
<polygon fill="#ffffff" stroke="#bfbfbf" points="1003.5,-246.5 1003.5,-265.5 1048.5,-265.5 1048.5,-246.5 1003.5,-246.5"/>
<text text-anchor="middle" x="1026" y="-253.5" font-family="Helvetica,sans-Serif" font-size="10.00" fill="#000000">utility</text>
</g>
<!-- Node27&#45;&gt;Node28 -->
<g id="edge57" class="edge">
<title>Node27&#45;&gt;Node28</title>
<path fill="none" stroke="#191970" d="M1092.9834,-369.2548C1078.9675,-345.5568 1052,-299.9605 1036.9088,-274.4444"/>
<polygon fill="#191970" stroke="#191970" points="1039.8614,-272.5613 1031.7581,-265.7358 1033.8363,-276.1248 1039.8614,-272.5613"/>
</g>
<!-- Node29 -->
<g id="node30" class="node">
<title>Node29</title>
<g id="a_node30"><a xlink:href="maliput__hash_8h.html" target="_top" xlink:title="Code in this file is inspired by: https://github.com/RobotLocomotion/drake/blob/master/common/hash.h. ">
<polygon fill="#ffffff" stroke="#000000" points="798,-302.5 798,-332.5 938,-332.5 938,-302.5 798,-302.5"/>
<text text-anchor="start" x="806" y="-320.5" font-family="Helvetica,sans-Serif" font-size="10.00" fill="#000000">maliput/common/maliput</text>
<text text-anchor="middle" x="868" y="-309.5" font-family="Helvetica,sans-Serif" font-size="10.00" fill="#000000">_hash.h</text>
</a>
</g>
</g>
<!-- Node27&#45;&gt;Node29 -->
<g id="edge59" class="edge">
<title>Node27&#45;&gt;Node29</title>
<path fill="none" stroke="#191970" d="M1049.4858,-369.4639C1014.2329,-359.3701 967.6212,-346.024 930.4633,-335.3848"/>
<polygon fill="#191970" stroke="#191970" points="931.3203,-331.9896 920.7432,-332.6017 929.3935,-338.7192 931.3203,-331.9896"/>
</g>
<!-- Node29&#45;&gt;Node2 -->
<g id="edge65" class="edge">
<title>Node29&#45;&gt;Node2</title>
<path fill="none" stroke="#191970" d="M938.2806,-313.8371C1160.0205,-302.2803 1840.1747,-266.8316 2009.5121,-258.0059"/>
<polygon fill="#191970" stroke="#191970" points="2009.8884,-261.4912 2019.6927,-257.4753 2009.524,-254.5007 2009.8884,-261.4912"/>
</g>
<!-- Node29&#45;&gt;Node5 -->
<g id="edge70" class="edge">
<title>Node29&#45;&gt;Node5</title>
<path fill="none" stroke="#191970" d="M797.7879,-310.7425C660.9333,-297.571 363.122,-268.9085 262.7788,-259.251"/>
<polygon fill="#191970" stroke="#191970" points="262.9033,-255.7469 252.614,-258.2727 262.2327,-262.7147 262.9033,-255.7469"/>
</g>
<!-- Node29&#45;&gt;Node8 -->
<g id="edge67" class="edge">
<title>Node29&#45;&gt;Node8</title>
<path fill="none" stroke="#191970" d="M797.7738,-304.4566C753.8596,-295.0363 702.5861,-281.316 686,-266 667.6336,-249.0401 615.0354,-86.2221 597.0872,-29.4274"/>
<polygon fill="#191970" stroke="#191970" points="600.3212,-28.0443 593.98,-19.5567 593.6442,-30.1463 600.3212,-28.0443"/>
</g>
<!-- Node29&#45;&gt;Node10 -->
<g id="edge60" class="edge">
<title>Node29&#45;&gt;Node10</title>
<path fill="none" stroke="#191970" d="M890.7899,-302.2151C915.3653,-286.3049 956.0777,-261.5775 994,-246 1047.1397,-224.1716 1112.3821,-208.8813 1151.2232,-200.9045"/>
<polygon fill="#191970" stroke="#191970" points="1152.3324,-204.2516 1161.4463,-198.8492 1150.9526,-197.389 1152.3324,-204.2516"/>
</g>
<!-- Node29&#45;&gt;Node14 -->
<g id="edge62" class="edge">
<title>Node29&#45;&gt;Node14</title>
<path fill="none" stroke="#191970" d="M934.0494,-302.4554C984.3467,-290.9988 1052.099,-275.5663 1095.4244,-265.6978"/>
<polygon fill="#191970" stroke="#191970" points="1096.379,-269.0701 1105.3519,-263.4365 1094.8243,-262.2449 1096.379,-269.0701"/>
</g>
<!-- Node29&#45;&gt;Node17 -->
<g id="edge71" class="edge">
<title>Node29&#45;&gt;Node17</title>
<path fill="none" stroke="#191970" d="M797.8268,-306.9709C744.1556,-297.7816 675.6343,-283.2377 653,-266 617.8671,-239.2437 628.0894,-216.6444 605,-179 589.2739,-153.3606 588.1426,-144.3935 567,-123 555.5576,-111.4218 541.1993,-100.7514 528.1826,-92.162"/>
<polygon fill="#191970" stroke="#191970" points="529.7467,-89.0074 519.4378,-86.5624 525.9719,-94.9025 529.7467,-89.0074"/>
</g>
<!-- Node29&#45;&gt;Node21 -->
<g id="edge61" class="edge">
<title>Node29&#45;&gt;Node21</title>
<path fill="none" stroke="#191970" d="M871.2674,-302.3923C880.8349,-258.7841 908.9946,-135.0364 923,-123 951.1895,-98.7735 1201.9181,-80.0879 1297.3475,-73.7949"/>
<polygon fill="#191970" stroke="#191970" points="1297.6537,-77.2825 1307.405,-73.1398 1297.1986,-70.2973 1297.6537,-77.2825"/>
</g>
<!-- Node29&#45;&gt;Node23 -->
<g id="edge63" class="edge">
<title>Node29&#45;&gt;Node23</title>
<path fill="none" stroke="#191970" d="M883.8514,-302.3895C900.0709,-287.2853 926.3237,-263.8074 951,-246 1112.1783,-129.687 1181.0169,-151.5717 1369,-87 1371.1175,-86.2726 1373.2893,-85.5024 1375.4734,-84.7093"/>
<polygon fill="#191970" stroke="#191970" points="1376.8568,-87.9288 1384.998,-81.1486 1374.4055,-81.372 1376.8568,-87.9288"/>
</g>
<!-- Node29&#45;&gt;Node28 -->
<g id="edge69" class="edge">
<title>Node29&#45;&gt;Node28</title>
<path fill="none" stroke="#191970" d="M906.6511,-302.4554C933.4278,-292.0328 968.6583,-278.3197 993.8892,-268.4988"/>
<polygon fill="#191970" stroke="#191970" points="995.3157,-271.6994 1003.3651,-264.8104 992.7766,-265.1762 995.3157,-271.6994"/>
</g>
<!-- Node30 -->
<g id="node31" class="node">
<title>Node30</title>
<polygon fill="#ffffff" stroke="#bfbfbf" points="695,-246.5 695,-265.5 733,-265.5 733,-246.5 695,-246.5"/>
<text text-anchor="middle" x="714" y="-253.5" font-family="Helvetica,sans-Serif" font-size="10.00" fill="#000000">map</text>
</g>
<!-- Node29&#45;&gt;Node30 -->
<g id="edge64" class="edge">
<title>Node29&#45;&gt;Node30</title>
<path fill="none" stroke="#191970" d="M830.3274,-302.4554C803.2484,-291.6414 767.2991,-277.285 742.5693,-267.4092"/>
<polygon fill="#191970" stroke="#191970" points="743.624,-264.0616 733.0391,-263.6033 741.0279,-270.5624 743.624,-264.0616"/>
</g>
<!-- Node31 -->
<g id="node32" class="node">
<title>Node31</title>
<polygon fill="#ffffff" stroke="#bfbfbf" points="751,-246.5 751,-265.5 783,-265.5 783,-246.5 751,-246.5"/>
<text text-anchor="middle" x="767" y="-253.5" font-family="Helvetica,sans-Serif" font-size="10.00" fill="#000000">set</text>
</g>
<!-- Node29&#45;&gt;Node31 -->
<g id="edge66" class="edge">
<title>Node29&#45;&gt;Node31</title>
<path fill="none" stroke="#191970" d="M843.2926,-302.4554C827.4753,-292.8241 807.0433,-280.3828 791.3051,-270.7996"/>
<polygon fill="#191970" stroke="#191970" points="793.0129,-267.7418 782.6514,-265.5303 789.3723,-273.7206 793.0129,-267.7418"/>
</g>
<!-- Node32 -->
<g id="node33" class="node">
<title>Node32</title>
<polygon fill="#ffffff" stroke="#bfbfbf" points="801.5,-246.5 801.5,-265.5 870.5,-265.5 870.5,-246.5 801.5,-246.5"/>
<text text-anchor="middle" x="836" y="-253.5" font-family="Helvetica,sans-Serif" font-size="10.00" fill="#000000">type_traits</text>
</g>
<!-- Node29&#45;&gt;Node32 -->
<g id="edge68" class="edge">
<title>Node29&#45;&gt;Node32</title>
<path fill="none" stroke="#191970" d="M860.0899,-302.2977C855.7868,-294.0277 850.4242,-283.7215 845.8518,-274.9339"/>
<polygon fill="#191970" stroke="#191970" points="848.8443,-273.1024 841.1236,-265.8469 842.6346,-276.3335 848.8443,-273.1024"/>
</g>
<!-- Node33&#45;&gt;Node5 -->
<g id="edge80" class="edge">
<title>Node33&#45;&gt;Node5</title>
<path fill="none" stroke="#191970" d="M469.7458,-564.9182C420.3963,-555.1146 350.6659,-539.0802 328,-523 244.7803,-463.96 231.3983,-326.573 229.3369,-275.5426"/>
<polygon fill="#191970" stroke="#191970" points="232.8346,-275.4087 229.0381,-265.5174 225.8377,-275.6173 232.8346,-275.4087"/>
</g>
<!-- Node33&#45;&gt;Node8 -->
<g id="edge79" class="edge">
<title>Node33&#45;&gt;Node8</title>
<path fill="none" stroke="#191970" d="M456.8969,-569.3126C402.0925,-563.2048 322.5498,-550.1984 258,-523 105.932,-458.9254 0,-421.0158 0,-256 0,-256 0,-256 0,-133 0,-75.3997 435.8439,-26.0204 558.9612,-13.2208"/>
<polygon fill="#191970" stroke="#191970" points="559.3222,-16.7022 568.9107,-12.1956 558.6046,-9.7391 559.3222,-16.7022"/>
</g>
<!-- Node33&#45;&gt;Node9 -->
<g id="edge81" class="edge">
<title>Node33&#45;&gt;Node9</title>
<path fill="none" stroke="#191970" d="M587.1958,-568.7142C717.7284,-557.1302 1010.1592,-531.1785 1144.7528,-519.2341"/>
<polygon fill="#191970" stroke="#191970" points="1145.2937,-522.6999 1154.9451,-518.3295 1144.6749,-515.7273 1145.2937,-522.6999"/>
</g>
<!-- Node33&#45;&gt;Node16 -->
<g id="edge88" class="edge">
<title>Node33&#45;&gt;Node16</title>
<path fill="none" stroke="#191970" d="M587.219,-572.575C719.2079,-568.1324 1027.2621,-554.9879 1284,-523 1421.6317,-505.852 1457.4777,-504.528 1591,-467 1714.2529,-432.3584 1762.647,-430.1781 1846,-333 1868.579,-306.676 1874.2568,-298.6322 1886,-266 1891.3018,-251.2671 1894.0486,-233.9265 1895.4714,-220.0122"/>
<polygon fill="#191970" stroke="#191970" points="1898.9881,-219.9648 1896.3522,-209.7032 1892.0135,-219.3689 1898.9881,-219.9648"/>
</g>
<!-- Node33&#45;&gt;Node17 -->
<g id="edge89" class="edge">
<title>Node33&#45;&gt;Node17</title>
<path fill="none" stroke="#191970" d="M457.8104,-564.9881C413.4573,-557.0677 353.7284,-543.6911 304,-523 200.4702,-479.9232 166.6066,-441.4236 138,-333 119.3015,-262.1296 138.9191,-223.7085 197,-179 260.8449,-129.8546 349.2714,-101.6677 412.8223,-86.5953"/>
<polygon fill="#191970" stroke="#191970" points="413.8465,-89.9509 422.8007,-84.2876 412.2692,-83.1309 413.8465,-89.9509"/>
</g>
<!-- Node33&#45;&gt;Node19 -->
<g id="edge78" class="edge">
<title>Node33&#45;&gt;Node19</title>
<path fill="none" stroke="#191970" d="M508.4963,-564.8288C496.8655,-555.5928 480.8962,-540.5136 474,-523 455.5399,-476.1188 438.6695,-473.5639 513,-369 624.2156,-212.5483 845.9554,-117.4928 933.8595,-84.5701"/>
<polygon fill="#191970" stroke="#191970" points="935.2453,-87.7894 943.4125,-81.0405 932.8192,-81.2232 935.2453,-87.7894"/>
</g>
<!-- Node33&#45;&gt;Node27 -->
<g id="edge82" class="edge">
<title>Node33&#45;&gt;Node27</title>
<path fill="none" stroke="#191970" d="M587.2463,-567.266C679.0576,-555.3451 850.1184,-526.6894 984,-467 1018.9732,-451.4077 1054.3434,-424.9352 1077.1127,-406.1868"/>
<polygon fill="#191970" stroke="#191970" points="1079.4848,-408.7656 1084.9071,-399.6634 1074.9921,-403.3975 1079.4848,-408.7656"/>
</g>
<!-- Node34 -->
<g id="node35" class="node">
<title>Node34</title>
<g id="a_node35"><a xlink:href="unique__id_8h.html" target="_top" xlink:title="maliput/api/unique_id.h">
<polygon fill="#ffffff" stroke="#000000" points="522.5,-375 522.5,-394 653.5,-394 653.5,-375 522.5,-375"/>
<text text-anchor="middle" x="588" y="-382" font-family="Helvetica,sans-Serif" font-size="10.00" fill="#000000">maliput/api/unique_id.h</text>
</a>
</g>
</g>
<!-- Node33&#45;&gt;Node34 -->
<g id="edge83" class="edge">
<title>Node33&#45;&gt;Node34</title>
<path fill="none" stroke="#191970" d="M509.5777,-564.8388C494.1319,-551.5619 470.8485,-526.6272 480,-503 497.1619,-458.6917 539.4569,-420.7846 565.7363,-400.4429"/>
<polygon fill="#191970" stroke="#191970" points="568.0954,-403.0477 573.975,-394.234 563.8824,-397.4574 568.0954,-403.0477"/>
</g>
<!-- Node34&#45;&gt;Node8 -->
<g id="edge84" class="edge">
<title>Node34&#45;&gt;Node8</title>
<path fill="none" stroke="#191970" d="M570.1553,-374.8648C539.1427,-357.2511 475.1627,-316.9355 439,-266 384.5872,-189.3592 356.1987,-130.1187 414,-56 431.661,-33.3532 512.7523,-19.7424 558.8053,-13.7061"/>
<polygon fill="#191970" stroke="#191970" points="559.4005,-17.1588 568.8828,-12.4327 558.5229,-10.214 559.4005,-17.1588"/>
</g>
<!-- Node34&#45;&gt;Node16 -->
<g id="edge85" class="edge">
<title>Node34&#45;&gt;Node16</title>
<path fill="none" stroke="#191970" d="M628.2809,-374.9213C639.4633,-372.6054 651.6512,-370.3976 663,-369 759.2444,-357.1479 1445.3202,-369.8915 1535,-333 1553.9116,-325.2203 1551.4059,-312.4221 1569,-302 1611.4453,-276.8569 1627.4361,-282.2966 1674,-266 1698.9449,-257.2697 1704.922,-254.3406 1730,-246 1765.0921,-234.3289 1804.6268,-222.0965 1836.4179,-212.4833"/>
<polygon fill="#191970" stroke="#191970" points="1837.4581,-215.8253 1846.022,-209.5875 1835.4373,-209.1234 1837.4581,-215.8253"/>
</g>
<!-- Node34&#45;&gt;Node17 -->
<g id="edge87" class="edge">
<title>Node34&#45;&gt;Node17</title>
<path fill="none" stroke="#191970" d="M579.4861,-374.967C565.2485,-359.2016 535.4598,-326.9608 508,-302 467.2496,-264.9582 441.1743,-262.6411 425,-210 413.6434,-173.0387 407.7889,-157.625 425,-123 431.1983,-110.5303 442.0176,-100.2729 453.2269,-92.2849"/>
<polygon fill="#191970" stroke="#191970" points="455.389,-95.0514 461.8046,-86.6198 451.5313,-89.2103 455.389,-95.0514"/>
</g>
<!-- Node34&#45;&gt;Node29 -->
<g id="edge86" class="edge">
<title>Node34&#45;&gt;Node29</title>
<path fill="none" stroke="#191970" d="M627.8198,-374.9717C671.3134,-364.5643 741.8964,-347.6748 795.3174,-334.8919"/>
<polygon fill="#191970" stroke="#191970" points="796.1712,-338.2865 805.0821,-332.5553 794.5421,-331.4787 796.1712,-338.2865"/>
</g>
<!-- Node35&#45;&gt;Node4 -->
<g id="edge93" class="edge">
<title>Node35&#45;&gt;Node4</title>
<path fill="none" stroke="#191970" d="M1057.628,-574.0945C1252.1941,-572.4062 1837.6147,-563.942 1912,-523 1960.3882,-496.3669 1990.8858,-434.8144 2003.8277,-403.5155"/>
<polygon fill="#191970" stroke="#191970" points="2007.1069,-404.7408 2007.5441,-394.155 2000.6009,-402.1577 2007.1069,-404.7408"/>
</g>
<!-- Node35&#45;&gt;Node5 -->
<g id="edge94" class="edge">
<title>Node35&#45;&gt;Node5</title>
<path fill="none" stroke="#191970" d="M932.472,-570.946C791.6918,-561.8352 455.1975,-533.5184 366,-467 296.4293,-415.1181 252.3207,-316.6566 236.0613,-275.181"/>
<polygon fill="#191970" stroke="#191970" points="239.2842,-273.8094 232.4499,-265.7136 232.7439,-276.3043 239.2842,-273.8094"/>
</g>
<!-- Node35&#45;&gt;Node9 -->
<g id="edge95" class="edge">
<title>Node35&#45;&gt;Node9</title>
<path fill="none" stroke="#191970" d="M1048.8181,-559.4554C1086.3306,-548.9689 1135.759,-535.1515 1170.9333,-525.3187"/>
<polygon fill="#191970" stroke="#191970" points="1172.2193,-528.5934 1180.9078,-522.5303 1170.3347,-521.8519 1172.2193,-528.5934"/>
</g>
<!-- Node35&#45;&gt;Node16 -->
<g id="edge111" class="edge">
<title>Node35&#45;&gt;Node16</title>
<path fill="none" stroke="#191970" d="M1057.5885,-572.6704C1253.0369,-566.7172 1840.9947,-546.8972 1874,-523 1925.654,-485.6004 1973.5467,-304.8585 1949,-246 1944.2717,-234.6624 1935.6983,-224.5431 1926.8584,-216.3389"/>
<polygon fill="#191970" stroke="#191970" points="1928.9649,-213.5333 1919.1114,-209.6396 1924.3861,-218.8281 1928.9649,-213.5333"/>
</g>
<!-- Node35&#45;&gt;Node17 -->
<g id="edge112" class="edge">
<title>Node35&#45;&gt;Node17</title>
<path fill="none" stroke="#191970" d="M932.2559,-571.3806C808.4448,-564.7698 536.9074,-547.888 447,-523 391.44,-507.62 374.7072,-503.3968 330,-467 240.9204,-394.479 138.9453,-345.6957 196,-246 244.9386,-160.4861 353.8952,-112.7663 425.3509,-89.6123"/>
<polygon fill="#191970" stroke="#191970" points="426.6947,-92.8584 435.1746,-86.5069 424.5847,-86.1839 426.6947,-92.8584"/>
</g>
<!-- Node35&#45;&gt;Node19 -->
<g id="edge92" class="edge">
<title>Node35&#45;&gt;Node19</title>
<path fill="none" stroke="#191970" d="M932.1428,-561.084C813.1685,-534.279 562.5111,-470.5805 513,-400 427.8492,-278.6132 126.8667,-475.7694 729,-123 762.459,-103.3975 869.1009,-85.828 929.0514,-77.1748"/>
<polygon fill="#191970" stroke="#191970" points="929.557,-80.6382 938.964,-75.7638 928.5706,-73.708 929.557,-80.6382"/>
</g>
<!-- Node35&#45;&gt;Node27 -->
<g id="edge110" class="edge">
<title>Node35&#45;&gt;Node27</title>
<path fill="none" stroke="#191970" d="M1003.2199,-559.4834C1017.1959,-534.0037 1046.5519,-480.7113 1072,-436 1077.112,-427.0185 1082.8014,-417.2063 1087.8397,-408.5788"/>
<polygon fill="#191970" stroke="#191970" points="1090.9606,-410.1753 1092.993,-399.7772 1084.9199,-406.6384 1090.9606,-410.1753"/>
</g>
<!-- Node35&#45;&gt;Node36 -->
<g id="edge96" class="edge">
<title>Node35&#45;&gt;Node36</title>
<path fill="none" stroke="#191970" d="M984.5773,-559.4178C970.0479,-538.3928 943.5602,-500.0635 926.3778,-475.1997"/>
<polygon fill="#191970" stroke="#191970" points="929.0725,-472.9425 920.5079,-466.7056 923.3137,-476.9221 929.0725,-472.9425"/>
</g>
<!-- Node36&#45;&gt;Node1 -->
<g id="edge98" class="edge">
<title>Node36&#45;&gt;Node1</title>
<path fill="none" stroke="#191970" d="M855.2797,-436.4509C821.5072,-426.8103 777.4384,-413.5932 739,-400 737.0856,-399.323 735.1264,-398.6046 733.1563,-397.8625"/>
<polygon fill="#191970" stroke="#191970" points="733.9574,-394.4177 723.3695,-394.0352 731.4079,-400.9369 733.9574,-394.4177"/>
</g>
<!-- Node36&#45;&gt;Node2 -->
<g id="edge99" class="edge">
<title>Node36&#45;&gt;Node2</title>
<path fill="none" stroke="#191970" d="M975.503,-448.4176C1149.7587,-440.037 1616.0835,-416.3688 1684,-400 1717.8702,-391.8368 1723.9315,-382.6176 1756,-369 1826.9613,-338.867 1844.0106,-329.5867 1916,-302 1947.4476,-289.9491 1983.589,-277.4463 2010.0945,-268.5226"/>
<polygon fill="#191970" stroke="#191970" points="2011.382,-271.7825 2019.7514,-265.2862 2009.1575,-265.1454 2011.382,-271.7825"/>
</g>
<!-- Node36&#45;&gt;Node4 -->
<g id="edge101" class="edge">
<title>Node36&#45;&gt;Node4</title>
<path fill="none" stroke="#191970" d="M975.5754,-447.5095C1174.3533,-435.4131 1767.9532,-399.2903 1954.3472,-387.9475"/>
<polygon fill="#191970" stroke="#191970" points="1954.7078,-391.4322 1964.4767,-387.3311 1954.2826,-384.4451 1954.7078,-391.4322"/>
</g>
<!-- Node36&#45;&gt;Node5 -->
<g id="edge102" class="edge">
<title>Node36&#45;&gt;Node5</title>
<path fill="none" stroke="#191970" d="M844.2161,-447.2608C740.8464,-439.9895 545.4182,-423.6071 480,-400 456.1122,-391.3797 453.6186,-382.3257 432,-369 381.9713,-338.1624 369.4564,-330.3913 318,-302 297.955,-290.94 274.9946,-279.0927 257.4158,-270.1914"/>
<polygon fill="#191970" stroke="#191970" points="258.7612,-266.9501 248.2562,-265.5731 255.6096,-273.2005 258.7612,-266.9501"/>
</g>
<!-- Node36&#45;&gt;Node8 -->
<g id="edge100" class="edge">
<title>Node36&#45;&gt;Node8</title>
<path fill="none" stroke="#191970" d="M844.2182,-445.9132C738.7104,-436.5155 540.6417,-416.912 513,-400 469.7842,-373.5593 403.8342,-257.7842 387,-210 364.2496,-145.4227 343.7828,-105.5816 391,-56 413.767,-32.093 508.3781,-18.6931 558.8869,-13.1162"/>
<polygon fill="#191970" stroke="#191970" points="559.3808,-16.5834 568.9538,-12.0439 558.6393,-9.6228 559.3808,-16.5834"/>
</g>
<!-- Node36&#45;&gt;Node13 -->
<g id="edge103" class="edge">
<title>Node36&#45;&gt;Node13</title>
<path fill="none" stroke="#191970" d="M975.9375,-441.0313C1053.7438,-428.6781 1182.5564,-408.2268 1262.0628,-395.6038"/>
<polygon fill="#191970" stroke="#191970" points="1262.6584,-399.0531 1271.9859,-394.0283 1261.5607,-392.1397 1262.6584,-399.0531"/>
</g>
<!-- Node36&#45;&gt;Node14 -->
<g id="edge97" class="edge">
<title>Node36&#45;&gt;Node14</title>
<path fill="none" stroke="#191970" d="M931.8882,-436.292C945.9188,-426.3267 964.365,-412.8172 980,-400 1033.258,-356.3403 1092.319,-300.3187 1120.7906,-272.7929"/>
<polygon fill="#191970" stroke="#191970" points="1123.2391,-275.294 1127.9796,-265.8189 1118.365,-270.2697 1123.2391,-275.294"/>
</g>
<!-- Node36&#45;&gt;Node16 -->
<g id="edge106" class="edge">
<title>Node36&#45;&gt;Node16</title>
<path fill="none" stroke="#191970" d="M975.7312,-446.7187C1144.1543,-433.7062 1587.2394,-394.4603 1720,-333 1752.9606,-317.7412 1831.5923,-251.4262 1872.0351,-216.3854"/>
<polygon fill="#191970" stroke="#191970" points="1874.5721,-218.8176 1879.8227,-209.6154 1869.9795,-213.5348 1874.5721,-218.8176"/>
</g>
<!-- Node36&#45;&gt;Node24 -->
<g id="edge109" class="edge">
<title>Node36&#45;&gt;Node24</title>
<path fill="none" stroke="#191970" d="M921.2625,-436.4726C960.5823,-384.4089 1092.5821,-213.0679 1152,-179 1176.8169,-164.771 1245.3754,-151.7514 1299.4285,-143.2235"/>
<polygon fill="#191970" stroke="#191970" points="1299.9945,-146.6776 1309.3388,-141.6841 1298.92,-139.7606 1299.9945,-146.6776"/>
</g>
<!-- Node36&#45;&gt;Node27 -->
<g id="edge104" class="edge">
<title>Node36&#45;&gt;Node27</title>
<path fill="none" stroke="#191970" d="M953.0885,-436.4639C981.5217,-426.5419 1018.9603,-413.4774 1049.1845,-402.9304"/>
<polygon fill="#191970" stroke="#191970" points="1050.4351,-406.2011 1058.7235,-399.6017 1048.1287,-399.5919 1050.4351,-406.2011"/>
</g>
<!-- Node36&#45;&gt;Node29 -->
<g id="edge107" class="edge">
<title>Node36&#45;&gt;Node29</title>
<path fill="none" stroke="#191970" d="M912.675,-436.3847C915.0313,-419.438 916.9799,-391.3988 909,-369 905.318,-358.6651 898.6319,-348.8391 891.7125,-340.5938"/>
<polygon fill="#191970" stroke="#191970" points="894.1032,-338.0176 884.818,-332.9151 888.8946,-342.6942 894.1032,-338.0176"/>
</g>
<!-- Node36&#45;&gt;Node34 -->
<g id="edge105" class="edge">
<title>Node36&#45;&gt;Node34</title>
<path fill="none" stroke="#191970" d="M844.4504,-437.8608C785.4204,-425.5782 699.5977,-407.7206 643.7856,-396.1076"/>
<polygon fill="#191970" stroke="#191970" points="644.2301,-392.6252 633.7268,-394.0146 642.8041,-399.4784 644.2301,-392.6252"/>
</g>
<!-- Node37 -->
<g id="node38" class="node">
<title>Node37</title>
<g id="a_node38"><a xlink:href="passkey_8h.html" target="_top" xlink:title="maliput/common/passkey.h">
<polygon fill="#ffffff" stroke="#000000" points="748,-375 748,-394 900,-394 900,-375 748,-375"/>
<text text-anchor="middle" x="824" y="-382" font-family="Helvetica,sans-Serif" font-size="10.00" fill="#000000">maliput/common/passkey.h</text>
</a>
</g>
</g>
<!-- Node36&#45;&gt;Node37 -->
<g id="edge108" class="edge">
<title>Node36&#45;&gt;Node37</title>
<path fill="none" stroke="#191970" d="M890.4853,-436.2967C876.6958,-425.5537 858.2582,-411.1895 844.2972,-400.3129"/>
<polygon fill="#191970" stroke="#191970" points="846.3042,-397.4398 836.2646,-394.055 842.0022,-402.9618 846.3042,-397.4398"/>
</g>
<!-- Node38&#45;&gt;Node2 -->
<g id="edge120" class="edge">
<title>Node38&#45;&gt;Node2</title>
<path fill="none" stroke="#191970" d="M1174.79,-830.7045C1410.6654,-826.9944 2200,-806.8227 2200,-703 2200,-703 2200,-703 2200,-451.5 2200,-369.0172 2114.6304,-300.3632 2071.8479,-271.1364"/>
<polygon fill="#191970" stroke="#191970" points="2073.6721,-268.146 2063.4111,-265.5074 2069.787,-273.9689 2073.6721,-268.146"/>
</g>
<!-- Node38&#45;&gt;Node3 -->
<g id="edge122" class="edge">
<title>Node38&#45;&gt;Node3</title>
<path fill="none" stroke="#191970" d="M1130.3301,-816.2967C1143.0697,-807.2163 1159.4389,-795.5488 1173.4152,-785.587"/>
<polygon fill="#191970" stroke="#191970" points="1175.6426,-788.2975 1181.7544,-779.6432 1171.5797,-782.5973 1175.6426,-788.2975"/>
</g>
<!-- Node38&#45;&gt;Node5 -->
<g id="edge121" class="edge">
<title>Node38&#45;&gt;Node5</title>
<path fill="none" stroke="#191970" d="M1043.2836,-822.563C848.4617,-794.9565 278.7307,-705.8656 136,-590 58.68,-527.2334 54.9901,-458.3373 99,-369 115.0741,-336.3705 118.9576,-326.3263 146,-302 160.7439,-288.737 179.9736,-277.7762 196.2107,-269.8851"/>
<polygon fill="#191970" stroke="#191970" points="197.7948,-273.0081 205.3685,-265.5994 194.8277,-266.668 197.7948,-273.0081"/>
</g>
<!-- Node38&#45;&gt;Node16 -->
<g id="edge125" class="edge">
<title>Node38&#45;&gt;Node16</title>
<path fill="none" stroke="#191970" d="M1174.5184,-829.9901C1363.8013,-825.3192 1909.0977,-809.6056 2085,-780 2206.7898,-759.5019 2352,-826.5028 2352,-703 2352,-703 2352,-703 2352,-513 2352,-369.6365 2304.5997,-298.002 2171,-246 2108.367,-221.6209 2033.0661,-208.537 1977.267,-201.6676"/>
<polygon fill="#191970" stroke="#191970" points="1977.4259,-198.1619 1967.0825,-200.4559 1976.5989,-205.1128 1977.4259,-198.1619"/>
</g>
<!-- Node38&#45;&gt;Node33 -->
<g id="edge124" class="edge">
<title>Node38&#45;&gt;Node33</title>
<path fill="none" stroke="#191970" d="M1074.472,-816.383C969.2296,-770.3058 653.5425,-632.0919 553.07,-588.103"/>
<polygon fill="#191970" stroke="#191970" points="554.3287,-584.8334 543.7645,-584.0289 551.5213,-591.2458 554.3287,-584.8334"/>
</g>
<!-- Node38&#45;&gt;Node35 -->
<g id="edge123" class="edge">
<title>Node38&#45;&gt;Node35</title>
<path fill="none" stroke="#191970" d="M1102.2102,-816.1931C1083.1618,-773.2508 1029.0979,-651.3699 1005.848,-598.9555"/>
<polygon fill="#191970" stroke="#191970" points="1009.0085,-597.4485 1001.7542,-589.7267 1002.6097,-600.2869 1009.0085,-597.4485"/>
</g>
</g>
</svg>
        <g id="navigator" transform="translate(0 0)" fill="#404254">
                <rect fill="#f2f5e9" fill-opacity="0.5" stroke="#606060" stroke-width=".5" x="0" y="0" width="60" height="60"/>
                <use id="zoomplus" xlink:href="#zoomPlus" x="17" y="9" onmousedown="handleZoom(evt,'in')"/>
                <use id="zoomminus" xlink:href="#zoomMin" x="42" y="9" onmousedown="handleZoom(evt,'out')"/>
                <use id="reset" xlink:href="#resetDef" x="30" y="36" onmousedown="handleReset()"/>
                <g id="arrowUp" xlink:href="#dirArrow" transform="translate(30 24)" onmousedown="handlePan(0,-1)">
                  <use xlink:href="#rim" fill="#404040">
                        <set attributeName="fill" to="#808080" begin="arrowUp.mouseover" end="arrowUp.mouseout"/>
                  </use>
                  <path fill="none" stroke="white" stroke-width="1.5" d="M0,-3.0v7 M-2.5,-0.5L0,-3.0L2.5,-0.5"/>
                </g>
                <g id="arrowRight" xlink:href="#dirArrow" transform="rotate(90) translate(36 -43)" onmousedown="handlePan(1,0)">
                  <use xlink:href="#rim" fill="#404040">
                        <set attributeName="fill" to="#808080" begin="arrowRight.mouseover" end="arrowRight.mouseout"/>
                  </use>
                  <path fill="none" stroke="white" stroke-width="1.5" d="M0,-3.0v7 M-2.5,-0.5L0,-3.0L2.5,-0.5"/>
                </g>
                <g id="arrowDown" xlink:href="#dirArrow" transform="rotate(180) translate(-30 -48)" onmousedown="handlePan(0,1)">
                  <use xlink:href="#rim" fill="#404040">
                        <set attributeName="fill" to="#808080" begin="arrowDown.mouseover" end="arrowDown.mouseout"/>
                  </use>
                  <path fill="none" stroke="white" stroke-width="1.5" d="M0,-3.0v7 M-2.5,-0.5L0,-3.0L2.5,-0.5"/>
                </g>
                <g id="arrowLeft" xlink:href="#dirArrow" transform="rotate(270) translate(-36 17)" onmousedown="handlePan(-1,0)">
                  <use xlink:href="#rim" fill="#404040">
                        <set attributeName="fill" to="#808080" begin="arrowLeft.mouseover" end="arrowLeft.mouseout"/>
                  </use>
                  <path fill="none" stroke="white" stroke-width="1.5" d="M0,-3.0v7 M-2.5,-0.5L0,-3.0L2.5,-0.5"/>
                </g>
        </g>
        <svg viewBox="0 0 15 15" width="100%" height="30px" preserveAspectRatio="xMaxYMin meet">
         <g id="arrow_out" transform="scale(0.3 0.3)">
          <a xlink:href="simple__phase__ring__book_8h__incl_org.svg" target="_base">
           <rect id="button" ry="5" rx="5" y="6" x="6" height="38" width="38"
                fill="#f2f5e9" fill-opacity="0.5" stroke="#606060" stroke-width="1.0"/>
           <path id="arrow"
             d="M 11.500037,31.436501 C 11.940474,20.09759 22.043105,11.32322 32.158766,21.979434 L 37.068811,17.246167 C 37.068811,17.246167 37.088388,32 37.088388,32 L 22.160133,31.978069 C 22.160133,31.978069 26.997745,27.140456 26.997745,27.140456 C 18.528582,18.264221 13.291696,25.230495 11.500037,31.436501 z"
             style="fill:#404040;"/>
          </a>
         </g>
        </svg>
</svg>
