<?xml version="1.0" encoding="UTF-8" standalone="no"?>
<!DOCTYPE svg PUBLIC "-//W3C//DTD SVG 1.1//EN"
 "http://www.w3.org/Graphics/SVG/1.1/DTD/svg11.dtd">
<!-- Generated by graphviz version 2.40.1 (20161225.0304)
 -->
<!-- Title: simple_phase_ring_book.h Pages: 1 -->
<!--zoomable 911 -->
<svg id="main" version="1.1" xmlns="http://www.w3.org/2000/svg" xmlns:xlink="http://www.w3.org/1999/xlink" xml:space="preserve" onload="init(evt)">
<style type="text/css"><![CDATA[
.edge:hover path { stroke: red; }
.edge:hover polygon { stroke: red; fill: red; }
]]></style>
<script type="text/javascript"><![CDATA[
var edges = document.getElementsByTagName('g');
if (edges && edges.length) {
  for (var i=0;i<edges.length;i++) {
    if (edges[i].id.substr(0,4)=='edge') {
      edges[i].setAttribute('class','edge');
    }
  }
}
]]></script>
        <defs>
                <circle id="rim" cx="0" cy="0" r="7"/>
                <circle id="rim2" cx="0" cy="0" r="3.5"/>
                <g id="zoomPlus">
                        <use xlink:href="#rim" fill="#404040">
                                <set attributeName="fill" to="#808080" begin="zoomplus.mouseover" end="zoomplus.mouseout"/>
                        </use>
                        <path d="M-4,0h8M0,-4v8" fill="none" stroke="white" stroke-width="1.5" pointer-events="none"/>
                </g>
                <g id="zoomMin">
                        <use xlink:href="#rim" fill="#404040">
                                <set attributeName="fill" to="#808080" begin="zoomminus.mouseover" end="zoomminus.mouseout"/>
                        </use>
                        <path d="M-4,0h8" fill="none" stroke="white" stroke-width="1.5" pointer-events="none"/>
                </g>
                <g id="dirArrow">
                        <path fill="none" stroke="white" stroke-width="1.5" d="M0,-3.0v7 M-2.5,-0.5L0,-3.0L2.5,-0.5"/>
                </g>
               <g id="resetDef">
                       <use xlink:href="#rim2" fill="#404040">
                               <set attributeName="fill" to="#808080" begin="reset.mouseover" end="reset.mouseout"/>
                       </use>
               </g>
        </defs>

<script type="text/javascript">
var viewWidth = 2341;
var viewHeight = 911;
var sectionId = 'dynsection-0';
</script>
<script xlink:href="svgpan.js"/>
<svg id="graph" class="graph">
<g id="viewport">
<title>simple_phase_ring_book.h</title>
<polygon fill="#ffffff" stroke="transparent" points="-4,4 -4,-907 2337,-907 2337,4 -4,4"/>
<!-- Node0 -->
<g id="node1" class="node">
<title>Node0</title>
<polygon fill="#bfbfbf" stroke="#000000" points="484,-883.5 484,-902.5 630,-902.5 630,-883.5 484,-883.5"/>
<text text-anchor="middle" x="557" y="-890.5" font-family="Helvetica,sans-Serif" font-size="10.00" fill="#000000">simple_phase_ring_book.h</text>
</g>
<!-- Node1 -->
<g id="node2" class="node">
<title>Node1</title>
<polygon fill="#ffffff" stroke="#bfbfbf" points="1451,-375 1451,-394 1509,-394 1509,-375 1451,-375"/>
<text text-anchor="middle" x="1480" y="-382" font-family="Helvetica,sans-Serif" font-size="10.00" fill="#000000">memory</text>
</g>
<!-- Node0&#45;&gt;Node1 -->
<g id="edge1" class="edge">
<title>Node0&#45;&gt;Node1</title>
<path fill="none" stroke="#191970" d="M515.5896,-883.4701C491.6086,-876.3987 461.926,-864.8366 440,-847 406.005,-819.3453 386,-808.3229 386,-764.5 386,-764.5 386,-764.5 386,-703 386,-635.8477 453.6732,-650.9961 516,-626 806.0794,-509.6637 899.931,-550.8907 1201,-467 1243.7835,-455.0787 1253.4945,-448.8772 1296,-436 1345.7674,-420.9228 1403.5797,-404.9995 1440.9228,-394.9199"/>
<polygon fill="#191970" stroke="#191970" points="1442.1424,-398.2163 1450.889,-392.2375 1440.323,-391.4569 1442.1424,-398.2163"/>
</g>
<!-- Node2 -->
<g id="node3" class="node">
<title>Node2</title>
<polygon fill="#ffffff" stroke="#bfbfbf" points="86,-246.5 86,-265.5 142,-265.5 142,-246.5 86,-246.5"/>
<text text-anchor="middle" x="114" y="-253.5" font-family="Helvetica,sans-Serif" font-size="10.00" fill="#000000">optional</text>
</g>
<!-- Node0&#45;&gt;Node2 -->
<g id="edge2" class="edge">
<title>Node0&#45;&gt;Node2</title>
<path fill="none" stroke="#191970" d="M483.8958,-891.3201C332.7799,-885.8592 0,-862.6869 0,-764.5 0,-764.5 0,-764.5 0,-384.5 0,-332.4335 53.0205,-291.6189 86.744,-270.9249"/>
<polygon fill="#191970" stroke="#191970" points="88.8641,-273.7371 95.6839,-265.6291 85.2963,-267.7145 88.8641,-273.7371"/>
</g>
<!-- Node3 -->
<g id="node4" class="node">
<title>Node3</title>
<g id="a_node4"><a xlink:href="phase__ring_8h.html" target="_top" xlink:title="maliput/api/rules/phase\l_ring.h">
<polygon fill="#ffffff" stroke="#000000" points="835.5,-749.5 835.5,-779.5 966.5,-779.5 966.5,-749.5 835.5,-749.5"/>
<text text-anchor="start" x="843.5" y="-767.5" font-family="Helvetica,sans-Serif" font-size="10.00" fill="#000000">maliput/api/rules/phase</text>
<text text-anchor="middle" x="901" y="-756.5" font-family="Helvetica,sans-Serif" font-size="10.00" fill="#000000">_ring.h</text>
</a>
</g>
</g>
<!-- Node0&#45;&gt;Node3 -->
<g id="edge3" class="edge">
<title>Node0&#45;&gt;Node3</title>
<path fill="none" stroke="#191970" d="M625.7791,-883.4512C666.8763,-876.3517 719.5618,-864.7671 764,-847 803.8384,-831.0719 845.5008,-804.3122 872.2688,-785.6015"/>
<polygon fill="#191970" stroke="#191970" points="874.6149,-788.2287 880.7515,-779.5919 870.5683,-782.5168 874.6149,-788.2287"/>
</g>
<!-- Node16 -->
<g id="node17" class="node">
<title>Node16</title>
<g id="a_node17"><a xlink:href="maliput__copyable_8h.html" target="_top" xlink:title="Code in this file is inspired by: https://github.com/RobotLocomotion/drake/blob/master/common/drake_c...">
<polygon fill="#ffffff" stroke="#000000" points="1633,-179.5 1633,-209.5 1773,-209.5 1773,-179.5 1633,-179.5"/>
<text text-anchor="start" x="1641" y="-197.5" font-family="Helvetica,sans-Serif" font-size="10.00" fill="#000000">maliput/common/maliput</text>
<text text-anchor="middle" x="1703" y="-186.5" font-family="Helvetica,sans-Serif" font-size="10.00" fill="#000000">_copyable.h</text>
</a>
</g>
</g>
<!-- Node0&#45;&gt;Node16 -->
<g id="edge126" class="edge">
<title>Node0&#45;&gt;Node16</title>
<path fill="none" stroke="#191970" d="M630.0173,-891.4865C959.8847,-884.1785 2295,-849.3585 2295,-764.5 2295,-764.5 2295,-764.5 2295,-384.5 2295,-287.7312 2215.9344,-284.1428 2127,-246 2066.9832,-220.2596 1888.8394,-205.5603 1783.5284,-198.8939"/>
<polygon fill="#191970" stroke="#191970" points="1783.4554,-195.3827 1773.2572,-198.2545 1783.0205,-202.3691 1783.4554,-195.3827"/>
</g>
<!-- Node35 -->
<g id="node36" class="node">
<title>Node35</title>
<g id="a_node36"><a xlink:href="right__of__way__rule_8h.html" target="_top" xlink:title="maliput/api/rules/right\l_of_way_rule.h">
<polygon fill="#ffffff" stroke="#000000" points="933.5,-559.5 933.5,-589.5 1058.5,-589.5 1058.5,-559.5 933.5,-559.5"/>
<text text-anchor="start" x="941.5" y="-577.5" font-family="Helvetica,sans-Serif" font-size="10.00" fill="#000000">maliput/api/rules/right</text>
<text text-anchor="middle" x="996" y="-566.5" font-family="Helvetica,sans-Serif" font-size="10.00" fill="#000000">_of_way_rule.h</text>
</a>
</g>
</g>
<!-- Node0&#45;&gt;Node35 -->
<g id="edge125" class="edge">
<title>Node0&#45;&gt;Node35</title>
<path fill="none" stroke="#191970" d="M533.8332,-883.3936C495.7278,-865.8677 424,-824.861 424,-764.5 424,-764.5 424,-764.5 424,-703 424,-652.4133 768.9685,-602.8995 923.1075,-583.3007"/>
<polygon fill="#191970" stroke="#191970" points="923.9412,-586.7232 933.4237,-581.9974 923.0638,-579.7784 923.9412,-586.7232"/>
</g>
<!-- Node38 -->
<g id="node39" class="node">
<title>Node38</title>
<g id="a_node39"><a xlink:href="phase__ring__book_8h.html" target="_top" xlink:title="maliput/api/rules/phase\l_ring_book.h">
<polygon fill="#ffffff" stroke="#000000" points="624.5,-816.5 624.5,-846.5 755.5,-846.5 755.5,-816.5 624.5,-816.5"/>
<text text-anchor="start" x="632.5" y="-834.5" font-family="Helvetica,sans-Serif" font-size="10.00" fill="#000000">maliput/api/rules/phase</text>
<text text-anchor="middle" x="690" y="-823.5" font-family="Helvetica,sans-Serif" font-size="10.00" fill="#000000">_ring_book.h</text>
</a>
</g>
</g>
<!-- Node0&#45;&gt;Node38 -->
<g id="edge118" class="edge">
<title>Node0&#45;&gt;Node38</title>
<path fill="none" stroke="#191970" d="M577.7813,-883.3906C596.5312,-874.7205 624.6795,-861.7046 648.0934,-850.8779"/>
<polygon fill="#191970" stroke="#191970" points="649.8569,-853.9185 657.4645,-846.5446 646.9189,-847.5649 649.8569,-853.9185"/>
</g>
<!-- Node3&#45;&gt;Node2 -->
<g id="edge4" class="edge">
<title>Node3&#45;&gt;Node2</title>
<path fill="none" stroke="#191970" d="M835.4169,-751.6234C793.9957,-742.6704 739.6771,-729.4109 693,-713 637.0965,-693.3452 621.902,-688.9578 572,-657 515.4501,-620.7848 513.2689,-595.6503 457,-559 378.0475,-507.575 345.0132,-518.3317 266,-467 196.9348,-422.1312 175.0646,-406.5488 138,-333 128.6305,-314.4077 122.0486,-291.4373 118.1769,-275.4465"/>
<polygon fill="#191970" stroke="#191970" points="121.573,-274.5967 115.9286,-265.6306 114.7497,-276.1597 121.573,-274.5967"/>
</g>
<!-- Node4 -->
<g id="node5" class="node">
<title>Node4</title>
<polygon fill="#ffffff" stroke="#bfbfbf" points="1755.5,-375 1755.5,-394 1848.5,-394 1848.5,-375 1755.5,-375"/>
<text text-anchor="middle" x="1802" y="-382" font-family="Helvetica,sans-Serif" font-size="10.00" fill="#000000">unordered_map</text>
</g>
<!-- Node3&#45;&gt;Node4 -->
<g id="edge5" class="edge">
<title>Node3&#45;&gt;Node4</title>
<path fill="none" stroke="#191970" d="M966.8073,-763.7514C1197.1158,-760.2727 1953,-741.2565 1953,-641.5 1953,-641.5 1953,-641.5 1953,-574.5 1953,-494.0567 1869.0154,-427.9236 1826.3145,-399.4979"/>
<polygon fill="#191970" stroke="#191970" points="1828.1664,-396.5272 1817.8742,-394.0129 1824.352,-402.3967 1828.1664,-396.5272"/>
</g>
<!-- Node5 -->
<g id="node6" class="node">
<title>Node5</title>
<polygon fill="#ffffff" stroke="#bfbfbf" points="1735.5,-246.5 1735.5,-265.5 1782.5,-265.5 1782.5,-246.5 1735.5,-246.5"/>
<text text-anchor="middle" x="1759" y="-253.5" font-family="Helvetica,sans-Serif" font-size="10.00" fill="#000000">vector</text>
</g>
<!-- Node3&#45;&gt;Node5 -->
<g id="edge6" class="edge">
<title>Node3&#45;&gt;Node5</title>
<path fill="none" stroke="#191970" d="M966.7357,-763.9652C1150.7524,-761.9774 1668.3178,-752.8966 1833,-713 1979.6608,-677.4694 2143,-725.4033 2143,-574.5 2143,-574.5 2143,-574.5 2143,-513 2143,-505.3676 1973.5203,-305.9674 1967,-302 1938.0329,-284.3745 1843.8475,-268.398 1792.7344,-260.7511"/>
<polygon fill="#191970" stroke="#191970" points="1793.2222,-257.2853 1782.819,-259.2914 1792.2026,-264.2106 1793.2222,-257.2853"/>
</g>
<!-- Node6 -->
<g id="node7" class="node">
<title>Node6</title>
<g id="a_node7"><a xlink:href="phase_8h.html" target="_top" xlink:title="maliput/api/rules/phase.h">
<polygon fill="#ffffff" stroke="#000000" points="926,-693.5 926,-712.5 1066,-712.5 1066,-693.5 926,-693.5"/>
<text text-anchor="middle" x="996" y="-700.5" font-family="Helvetica,sans-Serif" font-size="10.00" fill="#000000">maliput/api/rules/phase.h</text>
</a>
</g>
</g>
<!-- Node3&#45;&gt;Node6 -->
<g id="edge7" class="edge">
<title>Node3&#45;&gt;Node6</title>
<path fill="none" stroke="#191970" d="M924.4832,-749.2977C939.1348,-739.8127 957.9236,-727.6495 972.5659,-718.1705"/>
<polygon fill="#191970" stroke="#191970" points="974.5805,-721.0357 981.073,-712.6633 970.7764,-715.1596 974.5805,-721.0357"/>
</g>
<!-- Node3&#45;&gt;Node16 -->
<g id="edge117" class="edge">
<title>Node3&#45;&gt;Node16</title>
<path fill="none" stroke="#191970" d="M966.6839,-763.01C1162.5979,-758.2799 1740.7779,-742.1699 1927,-713 2022.4312,-698.0516 2068.1622,-724.7638 2137,-657 2267.6475,-528.3909 2247.4184,-357.6359 2102,-246 2077.2192,-226.9761 1892.1886,-209.3886 1783.0045,-200.5217"/>
<polygon fill="#191970" stroke="#191970" points="1783.2564,-197.0308 1773.0078,-199.717 1782.6947,-204.0082 1783.2564,-197.0308"/>
</g>
<!-- Node27 -->
<g id="node28" class="node">
<title>Node27</title>
<g id="a_node28"><a xlink:href="type__specific__identifier_8h.html" target="_top" xlink:title="maliput/api/type_specific\l_identifier.h">
<polygon fill="#ffffff" stroke="#000000" points="553,-369.5 553,-399.5 693,-399.5 693,-369.5 553,-369.5"/>
<text text-anchor="start" x="561" y="-387.5" font-family="Helvetica,sans-Serif" font-size="10.00" fill="#000000">maliput/api/type_specific</text>
<text text-anchor="middle" x="623" y="-376.5" font-family="Helvetica,sans-Serif" font-size="10.00" fill="#000000">_identifier.h</text>
</a>
</g>
</g>
<!-- Node3&#45;&gt;Node27 -->
<g id="edge116" class="edge">
<title>Node3&#45;&gt;Node27</title>
<path fill="none" stroke="#191970" d="M850.1442,-749.4501C750.2415,-718.361 538,-644.1201 538,-574.5 538,-574.5 538,-574.5 538,-513 538,-469.852 571.7501,-430.0592 596.7166,-406.5256"/>
<polygon fill="#191970" stroke="#191970" points="599.1062,-409.0833 604.1357,-399.7583 594.3889,-403.9115 599.1062,-409.0833"/>
</g>
<!-- Node6&#45;&gt;Node2 -->
<g id="edge8" class="edge">
<title>Node6&#45;&gt;Node2</title>
<path fill="none" stroke="#191970" d="M925.7799,-697.0374C841.5514,-689.2607 705.7299,-674.5567 658,-657 582.2113,-629.1223 574.2301,-600.5725 505,-559 381.3167,-484.7285 332.9696,-492.1931 222,-400 177.513,-363.0404 140.9021,-304.2566 124.0312,-274.5225"/>
<polygon fill="#191970" stroke="#191970" points="127.0027,-272.6643 119.0836,-265.6259 120.885,-276.0665 127.0027,-272.6643"/>
</g>
<!-- Node6&#45;&gt;Node4 -->
<g id="edge9" class="edge">
<title>Node6&#45;&gt;Node4</title>
<path fill="none" stroke="#191970" d="M1066.031,-701.2866C1252.3171,-696.4078 1747.6265,-681.2108 1773,-657 1843.8814,-589.3667 1819.4937,-454.2189 1807.2412,-403.9361"/>
<polygon fill="#191970" stroke="#191970" points="1810.582,-402.8723 1804.716,-394.0496 1803.7997,-404.6047 1810.582,-402.8723"/>
</g>
<!-- Node7 -->
<g id="node8" class="node">
<title>Node7</title>
<g id="a_node8"><a xlink:href="discrete__value__rule_8h.html" target="_top" xlink:title="maliput/api/rules/discrete\l_value_rule.h">
<polygon fill="#ffffff" stroke="#000000" points="1622.5,-626.5 1622.5,-656.5 1763.5,-656.5 1763.5,-626.5 1622.5,-626.5"/>
<text text-anchor="start" x="1630.5" y="-644.5" font-family="Helvetica,sans-Serif" font-size="10.00" fill="#000000">maliput/api/rules/discrete</text>
<text text-anchor="middle" x="1693" y="-633.5" font-family="Helvetica,sans-Serif" font-size="10.00" fill="#000000">_value_rule.h</text>
</a>
</g>
</g>
<!-- Node6&#45;&gt;Node7 -->
<g id="edge10" class="edge">
<title>Node6&#45;&gt;Node7</title>
<path fill="none" stroke="#191970" d="M1066.0223,-696.8216C1196.1059,-685.3436 1474.3223,-660.7951 1612.1656,-648.6324"/>
<polygon fill="#191970" stroke="#191970" points="1612.5923,-652.1085 1622.246,-647.743 1611.977,-645.1356 1612.5923,-652.1085"/>
</g>
<!-- Node6&#45;&gt;Node16 -->
<g id="edge115" class="edge">
<title>Node6&#45;&gt;Node16</title>
<path fill="none" stroke="#191970" d="M1066.2713,-701.9755C1304.54,-697.5829 2067,-675.6264 2067,-574.5 2067,-574.5 2067,-574.5 2067,-513 2067,-394.1703 2159.1482,-335.5173 2081,-246 2061.7412,-223.9394 1888.6772,-207.78 1783.5162,-199.8973"/>
<polygon fill="#191970" stroke="#191970" points="1783.4758,-196.3849 1773.2448,-199.1375 1782.9593,-203.3658 1783.4758,-196.3849"/>
</g>
<!-- Node6&#45;&gt;Node27 -->
<g id="edge114" class="edge">
<title>Node6&#45;&gt;Node27</title>
<path fill="none" stroke="#191970" d="M925.9353,-694.0273C815.6552,-677.9211 614,-639.5732 614,-574.5 614,-574.5 614,-574.5 614,-513 614,-476.9945 617.5597,-435.4524 620.2017,-409.5788"/>
<polygon fill="#191970" stroke="#191970" points="623.6952,-409.8235 621.2647,-399.5112 616.7339,-409.0884 623.6952,-409.8235"/>
</g>
<!-- Node33 -->
<g id="node34" class="node">
<title>Node33</title>
<g id="a_node34"><a xlink:href="rule_8h.html" target="_top" xlink:title="maliput/api/rules/rule.h">
<polygon fill="#ffffff" stroke="#000000" points="1274,-565 1274,-584 1404,-584 1404,-565 1274,-565"/>
<text text-anchor="middle" x="1339" y="-572" font-family="Helvetica,sans-Serif" font-size="10.00" fill="#000000">maliput/api/rules/rule.h</text>
</a>
</g>
</g>
<!-- Node6&#45;&gt;Node33 -->
<g id="edge112" class="edge">
<title>Node6&#45;&gt;Node33</title>
<path fill="none" stroke="#191970" d="M1021.5005,-693.4466C1082.0237,-670.7725 1234.44,-613.6719 1303.7322,-587.7126"/>
<polygon fill="#191970" stroke="#191970" points="1305.1951,-590.9021 1313.3316,-584.1163 1302.7393,-584.3471 1305.1951,-590.9021"/>
</g>
<!-- Node6&#45;&gt;Node35 -->
<g id="edge90" class="edge">
<title>Node6&#45;&gt;Node35</title>
<path fill="none" stroke="#191970" d="M996,-693.3416C996,-673.6745 996,-628.4221 996,-599.7784"/>
<polygon fill="#191970" stroke="#191970" points="999.5001,-599.7016 996,-589.7016 992.5001,-599.7016 999.5001,-599.7016"/>
</g>
<!-- Node36 -->
<g id="node37" class="node">
<title>Node36</title>
<g id="a_node37"><a xlink:href="traffic__lights_8h.html" target="_top" xlink:title="maliput/api/rules/traffic\l_lights.h">
<polygon fill="#ffffff" stroke="#000000" points="899.5,-436.5 899.5,-466.5 1030.5,-466.5 1030.5,-436.5 899.5,-436.5"/>
<text text-anchor="start" x="907.5" y="-454.5" font-family="Helvetica,sans-Serif" font-size="10.00" fill="#000000">maliput/api/rules/traffic</text>
<text text-anchor="middle" x="965" y="-443.5" font-family="Helvetica,sans-Serif" font-size="10.00" fill="#000000">_lights.h</text>
</a>
</g>
</g>
<!-- Node6&#45;&gt;Node36 -->
<g id="edge113" class="edge">
<title>Node6&#45;&gt;Node36</title>
<path fill="none" stroke="#191970" d="M987.0937,-693.3834C970.7497,-675.0016 936.4995,-632.8782 924,-590 912.2723,-549.7692 933.3261,-503.0452 949.3611,-475.4478"/>
<polygon fill="#191970" stroke="#191970" points="952.3749,-477.2277 954.552,-466.859 946.384,-473.607 952.3749,-477.2277"/>
</g>
<!-- Node7&#45;&gt;Node5 -->
<g id="edge12" class="edge">
<title>Node7&#45;&gt;Node5</title>
<path fill="none" stroke="#191970" d="M1708.4031,-626.3518C1743.335,-590.7789 1827.8679,-497.5157 1858,-400 1874.3616,-347.0496 1816.9626,-296.3439 1782.7396,-271.6413"/>
<polygon fill="#191970" stroke="#191970" points="1784.3894,-268.524 1774.1893,-265.6588 1780.3763,-274.2594 1784.3894,-268.524"/>
</g>
<!-- Node8 -->
<g id="node9" class="node">
<title>Node8</title>
<polygon fill="#ffffff" stroke="#bfbfbf" points="414,-.5 414,-19.5 458,-19.5 458,-.5 414,-.5"/>
<text text-anchor="middle" x="436" y="-7.5" font-family="Helvetica,sans-Serif" font-size="10.00" fill="#000000">string</text>
</g>
<!-- Node7&#45;&gt;Node8 -->
<g id="edge11" class="edge">
<title>Node7&#45;&gt;Node8</title>
<path fill="none" stroke="#191970" d="M1763.629,-627.4021C1930.0726,-589.6393 2333,-469.7931 2333,-194.5 2333,-194.5 2333,-194.5 2333,-133 2333,-57.667 2255.0106,-74.5611 2182,-56 2095.7554,-34.0744 699.2375,-13.6761 468.2423,-10.4441"/>
<polygon fill="#191970" stroke="#191970" points="468.1813,-6.943 458.1334,-10.3032 468.0837,-13.9423 468.1813,-6.943"/>
</g>
<!-- Node9 -->
<g id="node10" class="node">
<title>Node9</title>
<g id="a_node10"><a xlink:href="regions_8h.html" target="_top" xlink:title="maliput/api/regions.h">
<polygon fill="#ffffff" stroke="#000000" points="1463,-503.5 1463,-522.5 1583,-522.5 1583,-503.5 1463,-503.5"/>
<text text-anchor="middle" x="1523" y="-510.5" font-family="Helvetica,sans-Serif" font-size="10.00" fill="#000000">maliput/api/regions.h</text>
</a>
</g>
</g>
<!-- Node7&#45;&gt;Node9 -->
<g id="edge13" class="edge">
<title>Node7&#45;&gt;Node9</title>
<path fill="none" stroke="#191970" d="M1672.8312,-626.2548C1640.375,-601.7217 1576.8702,-553.7195 1543.9336,-528.8233"/>
<polygon fill="#191970" stroke="#191970" points="1545.968,-525.9737 1535.88,-522.7358 1541.747,-531.5579 1545.968,-525.9737"/>
</g>
<!-- Node7&#45;&gt;Node16 -->
<g id="edge89" class="edge">
<title>Node7&#45;&gt;Node16</title>
<path fill="none" stroke="#191970" d="M1720.262,-626.3796C1735.4156,-617.1367 1753.9833,-604.35 1768,-590 1838.4599,-517.8647 1863.2513,-496.652 1892,-400 1912.8966,-329.7463 1893.0949,-287.9625 1833,-246 1812.9745,-232.0168 1788.6099,-221.0701 1766.4099,-212.933"/>
<polygon fill="#191970" stroke="#191970" points="1767.3124,-209.5398 1756.7176,-209.5044 1764.9779,-216.139 1767.3124,-209.5398"/>
</g>
<!-- Node7&#45;&gt;Node33 -->
<g id="edge77" class="edge">
<title>Node7&#45;&gt;Node33</title>
<path fill="none" stroke="#191970" d="M1622.2136,-628.1026C1556.9428,-615.7491 1461.0932,-597.608 1399.3611,-585.9243"/>
<polygon fill="#191970" stroke="#191970" points="1399.856,-582.4559 1389.3796,-584.0351 1398.5542,-589.3338 1399.856,-582.4559"/>
</g>
<!-- Node9&#45;&gt;Node2 -->
<g id="edge16" class="edge">
<title>Node9&#45;&gt;Node2</title>
<path fill="none" stroke="#191970" d="M1462.9505,-509.9593C1228.1915,-497.7495 380.0419,-450.5067 271,-400 213.0771,-373.1709 213.2435,-344.9292 166,-302 155.1282,-292.121 142.8223,-281.2226 132.9119,-272.5143"/>
<polygon fill="#191970" stroke="#191970" points="135.0618,-269.7446 125.2346,-265.785 130.4477,-275.0086 135.0618,-269.7446"/>
</g>
<!-- Node9&#45;&gt;Node5 -->
<g id="edge17" class="edge">
<title>Node9&#45;&gt;Node5</title>
<path fill="none" stroke="#191970" d="M1524.9024,-503.3035C1528.4607,-487.4399 1537.4969,-455.7342 1556,-436 1580.1995,-410.1903 1597.8502,-420.0509 1627,-400 1663.5538,-374.8562 1671.0747,-365.7547 1701,-333 1718.2688,-314.0984 1735.61,-290.2913 1746.7707,-274.1907"/>
<polygon fill="#191970" stroke="#191970" points="1749.8236,-275.9268 1752.5804,-265.6969 1744.0459,-271.9748 1749.8236,-275.9268"/>
</g>
<!-- Node10 -->
<g id="node11" class="node">
<title>Node10</title>
<polygon fill="#ffffff" stroke="#bfbfbf" points="1005.5,-185 1005.5,-204 1052.5,-204 1052.5,-185 1005.5,-185"/>
<text text-anchor="middle" x="1029" y="-192" font-family="Helvetica,sans-Serif" font-size="10.00" fill="#000000">cmath</text>
</g>
<!-- Node9&#45;&gt;Node10 -->
<g id="edge14" class="edge">
<title>Node9&#45;&gt;Node10</title>
<path fill="none" stroke="#191970" d="M1462.6736,-510.7064C1347.6375,-505.7687 1105.826,-492.4626 1078,-467 1004.9753,-400.1777 1017.7267,-264.5362 1025.509,-214.0292"/>
<polygon fill="#191970" stroke="#191970" points="1028.973,-214.534 1027.1502,-204.0971 1022.0666,-213.3927 1028.973,-214.534"/>
</g>
<!-- Node11 -->
<g id="node12" class="node">
<title>Node11</title>
<polygon fill="#ffffff" stroke="#bfbfbf" points="1565,-442 1565,-461 1621,-461 1621,-442 1565,-442"/>
<text text-anchor="middle" x="1593" y="-449" font-family="Helvetica,sans-Serif" font-size="10.00" fill="#000000">numeric</text>
</g>
<!-- Node9&#45;&gt;Node11 -->
<g id="edge15" class="edge">
<title>Node9&#45;&gt;Node11</title>
<path fill="none" stroke="#191970" d="M1533.9375,-503.3906C1544.662,-493.9683 1561.2287,-479.4134 1574.0901,-468.1137"/>
<polygon fill="#191970" stroke="#191970" points="1576.7059,-470.4745 1581.9083,-461.2449 1572.0857,-465.2158 1576.7059,-470.4745"/>
</g>
<!-- Node12 -->
<g id="node13" class="node">
<title>Node12</title>
<g id="a_node13"><a xlink:href="api_2lane_8h.html" target="_top" xlink:title="maliput/api/lane.h">
<polygon fill="#ffffff" stroke="#000000" points="1087.5,-442 1087.5,-461 1192.5,-461 1192.5,-442 1087.5,-442"/>
<text text-anchor="middle" x="1140" y="-449" font-family="Helvetica,sans-Serif" font-size="10.00" fill="#000000">maliput/api/lane.h</text>
</a>
</g>
</g>
<!-- Node9&#45;&gt;Node12 -->
<g id="edge18" class="edge">
<title>Node9&#45;&gt;Node12</title>
<path fill="none" stroke="#191970" d="M1463.5765,-503.4581C1392.7386,-492.0834 1274.8895,-473.1598 1202.6564,-461.561"/>
<polygon fill="#191970" stroke="#191970" points="1203.2048,-458.1043 1192.7763,-459.9745 1202.0949,-465.0158 1203.2048,-458.1043"/>
</g>
<!-- Node9&#45;&gt;Node16 -->
<g id="edge76" class="edge">
<title>Node9&#45;&gt;Node16</title>
<path fill="none" stroke="#191970" d="M1552.4682,-503.349C1574.7307,-495.3588 1605.527,-482.7761 1630,-467 1648.5759,-455.0253 1765.9047,-352.1142 1777,-333 1796.698,-299.0656 1811.602,-279.99 1792,-246 1784.1721,-232.4263 1771.2494,-222.1064 1757.646,-214.4046"/>
<polygon fill="#191970" stroke="#191970" points="1759.1398,-211.2363 1748.6549,-209.7137 1755.9018,-217.4424 1759.1398,-211.2363"/>
</g>
<!-- Node9&#45;&gt;Node27 -->
<g id="edge75" class="edge">
<title>Node9&#45;&gt;Node27</title>
<path fill="none" stroke="#191970" d="M1462.8823,-510.5003C1315.2358,-504.0955 942.9443,-486.2416 890,-467 867.8572,-458.9527 868.4608,-445.7208 847,-436 821.4643,-424.4334 756.4827,-410.0499 703.047,-399.4258"/>
<polygon fill="#191970" stroke="#191970" points="703.7041,-395.9881 693.2159,-397.4874 702.3499,-402.8558 703.7041,-395.9881"/>
</g>
<!-- Node12&#45;&gt;Node1 -->
<g id="edge19" class="edge">
<title>Node12&#45;&gt;Node1</title>
<path fill="none" stroke="#191970" d="M1179.2242,-441.9271C1188.317,-439.8467 1197.9746,-437.748 1207,-436 1308.5793,-416.327 1336.7655,-425.6597 1437,-400 1440.1519,-399.1931 1443.3972,-398.2471 1446.625,-397.2273"/>
<polygon fill="#191970" stroke="#191970" points="1447.7917,-400.5275 1456.1457,-394.0113 1445.5515,-393.8957 1447.7917,-400.5275"/>
</g>
<!-- Node12&#45;&gt;Node2 -->
<g id="edge20" class="edge">
<title>Node12&#45;&gt;Node2</title>
<path fill="none" stroke="#191970" d="M1087.4427,-442.4509C1071.8862,-440.0389 1054.7915,-437.6485 1039,-436 896.2195,-421.0946 530.8491,-443.3679 394,-400 315.5874,-375.1508 310.7802,-338.3664 237,-302 209.3213,-288.3571 176.5274,-276.2818 151.7646,-267.9301"/>
<polygon fill="#191970" stroke="#191970" points="152.6145,-264.5245 142.0211,-264.6958 150.4092,-271.1681 152.6145,-264.5245"/>
</g>
<!-- Node12&#45;&gt;Node8 -->
<g id="edge21" class="edge">
<title>Node12&#45;&gt;Node8</title>
<path fill="none" stroke="#191970" d="M1192.6292,-445.4985C1418.581,-419.0385 2295,-309.0244 2295,-194.5 2295,-194.5 2295,-194.5 2295,-133 2295,-21.4011 2165.9896,-74.884 2056,-56 1894.3338,-28.2437 682.9625,-12.8853 468.4267,-10.3693"/>
<polygon fill="#191970" stroke="#191970" points="468.1912,-6.8664 458.1511,-10.2497 468.1097,-13.8659 468.1912,-6.8664"/>
</g>
<!-- Node13 -->
<g id="node14" class="node">
<title>Node13</title>
<g id="a_node14"><a xlink:href="lane__data_8h.html" target="_top" xlink:title="maliput/api/lane_data.h">
<polygon fill="#ffffff" stroke="#000000" points="1074,-375 1074,-394 1206,-394 1206,-375 1074,-375"/>
<text text-anchor="middle" x="1140" y="-382" font-family="Helvetica,sans-Serif" font-size="10.00" fill="#000000">maliput/api/lane_data.h</text>
</a>
</g>
</g>
<!-- Node12&#45;&gt;Node13 -->
<g id="edge22" class="edge">
<title>Node12&#45;&gt;Node13</title>
<path fill="none" stroke="#191970" d="M1140,-441.9005C1140,-432.149 1140,-416.7597 1140,-404.3695"/>
<polygon fill="#191970" stroke="#191970" points="1143.5001,-404.0816 1140,-394.0817 1136.5001,-404.0817 1143.5001,-404.0816"/>
</g>
<!-- Node12&#45;&gt;Node16 -->
<g id="edge73" class="edge">
<title>Node12&#45;&gt;Node16</title>
<path fill="none" stroke="#191970" d="M1181.3273,-441.9443C1244.0891,-427.4221 1356.6622,-401.3287 1361,-400 1397.8562,-388.7107 1405.7254,-382.0375 1442,-369 1489.2179,-352.0293 1504.4256,-356.036 1549,-333 1571.4683,-321.3884 1622.3733,-283.1085 1641,-266 1657.1844,-251.1347 1673.3812,-232.2854 1685.1597,-217.6729"/>
<polygon fill="#191970" stroke="#191970" points="1688.0752,-219.6295 1691.5506,-209.6209 1682.5923,-215.2777 1688.0752,-219.6295"/>
</g>
<!-- Node17 -->
<g id="node18" class="node">
<title>Node17</title>
<g id="a_node18"><a xlink:href="maliput__throw_8h.html" target="_top" xlink:title="Code in this file is inspired by: https://github.com/RobotLocomotion/drake/blob/master/common/drake_t...">
<polygon fill="#ffffff" stroke="#000000" points="366,-56.5 366,-86.5 506,-86.5 506,-56.5 366,-56.5"/>
<text text-anchor="start" x="374" y="-74.5" font-family="Helvetica,sans-Serif" font-size="10.00" fill="#000000">maliput/common/maliput</text>
<text text-anchor="middle" x="436" y="-63.5" font-family="Helvetica,sans-Serif" font-size="10.00" fill="#000000">_throw.h</text>
</a>
</g>
</g>
<!-- Node12&#45;&gt;Node17 -->
<g id="edge74" class="edge">
<title>Node12&#45;&gt;Node17</title>
<path fill="none" stroke="#191970" d="M1118.9598,-441.9704C1079.1013,-424.369 989.4525,-386.9255 910,-369 831.3565,-351.2571 619.3694,-372.3416 549,-333 462.7982,-284.807 442.3219,-152.6893 437.4846,-96.8972"/>
<polygon fill="#191970" stroke="#191970" points="440.965,-96.5072 436.7108,-86.804 433.9855,-97.0423 440.965,-96.5072"/>
</g>
<!-- Node12&#45;&gt;Node27 -->
<g id="edge54" class="edge">
<title>Node12&#45;&gt;Node27</title>
<path fill="none" stroke="#191970" d="M1087.3654,-443.0917C1071.807,-440.6957 1054.7306,-438.1535 1039,-436 906.3882,-417.8459 872.7914,-416.7895 740,-400 728.1684,-398.5041 715.6689,-396.8871 703.4169,-395.2816"/>
<polygon fill="#191970" stroke="#191970" points="703.5745,-391.7722 693.2035,-393.9385 702.6618,-398.7125 703.5745,-391.7722"/>
</g>
<!-- Node13&#45;&gt;Node8 -->
<g id="edge25" class="edge">
<title>Node13&#45;&gt;Node8</title>
<path fill="none" stroke="#191970" d="M1137.5397,-374.8722C1127.961,-338.0901 1092.1492,-207.0975 1061,-179 970.2482,-97.1393 582.6895,-32.4062 468.0583,-14.7713"/>
<polygon fill="#191970" stroke="#191970" points="468.5512,-11.3061 458.1378,-13.2583 467.4957,-18.2261 468.5512,-11.3061"/>
</g>
<!-- Node14 -->
<g id="node15" class="node">
<title>Node14</title>
<polygon fill="#ffffff" stroke="#bfbfbf" points="911.5,-246.5 911.5,-265.5 976.5,-265.5 976.5,-246.5 911.5,-246.5"/>
<text text-anchor="middle" x="944" y="-253.5" font-family="Helvetica,sans-Serif" font-size="10.00" fill="#000000">functional</text>
</g>
<!-- Node13&#45;&gt;Node14 -->
<g id="edge23" class="edge">
<title>Node13&#45;&gt;Node14</title>
<path fill="none" stroke="#191970" d="M1125.2681,-374.8416C1091.4162,-352.6478 1007.8678,-297.8725 967.109,-271.1505"/>
<polygon fill="#191970" stroke="#191970" points="968.9174,-268.151 958.6354,-265.5952 965.0794,-274.0051 968.9174,-268.151"/>
</g>
<!-- Node15 -->
<g id="node16" class="node">
<title>Node15</title>
<polygon fill="#ffffff" stroke="#bfbfbf" points="1150.5,-185 1150.5,-204 1207.5,-204 1207.5,-185 1150.5,-185"/>
<text text-anchor="middle" x="1179" y="-192" font-family="Helvetica,sans-Serif" font-size="10.00" fill="#000000">ostream</text>
</g>
<!-- Node13&#45;&gt;Node15 -->
<g id="edge24" class="edge">
<title>Node13&#45;&gt;Node15</title>
<path fill="none" stroke="#191970" d="M1137.6315,-374.7335C1132.4848,-351.5787 1121.9753,-291.857 1138,-246 1142.5488,-232.9829 1151.9174,-220.796 1160.552,-211.5484"/>
<polygon fill="#191970" stroke="#191970" points="1163.2531,-213.7953 1167.8115,-204.2313 1158.2838,-208.8652 1163.2531,-213.7953"/>
</g>
<!-- Node13&#45;&gt;Node16 -->
<g id="edge26" class="edge">
<title>Node13&#45;&gt;Node16</title>
<path fill="none" stroke="#191970" d="M1206.3247,-377.5624C1289.0803,-368.3327 1425.498,-351.0667 1473,-333 1496.7368,-323.9721 1499.485,-315.4923 1521,-302 1561.5536,-276.5685 1571.7783,-270.3337 1613,-246 1630.7893,-235.4987 1650.7137,-224.0642 1667.2848,-214.6431"/>
<polygon fill="#191970" stroke="#191970" points="1669.141,-217.6141 1676.1112,-209.635 1665.6864,-211.5259 1669.141,-217.6141"/>
</g>
<!-- Node13&#45;&gt;Node17 -->
<g id="edge27" class="edge">
<title>Node13&#45;&gt;Node17</title>
<path fill="none" stroke="#191970" d="M1073.7895,-379.1265C934.8192,-367.7157 623.6892,-341.4216 602,-333 578.923,-324.0396 528.0059,-285.6891 513,-266 491.8108,-238.1979 458.9484,-142.2262 443.9503,-96.3293"/>
<polygon fill="#191970" stroke="#191970" points="447.1998,-95.0031 440.7847,-86.5712 440.5414,-97.1633 447.1998,-95.0031"/>
</g>
<!-- Node18 -->
<g id="node19" class="node">
<title>Node18</title>
<g id="a_node19"><a xlink:href="matrix_8h.html" target="_top" xlink:title="maliput/math/matrix.h">
<polygon fill="#ffffff" stroke="#000000" points="1389.5,-185 1389.5,-204 1516.5,-204 1516.5,-185 1389.5,-185"/>
<text text-anchor="middle" x="1453" y="-192" font-family="Helvetica,sans-Serif" font-size="10.00" fill="#000000">maliput/math/matrix.h</text>
</a>
</g>
</g>
<!-- Node13&#45;&gt;Node18 -->
<g id="edge29" class="edge">
<title>Node13&#45;&gt;Node18</title>
<path fill="none" stroke="#191970" d="M1205.8237,-374.9937C1262.4165,-365.8171 1338.7838,-350.7299 1364,-333 1407.2938,-302.5596 1434.5208,-243.6945 1446.2731,-213.4504"/>
<polygon fill="#191970" stroke="#191970" points="1449.5678,-214.6324 1449.7857,-204.0398 1443.0097,-212.1845 1449.5678,-214.6324"/>
</g>
<!-- Node24 -->
<g id="node25" class="node">
<title>Node24</title>
<g id="a_node25"><a xlink:href="vector_8h.html" target="_top" xlink:title="maliput/math/vector.h">
<polygon fill="#ffffff" stroke="#000000" points="1223.5,-123.5 1223.5,-142.5 1348.5,-142.5 1348.5,-123.5 1223.5,-123.5"/>
<text text-anchor="middle" x="1286" y="-130.5" font-family="Helvetica,sans-Serif" font-size="10.00" fill="#000000">maliput/math/vector.h</text>
</a>
</g>
</g>
<!-- Node13&#45;&gt;Node24 -->
<g id="edge53" class="edge">
<title>Node13&#45;&gt;Node24</title>
<path fill="none" stroke="#191970" d="M1147.8638,-374.8162C1163.7413,-355.4443 1199.4372,-312.8466 1215,-302 1250.0058,-277.6026 1280.1469,-301.379 1304,-266 1327.4469,-231.2235 1309.0215,-179.5965 1296.0158,-152.0092"/>
<polygon fill="#191970" stroke="#191970" points="1298.9758,-150.1002 1291.3952,-142.6984 1292.7054,-153.212 1298.9758,-150.1002"/>
</g>
<!-- Node25 -->
<g id="node26" class="node">
<title>Node25</title>
<g id="a_node26"><a xlink:href="quaternion_8h.html" target="_top" xlink:title="Code in this file is inspired by: https://gitlab.com/libeigen/eigen/&#45;/blob/master/Eigen/src/Geometry/...">
<polygon fill="#ffffff" stroke="#000000" points="1147.5,-246.5 1147.5,-265.5 1294.5,-265.5 1294.5,-246.5 1147.5,-246.5"/>
<text text-anchor="middle" x="1221" y="-253.5" font-family="Helvetica,sans-Serif" font-size="10.00" fill="#000000">maliput/math/quaternion.h</text>
</a>
</g>
</g>
<!-- Node13&#45;&gt;Node25 -->
<g id="edge42" class="edge">
<title>Node13&#45;&gt;Node25</title>
<path fill="none" stroke="#191970" d="M1143.8159,-374.9186C1150.3255,-359.0835 1164.4863,-326.7448 1181,-302 1187.856,-291.7267 1196.7738,-281.2604 1204.4488,-272.912"/>
<polygon fill="#191970" stroke="#191970" points="1207.0008,-275.3073 1211.3187,-265.6322 1201.9098,-270.5029 1207.0008,-275.3073"/>
</g>
<!-- Node26 -->
<g id="node27" class="node">
<title>Node26</title>
<g id="a_node27"><a xlink:href="roll__pitch__yaw_8h.html" target="_top" xlink:title="Code in this file is inspired by: https://github.com/RobotLocomotion/drake/blob/master/math/roll_pitc...">
<polygon fill="#ffffff" stroke="#000000" points="1223.5,-302.5 1223.5,-332.5 1354.5,-332.5 1354.5,-302.5 1223.5,-302.5"/>
<text text-anchor="start" x="1231.5" y="-320.5" font-family="Helvetica,sans-Serif" font-size="10.00" fill="#000000">maliput/math/roll_pitch</text>
<text text-anchor="middle" x="1289" y="-309.5" font-family="Helvetica,sans-Serif" font-size="10.00" fill="#000000">_yaw.h</text>
</a>
</g>
</g>
<!-- Node13&#45;&gt;Node26 -->
<g id="edge48" class="edge">
<title>Node13&#45;&gt;Node26</title>
<path fill="none" stroke="#191970" d="M1161.3481,-374.9005C1183.4706,-364.9528 1218.6404,-349.1382 1246.4674,-336.6254"/>
<polygon fill="#191970" stroke="#191970" points="1247.9084,-339.8151 1255.5934,-332.5218 1245.0376,-333.4308 1247.9084,-339.8151"/>
</g>
<!-- Node17&#45;&gt;Node8 -->
<g id="edge28" class="edge">
<title>Node17&#45;&gt;Node8</title>
<path fill="none" stroke="#191970" d="M436,-56.2977C436,-48.3834 436,-38.6043 436,-30.0759"/>
<polygon fill="#191970" stroke="#191970" points="439.5001,-29.8469 436,-19.8469 432.5001,-29.847 439.5001,-29.8469"/>
</g>
<!-- Node19 -->
<g id="node20" class="node">
<title>Node19</title>
<polygon fill="#ffffff" stroke="#bfbfbf" points="1983,-62 1983,-81 2047,-81 2047,-62 1983,-62"/>
<text text-anchor="middle" x="2015" y="-69" font-family="Helvetica,sans-Serif" font-size="10.00" fill="#000000">algorithm</text>
</g>
<!-- Node18&#45;&gt;Node19 -->
<g id="edge30" class="edge">
<title>Node18&#45;&gt;Node19</title>
<path fill="none" stroke="#191970" d="M1496.6316,-184.9507C1601.9577,-161.8989 1869.071,-103.4382 1972.8556,-80.7238"/>
<polygon fill="#191970" stroke="#191970" points="1973.6478,-84.1333 1982.6683,-78.5762 1972.1512,-77.2952 1973.6478,-84.1333"/>
</g>
<!-- Node20 -->
<g id="node21" class="node">
<title>Node20</title>
<polygon fill="#ffffff" stroke="#bfbfbf" points="1352,-62 1352,-81 1394,-81 1394,-62 1352,-62"/>
<text text-anchor="middle" x="1373" y="-69" font-family="Helvetica,sans-Serif" font-size="10.00" fill="#000000">array</text>
</g>
<!-- Node18&#45;&gt;Node20 -->
<g id="edge31" class="edge">
<title>Node18&#45;&gt;Node20</title>
<path fill="none" stroke="#191970" d="M1451.3021,-184.5645C1448.482,-170.0881 1441.8283,-142.7719 1429,-123 1419.9753,-109.0905 1406.3361,-96.4391 1394.7778,-87.1564"/>
<polygon fill="#191970" stroke="#191970" points="1396.8812,-84.3586 1386.8252,-81.0228 1392.6061,-89.9015 1396.8812,-84.3586"/>
</g>
<!-- Node21 -->
<g id="node22" class="node">
<title>Node21</title>
<polygon fill="#ffffff" stroke="#bfbfbf" points="1266.5,-62 1266.5,-81 1319.5,-81 1319.5,-62 1266.5,-62"/>
<text text-anchor="middle" x="1293" y="-69" font-family="Helvetica,sans-Serif" font-size="10.00" fill="#000000">cstddef</text>
</g>
<!-- Node18&#45;&gt;Node21 -->
<g id="edge32" class="edge">
<title>Node18&#45;&gt;Node21</title>
<path fill="none" stroke="#191970" d="M1446.3281,-184.6865C1435.8856,-169.8757 1414.4358,-141.5726 1391,-123 1371.3234,-107.4065 1346.2117,-94.3178 1326.3345,-85.2377"/>
<polygon fill="#191970" stroke="#191970" points="1327.6035,-81.9716 1317.0438,-81.1087 1324.7606,-88.3683 1327.6035,-81.9716"/>
</g>
<!-- Node22 -->
<g id="node23" class="node">
<title>Node22</title>
<polygon fill="#ffffff" stroke="#bfbfbf" points="1420.5,-62 1420.5,-81 1503.5,-81 1503.5,-62 1420.5,-62"/>
<text text-anchor="middle" x="1462" y="-69" font-family="Helvetica,sans-Serif" font-size="10.00" fill="#000000">initializer_list</text>
</g>
<!-- Node18&#45;&gt;Node22 -->
<g id="edge33" class="edge">
<title>Node18&#45;&gt;Node22</title>
<path fill="none" stroke="#191970" d="M1456.4731,-184.7863C1459.935,-174.5493 1465.0138,-157.878 1467,-143 1469.3127,-125.6764 1467.5826,-105.8395 1465.5498,-91.4617"/>
<polygon fill="#191970" stroke="#191970" points="1468.9535,-90.5797 1463.9259,-81.2537 1462.0405,-91.6794 1468.9535,-90.5797"/>
</g>
<!-- Node23 -->
<g id="node24" class="node">
<title>Node23</title>
<polygon fill="#ffffff" stroke="#bfbfbf" points="1188,-62 1188,-81 1248,-81 1248,-62 1188,-62"/>
<text text-anchor="middle" x="1218" y="-69" font-family="Helvetica,sans-Serif" font-size="10.00" fill="#000000">iostream</text>
</g>
<!-- Node18&#45;&gt;Node23 -->
<g id="edge34" class="edge">
<title>Node18&#45;&gt;Node23</title>
<path fill="none" stroke="#191970" d="M1442.6129,-184.9986C1425.8738,-170.0929 1391.4163,-141.055 1358,-123 1316.4414,-100.5457 1302.2482,-103.535 1258,-87 1256.1164,-86.2961 1254.1851,-85.5683 1252.2373,-84.8294"/>
<polygon fill="#191970" stroke="#191970" points="1253.0933,-81.4094 1242.5029,-81.1024 1250.5903,-87.9467 1253.0933,-81.4094"/>
</g>
<!-- Node18&#45;&gt;Node24 -->
<g id="edge35" class="edge">
<title>Node18&#45;&gt;Node24</title>
<path fill="none" stroke="#191970" d="M1426.9063,-184.8906C1398.5964,-174.4652 1353.2232,-157.7559 1321.6408,-146.1252"/>
<polygon fill="#191970" stroke="#191970" points="1322.504,-142.7133 1311.9105,-142.5419 1320.0849,-149.2821 1322.504,-142.7133"/>
</g>
<!-- Node24&#45;&gt;Node17 -->
<g id="edge41" class="edge">
<title>Node24&#45;&gt;Node17</title>
<path fill="none" stroke="#191970" d="M1223.4975,-128.4778C1071.8955,-117.5089 684.7492,-89.4977 516.3091,-77.3106"/>
<polygon fill="#191970" stroke="#191970" points="516.4904,-73.8147 506.2638,-76.5838 515.9851,-80.7964 516.4904,-73.8147"/>
</g>
<!-- Node24&#45;&gt;Node19 -->
<g id="edge36" class="edge">
<title>Node24&#45;&gt;Node19</title>
<path fill="none" stroke="#191970" d="M1348.7851,-127.7033C1494.0947,-115.4447 1850.467,-85.3804 1972.8951,-75.0521"/>
<polygon fill="#191970" stroke="#191970" points="1973.3223,-78.5285 1982.9927,-74.2002 1972.7338,-71.5533 1973.3223,-78.5285"/>
</g>
<!-- Node24&#45;&gt;Node20 -->
<g id="edge37" class="edge">
<title>Node24&#45;&gt;Node20</title>
<path fill="none" stroke="#191970" d="M1299.5938,-123.3906C1313.3843,-113.6421 1334.9472,-98.3994 1351.141,-86.9521"/>
<polygon fill="#191970" stroke="#191970" points="1353.3563,-89.6723 1359.5017,-81.0419 1349.3156,-83.9563 1353.3563,-89.6723"/>
</g>
<!-- Node24&#45;&gt;Node21 -->
<g id="edge38" class="edge">
<title>Node24&#45;&gt;Node21</title>
<path fill="none" stroke="#191970" d="M1287.0938,-123.3906C1288.0641,-114.8657 1289.5126,-102.1392 1290.7323,-91.4235"/>
<polygon fill="#191970" stroke="#191970" points="1294.2374,-91.5766 1291.8908,-81.2449 1287.2823,-90.7849 1294.2374,-91.5766"/>
</g>
<!-- Node24&#45;&gt;Node22 -->
<g id="edge39" class="edge">
<title>Node24&#45;&gt;Node22</title>
<path fill="none" stroke="#191970" d="M1313.5,-123.3906C1343.4647,-112.92 1391.5683,-96.1111 1424.8698,-84.4745"/>
<polygon fill="#191970" stroke="#191970" points="1426.4074,-87.6448 1434.6931,-81.0419 1424.0983,-81.0366 1426.4074,-87.6448"/>
</g>
<!-- Node24&#45;&gt;Node23 -->
<g id="edge40" class="edge">
<title>Node24&#45;&gt;Node23</title>
<path fill="none" stroke="#191970" d="M1275.375,-123.3906C1264.9569,-113.9683 1248.8636,-99.4134 1236.3696,-88.1137"/>
<polygon fill="#191970" stroke="#191970" points="1238.5392,-85.3568 1228.7748,-81.2449 1233.8438,-90.5484 1238.5392,-85.3568"/>
</g>
<!-- Node25&#45;&gt;Node10 -->
<g id="edge43" class="edge">
<title>Node25&#45;&gt;Node10</title>
<path fill="none" stroke="#191970" d="M1191,-246.3906C1156.1014,-235.2122 1098.6488,-216.8094 1062.3702,-205.1889"/>
<polygon fill="#191970" stroke="#191970" points="1063.3266,-201.8201 1052.7355,-202.1028 1061.1912,-208.4865 1063.3266,-201.8201"/>
</g>
<!-- Node25&#45;&gt;Node15 -->
<g id="edge44" class="edge">
<title>Node25&#45;&gt;Node15</title>
<path fill="none" stroke="#191970" d="M1214.4375,-246.3906C1208.3092,-237.417 1199.0015,-223.7879 1191.4628,-212.7491"/>
<polygon fill="#191970" stroke="#191970" points="1194.185,-210.529 1185.655,-204.2449 1188.4044,-214.4768 1194.185,-210.529"/>
</g>
<!-- Node25&#45;&gt;Node16 -->
<g id="edge45" class="edge">
<title>Node25&#45;&gt;Node16</title>
<path fill="none" stroke="#191970" d="M1294.7301,-246.5925C1383.3143,-235.2898 1531.3943,-216.3957 1622.7742,-204.7363"/>
<polygon fill="#191970" stroke="#191970" points="1623.3292,-208.1939 1632.8058,-203.4563 1622.4432,-201.2502 1623.3292,-208.1939"/>
</g>
<!-- Node25&#45;&gt;Node18 -->
<g id="edge46" class="edge">
<title>Node25&#45;&gt;Node18</title>
<path fill="none" stroke="#191970" d="M1256.9954,-246.4581C1297.3777,-235.7533 1362.9811,-218.3628 1407.0388,-206.6837"/>
<polygon fill="#191970" stroke="#191970" points="1408.1508,-210.0099 1416.9201,-204.0643 1406.3571,-203.2436 1408.1508,-210.0099"/>
</g>
<!-- Node25&#45;&gt;Node24 -->
<g id="edge47" class="edge">
<title>Node25&#45;&gt;Node24</title>
<path fill="none" stroke="#191970" d="M1226.1004,-246.3484C1236.8748,-225.9601 1262.1121,-178.2033 1276.1465,-151.6459"/>
<polygon fill="#191970" stroke="#191970" points="1279.3454,-153.0835 1280.9233,-142.6068 1273.1564,-149.8128 1279.3454,-153.0835"/>
</g>
<!-- Node26&#45;&gt;Node16 -->
<g id="edge49" class="edge">
<title>Node26&#45;&gt;Node16</title>
<path fill="none" stroke="#191970" d="M1330.123,-302.3964C1372.2318,-287.1918 1439.7267,-263.5411 1499,-246 1541.2812,-233.4875 1589.0466,-221.3243 1627.7233,-211.9632"/>
<polygon fill="#191970" stroke="#191970" points="1628.9605,-215.2655 1637.8638,-209.5225 1627.3224,-208.4598 1628.9605,-215.2655"/>
</g>
<!-- Node26&#45;&gt;Node18 -->
<g id="edge50" class="edge">
<title>Node26&#45;&gt;Node18</title>
<path fill="none" stroke="#191970" d="M1317.4167,-302.403C1334.6329,-292.7948 1356.7242,-279.6286 1375,-266 1397.5728,-249.1671 1421.078,-226.8585 1436.3066,-211.6661"/>
<polygon fill="#191970" stroke="#191970" points="1438.9165,-214.0047 1443.4669,-204.4368 1433.943,-209.0787 1438.9165,-214.0047"/>
</g>
<!-- Node26&#45;&gt;Node24 -->
<g id="edge52" class="edge">
<title>Node26&#45;&gt;Node24</title>
<path fill="none" stroke="#191970" d="M1309.1974,-302.232C1319.6416,-293.029 1331.3577,-280.3293 1337,-266 1351.1668,-230.022 1352.712,-214.3305 1337,-179 1331.5492,-166.7432 1321.0401,-156.3755 1310.9711,-148.6036"/>
<polygon fill="#191970" stroke="#191970" points="1312.904,-145.6828 1302.7373,-142.7012 1308.8256,-151.3721 1312.904,-145.6828"/>
</g>
<!-- Node26&#45;&gt;Node25 -->
<g id="edge51" class="edge">
<title>Node26&#45;&gt;Node25</title>
<path fill="none" stroke="#191970" d="M1272.191,-302.2977C1262.2603,-293.3163 1249.6743,-281.9334 1239.4673,-272.702"/>
<polygon fill="#191970" stroke="#191970" points="1241.652,-269.9588 1231.8877,-265.8469 1236.9566,-275.1505 1241.652,-269.9588"/>
</g>
<!-- Node27&#45;&gt;Node8 -->
<g id="edge56" class="edge">
<title>Node27&#45;&gt;Node8</title>
<path fill="none" stroke="#191970" d="M552.9603,-369.5603C510.956,-359.5929 462.4077,-345.9811 445,-333 343.0795,-256.9964 325.4959,-211.3475 299,-87 296.1287,-73.5247 290.9562,-67.1859 299,-56 311.3986,-38.7581 367.3091,-24.2041 403.762,-16.3229"/>
<polygon fill="#191970" stroke="#191970" points="404.8606,-19.6686 413.9277,-14.1879 403.4218,-12.8181 404.8606,-19.6686"/>
</g>
<!-- Node27&#45;&gt;Node14 -->
<g id="edge55" class="edge">
<title>Node27&#45;&gt;Node14</title>
<path fill="none" stroke="#191970" d="M686.3365,-369.4921C720.5759,-360.5317 763.2519,-347.9807 800,-333 843.8698,-315.1161 891.8256,-287.7699 919.8395,-270.9354"/>
<polygon fill="#191970" stroke="#191970" points="921.8054,-273.8365 928.5407,-265.6581 918.1754,-267.8513 921.8054,-273.8365"/>
</g>
<!-- Node27&#45;&gt;Node16 -->
<g id="edge58" class="edge">
<title>Node27&#45;&gt;Node16</title>
<path fill="none" stroke="#191970" d="M693.1185,-374.2827C708.5369,-372.2955 724.7992,-370.3983 740,-369 894.0013,-354.8334 1290.7039,-388.6393 1435,-333 1455.3365,-325.1584 1454.9027,-314.147 1473,-302 1516.2641,-272.9608 1528.8927,-268.2703 1576,-246 1600.9548,-234.2024 1629.3742,-222.5209 1652.9929,-213.2732"/>
<polygon fill="#191970" stroke="#191970" points="1654.4062,-216.479 1662.4602,-209.5955 1651.8715,-209.9541 1654.4062,-216.479"/>
</g>
<!-- Node27&#45;&gt;Node17 -->
<g id="edge72" class="edge">
<title>Node27&#45;&gt;Node17</title>
<path fill="none" stroke="#191970" d="M566.4391,-369.3975C517.7257,-352.9598 450.8481,-321.3127 422,-266 393.2575,-210.8898 412.9417,-134.7898 426.3758,-96.1507"/>
<polygon fill="#191970" stroke="#191970" points="429.6727,-97.3254 429.7885,-86.7312 423.0913,-94.9409 429.6727,-97.3254"/>
</g>
<!-- Node28 -->
<g id="node29" class="node">
<title>Node28</title>
<polygon fill="#ffffff" stroke="#bfbfbf" points="848.5,-246.5 848.5,-265.5 893.5,-265.5 893.5,-246.5 848.5,-246.5"/>
<text text-anchor="middle" x="871" y="-253.5" font-family="Helvetica,sans-Serif" font-size="10.00" fill="#000000">utility</text>
</g>
<!-- Node27&#45;&gt;Node28 -->
<g id="edge57" class="edge">
<title>Node27&#45;&gt;Node28</title>
<path fill="none" stroke="#191970" d="M671.811,-369.4338C698.549,-360.3766 731.8716,-347.7523 760,-333 793.9546,-315.1921 829.8079,-288.7283 851.2887,-271.9254"/>
<polygon fill="#191970" stroke="#191970" points="853.6382,-274.5294 859.3064,-265.5783 849.2934,-269.041 853.6382,-274.5294"/>
</g>
<!-- Node29 -->
<g id="node30" class="node">
<title>Node29</title>
<g id="a_node30"><a xlink:href="maliput__hash_8h.html" target="_top" xlink:title="Code in this file is inspired by: https://github.com/RobotLocomotion/drake/blob/master/common/hash.h. ">
<polygon fill="#ffffff" stroke="#000000" points="611,-302.5 611,-332.5 751,-332.5 751,-302.5 611,-302.5"/>
<text text-anchor="start" x="619" y="-320.5" font-family="Helvetica,sans-Serif" font-size="10.00" fill="#000000">maliput/common/maliput</text>
<text text-anchor="middle" x="681" y="-309.5" font-family="Helvetica,sans-Serif" font-size="10.00" fill="#000000">_hash.h</text>
</a>
</g>
</g>
<!-- Node27&#45;&gt;Node29 -->
<g id="edge59" class="edge">
<title>Node27&#45;&gt;Node29</title>
<path fill="none" stroke="#191970" d="M636.1611,-369.2967C643.5768,-360.7303 652.9857,-349.8614 661.2677,-340.2943"/>
<polygon fill="#191970" stroke="#191970" points="663.9922,-342.4946 667.891,-332.6432 658.6997,-337.913 663.9922,-342.4946"/>
</g>
<!-- Node29&#45;&gt;Node2 -->
<g id="edge65" class="edge">
<title>Node29&#45;&gt;Node2</title>
<path fill="none" stroke="#191970" d="M610.906,-309.8972C490.083,-296.7921 246.5134,-270.3731 152.3637,-260.1611"/>
<polygon fill="#191970" stroke="#191970" points="152.4788,-256.6532 142.1596,-259.0544 151.7239,-263.6124 152.4788,-256.6532"/>
</g>
<!-- Node29&#45;&gt;Node5 -->
<g id="edge70" class="edge">
<title>Node29&#45;&gt;Node5</title>
<path fill="none" stroke="#191970" d="M751.3148,-313.4885C960.6339,-301.5469 1574.5074,-266.5253 1725.2701,-257.9243"/>
<polygon fill="#191970" stroke="#191970" points="1725.5284,-261.4153 1735.3128,-257.3514 1725.1296,-254.4267 1725.5284,-261.4153"/>
</g>
<!-- Node29&#45;&gt;Node8 -->
<g id="edge67" class="edge">
<title>Node29&#45;&gt;Node8</title>
<path fill="none" stroke="#191970" d="M610.9144,-303.0385C579.7097,-294.861 543.2586,-282.8311 513,-266 407.2964,-207.2032 358.038,-197.1205 308,-87 302.3003,-74.4565 300.0745,-67.27 308,-56 319.2637,-39.9831 369.6526,-25.4133 403.7468,-17.1376"/>
<polygon fill="#191970" stroke="#191970" points="404.8155,-20.4816 413.7433,-14.7767 403.2065,-13.669 404.8155,-20.4816"/>
</g>
<!-- Node29&#45;&gt;Node10 -->
<g id="edge60" class="edge">
<title>Node29&#45;&gt;Node10</title>
<path fill="none" stroke="#191970" d="M715.0234,-302.4164C737.9442,-292.2174 768.8354,-278.3991 796,-266 815.1742,-257.2481 819.2009,-253.2278 839,-246 892.5549,-226.4495 956.9915,-210.5105 995.3878,-201.7777"/>
<polygon fill="#191970" stroke="#191970" points="996.5057,-205.114 1005.4963,-199.5087 994.9725,-198.2839 996.5057,-205.114"/>
</g>
<!-- Node29&#45;&gt;Node14 -->
<g id="edge62" class="edge">
<title>Node29&#45;&gt;Node14</title>
<path fill="none" stroke="#191970" d="M745.8099,-302.4834C787.5432,-292.7937 843.2227,-279.8288 901.6608,-266.0721"/>
<polygon fill="#191970" stroke="#191970" points="902.5132,-269.4672 911.4443,-263.7676 900.9082,-262.6536 902.5132,-269.4672"/>
</g>
<!-- Node29&#45;&gt;Node17 -->
<g id="edge71" class="edge">
<title>Node29&#45;&gt;Node17</title>
<path fill="none" stroke="#191970" d="M610.7738,-307.6511C582.6463,-300.4036 551.9987,-287.8258 531,-266 484.9866,-218.1741 522.1877,-179.8836 488,-123 481.4696,-112.1343 472.1308,-101.9154 463.1647,-93.4897"/>
<polygon fill="#191970" stroke="#191970" points="465.2413,-90.6505 455.4613,-86.5758 460.5656,-95.86 465.2413,-90.6505"/>
</g>
<!-- Node29&#45;&gt;Node21 -->
<g id="edge61" class="edge">
<title>Node29&#45;&gt;Node21</title>
<path fill="none" stroke="#191970" d="M702.8069,-302.3353C725.4548,-286.9747 762.2349,-263.1046 796,-246 989.3407,-148.0582 1053.7749,-162.318 1257,-87 1258.8185,-86.3261 1260.6782,-85.6101 1262.5475,-84.8697"/>
<polygon fill="#191970" stroke="#191970" points="1263.9137,-88.0924 1271.8269,-81.0473 1261.2475,-81.62 1263.9137,-88.0924"/>
</g>
<!-- Node29&#45;&gt;Node23 -->
<g id="edge63" class="edge">
<title>Node29&#45;&gt;Node23</title>
<path fill="none" stroke="#191970" d="M696.3318,-302.4688C705.4648,-292.7842 716.668,-279.5143 724,-266 755.7103,-207.5519 716.8476,-165.4872 768,-123 799.2512,-97.0427 1073.2828,-79.4338 1177.7675,-73.6096"/>
<polygon fill="#191970" stroke="#191970" points="1178.1233,-77.0954 1187.916,-73.0513 1177.7388,-70.1059 1178.1233,-77.0954"/>
</g>
<!-- Node29&#45;&gt;Node28 -->
<g id="edge69" class="edge">
<title>Node29&#45;&gt;Node28</title>
<path fill="none" stroke="#191970" d="M727.4792,-302.4554C761.9269,-291.3052 808.0094,-276.3891 838.5566,-266.5014"/>
<polygon fill="#191970" stroke="#191970" points="839.8452,-269.7632 848.2813,-263.3537 837.6894,-263.1034 839.8452,-269.7632"/>
</g>
<!-- Node30 -->
<g id="node31" class="node">
<title>Node30</title>
<polygon fill="#ffffff" stroke="#bfbfbf" points="540,-246.5 540,-265.5 578,-265.5 578,-246.5 540,-246.5"/>
<text text-anchor="middle" x="559" y="-253.5" font-family="Helvetica,sans-Serif" font-size="10.00" fill="#000000">map</text>
</g>
<!-- Node29&#45;&gt;Node30 -->
<g id="edge64" class="edge">
<title>Node29&#45;&gt;Node30</title>
<path fill="none" stroke="#191970" d="M651.1554,-302.4554C631.603,-292.599 606.2128,-279.7999 587.0355,-270.1327"/>
<polygon fill="#191970" stroke="#191970" points="588.4108,-266.9064 577.9057,-265.5303 585.2598,-273.1571 588.4108,-266.9064"/>
</g>
<!-- Node31 -->
<g id="node32" class="node">
<title>Node31</title>
<polygon fill="#ffffff" stroke="#bfbfbf" points="596,-246.5 596,-265.5 628,-265.5 628,-246.5 596,-246.5"/>
<text text-anchor="middle" x="612" y="-253.5" font-family="Helvetica,sans-Serif" font-size="10.00" fill="#000000">set</text>
</g>
<!-- Node29&#45;&gt;Node31 -->
<g id="edge66" class="edge">
<title>Node29&#45;&gt;Node31</title>
<path fill="none" stroke="#191970" d="M663.9438,-302.2977C653.8671,-293.3163 641.096,-281.9334 630.7389,-272.702"/>
<polygon fill="#191970" stroke="#191970" points="632.8417,-269.8879 623.0478,-265.8469 628.1841,-275.1135 632.8417,-269.8879"/>
</g>
<!-- Node32 -->
<g id="node33" class="node">
<title>Node32</title>
<polygon fill="#ffffff" stroke="#bfbfbf" points="646.5,-246.5 646.5,-265.5 715.5,-265.5 715.5,-246.5 646.5,-246.5"/>
<text text-anchor="middle" x="681" y="-253.5" font-family="Helvetica,sans-Serif" font-size="10.00" fill="#000000">type_traits</text>
</g>
<!-- Node29&#45;&gt;Node32 -->
<g id="edge68" class="edge">
<title>Node29&#45;&gt;Node32</title>
<path fill="none" stroke="#191970" d="M681,-302.2977C681,-294.3834 681,-284.6043 681,-276.0759"/>
<polygon fill="#191970" stroke="#191970" points="684.5001,-275.8469 681,-265.8469 677.5001,-275.847 684.5001,-275.8469"/>
</g>
<!-- Node33&#45;&gt;Node5 -->
<g id="edge80" class="edge">
<title>Node33&#45;&gt;Node5</title>
<path fill="none" stroke="#191970" d="M1404.2725,-566.7389C1468.6255,-558.1195 1561.6159,-542.7735 1592,-523 1686.5639,-461.4592 1737.187,-325.6425 1753.2641,-275.2834"/>
<polygon fill="#191970" stroke="#191970" points="1756.6351,-276.2293 1756.2488,-265.6415 1749.9482,-274.1592 1756.6351,-276.2293"/>
</g>
<!-- Node33&#45;&gt;Node8 -->
<g id="edge79" class="edge">
<title>Node33&#45;&gt;Node8</title>
<path fill="none" stroke="#191970" d="M1273.8636,-569.7753C1185.6697,-562.7651 1023.59,-547.7106 887,-523 664.7796,-482.7979 543.2431,-569.4834 394,-400 292.3773,-284.5953 280.3604,-189.3109 357,-56 367.1169,-38.4021 386.8436,-26.9064 404.0527,-19.808"/>
<polygon fill="#191970" stroke="#191970" points="405.6853,-22.9327 413.8026,-16.1238 403.2109,-16.3846 405.6853,-22.9327"/>
</g>
<!-- Node33&#45;&gt;Node9 -->
<g id="edge81" class="edge">
<title>Node33&#45;&gt;Node9</title>
<path fill="none" stroke="#191970" d="M1367.75,-564.8906C1399.2117,-554.3749 1449.8008,-537.466 1484.6314,-525.8243"/>
<polygon fill="#191970" stroke="#191970" points="1486.0772,-529.0315 1494.4519,-522.5419 1483.8581,-522.3925 1486.0772,-529.0315"/>
</g>
<!-- Node33&#45;&gt;Node16 -->
<g id="edge88" class="edge">
<title>Node33&#45;&gt;Node16</title>
<path fill="none" stroke="#191970" d="M1404.1363,-567.2377C1461.4229,-559.7341 1546.5731,-545.847 1618,-523 1674.057,-505.0693 1684.9698,-492.5285 1738,-467 1798.3538,-437.946 1837.7005,-456.9268 1873,-400 1905.0571,-348.3021 1862.6272,-297.3393 1810,-246 1795.9299,-232.2742 1777.4984,-221.6289 1759.9058,-213.6734"/>
<polygon fill="#191970" stroke="#191970" points="1760.8212,-210.2574 1750.2515,-209.5279 1758.0592,-216.6895 1760.8212,-210.2574"/>
</g>
<!-- Node33&#45;&gt;Node19 -->
<g id="edge78" class="edge">
<title>Node33&#45;&gt;Node19</title>
<path fill="none" stroke="#191970" d="M1404.2034,-570.6754C1522.9913,-563.2594 1770.0517,-545.6437 1853,-523 1978.6518,-488.6989 2019.251,-483.7561 2119,-400 2178.6724,-349.895 2219,-333.9186 2219,-256 2219,-256 2219,-256 2219,-194.5 2219,-160.9798 2219.5997,-145.7697 2195,-123 2146.9028,-78.4807 2114.1771,-107.7199 2052,-87 2049.9063,-86.3023 2047.7641,-85.5398 2045.6173,-84.7394"/>
<polygon fill="#191970" stroke="#191970" points="2046.9005,-81.4831 2036.3137,-81.0692 2044.3316,-87.9947 2046.9005,-81.4831"/>
</g>
<!-- Node33&#45;&gt;Node27 -->
<g id="edge82" class="edge">
<title>Node33&#45;&gt;Node27</title>
<path fill="none" stroke="#191970" d="M1279.8347,-564.9701C1186.5701,-549.1925 1000.2145,-514.5971 847,-467 812.1627,-456.1776 805.1273,-448.8877 771,-436 740.3784,-424.4362 705.8496,-412.3665 677.8499,-402.8207"/>
<polygon fill="#191970" stroke="#191970" points="678.8299,-399.4573 668.2355,-399.5545 676.5781,-406.0852 678.8299,-399.4573"/>
</g>
<!-- Node34 -->
<g id="node35" class="node">
<title>Node34</title>
<g id="a_node35"><a xlink:href="unique__id_8h.html" target="_top" xlink:title="maliput/api/unique_id.h">
<polygon fill="#ffffff" stroke="#000000" points="403.5,-375 403.5,-394 534.5,-394 534.5,-375 403.5,-375"/>
<text text-anchor="middle" x="469" y="-382" font-family="Helvetica,sans-Serif" font-size="10.00" fill="#000000">maliput/api/unique_id.h</text>
</a>
</g>
</g>
<!-- Node33&#45;&gt;Node34 -->
<g id="edge83" class="edge">
<title>Node33&#45;&gt;Node34</title>
<path fill="none" stroke="#191970" d="M1273.8424,-567.6977C1201.0445,-559.5268 1079.8943,-544.2193 977,-523 884.0771,-503.837 861.6805,-494.9091 771,-467 730.5654,-454.5553 721.5996,-447.8953 681,-436 628.0008,-420.4718 566.5999,-405.9252 523.5616,-396.2796"/>
<polygon fill="#191970" stroke="#191970" points="524.1002,-392.8139 513.5785,-394.0563 522.5785,-399.6465 524.1002,-392.8139"/>
</g>
<!-- Node34&#45;&gt;Node8 -->
<g id="edge84" class="edge">
<title>Node34&#45;&gt;Node8</title>
<path fill="none" stroke="#191970" d="M474.4377,-374.803C496.9651,-333.2235 578.8616,-167.084 515,-56 504.8831,-38.4021 485.1564,-26.9064 467.9473,-19.808"/>
<polygon fill="#191970" stroke="#191970" points="468.7891,-16.3846 458.1974,-16.1238 466.3147,-22.9327 468.7891,-16.3846"/>
</g>
<!-- Node34&#45;&gt;Node16 -->
<g id="edge85" class="edge">
<title>Node34&#45;&gt;Node16</title>
<path fill="none" stroke="#191970" d="M509.2833,-374.9409C520.4657,-372.6251 532.653,-370.4124 544,-369 725.001,-346.4703 1187.8886,-380.4735 1364,-333 1444.4255,-311.3201 1452.8336,-277.3627 1530,-246 1562.8868,-232.6338 1600.5437,-221.0126 1632.3095,-212.2093"/>
<polygon fill="#191970" stroke="#191970" points="1633.2441,-215.5823 1641.967,-209.5689 1631.3979,-208.8301 1633.2441,-215.5823"/>
</g>
<!-- Node34&#45;&gt;Node17 -->
<g id="edge87" class="edge">
<title>Node34&#45;&gt;Node17</title>
<path fill="none" stroke="#191970" d="M455.9204,-374.992C417.7362,-347.2193 309.0326,-268.0422 308,-266 274.1875,-199.1293 356.4558,-127.1201 404.425,-92.4758"/>
<polygon fill="#191970" stroke="#191970" points="406.5194,-95.2814 412.6619,-86.6489 402.4768,-89.5668 406.5194,-95.2814"/>
</g>
<!-- Node34&#45;&gt;Node29 -->
<g id="edge86" class="edge">
<title>Node34&#45;&gt;Node29</title>
<path fill="none" stroke="#191970" d="M499.3744,-374.9005C531.7403,-364.6717 583.7342,-348.2397 623.8149,-335.5727"/>
<polygon fill="#191970" stroke="#191970" points="624.988,-338.8726 633.4684,-332.5218 622.8786,-332.198 624.988,-338.8726"/>
</g>
<!-- Node35&#45;&gt;Node4 -->
<g id="edge92" class="edge">
<title>Node35&#45;&gt;Node4</title>
<path fill="none" stroke="#191970" d="M1058.6994,-570.4601C1201.3473,-561.071 1541.7249,-537.4784 1592,-523 1672.8604,-499.7136 1750.9589,-433.0266 1784.65,-401.4581"/>
<polygon fill="#191970" stroke="#191970" points="1787.4053,-403.6675 1792.2334,-394.2367 1782.578,-398.5982 1787.4053,-403.6675"/>
</g>
<!-- Node35&#45;&gt;Node5 -->
<g id="edge93" class="edge">
<title>Node35&#45;&gt;Node5</title>
<path fill="none" stroke="#191970" d="M1058.7473,-561.4581C1164.178,-538.1018 1381.922,-483.6206 1551,-400 1590.0305,-380.6967 1693.3804,-304.9091 1737.9997,-271.7157"/>
<polygon fill="#191970" stroke="#191970" points="1740.1784,-274.4571 1746.104,-265.6742 1735.9947,-268.8448 1740.1784,-274.4571"/>
</g>
<!-- Node35&#45;&gt;Node9 -->
<g id="edge94" class="edge">
<title>Node35&#45;&gt;Node9</title>
<path fill="none" stroke="#191970" d="M1058.7031,-567.7948C1146.1788,-558.3441 1309.7754,-540.3191 1449,-523 1450.2664,-522.8425 1451.5448,-522.6823 1452.8324,-522.5198"/>
<polygon fill="#191970" stroke="#191970" points="1453.3642,-525.9804 1462.8384,-521.2381 1452.4747,-519.0371 1453.3642,-525.9804"/>
</g>
<!-- Node35&#45;&gt;Node16 -->
<g id="edge110" class="edge">
<title>Node35&#45;&gt;Node16</title>
<path fill="none" stroke="#191970" d="M1036.6136,-559.4968C1108.2012,-533.239 1261.7026,-477.7743 1393,-436 1448.0924,-418.4715 1467.7504,-428.5901 1518,-400 1535.4903,-390.0487 1536.2303,-382.6672 1551,-369 1600.8769,-322.8463 1622.0408,-319.4538 1664,-266 1675.3498,-251.5409 1685.2296,-233.3289 1692.2054,-218.9041"/>
<polygon fill="#191970" stroke="#191970" points="1695.4838,-220.1562 1696.5533,-209.6154 1689.144,-217.1885 1695.4838,-220.1562"/>
</g>
<!-- Node35&#45;&gt;Node17 -->
<g id="edge111" class="edge">
<title>Node35&#45;&gt;Node17</title>
<path fill="none" stroke="#191970" d="M933.4647,-566.0754C868.7476,-556.9737 764.873,-541.2928 676,-523 392.257,-464.597 174.6117,-538.7507 77,-266 33.1357,-143.4325 236.9555,-96.6238 355.6693,-79.9555"/>
<polygon fill="#191970" stroke="#191970" points="356.3874,-83.3902 365.8241,-78.5738 355.4435,-76.4541 356.3874,-83.3902"/>
</g>
<!-- Node35&#45;&gt;Node19 -->
<g id="edge91" class="edge">
<title>Node35&#45;&gt;Node19</title>
<path fill="none" stroke="#191970" d="M1058.7554,-570.6787C1208.011,-561.4076 1575.7725,-537.425 1630,-523 1852.9515,-463.693 1975.0737,-470.9495 2081,-266 2112.8467,-204.382 2058.1933,-124.11 2030.1036,-89.106"/>
<polygon fill="#191970" stroke="#191970" points="2032.665,-86.7107 2023.6033,-81.2209 2027.2637,-91.1634 2032.665,-86.7107"/>
</g>
<!-- Node35&#45;&gt;Node27 -->
<g id="edge109" class="edge">
<title>Node35&#45;&gt;Node27</title>
<path fill="none" stroke="#191970" d="M966.4195,-559.4322C899.4965,-525.3427 736.4911,-442.3105 661.6836,-404.2048"/>
<polygon fill="#191970" stroke="#191970" points="663.0827,-400.9896 652.5835,-399.5693 659.9055,-407.227 663.0827,-400.9896"/>
</g>
<!-- Node35&#45;&gt;Node36 -->
<g id="edge95" class="edge">
<title>Node35&#45;&gt;Node36</title>
<path fill="none" stroke="#191970" d="M992.1988,-559.4178C986.9928,-538.7616 977.5772,-501.4031 971.306,-476.5206"/>
<polygon fill="#191970" stroke="#191970" points="974.6701,-475.547 968.8323,-466.7056 967.8824,-477.2577 974.6701,-475.547"/>
</g>
<!-- Node36&#45;&gt;Node1 -->
<g id="edge97" class="edge">
<title>Node36&#45;&gt;Node1</title>
<path fill="none" stroke="#191970" d="M1030.692,-442.2106C1046.1959,-440.0955 1062.6732,-437.9103 1078,-436 1220.4588,-418.244 1257.0591,-421.5071 1399,-400 1412.6274,-397.9352 1427.4598,-395.2315 1440.6638,-392.6614"/>
<polygon fill="#191970" stroke="#191970" points="1441.7207,-396.0201 1450.85,-390.6436 1440.3605,-389.1535 1441.7207,-396.0201"/>
</g>
<!-- Node36&#45;&gt;Node2 -->
<g id="edge98" class="edge">
<title>Node36&#45;&gt;Node2</title>
<path fill="none" stroke="#191970" d="M899.3778,-444.6107C871.5234,-441.7822 838.6909,-438.5743 809,-436 701.1089,-426.6455 423.513,-440.3131 323,-400 259.4089,-374.4953 261.2836,-339.5886 204,-302 185.3081,-289.7347 162.9297,-278.2842 145.1638,-269.8755"/>
<polygon fill="#191970" stroke="#191970" points="146.3646,-266.574 135.8212,-265.5311 143.413,-272.9213 146.3646,-266.574"/>
</g>
<!-- Node36&#45;&gt;Node4 -->
<g id="edge100" class="edge">
<title>Node36&#45;&gt;Node4</title>
<path fill="none" stroke="#191970" d="M1030.6403,-441.7581C1046.1463,-439.6615 1062.6375,-437.5983 1078,-436 1325.8345,-410.2157 1622.7598,-393.5378 1745.0774,-387.2818"/>
<polygon fill="#191970" stroke="#191970" points="1745.5125,-390.7643 1755.322,-386.7614 1745.1573,-383.7733 1745.5125,-390.7643"/>
</g>
<!-- Node36&#45;&gt;Node5 -->
<g id="edge101" class="edge">
<title>Node36&#45;&gt;Node5</title>
<path fill="none" stroke="#191970" d="M1030.7132,-442.3756C1046.2162,-440.2536 1062.6878,-438.024 1078,-436 1203.698,-419.3846 1238.0265,-430.8799 1361,-400 1398.3857,-390.612 1405.7254,-382.0375 1442,-369 1489.2179,-352.0293 1501.6639,-349.638 1549,-333 1611.7811,-310.9333 1684.6133,-283.9052 1725.9068,-268.4466"/>
<polygon fill="#191970" stroke="#191970" points="1727.319,-271.6552 1735.4545,-264.8681 1724.8622,-265.1005 1727.319,-271.6552"/>
</g>
<!-- Node36&#45;&gt;Node8 -->
<g id="edge99" class="edge">
<title>Node36&#45;&gt;Node8</title>
<path fill="none" stroke="#191970" d="M899.4186,-447.9546C759.2035,-440.0336 439.292,-420.0174 394,-400 332.2134,-372.6926 170,-262.052 170,-194.5 170,-194.5 170,-194.5 170,-133 170,-81.9603 333.3825,-35.3734 404.0547,-17.6094"/>
<polygon fill="#191970" stroke="#191970" points="404.9136,-21.0025 413.7785,-15.2005 403.2303,-14.2079 404.9136,-21.0025"/>
</g>
<!-- Node36&#45;&gt;Node13 -->
<g id="edge102" class="edge">
<title>Node36&#45;&gt;Node13</title>
<path fill="none" stroke="#191970" d="M1004.2734,-436.4639C1034.7848,-424.7824 1076.6737,-408.7449 1105.814,-397.5884"/>
<polygon fill="#191970" stroke="#191970" points="1107.0852,-400.8495 1115.1728,-394.0053 1104.5824,-394.3122 1107.0852,-400.8495"/>
</g>
<!-- Node36&#45;&gt;Node14 -->
<g id="edge96" class="edge">
<title>Node36&#45;&gt;Node14</title>
<path fill="none" stroke="#191970" d="M963.387,-436.4841C959.6457,-401.654 950.3749,-315.3473 946.1544,-276.0563"/>
<polygon fill="#191970" stroke="#191970" points="949.6104,-275.4588 945.0623,-265.8898 942.6505,-276.2065 949.6104,-275.4588"/>
</g>
<!-- Node36&#45;&gt;Node16 -->
<g id="edge105" class="edge">
<title>Node36&#45;&gt;Node16</title>
<path fill="none" stroke="#191970" d="M1030.6069,-438.3477C1081.0754,-428.1424 1152.5198,-413.5054 1215,-400 1231.4799,-396.4378 1495.8434,-340.386 1511,-333 1530.5933,-323.4519 1531.1191,-314.4634 1549,-302 1574.8258,-283.9988 1583.9172,-283.6266 1610,-266 1633.2665,-250.2766 1658.449,-230.7488 1676.734,-216.076"/>
<polygon fill="#191970" stroke="#191970" points="1679.0385,-218.7138 1684.6182,-209.7072 1674.6398,-213.2684 1679.0385,-218.7138"/>
</g>
<!-- Node36&#45;&gt;Node24 -->
<g id="edge108" class="edge">
<title>Node36&#45;&gt;Node24</title>
<path fill="none" stroke="#191970" d="M967.1908,-436.1903C968.6285,-425.9542 970.511,-412.1809 972,-400 972.3746,-396.9353 993.8711,-181.2362 996,-179 1010.8315,-163.4212 1132.163,-148.3895 1213.1163,-139.9552"/>
<polygon fill="#191970" stroke="#191970" points="1213.6814,-143.4156 1223.2703,-138.9097 1212.9643,-136.4524 1213.6814,-143.4156"/>
</g>
<!-- Node36&#45;&gt;Node27 -->
<g id="edge103" class="edge">
<title>Node36&#45;&gt;Node27</title>
<path fill="none" stroke="#191970" d="M899.4636,-438.661C843.5422,-427.7056 762.9328,-411.9137 703.1736,-400.2065"/>
<polygon fill="#191970" stroke="#191970" points="703.5067,-396.7053 693.0203,-398.2174 702.1609,-403.5747 703.5067,-396.7053"/>
</g>
<!-- Node36&#45;&gt;Node29 -->
<g id="edge106" class="edge">
<title>Node36&#45;&gt;Node29</title>
<path fill="none" stroke="#191970" d="M899.2978,-437.6509C835.3344,-423.9863 746.7646,-404.5047 740,-400 718.4083,-385.6214 702.1286,-360.4705 692.1975,-341.7073"/>
<polygon fill="#191970" stroke="#191970" points="695.2166,-339.9211 687.5884,-332.5685 688.9665,-343.0734 695.2166,-339.9211"/>
</g>
<!-- Node36&#45;&gt;Node34 -->
<g id="edge104" class="edge">
<title>Node36&#45;&gt;Node34</title>
<path fill="none" stroke="#191970" d="M899.4936,-445.1699C816.4909,-436.7633 669.1602,-420.5529 544,-400 536.8741,-398.8298 529.3959,-397.4585 522.0358,-396.0241"/>
<polygon fill="#191970" stroke="#191970" points="522.6086,-392.5694 512.1166,-394.0418 521.2368,-399.4337 522.6086,-392.5694"/>
</g>
<!-- Node37 -->
<g id="node38" class="node">
<title>Node37</title>
<g id="a_node38"><a xlink:href="passkey_8h.html" target="_top" xlink:title="maliput/common/passkey.h">
<polygon fill="#ffffff" stroke="#000000" points="749,-375 749,-394 901,-394 901,-375 749,-375"/>
<text text-anchor="middle" x="825" y="-382" font-family="Helvetica,sans-Serif" font-size="10.00" fill="#000000">maliput/common/passkey.h</text>
</a>
</g>
</g>
<!-- Node36&#45;&gt;Node37 -->
<g id="edge107" class="edge">
<title>Node36&#45;&gt;Node37</title>
<path fill="none" stroke="#191970" d="M933.5813,-436.4639C909.7736,-425.0702 877.3071,-409.5327 854.0905,-398.4219"/>
<polygon fill="#191970" stroke="#191970" points="855.5991,-395.2637 845.0679,-394.1039 852.5772,-401.5779 855.5991,-395.2637"/>
</g>
<!-- Node38&#45;&gt;Node2 -->
<g id="edge119" class="edge">
<title>Node38&#45;&gt;Node2</title>
<path fill="none" stroke="#191970" d="M667.7574,-816.3757C598.1814,-768.6537 379.6348,-615.6048 217,-467 163.1061,-417.7554 142.2166,-403.1489 122,-333 116.5492,-314.0865 114.7168,-291.6127 114.1467,-275.8422"/>
<polygon fill="#191970" stroke="#191970" points="117.6425,-275.61 113.9209,-265.6903 110.6442,-275.7656 117.6425,-275.61"/>
</g>
<!-- Node38&#45;&gt;Node3 -->
<g id="edge121" class="edge">
<title>Node38&#45;&gt;Node3</title>
<path fill="none" stroke="#191970" d="M737.3525,-816.4639C768.8699,-806.456 810.456,-793.2509 843.8189,-782.657"/>
<polygon fill="#191970" stroke="#191970" points="844.9692,-785.9641 853.441,-779.6017 842.8506,-779.2923 844.9692,-785.9641"/>
</g>
<!-- Node38&#45;&gt;Node5 -->
<g id="edge120" class="edge">
<title>Node38&#45;&gt;Node5</title>
<path fill="none" stroke="#191970" d="M755.5159,-827.3031C966.4787,-813.3826 1626.3635,-766.5644 1833,-713 1894.2931,-697.1116 1927.9457,-709.0516 1964,-657 2058.7532,-520.2049 1962.3214,-420.0116 1845,-302 1830.0928,-287.0051 1809.2658,-275.6937 1791.8414,-268.0401"/>
<polygon fill="#191970" stroke="#191970" points="1793.1466,-264.7923 1782.5704,-264.1643 1790.4466,-271.2506 1793.1466,-264.7923"/>
</g>
<!-- Node38&#45;&gt;Node16 -->
<g id="edge124" class="edge">
<title>Node38&#45;&gt;Node16</title>
<path fill="none" stroke="#191970" d="M755.6992,-829.4748C1048.3594,-820.0299 2219,-777.5884 2219,-703 2219,-703 2219,-703 2219,-574.5 2219,-358.0214 1920.8969,-251.0909 1777.8541,-212.2421"/>
<polygon fill="#191970" stroke="#191970" points="1778.394,-208.7636 1767.8293,-209.562 1776.586,-215.5261 1778.394,-208.7636"/>
</g>
<!-- Node38&#45;&gt;Node33 -->
<g id="edge123" class="edge">
<title>Node38&#45;&gt;Node33</title>
<path fill="none" stroke="#191970" d="M710.9782,-816.3746C749.9594,-788.8098 836.8923,-729.8501 917,-693 1004.4659,-652.7651 1030.3217,-652.0744 1123,-626 1177.5693,-610.6473 1240.7152,-595.9402 1284.5806,-586.2023"/>
<polygon fill="#191970" stroke="#191970" points="1285.4571,-589.5932 1294.4672,-584.0193 1283.9477,-582.7579 1285.4571,-589.5932"/>
</g>
<!-- Node38&#45;&gt;Node35 -->
<g id="edge122" class="edge">
<title>Node38&#45;&gt;Node35</title>
<path fill="none" stroke="#191970" d="M682.646,-816.3814C665.6712,-779.0538 628.6919,-681.5305 676,-626 691.8557,-607.3885 833.6775,-590.3107 923.117,-581.2625"/>
<polygon fill="#191970" stroke="#191970" points="923.6123,-584.7305 933.2143,-580.2525 922.9156,-577.7653 923.6123,-584.7305"/>
</g>
</g>
</svg>
        <g id="navigator" transform="translate(0 0)" fill="#404254">
                <rect fill="#f2f5e9" fill-opacity="0.5" stroke="#606060" stroke-width=".5" x="0" y="0" width="60" height="60"/>
                <use id="zoomplus" xlink:href="#zoomPlus" x="17" y="9" onmousedown="handleZoom(evt,'in')"/>
                <use id="zoomminus" xlink:href="#zoomMin" x="42" y="9" onmousedown="handleZoom(evt,'out')"/>
                <use id="reset" xlink:href="#resetDef" x="30" y="36" onmousedown="handleReset()"/>
                <g id="arrowUp" xlink:href="#dirArrow" transform="translate(30 24)" onmousedown="handlePan(0,-1)">
                  <use xlink:href="#rim" fill="#404040">
                        <set attributeName="fill" to="#808080" begin="arrowUp.mouseover" end="arrowUp.mouseout"/>
                  </use>
                  <path fill="none" stroke="white" stroke-width="1.5" d="M0,-3.0v7 M-2.5,-0.5L0,-3.0L2.5,-0.5"/>
                </g>
                <g id="arrowRight" xlink:href="#dirArrow" transform="rotate(90) translate(36 -43)" onmousedown="handlePan(1,0)">
                  <use xlink:href="#rim" fill="#404040">
                        <set attributeName="fill" to="#808080" begin="arrowRight.mouseover" end="arrowRight.mouseout"/>
                  </use>
                  <path fill="none" stroke="white" stroke-width="1.5" d="M0,-3.0v7 M-2.5,-0.5L0,-3.0L2.5,-0.5"/>
                </g>
                <g id="arrowDown" xlink:href="#dirArrow" transform="rotate(180) translate(-30 -48)" onmousedown="handlePan(0,1)">
                  <use xlink:href="#rim" fill="#404040">
                        <set attributeName="fill" to="#808080" begin="arrowDown.mouseover" end="arrowDown.mouseout"/>
                  </use>
                  <path fill="none" stroke="white" stroke-width="1.5" d="M0,-3.0v7 M-2.5,-0.5L0,-3.0L2.5,-0.5"/>
                </g>
                <g id="arrowLeft" xlink:href="#dirArrow" transform="rotate(270) translate(-36 17)" onmousedown="handlePan(-1,0)">
                  <use xlink:href="#rim" fill="#404040">
                        <set attributeName="fill" to="#808080" begin="arrowLeft.mouseover" end="arrowLeft.mouseout"/>
                  </use>
                  <path fill="none" stroke="white" stroke-width="1.5" d="M0,-3.0v7 M-2.5,-0.5L0,-3.0L2.5,-0.5"/>
                </g>
        </g>
        <svg viewBox="0 0 15 15" width="100%" height="30px" preserveAspectRatio="xMaxYMin meet">
         <g id="arrow_out" transform="scale(0.3 0.3)">
          <a xlink:href="simple__phase__ring__book_8h__incl_org.svg" target="_base">
           <rect id="button" ry="5" rx="5" y="6" x="6" height="38" width="38"
                fill="#f2f5e9" fill-opacity="0.5" stroke="#606060" stroke-width="1.0"/>
           <path id="arrow"
             d="M 11.500037,31.436501 C 11.940474,20.09759 22.043105,11.32322 32.158766,21.979434 L 37.068811,17.246167 C 37.068811,17.246167 37.088388,32 37.088388,32 L 22.160133,31.978069 C 22.160133,31.978069 26.997745,27.140456 26.997745,27.140456 C 18.528582,18.264221 13.291696,25.230495 11.500037,31.436501 z"
             style="fill:#404040;"/>
          </a>
         </g>
        </svg>
</svg>
