<?xml version="1.0" encoding="UTF-8" standalone="no"?>
<!DOCTYPE svg PUBLIC "-//W3C//DTD SVG 1.1//EN"
 "http://www.w3.org/Graphics/SVG/1.1/DTD/svg11.dtd">
<!-- Generated by graphviz version 2.40.1 (20161225.0304)
 -->
<!-- Title: traffic_light_book_loader.cc Pages: 1 -->
<svg width="1854pt" height="676pt"
 viewBox="0.00 0.00 1853.50 676.00" xmlns="http://www.w3.org/2000/svg" xmlns:xlink="http://www.w3.org/1999/xlink">
<g id="graph0" class="graph" transform="scale(1 1) rotate(0) translate(4 672)">
<title>traffic_light_book_loader.cc</title>
<polygon fill="#ffffff" stroke="transparent" points="-4,4 -4,-672 1849.5,-672 1849.5,4 -4,4"/>
<!-- Node0 -->
<g id="node1" class="node">
<title>Node0</title>
<polygon fill="#bfbfbf" stroke="#000000" points="1000,-637.5 1000,-667.5 1102,-667.5 1102,-637.5 1000,-637.5"/>
<text text-anchor="start" x="1008" y="-655.5" font-family="Helvetica,sans-Serif" font-size="10.00" fill="#000000">traffic_light_book</text>
<text text-anchor="middle" x="1051" y="-644.5" font-family="Helvetica,sans-Serif" font-size="10.00" fill="#000000">_loader.cc</text>
</g>
<!-- Node1 -->
<g id="node2" class="node">
<title>Node1</title>
<g id="a_node2"><a xlink:href="traffic__light__book__loader_8h.html" target="_top" xlink:title="maliput/base/traffic\l_light_book_loader.h">
<polygon fill="#ffffff" stroke="#000000" points="66,-570.5 66,-600.5 184,-600.5 184,-570.5 66,-570.5"/>
<text text-anchor="start" x="74" y="-588.5" font-family="Helvetica,sans-Serif" font-size="10.00" fill="#000000">maliput/base/traffic</text>
<text text-anchor="middle" x="125" y="-577.5" font-family="Helvetica,sans-Serif" font-size="10.00" fill="#000000">_light_book_loader.h</text>
</a>
</g>
</g>
<!-- Node0&#45;&gt;Node1 -->
<g id="edge1" class="edge">
<title>Node0&#45;&gt;Node1</title>
<path fill="none" stroke="#191970" d="M999.7849,-652.0604C866.8522,-650.3464 500.1154,-641.9619 198,-601 196.7362,-600.8286 195.4616,-600.6476 194.179,-600.4577"/>
<polygon fill="#191970" stroke="#191970" points="194.6639,-596.9907 184.2331,-598.8479 193.5454,-603.9008 194.6639,-596.9907"/>
</g>
<!-- Node2 -->
<g id="node3" class="node">
<title>Node2</title>
<polygon fill="#ffffff" stroke="#bfbfbf" points="104,-375 104,-394 162,-394 162,-375 104,-375"/>
<text text-anchor="middle" x="133" y="-382" font-family="Helvetica,sans-Serif" font-size="10.00" fill="#000000">memory</text>
</g>
<!-- Node0&#45;&gt;Node2 -->
<g id="edge75" class="edge">
<title>Node0&#45;&gt;Node2</title>
<path fill="none" stroke="#191970" d="M999.8385,-651.7807C801.1047,-648.7411 89.7396,-635.4798 57,-601 1.6867,-542.7467 80.6743,-441.9292 116.7019,-401.7511"/>
<polygon fill="#191970" stroke="#191970" points="119.5032,-403.8745 123.674,-394.1351 114.34,-399.1478 119.5032,-403.8745"/>
</g>
<!-- Node4 -->
<g id="node5" class="node">
<title>Node4</title>
<g id="a_node5"><a xlink:href="api_2rules_2traffic__light__book_8h.html" target="_top" xlink:title="maliput/api/rules/traffic\l_light_book.h">
<polygon fill="#ffffff" stroke="#000000" points="924.5,-503.5 924.5,-533.5 1055.5,-533.5 1055.5,-503.5 924.5,-503.5"/>
<text text-anchor="start" x="932.5" y="-521.5" font-family="Helvetica,sans-Serif" font-size="10.00" fill="#000000">maliput/api/rules/traffic</text>
<text text-anchor="middle" x="990" y="-510.5" font-family="Helvetica,sans-Serif" font-size="10.00" fill="#000000">_light_book.h</text>
</a>
</g>
</g>
<!-- Node0&#45;&gt;Node4 -->
<g id="edge81" class="edge">
<title>Node0&#45;&gt;Node4</title>
<path fill="none" stroke="#191970" d="M1049.5839,-637.2048C1047.5318,-620.0968 1042.7276,-591.9135 1032,-570 1027.0025,-559.7916 1019.6315,-549.8134 1012.4539,-541.4"/>
<polygon fill="#191970" stroke="#191970" points="1014.9875,-538.9826 1005.7152,-533.8566 1009.7671,-543.646 1014.9875,-538.9826"/>
</g>
<!-- Node6 -->
<g id="node7" class="node">
<title>Node6</title>
<polygon fill="#ffffff" stroke="#bfbfbf" points="152.5,-246.5 152.5,-265.5 199.5,-265.5 199.5,-246.5 152.5,-246.5"/>
<text text-anchor="middle" x="176" y="-253.5" font-family="Helvetica,sans-Serif" font-size="10.00" fill="#000000">vector</text>
</g>
<!-- Node0&#45;&gt;Node6 -->
<g id="edge78" class="edge">
<title>Node0&#45;&gt;Node6</title>
<path fill="none" stroke="#191970" d="M999.8836,-651.3784C799.5739,-646.7943 77.0761,-628.416 37,-601 3.833,-578.3105 0,-558.6854 0,-518.5 0,-518.5 0,-518.5 0,-451.5 0,-364.1911 98.1549,-298.2554 147.8621,-270.4622"/>
<polygon fill="#191970" stroke="#191970" points="149.7285,-273.431 156.8299,-265.5683 146.3753,-267.2864 149.7285,-273.431"/>
</g>
<!-- Node7 -->
<g id="node8" class="node">
<title>Node7</title>
<g id="a_node8"><a xlink:href="traffic__lights_8h.html" target="_top" xlink:title="maliput/api/rules/traffic\l_lights.h">
<polygon fill="#ffffff" stroke="#000000" points="792.5,-436.5 792.5,-466.5 923.5,-466.5 923.5,-436.5 792.5,-436.5"/>
<text text-anchor="start" x="800.5" y="-454.5" font-family="Helvetica,sans-Serif" font-size="10.00" fill="#000000">maliput/api/rules/traffic</text>
<text text-anchor="middle" x="858" y="-443.5" font-family="Helvetica,sans-Serif" font-size="10.00" fill="#000000">_lights.h</text>
</a>
</g>
</g>
<!-- Node0&#45;&gt;Node7 -->
<g id="edge82" class="edge">
<title>Node0&#45;&gt;Node7</title>
<path fill="none" stroke="#191970" d="M999.6695,-646.9841C967.2215,-640.8842 926.7043,-628.0406 901,-601 868.5683,-566.8823 860.3659,-509.9214 858.4337,-477.038"/>
<polygon fill="#191970" stroke="#191970" points="861.9231,-476.716 857.9929,-466.8771 854.9297,-477.0194 861.9231,-476.716"/>
</g>
<!-- Node9 -->
<g id="node10" class="node">
<title>Node9</title>
<polygon fill="#ffffff" stroke="#bfbfbf" points="1000.5,-375 1000.5,-394 1093.5,-394 1093.5,-375 1000.5,-375"/>
<text text-anchor="middle" x="1047" y="-382" font-family="Helvetica,sans-Serif" font-size="10.00" fill="#000000">unordered_map</text>
</g>
<!-- Node0&#45;&gt;Node9 -->
<g id="edge76" class="edge">
<title>Node0&#45;&gt;Node9</title>
<path fill="none" stroke="#191970" d="M1054.1373,-637.235C1059.3112,-610.2025 1068.7101,-552.1294 1065,-503 1062.3607,-468.0495 1055.4021,-427.7912 1050.9507,-404.3401"/>
<polygon fill="#191970" stroke="#191970" points="1054.3383,-403.4245 1048.9967,-394.2748 1047.4666,-404.7585 1054.3383,-403.4245"/>
</g>
<!-- Node10 -->
<g id="node11" class="node">
<title>Node10</title>
<g id="a_node11"><a xlink:href="lane__data_8h.html" target="_top" xlink:title="maliput/api/lane_data.h">
<polygon fill="#ffffff" stroke="#000000" points="1306,-375 1306,-394 1438,-394 1438,-375 1306,-375"/>
<text text-anchor="middle" x="1372" y="-382" font-family="Helvetica,sans-Serif" font-size="10.00" fill="#000000">maliput/api/lane_data.h</text>
</a>
</g>
</g>
<!-- Node0&#45;&gt;Node10 -->
<g id="edge80" class="edge">
<title>Node0&#45;&gt;Node10</title>
<path fill="none" stroke="#191970" d="M1102.0474,-643.9811C1153.0261,-634.6603 1227.0129,-618.673 1250,-601 1318.2781,-548.5063 1354.2552,-446.2359 1366.7898,-403.7373"/>
<polygon fill="#191970" stroke="#191970" points="1370.1701,-404.6458 1369.5361,-394.07 1363.4366,-402.7329 1370.1701,-404.6458"/>
</g>
<!-- Node13 -->
<g id="node14" class="node">
<title>Node13</title>
<g id="a_node14"><a xlink:href="maliput__throw_8h.html" target="_top" xlink:title="Code in this file is inspired by: https://github.com/RobotLocomotion/drake/blob/master/common/drake_t...">
<polygon fill="#ffffff" stroke="#000000" points="542,-56.5 542,-86.5 682,-86.5 682,-56.5 542,-56.5"/>
<text text-anchor="start" x="550" y="-74.5" font-family="Helvetica,sans-Serif" font-size="10.00" fill="#000000">maliput/common/maliput</text>
<text text-anchor="middle" x="612" y="-63.5" font-family="Helvetica,sans-Serif" font-size="10.00" fill="#000000">_throw.h</text>
</a>
</g>
</g>
<!-- Node0&#45;&gt;Node13 -->
<g id="edge90" class="edge">
<title>Node0&#45;&gt;Node13</title>
<path fill="none" stroke="#191970" d="M999.8442,-650.9165C835.3591,-645.0022 322.7696,-619.9289 185,-534 124.1281,-496.0333 115.9075,-468.6275 95,-400 34.0835,-200.0459 371.4996,-113.484 531.4732,-84.0663"/>
<polygon fill="#191970" stroke="#191970" points="532.5289,-87.4324 541.7476,-82.2107 531.2847,-80.5438 532.5289,-87.4324"/>
</g>
<!-- Node20 -->
<g id="node21" class="node">
<title>Node20</title>
<g id="a_node21"><a xlink:href="vector_8h.html" target="_top" xlink:title="maliput/math/vector.h">
<polygon fill="#ffffff" stroke="#000000" points="1473.5,-123.5 1473.5,-142.5 1598.5,-142.5 1598.5,-123.5 1473.5,-123.5"/>
<text text-anchor="middle" x="1536" y="-130.5" font-family="Helvetica,sans-Serif" font-size="10.00" fill="#000000">maliput/math/vector.h</text>
</a>
</g>
</g>
<!-- Node0&#45;&gt;Node20 -->
<g id="edge92" class="edge">
<title>Node0&#45;&gt;Node20</title>
<path fill="none" stroke="#191970" d="M1102.1145,-650.4577C1261.1217,-643.8888 1737.9253,-622.4794 1763,-601 1791.5756,-576.5217 1782,-556.1265 1782,-518.5 1782,-518.5 1782,-518.5 1782,-384.5 1782,-276.4257 1735.2045,-247.9714 1652,-179 1633.3415,-163.5332 1608.8393,-152.8 1587.1635,-145.6168"/>
<polygon fill="#191970" stroke="#191970" points="1588.0237,-142.2185 1577.4344,-142.562 1585.9266,-148.897 1588.0237,-142.2185"/>
</g>
<!-- Node21 -->
<g id="node22" class="node">
<title>Node21</title>
<g id="a_node22"><a xlink:href="quaternion_8h.html" target="_top" xlink:title="Code in this file is inspired by: https://gitlab.com/libeigen/eigen/&#45;/blob/master/Eigen/src/Geometry/...">
<polygon fill="#ffffff" stroke="#000000" points="1454.5,-246.5 1454.5,-265.5 1601.5,-265.5 1601.5,-246.5 1454.5,-246.5"/>
<text text-anchor="middle" x="1528" y="-253.5" font-family="Helvetica,sans-Serif" font-size="10.00" fill="#000000">maliput/math/quaternion.h</text>
</a>
</g>
</g>
<!-- Node0&#45;&gt;Node21 -->
<g id="edge91" class="edge">
<title>Node0&#45;&gt;Node21</title>
<path fill="none" stroke="#191970" d="M1102.4462,-648.9157C1150.774,-643.7587 1223.8554,-631.2467 1280,-601 1431.0897,-519.6038 1490.8748,-490.9482 1558,-333 1566.5373,-312.9115 1554.3314,-289.5044 1543.0224,-273.8183"/>
<polygon fill="#191970" stroke="#191970" points="1545.5188,-271.3252 1536.631,-265.5582 1539.9825,-275.609 1545.5188,-271.3252"/>
</g>
<!-- Node25 -->
<g id="node26" class="node">
<title>Node25</title>
<polygon fill="#ffffff" stroke="#bfbfbf" points="830.5,-246.5 830.5,-265.5 875.5,-265.5 875.5,-246.5 830.5,-246.5"/>
<text text-anchor="middle" x="853" y="-253.5" font-family="Helvetica,sans-Serif" font-size="10.00" fill="#000000">utility</text>
</g>
<!-- Node0&#45;&gt;Node25 -->
<g id="edge77" class="edge">
<title>Node0&#45;&gt;Node25</title>
<path fill="none" stroke="#191970" d="M1102.0418,-639.3456C1156.8007,-621.7944 1236,-584.9276 1236,-518.5 1236,-518.5 1236,-518.5 1236,-451.5 1236,-372.9767 977.3802,-291.4931 885.1742,-264.937"/>
<polygon fill="#191970" stroke="#191970" points="886.1051,-261.563 875.5285,-262.1851 884.1845,-268.2944 886.1051,-261.563"/>
</g>
<!-- Node32 -->
<g id="node33" class="node">
<title>Node32</title>
<polygon fill="#ffffff" stroke="#bfbfbf" points="1654.5,-576 1654.5,-595 1753.5,-595 1753.5,-576 1654.5,-576"/>
<text text-anchor="middle" x="1704" y="-583" font-family="Helvetica,sans-Serif" font-size="10.00" fill="#000000">yaml&#45;cpp/yaml.h</text>
</g>
<!-- Node0&#45;&gt;Node32 -->
<g id="edge79" class="edge">
<title>Node0&#45;&gt;Node32</title>
<path fill="none" stroke="#191970" d="M1102.1381,-650.6177C1204.7299,-646.2724 1442.7256,-633.3247 1640,-601 1646.1451,-599.9931 1652.5725,-598.713 1658.884,-597.3215"/>
<polygon fill="#191970" stroke="#191970" points="1659.6932,-600.7268 1668.6492,-595.0664 1658.1181,-593.9063 1659.6932,-600.7268"/>
</g>
<!-- Node33 -->
<g id="node34" class="node">
<title>Node33</title>
<g id="a_node34"><a xlink:href="base_2traffic__light__book_8h.html" target="_top" xlink:title="maliput/base/traffic\l_light_book.h">
<polygon fill="#ffffff" stroke="#000000" points="909.5,-570.5 909.5,-600.5 1022.5,-600.5 1022.5,-570.5 909.5,-570.5"/>
<text text-anchor="start" x="917.5" y="-588.5" font-family="Helvetica,sans-Serif" font-size="10.00" fill="#000000">maliput/base/traffic</text>
<text text-anchor="middle" x="966" y="-577.5" font-family="Helvetica,sans-Serif" font-size="10.00" fill="#000000">_light_book.h</text>
</a>
</g>
</g>
<!-- Node0&#45;&gt;Node33 -->
<g id="edge83" class="edge">
<title>Node0&#45;&gt;Node33</title>
<path fill="none" stroke="#191970" d="M1031.7122,-637.2967C1020.301,-628.302 1005.6693,-616.7687 993.1104,-606.8694"/>
<polygon fill="#191970" stroke="#191970" points="995.2317,-604.0849 985.2115,-600.6432 990.8984,-609.5824 995.2317,-604.0849"/>
</g>
<!-- Node1&#45;&gt;Node2 -->
<g id="edge2" class="edge">
<title>Node1&#45;&gt;Node2</title>
<path fill="none" stroke="#191970" d="M125.6013,-570.3923C127.0265,-534.5844 130.6098,-444.5545 132.2085,-404.386"/>
<polygon fill="#191970" stroke="#191970" points="135.7111,-404.3875 132.6117,-394.2562 128.7167,-404.1091 135.7111,-404.3875"/>
</g>
<!-- Node3 -->
<g id="node4" class="node">
<title>Node3</title>
<polygon fill="#ffffff" stroke="#bfbfbf" points="282,-.5 282,-19.5 326,-19.5 326,-.5 282,-.5"/>
<text text-anchor="middle" x="304" y="-7.5" font-family="Helvetica,sans-Serif" font-size="10.00" fill="#000000">string</text>
</g>
<!-- Node1&#45;&gt;Node3 -->
<g id="edge3" class="edge">
<title>Node1&#45;&gt;Node3</title>
<path fill="none" stroke="#191970" d="M113.2668,-570.3287C89.5195,-538.0558 38,-459.4081 38,-384.5 38,-384.5 38,-384.5 38,-133 38,-81.9603 201.3825,-35.3734 272.0547,-17.6094"/>
<polygon fill="#191970" stroke="#191970" points="272.9136,-21.0025 281.7785,-15.2005 271.2303,-14.2079 272.9136,-21.0025"/>
</g>
<!-- Node1&#45;&gt;Node4 -->
<g id="edge4" class="edge">
<title>Node1&#45;&gt;Node4</title>
<path fill="none" stroke="#191970" d="M184.1145,-580.9212C336.907,-569.0864 744.8068,-537.4918 914.4048,-524.3554"/>
<polygon fill="#191970" stroke="#191970" points="914.7963,-527.8356 924.4961,-523.5737 914.2557,-520.8565 914.7963,-527.8356"/>
</g>
<!-- Node5 -->
<g id="node6" class="node">
<title>Node5</title>
<polygon fill="#ffffff" stroke="#bfbfbf" points="1092,-246.5 1092,-265.5 1148,-265.5 1148,-246.5 1092,-246.5"/>
<text text-anchor="middle" x="1120" y="-253.5" font-family="Helvetica,sans-Serif" font-size="10.00" fill="#000000">optional</text>
</g>
<!-- Node4&#45;&gt;Node5 -->
<g id="edge5" class="edge">
<title>Node4&#45;&gt;Node5</title>
<path fill="none" stroke="#191970" d="M1011.3327,-503.2423C1037.8242,-482.9746 1082.0714,-444.5039 1103,-400 1122.2931,-358.9739 1122.8545,-304.4052 1121.4911,-275.652"/>
<polygon fill="#191970" stroke="#191970" points="1124.9841,-275.4283 1120.8858,-265.6583 1117.9969,-275.8516 1124.9841,-275.4283"/>
</g>
<!-- Node4&#45;&gt;Node6 -->
<g id="edge6" class="edge">
<title>Node4&#45;&gt;Node6</title>
<path fill="none" stroke="#191970" d="M924.3668,-514.9426C765.9456,-505.2548 367.7549,-474.0079 260,-400 236.9831,-384.1916 200.9427,-310.4073 184.5868,-275.0234"/>
<polygon fill="#191970" stroke="#191970" points="187.6924,-273.3984 180.3502,-265.7602 181.3266,-276.3099 187.6924,-273.3984"/>
</g>
<!-- Node4&#45;&gt;Node7 -->
<g id="edge7" class="edge">
<title>Node4&#45;&gt;Node7</title>
<path fill="none" stroke="#191970" d="M960.3766,-503.4639C941.6564,-493.9619 917.2579,-481.5779 896.9754,-471.283"/>
<polygon fill="#191970" stroke="#191970" points="898.4825,-468.1229 887.9812,-466.7177 895.3142,-474.3649 898.4825,-468.1229"/>
</g>
<!-- Node12 -->
<g id="node13" class="node">
<title>Node12</title>
<g id="a_node13"><a xlink:href="maliput__copyable_8h.html" target="_top" xlink:title="Code in this file is inspired by: https://github.com/RobotLocomotion/drake/blob/master/common/drake_c...">
<polygon fill="#ffffff" stroke="#000000" points="1125,-179.5 1125,-209.5 1265,-209.5 1265,-179.5 1125,-179.5"/>
<text text-anchor="start" x="1133" y="-197.5" font-family="Helvetica,sans-Serif" font-size="10.00" fill="#000000">maliput/common/maliput</text>
<text text-anchor="middle" x="1195" y="-186.5" font-family="Helvetica,sans-Serif" font-size="10.00" fill="#000000">_copyable.h</text>
</a>
</g>
</g>
<!-- Node4&#45;&gt;Node12 -->
<g id="edge74" class="edge">
<title>Node4&#45;&gt;Node12</title>
<path fill="none" stroke="#191970" d="M1025.1427,-503.4467C1042.9785,-494.6242 1064.161,-482.2148 1080,-467 1153.2742,-396.6134 1181.9799,-272.2396 1191.2384,-219.384"/>
<polygon fill="#191970" stroke="#191970" points="1194.6908,-219.9587 1192.8833,-209.5192 1187.7862,-218.8073 1194.6908,-219.9587"/>
</g>
<!-- Node7&#45;&gt;Node2 -->
<g id="edge9" class="edge">
<title>Node7&#45;&gt;Node2</title>
<path fill="none" stroke="#191970" d="M792.4448,-446.895C681.179,-438.8627 448.3163,-421.1164 252,-400 225.4139,-397.1403 195.5753,-393.2522 172.4277,-390.0855"/>
<polygon fill="#191970" stroke="#191970" points="172.6835,-386.5877 162.2989,-388.6876 171.7264,-393.522 172.6835,-386.5877"/>
</g>
<!-- Node7&#45;&gt;Node3 -->
<g id="edge11" class="edge">
<title>Node7&#45;&gt;Node3</title>
<path fill="none" stroke="#191970" d="M792.3361,-449.1599C657.4897,-443.7872 358.9536,-428.7633 323,-400 225.123,-321.6973 260.3243,-247.9704 270,-123 272.315,-93.1002 268.6619,-84.4984 278,-56 281.1617,-46.3509 286.45,-36.4463 291.4348,-28.311"/>
<polygon fill="#191970" stroke="#191970" points="294.5145,-29.9937 297.0015,-19.6949 288.6349,-26.1949 294.5145,-29.9937"/>
</g>
<!-- Node7&#45;&gt;Node5 -->
<g id="edge10" class="edge">
<title>Node7&#45;&gt;Node5</title>
<path fill="none" stroke="#191970" d="M887.5769,-436.2958C905.5349,-426.6483 928.6484,-413.4786 948,-400 1007.5897,-358.4949 1071.6257,-301.0537 1102.015,-272.9127"/>
<polygon fill="#191970" stroke="#191970" points="1104.7301,-275.1668 1109.6624,-265.79 1099.9593,-270.0444 1104.7301,-275.1668"/>
</g>
<!-- Node7&#45;&gt;Node6 -->
<g id="edge13" class="edge">
<title>Node7&#45;&gt;Node6</title>
<path fill="none" stroke="#191970" d="M792.2415,-448.9138C651.7227,-442.9054 331.5464,-426.4665 290,-400 247.5032,-372.9281 265.8172,-340.2347 233,-302 223.1973,-290.579 210.2747,-279.8859 199.2125,-271.6889"/>
<polygon fill="#191970" stroke="#191970" points="201.0017,-268.6651 190.8349,-265.684 196.9236,-274.3546 201.0017,-268.6651"/>
</g>
<!-- Node8 -->
<g id="node9" class="node">
<title>Node8</title>
<polygon fill="#ffffff" stroke="#bfbfbf" points="932.5,-246.5 932.5,-265.5 997.5,-265.5 997.5,-246.5 932.5,-246.5"/>
<text text-anchor="middle" x="965" y="-253.5" font-family="Helvetica,sans-Serif" font-size="10.00" fill="#000000">functional</text>
</g>
<!-- Node7&#45;&gt;Node8 -->
<g id="edge8" class="edge">
<title>Node7&#45;&gt;Node8</title>
<path fill="none" stroke="#191970" d="M860.7511,-436.3133C864.2058,-419.3027 871.0447,-391.2064 882,-369 900.3492,-331.8062 931.0398,-294.0664 949.5158,-272.983"/>
<polygon fill="#191970" stroke="#191970" points="952.1355,-275.3041 956.1704,-265.5076 946.907,-270.6496 952.1355,-275.3041"/>
</g>
<!-- Node7&#45;&gt;Node9 -->
<g id="edge12" class="edge">
<title>Node7&#45;&gt;Node9</title>
<path fill="none" stroke="#191970" d="M900.4153,-436.4639C933.5109,-424.7316 979.0012,-408.6054 1010.4888,-397.4431"/>
<polygon fill="#191970" stroke="#191970" points="1011.9307,-400.6454 1020.1866,-394.0053 1009.5918,-394.0477 1011.9307,-400.6454"/>
</g>
<!-- Node7&#45;&gt;Node10 -->
<g id="edge14" class="edge">
<title>Node7&#45;&gt;Node10</title>
<path fill="none" stroke="#191970" d="M923.6205,-442.9463C1018.8628,-430.5315 1195.0048,-407.5714 1295.8417,-394.4272"/>
<polygon fill="#191970" stroke="#191970" points="1296.4945,-397.8719 1305.9582,-393.1086 1295.5896,-390.9306 1296.4945,-397.8719"/>
</g>
<!-- Node7&#45;&gt;Node12 -->
<g id="edge70" class="edge">
<title>Node7&#45;&gt;Node12</title>
<path fill="none" stroke="#191970" d="M873.3064,-436.35C916.1088,-394.1783 1036.908,-276.5256 1083,-246 1102.2547,-233.2481 1125.1772,-222.096 1145.2542,-213.4608"/>
<polygon fill="#191970" stroke="#191970" points="1146.6912,-216.6535 1154.553,-209.5511 1143.9781,-210.2006 1146.6912,-216.6535"/>
</g>
<!-- Node7&#45;&gt;Node20 -->
<g id="edge73" class="edge">
<title>Node7&#45;&gt;Node20</title>
<path fill="none" stroke="#191970" d="M866.2288,-436.1982C875.7466,-419.0844 892.3803,-390.8958 910,-369 929.5214,-344.741 1087.5496,-191.6553 1116,-179 1176.4021,-152.1318 1359.9605,-140.2947 1463.3041,-135.6419"/>
<polygon fill="#191970" stroke="#191970" points="1463.5168,-139.136 1473.3537,-135.2007 1463.2098,-132.1428 1463.5168,-139.136"/>
</g>
<!-- Node24 -->
<g id="node25" class="node">
<title>Node24</title>
<g id="a_node25"><a xlink:href="type__specific__identifier_8h.html" target="_top" xlink:title="maliput/api/type_specific\l_identifier.h">
<polygon fill="#ffffff" stroke="#000000" points="690,-369.5 690,-399.5 830,-399.5 830,-369.5 690,-369.5"/>
<text text-anchor="start" x="698" y="-387.5" font-family="Helvetica,sans-Serif" font-size="10.00" fill="#000000">maliput/api/type_specific</text>
<text text-anchor="middle" x="760" y="-376.5" font-family="Helvetica,sans-Serif" font-size="10.00" fill="#000000">_identifier.h</text>
</a>
</g>
</g>
<!-- Node7&#45;&gt;Node24 -->
<g id="edge46" class="edge">
<title>Node7&#45;&gt;Node24</title>
<path fill="none" stroke="#191970" d="M835.7623,-436.2967C822.3553,-427.1306 805.0924,-415.3285 790.432,-405.3055"/>
<polygon fill="#191970" stroke="#191970" points="792.3802,-402.3977 782.1497,-399.6432 788.4295,-408.1763 792.3802,-402.3977"/>
</g>
<!-- Node26 -->
<g id="node27" class="node">
<title>Node26</title>
<g id="a_node27"><a xlink:href="maliput__hash_8h.html" target="_top" xlink:title="Code in this file is inspired by: https://github.com/RobotLocomotion/drake/blob/master/common/hash.h. ">
<polygon fill="#ffffff" stroke="#000000" points="558,-302.5 558,-332.5 698,-332.5 698,-302.5 558,-302.5"/>
<text text-anchor="start" x="566" y="-320.5" font-family="Helvetica,sans-Serif" font-size="10.00" fill="#000000">maliput/common/maliput</text>
<text text-anchor="middle" x="628" y="-309.5" font-family="Helvetica,sans-Serif" font-size="10.00" fill="#000000">_hash.h</text>
</a>
</g>
</g>
<!-- Node7&#45;&gt;Node26 -->
<g id="edge71" class="edge">
<title>Node7&#45;&gt;Node26</title>
<path fill="none" stroke="#191970" d="M792.4208,-443.8129C756.6918,-436.9814 713.309,-424.1285 681,-400 661.1134,-385.1485 646.6877,-360.4544 637.953,-341.9459"/>
<polygon fill="#191970" stroke="#191970" points="641.0764,-340.3567 633.7964,-332.6591 634.6872,-343.2164 641.0764,-340.3567"/>
</g>
<!-- Node30 -->
<g id="node31" class="node">
<title>Node30</title>
<g id="a_node31"><a xlink:href="unique__id_8h.html" target="_top" xlink:title="maliput/api/unique_id.h">
<polygon fill="#ffffff" stroke="#000000" points="502.5,-375 502.5,-394 633.5,-394 633.5,-375 502.5,-375"/>
<text text-anchor="middle" x="568" y="-382" font-family="Helvetica,sans-Serif" font-size="10.00" fill="#000000">maliput/api/unique_id.h</text>
</a>
</g>
</g>
<!-- Node7&#45;&gt;Node30 -->
<g id="edge65" class="edge">
<title>Node7&#45;&gt;Node30</title>
<path fill="none" stroke="#191970" d="M792.9183,-436.4639C740.3781,-424.3253 667.4793,-407.4831 619.0818,-396.3016"/>
<polygon fill="#191970" stroke="#191970" points="619.6735,-392.8462 609.1423,-394.0053 618.0977,-399.6666 619.6735,-392.8462"/>
</g>
<!-- Node31 -->
<g id="node32" class="node">
<title>Node31</title>
<g id="a_node32"><a xlink:href="passkey_8h.html" target="_top" xlink:title="maliput/common/passkey.h">
<polygon fill="#ffffff" stroke="#000000" points="332,-375 332,-394 484,-394 484,-375 332,-375"/>
<text text-anchor="middle" x="408" y="-382" font-family="Helvetica,sans-Serif" font-size="10.00" fill="#000000">maliput/common/passkey.h</text>
</a>
</g>
</g>
<!-- Node7&#45;&gt;Node31 -->
<g id="edge72" class="edge">
<title>Node7&#45;&gt;Node31</title>
<path fill="none" stroke="#191970" d="M792.2738,-443.0356C719.1046,-433.4243 597.3976,-416.8766 493,-400 484.999,-398.7066 476.589,-397.2687 468.299,-395.8049"/>
<polygon fill="#191970" stroke="#191970" points="468.7419,-392.3287 458.2821,-394.0145 467.5103,-399.2195 468.7419,-392.3287"/>
</g>
<!-- Node10&#45;&gt;Node3 -->
<g id="edge17" class="edge">
<title>Node10&#45;&gt;Node3</title>
<path fill="none" stroke="#191970" d="M1370.0476,-374.6567C1364.6634,-346.622 1350,-263.9016 1350,-194.5 1350,-194.5 1350,-194.5 1350,-133 1350,-28.3392 513.3247,-12.5021 336.5529,-10.324"/>
<polygon fill="#191970" stroke="#191970" points="336.3714,-6.8217 326.3311,-10.2044 336.2895,-13.8212 336.3714,-6.8217"/>
</g>
<!-- Node10&#45;&gt;Node8 -->
<g id="edge15" class="edge">
<title>Node10&#45;&gt;Node8</title>
<path fill="none" stroke="#191970" d="M1341.7414,-374.9466C1269.3954,-352.1052 1086.3953,-294.3275 1005.0449,-268.6432"/>
<polygon fill="#191970" stroke="#191970" points="1005.7711,-265.2022 995.1813,-265.529 1003.6635,-271.8774 1005.7711,-265.2022"/>
</g>
<!-- Node11 -->
<g id="node12" class="node">
<title>Node11</title>
<polygon fill="#ffffff" stroke="#bfbfbf" points="1565.5,-185 1565.5,-204 1622.5,-204 1622.5,-185 1565.5,-185"/>
<text text-anchor="middle" x="1594" y="-192" font-family="Helvetica,sans-Serif" font-size="10.00" fill="#000000">ostream</text>
</g>
<!-- Node10&#45;&gt;Node11 -->
<g id="edge16" class="edge">
<title>Node10&#45;&gt;Node11</title>
<path fill="none" stroke="#191970" d="M1438.1972,-376.5344C1475.763,-369.5876 1522.263,-356.7126 1558,-333 1589.6371,-312.0078 1598.5306,-301.8621 1611,-266 1617.0603,-248.5705 1610.8475,-228.0144 1604.2945,-213.4272"/>
<polygon fill="#191970" stroke="#191970" points="1607.4053,-211.8215 1599.8502,-204.3938 1601.1243,-214.9118 1607.4053,-211.8215"/>
</g>
<!-- Node10&#45;&gt;Node12 -->
<g id="edge18" class="edge">
<title>Node10&#45;&gt;Node12</title>
<path fill="none" stroke="#191970" d="M1361.6919,-374.9509C1350.9476,-364.8482 1333.7861,-348.285 1320,-333 1286.7607,-296.1467 1283.7523,-282.384 1250,-246 1240.5934,-235.86 1229.5747,-225.3107 1219.8802,-216.4201"/>
<polygon fill="#191970" stroke="#191970" points="1222.2065,-213.8049 1212.4455,-209.6851 1217.5069,-218.9928 1222.2065,-213.8049"/>
</g>
<!-- Node10&#45;&gt;Node13 -->
<g id="edge19" class="edge">
<title>Node10&#45;&gt;Node13</title>
<path fill="none" stroke="#191970" d="M1368.7948,-374.9989C1356.159,-338.103 1308.7859,-205.0837 1274,-179 1183.3915,-111.0585 848.2325,-84.2993 692.5025,-75.3659"/>
<polygon fill="#191970" stroke="#191970" points="692.2381,-71.8455 682.0572,-74.778 691.8447,-78.8345 692.2381,-71.8455"/>
</g>
<!-- Node14 -->
<g id="node15" class="node">
<title>Node14</title>
<g id="a_node15"><a xlink:href="matrix_8h.html" target="_top" xlink:title="maliput/math/matrix.h">
<polygon fill="#ffffff" stroke="#000000" points="1718.5,-185 1718.5,-204 1845.5,-204 1845.5,-185 1718.5,-185"/>
<text text-anchor="middle" x="1782" y="-192" font-family="Helvetica,sans-Serif" font-size="10.00" fill="#000000">maliput/math/matrix.h</text>
</a>
</g>
</g>
<!-- Node10&#45;&gt;Node14 -->
<g id="edge21" class="edge">
<title>Node10&#45;&gt;Node14</title>
<path fill="none" stroke="#191970" d="M1438.0325,-379.4291C1516.6258,-372.3879 1642.2402,-357.6532 1682,-333 1728.6726,-304.0605 1760.1455,-244.5251 1773.9888,-213.7951"/>
<polygon fill="#191970" stroke="#191970" points="1777.3722,-214.7908 1778.1461,-204.2242 1770.9518,-212.0019 1777.3722,-214.7908"/>
</g>
<!-- Node10&#45;&gt;Node20 -->
<g id="edge45" class="edge">
<title>Node10&#45;&gt;Node20</title>
<path fill="none" stroke="#191970" d="M1437.1249,-374.9883C1492.0316,-365.9106 1565.3355,-350.9759 1589,-333 1645.5878,-290.0151 1669.8664,-239.1333 1632,-179 1622.286,-163.5737 1605.805,-153.2059 1589.214,-146.2886"/>
<polygon fill="#191970" stroke="#191970" points="1590.0746,-142.8719 1579.4832,-142.6024 1587.5948,-149.418 1590.0746,-142.8719"/>
</g>
<!-- Node10&#45;&gt;Node21 -->
<g id="edge34" class="edge">
<title>Node10&#45;&gt;Node21</title>
<path fill="none" stroke="#191970" d="M1427.4499,-374.9196C1471.2683,-366.0864 1527.2625,-351.5475 1541,-333 1553.429,-316.2192 1546.195,-291.756 1538.4602,-274.9303"/>
<polygon fill="#191970" stroke="#191970" points="1541.3744,-272.9353 1533.7509,-265.5778 1535.1223,-276.0835 1541.3744,-272.9353"/>
</g>
<!-- Node23 -->
<g id="node24" class="node">
<title>Node23</title>
<g id="a_node24"><a xlink:href="roll__pitch__yaw_8h.html" target="_top" xlink:title="Code in this file is inspired by: https://github.com/RobotLocomotion/drake/blob/master/math/roll_pitc...">
<polygon fill="#ffffff" stroke="#000000" points="1400.5,-302.5 1400.5,-332.5 1531.5,-332.5 1531.5,-302.5 1400.5,-302.5"/>
<text text-anchor="start" x="1408.5" y="-320.5" font-family="Helvetica,sans-Serif" font-size="10.00" fill="#000000">maliput/math/roll_pitch</text>
<text text-anchor="middle" x="1466" y="-309.5" font-family="Helvetica,sans-Serif" font-size="10.00" fill="#000000">_yaw.h</text>
</a>
</g>
</g>
<!-- Node10&#45;&gt;Node23 -->
<g id="edge40" class="edge">
<title>Node10&#45;&gt;Node23</title>
<path fill="none" stroke="#191970" d="M1385.4679,-374.9005C1398.6962,-365.4718 1419.3192,-350.7725 1436.3835,-338.6096"/>
<polygon fill="#191970" stroke="#191970" points="1438.813,-341.1761 1444.9247,-332.5218 1434.75,-335.4759 1438.813,-341.1761"/>
</g>
<!-- Node13&#45;&gt;Node3 -->
<g id="edge20" class="edge">
<title>Node13&#45;&gt;Node3</title>
<path fill="none" stroke="#191970" d="M541.7246,-57.4677C477.2154,-44.5868 384.5456,-26.083 336.1704,-16.4236"/>
<polygon fill="#191970" stroke="#191970" points="336.7576,-12.9719 326.2658,-14.4459 335.3868,-19.8364 336.7576,-12.9719"/>
</g>
<!-- Node15 -->
<g id="node16" class="node">
<title>Node15</title>
<polygon fill="#ffffff" stroke="#bfbfbf" points="1680,-62 1680,-81 1744,-81 1744,-62 1680,-62"/>
<text text-anchor="middle" x="1712" y="-69" font-family="Helvetica,sans-Serif" font-size="10.00" fill="#000000">algorithm</text>
</g>
<!-- Node14&#45;&gt;Node15 -->
<g id="edge22" class="edge">
<title>Node14&#45;&gt;Node15</title>
<path fill="none" stroke="#191970" d="M1776.5072,-184.8484C1764.9041,-164.4601 1737.7255,-116.7033 1722.6115,-90.1459"/>
<polygon fill="#191970" stroke="#191970" points="1725.4554,-88.0667 1717.4673,-81.1068 1719.3716,-91.5291 1725.4554,-88.0667"/>
</g>
<!-- Node16 -->
<g id="node17" class="node">
<title>Node16</title>
<polygon fill="#ffffff" stroke="#bfbfbf" points="1762,-62 1762,-81 1804,-81 1804,-62 1762,-62"/>
<text text-anchor="middle" x="1783" y="-69" font-family="Helvetica,sans-Serif" font-size="10.00" fill="#000000">array</text>
</g>
<!-- Node14&#45;&gt;Node16 -->
<g id="edge23" class="edge">
<title>Node14&#45;&gt;Node16</title>
<path fill="none" stroke="#191970" d="M1782.0785,-184.8484C1782.242,-164.7295 1782.6223,-117.9608 1782.8398,-91.2098"/>
<polygon fill="#191970" stroke="#191970" points="1786.3404,-91.1349 1782.9219,-81.1068 1779.3406,-91.0779 1786.3404,-91.1349"/>
</g>
<!-- Node17 -->
<g id="node18" class="node">
<title>Node17</title>
<polygon fill="#ffffff" stroke="#bfbfbf" points="1507.5,-62 1507.5,-81 1560.5,-81 1560.5,-62 1507.5,-62"/>
<text text-anchor="middle" x="1534" y="-69" font-family="Helvetica,sans-Serif" font-size="10.00" fill="#000000">cstddef</text>
</g>
<!-- Node14&#45;&gt;Node17 -->
<g id="edge24" class="edge">
<title>Node14&#45;&gt;Node17</title>
<path fill="none" stroke="#191970" d="M1763.5112,-184.8549C1736.7986,-170.9658 1685.8054,-144.6254 1642,-123 1615.5525,-109.9437 1585.219,-95.5277 1563.4462,-85.2768"/>
<polygon fill="#191970" stroke="#191970" points="1564.922,-82.1032 1554.3829,-81.0175 1561.9447,-88.4385 1564.922,-82.1032"/>
</g>
<!-- Node18 -->
<g id="node19" class="node">
<title>Node18</title>
<polygon fill="#ffffff" stroke="#bfbfbf" points="1578.5,-62 1578.5,-81 1661.5,-81 1661.5,-62 1578.5,-62"/>
<text text-anchor="middle" x="1620" y="-69" font-family="Helvetica,sans-Serif" font-size="10.00" fill="#000000">initializer_list</text>
</g>
<!-- Node14&#45;&gt;Node18 -->
<g id="edge25" class="edge">
<title>Node14&#45;&gt;Node18</title>
<path fill="none" stroke="#191970" d="M1769.2881,-184.8484C1741.4889,-163.7415 1675.0579,-113.3032 1640.9667,-87.4192"/>
<polygon fill="#191970" stroke="#191970" points="1642.7338,-84.3663 1632.6528,-81.1068 1638.5008,-89.9415 1642.7338,-84.3663"/>
</g>
<!-- Node19 -->
<g id="node20" class="node">
<title>Node19</title>
<polygon fill="#ffffff" stroke="#bfbfbf" points="1429,-62 1429,-81 1489,-81 1489,-62 1429,-62"/>
<text text-anchor="middle" x="1459" y="-69" font-family="Helvetica,sans-Serif" font-size="10.00" fill="#000000">iostream</text>
</g>
<!-- Node14&#45;&gt;Node19 -->
<g id="edge26" class="edge">
<title>Node14&#45;&gt;Node19</title>
<path fill="none" stroke="#191970" d="M1751.3182,-184.977C1722.5156,-175.628 1678.5162,-160.2853 1642,-143 1626.154,-135.4992 1623.9694,-130.2344 1608,-123 1561.528,-101.9474 1547.0234,-104.2225 1499,-87 1496.8925,-86.2442 1494.7284,-85.4521 1492.55,-84.6428"/>
<polygon fill="#191970" stroke="#191970" points="1493.6308,-81.3096 1483.0393,-81.0423 1491.1524,-87.8562 1493.6308,-81.3096"/>
</g>
<!-- Node14&#45;&gt;Node20 -->
<g id="edge27" class="edge">
<title>Node14&#45;&gt;Node20</title>
<path fill="none" stroke="#191970" d="M1743.8324,-184.9581C1700.833,-174.2082 1630.8649,-156.7162 1584.1458,-145.0365"/>
<polygon fill="#191970" stroke="#191970" points="1584.8075,-141.5942 1574.2571,-142.5643 1583.1097,-148.3852 1584.8075,-141.5942"/>
</g>
<!-- Node20&#45;&gt;Node13 -->
<g id="edge33" class="edge">
<title>Node20&#45;&gt;Node13</title>
<path fill="none" stroke="#191970" d="M1473.2162,-128.8212C1310.0685,-117.9624 872.8875,-88.8643 692.0273,-76.8265"/>
<polygon fill="#191970" stroke="#191970" points="692.2583,-73.3342 682.0479,-76.1623 691.7934,-80.3188 692.2583,-73.3342"/>
</g>
<!-- Node20&#45;&gt;Node15 -->
<g id="edge28" class="edge">
<title>Node20&#45;&gt;Node15</title>
<path fill="none" stroke="#191970" d="M1564.8013,-123.4927C1592.1992,-114.3763 1634.5318,-100.1025 1671,-87 1673.0947,-86.2474 1675.2461,-85.4644 1677.4137,-84.6678"/>
<polygon fill="#191970" stroke="#191970" points="1678.7442,-87.9073 1686.8965,-81.1403 1676.3036,-81.3465 1678.7442,-87.9073"/>
</g>
<!-- Node20&#45;&gt;Node16 -->
<g id="edge29" class="edge">
<title>Node20&#45;&gt;Node16</title>
<path fill="none" stroke="#191970" d="M1598.9572,-124.2353C1642.9438,-117.0122 1702.5862,-104.9974 1753,-87 1754.4148,-86.4949 1755.8469,-85.9357 1757.2788,-85.3381"/>
<polygon fill="#191970" stroke="#191970" points="1758.9615,-88.4151 1766.5367,-81.0079 1755.9957,-82.0744 1758.9615,-88.4151"/>
</g>
<!-- Node20&#45;&gt;Node17 -->
<g id="edge30" class="edge">
<title>Node20&#45;&gt;Node17</title>
<path fill="none" stroke="#191970" d="M1535.6875,-123.3906C1535.4103,-114.8657 1534.9964,-102.1392 1534.6479,-91.4235"/>
<polygon fill="#191970" stroke="#191970" points="1538.1402,-91.1258 1534.3169,-81.2449 1531.1439,-91.3534 1538.1402,-91.1258"/>
</g>
<!-- Node20&#45;&gt;Node18 -->
<g id="edge31" class="edge">
<title>Node20&#45;&gt;Node18</title>
<path fill="none" stroke="#191970" d="M1549.125,-123.3906C1562.44,-113.6421 1583.2594,-98.3994 1598.8947,-86.9521"/>
<polygon fill="#191970" stroke="#191970" points="1600.9661,-89.7734 1606.9672,-81.0419 1596.8309,-84.1253 1600.9661,-89.7734"/>
</g>
<!-- Node20&#45;&gt;Node19 -->
<g id="edge32" class="edge">
<title>Node20&#45;&gt;Node19</title>
<path fill="none" stroke="#191970" d="M1523.9688,-123.3906C1511.9893,-113.8227 1493.3834,-98.9621 1479.1475,-87.5919"/>
<polygon fill="#191970" stroke="#191970" points="1480.9447,-84.5479 1470.9468,-81.0419 1476.5761,-90.0175 1480.9447,-84.5479"/>
</g>
<!-- Node21&#45;&gt;Node11 -->
<g id="edge36" class="edge">
<title>Node21&#45;&gt;Node11</title>
<path fill="none" stroke="#191970" d="M1538.3125,-246.3906C1548.4242,-236.9683 1564.0442,-222.4134 1576.1707,-211.1137"/>
<polygon fill="#191970" stroke="#191970" points="1578.612,-213.6228 1583.5421,-204.2449 1573.8399,-208.5015 1578.612,-213.6228"/>
</g>
<!-- Node21&#45;&gt;Node12 -->
<g id="edge37" class="edge">
<title>Node21&#45;&gt;Node12</title>
<path fill="none" stroke="#191970" d="M1476.3341,-246.4581C1422.6024,-236.5347 1337.7616,-220.8659 1275.2859,-209.3276"/>
<polygon fill="#191970" stroke="#191970" points="1275.5384,-205.8151 1265.069,-207.4407 1274.267,-212.6987 1275.5384,-205.8151"/>
</g>
<!-- Node21&#45;&gt;Node14 -->
<g id="edge38" class="edge">
<title>Node21&#45;&gt;Node14</title>
<path fill="none" stroke="#191970" d="M1567.4088,-246.4581C1611.8997,-235.6857 1684.3531,-218.1428 1732.5915,-206.4631"/>
<polygon fill="#191970" stroke="#191970" points="1733.6032,-209.8193 1742.4987,-204.0643 1731.9559,-203.0159 1733.6032,-209.8193"/>
</g>
<!-- Node21&#45;&gt;Node20 -->
<g id="edge39" class="edge">
<title>Node21&#45;&gt;Node20</title>
<path fill="none" stroke="#191970" d="M1528.6277,-246.3484C1529.9363,-226.2295 1532.9782,-179.4608 1534.7181,-152.7098"/>
<polygon fill="#191970" stroke="#191970" points="1538.2187,-152.8129 1535.3752,-142.6068 1531.2334,-152.3585 1538.2187,-152.8129"/>
</g>
<!-- Node22 -->
<g id="node23" class="node">
<title>Node22</title>
<polygon fill="#ffffff" stroke="#bfbfbf" points="867.5,-185 867.5,-204 914.5,-204 914.5,-185 867.5,-185"/>
<text text-anchor="middle" x="891" y="-192" font-family="Helvetica,sans-Serif" font-size="10.00" fill="#000000">cmath</text>
</g>
<!-- Node21&#45;&gt;Node22 -->
<g id="edge35" class="edge">
<title>Node21&#45;&gt;Node22</title>
<path fill="none" stroke="#191970" d="M1454.3057,-248.8851C1316.2212,-235.5535 1023.5489,-207.2971 924.5421,-197.7384"/>
<polygon fill="#191970" stroke="#191970" points="924.7978,-194.2469 914.5077,-196.7696 924.125,-201.2145 924.7978,-194.2469"/>
</g>
<!-- Node23&#45;&gt;Node12 -->
<g id="edge41" class="edge">
<title>Node23&#45;&gt;Node12</title>
<path fill="none" stroke="#191970" d="M1432.7701,-302.4178C1383.5705,-280.0874 1291.364,-238.2372 1237.3718,-213.7315"/>
<polygon fill="#191970" stroke="#191970" points="1238.6299,-210.4589 1228.0774,-209.513 1235.7368,-216.8331 1238.6299,-210.4589"/>
</g>
<!-- Node23&#45;&gt;Node14 -->
<g id="edge42" class="edge">
<title>Node23&#45;&gt;Node14</title>
<path fill="none" stroke="#191970" d="M1510.333,-302.4595C1539.1603,-292.5063 1577.4834,-278.948 1611,-266 1660.3116,-246.9501 1716.7547,-222.905 1750.8688,-208.1209"/>
<polygon fill="#191970" stroke="#191970" points="1752.5133,-211.2225 1760.2902,-204.0272 1749.7237,-204.8024 1752.5133,-211.2225"/>
</g>
<!-- Node23&#45;&gt;Node20 -->
<g id="edge44" class="edge">
<title>Node23&#45;&gt;Node20</title>
<path fill="none" stroke="#191970" d="M1456.3442,-302.2623C1448.3574,-287.6673 1439.3221,-265.1032 1446,-246 1459.9433,-206.1128 1494.5141,-169.7846 1516.523,-149.6064"/>
<polygon fill="#191970" stroke="#191970" points="1519.1429,-151.9595 1524.2738,-142.69 1514.4822,-146.7366 1519.1429,-151.9595"/>
</g>
<!-- Node23&#45;&gt;Node21 -->
<g id="edge43" class="edge">
<title>Node23&#45;&gt;Node21</title>
<path fill="none" stroke="#191970" d="M1481.3258,-302.2977C1490.2907,-293.4052 1501.6288,-282.1586 1510.8851,-272.9769"/>
<polygon fill="#191970" stroke="#191970" points="1513.4382,-275.3742 1518.073,-265.8469 1508.5085,-270.4045 1513.4382,-275.3742"/>
</g>
<!-- Node24&#45;&gt;Node3 -->
<g id="edge48" class="edge">
<title>Node24&#45;&gt;Node3</title>
<path fill="none" stroke="#191970" d="M689.7493,-370.4657C561.8377,-342.8838 304,-277.0477 304,-194.5 304,-194.5 304,-194.5 304,-133 304,-96.4994 304,-53.906 304,-29.6285"/>
<polygon fill="#191970" stroke="#191970" points="307.5001,-29.5691 304,-19.5691 300.5001,-29.5692 307.5001,-29.5691"/>
</g>
<!-- Node24&#45;&gt;Node8 -->
<g id="edge47" class="edge">
<title>Node24&#45;&gt;Node8</title>
<path fill="none" stroke="#191970" d="M789.2484,-369.4948C808.0319,-359.6104 832.7926,-346.1148 854,-333 886.0835,-313.1593 921.6679,-287.855 943.6895,-271.7842"/>
<polygon fill="#191970" stroke="#191970" points="945.9822,-274.4431 951.9748,-265.7059 941.8415,-268.7991 945.9822,-274.4431"/>
</g>
<!-- Node24&#45;&gt;Node12 -->
<g id="edge50" class="edge">
<title>Node24&#45;&gt;Node12</title>
<path fill="none" stroke="#191970" d="M779.0365,-369.3158C791.4674,-359.2481 807.9402,-345.6163 822,-333 866.3471,-293.206 869.872,-270.9074 924,-246 984.4107,-218.2015 1059.0175,-205.4076 1114.6467,-199.5196"/>
<polygon fill="#191970" stroke="#191970" points="1115.2056,-202.9812 1124.8053,-198.4985 1114.5054,-196.0163 1115.2056,-202.9812"/>
</g>
<!-- Node24&#45;&gt;Node13 -->
<g id="edge64" class="edge">
<title>Node24&#45;&gt;Node13</title>
<path fill="none" stroke="#191970" d="M752.8617,-369.4034C729.1781,-319.3159 653.0398,-158.2937 623.6897,-96.2222"/>
<polygon fill="#191970" stroke="#191970" points="626.6789,-94.356 619.2401,-86.8118 620.3507,-97.3483 626.6789,-94.356"/>
</g>
<!-- Node24&#45;&gt;Node25 -->
<g id="edge49" class="edge">
<title>Node24&#45;&gt;Node25</title>
<path fill="none" stroke="#191970" d="M771.0335,-369.2548C788.2601,-345.4524 821.4752,-299.5584 839.8943,-274.1084"/>
<polygon fill="#191970" stroke="#191970" points="842.9262,-275.8888 845.9539,-265.7358 837.2555,-271.7847 842.9262,-275.8888"/>
</g>
<!-- Node24&#45;&gt;Node26 -->
<g id="edge51" class="edge">
<title>Node24&#45;&gt;Node26</title>
<path fill="none" stroke="#191970" d="M730.3766,-369.4639C711.6564,-359.9619 687.2579,-347.5779 666.9754,-337.283"/>
<polygon fill="#191970" stroke="#191970" points="668.4825,-334.1229 657.9812,-332.7177 665.3142,-340.3649 668.4825,-334.1229"/>
</g>
<!-- Node26&#45;&gt;Node3 -->
<g id="edge59" class="edge">
<title>Node26&#45;&gt;Node3</title>
<path fill="none" stroke="#191970" d="M557.815,-309.7336C499.1265,-301.8347 421.5003,-287.6498 399,-266 375.3064,-243.202 380,-227.3806 380,-194.5 380,-194.5 380,-194.5 380,-133 380,-89.4388 345.0757,-48.4145 322.5765,-26.5053"/>
<polygon fill="#191970" stroke="#191970" points="324.8962,-23.8822 315.2141,-19.5801 320.1001,-28.981 324.8962,-23.8822"/>
</g>
<!-- Node26&#45;&gt;Node5 -->
<g id="edge57" class="edge">
<title>Node26&#45;&gt;Node5</title>
<path fill="none" stroke="#191970" d="M698.2302,-308.7212C803.7675,-295.5291 999.6526,-271.0434 1081.9879,-260.7515"/>
<polygon fill="#191970" stroke="#191970" points="1082.4246,-264.2243 1091.9132,-259.5109 1081.5563,-257.2783 1082.4246,-264.2243"/>
</g>
<!-- Node26&#45;&gt;Node6 -->
<g id="edge62" class="edge">
<title>Node26&#45;&gt;Node6</title>
<path fill="none" stroke="#191970" d="M557.8709,-307.9581C459.3162,-294.5486 283.6559,-270.6479 209.9898,-260.6247"/>
<polygon fill="#191970" stroke="#191970" points="210.263,-257.1297 199.8824,-259.2495 209.3192,-264.0658 210.263,-257.1297"/>
</g>
<!-- Node26&#45;&gt;Node8 -->
<g id="edge54" class="edge">
<title>Node26&#45;&gt;Node8</title>
<path fill="none" stroke="#191970" d="M698.236,-304.6824C765.7904,-292.3543 865.7353,-274.1151 922.1563,-263.8187"/>
<polygon fill="#191970" stroke="#191970" points="922.9581,-267.2302 932.1672,-261.9917 921.7013,-260.344 922.9581,-267.2302"/>
</g>
<!-- Node26&#45;&gt;Node13 -->
<g id="edge63" class="edge">
<title>Node26&#45;&gt;Node13</title>
<path fill="none" stroke="#191970" d="M627.0232,-302.4819C624.3621,-261.5667 616.9618,-147.7883 613.645,-96.7921"/>
<polygon fill="#191970" stroke="#191970" points="617.1261,-96.3858 612.9843,-86.6341 610.1408,-96.8402 617.1261,-96.3858"/>
</g>
<!-- Node26&#45;&gt;Node17 -->
<g id="edge53" class="edge">
<title>Node26&#45;&gt;Node17</title>
<path fill="none" stroke="#191970" d="M646.5923,-302.4411C684.0196,-273.0462 772.2206,-208.3421 858,-179 1129.9009,-85.9923 1221.4037,-164.9425 1498,-87 1500.1818,-86.3852 1502.4054,-85.6679 1504.623,-84.8852"/>
<polygon fill="#191970" stroke="#191970" points="1506.1233,-88.0566 1514.158,-81.1504 1503.5702,-81.5387 1506.1233,-88.0566"/>
</g>
<!-- Node26&#45;&gt;Node19 -->
<g id="edge55" class="edge">
<title>Node26&#45;&gt;Node19</title>
<path fill="none" stroke="#191970" d="M632.282,-302.485C644.4927,-260.7922 680.6272,-145.2072 712,-123 769.838,-82.0594 1271.0605,-73.4991 1418.4194,-71.8607"/>
<polygon fill="#191970" stroke="#191970" points="1418.8428,-75.3565 1428.805,-71.7503 1418.7683,-68.3569 1418.8428,-75.3565"/>
</g>
<!-- Node26&#45;&gt;Node22 -->
<g id="edge52" class="edge">
<title>Node26&#45;&gt;Node22</title>
<path fill="none" stroke="#191970" d="M660.249,-302.4178C711.6859,-278.3617 811.5603,-231.6524 861.3259,-208.378"/>
<polygon fill="#191970" stroke="#191970" points="863.0061,-211.4561 870.5817,-204.0493 860.0406,-205.1153 863.0061,-211.4561"/>
</g>
<!-- Node26&#45;&gt;Node25 -->
<g id="edge61" class="edge">
<title>Node26&#45;&gt;Node25</title>
<path fill="none" stroke="#191970" d="M683.0412,-302.4554C726.1427,-290.6743 784.6258,-274.689 820.5384,-264.8728"/>
<polygon fill="#191970" stroke="#191970" points="821.7538,-268.1691 830.4771,-262.1562 819.9081,-261.4168 821.7538,-268.1691"/>
</g>
<!-- Node27 -->
<g id="node28" class="node">
<title>Node27</title>
<polygon fill="#ffffff" stroke="#bfbfbf" points="496,-246.5 496,-265.5 534,-265.5 534,-246.5 496,-246.5"/>
<text text-anchor="middle" x="515" y="-253.5" font-family="Helvetica,sans-Serif" font-size="10.00" fill="#000000">map</text>
</g>
<!-- Node26&#45;&gt;Node27 -->
<g id="edge56" class="edge">
<title>Node26&#45;&gt;Node27</title>
<path fill="none" stroke="#191970" d="M600.3571,-302.4554C582.4951,-292.734 559.3732,-280.15 541.7005,-270.5317"/>
<polygon fill="#191970" stroke="#191970" points="542.9675,-267.2365 532.511,-265.5303 539.6213,-273.3849 542.9675,-267.2365"/>
</g>
<!-- Node28 -->
<g id="node29" class="node">
<title>Node28</title>
<polygon fill="#ffffff" stroke="#bfbfbf" points="552,-246.5 552,-265.5 584,-265.5 584,-246.5 552,-246.5"/>
<text text-anchor="middle" x="568" y="-253.5" font-family="Helvetica,sans-Serif" font-size="10.00" fill="#000000">set</text>
</g>
<!-- Node26&#45;&gt;Node28 -->
<g id="edge58" class="edge">
<title>Node26&#45;&gt;Node28</title>
<path fill="none" stroke="#191970" d="M613.1685,-302.2977C604.5796,-293.4941 593.7398,-282.3833 584.8321,-273.2529"/>
<polygon fill="#191970" stroke="#191970" points="587.0953,-270.5606 577.6068,-265.8469 582.0848,-275.4489 587.0953,-270.5606"/>
</g>
<!-- Node29 -->
<g id="node30" class="node">
<title>Node29</title>
<polygon fill="#ffffff" stroke="#bfbfbf" points="408.5,-246.5 408.5,-265.5 477.5,-265.5 477.5,-246.5 408.5,-246.5"/>
<text text-anchor="middle" x="443" y="-253.5" font-family="Helvetica,sans-Serif" font-size="10.00" fill="#000000">type_traits</text>
</g>
<!-- Node26&#45;&gt;Node29 -->
<g id="edge60" class="edge">
<title>Node26&#45;&gt;Node29</title>
<path fill="none" stroke="#191970" d="M582.7439,-302.4554C551.6054,-292.104 510.7031,-278.5067 481.2045,-268.7004"/>
<polygon fill="#191970" stroke="#191970" points="482.262,-265.3637 471.6684,-265.5303 480.0537,-272.0063 482.262,-265.3637"/>
</g>
<!-- Node30&#45;&gt;Node3 -->
<g id="edge66" class="edge">
<title>Node30&#45;&gt;Node3</title>
<path fill="none" stroke="#191970" d="M521.2571,-374.9351C471.163,-364.2404 395.2958,-346.6336 369,-333 328.1287,-311.8094 309.3468,-307.7757 290,-266 252.502,-185.0302 282.3177,-73.8871 297.0167,-29.4804"/>
<polygon fill="#191970" stroke="#191970" points="300.365,-30.5061 300.2981,-19.9115 293.7435,-28.2354 300.365,-30.5061"/>
</g>
<!-- Node30&#45;&gt;Node12 -->
<g id="edge67" class="edge">
<title>Node30&#45;&gt;Node12</title>
<path fill="none" stroke="#191970" d="M602.0774,-374.9883C630.9958,-366.1975 673.0725,-351.6824 707,-333 762.8307,-302.2566 762.1565,-270.488 821,-246 872.5248,-224.5577 1020.9984,-208.8536 1114.637,-200.7418"/>
<polygon fill="#191970" stroke="#191970" points="1114.9819,-204.2252 1124.6471,-199.8855 1114.3851,-197.2507 1114.9819,-204.2252"/>
</g>
<!-- Node30&#45;&gt;Node13 -->
<g id="edge69" class="edge">
<title>Node30&#45;&gt;Node13</title>
<path fill="none" stroke="#191970" d="M523.3703,-374.9966C453.4431,-357.7605 329.5976,-316.4529 366,-246 406.8698,-166.9011 501.9729,-115.8947 561.2363,-90.558"/>
<polygon fill="#191970" stroke="#191970" points="562.9097,-93.652 570.7851,-86.5648 560.209,-87.194 562.9097,-93.652"/>
</g>
<!-- Node30&#45;&gt;Node26 -->
<g id="edge68" class="edge">
<title>Node30&#45;&gt;Node26</title>
<path fill="none" stroke="#191970" d="M576.5965,-374.9005C584.6528,-365.9043 597.006,-352.1099 607.5833,-340.2986"/>
<polygon fill="#191970" stroke="#191970" points="610.4838,-342.3062 614.5477,-332.5218 605.2691,-337.6364 610.4838,-342.3062"/>
</g>
<!-- Node33&#45;&gt;Node2 -->
<g id="edge84" class="edge">
<title>Node33&#45;&gt;Node2</title>
<path fill="none" stroke="#191970" d="M909.4779,-584.8513C744.4402,-582.5133 271.2538,-572.4891 214,-534 173.7501,-506.9418 189.7887,-478.2646 166,-436 159.6056,-424.6394 151.7551,-412.3313 145.3155,-402.5971"/>
<polygon fill="#191970" stroke="#191970" points="148.1416,-400.527 139.6674,-394.1678 142.3264,-404.4236 148.1416,-400.527"/>
</g>
<!-- Node33&#45;&gt;Node4 -->
<g id="edge87" class="edge">
<title>Node33&#45;&gt;Node4</title>
<path fill="none" stroke="#191970" d="M971.446,-570.2967C974.2997,-562.3299 977.8668,-552.3718 981.1088,-543.3213"/>
<polygon fill="#191970" stroke="#191970" points="984.4982,-544.2377 984.5756,-533.6432 977.9083,-541.8771 984.4982,-544.2377"/>
</g>
<!-- Node33&#45;&gt;Node5 -->
<g id="edge85" class="edge">
<title>Node33&#45;&gt;Node5</title>
<path fill="none" stroke="#191970" d="M1022.9014,-570.9747C1072.9423,-554.8073 1142.5621,-523.2263 1174,-467 1210.2352,-402.1937 1159.1135,-312.6657 1133.3271,-274.4682"/>
<polygon fill="#191970" stroke="#191970" points="1135.9633,-272.1281 1127.3857,-265.9092 1130.213,-276.1198 1135.9633,-272.1281"/>
</g>
<!-- Node33&#45;&gt;Node6 -->
<g id="edge86" class="edge">
<title>Node33&#45;&gt;Node6</title>
<path fill="none" stroke="#191970" d="M909.3994,-581.5863C797.4441,-572.3849 541.2264,-544.0223 341,-467 287.5729,-446.4479 270.3693,-441.5559 231,-400 197.3803,-364.5131 183.736,-306.3539 178.6777,-275.9446"/>
<polygon fill="#191970" stroke="#191970" points="182.0925,-275.1175 177.1357,-265.7537 175.1713,-276.1649 182.0925,-275.1175"/>
</g>
<!-- Node33&#45;&gt;Node7 -->
<g id="edge88" class="edge">
<title>Node33&#45;&gt;Node7</title>
<path fill="none" stroke="#191970" d="M950.0135,-570.3217C939.8511,-560.3683 926.651,-546.8608 916,-534 900.3586,-515.1135 884.4709,-492.1978 873.2886,-475.3153"/>
<polygon fill="#191970" stroke="#191970" points="875.9998,-473.067 867.5917,-466.6208 870.1447,-476.9034 875.9998,-473.067"/>
</g>
<!-- Node33&#45;&gt;Node12 -->
<g id="edge89" class="edge">
<title>Node33&#45;&gt;Node12</title>
<path fill="none" stroke="#191970" d="M1022.6627,-577.498C1058.3627,-570.4071 1104.1277,-557.3934 1139,-534 1170.761,-512.6938 1179.4713,-502.7728 1193,-467 1225.4395,-381.2229 1209.9001,-269.1114 1200.4412,-219.7244"/>
<polygon fill="#191970" stroke="#191970" points="1203.8163,-218.7531 1198.4228,-209.6338 1196.9523,-220.1261 1203.8163,-218.7531"/>
</g>
</g>
</svg>
