<?xml version="1.0" encoding="UTF-8" standalone="no"?>
<!DOCTYPE svg PUBLIC "-//W3C//DTD SVG 1.1//EN"
 "http://www.w3.org/Graphics/SVG/1.1/DTD/svg11.dtd">
<!-- Generated by graphviz version 2.40.1 (20161225.0304)
 -->
<!-- Title: yaml_conversion.cc Pages: 1 -->
<svg width="1741pt" height="632pt"
 viewBox="0.00 0.00 1740.50 632.00" xmlns="http://www.w3.org/2000/svg" xmlns:xlink="http://www.w3.org/1999/xlink">
<g id="graph0" class="graph" transform="scale(1 1) rotate(0) translate(4 628)">
<title>yaml_conversion.cc</title>
<polygon fill="#ffffff" stroke="transparent" points="-4,4 -4,-628 1736.5,-628 1736.5,4 -4,4"/>
<!-- Node0 -->
<g id="node1" class="node">
<title>Node0</title>
<polygon fill="#bfbfbf" stroke="#000000" points="932,-604.5 932,-623.5 1045,-623.5 1045,-604.5 932,-604.5"/>
<text text-anchor="middle" x="988.5" y="-611.5" font-family="Helvetica,sans-Serif" font-size="10.00" fill="#000000">yaml_conversion.cc</text>
</g>
<!-- Node1 -->
<g id="node2" class="node">
<title>Node1</title>
<g id="a_node2"><a xlink:href="yaml__conversion_8h.html" target="_top" xlink:title="maliput/base/yaml_conversion.h">
<polygon fill="#ffffff" stroke="#000000" points="786.5,-548.5 786.5,-567.5 962.5,-567.5 962.5,-548.5 786.5,-548.5"/>
<text text-anchor="middle" x="874.5" y="-555.5" font-family="Helvetica,sans-Serif" font-size="10.00" fill="#000000">maliput/base/yaml_conversion.h</text>
</a>
</g>
</g>
<!-- Node0&#45;&gt;Node1 -->
<g id="edge1" class="edge">
<title>Node0&#45;&gt;Node1</title>
<path fill="none" stroke="#191970" d="M968.9027,-604.3733C950.7669,-595.4644 923.5865,-582.1127 903.0413,-572.0203"/>
<polygon fill="#191970" stroke="#191970" points="904.3603,-568.7688 893.8416,-567.5011 901.2739,-575.0517 904.3603,-568.7688"/>
</g>
<!-- Node31 -->
<g id="node32" class="node">
<title>Node31</title>
<g id="a_node32"><a xlink:href="rule_8h.html" target="_top" xlink:title="maliput/api/rules/rule.h">
<polygon fill="#ffffff" stroke="#000000" points="1151.5,-548.5 1151.5,-567.5 1281.5,-567.5 1281.5,-548.5 1151.5,-548.5"/>
<text text-anchor="middle" x="1216.5" y="-555.5" font-family="Helvetica,sans-Serif" font-size="10.00" fill="#000000">maliput/api/rules/rule.h</text>
</a>
</g>
</g>
<!-- Node0&#45;&gt;Node31 -->
<g id="edge67" class="edge">
<title>Node0&#45;&gt;Node31</title>
<path fill="none" stroke="#191970" d="M1027.4355,-604.4369C1066.292,-594.8932 1126.093,-580.2052 1168.0089,-569.9101"/>
<polygon fill="#191970" stroke="#191970" points="1168.8486,-573.308 1177.7251,-567.5237 1167.1788,-566.51 1168.8486,-573.308"/>
</g>
<!-- Node2 -->
<g id="node3" class="node">
<title>Node2</title>
<polygon fill="#ffffff" stroke="#bfbfbf" points="0,-492.5 0,-511.5 99,-511.5 99,-492.5 0,-492.5"/>
<text text-anchor="middle" x="49.5" y="-499.5" font-family="Helvetica,sans-Serif" font-size="10.00" fill="#000000">yaml&#45;cpp/yaml.h</text>
</g>
<!-- Node1&#45;&gt;Node2 -->
<g id="edge2" class="edge">
<title>Node1&#45;&gt;Node2</title>
<path fill="none" stroke="#191970" d="M786.3878,-555.3816C644.3933,-550.554 356.2882,-538.2462 113.5,-512 112.0325,-511.8414 110.5473,-511.6727 109.05,-511.4955"/>
<polygon fill="#191970" stroke="#191970" points="109.4162,-508.0139 99.0528,-510.2166 108.5279,-514.9573 109.4162,-508.0139"/>
</g>
<!-- Node3 -->
<g id="node4" class="node">
<title>Node3</title>
<g id="a_node4"><a xlink:href="regions_8h.html" target="_top" xlink:title="maliput/api/regions.h">
<polygon fill="#ffffff" stroke="#000000" points="814.5,-492.5 814.5,-511.5 934.5,-511.5 934.5,-492.5 814.5,-492.5"/>
<text text-anchor="middle" x="874.5" y="-499.5" font-family="Helvetica,sans-Serif" font-size="10.00" fill="#000000">maliput/api/regions.h</text>
</a>
</g>
</g>
<!-- Node1&#45;&gt;Node3 -->
<g id="edge3" class="edge">
<title>Node1&#45;&gt;Node3</title>
<path fill="none" stroke="#191970" d="M874.5,-548.2455C874.5,-540.9382 874.5,-530.6944 874.5,-521.7046"/>
<polygon fill="#191970" stroke="#191970" points="878.0001,-521.6426 874.5,-511.6427 871.0001,-521.6427 878.0001,-521.6426"/>
</g>
<!-- Node4 -->
<g id="node5" class="node">
<title>Node4</title>
<polygon fill="#ffffff" stroke="#bfbfbf" points="452,-185 452,-204 499,-204 499,-185 452,-185"/>
<text text-anchor="middle" x="475.5" y="-192" font-family="Helvetica,sans-Serif" font-size="10.00" fill="#000000">cmath</text>
</g>
<!-- Node3&#45;&gt;Node4 -->
<g id="edge4" class="edge">
<title>Node3&#45;&gt;Node4</title>
<path fill="none" stroke="#191970" d="M814.205,-494.2687C738.8966,-482.6312 607.9834,-455.7513 509.5,-400 440.281,-360.8152 410.9523,-350.058 379.5,-277 374.0519,-264.3451 372.4258,-257.823 379.5,-246 392.9743,-223.4809 420.0432,-210.2438 442.0122,-202.8422"/>
<polygon fill="#191970" stroke="#191970" points="443.1681,-206.1482 451.68,-199.8397 441.0919,-199.4631 443.1681,-206.1482"/>
</g>
<!-- Node5 -->
<g id="node6" class="node">
<title>Node5</title>
<polygon fill="#ffffff" stroke="#bfbfbf" points="196.5,-436.5 196.5,-455.5 252.5,-455.5 252.5,-436.5 196.5,-436.5"/>
<text text-anchor="middle" x="224.5" y="-443.5" font-family="Helvetica,sans-Serif" font-size="10.00" fill="#000000">numeric</text>
</g>
<!-- Node3&#45;&gt;Node5 -->
<g id="edge5" class="edge">
<title>Node3&#45;&gt;Node5</title>
<path fill="none" stroke="#191970" d="M814.161,-500.5937C704.5099,-497.3381 465.4905,-487.0172 266.5,-456 265.2502,-455.8052 263.9827,-455.5926 262.7052,-455.3655"/>
<polygon fill="#191970" stroke="#191970" points="263.3383,-451.9228 252.8457,-453.3915 261.964,-458.7866 263.3383,-451.9228"/>
</g>
<!-- Node6 -->
<g id="node7" class="node">
<title>Node6</title>
<polygon fill="#ffffff" stroke="#bfbfbf" points="155.5,-185 155.5,-204 211.5,-204 211.5,-185 155.5,-185"/>
<text text-anchor="middle" x="183.5" y="-192" font-family="Helvetica,sans-Serif" font-size="10.00" fill="#000000">optional</text>
</g>
<!-- Node3&#45;&gt;Node6 -->
<g id="edge6" class="edge">
<title>Node3&#45;&gt;Node6</title>
<path fill="none" stroke="#191970" d="M814.2402,-499.8347C651.1541,-493.7274 211.7218,-475.5343 187.5,-456 163.7395,-436.8377 168.5,-420.5246 168.5,-390 168.5,-390 168.5,-390 168.5,-328.5 168.5,-287.7168 175.4471,-240.3825 179.8856,-214.302"/>
<polygon fill="#191970" stroke="#191970" points="183.3754,-214.6652 181.6607,-204.21 176.4813,-213.4525 183.3754,-214.6652"/>
</g>
<!-- Node7 -->
<g id="node8" class="node">
<title>Node7</title>
<polygon fill="#ffffff" stroke="#bfbfbf" points="1614,-185 1614,-204 1661,-204 1661,-185 1614,-185"/>
<text text-anchor="middle" x="1637.5" y="-192" font-family="Helvetica,sans-Serif" font-size="10.00" fill="#000000">vector</text>
</g>
<!-- Node3&#45;&gt;Node7 -->
<g id="edge7" class="edge">
<title>Node3&#45;&gt;Node7</title>
<path fill="none" stroke="#191970" d="M907.7615,-492.4643C938.8439,-483.4436 986.4826,-469.3367 1027.5,-456 1170.7972,-409.4072 1209.0871,-403.5555 1347.5,-344 1448.1953,-300.6734 1562.3767,-237.4167 1612.1083,-209.1234"/>
<polygon fill="#191970" stroke="#191970" points="1613.9514,-212.1014 1620.8998,-204.1033 1610.4803,-206.0226 1613.9514,-212.1014"/>
</g>
<!-- Node8 -->
<g id="node9" class="node">
<title>Node8</title>
<g id="a_node9"><a xlink:href="api_2lane_8h.html" target="_top" xlink:title="maliput/api/lane.h">
<polygon fill="#ffffff" stroke="#000000" points="759,-436.5 759,-455.5 864,-455.5 864,-436.5 759,-436.5"/>
<text text-anchor="middle" x="811.5" y="-443.5" font-family="Helvetica,sans-Serif" font-size="10.00" fill="#000000">maliput/api/lane.h</text>
</a>
</g>
</g>
<!-- Node3&#45;&gt;Node8 -->
<g id="edge8" class="edge">
<title>Node3&#45;&gt;Node8</title>
<path fill="none" stroke="#191970" d="M863.5262,-492.2455C854.3118,-484.0549 840.9468,-472.1749 830.0703,-462.5069"/>
<polygon fill="#191970" stroke="#191970" points="832.1474,-459.6704 822.348,-455.6427 827.4968,-464.9023 832.1474,-459.6704"/>
</g>
<!-- Node14 -->
<g id="node15" class="node">
<title>Node14</title>
<g id="a_node15"><a xlink:href="maliput__copyable_8h.html" target="_top" xlink:title="Code in this file is inspired by: https://github.com/RobotLocomotion/drake/blob/master/common/drake_c...">
<polygon fill="#ffffff" stroke="#000000" points="695.5,-179.5 695.5,-209.5 835.5,-209.5 835.5,-179.5 695.5,-179.5"/>
<text text-anchor="start" x="703.5" y="-197.5" font-family="Helvetica,sans-Serif" font-size="10.00" fill="#000000">maliput/common/maliput</text>
<text text-anchor="middle" x="765.5" y="-186.5" font-family="Helvetica,sans-Serif" font-size="10.00" fill="#000000">_copyable.h</text>
</a>
</g>
</g>
<!-- Node3&#45;&gt;Node14 -->
<g id="edge66" class="edge">
<title>Node3&#45;&gt;Node14</title>
<path fill="none" stroke="#191970" d="M875.5451,-492.4616C876.697,-479.503 877.8589,-455.6923 873.5,-436 854.7668,-351.3689 804.9581,-260.2689 780.0737,-218.2335"/>
<polygon fill="#191970" stroke="#191970" points="783.0207,-216.3423 774.8795,-209.5621 777.0156,-219.9393 783.0207,-216.3423"/>
</g>
<!-- Node25 -->
<g id="node26" class="node">
<title>Node25</title>
<g id="a_node26"><a xlink:href="type__specific__identifier_8h.html" target="_top" xlink:title="maliput/api/type_specific\l_identifier.h">
<polygon fill="#ffffff" stroke="#000000" points="1048.5,-313.5 1048.5,-343.5 1188.5,-343.5 1188.5,-313.5 1048.5,-313.5"/>
<text text-anchor="start" x="1056.5" y="-331.5" font-family="Helvetica,sans-Serif" font-size="10.00" fill="#000000">maliput/api/type_specific</text>
<text text-anchor="middle" x="1118.5" y="-320.5" font-family="Helvetica,sans-Serif" font-size="10.00" fill="#000000">_identifier.h</text>
</a>
</g>
</g>
<!-- Node3&#45;&gt;Node25 -->
<g id="edge65" class="edge">
<title>Node3&#45;&gt;Node25</title>
<path fill="none" stroke="#191970" d="M916.6641,-492.4263C942.8537,-485.1764 976.3823,-473.4418 1002.5,-456 1044.9423,-427.6565 1082.3167,-380.4924 1102.5396,-352.1625"/>
<polygon fill="#191970" stroke="#191970" points="1105.6154,-353.8721 1108.4875,-343.674 1099.8826,-349.8551 1105.6154,-353.8721"/>
</g>
<!-- Node8&#45;&gt;Node6 -->
<g id="edge10" class="edge">
<title>Node8&#45;&gt;Node6</title>
<path fill="none" stroke="#191970" d="M758.63,-441.1044C641.3661,-429.4007 363.8221,-396.7821 287.5,-344 238.6928,-310.2464 205.5504,-245.6275 191.338,-213.5444"/>
<polygon fill="#191970" stroke="#191970" points="194.553,-212.1607 187.3929,-204.3514 188.1203,-214.9212 194.553,-212.1607"/>
</g>
<!-- Node9 -->
<g id="node10" class="node">
<title>Node9</title>
<polygon fill="#ffffff" stroke="#bfbfbf" points="668.5,-380.5 668.5,-399.5 726.5,-399.5 726.5,-380.5 668.5,-380.5"/>
<text text-anchor="middle" x="697.5" y="-387.5" font-family="Helvetica,sans-Serif" font-size="10.00" fill="#000000">memory</text>
</g>
<!-- Node8&#45;&gt;Node9 -->
<g id="edge9" class="edge">
<title>Node8&#45;&gt;Node9</title>
<path fill="none" stroke="#191970" d="M791.9027,-436.3733C773.7669,-427.4644 746.5865,-414.1127 726.0413,-404.0203"/>
<polygon fill="#191970" stroke="#191970" points="727.3603,-400.7688 716.8416,-399.5011 724.2739,-407.0517 727.3603,-400.7688"/>
</g>
<!-- Node10 -->
<g id="node11" class="node">
<title>Node10</title>
<polygon fill="#ffffff" stroke="#bfbfbf" points="1449.5,-.5 1449.5,-19.5 1493.5,-19.5 1493.5,-.5 1449.5,-.5"/>
<text text-anchor="middle" x="1471.5" y="-7.5" font-family="Helvetica,sans-Serif" font-size="10.00" fill="#000000">string</text>
</g>
<!-- Node8&#45;&gt;Node10 -->
<g id="edge11" class="edge">
<title>Node8&#45;&gt;Node10</title>
<path fill="none" stroke="#191970" d="M813.8104,-436.2542C827.0679,-382.9506 899.0145,-126.5328 1071.5,-56 1138.1335,-28.7522 1356.481,-15.5725 1439.2766,-11.4618"/>
<polygon fill="#191970" stroke="#191970" points="1439.5398,-14.9533 1449.3586,-10.9731 1439.2008,-7.9615 1439.5398,-14.9533"/>
</g>
<!-- Node11 -->
<g id="node12" class="node">
<title>Node11</title>
<g id="a_node12"><a xlink:href="lane__data_8h.html" target="_top" xlink:title="maliput/api/lane_data.h">
<polygon fill="#ffffff" stroke="#000000" points="518.5,-380.5 518.5,-399.5 650.5,-399.5 650.5,-380.5 518.5,-380.5"/>
<text text-anchor="middle" x="584.5" y="-387.5" font-family="Helvetica,sans-Serif" font-size="10.00" fill="#000000">maliput/api/lane_data.h</text>
</a>
</g>
</g>
<!-- Node8&#45;&gt;Node11 -->
<g id="edge12" class="edge">
<title>Node8&#45;&gt;Node11</title>
<path fill="none" stroke="#191970" d="M772.7352,-436.4369C734.1308,-426.9133 674.7616,-412.2672 633.0428,-401.9753"/>
<polygon fill="#191970" stroke="#191970" points="633.6521,-398.5208 623.1049,-399.5237 631.9755,-405.317 633.6521,-398.5208"/>
</g>
<!-- Node8&#45;&gt;Node14 -->
<g id="edge63" class="edge">
<title>Node8&#45;&gt;Node14</title>
<path fill="none" stroke="#191970" d="M809.5171,-436.4935C804.1905,-410.8252 789.2476,-337.9409 778.5,-277 775.1444,-257.9729 771.7599,-236.4017 769.2858,-220.0898"/>
<polygon fill="#191970" stroke="#191970" points="772.6768,-219.1022 767.7299,-209.7332 765.7545,-220.1422 772.6768,-219.1022"/>
</g>
<!-- Node15 -->
<g id="node16" class="node">
<title>Node15</title>
<g id="a_node16"><a xlink:href="maliput__throw_8h.html" target="_top" xlink:title="Code in this file is inspired by: https://github.com/RobotLocomotion/drake/blob/master/common/drake_t...">
<polygon fill="#ffffff" stroke="#000000" points="1080.5,-56.5 1080.5,-86.5 1220.5,-86.5 1220.5,-56.5 1080.5,-56.5"/>
<text text-anchor="start" x="1088.5" y="-74.5" font-family="Helvetica,sans-Serif" font-size="10.00" fill="#000000">maliput/common/maliput</text>
<text text-anchor="middle" x="1150.5" y="-63.5" font-family="Helvetica,sans-Serif" font-size="10.00" fill="#000000">_throw.h</text>
</a>
</g>
</g>
<!-- Node8&#45;&gt;Node15 -->
<g id="edge64" class="edge">
<title>Node8&#45;&gt;Node15</title>
<path fill="none" stroke="#191970" d="M853.7034,-436.4688C877.2106,-429.4778 905.8173,-417.9972 926.5,-400 948.1251,-381.1829 951.0585,-371.6831 958.5,-344 959.6898,-339.5737 957.1746,-182.9497 959.5,-179 986.2985,-133.4827 1040.1938,-105.7203 1083.9202,-89.8412"/>
<polygon fill="#191970" stroke="#191970" points="1085.084,-93.1421 1093.3666,-86.5354 1082.7717,-86.535 1085.084,-93.1421"/>
</g>
<!-- Node8&#45;&gt;Node25 -->
<g id="edge44" class="edge">
<title>Node8&#45;&gt;Node25</title>
<path fill="none" stroke="#191970" d="M848.4692,-436.4771C879.7666,-428.0387 925.611,-414.7875 964.5,-400 1004.8258,-384.6662 1049.3781,-363.4951 1080.1434,-348.1733"/>
<polygon fill="#191970" stroke="#191970" points="1081.8574,-351.2292 1089.2286,-343.619 1078.7205,-344.9715 1081.8574,-351.2292"/>
</g>
<!-- Node11&#45;&gt;Node10 -->
<g id="edge15" class="edge">
<title>Node11&#45;&gt;Node10</title>
<path fill="none" stroke="#191970" d="M611.2215,-380.3579C627.7749,-372.9746 648.003,-361.1186 659.5,-344 700.9298,-282.3125 648.0865,-242.6096 686.5,-179 733.4158,-101.3112 764.566,-87.982 849.5,-56 904.8924,-35.1419 1319.4091,-16.357 1439.1818,-11.3198"/>
<polygon fill="#191970" stroke="#191970" points="1439.3577,-14.8156 1449.203,-10.9016 1439.0657,-7.8217 1439.3577,-14.8156"/>
</g>
<!-- Node12 -->
<g id="node13" class="node">
<title>Node12</title>
<polygon fill="#ffffff" stroke="#bfbfbf" points="968,-185 968,-204 1033,-204 1033,-185 968,-185"/>
<text text-anchor="middle" x="1000.5" y="-192" font-family="Helvetica,sans-Serif" font-size="10.00" fill="#000000">functional</text>
</g>
<!-- Node11&#45;&gt;Node12 -->
<g id="edge13" class="edge">
<title>Node11&#45;&gt;Node12</title>
<path fill="none" stroke="#191970" d="M649.7784,-380.471C721.0411,-369.7497 827.3571,-352.6998 844.5,-344 908.1316,-311.7079 963.3323,-244.8615 987.4982,-212.642"/>
<polygon fill="#191970" stroke="#191970" points="990.6176,-214.3081 993.7256,-204.1794 984.9796,-210.1592 990.6176,-214.3081"/>
</g>
<!-- Node13 -->
<g id="node14" class="node">
<title>Node13</title>
<polygon fill="#ffffff" stroke="#bfbfbf" points="517,-185 517,-204 574,-204 574,-185 517,-185"/>
<text text-anchor="middle" x="545.5" y="-192" font-family="Helvetica,sans-Serif" font-size="10.00" fill="#000000">ostream</text>
</g>
<!-- Node11&#45;&gt;Node13 -->
<g id="edge14" class="edge">
<title>Node11&#45;&gt;Node13</title>
<path fill="none" stroke="#191970" d="M555.6892,-380.4613C538.981,-373.274 519.3485,-361.5938 509.5,-344 502.7702,-331.9776 504.3172,-325.7658 509.5,-313 517.8943,-292.3237 535.9805,-297.6251 544.5,-277 552.8438,-256.8002 551.5969,-231.3728 549.2276,-214.1246"/>
<polygon fill="#191970" stroke="#191970" points="552.6585,-213.4166 547.5981,-204.1084 545.7494,-214.5407 552.6585,-213.4166"/>
</g>
<!-- Node11&#45;&gt;Node14 -->
<g id="edge16" class="edge">
<title>Node11&#45;&gt;Node14</title>
<path fill="none" stroke="#191970" d="M624.3135,-380.473C646.5846,-373.4639 673.5846,-361.9639 692.5,-344 693.1239,-343.4075 733.3054,-260.7827 753.7794,-218.637"/>
<polygon fill="#191970" stroke="#191970" points="756.9563,-220.1073 758.1771,-209.583 750.6597,-217.0489 756.9563,-220.1073"/>
</g>
<!-- Node11&#45;&gt;Node15 -->
<g id="edge17" class="edge">
<title>Node11&#45;&gt;Node15</title>
<path fill="none" stroke="#191970" d="M625.5979,-380.4873C652.0737,-373.1571 686.4692,-361.3116 713.5,-344 783.6361,-299.082 787.008,-270.2608 844.5,-210 880.9686,-171.775 879.7327,-149.3906 925.5,-123 969.6346,-97.5508 1025.4251,-84.6773 1070.4093,-78.1653"/>
<polygon fill="#191970" stroke="#191970" points="1070.9881,-81.6188 1080.4207,-76.7943 1070.0382,-74.6835 1070.9881,-81.6188"/>
</g>
<!-- Node16 -->
<g id="node17" class="node">
<title>Node16</title>
<g id="a_node17"><a xlink:href="matrix_8h.html" target="_top" xlink:title="maliput/math/matrix.h">
<polygon fill="#ffffff" stroke="#000000" points="230,-185 230,-204 357,-204 357,-185 230,-185"/>
<text text-anchor="middle" x="293.5" y="-192" font-family="Helvetica,sans-Serif" font-size="10.00" fill="#000000">maliput/math/matrix.h</text>
</a>
</g>
</g>
<!-- Node11&#45;&gt;Node16 -->
<g id="edge19" class="edge">
<title>Node11&#45;&gt;Node16</title>
<path fill="none" stroke="#191970" d="M518.3239,-387.9531C445.8887,-384.2203 336.3156,-373.6894 308.5,-344 275.3167,-308.5812 282.4454,-245.6746 288.817,-213.9467"/>
<polygon fill="#191970" stroke="#191970" points="292.2484,-214.6383 290.9718,-204.1206 285.4109,-213.1388 292.2484,-214.6383"/>
</g>
<!-- Node22 -->
<g id="node23" class="node">
<title>Node22</title>
<g id="a_node23"><a xlink:href="vector_8h.html" target="_top" xlink:title="maliput/math/vector.h">
<polygon fill="#ffffff" stroke="#000000" points="398,-123.5 398,-142.5 523,-142.5 523,-123.5 398,-123.5"/>
<text text-anchor="middle" x="460.5" y="-130.5" font-family="Helvetica,sans-Serif" font-size="10.00" fill="#000000">maliput/math/vector.h</text>
</a>
</g>
</g>
<!-- Node11&#45;&gt;Node22 -->
<g id="edge43" class="edge">
<title>Node11&#45;&gt;Node22</title>
<path fill="none" stroke="#191970" d="M536.4228,-380.4674C485.2953,-367.3159 407.953,-337.9428 379.5,-277 357.0949,-229.0109 409.1459,-175.3368 439.9049,-149.1425"/>
<polygon fill="#191970" stroke="#191970" points="442.4539,-151.5767 447.9364,-142.5106 437.9969,-146.179 442.4539,-151.5767"/>
</g>
<!-- Node23 -->
<g id="node24" class="node">
<title>Node23</title>
<g id="a_node24"><a xlink:href="quaternion_8h.html" target="_top" xlink:title="Code in this file is inspired by: https://gitlab.com/libeigen/eigen/&#45;/blob/master/Eigen/src/Geometry/...">
<polygon fill="#ffffff" stroke="#000000" points="389,-252 389,-271 536,-271 536,-252 389,-252"/>
<text text-anchor="middle" x="462.5" y="-259" font-family="Helvetica,sans-Serif" font-size="10.00" fill="#000000">maliput/math/quaternion.h</text>
</a>
</g>
</g>
<!-- Node11&#45;&gt;Node23 -->
<g id="edge32" class="edge">
<title>Node11&#45;&gt;Node23</title>
<path fill="none" stroke="#191970" d="M536.0688,-380.4254C514.6935,-373.7423 491.1456,-362.5577 476.5,-344 462.4135,-326.1509 460.3185,-299.289 460.8176,-281.107"/>
<polygon fill="#191970" stroke="#191970" points="464.3152,-281.2459 461.3795,-271.0659 457.3261,-280.8547 464.3152,-281.2459"/>
</g>
<!-- Node24 -->
<g id="node25" class="node">
<title>Node24</title>
<g id="a_node25"><a xlink:href="roll__pitch__yaw_8h.html" target="_top" xlink:title="Code in this file is inspired by: https://github.com/RobotLocomotion/drake/blob/master/math/roll_pitc...">
<polygon fill="#ffffff" stroke="#000000" points="519,-313.5 519,-343.5 650,-343.5 650,-313.5 519,-313.5"/>
<text text-anchor="start" x="527" y="-331.5" font-family="Helvetica,sans-Serif" font-size="10.00" fill="#000000">maliput/math/roll_pitch</text>
<text text-anchor="middle" x="584.5" y="-320.5" font-family="Helvetica,sans-Serif" font-size="10.00" fill="#000000">_yaw.h</text>
</a>
</g>
</g>
<!-- Node11&#45;&gt;Node24 -->
<g id="edge38" class="edge">
<title>Node11&#45;&gt;Node24</title>
<path fill="none" stroke="#191970" d="M584.5,-380.3906C584.5,-373.2234 584.5,-363.0862 584.5,-353.671"/>
<polygon fill="#191970" stroke="#191970" points="588.0001,-353.5446 584.5,-343.5446 581.0001,-353.5446 588.0001,-353.5446"/>
</g>
<!-- Node15&#45;&gt;Node10 -->
<g id="edge18" class="edge">
<title>Node15&#45;&gt;Node10</title>
<path fill="none" stroke="#191970" d="M1220.5482,-58.0796C1288.4044,-45.0791 1388.2873,-25.9426 1439.1557,-16.1968"/>
<polygon fill="#191970" stroke="#191970" points="1440.0746,-19.5845 1449.2374,-14.2653 1438.7574,-12.7095 1440.0746,-19.5845"/>
</g>
<!-- Node17 -->
<g id="node18" class="node">
<title>Node17</title>
<polygon fill="#ffffff" stroke="#bfbfbf" points="185.5,-62 185.5,-81 249.5,-81 249.5,-62 185.5,-62"/>
<text text-anchor="middle" x="217.5" y="-69" font-family="Helvetica,sans-Serif" font-size="10.00" fill="#000000">algorithm</text>
</g>
<!-- Node16&#45;&gt;Node17 -->
<g id="edge20" class="edge">
<title>Node16&#45;&gt;Node17</title>
<path fill="none" stroke="#191970" d="M287.5364,-184.8484C274.8832,-164.3703 245.1702,-116.282 228.8049,-89.7962"/>
<polygon fill="#191970" stroke="#191970" points="231.6698,-87.7741 223.4359,-81.1068 225.7149,-91.4536 231.6698,-87.7741"/>
</g>
<!-- Node18 -->
<g id="node19" class="node">
<title>Node18</title>
<polygon fill="#ffffff" stroke="#bfbfbf" points="267.5,-62 267.5,-81 309.5,-81 309.5,-62 267.5,-62"/>
<text text-anchor="middle" x="288.5" y="-69" font-family="Helvetica,sans-Serif" font-size="10.00" fill="#000000">array</text>
</g>
<!-- Node16&#45;&gt;Node18 -->
<g id="edge21" class="edge">
<title>Node16&#45;&gt;Node18</title>
<path fill="none" stroke="#191970" d="M290.0269,-184.7863C286.565,-174.5493 281.4862,-157.878 279.5,-143 277.1517,-125.4098 280.1687,-105.3616 283.3263,-90.9795"/>
<polygon fill="#191970" stroke="#191970" points="286.7378,-91.7626 285.6819,-81.2205 279.9332,-90.1201 286.7378,-91.7626"/>
</g>
<!-- Node19 -->
<g id="node20" class="node">
<title>Node19</title>
<polygon fill="#ffffff" stroke="#bfbfbf" points="508,-62 508,-81 561,-81 561,-62 508,-62"/>
<text text-anchor="middle" x="534.5" y="-69" font-family="Helvetica,sans-Serif" font-size="10.00" fill="#000000">cstddef</text>
</g>
<!-- Node16&#45;&gt;Node19 -->
<g id="edge22" class="edge">
<title>Node16&#45;&gt;Node19</title>
<path fill="none" stroke="#191970" d="M303.8253,-184.8821C320.4796,-169.8168 354.8231,-140.564 388.5,-123 434.11,-99.2123 450.3829,-105.1898 498.5,-87 500.314,-86.3142 502.1704,-85.5891 504.0371,-84.8417"/>
<polygon fill="#191970" stroke="#191970" points="505.4102,-88.0614 513.3094,-81.0006 502.7312,-81.5943 505.4102,-88.0614"/>
</g>
<!-- Node20 -->
<g id="node21" class="node">
<title>Node20</title>
<polygon fill="#ffffff" stroke="#bfbfbf" points="328,-62 328,-81 411,-81 411,-62 328,-62"/>
<text text-anchor="middle" x="369.5" y="-69" font-family="Helvetica,sans-Serif" font-size="10.00" fill="#000000">initializer_list</text>
</g>
<!-- Node16&#45;&gt;Node20 -->
<g id="edge23" class="edge">
<title>Node16&#45;&gt;Node20</title>
<path fill="none" stroke="#191970" d="M295.2952,-184.6263C298.2365,-170.227 305.0397,-143.0059 317.5,-123 325.8505,-109.5927 338.3528,-97.0626 349.0057,-87.7192"/>
<polygon fill="#191970" stroke="#191970" points="351.3063,-90.3576 356.6921,-81.2338 346.7921,-85.0075 351.3063,-90.3576"/>
</g>
<!-- Node21 -->
<g id="node22" class="node">
<title>Node21</title>
<polygon fill="#ffffff" stroke="#bfbfbf" points="429.5,-62 429.5,-81 489.5,-81 489.5,-62 429.5,-62"/>
<text text-anchor="middle" x="459.5" y="-69" font-family="Helvetica,sans-Serif" font-size="10.00" fill="#000000">iostream</text>
</g>
<!-- Node16&#45;&gt;Node21 -->
<g id="edge24" class="edge">
<title>Node16&#45;&gt;Node21</title>
<path fill="none" stroke="#191970" d="M300.1164,-184.6155C310.4862,-169.712 331.8425,-141.2894 355.5,-123 367.7091,-113.5613 402.5458,-96.978 428.5582,-85.1804"/>
<polygon fill="#191970" stroke="#191970" points="430.0021,-88.3688 437.6842,-81.0725 427.1288,-81.9856 430.0021,-88.3688"/>
</g>
<!-- Node16&#45;&gt;Node22 -->
<g id="edge25" class="edge">
<title>Node16&#45;&gt;Node22</title>
<path fill="none" stroke="#191970" d="M319.5938,-184.8906C347.9036,-174.4652 393.2768,-157.7559 424.8592,-146.1252"/>
<polygon fill="#191970" stroke="#191970" points="426.4151,-149.2821 434.5895,-142.5419 423.996,-142.7133 426.4151,-149.2821"/>
</g>
<!-- Node22&#45;&gt;Node15 -->
<g id="edge31" class="edge">
<title>Node22&#45;&gt;Node15</title>
<path fill="none" stroke="#191970" d="M523.2557,-127.4066C648.926,-116.2055 931.2953,-91.0378 1070.2137,-78.656"/>
<polygon fill="#191970" stroke="#191970" points="1070.7191,-82.1249 1080.3688,-77.7508 1070.0976,-75.1525 1070.7191,-82.1249"/>
</g>
<!-- Node22&#45;&gt;Node17 -->
<g id="edge26" class="edge">
<title>Node22&#45;&gt;Node17</title>
<path fill="none" stroke="#191970" d="M409.7749,-123.4635C368.6161,-115.2451 309.2957,-102.3061 258.5,-87 255.9248,-86.224 253.2792,-85.3669 250.6317,-84.4657"/>
<polygon fill="#191970" stroke="#191970" points="251.7526,-81.1496 241.158,-81.0763 249.3945,-87.7404 251.7526,-81.1496"/>
</g>
<!-- Node22&#45;&gt;Node18 -->
<g id="edge27" class="edge">
<title>Node22&#45;&gt;Node18</title>
<path fill="none" stroke="#191970" d="M425.7857,-123.4823C396.6783,-115.0942 354.257,-101.911 318.5,-87 317.313,-86.505 316.1091,-85.981 314.9,-85.4367"/>
<polygon fill="#191970" stroke="#191970" points="316.2482,-82.2011 305.7208,-81.0074 313.2061,-88.5055 316.2482,-82.2011"/>
</g>
<!-- Node22&#45;&gt;Node19 -->
<g id="edge28" class="edge">
<title>Node22&#45;&gt;Node19</title>
<path fill="none" stroke="#191970" d="M472.0625,-123.3906C483.5079,-113.8786 501.2473,-99.1357 514.897,-87.7917"/>
<polygon fill="#191970" stroke="#191970" points="517.3208,-90.3283 522.7745,-81.2449 512.8467,-84.9447 517.3208,-90.3283"/>
</g>
<!-- Node22&#45;&gt;Node20 -->
<g id="edge29" class="edge">
<title>Node22&#45;&gt;Node20</title>
<path fill="none" stroke="#191970" d="M446.2813,-123.3906C431.8566,-113.6421 409.3024,-98.3994 392.364,-86.9521"/>
<polygon fill="#191970" stroke="#191970" points="393.8641,-83.7415 383.6189,-81.0419 389.9444,-89.5412 393.8641,-83.7415"/>
</g>
<!-- Node22&#45;&gt;Node21 -->
<g id="edge30" class="edge">
<title>Node22&#45;&gt;Node21</title>
<path fill="none" stroke="#191970" d="M460.3438,-123.3906C460.2051,-114.8657 459.9982,-102.1392 459.824,-91.4235"/>
<polygon fill="#191970" stroke="#191970" points="463.3207,-91.1866 459.6585,-81.2449 456.3216,-91.3005 463.3207,-91.1866"/>
</g>
<!-- Node23&#45;&gt;Node4 -->
<g id="edge33" class="edge">
<title>Node23&#45;&gt;Node4</title>
<path fill="none" stroke="#191970" d="M464.3626,-251.9005C466.274,-242.0495 469.3017,-226.4451 471.7181,-213.9912"/>
<polygon fill="#191970" stroke="#191970" points="475.1719,-214.5653 473.6409,-204.0817 468.3001,-213.2319 475.1719,-214.5653"/>
</g>
<!-- Node23&#45;&gt;Node13 -->
<g id="edge34" class="edge">
<title>Node23&#45;&gt;Node13</title>
<path fill="none" stroke="#191970" d="M474.3919,-251.9005C487.7048,-241.1539 509.4999,-223.5603 525.4568,-210.6794"/>
<polygon fill="#191970" stroke="#191970" points="528.0474,-213.0863 533.6302,-204.0817 523.6506,-207.6395 528.0474,-213.0863"/>
</g>
<!-- Node23&#45;&gt;Node14 -->
<g id="edge35" class="edge">
<title>Node23&#45;&gt;Node14</title>
<path fill="none" stroke="#191970" d="M505.5907,-251.9717C552.8523,-241.5211 629.6722,-224.5345 687.5657,-211.733"/>
<polygon fill="#191970" stroke="#191970" points="688.4054,-215.1319 697.4139,-209.5553 686.894,-208.297 688.4054,-215.1319"/>
</g>
<!-- Node23&#45;&gt;Node16 -->
<g id="edge36" class="edge">
<title>Node23&#45;&gt;Node16</title>
<path fill="none" stroke="#191970" d="M438.2864,-251.9005C409.1714,-240.3579 360.1322,-220.9163 327.2982,-207.8993"/>
<polygon fill="#191970" stroke="#191970" points="328.2547,-204.5135 317.6687,-204.0817 325.6748,-211.0208 328.2547,-204.5135"/>
</g>
<!-- Node23&#45;&gt;Node22 -->
<g id="edge37" class="edge">
<title>Node23&#45;&gt;Node22</title>
<path fill="none" stroke="#191970" d="M457.5481,-251.9459C452.6104,-241.839 445.3614,-225.2725 442.5,-210 439.9628,-196.4579 439.9454,-192.5389 442.5,-179 444.2441,-169.7566 447.7981,-159.9893 451.2909,-151.844"/>
<polygon fill="#191970" stroke="#191970" points="454.5628,-153.1052 455.5415,-142.5556 448.1976,-150.1923 454.5628,-153.1052"/>
</g>
<!-- Node24&#45;&gt;Node14 -->
<g id="edge39" class="edge">
<title>Node24&#45;&gt;Node14</title>
<path fill="none" stroke="#191970" d="M604.9112,-313.389C637.1792,-289.4999 700.0777,-242.9342 736.8519,-215.7091"/>
<polygon fill="#191970" stroke="#191970" points="739.2088,-218.319 745.1634,-209.5558 735.0437,-212.693 739.2088,-218.319"/>
</g>
<!-- Node24&#45;&gt;Node16 -->
<g id="edge40" class="edge">
<title>Node24&#45;&gt;Node16</title>
<path fill="none" stroke="#191970" d="M518.9846,-320.8573C477.0806,-313.8977 422.6864,-300.8953 379.5,-277 349.5148,-260.409 322.3299,-230.7513 306.8739,-211.8805"/>
<polygon fill="#191970" stroke="#191970" points="309.6027,-209.6887 300.6299,-204.0548 304.131,-214.0545 309.6027,-209.6887"/>
</g>
<!-- Node24&#45;&gt;Node22 -->
<g id="edge42" class="edge">
<title>Node24&#45;&gt;Node22</title>
<path fill="none" stroke="#191970" d="M589.4239,-313.2452C597.7985,-284.1568 611.2732,-220.0104 582.5,-179 573.5936,-166.3057 539.2748,-154.0231 509.2963,-145.3478"/>
<polygon fill="#191970" stroke="#191970" points="509.9132,-141.8855 499.3391,-142.5486 508.0187,-148.6243 509.9132,-141.8855"/>
</g>
<!-- Node24&#45;&gt;Node23 -->
<g id="edge41" class="edge">
<title>Node24&#45;&gt;Node23</title>
<path fill="none" stroke="#191970" d="M557.1208,-313.4639C536.743,-302.2728 509.0854,-287.0838 488.9368,-276.0186"/>
<polygon fill="#191970" stroke="#191970" points="490.4377,-272.8498 479.9877,-271.1039 487.0681,-278.9855 490.4377,-272.8498"/>
</g>
<!-- Node25&#45;&gt;Node10 -->
<g id="edge46" class="edge">
<title>Node25&#45;&gt;Node10</title>
<path fill="none" stroke="#191970" d="M1188.6328,-313.8597C1250.9178,-300.6943 1334.3729,-282.5912 1349.5,-277 1408.9913,-255.0113 1435.3197,-259.074 1475.5,-210 1519.2244,-156.5974 1511.9358,-123.0337 1495.5,-56 1493.1257,-46.3164 1488.3179,-36.4071 1483.6247,-28.2776"/>
<polygon fill="#191970" stroke="#191970" points="1486.5472,-26.3486 1478.3208,-19.672 1480.5881,-30.0214 1486.5472,-26.3486"/>
</g>
<!-- Node25&#45;&gt;Node12 -->
<g id="edge45" class="edge">
<title>Node25&#45;&gt;Node12</title>
<path fill="none" stroke="#191970" d="M1105.1933,-313.389C1083.112,-288.3136 1039.0291,-238.2534 1015.7355,-211.8014"/>
<polygon fill="#191970" stroke="#191970" points="1018.193,-209.296 1008.9574,-204.1042 1012.9395,-213.9222 1018.193,-209.296"/>
</g>
<!-- Node25&#45;&gt;Node14 -->
<g id="edge48" class="edge">
<title>Node25&#45;&gt;Node14</title>
<path fill="none" stroke="#191970" d="M1078.6926,-313.389C1013.7695,-288.744 885.2678,-239.9643 814.7193,-213.1838"/>
<polygon fill="#191970" stroke="#191970" points="815.7531,-209.8326 805.1619,-209.5558 813.2688,-216.377 815.7531,-209.8326"/>
</g>
<!-- Node25&#45;&gt;Node15 -->
<g id="edge62" class="edge">
<title>Node25&#45;&gt;Node15</title>
<path fill="none" stroke="#191970" d="M1109.3007,-313.1039C1094.2221,-285.8687 1067.2765,-227.4917 1081.5,-179 1090.936,-146.8301 1113.2887,-115.1677 1130.0126,-94.6313"/>
<polygon fill="#191970" stroke="#191970" points="1132.8273,-96.7213 1136.5561,-86.8043 1127.4569,-92.2315 1132.8273,-96.7213"/>
</g>
<!-- Node26 -->
<g id="node27" class="node">
<title>Node26</title>
<polygon fill="#ffffff" stroke="#bfbfbf" points="1090,-185 1090,-204 1135,-204 1135,-185 1090,-185"/>
<text text-anchor="middle" x="1112.5" y="-192" font-family="Helvetica,sans-Serif" font-size="10.00" fill="#000000">utility</text>
</g>
<!-- Node25&#45;&gt;Node26 -->
<g id="edge47" class="edge">
<title>Node25&#45;&gt;Node26</title>
<path fill="none" stroke="#191970" d="M1117.8234,-313.389C1116.7346,-289.0735 1114.5939,-241.2644 1113.3852,-214.2698"/>
<polygon fill="#191970" stroke="#191970" points="1116.8739,-213.9376 1112.93,-204.1042 1109.8809,-214.2507 1116.8739,-213.9376"/>
</g>
<!-- Node27 -->
<g id="node28" class="node">
<title>Node27</title>
<g id="a_node28"><a xlink:href="maliput__hash_8h.html" target="_top" xlink:title="Code in this file is inspired by: https://github.com/RobotLocomotion/drake/blob/master/common/hash.h. ">
<polygon fill="#ffffff" stroke="#000000" points="1200.5,-246.5 1200.5,-276.5 1340.5,-276.5 1340.5,-246.5 1200.5,-246.5"/>
<text text-anchor="start" x="1208.5" y="-264.5" font-family="Helvetica,sans-Serif" font-size="10.00" fill="#000000">maliput/common/maliput</text>
<text text-anchor="middle" x="1270.5" y="-253.5" font-family="Helvetica,sans-Serif" font-size="10.00" fill="#000000">_hash.h</text>
</a>
</g>
</g>
<!-- Node25&#45;&gt;Node27 -->
<g id="edge49" class="edge">
<title>Node25&#45;&gt;Node27</title>
<path fill="none" stroke="#191970" d="M1152.6118,-313.4639C1174.5367,-303.7996 1203.2254,-291.154 1226.8119,-280.7572"/>
<polygon fill="#191970" stroke="#191970" points="1228.5007,-283.8379 1236.2395,-276.6017 1225.6772,-277.4325 1228.5007,-283.8379"/>
</g>
<!-- Node27&#45;&gt;Node4 -->
<g id="edge50" class="edge">
<title>Node27&#45;&gt;Node4</title>
<path fill="none" stroke="#191970" d="M1200.2756,-260.1806C1037.2396,-256.5662 637.1139,-244.3735 507.5,-210 505.5757,-209.4897 503.6285,-208.862 501.6945,-208.1545"/>
<polygon fill="#191970" stroke="#191970" points="502.8739,-204.8521 492.3039,-204.1273 500.1149,-211.2854 502.8739,-204.8521"/>
</g>
<!-- Node27&#45;&gt;Node6 -->
<g id="edge55" class="edge">
<title>Node27&#45;&gt;Node6</title>
<path fill="none" stroke="#191970" d="M1200.376,-259.4703C980.7905,-252.9184 315.3948,-231.5053 220.5,-210 217.6982,-209.365 214.8387,-208.5323 212.0127,-207.5819"/>
<polygon fill="#191970" stroke="#191970" points="213.2578,-204.3109 202.6671,-204.0145 210.7614,-210.8507 213.2578,-204.3109"/>
</g>
<!-- Node27&#45;&gt;Node7 -->
<g id="edge60" class="edge">
<title>Node27&#45;&gt;Node7</title>
<path fill="none" stroke="#191970" d="M1340.8271,-248.661C1419.7578,-234.2513 1544.5218,-211.4742 1603.9206,-200.6303"/>
<polygon fill="#191970" stroke="#191970" points="1604.68,-204.0496 1613.8888,-198.8105 1603.4227,-197.1634 1604.68,-204.0496"/>
</g>
<!-- Node27&#45;&gt;Node10 -->
<g id="edge57" class="edge">
<title>Node27&#45;&gt;Node10</title>
<path fill="none" stroke="#191970" d="M1340.6415,-250.0464C1385.4865,-241.207 1437.8871,-227.5306 1452.5,-210 1496.091,-157.7056 1484.2544,-68.8856 1476.1717,-29.6408"/>
<polygon fill="#191970" stroke="#191970" points="1479.563,-28.7662 1473.9927,-19.7539 1472.7271,-30.2728 1479.563,-28.7662"/>
</g>
<!-- Node27&#45;&gt;Node12 -->
<g id="edge52" class="edge">
<title>Node27&#45;&gt;Node12</title>
<path fill="none" stroke="#191970" d="M1209.9067,-246.4639C1159.0264,-233.838 1087.6394,-216.1235 1042.7457,-204.9832"/>
<polygon fill="#191970" stroke="#191970" points="1043.5834,-201.585 1033.0347,-202.5734 1041.8974,-208.3789 1043.5834,-201.585"/>
</g>
<!-- Node27&#45;&gt;Node15 -->
<g id="edge61" class="edge">
<title>Node27&#45;&gt;Node15</title>
<path fill="none" stroke="#191970" d="M1267.2667,-246.4951C1260.9205,-219.631 1244.8318,-162.4459 1215.5,-123 1206.8741,-111.3997 1195.0156,-100.9767 1183.7871,-92.592"/>
<polygon fill="#191970" stroke="#191970" points="1185.559,-89.5564 1175.3875,-86.5917 1181.4901,-95.2524 1185.559,-89.5564"/>
</g>
<!-- Node27&#45;&gt;Node19 -->
<g id="edge51" class="edge">
<title>Node27&#45;&gt;Node19</title>
<path fill="none" stroke="#191970" d="M1258.1361,-246.1822C1241.8185,-227.1125 1211.1921,-195.0946 1177.5,-179 1068.0796,-126.7302 691.3272,-86.6457 571.4431,-74.9696"/>
<polygon fill="#191970" stroke="#191970" points="571.595,-71.468 561.3048,-73.9905 570.922,-78.4356 571.595,-71.468"/>
</g>
<!-- Node27&#45;&gt;Node21 -->
<g id="edge53" class="edge">
<title>Node27&#45;&gt;Node21</title>
<path fill="none" stroke="#191970" d="M1238.7493,-246.4072C1220.203,-236.9929 1196.7387,-224.0255 1177.5,-210 1161.2393,-198.1455 1162.6389,-187.7132 1144.5,-179 1079.1469,-147.6071 568.5675,-105.6304 498.5,-87 495.8837,-86.3043 493.2053,-85.4841 490.5379,-84.5901"/>
<polygon fill="#191970" stroke="#191970" points="491.6508,-81.2704 481.057,-81.1202 489.2449,-87.844 491.6508,-81.2704"/>
</g>
<!-- Node27&#45;&gt;Node26 -->
<g id="edge59" class="edge">
<title>Node27&#45;&gt;Node26</title>
<path fill="none" stroke="#191970" d="M1235.0417,-246.4639C1207.9343,-234.969 1170.8801,-219.2561 1144.6345,-208.1266"/>
<polygon fill="#191970" stroke="#191970" points="1145.7209,-204.7857 1135.1481,-204.1039 1142.9881,-211.2302 1145.7209,-204.7857"/>
</g>
<!-- Node28 -->
<g id="node29" class="node">
<title>Node28</title>
<polygon fill="#ffffff" stroke="#bfbfbf" points="1267.5,-185 1267.5,-204 1305.5,-204 1305.5,-185 1267.5,-185"/>
<text text-anchor="middle" x="1286.5" y="-192" font-family="Helvetica,sans-Serif" font-size="10.00" fill="#000000">map</text>
</g>
<!-- Node27&#45;&gt;Node28 -->
<g id="edge54" class="edge">
<title>Node27&#45;&gt;Node28</title>
<path fill="none" stroke="#191970" d="M1274.1306,-246.2967C1276.4299,-236.6685 1279.4238,-224.1318 1281.8901,-213.8038"/>
<polygon fill="#191970" stroke="#191970" points="1285.2997,-214.5945 1284.2182,-204.055 1278.4911,-212.9685 1285.2997,-214.5945"/>
</g>
<!-- Node29 -->
<g id="node30" class="node">
<title>Node29</title>
<polygon fill="#ffffff" stroke="#bfbfbf" points="1323.5,-185 1323.5,-204 1355.5,-204 1355.5,-185 1323.5,-185"/>
<text text-anchor="middle" x="1339.5" y="-192" font-family="Helvetica,sans-Serif" font-size="10.00" fill="#000000">set</text>
</g>
<!-- Node27&#45;&gt;Node29 -->
<g id="edge56" class="edge">
<title>Node27&#45;&gt;Node29</title>
<path fill="none" stroke="#191970" d="M1286.1572,-246.2967C1296.9077,-235.8578 1311.1794,-221.9997 1322.2555,-211.2446"/>
<polygon fill="#191970" stroke="#191970" points="1324.9237,-213.5323 1329.6598,-204.055 1320.0473,-208.5103 1324.9237,-213.5323"/>
</g>
<!-- Node30 -->
<g id="node31" class="node">
<title>Node30</title>
<polygon fill="#ffffff" stroke="#bfbfbf" points="1374,-185 1374,-204 1443,-204 1443,-185 1374,-185"/>
<text text-anchor="middle" x="1408.5" y="-192" font-family="Helvetica,sans-Serif" font-size="10.00" fill="#000000">type_traits</text>
</g>
<!-- Node27&#45;&gt;Node30 -->
<g id="edge58" class="edge">
<title>Node27&#45;&gt;Node30</title>
<path fill="none" stroke="#191970" d="M1301.4699,-246.4639C1324.8331,-235.1209 1356.6559,-219.6707 1379.5194,-208.5703"/>
<polygon fill="#191970" stroke="#191970" points="1381.2516,-211.62 1388.7188,-204.1039 1378.1943,-205.323 1381.2516,-211.62"/>
</g>
<!-- Node31&#45;&gt;Node3 -->
<g id="edge71" class="edge">
<title>Node31&#45;&gt;Node3</title>
<path fill="none" stroke="#191970" d="M1158.0967,-548.4369C1098.4594,-538.6717 1005.9302,-523.5207 942.9035,-513.2006"/>
<polygon fill="#191970" stroke="#191970" points="943.0966,-509.6857 932.6624,-511.5237 941.9654,-516.5937 943.0966,-509.6857"/>
</g>
<!-- Node31&#45;&gt;Node7 -->
<g id="edge70" class="edge">
<title>Node31&#45;&gt;Node7</title>
<path fill="none" stroke="#191970" d="M1281.8973,-554.8989C1404.4677,-547.2904 1656.5,-522.3615 1656.5,-446 1656.5,-446 1656.5,-446 1656.5,-328.5 1656.5,-287.5645 1647.7004,-240.2853 1642.0782,-214.2554"/>
<polygon fill="#191970" stroke="#191970" points="1645.4248,-213.182 1639.8298,-204.1849 1638.593,-214.7073 1645.4248,-213.182"/>
</g>
<!-- Node31&#45;&gt;Node10 -->
<g id="edge69" class="edge">
<title>Node31&#45;&gt;Node10</title>
<path fill="none" stroke="#191970" d="M1281.83,-555.394C1385.5468,-550.5286 1582.7685,-538.1009 1647.5,-512 1691.8586,-494.1138 1732.5,-493.8289 1732.5,-446 1732.5,-446 1732.5,-446 1732.5,-133 1732.5,-82.9714 1573.6025,-36.1305 1503.7696,-17.9604"/>
<polygon fill="#191970" stroke="#191970" points="1504.3087,-14.4855 1493.7527,-15.3922 1502.5702,-21.2662 1504.3087,-14.4855"/>
</g>
<!-- Node31&#45;&gt;Node14 -->
<g id="edge78" class="edge">
<title>Node31&#45;&gt;Node14</title>
<path fill="none" stroke="#191970" d="M1204.4368,-548.2773C1144.4484,-499.9274 877.7403,-284.9642 792.0819,-215.9247"/>
<polygon fill="#191970" stroke="#191970" points="794.1236,-213.0749 784.1413,-209.5246 789.7308,-218.5251 794.1236,-213.0749"/>
</g>
<!-- Node31&#45;&gt;Node15 -->
<g id="edge79" class="edge">
<title>Node31&#45;&gt;Node15</title>
<path fill="none" stroke="#191970" d="M1281.9616,-556.2329C1412.8738,-550.9147 1694.5,-529.7421 1694.5,-446 1694.5,-446 1694.5,-446 1694.5,-194.5 1694.5,-147.5281 1381.9581,-101.0966 1230.672,-81.3728"/>
<polygon fill="#191970" stroke="#191970" points="1230.8716,-77.8695 1220.5048,-80.0558 1229.9723,-84.8115 1230.8716,-77.8695"/>
</g>
<!-- Node31&#45;&gt;Node17 -->
<g id="edge68" class="edge">
<title>Node31&#45;&gt;Node17</title>
<path fill="none" stroke="#191970" d="M1151.2355,-554.7318C916.2925,-542.5419 127.5,-497.7616 127.5,-446 127.5,-446 127.5,-446 127.5,-194.5 127.5,-148.6577 168.7201,-108.5296 195.3683,-87.3772"/>
<polygon fill="#191970" stroke="#191970" points="197.6293,-90.054 203.4375,-81.1931 193.3713,-84.498 197.6293,-90.054"/>
</g>
<!-- Node31&#45;&gt;Node25 -->
<g id="edge72" class="edge">
<title>Node31&#45;&gt;Node25</title>
<path fill="none" stroke="#191970" d="M1215.9399,-548.4368C1214.4263,-527.3501 1209.1713,-475.5902 1192.5,-436 1179.1298,-404.2492 1155.5367,-372.2918 1138.5811,-351.5741"/>
<polygon fill="#191970" stroke="#191970" points="1141.089,-349.1166 1131.9949,-343.6808 1135.7143,-353.6013 1141.089,-349.1166"/>
</g>
<!-- Node32 -->
<g id="node33" class="node">
<title>Node32</title>
<g id="a_node33"><a xlink:href="unique__id_8h.html" target="_top" xlink:title="maliput/api/unique_id.h">
<polygon fill="#ffffff" stroke="#000000" points="1207,-319 1207,-338 1338,-338 1338,-319 1207,-319"/>
<text text-anchor="middle" x="1272.5" y="-326" font-family="Helvetica,sans-Serif" font-size="10.00" fill="#000000">maliput/api/unique_id.h</text>
</a>
</g>
</g>
<!-- Node31&#45;&gt;Node32 -->
<g id="edge73" class="edge">
<title>Node31&#45;&gt;Node32</title>
<path fill="none" stroke="#191970" d="M1219.7059,-548.187C1222.6836,-538.9129 1227.1493,-524.5841 1230.5,-512 1246.2896,-452.699 1261.5125,-381.667 1268.5051,-348.0175"/>
<polygon fill="#191970" stroke="#191970" points="1271.9563,-348.6111 1270.5499,-338.11 1265.1008,-347.1961 1271.9563,-348.6111"/>
</g>
<!-- Node32&#45;&gt;Node10 -->
<g id="edge74" class="edge">
<title>Node32&#45;&gt;Node10</title>
<path fill="none" stroke="#191970" d="M1335.5999,-318.9907C1367.9428,-311.6748 1406.5116,-298.9398 1435.5,-277 1492.3126,-234.0015 1503.089,-211.2637 1523.5,-143 1534.5769,-105.9539 1539.3822,-91.2543 1523.5,-56 1517.9303,-43.6369 1507.2137,-33.2563 1496.9494,-25.5033"/>
<polygon fill="#191970" stroke="#191970" points="1498.7549,-22.4948 1488.5567,-19.623 1494.7382,-28.2277 1498.7549,-22.4948"/>
</g>
<!-- Node32&#45;&gt;Node14 -->
<g id="edge75" class="edge">
<title>Node32&#45;&gt;Node14</title>
<path fill="none" stroke="#191970" d="M1236.4443,-318.9705C1152.0929,-296.6764 940.8391,-240.8421 832.2488,-212.1417"/>
<polygon fill="#191970" stroke="#191970" points="832.9483,-208.7064 822.3859,-209.5349 831.1595,-215.4741 832.9483,-208.7064"/>
</g>
<!-- Node32&#45;&gt;Node15 -->
<g id="edge77" class="edge">
<title>Node32&#45;&gt;Node15</title>
<path fill="none" stroke="#191970" d="M1303.6482,-318.9176C1366.5042,-297.9423 1498.7509,-244.5571 1452.5,-179 1426.3097,-141.8772 1310.6901,-108.3808 1230.3631,-88.9846"/>
<polygon fill="#191970" stroke="#191970" points="1230.7991,-85.4905 1220.2599,-86.5741 1229.1746,-92.2994 1230.7991,-85.4905"/>
</g>
<!-- Node32&#45;&gt;Node27 -->
<g id="edge76" class="edge">
<title>Node32&#45;&gt;Node27</title>
<path fill="none" stroke="#191970" d="M1272.2134,-318.9005C1271.963,-310.5099 1271.5879,-297.9451 1271.2525,-286.7085"/>
<polygon fill="#191970" stroke="#191970" points="1274.7453,-286.4128 1270.9484,-276.5218 1267.7484,-286.6218 1274.7453,-286.4128"/>
</g>
</g>
</svg>
