<?xml version="1.0" encoding="UTF-8" standalone="no"?>
<!DOCTYPE svg PUBLIC "-//W3C//DTD SVG 1.1//EN"
 "http://www.w3.org/Graphics/SVG/1.1/DTD/svg11.dtd">
<!-- Generated by graphviz version 2.43.0 (0)
 -->
<!-- Title: lane_boundary.cc Pages: 1 -->
<svg width="613pt" height="162pt"
 viewBox="0.00 0.00 612.50 162.00" xmlns="http://www.w3.org/2000/svg" xmlns:xlink="http://www.w3.org/1999/xlink">
<g id="graph0" class="graph" transform="scale(1 1) rotate(0) translate(4 158)">
<title>lane_boundary.cc</title>
<polygon fill="white" stroke="transparent" points="-4,4 -4,-158 608.5,-158 608.5,4 -4,4"/>
<!-- Node1 -->
<g id="node1" class="node">
<title>Node1</title>
<g id="a_node1"><a xlink:title=" ">
<polygon fill="#bfbfbf" stroke="black" points="240.5,-134.5 240.5,-153.5 341.5,-153.5 341.5,-134.5 240.5,-134.5"/>
<text text-anchor="middle" x="291" y="-141.5" font-family="Helvetica,sans-Serif" font-size="10.00">lane_boundary.cc</text>
</a>
</g>
</g>
<!-- Node2 -->
<g id="node2" class="node">
<title>Node2</title>
<g id="a_node2"><a xlink:href="lane__boundary_8h.html" target="_top" xlink:title=" ">
<polygon fill="white" stroke="black" points="156,-73 156,-92 278,-92 278,-73 156,-73"/>
<text text-anchor="middle" x="217" y="-80" font-family="Helvetica,sans-Serif" font-size="10.00">base/lane_boundary.h</text>
</a>
</g>
</g>
<!-- Node1&#45;&gt;Node2 -->
<g id="edge1" class="edge">
<title>Node1&#45;&gt;Node2</title>
<path fill="none" stroke="midnightblue" d="M280.4,-134.48C268.75,-125.11 249.81,-109.88 235.67,-98.51"/>
<polygon fill="midnightblue" stroke="midnightblue" points="237.57,-95.55 227.58,-92.01 233.18,-101 237.57,-95.55"/>
</g>
<!-- Node8 -->
<g id="node8" class="node">
<title>Node8</title>
<g id="a_node8"><a xlink:title=" ">
<polygon fill="white" stroke="#bfbfbf" points="296,-67.5 296,-97.5 436,-97.5 436,-67.5 296,-67.5"/>
<text text-anchor="start" x="304" y="-85.5" font-family="Helvetica,sans-Serif" font-size="10.00">maliput/common/maliput</text>
<text text-anchor="middle" x="366" y="-74.5" font-family="Helvetica,sans-Serif" font-size="10.00">_throw.h</text>
</a>
</g>
</g>
<!-- Node1&#45;&gt;Node8 -->
<g id="edge7" class="edge">
<title>Node1&#45;&gt;Node8</title>
<path fill="none" stroke="midnightblue" d="M301.75,-134.48C311.81,-126.49 327.23,-114.25 340.45,-103.77"/>
<polygon fill="midnightblue" stroke="midnightblue" points="342.67,-106.48 348.32,-97.52 338.31,-101 342.67,-106.48"/>
</g>
<!-- Node3 -->
<g id="node3" class="node">
<title>Node3</title>
<g id="a_node3"><a xlink:title=" ">
<polygon fill="white" stroke="#bfbfbf" points="0,-6 0,-25 56,-25 56,-6 0,-6"/>
<text text-anchor="middle" x="28" y="-13" font-family="Helvetica,sans-Serif" font-size="10.00">optional</text>
</a>
</g>
</g>
<!-- Node2&#45;&gt;Node3 -->
<g id="edge2" class="edge">
<title>Node2&#45;&gt;Node3</title>
<path fill="none" stroke="midnightblue" d="M189.94,-72.99C159.43,-63.28 108.41,-46.7 65,-31 63.1,-30.31 61.16,-29.59 59.19,-28.86"/>
<polygon fill="midnightblue" stroke="midnightblue" points="60.04,-25.44 49.45,-25.13 57.54,-31.97 60.04,-25.44"/>
</g>
<!-- Node4 -->
<g id="node4" class="node">
<title>Node4</title>
<g id="a_node4"><a xlink:title=" ">
<polygon fill="white" stroke="#bfbfbf" points="74.5,-6 74.5,-25 121.5,-25 121.5,-6 74.5,-6"/>
<text text-anchor="middle" x="98" y="-13" font-family="Helvetica,sans-Serif" font-size="10.00">vector</text>
</a>
</g>
</g>
<!-- Node2&#45;&gt;Node4 -->
<g id="edge3" class="edge">
<title>Node2&#45;&gt;Node4</title>
<path fill="none" stroke="midnightblue" d="M200.95,-72.73C180.88,-61.77 146.3,-42.88 122.81,-30.05"/>
<polygon fill="midnightblue" stroke="midnightblue" points="124.25,-26.85 113.79,-25.13 120.89,-32.99 124.25,-26.85"/>
</g>
<!-- Node5 -->
<g id="node5" class="node">
<title>Node5</title>
<g id="a_node5"><a xlink:title=" ">
<polygon fill="white" stroke="#bfbfbf" points="139.5,-6 139.5,-25 294.5,-25 294.5,-6 139.5,-6"/>
<text text-anchor="middle" x="217" y="-13" font-family="Helvetica,sans-Serif" font-size="10.00">maliput/api/lane_boundary.h</text>
</a>
</g>
</g>
<!-- Node2&#45;&gt;Node5 -->
<g id="edge4" class="edge">
<title>Node2&#45;&gt;Node5</title>
<path fill="none" stroke="midnightblue" d="M217,-72.73C217,-63.18 217,-47.62 217,-35.28"/>
<polygon fill="midnightblue" stroke="midnightblue" points="220.5,-35.13 217,-25.13 213.5,-35.13 220.5,-35.13"/>
</g>
<!-- Node6 -->
<g id="node6" class="node">
<title>Node6</title>
<g id="a_node6"><a xlink:title=" ">
<polygon fill="white" stroke="#bfbfbf" points="313,-0.5 313,-30.5 453,-30.5 453,-0.5 313,-0.5"/>
<text text-anchor="start" x="321" y="-18.5" font-family="Helvetica,sans-Serif" font-size="10.00">maliput/common/maliput</text>
<text text-anchor="middle" x="383" y="-7.5" font-family="Helvetica,sans-Serif" font-size="10.00">_copyable.h</text>
</a>
</g>
</g>
<!-- Node2&#45;&gt;Node6 -->
<g id="edge5" class="edge">
<title>Node2&#45;&gt;Node6</title>
<path fill="none" stroke="midnightblue" d="M239.04,-72.87C264.06,-63.07 305.54,-46.83 337.57,-34.29"/>
<polygon fill="midnightblue" stroke="midnightblue" points="339.14,-37.43 347.17,-30.53 336.59,-30.92 339.14,-37.43"/>
</g>
<!-- Node7 -->
<g id="node7" class="node">
<title>Node7</title>
<g id="a_node7"><a xlink:title=" ">
<polygon fill="white" stroke="#bfbfbf" points="471.5,-0.5 471.5,-30.5 604.5,-30.5 604.5,-0.5 471.5,-0.5"/>
<text text-anchor="start" x="479.5" y="-18.5" font-family="Helvetica,sans-Serif" font-size="10.00">maliput/geometry_base</text>
<text text-anchor="middle" x="538" y="-7.5" font-family="Helvetica,sans-Serif" font-size="10.00">/lane_boundary.h</text>
</a>
</g>
</g>
<!-- Node2&#45;&gt;Node7 -->
<g id="edge6" class="edge">
<title>Node2&#45;&gt;Node7</title>
<path fill="none" stroke="midnightblue" d="M258.08,-72.95C267.57,-70.99 277.64,-68.91 287,-67 345.47,-55.06 411.64,-41.76 461.36,-31.8"/>
<polygon fill="midnightblue" stroke="midnightblue" points="462.27,-35.19 471.39,-29.79 460.9,-28.32 462.27,-35.19"/>
</g>
</g>
</svg>
