<?xml version="1.0" encoding="UTF-8" standalone="no"?>
<!DOCTYPE svg PUBLIC "-//W3C//DTD SVG 1.1//EN"
 "http://www.w3.org/Graphics/SVG/1.1/DTD/svg11.dtd">
<!-- Generated by graphviz version 2.43.0 (0)
 -->
<!-- Title: junction.h Pages: 1 -->
<!--zoomable 229 -->
<svg id="main" version="1.1" xmlns="http://www.w3.org/2000/svg" xmlns:xlink="http://www.w3.org/1999/xlink" xml:space="preserve" onload="init(evt)">
<style type="text/css"><![CDATA[
.edge:hover path { stroke: red; }
.edge:hover polygon { stroke: red; fill: red; }
]]></style>
<script type="text/javascript"><![CDATA[
var edges = document.getElementsByTagName('g');
if (edges && edges.length) {
  for (var i=0;i<edges.length;i++) {
    if (edges[i].id.substr(0,4)=='edge') {
      edges[i].setAttribute('class','edge');
    }
  }
}
]]></script>
        <defs>
                <circle id="rim" cx="0" cy="0" r="7"/>
                <circle id="rim2" cx="0" cy="0" r="3.5"/>
                <g id="zoomPlus">
                        <use xlink:href="#rim" fill="#404040">
                                <set attributeName="fill" to="#808080" begin="zoomplus.mouseover" end="zoomplus.mouseout"/>
                        </use>
                        <path d="M-4,0h8M0,-4v8" fill="none" stroke="white" stroke-width="1.5" pointer-events="none"/>
                </g>
                <g id="zoomMin">
                        <use xlink:href="#rim" fill="#404040">
                                <set attributeName="fill" to="#808080" begin="zoomminus.mouseover" end="zoomminus.mouseout"/>
                        </use>
                        <path d="M-4,0h8" fill="none" stroke="white" stroke-width="1.5" pointer-events="none"/>
                </g>
                <g id="dirArrow">
                        <path fill="none" stroke="white" stroke-width="1.5" d="M0,-3.0v7 M-2.5,-0.5L0,-3.0L2.5,-0.5"/>
                </g>
               <g id="resetDef">
                       <use xlink:href="#rim2" fill="#404040">
                               <set attributeName="fill" to="#808080" begin="reset.mouseover" end="reset.mouseout"/>
                       </use>
               </g>
        </defs>

<script type="text/javascript">
var viewWidth = 970;
var viewHeight = 229;
var sectionId = 'dynsection-0';
</script>
<script xlink:href="svgpan.js"/>
<svg id="graph" class="graph">
<g id="viewport">
<title>junction.h</title>
<polygon fill="white" stroke="transparent" points="-4,4 -4,-225 965.75,-225 965.75,4 -4,4"/>
<!-- Node1 -->
<g id="node1" class="node">
<title>Node1</title>
<g id="a_node1"><a xlink:title=" ">
<polygon fill="#bfbfbf" stroke="black" points="509.25,-201.5 509.25,-220.5 574.25,-220.5 574.25,-201.5 509.25,-201.5"/>
<text text-anchor="middle" x="541.75" y="-208.5" font-family="Helvetica,sans-Serif" font-size="10.00">junction.h</text>
</a>
</g>
</g>
<!-- Node2 -->
<g id="node2" class="node">
<title>Node2</title>
<g id="a_node2"><a xlink:title=" ">
<polygon fill="white" stroke="#bfbfbf" points="157.75,-6 157.75,-25 215.75,-25 215.75,-6 157.75,-6"/>
<text text-anchor="middle" x="186.75" y="-13" font-family="Helvetica,sans-Serif" font-size="10.00">memory</text>
</a>
</g>
</g>
<!-- Node1&#45;&gt;Node2 -->
<g id="edge1" class="edge">
<title>Node1&#45;&gt;Node2</title>
<path fill="none" stroke="midnightblue" d="M508.88,-208.87C401.13,-204.34 62.3,-183.42 6.75,-98 -28.33,-44.06 84.61,-25.41 147.51,-19.3"/>
<polygon fill="midnightblue" stroke="midnightblue" points="147.87,-22.78 157.51,-18.39 147.24,-15.81 147.87,-22.78"/>
</g>
<!-- Node3 -->
<g id="node3" class="node">
<title>Node3</title>
<g id="a_node3"><a xlink:title=" ">
<polygon fill="white" stroke="#bfbfbf" points="16.25,-73 16.25,-92 63.25,-92 63.25,-73 16.25,-73"/>
<text text-anchor="middle" x="39.75" y="-80" font-family="Helvetica,sans-Serif" font-size="10.00">vector</text>
</a>
</g>
</g>
<!-- Node1&#45;&gt;Node3 -->
<g id="edge2" class="edge">
<title>Node1&#45;&gt;Node3</title>
<path fill="none" stroke="midnightblue" d="M509.09,-206.81C455.99,-201.17 347.9,-187.85 258.75,-165 173.23,-143.08 153.58,-131.14 71.75,-98 70.33,-97.43 68.89,-96.83 67.44,-96.21"/>
<polygon fill="midnightblue" stroke="midnightblue" points="68.48,-92.85 57.91,-92.04 65.67,-99.26 68.48,-92.85"/>
</g>
<!-- Node4 -->
<g id="node4" class="node">
<title>Node4</title>
<g id="a_node4"><a xlink:title=" ">
<polygon fill="white" stroke="#bfbfbf" points="81.25,-73 81.25,-92 204.25,-92 204.25,-73 81.25,-73"/>
<text text-anchor="middle" x="142.75" y="-80" font-family="Helvetica,sans-Serif" font-size="10.00">maliput/api/junction.h</text>
</a>
</g>
</g>
<!-- Node1&#45;&gt;Node4 -->
<g id="edge3" class="edge">
<title>Node1&#45;&gt;Node4</title>
<path fill="none" stroke="midnightblue" d="M508.91,-203.88C470.19,-196.32 404.08,-182.29 348.75,-165 283.77,-144.69 210.17,-113.51 170.93,-96.19"/>
<polygon fill="midnightblue" stroke="midnightblue" points="172.28,-92.96 161.72,-92.1 169.44,-99.36 172.28,-92.96"/>
</g>
<!-- Node5 -->
<g id="node5" class="node">
<title>Node5</title>
<g id="a_node5"><a xlink:href="../../maliput/html/lane__data_8h.html.html" xlink:title=" ">
<polygon fill="white" stroke="black" points="514.75,-73 514.75,-92 646.75,-92 646.75,-73 514.75,-73"/>
<text text-anchor="middle" x="580.75" y="-80" font-family="Helvetica,sans-Serif" font-size="10.00">maliput/api/lane_data.h</text>
</a>
</g>
</g>
<!-- Node1&#45;&gt;Node5 -->
<g id="edge4" class="edge">
<title>Node1&#45;&gt;Node5</title>
<path fill="none" stroke="midnightblue" d="M544.43,-201.31C550.72,-180.9 566.54,-129.6 575.07,-101.91"/>
<polygon fill="midnightblue" stroke="midnightblue" points="578.45,-102.84 578.05,-92.26 571.76,-100.78 578.45,-102.84"/>
</g>
<!-- Node6 -->
<g id="node6" class="node">
<title>Node6</title>
<g id="a_node6"><a xlink:title=" ">
<polygon fill="white" stroke="#bfbfbf" points="646.25,-140 646.25,-159 803.25,-159 803.25,-140 646.25,-140"/>
<text text-anchor="middle" x="724.75" y="-147" font-family="Helvetica,sans-Serif" font-size="10.00">maliput/api/road_geometry.h</text>
</a>
</g>
</g>
<!-- Node1&#45;&gt;Node6 -->
<g id="edge5" class="edge">
<title>Node1&#45;&gt;Node6</title>
<path fill="none" stroke="midnightblue" d="M567.97,-201.48C599.77,-191.14 653.51,-173.66 689.07,-162.1"/>
<polygon fill="midnightblue" stroke="midnightblue" points="690.15,-165.43 698.58,-159.01 687.99,-158.77 690.15,-165.43"/>
</g>
<!-- Node7 -->
<g id="node7" class="node">
<title>Node7</title>
<g id="a_node7"><a xlink:title=" ">
<polygon fill="white" stroke="#bfbfbf" points="665.25,-73 665.25,-92 792.25,-92 792.25,-73 665.25,-73"/>
<text text-anchor="middle" x="728.75" y="-80" font-family="Helvetica,sans-Serif" font-size="10.00">maliput/api/segment.h</text>
</a>
</g>
</g>
<!-- Node1&#45;&gt;Node7 -->
<g id="edge6" class="edge">
<title>Node1&#45;&gt;Node7</title>
<path fill="none" stroke="midnightblue" d="M546.79,-201.28C556.17,-185.76 577.71,-153.2 603.75,-134 628.2,-115.98 659.98,-103.25 685.38,-95.08"/>
<polygon fill="midnightblue" stroke="midnightblue" points="686.6,-98.36 695.12,-92.07 684.54,-91.68 686.6,-98.36"/>
</g>
<!-- Node8 -->
<g id="node8" class="node">
<title>Node8</title>
<g id="a_node8"><a xlink:href="../../maliput/html/maliput__abort_8h.html.html" xlink:title=" ">
<polygon fill="white" stroke="black" points="821.75,-134.5 821.75,-164.5 961.75,-164.5 961.75,-134.5 821.75,-134.5"/>
<text text-anchor="start" x="829.75" y="-152.5" font-family="Helvetica,sans-Serif" font-size="10.00">maliput/common/maliput</text>
<text text-anchor="middle" x="891.75" y="-141.5" font-family="Helvetica,sans-Serif" font-size="10.00">_abort.h</text>
</a>
</g>
</g>
<!-- Node1&#45;&gt;Node8 -->
<g id="edge7" class="edge">
<title>Node1&#45;&gt;Node8</title>
<path fill="none" stroke="midnightblue" d="M574.32,-204.78C623.44,-196.85 719.7,-181.18 811.53,-165.2"/>
<polygon fill="midnightblue" stroke="midnightblue" points="812.3,-168.62 821.55,-163.45 811.1,-161.72 812.3,-168.62"/>
</g>
<!-- Node9 -->
<g id="node9" class="node">
<title>Node9</title>
<g id="a_node9"><a xlink:href="../../maliput/html/maliput__copyable_8h.html.html" xlink:title=" ">
<polygon fill="white" stroke="black" points="810.75,-67.5 810.75,-97.5 950.75,-97.5 950.75,-67.5 810.75,-67.5"/>
<text text-anchor="start" x="818.75" y="-85.5" font-family="Helvetica,sans-Serif" font-size="10.00">maliput/common/maliput</text>
<text text-anchor="middle" x="880.75" y="-74.5" font-family="Helvetica,sans-Serif" font-size="10.00">_copyable.h</text>
</a>
</g>
</g>
<!-- Node1&#45;&gt;Node9 -->
<g id="edge8" class="edge">
<title>Node1&#45;&gt;Node9</title>
<path fill="none" stroke="midnightblue" d="M553.88,-201.27C566.13,-192.37 585.51,-178.05 601.75,-165 618.2,-151.77 618.81,-143.33 637.75,-134 645.24,-130.31 732.88,-112.55 800.78,-99.12"/>
<polygon fill="midnightblue" stroke="midnightblue" points="801.51,-102.55 810.64,-97.18 800.15,-95.68 801.51,-102.55"/>
</g>
<!-- Node10 -->
<g id="node10" class="node">
<title>Node10</title>
<g id="a_node10"><a xlink:href="segment_8h.html" target="_top" xlink:title=" ">
<polygon fill="white" stroke="black" points="357.75,-140 357.75,-159 513.75,-159 513.75,-140 357.75,-140"/>
<text text-anchor="middle" x="435.75" y="-147" font-family="Helvetica,sans-Serif" font-size="10.00">maliput_dragway/segment.h</text>
</a>
</g>
</g>
<!-- Node1&#45;&gt;Node10 -->
<g id="edge9" class="edge">
<title>Node1&#45;&gt;Node10</title>
<path fill="none" stroke="midnightblue" d="M526.56,-201.48C509.09,-191.67 480.17,-175.43 459.66,-163.92"/>
<polygon fill="midnightblue" stroke="midnightblue" points="461.34,-160.85 450.91,-159.01 457.91,-166.96 461.34,-160.85"/>
</g>
<!-- Node10&#45;&gt;Node2 -->
<g id="edge10" class="edge">
<title>Node10&#45;&gt;Node2</title>
<path fill="none" stroke="midnightblue" d="M365.91,-139.93C329.57,-132.95 285.77,-120.42 251.75,-98 226.9,-81.62 207.15,-52.66 196.21,-34.03"/>
<polygon fill="midnightblue" stroke="midnightblue" points="199.14,-32.11 191.18,-25.13 193.05,-35.55 199.14,-32.11"/>
</g>
<!-- Node10&#45;&gt;Node3 -->
<g id="edge12" class="edge">
<title>Node10&#45;&gt;Node3</title>
<path fill="none" stroke="midnightblue" d="M357.71,-144.17C283.07,-138.53 167.97,-125.84 71.75,-98 69.81,-97.44 67.85,-96.78 65.89,-96.07"/>
<polygon fill="midnightblue" stroke="midnightblue" points="66.92,-92.7 56.34,-92.11 64.24,-99.17 66.92,-92.7"/>
</g>
<!-- Node10&#45;&gt;Node4 -->
<g id="edge13" class="edge">
<title>Node10&#45;&gt;Node4</title>
<path fill="none" stroke="midnightblue" d="M397.14,-139.94C344.22,-128.2 249.15,-107.11 191.42,-94.3"/>
<polygon fill="midnightblue" stroke="midnightblue" points="191.96,-90.83 181.44,-92.08 190.44,-97.67 191.96,-90.83"/>
</g>
<!-- Node10&#45;&gt;Node5 -->
<g id="edge15" class="edge">
<title>Node10&#45;&gt;Node5</title>
<path fill="none" stroke="midnightblue" d="M455,-139.87C479.92,-128.7 523.54,-109.15 552.28,-96.26"/>
<polygon fill="midnightblue" stroke="midnightblue" points="553.72,-99.45 561.41,-92.17 550.86,-93.06 553.72,-99.45"/>
</g>
<!-- Node10&#45;&gt;Node7 -->
<g id="edge16" class="edge">
<title>Node10&#45;&gt;Node7</title>
<path fill="none" stroke="midnightblue" d="M474.35,-139.94C527.27,-128.2 622.34,-107.11 680.08,-94.3"/>
<polygon fill="midnightblue" stroke="midnightblue" points="681.05,-97.67 690.06,-92.08 679.54,-90.83 681.05,-97.67"/>
</g>
<!-- Node10&#45;&gt;Node9 -->
<g id="edge17" class="edge">
<title>Node10&#45;&gt;Node9</title>
<path fill="none" stroke="midnightblue" d="M504.35,-139.96C575.84,-130.85 691.35,-115.54 800.68,-98.13"/>
<polygon fill="midnightblue" stroke="midnightblue" points="801.24,-101.59 810.56,-96.55 800.14,-94.67 801.24,-101.59"/>
</g>
<!-- Node11 -->
<g id="node11" class="node">
<title>Node11</title>
<g id="a_node11"><a xlink:title=" ">
<polygon fill="white" stroke="#bfbfbf" points="413.25,-73 413.25,-92 458.25,-92 458.25,-73 413.25,-73"/>
<text text-anchor="middle" x="435.75" y="-80" font-family="Helvetica,sans-Serif" font-size="10.00">utility</text>
</a>
</g>
</g>
<!-- Node10&#45;&gt;Node11 -->
<g id="edge11" class="edge">
<title>Node10&#45;&gt;Node11</title>
<path fill="none" stroke="midnightblue" d="M435.75,-139.73C435.75,-130.18 435.75,-114.62 435.75,-102.28"/>
<polygon fill="midnightblue" stroke="midnightblue" points="439.25,-102.13 435.75,-92.13 432.25,-102.13 439.25,-102.13"/>
</g>
<!-- Node12 -->
<g id="node12" class="node">
<title>Node12</title>
<g id="a_node12"><a xlink:title=" ">
<polygon fill="white" stroke="#bfbfbf" points="434.25,-6 434.25,-25 539.25,-25 539.25,-6 434.25,-6"/>
<text text-anchor="middle" x="486.75" y="-13" font-family="Helvetica,sans-Serif" font-size="10.00">maliput/api/lane.h</text>
</a>
</g>
</g>
<!-- Node10&#45;&gt;Node12 -->
<g id="edge14" class="edge">
<title>Node10&#45;&gt;Node12</title>
<path fill="none" stroke="midnightblue" d="M442.63,-139.7C449.89,-130.01 461.17,-113.7 467.75,-98 476.33,-77.53 481.43,-52.47 484.16,-35.59"/>
<polygon fill="midnightblue" stroke="midnightblue" points="487.67,-35.77 485.67,-25.36 480.74,-34.74 487.67,-35.77"/>
</g>
<!-- Node13 -->
<g id="node13" class="node">
<title>Node13</title>
<g id="a_node13"><a xlink:href="lane_8h.html" target="_top" xlink:title=" ">
<polygon fill="white" stroke="black" points="260.75,-73 260.75,-92 394.75,-92 394.75,-73 260.75,-73"/>
<text text-anchor="middle" x="327.75" y="-80" font-family="Helvetica,sans-Serif" font-size="10.00">maliput_dragway/lane.h</text>
</a>
</g>
</g>
<!-- Node10&#45;&gt;Node13 -->
<g id="edge18" class="edge">
<title>Node10&#45;&gt;Node13</title>
<path fill="none" stroke="midnightblue" d="M421.18,-139.73C403.13,-128.87 372.14,-110.22 350.83,-97.39"/>
<polygon fill="midnightblue" stroke="midnightblue" points="352.46,-94.29 342.08,-92.13 348.85,-100.28 352.46,-94.29"/>
</g>
<!-- Node13&#45;&gt;Node2 -->
<g id="edge19" class="edge">
<title>Node13&#45;&gt;Node2</title>
<path fill="none" stroke="midnightblue" d="M309.02,-72.87C284.9,-61.75 242.75,-42.32 214.79,-29.43"/>
<polygon fill="midnightblue" stroke="midnightblue" points="216.1,-26.18 205.55,-25.17 213.17,-32.53 216.1,-26.18"/>
</g>
<!-- Node13&#45;&gt;Node12 -->
<g id="edge22" class="edge">
<title>Node13&#45;&gt;Node12</title>
<path fill="none" stroke="midnightblue" d="M348.86,-72.87C376.38,-61.62 424.7,-41.87 456.21,-28.99"/>
<polygon fill="midnightblue" stroke="midnightblue" points="457.87,-32.09 465.8,-25.06 455.22,-25.61 457.87,-32.09"/>
</g>
<!-- Node14 -->
<g id="node14" class="node">
<title>Node14</title>
<g id="a_node14"><a xlink:title=" ">
<polygon fill="white" stroke="#bfbfbf" points="233.75,-6 233.75,-25 289.75,-25 289.75,-6 233.75,-6"/>
<text text-anchor="middle" x="261.75" y="-13" font-family="Helvetica,sans-Serif" font-size="10.00">optional</text>
</a>
</g>
</g>
<!-- Node13&#45;&gt;Node14 -->
<g id="edge20" class="edge">
<title>Node13&#45;&gt;Node14</title>
<path fill="none" stroke="midnightblue" d="M318.85,-72.73C308.36,-62.4 290.72,-45.04 277.82,-32.33"/>
<polygon fill="midnightblue" stroke="midnightblue" points="280.09,-29.65 270.51,-25.13 275.18,-34.64 280.09,-29.65"/>
</g>
<!-- Node15 -->
<g id="node15" class="node">
<title>Node15</title>
<g id="a_node15"><a xlink:title=" ">
<polygon fill="white" stroke="#bfbfbf" points="307.75,-0.5 307.75,-30.5 415.75,-30.5 415.75,-0.5 307.75,-0.5"/>
<text text-anchor="start" x="315.75" y="-18.5" font-family="Helvetica,sans-Serif" font-size="10.00">maliput/api/branch</text>
<text text-anchor="middle" x="361.75" y="-7.5" font-family="Helvetica,sans-Serif" font-size="10.00">_point.h</text>
</a>
</g>
</g>
<!-- Node13&#45;&gt;Node15 -->
<g id="edge21" class="edge">
<title>Node13&#45;&gt;Node15</title>
<path fill="none" stroke="midnightblue" d="M332.33,-72.73C336.75,-64.29 343.63,-51.14 349.62,-39.68"/>
<polygon fill="midnightblue" stroke="midnightblue" points="352.84,-41.07 354.38,-30.59 346.64,-37.83 352.84,-41.07"/>
</g>
</g>
</svg>
        <g id="navigator" transform="translate(0 0)" fill="#404254">
                <rect fill="#f2f5e9" fill-opacity="0.5" stroke="#606060" stroke-width=".5" x="0" y="0" width="60" height="60"/>
                <use id="zoomplus" xlink:href="#zoomPlus" x="17" y="9" onmousedown="handleZoom(evt,'in')"/>
                <use id="zoomminus" xlink:href="#zoomMin" x="42" y="9" onmousedown="handleZoom(evt,'out')"/>
                <use id="reset" xlink:href="#resetDef" x="30" y="36" onmousedown="handleReset()"/>
                <g id="arrowUp" xlink:href="#dirArrow" transform="translate(30 24)" onmousedown="handlePan(0,-1)">
                  <use xlink:href="#rim" fill="#404040">
                        <set attributeName="fill" to="#808080" begin="arrowUp.mouseover" end="arrowUp.mouseout"/>
                  </use>
                  <path fill="none" stroke="white" stroke-width="1.5" d="M0,-3.0v7 M-2.5,-0.5L0,-3.0L2.5,-0.5"/>
                </g>
                <g id="arrowRight" xlink:href="#dirArrow" transform="rotate(90) translate(36 -43)" onmousedown="handlePan(1,0)">
                  <use xlink:href="#rim" fill="#404040">
                        <set attributeName="fill" to="#808080" begin="arrowRight.mouseover" end="arrowRight.mouseout"/>
                  </use>
                  <path fill="none" stroke="white" stroke-width="1.5" d="M0,-3.0v7 M-2.5,-0.5L0,-3.0L2.5,-0.5"/>
                </g>
                <g id="arrowDown" xlink:href="#dirArrow" transform="rotate(180) translate(-30 -48)" onmousedown="handlePan(0,1)">
                  <use xlink:href="#rim" fill="#404040">
                        <set attributeName="fill" to="#808080" begin="arrowDown.mouseover" end="arrowDown.mouseout"/>
                  </use>
                  <path fill="none" stroke="white" stroke-width="1.5" d="M0,-3.0v7 M-2.5,-0.5L0,-3.0L2.5,-0.5"/>
                </g>
                <g id="arrowLeft" xlink:href="#dirArrow" transform="rotate(270) translate(-36 17)" onmousedown="handlePan(-1,0)">
                  <use xlink:href="#rim" fill="#404040">
                        <set attributeName="fill" to="#808080" begin="arrowLeft.mouseover" end="arrowLeft.mouseout"/>
                  </use>
                  <path fill="none" stroke="white" stroke-width="1.5" d="M0,-3.0v7 M-2.5,-0.5L0,-3.0L2.5,-0.5"/>
                </g>
        </g>
        <svg viewBox="0 0 15 15" width="100%" height="30px" preserveAspectRatio="xMaxYMin meet">
         <g id="arrow_out" transform="scale(0.3 0.3)">
          <a xlink:href="junction_8h__incl_org.svg" target="_base">
           <rect id="button" ry="5" rx="5" y="6" x="6" height="38" width="38"
                fill="#f2f5e9" fill-opacity="0.5" stroke="#606060" stroke-width="1.0"/>
           <path id="arrow"
             d="M 11.500037,31.436501 C 11.940474,20.09759 22.043105,11.32322 32.158766,21.979434 L 37.068811,17.246167 C 37.068811,17.246167 37.088388,32 37.088388,32 L 22.160133,31.978069 C 22.160133,31.978069 26.997745,27.140456 26.997745,27.140456 C 18.528582,18.264221 13.291696,25.230495 11.500037,31.436501 z"
             style="fill:#404040;"/>
          </a>
         </g>
        </svg>
</svg>
