<?xml version="1.0" encoding="UTF-8" standalone="no"?>
<!DOCTYPE svg PUBLIC "-//W3C//DTD SVG 1.1//EN"
 "http://www.w3.org/Graphics/SVG/1.1/DTD/svg11.dtd">
<!-- Generated by graphviz version 2.43.0 (0)
 -->
<!-- Title: road_network.cc Pages: 1 -->
<svg width="703pt" height="151pt"
 viewBox="0.00 0.00 702.50 151.00" xmlns="http://www.w3.org/2000/svg" xmlns:xlink="http://www.w3.org/1999/xlink">
<g id="graph0" class="graph" transform="scale(1 1) rotate(0) translate(4 147)">
<title>road_network.cc</title>
<polygon fill="white" stroke="transparent" points="-4,4 -4,-147 698.5,-147 698.5,4 -4,4"/>
<!-- Node1 -->
<g id="node1" class="node">
<title>Node1</title>
<g id="a_node1"><a xlink:title=" ">
<polygon fill="#bfbfbf" stroke="black" points="148.5,-123.5 148.5,-142.5 245.5,-142.5 245.5,-123.5 148.5,-123.5"/>
<text text-anchor="middle" x="197" y="-130.5" font-family="Helvetica,sans-Serif" font-size="10.00">road_network.cc</text>
</a>
</g>
</g>
<!-- Node2 -->
<g id="node2" class="node">
<title>Node2</title>
<g id="a_node2"><a xlink:title=" ">
<polygon fill="white" stroke="#bfbfbf" points="0,-62 0,-81 64,-81 64,-62 0,-62"/>
<text text-anchor="middle" x="32" y="-69" font-family="Helvetica,sans-Serif" font-size="10.00">algorithm</text>
</a>
</g>
</g>
<!-- Node1&#45;&gt;Node2 -->
<g id="edge1" class="edge">
<title>Node1&#45;&gt;Node2</title>
<path fill="none" stroke="midnightblue" d="M173.36,-123.48C145.06,-113.27 97.47,-96.11 65.41,-84.55"/>
<polygon fill="midnightblue" stroke="midnightblue" points="66.19,-81.11 55.6,-81.01 63.82,-87.69 66.19,-81.11"/>
</g>
<!-- Node3 -->
<g id="node3" class="node">
<title>Node3</title>
<g id="a_node3"><a xlink:title=" ">
<polygon fill="white" stroke="#bfbfbf" points="221,-0.5 221,-19.5 279,-19.5 279,-0.5 221,-0.5"/>
<text text-anchor="middle" x="250" y="-7.5" font-family="Helvetica,sans-Serif" font-size="10.00">memory</text>
</a>
</g>
</g>
<!-- Node1&#45;&gt;Node3 -->
<g id="edge2" class="edge">
<title>Node1&#45;&gt;Node3</title>
<path fill="none" stroke="midnightblue" d="M162.82,-123.49C144.01,-116.88 122.26,-105.6 111,-87 103.86,-75.21 102.9,-67.14 111,-56 133.62,-24.9 178.19,-14.86 210.78,-11.83"/>
<polygon fill="midnightblue" stroke="midnightblue" points="211.19,-15.31 220.9,-11.08 210.67,-8.33 211.19,-15.31"/>
</g>
<!-- Node4 -->
<g id="node4" class="node">
<title>Node4</title>
<g id="a_node4"><a xlink:title=" ">
<polygon fill="white" stroke="#bfbfbf" points="120,-62 120,-81 164,-81 164,-62 120,-62"/>
<text text-anchor="middle" x="142" y="-69" font-family="Helvetica,sans-Serif" font-size="10.00">string</text>
</a>
</g>
</g>
<!-- Node1&#45;&gt;Node4 -->
<g id="edge3" class="edge">
<title>Node1&#45;&gt;Node4</title>
<path fill="none" stroke="midnightblue" d="M189.12,-123.48C180.71,-114.37 167.18,-99.74 156.77,-88.48"/>
<polygon fill="midnightblue" stroke="midnightblue" points="159.22,-85.98 149.87,-81.01 154.08,-90.73 159.22,-85.98"/>
</g>
<!-- Node5 -->
<g id="node5" class="node">
<title>Node5</title>
<g id="a_node5"><a xlink:href="../../maliput/html/maliput__throw_8h.html.html" xlink:title=" ">
<polygon fill="white" stroke="black" points="182,-56.5 182,-86.5 322,-86.5 322,-56.5 182,-56.5"/>
<text text-anchor="start" x="190" y="-74.5" font-family="Helvetica,sans-Serif" font-size="10.00">maliput/common/maliput</text>
<text text-anchor="middle" x="252" y="-63.5" font-family="Helvetica,sans-Serif" font-size="10.00">_throw.h</text>
</a>
</g>
</g>
<!-- Node1&#45;&gt;Node5 -->
<g id="edge4" class="edge">
<title>Node1&#45;&gt;Node5</title>
<path fill="none" stroke="midnightblue" d="M204.88,-123.48C211.98,-115.79 222.72,-104.17 232.16,-93.96"/>
<polygon fill="midnightblue" stroke="midnightblue" points="234.82,-96.24 239.04,-86.52 229.68,-91.49 234.82,-96.24"/>
</g>
<!-- Node6 -->
<g id="node6" class="node">
<title>Node6</title>
<g id="a_node6"><a xlink:href="../../maliput/html/road__network__loader_8h.html.html" xlink:title=" ">
<polygon fill="white" stroke="black" points="340,-56.5 340,-86.5 452,-86.5 452,-56.5 340,-56.5"/>
<text text-anchor="start" x="348" y="-74.5" font-family="Helvetica,sans-Serif" font-size="10.00">maliput/plugin/road</text>
<text text-anchor="middle" x="396" y="-63.5" font-family="Helvetica,sans-Serif" font-size="10.00">_network_loader.h</text>
</a>
</g>
</g>
<!-- Node1&#45;&gt;Node6 -->
<g id="edge5" class="edge">
<title>Node1&#45;&gt;Node6</title>
<path fill="none" stroke="midnightblue" d="M225.51,-123.48C255.11,-114.63 302.19,-100.55 339.38,-89.43"/>
<polygon fill="midnightblue" stroke="midnightblue" points="340.52,-92.74 349.1,-86.52 338.52,-86.03 340.52,-92.74"/>
</g>
<!-- Node7 -->
<g id="node7" class="node">
<title>Node7</title>
<g id="a_node7"><a xlink:href="road__network__builder_8h.html" target="_top" xlink:title=" ">
<polygon fill="white" stroke="black" points="470,-56.5 470,-86.5 596,-86.5 596,-56.5 470,-56.5"/>
<text text-anchor="start" x="478" y="-74.5" font-family="Helvetica,sans-Serif" font-size="10.00">maliput_dragway/road</text>
<text text-anchor="middle" x="533" y="-63.5" font-family="Helvetica,sans-Serif" font-size="10.00">_network_builder.h</text>
</a>
</g>
</g>
<!-- Node1&#45;&gt;Node7 -->
<g id="edge6" class="edge">
<title>Node1&#45;&gt;Node7</title>
<path fill="none" stroke="midnightblue" d="M245.73,-124.14C296.6,-115.84 378.93,-102.12 459.48,-87.25"/>
<polygon fill="midnightblue" stroke="midnightblue" points="460.61,-90.6 469.8,-85.34 459.33,-83.72 460.61,-90.6"/>
</g>
<!-- Node7&#45;&gt;Node3 -->
<g id="edge7" class="edge">
<title>Node7&#45;&gt;Node3</title>
<path fill="none" stroke="midnightblue" d="M469.84,-57.22C414.56,-45.6 335.99,-29.08 289.28,-19.26"/>
<polygon fill="midnightblue" stroke="midnightblue" points="289.76,-15.78 279.26,-17.15 288.32,-22.63 289.76,-15.78"/>
</g>
<!-- Node8 -->
<g id="node8" class="node">
<title>Node8</title>
<g id="a_node8"><a xlink:title=" ">
<polygon fill="white" stroke="#bfbfbf" points="368.5,-0.5 368.5,-19.5 525.5,-19.5 525.5,-0.5 368.5,-0.5"/>
<text text-anchor="middle" x="447" y="-7.5" font-family="Helvetica,sans-Serif" font-size="10.00">maliput/api/road_geometry.h</text>
</a>
</g>
</g>
<!-- Node7&#45;&gt;Node8 -->
<g id="edge8" class="edge">
<title>Node7&#45;&gt;Node8</title>
<path fill="none" stroke="midnightblue" d="M512.62,-56.4C499.09,-47.04 481.39,-34.79 467.78,-25.38"/>
<polygon fill="midnightblue" stroke="midnightblue" points="469.73,-22.47 459.51,-19.66 465.75,-28.23 469.73,-22.47"/>
</g>
<!-- Node9 -->
<g id="node9" class="node">
<title>Node9</title>
<g id="a_node9"><a xlink:href="../../maliput/html/road__network_8h.html.html" xlink:title=" ">
<polygon fill="white" stroke="black" points="543.5,-0.5 543.5,-19.5 694.5,-19.5 694.5,-0.5 543.5,-0.5"/>
<text text-anchor="middle" x="619" y="-7.5" font-family="Helvetica,sans-Serif" font-size="10.00">maliput/api/road_network.h</text>
</a>
</g>
</g>
<!-- Node7&#45;&gt;Node9 -->
<g id="edge9" class="edge">
<title>Node7&#45;&gt;Node9</title>
<path fill="none" stroke="midnightblue" d="M553.38,-56.4C566.91,-47.04 584.61,-34.79 598.22,-25.38"/>
<polygon fill="midnightblue" stroke="midnightblue" points="600.25,-28.23 606.49,-19.66 596.27,-22.47 600.25,-28.23"/>
</g>
</g>
</svg>
