<?xml version="1.0" encoding="UTF-8" standalone="no"?>
<!DOCTYPE svg PUBLIC "-//W3C//DTD SVG 1.1//EN"
 "http://www.w3.org/Graphics/SVG/1.1/DTD/svg11.dtd">
<!-- Generated by graphviz version 2.40.1 (20161225.0304)
 -->
<!-- Title: discrete_value_rule_state_provider_builder.h Pages: 1 -->
<svg width="308pt" height="106pt"
 viewBox="0.00 0.00 307.50 106.00" xmlns="http://www.w3.org/2000/svg" xmlns:xlink="http://www.w3.org/1999/xlink">
<g id="graph0" class="graph" transform="scale(1 1) rotate(0) translate(4 102)">
<title>discrete_value_rule_state_provider_builder.h</title>
<polygon fill="#ffffff" stroke="transparent" points="-4,4 -4,-102 303.5,-102 303.5,4 -4,4"/>
<!-- Node34 -->
<g id="node1" class="node">
<title>Node34</title>
<polygon fill="#bfbfbf" stroke="#000000" points="81.5,-67.5 81.5,-97.5 221.5,-97.5 221.5,-67.5 81.5,-67.5"/>
<text text-anchor="start" x="89.5" y="-85.5" font-family="Helvetica,sans-Serif" font-size="10.00" fill="#000000">discrete_value_rule</text>
<text text-anchor="middle" x="151.5" y="-74.5" font-family="Helvetica,sans-Serif" font-size="10.00" fill="#000000">_state_provider_builder.h</text>
</g>
<!-- Node35 -->
<g id="node2" class="node">
<title>Node35</title>
<g id="a_node2"><a xlink:href="discrete__value__rule__state__provider__builder_8cc.html" target="_top" xlink:title="discrete_value_rule\l_state_provider_builder.cc">
<polygon fill="#ffffff" stroke="#000000" points="0,-.5 0,-30.5 145,-30.5 145,-.5 0,-.5"/>
<text text-anchor="start" x="8" y="-18.5" font-family="Helvetica,sans-Serif" font-size="10.00" fill="#000000">discrete_value_rule</text>
<text text-anchor="middle" x="72.5" y="-7.5" font-family="Helvetica,sans-Serif" font-size="10.00" fill="#000000">_state_provider_builder.cc</text>
</a>
</g>
</g>
<!-- Node34&#45;&gt;Node35 -->
<g id="edge1" class="edge">
<title>Node34&#45;&gt;Node35</title>
<path fill="none" stroke="#191970" d="M125.8908,-60.7808C114.2854,-50.9383 100.8468,-39.541 90.3554,-30.6432"/>
<polygon fill="#191970" stroke="#191970" points="123.6833,-63.4978 133.5737,-67.2967 128.211,-58.1593 123.6833,-63.4978"/>
</g>
<!-- Node36 -->
<g id="node3" class="node">
<title>Node36</title>
<g id="a_node3"><a xlink:href="road__network__builder_8cc.html" target="_top" xlink:title="road_network_builder.cc">
<polygon fill="#ffffff" stroke="#000000" points="163.5,-6 163.5,-25 299.5,-25 299.5,-6 163.5,-6"/>
<text text-anchor="middle" x="231.5" y="-13" font-family="Helvetica,sans-Serif" font-size="10.00" fill="#000000">road_network_builder.cc</text>
</a>
</g>
</g>
<!-- Node34&#45;&gt;Node36 -->
<g id="edge2" class="edge">
<title>Node34&#45;&gt;Node36</title>
<path fill="none" stroke="#191970" d="M177.7202,-60.5406C192.0617,-48.5296 209.0956,-34.2637 220.0911,-25.055"/>
<polygon fill="#191970" stroke="#191970" points="175.0725,-58.1927 169.6532,-67.2967 179.567,-63.5592 175.0725,-58.1927"/>
</g>
</g>
</svg>
