<?xml version="1.0" encoding="UTF-8" standalone="no"?>
<!DOCTYPE svg PUBLIC "-//W3C//DTD SVG 1.1//EN"
 "http://www.w3.org/Graphics/SVG/1.1/DTD/svg11.dtd">
<!-- Generated by graphviz version 2.43.0 (0)
 -->
<!-- Title: conversions.cc Pages: 1 -->
<!--zoomable 229 -->
<svg id="main" version="1.1" xmlns="http://www.w3.org/2000/svg" xmlns:xlink="http://www.w3.org/1999/xlink" xml:space="preserve" onload="init(evt)">
<style type="text/css"><![CDATA[
.edge:hover path { stroke: red; }
.edge:hover polygon { stroke: red; fill: red; }
]]></style>
<script type="text/javascript"><![CDATA[
var edges = document.getElementsByTagName('g');
if (edges && edges.length) {
  for (var i=0;i<edges.length;i++) {
    if (edges[i].id.substr(0,4)=='edge') {
      edges[i].setAttribute('class','edge');
    }
  }
}
]]></script>
        <defs>
                <circle id="rim" cx="0" cy="0" r="7"/>
                <circle id="rim2" cx="0" cy="0" r="3.5"/>
                <g id="zoomPlus">
                        <use xlink:href="#rim" fill="#404040">
                                <set attributeName="fill" to="#808080" begin="zoomplus.mouseover" end="zoomplus.mouseout"/>
                        </use>
                        <path d="M-4,0h8M0,-4v8" fill="none" stroke="white" stroke-width="1.5" pointer-events="none"/>
                </g>
                <g id="zoomMin">
                        <use xlink:href="#rim" fill="#404040">
                                <set attributeName="fill" to="#808080" begin="zoomminus.mouseover" end="zoomminus.mouseout"/>
                        </use>
                        <path d="M-4,0h8" fill="none" stroke="white" stroke-width="1.5" pointer-events="none"/>
                </g>
                <g id="dirArrow">
                        <path fill="none" stroke="white" stroke-width="1.5" d="M0,-3.0v7 M-2.5,-0.5L0,-3.0L2.5,-0.5"/>
                </g>
               <g id="resetDef">
                       <use xlink:href="#rim2" fill="#404040">
                               <set attributeName="fill" to="#808080" begin="reset.mouseover" end="reset.mouseout"/>
                       </use>
               </g>
        </defs>

<script type="text/javascript">
var viewWidth = 906;
var viewHeight = 229;
var sectionId = 'dynsection-0';
</script>
<script xlink:href="svgpan.js"/>
<svg id="graph" class="graph">
<g id="viewport">
<title>conversions.cc</title>
<polygon fill="white" stroke="transparent" points="-4,4 -4,-225 901.98,-225 901.98,4 -4,4"/>
<!-- Node1 -->
<g id="node1" class="node">
<title>Node1</title>
<g id="a_node1"><a xlink:title=" ">
<polygon fill="#bfbfbf" stroke="black" points="535.48,-201.5 535.48,-220.5 624.48,-220.5 624.48,-201.5 535.48,-201.5"/>
<text text-anchor="middle" x="579.98" y="-208.5" font-family="Helvetica,sans-Serif" font-size="10.00">conversions.cc</text>
</a>
</g>
</g>
<!-- Node2 -->
<g id="node2" class="node">
<title>Node2</title>
<g id="a_node2"><a xlink:href="conversions_8h.html" target="_top" xlink:title=" ">
<polygon fill="white" stroke="black" points="187.48,-140 187.48,-159 362.48,-159 362.48,-140 187.48,-140"/>
<text text-anchor="middle" x="274.98" y="-147" font-family="Helvetica,sans-Serif" font-size="10.00">maliput_osm/osm/conversions.h</text>
</a>
</g>
</g>
<!-- Node1&#45;&gt;Node2 -->
<g id="edge1" class="edge">
<title>Node1&#45;&gt;Node2</title>
<path fill="none" stroke="midnightblue" d="M536.28,-201.48C481.48,-190.78 387.54,-172.46 328.49,-160.94"/>
<polygon fill="midnightblue" stroke="midnightblue" points="329.09,-157.49 318.6,-159.01 327.75,-164.36 329.09,-157.49"/>
</g>
<!-- Node7 -->
<g id="node7" class="node">
<title>Node7</title>
<g id="a_node7"><a xlink:title=" ">
<polygon fill="white" stroke="#bfbfbf" points="21.98,-6 21.98,-25 77.98,-25 77.98,-6 21.98,-6"/>
<text text-anchor="middle" x="49.98" y="-13" font-family="Helvetica,sans-Serif" font-size="10.00">optional</text>
</a>
</g>
</g>
<!-- Node1&#45;&gt;Node7 -->
<g id="edge12" class="edge">
<title>Node1&#45;&gt;Node7</title>
<path fill="none" stroke="midnightblue" d="M535.31,-208.75C460.41,-205.82 305.19,-196.19 177.98,-165 97.9,-145.36 51.58,-166.02 4.98,-98 -9.99,-76.15 12.66,-48.87 30.89,-32.07"/>
<polygon fill="midnightblue" stroke="midnightblue" points="33.58,-34.37 38.8,-25.15 28.97,-29.1 33.58,-34.37"/>
</g>
<!-- Node8 -->
<g id="node8" class="node">
<title>Node8</title>
<g id="a_node8"><a xlink:title=" ">
<polygon fill="white" stroke="#bfbfbf" points="396.98,-6 396.98,-25 440.98,-25 440.98,-6 396.98,-6"/>
<text text-anchor="middle" x="418.98" y="-13" font-family="Helvetica,sans-Serif" font-size="10.00">string</text>
</a>
</g>
</g>
<!-- Node1&#45;&gt;Node8 -->
<g id="edge13" class="edge">
<title>Node1&#45;&gt;Node8</title>
<path fill="none" stroke="midnightblue" d="M577.46,-201.41C569.2,-173.8 542.46,-87.94 522.98,-67 503.58,-46.13 473.71,-32.87 450.95,-25.21"/>
<polygon fill="midnightblue" stroke="midnightblue" points="451.96,-21.86 441.37,-22.17 449.84,-28.53 451.96,-21.86"/>
</g>
<!-- Node9 -->
<g id="node9" class="node">
<title>Node9</title>
<g id="a_node9"><a xlink:title=" ">
<polygon fill="white" stroke="#bfbfbf" points="510.98,-6 510.98,-25 596.98,-25 596.98,-6 510.98,-6"/>
<text text-anchor="middle" x="553.98" y="-13" font-family="Helvetica,sans-Serif" font-size="10.00">unordered_set</text>
</a>
</g>
</g>
<!-- Node1&#45;&gt;Node9 -->
<g id="edge14" class="edge">
<title>Node1&#45;&gt;Node9</title>
<path fill="none" stroke="midnightblue" d="M578.83,-201.44C574.92,-172.29 562.04,-76.47 556.53,-35.43"/>
<polygon fill="midnightblue" stroke="midnightblue" points="559.98,-34.85 555.18,-25.41 553.04,-35.78 559.98,-34.85"/>
</g>
<!-- Node10 -->
<g id="node10" class="node">
<title>Node10</title>
<g id="a_node10"><a xlink:title=" ">
<polygon fill="white" stroke="#bfbfbf" points="607.98,-140 607.98,-159 671.98,-159 671.98,-140 607.98,-140"/>
<text text-anchor="middle" x="639.98" y="-147" font-family="Helvetica,sans-Serif" font-size="10.00">algorithm</text>
</a>
</g>
</g>
<!-- Node1&#45;&gt;Node10 -->
<g id="edge10" class="edge">
<title>Node1&#45;&gt;Node10</title>
<path fill="none" stroke="midnightblue" d="M588.58,-201.48C597.85,-192.28 612.8,-177.46 624.2,-166.16"/>
<polygon fill="midnightblue" stroke="midnightblue" points="626.77,-168.54 631.4,-159.01 621.84,-163.57 626.77,-168.54"/>
</g>
<!-- Node11 -->
<g id="node11" class="node">
<title>Node11</title>
<g id="a_node11"><a xlink:title=" ">
<polygon fill="white" stroke="#bfbfbf" points="690.48,-140 690.48,-159 737.48,-159 737.48,-140 690.48,-140"/>
<text text-anchor="middle" x="713.98" y="-147" font-family="Helvetica,sans-Serif" font-size="10.00">cmath</text>
</a>
</g>
</g>
<!-- Node1&#45;&gt;Node11 -->
<g id="edge11" class="edge">
<title>Node1&#45;&gt;Node11</title>
<path fill="none" stroke="midnightblue" d="M599.18,-201.48C621.77,-191.45 659.48,-174.7 685.48,-163.15"/>
<polygon fill="midnightblue" stroke="midnightblue" points="687.1,-166.27 694.82,-159.01 684.26,-159.87 687.1,-166.27"/>
</g>
<!-- Node12 -->
<g id="node12" class="node">
<title>Node12</title>
<g id="a_node12"><a xlink:title=" ">
<polygon fill="white" stroke="#bfbfbf" points="755.98,-134.5 755.98,-164.5 897.98,-164.5 897.98,-134.5 755.98,-134.5"/>
<text text-anchor="start" x="763.98" y="-152.5" font-family="Helvetica,sans-Serif" font-size="10.00">maliput_sparse/geometry</text>
<text text-anchor="middle" x="826.98" y="-141.5" font-family="Helvetica,sans-Serif" font-size="10.00">/utility/geometry.h</text>
</a>
</g>
</g>
<!-- Node1&#45;&gt;Node12 -->
<g id="edge15" class="edge">
<title>Node1&#45;&gt;Node12</title>
<path fill="none" stroke="midnightblue" d="M615.37,-201.48C652.66,-192.49 712.29,-178.13 758.77,-166.93"/>
<polygon fill="midnightblue" stroke="midnightblue" points="759.87,-170.27 768.77,-164.52 758.23,-163.46 759.87,-170.27"/>
</g>
<!-- Node3 -->
<g id="node3" class="node">
<title>Node3</title>
<g id="a_node3"><a xlink:title=" ">
<polygon fill="white" stroke="#bfbfbf" points="361.98,-73 361.98,-92 513.98,-92 513.98,-73 361.98,-73"/>
<text text-anchor="middle" x="437.98" y="-80" font-family="Helvetica,sans-Serif" font-size="10.00">lanelet2_core/LaneletMap.h</text>
</a>
</g>
</g>
<!-- Node2&#45;&gt;Node3 -->
<g id="edge2" class="edge">
<title>Node2&#45;&gt;Node3</title>
<path fill="none" stroke="midnightblue" d="M296.63,-139.87C324.96,-128.57 374.8,-108.7 407.09,-95.82"/>
<polygon fill="midnightblue" stroke="midnightblue" points="408.52,-99.02 416.51,-92.06 405.92,-92.52 408.52,-99.02"/>
</g>
<!-- Node4 -->
<g id="node4" class="node">
<title>Node4</title>
<g id="a_node4"><a xlink:title=" ">
<polygon fill="white" stroke="#bfbfbf" points="14.48,-67.5 14.48,-97.5 149.48,-97.5 149.48,-67.5 14.48,-67.5"/>
<text text-anchor="start" x="22.48" y="-85.5" font-family="Helvetica,sans-Serif" font-size="10.00">lanelet2_core/primitives</text>
<text text-anchor="middle" x="81.98" y="-74.5" font-family="Helvetica,sans-Serif" font-size="10.00">/Lanelet.h</text>
</a>
</g>
</g>
<!-- Node2&#45;&gt;Node4 -->
<g id="edge3" class="edge">
<title>Node2&#45;&gt;Node4</title>
<path fill="none" stroke="midnightblue" d="M249.35,-139.87C219.89,-129.95 170.79,-113.41 133.37,-100.81"/>
<polygon fill="midnightblue" stroke="midnightblue" points="134.23,-97.4 123.64,-97.53 132,-104.04 134.23,-97.4"/>
</g>
<!-- Node5 -->
<g id="node5" class="node">
<title>Node5</title>
<g id="a_node5"><a xlink:title=" ">
<polygon fill="white" stroke="#bfbfbf" points="132.98,-0.5 132.98,-30.5 274.98,-30.5 274.98,-0.5 132.98,-0.5"/>
<text text-anchor="start" x="140.98" y="-18.5" font-family="Helvetica,sans-Serif" font-size="10.00">maliput_sparse/geometry</text>
<text text-anchor="middle" x="203.98" y="-7.5" font-family="Helvetica,sans-Serif" font-size="10.00">/line_string.h</text>
</a>
</g>
</g>
<!-- Node2&#45;&gt;Node5 -->
<g id="edge4" class="edge">
<title>Node2&#45;&gt;Node5</title>
<path fill="none" stroke="midnightblue" d="M250.01,-139.84C231.7,-132.02 208.16,-118.55 196.98,-98 187.43,-80.44 190.5,-57.54 195.2,-40.49"/>
<polygon fill="midnightblue" stroke="midnightblue" points="198.61,-41.32 198.24,-30.73 191.93,-39.24 198.61,-41.32"/>
</g>
<!-- Node6 -->
<g id="node6" class="node">
<title>Node6</title>
<g id="a_node6"><a xlink:href="lane_8h.html" target="_top" xlink:title=" ">
<polygon fill="white" stroke="black" points="206.48,-73 206.48,-92 343.48,-92 343.48,-73 206.48,-73"/>
<text text-anchor="middle" x="274.98" y="-80" font-family="Helvetica,sans-Serif" font-size="10.00">maliput_osm/osm/lane.h</text>
</a>
</g>
</g>
<!-- Node2&#45;&gt;Node6 -->
<g id="edge5" class="edge">
<title>Node2&#45;&gt;Node6</title>
<path fill="none" stroke="midnightblue" d="M274.98,-139.73C274.98,-130.18 274.98,-114.62 274.98,-102.28"/>
<polygon fill="midnightblue" stroke="midnightblue" points="278.48,-102.13 274.98,-92.13 271.48,-102.13 278.48,-102.13"/>
</g>
<!-- Node6&#45;&gt;Node5 -->
<g id="edge9" class="edge">
<title>Node6&#45;&gt;Node5</title>
<path fill="none" stroke="midnightblue" d="M265.41,-72.73C255.63,-63.78 240.08,-49.54 227.07,-37.63"/>
<polygon fill="midnightblue" stroke="midnightblue" points="229.11,-34.76 219.37,-30.59 224.39,-39.92 229.11,-34.76"/>
</g>
<!-- Node6&#45;&gt;Node7 -->
<g id="edge6" class="edge">
<title>Node6&#45;&gt;Node7</title>
<path fill="none" stroke="midnightblue" d="M245.11,-72.87C204.63,-61.17 132.34,-40.29 88.03,-27.49"/>
<polygon fill="midnightblue" stroke="midnightblue" points="88.79,-24.07 78.21,-24.65 86.85,-30.79 88.79,-24.07"/>
</g>
<!-- Node6&#45;&gt;Node8 -->
<g id="edge7" class="edge">
<title>Node6&#45;&gt;Node8</title>
<path fill="none" stroke="midnightblue" d="M294.11,-72.87C318.74,-61.75 361.79,-42.32 390.34,-29.43"/>
<polygon fill="midnightblue" stroke="midnightblue" points="392.11,-32.47 399.78,-25.17 389.23,-26.09 392.11,-32.47"/>
</g>
<!-- Node6&#45;&gt;Node9 -->
<g id="edge8" class="edge">
<title>Node6&#45;&gt;Node9</title>
<path fill="none" stroke="midnightblue" d="M311.75,-72.94C362.03,-61.22 452.29,-40.19 507.3,-27.38"/>
<polygon fill="midnightblue" stroke="midnightblue" points="508.2,-30.76 517.14,-25.08 506.61,-23.94 508.2,-30.76"/>
</g>
</g>
</svg>
        <g id="navigator" transform="translate(0 0)" fill="#404254">
                <rect fill="#f2f5e9" fill-opacity="0.5" stroke="#606060" stroke-width=".5" x="0" y="0" width="60" height="60"/>
                <use id="zoomplus" xlink:href="#zoomPlus" x="17" y="9" onmousedown="handleZoom(evt,'in')"/>
                <use id="zoomminus" xlink:href="#zoomMin" x="42" y="9" onmousedown="handleZoom(evt,'out')"/>
                <use id="reset" xlink:href="#resetDef" x="30" y="36" onmousedown="handleReset()"/>
                <g id="arrowUp" xlink:href="#dirArrow" transform="translate(30 24)" onmousedown="handlePan(0,-1)">
                  <use xlink:href="#rim" fill="#404040">
                        <set attributeName="fill" to="#808080" begin="arrowUp.mouseover" end="arrowUp.mouseout"/>
                  </use>
                  <path fill="none" stroke="white" stroke-width="1.5" d="M0,-3.0v7 M-2.5,-0.5L0,-3.0L2.5,-0.5"/>
                </g>
                <g id="arrowRight" xlink:href="#dirArrow" transform="rotate(90) translate(36 -43)" onmousedown="handlePan(1,0)">
                  <use xlink:href="#rim" fill="#404040">
                        <set attributeName="fill" to="#808080" begin="arrowRight.mouseover" end="arrowRight.mouseout"/>
                  </use>
                  <path fill="none" stroke="white" stroke-width="1.5" d="M0,-3.0v7 M-2.5,-0.5L0,-3.0L2.5,-0.5"/>
                </g>
                <g id="arrowDown" xlink:href="#dirArrow" transform="rotate(180) translate(-30 -48)" onmousedown="handlePan(0,1)">
                  <use xlink:href="#rim" fill="#404040">
                        <set attributeName="fill" to="#808080" begin="arrowDown.mouseover" end="arrowDown.mouseout"/>
                  </use>
                  <path fill="none" stroke="white" stroke-width="1.5" d="M0,-3.0v7 M-2.5,-0.5L0,-3.0L2.5,-0.5"/>
                </g>
                <g id="arrowLeft" xlink:href="#dirArrow" transform="rotate(270) translate(-36 17)" onmousedown="handlePan(-1,0)">
                  <use xlink:href="#rim" fill="#404040">
                        <set attributeName="fill" to="#808080" begin="arrowLeft.mouseover" end="arrowLeft.mouseout"/>
                  </use>
                  <path fill="none" stroke="white" stroke-width="1.5" d="M0,-3.0v7 M-2.5,-0.5L0,-3.0L2.5,-0.5"/>
                </g>
        </g>
        <svg viewBox="0 0 15 15" width="100%" height="30px" preserveAspectRatio="xMaxYMin meet">
         <g id="arrow_out" transform="scale(0.3 0.3)">
          <a xlink:href="conversions_8cc__incl_org.svg" target="_base">
           <rect id="button" ry="5" rx="5" y="6" x="6" height="38" width="38"
                fill="#f2f5e9" fill-opacity="0.5" stroke="#606060" stroke-width="1.0"/>
           <path id="arrow"
             d="M 11.500037,31.436501 C 11.940474,20.09759 22.043105,11.32322 32.158766,21.979434 L 37.068811,17.246167 C 37.068811,17.246167 37.088388,32 37.088388,32 L 22.160133,31.978069 C 22.160133,31.978069 26.997745,27.140456 26.997745,27.140456 C 18.528582,18.264221 13.291696,25.230495 11.500037,31.436501 z"
             style="fill:#404040;"/>
          </a>
         </g>
        </svg>
</svg>
