<?xml version="1.0" encoding="UTF-8" standalone="no"?>
<!DOCTYPE svg PUBLIC "-//W3C//DTD SVG 1.1//EN"
 "http://www.w3.org/Graphics/SVG/1.1/DTD/svg11.dtd">
<!-- Generated by graphviz version 2.43.0 (0)
 -->
<!-- Title: math_py.cc Pages: 1 -->
<svg width="659pt" height="95pt"
 viewBox="0.00 0.00 658.50 95.00" xmlns="http://www.w3.org/2000/svg" xmlns:xlink="http://www.w3.org/1999/xlink">
<g id="graph0" class="graph" transform="scale(1 1) rotate(0) translate(4 91)">
<title>math_py.cc</title>
<polygon fill="white" stroke="transparent" points="-4,4 -4,-91 654.5,-91 654.5,4 -4,4"/>
<!-- Node1 -->
<g id="node1" class="node">
<title>Node1</title>
<g id="a_node1"><a xlink:title=" ">
<polygon fill="#bfbfbf" stroke="black" points="269.5,-67.5 269.5,-86.5 340.5,-86.5 340.5,-67.5 269.5,-67.5"/>
<text text-anchor="middle" x="305" y="-74.5" font-family="Helvetica,sans-Serif" font-size="10.00">math_py.cc</text>
</a>
</g>
</g>
<!-- Node2 -->
<g id="node2" class="node">
<title>Node2</title>
<g id="a_node2"><a xlink:title=" ">
<polygon fill="white" stroke="#bfbfbf" points="0,-6 0,-25 56,-25 56,-6 0,-6"/>
<text text-anchor="middle" x="28" y="-13" font-family="Helvetica,sans-Serif" font-size="10.00">sstream</text>
</a>
</g>
</g>
<!-- Node1&#45;&gt;Node2 -->
<g id="edge1" class="edge">
<title>Node1&#45;&gt;Node2</title>
<path fill="none" stroke="midnightblue" d="M269.13,-71.42C221.79,-64.9 136.11,-51.4 65,-31 62.42,-30.26 59.76,-29.41 57.12,-28.5"/>
<polygon fill="midnightblue" stroke="midnightblue" points="58.33,-25.21 47.73,-25.03 55.9,-31.78 58.33,-25.21"/>
</g>
<!-- Node3 -->
<g id="node3" class="node">
<title>Node3</title>
<g id="a_node3"><a xlink:href="../../maliput/html/quaternion_8h.html.html" xlink:title=" ">
<polygon fill="white" stroke="black" points="74.5,-6 74.5,-25 221.5,-25 221.5,-6 74.5,-6"/>
<text text-anchor="middle" x="148" y="-13" font-family="Helvetica,sans-Serif" font-size="10.00">maliput/math/quaternion.h</text>
</a>
</g>
</g>
<!-- Node1&#45;&gt;Node3 -->
<g id="edge2" class="edge">
<title>Node1&#45;&gt;Node3</title>
<path fill="none" stroke="midnightblue" d="M282.51,-67.48C255.69,-57.31 210.68,-40.26 180.19,-28.7"/>
<polygon fill="midnightblue" stroke="midnightblue" points="181.04,-25.28 170.45,-25.01 178.56,-31.83 181.04,-25.28"/>
</g>
<!-- Node4 -->
<g id="node4" class="node">
<title>Node4</title>
<g id="a_node4"><a xlink:href="../../maliput/html/roll__pitch__yaw_8h.html.html" xlink:title=" ">
<polygon fill="white" stroke="black" points="239.5,-0.5 239.5,-30.5 370.5,-30.5 370.5,-0.5 239.5,-0.5"/>
<text text-anchor="start" x="247.5" y="-18.5" font-family="Helvetica,sans-Serif" font-size="10.00">maliput/math/roll_pitch</text>
<text text-anchor="middle" x="305" y="-7.5" font-family="Helvetica,sans-Serif" font-size="10.00">_yaw.h</text>
</a>
</g>
</g>
<!-- Node1&#45;&gt;Node4 -->
<g id="edge3" class="edge">
<title>Node1&#45;&gt;Node4</title>
<path fill="none" stroke="midnightblue" d="M305,-67.48C305,-60.47 305,-50.19 305,-40.7"/>
<polygon fill="midnightblue" stroke="midnightblue" points="308.5,-40.52 305,-30.52 301.5,-40.52 308.5,-40.52"/>
</g>
<!-- Node5 -->
<g id="node5" class="node">
<title>Node5</title>
<g id="a_node5"><a xlink:href="../../maliput/html/vector_8h.html.html" xlink:title=" ">
<polygon fill="white" stroke="black" points="388.5,-6 388.5,-25 513.5,-25 513.5,-6 388.5,-6"/>
<text text-anchor="middle" x="451" y="-13" font-family="Helvetica,sans-Serif" font-size="10.00">maliput/math/vector.h</text>
</a>
</g>
</g>
<!-- Node1&#45;&gt;Node5 -->
<g id="edge4" class="edge">
<title>Node1&#45;&gt;Node5</title>
<path fill="none" stroke="midnightblue" d="M325.92,-67.48C350.75,-57.36 392.34,-40.4 420.69,-28.85"/>
<polygon fill="midnightblue" stroke="midnightblue" points="422.18,-32.02 430.12,-25.01 419.54,-25.54 422.18,-32.02"/>
</g>
<!-- Node6 -->
<g id="node6" class="node">
<title>Node6</title>
<g id="a_node6"><a xlink:title=" ">
<polygon fill="white" stroke="#bfbfbf" points="531.5,-6 531.5,-25 650.5,-25 650.5,-6 531.5,-6"/>
<text text-anchor="middle" x="591" y="-13" font-family="Helvetica,sans-Serif" font-size="10.00">pybind11/pybind11.h</text>
</a>
</g>
</g>
<!-- Node1&#45;&gt;Node6 -->
<g id="edge5" class="edge">
<title>Node1&#45;&gt;Node6</title>
<path fill="none" stroke="midnightblue" d="M340.51,-68.74C383.67,-59.91 458.7,-44.49 523,-31 528.83,-29.78 534.93,-28.49 541,-27.2"/>
<polygon fill="midnightblue" stroke="midnightblue" points="542.04,-30.56 551.1,-25.05 540.59,-23.71 542.04,-30.56"/>
</g>
</g>
</svg>
