<?xml version="1.0" encoding="UTF-8" standalone="no"?>
<!DOCTYPE svg PUBLIC "-//W3C//DTD SVG 1.1//EN"
 "http://www.w3.org/Graphics/SVG/1.1/DTD/svg11.dtd">
<!-- Generated by graphviz version 2.40.1 (20161225.0304)
 -->
<!-- Title: RoadGeometry Pages: 1 -->
<svg width="147pt" height="85pt"
 viewBox="0.00 0.00 147.00 84.81" xmlns="http://www.w3.org/2000/svg" xmlns:xlink="http://www.w3.org/1999/xlink">
<g id="graph0" class="graph" transform="scale(1 1) rotate(0) translate(4 80.812)">
<title>RoadGeometry</title>
<polygon fill="#ffffff" stroke="transparent" points="-4,4 -4,-80.812 143,-80.812 143,4 -4,4"/>
<!-- Node0 -->
<g id="node1" class="node">
<title>Node0</title>
<polygon fill="#bfbfbf" stroke="#000000" points="13,-56.5 13,-75.5 103,-75.5 103,-56.5 13,-56.5"/>
<text text-anchor="middle" x="58" y="-63.5" font-family="Helvetica,sans-Serif" font-size="10.00" fill="#000000">RoadGeometry</text>
</g>
<!-- Node0&#45;&gt;Node0 -->
<g id="edge1" class="edge">
<title>Node0&#45;&gt;Node0</title>
<path fill="none" stroke="#191970" d="M113.2644,-70.1012C118.0257,-69.2299 121,-67.8628 121,-66 121,-63.0195 113.3858,-61.3081 103.0205,-60.8657"/>
<polygon fill="#191970" stroke="#191970" points="112.6188,-66.6485 103.0205,-71.1343 113.3212,-73.6132 112.6188,-66.6485"/>
</g>
<!-- Node0&#45;&gt;Node0 -->
<g id="edge3" class="edge">
<title>Node0&#45;&gt;Node0</title>
<path fill="none" stroke="#191970" d="M102.6258,-76.3584C122.1827,-77.2656 139,-73.8128 139,-66 139,-56.8672 116.0202,-53.6921 92.5466,-56.4748"/>
<polygon fill="#191970" stroke="#191970" points="102.801,-72.8611 92.5466,-75.5252 102.2243,-79.8373 102.801,-72.8611"/>
</g>
<!-- Node1 -->
<g id="node2" class="node">
<title>Node1</title>
<g id="a_node2"><a xlink:href="classmaliput_1_1api_1_1test_1_1_mock_road_geometry.html" target="_top" xlink:title="MockRoadGeometry">
<polygon fill="#ffffff" stroke="#000000" points="0,-.5 0,-19.5 116,-19.5 116,-.5 0,-.5"/>
<text text-anchor="middle" x="58" y="-7.5" font-family="Helvetica,sans-Serif" font-size="10.00" fill="#000000">MockRoadGeometry</text>
</a>
</g>
</g>
<!-- Node0&#45;&gt;Node1 -->
<g id="edge2" class="edge">
<title>Node0&#45;&gt;Node1</title>
<path fill="none" stroke="#191970" d="M58,-46.1575C58,-37.155 58,-26.9199 58,-19.6427"/>
<polygon fill="#191970" stroke="#191970" points="54.5001,-46.2455 58,-56.2455 61.5001,-46.2456 54.5001,-46.2455"/>
</g>
</g>
</svg>
