<?xml version="1.0" encoding="UTF-8" standalone="no"?>
<!DOCTYPE svg PUBLIC "-//W3C//DTD SVG 1.1//EN"
 "http://www.w3.org/Graphics/SVG/1.1/DTD/svg11.dtd">
<!-- Generated by graphviz version 2.40.1 (20161225.0304)
 -->
<!-- Title: RoadRulebook Pages: 1 -->
<svg width="220pt" height="84pt"
 viewBox="0.00 0.00 220.00 84.00" xmlns="http://www.w3.org/2000/svg" xmlns:xlink="http://www.w3.org/1999/xlink">
<g id="graph0" class="graph" transform="scale(1 1) rotate(0) translate(4 80)">
<title>RoadRulebook</title>
<polygon fill="#ffffff" stroke="transparent" points="-4,4 -4,-80 216,-80 216,4 -4,4"/>
<!-- Node0 -->
<g id="node1" class="node">
<title>Node0</title>
<polygon fill="#bfbfbf" stroke="#000000" points="62.5,-56.5 62.5,-75.5 149.5,-75.5 149.5,-56.5 62.5,-56.5"/>
<text text-anchor="middle" x="106" y="-63.5" font-family="Helvetica,sans-Serif" font-size="10.00" fill="#000000">RoadRulebook</text>
</g>
<!-- Node1 -->
<g id="node2" class="node">
<title>Node1</title>
<g id="a_node2"><a xlink:href="classmaliput_1_1_manual_rulebook.html" target="_top" xlink:title="ManualRulebook is a simple concrete implementation of the api::rules::RoadRulebook abstract interface...">
<polygon fill="#ffffff" stroke="#000000" points="0,-.5 0,-19.5 98,-19.5 98,-.5 0,-.5"/>
<text text-anchor="middle" x="49" y="-7.5" font-family="Helvetica,sans-Serif" font-size="10.00" fill="#000000">ManualRulebook</text>
</a>
</g>
</g>
<!-- Node0&#45;&gt;Node1 -->
<g id="edge1" class="edge">
<title>Node0&#45;&gt;Node1</title>
<path fill="none" stroke="#191970" d="M88.7729,-49.0751C78.9659,-39.4402 67.036,-27.7196 58.8149,-19.6427"/>
<polygon fill="#191970" stroke="#191970" points="86.4851,-51.734 96.0714,-56.2455 91.3909,-46.7406 86.4851,-51.734"/>
</g>
<!-- Node2 -->
<g id="node3" class="node">
<title>Node2</title>
<g id="a_node3"><a xlink:href="classmaliput_1_1_simple_rulebook.html" target="_top" xlink:title="SimpleRulebook is a simple concrete implementation of the api::rules::RoadRulebook abstract interface...">
<polygon fill="#ffffff" stroke="#000000" points="116,-.5 116,-19.5 212,-19.5 212,-.5 116,-.5"/>
<text text-anchor="middle" x="164" y="-7.5" font-family="Helvetica,sans-Serif" font-size="10.00" fill="#000000">SimpleRulebook</text>
</a>
</g>
</g>
<!-- Node0&#45;&gt;Node2 -->
<g id="edge2" class="edge">
<title>Node0&#45;&gt;Node2</title>
<path fill="none" stroke="#191970" d="M123.5293,-49.0751C133.5083,-39.4402 145.6476,-27.7196 154.0129,-19.6427"/>
<polygon fill="#191970" stroke="#191970" points="120.8658,-46.7817 116.1028,-56.2455 125.728,-51.8175 120.8658,-46.7817"/>
</g>
</g>
</svg>
