<?xml version="1.0" encoding="UTF-8" standalone="no"?>
<!DOCTYPE svg PUBLIC "-//W3C//DTD SVG 1.1//EN"
 "http://www.w3.org/Graphics/SVG/1.1/DTD/svg11.dtd">
<!-- Generated by graphviz version 2.40.1 (20161225.0304)
 -->
<!-- Title: discrete_value_rule_state_provider.h Pages: 1 -->
<!--zoomable 318 -->
<svg id="main" version="1.1" xmlns="http://www.w3.org/2000/svg" xmlns:xlink="http://www.w3.org/1999/xlink" xml:space="preserve" onload="init(evt)">
<style type="text/css"><![CDATA[
.edge:hover path { stroke: red; }
.edge:hover polygon { stroke: red; fill: red; }
]]></style>
<script type="text/javascript"><![CDATA[
var edges = document.getElementsByTagName('g');
if (edges && edges.length) {
  for (var i=0;i<edges.length;i++) {
    if (edges[i].id.substr(0,4)=='edge') {
      edges[i].setAttribute('class','edge');
    }
  }
}
]]></script>
        <defs>
                <circle id="rim" cx="0" cy="0" r="7"/>
                <circle id="rim2" cx="0" cy="0" r="3.5"/>
                <g id="zoomPlus">
                        <use xlink:href="#rim" fill="#404040">
                                <set attributeName="fill" to="#808080" begin="zoomplus.mouseover" end="zoomplus.mouseout"/>
                        </use>
                        <path d="M-4,0h8M0,-4v8" fill="none" stroke="white" stroke-width="1.5" pointer-events="none"/>
                </g>
                <g id="zoomMin">
                        <use xlink:href="#rim" fill="#404040">
                                <set attributeName="fill" to="#808080" begin="zoomminus.mouseover" end="zoomminus.mouseout"/>
                        </use>
                        <path d="M-4,0h8" fill="none" stroke="white" stroke-width="1.5" pointer-events="none"/>
                </g>
                <g id="dirArrow">
                        <path fill="none" stroke="white" stroke-width="1.5" d="M0,-3.0v7 M-2.5,-0.5L0,-3.0L2.5,-0.5"/>
                </g>
               <g id="resetDef">
                       <use xlink:href="#rim2" fill="#404040">
                               <set attributeName="fill" to="#808080" begin="reset.mouseover" end="reset.mouseout"/>
                       </use>
               </g>
        </defs>

<script type="text/javascript">
var viewWidth = 1002;
var viewHeight = 318;
var sectionId = 'dynsection-1';
</script>
<script xlink:href="svgpan.js"/>
<svg id="graph" class="graph">
<g id="viewport">
<title>discrete_value_rule_state_provider.h</title>
<polygon fill="#ffffff" stroke="transparent" points="-4,4 -4,-314 997.5,-314 997.5,4 -4,4"/>
<!-- Node33 -->
<g id="node1" class="node">
<title>Node33</title>
<polygon fill="#bfbfbf" stroke="#000000" points="675,-279.5 675,-309.5 787,-309.5 787,-279.5 675,-279.5"/>
<text text-anchor="start" x="683" y="-297.5" font-family="Helvetica,sans-Serif" font-size="10.00" fill="#000000">discrete_value_rule</text>
<text text-anchor="middle" x="731" y="-286.5" font-family="Helvetica,sans-Serif" font-size="10.00" fill="#000000">_state_provider.h</text>
</g>
<!-- Node34 -->
<g id="node2" class="node">
<title>Node34</title>
<g id="a_node2"><a xlink:href="road__network_8h.html" target="_top" xlink:title="road_network.h">
<polygon fill="#ffffff" stroke="#000000" points="307,-218 307,-237 399,-237 399,-218 307,-218"/>
<text text-anchor="middle" x="353" y="-225" font-family="Helvetica,sans-Serif" font-size="10.00" fill="#000000">road_network.h</text>
</a>
</g>
</g>
<!-- Node33&#45;&gt;Node34 -->
<g id="edge1" class="edge">
<title>Node33&#45;&gt;Node34</title>
<path fill="none" stroke="#191970" d="M664.8516,-282.7753C588.6817,-269.2743 465.5373,-247.4471 399.0729,-235.6664"/>
<polygon fill="#191970" stroke="#191970" points="664.3603,-286.2427 674.8177,-284.5418 665.5821,-279.3501 664.3603,-286.2427"/>
</g>
<!-- Node43 -->
<g id="node11" class="node">
<title>Node43</title>
<g id="a_node11"><a xlink:href="manual__discrete__value__rule__state__provider_8h.html" target="_top" xlink:title="manual_discrete_value\l_rule_state_provider.h">
<polygon fill="#ffffff" stroke="#000000" points="666,-212.5 666,-242.5 796,-242.5 796,-212.5 666,-212.5"/>
<text text-anchor="start" x="674" y="-230.5" font-family="Helvetica,sans-Serif" font-size="10.00" fill="#000000">manual_discrete_value</text>
<text text-anchor="middle" x="731" y="-219.5" font-family="Helvetica,sans-Serif" font-size="10.00" fill="#000000">_rule_state_provider.h</text>
</a>
</g>
</g>
<!-- Node33&#45;&gt;Node43 -->
<g id="edge11" class="edge">
<title>Node33&#45;&gt;Node43</title>
<path fill="none" stroke="#191970" d="M731,-269.0249C731,-260.128 731,-250.4287 731,-242.6432"/>
<polygon fill="#191970" stroke="#191970" points="727.5001,-269.2966 731,-279.2967 734.5001,-269.2967 727.5001,-269.2966"/>
</g>
<!-- Node44 -->
<g id="node12" class="node">
<title>Node44</title>
<g id="a_node12"><a xlink:href="phase__based__right__of__way__discrete__value__rule__state__provider_8h.html" target="_top" xlink:title="phase_based_right_of\l_way_discrete_value_rule\l_state_provider.h">
<polygon fill="#ffffff" stroke="#000000" points="530.5,-134.5 530.5,-175.5 673.5,-175.5 673.5,-134.5 530.5,-134.5"/>
<text text-anchor="start" x="538.5" y="-163.5" font-family="Helvetica,sans-Serif" font-size="10.00" fill="#000000">phase_based_right_of</text>
<text text-anchor="start" x="538.5" y="-152.5" font-family="Helvetica,sans-Serif" font-size="10.00" fill="#000000">_way_discrete_value_rule</text>
<text text-anchor="middle" x="602" y="-141.5" font-family="Helvetica,sans-Serif" font-size="10.00" fill="#000000">_state_provider.h</text>
</a>
</g>
</g>
<!-- Node33&#45;&gt;Node44 -->
<g id="edge15" class="edge">
<title>Node33&#45;&gt;Node44</title>
<path fill="none" stroke="#191970" d="M695.2791,-273.8623C682.3163,-265.3342 668.135,-254.6992 657,-243 637.7476,-222.7722 621.6461,-194.7789 611.9377,-175.8389"/>
<polygon fill="#191970" stroke="#191970" points="693.6906,-277.0001 704.0061,-279.4169 697.4493,-271.0947 693.6906,-277.0001"/>
</g>
<!-- Node47 -->
<g id="node15" class="node">
<title>Node47</title>
<g id="a_node15"><a xlink:href="rule__tools_8h.html" target="_top" xlink:title="rule_tools.h">
<polygon fill="#ffffff" stroke="#000000" points="830,-218 830,-237 904,-237 904,-218 830,-218"/>
<text text-anchor="middle" x="867" y="-225" font-family="Helvetica,sans-Serif" font-size="10.00" fill="#000000">rule_tools.h</text>
</a>
</g>
</g>
<!-- Node33&#45;&gt;Node47 -->
<g id="edge16" class="edge">
<title>Node33&#45;&gt;Node47</title>
<path fill="none" stroke="#191970" d="M770.5126,-275.0343C795.7968,-262.5781 827.4952,-246.9619 847.5055,-237.1039"/>
<polygon fill="#191970" stroke="#191970" points="768.9448,-271.9049 761.5211,-279.4639 772.0383,-278.1842 768.9448,-271.9049"/>
</g>
<!-- Node49 -->
<g id="node17" class="node">
<title>Node49</title>
<g id="a_node17"><a xlink:href="mock_8h.html" target="_top" xlink:title="mock.h">
<polygon fill="#ffffff" stroke="#000000" points="932.5,-218 932.5,-237 985.5,-237 985.5,-218 932.5,-218"/>
<text text-anchor="middle" x="959" y="-225" font-family="Helvetica,sans-Serif" font-size="10.00" fill="#000000">mock.h</text>
</a>
</g>
</g>
<!-- Node33&#45;&gt;Node49 -->
<g id="edge18" class="edge">
<title>Node33&#45;&gt;Node49</title>
<path fill="none" stroke="#191970" d="M796.972,-276.675C831.6311,-267.0979 874.7439,-254.85 913,-243 919.279,-241.0551 926.0021,-238.8564 932.3158,-236.7391"/>
<polygon fill="#191970" stroke="#191970" points="795.6798,-273.4005 786.9681,-279.4301 797.5385,-280.1492 795.6798,-273.4005"/>
</g>
<!-- Node35 -->
<g id="node3" class="node">
<title>Node35</title>
<g id="a_node3"><a xlink:href="road__network__validator_8h.html" target="_top" xlink:title="road_network_validator.h">
<polygon fill="#ffffff" stroke="#000000" points="2.5,-145.5 2.5,-164.5 143.5,-164.5 143.5,-145.5 2.5,-145.5"/>
<text text-anchor="middle" x="73" y="-152.5" font-family="Helvetica,sans-Serif" font-size="10.00" fill="#000000">road_network_validator.h</text>
</a>
</g>
</g>
<!-- Node34&#45;&gt;Node35 -->
<g id="edge2" class="edge">
<title>Node34&#45;&gt;Node35</title>
<path fill="none" stroke="#191970" d="M305.8875,-215.4348C265.3486,-205.0373 205.3039,-189.5989 153,-176 138.6857,-172.2783 122.9395,-168.1519 109.2308,-164.549"/>
<polygon fill="#191970" stroke="#191970" points="305.2011,-218.872 315.7571,-217.9655 306.9398,-212.0913 305.2011,-218.872"/>
</g>
<!-- Node37 -->
<g id="node5" class="node">
<title>Node37</title>
<g id="a_node5"><a xlink:href="road__network__loader_8h.html" target="_top" xlink:title="road_network_loader.h">
<polygon fill="#ffffff" stroke="#000000" points="162,-145.5 162,-164.5 290,-164.5 290,-145.5 162,-145.5"/>
<text text-anchor="middle" x="226" y="-152.5" font-family="Helvetica,sans-Serif" font-size="10.00" fill="#000000">road_network_loader.h</text>
</a>
</g>
</g>
<!-- Node34&#45;&gt;Node37 -->
<g id="edge4" class="edge">
<title>Node34&#45;&gt;Node37</title>
<path fill="none" stroke="#191970" d="M327.1582,-212.7478C302.0043,-198.3883 264.5076,-176.9827 242.9344,-164.6673"/>
<polygon fill="#191970" stroke="#191970" points="325.7156,-215.9544 336.1354,-217.8726 329.186,-209.8752 325.7156,-215.9544"/>
</g>
<!-- Node38 -->
<g id="node6" class="node">
<title>Node38</title>
<g id="a_node6"><a xlink:href="generate__obj_8h.html" target="_top" xlink:title="generate_obj.h">
<polygon fill="#ffffff" stroke="#000000" points="308.5,-145.5 308.5,-164.5 397.5,-164.5 397.5,-145.5 308.5,-145.5"/>
<text text-anchor="middle" x="353" y="-152.5" font-family="Helvetica,sans-Serif" font-size="10.00" fill="#000000">generate_obj.h</text>
</a>
</g>
</g>
<!-- Node34&#45;&gt;Node38 -->
<g id="edge5" class="edge">
<title>Node34&#45;&gt;Node38</title>
<path fill="none" stroke="#191970" d="M353,-207.6054C353,-193.6237 353,-175.5346 353,-164.6228"/>
<polygon fill="#191970" stroke="#191970" points="349.5001,-207.7223 353,-217.7223 356.5001,-207.7224 349.5001,-207.7223"/>
</g>
<!-- Node42 -->
<g id="node10" class="node">
<title>Node42</title>
<g id="a_node10"><a xlink:href="road__network_8cc.html" target="_top" xlink:title="road_network.cc">
<polygon fill="#ffffff" stroke="#000000" points="415.5,-145.5 415.5,-164.5 512.5,-164.5 512.5,-145.5 415.5,-145.5"/>
<text text-anchor="middle" x="464" y="-152.5" font-family="Helvetica,sans-Serif" font-size="10.00" fill="#000000">road_network.cc</text>
</a>
</g>
</g>
<!-- Node34&#45;&gt;Node42 -->
<g id="edge10" class="edge">
<title>Node34&#45;&gt;Node42</title>
<path fill="none" stroke="#191970" d="M376.4173,-212.2049C398.4166,-197.836 430.6585,-176.7771 449.2672,-164.6228"/>
<polygon fill="#191970" stroke="#191970" points="374.4284,-209.3235 367.97,-217.7223 378.2563,-215.1842 374.4284,-209.3235"/>
</g>
<!-- Node36 -->
<g id="node4" class="node">
<title>Node36</title>
<g id="a_node4"><a xlink:href="road__network__validator_8cc.html" target="_top" xlink:title="road_network_validator.cc">
<polygon fill="#ffffff" stroke="#000000" points="0,-67.5 0,-86.5 146,-86.5 146,-67.5 0,-67.5"/>
<text text-anchor="middle" x="73" y="-74.5" font-family="Helvetica,sans-Serif" font-size="10.00" fill="#000000">road_network_validator.cc</text>
</a>
</g>
</g>
<!-- Node35&#45;&gt;Node36 -->
<g id="edge3" class="edge">
<title>Node35&#45;&gt;Node36</title>
<path fill="none" stroke="#191970" d="M73,-135.2866C73,-119.7395 73,-98.7276 73,-86.6426"/>
<polygon fill="#191970" stroke="#191970" points="69.5001,-135.4356 73,-145.4357 76.5001,-135.4357 69.5001,-135.4356"/>
</g>
<!-- Node39 -->
<g id="node7" class="node">
<title>Node39</title>
<g id="a_node7"><a xlink:href="generate__urdf_8h.html" target="_top" xlink:title="generate_urdf.h">
<polygon fill="#ffffff" stroke="#000000" points="231,-67.5 231,-86.5 325,-86.5 325,-67.5 231,-67.5"/>
<text text-anchor="middle" x="278" y="-74.5" font-family="Helvetica,sans-Serif" font-size="10.00" fill="#000000">generate_urdf.h</text>
</a>
</g>
</g>
<!-- Node38&#45;&gt;Node39 -->
<g id="edge6" class="edge">
<title>Node38&#45;&gt;Node39</title>
<path fill="none" stroke="#191970" d="M336.601,-137.9451C321.4787,-122.2178 299.5689,-99.4316 287.2717,-86.6426"/>
<polygon fill="#191970" stroke="#191970" points="334.3495,-140.6532 343.8035,-145.4357 339.3953,-135.8014 334.3495,-140.6532"/>
</g>
<!-- Node40 -->
<g id="node8" class="node">
<title>Node40</title>
<g id="a_node8"><a xlink:href="generate__urdf_8cc.html" target="_top" xlink:title="generate_urdf.cc">
<polygon fill="#ffffff" stroke="#000000" points="266,-.5 266,-19.5 364,-19.5 364,-.5 266,-.5"/>
<text text-anchor="middle" x="315" y="-7.5" font-family="Helvetica,sans-Serif" font-size="10.00" fill="#000000">generate_urdf.cc</text>
</a>
</g>
</g>
<!-- Node38&#45;&gt;Node40 -->
<g id="edge9" class="edge">
<title>Node38&#45;&gt;Node40</title>
<path fill="none" stroke="#191970" d="M350.3963,-135.1487C347.4682,-114.9563 342.0454,-82.8961 334,-56 330.1371,-43.0861 323.9267,-28.8295 319.6642,-19.662"/>
<polygon fill="#191970" stroke="#191970" points="346.9616,-135.8623 351.8001,-145.2878 353.8954,-134.9022 346.9616,-135.8623"/>
</g>
<!-- Node41 -->
<g id="node9" class="node">
<title>Node41</title>
<g id="a_node9"><a xlink:href="generate__obj_8cc.html" target="_top" xlink:title="generate_obj.cc">
<polygon fill="#ffffff" stroke="#000000" points="381,-67.5 381,-86.5 475,-86.5 475,-67.5 381,-67.5"/>
<text text-anchor="middle" x="428" y="-74.5" font-family="Helvetica,sans-Serif" font-size="10.00" fill="#000000">generate_obj.cc</text>
</a>
</g>
</g>
<!-- Node38&#45;&gt;Node41 -->
<g id="edge8" class="edge">
<title>Node38&#45;&gt;Node41</title>
<path fill="none" stroke="#191970" d="M369.399,-137.9451C384.5213,-122.2178 406.4311,-99.4316 418.7283,-86.6426"/>
<polygon fill="#191970" stroke="#191970" points="366.6047,-135.8014 362.1965,-145.4357 371.6505,-140.6532 366.6047,-135.8014"/>
</g>
<!-- Node39&#45;&gt;Node40 -->
<g id="edge7" class="edge">
<title>Node39&#45;&gt;Node40</title>
<path fill="none" stroke="#191970" d="M288.1557,-58.6099C295.1307,-45.9795 304.1076,-29.7241 309.7086,-19.5817"/>
<polygon fill="#191970" stroke="#191970" points="285.0716,-56.9547 283.3012,-67.4005 291.1993,-60.3386 285.0716,-56.9547"/>
</g>
<!-- Node43&#45;&gt;Node44 -->
<g id="edge12" class="edge">
<title>Node43&#45;&gt;Node44</title>
<path fill="none" stroke="#191970" d="M695.3823,-207.4823C677.6734,-197.5296 656.3038,-185.5196 638.4785,-175.5015"/>
<polygon fill="#191970" stroke="#191970" points="693.8387,-210.6296 704.2711,-212.478 697.2684,-204.5273 693.8387,-210.6296"/>
</g>
<!-- Node46 -->
<g id="node14" class="node">
<title>Node46</title>
<g id="a_node14"><a xlink:href="manual__discrete__value__rule__state__provider_8cc.html" target="_top" xlink:title="manual_discrete_value\l_rule_state_provider.cc">
<polygon fill="#ffffff" stroke="#000000" points="692,-140 692,-170 822,-170 822,-140 692,-140"/>
<text text-anchor="start" x="700" y="-158" font-family="Helvetica,sans-Serif" font-size="10.00" fill="#000000">manual_discrete_value</text>
<text text-anchor="middle" x="757" y="-147" font-family="Helvetica,sans-Serif" font-size="10.00" fill="#000000">_rule_state_provider.cc</text>
</a>
</g>
</g>
<!-- Node43&#45;&gt;Node46 -->
<g id="edge14" class="edge">
<title>Node43&#45;&gt;Node46</title>
<path fill="none" stroke="#191970" d="M739.7816,-203.0128C743.7056,-192.0709 748.2047,-179.5252 751.6197,-170.0028"/>
<polygon fill="#191970" stroke="#191970" points="736.4684,-201.8834 736.3872,-212.478 743.0575,-204.2465 736.4684,-201.8834"/>
</g>
<!-- Node45 -->
<g id="node13" class="node">
<title>Node45</title>
<g id="a_node13"><a xlink:href="phase__based__right__of__way__discrete__value__rule__state__provider_8cc.html" target="_top" xlink:title="phase_based_right_of\l_way_discrete_value_rule\l_state_provider.cc">
<polygon fill="#ffffff" stroke="#000000" points="530.5,-56.5 530.5,-97.5 673.5,-97.5 673.5,-56.5 530.5,-56.5"/>
<text text-anchor="start" x="538.5" y="-85.5" font-family="Helvetica,sans-Serif" font-size="10.00" fill="#000000">phase_based_right_of</text>
<text text-anchor="start" x="538.5" y="-74.5" font-family="Helvetica,sans-Serif" font-size="10.00" fill="#000000">_way_discrete_value_rule</text>
<text text-anchor="middle" x="602" y="-63.5" font-family="Helvetica,sans-Serif" font-size="10.00" fill="#000000">_state_provider.cc</text>
</a>
</g>
</g>
<!-- Node44&#45;&gt;Node45 -->
<g id="edge13" class="edge">
<title>Node44&#45;&gt;Node45</title>
<path fill="none" stroke="#191970" d="M602,-124.0789C602,-115.2178 602,-105.7747 602,-97.6898"/>
<polygon fill="#191970" stroke="#191970" points="598.5001,-124.0974 602,-134.0974 605.5001,-124.0975 598.5001,-124.0974"/>
</g>
<!-- Node48 -->
<g id="node16" class="node">
<title>Node48</title>
<g id="a_node16"><a xlink:href="rule__tools_8cc.html" target="_top" xlink:title="rule_tools.cc">
<polygon fill="#ffffff" stroke="#000000" points="840,-145.5 840,-164.5 918,-164.5 918,-145.5 840,-145.5"/>
<text text-anchor="middle" x="879" y="-152.5" font-family="Helvetica,sans-Serif" font-size="10.00" fill="#000000">rule_tools.cc</text>
</a>
</g>
</g>
<!-- Node47&#45;&gt;Node48 -->
<g id="edge17" class="edge">
<title>Node47&#45;&gt;Node48</title>
<path fill="none" stroke="#191970" d="M870.2929,-207.6054C872.6071,-193.6237 875.6012,-175.5346 877.4073,-164.6228"/>
<polygon fill="#191970" stroke="#191970" points="866.7984,-207.285 868.6184,-217.7223 873.7044,-208.4281 866.7984,-207.285"/>
</g>
<!-- Node50 -->
<g id="node18" class="node">
<title>Node50</title>
<g id="a_node18"><a xlink:href="mock_8cc.html" target="_top" xlink:title="mock.cc">
<polygon fill="#ffffff" stroke="#000000" points="936.5,-145.5 936.5,-164.5 993.5,-164.5 993.5,-145.5 936.5,-145.5"/>
<text text-anchor="middle" x="965" y="-152.5" font-family="Helvetica,sans-Serif" font-size="10.00" fill="#000000">mock.cc</text>
</a>
</g>
</g>
<!-- Node49&#45;&gt;Node50 -->
<g id="edge19" class="edge">
<title>Node49&#45;&gt;Node50</title>
<path fill="none" stroke="#191970" d="M960.6465,-207.6054C961.8036,-193.6237 963.3006,-175.5346 964.2036,-164.6228"/>
<polygon fill="#191970" stroke="#191970" points="957.146,-207.4677 959.8092,-217.7223 964.1221,-208.0451 957.146,-207.4677"/>
</g>
</g>
</svg>
        <g id="navigator" transform="translate(0 0)" fill="#404254">
                <rect fill="#f2f5e9" fill-opacity="0.5" stroke="#606060" stroke-width=".5" x="0" y="0" width="60" height="60"/>
                <use id="zoomplus" xlink:href="#zoomPlus" x="17" y="9" onmousedown="handleZoom(evt,'in')"/>
                <use id="zoomminus" xlink:href="#zoomMin" x="42" y="9" onmousedown="handleZoom(evt,'out')"/>
                <use id="reset" xlink:href="#resetDef" x="30" y="36" onmousedown="handleReset()"/>
                <g id="arrowUp" xlink:href="#dirArrow" transform="translate(30 24)" onmousedown="handlePan(0,-1)">
                  <use xlink:href="#rim" fill="#404040">
                        <set attributeName="fill" to="#808080" begin="arrowUp.mouseover" end="arrowUp.mouseout"/>
                  </use>
                  <path fill="none" stroke="white" stroke-width="1.5" d="M0,-3.0v7 M-2.5,-0.5L0,-3.0L2.5,-0.5"/>
                </g>
                <g id="arrowRight" xlink:href="#dirArrow" transform="rotate(90) translate(36 -43)" onmousedown="handlePan(1,0)">
                  <use xlink:href="#rim" fill="#404040">
                        <set attributeName="fill" to="#808080" begin="arrowRight.mouseover" end="arrowRight.mouseout"/>
                  </use>
                  <path fill="none" stroke="white" stroke-width="1.5" d="M0,-3.0v7 M-2.5,-0.5L0,-3.0L2.5,-0.5"/>
                </g>
                <g id="arrowDown" xlink:href="#dirArrow" transform="rotate(180) translate(-30 -48)" onmousedown="handlePan(0,1)">
                  <use xlink:href="#rim" fill="#404040">
                        <set attributeName="fill" to="#808080" begin="arrowDown.mouseover" end="arrowDown.mouseout"/>
                  </use>
                  <path fill="none" stroke="white" stroke-width="1.5" d="M0,-3.0v7 M-2.5,-0.5L0,-3.0L2.5,-0.5"/>
                </g>
                <g id="arrowLeft" xlink:href="#dirArrow" transform="rotate(270) translate(-36 17)" onmousedown="handlePan(-1,0)">
                  <use xlink:href="#rim" fill="#404040">
                        <set attributeName="fill" to="#808080" begin="arrowLeft.mouseover" end="arrowLeft.mouseout"/>
                  </use>
                  <path fill="none" stroke="white" stroke-width="1.5" d="M0,-3.0v7 M-2.5,-0.5L0,-3.0L2.5,-0.5"/>
                </g>
        </g>
        <svg viewBox="0 0 15 15" width="100%" height="30px" preserveAspectRatio="xMaxYMin meet">
         <g id="arrow_out" transform="scale(0.3 0.3)">
          <a xlink:href="discrete__value__rule__state__provider_8h__dep__incl_org.svg" target="_base">
           <rect id="button" ry="5" rx="5" y="6" x="6" height="38" width="38"
                fill="#f2f5e9" fill-opacity="0.5" stroke="#606060" stroke-width="1.0"/>
           <path id="arrow"
             d="M 11.500037,31.436501 C 11.940474,20.09759 22.043105,11.32322 32.158766,21.979434 L 37.068811,17.246167 C 37.068811,17.246167 37.088388,32 37.088388,32 L 22.160133,31.978069 C 22.160133,31.978069 26.997745,27.140456 26.997745,27.140456 C 18.528582,18.264221 13.291696,25.230495 11.500037,31.436501 z"
             style="fill:#404040;"/>
          </a>
         </g>
        </svg>
</svg>
