<?xml version="1.0" encoding="UTF-8" standalone="no"?>
<!DOCTYPE svg PUBLIC "-//W3C//DTD SVG 1.1//EN"
 "http://www.w3.org/Graphics/SVG/1.1/DTD/svg11.dtd">
<!-- Generated by graphviz version 2.40.1 (20161225.0304)
 -->
<!-- Title: find_lane_sequences.h Pages: 1 -->
<svg width="292pt" height="84pt"
 viewBox="0.00 0.00 292.00 84.00" xmlns="http://www.w3.org/2000/svg" xmlns:xlink="http://www.w3.org/1999/xlink">
<g id="graph0" class="graph" transform="scale(1 1) rotate(0) translate(4 80)">
<title>find_lane_sequences.h</title>
<polygon fill="#ffffff" stroke="transparent" points="-4,4 -4,-80 288,-80 288,4 -4,4"/>
<!-- Node27 -->
<g id="node1" class="node">
<title>Node27</title>
<polygon fill="#bfbfbf" stroke="#000000" points="78,-56.5 78,-75.5 206,-75.5 206,-56.5 78,-56.5"/>
<text text-anchor="middle" x="142" y="-63.5" font-family="Helvetica,sans-Serif" font-size="10.00" fill="#000000">find_lane_sequences.h</text>
</g>
<!-- Node28 -->
<g id="node2" class="node">
<title>Node28</title>
<g id="a_node2"><a xlink:href="derive__lane__s__routes_8cc.html" target="_top" xlink:title="derive_lane_s_routes.cc">
<polygon fill="#ffffff" stroke="#000000" points="0,-.5 0,-19.5 134,-19.5 134,-.5 0,-.5"/>
<text text-anchor="middle" x="67" y="-7.5" font-family="Helvetica,sans-Serif" font-size="10.00" fill="#000000">derive_lane_s_routes.cc</text>
</a>
</g>
</g>
<!-- Node27&#45;&gt;Node28 -->
<g id="edge1" class="edge">
<title>Node27&#45;&gt;Node28</title>
<path fill="none" stroke="#191970" d="M120.8523,-50.2097C107.6799,-40.3743 91.16,-28.0394 79.9143,-19.6427"/>
<polygon fill="#191970" stroke="#191970" points="118.8291,-53.0671 128.936,-56.2455 123.0172,-47.4581 118.8291,-53.0671"/>
</g>
<!-- Node29 -->
<g id="node3" class="node">
<title>Node29</title>
<g id="a_node3"><a xlink:href="find__lane__sequences_8cc.html" target="_top" xlink:title="find_lane_sequences.cc">
<polygon fill="#ffffff" stroke="#000000" points="152,-.5 152,-19.5 284,-19.5 284,-.5 152,-.5"/>
<text text-anchor="middle" x="218" y="-7.5" font-family="Helvetica,sans-Serif" font-size="10.00" fill="#000000">find_lane_sequences.cc</text>
</a>
</g>
</g>
<!-- Node27&#45;&gt;Node29 -->
<g id="edge2" class="edge">
<title>Node27&#45;&gt;Node29</title>
<path fill="none" stroke="#191970" d="M163.4297,-50.2097C176.7777,-40.3743 193.5179,-28.0394 204.9135,-19.6427"/>
<polygon fill="#191970" stroke="#191970" points="161.2126,-47.4958 155.2382,-56.2455 165.365,-53.1312 161.2126,-47.4958"/>
</g>
</g>
</svg>
