<?xml version="1.0" encoding="UTF-8" standalone="no"?>
<!DOCTYPE svg PUBLIC "-//W3C//DTD SVG 1.1//EN"
 "http://www.w3.org/Graphics/SVG/1.1/DTD/svg11.dtd">
<!-- Generated by graphviz version 2.40.1 (20161225.0304)
 -->
<!-- Title: Graphical Class Hierarchy Pages: 1 -->
<svg width="312pt" height="66pt"
 viewBox="0.00 0.00 312.00 66.00" xmlns="http://www.w3.org/2000/svg" xmlns:xlink="http://www.w3.org/1999/xlink">
<g id="graph0" class="graph" transform="scale(1 1) rotate(0) translate(4 62)">
<title>Graphical Class Hierarchy</title>
<polygon fill="#ffffff" stroke="transparent" points="-4,4 -4,-62 308,-62 308,4 -4,4"/>
<!-- Node0 -->
<g id="node1" class="node">
<title>Node0</title>
<g id="a_node1"><a xlink:href="classmaliput_1_1api_1_1_segment.html" target="_top" xlink:title="A Segment represents a bundle of adjacent Lanes which share a continuously traversable road surface...">
<polygon fill="#ffffff" stroke="#000000" points="0,-19.5 0,-38.5 60,-38.5 60,-19.5 0,-19.5"/>
<text text-anchor="middle" x="30" y="-26.5" font-family="Helvetica,sans-Serif" font-size="10.00" fill="#000000">Segment</text>
</a>
</g>
</g>
<!-- Node1 -->
<g id="node2" class="node">
<title>Node1</title>
<g id="a_node2"><a xlink:href="classmaliput_1_1api_1_1test_1_1_mock_segment.html" target="_top" xlink:title="MockSegment">
<polygon fill="#ffffff" stroke="#000000" points="96,-38.5 96,-57.5 182,-57.5 182,-38.5 96,-38.5"/>
<text text-anchor="middle" x="139" y="-45.5" font-family="Helvetica,sans-Serif" font-size="10.00" fill="#000000">MockSegment</text>
</a>
</g>
</g>
<!-- Node0&#45;&gt;Node1 -->
<g id="edge1" class="edge">
<title>Node0&#45;&gt;Node1</title>
<path fill="none" stroke="#191970" d="M70.0575,-35.9825C78.4942,-37.4531 87.4285,-39.0105 95.9692,-40.4992"/>
<polygon fill="#191970" stroke="#191970" points="70.5258,-32.5114 60.0733,-34.2421 69.3237,-39.4074 70.5258,-32.5114"/>
</g>
<!-- Node2 -->
<g id="node3" class="node">
<title>Node2</title>
<g id="a_node3"><a xlink:href="classmaliput_1_1geometry__base_1_1_segment.html" target="_top" xlink:title="geometry_base&#39;s implementation of api::Segment. ">
<polygon fill="#ffffff" stroke="#000000" points="109,-.5 109,-19.5 169,-19.5 169,-.5 109,-.5"/>
<text text-anchor="middle" x="139" y="-7.5" font-family="Helvetica,sans-Serif" font-size="10.00" fill="#000000">Segment</text>
</a>
</g>
</g>
<!-- Node0&#45;&gt;Node2 -->
<g id="edge2" class="edge">
<title>Node0&#45;&gt;Node2</title>
<path fill="none" stroke="#191970" d="M70.0069,-22.0263C82.7727,-19.8011 96.6825,-17.3764 108.6465,-15.291"/>
<polygon fill="#191970" stroke="#191970" points="69.3237,-18.5926 60.0733,-23.7579 70.5258,-25.4886 69.3237,-18.5926"/>
</g>
<!-- Node3 -->
<g id="node4" class="node">
<title>Node3</title>
<g id="a_node4"><a xlink:href="classmaliput_1_1geometry__base_1_1test_1_1_mock_segment.html" target="_top" xlink:title="Mock api::Segment implementation; see mock_geometry.h. ">
<polygon fill="#ffffff" stroke="#000000" points="218,-.5 218,-19.5 304,-19.5 304,-.5 218,-.5"/>
<text text-anchor="middle" x="261" y="-7.5" font-family="Helvetica,sans-Serif" font-size="10.00" fill="#000000">MockSegment</text>
</a>
</g>
</g>
<!-- Node2&#45;&gt;Node3 -->
<g id="edge3" class="edge">
<title>Node2&#45;&gt;Node3</title>
<path fill="none" stroke="#191970" d="M179.2002,-10C191.5827,-10 205.2642,-10 217.8371,-10"/>
<polygon fill="#191970" stroke="#191970" points="179.1573,-6.5001 169.1573,-10 179.1573,-13.5001 179.1573,-6.5001"/>
</g>
</g>
</svg>
