<?xml version="1.0" encoding="UTF-8" standalone="no"?>
<!DOCTYPE svg PUBLIC "-//W3C//DTD SVG 1.1//EN"
 "http://www.w3.org/Graphics/SVG/1.1/DTD/svg11.dtd">
<!-- Generated by graphviz version 2.40.1 (20161225.0304)
 -->
<!-- Title: Graphical Class Hierarchy Pages: 1 -->
<svg width="365pt" height="88pt"
 viewBox="0.00 0.00 365.00 88.00" xmlns="http://www.w3.org/2000/svg" xmlns:xlink="http://www.w3.org/1999/xlink">
<g id="graph0" class="graph" transform="scale(1 1) rotate(0) translate(4 84)">
<title>Graphical Class Hierarchy</title>
<polygon fill="#ffffff" stroke="transparent" points="-4,4 -4,-84 361,-84 361,4 -4,4"/>
<!-- Node0 -->
<g id="node1" class="node">
<title>Node0</title>
<g id="a_node1"><a xlink:href="classmaliput_1_1api_1_1rules_1_1_right_of_way_rule_state_provider.html" target="_top" xlink:title="Abstract interface for the provider of the RightOfWayRule. ">
<polygon fill="#ffffff" stroke="#000000" points="0,-30 0,-49 163,-49 163,-30 0,-30"/>
<text text-anchor="middle" x="81.5" y="-37" font-family="Helvetica,sans-Serif" font-size="10.00" fill="#000000">RightOfWayRuleStateProvider</text>
</a>
</g>
</g>
<!-- Node1 -->
<g id="node2" class="node">
<title>Node1</title>
<g id="a_node2"><a xlink:href="classmaliput_1_1_manual_right_of_way_rule_state_provider.html" target="_top" xlink:title="A trivial implementation of an api::rules::RightOfWayRuleStateProvider. ">
<polygon fill="#ffffff" stroke="#000000" points="199,-49.5 199,-79.5 357,-79.5 357,-49.5 199,-49.5"/>
<text text-anchor="start" x="207" y="-67.5" font-family="Helvetica,sans-Serif" font-size="10.00" fill="#000000">ManualRightOfWayRuleState</text>
<text text-anchor="middle" x="278" y="-56.5" font-family="Helvetica,sans-Serif" font-size="10.00" fill="#000000">Provider</text>
</a>
</g>
</g>
<!-- Node0&#45;&gt;Node1 -->
<g id="edge1" class="edge">
<title>Node0&#45;&gt;Node1</title>
<path fill="none" stroke="#191970" d="M166.5349,-50.3187C177.245,-51.6813 188.1686,-53.0711 198.7838,-54.4216"/>
<polygon fill="#191970" stroke="#191970" points="166.7106,-46.8129 156.3488,-49.0227 165.8271,-53.7569 166.7106,-46.8129"/>
</g>
<!-- Node2 -->
<g id="node3" class="node">
<title>Node2</title>
<g id="a_node3"><a xlink:href="classmaliput_1_1_phase_based_right_of_way_rule_state_provider.html" target="_top" xlink:title="Provides the state of api::rules::RightOfWayRule instances based on the current api::rules::Phase. ">
<polygon fill="#ffffff" stroke="#000000" points="200,-.5 200,-30.5 356,-30.5 356,-.5 200,-.5"/>
<text text-anchor="start" x="208" y="-18.5" font-family="Helvetica,sans-Serif" font-size="10.00" fill="#000000">PhaseBasedRightOfWayRule</text>
<text text-anchor="middle" x="278" y="-7.5" font-family="Helvetica,sans-Serif" font-size="10.00" fill="#000000">StateProvider</text>
</a>
</g>
</g>
<!-- Node0&#45;&gt;Node2 -->
<g id="edge2" class="edge">
<title>Node0&#45;&gt;Node2</title>
<path fill="none" stroke="#191970" d="M169.4904,-28.7531C179.6014,-27.5181 189.8591,-26.2653 199.8285,-25.0477"/>
<polygon fill="#191970" stroke="#191970" points="168.9461,-25.2935 159.4442,-29.9801 169.7948,-32.2418 168.9461,-25.2935"/>
</g>
</g>
</svg>
