<?xml version="1.0" encoding="UTF-8" standalone="no"?>
<!DOCTYPE svg PUBLIC "-//W3C//DTD SVG 1.1//EN"
 "http://www.w3.org/Graphics/SVG/1.1/DTD/svg11.dtd">
<!-- Generated by graphviz version 2.40.1 (20161225.0304)
 -->
<!-- Title: rules_compare.h Pages: 1 -->
<svg width="242pt" height="84pt"
 viewBox="0.00 0.00 241.50 84.00" xmlns="http://www.w3.org/2000/svg" xmlns:xlink="http://www.w3.org/1999/xlink">
<g id="graph0" class="graph" transform="scale(1 1) rotate(0) translate(4 80)">
<title>rules_compare.h</title>
<polygon fill="#ffffff" stroke="transparent" points="-4,4 -4,-80 237.5,-80 237.5,4 -4,4"/>
<!-- Node35 -->
<g id="node1" class="node">
<title>Node35</title>
<polygon fill="#bfbfbf" stroke="#000000" points="70.5,-56.5 70.5,-75.5 168.5,-75.5 168.5,-56.5 70.5,-56.5"/>
<text text-anchor="middle" x="119.5" y="-63.5" font-family="Helvetica,sans-Serif" font-size="10.00" fill="#000000">rules_compare.h</text>
</g>
<!-- Node36 -->
<g id="node2" class="node">
<title>Node36</title>
<g id="a_node2"><a xlink:href="phases__compare_8cc.html" target="_top" xlink:title="phases_compare.cc">
<polygon fill="#ffffff" stroke="#000000" points="0,-.5 0,-19.5 113,-19.5 113,-.5 0,-.5"/>
<text text-anchor="middle" x="56.5" y="-7.5" font-family="Helvetica,sans-Serif" font-size="10.00" fill="#000000">phases_compare.cc</text>
</a>
</g>
</g>
<!-- Node35&#45;&gt;Node36 -->
<g id="edge1" class="edge">
<title>Node35&#45;&gt;Node36</title>
<path fill="none" stroke="#191970" d="M100.7808,-49.3607C89.8818,-39.6727 76.5245,-27.7995 67.348,-19.6427"/>
<polygon fill="#191970" stroke="#191970" points="98.7268,-52.2178 108.5262,-56.2455 103.3774,-46.9859 98.7268,-52.2178"/>
</g>
<!-- Node37 -->
<g id="node3" class="node">
<title>Node37</title>
<g id="a_node3"><a xlink:href="rules__compare_8cc.html" target="_top" xlink:title="rules_compare.cc">
<polygon fill="#ffffff" stroke="#000000" points="131.5,-.5 131.5,-19.5 233.5,-19.5 233.5,-.5 131.5,-.5"/>
<text text-anchor="middle" x="182.5" y="-7.5" font-family="Helvetica,sans-Serif" font-size="10.00" fill="#000000">rules_compare.cc</text>
</a>
</g>
</g>
<!-- Node35&#45;&gt;Node37 -->
<g id="edge2" class="edge">
<title>Node35&#45;&gt;Node37</title>
<path fill="none" stroke="#191970" d="M138.2192,-49.3607C149.1182,-39.6727 162.4755,-27.7995 171.652,-19.6427"/>
<polygon fill="#191970" stroke="#191970" points="135.6226,-46.9859 130.4738,-56.2455 140.2732,-52.2178 135.6226,-46.9859"/>
</g>
</g>
</svg>
